<?xml version="1.0" encoding="utf-8"?>
<!-- Generator: Adobe Illustrator 19.1.0, SVG Export Plug-In . SVG Version: 6.00 Build 0)  -->
<svg version="1.1" id="Layer_1" xmlns="http://www.w3.org/2000/svg" xmlns:xlink="http://www.w3.org/1999/xlink" x="0px" y="0px"
	 viewBox="0 0 32 32" enable-background="new 0 0 32 32" xml:space="preserve">
<path fill="#455B65" d="M30.667,2.625H24.25H7.75H1.333c-0.552,0-1,0.447-1,1v6.188V16v6.188v6.188c0,0.553,0.448,1,1,1H7.75h16.5
	h6.417c0.552,0,1-0.447,1-1v-6.188V16V9.813V3.625C31.667,3.072,31.219,2.625,30.667,2.625z M29.667,15H25.25v-4.188h4.417V15z
	 M23.25,9.813V15H8.75V9.813V4.625h14.5V9.813z M6.75,15H2.333v-4.188H6.75V15z M2.333,17H6.75v4.188H2.333V17z M8.75,22.188V17
	h14.5v5.188v5.188H8.75V22.188z M25.25,17h4.417v4.188H25.25V17z M29.667,4.625v4.188H25.25V4.625H29.667z M2.333,4.625H6.75v4.188
	H2.333V4.625z M2.333,27.375v-4.188H6.75v4.188H2.333z M29.667,27.375H25.25v-4.188h4.417V27.375z"/>
</svg>
