<?xml version="1.0" encoding="utf-8"?>
<!-- Generator: Adobe Illustrator 19.1.0, SVG Export Plug-In . SVG Version: 6.00 Build 0)  -->
<svg version="1.1" id="Layer_1" xmlns="http://www.w3.org/2000/svg" xmlns:xlink="http://www.w3.org/1999/xlink" x="0px" y="0px"
	 viewBox="0 0 32 32" enable-background="new 0 0 32 32" xml:space="preserve">
<g>
	<path fill="#455B65" d="M25.273,11.04l-4.151-7.189c-0.178-0.309-0.508-0.5-0.866-0.5H16.5V0.649c0-0.276-0.224-0.5-0.5-0.5
		s-0.5,0.224-0.5,0.5v2.702h-3.756c-0.357,0-0.688,0.19-0.866,0.5l-4.149,7.187c-0.174,0.185-0.271,0.43-0.271,0.684l0,19.129
		c0,0.265,0.105,0.519,0.293,0.707c0.188,0.188,0.442,0.293,0.707,0.293l17.083,0c0.276,0,0.526-0.112,0.707-0.293
		c0.181-0.181,0.293-0.431,0.293-0.707l0-19.128C25.542,11.459,25.439,11.219,25.273,11.04z M16,9.601c0.276,0,0.5-0.224,0.5-0.5
		V8.255C16.793,8.43,17,8.736,17,9.101c0.001,0.551-0.447,1-1,1c-0.551,0-1-0.449-1-1c0-0.276,0.113-0.526,0.293-0.706
		c0.059-0.059,0.135-0.097,0.207-0.14v0.846C15.5,9.377,15.724,9.601,16,9.601z M23.542,29.851l-15.083,0l0-17.809l3.863-6.692H15.5
		v1.821c-0.86,0.224-1.5,1-1.5,1.929c0,1.102,0.898,2,2,2c0.551,0,1.052-0.224,1.414-0.586C17.776,10.153,18,9.652,18,9.101
		c0-0.929-0.64-1.705-1.5-1.929V5.351h3.178l3.863,6.691V29.851z"/>
	<path fill="#455B65" d="M14.358,18.779c0-0.617-0.211-1.14-0.633-1.567s-0.938-0.642-1.547-0.642s-1.125,0.214-1.547,0.642
		s-0.633,0.95-0.633,1.567c0,0.605,0.211,1.116,0.633,1.532s0.938,0.624,1.547,0.624s1.125-0.208,1.547-0.624
		S14.358,19.384,14.358,18.779z M12.849,19.438c-0.178,0.178-0.401,0.267-0.671,0.267s-0.493-0.089-0.671-0.267
		s-0.267-0.401-0.267-0.671c0-0.277,0.089-0.508,0.267-0.691s0.401-0.275,0.671-0.275s0.493,0.092,0.671,0.275
		s0.267,0.414,0.267,0.691C13.115,19.036,13.027,19.26,12.849,19.438z"/>
	<path fill="#455B65" d="M19.257,16.314c-0.09-0.152-0.253-0.245-0.43-0.245h-0.881c-0.183,0-0.352,0.1-0.439,0.261l-4.773,8.754
		c-0.084,0.155-0.081,0.343,0.01,0.494c0.09,0.152,0.253,0.245,0.43,0.245h0.881c0.183,0,0.352-0.1,0.439-0.261l4.773-8.754
		C19.351,16.653,19.348,16.466,19.257,16.314z"/>
	<path fill="#455B65" d="M17.642,22.997c0,0.605,0.211,1.116,0.633,1.532s0.938,0.624,1.547,0.624s1.125-0.208,1.547-0.624
		s0.633-0.927,0.633-1.532c0-0.617-0.211-1.14-0.633-1.567s-0.938-0.642-1.547-0.642s-1.125,0.214-1.547,0.642
		S17.642,22.38,17.642,22.997z M19.151,22.294c0.178-0.184,0.401-0.275,0.671-0.275s0.493,0.092,0.671,0.275
		s0.267,0.414,0.267,0.691c0,0.27-0.089,0.493-0.267,0.671s-0.401,0.267-0.671,0.267s-0.493-0.089-0.671-0.267
		s-0.267-0.401-0.267-0.671C18.885,22.708,18.973,22.478,19.151,22.294z"/>
</g>
</svg>
