<?xml version="1.0" encoding="utf-8"?>
<!-- Generator: Adobe Illustrator 19.1.0, SVG Export Plug-In . SVG Version: 6.00 Build 0)  -->
<svg version="1.1" id="Layer_1" xmlns="http://www.w3.org/2000/svg" xmlns:xlink="http://www.w3.org/1999/xlink" x="0px" y="0px"
	 viewBox="0 0 32 32" enable-background="new 0 0 32 32" xml:space="preserve">
<g>
	<path fill="#455B65" d="M18.181,23.535L17,24.482v-9.708c0-0.552-0.447-1-1-1s-1,0.448-1,1v9.708l-1.181-0.947
		c-0.431-0.345-1.062-0.275-1.406,0.155c-0.346,0.431-0.276,1.06,0.154,1.406l2.807,2.25c0.046,0.037,0.1,0.055,0.15,0.083
		c0.039,0.022,0.074,0.048,0.117,0.064c0.116,0.045,0.236,0.073,0.359,0.073c0.123,0,0.243-0.028,0.359-0.073
		c0.043-0.016,0.078-0.043,0.117-0.065c0.05-0.028,0.104-0.046,0.15-0.083l2.807-2.25c0.431-0.346,0.5-0.975,0.154-1.406
		C19.242,23.26,18.613,23.19,18.181,23.535z"/>
	<path fill="#455B65" d="M23.264,8.651L19.06,4.706c-0.186-0.174-0.431-0.271-0.685-0.271H9.421c-0.553,0-1,0.448-1,1v15.297
		c0,0.552,0.447,1,1,1h3.1c0.553,0,1-0.448,1-1s-0.447-1-1-1h-2.1V6.435h7.454V9.38c0,0.276,0.224,0.5,0.5,0.5h3.204v9.852h-2.059
		c-0.553,0-1,0.448-1,1s0.447,1,1,1h3.059c0.553,0,1-0.448,1-1V9.38C23.579,9.104,23.465,8.84,23.264,8.651z M18.875,7.275
		l1.71,1.605h-1.71V7.275z"/>
</g>
</svg>
