<?xml version="1.0" encoding="utf-8"?>
<!-- Generator: Adobe Illustrator 19.1.0, SVG Export Plug-In . SVG Version: 6.00 Build 0)  -->
<svg version="1.1" id="Layer_1" xmlns="http://www.w3.org/2000/svg" xmlns:xlink="http://www.w3.org/1999/xlink" x="0px" y="0px"
	 viewBox="0 0 32 32" enable-background="new 0 0 32 32" xml:space="preserve">
<g>
	<path fill="#455B65" d="M29.351,8.142l-8.093-7.598c-0.186-0.174-0.43-0.271-0.685-0.271H3.334c-0.552,0-1,0.447-1,1v29.453
		c0,0.553,0.448,1,1,1h25.333c0.552,0,1-0.447,1-1V8.871C29.666,8.595,29.552,8.331,29.351,8.142z M21.073,3.115l5.599,5.257h-5.599
		V3.115z M4.334,29.727V2.273h15.74v6.598c0,0.276,0.224,0.5,0.5,0.5h7.093v20.355H4.334z"/>
	<path fill="#455B65" d="M11.433,14.646c-0.214-0.173-0.529-0.138-0.703,0.077L8.48,17.53c-0.146,0.183-0.146,0.442,0,0.625
		l2.25,2.807c0.099,0.123,0.244,0.188,0.391,0.188c0.109,0,0.22-0.036,0.312-0.11c0.216-0.172,0.25-0.487,0.078-0.702l-2-2.494
		l2-2.494C11.683,15.134,11.649,14.818,11.433,14.646z"/>
	<path fill="#455B65" d="M21.27,14.724c-0.171-0.215-0.487-0.25-0.703-0.077c-0.216,0.172-0.25,0.487-0.078,0.702l2,2.494l-2,2.494
		c-0.173,0.215-0.138,0.53,0.078,0.702c0.092,0.074,0.203,0.11,0.312,0.11c0.146,0,0.292-0.064,0.391-0.188l2.25-2.807
		c0.146-0.183,0.146-0.442,0-0.625L21.27,14.724z"/>
	<path fill="#455B65" d="M18.569,12.899c-0.246-0.124-0.547-0.025-0.671,0.222l-4.688,9.313c-0.124,0.246-0.025,0.547,0.222,0.671
		c0.072,0.036,0.148,0.054,0.224,0.054c0.183,0,0.359-0.101,0.447-0.275l4.688-9.313C18.915,13.324,18.816,13.023,18.569,12.899z"/>
</g>
</svg>
