<?xml version="1.0" encoding="utf-8"?>
<!-- Generator: Adobe Illustrator 19.1.0, SVG Export Plug-In . SVG Version: 6.00 Build 0)  -->
<svg version="1.1" id="Layer_1" xmlns="http://www.w3.org/2000/svg" xmlns:xlink="http://www.w3.org/1999/xlink" x="0px" y="0px"
	 viewBox="0 0 32 32" enable-background="new 0 0 32 32" xml:space="preserve">
<g>
	<path fill="#455B65" d="M29.351,8.142l-8.093-7.597c-0.186-0.174-0.43-0.271-0.685-0.271H3.334c-0.552,0-1,0.448-1,1v29.452
		c0,0.552,0.448,1,1,1h25.333c0.552,0,1-0.448,1-1V8.871C29.666,8.594,29.552,8.331,29.351,8.142z M21.073,3.115l5.599,5.256h-5.599
		V3.115z M4.334,29.726V2.274h15.74v6.597c0,0.276,0.224,0.5,0.5,0.5h7.093v20.355H4.334z"/>
	<path fill="#455B65" d="M6.375,6.505h11.156c0.276,0,0.5-0.224,0.5-0.5s-0.224-0.5-0.5-0.5H6.375c-0.276,0-0.5,0.224-0.5,0.5
		S6.099,6.505,6.375,6.505z"/>
	<path fill="#455B65" d="M16.5,9.101c0-0.276-0.224-0.5-0.5-0.5H6.375c-0.276,0-0.5,0.224-0.5,0.5s0.224,0.5,0.5,0.5H16
		C16.277,9.601,16.5,9.377,16.5,9.101z"/>
	<path fill="#455B65" d="M24.918,22.3H21.71v-2.759c0-0.276-0.224-0.5-0.5-0.5H16.5v-1.68c1.915-0.103,3.708-0.79,3.708-2.027
		c0-2.688-8.417-2.688-8.417,0c0,1.237,1.793,1.924,3.708,2.027v1.68h-4.709c-0.276,0-0.5,0.224-0.5,0.5V22.3H7.082
		c-0.276,0-0.5,0.224-0.5,0.5v3.096c0,0.276,0.224,0.5,0.5,0.5h7.417c0.276,0,0.5-0.224,0.5-0.5V22.8c0-0.276-0.224-0.5-0.5-0.5
		h-3.208v-2.259H16h4.709V22.3h-3.208c-0.276,0-0.5,0.224-0.5,0.5v3.096c0,0.276,0.224,0.5,0.5,0.5h7.417c0.276,0,0.5-0.224,0.5-0.5
		V22.8C25.418,22.524,25.195,22.3,24.918,22.3z M13.999,25.396H7.582V23.3h6.417V25.396z M12.792,15.335
		c0-0.37,1.218-1.048,3.208-1.048s3.208,0.678,3.208,1.048S17.99,16.383,16,16.383S12.792,15.705,12.792,15.335z M24.418,25.396
		h-6.417V23.3h6.417V25.396z"/>
</g>
</svg>
