<?xml version="1.0" encoding="utf-8"?>
<!-- Generator: Adobe Illustrator 19.1.0, SVG Export Plug-In . SVG Version: 6.00 Build 0)  -->
<svg version="1.1" id="Layer_1" xmlns="http://www.w3.org/2000/svg" xmlns:xlink="http://www.w3.org/1999/xlink" x="0px" y="0px"
	 viewBox="0 0 32 32" enable-background="new 0 0 32 32" xml:space="preserve">
<g>
	<path fill="#455B65" d="M30.792,8.41h-7.51L16.5,3.213V2.57c0-0.276-0.224-0.5-0.5-0.5s-0.5,0.224-0.5,0.5v0.643L8.718,8.41h-7.51
		c-0.552,0-1,0.448-1,1V28.93c0,0.552,0.448,1,1,1h29.583c0.552,0,1-0.448,1-1V9.41C31.792,8.857,31.344,8.41,30.792,8.41z
		 M15.5,4.473v0.535c0,0.276,0.224,0.5,0.5,0.5s0.5-0.224,0.5-0.5V4.473l5.138,3.937H10.362L15.5,4.473z M29.792,10.41v15.186
		c-1.555-1.563-4.168-2.592-7.125-2.592c-1.523,0-2.953,0.275-4.197,0.754c-3.381-2.995-9.504-4.898-16.261-5.07V10.41H29.792z
		 M17.117,24.4c-1.467,0.843-2.469,1.982-2.87,3.259c-0.01,0.03-0.023,0.059-0.032,0.089c-0.017,0.06-0.03,0.121-0.045,0.182H2.208
		v-8.243c6.288,0.163,11.981,1.846,15.253,4.514c-0.079,0.041-0.148,0.087-0.225,0.129C17.197,24.354,17.157,24.377,17.117,24.4z
		 M15.216,27.93c0.017-0.051,0.027-0.103,0.046-0.154c0.016-0.044,0.034-0.088,0.052-0.131c0.07-0.164,0.149-0.326,0.245-0.484
		c0.008-0.014,0.015-0.028,0.024-0.042c0.581-0.937,1.607-1.753,2.979-2.326c0.008-0.003,0.012-0.011,0.02-0.015
		c1.182-0.487,2.581-0.774,4.085-0.774c3.256,0,6.034,1.328,7.125,3.187v0.739H15.216z"/>
	<path fill="#455B65" d="M22.667,17.253c1.378,0,2.5-1.122,2.5-2.5s-1.122-2.5-2.5-2.5s-2.5,1.122-2.5,2.5
		S21.288,17.253,22.667,17.253z M22.667,13.253c0.827,0,1.5,0.673,1.5,1.5s-0.673,1.5-1.5,1.5s-1.5-0.673-1.5-1.5
		S21.839,13.253,22.667,13.253z"/>
</g>
</svg>
