<?xml version="1.0" encoding="utf-8"?>
<!-- Generator: Adobe Illustrator 19.1.0, SVG Export Plug-In . SVG Version: 6.00 Build 0)  -->
<svg version="1.1" id="Layer_1" xmlns="http://www.w3.org/2000/svg" xmlns:xlink="http://www.w3.org/1999/xlink" x="0px" y="0px"
	 viewBox="0 0 32 32" enable-background="new 0 0 32 32" xml:space="preserve">
<path fill="#455B65" d="M16,8.148c-7.299,0-14.688,2.002-14.688,5.828v4.047c0,3.826,7.389,5.828,14.688,5.828
	s14.688-2.002,14.688-5.828v-4.047C30.688,10.15,23.299,8.148,16,8.148z M16,10.148c7.745,0,12.688,2.268,12.688,3.828
	S23.745,17.805,16,17.805S3.313,15.537,3.313,13.977S8.255,10.148,16,10.148z M24.26,18.864v1.966
	c-0.484,0.137-1.009,0.263-1.563,0.379v-1.996C23.237,19.11,23.755,18.991,24.26,18.864z M25.26,18.588
	c0.345-0.105,0.679-0.215,1-0.333v1.87c-0.309,0.135-0.636,0.268-1,0.393V18.588z M6.844,18.622v1.93
	c-0.394-0.134-0.751-0.274-1.083-0.418v-1.871C6.107,18.39,6.468,18.51,6.844,18.622z M7.844,18.891
	c0.512,0.127,1.037,0.243,1.583,0.344v2c-0.563-0.114-1.091-0.241-1.583-0.378V18.891z M10.427,19.399
	c0.679,0.102,1.375,0.182,2.083,0.245v2.039c-0.731-0.07-1.427-0.159-2.083-0.267V19.399z M3.313,18.023v-0.961
	c0.426,0.287,0.914,0.549,1.448,0.792v1.784C3.822,19.092,3.313,18.522,3.313,18.023z M13.51,21.767v-2.043
	c0.659,0.042,1.324,0.064,1.99,0.073v0.659c0,0.276,0.224,0.5,0.5,0.5s0.5-0.224,0.5-0.5v-0.659
	c0.701-0.009,1.401-0.033,2.094-0.078v1.284c0,0.276,0.224,0.5,0.5,0.5s0.5-0.224,0.5-0.5v-1.366
	c0.716-0.066,1.419-0.151,2.104-0.257v2.016c-1.661,0.281-3.569,0.456-5.698,0.456C15.132,21.852,14.305,21.819,13.51,21.767z
	 M27.26,19.627v-1.783c0.525-0.24,1.007-0.499,1.427-0.782v0.961C28.688,18.518,28.187,19.084,27.26,19.627z"/>
</svg>
