<?xml version="1.0" encoding="utf-8"?>
<!-- Generator: Adobe Illustrator 19.1.0, SVG Export Plug-In . SVG Version: 6.00 Build 0)  -->
<svg version="1.1" id="Layer_1" xmlns="http://www.w3.org/2000/svg" xmlns:xlink="http://www.w3.org/1999/xlink" x="0px" y="0px"
	 viewBox="0 0 32 32" enable-background="new 0 0 32 32" xml:space="preserve">
<g>
	<path fill="#455B65" d="M24.389,0.417H7.611c-0.552,0-1,0.447-1,1v29.166c0,0.553,0.448,1,1,1h16.777c0.552,0,1-0.447,1-1V1.417
		C25.389,0.864,24.941,0.417,24.389,0.417z M23.389,2.417v4.137H8.611V2.417H23.389z M23.389,7.554v17.083H8.611V7.554H23.389z
		 M8.611,29.583v-3.946h14.777v3.946H8.611z"/>
	<circle fill="#455B65" cx="16" cy="27.648" r="0.951"/>
	<path fill="#455B65" d="M14.851,18.798c-0.185-0.165-0.324-0.346-0.415-0.545c-0.091-0.199-0.199-0.486-0.322-0.861
		c-0.055-0.174-0.153-0.309-0.295-0.405c-0.142-0.096-0.315-0.144-0.521-0.144c-0.256,0-0.47,0.088-0.641,0.264
		c-0.172,0.176-0.257,0.374-0.257,0.593c0,0.297,0.064,0.6,0.192,0.909c0.128,0.309,0.326,0.606,0.593,0.892
		c0.268,0.286,0.601,0.525,1.001,0.717c0.4,0.192,0.868,0.318,1.403,0.377v1.852c0,0.21,0.033,0.366,0.099,0.466
		c0.066,0.101,0.182,0.151,0.346,0.151c0.178,0,0.294-0.062,0.346-0.185c0.053-0.123,0.079-0.32,0.079-0.59v-1.708
		c0.654-0.055,1.219-0.226,1.694-0.514c0.476-0.288,0.836-0.66,1.08-1.115c0.245-0.455,0.367-0.943,0.367-1.464
		c0-0.416-0.077-0.799-0.23-1.149c-0.153-0.35-0.372-0.65-0.655-0.902c-0.265-0.242-0.566-0.428-0.902-0.556
		c-0.336-0.128-0.788-0.27-1.355-0.425v-2.853c0.576,0.188,0.94,0.567,1.091,1.139c0.133,0.485,0.423,0.727,0.871,0.727
		c0.238,0,0.44-0.083,0.607-0.25c0.167-0.167,0.25-0.365,0.25-0.593c0-0.206-0.056-0.432-0.168-0.679
		c-0.112-0.247-0.271-0.487-0.477-0.72c-0.261-0.306-0.566-0.535-0.916-0.686c-0.35-0.151-0.769-0.252-1.259-0.302V9.497
		c0-0.375-0.146-0.562-0.439-0.562c-0.288,0-0.432,0.192-0.432,0.576v0.727c-0.947,0.082-1.67,0.375-2.171,0.878
		s-0.751,1.148-0.751,1.934c0,0.604,0.128,1.097,0.384,1.482c0.256,0.384,0.59,0.68,1.001,0.888s0.924,0.397,1.536,0.566v3.189
		C15.282,19.089,15.036,18.963,14.851,18.798z M16.46,16.24c0.476,0.151,0.836,0.335,1.08,0.552
		c0.245,0.217,0.367,0.525,0.367,0.923c0,0.37-0.126,0.695-0.377,0.974c-0.252,0.279-0.608,0.464-1.07,0.556V16.24z M14.669,13.699
		c-0.201-0.185-0.302-0.458-0.302-0.82c0-0.38,0.107-0.663,0.322-0.851c0.215-0.187,0.514-0.338,0.898-0.453v2.627
		C15.177,14.052,14.87,13.884,14.669,13.699z"/>
</g>
</svg>
