<?xml version="1.0" encoding="utf-8"?>
<!-- Generator: Adobe Illustrator 19.1.0, SVG Export Plug-In . SVG Version: 6.00 Build 0)  -->
<svg version="1.1" id="Layer_1" xmlns="http://www.w3.org/2000/svg" xmlns:xlink="http://www.w3.org/1999/xlink" x="0px" y="0px"
	 viewBox="0 0 32 32" enable-background="new 0 0 32 32" xml:space="preserve">
<g>
	<path fill="#455B65" d="M6.292,9.564c0.247,0.1,0.502,0.147,0.754,0.147c0.797,0,1.555-0.477,1.872-1.259c0,0,0,0,0-0.001
		c0.208-0.512,0.188-1.06-0.009-1.534l4.166-3.142c0.148,0.119,0.309,0.225,0.493,0.3c0.247,0.1,0.503,0.147,0.755,0.147
		c0.631,0,1.228-0.308,1.61-0.82l7.122,2.993c-0.122,0.891,0.362,1.789,1.233,2.143c0.247,0.1,0.503,0.147,0.755,0.147
		c0.797,0,1.554-0.476,1.872-1.258c0,0,0-0.001,0.001-0.001c0.417-1.03-0.082-2.209-1.112-2.628
		c-0.865-0.349-1.834-0.047-2.37,0.671L16.317,2.48c0.121-0.891-0.363-1.789-1.234-2.143c-1.029-0.415-2.208,0.08-2.627,1.111
		c-0.207,0.512-0.188,1.06,0.01,1.534L8.3,6.124C8.152,6.006,7.992,5.9,7.808,5.825C6.779,5.41,5.599,5.906,5.18,6.937
		C4.763,7.966,5.262,9.145,6.292,9.564z M25.048,5.653c0.127,0,0.256,0.024,0.38,0.074c0.52,0.212,0.771,0.807,0.561,1.326
		s-0.806,0.77-1.324,0.56c-0.52-0.211-0.771-0.806-0.561-1.324C24.265,5.893,24.646,5.653,25.048,5.653z M13.383,1.824
		c0.161-0.395,0.543-0.635,0.944-0.635c0.127,0,0.256,0.024,0.38,0.074c0.52,0.211,0.771,0.806,0.562,1.324
		c-0.212,0.521-0.807,0.771-1.325,0.562C13.424,2.937,13.173,2.342,13.383,1.824z M6.106,7.313c0.161-0.396,0.543-0.636,0.945-0.636
		c0.127,0,0.256,0.024,0.38,0.074c0.52,0.212,0.771,0.806,0.561,1.324C7.78,8.596,7.186,8.846,6.668,8.637
		C6.148,8.426,5.896,7.832,6.106,7.313z"/>
	<path fill="#455B65" d="M16,9.56c-6.135,0-11.125,4.99-11.125,11.125S9.865,31.81,16,31.81s11.125-4.99,11.125-11.125
		S22.135,9.56,16,9.56z M16.5,20.478v-2.015l7.161,7.161c-0.261,0.404-0.555,0.783-0.876,1.14L16.5,20.478z M16.5,17.049V15
		l8.251,8.252c-0.15,0.511-0.347,1-0.58,1.469L16.5,17.049z M16.5,13.586v-2c0.046,0.003,0.091,0.004,0.137,0.007l8.456,8.456
		c0.015,0.211,0.032,0.422,0.032,0.637c0,0.479-0.048,0.947-0.12,1.406L16.5,13.586z M24.812,18.353l-6.48-6.48
		C21.489,12.711,23.975,15.196,24.812,18.353z M6.875,20.685c0-4.862,3.827-8.838,8.625-9.1v9.1c0,0.133,0.053,0.26,0.146,0.354
		l6.432,6.433C20.463,28.92,18.336,29.81,16,29.81C10.969,29.81,6.875,25.716,6.875,20.685z"/>
</g>
</svg>
