<?xml version="1.0" encoding="utf-8"?>
<!-- Generator: Adobe Illustrator 19.1.0, SVG Export Plug-In . SVG Version: 6.00 Build 0)  -->
<svg version="1.1" id="Layer_1" xmlns="http://www.w3.org/2000/svg" xmlns:xlink="http://www.w3.org/1999/xlink" x="0px" y="0px"
	 viewBox="0 0 32 32" enable-background="new 0 0 32 32" xml:space="preserve">
<g>
	<path fill="#455B65" d="M30.667,6.046H24.5v-2.03c0-1.103-0.897-2-2-2s-2,0.897-2,2v2.03h-9v-2.03c0-1.103-0.897-2-2-2
		s-2,0.897-2,2v2.03H1.333c-0.552,0-1,0.447-1,1v1.75v1.625v18.563c0,0.553,0.448,1,1,1h29.333c0.552,0,1-0.447,1-1V10.421V8.796
		v-1.75C31.667,6.494,31.219,6.046,30.667,6.046z M21.5,6.046v-2.03c0-0.553,0.448-1,1-1s1,0.447,1,1v2.03v2.126
		c0,0.553-0.448,1-1,1s-1-0.447-1-1V6.046z M8.5,6.046v-2.03c0-0.553,0.448-1,1-1s1,0.447,1,1v2.03v2.126c0,0.553-0.448,1-1,1
		s-1-0.447-1-1V6.046z M29.667,27.984H2.333V11.421h8.778h9.777h8.778V27.984z"/>
	<path fill="#455B65" d="M7.25,15.625c0,0.553,0.448,1,1,1h15.5c0.552,0,1-0.447,1-1s-0.448-1-1-1H8.25
		C7.698,14.625,7.25,15.072,7.25,15.625z"/>
	<path fill="#455B65" d="M23.75,18.75H8.25c-0.552,0-1,0.447-1,1s0.448,1,1,1h15.5c0.552,0,1-0.447,1-1S24.302,18.75,23.75,18.75z"
		/>
	<path fill="#455B65" d="M23.75,22.875H8.25c-0.552,0-1,0.447-1,1s0.448,1,1,1h15.5c0.552,0,1-0.447,1-1S24.302,22.875,23.75,22.875
		z"/>
</g>
</svg>
