<?xml version="1.0" encoding="utf-8"?>
<!-- Generator: Adobe Illustrator 19.1.0, SVG Export Plug-In . SVG Version: 6.00 Build 0)  -->
<svg version="1.1" id="Layer_1" xmlns="http://www.w3.org/2000/svg" xmlns:xlink="http://www.w3.org/1999/xlink" x="0px" y="0px"
	 viewBox="0 0 32 32" enable-background="new 0 0 32 32" xml:space="preserve">
<g>
	<path fill="#455B65" d="M6.694,13.19v12.283c0,1.104,0.898,2.004,2.003,2.004s2.004-0.899,2.004-2.004V13.189
		c0.93-0.64,1.543-1.71,1.543-2.922s-0.613-2.282-1.543-2.922V6.527c0-1.104-0.899-2.004-2.004-2.004S6.694,5.423,6.694,6.527v0.816
		c-0.931,0.64-1.544,1.71-1.544,2.923S5.763,12.55,6.694,13.19z M9.701,25.473c0,0.554-0.45,1.004-1.004,1.004
		c-0.553,0-1.003-0.45-1.003-1.004V13.651c0.32,0.095,0.652,0.162,1.003,0.162c0.351,0,0.683-0.067,1.004-0.162V25.473z
		 M7.694,6.527c0-0.554,0.45-1.004,1.003-1.004c0.554,0,1.004,0.45,1.004,1.004v0.355C9.381,6.787,9.048,6.72,8.697,6.72
		c-0.351,0-0.683,0.067-1.003,0.162V6.527z M8.697,7.72c1.404,0,2.547,1.143,2.547,2.547s-1.143,2.547-2.547,2.547
		S6.15,11.671,6.15,10.267S7.293,7.72,8.697,7.72z"/>
	<path fill="#455B65" d="M13.996,23.867v1.606c0,1.104,0.899,2.004,2.004,2.004s2.004-0.899,2.004-2.004v-1.606
		c0.93-0.64,1.543-1.71,1.543-2.922s-0.613-2.282-1.543-2.922V6.527c0-1.104-0.899-2.004-2.004-2.004s-2.004,0.899-2.004,2.004
		v11.495c-0.93,0.64-1.543,1.71-1.543,2.922S13.066,23.227,13.996,23.867z M17.004,25.473c0,0.554-0.45,1.004-1.004,1.004
		s-1.004-0.45-1.004-1.004v-1.144c0.32,0.095,0.653,0.162,1.004,0.162s0.683-0.067,1.004-0.162V25.473z M14.996,6.527
		c0-0.554,0.45-1.004,1.004-1.004s1.004,0.45,1.004,1.004V17.56c-0.32-0.095-0.653-0.162-1.004-0.162s-0.683,0.067-1.004,0.162
		V6.527z M16,18.397c1.404,0,2.547,1.143,2.547,2.547S17.404,23.491,16,23.491s-2.547-1.143-2.547-2.547S14.596,18.397,16,18.397z"
		/>
	<path fill="#455B65" d="M21.299,16.976v8.497c0,1.104,0.899,2.004,2.004,2.004s2.003-0.899,2.003-2.004v-8.496
		c0.931-0.64,1.544-1.71,1.544-2.923s-0.613-2.283-1.544-2.923V6.527c0-1.104-0.898-2.004-2.003-2.004s-2.004,0.899-2.004,2.004
		v4.604c-0.93,0.64-1.543,1.71-1.543,2.922S20.369,16.336,21.299,16.976z M24.306,25.473c0,0.554-0.45,1.004-1.003,1.004
		c-0.554,0-1.004-0.45-1.004-1.004v-8.034c0.32,0.095,0.653,0.162,1.004,0.162c0.351,0,0.683-0.067,1.003-0.162V25.473z
		 M22.299,6.527c0-0.554,0.45-1.004,1.004-1.004c0.553,0,1.003,0.45,1.003,1.004v4.142c-0.32-0.095-0.652-0.162-1.003-0.162
		c-0.351,0-0.683,0.067-1.004,0.162V6.527z M23.303,11.507c1.404,0,2.547,1.143,2.547,2.547s-1.143,2.547-2.547,2.547
		s-2.547-1.143-2.547-2.547S21.898,11.507,23.303,11.507z"/>
	<path fill="#455B65" d="M30.708,0.292H1.292c-0.553,0-1,0.447-1,1v29.416c0,0.553,0.447,1,1,1h29.416c0.553,0,1-0.447,1-1V1.292
		C31.708,0.739,31.261,0.292,30.708,0.292z M29.708,29.708H2.292V2.292h27.416V29.708z"/>
</g>
</svg>
