<?xml version="1.0" encoding="utf-8"?>
<!-- Generator: Adobe Illustrator 19.1.0, SVG Export Plug-In . SVG Version: 6.00 Build 0)  -->
<svg version="1.1" id="Layer_1" xmlns="http://www.w3.org/2000/svg" xmlns:xlink="http://www.w3.org/1999/xlink" x="0px" y="0px"
	 viewBox="0 0 32 32" enable-background="new 0 0 32 32" xml:space="preserve">
<g>
	<path fill="#455B65" d="M30.792,5.24H1.208c-0.552,0-1,0.448-1,1V25.76c0,0.552,0.448,1,1,1h29.583c0.552,0,1-0.448,1-1V6.24
		C31.792,5.688,31.344,5.24,30.792,5.24z M29.792,24.76H2.208V7.24h27.583V24.76z"/>
	<path fill="#455B65" d="M16,22.75c0.276,0,0.5-0.224,0.5-0.5V9.75c0-0.276-0.224-0.5-0.5-0.5s-0.5,0.224-0.5,0.5v12.5
		C15.5,22.526,15.724,22.75,16,22.75z"/>
	<path fill="#455B65" d="M24,13.875h3.625c0.276,0,0.5-0.224,0.5-0.5V9.75c0-0.276-0.224-0.5-0.5-0.5H24c-0.276,0-0.5,0.224-0.5,0.5
		v3.625C23.5,13.651,23.724,13.875,24,13.875z M24.5,10.25h2.625v2.625H24.5V10.25z"/>
	<path fill="#455B65" d="M4.094,12.156h9.5c0.276,0,0.5-0.224,0.5-0.5s-0.224-0.5-0.5-0.5h-9.5c-0.276,0-0.5,0.224-0.5,0.5
		S3.817,12.156,4.094,12.156z"/>
	<path fill="#455B65" d="M4.094,15.052h8.375c0.276,0,0.5-0.224,0.5-0.5s-0.224-0.5-0.5-0.5H4.094c-0.276,0-0.5,0.224-0.5,0.5
		S3.817,15.052,4.094,15.052z"/>
	<path fill="#455B65" d="M4.094,17.948h7.063c0.276,0,0.5-0.224,0.5-0.5s-0.224-0.5-0.5-0.5H4.094c-0.276,0-0.5,0.224-0.5,0.5
		S3.817,17.948,4.094,17.948z"/>
	<path fill="#455B65" d="M4.094,20.844h4.188c0.276,0,0.5-0.224,0.5-0.5s-0.224-0.5-0.5-0.5H4.094c-0.276,0-0.5,0.224-0.5,0.5
		S3.817,20.844,4.094,20.844z"/>
</g>
</svg>
