<?xml version="1.0" encoding="utf-8"?>
<!-- Generator: Adobe Illustrator 19.1.0, SVG Export Plug-In . SVG Version: 6.00 Build 0)  -->
<svg version="1.1" id="Layer_1" xmlns="http://www.w3.org/2000/svg" xmlns:xlink="http://www.w3.org/1999/xlink" x="0px" y="0px"
	 viewBox="0 0 32 32" enable-background="new 0 0 32 32" xml:space="preserve">
<path fill="#455B65" d="M31.342,10.286l-14.791-9.76c-0.334-0.221-0.768-0.221-1.102,0l-14.791,9.76
	c-0.28,0.185-0.449,0.499-0.449,0.834v19.52c0,0.552,0.447,1,1,1h29.582c0.553,0,1-0.448,1-1V11.12
	C31.791,10.784,31.622,10.471,31.342,10.286z M29.791,29.381l-10.1-6.665l10.1-6.665V29.381z M2.209,16.051l10.101,6.665
	L2.209,29.381V16.051z M3.633,29.64l9.585-6.325l2.231,1.472c0.167,0.11,0.359,0.166,0.551,0.166s0.384-0.055,0.551-0.166
	l2.232-1.473l9.586,6.325H3.633z M16,2.558l12.218,8.062h-3.477c-0.276,0-0.5,0.224-0.5,0.5s0.224,0.5,0.5,0.5h4.992l0.058,0.038
	v1.997L16,22.755l-13.791-9.1v-1.997L16,2.558z"/>
</svg>
