<?xml version="1.0" encoding="utf-8"?>
<!-- Generator: Adobe Illustrator 19.1.0, SVG Export Plug-In . SVG Version: 6.00 Build 0)  -->
<svg version="1.1" id="Layer_1" xmlns="http://www.w3.org/2000/svg" xmlns:xlink="http://www.w3.org/1999/xlink" x="0px" y="0px"
	 viewBox="0 0 32 32" enable-background="new 0 0 32 32" xml:space="preserve">
<g>
	<path fill="#455B65" d="M17.111,4.245c-7.299,0-14.688,2.002-14.688,5.828v4.047c0,0.173,0.032,0.338,0.061,0.503
		c-1.414,0.872-2.282,1.957-2.282,3.258v4.047c0,3.826,7.389,5.828,14.688,5.828s14.688-2.002,14.688-5.828V17.88
		c0-0.173-0.032-0.338-0.061-0.503l0,0c1.414-0.872,2.283-1.957,2.283-3.258v-4.047C31.798,6.247,24.409,4.245,17.111,4.245z
		 M4.423,13.159c0.426,0.287,0.914,0.549,1.448,0.792v1.784c-0.939-0.546-1.448-1.116-1.448-1.614V13.159z M3.45,16.39
		c2.265,2.34,7.982,3.558,13.661,3.558c3.75,0,7.516-0.532,10.299-1.565c-0.893,1.502-5.572,3.326-12.52,3.326
		c-7.745,0-12.688-2.268-12.688-3.828C2.202,17.42,2.643,16.898,3.45,16.39z M6.871,16.23v-1.871
		c0.347,0.127,0.708,0.247,1.083,0.359v1.93C7.561,16.514,7.203,16.374,6.871,16.23z M8.954,16.953v-1.966
		c0.512,0.127,1.037,0.243,1.583,0.344v2C9.975,17.217,9.447,17.09,8.954,16.953z M11.538,17.513v-2.018
		c0.679,0.102,1.375,0.182,2.083,0.245v2.039C12.889,17.71,12.194,17.621,11.538,17.513z M17.111,17.051c0.276,0,0.5-0.224,0.5-0.5
		v-0.659c0.701-0.009,1.401-0.033,2.094-0.078v1.284c0,0.276,0.224,0.5,0.5,0.5s0.5-0.224,0.5-0.5v-1.366
		c0.716-0.066,1.419-0.151,2.104-0.257v2.016c-1.661,0.281-3.569,0.456-5.698,0.456c-0.868,0-1.695-0.032-2.49-0.085V15.82
		c0.659,0.042,1.324,0.064,1.99,0.073v0.659C16.611,16.828,16.834,17.051,17.111,17.051z M23.808,17.304v-1.996
		c0.539-0.102,1.057-0.22,1.563-0.348v1.966C24.887,17.063,24.362,17.189,23.808,17.304z M26.371,16.614v-1.93
		c0.345-0.105,0.679-0.215,1-0.333v1.87C27.061,16.356,26.734,16.488,26.371,16.614z M3.65,23.542
		c-0.939-0.546-1.448-1.116-1.448-1.614v-0.961c0.426,0.287,0.914,0.549,1.448,0.792V23.542z M5.733,24.456
		c-0.394-0.134-0.751-0.274-1.083-0.418v-1.871c0.347,0.127,0.708,0.247,1.083,0.359V24.456z M8.317,25.139
		c-0.563-0.114-1.091-0.241-1.583-0.378v-1.966c0.512,0.127,1.037,0.243,1.583,0.344V25.139z M11.4,25.588
		c-0.731-0.07-1.427-0.159-2.083-0.267v-2.018c0.679,0.102,1.375,0.182,2.083,0.245V25.588z M20.587,25.299
		c-1.661,0.281-3.569,0.456-5.698,0.456c-0.868,0-1.695-0.032-2.49-0.085v-2.043c0.659,0.042,1.324,0.064,1.99,0.073v0.659
		c0,0.276,0.224,0.5,0.5,0.5s0.5-0.224,0.5-0.5V23.7c0.701-0.009,1.401-0.033,2.094-0.078v1.284c0,0.276,0.224,0.5,0.5,0.5
		s0.5-0.224,0.5-0.5V23.54c0.716-0.066,1.419-0.151,2.104-0.257V25.299z M23.15,24.733c-0.484,0.137-1.009,0.263-1.563,0.379v-1.996
		c0.539-0.102,1.057-0.22,1.563-0.348V24.733z M25.15,24.028c-0.309,0.135-0.636,0.268-1,0.393v-1.93
		c0.345-0.105,0.679-0.215,1-0.333V24.028z M27.577,21.927c0,0.495-0.501,1.061-1.427,1.603v-1.783
		c0.525-0.24,1.007-0.499,1.427-0.782V21.927z M29.798,14.12c0,0.495-0.501,1.061-1.427,1.603V13.94
		c0.525-0.24,1.007-0.499,1.427-0.782V14.12z M17.111,13.901c-7.745,0-12.688-2.268-12.688-3.828s4.942-3.828,12.688-3.828
		s12.688,2.268,12.688,3.828S24.856,13.901,17.111,13.901z"/>
</g>
</svg>
