<?xml version="1.0" encoding="utf-8"?>
<!-- Generator: Adobe Illustrator 19.1.0, SVG Export Plug-In . SVG Version: 6.00 Build 0)  -->
<svg version="1.1" id="Layer_1" xmlns="http://www.w3.org/2000/svg" xmlns:xlink="http://www.w3.org/1999/xlink" x="0px" y="0px"
	 viewBox="0 0 32 32" enable-background="new 0 0 32 32" xml:space="preserve">
<g>
	<path fill="#455B65" d="M5.325,0.741c-0.357-0.619-1.375-0.619-1.732,0L0.135,6.73c-0.087,0.152-0.134,0.324-0.134,0.5v19.595
		v3.934c0,0.552,0.448,1,1,1h6.916c0.552,0,1-0.448,1-1v-3.934V7.23c0-0.176-0.046-0.348-0.134-0.5L5.325,0.741z M3.352,5.159h2.214
		l1.289,2.233l-1.248,0.92L4.2,7.111C4.178,7.092,4.151,7.083,4.126,7.069c-0.023-0.014-0.044-0.031-0.07-0.041
		C4.008,7.01,3.959,7.002,3.91,6.999C3.898,6.998,3.888,6.992,3.875,6.992c-0.001,0-0.003,0.001-0.004,0.001
		c-0.064,0-0.127,0.013-0.187,0.038C3.665,7.038,3.65,7.053,3.632,7.064C3.599,7.083,3.564,7.099,3.535,7.126L2.649,7.951
		L2.035,7.44L3.352,5.159z M2.348,9.001c0.193,0.16,0.476,0.153,0.661-0.019l0.367-0.342v17.185H2.001V8.713L2.348,9.001z
		 M4.375,8.576l0.884,0.755c0.093,0.08,0.209,0.12,0.325,0.12c0.104,0,0.208-0.032,0.297-0.098l1.036-0.764v17.236H4.375V8.576z
		 M4.989,4.159H3.929l0.53-0.917L4.989,4.159z M6.917,29.759H2.001v-1.934h4.916V29.759z"/>
	<path fill="#455B65" d="M19.948,0.241h-7.896c-0.552,0-1,0.448-1,1v29.518c0,0.552,0.448,1,1,1h7.896c0.552,0,1-0.448,1-1V1.241
		C20.948,0.689,20.5,0.241,19.948,0.241z M18.948,29.759h-5.896v-2.17H16c0.276,0,0.5-0.224,0.5-0.5s-0.224-0.5-0.5-0.5h-2.948
		v-2.692h1.271c0.276,0,0.5-0.224,0.5-0.5s-0.224-0.5-0.5-0.5h-1.271v-2.692H16c0.276,0,0.5-0.224,0.5-0.5s-0.224-0.5-0.5-0.5
		h-2.948v-2.692h1.271c0.276,0,0.5-0.224,0.5-0.5s-0.224-0.5-0.5-0.5h-1.271v-2.693H16c0.276,0,0.5-0.224,0.5-0.5
		s-0.224-0.5-0.5-0.5h-2.948V9.126h1.271c0.276,0,0.5-0.224,0.5-0.5s-0.224-0.5-0.5-0.5h-1.271V5.434H16c0.276,0,0.5-0.224,0.5-0.5
		s-0.224-0.5-0.5-0.5h-2.948V2.241h5.896V29.759z"/>
	<path fill="#455B65" d="M31.499,19.341v-3.292c0-0.276-0.224-0.5-0.5-0.5h-6.916c-0.276,0-0.5,0.224-0.5,0.5v3.292
		c-0.293,0.174-0.5,0.481-0.5,0.847v10.571c0,0.552,0.448,1,1,1h6.916c0.552,0,1-0.448,1-1V20.188
		C31.999,19.821,31.792,19.515,31.499,19.341z M30.499,16.548v2.639h-5.916v-2.639H30.499z M29.999,29.759h-4.916v-8.571h4.916
		V29.759z"/>
	<path fill="#455B65" d="M28.489,29.031c0.276,0,0.5-0.224,0.5-0.5v-6.115c0-0.276-0.224-0.5-0.5-0.5s-0.5,0.224-0.5,0.5v6.115
		C27.989,28.807,28.212,29.031,28.489,29.031z"/>
	<path fill="#455B65" d="M26.594,29.031c0.276,0,0.5-0.224,0.5-0.5v-4.188c0-0.276-0.224-0.5-0.5-0.5s-0.5,0.224-0.5,0.5v4.188
		C26.094,28.807,26.317,29.031,26.594,29.031z"/>
</g>
</svg>
