<?xml version="1.0" encoding="utf-8"?>
<!-- Generator: Adobe Illustrator 19.1.0, SVG Export Plug-In . SVG Version: 6.00 Build 0)  -->
<svg version="1.1" id="Layer_1" xmlns="http://www.w3.org/2000/svg" xmlns:xlink="http://www.w3.org/1999/xlink" x="0px" y="0px"
	 viewBox="0 0 32 32" enable-background="new 0 0 32 32" xml:space="preserve">
<g>
	<path fill="#455B65" d="M31.241,0.759c-0.269-0.27-0.668-0.361-1.026-0.241l-29.068,9.8c-0.001,0-0.001,0-0.002,0.001
		c-0.001,0-0.002,0-0.002,0c-0.236,0.081-0.423,0.241-0.54,0.441c-0.025,0.043-0.047,0.088-0.065,0.135
		c-0.083,0.208-0.097,0.443-0.024,0.672c0,0,0,0,0,0C0.517,11.579,0.52,11.59,0.523,11.6c0,0,0,0.001,0,0.002
		c0.063,0.175,0.17,0.323,0.305,0.435l10.307,8.829l0.209,0.244v5.314c0,0.215,0.138,0.406,0.341,0.474
		c0.053,0.018,0.106,0.026,0.159,0.026c0.153,0,0.303-0.071,0.398-0.198l1.834-2.426l5.887,6.873
		c0.113,0.137,0.265,0.246,0.444,0.308c0.001,0,0.001,0,0.001,0h0.001c0,0,0,0,0.001,0c0,0,0,0,0.001,0
		c0.002,0,0.005,0.001,0.008,0.002c0.001,0.001,0.003,0.001,0.003,0.001l0.001,0c0.104,0.034,0.208,0.05,0.311,0.05
		c0.124,0,0.245-0.023,0.357-0.067c0.056-0.021,0.108-0.046,0.158-0.077c0.193-0.117,0.35-0.299,0.43-0.529c0,0,0-0.001,0-0.001
		v-0.001c0.002-0.001,0.001-0.001,0.001-0.002c0-0.002,0.001-0.002,0.001-0.003l9.801-29.068c0.036-0.104,0.053-0.212,0.053-0.32
		C31.534,1.204,31.432,0.949,31.241,0.759z M3.453,11.651l24.422-8.233L12.172,19.121L3.453,11.651z M12.344,24.932v-2.656
		l1.067,1.245L12.344,24.932z M20.348,28.547l-7.468-8.72L28.583,4.124L20.348,28.547z"/>
</g>
</svg>
