<?xml version="1.0" encoding="utf-8"?>
<!-- Generator: Adobe Illustrator 19.1.0, SVG Export Plug-In . SVG Version: 6.00 Build 0)  -->
<svg version="1.1" id="Layer_1" xmlns="http://www.w3.org/2000/svg" xmlns:xlink="http://www.w3.org/1999/xlink" x="0px" y="0px"
	 viewBox="0 0 32 32" enable-background="new 0 0 32 32" xml:space="preserve">
<path fill="#455B65" d="M30.338,26.044c-0.552,0-1,0.447-1,1v0.603h-2.03V12.21c0-0.553-0.448-1-1-1h-3.958c-0.552,0-1,0.447-1,1
	v15.437h-1.546V6.232c0-0.553-0.448-1-1-1h-3.958c-0.552,0-1,0.447-1,1v21.414h-1.546v-9.46c0-0.553-0.448-1-1-1H7.34
	c-0.552,0-1,0.447-1,1v9.46H4.442V2.75h0.603c0.552,0,1-0.447,1-1s-0.448-1-1-1H1.838c-0.552,0-1,0.447-1,1s0.448,1,1,1h0.604v2.982
	h-1.28c-0.276,0-0.5,0.224-0.5,0.5s0.224,0.5,0.5,0.5h1.28v4.978h-1.28c-0.276,0-0.5,0.224-0.5,0.5s0.224,0.5,0.5,0.5h1.28v4.977
	h-1.28c-0.276,0-0.5,0.224-0.5,0.5s0.224,0.5,0.5,0.5h1.28v4.978h-1.28c-0.276,0-0.5,0.224-0.5,0.5s0.224,0.5,0.5,0.5h1.28v3.982
	c0,0.553,0.448,1,1,1H7.34h3.958h3.546h3.958h3.546h3.958h3.03v0.604c0,0.553,0.448,1,1,1s1-0.447,1-1v-3.206
	C31.338,26.491,30.89,26.044,30.338,26.044z M8.34,27.646v-8.46h1.958v8.46H8.34z M15.844,27.646V7.232h1.958v20.414H15.844z
	 M23.349,27.646V13.21h1.958v14.437H23.349z"/>
</svg>
