<?xml version="1.0" encoding="utf-8"?>
<!-- Generator: Adobe Illustrator 19.1.0, SVG Export Plug-In . SVG Version: 6.00 Build 0)  -->
<svg version="1.1" id="Layer_1" xmlns="http://www.w3.org/2000/svg" xmlns:xlink="http://www.w3.org/1999/xlink" x="0px" y="0px"
	 viewBox="0 0 32 32" enable-background="new 0 0 32 32" xml:space="preserve">
<g>
	<path fill="#455B65" d="M24.389,0.417H7.611c-0.553,0-1,0.447-1,1v29.166c0,0.553,0.447,1,1,1h16.777c0.553,0,1-0.447,1-1V1.417
		C25.389,0.864,24.941,0.417,24.389,0.417z M23.389,2.417v4.137H8.611V2.417H23.389z M23.389,7.554v17.083H8.611V7.554H23.389z
		 M8.611,29.583v-3.946h14.777v3.946H8.611z"/>
	<path fill="#455B65" d="M11.792,18.515c0.098,0.098,0.226,0.146,0.354,0.146s0.256-0.049,0.354-0.146l4.323-4.322
		c0.195-0.195,0.195-0.512,0-0.707s-0.512-0.195-0.707,0l-4.323,4.322C11.597,18.003,11.597,18.319,11.792,18.515z"/>
	<path fill="#455B65" d="M18.906,15.286c0.128,0,0.256-0.049,0.354-0.146l0.948-0.947c0.195-0.195,0.195-0.512,0-0.707
		s-0.512-0.195-0.707,0l-0.948,0.947c-0.195,0.195-0.195,0.512,0,0.707C18.65,15.237,18.778,15.286,18.906,15.286z"/>
	<path fill="#455B65" d="M15.178,18.515c0.098,0.098,0.226,0.146,0.354,0.146s0.256-0.049,0.354-0.146l2.162-2.161
		c0.195-0.195,0.195-0.512,0-0.707s-0.512-0.195-0.707,0l-2.162,2.161C14.982,18.003,14.982,18.319,15.178,18.515z"/>
	<circle fill="#455B65" cx="16" cy="27.648" r="0.951"/>
</g>
</svg>
