<?xml version="1.0" encoding="utf-8"?>
<!-- Generator: Adobe Illustrator 19.1.0, SVG Export Plug-In . SVG Version: 6.00 Build 0)  -->
<svg version="1.1" id="Layer_1" xmlns="http://www.w3.org/2000/svg" xmlns:xlink="http://www.w3.org/1999/xlink" x="0px" y="0px"
	 viewBox="0 0 32 32" enable-background="new 0 0 32 32" xml:space="preserve">
<path fill="#455B65" d="M28.593,3.771c-1.881,0-3.411,1.53-3.411,3.411c0,0.71,0.219,1.369,0.591,1.916l-4.425,5.515
	c-0.39-0.155-0.812-0.247-1.257-0.247c-1.111,0-2.09,0.542-2.713,1.367l-2.14-0.774c0.003-0.055,0.017-0.108,0.017-0.164
	c0-1.881-1.53-3.411-3.411-3.411s-3.411,1.53-3.411,3.411c0,0.681,0.205,1.312,0.55,1.845l-4.243,5.04
	c-0.41-0.175-0.861-0.273-1.334-0.273c-1.881,0-3.411,1.53-3.411,3.411s1.53,3.411,3.411,3.411s3.411-1.53,3.411-3.411
	c0-0.681-0.205-1.312-0.55-1.845l4.243-5.04c0.41,0.175,0.861,0.273,1.335,0.273c1.111,0,2.09-0.542,2.713-1.367l2.14,0.774
	c-0.003,0.055-0.017,0.108-0.017,0.164c0,1.881,1.53,3.411,3.411,3.411s3.411-1.53,3.411-3.411c0-0.71-0.219-1.369-0.591-1.915
	l4.425-5.515c0.39,0.156,0.812,0.247,1.257,0.247c1.881,0,3.411-1.53,3.411-3.411S30.474,3.771,28.593,3.771z M3.407,26.229
	c-0.778,0-1.411-0.633-1.411-1.411s0.633-1.411,1.411-1.411s1.411,0.633,1.411,1.411S4.185,26.229,3.407,26.229z M11.845,16.206
	c-0.778,0-1.411-0.633-1.411-1.411c0-0.778,0.633-1.411,1.411-1.411c0.778,0,1.411,0.633,1.411,1.411
	C13.255,15.573,12.623,16.206,11.845,16.206z M20.092,19.188c-0.778,0-1.411-0.633-1.411-1.411c0-0.778,0.633-1.411,1.411-1.411
	c0.778,0,1.411,0.633,1.411,1.411C21.503,18.555,20.87,19.188,20.092,19.188z M28.593,8.593c-0.778,0-1.411-0.633-1.411-1.411
	c0-0.778,0.633-1.411,1.411-1.411s1.411,0.633,1.411,1.411C30.004,7.96,29.371,8.593,28.593,8.593z"/>
</svg>
