<?xml version="1.0" encoding="utf-8"?>
<!-- Generator: Adobe Illustrator 19.1.0, SVG Export Plug-In . SVG Version: 6.00 Build 0)  -->
<svg version="1.1" id="Layer_1" xmlns="http://www.w3.org/2000/svg" xmlns:xlink="http://www.w3.org/1999/xlink" x="0px" y="0px"
	 viewBox="0 0 32 32" enable-background="new 0 0 32 32" xml:space="preserve">
<g>
	<g>
		<g>
			<path fill="#455B65" d="M29.374,7.017c-0.39-0.147-0.831-0.033-1.105,0.282l-3.211,3.707V7.953c0-0.553-0.448-1-1-1H2.975
				c-0.552,0-1,0.447-1,1v16.094c0,0.553,0.448,1,1,1h21.083c0.552,0,1-0.447,1-1v-3.053l3.211,3.707
				c0.194,0.224,0.471,0.346,0.756,0.346c0.117,0,0.235-0.021,0.349-0.063c0.392-0.146,0.651-0.519,0.651-0.937V7.953
				C30.025,7.535,29.766,7.162,29.374,7.017z M23.058,11.877v1.812v4.622v2.107v2.629H3.975V8.953h19.083V11.877z M28.025,21.364
				l-2.447-2.825l-0.018-0.021l-0.745-0.86c-0.001-0.001-0.002-0.002-0.003-0.003l-0.752-0.868v-1.578l0.741-0.852
				c0.005-0.005,0.011-0.008,0.015-0.013l3.21-3.708V21.364z"/>
		</g>
	</g>
	<g>
		<path fill="#455B65" d="M8.063,21.864H5.5c-0.276,0-0.5-0.224-0.5-0.5v-3.125c0-0.276,0.224-0.5,0.5-0.5s0.5,0.224,0.5,0.5v2.625
			h2.063c0.276,0,0.5,0.224,0.5,0.5S8.339,21.864,8.063,21.864z"/>
	</g>
</g>
</svg>
