<?xml version="1.0" encoding="utf-8"?>
<!-- Generator: Adobe Illustrator 19.1.0, SVG Export Plug-In . SVG Version: 6.00 Build 0)  -->
<svg version="1.1" id="Layer_1" xmlns="http://www.w3.org/2000/svg" xmlns:xlink="http://www.w3.org/1999/xlink" x="0px" y="0px"
	 viewBox="0 0 32 32" enable-background="new 0 0 32 32" xml:space="preserve">
<g>
	<path fill="#455B65" d="M30.896,4.891H3.223c-0.553,0-1,0.448-1,1v7.26c0,0.552,0.447,1,1,1s1-0.448,1-1v-6.26h25.673v16.26H14.104
		c-0.553,0-1,0.448-1,1s0.447,1,1,1h16.792c0.553,0,1-0.448,1-1V5.891C31.896,5.339,31.448,4.891,30.896,4.891z"/>
	<path fill="#455B65" d="M1.104,23.317c-0.553,0-1,0.448-1,1s0.447,1,1,1c0.437,0,0.792,0.355,0.792,0.792c0,0.552,0.447,1,1,1
		s1-0.448,1-1C3.896,24.57,2.644,23.317,1.104,23.317z"/>
	<path fill="#455B65" d="M1.104,19.275c-0.553,0-1,0.448-1,1s0.447,1,1,1c2.665,0,4.834,2.168,4.834,4.833c0,0.552,0.447,1,1,1
		s1-0.448,1-1C7.938,22.341,4.873,19.275,1.104,19.275z"/>
	<path fill="#455B65" d="M1.104,15.192c-0.553,0-1,0.448-1,1s0.447,1,1,1c4.917,0,8.917,4,8.917,8.917c0,0.552,0.447,1,1,1
		s1-0.448,1-1C12.021,20.089,7.124,15.192,1.104,15.192z"/>
	<path fill="#455B65" d="M6.438,12.503V8.737h3c0.276,0,0.5-0.224,0.5-0.5s-0.224-0.5-0.5-0.5h-3.5c-0.276,0-0.5,0.224-0.5,0.5
		v4.267c0,0.276,0.224,0.5,0.5,0.5S6.438,12.78,6.438,12.503z"/>
	<path fill="#455B65" d="M28.396,22.068c0.276,0,0.5-0.224,0.5-0.5v-4.267c0-0.276-0.224-0.5-0.5-0.5s-0.5,0.224-0.5,0.5v3.767h-3
		c-0.276,0-0.5,0.224-0.5,0.5s0.224,0.5,0.5,0.5H28.396z"/>
</g>
</svg>
