<?xml version="1.0" encoding="utf-8"?>
<!-- Generator: Adobe Illustrator 19.1.0, SVG Export Plug-In . SVG Version: 6.00 Build 0)  -->
<svg version="1.1" id="Layer_1" xmlns="http://www.w3.org/2000/svg" xmlns:xlink="http://www.w3.org/1999/xlink" x="0px" y="0px"
	 viewBox="0 0 32 32" enable-background="new 0 0 32 32" xml:space="preserve">
<g>
	<path fill="#455B65" d="M30.937,19.563H30V4.938c0-0.366-0.206-0.673-0.5-0.847V0.75c0-0.276-0.224-0.5-0.5-0.5H3
		c-0.276,0-0.5,0.224-0.5,0.5v3.341C2.206,4.265,2,4.572,2,4.938v14.625H1.062c-0.553,0-1,0.448-1,1V30.75c0,0.552,0.447,1,1,1
		h29.875c0.553,0,1-0.448,1-1V20.563C31.937,20.011,31.49,19.563,30.937,19.563z M4.666,1.25v1.406c0,0.276,0.224,0.5,0.5,0.5
		s0.5-0.224,0.5-0.5V1.25h1.167v1.406c0,0.276,0.224,0.5,0.5,0.5s0.5-0.224,0.5-0.5V1.25h1.166v1.406c0,0.276,0.224,0.5,0.5,0.5
		s0.5-0.224,0.5-0.5V1.25h1.167v1.406c0,0.276,0.224,0.5,0.5,0.5s0.5-0.224,0.5-0.5V1.25h1.166v1.406c0,0.276,0.224,0.5,0.5,0.5
		s0.5-0.224,0.5-0.5V1.25h1.166v1.406c0,0.276,0.224,0.5,0.5,0.5s0.5-0.224,0.5-0.5V1.25h1.167v1.406c0,0.276,0.224,0.5,0.5,0.5
		s0.5-0.224,0.5-0.5V1.25h1.166v1.406c0,0.276,0.224,0.5,0.5,0.5s0.5-0.224,0.5-0.5V1.25h1.166v1.406c0,0.276,0.224,0.5,0.5,0.5
		s0.5-0.224,0.5-0.5V1.25h1.167v1.406c0,0.276,0.224,0.5,0.5,0.5s0.5-0.224,0.5-0.5V1.25h1.166v1.406c0,0.276,0.224,0.5,0.5,0.5
		s0.5-0.224,0.5-0.5V1.25h1.17v2.688h-25V1.25H4.666z M4,5.938h24v13.625H4V5.938z M18.25,29.75h-4.5v-5.625h4.5V29.75z
		 M29.937,29.75H19.25v-6.125c0-0.276-0.224-0.5-0.5-0.5h-5.5c-0.276,0-0.5,0.224-0.5,0.5v6.125H2.062v-8.187H3h26h0.937V29.75z"/>
	<path fill="#455B65" d="M17.01,27.42c0.13,0,0.26-0.05,0.36-0.15c0.09-0.09,0.14-0.22,0.14-0.35s-0.05-0.26-0.15-0.36
		c-0.189-0.18-0.52-0.18-0.71,0.01c-0.09,0.09-0.14,0.22-0.14,0.35s0.05,0.25,0.14,0.35C16.75,27.37,16.88,27.42,17.01,27.42z"/>
	<path fill="#455B65" d="M27.803,23.163c-0.061-0.025-0.126-0.038-0.191-0.038h-5.5c-0.276,0-0.5,0.224-0.5,0.5v4.542
		c0,0.276,0.224,0.5,0.5,0.5h5.5c0.276,0,0.5-0.224,0.5-0.5v-4.542c0-0.065-0.013-0.13-0.038-0.191
		C28.023,23.312,27.926,23.214,27.803,23.163z M24.932,27.667l0.01-0.01c0.195-0.195,0.195-0.512,0-0.707s-0.512-0.195-0.707,0
		l-0.718,0.717h-0.905v-3.542h3.793l-0.433,0.433c-0.195,0.195-0.195,0.512,0,0.707c0.098,0.098,0.226,0.146,0.354,0.146
		s0.256-0.049,0.354-0.146l0.433-0.433v2.835H24.932z"/>
	<path fill="#455B65" d="M9.888,23.109h-5.5c-0.276,0-0.5,0.224-0.5,0.5v4.542c0,0.276,0.224,0.5,0.5,0.5h1.533
		c0.027,0.004,0.053,0.016,0.08,0.016s0.053-0.011,0.08-0.016h3.806c0.276,0,0.5-0.224,0.5-0.5v-4.542
		C10.388,23.333,10.164,23.109,9.888,23.109z M7.222,27.651c0.191-0.195,0.19-0.508-0.004-0.702c-0.195-0.195-0.512-0.195-0.707,0
		L5.81,27.651H4.888v-3.542h3.809l-0.448,0.448c-0.195,0.195-0.195,0.512,0,0.707c0.098,0.098,0.226,0.146,0.354,0.146
		s0.256-0.049,0.354-0.146l0.433-0.433v2.819H7.222z"/>
	<path fill="#455B65" d="M26.794,13.362c-0.061-0.025-0.126-0.038-0.191-0.038h-5.025c-0.276,0-0.5,0.224-0.5,0.5v4.15
		c0,0.276,0.224,0.5,0.5,0.5h5.025c0.276,0,0.5-0.224,0.5-0.5v-4.15c0-0.065-0.013-0.13-0.038-0.191
		C27.014,13.51,26.917,13.413,26.794,13.362z M24.237,17.474c0.142-0.196,0.134-0.467-0.042-0.643c-0.195-0.195-0.512-0.195-0.707,0
		l-0.643,0.643h-0.767v-3.15h3.318l-0.322,0.322c-0.195,0.195-0.195,0.512,0,0.707c0.098,0.098,0.226,0.146,0.354,0.146
		s0.256-0.049,0.354-0.146l0.322-0.322v2.444H24.237z"/>
	<path fill="#455B65" d="M18.513,13.324h-5.025c-0.276,0-0.5,0.224-0.5,0.5v4.15c0,0.276,0.224,0.5,0.5,0.5h5.025
		c0.276,0,0.5-0.224,0.5-0.5v-4.15C19.013,13.547,18.789,13.324,18.513,13.324z M16.109,17.474c0.142-0.196,0.134-0.467-0.042-0.643
		c-0.195-0.195-0.512-0.195-0.707,0l-0.643,0.643h-0.729v-3.15h3.282l-0.322,0.322c-0.195,0.195-0.195,0.512,0,0.707
		c0.098,0.098,0.226,0.146,0.354,0.146s0.256-0.049,0.354-0.146l0.358-0.359v2.48H16.109z"/>
	<path fill="#455B65" d="M10.613,13.362c-0.061-0.025-0.126-0.038-0.191-0.038H5.396c-0.276,0-0.5,0.224-0.5,0.5v4.15
		c0,0.276,0.224,0.5,0.5,0.5h5.025c0.276,0,0.5-0.224,0.5-0.5v-4.15c0-0.065-0.013-0.13-0.038-0.191
		C10.833,13.51,10.735,13.413,10.613,13.362z M8.056,17.474c0.142-0.195,0.134-0.467-0.043-0.643c-0.195-0.195-0.512-0.195-0.707,0
		l-0.643,0.643H5.896v-3.15h3.319l-0.322,0.322c-0.195,0.195-0.195,0.512,0,0.707c0.098,0.098,0.226,0.146,0.354,0.146
		s0.256-0.049,0.354-0.146l0.321-0.321v2.443H8.056z"/>
	<path fill="#455B65" d="M26.794,7.065c-0.061-0.025-0.126-0.038-0.191-0.038h-5.025c-0.276,0-0.5,0.224-0.5,0.5v4.15
		c0,0.276,0.224,0.5,0.5,0.5h5.025c0.276,0,0.5-0.224,0.5-0.5v-4.15c0-0.065-0.013-0.13-0.038-0.191
		C27.014,7.214,26.917,7.116,26.794,7.065z M24.237,11.177c0.142-0.196,0.134-0.467-0.042-0.643c-0.195-0.195-0.512-0.195-0.707,0
		l-0.643,0.643h-0.767v-3.15h3.318l-0.322,0.322c-0.195,0.195-0.195,0.512,0,0.707c0.098,0.098,0.226,0.146,0.354,0.146
		s0.256-0.049,0.354-0.146l0.322-0.322v2.444H24.237z"/>
	<path fill="#455B65" d="M18.513,7.027h-5.025c-0.276,0-0.5,0.224-0.5,0.5v4.15c0,0.276,0.224,0.5,0.5,0.5h5.025
		c0.276,0,0.5-0.224,0.5-0.5v-4.15C19.013,7.25,18.789,7.027,18.513,7.027z M16.109,11.177c0.142-0.196,0.134-0.467-0.042-0.643
		c-0.195-0.195-0.512-0.195-0.707,0l-0.643,0.643h-0.729v-3.15h3.282l-0.322,0.322c-0.195,0.195-0.195,0.512,0,0.707
		c0.098,0.098,0.226,0.146,0.354,0.146s0.256-0.049,0.354-0.146l0.358-0.359v2.48H16.109z"/>
	<path fill="#455B65" d="M10.613,7.065c-0.061-0.025-0.126-0.038-0.191-0.038H5.396c-0.276,0-0.5,0.224-0.5,0.5v4.15
		c0,0.276,0.224,0.5,0.5,0.5h5.025c0.276,0,0.5-0.224,0.5-0.5v-4.15c0-0.065-0.013-0.13-0.038-0.191
		C10.833,7.214,10.735,7.116,10.613,7.065z M8.056,11.177c0.142-0.195,0.134-0.467-0.043-0.643c-0.195-0.195-0.512-0.195-0.707,0
		l-0.643,0.643H5.896v-3.15h3.319L8.894,8.349c-0.195,0.195-0.195,0.512,0,0.707c0.098,0.098,0.226,0.146,0.354,0.146
		s0.256-0.049,0.354-0.146l0.321-0.321v2.443H8.056z"/>
</g>
</svg>
