<?xml version="1.0" encoding="utf-8"?>
<!-- Generator: Adobe Illustrator 19.1.0, SVG Export Plug-In . SVG Version: 6.00 Build 0)  -->
<svg version="1.1" id="Layer_1" xmlns="http://www.w3.org/2000/svg" xmlns:xlink="http://www.w3.org/1999/xlink" x="0px" y="0px"
	 viewBox="0 0 32 32" enable-background="new 0 0 32 32" xml:space="preserve">
<g>
	<path fill="#455B65" d="M19.401,4.431h1.724c0.258,0,0.467-0.209,0.467-0.467s-0.209-0.467-0.467-0.467h-1.724
		c-0.258,0-0.467,0.209-0.467,0.467S19.143,4.431,19.401,4.431z"/>
	<path fill="#455B65" d="M19.401,6.374h6.398c0.258,0,0.467-0.209,0.467-0.467c0-0.258-0.209-0.467-0.467-0.467h-6.398
		c-0.258,0-0.467,0.209-0.467,0.467C18.934,6.164,19.143,6.374,19.401,6.374z"/>
	<path fill="#455B65" d="M28.691,7.382h-9.29c-0.258,0-0.467,0.209-0.467,0.467s0.209,0.467,0.467,0.467h9.29
		c0.258,0,0.467-0.209,0.467-0.467S28.949,7.382,28.691,7.382z"/>
	<path fill="#455B65" d="M3.948,27.625h2.688c0.276,0,0.5-0.224,0.5-0.5s-0.224-0.5-0.5-0.5H3.948c-0.276,0-0.5,0.224-0.5,0.5
		S3.671,27.625,3.948,27.625z"/>
	<path fill="#455B65" d="M9.135,27.625h13.813c0.276,0,0.5-0.224,0.5-0.5s-0.224-0.5-0.5-0.5H9.135c-0.276,0-0.5,0.224-0.5,0.5
		S8.859,27.625,9.135,27.625z"/>
	<path fill="#455B65" d="M15.372,14.895l-3.412-1.662c-0.155-0.075-0.338-0.065-0.484,0.026c-0.146,0.091-0.235,0.251-0.235,0.424
		v3.323c0,0.172,0.089,0.333,0.235,0.424c0.081,0.051,0.173,0.076,0.265,0.076c0.075,0,0.149-0.017,0.219-0.05l3.412-1.662
		c0.172-0.084,0.281-0.258,0.281-0.45S15.544,14.979,15.372,14.895z M12.242,16.206v-1.724l1.77,0.862L12.242,16.206z"/>
	<path fill="#455B65" d="M30.263,1.042H18.819c-0.787,0-1.428,0.64-1.428,1.428v2.928H1.309c-0.552,0-1,0.448-1,1v17.895v5.667
		c0,0.552,0.448,1,1,1h24.276c0.552,0,1-0.448,1-1v-5.667V12.669l1.79-2.045h1.888c0.787,0,1.428-0.64,1.428-1.428V2.469
		C31.691,1.682,31.05,1.042,30.263,1.042z M24.585,28.958H2.309v-3.667h22.276V28.958z M24.585,23.292H2.309V7.397h15.082v1.799
		c0,0.787,0.64,1.428,1.428,1.428h5.766V23.292z M30.756,9.196c0,0.272-0.221,0.493-0.493,0.493h-2.1
		c-0.135,0-0.263,0.058-0.352,0.16l-1.226,1.401v-1.093c0-0.258-0.209-0.467-0.467-0.467h-1.533h-5.766
		c-0.272,0-0.493-0.221-0.493-0.493V7.397v-2V2.469c0-0.272,0.221-0.493,0.493-0.493h11.444c0.272,0,0.493,0.221,0.493,0.493V9.196z
		"/>
</g>
</svg>
