<?xml version="1.0" encoding="utf-8"?>
<!-- Generator: Adobe Illustrator 19.1.0, SVG Export Plug-In . SVG Version: 6.00 Build 0)  -->
<svg version="1.1" id="Layer_1" xmlns="http://www.w3.org/2000/svg" xmlns:xlink="http://www.w3.org/1999/xlink" x="0px" y="0px"
	 viewBox="0 0 32 32" enable-background="new 0 0 32 32" xml:space="preserve">
<g>
	<path fill="#455B65" d="M29.351,8.142l-8.093-7.597c-0.186-0.174-0.431-0.271-0.685-0.271H3.334c-0.553,0-1,0.448-1,1v29.452
		c0,0.552,0.447,1,1,1h25.332c0.553,0,1-0.448,1-1V8.871C29.666,8.594,29.552,8.331,29.351,8.142z M21.073,3.115l5.599,5.256h-5.599
		V3.115z M4.334,29.726V2.274h15.739v6.597c0,0.276,0.224,0.5,0.5,0.5h7.093v20.355H4.334z"/>
	<path fill="#455B65" d="M11.594,9.059h5.739c0.276,0,0.5-0.224,0.5-0.5s-0.224-0.5-0.5-0.5h-5.739c-0.276,0-0.5,0.224-0.5,0.5
		S11.317,9.059,11.594,9.059z"/>
	<path fill="#455B65" d="M8.109,7.059c-0.827,0-1.5,0.673-1.5,1.5s0.673,1.5,1.5,1.5s1.5-0.673,1.5-1.5S8.937,7.059,8.109,7.059z
		 M8.109,9.059c-0.275,0-0.5-0.224-0.5-0.5s0.225-0.5,0.5-0.5s0.5,0.224,0.5,0.5S8.385,9.059,8.109,9.059z"/>
	<path fill="#455B65" d="M11.594,14.58h8.734c0.276,0,0.5-0.224,0.5-0.5s-0.224-0.5-0.5-0.5h-8.734c-0.276,0-0.5,0.224-0.5,0.5
		S11.317,14.58,11.594,14.58z"/>
	<path fill="#455B65" d="M8.109,12.58c-0.827,0-1.5,0.673-1.5,1.5s0.673,1.5,1.5,1.5s1.5-0.673,1.5-1.5S8.937,12.58,8.109,12.58z
		 M8.109,14.58c-0.275,0-0.5-0.224-0.5-0.5s0.225-0.5,0.5-0.5s0.5,0.224,0.5,0.5S8.385,14.58,8.109,14.58z"/>
	<path fill="#455B65" d="M24.891,19.087L11.594,19.1c-0.276,0-0.5,0.224-0.5,0.5c0,0.276,0.224,0.5,0.5,0.5l13.297-0.013
		c0.276,0,0.5-0.224,0.5-0.5C25.391,19.311,25.167,19.087,24.891,19.087z"/>
	<path fill="#455B65" d="M8.109,18.1c-0.827,0-1.5,0.673-1.5,1.5s0.673,1.5,1.5,1.5s1.5-0.673,1.5-1.5S8.937,18.1,8.109,18.1z
		 M8.109,20.1c-0.275,0-0.5-0.224-0.5-0.5s0.225-0.5,0.5-0.5s0.5,0.224,0.5,0.5S8.385,20.1,8.109,20.1z"/>
	<path fill="#455B65" d="M22.156,24.62C22.156,24.62,22.156,24.62,22.156,24.62l-10.563,0.013c-0.275,0-0.499,0.225-0.499,0.5
		s0.225,0.5,0.5,0.5c0,0,0,0,0.001,0l10.563-0.013c0.275,0,0.499-0.225,0.499-0.5S22.432,24.62,22.156,24.62z"/>
	<path fill="#455B65" d="M8.109,23.62c-0.827,0-1.5,0.673-1.5,1.5s0.673,1.5,1.5,1.5s1.5-0.673,1.5-1.5S8.937,23.62,8.109,23.62z
		 M8.109,25.62c-0.275,0-0.5-0.224-0.5-0.5s0.225-0.5,0.5-0.5s0.5,0.224,0.5,0.5S8.385,25.62,8.109,25.62z"/>
</g>
</svg>
