<?xml version="1.0" encoding="utf-8"?>
<!-- Generator: Adobe Illustrator 19.1.0, SVG Export Plug-In . SVG Version: 6.00 Build 0)  -->
<svg version="1.1" id="Layer_1" xmlns="http://www.w3.org/2000/svg" xmlns:xlink="http://www.w3.org/1999/xlink" x="0px" y="0px"
	 viewBox="0 0 32 32" enable-background="new 0 0 32 32" xml:space="preserve">
<g>
	<path fill="#455B65" d="M23.743,18.898h-1.375c-0.276,0-0.5,0.224-0.5,0.5s0.224,0.5,0.5,0.5h1.375c0.276,0,0.5-0.224,0.5-0.5
		S24.02,18.898,23.743,18.898z"/>
	<path fill="#455B65" d="M30.917,23.098h-0.394V11.766c0-1.566-1.274-2.841-2.841-2.841h-1.556V7.596c0-0.276-0.224-0.5-0.5-0.5
		h-4.29V5.753c0-0.553-0.447-1-1-1H2.4c-0.553,0-1,0.447-1,1v17.345H1.083c-0.553,0-1,0.447-1,1s0.447,1,1,1H2.4h1.59
		c0.421,1.245,1.587,2.149,2.971,2.149s2.551-0.905,2.971-2.149h10.404h1.622c0.42,1.245,1.586,2.149,2.97,2.149
		s2.551-0.905,2.971-2.149h1.622h1.394c0.553,0,1-0.447,1-1S31.47,23.098,30.917,23.098z M25.127,8.096v0.771h-3.79V8.096H25.127z
		 M19.337,6.753v5.013v7.442H3.4V6.753H19.337z M3.4,19.958h15.937v3.14H9.933c-0.421-1.244-1.587-2.148-2.971-2.148
		s-2.551,0.904-2.971,2.148H3.4V19.958z M6.962,25.247c-0.634,0-1.149-0.516-1.149-1.149c0-0.633,0.516-1.148,1.149-1.148
		s1.149,0.516,1.149,1.148C8.111,24.731,7.596,25.247,6.962,25.247z M24.93,25.247c-0.633,0-1.148-0.516-1.148-1.149
		c0-0.633,0.516-1.148,1.148-1.148c0.634,0,1.149,0.516,1.149,1.148C26.079,24.731,25.563,25.247,24.93,25.247z M27.901,23.098
		c-0.421-1.244-1.587-2.148-2.971-2.148s-2.55,0.904-2.97,2.148h-0.622V11.766c0-0.464,0.377-0.841,0.841-0.841h5.505
		c0.464,0,0.841,0.377,0.841,0.841v11.332H27.901z"/>
	<path fill="#455B65" d="M27.509,11.805h-5.141c-0.276,0-0.5,0.224-0.5,0.5v5.141c0,0.276,0.224,0.5,0.5,0.5h5.141
		c0.276,0,0.5-0.224,0.5-0.5v-5.141C28.009,12.028,27.785,11.805,27.509,11.805z M27.009,16.945h-4.141v-4.141h4.141V16.945z"/>
	<path fill="#455B65" d="M7.868,13.194h1.376c0.435,0.724,1.22,1.214,2.124,1.214s1.689-0.49,2.124-1.214h1.377
		c0.207,0,0.375-0.168,0.375-0.375s-0.168-0.375-0.375-0.375h-1.073c0.036-0.168,0.057-0.342,0.057-0.521
		c0-1.37-1.115-2.485-2.485-2.485s-2.485,1.115-2.485,2.485c0,0.179,0.021,0.353,0.057,0.521H7.868
		c-0.207,0-0.375,0.168-0.375,0.375S7.661,13.194,7.868,13.194z M11.368,13.658c-0.453,0-0.863-0.178-1.172-0.464h2.344
		C12.231,13.48,11.821,13.658,11.368,13.658z M9.633,11.923c0-0.957,0.778-1.735,1.735-1.735s1.735,0.778,1.735,1.735
		c0,0.183-0.036,0.356-0.089,0.521H9.722C9.669,12.279,9.633,12.106,9.633,11.923z"/>
</g>
</svg>
