<?xml version="1.0" encoding="utf-8"?>
<!-- Generator: Adobe Illustrator 19.1.0, SVG Export Plug-In . SVG Version: 6.00 Build 0)  -->
<svg version="1.1" id="Layer_1" xmlns="http://www.w3.org/2000/svg" xmlns:xlink="http://www.w3.org/1999/xlink" x="0px" y="0px"
	 viewBox="0 0 32 32" enable-background="new 0 0 32 32" xml:space="preserve">
<g>
	<path fill="#455B65" d="M17.01,26.73c0.13,0,0.25-0.05,0.35-0.15c0.101-0.09,0.15-0.22,0.15-0.35c0-0.13-0.05-0.26-0.15-0.36
		c-0.199-0.18-0.51-0.18-0.71,0.01c-0.09,0.09-0.14,0.22-0.14,0.35c0,0.13,0.05,0.26,0.15,0.36C16.75,26.68,16.88,26.73,17.01,26.73
		z"/>
	<path fill="#455B65" d="M22.112,27.979h5.5c0.276,0,0.5-0.224,0.5-0.5v-4.542c0-0.065-0.013-0.13-0.038-0.191
		c-0.051-0.122-0.148-0.22-0.271-0.271c-0.061-0.025-0.126-0.038-0.191-0.038h-5.5c-0.276,0-0.5,0.224-0.5,0.5v4.542
		C21.612,27.756,21.836,27.979,22.112,27.979z M22.612,23.438h3.793l-0.433,0.433c-0.195,0.195-0.195,0.512,0,0.707
		c0.098,0.098,0.226,0.146,0.354,0.146s0.256-0.049,0.354-0.146l0.433-0.433v2.835h-2.18l0.01-0.01c0.195-0.195,0.195-0.512,0-0.707
		s-0.512-0.195-0.707,0l-0.718,0.717h-0.905V23.438z"/>
	<path fill="#455B65" d="M22.112,21.521h5.5c0.276,0,0.5-0.224,0.5-0.5v-4.542c0-0.065-0.013-0.13-0.038-0.191
		c-0.051-0.122-0.148-0.22-0.271-0.271c-0.061-0.025-0.126-0.038-0.191-0.038h-5.5c-0.276,0-0.5,0.224-0.5,0.5v4.542
		C21.612,21.297,21.836,21.521,22.112,21.521z M22.612,16.979h3.793l-0.433,0.433c-0.195,0.195-0.195,0.512,0,0.707
		c0.098,0.098,0.226,0.146,0.354,0.146s0.256-0.049,0.354-0.146l0.433-0.433v2.835h-2.18l0.01-0.01c0.195-0.195,0.195-0.512,0-0.707
		s-0.512-0.195-0.707,0l-0.718,0.717h-0.905V16.979z"/>
	<path fill="#455B65" d="M12.758,16.479v4.542c0,0.276,0.224,0.5,0.5,0.5h5.5c0.276,0,0.5-0.224,0.5-0.5v-4.542
		c0-0.276-0.224-0.5-0.5-0.5h-5.5C12.981,15.979,12.758,16.203,12.758,16.479z M13.758,16.979h3.752l-0.433,0.433
		c-0.195,0.195-0.195,0.512,0,0.707c0.098,0.098,0.226,0.146,0.354,0.146s0.256-0.049,0.354-0.146l0.474-0.474v2.876h-2.22
		l0.01-0.01c0.195-0.195,0.195-0.512,0-0.707s-0.512-0.195-0.707,0l-0.718,0.717h-0.865V16.979z"/>
	<path fill="#455B65" d="M10.094,16.017c-0.061-0.025-0.126-0.038-0.191-0.038h-5.5c-0.276,0-0.5,0.224-0.5,0.5v4.542
		c0,0.276,0.224,0.5,0.5,0.5h5.5c0.276,0,0.5-0.224,0.5-0.5v-4.542c0-0.065-0.013-0.13-0.038-0.191
		C10.314,16.166,10.217,16.068,10.094,16.017z M7.224,20.521l0.01-0.01c0.195-0.195,0.195-0.512,0-0.707s-0.512-0.195-0.707,0
		L5.81,20.521H4.903v-3.542h3.793l-0.433,0.433c-0.195,0.195-0.195,0.512,0,0.707c0.098,0.098,0.226,0.146,0.354,0.146
		s0.256-0.049,0.354-0.146l0.433-0.433v2.835H7.224z"/>
	<path fill="#455B65" d="M9.888,22.422h-5.5c-0.276,0-0.5,0.224-0.5,0.5v4.542c0,0.276,0.224,0.5,0.5,0.5h1.533
		c0.027,0.004,0.053,0.016,0.08,0.016s0.053-0.011,0.08-0.016h3.806c0.276,0,0.5-0.224,0.5-0.5v-4.542
		C10.388,22.646,10.164,22.422,9.888,22.422z M7.222,26.964c0.191-0.195,0.19-0.508-0.004-0.702c-0.195-0.195-0.512-0.195-0.707,0
		L5.81,26.964H4.888v-3.542h3.809L8.248,23.87c-0.195,0.195-0.195,0.512,0,0.707c0.098,0.098,0.226,0.146,0.354,0.146
		s0.256-0.049,0.354-0.146l0.433-0.433v2.819H7.222z"/>
	<path fill="#455B65" d="M22.479,10.17c0.13,0,0.261-0.05,0.36-0.15c0.09-0.1,0.14-0.22,0.14-0.35s-0.05-0.25-0.149-0.36
		c-0.181-0.18-0.511-0.19-0.71,0.01c-0.09,0.1-0.141,0.22-0.141,0.35s0.051,0.25,0.15,0.36C22.22,10.12,22.35,10.17,22.479,10.17z"
		/>
	<path fill="#455B65" d="M31.645,6.731l-5.5-5.5c-0.188-0.188-0.441-0.293-0.707-0.293H16c-0.553,0-1,0.448-1,1v6.777h-0.989V7.792
		c0-0.276-0.224-0.5-0.5-0.5s-0.5,0.224-0.5,0.5v0.923h-1.49V7.792c0-0.276-0.224-0.5-0.5-0.5s-0.5,0.224-0.5,0.5v0.923H9.031V7.792
		c0-0.276-0.224-0.5-0.5-0.5s-0.5,0.224-0.5,0.5v0.923H6.542V7.792c0-0.276-0.224-0.5-0.5-0.5s-0.5,0.224-0.5,0.5v0.923h-1.49V7.792
		c0-0.276-0.224-0.5-0.5-0.5s-0.5,0.224-0.5,0.5v0.923H1.062c-0.276,0-0.5,0.224-0.5,0.5v3.584c-0.294,0.174-0.5,0.481-0.5,0.847
		v16.416c0,0.552,0.447,1,1,1h29.875c0.553,0,1-0.448,1-1V13.646V7.438C31.937,7.173,31.832,6.919,31.645,6.731z M17,2.938h8.023
		l4.914,4.915v4.793h-1.825V9.938c0-0.276-0.224-0.5-0.5-0.5s-0.5,0.224-0.5,0.5v2.708h-2.396V6.375c0-0.276-0.224-0.5-0.5-0.5h-5.5
		c-0.276,0-0.5,0.224-0.5,0.5v6.271H17V2.938z M23.717,12.646h-4.5V6.875h4.5V12.646z M15,9.715v2.931h-0.989V9.715H15z
		 M13.011,9.715v2.931h-1.49V9.715H13.011z M10.521,9.715v2.931H9.031V9.715H10.521z M8.031,9.715v2.931H6.542V9.715H8.031z
		 M5.542,9.715v2.931h-1.49V9.715H5.542z M3.052,9.715v2.931H1.562V9.715H3.052z M18.25,29.062h-4.5v-5.625h4.5V29.062z
		 M29.937,29.062H19.25v-6.125c0-0.276-0.224-0.5-0.5-0.5h-5.5c-0.276,0-0.5,0.224-0.5,0.5v6.125H2.062V14.646H16h13.937V29.062z"/>
	<path fill="#455B65" d="M18.75,4.75h5.632l1.277,1.278c0.098,0.098,0.226,0.146,0.354,0.146s0.256-0.049,0.354-0.146
		c0.195-0.195,0.195-0.512,0-0.707l-1.424-1.424c-0.094-0.094-0.221-0.146-0.354-0.146H18.75c-0.276,0-0.5,0.224-0.5,0.5
		S18.474,4.75,18.75,4.75z"/>
</g>
</svg>
