<?xml version="1.0" encoding="utf-8"?>
<!-- Generator: Adobe Illustrator 19.1.0, SVG Export Plug-In . SVG Version: 6.00 Build 0)  -->
<svg version="1.1" id="Layer_1" xmlns="http://www.w3.org/2000/svg" xmlns:xlink="http://www.w3.org/1999/xlink" x="0px" y="0px"
	 viewBox="0 0 32 32" enable-background="new 0 0 32 32" xml:space="preserve">
<g>
	<path fill="#455B65" d="M30.791,2.375H1.209c-0.553,0-1,0.447-1,1v4.803v20.447c0,0.553,0.447,1,1,1h29.582c0.553,0,1-0.447,1-1
		V8.178V3.375C31.791,2.822,31.344,2.375,30.791,2.375z M2.209,4.375h27.582v2.803H2.209V4.375z M29.791,27.625H2.209V9.178h27.582
		V27.625z"/>
	<circle fill="#455B65" cx="4" cy="5.776" r="0.779"/>
	<circle fill="#455B65" cx="6" cy="5.776" r="0.779"/>
	<circle fill="#455B65" cx="8" cy="5.776" r="0.779"/>
	<path fill="#455B65" d="M11.188,21.163c0.147,0.186,0.365,0.281,0.585,0.281c0.165,0,0.331-0.054,0.469-0.165
		c0.323-0.259,0.376-0.73,0.116-1.054l-1.572-1.962l1.572-1.963c0.26-0.323,0.207-0.795-0.116-1.054
		c-0.321-0.259-0.795-0.209-1.054,0.116L9.24,17.795c-0.22,0.274-0.22,0.664,0,0.938L11.188,21.163z"/>
	<path fill="#455B65" d="M19.758,21.279c0.138,0.111,0.304,0.165,0.469,0.165c0.22,0,0.438-0.096,0.585-0.281l1.948-2.431
		c0.22-0.273,0.22-0.663,0-0.938l-1.948-2.432c-0.258-0.325-0.731-0.375-1.054-0.116c-0.323,0.259-0.376,0.73-0.116,1.054
		l1.572,1.963l-1.572,1.962C19.382,20.549,19.435,21.021,19.758,21.279z"/>
	<path fill="#455B65" d="M13.633,23.104c0.107,0.055,0.223,0.08,0.336,0.08c0.274,0,0.539-0.151,0.671-0.413l4.061-8.065
		c0.187-0.369,0.037-0.82-0.333-1.007c-0.367-0.187-0.82-0.037-1.007,0.333L13.3,22.097C13.113,22.467,13.263,22.917,13.633,23.104z
		"/>
</g>
</svg>
