<?xml version="1.0" encoding="utf-8"?>
<!-- Generator: Adobe Illustrator 19.1.0, SVG Export Plug-In . SVG Version: 6.00 Build 0)  -->
<svg version="1.1" id="Layer_1" xmlns="http://www.w3.org/2000/svg" xmlns:xlink="http://www.w3.org/1999/xlink" x="0px" y="0px"
	 viewBox="0 0 32 32" enable-background="new 0 0 32 32" xml:space="preserve">
<g>
	<path fill="#455B65" d="M30.792,0.188H5.458c-2.895,0-5.25,2.355-5.25,5.25v21.124c0,2.895,2.355,5.25,5.25,5.25h25.333
		c0.552,0,1-0.448,1-1v-8.5V1.188C31.792,0.636,31.344,0.188,30.792,0.188z M29.792,21.312H5.958V2.188h12.082v5.333
		c0,0.162,0.078,0.313,0.209,0.407c0.132,0.095,0.3,0.121,0.453,0.066l3.962-1.36l3.962,1.36c0.053,0.019,0.108,0.027,0.163,0.027
		c0.103,0,0.205-0.032,0.291-0.093c0.131-0.094,0.209-0.245,0.209-0.407V2.188h2.501V21.312z M26.291,2.188V6.82l-3.462-1.189
		c-0.053-0.018-0.108-0.027-0.163-0.027s-0.11,0.009-0.163,0.027L19.041,6.82V2.188H26.291z M4.958,2.239v19.124
		c-1.036,0.1-1.978,0.494-2.75,1.109V5.438C2.208,3.817,3.405,2.481,4.958,2.239z M29.792,29.812H5.458
		c-1.792,0-3.25-1.458-3.25-3.25s1.458-3.25,3.25-3.25h24.333V29.812z"/>
	<path fill="#455B65" d="M4.958,25.354c0,0.276,0.224,0.5,0.5,0.5h22c0.276,0,0.5-0.224,0.5-0.5s-0.224-0.5-0.5-0.5h-22
		C5.182,24.854,4.958,25.078,4.958,25.354z"/>
	<path fill="#455B65" d="M27.458,27.604h-22c-0.276,0-0.5,0.224-0.5,0.5s0.224,0.5,0.5,0.5h22c0.276,0,0.5-0.224,0.5-0.5
		S27.734,27.604,27.458,27.604z"/>
</g>
</svg>
