<?xml version="1.0" encoding="utf-8"?>
<!-- Generator: Adobe Illustrator 19.1.0, SVG Export Plug-In . SVG Version: 6.00 Build 0)  -->
<svg version="1.1" id="Layer_1" xmlns="http://www.w3.org/2000/svg" xmlns:xlink="http://www.w3.org/1999/xlink" x="0px" y="0px"
	 viewBox="0 0 32 32" enable-background="new 0 0 32 32" xml:space="preserve">
<g>
	<path fill="#455B65" d="M22.637,20.248C24.76,18.252,26,15.419,26,12.336c0-5.858-4.486-10.625-10-10.625S6,6.478,6,12.336
		c0,3.083,1.24,5.916,3.363,7.912c-0.453,0.433-0.738,1.039-0.738,1.713c0,0.808,0.407,1.52,1.024,1.95
		C9.558,24.162,9.5,24.43,9.5,24.713c0,1.311,1.066,2.376,2.376,2.376h0.31l0.896,1.552c0.089,0.154,0.254,0.25,0.433,0.25h0.817
		l0.374,0.648c0.089,0.154,0.254,0.25,0.433,0.25h1.722c0.179,0,0.344-0.096,0.433-0.25l0.374-0.648h0.817
		c0.179,0,0.344-0.096,0.433-0.25l0.896-1.552h0.31c1.31,0,2.376-1.065,2.376-2.376c0-0.283-0.058-0.551-0.149-0.802
		c0.617-0.43,1.024-1.142,1.024-1.95C23.375,21.287,23.09,20.68,22.637,20.248z M20.999,22.337h-0.875h-8.248h-0.875
		c-0.204,0-0.376-0.172-0.376-0.376s0.172-0.376,0.376-0.376h0.379h9.239h0.379c0.204,0,0.376,0.172,0.376,0.376
		S21.203,22.337,20.999,22.337z M8,12.336c0-4.756,3.589-8.625,8-8.625s8,3.869,8,8.625c0,2.963-1.371,5.65-3.683,7.249h-8.635
		C9.371,17.986,8,15.299,8,12.336z M18.196,27.891h-4.392l-0.463-0.802h5.318L18.196,27.891z M20.124,25.089h-8.248
		c-0.204,0-0.376-0.172-0.376-0.376s0.172-0.376,0.376-0.376h8.248c0.204,0,0.376,0.172,0.376,0.376S20.328,25.089,20.124,25.089z"
		/>
	<path fill="#455B65" d="M16,5.817c3.239,0,5.875,2.834,5.875,6.318c0,0.276,0.224,0.5,0.5,0.5s0.5-0.224,0.5-0.5
		c0-4.035-3.084-7.318-6.875-7.318c-0.276,0-0.5,0.224-0.5,0.5S15.724,5.817,16,5.817z"/>
	<path fill="#455B65" d="M12.458,18.399c0.083,0.054,0.177,0.079,0.27,0.079c0.165,0,0.326-0.081,0.421-0.229
		c0.149-0.232,0.082-0.542-0.151-0.691c-1.799-1.154-2.873-3.182-2.873-5.422c0-0.276-0.224-0.5-0.5-0.5s-0.5,0.224-0.5,0.5
		C9.125,14.719,10.371,17.06,12.458,18.399z"/>
</g>
</svg>
