<?xml version="1.0" encoding="utf-8"?>
<!-- Generator: Adobe Illustrator 19.1.0, SVG Export Plug-In . SVG Version: 6.00 Build 0)  -->
<svg version="1.1" id="Layer_1" xmlns="http://www.w3.org/2000/svg" xmlns:xlink="http://www.w3.org/1999/xlink" x="0px" y="0px"
	 viewBox="0 0 32 32" enable-background="new 0 0 32 32" xml:space="preserve">
<g>
	<path fill="#455B65" d="M29.351,8.142l-8.093-7.597c-0.186-0.174-0.431-0.271-0.685-0.271H3.334c-0.553,0-1,0.448-1,1v29.452
		c0,0.552,0.447,1,1,1h25.332c0.553,0,1-0.448,1-1V8.871C29.666,8.594,29.552,8.331,29.351,8.142z M21.073,3.115l5.599,5.256h-5.599
		V3.115z M4.334,29.726V2.274h15.739v6.597c0,0.276,0.224,0.5,0.5,0.5h7.093v20.355H4.334z"/>
	<path fill="#455B65" d="M7.109,7.058h10.224c0.276,0,0.5-0.224,0.5-0.5s-0.224-0.5-0.5-0.5H7.109c-0.276,0-0.5,0.224-0.5,0.5
		S6.833,7.058,7.109,7.058z"/>
	<path fill="#455B65" d="M7.109,10.152h7.838c0.276,0,0.5-0.224,0.5-0.5s-0.224-0.5-0.5-0.5H7.109c-0.276,0-0.5,0.224-0.5,0.5
		S6.833,10.152,7.109,10.152z"/>
	<path fill="#455B65" d="M7.109,13.248h13.219c0.276,0,0.5-0.224,0.5-0.5s-0.224-0.5-0.5-0.5H7.109c-0.276,0-0.5,0.224-0.5,0.5
		S6.833,13.248,7.109,13.248z"/>
	<path fill="#455B65" d="M24.891,15.335L7.109,15.349c-0.276,0-0.5,0.224-0.5,0.5c0,0.276,0.224,0.5,0.5,0.5l17.781-0.013
		c0.276,0,0.5-0.224,0.5-0.5C25.391,15.559,25.167,15.335,24.891,15.335z"/>
	<path fill="#455B65" d="M24.891,18.431L7.109,18.443c-0.276,0-0.5,0.224-0.5,0.5c0,0.276,0.224,0.5,0.5,0.5l17.781-0.013
		c0.276,0,0.5-0.224,0.5-0.5C25.391,18.654,25.167,18.431,24.891,18.431z"/>
	<path fill="#455B65" d="M24.891,21.525L7.109,21.538c-0.276,0-0.5,0.224-0.5,0.5c0,0.276,0.224,0.5,0.5,0.5l17.781-0.013
		c0.276,0,0.5-0.224,0.5-0.5C25.391,21.749,25.167,21.525,24.891,21.525z"/>
	<path fill="#455B65" d="M17.708,24.62C17.708,24.62,17.708,24.62,17.708,24.62l-10.6,0.013c-0.275,0-0.499,0.225-0.499,0.5
		s0.225,0.5,0.5,0.5c0,0,0,0,0.001,0l10.599-0.013c0.275,0,0.499-0.225,0.499-0.5S17.983,24.62,17.708,24.62z"/>
</g>
</svg>
