<?xml version="1.0" encoding="utf-8"?>
<!-- Generator: Adobe Illustrator 19.1.0, SVG Export Plug-In . SVG Version: 6.00 Build 0)  -->
<svg version="1.1" id="Layer_1" xmlns="http://www.w3.org/2000/svg" xmlns:xlink="http://www.w3.org/1999/xlink" x="0px" y="0px"
	 viewBox="0 0 32 32" enable-background="new 0 0 32 32" xml:space="preserve">
<g>
	<path fill="#455B65" d="M31.21,8.479L23.521,0.79c-0.391-0.391-1.023-0.391-1.414,0l-5.731,5.731l-0.574-0.574
		c-0.391-0.391-1.023-0.391-1.414,0L0.79,19.543c-0.391,0.391-0.391,1.023,0,1.414L11.043,31.21
		c0.195,0.195,0.451,0.293,0.707,0.293s0.512-0.098,0.707-0.293l13.597-13.597c0.391-0.391,0.391-1.023,0-1.414l-0.574-0.574
		l5.731-5.731C31.601,9.503,31.601,8.87,31.21,8.479z M11.75,29.089L2.911,20.25l1.326-1.326l8.839,8.839L11.75,29.089z
		 M13.783,27.056l-8.839-8.839L15.094,8.067l0.574,0.574l7.69,7.69l0.574,0.574L13.783,27.056z M24.065,14.211l-6.276-6.276
		l5.024-5.023l6.275,6.275L24.065,14.211z"/>
	<path fill="#455B65" d="M21.465,5.099l-1.487,1.488c-0.195,0.195-0.195,0.512,0,0.707l1.487,1.488
		c0.094,0.094,0.221,0.146,0.354,0.146s0.26-0.053,0.354-0.146l1.488-1.488c0.195-0.195,0.195-0.512,0-0.707l-1.488-1.488
		C21.984,4.911,21.652,4.911,21.465,5.099z M21.818,7.722l-0.78-0.781l0.78-0.781L22.6,6.94L21.818,7.722z"/>
	<path fill="#455B65" d="M23.071,10.182c0,0.133,0.053,0.26,0.146,0.354l1.488,1.487c0.098,0.098,0.226,0.146,0.354,0.146
		c0.128,0,0.256-0.049,0.354-0.146l1.488-1.487c0.094-0.094,0.146-0.221,0.146-0.354s-0.053-0.26-0.146-0.354L25.413,8.34
		c-0.195-0.195-0.512-0.195-0.707,0l-1.488,1.488C23.124,9.922,23.071,10.049,23.071,10.182z M25.06,9.4l0.781,0.781l-0.781,0.78
		l-0.781-0.78L25.06,9.4z"/>
</g>
</svg>
