<?xml version="1.0" encoding="utf-8"?>
<!-- Generator: Adobe Illustrator 19.1.0, SVG Export Plug-In . SVG Version: 6.00 Build 0)  -->
<svg version="1.1" id="Layer_1" xmlns="http://www.w3.org/2000/svg" xmlns:xlink="http://www.w3.org/1999/xlink" x="0px" y="0px"
	 viewBox="0 0 32 32" enable-background="new 0 0 32 32" xml:space="preserve">
<g>
	<path fill="#455B65" d="M27.618,2.893h-3.002V2.288c0-0.276-0.224-0.5-0.5-0.5H19.22V0.594c0-0.276-0.224-0.5-0.5-0.5h-5.44
		c-0.276,0-0.5,0.224-0.5,0.5v1.194H7.885c-0.276,0-0.5,0.224-0.5,0.5v0.604H4.382c-0.552,0-1,0.448-1,1v27.014c0,0.552,0.448,1,1,1
		h23.235c0.552,0,1-0.448,1-1V3.893C28.618,3.34,28.17,2.893,27.618,2.893z M13.78,1.094h4.44v0.694h-4.44V1.094z M8.385,2.788
		h4.895h5.44h4.895v2.227H8.385V2.788z M26.618,29.906H5.382V4.893h2.002v0.623c0,0.276,0.224,0.5,0.5,0.5h16.23
		c0.276,0,0.5-0.224,0.5-0.5V4.893h2.002V29.906z"/>
	<path fill="#455B65" d="M11.094,9.124c0,0.276,0.224,0.5,0.5,0.5h13.297c0.276,0,0.5-0.224,0.5-0.5s-0.224-0.5-0.5-0.5H11.594
		C11.317,8.624,11.094,8.847,11.094,9.124z"/>
	<path fill="#455B65" d="M8.109,7.624c-0.827,0-1.5,0.673-1.5,1.5s0.673,1.5,1.5,1.5s1.5-0.673,1.5-1.5S8.937,7.624,8.109,7.624z
		 M8.109,9.624c-0.276,0-0.5-0.224-0.5-0.5s0.224-0.5,0.5-0.5s0.5,0.224,0.5,0.5S8.385,9.624,8.109,9.624z"/>
	<path fill="#455B65" d="M24.891,14.144H11.594c-0.276,0-0.5,0.224-0.5,0.5s0.224,0.5,0.5,0.5h13.297c0.276,0,0.5-0.224,0.5-0.5
		S25.167,14.144,24.891,14.144z"/>
	<path fill="#455B65" d="M8.109,13.144c-0.827,0-1.5,0.673-1.5,1.5s0.673,1.5,1.5,1.5s1.5-0.673,1.5-1.5S8.937,13.144,8.109,13.144z
		 M8.109,15.144c-0.276,0-0.5-0.224-0.5-0.5s0.224-0.5,0.5-0.5s0.5,0.224,0.5,0.5S8.385,15.144,8.109,15.144z"/>
	<path fill="#455B65" d="M24.891,19.651L24.891,19.651l-13.297,0.013c-0.276,0-0.5,0.224-0.5,0.5c0,0.276,0.224,0.5,0.5,0.5h0
		l13.297-0.013c0.276,0,0.5-0.224,0.5-0.5C25.39,19.875,25.167,19.651,24.891,19.651z"/>
	<path fill="#455B65" d="M8.109,18.664c-0.827,0-1.5,0.673-1.5,1.5s0.673,1.5,1.5,1.5s1.5-0.673,1.5-1.5S8.937,18.664,8.109,18.664z
		 M8.109,20.664c-0.276,0-0.5-0.224-0.5-0.5s0.224-0.5,0.5-0.5s0.5,0.224,0.5,0.5S8.385,20.664,8.109,20.664z"/>
	<path fill="#455B65" d="M22.156,25.185L22.156,25.185l-10.563,0.013c-0.276,0-0.5,0.225-0.5,0.5s0.224,0.5,0.5,0.5h0l10.563-0.013
		c0.276,0,0.5-0.225,0.5-0.5S22.432,25.185,22.156,25.185z"/>
	<path fill="#455B65" d="M8.109,24.185c-0.827,0-1.5,0.673-1.5,1.5s0.673,1.5,1.5,1.5s1.5-0.673,1.5-1.5S8.937,24.185,8.109,24.185z
		 M8.109,26.185c-0.276,0-0.5-0.224-0.5-0.5s0.224-0.5,0.5-0.5s0.5,0.224,0.5,0.5S8.385,26.185,8.109,26.185z"/>
</g>
</svg>
