<?xml version="1.0" encoding="utf-8"?>
<!-- Generator: Adobe Illustrator 19.1.0, SVG Export Plug-In . SVG Version: 6.00 Build 0)  -->
<svg version="1.1" id="Layer_1" xmlns="http://www.w3.org/2000/svg" xmlns:xlink="http://www.w3.org/1999/xlink" x="0px" y="0px"
	 viewBox="0 0 32 32" enable-background="new 0 0 32 32" xml:space="preserve">
<g>
	<path fill="#455B65" d="M31.725,13.312L30.913,11.5c-0.15-0.334-0.47-0.56-0.835-0.588c-0.375-0.03-0.717,0.146-0.916,0.452
		l-0.658,1.012l-0.942-0.896V1.396c0-0.335-0.167-0.647-0.446-0.833c-0.278-0.186-0.631-0.219-0.94-0.09l-3.278,1.375l-3.508-1.573
		c-0.233-0.104-0.495-0.115-0.737-0.032L14.18,1.794L9.355,0.078C9.074-0.021,8.765,0.01,8.508,0.162L5.249,2.105L1.594,0.482
		C1.286,0.345,0.927,0.373,0.643,0.557s-0.455,0.5-0.455,0.838v25.333c0,2.507,2.055,4.605,4.791,5.124
		c0.139,0.074,0.291,0.126,0.459,0.126h23.249c1.782,0,3.125-2.257,3.125-5.25V13.721C31.812,13.58,31.782,13.441,31.725,13.312z
		 M2.188,26.729V2.934l2.723,1.209c0.295,0.131,0.639,0.11,0.918-0.055L9.128,2.12l4.712,1.676c0.214,0.076,0.448,0.077,0.663,0.002
		l4.43-1.537l3.542,1.588c0.253,0.113,0.54,0.117,0.796,0.01l2.292-0.961v9.009v1.813v13.008c0,1.255,0.246,2.366,0.652,3.25H6.293
		C4.068,29.979,2.188,28.491,2.188,26.729z M29.812,26.729c0,2.132-0.836,3.25-1.125,3.25s-1.125-1.118-1.125-3.25V14.24
		l0.436,0.415c0.215,0.205,0.512,0.302,0.806,0.269c0.295-0.035,0.56-0.199,0.722-0.448l0.287-0.441V26.729z"/>
	<path fill="#455B65" d="M3.66,14.037c0.001,0.002,0.002,0.002,0.003,0.004c0.034,0.084,0.093,0.151,0.164,0.205
		c0.017,0.013,0.031,0.023,0.049,0.033c0.074,0.044,0.156,0.076,0.249,0.076h19.417c0.093,0,0.174-0.032,0.249-0.076
		c0.018-0.01,0.032-0.02,0.049-0.033c0.071-0.054,0.131-0.121,0.165-0.205c0.001-0.002,0.002-0.002,0.003-0.004
		c0.011-0.029,0.01-0.059,0.016-0.089c0.006-0.031,0.019-0.06,0.019-0.094V6.229c0-0.033-0.013-0.062-0.019-0.094
		c-0.006-0.03-0.004-0.06-0.016-0.089c-0.001-0.002-0.002-0.003-0.003-0.005c-0.018-0.045-0.048-0.083-0.077-0.12
		c-0.011-0.014-0.017-0.032-0.03-0.044c-0.026-0.026-0.06-0.043-0.091-0.063c-0.023-0.014-0.042-0.034-0.067-0.045
		c-0.021-0.009-0.045-0.009-0.067-0.015c-0.041-0.011-0.082-0.025-0.125-0.025c-0.002,0-0.004-0.001-0.006-0.001H4.125
		c-0.003,0-0.005,0.002-0.008,0.002C4.086,5.731,4.058,5.743,4.028,5.749C3.993,5.756,3.957,5.758,3.926,5.772
		C3.917,5.775,3.91,5.783,3.901,5.788C3.853,5.812,3.807,5.841,3.769,5.879c-0.01,0.01-0.016,0.026-0.025,0.037
		C3.712,5.955,3.682,5.995,3.663,6.042C3.662,6.044,3.66,6.045,3.66,6.047C3.648,6.076,3.65,6.106,3.644,6.135
		c-0.006,0.031-0.019,0.06-0.019,0.094v7.625c0,0.033,0.013,0.062,0.019,0.094C3.65,13.978,3.648,14.008,3.66,14.037z
		 M23.042,13.121l-7.841-3.079l7.841-3.079V13.121z M20.901,13.354H6.766l7.068-2.775L20.901,13.354z M13.833,9.505L6.766,6.729
		h14.135L13.833,9.505z M12.466,10.042l-7.841,3.079V6.963L12.466,10.042z"/>
	<path fill="#455B65" d="M23.542,16.443L23.542,16.443l-8.667,0.012c-0.276,0-0.5,0.225-0.5,0.5s0.224,0.5,0.5,0.5h0l8.667-0.012
		c0.276,0,0.5-0.225,0.5-0.5S23.817,16.443,23.542,16.443z"/>
	<path fill="#455B65" d="M21.009,25.74h-6.134c-0.276,0-0.5,0.224-0.5,0.5s0.224,0.5,0.5,0.5h6.134c0.276,0,0.5-0.224,0.5-0.5
		S21.285,25.74,21.009,25.74z"/>
	<path fill="#455B65" d="M23.542,22.644h-8.667c-0.276,0-0.5,0.224-0.5,0.5s0.224,0.5,0.5,0.5h8.667c0.276,0,0.5-0.224,0.5-0.5
		S23.818,22.644,23.542,22.644z"/>
	<path fill="#455B65" d="M23.542,19.551h-8.667c-0.276,0-0.5,0.224-0.5,0.5s0.224,0.5,0.5,0.5h8.667c0.276,0,0.5-0.224,0.5-0.5
		S23.818,19.551,23.542,19.551z"/>
	<path fill="#455B65" d="M4.125,17.455L4.125,17.455l8.667-0.012c0.276,0,0.5-0.225,0.5-0.5s-0.224-0.5-0.5-0.5h0l-8.667,0.012
		c-0.276,0-0.5,0.225-0.5,0.5S3.849,17.455,4.125,17.455z"/>
	<path fill="#455B65" d="M13.292,26.24c0-0.276-0.224-0.5-0.5-0.5H4.125c-0.276,0-0.5,0.224-0.5,0.5s0.224,0.5,0.5,0.5h8.667
		C13.068,26.74,13.292,26.516,13.292,26.24z"/>
	<path fill="#455B65" d="M4.125,23.644h8.667c0.276,0,0.5-0.224,0.5-0.5s-0.224-0.5-0.5-0.5H4.125c-0.276,0-0.5,0.224-0.5,0.5
		S3.849,23.644,4.125,23.644z"/>
	<path fill="#455B65" d="M4.125,20.551h8.667c0.276,0,0.5-0.224,0.5-0.5s-0.224-0.5-0.5-0.5H4.125c-0.276,0-0.5,0.224-0.5,0.5
		S3.849,20.551,4.125,20.551z"/>
</g>
</svg>
