<?xml version="1.0" encoding="utf-8"?>
<!-- Generator: Adobe Illustrator 19.1.0, SVG Export Plug-In . SVG Version: 6.00 Build 0)  -->
<svg version="1.1" id="Layer_1" xmlns="http://www.w3.org/2000/svg" xmlns:xlink="http://www.w3.org/1999/xlink" x="0px" y="0px"
	 viewBox="0 0 32 32" enable-background="new 0 0 32 32" xml:space="preserve">
<g>
	<path fill="#455B65" d="M29.351,8.142l-8.093-7.598c-0.186-0.174-0.43-0.271-0.685-0.271H3.334c-0.552,0-1,0.447-1,1v29.453
		c0,0.553,0.448,1,1,1h25.333c0.552,0,1-0.447,1-1V8.871C29.666,8.595,29.552,8.331,29.351,8.142z M21.073,3.115l5.599,5.257h-5.599
		V3.115z M4.334,29.727V2.273h15.74v6.598c0,0.276,0.224,0.5,0.5,0.5h7.093v20.355H4.334z"/>
	<path fill="#455B65" d="M19.911,15.731c1.112,0,2.017-0.904,2.017-2.017s-0.905-2.017-2.017-2.017s-2.017,0.904-2.017,2.017
		c0,0.199,0.038,0.388,0.092,0.569l-4.478,2.679c-0.365-0.362-0.866-0.586-1.419-0.586c-1.112,0-2.017,0.904-2.017,2.017
		s0.905,2.018,2.017,2.018c0.553,0,1.054-0.224,1.419-0.586l4.478,2.679c-0.054,0.182-0.092,0.37-0.092,0.569
		c0,1.112,0.905,2.017,2.017,2.017s2.017-0.904,2.017-2.017s-0.905-2.018-2.017-2.018c-0.553,0-1.054,0.224-1.419,0.586
		l-4.478-2.679c0.054-0.182,0.092-0.37,0.092-0.569c0-0.199-0.038-0.387-0.092-0.569l4.478-2.679
		C18.857,15.507,19.358,15.731,19.911,15.731z M19.911,12.698c0.561,0,1.017,0.456,1.017,1.017s-0.456,1.017-1.017,1.017
		s-1.017-0.456-1.017-1.017S19.35,12.698,19.911,12.698z M12.09,19.411c-0.561,0-1.017-0.456-1.017-1.018
		c0-0.561,0.456-1.017,1.017-1.017s1.017,0.456,1.017,1.017C13.106,18.955,12.65,19.411,12.09,19.411z M19.911,22.056
		c0.561,0,1.017,0.456,1.017,1.018c0,0.561-0.456,1.017-1.017,1.017s-1.017-0.456-1.017-1.017
		C18.894,22.512,19.35,22.056,19.911,22.056z"/>
</g>
</svg>
