<?xml version="1.0" encoding="utf-8"?>
<!-- Generator: Adobe Illustrator 19.1.0, SVG Export Plug-In . SVG Version: 6.00 Build 0)  -->
<svg version="1.1" id="Layer_1" xmlns="http://www.w3.org/2000/svg" xmlns:xlink="http://www.w3.org/1999/xlink" x="0px" y="0px"
	 viewBox="0 0 32 32" enable-background="new 0 0 32 32" xml:space="preserve">
<g>
	<path fill="#455B65" d="M30.792,5.24H1.208c-0.552,0-1,0.448-1,1V25.76c0,0.552,0.448,1,1,1h29.583c0.552,0,1-0.448,1-1V6.24
		C31.792,5.688,31.344,5.24,30.792,5.24z M29.792,24.76H2.208V7.24h27.583V24.76z"/>
	<path fill="#455B65" d="M16.167,12.156h11.74c0.276,0,0.5-0.224,0.5-0.5s-0.224-0.5-0.5-0.5h-11.74c-0.276,0-0.5,0.224-0.5,0.5
		S15.89,12.156,16.167,12.156z"/>
	<path fill="#455B65" d="M27.906,14.052H17.372c-0.276,0-0.5,0.224-0.5,0.5s0.224,0.5,0.5,0.5h10.535c0.276,0,0.5-0.224,0.5-0.5
		S28.183,14.052,27.906,14.052z"/>
	<path fill="#455B65" d="M27.906,16.948H16.595c-0.276,0-0.5,0.224-0.5,0.5s0.224,0.5,0.5,0.5h11.311c0.276,0,0.5-0.224,0.5-0.5
		S28.183,16.948,27.906,16.948z"/>
	<path fill="#455B65" d="M27.906,19.844h-9.115c-0.276,0-0.5,0.224-0.5,0.5s0.224,0.5,0.5,0.5h9.115c0.276,0,0.5-0.224,0.5-0.5
		S28.183,19.844,27.906,19.844z"/>
	<path fill="#455B65" d="M4.73,22.208h10.864c0.342,0,0.643-0.224,0.743-0.552c0.1-0.327-0.028-0.68-0.312-0.87
		c-0.078-0.052-1.493-0.98-3.598-1.435c0.772-0.978,1.268-2.294,1.479-3.17c0.293-1.214,0.179-3.588-0.987-5.068
		c-0.681-0.865-1.635-1.322-2.757-1.322c-1.122,0-2.076,0.457-2.756,1.322c-1.166,1.479-1.279,3.854-0.987,5.068
		c0.206,0.855,0.685,2.127,1.426,3.097c-0.005,0.029-0.009,0.058-0.008,0.087c-2.071,0.46-3.46,1.37-3.537,1.421
		c-0.285,0.189-0.412,0.543-0.313,0.87C4.087,21.984,4.389,22.208,4.73,22.208z M8.062,20.109c0.144-0.031,0.271-0.105,0.373-0.204
		c0.289,0.119,0.713,0.234,1.269,0.234c0.256,0,0.542-0.024,0.855-0.085c0.21-0.04,0.348-0.244,0.308-0.454
		c-0.041-0.211-0.246-0.348-0.454-0.308C9.49,19.47,8.911,19.281,8.642,19.15c-0.027-0.1-0.068-0.197-0.135-0.28
		c-0.681-0.862-1.135-2.048-1.333-2.87c-0.249-1.03-0.153-3.143,0.842-4.406c0.536-0.681,1.258-1.026,2.147-1.026
		c0.889,0,1.611,0.345,2.147,1.026c0.995,1.263,1.09,3.376,0.842,4.406c-0.198,0.822-0.652,2.007-1.333,2.87
		c-0.166,0.21-0.212,0.491-0.122,0.743c0.091,0.252,0.305,0.44,0.566,0.496c1.963,0.425,3.278,1.287,3.331,1.323l-10.863,0
		C4.786,21.395,6.09,20.536,8.062,20.109z"/>
</g>
</svg>
