<?xml version="1.0" encoding="utf-8"?>
<!-- Generator: Adobe Illustrator 19.1.0, SVG Export Plug-In . SVG Version: 6.00 Build 0)  -->
<svg version="1.1" id="Layer_1" xmlns="http://www.w3.org/2000/svg" xmlns:xlink="http://www.w3.org/1999/xlink" x="0px" y="0px"
	 viewBox="0 0 32 32" enable-background="new 0 0 32 32" xml:space="preserve">
<path fill="#455B65" d="M16,1.368c-5.894,0-12.157,1.948-12.157,5.56v18.145c0,3.611,6.264,5.56,12.157,5.56
	s12.157-1.948,12.157-5.56V6.928C28.157,3.316,21.894,1.368,16,1.368z M16,3.368c6.293,0,10.157,2.073,10.157,3.56
	S22.293,10.488,16,10.488S5.843,8.414,5.843,6.928S9.707,3.368,16,3.368z M5.843,15.414c1.982,1.532,5.743,2.547,10.157,2.547
	s8.175-1.016,10.157-2.547v4.901c-1.297,1.543-5.053,2.89-10.157,2.89s-8.86-1.347-10.157-2.89V15.414z M26.157,14.073
	C24.86,15.616,21.104,16.962,16,16.962s-8.86-1.346-10.157-2.889v-4.001c2.318,1.581,6.31,2.417,10.157,2.417
	s7.84-0.836,10.157-2.417V14.073z M16,28.632c-6.293,0-10.157-2.073-10.157-3.56v-3.415c1.982,1.532,5.743,2.548,10.157,2.548
	s8.175-1.016,10.157-2.548v3.415C26.157,26.559,22.293,28.632,16,28.632z"/>
</svg>
