<?xml version="1.0" encoding="utf-8"?>
<!-- Generator: Adobe Illustrator 19.1.0, SVG Export Plug-In . SVG Version: 6.00 Build 0)  -->
<svg version="1.1" id="Layer_1" xmlns="http://www.w3.org/2000/svg" xmlns:xlink="http://www.w3.org/1999/xlink" x="0px" y="0px"
	 viewBox="0 0 32 32" enable-background="new 0 0 32 32" xml:space="preserve">
<g>
	<path fill="#455B65" d="M23.743,17.726h-1.375c-0.276,0-0.5,0.224-0.5,0.5s0.224,0.5,0.5,0.5h1.375c0.276,0,0.5-0.224,0.5-0.5
		S24.02,17.726,23.743,17.726z"/>
	<path fill="#455B65" d="M30.917,21.927h-0.394V10.594c0-1.566-1.274-2.841-2.841-2.841h-1.556V6.424c0-0.276-0.224-0.5-0.5-0.5
		h-5.141c-0.026,0-0.049,0.011-0.075,0.015c-0.026-0.002-0.048-0.015-0.075-0.015c-0.553,0-1,0.447-1,1v3.67v1.784v4.937H13.31
		v-0.859c0-0.276-0.224-0.5-0.5-0.5H7.669c-0.276,0-0.5,0.224-0.5,0.5v0.859H2.4c-0.553,0-1,0.447-1,1v3.611H1.083
		c-0.553,0-1,0.447-1,1s0.447,1,1,1H2.4h1.59c0.421,1.245,1.587,2.149,2.971,2.149s2.551-0.905,2.971-2.149h0.613
		c0.421,1.245,1.587,2.149,2.971,2.149s2.551-0.905,2.971-2.149h3.848h1.622c0.42,1.245,1.586,2.149,2.97,2.149
		s2.551-0.905,2.971-2.149h1.622h1.394c0.553,0,1-0.447,1-1S31.47,21.927,30.917,21.927z M25.127,6.924v0.771h-3.79V6.924H25.127z
		 M8.169,16.956h4.141v0.359H8.169V16.956z M3.4,19.315h15.937v2.611h-2.848c-0.421-1.245-1.587-2.149-2.971-2.149
		s-2.551,0.905-2.971,2.149H9.933c-0.421-1.245-1.587-2.149-2.971-2.149s-2.551,0.905-2.971,2.149H3.4V19.315z M6.962,24.076
		c-0.634,0-1.149-0.516-1.149-1.149s0.516-1.149,1.149-1.149s1.149,0.516,1.149,1.149S7.596,24.076,6.962,24.076z M13.518,24.076
		c-0.634,0-1.149-0.516-1.149-1.149s0.516-1.149,1.149-1.149s1.149,0.516,1.149,1.149S14.151,24.076,13.518,24.076z M24.93,24.076
		c-0.633,0-1.148-0.516-1.148-1.149s0.516-1.149,1.148-1.149c0.634,0,1.149,0.516,1.149,1.149S25.563,24.076,24.93,24.076z
		 M27.901,21.927c-0.421-1.245-1.587-2.149-2.971-2.149s-2.55,0.905-2.97,2.149h-0.622v-3.611v-5.937v-1.784
		c0-0.464,0.377-0.841,0.841-0.841h5.505c0.464,0,0.841,0.377,0.841,0.841v11.333H27.901z"/>
	<path fill="#455B65" d="M27.509,10.633h-5.141c-0.276,0-0.5,0.224-0.5,0.5v5.141c0,0.276,0.224,0.5,0.5,0.5h5.141
		c0.276,0,0.5-0.224,0.5-0.5v-5.141C28.009,10.856,27.785,10.633,27.509,10.633z M27.009,15.773h-4.141v-4.141h4.141V15.773z"/>
</g>
</svg>
