<?xml version="1.0" encoding="utf-8"?>
<!-- Generator: Adobe Illustrator 19.1.0, SVG Export Plug-In . SVG Version: 6.00 Build 0)  -->
<svg version="1.1" id="Layer_1" xmlns="http://www.w3.org/2000/svg" xmlns:xlink="http://www.w3.org/1999/xlink" x="0px" y="0px"
	 viewBox="0 0 32 32" enable-background="new 0 0 32 32" xml:space="preserve">
<g>
	<path fill="#455B65" d="M29.716,2.144c-0.146-0.389-0.52-0.646-0.935-0.646h-8.269c-0.064,0-0.127,0.006-0.188,0.018
		c-0.062-0.012-0.125-0.018-0.189-0.018h-8.27c-0.064,0-0.128,0.006-0.189,0.018c-0.062-0.012-0.124-0.018-0.188-0.018H3.219
		c-0.415,0-0.788,0.257-0.935,0.646C2.169,2.446-0.494,9.594,2.165,13.447c0.198,0.287,0.427,0.539,0.669,0.775v15.28
		c0,0.552,0.447,1,1,1h24.481c0.553,0,1-0.448,1-1V14.078c0.186-0.196,0.362-0.403,0.52-0.631
		C32.494,9.594,29.831,2.446,29.716,2.144z M28.187,12.313c-0.163,0.237-0.357,0.439-0.573,0.619
		c-0.062,0.052-0.137,0.092-0.204,0.139c-0.153,0.109-0.316,0.208-0.493,0.292c-0.104,0.049-0.215,0.092-0.327,0.133
		c-0.174,0.063-0.36,0.115-0.554,0.158c-0.115,0.026-0.227,0.055-0.349,0.074c-0.324,0.049-0.665,0.082-1.041,0.082
		c-0.383,0-0.732-0.032-1.061-0.083c-0.083-0.013-0.157-0.036-0.237-0.052c-0.032-0.006-0.061-0.015-0.092-0.022
		c-0.203-0.045-0.401-0.096-0.582-0.164c-0.061-0.023-0.118-0.051-0.177-0.076c-0.059-0.026-0.115-0.055-0.172-0.083
		c-0.148-0.074-0.29-0.153-0.421-0.245c-0.029-0.02-0.058-0.042-0.086-0.063c-0.076-0.057-0.147-0.118-0.217-0.182
		c-0.014-0.012-0.025-0.027-0.038-0.04c0.003-0.006,0.004-0.013,0.007-0.019c0.164-0.326,0.299-0.667,0.407-1.022
		c0.027-0.089,0.046-0.181,0.07-0.271c0.069-0.261,0.127-0.525,0.171-0.796c0.023-0.139,0.045-0.277,0.062-0.418
		c0.029-0.243,0.047-0.488,0.059-0.735c0.012-0.237,0.018-0.472,0.017-0.71c-0.001-0.223-0.003-0.446-0.015-0.667
		c-0.01-0.199-0.026-0.393-0.044-0.59c-0.015-0.17-0.033-0.338-0.052-0.505c-0.022-0.187-0.043-0.371-0.07-0.554
		c-0.046-0.307-0.096-0.608-0.152-0.897c-0.025-0.128-0.052-0.247-0.078-0.371c-0.049-0.23-0.098-0.451-0.149-0.663
		c-0.021-0.087-0.041-0.171-0.063-0.256c-0.075-0.298-0.15-0.581-0.222-0.829h6.559C28.771,5.671,29.728,10.085,28.187,12.313z
		 M14.902,13.724c-0.104-0.017-0.192-0.048-0.291-0.07c-0.084-0.019-0.161-0.045-0.241-0.068c-0.132-0.037-0.272-0.065-0.394-0.113
		c-0.105-0.041-0.198-0.094-0.296-0.143c-0.107-0.053-0.207-0.115-0.305-0.177c-0.051-0.033-0.109-0.058-0.158-0.094
		c-0.092-0.067-0.177-0.142-0.261-0.218c-0.1-0.091-0.192-0.191-0.28-0.295c-0.061-0.072-0.135-0.128-0.191-0.206
		c-0.17-0.24-0.31-0.509-0.426-0.801c-0.005-0.012-0.01-0.024-0.015-0.036c-0.114-0.295-0.201-0.614-0.266-0.951
		c-0.002-0.012-0.005-0.024-0.007-0.036c-0.063-0.337-0.102-0.692-0.121-1.06c-0.001-0.018-0.002-0.035-0.003-0.053
		c-0.017-0.36-0.014-0.732,0.005-1.112c0.002-0.035,0.004-0.07,0.006-0.105c0.021-0.365,0.057-0.737,0.107-1.111
		c0.006-0.047,0.013-0.094,0.02-0.141c0.053-0.377,0.117-0.756,0.194-1.133c0.005-0.024,0.01-0.048,0.015-0.071
		c0.159-0.768,0.363-1.522,0.59-2.233h6.831c0.227,0.711,0.432,1.465,0.591,2.234c0.005,0.023,0.009,0.046,0.014,0.07
		c0.077,0.377,0.141,0.756,0.194,1.134c0.007,0.047,0.013,0.094,0.02,0.141c0.049,0.374,0.086,0.746,0.107,1.111
		c0.002,0.035,0.004,0.07,0.006,0.105c0.019,0.379,0.022,0.752,0.005,1.112c-0.001,0.018-0.002,0.035-0.003,0.053
		c-0.019,0.368-0.059,0.723-0.121,1.06c-0.002,0.012-0.005,0.023-0.007,0.035c-0.064,0.337-0.152,0.656-0.266,0.951
		c-0.005,0.012-0.01,0.024-0.015,0.036c-0.115,0.292-0.256,0.561-0.426,0.801c-0.057,0.08-0.133,0.138-0.195,0.211
		c-0.086,0.101-0.176,0.199-0.274,0.288c-0.084,0.077-0.169,0.152-0.262,0.219c-0.055,0.04-0.12,0.069-0.179,0.106
		c-0.092,0.058-0.184,0.115-0.283,0.164c-0.098,0.049-0.192,0.103-0.298,0.144c-0.126,0.049-0.272,0.079-0.409,0.117
		c-0.075,0.021-0.146,0.046-0.225,0.063c-0.099,0.022-0.188,0.054-0.292,0.07c-0.339,0.055-0.702,0.087-1.098,0.087
		S15.241,13.778,14.902,13.724z M3.93,3.498h6.559c-0.072,0.248-0.147,0.531-0.222,0.829c-0.021,0.084-0.042,0.169-0.063,0.256
		c-0.051,0.212-0.1,0.433-0.149,0.663c-0.026,0.124-0.053,0.243-0.078,0.371C9.921,5.906,9.87,6.206,9.825,6.514
		c-0.027,0.183-0.048,0.367-0.07,0.554c-0.02,0.167-0.037,0.335-0.052,0.505C9.684,7.77,9.668,7.964,9.658,8.163
		C9.646,8.385,9.644,8.607,9.643,8.831c-0.001,0.238,0.004,0.473,0.017,0.71c0.012,0.247,0.031,0.492,0.059,0.735
		c0.017,0.141,0.039,0.279,0.062,0.418c0.044,0.27,0.102,0.535,0.171,0.796c0.024,0.09,0.042,0.182,0.07,0.271
		c0.108,0.354,0.243,0.696,0.407,1.022c0.003,0.006,0.004,0.013,0.007,0.019c-0.013,0.013-0.024,0.028-0.038,0.04
		c-0.07,0.063-0.141,0.125-0.217,0.182c-0.028,0.021-0.057,0.043-0.086,0.063c-0.131,0.091-0.273,0.171-0.421,0.245
		c-0.057,0.028-0.113,0.057-0.172,0.083c-0.059,0.025-0.115,0.053-0.177,0.076c-0.181,0.068-0.379,0.118-0.582,0.164
		c-0.031,0.007-0.06,0.016-0.091,0.022c-0.08,0.016-0.153,0.039-0.237,0.052c-0.329,0.051-0.678,0.083-1.061,0.083
		c-0.368,0-0.7-0.034-1.018-0.081c-0.124-0.019-0.24-0.045-0.357-0.071c-0.185-0.04-0.359-0.092-0.525-0.15
		c-0.119-0.042-0.24-0.082-0.35-0.134c-0.193-0.09-0.37-0.198-0.535-0.317c-0.036-0.026-0.08-0.045-0.115-0.072
		c-0.012-0.009-0.026-0.014-0.038-0.022c-0.229-0.186-0.43-0.402-0.602-0.651C2.272,10.085,3.229,5.671,3.93,3.498z M13.167,28.502
		H7.333V17.831h5.834V28.502z M27.315,15.378v13.124H14.167V17.331c0-0.276-0.224-0.5-0.5-0.5H6.833c-0.276,0-0.5,0.224-0.5,0.5
		v11.171H4.834V15.428c0.349,0.118,0.723,0.206,1.117,0.269c0.06,0.01,0.121,0.017,0.182,0.025c0.389,0.053,0.791,0.088,1.221,0.088
		c0.403,0,0.781-0.032,1.147-0.078c0.084-0.011,0.168-0.021,0.25-0.034c0.353-0.056,0.692-0.13,1.01-0.23
		c0.04-0.013,0.077-0.03,0.117-0.044c0.285-0.097,0.554-0.215,0.81-0.349c0.061-0.032,0.124-0.062,0.183-0.096
		c0.27-0.156,0.524-0.331,0.758-0.53c0.015-0.013,0.034-0.021,0.048-0.034c0.004,0.003,0.009,0.005,0.013,0.009
		c0.245,0.212,0.514,0.396,0.799,0.56c0.049,0.028,0.1,0.054,0.15,0.081c0.281,0.149,0.575,0.281,0.893,0.385
		c0.013,0.004,0.025,0.01,0.038,0.014c0.324,0.104,0.671,0.178,1.032,0.235c0.081,0.013,0.164,0.024,0.247,0.035
		c0.368,0.047,0.747,0.078,1.152,0.078c0.404,0,0.784-0.032,1.152-0.078c0.083-0.011,0.166-0.022,0.248-0.035
		c0.36-0.057,0.707-0.132,1.031-0.235c0.014-0.005,0.027-0.011,0.041-0.016c0.315-0.104,0.608-0.235,0.888-0.383
		c0.051-0.027,0.104-0.054,0.154-0.083c0.285-0.163,0.553-0.347,0.798-0.559c0.004-0.003,0.009-0.005,0.013-0.009
		c0.015,0.013,0.034,0.021,0.048,0.034c0.234,0.199,0.488,0.375,0.758,0.531c0.059,0.034,0.122,0.064,0.183,0.096
		c0.256,0.134,0.524,0.252,0.81,0.349c0.04,0.014,0.076,0.031,0.117,0.044c0.318,0.101,0.657,0.174,1.01,0.231
		c0.082,0.013,0.166,0.024,0.25,0.034c0.367,0.046,0.745,0.078,1.148,0.078c0.461,0,0.891-0.039,1.305-0.1
		c0.056-0.008,0.115-0.014,0.17-0.024c0.404-0.068,0.783-0.167,1.139-0.295C27.278,15.386,27.298,15.384,27.315,15.378z"/>
	<path fill="#455B65" d="M25.358,16.869c-0.061-0.025-0.126-0.038-0.191-0.038h-8.991c-0.276,0-0.5,0.224-0.5,0.5v8.991
		c0,0.276,0.224,0.5,0.5,0.5h8.991c0.276,0,0.5-0.224,0.5-0.5v-8.991c0-0.065-0.013-0.13-0.038-0.191
		C25.578,17.017,25.48,16.92,25.358,16.869z M23.246,25.821l0.651-0.651c0.195-0.195,0.195-0.512,0-0.707s-0.512-0.195-0.707,0
		l-1.357,1.358h-5.156v-0.489l1.088-1.087c0.195-0.195,0.195-0.512,0-0.707s-0.512-0.195-0.707,0l-0.381,0.381v-6.088h7.284
		l-1.764,1.764c-0.195,0.195-0.195,0.512,0,0.707c0.098,0.098,0.226,0.146,0.354,0.146s0.256-0.049,0.354-0.146l1.764-1.764v7.284
		H23.246z"/>
	<path fill="#455B65" d="M22.08,18.286c-0.195-0.195-0.512-0.195-0.707,0l-1.837,1.836c-0.195,0.195-0.195,0.512,0,0.707
		c0.098,0.098,0.226,0.146,0.354,0.146s0.256-0.049,0.354-0.146l1.837-1.836C22.275,18.797,22.275,18.481,22.08,18.286z"/>
	<path fill="#455B65" d="M11.977,25.008c0.276,0,0.5-0.224,0.5-0.5v-1.55c0-0.276-0.224-0.5-0.5-0.5s-0.5,0.224-0.5,0.5v1.55
		C11.477,24.785,11.7,25.008,11.977,25.008z"/>
</g>
</svg>
