<?xml version="1.0" encoding="utf-8"?>
<!-- Generator: Adobe Illustrator 19.1.0, SVG Export Plug-In . SVG Version: 6.00 Build 0)  -->
<svg version="1.1" id="Layer_1" xmlns="http://www.w3.org/2000/svg" xmlns:xlink="http://www.w3.org/1999/xlink" x="0px" y="0px"
	 viewBox="0 0 32 32" enable-background="new 0 0 32 32" xml:space="preserve">
<g>
	<path fill="#455B65" d="M10.078,27.609H6.131c-0.276,0-0.5,0.224-0.5,0.5s0.224,0.5,0.5,0.5h3.947c0.276,0,0.5-0.224,0.5-0.5
		S10.354,27.609,10.078,27.609z"/>
	<path fill="#455B65" d="M10.078,25.918H7.808c-0.276,0-0.5,0.224-0.5,0.5s0.224,0.5,0.5,0.5h2.271c0.276,0,0.5-0.224,0.5-0.5
		S10.354,25.918,10.078,25.918z"/>
	<path fill="#455B65" d="M17.974,27.609h-3.947c-0.276,0-0.5,0.224-0.5,0.5s0.224,0.5,0.5,0.5h3.947c0.276,0,0.5-0.224,0.5-0.5
		S18.25,27.609,17.974,27.609z"/>
	<path fill="#455B65" d="M14.864,25.918c-0.276,0-0.5,0.224-0.5,0.5s0.224,0.5,0.5,0.5h2.271c0.276,0,0.5-0.224,0.5-0.5
		s-0.224-0.5-0.5-0.5H14.864z"/>
	<path fill="#455B65" d="M14.694,20.599h2.611c0.276,0,0.5-0.224,0.5-0.5v-7.592c0-0.276-0.224-0.5-0.5-0.5h-2.611
		c-0.276,0-0.5,0.224-0.5,0.5v7.592C14.194,20.375,14.418,20.599,14.694,20.599z M15.194,13.007h1.611v6.592h-1.611V13.007z"/>
	<path fill="#455B65" d="M27.844,3h-7.896c-0.553,0-1,0.448-1,1v1.5h-5.896V1.241c0-0.552-0.447-1-1-1H4.156c-0.553,0-1,0.448-1,1
		v29.518c0,0.552,0.447,1,1,1h7.896h7.896h7.896c0.553,0,1-0.448,1-1V4C28.844,3.448,28.396,3,27.844,3z M20.948,6.5V5h5.896v6.75
		h-5.896V6.5z M5.156,11.09h5.896v1.611H5.156V11.09z M11.052,2.241V3.5H8.104c-0.276,0-0.5,0.224-0.5,0.5s0.224,0.5,0.5,0.5h2.947
		v2v3.59H5.156V2.241H11.052z M5.156,13.701h5.896v16.058H5.156V13.701z M13.052,7.5h5.896v22.259h-5.896V7.5z M20.948,29.759V12.75
		h5.896v10.875h-2.948c-0.276,0-0.5,0.224-0.5,0.5s0.224,0.5,0.5,0.5h2.948v2.984h-2.948c-0.276,0-0.5,0.224-0.5,0.5
		s0.224,0.5,0.5,0.5h2.948v1.149H20.948z"/>
	<path fill="#455B65" d="M24.741,5.774c-0.276,0-0.5,0.224-0.5,0.5v3.948c0,0.276,0.224,0.5,0.5,0.5s0.5-0.224,0.5-0.5V6.274
		C25.241,5.998,25.018,5.774,24.741,5.774z"/>
	<path fill="#455B65" d="M23.05,5.774c-0.276,0-0.5,0.224-0.5,0.5v2.271c0,0.276,0.224,0.5,0.5,0.5s0.5-0.224,0.5-0.5V6.274
		C23.55,5.998,23.326,5.774,23.05,5.774z"/>
</g>
</svg>
