<?xml version="1.0" encoding="utf-8"?>
<!-- Generator: Adobe Illustrator 19.1.0, SVG Export Plug-In . SVG Version: 6.00 Build 0)  -->
<svg version="1.1" id="Layer_1" xmlns="http://www.w3.org/2000/svg" xmlns:xlink="http://www.w3.org/1999/xlink" x="0px" y="0px"
	 viewBox="0 0 32 32" enable-background="new 0 0 32 32" xml:space="preserve">
<g>
	<path fill="#455B65" d="M16,0.938C7.694,0.938,0.937,7.694,0.937,16S7.694,31.063,16,31.063S31.062,24.306,31.062,16
		S24.306,0.938,16,0.938z M28.037,15.5c-0.051-1.237-0.287-2.424-0.685-3.539l1.845-0.771c0.495,1.353,0.787,2.8,0.84,4.31H28.037z
		 M24.862,7.845l1.413-1.413c1.047,1.123,1.913,2.413,2.55,3.831l-1.846,0.771C26.446,9.857,25.727,8.784,24.862,7.845z
		 M24.155,7.138c-0.936-0.862-2.004-1.578-3.176-2.112l0.761-1.851c1.417,0.637,2.706,1.503,3.829,2.549L24.155,7.138z M20.05,4.652
		c-1.118-0.4-2.309-0.638-3.55-0.689v-2c1.51,0.053,2.957,0.345,4.31,0.84L20.05,4.652z M16,4.938C22.1,4.938,27.062,9.9,27.062,16
		S22.1,27.063,16,27.063S4.937,22.1,4.937,16S9.9,4.938,16,4.938z M16,30.063C8.246,30.063,1.937,23.754,1.937,16
		c0-7.585,6.041-13.771,13.563-14.037v2C9.081,4.228,3.937,9.517,3.937,16c0,6.651,5.411,12.063,12.063,12.063
		c6.483,0,11.772-5.144,12.037-11.563h2C29.771,24.021,23.585,30.063,16,30.063z"/>
	<path fill="#455B65" d="M10.525,15.499h10.949c0.553,0,1-0.447,1-1s-0.447-1-1-1H10.525c-0.553,0-1,0.447-1,1
		S9.973,15.499,10.525,15.499z"/>
	<path fill="#455B65" d="M19.625,16.501h-7.25c-0.553,0-1,0.447-1,1s0.447,1,1,1h7.25c0.553,0,1-0.447,1-1
		S20.178,16.501,19.625,16.501z"/>
</g>
</svg>
