<?xml version="1.0" encoding="utf-8"?>
<!-- Generator: Adobe Illustrator 19.1.0, SVG Export Plug-In . SVG Version: 6.00 Build 0)  -->
<svg version="1.1" id="Layer_1" xmlns="http://www.w3.org/2000/svg" xmlns:xlink="http://www.w3.org/1999/xlink" x="0px" y="0px"
	 viewBox="0 0 32 32" enable-background="new 0 0 32 32" xml:space="preserve">
<g>
	<path fill="#455B65" d="M29.374,4.456c-0.188-0.188-0.442-0.293-0.707-0.293H3.333c-0.552,0-1,0.447-1,1v5.613
		c0,1.33,0.861,2.452,2.051,2.869v13.192c0,0.553,0.448,1,1,1h21.231c0.552,0,1-0.447,1-1V13.645c1.19-0.416,2.05-1.538,2.05-2.869
		l0-5.613C29.667,4.898,29.561,4.644,29.374,4.456z M25.616,25.837H6.384v-12.01h19.231V25.837z M27.666,9.933v0.844
		c0,0.579-0.471,1.051-1.05,1.051H5.384c-0.58,0-1.051-0.472-1.051-1.051V6.163h23.333L27.666,9.933z"/>
	<path fill="#455B65" d="M13.125,18.626h5.75c0.896,0,1.625-0.729,1.625-1.625s-0.729-1.625-1.625-1.625h-5.75
		c-0.896,0-1.625,0.729-1.625,1.625S12.229,18.626,13.125,18.626z M13.125,16.376h5.75c0.345,0,0.625,0.28,0.625,0.625
		s-0.28,0.625-0.625,0.625h-5.75c-0.345,0-0.625-0.28-0.625-0.625S12.78,16.376,13.125,16.376z"/>
</g>
</svg>
