<?xml version="1.0" encoding="utf-8"?>
<!-- Generator: Adobe Illustrator 19.1.0, SVG Export Plug-In . SVG Version: 6.00 Build 0)  -->
<svg version="1.1" id="Layer_1" xmlns="http://www.w3.org/2000/svg" xmlns:xlink="http://www.w3.org/1999/xlink" x="0px" y="0px"
	 viewBox="0 0 32 32" enable-background="new 0 0 32 32" xml:space="preserve">
<g>
	<g>
		<g>
			<g>
				<path fill="#455B65" d="M25.273,11.04l-4.151-7.189c-0.178-0.309-0.508-0.5-0.866-0.5H16.5V0.649c0-0.276-0.224-0.5-0.5-0.5
					s-0.5,0.224-0.5,0.5v2.702h-3.756c-0.357,0-0.688,0.19-0.866,0.5l-4.149,7.187c-0.174,0.185-0.271,0.43-0.271,0.684l0,19.129
					c0,0.265,0.105,0.519,0.293,0.707c0.188,0.188,0.442,0.293,0.707,0.293l17.083,0c0.276,0,0.526-0.112,0.707-0.293
					c0.181-0.181,0.293-0.431,0.293-0.707l0-19.128C25.542,11.459,25.439,11.219,25.273,11.04z M23.542,29.851l-15.083,0l0-17.809
					l3.863-6.692H15.5v1.821c-0.86,0.224-1.5,1-1.5,1.929c0,1.102,0.898,2,2,2c0.551,0,1.052-0.224,1.414-0.586
					C17.776,10.153,18,9.652,18,9.101c0-0.929-0.64-1.705-1.5-1.929V5.351h3.178l3.863,6.691V29.851z M16,9.601
					c0.276,0,0.5-0.224,0.5-0.5V8.255C16.793,8.43,17,8.736,17,9.101c0.001,0.551-0.447,1-1,1c-0.551,0-1-0.449-1-1
					c0-0.276,0.113-0.526,0.293-0.706c0.059-0.059,0.135-0.097,0.207-0.14v0.846C15.5,9.377,15.724,9.601,16,9.601z"/>
			</g>
		</g>
	</g>
	<path fill="#455B65" d="M18.716,20.384c-0.265-0.242-0.566-0.428-0.902-0.556c-0.336-0.128-0.788-0.27-1.355-0.425V16.55
		c0.576,0.188,0.94,0.567,1.091,1.139c0.133,0.485,0.423,0.727,0.871,0.727c0.238,0,0.44-0.083,0.607-0.25
		c0.167-0.167,0.25-0.365,0.25-0.593c0-0.206-0.056-0.432-0.168-0.679c-0.112-0.247-0.271-0.487-0.477-0.72
		c-0.261-0.306-0.566-0.535-0.916-0.686c-0.35-0.151-0.769-0.252-1.259-0.302v-0.741c0-0.375-0.146-0.562-0.439-0.562
		c-0.288,0-0.432,0.192-0.432,0.576v0.727c-0.947,0.082-1.67,0.375-2.171,0.878s-0.751,1.148-0.751,1.934
		c0,0.604,0.128,1.097,0.384,1.482c0.256,0.384,0.59,0.68,1.001,0.888s0.924,0.397,1.536,0.566v3.189
		c-0.306-0.087-0.552-0.213-0.737-0.377c-0.185-0.165-0.324-0.346-0.415-0.545c-0.091-0.199-0.199-0.486-0.322-0.861
		c-0.055-0.174-0.153-0.309-0.295-0.405c-0.142-0.096-0.315-0.144-0.521-0.144c-0.256,0-0.47,0.088-0.641,0.264
		c-0.172,0.176-0.257,0.374-0.257,0.593c0,0.297,0.064,0.6,0.192,0.909c0.128,0.309,0.326,0.606,0.593,0.892
		c0.268,0.286,0.601,0.525,1.001,0.717c0.4,0.192,0.868,0.318,1.403,0.377v1.852c0,0.21,0.033,0.366,0.099,0.466
		c0.066,0.101,0.182,0.151,0.346,0.151c0.178,0,0.294-0.062,0.346-0.185c0.053-0.123,0.079-0.32,0.079-0.59v-1.708
		c0.654-0.055,1.219-0.226,1.694-0.514c0.476-0.288,0.836-0.66,1.08-1.115c0.245-0.455,0.367-0.943,0.367-1.464
		c0-0.416-0.077-0.799-0.23-1.149C19.218,20.936,19,20.636,18.716,20.384z M15.588,19.15c-0.411-0.151-0.718-0.319-0.919-0.504
		c-0.201-0.185-0.302-0.458-0.302-0.82c0-0.38,0.107-0.663,0.322-0.851c0.215-0.187,0.514-0.338,0.898-0.453V19.15z M17.53,23.635
		c-0.252,0.279-0.608,0.464-1.07,0.556v-3.004c0.476,0.151,0.836,0.335,1.08,0.552c0.245,0.217,0.367,0.525,0.367,0.923
		C17.907,23.032,17.781,23.356,17.53,23.635z"/>
</g>
</svg>
