<?xml version="1.0" encoding="utf-8"?>
<!-- Generator: Adobe Illustrator 19.1.0, SVG Export Plug-In . SVG Version: 6.00 Build 0)  -->
<svg version="1.1" id="Layer_1" xmlns="http://www.w3.org/2000/svg" xmlns:xlink="http://www.w3.org/1999/xlink" x="0px" y="0px"
	 viewBox="0 0 32 32" enable-background="new 0 0 32 32" xml:space="preserve">
<g>
	<path fill="#455B65" d="M29.647,27.855l-4.396-4.396c0.507-1.015,0.782-2.138,0.782-3.306c0-1.98-0.771-3.84-2.17-5.24
		c-1.399-1.4-3.26-2.171-5.24-2.171c-1.979,0-3.84,0.772-5.24,2.171c-2.889,2.889-2.889,7.589,0,10.479
		c1.445,1.444,3.342,2.167,5.24,2.167c1.135,0,2.267-0.264,3.305-0.78l4.398,4.398c0.458,0.457,1.059,0.686,1.661,0.686
		c0.601,0,1.203-0.229,1.66-0.686c0.442-0.442,0.686-1.033,0.686-1.661C30.333,28.887,30.089,28.298,29.647,27.855z M14.758,24.018
		c-2.131-2.132-2.131-5.6,0-7.731c1.033-1.033,2.405-1.602,3.865-1.602c1.46,0,2.833,0.569,3.865,1.602s1.601,2.405,1.601,3.865
		c0,1.46-0.568,2.833-1.601,3.865C20.358,26.15,16.89,26.151,14.758,24.018z M28.96,30.49c-0.536,0.537-1.41,0.537-1.947,0
		l-4.218-4.218c0.375-0.256,0.734-0.546,1.067-0.879c0.331-0.331,0.623-0.689,0.882-1.066l4.216,4.216
		c0.259,0.258,0.401,0.604,0.401,0.974C29.361,29.885,29.218,30.231,28.96,30.49z"/>
	<path fill="#455B65" d="M23.271,29.589H3.667V2.137h15.739v6.597c0,0.276,0.224,0.5,0.5,0.5H27v14.942c0,0.552,0.448,1,1,1
		s1-0.448,1-1V8.734c0-0.276-0.114-0.54-0.315-0.729l-8.093-7.597c-0.186-0.174-0.43-0.271-0.685-0.271H2.667c-0.552,0-1,0.448-1,1
		v29.452c0,0.552,0.448,1,1,1h20.604c0.552,0,1-0.448,1-1S23.823,29.589,23.271,29.589z M20.407,2.978l5.599,5.256h-5.599V2.978z"/>
	<path fill="#455B65" d="M16.865,5.368H5.708c-0.276,0-0.5,0.224-0.5,0.5s0.224,0.5,0.5,0.5h11.156c0.276,0,0.5-0.224,0.5-0.5
		S17.141,5.368,16.865,5.368z"/>
	<path fill="#455B65" d="M17.365,8.964c0-0.276-0.224-0.5-0.5-0.5H5.708c-0.276,0-0.5,0.224-0.5,0.5s0.224,0.5,0.5,0.5h11.156
		C17.141,9.464,17.365,9.24,17.365,8.964z"/>
	<path fill="#455B65" d="M14.541,12.059c0-0.276-0.224-0.5-0.5-0.5H5.708c-0.276,0-0.5,0.224-0.5,0.5s0.224,0.5,0.5,0.5h8.333
		C14.317,12.559,14.541,12.336,14.541,12.059z"/>
	<path fill="#455B65" d="M10.521,14.656H5.708c-0.276,0-0.5,0.224-0.5,0.5s0.224,0.5,0.5,0.5h4.813c0.276,0,0.5-0.224,0.5-0.5
		S10.797,14.656,10.521,14.656z"/>
	<path fill="#455B65" d="M5.708,18.751h3.749c0.276,0,0.5-0.224,0.5-0.5s-0.224-0.5-0.5-0.5H5.708c-0.276,0-0.5,0.224-0.5,0.5
		S5.432,18.751,5.708,18.751z"/>
	<path fill="#455B65" d="M5.708,21.847h3.749c0.276,0,0.5-0.224,0.5-0.5s-0.224-0.5-0.5-0.5H5.708c-0.276,0-0.5,0.224-0.5,0.5
		S5.432,21.847,5.708,21.847z"/>
	<path fill="#455B65" d="M5.708,24.943h4.813c0.276,0,0.5-0.224,0.5-0.5s-0.224-0.5-0.5-0.5H5.708c-0.276,0-0.5,0.224-0.5,0.5
		S5.432,24.943,5.708,24.943z"/>
	<rect x="14.843" y="22.615" fill="#455B65" width="7.469" height="1"/>
	<rect x="14.832" y="18.426" fill="#455B65" width="2" height="3.469"/>
	<rect x="17.582" y="15.457" fill="#455B65" width="2" height="6.438"/>
	<rect x="20.332" y="17.113" fill="#455B65" width="2" height="4.781"/>
</g>
</svg>
