<?xml version="1.0" encoding="utf-8"?>
<!-- Generator: Adobe Illustrator 19.1.0, SVG Export Plug-In . SVG Version: 6.00 Build 0)  -->
<svg version="1.1" id="Layer_1" xmlns="http://www.w3.org/2000/svg" xmlns:xlink="http://www.w3.org/1999/xlink" x="0px" y="0px"
	 viewBox="0 0 32 32" enable-background="new 0 0 32 32" xml:space="preserve">
<g>
	<path fill="#455B65" d="M31.655,14.887c-0.154-0.375-0.52-0.619-0.925-0.619h-2.736c-0.434-0.598-1.199-1.589-1.919-2.202
		c-0.004-0.087-0.01-0.171-0.015-0.252c-0.037-0.545-0.058-0.846,0.344-1.263c0.279-0.289,0.357-0.716,0.201-1.085
		s-0.519-0.609-0.92-0.609c-0.463,0-2.11,0.322-3.616,1.502c-0.33-0.08-0.804-0.184-1.395-0.291c0.124-0.398,0.197-0.81,0.197-1.234
		c0-2.346-1.908-4.254-4.254-4.254s-4.254,1.908-4.254,4.254c0,0.362,0.058,0.717,0.148,1.063c-1.133,0.188-2.273,0.486-3.369,0.938
		c-2.471,1.02-3.742,3.121-4.139,5.38l-0.546,0.001c-0.197,0.016-0.408,0.009-0.613-0.021c0.609-0.772,0.867-1.771,0.639-2.727
		c-0.124-0.516-0.49-0.897-0.979-1.021c-0.625-0.16-1.188,0.015-1.578,0.493c-0.622,0.763-0.644,2.141-0.274,2.9
		c0.097,0.199,0.219,0.373,0.358,0.524c-0.418,0.18-0.908,0.307-1.493,0.385c-0.273,0.037-0.465,0.289-0.429,0.563
		c0.034,0.251,0.249,0.433,0.495,0.433c0.022,0,0.044-0.001,0.067-0.004c0.757-0.102,1.389-0.278,1.933-0.539
		c0.131-0.063,0.256-0.132,0.376-0.208c0.515,0.201,1.075,0.258,1.537,0.222h0.395c-0.067,1.03,0.028,2.065,0.267,3.02
		c0.398,1.588,1.113,2.702,1.977,3.159v1.002c-0.027,0.31-0.043,1.242,0.628,2.021c0.575,0.667,1.448,1.005,2.549,1.005
		c0.025-0.001,0.059,0.002,0.117,0.002c0.382,0,1.556-0.07,2.399-0.874c0.215-0.205,0.444-0.515,0.612-0.927
		c0.727,0.121,1.785,0.249,3.057,0.249c0.912,0,1.928-0.068,2.995-0.25c0.168,0.412,0.397,0.722,0.612,0.927
		c0.848,0.809,2.03,0.875,2.373,0.875c0.046,0,0.078-0.001,0.09-0.002c1.151,0,2.026-0.338,2.602-1.006
		c0.667-0.772,0.656-1.697,0.628-2.013l0-0.017c1.158-0.317,3.288-1.175,5.63-3.464c0.086-0.084,0.156-0.184,0.207-0.292
		C32.034,19.773,31.983,15.685,31.655,14.887z M2.863,15.793C2.733,15.685,2.625,15.555,2.55,15.4
		c-0.221-0.454-0.195-1.407,0.15-1.831c0.076-0.094,0.179-0.182,0.364-0.182c0.056,0,0.12,0.008,0.193,0.027
		c0.13,0.033,0.215,0.129,0.253,0.285C3.687,14.444,3.425,15.233,2.863,15.793z M14.529,9.673c-0.11-0.267-0.167-0.551-0.167-0.841
		c0-1.243,1.011-2.254,2.254-2.254c1.243,0,2.254,1.011,2.254,2.254c0,0.373-0.095,0.69-0.219,0.947
		c-1.212-0.129-2.616-0.195-4.095-0.107C14.548,9.673,14.538,9.673,14.529,9.673z M29.847,19.665
		c-2.795,2.647-5.105,2.905-5.12,2.907c-0.515,0.042-0.913,0.468-0.919,0.984l-0.011,0.877c0,0.039,0.004,0.101,0.008,0.14
		c0,0.003,0.032,0.332-0.158,0.543c-0.176,0.196-0.56,0.304-1.12,0.305c-0.185-0.003-0.757-0.043-1.048-0.325
		c-0.093-0.09-0.216-0.255-0.216-0.65v-0.877c0-0.552-0.448-1-1-1s-1,0.448-1,1v0.061c-2.383,0.422-4.517,0.184-5.596-0.001v-0.06
		c0-0.552-0.448-1-1-1s-1,0.448-1,1v0.877c0,0.395-0.124,0.56-0.216,0.65c-0.291,0.282-0.862,0.329-1.087,0.324
		c-0.52,0-0.904-0.108-1.08-0.304c-0.186-0.206-0.16-0.524-0.161-0.524c0,0,0,0,0,0c0.007-0.049,0.011-0.098,0.011-0.146v-1.824
		c0-0.035,0.015-0.066,0.011-0.101c-0.001-0.014-0.009-0.024-0.011-0.038v-1.766c0-0.552-0.448-1-1-1
		c-0.387,0-0.713,0.227-0.879,0.549c-0.198-0.575-0.357-1.303-0.384-2.171c-0.039-1.234,0.179-4.232,3.035-5.411
		c1.464-0.604,3.044-0.888,4.567-0.992c0.211-0.015,0.421-0.03,0.636-0.039c0.197-0.007,0.39-0.008,0.583-0.009
		c0.169-0.002,0.338-0.003,0.51-0.001c0.204,0.003,0.405,0.009,0.604,0.017c0.175,0.007,0.351,0.017,0.528,0.028
		c0.188,0.012,0.378,0.022,0.559,0.038c0.32,0.027,0.644,0.061,0.97,0.101c0.629,0.077,1.182,0.167,1.651,0.254
		c-0.035,0.056-0.077,0.099-0.112,0.156c-0.282,0.475-0.125,1.089,0.349,1.371c0.476,0.283,1.089,0.125,1.371-0.349
		c0.529-0.891,1.257-1.469,1.922-1.834c0,0.192,0.012,0.369,0.022,0.527c0.013,0.186,0.024,0.36,0.008,0.472
		c-0.058,0.409,0.141,0.812,0.502,1.014c0.437,0.245,1.417,1.435,2.076,2.397c0.187,0.272,0.496,0.436,0.826,0.436h2.403
		C29.951,17.292,29.939,19.083,29.847,19.665z"/>
	<path fill="#455B65" d="M23.381,14.964c-1.183,0-2.146,0.848-2.146,1.889c0,0.276,0.224,0.5,0.5,0.5s0.5-0.224,0.5-0.5
		c0-0.49,0.514-0.889,1.146-0.889s1.146,0.399,1.146,0.889c0,0.276,0.224,0.5,0.5,0.5s0.5-0.224,0.5-0.5
		C25.526,15.812,24.564,14.964,23.381,14.964z"/>
</g>
</svg>
