<?xml version="1.0" encoding="utf-8"?>
<!-- Generator: Adobe Illustrator 19.1.0, SVG Export Plug-In . SVG Version: 6.00 Build 0)  -->
<svg version="1.1" id="Layer_1" xmlns="http://www.w3.org/2000/svg" xmlns:xlink="http://www.w3.org/1999/xlink" x="0px" y="0px"
	 viewBox="0 0 32 32" enable-background="new 0 0 32 32" xml:space="preserve">
<path fill="#455B65" d="M29.456,1.241L1.794,12.447c-0.001,0-0.002,0-0.002,0c-0.001,0-0.001,0-0.001,0s-0.001,0-0.002,0
	c-0.231,0.095-0.408,0.267-0.513,0.475v0c-0.001,0-0.001,0-0.001,0c-0.024,0.049-0.045,0.1-0.062,0.153
	c-0.064,0.207-0.063,0.435,0.02,0.651c0.001,0,0.001,0,0.001,0s0,0,0,0.001c0.004,0.009,0.007,0.018,0.011,0.026c0,0,0,0,0,0.001
	c0.087,0.209,0.236,0.374,0.418,0.479L11.72,20.28l6.044,10.057c0.104,0.179,0.265,0.326,0.469,0.413
	c0.016,0.007,0.032,0.014,0.049,0.02c0.113,0.042,0.229,0.062,0.345,0.062c0.1,0,0.198-0.015,0.292-0.044
	c0.058-0.018,0.113-0.041,0.167-0.068c0.202-0.104,0.37-0.278,0.465-0.505c-0.001-0.006,0.001-0.003,0.001-0.003
	s0.001-0.001,0.001-0.002s0.001-0.002,0.001-0.002L30.758,2.544c0.049-0.122,0.073-0.249,0.073-0.375
	c0-0.261-0.102-0.517-0.293-0.708C30.253,1.176,29.824,1.091,29.456,1.241z M4.402,13.548l22.428-9.086L12.735,18.557L4.402,13.548z
	 M18.451,27.599l-5.009-8.335L27.536,5.17L18.451,27.599z"/>
</svg>
