<?xml version="1.0" encoding="utf-8"?>
<!-- Generator: Adobe Illustrator 19.1.0, SVG Export Plug-In . SVG Version: 6.00 Build 0)  -->
<svg version="1.1" id="Layer_1" xmlns="http://www.w3.org/2000/svg" xmlns:xlink="http://www.w3.org/1999/xlink" x="0px" y="0px"
	 viewBox="0 0 32 32" enable-background="new 0 0 32 32" xml:space="preserve">
<g>
	<path fill="#455B65" d="M7.109,7.058h10.224c0.276,0,0.5-0.224,0.5-0.5s-0.224-0.5-0.5-0.5H7.109c-0.276,0-0.5,0.224-0.5,0.5
		S6.833,7.058,7.109,7.058z"/>
	<path fill="#455B65" d="M7.109,10.152h13.219c0.276,0,0.5-0.224,0.5-0.5s-0.224-0.5-0.5-0.5H7.109c-0.276,0-0.5,0.224-0.5,0.5
		S6.833,10.152,7.109,10.152z"/>
	<path fill="#455B65" d="M7.109,13.248h13.219c0.276,0,0.5-0.224,0.5-0.5s-0.224-0.5-0.5-0.5H7.109c-0.276,0-0.5,0.224-0.5,0.5
		S6.833,13.248,7.109,13.248z"/>
	<path fill="#455B65" d="M24.891,15.335L24.891,15.335L7.109,15.349c-0.276,0-0.5,0.224-0.5,0.5c0,0.276,0.224,0.5,0.5,0.5h0
		l17.782-0.013c0.276,0,0.5-0.224,0.5-0.5C25.391,15.559,25.167,15.335,24.891,15.335z"/>
	<path fill="#455B65" d="M24.891,18.431L24.891,18.431L7.109,18.443c-0.276,0-0.5,0.224-0.5,0.5c0,0.276,0.224,0.5,0.5,0.5h0
		l17.782-0.013c0.276,0,0.5-0.224,0.5-0.5C25.391,18.654,25.167,18.431,24.891,18.431z"/>
	<path fill="#455B65" d="M24.891,21.525L24.891,21.525L7.109,21.538c-0.276,0-0.5,0.224-0.5,0.5c0,0.276,0.224,0.5,0.5,0.5h0
		l17.782-0.013c0.276,0,0.5-0.224,0.5-0.5C25.391,21.749,25.167,21.525,24.891,21.525z"/>
	<path fill="#455B65" d="M17.708,24.62L17.708,24.62l-10.6,0.013c-0.276,0-0.5,0.225-0.5,0.5s0.224,0.5,0.5,0.5h0l10.599-0.013
		c0.276,0,0.5-0.225,0.5-0.5S17.984,24.62,17.708,24.62z"/>
	<path fill="#455B65" d="M28.667,0.274H3.333c-0.552,0-1,0.448-1,1v29.452c0,0.552,0.448,1,1,1h25.333c0.552,0,1-0.448,1-1V1.274
		C29.667,0.722,29.219,0.274,28.667,0.274z M24.992,9.698v3.552l-0.562-0.398c-0.086-0.062-0.188-0.092-0.289-0.092
		s-0.203,0.031-0.289,0.092L23.29,13.25V9.698c0.054,0.019,0.11,0.027,0.165,0.042c0.069,0.018,0.136,0.04,0.207,0.053
		c0.141,0.026,0.284,0.04,0.428,0.043c0.018,0,0.034,0.005,0.051,0.005s0.034-0.005,0.051-0.005
		c0.144-0.003,0.287-0.017,0.428-0.043c0.071-0.013,0.138-0.034,0.207-0.053C24.881,9.725,24.938,9.716,24.992,9.698z M25.799,7.182
		c0,0.518-0.244,0.976-0.617,1.281c-0.001,0.001-0.004,0.001-0.005,0.002c-0.608,0.492-1.466,0.493-2.073,0
		c-0.002-0.001-0.004-0.001-0.006-0.003c-0.373-0.304-0.617-0.762-0.617-1.28c0-0.915,0.744-1.659,1.659-1.659
		S25.799,6.267,25.799,7.182z M24.141,4.523c-0.299,0-0.582,0.061-0.851,0.152V2.274h1.702v2.401
		C24.723,4.584,24.44,4.523,24.141,4.523z M27.667,29.726H4.333V2.274H22.29V5.28c-0.497,0.483-0.808,1.156-0.808,1.902
		c0,0.746,0.311,1.419,0.808,1.903v5.133c0,0.187,0.104,0.358,0.271,0.444s0.367,0.072,0.519-0.037l1.062-0.753l1.062,0.753
		c0.086,0.061,0.188,0.092,0.289,0.092c0.079,0,0.157-0.019,0.229-0.056c0.166-0.086,0.271-0.257,0.271-0.444V9.084
		c0.497-0.483,0.808-1.156,0.808-1.903c0-0.746-0.311-1.419-0.808-1.902V2.274h1.675V29.726z"/>
</g>
</svg>
