<?xml version="1.0" encoding="utf-8"?>
<!-- Generator: Adobe Illustrator 19.1.0, SVG Export Plug-In . SVG Version: 6.00 Build 0)  -->
<svg version="1.1" id="Layer_1" xmlns="http://www.w3.org/2000/svg" xmlns:xlink="http://www.w3.org/1999/xlink" x="0px" y="0px"
	 viewBox="0 0 32 32" enable-background="new 0 0 32 32" xml:space="preserve">
<path fill="#455B65" d="M31,26.355c-0.553,0-1,0.447-1,1v0.648H4.344v-4.068l4.94-4.378c0.214,0.118,0.456,0.191,0.717,0.191
	c0.245,0,0.473-0.065,0.678-0.169l4.158,4.159c-0.105,0.204-0.169,0.432-0.169,0.677c0,0.827,0.673,1.5,1.5,1.5s1.5-0.673,1.5-1.5
	c0-0.234-0.059-0.453-0.155-0.65l7.328-7.328c0.198,0.096,0.416,0.155,0.65,0.155c0.827,0,1.5-0.673,1.5-1.5s-0.673-1.5-1.5-1.5
	s-1.5,0.673-1.5,1.5c0,0.228,0.055,0.441,0.146,0.635l-7.335,7.335c-0.193-0.091-0.407-0.146-0.635-0.146
	c-0.217,0-0.422,0.048-0.608,0.131l-4.19-4.191c0.083-0.186,0.131-0.391,0.131-0.608c0-0.827-0.673-1.5-1.5-1.5s-1.5,0.673-1.5,1.5
	c0,0.201,0.041,0.392,0.113,0.567L4.344,22.6v-6.898l4.977-4.412c0.205,0.105,0.433,0.17,0.679,0.17c0.231,0,0.447-0.057,0.643-0.15
	l4.195,4.196c-0.093,0.195-0.15,0.412-0.15,0.642c0,0.827,0.673,1.5,1.5,1.5s1.5-0.673,1.5-1.5c0-0.231-0.057-0.447-0.15-0.643
	l7.395-7.395c0.196,0.094,0.412,0.15,0.643,0.15c0.827,0,1.5-0.673,1.5-1.5s-0.673-1.5-1.5-1.5s-1.5,0.673-1.5,1.5
	c0,0.231,0.057,0.447,0.15,0.643l-7.395,7.395c-0.196-0.094-0.412-0.15-0.643-0.15c-0.231,0-0.447,0.057-0.643,0.151l-4.195-4.196
	c0.094-0.195,0.15-0.412,0.15-0.643c0-0.827-0.673-1.5-1.5-1.5s-1.5,0.673-1.5,1.5c0,0.216,0.048,0.42,0.13,0.606l-4.286,3.799
	V2.348h0.648c0.553,0,1-0.447,1-1s-0.447-1-1-1H1.695c-0.553,0-1,0.447-1,1s0.447,1,1,1h0.648v3.109H1c-0.276,0-0.5,0.224-0.5,0.5
	s0.224,0.5,0.5,0.5h1.344v5.146H1c-0.276,0-0.5,0.224-0.5,0.5s0.224,0.5,0.5,0.5h1.344v5.146H1c-0.276,0-0.5,0.224-0.5,0.5
	s0.224,0.5,0.5,0.5h1.344v5.146H1c-0.276,0-0.5,0.224-0.5,0.5s0.224,0.5,0.5,0.5h1.344v4.109c0,0.553,0.447,1,1,1H30v0.648
	c0,0.553,0.447,1,1,1s1-0.447,1-1v-3.297C32,26.803,31.553,26.355,31,26.355z M25.491,14.592c0.276,0,0.5,0.224,0.5,0.5
	c0,0.276-0.224,0.5-0.5,0.5c-0.276,0-0.5-0.224-0.5-0.5C24.991,14.815,25.215,14.592,25.491,14.592z M16.667,24.416
	c0,0.276-0.224,0.5-0.5,0.5c-0.276,0-0.5-0.224-0.5-0.5c0-0.276,0.224-0.5,0.5-0.5C16.443,23.916,16.667,24.139,16.667,24.416z
	 M10,17.749c0.276,0,0.5,0.224,0.5,0.5c0,0.276-0.224,0.5-0.5,0.5c-0.276,0-0.5-0.224-0.5-0.5C9.5,17.973,9.724,17.749,10,17.749z
	 M25.575,6.261c0.276,0,0.5,0.224,0.5,0.5c0,0.276-0.224,0.5-0.5,0.5c-0.276,0-0.5-0.224-0.5-0.5
	C25.075,6.485,25.299,6.261,25.575,6.261z M16.688,16.148c0,0.276-0.224,0.5-0.5,0.5c-0.276,0-0.5-0.224-0.5-0.5
	c0-0.276,0.224-0.5,0.5-0.5C16.464,15.648,16.688,15.872,16.688,16.148z M10,9.46c0.276,0,0.5,0.224,0.5,0.5
	c0,0.276-0.224,0.5-0.5,0.5c-0.276,0-0.5-0.224-0.5-0.5C9.5,9.684,9.724,9.46,10,9.46z"/>
</svg>
