<?xml version="1.0" encoding="utf-8"?>
<!-- Generator: Adobe Illustrator 19.1.0, SVG Export Plug-In . SVG Version: 6.00 Build 0)  -->
<svg version="1.1" id="Layer_1" xmlns="http://www.w3.org/2000/svg" xmlns:xlink="http://www.w3.org/1999/xlink" x="0px" y="0px"
	 viewBox="0 0 32 32" enable-background="new 0 0 32 32" xml:space="preserve">
<path fill="#455B65" d="M24.656,11.679c0.243,0,0.478-0.089,0.66-0.249l3.135-2.756c0.216-0.189,0.34-0.464,0.34-0.751
	s-0.124-0.562-0.34-0.751l-3.135-2.756c-0.183-0.16-0.417-0.249-0.66-0.249h-6.161V2.495C18.495,1.119,17.376,0,16,0
	s-2.495,1.119-2.495,2.495v1.672H7.292c-0.553,0-1,0.447-1,1v5.512c0,0.553,0.447,1,1,1h6.213v1.495H7.344
	c-0.243,0-0.478,0.089-0.66,0.249l-3.135,2.756c-0.216,0.189-0.34,0.464-0.34,0.751s0.124,0.562,0.34,0.751l3.135,2.756
	c0.183,0.16,0.417,0.249,0.66,0.249h6.161V31.5c0,0.276,0.224,0.5,0.5,0.5s0.5-0.224,0.5-0.5V20.686h2.99V31.5
	c0,0.276,0.224,0.5,0.5,0.5s0.5-0.224,0.5-0.5V20.686h6.213c0.553,0,1-0.447,1-1v-5.512c0-0.553-0.447-1-1-1h-6.213v-1.495H24.656z
	 M14.505,2.495C14.505,1.671,15.176,1,16,1s1.495,0.671,1.495,1.495v1.672h-2.99V2.495z M8.292,6.167h15.987l1.997,1.756
	l-1.997,1.756H8.292V6.167z M23.708,18.686H7.721L5.724,16.93l1.997-1.756h15.987V18.686z M17.495,13.174h-2.99v-1.495h2.99V13.174z
	"/>
</svg>
