<?xml version="1.0" encoding="utf-8"?>
<!-- Generator: Adobe Illustrator 19.1.0, SVG Export Plug-In . SVG Version: 6.00 Build 0)  -->
<svg version="1.1" id="Layer_1" xmlns="http://www.w3.org/2000/svg" xmlns:xlink="http://www.w3.org/1999/xlink" x="0px" y="0px"
	 viewBox="0 0 32 32" enable-background="new 0 0 32 32" xml:space="preserve">
<g>
	<g>
		<path fill="#455B65" d="M30.791,26.76H1.209c-0.553,0-1-0.448-1-1V6.24c0-0.552,0.447-1,1-1h29.582c0.553,0,1,0.448,1,1V25.76
			C31.791,26.313,31.344,26.76,30.791,26.76z M2.209,24.76h27.582V7.24H2.209V24.76z"/>
	</g>
	<g>
		<path fill="#455B65" d="M27.625,13.875H24c-0.276,0-0.5-0.224-0.5-0.5V9.75c0-0.276,0.224-0.5,0.5-0.5h3.625
			c0.276,0,0.5,0.224,0.5,0.5v3.625C28.125,13.651,27.901,13.875,27.625,13.875z M24.5,12.875h2.625V10.25H24.5V12.875z"/>
	</g>
	<g>
		<path fill="#455B65" d="M13.594,20.163h-9.5c-0.276,0-0.5-0.224-0.5-0.5s0.224-0.5,0.5-0.5h9.5c0.276,0,0.5,0.224,0.5,0.5
			S13.87,20.163,13.594,20.163z"/>
	</g>
	<g>
		<path fill="#455B65" d="M12.469,23.059H4.094c-0.276,0-0.5-0.224-0.5-0.5s0.224-0.5,0.5-0.5h8.375c0.276,0,0.5,0.224,0.5,0.5
			S12.745,23.059,12.469,23.059z"/>
	</g>
</g>
</svg>
