<?xml version="1.0" encoding="utf-8"?>
<!-- Generator: Adobe Illustrator 19.1.0, SVG Export Plug-In . SVG Version: 6.00 Build 0)  -->
<svg version="1.1" id="Layer_1" xmlns="http://www.w3.org/2000/svg" xmlns:xlink="http://www.w3.org/1999/xlink" x="0px" y="0px"
	 viewBox="0 0 32 32" enable-background="new 0 0 32 32" xml:space="preserve">
<g>
	<path fill="#455B65" d="M19.143,16.092h-1.375c-0.276,0-0.5,0.224-0.5,0.5s0.224,0.5,0.5,0.5h1.375c0.276,0,0.5-0.224,0.5-0.5
		S19.419,16.092,19.143,16.092z"/>
	<path fill="#455B65" d="M30.992,15.63l-5.352-1.531L23.01,7.47c-0.151-0.381-0.52-0.631-0.93-0.631h-6.362h-0.013H1.283
		c-0.553,0-1,0.447-1,1v14.173c0,0.553,0.447,1,1,1h1.59c0.421,1.245,1.587,2.149,2.971,2.149s2.551-0.905,2.971-2.149h6.902h7.031
		c0.42,1.245,1.586,2.149,2.97,2.149s2.551-0.905,2.971-2.149h2.027c0.553,0,1-0.447,1-1v-5.42
		C31.717,16.146,31.421,15.753,30.992,15.63z M23.617,14.426h-6.13l0.939-0.939c0.195-0.195,0.195-0.512,0-0.707
		s-0.512-0.195-0.707,0l-1.001,1.002V8.839h2.265l-1.264,1.264c-0.195,0.195-0.195,0.512,0,0.707
		c0.098,0.098,0.226,0.146,0.354,0.146s0.256-0.049,0.354-0.146l1.971-1.971h1.004L23.617,14.426z M14.705,8.839v8.766H2.283V8.839
		H14.705z M2.283,18.604h12.422v2.407H8.816c-0.421-1.244-1.587-2.148-2.971-2.148s-2.551,0.904-2.971,2.148h-0.59V18.604z
		 M5.845,23.161c-0.634,0-1.149-0.516-1.149-1.149c0-0.633,0.516-1.148,1.149-1.148s1.149,0.516,1.149,1.148
		C6.994,22.646,6.479,23.161,5.845,23.161z M25.719,23.161c-0.633,0-1.148-0.516-1.148-1.149c0-0.633,0.516-1.148,1.148-1.148
		c0.634,0,1.149,0.516,1.149,1.148C26.868,22.646,26.353,23.161,25.719,23.161z M29.717,21.012H28.69
		c-0.421-1.244-1.587-2.148-2.971-2.148s-2.55,0.904-2.97,2.148h-6.031v-5.586h7.312c0.021,0.036,0.056,0.063,0.081,0.097
		c0.037,0.048,0.07,0.096,0.114,0.135c0.048,0.044,0.105,0.076,0.162,0.11c0.056,0.033,0.108,0.066,0.169,0.088
		c0.022,0.008,0.038,0.025,0.061,0.031l5.101,1.458V21.012z"/>
	<path fill="#455B65" d="M4.494,14.131H5.87c0.435,0.724,1.22,1.214,2.124,1.214s1.689-0.49,2.124-1.214h1.376
		c0.207,0,0.375-0.168,0.375-0.375s-0.168-0.375-0.375-0.375h-1.072c0.036-0.168,0.057-0.342,0.057-0.521
		c0-1.37-1.115-2.485-2.485-2.485s-2.485,1.115-2.485,2.485c0,0.179,0.021,0.353,0.057,0.521H4.494
		c-0.207,0-0.375,0.168-0.375,0.375S4.287,14.131,4.494,14.131z M7.994,14.595c-0.453,0-0.863-0.178-1.172-0.464h2.344
		C8.857,14.416,8.447,14.595,7.994,14.595z M6.259,12.859c0-0.957,0.778-1.735,1.735-1.735s1.735,0.778,1.735,1.735
		c0,0.183-0.036,0.356-0.089,0.521H6.348C6.295,13.215,6.259,13.042,6.259,12.859z"/>
</g>
</svg>
