<?xml version="1.0" encoding="utf-8"?>
<!-- Generator: Adobe Illustrator 19.1.0, SVG Export Plug-In . SVG Version: 6.00 Build 0)  -->
<svg version="1.1" id="Layer_1" xmlns="http://www.w3.org/2000/svg" xmlns:xlink="http://www.w3.org/1999/xlink" x="0px" y="0px"
	 viewBox="0 0 32 32" enable-background="new 0 0 32 32" xml:space="preserve">
<g>
	<path fill="#455B65" d="M30.791,3.507H1.209c-0.552,0-1,0.448-1,1v19.52c0,0.552,0.448,1,1,1h4.124c0.552,0,1-0.448,1-1
		s-0.448-1-1-1H2.209V5.507h27.582v17.52h-3.167c-0.552,0-1,0.448-1,1s0.448,1,1,1h4.167c0.552,0,1-0.448,1-1V4.507
		C31.791,3.955,31.343,3.507,30.791,3.507z"/>
	<path fill="#455B65" d="M7.833,7.584c0-0.276-0.224-0.5-0.5-0.5h-3.5c-0.276,0-0.5,0.224-0.5,0.5v4.267c0,0.276,0.224,0.5,0.5,0.5
		s0.5-0.224,0.5-0.5V8.084h3C7.61,8.084,7.833,7.861,7.833,7.584z"/>
	<path fill="#455B65" d="M16.804,16.433c-0.377-0.509-1.23-0.509-1.607,0l-7.75,10.464c-0.13,0.175-0.196,0.385-0.196,0.595
		c0,0.153,0.035,0.308,0.107,0.45c0.17,0.337,0.516,0.55,0.893,0.55h15.5c0.377,0,0.723-0.213,0.893-0.55
		c0.072-0.142,0.107-0.296,0.107-0.45c0-0.21-0.066-0.42-0.196-0.595L16.804,16.433z M10.235,26.493L16,18.708l5.765,7.784H10.235z"
		/>
	<path fill="#455B65" d="M12.333,25.309c0,0.276,0.224,0.5,0.5,0.5h4c0.276,0,0.5-0.224,0.5-0.5s-0.224-0.5-0.5-0.5h-4
		C12.557,24.809,12.333,25.033,12.333,25.309z"/>
</g>
</svg>
