<?xml version="1.0" encoding="utf-8"?>
<!-- Generator: Adobe Illustrator 19.1.0, SVG Export Plug-In . SVG Version: 6.00 Build 0)  -->
<svg version="1.1" id="Layer_1" xmlns="http://www.w3.org/2000/svg" xmlns:xlink="http://www.w3.org/1999/xlink" x="0px" y="0px"
	 viewBox="0 0 32 32" enable-background="new 0 0 32 32" xml:space="preserve">
<g>
	<g>
		<path fill="#455B65" d="M16,31.583c-8.593,0-15.583-6.99-15.583-15.583S7.407,0.417,16,0.417S31.583,7.407,31.583,16
			S24.593,31.583,16,31.583z M16,2.417C8.511,2.417,2.417,8.511,2.417,16S8.511,29.583,16,29.583S29.583,23.489,29.583,16
			S23.489,2.417,16,2.417z"/>
	</g>
	<g>
		<path fill="#455B65" d="M16,28.333C9.199,28.333,3.667,22.801,3.667,16c0-0.276,0.224-0.5,0.5-0.5s0.5,0.224,0.5,0.5
			c0,6.249,5.084,11.333,11.333,11.333c0.276,0,0.5,0.224,0.5,0.5S16.276,28.333,16,28.333z"/>
	</g>
	<g>
		<path fill="#455B65" d="M19.002,21.081c-4.457,0-8.083-3.626-8.083-8.083c0-4.458,3.626-8.084,8.083-8.084
			c4.458,0,8.084,3.626,8.084,8.084C27.086,17.455,23.46,21.081,19.002,21.081z M19.002,5.914c-3.905,0-7.083,3.178-7.083,7.084
			c0,3.905,3.178,7.083,7.083,7.083c3.906,0,7.084-3.178,7.084-7.083C26.086,9.092,22.908,5.914,19.002,5.914z"/>
	</g>
	<g>
		<g>
			<path fill="#455B65" d="M20.804,10.678c0.155-0.043,0.315-0.068,0.481-0.075c0.548-0.02,1.039,0.186,1.474,0.621
				c0.479,0.479,0.721,1.006,0.728,1.584c0.006,0.577-0.224,1.1-0.692,1.567c-0.466,0.466-0.987,0.695-1.564,0.689
				c-0.577-0.006-1.105-0.249-1.584-0.728c-0.434-0.434-0.641-0.928-0.621-1.48c0.003-0.162,0.028-0.318,0.076-0.468l-0.303,0.043
				c-0.481,0.038-0.903-0.124-1.265-0.486c-0.418-0.418-0.625-0.884-0.621-1.4c0.004-0.515,0.218-0.985,0.643-1.409
				c0.424-0.424,0.894-0.639,1.409-0.643c0.515-0.004,0.982,0.203,1.4,0.621c0.362,0.362,0.524,0.783,0.486,1.265
				C20.842,10.481,20.826,10.581,20.804,10.678z M20.395,11.976c-0.198,0.198-0.282,0.427-0.253,0.687
				c0.029,0.26,0.167,0.513,0.412,0.758c0.24,0.24,0.489,0.374,0.746,0.4s0.484-0.06,0.682-0.258s0.284-0.425,0.259-0.683
				c-0.025-0.258-0.157-0.507-0.398-0.747c-0.245-0.245-0.499-0.381-0.761-0.409C20.822,11.694,20.593,11.778,20.395,11.976z
				 M19.646,11.226c0.171-0.171,0.25-0.364,0.238-0.578s-0.115-0.418-0.309-0.612c-0.198-0.198-0.406-0.306-0.624-0.321
				c-0.218-0.016-0.412,0.062-0.583,0.233c-0.171,0.171-0.249,0.365-0.233,0.583s0.123,0.426,0.321,0.624
				c0.194,0.194,0.398,0.297,0.614,0.311C19.283,11.477,19.475,11.397,19.646,11.226z"/>
		</g>
	</g>
</g>
</svg>
