<?xml version="1.0" encoding="utf-8"?>
<!-- Generator: Adobe Illustrator 19.1.0, SVG Export Plug-In . SVG Version: 6.00 Build 0)  -->
<svg version="1.1" id="Layer_1" xmlns="http://www.w3.org/2000/svg" xmlns:xlink="http://www.w3.org/1999/xlink" x="0px" y="0px"
	 viewBox="0 0 32 32" enable-background="new 0 0 32 32" xml:space="preserve">
<g>
	<path fill="#455B65" d="M21.188,22.156c-0.553,0-1,0.447-1,1v1.48H5.411V7.554h14.777v1.509c0,0.553,0.447,1,1,1s1-0.447,1-1V1.417
		c0-0.553-0.447-1-1-1H4.411c-0.553,0-1,0.447-1,1v29.166c0,0.553,0.447,1,1,1h16.777c0.553,0,1-0.447,1-1v-7.427
		C22.188,22.604,21.741,22.156,21.188,22.156z M20.188,2.417v4.137H5.411V2.417H20.188z M5.411,29.583v-3.946h14.777v3.946H5.411z"
		/>
	<circle fill="#455B65" cx="12.8" cy="27.648" r="0.951"/>
	<path fill="#455B65" d="M28.214,10.989h-14.05c-0.207,0-0.375,0.168-0.375,0.375v1.426v7.846c0,0.029,0.01,0.054,0.016,0.081
		c0.002,0.009-0.003,0.018-0.001,0.026c0.002,0.005,0.007,0.007,0.009,0.012c0.023,0.067,0.063,0.122,0.116,0.166
		c0.011,0.009,0.022,0.015,0.034,0.023c0.059,0.038,0.125,0.066,0.201,0.066h14.05c0.076,0,0.142-0.028,0.201-0.066
		c0.012-0.008,0.023-0.014,0.034-0.023c0.053-0.044,0.093-0.099,0.116-0.166c0.002-0.005,0.007-0.007,0.009-0.012
		c0.003-0.009-0.003-0.017-0.001-0.026c0.006-0.027,0.016-0.052,0.016-0.081V12.79v-1.426
		C28.589,11.157,28.421,10.989,28.214,10.989z M14.539,11.739h13.3v0.849l-6.65,4.389l-6.649-4.389V11.739z M27.839,13.487v6.452
		l-4.888-3.227L27.839,13.487z M19.427,16.713l-4.887,3.226v-6.452L19.427,16.713z M15.413,20.261l4.695-3.098l0.874,0.577
		c0.054,0.035,0.115,0.047,0.176,0.052c0.082,0.007,0.165-0.005,0.237-0.052l0.875-0.577l4.695,3.099H15.413z"/>
</g>
</svg>
