<?xml version="1.0" encoding="utf-8"?>
<!-- Generator: Adobe Illustrator 19.1.0, SVG Export Plug-In . SVG Version: 6.00 Build 0)  -->
<svg version="1.1" id="Layer_1" xmlns="http://www.w3.org/2000/svg" xmlns:xlink="http://www.w3.org/1999/xlink" x="0px" y="0px"
	 viewBox="0 0 32 32" enable-background="new 0 0 32 32" xml:space="preserve">
<path fill="#455B65" d="M29.667,0.274H4.335c-0.553,0-1,0.448-1,1V3.01H2.333c-0.553,0-1,0.448-1,1v26.716c0,0.552,0.447,1,1,1
	h22.979h4.355c0.553,0,1-0.448,1-1V1.274C30.667,0.722,30.22,0.274,29.667,0.274z M3.333,5.01h1.002h13.136v5.891
	c0,0.276,0.224,0.5,0.5,0.5h6.341v18.325H3.333V5.01z M18.471,5.851l4.847,4.55h-4.847V5.851z M28.667,29.726h-2.355V10.901
	c0-0.276-0.114-0.54-0.315-0.729l-7.341-6.891C18.47,3.107,18.225,3.01,17.971,3.01H5.335V2.274h23.332V29.726z"/>
</svg>
