<?xml version="1.0" encoding="utf-8"?>
<!-- Generator: Adobe Illustrator 19.1.0, SVG Export Plug-In . SVG Version: 6.00 Build 0)  -->
<svg version="1.1" id="Layer_1" xmlns="http://www.w3.org/2000/svg" xmlns:xlink="http://www.w3.org/1999/xlink" x="0px" y="0px"
	 viewBox="0 0 32 32" enable-background="new 0 0 32 32" xml:space="preserve">
<g>
	<path fill="#455B65" d="M30.791,0.5H1.209c-0.553,0-1,0.448-1,1v4.802V30.5c0,0.552,0.447,1,1,1h29.582c0.553,0,1-0.448,1-1V6.303
		V1.5C31.791,0.948,31.344,0.5,30.791,0.5z M2.209,2.5h27.582v2.802H2.209V2.5z M29.791,29.5H2.209V7.303h27.582V29.5z"/>
	<circle fill="#455B65" cx="4" cy="3.902" r="0.78"/>
	<circle fill="#455B65" cx="6" cy="3.902" r="0.78"/>
	<circle fill="#455B65" cx="8" cy="3.902" r="0.78"/>
	<path fill="#455B65" d="M4.125,21.364C4.125,21.364,4.125,21.364,4.125,21.364l10.813-0.013c0.275,0,0.499-0.225,0.499-0.5
		s-0.224-0.5-0.5-0.5c0,0,0,0-0.001,0L4.124,20.364c-0.275,0-0.499,0.225-0.499,0.5S3.849,21.364,4.125,21.364z"/>
	<path fill="#455B65" d="M4.125,24.266C4.125,24.266,4.125,24.266,4.125,24.266l10.813-0.013c0.275,0,0.499-0.225,0.499-0.5
		s-0.224-0.5-0.5-0.5c0,0,0,0-0.001,0L4.124,23.266c-0.275,0-0.499,0.225-0.499,0.5S3.849,24.266,4.125,24.266z"/>
	<path fill="#455B65" d="M4.125,27.174C4.125,27.174,4.125,27.174,4.125,27.174l10.813-0.013c0.275,0,0.499-0.225,0.499-0.5
		s-0.224-0.5-0.5-0.5c0,0,0,0-0.001,0L4.124,26.174c-0.275,0-0.499,0.225-0.499,0.5S3.849,27.174,4.125,27.174z"/>
	<path fill="#455B65" d="M17.031,21.37C17.031,21.37,17.031,21.37,17.031,21.37l10.813-0.013c0.275,0,0.499-0.225,0.499-0.5
		s-0.224-0.5-0.5-0.5c0,0,0,0-0.001,0L17.03,20.37c-0.275,0-0.499,0.225-0.499,0.5S16.755,21.37,17.031,21.37z"/>
	<path fill="#455B65" d="M17.031,24.272C17.031,24.272,17.031,24.272,17.031,24.272l10.813-0.013c0.275,0,0.499-0.225,0.499-0.5
		s-0.224-0.5-0.5-0.5c0,0,0,0-0.001,0L17.03,23.272c-0.275,0-0.499,0.225-0.499,0.5S16.755,24.272,17.031,24.272z"/>
	<path fill="#455B65" d="M17.031,27.174L17.031,27.174l7.095-0.013c0.276,0,0.5-0.225,0.499-0.501
		c-0.001-0.276-0.225-0.499-0.5-0.499h-0.001l-7.094,0.013c-0.276,0-0.5,0.225-0.499,0.501
		C16.532,26.951,16.756,27.174,17.031,27.174z"/>
	<path fill="#455B65" d="M3.677,17.615c0.011,0.032,0.026,0.061,0.043,0.09c0.01,0.018,0.013,0.037,0.026,0.054
		c0.007,0.009,0.017,0.012,0.024,0.02c0.034,0.04,0.075,0.071,0.12,0.099c0.017,0.01,0.031,0.025,0.049,0.033
		c0.064,0.029,0.133,0.048,0.208,0.048h10.938c0.075,0,0.144-0.019,0.208-0.048c0.018-0.008,0.032-0.023,0.049-0.033
		c0.045-0.028,0.086-0.059,0.12-0.099c0.007-0.008,0.018-0.011,0.024-0.02c0.012-0.017,0.016-0.036,0.026-0.054
		c0.017-0.029,0.032-0.057,0.043-0.09c0.011-0.033,0.016-0.065,0.02-0.099c0.002-0.02,0.012-0.037,0.012-0.057V9.25
		c0-0.02-0.009-0.038-0.012-0.057c-0.004-0.034-0.009-0.066-0.02-0.099c-0.011-0.032-0.026-0.061-0.043-0.09
		c-0.01-0.018-0.013-0.037-0.026-0.054c-0.008-0.01-0.019-0.015-0.027-0.024C15.434,8.9,15.409,8.88,15.383,8.86
		c-0.026-0.02-0.05-0.039-0.079-0.053c-0.027-0.013-0.055-0.021-0.085-0.029c-0.034-0.01-0.067-0.018-0.102-0.021
		c-0.012-0.001-0.022-0.007-0.034-0.007H4.146c-0.012,0-0.023,0.006-0.035,0.007c-0.034,0.002-0.065,0.011-0.097,0.02
		c-0.031,0.009-0.062,0.017-0.09,0.031C3.896,8.821,3.873,8.84,3.848,8.858C3.821,8.879,3.795,8.9,3.772,8.926
		C3.764,8.935,3.753,8.94,3.745,8.95C3.733,8.966,3.73,8.986,3.72,9.004c-0.017,0.029-0.032,0.057-0.043,0.09
		c-0.011,0.033-0.016,0.065-0.02,0.099C3.655,9.212,3.646,9.23,3.646,9.25v8.208c0,0.02,0.009,0.038,0.012,0.057
		C3.661,17.55,3.666,17.582,3.677,17.615z M14.583,16.458l-4.136-3.104l4.136-3.104V16.458z M13.584,16.958h-7.94l3.97-2.979
		L13.584,16.958z M9.614,12.729L5.644,9.75h7.94L9.614,12.729z M8.782,13.354l-4.136,3.104V10.25L8.782,13.354z"/>
	<path fill="#455B65" d="M17.031,9.763C17.031,9.763,17.031,9.763,17.031,9.763L27.845,9.75c0.275,0,0.499-0.225,0.499-0.5
		s-0.225-0.5-0.5-0.5c0,0,0,0-0.001,0L17.03,8.763c-0.275,0-0.499,0.225-0.499,0.5S16.756,9.763,17.031,9.763z"/>
	<path fill="#455B65" d="M17.031,12.665C17.031,12.665,17.031,12.665,17.031,12.665l10.813-0.013c0.275,0,0.499-0.225,0.499-0.5
		s-0.225-0.5-0.5-0.5c0,0,0,0-0.001,0L17.03,11.665c-0.275,0-0.499,0.225-0.499,0.5S16.756,12.665,17.031,12.665z"/>
	<path fill="#455B65" d="M17.031,15.567C17.031,15.567,17.031,15.567,17.031,15.567l10.813-0.013c0.275,0,0.499-0.225,0.499-0.5
		s-0.225-0.5-0.5-0.5c0,0,0,0-0.001,0L17.03,14.567c-0.275,0-0.499,0.225-0.499,0.5S16.756,15.567,17.031,15.567z"/>
	<path fill="#455B65" d="M17.031,18.469C17.031,18.469,17.031,18.469,17.031,18.469l10.813-0.013c0.275,0,0.499-0.225,0.499-0.5
		s-0.225-0.5-0.5-0.5c0,0,0,0-0.001,0L17.03,17.469c-0.275,0-0.499,0.225-0.499,0.5S16.756,18.469,17.031,18.469z"/>
</g>
</svg>
