<?xml version="1.0" encoding="utf-8"?>
<!-- Generator: Adobe Illustrator 19.1.0, SVG Export Plug-In . SVG Version: 6.00 Build 0)  -->
<svg version="1.1" id="Layer_1" xmlns="http://www.w3.org/2000/svg" xmlns:xlink="http://www.w3.org/1999/xlink" x="0px" y="0px"
	 viewBox="0 0 32 32" enable-background="new 0 0 32 32" xml:space="preserve">
<g>
	<path fill="#455B65" d="M29.351,8.142l-8.093-7.597c-0.186-0.174-0.43-0.271-0.685-0.271H3.334c-0.552,0-1,0.448-1,1v29.452
		c0,0.552,0.448,1,1,1h25.333c0.552,0,1-0.448,1-1V8.871C29.666,8.594,29.552,8.331,29.351,8.142z M21.073,3.115l5.599,5.256h-5.599
		V3.115z M4.334,29.726V2.274h15.74v6.597c0,0.276,0.224,0.5,0.5,0.5h7.093v20.355H4.334z"/>
	<path fill="#455B65" d="M7.11,8.289h1.792c0.571,0.946,1.598,1.586,2.781,1.586s2.21-0.64,2.781-1.586h1.793
		c0.276,0,0.5-0.224,0.5-0.5s-0.224-0.5-0.5-0.5h-1.387c0.046-0.217,0.071-0.441,0.071-0.671c0-1.796-1.461-3.257-3.257-3.257
		S8.426,4.822,8.426,6.618c0,0.23,0.025,0.454,0.071,0.671H7.11c-0.276,0-0.5,0.224-0.5,0.5S6.833,8.289,7.11,8.289z M11.683,8.875
		c-0.58,0-1.104-0.226-1.504-0.586h3.008C12.787,8.649,12.263,8.875,11.683,8.875z M9.426,6.618c0-1.245,1.013-2.257,2.257-2.257
		s2.257,1.013,2.257,2.257c0,0.235-0.046,0.458-0.113,0.671H9.539C9.472,7.075,9.426,6.853,9.426,6.618z"/>
	<path fill="#455B65" d="M24.891,12.248H7.11c-0.276,0-0.5,0.224-0.5,0.5s0.224,0.5,0.5,0.5h17.782c0.276,0,0.5-0.224,0.5-0.5
		S25.168,12.248,24.891,12.248z"/>
	<path fill="#455B65" d="M7.11,16.348L7.11,16.348l16.141-0.012c0.276,0,0.5-0.224,0.5-0.5c0-0.276-0.224-0.5-0.5-0.5h0
		L7.109,15.348c-0.276,0-0.5,0.224-0.5,0.5C6.61,16.125,6.834,16.348,7.11,16.348z"/>
	<path fill="#455B65" d="M24.891,18.431L24.891,18.431L7.109,18.443c-0.276,0-0.5,0.224-0.5,0.5c0,0.276,0.224,0.5,0.5,0.5h0
		l17.782-0.013c0.276,0,0.5-0.224,0.5-0.5C25.391,18.654,25.167,18.431,24.891,18.431z"/>
	<path fill="#455B65" d="M22.042,21.526C22.042,21.526,22.042,21.526,22.042,21.526L7.109,21.537c-0.276,0-0.5,0.224-0.5,0.5
		c0,0.276,0.224,0.5,0.5,0.5h0l14.932-0.011c0.276,0,0.5-0.224,0.5-0.5C22.542,21.75,22.318,21.526,22.042,21.526z"/>
	<path fill="#455B65" d="M17.709,24.62L17.709,24.62l-10.6,0.013c-0.276,0-0.5,0.225-0.5,0.5s0.224,0.5,0.5,0.5h0l10.599-0.013
		c0.276,0,0.5-0.225,0.5-0.5S17.985,24.62,17.709,24.62z"/>
</g>
</svg>
