<?xml version="1.0" encoding="utf-8"?>
<!-- Generator: Adobe Illustrator 19.1.0, SVG Export Plug-In . SVG Version: 6.00 Build 0)  -->
<svg version="1.1" id="Layer_1" xmlns="http://www.w3.org/2000/svg" xmlns:xlink="http://www.w3.org/1999/xlink" x="0px" y="0px"
	 viewBox="0 0 32 32" enable-background="new 0 0 32 32" xml:space="preserve">
<g>
	<path fill="#455B65" d="M6.5,25.448h2.688c0.276,0,0.5-0.224,0.5-0.5s-0.224-0.5-0.5-0.5H6.5c-0.276,0-0.5,0.224-0.5,0.5
		S6.224,25.448,6.5,25.448z"/>
	<path fill="#455B65" d="M11.688,25.448H25.5c0.276,0,0.5-0.224,0.5-0.5s-0.224-0.5-0.5-0.5H11.688c-0.276,0-0.5,0.224-0.5,0.5
		S11.411,25.448,11.688,25.448z"/>
	<path fill="#455B65" d="M28.138,3.219H3.862c-0.552,0-1,0.448-1,1v17.895v5.667c0,0.552,0.448,1,1,1h24.276c0.552,0,1-0.448,1-1
		v-5.667V4.219C29.138,3.667,28.69,3.219,28.138,3.219z M4.862,5.219h22.276v15.895H4.862V5.219z M27.138,26.781H4.862v-3.667
		h22.276V26.781z"/>
	<path fill="#455B65" d="M17.925,12.717l-3.412-1.662c-0.155-0.075-0.338-0.065-0.484,0.026c-0.146,0.091-0.235,0.251-0.235,0.424
		v3.323c0,0.172,0.089,0.333,0.235,0.424c0.081,0.051,0.173,0.076,0.265,0.076c0.075,0,0.149-0.017,0.219-0.05l3.412-1.662
		c0.172-0.084,0.281-0.258,0.281-0.45S18.097,12.801,17.925,12.717z M14.794,14.029v-1.724l1.77,0.862L14.794,14.029z"/>
</g>
</svg>
