<?xml version="1.0" encoding="utf-8"?>
<!-- Generator: Adobe Illustrator 19.1.0, SVG Export Plug-In . SVG Version: 6.00 Build 0)  -->
<svg version="1.1" id="Layer_1" xmlns="http://www.w3.org/2000/svg" xmlns:xlink="http://www.w3.org/1999/xlink" x="0px" y="0px"
	 viewBox="0 0 32 32" enable-background="new 0 0 32 32" xml:space="preserve">
<g>
	<g>
		<g>
			<g>
				<g>
					<g>
						<g>
							<g>
								<g>
									<g>
										<path fill="#455B65" d="M12.97,31.517c-0.095,0-0.19-0.014-0.284-0.041c-0.075-0.022-7.355-2.268-7.646-9.574
											c-2.919-2.345-4.582-5.557-4.582-8.881C0.457,6.107,7.43,0.483,16,0.483c8.57,0,15.543,5.624,15.543,12.537
											S24.57,25.558,16,25.558c-0.707,0-1.429-0.044-2.195-0.135c-1.027,1.014-1.039,2.516-0.032,4.471
											c0.136,0.171,0.217,0.388,0.217,0.623c0,0.553-0.447,1-1,1C12.984,31.516,12.976,31.516,12.97,31.517z M16,2.483
											c-7.468,0-13.543,4.727-13.543,10.537c0,2.876,1.481,5.568,4.173,7.583c0.253,0.19,0.401,0.488,0.4,0.805
											c-0.016,3.83,2.322,6.026,4.137,7.152c-0.583-2.795,0.908-4.36,1.712-4.979c0.213-0.163,0.481-0.237,0.748-0.197
											c0.845,0.117,1.621,0.174,2.373,0.174c7.468,0,13.543-4.726,13.543-10.537C29.543,7.21,23.468,2.483,16,2.483z"/>
									</g>
								</g>
							</g>
						</g>
					</g>
				</g>
			</g>
		</g>
	</g>
	<g>
		<g>
			<g>
				<g>
					<g>
						<path fill="#455B65" d="M23.646,11.998H8.354c-0.553,0-1-0.448-1-1s0.447-1,1-1h15.291c0.553,0,1,0.448,1,1
							S24.198,11.998,23.646,11.998z"/>
					</g>
				</g>
			</g>
		</g>
		<g>
			<g>
				<g>
					<g>
						<path fill="#455B65" d="M15.823,15.998H8.354c-0.553,0-1-0.448-1-1s0.447-1,1-1h7.469c0.553,0,1,0.448,1,1
							S16.376,15.998,15.823,15.998z"/>
					</g>
				</g>
			</g>
		</g>
	</g>
</g>
</svg>
