<?xml version="1.0" encoding="utf-8"?>
<!-- Generator: Adobe Illustrator 19.1.0, SVG Export Plug-In . SVG Version: 6.00 Build 0)  -->
<svg version="1.1" id="Layer_1" xmlns="http://www.w3.org/2000/svg" xmlns:xlink="http://www.w3.org/1999/xlink" x="0px" y="0px"
	 viewBox="0 0 32 32" enable-background="new 0 0 32 32" xml:space="preserve">
<g>
	<path fill="#455B65" d="M30.982,9.045c-2.592-0.505-5.395-0.863-8.341-1.066l-1.098-2.537c-0.158-0.365-0.519-0.603-0.917-0.603
		h-9.25c-0.399,0-0.759,0.237-0.917,0.603L9.325,8.057c-4.924,0.367-8.158,0.96-8.298,0.986c-0.474,0.088-0.818,0.501-0.818,0.983
		v16.135c0,0.553,0.448,1,1,1h29.582c0.552,0,1-0.447,1-1V10.026C31.791,9.548,31.452,9.137,30.982,9.045z M29.791,25.161H2.209
		V10.873c1.326-0.209,4.172-0.611,7.862-0.864c0.373-0.026,0.7-0.258,0.849-0.601l1.112-2.569h7.937l1.08,2.495
		c0.149,0.346,0.48,0.577,0.856,0.601c2.777,0.171,5.425,0.48,7.886,0.922V25.161z"/>
	<path fill="#455B65" d="M16,10.401c-3.69,0-6.692,3.002-6.692,6.691c0,3.69,3.002,6.692,6.692,6.692s6.692-3.002,6.692-6.692
		C22.692,13.403,19.69,10.401,16,10.401z M16,21.785c-2.587,0-4.692-2.105-4.692-4.692s2.105-4.691,4.692-4.691
		s4.692,2.104,4.692,4.691S18.587,21.785,16,21.785z"/>
	<path fill="#455B65" d="M16,13.464c-2.001,0-3.629,1.628-3.629,3.629c0,0.276,0.224,0.5,0.5,0.5s0.5-0.224,0.5-0.5
		c0-1.449,1.18-2.629,2.629-2.629c0.276,0,0.5-0.224,0.5-0.5S16.276,13.464,16,13.464z"/>
	<path fill="#455B65" d="M6.188,23.089H4.125v-2.625c0-0.276-0.224-0.5-0.5-0.5s-0.5,0.224-0.5,0.5v3.125c0,0.276,0.224,0.5,0.5,0.5
		h2.563c0.276,0,0.5-0.224,0.5-0.5S6.464,23.089,6.188,23.089z"/>
	<path fill="#455B65" d="M15.031,8.839h1.938c0.276,0,0.5-0.224,0.5-0.5s-0.224-0.5-0.5-0.5h-1.938c-0.276,0-0.5,0.224-0.5,0.5
		S14.755,8.839,15.031,8.839z"/>
</g>
</svg>
