<?xml version="1.0" encoding="utf-8"?>
<!-- Generator: Adobe Illustrator 19.1.0, SVG Export Plug-In . SVG Version: 6.00 Build 0)  -->
<svg version="1.1" id="Layer_1" xmlns="http://www.w3.org/2000/svg" xmlns:xlink="http://www.w3.org/1999/xlink" x="0px" y="0px"
	 viewBox="0 0 32 32" enable-background="new 0 0 32 32" xml:space="preserve">
<g>
	<g>
		<g>
			<path fill="#455B65" d="M15.518,26.956H1.001c-0.483,0-0.875-0.392-0.875-0.875c0-2.581,1.69-4.892,4.322-6.063
				c-0.484-0.732-0.749-1.591-0.749-2.486c0-2.515,2.046-4.561,4.56-4.561c2.515,0,4.561,2.046,4.561,4.561
				c0,0.896-0.265,1.754-0.749,2.486c2.632,1.171,4.322,3.481,4.322,6.063C16.393,26.564,16.001,26.956,15.518,26.956z
				 M1.971,25.206h12.577c-0.395-1.814-1.997-3.348-4.233-3.96c-0.318-0.087-0.56-0.345-0.627-0.667
				c-0.066-0.322,0.054-0.655,0.312-0.86c0.681-0.543,1.07-1.34,1.07-2.187c0-1.55-1.261-2.811-2.811-2.811
				c-1.549,0-2.81,1.261-2.81,2.811c0,0.847,0.39,1.644,1.07,2.187c0.258,0.205,0.378,0.538,0.312,0.86
				c-0.067,0.322-0.309,0.58-0.627,0.667C3.968,21.858,2.365,23.391,1.971,25.206z"/>
		</g>
	</g>
	<g>
		<g>
			<g>
				<g>
					<g>
						<g>
							<g>
								<g>
									<g>
										<g>
											<g>
												<path fill="#455B65" d="M5.124,12.846c-0.039,0-0.078-0.006-0.116-0.017c-0.031-0.009-3.012-0.929-3.131-3.921
													C0.681,7.948,0,6.633,0,5.272c0-2.831,2.855-5.134,6.365-5.134c3.51,0,6.365,2.303,6.365,5.134
													s-2.855,5.134-6.365,5.134c-0.29,0-0.585-0.018-0.899-0.055c-0.421,0.415-0.426,1.03-0.013,1.831
													c0.056,0.07,0.089,0.159,0.089,0.255c0,0.226-0.183,0.409-0.409,0.409C5.13,12.845,5.126,12.845,5.124,12.846z
													 M6.365,0.957c-3.058,0-5.546,1.936-5.546,4.315c0,1.178,0.607,2.28,1.709,3.105c0.104,0.078,0.164,0.2,0.164,0.33
													c-0.006,1.568,0.951,2.468,1.694,2.929C4.147,10.491,4.758,9.85,5.087,9.596C5.174,9.53,5.283,9.499,5.393,9.516
													c0.346,0.048,0.664,0.071,0.972,0.071c3.058,0,5.546-1.935,5.546-4.315C11.911,2.892,9.423,0.957,6.365,0.957z"/>
											</g>
										</g>
									</g>
								</g>
							</g>
						</g>
					</g>
				</g>
			</g>
		</g>
		<g>
			<g>
				<g>
					<g>
						<g>
							<g>
								<path fill="#455B65" d="M9.496,4.853H3.234c-0.226,0-0.409-0.183-0.409-0.409c0-0.226,0.183-0.409,0.409-0.409h6.262
									c0.226,0,0.409,0.183,0.409,0.409C9.905,4.67,9.722,4.853,9.496,4.853z"/>
							</g>
						</g>
					</g>
				</g>
			</g>
			<g>
				<g>
					<g>
						<g>
							<g>
								<path fill="#455B65" d="M6.292,6.491H3.234c-0.226,0-0.409-0.183-0.409-0.409s0.183-0.409,0.409-0.409h3.058
									c0.226,0,0.409,0.183,0.409,0.409S6.519,6.491,6.292,6.491z"/>
							</g>
						</g>
					</g>
				</g>
			</g>
		</g>
	</g>
	<g>
		<g>
			<g>
				<g>
					<g>
						<g>
							<g>
								<g>
									<g>
										<g>
											<g>
												<path fill="#455B65" d="M26.868,17.41c-0.226,0-0.409-0.183-0.409-0.409c0-0.096,0.033-0.185,0.089-0.255
													c0.412-0.801,0.408-1.416-0.013-1.831c-0.314,0.037-0.609,0.055-0.899,0.055c-3.51,0-6.365-2.303-6.365-5.134
													s2.855-5.134,6.365-5.134c3.51,0,6.365,2.303,6.365,5.134c0,1.361-0.681,2.677-1.876,3.637
													c-0.119,2.992-3.1,3.911-3.131,3.921c-0.038,0.011-0.078,0.017-0.116,0.017C26.874,17.41,26.87,17.41,26.868,17.41z
													 M20.089,9.836c0,2.379,2.488,4.315,5.546,4.315c0.308,0,0.626-0.023,0.972-0.071c0.11-0.016,0.219,0.014,0.306,0.081
													c0.329,0.254,0.94,0.895,0.701,2.039c0.743-0.461,1.7-1.36,1.694-2.929c0-0.13,0.06-0.252,0.164-0.33
													c1.102-0.825,1.709-1.928,1.709-3.105c0-2.379-2.488-4.315-5.546-4.315C22.577,5.521,20.089,7.456,20.089,9.836z"/>
											</g>
										</g>
									</g>
								</g>
							</g>
						</g>
					</g>
				</g>
			</g>
		</g>
		<g>
			<g>
				<g>
					<g>
						<g>
							<g>
								<path fill="#455B65" d="M28.766,9.417h-6.262c-0.226,0-0.409-0.183-0.409-0.409c0-0.226,0.183-0.409,0.409-0.409h6.262
									c0.226,0,0.409,0.183,0.409,0.409C29.175,9.234,28.992,9.417,28.766,9.417z"/>
							</g>
						</g>
					</g>
				</g>
			</g>
			<g>
				<g>
					<g>
						<g>
							<g>
								<path fill="#455B65" d="M25.563,11.055h-3.058c-0.226,0-0.409-0.183-0.409-0.409s0.183-0.409,0.409-0.409h3.058
									c0.226,0,0.409,0.183,0.409,0.409S25.789,11.055,25.563,11.055z"/>
							</g>
						</g>
					</g>
				</g>
			</g>
		</g>
	</g>
	<g>
		<g>
			<path fill="#455B65" d="M30.999,31.862H16.482c-0.483,0-0.875-0.392-0.875-0.875c0-2.581,1.69-4.892,4.322-6.063
				c-0.484-0.732-0.749-1.591-0.749-2.486c0-2.515,2.046-4.561,4.561-4.561c2.514,0,4.56,2.046,4.56,4.561
				c0,0.896-0.265,1.754-0.749,2.486c2.632,1.171,4.322,3.481,4.322,6.063C31.874,31.471,31.482,31.862,30.999,31.862z
				 M17.452,30.112h12.577c-0.395-1.814-1.997-3.348-4.233-3.96c-0.318-0.087-0.56-0.345-0.627-0.667
				c-0.066-0.322,0.054-0.655,0.312-0.86c0.681-0.543,1.07-1.34,1.07-2.187c0-1.55-1.261-2.811-2.81-2.811
				c-1.55,0-2.811,1.261-2.811,2.811c0,0.847,0.39,1.644,1.07,2.187c0.258,0.205,0.378,0.538,0.312,0.86
				c-0.067,0.322-0.309,0.58-0.627,0.667C19.449,26.764,17.847,28.298,17.452,30.112z"/>
		</g>
	</g>
</g>
</svg>
