<?xml version="1.0" encoding="utf-8"?>
<!-- Generator: Adobe Illustrator 19.1.0, SVG Export Plug-In . SVG Version: 6.00 Build 0)  -->
<svg version="1.1" id="Layer_1" xmlns="http://www.w3.org/2000/svg" xmlns:xlink="http://www.w3.org/1999/xlink" x="0px" y="0px"
	 viewBox="0 0 32 32" enable-background="new 0 0 32 32" xml:space="preserve">
<path fill="#455B65" d="M30.792,5.24H1.208c-0.552,0-1,0.448-1,1v3.002V25.76c0,0.552,0.448,1,1,1h29.583c0.552,0,1-0.448,1-1V9.242
	V6.24C31.792,5.688,31.344,5.24,30.792,5.24z M29.792,24.501l-10.155-6.701L29.792,11.1V24.501z M2.208,11.1l10.155,6.701
	L2.208,24.501V11.1z M3.632,24.76l9.639-6.361l2.178,1.437c0.167,0.11,0.359,0.166,0.551,0.166s0.384-0.055,0.551-0.166l2.178-1.437
	l9.639,6.361H3.632z M2.208,7.24h27.583v1.464L16,17.804l-13.792-9.1V7.24z"/>
</svg>
