<?xml version="1.0" encoding="utf-8"?>
<!-- Generator: Adobe Illustrator 19.1.0, SVG Export Plug-In . SVG Version: 6.00 Build 0)  -->
<svg version="1.1" id="Layer_1" xmlns="http://www.w3.org/2000/svg" xmlns:xlink="http://www.w3.org/1999/xlink" x="0px" y="0px"
	 viewBox="0 0 32 32" enable-background="new 0 0 32 32" xml:space="preserve">
<g>
	<path fill="#455B65" d="M31.38,19.183v-7.13c0-0.552-0.447-1-1-1h-3.252V4.157c0-0.552-0.447-1-1-1H1.869c-0.553,0-1,0.448-1,1
		v7.896c0,0.552,0.447,1,1,1h0.752v5.896h-1.38c-0.553,0-1,0.448-1,1v7.896c0,0.552,0.447,1,1,1h29.518c0.553,0,1-0.448,1-1v-7.896
		C31.759,19.634,31.606,19.366,31.38,19.183z M29.38,18.948H12.371v-5.896h10.875V16c0,0.276,0.224,0.5,0.5,0.5s0.5-0.224,0.5-0.5
		v-2.948h1.882h1.103V16c0,0.276,0.224,0.5,0.5,0.5s0.5-0.224,0.5-0.5v-2.948h1.149V18.948z M11.09,26.843v-5.896h1.611v5.896H11.09
		z M4.621,18.948v-5.896h6.75v5.896H4.621z M2.869,5.157h22.259v5.896H3.621H2.869V5.157z M2.241,20.948H3.5v2.948
		c0,0.276,0.224,0.5,0.5,0.5s0.5-0.224,0.5-0.5v-2.948h5.59v5.896H2.241V20.948z M29.759,26.843H13.701v-5.896h16.058V26.843z"/>
	<path fill="#455B65" d="M28.109,26.37c0.276,0,0.5-0.224,0.5-0.5v-3.948c0-0.276-0.224-0.5-0.5-0.5s-0.5,0.224-0.5,0.5v3.948
		C27.609,26.146,27.833,26.37,28.109,26.37z"/>
	<path fill="#455B65" d="M26.418,24.692c0.276,0,0.5-0.224,0.5-0.5v-2.271c0-0.276-0.224-0.5-0.5-0.5s-0.5,0.224-0.5,0.5v2.271
		C25.918,24.469,26.142,24.692,26.418,24.692z"/>
	<path fill="#455B65" d="M23.479,10.578c0.276,0,0.5-0.224,0.5-0.5V6.13c0-0.276-0.224-0.5-0.5-0.5s-0.5,0.224-0.5,0.5v3.948
		C22.979,10.354,23.202,10.578,23.479,10.578z"/>
	<path fill="#455B65" d="M21.787,9.74c0.276,0,0.5-0.224,0.5-0.5V6.969c0-0.276-0.224-0.5-0.5-0.5s-0.5,0.224-0.5,0.5V9.24
		C21.287,9.516,21.511,9.74,21.787,9.74z"/>
	<path fill="#455B65" d="M7.876,9.91h7.592c0.276,0,0.5-0.224,0.5-0.5V6.799c0-0.276-0.224-0.5-0.5-0.5H7.876
		c-0.276,0-0.5,0.224-0.5,0.5V9.41C7.376,9.686,7.6,9.91,7.876,9.91z M8.376,7.299h6.592V8.91H8.376V7.299z"/>
	<path fill="#455B65" d="M9.844,14.655H5.896c-0.276,0-0.5,0.224-0.5,0.5s0.224,0.5,0.5,0.5h3.948c0.276,0,0.5-0.224,0.5-0.5
		S10.12,14.655,9.844,14.655z"/>
	<path fill="#455B65" d="M8.167,16.345H5.896c-0.276,0-0.5,0.224-0.5,0.5s0.224,0.5,0.5,0.5h2.271c0.276,0,0.5-0.224,0.5-0.5
		S8.443,16.345,8.167,16.345z"/>
</g>
</svg>
