<?xml version="1.0" encoding="utf-8"?>
<!-- Generator: Adobe Illustrator 19.1.0, SVG Export Plug-In . SVG Version: 6.00 Build 0)  -->
<svg version="1.1" id="Layer_1" xmlns="http://www.w3.org/2000/svg" xmlns:xlink="http://www.w3.org/1999/xlink" x="0px" y="0px"
	 viewBox="0 0 32 32" enable-background="new 0 0 32 32" xml:space="preserve">
<g>
	<path fill="#455B65" d="M4.677,24.759c0,0.276,0.224,0.5,0.5,0.5h20.599c0.276,0,0.5-0.224,0.5-0.5s-0.224-0.5-0.5-0.5H5.177
		C4.901,24.259,4.677,24.482,4.677,24.759z"/>
	<path fill="#455B65" d="M25.777,26.834H5.177c-0.276,0-0.5,0.224-0.5,0.5s0.224,0.5,0.5,0.5h20.599c0.276,0,0.5-0.224,0.5-0.5
		S26.053,26.834,25.777,26.834z"/>
	<path fill="#455B65" d="M11.605,18.229H22.47c0.342,0,0.643-0.224,0.743-0.552c0.1-0.327-0.028-0.681-0.312-0.87
		c-0.078-0.052-1.493-0.98-3.598-1.435c0.772-0.978,1.268-2.294,1.479-3.17c0.293-1.214,0.179-3.588-0.987-5.068
		c-0.681-0.865-1.635-1.322-2.757-1.322c-1.122,0-2.076,0.457-2.756,1.322c-1.166,1.479-1.279,3.854-0.987,5.068
		c0.206,0.855,0.685,2.127,1.426,3.097c-0.005,0.029-0.009,0.058-0.008,0.087c-2.071,0.46-3.46,1.37-3.537,1.421
		c-0.285,0.189-0.412,0.543-0.313,0.87C10.962,18.004,11.264,18.229,11.605,18.229z M14.937,16.13
		c0.144-0.031,0.271-0.105,0.373-0.204c0.289,0.119,0.713,0.234,1.269,0.234c0.256,0,0.542-0.024,0.855-0.085
		c0.21-0.04,0.348-0.244,0.308-0.454c-0.041-0.211-0.246-0.348-0.454-0.308c-0.923,0.177-1.502-0.012-1.771-0.143
		c-0.027-0.1-0.068-0.197-0.135-0.28c-0.681-0.862-1.135-2.048-1.333-2.871c-0.249-1.03-0.153-3.143,0.842-4.406
		c0.536-0.681,1.258-1.026,2.147-1.026c0.889,0,1.611,0.345,2.147,1.026c0.995,1.263,1.09,3.375,0.842,4.406
		c-0.198,0.821-0.652,2.007-1.333,2.87c-0.166,0.21-0.212,0.491-0.122,0.743c0.091,0.252,0.305,0.44,0.566,0.496
		c1.963,0.425,3.278,1.287,3.331,1.323l-10.863,0C11.661,17.416,12.965,16.557,14.937,16.13z"/>
	<path fill="#455B65" d="M31.802,5.708c0-0.925-0.752-1.677-1.727-1.677c-0.061,0-0.118,0.012-0.177,0.018V2.131
		c0-0.552-0.448-1-1-1H5.177c-2.746,0-4.979,2.234-4.979,4.979v19.78c0,2.746,2.234,4.979,4.979,4.979h23.72c0.552,0,1-0.448,1-1
		V21.91v-4.898c0.059,0.006,0.117,0.018,0.177,0.018h0.05c0.925,0,1.677-0.752,1.677-1.677v-3.646c0-0.457-0.185-0.871-0.488-1.173
		c0.301-0.303,0.488-0.721,0.488-1.181V5.708z M2.198,6.11c0-1.472,1.075-2.689,2.479-2.929v17.78
		c-0.926,0.094-1.773,0.432-2.479,0.964V6.11z M27.898,28.869H5.177c-1.643,0-2.979-1.336-2.979-2.979s1.336-2.979,2.979-2.979
		h22.72V28.869z M27.898,20.91H5.677V3.131h22.22V20.91z M30.802,15.353c0,0.374-0.304,0.677-0.677,0.677h-0.05
		c-0.063,0-0.119-0.02-0.177-0.036v-4.922c0.072-0.021,0.145-0.041,0.227-0.041c0.374,0,0.677,0.304,0.677,0.677V15.353z
		 M30.802,9.354c0,0.374-0.304,0.677-0.677,0.677h-0.05c-0.063,0-0.119-0.02-0.177-0.036V5.073c0.072-0.021,0.145-0.041,0.227-0.041
		c0.374,0,0.677,0.304,0.677,0.677V9.354z"/>
</g>
</svg>
