<?xml version="1.0" encoding="utf-8"?>
<!-- Generator: Adobe Illustrator 19.1.0, SVG Export Plug-In . SVG Version: 6.00 Build 0)  -->
<svg version="1.1" id="Layer_1" xmlns="http://www.w3.org/2000/svg" xmlns:xlink="http://www.w3.org/1999/xlink" x="0px" y="0px"
	 viewBox="0 0 32 32" enable-background="new 0 0 32 32" xml:space="preserve">
<g>
	<g>
		<path fill="#455B65" d="M25.905,23.472H5.991c-0.553,0-1-0.447-1-1c0-3.531,2.367-6.688,6.033-8.229
			c-0.73-1.014-1.132-2.229-1.132-3.498c0-3.339,2.717-6.056,6.056-6.056s6.055,2.717,6.055,6.056c0,1.27-0.401,2.484-1.132,3.498
			c3.666,1.542,6.034,4.698,6.034,8.229C26.905,23.024,26.458,23.472,25.905,23.472z M7.077,21.472h17.742
			c-0.464-2.666-2.759-4.938-6-5.825c-0.363-0.1-0.64-0.395-0.716-0.763c-0.076-0.369,0.062-0.749,0.355-0.983
			c0.981-0.783,1.544-1.934,1.544-3.156c0-2.236-1.819-4.056-4.055-4.056c-2.236,0-4.056,1.819-4.056,4.056
			c0,1.223,0.563,2.373,1.544,3.156c0.294,0.234,0.432,0.614,0.355,0.983c-0.076,0.368-0.353,0.663-0.716,0.763
			C9.836,16.533,7.541,18.806,7.077,21.472z"/>
	</g>
	<g>
		<path fill="#455B65" d="M26.009,27.312H6.095c-0.553,0-1-0.447-1-1s0.447-1,1-1h19.914c0.553,0,1,0.447,1,1
			S26.562,27.312,26.009,27.312z"/>
	</g>
</g>
</svg>
