<?xml version="1.0" encoding="utf-8"?>
<!-- Generator: Adobe Illustrator 19.1.0, SVG Export Plug-In . SVG Version: 6.00 Build 0)  -->
<svg version="1.1" id="Layer_1" xmlns="http://www.w3.org/2000/svg" xmlns:xlink="http://www.w3.org/1999/xlink" x="0px" y="0px"
	 viewBox="0 0 32 32" enable-background="new 0 0 32 32" xml:space="preserve">
<g>
	<g>
		<path fill="#455B65" d="M30.708,0.186H1.292c-0.553,0-1,0.447-1,1V18.52c0,0.553,0.447,1,1,1h29.416c0.553,0,1-0.447,1-1V1.186
			C31.708,0.634,31.261,0.186,30.708,0.186z M29.708,17.52h-3.16c0.375-1.561,1.598-2.784,3.16-3.16V17.52z M25.518,17.52H6.482
			c-0.407-2.116-2.075-3.784-4.19-4.191V6.377c2.115-0.407,3.783-2.075,4.19-4.191h19.036c0.407,2.116,2.075,3.784,4.19,4.191v6.952
			C27.593,13.737,25.925,15.404,25.518,17.52z M2.292,2.186h3.16c-0.375,1.561-1.598,2.784-3.16,3.16V2.186z M2.292,17.52v-3.16
			c1.561,0.376,2.784,1.599,3.16,3.16H2.292z M29.708,2.186v3.16c-1.561-0.376-2.784-1.599-3.16-3.16H29.708z"/>
		<path fill="#455B65" d="M16,3.388c-2.832,0-5.137,2.892-5.137,6.446s2.305,6.447,5.137,6.447s5.137-2.893,5.137-6.447
			S18.832,3.388,16,3.388z M16,15.281c-2.281,0-4.137-2.443-4.137-5.447c0-3.003,1.855-5.446,4.137-5.446s4.137,2.443,4.137,5.446
			C20.137,12.838,18.281,15.281,16,15.281z"/>
		<path fill="#455B65" d="M17.769,9.578C17.596,9.42,17.401,9.3,17.182,9.216c-0.219-0.083-0.513-0.176-0.882-0.277V7.081
			c0.375,0.122,0.612,0.369,0.71,0.742c0.086,0.316,0.275,0.474,0.567,0.474c0.155,0,0.287-0.054,0.395-0.163
			s0.163-0.238,0.163-0.386c0-0.134-0.036-0.281-0.109-0.442c-0.073-0.161-0.176-0.317-0.31-0.469
			c-0.17-0.2-0.369-0.349-0.596-0.447s-0.501-0.164-0.82-0.197V5.709c0-0.244-0.095-0.366-0.286-0.366
			c-0.188,0-0.281,0.125-0.281,0.375v0.474c-0.617,0.054-1.088,0.244-1.414,0.572c-0.326,0.328-0.489,0.748-0.489,1.26
			c0,0.393,0.083,0.715,0.25,0.965c0.167,0.25,0.384,0.443,0.652,0.578s0.602,0.258,1.001,0.369v2.077
			c-0.2-0.057-0.36-0.138-0.48-0.246c-0.121-0.107-0.211-0.226-0.27-0.355c-0.06-0.13-0.13-0.316-0.21-0.561
			c-0.036-0.113-0.1-0.201-0.192-0.264c-0.092-0.063-0.206-0.094-0.34-0.094c-0.167,0-0.306,0.057-0.418,0.172
			s-0.167,0.243-0.167,0.386c0,0.194,0.042,0.391,0.125,0.592s0.212,0.395,0.386,0.581c0.174,0.186,0.392,0.342,0.652,0.467
			c0.261,0.125,0.565,0.207,0.914,0.246v1.206c0,0.137,0.022,0.238,0.065,0.304c0.043,0.066,0.118,0.098,0.226,0.098
			c0.116,0,0.191-0.04,0.226-0.121s0.051-0.208,0.051-0.384v-1.112c0.426-0.036,0.794-0.147,1.103-0.335s0.544-0.43,0.704-0.726
			c0.159-0.296,0.239-0.614,0.239-0.954c0-0.271-0.05-0.52-0.15-0.748C18.096,9.938,17.954,9.742,17.769,9.578z M15.732,8.774
			c-0.268-0.098-0.468-0.208-0.599-0.328c-0.131-0.121-0.197-0.299-0.197-0.534c0-0.247,0.07-0.432,0.21-0.554
			c0.14-0.122,0.335-0.22,0.585-0.295V8.774z M16.996,11.696c-0.164,0.182-0.396,0.302-0.697,0.362v-1.957
			c0.31,0.098,0.544,0.218,0.704,0.36c0.159,0.141,0.239,0.342,0.239,0.601C17.242,11.303,17.16,11.514,16.996,11.696z"/>
	</g>
	<g>
		<path fill="#455B65" d="M30.684,23.618H1.316c-0.566,0-1.024-0.458-1.024-1.024s0.459-1.024,1.024-1.024h29.367
			c0.566,0,1.024,0.458,1.024,1.024S31.249,23.618,30.684,23.618z"/>
	</g>
	<g>
		<path fill="#455B65" d="M30.684,27.716H1.316c-0.566,0-1.024-0.458-1.024-1.024s0.459-1.024,1.024-1.024h29.367
			c0.566,0,1.024,0.458,1.024,1.024S31.249,27.716,30.684,27.716z"/>
	</g>
	<g>
		<path fill="#455B65" d="M30.684,31.814H1.316c-0.566,0-1.024-0.458-1.024-1.024s0.459-1.024,1.024-1.024h29.367
			c0.566,0,1.024,0.458,1.024,1.024S31.249,31.814,30.684,31.814z"/>
	</g>
</g>
</svg>
