<?xml version="1.0" encoding="utf-8"?>
<!-- Generator: Adobe Illustrator 19.1.0, SVG Export Plug-In . SVG Version: 6.00 Build 0)  -->
<svg version="1.1" id="Layer_1" xmlns="http://www.w3.org/2000/svg" xmlns:xlink="http://www.w3.org/1999/xlink" x="0px" y="0px"
	 viewBox="0 0 32 32" enable-background="new 0 0 32 32" xml:space="preserve">
<g>
	<path fill="#455B65" d="M24.833,11.232c-0.41,0-0.818,0.05-1.217,0.147C23.26,7.491,19.98,4.435,16,4.435
		c-3.479,0-6.472,2.346-7.369,5.614C8.35,10.004,8.07,9.982,7.792,9.982c-3.239,0-5.875,2.636-5.875,5.875s2.636,5.875,5.875,5.875
		h4.729c0.553,0,1-0.448,1-1s-0.447-1-1-1H7.792c-2.137,0-3.875-1.738-3.875-3.875s1.738-3.875,3.875-3.875
		c0.407,0,0.826,0.078,1.28,0.238c0.287,0.102,0.603,0.067,0.86-0.093s0.429-0.428,0.466-0.729C10.74,8.568,13.148,6.435,16,6.435
		c3.114,0,5.648,2.534,5.648,5.648c0,0.231-0.02,0.458-0.046,0.682c-0.045,0.382,0.132,0.756,0.457,0.962
		c0.323,0.205,0.739,0.208,1.064,0.004c0.525-0.327,1.116-0.5,1.709-0.5c1.792,0,3.25,1.458,3.25,3.25s-1.458,3.25-3.25,3.25h-5.313
		c-0.553,0-1,0.448-1,1s0.447,1,1,1h5.313c2.895,0,5.25-2.355,5.25-5.25S27.728,11.232,24.833,11.232z"/>
	<path fill="#455B65" d="M18.181,23.535L17,24.482v-9.708c0-0.552-0.447-1-1-1s-1,0.448-1,1v9.708l-1.181-0.947
		c-0.431-0.345-1.062-0.275-1.406,0.155c-0.346,0.431-0.276,1.06,0.154,1.406l2.807,2.25c0.046,0.037,0.1,0.055,0.15,0.083
		c0.039,0.022,0.074,0.048,0.117,0.064c0.116,0.045,0.236,0.073,0.359,0.073c0.123,0,0.243-0.028,0.359-0.073
		c0.043-0.016,0.078-0.043,0.117-0.065c0.05-0.028,0.104-0.046,0.15-0.083l2.807-2.25c0.431-0.346,0.5-0.975,0.154-1.406
		C19.242,23.26,18.613,23.19,18.181,23.535z"/>
</g>
</svg>
