<?xml version="1.0" encoding="utf-8"?>
<!-- Generator: Adobe Illustrator 19.1.0, SVG Export Plug-In . SVG Version: 6.00 Build 0)  -->
<svg version="1.1" id="Layer_1" xmlns="http://www.w3.org/2000/svg" xmlns:xlink="http://www.w3.org/1999/xlink" x="0px" y="0px"
	 viewBox="0 0 32 32" enable-background="new 0 0 32 32" xml:space="preserve">
<g>
	<g>
		<g>
			<path fill="#455B65" d="M22.637,22.348C24.76,20.352,26,17.519,26,14.436c0-5.858-4.486-10.625-10-10.625S6,8.578,6,14.436
				c0,3.083,1.24,5.916,3.363,7.912c-0.453,0.433-0.738,1.039-0.738,1.713c0,0.807,0.407,1.52,1.024,1.95
				C9.558,26.263,9.5,26.53,9.5,26.813c0,1.31,1.066,2.375,2.376,2.375h0.31l0.896,1.552c0.089,0.155,0.254,0.25,0.433,0.25h0.816
				l0.374,0.649c0.089,0.155,0.254,0.25,0.433,0.25h1.722c0.179,0,0.344-0.095,0.433-0.25l0.374-0.649h0.817
				c0.179,0,0.344-0.095,0.433-0.25l0.896-1.552h0.31c1.31,0,2.376-1.065,2.376-2.375c0-0.283-0.058-0.551-0.149-0.802
				c0.617-0.43,1.024-1.142,1.024-1.95C23.375,23.387,23.09,22.781,22.637,22.348z M20.999,24.437h-0.875h-8.248h-0.875
				c-0.204,0-0.376-0.172-0.376-0.376s0.172-0.375,0.376-0.375h0.379h9.239h0.379c0.204,0,0.376,0.172,0.376,0.375
				S21.203,24.437,20.999,24.437z M8,14.436c0-4.756,3.589-8.625,8-8.625s8,3.869,8,8.625c0,2.962-1.371,5.65-3.683,7.25h-8.634
				C9.371,20.087,8,17.399,8,14.436z M18.196,29.99h-4.392l-0.463-0.802h5.318L18.196,29.99z M20.124,27.189h-8.248
				c-0.204,0-0.376-0.172-0.376-0.375s0.172-0.376,0.376-0.376h8.248c0.204,0,0.376,0.172,0.376,0.376S20.328,27.189,20.124,27.189z
				"/>
		</g>
		<g>
			<path fill="#455B65" d="M16,7.918c3.239,0,5.875,2.834,5.875,6.317c0,0.276,0.224,0.5,0.5,0.5s0.5-0.224,0.5-0.5
				c0-4.035-3.084-7.317-6.875-7.317c-0.276,0-0.5,0.224-0.5,0.5S15.724,7.918,16,7.918z"/>
		</g>
		<g>
			<path fill="#455B65" d="M12.458,20.5c0.083,0.054,0.177,0.079,0.27,0.079c0.165,0,0.326-0.081,0.421-0.23
				c0.149-0.232,0.082-0.542-0.151-0.691c-1.799-1.154-2.873-3.182-2.873-5.422c0-0.276-0.224-0.5-0.5-0.5s-0.5,0.224-0.5,0.5
				C9.125,16.819,10.371,19.16,12.458,20.5z"/>
		</g>
	</g>
	<g>
		<path fill="#455B65" d="M3.813,15.236H1.875c-0.276,0-0.5-0.224-0.5-0.5s0.224-0.5,0.5-0.5h1.938c0.276,0,0.5,0.224,0.5,0.5
			S4.089,15.236,3.813,15.236z"/>
	</g>
	<g>
		<path fill="#455B65" d="M30.125,15.236h-1.938c-0.276,0-0.5-0.224-0.5-0.5s0.224-0.5,0.5-0.5h1.938c0.276,0,0.5,0.224,0.5,0.5
			S30.401,15.236,30.125,15.236z"/>
	</g>
	<g>
		<path fill="#455B65" d="M24.618,6.618c-0.128,0-0.256-0.049-0.354-0.146c-0.195-0.195-0.195-0.512,0-0.707l1.37-1.37
			c0.195-0.195,0.512-0.195,0.707,0s0.195,0.512,0,0.707l-1.37,1.37C24.874,6.569,24.746,6.618,24.618,6.618z"/>
	</g>
	<g>
		<path fill="#455B65" d="M7.382,6.618c-0.128,0-0.256-0.049-0.354-0.146l-1.37-1.37c-0.195-0.195-0.195-0.512,0-0.707
			s0.512-0.195,0.707,0l1.37,1.37c0.195,0.195,0.195,0.512,0,0.707C7.638,6.569,7.51,6.618,7.382,6.618z"/>
	</g>
	<g>
		<path fill="#455B65" d="M16,3.048c-0.276,0-0.5-0.224-0.5-0.5V0.611c0-0.276,0.224-0.5,0.5-0.5s0.5,0.224,0.5,0.5v1.938
			C16.5,2.824,16.276,3.048,16,3.048z"/>
	</g>
	<g>
		<g>
			<path fill="#455B65" d="M7.382,6.618c-0.128,0-0.256-0.049-0.354-0.146l-1.37-1.37c-0.195-0.195-0.195-0.512,0-0.707
				s0.512-0.195,0.707,0l1.37,1.37c0.195,0.195,0.195,0.512,0,0.707C7.638,6.569,7.51,6.618,7.382,6.618z"/>
		</g>
	</g>
</g>
</svg>
