<?xml version="1.0" encoding="utf-8"?>
<!-- Generator: Adobe Illustrator 19.1.0, SVG Export Plug-In . SVG Version: 6.00 Build 0)  -->
<svg version="1.1" id="Layer_1" xmlns="http://www.w3.org/2000/svg" xmlns:xlink="http://www.w3.org/1999/xlink" x="0px" y="0px"
	 viewBox="0 0 32 32" enable-background="new 0 0 32 32" xml:space="preserve">
<path fill="#455B65" d="M28.667,0.274H3.333c-0.552,0-1,0.448-1,1v4.769v0.844v23.839c0,0.552,0.448,1,1,1h25.333
	c0.552,0,1-0.448,1-1V1.274C29.667,0.722,29.219,0.274,28.667,0.274z M15.5,11.234c-0.581,0.207-1,0.757-1,1.408
	c0,0.336,0.115,0.643,0.302,0.894c-0.588,0.008-1.371-0.056-2.439-0.256c-0.272-0.051-0.533,0.128-0.583,0.399
	c-0.051,0.271,0.127,0.533,0.399,0.583c0.988,0.186,1.834,0.278,2.544,0.278c0.281,0,0.538-0.016,0.777-0.045v11.336H5.384
	c-0.371,0-0.722,0.076-1.051,0.198V9.74c0.329,0.122,0.68,0.198,1.051,0.198H15.5V11.234z M4.334,29.726v-0.844
	c0-0.58,0.471-1.051,1.05-1.051h21.231c0.579,0,1.05,0.471,1.05,1.051v0.844l0,0L4.334,29.726L4.334,29.726z M26.616,25.831H16.5
	V14.222c0.254-0.115,0.478-0.251,0.642-0.43c0.476-0.521,0.383-1.096,0.348-1.249c-0.041-0.607-0.44-1.112-0.99-1.309V9.938h10.116
	c0.365,0,0.718-0.073,1.051-0.196v16.288C27.338,25.907,26.986,25.831,26.616,25.831z M4.333,2.274h23.333v3.767
	c0,0,0,0.002,0,0.002v0.844c0,0.278-0.11,0.542-0.309,0.741c-0.2,0.2-0.463,0.31-0.741,0.31H16.5V6.45c0.581-0.207,1-0.757,1-1.408
	c0-0.827-0.673-1.5-1.5-1.5s-1.5,0.673-1.5,1.5c0,0.651,0.419,1.201,1,1.408v1.487H5.384c-0.579,0-1.05-0.472-1.051-1.051V6.043
	V2.274z M16,5.542c-0.276,0-0.5-0.224-0.5-0.5s0.224-0.5,0.5-0.5s0.5,0.224,0.5,0.5S16.276,5.542,16,5.542z"/>
</svg>
