<?xml version="1.0" encoding="utf-8"?>
<!-- Generator: Adobe Illustrator 19.1.0, SVG Export Plug-In . SVG Version: 6.00 Build 0)  -->
<svg version="1.1" id="Layer_1" xmlns="http://www.w3.org/2000/svg" xmlns:xlink="http://www.w3.org/1999/xlink" x="0px" y="0px"
	 viewBox="0 0 32 32" enable-background="new 0 0 32 32" xml:space="preserve">
<g>
	<path fill="#455B65" d="M30.75,26.355c-0.552,0-1,0.447-1,1v0.648H4.094V2.348h0.648c0.552,0,1-0.447,1-1s-0.448-1-1-1H1.445
		c-0.552,0-1,0.447-1,1s0.448,1,1,1h0.648v3.109H0.75c-0.276,0-0.5,0.224-0.5,0.5s0.224,0.5,0.5,0.5h1.344v5.146H0.75
		c-0.276,0-0.5,0.224-0.5,0.5s0.224,0.5,0.5,0.5h1.344v5.146H0.75c-0.276,0-0.5,0.224-0.5,0.5s0.224,0.5,0.5,0.5h1.344v5.146H0.75
		c-0.276,0-0.5,0.224-0.5,0.5s0.224,0.5,0.5,0.5h1.344v4.109c0,0.553,0.448,1,1,1H29.75v0.648c0,0.553,0.448,1,1,1s1-0.447,1-1
		v-3.297C31.75,26.803,31.302,26.355,30.75,26.355z"/>
	<path fill="#455B65" d="M8.339,23.546c1.359,0,2.464-1.105,2.464-2.464c0-0.492-0.148-0.948-0.397-1.333l3.065-3.642
		c0.296,0.127,0.622,0.197,0.964,0.197c0.803,0,1.51-0.391,1.96-0.987l1.546,0.559c-0.002,0.04-0.012,0.078-0.012,0.118
		c0,1.359,1.105,2.465,2.464,2.465c1.359,0,2.464-1.106,2.464-2.465c0-0.513-0.158-0.989-0.427-1.384l3.197-3.984
		c0.282,0.112,0.587,0.178,0.908,0.178c1.359,0,2.464-1.106,2.464-2.464s-1.105-2.464-2.464-2.464c-1.359,0-2.464,1.105-2.464,2.464
		c0,0.513,0.158,0.989,0.427,1.384l-3.197,3.985c-0.282-0.112-0.587-0.178-0.908-0.178c-0.803,0-1.51,0.391-1.96,0.987l-1.546-0.559
		c0.002-0.04,0.012-0.078,0.012-0.118c0-1.359-1.105-2.464-2.464-2.464s-2.464,1.106-2.464,2.464c0,0.492,0.148,0.948,0.398,1.333
		l-3.065,3.641c-0.296-0.126-0.622-0.197-0.964-0.197c-1.359,0-2.464,1.105-2.464,2.464S6.98,23.546,8.339,23.546z M26.536,7.32
		c0.562,0,1.019,0.457,1.019,1.019c0,0.562-0.457,1.02-1.019,1.02c-0.562,0-1.019-0.457-1.019-1.02
		C25.517,7.778,25.974,7.32,26.536,7.32z M20.394,14.975c0.562,0,1.019,0.457,1.019,1.019c0,0.562-0.457,1.02-1.019,1.02
		c-0.562,0-1.019-0.457-1.019-1.02C19.375,15.432,19.832,14.975,20.394,14.975z M14.435,12.82c0.562,0,1.019,0.457,1.019,1.02
		c0,0.562-0.457,1.019-1.019,1.019c-0.562,0-1.02-0.457-1.02-1.019C13.416,13.278,13.873,12.82,14.435,12.82z M8.339,20.062
		c0.562,0,1.019,0.457,1.019,1.019c0,0.562-0.457,1.019-1.019,1.019c-0.562,0-1.019-0.457-1.019-1.019
		C7.32,20.519,7.777,20.062,8.339,20.062z"/>
</g>
</svg>
