<?xml version="1.0" encoding="utf-8"?>
<!-- Generator: Adobe Illustrator 19.1.0, SVG Export Plug-In . SVG Version: 6.00 Build 0)  -->
<svg version="1.1" id="Layer_1" xmlns="http://www.w3.org/2000/svg" xmlns:xlink="http://www.w3.org/1999/xlink" x="0px" y="0px"
	 viewBox="0 0 32 32" enable-background="new 0 0 32 32" xml:space="preserve">
<path fill="#455B65" d="M29.374,7.909c-0.188-0.188-0.442-0.293-0.707-0.293h-4.378l2.143-2.143c1.087-1.089,1.087-2.859,0-3.948
	c-1.089-1.088-2.859-1.088-3.948,0l-6.09,6.091H3.333c-0.552,0-1,0.447-1,1v5.613c0,1.33,0.861,2.452,2.051,2.869V30.29
	c0,0.553,0.448,1,1,1h21.231c0.552,0,1-0.447,1-1V17.098c1.19-0.416,2.05-1.538,2.05-2.869l0-5.613
	C29.667,8.352,29.561,8.097,29.374,7.909z M23.897,2.94c0.308-0.309,0.811-0.31,1.119,0c0.309,0.309,0.309,0.812,0,1.12
	l-3.848,3.848c-0.001,0.001-0.002,0.002-0.003,0.003l-4.454,4.454c-0.296,0.297-0.823,0.297-1.12,0
	c-0.148-0.148-0.229-0.347-0.229-0.56s0.082-0.411,0.229-0.56L23.897,2.94z M25.616,29.29h-2.039v-3.416c0-0.276-0.224-0.5-0.5-0.5
	s-0.5,0.224-0.5,0.5v3.416h-2.539v-3.416c0-0.276-0.224-0.5-0.5-0.5s-0.5,0.224-0.5,0.5v3.416H16.5v-3.416
	c0-0.276-0.224-0.5-0.5-0.5s-0.5,0.224-0.5,0.5v3.416h-2.539v-3.416c0-0.276-0.224-0.5-0.5-0.5s-0.5,0.224-0.5,0.5v3.416H9.423
	v-3.416c0-0.276-0.224-0.5-0.5-0.5s-0.5,0.224-0.5,0.5v3.416H6.384v-12.01h19.231V29.29z M27.666,14.23
	c0,0.579-0.471,1.051-1.05,1.051H5.384c-0.58,0-1.051-0.472-1.051-1.051V9.616h10.06l-0.215,0.215
	c-0.526,0.525-0.815,1.227-0.815,1.974s0.29,1.448,0.815,1.974c0.526,0.526,1.227,0.815,1.975,0.815s1.449-0.289,1.974-0.815
	l4.162-4.162h5.378L27.666,14.23z"/>
</svg>
