<?xml version="1.0" encoding="utf-8"?>
<!-- Generator: Adobe Illustrator 19.1.0, SVG Export Plug-In . SVG Version: 6.00 Build 0)  -->
<svg version="1.1" id="Layer_1" xmlns="http://www.w3.org/2000/svg" xmlns:xlink="http://www.w3.org/1999/xlink" x="0px" y="0px"
	 viewBox="0 0 32 32" enable-background="new 0 0 32 32" xml:space="preserve">
<g>
	<path fill="#455B65" d="M30.791,0.5H1.209c-0.553,0-1,0.448-1,1v4.802V30.5c0,0.552,0.447,1,1,1h29.582c0.553,0,1-0.448,1-1V6.303
		V1.5C31.791,0.948,31.344,0.5,30.791,0.5z M2.209,2.5h27.582v2.802H2.209V2.5z M29.791,29.5H2.209V7.303h27.582V29.5z"/>
	<circle fill="#455B65" cx="4" cy="3.902" r="0.78"/>
	<circle fill="#455B65" cx="6" cy="3.902" r="0.78"/>
	<circle fill="#455B65" cx="8" cy="3.902" r="0.78"/>
	<path fill="#455B65" d="M3.65,17.323c0.002,0.005,0.007,0.007,0.008,0.011c0.032,0.088,0.088,0.161,0.16,0.218
		c0.015,0.012,0.03,0.021,0.046,0.031c0.077,0.048,0.162,0.083,0.26,0.083h23.708c0.097,0,0.183-0.035,0.26-0.083
		c0.017-0.01,0.031-0.019,0.046-0.031c0.072-0.057,0.128-0.13,0.16-0.218c0.002-0.005,0.007-0.007,0.008-0.011
		c0.008-0.025,0.005-0.05,0.009-0.075c0.005-0.027,0.016-0.052,0.016-0.081V9.375c0-0.029-0.012-0.054-0.016-0.081
		c-0.004-0.025-0.001-0.05-0.009-0.075c-0.002-0.006-0.007-0.01-0.009-0.017c-0.013-0.035-0.034-0.065-0.054-0.096
		c-0.016-0.024-0.028-0.05-0.048-0.071c-0.022-0.024-0.05-0.04-0.077-0.059c-0.026-0.019-0.049-0.039-0.078-0.052
		c-0.026-0.012-0.054-0.016-0.082-0.023c-0.036-0.01-0.071-0.021-0.109-0.022c-0.006,0-0.012-0.004-0.018-0.004H4.125
		c-0.007,0-0.012,0.003-0.018,0.004C4.068,8.88,4.032,8.891,3.995,8.901C3.969,8.908,3.941,8.912,3.917,8.923
		C3.886,8.937,3.861,8.959,3.834,8.979C3.809,8.997,3.783,9.013,3.762,9.035c-0.02,0.021-0.033,0.048-0.049,0.073
		c-0.02,0.03-0.04,0.059-0.053,0.094C3.658,9.208,3.652,9.212,3.65,9.219c-0.008,0.025-0.005,0.05-0.009,0.075
		C3.637,9.321,3.625,9.346,3.625,9.375v7.792c0,0.029,0.012,0.054,0.016,0.081C3.646,17.273,3.642,17.298,3.65,17.323z
		 M27.333,16.476l-9.752-3.205l9.752-3.205V16.476z M24.71,16.667H7.248l8.731-2.869L24.71,16.667z M15.979,12.744L7.248,9.875
		H24.71L15.979,12.744z M14.377,13.271l-9.752,3.205v-6.41L14.377,13.271z"/>
	<path fill="#455B65" d="M4.125,20.984C4.125,20.984,4.125,20.984,4.125,20.984l10.813-0.013c0.275,0,0.499-0.225,0.499-0.5
		s-0.225-0.5-0.5-0.5c0,0,0,0-0.001,0L4.124,19.984c-0.275,0-0.499,0.225-0.499,0.5S3.85,20.984,4.125,20.984z"/>
	<path fill="#455B65" d="M4.125,24.079C4.125,24.079,4.125,24.079,4.125,24.079l10.813-0.013c0.275,0,0.499-0.225,0.499-0.5
		s-0.224-0.5-0.5-0.5c0,0,0,0-0.001,0L4.124,23.079c-0.275,0-0.499,0.225-0.499,0.5S3.849,24.079,4.125,24.079z"/>
	<path fill="#455B65" d="M4.125,27.174C4.125,27.174,4.125,27.174,4.125,27.174l10.813-0.013c0.275,0,0.499-0.225,0.499-0.5
		s-0.224-0.5-0.5-0.5c0,0,0,0-0.001,0L4.124,26.174c-0.275,0-0.499,0.225-0.499,0.5S3.849,27.174,4.125,27.174z"/>
	<path fill="#455B65" d="M27.844,19.971C27.844,19.971,27.844,19.971,27.844,19.971L17.03,19.984c-0.275,0-0.499,0.225-0.499,0.5
		s0.225,0.5,0.5,0.5c0,0,0,0,0.001,0l10.813-0.013c0.275,0,0.499-0.225,0.499-0.5S28.119,19.971,27.844,19.971z"/>
	<path fill="#455B65" d="M27.844,23.066C27.844,23.066,27.844,23.066,27.844,23.066L17.03,23.079c-0.275,0-0.499,0.225-0.499,0.5
		s0.224,0.5,0.5,0.5c0,0,0,0,0.001,0l10.813-0.013c0.275,0,0.499-0.225,0.499-0.5S28.12,23.066,27.844,23.066z"/>
	<path fill="#455B65" d="M24.125,26.161L24.125,26.161l-7.095,0.013c-0.276,0-0.5,0.225-0.499,0.501
		c0.001,0.276,0.225,0.499,0.5,0.499h0.001l7.094-0.013c0.276,0,0.5-0.225,0.499-0.501C24.624,26.384,24.4,26.161,24.125,26.161z"/>
</g>
</svg>
