<?xml version="1.0" encoding="utf-8"?>
<!-- Generator: Adobe Illustrator 19.1.0, SVG Export Plug-In . SVG Version: 6.00 Build 0)  -->
<svg version="1.1" id="Layer_1" xmlns="http://www.w3.org/2000/svg" xmlns:xlink="http://www.w3.org/1999/xlink" x="0px" y="0px"
	 viewBox="0 0 32 32" enable-background="new 0 0 32 32" xml:space="preserve">
<g>
	<g>
		<g>
			<path fill="#455B65" d="M30.798,28.473H1.215c-0.552,0-1-0.447-1-1L0.202,7.953v0V6.25c0-1.501,1.222-2.723,2.723-2.723h8.131
				c0.226,0,0.445,0.077,0.622,0.217l4.038,3.208h15.082c0.552,0,1,0.448,1,1v19.521C31.798,28.025,31.35,28.473,30.798,28.473z
				 M2.215,26.473h27.583V8.952H15.367c-0.226,0-0.445-0.077-0.622-0.217l-4.038-3.208H2.925c-0.399,0-0.723,0.324-0.723,0.723
				L2.215,26.473z"/>
		</g>
	</g>
	<g>
		<g>
			<path fill="#455B65" d="M27.861,22.212h-7.063c-0.276,0-0.5-0.224-0.5-0.5s0.224-0.5,0.5-0.5h7.063c0.276,0,0.5,0.224,0.5,0.5
				S28.138,22.212,27.861,22.212z"/>
		</g>
		<g>
			<path fill="#455B65" d="M27.861,25.108h-4.188c-0.276,0-0.5-0.224-0.5-0.5s0.224-0.5,0.5-0.5h4.188c0.276,0,0.5,0.224,0.5,0.5
				S28.138,25.108,27.861,25.108z"/>
		</g>
	</g>
</g>
</svg>
