<?xml version="1.0" encoding="utf-8"?>
<!-- Generator: Adobe Illustrator 19.1.0, SVG Export Plug-In . SVG Version: 6.00 Build 0)  -->
<svg version="1.1" id="Layer_1" xmlns="http://www.w3.org/2000/svg" xmlns:xlink="http://www.w3.org/1999/xlink" x="0px" y="0px"
	 viewBox="0 0 32 32" enable-background="new 0 0 32 32" xml:space="preserve">
<g>
	<path fill="#455B65" d="M30.503,4.475h-9.672V2.766c0-0.276-0.224-0.5-0.5-0.5h-8.662c-0.276,0-0.5,0.224-0.5,0.5v1.709H1.497
		c-0.553,0-1,0.447-1,1V23.11c0,0.553,0.447,1,1,1h29.006c0.553,0,1-0.447,1-1V5.475C31.503,4.922,31.056,4.475,30.503,4.475z
		 M12.169,3.266h7.662v1.209h-7.662V3.266z M29.503,22.11H2.497V6.475h27.006V22.11z"/>
	<path fill="#455B65" d="M30.503,25.641H1.497c-0.553,0-1,0.447-1,1s0.447,1,1,1h3.788l-0.887,0.887
		c-0.391,0.391-0.391,1.023,0,1.414c0.195,0.195,0.451,0.293,0.707,0.293s0.512-0.098,0.707-0.293l2.301-2.301h15.773l2.301,2.301
		c0.195,0.195,0.451,0.293,0.707,0.293s0.512-0.098,0.707-0.293c0.391-0.391,0.391-1.023,0-1.414l-0.887-0.887h3.788
		c0.553,0,1-0.447,1-1S31.056,25.641,30.503,25.641z"/>
	<path fill="#455B65" d="M6.793,19.101h1.545c0.276,0,0.5-0.224,0.5-0.5v-4.084c0-0.276-0.224-0.5-0.5-0.5H6.793
		c-0.276,0-0.5,0.224-0.5,0.5v4.084C6.293,18.877,6.517,19.101,6.793,19.101z M7.293,15.017h0.545v3.084H7.293V15.017z"/>
	<path fill="#455B65" d="M10.167,19.101h1.545c0.276,0,0.5-0.224,0.5-0.5V9.85c0-0.276-0.224-0.5-0.5-0.5h-1.545
		c-0.276,0-0.5,0.224-0.5,0.5v8.751C9.667,18.877,9.891,19.101,10.167,19.101z M10.667,10.35h0.545v7.751h-0.545V10.35z"/>
	<path fill="#455B65" d="M13.54,19.101h1.546c0.276,0,0.5-0.224,0.5-0.5v-6.991c0-0.276-0.224-0.5-0.5-0.5H13.54
		c-0.276,0-0.5,0.224-0.5,0.5v6.991C13.04,18.877,13.264,19.101,13.54,19.101z M14.04,12.109h0.546v5.991H14.04V12.109z"/>
	<path fill="#455B65" d="M23.662,19.101h1.545c0.276,0,0.5-0.224,0.5-0.5v-4.084c0-0.276-0.224-0.5-0.5-0.5h-1.545
		c-0.276,0-0.5,0.224-0.5,0.5v4.084C23.162,18.877,23.386,19.101,23.662,19.101z M24.162,15.017h0.545v3.084h-0.545V15.017z"/>
	<path fill="#455B65" d="M20.288,19.101h1.545c0.276,0,0.5-0.224,0.5-0.5V9.85c0-0.276-0.224-0.5-0.5-0.5h-1.545
		c-0.276,0-0.5,0.224-0.5,0.5v8.751C19.788,18.877,20.012,19.101,20.288,19.101z M20.788,10.35h0.545v7.751h-0.545V10.35z"/>
	<path fill="#455B65" d="M16.914,19.101h1.546c0.276,0,0.5-0.224,0.5-0.5v-5.991c0-0.276-0.224-0.5-0.5-0.5h-1.546
		c-0.276,0-0.5,0.224-0.5,0.5v5.991C16.414,18.877,16.638,19.101,16.914,19.101z M17.414,13.109h0.546v4.991h-0.546V13.109z"/>
</g>
</svg>
