<?xml version="1.0" encoding="utf-8"?>
<!-- Generator: Adobe Illustrator 19.1.0, SVG Export Plug-In . SVG Version: 6.00 Build 0)  -->
<svg version="1.1" id="Layer_1" xmlns="http://www.w3.org/2000/svg" xmlns:xlink="http://www.w3.org/1999/xlink" x="0px" y="0px"
	 viewBox="0 0 32 32" enable-background="new 0 0 32 32" xml:space="preserve">
<g>
	<path fill="#455B65" d="M11.354,8.394c0-1.655-0.812-3.114-2.048-4.034V3.433c0-1.651-1.344-2.995-2.995-2.995
		S3.317,1.781,3.317,3.433v0.927C2.082,5.279,1.27,6.738,1.27,8.394s0.812,3.114,2.048,4.034v16.14c0,1.651,1.343,2.995,2.994,2.995
		s2.995-1.344,2.995-2.995V12.427C10.542,11.507,11.354,10.049,11.354,8.394z M5.317,3.433c0-0.549,0.446-0.995,0.994-0.995
		c0.549,0,0.995,0.446,0.995,0.995v0.019C6.985,3.386,6.652,3.351,6.312,3.351c-0.34,0-0.672,0.036-0.994,0.101V3.433z
		 M7.307,28.567c0,0.549-0.446,0.995-0.995,0.995c-0.548,0-0.994-0.446-0.994-0.995V13.335c0.322,0.065,0.654,0.101,0.994,0.101
		c0.341,0,0.673-0.036,0.995-0.101V28.567z M6.312,11.436c-1.678,0-3.042-1.364-3.042-3.042s1.364-3.043,3.042-3.043
		s3.043,1.365,3.043,3.043S7.989,11.436,6.312,11.436z"/>
	<path fill="#455B65" d="M18.995,18.526V3.433c0-1.651-1.344-2.995-2.995-2.995s-2.995,1.344-2.995,2.995v15.094
		c-1.235,0.92-2.047,2.379-2.047,4.033s0.812,3.113,2.047,4.033v1.975c0,1.651,1.344,2.995,2.995,2.995s2.995-1.344,2.995-2.995
		v-1.975c1.235-0.92,2.047-2.378,2.047-4.033S20.23,19.446,18.995,18.526z M15.005,3.433c0-0.549,0.446-0.995,0.995-0.995
		s0.995,0.446,0.995,0.995v14.185c-0.322-0.065-0.654-0.101-0.995-0.101s-0.673,0.036-0.995,0.101V3.433z M16.995,28.567
		c0,0.549-0.446,0.995-0.995,0.995s-0.995-0.446-0.995-0.995v-1.066c0.322,0.065,0.654,0.101,0.995,0.101s0.673-0.036,0.995-0.101
		V28.567z M16,25.602c-1.678,0-3.042-1.364-3.042-3.042s1.364-3.043,3.042-3.043s3.042,1.365,3.042,3.043S17.678,25.602,16,25.602z"
		/>
	<path fill="#455B65" d="M30.73,13.417c0-1.655-0.812-3.114-2.048-4.034V3.433c0-1.651-1.343-2.995-2.994-2.995
		s-2.995,1.344-2.995,2.995v5.951c-1.235,0.92-2.048,2.378-2.048,4.033s0.812,3.114,2.048,4.034v11.117
		c0,1.651,1.344,2.995,2.995,2.995s2.994-1.344,2.994-2.995V17.451C29.918,16.531,30.73,15.072,30.73,13.417z M24.693,3.433
		c0-0.549,0.446-0.995,0.995-0.995c0.548,0,0.994,0.446,0.994,0.995v5.043c-0.322-0.065-0.654-0.101-0.994-0.101
		c-0.341,0-0.673,0.036-0.995,0.101V3.433z M26.683,28.567c0,0.549-0.446,0.995-0.994,0.995c-0.549,0-0.995-0.446-0.995-0.995
		V18.359c0.322,0.065,0.654,0.101,0.995,0.101c0.34,0,0.672-0.036,0.994-0.101V28.567z M25.688,16.46
		c-1.678,0-3.043-1.365-3.043-3.043s1.365-3.042,3.043-3.042s3.042,1.364,3.042,3.042S27.366,16.46,25.688,16.46z"/>
</g>
</svg>
