<?xml version="1.0" encoding="utf-8"?>
<!-- Generator: Adobe Illustrator 19.1.0, SVG Export Plug-In . SVG Version: 6.00 Build 0)  -->
<svg version="1.1" id="Layer_1" xmlns="http://www.w3.org/2000/svg" xmlns:xlink="http://www.w3.org/1999/xlink" x="0px" y="0px"
	 viewBox="0 0 32 32" enable-background="new 0 0 32 32" xml:space="preserve">
<g>
	<path fill="#455B65" d="M24.389,0.417H7.611c-0.553,0-1,0.447-1,1v29.166c0,0.553,0.447,1,1,1h16.777c0.553,0,1-0.447,1-1V1.417
		C25.389,0.864,24.941,0.417,24.389,0.417z M23.389,2.417v4.137H8.611V2.417H23.389z M23.389,7.554v17.083H8.611V7.554H23.389z
		 M8.611,29.583v-3.946h14.777v3.946H8.611z"/>
	<circle fill="#455B65" cx="16" cy="27.648" r="0.951"/>
	<rect x="10.625" y="20.291" fill="#455B65" width="10.75" height="1"/>
	<rect x="11.05" y="14.481" fill="#455B65" width="2" height="4.114"/>
	<rect x="15.008" y="10.209" fill="#455B65" width="2" height="8.387"/>
	<rect x="18.966" y="12.593" fill="#455B65" width="2" height="6.003"/>
</g>
</svg>
