<?xml version="1.0" encoding="utf-8"?>
<!-- Generator: Adobe Illustrator 19.1.0, SVG Export Plug-In . SVG Version: 6.00 Build 0)  -->
<svg version="1.1" id="Layer_1" xmlns="http://www.w3.org/2000/svg" xmlns:xlink="http://www.w3.org/1999/xlink" x="0px" y="0px"
	 viewBox="0 0 32 32" enable-background="new 0 0 32 32" xml:space="preserve">
<g>
	<path fill="#455B65" d="M31,26.625c-0.552,0-1,0.447-1,1v0.688H3.688V2h0.688c0.552,0,1-0.447,1-1s-0.448-1-1-1H1
		C0.448,0,0,0.447,0,1s0.448,1,1,1h0.688v27.313c0,0.553,0.448,1,1,1H30V31c0,0.553,0.448,1,1,1s1-0.447,1-1v-3.375
		C32,27.072,31.552,26.625,31,26.625z"/>
	<path fill="#455B65" d="M5.043,27.082c0.195,0.195,0.451,0.293,0.707,0.293s0.512-0.098,0.707-0.293l10.449-10.449l3.074,3.074
		c0.375,0.375,1.039,0.375,1.414,0l5.014-5.014l0.166,1.505c0.057,0.512,0.49,0.891,0.993,0.891c0.037,0,0.074-0.002,0.111-0.006
		c0.549-0.061,0.945-0.555,0.885-1.104l-0.394-3.576c-0.006-0.059-0.031-0.11-0.048-0.165c-0.012-0.043-0.018-0.086-0.037-0.127
		c-0.101-0.228-0.281-0.408-0.509-0.509c-0.041-0.018-0.083-0.024-0.126-0.036c-0.055-0.016-0.107-0.041-0.166-0.048l-3.575-0.394
		c-0.545-0.056-1.043,0.336-1.104,0.885c-0.061,0.549,0.335,1.043,0.884,1.104l1.505,0.166l-4.307,4.307l-3.074-3.074
		c-0.375-0.375-1.039-0.375-1.414,0L5.043,25.668C4.653,26.059,4.653,26.691,5.043,27.082z"/>
	<path fill="#455B65" d="M27.461,25.833c-0.276,0-0.5,0.224-0.5,0.5v0.5c0,0.276,0.224,0.5,0.5,0.5s0.5-0.224,0.5-0.5v-0.5
		C27.961,26.056,27.737,25.833,27.461,25.833z"/>
	<path fill="#455B65" d="M27.461,8.004c0.276,0,0.5-0.224,0.5-0.5v-0.99c0-0.276-0.224-0.5-0.5-0.5s-0.5,0.224-0.5,0.5v0.99
		C26.961,7.781,27.185,8.004,27.461,8.004z"/>
	<path fill="#455B65" d="M27.961,18.405c0-0.276-0.224-0.5-0.5-0.5s-0.5,0.224-0.5,0.5v0.991c0,0.276,0.224,0.5,0.5,0.5
		s0.5-0.224,0.5-0.5V18.405z"/>
	<path fill="#455B65" d="M27.961,22.369c0-0.276-0.224-0.5-0.5-0.5s-0.5,0.224-0.5,0.5v0.991c0,0.276,0.224,0.5,0.5,0.5
		s0.5-0.224,0.5-0.5V22.369z"/>
	<path fill="#455B65" d="M27.461,4.042c0.276,0,0.5-0.224,0.5-0.5v-0.5c0-0.276-0.224-0.5-0.5-0.5s-0.5,0.224-0.5,0.5v0.5
		C26.961,3.818,27.185,4.042,27.461,4.042z"/>
	<path fill="#455B65" d="M23.922,25.833c-0.276,0-0.5,0.224-0.5,0.5v0.5c0,0.276,0.224,0.5,0.5,0.5s0.5-0.224,0.5-0.5v-0.5
		C24.422,26.056,24.198,25.833,23.922,25.833z"/>
	<path fill="#455B65" d="M23.922,8.004c0.276,0,0.5-0.224,0.5-0.5v-0.99c0-0.276-0.224-0.5-0.5-0.5s-0.5,0.224-0.5,0.5v0.99
		C23.422,7.781,23.645,8.004,23.922,8.004z"/>
	<path fill="#455B65" d="M24.422,22.369c0-0.276-0.224-0.5-0.5-0.5s-0.5,0.224-0.5,0.5v0.991c0,0.276,0.224,0.5,0.5,0.5
		s0.5-0.224,0.5-0.5V22.369z"/>
	<path fill="#455B65" d="M24.422,18.405c0-0.276-0.224-0.5-0.5-0.5s-0.5,0.224-0.5,0.5v0.991c0,0.276,0.224,0.5,0.5,0.5
		s0.5-0.224,0.5-0.5V18.405z"/>
	<path fill="#455B65" d="M23.922,4.042c0.276,0,0.5-0.224,0.5-0.5v-0.5c0-0.276-0.224-0.5-0.5-0.5s-0.5,0.224-0.5,0.5v0.5
		C23.422,3.818,23.645,4.042,23.922,4.042z"/>
	<path fill="#455B65" d="M20.383,25.833c-0.276,0-0.5,0.224-0.5,0.5v0.5c0,0.276,0.224,0.5,0.5,0.5s0.5-0.224,0.5-0.5v-0.5
		C20.883,26.056,20.659,25.833,20.383,25.833z"/>
	<path fill="#455B65" d="M20.883,22.369c0-0.276-0.224-0.5-0.5-0.5s-0.5,0.224-0.5,0.5v0.991c0,0.276,0.224,0.5,0.5,0.5
		s0.5-0.224,0.5-0.5V22.369z"/>
	<path fill="#455B65" d="M20.383,15.932c0.276,0,0.5-0.224,0.5-0.5v-0.991c0-0.276-0.224-0.5-0.5-0.5s-0.5,0.224-0.5,0.5v0.991
		C19.883,15.709,20.106,15.932,20.383,15.932z"/>
	<path fill="#455B65" d="M20.383,8.004c0.276,0,0.5-0.224,0.5-0.5v-0.99c0-0.276-0.224-0.5-0.5-0.5s-0.5,0.224-0.5,0.5v0.99
		C19.883,7.781,20.106,8.004,20.383,8.004z"/>
	<path fill="#455B65" d="M20.383,11.968c0.276,0,0.5-0.224,0.5-0.5v-0.99c0-0.276-0.224-0.5-0.5-0.5s-0.5,0.224-0.5,0.5v0.99
		C19.883,11.745,20.106,11.968,20.383,11.968z"/>
	<path fill="#455B65" d="M20.383,4.042c0.276,0,0.5-0.224,0.5-0.5v-0.5c0-0.276-0.224-0.5-0.5-0.5s-0.5,0.224-0.5,0.5v0.5
		C19.883,3.818,20.106,4.042,20.383,4.042z"/>
	<path fill="#455B65" d="M16.844,25.833c-0.276,0-0.5,0.224-0.5,0.5v0.5c0,0.276,0.224,0.5,0.5,0.5s0.5-0.224,0.5-0.5v-0.5
		C17.344,26.056,17.12,25.833,16.844,25.833z"/>
	<path fill="#455B65" d="M17.344,22.369c0-0.276-0.224-0.5-0.5-0.5s-0.5,0.224-0.5,0.5v0.991c0,0.276,0.224,0.5,0.5,0.5
		s0.5-0.224,0.5-0.5V22.369z"/>
	<path fill="#455B65" d="M17.344,18.405c0-0.276-0.224-0.5-0.5-0.5s-0.5,0.224-0.5,0.5v0.991c0,0.276,0.224,0.5,0.5,0.5
		s0.5-0.224,0.5-0.5V18.405z"/>
	<path fill="#455B65" d="M16.844,11.968c0.276,0,0.5-0.224,0.5-0.5v-0.99c0-0.276-0.224-0.5-0.5-0.5s-0.5,0.224-0.5,0.5v0.99
		C16.344,11.745,16.567,11.968,16.844,11.968z"/>
	<path fill="#455B65" d="M16.844,8.004c0.276,0,0.5-0.224,0.5-0.5v-0.99c0-0.276-0.224-0.5-0.5-0.5s-0.5,0.224-0.5,0.5v0.99
		C16.344,7.781,16.567,8.004,16.844,8.004z"/>
	<path fill="#455B65" d="M16.844,4.042c0.276,0,0.5-0.224,0.5-0.5v-0.5c0-0.276-0.224-0.5-0.5-0.5s-0.5,0.224-0.5,0.5v0.5
		C16.344,3.818,16.567,4.042,16.844,4.042z"/>
	<path fill="#455B65" d="M13.305,25.833c-0.276,0-0.5,0.224-0.5,0.5v0.5c0,0.276,0.224,0.5,0.5,0.5s0.5-0.224,0.5-0.5v-0.5
		C13.805,26.056,13.581,25.833,13.305,25.833z"/>
	<path fill="#455B65" d="M13.805,22.369c0-0.276-0.224-0.5-0.5-0.5s-0.5,0.224-0.5,0.5v0.991c0,0.276,0.224,0.5,0.5,0.5
		s0.5-0.224,0.5-0.5V22.369z"/>
	<path fill="#455B65" d="M13.305,15.932c0.276,0,0.5-0.224,0.5-0.5v-0.991c0-0.276-0.224-0.5-0.5-0.5s-0.5,0.224-0.5,0.5v0.991
		C12.805,15.709,13.028,15.932,13.305,15.932z"/>
	<path fill="#455B65" d="M13.305,11.968c0.276,0,0.5-0.224,0.5-0.5v-0.99c0-0.276-0.224-0.5-0.5-0.5s-0.5,0.224-0.5,0.5v0.99
		C12.805,11.745,13.028,11.968,13.305,11.968z"/>
	<path fill="#455B65" d="M13.305,8.004c0.276,0,0.5-0.224,0.5-0.5v-0.99c0-0.276-0.224-0.5-0.5-0.5s-0.5,0.224-0.5,0.5v0.99
		C12.805,7.781,13.028,8.004,13.305,8.004z"/>
	<path fill="#455B65" d="M13.305,4.042c0.276,0,0.5-0.224,0.5-0.5v-0.5c0-0.276-0.224-0.5-0.5-0.5s-0.5,0.224-0.5,0.5v0.5
		C12.805,3.818,13.028,4.042,13.305,4.042z"/>
	<path fill="#455B65" d="M9.266,26.333v0.5c0,0.276,0.224,0.5,0.5,0.5s0.5-0.224,0.5-0.5v-0.5c0-0.276-0.224-0.5-0.5-0.5
		S9.266,26.056,9.266,26.333z"/>
	<path fill="#455B65" d="M9.766,15.932c0.276,0,0.5-0.224,0.5-0.5v-0.991c0-0.276-0.224-0.5-0.5-0.5s-0.5,0.224-0.5,0.5v0.991
		C9.266,15.709,9.49,15.932,9.766,15.932z"/>
	<path fill="#455B65" d="M9.766,19.896c0.276,0,0.5-0.224,0.5-0.5v-0.991c0-0.276-0.224-0.5-0.5-0.5s-0.5,0.224-0.5,0.5v0.991
		C9.266,19.672,9.49,19.896,9.766,19.896z"/>
	<path fill="#455B65" d="M9.766,11.968c0.276,0,0.5-0.224,0.5-0.5v-0.99c0-0.276-0.224-0.5-0.5-0.5s-0.5,0.224-0.5,0.5v0.99
		C9.266,11.745,9.49,11.968,9.766,11.968z"/>
	<path fill="#455B65" d="M9.766,8.004c0.276,0,0.5-0.224,0.5-0.5v-0.99c0-0.276-0.224-0.5-0.5-0.5s-0.5,0.224-0.5,0.5v0.99
		C9.266,7.781,9.49,8.004,9.766,8.004z"/>
	<path fill="#455B65" d="M9.766,4.042c0.276,0,0.5-0.224,0.5-0.5v-0.5c0-0.276-0.224-0.5-0.5-0.5s-0.5,0.224-0.5,0.5v0.5
		C9.266,3.818,9.49,4.042,9.766,4.042z"/>
	<path fill="#455B65" d="M6.227,23.86c0.276,0,0.5-0.224,0.5-0.5v-0.991c0-0.276-0.224-0.5-0.5-0.5s-0.5,0.224-0.5,0.5v0.991
		C5.727,23.636,5.951,23.86,6.227,23.86z"/>
	<path fill="#455B65" d="M6.227,15.932c0.276,0,0.5-0.224,0.5-0.5v-0.991c0-0.276-0.224-0.5-0.5-0.5s-0.5,0.224-0.5,0.5v0.991
		C5.727,15.709,5.951,15.932,6.227,15.932z"/>
	<path fill="#455B65" d="M6.227,19.896c0.276,0,0.5-0.224,0.5-0.5v-0.991c0-0.276-0.224-0.5-0.5-0.5s-0.5,0.224-0.5,0.5v0.991
		C5.727,19.672,5.951,19.896,6.227,19.896z"/>
	<path fill="#455B65" d="M6.227,11.968c0.276,0,0.5-0.224,0.5-0.5v-0.99c0-0.276-0.224-0.5-0.5-0.5s-0.5,0.224-0.5,0.5v0.99
		C5.727,11.745,5.951,11.968,6.227,11.968z"/>
	<path fill="#455B65" d="M6.227,8.004c0.276,0,0.5-0.224,0.5-0.5v-0.99c0-0.276-0.224-0.5-0.5-0.5s-0.5,0.224-0.5,0.5v0.99
		C5.727,7.781,5.951,8.004,6.227,8.004z"/>
	<path fill="#455B65" d="M6.227,4.042c0.276,0,0.5-0.224,0.5-0.5v-0.5c0-0.276-0.224-0.5-0.5-0.5s-0.5,0.224-0.5,0.5v0.5
		C5.727,3.818,5.951,4.042,6.227,4.042z"/>
</g>
</svg>
