<?xml version="1.0" encoding="utf-8"?>
<!-- Generator: Adobe Illustrator 19.1.0, SVG Export Plug-In . SVG Version: 6.00 Build 0)  -->
<svg version="1.1" id="Layer_1" xmlns="http://www.w3.org/2000/svg" xmlns:xlink="http://www.w3.org/1999/xlink" x="0px" y="0px"
	 viewBox="0 0 32 32" enable-background="new 0 0 32 32" xml:space="preserve">
<path fill="#455B65" d="M22.17,6.17c-2.336,0-4.481,0.822-6.17,2.188C14.312,6.992,12.166,6.17,9.83,6.17C4.41,6.17,0,10.58,0,16
	c0,5.42,4.41,9.83,9.83,9.83c2.336,0,4.481-0.822,6.17-2.188c1.688,1.366,3.834,2.188,6.17,2.188C27.59,25.83,32,21.42,32,16
	C32,10.58,27.59,6.17,22.17,6.17z M16,20.848c-0.881-1.119-1.467-2.479-1.634-3.966l2.53,2.53
	C16.648,19.923,16.349,20.405,16,20.848z M17.301,18.42l-2.96-2.96c0.048-0.707,0.19-1.387,0.414-2.031l2.915,2.915
	C17.638,17.065,17.515,17.762,17.301,18.42z M15.171,12.45c0.235-0.46,0.512-0.894,0.829-1.297c0.832,1.057,1.396,2.331,1.597,3.723
	L15.171,12.45z M1.974,16c0-4.332,3.524-7.856,7.856-7.856c1.786,0,3.43,0.606,4.751,1.614c-1.4,1.699-2.242,3.874-2.242,6.242
	c0,2.368,0.842,4.543,2.242,6.242c-1.321,1.008-2.965,1.614-4.751,1.614C5.499,23.856,1.974,20.332,1.974,16z M22.17,23.856
	c-1.786,0-3.43-0.606-4.751-1.614c1.4-1.699,2.242-3.874,2.242-6.242c0-2.368-0.842-4.543-2.242-6.242
	c1.321-1.008,2.965-1.614,4.751-1.614c4.332,0,7.856,3.524,7.856,7.856S26.501,23.856,22.17,23.856z"/>
</svg>
