<?xml version="1.0" encoding="utf-8"?>
<!-- Generator: Adobe Illustrator 19.1.0, SVG Export Plug-In . SVG Version: 6.00 Build 0)  -->
<svg version="1.1" id="Layer_1" xmlns="http://www.w3.org/2000/svg" xmlns:xlink="http://www.w3.org/1999/xlink" x="0px" y="0px"
	 viewBox="0 0 32 32" enable-background="new 0 0 32 32" xml:space="preserve">
<g>
	<path fill="#455B65" d="M29.351,8.142l-8.093-7.597c-0.186-0.174-0.43-0.271-0.685-0.271H3.334c-0.552,0-1,0.448-1,1v29.452
		c0,0.552,0.448,1,1,1h25.333c0.552,0,1-0.448,1-1V8.871C29.666,8.594,29.552,8.331,29.351,8.142z M21.073,3.115l5.599,5.256h-5.599
		V3.115z M4.334,29.726V2.274h15.74v6.597c0,0.276,0.224,0.5,0.5,0.5h7.093v20.355H4.334z"/>
	<path fill="#455B65" d="M7.11,7.058h6.682c0.276,0,0.5-0.224,0.5-0.5s-0.224-0.5-0.5-0.5H7.11c-0.276,0-0.5,0.224-0.5,0.5
		S6.833,7.058,7.11,7.058z"/>
	<path fill="#455B65" d="M7.11,10.152h11.016c0.276,0,0.5-0.224,0.5-0.5s-0.224-0.5-0.5-0.5H7.11c-0.276,0-0.5,0.224-0.5,0.5
		S6.833,10.152,7.11,10.152z"/>
	<path fill="#455B65" d="M24.891,12.248H7.11c-0.276,0-0.5,0.224-0.5,0.5s0.224,0.5,0.5,0.5h17.782c0.276,0,0.5-0.224,0.5-0.5
		S25.168,12.248,24.891,12.248z"/>
	<path fill="#455B65" d="M24.891,15.335L24.891,15.335L7.109,15.349c-0.276,0-0.5,0.224-0.5,0.5c0,0.276,0.224,0.5,0.5,0.5h0
		l17.782-0.013c0.276,0,0.5-0.224,0.5-0.5C25.391,15.559,25.167,15.335,24.891,15.335z"/>
	<path fill="#455B65" d="M18.667,18.431L18.667,18.431L7.109,18.443c-0.276,0-0.5,0.225-0.5,0.5s0.224,0.5,0.5,0.5h0l11.557-0.013
		c0.276,0,0.5-0.225,0.5-0.5S18.943,18.431,18.667,18.431z"/>
	<path fill="#455B65" d="M18.125,21.525L18.125,21.525L7.109,21.538c-0.276,0-0.5,0.225-0.5,0.5s0.224,0.5,0.5,0.5h0l11.016-0.013
		c0.276,0,0.5-0.225,0.5-0.5S18.401,21.525,18.125,21.525z"/>
	<path fill="#455B65" d="M12.409,24.62c0,0-0.001,0-0.001,0l-5.299,0.013c-0.276,0-0.499,0.225-0.499,0.501
		c0,0.275,0.225,0.499,0.5,0.499h0.001l5.299-0.013c0.276,0,0.499-0.225,0.499-0.501C12.908,24.843,12.684,24.62,12.409,24.62z"/>
	<path fill="#455B65" d="M22.733,18.431c-1.466,0-2.659,1.193-2.659,2.659c0,0.746,0.311,1.419,0.808,1.902v5.134
		c0,0.187,0.104,0.358,0.271,0.444c0.072,0.037,0.151,0.056,0.229,0.056c0.102,0,0.203-0.031,0.289-0.092l1.063-0.753l1.062,0.753
		c0.153,0.108,0.353,0.122,0.519,0.037c0.166-0.086,0.271-0.257,0.271-0.444v-5.134c0.497-0.483,0.808-1.156,0.808-1.902
		C25.391,19.624,24.198,18.431,22.733,18.431z M22.733,19.431c0.915,0,1.659,0.744,1.659,1.659c0,0.518-0.244,0.976-0.617,1.28
		c-0.001,0.001-0.004,0.001-0.005,0.002c-0.609,0.494-1.466,0.493-2.074,0c-0.001-0.001-0.003-0.001-0.005-0.002
		c-0.373-0.304-0.617-0.762-0.617-1.28C21.073,20.175,21.818,19.431,22.733,19.431z M23.584,23.605v3.552l-0.562-0.398
		c-0.174-0.123-0.406-0.124-0.579,0l-0.563,0.398v-3.552c0.054,0.019,0.111,0.027,0.166,0.042c0.069,0.018,0.136,0.039,0.206,0.052
		c0.141,0.026,0.284,0.04,0.427,0.043c0.018,0,0.034,0.005,0.052,0.005c0.017,0,0.034-0.005,0.051-0.005
		c0.144-0.003,0.287-0.017,0.428-0.043c0.071-0.013,0.138-0.034,0.206-0.052C23.473,23.632,23.53,23.624,23.584,23.605z"/>
</g>
</svg>
