<?xml version="1.0" encoding="utf-8"?>
<!-- Generator: Adobe Illustrator 19.1.0, SVG Export Plug-In . SVG Version: 6.00 Build 0)  -->
<svg version="1.1" id="Layer_1" xmlns="http://www.w3.org/2000/svg" xmlns:xlink="http://www.w3.org/1999/xlink" x="0px" y="0px"
	 viewBox="0 0 32 32" enable-background="new 0 0 32 32" xml:space="preserve">
<g>
	<path fill="#455B65" d="M29.304,18.439c0.039-0.189,0.071-0.381,0.071-0.58v-4.047c0-0.173-0.032-0.338-0.061-0.503l0,0
		c1.415-0.872,2.283-1.957,2.283-3.258V6.005c0-3.826-7.389-5.828-14.688-5.828S2.221,2.179,2.221,6.005v4.047
		c0,0.173,0.032,0.338,0.061,0.503C0.868,11.427,0,12.511,0,13.812v4.047c0,1.427,1.029,2.599,2.696,3.509
		c-0.039,0.189-0.071,0.381-0.071,0.58v4.047c0,3.826,7.389,5.828,14.687,5.828c7.299,0,14.688-2.002,14.688-5.828v-4.047
		C32,20.522,30.971,19.35,29.304,18.439z M29.596,10.052c0,0.495-0.501,1.061-1.427,1.603V9.872c0.525-0.24,1.007-0.499,1.427-0.782
		V10.052z M16.909,2.177c7.745,0,12.688,2.268,12.688,3.828s-4.942,3.828-12.688,3.828S4.221,7.565,4.221,6.005
		S9.164,2.177,16.909,2.177z M27.169,10.283v1.87c-0.309,0.135-0.636,0.268-1,0.393v-1.93
		C26.514,10.512,26.848,10.401,27.169,10.283z M25.169,10.892v1.966c-0.484,0.137-1.009,0.263-1.563,0.379V11.24
		C24.146,11.138,24.664,11.019,25.169,10.892z M16.909,12.983c0.276,0,0.5-0.224,0.5-0.5v-0.659
		c0.701-0.009,1.401-0.033,2.094-0.078v1.284c0,0.276,0.224,0.5,0.5,0.5s0.5-0.224,0.5-0.5v-1.366
		c0.716-0.066,1.419-0.151,2.104-0.257v2.016c-1.661,0.281-3.569,0.456-5.698,0.456c-0.868,0-1.695-0.032-2.49-0.085v-2.043
		c0.659,0.042,1.324,0.064,1.99,0.073v0.659C16.409,12.76,16.632,12.983,16.909,12.983z M13.419,11.673v2.039
		c-0.731-0.07-1.427-0.159-2.083-0.267v-2.018C12.014,11.53,12.711,11.61,13.419,11.673z M10.336,11.263v2
		c-0.563-0.114-1.091-0.241-1.583-0.378v-1.966C9.264,11.046,9.79,11.163,10.336,11.263z M7.752,10.65v1.93
		c-0.394-0.134-0.751-0.274-1.083-0.418v-1.871C7.016,10.418,7.377,10.538,7.752,10.65z M4.221,9.091
		C4.647,9.377,5.135,9.64,5.669,9.882v1.784C4.73,11.12,4.221,10.55,4.221,10.052V9.091z M3.448,19.474
		C2.509,18.928,2,18.358,2,17.859v-0.961c0.426,0.287,0.914,0.549,1.448,0.792V19.474z M2,13.812c0-0.461,0.441-0.983,1.248-1.49
		c2.265,2.34,7.982,3.558,13.661,3.558c3.75,0,7.516-0.532,10.299-1.565c-0.893,1.502-5.572,3.326-12.52,3.326
		C6.942,17.641,2,15.373,2,13.812z M27.375,16.898v0.961c0,0.495-0.501,1.061-1.427,1.603V17.68
		C26.473,17.44,26.955,17.181,27.375,16.898z M24.948,18.091v1.87c-0.309,0.135-0.636,0.268-1,0.393v-1.93
		C24.293,18.319,24.627,18.209,24.948,18.091z M22.948,18.7v1.966c-0.484,0.137-1.009,0.263-1.563,0.379v-1.996
		C21.925,18.946,22.443,18.827,22.948,18.7z M14.687,20.791c0.276,0,0.5-0.224,0.5-0.5v-0.659c0.701-0.009,1.401-0.033,2.094-0.078
		v1.284c0,0.276,0.224,0.5,0.5,0.5s0.5-0.224,0.5-0.5v-1.366c0.716-0.066,1.419-0.151,2.104-0.257v2.016
		c-1.661,0.281-3.569,0.456-5.698,0.456c-0.868,0-1.695-0.032-2.49-0.085v-2.043c0.659,0.042,1.324,0.064,1.99,0.073v0.659
		C14.187,20.567,14.411,20.791,14.687,20.791z M11.198,19.481v2.039c-0.731-0.07-1.427-0.159-2.083-0.267v-2.018
		C9.793,19.337,10.49,19.417,11.198,19.481z M8.115,19.071v2c-0.563-0.114-1.091-0.241-1.583-0.378v-1.966
		C7.043,18.853,7.569,18.97,8.115,19.071z M4.448,18.099c0.347,0.127,0.708,0.247,1.083,0.359v1.93
		c-0.394-0.134-0.751-0.274-1.083-0.418V18.099z M6.073,27.61c-0.939-0.546-1.448-1.116-1.448-1.614v-0.961
		c0.426,0.287,0.914,0.549,1.448,0.792V27.61z M8.156,28.524c-0.394-0.134-0.751-0.274-1.083-0.418v-1.871
		c0.347,0.127,0.708,0.247,1.083,0.359V28.524z M10.74,29.207c-0.563-0.114-1.091-0.241-1.583-0.378v-1.966
		c0.512,0.127,1.037,0.243,1.583,0.344V29.207z M13.823,29.656c-0.731-0.07-1.427-0.159-2.083-0.267v-2.018
		c0.679,0.102,1.375,0.182,2.083,0.245V29.656z M23.01,29.367c-1.661,0.281-3.569,0.456-5.698,0.456
		c-0.868,0-1.695-0.032-2.49-0.085v-2.043c0.659,0.042,1.324,0.064,1.99,0.073v0.659c0,0.276,0.224,0.5,0.5,0.5
		c0.276,0,0.5-0.224,0.5-0.5v-0.659c0.701-0.009,1.401-0.033,2.094-0.078v1.284c0,0.276,0.224,0.5,0.5,0.5s0.5-0.224,0.5-0.5v-1.366
		c0.716-0.066,1.419-0.151,2.104-0.257V29.367z M25.573,28.801c-0.484,0.137-1.009,0.263-1.563,0.379v-1.996
		c0.539-0.102,1.057-0.22,1.563-0.348V28.801z M27.573,28.096c-0.309,0.135-0.636,0.268-1,0.393v-1.93
		c0.345-0.105,0.679-0.215,1-0.333V28.096z M30,25.995c0,0.495-0.501,1.061-1.427,1.603v-1.783c0.525-0.24,1.007-0.499,1.427-0.782
		V25.995z M17.312,25.776c-7.289,0-12.092-2.008-12.633-3.545l0,0c2.751,0.963,6.39,1.456,10.009,1.456
		c5.629,0,11.296-1.196,13.602-3.495l0,0C29.392,20.78,30,21.406,30,21.948C30,23.509,25.058,25.776,17.312,25.776z"/>
</g>
</svg>
