<?xml version="1.0" encoding="utf-8"?>
<!-- Generator: Adobe Illustrator 19.1.0, SVG Export Plug-In . SVG Version: 6.00 Build 0)  -->
<svg version="1.1" id="Layer_1" xmlns="http://www.w3.org/2000/svg" xmlns:xlink="http://www.w3.org/1999/xlink" x="0px" y="0px"
	 viewBox="0 0 32 32" enable-background="new 0 0 32 32" xml:space="preserve">
<path fill="#455B65" d="M28.366,8.525l-4.891-4.891c-0.391-0.391-1.023-0.391-1.414,0L19.28,6.416L5.424,20.271
	C5.3,20.395,5.211,20.55,5.166,20.719L3.376,27.4c-0.093,0.345,0.006,0.713,0.259,0.966c0.19,0.19,0.445,0.293,0.707,0.293
	c0.086,0,0.173-0.011,0.259-0.034l6.681-1.79c0.169-0.045,0.324-0.135,0.448-0.259L25.585,12.72l2.781-2.781
	C28.756,9.548,28.756,8.916,28.366,8.525z M7.894,25.672l-1.565-1.565l0.668-2.492l1.534,0.233l0.146,1.844
	c0.002,0.029,0.015,0.055,0.022,0.083c0.007,0.027,0.01,0.053,0.021,0.079c0.019,0.044,0.047,0.081,0.078,0.117
	c0.009,0.011,0.013,0.025,0.024,0.036c0.001,0.001,0.003,0.002,0.004,0.003c0.045,0.044,0.098,0.08,0.157,0.104
	c0.023,0.01,0.048,0.01,0.072,0.016c0.034,0.009,0.067,0.022,0.103,0.023l1.21,0.043l0.073,0.796L7.894,25.672z M9.587,22.531
	l-0.091-1.159c-0.019-0.231-0.194-0.42-0.424-0.455l-1.273-0.193L19.987,8.537l1.797,1.797L9.587,22.531z M6.03,25.221l0.749,0.749
	l-1.023,0.274L6.03,25.221z M11.363,24.114l-0.041-0.449c-0.023-0.25-0.229-0.445-0.48-0.454l-0.502-0.018l12.152-12.152
	l0.972,0.972L11.363,24.114z M24.877,10.599l-3.477-3.477l1.367-1.367l3.477,3.477L24.877,10.599z"/>
</svg>
