<?xml version="1.0" encoding="utf-8"?>
<!-- Generator: Adobe Illustrator 19.1.0, SVG Export Plug-In . SVG Version: 6.00 Build 0)  -->
<svg version="1.1" id="Layer_1" xmlns="http://www.w3.org/2000/svg" xmlns:xlink="http://www.w3.org/1999/xlink" x="0px" y="0px"
	 viewBox="0 0 32 32" enable-background="new 0 0 32 32" xml:space="preserve">
<g>
	<path fill="#455B65" d="M30.792,5.24H1.208c-0.552,0-1,0.448-1,1V25.76c0,0.552,0.448,1,1,1h29.583c0.552,0,1-0.448,1-1V6.24
		C31.792,5.688,31.344,5.24,30.792,5.24z M29.792,7.24v15.186c-1.555-1.563-4.168-2.592-7.125-2.592
		c-1.523,0-2.953,0.275-4.197,0.754c-3.381-2.995-9.504-4.898-16.261-5.07V7.24H29.792z M17.118,21.23
		c-1.469,0.844-2.472,1.984-2.872,3.263c-0.009,0.029-0.022,0.057-0.03,0.085c-0.017,0.06-0.03,0.121-0.045,0.182H2.208v-8.243
		c6.289,0.163,11.982,1.846,15.253,4.514c-0.079,0.041-0.149,0.087-0.225,0.13C17.197,21.184,17.157,21.207,17.118,21.23z
		 M15.216,24.76c0.017-0.051,0.027-0.103,0.046-0.153c0.017-0.045,0.035-0.089,0.053-0.134c0.069-0.163,0.148-0.323,0.243-0.48
		c0.009-0.016,0.017-0.031,0.027-0.047c0.581-0.936,1.607-1.752,2.978-2.325c0.008-0.003,0.012-0.011,0.02-0.015
		c1.182-0.487,2.581-0.774,4.085-0.774c3.256,0,6.034,1.328,7.125,3.187v0.739H15.216z"/>
	<path fill="#455B65" d="M22.667,14.083c1.378,0,2.5-1.122,2.5-2.5s-1.122-2.5-2.5-2.5s-2.5,1.122-2.5,2.5
		S21.288,14.083,22.667,14.083z M22.667,10.083c0.827,0,1.5,0.673,1.5,1.5s-0.673,1.5-1.5,1.5s-1.5-0.673-1.5-1.5
		S21.839,10.083,22.667,10.083z"/>
</g>
</svg>
