<?xml version="1.0" encoding="utf-8"?>
<!-- Generator: Adobe Illustrator 19.1.0, SVG Export Plug-In . SVG Version: 6.00 Build 0)  -->
<svg version="1.1" id="Layer_1" xmlns="http://www.w3.org/2000/svg" xmlns:xlink="http://www.w3.org/1999/xlink" x="0px" y="0px"
	 viewBox="0 0 32 32" enable-background="new 0 0 32 32" xml:space="preserve">
<path fill="#455B65" d="M29.351,8.142l-8.093-7.597c-0.186-0.174-0.431-0.271-0.685-0.271H3.334c-0.553,0-1,0.448-1,1v29.452
	c0,0.552,0.447,1,1,1h25.332c0.553,0,1-0.448,1-1V8.871C29.666,8.594,29.552,8.331,29.351,8.142z M21.073,3.115l5.599,5.256h-5.599
	V3.115z M4.334,29.726V2.274h15.739v6.597c0,0.276,0.224,0.5,0.5,0.5h7.093v20.355H4.334z"/>
</svg>
