<?xml version="1.0" encoding="UTF-8" standalone="no"?>
<svg
   xmlns:dc="http://purl.org/dc/elements/1.1/"
   xmlns:cc="http://creativecommons.org/ns#"
   xmlns:rdf="http://www.w3.org/1999/02/22-rdf-syntax-ns#"
   xmlns:svg="http://www.w3.org/2000/svg"
   xmlns="http://www.w3.org/2000/svg"
   id="svg1374"
   viewBox="0 0 14 15"
   version="1.1"
   width="14"
   height="15"
   aria-hidden="true">
  <metadata
     id="metadata1380">
    <rdf:RDF>
      <cc:Work
         rdf:about="">
        <dc:format>image/svg+xml</dc:format>
        <dc:type
           rdf:resource="http://purl.org/dc/dcmitype/StillImage" />
        <dc:title></dc:title>
      </cc:Work>
    </rdf:RDF>
  </metadata>
  <defs
     id="defs1378" />
  <path
     style="fill-rule:evenodd"
     id="path1372"
     d="m 2,12 h 4 v 1 H 2 Z M 7,6 H 2 V 7 H 7 Z M 9,9 V 7 l -3,3 3,3 v -2 h 5 V 9 Z M 4.5,8 H 2 V 9 H 4.5 Z M 2,11 H 4.5 V 10 H 2 Z m 9,1 h 1 v 2 c -0.02,0.28 -0.11,0.52 -0.3,0.7 -0.19,0.18 -0.42,0.28 -0.7,0.3 H 1 C 0.45,15 0,14.55 0,14 V 3 C 0,2.45 0.45,2 1,2 H 4 C 4,0.89 4.89,0 6,0 7.11,0 8,0.89 8,2 h 3 c 0.55,0 1,0.45 1,1 V 8 H 11 V 5 H 1 v 9 H 11 Z M 2,4 h 8 C 10,3.45 9.55,3 9,3 H 8 C 7.45,3 7,2.55 7,2 7,1.45 6.55,1 6,1 5.45,1 5,1.45 5,2 5,2.55 4.55,3 4,3 H 3 C 2.45,3 2,3.45 2,4 Z" />
</svg>
