<?xml version="1.0" encoding="utf-8"?>
<!-- Generator: Adobe Illustrator 21.1.0, SVG Export Plug-In . SVG Version: 6.00 Build 0)  -->
<svg version="1.1" id="Layer_1" xmlns="http://www.w3.org/2000/svg" xmlns:xlink="http://www.w3.org/1999/xlink" x="0px" y="0px"
	 viewBox="0 0 16 16" style="enable-background:new 0 0 16 16;" xml:space="preserve" width="16" height="16">
<style type="text/css">
	.st0{fill:#006A73;}
	.st1{fill:#FFFFFF;}
</style>
<path class="st0" d="M13.3,15.3c0.9,0,1.7-0.8,1.7-1.7V2.5c0-0.9-0.8-1.7-1.7-1.7H2.7c-0.9,0-1.7,0.8-1.7,1.7v11.1
	c0,0.9,0.8,1.7,1.7,1.7H13.3z"/>
<path class="st1" d="M10.8,12.2H5c0-1.4,0.7-2.4,1.8-3.2C8,8.3,9.4,7.6,9.4,6.3c0-0.6-0.2-1.5-1.4-1.5c-1.1,0-1.4,0.9-1.4,2.1H5.2
	c0-1.9,1-3.2,2.9-3.2c2.1,0,2.7,1.5,2.7,2.6c0,1.3-0.9,2.2-1.9,2.8c-1,0.7-2,1.2-2.2,1.9h4.1V12.2z"/>
</svg>
