<?xml version="1.0" encoding="UTF-8" standalone="no"?>
<svg xmlns="http://www.w3.org/2000/svg" width="294.525" height="54.539" viewBox="0 0 294.525 54.539" enable-background="new 0 0 294.525 54.539">
    <g fill="#000">
        <path d="M14.681 13.961h-6.711v21.512c0 4.974 2.337 5.453 6.651 5.333v1.978c-4.674.3-9.168-.359-8.928-7.311v-21.512h-5.693v-1.977h5.692v-9.587h2.278v9.587h6.711v1.977zM21.152 0v18.576h.12c1.558-4.614 6.232-7.311 11.025-7.311 10.846 0 10.966 8.688 10.966 12.464v19.055h-2.277v-19.475c0-3.176-.359-10.066-8.748-10.066-6.891 0-11.086 5.333-11.086 12.883v16.658h-2.277v-42.784h2.277zM50.874 27.683c-.12 7.251 3.715 13.842 11.325 13.842 5.812 0 9.947-3.475 11.025-9.168h2.277c-1.197 7.191-5.991 11.145-13.301 11.145-8.988 0-13.722-7.07-13.602-15.579-.12-8.449 4.314-16.658 13.602-16.658 9.647 0 13.961 7.61 13.542 16.418h-24.868zm22.591-1.977c-.12-6.472-4.194-12.464-11.265-12.464-6.831 0-10.846 6.352-11.325 12.464h22.59zM81.615 0h2.277v18.515h.12c1.738-4.793 6.711-7.25 11.685-7.25 9.048 0 13.362 6.831 13.362 15.399 0 14.681-9.108 16.838-13.362 16.838-8.089 0-11.206-5.992-11.685-7.609h-.12v6.891h-2.277v-42.784zm25.167 26.665c0-6.831-3.715-13.422-11.085-13.422-8.03 0-11.745 5.692-11.745 13.422 0 7.551 3.355 14.86 11.745 14.86 8.089 0 11.085-7.789 11.085-14.86zM114.933 6.172v-6.172h2.277v6.172h-2.277zm0 36.612v-30.8h2.277v30.799h-2.277zM149.928 11.984v29.181c0 2.397 0 13.782-13.303 13.362-6.591 0-11.685-2.456-12.044-9.587h2.277c.479 5.453 4.794 7.61 9.827 7.61 10.786 0 10.965-8.809 10.965-10.846v-7.071h-.12c-2.157 4.554-5.932 7.011-11.146 7.011-9.048 0-13.302-6.651-13.302-15.22 0-8.149 4.614-15.16 13.302-15.16 4.794 0 9.468 2.517 11.146 7.131h.12v-6.412h2.278zm-24.568 14.441c0 7.25 3.775 13.242 11.025 13.242 7.49 0 11.206-6.291 11.206-13.242 0-6.891-3.655-13.183-11.206-13.183-7.43.001-11.025 6.652-11.025 13.183zM164.309 40.147h.121l8.389-28.163h3.056l8.449 28.163h.119l8.629-28.163h2.517l-9.887 30.799h-2.816l-8.449-27.923h-.119l-8.51 27.923h-2.875l-9.768-30.799h2.456l8.688 28.163z"/>
    </g>
    <g fill="#000">
        <path d="M254.078 18.815h.18c1.198-4.015 6.232-7.25 11.805-7.011v2.277c-2.397-.3-5.753.299-8.509 2.996-2.277 2.337-3.236 4.254-3.476 8.868v16.838h-2.277v-30.799h2.277v6.831zM292.249 36.192h-.12c-2.517 4.854-6.292 7.311-11.805 7.311-9.287 0-13.303-7.55-13.303-16.059 0-9.108 4.435-16.179 13.723-16.179 5.033 0 9.767 2.756 11.385 7.61h.12v-18.875h2.276v42.784h-2.276v-6.592zm-.061-8.748c0-7.19-3.535-14.201-11.444-14.201-8.149 0-11.445 6.77-11.445 14.201 0 7.25 3.596 14.081 11.505 14.081 7.79 0 11.384-7.011 11.384-14.081z"/>
    </g>
    <path fill="#FFD100"
          d="M195.849 23.614c-1.809 4.407-2.656 9.151-5.077 13.309-.298.513 2.205.313 2.623-.406 2.42-4.155 3.267-8.901 5.077-13.308.263-.643-2.315-.349-2.623.405z"/>
    <path fill="#95C11F"
          d="M235.814 10.454c1.672 4.019 6.493 5.907 10.368 7.096.961.298 3.119-1.105 1.578-1.58-3.364-1.034-7.843-2.712-9.303-6.224-.432-1.038-3.043-.254-2.643.708z"/>
    <path fill="#E30613"
          d="M198.318 30.508c15.774 2.497 28.034-5.605 39.285-15.72 1.825-1.645-2.55-1.324-3.472-.494-9.512 8.553-19.48 16.204-33.055 14.054-1.21-.191-5.16 1.78-2.758 2.16z"/>
    <path fill="#0069B4"
          d="M197.41 33.453c5.889 7.358 16.899 15.261 26.87 11.214 10.323-4.191 14.597-16.137 15.233-26.521.066-1.067-2.799-.464-2.853.397-.451 7.379-2.74 14.76-7.299 20.664-8.589 11.129-22.891 1.153-29.283-6.832-.559-.701-3.31.277-2.668 1.078z"/>
</svg>
