<svg xmlns="http://www.w3.org/2000/svg" xmlns:xlink="http://www.w3.org/1999/xlink" preserveAspectRatio="xMidYMid" width="57" height="63" viewBox="0 0 57 63">
  <defs>
    <style>

      .cls-3 {
        fill: #edc951;
      }

      .cls-4 {
        fill: #53ecf4;
      }

      .cls-5 {
        fill: #000000;
      }
    </style>
  </defs>
  <g id="group-17svg">
    <path d="M5.094,54.156 C5.094,54.156 28.288,54.156 28.288,54.156 C28.288,54.156 38.599,32.124 38.599,32.124 C39.720,29.868 42.094,28.908 44.094,29.987 C44.094,29.987 44.094,29.984 44.094,29.984 C47.094,31.107 48.046,33.801 46.834,36.125 C46.834,36.125 33.263,63.156 33.263,63.156 C33.263,63.156 5.094,63.156 5.094,63.156 C5.094,63.156 5.094,54.156 5.094,54.156 Z" id="path-1" class="cls-3" fill-rule="evenodd"/>
    <path d="M13.613,38.194 C11.753,40.055 8.736,40.055 6.875,38.194 C5.015,36.333 5.015,33.317 6.875,31.457 C8.736,29.596 11.753,29.596 13.613,31.457 C15.474,33.317 15.474,36.333 13.613,38.194 Z" id="path-2" class="cls-4" fill-rule="evenodd"/>
    <path d="M29.263,62.156 C29.263,62.156 1.594,62.156 1.594,62.156 C0.766,62.156 0.094,61.485 0.094,60.656 C0.094,60.656 0.094,51.656 0.094,51.656 C0.094,50.828 0.766,50.156 1.594,50.156 C1.594,50.156 23.350,50.156 23.350,50.156 C23.350,50.156 33.499,29.220 33.499,29.220 C34.490,27.224 36.454,25.992 38.630,25.992 C39.516,25.992 40.394,26.203 41.182,26.602 C43.463,27.475 44.419,28.898 44.818,29.941 C45.367,31.373 45.224,33.017 44.414,34.569 C44.414,34.569 30.596,61.344 30.596,61.344 C30.338,61.843 29.824,62.156 29.263,62.156 ZM3.094,59.156 C3.094,59.156 28.349,59.156 28.349,59.156 C28.349,59.156 41.751,33.187 41.751,33.187 C42.042,32.630 42.320,31.807 42.018,31.015 C41.699,30.185 40.847,29.694 40.154,29.422 C40.061,29.393 39.970,29.355 39.882,29.308 C39.499,29.102 39.066,28.992 38.630,28.992 C37.585,28.992 36.674,29.571 36.192,30.541 C36.192,30.541 25.639,52.311 25.639,52.311 C25.388,52.828 24.864,53.156 24.289,53.156 C24.289,53.156 3.094,53.156 3.094,53.156 C3.094,53.156 3.094,59.156 3.094,59.156 Z" id="path-3" class="cls-5" fill-rule="evenodd"/>
    <path d="M41.339,29.480 C41.103,29.480 40.865,29.425 40.643,29.309 C39.909,28.923 39.627,28.017 40.012,27.283 C40.012,27.283 53.905,0.798 53.905,0.798 C54.290,0.064 55.197,-0.218 55.931,0.166 C56.664,0.551 56.946,1.458 56.561,2.191 C56.561,2.191 42.668,28.677 42.668,28.677 C42.400,29.188 41.878,29.480 41.339,29.480 Z" id="path-4" class="cls-5" fill-rule="evenodd"/>
    <path d="M6.244,39.089 C4.571,39.089 2.998,38.438 1.814,37.255 C-0.628,34.812 -0.628,30.838 1.814,28.396 C2.998,27.213 4.571,26.561 6.244,26.561 C7.918,26.561 9.491,27.213 10.674,28.396 C13.116,30.838 13.116,34.812 10.674,37.255 C9.491,38.438 7.918,39.089 6.244,39.089 ZM6.244,29.561 C5.372,29.561 4.553,29.900 3.936,30.518 C2.663,31.790 2.663,33.860 3.936,35.134 C5.170,36.366 7.320,36.366 8.553,35.134 C9.825,33.860 9.825,31.790 8.553,30.517 C7.936,29.900 7.116,29.561 6.244,29.561 Z" id="path-5" class="cls-5" fill-rule="evenodd"/>
  </g>
</svg>
