<svg xmlns="http://www.w3.org/2000/svg" xmlns:xlink="http://www.w3.org/1999/xlink" preserveAspectRatio="xMidYMid" width="66" height="40" viewBox="0 0 66 40">
  <defs>
    <style>

      .cls-3 {
        fill: #ff917b;
      }

      .cls-5 {
        fill: #edc951;
      }

      .cls-6 {
        fill: #000000;
      }
    </style>
  </defs>
  <g id="group-28svg">
    <path d="M59.394,37.692 C57.677,39.409 54.895,39.409 53.178,37.692 C51.462,35.976 51.462,33.193 53.178,31.477 C54.895,29.761 57.677,29.761 59.394,31.477 C61.110,33.193 61.110,35.976 59.394,37.692 Z" id="path-1" class="cls-3" fill-rule="evenodd"/>
    <path d="M22.700,32.296 C20.984,34.013 18.202,34.013 16.485,32.296 C14.769,30.580 14.769,27.797 16.485,26.081 C18.202,24.365 20.984,24.365 22.700,26.081 C24.416,27.797 24.416,30.580 22.700,32.296 Z" id="path-2" class="cls-3" fill-rule="evenodd"/>
    <path d="M60.610,29.109 C60.610,29.109 13.920,22.860 13.920,22.860 C12.474,22.667 11.224,21.756 10.596,20.439 C10.596,20.439 5.940,10.674 5.940,10.674 C4.360,7.357 7.380,3.708 10.934,4.641 C10.934,4.641 60.365,17.623 60.365,17.623 C61.423,17.900 62.336,18.569 62.919,19.494 C62.919,19.494 64.833,22.526 64.833,22.526 C66.788,25.624 64.240,29.595 60.610,29.109 Z" id="path-3" class="cls-5" fill-rule="evenodd"/>
    <path d="M57.213,27.650 C56.951,27.650 56.684,27.632 56.411,27.596 C56.411,27.596 9.721,21.347 9.721,21.347 C7.766,21.086 6.091,19.866 5.242,18.085 C5.242,18.085 0.586,8.319 0.586,8.319 C-0.278,6.506 -0.157,4.414 0.909,2.725 C2.261,0.581 4.848,-0.458 7.314,0.190 C7.314,0.190 56.746,13.172 56.746,13.172 C58.177,13.548 59.399,14.443 60.188,15.694 C60.188,15.694 62.102,18.726 62.102,18.726 C63.249,20.545 63.316,22.753 62.281,24.632 C61.254,26.493 59.312,27.650 57.213,27.650 ZM5.805,2.993 C4.854,2.993 3.973,3.491 3.446,4.325 C2.925,5.151 2.870,6.137 3.294,7.028 C3.294,7.028 7.950,16.794 7.950,16.794 C8.361,17.657 9.172,18.247 10.119,18.374 C10.119,18.374 56.809,24.622 56.809,24.622 C58.006,24.783 59.081,24.221 59.653,23.183 C60.161,22.262 60.129,21.221 59.564,20.327 C59.564,20.327 57.651,17.295 57.651,17.295 C57.269,16.689 56.677,16.255 55.984,16.074 C55.984,16.074 6.553,3.092 6.553,3.092 C6.302,3.026 6.051,2.993 5.805,2.993 Z" id="path-4" class="cls-6" fill-rule="evenodd"/>
    <path d="M52.286,37.479 C50.711,37.479 49.231,36.867 48.118,35.753 C47.004,34.640 46.391,33.159 46.391,31.584 C46.391,30.010 47.004,28.530 48.118,27.416 C49.231,26.303 50.711,25.690 52.286,25.690 C53.860,25.690 55.341,26.303 56.454,27.416 C57.567,28.530 58.181,30.010 58.181,31.584 C58.181,33.159 57.567,34.640 56.454,35.753 C55.341,36.867 53.860,37.479 52.286,37.479 ZM52.286,28.690 C51.513,28.690 50.786,28.991 50.239,29.538 C49.692,30.084 49.391,30.811 49.391,31.584 C49.391,32.358 49.692,33.085 50.239,33.632 C51.331,34.725 53.238,34.725 54.333,33.632 C54.880,33.085 55.181,32.358 55.181,31.584 C55.181,30.811 54.880,30.084 54.333,29.538 C53.786,28.991 53.059,28.690 52.286,28.690 Z" id="path-5" class="cls-6" fill-rule="evenodd"/>
    <path d="M15.593,32.083 C14.019,32.083 12.538,31.471 11.425,30.357 C10.311,29.244 9.698,27.763 9.698,26.188 C9.698,24.614 10.311,23.134 11.425,22.020 C12.538,20.907 14.019,20.294 15.593,20.294 C17.167,20.294 18.647,20.907 19.761,22.020 C20.874,23.134 21.487,24.614 21.487,26.188 C21.487,27.763 20.874,29.244 19.761,30.357 C18.647,31.471 17.167,32.083 15.593,32.083 ZM15.593,23.294 C14.820,23.294 14.093,23.595 13.546,24.142 C12.999,24.688 12.698,25.415 12.698,26.188 C12.698,26.962 12.999,27.689 13.546,28.236 C14.640,29.329 16.546,29.329 17.640,28.236 C18.187,27.689 18.487,26.962 18.487,26.188 C18.487,25.415 18.187,24.688 17.640,24.142 C17.093,23.595 16.366,23.294 15.593,23.294 Z" id="path-6" class="cls-6" fill-rule="evenodd"/>
  </g>
</svg>
