<svg xmlns="http://www.w3.org/2000/svg" xmlns:xlink="http://www.w3.org/1999/xlink" preserveAspectRatio="xMidYMid" width="67" height="64" viewBox="0 0 67 64">
  <defs>
    <style>

      .cls-3 {
        fill: #edc951;
      }

      .cls-4 {
        fill: #e56a77;
      }

      .cls-7 {
        fill: #000000;
      }
    </style>
  </defs>
  <g id="group-9svg">
    <path d="M66.496,33.512 C66.496,50.081 53.065,63.512 36.496,63.512 C19.928,63.512 6.496,50.081 6.496,33.512 C6.496,16.943 19.928,3.512 36.496,3.512 C53.065,3.512 66.496,16.943 66.496,33.512 Z" id="path-1" class="cls-3" fill-rule="evenodd"/>
    <path d="M41.380,33.512 C41.380,36.209 39.193,38.395 36.496,38.395 C33.799,38.395 31.612,36.209 31.612,33.512 C31.612,30.815 33.799,28.628 36.496,28.628 C39.193,28.628 41.380,30.815 41.380,33.512 Z" id="path-2" class="cls-4" fill-rule="evenodd"/>
    <path d="M46.164,19.160 C46.164,21.857 43.978,24.043 41.280,24.043 C38.583,24.043 36.396,21.857 36.396,19.160 C36.396,16.463 38.583,14.276 41.280,14.276 C43.978,14.276 46.164,16.463 46.164,19.160 Z" id="path-3" class="cls-4" fill-rule="evenodd"/>
    <path d="M27.028,26.336 C27.028,29.033 24.841,31.220 22.144,31.220 C19.447,31.220 17.260,29.033 17.260,26.336 C17.260,23.639 19.447,21.452 22.144,21.452 C24.841,21.452 27.028,23.639 27.028,26.336 Z" id="path-4" class="cls-4" fill-rule="evenodd"/>
    <path d="M31.496,37.895 C27.976,37.895 25.112,35.032 25.112,31.512 C25.112,27.992 27.976,25.128 31.496,25.128 C35.016,25.128 37.880,27.992 37.880,31.512 C37.880,35.032 35.016,37.895 31.496,37.895 ZM31.496,28.128 C29.630,28.128 28.112,29.646 28.112,31.512 C28.112,33.377 29.630,34.895 31.496,34.895 C33.362,34.895 34.880,33.377 34.880,31.512 C34.880,29.646 33.362,28.128 31.496,28.128 Z" id="path-5" class="cls-7" fill-rule="evenodd"/>
    <path d="M36.280,23.544 C32.760,23.544 29.896,20.680 29.896,17.160 C29.896,13.640 32.760,10.776 36.280,10.776 C39.800,10.776 42.664,13.640 42.664,17.160 C42.664,20.680 39.800,23.544 36.280,23.544 ZM36.280,13.776 C34.415,13.776 32.896,15.294 32.896,17.160 C32.896,19.026 34.415,20.544 36.280,20.544 C38.146,20.544 39.664,19.026 39.664,17.160 C39.664,15.294 38.146,13.776 36.280,13.776 Z" id="path-6" class="cls-7" fill-rule="evenodd"/>
    <path d="M17.144,30.720 C13.624,30.720 10.760,27.856 10.760,24.336 C10.760,20.816 13.624,17.952 17.144,17.952 C20.664,17.952 23.528,20.816 23.528,24.336 C23.528,27.856 20.664,30.720 17.144,30.720 ZM17.144,20.952 C15.278,20.952 13.760,22.470 13.760,24.336 C13.760,26.202 15.278,27.720 17.144,27.720 C19.010,27.720 20.528,26.202 20.528,24.336 C20.528,22.470 19.010,20.952 17.144,20.952 Z" id="path-7" class="cls-7" fill-rule="evenodd"/>
    <path d="M31.496,37.895 C27.976,37.895 25.112,35.032 25.112,31.512 C25.112,27.992 27.976,25.128 31.496,25.128 C35.016,25.128 37.880,27.992 37.880,31.512 C37.880,35.032 35.016,37.895 31.496,37.895 ZM31.496,28.128 C29.630,28.128 28.112,29.646 28.112,31.512 C28.112,33.377 29.630,34.895 31.496,34.895 C33.362,34.895 34.880,33.377 34.880,31.512 C34.880,29.646 33.362,28.128 31.496,28.128 Z" id="path-8" class="cls-7" fill-rule="evenodd"/>
    <path d="M36.280,23.544 C32.760,23.544 29.896,20.680 29.896,17.160 C29.896,13.640 32.760,10.776 36.280,10.776 C39.800,10.776 42.664,13.640 42.664,17.160 C42.664,20.680 39.800,23.544 36.280,23.544 ZM36.280,13.776 C34.415,13.776 32.896,15.294 32.896,17.160 C32.896,19.026 34.415,20.544 36.280,20.544 C38.146,20.544 39.664,19.026 39.664,17.160 C39.664,15.294 38.146,13.776 36.280,13.776 Z" id="path-9" class="cls-7" fill-rule="evenodd"/>
    <path d="M17.144,30.720 C13.624,30.720 10.760,27.856 10.760,24.336 C10.760,20.816 13.624,17.952 17.144,17.952 C20.664,17.952 23.528,20.816 23.528,24.336 C23.528,27.856 20.664,30.720 17.144,30.720 ZM17.144,20.952 C15.278,20.952 13.760,22.470 13.760,24.336 C13.760,26.202 15.278,27.720 17.144,27.720 C19.010,27.720 20.528,26.202 20.528,24.336 C20.528,22.470 19.010,20.952 17.144,20.952 Z" id="path-10" class="cls-7" fill-rule="evenodd"/>
    <path d="M31.496,63.012 C14.127,63.012 -0.004,48.881 -0.004,31.512 C-0.004,14.143 14.127,0.012 31.496,0.012 C48.865,0.012 62.996,14.143 62.996,31.512 C62.996,48.881 48.865,63.012 31.496,63.012 ZM31.496,3.012 C15.781,3.012 2.996,15.797 2.996,31.512 C2.996,47.227 15.781,60.012 31.496,60.012 C47.211,60.012 59.996,47.227 59.996,31.512 C59.996,15.797 47.211,3.012 31.496,3.012 Z" id="path-11" class="cls-7" fill-rule="evenodd"/>
  </g>
</svg>
