<svg xmlns="http://www.w3.org/2000/svg" xmlns:xlink="http://www.w3.org/1999/xlink" preserveAspectRatio="xMidYMid" width="48" height="64" viewBox="0 0 48 64">
  <defs>
    <style>

      .cls-3 {
        fill: #edc951;
      }

      .cls-5 {
        fill: #99746a;
      }

      .cls-6 {
        fill: #ff917b;
      }

      .cls-7 {
        fill: #000000;
      }
    </style>
  </defs>
  <g id="group-14svg">
    <path d="M33.500,46.000 C33.500,46.000 33.500,63.124 33.500,63.124 C33.500,63.124 40.319,55.818 40.319,55.818 C40.319,55.818 47.500,63.486 47.500,63.486 C47.500,63.486 47.500,30.000 47.500,30.000 C47.500,30.000 47.500,30.000 47.500,30.000 " id="path-1" class="cls-3" fill-rule="evenodd"/>
    <path d="M19.500,46.000 C19.500,46.000 19.500,63.124 19.500,63.124 C19.500,63.124 12.681,55.818 12.681,55.818 C12.681,55.818 5.500,63.486 5.500,63.486 C5.500,63.486 5.500,30.000 5.500,30.000 C5.500,30.000 5.500,30.000 5.500,30.000 " id="path-2" class="cls-3" fill-rule="evenodd"/>
    <path d="M48.421,24.953 C48.421,36.808 38.810,46.419 26.955,46.419 C15.099,46.419 5.488,36.808 5.488,24.953 C5.488,13.097 15.099,3.486 26.955,3.486 C38.810,3.486 48.421,13.097 48.421,24.953 Z" id="path-3" class="cls-5" fill-rule="evenodd"/>
    <path d="M42.144,24.953 C42.144,33.342 35.344,40.143 26.955,40.143 C18.565,40.143 11.764,33.342 11.764,24.953 C11.764,16.563 18.565,9.762 26.955,9.762 C35.344,9.762 42.144,16.563 42.144,24.953 Z" id="path-4" class="cls-6" fill-rule="evenodd"/>
    <path d="M44.000,62.986 C43.593,62.986 43.194,62.820 42.905,62.511 C42.905,62.511 36.821,56.015 36.821,56.015 C36.821,56.015 31.097,62.147 31.097,62.147 C30.676,62.597 30.023,62.746 29.450,62.520 C28.877,62.293 28.500,61.740 28.500,61.124 C28.500,61.124 28.500,44.000 28.500,44.000 C28.500,43.171 29.171,42.500 30.000,42.500 C30.829,42.500 31.500,43.171 31.500,44.000 C31.500,44.000 31.500,57.318 31.500,57.318 C31.500,57.318 35.722,52.636 35.722,52.636 C36.006,52.332 36.402,52.000 36.817,52.000 C36.818,52.000 36.818,52.000 36.819,52.000 C37.234,52.000 37.630,52.331 37.914,52.634 C37.914,52.634 42.500,57.690 42.500,57.690 C42.500,57.690 42.500,28.000 42.500,28.000 C42.500,27.171 43.171,26.500 44.000,26.500 C44.829,26.500 45.500,27.171 45.500,28.000 C45.500,28.000 45.500,61.486 45.500,61.486 C45.500,62.102 45.124,62.654 44.551,62.881 C44.372,62.952 44.186,62.986 44.000,62.986 Z" id="path-5" class="cls-7" fill-rule="evenodd"/>
    <path d="M1.999,62.986 C1.814,62.986 1.628,62.952 1.449,62.881 C0.876,62.654 0.500,62.102 0.500,61.486 C0.500,61.486 0.500,28.000 0.500,28.000 C0.500,27.171 1.171,26.500 2.000,26.500 C2.829,26.500 3.500,27.171 3.500,28.000 C3.500,28.000 3.500,57.690 3.500,57.690 C3.500,57.690 8.086,52.793 8.086,52.793 C8.371,52.490 8.762,52.328 9.183,52.318 C9.598,52.319 9.994,52.492 10.278,52.795 C10.278,52.795 14.500,57.318 14.500,57.318 C14.500,57.318 14.500,44.000 14.500,44.000 C14.500,43.171 15.171,42.500 16.000,42.500 C16.829,42.500 17.500,43.171 17.500,44.000 C17.500,44.000 17.500,61.124 17.500,61.124 C17.500,61.740 17.123,62.293 16.550,62.520 C15.977,62.746 15.323,62.597 14.903,62.147 C14.903,62.147 9.179,56.015 9.179,56.015 C9.179,56.015 3.095,62.511 3.095,62.511 C2.806,62.820 2.407,62.986 1.999,62.986 Z" id="path-6" class="cls-7" fill-rule="evenodd"/>
    <path d="M22.955,39.643 C13.751,39.643 6.264,32.155 6.264,22.953 C6.264,13.749 13.751,6.262 22.955,6.262 C32.157,6.262 39.644,13.749 39.644,22.953 C39.644,32.155 32.157,39.643 22.955,39.643 ZM22.955,9.262 C15.406,9.262 9.264,15.404 9.264,22.953 C9.264,30.501 15.406,36.643 22.955,36.643 C30.503,36.643 36.645,30.501 36.645,22.953 C36.645,15.404 30.503,9.262 22.955,9.262 Z" id="path-7" class="cls-7" fill-rule="evenodd"/>
    <path d="M22.955,45.919 C10.290,45.919 -0.012,35.617 -0.012,22.953 C-0.012,10.289 10.290,-0.014 22.955,-0.014 C35.618,-0.014 45.921,10.289 45.921,22.953 C45.921,35.617 35.618,45.919 22.955,45.919 ZM22.955,2.986 C11.945,2.986 2.988,11.943 2.988,22.953 C2.988,33.962 11.945,42.919 22.955,42.919 C33.964,42.919 42.921,33.962 42.921,22.953 C42.921,11.943 33.964,2.986 22.955,2.986 Z" id="path-8" class="cls-7" fill-rule="evenodd"/>
  </g>
</svg>
