<svg xmlns="http://www.w3.org/2000/svg" xmlns:xlink="http://www.w3.org/1999/xlink" preserveAspectRatio="xMidYMid" width="66" height="64" viewBox="0 0 66 64">
  <defs>
    <style>

      .cls-3 {
        fill: #8b71b5;
      }

      .cls-4 {
        fill: #edc951;
      }

      .cls-6 {
        fill: #000000;
      }
    </style>
  </defs>
  <g id="group-5svg">
    <path d="M29.850,38.785 C29.007,37.617 26.679,34.160 26.621,31.170 C26.621,31.170 26.716,36.514 22.065,41.165 C22.065,41.165 5.495,57.734 5.495,57.734 C5.495,57.734 11.041,63.280 11.041,63.280 C11.041,63.280 27.610,46.710 27.610,46.710 C32.262,42.060 37.534,42.083 37.534,42.083 C34.544,42.026 31.017,39.627 29.850,38.785 Z" id="path-1" class="cls-3" fill-rule="evenodd"/>
    <path d="M56.944,33.560 C48.094,42.411 36.107,44.774 30.172,38.839 C24.236,32.904 26.601,20.917 35.451,12.066 C44.302,3.216 56.288,0.852 62.224,6.788 C68.159,12.723 65.796,24.709 56.944,33.560 Z" id="path-2" class="cls-4" fill-rule="evenodd"/>
    <path d="M42.456,59.756 C40.377,61.835 37.007,61.835 34.929,59.756 C32.850,57.678 32.850,54.308 34.929,52.229 C37.007,50.150 40.377,50.150 42.456,52.229 C44.535,54.308 44.535,57.678 42.456,59.756 Z" id="path-3" class="cls-4" fill-rule="evenodd"/>
    <path d="M34.856,41.611 C30.909,41.611 27.539,40.328 25.111,37.900 C21.876,34.664 20.698,29.819 21.795,24.256 C22.850,18.910 25.901,13.495 30.391,9.006 C36.020,3.376 43.178,0.016 49.539,0.016 C53.486,0.016 56.856,1.299 59.284,3.727 C62.519,6.962 63.697,11.808 62.601,17.371 C61.547,22.716 58.494,28.132 54.005,32.621 C48.376,38.250 41.218,41.611 34.856,41.611 ZM49.539,3.016 C43.956,3.016 37.591,6.048 32.512,11.127 C28.439,15.200 25.679,20.068 24.738,24.836 C23.841,29.387 24.727,33.272 27.232,35.778 C29.086,37.631 31.722,38.611 34.856,38.611 C40.439,38.611 46.805,35.579 51.884,30.499 C55.957,26.427 58.718,21.558 59.657,16.790 C60.555,12.240 59.669,8.354 57.163,5.848 C55.309,3.995 52.674,3.016 49.539,3.016 Z" id="path-4" class="cls-6" fill-rule="evenodd"/>
    <path d="M7.041,62.780 C6.657,62.780 6.273,62.633 5.980,62.341 C5.980,62.341 0.435,56.795 0.435,56.795 C0.153,56.514 -0.005,56.132 -0.005,55.734 C-0.005,55.337 0.153,54.955 0.435,54.674 C0.435,54.674 17.005,38.104 17.005,38.104 C21.157,33.952 21.122,29.377 21.121,29.330 C21.106,28.502 21.766,27.937 22.594,27.937 C22.602,27.937 22.612,27.937 22.622,27.937 C23.436,27.937 24.105,28.456 24.121,29.275 C24.167,31.681 26.126,34.640 26.926,35.777 C29.428,37.547 31.896,38.585 33.563,38.617 C34.386,38.633 35.042,39.292 35.034,40.115 C35.026,40.937 34.356,41.592 33.534,41.592 C33.534,41.592 33.534,41.592 33.534,41.592 C33.344,41.593 28.787,41.659 24.671,45.775 C24.671,45.775 8.102,62.342 8.102,62.342 C7.809,62.635 7.425,62.780 7.041,62.780 ZM3.616,55.734 C3.616,55.734 7.041,59.158 7.041,59.158 C7.041,59.158 22.550,43.650 22.550,43.650 C24.377,41.822 26.302,40.654 28.019,39.907 C26.803,39.264 25.736,38.553 24.972,38.000 C24.842,37.907 24.727,37.792 24.634,37.663 C24.111,36.939 23.443,35.937 22.831,34.787 C22.095,36.502 20.939,38.412 19.126,40.225 C19.126,40.225 3.616,55.734 3.616,55.734 Z" id="path-5" class="cls-6" fill-rule="evenodd"/>
    <path d="M21.367,47.529 C20.983,47.529 20.600,47.383 20.307,47.090 C20.307,47.090 15.686,42.469 15.686,42.469 C15.100,41.883 15.100,40.934 15.686,40.348 C16.271,39.762 17.221,39.762 17.807,40.348 C17.807,40.348 22.428,44.969 22.428,44.969 C23.014,45.555 23.014,46.504 22.428,47.090 C22.135,47.383 21.751,47.529 21.367,47.529 Z" id="path-6" class="cls-6" fill-rule="evenodd"/>
    <path d="M35.692,60.816 C33.870,60.816 32.156,60.106 30.868,58.817 C29.579,57.529 28.869,55.815 28.869,53.993 C28.869,52.170 29.579,50.457 30.868,49.168 C32.156,47.879 33.870,47.170 35.692,47.170 C37.515,47.170 39.229,47.879 40.517,49.168 C41.806,50.457 42.516,52.170 42.516,53.993 C42.516,55.815 41.806,57.529 40.517,58.817 C39.229,60.106 37.515,60.816 35.692,60.816 ZM35.692,50.170 C34.671,50.170 33.711,50.567 32.989,51.290 C32.268,52.012 31.869,52.972 31.869,53.993 C31.869,55.014 32.268,55.974 32.989,56.696 C34.433,58.140 36.952,58.140 38.395,56.696 C39.117,55.974 39.516,55.014 39.516,53.993 C39.516,52.972 39.117,52.012 38.395,51.290 C37.674,50.567 36.714,50.170 35.692,50.170 Z" id="path-7" class="cls-6" fill-rule="evenodd"/>
  </g>
</svg>
