<svg xmlns="http://www.w3.org/2000/svg" xmlns:xlink="http://www.w3.org/1999/xlink" preserveAspectRatio="xMidYMid" width="65" height="64" viewBox="0 0 65 64">
  <defs>
    <style>

      .cls-3 {
        fill: #8b71b5;
      }

      .cls-4 {
        fill: #53ecf4;
      }

      .cls-6 {
        fill: #000000;
      }
    </style>
  </defs>
  <g id="group-10svg">
    <path d="M65.512,33.512 C65.512,50.081 52.081,63.512 35.512,63.512 C18.943,63.512 5.512,50.081 5.512,33.512 C5.512,16.943 18.943,3.512 35.512,3.512 C52.081,3.512 65.512,16.943 65.512,33.512 Z" id="path-1" class="cls-3" fill-rule="evenodd"/>
    <path d="M38.719,3.684 C38.719,3.684 33.085,36.693 63.604,44.053 C63.604,44.053 69.819,28.356 59.647,15.694 C49.474,3.031 38.719,3.684 38.719,3.684 Z" id="path-2" class="cls-4" fill-rule="evenodd"/>
    <path d="M23.916,60.817 C40.291,34.033 12.967,14.675 12.967,14.675 C12.967,14.675 -0.678,26.848 9.169,47.877 C9.169,47.877 13.669,56.226 22.155,60.378 C22.155,60.378 23.916,60.817 23.916,60.817 Z" id="path-3" class="cls-4" fill-rule="evenodd"/>
    <path d="M31.512,63.012 C14.143,63.012 0.012,48.881 0.012,31.512 C0.012,14.143 14.143,0.012 31.512,0.012 C48.881,0.012 63.012,14.143 63.012,31.512 C63.012,48.881 48.881,63.012 31.512,63.012 ZM31.512,3.012 C15.797,3.012 3.012,15.797 3.012,31.512 C3.012,47.227 15.797,60.012 31.512,60.012 C47.227,60.012 60.012,47.227 60.012,31.512 C60.012,15.797 47.227,3.012 31.512,3.012 Z" id="path-4" class="cls-6" fill-rule="evenodd"/>
    <path d="M59.604,43.554 C59.488,43.554 59.370,43.540 59.252,43.512 C27.735,35.911 33.182,1.775 33.241,1.431 C33.357,0.748 33.937,0.233 34.628,0.186 C34.628,0.186 34.753,0.178 34.992,0.178 C36.949,0.178 47.200,0.785 56.816,12.754 C67.414,25.945 61.266,41.932 60.998,42.606 C60.768,43.188 60.208,43.554 59.604,43.554 ZM36.024,3.228 C35.356,9.206 34.220,33.503 58.621,40.250 C59.758,36.405 62.361,24.447 54.477,14.633 C46.865,5.157 39.063,3.500 36.024,3.228 Z" id="path-5" class="cls-6" fill-rule="evenodd"/>
    <path d="M19.916,60.317 C19.796,60.317 19.674,60.303 19.553,60.273 C19.553,60.273 17.792,59.834 17.792,59.834 C17.690,59.809 17.590,59.772 17.496,59.726 C8.678,55.411 4.041,46.947 3.849,46.589 C-6.392,24.724 7.823,11.685 7.968,11.556 C8.488,11.090 9.262,11.046 9.834,11.452 C10.119,11.653 38.107,31.939 21.196,59.600 C20.919,60.053 20.430,60.317 19.916,60.317 ZM18.674,56.962 C18.674,56.962 19.196,57.092 19.196,57.092 C32.003,34.862 13.789,18.386 9.111,14.667 C6.382,17.697 -1.366,28.383 6.527,45.241 C6.532,45.243 10.833,53.058 18.674,56.962 Z" id="path-6" class="cls-6" fill-rule="evenodd"/>
  </g>
</svg>
