<svg xmlns="http://www.w3.org/2000/svg" xmlns:xlink="http://www.w3.org/1999/xlink" preserveAspectRatio="xMidYMid" width="50" height="63" viewBox="0 0 50 63">
  <defs>
    <style>

      .cls-3 {
        fill: #53ecf4;
      }

      .cls-4 {
        fill: #edc951;
      }

      .cls-5 {
        fill: #e56a77;
      }

      .cls-6 {
        fill: #000000;
      }
    </style>
  </defs>
  <g id="group-4svg">
    <path d="M47.641,24.362 C47.641,10.997 35.498,0.565 21.421,4.235 C12.317,6.608 6.188,14.956 6.189,24.362 C6.189,33.807 11.031,41.782 21.031,44.356 C21.031,44.356 21.031,60.553 21.031,60.553 C21.031,61.658 22.159,62.562 23.265,62.562 C23.265,62.562 30.265,62.562 30.265,62.562 C31.369,62.562 32.031,61.658 32.031,60.553 C32.031,60.553 32.031,44.375 32.031,44.375 C40.031,41.824 47.641,33.832 47.641,24.362 Z" id="path-1" class="cls-3" fill-rule="evenodd"/>
    <path d="M21.031,50.562 C21.031,50.562 21.031,60.553 21.031,60.553 C21.031,61.658 22.159,62.562 23.265,62.562 C23.265,62.562 30.265,62.562 30.265,62.562 C31.369,62.562 32.031,61.658 32.031,60.553 C32.031,60.553 32.031,50.562 32.031,50.562 C32.031,50.562 21.031,50.562 21.031,50.562 Z" id="path-2" class="cls-4" fill-rule="evenodd"/>
    <path d="M48.306,52.073 C46.376,54.002 43.249,54.002 41.320,52.073 C39.392,50.144 39.392,47.017 41.320,45.088 C43.249,43.159 46.376,43.159 48.306,45.088 C50.234,47.017 50.234,50.144 48.306,52.073 Z" id="path-3" class="cls-5" fill-rule="evenodd"/>
    <path d="M39.812,53.020 C38.093,53.020 36.476,52.350 35.260,51.133 C32.749,48.623 32.749,44.538 35.260,42.027 C36.476,40.811 38.093,40.142 39.812,40.142 C41.532,40.142 43.149,40.811 44.366,42.027 C46.877,44.538 46.877,48.623 44.366,51.133 C43.149,52.350 41.532,53.020 39.812,53.020 ZM39.812,43.142 C38.894,43.142 38.030,43.499 37.381,44.148 C36.040,45.489 36.040,47.671 37.381,49.013 C38.680,50.312 40.944,50.311 42.245,49.012 C43.586,47.671 43.586,45.489 42.245,44.148 C41.596,43.499 40.731,43.142 39.812,43.142 Z" id="path-4" class="cls-6" fill-rule="evenodd"/>
    <path d="M25.265,61.562 C25.265,61.562 18.265,61.562 18.265,61.562 C16.240,61.562 15.031,60.437 15.031,58.553 C15.031,58.553 15.031,43.492 15.031,43.492 C5.595,40.597 0.002,32.780 0.002,22.362 C0.002,12.138 6.649,3.265 16.168,0.784 C18.183,0.258 20.221,-0.008 22.227,-0.008 C34.448,-0.008 44.391,10.027 44.391,22.362 C44.391,32.550 36.828,40.500 29.031,43.441 C29.031,43.441 29.031,58.553 29.031,58.553 C29.031,60.353 27.518,61.562 25.265,61.562 ZM18.031,58.551 C18.090,58.558 18.166,58.562 18.265,58.562 C18.265,58.562 25.265,58.562 25.265,58.562 C25.641,58.562 25.901,58.494 26.031,58.437 C26.031,58.437 26.031,42.375 26.031,42.375 C26.031,41.723 26.453,41.145 27.075,40.946 C34.015,38.733 41.391,31.467 41.391,22.362 C41.391,11.682 32.794,2.992 22.227,2.992 C20.477,2.992 18.692,3.226 16.924,3.686 C8.727,5.824 3.002,13.503 3.002,22.362 C3.002,31.731 8.199,38.663 16.905,40.904 C17.568,41.074 18.031,41.672 18.031,42.356 C18.031,42.356 18.031,58.551 18.031,58.551 Z" id="path-5" class="cls-6" fill-rule="evenodd"/>
    <path d="M27.031,43.562 C27.031,43.562 16.031,43.562 16.031,43.562 C15.203,43.562 14.531,42.891 14.531,42.062 C14.531,41.234 15.203,40.562 16.031,40.562 C16.031,40.562 27.031,40.562 27.031,40.562 C27.859,40.562 28.531,41.234 28.531,42.062 C28.531,42.891 27.859,43.562 27.031,43.562 Z" id="path-6" class="cls-6" fill-rule="evenodd"/>
    <path d="M27.031,48.562 C27.031,48.562 17.031,48.562 17.031,48.562 C16.203,48.562 15.531,47.891 15.531,47.062 C15.531,46.234 16.203,45.562 17.031,45.562 C17.031,45.562 27.031,45.562 27.031,45.562 C27.859,45.562 28.531,46.234 28.531,47.062 C28.531,47.891 27.859,48.562 27.031,48.562 Z" id="path-7" class="cls-6" fill-rule="evenodd"/>
  </g>
</svg>
