<svg xmlns="http://www.w3.org/2000/svg" xmlns:xlink="http://www.w3.org/1999/xlink" preserveAspectRatio="xMidYMid" width="64" height="28" viewBox="0 0 64 28">
  <defs>
    <style>

      .cls-3 {
        fill: #53ecf4;
      }

      .cls-4 {
        fill: #000000;
      }
    </style>
  </defs>
  <g id="group-16svg">
    <path d="M56.419,5.000 C56.419,5.000 15.631,5.000 15.631,5.000 C11.235,5.000 6.000,8.041 6.000,12.436 C6.000,12.436 6.000,16.492 6.000,16.492 C6.000,17.877 7.182,19.582 7.814,21.275 C9.649,26.187 15.449,28.787 20.487,27.331 C20.487,27.331 29.722,24.720 29.722,24.720 C30.768,22.693 33.053,21.122 35.585,21.122 C38.117,21.122 40.352,22.693 41.396,24.720 C41.396,24.720 51.358,27.399 51.358,27.399 C56.611,28.815 61.379,25.837 62.984,20.639 C63.440,19.160 63.000,17.704 63.000,16.492 C63.000,16.492 63.000,12.436 63.000,12.436 C63.000,8.023 60.833,5.000 56.419,5.000 Z" id="path-1" class="cls-3" fill-rule="evenodd"/>
    <path d="M48.340,26.413 C48.340,26.413 48.340,26.413 48.339,26.413 C47.322,26.413 46.303,26.276 45.309,26.008 C45.309,26.008 35.365,23.330 35.365,23.330 C34.958,23.221 34.616,22.944 34.423,22.569 C33.563,20.903 31.779,19.784 29.981,19.784 C28.175,19.784 26.385,20.903 25.525,22.569 C25.336,22.937 25.004,23.209 24.606,23.323 C24.606,23.323 15.518,25.934 15.518,25.934 C14.461,26.239 13.362,26.395 12.255,26.395 C7.376,26.395 2.981,23.408 1.320,18.962 C0.625,17.100 -0.000,15.293 -0.000,13.653 C-0.000,13.653 -0.000,9.598 -0.000,9.598 C-0.000,4.485 4.651,-0.000 9.954,-0.000 C9.954,-0.000 50.742,-0.000 50.742,-0.000 C55.934,-0.000 60.000,4.216 60.000,9.598 C60.000,9.598 60.000,13.653 60.000,13.653 C60.000,15.276 59.777,16.820 59.338,18.243 C57.829,23.129 53.409,26.413 48.340,26.413 ZM36.747,20.596 C36.747,20.596 46.090,23.112 46.090,23.112 C46.829,23.312 47.586,23.413 48.339,23.413 C48.340,23.413 48.340,23.413 48.340,23.413 C52.086,23.413 55.353,20.979 56.471,17.358 C56.822,16.222 57.000,14.975 57.000,13.653 C57.000,13.653 57.000,9.598 57.000,9.598 C57.000,5.898 54.251,3.000 50.742,3.000 C50.742,3.000 9.954,3.000 9.954,3.000 C6.314,3.000 3.000,6.145 3.000,9.598 C3.000,9.598 3.000,13.653 3.000,13.653 C3.000,14.791 3.559,16.381 4.131,17.912 C5.355,21.191 8.621,23.395 12.255,23.395 C13.080,23.395 13.898,23.279 14.688,23.051 C14.688,23.051 23.193,20.608 23.193,20.608 C24.660,18.266 27.257,16.784 29.981,16.784 C32.693,16.784 35.279,18.260 36.747,20.596 Z" id="path-2" class="cls-4" fill-rule="evenodd"/>
    <path d="M46.739,20.576 C46.261,20.576 45.763,20.552 45.245,20.503 C44.420,20.425 43.814,19.693 43.893,18.869 C43.971,18.043 44.709,17.440 45.526,17.516 C47.939,17.743 49.663,17.332 50.652,16.291 C51.990,14.883 51.679,12.621 51.675,12.599 C51.557,11.782 52.118,11.018 52.934,10.894 C53.755,10.770 54.512,11.324 54.640,12.139 C54.663,12.289 55.193,15.838 52.853,18.331 C51.450,19.823 49.398,20.576 46.739,20.576 Z" id="path-3" class="cls-4" fill-rule="evenodd"/>
    <path d="M14.347,20.576 C11.687,20.576 9.636,19.824 8.233,18.331 C5.893,15.838 6.423,12.289 6.446,12.139 C6.575,11.320 7.350,10.763 8.162,10.891 C8.978,11.020 9.535,11.784 9.410,12.599 C9.404,12.645 9.102,14.891 10.434,16.291 C11.424,17.332 13.149,17.743 15.560,17.516 C16.391,17.439 17.115,18.044 17.193,18.869 C17.271,19.693 16.666,20.425 15.841,20.503 C15.323,20.552 14.825,20.576 14.347,20.576 Z" id="path-4" class="cls-4" fill-rule="evenodd"/>
  </g>
</svg>
