<svg xmlns="http://www.w3.org/2000/svg" xmlns:xlink="http://www.w3.org/1999/xlink" preserveAspectRatio="xMidYMid" width="40" height="63" viewBox="0 0 40 63">
  <defs>
    <style>

      .cls-3 {
        fill: #edc951;
      }

      .cls-4 {
        fill: #e56a77;
      }

      .cls-6 {
        fill: #81bda4;
      }

      .cls-7 {
        fill: #000000;
      }
    </style>
  </defs>
  <g id="group-15svg">
    <path d="M7.840,3.499 C6.913,5.718 6.505,7.911 6.505,10.504 C6.505,20.258 13.804,28.164 22.807,28.164 C31.810,28.164 39.108,20.258 39.108,10.504 C39.108,8.066 38.652,5.743 37.827,3.630 C37.827,3.630 7.840,3.499 7.840,3.499 Z" id="path-1" class="cls-3" fill-rule="evenodd"/>
    <path d="M17.937,27.844 C17.937,27.844 17.937,47.844 17.937,47.844 C17.937,47.844 24.937,47.844 24.937,47.844 C24.937,47.844 24.937,27.844 24.937,27.844 C24.937,27.844 24.937,27.844 24.937,27.844 " id="path-2" class="cls-4" fill-rule="evenodd"/>
    <path d="M35.937,62.844 C35.937,62.844 6.937,62.844 6.937,62.844 C6.937,62.844 6.937,54.844 6.937,54.844 C6.937,54.844 35.937,54.844 35.937,54.844 C35.937,54.844 35.937,62.844 35.937,62.844 Z" id="path-3" class="cls-4" fill-rule="evenodd"/>
    <path d="M30.937,54.844 C30.937,54.844 11.937,54.844 11.937,54.844 C11.937,54.844 11.937,47.844 11.937,47.844 C11.937,47.844 30.937,47.844 30.937,47.844 C30.937,47.844 30.937,54.844 30.937,54.844 Z" id="path-4" class="cls-6" fill-rule="evenodd"/>
    <path d="M17.807,27.664 C7.991,27.664 0.005,19.069 0.005,8.504 C0.005,5.698 0.466,3.288 1.456,0.920 C1.690,0.360 2.262,-0.011 2.846,-0.001 C2.846,-0.001 32.833,0.131 32.833,0.131 C33.449,0.133 34.000,0.512 34.225,1.085 C35.143,3.438 35.608,5.934 35.608,8.504 C35.608,19.069 27.622,27.664 17.807,27.664 ZM3.869,3.003 C3.275,4.711 3.005,6.448 3.005,8.504 C3.005,17.415 9.645,24.664 17.807,24.664 C25.968,24.664 32.608,17.415 32.608,8.504 C32.608,6.652 32.326,4.848 31.769,3.126 C31.769,3.126 3.869,3.003 3.869,3.003 Z" id="path-5" class="cls-7" fill-rule="evenodd"/>
    <path d="M20.437,46.844 C20.437,46.844 13.437,46.844 13.437,46.844 C12.609,46.844 11.937,46.172 11.937,45.344 C11.937,45.344 11.937,25.844 11.937,25.844 C11.937,25.015 12.609,24.344 13.437,24.344 C14.266,24.344 14.937,25.015 14.937,25.844 C14.937,25.844 14.937,43.844 14.937,43.844 C14.937,43.844 18.937,43.844 18.937,43.844 C18.937,43.844 18.937,25.844 18.937,25.844 C18.937,25.015 19.609,24.344 20.437,24.344 C21.266,24.344 21.937,25.015 21.937,25.844 C21.937,25.844 21.937,45.344 21.937,45.344 C21.937,46.172 21.266,46.844 20.437,46.844 Z" id="path-6" class="cls-7" fill-rule="evenodd"/>
    <path d="M26.437,53.844 C26.437,53.844 7.437,53.844 7.437,53.844 C6.609,53.844 5.937,53.172 5.937,52.344 C5.937,52.344 5.937,45.344 5.937,45.344 C5.937,44.515 6.609,43.844 7.437,43.844 C7.437,43.844 26.437,43.844 26.437,43.844 C27.266,43.844 27.937,44.515 27.937,45.344 C27.937,45.344 27.937,52.344 27.937,52.344 C27.937,53.172 27.266,53.844 26.437,53.844 ZM8.937,50.844 C8.937,50.844 24.937,50.844 24.937,50.844 C24.937,50.844 24.937,46.844 24.937,46.844 C24.937,46.844 8.937,46.844 8.937,46.844 C8.937,46.844 8.937,50.844 8.937,50.844 Z" id="path-7" class="cls-7" fill-rule="evenodd"/>
    <path d="M31.437,61.844 C31.437,61.844 2.437,61.844 2.437,61.844 C1.609,61.844 0.937,61.172 0.937,60.344 C0.937,60.344 0.937,52.344 0.937,52.344 C0.937,51.515 1.609,50.844 2.437,50.844 C2.437,50.844 31.437,50.844 31.437,50.844 C32.266,50.844 32.937,51.515 32.937,52.344 C32.937,52.344 32.937,60.344 32.937,60.344 C32.937,61.172 32.266,61.844 31.437,61.844 ZM3.937,58.844 C3.937,58.844 29.937,58.844 29.937,58.844 C29.937,58.844 29.937,53.844 29.937,53.844 C29.937,53.844 3.937,53.844 3.937,53.844 C3.937,53.844 3.937,58.844 3.937,58.844 Z" id="path-8" class="cls-7" fill-rule="evenodd"/>
  </g>
</svg>
