<svg xmlns="http://www.w3.org/2000/svg" xmlns:xlink="http://www.w3.org/1999/xlink" preserveAspectRatio="xMidYMid" width="66" height="44" viewBox="0 0 66 44">
  <defs>
    <style>

      .cls-3 {
        fill: #53ecf4;
      }

      .cls-4 {
        fill: #ff917b;
      }

      .cls-5 {
        fill: #000000;
      }
    </style>
  </defs>
  <g id="group-20svg">
    <path d="M8.372,38.623 C6.532,35.248 5.486,31.377 5.486,27.263 C5.486,14.137 16.127,3.496 29.253,3.496 C37.613,3.496 44.966,7.813 49.202,14.340 C49.202,14.340 35.473,23.228 22.860,18.535 C22.860,18.535 18.127,21.856 25.833,25.771 C33.539,29.686 38.729,32.821 34.013,42.726 C34.013,42.726 8.372,38.623 8.372,38.623 Z" id="path-1" class="cls-3" fill-rule="evenodd"/>
    <path d="M32.691,25.501 C32.691,25.501 52.760,19.470 52.760,19.470 C52.760,19.470 65.486,26.577 65.486,26.577 C65.486,26.577 42.629,27.523 42.629,27.523 C42.629,27.523 32.691,25.501 32.691,25.501 Z" id="path-2" class="cls-4" fill-rule="evenodd"/>
    <path d="M30.014,42.226 C29.935,42.226 29.855,42.220 29.775,42.207 C29.775,42.207 4.135,38.103 4.135,38.103 C3.677,38.030 3.277,37.748 3.055,37.340 C1.048,33.658 -0.014,29.481 -0.014,25.263 C-0.014,11.331 11.321,-0.004 25.253,-0.004 C33.848,-0.004 41.775,4.305 46.460,11.523 C46.677,11.857 46.752,12.264 46.669,12.653 C46.586,13.042 46.352,13.383 46.018,13.599 C45.651,13.836 36.935,19.403 26.773,19.403 C24.127,19.403 21.601,19.018 19.247,18.257 C19.061,18.511 18.896,18.840 18.926,19.193 C18.962,19.638 19.385,20.845 22.513,22.434 C29.587,26.029 36.902,29.746 31.367,41.371 C31.115,41.898 30.584,42.226 30.014,42.226 ZM5.352,35.260 C5.352,35.260 29.118,39.063 29.118,39.063 C32.427,31.294 28.582,28.883 21.153,25.108 C17.839,23.425 16.082,21.501 15.932,19.393 C15.759,16.953 17.769,15.469 17.999,15.308 C18.403,15.023 18.922,14.957 19.384,15.129 C21.655,15.975 24.142,16.403 26.773,16.403 C33.850,16.403 40.323,13.342 43.039,11.863 C38.837,6.283 32.299,2.996 25.253,2.996 C12.975,2.996 2.986,12.985 2.986,25.263 C2.986,28.737 3.803,32.178 5.352,35.260 Z" id="path-3" class="cls-5" fill-rule="evenodd"/>
    <path d="M38.630,27.023 C38.529,27.023 38.430,27.013 38.331,26.993 C38.331,26.993 28.393,24.971 28.393,24.971 C27.719,24.834 27.225,24.256 27.193,23.569 C27.161,22.883 27.602,22.263 28.260,22.064 C28.260,22.064 48.328,16.034 48.328,16.034 C48.719,15.916 49.137,15.963 49.491,16.161 C49.491,16.161 62.218,23.267 62.218,23.267 C62.804,23.594 63.102,24.271 62.945,24.924 C62.790,25.577 62.219,26.048 61.549,26.075 C61.549,26.075 38.692,27.022 38.692,27.022 C38.671,27.022 38.650,27.023 38.630,27.023 ZM34.837,23.221 C34.837,23.221 38.750,24.017 38.750,24.017 C38.750,24.017 56.119,23.298 56.119,23.298 C56.119,23.298 48.583,19.090 48.583,19.090 C48.583,19.090 34.837,23.221 34.837,23.221 Z" id="path-4" class="cls-5" fill-rule="evenodd"/>
  </g>
</svg>
