<svg xmlns="http://www.w3.org/2000/svg" xmlns:xlink="http://www.w3.org/1999/xlink" preserveAspectRatio="xMidYMid" width="62" height="63" viewBox="0 0 62 63">
  <defs>
    <style>

      .cls-3 {
        fill: #e56a77;
      }

      .cls-4 {
        fill: #edc951;
      }

      .cls-5 {
        fill: #000000;
      }
    </style>
  </defs>
  <g id="group-22svg">
    <path d="M60.681,34.042 C60.681,47.398 49.854,58.225 36.499,58.225 C23.143,58.225 12.316,47.398 12.316,34.042 C12.316,20.687 23.143,9.860 36.499,9.860 C49.854,9.860 60.681,20.687 60.681,34.042 Z" id="path-1" class="cls-3" fill-rule="evenodd"/>
    <path d="M47.998,34.042 C47.998,40.394 42.850,45.542 36.499,45.542 C30.147,45.542 25.000,40.394 25.000,34.042 C25.000,27.692 30.147,22.543 36.499,22.543 C42.850,22.543 47.998,27.692 47.998,34.042 Z" id="path-2" class="cls-4" fill-rule="evenodd"/>
    <path d="M31.499,56.725 C17.338,56.725 5.816,45.204 5.816,31.042 C5.816,16.882 17.338,5.360 31.499,5.360 C45.660,5.360 57.181,16.882 57.181,31.042 C57.181,45.204 45.660,56.725 31.499,56.725 ZM31.499,8.360 C18.992,8.360 8.816,18.536 8.816,31.042 C8.816,43.550 18.992,53.725 31.499,53.725 C44.006,53.725 54.181,43.550 54.181,31.042 C54.181,18.536 44.006,8.360 31.499,8.360 Z" id="path-3" class="cls-5" fill-rule="evenodd"/>
    <path d="M31.499,44.042 C24.331,44.042 18.499,38.210 18.499,31.042 C18.499,23.875 24.331,18.043 31.499,18.043 C38.667,18.043 44.498,23.875 44.498,31.042 C44.498,38.210 38.667,44.042 31.499,44.042 ZM31.499,21.043 C25.985,21.043 21.499,25.529 21.499,31.042 C21.499,36.557 25.985,41.042 31.499,41.042 C37.013,41.042 41.498,36.557 41.498,31.042 C41.498,25.529 37.013,21.043 31.499,21.043 Z" id="path-4" class="cls-5" fill-rule="evenodd"/>
    <path d="M35.855,31.042 C35.855,33.449 33.904,35.399 31.499,35.399 C29.093,35.399 27.143,33.449 27.143,31.042 C27.143,28.637 29.093,26.686 31.499,26.686 C33.904,26.686 35.855,28.637 35.855,31.042 Z" id="path-5" class="cls-5" fill-rule="evenodd"/>
    <path d="M9.777,54.368 C9.394,54.368 9.010,54.221 8.717,53.928 C8.131,53.342 8.131,52.393 8.717,51.807 C8.717,51.807 13.263,47.261 13.263,47.261 C13.849,46.676 14.798,46.675 15.384,47.262 C15.970,47.847 15.970,48.797 15.384,49.383 C15.384,49.383 10.838,53.929 10.838,53.929 C10.545,54.221 10.161,54.368 9.777,54.368 Z" id="path-6" class="cls-5" fill-rule="evenodd"/>
    <path d="M48.416,15.729 C48.032,15.729 47.648,15.583 47.355,15.290 C46.770,14.704 46.770,13.754 47.355,13.169 C47.355,13.169 51.144,9.381 51.144,9.381 C51.729,8.795 52.679,8.795 53.265,9.381 C53.851,9.967 53.851,10.916 53.265,11.502 C53.265,11.502 49.476,15.290 49.476,15.290 C49.184,15.583 48.800,15.729 48.416,15.729 Z" id="path-7" class="cls-5" fill-rule="evenodd"/>
    <path d="M51.446,54.368 C51.062,54.368 50.679,54.221 50.386,53.928 C50.386,53.928 47.355,50.898 47.355,50.898 C46.770,50.312 46.770,49.362 47.355,48.777 C47.941,48.191 48.891,48.191 49.476,48.777 C49.476,48.777 52.507,51.807 52.507,51.807 C53.093,52.393 53.093,53.342 52.507,53.928 C52.214,54.221 51.830,54.368 51.446,54.368 Z" id="path-8" class="cls-5" fill-rule="evenodd"/>
    <path d="M13.565,16.487 C13.182,16.487 12.798,16.341 12.505,16.047 C12.505,16.047 8.717,12.259 8.717,12.259 C8.131,11.674 8.131,10.724 8.717,10.138 C9.303,9.553 10.252,9.553 10.838,10.138 C10.838,10.138 14.626,13.926 14.626,13.926 C15.212,14.512 15.212,15.462 14.626,16.047 C14.333,16.341 13.949,16.487 13.565,16.487 Z" id="path-9" class="cls-5" fill-rule="evenodd"/>
    <path d="M31.000,63.000 C30.172,63.000 29.500,62.329 29.500,61.500 C29.500,61.500 29.500,55.500 29.500,55.500 C29.500,54.671 30.172,54.000 31.000,54.000 C31.828,54.000 32.500,54.671 32.500,55.500 C32.500,55.500 32.500,61.500 32.500,61.500 C32.500,62.329 31.828,63.000 31.000,63.000 Z" id="path-10" class="cls-5" fill-rule="evenodd"/>
    <path d="M31.000,8.000 C30.172,8.000 29.500,7.329 29.500,6.500 C29.500,6.500 29.500,1.500 29.500,1.500 C29.500,0.671 30.172,-0.000 31.000,-0.000 C31.828,-0.000 32.500,0.671 32.500,1.500 C32.500,1.500 32.500,6.500 32.500,6.500 C32.500,7.329 31.828,8.000 31.000,8.000 Z" id="path-11" class="cls-5" fill-rule="evenodd"/>
    <path d="M60.500,33.500 C60.500,33.500 56.500,33.500 56.500,33.500 C55.672,33.500 55.000,32.829 55.000,32.000 C55.000,31.171 55.672,30.500 56.500,30.500 C56.500,30.500 60.500,30.500 60.500,30.500 C61.328,30.500 62.000,31.171 62.000,32.000 C62.000,32.829 61.328,33.500 60.500,33.500 Z" id="path-12" class="cls-5" fill-rule="evenodd"/>
    <path d="M6.500,33.500 C6.500,33.500 1.500,33.500 1.500,33.500 C0.672,33.500 -0.000,32.829 -0.000,32.000 C-0.000,31.171 0.672,30.500 1.500,30.500 C1.500,30.500 6.500,30.500 6.500,30.500 C7.328,30.500 8.000,31.171 8.000,32.000 C8.000,32.829 7.328,33.500 6.500,33.500 Z" id="path-13" class="cls-5" fill-rule="evenodd"/>
  </g>
</svg>
