<svg xmlns="http://www.w3.org/2000/svg" xmlns:xlink="http://www.w3.org/1999/xlink" preserveAspectRatio="xMidYMid" width="63" height="65" viewBox="0 0 63 65">
  <defs>
    <style>

      .cls-3 {
        fill: #e56a77;
      }

      .cls-4 {
        fill: #ff917b;
      }

      .cls-5 {
        fill: #000000;
      }
    </style>
  </defs>
  <g id="group-1svg">
    <path d="M61.731,38.660 C61.731,52.926 50.166,64.491 35.899,64.491 C21.633,64.491 10.067,52.926 10.067,38.660 C10.067,24.393 21.633,12.828 35.899,12.828 C50.166,12.828 61.731,24.393 61.731,38.660 Z" id="path-1" class="cls-3" fill-rule="evenodd"/>
    <path d="M53.871,38.660 C53.871,48.585 45.824,56.631 35.899,56.631 C25.975,56.631 17.928,48.585 17.928,38.660 C17.928,28.734 25.975,20.688 35.899,20.688 C45.824,20.688 53.871,28.734 53.871,38.660 Z" id="path-2" class="cls-4" fill-rule="evenodd"/>
    <path d="M29.899,55.131 C19.163,55.131 10.428,46.396 10.428,35.660 C10.428,24.923 19.163,16.188 29.899,16.188 C40.636,16.188 49.371,24.923 49.371,35.660 C49.371,46.396 40.636,55.131 29.899,55.131 ZM29.899,19.188 C20.816,19.188 13.428,26.577 13.428,35.660 C13.428,44.742 20.816,52.131 29.899,52.131 C38.982,52.131 46.371,44.742 46.371,35.660 C46.371,26.577 38.982,19.188 29.899,19.188 Z" id="path-3" class="cls-5" fill-rule="evenodd"/>
    <path d="M29.899,62.991 C14.828,62.991 2.567,50.730 2.567,35.660 C2.567,20.589 14.828,8.328 29.899,8.328 C44.971,8.328 57.231,20.589 57.231,35.660 C57.231,50.730 44.971,62.991 29.899,62.991 ZM29.899,11.328 C16.482,11.328 5.567,22.243 5.567,35.660 C5.567,49.076 16.482,59.991 29.899,59.991 C43.316,59.991 54.231,49.076 54.231,35.660 C54.231,22.243 43.316,11.328 29.899,11.328 Z" id="path-4" class="cls-5" fill-rule="evenodd"/>
    <path d="M29.187,44.031 C28.359,44.031 27.687,43.360 27.687,42.531 C27.687,42.531 27.687,31.338 27.687,31.338 C27.687,31.338 26.061,33.425 26.061,33.425 C25.552,34.079 24.608,34.195 23.956,33.686 C23.303,33.177 23.186,32.235 23.694,31.581 C23.694,31.581 28.004,26.049 28.004,26.049 C28.398,25.544 29.070,25.345 29.675,25.553 C30.280,25.761 30.687,26.331 30.687,26.972 C30.687,26.972 30.687,42.531 30.687,42.531 C30.687,43.360 30.016,44.031 29.187,44.031 Z" id="path-5" class="cls-5" fill-rule="evenodd"/>
    <path d="M34.687,44.531 C34.687,44.531 22.687,44.531 22.687,44.531 C21.859,44.531 21.187,43.860 21.187,43.031 C21.187,42.203 21.859,41.531 22.687,41.531 C22.687,41.531 34.687,41.531 34.687,41.531 C35.516,41.531 36.187,42.203 36.187,43.031 C36.187,43.860 35.516,44.531 34.687,44.531 Z" id="path-6" class="cls-5" fill-rule="evenodd"/>
    <path d="M46.247,17.160 C45.889,17.160 45.530,17.033 45.243,16.775 C44.628,16.221 44.578,15.272 45.132,14.657 C45.132,14.657 54.616,4.119 54.616,4.119 C55.173,3.502 56.119,3.454 56.735,4.007 C57.351,4.562 57.400,5.510 56.847,6.126 C56.847,6.126 47.362,16.664 47.362,16.664 C47.065,16.993 46.657,17.160 46.247,17.160 Z" id="path-7" class="cls-5" fill-rule="evenodd"/>
    <path d="M35.216,11.328 C34.846,11.328 34.477,11.192 34.187,10.918 C33.584,10.350 33.557,9.400 34.125,8.798 C34.125,8.798 41.993,0.462 41.993,0.462 C42.562,-0.141 43.512,-0.168 44.113,0.401 C44.716,0.969 44.743,1.919 44.175,2.521 C44.175,2.521 36.307,10.857 36.307,10.857 C36.012,11.170 35.614,11.328 35.216,11.328 Z" id="path-8" class="cls-5" fill-rule="evenodd"/>
    <path d="M10.976,17.160 C10.566,17.160 10.158,16.993 9.861,16.664 C9.861,16.664 0.377,6.126 0.377,6.126 C-0.177,5.510 -0.127,4.562 0.488,4.007 C1.104,3.455 2.051,3.502 2.607,4.119 C2.607,4.119 12.092,14.657 12.092,14.657 C12.645,15.272 12.596,16.221 11.980,16.775 C11.693,17.033 11.335,17.160 10.976,17.160 Z" id="path-9" class="cls-5" fill-rule="evenodd"/>
    <path d="M22.008,11.328 C21.609,11.328 21.212,11.170 20.917,10.857 C20.917,10.857 13.048,2.521 13.048,2.521 C12.479,1.919 12.507,0.969 13.109,0.401 C13.710,-0.167 14.660,-0.141 15.229,0.461 C15.229,0.461 23.099,8.798 23.099,8.798 C23.667,9.400 23.640,10.350 23.037,10.918 C22.748,11.192 22.378,11.328 22.008,11.328 Z" id="path-10" class="cls-5" fill-rule="evenodd"/>
  </g>
</svg>
