<svg xmlns="http://www.w3.org/2000/svg" xmlns:xlink="http://www.w3.org/1999/xlink" preserveAspectRatio="xMidYMid" width="63" height="58" viewBox="0 0 63 58">
  <defs>
    <style>

      .cls-3 {
        fill: #81bda4;
      }

      .cls-4 {
        fill: #000000;
      }
    </style>
  </defs>
  <g id="group-11svg">
    <path d="M40.469,27.393 C55.469,19.507 58.395,4.000 58.395,4.000 C58.395,4.000 36.912,4.000 36.912,4.000 C36.912,4.000 15.567,4.000 15.567,4.000 C15.567,4.000 16.469,19.507 30.469,27.393 C30.469,27.393 30.469,43.000 30.469,43.000 C30.469,43.000 23.778,43.000 23.778,43.000 C21.645,43.000 19.469,44.505 19.469,46.639 C19.469,46.639 19.469,53.402 19.469,53.402 C19.469,55.536 21.645,58.000 23.778,58.000 C23.778,58.000 36.912,58.000 36.912,58.000 C36.912,58.000 48.896,58.000 48.896,58.000 C51.030,58.000 51.469,55.536 51.469,53.402 C51.469,53.402 51.469,46.639 51.469,46.639 C51.469,44.505 51.030,43.000 48.896,43.000 C48.896,43.000 40.469,43.000 40.469,43.000 C40.469,43.000 40.469,27.393 40.469,27.393 Z" id="path-1" class="cls-3" fill-rule="evenodd"/>
    <path d="M43.896,57.000 C43.896,57.000 18.779,57.000 18.779,57.000 C15.900,57.000 13.469,54.436 13.469,51.401 C13.469,51.401 13.469,44.640 13.469,44.640 C13.469,41.583 15.900,39.000 18.779,39.000 C18.779,39.000 24.469,39.000 24.469,39.000 C24.469,39.000 24.469,26.254 24.469,26.254 C10.655,17.948 9.132,2.304 9.073,1.631 C9.036,1.212 9.177,0.797 9.461,0.487 C9.745,0.176 10.146,-0.000 10.567,-0.000 C10.567,-0.000 53.395,-0.000 53.395,-0.000 C53.832,-0.000 54.248,0.191 54.533,0.522 C54.818,0.853 54.944,1.292 54.878,1.725 C54.777,2.397 52.250,18.015 37.469,26.285 C37.469,26.285 37.469,39.000 37.469,39.000 C37.469,39.000 43.896,39.000 43.896,39.000 C46.631,39.000 48.469,41.267 48.469,44.640 C48.469,44.640 48.469,51.401 48.469,51.401 C48.469,54.750 46.631,57.000 43.896,57.000 ZM18.779,42.000 C17.570,42.000 16.469,43.258 16.469,44.640 C16.469,44.640 16.469,51.401 16.469,51.401 C16.469,52.786 17.548,54.000 18.779,54.000 C18.779,54.000 43.896,54.000 43.896,54.000 C45.355,54.000 45.469,52.011 45.469,51.401 C45.469,51.401 45.469,44.640 45.469,44.640 C45.469,44.199 45.393,42.000 43.896,42.000 C43.896,42.000 35.969,42.000 35.969,42.000 C35.140,42.000 34.469,41.329 34.469,40.500 C34.469,40.500 34.469,25.392 34.469,25.392 C34.469,24.835 34.778,24.324 35.271,24.064 C46.593,18.113 50.433,7.213 51.530,3.000 C51.530,3.000 12.315,3.000 12.315,3.000 C13.105,7.139 16.144,18.138 26.705,24.085 C27.177,24.351 27.469,24.851 27.469,25.392 C27.469,25.392 27.469,40.500 27.469,40.500 C27.469,41.329 26.797,42.000 25.969,42.000 C25.969,42.000 18.779,42.000 18.779,42.000 Z" id="path-2" class="cls-4" fill-rule="evenodd"/>
    <path d="M54.142,19.895 C53.610,19.895 53.095,19.612 52.823,19.112 C52.427,18.384 52.695,17.473 53.423,17.077 C56.982,15.141 58.697,11.974 59.461,10.000 C59.461,10.000 51.469,10.000 51.469,10.000 C50.640,10.000 49.969,9.329 49.969,8.500 C49.969,7.671 50.640,7.000 51.469,7.000 C51.469,7.000 61.481,7.000 61.481,7.000 C61.926,7.000 62.349,7.198 62.634,7.540 C62.919,7.883 63.037,8.334 62.956,8.772 C62.901,9.069 61.537,16.077 54.857,19.712 C54.629,19.836 54.384,19.895 54.142,19.895 Z" id="path-3" class="cls-4" fill-rule="evenodd"/>
    <path d="M8.308,19.895 C8.065,19.895 7.820,19.836 7.592,19.712 C0.850,16.043 0.021,8.959 -0.011,8.659 C-0.056,8.236 0.081,7.813 0.365,7.497 C0.650,7.181 1.056,7.000 1.481,7.000 C1.481,7.000 10.469,7.000 10.469,7.000 C11.297,7.000 11.969,7.671 11.969,8.500 C11.969,9.329 11.297,10.000 10.469,10.000 C10.469,10.000 3.350,10.000 3.350,10.000 C3.946,11.938 5.434,15.122 9.026,17.077 C9.754,17.473 10.022,18.384 9.626,19.112 C9.354,19.612 8.839,19.895 8.308,19.895 Z" id="path-4" class="cls-4" fill-rule="evenodd"/>
    <path d="M40.469,51.000 C40.469,51.000 22.469,51.000 22.469,51.000 C21.640,51.000 20.969,50.329 20.969,49.500 C20.969,48.671 21.640,48.000 22.469,48.000 C22.469,48.000 40.469,48.000 40.469,48.000 C41.297,48.000 41.969,48.671 41.969,49.500 C41.969,50.329 41.297,51.000 40.469,51.000 Z" id="path-5" class="cls-4" fill-rule="evenodd"/>
    <path d="M37.469,46.000 C37.469,46.000 25.469,46.000 25.469,46.000 C24.640,46.000 23.969,45.329 23.969,44.500 C23.969,43.671 24.640,43.000 25.469,43.000 C25.469,43.000 37.469,43.000 37.469,43.000 C38.297,43.000 38.969,43.671 38.969,44.500 C38.969,45.329 38.297,46.000 37.469,46.000 Z" id="path-6" class="cls-4" fill-rule="evenodd"/>
  </g>
</svg>
