<svg xmlns="http://www.w3.org/2000/svg" xmlns:xlink="http://www.w3.org/1999/xlink" preserveAspectRatio="xMidYMid" width="65" height="56" viewBox="0 0 65 56">
  <defs>
    <style>

      .cls-3 {
        fill: #8b71b5;
      }

      .cls-10 {
        fill: #edc951;
      }

      .cls-16 {
        fill: #000000;
      }
    </style>
  </defs>
  <g id="group-26svg">
    <path d="M49.523,46.629 C47.855,48.298 45.149,48.298 43.481,46.629 C41.812,44.961 41.812,42.255 43.481,40.587 C45.149,38.918 47.855,38.918 49.523,40.587 C51.192,42.255 51.192,44.961 49.523,46.629 Z" id="path-1" class="cls-3" fill-rule="evenodd"/>
    <path d="M35.884,46.629 C34.215,48.298 31.510,48.298 29.841,46.629 C28.172,44.961 28.172,42.255 29.841,40.587 C31.510,38.918 34.215,38.918 35.884,40.587 C37.552,42.255 37.552,44.961 35.884,46.629 Z" id="path-2" class="cls-3" fill-rule="evenodd"/>
    <path d="M42.281,34.559 C40.613,36.228 37.907,36.228 36.239,34.559 C34.570,32.890 34.570,30.185 36.239,28.516 C37.907,26.848 40.613,26.848 42.281,28.516 C43.950,30.185 43.950,32.890 42.281,34.559 Z" id="path-3" class="cls-3" fill-rule="evenodd"/>
    <path d="M36.246,22.488 C34.577,24.157 31.872,24.157 30.203,22.488 C28.535,20.820 28.535,18.114 30.203,16.446 C31.872,14.777 34.577,14.777 36.246,16.446 C37.915,18.114 37.915,20.820 36.246,22.488 Z" id="path-4" class="cls-3" fill-rule="evenodd"/>
    <path d="M28.641,34.559 C26.973,36.228 24.268,36.228 22.599,34.559 C20.930,32.890 20.930,30.185 22.599,28.516 C24.268,26.848 26.973,26.848 28.641,28.516 C30.310,30.185 30.310,32.890 28.641,34.559 Z" id="path-5" class="cls-3" fill-rule="evenodd"/>
    <path d="M22.244,46.629 C20.575,48.298 17.870,48.298 16.201,46.629 C14.532,44.961 14.532,42.255 16.201,40.587 C17.870,38.918 20.575,38.918 22.244,40.587 C23.912,42.255 23.912,44.961 22.244,46.629 Z" id="path-6" class="cls-3" fill-rule="evenodd"/>
    <path d="M41.357,6.623 C41.357,6.623 63.851,48.878 63.851,48.878 C65.785,52.549 63.123,56.500 58.974,56.500 C58.974,56.500 10.016,56.500 10.016,56.500 C5.696,56.500 3.054,52.216 5.330,48.543 C5.330,48.543 31.793,6.058 31.793,6.058 C34.039,2.435 39.371,2.851 41.357,6.623 Z" id="path-7" class="cls-3" fill-rule="evenodd"/>
    <path d="M52.523,48.629 C50.855,50.298 48.149,50.298 46.481,48.629 C44.812,46.961 44.812,44.255 46.481,42.587 C48.149,40.918 50.855,40.918 52.523,42.587 C54.192,44.255 54.192,46.961 52.523,48.629 Z" id="path-8" class="cls-10" fill-rule="evenodd"/>
    <path d="M38.884,48.629 C37.215,50.298 34.510,50.298 32.841,48.629 C31.172,46.961 31.172,44.255 32.841,42.587 C34.510,40.918 37.215,40.918 38.884,42.587 C40.552,44.255 40.552,46.961 38.884,48.629 Z" id="path-9" class="cls-10" fill-rule="evenodd"/>
    <path d="M45.281,36.559 C43.613,38.228 40.907,38.228 39.239,36.559 C37.570,34.890 37.570,32.185 39.239,30.516 C40.907,28.848 43.613,28.848 45.281,30.516 C46.950,32.185 46.950,34.890 45.281,36.559 Z" id="path-10" class="cls-10" fill-rule="evenodd"/>
    <path d="M39.246,24.488 C37.577,26.157 34.872,26.157 33.203,24.488 C31.535,22.820 31.535,20.114 33.203,18.446 C34.872,16.777 37.577,16.777 39.246,18.446 C40.915,20.114 40.915,22.820 39.246,24.488 Z" id="path-11" class="cls-10" fill-rule="evenodd"/>
    <path d="M31.641,36.559 C29.973,38.228 27.268,38.228 25.599,36.559 C23.930,34.890 23.930,32.185 25.599,30.516 C27.268,28.848 29.973,28.848 31.641,30.516 C33.310,32.185 33.310,34.890 31.641,36.559 Z" id="path-12" class="cls-10" fill-rule="evenodd"/>
    <path d="M25.244,48.629 C23.575,50.298 20.870,50.298 19.201,48.629 C17.532,46.961 17.532,44.255 19.201,42.587 C20.870,40.918 23.575,40.918 25.244,42.587 C26.912,44.255 26.912,46.961 25.244,48.629 Z" id="path-13" class="cls-10" fill-rule="evenodd"/>
    <path d="M55.974,55.500 C55.974,55.500 7.016,55.500 7.016,55.500 C4.307,55.500 1.972,54.210 0.768,52.050 C-0.349,50.043 -0.242,47.596 1.055,45.503 C1.055,45.503 27.521,3.139 27.521,3.139 C28.762,1.137 30.836,-0.015 33.210,-0.015 C35.924,-0.015 38.405,1.495 39.685,3.924 C39.685,3.924 62.174,45.920 62.174,45.920 C63.290,48.039 63.268,50.342 62.118,52.248 C60.889,54.284 58.592,55.500 55.974,55.500 ZM33.210,2.985 C31.898,2.985 30.753,3.619 30.068,4.724 C30.068,4.724 3.602,47.088 3.602,47.088 C2.869,48.271 2.792,49.517 3.390,50.590 C4.056,51.786 5.411,52.500 7.016,52.500 C7.016,52.500 55.974,52.500 55.974,52.500 C57.532,52.500 58.868,51.826 59.549,50.698 C60.152,49.699 60.143,48.502 59.524,47.327 C59.524,47.327 37.035,5.331 37.035,5.331 C36.271,3.880 34.808,2.985 33.210,2.985 Z" id="path-14" class="cls-16" fill-rule="evenodd"/>
    <path d="M46.502,49.380 C44.960,49.380 43.510,48.780 42.420,47.689 C40.170,45.439 40.169,41.777 42.420,39.526 C43.511,38.435 44.960,37.835 46.502,37.835 C48.044,37.835 49.494,38.435 50.584,39.526 C52.835,41.777 52.834,45.439 50.584,47.689 C49.494,48.780 48.044,49.380 46.502,49.380 ZM46.502,40.835 C45.762,40.835 45.065,41.124 44.542,41.647 C43.460,42.728 43.460,44.487 44.542,45.568 C45.589,46.616 47.415,46.615 48.463,45.568 C49.544,44.487 49.544,42.728 48.463,41.647 C47.939,41.124 47.243,40.835 46.502,40.835 Z" id="path-15" class="cls-16" fill-rule="evenodd"/>
    <path d="M32.862,49.380 C31.320,49.380 29.871,48.780 28.780,47.690 C26.530,45.439 26.529,41.777 28.780,39.526 C29.871,38.435 31.320,37.835 32.862,37.835 C34.404,37.835 35.854,38.435 36.944,39.526 C39.195,41.777 39.195,45.439 36.944,47.689 C35.854,48.780 34.404,49.380 32.862,49.380 ZM32.862,40.835 C32.122,40.835 31.425,41.124 30.901,41.647 C29.820,42.728 29.820,44.487 30.901,45.568 C31.949,46.616 33.775,46.616 34.823,45.568 C35.904,44.487 35.904,42.728 34.823,41.647 C34.299,41.124 33.603,40.835 32.862,40.835 Z" id="path-16" class="cls-16" fill-rule="evenodd"/>
    <path d="M39.260,37.310 C37.718,37.310 36.269,36.709 35.178,35.619 C32.928,33.369 32.928,29.706 35.178,27.456 C36.269,26.365 37.718,25.765 39.260,25.765 C40.802,25.765 42.251,26.365 43.342,27.456 C45.592,29.706 45.592,33.369 43.342,35.619 C42.251,36.709 40.802,37.310 39.260,37.310 ZM39.260,28.765 C38.520,28.765 37.823,29.053 37.299,29.577 C36.218,30.658 36.218,32.417 37.299,33.498 C38.347,34.545 40.173,34.545 41.221,33.498 C42.302,32.417 42.302,30.658 41.221,29.577 C40.697,29.053 40.000,28.765 39.260,28.765 Z" id="path-17" class="cls-16" fill-rule="evenodd"/>
    <path d="M33.225,25.240 C31.683,25.240 30.233,24.639 29.143,23.549 C28.052,22.458 27.452,21.009 27.452,19.467 C27.452,17.925 28.053,16.475 29.143,15.385 C30.233,14.295 31.683,13.694 33.225,13.694 C34.767,13.694 36.216,14.295 37.307,15.385 C39.557,17.636 39.558,21.298 37.307,23.549 C36.216,24.640 34.767,25.240 33.225,25.240 ZM33.225,16.694 C32.484,16.694 31.788,16.983 31.264,17.506 C30.740,18.030 30.452,18.726 30.452,19.467 C30.452,20.207 30.740,20.904 31.264,21.428 C32.312,22.476 34.138,22.475 35.186,21.428 C36.267,20.346 36.267,18.587 35.186,17.506 C34.662,16.983 33.965,16.694 33.225,16.694 Z" id="path-18" class="cls-16" fill-rule="evenodd"/>
    <path d="M25.620,37.310 C24.078,37.310 22.628,36.709 21.538,35.620 C19.288,33.369 19.288,29.706 21.538,27.456 C22.628,26.365 24.078,25.765 25.620,25.765 C27.162,25.765 28.611,26.365 29.702,27.456 C30.792,28.546 31.393,29.996 31.393,31.538 C31.393,33.080 30.792,34.529 29.702,35.620 C28.611,36.709 27.162,37.310 25.620,37.310 ZM25.620,28.765 C24.879,28.765 24.183,29.053 23.659,29.577 C22.578,30.658 22.578,32.417 23.659,33.498 C24.707,34.545 26.533,34.545 27.581,33.498 C28.104,32.975 28.393,32.278 28.393,31.538 C28.393,30.797 28.104,30.101 27.581,29.577 C27.057,29.053 26.361,28.765 25.620,28.765 Z" id="path-19" class="cls-16" fill-rule="evenodd"/>
    <path d="M19.223,49.380 C17.680,49.380 16.230,48.780 15.141,47.689 C12.890,45.439 12.890,41.777 15.141,39.526 C16.231,38.435 17.680,37.835 19.223,37.835 C20.765,37.835 22.214,38.435 23.304,39.526 C25.555,41.777 25.555,45.439 23.304,47.689 C22.214,48.780 20.765,49.380 19.223,49.380 ZM19.223,40.835 C18.482,40.835 17.786,41.124 17.262,41.647 C16.181,42.728 16.181,44.487 17.262,45.568 C18.309,46.615 20.134,46.616 21.183,45.568 C22.264,44.487 22.264,42.728 21.183,41.647 C20.659,41.124 19.963,40.835 19.223,40.835 Z" id="path-20" class="cls-16" fill-rule="evenodd"/>
  </g>
</svg>
