<svg xmlns="http://www.w3.org/2000/svg" xmlns:xlink="http://www.w3.org/1999/xlink" preserveAspectRatio="xMidYMid" width="62" height="60" viewBox="0 0 62 60">
  <defs>
    <style>

      .cls-3 {
        fill: #edc951;
      }

      .cls-4 {
        fill: #ff917b;
      }

      .cls-6 {
        fill: #000000;
      }
    </style>
  </defs>
  <g id="group-18svg">
    <path d="M52.768,55.855 C50.058,55.855 47.861,53.658 47.861,50.948 C47.861,48.239 50.058,46.042 52.768,46.042 C55.478,46.042 57.675,48.239 57.675,50.948 C57.675,53.658 55.478,55.855 52.768,55.855 Z" id="path-1" class="cls-3" fill-rule="evenodd"/>
    <path d="M15.934,56.788 C15.934,56.788 8.477,49.331 8.477,49.331 C8.477,49.331 51.514,3.763 51.514,3.763 C51.514,3.763 61.502,13.751 61.502,13.751 C61.502,13.751 15.934,56.788 15.934,56.788 Z" id="path-2" class="cls-4" fill-rule="evenodd"/>
    <path d="M8.477,49.331 C8.477,49.331 3.515,53.528 7.626,57.639 C11.737,61.750 15.934,56.788 15.934,56.788 C15.934,56.788 15.934,56.788 15.934,56.788 " id="path-3" class="cls-3" fill-rule="evenodd"/>
    <path d="M48.274,55.108 C44.741,55.108 41.867,52.234 41.867,48.702 C41.867,45.169 44.741,42.295 48.274,42.295 C51.807,42.295 54.681,45.169 54.681,48.702 C54.681,52.234 51.807,55.108 48.274,55.108 ZM48.274,45.295 C46.395,45.295 44.867,46.823 44.867,48.702 C44.867,50.580 46.395,52.108 48.274,52.108 C50.152,52.108 51.681,50.580 51.681,48.702 C51.681,46.823 50.152,45.295 48.274,45.295 Z" id="path-4" class="cls-6" fill-rule="evenodd"/>
    <path d="M11.440,56.041 C11.057,56.041 10.672,55.894 10.380,55.602 C10.380,55.602 2.923,48.145 2.923,48.145 C2.349,47.571 2.336,46.644 2.893,46.054 C2.893,46.054 45.929,0.485 45.929,0.485 C46.207,0.191 46.593,0.021 46.998,0.016 C47.406,0.007 47.794,0.168 48.080,0.455 C48.080,0.455 58.069,10.444 58.069,10.444 C58.356,10.730 58.515,11.121 58.509,11.526 C58.503,11.931 58.333,12.317 58.039,12.595 C58.039,12.595 12.471,55.631 12.471,55.631 C12.181,55.905 11.811,56.041 11.440,56.041 ZM6.075,47.055 C6.075,47.055 11.471,52.450 11.471,52.450 C11.471,52.450 54.856,11.474 54.856,11.474 C54.856,11.474 47.050,3.668 47.050,3.668 C47.050,3.668 6.075,47.055 6.075,47.055 Z" id="path-5" class="cls-6" fill-rule="evenodd"/>
    <path d="M6.652,58.522 C4.985,58.522 3.445,57.827 2.071,56.453 C0.628,55.009 -0.066,53.384 0.008,51.620 C0.142,48.404 2.897,46.038 3.015,45.939 C3.649,45.403 4.596,45.484 5.129,46.115 C5.662,46.747 5.585,47.690 4.956,48.226 C4.929,48.250 3.075,49.869 3.005,51.757 C2.971,52.656 3.359,53.498 4.192,54.331 C5.025,55.164 5.836,55.548 6.768,55.520 C8.660,55.449 10.283,53.586 10.299,53.567 C10.839,52.941 11.783,52.866 12.412,53.402 C13.040,53.938 13.119,54.879 12.586,55.510 C12.486,55.627 10.120,58.382 6.904,58.517 C6.820,58.520 6.735,58.522 6.652,58.522 Z" id="path-6" class="cls-6" fill-rule="evenodd"/>
    <path d="M27.797,40.023 C27.413,40.023 27.029,39.877 26.736,39.584 C26.736,39.584 19.068,31.916 19.068,31.916 C18.482,31.331 18.482,30.381 19.068,29.795 C19.654,29.209 20.603,29.209 21.189,29.794 C21.189,29.794 28.857,37.462 28.857,37.462 C29.443,38.048 29.443,38.998 28.857,39.584 C28.564,39.877 28.181,40.023 27.797,40.023 Z" id="path-7" class="cls-6" fill-rule="evenodd"/>
  </g>
</svg>
