<svg xmlns="http://www.w3.org/2000/svg" xmlns:xlink="http://www.w3.org/1999/xlink" preserveAspectRatio="xMidYMid" width="69" height="42" viewBox="0 0 69 42">
  <defs>
    <style>

      .cls-3 {
        fill: #99746a;
      }

      .cls-4 {
        fill: #000000;
      }
    </style>
  </defs>
  <g id="group-7svg">
    <path d="M68.491,19.896 C68.491,28.406 55.060,41.559 38.491,41.559 C21.923,41.559 8.491,28.406 8.491,19.896 C8.491,11.386 21.923,4.486 38.491,4.486 C55.060,4.486 68.491,11.386 68.491,19.896 Z" id="path-1" class="cls-3" fill-rule="evenodd"/>
    <path d="M31.492,40.059 C14.103,40.059 -0.008,26.043 -0.008,16.896 C-0.008,7.414 13.828,-0.013 31.492,-0.013 C49.155,-0.013 62.992,7.414 62.992,16.896 C62.992,26.043 48.880,40.059 31.492,40.059 ZM31.492,2.987 C16.043,2.987 2.992,9.356 2.992,16.896 C2.992,24.674 16.035,37.059 31.492,37.059 C46.949,37.059 59.992,24.674 59.992,16.896 C59.992,9.356 46.940,2.987 31.492,2.987 Z" id="path-2" class="cls-4" fill-rule="evenodd"/>
    <path d="M15.904,16.419 C15.428,16.419 14.961,16.193 14.669,15.773 C14.198,15.092 14.368,14.158 15.049,13.686 C18.080,11.588 21.627,10.242 25.308,9.791 C27.996,9.462 33.248,9.603 35.991,10.275 C36.796,10.472 37.289,11.284 37.091,12.089 C36.894,12.894 36.082,13.388 35.277,13.188 C33.128,12.663 28.280,12.450 25.672,12.770 C22.472,13.161 19.389,14.331 16.756,16.153 C16.496,16.333 16.199,16.419 15.904,16.419 Z" id="path-3" class="cls-4" fill-rule="evenodd"/>
    <path d="M33.082,16.920 C32.315,16.920 31.661,16.335 31.590,15.556 C31.426,13.754 27.990,10.419 25.603,8.625 C24.940,8.128 24.807,7.187 25.305,6.525 C25.802,5.862 26.742,5.729 27.405,6.227 C28.543,7.081 34.237,11.536 34.578,15.285 C34.653,16.109 34.045,16.839 33.220,16.914 C33.174,16.918 33.128,16.920 33.082,16.920 Z" id="path-4" class="cls-4" fill-rule="evenodd"/>
    <path d="M24.873,18.708 C24.106,18.708 23.452,18.122 23.381,17.343 C23.217,15.541 19.781,12.205 17.394,10.412 C16.731,9.914 16.598,8.974 17.096,8.312 C17.593,7.649 18.534,7.517 19.196,8.013 C20.334,8.868 26.028,13.322 26.369,17.071 C26.444,17.896 25.836,18.626 25.011,18.701 C24.965,18.705 24.919,18.708 24.873,18.708 Z" id="path-5" class="cls-4" fill-rule="evenodd"/>
  </g>
</svg>
