<svg xmlns="http://www.w3.org/2000/svg" xmlns:xlink="http://www.w3.org/1999/xlink" preserveAspectRatio="xMidYMid" width="66" height="62" viewBox="0 0 66 62">
  <defs>
    <style>

      .cls-3 {
        fill: #e56a77;
      }

      .cls-4 {
        fill: #81bda4;
      }

      .cls-5 {
        fill: #000000;
      }
    </style>
  </defs>
  <g id="group-8svg">
    <path d="M65.495,32.499 C65.504,48.565 52.486,61.597 36.420,61.605 C20.354,61.614 7.322,48.597 7.313,32.531 C7.304,16.464 20.321,3.433 36.388,3.424 C52.454,3.415 65.486,16.432 65.495,32.499 Z" id="path-1" class="cls-3" fill-rule="evenodd"/>
    <path d="M29.616,44.645 C29.616,44.645 23.305,33.738 23.305,33.738 C23.305,33.738 29.603,22.824 29.603,22.824 C29.603,22.824 42.213,22.817 42.213,22.817 C42.213,22.817 48.524,33.724 48.524,33.724 C48.524,33.724 42.226,44.638 42.226,44.638 C42.226,44.638 29.616,44.645 29.616,44.645 Z" id="path-2" class="cls-4" fill-rule="evenodd"/>
    <path d="M30.603,61.187 C30.603,61.187 30.585,61.187 30.585,61.187 C13.727,61.187 0.004,47.461 -0.005,30.603 C-0.015,13.735 13.701,-0.001 30.568,-0.010 C47.444,-0.010 61.167,13.713 61.177,30.571 C61.186,47.439 47.470,61.187 30.603,61.187 ZM30.585,2.984 C15.356,2.993 2.850,15.377 2.858,30.591 C2.867,45.796 15.312,58.166 30.312,58.166 C30.312,58.166 30.312,59.666 30.312,59.666 C30.312,59.666 30.464,58.166 30.464,58.166 C45.678,58.158 58.117,45.773 58.108,30.560 C58.100,15.354 45.790,2.984 30.585,2.984 Z" id="path-3" class="cls-5" fill-rule="evenodd"/>
    <path d="M22.933,44.206 C22.933,44.206 15.754,31.800 15.754,31.800 C15.754,31.800 22.918,19.385 22.918,19.385 C22.918,19.385 37.260,19.377 37.260,19.377 C37.260,19.377 44.438,31.783 44.438,31.783 C44.438,31.783 37.274,44.198 37.274,44.198 C37.274,44.198 22.933,44.206 22.933,44.206 ZM19.219,31.797 C19.219,31.797 24.662,41.205 24.662,41.205 C24.662,41.205 35.540,41.199 35.540,41.199 C35.540,41.199 40.974,31.785 40.974,31.785 C40.974,31.785 35.530,22.378 35.530,22.378 C35.530,22.378 24.652,22.384 24.652,22.384 C24.652,22.384 19.219,31.797 19.219,31.797 Z" id="path-4" class="cls-5" fill-rule="evenodd"/>
    <path d="M36.394,21.771 C36.151,21.771 35.905,21.712 35.677,21.588 C34.950,21.192 34.682,20.281 35.078,19.554 C35.078,19.554 43.337,4.393 43.337,4.393 C43.734,3.665 44.644,3.396 45.373,3.793 C46.100,4.189 46.368,5.100 45.972,5.828 C45.972,5.828 37.712,20.989 37.712,20.989 C37.440,21.488 36.925,21.771 36.394,21.771 Z" id="path-5" class="cls-5" fill-rule="evenodd"/>
    <path d="M59.464,35.579 C59.379,35.579 59.294,35.571 59.207,35.557 C59.207,35.557 42.451,32.666 42.451,32.666 C41.635,32.525 41.087,31.750 41.228,30.933 C41.369,30.117 42.146,29.571 42.961,29.710 C42.961,29.710 59.717,32.600 59.717,32.600 C60.534,32.741 61.081,33.517 60.940,34.333 C60.814,35.063 60.181,35.579 59.464,35.579 Z" id="path-6" class="cls-5" fill-rule="evenodd"/>
    <path d="M43.982,57.905 C43.445,57.905 42.925,57.615 42.656,57.107 C42.656,57.107 35.082,42.814 35.082,42.814 C34.693,42.083 34.972,41.175 35.705,40.787 C36.435,40.399 37.344,40.678 37.732,41.410 C37.732,41.410 45.306,55.702 45.306,55.702 C45.694,56.434 45.416,57.342 44.683,57.730 C44.459,57.849 44.219,57.905 43.982,57.905 Z" id="path-7" class="cls-5" fill-rule="evenodd"/>
    <path d="M12.838,55.122 C12.466,55.122 12.094,54.985 11.803,54.708 C11.204,54.137 11.181,53.187 11.752,52.587 C11.752,52.587 22.711,41.084 22.711,41.084 C23.283,40.484 24.232,40.461 24.832,41.033 C25.432,41.604 25.455,42.554 24.883,43.154 C24.883,43.154 13.924,54.657 13.924,54.657 C13.629,54.966 13.234,55.122 12.838,55.122 Z" id="path-8" class="cls-5" fill-rule="evenodd"/>
    <path d="M23.786,21.779 C23.228,21.779 22.692,21.466 22.434,20.929 C22.434,20.929 15.137,5.776 15.137,5.776 C14.777,5.030 15.091,4.133 15.837,3.774 C16.584,3.415 17.480,3.728 17.840,4.475 C17.840,4.475 25.137,19.627 25.137,19.627 C25.496,20.374 25.182,21.270 24.436,21.630 C24.226,21.730 24.004,21.779 23.786,21.779 Z" id="path-9" class="cls-5" fill-rule="evenodd"/>
    <path d="M17.487,33.187 C17.468,33.187 17.449,33.187 17.429,33.187 C17.429,33.187 1.437,32.333 1.437,32.333 C0.609,32.302 -0.036,31.483 -0.004,30.656 C0.027,29.828 0.749,29.127 1.552,29.153 C1.552,29.153 17.543,29.733 17.543,29.733 C18.372,29.765 19.017,30.689 18.985,31.517 C18.955,32.326 18.290,33.187 17.487,33.187 Z" id="path-10" class="cls-5" fill-rule="evenodd"/>
  </g>
</svg>
