<svg xmlns="http://www.w3.org/2000/svg" xmlns:xlink="http://www.w3.org/1999/xlink" preserveAspectRatio="xMidYMid" width="66" height="53" viewBox="0 0 66 53">
  <defs>
    <style>

      .cls-3 {
        fill: #53ecf4;
      }

      .cls-4 {
        fill: #e56a77;
      }

      .cls-5 {
        fill: #000000;
      }
    </style>
  </defs>
  <g id="group-30svg">
    <path d="M8.534,5.880 C8.534,5.880 -1.641,37.733 15.357,37.590 C32.356,37.448 23.194,35.326 36.494,37.868 C49.794,40.410 64.354,37.377 64.354,37.377 C64.354,37.377 69.058,29.497 59.515,26.204 C49.972,22.911 38.217,21.817 36.330,14.369 C36.330,14.369 38.250,2.151 22.800,3.595 C7.349,5.039 8.534,5.880 8.534,5.880 Z" id="path-1" class="cls-3" fill-rule="evenodd"/>
    <path d="M10.608,43.551 C10.608,43.551 44.141,49.375 63.327,44.124 C63.327,44.124 64.083,50.463 64.083,50.463 C64.083,50.463 45.040,55.737 10.999,50.028 C10.999,50.028 10.608,43.551 10.608,43.551 Z" id="path-2" class="cls-4" fill-rule="evenodd"/>
    <path d="M44.199,38.383 C39.863,38.383 35.830,38.033 32.212,37.341 C27.218,36.386 25.558,36.125 24.493,36.125 C23.969,36.125 23.580,36.352 22.935,36.465 C21.412,36.735 18.861,37.406 11.370,37.406 C11.370,37.406 11.244,37.406 11.244,37.406 C7.582,37.406 4.751,35.913 2.827,33.278 C-3.192,25.036 2.236,6.325 3.022,3.767 C3.029,3.680 3.044,3.554 3.067,3.469 C3.366,2.355 3.581,1.530 18.660,0.122 C24.532,-0.428 28.836,0.828 31.416,3.844 C34.123,7.011 33.971,11.051 33.854,12.258 C35.248,16.912 41.900,18.742 48.935,20.681 C51.279,21.327 53.703,21.993 56.004,22.787 C59.423,23.967 61.625,25.845 62.547,28.371 C63.950,32.209 61.737,35.987 61.642,36.146 C61.427,36.506 61.071,36.760 60.660,36.846 C60.358,36.908 53.176,38.383 44.199,38.383 ZM24.493,33.125 C25.886,33.125 27.874,33.457 32.776,34.394 C36.207,35.051 40.051,35.383 44.199,35.383 C51.278,35.383 57.335,34.406 59.343,34.042 C59.750,33.113 60.391,31.186 59.723,29.382 C59.121,27.755 57.541,26.490 55.025,25.622 C52.814,24.859 50.437,24.204 48.138,23.570 C40.112,21.359 32.531,19.270 30.875,12.737 C30.826,12.541 30.816,12.336 30.848,12.136 C30.852,12.104 31.376,8.384 29.119,5.765 C27.208,3.548 23.747,2.640 18.939,3.089 C9.796,3.943 6.781,4.561 5.811,4.839 C4.892,7.945 0.305,24.740 5.250,31.510 C6.597,33.353 8.557,34.406 11.244,34.406 C11.244,34.406 11.345,34.406 11.345,34.406 C18.585,34.406 20.982,33.764 22.414,33.511 C23.136,33.384 23.706,33.125 24.493,33.125 Z" id="path-3" class="cls-5" fill-rule="evenodd"/>
    <path d="M37.137,52.184 C27.561,52.184 17.337,51.283 6.750,49.507 C6.062,49.392 5.543,48.816 5.501,48.119 C5.501,48.119 5.111,41.641 5.111,41.641 C5.083,41.184 5.267,40.738 5.608,40.433 C5.951,40.127 6.415,39.995 6.865,40.073 C7.023,40.101 22.865,42.818 38.725,42.818 C46.943,42.818 53.741,42.098 58.931,40.678 C59.353,40.562 59.802,40.637 60.165,40.880 C60.527,41.124 60.765,41.514 60.816,41.947 C60.816,41.947 61.572,48.286 61.572,48.286 C61.660,49.021 61.197,49.711 60.483,49.909 C60.147,50.002 52.096,52.184 37.137,52.184 ZM8.424,46.743 C18.427,48.362 28.081,49.184 37.137,49.184 C48.392,49.184 55.674,47.901 58.435,47.310 C58.435,47.310 58.040,43.997 58.040,43.997 C52.848,45.206 46.362,45.818 38.725,45.818 C25.811,45.818 12.923,44.047 8.218,43.328 C8.218,43.328 8.424,46.743 8.424,46.743 Z" id="path-4" class="cls-5" fill-rule="evenodd"/>
    <path d="M49.594,43.906 C48.765,43.906 48.094,43.235 48.094,42.406 C48.094,42.406 48.094,36.406 48.094,36.406 C48.094,35.578 48.765,34.906 49.594,34.906 C50.422,34.906 51.094,35.578 51.094,36.406 C51.094,36.406 51.094,42.406 51.094,42.406 C51.094,43.235 50.422,43.906 49.594,43.906 Z" id="path-5" class="cls-5" fill-rule="evenodd"/>
    <path d="M12.594,42.906 C11.765,42.906 11.094,42.235 11.094,41.406 C11.094,41.406 11.094,36.406 11.094,36.406 C11.094,35.578 11.765,34.906 12.594,34.906 C13.422,34.906 14.094,35.578 14.094,36.406 C14.094,36.406 14.094,41.406 14.094,41.406 C14.094,42.235 13.422,42.906 12.594,42.906 Z" id="path-6" class="cls-5" fill-rule="evenodd"/>
    <path d="M26.227,15.144 C24.290,15.144 22.106,14.788 19.912,13.717 C19.167,13.354 18.858,12.456 19.221,11.711 C19.584,10.967 20.481,10.658 21.227,11.021 C26.373,13.532 31.622,11.045 31.675,11.020 C32.420,10.659 33.318,10.969 33.679,11.714 C34.040,12.460 33.729,13.357 32.984,13.719 C32.808,13.804 29.981,15.144 26.227,15.144 Z" id="path-7" class="cls-5" fill-rule="evenodd"/>
    <path d="M28.461,20.729 C26.524,20.729 24.340,20.373 22.145,19.302 C21.401,18.939 21.092,18.041 21.455,17.296 C21.818,16.552 22.716,16.243 23.461,16.606 C28.607,19.117 33.856,16.630 33.909,16.604 C34.655,16.244 35.552,16.554 35.913,17.299 C36.274,18.044 35.963,18.942 35.218,19.304 C35.042,19.389 32.215,20.729 28.461,20.729 Z" id="path-8" class="cls-5" fill-rule="evenodd"/>
    <path d="M50.730,38.129 C50.121,38.129 49.547,37.755 49.324,37.149 C46.661,29.946 51.714,24.685 54.759,22.908 C55.474,22.491 56.393,22.732 56.810,23.448 C57.227,24.163 56.987,25.081 56.272,25.498 C55.975,25.675 49.696,29.503 52.137,36.109 C52.425,36.886 52.028,37.748 51.250,38.036 C51.079,38.099 50.903,38.129 50.730,38.129 Z" id="path-9" class="cls-5" fill-rule="evenodd"/>
  </g>
</svg>
