<svg xmlns="http://www.w3.org/2000/svg" xmlns:xlink="http://www.w3.org/1999/xlink" preserveAspectRatio="xMidYMid" width="48" height="64" viewBox="0 0 48 64">
  <defs>
    <style>

      .cls-3 {
        fill: #8b71b5;
      }

      .cls-5 {
        fill: #edc951;
      }

      .cls-6 {
        fill: #000000;
      }
    </style>
  </defs>
  <g id="group-13svg">
    <path d="M26.375,45.336 C26.375,45.336 26.375,53.794 26.375,53.794 C26.375,53.794 38.375,63.486 38.375,63.486 C38.375,63.486 38.375,41.107 38.375,41.107 C38.375,41.107 33.375,45.336 26.375,45.336 Z" id="path-1" class="cls-3" fill-rule="evenodd"/>
    <path d="M26.375,45.336 C26.375,45.336 26.375,53.794 26.375,53.794 C26.375,53.794 14.375,63.486 14.375,63.486 C14.375,63.486 14.375,42.164 14.375,42.164 C14.375,42.164 19.375,45.336 26.375,45.336 Z" id="path-2" class="cls-3" fill-rule="evenodd"/>
    <path d="M48.084,24.279 C48.084,35.762 38.774,45.072 27.291,45.072 C15.808,45.072 6.498,35.762 6.498,24.279 C6.498,12.795 15.808,3.486 27.291,3.486 C38.774,3.486 48.084,12.795 48.084,24.279 Z" id="path-3" class="cls-5" fill-rule="evenodd"/>
    <path d="M22.291,44.571 C9.998,44.571 -0.002,34.571 -0.002,22.279 C-0.002,9.986 9.998,-0.014 22.291,-0.014 C34.583,-0.014 44.584,9.986 44.584,22.279 C44.584,34.571 34.583,44.571 22.291,44.571 ZM22.291,2.986 C11.653,2.986 2.998,11.641 2.998,22.279 C2.998,32.916 11.653,41.571 22.291,41.571 C32.929,41.571 41.584,32.916 41.584,22.279 C41.584,11.641 32.929,2.986 22.291,2.986 Z" id="path-4" class="cls-6" fill-rule="evenodd"/>
    <path d="M33.875,62.986 C33.539,62.986 33.205,62.873 32.933,62.653 C32.933,62.653 20.933,52.961 20.933,52.961 C20.580,52.676 20.375,52.247 20.375,51.794 C20.375,51.794 20.375,43.336 20.375,43.336 C20.375,42.508 21.046,41.836 21.875,41.836 C28.208,41.836 32.863,37.998 32.909,37.959 C33.355,37.585 33.980,37.503 34.508,37.749 C35.036,37.996 35.375,38.524 35.375,39.107 C35.375,39.107 35.375,61.486 35.375,61.486 C35.375,62.063 35.043,62.590 34.521,62.839 C34.316,62.937 34.095,62.986 33.875,62.986 ZM23.375,51.078 C23.375,51.078 32.375,58.346 32.375,58.346 C32.375,58.346 32.375,41.922 32.375,41.922 C30.351,43.085 27.203,44.477 23.375,44.777 C23.375,44.777 23.375,51.078 23.375,51.078 Z" id="path-5" class="cls-6" fill-rule="evenodd"/>
    <path d="M9.875,62.986 C9.655,62.986 9.434,62.937 9.228,62.839 C8.707,62.590 8.375,62.063 8.375,61.486 C8.375,61.486 8.375,40.164 8.375,40.164 C8.375,39.617 8.673,39.113 9.152,38.850 C9.632,38.586 10.215,38.604 10.679,38.897 C10.723,38.925 15.430,41.836 21.875,41.836 C22.704,41.836 23.375,42.508 23.375,43.336 C23.375,43.336 23.375,51.794 23.375,51.794 C23.375,52.247 23.170,52.676 22.817,52.961 C22.817,52.961 10.817,62.653 10.817,62.653 C10.545,62.873 10.211,62.986 9.875,62.986 ZM11.375,42.611 C11.375,42.611 11.375,58.346 11.375,58.346 C11.375,58.346 20.375,51.078 20.375,51.078 C20.375,51.078 20.375,44.791 20.375,44.791 C16.524,44.560 13.366,43.484 11.375,42.611 Z" id="path-6" class="cls-6" fill-rule="evenodd"/>
    <path d="M21.875,30.500 C21.046,30.500 20.375,29.829 20.375,29.000 C20.375,29.000 20.375,18.310 20.375,18.310 C20.375,18.310 19.031,20.140 19.031,20.140 C18.541,20.808 17.601,20.951 16.935,20.461 C16.267,19.971 16.123,19.032 16.613,18.364 C16.613,18.364 20.666,12.845 20.666,12.845 C21.050,12.322 21.726,12.104 22.342,12.307 C22.958,12.509 23.375,13.084 23.375,13.732 C23.375,13.732 23.375,29.000 23.375,29.000 C23.375,29.829 22.704,30.500 21.875,30.500 Z" id="path-7" class="cls-6" fill-rule="evenodd"/>
    <path d="M26.375,31.000 C26.375,31.000 16.375,31.000 16.375,31.000 C15.546,31.000 14.875,30.329 14.875,29.500 C14.875,28.671 15.546,28.000 16.375,28.000 C16.375,28.000 26.375,28.000 26.375,28.000 C27.204,28.000 27.875,28.671 27.875,29.500 C27.875,30.329 27.204,31.000 26.375,31.000 Z" id="path-8" class="cls-6" fill-rule="evenodd"/>
  </g>
</svg>
