<svg xmlns="http://www.w3.org/2000/svg" xmlns:xlink="http://www.w3.org/1999/xlink" preserveAspectRatio="xMidYMid" width="64" height="31" viewBox="0 0 64 31">
  <defs>
    <style>

      .cls-3 {
        fill: #53ecf4;
      }

      .cls-4 {
        fill: #99746a;
      }

      .cls-6 {
        fill: #000000;
      }
    </style>
  </defs>
  <g id="group-23svg">
    <path d="M34.000,7.187 C34.000,7.187 62.466,7.187 62.466,7.187 C63.469,7.187 64.000,6.957 64.000,7.961 C64.000,7.961 64.000,15.959 64.000,15.959 C64.000,16.847 63.500,17.604 62.625,17.751 C62.625,17.751 38.074,22.746 38.074,22.746 C38.074,22.746 38.074,22.746 38.074,22.746 " id="path-1" class="cls-3" fill-rule="evenodd"/>
    <path d="M38.385,16.861 C38.385,24.235 32.408,30.212 25.034,30.212 C17.660,30.212 11.683,24.235 11.683,16.861 C11.683,9.488 17.660,3.510 25.034,3.510 C32.408,3.510 38.385,9.488 38.385,16.861 Z" id="path-2" class="cls-4" fill-rule="evenodd"/>
    <path d="M30.397,16.861 C30.397,19.823 27.996,22.224 25.034,22.224 C22.072,22.224 19.671,19.823 19.671,16.861 C19.671,13.899 22.072,11.498 25.034,11.498 C27.996,11.498 30.397,13.899 30.397,16.861 Z" id="path-3" class="cls-3" fill-rule="evenodd"/>
    <path d="M22.034,29.712 C13.845,29.712 7.183,23.050 7.183,14.861 C7.183,6.672 13.845,0.010 22.034,0.010 C30.224,0.010 36.886,6.672 36.886,14.861 C36.886,23.050 30.224,29.712 22.034,29.712 ZM22.034,3.010 C15.499,3.010 10.183,8.326 10.183,14.861 C10.183,21.396 15.499,26.712 22.034,26.712 C28.569,26.712 33.886,21.396 33.886,14.861 C33.886,8.326 28.569,3.010 22.034,3.010 Z" id="path-4" class="cls-6" fill-rule="evenodd"/>
    <path d="M22.034,21.724 C18.250,21.724 15.171,18.645 15.171,14.861 C15.171,11.077 18.250,7.998 22.034,7.998 C25.818,7.998 28.897,11.077 28.897,14.861 C28.897,18.645 25.818,21.724 22.034,21.724 ZM22.034,10.998 C19.904,10.998 18.171,12.731 18.171,14.861 C18.171,16.991 19.904,18.724 22.034,18.724 C24.164,18.724 25.897,16.991 25.897,14.861 C25.897,12.731 24.164,10.998 22.034,10.998 Z" id="path-5" class="cls-6" fill-rule="evenodd"/>
    <path d="M35.197,21.996 C34.492,21.996 33.864,21.497 33.727,20.779 C33.569,19.966 34.102,19.179 34.916,19.023 C34.916,19.023 59.592,14.278 59.592,14.278 C59.829,14.238 60.000,14.056 60.000,13.959 C60.000,13.959 60.000,6.233 60.000,6.233 C59.881,6.208 59.705,6.187 59.466,6.187 C59.466,6.187 31.000,6.187 31.000,6.187 C30.172,6.187 29.500,5.516 29.500,4.687 C29.500,3.859 30.172,3.187 31.000,3.187 C31.000,3.187 59.466,3.187 59.466,3.187 C62.071,3.187 63.000,4.620 63.000,5.961 C63.000,5.961 63.000,13.959 63.000,13.959 C63.000,15.550 61.763,16.956 60.123,17.230 C60.123,17.230 35.482,21.969 35.482,21.969 C35.387,21.987 35.291,21.996 35.197,21.996 Z" id="path-6" class="cls-6" fill-rule="evenodd"/>
    <path d="M9.000,21.187 C9.000,21.187 5.505,21.187 5.505,21.187 C2.707,21.187 0.152,18.797 0.007,16.111 C0.002,16.064 -0.000,16.017 -0.000,15.970 C-0.000,15.953 -0.000,15.936 -0.000,15.919 C-0.000,15.903 -0.000,15.887 -0.000,15.870 C-0.000,15.826 0.002,15.783 0.006,15.740 C0.144,12.885 2.869,11.187 5.505,11.187 C5.505,11.187 8.000,11.187 8.000,11.187 C8.828,11.187 9.500,11.859 9.500,12.687 C9.500,13.516 8.828,14.187 8.000,14.187 C8.000,14.187 5.505,14.187 5.505,14.187 C4.318,14.187 3.039,14.849 3.001,15.921 C3.039,17.032 4.306,18.187 5.505,18.187 C5.505,18.187 9.000,18.187 9.000,18.187 C9.828,18.187 10.500,18.859 10.500,19.687 C10.500,20.516 9.828,21.187 9.000,21.187 Z" id="path-7" class="cls-6" fill-rule="evenodd"/>
  </g>
</svg>
