<?xml version="1.0" encoding="utf-8"?>
<!-- Generator: Adobe Illustrator 16.0.0, SVG Export Plug-In . SVG Version: 6.00 Build 0)  -->
<!DOCTYPE svg PUBLIC "-//W3C//DTD SVG 1.1//EN" "http://www.w3.org/Graphics/SVG/1.1/DTD/svg11.dtd">
<svg version="1.1" id="Layer_1" xmlns="http://www.w3.org/2000/svg" xmlns:xlink="http://www.w3.org/1999/xlink" x="0px" y="0px"
	 width="48px" height="48px" viewBox="0 0 48 48" enable-background="new 0 0 48 48" xml:space="preserve">
<g id="color_22_">
	<g>
		<circle fill="#F16362" cx="26" cy="24.004" r="19"/>
	</g>
</g>
<g id="outline_21_">
	<g>
		<path fill="#384D68" d="M13,7.004c0.553,0,1-0.447,1-1s-0.447-1-1-1s-1,0.447-1,1S12.447,7.004,13,7.004z M4,21.004
			c-0.553,0-1,0.447-1,1s0.447,1,1,1s1-0.447,1-1S4.553,21.004,4,21.004z M23,4.004c0.553,0,1-0.447,1-1s-0.447-1-1-1s-1,0.447-1,1
			S22.447,4.004,23,4.004z M26,24.004h4v3c0,0.553,0.447,1,1,1s1-0.447,1-1v-3h1c0.553,0,1-0.447,1-1s-0.447-1-1-1h-1v-1
			c0-0.553-0.447-1-1-1s-1,0.447-1,1v1h-2.483l2.402-5.606h-0.001C29.971,16.276,30,16.144,30,16.004c0-0.553-0.447-1-1-1
			c-0.412,0-0.766,0.25-0.919,0.606l-0.002,0.003c0,0.001,0,0.002-0.001,0.003l-2.997,6.994C25.029,22.731,25,22.864,25,23.004
			C25,23.557,25.447,24.004,26,24.004z M43,22.004c0-7.051-3.753-13.108-9.267-16.668C33.551,5.135,33.293,5.004,33,5.004
			c-0.553,0-1,0.447-1,1c0,0.421,0.262,0.778,0.631,0.926C37.587,10.135,41,15.663,41,22.004c0,9.941-8.059,18-18,18
			c-0.224,0-0.443-0.015-0.665-0.025v-0.008l2.383-2.359c0.376-0.373,0.376-0.978,0-1.351c-0.377-0.373-0.988-0.373-1.365,0
			l-4.093,4.053c-0.377,0.373-0.377,0.978,0,1.351l4.093,4.053c0.377,0.373,0.988,0.373,1.365,0c0.376-0.373,0.376-0.978,0-1.351
			l-2.413-2.389c0.231,0.01,0.461,0.026,0.695,0.026C34.046,42.004,43,33.05,43,22.004z M7,31.004c-0.553,0-1,0.447-1,1s0.447,1,1,1
			s1-0.447,1-1S7.553,31.004,7,31.004z M22,27.004c0-0.553-0.447-1-1-1h-3.865l3.634-4.359c0,0,1.231-1.289,1.231-2.641
			c0-2.209-1.791-4-4-4s-4,1.791-4,4h2c0-1.104,0.896-2,2-2s1.948,0.896,2,2c0.031,0.672-0.769,1.359-0.769,1.359l-5,6
			c0,0-0.231,0.16-0.231,0.641c0,0.553,0.447,1,1,1h6C21.553,28.004,22,27.557,22,27.004z M13,37.004c-0.553,0-1,0.447-1,1
			s0.447,1,1,1s1-0.447,1-1S13.553,37.004,13,37.004z M7,11.004c-0.553,0-1,0.447-1,1s0.447,1,1,1s1-0.447,1-1
			S7.553,11.004,7,11.004z"/>
	</g>
</g>
</svg>
