<?xml version="1.0" encoding="utf-8"?>
<!-- Generator: Adobe Illustrator 16.0.0, SVG Export Plug-In . SVG Version: 6.00 Build 0)  -->
<!DOCTYPE svg PUBLIC "-//W3C//DTD SVG 1.1//EN" "http://www.w3.org/Graphics/SVG/1.1/DTD/svg11.dtd">
<svg version="1.1" id="Layer_1" xmlns="http://www.w3.org/2000/svg" xmlns:xlink="http://www.w3.org/1999/xlink" x="0px" y="0px"
	 width="48px" height="48px" viewBox="0 0 48 48" enable-background="new 0 0 48 48" xml:space="preserve">
<g id="color_25_">
	<g>
		<path fill="#F16362" d="M27,41.019c9.941,0,18-8.059,18-18s-8.059-18-18-18s-18,8.059-18,18S17.059,41.019,27,41.019z
			 M14.043,23.097c0.163-0.16,0.265-0.188,0.265-0.188l2.521-1.132l0.456-0.105c0.261,0,0.521,0.098,0.72,0.293l0.886,0.6
			l3.001-2.878l-3.597-3.535c-0.398-0.391-0.645-0.776-0.248-1.167l1.191-1.249c0.309-0.304,0.668-0.333,1.044-0.166l0.003-0.007
			l5.336,2.385l2.498-2.377c0.697-0.595,2.218-1.172,3.41,0s0.45,2.493-0.083,3.253l-2.6,2.561l2.393,5.175l-0.006,0.003
			c0.17,0.368,0.192,0.773-0.117,1.077l-1.109,1.084c-0.397,0.391-0.876,0.226-1.274-0.165l-3.597-3.535l-2.926,2.802l0.563,0.813
			c0.199,0.195,0.298,0.452,0.298,0.708c0,0.153-0.047,0.302-0.119,0.442l-1.069,2.552c0,0-0.027,0.101-0.19,0.261
			c-0.398,0.391-1.042,0.391-1.44,0c0,0-2.17-3.533-2.245-3.606c-0.127-0.126-3.966-2.481-3.966-2.481
			C13.646,24.122,13.646,23.488,14.043,23.097z M11,42.019H5c-0.391,0-0.721,0.23-0.885,0.558l-0.009-0.005l-1,2l0.009,0.005
			C3.047,44.711,3,44.858,3,45.019c0,0.553,0.448,1,1,1h6c0.391,0,0.721-0.23,0.885-0.558l0.009,0.005l1-2l-0.009-0.005
			C11.953,43.327,12,43.18,12,43.019C12,42.466,11.552,42.019,11,42.019z M22,42.019h-6c-0.391,0-0.721,0.23-0.885,0.558
			l-0.009-0.005l-1,2l0.009,0.005C14.047,44.711,14,44.858,14,45.019c0,0.553,0.448,1,1,1h6c0.391,0,0.721-0.23,0.885-0.558
			l0.009,0.005l1-2l-0.009-0.005C22.953,43.327,23,43.18,23,43.019C23,42.466,22.552,42.019,22,42.019z M44,42.019h-6
			c-0.391,0-0.721,0.23-0.885,0.558l-0.009-0.005l-1,2l0.009,0.005C36.047,44.711,36,44.858,36,45.019c0,0.553,0.448,1,1,1h6
			c0.391,0,0.721-0.23,0.885-0.558l0.009,0.005l1-2l-0.009-0.005C44.953,43.327,45,43.18,45,43.019
			C45,42.466,44.552,42.019,44,42.019z M33,42.019h-6c-0.391,0-0.721,0.23-0.885,0.558l-0.009-0.005l-1,2l0.009,0.005
			C25.047,44.711,25,44.858,25,45.019c0,0.553,0.448,1,1,1h6c0.391,0,0.721-0.23,0.885-0.558l0.009,0.005l1-2l-0.009-0.005
			C33.953,43.327,34,43.18,34,43.019C34,42.466,33.552,42.019,33,42.019z"/>
	</g>
</g>
<g id="outline_24_">
	<g>
		<path fill="#384D68" d="M24,1.981c-10.502,0-19.016,8.514-19.016,19.016S13.498,40.012,24,40.012s19.016-8.514,19.016-19.016
			S34.502,1.981,24,1.981z M24,38.011c-9.396,0-17.014-7.618-17.014-17.015S14.604,3.983,24,3.983S41.014,11.6,41.014,20.997
			S33.396,38.011,24,38.011z M31.778,13.241c-1.172-1.172-3.071-1.172-4.243,0l-2.212,2.212l-5.245-2.384l-0.003,0.007
			c-0.369-0.168-0.723-0.138-1.026,0.165l-1.414,1.414c-0.391,0.392-0.391,1.023,0,1.414l3.535,3.536l-2.383,2.383l-0.871-0.6
			c-0.196-0.195-0.452-0.293-0.708-0.293l-0.447,0.105l-3.207,1.792c0,0-0.1,0.026-0.26,0.188c-0.391,0.391-0.391,1.024,0,1.415
			c0,0,4.097,2.686,4.222,2.811c0.074,0.073,2.855,4.267,2.855,4.267c0.391,0.391,1.024,0.391,1.416,0
			c0.16-0.161,0.188-0.261,0.188-0.261l1.78-3.212c0.07-0.141,0.117-0.289,0.117-0.442c0-0.256-0.098-0.512-0.293-0.707
			l-0.554-0.813l2.389-2.39l3.536,3.536c0.391,0.391,1.023,0.391,1.414,0l1.415-1.414c0.303-0.304,0.282-0.709,0.114-1.077
			l0.006-0.003l-2.352-5.175l2.231-2.23C32.95,16.312,32.95,14.413,31.778,13.241z M19.757,15.362l0.125-0.184l3.987,1.729
			l-1.283,1.284L19.757,15.362z M29.79,25.085l-0.133,0.176l-2.828-2.828l1.274-1.274L29.79,25.085z M30.364,16.069l-9.888,9.889
			c0.752,0.999,1.178,1.998,1.178,1.998l-0.848,1.179c0,0-1.944-2.935-2.013-3.004c-0.121-0.121-2.96-1.969-2.96-1.969l1.179-0.848
			c0,0,1.05,0.457,2.055,1.224l9.882-9.883c0.391-0.391,1.024-0.391,1.414,0C30.754,15.045,30.754,15.679,30.364,16.069z M24,5.985
			c-8.291,0-15.012,6.721-15.012,15.012S15.709,36.009,24,36.009s15.012-6.722,15.012-15.013S32.291,5.985,24,5.985z M24,34.007
			c-7.186,0-13.011-5.825-13.011-13.011S16.814,7.986,24,7.986s13.011,5.825,13.011,13.011S31.186,34.007,24,34.007z"/>
	</g>
</g>
</svg>
