<?xml version="1.0" encoding="utf-8"?>
<!-- Generator: Adobe Illustrator 16.0.0, SVG Export Plug-In . SVG Version: 6.00 Build 0)  -->
<!DOCTYPE svg PUBLIC "-//W3C//DTD SVG 1.1//EN" "http://www.w3.org/Graphics/SVG/1.1/DTD/svg11.dtd">
<svg version="1.1" id="Layer_1" xmlns="http://www.w3.org/2000/svg" xmlns:xlink="http://www.w3.org/1999/xlink" x="0px" y="0px"
	 width="48px" height="48px" viewBox="0 0 48 48" enable-background="new 0 0 48 48" xml:space="preserve">
<g id="Ellipse_1">
	<g>
		<path fill="#F16362" d="M25.5,7C14.178,7,5,15.73,5,26.5S14.178,46,25.5,46C33.557,46,46,34.005,46,26.5C46,15.73,36.822,7,25.5,7
			z"/>
	</g>
</g>
<g id="Ellipse_1_copy">
	<g>
		<path fill="#384D68" d="M34.72,13.28c-0.395-0.395-1.034-0.395-1.428,0l-9.282,9.281l-9.282-9.281
			c-0.394-0.395-1.034-0.395-1.428,0c-0.395,0.395-0.395,1.033,0,1.428l9.281,9.282l-9.281,9.281c-0.395,0.395-0.395,1.034,0,1.428
			c0.394,0.395,1.034,0.395,1.428,0l9.282-9.281l9.282,9.281c0.395,0.395,1.034,0.395,1.428,0c0.394-0.394,0.394-1.033,0-1.428
			l-9.282-9.281l9.282-9.282C35.114,14.313,35.114,13.675,34.72,13.28z M24,2C11.85,2,2,11.85,2,24s9.85,22,22,22s22-9.85,22-22
			S36.15,2,24,2z M24,44C12.954,44,4,35.046,4,24S12.954,4,24,4s20,8.954,20,20S35.046,44,24,44z"/>
	</g>
</g>
</svg>
