<?xml version="1.0" encoding="utf-8"?>
<!-- Generator: Adobe Illustrator 16.0.0, SVG Export Plug-In . SVG Version: 6.00 Build 0)  -->
<!DOCTYPE svg PUBLIC "-//W3C//DTD SVG 1.1//EN" "http://www.w3.org/Graphics/SVG/1.1/DTD/svg11.dtd">
<svg version="1.1" id="Layer_1" xmlns="http://www.w3.org/2000/svg" xmlns:xlink="http://www.w3.org/1999/xlink" x="0px" y="0px"
	 width="48px" height="48px" viewBox="0 0 48 48" enable-background="new 0 0 48 48" xml:space="preserve">
<g id="color_21_">
	<g>
		<path fill="#FFDA8E" d="M44,5H7C6.447,5,6,5.447,6,6v38c0,0.553,0.447,1,1,1h37c0.553,0,1-0.447,1-1V6C45,5.447,44.553,5,44,5z"/>
	</g>
</g>
<g id="outline_20_">
	<g>
		<path fill="#384D68" d="M45,2H3C2.447,2,2,2.447,2,3v42c0,0.553,0.447,1,1,1h42c0.553,0,1-0.447,1-1V3C46,2.447,45.553,2,45,2z
			 M42.586,4l-4,4H9.414l-4-4H42.586z M10,34.087v-4.67l28-16.078v4.67L10,34.087z M38,20.339V38h-5V23.21L38,20.339z M31,24.358V38
			h-6V27.804L31,24.358z M23,28.952V38h-6v-5.603L23,28.952z M15,33.546V38h-5v-1.583L15,33.546z M10,27.087V10h5v14.216L10,27.087z
			 M17,23.067V10h6v9.622L17,23.067z M31.05,15L25,18.474V10h6v5H31.05z M33,13.88V10h5v1.009L33,13.88z M4,5.414l4,4v29.172l-4,4
			V5.414z M5.414,44l4-4h29.172l4,4H5.414z M44,42.586l-4-4V9.414l4-4V42.586z"/>
	</g>
</g>
</svg>
