<?xml version="1.0" encoding="utf-8"?>
<!-- Generator: Adobe Illustrator 16.0.0, SVG Export Plug-In . SVG Version: 6.00 Build 0)  -->
<!DOCTYPE svg PUBLIC "-//W3C//DTD SVG 1.1//EN" "http://www.w3.org/Graphics/SVG/1.1/DTD/svg11.dtd">
<svg version="1.1" id="Layer_1" xmlns="http://www.w3.org/2000/svg" xmlns:xlink="http://www.w3.org/1999/xlink" x="0px" y="0px"
	 width="48px" height="48px" viewBox="0 0 48 48" enable-background="new 0 0 48 48" xml:space="preserve">
<g id="color_52_">
	<g>
		<path fill-rule="evenodd" clip-rule="evenodd" fill="#FFDA8E" d="M45.74,37.036l-6.388-6.528c1.263-2.321,1.987-4.99,1.987-7.834
			c0-8.931-7.092-16.171-15.841-16.171c-8.748,0-15.841,7.24-15.841,16.171c0,2.841,0.723,5.508,1.983,7.827l-6.383,6.517
			c-0.37,0.377-0.283,1.167,0.087,1.544c0.331,0.338,0.585,0.283,0.585,0.283h5.591v5.707c0.022,0.21,0.122,0.439,0.28,0.601
			c0.369,0.377,1.114,0.437,1.483,0.06l7.099-7.246c1.606,0.561,3.322,0.879,5.115,0.879c1.787,0,3.499-0.316,5.102-0.873
			l7.112,7.27c0.369,0.378,1.114,0.318,1.483-0.06c0.158-0.161,0.257-0.391,0.28-0.602v-5.714h5.591c0,0,0.254,0.055,0.585-0.283
			C46.021,38.205,46.109,37.414,45.74,37.036z M31.635,24.099c2.297,7.86,0.064,9.449-6.696,4.769
			c-6.818,4.598-9.029,2.981-6.635-4.85c-6.512-5.019-5.646-7.606,2.594-7.766c2.794-7.699,5.541-7.683,8.239,0.051
			C37.374,16.563,38.207,19.161,31.635,24.099z"/>
	</g>
</g>
<g id="outline_50_">
	<g>
		<path fill="#384D68" d="M45.721,34.603l-6.854-6.863c1.355-2.44,2.133-5.246,2.133-8.236c0-9.389-7.611-17-17-17s-17,7.611-17,17
			c0,2.986,0.775,5.79,2.129,8.229l-6.851,6.85c-0.396,0.396-0.303,1.228,0.094,1.624c0.354,0.354,0.628,0.297,0.628,0.297h6v6
			c0.024,0.221,0.131,0.462,0.301,0.632c0.396,0.396,1.195,0.459,1.592,0.063l7.617-7.618c1.725,0.589,3.566,0.924,5.49,0.924
			c1.918,0,3.755-0.332,5.475-0.918l7.633,7.643c0.396,0.397,1.195,0.335,1.592-0.063c0.17-0.17,0.276-0.411,0.301-0.632v-6.008h6
			c0,0,0.272,0.058,0.628-0.298C46.023,35.831,46.117,34.999,45.721,34.603z M10.95,40.268v-4.86
			c-0.025-0.221-0.107-0.438-0.276-0.607c-0.335-0.335-0.606-0.291-0.606-0.291l-4.861,0.016l5.047-5.047
			c1.615,2.221,3.749,4.029,6.23,5.257L10.95,40.268z M23.999,34.503c-8.284,0-15-6.716-15-15s6.716-15,15-15s15,6.716,15,15
			S32.283,34.503,23.999,34.503z M37.93,34.529c0,0-0.271-0.044-0.605,0.291c-0.17,0.17-0.251,0.387-0.275,0.608v4.866l-5.548-5.555
			c2.484-1.226,4.621-3.034,6.237-5.255l5.054,5.06L37.93,34.529z M28.137,14.303c-2.698-7.733-5.445-7.75-8.239-0.051
			c-8.24,0.159-9.105,2.747-2.594,7.766c-2.395,7.831-0.184,9.447,6.635,4.85c6.761,4.681,8.993,3.091,6.696-4.769
			C37.207,17.161,36.374,14.563,28.137,14.303z M28.205,20.929c2.554,7.324,1.823,7.838-4.254,2.945
			c-6.021,4.966-6.676,4.404-4.217-2.995c-6.106-3.694-5.994-4.797,1.648-4.797c2.119-7.038,3.114-7.059,5.235,0.03
			C34.197,16.112,34.476,17.16,28.205,20.929z"/>
	</g>
</g>
</svg>
