<?xml version="1.0" encoding="utf-8"?>
<!-- Generator: Adobe Illustrator 16.0.0, SVG Export Plug-In . SVG Version: 6.00 Build 0)  -->
<!DOCTYPE svg PUBLIC "-//W3C//DTD SVG 1.1//EN" "http://www.w3.org/Graphics/SVG/1.1/DTD/svg11.dtd">
<svg version="1.1" id="Layer_1" xmlns="http://www.w3.org/2000/svg" xmlns:xlink="http://www.w3.org/1999/xlink" x="0px" y="0px"
	 width="48px" height="48px" viewBox="0 0 48 48" enable-background="new 0 0 48 48" xml:space="preserve">
<g id="color_16_">
	<g>
		<path fill="#FFDA8E" d="M16.034,6.109C16.057,6.237,16.082,6.271,16.034,6.109L16.034,6.109z M37.966,6.109
			C37.918,6.271,37.943,6.237,37.966,6.109L37.966,6.109z M37,5H17c-1.026,0-1.019,0.786-0.968,1.096
			C16.272,6.817,17.908,11.728,18,12v10c0,4.603,4.444,8,9,8s9-3.397,9-8V12l1.968-5.904C38.019,5.786,38.026,5,37,5z M37.968,6.096
			c-0.001,0.005-0.001,0.009-0.002,0.014C37.975,6.079,37.985,6.045,38,6L37.968,6.096z M16.034,6.109
			c-0.001-0.004-0.001-0.009-0.002-0.013C16.013,6.039,16,6,16,6C16.015,6.045,16.025,6.079,16.034,6.109z"/>
	</g>
</g>
<g id="outline_31_">
	<g>
		<path fill-rule="evenodd" clip-rule="evenodd" fill="#384D68" d="M12.103,3.471l-0.052-0.155l0.005-0.002
			C12.08,3.389,12.094,3.436,12.103,3.471l1.948,5.845l0.005-0.002c0.085,0.255,0.272,0.454,0.509,0.572
			C14.203,10.856,14,11.903,14,13v7c0,4.971,5.029,9,10,9s10-4.029,10-9v-7c0-1.054-0.189-2.062-0.524-3H41c0.553,0,1-0.447,1-1
			s-0.447-1-1-1h-6.613l1.511-4.529c0.009-0.036,0.022-0.083,0.047-0.156l0.005,0.002l-0.052,0.154C35.797,3.876,36.573,2,35,2H13
			C11.426,2,12.202,3.875,12.103,3.471z M32,20c0,3.866-4.134,7-8,7s-8-3.134-8-7v-7c0-1.077,0.254-2.091,0.69-3h14.618
			C31.746,10.909,32,11.923,32,13V20z M33.613,4l-1.334,4H15.721l-1.334-4H33.613z M36,33H12C6.477,33,2,37.478,2,43v2
			c0,0.553,0.447,1,1,1s1-0.447,1-1v-2c0-4.418,3.582-8,8-8h24c4.418,0,8,3.582,8,8v2c0,0.553,0.447,1,1,1s1-0.447,1-1v-2
			C46,37.478,41.523,33,36,33z M24,21c0.553,0,1-0.447,1-1v-4c0-0.553-0.447-1-1-1s-1,0.447-1,1v4C23,20.553,23.447,21,24,21z
			 M28,13c-0.553,0-1,0.447-1,1s0.447,1,1,1s1-0.447,1-1S28.553,13,28,13z M20,15c0.553,0,1-0.447,1-1s-0.447-1-1-1s-1,0.447-1,1
			S19.447,15,20,15z M28,21c-0.285,0-0.539,0.123-0.722,0.314C26.549,22.037,25.096,23,24,23c-1.104,0-2.573-1.01-3.297-1.734
			c0,0-0.178-0.266-0.703-0.266c-0.553,0-1,0.447-1,1c0,0.316,0.156,0.587,0.386,0.77C20.488,23.833,22.389,25,24,25
			c1.656,0,3.625-1.203,4.711-2.289l-0.004-0.004C28.889,22.526,29,22.276,29,22C29,21.447,28.553,21,28,21z"/>
	</g>
</g>
</svg>
