<?xml version="1.0" encoding="utf-8"?>
<!-- Generator: Adobe Illustrator 16.0.0, SVG Export Plug-In . SVG Version: 6.00 Build 0)  -->
<!DOCTYPE svg PUBLIC "-//W3C//DTD SVG 1.1//EN" "http://www.w3.org/Graphics/SVG/1.1/DTD/svg11.dtd">
<svg version="1.1" id="Layer_1" xmlns="http://www.w3.org/2000/svg" xmlns:xlink="http://www.w3.org/1999/xlink" x="0px" y="0px"
	 width="48px" height="48px" viewBox="0 0 48 48" enable-background="new 0 0 48 48" xml:space="preserve">
<g id="color_31_">
	<g>
		<path fill="#F16362" d="M45.769,31.904l-8.853-13.918c-0.276-0.481-0.888-0.646-1.366-0.368L14.84,29.631
			c-0.479,0.278-0.642,0.895-0.366,1.376L23.252,45c0.276,0.481,0.888,0.646,1.366,0.368L45.403,33.28
			C45.881,33.002,46.045,32.387,45.769,31.904z"/>
	</g>
</g>
<g id="outline_30_">
	<g>
		<path fill="#384D68" d="M19.011,40.504h-16c-0.552,0-1,0.443-1,1s0.448,1,1,1h16c0.552,0,1-0.443,1-1S19.563,40.504,19.011,40.504
			z M4.011,37.504c0,0.557,0.448,1,1,1h12c0.552,0,1-0.443,1-1s-0.448-1-1-1h-12C4.458,36.504,4.011,36.947,4.011,37.504z
			 M7.011,32.504h-4c-0.552,0-1,0.443-1,1s0.448,1,1,1h4c0.552,0,1-0.443,1-1S7.563,32.504,7.011,32.504z M45.874,29.361
			l-5.075-8.685c0.199-0.063,0.391-0.145,0.57-0.246c0.483-0.276,0.883-0.667,1.15-1.031c0.559-0.763,0.577-1.468,0.494-1.926
			c-0.008-0.045-0.018-0.09-0.028-0.134c0.098-0.045,0.2-0.099,0.291-0.15c0.875-0.51,1.479-1.41,1.576-2.352
			c0.129-1.263-0.609-2.404-1.532-3.147c0.535-1.459,0.665-3.011,0.385-4.626c-0.25-1.445-0.917-3.953-2.56-4.509
			c-0.285-0.097-0.598-0.079-0.849,0.09c-0.253,0.152-0.424,0.411-0.468,0.706l-0.061,0.452c-0.092,0.719-0.126,0.987-0.556,1.463
			c-0.435,0.479-0.953,0.948-1.587,1.434c-1.29,0.984-2.647,1.886-4.037,2.678c-1.316,0.751-2.807,1.602-3.667,3.12
			c-0.811,1.432-0.953,2.923-0.478,4.376l-9.008,5.138c-1.036-1.133-2.415-1.757-4.074-1.778c-1.762-0.023-3.253,0.826-4.569,1.577
			c-1.389,0.792-2.858,1.504-4.366,2.114c-0.742,0.3-1.412,0.51-2.05,0.642c-0.632,0.13-0.885,0.024-1.561-0.256l-0.427-0.174
			c-0.28-0.11-0.592-0.094-0.853,0.047c-0.273,0.131-0.445,0.39-0.503,0.682c-0.334,1.684,1.531,3.508,2.672,4.445
			c1.276,1.047,2.701,1.712,4.248,1.983c0.19,1.161,0.821,2.363,1.993,2.884c0.874,0.389,1.965,0.322,2.85-0.172
			c0.091-0.051,0.188-0.111,0.277-0.173c0.033,0.031,0.068,0.062,0.103,0.091c0.36,0.3,0.987,0.637,1.935,0.54
			c0.453-0.046,0.996-0.193,1.479-0.469c0.179-0.103,0.346-0.226,0.501-0.364l5.075,8.685c0.279,0.477,0.896,0.64,1.378,0.364
			l20.963-11.957C45.987,30.447,46.152,29.838,45.874,29.361z M31.699,13.532c0.592-1.046,1.779-1.723,2.926-2.377
			c1.466-0.836,2.898-1.787,4.257-2.825c0.731-0.559,1.337-1.107,1.853-1.678c0.251-0.277,0.437-0.541,0.576-0.797
			c0.148,0.43,0.285,0.942,0.385,1.516c0.259,1.497,0.068,2.919-0.568,4.228c-0.244,0.501-0.032,1.113,0.474,1.369
			c0.635,0.321,1.282,1.031,1.222,1.62c-0.032,0.308-0.273,0.643-0.601,0.834c-0.117,0.054-0.427,0.219-0.707,0.101
			c-0.486-0.205-1.039-0.013-1.283,0.444c-0.243,0.458-0.097,1.033,0.339,1.331c0.247,0.169,0.41,0.355,0.436,0.499
			c0.022,0.12-0.065,0.27-0.141,0.374c-0.225,0.307-0.584,0.565-0.817,0.587c-0.047,0.005-0.069,0.002-0.121-0.044
			c-0.12-0.106-0.258-0.172-0.402-0.214l-2.73-4.671c-0.278-0.477-0.895-0.64-1.377-0.365l-4.153,2.369
			C31.127,15.074,31.251,14.322,31.699,13.532z M16.803,31.904c0.015,0.066,0.005,0.088-0.022,0.125
			c-0.136,0.189-0.542,0.367-0.923,0.406c-0.129,0.013-0.304,0.013-0.399-0.066c-0.112-0.094-0.194-0.327-0.219-0.623
			c-0.044-0.521-0.475-0.935-0.998-0.955c-0.522-0.02-0.968,0.357-1.031,0.875c-0.037,0.298-0.336,0.481-0.441,0.555
			c-0.332,0.185-0.747,0.224-1.032,0.097c-0.546-0.243-0.845-1.151-0.809-1.854c0.029-0.561-0.402-1.049-0.963-1.091
			c-1.465-0.109-2.808-0.657-3.99-1.627C5.523,27.373,5.142,27,4.84,26.658c0.293,0.009,0.618-0.019,0.986-0.095
			c0.758-0.156,1.542-0.4,2.397-0.746c1.59-0.644,3.139-1.394,4.605-2.23c1.147-0.654,2.334-1.331,3.547-1.314
			c0.917,0.012,1.638,0.282,2.234,0.78l-4.153,2.368c-0.482,0.275-0.647,0.885-0.369,1.361l2.729,4.671
			C16.781,31.598,16.77,31.748,16.803,31.904z M24.406,40.456l-8.069-13.808l19.216-10.96l8.069,13.807L24.406,40.456z
			 M35.32,19.273c-0.278-0.477-0.896-0.64-1.377-0.364c-0.338,0.192-0.387,0.395-0.387,0.395l-4.201,7.198l-8.344,0.002
			c-0.552,0-1,0.443-1,1s0.448,1,1,1l8.903,0.012c0,0,0.199,0.062,0.54-0.133c0.17-0.098,0.285-0.244,0.371-0.403l0.016,0.008
			l4.498-7.748l-0.016-0.008C35.478,19.938,35.5,19.582,35.32,19.273z"/>
	</g>
</g>
</svg>
