<?xml version="1.0" encoding="utf-8"?>
<!-- Generator: Adobe Illustrator 16.0.0, SVG Export Plug-In . SVG Version: 6.00 Build 0)  -->
<!DOCTYPE svg PUBLIC "-//W3C//DTD SVG 1.1//EN" "http://www.w3.org/Graphics/SVG/1.1/DTD/svg11.dtd">
<svg version="1.1" id="Layer_1" xmlns="http://www.w3.org/2000/svg" xmlns:xlink="http://www.w3.org/1999/xlink" x="0px" y="0px"
	 width="48px" height="48px" viewBox="0 0 48 48" enable-background="new 0 0 48 48" xml:space="preserve">
<g id="color_43_">
	<g>
		<path fill="#FFDA8E" d="M44,7H7C6.447,7,6,7.447,6,8v34c0,0.553,0.447,1,1,1h37c0.553,0,1-0.447,1-1V8C45,7.447,44.553,7,44,7z
			 M32,20.8c0,2.872-2.238,5.2-5,5.2s-5-2.328-5-5.2v-6.934C22,13.388,22.373,13,22.834,13h8.332C31.627,13,32,13.388,32,13.866
			V20.8z"/>
	</g>
</g>
<g id="outline_41_">
	<g>
		<path fill="#384D68" d="M45,4H3C2.447,4,2,4.447,2,5v38c0,0.553,0.447,1,1,1h42c0.553,0,1-0.447,1-1V5C46,4.447,45.553,4,45,4z
			 M44,42H4V6h40V42z M19,36c-0.553,0-1,0.447-1,1s0.447,1,1,1h10c0.553,0,1-0.447,1-1s-0.447-1-1-1h-4V24.91
			c2.836-0.478,5-2.938,5-5.91v-8c0-0.553-0.447-1-1-1H19c-0.553,0-1,0.447-1,1v8c0,2.973,2.163,5.433,5,5.91V36H19z M20,19v-7h8v7
			c0,2.209-1.791,4-4,4S20,21.209,20,19z"/>
	</g>
</g>
</svg>
