<?xml version="1.0" encoding="utf-8"?>
<!-- Generator: Adobe Illustrator 16.0.0, SVG Export Plug-In . SVG Version: 6.00 Build 0)  -->
<!DOCTYPE svg PUBLIC "-//W3C//DTD SVG 1.1//EN" "http://www.w3.org/Graphics/SVG/1.1/DTD/svg11.dtd">
<svg version="1.1" id="Layer_1" xmlns="http://www.w3.org/2000/svg" xmlns:xlink="http://www.w3.org/1999/xlink" x="0px" y="0px"
	 width="48px" height="48px" viewBox="0 0 48 48" enable-background="new 0 0 48 48" xml:space="preserve">
<g id="color_33_">
	<g>
		<path fill="#F16362" d="M45,23h-5l-4-12c0-0.553-0.447-1-1-1h-1h-5H7c-0.553,0-1,0.447-1,1v24c0,0.553,0.447,1,1,1h27
			c0.186,0,0.351-0.064,0.5-0.153C34.649,35.936,34.814,36,35,36h8c0.553,0,3-2.447,3-3v-9C46,23.447,45.553,23,45,23z"/>
	</g>
</g>
<g id="outline_33_">
	<g>
		<path fill="#384D68" d="M21.281,31.362c-0.375,0.373-0.375,0.978,0,1.351s0.982,0.373,1.357,0l4.073-4.053
			c0.374-0.373,0.374-0.978,0-1.351l-4.073-4.053c-0.375-0.373-0.982-0.373-1.357,0s-0.375,0.978,0,1.351L23.686,27H16
			c-1.656,0-3-1.343-3-3v-4c0-0.553-0.447-1-1-1s-1,0.447-1,1v4c0,2.762,2.238,5,5,5h7.655L21.281,31.362z M41,26
			c0.553,0,1-0.447,1-1s-0.447-1-1-1h-2c-0.553,0-1,0.447-1,1s0.447,1,1,1H41z M13,35c-1.656,0-3,1.343-3,3s1.344,3,3,3s3-1.343,3-3
			S14.656,35,13,35z M13,39c-0.553,0-1-0.447-1-1s0.447-1,1-1s1,0.447,1,1S13.553,39,13,39z M28,35H18c-0.553,0-1,0.447-1,1
			s0.447,1,1,1h10c0.553,0,1-0.447,1-1S28.553,35,28,35z M42,20h-2c-1.104,0-2-0.896-2-2l-2-7c0-2.209-1.791-4-4-4H3
			C2.447,7,2,7.447,2,8v28c0,0.553,0.447,1,1,1h5c0.553,0,1-0.447,1-1s-0.447-1-1-1H4V9h28c1.104,0,2,0.896,2,2l2,7
			c0,2.209,1.791,4,4,4h2c1.104,0,2,0.896,2,2v9c0,1.104-0.896,2-2,2h-4c-0.553,0-1,0.447-1,1s0.447,1,1,1h4c2.209,0,4-1.791,4-4v-9
			C46,21.791,44.209,20,42,20z M32,22c1.104,0,2-0.896,2-2l-2-7c0-1.104-0.896-2-2-2h-4c-1.104,0-2,0.896-2,2v7c0,1.104,0.896,2,2,2
			H32z M26,13h4l2,7h-6V13z M33,35c-1.656,0-3,1.343-3,3s1.344,3,3,3s3-1.343,3-3S34.656,35,33,35z M33,39c-0.553,0-1-0.447-1-1
			s0.447-1,1-1s1,0.447,1,1S33.553,39,33,39z"/>
	</g>
</g>
</svg>
