<?xml version="1.0" encoding="utf-8"?>
<!-- Generator: Adobe Illustrator 16.0.0, SVG Export Plug-In . SVG Version: 6.00 Build 0)  -->
<!DOCTYPE svg PUBLIC "-//W3C//DTD SVG 1.1//EN" "http://www.w3.org/Graphics/SVG/1.1/DTD/svg11.dtd">
<svg version="1.1" id="Layer_1" xmlns="http://www.w3.org/2000/svg" xmlns:xlink="http://www.w3.org/1999/xlink" x="0px" y="0px"
	 width="48px" height="48px" viewBox="0 0 48 48" enable-background="new 0 0 48 48" xml:space="preserve">
<g id="color_59_">
	<g>
		<path fill="#F16362" d="M44,5H7C6.448,5,6,5.447,6,6v38c0,0.553,0.448,1,1,1h37c0.553,0,1-0.447,1-1V6C45,5.447,44.553,5,44,5z"/>
	</g>
</g>
<g id="outline_57_">
	<g>
		<path fill="#384D68" d="M45,2H3C2.448,2,2,2.447,2,3v42c0,0.553,0.448,1,1,1h42c0.553,0,1-0.447,1-1V3C46,2.447,45.553,2,45,2z
			 M4,4h18c0.552,0,1,0.447,1,1v11c-0.303-0.585-0.69-1.003-1.193-1.502c-2.015-2.004-5.283-2.004-7.298,0
			c-2.016,2.004-2.016,5.253,0,7.257C15.029,22.272,15.445,22.681,16,23H5c-0.552,0-1-0.447-1-1V4z M23,43c0,0.553-0.448,1-1,1H4V26
			c0-0.553,0.448-1,1-1h14.813c-0.213,0.154-0.427,0.307-0.62,0.498C17.429,27.252,17.037,33.52,17,35c0,0.553,0.448,1,1,1
			s1-0.447,1-1c0,0,0.025-5.404,1.596-7.995C21.083,26.203,22.141,24.963,23,25V43z M23,23c-0.128,0.127-4.381-0.046-6.976-2.641
			c-1.237-1.236-1.265-3.207-0.056-4.41c1.209-1.202,3.199-1.181,4.436,0.056C22.999,18.601,23.029,22.971,23,23z M44,44H26
			c-0.553,0-1-0.447-1-1V25c0.859-0.037,1.917,1.203,2.404,2.005C28.975,29.596,29,35,29,35c0,0.553,0.447,1,1,1s1-0.447,1-1
			c-0.037-1.48-0.429-7.748-2.193-9.502C28.615,25.307,28.4,25.154,28.188,25H43c0.553,0,1,0.447,1,1V44z M27.586,16.014
			c1.236-1.236,3.217-1.262,4.423-0.056s1.181,3.186-0.056,4.423C29.354,22.979,25.127,23.127,25,23
			C24.971,22.971,25.022,18.577,27.586,16.014z M44,22c0,0.553-0.447,1-1,1H32c0.477-0.315,0.961-0.717,1.465-1.22
			c2.01-2.01,2.01-5.269,0-7.278s-5.269-2.01-7.278,0C25.688,15.001,25.371,15.381,25,16V5c0-0.553,0.447-1,1-1h18V22z"/>
	</g>
</g>
</svg>
