<?xml version="1.0" encoding="utf-8"?>
<!-- Generator: Adobe Illustrator 16.0.0, SVG Export Plug-In . SVG Version: 6.00 Build 0)  -->
<!DOCTYPE svg PUBLIC "-//W3C//DTD SVG 1.1//EN" "http://www.w3.org/Graphics/SVG/1.1/DTD/svg11.dtd">
<svg version="1.1" id="Layer_1" xmlns="http://www.w3.org/2000/svg" xmlns:xlink="http://www.w3.org/1999/xlink" x="0px" y="0px"
	 width="48px" height="48px" viewBox="0 0 48 48" enable-background="new 0 0 48 48" xml:space="preserve">
<g id="color_35_">
	<g>
		<path fill="#898CC5" d="M44.572,23.42l-3.5-6.063c-0.276-0.479-0.888-0.643-1.366-0.366l-9.526,5.5
			c-0.479,0.276-0.642,0.888-0.366,1.366l3.5,6.063c0.276,0.478,0.888,0.642,1.366,0.365l9.526-5.5
			C44.685,24.51,44.849,23.897,44.572,23.42z M40.303,37.997c-2.209,0-4,1.791-4,4s1.791,4,4,4s4-1.791,4-4
			S42.512,37.997,40.303,37.997z"/>
	</g>
</g>
<g id="outline_35_">
	<g>
		<path fill="#384D68" d="M29.679,30.131c0.275,0.479,0.888,0.643,1.365,0.366l10.393-6c0.479-0.276,0.643-0.888,0.366-1.366
			l-4-6.928c-0.276-0.479-0.888-0.643-1.366-0.366l-10.393,6c-0.478,0.276-0.642,0.888-0.365,1.366L29.679,30.131z M31.375,21.068
			l1.5,2.599l1.731-1l-1.5-2.599l3.464-1.999l3,5.195l-8.66,5l-3-5.195L31.375,21.068z M40.185,29.486
			c-0.279-0.48-0.898-0.645-1.383-0.367l-9.64,5.515L10.44,2.505C10.16,2.025,9.542,1.86,9.059,2.138L3.8,5.146
			C3.315,5.423,3.15,6.036,3.43,6.516s0.898,0.644,1.382,0.367l4.382-2.507l18.722,32.129c0.279,0.479,0.898,0.644,1.382,0.367
			l10.517-6.017C40.298,30.579,40.464,29.966,40.185,29.486z M37.303,35.997c-2.762,0-5,2.238-5,5s2.238,5,5,5s5-2.238,5-5
			S40.064,35.997,37.303,35.997z M37.303,43.997c-1.657,0-3-1.343-3-3s1.343-3,3-3s3,1.343,3,3S38.96,43.997,37.303,43.997z"/>
	</g>
</g>
</svg>
