<?xml version="1.0" encoding="utf-8"?>
<!-- Generator: Adobe Illustrator 16.0.0, SVG Export Plug-In . SVG Version: 6.00 Build 0)  -->
<!DOCTYPE svg PUBLIC "-//W3C//DTD SVG 1.1//EN" "http://www.w3.org/Graphics/SVG/1.1/DTD/svg11.dtd">
<svg version="1.1" id="Layer_1" xmlns="http://www.w3.org/2000/svg" xmlns:xlink="http://www.w3.org/1999/xlink" x="0px" y="0px"
	 width="48px" height="48px" viewBox="0 0 48 48" enable-background="new 0 0 48 48" xml:space="preserve">
<g id="color_28_">
	<g>
		<path fill-rule="evenodd" clip-rule="evenodd" fill="#F16362" d="M44,38H33V7c0-0.553-0.447-1-1-1H7C6.447,6,6,6.447,6,7v32
			c0,3.667,1.938,5.751,5.435,5.959C13.992,44.548,16,40.615,16,38h2c0,3.667-2.82,6.67-6.41,6.97C11.729,44.976,11.855,45,12,45h27
			c2.866,0,6-2.134,6-5v-1C45,38.447,44.553,38,44,38z"/>
	</g>
</g>
<g id="outline_27_">
	<g>
		<path fill="#384D68" d="M20,18H9c-0.553,0-1,0.447-1,1s0.447,1,1,1h11c0.553,0,1-0.447,1-1S20.553,18,20,18z M20,22H9
			c-0.553,0-1,0.447-1,1s0.447,1,1,1h11c0.553,0,1-0.447,1-1S20.553,22,20,22z M45,37H34V3c0-0.553-0.447-1-1-1H3
			C2.447,2,2,2.447,2,3v36c0,3.866,3.134,7,7,7h30c3.866,0,7-3.134,7-7v-1C46,37.447,45.553,37,45,37z M9,44c-2.762,0-5-2.238-5-5V4
			h28v33H15c-0.553,0-1,0.447-1,1v1C14,41.762,11.762,44,9,44z M39,44H13.895C15.192,42.729,16,40.96,16,39h28
			C44,41.762,41.762,44,39,44z M30,13V7c0-0.553-0.447-1-1-1H7C6.447,6,6,6.447,6,7v6c0,0.553,0.447,1,1,1h22
			C29.553,14,30,13.553,30,13z M17,11c0,0.553-0.447,1-1,1H8V8h8c0.553,0,1,0.447,1,1V11z M28,12h-8c-0.553,0-1-0.447-1-1V9
			c0-0.553,0.447-1,1-1h8V12z M16,27c0-0.553-0.447-1-1-1H9c-0.553,0-1,0.447-1,1s0.447,1,1,1h6C15.553,28,16,27.553,16,27z"/>
	</g>
</g>
</svg>
