<?xml version="1.0" encoding="utf-8"?>
<!-- Generator: Adobe Illustrator 16.0.0, SVG Export Plug-In . SVG Version: 6.00 Build 0)  -->
<!DOCTYPE svg PUBLIC "-//W3C//DTD SVG 1.1//EN" "http://www.w3.org/Graphics/SVG/1.1/DTD/svg11.dtd">
<svg version="1.1" id="Layer_1" xmlns="http://www.w3.org/2000/svg" xmlns:xlink="http://www.w3.org/1999/xlink" x="0px" y="0px"
	 width="48px" height="48px" viewBox="0 0 48 48" enable-background="new 0 0 48 48" xml:space="preserve">
<g id="color_39_">
	<g>
		<path fill-rule="evenodd" clip-rule="evenodd" fill="#F16362" d="M44,7H7C6.448,7,6,7.447,6,8v34c0,0.553,0.448,1,1,1h37
			c0.552,0,1-0.447,1-1V8C45,7.447,44.552,7,44,7z M37.143,21H14.857C14.384,21,14,20.602,14,20.111
			c0-0.229,0.217-0.604,0.217-0.604C15.653,15.859,20.648,13,26,13s10.382,3.414,11.756,6.48c0,0,0.244,0.311,0.244,0.631
			C38,20.602,37.616,21,37.143,21z"/>
	</g>
</g>
<g id="outline_37_">
	<g>
		<path fill-rule="evenodd" clip-rule="evenodd" fill="#384D68" d="M45,4H3C2.448,4,2,4.447,2,5v38c0,0.553,0.448,1,1,1h42
			c0.552,0,1-0.447,1-1V5C46,4.447,45.552,4,45,4z M44,42H4V6h40V42z M11,19h12v15c0,2.209,1.791,4,4,4s4-1.791,4-4
			c0-0.553-0.448-1-1-1s-1,0.447-1,1c0,1.104-0.896,2-2,2s-2-0.896-2-2V19h12c0.552,0,1-0.447,1-1c0-0.36-0.285-0.71-0.285-0.71
			C36.113,13.841,30.244,10,24,10s-12.071,3.217-13.746,7.321c0,0-0.254,0.422-0.254,0.679C10,18.553,10.448,19,11,19z M24,12
			c4.825,0,8.693,1.987,11.105,5H12.892C15.321,13.957,19.18,12,24,12z"/>
	</g>
</g>
</svg>
