<?xml version="1.0" encoding="utf-8"?>
<!-- Generator: Adobe Illustrator 16.0.0, SVG Export Plug-In . SVG Version: 6.00 Build 0)  -->
<!DOCTYPE svg PUBLIC "-//W3C//DTD SVG 1.1//EN" "http://www.w3.org/Graphics/SVG/1.1/DTD/svg11.dtd">
<svg version="1.1" id="Layer_1" xmlns="http://www.w3.org/2000/svg" xmlns:xlink="http://www.w3.org/1999/xlink" x="0px" y="0px"
	 width="48px" height="48px" viewBox="0 0 48 48" enable-background="new 0 0 48 48" xml:space="preserve">
<g id="color_60_">
	<g>
		<path fill="#FFDA8E" d="M44.369,40.702l-2.062-3.394c-0.285-0.469-0.909-0.633-1.394-0.367l-2.633,1.443l-1.031-1.697l2.633-1.443
			c0.484-0.266,0.646-0.861,0.362-1.329l-2.063-3.394c-0.285-0.469-0.909-0.634-1.394-0.368l-2.633,1.443l-5.798-9.54
			c1.939-2.132,3.132-4.955,3.132-8.064c0-6.627-5.373-12-12-12s-12,5.373-12,12s5.373,12,12,12c1.348,0,2.641-0.232,3.85-0.643
			l12.254,20.163c0.284,0.469,0.908,0.633,1.393,0.367l7.021-3.849C44.492,41.766,44.654,41.171,44.369,40.702z"/>
	</g>
</g>
<g id="outline_58_">
	<g>
		<path fill="#384D68" d="M40.369,40.702l-2.062-3.394c-0.285-0.469-0.909-0.633-1.394-0.367l-2.633,1.443l-1.031-1.697l2.633-1.443
			c0.484-0.266,0.646-0.861,0.362-1.329l-2.063-3.394c-0.285-0.469-0.909-0.634-1.394-0.368l-2.633,1.443l-5.798-9.54
			c1.939-2.132,3.132-4.955,3.132-8.064c0-6.627-5.373-12-12-12s-12,5.373-12,12s5.373,12,12,12c1.348,0,2.641-0.232,3.85-0.643
			l12.254,20.163c0.284,0.469,0.908,0.633,1.393,0.367l7.021-3.849C40.492,41.766,40.654,41.171,40.369,40.702z M32.833,43.702
			L20.131,22.846c-1.387,0.729-2.965,1.146-4.641,1.146c-5.523,0-10-4.478-10-10s4.477-10,10-10s10,4.478,10,10
			c0,3.128-1.438,5.919-3.688,7.753l7.114,11.662c0.284,0.469,0.908,0.633,1.393,0.367l2.633-1.442l1.031,1.696l-2.633,1.443
			c-0.484,0.266-0.646,0.86-0.361,1.329l2.063,3.395c0.284,0.468,0.908,0.633,1.393,0.367l2.633-1.443l1.031,1.697L32.833,43.702z
			 M15.49,5.992c-4.418,0-8,3.582-8,8s3.582,8,8,8s8-3.582,8-8S19.908,5.992,15.49,5.992z M15.49,19.992c-3.314,0-6-2.687-6-6
			s2.686-6,6-6c3.313,0,6,2.687,6,6S18.804,19.992,15.49,19.992z"/>
	</g>
</g>
</svg>
