<?xml version="1.0" encoding="utf-8"?>
<!-- Generator: Adobe Illustrator 16.0.0, SVG Export Plug-In . SVG Version: 6.00 Build 0)  -->
<!DOCTYPE svg PUBLIC "-//W3C//DTD SVG 1.1//EN" "http://www.w3.org/Graphics/SVG/1.1/DTD/svg11.dtd">
<svg version="1.1" id="Layer_1" xmlns="http://www.w3.org/2000/svg" xmlns:xlink="http://www.w3.org/1999/xlink" x="0px" y="0px"
	 width="48px" height="48px" viewBox="0 0 48 48" enable-background="new 0 0 48 48" xml:space="preserve">
<g id="color">
	<g>
		<path fill="#898CC5" d="M43.25,15h-36c-0.553,0-1,0.447-1,1v26c0,0.553,0.447,1,1,1h36c0.553,0,1-0.447,1-1V16
			C44.25,15.447,43.803,15,43.25,15z"/>
	</g>
</g>
<g id="outline">
	<g>
		<path fill="#384D68" d="M41.25,21c-0.553,0-1,0.447-1,1v17h-36V13h8c0.552,0,1-0.448,1-1c0-0.553-0.448-1-1-1h-9
			c-0.553,0-1,0.447-1,1v28c0,0.553,0.447,1,1,1h38c0.552,0,1-0.447,1-1V22C42.25,21.447,41.802,21,41.25,21z M45.943,11.278
			l-5.911-5.993c-0.407-0.381-1.069-0.381-1.478,0c-0.408,0.382-0.408,1,0,1.381L42.782,11H24.25c-7.732,0-14,6.268-14,14v4
			c0,0.553,0.447,1,1,1s1-0.447,1-1v-4c0-6.627,5.372-12,12-12h18.482l-4.178,4.333c-0.408,0.382-0.408,1,0,1.382
			c0.408,0.381,1.07,0.381,1.478,0l5.911-6.056C46.352,12.277,46.352,11.659,45.943,11.278z"/>
	</g>
</g>
</svg>
