<?xml version="1.0" encoding="utf-8"?>
<!-- Generator: Adobe Illustrator 16.0.0, SVG Export Plug-In . SVG Version: 6.00 Build 0)  -->
<!DOCTYPE svg PUBLIC "-//W3C//DTD SVG 1.1//EN" "http://www.w3.org/Graphics/SVG/1.1/DTD/svg11.dtd">
<svg version="1.1" id="Layer_1" xmlns="http://www.w3.org/2000/svg" xmlns:xlink="http://www.w3.org/1999/xlink" x="0px" y="0px"
	 width="48px" height="48px" viewBox="0 0 48 48" enable-background="new 0 0 48 48" xml:space="preserve">
<g id="color_37_">
	<g>
		<path fill="#FFDA8E" d="M34,8L13,18c0,0,0,9.146,0,12c0,0.076,0.017,0.148,0.044,0.218C13.146,30.662,13.525,31,14,31l4.303,1.714
			C18.483,32.89,18.729,33,19,33c0.553,0,1-0.447,1-1c0-0.2,0-10,0-10l21-11L34,8z"/>
	</g>
</g>
<g id="ourline">
	<g>
		<path fill="#384D68" d="M45.427,12.104l0.003-0.007l-21-10C24.43,2.097,24.313,2,24,2s-0.43,0.097-0.43,0.097l-21,10
			c0,0,0.001,0.004,0.002,0.005C2.493,12.136,2,12.404,2,13v22c0,0.397,0.236,0.735,0.573,0.896L2.57,35.902l21,10l0.003-0.006
			C23.704,45.959,23.846,46,24,46s0.296-0.041,0.427-0.104l0.003,0.006l21-10l-0.003-0.006C45.764,35.735,46,35.397,46,35V13
			C46,12.781,45.872,12.316,45.427,12.104z M35.024,9.357L15,18.697v9.826l-3-1.2V17l19.736-9.209L35.024,9.357z M24,4.107
			l5.374,2.56L10.7,15.559L5.326,13L24,4.107z M23,43.416L4,34.368V14.584l6,2.857V28c0,0.421,0.262,0.777,0.63,0.925l-0.001,0.004
			l4.981,1.992C15.388,30.827,15.755,31,16,31c0.553,0,1-0.447,1-1v-9.226l6,2.857V43.416z M24,21.893l-5.475-2.607l18.84-8.813
			L42.674,13L24,21.893z M44,34.368l-19,9.048V23.632l19-9.048V34.368z"/>
	</g>
</g>
</svg>
