<?xml version="1.0" encoding="utf-8"?>
<!-- Generator: Adobe Illustrator 16.0.0, SVG Export Plug-In . SVG Version: 6.00 Build 0)  -->
<!DOCTYPE svg PUBLIC "-//W3C//DTD SVG 1.1//EN" "http://www.w3.org/Graphics/SVG/1.1/DTD/svg11.dtd">
<svg version="1.1" id="Layer_1" xmlns="http://www.w3.org/2000/svg" xmlns:xlink="http://www.w3.org/1999/xlink" x="0px" y="0px"
	 width="48px" height="48px" viewBox="0 0 48 48" enable-background="new 0 0 48 48" xml:space="preserve">
<g id="color_30_">
	<g>
		<path fill="#898CC5" d="M26.807,37.425c0,0-2.443-2.693-2.443-5.625c0-3.592,2.347-5.476,2.926-6.3
			c0.546-0.777,3.529-2.708,3.529-6.3c0-2.706-1.757-5.343-2.795-6.634C27.791,12.165,27.182,12,27.182,12H6.909
			C6.407,12,6,12.403,6,12.9V38.1C6,38.597,6.407,39,6.909,39h19.272c0.502,0,0.909-0.403,0.909-0.9
			C27.091,37.599,26.807,37.425,26.807,37.425z M45.091,12c0,0-13.343,0.016-13.44,0.016c-0.464,0.04-0.832,0.414-0.832,0.885
			c0,0.252,0.105,0.478,0.274,0.642c0,0,1.023,1.106,1.595,2.427c0.649,1.497,0.858,3.231,0.858,3.231
			c0,3.592-3.318,5.571-3.898,6.3c-0.607,0.763-2.557,2.708-2.557,6.3c0,3.235,2.875,6.807,2.875,6.807S30.179,39,30.727,39h14.364
			C45.593,39,46,38.597,46,38.1V12.9C46,12.403,45.593,12,45.091,12z"/>
	</g>
</g>
<g id="outline_29_">
	<g>
		<path fill="#384D68" d="M14,21c0,0.553,0.448,1,1,1s1-0.447,1-1c0-1.936-1.718-3.549-4-3.919V16c0-0.553-0.448-1-1-1s-1,0.447-1,1
			v1.081C7.718,17.451,6,19.064,6,21s1.718,3.549,4,3.919v3.959C8.837,28.602,8,27.869,8,27c0-0.553-0.448-1-1-1s-1,0.447-1,1
			c0,1.936,1.718,3.549,4,3.919V32c0,0.553,0.448,1,1,1s1-0.447,1-1v-1.081c2.282-0.37,4-1.983,4-3.919s-1.718-3.549-4-3.919v-3.959
			C13.163,19.397,14,20.131,14,21z M10,22.878C8.837,22.602,8,21.869,8,21s0.837-1.603,2-1.878V22.878z M14,27
			c0,0.869-0.837,1.602-2,1.878v-3.756C13.163,25.397,14,26.131,14,27z M45,9c0,0-17.978,0.017-18.084,0.017
			C26.405,9.063,26,9.478,26,10c0,0.28,0.116,0.531,0.301,0.713C26.509,10.973,29,14.156,29,17c0,3.991-2.55,6.19-3.188,7
			C25.145,24.848,23,27.009,23,31c0,3.595,3.162,7.563,3.162,7.563S26.396,39,27,39h18c0.552,0,1-0.447,1-1V10
			C46,9.447,45.552,9,45,9z M44,37H27.522C26.681,35.806,25,33.976,25,31c0-3.991,2.582-6.085,3.219-7
			c0.166-0.238,0.455-0.584,0.781-1.028V23h15V37z M44,21H30.155C30.628,19.945,31,18.636,31,17h13V21z M44,15H30.764
			c-0.414-1.765-1.293-3.134-1.956-4H44V15z M35,33c0.552,0,1-0.447,1-1v-2c0-0.553-0.448-1-1-1s-1,0.447-1,1v2
			C34,32.553,34.448,33,35,33z M39,33c0.552,0,1-0.447,1-1v-2c0-0.553-0.448-1-1-1s-1,0.447-1,1v2C38,32.553,38.448,33,39,33z
			 M22.688,37.25c0,0-2.688-2.993-2.688-6.25c0-3.991,2.582-6.085,3.219-7C23.82,23.136,26,20.991,26,17
			c0-3.006-1.932-5.937-3.075-7.371C22.67,9.184,22,9,22,9H3c-0.552,0-1,0.447-1,1v28c0,0.553,0.448,1,1,1h19c0.552,0,1-0.447,1-1
			C23,37.443,22.688,37.25,22.688,37.25z M4,37V11h17.449C22.282,12.208,24,13.994,24,17c0,3.991-2.55,6.19-3.188,7
			C20.145,24.848,18,27.009,18,31c0,2.744,1.282,4.829,2.178,6H4z"/>
	</g>
</g>
</svg>
