<?xml version="1.0" encoding="utf-8"?>
<!-- Generator: Adobe Illustrator 16.0.0, SVG Export Plug-In . SVG Version: 6.00 Build 0)  -->
<!DOCTYPE svg PUBLIC "-//W3C//DTD SVG 1.1//EN" "http://www.w3.org/Graphics/SVG/1.1/DTD/svg11.dtd">
<svg version="1.1" id="Layer_1" xmlns="http://www.w3.org/2000/svg" xmlns:xlink="http://www.w3.org/1999/xlink" x="0px" y="0px"
	 width="48px" height="48px" viewBox="0 0 48 48" enable-background="new 0 0 48 48" xml:space="preserve">
<g id="Ellipse_3">
	<g>
		<circle fill="#F16362" cx="18.995" cy="25.5" r="13"/>
	</g>
</g>
<g id="Ellipse_4_copy">
	<g>
		<path fill="#384D68" d="M15.995,13.5c-5.523,0-10,4.478-10,10s4.477,10,10,10s10-4.478,10-10S21.519,13.5,15.995,13.5z
			 M15.995,31.5c-4.418,0-8-3.582-8-8s3.582-8,8-8s8,3.582,8,8S20.413,31.5,15.995,31.5z M34.505,22.73
			c0.663,0.601,2.307,2.781,5.367,2.781c3.035,0,5.055-2.719,5.366-3c0.336-0.281,0.767-0.448,0.767-1c0-0.553-0.343-1-0.767-1
			c-0.161,0-0.311,0.065-0.435,0.177c-0.925,0.638-2.338,2.823-4.932,2.823c-3.061,0-4.747-2.55-5.367-3.188
			c-0.649-0.668-2.307-2.813-5.366-2.813c-0.167,0-0.318,0.035-0.479,0.051c-0.428-0.909-0.947-1.763-1.552-2.553
			c0.589-0.291,1.254-0.498,2.03-0.498c3.06,0,4.664,2.581,5.366,3.219c0.663,0.601,2.307,2.781,5.367,2.781
			c3.035,0,5.055-2.719,5.366-3c0.336-0.281,0.767-0.448,0.767-1c0-0.553-0.343-1-0.767-1c-0.161,0-0.311,0.065-0.435,0.177
			c-0.925,0.637-2.338,2.823-4.932,2.823c-3.061,0-4.747-2.55-5.367-3.188c-0.649-0.668-2.307-2.813-5.366-2.813
			c-1.293,0-2.387,0.492-3.258,1.076C23.349,11.063,19.854,9.5,15.995,9.5c-7.732,0-14,6.268-14,14c0,7.731,6.268,14,14,14
			c5.556,0,10.341-3.244,12.603-7.935c0.179-0.021,0.351-0.054,0.541-0.054c3.06,0,4.664,2.581,5.366,3.219
			c0.663,0.601,2.307,2.781,5.367,2.781c3.035,0,5.055-2.719,5.366-3c0.336-0.281,0.767-0.448,0.767-1c0-0.553-0.343-1-0.767-1
			c-0.161,0-0.311,0.065-0.435,0.177c-0.925,0.638-2.338,2.823-4.932,2.823c-3.061,0-4.747-2.55-5.367-3.188
			c-0.63-0.648-2.22-2.668-5.106-2.79c0.283-0.941,0.471-1.924,0.552-2.937c-0.004-0.001-0.007-0.002-0.011-0.003
			c0.028-0.362,0.056-0.726,0.056-1.095c0-0.311-0.026-0.613-0.047-0.919c0.005,0.001,0.008,0.002,0.013,0.003
			c-0.07-1.051-0.256-2.068-0.543-3.044C32.288,19.697,33.826,22.114,34.505,22.73z M15.995,35.5c-6.627,0-12-5.373-12-12
			c0-6.628,5.373-12,12-12s12,5.372,12,12C27.995,30.127,22.622,35.5,15.995,35.5z M29.95,24.598
			c2.529,0.403,3.919,2.556,4.555,3.133c0.663,0.601,2.307,2.781,5.367,2.781c3.035,0,5.055-2.719,5.366-3
			c0.336-0.281,0.767-0.448,0.767-1c0-0.553-0.343-1-0.767-1c-0.161,0-0.311,0.065-0.435,0.177
			c-0.925,0.637-2.338,2.823-4.932,2.823c-3.061,0-4.747-2.55-5.367-3.188c-0.588-0.604-2.014-2.401-4.544-2.74
			c0.021,0.303,0.034,0.607,0.034,0.916C29.995,23.869,29.979,24.235,29.95,24.598z"/>
	</g>
</g>
</svg>
