<?xml version="1.0" encoding="utf-8"?>
<!-- Generator: Adobe Illustrator 16.0.0, SVG Export Plug-In . SVG Version: 6.00 Build 0)  -->
<!DOCTYPE svg PUBLIC "-//W3C//DTD SVG 1.1//EN" "http://www.w3.org/Graphics/SVG/1.1/DTD/svg11.dtd">
<svg version="1.1" id="Layer_1" xmlns="http://www.w3.org/2000/svg" xmlns:xlink="http://www.w3.org/1999/xlink" x="0px" y="0px"
	 width="48px" height="48px" viewBox="0 0 48 48" enable-background="new 0 0 48 48" xml:space="preserve">
<g id="color_23_">
	<g>
		<path fill="#FFDA8E" d="M41,29V7c0-0.553-0.447-1-1-1H24v7c0,0.553-0.447,1-1,1h-3c-0.553,0-1-0.447-1-1V6h-5
			c-0.553,0-1,0.447-1,1v22c0,0.553,0.447,1,1,1h26C40.553,30,41,29.553,41,29z M10.5,37C9.119,37,8,38.119,8,39.5S9.119,42,10.5,42
			s2.5-1.119,2.5-2.5S11.881,37,10.5,37z M20.5,37c-1.381,0-2.5,1.119-2.5,2.5s1.119,2.5,2.5,2.5s2.5-1.119,2.5-2.5
			S21.881,37,20.5,37z M30.5,37c-1.381,0-2.5,1.119-2.5,2.5s1.119,2.5,2.5,2.5s2.5-1.119,2.5-2.5S31.881,37,30.5,37z M40.5,37
			c-1.381,0-2.5,1.119-2.5,2.5s1.119,2.5,2.5,2.5s2.5-1.119,2.5-2.5S41.881,37,40.5,37z"/>
	</g>
</g>
<g id="outline_22_">
	<g>
		<path fill-rule="evenodd" clip-rule="evenodd" fill="#384D68" d="M22,38c0-1.657-1.344-3-3-3s-3,1.343-3,3s1.344,3,3,3
			S22,39.657,22,38z M18,38c0-0.553,0.447-1,1-1s1,0.447,1,1s-0.447,1-1,1S18,38.553,18,38z M42,38c0-1.657-1.343-3-3-3
			s-3,1.343-3,3s1.343,3,3,3S42,39.657,42,38z M38,38c0-0.553,0.447-1,1-1s1,0.447,1,1s-0.447,1-1,1S38,38.553,38,38z M32,38
			c0-1.657-1.343-3-3-3s-3,1.343-3,3s1.343,3,3,3S32,39.657,32,38z M28,38c0-0.553,0.447-1,1-1s1,0.447,1,1s-0.447,1-1,1
			S28,38.553,28,38z M12,38c0-1.657-1.344-3-3-3s-3,1.343-3,3s1.344,3,3,3S12,39.657,12,38z M8,38c0-0.553,0.447-1,1-1s1,0.447,1,1
			s-0.447,1-1,1S8,38.553,8,38z M39,31H3c-0.553,0-1,0.447-1,1s0.447,1,1,1h36c2.762,0,5,2.238,5,5s-2.238,5-5,5H3
			c-0.553,0-1,0.447-1,1s0.447,1,1,1h36c3.866,0,7-3.134,7-7S42.866,31,39,31z M10,29h28c0.553,0,1-0.447,1-1V4c0-0.553-0.447-1-1-1
			H10C9.447,3,9,3.447,9,4v24C9,28.553,9.447,29,10,29z M29,6c0-0.553,0.447-1,1-1h7v22h-7c-0.553,0-1-0.447-1-1V6z M18,5h2v6h-2V5z
			 M11,5h5v7c0,0.553,0.447,1,1,1h4c0.553,0,1-0.447,1-1V5h4c0.553,0,1,0.447,1,1v20c0,0.553-0.447,1-1,1H11V5z"/>
	</g>
</g>
</svg>
