<?xml version="1.0" encoding="utf-8"?>
<!-- Generator: Adobe Illustrator 16.0.0, SVG Export Plug-In . SVG Version: 6.00 Build 0)  -->
<!DOCTYPE svg PUBLIC "-//W3C//DTD SVG 1.1//EN" "http://www.w3.org/Graphics/SVG/1.1/DTD/svg11.dtd">
<svg version="1.1" id="Layer_1" xmlns="http://www.w3.org/2000/svg" xmlns:xlink="http://www.w3.org/1999/xlink" x="0px" y="0px"
	 width="48px" height="48px" viewBox="0 0 48 48" enable-background="new 0 0 48 48" xml:space="preserve">
<g id="color_27_">
	<g>
		<path fill="#898CC5" d="M37.4,10.071V10H21.533C17.925,10,15,12.82,15,16.3v10.8c0,0.497,0.418,0.9,0.934,0.9h26.133
			C42.582,28,43,27.597,43,27.1V16.3C43,13.127,40.564,10.51,37.4,10.071z"/>
	</g>
</g>
<g id="outline_26_">
	<g>
		<path fill="#384D68" d="M16.686,18l-2.404,2.392c-0.375,0.373-0.375,0.979,0,1.352s0.982,0.373,1.357,0l4.073-4.053
			c0.375-0.373,0.375-0.978,0-1.351l-4.073-4.053c-0.375-0.373-0.982-0.373-1.357,0s-0.375,0.978,0,1.351L16.655,16H13
			c-3.522,0-6-2.509-6-6V5c0-0.553-0.447-1-1-1S5,4.447,5,5c0,0,0,4.137,0,5c0,4.418,3.582,8,8,8H16.686z M34,6h-5V3
			c0-0.553-0.448-1-1-1h-4c-0.553,0-1,0.447-1,1v3h-5c-3.866,0-7,3.134-7,7v1h2v-1c0-2.762,2.238-5,5-5s5,2.238,5,5v10
			c0,0.552-0.447,1-1,1h-9v-4h-2v5c0,0.552,0.447,1,1,1h11v19c0,0.553,0.447,1,1,1h4c0.552,0,1-0.447,1-1V26h11c0.553,0,1-0.448,1-1
			V13C41,9.134,37.866,6,34,6z M25,4h2v2h-2V4z M27,44h-2V26h2V44z M39,24H26c-0.553,0-1-0.448-1-1V13c0-1.96-0.808-3.729-2.105-5
			H34c2.762,0,5,2.238,5,5V24z"/>
	</g>
</g>
</svg>
