<?xml version="1.0" encoding="utf-8"?>
<!-- Generator: Adobe Illustrator 16.0.0, SVG Export Plug-In . SVG Version: 6.00 Build 0)  -->
<!DOCTYPE svg PUBLIC "-//W3C//DTD SVG 1.1//EN" "http://www.w3.org/Graphics/SVG/1.1/DTD/svg11.dtd">
<svg version="1.1" id="Layer_1" xmlns="http://www.w3.org/2000/svg" xmlns:xlink="http://www.w3.org/1999/xlink" x="0px" y="0px"
	 width="48px" height="48px" viewBox="0 0 48 48" enable-background="new 0 0 48 48" xml:space="preserve">
<g id="color_49_">
	<g>
		<path fill="#F16362" d="M43.988,12.508h-7v12c0,0.553-0.448,1-1,1c-0.206,0-0.386-0.077-0.544-0.184l-1.456-0.816l-1.456,0.816
			c-0.159,0.106-0.339,0.184-0.544,0.184c-0.552,0-1-0.447-1-1v-12h-10c-0.552,0-1,0.447-1,1v23c0,0.553,0.448,1,1,1h23
			c0.552,0,1-0.447,1-1v-23C44.988,12.955,44.54,12.508,43.988,12.508z"/>
	</g>
</g>
<g id="outline_47_">
	<g>
		<path fill="#384D68" d="M4.465,15.508l4.213-4.237c0.404-0.407,0.404-1.067,0-1.474c-0.404-0.407-1.06-0.407-1.464,0l-4.87,4.897
			c-0.128,0.129-0.201,0.286-0.248,0.45c-0.161,0.38-0.091,0.835,0.217,1.146l4.87,4.897c0.404,0.407,1.06,0.407,1.464,0
			c0.405-0.406,0.405-1.066,0-1.474L4.465,15.508z M11.459,16.508h4.529c3.866,0,7,3.134,7,7v10c0,0.553,0.448,1,1,1s1-0.447,1-1
			v-10c0-4.971-4.029-9-9-9h-4.529l3.219-3.237c0.404-0.407,0.404-1.067,0-1.474c-0.404-0.407-1.06-0.407-1.464,0l-4.87,4.897
			c-0.128,0.129-0.201,0.286-0.248,0.45c-0.161,0.38-0.091,0.835,0.217,1.146l4.87,4.897c0.404,0.407,1.06,0.407,1.464,0
			c0.404-0.406,0.404-1.066,0-1.474L11.459,16.508z M44.988,9.508h-11c-0.552,0-1,0.447-1,1V20.64l-1.445-0.964l-0.01,0.016
			c-0.159-0.106-0.339-0.184-0.544-0.184s-0.386,0.077-0.544,0.184l-0.01-0.016l-1.445,0.964V10.508c0-0.553-0.448-1-1-1h-7
			c-0.552,0-1,0.447-1,1s0.448,1,1,1h6v11c0,0.553,0.448,1,1,1c0.206,0,0.386-0.077,0.544-0.184l0.01,0.016l2.445-1.63l2.445,1.63
			l0.01-0.016c0.159,0.106,0.339,0.184,0.544,0.184c0.552,0,1-0.447,1-1v-11h9v25h-26v-9c0-0.553-0.448-1-1-1s-1,0.447-1,1v10
			c0,0.553,0.448,1,1,1h28c0.552,0,1-0.447,1-1v-27C45.988,9.955,45.54,9.508,44.988,9.508z"/>
	</g>
</g>
</svg>
