<?xml version="1.0" encoding="utf-8"?>
<!-- Generator: Adobe Illustrator 16.0.0, SVG Export Plug-In . SVG Version: 6.00 Build 0)  -->
<!DOCTYPE svg PUBLIC "-//W3C//DTD SVG 1.1//EN" "http://www.w3.org/Graphics/SVG/1.1/DTD/svg11.dtd">
<svg version="1.1" id="Layer_1" xmlns="http://www.w3.org/2000/svg" xmlns:xlink="http://www.w3.org/1999/xlink" x="0px" y="0px"
	 width="48px" height="48px" viewBox="0 0 48 48" enable-background="new 0 0 48 48" xml:space="preserve">
<g id="color_51_">
	<g>
		<path fill="#898CC5" d="M43,6h-5v4c0,1.104-0.896,2-2,2h-2c-1.104,0-2-0.896-2-2V6H18v4c0,1.104-0.896,2-2,2h-2
			c-1.104,0-2-0.896-2-2V6H9C8.447,6,8,6.447,8,7v38c0,0.553,0.447,1,1,1h34c0.553,0,1-0.447,1-1V7C44,6.447,43.553,6,43,6z"/>
	</g>
</g>
<g id="outline_49_">
	<g>
		<path fill="#384D68" d="M15.715,28.285c-0.375-0.375-0.982-0.375-1.357,0L13,29.643l-1.357-1.357
			c-0.375-0.375-0.982-0.375-1.357,0c-0.375,0.374-0.375,0.982,0,1.357L11.643,31l-1.357,1.357c-0.375,0.375-0.375,0.983,0,1.357
			c0.375,0.375,0.982,0.375,1.357,0L13,32.357l1.357,1.357c0.375,0.375,0.982,0.375,1.357,0c0.375-0.374,0.375-0.982,0-1.357
			L14.357,31l1.357-1.357C16.09,29.268,16.09,28.659,15.715,28.285z M15.715,18.285c-0.375-0.375-0.982-0.375-1.357,0L13,19.643
			l-1.357-1.357c-0.375-0.375-0.982-0.375-1.357,0c-0.375,0.374-0.375,0.982,0,1.357L11.643,21l-1.357,1.357
			c-0.375,0.375-0.375,0.982,0,1.357s0.982,0.375,1.357,0L13,22.357l1.357,1.357c0.375,0.375,0.982,0.375,1.357,0
			s0.375-0.982,0-1.357L14.357,21l1.357-1.357C16.09,19.268,16.09,18.659,15.715,18.285z M41,6h-5V4c0-1.104-0.896-2-2-2h-2
			c-1.104,0-2,0.896-2,2v2H16V4c0-1.104-0.896-2-2-2h-2c-1.104,0-2,0.896-2,2v2H5C4.447,6,4,6.447,4,7v38c0,0.553,0.447,1,1,1h36
			c0.553,0,1-0.447,1-1V7C42,6.447,41.553,6,41,6z M32,5c0-0.553,0.447-1,1-1s1,0.447,1,1v4c0,0.553-0.447,1-1,1s-1-0.447-1-1V5z
			 M12,5c0-0.553,0.447-1,1-1s1,0.447,1,1v4c0,0.553-0.447,1-1,1s-1-0.447-1-1V5z M40,44H6V8h4v2c0,1.104,0.896,2,2,2h2
			c1.104,0,2-0.896,2-2V8h14v2c0,1.104,0.896,2,2,2h2c1.104,0,2-0.896,2-2V8h4V44z M34,20H20c-0.553,0-1,0.447-1,1s0.447,1,1,1h14
			c0.553,0,1-0.447,1-1S34.553,20,34,20z M30,30H20c-0.553,0-1,0.447-1,1s0.447,1,1,1h10c0.553,0,1-0.447,1-1S30.553,30,30,30z"/>
	</g>
</g>
</svg>
