<?xml version="1.0" encoding="utf-8"?>
<!-- Generator: Adobe Illustrator 16.0.0, SVG Export Plug-In . SVG Version: 6.00 Build 0)  -->
<!DOCTYPE svg PUBLIC "-//W3C//DTD SVG 1.1//EN" "http://www.w3.org/Graphics/SVG/1.1/DTD/svg11.dtd">
<svg version="1.1" id="Layer_1" xmlns="http://www.w3.org/2000/svg" xmlns:xlink="http://www.w3.org/1999/xlink" x="0px" y="0px"
	 width="48px" height="48px" viewBox="0 0 48 48" enable-background="new 0 0 48 48" xml:space="preserve">
<g id="color_18_">
	<g>
		<path fill="#FFDA8E" d="M22.998,19.082l-3.157-2.735L20.677,13H7c-0.553,0-1,0.447-1,1v12.022l0.299,0.025l1.56,3.881l3.571-2.165
			l3.536,2.222l1.619-3.856l4.164-0.287l-0.95-4.073L22.998,19.082z"/>
	</g>
</g>
<g id="outline_17_">
	<g>
		<path fill="#384D68" d="M45,10H3c-0.553,0-1,0.447-1,1v28c0,0.553,0.447,1,1,1h42c0.553,0,1-0.447,1-1V11
			C46,10.447,45.553,10,45,10z M4,12h9.99l1.424,0.119l-0.749,2.951l2.334,1.989l-2.365,1.954l0.702,2.962l-3.077,0.209
			l-1.197,2.805l-2.614-1.615l-2.639,1.574l-1.152-2.822L4,22.071V12z M44,38H4V25.793l0.858,2.136l3.571-2.165l3.536,2.222
			l1.619-3.856l4.164-0.287l-0.95-4.073l3.199-2.687l-3.157-2.735L17.428,12H44V38z M30,27c1.657,0,3-1.343,3-3s-1.343-3-3-3
			s-3,1.343-3,3S28.343,27,30,27z M30,23c0.553,0,1,0.447,1,1s-0.447,1-1,1s-1-0.447-1-1S29.447,23,30,23z M39,30
			c-1.657,0-3,1.343-3,3s1.343,3,3,3s3-1.343,3-3S40.657,30,39,30z M39,34c-0.553,0-1-0.447-1-1s0.447-1,1-1s1,0.447,1,1
			S39.553,34,39,34z M28,36c0.276,0,0.526-0.112,0.707-0.293l13-13C41.888,22.526,42,22.276,42,22c0-0.553-0.447-1-1-1
			c-0.276,0-0.526,0.112-0.707,0.293l-13,13C27.112,34.474,27,34.724,27,35C27,35.553,27.447,36,28,36z"/>
	</g>
</g>
</svg>
