<?xml version="1.0" encoding="utf-8"?>
<!-- Generator: Adobe Illustrator 16.0.0, SVG Export Plug-In . SVG Version: 6.00 Build 0)  -->
<!DOCTYPE svg PUBLIC "-//W3C//DTD SVG 1.1//EN" "http://www.w3.org/Graphics/SVG/1.1/DTD/svg11.dtd">
<svg version="1.1" id="Layer_1" xmlns="http://www.w3.org/2000/svg" xmlns:xlink="http://www.w3.org/1999/xlink" x="0px" y="0px"
	 width="48px" height="48px" viewBox="0 0 48 48" enable-background="new 0 0 48 48" xml:space="preserve">
<g id="color_45_">
	<g>
		<path fill="#898CC5" d="M34.5,5h-17C11.148,5,6,10.148,6,16.5C6,22.987,6,41,6,41c0,0.553,0.447,1,1,1h38c0.553,0,1-0.447,1-1
			c0,0,0-18.013,0-24.5C46,10.148,40.852,5,34.5,5z"/>
	</g>
</g>
<g id="outline_43_">
	<g>
		<path fill="#384D68" d="M35,2H13C6.925,2,2,6.925,2,13v32c0,0.553,0.447,1,1,1s1-0.447,1-1v-5h20v5c0,0.553,0.447,1,1,1
			s1-0.447,1-1v-5h18v5c0,0.553,0.447,1,1,1s1-0.447,1-1V13C46,6.925,41.075,2,35,2z M13,4v9H4C4,8.029,8.029,4,13,4z M24,38H4V15
			h20V38z M24,13h-9V4h13.688C25.855,5.99,24,9.275,24,13z M44,38H26V13c0-4.971,4.029-9,9-9s9,4.029,9,9V38z M7,31h14
			c0.553,0,1-0.447,1-1v-8c0-0.553-0.447-1-1-1H7c-0.553,0-1,0.447-1,1v8C6,30.553,6.447,31,7,31z M8,23h12v6H8V23z"/>
	</g>
</g>
</svg>
