<?xml version="1.0" encoding="utf-8"?>
<!-- Generator: Adobe Illustrator 16.0.0, SVG Export Plug-In . SVG Version: 6.00 Build 0)  -->
<!DOCTYPE svg PUBLIC "-//W3C//DTD SVG 1.1//EN" "http://www.w3.org/Graphics/SVG/1.1/DTD/svg11.dtd">
<svg version="1.1" id="Layer_1" xmlns="http://www.w3.org/2000/svg" xmlns:xlink="http://www.w3.org/1999/xlink" x="0px" y="0px"
	 width="48px" height="48px" viewBox="0 0 48 48" enable-background="new 0 0 48 48" xml:space="preserve">
<g id="color_47_">
	<g>
		<path fill="#FFDA8E" d="M45.045,18.438c-1.082-0.401-1.909-1.609-1.909-2.813c0-1.213,0.813-2.418,1.909-2.813
			c0.527,0,0.955-0.42,0.955-0.938c0,0-0.005-0.875-0.955-0.875H8c0,0.337,0,28.063,0,28.063C8,39.58,8.427,40,8.955,40
			c0,0,1.045-0.051,1.045-1c0-1.036,0.587-2,1.753-2c0.968,0,1.792,0.959,1.792,2.063C13.545,39.58,13.973,40,14.5,40h1.909
			c0.527,0,0.955-0.42,0.955-0.938c0.399-1.081,1.625-1.875,2.863-1.875c1.226,0,2.455,0.813,2.864,1.875
			c0,0.518,0.427,0.938,0.955,0.938h1.909c0.527,0,0.955-0.42,0.955-0.938c0.387-1.104,1.608-1.875,2.864-1.875
			c1.245,0,2.469,0.785,2.863,1.875c0,0.518,0.427,0.938,0.955,0.938H35.5c0.527,0,0.955-0.42,0.955-0.938
			c0.402-1.076,1.628-1.875,2.864-1.875c1.231,0,2.459,0.804,2.863,1.875c0,0.518,0.428,0.938,0.955,0.938h1.909
			C45.573,40,46,39.58,46,39.063v-0.938c0-0.518-0.427-0.938-0.955-0.938c-1.082-0.401-1.909-1.609-1.909-2.813
			c0-1.223,0.8-2.425,1.909-2.813c0.527,0,0.955-0.42,0.955-0.938V28.75c0-0.518-0.427-0.938-0.955-0.938
			c-1.091-0.397-1.909-1.604-1.909-2.813c0-1.213,0.813-2.418,1.909-2.813c0.527,0,0.955-0.42,0.955-0.938v-1.875
			C46,18.857,45.573,18.438,45.045,18.438z"/>
	</g>
</g>
<g id="outline_45_">
	<g>
		<path fill="#384D68" d="M21,18c0.552,0,1-0.447,1-1s-0.448-1-1-1s-1,0.447-1,1S20.448,18,21,18z M38,12H10c-0.552,0-1,0.447-1,1
			v16c0,0.553,0.448,1,1,1h28c0.552,0,1-0.447,1-1V13C39,12.447,38.552,12,38,12z M37,22.59l-5.241-5.24l-0.009,0.007
			C31.567,17.143,31.304,17,31,17c-0.304,0-0.567,0.143-0.75,0.356l-0.009-0.007L23.59,24H19c-0.552,0-1,0.447-1,1
			c0,0.552,0.448,1,1,1h5c0.304,0,0.567-0.143,0.75-0.357l0.009,0.008L31,19.41l6,6V28H11v-4c0.276,0,0.526-0.112,0.707-0.293
			L16,19.414l3.293,3.293C19.474,22.888,19.724,23,20,23c0.552,0,1-0.447,1-1c0-0.276-0.112-0.526-0.293-0.707l-4-4
			C16.526,17.112,16.276,17,16,17c-0.276,0-0.526,0.112-0.707,0.293L11,21.586V14h26V22.59z M45,8c0.552,0,1-0.447,1-1V6
			c0-0.553-0.448-1-1-1h-2c-0.552,0-1,0.447-1,1c-0.411,1.168-1.692,2-3,2c-1.318,0-2.598-0.818-3-2c0-0.553-0.448-1-1-1h-2
			c-0.552,0-1,0.447-1,1c-0.408,1.172-1.689,2-3,2c-1.298,0-2.582-0.847-3-2c0-0.553-0.448-1-1-1h-2c-0.552,0-1,0.447-1,1
			c-0.408,1.172-1.689,2-3,2c-1.322,0-2.6-0.813-3-2c0-0.553-0.448-1-1-1h-2c-0.552,0-1,0.447-1,1c-0.405,1.177-1.686,2-3,2
			C7.699,8,6.416,7.158,6,6c0-0.553-0.448-1-1-1H3C2.448,5,2,5.447,2,6v1c0,0.553,0.448,1,1,1c1.163,0.413,2,1.695,2,3
			c0,1.325-0.808,2.603-2,3c-0.552,0-1,0.447-1,1v2c0,0.553,0.448,1,1,1c1.177,0.405,2,1.686,2,3s-0.823,2.595-2,3
			c-0.552,0-1,0.447-1,1v2c0,0.859,1.187,1.122,1.123,1.053C4.253,28.49,5,29.715,5,31c0,1.318-0.818,2.598-2,3
			c-0.552,0-1,0.447-1,1v1c0,0.553,0.448,1,1,1h2c0.552,0,1-0.447,1-1c0.426-1.139,1.712-2,3-2c1.314,0,2.595,0.823,3,2
			c0,0.553,0.448,1,1,1h2c0.552,0,1-0.447,1-1c0.418-1.153,1.702-2,3-2c1.284,0,2.572,0.866,3,2c0,0.553,0.448,1,1,1h2
			c0.552,0,1-0.447,1-1c0.405-1.177,1.685-2,3-2c1.304,0,2.586,0.838,3,2c0,0.553,0.448,1,1,1h2c0.552,0,1-0.447,1-1
			c0.421-1.148,1.706-2,3-2c1.29,0,2.576,0.857,3,2c0,0.553,0.448,1,1,1h2c0.552,0,1-0.447,1-1v-1c0-0.553-0.448-1-1-1
			c-1.133-0.429-2-1.717-2-3c0-1.305,0.837-2.587,2-3c0.552,0,1-0.447,1-1v-2c0-0.553-0.448-1-1-1c-1.143-0.424-2-1.71-2-3
			c0-1.294,0.852-2.579,2-3c0.552,0,1-0.447,1-1v-2c0-0.553-0.448-1-1-1c-1.133-0.429-2-1.717-2-3C43,9.706,43.852,8.421,45,8z
			 M44,16c-2.23,0.281-3,3.801-3,5c0,1.137,0.77,4.563,3,5c-3.662,0.781-3.069,5.988-3,6c-3.187-0.522-6.719,0.801-7,3
			c-0.281-2.199-3.676-3-5-3c-1.32,0-4.64,0.805-5,3c-0.36-2.195-3.783-3-5-3c-1.23,0-4.719,0.832-5,3c-0.406-2.237-3.833-3.844-7-3
			c-0.459-2.287-0.859-5.656-3-6c2.167-0.375,3-3.863,3-5c0-1.199-0.739-4.719-3-5c2.266-0.281,3.572-2.494,3-6
			c3.13,0.589,6.607-0.738,7-3c0.416,2.261,3.684,3,5,3c1.324,0,4.656-0.801,5-3c0.313,2.23,3.708,3,5,3s4.656-0.77,5-3
			c0.344,2.216,3.656,3.61,7,3C40.406,13.166,41.765,15.688,44,16z"/>
	</g>
</g>
</svg>
