<?xml version="1.0" encoding="utf-8"?>
<!-- Generator: Adobe Illustrator 16.0.0, SVG Export Plug-In . SVG Version: 6.00 Build 0)  -->
<!DOCTYPE svg PUBLIC "-//W3C//DTD SVG 1.1//EN" "http://www.w3.org/Graphics/SVG/1.1/DTD/svg11.dtd">
<svg version="1.1" id="Layer_1" xmlns="http://www.w3.org/2000/svg" xmlns:xlink="http://www.w3.org/1999/xlink" x="0px" y="0px"
	 width="48px" height="48px" viewBox="0 0 48 48" enable-background="new 0 0 48 48" xml:space="preserve">
<g id="color_41_">
	<g>
		<path fill="#898CC5" d="M44,7H7C6.447,7,6,7.447,6,8v34c0,0.553,0.447,1,1,1h37c0.553,0,1-0.447,1-1V8C45,7.447,44.553,7,44,7z
			 M36,23h-4v13c0,0.553-0.447,1-1,1H21c-0.553,0-1-0.447-1-1V23h-4c-0.553,0-1-0.447-1-1c0-0.276,0.111-0.526,0.293-0.707l10-10
			C25.474,11.112,25.724,11,26,11c0.275,0,0.526,0.112,0.707,0.293l10,10C36.889,21.474,37,21.724,37,22C37,22.553,36.553,23,36,23z
			"/>
	</g>
</g>
<g id="outline_39_">
	<g>
		<path fill="#384D68" d="M14,20h4v14c0,0.553,0.447,1,1,1h10c0.553,0,1-0.447,1-1V20h4c0.553,0,1-0.447,1-1
			c0-0.276-0.111-0.526-0.293-0.707l-10-10C24.526,8.112,24.275,8,24,8c-0.276,0-0.526,0.112-0.707,0.293l-10,10
			C13.111,18.474,13,18.724,13,19C13,19.553,13.447,20,14,20z M24,10.414L31.586,18H28v15h-8V18h-3.586L24,10.414z M14,39h20
			c0.553,0,1-0.447,1-1s-0.447-1-1-1H14c-0.553,0-1,0.447-1,1S13.447,39,14,39z M45,4H3C2.447,4,2,4.447,2,5v38c0,0.553,0.447,1,1,1
			h42c0.553,0,1-0.447,1-1V5C46,4.447,45.553,4,45,4z M44,42H4V6h40V42z"/>
	</g>
</g>
</svg>
