<svg xmlns="http://www.w3.org/2000/svg" xmlns:xlink="http://www.w3.org/1999/xlink" preserveAspectRatio="xMidYMid" width="68" height="65" viewBox="0 0 68 65">
  <defs>
    <style>

      .cls-3 {
        fill: #edc951;
      }

      .cls-4 {
        fill: #53ecf4;
      }

      .cls-5 {
        fill: #000000;
      }
    </style>
  </defs>
  <g id="group-39svg">
    <path d="M67.319,34.419 C67.319,51.036 53.848,64.506 37.230,64.506 C20.612,64.506 7.141,51.036 7.141,34.419 C7.141,17.804 20.612,4.334 37.230,4.334 C53.848,4.334 67.319,17.804 67.319,34.419 Z" id="path-1" class="cls-3" fill-rule="evenodd"/>
    <path d="M27.051,34.328 C27.381,37.142 26.008,38.413 23.174,38.413 C20.340,38.413 19.113,37.134 19.506,34.328 C19.924,31.340 23.174,27.943 23.174,27.943 C23.174,27.943 26.719,31.497 27.051,34.328 Z" id="path-2" class="cls-4" fill-rule="evenodd"/>
    <path d="M45.404,52.232 C44.576,52.232 43.904,51.561 43.904,50.732 C43.904,45.991 40.122,42.277 35.293,42.277 C35.293,42.277 30.238,42.277 30.238,42.277 C25.409,42.277 21.627,45.923 21.627,50.578 C21.627,51.406 20.955,52.077 20.127,52.077 C19.299,52.077 18.627,51.406 18.627,50.578 C18.627,44.241 23.727,39.278 30.238,39.278 C30.238,39.278 35.293,39.278 35.293,39.278 C41.695,39.278 46.904,44.416 46.904,50.732 C46.904,51.561 46.232,52.232 45.404,52.232 Z" id="path-3" class="cls-5" fill-rule="evenodd"/>
    <path d="M24.679,21.382 C24.295,21.382 23.911,21.236 23.618,20.943 C22.787,20.112 21.627,19.622 20.435,19.597 C19.220,19.554 18.124,20.006 17.312,20.816 C16.727,21.402 15.777,21.402 15.191,20.816 C14.605,20.230 14.605,19.281 15.191,18.695 C16.586,17.301 18.445,16.557 20.497,16.598 C22.484,16.639 24.347,17.429 25.739,18.822 C26.325,19.408 26.325,20.358 25.739,20.943 C25.446,21.236 25.062,21.382 24.679,21.382 Z" id="path-4" class="cls-5" fill-rule="evenodd"/>
    <path d="M48.374,21.382 C47.990,21.382 47.606,21.236 47.313,20.943 C46.482,20.112 45.322,19.622 44.130,19.597 C42.948,19.554 41.818,20.006 41.008,20.816 C40.422,21.402 39.473,21.402 38.887,20.816 C38.301,20.230 38.301,19.281 38.887,18.695 C40.281,17.301 42.117,16.557 44.192,16.598 C46.180,16.639 48.042,17.429 49.435,18.822 C50.020,19.408 50.020,20.358 49.435,20.943 C49.142,21.236 48.758,21.382 48.374,21.382 Z" id="path-5" class="cls-5" fill-rule="evenodd"/>
    <path d="M17.532,37.092 C15.630,37.092 14.213,36.572 13.320,35.546 C12.442,34.537 12.126,33.108 12.379,31.299 C12.851,27.929 16.081,24.469 16.448,24.086 C16.728,23.794 17.113,23.627 17.517,23.623 C17.958,23.642 18.309,23.778 18.595,24.064 C18.995,24.465 22.517,28.079 22.898,31.332 C23.105,33.100 22.756,34.507 21.859,35.515 C20.928,36.562 19.472,37.092 17.532,37.092 ZM17.562,27.407 C16.637,28.607 15.547,30.306 15.350,31.715 C15.262,32.341 15.231,33.172 15.584,33.577 C15.873,33.910 16.565,34.093 17.532,34.093 C18.252,34.093 19.197,33.994 19.617,33.521 C19.995,33.097 19.989,32.287 19.918,31.682 C19.765,30.370 18.560,28.627 17.562,27.407 Z" id="path-6" class="cls-5" fill-rule="evenodd"/>
    <path d="M31.588,63.185 C14.170,63.185 -0.001,49.015 -0.001,31.599 C-0.001,14.183 14.170,0.013 31.588,0.013 C49.007,0.013 63.178,14.183 63.178,31.599 C63.178,49.015 49.007,63.185 31.588,63.185 ZM31.588,3.013 C15.824,3.013 2.999,15.837 2.999,31.599 C2.999,47.362 15.824,60.185 31.588,60.185 C47.352,60.185 60.178,47.362 60.178,31.599 C60.178,15.837 47.352,3.013 31.588,3.013 Z" id="path-7" class="cls-5" fill-rule="evenodd"/>
  </g>
</svg>
