<svg xmlns="http://www.w3.org/2000/svg" xmlns:xlink="http://www.w3.org/1999/xlink" preserveAspectRatio="xMidYMid" width="68" height="65" viewBox="0 0 68 65">
  <defs>
    <style>

      .cls-3 {
        fill: #edc951;
      }

      .cls-4 {
        fill: #8b71b5;
      }

      .cls-5 {
        fill: #000000;
      }
    </style>
  </defs>
  <g id="group-20svg">
    <path d="M67.326,34.414 C67.326,51.030 53.854,64.500 37.236,64.500 C20.618,64.500 7.146,51.030 7.146,34.414 C7.146,17.798 20.618,4.328 37.236,4.328 C53.854,4.328 67.326,17.798 67.326,34.414 Z" id="path-1" class="cls-3" fill-rule="evenodd"/>
    <path d="M23.855,40.101 C23.855,46.127 28.741,50.838 34.769,50.838 C34.769,50.838 40.225,50.838 40.225,50.838 C46.251,50.838 51.137,46.101 51.137,40.075 C51.137,40.075 23.855,40.101 23.855,40.101 Z" id="path-2" class="cls-4" fill-rule="evenodd"/>
    <path d="M17.287,27.832 C16.695,27.832 16.135,27.480 15.897,26.898 C15.584,26.131 15.952,25.256 16.720,24.943 C16.720,24.943 21.275,23.085 21.275,23.085 C21.275,23.085 16.672,20.522 16.672,20.522 C15.948,20.120 15.687,19.206 16.091,18.483 C16.494,17.758 17.408,17.497 18.131,17.902 C18.131,17.902 25.465,21.984 25.465,21.984 C25.969,22.264 26.268,22.809 26.232,23.384 C26.198,23.960 25.836,24.465 25.302,24.683 C25.302,24.683 17.852,27.721 17.852,27.721 C17.667,27.796 17.476,27.832 17.287,27.832 Z" id="path-3" class="cls-5" fill-rule="evenodd"/>
    <path d="M45.359,28.568 C45.128,28.568 44.893,28.515 44.674,28.402 C44.674,28.402 37.339,24.628 37.339,24.628 C36.848,24.375 36.534,23.872 36.525,23.319 C36.517,22.766 36.812,22.253 37.296,21.984 C37.296,21.984 44.631,17.902 44.631,17.902 C45.354,17.497 46.268,17.758 46.671,18.483 C47.074,19.206 46.813,20.120 46.090,20.522 C46.090,20.522 41.203,23.242 41.203,23.242 C41.203,23.242 46.047,25.734 46.047,25.734 C46.783,26.114 47.073,27.018 46.694,27.754 C46.428,28.272 45.903,28.568 45.359,28.568 Z" id="path-4" class="cls-5" fill-rule="evenodd"/>
    <path d="M34.583,48.838 C34.583,48.838 29.126,48.838 29.126,48.838 C22.166,48.838 16.714,43.612 16.714,36.941 C16.714,36.117 17.379,35.447 18.203,35.441 C18.203,35.441 45.484,35.246 45.484,35.246 C45.869,35.241 46.268,35.399 46.552,35.681 C46.836,35.963 46.995,36.346 46.995,36.746 C46.995,43.527 41.543,48.838 34.583,48.838 ZM19.834,38.429 C20.540,42.743 24.299,45.839 29.126,45.839 C29.126,45.839 34.583,45.839 34.583,45.839 C39.327,45.839 43.146,42.613 43.871,38.257 C43.871,38.257 19.834,38.429 19.834,38.429 Z" id="path-5" class="cls-5" fill-rule="evenodd"/>
    <path d="M31.595,63.179 C14.176,63.179 0.005,49.010 0.005,31.593 C0.005,14.177 14.176,0.008 31.595,0.008 C49.013,0.008 63.184,14.177 63.184,31.593 C63.184,49.010 49.013,63.179 31.595,63.179 ZM31.595,3.007 C15.830,3.007 3.005,15.831 3.005,31.593 C3.005,47.356 15.830,60.180 31.595,60.180 C47.358,60.180 60.184,47.356 60.184,31.593 C60.184,15.831 47.358,3.007 31.595,3.007 Z" id="path-6" class="cls-5" fill-rule="evenodd"/>
  </g>
</svg>
