<svg xmlns="http://www.w3.org/2000/svg" xmlns:xlink="http://www.w3.org/1999/xlink" preserveAspectRatio="xMidYMid" width="68" height="65" viewBox="0 0 68 65">
  <defs>
    <style>

      .cls-3 {
        fill: #edc951;
      }

      .cls-4 {
        fill: #53ecf4;
      }

      .cls-6 {
        fill: #8b71b5;
      }

      .cls-7 {
        fill: #000000;
      }
    </style>
  </defs>
  <g id="group-37svg">
    <path d="M67.313,34.419 C67.313,51.036 53.842,64.506 37.224,64.506 C20.605,64.506 7.135,51.036 7.135,34.419 C7.135,17.804 20.605,4.334 37.224,4.334 C53.842,4.334 67.313,17.804 67.313,34.419 Z" id="path-1" class="cls-3" fill-rule="evenodd"/>
    <path d="M23.951,31.813 C23.523,34.451 21.949,35.250 19.379,34.518 C16.809,33.786 16.026,32.309 17.107,29.865 C18.259,27.263 22.083,25.021 22.083,25.021 C22.083,25.021 24.381,29.160 23.951,31.813 Z" id="path-2" class="cls-4" fill-rule="evenodd"/>
    <path d="M52.797,31.813 C53.224,34.451 54.798,35.250 57.368,34.518 C59.938,33.786 60.721,32.309 59.640,29.865 C58.489,27.263 54.664,25.021 54.664,25.021 C54.664,25.021 52.366,29.160 52.797,31.813 Z" id="path-3" class="cls-4" fill-rule="evenodd"/>
    <path d="M53.637,42.277 C53.637,49.276 48.163,54.276 41.411,54.276 C41.411,54.276 35.298,54.276 35.298,54.276 C28.546,54.276 23.072,49.276 23.072,42.277 C23.072,42.277 53.637,42.277 53.637,42.277 Z" id="path-4" class="cls-6" fill-rule="evenodd"/>
    <path d="M14.434,33.456 C13.810,33.456 13.122,33.350 12.386,33.140 C10.636,32.642 9.467,31.788 8.911,30.603 C8.365,29.438 8.446,28.037 9.153,26.438 C10.463,23.479 14.309,21.161 14.742,20.907 C15.092,20.703 15.507,20.648 15.896,20.754 C16.286,20.860 16.616,21.120 16.812,21.473 C17.073,21.943 19.349,26.155 18.850,29.232 C18.254,32.907 15.827,33.456 14.434,33.456 ZM14.902,24.413 C13.778,25.254 12.420,26.470 11.897,27.652 C11.566,28.399 11.471,28.996 11.628,29.330 C11.793,29.684 12.354,30.012 13.208,30.255 C13.677,30.389 14.089,30.456 14.434,30.456 C14.931,30.456 15.612,30.456 15.889,28.753 C16.080,27.570 15.477,25.757 14.902,24.413 Z" id="path-5" class="cls-7" fill-rule="evenodd"/>
    <path d="M49.150,33.456 C49.150,33.456 49.150,33.456 49.150,33.456 C47.756,33.456 45.328,32.907 44.734,29.232 C44.234,26.155 46.510,21.943 46.770,21.473 C46.967,21.120 47.297,20.860 47.686,20.754 C48.075,20.648 48.491,20.703 48.841,20.907 C49.274,21.161 53.121,23.479 54.430,26.438 C55.137,28.037 55.218,29.438 54.672,30.603 C54.116,31.788 52.947,32.642 51.197,33.140 C50.461,33.350 49.772,33.456 49.150,33.456 ZM48.680,24.409 C48.063,25.854 47.515,27.638 47.695,28.753 C47.971,30.456 48.652,30.456 49.150,30.456 C49.494,30.456 49.907,30.389 50.375,30.255 C51.228,30.012 51.790,29.684 51.955,29.330 C52.112,28.996 52.017,28.399 51.686,27.652 C51.160,26.462 49.802,25.247 48.680,24.409 Z" id="path-6" class="cls-7" fill-rule="evenodd"/>
    <path d="M24.673,21.382 C24.289,21.382 23.905,21.236 23.612,20.943 C22.781,20.112 21.621,19.622 20.428,19.597 C19.246,19.562 18.118,20.006 17.307,20.816 C16.721,21.402 15.771,21.402 15.185,20.816 C14.600,20.231 14.600,19.281 15.185,18.695 C16.579,17.301 18.421,16.557 20.490,16.598 C22.478,16.639 24.340,17.429 25.733,18.822 C26.319,19.407 26.319,20.357 25.733,20.943 C25.440,21.236 25.057,21.382 24.673,21.382 Z" id="path-7" class="cls-7" fill-rule="evenodd"/>
    <path d="M48.368,21.382 C47.984,21.382 47.601,21.236 47.308,20.943 C46.477,20.112 45.316,19.622 44.124,19.597 C42.930,19.574 41.814,20.005 41.002,20.816 C40.416,21.402 39.467,21.402 38.881,20.816 C38.295,20.231 38.295,19.281 38.881,18.695 C40.274,17.301 42.167,16.557 44.185,16.598 C46.174,16.639 48.036,17.429 49.429,18.822 C50.015,19.408 50.015,20.358 49.429,20.943 C49.136,21.236 48.752,21.382 48.368,21.382 Z" id="path-8" class="cls-7" fill-rule="evenodd"/>
    <path d="M31.582,63.185 C14.163,63.185 -0.008,49.015 -0.008,31.599 C-0.008,14.183 14.163,0.013 31.582,0.013 C49.001,0.013 63.172,14.183 63.172,31.599 C63.172,49.015 49.001,63.185 31.582,63.185 ZM31.582,3.013 C15.817,3.013 2.992,15.837 2.992,31.599 C2.992,47.362 15.817,60.185 31.582,60.185 C47.347,60.185 60.172,47.362 60.172,31.599 C60.172,15.837 47.347,3.013 31.582,3.013 Z" id="path-9" class="cls-7" fill-rule="evenodd"/>
    <path d="M34.829,52.276 C34.829,52.276 28.716,52.276 28.716,52.276 C21.147,52.276 14.990,46.669 14.990,39.778 C14.990,38.949 15.662,38.278 16.490,38.278 C16.490,38.278 47.055,38.278 47.055,38.278 C47.883,38.278 48.555,38.949 48.555,39.778 C48.555,46.669 42.397,52.276 34.829,52.276 ZM18.124,41.277 C18.938,45.805 23.378,49.276 28.716,49.276 C28.716,49.276 34.829,49.276 34.829,49.276 C40.167,49.276 44.606,45.805 45.421,41.277 C45.421,41.277 18.124,41.277 18.124,41.277 Z" id="path-10" class="cls-7" fill-rule="evenodd"/>
  </g>
</svg>
