<svg xmlns="http://www.w3.org/2000/svg" xmlns:xlink="http://www.w3.org/1999/xlink" preserveAspectRatio="xMidYMid" width="65" height="65" viewBox="0 0 65 65">
  <defs>
    <style>

      .cls-3 {
        fill: #edc951;
      }

      .cls-4 {
        fill: #000000;
      }
    </style>
  </defs>
  <g id="group-11svg">
    <path d="M64.497,34.846 C64.497,51.217 51.223,64.489 34.850,64.489 C18.477,64.489 5.202,51.217 5.202,34.846 C5.202,18.474 18.477,5.202 34.850,5.202 C51.223,5.202 64.497,18.474 64.497,34.846 Z" id="path-1" class="cls-3" fill-rule="evenodd"/>
    <path d="M44.948,25.782 C44.948,27.757 43.347,29.358 41.371,29.358 C39.396,29.358 37.795,27.757 37.795,25.782 C37.795,23.807 39.396,22.206 41.371,22.206 C43.347,22.206 44.948,23.807 44.948,25.782 Z" id="path-2" class="cls-4" fill-rule="evenodd"/>
    <path d="M33.870,49.760 C33.870,49.760 28.902,49.760 28.902,49.760 C22.597,49.760 17.467,44.667 17.467,38.406 C17.467,37.578 18.139,36.906 18.967,36.906 C19.795,36.906 20.467,37.578 20.467,38.406 C20.467,43.013 24.251,46.760 28.902,46.760 C28.902,46.760 33.870,46.760 33.870,46.760 C38.601,46.760 42.306,43.126 42.306,38.486 C42.306,37.658 42.978,36.987 43.806,36.987 C44.634,36.987 45.306,37.658 45.306,38.486 C45.306,44.808 40.282,49.760 33.870,49.760 Z" id="path-3" class="cls-4" fill-rule="evenodd"/>
    <path d="M22.875,26.763 C22.875,26.763 16.875,26.763 16.875,26.763 C16.047,26.763 15.375,26.091 15.375,25.263 C15.375,24.434 16.047,23.763 16.875,23.763 C16.875,23.763 22.875,23.763 22.875,23.763 C23.703,23.763 24.375,24.434 24.375,25.263 C24.375,26.091 23.703,26.763 22.875,26.763 Z" id="path-4" class="cls-4" fill-rule="evenodd"/>
    <path d="M31.144,62.283 C13.970,62.283 -0.003,48.312 -0.003,31.140 C-0.003,13.968 13.970,-0.003 31.144,-0.003 C48.318,-0.003 62.291,13.968 62.291,31.140 C62.291,48.312 48.318,62.283 31.144,62.283 ZM31.144,2.997 C15.623,2.997 2.997,15.621 2.997,31.140 C2.997,46.659 15.623,59.284 31.144,59.284 C46.664,59.284 59.291,46.659 59.291,31.140 C59.291,15.621 46.664,2.997 31.144,2.997 Z" id="path-5" class="cls-4" fill-rule="evenodd"/>
  </g>
</svg>
