<svg xmlns="http://www.w3.org/2000/svg" xmlns:xlink="http://www.w3.org/1999/xlink" preserveAspectRatio="xMidYMid" width="62" height="64" viewBox="0 0 62 64">
  <defs>
    <style>

      .cls-3 {
        fill: #edc951;
      }

      .cls-4 {
        fill: #8b71b5;
      }

      .cls-5 {
        fill: #e56a77;
      }

      .cls-6 {
        fill: #ffffff;
      }

      .cls-8 {
        fill: #000000;
      }
    </style>
  </defs>
  <g id="group-26svg">
    <path d="M62.110,31.791 C62.110,47.090 49.707,59.492 34.406,59.492 C19.106,59.492 6.702,47.090 6.702,31.791 C6.702,16.493 19.106,4.091 34.406,4.091 C49.707,4.091 62.110,16.493 62.110,31.791 Z" id="path-1" class="cls-3" fill-rule="evenodd"/>
    <path d="M30.291,53.477 C24.699,53.477 21.988,48.917 21.988,42.917 C21.988,42.917 47.303,42.917 47.303,42.917 C47.303,48.917 44.592,53.209 38.999,53.209 C38.999,53.209 38.999,53.209 38.999,53.209 " id="path-2" class="cls-4" fill-rule="evenodd"/>
    <path d="M37.187,42.917 C37.187,42.917 37.187,59.936 37.187,59.936 C37.187,62.201 36.834,63.915 34.570,63.915 C34.570,63.915 34.607,63.915 34.607,63.915 C32.343,63.915 29.187,62.201 29.187,59.936 C29.187,59.936 29.187,42.917 29.187,42.917 C29.187,42.917 29.187,42.917 29.187,42.917 " id="path-3" class="cls-5" fill-rule="evenodd"/>
    <path d="M50.985,26.987 C50.985,30.129 48.438,32.677 45.295,32.677 C42.153,32.677 39.605,30.129 39.605,26.987 C39.605,23.845 42.153,21.298 45.295,21.298 C48.438,21.298 50.985,23.845 50.985,26.987 Z" id="path-4" class="cls-6" fill-rule="evenodd"/>
    <path d="M29.467,26.987 C29.467,30.129 26.919,32.677 23.777,32.677 C20.635,32.677 18.087,30.129 18.087,26.987 C18.087,23.845 20.635,21.298 23.777,21.298 C26.919,21.298 29.467,23.845 29.467,26.987 Z" id="path-5" class="cls-6" fill-rule="evenodd"/>
    <path d="M25.097,52.429 C19.050,52.429 15.294,47.826 15.294,40.418 C15.294,39.589 15.965,38.918 16.794,38.918 C16.794,38.918 42.108,38.918 42.108,38.918 C42.937,38.918 43.608,39.589 43.608,40.418 C43.608,47.676 39.852,52.185 33.805,52.185 C32.977,52.185 32.305,51.514 32.305,50.685 C32.305,49.857 32.977,49.185 33.805,49.185 C38.888,49.185 40.258,45.135 40.543,41.918 C40.543,41.918 18.361,41.918 18.361,41.918 C18.636,44.947 19.919,49.429 25.097,49.429 C25.926,49.429 26.597,50.100 26.597,50.929 C26.597,51.757 25.926,52.429 25.097,52.429 Z" id="path-6" class="cls-8" fill-rule="evenodd"/>
    <path d="M29.413,62.915 C29.400,62.915 29.388,62.915 29.375,62.915 C29.361,62.915 29.348,62.915 29.334,62.915 C26.410,62.874 23.187,60.596 23.187,57.339 C23.187,57.339 23.187,40.918 23.187,40.918 C23.187,40.089 23.859,39.418 24.687,39.418 C25.516,39.418 26.187,40.089 26.187,40.918 C26.187,40.918 26.187,57.339 26.187,57.339 C26.187,58.720 27.945,59.905 29.394,59.915 C30.875,59.904 31.187,58.509 31.187,57.339 C31.187,57.339 31.187,40.918 31.187,40.918 C31.187,40.089 31.859,39.418 32.687,39.418 C33.516,39.418 34.187,40.089 34.187,40.918 C34.187,40.918 34.187,57.339 34.187,57.339 C34.187,60.696 32.332,62.915 29.453,62.915 C29.440,62.915 29.426,62.915 29.413,62.915 Z" id="path-7" class="cls-8" fill-rule="evenodd"/>
    <path d="M27.687,56.416 C26.859,56.416 26.187,55.745 26.187,54.916 C26.187,54.916 26.187,45.917 26.187,45.917 C26.187,45.089 26.859,44.417 27.687,44.417 C28.516,44.417 29.187,45.089 29.187,45.917 C29.187,45.917 29.187,54.916 29.187,54.916 C29.187,55.745 28.516,56.416 27.687,56.416 Z" id="path-8" class="cls-8" fill-rule="evenodd"/>
    <path d="M24.962,58.071 C24.886,58.071 24.810,58.066 24.732,58.053 C10.637,55.883 0.008,43.476 0.008,29.194 C0.008,13.093 13.109,-0.006 29.212,-0.006 C45.315,-0.006 58.416,13.093 58.416,29.194 C58.416,43.325 48.339,55.408 34.456,57.925 C33.641,58.068 32.859,57.532 32.712,56.717 C32.564,55.902 33.105,55.122 33.920,54.974 C46.376,52.715 55.416,41.873 55.416,29.194 C55.416,14.747 43.661,2.994 29.212,2.994 C14.763,2.994 3.008,14.747 3.008,29.194 C3.008,42.009 12.543,53.141 25.189,55.089 C26.008,55.215 26.569,55.981 26.443,56.800 C26.329,57.541 25.690,58.071 24.962,58.071 Z" id="path-9" class="cls-8" fill-rule="evenodd"/>
    <path d="M40.101,31.579 C36.137,31.579 32.911,28.354 32.911,24.390 C32.911,20.426 36.137,17.201 40.101,17.201 C44.065,17.201 47.291,20.426 47.291,24.390 C47.291,28.354 44.065,31.579 40.101,31.579 ZM40.101,20.200 C37.791,20.200 35.911,22.080 35.911,24.390 C35.911,26.700 37.791,28.579 40.101,28.579 C42.412,28.579 44.291,26.700 44.291,24.390 C44.291,22.080 42.412,20.200 40.101,20.200 Z" id="path-10" class="cls-8" fill-rule="evenodd"/>
    <path d="M18.583,31.579 C14.618,31.579 11.393,28.354 11.393,24.390 C11.393,20.426 14.618,17.201 18.583,17.201 C22.547,17.201 25.772,20.426 25.772,24.390 C25.772,28.354 22.547,31.579 18.583,31.579 ZM18.583,20.200 C16.272,20.200 14.393,22.080 14.393,24.390 C14.393,26.700 16.272,28.579 18.583,28.579 C20.893,28.579 22.772,26.700 22.772,24.390 C22.772,22.080 20.893,20.200 18.583,20.200 Z" id="path-11" class="cls-8" fill-rule="evenodd"/>
    <path d="M42.638,24.047 C42.638,25.637 41.349,26.926 39.758,26.926 C38.168,26.926 36.879,25.637 36.879,24.047 C36.879,22.457 38.168,21.168 39.758,21.168 C41.349,21.168 42.638,22.457 42.638,24.047 Z" id="path-12" class="cls-8" fill-rule="evenodd"/>
    <path d="M21.119,24.047 C21.119,25.637 19.830,26.926 18.240,26.926 C16.649,26.926 15.360,25.637 15.360,24.047 C15.360,22.457 16.649,21.168 18.240,21.168 C19.830,21.168 21.119,22.457 21.119,24.047 Z" id="path-13" class="cls-8" fill-rule="evenodd"/>
  </g>
</svg>
