<svg xmlns="http://www.w3.org/2000/svg" xmlns:xlink="http://www.w3.org/1999/xlink" preserveAspectRatio="xMidYMid" width="61" height="65" viewBox="0 0 61 65">
  <defs>
    <style>

      .cls-3 {
        fill: #edc951;
      }

      .cls-4 {
        fill: #8b71b5;
      }

      .cls-5 {
        fill: #e56a77;
      }

      .cls-6 {
        fill: #ffffff;
      }

      .cls-8 {
        fill: #000000;
      }
    </style>
  </defs>
  <g id="group-18svg">
    <path d="M60.376,31.800 C60.376,47.099 47.973,59.501 32.672,59.501 C17.371,59.501 4.968,47.099 4.968,31.800 C4.968,16.502 17.371,4.100 32.672,4.100 C47.973,4.100 60.376,16.502 60.376,31.800 Z" id="path-1" class="cls-3" fill-rule="evenodd"/>
    <path d="M28.557,53.911 C22.965,53.911 20.254,49.776 20.254,43.776 C20.254,43.776 45.568,43.776 45.568,43.776 C45.568,49.776 42.857,53.855 37.266,53.855 C37.266,53.855 37.266,53.855 37.266,53.855 " id="path-2" class="cls-4" fill-rule="evenodd"/>
    <path d="M36.219,43.776 C36.219,43.776 36.219,59.945 36.219,59.945 C36.219,62.210 35.100,64.774 32.835,64.774 C32.835,64.774 32.873,64.774 32.873,64.774 C30.608,64.774 28.219,62.210 28.219,59.945 C28.219,59.945 28.219,43.776 28.219,43.776 C28.219,43.776 28.219,43.776 28.219,43.776 " id="path-3" class="cls-5" fill-rule="evenodd"/>
    <path d="M48.449,28.584 C48.449,31.311 46.239,33.520 43.513,33.520 C40.786,33.520 38.576,31.311 38.576,28.584 C38.576,25.859 40.786,23.649 43.513,23.649 C46.239,23.649 48.449,25.859 48.449,28.584 Z" id="path-4" class="cls-6" fill-rule="evenodd"/>
    <path d="M28.309,28.584 C28.309,31.311 26.099,33.520 23.373,33.520 C20.646,33.520 18.437,31.311 18.437,28.584 C18.437,25.859 20.646,23.649 23.373,23.649 C26.099,23.649 28.309,25.859 28.309,28.584 Z" id="path-5" class="cls-6" fill-rule="evenodd"/>
    <path d="M40.050,32.423 C36.501,32.423 33.613,29.536 33.613,25.988 C33.613,22.439 36.501,19.552 40.050,19.552 C43.599,19.552 46.486,22.439 46.486,25.988 C46.486,29.536 43.599,32.423 40.050,32.423 ZM40.050,22.552 C38.155,22.552 36.613,24.093 36.613,25.988 C36.613,27.882 38.155,29.424 40.050,29.424 C41.944,29.424 43.486,27.882 43.486,25.988 C43.486,24.093 41.944,22.552 40.050,22.552 Z" id="path-6" class="cls-8" fill-rule="evenodd"/>
    <path d="M19.910,32.423 C16.361,32.423 13.474,29.536 13.474,25.988 C13.474,22.439 16.361,19.552 19.910,19.552 C23.459,19.552 26.346,22.439 26.346,25.988 C26.346,29.536 23.459,32.423 19.910,32.423 ZM19.910,22.552 C18.016,22.552 16.474,24.093 16.474,25.988 C16.474,27.882 18.016,29.424 19.910,29.424 C21.805,29.424 23.346,27.882 23.346,25.988 C23.346,24.093 21.805,22.552 19.910,22.552 Z" id="path-7" class="cls-8" fill-rule="evenodd"/>
    <path d="M42.404,24.697 C42.404,26.710 40.771,28.342 38.759,28.342 C36.745,28.342 35.113,26.710 35.113,24.697 C35.113,22.684 36.745,21.052 38.759,21.052 C40.771,21.052 42.404,22.684 42.404,24.697 Z" id="path-8" class="cls-8" fill-rule="evenodd"/>
    <path d="M22.264,24.697 C22.264,26.710 20.632,28.342 18.619,28.342 C16.605,28.342 14.974,26.710 14.974,24.697 C14.974,22.684 16.605,21.052 18.619,21.052 C20.632,21.052 22.264,22.684 22.264,24.697 Z" id="path-9" class="cls-8" fill-rule="evenodd"/>
    <path d="M25.094,52.863 C18.956,52.863 15.291,48.532 15.291,41.277 C15.291,40.448 15.963,39.777 16.791,39.777 C16.791,39.777 42.105,39.777 42.105,39.777 C42.934,39.777 43.605,40.448 43.605,41.277 C43.605,48.512 39.940,52.831 33.802,52.831 C32.974,52.831 32.302,52.160 32.302,51.331 C32.302,50.503 32.974,49.831 33.802,49.831 C38.717,49.831 40.237,46.278 40.543,42.777 C40.543,42.777 18.358,42.777 18.358,42.777 C18.650,45.923 20.028,49.863 25.094,49.863 C25.922,49.863 26.594,50.534 26.594,51.363 C26.594,52.191 25.922,52.863 25.094,52.863 Z" id="path-10" class="cls-8" fill-rule="evenodd"/>
    <path d="M29.410,63.774 C29.396,63.774 29.384,63.774 29.372,63.774 C29.354,63.774 29.338,63.774 29.320,63.773 C26.167,63.712 24.219,60.410 24.219,57.349 C24.219,57.349 24.219,41.777 24.219,41.777 C24.219,40.948 24.891,40.277 25.719,40.277 C26.547,40.277 27.219,40.948 27.219,41.777 C27.219,41.777 27.219,57.349 27.219,57.349 C27.219,58.925 28.166,60.756 29.392,60.774 C30.691,60.756 32.219,58.909 32.219,57.349 C32.219,57.349 32.219,41.777 32.219,41.777 C32.219,40.948 32.891,40.277 33.719,40.277 C34.547,40.277 35.219,40.948 35.219,41.777 C35.219,41.777 35.219,57.349 35.219,57.349 C35.219,60.232 32.660,63.774 29.464,63.774 C29.446,63.774 29.428,63.774 29.410,63.774 Z" id="path-11" class="cls-8" fill-rule="evenodd"/>
    <path d="M28.719,57.275 C27.891,57.275 27.219,56.604 27.219,55.775 C27.219,55.775 27.219,46.776 27.219,46.776 C27.219,45.948 27.891,45.276 28.719,45.276 C29.547,45.276 30.219,45.948 30.219,46.776 C30.219,46.776 30.219,55.775 30.219,55.775 C30.219,56.604 29.547,57.275 28.719,57.275 Z" id="path-12" class="cls-8" fill-rule="evenodd"/>
    <path d="M24.960,58.080 C24.884,58.080 24.807,58.075 24.729,58.062 C10.634,55.892 0.005,43.486 0.005,29.204 C0.005,13.102 13.105,0.003 29.209,0.003 C45.312,0.003 58.413,13.102 58.413,29.204 C58.413,43.334 48.336,55.417 34.452,57.934 C33.633,58.077 32.855,57.541 32.709,56.726 C32.561,55.911 33.102,55.131 33.917,54.983 C46.373,52.724 55.413,41.882 55.413,29.204 C55.413,14.756 43.658,3.003 29.209,3.003 C14.760,3.003 3.005,14.756 3.005,29.204 C3.005,42.018 12.541,53.151 25.186,55.098 C26.005,55.224 26.566,55.990 26.440,56.809 C26.326,57.550 25.687,58.080 24.960,58.080 Z" id="path-13" class="cls-8" fill-rule="evenodd"/>
  </g>
</svg>
