<svg xmlns="http://www.w3.org/2000/svg" xmlns:xlink="http://www.w3.org/1999/xlink" preserveAspectRatio="xMidYMid" width="66" height="65" viewBox="0 0 66 65">
  <defs>
    <style>

      .cls-3 {
        fill: #edc951;
      }

      .cls-4 {
        fill: #53ecf4;
      }

      .cls-5 {
        fill: #000000;
      }
    </style>
  </defs>
  <g id="group-29svg">
    <path d="M65.429,34.847 C65.429,51.219 52.155,64.491 35.781,64.491 C19.408,64.491 6.135,51.219 6.135,34.847 C6.135,18.476 19.408,5.204 35.781,5.204 C52.155,5.204 65.429,18.476 65.429,34.847 Z" id="path-1" class="cls-3" fill-rule="evenodd"/>
    <path d="M26.019,14.410 C26.499,18.508 24.500,20.360 20.373,20.360 C16.246,20.360 14.460,18.497 15.031,14.410 C15.641,10.059 20.373,5.112 20.373,5.112 C20.373,5.112 25.535,10.287 26.019,14.410 Z" id="path-2" class="cls-4" fill-rule="evenodd"/>
    <path d="M44.762,50.733 C43.934,50.733 43.262,50.062 43.262,49.234 C43.262,44.606 39.545,40.980 34.800,40.980 C34.800,40.980 29.818,40.980 29.818,40.980 C24.994,40.980 21.356,44.439 21.356,49.026 C21.356,49.855 20.685,50.526 19.856,50.526 C19.028,50.526 18.356,49.855 18.356,49.026 C18.356,42.832 23.392,37.981 29.818,37.981 C29.818,37.981 34.800,37.981 34.800,37.981 C41.227,37.981 46.262,42.923 46.262,49.234 C46.262,50.062 45.590,50.733 44.762,50.733 Z" id="path-3" class="cls-5" fill-rule="evenodd"/>
    <path d="M15.740,19.080 C13.141,19.080 11.304,18.420 10.123,17.063 C8.980,15.750 8.574,13.852 8.914,11.423 C9.582,6.647 14.449,1.512 14.656,1.296 C14.936,1.005 15.320,0.838 15.725,0.833 C16.130,0.837 16.518,0.988 16.803,1.274 C17.368,1.841 22.347,6.947 22.877,11.456 C23.154,13.827 22.702,15.696 21.531,17.012 C20.309,18.385 18.361,19.080 15.740,19.080 ZM15.771,4.580 C14.434,6.211 12.252,9.214 11.885,11.839 C11.671,13.370 11.839,14.465 12.387,15.095 C12.956,15.749 14.084,16.081 15.740,16.081 C17.468,16.081 18.662,15.723 19.290,15.018 C19.866,14.370 20.071,13.289 19.896,11.806 C19.623,9.474 17.368,6.423 15.771,4.580 Z" id="path-4" class="cls-5" fill-rule="evenodd"/>
    <path d="M31.149,62.285 C13.975,62.285 0.002,48.314 0.002,31.142 C0.002,22.596 3.395,14.626 9.555,8.698 C10.151,8.124 11.100,8.142 11.676,8.739 C12.250,9.336 12.231,10.286 11.635,10.860 C6.067,16.217 3.002,23.419 3.002,31.142 C3.002,46.661 15.629,59.286 31.149,59.286 C46.670,59.286 59.296,46.661 59.296,31.142 C59.296,15.623 46.670,2.998 31.149,2.998 C26.906,2.998 22.829,3.918 19.030,5.733 C18.284,6.089 17.388,5.773 17.030,5.026 C16.673,4.279 16.989,3.384 17.737,3.026 C21.942,1.017 26.455,-0.001 31.149,-0.001 C48.323,-0.001 62.296,13.970 62.296,31.142 C62.296,48.314 48.323,62.285 31.149,62.285 Z" id="path-5" class="cls-5" fill-rule="evenodd"/>
    <path d="M24.373,28.367 C23.989,28.367 23.605,28.221 23.312,27.928 C21.890,26.506 19.540,26.458 18.177,27.819 C17.591,28.405 16.642,28.405 16.056,27.819 C15.470,27.233 15.470,26.283 16.056,25.698 C18.566,23.185 22.862,23.235 25.434,25.807 C26.020,26.392 26.020,27.342 25.434,27.928 C25.141,28.221 24.757,28.367 24.373,28.367 Z" id="path-6" class="cls-5" fill-rule="evenodd"/>
    <path d="M44.777,28.367 C44.394,28.367 44.010,28.221 43.717,27.928 C42.294,26.506 39.943,26.458 38.581,27.819 C37.995,28.405 37.046,28.405 36.460,27.819 C35.874,27.233 35.874,26.283 36.460,25.698 C38.972,23.185 43.266,23.235 45.838,25.807 C46.424,26.392 46.424,27.342 45.838,27.928 C45.545,28.221 45.161,28.367 44.777,28.367 Z" id="path-7" class="cls-5" fill-rule="evenodd"/>
  </g>
</svg>
