<svg xmlns="http://www.w3.org/2000/svg" xmlns:xlink="http://www.w3.org/1999/xlink" preserveAspectRatio="xMidYMid" width="65" height="65" viewBox="0 0 65 65">
  <defs>
    <style>

      .cls-3 {
        fill: #edc951;
      }

      .cls-4 {
        fill: #8b71b5;
      }

      .cls-5 {
        fill: #000000;
      }
    </style>
  </defs>
  <g id="group-5svg">
    <path d="M64.490,34.846 C64.490,51.217 51.216,64.489 34.843,64.489 C18.469,64.489 5.196,51.217 5.196,34.846 C5.196,18.474 18.469,5.202 34.843,5.202 C51.216,5.202 64.490,18.474 64.490,34.846 Z" id="path-1" class="cls-3" fill-rule="evenodd"/>
    <path d="M50.088,41.761 C50.088,48.760 44.695,52.760 38.042,52.760 C38.042,52.760 32.019,52.760 32.019,52.760 C25.366,52.760 19.973,48.760 19.973,41.761 C19.973,41.761 50.088,41.761 50.088,41.761 Z" id="path-2" class="cls-4" fill-rule="evenodd"/>
    <path d="M34.336,51.760 C34.336,51.760 28.313,51.760 28.313,51.760 C20.844,51.760 14.767,46.153 14.767,39.261 C14.767,38.433 15.438,37.761 16.267,37.761 C16.267,37.761 46.382,37.761 46.382,37.761 C47.211,37.761 47.882,38.433 47.882,39.261 C47.882,46.153 41.806,51.760 34.336,51.760 ZM17.898,40.761 C18.699,45.289 23.064,48.760 28.313,48.760 C28.313,48.760 34.336,48.760 34.336,48.760 C39.585,48.760 43.950,45.289 44.751,40.761 C44.751,40.761 17.898,40.761 17.898,40.761 Z" id="path-3" class="cls-5" fill-rule="evenodd"/>
    <path d="M44.988,22.977 C44.988,24.958 43.382,26.563 41.401,26.563 C39.421,26.563 37.815,24.958 37.815,22.977 C37.815,20.997 39.421,19.392 41.401,19.392 C43.382,19.392 44.988,20.997 44.988,22.977 Z" id="path-4" class="cls-5" fill-rule="evenodd"/>
    <path d="M24.366,22.977 C24.366,24.958 22.761,26.563 20.780,26.563 C18.799,26.563 17.193,24.958 17.193,22.977 C17.193,20.997 18.799,19.392 20.780,19.392 C22.761,19.392 24.366,20.997 24.366,22.977 Z" id="path-5" class="cls-5" fill-rule="evenodd"/>
    <path d="M31.137,62.283 C13.962,62.283 -0.010,48.312 -0.010,31.140 C-0.010,13.968 13.962,-0.003 31.137,-0.003 C48.312,-0.003 62.284,13.968 62.284,31.140 C62.284,48.312 48.312,62.283 31.137,62.283 ZM31.137,2.997 C15.616,2.997 2.990,15.621 2.990,31.140 C2.990,46.659 15.616,59.284 31.137,59.284 C46.657,59.284 59.284,46.659 59.284,31.140 C59.284,15.621 46.657,2.997 31.137,2.997 Z" id="path-6" class="cls-5" fill-rule="evenodd"/>
    <path d="M43.375,45.760 C43.375,45.760 17.375,45.760 17.375,45.760 C16.546,45.760 15.875,45.089 15.875,44.261 C15.875,43.432 16.546,42.761 17.375,42.761 C17.375,42.761 43.375,42.761 43.375,42.761 C44.204,42.761 44.875,43.432 44.875,44.261 C44.875,45.089 44.204,45.760 43.375,45.760 Z" id="path-7" class="cls-5" fill-rule="evenodd"/>
    <path d="M35.875,45.260 C35.046,45.260 34.375,44.589 34.375,43.761 C34.375,43.761 34.375,39.761 34.375,39.761 C34.375,38.933 35.046,38.261 35.875,38.261 C36.704,38.261 37.375,38.933 37.375,39.761 C37.375,39.761 37.375,43.761 37.375,43.761 C37.375,44.589 36.704,45.260 35.875,45.260 Z" id="path-8" class="cls-5" fill-rule="evenodd"/>
    <path d="M25.875,45.260 C25.046,45.260 24.375,44.589 24.375,43.761 C24.375,43.761 24.375,39.761 24.375,39.761 C24.375,38.933 25.046,38.261 25.875,38.261 C26.704,38.261 27.375,38.933 27.375,39.761 C27.375,39.761 27.375,43.761 27.375,43.761 C27.375,44.589 26.704,45.260 25.875,45.260 Z" id="path-9" class="cls-5" fill-rule="evenodd"/>
  </g>
</svg>
