<svg xmlns="http://www.w3.org/2000/svg" xmlns:xlink="http://www.w3.org/1999/xlink" preserveAspectRatio="xMidYMid" width="68" height="65" viewBox="0 0 68 65">
  <defs>
    <style>

      .cls-3 {
        fill: #edc951;
      }

      .cls-4 {
        fill: #8b71b5;
      }

      .cls-5 {
        fill: #ffffff;
      }

      .cls-7 {
        fill: #000000;
      }
    </style>
  </defs>
  <g id="group-17svg">
    <path d="M67.313,34.419 C67.313,51.035 53.842,64.505 37.224,64.505 C20.605,64.505 7.135,51.035 7.135,34.419 C7.135,17.803 20.605,4.333 37.224,4.333 C53.842,4.333 67.313,17.803 67.313,34.419 Z" id="path-1" class="cls-3" fill-rule="evenodd"/>
    <path d="M51.757,43.277 C51.757,50.276 46.283,55.275 39.530,55.275 C39.530,55.275 33.418,55.275 33.418,55.275 C26.665,55.275 21.191,50.276 21.191,43.277 C21.191,43.277 51.757,43.277 51.757,43.277 Z" id="path-2" class="cls-4" fill-rule="evenodd"/>
    <path d="M53.419,29.046 C53.419,32.006 51.019,34.407 48.058,34.407 C45.097,34.407 42.696,32.006 42.696,29.046 C42.696,26.085 45.097,23.685 48.058,23.685 C51.019,23.685 53.419,26.085 53.419,29.046 Z" id="path-3" class="cls-5" fill-rule="evenodd"/>
    <path d="M31.545,29.046 C31.545,32.006 29.145,34.407 26.184,34.407 C23.223,34.407 20.822,32.006 20.822,29.046 C20.822,26.085 23.223,23.685 26.184,23.685 C29.145,23.685 31.545,26.085 31.545,29.046 Z" id="path-4" class="cls-5" fill-rule="evenodd"/>
    <path d="M48.734,25.764 C48.734,27.950 46.962,29.722 44.775,29.722 C42.589,29.722 40.816,27.950 40.816,25.764 C40.816,23.577 42.589,21.805 44.775,21.805 C46.962,21.805 48.734,23.577 48.734,25.764 Z" id="path-5" class="cls-7" fill-rule="evenodd"/>
    <path d="M42.416,33.086 C38.633,33.086 35.555,30.008 35.555,26.225 C35.555,22.443 38.633,19.365 42.416,19.365 C46.199,19.365 49.277,22.443 49.277,26.225 C49.277,30.008 46.199,33.086 42.416,33.086 ZM42.416,22.365 C40.287,22.365 38.555,24.097 38.555,26.225 C38.555,28.354 40.287,30.086 42.416,30.086 C44.545,30.086 46.277,28.354 46.277,26.225 C46.277,24.097 44.545,22.365 42.416,22.365 Z" id="path-6" class="cls-7" fill-rule="evenodd"/>
    <path d="M20.542,33.086 C16.759,33.086 13.681,30.008 13.681,26.225 C13.681,22.443 16.759,19.365 20.542,19.365 C24.325,19.365 27.403,22.443 27.403,26.225 C27.403,30.008 24.325,33.086 20.542,33.086 ZM20.542,22.365 C18.413,22.365 16.681,24.097 16.681,26.225 C16.681,28.354 18.413,30.086 20.542,30.086 C22.671,30.086 24.403,28.354 24.403,26.225 C24.403,24.097 22.671,22.365 20.542,22.365 Z" id="path-7" class="cls-7" fill-rule="evenodd"/>
    <path d="M23.099,25.764 C23.099,27.950 21.326,29.722 19.140,29.722 C16.953,29.722 15.181,27.950 15.181,25.764 C15.181,23.577 16.953,21.805 19.140,21.805 C21.326,21.805 23.099,23.577 23.099,25.764 Z" id="path-8" class="cls-7" fill-rule="evenodd"/>
    <path d="M31.582,63.184 C14.163,63.184 -0.008,49.015 -0.008,31.598 C-0.008,14.182 14.163,0.013 31.582,0.013 C49.001,0.013 63.172,14.182 63.172,31.598 C63.172,49.015 49.001,63.184 31.582,63.184 ZM31.582,3.012 C15.817,3.012 2.992,15.836 2.992,31.598 C2.992,47.361 15.817,60.185 31.582,60.185 C47.347,60.185 60.172,47.361 60.172,31.598 C60.172,15.836 47.347,3.012 31.582,3.012 Z" id="path-9" class="cls-7" fill-rule="evenodd"/>
    <path d="M33.889,53.275 C33.889,53.275 27.775,53.275 27.775,53.275 C20.207,53.275 14.050,47.669 14.050,40.777 C14.050,39.948 14.722,39.277 15.550,39.277 C15.550,39.277 46.114,39.277 46.114,39.277 C46.942,39.277 47.614,39.948 47.614,40.777 C47.614,47.669 41.457,53.275 33.889,53.275 ZM17.184,42.277 C17.998,46.804 22.437,50.276 27.775,50.276 C27.775,50.276 33.889,50.276 33.889,50.276 C39.227,50.276 43.666,46.804 44.480,42.277 C44.480,42.277 17.184,42.277 17.184,42.277 Z" id="path-10" class="cls-7" fill-rule="evenodd"/>
    <path d="M43.281,47.276 C43.281,47.276 17.281,47.276 17.281,47.276 C16.453,47.276 15.781,46.605 15.781,45.776 C15.781,44.948 16.453,44.276 17.281,44.276 C17.281,44.276 43.281,44.276 43.281,44.276 C44.109,44.276 44.781,44.948 44.781,45.776 C44.781,46.605 44.109,47.276 43.281,47.276 Z" id="path-11" class="cls-7" fill-rule="evenodd"/>
    <path d="M35.781,46.776 C34.953,46.776 34.281,46.105 34.281,45.276 C34.281,45.276 34.281,41.277 34.281,41.277 C34.281,40.448 34.953,39.777 35.781,39.777 C36.609,39.777 37.281,40.448 37.281,41.277 C37.281,41.277 37.281,45.276 37.281,45.276 C37.281,46.105 36.609,46.776 35.781,46.776 Z" id="path-12" class="cls-7" fill-rule="evenodd"/>
    <path d="M25.781,46.776 C24.953,46.776 24.281,46.105 24.281,45.276 C24.281,45.276 24.281,41.277 24.281,41.277 C24.281,40.448 24.953,39.777 25.781,39.777 C26.609,39.777 27.281,40.448 27.281,41.277 C27.281,41.277 27.281,45.276 27.281,45.276 C27.281,46.105 26.609,46.776 25.781,46.776 Z" id="path-13" class="cls-7" fill-rule="evenodd"/>
  </g>
</svg>
