<svg xmlns="http://www.w3.org/2000/svg" xmlns:xlink="http://www.w3.org/1999/xlink" preserveAspectRatio="xMidYMid" width="66" height="65" viewBox="0 0 66 65">
  <defs>
    <style>

      .cls-3 {
        fill: #edc951;
      }

      .cls-4 {
        fill: #000000;
      }
    </style>
  </defs>
  <g id="group-2svg">
    <path d="M65.426,34.403 C65.426,51.019 51.954,64.489 35.336,64.489 C18.718,64.489 5.247,51.019 5.247,34.403 C5.247,17.787 18.718,4.317 35.336,4.317 C51.954,4.317 65.426,17.787 65.426,34.403 Z" id="path-1" class="cls-3" fill-rule="evenodd"/>
    <path d="M45.632,23.298 C45.632,25.308 44.003,26.937 41.993,26.937 C39.982,26.937 38.352,25.308 38.352,23.298 C38.352,21.288 39.982,19.659 41.993,19.659 C44.003,19.659 45.632,21.288 45.632,23.298 Z" id="path-2" class="cls-4" fill-rule="evenodd"/>
    <path d="M24.703,23.298 C24.703,25.308 23.074,26.937 21.063,26.937 C19.053,26.937 17.423,25.308 17.423,23.298 C17.423,21.288 19.053,19.659 21.063,19.659 C23.074,19.659 24.703,21.288 24.703,23.298 Z" id="path-3" class="cls-4" fill-rule="evenodd"/>
    <path d="M34.359,50.260 C34.359,50.260 29.304,50.260 29.304,50.260 C22.901,50.260 17.693,45.115 17.693,38.791 C17.693,37.962 18.364,37.291 19.193,37.291 C20.021,37.291 20.693,37.962 20.693,38.791 C20.693,43.540 24.475,47.260 29.304,47.260 C29.304,47.260 34.359,47.260 34.359,47.260 C39.187,47.260 42.970,43.602 42.970,38.931 C42.970,38.102 43.641,37.431 44.470,37.431 C45.298,37.431 45.970,38.102 45.970,38.931 C45.970,45.283 40.870,50.260 34.359,50.260 Z" id="path-4" class="cls-4" fill-rule="evenodd"/>
    <path d="M31.575,63.168 C14.156,63.168 -0.015,48.999 -0.015,31.582 C-0.015,14.166 14.156,-0.003 31.575,-0.003 C48.993,-0.003 63.165,14.166 63.165,31.582 C63.165,48.999 48.993,63.168 31.575,63.168 ZM31.575,2.997 C15.810,2.997 2.985,15.820 2.985,31.582 C2.985,47.345 15.810,60.169 31.575,60.169 C47.339,60.169 60.165,47.345 60.165,31.582 C60.165,15.820 47.339,2.997 31.575,2.997 Z" id="path-5" class="cls-4" fill-rule="evenodd"/>
  </g>
</svg>
