<svg xmlns="http://www.w3.org/2000/svg" xmlns:xlink="http://www.w3.org/1999/xlink" preserveAspectRatio="xMidYMid" width="67" height="65" viewBox="0 0 67 65">
  <defs>
    <style>

      .cls-3 {
        fill: #edc951;
      }

      .cls-4 {
        fill: #8b71b5;
      }

      .cls-5 {
        fill: #ffffff;
      }

      .cls-7 {
        fill: #000000;
      }
    </style>
  </defs>
  <g id="group-25svg">
    <path d="M66.368,34.403 C66.368,51.020 52.896,64.490 36.278,64.490 C19.660,64.490 6.188,51.020 6.188,34.403 C6.188,17.788 19.660,4.318 36.278,4.318 C52.896,4.318 66.368,17.788 66.368,34.403 Z" id="path-1" class="cls-3" fill-rule="evenodd"/>
    <path d="M43.941,48.929 C43.941,52.342 41.175,55.108 37.762,55.108 C34.349,55.108 31.582,52.342 31.582,48.929 C31.582,45.517 34.349,42.750 37.762,42.750 C41.175,42.750 43.941,45.517 43.941,48.929 Z" id="path-2" class="cls-4" fill-rule="evenodd"/>
    <path d="M56.165,27.305 C56.165,30.718 53.398,33.485 49.985,33.485 C46.572,33.485 43.805,30.718 43.805,27.305 C43.805,23.892 46.572,21.126 49.985,21.126 C53.398,21.126 56.165,23.892 56.165,27.305 Z" id="path-3" class="cls-5" fill-rule="evenodd"/>
    <path d="M32.794,27.305 C32.794,30.718 30.027,33.485 26.614,33.485 C23.201,33.485 20.434,30.718 20.434,27.305 C20.434,23.892 23.201,21.126 26.614,21.126 C30.027,21.126 32.794,23.892 32.794,27.305 Z" id="path-4" class="cls-5" fill-rule="evenodd"/>
    <path d="M32.120,53.788 C27.885,53.788 24.440,50.343 24.440,46.109 C24.440,41.875 27.885,38.430 32.120,38.430 C36.354,38.430 39.800,41.875 39.800,46.109 C39.800,50.343 36.354,53.788 32.120,53.788 ZM32.120,41.429 C29.539,41.429 27.440,43.529 27.440,46.109 C27.440,48.689 29.539,50.788 32.120,50.788 C34.700,50.788 36.800,48.689 36.800,46.109 C36.800,43.529 34.700,41.429 32.120,41.429 Z" id="path-5" class="cls-7" fill-rule="evenodd"/>
    <path d="M47.099,24.112 C47.099,25.839 45.699,27.239 43.971,27.239 C42.244,27.239 40.844,25.839 40.844,24.112 C40.844,22.385 42.244,20.986 43.971,20.986 C45.699,20.986 47.099,22.385 47.099,24.112 Z" id="path-6" class="cls-7" fill-rule="evenodd"/>
    <path d="M44.344,32.164 C40.109,32.164 36.664,28.719 36.664,24.485 C36.664,20.250 40.109,16.805 44.344,16.805 C48.578,16.805 52.023,20.250 52.023,24.485 C52.023,28.719 48.578,32.164 44.344,32.164 ZM44.344,19.805 C41.763,19.805 39.664,21.904 39.664,24.485 C39.664,27.065 41.763,29.164 44.344,29.164 C46.924,29.164 49.023,27.065 49.023,24.485 C49.023,21.904 46.924,19.805 44.344,19.805 Z" id="path-7" class="cls-7" fill-rule="evenodd"/>
    <path d="M20.972,32.164 C16.738,32.164 13.292,28.719 13.292,24.485 C13.292,20.250 16.738,16.805 20.972,16.805 C25.207,16.805 28.652,20.250 28.652,24.485 C28.652,28.719 25.207,32.164 20.972,32.164 ZM20.972,19.805 C18.392,19.805 16.292,21.904 16.292,24.485 C16.292,27.065 18.392,29.164 20.972,29.164 C23.553,29.164 25.652,27.065 25.652,24.485 C25.652,21.904 23.553,19.805 20.972,19.805 Z" id="path-8" class="cls-7" fill-rule="evenodd"/>
    <path d="M23.728,24.112 C23.728,25.839 22.327,27.239 20.600,27.239 C18.873,27.239 17.473,25.839 17.473,24.112 C17.473,22.385 18.873,20.986 20.600,20.986 C22.327,20.986 23.728,22.385 23.728,24.112 Z" id="path-9" class="cls-7" fill-rule="evenodd"/>
    <path d="M31.577,63.169 C14.158,63.169 -0.013,48.999 -0.013,31.583 C-0.013,14.167 14.158,-0.003 31.577,-0.003 C48.995,-0.003 63.166,14.167 63.166,31.583 C63.166,48.999 48.995,63.169 31.577,63.169 ZM31.577,2.997 C15.812,2.997 2.987,15.821 2.987,31.583 C2.987,47.346 15.812,60.169 31.577,60.169 C47.341,60.169 60.166,47.346 60.166,31.583 C60.166,15.821 47.341,2.997 31.577,2.997 Z" id="path-10" class="cls-7" fill-rule="evenodd"/>
  </g>
</svg>
