<svg xmlns="http://www.w3.org/2000/svg" xmlns:xlink="http://www.w3.org/1999/xlink" preserveAspectRatio="xMidYMid" width="67" height="65" viewBox="0 0 67 65">
  <defs>
    <style>

      .cls-3 {
        fill: #edc951;
      }

      .cls-4 {
        fill: #53ecf4;
      }

      .cls-5 {
        fill: #000000;
      }
    </style>
  </defs>
  <g id="group-28svg">
    <path d="M66.367,34.846 C66.367,51.218 53.094,64.490 36.720,64.490 C20.347,64.490 7.073,51.218 7.073,34.846 C7.073,18.474 20.347,5.202 36.720,5.202 C53.094,5.202 66.367,18.474 66.367,34.846 Z" id="path-1" class="cls-3" fill-rule="evenodd"/>
    <path d="M26.030,14.409 C26.512,18.507 24.512,20.358 20.385,20.358 C16.258,20.358 14.472,18.496 15.043,14.409 C15.652,10.057 20.385,5.110 20.385,5.110 C20.385,5.110 25.547,10.286 26.030,14.409 Z" id="path-2" class="cls-4" fill-rule="evenodd"/>
    <path d="M45.919,25.749 C45.919,27.729 44.313,29.335 42.333,29.335 C40.352,29.335 38.746,27.729 38.746,25.749 C38.746,23.768 40.352,22.163 42.333,22.163 C44.313,22.163 45.919,23.768 45.919,25.749 Z" id="path-3" class="cls-5" fill-rule="evenodd"/>
    <path d="M25.298,25.749 C25.298,27.729 23.692,29.335 21.711,29.335 C19.730,29.335 18.125,27.729 18.125,25.749 C18.125,23.768 19.730,22.163 21.711,22.163 C23.692,22.163 25.298,23.768 25.298,25.749 Z" id="path-4" class="cls-5" fill-rule="evenodd"/>
    <path d="M44.773,50.569 C43.945,50.569 43.273,49.898 43.273,49.069 C43.273,44.410 39.557,40.761 34.812,40.761 C34.812,40.761 29.830,40.761 29.830,40.761 C25.085,40.761 21.368,44.343 21.368,48.916 C21.368,49.744 20.696,50.416 19.868,50.416 C19.040,50.416 18.368,49.744 18.368,48.916 C18.368,42.661 23.403,37.762 29.830,37.762 C29.830,37.762 34.812,37.762 34.812,37.762 C41.132,37.762 46.273,42.834 46.273,49.069 C46.273,49.898 45.602,50.569 44.773,50.569 Z" id="path-5" class="cls-5" fill-rule="evenodd"/>
    <path d="M15.752,19.079 C13.152,19.079 11.315,18.419 10.135,17.062 C8.992,15.748 8.586,13.851 8.926,11.422 C9.594,6.646 14.461,1.511 14.668,1.295 C14.947,1.003 15.332,0.836 15.736,0.832 C16.120,0.819 16.528,0.986 16.814,1.273 C17.380,1.840 22.358,6.946 22.889,11.455 C23.166,13.826 22.714,15.695 21.543,17.010 C20.321,18.383 18.373,19.079 15.752,19.079 ZM15.783,4.579 C14.444,6.211 12.264,9.213 11.896,11.837 C11.683,13.369 11.851,14.464 12.398,15.093 C12.968,15.747 14.096,16.079 15.752,16.079 C17.479,16.079 18.674,15.722 19.302,15.016 C19.878,14.369 20.083,13.288 19.908,11.804 C19.636,9.480 17.380,6.426 15.783,4.579 Z" id="path-6" class="cls-5" fill-rule="evenodd"/>
    <path d="M31.161,62.284 C13.986,62.284 0.014,48.313 0.014,31.141 C0.014,22.596 3.406,14.625 9.566,8.697 C10.163,8.122 11.112,8.140 11.687,8.738 C12.262,9.335 12.243,10.284 11.646,10.858 C6.079,16.216 3.014,23.419 3.014,31.141 C3.014,46.659 15.641,59.284 31.161,59.284 C46.682,59.284 59.308,46.659 59.308,31.141 C59.308,15.622 46.682,2.997 31.161,2.997 C26.918,2.997 22.841,3.917 19.042,5.732 C18.297,6.087 17.399,5.772 17.042,5.025 C16.685,4.277 17.001,3.382 17.749,3.025 C21.954,1.016 26.467,-0.003 31.161,-0.003 C48.335,-0.003 62.308,13.968 62.308,31.141 C62.308,48.313 48.335,62.284 31.161,62.284 Z" id="path-7" class="cls-5" fill-rule="evenodd"/>
  </g>
</svg>
