<svg xmlns="http://www.w3.org/2000/svg" xmlns:xlink="http://www.w3.org/1999/xlink" preserveAspectRatio="xMidYMid" width="67" height="65" viewBox="0 0 67 65">
  <defs>
    <style>

      .cls-3 {
        fill: #edc951;
      }

      .cls-4 {
        fill: #53ecf4;
      }

      .cls-5 {
        fill: #000000;
      }
    </style>
  </defs>
  <g id="group-31svg">
    <path d="M66.375,34.405 C66.375,51.021 52.902,64.491 36.285,64.491 C19.667,64.491 6.195,51.021 6.195,34.405 C6.195,17.789 19.667,4.319 36.285,4.319 C52.902,4.319 66.375,17.789 66.375,34.405 Z" id="path-1" class="cls-3" fill-rule="evenodd"/>
    <path d="M26.376,14.603 C26.864,18.762 24.835,20.641 20.646,20.641 C16.458,20.641 14.645,18.750 15.225,14.603 C15.843,10.187 20.646,5.166 20.646,5.166 C20.646,5.166 25.886,10.418 26.376,14.603 Z" id="path-2" class="cls-4" fill-rule="evenodd"/>
    <path d="M45.399,51.020 C44.571,51.020 43.899,50.349 43.899,49.521 C43.899,44.811 40.036,40.980 35.288,40.980 C35.288,40.980 30.233,40.980 30.233,40.980 C25.404,40.980 21.622,44.701 21.622,49.452 C21.622,50.280 20.950,50.952 20.122,50.952 C19.294,50.952 18.622,50.280 18.622,49.452 C18.622,43.126 23.831,37.981 30.233,37.981 C30.233,37.981 35.288,37.981 35.288,37.981 C41.690,37.981 46.899,43.158 46.899,49.521 C46.899,50.349 46.228,51.020 45.399,51.020 Z" id="path-3" class="cls-5" fill-rule="evenodd"/>
    <path d="M15.944,19.320 C13.313,19.320 11.454,18.653 10.261,17.281 C9.105,15.953 8.694,14.033 9.038,11.575 C9.716,6.735 14.650,1.528 14.860,1.309 C15.140,1.017 15.524,0.850 15.929,0.845 C16.319,0.837 16.721,1.000 17.007,1.286 C17.580,1.861 22.628,7.038 23.165,11.607 C23.446,14.007 22.989,15.898 21.806,17.228 C20.570,18.616 18.599,19.320 15.944,19.320 ZM15.976,4.592 C14.617,6.245 12.384,9.310 12.009,11.990 C11.791,13.551 11.964,14.668 12.523,15.312 C13.106,15.981 14.257,16.321 15.944,16.321 C17.705,16.321 18.923,15.955 19.564,15.235 C20.153,14.572 20.362,13.469 20.185,11.957 C19.906,9.584 17.599,6.466 15.976,4.592 Z" id="path-4" class="cls-5" fill-rule="evenodd"/>
    <path d="M31.583,63.170 C14.165,63.170 -0.006,49.001 -0.006,31.584 C-0.006,22.917 3.435,14.833 9.682,8.822 C10.278,8.248 11.228,8.266 11.803,8.863 C12.377,9.460 12.358,10.410 11.762,10.984 C6.107,16.424 2.994,23.740 2.994,31.584 C2.994,47.347 15.819,60.170 31.583,60.170 C47.348,60.170 60.173,47.347 60.173,31.584 C60.173,15.822 47.348,2.998 31.583,2.998 C27.273,2.998 23.132,3.933 19.273,5.776 C18.528,6.133 17.631,5.816 17.273,5.069 C16.916,4.322 17.232,3.426 17.980,3.069 C22.246,1.032 26.822,-0.001 31.583,-0.001 C49.002,-0.001 63.173,14.168 63.173,31.584 C63.173,49.001 49.002,63.170 31.583,63.170 Z" id="path-5" class="cls-5" fill-rule="evenodd"/>
    <path d="M44.375,31.333 C40.782,31.333 37.746,28.225 37.746,24.548 C37.746,23.719 38.418,23.048 39.246,23.048 C40.074,23.048 40.746,23.719 40.746,24.548 C40.746,26.600 42.408,28.333 44.375,28.333 C45.203,28.333 45.875,29.005 45.875,29.833 C45.875,30.662 45.203,31.333 44.375,31.333 Z" id="path-6" class="cls-5" fill-rule="evenodd"/>
    <path d="M18.459,31.255 C17.631,31.255 16.959,30.584 16.959,29.755 C16.959,28.926 17.631,28.255 18.459,28.255 C20.512,28.255 22.245,26.593 22.245,24.626 C22.245,23.798 22.917,23.126 23.745,23.126 C24.573,23.126 25.245,23.798 25.245,24.626 C25.245,28.219 22.138,31.255 18.459,31.255 Z" id="path-7" class="cls-5" fill-rule="evenodd"/>
  </g>
</svg>
