<svg xmlns="http://www.w3.org/2000/svg" xmlns:xlink="http://www.w3.org/1999/xlink" preserveAspectRatio="xMidYMid" width="65" height="65" viewBox="0 0 65 65">
  <defs>
    <style>

      .cls-3 {
        fill: #edc951;
      }

      .cls-4 {
        fill: #000000;
      }
    </style>
  </defs>
  <g id="group-9svg">
    <path d="M64.503,34.846 C64.503,51.217 51.229,64.489 34.855,64.489 C18.482,64.489 5.209,51.217 5.209,34.846 C5.209,18.474 18.482,5.202 34.855,5.202 C51.229,5.202 64.503,18.474 64.503,34.846 Z" id="path-1" class="cls-3" fill-rule="evenodd"/>
    <path d="M45.781,43.761 C45.781,43.761 17.781,43.761 17.781,43.761 C16.953,43.761 16.281,43.089 16.281,42.261 C16.281,41.432 16.953,40.761 17.781,40.761 C17.781,40.761 45.781,40.761 45.781,40.761 C46.609,40.761 47.281,41.432 47.281,42.261 C47.281,43.089 46.609,43.761 45.781,43.761 Z" id="path-2" class="cls-4" fill-rule="evenodd"/>
    <path d="M45.001,22.977 C45.001,24.958 43.394,26.563 41.414,26.563 C39.434,26.563 37.828,24.958 37.828,22.977 C37.828,20.997 39.434,19.392 41.414,19.392 C43.394,19.392 45.001,20.997 45.001,22.977 Z" id="path-3" class="cls-4" fill-rule="evenodd"/>
    <path d="M24.379,22.977 C24.379,24.958 22.773,26.563 20.793,26.563 C18.812,26.563 17.207,24.958 17.207,22.977 C17.207,20.997 18.812,19.392 20.793,19.392 C22.773,19.392 24.379,20.997 24.379,22.977 Z" id="path-4" class="cls-4" fill-rule="evenodd"/>
    <path d="M31.150,62.283 C13.976,62.283 0.003,48.312 0.003,31.140 C0.003,13.968 13.976,-0.003 31.150,-0.003 C48.324,-0.003 62.297,13.968 62.297,31.140 C62.297,48.312 48.324,62.283 31.150,62.283 ZM31.150,2.997 C15.630,2.997 3.003,15.621 3.003,31.140 C3.003,46.659 15.630,59.284 31.150,59.284 C46.671,59.284 59.297,46.659 59.297,31.140 C59.297,15.621 46.671,2.997 31.150,2.997 Z" id="path-5" class="cls-4" fill-rule="evenodd"/>
  </g>
</svg>
