<svg xmlns="http://www.w3.org/2000/svg" xmlns:xlink="http://www.w3.org/1999/xlink" preserveAspectRatio="xMidYMid" width="65" height="65" viewBox="0 0 65 65">
  <defs>
    <style>

      .cls-3 {
        fill: #edc951;
      }

      .cls-4 {
        fill: #ffffff;
      }

      .cls-6 {
        fill: #000000;
      }
    </style>
  </defs>
  <g id="group-48svg">
    <path d="M64.503,34.849 C64.503,51.221 51.229,64.492 34.855,64.492 C18.482,64.492 5.209,51.221 5.209,34.849 C5.209,18.477 18.482,5.205 34.855,5.205 C51.229,5.205 64.503,18.477 64.503,34.849 Z" id="path-1" class="cls-3" fill-rule="evenodd"/>
    <path d="M52.876,29.083 C52.876,32.734 49.916,35.693 46.265,35.693 C42.613,35.693 39.653,32.734 39.653,29.083 C39.653,25.432 42.613,22.473 46.265,22.473 C49.916,22.473 52.876,25.432 52.876,29.083 Z" id="path-2" class="cls-4" fill-rule="evenodd"/>
    <path d="M30.892,29.083 C30.892,32.734 27.932,35.693 24.281,35.693 C20.630,35.693 17.670,32.734 17.670,29.083 C17.670,25.432 20.630,22.473 24.281,22.473 C27.932,22.473 30.892,25.432 30.892,29.083 Z" id="path-3" class="cls-4" fill-rule="evenodd"/>
    <path d="M45.506,25.905 C45.506,27.753 44.008,29.251 42.160,29.251 C40.312,29.251 38.815,27.753 38.815,25.905 C38.815,24.058 40.312,22.561 42.160,22.561 C44.008,22.561 45.506,24.058 45.506,25.905 Z" id="path-4" class="cls-6" fill-rule="evenodd"/>
    <path d="M42.559,34.414 C38.086,34.414 34.447,30.775 34.447,26.304 C34.447,21.832 38.086,18.193 42.559,18.193 C47.031,18.193 50.670,21.832 50.670,26.304 C50.670,30.775 47.031,34.414 42.559,34.414 ZM42.559,21.193 C39.740,21.193 37.447,23.486 37.447,26.304 C37.447,29.122 39.740,31.414 42.559,31.414 C45.377,31.414 47.670,29.122 47.670,26.304 C47.670,23.486 45.377,21.193 42.559,21.193 Z" id="path-5" class="cls-6" fill-rule="evenodd"/>
    <path d="M20.575,34.414 C16.103,34.414 12.464,30.775 12.464,26.304 C12.464,21.832 16.103,18.193 20.575,18.193 C25.048,18.193 28.686,21.832 28.686,26.304 C28.686,30.775 25.048,34.414 20.575,34.414 ZM20.575,21.193 C17.757,21.193 15.464,23.486 15.464,26.304 C15.464,29.122 17.757,31.414 20.575,31.414 C23.393,31.414 25.686,29.122 25.686,26.304 C25.686,23.486 23.393,21.193 20.575,21.193 Z" id="path-6" class="cls-6" fill-rule="evenodd"/>
    <path d="M23.522,25.905 C23.522,27.753 22.024,29.251 20.177,29.251 C18.329,29.251 16.831,27.753 16.831,25.905 C16.831,24.058 18.329,22.561 20.177,22.561 C22.024,22.561 23.522,24.058 23.522,25.905 Z" id="path-7" class="cls-6" fill-rule="evenodd"/>
    <path d="M26.470,49.466 C25.990,49.466 25.519,49.236 25.228,48.810 C24.763,48.125 24.940,47.192 25.625,46.726 C25.625,46.726 36.617,39.250 36.617,39.250 C37.303,38.785 38.235,38.961 38.701,39.646 C39.167,40.331 38.989,41.264 38.305,41.730 C38.305,41.730 27.312,49.206 27.312,49.206 C27.054,49.382 26.761,49.466 26.470,49.466 Z" id="path-8" class="cls-6" fill-rule="evenodd"/>
    <path d="M37.460,49.466 C37.169,49.466 36.876,49.382 36.617,49.206 C36.617,49.206 25.625,41.730 25.625,41.730 C24.940,41.264 24.763,40.331 25.228,39.646 C25.694,38.960 26.627,38.785 27.312,39.250 C27.312,39.250 38.305,46.726 38.305,46.726 C38.989,47.192 39.167,48.125 38.701,48.810 C38.411,49.236 37.939,49.466 37.460,49.466 Z" id="path-9" class="cls-6" fill-rule="evenodd"/>
    <path d="M31.150,62.287 C13.976,62.287 0.003,48.316 0.003,31.143 C0.003,13.971 13.976,0.000 31.150,0.000 C48.324,0.000 62.297,13.971 62.297,31.143 C62.297,48.316 48.324,62.287 31.150,62.287 ZM31.150,3.000 C15.630,3.000 3.003,15.625 3.003,31.143 C3.003,46.662 15.630,59.287 31.150,59.287 C46.671,59.287 59.297,46.662 59.297,31.143 C59.297,15.625 46.671,3.000 31.150,3.000 Z" id="path-10" class="cls-6" fill-rule="evenodd"/>
  </g>
</svg>
