<svg xmlns="http://www.w3.org/2000/svg" xmlns:xlink="http://www.w3.org/1999/xlink" preserveAspectRatio="xMidYMid" width="68" height="65" viewBox="0 0 68 65">
  <defs>
    <style>

      .cls-3 {
        fill: #edc951;
      }

      .cls-4 {
        fill: #8b71b5;
      }

      .cls-5 {
        fill: #e56a77;
      }

      .cls-7 {
        fill: #000000;
      }
    </style>
  </defs>
  <g id="group-35svg">
    <path d="M67.307,34.401 C67.307,51.017 53.835,64.486 37.217,64.486 C20.599,64.486 7.127,51.017 7.127,34.401 C7.127,17.785 20.599,4.315 37.217,4.315 C53.835,4.315 67.307,17.785 67.307,34.401 Z" id="path-1" class="cls-3" fill-rule="evenodd"/>
    <path d="M53.630,41.809 C53.630,48.808 48.157,53.807 41.404,53.807 C41.404,53.807 35.291,53.807 35.291,53.807 C28.539,53.807 23.065,48.808 23.065,41.809 C23.065,41.809 53.630,41.809 53.630,41.809 Z" id="path-2" class="cls-4" fill-rule="evenodd"/>
    <path d="M53.822,20.595 C52.875,20.595 52.003,21.771 51.298,22.296 C50.592,21.771 49.721,20.595 48.773,20.595 C46.433,20.595 44.536,22.492 44.536,24.832 C44.536,27.172 50.592,34.081 51.298,33.556 C52.003,34.081 58.059,27.172 58.059,24.832 C58.059,22.492 56.162,20.595 53.822,20.595 Z" id="path-3" class="cls-5" fill-rule="evenodd"/>
    <path d="M29.733,20.595 C28.786,20.595 27.915,21.771 27.209,22.296 C26.503,21.771 25.632,20.595 24.685,20.595 C22.344,20.595 20.447,22.492 20.447,24.832 C20.447,27.172 26.503,34.081 27.209,33.556 C27.915,34.081 33.970,27.172 33.970,24.832 C33.970,22.492 32.073,20.595 29.733,20.595 Z" id="path-4" class="cls-5" fill-rule="evenodd"/>
    <path d="M34.822,51.807 C34.822,51.807 28.709,51.807 28.709,51.807 C21.141,51.807 14.983,46.201 14.983,39.309 C14.983,38.480 15.655,37.809 16.483,37.809 C16.483,37.809 47.048,37.809 47.048,37.809 C47.877,37.809 48.548,38.480 48.548,39.309 C48.548,46.201 42.391,51.807 34.822,51.807 ZM18.117,40.809 C18.931,45.336 23.371,48.808 28.709,48.808 C28.709,48.808 34.822,48.808 34.822,48.808 C40.161,48.808 44.601,45.336 45.415,40.809 C45.415,40.809 18.117,40.809 18.117,40.809 Z" id="path-5" class="cls-7" fill-rule="evenodd"/>
    <path d="M44.824,32.264 C44.786,32.265 44.751,32.263 44.716,32.261 C44.684,32.263 44.651,32.264 44.618,32.264 C44.182,32.264 43.023,32.264 39.727,28.174 C38.234,26.320 36.454,23.746 36.454,22.011 C36.454,18.848 39.028,16.274 42.191,16.274 C43.241,16.274 44.069,16.882 44.716,17.460 C45.362,16.882 46.190,16.274 47.240,16.274 C50.403,16.274 52.977,18.848 52.977,22.011 C52.977,23.746 51.197,26.320 49.704,28.174 C46.436,32.231 45.269,32.264 44.824,32.264 ZM42.129,19.268 C40.682,19.274 39.454,20.502 39.454,22.011 C39.500,23.259 43.143,27.936 44.716,29.136 C46.289,27.936 49.931,23.258 49.977,22.008 C49.977,20.502 48.749,19.274 47.240,19.274 C47.103,19.325 46.636,19.766 46.385,20.004 C46.113,20.259 45.853,20.500 45.611,20.679 C45.080,21.074 44.352,21.075 43.821,20.679 C43.579,20.500 43.318,20.259 43.046,20.003 C42.795,19.766 42.328,19.325 42.129,19.268 Z" id="path-6" class="cls-7" fill-rule="evenodd"/>
    <path d="M20.735,32.264 C20.698,32.265 20.663,32.263 20.627,32.261 C20.595,32.263 20.562,32.264 20.529,32.264 C20.093,32.264 18.934,32.264 15.639,28.174 C14.145,26.320 12.365,23.746 12.365,22.011 C12.365,18.848 14.939,16.274 18.103,16.274 C19.152,16.274 19.980,16.882 20.627,17.460 C21.273,16.881 22.102,16.274 23.151,16.274 C26.314,16.274 28.888,18.848 28.888,22.011 C28.888,23.746 27.108,26.320 25.615,28.174 C22.347,32.231 21.180,32.264 20.735,32.264 ZM18.040,19.268 C16.593,19.274 15.365,20.502 15.365,22.011 C15.412,23.259 19.054,27.936 20.627,29.136 C22.200,27.936 25.842,23.258 25.888,22.008 C25.888,20.502 24.660,19.274 23.151,19.274 C23.015,19.325 22.547,19.766 22.296,20.004 C22.024,20.259 21.764,20.500 21.522,20.679 C20.991,21.074 20.264,21.075 19.732,20.679 C19.490,20.500 19.229,20.259 18.958,20.003 C18.706,19.766 18.239,19.325 18.040,19.268 Z" id="path-7" class="cls-7" fill-rule="evenodd"/>
    <path d="M31.575,63.166 C14.157,63.166 -0.014,48.997 -0.014,31.580 C-0.014,14.164 14.157,-0.006 31.575,-0.006 C48.994,-0.006 63.165,14.164 63.165,31.580 C63.165,48.997 48.994,63.166 31.575,63.166 ZM31.575,2.994 C15.811,2.994 2.986,15.818 2.986,31.580 C2.986,47.343 15.811,60.166 31.575,60.166 C47.339,60.166 60.165,47.343 60.165,31.580 C60.165,15.818 47.339,2.994 31.575,2.994 Z" id="path-8" class="cls-7" fill-rule="evenodd"/>
  </g>
</svg>
