<svg xmlns="http://www.w3.org/2000/svg" xmlns:xlink="http://www.w3.org/1999/xlink" preserveAspectRatio="xMidYMid" width="66" height="65" viewBox="0 0 66 65">
  <defs>
    <style>

      .cls-3 {
        fill: #edc951;
      }

      .cls-4 {
        fill: #000000;
      }
    </style>
  </defs>
  <g id="group-8svg">
    <path d="M65.429,34.846 C65.429,51.217 52.155,64.489 35.781,64.489 C19.408,64.489 6.135,51.217 6.135,34.846 C6.135,18.474 19.408,5.202 35.781,5.202 C52.155,5.202 65.429,18.474 65.429,34.846 Z" id="path-1" class="cls-3" fill-rule="evenodd"/>
    <path d="M18.847,47.836 C18.019,47.836 17.347,47.165 17.347,46.337 C17.347,39.520 22.977,33.762 29.643,33.762 C29.643,33.762 35.041,33.762 35.041,33.762 C41.821,33.762 47.337,39.340 47.337,46.196 C47.337,47.025 46.665,47.696 45.837,47.696 C45.009,47.696 44.337,47.025 44.337,46.196 C44.337,40.994 40.167,36.761 35.041,36.761 C35.041,36.761 29.643,36.761 29.643,36.761 C24.603,36.761 20.347,41.146 20.347,46.337 C20.347,47.165 19.675,47.836 18.847,47.836 Z" id="path-2" class="cls-4" fill-rule="evenodd"/>
    <path d="M25.298,22.645 C25.050,22.645 24.799,22.583 24.569,22.456 C24.569,22.456 22.260,21.170 22.260,21.170 C21.128,20.961 19.934,21.267 19.104,22.096 C18.518,22.682 17.568,22.682 16.982,22.096 C16.396,21.511 16.396,20.561 16.982,19.975 C17.383,19.575 17.828,19.240 18.306,18.969 C18.306,18.969 17.313,18.417 17.313,18.417 C16.590,18.014 16.329,17.101 16.732,16.377 C17.135,15.653 18.051,15.391 18.772,15.796 C18.772,15.796 23.396,18.370 23.396,18.370 C24.487,18.669 25.516,19.241 26.359,20.085 C26.889,20.613 26.947,21.452 26.496,22.049 C26.204,22.436 25.755,22.645 25.298,22.645 Z" id="path-3" class="cls-4" fill-rule="evenodd"/>
    <path d="M38.448,22.645 C37.991,22.645 37.542,22.436 37.250,22.049 C36.799,21.452 36.857,20.613 37.387,20.085 C38.229,19.242 39.259,18.669 40.350,18.370 C40.350,18.370 44.974,15.796 44.974,15.796 C45.694,15.393 46.610,15.652 47.014,16.377 C47.417,17.101 47.156,18.014 46.433,18.417 C46.433,18.417 45.440,18.969 45.440,18.969 C45.918,19.240 46.363,19.575 46.764,19.975 C47.350,20.561 47.350,21.511 46.764,22.096 C46.178,22.682 45.228,22.682 44.643,22.096 C43.813,21.267 42.619,20.959 41.486,21.170 C41.486,21.170 39.177,22.456 39.177,22.456 C38.947,22.583 38.696,22.645 38.448,22.645 Z" id="path-4" class="cls-4" fill-rule="evenodd"/>
    <path d="M31.149,62.283 C13.975,62.283 0.002,48.312 0.002,31.140 C0.002,13.968 13.975,-0.003 31.149,-0.003 C48.323,-0.003 62.296,13.968 62.296,31.140 C62.296,48.312 48.323,62.283 31.149,62.283 ZM31.149,2.997 C15.629,2.997 3.002,15.621 3.002,31.140 C3.002,46.659 15.629,59.284 31.149,59.284 C46.670,59.284 59.296,46.659 59.296,31.140 C59.296,15.621 46.670,2.997 31.149,2.997 Z" id="path-5" class="cls-4" fill-rule="evenodd"/>
  </g>
</svg>
