<svg xmlns="http://www.w3.org/2000/svg" xmlns:xlink="http://www.w3.org/1999/xlink" preserveAspectRatio="xMidYMid" width="67" height="65" viewBox="0 0 67 65">
  <defs>
    <style>

      .cls-3 {
        fill: #edc951;
      }

      .cls-4 {
        fill: #ffffff;
      }

      .cls-6 {
        fill: #000000;
      }
    </style>
  </defs>
  <g id="group-33svg">
    <path d="M66.394,34.401 C66.394,51.017 52.922,64.486 36.304,64.486 C19.686,64.486 6.215,51.017 6.215,34.401 C6.215,17.785 19.686,4.315 36.304,4.315 C52.922,4.315 66.394,17.785 66.394,34.401 Z" id="path-1" class="cls-3" fill-rule="evenodd"/>
    <path d="M54.311,27.303 C54.311,30.715 51.544,33.481 48.131,33.481 C44.718,33.481 41.951,30.715 41.951,27.303 C41.951,23.890 44.718,21.123 48.131,21.123 C51.544,21.123 54.311,23.890 54.311,27.303 Z" id="path-2" class="cls-4" fill-rule="evenodd"/>
    <path d="M30.940,27.303 C30.940,30.715 28.173,33.481 24.760,33.481 C21.347,33.481 18.580,30.715 18.580,27.303 C18.580,23.890 21.347,21.123 24.760,21.123 C28.173,21.123 30.940,23.890 30.940,27.303 Z" id="path-3" class="cls-4" fill-rule="evenodd"/>
    <path d="M44.370,32.161 C40.135,32.161 36.690,28.716 36.690,24.482 C36.690,20.248 40.135,16.803 44.370,16.803 C48.604,16.803 52.050,20.248 52.050,24.482 C52.050,28.716 48.604,32.161 44.370,32.161 ZM44.370,19.802 C41.789,19.802 39.690,21.901 39.690,24.482 C39.690,27.062 41.789,29.161 44.370,29.161 C46.951,29.161 49.050,27.062 49.050,24.482 C49.050,21.901 46.951,19.802 44.370,19.802 Z" id="path-4" class="cls-6" fill-rule="evenodd"/>
    <path d="M20.999,32.161 C16.764,32.161 13.318,28.716 13.318,24.482 C13.318,20.248 16.764,16.803 20.999,16.803 C25.233,16.803 28.679,20.248 28.679,24.482 C28.679,28.716 25.233,32.161 20.999,32.161 ZM20.999,19.802 C18.418,19.802 16.318,21.901 16.318,24.482 C16.318,27.062 18.418,29.161 20.999,29.161 C23.579,29.161 25.679,27.062 25.679,24.482 C25.679,21.901 23.579,19.802 20.999,19.802 Z" id="path-5" class="cls-6" fill-rule="evenodd"/>
    <path d="M24.786,50.329 C24.613,50.329 24.438,50.300 24.267,50.237 C23.490,49.950 23.092,49.088 23.378,48.311 C25.020,43.856 27.676,40.853 31.275,39.383 C37.556,36.819 44.324,39.962 44.610,40.097 C45.358,40.452 45.678,41.346 45.323,42.095 C44.969,42.843 44.074,43.162 43.328,42.809 C43.231,42.764 37.418,40.103 32.393,42.167 C29.614,43.307 27.529,45.724 26.193,49.348 C25.970,49.954 25.396,50.329 24.786,50.329 Z" id="path-6" class="cls-6" fill-rule="evenodd"/>
    <path d="M47.125,24.110 C47.125,25.836 45.725,27.237 43.998,27.237 C42.270,27.237 40.870,25.836 40.870,24.110 C40.870,22.383 42.270,20.982 43.998,20.982 C45.725,20.982 47.125,22.383 47.125,24.110 Z" id="path-7" class="cls-6" fill-rule="evenodd"/>
    <path d="M23.753,24.110 C23.753,25.836 22.353,27.237 20.626,27.237 C18.899,27.237 17.499,25.836 17.499,24.110 C17.499,22.383 18.899,20.982 20.626,20.982 C22.353,20.982 23.753,22.383 23.753,24.110 Z" id="path-8" class="cls-6" fill-rule="evenodd"/>
    <path d="M31.603,63.166 C14.185,63.166 0.013,48.997 0.013,31.580 C0.013,14.164 14.185,-0.006 31.603,-0.006 C49.021,-0.006 63.192,14.164 63.192,31.580 C63.192,48.997 49.021,63.166 31.603,63.166 ZM31.603,2.994 C15.838,2.994 3.013,15.818 3.013,31.580 C3.013,47.343 15.838,60.166 31.603,60.166 C47.367,60.166 60.192,47.343 60.192,31.580 C60.192,15.818 47.367,2.994 31.603,2.994 Z" id="path-9" class="cls-6" fill-rule="evenodd"/>
  </g>
</svg>
