<svg xmlns="http://www.w3.org/2000/svg" xmlns:xlink="http://www.w3.org/1999/xlink" preserveAspectRatio="xMidYMid" width="66" height="65" viewBox="0 0 66 65">
  <defs>
    <style>

      .cls-3 {
        fill: #edc951;
      }

      .cls-4 {
        fill: #000000;
      }
    </style>
  </defs>
  <g id="group-6svg">
    <path d="M65.429,34.846 C65.429,51.217 52.155,64.489 35.782,64.489 C19.408,64.489 6.135,51.217 6.135,34.846 C6.135,18.474 19.408,5.202 35.782,5.202 C52.155,5.202 65.429,18.474 65.429,34.846 Z" id="path-1" class="cls-3" fill-rule="evenodd"/>
    <path d="M35.041,47.760 C35.041,47.760 29.643,47.760 29.643,47.760 C22.748,47.760 17.347,42.448 17.347,35.666 C17.347,34.837 18.019,34.166 18.847,34.166 C19.676,34.166 20.347,34.837 20.347,35.666 C20.347,40.766 24.430,44.761 29.643,44.761 C29.643,44.761 35.041,44.761 35.041,44.761 C40.254,44.761 44.337,40.854 44.337,35.867 C44.337,35.038 45.008,34.367 45.837,34.367 C46.666,34.367 47.337,35.038 47.337,35.867 C47.337,42.536 41.936,47.760 35.041,47.760 Z" id="path-2" class="cls-4" fill-rule="evenodd"/>
    <path d="M25.299,22.807 C24.916,22.807 24.532,22.661 24.239,22.368 C22.817,20.947 20.465,20.896 19.104,22.258 C18.518,22.844 17.568,22.844 16.982,22.258 C16.396,21.673 16.396,20.723 16.982,20.138 C19.495,17.625 23.789,17.676 26.360,20.247 C26.946,20.832 26.946,21.782 26.360,22.368 C26.067,22.661 25.683,22.807 25.299,22.807 Z" id="path-3" class="cls-4" fill-rule="evenodd"/>
    <path d="M45.704,22.807 C45.320,22.807 44.936,22.661 44.643,22.368 C43.223,20.947 40.870,20.896 39.508,22.258 C38.922,22.844 37.973,22.844 37.387,22.258 C36.801,21.673 36.801,20.723 37.387,20.138 C39.899,17.625 44.193,17.676 46.764,20.247 C47.350,20.832 47.350,21.782 46.764,22.368 C46.471,22.661 46.087,22.807 45.704,22.807 Z" id="path-4" class="cls-4" fill-rule="evenodd"/>
    <path d="M31.149,62.283 C13.975,62.283 0.002,48.312 0.002,31.140 C0.002,13.968 13.975,-0.003 31.149,-0.003 C48.324,-0.003 62.296,13.968 62.296,31.140 C62.296,48.312 48.324,62.283 31.149,62.283 ZM31.149,2.997 C15.629,2.997 3.002,15.621 3.002,31.140 C3.002,46.659 15.629,59.284 31.149,59.284 C46.670,59.284 59.296,46.659 59.296,31.140 C59.296,15.621 46.670,2.997 31.149,2.997 Z" id="path-5" class="cls-4" fill-rule="evenodd"/>
  </g>
</svg>
