<svg xmlns="http://www.w3.org/2000/svg" xmlns:xlink="http://www.w3.org/1999/xlink" preserveAspectRatio="xMidYMid" width="67" height="65" viewBox="0 0 67 65">
  <defs>
    <style>

      .cls-3 {
        fill: #edc951;
      }

      .cls-4 {
        fill: #e56a77;
      }

      .cls-5 {
        fill: #000000;
      }
    </style>
  </defs>
  <g id="group-27svg">
    <path d="M66.360,34.846 C66.360,51.218 53.087,64.490 36.714,64.490 C20.340,64.490 7.066,51.218 7.066,34.846 C7.066,18.474 20.340,5.202 36.714,5.202 C53.087,5.202 66.360,18.474 66.360,34.846 Z" id="path-1" class="cls-3" fill-rule="evenodd"/>
    <path d="M42.836,44.877 C42.836,44.877 44.716,48.178 44.716,48.178 C45.554,49.616 45.310,51.755 43.871,52.593 C43.871,52.593 43.896,52.579 43.896,52.579 C42.457,53.417 40.446,52.591 39.608,51.153 C39.608,51.153 37.144,46.827 37.144,46.827 C37.144,46.827 37.144,46.827 37.144,46.827 " id="path-2" class="cls-4" fill-rule="evenodd"/>
    <path d="M45.006,23.815 C45.006,25.795 43.399,27.401 41.419,27.401 C39.438,27.401 37.833,25.795 37.833,23.815 C37.833,21.834 39.438,20.229 41.419,20.229 C43.399,20.229 45.006,21.834 45.006,23.815 Z" id="path-3" class="cls-5" fill-rule="evenodd"/>
    <path d="M24.384,23.815 C24.384,25.795 22.778,27.401 20.798,27.401 C18.817,27.401 17.211,25.795 17.211,23.815 C17.211,21.834 18.817,20.229 20.798,20.229 C22.778,20.229 24.384,21.834 24.384,23.815 Z" id="path-4" class="cls-5" fill-rule="evenodd"/>
    <path d="M40.753,54.412 C40.229,54.412 39.693,54.319 39.169,54.132 C38.034,53.726 37.047,52.915 36.460,51.908 C36.460,51.908 33.987,47.570 33.987,47.570 C33.577,46.850 33.829,45.934 34.549,45.524 C35.268,45.112 36.183,45.364 36.595,46.085 C36.595,46.085 39.060,50.410 39.060,50.410 C39.285,50.798 39.707,51.138 40.180,51.308 C40.422,51.394 40.878,51.505 41.263,51.298 C41.263,51.297 41.264,51.297 41.264,51.297 C41.645,51.075 41.772,50.618 41.814,50.365 C41.896,49.875 41.804,49.339 41.566,48.933 C41.566,48.933 39.679,45.619 39.679,45.619 C39.269,44.900 39.520,43.984 40.240,43.574 C40.959,43.163 41.876,43.414 42.286,44.135 C42.286,44.135 44.166,47.435 44.166,47.435 C44.745,48.428 44.970,49.680 44.774,50.856 C44.562,52.133 43.868,53.213 42.862,53.836 C42.842,53.849 42.820,53.862 42.798,53.876 C42.186,54.232 41.482,54.412 40.753,54.412 Z" id="path-5" class="cls-5" fill-rule="evenodd"/>
    <path d="M33.897,46.761 C33.897,46.761 28.917,46.761 28.917,46.761 C22.597,46.761 17.455,41.677 17.455,35.430 C17.455,34.601 18.127,33.930 18.955,33.930 C19.783,33.930 20.455,34.601 20.455,35.430 C20.455,40.101 24.172,43.761 28.917,43.761 C28.917,43.761 33.897,43.761 33.897,43.761 C38.643,43.761 42.359,40.158 42.359,35.559 C42.359,34.730 43.031,34.059 43.859,34.059 C44.687,34.059 45.359,34.730 45.359,35.559 C45.359,41.840 40.324,46.761 33.897,46.761 Z" id="path-6" class="cls-5" fill-rule="evenodd"/>
    <path d="M31.154,62.284 C13.980,62.284 0.008,48.313 0.008,31.141 C0.008,13.968 13.980,-0.003 31.154,-0.003 C48.329,-0.003 62.302,13.968 62.302,31.141 C62.302,48.313 48.329,62.284 31.154,62.284 ZM31.154,2.997 C15.634,2.997 3.008,15.622 3.008,31.141 C3.008,46.659 15.634,59.284 31.154,59.284 C46.675,59.284 59.302,46.659 59.302,31.141 C59.302,15.622 46.675,2.997 31.154,2.997 Z" id="path-7" class="cls-5" fill-rule="evenodd"/>
  </g>
</svg>
