<svg xmlns="http://www.w3.org/2000/svg" xmlns:xlink="http://www.w3.org/1999/xlink" preserveAspectRatio="xMidYMid" width="67" height="65" viewBox="0 0 67 65">
  <defs>
    <style>

      .cls-3 {
        fill: #edc951;
      }

      .cls-4 {
        fill: #8b71b5;
      }

      .cls-5 {
        fill: #000000;
      }
    </style>
  </defs>
  <g id="group-19svg">
    <path d="M66.375,34.419 C66.375,51.035 52.903,64.505 36.285,64.505 C19.667,64.505 6.195,51.035 6.195,34.419 C6.195,17.803 19.667,4.333 36.285,4.333 C52.903,4.333 66.375,17.803 66.375,34.419 Z" id="path-1" class="cls-3" fill-rule="evenodd"/>
    <path d="M50.186,51.004 C50.186,44.978 45.300,40.277 39.273,40.277 C39.273,40.277 33.816,40.277 33.816,40.277 C27.790,40.277 22.904,45.070 22.904,51.096 C22.904,51.096 50.186,51.004 50.186,51.004 Z" id="path-2" class="cls-4" fill-rule="evenodd"/>
    <path d="M17.276,27.837 C16.685,27.837 16.124,27.485 15.887,26.903 C15.573,26.136 15.941,25.261 16.709,24.948 C16.709,24.948 21.265,23.090 21.265,23.090 C21.265,23.090 16.660,20.527 16.660,20.527 C15.936,20.125 15.676,19.211 16.079,18.488 C16.482,17.764 17.393,17.502 18.119,17.907 C18.119,17.907 25.454,21.989 25.454,21.989 C25.958,22.269 26.257,22.814 26.222,23.389 C26.187,23.965 25.825,24.470 25.291,24.688 C25.291,24.688 17.842,27.726 17.842,27.726 C17.656,27.801 17.465,27.837 17.276,27.837 Z" id="path-3" class="cls-5" fill-rule="evenodd"/>
    <path d="M45.349,28.573 C45.117,28.573 44.883,28.520 44.663,28.407 C44.663,28.407 37.328,24.633 37.328,24.633 C36.837,24.379 36.523,23.877 36.515,23.323 C36.506,22.771 36.802,22.258 37.285,21.989 C37.285,21.989 44.620,17.907 44.620,17.907 C45.344,17.502 46.257,17.764 46.660,18.488 C47.063,19.211 46.803,20.125 46.079,20.527 C46.079,20.527 41.192,23.247 41.192,23.247 C41.192,23.247 46.036,25.739 46.036,25.739 C46.772,26.119 47.062,27.023 46.684,27.759 C46.417,28.276 45.893,28.573 45.349,28.573 Z" id="path-4" class="cls-5" fill-rule="evenodd"/>
    <path d="M18.203,49.276 C17.806,49.276 17.425,49.113 17.144,48.833 C16.861,48.551 16.703,48.167 16.703,47.769 C16.703,40.882 22.271,35.278 29.115,35.278 C29.115,35.278 34.571,35.278 34.571,35.278 C41.416,35.278 46.984,40.862 46.984,47.727 C46.984,48.554 46.314,49.230 45.486,49.231 C45.486,49.231 18.205,49.276 18.205,49.276 C18.204,49.276 18.204,49.276 18.203,49.276 ZM29.115,38.277 C24.433,38.277 20.537,41.743 19.821,46.264 C19.821,46.264 43.866,46.229 43.866,46.229 C43.149,41.728 39.254,38.277 34.571,38.277 C34.571,38.277 29.115,38.277 29.115,38.277 Z" id="path-5" class="cls-5" fill-rule="evenodd"/>
    <path d="M31.583,63.184 C14.165,63.184 -0.006,49.015 -0.006,31.598 C-0.006,14.182 14.165,0.013 31.583,0.013 C49.002,0.013 63.173,14.182 63.173,31.598 C63.173,49.015 49.002,63.184 31.583,63.184 ZM31.583,3.012 C15.819,3.012 2.994,15.836 2.994,31.598 C2.994,47.361 15.819,60.185 31.583,60.185 C47.348,60.185 60.173,47.361 60.173,31.598 C60.173,15.836 47.348,3.012 31.583,3.012 Z" id="path-6" class="cls-5" fill-rule="evenodd"/>
    <path d="M45.485,48.640 C45.072,48.640 44.662,48.471 44.366,48.139 C43.896,47.619 33.204,36.093 19.181,48.134 C18.552,48.674 17.603,48.602 17.065,47.973 C16.525,47.345 16.598,46.398 17.226,45.858 C33.527,31.865 46.476,45.997 46.603,46.141 C47.155,46.760 47.101,47.708 46.483,48.259 C46.197,48.514 45.840,48.640 45.485,48.640 Z" id="path-7" class="cls-5" fill-rule="evenodd"/>
  </g>
</svg>
