<svg xmlns="http://www.w3.org/2000/svg" xmlns:xlink="http://www.w3.org/1999/xlink" preserveAspectRatio="xMidYMid" width="67" height="65" viewBox="0 0 67 65">
  <defs>
    <style>

      .cls-3 {
        fill: #edc951;
      }

      .cls-4 {
        fill: #ffffff;
      }

      .cls-6 {
        fill: #000000;
      }
    </style>
  </defs>
  <g id="group-23svg">
    <path d="M67.333,34.405 C67.333,51.021 53.861,64.491 37.243,64.491 C20.625,64.491 7.154,51.021 7.154,34.405 C7.154,17.789 20.625,4.319 37.243,4.319 C53.861,4.319 67.333,17.789 67.333,34.405 Z" id="path-1" class="cls-3" fill-rule="evenodd"/>
    <path d="M55.250,27.307 C55.250,30.719 52.483,33.486 49.070,33.486 C45.657,33.486 42.890,30.719 42.890,27.307 C42.890,23.894 45.657,21.127 49.070,21.127 C52.483,21.127 55.250,23.894 55.250,27.307 Z" id="path-2" class="cls-4" fill-rule="evenodd"/>
    <path d="M31.879,27.307 C31.879,30.719 29.112,33.486 25.699,33.486 C22.286,33.486 19.518,30.719 19.518,27.307 C19.518,23.894 22.286,21.127 25.699,21.127 C29.112,21.127 31.879,23.894 31.879,27.307 Z" id="path-3" class="cls-4" fill-rule="evenodd"/>
    <path d="M47.124,24.114 C47.124,25.840 45.723,27.241 43.996,27.241 C42.269,27.241 40.869,25.840 40.869,24.114 C40.869,22.387 42.269,20.987 43.996,20.987 C45.723,20.987 47.124,22.387 47.124,24.114 Z" id="path-4" class="cls-6" fill-rule="evenodd"/>
    <path d="M44.369,32.165 C40.134,32.165 36.688,28.720 36.688,24.486 C36.688,20.252 40.134,16.807 44.369,16.807 C48.603,16.807 52.048,20.252 52.048,24.486 C52.048,28.720 48.603,32.165 44.369,32.165 ZM44.369,19.806 C41.788,19.806 39.688,21.906 39.688,24.486 C39.688,27.066 41.788,29.165 44.369,29.165 C46.949,29.165 49.048,27.066 49.048,24.486 C49.048,21.906 46.949,19.806 44.369,19.806 Z" id="path-5" class="cls-6" fill-rule="evenodd"/>
    <path d="M20.997,32.165 C16.763,32.165 13.317,28.720 13.317,24.486 C13.317,20.252 16.763,16.807 20.997,16.807 C25.232,16.807 28.677,20.252 28.677,24.486 C28.677,28.720 25.232,32.165 20.997,32.165 ZM20.997,19.806 C18.416,19.806 16.317,21.906 16.317,24.486 C16.317,27.066 18.416,29.165 20.997,29.165 C23.578,29.165 25.677,27.066 25.677,24.486 C25.677,21.906 23.578,19.806 20.997,19.806 Z" id="path-6" class="cls-6" fill-rule="evenodd"/>
    <path d="M23.752,24.114 C23.752,25.840 22.352,27.241 20.625,27.241 C18.898,27.241 17.498,25.840 17.498,24.114 C17.498,22.387 18.898,20.987 20.625,20.987 C22.352,20.987 23.752,22.387 23.752,24.114 Z" id="path-7" class="cls-6" fill-rule="evenodd"/>
    <path d="M31.602,63.170 C14.183,63.170 0.012,49.001 0.012,31.584 C0.012,14.168 14.183,-0.001 31.602,-0.001 C49.020,-0.001 63.191,14.168 63.191,31.584 C63.191,49.001 49.020,63.170 31.602,63.170 ZM31.602,2.998 C15.837,2.998 3.012,15.822 3.012,31.584 C3.012,47.347 15.837,60.170 31.602,60.170 C47.366,60.170 60.191,47.347 60.191,31.584 C60.191,15.822 47.366,2.998 31.602,2.998 Z" id="path-8" class="cls-6" fill-rule="evenodd"/>
  </g>
</svg>
