<svg xmlns="http://www.w3.org/2000/svg" xmlns:xlink="http://www.w3.org/1999/xlink" preserveAspectRatio="xMidYMid" width="68" height="65" viewBox="0 0 68 65">
  <defs>
    <style>

      .cls-3 {
        fill: #edc951;
      }

      .cls-4 {
        fill: #53ecf4;
      }

      .cls-5 {
        fill: #8b71b5;
      }

      .cls-6 {
        fill: #000000;
      }
    </style>
  </defs>
  <g id="group-32svg">
    <path d="M67.356,33.945 C67.356,50.813 53.680,64.486 36.811,64.486 C19.941,64.486 6.265,50.813 6.265,33.945 C6.265,17.077 19.941,3.403 36.811,3.403 C53.680,3.403 67.356,17.077 67.356,33.945 Z" id="path-1" class="cls-3" fill-rule="evenodd"/>
    <path d="M26.752,14.797 C27.247,19.020 25.187,20.927 20.935,20.927 C16.683,20.927 14.843,19.008 15.432,14.797 C16.059,10.314 20.935,5.217 20.935,5.217 C20.935,5.217 26.253,10.549 26.752,14.797 Z" id="path-2" class="cls-4" fill-rule="evenodd"/>
    <path d="M52.518,43.808 C52.518,49.808 46.961,54.807 40.107,54.807 C40.107,54.807 33.901,54.807 33.901,54.807 C27.047,54.807 21.490,49.808 21.490,43.808 C21.490,43.808 52.518,43.808 52.518,43.808 Z" id="path-3" class="cls-5" fill-rule="evenodd"/>
    <path d="M46.289,26.481 C46.289,28.522 44.634,30.176 42.594,30.176 C40.553,30.176 38.899,28.522 38.899,26.481 C38.899,24.440 40.553,22.786 42.594,22.786 C44.634,22.786 46.289,24.440 46.289,26.481 Z" id="path-4" class="cls-6" fill-rule="evenodd"/>
    <path d="M25.042,26.481 C25.042,28.522 23.388,30.176 21.348,30.176 C19.307,30.176 17.652,28.522 17.652,26.481 C17.652,24.440 19.307,22.786 21.348,22.786 C23.388,22.786 25.042,24.440 25.042,26.481 Z" id="path-5" class="cls-6" fill-rule="evenodd"/>
    <path d="M16.162,19.564 C13.498,19.564 11.616,18.889 10.409,17.501 C9.241,16.158 8.825,14.215 9.174,11.726 C9.860,6.820 14.865,1.539 15.078,1.317 C15.357,1.025 15.743,0.858 16.146,0.854 C16.528,0.864 16.938,1.008 17.224,1.295 C17.457,1.527 22.916,7.049 23.469,11.759 C23.754,14.188 23.291,16.102 22.094,17.448 C20.845,18.852 18.850,19.564 16.162,19.564 ZM16.194,4.598 C14.815,6.273 12.527,9.404 12.144,12.141 C11.922,13.733 12.100,14.874 12.672,15.532 C13.268,16.217 14.442,16.564 16.162,16.564 C17.956,16.564 19.198,16.190 19.853,15.454 C20.456,14.776 20.670,13.650 20.489,12.109 C20.204,9.679 17.844,6.497 16.194,4.598 Z" id="path-6" class="cls-6" fill-rule="evenodd"/>
    <path d="M32.038,64.078 C14.368,64.078 -0.008,49.704 -0.008,32.036 C-0.008,23.244 3.482,15.044 9.820,8.945 C10.417,8.372 11.367,8.389 11.941,8.986 C12.516,9.583 12.498,10.533 11.900,11.107 C6.156,16.634 2.992,24.067 2.992,32.036 C2.992,48.050 16.022,61.078 32.038,61.078 C48.054,61.078 61.083,48.050 61.083,32.036 C61.083,16.022 48.054,2.994 32.038,2.994 C27.660,2.994 23.452,3.944 19.532,5.816 C18.784,6.172 17.888,5.856 17.532,5.109 C17.175,4.362 17.491,3.467 18.239,3.110 C22.565,1.042 27.208,-0.006 32.038,-0.006 C49.708,-0.006 64.083,14.368 64.083,32.036 C64.083,49.704 49.708,64.078 32.038,64.078 Z" id="path-7" class="cls-6" fill-rule="evenodd"/>
    <path d="M35.334,52.807 C35.334,52.807 29.128,52.807 29.128,52.807 C21.458,52.807 15.217,47.200 15.217,40.309 C15.217,39.480 15.889,38.809 16.717,38.809 C16.717,38.809 47.745,38.809 47.745,38.809 C48.574,38.809 49.245,39.480 49.245,40.309 C49.245,47.200 43.004,52.807 35.334,52.807 ZM18.353,41.809 C19.182,46.336 23.698,49.808 29.128,49.808 C29.128,49.808 35.334,49.808 35.334,49.808 C40.764,49.808 45.281,46.336 46.109,41.809 C46.109,41.809 18.353,41.809 18.353,41.809 Z" id="path-8" class="cls-6" fill-rule="evenodd"/>
  </g>
</svg>
