<svg xmlns="http://www.w3.org/2000/svg" xmlns:xlink="http://www.w3.org/1999/xlink" preserveAspectRatio="xMidYMid" width="59" height="66" viewBox="0 0 59 66">
  <defs>
    <style>

      .cls-3 {
        fill: #ff917b;
      }

      .cls-4 {
        fill: #edc951;
      }

      .cls-5 {
        fill: #000000;
      }
    </style>
  </defs>
  <g id="group-42svg">
    <path d="M47.985,17.031 C47.985,17.031 49.791,14.114 49.791,14.114 C49.791,6.521 43.664,3.985 36.071,3.985 C36.071,3.985 29.197,3.985 29.197,3.985 C21.604,3.985 15.476,6.521 15.476,14.114 C15.476,14.114 17.283,17.269 17.283,17.269 C17.283,17.269 17.283,17.269 17.283,17.269 " id="path-1" class="cls-3" fill-rule="evenodd"/>
    <path d="M59.050,38.716 C59.050,52.897 47.552,64.394 33.369,64.394 C19.185,64.394 7.687,52.897 7.687,38.716 C7.687,24.534 19.185,13.038 33.369,13.038 C47.552,13.038 59.050,24.534 59.050,38.716 Z" id="path-2" class="cls-4" fill-rule="evenodd"/>
    <path d="M12.418,16.684 C11.888,16.684 11.374,16.403 11.101,15.905 C11.101,15.905 9.295,12.612 9.295,12.612 C9.174,12.391 9.110,12.143 9.110,11.891 C9.110,4.325 14.658,-0.014 24.331,-0.014 C24.331,-0.014 31.205,-0.014 31.205,-0.014 C40.877,-0.014 46.425,4.325 46.425,11.891 C46.425,12.150 46.358,12.404 46.230,12.629 C46.230,12.629 44.424,15.823 44.424,15.823 C44.017,16.545 43.103,16.799 42.380,16.391 C41.659,15.983 41.405,15.068 41.813,14.347 C41.813,14.347 43.418,11.507 43.418,11.507 C43.191,4.477 36.681,2.985 31.205,2.985 C31.205,2.985 24.331,2.985 24.331,2.985 C18.852,2.985 12.338,4.478 12.116,11.517 C12.116,11.517 13.732,14.463 13.732,14.463 C14.130,15.189 13.864,16.101 13.138,16.499 C12.909,16.625 12.662,16.684 12.418,16.684 Z" id="path-3" class="cls-5" fill-rule="evenodd"/>
    <path d="M40.349,30.008 C40.349,31.777 38.915,33.212 37.145,33.212 C35.375,33.212 33.941,31.777 33.941,30.008 C33.941,28.238 35.375,26.804 37.145,26.804 C38.915,26.804 40.349,28.238 40.349,30.008 Z" id="path-4" class="cls-5" fill-rule="evenodd"/>
    <path d="M21.925,30.008 C21.925,31.777 20.491,33.212 18.721,33.212 C16.951,33.212 15.517,31.777 15.517,30.008 C15.517,28.238 16.951,26.804 18.721,26.804 C20.491,26.804 21.925,28.238 21.925,30.008 Z" id="path-5" class="cls-5" fill-rule="evenodd"/>
    <path d="M30.425,52.979 C30.425,52.979 25.975,52.979 25.975,52.979 C20.143,52.979 15.574,48.569 15.574,42.939 C15.574,42.110 16.246,41.439 17.074,41.439 C17.903,41.439 18.574,42.110 18.574,42.939 C18.574,46.953 21.756,49.980 25.975,49.980 C25.975,49.980 30.425,49.980 30.425,49.980 C34.713,49.980 37.826,47.169 37.826,43.298 C37.826,42.469 38.497,41.798 39.326,41.798 C40.154,41.798 40.826,42.469 40.826,43.298 C40.826,48.817 36.354,52.979 30.425,52.979 Z" id="path-6" class="cls-5" fill-rule="evenodd"/>
    <path d="M27.975,65.285 C12.542,65.285 -0.014,52.731 -0.014,37.300 C-0.014,21.870 12.542,9.316 27.975,9.316 C43.407,9.316 55.962,21.870 55.962,37.300 C55.962,52.731 43.407,65.285 27.975,65.285 ZM27.975,12.315 C14.196,12.315 2.986,23.523 2.986,37.300 C2.986,51.078 14.196,62.286 27.975,62.286 C41.753,62.286 52.962,51.078 52.962,37.300 C52.962,23.523 41.753,12.315 27.975,12.315 Z" id="path-7" class="cls-5" fill-rule="evenodd"/>
  </g>
</svg>
