<svg xmlns="http://www.w3.org/2000/svg" xmlns:xlink="http://www.w3.org/1999/xlink" preserveAspectRatio="xMidYMid" width="67" height="65" viewBox="0 0 67 65">
  <defs>
    <style>

      .cls-3 {
        fill: #edc951;
      }

      .cls-4 {
        fill: #8b71b5;
      }

      .cls-5 {
        fill: #000000;
      }
    </style>
  </defs>
  <g id="group-12svg">
    <path d="M66.410,33.963 C66.410,50.831 52.734,64.505 35.865,64.505 C18.995,64.505 5.319,50.831 5.319,33.963 C5.319,17.095 18.995,3.421 35.865,3.421 C52.734,3.421 66.410,17.095 66.410,33.963 Z" id="path-1" class="cls-3" fill-rule="evenodd"/>
    <path d="M50.931,51.835 C50.931,45.717 45.971,40.777 39.853,40.777 C39.853,40.777 34.313,40.777 34.313,40.777 C28.195,40.777 23.236,45.664 23.236,51.782 C23.236,51.782 50.931,51.835 50.931,51.835 Z" id="path-2" class="cls-4" fill-rule="evenodd"/>
    <path d="M25.064,23.450 C24.681,23.450 24.297,23.303 24.004,23.010 C22.522,21.529 20.070,21.477 18.649,22.898 C18.063,23.483 17.113,23.483 16.528,22.898 C15.942,22.312 15.942,21.362 16.528,20.777 C19.100,18.207 23.495,18.259 26.125,20.890 C26.711,21.475 26.711,22.425 26.125,23.010 C25.832,23.303 25.448,23.450 25.064,23.450 Z" id="path-3" class="cls-5" fill-rule="evenodd"/>
    <path d="M46.087,23.450 C45.704,23.450 45.320,23.303 45.027,23.010 C43.544,21.529 41.091,21.478 39.671,22.898 C39.085,23.483 38.135,23.483 37.550,22.898 C36.964,22.312 36.964,21.362 37.550,20.777 C40.121,18.206 44.516,18.258 47.148,20.890 C47.734,21.475 47.734,22.425 47.148,23.010 C46.855,23.303 46.471,23.450 46.087,23.450 Z" id="path-4" class="cls-5" fill-rule="evenodd"/>
    <path d="M46.158,49.776 C46.154,49.776 46.150,49.776 46.146,49.776 C46.146,49.776 18.451,49.752 18.451,49.752 C17.627,49.746 16.963,49.171 16.963,48.347 C16.963,41.364 22.605,35.777 29.541,35.777 C29.541,35.777 35.080,35.777 35.080,35.777 C41.898,35.777 47.658,41.674 47.658,48.653 C47.658,49.053 47.498,49.248 47.214,49.530 C46.933,49.808 46.553,49.776 46.158,49.776 ZM20.076,46.954 C20.076,46.954 44.540,47.141 44.540,47.141 C43.810,42.475 39.774,38.777 35.080,38.777 C35.080,38.777 29.541,38.777 29.541,38.777 C24.761,38.777 20.787,42.329 20.076,46.954 Z" id="path-5" class="cls-5" fill-rule="evenodd"/>
    <path d="M32.046,64.096 C14.376,64.096 0.001,49.722 0.001,32.054 C0.001,14.386 14.376,0.013 32.046,0.013 C49.716,0.013 64.092,14.386 64.092,32.054 C64.092,49.722 49.716,64.096 32.046,64.096 ZM32.046,3.012 C16.031,3.012 3.001,16.041 3.001,32.054 C3.001,48.068 16.031,61.096 32.046,61.096 C48.062,61.096 61.092,48.068 61.092,32.054 C61.092,16.041 48.062,3.012 32.046,3.012 Z" id="path-6" class="cls-5" fill-rule="evenodd"/>
    <path d="M46.158,50.285 C45.746,50.285 45.336,50.116 45.040,49.786 C44.569,49.264 33.701,37.538 19.440,49.778 C18.812,50.318 17.866,50.246 17.325,49.617 C16.785,48.989 16.857,48.042 17.486,47.502 C34.019,33.308 47.146,47.640 47.277,47.787 C47.829,48.405 47.774,49.353 47.156,49.905 C46.870,50.160 46.514,50.285 46.158,50.285 Z" id="path-7" class="cls-5" fill-rule="evenodd"/>
  </g>
</svg>
