<svg xmlns="http://www.w3.org/2000/svg" xmlns:xlink="http://www.w3.org/1999/xlink" preserveAspectRatio="xMidYMid" width="67" height="65" viewBox="0 0 67 65">
  <defs>
    <style>

      .cls-3 {
        fill: #edc951;
      }

      .cls-4 {
        fill: #8b71b5;
      }

      .cls-5 {
        fill: #ffffff;
      }

      .cls-7 {
        fill: #000000;
      }
    </style>
  </defs>
  <g id="group-14svg">
    <path d="M66.393,34.419 C66.393,51.035 52.922,64.505 36.304,64.505 C19.685,64.505 6.214,51.035 6.214,34.419 C6.214,17.803 19.685,4.333 36.304,4.333 C52.922,4.333 66.393,17.803 66.393,34.419 Z" id="path-1" class="cls-3" fill-rule="evenodd"/>
    <path d="M51.777,43.277 C51.777,50.276 46.303,55.275 39.551,55.275 C39.551,55.275 33.437,55.275 33.437,55.275 C26.685,55.275 21.212,50.276 21.212,43.277 C21.212,43.277 51.777,43.277 51.777,43.277 Z" id="path-2" class="cls-4" fill-rule="evenodd"/>
    <path d="M53.439,29.046 C53.439,32.006 51.039,34.407 48.078,34.407 C45.117,34.407 42.717,32.006 42.717,29.046 C42.717,26.085 45.117,23.685 48.078,23.685 C51.039,23.685 53.439,26.085 53.439,29.046 Z" id="path-3" class="cls-5" fill-rule="evenodd"/>
    <path d="M31.565,29.046 C31.565,32.006 29.165,34.407 26.204,34.407 C23.243,34.407 20.842,32.006 20.842,29.046 C20.842,26.085 23.243,23.685 26.204,23.685 C29.165,23.685 31.565,26.085 31.565,29.046 Z" id="path-4" class="cls-5" fill-rule="evenodd"/>
    <path d="M44.993,23.883 C44.993,26.069 43.221,27.842 41.034,27.842 C38.848,27.842 37.075,26.069 37.075,23.883 C37.075,21.697 38.848,19.924 41.034,19.924 C43.221,19.924 44.993,21.697 44.993,23.883 Z" id="path-5" class="cls-7" fill-rule="evenodd"/>
    <path d="M42.436,33.086 C38.653,33.086 35.575,30.008 35.575,26.225 C35.575,22.443 38.653,19.365 42.436,19.365 C46.219,19.365 49.297,22.443 49.297,26.225 C49.297,30.008 46.219,33.086 42.436,33.086 ZM42.436,22.365 C40.307,22.365 38.575,24.097 38.575,26.225 C38.575,28.354 40.307,30.086 42.436,30.086 C44.565,30.086 46.297,28.354 46.297,26.225 C46.297,24.097 44.565,22.365 42.436,22.365 Z" id="path-6" class="cls-7" fill-rule="evenodd"/>
    <path d="M20.562,33.086 C16.779,33.086 13.701,30.008 13.701,26.225 C13.701,22.443 16.779,19.365 20.562,19.365 C24.345,19.365 27.423,22.443 27.423,26.225 C27.423,30.008 24.345,33.086 20.562,33.086 ZM20.562,22.365 C18.433,22.365 16.701,24.097 16.701,26.225 C16.701,28.354 18.433,30.086 20.562,30.086 C22.691,30.086 24.423,28.354 24.423,26.225 C24.423,24.097 22.691,22.365 20.562,22.365 Z" id="path-7" class="cls-7" fill-rule="evenodd"/>
    <path d="M23.119,23.883 C23.119,26.069 21.346,27.842 19.160,27.842 C16.973,27.842 15.201,26.069 15.201,23.883 C15.201,21.697 16.973,19.924 19.160,19.924 C21.346,19.924 23.119,21.697 23.119,23.883 Z" id="path-8" class="cls-7" fill-rule="evenodd"/>
    <path d="M31.602,63.184 C14.184,63.184 0.013,49.015 0.013,31.598 C0.013,14.182 14.184,0.013 31.602,0.013 C49.020,0.013 63.192,14.182 63.192,31.598 C63.192,49.015 49.020,63.184 31.602,63.184 ZM31.602,3.012 C15.838,3.012 3.013,15.836 3.013,31.598 C3.013,47.361 15.838,60.185 31.602,60.185 C47.367,60.185 60.192,47.361 60.192,31.598 C60.192,15.836 47.367,3.012 31.602,3.012 Z" id="path-9" class="cls-7" fill-rule="evenodd"/>
    <path d="M33.909,53.275 C33.909,53.275 27.796,53.275 27.796,53.275 C20.228,53.275 14.070,47.669 14.070,40.777 C14.070,39.948 14.742,39.277 15.570,39.277 C15.570,39.277 46.135,39.277 46.135,39.277 C46.963,39.277 47.635,39.948 47.635,40.777 C47.635,47.669 41.478,53.275 33.909,53.275 ZM17.204,42.277 C18.018,46.804 22.458,50.276 27.796,50.276 C27.796,50.276 33.909,50.276 33.909,50.276 C39.247,50.276 43.687,46.804 44.501,42.277 C44.501,42.277 17.204,42.277 17.204,42.277 Z" id="path-10" class="cls-7" fill-rule="evenodd"/>
  </g>
</svg>
