<svg xmlns="http://www.w3.org/2000/svg" xmlns:xlink="http://www.w3.org/1999/xlink" preserveAspectRatio="xMidYMid" width="68" height="65" viewBox="0 0 68 65">
  <defs>
    <style>

      .cls-3 {
        fill: #edc951;
      }

      .cls-4 {
        fill: #e56a77;
      }

      .cls-6 {
        fill: #000000;
      }
    </style>
  </defs>
  <g id="group-36svg">
    <path d="M67.313,34.401 C67.313,51.017 53.842,64.486 37.224,64.486 C20.606,64.486 7.134,51.017 7.134,34.401 C7.134,17.785 20.606,4.315 37.224,4.315 C53.842,4.315 67.313,17.785 67.313,34.401 Z" id="path-1" class="cls-3" fill-rule="evenodd"/>
    <path d="M52.889,20.595 C51.941,20.595 51.070,21.771 50.364,22.296 C49.659,21.771 48.787,20.595 47.840,20.595 C45.500,20.595 43.602,22.492 43.602,24.832 C43.602,27.172 49.659,34.081 50.364,33.556 C51.070,34.081 57.126,27.172 57.126,24.832 C57.126,22.492 55.229,20.595 52.889,20.595 Z" id="path-2" class="cls-4" fill-rule="evenodd"/>
    <path d="M28.800,20.595 C27.853,20.595 26.981,21.771 26.275,22.296 C25.570,21.771 24.698,20.595 23.751,20.595 C21.411,20.595 19.514,22.492 19.514,24.832 C19.514,27.172 25.570,34.081 26.275,33.556 C26.981,34.081 33.037,27.172 33.037,24.832 C33.037,22.492 31.140,20.595 28.800,20.595 Z" id="path-3" class="cls-4" fill-rule="evenodd"/>
    <path d="M34.366,50.807 C34.366,50.807 29.311,50.807 29.311,50.807 C22.800,50.807 17.700,45.806 17.700,39.421 C17.700,38.592 18.371,37.921 19.200,37.921 C20.028,37.921 20.700,38.592 20.700,39.421 C20.700,44.124 24.482,47.808 29.311,47.808 C29.311,47.808 34.366,47.808 34.366,47.808 C39.275,47.808 42.976,44.298 42.976,39.643 C42.976,38.814 43.648,38.143 44.477,38.143 C45.305,38.143 45.977,38.814 45.977,39.643 C45.977,45.903 40.876,50.807 34.366,50.807 Z" id="path-4" class="cls-6" fill-rule="evenodd"/>
    <path d="M44.830,32.264 C44.792,32.265 44.758,32.263 44.722,32.261 C44.690,32.263 44.657,32.264 44.624,32.264 C42.412,32.264 36.461,24.790 36.461,22.011 C36.461,18.848 39.035,16.274 42.198,16.274 C43.248,16.274 44.076,16.881 44.722,17.460 C45.369,16.881 46.197,16.274 47.247,16.274 C50.410,16.274 52.984,18.848 52.984,22.011 C52.984,23.746 51.204,26.321 49.710,28.174 C46.442,32.231 45.275,32.264 44.830,32.264 ZM42.136,19.268 C40.689,19.274 39.461,20.502 39.461,22.011 C39.507,23.258 43.149,27.936 44.722,29.136 C46.295,27.936 49.937,23.258 49.984,22.008 C49.984,20.502 48.756,19.274 47.247,19.274 C47.110,19.325 46.642,19.767 46.391,20.004 C46.120,20.259 45.859,20.500 45.618,20.679 C45.085,21.075 44.359,21.075 43.827,20.679 C43.585,20.500 43.325,20.259 43.053,20.004 C42.802,19.766 42.334,19.325 42.136,19.268 Z" id="path-5" class="cls-6" fill-rule="evenodd"/>
    <path d="M20.741,32.264 C20.705,32.265 20.669,32.263 20.633,32.261 C20.601,32.263 20.568,32.264 20.536,32.264 C18.323,32.264 12.372,24.790 12.372,22.011 C12.372,18.848 14.946,16.274 18.109,16.274 C19.159,16.274 19.987,16.881 20.633,17.460 C21.280,16.882 22.108,16.274 23.158,16.274 C26.321,16.274 28.895,18.848 28.895,22.011 C28.895,23.746 27.115,26.321 25.621,28.174 C22.353,32.231 21.186,32.264 20.741,32.264 ZM18.047,19.268 C16.600,19.274 15.372,20.502 15.372,22.011 C15.418,23.258 19.060,27.936 20.633,29.136 C22.207,27.936 25.849,23.258 25.895,22.008 C25.895,20.502 24.667,19.274 23.158,19.274 C23.021,19.325 22.554,19.766 22.303,20.003 C22.031,20.259 21.770,20.500 21.528,20.679 C20.997,21.075 20.270,21.074 19.738,20.679 C19.497,20.500 19.236,20.259 18.964,20.004 C18.713,19.766 18.246,19.325 18.047,19.268 Z" id="path-6" class="cls-6" fill-rule="evenodd"/>
    <path d="M31.582,63.166 C14.164,63.166 -0.007,48.997 -0.007,31.580 C-0.007,14.164 14.164,-0.006 31.582,-0.006 C49.000,-0.006 63.171,14.164 63.171,31.580 C63.171,48.997 49.000,63.166 31.582,63.166 ZM31.582,2.994 C15.818,2.994 2.993,15.818 2.993,31.580 C2.993,47.343 15.818,60.166 31.582,60.166 C47.346,60.166 60.171,47.343 60.171,31.580 C60.171,15.818 47.346,2.994 31.582,2.994 Z" id="path-7" class="cls-6" fill-rule="evenodd"/>
  </g>
</svg>
