<svg xmlns="http://www.w3.org/2000/svg" xmlns:xlink="http://www.w3.org/1999/xlink" preserveAspectRatio="xMidYMid" width="67" height="65" viewBox="0 0 67 65">
  <defs>
    <style>

      .cls-3 {
        fill: #edc951;
      }

      .cls-4 {
        fill: #ffffff;
      }

      .cls-6 {
        fill: #000000;
      }
    </style>
  </defs>
  <g id="group-24svg">
    <path d="M66.393,34.403 C66.393,51.020 52.922,64.490 36.304,64.490 C19.685,64.490 6.214,51.020 6.214,34.403 C6.214,17.788 19.685,4.318 36.304,4.318 C52.922,4.318 66.393,17.788 66.393,34.403 Z" id="path-1" class="cls-3" fill-rule="evenodd"/>
    <path d="M56.191,27.305 C56.191,30.718 53.424,33.485 50.011,33.485 C46.598,33.485 43.831,30.718 43.831,27.305 C43.831,23.892 46.598,21.126 50.011,21.126 C53.424,21.126 56.191,23.892 56.191,27.305 Z" id="path-2" class="cls-4" fill-rule="evenodd"/>
    <path d="M32.820,27.305 C32.820,30.718 30.053,33.485 26.640,33.485 C23.227,33.485 20.459,30.718 20.459,27.305 C20.459,23.892 23.227,21.126 26.640,21.126 C30.053,21.126 32.820,23.892 32.820,27.305 Z" id="path-3" class="cls-4" fill-rule="evenodd"/>
    <path d="M47.124,24.112 C47.124,25.839 45.724,27.239 43.997,27.239 C42.269,27.239 40.870,25.839 40.870,24.112 C40.870,22.385 42.269,20.986 43.997,20.986 C45.724,20.986 47.124,22.385 47.124,24.112 Z" id="path-4" class="cls-6" fill-rule="evenodd"/>
    <path d="M44.369,32.164 C40.134,32.164 36.689,28.719 36.689,24.485 C36.689,20.250 40.134,16.805 44.369,16.805 C48.604,16.805 52.049,20.250 52.049,24.485 C52.049,28.719 48.604,32.164 44.369,32.164 ZM44.369,19.805 C41.789,19.805 39.689,21.904 39.689,24.485 C39.689,27.065 41.789,29.164 44.369,29.164 C46.950,29.164 49.049,27.065 49.049,24.485 C49.049,21.904 46.950,19.805 44.369,19.805 Z" id="path-5" class="cls-6" fill-rule="evenodd"/>
    <path d="M20.998,32.164 C16.763,32.164 13.318,28.719 13.318,24.485 C13.318,20.250 16.763,16.805 20.998,16.805 C25.232,16.805 28.678,20.250 28.678,24.485 C28.678,28.719 25.232,32.164 20.998,32.164 ZM20.998,19.805 C18.417,19.805 16.318,21.904 16.318,24.485 C16.318,27.065 18.417,29.164 20.998,29.164 C23.579,29.164 25.678,27.065 25.678,24.485 C25.678,21.904 23.579,19.805 20.998,19.805 Z" id="path-6" class="cls-6" fill-rule="evenodd"/>
    <path d="M23.753,24.112 C23.753,25.839 22.352,27.239 20.625,27.239 C18.898,27.239 17.499,25.839 17.499,24.112 C17.499,22.385 18.898,20.986 20.625,20.986 C22.352,20.986 23.753,22.385 23.753,24.112 Z" id="path-7" class="cls-6" fill-rule="evenodd"/>
    <path d="M31.602,63.169 C14.184,63.169 0.013,48.999 0.013,31.583 C0.013,14.167 14.184,-0.003 31.602,-0.003 C49.020,-0.003 63.192,14.167 63.192,31.583 C63.192,48.999 49.020,63.169 31.602,63.169 ZM31.602,2.997 C15.838,2.997 3.013,15.821 3.013,31.583 C3.013,47.346 15.838,60.169 31.602,60.169 C47.367,60.169 60.192,47.346 60.192,31.583 C60.192,15.821 47.367,2.997 31.602,2.997 Z" id="path-8" class="cls-6" fill-rule="evenodd"/>
    <path d="M45.031,47.261 C45.031,47.261 17.031,47.261 17.031,47.261 C16.203,47.261 15.531,46.589 15.531,45.761 C15.531,44.932 16.203,44.261 17.031,44.261 C17.031,44.261 45.031,44.261 45.031,44.261 C45.860,44.261 46.531,44.932 46.531,45.761 C46.531,46.589 45.860,47.261 45.031,47.261 Z" id="path-9" class="cls-6" fill-rule="evenodd"/>
  </g>
</svg>
