<svg xmlns="http://www.w3.org/2000/svg" xmlns:xlink="http://www.w3.org/1999/xlink" preserveAspectRatio="xMidYMid" width="68" height="65" viewBox="0 0 68 65">
  <defs>
    <style>

      .cls-3 {
        fill: #edc951;
      }

      .cls-4 {
        fill: #ffffff;
      }

      .cls-6 {
        fill: #8b71b5;
      }

      .cls-7 {
        fill: #000000;
      }
    </style>
  </defs>
  <g id="group-47svg">
    <path d="M67.313,34.404 C67.313,51.020 53.842,64.490 37.224,64.490 C20.605,64.490 7.135,51.020 7.135,34.404 C7.135,17.788 20.605,4.318 37.224,4.318 C53.842,4.318 67.313,17.788 67.313,34.404 Z" id="path-1" class="cls-3" fill-rule="evenodd"/>
    <path d="M55.513,26.836 C55.513,30.541 52.509,33.545 48.803,33.545 C45.098,33.545 42.093,30.541 42.093,26.836 C42.093,23.130 45.098,20.127 48.803,20.127 C52.509,20.127 55.513,23.130 55.513,26.836 Z" id="path-2" class="cls-4" fill-rule="evenodd"/>
    <path d="M33.201,26.836 C33.201,30.541 30.196,33.545 26.491,33.545 C22.785,33.545 19.781,30.541 19.781,26.836 C19.781,23.130 22.785,20.127 26.491,20.127 C30.196,20.127 33.201,23.130 33.201,26.836 Z" id="path-3" class="cls-4" fill-rule="evenodd"/>
    <path d="M45.569,44.053 C41.527,38.071 37.081,41.951 37.081,41.951 C37.081,41.951 32.614,38.071 28.572,44.053 C27.018,46.352 25.916,46.881 25.144,46.663 C27.550,49.976 32.307,54.338 37.081,46.154 C41.857,54.341 46.610,49.972 49.012,46.660 C48.238,46.885 47.131,46.363 45.569,44.053 Z" id="path-4" class="cls-6" fill-rule="evenodd"/>
    <path d="M43.161,32.224 C38.634,32.224 34.951,28.541 34.951,24.015 C34.951,19.489 38.634,15.806 43.161,15.806 C47.688,15.806 51.371,19.489 51.371,24.015 C51.371,28.541 47.688,32.224 43.161,32.224 ZM43.161,18.806 C40.288,18.806 37.951,21.143 37.951,24.015 C37.951,26.887 40.288,29.224 43.161,29.224 C46.034,29.224 48.371,26.887 48.371,24.015 C48.371,21.143 46.034,18.806 43.161,18.806 Z" id="path-5" class="cls-7" fill-rule="evenodd"/>
    <path d="M20.850,32.224 C16.322,32.224 12.640,28.541 12.640,24.015 C12.640,19.489 16.322,15.806 20.850,15.806 C25.376,15.806 29.059,19.489 29.059,24.015 C29.059,28.541 25.376,32.224 20.850,32.224 ZM20.850,18.806 C17.977,18.806 15.640,21.143 15.640,24.015 C15.640,26.887 17.977,29.224 20.850,29.224 C23.722,29.224 26.059,26.887 26.059,24.015 C26.059,21.143 23.722,18.806 20.850,18.806 Z" id="path-6" class="cls-7" fill-rule="evenodd"/>
    <path d="M46.152,23.611 C46.152,25.486 44.632,27.006 42.757,27.006 C40.882,27.006 39.361,25.486 39.361,23.611 C39.361,21.736 40.882,20.216 42.757,20.216 C44.632,20.216 46.152,21.736 46.152,23.611 Z" id="path-7" class="cls-7" fill-rule="evenodd"/>
    <path d="M23.840,23.611 C23.840,25.486 22.320,27.006 20.445,27.006 C18.570,27.006 17.050,25.486 17.050,23.611 C17.050,21.736 18.570,20.216 20.445,20.216 C22.320,20.216 23.840,21.736 23.840,23.611 Z" id="path-8" class="cls-7" fill-rule="evenodd"/>
    <path d="M25.564,49.513 C23.080,49.513 20.564,47.857 18.289,44.724 C17.914,44.207 17.907,43.509 18.272,42.985 C18.623,42.482 19.243,42.247 19.834,42.380 C19.972,42.329 20.587,42.023 21.687,40.392 C23.921,37.087 26.379,36.393 28.047,36.393 C29.478,36.393 30.661,36.881 31.437,37.321 C32.213,36.881 33.393,36.393 34.819,36.393 C36.484,36.393 38.937,37.087 41.171,40.392 C42.427,42.252 43.050,42.388 43.056,42.389 C43.671,42.209 44.279,42.445 44.649,42.970 C45.018,43.495 44.961,44.200 44.585,44.719 C42.312,47.856 39.797,49.513 37.312,49.513 C35.187,49.513 33.217,48.345 31.439,46.034 C29.661,48.345 27.691,49.513 25.564,49.513 ZM22.022,44.534 C23.012,45.563 24.274,46.514 25.564,46.514 C27.451,46.514 29.096,44.373 30.143,42.578 C30.413,42.117 30.906,41.834 31.439,41.834 C31.439,41.834 31.439,41.834 31.439,41.834 C31.973,41.834 32.467,42.117 32.735,42.578 C33.782,44.373 35.427,46.514 37.312,46.514 C38.598,46.514 39.856,45.567 40.844,44.540 C40.144,43.994 39.432,43.177 38.685,42.072 C37.483,40.294 36.184,39.393 34.819,39.393 C33.479,39.393 32.436,40.252 32.426,40.260 C31.862,40.753 31.021,40.753 30.456,40.263 C30.455,40.262 29.402,39.393 28.047,39.393 C26.678,39.393 25.375,40.294 24.174,42.072 C23.430,43.173 22.720,43.988 22.022,44.534 Z" id="path-9" class="cls-7" fill-rule="evenodd"/>
    <path d="M31.582,63.169 C14.163,63.169 -0.008,49.000 -0.008,31.583 C-0.008,14.167 14.163,-0.002 31.582,-0.002 C49.001,-0.002 63.172,14.167 63.172,31.583 C63.172,49.000 49.001,63.169 31.582,63.169 ZM31.582,2.997 C15.817,2.997 2.992,15.821 2.992,31.583 C2.992,47.346 15.817,60.170 31.582,60.170 C47.347,60.170 60.172,47.346 60.172,31.583 C60.172,15.821 47.347,2.997 31.582,2.997 Z" id="path-10" class="cls-7" fill-rule="evenodd"/>
  </g>
</svg>
