<svg xmlns="http://www.w3.org/2000/svg" xmlns:xlink="http://www.w3.org/1999/xlink" preserveAspectRatio="xMidYMid" width="64" height="65" viewBox="0 0 64 65">
  <defs>
    <style>

      .cls-3 {
        fill: #edc951;
      }

      .cls-4 {
        fill: #8b71b5;
      }

      .cls-5 {
        fill: #e56a77;
      }

      .cls-6 {
        fill: #000000;
      }
    </style>
  </defs>
  <g id="group-50svg">
    <path d="M63.564,34.849 C63.564,51.221 50.291,64.492 33.918,64.492 C17.544,64.492 4.270,51.221 4.270,34.849 C4.270,18.477 17.544,5.205 33.918,5.205 C50.291,5.205 63.564,18.477 63.564,34.849 Z" id="path-1" class="cls-3" fill-rule="evenodd"/>
    <path d="M45.371,41.029 C45.371,46.924 40.592,51.703 34.696,51.703 C28.801,51.703 24.020,46.924 24.020,41.029 C24.020,35.134 28.801,30.355 34.696,30.355 C40.592,30.355 45.371,35.134 45.371,41.029 Z" id="path-2" class="cls-4" fill-rule="evenodd"/>
    <path d="M28.026,47.841 C35.955,40.684 42.914,47.841 42.914,47.841 C42.914,47.841 39.651,52.083 34.383,51.696 C29.114,51.309 28.026,47.841 28.026,47.841 Z" id="path-3" class="cls-5" fill-rule="evenodd"/>
    <path d="M30.990,50.424 C24.277,50.424 18.815,44.963 18.815,38.250 C18.815,31.537 24.277,26.076 30.990,26.076 C37.704,26.076 43.166,31.537 43.166,38.250 C43.166,44.963 37.704,50.424 30.990,50.424 ZM30.990,29.076 C25.932,29.076 21.815,33.192 21.815,38.250 C21.815,43.308 25.932,47.424 30.990,47.424 C36.050,47.424 40.166,43.308 40.166,38.250 C40.166,33.192 36.050,29.076 30.990,29.076 Z" id="path-4" class="cls-6" fill-rule="evenodd"/>
    <path d="M24.319,22.738 C24.071,22.738 23.820,22.677 23.591,22.549 C23.591,22.549 21.269,21.256 21.269,21.256 C20.135,21.048 18.926,21.353 18.090,22.189 C17.504,22.775 16.555,22.775 15.969,22.189 C15.383,21.604 15.383,20.654 15.969,20.068 C16.370,19.666 16.818,19.325 17.301,19.048 C17.301,19.048 16.300,18.491 16.300,18.491 C15.576,18.088 15.315,17.174 15.719,16.451 C16.122,15.726 17.037,15.466 17.759,15.870 C17.759,15.870 22.356,18.429 22.356,18.429 C23.494,18.735 24.534,19.331 25.381,20.178 C25.910,20.707 25.969,21.545 25.518,22.142 C25.226,22.529 24.776,22.738 24.319,22.738 Z" id="path-5" class="cls-6" fill-rule="evenodd"/>
    <path d="M37.532,22.738 C37.075,22.738 36.626,22.529 36.334,22.142 C35.883,21.545 35.941,20.707 36.471,20.178 C37.317,19.331 38.357,18.735 39.496,18.429 C39.496,18.429 44.094,15.870 44.094,15.870 C44.817,15.466 45.730,15.726 46.134,16.451 C46.537,17.174 46.276,18.088 45.553,18.491 C45.553,18.491 44.552,19.048 44.552,19.048 C45.034,19.325 45.482,19.666 45.884,20.068 C46.470,20.654 46.470,21.604 45.884,22.189 C45.298,22.775 44.349,22.775 43.763,22.189 C42.928,21.354 41.726,21.044 40.583,21.256 C40.583,21.256 38.261,22.549 38.261,22.549 C38.031,22.677 37.780,22.738 37.532,22.738 Z" id="path-6" class="cls-6" fill-rule="evenodd"/>
    <path d="M31.354,50.441 C31.096,50.441 30.834,50.432 30.567,50.413 C24.354,49.957 22.946,45.692 22.889,45.511 C22.714,44.951 22.880,44.341 23.315,43.949 C25.937,41.581 28.760,40.381 31.704,40.381 C36.691,40.381 40.140,43.868 40.283,44.016 C40.803,44.551 40.852,45.385 40.396,45.976 C40.257,46.158 36.898,50.441 31.354,50.441 ZM26.241,45.414 C26.859,46.175 28.176,47.229 30.786,47.421 C33.636,47.631 35.804,46.222 36.995,45.187 C35.862,44.396 33.968,43.381 31.704,43.381 C29.848,43.381 28.014,44.064 26.241,45.414 Z" id="path-7" class="cls-6" fill-rule="evenodd"/>
    <path d="M31.139,62.287 C13.964,62.287 -0.009,48.316 -0.009,31.143 C-0.009,13.971 13.964,0.000 31.139,0.000 C48.312,0.000 62.285,13.971 62.285,31.143 C62.285,48.316 48.312,62.287 31.139,62.287 ZM31.139,3.000 C15.618,3.000 2.991,15.625 2.991,31.143 C2.991,46.662 15.618,59.287 31.139,59.287 C46.659,59.287 59.285,46.662 59.285,31.143 C59.285,15.625 46.659,3.000 31.139,3.000 Z" id="path-8" class="cls-6" fill-rule="evenodd"/>
  </g>
</svg>
