<svg xmlns="http://www.w3.org/2000/svg" xmlns:xlink="http://www.w3.org/1999/xlink" preserveAspectRatio="xMidYMid" width="66" height="65" viewBox="0 0 66 65">
  <defs>
    <style>

      .cls-3 {
        fill: #edc951;
      }

      .cls-4 {
        fill: #53ecf4;
      }

      .cls-6 {
        fill: #000000;
      }
    </style>
  </defs>
  <g id="group-40svg">
    <path d="M65.448,34.419 C65.448,51.036 51.976,64.506 35.358,64.506 C18.740,64.506 5.269,51.036 5.269,34.419 C5.269,17.804 18.740,4.334 35.358,4.334 C51.976,4.334 65.448,17.804 65.448,34.419 Z" id="path-1" class="cls-3" fill-rule="evenodd"/>
    <path d="M58.066,29.059 C58.066,33.601 54.384,37.283 49.841,37.283 C45.298,37.283 41.615,33.601 41.615,29.059 C41.615,24.516 45.298,20.834 49.841,20.834 C54.384,20.834 58.066,24.516 58.066,29.059 Z" id="path-2" class="cls-4" fill-rule="evenodd"/>
    <path d="M32.114,29.059 C32.114,33.601 28.432,37.283 23.889,37.283 C19.346,37.283 15.663,33.601 15.663,29.059 C15.663,24.516 19.346,20.834 23.889,20.834 C28.432,20.834 32.114,24.516 32.114,29.059 Z" id="path-3" class="cls-4" fill-rule="evenodd"/>
    <path d="M45.140,35.963 C39.777,35.963 35.414,31.600 35.414,26.238 C35.414,20.876 39.777,16.513 45.140,16.513 C50.502,16.513 54.865,20.876 54.865,26.238 C54.865,31.600 50.502,35.963 45.140,35.963 ZM45.140,19.513 C41.431,19.513 38.414,22.530 38.414,26.238 C38.414,29.946 41.431,32.963 45.140,32.963 C48.849,32.963 51.865,29.946 51.865,26.238 C51.865,22.530 48.849,19.513 45.140,19.513 Z" id="path-4" class="cls-6" fill-rule="evenodd"/>
    <path d="M19.188,35.963 C13.825,35.963 9.462,31.600 9.462,26.238 C9.462,20.876 13.825,16.513 19.188,16.513 C24.550,16.513 28.913,20.876 28.913,26.238 C28.913,31.600 24.550,35.963 19.188,35.963 ZM19.188,19.513 C15.478,19.513 12.462,22.530 12.462,26.238 C12.462,29.946 15.478,32.963 19.188,32.963 C22.896,32.963 25.913,29.946 25.913,26.238 C25.913,22.530 22.896,19.513 19.188,19.513 Z" id="path-5" class="cls-6" fill-rule="evenodd"/>
    <path d="M36.156,27.279 C36.156,27.279 27.156,27.279 27.156,27.279 C26.328,27.279 25.656,26.608 25.656,25.779 C25.656,24.951 26.328,24.279 27.156,24.279 C27.156,24.279 36.156,24.279 36.156,24.279 C36.984,24.279 37.656,24.951 37.656,25.779 C37.656,26.608 36.984,27.279 36.156,27.279 Z" id="path-6" class="cls-6" fill-rule="evenodd"/>
    <path d="M53.366,27.739 C52.799,27.739 52.256,27.415 52.003,26.866 C51.656,26.113 51.985,25.223 52.737,24.876 C52.737,24.876 58.755,22.104 58.755,22.104 C59.506,21.756 60.398,22.086 60.745,22.839 C61.092,23.592 60.763,24.482 60.011,24.829 C60.011,24.829 53.993,27.600 53.993,27.600 C53.790,27.694 53.576,27.739 53.366,27.739 Z" id="path-7" class="cls-6" fill-rule="evenodd"/>
    <path d="M10.862,27.739 C10.652,27.739 10.438,27.694 10.235,27.600 C10.235,27.600 4.218,24.829 4.218,24.829 C3.466,24.482 3.137,23.592 3.483,22.839 C3.830,22.086 4.721,21.756 5.474,22.104 C5.474,22.104 11.491,24.876 11.491,24.876 C12.243,25.223 12.572,26.113 12.226,26.866 C11.973,27.415 11.430,27.739 10.862,27.739 Z" id="path-8" class="cls-6" fill-rule="evenodd"/>
    <path d="M31.152,53.358 C26.892,53.358 23.400,51.737 23.197,51.641 C22.449,51.286 22.130,50.392 22.484,49.644 C22.839,48.895 23.732,48.576 24.480,48.929 C24.577,48.974 30.390,51.635 35.415,49.571 C38.193,48.430 40.278,46.014 41.614,42.390 C41.900,41.612 42.768,41.216 43.540,41.501 C44.317,41.788 44.716,42.650 44.429,43.427 C42.788,47.882 40.131,50.886 36.532,52.355 C34.725,53.093 32.875,53.358 31.152,53.358 Z" id="path-9" class="cls-6" fill-rule="evenodd"/>
    <path d="M31.598,63.185 C14.179,63.185 0.008,49.015 0.008,31.599 C0.008,14.183 14.179,0.013 31.598,0.013 C49.016,0.013 63.186,14.183 63.186,31.599 C63.186,49.015 49.016,63.185 31.598,63.185 ZM31.598,3.013 C15.833,3.013 3.008,15.837 3.008,31.599 C3.008,47.362 15.833,60.185 31.598,60.185 C47.361,60.185 60.186,47.362 60.186,31.599 C60.186,15.837 47.361,3.013 31.598,3.013 Z" id="path-10" class="cls-6" fill-rule="evenodd"/>
  </g>
</svg>
