<svg xmlns="http://www.w3.org/2000/svg" xmlns:xlink="http://www.w3.org/1999/xlink" preserveAspectRatio="xMidYMid" width="67" height="65" viewBox="0 0 67 65">
  <defs>
    <style>

      .cls-3 {
        fill: #edc951;
      }

      .cls-4 {
        fill: #ffffff;
      }

      .cls-6 {
        fill: #000000;
      }
    </style>
  </defs>
  <g id="group-21svg">
    <path d="M66.375,34.419 C66.375,51.035 52.902,64.505 36.285,64.505 C19.667,64.505 6.195,51.035 6.195,34.419 C6.195,17.803 19.667,4.333 36.285,4.333 C52.902,4.333 66.375,17.803 66.375,34.419 Z" id="path-1" class="cls-3" fill-rule="evenodd"/>
    <path d="M55.984,30.141 C55.984,33.516 53.248,36.252 49.872,36.252 C46.497,36.252 43.760,33.516 43.760,30.141 C43.760,26.766 46.497,24.030 49.872,24.030 C53.248,24.030 55.984,26.766 55.984,30.141 Z" id="path-2" class="cls-4" fill-rule="evenodd"/>
    <path d="M30.784,30.141 C30.784,33.516 28.048,36.252 24.672,36.252 C21.297,36.252 18.561,33.516 18.561,30.141 C18.561,26.766 21.297,24.030 24.672,24.030 C28.048,24.030 30.784,26.766 30.784,30.141 Z" id="path-3" class="cls-4" fill-rule="evenodd"/>
    <path d="M48.086,24.594 C48.086,27.086 46.064,29.107 43.572,29.107 C41.080,29.107 39.059,27.086 39.059,24.594 C39.059,22.101 41.080,20.081 43.572,20.081 C46.064,20.081 48.086,22.101 48.086,24.594 Z" id="path-4" class="cls-6" fill-rule="evenodd"/>
    <path d="M45.171,34.931 C40.974,34.931 37.559,31.517 37.559,27.321 C37.559,23.124 40.974,19.710 45.171,19.710 C49.368,19.710 52.782,23.124 52.782,27.321 C52.782,31.517 49.368,34.931 45.171,34.931 ZM45.171,22.709 C42.628,22.709 40.559,24.778 40.559,27.321 C40.559,29.863 42.628,31.932 45.171,31.932 C47.714,31.932 49.782,29.863 49.782,27.321 C49.782,24.778 47.714,22.709 45.171,22.709 Z" id="path-5" class="cls-6" fill-rule="evenodd"/>
    <path d="M19.971,34.931 C15.773,34.931 12.358,31.517 12.358,27.321 C12.358,23.124 15.773,19.710 19.971,19.710 C24.168,19.710 27.583,23.124 27.583,27.321 C27.583,31.517 24.168,34.931 19.971,34.931 ZM19.971,22.709 C17.428,22.709 15.358,24.778 15.358,27.321 C15.358,29.863 17.428,31.932 19.971,31.932 C22.514,31.932 24.583,29.863 24.583,27.321 C24.583,24.778 22.514,22.709 19.971,22.709 Z" id="path-6" class="cls-6" fill-rule="evenodd"/>
    <path d="M22.886,24.594 C22.886,27.086 20.865,29.107 18.372,29.107 C15.880,29.107 13.858,27.086 13.858,24.594 C13.858,22.101 15.880,20.081 18.372,20.081 C20.865,20.081 22.886,22.101 22.886,24.594 Z" id="path-7" class="cls-6" fill-rule="evenodd"/>
    <path d="M31.583,63.184 C14.165,63.184 -0.006,49.015 -0.006,31.598 C-0.006,14.182 14.165,0.013 31.583,0.013 C49.002,0.013 63.173,14.182 63.173,31.598 C63.173,49.015 49.002,63.184 31.583,63.184 ZM31.583,3.012 C15.819,3.012 2.994,15.836 2.994,31.598 C2.994,47.361 15.819,60.185 31.583,60.185 C47.348,60.185 60.173,47.361 60.173,31.598 C60.173,15.836 47.348,3.012 31.583,3.012 Z" id="path-8" class="cls-6" fill-rule="evenodd"/>
  </g>
</svg>
