<svg xmlns="http://www.w3.org/2000/svg" xmlns:xlink="http://www.w3.org/1999/xlink" preserveAspectRatio="xMidYMid" width="67" height="65" viewBox="0 0 67 65">
  <defs>
    <style>

      .cls-3 {
        fill: #edc951;
      }

      .cls-4 {
        fill: #ffffff;
      }

      .cls-6 {
        fill: #000000;
      }
    </style>
  </defs>
  <g id="group-13svg">
    <path d="M66.394,34.414 C66.394,51.030 52.922,64.500 36.304,64.500 C19.686,64.500 6.215,51.030 6.215,34.414 C6.215,17.798 19.686,4.328 36.304,4.328 C52.922,4.328 66.394,17.798 66.394,34.414 Z" id="path-1" class="cls-3" fill-rule="evenodd"/>
    <path d="M51.560,29.041 C51.560,32.002 49.159,34.402 46.198,34.402 C43.237,34.402 40.837,32.002 40.837,29.041 C40.837,26.080 43.237,23.680 46.198,23.680 C49.159,23.680 51.560,26.080 51.560,29.041 Z" id="path-2" class="cls-4" fill-rule="evenodd"/>
    <path d="M29.685,29.041 C29.685,32.002 27.285,34.402 24.324,34.402 C21.363,34.402 18.962,32.002 18.962,29.041 C18.962,26.080 21.363,23.680 24.324,23.680 C27.285,23.680 29.685,26.080 29.685,29.041 Z" id="path-3" class="cls-4" fill-rule="evenodd"/>
    <path d="M44.994,23.878 C44.994,26.065 43.221,27.837 41.035,27.837 C38.848,27.837 37.076,26.065 37.076,23.878 C37.076,21.692 38.848,19.919 41.035,19.919 C43.221,19.919 44.994,21.692 44.994,23.878 Z" id="path-4" class="cls-6" fill-rule="evenodd"/>
    <path d="M42.437,33.081 C38.654,33.081 35.576,30.003 35.576,26.221 C35.576,22.438 38.654,19.360 42.437,19.360 C46.220,19.360 49.298,22.438 49.298,26.221 C49.298,30.003 46.220,33.081 42.437,33.081 ZM42.437,22.360 C40.308,22.360 38.576,24.092 38.576,26.221 C38.576,28.349 40.308,30.081 42.437,30.081 C44.566,30.081 46.298,28.349 46.298,26.221 C46.298,24.092 44.566,22.360 42.437,22.360 Z" id="path-5" class="cls-6" fill-rule="evenodd"/>
    <path d="M20.562,33.081 C16.779,33.081 13.701,30.003 13.701,26.221 C13.701,22.438 16.779,19.360 20.562,19.360 C24.346,19.360 27.424,22.438 27.424,26.221 C27.424,30.003 24.346,33.081 20.562,33.081 ZM20.562,22.360 C18.434,22.360 16.701,24.092 16.701,26.221 C16.701,28.349 18.434,30.081 20.562,30.081 C22.691,30.081 24.424,28.349 24.424,26.221 C24.424,24.092 22.691,22.360 20.562,22.360 Z" id="path-6" class="cls-6" fill-rule="evenodd"/>
    <path d="M23.120,23.878 C23.120,26.065 21.347,27.837 19.161,27.837 C16.974,27.837 15.201,26.065 15.201,23.878 C15.201,21.692 16.974,19.919 19.161,19.919 C21.347,19.919 23.120,21.692 23.120,23.878 Z" id="path-7" class="cls-6" fill-rule="evenodd"/>
    <path d="M31.603,63.179 C14.185,63.179 0.013,49.010 0.013,31.593 C0.013,14.177 14.185,0.008 31.603,0.008 C49.021,0.008 63.192,14.177 63.192,31.593 C63.192,49.010 49.021,63.179 31.603,63.179 ZM31.603,3.007 C15.838,3.007 3.013,15.831 3.013,31.593 C3.013,47.356 15.838,60.180 31.603,60.180 C47.367,60.180 60.192,47.356 60.192,31.593 C60.192,15.831 47.367,3.007 31.603,3.007 Z" id="path-8" class="cls-6" fill-rule="evenodd"/>
    <path d="M44.969,46.839 C44.969,46.839 16.969,46.839 16.969,46.839 C16.140,46.839 15.469,46.167 15.469,45.339 C15.469,44.510 16.140,43.839 16.969,43.839 C16.969,43.839 44.969,43.839 44.969,43.839 C45.797,43.839 46.469,44.510 46.469,45.339 C46.469,46.167 45.797,46.839 44.969,46.839 Z" id="path-9" class="cls-6" fill-rule="evenodd"/>
  </g>
</svg>
