<svg xmlns="http://www.w3.org/2000/svg" xmlns:xlink="http://www.w3.org/1999/xlink" preserveAspectRatio="xMidYMid" width="65" height="65" viewBox="0 0 65 65">
  <defs>
    <style>

      .cls-3 {
        fill: #edc951;
      }

      .cls-4 {
        fill: #000000;
      }
    </style>
  </defs>
  <g id="group-10svg">
    <path d="M64.509,34.846 C64.509,51.217 51.235,64.489 34.862,64.489 C18.488,64.489 5.215,51.217 5.215,34.846 C5.215,18.474 18.488,5.202 34.862,5.202 C51.235,5.202 64.509,18.474 64.509,34.846 Z" id="path-1" class="cls-3" fill-rule="evenodd"/>
    <path d="M39.439,46.662 C37.073,46.662 34.808,45.509 32.696,43.229 C30.990,41.387 29.110,40.427 27.107,40.377 C23.413,40.263 20.332,43.250 20.302,43.280 C19.711,43.859 18.762,43.849 18.183,43.260 C17.603,42.670 17.608,41.724 18.197,41.143 C18.356,40.985 22.150,37.301 27.155,37.378 C30.008,37.441 32.613,38.724 34.897,41.191 C36.538,42.963 38.203,43.784 39.823,43.645 C42.944,43.372 45.295,39.771 45.318,39.734 C45.767,39.039 46.693,38.834 47.390,39.281 C48.086,39.727 48.291,40.651 47.848,41.348 C47.721,41.547 44.699,46.217 40.104,46.632 C39.882,46.652 39.660,46.662 39.439,46.662 Z" id="path-2" class="cls-4" fill-rule="evenodd"/>
    <path d="M45.007,22.977 C45.007,24.958 43.401,26.563 41.421,26.563 C39.439,26.563 37.834,24.958 37.834,22.977 C37.834,20.997 39.439,19.392 41.421,19.392 C43.401,19.392 45.007,20.997 45.007,22.977 Z" id="path-3" class="cls-4" fill-rule="evenodd"/>
    <path d="M24.386,22.977 C24.386,24.958 22.780,26.563 20.799,26.563 C18.818,26.563 17.213,24.958 17.213,22.977 C17.213,20.997 18.818,19.392 20.799,19.392 C22.780,19.392 24.386,20.997 24.386,22.977 Z" id="path-4" class="cls-4" fill-rule="evenodd"/>
    <path d="M31.156,62.283 C13.981,62.283 0.009,48.312 0.009,31.140 C0.009,13.968 13.981,-0.003 31.156,-0.003 C48.331,-0.003 62.304,13.968 62.304,31.140 C62.304,48.312 48.331,62.283 31.156,62.283 ZM31.156,2.997 C15.636,2.997 3.009,15.621 3.009,31.140 C3.009,46.659 15.636,59.284 31.156,59.284 C46.677,59.284 59.304,46.659 59.304,31.140 C59.304,15.621 46.677,2.997 31.156,2.997 Z" id="path-5" class="cls-4" fill-rule="evenodd"/>
  </g>
</svg>
