<svg xmlns="http://www.w3.org/2000/svg" xmlns:xlink="http://www.w3.org/1999/xlink" preserveAspectRatio="xMidYMid" width="64" height="65" viewBox="0 0 64 65">
  <defs>
    <style>

      .cls-3 {
        fill: #e56a77;
      }

      .cls-4 {
        fill: #000000;
      }
    </style>
  </defs>
  <g id="group-43svg">
    <path d="M57.557,19.403 C62.608,18.464 62.762,3.532 62.762,3.532 C62.762,3.532 51.088,13.206 51.088,13.206 C46.547,10.065 41.041,8.221 35.103,8.221 C28.961,8.221 23.284,10.194 18.658,13.532 C18.658,13.532 6.590,3.532 6.590,3.532 C6.590,3.532 6.763,20.062 12.633,19.422 C9.075,24.133 6.963,29.998 6.963,36.357 C6.963,51.895 19.562,64.492 35.103,64.492 C50.643,64.492 63.241,51.895 63.241,36.357 C63.241,29.989 61.123,24.117 57.557,19.403 Z" id="path-1" class="cls-3" fill-rule="evenodd"/>
    <path d="M30.022,63.960 C13.679,63.960 0.383,50.666 0.383,34.325 C0.383,28.582 1.997,23.096 5.070,18.326 C0.419,15.594 0.036,4.071 0.009,1.516 C0.003,0.932 0.337,0.397 0.864,0.146 C1.390,-0.107 2.017,-0.028 2.466,0.345 C2.466,0.345 13.659,9.620 13.659,9.620 C18.519,6.390 24.151,4.689 30.022,4.689 C35.689,4.689 41.157,6.282 45.908,9.308 C45.908,9.308 56.724,0.345 56.724,0.345 C57.174,-0.028 57.797,-0.107 58.326,0.146 C58.853,0.397 59.187,0.931 59.181,1.516 C59.157,3.884 58.815,14.581 54.706,17.919 C57.953,22.783 59.661,28.418 59.661,34.325 C59.661,50.666 46.365,63.960 30.022,63.960 ZM7.553,15.890 C8.088,15.890 8.588,16.177 8.856,16.649 C9.152,17.170 9.110,17.816 8.749,18.293 C5.239,22.943 3.383,28.487 3.383,34.325 C3.383,49.012 15.333,60.961 30.022,60.961 C44.710,60.961 56.661,49.012 56.661,34.325 C56.661,28.478 54.800,22.929 51.280,18.275 C50.966,17.861 50.890,17.314 51.078,16.829 C51.265,16.344 51.691,15.991 52.202,15.896 C54.247,15.516 55.566,9.977 56.013,4.830 C56.013,4.830 46.964,12.328 46.964,12.328 C46.447,12.758 45.706,12.789 45.154,12.407 C40.691,9.320 35.459,7.689 30.022,7.689 C24.395,7.689 19.013,9.427 14.455,12.716 C13.901,13.116 13.146,13.091 12.620,12.655 C12.620,12.655 3.176,4.829 3.176,4.829 C3.639,10.216 5.042,15.908 7.224,15.908 C7.278,15.908 7.333,15.905 7.390,15.899 C7.444,15.893 7.498,15.890 7.553,15.890 Z" id="path-2" class="cls-4" fill-rule="evenodd"/>
    <path d="M15.513,52.507 C14.685,52.507 14.013,51.836 14.013,51.007 C14.013,43.421 20.122,37.012 27.354,37.012 C27.354,37.012 33.274,37.012 33.274,37.012 C40.505,37.012 46.615,43.271 46.615,50.680 C46.615,51.508 45.943,52.180 45.115,52.180 C44.286,52.180 43.615,51.508 43.615,50.680 C43.615,44.897 38.879,40.012 33.274,40.012 C33.274,40.012 27.354,40.012 27.354,40.012 C21.845,40.012 17.013,45.150 17.013,51.007 C17.013,51.836 16.342,52.507 15.513,52.507 Z" id="path-3" class="cls-4" fill-rule="evenodd"/>
    <path d="M22.588,25.227 C22.340,25.227 22.090,25.166 21.860,25.038 C21.860,25.038 19.311,23.619 19.311,23.619 C19.071,23.573 18.826,23.546 18.579,23.541 C17.462,23.525 16.441,23.918 15.691,24.668 C15.105,25.254 14.156,25.254 13.570,24.668 C12.984,24.082 12.984,23.132 13.570,22.547 C14.060,22.058 14.611,21.652 15.210,21.336 C15.210,21.336 13.901,20.608 13.901,20.608 C13.177,20.205 12.917,19.292 13.320,18.568 C13.723,17.845 14.635,17.584 15.360,17.987 C15.360,17.987 20.394,20.789 20.394,20.789 C21.619,21.115 22.740,21.756 23.650,22.667 C24.179,23.196 24.237,24.034 23.787,24.631 C23.494,25.018 23.046,25.227 22.588,25.227 Z" id="path-4" class="cls-4" fill-rule="evenodd"/>
    <path d="M37.011,25.227 C36.553,25.227 36.105,25.018 35.812,24.631 C35.362,24.034 35.420,23.196 35.949,22.667 C36.860,21.756 37.980,21.115 39.205,20.789 C39.205,20.789 44.239,17.987 44.239,17.987 C44.964,17.586 45.876,17.845 46.279,18.568 C46.682,19.292 46.422,20.205 45.698,20.608 C45.698,20.608 44.389,21.336 44.389,21.336 C44.988,21.652 45.540,22.058 46.029,22.547 C46.615,23.133 46.615,24.082 46.029,24.668 C45.443,25.254 44.493,25.254 43.908,24.668 C43.157,23.918 42.130,23.526 41.020,23.541 C40.773,23.546 40.528,23.573 40.287,23.619 C40.287,23.619 37.739,25.038 37.739,25.038 C37.509,25.166 37.259,25.227 37.011,25.227 Z" id="path-5" class="cls-4" fill-rule="evenodd"/>
  </g>
</svg>
