<svg xmlns="http://www.w3.org/2000/svg" xmlns:xlink="http://www.w3.org/1999/xlink" preserveAspectRatio="xMidYMid" width="67" height="65" viewBox="0 0 67 65">
  <defs>
    <style>

      .cls-3 {
        fill: #edc951;
      }

      .cls-4 {
        fill: #ffffff;
      }

      .cls-6 {
        fill: #8b71b5;
      }

      .cls-7 {
        fill: #000000;
      }
    </style>
  </defs>
  <g id="group-15svg">
    <path d="M66.374,34.414 C66.374,51.030 52.903,64.500 36.285,64.500 C19.667,64.500 6.195,51.030 6.195,34.414 C6.195,17.798 19.667,4.328 36.285,4.328 C52.903,4.328 66.374,17.798 66.374,34.414 Z" id="path-1" class="cls-3" fill-rule="evenodd"/>
    <path d="M51.540,29.041 C51.540,32.002 49.140,34.402 46.179,34.402 C43.218,34.402 40.817,32.002 40.817,29.041 C40.817,26.080 43.218,23.680 46.179,23.680 C49.140,23.680 51.540,26.080 51.540,29.041 Z" id="path-2" class="cls-4" fill-rule="evenodd"/>
    <path d="M29.666,29.041 C29.666,32.002 27.265,34.402 24.304,34.402 C21.343,34.402 18.943,32.002 18.943,29.041 C18.943,26.080 21.343,23.680 24.304,23.680 C27.265,23.680 29.666,26.080 29.666,29.041 Z" id="path-3" class="cls-4" fill-rule="evenodd"/>
    <path d="M50.817,42.839 C50.817,49.838 45.344,54.838 38.592,54.838 C38.592,54.838 32.478,54.838 32.478,54.838 C25.727,54.838 20.253,49.838 20.253,42.839 C20.253,42.839 50.817,42.839 50.817,42.839 Z" id="path-4" class="cls-6" fill-rule="evenodd"/>
    <path d="M44.034,23.878 C44.034,26.065 42.262,27.837 40.075,27.837 C37.888,27.837 36.116,26.065 36.116,23.878 C36.116,21.692 37.888,19.919 40.075,19.919 C42.262,19.919 44.034,21.692 44.034,23.878 Z" id="path-5" class="cls-7" fill-rule="evenodd"/>
    <path d="M41.477,33.081 C37.694,33.081 34.616,30.003 34.616,26.221 C34.616,22.438 37.694,19.360 41.477,19.360 C45.260,19.360 48.338,22.438 48.338,26.221 C48.338,30.003 45.260,33.081 41.477,33.081 ZM41.477,22.360 C39.348,22.360 37.616,24.092 37.616,26.221 C37.616,28.349 39.348,30.081 41.477,30.081 C43.606,30.081 45.338,28.349 45.338,26.221 C45.338,24.092 43.606,22.360 41.477,22.360 Z" id="path-6" class="cls-7" fill-rule="evenodd"/>
    <path d="M19.603,33.081 C15.820,33.081 12.742,30.003 12.742,26.221 C12.742,22.438 15.820,19.360 19.603,19.360 C23.386,19.360 26.464,22.438 26.464,26.221 C26.464,30.003 23.386,33.081 19.603,33.081 ZM19.603,22.360 C17.474,22.360 15.742,24.092 15.742,26.221 C15.742,28.349 17.474,30.081 19.603,30.081 C21.732,30.081 23.464,28.349 23.464,26.221 C23.464,24.092 21.732,22.360 19.603,22.360 Z" id="path-7" class="cls-7" fill-rule="evenodd"/>
    <path d="M22.160,23.878 C22.160,26.065 20.387,27.837 18.201,27.837 C16.014,27.837 14.242,26.065 14.242,23.878 C14.242,21.692 16.014,19.919 18.201,19.919 C20.387,19.919 22.160,21.692 22.160,23.878 Z" id="path-8" class="cls-7" fill-rule="evenodd"/>
    <path d="M31.583,63.179 C14.165,63.179 -0.006,49.010 -0.006,31.593 C-0.006,14.177 14.165,0.008 31.583,0.008 C49.002,0.008 63.173,14.177 63.173,31.593 C63.173,49.010 49.002,63.179 31.583,63.179 ZM31.583,3.007 C15.819,3.007 2.994,15.831 2.994,31.593 C2.994,47.356 15.819,60.180 31.583,60.180 C47.348,60.180 60.173,47.356 60.173,31.593 C60.173,15.831 47.348,3.007 31.583,3.007 Z" id="path-9" class="cls-7" fill-rule="evenodd"/>
    <path d="M33.890,52.838 C33.890,52.838 27.777,52.838 27.777,52.838 C20.209,52.838 14.051,47.231 14.051,40.339 C14.051,39.511 14.723,38.840 15.551,38.840 C15.551,38.840 46.116,38.840 46.116,38.840 C46.945,38.840 47.616,39.511 47.616,40.339 C47.616,47.231 41.458,52.838 33.890,52.838 ZM17.185,41.839 C17.999,46.367 22.439,49.838 27.777,49.838 C27.777,49.838 33.890,49.838 33.890,49.838 C39.228,49.838 43.668,46.367 44.482,41.839 C44.482,41.839 17.185,41.839 17.185,41.839 Z" id="path-10" class="cls-7" fill-rule="evenodd"/>
    <path d="M43.312,46.839 C43.312,46.839 17.312,46.839 17.312,46.839 C16.484,46.839 15.812,46.167 15.812,45.339 C15.812,44.510 16.484,43.839 17.312,43.839 C17.312,43.839 43.312,43.839 43.312,43.839 C44.141,43.839 44.812,44.510 44.812,45.339 C44.812,46.167 44.141,46.839 43.312,46.839 Z" id="path-11" class="cls-7" fill-rule="evenodd"/>
    <path d="M35.812,46.339 C34.984,46.339 34.312,45.667 34.312,44.839 C34.312,44.839 34.312,40.839 34.312,40.839 C34.312,40.011 34.984,39.340 35.812,39.340 C36.641,39.340 37.312,40.011 37.312,40.839 C37.312,40.839 37.312,44.839 37.312,44.839 C37.312,45.667 36.641,46.339 35.812,46.339 Z" id="path-12" class="cls-7" fill-rule="evenodd"/>
    <path d="M25.812,46.339 C24.984,46.339 24.312,45.667 24.312,44.839 C24.312,44.839 24.312,40.839 24.312,40.839 C24.312,40.011 24.984,39.340 25.812,39.340 C26.641,39.340 27.312,40.011 27.312,40.839 C27.312,40.839 27.312,44.839 27.312,44.839 C27.312,45.667 26.641,46.339 25.812,46.339 Z" id="path-13" class="cls-7" fill-rule="evenodd"/>
  </g>
</svg>
