<svg xmlns="http://www.w3.org/2000/svg" xmlns:xlink="http://www.w3.org/1999/xlink" preserveAspectRatio="xMidYMid" width="67" height="65" viewBox="0 0 67 65">
  <defs>
    <style>

      .cls-3 {
        fill: #edc951;
      }

      .cls-4 {
        fill: #ffffff;
      }

      .cls-6 {
        fill: #000000;
      }
    </style>
  </defs>
  <g id="group-46svg">
    <path d="M66.374,34.406 C66.374,51.022 52.903,64.492 36.285,64.492 C19.667,64.492 6.195,51.022 6.195,34.406 C6.195,17.790 19.667,4.321 36.285,4.321 C52.903,4.321 66.374,17.790 66.374,34.406 Z" id="path-1" class="cls-3" fill-rule="evenodd"/>
    <path d="M54.574,26.766 C54.574,30.471 51.570,33.475 47.864,33.475 C44.158,33.475 41.154,30.471 41.154,26.766 C41.154,23.061 44.158,20.057 47.864,20.057 C51.570,20.057 54.574,23.061 54.574,26.766 Z" id="path-2" class="cls-4" fill-rule="evenodd"/>
    <path d="M32.262,26.766 C32.262,30.471 29.258,33.475 25.552,33.475 C21.846,33.475 18.842,30.471 18.842,26.766 C18.842,23.061 21.846,20.057 25.552,20.057 C29.258,20.057 32.262,23.061 32.262,26.766 Z" id="path-3" class="cls-4" fill-rule="evenodd"/>
    <path d="M46.153,23.541 C46.153,25.416 44.634,26.936 42.758,26.936 C40.883,26.936 39.363,25.416 39.363,23.541 C39.363,21.667 40.883,20.147 42.758,20.147 C44.634,20.147 46.153,21.667 46.153,23.541 Z" id="path-4" class="cls-6" fill-rule="evenodd"/>
    <path d="M43.163,32.155 C38.636,32.155 34.953,28.472 34.953,23.946 C34.953,19.419 38.636,15.737 43.163,15.737 C47.689,15.737 51.372,19.419 51.372,23.946 C51.372,28.472 47.689,32.155 43.163,32.155 ZM43.163,18.736 C40.290,18.736 37.953,21.073 37.953,23.946 C37.953,26.818 40.290,29.155 43.163,29.155 C46.035,29.155 48.372,26.818 48.372,23.946 C48.372,21.073 46.035,18.736 43.163,18.736 Z" id="path-5" class="cls-6" fill-rule="evenodd"/>
    <path d="M20.851,32.155 C16.324,32.155 12.641,28.472 12.641,23.946 C12.641,19.419 16.324,15.737 20.851,15.737 C25.377,15.737 29.060,19.419 29.060,23.946 C29.060,28.472 25.377,32.155 20.851,32.155 ZM20.851,18.736 C17.978,18.736 15.641,21.073 15.641,23.946 C15.641,26.818 17.978,29.155 20.851,29.155 C23.723,29.155 26.060,26.818 26.060,23.946 C26.060,21.073 23.723,18.736 20.851,18.736 Z" id="path-6" class="cls-6" fill-rule="evenodd"/>
    <path d="M23.842,23.541 C23.842,25.416 22.322,26.936 20.446,26.936 C18.571,26.936 17.051,25.416 17.051,23.541 C17.051,21.667 18.571,20.147 20.446,20.147 C22.322,20.147 23.842,21.667 23.842,23.541 Z" id="path-7" class="cls-6" fill-rule="evenodd"/>
    <path d="M39.362,44.015 C39.025,44.015 38.687,43.903 38.407,43.671 C32.095,38.451 26.119,43.440 25.868,43.656 C25.238,44.193 24.291,44.120 23.752,43.491 C23.214,42.861 23.288,41.914 23.917,41.376 C26.710,38.988 33.731,35.912 40.319,41.360 C40.957,41.888 41.047,42.833 40.519,43.472 C40.222,43.830 39.793,44.015 39.362,44.015 Z" id="path-8" class="cls-6" fill-rule="evenodd"/>
    <path d="M42.148,48.563 C41.753,48.563 41.359,48.407 41.064,48.100 C36.851,43.696 39.170,38.320 40.985,36.093 C41.509,35.451 42.453,35.354 43.096,35.877 C43.737,36.400 43.834,37.342 43.314,37.984 C43.161,38.176 39.812,42.452 43.232,46.026 C43.805,46.625 43.784,47.574 43.186,48.147 C42.894,48.425 42.521,48.563 42.148,48.563 Z" id="path-9" class="cls-6" fill-rule="evenodd"/>
    <path d="M22.727,48.563 C22.354,48.563 21.981,48.425 21.690,48.147 C21.091,47.574 21.070,46.625 21.643,46.026 C25.068,42.447 21.706,38.164 21.560,37.983 C21.044,37.338 21.144,36.395 21.786,35.876 C22.429,35.357 23.368,35.453 23.890,36.093 C25.705,38.320 28.024,43.696 23.811,48.100 C23.516,48.407 23.122,48.563 22.727,48.563 Z" id="path-10" class="cls-6" fill-rule="evenodd"/>
    <path d="M31.583,63.171 C14.165,63.171 -0.006,49.002 -0.006,31.586 C-0.006,14.169 14.165,0.000 31.583,0.000 C49.002,0.000 63.173,14.169 63.173,31.586 C63.173,49.002 49.002,63.171 31.583,63.171 ZM31.583,3.000 C15.819,3.000 2.994,15.823 2.994,31.586 C2.994,47.348 15.819,60.172 31.583,60.172 C47.348,60.172 60.173,47.348 60.173,31.586 C60.173,15.823 47.348,3.000 31.583,3.000 Z" id="path-11" class="cls-6" fill-rule="evenodd"/>
  </g>
</svg>
