<svg xmlns="http://www.w3.org/2000/svg" xmlns:xlink="http://www.w3.org/1999/xlink" preserveAspectRatio="xMidYMid" width="66" height="65" viewBox="0 0 66 65">
  <defs>
    <style>

      .cls-3 {
        fill: #edc951;
      }

      .cls-4 {
        fill: #53ecf4;
      }

      .cls-5 {
        fill: #000000;
      }
    </style>
  </defs>
  <g id="group-30svg">
    <path d="M65.429,34.846 C65.429,51.218 52.155,64.490 35.781,64.490 C19.408,64.490 6.135,51.218 6.135,34.846 C6.135,18.474 19.408,5.202 35.781,5.202 C52.155,5.202 65.429,18.474 65.429,34.846 Z" id="path-1" class="cls-3" fill-rule="evenodd"/>
    <path d="M26.019,14.409 C26.499,18.507 24.500,20.358 20.373,20.358 C16.246,20.358 14.460,18.496 15.031,14.409 C15.641,10.057 20.373,5.110 20.373,5.110 C20.373,5.110 25.535,10.286 26.019,14.409 Z" id="path-2" class="cls-4" fill-rule="evenodd"/>
    <path d="M44.762,50.569 C43.934,50.569 43.262,49.898 43.262,49.069 C43.262,44.410 39.545,40.761 34.800,40.761 C34.800,40.761 29.818,40.761 29.818,40.761 C25.073,40.761 21.356,44.343 21.356,48.916 C21.356,49.744 20.685,50.416 19.856,50.416 C19.028,50.416 18.356,49.744 18.356,48.916 C18.356,42.661 23.392,37.762 29.818,37.762 C29.818,37.762 34.800,37.762 34.800,37.762 C41.120,37.762 46.262,42.834 46.262,49.069 C46.262,49.898 45.590,50.569 44.762,50.569 Z" id="path-3" class="cls-5" fill-rule="evenodd"/>
    <path d="M15.740,19.079 C13.141,19.079 11.304,18.419 10.123,17.062 C8.980,15.748 8.574,13.851 8.914,11.422 C9.582,6.646 14.449,1.511 14.656,1.295 C14.936,1.003 15.320,0.836 15.725,0.832 C16.095,0.819 16.517,0.986 16.803,1.273 C17.368,1.840 22.347,6.946 22.877,11.455 C23.154,13.826 22.702,15.695 21.531,17.010 C20.309,18.383 18.361,19.079 15.740,19.079 ZM15.771,4.579 C14.433,6.211 12.252,9.213 11.885,11.837 C11.671,13.369 11.839,14.464 12.387,15.093 C12.956,15.747 14.084,16.079 15.740,16.079 C17.468,16.079 18.662,15.722 19.290,15.016 C19.866,14.369 20.071,13.288 19.896,11.804 C19.624,9.480 17.368,6.426 15.771,4.579 Z" id="path-4" class="cls-5" fill-rule="evenodd"/>
    <path d="M31.149,62.284 C13.975,62.284 0.002,48.313 0.002,31.141 C0.002,22.595 3.395,14.624 9.555,8.697 C10.151,8.122 11.100,8.140 11.676,8.738 C12.250,9.335 12.231,10.284 11.635,10.859 C6.067,16.215 3.002,23.418 3.002,31.141 C3.002,46.659 15.629,59.284 31.149,59.284 C46.670,59.284 59.296,46.659 59.296,31.141 C59.296,15.622 46.670,2.997 31.149,2.997 C26.906,2.997 22.829,3.917 19.030,5.732 C18.283,6.087 17.388,5.772 17.030,5.025 C16.673,4.277 16.989,3.382 17.737,3.025 C21.942,1.016 26.455,-0.003 31.149,-0.003 C48.323,-0.003 62.296,13.968 62.296,31.141 C62.296,48.313 48.323,62.284 31.149,62.284 Z" id="path-5" class="cls-5" fill-rule="evenodd"/>
    <path d="M23.271,30.915 C22.443,30.915 21.771,30.244 21.771,29.415 C21.771,27.405 20.145,25.707 18.218,25.707 C17.390,25.707 16.718,25.036 16.718,24.207 C16.718,23.379 17.390,22.707 18.218,22.707 C21.770,22.707 24.771,25.779 24.771,29.415 C24.771,30.244 24.100,30.915 23.271,30.915 Z" id="path-6" class="cls-5" fill-rule="evenodd"/>
    <path d="M38.545,30.838 C37.717,30.838 37.045,30.167 37.045,29.338 C37.045,25.786 40.117,22.785 43.753,22.785 C44.581,22.785 45.253,23.456 45.253,24.284 C45.253,25.113 44.581,25.784 43.753,25.784 C41.743,25.784 40.045,27.411 40.045,29.338 C40.045,30.167 39.373,30.838 38.545,30.838 Z" id="path-7" class="cls-5" fill-rule="evenodd"/>
  </g>
</svg>
