<svg xmlns="http://www.w3.org/2000/svg" xmlns:xlink="http://www.w3.org/1999/xlink" preserveAspectRatio="xMidYMid" width="65" height="65" viewBox="0 0 65 65">
  <defs>
    <style>

      .cls-3 {
        fill: #edc951;
      }

      .cls-4 {
        fill: #000000;
      }
    </style>
  </defs>
  <g id="group-3svg">
    <path d="M65.455,34.403 C65.455,51.019 51.983,64.489 35.366,64.489 C18.748,64.489 5.276,51.019 5.276,34.403 C5.276,17.787 18.748,4.317 35.366,4.317 C51.983,4.317 65.455,17.787 65.455,34.403 Z" id="path-1" class="cls-3" fill-rule="evenodd"/>
    <path d="M45.662,23.298 C45.662,25.308 44.032,26.937 42.022,26.937 C40.012,26.937 38.382,25.308 38.382,23.298 C38.382,21.288 40.012,19.659 42.022,19.659 C44.032,19.659 45.662,21.288 45.662,23.298 Z" id="path-2" class="cls-4" fill-rule="evenodd"/>
    <path d="M24.732,23.298 C24.732,25.308 23.103,26.937 21.093,26.937 C19.082,26.937 17.453,25.308 17.453,23.298 C17.453,21.288 19.082,19.659 21.093,19.659 C23.103,19.659 24.732,21.288 24.732,23.298 Z" id="path-3" class="cls-4" fill-rule="evenodd"/>
    <path d="M19.222,50.500 C18.393,50.500 17.722,49.828 17.722,49.000 C17.722,42.527 22.931,37.261 29.333,37.261 C29.333,37.261 34.388,37.261 34.388,37.261 C40.791,37.261 45.999,42.498 45.999,48.935 C45.999,49.764 45.328,50.435 44.499,50.435 C43.670,50.435 42.999,49.764 42.999,48.935 C42.999,44.152 39.136,40.261 34.388,40.261 C34.388,40.261 29.333,40.261 29.333,40.261 C24.585,40.261 20.722,44.181 20.722,49.000 C20.722,49.828 20.051,50.500 19.222,50.500 Z" id="path-4" class="cls-4" fill-rule="evenodd"/>
    <path d="M31.604,63.168 C14.186,63.168 0.015,48.999 0.015,31.582 C0.015,14.166 14.186,-0.003 31.604,-0.003 C49.023,-0.003 63.194,14.166 63.194,31.582 C63.194,48.999 49.023,63.168 31.604,63.168 ZM31.604,2.997 C15.840,2.997 3.015,15.820 3.015,31.582 C3.015,47.345 15.840,60.169 31.604,60.169 C47.369,60.169 60.194,47.345 60.194,31.582 C60.194,15.820 47.369,2.997 31.604,2.997 Z" id="path-5" class="cls-4" fill-rule="evenodd"/>
  </g>
</svg>
