<svg xmlns="http://www.w3.org/2000/svg" xmlns:xlink="http://www.w3.org/1999/xlink" preserveAspectRatio="xMidYMid" width="67" height="65" viewBox="0 0 67 65">
  <defs>
    <style>

      .cls-3 {
        fill: #edc951;
      }

      .cls-4 {
        fill: #8b71b5;
      }

      .cls-5 {
        fill: #ffffff;
      }

      .cls-7 {
        fill: #000000;
      }
    </style>
  </defs>
  <g id="group-16svg">
    <path d="M66.374,34.419 C66.374,51.035 52.903,64.505 36.285,64.505 C19.667,64.505 6.195,51.035 6.195,34.419 C6.195,17.803 19.667,4.333 36.285,4.333 C52.903,4.333 66.374,17.803 66.374,34.419 Z" id="path-1" class="cls-3" fill-rule="evenodd"/>
    <path d="M49.877,43.277 C49.877,50.276 44.403,55.275 37.651,55.275 C37.651,55.275 31.539,55.275 31.539,55.275 C24.786,55.275 19.312,50.276 19.312,43.277 C19.312,43.277 49.877,43.277 49.877,43.277 Z" id="path-2" class="cls-4" fill-rule="evenodd"/>
    <path d="M50.600,29.046 C50.600,32.006 48.199,34.407 45.238,34.407 C42.277,34.407 39.877,32.006 39.877,29.046 C39.877,26.085 42.277,23.685 45.238,23.685 C48.199,23.685 50.600,26.085 50.600,29.046 Z" id="path-3" class="cls-5" fill-rule="evenodd"/>
    <path d="M28.726,29.046 C28.726,32.006 26.325,34.407 23.364,34.407 C20.403,34.407 18.003,32.006 18.003,29.046 C18.003,26.085 20.403,23.685 23.364,23.685 C26.325,23.685 28.726,26.085 28.726,29.046 Z" id="path-4" class="cls-5" fill-rule="evenodd"/>
    <path d="M41.477,33.086 C37.694,33.086 34.616,30.008 34.616,26.225 C34.616,22.443 37.694,19.365 41.477,19.365 C45.260,19.365 48.338,22.443 48.338,26.225 C48.338,30.008 45.260,33.086 41.477,33.086 ZM41.477,22.365 C39.348,22.365 37.616,24.097 37.616,26.225 C37.616,28.354 39.348,30.086 41.477,30.086 C43.606,30.086 45.338,28.354 45.338,26.225 C45.338,24.097 43.606,22.365 41.477,22.365 Z" id="path-5" class="cls-7" fill-rule="evenodd"/>
    <path d="M19.603,33.086 C15.820,33.086 12.742,30.008 12.742,26.225 C12.742,22.443 15.820,19.365 19.603,19.365 C23.386,19.365 26.464,22.443 26.464,26.225 C26.464,30.008 23.386,33.086 19.603,33.086 ZM19.603,22.365 C17.474,22.365 15.742,24.097 15.742,26.225 C15.742,28.354 17.474,30.086 19.603,30.086 C21.732,30.086 23.464,28.354 23.464,26.225 C23.464,24.097 21.732,22.365 19.603,22.365 Z" id="path-6" class="cls-7" fill-rule="evenodd"/>
    <path d="M43.094,25.764 C43.094,27.950 41.321,29.722 39.135,29.722 C36.948,29.722 35.176,27.950 35.176,25.764 C35.176,23.577 36.948,21.805 39.135,21.805 C41.321,21.805 43.094,23.577 43.094,25.764 Z" id="path-7" class="cls-7" fill-rule="evenodd"/>
    <path d="M25.921,25.764 C25.921,27.950 24.148,29.722 21.962,29.722 C19.775,29.722 18.003,27.950 18.003,25.764 C18.003,23.577 19.775,21.805 21.962,21.805 C24.148,21.805 25.921,23.577 25.921,25.764 Z" id="path-8" class="cls-7" fill-rule="evenodd"/>
    <path d="M31.583,63.184 C14.165,63.184 -0.006,49.015 -0.006,31.598 C-0.006,14.182 14.165,0.013 31.583,0.013 C49.002,0.013 63.173,14.182 63.173,31.598 C63.173,49.015 49.002,63.184 31.583,63.184 ZM31.583,3.012 C15.819,3.012 2.994,15.836 2.994,31.598 C2.994,47.361 15.819,60.185 31.583,60.185 C47.348,60.185 60.173,47.361 60.173,31.598 C60.173,15.836 47.348,3.012 31.583,3.012 Z" id="path-9" class="cls-7" fill-rule="evenodd"/>
    <path d="M33.890,53.275 C33.890,53.275 27.777,53.275 27.777,53.275 C20.209,53.275 14.051,47.669 14.051,40.777 C14.051,39.948 14.723,39.277 15.551,39.277 C15.551,39.277 46.116,39.277 46.116,39.277 C46.945,39.277 47.616,39.948 47.616,40.777 C47.616,47.669 41.458,53.275 33.890,53.275 ZM17.185,42.277 C17.999,46.804 22.439,50.276 27.777,50.276 C27.777,50.276 33.890,50.276 33.890,50.276 C39.228,50.276 43.668,46.804 44.482,42.277 C44.482,42.277 17.185,42.277 17.185,42.277 Z" id="path-10" class="cls-7" fill-rule="evenodd"/>
    <path d="M43.312,47.276 C43.312,47.276 17.312,47.276 17.312,47.276 C16.484,47.276 15.812,46.605 15.812,45.776 C15.812,44.948 16.484,44.276 17.312,44.276 C17.312,44.276 43.312,44.276 43.312,44.276 C44.141,44.276 44.812,44.948 44.812,45.776 C44.812,46.605 44.141,47.276 43.312,47.276 Z" id="path-11" class="cls-7" fill-rule="evenodd"/>
    <path d="M35.812,46.776 C34.984,46.776 34.312,46.105 34.312,45.276 C34.312,45.276 34.312,41.277 34.312,41.277 C34.312,40.448 34.984,39.777 35.812,39.777 C36.641,39.777 37.312,40.448 37.312,41.277 C37.312,41.277 37.312,45.276 37.312,45.276 C37.312,46.105 36.641,46.776 35.812,46.776 Z" id="path-12" class="cls-7" fill-rule="evenodd"/>
    <path d="M25.812,46.776 C24.984,46.776 24.312,46.105 24.312,45.276 C24.312,45.276 24.312,41.277 24.312,41.277 C24.312,40.448 24.984,39.777 25.812,39.777 C26.641,39.777 27.312,40.448 27.312,41.277 C27.312,41.277 27.312,45.276 27.312,45.276 C27.312,46.105 26.641,46.776 25.812,46.776 Z" id="path-13" class="cls-7" fill-rule="evenodd"/>
  </g>
</svg>
