<svg xmlns="http://www.w3.org/2000/svg" xmlns:xlink="http://www.w3.org/1999/xlink" preserveAspectRatio="xMidYMid" width="67" height="65" viewBox="0 0 67 65">
  <defs>
    <style>

      .cls-3 {
        fill: #edc951;
      }

      .cls-4 {
        fill: #8b71b5;
      }

      .cls-5 {
        fill: #53ecf4;
      }

      .cls-7 {
        fill: #000000;
      }
    </style>
  </defs>
  <g id="group-38svg">
    <path d="M66.381,34.401 C66.381,51.017 52.909,64.486 36.291,64.486 C19.673,64.486 6.201,51.017 6.201,34.401 C6.201,17.785 19.673,4.315 36.291,4.315 C52.909,4.315 66.381,17.785 66.381,34.401 Z" id="path-1" class="cls-3" fill-rule="evenodd"/>
    <path d="M20.259,53.807 C20.259,46.808 25.732,41.809 32.485,41.809 C32.485,41.809 38.598,41.809 38.598,41.809 C45.350,41.809 50.824,46.808 50.824,53.807 C50.824,53.807 20.259,53.807 20.259,53.807 Z" id="path-2" class="cls-4" fill-rule="evenodd"/>
    <path d="M21.138,31.795 C20.710,34.433 19.137,35.231 16.566,34.499 C13.996,33.768 13.214,32.290 14.295,29.847 C15.445,27.244 19.270,25.002 19.270,25.002 C19.270,25.002 21.567,29.141 21.138,31.795 Z" id="path-3" class="cls-5" fill-rule="evenodd"/>
    <path d="M49.983,31.795 C50.411,34.433 51.984,35.231 54.555,34.499 C57.125,33.768 57.907,32.290 56.826,29.847 C55.676,27.244 51.851,25.002 51.851,25.002 C51.851,25.002 49.553,29.141 49.983,31.795 Z" id="path-4" class="cls-5" fill-rule="evenodd"/>
    <path d="M14.441,33.436 C13.818,33.436 13.130,33.331 12.393,33.121 C10.644,32.623 9.475,31.770 8.919,30.585 C8.373,29.420 8.454,28.018 9.161,26.419 C10.471,23.460 14.316,21.142 14.750,20.888 C15.100,20.683 15.517,20.629 15.904,20.735 C16.294,20.841 16.624,21.101 16.820,21.454 C17.081,21.924 19.356,26.136 18.857,29.214 C18.262,32.888 15.835,33.436 14.441,33.436 ZM14.910,24.394 C13.786,25.235 12.428,26.451 11.905,27.633 C11.574,28.380 11.478,28.977 11.636,29.311 C11.801,29.665 12.362,29.993 13.215,30.236 C13.685,30.370 14.097,30.437 14.441,30.437 C14.938,30.437 15.620,30.437 15.896,28.734 C16.088,27.551 15.484,25.738 14.910,24.394 Z" id="path-5" class="cls-7" fill-rule="evenodd"/>
    <path d="M49.157,33.436 C49.157,33.436 49.157,33.436 49.157,33.436 C47.764,33.436 45.337,32.888 44.741,29.214 C44.242,26.136 46.518,21.924 46.778,21.454 C46.975,21.101 47.305,20.841 47.694,20.735 C48.083,20.629 48.499,20.683 48.849,20.888 C49.282,21.142 53.128,23.460 54.437,26.419 C55.144,28.018 55.226,29.420 54.680,30.585 C54.123,31.770 52.954,32.623 51.204,33.121 C50.469,33.331 49.780,33.436 49.157,33.436 ZM48.687,24.390 C48.070,25.835 47.521,27.619 47.702,28.734 C47.978,30.437 48.660,30.437 49.157,30.437 C49.157,30.437 49.157,30.437 49.157,30.437 C49.502,30.437 49.914,30.370 50.383,30.236 C51.236,29.993 51.798,29.665 51.963,29.311 C52.120,28.977 52.024,28.380 51.693,27.633 C51.168,26.443 49.810,25.229 48.687,24.390 Z" id="path-6" class="cls-7" fill-rule="evenodd"/>
    <path d="M24.681,21.364 C24.297,21.364 23.913,21.217 23.620,20.924 C22.789,20.094 21.629,19.603 20.436,19.579 C19.241,19.546 18.125,19.987 17.314,20.797 C16.728,21.383 15.779,21.383 15.193,20.797 C14.607,20.212 14.607,19.262 15.193,18.677 C16.587,17.283 18.445,16.547 20.498,16.580 C22.486,16.621 24.348,17.411 25.741,18.803 C26.327,19.389 26.327,20.338 25.741,20.924 C25.448,21.217 25.064,21.364 24.681,21.364 Z" id="path-7" class="cls-7" fill-rule="evenodd"/>
    <path d="M48.376,21.364 C47.992,21.364 47.608,21.217 47.315,20.924 C46.484,20.094 45.324,19.603 44.131,19.579 C42.949,19.546 41.821,19.987 41.010,20.797 C40.424,21.383 39.475,21.383 38.889,20.797 C38.303,20.212 38.303,19.262 38.889,18.677 C40.282,17.283 42.136,16.547 44.193,16.580 C46.182,16.621 48.043,17.411 49.436,18.803 C50.022,19.389 50.022,20.338 49.436,20.924 C49.143,21.217 48.760,21.364 48.376,21.364 Z" id="path-8" class="cls-7" fill-rule="evenodd"/>
    <path d="M31.590,63.166 C14.171,63.166 -0.000,48.997 -0.000,31.580 C-0.000,14.164 14.171,-0.006 31.590,-0.006 C49.009,-0.006 63.180,14.164 63.180,31.580 C63.180,48.997 49.009,63.166 31.590,63.166 ZM31.590,2.994 C15.825,2.994 3.000,15.818 3.000,31.580 C3.000,47.343 15.825,60.166 31.590,60.166 C47.354,60.166 60.180,47.343 60.180,31.580 C60.180,15.818 47.354,2.994 31.590,2.994 Z" id="path-9" class="cls-7" fill-rule="evenodd"/>
    <path d="M47.082,51.807 C47.078,51.807 47.070,51.808 47.062,51.807 C47.062,51.807 16.498,51.807 16.498,51.807 C15.670,51.807 14.998,51.136 14.998,50.307 C14.998,42.949 20.643,37.809 28.724,37.809 C28.724,37.809 34.837,37.809 34.837,37.809 C42.823,37.809 48.429,42.828 48.560,50.048 C48.575,50.132 48.582,50.219 48.582,50.307 C48.582,51.136 47.911,51.807 47.082,51.807 ZM18.098,48.808 C18.098,48.808 45.463,48.808 45.463,48.808 C44.705,43.296 39.750,40.809 34.837,40.809 C34.837,40.809 28.724,40.809 28.724,40.809 C23.811,40.809 18.855,43.296 18.098,48.808 Z" id="path-10" class="cls-7" fill-rule="evenodd"/>
  </g>
</svg>
