<svg xmlns="http://www.w3.org/2000/svg" xmlns:xlink="http://www.w3.org/1999/xlink" preserveAspectRatio="xMidYMid" width="68" height="65" viewBox="0 0 68 65">
  <defs>
    <style>

      .cls-3 {
        fill: #edc951;
      }

      .cls-4 {
        fill: #53ecf4;
      }

      .cls-6 {
        fill: #000000;
      }
    </style>
  </defs>
  <g id="group-41svg">
    <path d="M67.313,34.419 C67.313,51.036 53.842,64.506 37.224,64.506 C20.605,64.506 7.135,51.036 7.135,34.419 C7.135,17.804 20.605,4.334 37.224,4.334 C53.842,4.334 67.313,17.804 67.313,34.419 Z" id="path-1" class="cls-3" fill-rule="evenodd"/>
    <path d="M58.052,29.059 C58.052,33.601 54.369,37.283 49.825,37.283 C45.282,37.283 41.600,33.601 41.600,29.059 C41.600,24.516 45.282,20.834 49.825,20.834 C54.369,20.834 58.052,24.516 58.052,29.059 Z" id="path-2" class="cls-4" fill-rule="evenodd"/>
    <path d="M32.100,29.059 C32.100,33.601 28.416,37.283 23.873,37.283 C19.330,37.283 15.647,33.601 15.647,29.059 C15.647,24.516 19.330,20.834 23.873,20.834 C28.416,20.834 32.100,24.516 32.100,29.059 Z" id="path-3" class="cls-4" fill-rule="evenodd"/>
    <path d="M34.366,51.276 C34.366,51.276 29.310,51.276 29.310,51.276 C22.908,51.276 17.700,46.118 17.700,39.777 C17.700,38.948 18.372,38.277 19.200,38.277 C20.028,38.277 20.700,38.948 20.700,39.777 C20.700,44.464 24.562,48.277 29.310,48.277 C29.310,48.277 34.366,48.277 34.366,48.277 C39.194,48.277 42.977,44.591 42.977,39.887 C42.977,39.058 43.648,38.387 44.477,38.387 C45.305,38.387 45.976,39.058 45.976,39.887 C45.976,46.273 40.877,51.276 34.366,51.276 Z" id="path-4" class="cls-6" fill-rule="evenodd"/>
    <path d="M45.124,35.963 C39.762,35.963 35.398,31.600 35.398,26.238 C35.398,20.876 39.762,16.513 45.124,16.513 C50.486,16.513 54.850,20.876 54.850,26.238 C54.850,31.600 50.486,35.963 45.124,35.963 ZM45.124,19.513 C41.415,19.513 38.398,22.530 38.398,26.238 C38.398,29.946 41.415,32.963 45.124,32.963 C48.833,32.963 51.850,29.946 51.850,26.238 C51.850,22.530 48.833,19.513 45.124,19.513 Z" id="path-5" class="cls-6" fill-rule="evenodd"/>
    <path d="M19.172,35.963 C13.810,35.963 9.446,31.600 9.446,26.238 C9.446,20.876 13.810,16.513 19.172,16.513 C24.534,16.513 28.897,20.876 28.897,26.238 C28.897,31.600 24.534,35.963 19.172,35.963 ZM19.172,19.513 C15.463,19.513 12.446,22.530 12.446,26.238 C12.446,29.946 15.463,32.963 19.172,32.963 C22.881,32.963 25.897,29.946 25.897,26.238 C25.897,22.530 22.881,19.513 19.172,19.513 Z" id="path-6" class="cls-6" fill-rule="evenodd"/>
    <path d="M36.281,27.279 C36.281,27.279 27.281,27.279 27.281,27.279 C26.453,27.279 25.781,26.608 25.781,25.779 C25.781,24.951 26.453,24.279 27.281,24.279 C27.281,24.279 36.281,24.279 36.281,24.279 C37.109,24.279 37.781,24.951 37.781,25.779 C37.781,26.608 37.109,27.279 36.281,27.279 Z" id="path-7" class="cls-6" fill-rule="evenodd"/>
    <path d="M53.351,27.739 C52.783,27.739 52.240,27.415 51.987,26.866 C51.641,26.113 51.970,25.222 52.722,24.876 C52.722,24.876 58.740,22.104 58.740,22.104 C59.494,21.756 60.384,22.086 60.730,22.839 C61.077,23.592 60.748,24.483 59.996,24.829 C59.996,24.829 53.977,27.600 53.977,27.600 C53.773,27.694 53.561,27.739 53.351,27.739 Z" id="path-8" class="cls-6" fill-rule="evenodd"/>
    <path d="M10.848,27.739 C10.638,27.739 10.425,27.694 10.221,27.600 C10.221,27.600 4.202,24.829 4.202,24.829 C3.450,24.483 3.121,23.592 3.468,22.839 C3.813,22.086 4.701,21.756 5.458,22.104 C5.458,22.104 11.477,24.876 11.477,24.876 C12.228,25.222 12.558,26.113 12.211,26.866 C11.958,27.415 11.415,27.739 10.848,27.739 Z" id="path-9" class="cls-6" fill-rule="evenodd"/>
    <path d="M31.582,63.185 C14.163,63.185 -0.008,49.015 -0.008,31.599 C-0.008,14.183 14.163,0.013 31.582,0.013 C49.001,0.013 63.172,14.183 63.172,31.599 C63.172,49.015 49.001,63.185 31.582,63.185 ZM31.582,3.013 C15.817,3.013 2.992,15.837 2.992,31.599 C2.992,47.362 15.817,60.185 31.582,60.185 C47.347,60.185 60.172,47.362 60.172,31.599 C60.172,15.837 47.347,3.013 31.582,3.013 Z" id="path-10" class="cls-6" fill-rule="evenodd"/>
  </g>
</svg>
