<?xml version="1.0" encoding="UTF-8" standalone="no"?>
<svg xmlns="http://www.w3.org/2000/svg" viewBox="0 0 68.603775 77.800003" fill="white">
    <g id="g4" transform="translate(-15.8,-10.6)">
        <path d="m 80.2,23 h -8 v -2 c 0,-2.4 -1.9,-4.3 -4.3,-4.3 h -7.6 v -1.8 c 0,-2.4 -1.9,-4.3 -4.3,-4.3 H 20.1 c -2.4,0 -4.3,1.9 -4.3,4.3 v 44.3 c 0,2.4 1.9,4.3 4.3,4.3 h 2.5 v 8 c 0,2.4 1.9,4.3 4.3,4.3 h 2.8 v 8.3 c 0,2.4 1.9,4.3 4.3,4.3 h 46.1 c 2.4,0 4.3,-1.9 4.3,-4.3 V 27.4 C 84.5,25 82.6,23 80.2,23 Z M 22.5,21 V 60.5 H 20 c -0.7,0 -1.3,-0.6 -1.3,-1.3 V 14.9 c 0,-0.7 0.6,-1.3 1.3,-1.3 h 35.7 c 0.7,0 1.3,0.6 1.3,1.3 v 1.8 H 26.9 c -2.4,-0.1 -4.4,1.9 -4.4,4.3 z m 7.2,6.4 v 45.5 h -2.8 c -0.7,0 -1.3,-0.6 -1.3,-1.3 V 21 c 0,-0.7 0.6,-1.3 1.3,-1.3 h 40.9 c 0.7,0 1.3,0.6 1.3,1.3 v 2 h -35 c -2.4,0 -4.4,2 -4.4,4.4 z m 51.8,56.8 c 0,0.7 -0.6,1.3 -1.3,1.3 H 34.1 c -0.7,0 -1.3,-0.6 -1.3,-1.3 V 27.4 c 0,-0.7 0.6,-1.3 1.3,-1.3 h 46.1 c 0.7,0 1.3,0.6 1.3,1.3 z M 57,41.5 c -4.1,0 -7.9,1.6 -10.8,4.4 -2.4,2.4 -4,5.5 -4.5,8.8 h -2.2 c -0.7,0 -1.2,0.8 -0.8,1.4 l 3.9,6.8 c 0.4,0.6 1.3,0.6 1.6,0 l 3.9,-6.8 C 48.5,55.5 48,54.7 47.3,54.7 h -2.6 c 0.5,-2.5 1.7,-4.8 3.5,-6.6 2.4,-2.3 5.5,-3.6 8.7,-3.6 6.9,0 12.5,5.6 12.5,12.5 0,6.9 -5.5,12.5 -12.4,12.5 -2.9,0 -5.8,-1 -8,-2.9 -0.6,-0.5 -1.6,-0.5 -2.1,0.2 -0.5,0.6 -0.5,1.6 0.2,2.1 2.8,2.3 6.3,3.6 10,3.6 8.5,0 15.5,-7 15.5,-15.5 0,-8.5 -7.1,-15.5 -15.6,-15.5 z" />
    </g>
</svg>