<svg xmlns="http://www.w3.org/2000/svg" xmlns:xlink="http://www.w3.org/1999/xlink" preserveAspectRatio="xMidYMid" width="69" height="62" viewBox="0 0 69 62">
  <defs>
    <style>

      .cls-3 {
        fill: #53ecf4;
      }

      .cls-4 {
        fill: #8b71b5;
      }

      .cls-5 {
        fill: #000000;
      }
    </style>
  </defs>
  <g id="group-19svg">
    <path d="M36.719,18.469 C36.719,18.469 36.719,6.718 36.719,6.718 C36.719,5.514 35.767,4.469 34.562,4.469 C34.562,4.469 21.478,4.469 21.478,4.469 C20.274,4.469 19.719,5.514 19.719,6.718 C19.719,6.718 19.719,27.469 19.719,27.469 C19.719,27.469 13.163,27.469 13.163,27.469 C8.997,27.469 6.515,34.012 8.828,37.476 C8.828,37.476 22.712,59.216 22.712,59.216 C24.743,62.257 29.192,62.791 31.305,59.805 C31.305,59.805 39.205,47.653 39.205,47.653 C39.205,47.653 39.205,47.653 39.205,47.653 " id="path-1" class="cls-3" fill-rule="evenodd"/>
    <path d="M67.055,28.193 C67.055,28.193 53.170,6.319 53.170,6.319 C51.139,3.278 46.689,2.677 44.578,5.663 C44.578,5.663 29.877,28.349 29.877,28.349 C27.435,31.802 29.904,38.469 34.134,38.469 C34.134,38.469 38.719,38.469 38.719,38.469 C38.719,38.469 38.719,59.054 38.719,59.054 C38.719,60.258 39.900,61.469 41.104,61.469 C41.104,61.469 54.188,61.469 54.188,61.469 C55.393,61.469 56.719,60.258 56.719,59.054 C56.719,59.054 56.719,38.469 56.719,38.469 C56.719,38.469 62.719,38.469 62.719,38.469 C66.885,38.469 69.368,31.657 67.055,28.193 Z" id="path-2" class="cls-4" fill-rule="evenodd"/>
    <path d="M47.788,60.469 C47.788,60.469 34.704,60.469 34.704,60.469 C32.779,60.469 30.719,59.035 30.719,56.899 C30.719,56.899 30.719,37.469 30.719,37.469 C30.719,37.469 27.733,37.469 27.733,37.469 C25.437,37.469 23.317,36.024 22.065,33.606 C20.598,30.772 20.673,27.367 22.252,25.135 C22.252,25.135 36.922,2.646 36.922,2.646 C38.125,0.941 39.977,-0.009 42.033,-0.009 C44.384,-0.009 46.677,1.238 48.017,3.246 C48.017,3.246 61.919,25.060 61.919,25.060 C63.669,27.679 63.164,31.289 61.879,33.691 C60.596,36.092 58.569,37.469 56.319,37.469 C56.319,37.469 51.719,37.469 51.719,37.469 C51.719,37.469 51.719,56.899 51.719,56.899 C51.719,59.035 49.686,60.469 47.788,60.469 ZM42.033,2.991 C40.948,2.991 40.014,3.467 39.402,4.332 C39.402,4.332 24.732,26.820 24.732,26.820 C23.768,28.187 23.779,30.391 24.729,32.227 C25.078,32.901 26.069,34.469 27.733,34.469 C27.733,34.469 33.719,34.469 33.719,34.469 C33.719,34.469 33.719,56.899 33.719,56.899 C33.719,57.114 34.196,57.469 34.704,57.469 C34.704,57.469 47.788,57.469 47.788,57.469 C48.268,57.469 48.719,57.148 48.719,56.899 C48.719,56.899 48.719,34.469 48.719,34.469 C48.719,34.469 56.319,34.469 56.319,34.469 C57.892,34.469 58.881,32.936 59.233,32.277 C60.238,30.398 60.311,28.052 59.407,26.699 C59.407,26.699 45.505,4.885 45.505,4.885 C44.731,3.727 43.395,2.991 42.033,2.991 Z" id="path-3" class="cls-5" fill-rule="evenodd"/>
    <path d="M21.064,61.469 C21.034,61.469 21.005,61.469 20.975,61.469 C18.653,61.469 16.389,59.989 15.065,58.006 C15.065,58.006 1.162,36.053 1.162,36.053 C-0.597,33.420 -0.081,29.729 1.218,27.299 C2.503,24.896 4.523,23.469 6.764,23.469 C6.764,23.469 11.719,23.469 11.719,23.469 C11.719,23.469 11.719,4.564 11.719,4.564 C11.719,2.551 12.976,0.469 15.079,0.469 C15.079,0.469 28.162,0.469 28.162,0.469 C30.290,0.469 31.719,2.586 31.719,4.564 C31.719,4.564 31.719,16.469 31.719,16.469 C31.719,16.469 28.719,16.469 28.719,16.469 C28.719,16.469 28.719,4.564 28.719,4.564 C28.719,3.990 28.318,3.469 28.162,3.469 C28.162,3.469 15.079,3.469 15.079,3.469 C14.984,3.523 14.719,3.970 14.719,4.564 C14.719,4.564 14.719,26.469 14.719,26.469 C14.719,26.469 6.764,26.469 6.764,26.469 C5.205,26.469 4.217,28.004 3.863,28.665 C2.843,30.574 2.764,32.951 3.675,34.316 C3.675,34.316 17.578,56.170 17.578,56.170 C18.344,57.316 19.667,58.056 21.015,58.074 C21.669,58.083 22.845,57.921 23.680,56.742 C23.680,56.742 31.498,44.736 31.498,44.736 C31.498,44.736 34.012,46.373 34.012,46.373 C34.012,46.373 26.161,58.624 26.161,58.624 C24.958,60.327 23.116,61.469 21.064,61.469 Z" id="path-4" class="cls-5" fill-rule="evenodd"/>
  </g>
</svg>
