<svg xmlns="http://www.w3.org/2000/svg" xmlns:xlink="http://www.w3.org/1999/xlink" preserveAspectRatio="xMidYMid" width="62" height="57" viewBox="0 0 62 57">
  <defs>
    <style>

      .cls-3 {
        fill: #ff917b;
      }

      .cls-4 {
        fill: #e56a77;
      }

      .cls-5 {
        fill: #000000;
      }
    </style>
  </defs>
  <g id="group-16svg">
    <path d="M15.500,3.509 C15.500,3.509 15.500,34.351 15.500,34.351 C24.500,34.351 30.921,27.446 30.921,18.930 C30.921,10.413 24.500,3.509 15.500,3.509 Z" id="path-1" class="cls-3" fill-rule="evenodd"/>
    <path d="M30.327,11.369 C30.327,11.369 31.818,15.728 31.818,18.930 C31.818,22.132 30.327,26.491 30.327,26.491 C35.061,26.491 37.888,23.105 37.888,18.930 C37.888,14.754 35.061,11.369 30.327,11.369 Z" id="path-2" class="cls-4" fill-rule="evenodd"/>
    <path d="M13.000,33.851 C12.171,33.851 11.500,33.179 11.500,32.351 C11.500,32.351 11.500,1.509 11.500,1.509 C11.500,0.681 12.171,0.009 13.000,0.009 C22.646,0.009 29.921,7.283 29.921,16.930 C29.921,26.576 22.646,33.851 13.000,33.851 ZM14.500,3.082 C14.500,3.082 14.500,30.778 14.500,30.778 C21.679,30.076 26.921,24.357 26.921,16.930 C26.921,9.502 21.679,3.783 14.500,3.082 Z" id="path-3" class="cls-5" fill-rule="evenodd"/>
    <path d="M27.327,25.991 C26.843,25.991 26.389,25.757 26.107,25.363 C25.826,24.969 25.751,24.464 25.908,24.006 C25.922,23.964 27.318,19.839 27.318,16.930 C27.318,14.020 25.922,9.895 25.908,9.854 C25.751,9.395 25.826,8.890 26.107,8.496 C26.389,8.103 26.843,7.869 27.327,7.869 C32.578,7.869 36.388,11.680 36.388,16.930 C36.388,22.180 32.578,25.991 27.327,25.991 ZM29.421,11.163 C29.847,12.792 30.318,15.023 30.318,16.930 C30.318,18.837 29.847,21.067 29.421,22.696 C32.145,21.863 33.388,19.387 33.388,16.930 C33.388,14.473 32.145,11.997 29.421,11.163 Z" id="path-4" class="cls-5" fill-rule="evenodd"/>
    <path d="M12.500,11.906 C12.500,11.906 1.500,11.906 1.500,11.906 C0.671,11.906 -0.000,11.235 -0.000,10.406 C-0.000,9.578 0.671,8.906 1.500,8.906 C1.500,8.906 12.500,8.906 12.500,8.906 C13.329,8.906 14.000,9.578 14.000,10.406 C14.000,11.235 13.329,11.906 12.500,11.906 Z" id="path-5" class="cls-5" fill-rule="evenodd"/>
    <path d="M12.500,23.906 C12.500,23.906 1.500,23.906 1.500,23.906 C0.671,23.906 -0.000,23.235 -0.000,22.406 C-0.000,21.578 0.671,20.906 1.500,20.906 C1.500,20.906 12.500,20.906 12.500,20.906 C13.329,20.906 14.000,21.578 14.000,22.406 C14.000,23.235 13.329,23.906 12.500,23.906 Z" id="path-6" class="cls-5" fill-rule="evenodd"/>
    <path d="M61.000,56.406 C60.171,56.406 59.500,55.735 59.500,54.906 C59.500,54.906 59.500,46.088 59.500,46.088 C59.500,43.596 57.914,40.906 55.350,40.906 C55.317,40.906 55.285,40.905 55.253,40.903 C50.886,40.792 47.500,37.690 47.500,33.752 C47.500,33.752 47.500,23.658 47.500,23.658 C47.500,20.994 45.575,18.906 43.117,18.906 C43.117,18.906 35.500,18.906 35.500,18.906 C34.671,18.906 34.000,18.235 34.000,17.406 C34.000,16.578 34.671,15.906 35.500,15.906 C35.500,15.906 43.117,15.906 43.117,15.906 C47.257,15.906 50.500,19.311 50.500,23.658 C50.500,23.658 50.500,33.752 50.500,33.752 C50.500,36.450 53.074,37.906 55.497,37.906 C55.539,37.906 55.581,37.908 55.622,37.911 C59.934,38.077 62.500,42.148 62.500,46.088 C62.500,46.088 62.500,54.906 62.500,54.906 C62.500,55.735 61.829,56.406 61.000,56.406 Z" id="path-7" class="cls-5" fill-rule="evenodd"/>
  </g>
</svg>
