<svg xmlns="http://www.w3.org/2000/svg" xmlns:xlink="http://www.w3.org/1999/xlink" preserveAspectRatio="xMidYMid" width="59" height="64" viewBox="0 0 59 64">
  <defs>
    <style>

      .cls-3 {
        fill: #ff917b;
      }

      .cls-4 {
        fill: #edc951;
      }

      .cls-5 {
        fill: #53ecf4;
      }

      .cls-6 {
        fill: #000000;
      }
    </style>
  </defs>
  <g id="group-13svg">
    <path d="M25.000,26.000 C25.000,26.000 25.000,23.462 25.000,23.462 C25.000,21.278 27.921,20.000 30.105,20.000 C30.105,20.000 55.812,20.000 55.812,20.000 C57.996,20.000 59.000,17.737 59.000,15.553 C59.000,15.553 59.000,6.679 59.000,6.679 C59.000,4.495 57.996,3.000 55.812,3.000 C55.812,3.000 26.150,3.000 26.150,3.000 C26.150,3.000 22.196,3.000 22.196,3.000 C22.196,3.000 12.309,3.000 12.309,3.000 C10.124,3.000 8.000,4.495 8.000,6.679 C8.000,6.679 8.000,26.000 8.000,26.000 C8.000,26.000 8.000,26.000 8.000,26.000 " id="path-1" class="cls-3" fill-rule="evenodd"/>
    <path d="M28.000,30.901 C28.000,28.747 26.253,27.000 24.099,27.000 C24.099,27.000 8.901,27.000 8.901,27.000 C6.747,27.000 5.000,28.747 5.000,30.901 C5.000,30.901 5.000,31.099 5.000,31.099 C5.000,33.253 6.747,35.000 8.901,35.000 C8.901,35.000 24.099,35.000 24.099,35.000 C26.253,35.000 28.000,33.253 28.000,31.099 C28.000,31.099 28.000,30.901 28.000,30.901 Z" id="path-2" class="cls-4" fill-rule="evenodd"/>
    <path d="M19.748,54.873 C18.147,52.603 16.946,50.641 16.047,48.955 C12.595,42.478 13.608,40.088 13.608,40.088 C13.608,40.088 9.829,50.244 9.829,54.290 C9.829,56.438 10.082,57.858 10.777,59.705 C11.431,61.450 13.475,62.724 15.898,62.724 C18.850,62.724 21.242,60.836 21.242,58.507 C21.242,57.516 20.424,55.852 19.748,54.873 Z" id="path-3" class="cls-5" fill-rule="evenodd"/>
    <path d="M21.500,26.500 C20.671,26.500 20.000,25.829 20.000,25.000 C20.000,25.000 20.000,22.462 20.000,22.462 C20.000,19.336 23.224,17.000 26.105,17.000 C26.105,17.000 51.812,17.000 51.812,17.000 C53.315,17.000 54.000,15.731 54.000,14.553 C54.000,14.553 54.000,5.679 54.000,5.679 C54.000,4.362 53.182,3.000 51.812,3.000 C51.812,3.000 8.309,3.000 8.309,3.000 C6.928,3.000 6.000,4.385 6.000,5.679 C6.000,5.679 6.000,25.000 6.000,25.000 C6.000,25.829 5.329,26.500 4.500,26.500 C3.671,26.500 3.000,25.829 3.000,25.000 C3.000,25.000 3.000,5.679 3.000,5.679 C3.000,2.548 5.381,-0.000 8.309,-0.000 C8.309,-0.000 51.812,-0.000 51.812,-0.000 C54.721,-0.000 57.000,2.494 57.000,5.679 C57.000,5.679 57.000,14.553 57.000,14.553 C57.000,17.658 54.770,20.000 51.812,20.000 C51.812,20.000 26.105,20.000 26.105,20.000 C24.596,20.000 23.000,21.266 23.000,22.462 C23.000,22.462 23.000,25.000 23.000,25.000 C23.000,25.829 22.329,26.500 21.500,26.500 Z" id="path-4" class="cls-6" fill-rule="evenodd"/>
    <path d="M20.599,35.000 C20.599,35.000 5.401,35.000 5.401,35.000 C2.423,35.000 -0.000,32.577 -0.000,29.599 C-0.000,29.599 -0.000,29.401 -0.000,29.401 C-0.000,26.423 2.423,24.000 5.401,24.000 C5.401,24.000 20.599,24.000 20.599,24.000 C23.577,24.000 26.000,26.423 26.000,29.401 C26.000,29.401 26.000,29.599 26.000,29.599 C26.000,32.577 23.577,35.000 20.599,35.000 ZM5.401,27.000 C4.077,27.000 3.000,28.077 3.000,29.401 C3.000,29.401 3.000,29.599 3.000,29.599 C3.000,30.923 4.077,32.000 5.401,32.000 C5.401,32.000 20.599,32.000 20.599,32.000 C21.923,32.000 23.000,30.923 23.000,29.599 C23.000,29.599 23.000,29.401 23.000,29.401 C23.000,28.077 21.923,27.000 20.599,27.000 C20.599,27.000 5.401,27.000 5.401,27.000 Z" id="path-5" class="cls-6" fill-rule="evenodd"/>
    <path d="M11.898,63.224 C8.890,63.224 6.268,61.619 5.372,59.231 C4.612,57.208 4.329,55.598 4.329,53.290 C4.329,49.159 7.795,39.665 8.191,38.596 C8.191,38.596 8.191,38.596 8.191,38.596 C8.191,38.596 8.191,38.596 8.191,38.596 C8.191,38.596 8.191,38.596 8.191,38.596 C8.192,38.593 8.202,38.565 8.203,38.564 C8.203,38.564 8.203,38.564 8.203,38.564 C8.211,38.541 8.221,38.518 8.228,38.502 C8.546,37.751 9.406,37.393 10.163,37.694 C10.919,37.995 11.298,38.845 11.015,39.608 C10.992,39.705 10.507,41.878 13.371,47.249 C14.314,49.020 15.527,50.958 16.973,53.008 C17.635,53.966 18.742,55.976 18.742,57.507 C18.742,60.659 15.672,63.224 11.898,63.224 ZM9.121,45.215 C8.170,48.296 7.329,51.553 7.329,53.290 C7.329,55.249 7.543,56.482 8.181,58.176 C8.633,59.383 10.162,60.224 11.898,60.224 C13.982,60.224 15.742,58.979 15.742,57.507 C15.742,57.043 15.206,55.727 14.514,54.726 C13.004,52.585 11.726,50.541 10.723,48.661 C10.039,47.376 9.516,46.230 9.121,45.215 Z" id="path-6" class="cls-6" fill-rule="evenodd"/>
  </g>
</svg>
