<svg xmlns="http://www.w3.org/2000/svg" xmlns:xlink="http://www.w3.org/1999/xlink" preserveAspectRatio="xMidYMid" width="63" height="49" viewBox="0 0 63 49">
  <defs>
    <style>

      .cls-3 {
        fill: #8b71b5;
      }

      .cls-4 {
        fill: #edc951;
      }

      .cls-5 {
        fill: #000000;
      }
    </style>
  </defs>
  <g id="group-14svg">
    <path d="M63.000,45.000 C63.000,47.209 61.209,49.000 59.000,49.000 C59.000,49.000 11.000,49.000 11.000,49.000 C8.791,49.000 7.000,47.209 7.000,45.000 C7.000,45.000 7.000,8.000 7.000,8.000 C7.000,5.791 8.791,4.000 11.000,4.000 C11.000,4.000 59.000,4.000 59.000,4.000 C61.209,4.000 63.000,5.791 63.000,8.000 C63.000,8.000 63.000,45.000 63.000,45.000 Z" id="path-1" class="cls-3" fill-rule="evenodd"/>
    <path d="M49.852,25.428 C49.852,33.934 42.957,40.829 34.452,40.829 C25.946,40.829 19.051,33.934 19.051,25.428 C19.051,16.923 25.946,10.028 34.452,10.028 C42.957,10.028 49.852,16.923 49.852,25.428 Z" id="path-2" class="cls-4" fill-rule="evenodd"/>
    <path d="M53.500,48.000 C53.500,48.000 5.500,48.000 5.500,48.000 C2.467,48.000 -0.000,45.533 -0.000,42.500 C-0.000,42.500 -0.000,5.500 -0.000,5.500 C-0.000,2.467 2.467,-0.000 5.500,-0.000 C5.500,-0.000 53.500,-0.000 53.500,-0.000 C56.533,-0.000 59.000,2.467 59.000,5.500 C59.000,5.500 59.000,42.500 59.000,42.500 C59.000,45.533 56.533,48.000 53.500,48.000 ZM5.500,3.000 C4.122,3.000 3.000,4.122 3.000,5.500 C3.000,5.500 3.000,42.500 3.000,42.500 C3.000,43.878 4.122,45.000 5.500,45.000 C5.500,45.000 53.500,45.000 53.500,45.000 C54.878,45.000 56.000,43.878 56.000,42.500 C56.000,42.500 56.000,5.500 56.000,5.500 C56.000,4.122 54.878,3.000 53.500,3.000 C53.500,3.000 5.500,3.000 5.500,3.000 Z" id="path-3" class="cls-5" fill-rule="evenodd"/>
    <path d="M30.706,40.456 C21.387,40.456 13.805,32.874 13.805,23.555 C13.805,14.236 21.387,6.655 30.706,6.655 C40.025,6.655 47.606,14.236 47.606,23.555 C47.606,32.874 40.025,40.456 30.706,40.456 ZM30.706,9.655 C23.041,9.655 16.805,15.891 16.805,23.555 C16.805,31.220 23.041,37.456 30.706,37.456 C38.371,37.456 44.606,31.220 44.606,23.555 C44.606,15.891 38.371,9.655 30.706,9.655 Z" id="path-4" class="cls-5" fill-rule="evenodd"/>
    <path d="M34.077,16.447 C34.077,18.410 32.486,20.001 30.523,20.001 C28.560,20.001 26.969,18.410 26.969,16.447 C26.969,14.484 28.560,12.894 30.523,12.894 C32.486,12.894 34.077,14.484 34.077,16.447 Z" id="path-5" class="cls-5" fill-rule="evenodd"/>
    <path d="M34.077,30.664 C34.077,32.626 32.486,34.217 30.523,34.217 C28.560,34.217 26.969,32.626 26.969,30.664 C26.969,28.701 28.560,27.109 30.523,27.109 C32.486,27.109 34.077,28.701 34.077,30.664 Z" id="path-6" class="cls-5" fill-rule="evenodd"/>
  </g>
</svg>
