<svg xmlns="http://www.w3.org/2000/svg" xmlns:xlink="http://www.w3.org/1999/xlink" preserveAspectRatio="xMidYMid" width="45" height="64" viewBox="0 0 45 64">
  <defs>
    <style>

      .cls-3 {
        fill: #ff917b;
      }

      .cls-4 {
        fill: #e56a77;
      }

      .cls-5 {
        fill: #53ecf4;
      }

      .cls-7 {
        fill: #000000;
      }
    </style>
  </defs>
  <g id="group-28svg">
    <path d="M20.000,63.906 C20.000,63.906 6.000,63.906 6.000,63.906 C6.000,63.906 6.000,43.070 6.000,43.070 C6.000,39.027 8.376,34.906 12.419,34.906 C12.419,34.906 14.240,34.906 14.240,34.906 C18.283,34.906 20.000,39.027 20.000,43.070 C20.000,43.070 20.000,63.906 20.000,63.906 Z" id="path-1" class="cls-3" fill-rule="evenodd"/>
    <path d="M45.000,63.906 C45.000,63.906 27.000,63.906 27.000,63.906 C27.000,63.906 27.000,35.906 27.000,35.906 C27.000,31.488 30.582,27.906 35.000,27.906 C35.000,27.906 37.000,27.906 37.000,27.906 C41.418,27.906 45.000,31.488 45.000,35.906 C45.000,35.906 45.000,63.906 45.000,63.906 Z" id="path-2" class="cls-4" fill-rule="evenodd"/>
    <path d="M38.530,6.172 C37.550,6.172 36.648,6.491 35.907,7.019 C35.162,5.536 33.643,4.507 31.869,4.507 C29.365,4.507 27.335,6.537 27.335,9.041 C27.335,10.815 28.363,12.334 29.848,13.080 C29.318,13.821 29.000,14.723 29.000,15.703 C29.000,18.207 33.534,23.567 33.534,23.567 C33.534,23.567 38.068,18.207 38.068,15.703 C38.068,15.527 38.354,15.240 38.530,15.240 C41.034,15.240 43.064,13.210 43.064,10.706 C43.064,8.203 41.034,6.172 38.530,6.172 Z" id="path-3" class="cls-5" fill-rule="evenodd"/>
    <path d="M15.404,18.405 C14.629,18.405 13.917,18.657 13.331,19.074 C12.742,17.902 11.541,17.089 10.140,17.089 C8.160,17.089 6.557,18.693 6.557,20.672 C6.557,22.074 7.369,23.275 8.542,23.864 C8.124,24.450 7.872,25.162 7.872,25.937 C7.872,27.915 11.455,32.152 11.455,32.152 C11.455,32.152 15.039,27.915 15.039,25.937 C15.039,25.798 15.265,25.571 15.404,25.571 C17.383,25.571 18.987,23.967 18.987,21.988 C18.987,20.010 17.383,18.405 15.404,18.405 Z" id="path-4" class="cls-5" fill-rule="evenodd"/>
    <path d="M40.500,61.906 C40.500,61.906 22.500,61.906 22.500,61.906 C21.672,61.906 21.000,61.235 21.000,60.406 C21.000,60.406 21.000,32.406 21.000,32.406 C21.000,27.168 25.262,22.906 30.500,22.906 C30.500,22.906 32.500,22.906 32.500,22.906 C37.738,22.906 42.000,27.168 42.000,32.406 C42.000,32.406 42.000,60.406 42.000,60.406 C42.000,61.235 41.328,61.906 40.500,61.906 ZM24.000,58.906 C24.000,58.906 39.000,58.906 39.000,58.906 C39.000,58.906 39.000,32.406 39.000,32.406 C39.000,28.822 36.084,25.906 32.500,25.906 C32.500,25.906 30.500,25.906 30.500,25.906 C26.916,25.906 24.000,28.822 24.000,32.406 C24.000,32.406 24.000,58.906 24.000,58.906 Z" id="path-5" class="cls-7" fill-rule="evenodd"/>
    <path d="M15.500,61.906 C15.500,61.906 1.500,61.906 1.500,61.906 C0.672,61.906 -0.000,61.235 -0.000,60.406 C-0.000,60.406 -0.000,38.406 -0.000,38.406 C-0.000,33.719 3.813,29.906 8.500,29.906 C13.187,29.906 17.000,33.719 17.000,38.406 C17.000,38.406 17.000,60.406 17.000,60.406 C17.000,61.235 16.328,61.906 15.500,61.906 ZM3.000,58.906 C3.000,58.906 14.000,58.906 14.000,58.906 C14.000,58.906 14.000,38.406 14.000,38.406 C14.000,35.373 11.532,32.906 8.500,32.906 C5.468,32.906 3.000,35.373 3.000,38.406 C3.000,38.406 3.000,58.906 3.000,58.906 Z" id="path-6" class="cls-7" fill-rule="evenodd"/>
    <path d="M28.534,22.067 C28.093,22.067 27.674,21.873 27.389,21.536 C26.572,20.570 22.500,15.608 22.500,12.702 C22.500,11.965 22.635,11.244 22.895,10.564 C21.599,9.437 20.835,7.806 20.835,6.041 C20.835,2.714 23.542,0.007 26.869,0.007 C28.634,0.007 30.265,0.771 31.393,2.068 C32.071,1.807 32.793,1.673 33.530,1.673 C36.857,1.673 39.564,4.379 39.564,7.707 C39.564,10.723 37.339,13.230 34.444,13.671 C33.755,16.600 30.411,20.671 29.680,21.536 C29.395,21.873 28.976,22.067 28.534,22.067 ZM26.869,3.007 C25.196,3.007 23.835,4.369 23.835,6.041 C23.835,7.184 24.480,8.217 25.520,8.739 C25.912,8.936 26.198,9.293 26.304,9.719 C26.409,10.144 26.323,10.594 26.068,10.951 C25.696,11.472 25.500,12.078 25.500,12.702 C25.500,13.678 26.925,16.039 28.534,18.165 C30.143,16.039 31.568,13.678 31.568,12.702 C31.568,11.694 32.521,10.740 33.530,10.740 C35.203,10.740 36.564,9.379 36.564,7.707 C36.564,6.034 35.203,4.673 33.530,4.673 C32.905,4.673 32.300,4.869 31.778,5.241 C31.422,5.495 30.971,5.582 30.546,5.476 C30.121,5.370 29.764,5.084 29.566,4.692 C29.045,3.653 28.011,3.007 26.869,3.007 Z" id="path-7" class="cls-7" fill-rule="evenodd"/>
    <path d="M6.455,30.652 C6.455,30.652 6.455,30.652 6.455,30.652 C6.014,30.652 5.595,30.458 5.310,30.121 C4.386,29.028 1.372,25.282 1.372,22.936 C1.372,22.389 1.461,21.851 1.632,21.339 C0.638,20.396 0.057,19.085 0.057,17.672 C0.057,14.869 2.337,12.589 5.140,12.589 C6.553,12.589 7.864,13.170 8.806,14.165 C9.318,13.994 9.855,13.905 10.403,13.905 C13.207,13.905 15.487,16.186 15.487,18.988 C15.487,21.457 13.718,23.520 11.380,23.977 C10.747,26.266 8.396,29.180 7.601,30.121 C7.315,30.458 6.896,30.652 6.455,30.652 ZM5.140,15.589 C3.991,15.589 3.057,16.523 3.057,17.672 C3.057,18.455 3.501,19.165 4.215,19.523 C4.606,19.720 4.893,20.078 4.998,20.503 C5.103,20.928 5.018,21.378 4.763,21.735 C4.507,22.094 4.372,22.509 4.372,22.936 C4.372,23.569 5.331,25.191 6.455,26.724 C7.579,25.189 8.539,23.567 8.539,22.936 C8.539,21.960 9.428,21.071 10.403,21.071 C11.553,21.071 12.487,20.137 12.487,18.988 C12.487,17.839 11.553,16.905 10.403,16.905 C9.976,16.905 9.560,17.040 9.202,17.296 C8.845,17.550 8.394,17.636 7.970,17.530 C7.545,17.425 7.187,17.139 6.990,16.748 C6.632,16.033 5.923,15.589 5.140,15.589 Z" id="path-8" class="cls-7" fill-rule="evenodd"/>
  </g>
</svg>
