<svg xmlns="http://www.w3.org/2000/svg" xmlns:xlink="http://www.w3.org/1999/xlink" preserveAspectRatio="xMidYMid" width="65" height="58" viewBox="0 0 65 58">
  <defs>
    <style>

      .cls-3 {
        fill: #81bda4;
      }

      .cls-7 {
        fill: #ff917b;
      }

      .cls-8 {
        fill: #000000;
      }
    </style>
  </defs>
  <g id="group-10svg">
    <path d="M36.310,14.849 C36.310,14.849 37.223,7.861 52.263,7.405 C52.263,7.405 47.098,15.913 36.310,14.849 Z" id="path-1" class="cls-3" fill-rule="evenodd"/>
    <path d="M36.226,22.300 C36.226,22.300 43.229,13.341 64.494,25.054 C64.494,25.054 50.336,32.631 36.226,22.300 Z" id="path-2" class="cls-3" fill-rule="evenodd"/>
    <path d="M32.066,15.115 C32.066,15.115 33.150,8.151 18.841,3.497 C18.841,3.497 21.414,13.112 32.066,15.115 Z" id="path-3" class="cls-3" fill-rule="evenodd"/>
    <path d="M31.788,19.756 C31.788,19.756 23.271,12.222 4.494,27.614 C4.494,27.614 19.796,32.485 31.788,19.756 Z" id="path-4" class="cls-3" fill-rule="evenodd"/>
    <path d="M39.781,37.133 C39.781,37.133 39.781,33.283 39.781,33.283 C39.781,32.751 39.289,32.281 38.757,32.281 C38.757,32.281 38.750,32.281 38.750,32.281 C38.219,32.281 37.781,31.889 37.781,31.357 C37.781,31.357 37.781,29.432 37.781,29.432 C37.781,28.369 36.871,27.281 35.808,27.281 C35.808,27.281 30.994,27.281 30.994,27.281 C29.932,27.281 28.781,28.369 28.781,29.432 C28.781,29.432 28.781,31.357 28.781,31.357 C28.781,31.889 28.494,32.281 27.963,32.281 C27.963,32.281 27.853,32.281 27.853,32.281 C27.321,32.281 26.781,32.751 26.781,33.283 C26.781,33.283 26.781,37.133 26.781,37.133 C26.781,37.665 27.394,38.281 27.926,38.281 C27.926,38.281 27.872,38.281 27.872,38.281 C28.403,38.281 28.781,38.526 28.781,39.058 C28.781,39.058 28.781,40.983 28.781,40.983 C28.781,41.515 28.494,42.281 27.963,42.281 C27.963,42.281 27.853,42.281 27.853,42.281 C27.321,42.281 26.781,42.377 26.781,42.909 C26.781,42.909 26.781,46.759 26.781,46.759 C26.781,47.291 27.394,47.281 27.926,47.281 C27.926,47.281 27.872,47.281 27.872,47.281 C28.403,47.281 28.781,48.152 28.781,48.684 C28.781,48.684 28.781,52.535 28.781,52.535 C28.781,53.066 28.494,53.281 27.963,53.281 C27.963,53.281 27.853,53.281 27.853,53.281 C27.321,53.281 26.781,53.928 26.781,54.460 C26.781,54.460 26.781,56.385 26.781,56.385 C26.781,57.448 28.006,58.281 29.069,58.281 C29.069,58.281 37.732,58.281 37.732,58.281 C38.796,58.281 39.781,57.448 39.781,56.385 C39.781,56.385 39.781,54.460 39.781,54.460 C39.781,53.928 39.289,53.281 38.757,53.281 C38.757,53.281 38.750,53.281 38.750,53.281 C38.219,53.281 37.781,53.066 37.781,52.535 C37.781,52.535 37.781,48.684 37.781,48.684 C37.781,48.152 38.187,47.281 38.720,47.281 C38.720,47.281 38.769,47.281 38.769,47.281 C39.301,47.281 39.781,47.291 39.781,46.759 C39.781,46.759 39.781,42.909 39.781,42.909 C39.781,42.377 39.289,42.281 38.757,42.281 C38.757,42.281 38.750,42.281 38.750,42.281 C38.219,42.281 37.781,41.515 37.781,40.983 C37.781,40.983 37.781,39.058 37.781,39.058 C37.781,38.526 38.187,38.281 38.720,38.281 C38.720,38.281 38.769,38.281 38.769,38.281 C39.301,38.281 39.781,37.665 39.781,37.133 Z" id="path-5" class="cls-7" fill-rule="evenodd"/>
    <path d="M35.156,14.441 C34.502,14.441 33.831,14.408 33.163,14.342 C32.760,14.302 32.389,14.101 32.136,13.782 C31.884,13.464 31.770,13.058 31.823,12.655 C31.867,12.318 33.086,4.395 49.217,3.906 C49.797,3.887 50.281,4.175 50.559,4.649 C50.836,5.124 50.830,5.713 50.545,6.184 C50.340,6.520 45.413,14.441 35.156,14.441 ZM45.841,7.152 C39.619,7.884 36.873,9.947 35.680,11.433 C40.508,11.280 43.866,9.027 45.841,7.152 Z" id="path-6" class="cls-8" fill-rule="evenodd"/>
    <path d="M49.463,27.233 C43.287,27.233 37.526,25.308 32.340,21.510 C32.012,21.270 31.796,20.908 31.740,20.506 C31.684,20.103 31.794,19.696 32.044,19.376 C32.167,19.219 35.141,15.523 42.514,15.523 C48.100,15.523 54.729,17.615 62.218,21.740 C62.699,22.005 62.997,22.513 62.994,23.062 C62.991,23.613 62.686,24.117 62.202,24.376 C61.984,24.493 56.779,27.233 49.463,27.233 ZM35.707,20.180 C39.942,22.871 44.560,24.233 49.463,24.233 C52.946,24.233 55.905,23.537 57.924,22.879 C52.064,19.987 46.892,18.523 42.514,18.523 C39.110,18.523 36.939,19.417 35.707,20.180 Z" id="path-7" class="cls-8" fill-rule="evenodd"/>
    <path d="M29.066,14.615 C28.974,14.615 28.881,14.606 28.789,14.589 C17.341,12.436 14.507,2.315 14.392,1.885 C14.250,1.353 14.409,0.787 14.809,0.409 C15.208,0.031 15.781,-0.099 16.305,0.071 C31.652,5.062 30.601,13.010 30.549,13.345 C30.486,13.747 30.264,14.105 29.933,14.339 C29.677,14.520 29.374,14.615 29.066,14.615 ZM18.633,4.132 C20.002,6.486 22.594,9.592 27.189,11.092 C26.461,9.331 24.403,6.579 18.633,4.132 Z" id="path-8" class="cls-8" fill-rule="evenodd"/>
    <path d="M8.606,28.029 C8.606,28.029 8.606,28.029 8.606,28.029 C4.188,28.029 1.166,27.083 1.039,27.043 C0.515,26.876 0.124,26.435 0.020,25.895 C-0.083,25.355 0.118,24.802 0.543,24.453 C8.672,17.791 16.000,14.412 22.324,14.412 C27.132,14.412 29.524,16.404 29.781,16.632 C30.086,16.901 30.268,17.281 30.286,17.687 C30.305,18.093 30.158,18.489 29.880,18.784 C22.682,26.425 14.338,28.029 8.606,28.029 ZM4.978,24.790 C5.993,24.925 7.225,25.029 8.606,25.029 C13.387,25.029 20.194,23.784 26.323,18.091 C25.424,17.744 24.101,17.412 22.324,17.412 C18.820,17.412 13.071,18.751 4.978,24.790 Z" id="path-9" class="cls-8" fill-rule="evenodd"/>
    <path d="M34.732,58.281 C34.732,58.281 26.069,58.281 26.069,58.281 C24.102,58.281 22.781,56.267 22.781,54.385 C22.781,54.385 22.781,52.460 22.781,52.460 C22.781,51.476 23.404,50.485 24.781,50.309 C24.781,50.309 24.781,47.238 24.781,47.238 C23.622,47.018 22.781,45.990 22.781,44.759 C22.781,44.759 22.781,40.909 22.781,40.909 C22.781,39.774 23.567,38.567 24.781,38.325 C24.781,38.325 24.781,37.254 24.781,37.254 C23.301,37.075 22.781,36.035 22.781,35.133 C22.781,35.133 22.781,31.283 22.781,31.283 C22.781,30.835 22.931,29.424 24.780,29.291 C24.784,29.280 24.787,29.270 24.789,29.262 C24.789,29.262 24.781,27.432 24.781,27.432 C24.781,25.548 26.072,24.281 27.994,24.281 C27.994,24.281 32.808,24.281 32.808,24.281 C34.245,24.281 35.781,25.109 35.781,27.432 C35.781,27.432 35.781,29.276 35.781,29.276 C35.782,29.278 35.783,29.281 35.784,29.283 C37.635,29.346 37.781,30.823 37.781,31.283 C37.781,31.283 37.781,35.133 37.781,35.133 C37.781,36.048 37.249,37.104 35.781,37.261 C35.781,37.261 35.781,38.298 35.781,38.298 C36.938,38.445 37.781,39.519 37.781,40.909 C37.781,40.909 37.781,44.759 37.781,44.759 C37.781,46.034 36.930,47.060 35.781,47.249 C35.781,47.249 35.781,50.292 35.781,50.292 C37.249,50.408 37.781,51.466 37.781,52.460 C37.781,52.460 37.781,54.385 37.781,54.385 C37.781,56.321 36.734,58.281 34.732,58.281 ZM25.781,53.204 C25.781,53.204 25.781,54.385 25.781,54.385 C25.781,54.796 26.028,55.225 26.162,55.301 C26.162,55.301 34.580,55.281 34.580,55.281 C34.670,55.125 34.781,54.783 34.781,54.385 C34.781,54.385 34.781,53.198 34.781,53.198 C33.618,52.871 32.781,51.626 32.781,50.535 C32.781,50.535 32.781,46.684 32.781,46.684 C32.781,45.501 33.724,44.637 34.781,44.369 C34.781,44.369 34.781,41.226 34.781,41.226 C33.607,41.000 32.781,40.111 32.781,38.983 C32.781,38.983 32.781,37.058 32.781,37.058 C32.781,36.012 33.649,34.773 34.781,34.395 C34.781,34.395 34.781,32.193 34.781,32.193 C33.559,31.823 32.781,30.366 32.781,29.357 C32.781,29.357 32.781,27.432 32.781,27.432 C32.781,27.373 32.779,27.323 32.776,27.281 C32.776,27.281 27.994,27.281 27.994,27.281 C27.894,27.281 27.825,27.292 27.785,27.303 C27.787,27.323 27.781,27.368 27.781,27.432 C27.781,27.432 27.781,29.357 27.781,29.357 C27.781,30.370 27.003,31.838 25.781,32.199 C25.781,32.199 25.781,34.361 25.781,34.361 C26.978,34.685 27.781,35.929 27.781,37.058 C27.781,37.058 27.781,38.983 27.781,38.983 C27.781,40.118 26.954,41.010 25.781,41.229 C25.781,41.229 25.781,44.345 25.781,44.345 C26.945,44.594 27.781,45.548 27.781,46.684 C27.781,46.684 27.781,50.535 27.781,50.535 C27.781,51.632 26.943,52.885 25.781,53.204 Z" id="path-10" class="cls-8" fill-rule="evenodd"/>
  </g>
</svg>
