<svg xmlns="http://www.w3.org/2000/svg" xmlns:xlink="http://www.w3.org/1999/xlink" preserveAspectRatio="xMidYMid" width="63" height="51" viewBox="0 0 63 51">
  <defs>
    <style>

      .cls-3 {
        fill: #53ecf4;
      }

      .cls-4 {
        fill: #000000;
      }
    </style>
  </defs>
  <g id="group-20svg">
    <path d="M51.418,21.358 C49.593,18.770 48.223,16.533 47.198,14.611 C43.262,7.226 44.418,4.500 44.418,4.500 C44.418,4.500 40.108,16.081 40.108,20.693 C40.108,23.143 40.397,24.763 41.189,26.867 C41.935,28.857 44.266,30.311 47.029,30.311 C50.394,30.311 53.122,28.158 53.122,25.502 C53.122,24.372 52.189,22.474 51.418,21.358 Z" id="path-1" class="cls-3" fill-rule="evenodd"/>
    <path d="M43.420,49.811 C39.410,49.811 34.939,48.540 30.163,45.119 C13.928,33.492 3.030,44.468 2.574,44.941 C1.998,45.538 1.049,45.554 0.453,44.979 C-0.144,44.404 -0.160,43.455 0.414,42.858 C0.544,42.724 13.598,29.563 31.909,42.680 C47.978,54.187 59.781,38.151 60.276,37.463 C60.761,36.790 61.698,36.638 62.369,37.120 C63.042,37.603 63.195,38.541 62.712,39.213 C62.609,39.356 54.920,49.809 43.420,49.811 Z" id="path-2" class="cls-4" fill-rule="evenodd"/>
    <path d="M43.420,40.366 C39.410,40.366 34.939,39.096 30.163,35.675 C13.928,24.048 3.030,35.024 2.574,35.497 C1.998,36.094 1.049,36.110 0.453,35.535 C-0.144,34.960 -0.160,34.010 0.414,33.414 C0.544,33.279 13.598,20.119 31.909,33.236 C47.978,44.744 59.781,28.707 60.276,28.019 C60.761,27.345 61.698,27.194 62.369,27.676 C63.042,28.159 63.195,29.096 62.712,29.769 C62.609,29.912 54.920,40.365 43.420,40.366 Z" id="path-3" class="cls-4" fill-rule="evenodd"/>
    <path d="M52.818,28.423 C52.287,28.423 51.771,28.140 51.500,27.640 C51.103,26.912 51.373,26.001 52.101,25.605 C57.171,22.847 60.245,18.616 60.275,18.574 C60.761,17.900 61.697,17.748 62.369,18.231 C63.042,18.714 63.195,19.651 62.713,20.324 C62.571,20.520 59.201,25.157 53.534,28.240 C53.307,28.364 53.061,28.423 52.818,28.423 Z" id="path-4" class="cls-4" fill-rule="evenodd"/>
    <path d="M32.357,27.406 C32.081,27.406 31.802,27.330 31.552,27.170 C31.092,26.877 30.628,26.564 30.162,26.230 C14.007,14.658 3.029,25.584 2.571,26.055 C1.992,26.648 1.044,26.661 0.451,26.086 C-0.143,25.510 -0.159,24.564 0.414,23.970 C0.544,23.835 13.598,10.674 31.909,23.791 C32.331,24.093 32.750,24.376 33.165,24.641 C33.863,25.086 34.068,26.014 33.623,26.712 C33.337,27.161 32.852,27.406 32.357,27.406 Z" id="path-5" class="cls-4" fill-rule="evenodd"/>
    <path d="M43.029,28.811 C39.687,28.811 36.775,27.036 35.785,24.394 C34.928,22.115 34.608,20.298 34.608,17.693 C34.608,13.020 38.549,2.228 38.998,1.013 C38.998,1.012 38.999,1.009 39.001,1.005 C39.001,1.003 39.002,1.002 39.003,1.000 C39.006,0.990 39.011,0.978 39.011,0.977 C39.011,0.977 39.012,0.977 39.012,0.977 C39.020,0.953 39.029,0.930 39.036,0.915 C39.353,0.164 40.441,-0.194 41.199,0.106 C41.957,0.407 42.281,1.259 42.281,2.023 C42.281,2.023 42.281,2.024 42.281,2.025 C42.281,2.143 41.421,4.657 44.751,10.905 C45.829,12.927 47.102,15.144 48.758,17.494 C49.447,18.491 50.680,20.803 50.680,22.502 C50.680,25.980 47.216,28.811 43.029,28.811 ZM39.842,7.843 C38.682,11.539 37.608,15.582 37.608,17.693 C37.608,19.957 37.857,21.382 38.594,23.339 C39.139,24.795 40.963,25.811 43.029,25.811 C45.519,25.811 47.622,24.295 47.622,22.502 C47.622,21.868 46.936,20.300 46.184,19.211 C44.463,16.772 43.011,14.448 41.874,12.316 C40.966,10.611 40.310,9.127 39.842,7.843 Z" id="path-6" class="cls-4" fill-rule="evenodd"/>
  </g>
</svg>
