<svg xmlns="http://www.w3.org/2000/svg" xmlns:xlink="http://www.w3.org/1999/xlink" preserveAspectRatio="xMidYMid" width="53" height="63" viewBox="0 0 53 63">
  <defs>
    <style>

      .cls-3 {
        fill: #53ecf4;
      }

      .cls-4 {
        fill: #ffffff;
      }

      .cls-6 {
        fill: #000000;
      }
    </style>
  </defs>
  <g id="group-15svg">
    <path d="M53.000,55.000 C53.000,59.418 49.418,63.000 45.000,63.000 C45.000,63.000 14.000,63.000 14.000,63.000 C9.582,63.000 6.000,59.418 6.000,55.000 C6.000,55.000 6.000,11.000 6.000,11.000 C6.000,6.582 9.582,3.000 14.000,3.000 C14.000,3.000 45.000,3.000 45.000,3.000 C49.418,3.000 53.000,6.582 53.000,11.000 C53.000,11.000 53.000,55.000 53.000,55.000 Z" id="path-1" class="cls-3" fill-rule="evenodd"/>
    <circle id="circle-1" class="cls-4" cx="30" cy="47" r="11"/>
    <path d="M29.106,30.901 C23.639,30.901 19.206,26.468 19.206,21.000 C19.206,15.533 23.639,11.100 29.106,11.100 C34.575,11.100 39.007,15.533 39.007,21.000 C39.007,26.468 34.575,30.901 29.106,30.901 Z" id="path-2" class="cls-4" fill-rule="evenodd"/>
    <path d="M40.500,63.000 C40.500,63.000 9.500,63.000 9.500,63.000 C4.262,63.000 -0.000,58.738 -0.000,53.500 C-0.000,53.500 -0.000,9.500 -0.000,9.500 C-0.000,4.262 4.262,-0.000 9.500,-0.000 C9.500,-0.000 40.500,-0.000 40.500,-0.000 C45.738,-0.000 50.000,4.262 50.000,9.500 C50.000,9.500 50.000,53.500 50.000,53.500 C50.000,58.738 45.738,63.000 40.500,63.000 ZM9.500,3.000 C5.916,3.000 3.000,5.916 3.000,9.500 C3.000,9.500 3.000,53.500 3.000,53.500 C3.000,57.084 5.916,60.000 9.500,60.000 C9.500,60.000 40.500,60.000 40.500,60.000 C44.084,60.000 47.000,57.084 47.000,53.500 C47.000,53.500 47.000,9.500 47.000,9.500 C47.000,5.916 44.084,3.000 40.500,3.000 C40.500,3.000 9.500,3.000 9.500,3.000 Z" id="path-3" class="cls-6" fill-rule="evenodd"/>
    <circle id="circle-2" class="cls-6" cx="30" cy="45" r="3"/>
    <circle id="circle-3" class="cls-6" cx="21" cy="45" r="3"/>
    <path d="M25.106,55.861 C18.820,55.861 13.706,50.747 13.706,44.461 C13.706,38.175 18.820,33.061 25.106,33.061 C31.393,33.061 36.507,38.175 36.507,44.461 C36.507,50.747 31.393,55.861 25.106,55.861 ZM25.106,36.061 C20.475,36.061 16.706,39.829 16.706,44.461 C16.706,49.093 20.475,52.861 25.106,52.861 C29.739,52.861 33.507,49.093 33.507,44.461 C33.507,39.829 29.739,36.061 25.106,36.061 Z" id="path-4" class="cls-6" fill-rule="evenodd"/>
    <path d="M25.106,30.401 C18.820,30.401 13.706,25.287 13.706,19.000 C13.706,12.714 18.820,7.600 25.106,7.600 C31.393,7.600 36.507,12.714 36.507,19.000 C36.507,25.287 31.393,30.401 25.106,30.401 ZM25.106,10.600 C20.475,10.600 16.706,14.368 16.706,19.000 C16.706,23.632 20.475,27.401 25.106,27.401 C29.739,27.401 33.507,23.632 33.507,19.000 C33.507,14.368 29.739,10.600 25.106,10.600 Z" id="path-5" class="cls-6" fill-rule="evenodd"/>
    <path d="M29.676,21.167 C28.414,21.167 27.391,20.144 27.391,18.883 C27.391,17.621 28.414,16.598 29.676,16.598 C30.938,16.598 31.961,17.621 31.961,18.883 C31.961,20.144 30.938,21.167 29.676,21.167 Z" id="path-6" class="cls-6" fill-rule="evenodd"/>
    <path d="M20.537,21.167 C19.275,21.167 18.252,20.144 18.252,18.883 C18.252,17.621 19.275,16.598 20.537,16.598 C21.799,16.598 22.822,17.621 22.822,18.883 C22.822,20.144 21.799,21.167 20.537,21.167 Z" id="path-7" class="cls-6" fill-rule="evenodd"/>
  </g>
</svg>
