<svg xmlns="http://www.w3.org/2000/svg" xmlns:xlink="http://www.w3.org/1999/xlink" preserveAspectRatio="xMidYMid" width="55" height="63" viewBox="0 0 55 63">
  <defs>
    <style>

      .cls-3 {
        fill: #99746a;
      }

      .cls-4 {
        fill: #81bda4;
      }

      .cls-6 {
        fill: #000000;
      }
    </style>
  </defs>
  <g id="group-6svg">
    <path d="M27.043,62.750 C27.043,62.750 44.962,62.750 44.962,62.750 C47.691,62.750 50.015,60.287 50.442,57.591 C50.442,57.591 54.232,38.689 54.232,38.689 C54.766,35.321 52.163,31.750 48.752,31.750 C48.752,31.750 23.253,31.750 23.253,31.750 C19.842,31.750 17.239,35.081 17.773,38.450 C17.773,38.450 21.563,57.450 21.563,57.450 C21.990,60.145 24.314,62.750 27.043,62.750 Z" id="path-1" class="cls-3" fill-rule="evenodd"/>
    <path d="M36.110,10.672 C36.110,10.672 38.500,17.722 45.314,13.089 C52.129,8.457 53.467,12.214 53.467,12.214 C53.467,12.214 50.487,-1.967 41.245,5.825 C41.245,5.825 38.365,8.369 36.110,10.672 Z" id="path-2" class="cls-4" fill-rule="evenodd"/>
    <path d="M32.048,15.907 C32.048,15.907 28.394,26.687 17.972,19.603 C7.551,12.519 5.505,18.264 5.505,18.264 C5.505,18.264 10.062,-3.423 24.196,8.493 C24.196,8.493 28.600,12.384 32.048,15.907 Z" id="path-3" class="cls-4" fill-rule="evenodd"/>
    <path d="M37.040,14.166 C37.040,14.166 37.040,14.166 37.040,14.166 C32.442,14.166 30.759,9.358 30.690,9.154 C30.508,8.619 30.643,8.027 31.039,7.623 C33.305,5.308 36.132,2.806 36.251,2.701 C38.396,0.892 40.449,-0.013 42.380,-0.013 C48.269,-0.013 50.494,8.053 50.876,9.646 C50.947,9.821 50.987,10.013 50.987,10.214 C50.987,11.038 50.322,11.707 49.498,11.714 C48.849,11.719 48.275,11.338 48.054,10.717 C48.021,10.658 47.777,10.276 46.951,10.276 C46.143,10.276 44.655,10.633 42.158,12.330 C40.365,13.549 38.644,14.166 37.040,14.166 ZM33.906,8.995 C34.401,9.876 35.403,11.166 37.040,11.166 C38.031,11.166 39.185,10.723 40.471,9.849 C42.996,8.133 45.100,7.291 46.903,7.276 C46.003,5.235 44.525,2.987 42.380,2.987 C41.176,2.987 39.773,3.655 38.211,4.972 C38.209,4.974 35.949,6.975 33.906,8.995 Z" id="path-4" class="cls-6" fill-rule="evenodd"/>
    <path d="M20.510,21.514 C18.219,21.514 15.736,20.616 13.129,18.843 C9.143,16.134 6.700,15.565 5.352,15.565 C3.400,15.565 2.922,16.755 2.918,16.767 C2.654,17.511 1.859,17.921 1.098,17.708 C0.338,17.494 -0.126,16.728 0.037,15.955 C0.162,15.362 3.198,1.417 12.342,1.417 C15.103,1.417 18.071,2.739 21.163,5.347 C21.234,5.408 25.674,9.337 29.120,12.857 C29.516,13.261 29.650,13.853 29.469,14.388 C29.370,14.679 26.979,21.514 20.510,21.514 ZM5.352,12.565 C7.925,12.565 11.109,13.843 14.815,16.362 C16.916,17.791 18.832,18.514 20.510,18.514 C23.764,18.514 25.566,15.686 26.273,14.246 C23.030,11.003 19.244,7.654 19.203,7.617 C16.693,5.502 14.376,4.417 12.342,4.417 C8.206,4.417 5.594,9.101 4.208,12.654 C4.564,12.597 4.945,12.565 5.352,12.565 Z" id="path-5" class="cls-6" fill-rule="evenodd"/>
    <path d="M32.701,31.807 C32.274,31.807 31.851,31.625 31.554,31.274 C25.178,23.728 28.837,8.125 28.996,7.465 C29.190,6.660 30.002,6.164 30.805,6.358 C31.610,6.551 32.106,7.361 31.913,8.166 C31.878,8.313 28.450,22.951 33.846,29.338 C34.381,29.971 34.301,30.917 33.668,31.452 C33.387,31.690 33.043,31.807 32.701,31.807 Z" id="path-6" class="cls-6" fill-rule="evenodd"/>
    <path d="M40.962,62.750 C40.962,62.750 23.043,62.750 23.043,62.750 C19.711,62.750 16.654,59.921 16.082,56.309 C16.082,56.309 12.302,37.496 12.302,37.496 C11.950,35.277 12.626,32.958 14.101,31.230 C15.448,29.654 17.325,28.750 19.253,28.750 C19.253,28.750 44.752,28.750 44.752,28.750 C46.680,28.750 48.494,29.630 49.858,31.228 C51.368,32.995 52.061,35.358 51.714,37.549 C51.714,37.549 47.913,56.634 47.913,56.634 C47.366,60.096 44.373,62.750 40.962,62.750 ZM19.253,31.750 C18.189,31.750 17.169,32.258 16.382,33.179 C15.470,34.248 15.048,35.663 15.254,36.966 C15.254,36.966 19.034,55.779 19.034,55.779 C19.344,57.729 21.022,59.750 23.043,59.750 C23.043,59.750 40.962,59.750 40.962,59.750 C42.880,59.750 44.637,58.150 44.960,56.106 C44.960,56.106 48.761,37.021 48.761,37.021 C48.959,35.764 48.510,34.268 47.577,33.176 C46.791,32.257 45.789,31.750 44.752,31.750 C44.752,31.750 19.253,31.750 19.253,31.750 Z" id="path-7" class="cls-6" fill-rule="evenodd"/>
    <path d="M48.812,41.750 C48.812,41.750 14.812,41.750 14.812,41.750 C13.984,41.750 13.312,41.079 13.312,40.250 C13.312,39.421 13.984,38.750 14.812,38.750 C14.812,38.750 48.812,38.750 48.812,38.750 C49.641,38.750 50.312,39.421 50.312,40.250 C50.312,41.079 49.641,41.750 48.812,41.750 Z" id="path-8" class="cls-6" fill-rule="evenodd"/>
  </g>
</svg>
