<svg xmlns="http://www.w3.org/2000/svg" xmlns:xlink="http://www.w3.org/1999/xlink" preserveAspectRatio="xMidYMid" width="36" height="63" viewBox="0 0 36 63">
  <defs>
    <style>

      .cls-3 {
        fill: #edc951;
      }

      .cls-4 {
        fill: #81bda4;
      }

      .cls-5 {
        fill: #e56a77;
      }

      .cls-6 {
        fill: #000000;
      }
    </style>
  </defs>
  <g id="group-5svg">
    <path d="M13.103,61.656 C13.103,61.656 27.670,61.656 27.670,61.656 C29.889,61.656 31.778,59.689 32.125,57.498 C32.125,57.498 35.207,42.214 35.207,42.214 C35.640,39.476 33.524,36.656 30.751,36.656 C30.751,36.656 10.021,36.656 10.021,36.656 C7.249,36.656 5.133,39.299 5.566,42.037 C5.566,42.037 8.648,57.415 8.648,57.415 C8.995,59.606 10.884,61.656 13.103,61.656 Z" id="path-1" class="cls-3" fill-rule="evenodd"/>
    <path d="M21.337,29.853 C21.337,29.853 23.280,35.584 28.820,31.818 C34.360,28.052 35.448,31.106 35.448,31.106 C35.448,31.106 33.025,19.578 25.512,25.912 C25.512,25.912 23.170,27.980 21.337,29.853 Z" id="path-2" class="cls-4" fill-rule="evenodd"/>
    <path d="M30.285,10.010 C30.285,7.620 28.351,5.683 25.967,5.683 C25.256,5.683 24.595,5.872 24.003,6.177 C24.008,6.091 24.029,6.009 24.029,5.922 C24.029,3.487 22.059,1.512 19.629,1.512 C17.200,1.512 15.230,3.487 15.230,5.922 C15.230,6.026 15.254,6.124 15.261,6.227 C14.635,5.891 13.930,5.683 13.170,5.683 C10.709,5.683 8.714,7.683 8.714,10.150 C8.714,12.583 10.655,14.552 13.067,14.608 C12.312,15.400 11.842,16.467 11.842,17.649 C11.842,20.086 13.811,22.061 16.241,22.061 C17.884,22.061 19.300,21.146 20.056,19.808 C20.800,21.145 22.208,22.061 23.844,22.061 C26.249,22.061 28.199,20.105 28.199,17.694 C28.199,16.304 27.539,15.081 26.529,14.281 C28.645,14.002 30.285,12.207 30.285,10.010 Z" id="path-3" class="cls-5" fill-rule="evenodd"/>
    <path d="M20.844,23.561 C19.435,23.561 18.094,23.042 17.050,22.141 C15.999,23.042 14.653,23.561 13.241,23.561 C9.988,23.561 7.342,20.909 7.342,17.649 C7.342,16.937 7.470,16.242 7.714,15.589 C5.637,14.661 4.214,12.585 4.214,10.150 C4.214,6.859 6.886,4.182 10.170,4.182 C10.440,4.182 10.708,4.202 10.974,4.240 C11.699,1.798 13.960,0.012 16.629,0.012 C19.294,0.012 21.551,1.790 22.281,4.225 C22.508,4.197 22.737,4.182 22.967,4.182 C26.175,4.182 28.785,6.796 28.785,10.010 C28.785,12.073 27.685,13.922 26.013,14.954 C26.459,15.787 26.699,16.723 26.699,17.694 C26.699,20.928 24.072,23.561 20.844,23.561 ZM17.056,18.656 C17.057,18.656 17.059,18.656 17.060,18.656 C17.602,18.656 18.102,18.778 18.366,19.252 C18.875,20.166 19.825,20.647 20.844,20.647 C22.418,20.647 23.699,19.318 23.699,17.737 C23.699,16.870 23.298,16.033 22.598,15.479 C22.126,15.105 21.923,14.474 22.083,13.893 C22.244,13.312 22.736,12.878 23.333,12.799 C24.731,12.615 25.785,11.416 25.785,10.012 C25.785,8.454 24.521,7.184 22.967,7.184 C22.542,7.184 22.113,7.293 21.691,7.511 C21.213,7.758 20.638,7.728 20.187,7.436 C19.735,7.143 19.475,6.629 19.506,6.092 C19.510,6.014 19.519,5.938 19.530,5.862 C19.529,4.317 18.228,3.012 16.629,3.012 C15.031,3.012 13.730,4.317 13.730,5.922 C13.743,5.972 13.752,6.045 13.757,6.120 C13.796,6.665 13.536,7.189 13.077,7.486 C12.619,7.783 12.035,7.807 11.552,7.549 C11.099,7.306 10.634,7.182 10.170,7.182 C8.540,7.182 7.214,8.514 7.214,10.150 C7.214,11.771 8.483,13.070 10.102,13.108 C10.695,13.123 11.225,13.485 11.453,14.033 C11.680,14.582 11.562,15.213 11.153,15.643 C10.630,16.191 10.342,16.904 10.342,17.649 C10.342,19.254 11.642,20.561 13.241,20.561 C14.285,20.561 15.223,20.178 15.749,19.245 C16.015,18.773 16.515,18.656 17.056,18.656 Z" id="path-4" class="cls-6" fill-rule="evenodd"/>
    <path d="M21.345,34.600 C21.345,34.600 21.344,34.600 21.344,34.600 C18.202,34.599 16.454,31.919 15.917,30.335 C15.735,29.799 15.870,29.207 16.266,28.804 C18.115,26.914 20.421,24.874 20.519,24.788 C22.319,23.270 24.049,22.511 25.687,22.511 C30.625,22.511 32.504,29.100 32.855,30.535 C32.928,30.711 32.968,30.904 32.968,31.106 C32.968,31.312 32.926,31.507 32.852,31.685 C32.681,32.166 32.296,32.561 31.785,32.669 C30.975,32.841 30.207,32.419 30.035,31.609 C30.040,31.613 29.900,31.437 29.402,31.437 C28.896,31.437 27.738,31.648 25.663,33.059 C24.159,34.081 22.706,34.600 21.345,34.600 ZM19.150,30.161 C19.548,30.802 20.261,31.600 21.345,31.600 C21.345,31.600 21.345,31.600 21.345,31.600 C22.093,31.600 22.978,31.256 23.977,30.577 C25.884,29.281 27.513,28.584 28.937,28.458 C28.199,26.945 27.104,25.511 25.687,25.511 C24.776,25.511 23.697,26.032 22.478,27.059 C22.478,27.059 22.478,27.059 22.478,27.059 C22.479,27.059 20.761,28.580 19.150,30.161 Z" id="path-5" class="cls-6" fill-rule="evenodd"/>
    <path d="M16.479,17.166 C13.920,17.166 11.838,15.080 11.838,12.516 C11.838,9.952 13.920,7.867 16.479,7.867 C19.039,7.867 21.121,9.952 21.121,12.516 C21.121,15.080 19.039,17.166 16.479,17.166 ZM16.479,10.867 C15.574,10.867 14.838,11.606 14.838,12.516 C14.838,13.426 15.574,14.166 16.479,14.166 C17.384,14.166 18.121,13.426 18.121,12.516 C18.121,11.606 17.384,10.867 16.479,10.867 Z" id="path-6" class="cls-6" fill-rule="evenodd"/>
    <path d="M18.882,37.664 C18.456,37.664 18.032,37.483 17.736,37.131 C12.436,30.860 15.480,19.863 15.613,19.398 C15.839,18.601 16.670,18.141 17.464,18.365 C18.261,18.591 18.724,19.420 18.499,20.217 C18.471,20.315 15.761,30.147 20.027,35.195 C20.562,35.828 20.482,36.774 19.850,37.310 C19.568,37.547 19.224,37.664 18.882,37.664 Z" id="path-7" class="cls-6" fill-rule="evenodd"/>
    <path d="M23.670,62.656 C23.670,62.656 9.103,62.656 9.103,62.656 C6.252,62.656 3.644,60.292 3.166,57.274 C3.166,57.274 0.096,42.084 0.096,42.084 C-0.205,40.193 0.367,38.230 1.613,36.771 C2.761,35.427 4.368,34.656 6.021,34.656 C6.021,34.656 26.751,34.656 26.751,34.656 C28.393,34.656 29.992,35.427 31.140,36.770 C32.401,38.248 32.980,40.230 32.688,42.074 C32.688,42.074 29.596,57.541 29.596,57.541 C29.139,60.432 26.587,62.656 23.670,62.656 ZM6.021,37.656 C4.961,37.656 4.233,38.323 3.894,38.720 C3.210,39.520 2.894,40.579 3.048,41.552 C3.048,41.552 6.118,56.743 6.118,56.743 C6.378,58.377 7.712,59.656 9.103,59.656 C9.103,59.656 23.670,59.656 23.670,59.656 C25.126,59.656 26.405,58.520 26.644,57.013 C26.644,57.013 29.736,41.545 29.736,41.545 C29.879,40.631 29.547,39.525 28.858,38.719 C28.519,38.322 27.795,37.656 26.751,37.656 C26.751,37.656 6.021,37.656 6.021,37.656 Z" id="path-8" class="cls-6" fill-rule="evenodd"/>
    <path d="M29.656,45.656 C29.656,45.656 2.656,45.656 2.656,45.656 C1.828,45.656 1.156,44.985 1.156,44.156 C1.156,43.328 1.828,42.656 2.656,42.656 C2.656,42.656 29.656,42.656 29.656,42.656 C30.485,42.656 31.156,43.328 31.156,44.156 C31.156,44.985 30.485,45.656 29.656,45.656 Z" id="path-9" class="cls-6" fill-rule="evenodd"/>
  </g>
</svg>
