<svg xmlns="http://www.w3.org/2000/svg" xmlns:xlink="http://www.w3.org/1999/xlink" preserveAspectRatio="xMidYMid" width="55" height="64" viewBox="0 0 55 64">
  <defs>
    <style>

      .cls-3 {
        fill: #e56a77;
      }

      .cls-4 {
        fill: #edc951;
      }

      .cls-8 {
        fill: #000000;
      }
    </style>
  </defs>
  <g id="group-18svg">
    <path d="M31.755,36.986 C31.755,36.986 34.209,61.597 34.209,61.597 C34.365,62.625 33.569,63.531 32.529,63.531 C32.529,63.531 26.684,63.531 26.684,63.531 C25.654,63.531 24.861,62.649 25.000,61.630 C25.000,61.630 27.192,37.000 27.192,37.000 C27.308,36.158 28.026,35.531 28.876,35.531 C28.876,35.531 30.075,35.531 30.075,35.531 C30.914,35.531 31.628,36.157 31.755,36.986 Z" id="path-1" class="cls-3" fill-rule="evenodd"/>
    <path d="M26.500,22.094 C26.500,22.094 26.500,3.493 26.500,3.493 C26.500,3.493 39.500,22.094 26.500,22.094 Z" id="path-2" class="cls-4" fill-rule="evenodd"/>
    <path d="M23.101,30.531 C23.101,30.531 4.498,30.531 4.498,30.531 C4.498,30.531 23.101,17.531 23.101,30.531 Z" id="path-3" class="cls-4" fill-rule="evenodd"/>
    <path d="M36.254,27.531 C36.254,27.531 54.855,27.531 54.855,27.531 C54.855,27.531 36.254,39.531 36.254,27.531 Z" id="path-4" class="cls-4" fill-rule="evenodd"/>
    <path d="M32.597,28.547 C32.597,30.133 31.310,31.419 29.725,31.419 C28.139,31.419 26.852,30.133 26.852,28.547 C26.852,26.961 28.139,25.675 29.725,25.675 C31.310,25.675 32.597,26.961 32.597,28.547 Z" id="path-5" class="cls-4" fill-rule="evenodd"/>
    <path d="M24.000,21.594 C23.172,21.594 22.500,20.923 22.500,20.094 C22.500,20.094 22.500,1.492 22.500,1.492 C22.500,0.837 22.925,0.258 23.550,0.061 C24.172,-0.135 24.854,0.096 25.229,0.633 C26.087,1.860 33.521,12.783 30.577,18.432 C29.483,20.530 27.270,21.594 24.000,21.594 ZM25.500,6.867 C25.500,6.867 25.500,18.482 25.500,18.482 C26.714,18.278 27.524,17.797 27.917,17.046 C29.019,14.933 27.487,10.650 25.500,6.867 Z" id="path-6" class="cls-8" fill-rule="evenodd"/>
    <path d="M20.120,29.531 C20.115,29.531 20.107,29.531 20.101,29.531 C20.101,29.531 1.498,29.531 1.498,29.531 C0.843,29.531 0.264,29.106 0.067,28.481 C-0.129,27.857 0.102,27.177 0.639,26.802 C0.992,26.555 9.361,20.753 15.277,20.753 C17.606,20.753 21.491,21.673 21.599,27.772 C21.613,27.856 21.620,27.943 21.620,28.031 C21.620,28.860 20.949,29.531 20.120,29.531 ZM6.906,26.531 C6.906,26.531 18.490,26.531 18.490,26.531 C18.092,24.119 16.672,23.753 15.277,23.753 C12.870,23.753 9.627,25.102 6.906,26.531 Z" id="path-7" class="cls-8" fill-rule="evenodd"/>
    <path d="M38.076,31.865 C34.059,31.865 31.754,29.374 31.754,25.031 C31.754,24.203 32.426,23.531 33.254,23.531 C33.254,23.531 51.855,23.531 51.855,23.531 C52.520,23.531 53.106,23.969 53.294,24.607 C53.482,25.245 53.228,25.931 52.669,26.292 C52.315,26.519 43.962,31.865 38.076,31.865 ZM34.890,26.531 C35.310,28.547 36.649,28.865 38.076,28.865 C40.354,28.865 43.367,27.762 45.988,26.531 C45.988,26.531 34.890,26.531 34.890,26.531 Z" id="path-8" class="cls-8" fill-rule="evenodd"/>
    <path d="M26.725,30.919 C24.313,30.919 22.352,28.958 22.352,26.547 C22.352,24.136 24.313,22.175 26.725,22.175 C29.136,22.175 31.097,24.136 31.097,26.547 C31.097,28.958 29.136,30.919 26.725,30.919 ZM26.725,25.175 C25.968,25.175 25.353,25.790 25.353,26.547 C25.353,27.304 25.968,27.919 26.725,27.919 C27.481,27.919 28.097,27.304 28.097,26.547 C28.097,25.790 27.481,25.175 26.725,25.175 Z" id="path-9" class="cls-8" fill-rule="evenodd"/>
    <path d="M29.529,62.531 C29.529,62.531 23.684,62.531 23.684,62.531 C22.677,62.531 21.761,62.144 21.173,61.470 C20.631,60.851 20.396,60.036 20.514,59.178 C20.514,59.178 22.698,34.493 22.698,34.493 C22.928,32.801 24.320,31.531 25.876,31.531 C25.876,31.531 27.075,31.531 27.075,31.531 C28.769,31.531 30.014,33.046 30.237,34.510 C30.237,34.510 32.701,59.073 32.701,59.073 C32.828,59.895 32.586,60.760 32.009,61.431 C31.408,62.130 30.504,62.531 29.529,62.531 ZM23.494,59.510 C23.539,59.521 23.602,59.531 23.684,59.531 C23.684,59.531 29.529,59.531 29.529,59.531 C29.661,59.531 29.725,59.487 29.734,59.475 C29.730,59.450 29.719,59.397 29.717,59.372 C29.717,59.372 27.263,34.886 27.263,34.886 C27.241,34.764 27.073,34.555 26.994,34.518 C26.994,34.518 25.876,34.531 25.876,34.531 C25.827,34.545 25.698,34.682 25.679,34.829 C25.679,34.829 23.494,59.510 23.494,59.510 Z" id="path-10" class="cls-8" fill-rule="evenodd"/>
  </g>
</svg>
