<svg xmlns="http://www.w3.org/2000/svg" xmlns:xlink="http://www.w3.org/1999/xlink" preserveAspectRatio="xMidYMid" width="42" height="64" viewBox="0 0 42 64">
  <defs>
    <style>

      .cls-3 {
        fill: #53ecf4;
      }

      .cls-4 {
        fill: #edc951;
      }

      .cls-5 {
        fill: #000000;
      }
    </style>
  </defs>
  <g id="group-7svg">
    <path d="M40.933,39.307 C40.933,39.307 32.828,31.520 32.828,31.520 C31.989,30.678 32.586,29.594 33.775,29.594 C33.775,29.594 37.779,29.594 37.779,29.594 C38.973,29.594 39.568,27.790 38.720,26.950 C38.720,26.950 31.185,19.187 31.185,19.187 C30.336,18.347 30.931,16.594 32.125,16.594 C32.125,16.594 33.963,16.594 33.963,16.594 C35.153,16.594 35.750,15.282 34.908,14.440 C34.908,14.440 24.360,3.957 24.360,3.957 C23.839,3.435 22.992,3.467 22.471,3.989 C22.471,3.989 11.923,14.424 11.923,14.424 C11.081,15.266 11.678,16.594 12.868,16.594 C12.868,16.594 14.706,16.594 14.706,16.594 C15.900,16.594 16.495,18.168 15.646,19.009 C15.646,19.009 8.111,26.886 8.111,26.886 C7.263,27.727 7.857,29.594 9.052,29.594 C9.052,29.594 13.055,29.594 13.055,29.594 C14.244,29.594 14.842,30.674 14.002,31.518 C14.002,31.518 5.898,39.485 5.898,39.485 C5.059,40.328 5.656,41.594 6.846,41.594 C6.846,41.594 39.985,41.594 39.985,41.594 C41.175,41.594 41.772,40.150 40.933,39.307 Z" id="path-1" class="cls-3" fill-rule="evenodd"/>
    <path d="M20.491,63.594 C20.491,63.594 24.619,63.594 24.619,63.594 C25.864,63.594 26.156,62.511 26.156,61.266 C26.156,61.266 26.156,41.594 26.156,41.594 C26.156,41.594 18.156,41.594 18.156,41.594 C18.156,41.594 18.156,61.529 18.156,61.529 C18.156,62.634 19.387,63.594 20.491,63.594 Z" id="path-2" class="cls-4" fill-rule="evenodd"/>
    <path d="M35.985,40.594 C35.985,40.594 2.846,40.594 2.846,40.594 C1.656,40.594 0.617,39.941 0.198,38.932 C-0.207,37.957 0.037,36.853 0.836,36.052 C0.836,36.052 8.541,28.594 8.541,28.594 C8.541,28.594 5.052,28.594 5.052,28.594 C3.915,28.594 2.922,27.895 2.459,26.770 C1.974,25.589 2.208,24.285 3.056,23.445 C3.056,23.445 10.571,15.713 10.571,15.713 C10.563,15.708 10.547,15.649 10.524,15.594 C10.524,15.594 8.868,15.594 8.868,15.594 C7.674,15.594 6.633,14.945 6.217,13.941 C5.817,12.976 6.064,11.880 6.862,11.082 C6.862,11.082 17.427,0.849 17.427,0.849 C18.478,-0.205 20.374,-0.277 21.422,0.772 C21.422,0.772 31.959,11.119 31.959,11.119 C32.763,11.924 33.012,13.007 32.618,13.958 C32.206,14.952 31.164,15.594 29.963,15.594 C29.963,15.594 28.317,15.594 28.317,15.594 C28.290,15.669 28.275,15.769 28.291,15.819 C28.291,15.819 35.805,23.665 35.805,23.665 C36.605,24.456 36.848,25.703 36.392,26.810 C35.946,27.894 34.921,28.594 33.779,28.594 C33.779,28.594 30.410,28.594 30.410,28.594 C30.410,28.594 37.980,35.983 37.980,35.983 C38.798,36.805 39.041,37.922 38.629,38.915 C38.205,39.935 37.167,40.594 35.985,40.594 ZM3.560,37.590 C3.560,37.590 35.335,37.594 35.335,37.594 C35.335,37.594 27.780,30.219 27.780,30.219 C26.961,29.396 26.720,28.274 27.135,27.277 C27.560,26.254 28.597,25.594 29.776,25.594 C29.776,25.594 33.499,25.594 33.499,25.594 C33.499,25.594 26.100,17.848 26.100,17.848 C25.281,17.039 25.048,15.658 25.548,14.441 C26.017,13.302 27.004,12.594 28.125,12.594 C28.125,12.594 29.178,12.594 29.178,12.594 C29.178,12.594 19.450,3.040 19.450,3.040 C19.450,3.040 9.614,12.590 9.614,12.590 C9.614,12.590 10.706,12.594 10.706,12.594 C11.833,12.594 12.822,13.298 13.289,14.433 C13.788,15.646 13.558,16.978 12.702,17.825 C12.702,17.825 5.187,25.557 5.187,25.557 C5.202,25.551 5.206,25.570 5.217,25.594 C5.217,25.594 9.055,25.594 9.055,25.594 C10.219,25.594 11.251,26.269 11.685,27.314 C12.117,28.354 11.879,29.508 11.064,30.326 C11.064,30.326 3.560,37.590 3.560,37.590 Z" id="path-3" class="cls-5" fill-rule="evenodd"/>
    <path d="M20.619,62.594 C20.619,62.594 16.491,62.594 16.491,62.594 C14.465,62.594 13.156,61.391 13.156,59.529 C13.156,59.529 13.156,39.094 13.156,39.094 C13.156,38.265 13.828,37.594 14.656,37.594 C14.656,37.594 22.656,37.594 22.656,37.594 C23.484,37.594 24.156,38.265 24.156,39.094 C24.156,39.094 24.156,59.266 24.156,59.266 C24.156,61.288 22.768,62.594 20.619,62.594 ZM16.157,59.563 C16.223,59.578 16.329,59.594 16.491,59.594 C16.491,59.594 20.619,59.594 20.619,59.594 C20.939,59.594 21.097,59.531 21.130,59.506 C21.127,59.504 21.156,59.434 21.156,59.266 C21.156,59.266 21.156,40.594 21.156,40.594 C21.156,40.594 16.156,40.594 16.156,40.594 C16.156,40.594 16.156,59.529 16.156,59.529 C16.156,59.542 16.156,59.553 16.157,59.563 Z" id="path-4" class="cls-5" fill-rule="evenodd"/>
  </g>
</svg>
