<svg xmlns="http://www.w3.org/2000/svg" xmlns:xlink="http://www.w3.org/1999/xlink" preserveAspectRatio="xMidYMid" width="60" height="63" viewBox="0 0 60 63">
  <defs>
    <style>

      .cls-3 {
        fill: #e56a77;
      }

      .cls-4 {
        fill: #edc951;
      }

      .cls-5 {
        fill: #000000;
      }
    </style>
  </defs>
  <g id="group-21svg">
    <path d="M16.082,21.379 C16.082,21.379 23.381,13.563 23.381,13.563 C23.381,13.563 23.938,26.199 26.588,31.916 C26.588,31.916 30.140,13.842 34.777,4.500 C34.777,4.500 44.083,18.304 42.307,30.016 C42.307,30.016 47.642,27.645 49.314,22.347 C49.314,22.347 58.518,32.804 52.276,47.444 C52.276,47.444 49.055,57.762 36.208,57.762 C6.092,57.762 6.818,30.582 16.082,21.379 Z" id="path-1" class="cls-3" fill-rule="evenodd"/>
    <path d="M31.339,44.528 C31.339,44.528 33.028,35.929 35.235,31.484 C35.235,31.484 38.811,39.344 37.967,44.916 C37.967,44.916 43.235,42.497 44.031,39.976 C44.031,39.976 46.530,44.951 43.561,51.916 C43.561,51.916 43.561,51.916 43.561,51.916 " id="path-2" class="cls-4" fill-rule="evenodd"/>
    <path d="M38.560,50.416 C38.363,50.416 38.164,50.378 37.973,50.296 C37.210,49.971 36.855,49.090 37.181,48.328 C38.612,44.970 38.660,42.150 38.394,40.254 C36.586,41.849 34.235,42.984 33.592,43.279 C33.090,43.509 32.503,43.446 32.063,43.115 C31.623,42.783 31.400,42.237 31.482,41.691 C31.914,38.849 31.047,35.250 30.197,32.630 C28.800,36.826 27.823,41.753 27.810,41.817 C27.650,42.631 26.854,43.156 26.050,43.000 C25.236,42.840 24.707,42.052 24.867,41.239 C24.937,40.879 26.621,32.390 28.892,27.817 C29.149,27.299 29.709,26.968 30.261,26.985 C30.840,26.995 31.361,27.337 31.601,27.863 C31.730,28.150 34.339,33.948 34.576,39.329 C35.999,38.435 37.339,37.354 37.601,36.524 C37.785,35.942 38.303,35.529 38.912,35.480 C39.530,35.429 40.098,35.758 40.372,36.303 C40.486,36.531 43.146,41.986 39.940,49.504 C39.697,50.075 39.143,50.416 38.560,50.416 Z" id="path-3" class="cls-5" fill-rule="evenodd"/>
    <path d="M31.208,56.262 C13.932,56.262 7.768,47.567 5.631,42.384 C1.841,33.190 4.889,22.417 10.024,17.315 C10.024,17.315 17.284,9.539 17.284,9.539 C17.696,9.098 18.331,8.946 18.900,9.156 C19.467,9.365 19.853,9.893 19.879,10.497 C19.884,10.587 20.194,17.277 21.354,22.945 C22.791,16.787 25.357,7.029 28.434,0.833 C28.671,0.355 29.145,0.039 29.678,0.003 C30.203,-0.030 30.723,0.219 31.021,0.662 C31.382,1.196 39.151,12.865 39.031,24.163 C40.446,23.053 42.122,21.310 42.884,18.895 C43.047,18.379 43.476,17.991 44.005,17.879 C44.531,17.767 45.082,17.950 45.440,18.356 C45.842,18.812 55.175,29.678 48.676,44.987 C48.283,46.093 44.314,56.262 31.208,56.262 ZM17.120,14.110 C17.120,14.110 12.179,19.403 12.179,19.403 C7.799,23.755 5.137,33.315 8.404,41.241 C10.665,46.725 16.457,53.262 31.208,53.262 C42.817,53.262 45.815,44.090 45.845,43.997 C45.859,43.950 45.877,43.902 45.896,43.856 C50.200,33.760 46.779,25.873 44.611,22.343 C42.215,26.435 38.120,28.295 37.916,28.387 C37.415,28.609 36.833,28.540 36.396,28.208 C35.961,27.876 35.741,27.332 35.823,26.791 C37.071,18.564 32.432,9.050 29.971,4.712 C26.037,14.188 23.092,29.041 23.060,29.205 C22.935,29.842 22.413,30.327 21.768,30.405 C21.120,30.484 20.500,30.136 20.227,29.546 C18.350,25.495 17.485,18.370 17.120,14.110 Z" id="path-4" class="cls-5" fill-rule="evenodd"/>
    <path d="M57.807,63.000 C57.726,63.000 57.643,62.994 57.560,62.980 C57.560,62.980 1.242,53.675 1.242,53.675 C0.425,53.540 -0.129,52.768 0.007,51.951 C0.142,51.134 0.918,50.580 1.730,50.715 C1.730,50.715 58.049,60.020 58.049,60.020 C58.866,60.155 59.420,60.928 59.284,61.745 C59.163,62.479 58.527,63.000 57.807,63.000 Z" id="path-5" class="cls-5" fill-rule="evenodd"/>
    <path d="M1.484,63.000 C0.764,63.000 0.128,62.479 0.007,61.745 C-0.129,60.928 0.425,60.155 1.242,60.020 C1.242,60.020 57.560,50.715 57.560,50.715 C58.369,50.580 59.149,51.134 59.284,51.951 C59.420,52.768 58.866,53.540 58.049,53.675 C58.049,53.675 1.730,62.980 1.730,62.980 C1.648,62.994 1.565,63.000 1.484,63.000 Z" id="path-6" class="cls-5" fill-rule="evenodd"/>
  </g>
</svg>
