<svg xmlns="http://www.w3.org/2000/svg" xmlns:xlink="http://www.w3.org/1999/xlink" preserveAspectRatio="xMidYMid" width="65" height="61" viewBox="0 0 65 61">
  <defs>
    <style>

      .cls-3 {
        fill: #e56a77;
      }

      .cls-4 {
        fill: #edc951;
      }

      .cls-5 {
        fill: #53ecf4;
      }

      .cls-6 {
        fill: #ff917b;
      }

      .cls-7 {
        fill: #000000;
      }
    </style>
  </defs>
  <g id="group-4svg">
    <path d="M50.823,60.539 C50.823,60.539 40.075,41.903 40.075,41.903 C40.075,41.903 40.830,41.379 40.830,41.379 C42.169,40.450 43.146,39.071 43.581,37.498 C43.581,37.498 43.784,36.767 43.784,36.767 C43.784,36.767 64.501,36.753 64.501,36.753 C64.501,36.753 64.497,37.758 64.497,37.758 C64.478,42.255 63.282,46.695 61.037,50.597 C58.792,54.500 55.559,57.763 51.687,60.032 C51.687,60.032 50.823,60.539 50.823,60.539 Z" id="path-1" class="cls-3" fill-rule="evenodd"/>
    <path d="M37.713,24.859 C37.713,24.859 36.935,24.587 36.935,24.587 C35.435,24.064 33.855,24.064 32.355,24.587 C32.355,24.587 31.577,24.859 31.577,24.859 C31.577,24.859 20.952,6.410 20.952,6.410 C20.952,6.410 21.822,5.912 21.822,5.912 C25.717,3.682 30.152,2.504 34.645,2.504 C39.139,2.504 43.573,3.682 47.468,5.912 C47.468,5.912 48.338,6.410 48.338,6.410 C48.338,6.410 37.713,24.859 37.713,24.859 Z" id="path-2" class="cls-4" fill-rule="evenodd"/>
    <path d="M39.779,33.633 C39.779,30.800 37.488,28.504 34.662,28.504 C31.836,28.504 29.546,30.800 29.546,33.633 C29.546,36.466 31.836,38.763 34.662,38.763 C37.488,38.763 39.779,36.466 39.779,33.633 Z" id="path-3" class="cls-5" fill-rule="evenodd"/>
    <path d="M18.179,60.539 C18.179,60.539 17.314,60.032 17.314,60.032 C13.443,57.763 10.210,54.500 7.966,50.597 C5.721,46.695 4.524,42.255 4.505,37.758 C4.505,37.758 4.501,36.753 4.501,36.753 C4.501,36.753 25.507,36.767 25.507,36.767 C25.507,36.767 25.709,37.499 25.709,37.499 C26.121,38.989 27.036,40.320 28.285,41.247 C28.285,41.247 29.000,41.778 29.000,41.778 C29.000,41.778 18.179,60.539 18.179,60.539 Z" id="path-4" class="cls-6" fill-rule="evenodd"/>
    <path d="M47.823,61.039 C47.695,61.039 47.566,61.022 47.439,60.989 C47.053,60.887 46.724,60.635 46.524,60.289 C46.524,60.289 35.775,41.652 35.775,41.652 C35.386,40.977 35.579,40.115 36.220,39.670 C36.220,39.670 36.975,39.146 36.975,39.146 C38.027,38.417 38.794,37.335 39.135,36.099 C39.135,36.099 39.338,35.366 39.338,35.366 C39.518,34.717 40.109,34.268 40.783,34.267 C40.783,34.267 61.500,34.253 61.500,34.253 C61.500,34.253 61.500,34.253 61.501,34.253 C61.900,34.253 62.282,34.412 62.563,34.695 C62.845,34.978 63.003,35.361 63.001,35.760 C63.001,35.760 62.997,36.765 62.997,36.765 C62.977,41.522 61.711,46.218 59.337,50.345 C56.962,54.473 53.542,57.925 49.446,60.326 C49.446,60.326 48.582,60.833 48.582,60.833 C48.350,60.969 48.087,61.039 47.823,61.039 ZM39.057,41.338 C39.057,41.338 48.365,57.477 48.365,57.477 C51.819,55.353 54.706,52.379 56.736,48.849 C58.768,45.318 59.888,41.320 59.989,37.254 C59.989,37.254 41.916,37.266 41.916,37.266 C41.392,38.877 40.393,40.299 39.057,41.338 Z" id="path-5" class="cls-7" fill-rule="evenodd"/>
    <path d="M34.713,25.359 C34.548,25.359 34.381,25.332 34.218,25.275 C34.218,25.275 33.440,25.003 33.440,25.003 C32.267,24.594 31.024,24.594 29.849,25.003 C29.849,25.003 29.072,25.275 29.072,25.275 C28.391,25.514 27.637,25.232 27.277,24.607 C27.277,24.607 16.652,6.159 16.652,6.159 C16.453,5.813 16.399,5.403 16.504,5.019 C16.608,4.634 16.861,4.306 17.206,4.108 C17.206,4.108 18.077,3.610 18.077,3.610 C22.197,1.251 26.889,0.004 31.645,0.004 C36.401,0.004 41.093,1.251 45.213,3.610 C45.213,3.610 46.083,4.108 46.083,4.108 C46.429,4.306 46.682,4.634 46.786,5.019 C46.891,5.403 46.837,5.813 46.638,6.159 C46.638,6.159 36.013,24.607 36.013,24.607 C35.739,25.083 35.237,25.359 34.713,25.359 ZM20.005,5.969 C20.005,5.969 29.261,22.042 29.261,22.042 C30.823,21.581 32.469,21.581 34.029,22.042 C34.029,22.042 43.285,5.969 43.285,5.969 C39.725,4.028 35.711,3.004 31.645,3.004 C27.579,3.004 23.565,4.028 20.005,5.969 Z" id="path-6" class="cls-7" fill-rule="evenodd"/>
    <path d="M15.179,61.039 C14.915,61.039 14.653,60.969 14.421,60.833 C14.421,60.833 13.557,60.327 13.557,60.327 C9.459,57.925 6.040,54.473 3.665,50.345 C1.291,46.219 0.025,41.522 0.005,36.764 C0.005,36.764 0.001,35.760 0.001,35.760 C-0.001,35.361 0.157,34.978 0.438,34.695 C0.720,34.412 1.102,34.253 1.501,34.253 C1.501,34.253 1.501,34.253 1.502,34.253 C1.502,34.253 22.507,34.267 22.507,34.267 C23.181,34.268 23.772,34.717 23.952,35.367 C23.952,35.367 24.155,36.099 24.155,36.099 C24.477,37.269 25.196,38.314 26.179,39.042 C26.179,39.042 26.894,39.574 26.894,39.574 C27.505,40.027 27.680,40.868 27.299,41.527 C27.299,41.527 16.479,60.289 16.479,60.289 C16.279,60.635 15.949,60.887 15.563,60.989 C15.436,61.022 15.308,61.039 15.179,61.039 ZM3.013,37.254 C3.114,41.320 4.234,45.318 6.266,48.849 C8.295,52.379 11.183,55.353 14.637,57.477 C14.637,57.477 24.039,41.176 24.039,41.176 C22.801,40.151 21.871,38.786 21.374,37.266 C21.374,37.266 3.013,37.254 3.013,37.254 Z" id="path-7" class="cls-7" fill-rule="evenodd"/>
    <path d="M31.662,39.263 C28.014,39.263 25.046,36.289 25.046,32.632 C25.046,28.977 28.014,26.003 31.662,26.003 C35.311,26.003 38.279,28.977 38.279,32.632 C38.279,36.289 35.311,39.263 31.662,39.263 ZM31.662,29.003 C29.668,29.003 28.046,30.631 28.046,32.632 C28.046,34.635 29.668,36.263 31.662,36.263 C33.657,36.263 35.279,34.635 35.279,32.632 C35.279,30.631 33.657,29.003 31.662,29.003 Z" id="path-8" class="cls-7" fill-rule="evenodd"/>
  </g>
</svg>
