<svg xmlns="http://www.w3.org/2000/svg" xmlns:xlink="http://www.w3.org/1999/xlink" preserveAspectRatio="xMidYMid" width="65" height="61" viewBox="0 0 65 61">
  <defs>
    <style>

      .cls-3 {
        fill: #edc951;
      }

      .cls-4 {
        fill: #e56a77;
      }

      .cls-5 {
        fill: #000000;
      }
    </style>
  </defs>
  <g id="group-27svg">
    <path d="M59.909,22.501 C59.909,22.501 44.974,6.403 44.974,6.403 C42.754,3.930 39.048,3.957 36.828,6.431 C36.828,6.431 18.210,27.260 18.210,27.260 C18.210,27.260 18.310,58.219 18.310,58.219 C18.310,58.219 34.937,58.219 34.937,58.219 C34.937,58.219 34.937,38.219 34.937,38.219 C34.937,38.219 46.937,38.219 46.937,38.219 C46.937,38.219 46.937,59.219 46.937,59.219 C46.937,59.219 59.992,59.219 59.992,59.219 C62.573,59.219 64.310,56.623 64.310,54.042 C64.310,54.042 62.746,26.798 62.746,26.798 C62.746,26.798 59.909,22.501 59.909,22.501 Z" id="path-1" class="cls-3" fill-rule="evenodd"/>
    <path d="M6.074,39.235 C6.074,39.235 9.844,35.198 9.844,35.198 C9.844,35.198 9.767,41.653 12.727,44.272 C12.727,44.272 14.235,34.538 16.897,30.518 C16.897,30.518 21.704,37.646 20.786,43.696 C20.786,43.696 23.542,42.472 24.406,39.735 C24.406,39.735 29.159,45.136 25.936,52.697 C25.936,52.697 24.271,58.026 17.637,58.026 C2.082,58.026 1.289,43.988 6.074,39.235 Z" id="path-2" class="cls-4" fill-rule="evenodd"/>
    <path d="M56.992,57.219 C56.992,57.219 44.437,57.219 44.437,57.219 C43.609,57.219 42.937,56.547 42.937,55.719 C42.937,55.719 42.937,36.219 42.937,36.219 C42.937,36.219 33.937,36.219 33.937,36.219 C33.937,36.219 33.937,55.719 33.937,55.719 C33.937,56.547 33.266,57.219 32.437,57.219 C32.437,57.219 14.937,57.219 14.937,57.219 C14.109,57.219 13.437,56.547 13.437,55.719 C13.437,54.890 14.109,54.219 14.937,54.219 C14.937,54.219 30.937,54.219 30.937,54.219 C30.937,54.219 30.937,34.719 30.937,34.719 C30.937,33.890 31.609,33.219 32.437,33.219 C32.437,33.219 44.437,33.219 44.437,33.219 C45.266,33.219 45.937,33.890 45.937,34.719 C45.937,34.719 45.937,54.219 45.937,54.219 C45.937,54.219 56.992,54.219 56.992,54.219 C58.699,54.219 59.937,52.900 59.937,51.083 C59.937,51.083 59.937,25.219 59.937,25.219 C59.937,25.219 15.210,25.219 15.210,25.219 C14.616,25.219 14.079,24.869 13.839,24.326 C13.598,23.783 13.700,23.150 14.100,22.710 C14.100,22.710 32.733,2.184 32.733,2.184 C34.002,0.769 35.747,-0.013 37.642,-0.013 C39.687,-0.013 41.685,0.905 43.122,2.506 C43.122,2.506 61.894,22.290 61.894,22.290 C62.499,22.483 62.937,23.049 62.937,23.719 C62.937,23.719 62.937,23.756 62.937,23.756 C62.966,23.924 62.966,24.096 62.937,24.264 C62.937,24.264 62.937,51.083 62.937,51.083 C62.937,54.524 60.326,57.219 56.992,57.219 ZM18.598,22.219 C18.598,22.219 57.691,22.219 57.691,22.219 C57.691,22.219 40.918,4.540 40.918,4.540 C40.021,3.542 38.837,2.987 37.642,2.987 C36.912,2.987 35.855,3.196 34.960,4.193 C34.960,4.193 18.598,22.219 18.598,22.219 Z" id="path-3" class="cls-5" fill-rule="evenodd"/>
    <path d="M15.637,57.526 C5.822,57.526 2.233,52.375 0.968,49.305 C-0.883,44.815 -0.002,39.169 3.018,36.171 C3.018,36.171 6.747,32.174 6.747,32.174 C7.170,31.722 7.827,31.577 8.400,31.806 C8.976,32.036 9.350,32.596 9.344,33.214 C9.334,34.176 9.473,36.193 10.012,38.037 C10.735,34.748 11.960,30.338 13.646,27.790 C13.924,27.373 14.391,27.219 14.892,27.219 C14.894,27.219 14.895,27.219 14.897,27.219 C15.396,27.219 15.862,27.366 16.142,27.779 C16.315,28.038 19.731,33.118 20.317,38.603 C20.589,38.237 20.824,37.789 20.976,37.309 C21.139,36.792 21.567,36.392 22.097,36.280 C22.623,36.167 23.175,36.344 23.532,36.750 C23.751,36.999 28.842,42.922 25.343,51.223 C24.611,53.449 21.687,57.526 15.637,57.526 ZM6.631,36.694 C6.631,36.694 5.171,38.259 5.171,38.259 C3.228,40.189 2.188,44.395 3.741,48.161 C5.433,52.266 9.657,54.526 15.637,54.526 C21.032,54.526 22.449,50.414 22.507,50.239 C22.520,50.199 22.539,50.148 22.556,50.108 C24.310,45.994 23.423,42.634 22.478,40.654 C21.145,42.272 19.493,43.023 19.396,43.066 C18.895,43.290 18.313,43.220 17.878,42.888 C17.441,42.556 17.222,42.013 17.304,41.471 C17.823,38.047 16.227,34.110 14.982,31.677 C13.551,35.244 12.532,40.415 12.209,42.501 C12.125,43.043 11.752,43.496 11.235,43.683 C10.722,43.868 10.144,43.759 9.732,43.395 C7.839,41.720 7.001,38.941 6.631,36.694 Z" id="path-4" class="cls-5" fill-rule="evenodd"/>
    <path d="M27.121,60.469 C27.014,60.469 26.904,60.457 26.794,60.433 C26.794,60.433 8.815,56.430 8.815,56.430 C8.007,56.250 7.497,55.448 7.678,54.640 C7.857,53.832 8.651,53.320 9.468,53.502 C9.468,53.502 27.446,57.505 27.446,57.505 C28.255,57.685 28.765,58.486 28.584,59.295 C28.429,59.994 27.809,60.469 27.121,60.469 Z" id="path-5" class="cls-5" fill-rule="evenodd"/>
    <path d="M1.682,60.469 C0.960,60.469 0.323,59.946 0.203,59.210 C0.069,58.393 0.624,57.622 1.442,57.488 C1.442,57.488 19.528,54.537 19.528,54.537 C20.340,54.404 21.116,54.958 21.250,55.775 C21.384,56.593 20.829,57.364 20.011,57.498 C20.011,57.498 1.925,60.449 1.925,60.449 C1.844,60.463 1.762,60.469 1.682,60.469 Z" id="path-6" class="cls-5" fill-rule="evenodd"/>
  </g>
</svg>
