<svg xmlns="http://www.w3.org/2000/svg" xmlns:xlink="http://www.w3.org/1999/xlink" preserveAspectRatio="xMidYMid" width="63" height="63" viewBox="0 0 63 63">
  <defs>
    <style>

      .cls-3 {
        fill: #53ecf4;
      }

      .cls-4 {
        fill: #ff917b;
      }

      .cls-7 {
        fill: #edc951;
      }

      .cls-8 {
        fill: #000000;
      }
    </style>
  </defs>
  <g id="group-17svg">
    <path d="M12.000,57.156 C12.000,57.156 9.312,57.156 9.312,57.156 C7.074,57.156 5.000,55.129 5.000,52.892 C5.000,52.892 5.000,49.061 5.000,49.061 C5.000,44.586 8.888,41.156 13.362,41.156 C13.362,41.156 56.006,41.156 56.006,41.156 C60.479,41.156 63.000,44.586 63.000,49.061 C63.000,49.061 63.000,52.892 63.000,52.892 C63.000,55.129 62.293,57.156 60.056,57.156 C60.056,57.156 57.000,57.156 57.000,57.156 C57.000,57.156 57.000,57.156 57.000,57.156 " id="path-1" class="cls-3" fill-rule="evenodd"/>
    <path d="M14.705,39.587 C14.705,32.755 22.090,27.217 31.199,27.217 C40.309,27.217 47.693,32.755 47.693,39.587 C47.693,39.587 47.693,39.587 47.693,39.587 " id="path-2" class="cls-4" fill-rule="evenodd"/>
    <path d="M57.328,56.773 C57.328,59.943 54.759,62.512 51.590,62.512 C48.421,62.512 45.852,59.943 45.852,56.773 C45.852,53.604 48.421,51.035 51.590,51.035 C54.759,51.035 57.328,53.604 57.328,56.773 Z" id="path-3" class="cls-4" fill-rule="evenodd"/>
    <path d="M23.910,56.773 C23.910,59.943 21.341,62.512 18.172,62.512 C15.003,62.512 12.434,59.943 12.434,56.773 C12.434,53.604 15.003,51.035 18.172,51.035 C21.341,51.035 23.910,53.604 23.910,56.773 Z" id="path-4" class="cls-4" fill-rule="evenodd"/>
    <path d="M30.000,2.512 C30.000,2.512 30.000,19.703 30.000,19.703 C25.000,19.703 21.404,15.855 21.404,11.108 C21.404,6.360 25.000,2.512 30.000,2.512 Z" id="path-5" class="cls-7" fill-rule="evenodd"/>
    <path d="M26.500,20.203 C20.839,20.203 16.404,15.769 16.404,10.107 C16.404,4.446 20.839,0.012 26.500,0.012 C27.328,0.012 28.000,0.684 28.000,1.512 C28.000,1.512 28.000,18.703 28.000,18.703 C28.000,19.532 27.328,20.203 26.500,20.203 ZM25.000,3.157 C21.724,3.809 19.404,6.581 19.404,10.107 C19.404,13.635 21.724,16.406 25.000,17.058 C25.000,17.058 25.000,3.157 25.000,3.157 Z" id="path-6" class="cls-8" fill-rule="evenodd"/>
    <path d="M33.000,8.156 C33.000,8.156 27.000,8.156 27.000,8.156 C26.172,8.156 25.500,7.485 25.500,6.656 C25.500,5.828 26.172,5.156 27.000,5.156 C27.000,5.156 33.000,5.156 33.000,5.156 C33.828,5.156 34.500,5.828 34.500,6.656 C34.500,7.485 33.828,8.156 33.000,8.156 Z" id="path-7" class="cls-8" fill-rule="evenodd"/>
    <path d="M33.000,15.156 C33.000,15.156 27.000,15.156 27.000,15.156 C26.172,15.156 25.500,14.485 25.500,13.656 C25.500,12.828 26.172,12.156 27.000,12.156 C27.000,12.156 33.000,12.156 33.000,12.156 C33.828,12.156 34.500,12.828 34.500,13.656 C34.500,14.485 33.828,15.156 33.000,15.156 Z" id="path-8" class="cls-8" fill-rule="evenodd"/>
    <path d="M1.500,48.656 C0.672,48.656 -0.000,47.985 -0.000,47.156 C-0.000,47.156 -0.000,26.361 -0.000,26.361 C-0.000,23.637 2.446,21.156 5.132,21.156 C5.132,21.156 5.311,21.156 5.311,21.156 C6.385,21.156 7.000,20.547 7.000,19.484 C7.000,19.484 7.000,13.858 7.000,13.858 C7.000,10.954 9.769,9.156 12.335,9.156 C12.335,9.156 17.000,9.156 17.000,9.156 C17.828,9.156 18.500,9.828 18.500,10.656 C18.500,11.485 17.828,12.156 17.000,12.156 C17.000,12.156 12.335,12.156 12.335,12.156 C11.230,12.156 10.000,12.855 10.000,13.858 C10.000,13.858 10.000,19.484 10.000,19.484 C10.000,22.191 8.028,24.156 5.311,24.156 C5.311,24.156 5.132,24.156 5.132,24.156 C4.076,24.156 3.000,25.269 3.000,26.361 C3.000,26.361 3.000,47.156 3.000,47.156 C3.000,47.985 2.328,48.656 1.500,48.656 Z" id="path-9" class="cls-8" fill-rule="evenodd"/>
    <path d="M56.056,57.156 C56.056,57.156 54.000,57.156 54.000,57.156 C53.172,57.156 52.500,56.485 52.500,55.656 C52.500,54.828 53.172,54.156 54.000,54.156 C54.000,54.156 56.056,54.156 56.056,54.156 C56.536,54.156 58.000,54.156 58.000,51.892 C58.000,51.892 58.000,48.061 58.000,48.061 C58.000,44.714 55.899,41.156 52.006,41.156 C52.006,41.156 9.362,41.156 9.362,41.156 C5.854,41.156 3.000,44.253 3.000,48.061 C3.000,48.061 3.000,51.892 3.000,51.892 C3.000,53.289 3.886,54.156 5.311,54.156 C5.311,54.156 8.000,54.156 8.000,54.156 C8.828,54.156 9.500,54.828 9.500,55.656 C9.500,56.485 8.828,57.156 8.000,57.156 C8.000,57.156 5.311,57.156 5.311,57.156 C2.233,57.156 -0.000,54.942 -0.000,51.892 C-0.000,51.892 -0.000,48.061 -0.000,48.061 C-0.000,42.599 4.200,38.156 9.362,38.156 C9.362,38.156 52.006,38.156 52.006,38.156 C57.049,38.156 61.000,42.507 61.000,48.061 C61.000,48.061 61.000,51.892 61.000,51.892 C61.000,55.040 59.013,57.156 56.056,57.156 Z" id="path-10" class="cls-8" fill-rule="evenodd"/>
    <path d="M41.000,57.156 C41.000,57.156 20.000,57.156 20.000,57.156 C19.172,57.156 18.500,56.485 18.500,55.656 C18.500,54.828 19.172,54.156 20.000,54.156 C20.000,54.156 41.000,54.156 41.000,54.156 C41.828,54.156 42.500,54.828 42.500,55.656 C42.500,56.485 41.828,57.156 41.000,57.156 Z" id="path-11" class="cls-8" fill-rule="evenodd"/>
    <path d="M43.693,40.087 C42.865,40.087 42.193,39.415 42.193,38.587 C42.193,32.593 35.467,27.717 27.199,27.717 C18.932,27.717 12.205,32.593 12.205,38.587 C12.205,39.415 11.533,40.087 10.705,40.087 C9.877,40.087 9.205,39.415 9.205,38.587 C9.205,30.939 17.277,24.717 27.199,24.717 C37.121,24.717 45.193,30.939 45.193,38.587 C45.193,39.415 44.521,40.087 43.693,40.087 Z" id="path-12" class="cls-8" fill-rule="evenodd"/>
    <path d="M47.590,63.012 C43.599,63.012 40.351,59.765 40.351,55.773 C40.351,51.782 43.599,48.535 47.590,48.535 C51.581,48.535 54.828,51.782 54.828,55.773 C54.828,59.765 51.581,63.012 47.590,63.012 ZM47.590,51.535 C45.253,51.535 43.352,53.436 43.352,55.773 C43.352,58.110 45.253,60.012 47.590,60.012 C49.927,60.012 51.828,58.110 51.828,55.773 C51.828,53.436 49.927,51.535 47.590,51.535 Z" id="path-13" class="cls-8" fill-rule="evenodd"/>
    <path d="M14.172,63.012 C10.181,63.012 6.934,59.765 6.934,55.773 C6.934,51.782 10.181,48.535 14.172,48.535 C18.163,48.535 21.410,51.782 21.410,55.773 C21.410,59.765 18.163,63.012 14.172,63.012 ZM14.172,51.535 C11.835,51.535 9.934,53.436 9.934,55.773 C9.934,58.110 11.835,60.012 14.172,60.012 C16.509,60.012 18.410,58.110 18.410,55.773 C18.410,53.436 16.509,51.535 14.172,51.535 Z" id="path-14" class="cls-8" fill-rule="evenodd"/>
    <path d="M26.500,40.656 C25.672,40.656 25.000,39.985 25.000,39.156 C25.000,39.156 25.000,26.156 25.000,26.156 C25.000,25.328 25.672,24.656 26.500,24.656 C27.328,24.656 28.000,25.328 28.000,26.156 C28.000,26.156 28.000,39.156 28.000,39.156 C28.000,39.985 27.328,40.656 26.500,40.656 Z" id="path-15" class="cls-8" fill-rule="evenodd"/>
    <path d="M59.000,47.156 C59.000,47.156 55.000,47.156 55.000,47.156 C54.172,47.156 53.500,46.485 53.500,45.656 C53.500,44.828 54.172,44.156 55.000,44.156 C55.000,44.156 59.000,44.156 59.000,44.156 C59.828,44.156 60.500,44.828 60.500,45.656 C60.500,46.485 59.828,47.156 59.000,47.156 Z" id="path-16" class="cls-8" fill-rule="evenodd"/>
  </g>
</svg>
