<svg xmlns="http://www.w3.org/2000/svg" xmlns:xlink="http://www.w3.org/1999/xlink" preserveAspectRatio="xMidYMid" width="62" height="60" viewBox="0 0 62 60">
  <defs>
    <style>

      .cls-3 {
        fill: #e56a77;
      }

      .cls-9 {
        fill: #53ecf4;
      }

      .cls-10 {
        fill: #000000;
      }
    </style>
  </defs>
  <g id="group-30svg">
    <path d="M1.978,38.477 C1.978,38.477 1.654,37.862 1.250,36.711 C0.846,35.564 0.356,33.867 0.143,31.756 C0.086,31.229 0.045,30.677 0.019,30.104 C-0.008,29.466 0.028,28.956 0.030,28.349 C0.053,27.752 0.114,27.094 0.169,26.444 C0.258,25.807 0.333,25.149 0.480,24.494 C0.729,23.172 1.132,21.834 1.625,20.507 C2.146,19.191 2.748,17.875 3.496,16.643 C4.238,15.409 5.064,14.222 5.996,13.155 C6.899,12.064 7.916,11.104 8.936,10.232 C9.953,9.377 11.055,8.612 12.075,8.001 C13.129,7.352 14.162,6.853 15.146,6.449 C17.103,5.627 18.826,5.238 20.028,5.048 C21.232,4.857 21.927,4.843 21.927,4.843 C21.927,4.843 21.285,5.115 20.203,5.619 C19.122,6.123 17.620,6.902 15.944,7.975 C15.111,8.515 14.234,9.152 13.358,9.836 C13.136,10.018 12.911,10.202 12.684,10.388 C12.471,10.579 12.256,10.771 12.038,10.967 C11.596,11.355 11.164,11.773 10.728,12.198 C9.008,13.922 7.377,15.949 6.074,18.175 C5.389,19.269 4.848,20.442 4.318,21.598 C3.833,22.772 3.388,23.946 3.058,25.119 C2.864,25.698 2.765,26.290 2.596,26.857 C2.476,27.427 2.351,27.960 2.254,28.529 C2.172,29.097 2.093,29.649 2.016,30.184 C1.945,30.713 1.893,31.228 1.857,31.725 C1.715,33.711 1.759,35.402 1.831,36.593 C1.903,37.784 1.978,38.477 1.978,38.477 Z" id="path-1" class="cls-3" fill-rule="evenodd"/>
    <path d="M49.212,48.132 C49.212,48.132 48.871,48.793 48.112,49.857 C47.730,50.386 47.252,51.024 46.635,51.700 C46.322,52.031 45.991,52.381 45.642,52.752 C45.264,53.106 44.858,53.492 44.424,53.855 C42.707,55.343 40.437,56.817 37.766,57.908 C36.424,58.429 35.005,58.915 33.514,59.216 C32.027,59.532 30.487,59.701 28.945,59.771 C27.385,59.818 25.876,59.731 24.370,59.499 C22.832,59.285 21.404,58.908 20.031,58.450 C18.661,58.003 17.385,57.438 16.233,56.807 C15.068,56.200 14.034,55.513 13.132,54.821 C12.213,54.152 11.446,53.445 10.797,52.801 C10.142,52.162 9.617,51.561 9.211,51.048 C8.789,50.552 8.506,50.121 8.306,49.837 C8.109,49.550 8.006,49.397 8.006,49.397 C8.006,49.397 8.153,49.509 8.431,49.719 C8.700,49.936 9.105,50.241 9.623,50.616 C10.131,51.000 10.780,51.426 11.515,51.905 C12.258,52.374 13.107,52.874 14.054,53.367 C15.000,53.860 16.051,54.330 17.174,54.774 C18.295,55.226 19.518,55.577 20.777,55.916 C22.031,56.255 23.393,56.451 24.712,56.608 C26.062,56.757 27.489,56.833 28.855,56.774 C30.238,56.744 31.623,56.627 32.964,56.375 C34.302,56.116 35.619,55.834 36.864,55.432 C38.102,55.014 39.290,54.567 40.392,54.067 C41.477,53.539 42.505,53.018 43.418,52.465 C43.884,52.200 44.284,51.906 44.704,51.656 C45.114,51.374 45.502,51.106 45.867,50.854 C46.572,50.331 47.187,49.862 47.678,49.453 C48.662,48.636 49.212,48.132 49.212,48.132 Z" id="path-2" class="cls-3" fill-rule="evenodd"/>
    <path d="M32.530,4.512 C32.530,4.512 32.712,4.515 33.053,4.522 C33.392,4.530 33.891,4.548 34.531,4.619 C35.803,4.750 37.628,5.067 39.725,5.829 C40.769,6.211 41.889,6.687 43.012,7.314 C44.138,7.932 45.299,8.654 46.398,9.539 C46.954,9.978 47.494,10.436 48.042,10.937 C48.541,11.381 49.112,11.965 49.589,12.503 C50.576,13.614 51.496,14.820 52.312,16.095 C53.105,17.383 53.808,18.731 54.352,20.117 C54.638,20.806 54.877,21.504 55.076,22.193 C55.292,22.911 55.461,23.594 55.609,24.289 C56.203,27.052 56.246,29.707 55.995,31.916 C55.763,34.132 55.236,35.913 54.803,37.112 C54.363,38.315 54.019,38.958 54.019,38.958 C54.019,38.958 54.114,38.233 54.220,36.985 C54.271,36.360 54.309,35.603 54.333,34.744 C54.350,33.890 54.330,32.906 54.272,31.873 C54.203,30.828 54.069,29.708 53.888,28.540 C53.687,27.372 53.398,26.162 53.048,24.933 C52.869,24.323 52.661,23.691 52.434,23.098 C52.194,22.475 51.943,21.860 51.673,21.251 C51.125,20.032 50.491,18.831 49.769,17.684 C49.066,16.525 48.268,15.423 47.405,14.402 C46.946,13.883 46.571,13.432 46.077,12.912 C45.636,12.444 45.166,11.981 44.696,11.550 C43.744,10.696 42.791,9.894 41.827,9.206 C40.859,8.524 39.914,7.911 39.009,7.387 C38.096,6.879 37.236,6.439 36.457,6.072 C35.672,5.725 34.976,5.421 34.393,5.196 C33.811,4.982 33.346,4.792 33.021,4.690 C32.701,4.574 32.530,4.512 32.530,4.512 Z" id="path-3" class="cls-3" fill-rule="evenodd"/>
    <path d="M48.443,35.242 C48.443,35.242 52.047,42.891 52.047,42.891 C52.509,43.870 53.810,44.081 54.557,43.297 C54.557,43.297 60.566,36.991 60.566,36.991 C61.433,36.082 60.907,34.575 59.664,34.402 C59.664,34.402 50.051,33.060 50.051,33.060 C48.838,32.890 47.922,34.135 48.443,35.242 Z" id="path-4" class="cls-3" fill-rule="evenodd"/>
    <path d="M12.772,47.647 C12.772,47.647 4.894,45.358 4.894,45.358 C4.114,45.132 3.352,45.759 3.421,46.567 C3.421,46.567 4.149,54.989 4.149,54.989 C4.230,55.926 5.338,56.378 6.052,55.766 C6.052,55.766 13.202,49.632 13.202,49.632 C13.898,49.035 13.653,47.903 12.772,47.647 Z" id="path-5" class="cls-3" fill-rule="evenodd"/>
    <path d="M22.380,10.293 C22.380,10.293 27.096,4.041 27.096,4.041 C27.584,3.393 27.270,2.457 26.490,2.234 C26.490,2.234 18.728,0.026 18.728,0.026 C17.824,-0.231 17.008,0.643 17.326,1.527 C17.326,1.527 20.371,9.988 20.371,9.988 C20.682,10.852 21.827,11.025 22.380,10.293 Z" id="path-6" class="cls-3" fill-rule="evenodd"/>
    <path d="M42.010,36.529 C42.890,44.035 39.229,47.426 31.670,47.426 C24.112,47.426 20.841,44.014 21.889,36.529 C23.004,28.559 31.670,19.499 31.670,19.499 C31.670,19.499 41.124,28.977 42.010,36.529 Z" id="path-7" class="cls-9" fill-rule="evenodd"/>
    <path d="M27.670,45.926 C23.292,45.926 20.235,44.857 18.323,42.660 C16.453,40.509 15.824,37.454 16.403,33.321 C17.572,24.968 26.219,15.847 26.586,15.462 C26.865,15.170 27.250,15.003 27.654,14.999 C28.068,14.993 28.447,15.154 28.732,15.439 C29.133,15.842 38.564,25.378 39.500,33.354 C39.965,37.328 39.239,40.423 37.343,42.556 C35.354,44.792 32.099,45.926 27.670,45.926 ZM27.696,18.717 C25.417,21.356 20.184,27.955 19.374,33.737 C18.930,36.915 19.337,39.254 20.587,40.691 C21.877,42.174 24.260,42.926 27.670,42.926 C31.205,42.926 33.706,42.130 35.102,40.562 C36.404,39.097 36.882,36.790 36.520,33.704 C35.878,28.227 30.137,21.400 27.696,18.717 Z" id="path-8" class="cls-10" fill-rule="evenodd"/>
    <path d="M23.565,36.916 C23.500,36.916 23.435,36.911 23.369,36.903 C22.548,36.795 21.969,36.042 22.076,35.221 C22.734,30.194 26.144,26.252 26.289,26.087 C26.833,25.465 27.782,25.400 28.405,25.948 C29.028,26.493 29.091,27.439 28.547,28.063 C28.495,28.122 25.586,31.520 25.051,35.610 C24.952,36.365 24.308,36.916 23.565,36.916 Z" id="path-9" class="cls-10" fill-rule="evenodd"/>
  </g>
</svg>
