<svg xmlns="http://www.w3.org/2000/svg" xmlns:xlink="http://www.w3.org/1999/xlink" preserveAspectRatio="xMidYMid" width="56" height="64" viewBox="0 0 56 64">
  <defs>
    <style>

      .cls-3 {
        fill: #e56a77;
      }

      .cls-5 {
        fill: #81bda4;
      }

      .cls-6 {
        fill: #000000;
      }
    </style>
  </defs>
  <g id="group-2svg">
    <path d="M31.422,35.648 C31.422,35.648 21.065,24.054 36.495,16.430 C51.924,8.807 46.471,2.511 46.471,2.511 C46.471,2.511 69.185,22.513 45.515,31.300 C45.515,31.300 37.928,33.918 31.422,35.648 Z" id="path-1" class="cls-3" fill-rule="evenodd"/>
    <path d="M18.237,40.169 C18.237,40.169 23.562,33.708 15.095,29.936 C6.627,26.165 9.427,22.660 9.427,22.660 C9.427,22.660 -2.367,33.912 10.559,38.132 C10.559,38.132 14.699,39.378 18.237,40.169 Z" id="path-2" class="cls-3" fill-rule="evenodd"/>
    <path d="M4.505,58.894 C4.505,55.002 6.292,56.602 6.292,54.027 C6.292,51.453 9.427,49.264 13.318,49.264 C15.460,49.264 17.365,49.847 18.657,50.845 C19.077,48.536 22.038,46.719 25.642,46.719 C28.023,46.719 30.122,47.490 31.397,48.687 C32.672,47.490 34.772,46.700 37.154,46.700 C41.045,46.700 44.199,48.783 44.199,51.358 C44.199,51.743 44.120,52.114 43.986,52.472 C44.175,52.462 44.364,52.452 44.556,52.452 C48.447,52.452 51.601,54.948 51.601,57.523 C51.601,60.097 48.447,62.594 44.556,62.594 C44.556,62.594 18.089,62.594 18.089,62.594 C18.089,62.594 4.505,64.097 4.505,58.894 Z" id="path-3" class="cls-5" fill-rule="evenodd"/>
    <path d="M28.422,36.148 C28.000,36.148 27.592,35.970 27.303,35.647 C27.108,35.428 22.530,30.218 23.715,24.102 C24.499,20.056 27.566,16.687 32.830,14.085 C40.358,10.366 42.420,7.197 42.825,5.193 C43.159,3.534 42.346,2.502 42.337,2.493 C41.821,1.896 41.854,1.002 42.415,0.446 C42.976,-0.110 43.871,-0.136 44.462,0.385 C44.950,0.815 56.391,11.019 54.597,20.695 C53.709,25.483 49.820,29.188 43.037,31.706 C42.928,31.744 35.290,34.374 28.807,36.098 C28.680,36.131 28.550,36.148 28.422,36.148 ZM45.720,5.995 C44.843,9.792 40.955,13.418 34.159,16.775 C29.788,18.935 27.266,21.586 26.664,24.655 C25.971,28.188 27.975,31.525 28.991,32.940 C35.143,31.252 41.954,28.906 42.025,28.882 C47.715,26.769 50.963,23.829 51.646,20.153 C52.587,15.095 48.721,9.473 45.720,5.995 Z" id="path-4" class="cls-6" fill-rule="evenodd"/>
    <path d="M15.237,40.669 C15.128,40.669 15.019,40.658 14.910,40.634 C11.359,39.840 7.298,38.620 7.127,38.568 C3.142,37.268 0.814,35.188 0.176,32.376 C-1.083,26.829 5.126,20.827 5.391,20.574 C5.962,20.029 6.858,20.020 7.440,20.553 C8.022,21.086 8.091,21.979 7.599,22.596 C7.599,22.596 7.599,22.596 7.599,22.596 C7.602,22.596 7.379,22.955 7.544,23.531 C7.758,24.275 8.712,25.788 12.705,27.566 C15.802,28.945 17.657,30.853 18.217,33.234 C19.064,36.831 16.504,39.991 16.395,40.124 C16.106,40.474 15.680,40.669 15.237,40.669 ZM5.143,25.495 C3.827,27.372 2.654,29.750 3.102,31.716 C3.492,33.424 5.148,34.767 8.025,35.706 C8.032,35.708 11.380,36.714 14.568,37.475 C15.036,36.658 15.624,35.279 15.294,33.907 C14.954,32.493 13.672,31.281 11.484,30.306 C8.268,28.873 6.143,27.260 5.143,25.495 Z" id="path-5" class="cls-6" fill-rule="evenodd"/>
    <path d="M40.019,23.049 C40.019,23.049 39.157,23.688 39.157,23.688 C38.874,23.904 38.560,24.082 38.295,24.312 C37.759,24.773 37.193,25.135 36.690,25.619 C36.434,25.849 36.177,26.075 35.915,26.291 C35.915,26.291 35.183,27.001 35.183,27.001 C34.934,27.229 34.704,27.478 34.482,27.732 C34.259,27.984 34.015,28.213 33.804,28.473 C33.376,28.988 32.945,29.491 32.563,30.033 C32.172,30.564 31.799,31.107 31.468,31.671 C31.116,32.222 30.820,32.803 30.533,33.378 C30.399,33.668 30.256,33.958 30.144,34.249 C30.024,34.527 29.915,34.863 29.848,35.063 C29.848,35.063 29.907,34.648 29.907,34.648 C29.947,36.756 29.882,38.865 29.665,40.973 C29.568,42.027 29.395,43.081 29.210,44.135 C29.116,44.662 28.992,45.189 28.875,45.716 C28.740,46.244 28.606,46.770 28.422,47.298 C28.238,46.770 28.103,46.244 27.968,45.716 C27.852,45.189 27.728,44.662 27.634,44.135 C27.449,43.081 27.276,42.027 27.179,40.973 C26.962,38.865 26.896,36.756 26.936,34.648 C26.936,34.648 26.938,34.581 26.938,34.581 C26.940,34.461 26.961,34.340 26.996,34.232 C27.146,33.765 27.289,33.444 27.456,33.081 C27.614,32.724 27.796,32.390 27.974,32.051 C28.348,31.388 28.754,30.749 29.202,30.145 C29.425,29.842 29.651,29.543 29.899,29.261 C30.145,28.979 30.373,28.682 30.641,28.421 C31.154,27.878 31.697,27.369 32.264,26.893 C32.543,26.650 32.847,26.435 33.139,26.211 C33.434,25.989 33.734,25.777 34.050,25.587 C34.050,25.587 34.979,25.002 34.979,25.002 C35.299,24.824 35.626,24.660 35.953,24.498 C36.589,24.158 37.289,23.896 37.959,23.639 C38.295,23.503 38.638,23.423 38.981,23.321 C38.981,23.321 40.019,23.049 40.019,23.049 Z" id="path-6" class="cls-6" fill-rule="evenodd"/>
    <path d="M9.197,32.266 C9.591,32.347 9.966,32.452 10.351,32.636 C10.552,32.718 10.714,32.824 10.900,32.919 C11.084,33.015 11.263,33.119 11.427,33.238 C12.109,33.693 12.744,34.211 13.325,34.775 C13.911,35.337 14.453,35.936 14.962,36.561 C15.216,36.873 15.459,37.193 15.700,37.516 C15.945,37.844 16.161,38.164 16.398,38.530 C16.476,38.650 16.521,38.782 16.536,38.915 C16.536,38.915 16.563,39.169 16.563,39.169 C16.775,41.166 16.790,43.162 16.613,45.159 C16.519,46.157 16.376,47.155 16.163,48.153 C16.061,48.652 15.924,49.152 15.777,49.651 C15.630,50.150 15.457,50.649 15.237,51.148 C15.017,50.649 14.844,50.150 14.697,49.651 C14.550,49.152 14.413,48.652 14.311,48.153 C14.098,47.155 13.955,46.157 13.861,45.159 C13.685,43.162 13.699,41.166 13.911,39.169 C13.911,39.169 14.076,39.810 14.076,39.810 C14.076,39.810 13.588,38.827 13.588,38.827 C13.588,38.827 13.067,37.831 13.067,37.831 C12.716,37.167 12.349,36.511 11.963,35.868 C11.577,35.224 11.189,34.574 10.735,33.976 C10.622,33.824 10.515,33.667 10.394,33.523 C10.275,33.381 10.160,33.213 10.033,33.087 C9.903,32.957 9.785,32.806 9.643,32.666 C9.643,32.666 9.197,32.266 9.197,32.266 Z" id="path-7" class="cls-6" fill-rule="evenodd"/>
    <path d="M10.258,62.877 C1.784,62.877 0.005,60.031 0.005,57.644 C0.005,55.001 0.791,54.147 1.595,53.498 C1.651,53.454 1.709,53.415 1.758,53.361 C1.752,53.360 1.792,53.231 1.792,52.902 C1.792,49.425 5.537,46.701 10.318,46.701 C12.009,46.701 13.601,47.033 14.955,47.655 C16.334,45.577 19.249,44.203 22.642,44.203 C24.817,44.203 26.847,44.769 28.396,45.781 C29.949,44.764 31.979,44.196 34.154,44.196 C38.783,44.196 42.443,46.721 42.686,50.007 C46.866,50.417 50.101,53.070 50.101,56.273 C50.101,59.758 46.268,62.594 41.556,62.594 C41.556,62.594 15.182,62.594 15.182,62.594 C14.709,62.650 12.668,62.877 10.258,62.877 ZM10.318,49.701 C7.061,49.701 4.792,51.388 4.792,52.902 C4.792,54.630 4.114,55.322 3.478,55.834 C3.224,56.039 3.005,56.215 3.005,57.644 C3.005,59.022 5.785,59.877 10.258,59.877 C12.763,59.877 14.876,59.609 14.897,59.606 C14.961,59.598 15.025,59.594 15.089,59.594 C15.089,59.594 41.556,59.594 41.556,59.594 C44.729,59.594 47.101,57.840 47.101,56.273 C47.101,54.705 44.730,52.952 41.556,52.952 C41.391,52.952 41.228,52.960 41.066,52.969 C40.562,52.995 40.078,52.767 39.779,52.360 C39.479,51.953 39.405,51.423 39.580,50.949 C39.660,50.735 39.699,50.540 39.699,50.356 C39.699,48.861 37.421,47.196 34.154,47.196 C32.244,47.196 30.476,47.786 29.424,48.773 C28.846,49.314 27.948,49.314 27.371,48.773 C26.324,47.790 24.556,47.203 22.642,47.203 C19.562,47.203 17.384,48.698 17.133,50.082 C17.039,50.597 16.684,51.026 16.195,51.214 C15.708,51.402 15.155,51.321 14.740,51.001 C13.671,50.175 12.059,49.701 10.318,49.701 Z" id="path-8" class="cls-6" fill-rule="evenodd"/>
  </g>
</svg>
