<svg xmlns="http://www.w3.org/2000/svg" xmlns:xlink="http://www.w3.org/1999/xlink" preserveAspectRatio="xMidYMid" width="50" height="64" viewBox="0 0 50 64">
  <defs>
    <style>

      .cls-3 {
        fill: #53ecf4;
      }

      .cls-4 {
        fill: #ffffff;
      }

      .cls-5 {
        fill: #000000;
      }
    </style>
  </defs>
  <g id="group-12svg">
    <path d="M49.141,40.088 C51.032,56.216 43.165,63.500 26.927,63.500 C10.689,63.500 3.661,56.169 5.911,40.088 C8.307,22.966 26.927,3.500 26.927,3.500 C26.927,3.500 47.238,23.864 49.141,40.088 Z" id="path-1" class="cls-3" fill-rule="evenodd"/>
    <path d="M31.905,46.178 C33.698,43.637 35.043,41.438 36.049,39.550 C39.915,32.297 38.781,29.620 38.781,29.620 C38.781,29.620 43.013,40.994 43.013,45.524 C43.013,47.931 42.729,49.521 41.951,51.589 C41.219,53.543 38.930,54.971 36.215,54.971 C32.911,54.971 30.231,52.856 30.231,50.248 C30.231,49.138 31.147,47.274 31.905,46.178 Z" id="path-2" class="cls-4" fill-rule="evenodd"/>
    <path d="M22.927,63.000 C14.050,63.000 7.907,60.898 4.146,56.576 C0.473,52.353 -0.744,46.238 0.426,37.880 C2.860,20.478 21.069,1.272 21.843,0.463 C22.122,0.171 22.507,0.004 22.911,-0.000 C23.296,-0.011 23.703,0.155 23.989,0.441 C24.833,1.288 44.689,21.363 46.630,37.914 C47.572,45.941 46.156,52.139 42.422,56.337 C38.489,60.758 31.930,63.000 22.927,63.000 ZM22.952,3.693 C19.016,8.085 5.371,24.183 3.396,38.296 C2.355,45.743 3.340,51.078 6.410,54.606 C9.566,58.236 14.969,60.000 22.927,60.000 C31.036,60.000 36.841,58.097 40.180,54.343 C43.321,50.812 44.488,45.403 43.651,38.263 C42.081,24.873 27.144,8.152 22.952,3.693 Z" id="path-3" class="cls-5" fill-rule="evenodd"/>
    <path d="M32.215,54.471 C28.088,54.471 24.731,51.679 24.731,48.248 C24.731,46.574 26.000,44.296 26.671,43.325 C28.305,41.009 29.666,38.833 30.726,36.845 C33.964,30.770 33.414,28.296 33.373,28.139 C33.092,27.376 33.470,26.527 34.227,26.226 C34.984,25.925 35.844,26.284 36.162,27.034 C36.168,27.050 36.178,27.073 36.186,27.097 C36.186,27.097 36.186,27.097 36.186,27.097 C36.186,27.097 36.186,27.097 36.186,27.097 C36.190,27.107 36.194,27.118 36.198,27.128 C36.199,27.129 36.199,27.130 36.200,27.132 C36.641,28.326 40.513,38.930 40.513,43.525 C40.513,46.086 40.199,47.873 39.355,50.117 C38.380,52.720 35.510,54.471 32.215,54.471 ZM35.344,33.932 C34.886,35.178 34.249,36.613 33.373,38.256 C32.255,40.353 30.828,42.637 29.131,45.042 C28.402,46.097 27.731,47.630 27.731,48.248 C27.731,49.995 29.785,51.471 32.215,51.471 C34.234,51.471 36.015,50.480 36.546,49.062 C37.269,47.141 37.513,45.744 37.513,43.525 C37.513,41.468 36.474,37.540 35.344,33.932 Z" id="path-4" class="cls-5" fill-rule="evenodd"/>
    <path d="M8.857,44.670 C8.792,44.670 8.726,44.666 8.660,44.657 C7.839,44.549 7.260,43.796 7.368,42.975 C9.578,26.108 21.053,12.842 21.540,12.285 C22.086,11.662 23.032,11.600 23.656,12.145 C24.279,12.690 24.342,13.638 23.797,14.261 C23.684,14.391 12.432,27.421 10.342,43.364 C10.243,44.120 9.599,44.670 8.857,44.670 Z" id="path-5" class="cls-5" fill-rule="evenodd"/>
  </g>
</svg>
