<?xml version="1.0" ?><svg xmlns="http://www.w3.org/2000/svg" xmlns:xlink="http://www.w3.org/1999/xlink" viewBox="0 0 32 32" xml:space="preserve" version="1.1"><g id="Flat_copy" fill="#AAAAAA" fill-rule="evenodd"><polyline points="9.378 17.447 10.519 17.447 10.519 23.116 11.622 23.116 11.622 17.447 12.762 17.447 12.762 16.483 9.378 16.483 9.378 17.447"/><path d="M16.14976,12.73728 C16.29952,12.73728 16.41792,12.6976 16.5056,12.61632 C16.59392,12.53248 16.63808,12.41856 16.63808,12.27456 L16.63808,9.3376 C16.63808,9.21984 16.59328,9.12384 16.50304,9.05216 C16.41344,8.97856 16.29568,8.94208 16.14976,8.94208 C16.01536,8.94208 15.90656,8.97856 15.82144,9.05216 C15.73888,9.12384 15.69664,9.21984 15.69664,9.3376 L15.69664,12.27456 C15.69664,12.4224 15.73568,12.53632 15.8144,12.61632 C15.89184,12.6976 16.00448,12.73728 16.14976,12.73728 L16.14976,12.73728 Z M18.52672,21.9712 C18.52672,22.12864 18.49792,22.24 18.44224,22.30848 C18.38528,22.37888 18.29888,22.41216 18.17792,22.41216 C18.09536,22.41216 18.01792,22.3936 17.94176,22.35968 C17.86688,22.3264 17.7888,22.26624 17.71072,22.18752 L17.71072,19.13856 C17.77664,19.07008 17.84448,19.02016 17.91168,18.9888 C17.98016,18.95488 18.04928,18.94016 18.11904,18.94016 C18.25088,18.94016 18.35328,18.9824 18.42432,19.06624 C18.4928,19.15264 18.52672,19.27744 18.52672,19.44384 L18.52672,21.9712 Z M18.58112,18.16256 C18.4288,18.16256 18.2784,18.20096 18.12928,18.2784 C17.98272,18.35584 17.84256,18.47104 17.71072,18.62016 L17.71072,16.48256 L16.72192,16.48256 L16.72192,23.11616 L17.71072,23.11616 L17.71072,22.74112 C17.83808,22.89216 17.97888,23.00224 18.12864,23.07392 C18.27648,23.14496 18.448,23.18016 18.64064,23.18016 C18.92928,23.18016 19.15328,23.08864 19.30496,22.90368 C19.45856,22.71744 19.53536,22.45248 19.53536,22.10624 L19.53536,19.39008 C19.53536,18.9888 19.45408,18.68352 19.2896,18.47616 C19.12704,18.26752 18.89024,18.16256 18.58112,18.16256 L18.58112,18.16256 Z M15.00736,21.94112 C14.9152,22.04608 14.81472,22.13248 14.704,22.20224 C14.59392,22.27136 14.50176,22.30464 14.432,22.30464 C14.33984,22.30464 14.27328,22.27968 14.2304,22.2272 C14.19136,22.176 14.1696,22.09216 14.1696,21.9776 L14.1696,18.22208 L13.19168,18.22208 L13.19168,22.31488 C13.19168,22.60736 13.24928,22.8224 13.36384,22.97088 C13.47904,23.11616 13.648,23.18848 13.87456,23.18848 C14.05888,23.18848 14.24768,23.13856 14.44288,23.0336 C14.63872,22.92736 14.82624,22.7776 15.00736,22.57984 L15.00736,23.11616 L15.98592,23.11616 L15.98592,18.22208 L15.00736,18.22208 L15.00736,21.94112 L15.00736,21.94112 Z"/><path d="M25.98848,21.6096 C25.98848,23.55968 24.40704,25.1424 22.45696,25.1424 L10.18432,25.1424 C8.23296,25.1424 6.65152,23.55968 6.65152,21.6096 L6.65152,18.76992 C6.65152,16.81856 8.23296,15.23712 10.18432,15.23712 L22.45696,15.23712 C24.40704,15.23712 25.98848,16.81856 25.98848,18.76992 L25.98848,21.6096 Z M11.56288,6.22848 L12.36864,9.1488 L12.44672,9.1488 L13.21344,6.22848 L14.4736,6.22848 L13.0304,10.50496 L13.0304,13.536 L11.79072,13.536 L11.79072,10.64 L10.31424,6.22848 L11.56288,6.22848 Z M14.5632,9.37728 C14.5632,8.96128 14.71104,8.62848 15.00736,8.37888 C15.30432,8.13376 15.70304,8.00832 16.20288,8.00832 C16.6592,8.00832 17.03232,8.14016 17.3248,8.4 C17.61408,8.65984 17.76,8.99712 17.76,9.40992 L17.76,12.19392 C17.76,12.656 17.61664,13.0176 17.33312,13.27872 C17.0464,13.53984 16.65344,13.67104 16.15296,13.67104 C15.67168,13.67104 15.28576,13.536 14.99648,13.2672 C14.70784,12.99456 14.5632,12.62976 14.5632,12.17216 L14.5632,9.37728 Z M18.65344,8.14464 L19.75296,8.14464 L19.75296,12.2784 C19.75296,12.40704 19.77792,12.49856 19.824,12.55488 C19.86944,12.61248 19.94496,12.64256 20.048,12.64256 C20.12864,12.64256 20.23104,12.60352 20.3552,12.52864 C20.47872,12.4512 20.59264,12.35456 20.6944,12.23616 L20.6944,8.14464 L21.79648,8.14464 L21.79648,13.536 L20.6944,13.536 L20.6944,12.9408 C20.4928,13.15968 20.2816,13.32864 20.0608,13.44256 C19.84192,13.55584 19.62944,13.61472 19.42208,13.61472 C19.16672,13.61472 18.97536,13.53344 18.84608,13.37216 C18.71808,13.21344 18.65344,12.97344 18.65344,12.6496 L18.65344,8.14464 Z M16.10688,0.36096 C7.40288,0.36096 0.34688,7.4176 0.34688,16.12096 C0.34688,24.82624 7.40288,31.88096 16.10688,31.88096 C24.81024,31.88096 31.86688,24.82624 31.86688,16.12096 C31.86688,7.4176 24.81024,0.36096 16.10688,0.36096 L16.10688,0.36096 Z"/><path d="M21.92128,20.02624 L21.05664,20.02624 L21.05664,19.53088 C21.05664,19.32608 21.08864,19.1776 21.15712,19.09248 C21.2256,19.00096 21.33696,18.95744 21.49312,18.95744 C21.64096,18.95744 21.75168,19.00096 21.81824,19.09248 C21.88608,19.1776 21.92128,19.32608 21.92128,19.53088 L21.92128,20.02624 Z M21.53408,18.10112 C21.09632,18.10112 20.74048,18.2336 20.46336,18.5024 C20.18688,18.76864 20.04736,19.11616 20.04736,19.53728 L20.04736,21.7376 C20.04736,22.20992 20.17472,22.57984 20.4256,22.84736 C20.67648,23.11616 21.02208,23.2512 21.46112,23.2512 C21.9488,23.2512 22.31424,23.12512 22.55872,22.87232 C22.8064,22.6176 22.92672,22.24 22.92672,21.7376 L22.92672,21.48608 L21.92128,21.48608 L21.92128,21.7088 C21.92128,21.99744 21.88672,22.18368 21.82336,22.26752 C21.75936,22.35136 21.64544,22.3936 21.48352,22.3936 C21.32736,22.3936 21.21664,22.34496 21.152,22.2464 C21.088,22.14464 21.05664,21.96736 21.05664,21.7088 L21.05664,20.7872 L22.92672,20.7872 L22.92672,19.53728 C22.92672,19.07456 22.80768,18.72 22.56704,18.47104 C22.32704,18.22464 21.98208,18.10112 21.53408,18.10112 L21.53408,18.10112 Z"/></g></svg>
