<?xml version="1.0" encoding="UTF-8"?>
<!-- Generator: Adobe Illustrator 16.0.0, SVG Export Plug-In . SVG Version: 6.00 Build 0)  -->
<!DOCTYPE svg PUBLIC "-//W3C//DTD SVG 1.1//EN" "http://www.w3.org/Graphics/SVG/1.1/DTD/svg11.dtd">
<svg version="1.1" id="Слой_1" xmlns="http://www.w3.org/2000/svg" xmlns:xlink="http://www.w3.org/1999/xlink" x="0px" y="0px" width="194px" height="213px" viewBox="0 0 194 213" enable-background="new 0 0 194 213" xml:space="preserve"><script xmlns=""/>
<g>
	<g>
		<defs>
			<path id="SVGID_1_" d="M79.945,108.738h-19.6c-0.192,0-0.346,0.149-0.358,0.337c-0.492,8.851-2.16,18.386-4.574,26.173     c-0.034,0.106-0.015,0.226,0.051,0.317c0.068,0.089,0.175,0.145,0.288,0.145h6.708c0.154,0,0.292-0.1,0.339-0.249     c1.878-6.004,3.386-13.801,3.96-20.439h6.432v20.332c0,0.194,0.161,0.355,0.357,0.355h6.396c0.198,0,0.356-0.161,0.356-0.355     v-26.258C80.301,108.899,80.145,108.738,79.945,108.738"/>
		</defs>
		<clipPath id="SVGID_2_">
			<use xlink:href="#SVGID_1_" overflow="visible"/>
		</clipPath>
		<g clip-path="url(#SVGID_2_)">
			<defs>
				<rect id="SVGID_3_" width="194" height="213"/>
			</defs>
			<clipPath id="SVGID_4_">
				<use xlink:href="#SVGID_3_" overflow="visible"/>
			</clipPath>
			<rect x="50.397" y="103.738" clip-path="url(#SVGID_4_)" fill="#EF3E58" width="34.904" height="36.972"/>
		</g>
	</g>
</g>
<g>
	<g>
		<defs>
			<path id="SVGID_5_" d="M162.836,108.738h-6.396c-0.196,0-0.358,0.16-0.358,0.357v20.315c-1.403,0.395-2.805,0.583-4.386,0.583     c-4.24,0-5.216-1.295-5.216-6.919v-13.979c0-0.196-0.16-0.357-0.357-0.357h-6.395c-0.198,0-0.357,0.16-0.357,0.357v14.651     c0,9.164,3.094,12.736,11.034,12.736c4.521,0,9.562-1.152,12.558-2.292c0.14-0.057,0.232-0.187,0.232-0.333v-24.763     C163.194,108.899,163.032,108.738,162.836,108.738"/>
		</defs>
		<clipPath id="SVGID_6_">
			<use xlink:href="#SVGID_5_" overflow="visible"/>
		</clipPath>
		<g clip-path="url(#SVGID_6_)">
			<defs>
				<rect id="SVGID_7_" width="194" height="213"/>
			</defs>
			<clipPath id="SVGID_8_">
				<use xlink:href="#SVGID_7_" overflow="visible"/>
			</clipPath>
			<rect x="134.371" y="103.738" clip-path="url(#SVGID_8_)" fill="#EF3E58" width="33.824" height="37.746"/>
		</g>
	</g>
</g>
<g>
	<g>
		<defs>
			<path id="SVGID_9_" d="M27.221,108.766h-6.5c-0.163,0-0.306,0.109-0.344,0.27c-1.03,4.049-3.093,10.796-5.867,17.868     l-6.528-17.931c-0.051-0.139-0.184-0.234-0.333-0.234H1.067c-0.115,0-0.224,0.058-0.291,0.152     c-0.067,0.096-0.084,0.219-0.045,0.328l9.776,26.838c-1.022,2.056-1.939,3.76-2.826,5.411c-0.652,1.214-1.288,2.394-1.928,3.65     c-0.059,0.109-0.053,0.243,0.011,0.349c0.066,0.105,0.181,0.169,0.306,0.169h7.119c0.133,0,0.254-0.074,0.317-0.193     c1.207-2.322,2.699-5.546,4.086-8.844c4.154-9.771,7.51-18.983,9.968-27.377c0.033-0.109,0.011-0.226-0.056-0.316     C27.438,108.817,27.333,108.766,27.221,108.766"/>
		</defs>
		<clipPath id="SVGID_10_">
			<use xlink:href="#SVGID_9_" overflow="visible"/>
		</clipPath>
		<g clip-path="url(#SVGID_10_)">
			<defs>
				<rect id="SVGID_11_" width="194" height="213"/>
			</defs>
			<clipPath id="SVGID_12_">
				<use xlink:href="#SVGID_11_" overflow="visible"/>
			</clipPath>
			<rect x="-4.289" y="103.738" clip-path="url(#SVGID_12_)" fill="#EF3E58" width="36.865" height="46.898"/>
		</g>
	</g>
</g>
<g>
	<g>
		<defs>
			<path id="SVGID_13_" d="M50.528,129.429c-0.032-0.089-0.1-0.163-0.186-0.201c-0.087-0.042-0.184-0.045-0.275-0.011     c-1.561,0.575-4.485,1.046-6.519,1.046c-4.461,0-6.583-1.202-6.583-8.043c0-5.469,0.651-8.043,6.583-8.043     c1.682,0,3.245,0.246,5.225,0.817c0.163,0.044,0.335-0.027,0.415-0.174c0.742-1.394,1.638-3.095,2.647-5.181     c0.044-0.091,0.046-0.202,0.004-0.297c-0.04-0.09-0.122-0.166-0.218-0.198c-2.625-0.834-5.741-1.315-8.543-1.315     c-9.339,0-13.505,4.406-13.505,14.286c0,10.026,4.166,14.495,13.505,14.495c2.34,0,6.954-0.491,9.177-1.382     c0.179-0.07,0.27-0.268,0.204-0.452L50.528,129.429"/>
		</defs>
		<clipPath id="SVGID_14_">
			<use xlink:href="#SVGID_13_" overflow="visible"/>
		</clipPath>
		<g clip-path="url(#SVGID_14_)">
			<defs>
				<rect id="SVGID_15_" width="194" height="213"/>
			</defs>
			<clipPath id="SVGID_16_">
				<use xlink:href="#SVGID_15_" overflow="visible"/>
			</clipPath>
			<rect x="24.572" y="102.83" clip-path="url(#SVGID_16_)" fill="#EF3E58" width="32.907" height="38.781"/>
		</g>
	</g>
</g>
<g>
	<g>
		<defs>
			<path id="SVGID_17_" d="M111.409,108.766h-6.5c-0.164,0-0.306,0.109-0.347,0.27c-1.028,4.052-3.092,10.8-5.864,17.868     l-6.53-17.931c-0.051-0.139-0.183-0.234-0.334-0.234h-6.579c-0.115,0-0.226,0.058-0.292,0.152     c-0.068,0.096-0.082,0.219-0.045,0.328l9.774,26.838c-1.019,2.052-1.931,3.751-2.819,5.402c-0.655,1.215-1.289,2.396-1.932,3.658     c-0.059,0.11-0.053,0.242,0.012,0.349c0.065,0.104,0.18,0.17,0.305,0.17h7.119c0.131,0,0.255-0.075,0.316-0.195     c1.207-2.317,2.696-5.541,4.086-8.844c4.148-9.754,7.503-18.965,9.969-27.377c0.033-0.108,0.012-0.225-0.054-0.316     C111.627,108.817,111.519,108.766,111.409,108.766"/>
		</defs>
		<clipPath id="SVGID_18_">
			<use xlink:href="#SVGID_17_" overflow="visible"/>
		</clipPath>
		<g clip-path="url(#SVGID_18_)">
			<defs>
				<rect id="SVGID_19_" width="194" height="213"/>
			</defs>
			<clipPath id="SVGID_20_">
				<use xlink:href="#SVGID_19_" overflow="visible"/>
			</clipPath>
			<rect x="79.899" y="103.738" clip-path="url(#SVGID_20_)" fill="#EF3E58" width="36.866" height="46.898"/>
		</g>
	</g>
</g>
<g>
	<g>
		<defs>
			<path id="SVGID_21_" d="M135.418,108.738h-18.937c-0.196,0-0.356,0.16-0.356,0.357v26.259c0,0.195,0.16,0.355,0.356,0.355h6.396     c0.195,0,0.356-0.16,0.356-0.355v-20.332h9.887c0.145,0,0.273-0.084,0.328-0.215c0.752-1.775,1.524-3.653,2.299-5.579     c0.043-0.108,0.029-0.234-0.033-0.329C135.647,108.8,135.533,108.738,135.418,108.738"/>
		</defs>
		<clipPath id="SVGID_22_">
			<use xlink:href="#SVGID_21_" overflow="visible"/>
		</clipPath>
		<g clip-path="url(#SVGID_22_)">
			<defs>
				<rect id="SVGID_23_" width="194" height="213"/>
			</defs>
			<clipPath id="SVGID_24_">
				<use xlink:href="#SVGID_23_" overflow="visible"/>
			</clipPath>
			<rect x="111.125" y="103.738" clip-path="url(#SVGID_24_)" fill="#EF3E58" width="29.647" height="36.972"/>
		</g>
	</g>
</g>
<g>
	<g>
		<defs>
			<path id="SVGID_25_" d="M34.799,68.338c-9.238,0-12.839,3.961-12.839,14.127c0,10.316,3.601,14.333,12.839,14.333     c9.316,0,12.943-4.018,12.943-14.333C47.743,72.3,44.115,68.338,34.799,68.338 M34.799,90.881c-4.211,0-5.523-1.146-5.523-8.309     c0-7.631,1.431-8.313,5.523-8.313c4.168,0,5.626,0.682,5.626,8.313C40.426,89.735,39.089,90.881,34.799,90.881"/>
		</defs>
		<clipPath id="SVGID_26_">
			<use xlink:href="#SVGID_25_" overflow="visible"/>
		</clipPath>
		<g clip-path="url(#SVGID_26_)">
			<defs>
				<rect id="SVGID_27_" width="194" height="213"/>
			</defs>
			<clipPath id="SVGID_28_">
				<use xlink:href="#SVGID_27_" overflow="visible"/>
			</clipPath>
			<rect x="16.96" y="63.338" clip-path="url(#SVGID_28_)" fill="#0F67B1" width="35.782" height="38.46"/>
		</g>
	</g>
</g>
<g>
	<g>
		<defs>
			<path id="SVGID_29_" d="M73.264,89.799c-0.033-0.089-0.098-0.163-0.186-0.2c-0.087-0.042-0.185-0.044-0.274-0.011     c-1.561,0.575-4.488,1.046-6.521,1.046c-4.461,0-6.584-1.202-6.584-8.043c0-5.469,0.65-8.042,6.584-8.042     c1.68,0,3.244,0.245,5.226,0.817c0.161,0.044,0.333-0.027,0.414-0.175c0.743-1.393,1.636-3.094,2.645-5.18     c0.046-0.091,0.049-0.202,0.006-0.296c-0.041-0.092-0.121-0.167-0.217-0.199c-2.627-0.833-5.739-1.316-8.545-1.316     c-9.339,0-13.502,4.407-13.502,14.287c0,10.026,4.163,14.495,13.502,14.495c2.341,0,6.954-0.491,9.179-1.381     c0.179-0.071,0.268-0.269,0.202-0.454L73.264,89.799"/>
		</defs>
		<clipPath id="SVGID_30_">
			<use xlink:href="#SVGID_29_" overflow="visible"/>
		</clipPath>
		<g clip-path="url(#SVGID_30_)">
			<defs>
				<rect id="SVGID_31_" width="194" height="213"/>
			</defs>
			<clipPath id="SVGID_32_">
				<use xlink:href="#SVGID_31_" overflow="visible"/>
			</clipPath>
			<rect x="47.31" y="63.2" clip-path="url(#SVGID_32_)" fill="#0F67B1" width="32.905" height="38.781"/>
		</g>
	</g>
</g>
<g>
	<g>
		<defs>
			<path id="SVGID_33_" d="M20.002,69.108H1.067c-0.197,0-0.356,0.161-0.356,0.359v26.258c0,0.195,0.16,0.355,0.356,0.355h6.394     c0.199,0,0.358-0.16,0.358-0.355V75.394h9.888c0.144,0,0.27-0.085,0.327-0.215c0.751-1.776,1.526-3.654,2.298-5.579     c0.045-0.109,0.031-0.235-0.036-0.33C20.231,69.171,20.122,69.108,20.002,69.108"/>
		</defs>
		<clipPath id="SVGID_34_">
			<use xlink:href="#SVGID_33_" overflow="visible"/>
		</clipPath>
		<g clip-path="url(#SVGID_34_)">
			<defs>
				<rect id="SVGID_35_" width="194" height="213"/>
			</defs>
			<clipPath id="SVGID_36_">
				<use xlink:href="#SVGID_35_" overflow="visible"/>
			</clipPath>
			<rect x="-4.29" y="64.108" clip-path="url(#SVGID_36_)" fill="#0F67B1" width="29.648" height="36.973"/>
		</g>
	</g>
</g>
<linearGradient id="SVGID_37_" gradientUnits="userSpaceOnUse" x1="100.5176" y1="0.876" x2="100.5176" y2="212.9604">
	<stop offset="0.3979" style="stop-color:#1466AC"/>
	<stop offset="0.6586" style="stop-color:#EF4058"/>
</linearGradient>
<path fill-rule="evenodd" clip-rule="evenodd" fill="url(#SVGID_37_)" d="M192.73,132.974c0.009-0.131,0.019-0.263,0.028-0.396  c0.017-0.234,0.033-0.474,0.05-0.716c0.255-3.667,0.516-8.238,0.689-13.356c0.005-0.139,0.01-0.277,0.014-0.415  c0.115-3.513,0.188-7.274,0.188-11.172c0-3.898-0.072-7.659-0.188-11.172c-0.004-0.139-0.009-0.277-0.014-0.415  c-0.174-5.119-0.435-9.69-0.689-13.356c-0.017-0.243-0.033-0.481-0.05-0.716c-0.01-0.133-0.02-0.266-0.028-0.396  c-0.027-0.375-0.055-0.737-0.081-1.089c-0.012-0.151-0.022-0.299-0.034-0.446c-0.297-3.875-0.546-6.265-0.571-6.51  c-0.04-0.375-0.087-0.753-0.14-1.134c-0.014-0.093-0.03-0.187-0.044-0.281c-0.1-0.67-0.217-1.347-0.357-2.031  c-0.021-0.097-0.044-0.195-0.064-0.292c-1.731-8.104-6.234-17-11.842-23.731c-2.162-2.596-4.488-4.871-6.882-6.654  c-0.237-0.177-3-2.229-7.445-5.292c-5.105-3.519-12.431-8.37-20.699-13.243c-14.728-8.67-27.904-14.735-29.636-15.523  c-0.002,0-0.003-0.001-0.005-0.002c-0.006-0.003-0.012-0.005-0.019-0.008c-0.071-0.033-0.122-0.056-0.147-0.067l0,0  c-0.001,0-0.003-0.001-0.003-0.001c-3.873-1.746-8.624-2.912-13.747-3.41c-0.978-0.095-1.967-0.168-2.969-0.213  c-0.893-0.041-1.794-0.061-2.7-0.061c-0.453,0-0.905,0.005-1.355,0.016c-6.751,0.152-13.12,1.441-18.06,3.668  c-0.006,0.002-0.015,0.006-0.022,0.01c-0.785,0.355-14.126,6.418-29.245,15.277h0.011c-0.185,0.108-0.368,0.216-0.553,0.325  c-15.467,9.106-27.634,18.145-28.145,18.525c-3.803,2.833-7.183,6.407-10.259,11.042c-0.68,1.024-0.744,3.648,2.296,3.648h7.656  c3.303,0,4.083-2.009,7.774-4.667c4.128-2.971,12.162-9.03,27.019-17.778C63.165,24.64,73.185,19.689,78.03,17.377  c0.013-0.006,0.026-0.012,0.039-0.019c0.087-0.042,0.174-0.083,0.258-0.123c0.037-0.018,0.075-0.036,0.112-0.053  c0.049-0.023,0.098-0.047,0.146-0.07c0.081-0.038,0.161-0.076,0.238-0.112c0.003-0.001,0.006-0.003,0.009-0.004  c0.086-0.041,0.17-0.081,0.252-0.119c0.001,0,0.001-0.001,0.002-0.001c1.246-0.587,1.952-0.908,1.982-0.921  c3.409-1.537,8.196-2.459,13.261-2.568c0.337-0.007,0.676-0.011,1.017-0.011c0.34,0,0.678,0.004,1.016,0.011  c1.497,0.032,2.967,0.138,4.387,0.307c3.064,0.365,5.886,1.034,8.175,1.962c0.238,0.096,0.471,0.196,0.698,0.298  c0.013,0.005,0.139,0.063,0.367,0.168c2.265,1.042,14.736,6.866,28.238,14.819c7.957,4.685,15.105,9.424,20.049,12.83  c4.288,2.957,6.918,4.911,6.974,4.952c1.9,1.415,3.797,3.371,5.562,5.641c4.51,5.802,8.158,13.654,8.802,19.763  c0.007,0.061,0.264,2.537,0.569,6.61c0.021,0.269,0.04,0.544,0.061,0.826c0.015,0.191,0.028,0.385,0.042,0.582  c0.025,0.352,0.051,0.714,0.076,1.085c0.009,0.144,0.02,0.288,0.028,0.433c0.017,0.244,0.033,0.491,0.05,0.742  c0.031,0.488,0.062,0.988,0.094,1.501c0.019,0.312,0.038,0.627,0.057,0.948c0.004,0.078,0.009,0.156,0.014,0.233  c0.021,0.364,0.041,0.732,0.062,1.107c0.015,0.26,0.029,0.523,0.043,0.789c0.274,5.211,0.492,11.406,0.492,17.933  s-0.218,12.722-0.492,17.933c-0.014,0.266-0.028,0.529-0.043,0.789c-0.021,0.374-0.041,0.743-0.062,1.106  c-0.005,0.078-0.01,0.156-0.014,0.233c-0.019,0.321-0.038,0.637-0.057,0.948c-0.031,0.515-0.062,1.015-0.094,1.501  c-0.017,0.251-0.033,0.499-0.05,0.743c-0.009,0.146-0.02,0.29-0.028,0.433c-0.025,0.371-0.051,0.733-0.076,1.086  c-0.014,0.196-0.027,0.39-0.042,0.581c-0.021,0.281-0.04,0.557-0.061,0.825c-0.306,4.074-0.562,6.551-0.569,6.61  c-0.644,6.11-4.292,13.962-8.802,19.764c-1.765,2.27-3.661,4.227-5.562,5.642c-0.056,0.041-2.686,1.995-6.974,4.951  c-4.943,3.406-12.092,8.146-20.049,12.83c-13.502,7.954-25.974,13.778-28.238,14.819c-0.229,0.105-0.354,0.163-0.367,0.169  c-0.228,0.103-0.46,0.201-0.698,0.298c-2.289,0.928-5.11,1.597-8.175,1.962c-1.42,0.169-2.89,0.274-4.387,0.307  c-0.338,0.008-0.676,0.012-1.016,0.012c-0.34,0-0.679-0.004-1.017-0.012c-5.065-0.108-9.852-1.031-13.261-2.567  c-0.03-0.014-0.737-0.334-1.982-0.922c-0.014-0.007-0.027-0.013-0.041-0.019c-0.131-0.062-0.267-0.127-0.41-0.194  c-0.014-0.007-0.03-0.014-0.044-0.021c-0.108-0.051-0.222-0.105-0.337-0.159c-0.06-0.029-0.12-0.058-0.181-0.087  c-0.091-0.044-0.186-0.089-0.281-0.135c-0.121-0.058-0.244-0.116-0.371-0.178c-0.027-0.013-0.054-0.025-0.081-0.038  c-5.064-2.433-14.659-7.218-24.875-13.234c-14.857-8.748-22.891-14.807-27.019-17.778c-3.692-2.657-4.471-4.666-7.774-4.666h-7.656  c-3.041,0-2.976,2.623-2.296,3.647c3.076,4.636,6.457,8.21,10.259,11.043c0.51,0.38,12.678,9.418,28.145,18.524  c0.825,0.486,1.645,0.964,2.458,1.433h-0.011c14.31,8.248,26.574,13.823,27.338,14.168c0.008,0.004,0.018,0.009,0.023,0.012  c4.94,2.227,11.309,3.516,18.06,3.668c0.45,0.01,0.902,0.016,1.355,0.016c0.906,0,1.807-0.021,2.7-0.061  c1.002-0.046,1.991-0.119,2.969-0.214c5.123-0.497,9.874-1.664,13.747-3.409c0,0,0.002-0.001,0.003-0.002l0,0  c0.025-0.012,0.076-0.034,0.147-0.067c0.007-0.003,0.013-0.005,0.019-0.008c0.002-0.001,0.003-0.002,0.005-0.002  c1.731-0.788,14.908-6.854,29.636-15.523c8.269-4.873,15.594-9.724,20.699-13.243c4.445-3.062,7.208-5.114,7.445-5.291  c2.394-1.783,4.72-4.058,6.882-6.653c5.607-6.731,10.11-15.627,11.842-23.731c0.021-0.097,0.044-0.195,0.064-0.291  c0.141-0.685,0.258-1.361,0.357-2.032c0.014-0.093,0.03-0.187,0.044-0.279c0.053-0.381,0.1-0.76,0.14-1.135  c0.025-0.244,0.274-2.634,0.571-6.51c0.012-0.146,0.022-0.295,0.034-0.445C192.676,133.711,192.703,133.348,192.73,132.974"/>
</svg>