<svg xmlns="http://www.w3.org/2000/svg" xmlns:xlink="http://www.w3.org/1999/xlink" preserveAspectRatio="xMidYMid" width="65" height="65" viewBox="0 0 65 65">
  <defs>
    <style>

      .cls-3 {
        fill: #edc951;
      }

      .cls-5 {
        fill: #53ecf4;
      }

      .cls-6 {
        fill: #ff917b;
      }

      .cls-7 {
        fill: #000000;
      }
    </style>
  </defs>
  <g id="group-12svg">
    <path d="M54.947,23.955 C54.947,23.955 44.274,13.275 44.274,13.275 C44.274,13.275 52.641,4.902 52.641,4.902 C54.497,3.046 57.533,3.046 59.388,4.902 C59.388,4.902 63.367,8.884 63.367,8.884 C65.193,10.712 65.193,13.702 63.367,15.530 C63.367,15.530 54.947,23.955 54.947,23.955 Z" id="path-1" class="cls-3" fill-rule="evenodd"/>
    <path d="M36.804,20.751 C36.804,20.751 47.476,31.431 47.476,31.431 C47.476,31.431 21.201,57.725 21.201,57.725 C18.434,60.494 7.779,49.796 10.569,47.004 C10.569,47.004 36.804,20.751 36.804,20.751 Z" id="path-2" class="cls-3" fill-rule="evenodd"/>
    <path d="M33.602,17.547 C33.602,17.547 50.678,34.635 50.678,34.635 C50.678,34.635 58.149,27.159 58.149,27.159 C58.149,27.159 41.073,10.071 41.073,10.071 C41.073,10.071 33.602,17.547 33.602,17.547 Z" id="path-3" class="cls-5" fill-rule="evenodd"/>
    <path d="M10.122,51.724 C10.122,51.724 5.688,56.160 5.688,56.160 C3.993,57.857 4.162,60.712 5.858,62.410 C5.858,62.410 5.912,62.463 5.912,62.463 C7.582,64.135 10.375,64.287 12.045,62.615 C12.045,62.615 16.525,58.132 16.525,58.132 C16.525,58.132 10.122,51.724 10.122,51.724 Z" id="path-4" class="cls-6" fill-rule="evenodd"/>
    <path d="M51.947,23.455 C51.563,23.455 51.180,23.308 50.887,23.015 C50.887,23.015 40.214,12.335 40.214,12.335 C39.933,12.053 39.774,11.671 39.774,11.274 C39.774,10.875 39.933,10.494 40.214,10.212 C40.214,10.212 48.580,1.840 48.580,1.840 C49.761,0.658 51.336,0.007 53.015,0.007 C54.693,0.007 56.268,0.658 57.449,1.840 C57.449,1.840 61.428,5.821 61.428,5.821 C63.843,8.239 63.843,12.172 61.428,14.589 C61.428,14.589 53.008,23.015 53.008,23.015 C52.715,23.308 52.331,23.455 51.947,23.455 ZM43.395,11.274 C43.395,11.274 51.947,19.831 51.947,19.831 C51.947,19.831 59.307,12.467 59.307,12.467 C60.552,11.220 60.552,9.191 59.307,7.944 C59.307,7.944 55.328,3.963 55.328,3.963 C54.099,2.733 51.930,2.733 50.701,3.963 C50.701,3.963 43.395,11.274 43.395,11.274 Z" id="path-5" class="cls-7" fill-rule="evenodd"/>
    <path d="M6.130,63.295 C6.130,63.295 6.130,63.295 6.130,63.295 C4.536,63.295 2.976,62.649 1.851,61.523 C0.714,60.385 0.060,58.880 0.002,57.339 C-0.058,55.714 0.519,54.207 1.628,53.097 C1.628,53.097 6.061,48.661 6.061,48.661 C6.624,48.098 7.620,48.098 8.182,48.661 C8.182,48.661 14.586,55.069 14.586,55.069 C14.867,55.351 15.025,55.733 15.025,56.131 C15.025,56.529 14.867,56.911 14.586,57.192 C14.586,57.192 10.106,61.675 10.106,61.675 C9.062,62.720 7.650,63.295 6.130,63.295 ZM7.122,51.845 C7.122,51.845 3.749,55.220 3.749,55.220 C3.237,55.733 2.971,56.445 3.000,57.227 C3.030,58.020 3.365,58.792 3.919,59.347 C5.092,60.522 6.972,60.564 7.985,59.552 C7.985,59.552 11.404,56.131 11.404,56.131 C11.404,56.131 7.122,51.845 7.122,51.845 Z" id="path-6" class="cls-7" fill-rule="evenodd"/>
    <path d="M16.993,57.679 C13.422,57.679 7.737,52.376 6.099,48.419 C5.063,45.916 5.911,44.539 6.509,43.941 C6.509,43.941 32.743,17.688 32.743,17.688 C33.329,17.102 34.278,17.102 34.864,17.688 C34.864,17.688 45.537,28.369 45.537,28.369 C45.818,28.650 45.977,29.032 45.977,29.430 C45.977,29.828 45.818,30.210 45.537,30.491 C45.537,30.491 19.262,56.785 19.262,56.785 C18.678,57.370 17.893,57.679 16.993,57.679 ZM33.804,20.873 C33.804,20.873 8.630,46.064 8.630,46.064 C8.578,46.160 8.543,46.858 9.378,48.266 C11.299,51.507 15.362,54.676 16.993,54.676 C17.105,54.676 17.148,54.657 17.148,54.657 C17.148,54.657 42.355,29.430 42.355,29.430 C42.355,29.430 33.804,20.873 33.804,20.873 Z" id="path-7" class="cls-7" fill-rule="evenodd"/>
    <path d="M47.678,34.135 C47.280,34.135 46.899,33.977 46.618,33.695 C46.618,33.695 29.541,16.607 29.541,16.607 C28.956,16.021 28.956,15.070 29.541,14.484 C29.541,14.484 37.012,7.008 37.012,7.008 C37.575,6.445 38.571,6.445 39.133,7.008 C39.133,7.008 56.209,24.096 56.209,24.096 C56.795,24.682 56.795,25.633 56.209,26.219 C56.209,26.219 48.739,33.695 48.739,33.695 C48.457,33.977 48.076,34.135 47.678,34.135 ZM32.723,15.546 C32.723,15.546 47.678,30.511 47.678,30.511 C47.678,30.511 53.028,25.158 53.028,25.158 C53.028,25.158 38.073,10.192 38.073,10.192 C38.073,10.192 32.723,15.546 32.723,15.546 Z" id="path-8" class="cls-7" fill-rule="evenodd"/>
  </g>
</svg>
