<svg xmlns="http://www.w3.org/2000/svg" xmlns:xlink="http://www.w3.org/1999/xlink" preserveAspectRatio="xMidYMid" width="63" height="63" viewBox="0 0 63 63">
  <defs>
    <style>

      .cls-3 {
        fill: #81bda4;
      }

      .cls-5 {
        fill: #e56a77;
      }
    </style>
  </defs>
  <g id="group-31svg">
    <path d="M2.632,56.589 C2.297,56.589 1.960,56.477 1.681,56.248 C1.040,55.722 0.948,54.776 1.474,54.135 C1.474,54.135 17.252,34.917 17.252,34.917 C17.972,34.097 18.963,33.633 20.004,33.609 C21.078,33.585 22.059,33.998 22.783,34.747 C22.783,34.747 36.274,48.683 36.274,48.683 C36.507,48.923 36.777,48.922 36.921,48.900 C37.063,48.879 37.323,48.797 37.473,48.498 C37.473,48.498 45.072,33.288 45.072,33.288 C45.697,32.037 46.954,31.243 48.353,31.218 C49.709,31.187 51.036,31.941 51.706,33.170 C51.706,33.170 61.426,51.002 61.426,51.002 C61.823,51.730 61.555,52.642 60.828,53.039 C60.101,53.436 59.189,53.168 58.793,52.440 C58.793,52.440 49.072,34.607 49.072,34.607 C48.877,34.249 48.515,34.217 48.406,34.220 C48.271,34.222 47.937,34.267 47.756,34.630 C47.756,34.630 40.156,49.840 40.156,49.840 C39.614,50.925 38.575,51.683 37.378,51.868 C36.182,52.051 34.963,51.643 34.120,50.772 C34.120,50.772 20.629,36.835 20.629,36.835 C20.430,36.631 20.181,36.609 20.077,36.610 C19.955,36.613 19.724,36.649 19.537,36.861 C19.537,36.861 3.792,56.041 3.792,56.041 C3.495,56.402 3.065,56.589 2.632,56.589 Z" id="path-1" class="cls-3" fill-rule="evenodd"/>
    <path d="M46.859,48.525 C46.816,48.525 46.773,48.524 46.730,48.523 C45.186,48.471 43.851,47.496 43.331,46.039 C43.302,45.958 43.279,45.874 43.265,45.789 C43.265,45.789 39.559,24.265 39.559,24.265 C39.411,23.966 39.136,23.890 39.017,23.870 C38.886,23.850 38.557,23.835 38.312,24.146 C38.312,24.146 22.735,44.026 22.735,44.026 C21.537,45.555 19.402,45.916 17.768,44.867 C17.768,44.867 1.666,33.883 1.666,33.883 C0.981,33.415 0.805,32.482 1.271,31.797 C1.737,31.111 2.671,30.935 3.355,31.402 C3.355,31.402 19.423,42.364 19.423,42.364 C19.712,42.549 20.136,42.477 20.374,42.174 C20.374,42.174 35.951,22.293 35.951,22.293 C36.793,21.219 38.145,20.688 39.498,20.907 C40.844,21.126 41.964,22.060 42.423,23.344 C42.451,23.426 42.474,23.510 42.488,23.595 C42.488,23.595 46.194,45.120 46.194,45.120 C46.364,45.467 46.690,45.518 46.831,45.522 C46.978,45.527 47.355,45.495 47.538,45.075 C47.538,45.075 58.722,17.764 58.722,17.764 C59.035,16.997 59.915,16.630 60.678,16.944 C61.444,17.259 61.811,18.135 61.497,18.902 C61.497,18.902 50.301,46.243 50.301,46.243 C49.689,47.651 48.353,48.525 46.859,48.525 Z" id="path-2" class="cls-3" fill-rule="evenodd"/>
    <path d="M61.000,62.535 C61.000,62.535 10.482,62.535 10.482,62.535 C4.507,62.535 -0.000,58.248 -0.000,52.563 C-0.000,52.563 -0.000,1.492 -0.000,1.492 C-0.000,0.662 0.672,-0.010 1.500,-0.010 C2.328,-0.010 3.000,0.662 3.000,1.492 C3.000,1.492 3.000,52.563 3.000,52.563 C3.000,56.536 6.217,59.533 10.482,59.533 C10.482,59.533 61.000,59.533 61.000,59.533 C61.828,59.533 62.500,60.204 62.500,61.034 C62.500,61.863 61.828,62.535 61.000,62.535 Z" id="path-3" class="cls-5" fill-rule="evenodd"/>
  </g>
</svg>
