<svg xmlns="http://www.w3.org/2000/svg" xmlns:xlink="http://www.w3.org/1999/xlink" preserveAspectRatio="xMidYMid" width="66" height="64" viewBox="0 0 66 64">
  <defs>
    <style>

      .cls-3 {
        fill: #81bda4;
      }

      .cls-4 {
        fill: #edc951;
      }

      .cls-5 {
        fill: #000000;
      }
    </style>
  </defs>
  <g id="group-2svg">
    <path d="M47.423,61.152 C47.423,61.152 36.598,54.980 36.598,54.980 C36.598,54.980 30.911,60.670 30.911,60.670 C27.680,63.904 21.819,62.986 19.867,58.852 C19.336,57.728 5.493,9.576 5.493,9.576 C5.493,7.648 16.729,16.366 17.984,15.095 C19.240,13.823 10.472,2.523 12.398,2.523 C12.398,2.523 60.442,16.449 61.464,16.875 C65.780,18.675 66.864,24.692 63.558,28.001 C63.558,28.001 57.579,33.984 57.579,33.984 C57.579,33.984 63.747,44.816 63.747,44.816 C65.112,47.148 64.302,49.676 62.392,51.587 C62.392,51.587 54.189,59.796 54.189,59.796 C52.279,61.707 49.752,62.518 47.423,61.152 Z" id="path-1" class="cls-3" fill-rule="evenodd"/>
    <path d="M38.517,26.981 C40.979,29.445 40.979,33.440 38.517,35.904 C36.055,38.368 32.062,38.368 29.600,35.904 C27.138,33.440 27.138,29.445 29.600,26.981 C32.062,24.516 36.055,24.516 38.517,26.981 Z" id="path-2" class="cls-4" fill-rule="evenodd"/>
    <path d="M22.084,63.119 C18.810,63.119 15.838,61.303 14.511,58.493 C13.971,57.348 3.307,20.314 0.051,8.990 C0.012,8.855 -0.007,8.716 -0.007,8.575 C-0.007,7.560 0.774,6.794 1.811,6.794 C2.918,6.794 4.447,7.646 7.930,9.735 C9.059,10.413 10.659,11.373 11.906,12.020 C11.251,10.761 10.277,9.141 9.591,7.999 C6.949,3.606 6.147,2.156 6.857,0.900 C7.235,0.231 8.052,-0.141 8.816,0.080 C16.852,2.409 56.994,14.052 58.041,14.489 C60.496,15.513 62.284,17.758 62.825,20.496 C63.378,23.297 62.553,26.125 60.618,28.061 C60.618,28.061 55.449,33.235 55.449,33.235 C55.449,33.235 61.050,43.073 61.050,43.073 C62.636,45.780 62.027,49.072 59.453,51.648 C59.453,51.648 51.249,59.857 51.249,59.857 C48.709,62.399 45.363,63.029 42.664,61.446 C42.664,61.446 32.849,55.850 32.849,55.850 C32.849,55.850 27.972,60.731 27.972,60.731 C26.433,62.271 24.342,63.119 22.084,63.119 ZM3.669,10.715 C9.104,29.602 16.724,55.921 17.246,57.262 C18.057,58.976 19.965,60.117 22.084,60.117 C23.541,60.117 24.878,59.581 25.851,58.608 C25.851,58.608 31.537,52.918 31.537,52.918 C32.014,52.440 32.752,52.340 33.340,52.675 C33.340,52.675 44.165,58.846 44.165,58.846 C45.763,59.783 47.553,59.310 49.128,57.734 C49.128,57.734 57.332,49.525 57.332,49.525 C58.094,48.763 59.728,46.753 58.453,44.575 C58.453,44.575 52.276,33.726 52.276,33.726 C51.941,33.138 52.040,32.399 52.519,31.922 C52.519,31.922 58.497,25.939 58.497,25.939 C59.723,24.712 60.241,22.895 59.882,21.078 C59.536,19.325 58.416,17.897 56.887,17.260 C55.636,16.805 25.118,7.934 10.548,3.708 C11.053,4.607 11.671,5.635 12.162,6.451 C15.174,11.462 16.447,13.736 15.051,15.149 C14.793,15.410 14.331,15.722 13.593,15.722 C12.147,15.722 9.913,14.426 6.387,12.310 C5.579,11.825 4.561,11.214 3.669,10.715 Z" id="path-3" class="cls-5" fill-rule="evenodd"/>
    <path d="M27.700,60.381 C27.316,60.381 26.933,60.235 26.640,59.941 C26.054,59.355 26.054,58.405 26.640,57.819 C26.640,57.819 57.445,26.991 57.445,26.991 C58.031,26.405 58.980,26.405 59.566,26.991 C60.152,27.578 60.152,28.528 59.566,29.114 C59.566,29.114 28.761,59.941 28.761,59.941 C28.468,60.235 28.084,60.381 27.700,60.381 Z" id="path-4" class="cls-5" fill-rule="evenodd"/>
    <path d="M24.900,26.751 C24.516,26.751 24.132,26.605 23.839,26.312 C23.839,26.312 13.571,16.036 13.571,16.036 C12.985,15.450 12.985,14.500 13.571,13.913 C14.157,13.327 15.106,13.327 15.692,13.913 C15.692,13.913 25.960,24.189 25.960,24.189 C26.546,24.775 26.546,25.726 25.960,26.312 C25.667,26.605 25.284,26.751 24.900,26.751 Z" id="path-5" class="cls-5" fill-rule="evenodd"/>
    <path d="M30.059,38.253 C27.974,38.253 26.014,37.440 24.540,35.965 C21.496,32.919 21.496,27.964 24.540,24.919 C26.014,23.443 27.974,22.631 30.059,22.631 C32.144,22.631 34.103,23.443 35.578,24.919 C38.621,27.964 38.621,32.919 35.578,35.965 C34.103,37.440 32.144,38.253 30.059,38.253 ZM30.059,25.633 C28.775,25.633 27.568,26.133 26.661,27.041 C24.787,28.917 24.787,31.967 26.661,33.842 C27.568,34.750 28.775,35.251 30.059,35.251 C31.342,35.251 32.549,34.750 33.457,33.842 C35.330,31.967 35.330,28.917 33.457,27.041 C32.549,26.133 31.342,25.633 30.059,25.633 Z" id="path-6" class="cls-5" fill-rule="evenodd"/>
  </g>
</svg>
