<svg xmlns="http://www.w3.org/2000/svg" xmlns:xlink="http://www.w3.org/1999/xlink" preserveAspectRatio="xMidYMid" width="41" height="64" viewBox="0 0 41 64">
  <defs>
    <style>

      .cls-3 {
        fill: #ff917b;
      }

      .cls-4 {
        fill: #000000;
      }
    </style>
  </defs>
  <g id="group-22svg">
    <path d="M19.124,31.012 C11.682,31.012 5.493,24.504 5.493,17.002 C5.493,9.501 11.566,2.992 19.008,2.992 C19.008,2.992 24.281,2.992 24.281,2.992 C24.281,2.992 24.281,31.012 24.281,31.012 C24.281,31.012 19.124,31.012 19.124,31.012 Z" id="path-1" class="cls-3" fill-rule="evenodd"/>
    <path d="M39.781,63.535 C38.953,63.535 38.281,62.863 38.281,62.034 C38.281,62.034 38.281,9.502 38.281,9.502 C38.281,6.358 36.031,2.992 32.682,2.992 C32.682,2.992 21.281,2.992 21.281,2.992 C21.281,2.992 21.281,62.034 21.281,62.034 C21.281,62.863 20.610,63.535 19.781,63.535 C18.953,63.535 18.281,62.863 18.281,62.034 C18.281,62.034 18.281,1.491 18.281,1.491 C18.281,0.662 18.953,-0.010 19.781,-0.010 C19.781,-0.010 32.682,-0.010 32.682,-0.010 C37.424,-0.010 41.281,4.257 41.281,9.502 C41.281,9.502 41.281,62.034 41.281,62.034 C41.281,62.863 40.610,63.535 39.781,63.535 Z" id="path-2" class="cls-4" fill-rule="evenodd"/>
    <path d="M19.281,31.012 C19.281,31.012 15.124,31.012 15.124,31.012 C6.922,31.012 -0.007,23.909 -0.007,15.501 C-0.007,7.093 6.869,-0.010 15.008,-0.010 C15.008,-0.010 20.281,-0.010 20.281,-0.010 C21.110,-0.010 21.781,0.662 21.781,1.491 C21.781,2.320 21.110,2.992 20.281,2.992 C20.281,2.992 15.008,2.992 15.008,2.992 C8.495,2.992 2.993,8.720 2.993,15.501 C2.993,22.282 8.548,28.010 15.124,28.010 C15.124,28.010 19.281,28.010 19.281,28.010 C20.110,28.010 20.781,28.682 20.781,29.511 C20.781,30.340 20.110,31.012 19.281,31.012 Z" id="path-3" class="cls-4" fill-rule="evenodd"/>
  </g>
</svg>
