<svg xmlns="http://www.w3.org/2000/svg" xmlns:xlink="http://www.w3.org/1999/xlink" preserveAspectRatio="xMidYMid" width="57" height="64" viewBox="0 0 57 64">
  <defs>
    <style>

      .cls-3 {
        fill: #e56a77;
      }

      .cls-11 {
        fill: #edc951;
      }

      .cls-15 {
        fill: #000000;
      }
    </style>
  </defs>
  <g id="group-36svg">
    <path d="M54.500,27.507 C53.672,27.507 53.000,26.834 53.000,26.005 C53.000,26.005 53.000,13.325 53.000,13.325 C53.000,11.334 52.150,9.244 50.836,7.998 C50.234,7.428 50.208,6.478 50.778,5.876 C51.349,5.274 52.297,5.248 52.898,5.818 C54.811,7.631 56.000,10.507 56.000,13.325 C56.000,13.325 56.000,26.005 56.000,26.005 C56.000,26.834 55.328,27.507 54.500,27.507 Z" id="path-1" class="cls-3" fill-rule="evenodd"/>
    <path d="M49.405,6.416 C49.249,6.416 49.091,6.391 48.935,6.340 C48.935,6.340 48.797,6.294 48.797,6.294 C48.097,6.062 47.886,5.991 47.255,5.991 C47.255,5.991 33.000,5.991 33.000,5.991 C32.172,5.991 31.500,5.319 31.500,4.490 C31.500,3.661 32.172,2.989 33.000,2.989 C33.000,2.989 47.255,2.989 47.255,2.989 C48.370,2.989 48.945,3.180 49.742,3.445 C49.742,3.445 49.876,3.490 49.876,3.490 C50.663,3.750 51.090,4.599 50.829,5.386 C50.621,6.017 50.035,6.416 49.405,6.416 Z" id="path-2" class="cls-3" fill-rule="evenodd"/>
    <path d="M8.030,6.580 C7.434,6.580 6.868,6.220 6.636,5.631 C6.331,4.860 6.708,3.988 7.478,3.683 C8.770,3.171 10.385,2.989 11.466,2.989 C11.466,2.989 23.000,2.989 23.000,2.989 C23.828,2.989 24.500,3.661 24.500,4.490 C24.500,5.319 23.828,5.991 23.000,5.991 C23.000,5.991 11.466,5.991 11.466,5.991 C10.486,5.991 9.301,6.190 8.582,6.474 C8.401,6.546 8.214,6.580 8.030,6.580 Z" id="path-3" class="cls-3" fill-rule="evenodd"/>
    <path d="M2.500,27.507 C1.672,27.507 1.000,26.835 1.000,26.005 C1.000,26.005 1.000,13.325 1.000,13.325 C1.000,11.137 1.695,8.863 2.860,7.241 C3.346,6.567 4.283,6.415 4.953,6.898 C5.626,7.382 5.779,8.320 5.296,8.992 C4.497,10.106 4.000,11.766 4.000,13.325 C4.000,13.325 4.000,26.005 4.000,26.005 C4.000,26.835 3.328,27.507 2.500,27.507 Z" id="path-4" class="cls-3" fill-rule="evenodd"/>
    <path d="M5.133,57.098 C4.763,57.098 4.392,56.962 4.101,56.687 C2.072,54.764 1.000,52.337 1.000,49.667 C1.000,49.667 1.000,36.013 1.000,36.013 C1.000,35.183 1.672,34.511 2.500,34.511 C3.328,34.511 4.000,35.183 4.000,36.013 C4.000,36.013 4.000,49.667 4.000,49.667 C4.000,51.518 4.729,53.146 6.164,54.507 C6.766,55.077 6.792,56.027 6.222,56.629 C5.927,56.940 5.530,57.098 5.133,57.098 Z" id="path-5" class="cls-3" fill-rule="evenodd"/>
    <path d="M24.000,59.029 C24.000,59.029 11.466,59.029 11.466,59.029 C10.557,59.029 9.100,58.898 7.984,58.529 C7.197,58.269 6.770,57.419 7.031,56.632 C7.291,55.845 8.139,55.418 8.926,55.678 C9.536,55.880 10.604,56.027 11.466,56.027 C11.466,56.027 24.000,56.027 24.000,56.027 C24.828,56.027 25.500,56.699 25.500,57.528 C25.500,58.357 24.828,59.029 24.000,59.029 Z" id="path-6" class="cls-3" fill-rule="evenodd"/>
    <path d="M47.255,59.029 C47.255,59.029 34.000,59.029 34.000,59.029 C33.172,59.029 32.500,58.357 32.500,57.528 C32.500,56.699 33.172,56.027 34.000,56.027 C34.000,56.027 47.255,56.027 47.255,56.027 C48.059,56.027 48.362,55.906 49.267,55.548 C49.267,55.548 50.370,58.340 50.370,58.340 C49.360,58.740 48.630,59.029 47.255,59.029 Z" id="path-7" class="cls-3" fill-rule="evenodd"/>
    <path d="M52.921,56.416 C52.617,56.416 52.312,56.324 52.047,56.134 C51.374,55.650 51.221,54.712 51.704,54.039 C52.625,52.756 53.000,52.097 53.000,50.720 C53.000,50.720 53.000,36.013 53.000,36.013 C53.000,35.183 53.672,34.511 54.500,34.511 C55.328,34.511 56.000,35.183 56.000,36.013 C56.000,36.013 56.000,50.720 56.000,50.720 C56.000,53.018 55.193,54.323 54.140,55.791 C53.847,56.199 53.387,56.416 52.921,56.416 Z" id="path-8" class="cls-3" fill-rule="evenodd"/>
    <path d="M57.000,7.993 C57.000,7.993 52.000,7.993 52.000,7.993 C52.000,7.993 52.000,2.989 52.000,2.989 C52.000,2.989 57.000,2.989 57.000,2.989 C57.000,2.989 57.000,7.993 57.000,7.993 Z" id="path-9" class="cls-11" fill-rule="evenodd"/>
    <path d="M9.000,7.993 C9.000,7.993 4.000,7.993 4.000,7.993 C4.000,7.993 4.000,2.989 4.000,2.989 C4.000,2.989 9.000,2.989 9.000,2.989 C9.000,2.989 9.000,7.993 9.000,7.993 Z" id="path-10" class="cls-11" fill-rule="evenodd"/>
    <path d="M57.000,63.032 C57.000,63.032 52.000,63.032 52.000,63.032 C52.000,63.032 52.000,58.028 52.000,58.028 C52.000,58.028 57.000,58.028 57.000,58.028 C57.000,58.028 57.000,63.032 57.000,63.032 Z" id="path-11" class="cls-11" fill-rule="evenodd"/>
    <path d="M9.000,63.032 C9.000,63.032 4.000,63.032 4.000,63.032 C4.000,63.032 4.000,58.028 4.000,58.028 C4.000,58.028 9.000,58.028 9.000,58.028 C9.000,58.028 9.000,63.032 9.000,63.032 Z" id="path-12" class="cls-11" fill-rule="evenodd"/>
    <path d="M54.500,7.993 C54.500,7.993 49.500,7.993 49.500,7.993 C48.672,7.993 48.000,7.320 48.000,6.492 C48.000,6.492 48.000,1.488 48.000,1.488 C48.000,0.659 48.672,-0.013 49.500,-0.013 C49.500,-0.013 54.500,-0.013 54.500,-0.013 C55.328,-0.013 56.000,0.659 56.000,1.488 C56.000,1.488 56.000,6.492 56.000,6.492 C56.000,7.320 55.328,7.993 54.500,7.993 ZM51.000,4.991 C51.000,4.991 53.000,4.991 53.000,4.991 C53.000,4.991 53.000,2.989 53.000,2.989 C53.000,2.989 51.000,2.989 51.000,2.989 C51.000,2.989 51.000,4.991 51.000,4.991 Z" id="path-13" class="cls-15" fill-rule="evenodd"/>
    <path d="M6.500,7.993 C6.500,7.993 1.500,7.993 1.500,7.993 C0.672,7.993 -0.000,7.320 -0.000,6.492 C-0.000,6.492 -0.000,1.488 -0.000,1.488 C-0.000,0.659 0.672,-0.013 1.500,-0.013 C1.500,-0.013 6.500,-0.013 6.500,-0.013 C7.328,-0.013 8.000,0.659 8.000,1.488 C8.000,1.488 8.000,6.492 8.000,6.492 C8.000,7.320 7.328,7.993 6.500,7.993 ZM3.000,4.991 C3.000,4.991 5.000,4.991 5.000,4.991 C5.000,4.991 5.000,2.989 5.000,2.989 C5.000,2.989 3.000,2.989 3.000,2.989 C3.000,2.989 3.000,4.991 3.000,4.991 Z" id="path-14" class="cls-15" fill-rule="evenodd"/>
    <path d="M54.500,63.032 C54.500,63.032 49.500,63.032 49.500,63.032 C48.672,63.032 48.000,62.359 48.000,61.531 C48.000,61.531 48.000,56.527 48.000,56.527 C48.000,55.698 48.672,55.026 49.500,55.026 C49.500,55.026 54.500,55.026 54.500,55.026 C55.328,55.026 56.000,55.698 56.000,56.527 C56.000,56.527 56.000,61.531 56.000,61.531 C56.000,62.359 55.328,63.032 54.500,63.032 ZM51.000,60.030 C51.000,60.030 53.000,60.030 53.000,60.030 C53.000,60.030 53.000,58.028 53.000,58.028 C53.000,58.028 51.000,58.028 51.000,58.028 C51.000,58.028 51.000,60.030 51.000,60.030 Z" id="path-15" class="cls-15" fill-rule="evenodd"/>
    <path d="M6.500,63.032 C6.500,63.032 1.500,63.032 1.500,63.032 C0.672,63.032 -0.000,62.359 -0.000,61.531 C-0.000,61.531 -0.000,56.527 -0.000,56.527 C-0.000,55.698 0.672,55.026 1.500,55.026 C1.500,55.026 6.500,55.026 6.500,55.026 C7.328,55.026 8.000,55.698 8.000,56.527 C8.000,56.527 8.000,61.531 8.000,61.531 C8.000,62.359 7.328,63.032 6.500,63.032 ZM3.000,60.030 C3.000,60.030 5.000,60.030 5.000,60.030 C5.000,60.030 5.000,58.028 5.000,58.028 C5.000,58.028 3.000,58.028 3.000,58.028 C3.000,58.028 3.000,60.030 3.000,60.030 Z" id="path-16" class="cls-15" fill-rule="evenodd"/>
  </g>
</svg>
