<svg xmlns="http://www.w3.org/2000/svg" xmlns:xlink="http://www.w3.org/1999/xlink" preserveAspectRatio="xMidYMid" width="66" height="62" viewBox="0 0 66 62">
  <defs>
    <style>

      .cls-3 {
        fill: #53ecf4;
      }

      .cls-4 {
        fill: #edc951;
      }

      .cls-5 {
        fill: #e56a77;
      }

      .cls-6 {
        fill: #000000;
      }
    </style>
  </defs>
  <g id="group-6svg">
    <path d="M64.768,31.663 C64.768,47.790 51.703,60.864 35.587,60.864 C19.472,60.864 6.407,47.790 6.407,31.663 C6.407,15.535 19.472,2.462 35.587,2.462 C51.703,2.462 64.768,15.535 64.768,31.663 Z" id="path-1" class="cls-3" fill-rule="evenodd"/>
    <path d="M55.041,31.663 C55.041,42.414 46.331,51.130 35.587,51.130 C24.844,51.130 16.134,42.414 16.134,31.663 C16.134,20.911 24.844,12.195 35.587,12.195 C46.331,12.195 55.041,20.911 55.041,31.663 Z" id="path-2" class="cls-4" fill-rule="evenodd"/>
    <path d="M45.314,31.663 C45.314,37.038 40.959,41.396 35.587,41.396 C30.216,41.396 25.861,37.038 25.861,31.663 C25.861,26.287 30.216,21.929 35.587,21.929 C40.959,21.929 45.314,26.287 45.314,31.663 Z" id="path-3" class="cls-5" fill-rule="evenodd"/>
    <path d="M30.669,61.391 C13.752,61.391 -0.011,47.618 -0.011,30.689 C-0.011,13.760 13.752,-0.013 30.669,-0.013 C47.587,-0.013 61.350,13.760 61.350,30.689 C61.350,47.618 47.587,61.391 30.669,61.391 ZM30.669,2.989 C15.407,2.989 2.989,15.416 2.989,30.689 C2.989,45.963 15.407,58.389 30.669,58.389 C45.933,58.389 58.350,45.963 58.350,30.689 C58.350,15.416 45.933,2.989 30.669,2.989 Z" id="path-4" class="cls-6" fill-rule="evenodd"/>
    <path d="M30.669,51.658 C19.116,51.658 9.716,42.251 9.716,30.689 C9.716,19.127 19.116,9.721 30.669,9.721 C42.223,9.721 51.623,19.127 51.623,30.689 C51.623,42.251 42.223,51.658 30.669,51.658 ZM30.669,12.723 C20.770,12.723 12.716,20.783 12.716,30.689 C12.716,40.596 20.770,48.655 30.669,48.655 C40.569,48.655 48.623,40.596 48.623,30.689 C48.623,20.783 40.569,12.723 30.669,12.723 Z" id="path-5" class="cls-6" fill-rule="evenodd"/>
    <path d="M30.669,41.924 C24.479,41.924 19.443,36.884 19.443,30.689 C19.443,24.494 24.479,19.454 30.669,19.454 C36.860,19.454 41.896,24.494 41.896,30.689 C41.896,36.884 36.860,41.924 30.669,41.924 ZM30.669,22.457 C26.133,22.457 22.443,26.150 22.443,30.689 C22.443,35.229 26.133,38.922 30.669,38.922 C35.206,38.922 38.896,35.229 38.896,30.689 C38.896,26.150 35.206,22.457 30.669,22.457 Z" id="path-6" class="cls-6" fill-rule="evenodd"/>
    <path d="M29.187,60.258 C28.359,60.258 27.687,59.586 27.687,58.757 C27.687,58.757 27.687,1.716 27.687,1.716 C27.687,0.887 28.359,0.215 29.187,0.215 C30.016,0.215 30.687,0.887 30.687,1.716 C30.687,1.716 30.687,58.757 30.687,58.757 C30.687,59.586 30.016,60.258 29.187,60.258 Z" id="path-7" class="cls-6" fill-rule="evenodd"/>
  </g>
</svg>
