<svg xmlns="http://www.w3.org/2000/svg" xmlns:xlink="http://www.w3.org/1999/xlink" preserveAspectRatio="xMidYMid" width="63" height="62" viewBox="0 0 63 62">
  <defs>
    <style>

      .cls-3 {
        fill: #53ecf4;
      }

      .cls-4 {
        fill: #000000;
      }
    </style>
  </defs>
  <g id="group-5svg">
    <path d="M63.000,53.034 C63.000,57.455 59.418,61.039 55.000,61.039 C55.000,61.039 14.000,61.039 14.000,61.039 C9.582,61.039 6.000,57.455 6.000,53.034 C6.000,53.034 6.000,12.005 6.000,12.005 C6.000,7.583 9.582,3.999 14.000,3.999 C14.000,3.999 55.000,3.999 55.000,3.999 C59.418,3.999 63.000,7.583 63.000,12.005 C63.000,12.005 63.000,53.034 63.000,53.034 Z" id="path-1" class="cls-3" fill-rule="evenodd"/>
    <path d="M50.500,60.039 C50.500,60.039 9.500,60.039 9.500,60.039 C4.262,60.039 -0.000,55.774 -0.000,50.532 C-0.000,50.532 -0.000,9.503 -0.000,9.503 C-0.000,4.261 4.262,-0.004 9.500,-0.004 C9.500,-0.004 50.500,-0.004 50.500,-0.004 C55.738,-0.004 60.000,4.261 60.000,9.503 C60.000,9.503 60.000,50.532 60.000,50.532 C60.000,55.774 55.738,60.039 50.500,60.039 ZM9.500,2.998 C5.916,2.998 3.000,5.916 3.000,9.503 C3.000,9.503 3.000,50.532 3.000,50.532 C3.000,54.119 5.916,57.037 9.500,57.037 C9.500,57.037 50.500,57.037 50.500,57.037 C54.084,57.037 57.000,54.119 57.000,50.532 C57.000,50.532 57.000,9.503 57.000,9.503 C57.000,5.916 54.084,2.998 50.500,2.998 C50.500,2.998 9.500,2.998 9.500,2.998 Z" id="path-2" class="cls-4" fill-rule="evenodd"/>
    <path d="M58.000,44.027 C58.000,44.027 2.000,44.027 2.000,44.027 C1.171,44.027 0.500,43.356 0.500,42.526 C0.500,41.697 1.171,41.025 2.000,41.025 C2.000,41.025 58.000,41.025 58.000,41.025 C58.829,41.025 59.500,41.697 59.500,42.526 C59.500,43.356 58.829,44.027 58.000,44.027 Z" id="path-3" class="cls-4" fill-rule="evenodd"/>
    <path d="M58.000,22.012 C58.000,22.012 2.000,22.012 2.000,22.012 C1.171,22.012 0.500,21.340 0.500,20.511 C0.500,19.682 1.171,19.010 2.000,19.010 C2.000,19.010 58.000,19.010 58.000,19.010 C58.829,19.010 59.500,19.682 59.500,20.511 C59.500,21.340 58.829,22.012 58.000,22.012 Z" id="path-4" class="cls-4" fill-rule="evenodd"/>
    <path d="M40.500,59.538 C39.671,59.538 39.000,58.867 39.000,58.037 C39.000,58.037 39.000,1.998 39.000,1.998 C39.000,1.168 39.671,0.497 40.500,0.497 C41.329,0.497 42.000,1.168 42.000,1.998 C42.000,1.998 42.000,58.037 42.000,58.037 C42.000,58.867 41.329,59.538 40.500,59.538 Z" id="path-5" class="cls-4" fill-rule="evenodd"/>
    <path d="M19.500,59.538 C18.671,59.538 18.000,58.867 18.000,58.037 C18.000,58.037 18.000,1.998 18.000,1.998 C18.000,1.168 18.671,0.497 19.500,0.497 C20.329,0.497 21.000,1.168 21.000,1.998 C21.000,1.998 21.000,58.037 21.000,58.037 C21.000,58.867 20.329,59.538 19.500,59.538 Z" id="path-6" class="cls-4" fill-rule="evenodd"/>
  </g>
</svg>
