<svg xmlns="http://www.w3.org/2000/svg" xmlns:xlink="http://www.w3.org/1999/xlink" preserveAspectRatio="xMidYMid" width="63" height="64" viewBox="0 0 63 64">
  <defs>
    <style>

      .cls-3 {
        fill: #ff917b;
      }

      .cls-4 {
        fill: #53ecf4;
      }

      .cls-5 {
        fill: #edc951;
      }

      .cls-6 {
        fill: #81bda4;
      }

      .cls-8 {
        fill: #000000;
      }
    </style>
  </defs>
  <g id="group-24svg">
    <path d="M63.000,55.028 C63.000,59.450 59.418,63.034 55.000,63.034 C55.000,63.034 13.000,63.034 13.000,63.034 C8.581,63.034 5.000,59.450 5.000,55.028 C5.000,55.028 5.000,12.999 5.000,12.999 C5.000,8.577 8.581,4.993 13.000,4.993 C13.000,4.993 55.000,4.993 55.000,4.993 C59.418,4.993 63.000,8.577 63.000,12.999 C63.000,12.999 63.000,55.028 63.000,55.028 Z" id="path-1" class="cls-3" fill-rule="evenodd"/>
    <path d="M63.000,33.013 C63.000,33.013 47.000,33.013 47.000,33.013 C47.000,33.013 47.000,19.003 47.000,19.003 C47.000,19.003 63.000,19.003 63.000,19.003 C63.000,19.003 63.000,33.013 63.000,33.013 Z" id="path-2" class="cls-4" fill-rule="evenodd"/>
    <path d="M63.000,47.023 C63.000,47.023 47.000,47.023 47.000,47.023 C47.000,47.023 47.000,33.013 47.000,33.013 C47.000,33.013 63.000,33.013 63.000,33.013 C63.000,33.013 63.000,47.023 63.000,47.023 Z" id="path-3" class="cls-5" fill-rule="evenodd"/>
    <path d="M55.421,62.033 C55.421,62.033 47.000,62.033 47.000,62.033 C47.000,62.033 47.000,47.023 47.000,47.023 C47.000,47.023 63.000,47.023 63.000,47.023 C63.000,47.023 63.000,54.724 63.000,54.724 C63.000,59.146 59.839,62.033 55.421,62.033 Z" id="path-4" class="cls-6" fill-rule="evenodd"/>
    <path d="M55.421,4.993 C55.421,4.993 47.000,4.993 47.000,4.993 C47.000,4.993 47.000,21.004 47.000,21.004 C47.000,21.004 63.000,21.004 63.000,21.004 C63.000,21.004 63.000,13.695 63.000,13.695 C63.000,9.274 59.839,4.993 55.421,4.993 Z" id="path-5" class="cls-5" fill-rule="evenodd"/>
    <path d="M51.500,61.033 C51.500,61.033 9.500,61.033 9.500,61.033 C4.262,61.033 -0.000,56.768 -0.000,51.526 C-0.000,51.526 -0.000,9.496 -0.000,9.496 C-0.000,4.254 4.262,-0.011 9.500,-0.011 C9.500,-0.011 51.500,-0.011 51.500,-0.011 C56.738,-0.011 61.000,4.254 61.000,9.496 C61.000,9.496 61.000,51.526 61.000,51.526 C61.000,56.768 56.738,61.033 51.500,61.033 ZM9.500,2.992 C5.916,2.992 3.000,5.910 3.000,9.496 C3.000,9.496 3.000,51.526 3.000,51.526 C3.000,55.112 5.916,58.031 9.500,58.031 C9.500,58.031 51.500,58.031 51.500,58.031 C55.084,58.031 58.000,55.112 58.000,51.526 C58.000,51.526 58.000,9.496 58.000,9.496 C58.000,5.910 55.084,2.992 51.500,2.992 C51.500,2.992 9.500,2.992 9.500,2.992 Z" id="path-6" class="cls-8" fill-rule="evenodd"/>
    <path d="M42.500,60.532 C41.671,60.532 41.000,59.860 41.000,59.031 C41.000,59.031 41.000,1.991 41.000,1.991 C41.000,1.162 41.671,0.490 42.500,0.490 C43.329,0.490 44.000,1.162 44.000,1.991 C44.000,1.991 44.000,59.031 44.000,59.031 C44.000,59.860 43.329,60.532 42.500,60.532 Z" id="path-7" class="cls-8" fill-rule="evenodd"/>
    <path d="M59.000,17.001 C59.000,17.001 43.000,17.001 43.000,17.001 C42.171,17.001 41.500,16.330 41.500,15.500 C41.500,14.671 42.171,13.999 43.000,13.999 C43.000,13.999 59.000,13.999 59.000,13.999 C59.829,13.999 60.500,14.671 60.500,15.500 C60.500,16.330 59.829,17.001 59.000,17.001 Z" id="path-8" class="cls-8" fill-rule="evenodd"/>
    <path d="M59.000,31.011 C59.000,31.011 43.000,31.011 43.000,31.011 C42.171,31.011 41.500,30.340 41.500,29.510 C41.500,28.681 42.171,28.009 43.000,28.009 C43.000,28.009 59.000,28.009 59.000,28.009 C59.829,28.009 60.500,28.681 60.500,29.510 C60.500,30.340 59.829,31.011 59.000,31.011 Z" id="path-9" class="cls-8" fill-rule="evenodd"/>
    <path d="M59.000,44.021 C59.000,44.021 43.000,44.021 43.000,44.021 C42.171,44.021 41.500,43.349 41.500,42.520 C41.500,41.690 42.171,41.018 43.000,41.018 C43.000,41.018 59.000,41.018 59.000,41.018 C59.829,41.018 60.500,41.690 60.500,42.520 C60.500,43.349 59.829,44.021 59.000,44.021 Z" id="path-10" class="cls-8" fill-rule="evenodd"/>
  </g>
</svg>
