<svg xmlns="http://www.w3.org/2000/svg" xmlns:xlink="http://www.w3.org/1999/xlink" preserveAspectRatio="xMidYMid" width="64" height="46" viewBox="0 0 64 46">
  <defs>
    <style>

      .cls-3 {
        fill: #e56a77;
      }

      .cls-6 {
        fill: #53ecf4;
      }

      .cls-7 {
        fill: #edc951;
      }

      .cls-11 {
        fill: #000000;
      }
    </style>
  </defs>
  <g id="group-37svg">
    <path d="M58.698,39.441 C57.870,39.441 57.198,38.769 57.198,37.940 C57.198,23.962 45.834,12.589 31.865,12.589 C17.896,12.589 6.532,23.962 6.532,37.940 C6.532,38.769 5.861,39.441 5.032,39.441 C4.204,39.441 3.532,38.769 3.532,37.940 C3.532,22.306 16.242,9.587 31.865,9.587 C47.488,9.587 60.198,22.306 60.198,37.940 C60.198,38.769 59.527,39.441 58.698,39.441 Z" id="path-1" class="cls-3" fill-rule="evenodd"/>
    <path d="M27.000,7.530 C27.000,7.530 11.000,7.530 11.000,7.530 C10.171,7.530 9.500,6.857 9.500,6.029 C9.500,5.199 10.171,4.528 11.000,4.528 C11.000,4.528 27.000,4.528 27.000,4.528 C27.829,4.528 28.500,5.199 28.500,6.029 C28.500,6.857 27.829,7.530 27.000,7.530 Z" id="path-2" class="cls-3" fill-rule="evenodd"/>
    <path d="M51.000,7.530 C51.000,7.530 36.000,7.530 36.000,7.530 C35.171,7.530 34.500,6.857 34.500,6.029 C34.500,5.199 35.171,4.528 36.000,4.528 C36.000,4.528 51.000,4.528 51.000,4.528 C51.829,4.528 52.500,5.199 52.500,6.029 C52.500,6.857 51.829,7.530 51.000,7.530 Z" id="path-3" class="cls-3" fill-rule="evenodd"/>
    <path d="M38.216,6.535 C38.216,8.763 36.411,10.570 34.184,10.570 C31.957,10.570 30.152,8.763 30.152,6.535 C30.152,4.307 31.957,2.500 34.184,2.500 C36.411,2.500 38.216,4.307 38.216,6.535 Z" id="path-4" class="cls-6" fill-rule="evenodd"/>
    <path d="M64.000,45.557 C64.000,45.557 58.000,45.557 58.000,45.557 C58.000,45.557 58.000,39.552 58.000,39.552 C58.000,39.552 64.000,39.552 64.000,39.552 C64.000,39.552 64.000,45.557 64.000,45.557 Z" id="path-5" class="cls-7" fill-rule="evenodd"/>
    <path d="M61.000,11.532 C61.000,11.532 55.000,11.532 55.000,11.532 C55.000,11.532 55.000,4.528 55.000,4.528 C55.000,4.528 61.000,4.528 61.000,4.528 C61.000,4.528 61.000,11.532 61.000,11.532 Z" id="path-6" class="cls-7" fill-rule="evenodd"/>
    <path d="M13.000,11.532 C13.000,11.532 7.000,11.532 7.000,11.532 C7.000,11.532 7.000,4.528 7.000,4.528 C7.000,4.528 13.000,4.528 13.000,4.528 C13.000,4.528 13.000,11.532 13.000,11.532 Z" id="path-7" class="cls-7" fill-rule="evenodd"/>
    <path d="M10.000,45.557 C10.000,45.557 4.000,45.557 4.000,45.557 C4.000,45.557 4.000,39.552 4.000,39.552 C4.000,39.552 10.000,39.552 10.000,39.552 C10.000,39.552 10.000,45.557 10.000,45.557 Z" id="path-8" class="cls-7" fill-rule="evenodd"/>
    <path d="M31.184,11.070 C28.134,11.070 25.652,8.587 25.652,5.534 C25.652,2.482 28.134,-0.002 31.184,-0.002 C34.234,-0.002 36.716,2.482 36.716,5.534 C36.716,8.587 34.234,11.070 31.184,11.070 ZM31.184,3.001 C29.788,3.001 28.652,4.137 28.652,5.534 C28.652,6.932 29.788,8.068 31.184,8.068 C32.580,8.068 33.716,6.932 33.716,5.534 C33.716,4.137 32.580,3.001 31.184,3.001 Z" id="path-9" class="cls-11" fill-rule="evenodd"/>
    <path d="M61.500,45.557 C61.500,45.557 55.500,45.557 55.500,45.557 C54.671,45.557 54.000,44.884 54.000,44.055 C54.000,44.055 54.000,38.051 54.000,38.051 C54.000,37.222 54.671,36.550 55.500,36.550 C55.500,36.550 61.500,36.550 61.500,36.550 C62.329,36.550 63.000,37.222 63.000,38.051 C63.000,38.051 63.000,44.055 63.000,44.055 C63.000,44.884 62.329,45.557 61.500,45.557 ZM57.000,42.554 C57.000,42.554 60.000,42.554 60.000,42.554 C60.000,42.554 60.000,39.552 60.000,39.552 C60.000,39.552 57.000,39.552 57.000,39.552 C57.000,39.552 57.000,42.554 57.000,42.554 Z" id="path-10" class="cls-11" fill-rule="evenodd"/>
    <path d="M58.500,11.532 C58.500,11.532 52.500,11.532 52.500,11.532 C51.671,11.532 51.000,10.860 51.000,10.031 C51.000,10.031 51.000,3.026 51.000,3.026 C51.000,2.197 51.671,1.525 52.500,1.525 C52.500,1.525 58.500,1.525 58.500,1.525 C59.329,1.525 60.000,2.197 60.000,3.026 C60.000,3.026 60.000,10.031 60.000,10.031 C60.000,10.860 59.329,11.532 58.500,11.532 ZM54.000,8.530 C54.000,8.530 57.000,8.530 57.000,8.530 C57.000,8.530 57.000,4.528 57.000,4.528 C57.000,4.528 54.000,4.528 54.000,4.528 C54.000,4.528 54.000,8.530 54.000,8.530 Z" id="path-11" class="cls-11" fill-rule="evenodd"/>
    <path d="M10.500,11.532 C10.500,11.532 4.500,11.532 4.500,11.532 C3.671,11.532 3.000,10.860 3.000,10.031 C3.000,10.031 3.000,3.026 3.000,3.026 C3.000,2.197 3.671,1.525 4.500,1.525 C4.500,1.525 10.500,1.525 10.500,1.525 C11.329,1.525 12.000,2.197 12.000,3.026 C12.000,3.026 12.000,10.031 12.000,10.031 C12.000,10.860 11.329,11.532 10.500,11.532 ZM6.000,8.530 C6.000,8.530 9.000,8.530 9.000,8.530 C9.000,8.530 9.000,4.528 9.000,4.528 C9.000,4.528 6.000,4.528 6.000,4.528 C6.000,4.528 6.000,8.530 6.000,8.530 Z" id="path-12" class="cls-11" fill-rule="evenodd"/>
    <path d="M7.500,45.557 C7.500,45.557 1.500,45.557 1.500,45.557 C0.671,45.557 -0.000,44.884 -0.000,44.055 C-0.000,44.055 -0.000,38.051 -0.000,38.051 C-0.000,37.222 0.671,36.550 1.500,36.550 C1.500,36.550 7.500,36.550 7.500,36.550 C8.329,36.550 9.000,37.222 9.000,38.051 C9.000,38.051 9.000,44.055 9.000,44.055 C9.000,44.884 8.329,45.557 7.500,45.557 ZM3.000,42.554 C3.000,42.554 6.000,42.554 6.000,42.554 C6.000,42.554 6.000,39.552 6.000,39.552 C6.000,39.552 3.000,39.552 3.000,39.552 C3.000,39.552 3.000,42.554 3.000,42.554 Z" id="path-13" class="cls-11" fill-rule="evenodd"/>
  </g>
</svg>
