<svg xmlns="http://www.w3.org/2000/svg" xmlns:xlink="http://www.w3.org/1999/xlink" preserveAspectRatio="xMidYMid" width="63" height="55" viewBox="0 0 63 55">
  <defs>
    <style>

      .cls-3 {
        fill: #ff917b;
      }

      .cls-4 {
        fill: #81bda4;
      }

      .cls-5 {
        fill: #edc951;
      }

      .cls-6 {
        fill: #000000;
      }
    </style>
  </defs>
  <g id="group-21svg">
    <path d="M32.102,33.009 C32.102,33.009 8.053,22.558 8.053,22.558 C4.409,20.974 4.409,15.803 8.053,14.219 C8.053,14.219 32.102,3.767 32.102,3.767 C33.256,3.265 34.566,3.265 35.721,3.767 C35.721,3.767 59.770,14.219 59.770,14.219 C63.413,15.803 63.413,20.974 59.770,22.558 C59.770,22.558 35.721,33.009 35.721,33.009 C34.566,33.511 33.256,33.511 32.102,33.009 Z" id="path-1" class="cls-3" fill-rule="evenodd"/>
    <path d="M59.573,35.734 C63.189,37.305 63.189,42.437 59.573,44.009 C59.573,44.009 35.707,54.382 35.707,54.382 C34.561,54.880 33.261,54.880 32.115,54.382 C32.115,54.382 8.248,44.009 8.248,44.009 C4.633,42.437 4.633,37.305 8.248,35.734 C8.248,35.734 8.248,35.734 8.248,35.734 " id="path-2" class="cls-4" fill-rule="evenodd"/>
    <path d="M55.809,32.225 C55.809,32.225 35.443,41.077 35.443,41.077 C34.466,41.501 33.356,41.501 32.379,41.077 C32.379,41.077 12.014,32.225 12.014,32.225 C12.014,32.225 12.014,32.225 12.014,32.225 " id="path-3" class="cls-5" fill-rule="evenodd"/>
    <path d="M30.099,32.979 C29.266,32.979 28.456,32.811 27.691,32.479 C27.691,32.479 3.644,22.026 3.644,22.026 C1.401,21.052 0.008,18.927 0.008,16.481 C0.008,14.034 1.401,11.909 3.644,10.935 C3.644,10.935 27.691,0.483 27.691,0.483 C29.221,-0.182 30.977,-0.182 32.506,0.483 C32.506,0.483 56.555,10.935 56.555,10.935 C58.797,11.909 60.189,14.034 60.189,16.481 C60.189,18.927 58.797,21.052 56.555,22.026 C56.555,22.026 32.506,32.479 32.506,32.479 C31.741,32.811 30.932,32.979 30.099,32.979 ZM30.099,2.984 C29.679,2.984 29.271,3.069 28.887,3.236 C28.887,3.236 4.839,13.688 4.839,13.688 C3.692,14.186 3.008,15.231 3.008,16.481 C3.008,17.731 3.692,18.775 4.839,19.273 C4.839,19.273 28.887,29.725 28.887,29.725 C29.656,30.059 30.541,30.059 31.311,29.725 C31.311,29.725 55.359,19.273 55.359,19.273 C56.506,18.775 57.189,17.731 57.189,16.481 C57.189,15.231 56.506,14.186 55.359,13.688 C55.359,13.688 31.311,3.236 31.311,3.236 C30.926,3.069 30.519,2.984 30.099,2.984 Z" id="path-4" class="cls-6" fill-rule="evenodd"/>
    <path d="M30.099,54.347 C29.282,54.347 28.466,54.182 27.705,53.851 C27.705,53.851 3.839,43.479 3.839,43.479 C1.609,42.510 0.225,40.396 0.225,37.964 C0.225,35.532 1.609,33.418 3.839,32.449 C4.600,32.119 5.482,32.468 5.812,33.228 C6.143,33.989 5.794,34.873 5.034,35.203 C3.901,35.696 3.225,36.728 3.225,37.964 C3.225,39.200 3.900,40.232 5.034,40.725 C5.034,40.725 28.900,51.098 28.900,51.098 C29.662,51.429 30.535,51.429 31.297,51.098 C31.297,51.098 55.164,40.725 55.164,40.725 C56.298,40.232 56.974,39.200 56.974,37.964 C56.974,36.728 56.297,35.696 55.164,35.203 C54.404,34.873 54.056,33.989 54.386,33.228 C54.715,32.468 55.601,32.119 56.359,32.449 C58.589,33.418 59.974,35.532 59.974,37.964 C59.974,40.396 58.589,42.510 56.359,43.479 C56.359,43.479 32.492,53.851 32.492,53.851 C31.731,54.182 30.915,54.347 30.099,54.347 Z" id="path-5" class="cls-6" fill-rule="evenodd"/>
    <path d="M30.099,40.987 C29.373,40.987 28.646,40.840 27.969,40.546 C27.969,40.546 7.603,31.694 7.603,31.694 C6.844,31.365 6.495,30.480 6.825,29.720 C7.156,28.960 8.039,28.611 8.799,28.941 C8.799,28.941 29.164,37.792 29.164,37.792 C29.759,38.051 30.440,38.050 31.033,37.792 C31.033,37.792 51.399,28.941 51.399,28.941 C52.160,28.611 53.043,28.960 53.373,29.720 C53.703,30.480 53.354,31.365 52.595,31.694 C52.595,31.694 32.229,40.546 32.229,40.546 C31.552,40.840 30.825,40.987 30.099,40.987 Z" id="path-6" class="cls-6" fill-rule="evenodd"/>
  </g>
</svg>
