<svg xmlns="http://www.w3.org/2000/svg" xmlns:xlink="http://www.w3.org/1999/xlink" preserveAspectRatio="xMidYMid" width="63" height="64" viewBox="0 0 63 64">
  <defs>
    <style>

      .cls-3 {
        fill: #81bda4;
      }

      .cls-7 {
        fill: #e56a77;
      }
    </style>
  </defs>
  <g id="group-34svg">
    <path d="M52.345,63.032 C52.345,63.032 38.000,63.032 38.000,63.032 C37.172,63.032 36.500,62.359 36.500,61.531 C36.500,60.701 37.172,60.030 38.000,60.030 C38.000,60.030 52.345,60.030 52.345,60.030 C56.852,60.030 60.000,57.222 60.000,53.201 C60.000,53.201 60.000,44.018 60.000,44.018 C60.000,43.189 60.672,42.517 61.500,42.517 C62.328,42.517 63.000,43.189 63.000,44.018 C63.000,44.018 63.000,53.201 63.000,53.201 C63.000,58.897 58.519,63.032 52.345,63.032 Z" id="path-1" class="cls-3" fill-rule="evenodd"/>
    <path d="M61.500,24.504 C60.672,24.504 60.000,23.832 60.000,23.003 C60.000,23.003 60.000,11.634 60.000,11.634 C60.000,7.553 56.727,2.989 52.345,2.989 C52.345,2.989 38.000,2.989 38.000,2.989 C37.172,2.989 36.500,2.317 36.500,1.488 C36.500,0.659 37.172,-0.013 38.000,-0.013 C38.000,-0.013 52.345,-0.013 52.345,-0.013 C58.020,-0.013 63.000,5.429 63.000,11.634 C63.000,11.634 63.000,23.003 63.000,23.003 C63.000,23.832 62.328,24.504 61.500,24.504 Z" id="path-2" class="cls-3" fill-rule="evenodd"/>
    <path d="M1.500,24.504 C0.672,24.504 -0.000,23.832 -0.000,23.003 C-0.000,23.003 -0.000,11.634 -0.000,11.634 C-0.000,5.429 5.050,-0.013 10.807,-0.013 C10.807,-0.013 23.000,-0.013 23.000,-0.013 C23.828,-0.013 24.500,0.659 24.500,1.488 C24.500,2.317 23.828,2.989 23.000,2.989 C23.000,2.989 10.807,2.989 10.807,2.989 C6.721,2.989 3.000,7.109 3.000,11.634 C3.000,11.634 3.000,23.003 3.000,23.003 C3.000,23.832 2.328,24.504 1.500,24.504 Z" id="path-3" class="cls-3" fill-rule="evenodd"/>
    <path d="M22.000,63.032 C22.000,63.032 10.807,63.032 10.807,63.032 C4.545,63.032 -0.000,58.897 -0.000,53.201 C-0.000,53.201 -0.000,44.018 -0.000,44.018 C-0.000,43.189 0.672,42.517 1.500,42.517 C2.328,42.517 3.000,43.189 3.000,44.018 C3.000,44.018 3.000,53.201 3.000,53.201 C3.000,57.893 7.047,60.030 10.807,60.030 C10.807,60.030 22.000,60.030 22.000,60.030 C22.828,60.030 23.500,60.701 23.500,61.531 C23.500,62.359 22.828,63.032 22.000,63.032 Z" id="path-4" class="cls-3" fill-rule="evenodd"/>
    <path d="M43.000,32.010 C43.000,32.010 20.000,32.010 20.000,32.010 C19.172,32.010 18.500,31.337 18.500,30.509 C18.500,29.679 19.172,29.008 20.000,29.008 C20.000,29.008 43.000,29.008 43.000,29.008 C43.828,29.008 44.500,29.679 44.500,30.509 C44.500,31.337 43.828,32.010 43.000,32.010 Z" id="path-5" class="cls-7" fill-rule="evenodd"/>
    <path d="M31.500,43.518 C30.672,43.518 30.000,42.846 30.000,42.017 C30.000,42.017 30.000,19.001 30.000,19.001 C30.000,18.171 30.672,17.499 31.500,17.499 C32.328,17.499 33.000,18.171 33.000,19.001 C33.000,19.001 33.000,42.017 33.000,42.017 C33.000,42.846 32.328,43.518 31.500,43.518 Z" id="path-6" class="cls-7" fill-rule="evenodd"/>
  </g>
</svg>
