<svg xmlns="http://www.w3.org/2000/svg" xmlns:xlink="http://www.w3.org/1999/xlink" preserveAspectRatio="xMidYMid" width="64" height="61" viewBox="0 0 64 61">
  <defs>
    <style>

      .cls-3 {
        fill: #ff917b;
      }

      .cls-4 {
        fill: #edc951;
      }

      .cls-5 {
        fill: #000000;
      }
    </style>
  </defs>
  <g id="group-7svg">
    <path d="M60.636,29.791 C60.636,41.617 51.056,51.204 39.237,51.204 C27.419,51.204 17.839,41.617 17.839,29.791 C17.839,17.964 27.419,8.377 39.237,8.377 C51.056,8.377 60.636,17.964 60.636,29.791 Z" id="path-1" class="cls-3" fill-rule="evenodd"/>
    <path d="M45.111,26.012 C45.111,31.345 40.791,35.669 35.461,35.669 C30.132,35.669 25.811,31.345 25.811,26.012 C25.811,20.679 30.132,16.355 35.461,16.355 C40.791,16.355 45.111,20.679 45.111,26.012 Z" id="path-2" class="cls-4" fill-rule="evenodd"/>
    <path d="M34.237,51.705 C21.611,51.705 11.339,41.425 11.339,28.790 C11.339,16.155 21.611,5.875 34.237,5.875 C46.863,5.875 57.136,16.155 57.136,28.790 C57.136,41.425 46.863,51.705 34.237,51.705 ZM34.237,8.877 C23.266,8.877 14.339,17.810 14.339,28.790 C14.339,39.770 23.266,48.703 34.237,48.703 C45.209,48.703 54.136,39.770 54.136,28.790 C54.136,17.810 45.209,8.877 34.237,8.877 Z" id="path-3" class="cls-5" fill-rule="evenodd"/>
    <path d="M22.909,60.522 C10.282,60.522 0.010,50.243 0.010,37.607 C0.010,36.778 0.682,36.106 1.510,36.106 C2.338,36.106 3.010,36.778 3.010,37.607 C3.010,48.587 11.937,57.520 22.909,57.520 C23.737,57.520 24.409,58.192 24.409,59.021 C24.409,59.850 23.737,60.522 22.909,60.522 Z" id="path-4" class="cls-5" fill-rule="evenodd"/>
    <path d="M30.461,36.169 C24.312,36.169 19.311,31.164 19.311,25.011 C19.311,18.858 24.312,13.853 30.461,13.853 C36.609,13.853 41.611,18.858 41.611,25.011 C41.611,31.164 36.609,36.169 30.461,36.169 ZM30.461,16.855 C25.967,16.855 22.310,20.514 22.310,25.011 C22.310,29.508 25.967,33.167 30.461,33.167 C34.955,33.167 38.611,29.508 38.611,25.011 C38.611,20.514 34.955,16.855 30.461,16.855 Z" id="path-5" class="cls-5" fill-rule="evenodd"/>
    <path d="M61.510,12.656 C60.682,12.656 60.010,11.984 60.010,11.155 C60.010,6.658 56.353,2.999 51.859,2.999 C51.031,2.999 50.359,2.327 50.359,1.498 C50.359,0.669 51.031,-0.003 51.859,-0.003 C58.008,-0.003 63.010,5.002 63.010,11.155 C63.010,11.984 62.338,12.656 61.510,12.656 Z" id="path-6" class="cls-5" fill-rule="evenodd"/>
  </g>
</svg>
