<svg xmlns="http://www.w3.org/2000/svg" xmlns:xlink="http://www.w3.org/1999/xlink" preserveAspectRatio="xMidYMid" width="66" height="66" viewBox="0 0 66 66">
  <defs>
    <style>

      .cls-3 {
        fill: #8b71b5;
      }

      .cls-4 {
        fill: #000000;
      }
    </style>
  </defs>
  <g id="group-17svg">
    <path d="M66.000,57.031 C66.000,61.453 62.418,65.037 58.000,65.037 C58.000,65.037 14.000,65.037 14.000,65.037 C9.582,65.037 6.000,61.453 6.000,57.031 C6.000,57.031 6.000,13.000 6.000,13.000 C6.000,8.579 9.582,4.995 14.000,4.995 C14.000,4.995 58.000,4.995 58.000,4.995 C62.418,4.995 66.000,8.579 66.000,13.000 C66.000,13.000 66.000,57.031 66.000,57.031 Z" id="path-1" class="cls-3" fill-rule="evenodd"/>
    <path d="M53.500,63.036 C53.500,63.036 9.500,63.036 9.500,63.036 C4.262,63.036 -0.000,58.771 -0.000,53.529 C-0.000,53.529 -0.000,9.498 -0.000,9.498 C-0.000,4.256 4.262,-0.009 9.500,-0.009 C9.500,-0.009 53.500,-0.009 53.500,-0.009 C58.738,-0.009 63.000,4.256 63.000,9.498 C63.000,9.498 63.000,53.529 63.000,53.529 C63.000,58.771 58.738,63.036 53.500,63.036 ZM9.500,2.993 C5.916,2.993 3.000,5.911 3.000,9.498 C3.000,9.498 3.000,53.529 3.000,53.529 C3.000,57.115 5.916,60.034 9.500,60.034 C9.500,60.034 53.500,60.034 53.500,60.034 C57.084,60.034 60.000,57.115 60.000,53.529 C60.000,53.529 60.000,9.498 60.000,9.498 C60.000,5.911 57.084,2.993 53.500,2.993 C53.500,2.993 9.500,2.993 9.500,2.993 Z" id="path-2" class="cls-4" fill-rule="evenodd"/>
    <path d="M18.500,62.535 C17.672,62.535 17.000,61.863 17.000,61.034 C17.000,61.034 17.000,1.992 17.000,1.992 C17.000,1.163 17.672,0.491 18.500,0.491 C19.328,0.491 20.000,1.163 20.000,1.992 C20.000,1.992 20.000,61.034 20.000,61.034 C20.000,61.863 19.328,62.535 18.500,62.535 Z" id="path-3" class="cls-4" fill-rule="evenodd"/>
    <path d="M36.500,62.535 C35.672,62.535 35.000,61.863 35.000,61.034 C35.000,61.034 35.000,1.992 35.000,1.992 C35.000,1.163 35.672,0.491 36.500,0.491 C37.328,0.491 38.000,1.163 38.000,1.992 C38.000,1.992 38.000,61.034 38.000,61.034 C38.000,61.863 37.328,62.535 36.500,62.535 Z" id="path-4" class="cls-4" fill-rule="evenodd"/>
    <path d="M8.500,62.535 C7.672,62.535 7.000,61.863 7.000,61.034 C7.000,61.034 7.000,1.992 7.000,1.992 C7.000,1.163 7.672,0.491 8.500,0.491 C9.328,0.491 10.000,1.163 10.000,1.992 C10.000,1.992 10.000,61.034 10.000,61.034 C10.000,61.863 9.328,62.535 8.500,62.535 Z" id="path-5" class="cls-4" fill-rule="evenodd"/>
  </g>
</svg>
