<svg xmlns="http://www.w3.org/2000/svg" xmlns:xlink="http://www.w3.org/1999/xlink" preserveAspectRatio="xMidYMid" width="61" height="64" viewBox="0 0 61 64">
  <defs>
    <style>

      .cls-3 {
        fill: #e56a77;
      }

      .cls-5 {
        fill: #edc951;
      }

      .cls-6 {
        fill: #53ecf4;
      }

      .cls-7 {
        fill: #000000;
      }
    </style>
  </defs>
  <g id="group-20svg">
    <path d="M41.627,12.925 C41.252,12.925 40.876,12.785 40.585,12.503 C39.989,11.927 39.973,10.977 40.549,10.381 C40.549,10.381 44.380,6.413 44.380,6.413 C44.380,6.413 40.559,2.536 40.559,2.536 C39.978,1.945 39.983,0.995 40.573,0.413 C41.164,-0.169 42.112,-0.163 42.695,0.428 C42.695,0.428 47.545,5.348 47.545,5.348 C48.116,5.928 48.121,6.860 47.555,7.445 C47.555,7.445 42.705,12.467 42.705,12.467 C42.411,12.771 42.020,12.925 41.627,12.925 Z" id="path-1" class="cls-3" fill-rule="evenodd"/>
    <path d="M1.516,7.465 C0.687,7.465 0.017,7.039 0.016,6.210 C0.015,5.381 0.686,4.612 1.514,4.611 C1.514,4.611 46.475,4.463 46.475,4.463 C46.476,4.463 46.476,4.463 46.477,4.463 C47.305,4.463 47.976,5.353 47.977,6.181 C47.977,7.011 47.307,7.549 46.478,7.550 C46.478,7.550 1.518,7.465 1.518,7.465 C1.517,7.465 1.517,7.465 1.516,7.465 Z" id="path-2" class="cls-3" fill-rule="evenodd"/>
    <path d="M39.250,63.505 C39.250,63.505 19.645,63.505 19.645,63.505 C15.690,63.505 12.484,60.139 12.484,56.182 C12.484,56.182 6.785,26.630 6.785,26.630 C6.785,22.672 9.992,19.474 13.947,19.474 C13.947,19.474 34.250,19.474 34.250,19.474 C34.250,19.474 34.250,19.474 34.250,19.474 " id="path-3" class="cls-5" fill-rule="evenodd"/>
    <path d="M61.027,55.474 C61.027,59.915 57.430,63.505 52.992,63.505 C52.992,63.505 33.906,63.505 33.906,63.505 C29.469,63.505 25.871,59.915 25.871,55.474 C25.871,55.474 22.857,27.422 22.857,27.422 C22.857,22.981 26.455,19.474 30.894,19.474 C30.894,19.474 49.978,19.474 49.978,19.474 C54.416,19.474 58.014,22.981 58.014,27.422 C58.014,27.422 61.027,55.474 61.027,55.474 Z" id="path-4" class="cls-6" fill-rule="evenodd"/>
    <path d="M47.992,62.504 C47.992,62.504 28.906,62.504 28.906,62.504 C23.588,62.504 19.416,58.471 19.371,53.306 C19.371,53.306 16.366,25.205 16.366,25.205 C16.360,25.152 16.357,25.099 16.357,25.045 C16.357,19.766 20.636,15.471 25.894,15.471 C25.894,15.471 44.978,15.471 44.978,15.471 C50.209,15.471 54.470,19.721 54.515,24.962 C54.515,24.962 57.519,53.063 57.519,53.063 C57.524,53.115 57.527,53.169 57.527,53.222 C57.527,58.427 53.339,62.504 47.992,62.504 ZM19.357,24.969 C19.357,24.969 22.362,53.062 22.362,53.062 C22.368,53.115 22.371,53.169 22.371,53.222 C22.371,56.744 25.241,59.502 28.906,59.502 C28.906,59.502 47.992,59.502 47.992,59.502 C51.630,59.502 54.486,56.784 54.527,53.298 C54.527,53.298 51.523,25.205 51.523,25.205 C51.518,25.152 51.515,25.099 51.515,25.045 C51.515,21.422 48.583,18.473 44.978,18.473 C44.978,18.473 25.894,18.473 25.894,18.473 C22.314,18.473 19.398,21.380 19.357,24.969 Z" id="path-5" class="cls-7" fill-rule="evenodd"/>
    <path d="M34.250,62.504 C34.250,62.504 14.645,62.504 14.645,62.504 C9.920,62.504 6.066,58.739 5.985,54.079 C5.985,54.079 0.313,24.537 0.313,24.537 C0.295,24.444 0.286,24.349 0.286,24.254 C0.286,19.411 4.172,15.471 8.947,15.471 C8.947,15.471 29.250,15.471 29.250,15.471 C30.078,15.471 30.750,16.143 30.750,16.972 C30.750,17.801 30.078,18.473 29.250,18.473 C29.250,18.473 8.947,18.473 8.947,18.473 C5.870,18.473 3.358,20.994 3.288,24.119 C3.288,24.119 8.957,53.647 8.957,53.647 C8.976,53.740 8.984,53.835 8.984,53.930 C8.984,57.055 11.471,59.502 14.645,59.502 C14.645,59.502 34.250,59.502 34.250,59.502 C35.078,59.502 35.750,60.174 35.750,61.003 C35.750,61.833 35.078,62.504 34.250,62.504 Z" id="path-6" class="cls-7" fill-rule="evenodd"/>
  </g>
</svg>
