<svg xmlns="http://www.w3.org/2000/svg" xmlns:xlink="http://www.w3.org/1999/xlink" preserveAspectRatio="xMidYMid" width="60" height="61" viewBox="0 0 60 61">
  <defs>
    <style>

      .cls-3 {
        fill: #e56a77;
      }

      .cls-4 {
        fill: #53ecf4;
      }
    </style>
  </defs>
  <g id="group-32svg">
    <path d="M29.500,57.029 C14.337,57.029 2.000,44.684 2.000,29.509 C2.000,14.335 14.337,1.990 29.500,1.990 C44.663,1.990 57.000,14.335 57.000,29.509 C57.000,44.684 44.663,57.029 29.500,57.029 ZM29.500,4.992 C15.990,4.992 5.000,15.991 5.000,29.509 C5.000,43.028 15.990,54.027 29.500,54.027 C43.010,54.027 54.000,43.028 54.000,29.509 C54.000,15.991 43.010,4.992 29.500,4.992 Z" id="path-1" class="cls-3" fill-rule="evenodd"/>
    <path d="M60.000,32.011 C60.000,33.116 59.104,34.013 58.000,34.013 C58.000,34.013 54.000,34.013 54.000,34.013 C52.895,34.013 52.000,33.116 52.000,32.011 C52.000,32.011 52.000,28.008 52.000,28.008 C52.000,26.903 52.895,26.007 54.000,26.007 C54.000,26.007 58.000,26.007 58.000,26.007 C59.104,26.007 60.000,26.903 60.000,28.008 C60.000,28.008 60.000,32.011 60.000,32.011 Z" id="path-2" class="cls-4" fill-rule="evenodd"/>
    <path d="M8.000,32.011 C8.000,33.116 7.104,34.013 6.000,34.013 C6.000,34.013 2.000,34.013 2.000,34.013 C0.895,34.013 -0.000,33.116 -0.000,32.011 C-0.000,32.011 -0.000,28.008 -0.000,28.008 C-0.000,26.903 0.895,26.007 2.000,26.007 C2.000,26.007 6.000,26.007 6.000,26.007 C7.104,26.007 8.000,26.903 8.000,28.008 C8.000,28.008 8.000,32.011 8.000,32.011 Z" id="path-3" class="cls-4" fill-rule="evenodd"/>
    <path d="M34.000,58.030 C34.000,59.135 33.104,60.031 32.000,60.031 C32.000,60.031 28.000,60.031 28.000,60.031 C26.895,60.031 26.000,59.135 26.000,58.030 C26.000,58.030 26.000,54.027 26.000,54.027 C26.000,52.921 26.895,52.025 28.000,52.025 C28.000,52.025 32.000,52.025 32.000,52.025 C33.104,52.025 34.000,52.921 34.000,54.027 C34.000,54.027 34.000,58.030 34.000,58.030 Z" id="path-4" class="cls-4" fill-rule="evenodd"/>
    <path d="M34.000,5.993 C34.000,7.098 33.104,7.994 32.000,7.994 C32.000,7.994 28.000,7.994 28.000,7.994 C26.895,7.994 26.000,7.098 26.000,5.993 C26.000,5.993 26.000,1.990 26.000,1.990 C26.000,0.885 26.895,-0.011 28.000,-0.011 C28.000,-0.011 32.000,-0.011 32.000,-0.011 C33.104,-0.011 34.000,0.885 34.000,1.990 C34.000,1.990 34.000,5.993 34.000,5.993 Z" id="path-5" class="cls-4" fill-rule="evenodd"/>
  </g>
</svg>
