<svg xmlns="http://www.w3.org/2000/svg" xmlns:xlink="http://www.w3.org/1999/xlink" preserveAspectRatio="xMidYMid" width="61" height="57" viewBox="0 0 61 57">
  <defs>
    <style>

      .cls-3 {
        fill: #ff917b;
      }

      .cls-4 {
        fill: #edc951;
      }

      .cls-5 {
        fill: #81bda4;
      }

      .cls-7 {
        fill: #53ecf4;
      }

      .cls-9 {
        fill: #000000;
      }
    </style>
  </defs>
  <g id="group-26svg">
    <path d="M61.000,48.026 C61.000,52.448 57.418,56.032 53.000,56.032 C53.000,56.032 16.000,56.032 16.000,56.032 C11.582,56.032 8.000,52.448 8.000,48.026 C8.000,48.026 8.000,11.000 8.000,11.000 C8.000,6.578 11.582,2.994 16.000,2.994 C16.000,2.994 53.000,2.994 53.000,2.994 C57.418,2.994 61.000,6.578 61.000,11.000 C61.000,11.000 61.000,48.026 61.000,48.026 Z" id="path-1" class="cls-3" fill-rule="evenodd"/>
    <path d="M53.537,2.994 C53.537,2.994 49.000,2.994 49.000,2.994 C49.000,2.994 49.000,28.012 49.000,28.012 C49.000,28.012 61.000,28.012 61.000,28.012 C61.000,28.012 61.000,10.981 61.000,10.981 C61.000,6.559 57.956,2.994 53.537,2.994 Z" id="path-2" class="cls-4" fill-rule="evenodd"/>
    <path d="M36.000,29.013 C36.000,29.013 49.000,29.013 49.000,29.013 C49.000,29.013 49.000,1.994 49.000,1.994 C49.000,1.994 36.000,1.994 36.000,1.994 C36.000,1.994 36.000,29.013 36.000,29.013 Z" id="path-3" class="cls-5" fill-rule="evenodd"/>
    <path d="M48.000,56.032 C48.000,56.032 54.011,56.032 54.011,56.032 C58.429,56.032 61.000,53.008 61.000,48.586 C61.000,48.586 61.000,28.012 61.000,28.012 C61.000,28.012 48.000,28.012 48.000,28.012 C48.000,28.012 48.000,56.032 48.000,56.032 Z" id="path-4" class="cls-5" fill-rule="evenodd"/>
    <path d="M36.000,56.032 C36.000,56.032 49.000,56.032 49.000,56.032 C49.000,56.032 49.000,28.012 49.000,28.012 C49.000,28.012 36.000,28.012 36.000,28.012 C36.000,28.012 36.000,56.032 36.000,56.032 Z" id="path-5" class="cls-7" fill-rule="evenodd"/>
    <path d="M16.998,56.032 C16.998,56.032 23.000,56.032 23.000,56.032 C23.000,56.032 23.000,2.994 23.000,2.994 C23.000,2.994 16.998,2.994 16.998,2.994 C12.598,2.994 8.000,7.078 8.000,11.481 C8.000,11.481 8.000,48.508 8.000,48.508 C8.000,52.911 12.598,56.032 16.998,56.032 Z" id="path-6" class="cls-4" fill-rule="evenodd"/>
    <path d="M46.500,56.032 C46.500,56.032 9.500,56.032 9.500,56.032 C4.262,56.032 -0.000,51.767 -0.000,46.525 C-0.000,46.525 -0.000,9.499 -0.000,9.499 C-0.000,4.257 4.262,-0.008 9.500,-0.008 C9.500,-0.008 46.500,-0.008 46.500,-0.008 C51.738,-0.008 56.000,4.257 56.000,9.499 C56.000,9.499 56.000,46.525 56.000,46.525 C56.000,51.767 51.738,56.032 46.500,56.032 ZM9.500,2.994 C5.916,2.994 3.000,5.912 3.000,9.499 C3.000,9.499 3.000,46.525 3.000,46.525 C3.000,50.112 5.916,53.030 9.500,53.030 C9.500,53.030 46.500,53.030 46.500,53.030 C50.084,53.030 53.000,50.112 53.000,46.525 C53.000,46.525 53.000,9.499 53.000,9.499 C53.000,5.912 50.084,2.994 46.500,2.994 C46.500,2.994 9.500,2.994 9.500,2.994 Z" id="path-7" class="cls-9" fill-rule="evenodd"/>
    <path d="M41.500,55.532 C40.671,55.532 40.000,54.860 40.000,54.031 C40.000,54.031 40.000,1.994 40.000,1.994 C40.000,1.164 40.671,0.493 41.500,0.493 C42.329,0.493 43.000,1.164 43.000,1.994 C43.000,1.994 43.000,54.031 43.000,54.031 C43.000,54.860 42.329,55.532 41.500,55.532 Z" id="path-8" class="cls-9" fill-rule="evenodd"/>
    <path d="M28.500,55.532 C27.671,55.532 27.000,54.860 27.000,54.031 C27.000,54.031 27.000,1.994 27.000,1.994 C27.000,1.164 27.671,0.493 28.500,0.493 C29.329,0.493 30.000,1.164 30.000,1.994 C30.000,1.994 30.000,54.031 30.000,54.031 C30.000,54.860 29.329,55.532 28.500,55.532 Z" id="path-9" class="cls-9" fill-rule="evenodd"/>
    <path d="M15.500,55.532 C14.671,55.532 14.000,54.860 14.000,54.031 C14.000,54.031 14.000,1.994 14.000,1.994 C14.000,1.164 14.671,0.493 15.500,0.493 C16.329,0.493 17.000,1.164 17.000,1.994 C17.000,1.994 17.000,54.031 17.000,54.031 C17.000,54.860 16.329,55.532 15.500,55.532 Z" id="path-10" class="cls-9" fill-rule="evenodd"/>
    <path d="M54.000,30.013 C54.000,30.013 29.000,30.013 29.000,30.013 C28.171,30.013 27.500,29.342 27.500,28.512 C27.500,27.683 28.171,27.011 29.000,27.011 C29.000,27.011 54.000,27.011 54.000,27.011 C54.829,27.011 55.500,27.683 55.500,28.512 C55.500,29.342 54.829,30.013 54.000,30.013 Z" id="path-11" class="cls-9" fill-rule="evenodd"/>
  </g>
</svg>
