<svg xmlns="http://www.w3.org/2000/svg" xmlns:xlink="http://www.w3.org/1999/xlink" preserveAspectRatio="xMidYMid" width="61" height="62" viewBox="0 0 61 62">
  <defs>
    <style>

      .cls-3 {
        fill: #e56a77;
      }
    </style>
  </defs>
  <g id="group-39svg">
    <path d="M51.501,61.031 C51.500,61.031 51.500,61.031 51.500,61.031 C51.500,61.031 49.071,61.031 49.071,61.031 C48.243,61.031 47.571,60.359 47.571,59.530 C47.571,58.701 48.243,58.029 49.071,58.029 C49.071,58.029 51.500,58.029 51.500,58.029 C51.500,58.029 51.500,58.029 51.501,58.029 C52.204,58.029 52.894,57.918 53.554,57.698 C54.340,57.437 55.189,57.862 55.450,58.649 C55.711,59.436 55.286,60.285 54.500,60.547 C53.535,60.868 52.526,61.031 51.501,61.031 ZM44.071,61.031 C44.071,61.031 39.071,61.031 39.071,61.031 C38.243,61.031 37.571,60.359 37.571,59.530 C37.571,58.701 38.243,58.029 39.071,58.029 C39.071,58.029 44.071,58.029 44.071,58.029 C44.900,58.029 45.571,58.701 45.571,59.530 C45.571,60.359 44.900,61.031 44.071,61.031 ZM34.071,61.031 C34.071,61.031 29.071,61.031 29.071,61.031 C28.243,61.031 27.571,60.359 27.571,59.530 C27.571,58.701 28.243,58.029 29.071,58.029 C29.071,58.029 34.071,58.029 34.071,58.029 C34.900,58.029 35.571,58.701 35.571,59.530 C35.571,60.359 34.900,61.031 34.071,61.031 ZM24.071,61.031 C24.071,61.031 19.071,61.031 19.071,61.031 C18.243,61.031 17.571,60.359 17.571,59.530 C17.571,58.701 18.243,58.029 19.071,58.029 C19.071,58.029 24.071,58.029 24.071,58.029 C24.900,58.029 25.571,58.701 25.571,59.530 C25.571,60.359 24.900,61.031 24.071,61.031 ZM14.071,61.031 C14.071,61.031 9.500,61.031 9.500,61.031 C9.330,61.031 9.161,61.027 8.993,61.018 C8.166,60.974 7.530,60.268 7.573,59.440 C7.616,58.612 8.318,57.975 9.150,58.020 C9.266,58.026 9.383,58.029 9.500,58.029 C9.500,58.029 14.071,58.029 14.071,58.029 C14.900,58.029 15.571,58.701 15.571,59.530 C15.571,60.359 14.900,61.031 14.071,61.031 ZM4.479,59.259 C4.148,59.259 3.815,59.150 3.538,58.926 C1.972,57.661 0.864,55.971 0.336,54.039 C0.117,53.239 0.588,52.413 1.387,52.195 C2.190,51.976 3.011,52.447 3.229,53.246 C3.591,54.567 4.349,55.724 5.422,56.590 C6.066,57.110 6.167,58.055 5.647,58.701 C5.351,59.068 4.917,59.259 4.479,59.259 ZM57.988,57.708 C57.684,57.708 57.377,57.615 57.111,57.424 C56.440,56.938 56.289,56.000 56.774,55.328 C57.576,54.217 58.000,52.901 58.000,51.524 C58.000,50.695 58.671,50.023 59.500,50.023 C60.329,50.023 61.000,50.695 61.000,51.524 C61.000,53.536 60.379,55.459 59.205,57.086 C58.913,57.492 58.454,57.708 57.988,57.708 ZM1.500,50.165 C0.671,50.165 -0.000,49.494 -0.000,48.664 C-0.000,48.664 -0.000,43.661 -0.000,43.661 C-0.000,42.832 0.671,42.160 1.500,42.160 C2.329,42.160 3.000,42.832 3.000,43.661 C3.000,43.661 3.000,48.664 3.000,48.664 C3.000,49.494 2.329,50.165 1.500,50.165 ZM59.500,49.738 C58.671,49.738 58.000,49.066 58.000,48.237 C58.000,48.237 58.000,43.233 58.000,43.233 C58.000,42.405 58.671,41.732 59.500,41.732 C60.329,41.732 61.000,42.405 61.000,43.233 C61.000,43.233 61.000,48.237 61.000,48.237 C61.000,49.066 60.329,49.738 59.500,49.738 ZM1.500,40.158 C0.671,40.158 -0.000,39.486 -0.000,38.657 C-0.000,38.657 -0.000,33.654 -0.000,33.654 C-0.000,32.825 0.671,32.153 1.500,32.153 C2.329,32.153 3.000,32.825 3.000,33.654 C3.000,33.654 3.000,38.657 3.000,38.657 C3.000,39.486 2.329,40.158 1.500,40.158 ZM59.500,39.731 C58.671,39.731 58.000,39.059 58.000,38.230 C58.000,38.230 58.000,33.226 58.000,33.226 C58.000,32.398 58.671,31.725 59.500,31.725 C60.329,31.725 61.000,32.398 61.000,33.226 C61.000,33.226 61.000,38.230 61.000,38.230 C61.000,39.059 60.329,39.731 59.500,39.731 ZM1.500,30.151 C0.671,30.151 -0.000,29.479 -0.000,28.650 C-0.000,28.650 -0.000,23.647 -0.000,23.647 C-0.000,22.818 0.671,22.146 1.500,22.146 C2.329,22.146 3.000,22.818 3.000,23.647 C3.000,23.647 3.000,28.650 3.000,28.650 C3.000,29.479 2.329,30.151 1.500,30.151 ZM59.500,29.724 C58.671,29.724 58.000,29.052 58.000,28.223 C58.000,28.223 58.000,23.219 58.000,23.219 C58.000,22.390 58.671,21.718 59.500,21.718 C60.329,21.718 61.000,22.390 61.000,23.219 C61.000,23.219 61.000,28.223 61.000,28.223 C61.000,29.052 60.329,29.724 59.500,29.724 ZM1.500,20.144 C0.671,20.144 -0.000,19.472 -0.000,18.643 C-0.000,18.643 -0.000,13.640 -0.000,13.640 C-0.000,12.811 0.671,12.138 1.500,12.138 C2.329,12.138 3.000,12.811 3.000,13.640 C3.000,13.640 3.000,18.643 3.000,18.643 C3.000,19.472 2.329,20.144 1.500,20.144 ZM59.500,19.717 C58.671,19.717 58.000,19.045 58.000,18.216 C58.000,18.216 58.000,13.212 58.000,13.212 C58.000,12.383 58.671,11.711 59.500,11.711 C60.329,11.711 61.000,12.383 61.000,13.212 C61.000,13.212 61.000,18.216 61.000,18.216 C61.000,19.045 60.329,19.717 59.500,19.717 ZM1.547,10.139 C1.494,10.139 1.440,10.137 1.386,10.131 C0.562,10.043 -0.034,9.303 0.053,8.479 C0.265,6.484 1.088,4.637 2.433,3.140 C2.986,2.524 3.936,2.474 4.551,3.028 C5.167,3.582 5.218,4.531 4.664,5.148 C3.744,6.171 3.181,7.433 3.037,8.797 C2.955,9.567 2.304,10.139 1.547,10.139 ZM59.396,9.716 C58.672,9.716 58.035,9.191 57.917,8.452 C57.700,7.100 57.070,5.870 56.097,4.896 C55.511,4.309 55.511,3.358 56.097,2.772 C56.683,2.187 57.633,2.187 58.218,2.773 C59.641,4.197 60.561,5.996 60.879,7.977 C61.010,8.795 60.454,9.565 59.636,9.697 C59.555,9.709 59.475,9.716 59.396,9.716 ZM7.799,3.172 C7.108,3.172 6.486,2.691 6.334,1.987 C6.159,1.177 6.673,0.378 7.483,0.203 C8.143,0.060 8.821,-0.012 9.500,-0.012 C9.500,-0.012 12.787,-0.012 12.787,-0.012 C13.615,-0.012 14.287,0.660 14.287,1.489 C14.287,2.318 13.615,2.990 12.787,2.990 C12.787,2.990 9.500,2.990 9.500,2.990 C9.034,2.990 8.569,3.040 8.118,3.137 C8.011,3.160 7.904,3.172 7.799,3.172 ZM52.783,3.092 C52.704,3.092 52.624,3.086 52.543,3.073 C52.201,3.018 51.850,2.990 51.500,2.990 C51.500,2.990 47.787,2.990 47.787,2.990 C46.958,2.990 46.287,2.318 46.287,1.489 C46.287,0.660 46.958,-0.012 47.787,-0.012 C47.787,-0.012 51.500,-0.012 51.500,-0.012 C52.009,-0.012 52.520,0.028 53.019,0.108 C53.837,0.240 54.393,1.010 54.262,1.829 C54.143,2.567 53.506,3.092 52.783,3.092 ZM42.787,2.990 C42.787,2.990 37.787,2.990 37.787,2.990 C36.958,2.990 36.287,2.318 36.287,1.489 C36.287,0.660 36.958,-0.012 37.787,-0.012 C37.787,-0.012 42.787,-0.012 42.787,-0.012 C43.615,-0.012 44.287,0.660 44.287,1.489 C44.287,2.318 43.615,2.990 42.787,2.990 ZM32.787,2.990 C32.787,2.990 27.786,2.990 27.786,2.990 C26.958,2.990 26.286,2.318 26.286,1.489 C26.286,0.660 26.958,-0.012 27.786,-0.012 C27.786,-0.012 32.787,-0.012 32.787,-0.012 C33.615,-0.012 34.287,0.660 34.287,1.489 C34.287,2.318 33.615,2.990 32.787,2.990 ZM22.787,2.990 C22.787,2.990 17.787,2.990 17.787,2.990 C16.958,2.990 16.287,2.318 16.287,1.489 C16.287,0.660 16.958,-0.012 17.787,-0.012 C17.787,-0.012 22.787,-0.012 22.787,-0.012 C23.615,-0.012 24.287,0.660 24.287,1.489 C24.287,2.318 23.615,2.990 22.787,2.990 Z" id="path-1" class="cls-3" fill-rule="evenodd"/>
  </g>
</svg>
