<svg xmlns="http://www.w3.org/2000/svg" xmlns:xlink="http://www.w3.org/1999/xlink" preserveAspectRatio="xMidYMid" width="62" height="56" viewBox="0 0 62 56">
  <defs>
    <style>

      .cls-3 {
        fill: #81bda4;
      }

      .cls-4 {
        fill: #e56a77;
      }
    </style>
  </defs>
  <g id="group-30svg">
    <path d="M33.638,55.755 C32.810,55.755 32.138,55.083 32.138,54.254 C32.138,53.426 32.810,52.753 33.638,52.753 C35.214,52.753 36.791,52.605 38.325,52.312 C39.132,52.157 39.924,52.690 40.080,53.505 C40.235,54.320 39.701,55.105 38.888,55.261 C37.168,55.589 35.402,55.755 33.638,55.755 ZM43.397,53.888 C42.802,53.888 42.238,53.531 42.004,52.943 C41.697,52.173 42.072,51.300 42.842,50.993 C44.297,50.412 45.705,49.687 47.027,48.839 C47.726,48.392 48.653,48.595 49.100,49.293 C49.547,49.991 49.344,50.919 48.646,51.367 C47.164,52.317 45.585,53.129 43.953,53.781 C43.771,53.854 43.583,53.888 43.397,53.888 ZM51.766,48.524 C51.369,48.524 50.973,48.367 50.678,48.056 C50.107,47.454 50.132,46.504 50.733,45.933 C51.871,44.854 52.913,43.659 53.831,42.383 C54.315,41.709 55.254,41.557 55.925,42.041 C56.598,42.525 56.750,43.463 56.267,44.136 C55.239,45.565 54.072,46.902 52.798,48.112 C52.508,48.387 52.137,48.524 51.766,48.524 ZM57.565,40.448 C57.354,40.448 57.141,40.403 56.936,40.308 C56.185,39.960 55.857,39.068 56.205,38.316 C56.863,36.893 57.388,35.398 57.766,33.873 C57.965,33.069 58.773,32.577 59.583,32.777 C60.387,32.977 60.877,33.791 60.678,34.595 C60.254,36.305 59.665,37.981 58.928,39.576 C58.674,40.125 58.132,40.448 57.565,40.448 ZM59.953,30.795 C59.927,30.795 59.900,30.795 59.874,30.793 C59.047,30.750 58.411,30.044 58.454,29.216 C58.478,28.773 58.489,28.315 58.490,27.866 C58.492,27.038 59.163,26.355 59.990,26.355 C59.991,26.355 59.992,26.355 59.993,26.355 C60.821,26.355 61.492,27.044 61.490,27.872 C61.489,28.371 61.476,28.874 61.450,29.366 C61.408,30.167 60.746,30.795 59.953,30.795 Z" id="path-1" class="cls-3" fill-rule="evenodd"/>
    <path d="M59.990,29.384 C59.162,29.384 58.490,28.711 58.490,27.883 C58.490,14.169 47.342,3.011 33.638,3.011 C21.238,3.011 10.648,12.270 9.005,24.548 C8.895,25.370 8.139,25.946 7.319,25.836 C6.498,25.726 5.922,24.971 6.032,24.149 C7.874,10.387 19.741,0.009 33.638,0.009 C48.996,0.009 61.490,12.513 61.490,27.883 C61.490,28.711 60.818,29.384 59.990,29.384 Z" id="path-2" class="cls-4" fill-rule="evenodd"/>
    <path d="M6.871,18.516 C6.871,18.516 2.202,17.027 2.202,17.027 C1.096,16.674 -0.085,17.558 -0.006,18.716 C0.013,18.992 0.076,19.305 0.211,19.567 C0.211,19.567 4.464,27.798 4.464,27.798 C4.891,28.625 5.909,28.944 6.735,28.517 C6.735,28.517 14.966,24.253 14.966,24.253 C15.227,24.118 15.454,23.916 15.629,23.702 C16.363,22.802 15.910,21.397 14.805,21.045 C14.805,21.045 9.885,19.476 9.885,19.476 C9.885,19.476 6.871,18.516 6.871,18.516 Z" id="path-3" class="cls-4" fill-rule="evenodd"/>
  </g>
</svg>
