<svg xmlns="http://www.w3.org/2000/svg" xmlns:xlink="http://www.w3.org/1999/xlink" preserveAspectRatio="xMidYMid" width="61" height="61" viewBox="0 0 61 61">
  <defs>
    <style>

      .cls-3 {
        fill: #53ecf4;
      }

      .cls-4 {
        fill: #ff917b;
      }

      .cls-5 {
        fill: #edc951;
      }

      .cls-6 {
        fill: #81bda4;
      }

      .cls-8 {
        fill: #000000;
      }
    </style>
  </defs>
  <g id="group-25svg">
    <path d="M61.000,52.028 C61.000,56.449 57.418,60.033 53.000,60.033 C53.000,60.033 13.000,60.033 13.000,60.033 C8.582,60.033 5.000,56.449 5.000,52.028 C5.000,52.028 5.000,11.999 5.000,11.999 C5.000,7.578 8.582,3.994 13.000,3.994 C13.000,3.994 53.000,3.994 53.000,3.994 C57.418,3.994 61.000,7.578 61.000,11.999 C61.000,11.999 61.000,52.028 61.000,52.028 Z" id="path-1" class="cls-3" fill-rule="evenodd"/>
    <path d="M12.721,60.033 C12.721,60.033 26.000,60.033 26.000,60.033 C26.000,60.033 26.000,3.994 26.000,3.994 C26.000,3.994 12.721,3.994 12.721,3.994 C8.303,3.994 4.000,7.774 4.000,12.196 C4.000,12.196 4.000,52.224 4.000,52.224 C4.000,56.645 8.303,60.033 12.721,60.033 Z" id="path-2" class="cls-4" fill-rule="evenodd"/>
    <path d="M61.000,44.022 C61.000,44.022 45.000,44.022 45.000,44.022 C45.000,44.022 45.000,30.012 45.000,30.012 C45.000,30.012 61.000,30.012 61.000,30.012 C61.000,30.012 61.000,44.022 61.000,44.022 Z" id="path-3" class="cls-5" fill-rule="evenodd"/>
    <path d="M53.221,59.033 C53.221,59.033 45.000,59.033 45.000,59.033 C45.000,59.033 45.000,44.022 45.000,44.022 C45.000,44.022 61.000,44.022 61.000,44.022 C61.000,44.022 61.000,51.223 61.000,51.223 C61.000,55.644 57.639,59.033 53.221,59.033 Z" id="path-4" class="cls-6" fill-rule="evenodd"/>
    <path d="M53.221,3.994 C53.221,3.994 45.000,3.994 45.000,3.994 C45.000,3.994 45.000,31.013 45.000,31.013 C45.000,31.013 61.000,31.013 61.000,31.013 C61.000,31.013 61.000,11.695 61.000,11.695 C61.000,7.274 57.639,3.994 53.221,3.994 Z" id="path-5" class="cls-4" fill-rule="evenodd"/>
    <path d="M49.500,59.033 C49.500,59.033 9.500,59.033 9.500,59.033 C4.262,59.033 -0.000,54.768 -0.000,49.526 C-0.000,49.526 -0.000,9.498 -0.000,9.498 C-0.000,4.256 4.262,-0.009 9.500,-0.009 C9.500,-0.009 49.500,-0.009 49.500,-0.009 C54.738,-0.009 59.000,4.256 59.000,9.498 C59.000,9.498 59.000,49.526 59.000,49.526 C59.000,54.768 54.738,59.033 49.500,59.033 ZM9.500,2.993 C5.916,2.993 3.000,5.911 3.000,9.498 C3.000,9.498 3.000,49.526 3.000,49.526 C3.000,53.112 5.916,56.031 9.500,56.031 C9.500,56.031 49.500,56.031 49.500,56.031 C53.084,56.031 56.000,53.112 56.000,49.526 C56.000,49.526 56.000,9.498 56.000,9.498 C56.000,5.911 53.084,2.993 49.500,2.993 C49.500,2.993 9.500,2.993 9.500,2.993 Z" id="path-6" class="cls-8" fill-rule="evenodd"/>
    <path d="M40.500,58.532 C39.671,58.532 39.000,57.860 39.000,57.031 C39.000,57.031 39.000,1.992 39.000,1.992 C39.000,1.163 39.671,0.491 40.500,0.491 C41.329,0.491 42.000,1.163 42.000,1.992 C42.000,1.992 42.000,57.031 42.000,57.031 C42.000,57.860 41.329,58.532 40.500,58.532 Z" id="path-7" class="cls-8" fill-rule="evenodd"/>
    <path d="M23.500,58.532 C22.671,58.532 22.000,57.860 22.000,57.031 C22.000,57.031 22.000,1.992 22.000,1.992 C22.000,1.163 22.671,0.491 23.500,0.491 C24.329,0.491 25.000,1.163 25.000,1.992 C25.000,1.992 25.000,57.031 25.000,57.031 C25.000,57.860 24.329,58.532 23.500,58.532 Z" id="path-8" class="cls-8" fill-rule="evenodd"/>
    <path d="M57.000,30.012 C57.000,30.012 41.000,30.012 41.000,30.012 C40.171,30.012 39.500,29.340 39.500,28.511 C39.500,27.682 40.171,27.010 41.000,27.010 C41.000,27.010 57.000,27.010 57.000,27.010 C57.829,27.010 58.500,27.682 58.500,28.511 C58.500,29.340 57.829,30.012 57.000,30.012 Z" id="path-9" class="cls-8" fill-rule="evenodd"/>
    <path d="M57.000,43.021 C57.000,43.021 41.000,43.021 41.000,43.021 C40.171,43.021 39.500,42.349 39.500,41.520 C39.500,40.691 40.171,40.019 41.000,40.019 C41.000,40.019 57.000,40.019 57.000,40.019 C57.829,40.019 58.500,40.691 58.500,41.520 C58.500,42.349 57.829,43.021 57.000,43.021 Z" id="path-10" class="cls-8" fill-rule="evenodd"/>
  </g>
</svg>
