<svg xmlns="http://www.w3.org/2000/svg" xmlns:xlink="http://www.w3.org/1999/xlink" preserveAspectRatio="xMidYMid" width="62" height="56" viewBox="0 0 62 56">
  <defs>
    <style>

      .cls-3 {
        fill: #81bda4;
      }

      .cls-4 {
        fill: #e56a77;
      }
    </style>
  </defs>
  <g id="group-29svg">
    <path d="M27.856,55.744 C26.092,55.744 24.326,55.578 22.606,55.250 C21.793,55.094 21.259,54.308 21.414,53.494 C21.570,52.679 22.360,52.145 23.169,52.300 C24.703,52.594 26.280,52.742 27.856,52.742 C28.685,52.742 29.356,53.414 29.356,54.243 C29.356,55.072 28.685,55.744 27.856,55.744 ZM18.097,53.877 C17.911,53.877 17.724,53.843 17.541,53.770 C15.909,53.119 14.331,52.307 12.848,51.356 C12.150,50.909 11.947,49.981 12.395,49.282 C12.841,48.583 13.770,48.381 14.467,48.828 C15.789,49.676 17.197,50.401 18.652,50.982 C19.422,51.289 19.797,52.162 19.490,52.932 C19.256,53.520 18.692,53.877 18.097,53.877 ZM9.728,48.513 C9.356,48.513 8.985,48.376 8.695,48.101 C7.422,46.893 6.254,45.555 5.226,44.126 C4.742,43.453 4.894,42.515 5.567,42.031 C6.238,41.546 7.178,41.699 7.661,42.372 C8.579,43.649 9.622,44.844 10.760,45.922 C11.360,46.493 11.386,47.443 10.816,48.045 C10.521,48.356 10.125,48.513 9.728,48.513 ZM3.929,40.437 C3.362,40.437 2.820,40.115 2.566,39.566 C1.829,37.971 1.240,36.295 0.816,34.585 C0.617,33.780 1.107,32.967 1.911,32.767 C2.725,32.567 3.529,33.058 3.728,33.863 C4.106,35.388 4.631,36.882 5.289,38.305 C5.637,39.058 5.310,39.950 4.558,40.298 C4.353,40.393 4.140,40.437 3.929,40.437 ZM1.539,30.785 C0.746,30.785 0.084,30.163 0.042,29.362 C0.017,28.868 0.003,28.371 0.003,27.871 C0.003,27.042 0.675,26.370 1.503,26.370 C2.331,26.370 3.003,27.042 3.003,27.871 C3.003,28.319 3.015,28.764 3.038,29.206 C3.081,30.033 2.445,30.739 1.618,30.783 C1.592,30.784 1.565,30.785 1.539,30.785 Z" id="path-1" class="cls-3" fill-rule="evenodd"/>
    <path d="M1.503,29.372 C0.675,29.372 0.003,28.700 0.003,27.871 C0.003,12.502 12.498,-0.002 27.856,-0.002 C41.752,-0.002 53.619,10.376 55.461,24.138 C55.571,24.960 54.995,25.715 54.174,25.825 C53.353,25.935 52.598,25.359 52.488,24.537 C50.845,12.259 40.256,3.000 27.856,3.000 C14.152,3.000 3.003,14.157 3.003,27.871 C3.003,28.700 2.331,29.372 1.503,29.372 Z" id="path-2" class="cls-4" fill-rule="evenodd"/>
    <path d="M54.622,18.505 C54.622,18.505 59.291,17.016 59.291,17.016 C60.397,16.663 61.578,17.546 61.499,18.705 C61.480,18.981 61.417,19.294 61.282,19.556 C61.282,19.556 57.029,27.786 57.029,27.786 C56.602,28.613 55.584,28.933 54.758,28.505 C54.758,28.505 46.528,24.242 46.528,24.242 C46.267,24.106 46.040,23.905 45.864,23.691 C45.131,22.791 45.583,21.386 46.688,21.034 C46.688,21.034 51.609,19.465 51.609,19.465 C51.609,19.465 54.622,18.505 54.622,18.505 Z" id="path-3" class="cls-4" fill-rule="evenodd"/>
  </g>
</svg>
