<svg xmlns="http://www.w3.org/2000/svg" xmlns:xlink="http://www.w3.org/1999/xlink" preserveAspectRatio="xMidYMid" width="65" height="63" viewBox="0 0 65 63">
  <defs>
    <style>

      .cls-3 {
        fill: #e56a77;
      }

      .cls-4 {
        fill: #81bda4;
      }

      .cls-6 {
        fill: #000000;
      }
    </style>
  </defs>
  <g id="group-41svg">
    <path d="M54.138,18.104 C54.005,18.104 53.869,18.086 53.734,18.048 C53.734,18.048 45.429,15.725 45.429,15.725 C44.631,15.502 44.165,14.674 44.388,13.876 C44.611,13.077 45.436,12.610 46.236,12.834 C46.236,12.834 53.131,14.762 53.131,14.762 C53.131,14.762 55.196,7.996 55.196,7.996 C55.437,7.203 56.274,6.757 57.069,6.999 C57.861,7.241 58.308,8.080 58.065,8.873 C58.065,8.873 55.572,17.041 55.572,17.041 C55.375,17.686 54.782,18.104 54.138,18.104 Z" id="path-1" class="cls-3" fill-rule="evenodd"/>
    <path d="M45.625,53.244 C45.625,55.334 48.357,56.878 50.299,56.110 C50.763,55.926 51.517,55.647 51.892,55.273 C51.892,55.273 62.472,44.845 62.472,44.845 C64.412,42.904 64.490,39.758 62.551,37.817 C62.551,37.817 52.172,27.392 52.172,27.392 C51.797,27.016 50.743,26.737 50.279,26.554 C48.337,25.786 45.625,27.330 45.625,29.420 C45.625,29.420 45.625,53.244 45.625,53.244 Z" id="path-2" class="cls-4" fill-rule="evenodd"/>
    <path d="M21.625,53.244 C21.625,55.334 19.533,56.878 17.590,56.110 C17.126,55.926 16.692,55.647 16.317,55.273 C16.317,55.273 5.897,44.845 5.897,44.845 C3.957,42.904 3.959,39.758 5.898,37.817 C5.898,37.817 16.317,27.392 16.317,27.392 C16.692,27.016 17.126,26.737 17.590,26.554 C19.533,25.786 21.625,27.330 21.625,29.420 C21.625,29.420 21.625,53.244 21.625,53.244 Z" id="path-3" class="cls-4" fill-rule="evenodd"/>
    <path d="M46.477,56.810 C46.477,56.810 46.476,56.810 46.476,56.810 C43.847,56.810 41.625,54.718 41.625,52.243 C41.625,52.243 41.625,28.420 41.625,28.420 C41.625,25.944 43.841,23.852 46.465,23.852 C47.030,23.852 47.576,23.954 48.088,24.157 C48.088,24.157 48.268,24.227 48.268,24.227 C48.871,24.459 49.696,24.777 50.249,25.329 C50.249,25.329 60.644,35.756 60.644,35.756 C61.865,36.978 62.529,38.608 62.513,40.344 C62.497,42.064 61.816,43.684 60.595,44.905 C60.595,44.905 50.073,55.338 50.073,55.338 C49.499,55.912 48.672,56.279 48.100,56.505 C47.588,56.708 47.041,56.810 46.477,56.810 ZM46.465,26.854 C45.632,26.854 44.625,27.552 44.625,28.420 C44.625,28.420 44.625,52.243 44.625,52.243 C44.625,53.110 45.638,53.808 46.477,53.808 C46.477,53.808 46.477,53.808 46.477,53.808 C46.663,53.808 46.838,53.776 46.998,53.713 C47.678,53.444 47.895,53.272 47.956,53.210 C47.956,53.210 58.479,42.777 58.479,42.777 C59.135,42.121 59.504,41.245 59.513,40.317 C59.521,39.393 59.169,38.526 58.521,37.878 C58.521,37.878 48.125,27.451 48.125,27.451 C47.983,27.334 47.428,27.120 47.190,27.029 C47.190,27.029 46.986,26.949 46.986,26.949 C46.826,26.886 46.651,26.854 46.465,26.854 Z" id="path-4" class="cls-6" fill-rule="evenodd"/>
    <path d="M15.901,56.810 C15.344,56.810 14.801,56.708 14.289,56.505 C13.481,56.186 12.839,55.791 12.381,55.333 C12.381,55.333 1.902,44.909 1.902,44.909 C0.678,43.684 0.000,42.063 -0.010,40.339 C-0.020,38.606 0.647,36.978 1.869,35.755 C1.869,35.755 12.271,25.330 12.271,25.330 C12.812,24.790 13.563,24.447 14.296,24.157 C14.809,23.954 15.352,23.852 15.909,23.852 C18.465,23.852 20.625,25.944 20.625,28.420 C20.625,28.420 20.625,52.243 20.625,52.243 C20.625,54.719 18.462,56.810 15.901,56.810 ZM15.909,26.854 C15.730,26.854 15.559,26.886 15.399,26.949 C14.712,27.221 14.474,27.372 14.394,27.452 C14.394,27.452 3.991,37.877 3.991,37.877 C3.340,38.529 2.985,39.397 2.990,40.322 C2.996,41.249 3.361,42.123 4.020,42.782 C4.020,42.782 14.500,53.207 14.500,53.207 C14.562,53.269 14.799,53.479 15.391,53.713 C16.268,54.059 17.625,53.322 17.625,52.243 C17.625,52.243 17.625,28.420 17.625,28.420 C17.625,27.538 16.702,26.854 15.909,26.854 Z" id="path-5" class="cls-6" fill-rule="evenodd"/>
    <path d="M30.125,63.188 C29.296,63.188 28.625,62.516 28.625,61.687 C28.625,61.687 28.625,17.656 28.625,17.656 C28.625,16.827 29.296,16.155 30.125,16.155 C30.954,16.155 31.625,16.827 31.625,17.656 C31.625,17.656 31.625,61.687 31.625,61.687 C31.625,62.516 30.954,63.188 30.125,63.188 Z" id="path-6" class="cls-6" fill-rule="evenodd"/>
    <path d="M52.600,15.221 C52.118,15.221 51.645,14.989 51.355,14.560 C51.007,14.044 50.635,13.533 50.248,13.040 C49.736,12.388 49.850,11.444 50.501,10.933 C51.153,10.420 52.096,10.534 52.607,11.186 C53.038,11.735 53.453,12.305 53.841,12.880 C54.305,13.567 54.124,14.500 53.437,14.964 C53.180,15.138 52.888,15.221 52.600,15.221 ZM7.962,13.503 C7.635,13.503 7.306,13.397 7.030,13.178 C6.381,12.663 6.273,11.718 6.788,11.069 C7.878,9.695 9.098,8.412 10.415,7.255 C11.038,6.708 11.985,6.769 12.532,7.393 C13.079,8.015 13.017,8.964 12.394,9.511 C11.212,10.549 10.116,11.702 9.138,12.935 C8.842,13.309 8.404,13.503 7.962,13.503 ZM48.003,9.977 C47.649,9.977 47.294,9.853 47.009,9.600 C45.830,8.553 44.551,7.610 43.207,6.794 C42.499,6.364 42.273,5.440 42.703,4.732 C43.133,4.023 44.054,3.797 44.764,4.227 C46.261,5.136 47.686,6.188 48.999,7.353 C49.619,7.903 49.676,8.852 49.126,9.472 C48.830,9.806 48.417,9.977 48.003,9.977 ZM15.439,6.939 C14.929,6.939 14.432,6.679 14.151,6.209 C13.725,5.499 13.956,4.577 14.666,4.150 C16.172,3.247 17.767,2.476 19.406,1.861 C20.179,1.570 21.046,1.962 21.337,2.739 C21.628,3.515 21.236,4.380 20.460,4.671 C18.990,5.223 17.560,5.914 16.209,6.725 C15.967,6.870 15.702,6.939 15.439,6.939 ZM39.499,4.817 C39.322,4.817 39.142,4.786 38.966,4.718 C37.497,4.159 35.968,3.730 34.420,3.445 C33.605,3.295 33.067,2.513 33.217,1.697 C33.366,0.882 34.146,0.342 34.963,0.493 C36.689,0.811 38.395,1.289 40.034,1.913 C40.808,2.208 41.197,3.075 40.902,3.850 C40.674,4.449 40.104,4.817 39.499,4.817 ZM24.745,3.445 C24.032,3.445 23.400,2.935 23.270,2.208 C23.124,1.392 23.667,0.612 24.482,0.466 C26.177,0.163 27.916,0.009 29.651,0.009 C29.651,0.009 29.721,1.328 29.721,1.328 C29.721,1.328 29.713,2.645 29.713,2.645 C29.712,2.645 29.711,2.645 29.711,2.645 C28.091,2.645 26.531,2.966 25.011,3.239 C24.921,3.254 24.832,3.445 24.745,3.445 Z" id="path-7" class="cls-3" fill-rule="evenodd"/>
  </g>
</svg>
