<svg xmlns="http://www.w3.org/2000/svg" xmlns:xlink="http://www.w3.org/1999/xlink" preserveAspectRatio="xMidYMid" width="63" height="63" viewBox="0 0 63 63">
  <defs>
    <style>

      .cls-3 {
        fill: #edc951;
      }

      .cls-4 {
        fill: #e56a77;
      }

      .cls-8 {
        fill: #000000;
      }
    </style>
  </defs>
  <g id="group-33svg">
    <path d="M47.500,46.520 C47.500,46.520 21.500,46.520 21.500,46.520 C21.500,46.520 21.500,20.502 21.500,20.502 C21.500,20.502 47.500,20.502 47.500,20.502 C47.500,20.502 47.500,46.520 47.500,46.520 Z" id="path-1" class="cls-3" fill-rule="evenodd"/>
    <path d="M55.000,63.032 C54.172,63.032 53.500,62.360 53.500,61.531 C53.500,61.531 53.500,1.489 53.500,1.489 C53.500,0.659 54.172,-0.013 55.000,-0.013 C55.828,-0.013 56.500,0.659 56.500,1.489 C56.500,1.489 56.500,61.531 56.500,61.531 C56.500,62.360 55.828,63.032 55.000,63.032 Z" id="path-2" class="cls-4" fill-rule="evenodd"/>
    <path d="M8.000,63.032 C7.172,63.032 6.500,62.360 6.500,61.531 C6.500,61.531 6.500,1.489 6.500,1.489 C6.500,0.659 7.172,-0.013 8.000,-0.013 C8.828,-0.013 9.500,0.659 9.500,1.489 C9.500,1.489 9.500,61.531 9.500,61.531 C9.500,62.360 8.828,63.032 8.000,63.032 Z" id="path-3" class="cls-4" fill-rule="evenodd"/>
    <path d="M61.500,56.527 C61.500,56.527 1.500,56.527 1.500,56.527 C0.672,56.527 -0.000,55.855 -0.000,55.026 C-0.000,54.197 0.672,53.525 1.500,53.525 C1.500,53.525 61.500,53.525 61.500,53.525 C62.328,53.525 63.000,54.197 63.000,55.026 C63.000,55.855 62.328,56.527 61.500,56.527 Z" id="path-4" class="cls-4" fill-rule="evenodd"/>
    <path d="M61.500,9.494 C61.500,9.494 1.500,9.494 1.500,9.494 C0.672,9.494 -0.000,8.822 -0.000,7.993 C-0.000,7.164 0.672,6.492 1.500,6.492 C1.500,6.492 61.500,6.492 61.500,6.492 C62.328,6.492 63.000,7.164 63.000,7.993 C63.000,8.822 62.328,9.494 61.500,9.494 Z" id="path-5" class="cls-4" fill-rule="evenodd"/>
    <path d="M44.000,46.520 C44.000,46.520 18.000,46.520 18.000,46.520 C17.172,46.520 16.500,45.848 16.500,45.019 C16.500,45.019 16.500,19.001 16.500,19.001 C16.500,18.172 17.172,17.500 18.000,17.500 C18.000,17.500 44.000,17.500 44.000,17.500 C44.828,17.500 45.500,18.172 45.500,19.001 C45.500,19.001 45.500,45.019 45.500,45.019 C45.500,45.848 44.828,46.520 44.000,46.520 ZM19.500,43.518 C19.500,43.518 42.500,43.518 42.500,43.518 C42.500,43.518 42.500,20.502 42.500,20.502 C42.500,20.502 19.500,20.502 19.500,20.502 C19.500,20.502 19.500,43.518 19.500,43.518 Z" id="path-6" class="cls-8" fill-rule="evenodd"/>
  </g>
</svg>
