<svg xmlns="http://www.w3.org/2000/svg" xmlns:xlink="http://www.w3.org/1999/xlink" preserveAspectRatio="xMidYMid" width="63" height="57" viewBox="0 0 63 57">
  <defs>
    <style>

      .cls-3 {
        fill: #81bda4;
      }

      .cls-7 {
        fill: #e56a77;
      }
    </style>
  </defs>
  <g id="group-40svg">
    <path d="M5.000,7.495 C5.000,7.495 1.500,7.495 1.500,7.495 C0.671,7.495 -0.000,6.823 -0.000,5.994 C-0.000,5.165 0.671,4.493 1.500,4.493 C1.500,4.493 3.500,4.493 3.500,4.493 C3.500,4.493 3.500,1.491 3.500,1.491 C3.500,0.661 4.171,-0.010 5.000,-0.010 C5.829,-0.010 6.500,0.661 6.500,1.491 C6.500,1.491 6.500,5.994 6.500,5.994 C6.500,6.823 5.829,7.495 5.000,7.495 Z" id="path-1" class="cls-3" fill-rule="evenodd"/>
    <path d="M61.500,7.495 C61.500,7.495 57.000,7.495 57.000,7.495 C56.171,7.495 55.500,6.823 55.500,5.994 C55.500,5.994 55.500,1.491 55.500,1.491 C55.500,0.661 56.171,-0.010 57.000,-0.010 C57.829,-0.010 58.500,0.661 58.500,1.491 C58.500,1.491 58.500,4.493 58.500,4.493 C58.500,4.493 61.500,4.493 61.500,4.493 C62.329,4.493 63.000,5.165 63.000,5.994 C63.000,6.823 62.329,7.495 61.500,7.495 Z" id="path-2" class="cls-3" fill-rule="evenodd"/>
    <path d="M57.000,57.030 C56.171,57.030 55.500,56.358 55.500,55.529 C55.500,55.529 55.500,52.026 55.500,52.026 C55.500,51.197 56.171,50.525 57.000,50.525 C57.000,50.525 61.500,50.525 61.500,50.525 C62.329,50.525 63.000,51.197 63.000,52.026 C63.000,52.855 62.329,53.527 61.500,53.527 C61.500,53.527 58.500,53.527 58.500,53.527 C58.500,53.527 58.500,55.529 58.500,55.529 C58.500,56.358 57.829,57.030 57.000,57.030 Z" id="path-3" class="cls-3" fill-rule="evenodd"/>
    <path d="M5.000,57.030 C4.171,57.030 3.500,56.358 3.500,55.529 C3.500,55.529 3.500,53.527 3.500,53.527 C3.500,53.527 1.500,53.527 1.500,53.527 C0.671,53.527 -0.000,52.855 -0.000,52.026 C-0.000,51.197 0.671,50.525 1.500,50.525 C1.500,50.525 5.000,50.525 5.000,50.525 C5.829,50.525 6.500,51.197 6.500,52.026 C6.500,52.026 6.500,55.529 6.500,55.529 C6.500,56.358 5.829,57.030 5.000,57.030 Z" id="path-4" class="cls-3" fill-rule="evenodd"/>
    <path d="M47.001,54.528 C47.000,54.528 47.000,54.528 47.000,54.528 C47.000,54.528 44.571,54.528 44.571,54.528 C43.743,54.528 43.071,53.856 43.071,53.027 C43.071,52.198 43.743,51.526 44.571,51.526 C44.571,51.526 47.000,51.526 47.000,51.526 C47.000,51.526 47.000,51.526 47.001,51.526 C47.704,51.526 48.394,51.415 49.054,51.195 C49.839,50.934 50.689,51.359 50.950,52.146 C51.211,52.933 50.786,53.783 50.000,54.044 C49.035,54.365 48.026,54.528 47.001,54.528 ZM39.571,54.528 C39.571,54.528 34.571,54.528 34.571,54.528 C33.743,54.528 33.071,53.856 33.071,53.027 C33.071,52.198 33.743,51.526 34.571,51.526 C34.571,51.526 39.571,51.526 39.571,51.526 C40.400,51.526 41.071,52.198 41.071,53.027 C41.071,53.856 40.400,54.528 39.571,54.528 ZM29.571,54.528 C29.571,54.528 24.571,54.528 24.571,54.528 C23.743,54.528 23.071,53.856 23.071,53.027 C23.071,52.198 23.743,51.526 24.571,51.526 C24.571,51.526 29.571,51.526 29.571,51.526 C30.400,51.526 31.071,52.198 31.071,53.027 C31.071,53.856 30.400,54.528 29.571,54.528 ZM19.571,54.528 C19.571,54.528 15.000,54.528 15.000,54.528 C14.830,54.528 14.661,54.524 14.493,54.515 C13.666,54.472 13.030,53.765 13.073,52.937 C13.117,52.109 13.831,51.471 14.650,51.517 C14.766,51.523 14.883,51.526 15.000,51.526 C15.000,51.526 19.571,51.526 19.571,51.526 C20.400,51.526 21.071,52.198 21.071,53.027 C21.071,53.856 20.400,54.528 19.571,54.528 ZM9.979,52.756 C9.648,52.756 9.315,52.647 9.038,52.423 C7.472,51.159 6.364,49.468 5.836,47.535 C5.617,46.736 6.088,45.910 6.887,45.692 C7.686,45.473 8.511,45.943 8.729,46.743 C9.091,48.064 9.849,49.221 10.922,50.087 C11.566,50.607 11.667,51.552 11.147,52.197 C10.851,52.565 10.417,52.756 9.979,52.756 ZM53.488,51.205 C53.184,51.205 52.877,51.113 52.611,50.921 C51.940,50.435 51.789,49.497 52.274,48.825 C53.076,47.714 53.500,46.398 53.500,45.021 C53.500,44.192 54.171,43.520 55.000,43.520 C55.829,43.520 56.500,44.192 56.500,45.021 C56.500,47.034 55.879,48.956 54.706,50.583 C54.413,50.989 53.954,51.205 53.488,51.205 ZM7.000,43.663 C6.171,43.663 5.500,42.991 5.500,42.162 C5.500,42.162 5.500,37.158 5.500,37.158 C5.500,36.329 6.171,35.657 7.000,35.657 C7.829,35.657 8.500,36.329 8.500,37.158 C8.500,37.158 8.500,42.162 8.500,42.162 C8.500,42.991 7.829,43.663 7.000,43.663 ZM55.000,43.235 C54.171,43.235 53.500,42.563 53.500,41.734 C53.500,41.734 53.500,36.730 53.500,36.730 C53.500,35.902 54.171,35.229 55.000,35.229 C55.829,35.229 56.500,35.902 56.500,36.730 C56.500,36.730 56.500,41.734 56.500,41.734 C56.500,42.563 55.829,43.235 55.000,43.235 ZM7.000,33.655 C6.171,33.655 5.500,32.984 5.500,32.154 C5.500,32.154 5.500,27.151 5.500,27.151 C5.500,26.322 6.171,25.650 7.000,25.650 C7.829,25.650 8.500,26.322 8.500,27.151 C8.500,27.151 8.500,32.154 8.500,32.154 C8.500,32.984 7.829,33.655 7.000,33.655 ZM55.000,33.228 C54.171,33.228 53.500,32.556 53.500,31.727 C53.500,31.727 53.500,26.723 53.500,26.723 C53.500,25.895 54.171,25.222 55.000,25.222 C55.829,25.222 56.500,25.895 56.500,26.723 C56.500,26.723 56.500,31.727 56.500,31.727 C56.500,32.556 55.829,33.228 55.000,33.228 ZM7.000,23.648 C6.171,23.648 5.500,22.977 5.500,22.147 C5.500,22.147 5.500,17.144 5.500,17.144 C5.500,16.315 6.171,15.643 7.000,15.643 C7.829,15.643 8.500,16.315 8.500,17.144 C8.500,17.144 8.500,22.147 8.500,22.147 C8.500,22.977 7.829,23.648 7.000,23.648 ZM55.000,23.221 C54.171,23.221 53.500,22.549 53.500,21.720 C53.500,21.720 53.500,16.716 53.500,16.716 C53.500,15.888 54.171,15.215 55.000,15.215 C55.829,15.215 56.500,15.888 56.500,16.716 C56.500,16.716 56.500,21.720 56.500,21.720 C56.500,22.549 55.829,23.221 55.000,23.221 ZM7.047,13.644 C6.994,13.644 6.940,13.641 6.886,13.635 C6.062,13.548 5.466,12.808 5.553,11.983 C5.765,9.988 6.588,8.141 7.933,6.645 C8.486,6.028 9.435,5.978 10.051,6.532 C10.667,7.086 10.718,8.035 10.164,8.652 C9.244,9.676 8.681,10.938 8.537,12.301 C8.455,13.072 7.804,13.644 7.047,13.644 ZM54.896,13.220 C54.172,13.220 53.535,12.695 53.417,11.957 C53.200,10.605 52.570,9.374 51.597,8.400 C51.011,7.813 51.011,6.863 51.597,6.277 C52.183,5.691 53.133,5.691 53.718,6.277 C55.141,7.702 56.061,9.501 56.379,11.481 C56.510,12.299 55.954,13.070 55.136,13.201 C55.055,13.214 54.975,13.220 54.896,13.220 ZM13.299,6.676 C12.608,6.676 11.986,6.195 11.834,5.492 C11.659,4.681 12.173,3.882 12.983,3.707 C13.643,3.564 14.321,3.492 15.000,3.492 C15.000,3.492 18.286,3.492 18.286,3.492 C19.115,3.492 19.786,4.164 19.786,4.993 C19.786,5.822 19.115,6.494 18.286,6.494 C18.286,6.494 15.000,6.494 15.000,6.494 C14.534,6.494 14.069,6.544 13.618,6.641 C13.511,6.664 13.404,6.676 13.299,6.676 ZM48.283,6.596 C48.204,6.596 48.123,6.590 48.043,6.577 C47.701,6.522 47.350,6.494 47.000,6.494 C47.000,6.494 43.286,6.494 43.286,6.494 C42.457,6.494 41.786,5.822 41.786,4.993 C41.786,4.164 42.457,3.492 43.286,3.492 C43.286,3.492 47.000,3.492 47.000,3.492 C47.509,3.492 48.020,3.533 48.518,3.613 C49.337,3.745 49.893,4.515 49.762,5.333 C49.643,6.071 49.006,6.596 48.283,6.596 ZM38.286,6.494 C38.286,6.494 33.286,6.494 33.286,6.494 C32.458,6.494 31.786,5.822 31.786,4.993 C31.786,4.164 32.458,3.492 33.286,3.492 C33.286,3.492 38.286,3.492 38.286,3.492 C39.115,3.492 39.786,4.164 39.786,4.993 C39.786,5.822 39.115,6.494 38.286,6.494 ZM28.286,6.494 C28.286,6.494 23.286,6.494 23.286,6.494 C22.457,6.494 21.786,5.822 21.786,4.993 C21.786,4.164 22.457,3.492 23.286,3.492 C23.286,3.492 28.286,3.492 28.286,3.492 C29.115,3.492 29.786,4.164 29.786,4.993 C29.786,5.822 29.115,6.494 28.286,6.494 Z" id="path-5" class="cls-7" fill-rule="evenodd"/>
  </g>
</svg>
