<svg xmlns="http://www.w3.org/2000/svg" xmlns:xlink="http://www.w3.org/1999/xlink" preserveAspectRatio="xMidYMid" width="60" height="60" viewBox="0 0 60 60">
  <defs>
    <style>

      .cls-3 {
        fill: #edc951;
      }

      .cls-4 {
        fill: #000000;
      }
    </style>
  </defs>
  <g id="group-15svg">
    <path d="M60.000,51.029 C60.000,55.451 56.418,59.035 52.000,59.035 C52.000,59.035 13.000,59.035 13.000,59.035 C8.582,59.035 5.000,55.451 5.000,51.029 C5.000,51.029 5.000,12.002 5.000,12.002 C5.000,7.580 8.582,3.996 13.000,3.996 C13.000,3.996 52.000,3.996 52.000,3.996 C56.418,3.996 60.000,7.580 60.000,12.002 C60.000,12.002 60.000,51.029 60.000,51.029 Z" id="path-1" class="cls-3" fill-rule="evenodd"/>
    <path d="M48.500,58.034 C48.500,58.034 9.500,58.034 9.500,58.034 C4.262,58.034 -0.000,53.770 -0.000,48.528 C-0.000,48.528 -0.000,9.500 -0.000,9.500 C-0.000,4.258 4.262,-0.007 9.500,-0.007 C9.500,-0.007 48.500,-0.007 48.500,-0.007 C53.738,-0.007 58.000,4.258 58.000,9.500 C58.000,9.500 58.000,48.528 58.000,48.528 C58.000,53.770 53.738,58.034 48.500,58.034 ZM9.500,2.995 C5.916,2.995 3.000,5.913 3.000,9.500 C3.000,9.500 3.000,48.528 3.000,48.528 C3.000,52.114 5.916,55.032 9.500,55.032 C9.500,55.032 48.500,55.032 48.500,55.032 C52.084,55.032 55.000,52.114 55.000,48.528 C55.000,48.528 55.000,9.500 55.000,9.500 C55.000,5.913 52.084,2.995 48.500,2.995 C48.500,2.995 9.500,2.995 9.500,2.995 Z" id="path-2" class="cls-4" fill-rule="evenodd"/>
    <path d="M56.964,41.650 C56.781,41.650 56.594,41.616 56.413,41.545 C56.353,41.521 50.299,39.144 45.460,38.810 C41.484,38.534 16.526,40.544 3.882,41.644 C3.061,41.715 2.330,41.105 2.258,40.279 C2.187,39.453 2.797,38.725 3.623,38.653 C5.125,38.523 40.477,35.458 45.666,35.815 C50.976,36.181 57.252,38.648 57.517,38.754 C58.287,39.058 58.664,39.930 58.359,40.701 C58.126,41.290 57.562,41.650 56.964,41.650 Z" id="path-3" class="cls-4" fill-rule="evenodd"/>
    <path d="M20.229,24.630 C14.410,24.630 3.778,21.510 3.328,21.377 C2.533,21.143 2.080,20.308 2.314,19.513 C2.548,18.718 3.383,18.264 4.177,18.498 C4.283,18.529 14.843,21.628 20.229,21.628 C25.757,21.628 56.439,18.476 56.749,18.445 C57.560,18.361 58.309,18.960 58.394,19.785 C58.478,20.609 57.879,21.346 57.055,21.431 C55.786,21.562 25.910,24.630 20.229,24.630 Z" id="path-4" class="cls-4" fill-rule="evenodd"/>
    <path d="M40.424,57.138 C39.695,57.138 39.055,56.605 38.943,55.861 C38.805,54.949 35.560,33.451 35.560,27.029 C35.560,20.584 38.812,2.865 38.951,2.114 C39.101,1.299 39.883,0.759 40.698,0.910 C41.513,1.060 42.051,1.843 41.901,2.658 C41.868,2.839 38.560,20.857 38.560,27.029 C38.560,33.227 41.875,55.190 41.909,55.411 C42.033,56.231 41.470,56.996 40.650,57.121 C40.574,57.132 40.498,57.138 40.424,57.138 Z" id="path-5" class="cls-4" fill-rule="evenodd"/>
    <path d="M21.728,55.687 C21.728,55.687 18.730,55.586 18.730,55.586 C18.730,55.586 20.020,17.231 20.147,13.329 C20.267,9.656 18.778,2.775 18.764,2.706 C18.587,1.896 19.100,1.096 19.910,0.919 C20.715,0.743 21.518,1.256 21.694,2.066 C21.759,2.363 23.278,9.385 23.145,13.427 C23.018,17.329 21.728,55.687 21.728,55.687 Z" id="path-6" class="cls-4" fill-rule="evenodd"/>
  </g>
</svg>
