<svg xmlns="http://www.w3.org/2000/svg" xmlns:xlink="http://www.w3.org/1999/xlink" preserveAspectRatio="xMidYMid" width="49" height="65" viewBox="0 0 49 65">
  <defs>
    <style>

      .cls-3 {
        fill: #e56a77;
      }

      .cls-4 {
        fill: #81bda4;
      }

      .cls-6 {
        fill: #000000;
      }
    </style>
  </defs>
  <g id="group-18svg">
    <path d="M36.000,56.437 C36.000,60.859 32.418,64.443 28.000,64.443 C28.000,64.443 14.000,64.443 14.000,64.443 C9.582,64.443 6.000,60.859 6.000,56.437 C6.000,56.437 6.000,27.416 6.000,27.416 C6.000,22.995 9.582,19.411 14.000,19.411 C14.000,19.411 28.000,19.411 28.000,19.411 C32.418,19.411 36.000,22.995 36.000,27.416 C36.000,27.416 36.000,56.437 36.000,56.437 Z" id="path-1" class="cls-3" fill-rule="evenodd"/>
    <path d="M35.000,56.437 C35.000,56.437 32.244,56.437 32.244,56.437 C28.155,56.437 24.000,52.851 24.000,48.760 C24.000,48.760 24.000,33.941 24.000,33.941 C24.000,29.848 28.155,27.416 32.244,27.416 C32.244,27.416 35.000,27.416 35.000,27.416 C35.000,27.416 35.000,27.416 35.000,27.416 " id="path-2" class="cls-4" fill-rule="evenodd"/>
    <path d="M15.000,18.410 C15.000,18.410 15.000,12.939 15.000,12.939 C15.000,11.416 16.857,9.404 18.381,9.404 C18.381,9.404 23.895,9.404 23.895,9.404 C25.418,9.404 26.000,11.416 26.000,12.939 C26.000,12.939 26.000,18.410 26.000,18.410 C26.000,18.410 26.000,18.410 26.000,18.410 " id="path-3" class="cls-4" fill-rule="evenodd"/>
    <path d="M23.500,63.442 C23.500,63.442 9.500,63.442 9.500,63.442 C4.262,63.442 -0.000,59.177 -0.000,53.935 C-0.000,53.935 -0.000,24.915 -0.000,24.915 C-0.000,19.673 4.262,15.408 9.500,15.408 C9.500,15.408 23.500,15.408 23.500,15.408 C28.738,15.408 33.000,19.673 33.000,24.915 C33.000,24.915 33.000,53.935 33.000,53.935 C33.000,59.177 28.738,63.442 23.500,63.442 ZM9.500,18.410 C5.916,18.410 3.000,21.328 3.000,24.915 C3.000,24.915 3.000,53.935 3.000,53.935 C3.000,57.522 5.916,60.440 9.500,60.440 C9.500,60.440 23.500,60.440 23.500,60.440 C27.084,60.440 30.000,57.522 30.000,53.935 C30.000,53.935 30.000,24.915 30.000,24.915 C30.000,21.328 27.084,18.410 23.500,18.410 C23.500,18.410 9.500,18.410 9.500,18.410 Z" id="path-4" class="cls-6" fill-rule="evenodd"/>
    <path d="M30.000,55.436 C30.000,55.436 27.244,55.436 27.244,55.436 C22.146,55.436 18.000,51.543 18.000,46.758 C18.000,46.758 18.000,31.939 18.000,31.939 C18.000,27.238 22.146,23.414 27.244,23.414 C27.244,23.414 30.000,23.414 30.000,23.414 C30.828,23.414 31.500,24.085 31.500,24.915 C31.500,25.744 30.828,26.416 30.000,26.416 C30.000,26.416 27.244,26.416 27.244,26.416 C23.801,26.416 21.000,28.894 21.000,31.939 C21.000,31.939 21.000,46.758 21.000,46.758 C21.000,49.888 23.801,52.434 27.244,52.434 C27.244,52.434 30.000,52.434 30.000,52.434 C30.828,52.434 31.500,53.106 31.500,53.935 C31.500,54.764 30.828,55.436 30.000,55.436 Z" id="path-5" class="cls-6" fill-rule="evenodd"/>
    <path d="M21.500,17.910 C20.672,17.910 20.000,17.238 20.000,16.409 C20.000,16.409 20.000,10.938 20.000,10.938 C20.000,9.901 19.264,8.516 18.871,8.400 C18.871,8.400 13.381,8.403 13.381,8.403 C12.944,8.481 12.000,9.930 12.000,10.938 C12.000,10.938 12.000,16.409 12.000,16.409 C12.000,17.238 11.328,17.910 10.500,17.910 C9.672,17.910 9.000,17.238 9.000,16.409 C9.000,16.409 9.000,10.938 9.000,10.938 C9.000,8.708 10.840,5.401 13.381,5.401 C13.381,5.401 18.895,5.401 18.895,5.401 C21.628,5.401 23.000,8.951 23.000,10.938 C23.000,10.938 23.000,16.409 23.000,16.409 C23.000,17.238 22.328,17.910 21.500,17.910 Z" id="path-6" class="cls-6" fill-rule="evenodd"/>
    <path d="M28.776,8.913 C28.141,8.913 27.551,8.506 27.348,7.868 C27.096,7.078 27.531,6.233 28.320,5.981 C28.320,5.981 46.703,0.105 46.703,0.105 C47.494,-0.149 48.336,0.289 48.588,1.078 C48.840,1.868 48.404,2.712 47.615,2.965 C47.615,2.965 29.232,8.841 29.232,8.841 C29.081,8.890 28.927,8.913 28.776,8.913 Z" id="path-7" class="cls-6" fill-rule="evenodd"/>
    <path d="M47.159,19.132 C47.008,19.132 46.854,19.110 46.703,19.061 C46.703,19.061 28.320,13.185 28.320,13.185 C27.531,12.932 27.096,12.087 27.348,11.298 C27.600,10.508 28.447,10.072 29.232,10.325 C29.232,10.325 47.615,16.201 47.615,16.201 C48.404,16.454 48.840,17.298 48.588,18.088 C48.385,18.726 47.795,19.132 47.159,19.132 Z" id="path-8" class="cls-6" fill-rule="evenodd"/>
    <path d="M47.000,11.405 C47.000,11.405 36.000,11.405 36.000,11.405 C35.172,11.405 34.500,10.733 34.500,9.904 C34.500,9.075 35.172,8.403 36.000,8.403 C36.000,8.403 47.000,8.403 47.000,8.403 C47.828,8.403 48.500,9.075 48.500,9.904 C48.500,10.733 47.828,11.405 47.000,11.405 Z" id="path-9" class="cls-6" fill-rule="evenodd"/>
  </g>
</svg>
