<svg xmlns="http://www.w3.org/2000/svg" xmlns:xlink="http://www.w3.org/1999/xlink" preserveAspectRatio="xMidYMid" width="64" height="64" viewBox="0 0 64 64">
  <defs>
    <style>

      .cls-3 {
        fill: #e56a77;
      }

      .cls-4 {
        fill: #000000;
      }

      .cls-6 {
        fill: #81bda4;
      }
    </style>
  </defs>
  <g id="group-13svg">
    <path d="M59.076,7.247 C59.076,7.247 54.421,20.983 54.421,20.983 C54.421,20.983 63.090,32.608 63.090,32.608 C63.090,32.608 48.596,32.423 48.596,32.423 C48.596,32.423 40.227,44.265 40.227,44.265 C40.227,44.265 35.925,30.414 35.925,30.414 C35.925,30.414 22.083,26.109 22.083,26.109 C22.083,26.109 33.917,17.734 33.917,17.734 C33.917,17.734 33.732,3.230 33.732,3.230 C33.732,3.230 45.349,11.905 45.349,11.905 C45.349,11.905 59.076,7.247 59.076,7.247 Z" id="path-1" class="cls-3" fill-rule="evenodd"/>
    <path d="M37.227,44.765 C37.149,44.765 37.071,44.760 36.992,44.747 C36.428,44.658 35.964,44.256 35.794,43.710 C35.794,43.710 31.727,30.613 31.727,30.613 C31.727,30.613 18.638,26.541 18.638,26.541 C18.093,26.372 17.691,25.907 17.602,25.343 C17.512,24.779 17.751,24.212 18.217,23.883 C18.217,23.883 29.408,15.963 29.408,15.963 C29.408,15.963 29.232,2.248 29.232,2.248 C29.225,1.677 29.542,1.151 30.051,0.892 C30.560,0.632 31.172,0.684 31.629,1.026 C31.629,1.026 42.614,9.229 42.614,9.229 C42.614,9.229 55.594,4.824 55.594,4.824 C56.132,4.641 56.732,4.780 57.136,5.184 C57.540,5.588 57.680,6.187 57.496,6.728 C57.496,6.728 53.095,19.717 53.095,19.717 C53.095,19.717 61.292,30.710 61.292,30.710 C61.633,31.167 61.685,31.780 61.426,32.289 C61.167,32.798 60.635,33.120 60.071,33.108 C60.071,33.108 46.366,32.933 46.366,32.933 C46.366,32.933 38.452,44.131 38.452,44.131 C38.168,44.533 37.709,44.765 37.227,44.765 ZM22.431,24.577 C22.431,24.577 33.370,27.980 33.370,27.980 C33.841,28.127 34.210,28.496 34.357,28.968 C34.357,28.968 37.757,39.915 37.757,39.915 C37.757,39.915 44.372,30.555 44.372,30.555 C44.656,30.152 45.096,29.908 45.615,29.921 C45.615,29.921 57.070,30.068 57.070,30.068 C57.070,30.068 50.219,20.880 50.219,20.880 C49.923,20.484 49.842,19.968 50.000,19.501 C50.000,19.501 53.679,8.644 53.679,8.644 C53.679,8.644 42.831,12.325 42.831,12.325 C42.363,12.484 41.848,12.403 41.452,12.107 C41.452,12.107 32.271,5.251 32.271,5.251 C32.271,5.251 32.417,16.713 32.417,16.713 C32.424,17.207 32.186,17.673 31.784,17.958 C31.784,17.958 22.431,24.577 22.431,24.577 Z" id="path-2" class="cls-4" fill-rule="evenodd"/>
    <path d="M2.989,63.019 C2.221,63.019 1.453,62.726 0.868,62.140 C-0.304,60.967 -0.304,59.067 0.867,57.894 C0.867,57.894 22.147,36.599 22.147,36.599 C23.319,35.426 25.219,35.426 26.390,36.599 C27.561,37.771 27.561,39.672 26.390,40.845 C26.390,40.845 5.110,62.140 5.110,62.140 C4.524,62.726 3.756,63.019 2.989,63.019 Z" id="path-3" class="cls-4" fill-rule="evenodd"/>
    <path d="M60.849,22.068 C59.801,23.117 58.102,23.117 57.054,22.068 C56.006,21.019 56.006,19.319 57.054,18.270 C58.102,17.222 59.801,17.222 60.849,18.270 C61.897,19.319 61.897,21.019 60.849,22.068 Z" id="path-4" class="cls-6" fill-rule="evenodd"/>
    <path d="M43.353,4.559 C42.304,5.608 40.605,5.608 39.557,4.559 C38.509,3.510 38.509,1.810 39.557,0.761 C40.605,-0.288 42.304,-0.288 43.353,0.761 C44.400,1.810 44.400,3.510 43.353,4.559 Z" id="path-5" class="cls-6" fill-rule="evenodd"/>
    <path d="M52.615,40.607 C51.567,41.656 49.868,41.656 48.820,40.607 C47.772,39.559 47.772,37.858 48.820,36.810 C49.868,35.761 51.567,35.761 52.615,36.810 C53.664,37.858 53.664,39.559 52.615,40.607 Z" id="path-6" class="cls-6" fill-rule="evenodd"/>
    <path d="M25.855,13.829 C24.808,14.877 23.108,14.877 22.060,13.829 C21.012,12.780 21.012,11.080 22.060,10.030 C23.108,8.982 24.808,8.982 25.855,10.030 C26.903,11.080 26.903,12.780 25.855,13.829 Z" id="path-7" class="cls-6" fill-rule="evenodd"/>
  </g>
</svg>
