<svg xmlns="http://www.w3.org/2000/svg" xmlns:xlink="http://www.w3.org/1999/xlink" preserveAspectRatio="xMidYMid" width="62" height="64" viewBox="0 0 62 64">
  <defs>
    <style>

      .cls-3 {
        fill: #e56a77;
      }

      .cls-11 {
        fill: #edc951;
      }

      .cls-19 {
        fill: #000000;
      }
    </style>
  </defs>
  <g id="group-35svg">
    <path d="M56.500,29.508 C55.672,29.508 55.000,28.836 55.000,28.007 C55.000,28.007 55.000,13.325 55.000,13.325 C55.000,11.334 54.150,9.244 52.836,7.998 C52.234,7.428 52.208,6.478 52.778,5.876 C53.348,5.274 54.297,5.248 54.898,5.818 C56.811,7.631 58.000,10.507 58.000,13.325 C58.000,13.325 58.000,28.007 58.000,28.007 C58.000,28.836 57.328,29.508 56.500,29.508 Z" id="path-1" class="cls-3" fill-rule="evenodd"/>
    <path d="M51.250,6.416 C51.094,6.416 50.935,6.391 50.779,6.340 C50.031,6.092 49.655,5.991 48.945,5.991 C48.945,5.991 33.000,5.991 33.000,5.991 C32.172,5.991 31.500,5.319 31.500,4.490 C31.500,3.661 32.172,2.989 33.000,2.989 C33.000,2.989 48.945,2.989 48.945,2.989 C50.118,2.989 50.836,3.196 51.721,3.490 C52.508,3.750 52.935,4.599 52.674,5.386 C52.466,6.017 51.880,6.416 51.250,6.416 Z" id="path-2" class="cls-3" fill-rule="evenodd"/>
    <path d="M9.875,6.580 C9.278,6.580 8.713,6.220 8.480,5.631 C8.176,4.860 8.553,3.988 9.323,3.683 C10.436,3.242 11.833,2.989 13.155,2.989 C13.155,2.989 27.000,2.989 27.000,2.989 C27.828,2.989 28.500,3.661 28.500,4.490 C28.500,5.319 27.828,5.991 27.000,5.991 C27.000,5.991 13.155,5.991 13.155,5.991 C12.225,5.991 11.180,6.177 10.427,6.474 C10.246,6.546 10.059,6.580 9.875,6.580 Z" id="path-3" class="cls-3" fill-rule="evenodd"/>
    <path d="M4.500,29.508 C3.672,29.508 3.000,28.836 3.000,28.007 C3.000,28.007 3.000,13.325 3.000,13.325 C3.000,11.137 3.695,8.863 4.860,7.241 C5.345,6.567 6.283,6.415 6.953,6.898 C7.626,7.382 7.779,8.320 7.296,8.992 C6.497,10.106 6.000,11.766 6.000,13.325 C6.000,13.325 6.000,28.007 6.000,28.007 C6.000,28.836 5.328,29.508 4.500,29.508 Z" id="path-4" class="cls-3" fill-rule="evenodd"/>
    <path d="M7.133,57.098 C6.763,57.098 6.392,56.962 6.102,56.687 C4.072,54.764 3.000,52.337 3.000,49.667 C3.000,49.667 3.000,34.011 3.000,34.011 C3.000,33.182 3.672,32.510 4.500,32.510 C5.328,32.510 6.000,33.182 6.000,34.011 C6.000,34.011 6.000,49.667 6.000,49.667 C6.000,51.518 6.728,53.146 8.164,54.507 C8.766,55.077 8.792,56.027 8.222,56.629 C7.927,56.940 7.530,57.098 7.133,57.098 Z" id="path-5" class="cls-3" fill-rule="evenodd"/>
    <path d="M27.000,59.029 C27.000,59.029 13.155,59.029 13.155,59.029 C12.020,59.029 10.776,58.842 9.830,58.529 C9.043,58.269 8.616,57.419 8.877,56.632 C9.137,55.845 9.985,55.418 10.771,55.678 C11.411,55.890 12.347,56.027 13.155,56.027 C13.155,56.027 27.000,56.027 27.000,56.027 C27.828,56.027 28.500,56.699 28.500,57.528 C28.500,58.357 27.828,59.029 27.000,59.029 Z" id="path-6" class="cls-3" fill-rule="evenodd"/>
    <path d="M48.945,59.029 C48.945,59.029 34.000,59.029 34.000,59.029 C33.172,59.029 32.500,58.357 32.500,57.528 C32.500,56.699 33.172,56.027 34.000,56.027 C34.000,56.027 48.945,56.027 48.945,56.027 C49.759,56.027 50.224,55.900 51.122,55.544 C51.892,55.240 52.764,55.615 53.069,56.387 C53.374,57.157 52.997,58.030 52.227,58.335 C51.092,58.785 50.232,59.029 48.945,59.029 Z" id="path-7" class="cls-3" fill-rule="evenodd"/>
    <path d="M54.921,57.416 C54.617,57.416 54.311,57.325 54.047,57.134 C53.374,56.651 53.221,55.713 53.704,55.039 C54.503,53.926 55.000,52.271 55.000,50.720 C55.000,50.720 55.000,34.011 55.000,34.011 C55.000,33.182 55.672,32.510 56.500,32.510 C57.328,32.510 58.000,33.182 58.000,34.011 C58.000,34.011 58.000,50.720 58.000,50.720 C58.000,52.900 57.305,55.170 56.140,56.791 C55.847,57.200 55.387,57.416 54.921,57.416 Z" id="path-8" class="cls-3" fill-rule="evenodd"/>
    <path d="M59.000,7.993 C59.000,7.993 54.000,7.993 54.000,7.993 C54.000,7.993 54.000,2.989 54.000,2.989 C54.000,2.989 59.000,2.989 59.000,2.989 C59.000,2.989 59.000,7.993 59.000,7.993 Z" id="path-9" class="cls-11" fill-rule="evenodd"/>
    <path d="M35.000,7.993 C35.000,7.993 30.000,7.993 30.000,7.993 C30.000,7.993 30.000,2.989 30.000,2.989 C30.000,2.989 35.000,2.989 35.000,2.989 C35.000,2.989 35.000,7.993 35.000,7.993 Z" id="path-10" class="cls-11" fill-rule="evenodd"/>
    <path d="M57.000,35.012 C57.000,35.012 57.000,30.008 57.000,30.008 C57.000,30.008 62.000,30.008 62.000,30.008 C62.000,30.008 62.000,35.012 62.000,35.012 C62.000,35.012 57.000,35.012 57.000,35.012 Z" id="path-11" class="cls-11" fill-rule="evenodd"/>
    <path d="M4.000,35.012 C4.000,35.012 4.000,30.008 4.000,30.008 C4.000,30.008 9.000,30.008 9.000,30.008 C9.000,30.008 9.000,35.012 9.000,35.012 C9.000,35.012 4.000,35.012 4.000,35.012 Z" id="path-12" class="cls-11" fill-rule="evenodd"/>
    <path d="M11.000,7.993 C11.000,7.993 6.000,7.993 6.000,7.993 C6.000,7.993 6.000,2.989 6.000,2.989 C6.000,2.989 11.000,2.989 11.000,2.989 C11.000,2.989 11.000,7.993 11.000,7.993 Z" id="path-13" class="cls-11" fill-rule="evenodd"/>
    <path d="M59.000,63.032 C59.000,63.032 54.000,63.032 54.000,63.032 C54.000,63.032 54.000,58.028 54.000,58.028 C54.000,58.028 59.000,58.028 59.000,58.028 C59.000,58.028 59.000,63.032 59.000,63.032 Z" id="path-14" class="cls-11" fill-rule="evenodd"/>
    <path d="M35.000,63.032 C35.000,63.032 30.000,63.032 30.000,63.032 C30.000,63.032 30.000,58.028 30.000,58.028 C30.000,58.028 35.000,58.028 35.000,58.028 C35.000,58.028 35.000,63.032 35.000,63.032 Z" id="path-15" class="cls-11" fill-rule="evenodd"/>
    <path d="M11.000,63.032 C11.000,63.032 6.000,63.032 6.000,63.032 C6.000,63.032 6.000,58.028 6.000,58.028 C6.000,58.028 11.000,58.028 11.000,58.028 C11.000,58.028 11.000,63.032 11.000,63.032 Z" id="path-16" class="cls-11" fill-rule="evenodd"/>
    <path d="M56.500,7.993 C56.500,7.993 51.500,7.993 51.500,7.993 C50.672,7.993 50.000,7.320 50.000,6.492 C50.000,6.492 50.000,1.488 50.000,1.488 C50.000,0.659 50.672,-0.013 51.500,-0.013 C51.500,-0.013 56.500,-0.013 56.500,-0.013 C57.328,-0.013 58.000,0.659 58.000,1.488 C58.000,1.488 58.000,6.492 58.000,6.492 C58.000,7.320 57.328,7.993 56.500,7.993 ZM53.000,4.991 C53.000,4.991 55.000,4.991 55.000,4.991 C55.000,4.991 55.000,2.989 55.000,2.989 C55.000,2.989 53.000,2.989 53.000,2.989 C53.000,2.989 53.000,4.991 53.000,4.991 Z" id="path-17" class="cls-19" fill-rule="evenodd"/>
    <path d="M32.500,7.993 C32.500,7.993 27.500,7.993 27.500,7.993 C26.672,7.993 26.000,7.320 26.000,6.492 C26.000,6.492 26.000,1.488 26.000,1.488 C26.000,0.659 26.672,-0.013 27.500,-0.013 C27.500,-0.013 32.500,-0.013 32.500,-0.013 C33.328,-0.013 34.000,0.659 34.000,1.488 C34.000,1.488 34.000,6.492 34.000,6.492 C34.000,7.320 33.328,7.993 32.500,7.993 ZM29.000,4.991 C29.000,4.991 31.000,4.991 31.000,4.991 C31.000,4.991 31.000,2.989 31.000,2.989 C31.000,2.989 29.000,2.989 29.000,2.989 C29.000,2.989 29.000,4.991 29.000,4.991 Z" id="path-18" class="cls-19" fill-rule="evenodd"/>
    <path d="M59.500,35.012 C59.500,35.012 54.500,35.012 54.500,35.012 C53.672,35.012 53.000,34.340 53.000,33.511 C53.000,33.511 53.000,28.507 53.000,28.507 C53.000,27.678 53.672,27.006 54.500,27.006 C54.500,27.006 59.500,27.006 59.500,27.006 C60.328,27.006 61.000,27.678 61.000,28.507 C61.000,28.507 61.000,33.511 61.000,33.511 C61.000,34.340 60.328,35.012 59.500,35.012 ZM56.000,32.010 C56.000,32.010 58.000,32.010 58.000,32.010 C58.000,32.010 58.000,30.008 58.000,30.008 C58.000,30.008 56.000,30.008 56.000,30.008 C56.000,30.008 56.000,32.010 56.000,32.010 Z" id="path-19" class="cls-19" fill-rule="evenodd"/>
    <path d="M6.500,35.012 C6.500,35.012 1.500,35.012 1.500,35.012 C0.672,35.012 -0.000,34.340 -0.000,33.511 C-0.000,33.511 -0.000,28.507 -0.000,28.507 C-0.000,27.678 0.672,27.006 1.500,27.006 C1.500,27.006 6.500,27.006 6.500,27.006 C7.328,27.006 8.000,27.678 8.000,28.507 C8.000,28.507 8.000,33.511 8.000,33.511 C8.000,34.340 7.328,35.012 6.500,35.012 ZM3.000,32.010 C3.000,32.010 5.000,32.010 5.000,32.010 C5.000,32.010 5.000,30.008 5.000,30.008 C5.000,30.008 3.000,30.008 3.000,30.008 C3.000,30.008 3.000,32.010 3.000,32.010 Z" id="path-20" class="cls-19" fill-rule="evenodd"/>
    <path d="M8.500,7.993 C8.500,7.993 3.500,7.993 3.500,7.993 C2.672,7.993 2.000,7.320 2.000,6.492 C2.000,6.492 2.000,1.488 2.000,1.488 C2.000,0.659 2.672,-0.013 3.500,-0.013 C3.500,-0.013 8.500,-0.013 8.500,-0.013 C9.328,-0.013 10.000,0.659 10.000,1.488 C10.000,1.488 10.000,6.492 10.000,6.492 C10.000,7.320 9.328,7.993 8.500,7.993 ZM5.000,4.991 C5.000,4.991 7.000,4.991 7.000,4.991 C7.000,4.991 7.000,2.989 7.000,2.989 C7.000,2.989 5.000,2.989 5.000,2.989 C5.000,2.989 5.000,4.991 5.000,4.991 Z" id="path-21" class="cls-19" fill-rule="evenodd"/>
    <path d="M56.500,63.032 C56.500,63.032 51.500,63.032 51.500,63.032 C50.672,63.032 50.000,62.359 50.000,61.531 C50.000,61.531 50.000,56.527 50.000,56.527 C50.000,55.698 50.672,55.026 51.500,55.026 C51.500,55.026 56.500,55.026 56.500,55.026 C57.328,55.026 58.000,55.698 58.000,56.527 C58.000,56.527 58.000,61.531 58.000,61.531 C58.000,62.359 57.328,63.032 56.500,63.032 ZM53.000,60.030 C53.000,60.030 55.000,60.030 55.000,60.030 C55.000,60.030 55.000,58.028 55.000,58.028 C55.000,58.028 53.000,58.028 53.000,58.028 C53.000,58.028 53.000,60.030 53.000,60.030 Z" id="path-22" class="cls-19" fill-rule="evenodd"/>
    <path d="M32.500,63.032 C32.500,63.032 27.500,63.032 27.500,63.032 C26.672,63.032 26.000,62.359 26.000,61.531 C26.000,61.531 26.000,56.527 26.000,56.527 C26.000,55.698 26.672,55.026 27.500,55.026 C27.500,55.026 32.500,55.026 32.500,55.026 C33.328,55.026 34.000,55.698 34.000,56.527 C34.000,56.527 34.000,61.531 34.000,61.531 C34.000,62.359 33.328,63.032 32.500,63.032 ZM29.000,60.030 C29.000,60.030 31.000,60.030 31.000,60.030 C31.000,60.030 31.000,58.028 31.000,58.028 C31.000,58.028 29.000,58.028 29.000,58.028 C29.000,58.028 29.000,60.030 29.000,60.030 Z" id="path-23" class="cls-19" fill-rule="evenodd"/>
    <path d="M8.500,63.032 C8.500,63.032 3.500,63.032 3.500,63.032 C2.672,63.032 2.000,62.359 2.000,61.531 C2.000,61.531 2.000,56.527 2.000,56.527 C2.000,55.698 2.672,55.026 3.500,55.026 C3.500,55.026 8.500,55.026 8.500,55.026 C9.328,55.026 10.000,55.698 10.000,56.527 C10.000,56.527 10.000,61.531 10.000,61.531 C10.000,62.359 9.328,63.032 8.500,63.032 ZM5.000,60.030 C5.000,60.030 7.000,60.030 7.000,60.030 C7.000,60.030 7.000,58.028 7.000,58.028 C7.000,58.028 5.000,58.028 5.000,58.028 C5.000,58.028 5.000,60.030 5.000,60.030 Z" id="path-24" class="cls-19" fill-rule="evenodd"/>
  </g>
</svg>
