<svg xmlns="http://www.w3.org/2000/svg" xmlns:xlink="http://www.w3.org/1999/xlink" preserveAspectRatio="xMidYMid" width="64" height="63" viewBox="0 0 64 63">
  <defs>
    <style>

      .cls-3 {
        fill: #edc951;
      }

      .cls-4 {
        fill: #ff917b;
      }

      .cls-5 {
        fill: #53ecf4;
      }

      .cls-6 {
        fill: #000000;
      }
    </style>
  </defs>
  <g id="group-23svg">
    <path d="M64.000,54.028 C64.000,58.450 60.418,62.034 56.000,62.034 C56.000,62.034 15.000,62.034 15.000,62.034 C10.581,62.034 7.000,58.450 7.000,54.028 C7.000,54.028 7.000,12.999 7.000,12.999 C7.000,8.578 10.581,4.994 15.000,4.994 C15.000,4.994 56.000,4.994 56.000,4.994 C60.418,4.994 64.000,8.578 64.000,12.999 C64.000,12.999 64.000,54.028 64.000,54.028 Z" id="path-1" class="cls-3" fill-rule="evenodd"/>
    <path d="M64.000,33.013 C64.000,33.013 47.000,33.013 47.000,33.013 C47.000,33.013 47.000,4.994 47.000,4.994 C47.000,4.994 55.222,4.994 55.222,4.994 C59.641,4.994 64.000,8.601 64.000,13.023 C64.000,13.023 64.000,33.013 64.000,33.013 Z" id="path-2" class="cls-4" fill-rule="evenodd"/>
    <path d="M64.000,33.013 C64.000,33.013 47.000,33.013 47.000,33.013 C47.000,33.013 47.000,61.033 47.000,61.033 C47.000,61.033 55.222,61.033 55.222,61.033 C59.641,61.033 64.000,57.559 64.000,53.138 C64.000,53.138 64.000,33.013 64.000,33.013 Z" id="path-3" class="cls-5" fill-rule="evenodd"/>
    <path d="M50.500,60.033 C50.500,60.033 9.500,60.033 9.500,60.033 C4.262,60.033 -0.000,55.768 -0.000,50.526 C-0.000,50.526 -0.000,9.497 -0.000,9.497 C-0.000,4.255 4.262,-0.010 9.500,-0.010 C9.500,-0.010 50.500,-0.010 50.500,-0.010 C55.738,-0.010 60.000,4.255 60.000,9.497 C60.000,9.497 60.000,50.526 60.000,50.526 C60.000,55.768 55.738,60.033 50.500,60.033 ZM9.500,2.992 C5.916,2.992 3.000,5.910 3.000,9.497 C3.000,9.497 3.000,50.526 3.000,50.526 C3.000,54.112 5.916,57.031 9.500,57.031 C9.500,57.031 50.500,57.031 50.500,57.031 C54.084,57.031 57.000,54.112 57.000,50.526 C57.000,50.526 57.000,9.497 57.000,9.497 C57.000,5.910 54.084,2.992 50.500,2.992 C50.500,2.992 9.500,2.992 9.500,2.992 Z" id="path-4" class="cls-6" fill-rule="evenodd"/>
    <path d="M41.500,59.532 C40.671,59.532 40.000,58.860 40.000,58.031 C40.000,58.031 40.000,1.992 40.000,1.992 C40.000,1.162 40.671,0.490 41.500,0.490 C42.329,0.490 43.000,1.162 43.000,1.992 C43.000,1.992 43.000,58.031 43.000,58.031 C43.000,58.860 42.329,59.532 41.500,59.532 Z" id="path-5" class="cls-6" fill-rule="evenodd"/>
    <path d="M58.000,32.013 C58.000,32.013 42.000,32.013 42.000,32.013 C41.171,32.013 40.500,31.341 40.500,30.512 C40.500,29.683 41.171,29.011 42.000,29.011 C42.000,29.011 58.000,29.011 58.000,29.011 C58.829,29.011 59.500,29.683 59.500,30.512 C59.500,31.341 58.829,32.013 58.000,32.013 Z" id="path-6" class="cls-6" fill-rule="evenodd"/>
  </g>
</svg>
