<?xml version="1.0" encoding="utf-8"?>
<!-- Generator: Adobe Illustrator 22.0.1, SVG Export Plug-In . SVG Version: 6.00 Build 0)  -->
<svg version="1.1" id="Layer_1" xmlns="http://www.w3.org/2000/svg" xmlns:xlink="http://www.w3.org/1999/xlink" x="0px" y="0px"
	 viewBox="0 0 20 32" style="enable-background:new 0 0 20 32;" xml:space="preserve">
<style type="text/css">
	.st0{fill:#787878;}
	.st1{fill:none;stroke:#FFFFFF;stroke-width:1.25;stroke-miterlimit:10;}
	.st2{fill:#FFFFFF;}
</style>
<path class="st0" d="M18.9,23.3H1.1c-0.7,0-1.1-0.5-1.1-1.4V10.1c0-0.8,0.4-1.4,1.1-1.4h17.8c0.7,0,1.1,0.5,1.1,1.4v11.8
	C20,22.6,19.6,23.3,18.9,23.3z"/>
<line class="st1" x1="10.7" y1="19.1" x2="17.7" y2="19.1"/>
<line class="st1" x1="10.7" y1="16.9" x2="17.7" y2="16.9"/>
<line class="st1" x1="10.7" y1="12.3" x2="17.6" y2="12.3"/>
<g>
	<g>
		<path class="st2" d="M5,16.5c-1,0-1.9,0.9-1.9,1.9c0,1,0.9,1.9,1.9,1.9s1.9-0.9,1.9-1.9C6.7,17.3,6,16.5,5,16.5z"/>
	</g>
	<g>
		<path class="st2" d="M6.6,16.7c0.4,0.4,0.6,1,0.6,1.6c0,0.7-0.4,1.5-1,1.9c1.1-0.3,2-1.2,2.5-2.1c0.5-1.4,0-2.5-0.9-3.4
			c0,0.1,0,0.2,0,0.4C7.9,15.9,7.4,16.5,6.6,16.7z"/>
	</g>
	<g>
		<path class="st2" d="M4.7,15.1c0,0.7,0.6,1.4,1.4,1.4s1.4-0.5,1.4-1.4c0-0.7-0.6-1.4-1.4-1.4S4.7,14.4,4.7,15.1z"/>
	</g>
	<g>
		<path class="st2" d="M3.2,19.8c-0.3-0.4-0.5-1-0.5-1.5c0-1.2,0.9-2.1,2-2.2c-0.2-0.3-0.3-0.6-0.3-1c0-1,0.7-1.7,1.7-1.7
			c0.1,0,0.1,0,0.2,0c-0.4-0.6-1.1-1.1-1.5-1.7c0.2,2.5-2.2,1.5-3.1,3.7C1.1,17.1,1.6,18.9,3.2,19.8z"/>
	</g>
</g>
<g id="Layer_2_1_">
</g>
<line class="st1" x1="10.7" y1="14.6" x2="16.1" y2="14.6"/>
</svg>
