<?xml version="1.0" encoding="utf-8"?>
<!-- Generator: Adobe Illustrator 22.0.0, SVG Export Plug-In . SVG Version: 6.00 Build 0)  -->
<svg version="1.1" id="Calque_1" xmlns="http://www.w3.org/2000/svg" xmlns:xlink="http://www.w3.org/1999/xlink" x="0px" y="0px"
	 viewBox="0 0 208 130" style="enable-background:new 0 0 208 130;" xml:space="preserve">
<style type="text/css">
	.st0{fill:#3CB3E7;}
	.st1{fill:#FFFFFF;}
	.st2{fill:url(#SVGID_1_);}
</style>
<g>
	<rect y="-0.2" class="st0" width="208.4" height="130"/>
	<rect y="-0.2" class="st0" width="208.4" height="130"/>
	<rect y="-0.2" class="st0" width="208.4" height="130"/>
	<g>
		<path class="st1" d="M2.7,79.6c0.9-0.3,1.3-1,1.1-1.9l-3.2-12c0,0.2,0,0.2-0.1,0c0-0.2,0-0.2-0.1-0.3c0-0.2-0.2-0.3-0.2-0.3
			C0.2,65,0.1,65,0,65v10.5l0.8,3C1.1,79.4,1.8,79.8,2.7,79.6z"/>
		<path class="st1" d="M24.2,13.6L39.8-0.2h-4.9L20,13.1c-0.4,0.4-0.6,0.9-0.4,1.6c0.2,0.6,0.6,1,1.1,1.1l8.8,2.7L33.5,33
			c0.1,0.5,0.4,0.9,0.9,1c4.9,2.1,10.2,2.4,15.1,1.1s9.3-4.3,12.5-8.5c0.2-0.4,0.4-0.9,0.3-1.4l-3.9-14.5L62.8,6l2.4,9.1
			c0.3,0.9,1,1.3,1.9,1.1c0.9-0.3,1.3-1,1.1-1.9l-3.2-12c0,0.2,0,0.2-0.1,0c0-0.2,0-0.2-0.1-0.3c0-0.2-0.2-0.3-0.2-0.3
			c0-0.2-0.2-0.1-0.4-0.2c-0.2-0.1-0.2-0.1-0.4-0.1c0,0,0,0-0.2,0l-8.1-1.7H40.4l20.2,4.1L45.4,20.1L24.2,13.6z M46.3,23.5
			c0.3-0.1,0.6-0.3,0.7-0.5l8.8-9.4L59,25.4c-5.5,6.8-14.6,9.2-22.7,6.1l-3.2-11.8l12.3,3.7C45.8,23.4,46,23.6,46.3,23.5z"/>
		<path class="st1" d="M30.4,121.7c0.2-0.4,0.4-0.9,0.3-1.4l-3.9-14.5l4.4-4.7l2.4,9.1c0.3,0.9,1,1.3,1.9,1.1c0.9-0.3,1.3-1,1.1-1.9
			l-3.2-12c0,0.2,0,0.2-0.1,0c0-0.2,0-0.2-0.1-0.3c0-0.2-0.2-0.3-0.2-0.3c0-0.2-0.2-0.1-0.4-0.2c-0.2-0.1-0.2-0.1-0.4-0.1
			c0,0,0,0-0.2,0L8.1,91.4c-0.5,0-1,0.1-1.3,0.4L0,97.8v4.3l8.4-7.4L29,98.9l-15.2,16.2L0,110.9V121l1.9,7.1c0.1,0.5,0.4,0.9,0.9,1
			c0.6,0.2,1.1,0.4,1.7,0.6h15C23.8,128.3,27.5,125.5,30.4,121.7z M1.5,114.7l12.3,3.7c0.4,0.1,0.6,0.2,0.9,0.1
			c0.3-0.1,0.6-0.3,0.7-0.5l8.8-9.4l3.2,11.8c-5.5,6.8-14.6,9.2-22.7,6.1L1.5,114.7z"/>
		<path class="st1" d="M208.4,44.9l-7,6.3c-0.4,0.4-0.6,0.9-0.4,1.6c0.2,0.6,0.6,1,1.1,1.1l6.3,1.9v-3.3l-2.8-0.9l2.8-2.5V44.9z"/>
		<path class="st1" d="M86.8,95.7c0.3,0.9,1,1.3,1.9,1.1c0.9-0.3,1.3-1,1.1-1.9l-3.2-12c0,0.2,0,0.2-0.1,0c0-0.2,0-0.2-0.1-0.3
			c0-0.2-0.2-0.3-0.2-0.3c0-0.2-0.2-0.1-0.4-0.2C85.7,82,85.7,82,85.5,82c0,0,0,0-0.2,0l-24.1-5.2c-0.5,0-1,0.1-1.3,0.4L41.6,93.7
			c-0.4,0.4-0.6,0.9-0.4,1.6c0.2,0.6,0.6,1,1.1,1.1l8.8,2.7l3.9,14.5c0.1,0.5,0.4,0.9,0.9,1c4.9,2.1,10.2,2.4,15.1,1.1
			s9.3-4.3,12.5-8.5c0.2-0.4,0.4-0.9,0.3-1.4L80,91.3l4.4-4.7L86.8,95.7z M80.6,106c-5.5,6.8-14.6,9.2-22.7,6.1l-3.2-11.8l12.3,3.7
			c0.4,0.1,0.6,0.2,0.9,0.1c0.3-0.1,0.6-0.3,0.7-0.5l8.8-9.4L80.6,106z M67,100.6l-21.2-6.5l15.7-13.9l20.6,4.2L67,100.6z"/>
		<path class="st1" d="M48.6,126l-4.2,3.7h4.9l0.8-0.7l3.6,0.7h15.1L50,125.7C49.5,125.6,49,125.7,48.6,126z"/>
		<path class="st1" d="M208.4,119c-0.7-0.2-1.3-0.4-2-0.6l-3.2-11.8l5.2,1.6v-3.3l-14.1-4.3L208.4,88v-4.4L190.1,100
			c-0.4,0.4-0.6,0.9-0.4,1.6c0.2,0.6,0.6,1,1.1,1.1l8.8,2.7l3.9,14.5c0.1,0.5,0.4,0.9,0.9,1c1.3,0.5,2.6,0.9,3.9,1.3V119z"/>
		<path class="st1" d="M172.1,129.8h4.7c0.7-0.7,1.4-1.5,2-2.3c0.2-0.4,0.4-0.9,0.3-1.4l-3.9-14.5l4.4-4.7l2.4,9.1
			c0.3,0.9,1,1.3,1.9,1.1c0.9-0.3,1.3-1,1.1-1.9l-3.2-12c0,0.2,0,0.2-0.1,0c0-0.2,0-0.2-0.1-0.3c0-0.2-0.2-0.3-0.2-0.3
			c0-0.2-0.2-0.1-0.4-0.2c-0.2-0.1-0.2-0.1-0.4-0.1c0,0,0,0-0.2,0l-24.1-5.2c-0.5,0-1,0.1-1.3,0.4L136.8,114
			c-0.4,0.4-0.6,0.9-0.4,1.6c0.2,0.6,0.6,1,1.1,1.1l8.8,2.7l2.8,10.4h3.2l-2.5-9.2l12.3,3.7c0.4,0.1,0.6,0.2,0.9,0.1
			s0.6-0.3,0.7-0.5l8.8-9.4l3.2,11.8C174.7,127.6,173.5,128.8,172.1,129.8z M162.2,120.9l-21.2-6.5l15.7-13.9l20.6,4.2L162.2,120.9z
			"/>
		<path class="st1" d="M0,16.9l7.4,1.5L0,26.3V31l2.7-2.8l3.2,11.8C4.2,42,2.2,43.7,0,44.9v3.5c3.4-1.6,6.4-4,8.9-7.2
			c0.2-0.4,0.4-0.9,0.3-1.4L5.3,25.3l4.4-4.7l2.4,9.1c0.3,0.9,1,1.3,1.9,1.1c0.9-0.3,1.3-1,1.1-1.9l-3.2-12c0,0.2,0,0.2-0.1,0
			c0-0.2,0-0.2-0.1-0.3c0-0.2-0.2-0.3-0.2-0.3c0-0.2-0.2-0.1-0.4-0.2C10.9,16,10.9,16,10.8,16c0,0,0,0-0.2,0L0,13.7V16.9z"/>
		<path class="st1" d="M131.9,129.7l-3.2-12c0,0.2,0,0.2-0.1,0c0-0.2,0-0.2-0.1-0.3c0-0.2-0.2-0.3-0.2-0.3c0-0.2-0.2-0.1-0.4-0.2
			c-0.2-0.1-0.2-0.1-0.4-0.1c0,0,0,0-0.2,0l-24.1-5.2c-0.5,0-1,0.1-1.3,0.4l-18.3,16.5c-0.3,0.3-0.5,0.8-0.5,1.3h7.2l-2.5-0.8
			l15.7-13.9l20.6,4.2l-9.8,10.5h4.3l0.8-0.8l0.2,0.8h3.3l-1-3.6l4.4-4.7l2.2,8.3L131.9,129.7C131.9,129.7,131.9,129.7,131.9,129.7z
			"/>
		<path class="st1" d="M54,63.9c0.3,0.9,1,1.3,1.9,1.1c0.9-0.3,1.3-1,1.1-1.9l-3.2-12c0,0.2,0,0.2-0.1,0c0-0.2,0-0.2-0.1-0.3
			c0-0.2-0.2-0.3-0.2-0.3c0-0.2-0.2-0.1-0.4-0.2s-0.2-0.1-0.4-0.1c0,0,0,0-0.2,0l-24.1-5.2c-0.5,0-1,0.1-1.3,0.4L8.7,61.9
			c-0.4,0.4-0.6,0.9-0.4,1.6c0.2,0.6,0.6,1,1.1,1.1l8.8,2.7l3.9,14.5c0.1,0.5,0.4,0.9,0.9,1c4.9,2.1,10.2,2.4,15.1,1.1
			c4.9-1.3,9.3-4.3,12.5-8.5c0.2-0.4,0.4-0.9,0.3-1.4l-3.9-14.5l4.4-4.7L54,63.9z M47.7,74.2C42.3,81,33.1,83.5,25,80.3l-3.2-11.8
			l12.3,3.7c0.4,0.1,0.6,0.2,0.9,0.1s0.6-0.3,0.7-0.5l8.8-9.4L47.7,74.2z M34.1,68.9l-21.2-6.5l15.7-13.9l20.6,4.2L34.1,68.9z"/>
		<path class="st1" d="M157.2,47c0.2-0.4,0.4-0.9,0.3-1.4l-3.9-14.5l4.4-4.7l2.4,9.1c0.3,0.9,1,1.3,1.9,1.1c0.9-0.3,1.3-1,1.1-1.9
			l-3.2-12c0,0.2,0,0.2-0.1,0c0-0.2,0-0.2-0.1-0.3c0-0.2-0.2-0.3-0.2-0.3c0-0.2-0.2-0.1-0.4-0.2s-0.2-0.1-0.4-0.1c0,0,0,0-0.2,0
			l-24.1-5.2c-0.5,0-1,0.1-1.3,0.4l-18.3,16.5c-0.4,0.4-0.6,0.9-0.4,1.6c0.2,0.6,0.6,1,1.1,1.1l8.8,2.7l3.9,14.5
			c0.1,0.5,0.4,0.9,0.9,1c4.9,2.1,10.2,2.4,15.1,1.1C149.6,54.2,153.9,51.2,157.2,47z M119.4,33.9L135.1,20l20.6,4.2l-15.2,16.2
			L119.4,33.9z M131.5,51.8L128.3,40l12.3,3.7c0.4,0.1,0.6,0.2,0.9,0.1s0.6-0.3,0.7-0.5l8.8-9.4l3.2,11.8
			C148.7,52.5,139.6,55,131.5,51.8z"/>
		<path class="st1" d="M140.1,81.7c0.3,0.9,1,1.3,1.9,1.1c0.9-0.3,1.3-1,1.1-1.9l-3.2-12c0,0.2,0,0.2-0.1,0c0-0.2,0-0.2-0.1-0.3
			c0-0.2-0.2-0.3-0.2-0.3c0-0.2-0.2-0.1-0.4-0.2C139,68,139,68,138.8,68c0,0,0,0-0.2,0l-24.1-5.2c-0.5,0-1,0.1-1.3,0.4L94.9,79.7
			c-0.4,0.4-0.6,0.9-0.4,1.6c0.2,0.6,0.6,1,1.1,1.1l8.8,2.7l3.9,14.5c0.1,0.5,0.4,0.9,0.9,1c4.9,2.1,10.2,2.4,15.1,1.1
			s9.3-4.3,12.5-8.5c0.2-0.4,0.4-0.9,0.3-1.4l-3.9-14.5l4.4-4.7L140.1,81.7z M133.9,92c-5.5,6.8-14.6,9.2-22.7,6.1L108,86.2
			l12.3,3.7c0.4,0.1,0.6,0.2,0.9,0.1c0.3-0.1,0.6-0.3,0.7-0.5l8.8-9.4L133.9,92z M120.3,86.7l-21.2-6.5l15.7-13.9l20.6,4.2
			L120.3,86.7z"/>
		<path class="st1" d="M104,61.5c0.2-0.4,0.4-0.9,0.3-1.4l-3.9-14.5l4.4-4.7l2.4,9.1c0.3,0.9,1,1.3,1.9,1.1c0.9-0.3,1.3-1,1.1-1.9
			l-3.2-12c0,0.2,0,0.2-0.1,0c0-0.2,0-0.2-0.1-0.3c0-0.2-0.2-0.3-0.2-0.3c0-0.2-0.2-0.1-0.4-0.2c-0.2-0.1-0.2-0.1-0.4-0.1
			c0,0,0,0-0.2,0l-24.1-5.2c-0.5,0-1,0.1-1.3,0.4L62,48c-0.4,0.4-0.6,0.9-0.4,1.6c0.2,0.6,0.6,1,1.1,1.1l8.8,2.7l3.9,14.5
			c0.1,0.5,0.4,0.9,0.9,1c4.9,2.1,10.2,2.4,15.1,1.1C96.4,68.7,100.8,65.8,104,61.5z M66.2,48.4l15.7-13.9l20.6,4.2L87.4,54.9
			L66.2,48.4z M78.3,66.3l-3.2-11.8l12.3,3.7c0.4,0.1,0.6,0.2,0.9,0.1s0.6-0.3,0.7-0.5l8.8-9.4l3.2,11.8
			C95.6,67,86.4,69.5,78.3,66.3z"/>
		<path class="st1" d="M186.8,3l-18.3,16.5c-0.4,0.4-0.6,0.9-0.4,1.6c0.2,0.6,0.6,1,1.1,1.1l8.8,2.7l3.9,14.5c0.1,0.5,0.4,0.9,0.9,1
			c4.9,2.1,10.2,2.4,15.1,1.1c3.9-1,7.4-3.1,10.4-6.1V22.5l-1.5-5.4l1.5-1.6v-4.6l-14.5,15.5l-21.2-6.5L188.4,6l19.9,4.1V7
			l-20.2-4.4C187.7,2.6,187.2,2.7,186.8,3z M193.9,29.7c0.4,0.1,0.6,0.2,0.9,0.1c0.3-0.1,0.6-0.3,0.7-0.5l8.8-9.4l3.2,11.8
			c-5.5,6.8-14.6,9.2-22.7,6.1L181.6,26L193.9,29.7z"/>
		<path class="st1" d="M140.9,5.5c4.9,2.1,10.2,2.4,15.1,1.1c4.2-1.1,8.1-3.5,11.1-6.9h-4.5c-5.5,4.5-13,5.9-19.9,3.2l-0.9-3.2h-3.2
			l1.3,4.7C140.1,5,140.3,5.4,140.9,5.5z"/>
		<path class="st1" d="M72.9,0.7c0.2,0.6,0.6,1,1.1,1.1l8.8,2.7L86.8,19c0.1,0.5,0.4,0.9,0.9,1c4.9,2.1,10.2,2.4,15.1,1.1
			c4.9-1.3,9.3-4.3,12.5-8.5c0.2-0.4,0.4-0.9,0.3-1.4l-3.1-11.5h-3.3l3.1,11.7c-5.5,6.8-14.6,9.2-22.7,6.1L86.4,5.7l12.3,3.7
			c0.4,0.1,0.6,0.2,0.9,0.1c0.3-0.1,0.6-0.3,0.7-0.5l8.7-9.2h-4.3l-5.9,6.4L78-0.2h-5.1C72.8,0,72.8,0.4,72.9,0.7z"/>
		<path class="st1" d="M118.6,1.1c0.3,0.9,1,1.3,1.9,1.1c0.9-0.3,1.3-1,1.1-1.9l-0.2-0.6h-3.2L118.6,1.1z"/>
		<path class="st1" d="M193.3,67.1c0.3,0.9,1,1.3,1.9,1.1c0.9-0.3,1.3-1,1.1-1.9l-3.2-12c0,0.2,0,0.2-0.1,0c0-0.2,0-0.2-0.1-0.3
			c0-0.2-0.2-0.3-0.2-0.3c0-0.2-0.2-0.1-0.4-0.2c-0.2-0.1-0.2-0.1-0.4-0.1c0,0,0,0-0.2,0l-24.1-5.2c-0.5,0-1,0.1-1.3,0.4l-18.3,16.5
			c-0.4,0.4-0.6,0.9-0.4,1.6c0.2,0.6,0.6,1,1.1,1.1l8.8,2.7l3.9,14.5c0.1,0.5,0.4,0.9,0.9,1c4.9,2.1,10.2,2.4,15.1,1.1
			c4.9-1.3,9.3-4.3,12.5-8.5c0.2-0.4,0.4-0.9,0.3-1.4l-3.9-14.5l4.4-4.7L193.3,67.1z M187.1,77.4c-5.5,6.8-14.6,9.2-22.7,6.1
			l-3.2-11.8l12.3,3.7c0.4,0.1,0.6,0.2,0.9,0.1s0.6-0.3,0.7-0.5l8.8-9.4L187.1,77.4z M173.5,72.1l-21.2-6.5L168,51.7l20.6,4.2
			L173.5,72.1z"/>
	</g>
</g>
<linearGradient id="SVGID_1_" gradientUnits="userSpaceOnUse" x1="-622.129" y1="447.8135" x2="-621.4016" y2="447.8135" gradientTransform="matrix(159.292 -43.9139 -101.34 -362.711 144579.4062 135173.2812)">
	<stop  offset="0" style="stop-color:#3CB3E7"/>
	<stop  offset="1" style="stop-color:#3CB3E7;stop-opacity:0"/>
</linearGradient>
<rect y="-0.2" class="st2" width="208.4" height="130"/>
</svg>
