<svg width="512" height="512" xmlns="http://www.w3.org/2000/svg">

 <g>
  <title>background</title>
  <rect fill="none" id="canvas_background" height="402" width="582" y="-1" x="-1"/>
 </g>
 <g>
  <title>Layer 1</title>
  <path id="svg_3" fill="#000000" d="m243,418.801l0,2.936c-12.422,-15.898 -22.92,-33 -31.39,-51.012l5.044,0c4.848,0 8.586,-4.319 7.827,-9.107c-0.5,-3.154 -0.876,-6.349 -1.124,-9.579c-0.316,-4.126 -3.751,-7.314 -7.89,-7.314l-14.435,0c-8.386,-24.162 -13.333,-49.602 -14.564,-75.725l56.532,0l0,0c0,2.327 2.949,3.317 4.357,1.463c6.617,-8.71 14.397,-16.489 23.106,-23.106c1.853,-1.408 0.864,-4.357 -1.463,-4.357l0,0l0,-75.725l41.968,0c5.905,17.012 10.099,34.659 12.496,52.73c0.323,2.436 2.565,4.137 5.005,3.843c5.473,-0.658 10.905,-0.929 16.356,-0.832c2.773,0.049 4.936,-2.351 4.584,-5.101c-2.208,-17.28 -5.913,-34.211 -11.055,-50.64l82.22,0c12.35,22.817 20.085,48.478 21.965,75.725l-24.221,0c-2.869,0 -4.125,3.625 -1.865,5.392c6.382,4.99 12.248,10.611 17.501,16.771c2.061,2.417 5.054,3.838 8.231,3.838l0.355,0c-0.068,0.987 -0.147,1.972 -0.233,2.954c-0.207,2.346 0.344,4.699 1.609,6.686c5.543,8.709 9.99,18.178 13.151,28.214c0.918,2.915 5.087,2.83 5.816,-0.139c3.992,-16.262 6.117,-33.246 6.117,-50.716c0,-117.504 -95.638,-212.996 -212.993,-213c-0.005,0 -0.009,0 -0.014,0c-117.455,0.004 -212.993,95.598 -212.993,213c0,117.441 95.577,213 213,213c17.244,0 34.011,-2.069 50.075,-5.959c3.163,-0.766 3.307,-5.163 0.208,-6.157c-22.988,-7.371 -42.973,-21.509 -57.6,-40.062c-1.871,-2.372 -5.683,-1.043 -5.683,1.979zm160.569,-277.526l-74.719,0c-10.45,-24.849 -24.351,-48.251 -41.445,-69.624c46.971,7.977 88.033,33.522 116.164,69.624zm-134.569,-51.011c12.422,15.898 22.92,33 31.39,51.012l-31.39,0l0,-51.012zm-26,152.736l-56.532,0c1.231,-26.122 6.178,-51.563 14.564,-75.725l41.968,0l0,75.725zm0,-101.725l-31.39,0c8.47,-18.012 18.968,-35.113 31.39,-51.012l0,51.012zm-18.405,-69.624c-17.095,21.374 -30.995,44.776 -41.445,69.624l-74.718,0c28.13,-36.102 69.192,-61.647 116.163,-69.624zm-133.17,95.624l82.22,0c-7.607,24.308 -12.075,49.713 -13.193,75.725l-90.993,0c1.881,-27.247 9.615,-52.908 21.966,-75.725zm0,177.45c-12.351,-22.817 -20.085,-48.478 -21.966,-75.725l90.993,0c1.117,26.012 5.586,51.417 13.193,75.725l-82.22,0zm17.006,26l74.718,0c10.45,24.849 24.351,48.251 41.446,69.624c-46.971,-7.977 -88.033,-33.522 -116.164,-69.624z"/>
  <path id="svg_4" fill="#000000" d="m467.361,448.976l-45.452,-45.452c50.243,-65.298 3.515,-160.53 -79.122,-160.53c-55.026,0 -99.793,44.767 -99.793,99.792c0,82.725 95.32,129.299 160.53,79.122l45.452,45.452c5.075,5.076 13.308,5.077 18.385,0c5.077,-5.076 5.077,-13.307 0,-18.384zm-198.367,-106.189c0,-40.689 33.104,-73.792 73.793,-73.792s73.792,33.103 73.792,73.792s-33.103,73.792 -73.792,73.792s-73.793,-33.103 -73.793,-73.792z"/>
 </g>
</svg>