<svg width="512" height="512" xmlns="http://www.w3.org/2000/svg">

 <g>
  <title>background</title>
  <rect fill="none" id="canvas_background" height="402" width="582" y="-1" x="-1"/>
 </g>
 <g>
  <title>Layer 1</title>
  <path id="svg_3" fill="#000000" d="m469,256c0,-117.453 -95.586,-212.996 -212.993,-213c-0.005,0 -0.009,0 -0.014,0c-117.478,0.004 -212.993,95.62 -212.993,213c0,117.584 95.719,213 213,213c117.466,0 213,-95.602 213,-213zm-399.541,13l90.993,0c1.117,26.012 5.586,51.417 13.193,75.725l-82.22,0c-12.351,-22.817 -20.085,-48.478 -21.966,-75.725zm21.966,-101.725l82.22,0c-7.607,24.308 -12.075,49.713 -13.193,75.725l-90.993,0c1.881,-27.247 9.615,-52.908 21.966,-75.725zm351.116,75.725l-90.993,0c-1.117,-26.012 -5.586,-51.417 -13.193,-75.725l82.22,0c12.351,22.817 20.085,48.478 21.966,75.725zm-117.009,0l-56.532,0l0,-75.725l41.968,0c8.386,24.162 13.333,49.602 14.564,75.725zm-56.532,-101.725l0,-51.011c12.422,15.898 22.92,33 31.39,51.011l-31.39,0zm-26,0l-31.39,0c8.47,-18.012 18.968,-35.113 31.39,-51.011l0,51.011zm0,26l0,75.725l-56.532,0c1.231,-26.123 6.178,-51.563 14.564,-75.725l41.968,0zm-56.532,101.725l56.532,0l0,75.725l-41.968,0c-8.386,-24.162 -13.333,-49.602 -14.564,-75.725zm56.532,101.725l0,51.011c-12.422,-15.898 -22.92,-33 -31.39,-51.011l31.39,0zm26,0l31.39,0c-8.47,18.012 -18.968,35.113 -31.39,51.011l0,-51.011zm0,-26l0,-75.725l56.532,0c-1.231,26.123 -6.178,51.563 -14.564,75.725l-41.968,0zm82.548,-75.725l90.993,0c-1.88,27.247 -9.615,52.908 -21.965,75.725l-82.22,0c7.606,-24.308 12.074,-49.713 13.192,-75.725zm52.021,-127.725l-74.719,0c-10.45,-24.849 -24.351,-48.251 -41.446,-69.624c46.972,7.977 88.034,33.522 116.165,69.624zm-178.974,-69.624c-17.095,21.374 -30.995,44.776 -41.445,69.624l-74.718,0c28.13,-36.102 69.192,-61.647 116.163,-69.624zm-116.164,299.074l74.718,0c10.45,24.849 24.351,48.251 41.446,69.624c-46.971,-7.977 -88.033,-33.522 -116.164,-69.624zm178.974,69.624c17.095,-21.374 30.995,-44.776 41.446,-69.624l74.718,0c-28.131,36.102 -69.193,61.647 -116.164,69.624z"/>
 </g>
</svg>