<svg width="512" height="512" xmlns="http://www.w3.org/2000/svg">

 <g>
  <title>background</title>
  <rect fill="none" id="canvas_background" height="402" width="582" y="-1" x="-1"/>
 </g>
 <g>
  <title>Layer 1</title>
  <path id="svg_3" fill="#000000" d="m430.5,73l-349,0c-21.229,0 -38.5,17.271 -38.5,38.5l0,289c0,21.229 17.271,38.5 38.5,38.5l349,0c21.229,0 38.5,-17.271 38.5,-38.5l0,-289c0,-21.229 -17.271,-38.5 -38.5,-38.5zm12.5,38.5l0,21.494l-93.898,0l0,-33.994l81.398,0c6.893,0 12.5,5.607 12.5,12.5zm-361.5,-12.5l241.602,0l0,33.994l-254.102,0l0,-21.494c0,-6.893 5.607,-12.5 12.5,-12.5zm349,314l-349,0c-6.893,0 -12.5,-5.607 -12.5,-12.5l0,-241.506l374,0l0,241.506c0,6.893 -5.607,12.5 -12.5,12.5z"/>
  <path id="svg_4" fill="#000000" d="m201.699,257.55c-4.741,-2.086 -10.371,0.281 -12.195,5.244l-8.289,18.897l-3.622,-8.519c-3.086,-7.602 -14.204,-7.682 -17.405,-0.016l-3.553,8.475l-8.284,-18.884c-2.009,-5.118 -7.598,-7.217 -12.069,-5.199c-4.92,2.136 -7.096,7.566 -5.016,12.3c17.498,41.399 17.166,41.646 19.337,43.009c2.172,2.392 6.671,2.881 8.907,1.929c5.13,-1.258 7.354,-9.079 9.427,-14.129c2.401,5.689 5.412,17.328 14.825,14.205c1.716,-0.241 4.79,-2.328 6.085,-5.361l16.861,-39.649c2.081,-4.729 -0.115,-10.127 -5.009,-12.302z"/>
  <path id="svg_5" fill="#000000" d="m288.718,257.55c-4.749,-2.09 -10.373,0.289 -12.194,5.244l-8.289,18.897l-3.623,-8.52c-3.007,-7.405 -13.878,-7.855 -17.363,-0.11c-0.014,0.032 -0.028,0.063 -0.041,0.095l-3.553,8.475l-8.284,-18.884c-2.009,-5.118 -7.598,-7.217 -12.069,-5.199c-4.92,2.136 -7.096,7.566 -5.016,12.3c17.831,42.186 17.166,41.646 19.337,43.009c1.229,1.353 3.479,2.195 4.615,2.245c8.794,1.594 10.862,-7.483 13.719,-14.445c2.416,5.727 5.409,17.324 14.826,14.205c1.582,-0.222 4.785,-2.306 6.085,-5.361l16.861,-39.649c2.079,-4.729 -0.117,-10.127 -5.011,-12.302z"/>
  <path id="svg_6" fill="#000000" d="m375.735,257.55c-4.749,-2.09 -10.373,0.289 -12.194,5.244l-8.289,18.897l-3.623,-8.52c-3.007,-7.405 -13.878,-7.855 -17.363,-0.11c-0.014,0.032 -0.028,0.063 -0.041,0.095l-3.553,8.475l-8.284,-18.884c-2.009,-5.118 -7.598,-7.217 -12.069,-5.199c-4.92,2.136 -7.096,7.566 -5.016,12.3c17.499,41.399 17.166,41.645 19.337,43.009c2.299,2.533 8.358,3.833 12.336,-0.169c1.993,-1.576 2.26,-2.921 5.998,-12.032c2.427,5.752 5.403,17.326 14.826,14.205c1.627,-0.229 4.769,-2.275 6.085,-5.361l16.861,-39.649c2.079,-4.728 -0.116,-10.126 -5.011,-12.301z"/>
 </g>
</svg>