<svg width="512" height="512" xmlns="http://www.w3.org/2000/svg">

 <g>
  <title>background</title>
  <rect fill="none" id="canvas_background" height="402" width="582" y="-1" x="-1"/>
 </g>
 <g>
  <title>Layer 1</title>
  <path id="svg_3" fill="#000000" d="m398.905,96.168l-285.81,0c-22.684,0 -41.139,18.455 -41.139,41.139l0,177.387c0,22.684 18.455,41.139 41.139,41.139l105.759,0l-9.859,49.865l-31.964,0c-7.18,0 -13,5.82 -13,13s5.82,13 13,13c8.213,0 149.678,0 157.938,0c7.18,0 13,-5.82 13,-13s-5.82,-13 -13,-13l-31.964,0l-9.859,-49.865l105.759,0c22.684,0 41.139,-18.455 41.139,-41.139l0,-177.387c-0.001,-22.684 -18.455,-41.139 -41.139,-41.139zm-122.404,309.529l-41.003,0l9.859,-49.865l21.284,0l9.86,49.865zm137.542,-91.004c0,8.348 -6.792,15.139 -15.139,15.139c-10.026,0 -268.566,0 -285.809,0c-8.348,0 -15.139,-6.791 -15.139,-15.139l0,-177.386c0,-8.348 6.791,-15.139 15.139,-15.139l285.81,0c8.348,0 15.139,6.791 15.139,15.139l0,177.386l-0.001,0z"/>
  <path id="svg_4" fill="#000000" d="m204.207,162.6c-5.077,-5.077 -13.308,-5.077 -18.385,0l-53.21,53.21c-5.073,5.074 -5.076,13.309 0,18.385l53.21,53.21c5.077,5.077 13.308,5.077 18.385,0c5.077,-5.077 5.077,-13.308 0,-18.385l-44.018,-44.018l44.018,-44.018c5.076,-5.076 5.076,-13.307 0,-18.384z"/>
  <path id="svg_5" fill="#000000" d="m326.178,162.6c-5.077,-5.077 -13.308,-5.077 -18.385,0c-5.077,5.077 -5.077,13.308 0,18.385l44.018,44.018l-44.018,44.018c-5.077,5.077 -5.077,13.308 0,18.385c5.086,5.086 13.317,5.068 18.385,0l53.21,-53.21c5.073,-5.074 5.076,-13.309 0,-18.385l-53.21,-53.211z"/>
  <path id="svg_6" fill="#000000" d="m292.717,160.451c-6.263,-3.508 -14.186,-1.275 -17.695,4.989l-60.729,108.415c-3.509,6.264 -1.275,14.186 4.989,17.695c6.269,3.511 14.189,1.271 17.695,-4.989l60.729,-108.415c3.509,-6.264 1.275,-14.187 -4.989,-17.695z"/>
 </g>
</svg>