<svg width="512" height="512" xmlns="http://www.w3.org/2000/svg">

 <g>
  <title>background</title>
  <rect fill="none" id="canvas_background" height="402" width="582" y="-1" x="-1"/>
 </g>
 <g>
  <title>Layer 1</title>
  <path id="svg_3" fill="#000000" d="m422.543,360.666l-85.865,-85.866c-5.077,-5.077 -13.308,-5.077 -18.385,0l-14.968,14.968l-4.177,-4.177l34.151,-34.151c11.065,-11.065 11.068,-28.978 0,-40.045l-12.971,-12.971l2.872,-2.872c27.439,18.749 65.054,15.817 89.197,-8.325c5.077,-5.077 5.077,-13.308 0,-18.385l-31.246,-31.246l17.233,-17.233c5.077,-5.077 5.077,-13.308 0,-18.385c-5.077,-5.077 -13.309,-5.077 -18.385,0l-17.233,17.233l-31.241,-31.241c-5.073,-5.073 -13.309,-5.076 -18.385,0c-24.75,24.75 -26.679,62.469 -8.337,89.209l-2.86,2.86l-12.972,-12.972c-11.041,-11.041 -29.004,-11.04 -40.045,0l-34.145,34.145l-4.177,-4.177l14.961,-14.961c5.077,-5.077 5.077,-13.308 0,-18.385l-42.93,-42.93c-0.001,-0.001 -0.002,-0.002 -0.002,-0.003s-0.002,-0.002 -0.003,-0.002l-42.93,-42.93c-5.074,-5.073 -13.309,-5.076 -18.385,0l-48.312,48.312c-5.077,5.077 -5.077,13.308 0,18.385l85.865,85.865c5.074,5.074 13.309,5.076 18.385,0l14.966,-14.966l4.177,4.177l-34.15,34.15c-11.041,11.041 -11.041,29.005 0,40.045l12.972,12.972l-28.447,28.447c-11.153,-4.153 -24.211,-1.763 -33.162,7.188c-12.227,12.228 -12.227,32.124 0,44.352c12.226,12.227 32.124,12.229 44.353,0c8.949,-8.949 11.34,-22.002 7.191,-33.153l28.45,-28.45l12.971,12.971c11.066,11.066 28.978,11.067 40.045,0l34.144,-34.144l4.177,4.177l-14.96,14.96c-5.077,5.077 -5.077,13.308 0,18.385l43.434,43.434c0.002,0.002 0.003,0.003 0.005,0.005s0.003,0.003 0.005,0.005l42.422,42.422c5.077,5.077 13.308,5.077 18.385,0l48.312,-48.312c5.077,-5.077 5.077,-13.309 0,-18.385zm-98.842,-243.753c5.767,5.767 32.695,32.695 59.74,59.74c-16.691,8.823 -37.885,6.217 -51.915,-7.813c-14.233,-14.233 -16.564,-35.471 -7.825,-51.927zm-131.481,61.736l-24.548,-24.548l5.769,-5.769l24.548,24.548l-5.769,5.769zm-37.164,-48.701l-5.769,5.769l-24.548,-24.548l5.769,-5.769l24.548,24.548zm-48.702,-0.394l24.548,24.548l-5.774,5.774l-24.548,-24.548l5.774,-5.774zm61.707,73.254l-24.548,-24.548l5.774,-5.774l24.548,24.548l-5.774,5.774zm-28.483,165.558c-2.092,2.092 -5.487,2.096 -7.583,0c-2.091,-2.091 -2.091,-5.493 0,-7.583c2.092,-2.092 5.487,-2.096 7.583,0c2.092,2.092 2.096,5.487 0,7.583zm88.657,-48.632c-0.907,0.907 -2.369,0.907 -3.276,0l-22.161,-22.161c-0.001,-0.001 -0.002,-0.002 -0.002,-0.003s-0.002,-0.002 -0.003,-0.002l-22.162,-22.162c-0.903,-0.903 -0.903,-2.373 0,-3.276l86.68,-86.68c0.907,-0.907 2.369,-0.907 3.276,0l44.328,44.329c0.902,0.902 0.909,2.365 0,3.275l-43.341,43.341c-0.001,0.001 -0.002,0.002 -0.003,0.002s-0.002,0.002 -0.002,0.003l-43.334,43.334zm160.956,55.899l-24.042,-24.042l5.775,-5.775l24.042,24.042l-5.775,5.775zm-61.705,-73.256l25.054,25.054l-5.775,5.775l-25.054,-25.054l5.775,-5.775zm-24.16,24.16l25.054,25.054l-5.767,5.767l-25.054,-25.054l5.767,-5.767zm37.671,49.206l5.767,-5.767l24.042,24.042l-5.767,5.767l-24.042,-24.042z"/>
 </g>
</svg>