<svg width="512" height="512" xmlns="http://www.w3.org/2000/svg">

 <g>
  <title>background</title>
  <rect fill="none" id="canvas_background" height="402" width="582" y="-1" x="-1"/>
 </g>
 <g>
  <title>Layer 1</title>
  <path id="svg_3" fill="#000000" d="m256,145.849c-44.196,0 -80.151,35.956 -80.151,80.151s35.956,80.151 80.151,80.151s80.151,-35.956 80.151,-80.151s-35.955,-80.151 -80.151,-80.151zm52.563,67.151l-15.521,0c-1.41,-11.824 -4.742,-23.21 -9.838,-33.793c12.482,7.285 21.801,19.411 25.359,33.793zm-63.343,0c1.659,-10.469 5.31,-20.434 10.78,-29.438c5.47,9.005 9.121,18.969 10.78,29.438l-21.56,0zm21.56,26c-1.659,10.469 -5.31,20.434 -10.78,29.438c-5.47,-9.005 -9.121,-18.969 -10.78,-29.438l21.56,0zm-37.984,-59.793c-5.096,10.582 -8.428,21.968 -9.838,33.793l-15.521,0c3.558,-14.382 12.877,-26.508 25.359,-33.793zm-25.359,59.793l15.521,0c1.41,11.824 4.742,23.21 9.838,33.793c-12.482,-7.285 -21.801,-19.411 -25.359,-33.793zm79.767,33.793c5.096,-10.582 8.428,-21.968 9.838,-33.793l15.521,0c-3.558,14.382 -12.877,26.508 -25.359,33.793z"/>
  <path id="svg_4" fill="#000000" d="m398.905,96.168l-285.81,0c-22.684,0 -41.139,18.455 -41.139,41.139l0,177.387c0,22.684 18.455,41.139 41.139,41.139l105.759,0l-9.859,49.865l-31.964,0c-7.18,0 -13,5.82 -13,13s5.82,13 13,13c8.213,0 149.678,0 157.938,0c7.18,0 13,-5.82 13,-13s-5.82,-13 -13,-13l-31.964,0l-9.859,-49.865l105.759,0c22.684,0 41.139,-18.455 41.139,-41.139l0,-177.387c-0.001,-22.684 -18.455,-41.139 -41.139,-41.139zm-122.404,309.529l-41.003,0l9.859,-49.865l21.284,0l9.86,49.865zm137.542,-91.004c0,8.348 -6.792,15.139 -15.139,15.139c-8.051,0 -269.626,0 -285.809,0c-8.348,0 -15.139,-6.791 -15.139,-15.139l0,-177.386c0,-8.348 6.791,-15.139 15.139,-15.139l285.81,0c8.348,0 15.139,6.791 15.139,15.139l0,177.386l-0.001,0z"/>
 </g>
</svg>