<svg width="512" height="512" xmlns="http://www.w3.org/2000/svg">

 <g>
  <title>background</title>
  <rect fill="none" id="canvas_background" height="402" width="582" y="-1" x="-1"/>
 </g>
 <g>
  <title>Layer 1</title>
  <path id="svg_3" fill="#000000" d="m456,353.013l-34.661,0l0,-97.017c0,-7.18 -5.82,-13 -13,-13l-139.342,0l0,-48.678l62.734,0c7.18,0 13,-5.82 13,-13l0,-95.322c0,-7.18 -5.82,-13 -13,-13l-151.461,0c-7.18,0 -13,5.82 -13,13l0,95.322c0,7.18 5.82,13 13,13l62.727,0l0,48.678l-139.336,0c-7.18,0 -13,5.82 -13,13l0,97.017l-34.661,0c-7.18,0 -13,5.82 -13,13l0,59.991c0,7.18 5.82,13 13,13l95.322,0c7.18,0 13,-5.82 13,-13l0,-59.991c0,-7.18 -5.82,-13 -13,-13l-34.661,0l0,-84.017l126.335,0l0,84.017l-34.658,0c-7.18,0 -13,5.82 -13,13l0,59.991c0,7.18 5.82,13 13,13l95.322,0c7.18,0 13,-5.82 13,-13l0,-59.991c0,-7.18 -5.82,-13 -13,-13l-34.665,0l0,-84.017l126.342,0l0,84.017l-34.661,0c-7.18,0 -13,5.82 -13,13l0,59.991c0,7.18 5.82,13 13,13l95.324,0c7.18,0 13,-5.82 13,-13l0,-59.991c0,-7.18 -5.82,-13 -13,-13zm-262.73,-254.017l125.46,0l0,69.322l-125.46,0l0,-69.322zm-54.948,314.008l-69.322,0l0,-33.991l69.322,0l0,33.991zm152.339,0l-69.322,0l0,-33.991l69.322,0l0,33.991zm152.339,0l-69.322,0l0,-33.991l69.322,0l0,33.991z"/>
 </g>
</svg>