<svg width="512" height="512" xmlns="http://www.w3.org/2000/svg">

 <g>
  <title>background</title>
  <rect fill="none" id="canvas_background" height="402" width="582" y="-1" x="-1"/>
 </g>
 <g>
  <title>Layer 1</title>
  <path id="svg_3" fill="#000000" d="m256.007,161.144c-0.005,0 -0.009,0 -0.014,0c-52.301,0.004 -94.849,42.555 -94.849,94.856c0,52.304 42.552,94.856 94.855,94.856s94.855,-42.552 94.855,-94.856c0.001,-52.301 -42.547,-94.852 -94.847,-94.856zm67.601,81.856l-21.421,0c-1.68,-16.694 -6.606,-33.117 -14.773,-48.241c18.505,9.532 32.154,27.192 36.194,48.241zm-87.641,0c2.208,-17.463 8.886,-34.461 20.033,-49.126c11.146,14.666 17.825,31.663 20.033,49.126l-40.066,0zm40.066,26c-2.208,17.463 -8.886,34.461 -20.033,49.126c-11.146,-14.666 -17.825,-31.663 -20.033,-49.126l40.066,0zm-51.447,-74.241c-8.167,15.124 -13.094,31.547 -14.773,48.241l-21.421,0c4.04,-21.049 17.689,-38.709 36.194,-48.241zm-36.194,74.241l21.421,0c1.68,16.694 6.606,33.117 14.773,48.241c-18.505,-9.532 -32.154,-27.192 -36.194,-48.241zm99.022,48.241c8.167,-15.124 13.094,-31.547 14.773,-48.241l21.421,0c-4.04,21.049 -17.689,38.709 -36.194,48.241z"/>
  <path id="svg_4" fill="#000000" d="m362.555,43l-213.11,0c-25.61,0 -46.445,20.835 -46.445,46.445c0,18.26 0,310.15 0,333.109c0,25.61 20.835,46.445 46.445,46.445l213.109,0c25.61,0 46.445,-20.835 46.445,-46.445l0,-333.109c0.001,-25.61 -20.834,-46.445 -46.444,-46.445zm-233.555,86.005l254,0l0,248.374l-254,0l0,-248.374zm20.445,-60.005l213.109,0c11.274,0 20.446,9.172 20.446,20.445l0,13.56l-254,0l0,-13.56c0,-11.273 9.172,-20.445 20.445,-20.445zm213.11,374l-213.11,0c-11.273,0 -20.445,-9.172 -20.445,-20.445l0,-19.176l254,0l0,19.176c0,11.273 -9.172,20.445 -20.445,20.445z"/>
  <path id="svg_5" fill="#000000" d="m274.425,410.207l-36.85,0c-7.18,0 -13,5.82 -13,13s5.82,13 13,13l36.85,0c7.18,0 13,-5.82 13,-13s-5.821,-13 -13,-13z"/>
 </g>
</svg>