<svg width="512" height="512" xmlns="http://www.w3.org/2000/svg">

 <g>
  <title>background</title>
  <rect fill="none" id="canvas_background" height="402" width="582" y="-1" x="-1"/>
 </g>
 <g>
  <title>Layer 1</title>
  <path id="svg_3" fill="#000000" d="m456,329.832l-15.957,0l0,-192.525c0,-22.684 -18.455,-41.139 -41.139,-41.139l-285.808,0c-22.684,0 -41.139,18.455 -41.139,41.139l0,192.525l-15.957,0c-7.18,0 -13,5.82 -13,13c0,40.252 32.748,73 73,73l280,0c40.252,0 73,-32.748 73,-73c0,-7.18 -5.82,-13 -13,-13zm-358.043,-192.525c0,-8.348 6.791,-15.139 15.139,-15.139l285.809,0c8.348,0 15.139,6.791 15.139,15.139l0,192.525l-316.087,0l0,-192.525zm298.043,252.525l-280,0c-21.408,0 -39.519,-14.387 -45.172,-34c5.578,0 366.971,0 370.344,0c-5.653,19.613 -23.764,34 -45.172,34z"/>
  <path id="svg_4" fill="#000000" d="m256,145.849c-44.195,0 -80.151,35.956 -80.151,80.151s35.956,80.151 80.151,80.151s80.151,-35.956 80.151,-80.151s-35.956,-80.151 -80.151,-80.151zm52.563,67.151l-15.521,0c-1.41,-11.824 -4.742,-23.21 -9.838,-33.792c12.482,7.285 21.801,19.41 25.359,33.792zm-63.343,0c1.659,-10.469 5.31,-20.434 10.78,-29.438c5.47,9.005 9.121,18.969 10.78,29.438l-21.56,0zm21.56,26c-1.659,10.469 -5.31,20.434 -10.78,29.438c-5.47,-9.005 -9.121,-18.969 -10.78,-29.438l21.56,0zm-37.984,-59.792c-5.096,10.583 -8.428,21.968 -9.838,33.792l-15.521,0c3.558,-14.382 12.877,-26.507 25.359,-33.792zm-25.359,59.792l15.521,0c1.41,11.824 4.742,23.21 9.838,33.792c-12.482,-7.285 -21.801,-19.41 -25.359,-33.792zm79.767,33.792c5.096,-10.583 8.428,-21.968 9.838,-33.792l15.521,0c-3.558,14.382 -12.877,26.507 -25.359,33.792z"/>
 </g>
</svg>