<svg width="512" height="512" xmlns="http://www.w3.org/2000/svg">

 <g>
  <title>background</title>
  <rect fill="none" id="canvas_background" height="402" width="582" y="-1" x="-1"/>
 </g>
 <g>
  <title>Layer 1</title>
  <path id="svg_4" fill="#000000" d="m256,419c-89.878,0 -163,-73.122 -163,-163s73.122,-163 163,-163l0.283,0c7.18,0 13,5.82 13,13l0,136.717l136.717,0c7.18,0 13,5.82 13,13l0,0.283c0,89.878 -73.121,163 -163,163zm-12.717,-299.415c-69.602,6.437 -124.283,65.161 -124.283,136.415c0,75.542 61.458,137 137,137c71.254,0 129.978,-54.681 136.415,-124.283l-136.132,0c-7.18,0 -13,-5.82 -13,-13l0,-136.132z"/>
  <path id="svg_6" fill="#000000" d="m456,218.717l-149.717,0c-7.18,0 -13,-5.82 -13,-13l0,-149.717c0,-3.452 1.373,-6.762 3.816,-9.201c2.438,-2.433 5.74,-3.799 9.184,-3.799c0.009,0 0.016,0 0.024,0c89.842,0.168 162.525,72.837 162.693,162.693c0.007,3.452 -1.36,6.765 -3.799,9.208c-2.438,2.443 -5.749,3.816 -9.201,3.816zm-136.717,-26l123.076,0c-6.29,-64.899 -58.177,-116.786 -123.076,-123.077l0,123.077z"/>
 </g>
</svg>