<svg width="512" height="512" xmlns="http://www.w3.org/2000/svg">

 <g>
  <title>background</title>
  <rect fill="none" id="canvas_background" height="402" width="582" y="-1" x="-1"/>
 </g>
 <g>
  <title>Layer 1</title>
  <path id="svg_3" fill="#000000" d="m428.858264,306.056264l-18.776,0l0,-167.093c0,-14.64 -9.07,-27.193 -21.882,-32.359l0,-49.525c0,-7.18 -5.82,-13 -13,-13s-13,5.82 -13,13l0,49.525c-12.812,5.166 -21.882,17.72 -21.882,32.359l0,167.092l-166.475,0l0,-167.092c0,-14.64 -9.07,-27.193 -21.882,-32.359l0,-49.525c0,-7.18 -5.82,-13 -13,-13s-13,5.82 -13,13l0,49.525c-12.812,5.166 -21.882,17.72 -21.882,32.359l0,167.092l-18.779,0c-22.728,0 -41.218,18.49 -41.218,41.217l0,21.589c0,22.728 18.49,41.217 41.218,41.217l343.559,0c22.728,0 41.218,-18.49 41.218,-41.217l0,-21.589c-0.001,-22.727 -18.491,-41.216 -41.219,-41.216zm-62.54,-167.093c0,-4.897 3.984,-8.882 8.882,-8.882s8.882,3.984 8.882,8.882l0,167.092l-17.764,0l0,-167.092zm-236.239,0c0,-4.897 3.984,-8.882 8.882,-8.882s8.882,3.984 8.882,8.882l0,167.092l-17.764,0l0,-167.092zm313.997,229.899c0,8.391 -6.826,15.217 -15.218,15.217l-343.558,0c-8.392,0 -15.218,-6.827 -15.218,-15.217l0,-21.589c0,-8.391 6.826,-15.217 15.218,-15.217c3.004,0 338.463,0 343.559,0c8.392,0 15.218,6.827 15.218,15.217l0,21.589l-0.001,0z"/>
  <path id="svg_4" fill="#000000" d="m125.471,343.988l-18.246,0c-7.18,0 -13,5.82 -13,13s5.82,13 13,13l18.246,0c7.18,0 13,-5.82 13,-13s-5.821,-13 -13,-13z"/>
  <path id="svg_5" fill="#000000" d="m178.01,343.988l-18.246,0c-7.18,0 -13,5.82 -13,13s5.82,13 13,13l18.246,0c7.18,0 13,-5.82 13,-13s-5.821,-13 -13,-13z"/>
  <path id="svg_6" fill="#000000" d="m230.549,343.988l-18.246,0c-7.18,0 -13,5.82 -13,13s5.82,13 13,13l18.246,0c7.18,0 13,-5.82 13,-13s-5.82,-13 -13,-13z"/>
  <path id="svg_7" fill="#000000" d="m404.37,343.988l-76.893,0c-7.18,0 -13,5.82 -13,13s5.82,13 13,13l76.893,0c7.18,0 13,-5.82 13,-13s-5.82,-13 -13,-13z"/>
 </g>
</svg>