<svg width="512" height="512" xmlns="http://www.w3.org/2000/svg">

 <g>
  <title>background</title>
  <rect fill="none" id="canvas_background" height="402" width="582" y="-1" x="-1"/>
 </g>
 <g>
  <title>Layer 1</title>
  <path id="svg_3" fill="#000000" d="m427.776,304.977l-18.776,0l0,-167.093c0,-19.234 -15.648,-34.882 -34.882,-34.882s-34.882,15.648 -34.882,34.882l0,167.092l-255.019,0c-22.727,0.001 -41.217,18.49 -41.217,41.218l0,21.589c0,22.727 18.49,41.217 41.217,41.217l343.56,0c22.728,0 41.217,-18.49 41.217,-41.217l0,-21.589c-0.001,-22.728 -18.49,-41.217 -41.218,-41.217zm-53.658,-175.975c4.897,0 8.882,3.984 8.882,8.882l0,8.879l-17.764,0l0,-8.879c0,-4.897 3.985,-8.882 8.882,-8.882zm-8.882,43.762l17.764,0l0,132.213l-17.764,0l0,-132.213zm77.757,195.019c0,8.391 -6.826,15.217 -15.217,15.217l-343.559,0c-8.391,0 -15.217,-6.827 -15.217,-15.217l0,-21.589c0,-8.391 6.826,-15.217 15.217,-15.217c5.717,0 337.841,0 343.56,0c8.391,0 15.217,6.827 15.217,15.217l0,21.589l-0.001,0z"/>
  <path id="svg_4" fill="#000000" d="m125.467,343.988l-18.245,0c-7.18,0 -13,5.82 -13,13s5.82,13 13,13l18.245,0c7.18,0 13,-5.82 13,-13s-5.821,-13 -13,-13z"/>
  <path id="svg_5" fill="#000000" d="m404.367,343.988l-76.893,0c-7.18,0 -13,5.82 -13,13s5.82,13 13,13l76.893,0c7.18,0 13,-5.82 13,-13s-5.82,-13 -13,-13z"/>
 </g>
</svg>