<?xml version="1.0"?>
<svg xmlns="http://www.w3.org/2000/svg" xmlns:xlink="http://www.w3.org/1999/xlink" version="1.1" viewBox="0 0 224 224" width="16px" height="16px"><g fill="none" fill-rule="nonzero" stroke="none" stroke-width="1" stroke-linecap="butt" stroke-linejoin="miter" stroke-miterlimit="10" stroke-dasharray="" stroke-dashoffset="0" font-family="none" font-weight="none" font-size="none" text-anchor="none" style="mix-blend-mode: normal"><path d="M0,224v-224h224v224z" fill="none"/><g fill="#ffd25c"><g id="surface1"><path d="M90.94532,14c-11.48438,0 -20.94532,9.46093 -20.94532,20.94532v7.05468h-42v14h14v119c0,11.53907 9.46093,21 21,21h84c11.53907,0 21,-9.46093 21,-21v-119h14v-14h-42v-7.05468c0,-11.48438 -9.46093,-20.94532 -20.94532,-20.94532zM90.94532,28h28.10937c3.9375,0 6.94532,3.00782 6.94532,6.94532v21.05468h28v119c0,3.9375 -3.0625,7 -7,7h-84c-3.9375,0 -7,-3.0625 -7,-7v-119h28v-21.05468c0,-3.9375 3.00782,-6.94532 6.94532,-6.94532zM70,70v98h14v-98zM98,70v98h14v-98zM126,70v98h14v-98z"/></g></g></g></svg>
