<?xml version="1.0" standalone="yes"?>
<svg xmlns="http://www.w3.org/2000/svg" xmlns:xlink="http://www.w3.org/1999/xlink" width="296" height="335">
<path style="fill:#ffffff; stroke:none;" d="M0 0L0 182C3.25436 174.456 3.48841 164.984 6.02855 157C11.7591 138.988 22.1734 121.969 36 109.09C46.9027 98.9337 59.8084 91.0672 73 84.2585C94.8432 72.9843 119.903 62.3565 128.251 37C132.292 24.7259 131.997 12.6391 131 0L0 0z"/>
<path style="fill:#28a9e0; stroke:none;" d="M131 0C131.547 12.7498 132.347 24.6419 127.91 37C118.876 62.1602 94.0149 72.8957 72 84.2585C59.1928 90.8688 46.7258 98.4782 36 108.17C-10.2025 149.917 -10.063 226.842 23.3441 276C34.2643 292.069 51.3307 311.924 70 319C67.2985 312.578 62.4559 307.221 59.2593 301C53.6266 290.039 50.341 278.258 49.1698 266C44.9848 222.202 83.3765 171.947 129 171C125.182 158.936 117.625 149.253 117.039 136C115.629 104.065 135.083 74.6284 166 64.7462C175.547 61.6947 185.114 62 195 62C192.379 57.4237 187.923 54.2979 184 50.8449C177.638 45.2446 171.201 39.6868 165 33.9105C157.464 26.8906 150.157 19.4436 143.039 12C139.136 7.91748 135.949 2.83646 131 0z"/>
<path style="fill:#ffffff; stroke:none;" d="M133 0C136.604 7.77524 144.01 14.0097 150 20C158.471 28.471 167.005 36.799 176 44.7145C182.375 50.3247 189.438 55.571 195 62C184.432 62 174.155 61.5996 164 65.0787C132.718 75.7957 113.911 106.397 117.171 139C118.358 150.88 124.079 160.46 129 171C81.7112 171.392 46.0513 221.676 49.0895 266C50.4953 286.509 59.5013 301.987 70 319C42.3066 303.582 20.1876 276.366 8.81096 247C4.79215 236.626 1.23113 225.198 1 214C-0.661101 217.959 0 222.74 0 227L0 251L0 335L132 335L171 335C176.751 335 184.533 336.351 190 334.4C199.75 330.922 209.135 318.304 214.644 310C238.003 274.793 233.025 227.348 204 197C233.852 187.27 252.598 163.358 254.816 132C255.21 126.429 253.698 120.52 253 115C272.229 134.282 293.757 162.498 295 191C297.189 185.784 296 178.619 296 173L296 134L296 0L133 0z"/>
<path style="fill:#28a9e0; stroke:none;" d="M177 90.4645C150.702 95.206 136.914 126.874 149.324 150C158.027 166.217 176.221 173.643 194 170.674C222.506 165.914 234.717 131.367 220.049 108C211.018 93.6144 193.348 87.517 177 90.4645M253 115C253.417 120.283 254.883 125.697 254.741 131C254.179 152.01 243.736 172.424 227 185.1C219.841 190.523 212.083 193.4 204 197C210.162 206.014 217.14 213.912 221.688 224C233.658 250.552 231.409 281.069 216.547 306C209.701 317.485 198.697 324.543 191 335C206.661 332.654 223.261 322.379 236 313.41C274.089 286.594 301.57 239.686 295.714 192C293.503 174.003 285.936 157.003 275.996 142C269.74 132.558 262.32 121.583 253 115M131 207.439C123.638 208.589 116.269 211.009 110 215.101C72.5475 239.544 81.3558 298.487 124 311.279C131.725 313.596 141.032 313.815 149 312.561C155.817 311.488 162.209 309.05 168 305.301C205.68 280.908 197.837 221.036 154 208.746C146.728 206.707 138.471 206.272 131 207.439z"/>
<path style="fill:#ffffff; stroke:none;" d="M295 219C294.495 230.737 289.992 242.313 285.421 253C269.599 289.997 233.148 323.314 194 334C202.357 337.507 215.94 335 225 335L296 335L296 254L296 231C296 227.017 296.552 222.699 295 219z"/>
</svg>
