<?xml version="1.0" standalone="no"?>
<!DOCTYPE svg PUBLIC "-//W3C//DTD SVG 20010904//EN"
 "http://www.w3.org/TR/2001/REC-SVG-20010904/DTD/svg10.dtd">
<svg version="1.0" xmlns="http://www.w3.org/2000/svg"
 width="600.000000pt" height="106.000000pt" viewBox="0 0 600.000000 106.000000"
 preserveAspectRatio="xMidYMid meet">
<metadata>
Created by potrace 1.15, written by Peter Selinger 2001-2017
</metadata>
<g transform="translate(0.000000,106.000000) scale(0.100000,-0.100000)"
fill="#000000" stroke="none">
<path d="M940 581 c0 -110 4 -211 10 -225 12 -33 59 -56 115 -56 l45 0 0 43
c0 40 -2 44 -32 52 l-33 10 -3 188 -2 187 -50 0 -50 0 0 -199z"/>
<path d="M506 744 c-14 -13 -16 -48 -16 -230 l0 -214 50 0 50 0 0 180 0 180
160 0 160 0 0 50 0 50 -194 0 c-164 0 -197 -3 -210 -16z"/>
<path d="M2350 741 c-6 -12 -10 -104 -10 -230 l0 -211 50 0 50 0 0 105 c0 100
1 104 18 87 9 -11 35 -52 56 -92 48 -90 65 -110 92 -110 32 0 56 27 100 110
21 41 47 83 57 94 16 19 17 15 17 -87 l0 -107 50 0 50 0 0 211 c0 126 -4 218
-10 230 -7 13 -21 19 -43 19 -36 -1 -54 -24 -131 -170 -21 -41 -45 -80 -52
-87 -7 -7 -16 -22 -19 -33 -9 -28 -21 -25 -35 10 -7 17 -15 30 -19 30 -4 0
-27 38 -51 85 -24 47 -47 85 -51 85 -3 0 -14 18 -24 40 -16 35 -22 40 -51 40
-23 0 -37 -6 -44 -19z"/>
<path d="M1182 623 c-39 -20 -52 -59 -52 -159 0 -142 24 -164 180 -164 l100 0
0 45 0 45 -74 0 c-106 0 -106 0 -106 81 l0 69 88 0 c93 0 104 -3 95 -26 -4
-10 -26 -14 -89 -14 l-84 0 0 -45 0 -45 106 0 c103 0 106 1 135 29 25 26 29
37 29 88 0 51 -4 63 -26 84 -24 22 -34 24 -147 26 -97 2 -129 -1 -155 -14z"/>
<path d="M1520 634 c0 -3 30 -39 66 -80 37 -41 65 -76 63 -79 -2 -2 -22 -25
-44 -51 -22 -26 -55 -61 -72 -77 -18 -17 -33 -34 -33 -39 0 -4 31 -8 69 -8
l69 0 46 53 47 52 17 -25 c53 -77 59 -80 133 -80 38 0 69 4 69 8 0 5 -34 44
-75 88 -41 43 -75 80 -75 82 0 2 15 18 33 36 49 49 107 114 107 120 0 3 -31 6
-69 6 -68 0 -69 0 -108 -43 l-40 -43 -32 43 -33 43 -69 0 c-38 0 -69 -3 -69
-6z"/>
<path d="M1970 470 l0 -170 50 0 50 0 0 170 0 170 -50 0 -50 0 0 -170z"/>
<path d="M2992 593 l3 -48 100 -5 100 -5 3 -64 c2 -45 -1 -67 -10 -72 -17 -11
-149 -11 -167 0 -30 19 2 31 85 31 l84 0 0 50 0 50 -96 0 c-137 0 -178 -26
-179 -116 0 -46 4 -56 32 -83 l33 -31 128 0 c122 0 131 1 155 24 49 45 50 237
2 286 -24 24 -32 25 -151 28 l-125 4 3 -49z"/>
<path d="M3394 626 c-44 -20 -57 -65 -52 -182 6 -133 12 -138 163 -142 l115
-4 0 46 0 46 -73 0 c-98 0 -109 9 -105 85 l3 60 90 0 90 0 0 -140 0 -140 -87
-3 -88 -3 0 -49 0 -50 98 0 c108 0 154 17 172 66 13 34 13 323 0 361 -17 48
-63 63 -188 63 -68 -1 -119 -6 -138 -14z"/>
<path d="M3830 602 c0 -56 11 -62 117 -62 l94 0 -3 -72 -3 -73 -78 -3 c-76 -3
-114 8 -101 29 3 5 43 9 90 9 l84 0 0 50 0 50 -101 0 -102 0 -33 -36 c-29 -30
-34 -43 -34 -84 0 -39 5 -54 29 -79 l29 -31 130 0 c116 0 132 2 156 21 14 11
26 29 26 39 0 10 5 22 10 25 19 11 12 152 -9 193 -27 53 -54 62 -186 62 l-115
0 0 -38z"/>
<path d="M4180 590 l0 -50 86 0 86 0 -87 -84 c-79 -76 -86 -87 -83 -117 l3
-34 173 -3 172 -2 0 44 0 45 -89 3 -90 3 90 92 c135 139 127 152 -103 153
l-158 0 0 -50z"/>
<path d="M4570 470 l0 -170 50 0 50 0 0 170 0 170 -50 0 -50 0 0 -170z"/>
<path d="M4737 633 c-4 -3 -7 -80 -7 -170 l0 -163 50 0 50 0 0 120 0 120 73 0
c102 0 107 -7 107 -138 l0 -102 50 0 50 0 0 115 c0 143 -11 174 -72 204 -38
18 -62 21 -169 21 -69 0 -129 -3 -132 -7z"/>
<path d="M5208 625 c-43 -24 -58 -67 -58 -167 0 -52 4 -88 10 -88 6 0 10 -6
10 -14 0 -8 12 -24 26 -35 23 -18 41 -21 131 -21 l104 0 -3 43 -3 42 -65 3
c-113 4 -110 2 -110 82 l0 70 88 0 c93 0 109 -5 91 -27 -8 -9 -36 -13 -85 -13
l-74 0 0 -45 0 -45 104 0 c104 0 104 0 130 31 36 43 37 125 2 166 -24 28 -26
28 -148 31 -94 1 -129 -1 -150 -13z"/>
<path d="M600 530 l0 -50 135 0 135 0 0 50 0 50 -135 0 -135 0 0 -50z"/>
</g>
</svg>
