<?xml version="1.0" encoding="utf-8"?>
<!-- Generator: Adobe Illustrator 15.0.2, SVG Export Plug-In . SVG Version: 6.00 Build 0)  -->
<!DOCTYPE svg PUBLIC "-//W3C//DTD SVG 1.1//EN" "http://www.w3.org/Graphics/SVG/1.1/DTD/svg11.dtd">
<svg version="1.1" id="SEO_-_Roboto" xmlns="http://www.w3.org/2000/svg" xmlns:xlink="http://www.w3.org/1999/xlink" x="0px"
	 y="0px" width="102px" height="34px" viewBox="0 0 102 34" enable-background="new 0 0 102 34" xml:space="preserve">
<g>
	<g>
		<line fill="#F8B133" x1="0" y1="34" x2="34" y2="34"/>
	</g>
</g>
<g>
	<g>
		<line fill="#F8B133" x1="34" y1="34" x2="68" y2="34"/>
	</g>
</g>
<g>
	<g>
		<line fill="#F8B133" x1="68" y1="34" x2="102" y2="34"/>
	</g>
</g>
<g>
	<path fill="#FFFFFF" d="M10.53,18.425c0-0.148-0.021-0.282-0.064-0.401s-0.126-0.229-0.249-0.331s-0.293-0.201-0.51-0.299
		s-0.497-0.201-0.841-0.311c-0.391-0.125-0.759-0.266-1.104-0.422s-0.648-0.341-0.908-0.554s-0.465-0.458-0.615-0.735
		S6.013,14.771,6.013,14.4c0-0.355,0.077-0.681,0.231-0.976s0.371-0.546,0.65-0.753s0.611-0.368,0.996-0.483
		s0.808-0.173,1.269-0.173c0.473,0,0.902,0.065,1.289,0.196s0.717,0.313,0.99,0.548s0.484,0.513,0.633,0.835
		s0.223,0.675,0.223,1.058h-1.758c0-0.18-0.028-0.346-0.085-0.498s-0.144-0.283-0.261-0.393s-0.264-0.194-0.439-0.255
		s-0.383-0.091-0.621-0.091c-0.23,0-0.431,0.025-0.601,0.076s-0.311,0.121-0.422,0.211s-0.195,0.195-0.252,0.316
		s-0.085,0.25-0.085,0.387c0,0.281,0.144,0.517,0.431,0.706s0.708,0.366,1.263,0.53c0.465,0.145,0.874,0.305,1.228,0.48
		s0.648,0.375,0.885,0.598s0.415,0.473,0.536,0.75s0.182,0.592,0.182,0.943c0,0.375-0.073,0.709-0.22,1.002s-0.354,0.54-0.624,0.741
		s-0.595,0.355-0.976,0.463S9.669,20.781,9.2,20.781c-0.281,0-0.562-0.024-0.844-0.073s-0.55-0.124-0.806-0.226
		s-0.493-0.229-0.712-0.381s-0.409-0.332-0.571-0.539s-0.289-0.442-0.381-0.706S5.749,18.3,5.749,17.98h1.764
		c0,0.258,0.041,0.477,0.123,0.656s0.196,0.325,0.343,0.437s0.323,0.192,0.53,0.243s0.438,0.076,0.691,0.076
		c0.227,0,0.424-0.024,0.592-0.073s0.307-0.116,0.416-0.202s0.19-0.188,0.243-0.308S10.53,18.562,10.53,18.425z"/>
	<path fill="#FFFFFF" d="M18.916,16.966h-3.375v2.285h3.961v1.412h-5.719v-8.531h5.707v1.424h-3.949v2.033h3.375V16.966z"/>
	<path fill="#FFFFFF" d="M27.841,16.591c0,0.652-0.088,1.237-0.264,1.755s-0.423,0.956-0.741,1.315s-0.7,0.636-1.146,0.829
		s-0.936,0.29-1.471,0.29s-1.025-0.097-1.471-0.29s-0.829-0.47-1.151-0.829s-0.573-0.798-0.753-1.315s-0.27-1.103-0.27-1.755v-0.375
		c0-0.648,0.089-1.232,0.267-1.752s0.427-0.961,0.747-1.324s0.703-0.642,1.148-0.835s0.936-0.29,1.471-0.29s1.025,0.097,1.471,0.29
		s0.828,0.472,1.148,0.835s0.569,0.805,0.747,1.324s0.267,1.104,0.267,1.752V16.591z M26.06,16.205c0-0.895-0.16-1.574-0.48-2.039
		s-0.777-0.697-1.371-0.697s-1.051,0.232-1.371,0.697s-0.48,1.145-0.48,2.039v0.387c0,0.445,0.042,0.839,0.126,1.181
		s0.205,0.629,0.363,0.861s0.353,0.408,0.583,0.527s0.494,0.179,0.791,0.179c0.594,0,1.049-0.234,1.365-0.703
		s0.475-1.15,0.475-2.045V16.205z"/>
</g>
<g>
	<path fill="#999999" d="M44.53,18.425c0-0.148-0.021-0.282-0.064-0.401s-0.126-0.229-0.249-0.331s-0.293-0.201-0.51-0.299
		s-0.497-0.201-0.841-0.311c-0.391-0.125-0.759-0.266-1.104-0.422s-0.648-0.341-0.908-0.554s-0.465-0.458-0.615-0.735
		s-0.226-0.602-0.226-0.973c0-0.355,0.077-0.681,0.231-0.976s0.371-0.546,0.65-0.753s0.611-0.368,0.996-0.483
		s0.808-0.173,1.269-0.173c0.473,0,0.902,0.065,1.289,0.196s0.717,0.313,0.99,0.548s0.484,0.513,0.633,0.835
		s0.223,0.675,0.223,1.058h-1.758c0-0.18-0.028-0.346-0.085-0.498s-0.144-0.283-0.261-0.393s-0.264-0.194-0.439-0.255
		s-0.383-0.091-0.621-0.091c-0.23,0-0.431,0.025-0.601,0.076s-0.311,0.121-0.422,0.211s-0.195,0.195-0.252,0.316
		s-0.085,0.25-0.085,0.387c0,0.281,0.144,0.517,0.431,0.706s0.708,0.366,1.263,0.53c0.465,0.145,0.874,0.305,1.228,0.48
		s0.648,0.375,0.885,0.598s0.415,0.473,0.536,0.75s0.182,0.592,0.182,0.943c0,0.375-0.073,0.709-0.22,1.002s-0.354,0.54-0.624,0.741
		s-0.595,0.355-0.976,0.463s-0.806,0.161-1.274,0.161c-0.281,0-0.562-0.024-0.844-0.073s-0.55-0.124-0.806-0.226
		s-0.493-0.229-0.712-0.381s-0.409-0.332-0.571-0.539s-0.289-0.442-0.381-0.706s-0.138-0.556-0.138-0.876h1.764
		c0,0.258,0.041,0.477,0.123,0.656s0.196,0.325,0.343,0.437s0.323,0.192,0.53,0.243s0.438,0.076,0.691,0.076
		c0.227,0,0.424-0.024,0.592-0.073s0.307-0.116,0.416-0.202s0.19-0.188,0.243-0.308S44.53,18.562,44.53,18.425z"/>
	<path fill="#999999" d="M52.916,16.966h-3.375v2.285h3.961v1.412h-5.719v-8.531h5.707v1.424h-3.949v2.033h3.375V16.966z"/>
	<path fill="#999999" d="M61.841,16.591c0,0.652-0.088,1.237-0.264,1.755s-0.423,0.956-0.741,1.315s-0.7,0.636-1.146,0.829
		s-0.936,0.29-1.471,0.29s-1.025-0.097-1.471-0.29s-0.829-0.47-1.151-0.829s-0.573-0.798-0.753-1.315s-0.27-1.103-0.27-1.755v-0.375
		c0-0.648,0.089-1.232,0.267-1.752s0.427-0.961,0.747-1.324s0.703-0.642,1.148-0.835s0.936-0.29,1.471-0.29s1.025,0.097,1.471,0.29
		s0.828,0.472,1.148,0.835s0.569,0.805,0.747,1.324s0.267,1.104,0.267,1.752V16.591z M60.06,16.205c0-0.895-0.16-1.574-0.48-2.039
		s-0.777-0.697-1.371-0.697s-1.051,0.232-1.371,0.697s-0.48,1.145-0.48,2.039v0.387c0,0.445,0.042,0.839,0.126,1.181
		s0.205,0.629,0.363,0.861s0.353,0.408,0.583,0.527s0.494,0.179,0.791,0.179c0.594,0,1.049-0.234,1.365-0.703
		s0.475-1.15,0.475-2.045V16.205z"/>
</g>
<g>
	<path fill="#333333" d="M78.53,18.425c0-0.148-0.021-0.282-0.064-0.401s-0.126-0.229-0.249-0.331s-0.293-0.201-0.51-0.299
		s-0.497-0.201-0.841-0.311c-0.391-0.125-0.759-0.266-1.104-0.422s-0.648-0.341-0.908-0.554s-0.465-0.458-0.615-0.735
		s-0.226-0.602-0.226-0.973c0-0.355,0.077-0.681,0.231-0.976s0.371-0.546,0.65-0.753s0.611-0.368,0.996-0.483
		s0.808-0.173,1.269-0.173c0.473,0,0.902,0.065,1.289,0.196s0.717,0.313,0.99,0.548s0.484,0.513,0.633,0.835
		s0.223,0.675,0.223,1.058h-1.758c0-0.18-0.028-0.346-0.085-0.498s-0.144-0.283-0.261-0.393s-0.264-0.194-0.439-0.255
		s-0.383-0.091-0.621-0.091c-0.23,0-0.431,0.025-0.601,0.076s-0.311,0.121-0.422,0.211s-0.195,0.195-0.252,0.316
		s-0.085,0.25-0.085,0.387c0,0.281,0.144,0.517,0.431,0.706s0.708,0.366,1.263,0.53c0.465,0.145,0.874,0.305,1.228,0.48
		s0.648,0.375,0.885,0.598s0.415,0.473,0.536,0.75s0.182,0.592,0.182,0.943c0,0.375-0.073,0.709-0.22,1.002s-0.354,0.54-0.624,0.741
		s-0.595,0.355-0.976,0.463s-0.806,0.161-1.274,0.161c-0.281,0-0.562-0.024-0.844-0.073s-0.55-0.124-0.806-0.226
		s-0.493-0.229-0.712-0.381s-0.409-0.332-0.571-0.539s-0.289-0.442-0.381-0.706s-0.138-0.556-0.138-0.876h1.764
		c0,0.258,0.041,0.477,0.123,0.656s0.196,0.325,0.343,0.437s0.323,0.192,0.53,0.243s0.438,0.076,0.691,0.076
		c0.227,0,0.424-0.024,0.592-0.073s0.307-0.116,0.416-0.202s0.19-0.188,0.243-0.308S78.53,18.562,78.53,18.425z"/>
	<path fill="#333333" d="M86.916,16.966h-3.375v2.285h3.961v1.412h-5.719v-8.531h5.707v1.424h-3.949v2.033h3.375V16.966z"/>
	<path fill="#333333" d="M95.841,16.591c0,0.652-0.088,1.237-0.264,1.755s-0.423,0.956-0.741,1.315s-0.7,0.636-1.146,0.829
		s-0.936,0.29-1.471,0.29s-1.025-0.097-1.471-0.29s-0.829-0.47-1.151-0.829s-0.573-0.798-0.753-1.315s-0.27-1.103-0.27-1.755v-0.375
		c0-0.648,0.089-1.232,0.267-1.752s0.427-0.961,0.747-1.324s0.703-0.642,1.148-0.835s0.936-0.29,1.471-0.29s1.025,0.097,1.471,0.29
		s0.828,0.472,1.148,0.835s0.569,0.805,0.747,1.324s0.267,1.104,0.267,1.752V16.591z M94.06,16.205c0-0.895-0.16-1.574-0.48-2.039
		s-0.777-0.697-1.371-0.697s-1.051,0.232-1.371,0.697s-0.48,1.145-0.48,2.039v0.387c0,0.445,0.042,0.839,0.126,1.181
		s0.205,0.629,0.363,0.861s0.353,0.408,0.583,0.527s0.494,0.179,0.791,0.179c0.594,0,1.049-0.234,1.365-0.703
		s0.475-1.15,0.475-2.045V16.205z"/>
</g>
</svg>
