<?xml version="1.0" encoding="utf-8"?>
<!-- Generator: Adobe Illustrator 15.0.2, SVG Export Plug-In . SVG Version: 6.00 Build 0)  -->
<!DOCTYPE svg PUBLIC "-//W3C//DTD SVG 1.1//EN" "http://www.w3.org/Graphics/SVG/1.1/DTD/svg11.dtd">
<svg version="1.1" xmlns="http://www.w3.org/2000/svg" xmlns:xlink="http://www.w3.org/1999/xlink" x="0px" y="0px" width="102px"
	 height="34px" viewBox="0 0 102 34" enable-background="new 0 0 102 34" xml:space="preserve">
<g id="all-Status-Icons" display="none">
	<g display="inline">
		<path fill="#2DAB66" d="M17,12.5c1.202,0,2.332,0.468,3.182,1.318c0.85,0.85,1.318,1.979,1.318,3.181
			c0,1.202-0.469,2.332-1.318,3.183C19.331,21.032,18.201,21.5,17,21.5s-2.331-0.468-3.182-1.318c-0.85-0.85-1.317-1.98-1.318-3.182
			c0-1.202,0.468-2.332,1.317-3.181C14.668,12.968,15.798,12.5,17,12.5 M17,9.5c-1.919,0-3.839,0.732-5.304,2.197
			c-2.929,2.928-2.927,7.678,0.001,10.605C13.162,23.768,15.081,24.5,17,24.5s3.838-0.732,5.303-2.197
			c2.93-2.93,2.93-7.678,0-10.606C20.839,10.232,18.92,9.5,17,9.5L17,9.5z"/>
	</g>
	<g display="inline">
		<path fill="#F8B133" d="M51,12.5c1.202,0,2.332,0.468,3.182,1.318c0.85,0.85,1.318,1.979,1.318,3.181
			c0,1.202-0.469,2.332-1.318,3.183C53.331,21.032,52.201,21.5,51,21.5s-2.331-0.468-3.182-1.318c-0.85-0.85-1.317-1.98-1.318-3.182
			c0-1.202,0.468-2.332,1.317-3.181C48.668,12.968,49.797,12.5,51,12.5 M51,9.5c-1.919,0-3.839,0.732-5.305,2.197
			c-2.928,2.928-2.926,7.678,0.002,10.605C47.162,23.768,49.081,24.5,51,24.5s3.838-0.732,5.303-2.197
			c2.93-2.93,2.93-7.678,0-10.606C54.839,10.232,52.92,9.5,51,9.5L51,9.5z"/>
	</g>
	<g display="inline">
		<path fill="#E84E1B" d="M85,12.5c1.202,0,2.332,0.468,3.182,1.318c0.85,0.85,1.318,1.979,1.318,3.181
			c0,1.202-0.469,2.332-1.318,3.183C87.331,21.032,86.201,21.5,85,21.5s-2.331-0.468-3.182-1.318c-0.85-0.85-1.317-1.98-1.318-3.182
			c0-1.202,0.468-2.332,1.317-3.181C82.668,12.968,83.797,12.5,85,12.5 M85,9.5c-1.919,0-3.839,0.732-5.305,2.197
			c-2.928,2.928-2.926,7.678,0.002,10.605C81.162,23.768,83.081,24.5,85,24.5s3.838-0.732,5.303-2.197
			c2.93-2.93,2.93-7.678,0-10.606C88.839,10.232,86.92,9.5,85,9.5L85,9.5z"/>
	</g>
</g>
<g id="Star" display="none">
	<g display="inline">
		<line fill="none" stroke="#FFFFFF" stroke-width="1.25" stroke-miterlimit="10" x1="5.354" y1="16.999" x2="28.646" y2="16.999"/>
		<line fill="none" stroke="#FFFFFF" stroke-width="1.25" stroke-miterlimit="10" x1="23.023" y1="27.441" x2="10.977" y2="6.559"/>
		<line fill="none" stroke="#FFFFFF" stroke-width="1.25" stroke-miterlimit="10" x1="10.977" y1="27.441" x2="23.023" y2="6.559"/>
	</g>
	<g display="inline">
		
			<line fill="none" stroke="#999999" stroke-width="1.25" stroke-miterlimit="10" x1="39.354" y1="16.999" x2="62.646" y2="16.999"/>
		<line fill="none" stroke="#999999" stroke-width="1.25" stroke-miterlimit="10" x1="57.023" y1="27.441" x2="44.977" y2="6.559"/>
		<line fill="none" stroke="#999999" stroke-width="1.25" stroke-miterlimit="10" x1="44.977" y1="27.441" x2="57.023" y2="6.559"/>
	</g>
	<g display="inline">
		
			<line fill="none" stroke="#333333" stroke-width="1.25" stroke-miterlimit="10" x1="73.354" y1="16.999" x2="96.646" y2="16.999"/>
		<line fill="none" stroke="#333333" stroke-width="1.25" stroke-miterlimit="10" x1="91.023" y1="27.441" x2="78.977" y2="6.559"/>
		<line fill="none" stroke="#333333" stroke-width="1.25" stroke-miterlimit="10" x1="78.977" y1="27.441" x2="91.023" y2="6.559"/>
	</g>
</g>
<g id="Settings-alternative" display="none">
	<path display="inline" fill="none" stroke="#FFFFFF" stroke-width="1.25" stroke-miterlimit="10" d="M24.819,16.937
		c0-0.382-0.037-0.755-0.089-1.121l2.326-1.344l-2.839-4.917l-2.257,1.301c-0.631-0.523-1.347-0.946-2.122-1.254V7.025H14.16v2.518
		c-0.809,0.301-1.556,0.726-2.216,1.26L9.781,9.555l-2.839,4.917l2.179,1.258c-0.061,0.396-0.103,0.796-0.103,1.207
		c0,0.452,0.049,0.892,0.121,1.323l-2.197,1.269l2.839,4.917l2.26-1.303c0.635,0.499,1.349,0.9,2.119,1.188v2.643h5.679v-2.701
		c0.737-0.295,1.42-0.693,2.028-1.184l2.351,1.356l2.839-4.917l-2.344-1.354C24.776,17.77,24.819,17.358,24.819,16.937z
		 M16.919,20.553c-1.997,0-3.616-1.619-3.616-3.616s1.619-3.615,3.616-3.615c1.998,0,3.617,1.618,3.617,3.615
		S18.917,20.553,16.919,20.553z"/>
	<path display="inline" fill="none" stroke="#999999" stroke-width="1.25" stroke-miterlimit="10" d="M58.819,16.937
		c0-0.382-0.037-0.755-0.089-1.121l2.326-1.344l-2.839-4.917l-2.257,1.301c-0.631-0.523-1.347-0.946-2.122-1.254V7.025H48.16v2.518
		c-0.809,0.301-1.556,0.726-2.217,1.26l-2.162-1.248l-2.839,4.917l2.179,1.258c-0.061,0.396-0.103,0.796-0.103,1.207
		c0,0.452,0.049,0.892,0.121,1.323l-2.197,1.269l2.839,4.917l2.26-1.303c0.635,0.499,1.349,0.9,2.119,1.188v2.643h5.679v-2.701
		c0.737-0.295,1.42-0.693,2.028-1.184l2.351,1.356l2.839-4.917l-2.344-1.354C58.776,17.77,58.819,17.358,58.819,16.937z
		 M50.919,20.553c-1.997,0-3.616-1.619-3.616-3.616s1.619-3.615,3.616-3.615c1.998,0,3.617,1.618,3.617,3.615
		S52.917,20.553,50.919,20.553z"/>
	<path display="inline" fill="none" stroke="#333333" stroke-width="1.25" stroke-miterlimit="10" d="M92.819,16.937
		c0-0.382-0.037-0.755-0.089-1.121l2.326-1.344l-2.839-4.917l-2.257,1.301c-0.631-0.523-1.347-0.946-2.122-1.254V7.025H82.16v2.518
		c-0.809,0.301-1.556,0.726-2.217,1.26l-2.162-1.248l-2.839,4.917l2.179,1.258c-0.061,0.396-0.103,0.796-0.103,1.207
		c0,0.452,0.049,0.892,0.121,1.323l-2.197,1.269l2.839,4.917l2.26-1.303c0.635,0.499,1.349,0.9,2.119,1.188v2.643h5.679v-2.701
		c0.737-0.295,1.42-0.693,2.028-1.184l2.351,1.356l2.839-4.917l-2.344-1.354C92.776,17.77,92.819,17.358,92.819,16.937z
		 M84.919,20.553c-1.997,0-3.616-1.619-3.616-3.616s1.619-3.615,3.616-3.615c1.998,0,3.617,1.618,3.617,3.615
		S86.917,20.553,84.919,20.553z"/>
</g>
<g id="Settings" display="none">
	<g display="inline">
		<path fill="none" stroke="#FFFFFF" stroke-miterlimit="10" d="M18.486,21.581c0-0.298-0.029-0.589-0.07-0.874l1.814-1.048
			l-2.214-3.835l-1.761,1.014c-0.492-0.408-1.05-0.737-1.654-0.978v-2.01h-4.43v1.964c-0.631,0.234-1.213,0.566-1.729,0.982
			l-1.688-0.973l-2.214,3.835l1.699,0.98c-0.047,0.309-0.08,0.621-0.08,0.941c0,0.353,0.038,0.696,0.095,1.032l-1.714,0.989
			l2.214,3.836l1.763-1.017c0.495,0.39,1.052,0.702,1.653,0.927v2.062h4.43v-2.106c0.574-0.23,1.107-0.541,1.582-0.924l1.833,1.059
			l2.214-3.836l-1.828-1.056C18.452,22.231,18.486,21.91,18.486,21.581z M12.323,24.402c-1.558,0-2.82-1.264-2.82-2.821
			s1.263-2.819,2.82-2.819c1.559,0,2.821,1.262,2.821,2.819S13.882,24.402,12.323,24.402z"/>
		<path fill="none" stroke="#FFFFFF" stroke-miterlimit="10" d="M28.189,10.208c0-0.217-0.021-0.429-0.051-0.636l1.318-0.762
			l-1.609-2.787L26.568,6.76c-0.358-0.296-0.764-0.535-1.203-0.71V4.589h-3.22v1.428c-0.458,0.17-0.882,0.411-1.256,0.714
			l-1.227-0.707l-1.609,2.787l1.235,0.713c-0.034,0.225-0.059,0.451-0.059,0.685c0,0.256,0.027,0.506,0.069,0.75l-1.246,0.719
			l1.609,2.788l1.28-0.738c0.36,0.283,0.766,0.51,1.202,0.674v1.498h3.22v-1.531c0.418-0.167,0.806-0.393,1.15-0.671l1.332,0.769
			l1.609-2.788l-1.329-0.767C28.164,10.681,28.189,10.447,28.189,10.208z M23.709,12.259c-1.132,0-2.049-0.919-2.049-2.051
			s0.917-2.05,2.049-2.05c1.134,0,2.051,0.918,2.051,2.05S24.843,12.259,23.709,12.259z"/>
	</g>
	<g display="inline">
		<path fill="none" stroke="#999999" stroke-miterlimit="10" d="M52.486,21.581c0-0.298-0.029-0.589-0.07-0.874l1.814-1.048
			l-2.214-3.835l-1.761,1.014c-0.492-0.408-1.05-0.737-1.654-0.978v-2.01h-4.43v1.964c-0.631,0.234-1.213,0.566-1.729,0.982
			l-1.688-0.973l-2.214,3.835l1.699,0.98c-0.047,0.309-0.08,0.621-0.08,0.941c0,0.353,0.038,0.696,0.095,1.032l-1.714,0.989
			l2.214,3.836l1.763-1.017c0.495,0.39,1.052,0.702,1.653,0.927v2.062h4.43v-2.106c0.574-0.23,1.107-0.541,1.582-0.924l1.833,1.059
			l2.214-3.836l-1.828-1.056C52.452,22.231,52.486,21.91,52.486,21.581z M46.323,24.402c-1.558,0-2.82-1.264-2.82-2.821
			s1.263-2.819,2.82-2.819s2.821,1.262,2.821,2.819S47.881,24.402,46.323,24.402z"/>
		<path fill="none" stroke="#999999" stroke-miterlimit="10" d="M62.189,10.208c0-0.217-0.021-0.429-0.051-0.636l1.318-0.762
			l-1.609-2.787L60.568,6.76c-0.358-0.296-0.764-0.535-1.203-0.71V4.589h-3.22v1.428c-0.458,0.17-0.882,0.411-1.256,0.714
			l-1.227-0.707l-1.609,2.787l1.235,0.713c-0.034,0.225-0.059,0.451-0.059,0.685c0,0.256,0.027,0.506,0.069,0.75l-1.246,0.719
			l1.609,2.788l1.28-0.738c0.36,0.283,0.766,0.51,1.202,0.674v1.498h3.22v-1.531c0.418-0.167,0.806-0.393,1.15-0.671l1.332,0.769
			l1.609-2.788l-1.329-0.767C62.164,10.681,62.189,10.447,62.189,10.208z M57.709,12.259c-1.132,0-2.049-0.919-2.049-2.051
			s0.917-2.05,2.049-2.05c1.134,0,2.051,0.918,2.051,2.05S58.843,12.259,57.709,12.259z"/>
	</g>
	<g display="inline">
		<path fill="none" stroke="#333333" stroke-miterlimit="10" d="M86.486,21.581c0-0.298-0.029-0.589-0.07-0.874l1.814-1.048
			l-2.214-3.835l-1.761,1.014c-0.492-0.408-1.05-0.737-1.654-0.978v-2.01h-4.43v1.964c-0.631,0.234-1.213,0.566-1.729,0.982
			l-1.688-0.973l-2.214,3.835l1.699,0.98c-0.047,0.309-0.08,0.621-0.08,0.941c0,0.353,0.038,0.696,0.095,1.032l-1.714,0.989
			l2.214,3.836l1.763-1.017c0.495,0.39,1.052,0.702,1.653,0.927v2.062h4.43v-2.106c0.574-0.23,1.107-0.541,1.582-0.924l1.833,1.059
			l2.214-3.836l-1.828-1.056C86.452,22.231,86.486,21.91,86.486,21.581z M80.323,24.402c-1.558,0-2.82-1.264-2.82-2.821
			s1.263-2.819,2.82-2.819s2.821,1.262,2.821,2.819S81.881,24.402,80.323,24.402z"/>
		<path fill="none" stroke="#333333" stroke-miterlimit="10" d="M96.189,10.208c0-0.217-0.021-0.429-0.051-0.636l1.318-0.762
			l-1.609-2.787L94.568,6.76c-0.358-0.296-0.764-0.535-1.203-0.71V4.589h-3.22v1.428c-0.458,0.17-0.882,0.411-1.256,0.714
			l-1.227-0.707l-1.609,2.787l1.235,0.713c-0.034,0.225-0.059,0.451-0.059,0.685c0,0.256,0.027,0.506,0.069,0.75l-1.246,0.719
			l1.609,2.788l1.28-0.738c0.36,0.283,0.766,0.51,1.202,0.674v1.498h3.22v-1.531c0.418-0.167,0.806-0.393,1.15-0.671l1.332,0.769
			l1.609-2.788l-1.329-0.767C96.164,10.681,96.189,10.447,96.189,10.208z M91.709,12.259c-1.132,0-2.049-0.919-2.049-2.051
			s0.917-2.05,2.049-2.05c1.134,0,2.051,0.918,2.051,2.05S92.843,12.259,91.709,12.259z"/>
	</g>
</g>
<g id="Project" display="none">
	<g display="inline">
		<polyline fill="none" stroke="#FFFFFF" stroke-width="1.25" stroke-miterlimit="10" points="13.104,12.566 8.679,16.991 
			13.121,21.433 		"/>
		<polyline fill="none" stroke="#FFFFFF" stroke-width="1.25" stroke-miterlimit="10" points="20.895,21.433 25.32,17.009 
			20.877,12.566 		"/>
	</g>
	<g display="inline">
		<polyline fill="none" stroke="#999999" stroke-width="1.25" stroke-miterlimit="10" points="47.104,12.566 42.678,16.991 
			47.121,21.433 		"/>
		<polyline fill="none" stroke="#999999" stroke-width="1.25" stroke-miterlimit="10" points="54.895,21.433 59.32,17.009 
			54.877,12.566 		"/>
	</g>
	<g display="inline">
		<polyline fill="none" stroke="#333333" stroke-width="1.25" stroke-miterlimit="10" points="81.104,12.566 76.678,16.991 
			81.121,21.433 		"/>
		<polyline fill="none" stroke="#333333" stroke-width="1.25" stroke-miterlimit="10" points="88.895,21.433 93.32,17.009 
			88.877,12.566 		"/>
	</g>
</g>
<g id="Domain" display="none">
	<g display="inline">
		<g>
			<path fill="#FFFFFF" d="M27.75,8.25v17.5H6.25V8.25H27.75 M29,7H5v20h24V7L29,7z"/>
		</g>
	</g>
	<line display="inline" fill="none" stroke="#FFFFFF" stroke-width="1.25" stroke-miterlimit="10" x1="5" y1="13" x2="29" y2="13"/>
	<circle display="inline" fill="#FFFFFF" cx="9" cy="10.293" r="1"/>
	<circle display="inline" fill="#FFFFFF" cx="12" cy="10.293" r="1"/>
	<circle display="inline" fill="#FFFFFF" cx="15" cy="10.293" r="1"/>
	<g display="inline">
		<g>
			<path fill="#999999" d="M61.75,8.25v17.5h-21.5V8.25H61.75 M63,7H39v20h24V7L63,7z"/>
		</g>
	</g>
	
		<line display="inline" fill="none" stroke="#999999" stroke-width="1.25" stroke-miterlimit="10" x1="39" y1="13" x2="63" y2="13"/>
	<circle display="inline" fill="#999999" cx="43" cy="10.293" r="1"/>
	<circle display="inline" fill="#999999" cx="46" cy="10.293" r="1"/>
	<circle display="inline" fill="#999999" cx="49" cy="10.293" r="1"/>
	<g display="inline">
		<g>
			<path fill="#333333" d="M95.75,8.25v17.5h-21.5V8.25H95.75 M97,7H73v20h24V7L97,7z"/>
		</g>
	</g>
	
		<line display="inline" fill="none" stroke="#333333" stroke-width="1.25" stroke-miterlimit="10" x1="73" y1="13" x2="97" y2="13"/>
	<circle display="inline" fill="#333333" cx="77" cy="10.293" r="1"/>
	<circle display="inline" fill="#333333" cx="80" cy="10.293" r="1"/>
	<circle display="inline" fill="#333333" cx="83" cy="10.293" r="1"/>
</g>
<g id="Core" display="none">
	<path display="inline" fill="none" stroke="#FFFFFF" stroke-width="1.25" stroke-miterlimit="10" d="M17.002,29.175
		c-5.865,0-10.619-4.754-10.619-10.618c0-4.22,2.463-7.776,6.029-9.463c3.287-1.553,3.18-2.08,3.689-4.27
		c0.998,1.536,1.91,2.699,3.338,3.265c4.953,1.962,8.18,5.442,8.18,10.468C27.619,24.421,22.865,29.175,17.002,29.175z"/>
	<path display="inline" fill="none" stroke="#999999" stroke-width="1.25" stroke-miterlimit="10" d="M51.002,29.175
		c-5.865,0-10.619-4.754-10.619-10.618c0-4.22,2.463-7.776,6.029-9.463c3.287-1.553,3.18-2.08,3.689-4.27
		c0.998,1.536,1.91,2.699,3.338,3.265c4.953,1.962,8.18,5.442,8.18,10.468C61.619,24.421,56.865,29.175,51.002,29.175z"/>
	<path display="inline" fill="none" stroke="#333333" stroke-width="1.25" stroke-miterlimit="10" d="M85.002,29.175
		c-5.865,0-10.619-4.754-10.619-10.618c0-4.22,2.463-7.776,6.029-9.463c3.287-1.553,3.18-2.08,3.689-4.27
		c0.998,1.536,1.91,2.699,3.338,3.265c4.953,1.962,8.18,5.442,8.18,10.468C95.619,24.421,90.865,29.175,85.002,29.175z"/>
</g>
<g id="Host" display="none">
	<g display="inline">
		<path fill="#FFFFFF" d="M28,8V12H6V8H28 M29,7H5v6h24V7L29,7z"/>
	</g>
	<rect x="24" y="9.5" display="inline" fill="#FFFFFF" width="2" height="1"/>
	<rect x="21" y="9.5" display="inline" fill="#FFFFFF" width="2" height="1"/>
	<rect x="18" y="9.5" display="inline" fill="#FFFFFF" width="2" height="1"/>
	<circle display="inline" fill="#FFFFFF" cx="9" cy="10" r="1"/>
	<g display="inline">
		<path fill="#FFFFFF" d="M28,15V19H6V15H28 M29,14H5v6h24V14L29,14z"/>
	</g>
	<rect x="24" y="16.5" display="inline" fill="#FFFFFF" width="2" height="1"/>
	<rect x="21" y="16.5" display="inline" fill="#FFFFFF" width="2" height="1"/>
	<rect x="18" y="16.5" display="inline" fill="#FFFFFF" width="2" height="1"/>
	<circle display="inline" fill="#FFFFFF" cx="9" cy="17" r="1"/>
	<g display="inline">
		<path fill="#FFFFFF" d="M28,22V26H6V22H28 M29,21H5v6h24V21L29,21z"/>
	</g>
	<rect x="24" y="23.5" display="inline" fill="#FFFFFF" width="2" height="1"/>
	<rect x="21" y="23.5" display="inline" fill="#FFFFFF" width="2" height="1"/>
	<rect x="18" y="23.5" display="inline" fill="#FFFFFF" width="2" height="1"/>
	<circle display="inline" fill="#FFFFFF" cx="9" cy="24" r="1"/>
	<g display="inline">
		<path fill="#999999" d="M62,8V12H40V8H62 M63,7H39v6h24V7L63,7z"/>
	</g>
	<rect x="58" y="9.5" display="inline" fill="#999999" width="2" height="1"/>
	<rect x="55" y="9.5" display="inline" fill="#999999" width="2" height="1"/>
	<rect x="52" y="9.5" display="inline" fill="#999999" width="2" height="1"/>
	<circle display="inline" fill="#999999" cx="43" cy="10" r="1"/>
	<g display="inline">
		<path fill="#999999" d="M62,15V19H40V15H62 M63,14H39v6h24V14L63,14z"/>
	</g>
	<rect x="58" y="16.5" display="inline" fill="#999999" width="2" height="1"/>
	<rect x="55" y="16.5" display="inline" fill="#999999" width="2" height="1"/>
	<rect x="52" y="16.5" display="inline" fill="#999999" width="2" height="1"/>
	<circle display="inline" fill="#999999" cx="43" cy="17" r="1"/>
	<g display="inline">
		<path fill="#999999" d="M62,22V26H40V22H62 M63,21H39v6h24V21L63,21z"/>
	</g>
	<rect x="58" y="23.5" display="inline" fill="#999999" width="2" height="1"/>
	<rect x="55" y="23.5" display="inline" fill="#999999" width="2" height="1"/>
	<rect x="52" y="23.5" display="inline" fill="#999999" width="2" height="1"/>
	<circle display="inline" fill="#999999" cx="43" cy="24" r="1"/>
	<g display="inline">
		<path fill="#333333" d="M96,8V12H74V8H96 M97,7H73v6h24V7L97,7z"/>
	</g>
	<rect x="92" y="9.5" display="inline" fill="#333333" width="2" height="1"/>
	<rect x="89" y="9.5" display="inline" fill="#333333" width="2" height="1"/>
	<rect x="86" y="9.5" display="inline" fill="#333333" width="2" height="1"/>
	<circle display="inline" fill="#333333" cx="77" cy="10" r="1"/>
	<g display="inline">
		<path fill="#333333" d="M96,15V19H74V15H96 M97,14H73v6h24V14L97,14z"/>
	</g>
	<rect x="92" y="16.5" display="inline" fill="#333333" width="2" height="1"/>
	<rect x="89" y="16.5" display="inline" fill="#333333" width="2" height="1"/>
	<rect x="86" y="16.5" display="inline" fill="#333333" width="2" height="1"/>
	<circle display="inline" fill="#333333" cx="77" cy="17" r="1"/>
	<g display="inline">
		<path fill="#333333" d="M96,22V26H74V22H96 M97,21H73v6h24V21L97,21z"/>
	</g>
	<rect x="92" y="23.5" display="inline" fill="#333333" width="2" height="1"/>
	<rect x="89" y="23.5" display="inline" fill="#333333" width="2" height="1"/>
	<rect x="86" y="23.5" display="inline" fill="#333333" width="2" height="1"/>
	<circle display="inline" fill="#333333" cx="77" cy="24" r="1"/>
</g>
<g id="Heartbeat" display="none">
	<g display="inline">
		<path fill="none" stroke="#FFFFFF" stroke-width="1.25" stroke-miterlimit="10" d="M22.783,5.759c-2,0-4.372,1.087-5.783,3.972
			c-1.411-2.885-3.783-3.972-5.783-3.972c-3.194,0-6.497,2.676-6.497,7.153c0,6.518,11.312,14.82,11.794,15.17
			c0.146,0.105,0.315,0.158,0.486,0.158c0.169,0,0.341-0.053,0.486-0.158c0.481-0.35,11.793-8.652,11.793-15.17
			C29.279,8.436,25.978,5.759,22.783,5.759z"/>
	</g>
	<g display="inline">
		<path fill="none" stroke="#999999" stroke-width="1.25" stroke-miterlimit="10" d="M56.783,5.759c-2,0-4.372,1.087-5.783,3.972
			c-1.411-2.885-3.783-3.972-5.783-3.972c-3.194,0-6.497,2.676-6.497,7.153c0,6.518,11.312,14.82,11.794,15.17
			c0.146,0.105,0.315,0.158,0.486,0.158c0.169,0,0.341-0.053,0.486-0.158c0.481-0.35,11.793-8.652,11.793-15.17
			C63.279,8.436,59.978,5.759,56.783,5.759z"/>
	</g>
	<g display="inline">
		<path fill="none" stroke="#333333" stroke-width="1.25" stroke-miterlimit="10" d="M90.783,5.759c-2,0-4.372,1.087-5.783,3.972
			c-1.411-2.885-3.783-3.972-5.783-3.972c-3.194,0-6.497,2.676-6.497,7.153c0,6.518,11.312,14.82,11.794,15.17
			c0.146,0.105,0.315,0.158,0.486,0.158c0.169,0,0.341-0.053,0.486-0.158c0.481-0.35,11.793-8.652,11.793-15.17
			C97.279,8.436,93.978,5.759,90.783,5.759z"/>
	</g>
</g>
<g id="Switch" display="none">
	<path display="inline" fill="#FFFFFF" d="M14.722,5.281v1.25h5.001L9.67,16.586c-1.287,1.287-2.025,3.129-2.026,5.054
		c0,1.925,0.738,3.767,2.024,5.054c1.287,1.286,3.13,2.024,5.055,2.024c1.924,0,3.767-0.738,5.053-2.024l3.526-3.525l-0.883-0.885
		l-3.527,3.526c-1.054,1.054-2.573,1.658-4.169,1.658s-3.116-0.604-4.171-1.659c-1.054-1.054-1.658-2.573-1.658-4.169
		s0.605-3.115,1.66-4.169L20.607,7.416v5.001h1.25V5.281H14.722z"/>
	<path display="inline" fill="#999999" d="M48.722,5.281v1.25h5.001L43.67,16.586c-1.287,1.287-2.025,3.129-2.026,5.054
		c0,1.925,0.737,3.767,2.024,5.054c1.287,1.286,3.129,2.024,5.055,2.024c1.924,0,3.767-0.738,5.053-2.024l3.526-3.525l-0.883-0.885
		l-3.527,3.526c-1.054,1.054-2.573,1.658-4.169,1.658s-3.116-0.604-4.171-1.659c-1.054-1.054-1.658-2.573-1.658-4.169
		s0.605-3.115,1.66-4.169L54.607,7.416v5.001h1.25V5.281H48.722z"/>
	<path display="inline" fill="#333333" d="M82.722,5.281v1.25h5.001L77.67,16.586c-1.287,1.287-2.025,3.129-2.026,5.054
		c0,1.925,0.737,3.767,2.024,5.054c1.287,1.286,3.129,2.024,5.055,2.024c1.924,0,3.767-0.738,5.053-2.024l3.526-3.525l-0.883-0.885
		l-3.527,3.526c-1.054,1.054-2.573,1.658-4.169,1.658s-3.116-0.604-4.171-1.659c-1.054-1.054-1.658-2.573-1.658-4.169
		s0.605-3.115,1.66-4.169L88.607,7.416v5.001h1.25V5.281H82.722z"/>
</g>
<g id="SSL">
	<g>
		<g>
			<path fill="#FFFFFF" d="M9.327,20.856c1.48,0,2.686,1.205,2.686,2.687c0,1.481-1.205,2.686-2.686,2.686s-2.686-1.205-2.686-2.686
				C6.642,22.062,7.847,20.856,9.327,20.856 M9.327,19.606c-2.174,0-3.936,1.763-3.936,3.937c0,2.173,1.762,3.936,3.936,3.936
				c2.173,0,3.936-1.763,3.936-3.936C13.263,21.369,11.5,19.606,9.327,19.606L9.327,19.606z"/>
		</g>
	</g>
	<line fill="none" stroke="#FFFFFF" stroke-width="1.25" stroke-miterlimit="10" x1="11.594" y1="21.275" x2="25.954" y2="6.915"/>
	<polygon fill="#FFFFFF" points="27.447,12.024 28.331,11.14 25.029,7.839 24.416,8.454 24.402,8.44 22.502,10.342 22.514,10.354 
		21.995,10.875 25.297,14.175 26.18,13.292 24.473,11.584 25.74,10.316 	"/>
	<g>
		<g>
			<path fill="#999999" d="M43.327,20.856c1.481,0,2.686,1.205,2.686,2.687c0,1.481-1.204,2.686-2.686,2.686
				s-2.686-1.205-2.686-2.686C40.642,22.062,41.846,20.856,43.327,20.856 M43.327,19.606c-2.174,0-3.936,1.763-3.936,3.937
				c0,2.173,1.762,3.936,3.936,3.936c2.173,0,3.935-1.763,3.935-3.936C47.262,21.369,45.5,19.606,43.327,19.606L43.327,19.606z"/>
		</g>
	</g>
	<line fill="none" stroke="#999999" stroke-width="1.25" stroke-miterlimit="10" x1="45.594" y1="21.275" x2="59.954" y2="6.915"/>
	<polygon fill="#999999" points="61.447,12.024 62.331,11.14 59.029,7.839 58.416,8.454 58.402,8.44 56.502,10.342 56.514,10.354 
		55.995,10.875 59.297,14.175 60.18,13.292 58.473,11.584 59.74,10.316 	"/>
	<g>
		<g>
			<path fill="#333333" d="M77.327,20.856c1.481,0,2.686,1.205,2.686,2.687c0,1.481-1.204,2.686-2.686,2.686
				s-2.686-1.205-2.686-2.686C74.642,22.062,75.846,20.856,77.327,20.856 M77.327,19.606c-2.174,0-3.936,1.763-3.936,3.937
				c0,2.173,1.762,3.936,3.936,3.936c2.173,0,3.935-1.763,3.935-3.936C81.262,21.369,79.5,19.606,77.327,19.606L77.327,19.606z"/>
		</g>
	</g>
	<line fill="none" stroke="#333333" stroke-width="1.25" stroke-miterlimit="10" x1="79.594" y1="21.275" x2="93.954" y2="6.915"/>
	<polygon fill="#333333" points="95.447,12.024 96.331,11.14 93.029,7.839 92.416,8.454 92.402,8.44 90.502,10.342 90.514,10.354 
		89.995,10.875 93.297,14.175 94.18,13.292 92.473,11.584 93.74,10.316 	"/>
</g>
<g id="DRD" display="none">
	<path display="inline" fill="#FFFFFF" d="M15.727,15.874c-1.344,0-2.439,1.095-2.439,2.439c0,1.346,1.096,2.44,2.439,2.44
		c1.346,0,2.44-1.095,2.44-2.44C18.167,16.969,17.072,15.874,15.727,15.874z M15.727,16.851c0.809,0,1.465,0.656,1.465,1.463
		c0,0.808-0.656,1.464-1.465,1.464c-0.807,0-1.463-0.656-1.463-1.464C14.264,17.507,14.92,16.851,15.727,16.851z"/>
	<path display="inline" fill="#FFFFFF" d="M11.66,19.94c-1.344,0-2.439,1.095-2.439,2.44c0,1.345,1.096,2.439,2.439,2.439
		c1.346,0,2.44-1.095,2.44-2.439C14.101,21.035,13.006,19.94,11.66,19.94z M11.66,20.916c0.809,0,1.465,0.657,1.465,1.465
		c0,0.807-0.656,1.463-1.465,1.463c-0.807,0-1.463-0.656-1.463-1.463C10.197,21.573,10.854,20.916,11.66,20.916z"/>
	<path display="inline" fill="#FFFFFF" d="M7.594,24.007c-1.344,0-2.439,1.095-2.439,2.44c0,1.345,1.096,2.439,2.439,2.439
		c1.346,0,2.441-1.095,2.441-2.439C10.035,25.102,8.939,24.007,7.594,24.007z M7.594,24.982c0.809,0,1.465,0.657,1.465,1.465
		c0,0.807-0.656,1.464-1.465,1.464c-0.807,0-1.463-0.657-1.463-1.464C6.131,25.64,6.787,24.982,7.594,24.982z"/>
	<g display="inline">
		<g>
			<path fill="#FFFFFF" d="M22.395,14.589l0.871-0.492c0.346,0.613,0.617,1.269,0.805,1.947l-0.963,0.268
				C22.939,15.711,22.701,15.131,22.395,14.589z M21.124,12.915c-0.222-0.222-0.454-0.428-0.694-0.617l0.617-0.785
				c0.271,0.213,0.533,0.444,0.784,0.695c0.254,0.254,0.488,0.519,0.703,0.795l-0.787,0.615
				C21.557,13.375,21.349,13.14,21.124,12.915z M17.738,10.937l0.268-0.963c0.68,0.188,1.334,0.459,1.947,0.805l-0.492,0.871
				C18.92,11.343,18.34,11.104,17.738,10.937z"/>
		</g>
		<g>
			<path fill="#FFFFFF" d="M28.753,14.408l0.957-0.289c0.194,0.643,0.347,1.307,0.452,1.972l-0.988,0.156
				C29.076,15.627,28.935,15.008,28.753,14.408z M27.545,11.598l0.867-0.496c0.334,0.583,0.629,1.196,0.879,1.823l-0.928,0.371
				C28.131,12.712,27.855,12.141,27.545,11.598z M25.738,9.127l0.736-0.678c0.457,0.498,0.883,1.03,1.264,1.582L26.916,10.6
				C26.561,10.086,26.164,9.59,25.738,9.127z M23.432,7.115l0.567-0.822c0.552,0.381,1.084,0.806,1.582,1.261l-0.677,0.738
				C24.441,7.866,23.945,7.471,23.432,7.115z M20.734,5.672l0.369-0.93c0.627,0.249,1.24,0.545,1.824,0.877l-0.496,0.869
				C21.889,6.179,21.317,5.903,20.734,5.672z M17.781,4.866l0.154-0.988c0.665,0.104,1.33,0.255,1.973,0.449l-0.287,0.957
				C19.02,5.104,18.401,4.963,17.781,4.866z"/>
		</g>
		<g>
			<path fill="#FFFFFF" d="M22.391,14.58l0.871-0.492c0.345,0.61,0.615,1.266,0.806,1.945l-0.964,0.27
				C22.937,15.699,22.695,15.12,22.391,14.58z M21.124,12.915c-0.224-0.224-0.46-0.432-0.702-0.622l0.617-0.787
				c0.274,0.216,0.539,0.449,0.792,0.702c0.25,0.25,0.482,0.512,0.696,0.783l-0.785,0.619C21.552,13.37,21.346,13.138,21.124,12.915
				z M17.729,10.934l0.268-0.963c0.68,0.188,1.335,0.458,1.946,0.803l-0.49,0.871C18.91,11.34,18.331,11.101,17.729,10.934z"/>
		</g>
	</g>
	<path display="inline" fill="#999999" d="M49.727,15.874c-1.344,0-2.439,1.095-2.439,2.439c0,1.346,1.096,2.44,2.439,2.44
		c1.346,0,2.44-1.095,2.44-2.44C52.167,16.969,51.072,15.874,49.727,15.874z M49.727,16.851c0.809,0,1.465,0.656,1.465,1.463
		c0,0.808-0.656,1.464-1.465,1.464c-0.807,0-1.463-0.656-1.463-1.464C48.264,17.507,48.92,16.851,49.727,16.851z"/>
	<path display="inline" fill="#999999" d="M45.66,19.94c-1.344,0-2.439,1.095-2.439,2.44c0,1.345,1.096,2.439,2.439,2.439
		c1.346,0,2.44-1.095,2.44-2.439C48.101,21.035,47.006,19.94,45.66,19.94z M45.66,20.916c0.809,0,1.465,0.657,1.465,1.465
		c0,0.807-0.656,1.463-1.465,1.463c-0.807,0-1.463-0.656-1.463-1.463C44.197,21.573,44.854,20.916,45.66,20.916z"/>
	<path display="inline" fill="#999999" d="M41.594,24.007c-1.344,0-2.439,1.095-2.439,2.44c0,1.345,1.096,2.439,2.439,2.439
		c1.346,0,2.441-1.095,2.441-2.439C44.035,25.102,42.939,24.007,41.594,24.007z M41.594,24.982c0.809,0,1.465,0.657,1.465,1.465
		c0,0.807-0.656,1.464-1.465,1.464c-0.807,0-1.463-0.657-1.463-1.464C40.131,25.64,40.787,24.982,41.594,24.982z"/>
	<g display="inline">
		<g>
			<path fill="#999999" d="M56.395,14.589l0.871-0.492c0.346,0.613,0.617,1.269,0.805,1.947l-0.963,0.268
				C56.939,15.711,56.701,15.131,56.395,14.589z M55.124,12.915c-0.222-0.222-0.454-0.428-0.694-0.617l0.617-0.785
				c0.271,0.213,0.533,0.444,0.784,0.695c0.254,0.254,0.488,0.519,0.703,0.795l-0.787,0.615
				C55.557,13.375,55.349,13.14,55.124,12.915z M51.738,10.937l0.268-0.963c0.68,0.188,1.334,0.459,1.947,0.805l-0.492,0.871
				C52.92,11.343,52.34,11.104,51.738,10.937z"/>
		</g>
		<g>
			<path fill="#999999" d="M62.753,14.408l0.957-0.289c0.194,0.643,0.347,1.307,0.452,1.972l-0.988,0.156
				C63.076,15.627,62.935,15.008,62.753,14.408z M61.545,11.598l0.867-0.496c0.334,0.583,0.629,1.196,0.879,1.823l-0.928,0.371
				C62.131,12.712,61.855,12.141,61.545,11.598z M59.738,9.127l0.736-0.678c0.457,0.498,0.883,1.03,1.264,1.582L60.916,10.6
				C60.561,10.086,60.164,9.59,59.738,9.127z M57.432,7.115l0.567-0.822c0.552,0.381,1.084,0.806,1.582,1.261l-0.677,0.738
				C58.441,7.866,57.945,7.471,57.432,7.115z M54.734,5.672l0.369-0.93c0.627,0.249,1.24,0.545,1.824,0.877l-0.496,0.869
				C55.889,6.179,55.317,5.903,54.734,5.672z M51.781,4.866l0.154-0.988c0.665,0.104,1.33,0.255,1.973,0.449l-0.287,0.957
				C53.02,5.104,52.401,4.963,51.781,4.866z"/>
		</g>
		<g>
			<path fill="#999999" d="M56.391,14.58l0.871-0.492c0.345,0.61,0.615,1.266,0.806,1.945l-0.964,0.27
				C56.937,15.699,56.695,15.12,56.391,14.58z M55.124,12.915c-0.224-0.224-0.46-0.432-0.702-0.622l0.617-0.787
				c0.274,0.216,0.539,0.449,0.792,0.702c0.25,0.25,0.482,0.512,0.696,0.783l-0.785,0.619C55.552,13.37,55.346,13.138,55.124,12.915
				z M51.729,10.934l0.268-0.963c0.68,0.188,1.335,0.458,1.946,0.803l-0.49,0.871C52.91,11.34,52.331,11.101,51.729,10.934z"/>
		</g>
	</g>
	<path display="inline" fill="#333333" d="M83.727,15.874c-1.344,0-2.439,1.095-2.439,2.439c0,1.346,1.096,2.44,2.439,2.44
		c1.346,0,2.44-1.095,2.44-2.44C86.167,16.969,85.072,15.874,83.727,15.874z M83.727,16.851c0.809,0,1.465,0.656,1.465,1.463
		c0,0.808-0.656,1.464-1.465,1.464c-0.807,0-1.463-0.656-1.463-1.464C82.264,17.507,82.92,16.851,83.727,16.851z"/>
	<path display="inline" fill="#333333" d="M79.66,19.94c-1.344,0-2.439,1.095-2.439,2.44c0,1.345,1.096,2.439,2.439,2.439
		c1.346,0,2.44-1.095,2.44-2.439C82.101,21.035,81.006,19.94,79.66,19.94z M79.66,20.916c0.809,0,1.465,0.657,1.465,1.465
		c0,0.807-0.656,1.463-1.465,1.463c-0.807,0-1.463-0.656-1.463-1.463C78.197,21.573,78.854,20.916,79.66,20.916z"/>
	<path display="inline" fill="#333333" d="M75.594,24.007c-1.344,0-2.439,1.095-2.439,2.44c0,1.345,1.096,2.439,2.439,2.439
		c1.346,0,2.441-1.095,2.441-2.439C78.035,25.102,76.939,24.007,75.594,24.007z M75.594,24.982c0.809,0,1.465,0.657,1.465,1.465
		c0,0.807-0.656,1.464-1.465,1.464c-0.807,0-1.463-0.657-1.463-1.464C74.131,25.64,74.787,24.982,75.594,24.982z"/>
	<g display="inline">
		<g>
			<path fill="#333333" d="M90.395,14.589l0.871-0.492c0.346,0.613,0.617,1.269,0.805,1.947l-0.963,0.268
				C90.939,15.711,90.701,15.131,90.395,14.589z M89.124,12.915c-0.222-0.222-0.454-0.428-0.694-0.617l0.617-0.785
				c0.271,0.213,0.533,0.444,0.784,0.695c0.254,0.254,0.488,0.519,0.703,0.795l-0.787,0.615
				C89.557,13.375,89.348,13.14,89.124,12.915z M85.738,10.937l0.268-0.963c0.68,0.188,1.334,0.459,1.947,0.805l-0.492,0.871
				C86.92,11.343,86.34,11.104,85.738,10.937z"/>
		</g>
		<g>
			<path fill="#333333" d="M96.753,14.408l0.957-0.289c0.194,0.643,0.347,1.307,0.452,1.972l-0.988,0.156
				C97.076,15.627,96.935,15.008,96.753,14.408z M95.545,11.598l0.867-0.496c0.334,0.583,0.629,1.196,0.879,1.823l-0.928,0.371
				C96.131,12.712,95.855,12.141,95.545,11.598z M93.738,9.127l0.736-0.678c0.457,0.498,0.883,1.03,1.264,1.582L94.916,10.6
				C94.561,10.086,94.164,9.59,93.738,9.127z M91.432,7.115l0.567-0.822c0.552,0.381,1.084,0.806,1.582,1.261l-0.677,0.738
				C92.441,7.866,91.945,7.471,91.432,7.115z M88.734,5.672l0.369-0.93c0.627,0.249,1.24,0.545,1.824,0.877l-0.496,0.869
				C89.889,6.179,89.317,5.903,88.734,5.672z M85.781,4.866l0.154-0.988c0.665,0.104,1.33,0.255,1.973,0.449l-0.287,0.957
				C87.02,5.104,86.401,4.963,85.781,4.866z"/>
		</g>
		<g>
			<path fill="#333333" d="M90.391,14.58l0.871-0.492c0.345,0.61,0.615,1.266,0.806,1.945l-0.964,0.27
				C90.937,15.699,90.695,15.12,90.391,14.58z M89.124,12.915c-0.224-0.224-0.46-0.432-0.702-0.622l0.617-0.787
				c0.274,0.216,0.539,0.449,0.792,0.702c0.25,0.25,0.482,0.512,0.696,0.783l-0.785,0.619C89.552,13.37,89.346,13.138,89.124,12.915
				z M85.729,10.934l0.268-0.963c0.68,0.188,1.335,0.458,1.946,0.803l-0.49,0.871C86.91,11.34,86.331,11.101,85.729,10.934z"/>
		</g>
	</g>
</g>
<g id="Filter" display="none">
	<g display="inline">
		<path fill="#FFFFFF" d="M14.031,6.729c4.104,0,7.441,3.338,7.441,7.441s-3.338,7.441-7.441,7.441S6.59,18.273,6.59,14.17
			S9.928,6.729,14.031,6.729 M14.031,5.479c-4.8,0-8.691,3.892-8.691,8.691c0,4.801,3.892,8.691,8.691,8.691
			s8.691-3.891,8.691-8.691C22.723,9.37,18.831,5.479,14.031,5.479L14.031,5.479z"/>
	</g>
	
		<line display="inline" fill="none" stroke="#FFFFFF" stroke-width="1.25" stroke-miterlimit="10" x1="20.177" y1="20.316" x2="28.557" y2="28.695"/>
	<g display="inline">
		<path fill="#999999" d="M48.031,6.729c4.104,0,7.441,3.338,7.441,7.441s-3.338,7.441-7.441,7.441s-7.441-3.338-7.441-7.441
			S43.928,6.729,48.031,6.729 M48.031,5.479c-4.801,0-8.691,3.892-8.691,8.691c0,4.801,3.891,8.691,8.691,8.691
			c4.8,0,8.691-3.891,8.691-8.691C56.723,9.37,52.831,5.479,48.031,5.479L48.031,5.479z"/>
	</g>
	
		<line display="inline" fill="none" stroke="#999999" stroke-width="1.25" stroke-miterlimit="10" x1="54.177" y1="20.316" x2="62.557" y2="28.695"/>
	<g display="inline">
		<path fill="#333333" d="M82.031,6.729c4.104,0,7.441,3.338,7.441,7.441s-3.338,7.441-7.441,7.441s-7.441-3.338-7.441-7.441
			S77.928,6.729,82.031,6.729 M82.031,5.479c-4.801,0-8.691,3.892-8.691,8.691c0,4.801,3.891,8.691,8.691,8.691
			c4.8,0,8.691-3.891,8.691-8.691C90.723,9.37,86.831,5.479,82.031,5.479L82.031,5.479z"/>
	</g>
	
		<line display="inline" fill="none" stroke="#333333" stroke-width="1.25" stroke-miterlimit="10" x1="88.177" y1="20.316" x2="96.557" y2="28.695"/>
</g>
<g id="Link" display="none">
	<g display="inline">
		<circle fill="none" stroke="#FFFFFF" stroke-width="1.25" stroke-miterlimit="10" cx="17" cy="17" r="11.997"/>
		<line fill="none" stroke="#FFFFFF" stroke-width="1.25" stroke-miterlimit="10" x1="5.003" y1="17" x2="28.997" y2="17"/>
		<line fill="none" stroke="#FFFFFF" stroke-width="1.25" stroke-miterlimit="10" x1="6.781" y1="10.713" x2="27.22" y2="10.713"/>
		<line fill="none" stroke="#FFFFFF" stroke-width="1.25" stroke-miterlimit="10" x1="6.781" y1="23.285" x2="27.22" y2="23.285"/>
		<path fill="none" stroke="#FFFFFF" stroke-width="1.25" stroke-miterlimit="10" d="M17,28.998c0,0-4.921-5.709-4.921-11.998
			C12.079,10.713,17,5.002,17,5.002"/>
		<path fill="none" stroke="#FFFFFF" stroke-width="1.25" stroke-miterlimit="10" d="M17,28.998c0,0,4.921-5.709,4.921-11.998
			C21.921,10.713,17,5.002,17,5.002"/>
	</g>
	<g display="inline">
		<circle fill="none" stroke="#999999" stroke-width="1.25" stroke-miterlimit="10" cx="51" cy="17" r="11.997"/>
		<line fill="none" stroke="#999999" stroke-width="1.25" stroke-miterlimit="10" x1="39.003" y1="17" x2="62.997" y2="17"/>
		<line fill="none" stroke="#999999" stroke-width="1.25" stroke-miterlimit="10" x1="40.781" y1="10.713" x2="61.22" y2="10.713"/>
		<line fill="none" stroke="#999999" stroke-width="1.25" stroke-miterlimit="10" x1="40.781" y1="23.285" x2="61.22" y2="23.285"/>
		<path fill="none" stroke="#999999" stroke-width="1.25" stroke-miterlimit="10" d="M51,28.998c0,0-4.921-5.709-4.921-11.998
			C46.079,10.713,51,5.002,51,5.002"/>
		<path fill="none" stroke="#999999" stroke-width="1.25" stroke-miterlimit="10" d="M51,28.998c0,0,4.921-5.709,4.921-11.998
			C55.921,10.713,51,5.002,51,5.002"/>
	</g>
	<g display="inline">
		<circle fill="none" stroke="#333333" stroke-width="1.25" stroke-miterlimit="10" cx="85" cy="17" r="11.997"/>
		<line fill="none" stroke="#333333" stroke-width="1.25" stroke-miterlimit="10" x1="73.003" y1="17" x2="96.997" y2="17"/>
		<line fill="none" stroke="#333333" stroke-width="1.25" stroke-miterlimit="10" x1="74.781" y1="10.713" x2="95.22" y2="10.713"/>
		<line fill="none" stroke="#333333" stroke-width="1.25" stroke-miterlimit="10" x1="74.781" y1="23.285" x2="95.22" y2="23.285"/>
		<path fill="none" stroke="#333333" stroke-width="1.25" stroke-miterlimit="10" d="M85,28.998c0,0-4.921-5.709-4.921-11.998
			C80.079,10.713,85,5.002,85,5.002"/>
		<path fill="none" stroke="#333333" stroke-width="1.25" stroke-miterlimit="10" d="M85,28.998c0,0,4.921-5.709,4.921-11.998
			C89.921,10.713,85,5.002,85,5.002"/>
	</g>
</g>
<g id="SEO" display="none">
	<g display="inline">
		<path fill="#FFFFFF" d="M11.465,19.908c-0.647,0.647-1.644,0.912-2.687,0.912c-0.899,0-1.847-0.24-2.543-0.876
			c-0.504-0.456-0.888-1.175-0.888-1.979h1.584c0,0.42,0.191,0.791,0.443,1.043c0.359,0.36,0.936,0.456,1.427,0.456
			c0.588,0,1.151-0.12,1.476-0.456c0.192-0.204,0.336-0.407,0.336-0.815c0-0.624-0.479-0.911-1.008-1.008
			c-0.575-0.107-1.319-0.132-1.883-0.228c-1.175-0.191-2.159-0.959-2.159-2.375c0-0.671,0.301-1.235,0.744-1.679
			c0.563-0.552,1.499-0.899,2.494-0.899c0.912,0,1.8,0.288,2.375,0.827c0.504,0.48,0.852,1.104,0.863,1.812h-1.583
			c-0.012-0.3-0.168-0.624-0.371-0.84c-0.276-0.288-0.84-0.456-1.296-0.456c-0.479,0-1.031,0.108-1.379,0.468
			c-0.18,0.192-0.288,0.408-0.288,0.72c0,0.552,0.36,0.84,0.863,0.924c0.54,0.084,1.296,0.144,1.848,0.216
			c1.271,0.18,2.338,1.008,2.338,2.459C12.172,18.924,11.885,19.488,11.465,19.908z"/>
		<path fill="#FFFFFF" d="M13.867,20.664v-8.503h6.057v1.402h-4.509v1.979h3.97v1.392h-3.97v2.326h4.509v1.403H13.867z"/>
		<path fill="#FFFFFF" d="M27.125,19.86c-0.647,0.647-1.535,0.96-2.447,0.96c-0.911,0-1.799-0.312-2.447-0.96
			c-0.923-0.924-1.078-2.051-1.078-3.442c0-1.391,0.155-2.53,1.078-3.454c0.648-0.647,1.536-0.959,2.447-0.959
			c0.912,0,1.8,0.312,2.447,0.959c0.924,0.924,1.079,2.063,1.079,3.454C28.204,17.809,28.049,18.936,27.125,19.86z M26.021,13.971
			c-0.336-0.359-0.852-0.563-1.344-0.563c-0.491,0-1.007,0.204-1.343,0.563c-0.588,0.611-0.611,1.667-0.611,2.446
			c0,0.78,0.023,1.823,0.611,2.436c0.336,0.359,0.852,0.563,1.343,0.563c0.492,0,1.008-0.204,1.344-0.563
			c0.588-0.612,0.611-1.655,0.611-2.436C26.633,15.638,26.609,14.583,26.021,13.971z"/>
	</g>
	<g display="inline">
		<path fill="#999999" d="M45.465,19.908c-0.647,0.647-1.644,0.912-2.687,0.912c-0.899,0-1.847-0.24-2.543-0.876
			c-0.505-0.456-0.888-1.175-0.888-1.979h1.584c0,0.42,0.191,0.791,0.443,1.043c0.359,0.36,0.936,0.456,1.427,0.456
			c0.588,0,1.151-0.12,1.476-0.456c0.192-0.204,0.336-0.407,0.336-0.815c0-0.624-0.479-0.911-1.008-1.008
			c-0.575-0.107-1.319-0.132-1.883-0.228c-1.175-0.191-2.16-0.959-2.16-2.375c0-0.671,0.301-1.235,0.745-1.679
			c0.563-0.552,1.499-0.899,2.494-0.899c0.911,0,1.8,0.288,2.375,0.827c0.504,0.48,0.851,1.104,0.863,1.812h-1.583
			c-0.012-0.3-0.168-0.624-0.371-0.84c-0.276-0.288-0.84-0.456-1.296-0.456c-0.479,0-1.031,0.108-1.379,0.468
			c-0.181,0.192-0.288,0.408-0.288,0.72c0,0.552,0.36,0.84,0.863,0.924c0.54,0.084,1.296,0.144,1.848,0.216
			c1.271,0.18,2.338,1.008,2.338,2.459C46.172,18.924,45.885,19.488,45.465,19.908z"/>
		<path fill="#999999" d="M47.867,20.664v-8.503h6.057v1.402h-4.51v1.979h3.971v1.392h-3.971v2.326h4.51v1.403H47.867z"/>
		<path fill="#999999" d="M61.125,19.86c-0.647,0.647-1.535,0.96-2.447,0.96c-0.911,0-1.799-0.312-2.447-0.96
			c-0.923-0.924-1.078-2.051-1.078-3.442c0-1.391,0.155-2.53,1.078-3.454c0.648-0.647,1.536-0.959,2.447-0.959
			c0.912,0,1.8,0.312,2.447,0.959c0.924,0.924,1.079,2.063,1.079,3.454C62.204,17.809,62.049,18.936,61.125,19.86z M60.021,13.971
			c-0.336-0.359-0.852-0.563-1.344-0.563c-0.491,0-1.007,0.204-1.343,0.563c-0.588,0.611-0.611,1.667-0.611,2.446
			c0,0.78,0.023,1.823,0.611,2.436c0.336,0.359,0.852,0.563,1.343,0.563c0.492,0,1.008-0.204,1.344-0.563
			c0.588-0.612,0.611-1.655,0.611-2.436C60.633,15.638,60.609,14.583,60.021,13.971z"/>
	</g>
	<g display="inline">
		<path fill="#333333" d="M79.465,19.908c-0.647,0.647-1.644,0.912-2.687,0.912c-0.899,0-1.847-0.24-2.543-0.876
			c-0.505-0.456-0.888-1.175-0.888-1.979h1.584c0,0.42,0.191,0.791,0.443,1.043c0.359,0.36,0.936,0.456,1.427,0.456
			c0.588,0,1.151-0.12,1.476-0.456c0.192-0.204,0.336-0.407,0.336-0.815c0-0.624-0.479-0.911-1.008-1.008
			c-0.575-0.107-1.319-0.132-1.883-0.228c-1.175-0.191-2.16-0.959-2.16-2.375c0-0.671,0.301-1.235,0.745-1.679
			c0.563-0.552,1.499-0.899,2.494-0.899c0.911,0,1.8,0.288,2.375,0.827c0.504,0.48,0.851,1.104,0.863,1.812h-1.583
			c-0.012-0.3-0.168-0.624-0.371-0.84c-0.276-0.288-0.84-0.456-1.296-0.456c-0.479,0-1.031,0.108-1.379,0.468
			c-0.181,0.192-0.288,0.408-0.288,0.72c0,0.552,0.36,0.84,0.863,0.924c0.54,0.084,1.296,0.144,1.848,0.216
			c1.271,0.18,2.338,1.008,2.338,2.459C80.172,18.924,79.885,19.488,79.465,19.908z"/>
		<path fill="#333333" d="M81.867,20.664v-8.503h6.057v1.402h-4.51v1.979h3.971v1.392h-3.971v2.326h4.51v1.403H81.867z"/>
		<path fill="#333333" d="M95.125,19.86c-0.647,0.647-1.535,0.96-2.447,0.96c-0.911,0-1.799-0.312-2.447-0.96
			c-0.923-0.924-1.078-2.051-1.078-3.442c0-1.391,0.155-2.53,1.078-3.454c0.648-0.647,1.536-0.959,2.447-0.959
			c0.912,0,1.8,0.312,2.447,0.959c0.924,0.924,1.079,2.063,1.079,3.454C96.204,17.809,96.049,18.936,95.125,19.86z M94.021,13.971
			c-0.336-0.359-0.852-0.563-1.344-0.563c-0.491,0-1.007,0.204-1.343,0.563c-0.588,0.611-0.611,1.667-0.611,2.446
			c0,0.78,0.023,1.823,0.611,2.436c0.336,0.359,0.852,0.563,1.343,0.563c0.492,0,1.008-0.204,1.344-0.563
			c0.588-0.612,0.611-1.655,0.611-2.436C94.633,15.638,94.609,14.583,94.021,13.971z"/>
	</g>
</g>
<g id="Tuning" display="none">
	<g display="inline">
		<path fill="#FFFFFF" d="M5.67,26.225c1.131,0,2.05-0.92,2.05-2.049c0-0.327-0.084-0.632-0.222-0.907l4.695-4.068
			c0.33,0.229,0.729,0.364,1.162,0.364c0.676,0,1.271-0.333,1.645-0.84l4.017,1.607c-0.011,0.085-0.026,0.169-0.026,0.257
			c0,1.13,0.919,2.05,2.049,2.05c1.131,0,2.05-0.92,2.05-2.05c0-0.445-0.146-0.854-0.389-1.19l5.152-6.184
			c0.266,0.126,0.559,0.202,0.872,0.202c1.13,0,2.049-0.92,2.049-2.05c0-1.129-0.919-2.049-2.049-2.049
			c-1.131,0-2.05,0.92-2.05,2.049c0,0.445,0.146,0.856,0.39,1.192l-5.152,6.183c-0.266-0.126-0.56-0.202-0.873-0.202
			c-0.676,0-1.271,0.333-1.645,0.84l-4.017-1.607c0.011-0.085,0.026-0.169,0.026-0.257c0-1.13-0.919-2.05-2.049-2.05
			c-1.131,0-2.05,0.92-2.05,2.05c0,0.327,0.084,0.632,0.222,0.906L6.832,22.49c-0.331-0.229-0.73-0.364-1.162-0.364
			c-1.13,0-2.049,0.92-2.049,2.05C3.621,25.305,4.54,26.225,5.67,26.225z M28.725,10.343c0.564,0,1.024,0.461,1.024,1.024
			c0,0.565-0.46,1.025-1.024,1.025c-0.565,0-1.025-0.46-1.025-1.025C27.699,10.804,28.159,10.343,28.725,10.343z M21.039,19.564
			c0.249,0,0.474,0.092,0.65,0.24c0,0,0.002,0.001,0.002,0.002c0,0,0.003,0.001,0.004,0.002c0.224,0.188,0.369,0.467,0.369,0.78
			c0,0.565-0.461,1.025-1.025,1.025s-1.025-0.46-1.025-1.025C20.014,20.025,20.475,19.564,21.039,19.564z M13.355,16.49
			c0.563,0,1.024,0.461,1.024,1.025s-0.461,1.024-1.024,1.024c-0.565,0-1.025-0.46-1.025-1.024S12.79,16.49,13.355,16.49z
			 M5.67,23.15c0.309,0,0.582,0.141,0.771,0.356v0.001h0.001c0.155,0.181,0.254,0.411,0.254,0.668c0,0.564-0.46,1.024-1.025,1.024
			c-0.564,0-1.024-0.46-1.024-1.024S5.105,23.15,5.67,23.15z"/>
	</g>
	<g display="inline">
		<path fill="#999999" d="M39.67,26.225c1.131,0,2.05-0.92,2.05-2.049c0-0.327-0.084-0.632-0.222-0.907l4.695-4.068
			c0.33,0.229,0.729,0.364,1.162,0.364c0.676,0,1.271-0.333,1.645-0.84l4.017,1.607c-0.011,0.085-0.026,0.169-0.026,0.257
			c0,1.13,0.919,2.05,2.049,2.05c1.131,0,2.05-0.92,2.05-2.05c0-0.445-0.146-0.854-0.389-1.19l5.152-6.184
			c0.266,0.126,0.559,0.202,0.872,0.202c1.13,0,2.049-0.92,2.049-2.05c0-1.129-0.919-2.049-2.049-2.049
			c-1.131,0-2.05,0.92-2.05,2.049c0,0.445,0.146,0.856,0.39,1.192l-5.152,6.183c-0.266-0.126-0.56-0.202-0.873-0.202
			c-0.676,0-1.271,0.333-1.645,0.84l-4.018-1.607c0.012-0.085,0.027-0.169,0.027-0.257c0-1.13-0.919-2.05-2.049-2.05
			c-1.131,0-2.05,0.92-2.05,2.05c0,0.327,0.084,0.632,0.222,0.906l-4.695,4.068c-0.331-0.229-0.73-0.364-1.162-0.364
			c-1.13,0-2.049,0.92-2.049,2.05C37.621,25.305,38.54,26.225,39.67,26.225z M62.725,10.343c0.564,0,1.024,0.461,1.024,1.024
			c0,0.565-0.46,1.025-1.024,1.025c-0.565,0-1.025-0.46-1.025-1.025C61.699,10.804,62.159,10.343,62.725,10.343z M55.039,19.564
			c0.249,0,0.474,0.092,0.65,0.24c0,0,0.002,0.001,0.002,0.002c0,0,0.003,0.001,0.004,0.002c0.224,0.188,0.369,0.467,0.369,0.78
			c0,0.565-0.461,1.025-1.025,1.025s-1.025-0.46-1.025-1.025C54.014,20.025,54.475,19.564,55.039,19.564z M47.355,16.49
			c0.563,0,1.024,0.461,1.024,1.025s-0.461,1.024-1.024,1.024c-0.565,0-1.025-0.46-1.025-1.024S46.79,16.49,47.355,16.49z
			 M39.67,23.15c0.309,0,0.582,0.141,0.771,0.356v0.001h0.001c0.155,0.181,0.254,0.411,0.254,0.668c0,0.564-0.46,1.024-1.025,1.024
			c-0.564,0-1.024-0.46-1.024-1.024S39.105,23.15,39.67,23.15z"/>
	</g>
	<g display="inline">
		<path fill="#333333" d="M73.67,26.225c1.131,0,2.05-0.92,2.05-2.049c0-0.327-0.084-0.632-0.222-0.907l4.695-4.068
			c0.33,0.229,0.729,0.364,1.162,0.364c0.676,0,1.271-0.333,1.645-0.84l4.017,1.607c-0.011,0.085-0.026,0.169-0.026,0.257
			c0,1.13,0.919,2.05,2.049,2.05c1.131,0,2.05-0.92,2.05-2.05c0-0.445-0.146-0.854-0.389-1.19l5.152-6.184
			c0.266,0.126,0.559,0.202,0.872,0.202c1.13,0,2.049-0.92,2.049-2.05c0-1.129-0.919-2.049-2.049-2.049
			c-1.131,0-2.05,0.92-2.05,2.049c0,0.445,0.146,0.856,0.39,1.192l-5.152,6.183c-0.266-0.126-0.56-0.202-0.873-0.202
			c-0.676,0-1.271,0.333-1.645,0.84l-4.018-1.607c0.012-0.085,0.027-0.169,0.027-0.257c0-1.13-0.919-2.05-2.049-2.05
			c-1.131,0-2.05,0.92-2.05,2.05c0,0.327,0.084,0.632,0.222,0.906l-4.695,4.068c-0.331-0.229-0.73-0.364-1.162-0.364
			c-1.13,0-2.049,0.92-2.049,2.05C71.621,25.305,72.54,26.225,73.67,26.225z M96.725,10.343c0.564,0,1.024,0.461,1.024,1.024
			c0,0.565-0.46,1.025-1.024,1.025c-0.565,0-1.025-0.46-1.025-1.025C95.699,10.804,96.159,10.343,96.725,10.343z M89.039,19.564
			c0.249,0,0.474,0.092,0.65,0.24c0,0,0.002,0.001,0.002,0.002c0,0,0.003,0.001,0.004,0.002c0.224,0.188,0.369,0.467,0.369,0.78
			c0,0.565-0.461,1.025-1.025,1.025s-1.025-0.46-1.025-1.025C88.014,20.025,88.475,19.564,89.039,19.564z M81.355,16.49
			c0.563,0,1.024,0.461,1.024,1.025s-0.461,1.024-1.024,1.024c-0.565,0-1.025-0.46-1.025-1.024S80.79,16.49,81.355,16.49z
			 M73.67,23.15c0.309,0,0.582,0.141,0.771,0.356v0.001h0.001c0.155,0.181,0.254,0.411,0.254,0.668c0,0.564-0.46,1.024-1.025,1.024
			c-0.564,0-1.024-0.46-1.024-1.024S73.105,23.15,73.67,23.15z"/>
	</g>
</g>
<g id="Other" display="none">
	
		<line display="inline" fill="none" stroke="#FFFFFF" stroke-width="1.25" stroke-miterlimit="10" x1="7.066" y1="6.449" x2="7.066" y2="9.586"/>
	<g display="inline">
		<path fill="#FFFFFF" d="M9.363,10.836v1.75H4.768v-1.75H9.363 M10.613,9.586H3.518v4.25h7.096V9.586L10.613,9.586z"/>
	</g>
	
		<line display="inline" fill="none" stroke="#FFFFFF" stroke-width="1.25" stroke-miterlimit="10" x1="7.066" y1="13.836" x2="7.066" y2="27.553"/>
	
		<line display="inline" fill="none" stroke="#FFFFFF" stroke-width="1.25" stroke-miterlimit="10" x1="17.001" y1="6.449" x2="17.001" y2="18.836"/>
	<g display="inline">
		<path fill="#FFFFFF" d="M19.297,20.086v1.75h-4.595v-1.75H19.297 M20.548,18.836h-7.096v4.25h7.096V18.836L20.548,18.836z"/>
	</g>
	
		<line display="inline" fill="none" stroke="#FFFFFF" stroke-width="1.25" stroke-miterlimit="10" x1="17.001" y1="23.086" x2="17.001" y2="27.553"/>
	
		<line display="inline" fill="none" stroke="#FFFFFF" stroke-width="1.25" stroke-miterlimit="10" x1="26.936" y1="6.449" x2="26.936" y2="12.75"/>
	<g display="inline">
		<path fill="#FFFFFF" d="M29.232,14v1.75h-4.596V14H29.232 M30.482,12.75h-7.096V17h7.096V12.75L30.482,12.75z"/>
	</g>
	
		<line display="inline" fill="none" stroke="#FFFFFF" stroke-width="1.25" stroke-miterlimit="10" x1="26.936" y1="17" x2="26.936" y2="27.553"/>
	
		<line display="inline" fill="none" stroke="#999999" stroke-width="1.25" stroke-miterlimit="10" x1="41.066" y1="6.449" x2="41.066" y2="9.586"/>
	<g display="inline">
		<path fill="#999999" d="M43.363,10.836v1.75h-4.596v-1.75H43.363 M44.613,9.586h-7.096v4.25h7.096V9.586L44.613,9.586z"/>
	</g>
	
		<line display="inline" fill="none" stroke="#999999" stroke-width="1.25" stroke-miterlimit="10" x1="41.066" y1="13.836" x2="41.066" y2="27.553"/>
	
		<line display="inline" fill="none" stroke="#999999" stroke-width="1.25" stroke-miterlimit="10" x1="51.001" y1="6.449" x2="51.001" y2="18.836"/>
	<g display="inline">
		<path fill="#999999" d="M53.297,20.086v1.75h-4.595v-1.75H53.297 M54.548,18.836h-7.096v4.25h7.096V18.836L54.548,18.836z"/>
	</g>
	
		<line display="inline" fill="none" stroke="#999999" stroke-width="1.25" stroke-miterlimit="10" x1="51.001" y1="23.086" x2="51.001" y2="27.553"/>
	
		<line display="inline" fill="none" stroke="#999999" stroke-width="1.25" stroke-miterlimit="10" x1="60.936" y1="6.449" x2="60.936" y2="12.75"/>
	<g display="inline">
		<path fill="#999999" d="M63.232,14v1.75h-4.596V14H63.232 M64.482,12.75h-7.096V17h7.096V12.75L64.482,12.75z"/>
	</g>
	
		<line display="inline" fill="none" stroke="#999999" stroke-width="1.25" stroke-miterlimit="10" x1="60.936" y1="17" x2="60.936" y2="27.553"/>
	
		<line display="inline" fill="none" stroke="#333333" stroke-width="1.25" stroke-miterlimit="10" x1="75.066" y1="6.449" x2="75.066" y2="9.586"/>
	<g display="inline">
		<path fill="#333333" d="M77.363,10.836v1.75h-4.596v-1.75H77.363 M78.613,9.586h-7.096v4.25h7.096V9.586L78.613,9.586z"/>
	</g>
	
		<line display="inline" fill="none" stroke="#333333" stroke-width="1.25" stroke-miterlimit="10" x1="75.066" y1="13.836" x2="75.066" y2="27.553"/>
	
		<line display="inline" fill="none" stroke="#333333" stroke-width="1.25" stroke-miterlimit="10" x1="85.001" y1="6.449" x2="85.001" y2="18.836"/>
	<g display="inline">
		<path fill="#333333" d="M87.297,20.086v1.75h-4.595v-1.75H87.297 M88.548,18.836h-7.096v4.25h7.096V18.836L88.548,18.836z"/>
	</g>
	
		<line display="inline" fill="none" stroke="#333333" stroke-width="1.25" stroke-miterlimit="10" x1="85.001" y1="23.086" x2="85.001" y2="27.553"/>
	
		<line display="inline" fill="none" stroke="#333333" stroke-width="1.25" stroke-miterlimit="10" x1="94.936" y1="6.449" x2="94.936" y2="12.75"/>
	<g display="inline">
		<path fill="#333333" d="M97.232,14v1.75h-4.596V14H97.232 M98.482,12.75h-7.096V17h7.096V12.75L98.482,12.75z"/>
	</g>
	
		<line display="inline" fill="none" stroke="#333333" stroke-width="1.25" stroke-miterlimit="10" x1="94.936" y1="17" x2="94.936" y2="27.553"/>
</g>
<g id="Security" display="none">
	<g display="inline">
		<g>
			<path fill="#FFFFFF" d="M26.529,14.469v14.61H7.471v-14.61H26.529 M27.601,13.398H6.399V30.15h21.201V13.398L27.601,13.398z"/>
		</g>
		<g>
			<path fill="#FFFFFF" d="M18.478,20.42c0-0.816-0.662-1.477-1.477-1.477c-0.815,0-1.478,0.66-1.478,1.477
				c0,0.561,0.317,1.043,0.778,1.293l-0.225,2.871h1.847l-0.244-2.859C18.152,21.479,18.478,20.988,18.478,20.42z"/>
		</g>
	</g>
	<path display="inline" fill="none" stroke="#FFFFFF" stroke-width="1.25" stroke-miterlimit="10" d="M8.24,13.598v-3.547
		c0-3.313,2.687-6,6-6h5.52c3.313,0,6,2.687,6,6v3.547"/>
	<g display="inline">
		<g>
			<path fill="#999999" d="M60.529,14.469v14.61H41.471v-14.61H60.529 M61.601,13.398H40.399V30.15h21.201V13.398L61.601,13.398z"/>
		</g>
		<g>
			<path fill="#999999" d="M52.478,20.42c0-0.816-0.662-1.477-1.477-1.477c-0.815,0-1.478,0.66-1.478,1.477
				c0,0.561,0.317,1.043,0.778,1.293l-0.225,2.871h1.847l-0.244-2.859C52.152,21.479,52.478,20.988,52.478,20.42z"/>
		</g>
	</g>
	<path display="inline" fill="none" stroke="#999999" stroke-width="1.25" stroke-miterlimit="10" d="M42.24,13.598v-3.547
		c0-3.313,2.687-6,6-6h5.52c3.313,0,6,2.687,6,6v3.547"/>
	<g display="inline">
		<g>
			<path fill="#333333" d="M94.529,14.469v14.61H75.471v-14.61H94.529 M95.601,13.398H74.399V30.15h21.201V13.398L95.601,13.398z"/>
		</g>
		<g>
			<path fill="#333333" d="M86.478,20.42c0-0.816-0.662-1.477-1.477-1.477c-0.815,0-1.478,0.66-1.478,1.477
				c0,0.561,0.317,1.043,0.778,1.293l-0.225,2.871h1.847l-0.244-2.859C86.152,21.479,86.478,20.988,86.478,20.42z"/>
		</g>
	</g>
	<path display="inline" fill="none" stroke="#333333" stroke-width="1.25" stroke-miterlimit="10" d="M76.24,13.598v-3.547
		c0-3.313,2.687-6,6-6h5.52c3.313,0,6,2.687,6,6v3.547"/>
</g>
<g id="Health" display="none">
	<g display="inline">
		<path fill="#FFFFFF" d="M19.428,7.25v6.072v1.25h1.25h6.072v4.854h-6.072h-1.25v1.25v6.073h-4.854v-6.073v-1.25h-1.25H7.25v-4.854
			h6.074h1.25v-1.25V7.25H19.428 M20.678,6h-7.354v7.322H6v7.354h7.324V28h7.354v-7.323H28v-7.354h-7.322V6L20.678,6z"/>
	</g>
	<g display="inline">
		<path fill="#999999" d="M53.428,7.25v6.072v1.25h1.25h6.072v4.854h-6.072h-1.25v1.25v6.073h-4.854v-6.073v-1.25h-1.25H41.25
			v-4.854h6.074h1.25v-1.25V7.25H53.428 M54.678,6h-7.354v7.322H40v7.354h7.324V28h7.354v-7.323H62v-7.354h-7.322V6L54.678,6z"/>
	</g>
	<g display="inline">
		<path fill="#333333" d="M87.428,7.25v6.072v1.25h1.25h6.072v4.854h-6.072h-1.25v1.25v6.073h-4.854v-6.073v-1.25h-1.25H75.25
			v-4.854h6.074h1.25v-1.25V7.25H87.428 M88.678,6h-7.354v7.322H74v7.354h7.324V28h7.354v-7.323H96v-7.354h-7.322V6L88.678,6z"/>
	</g>
</g>
</svg>
