<?xml version="1.0" encoding="UTF-8" standalone="no"?>
<svg width="16px" height="16px" viewBox="0 0 16 16" version="1.1" xmlns="http://www.w3.org/2000/svg" xmlns:xlink="http://www.w3.org/1999/xlink">
    <!-- Generator: Sketch 42 (36781) - http://www.bohemiancoding.com/sketch -->
    <title>toolbar</title>
    <desc>Created with Sketch.</desc>
    <defs></defs>
    <g id="Page-1" stroke="none" stroke-width="1" fill="none" fill-rule="evenodd">
        <g id="toolbar" fill-rule="nonzero" fill="#565656">
            <path d="M7.22820538,10.0429724 L12.7738289,10.0429724 C12.9898484,10.0429724 13.1650269,9.89088747 13.1650269,9.70326964 C13.1650269,9.5156518 12.9898484,9.36356688 12.7738289,9.36356688 L7.22820538,9.36356688 C7.0121467,9.36356688 6.83700733,9.5156518 6.83700733,9.70326964 C6.83700733,9.89088747 7.0121467,10.0429724 7.22820538,10.0429724 Z" id="Shape"></path>
            <path d="M7.22820538,7.46123142 L9.34654279,7.46123142 C9.56256235,7.46123142 9.73774083,7.3091465 9.73774083,7.12152866 C9.73774083,6.93391083 9.56256235,6.7818259 9.34654279,6.7818259 L7.22820538,6.7818259 C7.0121467,6.7818259 6.83700733,6.93391083 6.83700733,7.12152866 C6.83700733,7.3091465 7.0121467,7.46123142 7.22820538,7.46123142 Z" id="Shape"></path>
            <path d="M7.22820538,11.4017834 L12.7738289,11.4017834 C12.9898484,11.4017834 13.1650269,11.2496985 13.1650269,11.0620807 C13.1650269,10.8744628 12.9898484,10.7223779 12.7738289,10.7223779 L7.22820538,10.7223779 C7.0121467,10.7223779 6.83700733,10.8744628 6.83700733,11.0620807 C6.83700733,11.2496985 7.0121467,11.4017834 7.22820538,11.4017834 Z" id="Shape"></path>
            <path d="M7.22820538,12.7605945 L12.7738289,12.7605945 C12.9898484,12.7605945 13.1650269,12.6085096 13.1650269,12.4208917 C13.1650269,12.2332739 12.9898484,12.081189 12.7738289,12.081189 L7.22820538,12.081189 C7.0121467,12.081189 6.83700733,12.2332739 6.83700733,12.4208917 C6.83700733,12.6085096 7.0121467,12.7605945 7.22820538,12.7605945 Z" id="Shape"></path>
            <path d="M15.3947775,3.48721868 L13.9736333,3.48721868 L13.9736333,2.25324841 C13.9736333,1.97183864 13.7109046,1.74369427 13.3868362,1.74369427 L11.9656137,1.74369427 L11.9656137,0.50955414 C11.9656137,0.228144374 11.7028851,0 11.3788166,0 L0.591139364,0 C0.267070905,0 0.00434229829,0.228144374 0.00434229829,0.50955414 L0.00434229829,11.990828 C0.00434229829,12.2722378 0.267070905,12.5003822 0.591139364,12.5003822 L2.01236186,12.5003822 L2.01236186,13.7345223 C2.01236186,14.0159321 2.27509046,14.2440764 2.59915892,14.2440764 L4.02045966,14.2440764 L4.02045966,15.4782166 C4.02045966,15.7596263 4.28318826,15.9877707 4.60725672,15.9877707 L15.3948166,15.9877707 C15.7188851,15.9877707 15.9816137,15.7596263 15.9816137,15.4782166 L15.9816137,3.99677282 C15.9815746,3.71536306 15.718846,3.48721868 15.3947775,3.48721868 Z M2.01236186,2.25324841 L2.01236186,11.4812739 L1.17793643,11.4812739 L1.17793643,1.01910828 L10.7920196,1.01910828 L10.7920196,1.74369427 L2.59915892,1.74369427 C2.27509046,1.74369427 2.01236186,1.97183864 2.01236186,2.25324841 Z M4.02042054,3.99677282 L4.02042054,13.2249682 L3.18591687,13.2249682 L3.18591687,2.76280255 L12.8,2.76280255 L12.8,3.48721868 L4.6072176,3.48721868 C4.28314914,3.48721868 4.02042054,3.71536306 4.02042054,3.99677282 Z M14.8079804,14.9686624 L5.19401467,14.9686624 L5.19401467,4.50632696 L14.8079804,4.50632696 L14.8079804,14.9686624 Z" id="Shape"></path>
        </g>
    </g>
</svg>