<svg xmlns="http://www.w3.org/2000/svg" xmlns:xlink="http://www.w3.org/1999/xlink" preserveAspectRatio="xMidYMid" width="46" height="65" viewBox="0 0 46 65">
  <defs>
    <style>

      .cls-3 {
        fill: #ff917b;
      }

      .cls-4 {
        fill: #edc951;
      }

      .cls-5 {
        fill: #000000;
      }
    </style>
  </defs>
  <g id="group-74svg">
    <path d="M25.500,4.474 C25.500,4.474 5.000,25.818 5.000,25.818 C5.000,25.818 5.000,64.969 5.000,64.969 C5.000,64.969 26.365,64.969 26.365,64.969 C26.365,64.969 46.000,64.969 46.000,64.969 C46.000,64.969 46.000,25.818 46.000,25.818 C46.000,25.818 25.500,4.474 25.500,4.474 Z" id="path-1" class="cls-3" fill-rule="evenodd"/>
    <path d="M26.365,13.655 C26.365,13.655 11.024,28.969 11.024,28.969 C11.024,28.969 41.706,28.969 41.706,28.969 C41.706,28.969 26.365,13.655 26.365,13.655 Z" id="path-2" class="cls-4" fill-rule="evenodd"/>
    <path d="M37.706,26.969 C37.706,26.969 7.024,26.969 7.024,26.969 C6.417,26.969 5.870,26.603 5.638,26.042 C5.406,25.481 5.535,24.836 5.964,24.407 C5.964,24.407 21.305,9.094 21.305,9.094 C21.890,8.510 22.839,8.510 23.424,9.094 C23.424,9.094 38.765,24.407 38.765,24.407 C39.195,24.836 39.324,25.481 39.092,26.042 C38.860,26.603 38.312,26.969 37.706,26.969 ZM10.650,23.969 C10.650,23.969 34.080,23.969 34.080,23.969 C34.080,23.969 22.365,12.275 22.365,12.275 C22.365,12.275 10.650,23.969 10.650,23.969 Z" id="path-3" class="cls-5" fill-rule="evenodd"/>
    <path d="M42.500,62.969 C42.500,62.969 1.500,62.969 1.500,62.969 C0.671,62.969 -0.000,62.297 -0.000,61.469 C-0.000,61.469 -0.000,22.818 -0.000,22.818 C-0.000,22.432 0.150,22.058 0.418,21.779 C0.418,21.779 20.918,0.435 20.918,0.435 C21.484,-0.153 22.516,-0.153 23.082,0.435 C23.082,0.435 43.582,21.779 43.582,21.779 C43.850,22.058 44.000,22.432 44.000,22.818 C44.000,22.818 44.000,61.469 44.000,61.469 C44.000,62.297 43.329,62.969 42.500,62.969 ZM3.000,59.969 C3.000,59.969 41.000,59.969 41.000,59.969 C41.000,59.969 41.000,23.422 41.000,23.422 C41.000,23.422 22.000,3.641 22.000,3.641 C22.000,3.641 3.000,23.422 3.000,23.422 C3.000,23.422 3.000,59.969 3.000,59.969 Z" id="path-4" class="cls-5" fill-rule="evenodd"/>
    <path d="M11.780,52.576 C11.780,52.576 9.837,44.852 9.837,44.852 C9.837,44.852 9.837,53.221 9.837,53.221 C9.837,53.683 9.733,54.032 9.527,54.264 C9.320,54.494 9.045,54.611 8.704,54.611 C8.373,54.611 8.103,54.496 7.893,54.267 C7.684,54.039 7.579,53.689 7.579,53.221 C7.579,53.221 7.579,43.627 7.579,43.627 C7.579,43.098 7.717,42.742 7.993,42.557 C8.268,42.371 8.640,42.279 9.109,42.279 C9.109,42.279 9.870,42.279 9.870,42.279 C10.328,42.279 10.660,42.320 10.866,42.404 C11.073,42.486 11.226,42.635 11.326,42.850 C11.425,43.064 11.538,43.416 11.664,43.900 C11.664,43.900 13.426,50.541 13.426,50.541 C13.426,50.541 15.187,43.900 15.187,43.900 C15.314,43.416 15.428,43.064 15.527,42.850 C15.626,42.635 15.779,42.486 15.986,42.404 C16.192,42.320 16.524,42.279 16.982,42.279 C16.982,42.279 17.743,42.279 17.743,42.279 C18.212,42.279 18.584,42.371 18.860,42.557 C19.135,42.742 19.273,43.098 19.273,43.627 C19.273,43.627 19.273,53.221 19.273,53.221 C19.273,53.683 19.170,54.032 18.963,54.264 C18.756,54.494 18.479,54.611 18.132,54.611 C17.807,54.611 17.539,54.494 17.330,54.264 C17.120,54.032 17.016,53.683 17.016,53.221 C17.016,53.221 17.016,44.852 17.016,44.852 C17.016,44.852 15.072,52.576 15.072,52.576 C14.945,53.078 14.842,53.445 14.762,53.680 C14.682,53.914 14.534,54.129 14.319,54.320 C14.104,54.514 13.807,54.611 13.426,54.611 C13.139,54.611 12.897,54.549 12.698,54.424 C12.500,54.301 12.345,54.142 12.235,53.949 C12.125,53.756 12.038,53.543 11.975,53.309 C11.911,53.074 11.847,52.830 11.780,52.576 Z" id="path-5" class="cls-5" fill-rule="evenodd"/>
    <path d="M22.780,44.381 C22.465,44.381 22.196,44.283 21.973,44.090 C21.750,43.898 21.638,43.625 21.638,43.271 C21.638,42.953 21.752,42.689 21.981,42.482 C22.210,42.275 22.476,42.172 22.780,42.172 C23.072,42.172 23.331,42.266 23.557,42.453 C23.783,42.641 23.896,42.914 23.896,43.271 C23.896,43.619 23.786,43.891 23.565,44.086 C23.345,44.283 23.082,44.381 22.780,44.381 ZM23.896,46.713 C23.896,46.713 23.896,53.238 23.896,53.238 C23.896,53.689 23.789,54.032 23.574,54.264 C23.358,54.494 23.085,54.611 22.755,54.611 C22.424,54.611 22.155,54.492 21.948,54.256 C21.742,54.018 21.638,53.680 21.638,53.238 C21.638,53.238 21.638,46.779 21.638,46.779 C21.638,46.332 21.742,45.996 21.948,45.769 C22.155,45.543 22.424,45.430 22.755,45.430 C23.085,45.430 23.358,45.543 23.574,45.769 C23.789,45.996 23.896,46.311 23.896,46.713 Z" id="path-6" class="cls-5" fill-rule="evenodd"/>
    <path d="M26.228,53.238 C26.228,53.238 26.228,43.445 26.228,43.445 C26.228,42.994 26.329,42.652 26.530,42.420 C26.731,42.189 27.003,42.072 27.345,42.072 C27.687,42.072 27.962,42.187 28.172,42.416 C28.382,42.644 28.486,42.988 28.486,43.445 C28.486,43.445 28.486,53.238 28.486,53.238 C28.486,53.695 28.380,54.039 28.168,54.267 C27.956,54.496 27.681,54.611 27.345,54.611 C27.014,54.611 26.746,54.492 26.539,54.256 C26.332,54.018 26.228,53.680 26.228,53.238 Z" id="path-7" class="cls-5" fill-rule="evenodd"/>
    <path d="M36.442,53.576 C36.442,53.576 34.449,50.301 34.449,50.301 C34.449,50.301 33.225,51.459 33.225,51.459 C33.225,51.459 33.225,53.254 33.225,53.254 C33.225,53.689 33.111,54.025 32.882,54.260 C32.653,54.494 32.390,54.611 32.092,54.611 C31.745,54.611 31.472,54.494 31.273,54.264 C31.075,54.032 30.976,53.689 30.976,53.238 C30.976,53.238 30.976,43.611 30.976,43.611 C30.976,43.109 31.072,42.728 31.265,42.465 C31.458,42.203 31.733,42.072 32.092,42.072 C32.439,42.072 32.715,42.191 32.919,42.428 C33.123,42.666 33.225,43.016 33.225,43.478 C33.225,43.478 33.225,48.953 33.225,48.953 C33.225,48.953 35.764,46.291 35.764,46.291 C36.078,45.959 36.318,45.734 36.483,45.613 C36.649,45.492 36.850,45.430 37.087,45.430 C37.369,45.430 37.603,45.519 37.790,45.700 C37.978,45.879 38.071,46.103 38.071,46.373 C38.071,46.705 37.766,47.144 37.153,47.697 C37.153,47.697 35.954,48.797 35.954,48.797 C35.954,48.797 38.270,52.435 38.270,52.435 C38.441,52.705 38.563,52.910 38.638,53.051 C38.712,53.191 38.750,53.326 38.750,53.453 C38.750,53.810 38.652,54.094 38.456,54.301 C38.260,54.508 38.002,54.611 37.683,54.611 C37.407,54.611 37.195,54.537 37.046,54.387 C36.897,54.238 36.696,53.969 36.442,53.576 Z" id="path-8" class="cls-5" fill-rule="evenodd"/>
  </g>
</svg>
