<svg xmlns="http://www.w3.org/2000/svg" xmlns:xlink="http://www.w3.org/1999/xlink" preserveAspectRatio="xMidYMid" width="67" height="54" viewBox="0 0 67 54">
  <defs>
    <style>

      .cls-3 {
        fill: #edc951;
      }

      .cls-4 {
        fill: #99746a;
      }

      .cls-5 {
        fill: #000000;
      }
    </style>
  </defs>
  <g id="group-42svg">
    <path d="M62.833,28.665 C62.833,28.665 66.489,24.034 66.489,24.034 C65.521,12.774 55.825,4.000 44.065,4.000 C44.065,4.000 28.913,4.000 28.913,4.000 C17.153,4.000 7.457,12.471 6.489,23.730 C6.489,23.730 10.226,28.641 10.226,28.641 C10.226,28.641 13.650,26.000 13.650,26.000 C13.650,26.000 14.317,26.000 14.317,26.000 C14.317,26.000 17.741,29.258 17.741,29.258 C17.741,29.258 21.165,26.000 21.165,26.000 C21.165,26.000 21.832,26.000 21.832,26.000 C21.832,26.000 25.256,29.258 25.256,29.258 C25.256,29.258 28.680,26.000 28.680,26.000 C28.680,26.000 29.347,26.000 29.347,26.000 C29.347,26.000 32.771,29.258 32.771,29.258 C32.771,29.258 36.196,26.000 36.196,26.000 C36.196,26.000 36.863,26.000 36.863,26.000 C36.863,26.000 40.287,29.258 40.287,29.258 C40.287,29.258 43.711,26.000 43.711,26.000 C43.711,26.000 44.378,26.000 44.378,26.000 C44.378,26.000 47.802,29.258 47.802,29.258 C47.802,29.258 51.226,26.000 51.226,26.000 C51.226,26.000 51.893,26.000 51.893,26.000 C51.893,26.000 55.317,29.258 55.317,29.258 C55.317,29.258 58.741,26.000 58.741,26.000 C58.741,26.000 59.408,26.000 59.408,26.000 C59.408,26.000 62.833,28.665 62.833,28.665 Z" id="path-1" class="cls-3" fill-rule="evenodd"/>
    <path d="M65.390,42.282 C65.390,42.282 62.883,39.272 62.883,39.272 C62.883,39.272 59.344,43.000 59.344,43.000 C59.344,43.000 58.911,43.000 58.911,43.000 C58.911,43.000 55.373,39.631 55.373,39.631 C55.373,39.631 51.834,43.000 51.834,43.000 C51.834,43.000 51.401,43.000 51.401,43.000 C51.401,43.000 47.863,39.631 47.863,39.631 C47.863,39.631 44.324,43.000 44.324,43.000 C44.324,43.000 43.891,43.000 43.891,43.000 C43.891,43.000 40.353,39.631 40.353,39.631 C40.353,39.631 36.814,43.000 36.814,43.000 C36.814,43.000 36.381,43.000 36.381,43.000 C36.381,43.000 32.843,39.631 32.843,39.631 C32.843,39.631 29.304,43.000 29.304,43.000 C29.304,43.000 28.871,43.000 28.871,43.000 C28.871,43.000 25.332,39.631 25.332,39.631 C25.332,39.631 21.794,43.000 21.794,43.000 C21.794,43.000 21.361,43.000 21.361,43.000 C21.361,43.000 17.823,39.631 17.823,39.631 C17.823,39.631 14.284,43.000 14.284,43.000 C14.284,43.000 13.851,43.000 13.851,43.000 C13.851,43.000 10.312,39.204 10.312,39.204 C10.312,39.204 7.955,42.620 7.955,42.620 C12.340,49.300 13.054,54.000 22.251,54.000 C22.251,54.000 50.726,54.000 50.726,54.000 C59.835,54.000 65.390,42.282 65.390,42.282 Z" id="path-2" class="cls-4" fill-rule="evenodd"/>
    <path d="M20.256,28.258 C19.884,28.258 19.512,28.120 19.222,27.845 C19.222,27.845 16.499,25.253 16.499,25.253 C16.499,25.253 13.775,27.845 13.775,27.845 C13.196,28.396 12.287,28.396 11.707,27.845 C11.707,27.845 8.930,25.202 8.930,25.202 C8.930,25.202 6.168,27.433 6.168,27.433 C5.856,27.686 5.458,27.801 5.055,27.756 C4.656,27.710 4.291,27.506 4.044,27.189 C4.044,27.189 0.307,22.403 0.307,22.403 C0.073,22.104 -0.038,21.729 -0.006,21.351 C1.041,9.179 11.324,-0.000 23.913,-0.000 C23.913,-0.000 39.065,-0.000 39.065,-0.000 C51.439,-0.000 61.945,9.457 62.983,21.531 C63.015,21.904 62.906,22.276 62.678,22.573 C62.678,22.573 59.021,27.329 59.021,27.329 C58.771,27.655 58.398,27.864 57.990,27.907 C57.585,27.948 57.173,27.824 56.860,27.557 C56.860,27.557 54.112,25.218 54.112,25.218 C54.112,25.218 51.351,27.845 51.351,27.845 C50.772,28.396 49.863,28.396 49.284,27.845 C49.284,27.845 46.560,25.253 46.560,25.253 C46.560,25.253 43.836,27.845 43.836,27.845 C43.257,28.396 42.348,28.396 41.768,27.845 C41.768,27.845 39.044,25.253 39.044,25.253 C39.044,25.253 36.320,27.845 36.320,27.845 C35.741,28.396 34.832,28.396 34.252,27.845 C34.252,27.845 31.529,25.253 31.529,25.253 C31.529,25.253 28.805,27.845 28.805,27.845 C28.226,28.396 27.317,28.396 26.738,27.845 C26.738,27.845 24.014,25.253 24.014,25.253 C24.014,25.253 21.290,27.845 21.290,27.845 C21.001,28.120 20.628,28.258 20.256,28.258 ZM23.680,22.000 C23.680,22.000 24.347,22.000 24.347,22.000 C24.732,22.000 25.102,22.148 25.381,22.413 C25.381,22.413 27.771,24.687 27.771,24.687 C27.771,24.687 30.162,22.413 30.162,22.413 C30.441,22.148 30.811,22.000 31.196,22.000 C31.196,22.000 31.863,22.000 31.863,22.000 C32.248,22.000 32.618,22.148 32.897,22.413 C32.897,22.413 35.287,24.687 35.287,24.687 C35.287,24.687 37.677,22.413 37.677,22.413 C37.956,22.148 38.326,22.000 38.711,22.000 C38.711,22.000 39.378,22.000 39.378,22.000 C39.763,22.000 40.133,22.148 40.412,22.413 C40.412,22.413 42.802,24.687 42.802,24.687 C42.802,24.687 45.192,22.413 45.192,22.413 C45.471,22.148 45.841,22.000 46.226,22.000 C46.226,22.000 46.893,22.000 46.893,22.000 C47.278,22.000 47.648,22.148 47.927,22.413 C47.927,22.413 50.317,24.687 50.317,24.687 C50.317,24.687 52.707,22.413 52.707,22.413 C52.986,22.148 53.356,22.000 53.741,22.000 C53.741,22.000 54.408,22.000 54.408,22.000 C54.765,22.000 55.109,22.127 55.380,22.358 C55.380,22.358 57.604,24.251 57.604,24.251 C57.604,24.251 59.937,21.217 59.937,21.217 C58.755,10.955 49.699,3.000 39.065,3.000 C39.065,3.000 23.913,3.000 23.913,3.000 C13.095,3.000 4.225,10.711 3.041,21.031 C3.041,21.031 5.470,24.141 5.470,24.141 C5.470,24.141 7.707,22.333 7.707,22.333 C7.974,22.118 8.307,22.000 8.650,22.000 C8.650,22.000 9.317,22.000 9.317,22.000 C9.702,22.000 10.072,22.148 10.351,22.413 C10.351,22.413 12.741,24.687 12.741,24.687 C12.741,24.687 15.131,22.413 15.131,22.413 C15.410,22.148 15.780,22.000 16.165,22.000 C16.165,22.000 16.832,22.000 16.832,22.000 C17.217,22.000 17.588,22.148 17.867,22.413 C17.867,22.413 20.256,24.687 20.256,24.687 C20.256,24.687 22.646,22.413 22.646,22.413 C22.925,22.148 23.295,22.000 23.680,22.000 Z" id="path-3" class="cls-5" fill-rule="evenodd"/>
    <path d="M45.727,53.000 C45.727,53.000 17.251,53.000 17.251,53.000 C8.836,53.000 6.582,49.189 3.727,44.364 C3.105,43.314 2.463,42.229 1.701,41.068 C1.361,40.550 1.374,39.875 1.736,39.372 C1.736,39.372 4.093,36.080 4.093,36.080 C4.350,35.722 4.751,35.495 5.190,35.459 C5.630,35.419 6.063,35.582 6.374,35.895 C6.374,35.895 9.089,38.615 9.089,38.615 C9.089,38.615 11.789,36.045 11.789,36.045 C12.368,35.493 13.278,35.494 13.857,36.045 C13.857,36.045 16.578,38.635 16.578,38.635 C16.578,38.635 19.298,36.045 19.298,36.045 C19.876,35.493 20.787,35.492 21.367,36.045 C21.367,36.045 24.087,38.635 24.087,38.635 C24.087,38.635 26.809,36.045 26.809,36.045 C27.388,35.493 28.298,35.494 28.877,36.045 C28.877,36.045 31.598,38.635 31.598,38.635 C31.598,38.635 34.318,36.045 34.318,36.045 C34.897,35.493 35.808,35.493 36.387,36.045 C36.387,36.045 39.108,38.635 39.108,38.635 C39.108,38.635 41.829,36.045 41.829,36.045 C42.408,35.493 43.318,35.494 43.897,36.045 C43.897,36.045 46.618,38.635 46.618,38.635 C46.618,38.635 49.338,36.045 49.338,36.045 C49.917,35.493 50.828,35.493 51.407,36.045 C51.407,36.045 54.100,38.608 54.100,38.608 C54.100,38.608 56.813,35.847 56.813,35.847 C57.114,35.541 57.533,35.372 57.959,35.400 C58.388,35.422 58.786,35.626 59.054,35.961 C59.054,35.961 61.562,39.096 61.562,39.096 C61.923,39.547 61.992,40.166 61.740,40.686 C61.497,41.189 55.661,53.000 45.727,53.000 ZM4.768,40.291 C5.336,41.194 5.846,42.055 6.308,42.836 C9.130,47.606 10.547,50.000 17.251,50.000 C17.251,50.000 45.727,50.000 45.727,50.000 C52.439,50.000 57.180,42.685 58.599,40.195 C58.599,40.195 57.768,39.156 57.768,39.156 C57.768,39.156 55.414,41.551 55.414,41.551 C55.132,41.838 54.747,42.000 54.344,42.000 C54.344,42.000 53.911,42.000 53.911,42.000 C53.526,42.000 53.156,41.852 52.877,41.586 C52.877,41.586 50.373,39.203 50.373,39.203 C50.373,39.203 47.869,41.586 47.869,41.586 C47.590,41.852 47.220,42.000 46.834,42.000 C46.834,42.000 46.401,42.000 46.401,42.000 C46.016,42.000 45.645,41.852 45.367,41.586 C45.367,41.586 42.863,39.203 42.863,39.203 C42.863,39.203 40.358,41.586 40.358,41.586 C40.080,41.852 39.709,42.000 39.324,42.000 C39.324,42.000 38.891,42.000 38.891,42.000 C38.506,42.000 38.136,41.852 37.857,41.586 C37.857,41.586 35.352,39.203 35.352,39.203 C35.352,39.203 32.849,41.586 32.849,41.586 C32.570,41.852 32.200,42.000 31.814,42.000 C31.814,42.000 31.381,42.000 31.381,42.000 C30.996,42.000 30.625,41.852 30.347,41.586 C30.347,41.586 27.843,39.203 27.843,39.203 C27.843,39.203 25.338,41.586 25.338,41.586 C25.060,41.852 24.689,42.000 24.304,42.000 C24.304,42.000 23.871,42.000 23.871,42.000 C23.486,42.000 23.116,41.852 22.837,41.586 C22.837,41.586 20.333,39.202 20.333,39.202 C20.333,39.202 17.828,41.586 17.828,41.586 C17.549,41.852 17.179,42.000 16.794,42.000 C16.794,42.000 16.361,42.000 16.361,42.000 C15.976,42.000 15.605,41.852 15.327,41.586 C15.327,41.586 12.823,39.203 12.823,39.203 C12.823,39.203 10.318,41.586 10.318,41.586 C10.039,41.852 9.669,42.000 9.284,42.000 C9.284,42.000 8.851,42.000 8.851,42.000 C8.453,42.000 8.071,41.841 7.790,41.559 C7.790,41.559 5.501,39.267 5.501,39.267 C5.501,39.267 4.768,40.291 4.768,40.291 Z" id="path-4" class="cls-5" fill-rule="evenodd"/>
    <path d="M60.156,33.000 C60.156,33.000 2.156,33.000 2.156,33.000 C1.328,33.000 0.656,32.329 0.656,31.500 C0.656,30.671 1.328,30.000 2.156,30.000 C2.156,30.000 60.156,30.000 60.156,30.000 C60.985,30.000 61.656,30.671 61.656,31.500 C61.656,32.329 60.985,33.000 60.156,33.000 Z" id="path-5" class="cls-5" fill-rule="evenodd"/>
    <path d="M44.025,46.160 C44.025,47.046 43.306,47.764 42.420,47.764 C41.534,47.764 40.815,47.046 40.815,46.160 C40.815,45.273 41.534,44.555 42.420,44.555 C43.306,44.555 44.025,45.273 44.025,46.160 Z" id="path-6" class="cls-5" fill-rule="evenodd"/>
    <path d="M31.187,46.160 C31.187,47.046 30.469,47.764 29.583,47.764 C28.697,47.764 27.978,47.046 27.978,46.160 C27.978,45.273 28.697,44.555 29.583,44.555 C30.469,44.555 31.187,45.273 31.187,46.160 Z" id="path-7" class="cls-5" fill-rule="evenodd"/>
    <path d="M46.164,10.857 C46.164,11.744 45.446,12.462 44.560,12.462 C43.673,12.462 42.955,11.744 42.955,10.857 C42.955,9.971 43.673,9.253 44.560,9.253 C45.446,9.253 46.164,9.971 46.164,10.857 Z" id="path-8" class="cls-5" fill-rule="evenodd"/>
    <path d="M49.374,16.206 C49.374,17.092 48.655,17.810 47.769,17.810 C46.883,17.810 46.164,17.092 46.164,16.206 C46.164,15.320 46.883,14.601 47.769,14.601 C48.655,14.601 49.374,15.320 49.374,16.206 Z" id="path-9" class="cls-5" fill-rule="evenodd"/>
    <path d="M33.327,7.648 C33.327,8.534 32.609,9.253 31.723,9.253 C30.836,9.253 30.118,8.534 30.118,7.648 C30.118,6.762 30.836,6.043 31.723,6.043 C32.609,6.043 33.327,6.762 33.327,7.648 Z" id="path-10" class="cls-5" fill-rule="evenodd"/>
    <path d="M31.187,17.276 C31.187,18.162 30.469,18.880 29.583,18.880 C28.697,18.880 27.978,18.162 27.978,17.276 C27.978,16.390 28.697,15.671 29.583,15.671 C30.469,15.671 31.187,16.390 31.187,17.276 Z" id="path-11" class="cls-5" fill-rule="evenodd"/>
    <path d="M19.420,11.927 C19.420,12.813 18.702,13.532 17.815,13.532 C16.929,13.532 16.211,12.813 16.211,11.927 C16.211,11.041 16.929,10.322 17.815,10.322 C18.702,10.322 19.420,11.041 19.420,11.927 Z" id="path-12" class="cls-5" fill-rule="evenodd"/>
    <path d="M13.001,17.276 C13.001,18.162 12.283,18.880 11.397,18.880 C10.511,18.880 9.792,18.162 9.792,17.276 C9.792,16.390 10.511,15.671 11.397,15.671 C12.283,15.671 13.001,16.390 13.001,17.276 Z" id="path-13" class="cls-5" fill-rule="evenodd"/>
  </g>
</svg>
