<svg xmlns="http://www.w3.org/2000/svg" xmlns:xlink="http://www.w3.org/1999/xlink" preserveAspectRatio="xMidYMid" width="66" height="55" viewBox="0 0 66 55">
  <defs>
    <style>

      .cls-3 {
        fill: #000000;
      }

      .cls-4 {
        fill: #e56a77;
      }
    </style>
  </defs>
  <g id="group-4svg">
    <path d="M48.918,33.701 C48.176,33.701 47.531,33.150 47.433,32.394 C47.396,32.120 43.695,4.899 30.729,2.997 C29.910,2.876 29.343,2.115 29.463,1.295 C29.583,0.475 30.346,-0.097 31.165,0.029 C46.367,2.259 50.250,30.793 50.407,32.007 C50.514,32.829 49.935,33.581 49.114,33.688 C49.048,33.696 48.982,33.701 48.918,33.701 Z" id="path-1" class="cls-3" fill-rule="evenodd"/>
    <path d="M55.760,32.852 C53.954,32.852 54.370,33.345 52.920,34.201 C51.470,33.345 51.184,32.852 49.378,32.852 C43.995,32.852 39.630,37.217 39.630,42.600 C39.630,47.984 42.591,54.958 47.975,54.958 C49.780,54.958 51.470,54.465 52.920,53.609 C54.370,54.465 56.060,54.958 57.865,54.958 C63.249,54.958 65.508,47.984 65.508,42.600 C65.508,37.217 61.143,32.852 55.760,32.852 Z" id="path-2" class="cls-4" fill-rule="evenodd"/>
    <path d="M14.504,30.590 C16.170,30.590 15.787,31.045 17.125,31.835 C18.463,31.045 18.727,30.590 20.394,30.590 C25.362,30.590 29.390,34.618 29.390,39.587 C29.390,44.555 26.657,50.992 21.689,50.992 C20.022,50.992 18.463,50.537 17.125,49.747 C15.787,50.537 14.227,50.992 12.561,50.992 C7.592,50.992 5.508,44.555 5.508,39.587 C5.508,34.618 9.535,30.590 14.504,30.590 Z" id="path-3" class="cls-4" fill-rule="evenodd"/>
    <path d="M53.865,54.458 C52.147,54.458 50.454,54.064 48.920,53.312 C47.386,54.064 45.693,54.458 43.975,54.458 C37.894,54.458 34.130,47.265 34.130,40.600 C34.130,34.398 39.176,29.352 45.378,29.352 C47.104,29.352 47.851,29.746 48.857,30.392 C48.877,30.373 48.897,30.355 48.917,30.337 C49.651,29.670 50.264,29.352 51.760,29.352 C57.962,29.352 63.008,34.398 63.008,40.600 C63.008,47.487 59.867,54.458 53.865,54.458 ZM48.920,50.109 C49.184,50.109 49.447,50.179 49.683,50.317 C50.946,51.063 52.393,51.458 53.865,51.458 C58.340,51.458 60.008,44.798 60.008,40.600 C60.008,36.052 56.308,32.352 51.760,32.352 C51.256,32.352 51.117,32.398 51.103,32.403 C51.057,32.437 51.002,32.495 50.935,32.557 C50.688,32.781 50.317,33.118 49.682,33.493 C49.211,33.770 48.628,33.770 48.158,33.493 C47.834,33.302 47.566,33.128 47.325,32.973 C46.549,32.472 46.364,32.352 45.378,32.352 C40.831,32.352 37.130,36.052 37.130,40.600 C37.130,45.038 39.568,51.458 43.975,51.458 C45.447,51.458 46.894,51.063 48.158,50.317 C48.393,50.179 48.656,50.109 48.920,50.109 Z" id="path-4" class="cls-3" fill-rule="evenodd"/>
    <path d="M17.689,50.492 C16.104,50.492 14.542,50.133 13.124,49.448 C11.707,50.133 10.145,50.492 8.560,50.492 C2.946,50.492 0.008,44.000 0.008,37.587 C0.008,31.799 4.716,27.090 10.504,27.090 C11.915,27.090 12.499,27.390 13.195,28.019 C13.990,27.511 14.745,27.090 16.394,27.090 C22.181,27.090 26.890,31.799 26.890,37.587 C26.890,43.793 23.372,50.492 17.689,50.492 ZM13.124,46.247 C13.388,46.247 13.651,46.317 13.887,46.456 C15.036,47.133 16.351,47.492 17.689,47.492 C21.682,47.492 23.890,41.635 23.890,37.587 C23.890,33.453 20.527,30.090 16.394,30.090 C15.518,30.090 15.370,30.186 14.659,30.645 C14.436,30.789 14.187,30.950 13.887,31.127 C13.416,31.404 12.832,31.404 12.362,31.127 C11.766,30.775 11.418,30.458 11.187,30.249 C11.131,30.198 11.084,30.149 11.030,30.111 C11.040,30.124 10.898,30.090 10.504,30.090 C6.371,30.090 3.008,33.453 3.008,37.587 C3.008,41.416 4.515,47.492 8.560,47.492 C9.899,47.492 11.214,47.133 12.362,46.456 C12.597,46.317 12.861,46.247 13.124,46.247 Z" id="path-5" class="cls-3" fill-rule="evenodd"/>
    <path d="M13.126,31.335 C13.019,31.335 12.911,31.324 12.802,31.300 C11.993,31.122 11.481,30.322 11.660,29.513 C11.864,28.584 16.805,6.696 29.006,0.189 C29.737,-0.201 30.645,0.076 31.036,0.807 C31.425,1.538 31.149,2.446 30.417,2.836 C19.424,8.699 14.637,29.943 14.589,30.157 C14.436,30.858 13.815,31.335 13.126,31.335 Z" id="path-6" class="cls-3" fill-rule="evenodd"/>
    <path d="M50.955,47.885 C50.194,47.885 49.542,47.308 49.464,46.534 C49.382,45.710 49.983,44.975 50.808,44.892 C51.774,44.795 52.487,44.434 52.987,43.788 C54.295,42.097 53.865,39.052 53.860,39.021 C53.733,38.203 54.293,37.436 55.111,37.309 C55.935,37.181 56.697,37.742 56.824,38.560 C56.893,39.001 57.435,42.941 55.360,45.623 C54.357,46.920 52.886,47.699 51.106,47.877 C51.056,47.882 51.005,47.885 50.955,47.885 Z" id="path-7" class="cls-3" fill-rule="evenodd"/>
    <path d="M6.005,40.291 C5.882,40.291 5.757,40.276 5.632,40.244 C4.830,40.039 4.346,39.221 4.551,38.418 C5.558,34.492 11.981,32.543 12.711,32.334 C13.509,32.108 14.337,32.566 14.565,33.361 C14.794,34.157 14.335,34.987 13.539,35.217 C11.266,35.874 7.875,37.533 7.457,39.163 C7.284,39.841 6.674,40.291 6.005,40.291 Z" id="path-8" class="cls-3" fill-rule="evenodd"/>
  </g>
</svg>
