<svg xmlns="http://www.w3.org/2000/svg" xmlns:xlink="http://www.w3.org/1999/xlink" preserveAspectRatio="xMidYMid" width="67" height="57" viewBox="0 0 67 57">
  <defs>
    <style>

      .cls-3 {
        fill: #ff917b;
      }

      .cls-4 {
        fill: #99746a;
      }

      .cls-5 {
        fill: #53ecf4;
      }

      .cls-6 {
        fill: #000000;
      }
    </style>
  </defs>
  <g id="group-67svg">
    <path d="M65.625,16.719 C65.625,16.719 65.625,45.433 65.625,45.433 C65.625,51.474 52.068,56.292 35.500,56.292 C18.932,56.292 6.625,51.317 6.625,45.276 C6.625,45.276 6.625,16.719 6.625,16.719 C6.625,16.719 6.625,16.719 6.625,16.719 " id="path-1" class="cls-3" fill-rule="evenodd"/>
    <path d="M66.514,15.433 C66.514,21.474 53.082,26.370 36.514,26.370 C19.944,26.370 6.514,21.474 6.514,15.433 C6.514,9.393 19.944,4.495 36.514,4.495 C53.082,4.495 66.514,9.393 66.514,15.433 Z" id="path-2" class="cls-4" fill-rule="evenodd"/>
    <path d="M65.570,40.124 C51.820,50.752 35.625,46.370 35.625,46.370 C35.625,46.370 35.625,35.706 35.625,35.706 C48.625,38.037 65.504,30.709 65.504,30.709 C65.504,30.709 65.570,40.124 65.570,40.124 Z" id="path-3" class="cls-5" fill-rule="evenodd"/>
    <path d="M31.514,24.870 C16.243,24.870 0.014,20.512 0.014,12.433 C0.014,4.353 16.243,-0.005 31.514,-0.005 C46.784,-0.005 63.014,4.353 63.014,12.433 C63.014,20.512 46.784,24.870 31.514,24.870 ZM31.514,2.995 C14.718,2.995 3.014,7.969 3.014,12.433 C3.014,16.896 14.718,21.870 31.514,21.870 C48.309,21.870 60.014,16.896 60.014,12.433 C60.014,7.969 48.309,2.995 31.514,2.995 Z" id="path-4" class="cls-6" fill-rule="evenodd"/>
    <path d="M31.000,54.792 C13.399,54.792 0.625,49.528 0.625,42.276 C0.625,42.276 0.625,13.719 0.625,13.719 C0.625,12.891 1.297,12.219 2.125,12.219 C2.953,12.219 3.625,12.891 3.625,13.719 C3.625,13.719 3.625,42.276 3.625,42.276 C3.625,46.871 14.625,51.792 31.000,51.792 C47.869,51.792 59.625,46.859 59.625,42.433 C59.625,42.433 59.625,13.719 59.625,13.719 C59.625,12.891 60.297,12.219 61.125,12.219 C61.953,12.219 62.625,12.891 62.625,13.719 C62.625,13.719 62.625,42.433 62.625,42.433 C62.625,50.461 46.331,54.792 31.000,54.792 Z" id="path-5" class="cls-6" fill-rule="evenodd"/>
    <path d="M39.377,45.789 C34.444,45.789 31.040,44.900 30.733,44.817 C30.079,44.641 29.625,44.047 29.625,43.370 C29.625,43.370 29.625,32.706 29.625,32.706 C29.625,32.262 29.822,31.841 30.162,31.556 C30.503,31.270 30.953,31.151 31.390,31.229 C43.791,33.453 59.607,26.413 59.766,26.342 C60.522,26.002 61.409,26.338 61.749,27.093 C62.090,27.848 61.754,28.736 60.998,29.077 C60.348,29.371 45.550,35.947 32.625,34.442 C32.625,34.442 32.625,42.158 32.625,42.158 C36.413,42.866 49.187,44.410 60.148,35.937 C60.802,35.431 61.746,35.551 62.252,36.207 C62.759,36.862 62.639,37.804 61.982,38.310 C54.105,44.400 45.546,45.789 39.377,45.789 Z" id="path-6" class="cls-6" fill-rule="evenodd"/>
    <path d="M60.625,13.719 C60.625,13.719 47.625,13.719 47.625,13.719 C46.797,13.719 46.125,13.047 46.125,12.219 C46.125,11.390 46.797,10.719 47.625,10.719 C47.625,10.719 60.625,10.719 60.625,10.719 C61.453,10.719 62.125,11.390 62.125,12.219 C62.125,13.047 61.453,13.719 60.625,13.719 Z" id="path-7" class="cls-6" fill-rule="evenodd"/>
  </g>
</svg>
