<svg xmlns="http://www.w3.org/2000/svg" xmlns:xlink="http://www.w3.org/1999/xlink" preserveAspectRatio="xMidYMid" width="64" height="57" viewBox="0 0 64 57">
  <defs>
    <style>

      .cls-3 {
        fill: #8b71b5;
      }

      .cls-4 {
        fill: #e56a77;
      }

      .cls-5 {
        fill: #000000;
      }
    </style>
  </defs>
  <g id="group-75svg">
    <path d="M18.351,21.500 C14.661,25.500 12.379,32.331 12.379,39.062 C12.379,46.252 14.990,52.500 19.134,57.500 C19.134,57.500 47.444,57.500 47.444,57.500 C51.587,52.500 54.199,46.252 54.199,39.062 C54.199,32.331 51.916,25.500 48.226,21.500 C48.226,21.500 18.351,21.500 18.351,21.500 Z" id="path-1" class="cls-3" fill-rule="evenodd"/>
    <path d="M47.597,16.500 C47.597,16.500 18.872,16.500 18.872,16.500 C18.872,16.500 24.191,9.500 24.191,9.500 C24.191,9.500 42.277,9.500 42.277,9.500 C42.277,9.500 47.597,16.500 47.597,16.500 Z" id="path-2" class="cls-4" fill-rule="evenodd"/>
    <path d="M42.444,56.500 C42.444,56.500 14.134,56.500 14.134,56.500 C13.687,56.500 13.264,56.301 12.979,55.957 C8.333,50.351 5.878,43.645 5.878,36.562 C5.878,29.361 8.319,22.242 12.248,17.982 C12.533,17.676 12.932,17.500 13.351,17.500 C13.351,17.500 43.226,17.500 43.226,17.500 C43.645,17.500 44.044,17.676 44.329,17.982 C48.258,22.242 50.699,29.361 50.699,36.562 C50.699,43.645 48.244,50.351 43.599,55.957 C43.314,56.301 42.891,56.500 42.444,56.500 ZM14.850,53.500 C14.850,53.500 41.728,53.500 41.728,53.500 C45.637,48.553 47.699,42.712 47.699,36.562 C47.699,30.453 45.692,24.240 42.549,20.500 C42.549,20.500 14.028,20.500 14.028,20.500 C10.885,24.240 8.878,30.453 8.878,36.562 C8.878,42.711 10.940,48.553 14.850,53.500 Z" id="path-3" class="cls-5" fill-rule="evenodd"/>
    <path d="M51.889,45.373 C51.742,45.373 51.596,45.364 51.451,45.348 C49.608,45.133 48.598,43.563 48.292,42.669 C48.023,41.885 48.441,41.032 49.225,40.764 C50.010,40.495 50.861,40.913 51.130,41.696 C51.130,41.696 51.130,41.696 51.130,41.696 C51.131,41.696 51.391,42.327 51.806,42.369 C52.008,42.389 53.917,42.379 57.929,36.002 C59.898,32.869 60.468,30.158 59.622,27.943 C58.608,25.293 55.743,23.835 54.362,23.268 C54.362,23.268 48.911,28.330 48.911,28.330 C48.305,28.894 47.355,28.858 46.791,28.251 C46.228,27.645 46.263,26.695 46.870,26.131 C46.870,26.131 52.992,20.447 52.992,20.447 C53.377,20.089 53.920,19.959 54.426,20.104 C54.674,20.176 60.524,21.903 62.424,26.872 C63.625,30.016 62.967,33.624 60.468,37.598 C57.145,42.883 54.403,45.373 51.889,45.373 Z" id="path-4" class="cls-5" fill-rule="evenodd"/>
    <path d="M8.135,31.715 C7.578,31.715 7.042,31.402 6.783,30.867 C6.748,30.794 4.717,26.725 1.503,26.725 C0.674,26.725 0.003,26.055 0.003,25.225 C0.003,24.397 0.674,23.725 1.503,23.725 C6.625,23.725 9.372,29.328 9.487,29.566 C9.845,30.313 9.530,31.209 8.783,31.567 C8.574,31.668 8.353,31.715 8.135,31.715 Z" id="path-5" class="cls-5" fill-rule="evenodd"/>
    <path d="M42.617,15.500 C42.610,15.500 42.604,15.500 42.597,15.500 C42.597,15.500 13.872,15.500 13.872,15.500 C13.302,15.500 12.782,15.178 12.528,14.666 C12.275,14.156 12.333,13.547 12.678,13.092 C12.678,13.092 17.997,6.092 17.997,6.092 C18.281,5.719 18.723,5.500 19.191,5.500 C19.191,5.500 37.277,5.500 37.277,5.500 C37.746,5.500 38.188,5.719 38.472,6.092 C38.472,6.092 43.667,12.929 43.667,12.929 C43.945,13.201 44.117,13.580 44.117,14.000 C44.117,14.828 43.446,15.500 42.617,15.500 ZM16.896,12.500 C16.896,12.500 39.573,12.500 39.573,12.500 C39.573,12.500 36.533,8.500 36.533,8.500 C36.533,8.500 19.935,8.500 19.935,8.500 C19.935,8.500 16.896,12.500 16.896,12.500 Z" id="path-6" class="cls-5" fill-rule="evenodd"/>
    <path d="M28.437,7.000 C27.609,7.000 26.937,6.328 26.937,5.500 C26.937,5.500 26.937,1.500 26.937,1.500 C26.937,0.672 27.609,-0.000 28.437,-0.000 C29.266,-0.000 29.937,0.672 29.937,1.500 C29.937,1.500 29.937,5.500 29.937,5.500 C29.937,6.328 29.266,7.000 28.437,7.000 Z" id="path-7" class="cls-5" fill-rule="evenodd"/>
  </g>
</svg>
