<svg xmlns="http://www.w3.org/2000/svg" xmlns:xlink="http://www.w3.org/1999/xlink" preserveAspectRatio="xMidYMid" width="62" height="64" viewBox="0 0 62 64">
  <defs>
    <style>

      .cls-3 {
        fill: #81bda4;
      }

      .cls-4 {
        fill: #edc951;
      }

      .cls-5 {
        fill: #e56a77;
      }

      .cls-7 {
        fill: #000000;
      }
    </style>
  </defs>
  <g id="group-10svg">
    <path d="M39.473,18.389 C37.261,18.389 35.128,18.746 33.123,19.409 C31.117,18.746 28.985,18.389 26.773,18.389 C15.019,18.389 5.489,28.484 5.489,40.937 C5.489,53.390 15.019,63.485 26.773,63.485 C28.985,63.485 31.117,63.127 33.123,62.465 C35.128,63.127 37.261,63.485 39.473,63.485 C51.228,63.485 60.757,53.390 60.757,40.937 C60.757,28.484 51.228,18.389 39.473,18.389 Z" id="path-1" class="cls-3" fill-rule="evenodd"/>
    <path d="M37.409,25.715 C35.916,25.715 34.476,25.956 33.123,26.404 C31.770,25.956 30.330,25.715 28.837,25.715 C20.900,25.715 14.468,32.530 14.468,40.937 C14.468,49.344 20.900,56.159 28.837,56.159 C30.330,56.159 31.770,55.917 33.123,55.470 C34.476,55.917 35.916,56.159 37.409,56.159 C45.346,56.159 51.778,49.344 51.778,40.937 C51.778,32.530 45.346,25.715 37.409,25.715 Z" id="path-2" class="cls-4" fill-rule="evenodd"/>
    <path d="M37.725,40.611 C37.725,44.703 35.538,48.019 32.840,48.019 C30.143,48.019 27.956,44.703 27.956,40.611 C27.956,36.520 30.143,33.204 32.840,33.204 C35.538,33.204 37.725,36.520 37.725,40.611 Z" id="path-3" class="cls-5" fill-rule="evenodd"/>
    <path d="M34.754,8.383 C34.754,8.383 35.137,1.589 42.271,4.005 C49.406,6.421 55.868,8.985 55.868,8.985 C55.868,8.985 50.507,16.005 40.461,11.399 C40.461,11.399 37.303,9.861 34.754,8.383 Z" id="path-4" class="cls-3" fill-rule="evenodd"/>
    <path d="M33.409,55.659 C31.953,55.659 30.514,55.452 29.123,55.041 C27.732,55.452 26.293,55.659 24.837,55.659 C16.087,55.659 8.968,48.158 8.968,38.937 C8.968,29.716 16.087,22.215 24.837,22.215 C26.294,22.215 27.733,22.422 29.123,22.832 C30.513,22.422 31.952,22.215 33.409,22.215 C42.159,22.215 49.278,29.716 49.278,38.937 C49.278,48.158 42.159,55.659 33.409,55.659 ZM29.123,51.970 C29.282,51.970 29.440,51.996 29.594,52.046 C30.825,52.453 32.108,52.659 33.409,52.659 C40.505,52.659 46.278,46.503 46.278,38.937 C46.278,31.371 40.505,25.215 33.409,25.215 C32.107,25.215 30.824,25.421 29.594,25.828 C29.289,25.929 28.957,25.929 28.652,25.828 C27.422,25.421 26.139,25.215 24.837,25.215 C17.741,25.215 11.968,31.371 11.968,38.937 C11.968,46.503 17.741,52.659 24.837,52.659 C26.138,52.659 27.421,52.453 28.652,52.046 C28.806,51.996 28.964,51.970 29.123,51.970 Z" id="path-5" class="cls-7" fill-rule="evenodd"/>
    <path d="M35.473,62.985 C33.312,62.985 31.179,62.667 29.123,62.039 C27.067,62.667 24.934,62.985 22.773,62.985 C10.210,62.985 -0.011,52.197 -0.011,38.937 C-0.011,25.676 10.210,14.888 22.773,14.888 C24.934,14.888 27.066,15.206 29.123,15.835 C31.180,15.206 33.312,14.888 35.473,14.888 C48.036,14.888 58.257,25.676 58.257,38.937 C58.257,52.197 48.036,62.985 35.473,62.985 ZM29.123,58.965 C29.282,58.965 29.441,58.990 29.594,59.040 C31.489,59.667 33.467,59.985 35.473,59.985 C46.382,59.985 55.257,50.543 55.257,38.937 C55.257,27.330 46.382,17.888 35.473,17.888 C33.468,17.888 31.490,18.206 29.594,18.833 C29.289,18.934 28.957,18.934 28.652,18.833 C26.756,18.206 24.778,17.888 22.773,17.888 C11.864,17.888 2.989,27.330 2.989,38.937 C2.989,50.543 11.864,59.985 22.773,59.985 C24.779,59.985 26.757,59.667 28.652,59.040 C28.805,58.990 28.964,58.965 29.123,58.965 Z" id="path-6" class="cls-7" fill-rule="evenodd"/>
    <path d="M28.841,47.519 C25.261,47.519 22.456,43.606 22.456,38.611 C22.456,33.616 25.261,29.704 28.841,29.704 C32.421,29.704 35.225,33.616 35.225,38.611 C35.225,43.606 32.421,47.519 28.841,47.519 ZM28.841,32.703 C27.240,32.703 25.456,35.130 25.456,38.611 C25.456,42.093 27.240,44.519 28.841,44.519 C30.441,44.519 32.225,42.093 32.225,38.611 C32.225,35.130 30.441,32.703 28.841,32.703 Z" id="path-7" class="cls-7" fill-rule="evenodd"/>
    <path d="M44.038,12.465 C41.724,12.465 39.300,11.892 36.836,10.762 C36.674,10.684 33.567,9.169 31.001,7.680 C30.513,7.397 30.225,6.862 30.256,6.298 C30.380,4.115 31.839,-0.015 36.479,-0.015 C37.478,-0.015 38.579,0.187 39.753,0.584 C46.842,2.985 53.356,5.565 53.422,5.591 C53.858,5.764 54.188,6.132 54.313,6.585 C54.439,7.037 54.346,7.522 54.061,7.896 C53.918,8.082 50.496,12.465 44.038,12.465 ZM33.394,5.590 C35.665,6.854 38.090,8.037 38.117,8.050 C40.155,8.984 42.158,9.465 44.038,9.465 C46.794,9.465 48.826,8.442 50.100,7.520 C47.608,6.566 43.317,4.958 38.790,3.426 C37.928,3.133 37.150,2.985 36.479,2.985 C34.407,2.985 33.662,4.526 33.394,5.590 Z" id="path-8" class="cls-7" fill-rule="evenodd"/>
    <path d="M29.121,17.888 C28.338,17.888 27.679,17.280 27.626,16.487 C27.500,14.560 28.648,7.472 28.779,6.670 C28.786,6.631 28.794,6.593 28.803,6.554 C28.843,6.395 29.812,2.625 33.978,0.362 C34.705,-0.033 35.616,0.236 36.013,0.964 C36.408,1.692 36.138,2.603 35.410,2.998 C32.634,4.506 31.839,6.857 31.728,7.234 C31.252,10.144 30.542,15.106 30.620,16.289 C30.674,17.116 30.048,17.831 29.222,17.885 C29.188,17.887 29.154,17.888 29.121,17.888 Z" id="path-9" class="cls-7" fill-rule="evenodd"/>
  </g>
</svg>
