<svg xmlns="http://www.w3.org/2000/svg" xmlns:xlink="http://www.w3.org/1999/xlink" preserveAspectRatio="xMidYMid" width="65" height="52" viewBox="0 0 65 52">
  <defs>
    <style>

      .cls-3 {
        fill: #ff917b;
      }

      .cls-4 {
        fill: #e56a77;
      }

      .cls-5 {
        fill: #000000;
      }
    </style>
  </defs>
  <g id="group-83svg">
    <path d="M64.000,48.500 C64.000,47.395 63.104,46.500 62.000,46.500 C62.000,46.500 6.000,46.500 6.000,46.500 C4.895,46.500 4.000,47.395 4.000,48.500 C4.000,48.500 4.000,50.500 4.000,50.500 C4.000,51.604 4.895,52.500 6.000,52.500 C6.000,52.500 62.000,52.500 62.000,52.500 C63.104,52.500 64.000,51.604 64.000,50.500 C64.000,50.500 64.000,48.500 64.000,48.500 Z" id="path-1" class="cls-3" fill-rule="evenodd"/>
    <path d="M34.452,11.743 C18.018,11.743 4.695,24.500 4.695,41.500 C4.695,41.500 64.208,41.500 64.208,41.500 C64.208,24.500 50.886,11.743 34.452,11.743 Z" id="path-2" class="cls-4" fill-rule="evenodd"/>
    <path d="M61.208,39.500 C61.208,39.500 1.695,39.500 1.695,39.500 C0.867,39.500 0.195,38.828 0.195,38.000 C0.195,20.473 13.925,6.744 31.452,6.744 C48.979,6.744 62.708,20.473 62.708,38.000 C62.708,38.828 62.037,39.500 61.208,39.500 ZM3.232,36.500 C3.232,36.500 59.671,36.500 59.671,36.500 C58.915,21.379 46.792,9.744 31.452,9.744 C16.111,9.744 3.988,21.379 3.232,36.500 Z" id="path-3" class="cls-5" fill-rule="evenodd"/>
    <path d="M59.500,50.500 C59.500,50.500 3.500,50.500 3.500,50.500 C1.570,50.500 -0.000,48.930 -0.000,47.000 C-0.000,47.000 -0.000,45.000 -0.000,45.000 C-0.000,43.070 1.570,41.500 3.500,41.500 C3.500,41.500 59.500,41.500 59.500,41.500 C61.430,41.500 63.000,43.070 63.000,45.000 C63.000,45.000 63.000,47.000 63.000,47.000 C63.000,48.930 61.430,50.500 59.500,50.500 ZM3.500,44.500 C3.224,44.500 3.000,44.725 3.000,45.000 C3.000,45.000 3.000,47.000 3.000,47.000 C3.000,47.275 3.224,47.500 3.500,47.500 C3.500,47.500 59.500,47.500 59.500,47.500 C59.776,47.500 60.000,47.275 60.000,47.000 C60.000,47.000 60.000,45.000 60.000,45.000 C60.000,44.725 59.776,44.500 59.500,44.500 C59.500,44.500 3.500,44.500 3.500,44.500 Z" id="path-4" class="cls-5" fill-rule="evenodd"/>
    <path d="M50.153,32.189 C49.387,32.189 48.733,31.606 48.661,30.828 C47.698,20.467 35.953,17.170 35.834,17.138 C35.034,16.922 34.561,16.098 34.778,15.298 C34.995,14.498 35.819,14.027 36.618,14.242 C37.184,14.395 50.495,18.139 51.648,30.551 C51.725,31.376 51.119,32.107 50.293,32.184 C50.247,32.188 50.200,32.189 50.153,32.189 Z" id="path-5" class="cls-5" fill-rule="evenodd"/>
    <path d="M31.500,9.000 C30.671,9.000 30.000,8.328 30.000,7.500 C30.000,7.500 30.000,1.500 30.000,1.500 C30.000,0.672 30.671,-0.000 31.500,-0.000 C32.329,-0.000 33.000,0.672 33.000,1.500 C33.000,1.500 33.000,7.500 33.000,7.500 C33.000,8.328 32.329,9.000 31.500,9.000 Z" id="path-6" class="cls-5" fill-rule="evenodd"/>
  </g>
</svg>
