<svg xmlns="http://www.w3.org/2000/svg" xmlns:xlink="http://www.w3.org/1999/xlink" preserveAspectRatio="xMidYMid" width="42" height="64" viewBox="0 0 42 64">
  <defs>
    <style>

      .cls-3 {
        fill: #e56a77;
      }

      .cls-11 {
        fill: #000000;
      }
    </style>
  </defs>
  <g id="group-6svg">
    <path d="M16.459,34.955 C16.459,38.257 13.782,40.934 10.480,40.934 C7.178,40.934 4.500,38.257 4.500,34.955 C4.500,31.652 7.178,28.975 10.480,28.975 C13.782,28.975 16.459,31.652 16.459,34.955 Z" id="path-1" class="cls-3" fill-rule="evenodd"/>
    <path d="M28.748,34.955 C28.748,38.257 26.071,40.934 22.769,40.934 C19.466,40.934 16.789,38.257 16.789,34.955 C16.789,31.652 19.466,28.975 22.769,28.975 C26.071,28.975 28.748,31.652 28.748,34.955 Z" id="path-2" class="cls-3" fill-rule="evenodd"/>
    <path d="M41.036,34.955 C41.036,38.257 38.359,40.934 35.057,40.934 C31.754,40.934 29.077,38.257 29.077,34.955 C29.077,31.652 31.754,28.975 35.057,28.975 C38.359,28.975 41.036,31.652 41.036,34.955 Z" id="path-3" class="cls-3" fill-rule="evenodd"/>
    <path d="M22.603,45.707 C22.603,49.009 19.927,51.686 16.624,51.686 C13.322,51.686 10.645,49.009 10.645,45.707 C10.645,42.405 13.322,39.727 16.624,39.727 C19.927,39.727 22.603,42.405 22.603,45.707 Z" id="path-4" class="cls-3" fill-rule="evenodd"/>
    <path d="M34.892,45.707 C34.892,49.009 32.215,51.686 28.913,51.686 C25.610,51.686 22.933,49.009 22.933,45.707 C22.933,42.405 25.610,39.727 28.913,39.727 C32.215,39.727 34.892,42.405 34.892,45.707 Z" id="path-5" class="cls-3" fill-rule="evenodd"/>
    <path d="M22.603,22.963 C22.603,26.266 19.927,28.943 16.624,28.943 C13.322,28.943 10.645,26.266 10.645,22.963 C10.645,19.661 13.322,16.984 16.624,16.984 C19.927,16.984 22.603,19.661 22.603,22.963 Z" id="path-6" class="cls-3" fill-rule="evenodd"/>
    <path d="M34.892,22.963 C34.892,26.266 32.215,28.943 28.913,28.943 C25.610,28.943 22.933,26.266 22.933,22.963 C22.933,19.661 25.610,16.984 28.913,16.984 C32.215,16.984 34.892,19.661 34.892,22.963 Z" id="path-7" class="cls-3" fill-rule="evenodd"/>
    <path d="M28.394,56.537 C28.394,59.840 25.717,62.517 22.414,62.517 C19.112,62.517 16.435,59.840 16.435,56.537 C16.435,53.235 19.112,50.558 22.414,50.558 C25.717,50.558 28.394,53.235 28.394,56.537 Z" id="path-8" class="cls-3" fill-rule="evenodd"/>
    <path d="M7.480,41.434 C3.356,41.434 0.000,38.079 0.000,33.955 C0.000,29.831 3.356,26.475 7.480,26.475 C11.604,26.475 14.959,29.831 14.959,33.955 C14.959,38.079 11.604,41.434 7.480,41.434 ZM7.480,29.475 C5.010,29.475 3.000,31.484 3.000,33.955 C3.000,36.425 5.010,38.434 7.480,38.434 C9.950,38.434 11.959,36.425 11.959,33.955 C11.959,31.484 9.950,29.475 7.480,29.475 Z" id="path-9" class="cls-11" fill-rule="evenodd"/>
    <path d="M19.768,41.434 C15.644,41.434 12.289,38.079 12.289,33.955 C12.289,29.831 15.644,26.475 19.768,26.475 C23.893,26.475 27.248,29.831 27.248,33.955 C27.248,38.079 23.893,41.434 19.768,41.434 ZM19.768,29.475 C17.298,29.475 15.289,31.484 15.289,33.955 C15.289,36.425 17.298,38.434 19.768,38.434 C22.239,38.434 24.248,36.425 24.248,33.955 C24.248,31.484 22.239,29.475 19.768,29.475 Z" id="path-10" class="cls-11" fill-rule="evenodd"/>
    <path d="M32.057,41.434 C27.933,41.434 24.577,38.079 24.577,33.955 C24.577,29.831 27.933,26.475 32.057,26.475 C36.181,26.475 39.536,29.831 39.536,33.955 C39.536,38.079 36.181,41.434 32.057,41.434 ZM32.057,29.475 C29.586,29.475 27.577,31.484 27.577,33.955 C27.577,36.425 29.586,38.434 32.057,38.434 C34.527,38.434 36.536,36.425 36.536,33.955 C36.536,31.484 34.527,29.475 32.057,29.475 Z" id="path-11" class="cls-11" fill-rule="evenodd"/>
    <path d="M13.624,52.186 C9.500,52.186 6.145,48.831 6.145,44.707 C6.145,40.583 9.500,37.227 13.624,37.227 C17.748,37.227 21.104,40.583 21.104,44.707 C21.104,48.831 17.748,52.186 13.624,52.186 ZM13.624,40.228 C11.154,40.228 9.145,42.237 9.145,44.707 C9.145,47.177 11.154,49.186 13.624,49.186 C16.094,49.186 18.103,47.177 18.103,44.707 C18.103,42.237 16.094,40.228 13.624,40.228 Z" id="path-12" class="cls-11" fill-rule="evenodd"/>
    <path d="M25.913,52.186 C21.789,52.186 18.433,48.831 18.433,44.707 C18.433,40.583 21.789,37.227 25.913,37.227 C30.037,37.227 33.392,40.583 33.392,44.707 C33.392,48.831 30.037,52.186 25.913,52.186 ZM25.913,40.228 C23.442,40.228 21.433,42.237 21.433,44.707 C21.433,47.177 23.442,49.186 25.913,49.186 C28.383,49.186 30.392,47.177 30.392,44.707 C30.392,42.237 28.383,40.228 25.913,40.228 Z" id="path-13" class="cls-11" fill-rule="evenodd"/>
    <path d="M13.624,29.443 C9.500,29.443 6.145,26.087 6.145,21.963 C6.145,17.839 9.500,14.484 13.624,14.484 C17.748,14.484 21.104,17.839 21.104,21.963 C21.104,26.087 17.748,29.443 13.624,29.443 ZM13.624,17.484 C11.154,17.484 9.145,19.493 9.145,21.963 C9.145,24.433 11.154,26.443 13.624,26.443 C16.094,26.443 18.103,24.433 18.103,21.963 C18.103,19.493 16.094,17.484 13.624,17.484 Z" id="path-14" class="cls-11" fill-rule="evenodd"/>
    <path d="M25.913,29.443 C21.789,29.443 18.433,26.087 18.433,21.963 C18.433,17.839 21.789,14.484 25.913,14.484 C30.037,14.484 33.392,17.839 33.392,21.963 C33.392,26.087 30.037,29.443 25.913,29.443 ZM25.913,17.484 C23.442,17.484 21.433,19.493 21.433,21.963 C21.433,24.433 23.442,26.443 25.913,26.443 C28.383,26.443 30.392,24.433 30.392,21.963 C30.392,19.493 28.383,17.484 25.913,17.484 Z" id="path-15" class="cls-11" fill-rule="evenodd"/>
    <path d="M19.415,63.017 C15.290,63.017 11.935,59.661 11.935,55.537 C11.935,51.413 15.290,48.058 19.415,48.058 C23.539,48.058 26.894,51.413 26.894,55.537 C26.894,59.661 23.539,63.017 19.415,63.017 ZM19.415,51.058 C16.944,51.058 14.935,53.067 14.935,55.537 C14.935,58.007 16.944,60.017 19.415,60.017 C21.885,60.017 23.894,58.007 23.894,55.537 C23.894,53.067 21.885,51.058 19.415,51.058 Z" id="path-16" class="cls-11" fill-rule="evenodd"/>
    <path d="M19.932,23.464 C19.240,23.464 18.618,22.982 18.467,22.279 C18.299,21.498 14.478,3.121 25.513,0.071 C26.309,-0.151 27.138,0.318 27.358,1.117 C27.579,1.915 27.111,2.742 26.312,2.962 C17.976,5.266 21.364,21.484 21.399,21.648 C21.574,22.457 21.059,23.255 20.249,23.430 C20.143,23.453 20.036,23.464 19.932,23.464 Z" id="path-17" class="cls-11" fill-rule="evenodd"/>
  </g>
</svg>
