<svg xmlns="http://www.w3.org/2000/svg" xmlns:xlink="http://www.w3.org/1999/xlink" preserveAspectRatio="xMidYMid" width="54" height="63" viewBox="0 0 54 63">
  <defs>
    <style>

      .cls-3 {
        fill: #53ecf4;
      }

      .cls-4 {
        fill: #81bda4;
      }

      .cls-5 {
        fill: #000000;
      }
    </style>
  </defs>
  <g id="group-18svg">
    <path d="M27.763,14.250 C27.763,14.250 33.217,14.250 33.217,14.250 C33.217,14.250 35.719,7.942 39.719,7.715 C39.719,7.715 39.719,2.488 39.719,2.488 C39.719,2.488 27.308,5.250 27.763,14.250 Z" id="path-1" class="cls-3" fill-rule="evenodd"/>
    <path d="M42.469,17.942 C40.001,17.942 37.643,18.771 35.798,20.151 C33.953,18.771 31.634,17.942 29.166,17.942 C26.900,17.942 24.769,18.635 23.010,19.816 C21.251,18.635 18.978,17.942 16.712,17.942 C10.629,17.942 5.490,22.920 5.490,29.003 C5.490,29.003 8.502,51.427 8.502,51.427 C8.502,57.511 13.631,62.488 19.715,62.488 C21.980,62.488 21.155,61.796 22.914,60.615 C24.673,61.796 26.823,62.488 29.088,62.488 C31.556,62.488 33.853,61.659 35.698,60.279 C37.543,61.659 36.979,62.488 39.447,62.488 C45.530,62.488 50.678,57.511 50.678,51.427 C50.678,51.427 53.691,29.003 53.691,29.003 C53.691,22.920 48.552,17.942 42.469,17.942 Z" id="path-2" class="cls-4" fill-rule="evenodd"/>
    <path d="M35.447,62.988 C33.298,62.988 32.589,62.356 31.823,61.464 C31.741,61.370 31.659,61.273 31.569,61.175 C29.610,62.365 27.394,62.988 25.088,62.988 C22.964,62.988 20.903,62.462 19.063,61.458 C19.006,61.525 18.954,61.592 18.901,61.659 C18.192,62.559 17.535,62.988 15.715,62.988 C8.740,62.988 3.060,57.409 3.003,50.531 C3.003,50.531 0.003,28.203 0.003,28.203 C-0.005,28.136 -0.010,28.070 -0.010,28.003 C-0.010,21.077 5.697,15.442 12.712,15.442 C14.894,15.442 17.135,16.024 19.005,17.058 C20.882,15.998 22.993,15.442 25.166,15.442 C27.497,15.442 29.815,16.110 31.798,17.338 C33.785,16.110 36.116,15.442 38.469,15.442 C45.484,15.442 51.191,21.077 51.191,28.003 C51.191,28.070 51.187,28.136 51.178,28.203 C51.178,28.203 48.178,50.531 48.178,50.531 C48.119,57.294 42.313,62.988 35.447,62.988 ZM31.698,57.779 C32.014,57.779 32.330,57.879 32.597,58.078 C33.357,58.647 33.786,59.145 34.099,59.510 C34.494,59.970 34.509,59.988 35.447,59.988 C40.722,59.988 45.178,55.609 45.178,50.427 C45.178,50.360 45.183,50.294 45.191,50.227 C45.191,50.227 48.190,27.906 48.190,27.906 C48.135,22.767 43.706,18.442 38.469,18.442 C36.394,18.442 34.344,19.121 32.696,20.352 C32.164,20.750 31.432,20.750 30.900,20.352 C29.252,19.121 27.216,18.442 25.166,18.442 C23.263,18.442 21.423,19.002 19.847,20.061 C19.341,20.401 18.680,20.401 18.174,20.061 C16.642,19.032 14.651,18.442 12.712,18.442 C7.475,18.442 3.046,22.767 2.991,27.906 C2.991,27.906 5.989,50.227 5.989,50.227 C5.998,50.294 6.002,50.360 6.002,50.427 C6.002,55.609 10.450,59.988 15.715,59.988 C16.151,59.988 16.354,59.957 16.437,59.939 C16.473,59.898 16.506,59.851 16.544,59.803 C16.813,59.461 17.219,58.946 18.078,58.370 C18.583,58.030 19.244,58.030 19.750,58.369 C21.327,59.428 23.173,59.988 25.088,59.988 C27.154,59.988 29.129,59.328 30.800,58.078 C31.066,57.879 31.382,57.779 31.698,57.779 Z" id="path-3" class="cls-5" fill-rule="evenodd"/>
    <path d="M15.581,55.488 C14.957,55.488 14.374,55.096 14.162,54.473 C10.901,44.925 13.964,22.893 14.096,21.960 C14.211,21.140 14.965,20.573 15.791,20.684 C16.611,20.801 17.182,21.560 17.066,22.380 C17.035,22.601 13.971,44.632 17.000,53.503 C17.268,54.287 16.850,55.140 16.066,55.407 C15.905,55.462 15.742,55.488 15.581,55.488 Z" id="path-4" class="cls-5" fill-rule="evenodd"/>
    <path d="M35.985,55.488 C35.824,55.488 35.661,55.462 35.500,55.407 C34.716,55.140 34.298,54.287 34.565,53.503 C37.595,44.632 34.531,22.601 34.499,22.380 C34.384,21.560 34.955,20.801 35.775,20.684 C36.599,20.574 37.354,21.140 37.470,21.960 C37.602,22.893 40.665,44.925 37.404,54.473 C37.191,55.096 36.609,55.488 35.985,55.488 Z" id="path-5" class="cls-5" fill-rule="evenodd"/>
    <path d="M29.217,14.250 C29.217,14.250 23.763,14.250 23.763,14.250 C22.964,14.250 22.305,13.623 22.265,12.826 C21.749,2.619 35.379,0.112 35.960,0.010 C36.396,-0.066 36.844,0.054 37.184,0.339 C37.523,0.624 37.719,1.045 37.719,1.488 C37.719,1.488 37.719,6.715 37.719,6.715 C37.719,7.511 37.098,8.168 36.304,8.213 C33.736,8.359 31.227,12.129 30.550,13.438 C30.292,13.937 29.778,14.250 29.217,14.250 ZM25.333,11.250 C25.333,11.250 28.342,11.250 28.342,11.250 C29.293,9.670 31.578,6.414 34.719,5.470 C34.719,5.470 34.719,3.400 34.719,3.400 C31.770,4.256 26.080,6.506 25.333,11.250 Z" id="path-6" class="cls-5" fill-rule="evenodd"/>
  </g>
</svg>
