<svg xmlns="http://www.w3.org/2000/svg" xmlns:xlink="http://www.w3.org/1999/xlink" preserveAspectRatio="xMidYMid" width="67" height="60" viewBox="0 0 67 60">
  <defs>
    <style>

      .cls-3 {
        fill: #e56a77;
      }

      .cls-4 {
        fill: #000000;
      }
    </style>
  </defs>
  <g id="group-49svg">
    <path d="M6.893,29.377 C6.893,29.377 60.083,4.508 60.083,4.508 C60.083,4.508 76.943,29.377 57.603,56.612 C57.603,56.612 6.893,29.377 6.893,29.377 Z" id="path-1" class="cls-3" fill-rule="evenodd"/>
    <path d="M52.603,55.112 C52.362,55.112 52.119,55.055 51.894,54.934 C51.894,54.934 1.183,27.699 1.183,27.699 C0.683,27.431 0.377,26.903 0.394,26.336 C0.409,25.768 0.743,25.259 1.257,25.019 C1.257,25.019 54.447,0.149 54.447,0.149 C55.118,-0.164 55.910,0.056 56.324,0.666 C56.499,0.923 73.541,26.718 53.826,54.481 C53.536,54.889 53.075,55.112 52.603,55.112 ZM5.235,26.470 C5.235,26.470 52.134,51.657 52.134,51.657 C67.539,28.878 57.389,8.350 54.512,3.431 C54.512,3.431 5.235,26.470 5.235,26.470 Z" id="path-2" class="cls-4" fill-rule="evenodd"/>
    <path d="M51.327,59.917 C51.094,59.917 50.857,59.863 50.636,59.748 C50.636,59.748 15.101,41.262 15.101,41.262 C14.366,40.880 14.080,39.974 14.462,39.239 C14.845,38.504 15.750,38.219 16.485,38.601 C16.485,38.601 52.020,57.086 52.020,57.086 C52.755,57.469 53.041,58.374 52.659,59.109 C52.392,59.623 51.868,59.917 51.327,59.917 Z" id="path-3" class="cls-4" fill-rule="evenodd"/>
    <path d="M49.748,18.221 C49.220,18.221 48.708,17.941 48.435,17.446 C48.034,16.723 48.295,15.812 49.018,15.410 C49.177,15.320 52.754,13.265 51.626,10.453 C51.318,9.683 51.691,8.810 52.460,8.502 C53.227,8.194 54.102,8.566 54.411,9.336 C56.104,13.557 52.575,16.871 50.473,18.033 C50.243,18.160 49.994,18.221 49.748,18.221 Z" id="path-4" class="cls-4" fill-rule="evenodd"/>
    <path d="M53.977,36.759 C53.873,36.759 53.769,36.748 53.664,36.725 C53.664,36.725 47.759,35.475 47.759,35.475 C46.948,35.304 46.431,34.508 46.602,33.698 C46.773,32.887 47.574,32.369 48.380,32.541 C48.380,32.541 54.285,33.791 54.285,33.791 C55.096,33.962 55.613,34.758 55.442,35.569 C55.293,36.274 54.670,36.759 53.977,36.759 Z" id="path-5" class="cls-4" fill-rule="evenodd"/>
    <path d="M40.990,42.219 C40.536,41.085 41.098,39.802 42.244,39.352 C43.392,38.903 44.689,39.458 45.145,40.592 C45.599,41.726 45.037,43.009 43.891,43.459 C42.743,43.908 41.445,43.353 40.990,42.219 Z" id="path-6" class="cls-4" fill-rule="evenodd"/>
    <path d="M52.666,23.389 C52.212,22.255 52.773,20.972 53.920,20.522 C55.067,20.073 56.365,20.628 56.819,21.762 C57.274,22.896 56.713,24.180 55.566,24.629 C54.419,25.078 53.121,24.523 52.666,23.389 Z" id="path-7" class="cls-4" fill-rule="evenodd"/>
    <path d="M32.853,21.389 C32.324,21.389 31.812,21.109 31.539,20.614 C31.139,19.890 31.399,18.980 32.121,18.578 C32.121,18.578 32.121,18.578 32.121,18.578 C32.274,18.492 35.858,16.436 34.730,13.621 C34.423,12.851 34.796,11.978 35.565,11.670 C36.330,11.362 37.207,11.735 37.516,12.504 C39.207,16.725 35.679,20.039 33.577,21.201 C33.348,21.328 33.099,21.389 32.853,21.389 Z" id="path-8" class="cls-4" fill-rule="evenodd"/>
    <path d="M37.080,39.927 C36.977,39.927 36.872,39.916 36.768,39.894 C36.768,39.894 30.863,38.643 30.863,38.643 C30.053,38.472 29.535,37.676 29.706,36.866 C29.878,36.054 30.679,35.534 31.484,35.709 C31.484,35.709 37.389,36.959 37.389,36.959 C38.199,37.130 38.717,37.926 38.546,38.737 C38.396,39.443 37.773,39.927 37.080,39.927 Z" id="path-9" class="cls-4" fill-rule="evenodd"/>
    <path d="M35.770,26.557 C35.315,25.423 35.877,24.140 37.024,23.690 C38.171,23.241 39.469,23.796 39.924,24.930 C40.378,26.064 39.817,27.348 38.670,27.797 C37.523,28.246 36.225,27.691 35.770,26.557 Z" id="path-10" class="cls-4" fill-rule="evenodd"/>
    <path d="M1.500,47.594 C0.672,47.594 -0.000,46.922 -0.000,46.094 C-0.000,46.094 -0.000,26.094 -0.000,26.094 C-0.000,25.265 0.672,24.594 1.500,24.594 C2.328,24.594 3.000,25.265 3.000,26.094 C3.000,26.094 3.000,46.094 3.000,46.094 C3.000,46.922 2.328,47.594 1.500,47.594 Z" id="path-11" class="cls-4" fill-rule="evenodd"/>
    <path d="M8.500,51.594 C7.672,51.594 7.000,50.922 7.000,50.094 C7.000,50.094 7.000,30.094 7.000,30.094 C7.000,29.265 7.672,28.594 8.500,28.594 C9.328,28.594 10.000,29.265 10.000,30.094 C10.000,30.094 10.000,50.094 10.000,50.094 C10.000,50.922 9.328,51.594 8.500,51.594 Z" id="path-12" class="cls-4" fill-rule="evenodd"/>
    <path d="M19.930,26.557 C19.476,25.423 20.037,24.140 21.184,23.690 C22.331,23.241 23.629,23.796 24.084,24.930 C24.538,26.064 23.977,27.348 22.830,27.797 C21.683,28.246 20.385,27.691 19.930,26.557 Z" id="path-13" class="cls-4" fill-rule="evenodd"/>
  </g>
</svg>
