<svg xmlns="http://www.w3.org/2000/svg" xmlns:xlink="http://www.w3.org/1999/xlink" preserveAspectRatio="xMidYMid" width="43" height="63" viewBox="0 0 43 63">
  <defs>
    <style>

      .cls-3 {
        fill: #53ecf4;
      }

      .cls-4 {
        fill: #e56a77;
      }

      .cls-5 {
        fill: #000000;
      }
    </style>
  </defs>
  <g id="group-77svg">
    <path d="M41.531,20.433 C41.531,20.433 23.286,39.819 23.286,39.819 C23.286,39.819 5.041,20.508 5.041,20.508 C3.827,19.208 4.749,17.312 6.528,17.312 C6.528,17.312 40.045,17.312 40.045,17.312 C41.823,17.312 42.745,19.133 41.531,20.433 Z" id="path-1" class="cls-3" fill-rule="evenodd"/>
    <path d="M32.430,23.707 C32.430,23.707 24.286,32.362 24.286,32.362 C24.286,32.362 16.143,23.740 16.143,23.740 C15.601,23.160 16.013,22.312 16.807,22.312 C16.807,22.312 31.767,22.312 31.767,22.312 C32.561,22.312 32.972,23.127 32.430,23.707 Z" id="path-2" class="cls-4" fill-rule="evenodd"/>
    <path d="M20.286,39.194 C19.871,39.194 19.475,39.022 19.190,38.719 C19.190,38.719 0.945,19.221 0.945,19.221 C-0.027,18.178 -0.281,16.726 0.282,15.429 C0.849,14.123 2.093,13.312 3.528,13.312 C3.528,13.312 37.045,13.312 37.045,13.312 C38.481,13.312 39.726,14.122 40.292,15.425 C40.853,16.717 40.599,18.166 39.628,19.206 C39.628,19.206 21.382,38.719 21.382,38.719 C21.099,39.021 20.701,39.194 20.286,39.194 ZM3.528,16.312 C3.216,16.312 3.084,16.508 3.033,16.624 C2.975,16.760 2.944,16.965 3.138,17.172 C3.138,17.172 20.286,35.498 20.286,35.498 C20.286,35.498 37.435,17.158 37.435,17.158 C37.626,16.954 37.598,16.753 37.540,16.621 C37.490,16.506 37.359,16.312 37.045,16.312 C37.045,16.312 3.528,16.312 3.528,16.312 Z" id="path-3" class="cls-5" fill-rule="evenodd"/>
    <path d="M20.437,61.812 C19.609,61.812 18.937,61.141 18.937,60.312 C18.937,60.312 18.937,37.312 18.937,37.312 C18.937,36.484 19.609,35.812 20.437,35.812 C21.266,35.812 21.937,36.484 21.937,37.312 C21.937,37.312 21.937,60.312 21.937,60.312 C21.937,61.141 21.266,61.812 20.437,61.812 Z" id="path-4" class="cls-5" fill-rule="evenodd"/>
    <path d="M27.937,63.312 C27.937,63.312 12.937,63.312 12.937,63.312 C12.109,63.312 11.437,62.641 11.437,61.812 C11.437,60.984 12.109,60.312 12.937,60.312 C12.937,60.312 27.937,60.312 27.937,60.312 C28.766,60.312 29.437,60.984 29.437,61.812 C29.437,62.641 28.766,63.312 27.937,63.312 Z" id="path-5" class="cls-5" fill-rule="evenodd"/>
    <path d="M23.852,23.836 C23.726,23.836 23.598,23.820 23.470,23.786 C22.669,23.575 22.190,22.755 22.401,21.953 C22.401,21.953 27.486,2.632 27.486,2.632 C27.636,2.060 28.107,1.631 28.689,1.534 C28.689,1.534 37.842,0.009 37.842,0.009 C38.663,-0.130 39.432,0.424 39.568,1.242 C39.705,2.058 39.152,2.832 38.336,2.968 C38.336,2.968 30.141,4.334 30.141,4.334 C30.141,4.334 25.302,22.717 25.302,22.717 C25.125,23.391 24.518,23.836 23.852,23.836 Z" id="path-6" class="cls-5" fill-rule="evenodd"/>
  </g>
</svg>
