<svg xmlns="http://www.w3.org/2000/svg" xmlns:xlink="http://www.w3.org/1999/xlink" preserveAspectRatio="xMidYMid" width="66" height="56" viewBox="0 0 66 56">
  <defs>
    <style>

      .cls-3 {
        fill: #ff917b;
      }

      .cls-4 {
        fill: #000000;
      }
    </style>
  </defs>
  <g id="group-19svg">
    <path d="M58.052,27.311 C38.497,17.487 35.489,3.644 35.489,3.644 C35.489,3.644 32.480,17.487 12.925,27.311 C-6.630,37.136 16.435,53.846 35.489,48.840 C54.542,53.846 77.607,37.136 58.052,27.311 Z" id="path-1" class="cls-3" fill-rule="evenodd"/>
    <path d="M38.772,49.000 C38.771,49.000 38.770,49.000 38.769,49.000 C36.258,49.000 33.811,48.836 31.489,48.260 C29.166,48.836 26.719,49.191 24.208,49.191 C12.894,49.191 1.908,43.202 0.218,36.075 C-0.423,33.372 -0.231,28.217 8.252,23.955 C26.851,14.611 29.995,1.371 30.024,1.239 C30.178,0.554 30.787,-0.000 31.488,-0.000 C31.490,-0.000 31.491,-0.000 31.493,-0.000 C32.197,-0.000 32.805,0.564 32.955,1.252 C32.983,1.379 36.127,14.590 54.726,23.934 C63.210,28.197 63.401,33.259 62.760,35.962 C61.070,43.089 50.085,49.000 38.772,49.000 ZM31.489,45.340 C31.617,45.340 31.745,45.229 31.870,45.262 C34.056,45.836 36.377,46.000 38.770,46.000 C38.770,46.000 38.772,46.000 38.772,46.000 C48.627,46.000 58.472,41.063 59.841,35.288 C60.808,31.213 56.860,28.337 53.379,26.588 C39.678,19.705 33.843,10.954 31.489,5.927 C29.134,10.954 23.300,19.752 9.599,26.636 C6.118,28.385 2.171,31.332 3.137,35.407 C4.506,41.182 14.353,46.251 24.208,46.251 C26.599,46.251 28.920,45.962 31.107,45.387 C31.232,45.354 31.361,45.340 31.489,45.340 Z" id="path-2" class="cls-4" fill-rule="evenodd"/>
    <path d="M34.402,48.936 C33.770,48.936 33.183,48.533 32.976,47.900 C32.720,47.112 33.150,46.265 33.937,46.009 C41.649,43.496 45.852,40.162 46.429,36.100 C47.398,29.280 37.874,21.163 34.123,18.610 C33.437,18.144 33.260,17.211 33.726,16.526 C34.191,15.842 35.125,15.664 35.810,16.130 C36.424,16.547 50.828,26.473 49.399,36.522 C48.647,41.812 43.758,45.964 34.867,48.861 C34.713,48.912 34.556,48.936 34.402,48.936 Z" id="path-3" class="cls-4" fill-rule="evenodd"/>
    <path d="M28.968,48.936 C28.813,48.936 28.657,48.912 28.502,48.861 C19.612,45.964 14.723,41.812 13.971,36.522 C12.542,26.473 26.946,16.547 27.560,16.130 C28.245,15.664 29.177,15.841 29.644,16.526 C30.109,17.210 29.933,18.143 29.248,18.610 C29.113,18.702 15.771,27.899 16.941,36.103 C17.520,40.164 21.723,43.497 29.432,46.009 C30.220,46.265 30.650,47.112 30.394,47.900 C30.187,48.533 29.599,48.936 28.968,48.936 Z" id="path-4" class="cls-4" fill-rule="evenodd"/>
    <path d="M22.936,52.826 C22.236,52.826 21.610,52.333 21.467,51.620 C21.305,50.808 21.832,50.017 22.644,49.855 C27.393,48.905 29.004,46.684 29.070,46.590 C29.542,45.919 30.472,45.743 31.149,46.206 C31.826,46.667 32.013,47.579 31.561,48.263 C31.471,48.398 29.303,51.582 23.232,52.796 C23.133,52.816 23.034,52.826 22.936,52.826 Z" id="path-5" class="cls-4" fill-rule="evenodd"/>
    <path d="M31.490,55.332 C31.467,55.332 31.443,55.331 31.420,55.331 C30.592,55.292 29.952,54.590 29.990,53.763 C29.990,53.763 30.285,47.366 30.285,47.366 C30.315,46.717 30.759,46.162 31.385,45.989 C32.009,45.815 32.676,46.065 33.035,46.607 C33.089,46.684 34.700,48.905 39.449,49.855 C40.261,50.017 40.788,50.808 40.625,51.620 C40.463,52.433 39.671,52.959 38.861,52.796 C36.309,52.287 34.448,51.428 33.140,50.595 C33.140,50.595 32.987,53.901 32.987,53.901 C32.950,54.705 32.287,55.332 31.490,55.332 Z" id="path-6" class="cls-4" fill-rule="evenodd"/>
  </g>
</svg>
