<svg xmlns="http://www.w3.org/2000/svg" xmlns:xlink="http://www.w3.org/1999/xlink" preserveAspectRatio="xMidYMid" width="33" height="64" viewBox="0 0 33 64">
  <defs>
    <style>

      .cls-3 {
        fill: #edc951;
      }

      .cls-4 {
        fill: #8b71b5;
      }

      .cls-5 {
        fill: #000000;
      }
    </style>
  </defs>
  <g id="group-34svg">
    <path d="M20.331,64.000 C20.331,64.000 20.886,64.000 20.886,64.000 C23.001,64.000 24.000,62.266 24.000,60.151 C24.000,60.151 24.000,43.000 24.000,43.000 C24.000,43.000 16.000,43.000 16.000,43.000 C16.000,43.000 16.000,60.151 16.000,60.151 C16.000,62.266 18.216,64.000 20.331,64.000 Z" id="path-1" class="cls-3" fill-rule="evenodd"/>
    <path d="M28.670,22.552 C28.670,21.287 29.523,20.150 30.369,19.338 C29.523,18.526 29.153,17.389 29.153,16.123 C29.153,14.114 30.570,12.622 32.397,12.062 C30.601,7.247 26.054,4.000 20.612,4.000 C20.612,4.000 20.605,4.000 20.605,4.000 C13.605,4.000 6.000,9.298 6.000,16.299 C6.000,16.299 6.000,40.767 6.000,40.767 C6.000,41.950 8.890,43.000 10.073,43.000 C10.073,43.000 31.144,43.000 31.144,43.000 C32.328,43.000 32.000,41.950 32.000,40.767 C32.000,40.767 32.000,26.967 32.000,26.967 C30.000,26.720 28.670,24.849 28.670,22.552 Z" id="path-2" class="cls-4" fill-rule="evenodd"/>
    <path d="M15.886,63.000 C15.886,63.000 15.332,63.000 15.332,63.000 C12.242,63.000 10.000,60.960 10.000,58.151 C10.000,58.151 10.000,40.500 10.000,40.500 C10.000,39.671 10.671,39.000 11.500,39.000 C11.500,39.000 19.500,39.000 19.500,39.000 C20.329,39.000 21.000,39.671 21.000,40.500 C21.000,40.500 21.000,58.151 21.000,58.151 C21.000,61.006 18.897,63.000 15.886,63.000 ZM13.000,42.000 C13.000,42.000 13.000,58.151 13.000,58.151 C13.000,59.911 14.942,60.000 15.332,60.000 C15.332,60.000 15.886,60.000 15.886,60.000 C16.675,60.000 18.000,59.760 18.000,58.151 C18.000,58.151 18.000,42.000 18.000,42.000 C18.000,42.000 13.000,42.000 13.000,42.000 Z" id="path-3" class="cls-5" fill-rule="evenodd"/>
    <path d="M26.144,42.000 C26.144,42.000 5.073,42.000 5.073,42.000 C3.112,42.000 -0.000,41.122 -0.000,38.767 C-0.000,38.767 -0.000,14.299 -0.000,14.299 C-0.000,6.815 7.438,-0.000 15.605,-0.000 C21.447,-0.000 26.761,3.732 28.834,9.288 C28.978,9.675 28.957,10.105 28.774,10.476 C28.591,10.847 28.263,11.125 27.868,11.247 C26.621,11.629 25.715,12.838 25.715,14.123 C25.715,14.738 25.857,15.607 26.533,16.256 C26.828,16.538 26.994,16.929 26.994,17.338 C26.994,17.746 26.828,18.137 26.533,18.419 C25.826,19.100 25.420,19.877 25.420,20.552 C25.420,22.060 26.394,23.319 27.684,23.478 C28.436,23.572 29.000,24.210 29.000,24.967 C29.000,24.967 29.000,38.767 29.000,38.767 C29.000,39.566 29.000,42.000 26.144,42.000 ZM3.000,38.501 C3.375,38.736 4.343,39.000 5.073,39.000 C5.073,39.000 25.997,39.000 25.997,39.000 C25.998,38.935 26.000,38.857 26.000,38.767 C26.000,38.767 26.000,26.115 26.000,26.115 C23.889,25.262 22.420,23.076 22.420,20.552 C22.420,19.435 22.816,18.308 23.554,17.287 C23.007,16.372 22.715,15.287 22.715,14.123 C22.715,12.078 23.794,10.184 25.471,9.090 C23.562,5.399 19.752,3.000 15.612,3.000 C9.126,3.000 3.000,8.491 3.000,14.299 C3.000,14.299 3.000,38.501 3.000,38.501 Z" id="path-4" class="cls-5" fill-rule="evenodd"/>
    <path d="M8.666,27.856 C7.838,27.856 7.166,27.184 7.166,26.356 C7.166,17.897 8.957,11.997 12.487,8.821 C15.382,6.218 18.391,6.505 18.518,6.516 C19.341,6.603 19.938,7.342 19.851,8.166 C19.765,8.984 19.028,9.574 18.219,9.501 C18.106,9.488 16.284,9.393 14.417,11.122 C12.478,12.916 10.166,17.017 10.166,26.356 C10.166,27.184 9.495,27.856 8.666,27.856 Z" id="path-5" class="cls-5" fill-rule="evenodd"/>
  </g>
</svg>
