<svg xmlns="http://www.w3.org/2000/svg" xmlns:xlink="http://www.w3.org/1999/xlink" preserveAspectRatio="xMidYMid" width="65" height="66" viewBox="0 0 65 66">
  <defs>
    <style>

      .cls-3 {
        fill: #53ecf4;
      }

      .cls-4 {
        fill: #000000;
      }
    </style>
  </defs>
  <g id="group-40svg">
    <path d="M64.498,35.490 C64.498,31.101 61.814,27.342 57.999,25.756 C59.575,21.937 58.814,17.380 55.711,14.277 C52.607,11.173 48.051,10.413 44.232,11.989 C42.646,8.174 38.887,5.490 34.498,5.490 C30.109,5.490 26.350,8.174 24.764,11.989 C20.945,10.413 16.389,11.173 13.285,14.277 C10.182,17.380 9.421,21.937 10.997,25.756 C7.182,27.342 4.498,31.101 4.498,35.490 C4.498,39.879 7.182,43.639 10.997,45.225 C9.421,49.043 10.182,53.600 13.285,56.704 C16.389,59.807 20.945,60.567 24.764,58.991 C26.350,62.806 30.109,65.490 34.498,65.490 C38.887,65.490 42.646,62.806 44.232,58.991 C48.051,60.567 52.607,59.807 55.711,56.704 C58.814,53.600 59.575,49.043 57.999,45.225 C61.814,43.639 64.498,39.879 64.498,35.490 ZM32.528,44.596 C31.333,44.823 30.137,44.328 29.452,43.321 C29.087,42.784 28.667,42.274 28.190,41.798 C27.715,41.322 27.204,40.901 26.667,40.536 C25.660,39.852 25.165,38.655 25.393,37.460 C25.514,36.822 25.578,36.164 25.578,35.490 C25.578,34.817 25.514,34.159 25.393,33.520 C25.165,32.325 25.660,31.129 26.667,30.444 C27.204,30.079 27.715,29.659 28.190,29.183 C28.667,28.707 29.087,28.196 29.452,27.659 C30.137,26.653 31.333,26.157 32.528,26.385 C33.166,26.506 33.824,26.570 34.498,26.570 C35.172,26.570 35.830,26.506 36.468,26.385 C37.663,26.157 38.859,26.653 39.544,27.659 C39.909,28.196 40.330,28.707 40.806,29.183 C41.281,29.659 41.792,30.079 42.329,30.444 C43.335,31.129 43.831,32.325 43.603,33.521 C43.482,34.159 43.418,34.817 43.418,35.490 C43.418,36.164 43.482,36.822 43.603,37.460 C43.831,38.655 43.336,39.852 42.329,40.536 C41.792,40.901 41.281,41.322 40.806,41.798 C40.330,42.274 39.909,42.784 39.544,43.321 C38.859,44.328 37.663,44.823 36.468,44.596 C35.830,44.474 35.172,44.410 34.498,44.410 C33.824,44.410 33.166,44.474 32.528,44.596 Z" id="path-1" class="cls-3" fill-rule="evenodd"/>
    <path d="M31.498,62.990 C27.095,62.990 23.110,60.617 20.997,56.841 C19.939,57.138 18.847,57.288 17.734,57.288 C14.519,57.288 11.497,56.037 9.225,53.764 C6.110,50.650 4.971,46.156 6.146,41.991 C2.370,39.878 -0.002,35.894 -0.002,31.490 C-0.002,27.086 2.370,23.102 6.146,20.989 C4.971,16.825 6.110,12.330 9.225,9.216 C11.497,6.944 14.519,5.692 17.734,5.692 C18.847,5.692 19.939,5.842 20.997,6.140 C23.110,2.363 27.095,-0.010 31.498,-0.010 C35.902,-0.010 39.886,2.363 41.999,6.140 C43.057,5.842 44.149,5.692 45.263,5.692 C48.478,5.692 51.499,6.944 53.771,9.216 C56.886,12.330 58.025,16.825 56.850,20.989 C60.625,23.102 62.998,27.086 62.998,31.490 C62.998,35.894 60.626,39.878 56.850,41.991 C58.025,46.156 56.886,50.650 53.771,53.764 C51.499,56.037 48.478,57.288 45.263,57.288 C45.263,57.288 45.263,57.288 45.263,57.288 C44.149,57.288 43.057,57.138 41.999,56.841 C39.886,60.618 35.902,62.990 31.498,62.990 ZM22.574,53.034 C22.574,53.034 23.148,54.415 23.148,54.415 C24.557,57.802 27.834,59.990 31.498,59.990 C35.162,59.990 38.439,57.802 39.848,54.415 C39.848,54.415 40.422,53.034 40.422,53.034 C40.422,53.034 41.805,53.604 41.805,53.604 C42.904,54.058 44.067,54.289 45.263,54.289 C47.676,54.289 49.944,53.349 51.650,51.643 C54.241,49.052 55.012,45.187 53.612,41.797 C53.612,41.797 53.042,40.413 53.042,40.413 C53.042,40.413 54.423,39.839 54.423,39.839 C57.810,38.432 59.998,35.155 59.998,31.490 C59.998,27.826 57.810,24.548 54.424,23.141 C54.424,23.141 53.042,22.567 53.042,22.567 C53.042,22.567 53.612,21.184 53.612,21.184 C55.012,17.793 54.241,13.929 51.650,11.337 C49.944,9.631 47.676,8.692 45.263,8.692 C44.067,8.692 42.904,8.922 41.805,9.376 C41.805,9.376 40.422,9.947 40.422,9.947 C40.422,9.947 39.848,8.565 39.848,8.565 C38.439,5.179 35.162,2.990 31.498,2.990 C27.834,2.990 24.557,5.179 23.148,8.565 C23.148,8.565 22.574,9.947 22.574,9.947 C22.574,9.947 21.191,9.376 21.191,9.376 C20.092,8.922 18.929,8.692 17.734,8.692 C15.320,8.692 13.052,9.631 11.346,11.337 C8.755,13.929 7.984,17.793 9.384,21.184 C9.384,21.184 9.954,22.567 9.954,22.567 C9.954,22.567 8.573,23.141 8.573,23.141 C5.186,24.548 2.998,27.826 2.998,31.490 C2.998,35.155 5.186,38.432 8.573,39.839 C8.573,39.839 9.954,40.413 9.954,40.413 C9.954,40.413 9.384,41.797 9.384,41.797 C7.984,45.187 8.755,49.052 11.346,51.643 C13.052,53.349 15.320,54.289 17.734,54.289 C18.929,54.289 20.092,54.059 21.191,53.604 C21.191,53.604 22.574,53.034 22.574,53.034 ZM34.044,42.150 C33.758,42.150 33.470,42.123 33.187,42.069 C32.082,41.859 30.920,41.859 29.809,42.069 C28.054,42.405 26.220,41.646 25.212,40.165 C24.894,39.698 24.530,39.258 24.130,38.859 C23.729,38.458 23.290,38.094 22.823,37.776 C21.328,36.760 20.581,34.955 20.919,33.180 C21.024,32.624 21.078,32.055 21.078,31.490 C21.078,30.926 21.024,30.357 20.919,29.801 C20.581,28.025 21.328,26.221 22.823,25.204 C23.290,24.887 23.729,24.523 24.129,24.123 C24.531,23.721 24.894,23.282 25.212,22.816 C26.220,21.334 28.053,20.577 29.809,20.911 C30.916,21.122 32.081,21.122 33.186,20.911 C34.951,20.578 36.776,21.334 37.784,22.815 C38.102,23.282 38.465,23.721 38.866,24.122 C39.267,24.523 39.706,24.887 40.173,25.204 C41.668,26.221 42.415,28.025 42.077,29.801 C41.972,30.357 41.918,30.926 41.918,31.490 C41.918,32.055 41.972,32.624 42.077,33.180 C42.415,34.956 41.668,36.761 40.172,37.777 C39.706,38.094 39.267,38.458 38.867,38.858 C38.466,39.258 38.103,39.698 37.784,40.165 C36.938,41.408 35.540,42.150 34.044,42.150 ZM31.498,38.910 C32.253,38.910 33.011,38.981 33.749,39.122 C34.353,39.241 34.956,38.988 35.304,38.477 C35.727,37.854 36.213,37.268 36.745,36.737 C37.277,36.204 37.863,35.719 38.485,35.296 C38.999,34.947 39.246,34.351 39.130,33.740 C38.989,32.998 38.918,32.242 38.918,31.490 C38.918,30.738 38.989,29.981 39.130,29.241 C39.246,28.630 38.999,28.034 38.485,27.684 C37.863,27.262 37.277,26.776 36.744,26.243 C36.212,25.710 35.726,25.125 35.304,24.502 C34.957,23.993 34.361,23.739 33.748,23.858 C32.273,24.140 30.724,24.140 29.247,23.858 C28.649,23.744 28.034,24.000 27.692,24.503 C27.270,25.125 26.784,25.710 26.251,26.244 C25.719,26.776 25.133,27.262 24.511,27.684 C23.997,28.034 23.750,28.630 23.866,29.241 C24.007,29.981 24.078,30.738 24.078,31.490 C24.078,32.242 24.007,32.998 23.866,33.740 C23.750,34.351 23.997,34.946 24.511,35.296 C25.133,35.719 25.719,36.204 26.252,36.738 C26.783,37.268 27.269,37.854 27.692,38.477 C28.039,38.987 28.634,39.241 29.248,39.122 C29.986,38.981 30.744,38.910 31.498,38.910 Z" id="path-2" class="cls-4" fill-rule="evenodd"/>
    <path d="M33.902,13.769 C33.902,15.147 32.785,16.264 31.407,16.264 C30.029,16.264 28.912,15.147 28.912,13.769 C28.912,12.391 30.029,11.274 31.407,11.274 C32.785,11.274 33.902,12.391 33.902,13.769 Z" id="path-3" class="cls-4" fill-rule="evenodd"/>
    <path d="M20.929,17.761 C20.929,19.139 19.811,20.256 18.434,20.256 C17.056,20.256 15.939,19.139 15.939,17.761 C15.939,16.383 17.056,15.266 18.434,15.266 C19.811,15.266 20.929,16.383 20.929,17.761 Z" id="path-4" class="cls-4" fill-rule="evenodd"/>
    <path d="M47.873,43.707 C47.873,45.085 46.757,46.203 45.379,46.203 C44.001,46.203 42.884,45.085 42.884,43.707 C42.884,42.329 44.001,41.213 45.379,41.213 C46.757,41.213 47.873,42.329 47.873,43.707 Z" id="path-5" class="cls-4" fill-rule="evenodd"/>
    <path d="M33.902,49.695 C33.902,51.073 32.785,52.190 31.407,52.190 C30.029,52.190 28.912,51.073 28.912,49.695 C28.912,48.317 30.029,47.200 31.407,47.200 C32.785,47.200 33.902,48.317 33.902,49.695 Z" id="path-6" class="cls-4" fill-rule="evenodd"/>
    <path d="M46.876,18.759 C46.876,20.137 45.759,21.254 44.381,21.254 C43.003,21.254 41.886,20.137 41.886,18.759 C41.886,17.381 43.003,16.264 44.381,16.264 C45.759,16.264 46.876,17.381 46.876,18.759 Z" id="path-7" class="cls-4" fill-rule="evenodd"/>
    <path d="M19.931,43.707 C19.931,45.085 18.813,46.203 17.436,46.203 C16.059,46.203 14.941,45.085 14.941,43.707 C14.941,42.329 16.059,41.213 17.436,41.213 C18.813,41.213 19.931,42.329 19.931,43.707 Z" id="path-8" class="cls-4" fill-rule="evenodd"/>
    <path d="M13.943,30.734 C13.943,32.112 12.826,33.229 11.448,33.229 C10.070,33.229 8.953,32.112 8.953,30.734 C8.953,29.356 10.070,28.239 11.448,28.239 C12.826,28.239 13.943,29.356 13.943,30.734 Z" id="path-9" class="cls-4" fill-rule="evenodd"/>
    <path d="M51.865,30.734 C51.865,32.112 50.748,33.229 49.371,33.229 C47.992,33.229 46.876,32.112 46.876,30.734 C46.876,29.356 47.992,28.239 49.371,28.239 C50.748,28.239 51.865,29.356 51.865,30.734 Z" id="path-10" class="cls-4" fill-rule="evenodd"/>
  </g>
</svg>
