<svg xmlns="http://www.w3.org/2000/svg" xmlns:xlink="http://www.w3.org/1999/xlink" preserveAspectRatio="xMidYMid" width="47" height="65" viewBox="0 0 47 65">
  <defs>
    <style>

      .cls-3 {
        fill: #81bda4;
      }

      .cls-4 {
        fill: #000000;
      }
    </style>
  </defs>
  <g id="group-24svg">
    <path d="M27.800,59.151 C27.800,59.151 17.925,40.038 42.772,39.720 C42.772,39.720 43.090,34.941 37.356,33.349 C37.356,33.349 54.564,29.526 42.775,15.829 C42.775,15.829 44.046,6.909 34.490,9.776 C34.490,9.776 34.757,1.175 25.863,5.954 C25.863,5.954 18.881,2.768 18.881,10.413 C18.881,10.413 10.280,11.369 12.510,17.740 C12.510,17.740 4.546,22.199 7.095,28.889 C7.095,28.889 2.635,33.985 8.687,39.401 C8.687,39.401 7.731,53.735 20.474,63.292 C20.474,63.292 29.712,67.909 27.800,59.151 Z" id="path-1" class="cls-3" fill-rule="evenodd"/>
    <path d="M21.019,63.008 C21.018,63.008 21.018,63.008 21.018,63.008 C18.622,63.008 16.084,61.774 15.803,61.634 C15.723,61.594 15.645,61.546 15.574,61.492 C3.844,52.695 3.146,40.200 3.168,37.033 C-1.344,32.602 -0.181,28.001 1.424,25.610 C-0.052,20.361 3.792,16.102 6.772,14.058 C6.393,12.097 6.922,10.664 7.492,9.758 C8.930,7.475 11.770,6.521 13.444,6.144 C13.948,1.346 17.328,0.795 18.847,0.795 C20.018,0.795 21.096,1.082 21.773,1.312 C23.543,0.435 25.082,0.008 26.462,0.008 C27.936,0.008 29.216,0.524 30.163,1.501 C31.146,2.515 31.603,3.835 31.814,4.910 C32.542,4.776 33.229,4.708 33.868,4.708 C36.416,4.708 37.887,5.786 38.672,6.691 C40.283,8.547 40.385,11.097 40.323,12.337 C43.903,16.671 45.137,20.613 43.992,24.060 C42.878,27.412 39.751,29.447 37.229,30.586 C39.754,32.535 40.371,35.289 40.269,36.819 C40.217,37.600 39.573,38.209 38.791,38.220 C31.397,38.314 26.603,40.103 24.542,43.538 C21.583,48.468 25.097,55.393 25.133,55.462 C25.193,55.579 25.238,55.703 25.266,55.831 C25.822,58.381 25.598,60.235 24.579,61.500 C24.025,62.188 22.958,63.008 21.019,63.008 ZM17.259,59.005 C17.948,59.330 19.672,60.008 21.018,60.008 C21.018,60.008 21.018,60.008 21.019,60.008 C21.623,60.008 22.034,59.877 22.243,59.618 C22.422,59.396 22.784,58.666 22.372,56.646 C21.735,55.329 18.434,47.885 21.970,41.994 C24.424,37.904 29.500,35.646 37.068,35.271 C36.698,34.121 35.688,32.553 32.955,31.794 C32.291,31.610 31.839,30.997 31.857,30.310 C31.875,29.621 32.359,29.034 33.031,28.884 C33.096,28.870 39.753,27.325 41.147,23.107 C41.975,20.603 40.794,17.474 37.638,13.807 C37.356,13.479 37.229,13.045 37.290,12.617 C37.385,11.910 37.412,9.808 36.399,8.649 C35.441,7.553 33.565,7.419 30.921,8.212 C30.458,8.351 29.958,8.259 29.576,7.965 C29.193,7.671 28.976,7.211 28.991,6.729 C29.004,6.153 28.852,4.452 28.003,3.583 C27.038,2.595 25.167,2.882 22.573,4.275 C22.161,4.497 21.668,4.513 21.241,4.318 C21.234,4.315 20.058,3.795 18.847,3.795 C18.046,3.795 16.381,3.795 16.381,7.413 C16.381,8.177 15.806,8.819 15.046,8.904 C14.005,9.024 11.068,9.701 10.028,11.361 C9.548,12.127 9.515,13.070 9.926,14.244 C10.166,14.932 9.878,15.693 9.243,16.048 C8.967,16.204 2.445,19.969 4.497,25.354 C4.694,25.873 4.589,26.458 4.224,26.876 C3.879,27.282 0.936,31.031 5.687,35.283 C6.032,35.591 6.215,36.040 6.184,36.500 C6.176,36.633 5.475,50.077 17.259,59.005 Z" id="path-2" class="cls-4" fill-rule="evenodd"/>
    <path d="M23.089,62.374 C22.709,62.374 22.330,62.231 22.038,61.943 C21.825,61.734 1.016,40.623 25.201,11.863 C25.733,11.229 26.679,11.146 27.314,11.681 C27.948,12.214 28.030,13.160 27.497,13.794 C5.138,40.383 23.358,59.028 24.145,59.808 C24.732,60.391 24.738,61.340 24.156,61.929 C23.862,62.225 23.476,62.374 23.089,62.374 Z" id="path-3" class="cls-4" fill-rule="evenodd"/>
    <path d="M28.897,24.044 C28.281,24.044 27.704,23.662 27.484,23.048 C27.016,22.497 23.723,22.090 20.746,22.277 C19.914,22.320 19.206,21.700 19.155,20.874 C19.103,20.047 19.731,19.335 20.558,19.283 C23.141,19.124 29.248,19.068 30.310,22.040 C30.588,22.819 30.182,23.678 29.401,23.956 C29.235,24.016 29.064,24.044 28.897,24.044 Z" id="path-4" class="cls-4" fill-rule="evenodd"/>
    <path d="M32.719,18.310 C32.103,18.310 31.526,17.928 31.307,17.314 C30.838,16.763 27.547,16.356 24.568,16.543 C23.731,16.589 23.029,15.967 22.977,15.140 C22.925,14.313 23.554,13.601 24.380,13.549 C26.963,13.391 33.070,13.334 34.132,16.306 C34.411,17.085 34.004,17.944 33.224,18.223 C33.057,18.282 32.887,18.310 32.719,18.310 Z" id="path-5" class="cls-4" fill-rule="evenodd"/>
    <path d="M16.622,31.090 C16.044,31.090 15.494,30.755 15.247,30.193 C15.247,30.193 11.755,22.246 11.755,22.246 C11.422,21.487 11.767,20.602 12.525,20.268 C13.286,19.937 14.169,20.281 14.502,21.039 C14.502,21.039 17.994,28.986 17.994,28.986 C18.327,29.745 17.982,30.630 17.224,30.963 C17.028,31.049 16.823,31.090 16.622,31.090 Z" id="path-6" class="cls-4" fill-rule="evenodd"/>
    <path d="M15.678,38.351 C15.265,38.351 14.853,38.182 14.557,37.850 C14.006,37.231 14.061,36.283 14.679,35.731 C14.679,35.731 19.654,31.299 19.654,31.299 C20.273,30.748 21.220,30.802 21.772,31.421 C22.323,32.039 22.268,32.988 21.650,33.539 C21.650,33.539 16.675,37.972 16.675,37.972 C16.389,38.226 16.033,38.351 15.678,38.351 Z" id="path-7" class="cls-4" fill-rule="evenodd"/>
    <path d="M15.677,47.978 C15.291,47.978 14.905,47.829 14.611,47.534 C14.611,47.534 10.151,43.031 10.151,43.031 C9.569,42.443 9.573,41.493 10.162,40.910 C10.749,40.326 11.699,40.331 12.283,40.920 C12.283,40.920 16.743,45.422 16.743,45.422 C17.326,46.011 17.321,46.961 16.733,47.544 C16.440,47.833 16.059,47.978 15.677,47.978 Z" id="path-8" class="cls-4" fill-rule="evenodd"/>
  </g>
</svg>
