<svg xmlns="http://www.w3.org/2000/svg" xmlns:xlink="http://www.w3.org/1999/xlink" preserveAspectRatio="xMidYMid" width="66" height="48" viewBox="0 0 66 48">
  <defs>
    <style>

      .cls-3 {
        fill: #53ecf4;
      }

      .cls-4 {
        fill: #e56a77;
      }

      .cls-5 {
        fill: #edc951;
      }

      .cls-6 {
        fill: #000000;
      }
    </style>
  </defs>
  <g id="group-68svg">
    <path d="M66.000,20.000 C66.000,20.000 66.000,48.000 66.000,48.000 C66.000,48.000 24.856,48.000 24.856,48.000 C20.471,48.000 6.000,47.872 6.000,38.913 C6.000,38.913 6.000,16.000 6.000,16.000 C6.000,16.000 6.000,16.000 6.000,16.000 " id="path-1" class="cls-3" fill-rule="evenodd"/>
    <path d="M66.000,24.000 C66.000,24.000 24.856,24.000 24.856,24.000 C20.471,24.000 6.000,23.227 6.000,14.269 C6.000,14.269 6.000,7.000 6.000,7.000 C6.000,7.000 49.182,7.000 49.182,7.000 C53.567,7.000 66.000,6.478 66.000,16.156 C66.000,16.156 66.000,24.000 66.000,24.000 Z" id="path-2" class="cls-4" fill-rule="evenodd"/>
    <path d="M66.000,30.000 C66.000,30.000 39.000,30.000 39.000,30.000 C39.000,30.000 39.000,40.000 39.000,40.000 C39.000,40.000 66.000,40.000 66.000,40.000 C66.000,40.000 66.000,40.000 66.000,40.000 " id="path-3" class="cls-5" fill-rule="evenodd"/>
    <path d="M61.500,20.000 C61.500,20.000 19.856,20.000 19.856,20.000 C3.445,20.000 -0.000,14.164 -0.000,9.268 C-0.000,9.268 -0.000,1.500 -0.000,1.500 C-0.000,0.672 0.672,-0.000 1.500,-0.000 C1.500,-0.000 44.182,-0.000 44.182,-0.000 C48.879,-0.000 63.000,-0.000 63.000,11.156 C63.000,11.156 63.000,18.500 63.000,18.500 C63.000,19.328 62.328,20.000 61.500,20.000 ZM3.000,3.000 C3.000,3.000 3.000,9.268 3.000,9.268 C3.000,15.658 12.167,17.000 19.856,17.000 C19.856,17.000 60.000,17.000 60.000,17.000 C60.000,17.000 60.000,11.156 60.000,11.156 C60.000,3.846 51.005,3.000 44.239,3.000 C44.239,3.000 3.000,3.000 3.000,3.000 Z" id="path-4" class="cls-6" fill-rule="evenodd"/>
    <path d="M18.629,44.002 C14.285,44.002 6.392,43.803 2.379,39.801 C0.800,38.228 -0.000,36.246 -0.000,33.913 C-0.000,33.913 -0.000,11.000 -0.000,11.000 C-0.000,10.172 0.672,9.500 1.500,9.500 C2.328,9.500 3.000,10.172 3.000,11.000 C3.000,11.000 3.000,33.913 3.000,33.913 C3.000,35.441 3.489,36.672 4.497,37.677 C7.862,41.033 15.924,41.000 19.345,41.000 C19.345,41.000 19.856,41.000 19.856,41.000 C19.856,41.000 60.000,41.000 60.000,41.000 C60.000,41.000 60.000,15.000 60.000,15.000 C60.000,14.172 60.672,13.500 61.500,13.500 C62.328,13.500 63.000,14.172 63.000,15.000 C63.000,15.000 63.000,42.500 63.000,42.500 C63.000,43.328 62.328,44.000 61.500,44.000 C61.500,44.000 19.353,44.001 19.353,44.001 C19.125,44.002 18.883,44.002 18.629,44.002 Z" id="path-5" class="cls-6" fill-rule="evenodd"/>
    <path d="M61.000,36.000 C61.000,36.000 34.500,36.000 34.500,36.000 C33.672,36.000 33.000,35.328 33.000,34.500 C33.000,34.500 33.000,24.500 33.000,24.500 C33.000,23.672 33.672,23.000 34.500,23.000 C34.500,23.000 61.000,23.000 61.000,23.000 C61.828,23.000 62.500,23.672 62.500,24.500 C62.500,25.328 61.828,26.000 61.000,26.000 C61.000,26.000 36.000,26.000 36.000,26.000 C36.000,26.000 36.000,33.000 36.000,33.000 C36.000,33.000 61.000,33.000 61.000,33.000 C61.828,33.000 62.500,33.672 62.500,34.500 C62.500,35.328 61.828,36.000 61.000,36.000 Z" id="path-6" class="cls-6" fill-rule="evenodd"/>
    <path d="M60.000,11.000 C60.000,11.000 51.000,11.000 51.000,11.000 C50.172,11.000 49.500,10.328 49.500,9.500 C49.500,8.672 50.172,8.000 51.000,8.000 C51.000,8.000 60.000,8.000 60.000,8.000 C60.828,8.000 61.500,8.672 61.500,9.500 C61.500,10.328 60.828,11.000 60.000,11.000 Z" id="path-7" class="cls-6" fill-rule="evenodd"/>
  </g>
</svg>
