<svg xmlns="http://www.w3.org/2000/svg" xmlns:xlink="http://www.w3.org/1999/xlink" preserveAspectRatio="xMidYMid" width="40" height="64" viewBox="0 0 40 64">
  <defs>
    <style>

      .cls-3 {
        fill: #8b71b5;
      }

      .cls-4 {
        fill: #53ecf4;
      }

      .cls-5 {
        fill: #000000;
      }
    </style>
  </defs>
  <g id="group-90svg">
    <path d="M35.668,28.865 C31.171,23.297 29.564,15.500 29.564,15.500 C29.564,15.500 16.182,15.500 16.182,15.500 C16.182,15.500 14.575,23.297 10.078,28.865 C10.078,28.865 5.475,64.500 5.475,64.500 C5.475,64.500 40.271,64.500 40.271,64.500 C40.271,64.500 35.668,28.865 35.668,28.865 Z" id="path-1" class="cls-3" fill-rule="evenodd"/>
    <path d="M27.437,44.500 C27.437,44.500 17.437,44.500 17.437,44.500 C17.437,44.500 17.437,33.500 17.437,33.500 C17.437,33.500 27.437,33.500 27.437,33.500 C27.437,33.500 27.437,44.500 27.437,44.500 Z" id="path-2" class="cls-4" fill-rule="evenodd"/>
    <path d="M36.271,63.500 C36.271,63.500 1.475,63.500 1.475,63.500 C1.043,63.500 0.633,63.314 0.348,62.990 C0.063,62.666 -0.068,62.235 -0.013,61.808 C-0.013,61.808 4.591,26.172 4.591,26.172 C4.626,25.897 4.737,25.638 4.911,25.422 C9.131,20.199 10.697,12.772 10.713,12.697 C10.856,12.000 11.470,11.500 12.182,11.500 C12.182,11.500 25.564,11.500 25.564,11.500 C26.275,11.500 26.889,12.000 27.033,12.696 C27.049,12.771 28.629,20.216 32.835,25.422 C33.009,25.638 33.120,25.897 33.155,26.172 C33.155,26.172 37.759,61.808 37.759,61.808 C37.814,62.235 37.683,62.666 37.398,62.990 C37.113,63.314 36.703,63.500 36.271,63.500 ZM3.181,60.500 C3.181,60.500 34.565,60.500 34.565,60.500 C34.565,60.500 30.233,26.970 30.233,26.970 C26.760,22.500 25.018,16.918 24.383,14.500 C24.383,14.500 13.363,14.500 13.363,14.500 C12.728,16.918 10.986,22.500 7.513,26.970 C7.513,26.970 3.181,60.500 3.181,60.500 Z" id="path-3" class="cls-5" fill-rule="evenodd"/>
    <path d="M23.937,43.500 C23.937,43.500 13.937,43.500 13.937,43.500 C13.109,43.500 12.437,42.828 12.437,42.000 C12.437,42.000 12.437,31.000 12.437,31.000 C12.437,30.172 13.109,29.500 13.937,29.500 C13.937,29.500 23.937,29.500 23.937,29.500 C24.766,29.500 25.437,30.172 25.437,31.000 C25.437,31.000 25.437,42.000 25.437,42.000 C25.437,42.828 24.766,43.500 23.937,43.500 ZM15.437,40.500 C15.437,40.500 22.437,40.500 22.437,40.500 C22.437,40.500 22.437,32.500 22.437,32.500 C22.437,32.500 15.437,32.500 15.437,32.500 C15.437,32.500 15.437,40.500 15.437,40.500 Z" id="path-4" class="cls-5" fill-rule="evenodd"/>
    <path d="M24.937,15.000 C24.109,15.000 23.437,14.328 23.437,13.500 C23.437,13.500 23.437,1.500 23.437,1.500 C23.437,0.672 24.109,-0.000 24.937,-0.000 C25.766,-0.000 26.437,0.672 26.437,1.500 C26.437,1.500 26.437,13.500 26.437,13.500 C26.437,14.328 25.766,15.000 24.937,15.000 Z" id="path-5" class="cls-5" fill-rule="evenodd"/>
    <path d="M12.937,15.000 C12.109,15.000 11.437,14.328 11.437,13.500 C11.437,13.500 11.437,1.500 11.437,1.500 C11.437,0.672 12.109,-0.000 12.937,-0.000 C13.766,-0.000 14.437,0.672 14.437,1.500 C14.437,1.500 14.437,13.500 14.437,13.500 C14.437,14.328 13.766,15.000 12.937,15.000 Z" id="path-6" class="cls-5" fill-rule="evenodd"/>
  </g>
</svg>
