<svg xmlns="http://www.w3.org/2000/svg" xmlns:xlink="http://www.w3.org/1999/xlink" preserveAspectRatio="xMidYMid" width="57" height="65" viewBox="0 0 57 65">
  <defs>
    <style>

      .cls-3 {
        fill: #e56a77;
      }

      .cls-4 {
        fill: #000000;
      }
    </style>
  </defs>
  <g id="group-91svg">
    <path d="M6.504,25.042 C6.504,18.474 11.197,13.007 17.412,11.797 C19.659,7.465 24.177,4.499 29.395,4.499 C34.532,4.499 38.998,7.370 41.279,11.595 C41.620,11.569 41.961,11.543 42.308,11.543 C49.764,11.543 55.808,17.587 55.808,25.042 C55.808,32.498 48.637,38.542 41.182,38.542 C41.182,38.542 41.669,56.930 41.669,56.930 C41.669,63.949 35.978,64.499 28.958,64.499 C21.937,64.499 16.247,63.949 16.247,56.930 C16.247,56.930 16.000,37.938 16.000,37.938 C16.000,37.938 6.504,32.498 6.504,25.042 Z" id="path-1" class="cls-3" fill-rule="evenodd"/>
    <path d="M23.958,62.999 C18.299,62.999 9.747,62.999 9.747,53.930 C9.747,53.930 9.511,35.781 9.511,35.781 C7.138,34.248 0.004,29.053 0.004,22.043 C0.004,15.121 4.766,9.107 11.425,7.478 C14.109,2.847 19.015,-0.001 24.395,-0.001 C29.591,-0.001 34.379,2.676 37.112,7.045 C37.178,7.043 37.242,7.043 37.308,7.043 C45.579,7.043 52.308,13.771 52.308,22.043 C52.308,29.552 45.652,36.195 37.720,36.967 C37.720,36.967 38.168,53.890 38.168,53.890 C38.169,62.999 29.617,62.999 23.958,62.999 ZM24.395,2.999 C19.900,2.999 15.819,5.485 13.744,9.488 C13.533,9.895 13.148,10.182 12.698,10.269 C7.081,11.362 3.004,16.313 3.004,22.043 C3.004,28.529 11.659,33.587 11.747,33.637 C12.206,33.901 12.493,34.389 12.500,34.918 C12.500,34.918 12.747,53.910 12.747,53.910 C12.747,59.123 16.206,59.999 23.958,59.999 C31.710,59.999 35.169,59.123 35.169,53.930 C35.169,53.930 34.683,35.582 34.683,35.582 C34.672,35.178 34.824,34.785 35.107,34.496 C35.390,34.205 35.777,34.042 36.182,34.042 C43.174,34.042 49.308,28.435 49.308,22.043 C49.308,15.426 43.925,10.043 37.308,10.043 C37.011,10.043 36.719,10.065 36.427,10.088 C35.828,10.130 35.241,9.828 34.959,9.307 C32.859,5.416 28.811,2.999 24.395,2.999 Z" id="path-2" class="cls-4" fill-rule="evenodd"/>
    <path d="M28.250,56.094 C27.422,56.094 26.750,55.422 26.750,54.594 C26.750,54.594 26.750,37.594 26.750,37.594 C26.750,36.766 27.422,36.094 28.250,36.094 C29.078,36.094 29.750,36.766 29.750,37.594 C29.750,37.594 29.750,54.594 29.750,54.594 C29.750,55.422 29.078,56.094 28.250,56.094 Z" id="path-3" class="cls-4" fill-rule="evenodd"/>
    <path d="M19.250,56.094 C18.422,56.094 17.750,55.422 17.750,54.594 C17.750,54.594 17.750,37.594 17.750,37.594 C17.750,36.766 18.422,36.094 19.250,36.094 C20.078,36.094 20.750,36.766 20.750,37.594 C20.750,37.594 20.750,54.594 20.750,54.594 C20.750,55.422 20.078,56.094 19.250,56.094 Z" id="path-4" class="cls-4" fill-rule="evenodd"/>
    <path d="M38.465,27.717 C38.146,27.717 37.825,27.616 37.553,27.407 C36.895,26.903 36.771,25.961 37.275,25.305 C40.752,20.769 36.645,16.568 36.468,16.392 C35.882,15.807 35.882,14.856 36.468,14.271 C37.054,13.685 38.003,13.685 38.589,14.271 C40.727,16.410 43.703,21.851 39.656,27.129 C39.361,27.515 38.915,27.717 38.465,27.717 Z" id="path-5" class="cls-4" fill-rule="evenodd"/>
  </g>
</svg>
