<svg xmlns="http://www.w3.org/2000/svg" xmlns:xlink="http://www.w3.org/1999/xlink" preserveAspectRatio="xMidYMid" width="56" height="66" viewBox="0 0 56 66">
  <defs>
    <style>

      .cls-3 {
        fill: #ff917b;
      }

      .cls-4 {
        fill: #edc951;
      }

      .cls-7 {
        fill: #000000;
      }
    </style>
  </defs>
  <g id="group-87svg">
    <path d="M28.187,15.532 C28.187,4.499 20.961,3.496 16.884,3.496 C12.806,3.496 5.195,4.499 5.195,15.532 C5.195,25.433 11.031,40.037 15.031,42.933 C15.031,42.933 15.031,63.531 15.031,63.531 C15.031,63.531 18.031,63.531 18.031,63.531 C18.031,63.531 18.031,42.801 18.031,42.801 C21.031,39.617 28.187,25.290 28.187,15.532 Z" id="path-1" class="cls-3" fill-rule="evenodd"/>
    <path d="M46.031,50.531 C46.031,50.531 56.031,50.531 56.031,50.531 C56.031,50.531 56.031,19.531 56.031,19.531 C56.031,19.531 46.031,19.531 46.031,19.531 C46.031,19.531 46.031,50.531 46.031,50.531 Z" id="path-2" class="cls-4" fill-rule="evenodd"/>
    <path d="M53.920,10.359 C53.920,13.257 52.590,15.604 50.948,15.604 C49.307,15.604 47.976,13.257 47.976,10.359 C47.976,7.463 49.307,5.114 50.948,5.114 C52.590,5.114 53.920,7.463 53.920,10.359 Z" id="path-3" class="cls-3" fill-rule="evenodd"/>
    <path d="M47.976,59.869 C47.976,56.973 49.307,54.624 50.948,54.624 C52.590,54.624 53.920,56.973 53.920,59.869 C53.920,62.767 52.590,65.114 50.948,65.114 C49.307,65.114 47.976,62.767 47.976,59.869 Z" id="path-4" class="cls-3" fill-rule="evenodd"/>
    <path d="M14.531,62.531 C14.531,62.531 11.531,62.531 11.531,62.531 C10.703,62.531 10.031,61.859 10.031,61.031 C10.031,61.031 10.031,41.634 10.031,41.634 C5.647,37.562 0.008,23.432 0.008,13.532 C0.008,7.357 2.264,-0.004 13.009,-0.004 C23.694,-0.004 25.937,7.357 25.937,13.532 C25.937,23.008 19.578,37.057 16.031,41.363 C16.031,41.363 16.031,61.031 16.031,61.031 C16.031,61.859 15.359,62.531 14.531,62.531 ZM13.009,2.996 C8.716,2.996 3.008,4.089 3.008,13.532 C3.008,23.335 8.957,37.218 12.411,39.718 C12.801,40.000 13.031,40.451 13.031,40.933 C13.031,40.933 13.031,40.801 13.031,40.801 C13.031,40.418 13.178,40.050 13.439,39.771 C16.272,36.766 22.937,22.869 22.937,13.532 C22.937,4.089 17.271,2.996 13.009,2.996 Z" id="path-5" class="cls-7" fill-rule="evenodd"/>
    <path d="M13.523,42.301 C13.218,42.301 12.910,42.207 12.643,42.015 C11.973,41.527 11.824,40.590 12.311,39.920 C22.673,25.635 14.269,3.626 14.183,3.405 C13.882,2.634 14.263,1.764 15.034,1.463 C15.808,1.161 16.675,1.541 16.977,2.312 C17.353,3.275 26.071,26.059 14.738,41.682 C14.445,42.086 13.987,42.301 13.523,42.301 Z" id="path-6" class="cls-7" fill-rule="evenodd"/>
    <path d="M12.857,42.301 C12.385,42.301 11.919,42.077 11.627,41.660 C0.014,25.041 8.339,2.785 8.699,1.846 C8.995,1.073 9.857,0.684 10.636,0.982 C11.409,1.278 11.796,2.145 11.501,2.919 C11.418,3.135 3.395,24.642 14.086,39.941 C14.560,40.620 14.395,41.555 13.716,42.029 C13.454,42.213 13.154,42.301 12.857,42.301 Z" id="path-7" class="cls-7" fill-rule="evenodd"/>
    <path d="M47.531,19.031 C46.703,19.031 46.031,18.359 46.031,17.531 C46.031,17.531 46.031,13.531 46.031,13.531 C46.031,12.703 46.703,12.031 47.531,12.031 C48.359,12.031 49.031,12.703 49.031,13.531 C49.031,13.531 49.031,17.531 49.031,17.531 C49.031,18.359 48.359,19.031 47.531,19.031 Z" id="path-8" class="cls-7" fill-rule="evenodd"/>
    <path d="M47.948,15.105 C45.398,15.105 43.476,12.205 43.476,8.359 C43.476,4.515 45.398,1.615 47.948,1.615 C50.497,1.615 52.420,4.515 52.420,8.359 C52.420,12.205 50.497,15.105 47.948,15.105 ZM47.948,4.615 C47.521,4.615 46.476,5.928 46.476,8.359 C46.476,10.793 47.521,12.105 47.948,12.105 C48.375,12.105 49.420,10.793 49.420,8.359 C49.420,5.928 48.375,4.615 47.948,4.615 Z" id="path-9" class="cls-7" fill-rule="evenodd"/>
    <path d="M47.948,64.615 C45.398,64.615 43.476,61.715 43.476,57.869 C43.476,54.024 45.398,51.125 47.948,51.125 C50.497,51.125 52.420,54.024 52.420,57.869 C52.420,61.715 50.497,64.615 47.948,64.615 ZM47.948,54.125 C47.521,54.125 46.476,55.437 46.476,57.869 C46.476,60.303 47.521,61.615 47.948,61.615 C48.375,61.615 49.420,60.303 49.420,57.869 C49.420,55.437 48.375,54.125 47.948,54.125 Z" id="path-10" class="cls-7" fill-rule="evenodd"/>
    <path d="M47.531,53.031 C46.703,53.031 46.031,52.359 46.031,51.531 C46.031,51.531 46.031,49.531 46.031,49.531 C46.031,48.703 46.703,48.031 47.531,48.031 C48.359,48.031 49.031,48.703 49.031,49.531 C49.031,49.531 49.031,51.531 49.031,51.531 C49.031,52.359 48.359,53.031 47.531,53.031 Z" id="path-11" class="cls-7" fill-rule="evenodd"/>
    <path d="M53.531,50.531 C53.531,50.531 42.531,50.531 42.531,50.531 C41.703,50.531 41.031,49.859 41.031,49.031 C41.031,49.031 41.031,18.031 41.031,18.031 C41.031,17.203 41.703,16.531 42.531,16.531 C42.531,16.531 53.531,16.531 53.531,16.531 C54.359,16.531 55.031,17.203 55.031,18.031 C55.031,18.031 55.031,49.031 55.031,49.031 C55.031,49.859 54.359,50.531 53.531,50.531 ZM44.031,47.531 C44.031,47.531 52.031,47.531 52.031,47.531 C52.031,47.531 52.031,19.531 52.031,19.531 C52.031,19.531 44.031,19.531 44.031,19.531 C44.031,19.531 44.031,47.531 44.031,47.531 Z" id="path-12" class="cls-7" fill-rule="evenodd"/>
  </g>
</svg>
