<svg xmlns="http://www.w3.org/2000/svg" xmlns:xlink="http://www.w3.org/1999/xlink" preserveAspectRatio="xMidYMid" width="66" height="64" viewBox="0 0 66 64">
  <defs>
    <style>

      .cls-3 {
        fill: #e56a77;
      }

      .cls-5 {
        fill: #edc951;
      }

      .cls-7 {
        fill: #000000;
      }
    </style>
  </defs>
  <g id="group-54svg">
    <path d="M19.542,54.514 C19.542,54.514 -7.001,43.896 12.906,29.962 C32.813,16.027 43.430,38.588 43.430,38.588 C43.430,38.588 52.538,67.022 38.121,63.140 C32.049,61.504 19.542,54.514 19.542,54.514 Z" id="path-1" class="cls-3" fill-rule="evenodd"/>
    <path d="M43.284,39.551 C72.577,26.240 64.738,16.759 64.738,16.759 C64.738,16.759 64.738,-3.178 37.963,5.850 C11.188,14.879 16.411,27.668 16.411,27.668 C16.411,27.668 16.411,27.668 16.411,27.668 " id="path-2" class="cls-3" fill-rule="evenodd"/>
    <path d="M21.830,49.684 C21.830,49.684 3.674,42.421 17.291,32.888 C30.909,23.356 38.171,38.789 38.171,38.789 C38.171,38.789 44.401,58.240 34.540,55.584 C30.386,54.466 21.830,49.684 21.830,49.684 Z" id="path-3" class="cls-5" fill-rule="evenodd"/>
    <path d="M24.002,46.242 C24.002,46.242 14.932,42.613 21.734,37.852 C28.537,33.090 32.165,40.800 32.165,40.800 C32.165,40.800 35.277,50.517 30.351,49.189 C28.276,48.631 24.002,46.242 24.002,46.242 Z" id="path-4" class="cls-3" fill-rule="evenodd"/>
    <path d="M27.200,48.814 C26.811,48.814 26.395,48.756 25.961,48.639 C23.866,48.073 20.078,46.000 19.351,45.596 C18.496,45.240 14.119,43.262 13.731,39.916 C13.512,38.017 14.569,36.236 16.874,34.623 C18.603,33.413 20.332,32.799 22.014,32.799 C26.943,32.799 29.419,37.942 29.522,38.161 C29.550,38.220 29.574,38.281 29.594,38.342 C30.087,39.885 31.561,45.106 29.789,47.536 C29.187,48.360 28.268,48.814 27.200,48.814 ZM22.014,35.799 C20.960,35.799 19.810,36.230 18.595,37.081 C17.845,37.605 16.603,38.627 16.712,39.572 C16.870,40.936 19.420,42.393 20.559,42.849 C20.619,42.873 20.677,42.900 20.734,42.932 C21.878,43.572 25.188,45.323 26.741,45.742 C27.235,45.875 27.340,45.797 27.340,45.797 C27.873,45.402 27.711,42.373 26.770,39.365 C26.502,38.852 24.788,35.799 22.014,35.799 Z" id="path-5" class="cls-7" fill-rule="evenodd"/>
    <path d="M32.240,55.333 C31.594,55.333 30.891,55.231 30.150,55.032 C26.037,53.925 18.122,49.561 17.179,49.037 C16.116,48.598 7.463,44.838 6.771,38.852 C6.400,35.641 8.304,32.548 12.431,29.659 C15.634,27.417 18.806,26.280 21.857,26.280 C30.782,26.280 35.339,35.748 35.529,36.150 C35.556,36.210 35.580,36.269 35.600,36.332 C36.007,37.604 39.487,48.897 36.207,53.391 C35.280,54.661 33.908,55.333 32.240,55.333 ZM21.857,29.280 C19.434,29.280 16.841,30.234 14.151,32.117 C10.997,34.325 9.517,36.474 9.751,38.507 C10.182,42.230 16.131,45.389 18.387,46.291 C18.447,46.314 18.505,46.342 18.562,46.373 C18.646,46.420 27.003,51.078 30.930,52.136 C31.417,52.267 31.857,52.333 32.240,52.333 C33.149,52.333 33.543,51.953 33.784,51.623 C35.573,49.172 34.126,41.618 32.776,37.351 C32.357,36.522 28.497,29.280 21.857,29.280 Z" id="path-6" class="cls-7" fill-rule="evenodd"/>
    <path d="M36.605,63.004 C35.723,63.004 34.756,62.864 33.731,62.588 C27.743,60.976 16.083,54.531 14.892,53.869 C13.576,53.328 1.040,47.967 0.063,39.522 C-0.448,35.102 2.238,30.799 8.046,26.733 C12.610,23.538 17.113,21.918 21.428,21.918 C34.041,21.918 40.518,35.377 40.787,35.949 C40.814,36.009 40.838,36.068 40.858,36.131 C41.443,37.957 46.439,54.156 41.847,60.449 C40.627,62.121 38.815,63.004 36.605,63.004 ZM21.428,24.918 C17.740,24.918 13.817,26.355 9.767,29.191 C4.931,32.576 2.669,35.935 3.043,39.179 C3.712,44.959 12.694,49.760 16.099,51.121 C16.159,51.144 16.217,51.173 16.274,51.204 C16.397,51.273 28.688,58.123 34.511,59.691 C36.854,60.322 38.441,60.025 39.423,58.682 C42.536,54.418 39.506,41.797 38.034,37.148 C37.503,36.088 31.666,24.918 21.428,24.918 Z" id="path-7" class="cls-7" fill-rule="evenodd"/>
    <path d="M39.285,39.052 C38.714,39.052 38.169,38.725 37.918,38.172 C37.575,37.418 37.909,36.528 38.663,36.186 C55.493,28.538 59.257,22.404 60.003,19.429 C60.593,17.074 59.607,15.749 59.565,15.694 C59.365,15.433 59.238,15.089 59.238,14.759 C59.238,14.703 59.148,8.614 54.471,5.276 C50.204,2.231 43.465,2.229 34.442,5.272 C21.094,9.773 16.227,15.115 14.494,18.804 C12.800,22.410 13.763,25.006 13.805,25.115 C14.100,25.882 13.725,26.752 12.960,27.055 C12.196,27.356 11.333,26.996 11.022,26.235 C10.960,26.083 9.525,22.454 11.714,17.666 C14.548,11.472 21.872,6.345 33.483,2.429 C43.493,-0.945 51.150,-0.802 56.246,2.857 C61.363,6.532 62.111,12.507 62.220,14.267 C62.879,15.350 63.552,17.394 62.957,19.977 C61.509,26.251 53.753,32.623 39.904,38.917 C39.703,39.008 39.492,39.052 39.285,39.052 Z" id="path-8" class="cls-7" fill-rule="evenodd"/>
    <path d="M47.277,35.022 C47.114,35.022 46.948,34.996 46.785,34.939 C46.002,34.667 45.588,33.812 45.861,33.030 C47.091,29.493 44.812,25.161 44.789,25.118 C44.756,25.057 44.727,24.994 44.702,24.929 C39.870,12.138 17.818,14.062 17.594,14.082 C16.778,14.168 16.038,13.555 15.960,12.729 C15.882,11.905 16.488,11.173 17.313,11.096 C18.310,11.000 41.781,8.968 47.475,23.779 C47.879,24.559 50.271,29.480 48.694,34.015 C48.478,34.635 47.898,35.022 47.277,35.022 Z" id="path-9" class="cls-7" fill-rule="evenodd"/>
  </g>
</svg>
