<svg xmlns="http://www.w3.org/2000/svg" xmlns:xlink="http://www.w3.org/1999/xlink" preserveAspectRatio="xMidYMid" width="66" height="65" viewBox="0 0 66 65">
  <defs>
    <style>

      .cls-3 {
        fill: #81bda4;
      }

      .cls-4 {
        fill: #e56a77;
      }

      .cls-5 {
        fill: #000000;
      }
    </style>
  </defs>
  <g id="group-47svg">
    <path d="M65.507,34.507 C65.507,51.075 52.075,64.507 35.507,64.507 C18.938,64.507 5.507,51.075 5.507,34.507 C5.507,17.938 18.938,4.507 35.507,4.507 C52.075,4.507 65.507,17.938 65.507,34.507 Z" id="path-1" class="cls-3" fill-rule="evenodd"/>
    <path d="M56.848,34.507 C56.848,46.292 47.293,55.847 35.507,55.847 C23.722,55.847 14.167,46.292 14.167,34.507 C14.167,22.721 23.722,13.166 35.507,13.166 C47.293,13.166 56.848,22.721 56.848,34.507 Z" id="path-2" class="cls-4" fill-rule="evenodd"/>
    <path d="M31.507,54.347 C18.913,54.347 8.667,44.101 8.667,31.507 C8.667,18.913 18.913,8.666 31.507,8.666 C44.102,8.666 54.348,18.913 54.348,31.507 C54.348,44.101 44.102,54.347 31.507,54.347 ZM31.507,11.666 C20.567,11.666 11.667,20.567 11.667,31.507 C11.667,42.447 20.567,51.347 31.507,51.347 C42.447,51.347 51.348,42.447 51.348,31.507 C51.348,20.567 42.447,11.666 31.507,11.666 Z" id="path-3" class="cls-5" fill-rule="evenodd"/>
    <path d="M31.507,63.007 C14.138,63.007 0.007,48.876 0.007,31.507 C0.007,14.138 14.138,0.007 31.507,0.007 C48.876,0.007 63.007,14.138 63.007,31.507 C63.007,48.876 48.876,63.007 31.507,63.007 ZM31.507,3.007 C15.792,3.007 3.007,15.792 3.007,31.507 C3.007,47.222 15.792,60.007 31.507,60.007 C47.222,60.007 60.007,47.222 60.007,31.507 C60.007,15.792 47.222,3.007 31.507,3.007 Z" id="path-4" class="cls-5" fill-rule="evenodd"/>
    <path d="M39.536,24.801 C38.708,24.801 38.036,24.129 38.036,23.301 C38.036,21.488 35.469,21.097 35.359,21.081 C34.543,20.963 33.971,20.207 34.084,19.390 C34.196,18.572 34.947,18.000 35.764,18.108 C37.587,18.352 41.036,19.749 41.036,23.301 C41.036,24.129 40.364,24.801 39.536,24.801 Z" id="path-5" class="cls-5" fill-rule="evenodd"/>
    <path d="M16.507,37.507 C15.679,37.507 15.007,36.835 15.007,36.007 C15.007,32.455 18.456,31.057 20.279,30.814 C21.098,30.708 21.855,31.281 21.965,32.102 C22.073,32.922 21.500,33.674 20.682,33.787 C20.554,33.806 18.007,34.201 18.007,36.007 C18.007,36.835 17.335,37.507 16.507,37.507 Z" id="path-6" class="cls-5" fill-rule="evenodd"/>
    <path d="M34.640,46.110 C33.812,46.110 33.140,45.438 33.140,44.610 C33.140,43.781 33.812,43.110 34.640,43.110 C36.481,43.110 36.855,40.467 36.859,40.440 C36.969,39.619 37.722,39.047 38.544,39.152 C39.365,39.262 39.942,40.017 39.832,40.838 C39.589,42.661 38.190,46.110 34.640,46.110 Z" id="path-7" class="cls-5" fill-rule="evenodd"/>
    <path d="M43.107,35.389 C42.821,35.389 42.532,35.308 42.276,35.137 C42.276,35.137 38.704,32.755 38.704,32.755 C38.015,32.295 37.828,31.364 38.288,30.675 C38.747,29.985 39.679,29.800 40.368,30.259 C40.368,30.259 43.940,32.641 43.940,32.641 C44.630,33.101 44.816,34.032 44.356,34.721 C44.067,35.155 43.592,35.389 43.107,35.389 Z" id="path-8" class="cls-5" fill-rule="evenodd"/>
    <path d="M26.166,22.683 C25.880,22.683 25.591,22.601 25.335,22.431 C25.335,22.431 21.764,20.049 21.764,20.049 C21.074,19.589 20.888,18.658 21.348,17.968 C21.808,17.279 22.739,17.094 23.428,17.553 C23.428,17.553 26.999,19.935 26.999,19.935 C27.688,20.395 27.875,21.326 27.415,22.016 C27.126,22.449 26.650,22.683 26.166,22.683 Z" id="path-9" class="cls-5" fill-rule="evenodd"/>
    <path d="M32.519,34.330 C32.232,34.330 31.943,34.248 31.687,34.078 C31.687,34.078 28.116,31.696 28.116,31.696 C27.427,31.236 27.240,30.305 27.700,29.615 C28.160,28.926 29.091,28.741 29.780,29.200 C29.780,29.200 33.352,31.582 33.352,31.582 C34.041,32.042 34.228,32.973 33.768,33.663 C33.478,34.096 33.003,34.330 32.519,34.330 Z" id="path-10" class="cls-5" fill-rule="evenodd"/>
    <path d="M28.786,39.784 C28.786,40.661 28.075,41.372 27.198,41.372 C26.320,41.372 25.609,40.661 25.609,39.784 C25.609,38.907 26.320,38.195 27.198,38.195 C28.075,38.195 28.786,38.907 28.786,39.784 Z" id="path-11" class="cls-5" fill-rule="evenodd"/>
    <path d="M33.021,17.548 C33.021,18.426 32.311,19.137 31.433,19.137 C30.556,19.137 29.845,18.426 29.845,17.548 C29.845,16.671 30.556,15.960 31.433,15.960 C32.311,15.960 33.021,16.671 33.021,17.548 Z" id="path-12" class="cls-5" fill-rule="evenodd"/>
    <path d="M48.903,29.195 C48.903,30.073 48.192,30.784 47.315,30.784 C46.438,30.784 45.727,30.073 45.727,29.195 C45.727,28.318 46.438,27.607 47.315,27.607 C48.192,27.607 48.903,28.318 48.903,29.195 Z" id="path-13" class="cls-5" fill-rule="evenodd"/>
    <path d="M20.315,27.078 C20.315,27.955 19.604,28.666 18.728,28.666 C17.850,28.666 17.139,27.955 17.139,27.078 C17.139,26.201 17.850,25.490 18.728,25.490 C19.604,25.490 20.315,26.201 20.315,27.078 Z" id="path-14" class="cls-5" fill-rule="evenodd"/>
  </g>
</svg>
