<svg xmlns="http://www.w3.org/2000/svg" xmlns:xlink="http://www.w3.org/1999/xlink" preserveAspectRatio="xMidYMid" width="27" height="64" viewBox="0 0 27 64">
  <defs>
    <style>

      .cls-3 {
        fill: #e56a77;
      }

      .cls-4 {
        fill: #edc951;
      }

      .cls-5 {
        fill: #000000;
      }
    </style>
  </defs>
  <g id="group-78svg">
    <path d="M19.000,14.000 C19.000,14.000 13.000,14.000 13.000,14.000 C13.000,14.000 13.000,22.016 13.000,22.016 C13.000,22.016 5.000,28.668 5.000,28.668 C5.000,28.668 5.000,64.000 5.000,64.000 C5.000,64.000 16.773,64.000 16.773,64.000 C16.773,64.000 27.000,64.000 27.000,64.000 C27.000,64.000 27.000,28.668 27.000,28.668 C27.000,28.668 19.000,22.016 19.000,22.016 C19.000,22.016 19.000,14.000 19.000,14.000 Z" id="path-1" class="cls-3" fill-rule="evenodd"/>
    <path d="M16.231,49.000 C16.231,49.000 5.000,49.000 5.000,49.000 C5.000,49.000 5.000,42.000 5.000,42.000 C5.000,42.000 15.981,42.000 15.981,42.000 C17.224,42.000 17.000,43.105 17.000,44.348 C17.000,44.348 17.000,47.734 17.000,47.734 C17.000,48.839 17.336,49.000 16.231,49.000 Z" id="path-2" class="cls-4" fill-rule="evenodd"/>
    <path d="M23.500,63.000 C23.500,63.000 1.500,63.000 1.500,63.000 C0.672,63.000 -0.000,62.328 -0.000,61.500 C-0.000,61.500 -0.000,26.668 -0.000,26.668 C-0.000,26.223 0.198,25.800 0.541,25.515 C0.541,25.515 8.000,19.312 8.000,19.312 C8.000,19.312 8.000,1.500 8.000,1.500 C8.000,0.672 8.672,-0.000 9.500,-0.000 C9.500,-0.000 15.500,-0.000 15.500,-0.000 C16.328,-0.000 17.000,0.672 17.000,1.500 C17.000,1.500 17.000,19.312 17.000,19.312 C17.000,19.312 24.459,25.515 24.459,25.515 C24.802,25.800 25.000,26.223 25.000,26.668 C25.000,26.668 25.000,61.500 25.000,61.500 C25.000,62.328 24.328,63.000 23.500,63.000 ZM3.000,60.000 C3.000,60.000 22.000,60.000 22.000,60.000 C22.000,60.000 22.000,27.371 22.000,27.371 C22.000,27.371 14.541,21.169 14.541,21.169 C14.198,20.884 14.000,20.461 14.000,20.016 C14.000,20.016 14.000,3.000 14.000,3.000 C14.000,3.000 11.000,3.000 11.000,3.000 C11.000,3.000 11.000,20.016 11.000,20.016 C11.000,20.461 10.802,20.884 10.459,21.169 C10.459,21.169 3.000,27.371 3.000,27.371 C3.000,27.371 3.000,60.000 3.000,60.000 Z" id="path-3" class="cls-5" fill-rule="evenodd"/>
    <path d="M15.000,15.000 C15.000,15.000 10.000,15.000 10.000,15.000 C9.172,15.000 8.500,14.328 8.500,13.500 C8.500,12.672 9.172,12.000 10.000,12.000 C10.000,12.000 15.000,12.000 15.000,12.000 C15.828,12.000 16.500,12.672 16.500,13.500 C16.500,14.328 15.828,15.000 15.000,15.000 Z" id="path-4" class="cls-5" fill-rule="evenodd"/>
    <path d="M13.126,48.049 C13.014,48.049 12.879,48.040 12.719,48.025 C12.590,48.015 12.430,48.000 12.231,48.000 C12.231,48.000 1.500,48.000 1.500,48.000 C0.672,48.000 -0.000,47.328 -0.000,46.500 C-0.000,46.500 -0.000,39.500 -0.000,39.500 C-0.000,38.672 0.672,38.000 1.500,38.000 C1.500,38.000 11.981,38.000 11.981,38.000 C12.689,38.000 15.000,38.313 15.000,42.348 C15.000,42.348 15.000,45.734 15.000,45.734 C15.000,47.748 13.826,48.049 13.126,48.049 ZM3.000,45.000 C3.000,45.000 12.000,45.000 12.000,45.000 C12.000,45.000 12.000,42.348 12.000,42.348 C12.000,41.617 11.888,41.190 11.809,41.000 C11.809,41.000 3.000,41.000 3.000,41.000 C3.000,41.000 3.000,45.000 3.000,45.000 Z" id="path-5" class="cls-5" fill-rule="evenodd"/>
  </g>
</svg>
