<svg xmlns="http://www.w3.org/2000/svg" xmlns:xlink="http://www.w3.org/1999/xlink" preserveAspectRatio="xMidYMid" width="66" height="57" viewBox="0 0 66 57">
  <defs>
    <style>

      .cls-3 {
        fill: #edc951;
      }

      .cls-5 {
        fill: #e56a77;
      }

      .cls-6 {
        fill: #000000;
      }
    </style>
  </defs>
  <g id="group-48svg">
    <path d="M33.009,30.007 C33.009,30.007 56.605,17.904 56.605,17.904 C52.206,9.345 43.295,3.485 33.009,3.485 C18.361,3.485 6.487,15.359 6.487,30.007 C6.487,44.654 18.361,56.528 33.009,56.528 C42.499,56.528 50.821,51.539 55.507,44.045 C55.507,44.045 33.009,30.007 33.009,30.007 Z" id="path-1" class="cls-3" fill-rule="evenodd"/>
    <path d="M43.752,30.023 C43.752,30.023 63.907,19.686 63.907,19.686 C63.907,19.686 70.296,30.023 62.968,42.013 C62.968,42.013 43.752,30.023 43.752,30.023 Z" id="path-2" class="cls-3" fill-rule="evenodd"/>
    <path d="M32.057,30.007 C32.057,30.007 40.295,25.782 40.295,25.782 C38.759,22.793 35.647,20.748 32.057,20.748 C26.943,20.748 22.798,24.893 22.798,30.007 C22.798,35.120 26.943,39.266 32.057,39.266 C35.370,39.266 38.275,37.524 39.911,34.908 C39.911,34.908 32.057,30.007 32.057,30.007 Z" id="path-3" class="cls-5" fill-rule="evenodd"/>
    <path d="M10.029,24.253 C9.935,24.253 9.838,24.244 9.741,24.226 C8.928,24.067 8.396,23.280 8.555,22.467 C9.176,19.268 12.510,18.614 14.184,18.710 C15.011,18.759 15.642,19.469 15.592,20.296 C15.543,21.121 14.820,21.742 14.014,21.705 C13.906,21.696 11.774,21.623 11.500,23.039 C11.360,23.755 10.732,24.253 10.029,24.253 Z" id="path-4" class="cls-6" fill-rule="evenodd"/>
    <path d="M20.899,13.023 C20.519,13.023 20.137,12.879 19.845,12.590 C19.845,12.590 17.148,9.923 17.148,9.923 C16.560,9.340 16.554,8.391 17.137,7.802 C17.718,7.212 18.669,7.207 19.258,7.790 C19.258,7.790 21.954,10.457 21.954,10.457 C22.543,11.040 22.549,11.989 21.966,12.578 C21.673,12.875 21.286,13.023 20.899,13.023 Z" id="path-5" class="cls-6" fill-rule="evenodd"/>
    <path d="M27.455,9.525 C27.308,10.286 26.571,10.783 25.810,10.635 C25.050,10.487 24.553,9.751 24.701,8.990 C24.849,8.229 25.585,7.733 26.346,7.880 C27.106,8.028 27.603,8.764 27.455,9.525 Z" id="path-6" class="cls-6" fill-rule="evenodd"/>
    <path d="M14.833,15.650 C14.686,16.411 13.949,16.908 13.188,16.761 C12.428,16.613 11.931,15.877 12.078,15.116 C12.226,14.355 12.962,13.858 13.723,14.006 C14.483,14.154 14.980,14.890 14.833,15.650 Z" id="path-7" class="cls-6" fill-rule="evenodd"/>
    <path d="M30.125,49.779 C27.247,49.779 25.778,47.044 25.392,45.510 C25.189,44.707 25.678,43.892 26.480,43.690 C27.285,43.489 28.095,43.972 28.300,44.771 C28.328,44.879 28.880,46.927 30.327,46.767 C31.170,46.671 31.894,47.264 31.988,48.087 C32.082,48.910 31.491,49.653 30.669,49.748 C30.482,49.769 30.301,49.779 30.125,49.779 Z" id="path-8" class="cls-6" fill-rule="evenodd"/>
    <path d="M14.784,46.142 C14.554,46.142 14.319,46.088 14.100,45.976 C13.363,45.597 13.072,44.693 13.451,43.956 C13.451,43.956 15.184,40.582 15.184,40.582 C15.561,39.846 16.465,39.556 17.203,39.933 C17.939,40.311 18.230,41.216 17.852,41.953 C17.852,41.953 16.119,45.326 16.119,45.326 C15.853,45.844 15.328,46.142 14.784,46.142 Z" id="path-9" class="cls-6" fill-rule="evenodd"/>
    <path d="M12.640,35.617 C13.409,35.528 14.104,36.081 14.192,36.851 C14.281,37.621 13.728,38.316 12.958,38.404 C12.188,38.492 11.493,37.940 11.405,37.170 C11.316,36.400 11.869,35.705 12.640,35.617 Z" id="path-10" class="cls-6" fill-rule="evenodd"/>
    <path d="M9.457,29.251 C10.227,29.163 10.922,29.716 11.010,30.486 C11.099,31.256 10.546,31.951 9.775,32.039 C9.006,32.127 8.311,31.575 8.223,30.805 C8.135,30.035 8.687,29.339 9.457,29.251 Z" id="path-11" class="cls-6" fill-rule="evenodd"/>
    <path d="M22.278,45.811 C23.049,45.723 23.744,46.276 23.832,47.046 C23.920,47.815 23.367,48.511 22.598,48.599 C21.828,48.687 21.132,48.135 21.044,47.365 C20.956,46.595 21.509,45.899 22.278,45.811 Z" id="path-12" class="cls-6" fill-rule="evenodd"/>
    <path d="M28.009,56.028 C12.558,56.028 -0.013,43.458 -0.013,28.007 C-0.013,12.556 12.558,-0.015 28.009,-0.015 C38.557,-0.015 48.109,5.822 52.939,15.219 C53.121,15.573 53.155,15.984 53.033,16.363 C52.912,16.742 52.644,17.057 52.290,17.239 C52.290,17.239 31.047,28.134 31.047,28.134 C31.047,28.134 51.301,40.772 51.301,40.772 C51.639,40.983 51.879,41.319 51.969,41.707 C52.058,42.095 51.989,42.502 51.778,42.840 C46.616,51.098 37.729,56.028 28.009,56.028 ZM28.009,2.985 C14.212,2.985 2.987,14.210 2.987,28.007 C2.987,41.804 14.212,53.028 28.009,53.028 C36.186,53.028 43.703,49.120 48.402,42.499 C48.402,42.499 27.215,29.279 27.215,29.279 C26.757,28.994 26.487,28.483 26.510,27.944 C26.533,27.404 26.844,26.918 27.324,26.672 C27.324,26.672 49.546,15.275 49.546,15.275 C45.046,7.657 36.925,2.985 28.009,2.985 Z" id="path-13" class="cls-6" fill-rule="evenodd"/>
    <path d="M27.057,38.766 C21.124,38.766 16.298,33.939 16.298,28.007 C16.298,22.074 21.124,17.248 27.057,17.248 C31.106,17.248 34.774,19.489 36.629,23.096 C36.810,23.450 36.845,23.862 36.723,24.241 C36.602,24.620 36.334,24.934 35.979,25.116 C35.979,25.116 30.095,28.134 30.095,28.134 C30.095,28.134 35.705,31.635 35.705,31.635 C36.043,31.846 36.283,32.182 36.373,32.570 C36.462,32.958 36.394,33.365 36.183,33.703 C34.201,36.873 30.789,38.766 27.057,38.766 ZM27.057,20.248 C22.778,20.248 19.298,23.728 19.298,28.007 C19.298,32.285 22.778,35.766 27.057,35.766 C29.238,35.766 31.269,34.868 32.722,33.309 C32.722,33.309 26.263,29.279 26.263,29.279 C25.805,28.994 25.535,28.483 25.558,27.944 C25.581,27.404 25.892,26.918 26.372,26.672 C26.372,26.672 33.146,23.198 33.146,23.198 C31.691,21.350 29.468,20.248 27.057,20.248 Z" id="path-14" class="cls-6" fill-rule="evenodd"/>
    <path d="M57.968,41.513 C57.689,41.513 57.414,41.435 57.174,41.285 C57.174,41.285 37.958,29.296 37.958,29.296 C37.500,29.010 37.230,28.500 37.253,27.960 C37.276,27.421 37.587,26.935 38.067,26.689 C38.067,26.689 58.223,16.352 58.223,16.352 C58.918,15.994 59.771,16.232 60.184,16.897 C60.464,17.351 66.968,28.164 59.248,40.795 C59.039,41.136 58.702,41.380 58.312,41.473 C58.199,41.499 58.083,41.513 57.968,41.513 ZM41.790,28.151 C41.790,28.151 57.439,37.915 57.439,37.915 C61.840,29.634 59.520,22.489 58.261,19.704 C58.261,19.704 41.790,28.151 41.790,28.151 Z" id="path-15" class="cls-6" fill-rule="evenodd"/>
  </g>
</svg>
