<svg xmlns="http://www.w3.org/2000/svg" xmlns:xlink="http://www.w3.org/1999/xlink" preserveAspectRatio="xMidYMid" width="62" height="65" viewBox="0 0 62 65">
  <defs>
    <style>

      .cls-3 {
        fill: #e56a77;
      }

      .cls-4 {
        fill: #81bda4;
      }

      .cls-5 {
        fill: #000000;
      }
    </style>
  </defs>
  <g id="group-23svg">
    <path d="M61.150,37.578 C61.150,52.666 48.918,64.897 33.830,64.897 C18.742,64.897 6.510,52.666 6.510,37.578 C6.510,22.489 18.742,10.258 33.830,10.258 C48.918,10.258 61.150,22.489 61.150,37.578 Z" id="path-1" class="cls-3" fill-rule="evenodd"/>
    <path d="M53.715,15.000 C51.294,11.000 38.931,10.432 38.931,10.432 C38.931,10.432 39.190,5.000 39.190,5.000 C39.190,5.000 34.003,5.000 34.003,5.000 C34.003,5.000 29.334,5.000 29.334,5.000 C29.334,5.000 29.594,10.432 29.594,10.432 C29.594,10.432 17.230,11.000 14.810,15.000 C14.810,15.000 25.185,15.000 25.185,15.000 C25.185,15.000 19.651,24.646 19.651,24.646 C19.651,24.646 29.767,21.256 29.767,21.256 C29.767,21.256 34.003,35.122 34.003,35.122 C34.003,35.122 38.498,21.307 38.498,21.307 C38.498,21.307 48.873,24.638 48.873,24.638 C48.873,24.638 43.340,15.000 43.340,15.000 C43.340,15.000 53.715,15.000 53.715,15.000 Z" id="path-2" class="cls-4" fill-rule="evenodd"/>
    <path d="M28.830,63.397 C12.939,63.397 0.010,50.469 0.010,34.578 C0.010,18.686 12.939,5.758 28.830,5.758 C44.721,5.758 57.650,18.686 57.650,34.578 C57.650,50.469 44.721,63.397 28.830,63.397 ZM28.830,8.758 C14.593,8.758 3.010,20.340 3.010,34.578 C3.010,48.815 14.593,60.397 28.830,60.397 C43.067,60.397 54.650,48.815 54.650,34.578 C54.650,20.340 43.067,8.758 28.830,8.758 Z" id="path-3" class="cls-5" fill-rule="evenodd"/>
    <path d="M29.003,34.000 C28.998,34.000 28.993,34.000 28.988,34.000 C28.333,34.000 27.758,33.343 27.568,32.717 C27.568,32.717 23.775,20.137 23.775,20.137 C23.775,20.137 15.112,22.878 15.112,22.878 C14.525,23.068 13.882,22.851 13.491,22.374 C13.100,21.897 13.041,21.216 13.342,20.678 C13.342,20.678 17.627,13.000 17.627,13.000 C17.627,13.000 9.810,13.000 9.810,13.000 C9.269,13.000 8.769,12.708 8.503,12.237 C8.237,11.765 8.247,11.186 8.527,10.724 C10.827,6.922 19.232,5.831 23.025,5.529 C23.025,5.529 22.836,1.571 22.836,1.571 C22.816,1.162 22.966,0.762 23.249,0.465 C23.532,0.168 23.924,-0.000 24.334,-0.000 C24.334,-0.000 34.190,-0.000 34.190,-0.000 C34.601,-0.000 34.993,0.168 35.276,0.465 C35.559,0.762 35.708,1.162 35.688,1.572 C35.688,1.572 35.499,5.529 35.499,5.529 C39.292,5.831 47.698,6.922 49.998,10.723 C50.278,11.186 50.288,11.765 50.021,12.236 C49.756,12.708 49.256,13.000 48.715,13.000 C48.715,13.000 40.900,13.000 40.900,13.000 C40.900,13.000 45.075,20.448 45.075,20.448 C45.274,20.703 45.393,21.087 45.393,21.436 C45.393,22.265 44.722,23.000 43.893,23.000 C43.887,23.000 43.880,23.000 43.873,23.000 C43.730,23.000 43.585,22.915 43.444,22.873 C43.444,22.873 34.471,20.163 34.471,20.163 C34.471,20.163 30.429,32.761 30.429,32.761 C30.227,33.379 29.652,34.000 29.003,34.000 ZM24.767,16.631 C25.006,16.631 25.245,16.688 25.461,16.802 C25.818,16.988 26.084,17.309 26.202,17.694 C26.202,17.694 29.053,27.069 29.053,27.069 C29.053,27.069 32.072,17.810 32.072,17.810 C32.325,17.038 33.147,16.606 33.928,16.838 C33.928,16.838 40.754,18.876 40.754,18.876 C40.754,18.876 37.031,12.233 37.031,12.233 C36.771,11.769 36.776,11.201 37.045,10.742 C37.315,10.282 37.807,10.000 38.340,10.000 C38.340,10.000 43.438,10.000 43.438,10.000 C40.552,9.100 36.742,8.564 33.861,8.431 C33.464,8.412 33.089,8.236 32.821,7.942 C32.553,7.647 32.414,7.258 32.433,6.860 C32.433,6.860 32.617,3.000 32.617,3.000 C32.617,3.000 25.908,3.000 25.908,3.000 C25.908,3.000 26.092,6.861 26.092,6.861 C26.111,7.258 25.971,7.647 25.703,7.942 C25.435,8.236 25.060,8.412 24.663,8.431 C21.782,8.564 17.973,9.100 15.086,10.000 C15.086,10.000 20.185,10.000 20.185,10.000 C20.717,10.000 21.209,10.282 21.478,10.741 C21.747,11.200 21.753,11.768 21.494,12.232 C21.494,12.232 17.824,18.796 17.824,18.796 C17.824,18.796 24.306,16.704 24.306,16.704 C24.456,16.655 24.612,16.631 24.767,16.631 Z" id="path-4" class="cls-5" fill-rule="evenodd"/>
    <path d="M26.462,56.309 C26.364,56.309 26.265,56.299 26.165,56.279 C12.458,53.526 8.510,37.168 8.349,36.473 C8.162,35.666 8.663,34.862 9.470,34.674 C10.277,34.485 11.082,34.987 11.271,35.793 C11.306,35.944 14.957,50.968 26.756,53.337 C27.568,53.500 28.094,54.291 27.931,55.103 C27.788,55.816 27.162,56.309 26.462,56.309 Z" id="path-5" class="cls-5" fill-rule="evenodd"/>
  </g>
</svg>
