<svg xmlns="http://www.w3.org/2000/svg" xmlns:xlink="http://www.w3.org/1999/xlink" preserveAspectRatio="xMidYMid" width="40" height="65" viewBox="0 0 40 65">
  <defs>
    <style>

      .cls-3 {
        fill: #e56a77;
      }

      .cls-4 {
        fill: #edc951;
      }

      .cls-5 {
        fill: #000000;
      }
    </style>
  </defs>
  <g id="group-38svg">
    <path d="M30.874,64.750 C30.874,64.750 14.289,64.750 14.289,64.750 C14.289,64.750 11.687,41.750 11.687,41.750 C11.687,41.750 33.476,41.750 33.476,41.750 C33.476,41.750 30.874,64.750 30.874,64.750 Z" id="path-1" class="cls-3" fill-rule="evenodd"/>
    <path d="M36.488,33.231 C37.908,32.213 38.842,30.559 38.842,28.678 C38.842,25.580 36.330,23.068 33.231,23.068 C33.231,23.068 34.776,8.597 21.605,6.483 C21.605,6.483 25.183,10.873 22.256,14.776 C19.329,18.678 9.509,15.121 9.548,25.896 C9.548,25.896 9.580,25.910 9.580,25.910 C7.235,26.582 5.508,28.718 5.508,31.280 C5.508,32.923 6.227,34.386 7.352,35.412 C7.013,36.135 6.809,36.933 6.809,37.784 C6.809,40.882 9.320,43.393 12.419,43.393 C14.221,43.393 15.807,42.528 16.833,41.208 C18.233,42.535 20.423,43.393 22.890,43.393 C25.314,43.393 27.472,42.566 28.875,41.278 C29.903,42.558 31.463,43.393 33.231,43.393 C36.330,43.393 38.842,40.882 38.842,37.784 C38.842,35.903 37.908,34.249 36.488,33.231 Z" id="path-2" class="cls-4" fill-rule="evenodd"/>
    <path d="M29.231,39.893 C27.576,39.893 26.000,39.313 24.738,38.267 C23.110,39.312 21.051,39.893 18.890,39.893 C16.692,39.893 14.608,39.295 12.972,38.221 C11.703,39.297 10.105,39.893 8.419,39.893 C4.498,39.893 1.309,36.704 1.309,32.784 C1.309,32.098 1.411,31.418 1.615,30.754 C0.584,29.491 0.008,27.908 0.008,26.280 C0.008,23.532 1.632,21.044 4.072,19.882 C4.463,12.634 9.356,11.475 12.972,10.619 C14.708,10.207 16.349,9.819 17.056,8.876 C19.254,5.945 16.471,2.465 16.442,2.430 C16.050,1.948 15.995,1.273 16.306,0.733 C16.617,0.195 17.228,-0.096 17.843,0.002 C28.409,1.698 30.919,10.977 30.813,16.745 C33.975,17.467 36.342,20.301 36.342,23.678 C36.342,25.353 35.738,26.964 34.677,28.231 C35.738,29.498 36.342,31.109 36.342,32.784 C36.342,36.704 33.152,39.893 29.231,39.893 ZM24.875,34.778 C24.913,34.778 24.950,34.780 24.988,34.783 C25.402,34.814 25.784,35.015 26.044,35.339 C26.838,36.327 28.000,36.893 29.231,36.893 C31.498,36.893 33.342,35.050 33.342,32.784 C33.342,31.452 32.712,30.237 31.614,29.450 C31.222,29.168 30.988,28.714 30.988,28.231 C30.988,27.747 31.222,27.293 31.614,27.012 C32.712,26.225 33.342,25.010 33.342,23.678 C33.342,21.412 31.498,19.568 29.231,19.568 C28.806,19.568 28.400,19.388 28.116,19.071 C27.831,18.755 27.694,18.332 27.740,17.909 C27.789,17.432 28.731,7.229 20.493,3.828 C21.125,5.874 21.170,8.391 19.456,10.676 C18.097,12.488 15.843,13.021 13.663,13.538 C9.998,14.406 7.094,15.093 7.048,20.694 C7.062,20.792 7.067,20.893 7.062,20.995 C7.022,21.629 6.604,22.177 5.993,22.352 C4.235,22.856 3.008,24.471 3.008,26.280 C3.008,27.433 3.489,28.507 4.362,29.304 C4.848,29.747 4.988,30.454 4.710,31.049 C4.443,31.617 4.309,32.200 4.309,32.784 C4.309,35.050 6.152,36.893 8.419,36.893 C9.678,36.893 10.855,36.308 11.648,35.287 C11.908,34.953 12.298,34.744 12.720,34.712 C13.143,34.681 13.557,34.828 13.865,35.120 C15.037,36.230 16.915,36.893 18.890,36.893 C20.857,36.893 22.669,36.267 23.861,35.173 C24.139,34.918 24.501,34.778 24.875,34.778 Z" id="path-3" class="cls-5" fill-rule="evenodd"/>
    <path d="M26.874,62.750 C26.874,62.750 10.289,62.750 10.289,62.750 C9.526,62.750 8.885,62.177 8.799,61.418 C8.799,61.418 6.196,38.418 6.196,38.418 C6.148,37.994 6.283,37.569 6.567,37.251 C6.853,36.932 7.260,36.750 7.687,36.750 C7.687,36.750 29.476,36.750 29.476,36.750 C29.902,36.750 30.309,36.932 30.595,37.250 C30.879,37.569 31.014,37.994 30.966,38.418 C30.966,38.418 28.364,61.418 28.364,61.418 C28.278,62.177 27.638,62.750 26.874,62.750 ZM11.629,59.750 C11.629,59.750 25.534,59.750 25.534,59.750 C25.534,59.750 27.796,39.750 27.796,39.750 C27.796,39.750 9.366,39.750 9.366,39.750 C9.366,39.750 11.629,59.750 11.629,59.750 Z" id="path-4" class="cls-5" fill-rule="evenodd"/>
    <path d="M21.913,54.942 C21.821,54.942 21.729,54.933 21.637,54.916 C20.822,54.765 20.285,53.981 20.436,53.167 C20.436,53.167 22.261,43.381 22.261,43.381 C22.413,42.566 23.204,42.032 24.010,42.182 C24.824,42.333 25.361,43.117 25.210,43.931 C25.210,43.931 23.386,53.717 23.386,53.717 C23.251,54.438 22.621,54.942 21.913,54.942 Z" id="path-5" class="cls-5" fill-rule="evenodd"/>
    <path d="M15.454,57.629 C15.341,57.629 15.227,57.616 15.111,57.589 C14.305,57.400 13.804,56.593 13.992,55.787 C13.992,55.787 15.817,47.991 15.817,47.991 C16.007,47.184 16.809,46.684 17.620,46.872 C18.427,47.061 18.928,47.868 18.739,48.675 C18.739,48.675 16.914,56.470 16.914,56.470 C16.752,57.162 16.136,57.629 15.454,57.629 Z" id="path-6" class="cls-5" fill-rule="evenodd"/>
    <path d="M23.735,22.599 C23.334,22.599 22.934,22.439 22.639,22.122 C22.073,21.517 22.106,20.567 22.712,20.002 C23.899,18.894 23.192,15.184 22.340,13.025 C22.036,12.255 22.414,11.384 23.185,11.080 C23.954,10.775 24.826,11.153 25.131,11.924 C25.424,12.666 27.903,19.262 24.759,22.196 C24.470,22.466 24.102,22.599 23.735,22.599 Z" id="path-7" class="cls-5" fill-rule="evenodd"/>
    <path d="M13.311,32.885 C10.059,32.885 7.911,31.990 6.926,30.222 C5.408,27.502 7.473,24.144 7.713,23.771 C8.161,23.074 9.090,22.872 9.786,23.320 C10.481,23.767 10.684,24.693 10.238,25.390 C9.791,26.098 9.034,27.851 9.547,28.764 C9.969,29.514 11.430,29.907 13.591,29.883 C14.392,29.852 15.102,30.526 15.118,31.355 C15.133,32.183 14.474,32.867 13.646,32.882 C13.533,32.884 13.422,32.885 13.311,32.885 Z" id="path-8" class="cls-5" fill-rule="evenodd"/>
  </g>
</svg>
