<svg xmlns="http://www.w3.org/2000/svg" xmlns:xlink="http://www.w3.org/1999/xlink" preserveAspectRatio="xMidYMid" width="64" height="48" viewBox="0 0 64 48">
  <defs>
    <style>

      .cls-3 {
        fill: #99746a;
      }

      .cls-5 {
        fill: #000000;
      }
    </style>
  </defs>
  <g id="group-81svg">
    <path d="M48.594,23.798 C48.594,23.798 48.594,10.000 48.594,10.000 C48.594,10.000 50.506,10.000 50.506,10.000 C51.601,10.000 52.493,9.086 52.506,7.991 C52.506,7.991 52.518,7.007 52.518,7.007 C52.531,5.893 51.632,5.000 50.518,5.000 C50.518,5.000 40.775,5.000 40.775,5.000 C40.775,5.000 31.541,5.000 31.541,5.000 C30.436,5.000 28.594,5.830 28.594,6.935 C28.594,6.935 28.594,7.935 28.594,7.935 C28.594,9.040 30.436,10.000 31.541,10.000 C31.541,10.000 32.518,10.000 32.518,10.000 C32.518,10.000 32.541,23.830 32.541,23.830 C32.541,24.024 25.161,46.147 25.161,46.147 C24.769,47.259 25.778,48.000 26.957,48.000 C26.957,48.000 40.775,48.000 40.775,48.000 C40.775,48.000 56.092,48.000 56.092,48.000 C57.271,48.000 57.621,47.242 57.228,46.131 C57.228,46.131 48.594,23.992 48.594,23.798 Z" id="path-1" class="cls-3" fill-rule="evenodd"/>
    <path d="M17.250,48.000 C17.250,48.000 9.132,48.000 9.132,48.000 C8.664,48.000 8.264,47.794 8.186,47.332 C8.186,47.332 5.513,31.319 5.513,31.319 C5.414,30.733 5.865,30.000 6.459,30.000 C6.459,30.000 19.923,30.000 19.923,30.000 C20.517,30.000 20.968,30.800 20.869,31.386 C20.869,31.386 18.196,47.199 18.196,47.199 C18.118,47.661 17.719,48.000 17.250,48.000 Z" id="path-2" class="cls-3" fill-rule="evenodd"/>
    <path d="M47.504,23.516 C47.055,23.516 46.609,23.314 46.314,22.931 C45.809,22.274 45.932,21.332 46.588,20.827 C46.588,20.827 60.584,10.059 60.584,10.059 C61.240,9.555 62.183,9.676 62.687,10.333 C63.193,10.989 63.070,11.932 62.414,12.436 C62.414,12.436 48.418,23.205 48.418,23.205 C48.145,23.414 47.823,23.516 47.504,23.516 Z" id="path-3" class="cls-5" fill-rule="evenodd"/>
    <path d="M52.092,46.000 C52.092,46.000 22.957,46.000 22.957,46.000 C21.687,46.000 20.623,45.523 20.036,44.694 C19.544,43.998 19.441,43.139 19.747,42.272 C22.464,34.174 26.530,22.010 27.041,20.371 C27.041,20.371 27.020,7.977 27.020,7.977 C25.007,7.797 23.594,6.573 23.594,4.935 C23.594,4.935 23.594,3.935 23.594,3.935 C23.594,2.022 25.623,-0.000 27.541,-0.000 C27.541,-0.000 46.518,-0.000 46.518,-0.000 C47.428,-0.000 48.293,0.369 48.955,1.039 C49.642,1.734 50.029,2.686 50.018,3.650 C50.018,3.650 50.006,4.757 50.006,4.757 C49.984,6.579 48.524,7.959 46.594,7.999 C46.594,7.999 46.594,20.557 46.594,20.557 C47.208,22.276 51.802,34.309 54.879,42.344 C55.320,43.587 55.007,44.410 54.670,44.888 C54.310,45.394 53.572,46.000 52.092,46.000 ZM22.675,42.976 C22.752,42.990 22.846,43.000 22.957,43.000 C22.957,43.000 51.918,43.000 51.918,43.000 C43.594,21.269 43.594,21.176 43.594,20.798 C43.594,20.798 43.594,6.500 43.594,6.500 C43.594,5.672 44.266,5.000 45.094,5.000 C45.094,5.000 46.506,5.000 46.506,5.000 C46.691,5.000 47.003,4.965 47.006,4.724 C47.006,4.724 47.018,3.617 47.018,3.617 C47.020,3.449 46.946,3.274 46.820,3.147 C46.767,3.092 46.654,3.000 46.518,3.000 C46.518,3.000 27.541,3.000 27.541,3.000 C27.235,3.024 26.621,3.631 26.594,3.941 C26.594,3.941 26.594,4.801 26.594,4.801 C26.747,4.887 27.096,5.000 27.541,5.000 C27.541,5.000 28.518,5.000 28.518,5.000 C29.346,5.000 30.018,5.670 30.019,6.498 C30.019,6.498 30.041,20.578 30.041,20.578 C30.041,20.907 30.041,21.017 22.675,42.976 Z" id="path-4" class="cls-5" fill-rule="evenodd"/>
    <path d="M4.913,46.001 C3.177,46.001 2.792,44.834 2.707,44.333 C2.707,44.333 0.033,28.189 0.033,28.189 C-0.100,27.402 0.159,26.506 0.708,25.856 C1.175,25.305 1.797,25.000 2.459,25.000 C2.459,25.000 15.923,25.000 15.923,25.000 C16.554,25.000 17.150,25.295 17.602,25.830 C18.189,26.523 18.489,27.550 18.349,28.385 C18.349,28.385 15.675,44.076 15.675,44.076 C15.480,45.226 14.506,46.000 13.250,46.000 C13.250,46.000 4.913,46.001 4.913,46.001 ZM5.526,43.000 C5.526,43.000 12.815,43.000 12.815,43.000 C12.815,43.000 15.370,28.000 15.370,28.000 C15.370,28.000 3.042,28.000 3.042,28.000 C3.042,28.000 5.526,43.000 5.526,43.000 Z" id="path-5" class="cls-5" fill-rule="evenodd"/>
    <path d="M44.570,40.699 C43.963,40.699 43.392,40.328 43.166,39.725 C43.166,39.725 36.689,22.449 36.689,22.449 C36.626,22.281 36.594,22.103 36.594,21.924 C36.594,21.924 36.594,10.000 36.594,10.000 C36.594,9.172 37.266,8.500 38.094,8.500 C38.922,8.500 39.594,9.172 39.594,10.000 C39.594,10.000 39.594,21.651 39.594,21.651 C39.594,21.651 45.975,38.672 45.975,38.672 C46.266,39.447 45.873,40.312 45.097,40.603 C44.924,40.668 44.745,40.699 44.570,40.699 Z" id="path-6" class="cls-5" fill-rule="evenodd"/>
    <path d="M9.192,41.181 C9.071,41.181 8.948,41.166 8.824,41.135 C8.021,40.932 7.534,40.117 7.737,39.313 C7.737,39.313 9.367,32.849 9.367,32.849 C9.569,32.047 10.379,31.560 11.188,31.762 C11.991,31.964 12.478,32.779 12.275,33.582 C12.275,33.582 10.645,40.047 10.645,40.047 C10.475,40.726 9.863,41.181 9.192,41.181 Z" id="path-7" class="cls-5" fill-rule="evenodd"/>
  </g>
</svg>
