<svg xmlns="http://www.w3.org/2000/svg" xmlns:xlink="http://www.w3.org/1999/xlink" preserveAspectRatio="xMidYMid" width="66" height="60" viewBox="0 0 66 60">
  <defs>
    <style>

      .cls-3 {
        fill: #99746a;
      }

      .cls-4 {
        fill: #231f20;
      }
    </style>
  </defs>
  <g id="group-41svg">
    <path d="M9.697,36.593 C9.697,36.593 41.092,7.331 41.092,7.331 C41.092,7.331 53.590,-0.898 62.733,10.684 C71.878,22.267 55.418,36.289 55.418,36.289 C55.418,36.289 33.167,63.112 19.451,58.845 C-4.550,51.377 9.697,36.593 9.697,36.593 Z" id="path-1" class="cls-3" fill-rule="evenodd"/>
    <path d="M18.610,57.804 C17.344,57.804 16.131,57.627 15.006,57.276 C6.553,54.647 1.614,50.771 0.328,45.757 C-1.426,38.922 4.369,32.809 4.617,32.552 C4.617,32.552 36.069,3.234 36.069,3.234 C36.131,3.177 36.196,3.125 36.267,3.079 C36.458,2.953 41.015,-0.004 46.804,-0.004 C51.960,-0.004 56.370,2.270 59.911,6.755 C67.810,16.760 58.565,29.122 52.489,34.346 C50.909,36.233 32.539,57.804 18.610,57.804 ZM6.720,34.690 C6.724,34.690 1.893,39.823 3.237,45.024 C4.254,48.956 8.514,52.115 15.896,54.412 C16.733,54.672 17.646,54.804 18.610,54.804 C31.472,54.804 50.077,32.556 50.264,32.331 C50.318,32.265 50.379,32.203 50.444,32.147 C50.598,32.016 65.694,18.921 57.556,8.614 C54.613,4.886 50.996,2.997 46.804,2.997 C42.357,2.997 38.645,5.138 38.010,5.526 C38.010,5.526 6.720,34.690 6.720,34.690 C6.720,34.690 6.720,34.690 6.720,34.690 Z" id="path-2" class="cls-4" fill-rule="evenodd"/>
    <path d="M31.499,38.142 C30.873,38.142 30.289,37.748 30.078,37.122 C26.525,26.611 11.726,30.196 11.100,30.355 C10.296,30.557 9.481,30.070 9.278,29.267 C9.076,28.464 9.561,27.649 10.364,27.446 C16.609,25.862 29.366,25.646 32.920,36.162 C33.185,36.946 32.764,37.797 31.979,38.062 C31.820,38.116 31.658,38.142 31.499,38.142 Z" id="path-3" class="cls-4" fill-rule="evenodd"/>
    <path d="M43.103,27.066 C42.477,27.066 41.893,26.671 41.682,26.046 C38.129,15.534 23.328,19.120 22.702,19.279 C21.897,19.481 21.084,18.994 20.881,18.191 C20.679,17.388 21.164,16.573 21.967,16.370 C28.213,14.787 40.970,14.571 44.523,25.085 C44.789,25.870 44.367,26.721 43.583,26.986 C43.424,27.040 43.262,27.066 43.103,27.066 Z" id="path-4" class="cls-4" fill-rule="evenodd"/>
    <path d="M53.939,18.598 C53.313,18.598 52.729,18.204 52.519,17.578 C48.966,7.066 34.165,10.652 33.539,10.811 C32.733,11.012 31.921,10.526 31.718,9.723 C31.516,8.920 32.001,8.105 32.804,7.902 C39.049,6.319 51.807,6.103 55.360,16.617 C55.626,17.402 55.204,18.253 54.420,18.518 C54.261,18.572 54.099,18.598 53.939,18.598 Z" id="path-5" class="cls-4" fill-rule="evenodd"/>
  </g>
</svg>
