<svg xmlns="http://www.w3.org/2000/svg" xmlns:xlink="http://www.w3.org/1999/xlink" preserveAspectRatio="xMidYMid" width="37" height="64" viewBox="0 0 37 64">
  <defs>
    <style>

      .cls-3 {
        fill: #ff917b;
      }

      .cls-4 {
        fill: #81bda4;
      }

      .cls-5 {
        fill: #000000;
      }
    </style>
  </defs>
  <g id="group-14svg">
    <path d="M22.696,15.409 C22.696,15.409 19.562,17.680 19.562,17.680 C19.562,17.680 19.562,17.717 19.562,17.717 C19.562,17.717 17.957,15.559 17.957,15.559 C17.957,15.559 6.836,11.760 10.179,26.653 C13.522,41.545 19.055,63.504 19.055,63.504 C19.055,63.504 19.441,63.212 19.441,63.212 C19.441,63.212 25.983,41.642 30.269,26.993 C34.555,12.344 22.696,15.409 22.696,15.409 Z" id="path-1" class="cls-3" fill-rule="evenodd"/>
    <path d="M32.236,3.513 C25.560,3.272 21.903,7.892 20.648,9.867 C19.394,7.892 15.737,3.272 9.061,3.513 C0.588,3.819 9.772,8.726 11.511,9.964 C13.248,11.202 19.124,13.760 19.638,16.005 C19.911,17.196 20.322,15.646 20.648,13.927 C20.975,15.646 21.387,17.196 21.659,16.005 C22.174,13.760 28.049,11.202 29.787,9.964 C31.524,8.726 40.710,3.819 32.236,3.513 Z" id="path-2" class="cls-4" fill-rule="evenodd"/>
    <path d="M15.117,63.004 C14.959,63.004 14.800,62.979 14.646,62.928 C14.157,62.766 13.786,62.366 13.662,61.867 C13.606,61.646 8.149,39.720 4.840,24.981 C3.711,19.953 4.053,16.260 5.856,14.008 C7.103,12.449 9.004,11.625 11.353,11.625 C13.149,11.625 14.625,12.117 14.686,12.138 C14.941,12.224 15.169,12.377 15.345,12.581 C15.345,12.581 16.244,13.627 16.244,13.627 C16.244,13.627 18.019,12.230 18.019,12.230 C18.181,12.102 18.367,12.009 18.567,11.957 C18.691,11.925 19.818,11.642 21.301,11.642 C23.978,11.642 26.082,12.561 27.387,14.302 C29.158,16.667 29.314,20.406 27.849,25.414 C23.609,39.906 16.973,61.438 16.906,61.654 C16.819,61.936 16.651,62.185 16.424,62.372 C16.424,62.372 16.068,62.663 16.068,62.663 C15.796,62.887 15.459,63.004 15.117,63.004 ZM11.353,14.625 C9.927,14.625 8.866,15.048 8.198,15.883 C7.010,17.367 6.861,20.286 7.768,24.324 C10.131,34.851 13.595,49.059 15.393,56.366 C17.565,49.276 21.898,35.071 24.970,24.572 C26.139,20.576 26.145,17.647 24.985,16.101 C24.261,15.133 23.021,14.642 21.301,14.642 C20.571,14.642 19.945,14.737 19.603,14.802 C19.603,14.802 17.122,16.755 17.122,16.755 C16.973,16.907 16.791,17.028 16.584,17.105 C15.994,17.324 15.335,17.170 14.925,16.695 C14.925,16.695 13.364,14.880 13.364,14.880 C12.940,14.775 12.189,14.625 11.353,14.625 Z" id="path-3" class="cls-5" fill-rule="evenodd"/>
    <path d="M17.436,15.925 C17.436,15.925 17.436,15.925 17.436,15.925 C17.129,15.925 16.870,15.857 16.648,15.734 C16.428,15.857 16.168,15.925 15.860,15.925 C15.464,15.925 14.504,15.770 14.176,14.341 C13.949,13.350 10.283,11.303 8.903,10.532 C7.977,10.015 7.176,9.568 6.641,9.186 C6.420,9.029 6.070,8.810 5.651,8.545 C2.144,6.331 -0.492,4.463 0.101,2.265 C0.602,0.409 2.985,0.087 5.007,0.014 C10.843,-0.200 14.633,2.932 16.648,5.338 C18.666,2.932 22.435,-0.211 28.290,0.014 C30.311,0.087 32.695,0.409 33.196,2.265 C33.789,4.462 31.154,6.331 27.648,8.544 C27.228,8.809 26.878,9.029 26.657,9.186 C26.121,9.568 25.321,10.014 24.395,10.532 C23.016,11.303 19.349,13.350 19.121,14.340 C18.794,15.770 17.834,15.925 17.436,15.925 ZM16.648,10.427 C17.185,10.427 17.667,10.712 17.932,11.150 C19.159,10.068 20.917,9.039 22.933,7.912 C23.747,7.458 24.516,7.029 24.917,6.743 C25.169,6.563 25.567,6.310 26.047,6.007 C26.855,5.497 29.041,4.117 29.934,3.195 C29.581,3.119 29.028,3.043 28.183,3.012 C22.279,2.811 19.025,6.923 17.914,8.672 C17.640,9.105 17.161,9.367 16.648,9.367 C16.648,9.367 16.648,9.367 16.648,9.367 C16.135,9.367 15.657,9.104 15.382,8.671 C14.271,6.922 11.024,2.800 5.114,3.012 C4.268,3.043 3.716,3.119 3.363,3.195 C4.257,4.117 6.443,5.497 7.253,6.008 C7.730,6.310 8.129,6.563 8.381,6.742 C8.783,7.029 9.552,7.458 10.366,7.913 C12.385,9.040 14.144,10.071 15.368,11.145 C15.634,10.709 16.113,10.427 16.648,10.427 Z" id="path-4" class="cls-5" fill-rule="evenodd"/>
    <path d="M8.734,24.513 C7.130,24.513 6.132,24.476 6.070,24.473 C5.242,24.441 4.597,23.744 4.629,22.916 C4.661,22.089 5.379,21.461 6.185,21.475 C6.208,21.476 8.423,21.559 11.554,21.475 C12.352,21.445 13.070,22.105 13.093,22.934 C13.115,23.762 12.462,24.451 11.634,24.473 C10.538,24.503 9.557,24.513 8.734,24.513 Z" id="path-5" class="cls-5" fill-rule="evenodd"/>
    <path d="M13.893,40.846 C12.288,40.846 11.290,40.809 11.228,40.807 C10.400,40.774 9.756,40.078 9.787,39.250 C9.819,38.422 10.512,37.784 11.344,37.809 C11.366,37.810 13.581,37.892 16.712,37.808 C17.526,37.763 18.229,38.439 18.251,39.268 C18.273,40.096 17.620,40.785 16.792,40.807 C15.696,40.836 14.715,40.846 13.893,40.846 Z" id="path-6" class="cls-5" fill-rule="evenodd"/>
    <path d="M24.562,32.250 C24.562,32.250 16.562,32.250 16.562,32.250 C15.734,32.250 15.062,31.579 15.062,30.750 C15.062,29.921 15.734,29.250 16.562,29.250 C16.562,29.250 24.562,29.250 24.562,29.250 C25.391,29.250 26.062,29.921 26.062,30.750 C26.062,31.579 25.391,32.250 24.562,32.250 Z" id="path-7" class="cls-5" fill-rule="evenodd"/>
    <path d="M25.562,19.250 C25.562,19.250 17.562,19.250 17.562,19.250 C16.734,19.250 16.062,18.579 16.062,17.750 C16.062,16.921 16.734,16.250 17.562,16.250 C17.562,16.250 25.562,16.250 25.562,16.250 C26.391,16.250 27.062,16.921 27.062,17.750 C27.062,18.579 26.391,19.250 25.562,19.250 Z" id="path-8" class="cls-5" fill-rule="evenodd"/>
  </g>
</svg>
