<svg xmlns="http://www.w3.org/2000/svg" xmlns:xlink="http://www.w3.org/1999/xlink" preserveAspectRatio="xMidYMid" width="50" height="63" viewBox="0 0 50 63">
  <defs>
    <style>

      .cls-3 {
        fill: #53ecf4;
      }

      .cls-4 {
        fill: #ff917b;
      }

      .cls-5 {
        fill: #000000;
      }
    </style>
  </defs>
  <g id="group-86svg">
    <path d="M10.374,3.594 C10.374,3.594 4.000,3.594 4.000,3.594 C4.000,3.594 4.000,25.189 4.000,25.189 C4.000,25.189 7.000,34.076 7.000,34.076 C7.000,34.076 7.000,62.594 7.000,62.594 C7.000,62.594 10.374,62.594 10.374,62.594 C10.374,62.594 12.000,62.594 12.000,62.594 C12.000,62.594 12.000,34.076 12.000,34.076 C12.000,34.076 16.000,25.189 16.000,25.189 C16.000,25.189 16.000,3.594 16.000,3.594 C16.000,3.594 10.374,3.594 10.374,3.594 Z" id="path-1" class="cls-3" fill-rule="evenodd"/>
    <path d="M49.499,11.536 C49.499,4.311 46.383,2.497 42.339,2.497 C38.295,2.497 34.772,4.294 34.772,11.519 C34.772,17.821 39.000,28.094 39.000,28.094 C39.000,28.094 39.000,62.594 39.000,62.594 C39.000,62.594 44.000,62.594 44.000,62.594 C44.000,62.594 44.000,28.094 44.000,28.094 C44.000,28.094 49.499,17.840 49.499,11.536 Z" id="path-2" class="cls-4" fill-rule="evenodd"/>
    <path d="M9.500,62.594 C9.500,62.594 4.500,62.594 4.500,62.594 C3.671,62.594 3.000,61.922 3.000,61.094 C3.000,61.094 3.000,33.323 3.000,33.323 C3.000,33.323 0.079,24.670 0.079,24.670 C0.026,24.515 -0.000,24.352 -0.000,24.189 C-0.000,24.189 -0.000,2.094 -0.000,2.094 C-0.000,1.266 0.671,0.594 1.500,0.594 C1.500,0.594 13.500,0.594 13.500,0.594 C14.329,0.594 15.000,1.266 15.000,2.094 C15.000,2.094 15.000,24.189 15.000,24.189 C15.000,24.402 14.955,24.611 14.868,24.805 C14.868,24.805 11.000,33.398 11.000,33.398 C11.000,33.398 11.000,61.094 11.000,61.094 C11.000,61.922 10.329,62.594 9.500,62.594 ZM6.000,59.594 C6.000,59.594 8.000,59.594 8.000,59.594 C8.000,59.594 8.000,33.076 8.000,33.076 C8.000,32.864 8.045,32.654 8.132,32.461 C8.132,32.461 12.000,23.867 12.000,23.867 C12.000,23.867 12.000,3.594 12.000,3.594 C12.000,3.594 3.000,3.594 3.000,3.594 C3.000,3.594 3.000,23.943 3.000,23.943 C3.000,23.943 5.921,32.597 5.921,32.597 C5.974,32.752 6.000,32.914 6.000,33.076 C6.000,33.076 6.000,59.594 6.000,59.594 Z" id="path-3" class="cls-5" fill-rule="evenodd"/>
    <path d="M41.500,62.594 C41.500,62.594 36.500,62.594 36.500,62.594 C35.671,62.594 35.000,61.922 35.000,61.094 C35.000,61.094 35.000,27.397 35.000,27.397 C34.262,25.632 30.585,16.527 30.585,10.518 C30.585,3.537 33.572,-0.003 39.464,-0.003 C45.293,-0.003 48.249,3.543 48.249,10.536 C48.249,16.551 43.923,25.589 43.000,27.449 C43.000,27.449 43.000,61.094 43.000,61.094 C43.000,61.922 42.329,62.594 41.500,62.594 ZM38.000,59.594 C38.000,59.594 40.000,59.594 40.000,59.594 C40.000,59.594 40.000,27.094 40.000,27.094 C40.000,26.856 40.057,26.622 40.164,26.410 C40.215,26.310 45.249,16.402 45.249,10.536 C45.249,3.910 42.469,2.997 39.464,2.997 C36.411,2.997 33.585,3.908 33.585,10.518 C33.585,16.444 37.835,26.401 37.878,26.502 C37.958,26.688 38.000,26.890 38.000,27.094 C38.000,27.094 38.000,59.594 38.000,59.594 Z" id="path-4" class="cls-5" fill-rule="evenodd"/>
  </g>
</svg>
