<svg xmlns="http://www.w3.org/2000/svg" xmlns:xlink="http://www.w3.org/1999/xlink" preserveAspectRatio="xMidYMid" width="23" height="64" viewBox="0 0 23 64">
  <defs>
    <style>

      .cls-3 {
        fill: #53ecf4;
      }

      .cls-4 {
        fill: #000000;
      }
    </style>
  </defs>
  <g id="group-25svg">
    <path d="M21.722,37.487 C21.722,51.863 18.092,63.517 13.614,63.517 C9.136,63.517 5.505,51.863 5.505,37.487 C5.505,23.111 9.136,11.457 13.614,11.457 C18.092,11.457 21.722,23.111 21.722,37.487 Z" id="path-1" class="cls-3" fill-rule="evenodd"/>
    <path d="M9.614,63.017 C3.306,63.017 0.005,49.167 0.005,35.487 C0.005,21.807 3.306,7.958 9.614,7.958 C15.921,7.958 19.222,21.807 19.222,35.487 C19.222,49.167 15.921,63.017 9.614,63.017 ZM9.614,10.957 C6.919,10.957 3.005,20.513 3.005,35.487 C3.005,50.461 6.919,60.016 9.614,60.016 C12.308,60.016 16.222,50.461 16.222,35.487 C16.222,20.513 12.308,10.957 9.614,10.957 Z" id="path-2" class="cls-4" fill-rule="evenodd"/>
    <path d="M9.612,10.958 C9.368,10.958 9.119,10.898 8.890,10.771 C8.165,10.372 7.901,9.461 8.299,8.736 C8.342,8.655 10.396,4.776 8.466,2.482 C7.933,1.849 8.014,0.902 8.648,0.369 C9.282,-0.165 10.228,-0.083 10.761,0.551 C14.032,4.437 11.056,9.949 10.927,10.182 C10.654,10.678 10.141,10.958 9.612,10.958 Z" id="path-3" class="cls-4" fill-rule="evenodd"/>
    <path d="M12.264,41.312 C11.461,41.312 10.796,40.670 10.766,39.862 C10.734,39.033 11.380,38.333 12.207,38.301 C14.549,38.213 16.175,38.297 16.243,38.301 C17.070,38.346 17.704,39.052 17.659,39.879 C17.613,40.706 16.917,41.358 16.080,41.303 C16.064,41.302 14.512,41.312 12.322,41.312 C12.302,41.312 12.283,41.312 12.264,41.312 Z" id="path-4" class="cls-4" fill-rule="evenodd"/>
    <path d="M8.587,25.312 C7.785,25.312 7.120,24.456 7.089,23.647 C7.058,22.819 7.703,22.012 8.531,21.980 C10.872,21.893 12.498,21.924 12.566,21.927 C13.393,21.972 14.027,22.651 13.982,23.478 C13.937,24.305 13.234,25.160 12.403,25.103 C12.387,25.102 10.835,24.312 8.645,25.312 C8.625,25.312 8.606,25.312 8.587,25.312 Z" id="path-5" class="cls-4" fill-rule="evenodd"/>
    <path d="M8.687,32.312 C8.687,32.312 2.687,32.312 2.687,32.312 C1.859,32.312 1.187,31.641 1.187,30.812 C1.187,29.984 1.859,29.312 2.687,29.312 C2.687,29.312 8.687,29.312 8.687,29.312 C9.516,29.312 10.187,29.984 10.187,30.812 C10.187,31.641 9.516,32.312 8.687,32.312 Z" id="path-6" class="cls-4" fill-rule="evenodd"/>
    <path d="M7.687,45.312 C7.687,45.312 1.687,45.312 1.687,45.312 C0.859,45.312 0.187,44.641 0.187,43.812 C0.187,42.984 0.859,42.312 1.687,42.312 C1.687,42.312 7.687,42.312 7.687,42.312 C8.516,42.312 9.187,42.984 9.187,43.812 C9.187,44.641 8.516,45.312 7.687,45.312 Z" id="path-7" class="cls-4" fill-rule="evenodd"/>
  </g>
</svg>
