<svg xmlns="http://www.w3.org/2000/svg" xmlns:xlink="http://www.w3.org/1999/xlink" preserveAspectRatio="xMidYMid" width="63" height="65" viewBox="0 0 63 65">
  <defs>
    <style>

      .cls-3 {
        fill: #edc951;
      }

      .cls-4 {
        fill: #99746a;
      }

      .cls-5 {
        fill: #000000;
      }
    </style>
  </defs>
  <g id="group-70svg">
    <path d="M55.777,34.031 C55.777,34.031 51.000,34.031 51.000,34.031 C51.000,34.031 51.000,30.031 51.000,30.031 C51.000,19.031 5.000,19.031 5.000,30.031 C5.000,30.031 5.000,49.462 5.000,49.462 C5.000,57.551 14.205,65.031 23.688,65.031 C23.688,65.031 35.277,65.031 35.277,65.031 C41.592,65.031 47.138,61.031 50.141,57.031 C50.141,57.031 55.777,57.031 55.777,57.031 C60.314,57.031 63.000,52.716 63.000,47.593 C63.000,47.593 63.000,42.613 63.000,42.613 C63.000,37.490 60.314,34.031 55.777,34.031 Z" id="path-1" class="cls-3" fill-rule="evenodd"/>
    <path d="M11.421,31.274 C13.597,38.772 44.963,38.772 47.138,31.274 C44.963,23.776 13.597,23.776 11.421,31.274 Z" id="path-2" class="cls-4" fill-rule="evenodd"/>
    <path d="M31.277,63.031 C31.277,63.031 19.688,63.031 19.688,63.031 C9.200,63.031 -0.000,55.288 -0.000,46.462 C-0.000,46.462 -0.000,26.531 -0.000,26.531 C-0.000,19.335 13.198,16.781 24.500,16.781 C35.802,16.781 49.000,19.335 49.000,26.531 C49.000,26.531 49.000,29.031 49.000,29.031 C49.000,29.031 51.777,29.031 51.777,29.031 C57.035,29.031 61.000,33.580 61.000,39.613 C61.000,39.613 61.000,44.594 61.000,44.594 C61.000,50.642 57.121,55.031 51.777,55.031 C51.777,55.031 46.872,55.031 46.872,55.031 C43.654,59.005 38.020,63.031 31.277,63.031 ZM24.500,19.781 C12.444,19.781 3.000,22.746 3.000,26.531 C3.000,26.531 3.000,46.462 3.000,46.462 C3.000,53.563 10.954,60.031 19.688,60.031 C19.688,60.031 31.277,60.031 31.277,60.031 C37.262,60.031 42.378,56.045 44.941,52.631 C44.941,52.631 45.391,52.031 45.391,52.031 C45.391,52.031 51.777,52.031 51.777,52.031 C55.441,52.031 58.000,48.973 58.000,44.594 C58.000,44.594 58.000,39.613 58.000,39.613 C58.000,35.221 55.383,32.031 51.777,32.031 C51.777,32.031 46.000,32.031 46.000,32.031 C46.000,32.031 46.000,26.531 46.000,26.531 C46.000,22.746 36.556,19.781 24.500,19.781 Z" id="path-3" class="cls-5" fill-rule="evenodd"/>
    <path d="M46.000,50.452 C46.000,50.452 46.000,34.031 46.000,34.031 C46.000,34.031 50.741,34.031 50.741,34.031 C53.703,34.031 56.000,37.516 56.000,40.514 C56.000,40.514 56.000,44.512 56.000,44.512 C56.000,47.671 53.475,50.442 50.595,50.442 C50.595,50.442 46.000,50.452 46.000,50.452 ZM49.000,37.031 C49.000,37.031 49.000,47.446 49.000,47.446 C49.000,47.446 50.592,47.442 50.592,47.442 C51.678,47.442 53.000,46.090 53.000,44.512 C53.000,44.512 53.000,40.514 53.000,40.514 C53.000,38.786 51.685,37.031 50.741,37.031 C50.741,37.031 49.000,37.031 49.000,37.031 Z" id="path-4" class="cls-5" fill-rule="evenodd"/>
    <path d="M25.279,35.397 C16.891,35.397 7.415,33.637 5.980,28.692 C5.980,28.692 5.859,28.274 5.859,28.274 C5.859,28.274 5.980,27.856 5.980,27.856 C7.415,22.912 16.891,21.151 25.279,21.151 C33.669,21.151 43.145,22.912 44.578,27.856 C44.578,27.856 44.699,28.274 44.699,28.274 C44.699,28.274 44.578,28.692 44.578,28.692 C43.145,33.637 33.669,35.397 25.279,35.397 ZM9.048,28.274 C10.310,30.367 16.417,32.397 25.279,32.397 C34.142,32.397 40.249,30.367 41.511,28.274 C40.249,26.182 34.142,24.151 25.279,24.151 C16.417,24.151 10.310,26.182 9.048,28.274 Z" id="path-5" class="cls-5" fill-rule="evenodd"/>
    <path d="M33.344,30.017 C32.696,30.017 32.100,29.595 31.906,28.942 C31.230,26.658 25.499,6.455 32.349,0.367 C32.967,-0.184 33.917,-0.127 34.466,0.491 C35.017,1.111 34.960,2.059 34.341,2.609 C29.733,6.704 33.098,22.392 34.783,28.091 C35.018,28.886 34.564,29.720 33.770,29.955 C33.628,29.997 33.485,30.017 33.344,30.017 Z" id="path-6" class="cls-5" fill-rule="evenodd"/>
    <path d="M15.396,30.017 C14.749,30.017 14.152,29.595 13.959,28.942 C13.283,26.658 7.553,6.455 14.401,0.367 C15.020,-0.184 15.969,-0.127 16.519,0.491 C17.069,1.111 17.014,2.059 16.394,2.609 C11.787,6.704 15.151,22.392 16.836,28.092 C17.070,28.886 16.617,29.720 15.823,29.955 C15.681,29.997 15.538,30.017 15.396,30.017 Z" id="path-7" class="cls-5" fill-rule="evenodd"/>
    <path d="M24.898,30.017 C24.283,30.017 23.706,29.636 23.486,29.022 C22.800,27.104 16.978,10.141 24.011,4.975 C24.679,4.484 25.616,4.628 26.107,5.295 C26.598,5.963 26.454,6.902 25.786,7.392 C21.358,10.644 24.768,23.695 26.311,28.012 C26.590,28.791 26.184,29.649 25.404,29.929 C25.236,29.988 25.066,30.017 24.898,30.017 Z" id="path-8" class="cls-5" fill-rule="evenodd"/>
  </g>
</svg>
