<svg xmlns="http://www.w3.org/2000/svg" xmlns:xlink="http://www.w3.org/1999/xlink" preserveAspectRatio="xMidYMid" width="52" height="63" viewBox="0 0 52 63">
  <defs>
    <style>

      .cls-3 {
        fill: #8b71b5;
      }

      .cls-4 {
        fill: #e56a77;
      }

      .cls-5 {
        fill: #000000;
      }
    </style>
  </defs>
  <g id="group-9svg">
    <path d="M51.223,39.399 C51.223,52.023 40.988,60.021 28.365,60.021 C15.741,60.021 5.507,52.023 5.507,39.399 C5.507,26.776 15.741,14.306 28.365,14.306 C40.988,14.306 51.223,26.776 51.223,39.399 Z" id="path-1" class="cls-3" fill-rule="evenodd"/>
    <path d="M36.342,7.139 C32.922,7.726 31.370,9.802 31.370,9.802 C31.370,8.727 27.926,3.499 27.926,3.499 C27.926,3.499 24.584,8.727 24.584,9.802 C24.584,9.802 23.085,7.726 19.665,7.139 C19.665,7.139 23.937,12.101 22.228,15.330 C22.228,15.330 25.580,13.692 27.926,14.064 C30.270,13.692 33.699,15.330 33.699,15.330 C31.990,12.101 36.342,7.139 36.342,7.139 Z" id="path-2" class="cls-4" fill-rule="evenodd"/>
    <path d="M24.364,59.521 C10.251,59.521 0.007,50.217 0.007,37.399 C0.007,23.233 11.389,10.806 24.364,10.806 C37.340,10.806 48.723,23.233 48.723,37.399 C48.723,50.217 38.478,59.521 24.364,59.521 ZM24.364,13.806 C13.186,13.806 3.007,25.052 3.007,37.399 C3.007,48.658 11.789,56.521 24.364,56.521 C36.939,56.521 45.723,48.658 45.723,37.399 C45.723,25.052 35.543,13.806 24.364,13.806 Z" id="path-3" class="cls-5" fill-rule="evenodd"/>
    <path d="M18.228,14.830 C17.832,14.830 17.440,14.673 17.151,14.374 C16.699,13.908 16.599,13.203 16.902,12.629 C17.900,10.743 15.461,7.206 14.527,6.116 C14.116,5.636 14.049,4.949 14.361,4.399 C14.674,3.851 15.295,3.556 15.919,3.661 C17.683,3.963 19.023,4.619 19.976,5.264 C20.502,4.226 21.336,2.765 22.661,0.692 C22.935,0.264 23.406,0.003 23.914,-0.001 C24.439,-0.001 24.897,0.249 25.178,0.674 C26.561,2.774 27.427,4.247 27.968,5.290 C28.933,4.638 30.298,3.968 32.088,3.661 C32.714,3.552 33.339,3.852 33.649,4.405 C33.960,4.958 33.888,5.648 33.471,6.126 C32.275,7.497 30.105,10.890 31.025,12.629 C31.327,13.201 31.228,13.901 30.781,14.368 C30.334,14.835 29.637,14.962 29.054,14.684 C28.289,14.321 25.790,13.291 24.159,13.545 C24.005,13.570 23.845,13.570 23.690,13.545 C22.059,13.286 19.627,14.316 18.888,14.678 C18.678,14.781 18.452,14.830 18.228,14.830 ZM24.671,10.509 C25.730,10.509 26.859,10.748 27.829,11.033 C27.895,10.333 28.070,9.638 28.309,8.973 C27.918,9.286 27.386,9.388 26.897,9.226 C26.317,9.033 25.916,8.510 25.874,7.907 C25.742,7.403 24.914,5.913 23.944,4.329 C23.005,5.914 22.204,7.401 22.081,7.899 C22.041,8.510 21.634,9.039 21.045,9.229 C20.558,9.387 20.029,9.283 19.643,8.970 C19.874,9.631 20.044,10.323 20.106,11.018 C21.284,10.671 22.722,10.413 23.925,10.550 C24.163,10.523 24.413,10.509 24.671,10.509 Z" id="path-4" class="cls-5" fill-rule="evenodd"/>
    <path d="M32.819,63.000 C32.631,63.000 32.439,62.964 32.254,62.888 C32.254,62.888 24.300,59.643 24.300,59.643 C24.300,59.643 16.484,62.885 16.484,62.885 C15.716,63.201 14.840,62.839 14.523,62.074 C14.206,61.309 14.569,60.432 15.334,60.114 C15.334,60.114 23.720,56.635 23.720,56.635 C24.086,56.484 24.495,56.482 24.861,56.632 C24.861,56.632 33.387,60.111 33.387,60.111 C34.154,60.424 34.522,61.299 34.209,62.066 C33.972,62.647 33.411,63.000 32.819,63.000 Z" id="path-5" class="cls-5" fill-rule="evenodd"/>
    <path d="M39.873,34.853 C39.873,35.779 39.123,36.530 38.196,36.530 C37.270,36.530 36.520,35.779 36.520,34.853 C36.520,33.927 37.270,33.176 38.196,33.176 C39.123,33.176 39.873,33.927 39.873,34.853 Z" id="path-6" class="cls-5" fill-rule="evenodd"/>
    <path d="M27.575,43.797 C27.575,44.723 26.824,45.474 25.898,45.474 C24.972,45.474 24.221,44.723 24.221,43.797 C24.221,42.871 24.972,42.120 25.898,42.120 C26.824,42.120 27.575,42.871 27.575,43.797 Z" id="path-7" class="cls-5" fill-rule="evenodd"/>
    <path d="M17.513,29.263 C17.513,30.189 16.762,30.940 15.836,30.940 C14.909,30.940 14.159,30.189 14.159,29.263 C14.159,28.336 14.909,27.585 15.836,27.585 C16.762,27.585 17.513,28.336 17.513,29.263 Z" id="path-8" class="cls-5" fill-rule="evenodd"/>
    <path d="M15.277,47.151 C15.277,48.078 14.526,48.828 13.600,48.828 C12.674,48.828 11.923,48.078 11.923,47.151 C11.923,46.225 12.674,45.474 13.600,45.474 C14.526,45.474 15.277,46.225 15.277,47.151 Z" id="path-9" class="cls-5" fill-rule="evenodd"/>
  </g>
</svg>
