<svg xmlns="http://www.w3.org/2000/svg" xmlns:xlink="http://www.w3.org/1999/xlink" preserveAspectRatio="xMidYMid" width="67" height="44" viewBox="0 0 67 44">
  <defs>
    <style>

      .cls-3 {
        fill: #99746a;
      }

      .cls-4 {
        fill: #000000;
      }
    </style>
  </defs>
  <g id="group-17svg">
    <path d="M66.505,22.741 C66.505,34.164 53.074,43.425 36.505,43.425 C19.937,43.425 6.505,34.164 6.505,22.741 C6.505,12.767 11.089,6.377 24.604,3.754 C33.343,2.058 40.369,8.971 44.967,10.946 C53.465,14.598 66.505,15.328 66.505,22.741 Z" id="path-1" class="cls-3" fill-rule="evenodd"/>
    <path d="M31.505,42.925 C14.136,42.925 0.005,32.973 0.005,20.741 C0.005,9.184 5.961,2.873 19.318,0.281 C20.319,0.087 21.344,-0.012 22.365,-0.012 C28.073,-0.012 32.841,2.965 36.673,5.356 C38.170,6.290 39.462,7.097 40.559,7.568 C42.922,8.583 45.729,9.388 48.444,10.165 C55.602,12.215 63.005,14.335 63.005,20.741 C63.005,32.973 48.874,42.925 31.505,42.925 ZM22.365,2.988 C21.536,2.988 20.703,3.068 19.889,3.226 C8.054,5.523 3.005,10.762 3.005,20.741 C3.005,31.319 15.790,39.925 31.505,39.925 C47.220,39.925 60.005,31.319 60.005,20.741 C60.005,16.597 53.988,14.873 47.618,13.049 C44.813,12.246 41.913,11.415 39.374,10.324 C38.068,9.763 36.619,8.859 35.085,7.901 C31.578,5.712 27.213,2.988 22.365,2.988 Z" id="path-2" class="cls-4" fill-rule="evenodd"/>
    <path d="M38.272,17.549 C38.046,17.549 37.817,17.497 37.602,17.390 C37.602,17.390 31.945,14.561 31.945,14.561 C31.205,14.191 30.904,13.290 31.274,12.549 C31.645,11.808 32.548,11.510 33.287,11.878 C33.287,11.878 38.944,14.706 38.944,14.706 C39.685,15.077 39.985,15.978 39.615,16.719 C39.352,17.245 38.822,17.549 38.272,17.549 Z" id="path-3" class="cls-4" fill-rule="evenodd"/>
    <path d="M33.811,33.865 C33.499,33.865 33.183,33.768 32.914,33.566 C32.250,33.069 32.115,32.129 32.612,31.466 C32.612,31.466 36.637,26.090 36.637,26.090 C37.134,25.427 38.075,25.292 38.737,25.788 C39.400,26.285 39.535,27.225 39.039,27.888 C39.039,27.888 35.013,33.264 35.013,33.264 C34.719,33.658 34.268,33.865 33.811,33.865 Z" id="path-4" class="cls-4" fill-rule="evenodd"/>
    <path d="M15.785,21.133 C15.198,21.133 14.641,20.786 14.400,20.211 C14.400,20.211 11.825,14.052 11.825,14.052 C11.505,13.288 11.866,12.409 12.630,12.090 C13.394,11.771 14.273,12.131 14.593,12.895 C14.593,12.895 17.168,19.054 17.168,19.054 C17.488,19.818 17.127,20.697 16.363,21.016 C16.174,21.095 15.978,21.133 15.785,21.133 Z" id="path-5" class="cls-4" fill-rule="evenodd"/>
  </g>
</svg>
