<svg xmlns="http://www.w3.org/2000/svg" xmlns:xlink="http://www.w3.org/1999/xlink" preserveAspectRatio="xMidYMid" width="52" height="64" viewBox="0 0 52 64">
  <defs>
    <style>

      .cls-3 {
        fill: #e56a77;
      }

      .cls-4 {
        fill: #8b71b5;
      }

      .cls-5 {
        fill: #000000;
      }
    </style>
  </defs>
  <g id="group-84svg">
    <path d="M36.989,53.969 C36.989,53.969 6.989,53.969 6.989,53.969 C6.436,53.969 5.000,53.916 5.000,54.469 C5.000,54.469 5.000,57.469 5.000,57.469 C5.000,58.021 6.436,58.969 6.989,58.969 C6.989,58.969 10.373,58.969 10.373,58.969 C9.372,58.969 7.000,60.372 7.000,61.373 C7.000,61.373 7.000,61.498 7.000,61.498 C7.000,62.794 9.039,63.969 10.334,63.969 C10.334,63.969 32.644,63.969 32.644,63.969 C33.939,63.969 34.000,62.669 34.000,61.373 C34.000,61.373 34.000,61.498 34.000,61.498 C34.000,60.497 35.088,58.969 34.087,58.969 C34.087,58.969 36.989,58.969 36.989,58.969 C37.541,58.969 37.000,58.021 37.000,57.469 C37.000,57.469 37.000,54.469 37.000,54.469 C37.000,53.919 37.539,53.969 36.989,53.969 Z" id="path-1" class="cls-3" fill-rule="evenodd"/>
    <path d="M37.755,22.969 C37.755,22.969 8.163,22.969 8.163,22.969 C6.998,22.969 5.000,24.163 5.000,25.328 C5.000,25.328 5.000,46.863 5.000,46.863 C5.000,48.027 6.998,48.969 8.163,48.969 C8.163,48.969 35.830,48.969 35.830,48.969 C36.994,48.969 36.000,48.027 36.000,46.863 C36.000,46.863 36.000,32.919 36.000,32.919 C36.000,31.914 37.679,31.049 38.664,30.851 C38.664,30.851 50.761,28.341 50.761,28.341 C51.746,28.143 52.000,27.278 52.000,26.273 C52.000,26.273 52.000,22.939 52.000,22.939 C52.000,21.629 51.758,20.637 50.468,20.862 C50.468,20.862 37.648,23.062 37.648,23.062 C37.528,23.084 37.877,22.969 37.755,22.969 Z" id="path-2" class="cls-4" fill-rule="evenodd"/>
    <path d="M31.830,47.969 C31.830,47.969 4.163,47.969 4.163,47.969 C1.712,47.969 -0.000,46.691 -0.000,44.863 C-0.000,44.863 -0.000,23.328 -0.000,23.328 C-0.000,21.465 2.058,18.969 4.163,18.969 C4.163,18.969 33.755,18.969 33.755,18.969 C34.025,18.969 34.295,19.045 34.530,19.182 C34.530,19.182 46.495,17.379 46.495,17.379 C47.960,17.121 50.000,17.900 50.000,20.939 C50.000,20.939 50.000,24.273 50.000,24.273 C50.000,26.139 49.015,27.494 47.430,27.811 C47.430,27.811 35.216,30.320 35.216,30.320 C34.710,30.422 34.145,30.795 34.000,31.009 C34.000,31.009 34.000,44.863 34.000,44.863 C34.000,45.098 34.030,45.291 34.052,45.451 C34.114,45.898 34.217,46.647 33.657,47.291 C33.066,47.969 32.200,47.969 31.830,47.969 ZM3.000,44.728 C3.176,44.830 3.604,44.969 4.163,44.969 C4.163,44.969 31.000,44.969 31.000,44.969 C31.000,44.933 31.000,44.898 31.000,44.863 C31.000,44.863 31.000,30.919 31.000,30.919 C31.000,28.977 33.117,27.682 34.620,27.381 C34.620,27.381 46.834,24.871 46.834,24.871 C46.910,24.834 47.000,24.659 47.000,24.273 C47.000,24.273 47.000,20.939 47.000,20.939 C47.000,20.657 46.968,20.463 46.936,20.347 C46.936,20.347 33.997,22.296 33.997,22.296 C33.577,22.358 33.128,22.234 32.799,21.969 C32.799,21.969 4.163,21.969 4.163,21.969 C3.805,22.035 3.025,22.929 3.000,23.332 C3.000,23.332 3.000,44.728 3.000,44.728 Z" id="path-3" class="cls-5" fill-rule="evenodd"/>
    <path d="M23.746,18.719 C23.168,18.719 22.617,18.383 22.371,17.819 C21.760,16.422 16.590,4.051 22.972,0.207 C23.681,-0.222 24.602,0.006 25.030,0.717 C25.458,1.427 25.229,2.349 24.519,2.775 C21.009,4.891 23.849,13.700 25.121,16.619 C25.451,17.379 25.104,18.262 24.345,18.594 C24.150,18.679 23.946,18.719 23.746,18.719 Z" id="path-4" class="cls-5" fill-rule="evenodd"/>
    <path d="M8.337,18.719 C7.759,18.719 7.208,18.383 6.962,17.819 C6.351,16.422 1.181,4.051 7.562,0.207 C8.271,-0.222 9.193,0.006 9.621,0.717 C10.049,1.427 9.820,2.349 9.110,2.775 C5.601,4.891 8.440,13.700 9.711,16.619 C10.042,17.379 9.695,18.262 8.936,18.594 C8.741,18.679 8.537,18.719 8.337,18.719 Z" id="path-5" class="cls-5" fill-rule="evenodd"/>
    <path d="M16.495,18.719 C15.957,18.719 15.437,18.429 15.168,17.920 C14.788,17.200 11.494,10.762 12.942,6.262 C13.430,4.746 14.427,3.577 15.826,2.881 C16.567,2.510 17.468,2.812 17.837,3.555 C18.206,4.297 17.904,5.197 17.163,5.566 C16.477,5.908 16.043,6.420 15.799,7.178 C14.896,9.976 16.952,14.869 17.821,16.518 C18.207,17.252 17.926,18.158 17.194,18.545 C16.971,18.662 16.731,18.719 16.495,18.719 Z" id="path-6" class="cls-5" fill-rule="evenodd"/>
    <path d="M28.644,62.969 C28.644,62.969 6.334,62.969 6.334,62.969 C4.214,62.969 2.489,61.244 2.489,59.123 C2.489,58.756 2.577,58.356 2.734,57.956 C1.517,57.840 -0.000,56.914 -0.000,55.469 C-0.000,55.469 -0.000,52.469 -0.000,52.469 C-0.000,50.920 1.741,49.969 2.989,49.969 C2.989,49.969 32.989,49.969 32.989,49.969 C33.704,49.969 34.158,50.273 34.413,50.530 C35.005,51.126 35.000,51.877 35.000,52.373 C35.000,52.373 35.000,55.469 35.000,55.469 C35.000,56.064 35.006,56.812 34.415,57.407 C34.160,57.663 33.705,57.969 32.989,57.969 C32.989,57.969 32.478,57.969 32.478,57.969 C32.495,58.289 32.492,58.601 32.490,58.883 C32.490,58.883 32.489,59.123 32.489,59.123 C32.489,61.244 30.764,62.969 28.644,62.969 ZM6.455,57.967 C6.128,58.103 5.539,58.824 5.487,59.158 C5.489,59.590 5.868,59.969 6.334,59.969 C6.334,59.969 28.644,59.969 28.644,59.969 C29.109,59.969 29.489,59.590 29.489,59.123 C29.489,59.123 29.490,58.860 29.490,58.860 C29.492,58.604 29.496,58.144 29.461,57.832 C28.945,57.596 28.587,57.074 28.587,56.469 C28.587,55.641 29.258,54.969 30.087,54.969 C30.087,54.969 32.000,54.969 32.000,54.969 C32.000,54.969 32.000,52.969 32.000,52.969 C32.000,52.969 3.000,52.969 3.000,52.969 C3.000,52.969 3.000,54.967 3.000,54.967 C3.007,54.969 3.015,54.969 3.021,54.971 C3.021,54.971 6.373,54.969 6.373,54.969 C7.201,54.969 7.873,55.641 7.873,56.469 C7.873,57.269 7.245,57.924 6.455,57.967 Z" id="path-7" class="cls-5" fill-rule="evenodd"/>
    <path d="M24.000,57.969 C24.000,57.969 10.000,57.969 10.000,57.969 C9.171,57.969 8.500,57.297 8.500,56.469 C8.500,55.641 9.171,54.969 10.000,54.969 C10.000,54.969 24.000,54.969 24.000,54.969 C24.829,54.969 25.500,55.641 25.500,56.469 C25.500,57.297 24.829,57.969 24.000,57.969 Z" id="path-8" class="cls-5" fill-rule="evenodd"/>
  </g>
</svg>
