<svg xmlns="http://www.w3.org/2000/svg" xmlns:xlink="http://www.w3.org/1999/xlink" preserveAspectRatio="xMidYMid" width="66" height="51" viewBox="0 0 66 51">
  <defs>
    <style>

      .cls-3 {
        fill: #99746a;
      }

      .cls-4 {
        fill: #e56a77;
      }

      .cls-5 {
        fill: #000000;
      }
    </style>
  </defs>
  <g id="group-89svg">
    <path d="M35.492,50.562 C52.060,50.562 65.492,36.562 65.492,20.562 C65.492,20.562 5.492,20.562 5.492,20.562 C5.492,36.562 18.924,50.562 35.492,50.562 Z" id="path-1" class="cls-3" fill-rule="evenodd"/>
    <path d="M40.406,20.562 C40.406,20.562 40.406,34.890 40.406,34.890 C40.406,36.252 43.065,37.562 44.427,37.562 C44.427,37.562 44.141,37.562 44.141,37.562 C45.503,37.562 45.406,36.252 45.406,34.890 C45.406,34.890 45.406,27.562 45.406,27.562 C45.406,27.562 51.406,27.562 51.406,27.562 C51.406,27.562 51.406,20.562 51.406,20.562 C51.406,20.562 40.406,20.562 40.406,20.562 Z" id="path-2" class="cls-4" fill-rule="evenodd"/>
    <path d="M31.492,49.562 C14.417,49.562 -0.008,35.137 -0.008,18.062 C-0.008,17.234 0.664,16.562 1.492,16.562 C1.492,16.562 61.492,16.562 61.492,16.562 C62.320,16.562 62.992,17.234 62.992,18.062 C62.992,35.137 48.567,49.562 31.492,49.562 ZM3.033,19.562 C3.844,34.347 16.546,46.562 31.492,46.562 C46.438,46.562 59.141,34.347 59.951,19.562 C59.951,19.562 3.033,19.562 3.033,19.562 Z" id="path-3" class="cls-5" fill-rule="evenodd"/>
    <path d="M35.406,26.562 C35.406,26.562 2.406,26.562 2.406,26.562 C1.578,26.562 0.906,25.891 0.906,25.062 C0.906,24.234 1.578,23.562 2.406,23.562 C2.406,23.562 35.406,23.562 35.406,23.562 C36.234,23.562 36.906,24.234 36.906,25.062 C36.906,25.891 36.234,26.562 35.406,26.562 Z" id="path-4" class="cls-5" fill-rule="evenodd"/>
    <path d="M40.427,36.562 C40.427,36.562 40.141,36.562 40.141,36.562 C40.031,36.562 39.925,36.551 39.822,36.529 C37.868,36.318 35.406,35.132 35.406,32.891 C35.406,32.891 35.406,18.062 35.406,18.062 C35.406,17.234 36.078,16.562 36.906,16.562 C36.906,16.562 47.906,16.562 47.906,16.562 C48.734,16.562 49.406,17.234 49.406,18.062 C49.406,18.062 49.406,25.062 49.406,25.062 C49.406,25.891 48.734,26.562 47.906,26.562 C47.906,26.562 43.406,26.562 43.406,26.562 C43.406,26.562 43.406,32.891 43.406,32.891 C43.406,35.566 41.954,36.324 40.824,36.510 C40.697,36.544 40.564,36.562 40.427,36.562 ZM38.406,19.562 C38.406,19.562 38.406,32.891 38.406,32.891 C38.511,33.039 39.378,33.501 40.272,33.557 C40.300,33.555 40.322,33.552 40.340,33.549 C40.367,33.460 40.406,33.265 40.406,32.891 C40.406,32.891 40.406,25.062 40.406,25.062 C40.406,24.234 41.078,23.562 41.906,23.562 C41.906,23.562 46.406,23.562 46.406,23.562 C46.406,23.562 46.406,19.562 46.406,19.562 C46.406,19.562 38.406,19.562 38.406,19.562 Z" id="path-5" class="cls-5" fill-rule="evenodd"/>
    <path d="M31.733,43.429 C24.505,43.429 19.479,40.589 19.204,40.430 C18.486,40.016 18.241,39.098 18.655,38.381 C19.068,37.664 19.986,37.420 20.701,37.830 C20.701,37.830 20.701,37.830 20.701,37.830 C20.780,37.875 28.694,42.303 38.532,39.465 C39.331,39.234 40.160,39.694 40.390,40.490 C40.619,41.287 40.160,42.118 39.364,42.348 C36.647,43.131 34.075,43.429 31.733,43.429 Z" id="path-6" class="cls-5" fill-rule="evenodd"/>
    <path d="M33.624,19.507 C33.181,19.507 32.741,19.310 32.445,18.935 C31.933,18.285 32.044,17.342 32.694,16.828 C32.694,16.828 53.641,0.320 53.641,0.320 C54.291,-0.193 55.233,-0.081 55.747,0.569 C56.260,1.221 56.148,2.164 55.498,2.676 C55.498,2.676 34.552,19.185 34.552,19.185 C34.276,19.402 33.949,19.507 33.624,19.507 Z" id="path-7" class="cls-5" fill-rule="evenodd"/>
    <path d="M21.907,19.507 C21.464,19.507 21.024,19.310 20.728,18.935 C20.216,18.285 20.327,17.342 20.977,16.828 C20.977,16.828 35.534,5.356 35.534,5.356 C36.186,4.844 37.128,4.955 37.641,5.605 C38.153,6.257 38.042,7.200 37.392,7.713 C37.392,7.713 22.835,19.185 22.835,19.185 C22.560,19.402 22.232,19.507 21.907,19.507 Z" id="path-8" class="cls-5" fill-rule="evenodd"/>
  </g>
</svg>
