<svg xmlns="http://www.w3.org/2000/svg" xmlns:xlink="http://www.w3.org/1999/xlink" preserveAspectRatio="xMidYMid" width="62" height="65" viewBox="0 0 62 65">
  <defs>
    <style>

      .cls-3 {
        fill: #ff917b;
      }

      .cls-5 {
        fill: #53ecf4;
      }

      .cls-6 {
        fill: #000000;
      }
    </style>
  </defs>
  <g id="group-63svg">
    <path d="M20.960,18.251 C20.960,18.251 46.867,4.506 46.867,4.506 C46.867,4.506 41.558,20.522 41.558,20.522 C41.558,20.522 41.558,20.522 41.558,20.522 " id="path-1" class="cls-3" fill-rule="evenodd"/>
    <path d="M31.001,59.655 C31.001,59.655 50.726,64.506 50.726,64.506 C50.726,64.506 41.413,54.178 41.413,54.178 C41.413,54.178 41.413,54.178 41.413,54.178 " id="path-2" class="cls-3" fill-rule="evenodd"/>
    <path d="M45.880,26.407 C28.347,0.352 13.196,26.545 13.196,26.545 C8.282,32.613 3.428,37.240 3.428,37.240 C3.428,37.240 8.534,41.924 13.448,47.992 C13.448,47.992 28.305,74.212 45.838,48.157 C45.838,48.157 52.156,38.449 62.156,48.322 C62.156,48.322 62.156,37.240 62.156,37.240 C62.156,37.240 62.156,26.270 62.156,26.270 C52.156,36.143 45.880,26.407 45.880,26.407 Z" id="path-3" class="cls-5" fill-rule="evenodd"/>
    <path d="M27.914,58.195 C17.871,58.195 11.016,47.152 10.243,45.850 C5.481,39.983 0.523,35.389 0.473,35.343 C0.167,35.060 -0.007,34.664 -0.009,34.248 C-0.011,33.832 0.160,33.434 0.462,33.148 C0.511,33.104 5.321,28.557 10.087,22.684 C10.856,21.403 17.787,10.363 27.882,10.363 C34.039,10.363 39.924,14.471 45.374,22.570 C45.397,22.603 47.891,26.194 51.859,26.194 C54.315,26.194 56.920,24.851 59.603,22.203 C60.032,21.777 60.675,21.652 61.235,21.887 C61.793,22.119 62.156,22.666 62.156,23.270 C62.156,23.270 62.156,45.323 62.156,45.323 C62.156,45.928 61.793,46.474 61.235,46.707 C60.675,46.939 60.032,46.814 59.603,46.391 C56.915,43.736 54.303,42.391 51.837,42.391 C47.868,42.391 45.368,45.966 45.344,46.001 C39.900,54.090 34.035,58.195 27.914,58.195 ZM3.654,34.230 C5.446,35.973 9.065,39.627 12.645,44.049 C12.694,44.109 12.739,44.175 12.778,44.243 C12.842,44.352 19.210,55.195 27.914,55.195 C32.975,55.195 38.003,51.536 42.859,44.320 C42.996,44.117 46.250,39.390 51.837,39.390 C54.268,39.390 56.720,40.288 59.156,42.064 C59.156,42.064 59.156,26.527 59.156,26.527 C56.726,28.299 54.281,29.194 51.859,29.194 C46.267,29.194 43.020,24.444 42.884,24.242 C38.026,17.023 32.979,13.363 27.882,13.363 C19.124,13.363 12.680,24.191 12.616,24.301 C12.578,24.366 12.534,24.430 12.487,24.488 C8.925,28.887 5.405,32.498 3.654,34.230 Z" id="path-4" class="cls-6" fill-rule="evenodd"/>
    <path d="M26.919,43.075 C26.690,43.075 26.457,43.021 26.239,42.911 C25.501,42.535 25.207,41.632 25.583,40.893 C29.819,32.573 25.794,25.378 25.621,25.075 C25.210,24.358 25.455,23.441 26.170,23.028 C26.888,22.615 27.801,22.857 28.216,23.570 C28.424,23.928 33.253,32.439 28.257,42.255 C27.992,42.775 27.465,43.075 26.919,43.075 Z" id="path-5" class="cls-6" fill-rule="evenodd"/>
    <path d="M33.780,43.075 C33.551,43.075 33.319,43.021 33.101,42.911 C32.362,42.535 32.069,41.632 32.444,40.893 C36.681,32.573 32.656,25.378 32.482,25.075 C32.071,24.358 32.316,23.441 33.032,23.028 C33.748,22.615 34.663,22.857 35.078,23.570 C35.286,23.928 40.115,32.439 35.118,42.255 C34.853,42.775 34.326,43.075 33.780,43.075 Z" id="path-6" class="cls-6" fill-rule="evenodd"/>
    <path d="M39.558,19.023 C39.401,19.023 39.242,18.998 39.085,18.946 C38.299,18.686 37.873,17.837 38.134,17.050 C38.134,17.050 42.267,4.583 42.267,4.583 C42.267,4.583 19.664,16.576 19.664,16.576 C18.929,16.963 18.023,16.685 17.635,15.954 C17.247,15.222 17.525,14.314 18.257,13.926 C18.257,13.926 44.164,0.180 44.164,0.180 C44.706,-0.106 45.368,-0.035 45.835,0.359 C46.303,0.755 46.484,1.395 46.291,1.977 C46.291,1.977 40.981,17.994 40.981,17.994 C40.772,18.624 40.187,19.023 39.558,19.023 Z" id="path-7" class="cls-6" fill-rule="evenodd"/>
    <path d="M48.726,63.005 C48.607,63.005 48.487,62.991 48.367,62.962 C48.367,62.962 28.643,58.111 28.643,58.111 C27.839,57.914 27.347,57.101 27.545,56.297 C27.742,55.492 28.554,55.000 29.360,55.199 C29.360,55.199 44.341,58.883 44.341,58.883 C44.341,58.883 38.299,52.182 38.299,52.182 C37.744,51.566 37.793,50.618 38.409,50.062 C39.024,49.509 39.973,49.558 40.527,50.173 C40.527,50.173 49.840,60.501 49.840,60.501 C50.281,60.990 50.351,61.710 50.013,62.275 C49.738,62.735 49.245,63.005 48.726,63.005 Z" id="path-8" class="cls-6" fill-rule="evenodd"/>
    <path d="M16.614,37.725 C13.778,37.725 11.471,35.518 11.471,32.806 C11.471,30.093 13.778,27.887 16.614,27.887 C19.450,27.887 21.757,30.093 21.757,32.806 C21.757,35.518 19.450,37.725 16.614,37.725 ZM16.614,30.887 C15.432,30.887 14.471,31.747 14.471,32.806 C14.471,33.864 15.432,34.725 16.614,34.725 C17.795,34.725 18.757,33.864 18.757,32.806 C18.757,31.747 17.795,30.887 16.614,30.887 Z" id="path-9" class="cls-6" fill-rule="evenodd"/>
  </g>
</svg>
