<svg xmlns="http://www.w3.org/2000/svg" xmlns:xlink="http://www.w3.org/1999/xlink" preserveAspectRatio="xMidYMid" width="27" height="64" viewBox="0 0 27 64">
  <defs>
    <style>

      .cls-3 {
        fill: #53ecf4;
      }

      .cls-4 {
        fill: #ff917b;
      }

      .cls-5 {
        fill: #000000;
      }
    </style>
  </defs>
  <g id="group-32svg">
    <path d="M5.495,42.000 C5.495,42.000 27.108,42.000 27.108,42.000 C27.108,42.000 23.498,9.957 23.498,9.957 C23.092,6.308 20.008,4.000 16.337,4.000 C16.337,4.000 16.266,4.000 16.266,4.000 C12.595,4.000 9.511,6.308 9.105,9.957 C9.105,9.957 5.495,42.000 5.495,42.000 Z" id="path-1" class="cls-3" fill-rule="evenodd"/>
    <path d="M14.301,64.000 C14.301,64.000 18.778,64.000 18.778,64.000 C19.910,64.000 19.469,62.589 19.469,61.457 C19.469,61.457 19.469,42.000 19.469,42.000 C19.469,42.000 11.469,42.000 11.469,42.000 C11.469,42.000 11.469,61.756 11.469,61.756 C11.469,62.723 13.335,64.000 14.301,64.000 Z" id="path-2" class="cls-4" fill-rule="evenodd"/>
    <path d="M23.108,41.000 C23.108,41.000 1.495,41.000 1.495,41.000 C1.067,41.000 0.661,40.818 0.376,40.499 C0.092,40.181 -0.044,39.756 0.004,39.332 C0.004,39.332 3.615,7.289 3.615,7.289 C4.091,2.998 7.649,-0.000 12.266,-0.000 C16.954,-0.000 20.512,2.998 20.988,7.291 C20.988,7.291 24.599,39.332 24.599,39.332 C24.646,39.756 24.511,40.181 24.226,40.499 C23.942,40.818 23.535,41.000 23.108,41.000 ZM3.173,38.000 C3.173,38.000 21.429,38.000 21.429,38.000 C21.429,38.000 18.007,7.625 18.007,7.625 C17.700,4.858 15.421,3.000 12.337,3.000 C9.182,3.000 6.903,4.858 6.596,7.622 C6.596,7.622 3.173,38.000 3.173,38.000 Z" id="path-3" class="cls-5" fill-rule="evenodd"/>
    <path d="M14.778,63.000 C14.778,63.000 10.301,63.000 10.301,63.000 C8.701,63.000 6.469,61.766 6.469,59.756 C6.469,59.756 6.469,39.500 6.469,39.500 C6.469,38.671 7.140,38.000 7.969,38.000 C7.969,38.000 15.969,38.000 15.969,38.000 C16.797,38.000 17.469,38.671 17.469,39.500 C17.469,39.500 17.469,59.457 17.469,59.457 C17.469,60.333 17.469,63.000 14.778,63.000 ZM9.469,59.632 C9.619,59.795 10.036,60.000 10.301,60.000 C10.301,60.000 14.457,60.000 14.457,60.000 C14.469,59.796 14.469,59.562 14.469,59.457 C14.469,59.457 14.469,41.000 14.469,41.000 C14.469,41.000 9.469,41.000 9.469,41.000 C9.469,41.000 9.469,59.632 9.469,59.632 Z" id="path-4" class="cls-5" fill-rule="evenodd"/>
    <path d="M16.828,22.144 C16.384,22.144 15.944,21.947 15.647,21.571 C15.647,21.571 12.803,17.950 12.803,17.950 C12.291,17.299 12.404,16.356 13.056,15.844 C13.707,15.332 14.649,15.445 15.162,16.097 C15.162,16.097 18.007,19.717 18.007,19.717 C18.518,20.369 18.405,21.311 17.754,21.824 C17.479,22.040 17.152,22.144 16.828,22.144 Z" id="path-5" class="cls-5" fill-rule="evenodd"/>
    <path d="M9.327,36.239 C8.932,36.239 8.538,36.083 8.243,35.775 C7.670,35.177 7.692,34.227 8.290,33.655 C8.290,33.655 11.265,30.810 11.265,30.810 C11.863,30.238 12.812,30.258 13.385,30.857 C13.958,31.456 13.937,32.405 13.338,32.978 C13.338,32.978 10.364,35.823 10.364,35.823 C10.073,36.100 9.700,36.239 9.327,36.239 Z" id="path-6" class="cls-5" fill-rule="evenodd"/>
    <path d="M10.815,12.705 C10.211,12.705 9.642,12.338 9.414,11.740 C8.846,10.257 9.110,9.227 9.432,8.623 C10.028,7.504 11.107,7.205 11.317,7.157 C11.317,7.157 11.992,10.079 11.992,10.079 C11.992,10.079 12.023,10.077 12.069,10.058 C12.078,10.035 12.030,10.183 12.215,10.669 C12.511,11.443 12.124,12.310 11.350,12.605 C11.174,12.673 10.993,12.705 10.815,12.705 Z" id="path-7" class="cls-5" fill-rule="evenodd"/>
    <path d="M9.845,27.575 C9.441,27.575 9.038,27.413 8.743,27.093 C8.181,26.484 8.219,25.535 8.827,24.973 C8.849,24.953 8.870,24.933 8.889,24.914 C8.367,24.494 8.181,23.756 8.475,23.118 C8.822,22.366 9.721,22.039 10.474,22.386 C10.702,22.491 11.854,23.085 12.062,24.403 C12.167,25.066 12.043,26.086 10.862,27.177 C10.574,27.443 10.209,27.575 9.845,27.575 Z" id="path-8" class="cls-5" fill-rule="evenodd"/>
  </g>
</svg>
