<svg xmlns="http://www.w3.org/2000/svg" xmlns:xlink="http://www.w3.org/1999/xlink" preserveAspectRatio="xMidYMid" width="66" height="34" viewBox="0 0 66 34">
  <defs>
    <style>

      .cls-3 {
        fill: #81bda4;
      }

      .cls-4 {
        fill: #e56a77;
      }

      .cls-5 {
        fill: #000000;
      }
    </style>
  </defs>
  <g id="group-8svg">
    <path d="M5.500,4.000 C5.500,21.000 18.932,34.000 35.500,34.000 C52.068,34.000 65.500,21.000 65.500,4.000 C65.500,4.000 5.500,4.000 5.500,4.000 Z" id="path-1" class="cls-3" fill-rule="evenodd"/>
    <path d="M10.331,4.000 C10.331,18.000 21.600,29.169 35.500,29.169 C49.400,29.169 60.669,18.000 60.669,4.000 C60.669,4.000 10.331,4.000 10.331,4.000 Z" id="path-2" class="cls-4" fill-rule="evenodd"/>
    <path d="M31.500,28.169 C16.795,28.169 4.831,16.205 4.831,1.500 C4.831,0.671 5.503,-0.000 6.331,-0.000 C6.331,-0.000 56.669,-0.000 56.669,-0.000 C57.497,-0.000 58.169,0.671 58.169,1.500 C58.169,16.205 46.205,28.169 31.500,28.169 ZM7.878,3.000 C8.654,15.356 18.952,25.169 31.500,25.169 C44.048,25.169 54.346,15.356 55.122,3.000 C55.122,3.000 7.878,3.000 7.878,3.000 Z" id="path-3" class="cls-5" fill-rule="evenodd"/>
    <path d="M31.500,33.000 C13.837,33.000 -0.000,19.164 -0.000,1.500 C-0.000,0.671 0.672,-0.000 1.500,-0.000 C1.500,-0.000 61.500,-0.000 61.500,-0.000 C62.328,-0.000 63.000,0.671 63.000,1.500 C63.000,19.164 49.163,33.000 31.500,33.000 ZM3.037,3.000 C3.792,18.258 16.022,30.000 31.500,30.000 C46.977,30.000 59.208,18.258 59.963,3.000 C59.963,3.000 3.037,3.000 3.037,3.000 Z" id="path-4" class="cls-5" fill-rule="evenodd"/>
    <path d="M41.338,11.983 C41.338,11.983 41.530,7.197 41.530,7.197 C41.530,7.197 44.223,11.159 44.223,11.159 C44.713,11.881 44.525,12.863 43.804,13.353 C43.082,13.844 42.100,13.656 41.609,12.934 C41.412,12.644 41.324,12.310 41.338,11.983 Z" id="path-5" class="cls-5" fill-rule="evenodd"/>
    <path d="M34.203,11.983 C34.203,11.983 34.395,7.197 34.395,7.197 C34.395,7.197 37.088,11.159 37.088,11.159 C37.578,11.881 37.391,12.863 36.669,13.353 C35.947,13.844 34.965,13.656 34.475,12.934 C34.277,12.644 34.190,12.310 34.203,11.983 Z" id="path-6" class="cls-5" fill-rule="evenodd"/>
    <path d="M26.177,11.983 C26.177,11.983 26.369,7.197 26.369,7.197 C26.369,7.197 29.061,11.159 29.061,11.159 C29.552,11.881 29.364,12.863 28.643,13.353 C27.921,13.844 26.938,13.656 26.448,12.934 C26.251,12.644 26.163,12.310 26.177,11.983 Z" id="path-7" class="cls-5" fill-rule="evenodd"/>
    <path d="M37.770,20.010 C37.770,20.010 37.963,15.224 37.963,15.224 C37.963,15.224 40.655,19.185 40.655,19.185 C41.145,19.907 40.958,20.890 40.236,21.380 C39.515,21.870 38.532,21.683 38.042,20.961 C37.845,20.670 37.758,20.336 37.770,20.010 Z" id="path-8" class="cls-5" fill-rule="evenodd"/>
    <path d="M30.636,20.010 C30.636,20.010 30.828,15.224 30.828,15.224 C30.828,15.224 33.520,19.185 33.520,19.185 C34.011,19.907 33.823,20.890 33.102,21.380 C32.380,21.870 31.398,21.683 30.908,20.961 C30.710,20.670 30.623,20.336 30.636,20.010 Z" id="path-9" class="cls-5" fill-rule="evenodd"/>
    <path d="M22.609,20.010 C22.609,20.010 22.802,15.224 22.802,15.224 C22.802,15.224 25.494,19.185 25.494,19.185 C25.984,19.907 25.797,20.890 25.075,21.380 C24.353,21.870 23.371,21.683 22.881,20.961 C22.684,20.670 22.597,20.336 22.609,20.010 Z" id="path-10" class="cls-5" fill-rule="evenodd"/>
    <path d="M19.042,11.983 C19.042,11.983 19.234,7.197 19.234,7.197 C19.234,7.197 21.927,11.159 21.927,11.159 C22.417,11.881 22.229,12.863 21.508,13.353 C20.786,13.844 19.805,13.656 19.314,12.934 C19.116,12.644 19.029,12.310 19.042,11.983 Z" id="path-11" class="cls-5" fill-rule="evenodd"/>
  </g>
</svg>
