<svg xmlns="http://www.w3.org/2000/svg" xmlns:xlink="http://www.w3.org/1999/xlink" preserveAspectRatio="xMidYMid" width="59" height="64" viewBox="0 0 59 64">
  <defs>
    <style>

      .cls-3 {
        fill: #edc951;
      }

      .cls-4 {
        fill: #e56a77;
      }

      .cls-5 {
        fill: #8b71b5;
      }

      .cls-6 {
        fill: #000000;
      }
    </style>
  </defs>
  <g id="group-28svg">
    <path d="M5.550,41.677 C5.550,41.677 13.436,63.937 13.436,63.937 C13.436,63.937 50.620,63.937 50.620,63.937 C50.620,63.937 58.506,41.677 58.506,41.677 C58.755,40.985 58.241,39.937 57.506,39.937 C57.506,39.937 6.550,39.937 6.550,39.937 C5.814,39.937 5.302,40.985 5.550,41.677 Z" id="path-1" class="cls-3" fill-rule="evenodd"/>
    <path d="M14.755,39.937 C10.383,39.937 6.839,36.166 6.839,31.794 C6.839,27.422 10.383,23.764 14.755,23.764 C15.332,23.764 15.894,23.772 16.435,23.890 C15.823,22.766 15.475,21.450 15.475,20.080 C15.475,15.708 19.019,12.149 23.392,12.149 C23.647,12.149 23.899,12.157 24.149,12.181 C24.126,11.931 24.111,11.675 24.111,11.419 C24.111,7.047 27.655,3.501 32.028,3.501 C36.400,3.501 39.944,7.044 39.944,11.416 C39.944,11.672 39.930,11.925 39.906,12.174 C40.156,12.150 40.408,12.136 40.664,12.136 C45.036,12.136 48.581,15.680 48.581,20.052 C48.581,21.421 48.232,22.709 47.621,23.833 C48.163,23.716 48.724,23.650 49.301,23.650 C53.673,23.650 57.217,27.422 57.217,31.794 C57.217,36.166 53.673,39.937 49.301,39.937 C49.301,39.937 14.755,39.937 14.755,39.937 Z" id="path-2" class="cls-4" fill-rule="evenodd"/>
    <path d="M40.124,11.416 C40.124,15.788 36.580,19.332 32.208,19.332 C27.836,19.332 24.291,15.788 24.291,11.416 C24.291,7.043 27.836,3.499 32.208,3.499 C36.580,3.499 40.124,7.043 40.124,11.416 Z" id="path-3" class="cls-5" fill-rule="evenodd"/>
    <path d="M45.301,38.937 C45.301,38.937 10.755,38.937 10.755,38.937 C5.562,38.937 1.339,34.724 1.339,29.544 C1.339,24.539 5.272,20.435 10.214,20.154 C10.056,19.465 9.975,18.759 9.975,18.049 C9.975,13.110 13.798,9.047 18.641,8.664 C19.025,3.821 23.089,-0.001 28.028,-0.001 C32.968,-0.001 37.031,3.822 37.415,8.665 C42.258,9.048 46.081,13.112 46.081,18.052 C46.081,18.765 46.000,19.475 45.841,20.165 C50.782,20.446 54.717,24.545 54.717,29.544 C54.717,34.724 50.493,38.937 45.301,38.937 ZM10.755,23.139 C7.217,23.139 4.339,26.012 4.339,29.544 C4.339,33.069 7.217,35.937 10.755,35.937 C10.755,35.937 45.301,35.937 45.301,35.937 C48.839,35.937 51.717,33.069 51.717,29.544 C51.717,26.018 48.839,23.150 45.301,23.150 C44.853,23.150 44.395,23.200 43.938,23.299 C43.367,23.422 42.771,23.202 42.420,22.732 C42.069,22.263 42.023,21.631 42.304,21.116 C42.812,20.181 43.081,19.121 43.081,18.052 C43.081,14.514 40.202,11.635 36.664,11.635 C36.456,11.635 36.252,11.647 36.049,11.667 C35.604,11.708 35.163,11.551 34.847,11.235 C34.530,10.919 34.371,10.479 34.413,10.034 C34.432,9.830 34.444,9.624 34.444,9.415 C34.444,5.877 31.566,2.999 28.028,2.999 C24.490,2.999 21.611,5.877 21.611,9.415 C21.611,9.623 21.624,9.829 21.643,10.033 C21.685,10.478 21.525,10.918 21.209,11.234 C20.893,11.551 20.450,11.709 20.007,11.666 C19.804,11.646 19.600,11.634 19.392,11.634 C15.853,11.634 12.975,14.512 12.975,18.049 C12.975,19.132 13.236,20.162 13.752,21.110 C14.032,21.625 13.986,22.257 13.635,22.727 C13.284,23.196 12.690,23.417 12.117,23.293 C11.637,23.189 11.191,23.139 10.755,23.139 Z" id="path-4" class="cls-6" fill-rule="evenodd"/>
    <path d="M28.208,18.832 C23.016,18.832 18.791,14.608 18.791,9.416 C18.791,4.224 23.016,-0.001 28.208,-0.001 C33.400,-0.001 37.624,4.224 37.624,9.416 C37.624,14.608 33.400,18.832 28.208,18.832 ZM28.208,2.999 C24.670,2.999 21.791,5.877 21.791,9.416 C21.791,12.954 24.670,15.832 28.208,15.832 C31.746,15.832 34.624,12.954 34.624,9.416 C34.624,5.877 31.746,2.999 28.208,2.999 Z" id="path-5" class="cls-6" fill-rule="evenodd"/>
    <path d="M46.620,62.937 C46.620,62.937 9.436,62.937 9.436,62.937 C8.800,62.937 8.233,62.537 8.021,61.938 C8.021,61.938 0.136,39.678 0.136,39.678 C-0.165,38.839 -0.008,37.824 0.547,37.035 C1.038,36.337 1.768,35.937 2.550,35.937 C2.550,35.937 53.507,35.937 53.507,35.937 C54.289,35.937 55.019,36.338 55.510,37.036 C56.065,37.826 56.221,38.841 55.917,39.685 C55.917,39.685 48.034,61.938 48.034,61.938 C47.822,62.537 47.256,62.937 46.620,62.937 ZM10.495,59.937 C10.495,59.937 45.561,59.937 45.561,59.937 C45.561,59.937 52.999,38.937 52.999,38.937 C52.999,38.937 3.057,38.937 3.057,38.937 C3.057,38.937 10.495,59.937 10.495,59.937 Z" id="path-6" class="cls-6" fill-rule="evenodd"/>
    <path d="M30.637,10.916 C29.907,10.916 29.268,10.383 29.155,9.640 C28.991,8.553 28.103,8.337 27.834,8.296 C27.024,8.175 26.448,7.425 26.556,6.614 C26.663,5.803 27.388,5.227 28.198,5.319 C29.374,5.453 31.706,6.435 32.122,9.192 C32.245,10.011 31.682,10.775 30.862,10.899 C30.787,10.911 30.711,10.916 30.637,10.916 Z" id="path-7" class="cls-6" fill-rule="evenodd"/>
    <path d="M41.307,34.699 C37.947,34.699 34.315,33.814 33.267,33.539 C32.466,33.329 31.986,32.509 32.196,31.708 C32.406,30.907 33.230,30.429 34.027,30.637 C38.240,31.740 43.502,32.163 44.615,31.034 C45.015,30.630 44.986,30.387 44.976,30.296 C44.898,29.635 43.919,28.736 43.281,28.337 C42.581,27.898 42.364,26.975 42.800,26.273 C43.235,25.571 44.158,25.352 44.858,25.785 C45.145,25.962 47.671,27.579 47.954,29.935 C48.052,30.744 47.922,31.957 46.750,33.142 C45.587,34.319 43.505,34.698 41.307,34.699 Z" id="path-8" class="cls-6" fill-rule="evenodd"/>
  </g>
</svg>
