<svg xmlns="http://www.w3.org/2000/svg" xmlns:xlink="http://www.w3.org/1999/xlink" preserveAspectRatio="xMidYMid" width="66" height="29" viewBox="0 0 66 29">
  <defs>
    <style>

      .cls-3 {
        fill: #edc951;
      }

      .cls-5 {
        fill: #e56a77;
      }

      .cls-6 {
        fill: #000000;
      }
    </style>
  </defs>
  <g id="group-45svg">
    <path d="M19.717,5.000 C19.717,5.000 54.873,5.000 54.873,5.000 C58.442,5.000 60.000,7.665 60.000,11.234 C60.000,11.234 60.000,11.206 60.000,11.206 C60.000,12.315 60.455,13.000 59.346,13.000 C59.346,13.000 14.806,13.000 14.806,13.000 C14.045,13.000 12.000,12.794 12.000,12.033 C12.000,12.033 12.000,11.204 12.000,11.204 C12.000,7.743 16.255,5.000 19.717,5.000 Z" id="path-1" class="cls-3" fill-rule="evenodd"/>
    <path d="M55.042,29.000 C55.042,29.000 20.985,29.000 20.985,29.000 C17.251,29.000 14.000,26.354 14.000,22.620 C14.000,22.620 14.000,22.860 14.000,22.860 C14.000,21.856 15.018,21.000 16.022,21.000 C16.022,21.000 60.004,21.000 60.004,21.000 C60.994,21.000 60.000,21.603 60.000,22.593 C60.000,22.593 60.000,22.648 60.000,22.648 C60.000,26.367 58.761,29.000 55.042,29.000 Z" id="path-2" class="cls-3" fill-rule="evenodd"/>
    <path d="M66.000,17.000 C66.000,14.791 64.209,13.000 62.000,13.000 C62.000,13.000 10.000,13.000 10.000,13.000 C7.791,13.000 6.000,14.791 6.000,17.000 C6.000,17.000 6.000,17.000 6.000,17.000 C6.000,19.209 7.791,21.000 10.000,21.000 C10.000,21.000 62.000,21.000 62.000,21.000 C64.209,21.000 66.000,19.209 66.000,17.000 C66.000,17.000 66.000,17.000 66.000,17.000 Z" id="path-3" class="cls-5" fill-rule="evenodd"/>
    <path d="M8.557,11.056 C6.123,11.056 6.000,9.371 6.000,9.033 C6.000,9.033 6.000,8.205 6.000,8.205 C6.000,4.064 10.318,-0.000 14.717,-0.000 C14.717,-0.000 49.873,-0.000 49.873,-0.000 C53.988,-0.000 56.981,3.442 57.000,8.190 C57.000,8.195 57.000,8.201 57.000,8.206 C57.000,8.209 57.000,8.212 57.000,8.215 C57.000,8.218 57.000,8.221 57.000,8.224 C56.999,9.666 56.677,11.000 54.346,11.000 C54.346,11.000 9.806,11.000 9.806,11.000 C9.679,11.000 9.526,11.011 9.362,11.022 C9.102,11.039 8.822,11.056 8.557,11.056 ZM14.717,3.000 C11.999,3.000 9.128,5.560 9.004,8.038 C9.060,8.035 9.114,8.032 9.168,8.028 C9.403,8.013 9.623,8.000 9.806,8.000 C9.806,8.000 53.997,8.000 53.997,8.000 C53.919,5.551 52.621,3.000 49.873,3.000 C49.873,3.000 14.717,3.000 14.717,3.000 Z" id="path-4" class="cls-6" fill-rule="evenodd"/>
    <path d="M50.042,27.000 C50.042,27.000 15.985,27.000 15.985,27.000 C11.379,27.000 8.203,24.209 8.009,20.029 C8.003,19.974 8.000,19.917 8.000,19.860 C8.000,19.860 8.000,19.620 8.000,19.620 C8.000,19.490 8.017,19.364 8.048,19.244 C8.277,17.559 9.321,16.000 11.022,16.000 C11.022,16.000 55.004,16.000 55.004,16.000 C55.838,16.000 56.337,16.368 56.609,16.677 C57.257,17.413 57.140,18.330 57.055,19.000 C57.030,19.193 57.000,19.396 57.000,19.593 C57.000,24.320 54.464,27.000 50.042,27.000 ZM11.213,19.000 C11.124,19.153 11.011,19.468 11.000,19.814 C11.054,22.407 12.917,24.000 15.985,24.000 C15.985,24.000 50.042,24.000 50.042,24.000 C52.816,24.000 54.000,22.698 54.000,19.648 C54.000,19.417 54.014,19.204 54.035,19.000 C54.035,19.000 11.213,19.000 11.213,19.000 Z" id="path-5" class="cls-6" fill-rule="evenodd"/>
    <path d="M57.500,19.000 C57.500,19.000 5.500,19.000 5.500,19.000 C2.467,19.000 -0.000,16.533 -0.000,13.500 C-0.000,10.467 2.467,8.000 5.500,8.000 C5.500,8.000 57.500,8.000 57.500,8.000 C60.533,8.000 63.000,10.467 63.000,13.500 C63.000,16.533 60.533,19.000 57.500,19.000 ZM5.500,11.000 C4.122,11.000 3.000,12.122 3.000,13.500 C3.000,14.878 4.122,16.000 5.500,16.000 C5.500,16.000 57.500,16.000 57.500,16.000 C58.878,16.000 60.000,14.878 60.000,13.500 C60.000,12.122 58.878,11.000 57.500,11.000 C57.500,11.000 5.500,11.000 5.500,11.000 Z" id="path-6" class="cls-6" fill-rule="evenodd"/>
    <path d="M9.124,16.444 C8.975,16.444 8.827,16.377 8.729,16.250 C8.560,16.032 8.600,15.717 8.818,15.548 C14.045,11.503 20.412,13.492 20.681,13.579 C20.716,13.590 20.751,13.605 20.783,13.624 C20.827,13.651 25.256,16.220 30.140,14.548 C35.391,12.749 40.457,13.919 40.671,13.970 C40.718,13.981 40.765,14.000 40.808,14.024 C40.837,14.042 43.811,15.724 48.997,14.813 C54.413,13.866 55.950,14.208 56.109,14.251 C56.375,14.322 56.534,14.597 56.462,14.863 C56.392,15.127 56.123,15.286 55.857,15.219 C55.814,15.209 54.305,14.900 49.170,15.799 C43.991,16.705 40.897,15.209 40.376,14.929 C39.779,14.801 35.125,13.896 30.464,15.494 C25.377,17.237 20.899,14.842 20.327,14.516 C19.748,14.347 14.008,12.796 9.430,16.339 C9.339,16.410 9.231,16.444 9.124,16.444 Z" id="path-7" class="cls-6" fill-rule="evenodd"/>
    <path d="M48.914,6.859 C48.914,7.563 48.343,8.134 47.639,8.134 C46.935,8.134 46.364,7.563 46.364,6.859 C46.364,6.155 46.935,5.584 47.639,5.584 C48.343,5.584 48.914,6.155 48.914,6.859 Z" id="path-8" class="cls-6" fill-rule="evenodd"/>
    <path d="M34.570,6.859 C34.570,7.563 33.999,8.134 33.295,8.134 C32.591,8.134 32.021,7.563 32.021,6.859 C32.021,6.155 32.591,5.584 33.295,5.584 C33.999,5.584 34.570,6.155 34.570,6.859 Z" id="path-9" class="cls-6" fill-rule="evenodd"/>
    <path d="M20.227,6.859 C20.227,7.563 19.656,8.134 18.952,8.134 C18.248,8.134 17.677,7.563 17.677,6.859 C17.677,6.155 18.248,5.584 18.952,5.584 C19.656,5.584 20.227,6.155 20.227,6.859 Z" id="path-10" class="cls-6" fill-rule="evenodd"/>
    <path d="M48.914,22.796 C48.914,23.501 48.343,24.072 47.639,24.072 C46.935,24.072 46.364,23.501 46.364,22.796 C46.364,22.092 46.935,21.521 47.639,21.521 C48.343,21.521 48.914,22.092 48.914,22.796 Z" id="path-11" class="cls-6" fill-rule="evenodd"/>
    <path d="M34.570,22.796 C34.570,23.501 33.999,24.072 33.295,24.072 C32.591,24.072 32.021,23.501 32.021,22.796 C32.021,22.092 32.591,21.521 33.295,21.521 C33.999,21.521 34.570,22.092 34.570,22.796 Z" id="path-12" class="cls-6" fill-rule="evenodd"/>
    <path d="M20.227,22.796 C20.227,23.501 19.656,24.072 18.952,24.072 C18.248,24.072 17.677,23.501 17.677,22.796 C17.677,22.092 18.248,21.521 18.952,21.521 C19.656,21.521 20.227,22.092 20.227,22.796 Z" id="path-13" class="cls-6" fill-rule="evenodd"/>
  </g>
</svg>
