<svg xmlns="http://www.w3.org/2000/svg" xmlns:xlink="http://www.w3.org/1999/xlink" preserveAspectRatio="xMidYMid" width="67" height="66" viewBox="0 0 67 66">
  <defs>
    <style>

      .cls-3 {
        fill: #81bda4;
      }

      .cls-4 {
        fill: #edc951;
      }

      .cls-5 {
        fill: #e56a77;
      }

      .cls-9 {
        fill: #000000;
      }
    </style>
  </defs>
  <g id="group-50svg">
    <path d="M63.928,41.775 C63.928,41.775 65.898,38.153 65.898,38.153 C66.822,36.563 66.756,34.600 65.832,33.010 C65.832,33.010 63.960,29.388 63.960,29.388 C63.507,28.607 63.500,27.720 63.500,26.817 C63.500,26.817 63.500,23.127 63.500,23.127 C63.500,21.304 62.264,19.617 60.687,18.701 C60.687,18.701 57.248,16.780 57.248,16.780 C56.478,16.333 55.772,15.694 55.326,14.925 C55.326,14.925 53.372,11.615 53.372,11.615 C52.456,10.037 50.736,9.062 48.912,9.062 C48.912,9.062 45.224,9.062 45.224,9.062 C44.320,9.062 43.433,8.828 42.651,8.374 C42.651,8.374 39.030,6.272 39.030,6.272 C37.440,5.349 35.477,5.350 33.887,6.273 C33.887,6.273 30.266,8.373 30.266,8.373 C29.484,8.827 28.597,9.062 27.693,9.062 C27.693,9.062 24.005,9.062 24.005,9.062 C22.181,9.062 20.494,10.037 19.578,11.615 C19.578,11.615 17.657,14.923 17.657,14.923 C17.210,15.692 16.571,16.332 15.802,16.779 C15.802,16.779 12.771,18.701 12.771,18.701 C11.194,19.617 10.500,21.304 10.500,23.127 C10.500,23.127 10.500,26.817 10.500,26.817 C10.500,27.720 9.985,28.607 9.531,29.388 C9.531,29.388 7.289,33.010 7.289,33.010 C6.365,34.600 6.297,36.563 7.221,38.153 C7.221,38.153 9.565,41.775 9.565,41.775 C10.019,42.556 10.500,43.443 10.500,44.347 C10.500,44.347 10.500,48.035 10.500,48.035 C10.500,49.860 11.194,51.546 12.771,52.462 C12.771,52.462 15.940,54.383 15.940,54.383 C16.709,54.830 17.279,55.469 17.727,56.238 C17.727,56.238 19.612,59.530 19.612,59.530 C20.528,61.107 22.181,62.062 24.005,62.062 C24.005,62.062 27.693,62.062 27.693,62.062 C28.597,62.062 29.484,62.316 30.266,62.770 C30.266,62.770 33.887,64.881 33.887,64.881 C35.477,65.805 37.440,65.808 39.030,64.885 C39.030,64.885 42.651,62.768 42.651,62.768 C43.433,62.314 44.320,62.062 45.224,62.062 C45.224,62.062 48.912,62.062 48.912,62.062 C50.736,62.062 52.423,61.107 53.339,59.530 C53.339,59.530 55.260,56.230 55.260,56.230 C55.707,55.462 56.346,54.826 57.115,54.379 C57.115,54.379 60.687,52.460 60.687,52.460 C62.264,51.544 63.500,49.860 63.500,48.035 C63.500,48.035 63.500,44.347 63.500,44.347 C63.500,43.443 63.474,42.556 63.928,41.775 Z" id="path-1" class="cls-3" fill-rule="evenodd"/>
    <path d="M57.072,35.581 C57.072,47.119 47.719,56.471 36.183,56.471 C24.645,56.471 15.293,47.119 15.293,35.581 C15.293,24.045 24.645,14.692 36.183,14.692 C47.719,14.692 57.072,24.045 57.072,35.581 Z" id="path-2" class="cls-4" fill-rule="evenodd"/>
    <path d="M40.509,25.017 C40.509,27.511 38.486,29.533 35.993,29.533 C33.499,29.533 31.477,27.511 31.477,25.017 C31.477,22.523 33.499,20.502 35.993,20.502 C38.486,20.502 40.509,22.523 40.509,25.017 Z" id="path-3" class="cls-5" fill-rule="evenodd"/>
    <path d="M40.509,46.366 C40.509,48.859 38.486,50.881 35.993,50.881 C33.499,50.881 31.477,48.859 31.477,46.366 C31.477,43.872 33.499,41.849 35.993,41.849 C38.486,41.849 40.509,43.872 40.509,46.366 Z" id="path-4" class="cls-5" fill-rule="evenodd"/>
    <path d="M52.250,35.691 C52.250,38.185 50.228,40.207 47.734,40.207 C45.240,40.207 43.219,38.185 43.219,35.691 C43.219,33.197 45.240,31.176 47.734,31.176 C50.228,31.176 52.250,33.197 52.250,35.691 Z" id="path-5" class="cls-5" fill-rule="evenodd"/>
    <path d="M28.768,35.691 C28.768,38.185 26.745,40.207 24.252,40.207 C21.758,40.207 19.736,38.185 19.736,35.691 C19.736,33.197 21.758,31.176 24.252,31.176 C26.745,31.176 28.768,33.197 28.768,35.691 Z" id="path-6" class="cls-5" fill-rule="evenodd"/>
    <path d="M31.183,53.971 C18.837,53.971 8.793,43.927 8.793,31.581 C8.793,19.236 18.837,9.192 31.183,9.192 C43.527,9.192 53.571,19.236 53.571,31.581 C53.571,43.927 43.527,53.971 31.183,53.971 ZM31.183,12.192 C20.491,12.192 11.793,20.890 11.793,31.581 C11.793,42.273 20.491,50.971 31.183,50.971 C41.874,50.971 50.571,42.273 50.571,31.581 C50.571,20.890 41.874,12.192 31.183,12.192 Z" id="path-7" class="cls-9" fill-rule="evenodd"/>
    <path d="M31.554,62.983 C30.363,62.983 29.180,62.662 28.133,62.053 C28.133,62.053 24.478,59.796 24.478,59.796 C23.934,59.481 23.213,59.062 22.693,59.062 C22.693,59.062 19.005,59.062 19.005,59.062 C16.487,59.062 14.402,57.958 13.284,56.033 C13.284,56.033 11.395,53.038 11.395,53.038 C11.049,52.445 10.598,51.991 10.061,51.680 C10.061,51.680 6.766,49.758 6.766,49.758 C4.752,48.588 3.500,46.395 3.500,44.036 C3.500,44.036 3.500,40.347 3.500,40.347 C3.500,39.734 3.322,39.105 2.987,38.529 C2.987,38.529 0.864,34.913 0.864,34.913 C-0.329,32.859 -0.326,30.310 0.867,28.257 C0.867,28.257 2.986,24.631 2.986,24.631 C3.321,24.054 3.500,23.426 3.500,22.817 C3.500,22.817 3.500,19.127 3.500,19.127 C3.500,16.748 4.752,14.543 6.768,13.372 C6.768,13.372 10.034,11.428 10.034,11.428 C10.547,11.130 11.013,10.642 11.360,10.044 C11.360,10.044 13.269,6.632 13.269,6.632 C14.533,4.455 16.779,3.062 19.005,3.062 C19.005,3.062 22.693,3.062 22.693,3.062 C23.489,3.062 24.085,3.043 24.513,2.795 C24.513,2.795 28.195,0.880 28.195,0.880 C30.121,-0.242 32.793,-0.306 34.783,0.850 C34.783,0.850 38.370,2.808 38.370,2.808 C38.781,3.045 39.326,3.062 40.055,3.062 C40.055,3.062 43.912,3.062 43.912,3.062 C46.139,3.062 48.386,4.455 49.638,6.611 C49.638,6.611 51.584,10.212 51.584,10.212 C51.874,10.712 52.329,11.165 52.876,11.483 C52.876,11.483 56.188,13.403 56.188,13.403 C58.231,14.590 59.500,16.783 59.500,19.127 C59.500,19.127 59.500,22.817 59.500,22.817 C59.500,23.470 59.665,24.099 59.976,24.635 C59.976,24.635 62.068,28.260 62.068,28.260 C63.260,30.310 63.261,32.858 62.070,34.907 C62.070,34.907 59.976,38.526 59.976,38.526 C59.664,39.063 59.500,39.691 59.500,40.347 C59.500,40.347 59.500,44.036 59.500,44.036 C59.500,46.359 58.231,48.539 56.190,49.726 C56.190,49.726 52.856,51.621 52.856,51.621 C52.271,51.961 51.842,52.368 51.557,52.859 C51.557,52.859 49.622,56.056 49.622,56.056 C48.518,57.958 46.432,59.062 43.912,59.062 C43.912,59.062 40.224,59.062 40.224,59.062 C39.691,59.062 39.006,59.435 38.404,59.784 C38.404,59.784 34.844,62.083 34.844,62.083 C33.811,62.684 32.694,62.983 31.554,62.983 ZM19.005,6.062 C17.847,6.062 16.589,6.889 15.875,8.118 C15.875,8.118 13.966,11.531 13.966,11.531 C13.339,12.608 12.510,13.459 11.555,14.014 C11.555,14.014 8.289,15.958 8.289,15.958 C7.180,16.602 6.500,17.813 6.500,19.127 C6.500,19.127 6.500,22.817 6.500,22.817 C6.500,23.955 6.181,25.105 5.578,26.142 C5.578,26.142 3.459,29.767 3.459,29.767 C2.808,30.888 2.806,32.281 3.455,33.400 C3.455,33.400 5.578,37.016 5.578,37.016 C6.183,38.056 6.500,39.205 6.500,40.347 C6.500,40.347 6.500,44.036 6.500,44.036 C6.500,45.330 7.181,46.529 8.275,47.165 C8.275,47.165 11.571,49.087 11.571,49.087 C12.555,49.659 13.381,50.488 13.961,51.484 C13.961,51.484 15.850,54.480 15.850,54.480 C16.654,55.863 18.170,56.062 19.005,56.062 C19.005,56.062 22.693,56.062 22.693,56.062 C24.020,56.062 25.176,56.733 26.018,57.223 C26.018,57.223 29.675,59.480 29.675,59.480 C30.742,60.100 32.203,60.147 33.277,59.526 C33.277,59.526 36.838,57.227 36.838,57.227 C37.838,56.644 38.946,56.062 40.224,56.062 C40.224,56.062 43.912,56.062 43.912,56.062 C44.748,56.062 46.266,55.863 47.042,54.526 C47.042,54.526 48.977,51.329 48.977,51.329 C49.518,50.397 50.303,49.635 51.362,49.019 C51.362,49.019 54.695,47.125 54.695,47.125 C55.820,46.471 56.500,45.313 56.500,44.036 C56.500,44.036 56.500,40.347 56.500,40.347 C56.500,39.163 56.805,38.013 57.381,37.021 C57.381,37.021 59.476,33.402 59.476,33.402 C60.127,32.280 60.125,30.887 59.473,29.764 C59.473,29.764 57.380,26.138 57.380,26.138 C56.805,25.147 56.500,23.998 56.500,22.817 C56.500,22.817 56.500,19.127 56.500,19.127 C56.500,17.848 55.804,16.649 54.684,15.998 C54.684,15.998 51.371,14.078 51.371,14.078 C50.372,13.498 49.541,12.668 48.967,11.678 C48.967,11.678 47.020,8.077 47.020,8.077 C46.330,6.889 45.071,6.062 43.912,6.062 C43.912,6.062 40.224,6.062 40.224,6.062 C40.224,6.062 40.500,4.562 40.500,4.562 C40.500,4.562 40.500,6.062 40.500,6.062 C39.500,6.062 38.226,6.062 37.121,5.421 C37.121,5.421 33.423,3.463 33.423,3.463 C32.276,2.798 30.828,2.850 29.696,3.508 C29.696,3.508 25.984,5.423 25.984,5.423 C24.887,6.062 23.607,6.062 22.693,6.062 C22.693,6.062 19.005,6.062 19.005,6.062 Z" id="path-8" class="cls-9" fill-rule="evenodd"/>
    <path d="M30.993,27.033 C27.676,27.033 24.977,24.334 24.977,21.018 C24.977,17.701 27.676,15.002 30.993,15.002 C34.311,15.002 37.009,17.701 37.009,21.018 C37.009,24.334 34.311,27.033 30.993,27.033 ZM30.993,18.002 C29.330,18.002 27.977,19.355 27.977,21.018 C27.977,22.680 29.330,24.033 30.993,24.033 C32.656,24.033 34.009,22.680 34.009,21.018 C34.009,19.355 32.656,18.002 30.993,18.002 Z" id="path-9" class="cls-9" fill-rule="evenodd"/>
    <path d="M30.993,48.381 C27.676,48.381 24.977,45.683 24.977,42.366 C24.977,39.048 27.676,36.350 30.993,36.350 C34.311,36.350 37.009,39.048 37.009,42.366 C37.009,45.683 34.311,48.381 30.993,48.381 ZM30.993,39.350 C29.330,39.350 27.977,40.703 27.977,42.366 C27.977,44.028 29.330,45.381 30.993,45.381 C32.656,45.381 34.009,44.028 34.009,42.366 C34.009,40.703 32.656,39.350 30.993,39.350 Z" id="path-10" class="cls-9" fill-rule="evenodd"/>
    <path d="M42.734,37.707 C39.417,37.707 36.719,35.008 36.719,31.691 C36.719,28.374 39.417,25.676 42.734,25.676 C46.052,25.676 48.750,28.374 48.750,31.691 C48.750,35.008 46.052,37.707 42.734,37.707 ZM42.734,28.676 C41.071,28.676 39.719,30.029 39.719,31.691 C39.719,33.354 41.071,34.707 42.734,34.707 C44.397,34.707 45.750,33.354 45.750,31.691 C45.750,30.029 44.397,28.676 42.734,28.676 Z" id="path-11" class="cls-9" fill-rule="evenodd"/>
    <path d="M19.252,37.707 C15.935,37.707 13.236,35.008 13.236,31.691 C13.236,28.374 15.935,25.676 19.252,25.676 C22.569,25.676 25.268,28.374 25.268,31.691 C25.268,35.008 22.569,37.707 19.252,37.707 ZM19.252,28.676 C17.589,28.676 16.236,30.029 16.236,31.691 C16.236,33.354 17.589,34.707 19.252,34.707 C20.915,34.707 22.268,33.354 22.268,31.691 C22.268,30.029 20.915,28.676 19.252,28.676 Z" id="path-12" class="cls-9" fill-rule="evenodd"/>
  </g>
</svg>
