<svg xmlns="http://www.w3.org/2000/svg" xmlns:xlink="http://www.w3.org/1999/xlink" preserveAspectRatio="xMidYMid" width="59" height="60" viewBox="0 0 59 60">
  <defs>
    <style>

      .cls-3 {
        fill: #000000;
      }

      .cls-5 {
        fill: #99746a;
      }

      .cls-7 {
        fill: #edc951;
      }
    </style>
  </defs>
  <g id="group-55svg">
    <path d="M2.952,2.944 C2.952,2.944 0.251,5.644 0.251,5.644 C-0.299,6.195 0.171,7.129 0.941,7.015 C0.941,7.015 5.645,6.318 5.645,6.318 C5.998,6.266 6.274,5.990 6.326,5.637 C6.326,5.637 7.023,0.934 7.023,0.934 C7.137,0.163 6.203,-0.307 5.652,0.244 C5.652,0.244 2.952,2.944 2.952,2.944 Z" id="path-1" class="cls-3" fill-rule="evenodd"/>
    <path d="M55.475,57.911 C55.475,57.911 58.219,55.955 58.219,55.955 C58.778,55.556 58.505,54.674 57.818,54.661 C57.818,54.661 53.623,54.582 53.623,54.582 C53.308,54.576 53.027,54.776 52.930,55.076 C52.930,55.076 51.639,59.068 51.639,59.068 C51.427,59.722 52.172,60.268 52.731,59.868 C52.731,59.868 55.475,57.911 55.475,57.911 Z" id="path-2" class="cls-3" fill-rule="evenodd"/>
    <path d="M46.462,41.056 C48.256,39.775 51.899,39.972 53.514,42.236 C53.514,42.236 57.840,48.302 57.840,48.302 C59.455,50.566 58.454,54.074 56.660,55.354 C54.865,56.634 51.222,56.437 49.607,54.174 C49.607,54.174 45.281,48.107 45.281,48.107 C43.667,45.844 44.668,42.335 46.462,41.056 Z" id="path-3" class="cls-5" fill-rule="evenodd"/>
    <path d="M27.587,36.325 C25.412,36.675 22.235,34.881 21.793,32.135 C21.793,32.135 20.612,24.778 20.612,24.778 C20.171,22.033 22.626,19.334 24.803,18.985 C26.978,18.635 30.156,20.429 30.597,23.175 C30.597,23.175 31.778,30.531 31.778,30.531 C32.219,33.277 29.764,35.975 27.587,36.325 Z" id="path-4" class="cls-5" fill-rule="evenodd"/>
    <path d="M22.830,19.822 C21.271,21.380 17.645,21.788 15.679,19.822 C15.679,19.822 10.411,14.553 10.411,14.553 C8.444,12.587 8.852,8.961 10.411,7.403 C11.969,5.844 15.595,5.436 17.561,7.403 C17.561,7.403 22.830,12.671 22.830,12.671 C24.796,14.638 24.388,18.263 22.830,19.822 Z" id="path-5" class="cls-7" fill-rule="evenodd"/>
    <path d="M45.997,40.179 C46.346,38.003 44.552,34.826 41.806,34.385 C41.806,34.385 34.450,33.203 34.450,33.203 C31.704,32.763 29.006,35.218 28.656,37.393 C28.307,39.570 30.101,42.747 32.847,43.187 C32.847,43.187 40.203,44.369 40.203,44.369 C42.948,44.810 45.647,42.354 45.997,40.179 Z" id="path-6" class="cls-7" fill-rule="evenodd"/>
    <path d="M49.857,56.643 C47.592,56.643 45.547,55.672 44.386,54.045 C44.386,54.045 40.060,47.978 40.060,47.978 C39.068,46.588 38.736,44.788 39.124,42.909 C39.476,41.209 40.398,39.685 41.591,38.835 C42.557,38.145 43.861,37.766 45.265,37.766 C47.530,37.766 49.575,38.738 50.735,40.365 C50.735,40.365 55.061,46.431 55.061,46.431 C57.170,49.388 55.948,53.851 53.531,55.576 C52.565,56.264 51.260,56.643 49.857,56.643 ZM45.265,40.766 C44.503,40.766 43.781,40.957 43.333,41.277 C42.757,41.687 42.258,42.566 42.062,43.516 C41.848,44.553 42.009,45.544 42.502,46.236 C42.502,46.236 46.829,52.303 46.829,52.303 C47.534,53.292 48.855,53.643 49.857,53.643 C50.619,53.643 51.341,53.452 51.789,53.133 C52.906,52.336 53.739,49.743 52.619,48.173 C52.619,48.173 48.293,42.107 48.293,42.107 C47.588,41.119 46.266,40.766 45.265,40.766 Z" id="path-7" class="cls-3" fill-rule="evenodd"/>
    <path d="M23.024,36.869 C20.209,36.869 16.840,34.660 16.312,31.373 C16.312,31.373 15.131,24.017 15.131,24.017 C14.860,22.330 15.362,20.569 16.545,19.058 C17.615,17.691 19.118,16.736 20.565,16.504 C23.465,16.037 27.499,18.329 28.078,21.937 C28.078,21.937 29.259,29.293 29.259,29.293 C29.834,32.879 26.757,36.335 23.825,36.807 C23.567,36.848 23.299,36.869 23.024,36.869 ZM21.367,19.441 C21.255,19.441 21.146,19.449 21.041,19.466 C20.342,19.578 19.505,20.143 18.907,20.907 C18.255,21.741 17.958,22.701 18.093,23.541 C18.093,23.541 19.274,30.897 19.274,30.897 C19.563,32.693 21.813,34.085 23.350,33.844 C24.704,33.627 26.603,31.673 26.297,29.769 C26.297,29.769 25.116,22.413 25.116,22.413 C24.847,20.740 22.880,19.441 21.367,19.441 Z" id="path-8" class="cls-3" fill-rule="evenodd"/>
    <path d="M15.175,21.648 C13.375,21.648 11.757,21.021 10.619,19.882 C10.619,19.882 5.350,14.614 5.350,14.614 C2.782,12.046 3.250,7.442 5.350,5.342 C6.456,4.237 8.218,3.577 10.065,3.577 C11.865,3.577 13.483,4.204 14.622,5.342 C14.622,5.342 19.890,10.611 19.890,10.611 C21.098,11.818 21.723,13.539 21.650,15.456 C21.584,17.191 20.927,18.846 19.890,19.882 C18.784,20.988 17.022,21.648 15.175,21.648 ZM10.065,6.577 C9.044,6.577 8.002,6.933 7.471,7.463 C6.501,8.433 6.108,11.129 7.471,12.493 C7.471,12.493 12.740,17.761 12.740,17.761 C13.511,18.533 14.597,18.648 15.175,18.648 C16.196,18.648 17.238,18.291 17.769,17.761 C18.269,17.261 18.616,16.312 18.652,15.343 C18.692,14.285 18.371,13.333 17.769,12.732 C17.769,12.732 12.500,7.463 12.500,7.463 C11.728,6.692 10.643,6.577 10.065,6.577 Z" id="path-9" class="cls-3" fill-rule="evenodd"/>
    <path d="M36.856,44.921 C36.856,44.921 36.856,44.921 36.856,44.921 C36.558,44.921 36.257,44.896 35.965,44.850 C35.965,44.850 28.609,43.669 28.609,43.669 C26.923,43.397 25.408,42.369 24.343,40.773 C23.379,39.330 22.943,37.603 23.175,36.156 C23.593,33.553 26.415,30.652 29.796,30.652 C30.095,30.652 30.395,30.676 30.688,30.723 C30.688,30.723 38.044,31.904 38.044,31.904 C39.730,32.174 41.245,33.202 42.310,34.798 C43.273,36.243 43.710,37.969 43.478,39.417 C43.060,42.019 40.238,44.921 36.856,44.921 ZM29.796,33.652 C28.083,33.652 26.352,35.291 26.137,36.632 C26.025,37.330 26.300,38.302 26.838,39.109 C27.426,39.989 28.245,40.572 29.084,40.707 C29.084,40.707 36.440,41.889 36.440,41.889 C38.301,42.185 40.283,40.391 40.516,38.940 C40.628,38.242 40.353,37.269 39.814,36.463 C39.227,35.583 38.408,35.001 37.568,34.865 C37.568,34.865 30.212,33.685 30.212,33.685 C30.073,33.662 29.934,33.652 29.796,33.652 Z" id="path-10" class="cls-3" fill-rule="evenodd"/>
    <path d="M49.121,50.738 C48.936,50.738 48.748,50.704 48.566,50.631 C48.225,50.496 47.427,50.178 44.646,46.177 C44.174,45.497 44.342,44.562 45.022,44.090 C45.703,43.616 46.637,43.785 47.110,44.465 C48.078,45.857 49.374,47.541 49.818,47.910 C50.491,48.261 50.802,49.072 50.515,49.793 C50.281,50.381 49.717,50.738 49.121,50.738 Z" id="path-11" class="cls-3" fill-rule="evenodd"/>
    <path d="M22.206,31.049 C21.735,31.049 21.272,30.829 20.980,30.415 C20.768,30.116 20.272,29.415 20.117,24.546 C20.091,23.718 20.740,23.026 21.568,22.999 C22.403,22.984 23.089,23.623 23.115,24.451 C23.169,26.145 23.340,28.264 23.512,28.814 C23.884,29.476 23.704,30.325 23.071,30.773 C22.808,30.959 22.505,31.049 22.206,31.049 Z" id="path-12" class="cls-3" fill-rule="evenodd"/>
  </g>
</svg>
