<svg xmlns="http://www.w3.org/2000/svg" xmlns:xlink="http://www.w3.org/1999/xlink" preserveAspectRatio="xMidYMid" width="39" height="63" viewBox="0 0 39 63">
  <defs>
    <style>

      .cls-3 {
        fill: #81bda4;
      }

      .cls-4 {
        fill: #edc951;
      }

      .cls-8 {
        fill: #000000;
      }
    </style>
  </defs>
  <g id="group-20svg">
    <path d="M38.554,37.716 C38.554,49.442 32.198,62.506 22.027,62.506 C11.856,62.506 5.500,50.072 5.500,37.716 C5.500,25.360 11.856,19.536 22.027,19.536 C32.198,19.536 38.554,25.989 38.554,37.716 Z" id="path-1" class="cls-3" fill-rule="evenodd"/>
    <path d="M24.398,17.316 C24.398,17.316 26.415,8.662 35.177,13.965 C35.177,13.965 28.202,15.375 28.202,19.375 C28.202,19.375 24.513,19.375 24.513,19.375 C24.513,19.375 24.398,17.316 24.398,17.316 Z" id="path-2" class="cls-4" fill-rule="evenodd"/>
    <path d="M26.725,12.818 C26.725,12.818 24.167,2.691 11.947,6.841 C11.947,6.841 22.784,11.453 22.784,18.369 C22.784,18.369 26.725,12.818 26.725,12.818 Z" id="path-3" class="cls-4" fill-rule="evenodd"/>
    <path d="M20.362,12.739 C20.362,12.739 16.789,11.987 12.985,14.948 C12.985,14.948 17.020,15.603 17.942,17.793 C17.942,17.793 22.784,18.369 22.784,18.369 C22.784,18.369 22.233,14.571 20.362,12.739 Z" id="path-4" class="cls-4" fill-rule="evenodd"/>
    <path d="M22.784,7.383 C22.784,7.383 25.551,1.077 36.041,2.807 C36.041,2.807 27.441,6.586 25.747,10.576 C25.747,10.576 24.052,7.349 22.784,7.383 Z" id="path-5" class="cls-4" fill-rule="evenodd"/>
    <path d="M24.202,19.375 C24.202,19.375 20.513,19.375 20.513,19.375 C19.722,19.375 19.066,18.760 19.016,17.970 C19.016,17.970 18.901,16.161 18.901,16.161 C18.892,16.017 18.904,15.871 18.936,15.730 C19.440,13.536 21.589,9.387 26.109,9.387 C27.883,9.387 29.850,10.033 31.954,11.307 C32.486,11.629 32.764,12.247 32.652,12.860 C32.540,13.473 32.061,13.952 31.449,14.065 C29.959,14.344 25.702,15.643 25.702,17.875 C25.702,18.704 25.031,19.375 24.202,19.375 ZM21.921,16.375 C21.921,16.375 22.939,16.375 22.939,16.375 C23.549,14.526 25.242,13.272 26.913,12.454 C26.635,12.410 26.367,12.387 26.109,12.387 C23.233,12.387 22.145,15.427 21.911,16.217 C21.911,16.217 21.921,16.375 21.921,16.375 Z" id="path-6" class="cls-8" fill-rule="evenodd"/>
    <path d="M18.784,18.870 C18.632,18.870 18.478,18.847 18.328,18.799 C17.706,18.601 17.284,18.022 17.284,17.370 C17.284,12.509 10.120,8.396 7.360,7.222 C6.788,6.978 6.425,6.407 6.448,5.785 C6.472,5.164 6.876,4.621 7.465,4.421 C9.572,3.705 11.561,3.343 13.378,3.343 C20.301,3.343 23.471,8.646 24.179,11.451 C24.287,11.877 24.203,12.329 23.948,12.686 C23.948,12.686 20.007,18.238 20.007,18.238 C19.720,18.642 19.260,18.870 18.784,18.870 ZM12.193,6.404 C14.769,8.001 18.007,10.528 19.483,13.793 C19.483,13.793 21.062,11.570 21.062,11.570 C20.471,10.062 18.494,6.343 13.378,6.343 C12.995,6.343 12.599,6.363 12.193,6.404 Z" id="path-7" class="cls-8" fill-rule="evenodd"/>
    <path d="M18.784,18.870 C18.725,18.870 18.665,18.866 18.606,18.859 C18.606,18.859 13.765,18.283 13.765,18.283 C13.229,18.219 12.769,17.873 12.560,17.375 C12.110,16.310 9.751,15.592 8.745,15.428 C8.155,15.332 7.679,14.897 7.532,14.319 C7.384,13.741 7.593,13.130 8.063,12.764 C10.981,10.493 13.833,10.154 15.273,10.154 C16.072,10.154 16.578,10.252 16.671,10.271 C16.951,10.330 17.208,10.468 17.412,10.667 C19.582,12.792 20.205,16.714 20.268,17.154 C20.335,17.616 20.184,18.082 19.858,18.416 C19.574,18.708 19.185,18.870 18.784,18.870 ZM14.860,15.392 C14.860,15.392 16.824,15.626 16.824,15.626 C16.547,14.767 16.152,13.837 15.626,13.164 C15.067,13.130 14.003,13.150 12.674,13.610 C13.499,14.041 14.300,14.621 14.860,15.392 Z" id="path-8" class="cls-8" fill-rule="evenodd"/>
    <path d="M21.746,11.075 C21.191,11.075 20.680,10.768 20.419,10.274 C19.877,9.247 19.040,8.120 18.644,7.874 C18.198,7.827 17.786,7.582 17.538,7.204 C17.261,6.779 17.206,6.244 17.410,5.780 C17.514,5.545 20.042,0.006 28.575,0.006 C29.748,0.006 30.997,0.114 32.286,0.327 C32.940,0.435 33.446,0.960 33.529,1.619 C33.613,2.277 33.253,2.912 32.645,3.180 C29.529,4.552 24.190,7.661 23.127,10.162 C22.901,10.695 22.388,11.050 21.809,11.074 C21.788,11.075 21.767,11.075 21.746,11.075 ZM20.921,5.892 C21.230,6.176 21.519,6.500 21.783,6.840 C23.003,5.459 24.685,4.205 26.308,3.178 C23.412,3.640 21.767,4.939 20.921,5.892 Z" id="path-9" class="cls-8" fill-rule="evenodd"/>
    <path d="M18.027,63.006 C6.743,63.006 -0.000,49.639 -0.000,36.716 C-0.000,24.025 6.402,17.036 18.027,17.036 C29.315,17.036 36.054,24.393 36.054,36.716 C36.054,49.359 29.162,63.006 18.027,63.006 ZM18.027,20.036 C8.196,20.036 3.000,25.804 3.000,36.716 C3.000,47.917 8.745,60.006 18.027,60.006 C27.016,60.006 33.054,47.963 33.054,36.716 C33.054,26.116 27.577,20.036 18.027,20.036 Z" id="path-10" class="cls-8" fill-rule="evenodd"/>
    <path d="M28.730,40.183 C28.323,40.183 27.916,40.017 27.620,39.692 C27.620,39.692 25.530,37.393 25.530,37.393 C25.530,37.393 23.180,39.744 23.180,39.744 C22.594,40.330 21.644,40.330 21.059,39.744 C20.473,39.158 20.473,38.208 21.059,37.623 C21.059,37.623 24.521,34.160 24.521,34.160 C24.812,33.870 25.201,33.696 25.618,33.721 C26.028,33.731 26.416,33.908 26.692,34.211 C26.692,34.211 29.840,37.674 29.840,37.674 C30.397,38.287 30.352,39.236 29.739,39.793 C29.452,40.054 29.090,40.183 28.730,40.183 Z" id="path-11" class="cls-8" fill-rule="evenodd"/>
    <path d="M13.620,40.183 C13.212,40.183 12.806,40.017 12.510,39.692 C12.510,39.692 10.420,37.393 10.420,37.393 C10.420,37.393 8.069,39.744 8.069,39.744 C7.483,40.330 6.533,40.330 5.948,39.744 C5.362,39.158 5.362,38.208 5.948,37.623 C5.948,37.623 9.411,34.160 9.411,34.160 C9.701,33.870 10.095,33.696 10.507,33.721 C10.917,33.731 11.306,33.908 11.581,34.211 C11.581,34.211 14.729,37.674 14.729,37.674 C15.287,38.287 15.242,39.236 14.629,39.793 C14.341,40.054 13.980,40.183 13.620,40.183 Z" id="path-12" class="cls-8" fill-rule="evenodd"/>
    <path d="M21.175,44.905 C20.767,44.905 20.361,44.740 20.065,44.414 C20.065,44.414 17.975,42.115 17.975,42.115 C17.975,42.115 15.624,44.466 15.624,44.466 C15.039,45.052 14.089,45.052 13.503,44.466 C12.917,43.880 12.917,42.930 13.503,42.345 C13.503,42.345 16.966,38.882 16.966,38.882 C17.256,38.592 17.648,38.418 18.062,38.443 C18.473,38.453 18.861,38.630 19.137,38.934 C19.137,38.934 22.285,42.396 22.285,42.396 C22.842,43.009 22.797,43.958 22.184,44.515 C21.896,44.776 21.535,44.905 21.175,44.905 Z" id="path-13" class="cls-8" fill-rule="evenodd"/>
    <path d="M28.730,29.795 C28.322,29.795 27.916,29.629 27.620,29.304 C27.620,29.304 25.530,27.005 25.530,27.005 C25.530,27.005 23.180,29.355 23.180,29.355 C22.594,29.941 21.645,29.941 21.059,29.355 C20.473,28.770 20.473,27.820 21.059,27.234 C21.059,27.234 24.521,23.771 24.521,23.771 C24.812,23.481 25.201,23.313 25.618,23.332 C26.028,23.342 26.416,23.519 26.692,23.823 C26.692,23.823 29.840,27.286 29.840,27.286 C30.397,27.899 30.352,28.848 29.739,29.405 C29.452,29.666 29.090,29.795 28.730,29.795 Z" id="path-14" class="cls-8" fill-rule="evenodd"/>
    <path d="M13.620,29.795 C13.212,29.795 12.806,29.629 12.510,29.304 C12.510,29.304 10.420,27.005 10.420,27.005 C10.420,27.005 8.069,29.355 8.069,29.355 C7.483,29.941 6.534,29.941 5.948,29.355 C5.362,28.770 5.362,27.820 5.948,27.234 C5.948,27.234 9.411,23.771 9.411,23.771 C9.701,23.481 10.095,23.313 10.507,23.332 C10.917,23.342 11.306,23.519 11.581,23.823 C11.581,23.823 14.729,27.286 14.729,27.286 C15.287,27.899 15.242,28.848 14.628,29.405 C14.341,29.666 13.980,29.795 13.620,29.795 Z" id="path-15" class="cls-8" fill-rule="evenodd"/>
    <path d="M21.175,34.517 C20.767,34.517 20.361,34.351 20.065,34.026 C20.065,34.026 17.975,31.727 17.975,31.727 C17.975,31.727 15.624,34.078 15.624,34.078 C15.039,34.663 14.089,34.663 13.503,34.078 C12.917,33.492 12.917,32.542 13.503,31.956 C13.503,31.956 16.966,28.494 16.966,28.494 C17.256,28.204 17.648,28.036 18.062,28.055 C18.473,28.064 18.861,28.242 19.137,28.545 C19.137,28.545 22.285,32.008 22.285,32.008 C22.842,32.621 22.797,33.570 22.184,34.127 C21.896,34.388 21.535,34.517 21.175,34.517 Z" id="path-16" class="cls-8" fill-rule="evenodd"/>
    <path d="M28.730,50.572 C28.322,50.572 27.916,50.406 27.620,50.081 C27.620,50.081 25.530,47.782 25.530,47.782 C25.530,47.782 23.180,50.132 23.180,50.132 C22.594,50.718 21.645,50.718 21.059,50.132 C20.473,49.547 20.473,48.597 21.059,48.011 C21.059,48.011 24.521,44.548 24.521,44.548 C24.812,44.258 25.201,44.096 25.618,44.109 C26.028,44.119 26.416,44.296 26.692,44.600 C26.692,44.600 29.840,48.063 29.840,48.063 C30.397,48.676 30.352,49.624 29.739,50.182 C29.452,50.443 29.090,50.572 28.730,50.572 Z" id="path-17" class="cls-8" fill-rule="evenodd"/>
    <path d="M13.620,50.572 C13.212,50.572 12.806,50.406 12.510,50.081 C12.510,50.081 10.420,47.782 10.420,47.782 C10.420,47.782 8.069,50.132 8.069,50.132 C7.483,50.718 6.534,50.718 5.948,50.132 C5.362,49.547 5.362,48.597 5.948,48.011 C5.948,48.011 9.411,44.548 9.411,44.548 C9.701,44.258 10.095,44.096 10.507,44.109 C10.917,44.119 11.306,44.296 11.581,44.600 C11.581,44.600 14.729,48.063 14.729,48.063 C15.287,48.676 15.242,49.624 14.628,50.182 C14.341,50.443 13.980,50.572 13.620,50.572 Z" id="path-18" class="cls-8" fill-rule="evenodd"/>
    <path d="M21.175,55.293 C20.767,55.293 20.361,55.128 20.065,54.803 C20.065,54.803 17.975,52.504 17.975,52.504 C17.975,52.504 15.624,54.854 15.624,54.854 C15.039,55.440 14.088,55.440 13.503,54.854 C12.917,54.268 12.917,53.318 13.503,52.733 C13.503,52.733 16.966,49.270 16.966,49.270 C17.256,48.980 17.648,48.818 18.062,48.832 C18.473,48.841 18.861,49.018 19.137,49.322 C19.137,49.322 22.285,52.784 22.285,52.784 C22.842,53.397 22.797,54.346 22.184,54.903 C21.896,55.165 21.535,55.293 21.175,55.293 Z" id="path-19" class="cls-8" fill-rule="evenodd"/>
  </g>
</svg>
