<svg xmlns="http://www.w3.org/2000/svg" xmlns:xlink="http://www.w3.org/1999/xlink" preserveAspectRatio="xMidYMid" width="67" height="64" viewBox="0 0 67 64">
  <defs>
    <style>

      .cls-3 {
        fill: #99746a;
      }

      .cls-5 {
        fill: #e56a77;
      }

      .cls-6 {
        fill: #000000;
      }
    </style>
  </defs>
  <g id="group-51svg">
    <path d="M21.324,52.829 C24.619,45.097 34.855,43.421 34.855,43.421 C29.977,43.707 26.907,39.080 26.385,34.306 C26.385,34.306 24.410,44.887 16.677,48.183 C8.943,51.478 3.970,52.816 7.845,55.530 C9.500,56.689 11.144,57.719 11.649,57.683 C11.639,58.215 12.691,59.881 13.851,61.537 C16.564,65.412 18.028,60.562 21.324,52.829 Z" id="path-1" class="cls-3" fill-rule="evenodd"/>
    <path d="M66.046,27.004 C64.248,28.802 55.432,27.293 49.062,20.925 C42.695,14.557 41.186,5.740 42.984,3.942 C44.782,2.144 51.402,5.850 57.770,12.218 C64.139,18.586 67.844,25.206 66.046,27.004 Z" id="path-2" class="cls-3" fill-rule="evenodd"/>
    <path d="M30.299,22.484 C28.250,25.683 23.032,34.219 29.400,40.587 C35.769,46.956 44.977,41.395 47.504,39.689 C47.504,39.689 66.046,27.004 66.046,27.004 C66.046,27.004 59.728,30.028 49.062,20.925 C38.398,11.822 42.984,3.942 42.984,3.942 C42.984,3.942 30.299,22.484 30.299,22.484 Z" id="path-3" class="cls-5" fill-rule="evenodd"/>
    <path d="M58.438,27.209 C54.482,27.209 47.966,24.949 43.003,19.986 C38.945,15.929 37.201,11.451 36.521,9.143 C36.102,7.718 34.893,2.911 36.924,0.881 C37.331,0.474 38.074,-0.011 39.303,-0.011 C42.558,-0.011 48.261,3.587 53.831,9.157 C58.508,13.834 65.513,22.658 62.106,26.065 C61.348,26.824 60.113,27.209 58.438,27.209 ZM39.303,2.989 C39.092,2.989 39.016,3.026 39.015,3.026 C38.083,4.156 39.229,11.971 45.124,17.865 C49.289,22.030 54.975,24.209 58.438,24.209 C59.445,24.209 59.900,24.014 59.991,23.938 C60.389,23.136 58.561,18.129 51.710,11.278 C46.324,5.894 41.298,2.989 39.303,2.989 Z" id="path-4" class="cls-6" fill-rule="evenodd"/>
    <path d="M53.854,19.064 C53.080,19.838 49.284,19.188 46.542,16.446 C43.800,13.704 43.150,9.908 43.924,9.133 C44.698,8.359 47.549,9.955 50.291,12.697 C53.033,15.439 54.629,18.289 53.854,19.064 Z" id="path-5" class="cls-6" fill-rule="evenodd"/>
    <path d="M31.643,42.719 C31.642,42.719 31.642,42.719 31.641,42.719 C28.401,42.719 25.608,41.742 23.340,39.474 C18.449,34.583 18.683,27.950 24.035,19.589 C24.035,19.589 36.746,1.052 36.746,1.052 C37.203,0.387 38.104,0.223 38.785,0.652 C39.468,1.083 39.686,1.989 39.281,2.686 C39.130,2.957 35.537,9.670 45.037,17.779 C51.043,22.905 55.483,23.983 58.151,23.983 C59.618,23.983 60.412,23.643 60.420,23.640 C61.128,23.328 61.970,23.603 62.346,24.280 C62.722,24.958 62.532,25.805 61.893,26.242 C61.893,26.242 43.351,38.752 43.351,38.752 C41.055,40.302 36.492,42.719 31.643,42.719 ZM35.597,8.089 C35.597,8.089 26.537,21.331 26.537,21.331 C22.010,28.405 21.649,33.715 25.461,37.527 C27.170,39.236 29.192,40.067 31.642,40.067 C31.642,40.067 31.642,40.067 31.643,40.067 C35.846,40.067 40.052,37.535 41.665,36.446 C41.665,36.446 55.793,26.780 55.793,26.780 C52.644,26.248 48.329,24.538 43.090,20.066 C37.886,15.624 36.040,11.407 35.597,8.089 Z" id="path-6" class="cls-6" fill-rule="evenodd"/>
    <path d="M10.643,62.400 C10.643,62.400 10.643,62.400 10.642,62.400 C9.024,62.399 7.969,60.892 7.622,60.397 C6.395,58.644 5.770,57.589 5.456,56.892 C4.769,56.589 3.726,55.978 1.984,54.759 C1.449,54.384 -0.179,53.244 0.015,51.499 C0.263,49.270 3.017,48.138 8.017,46.082 C8.975,45.688 10.005,45.265 11.089,44.803 C17.976,41.868 19.892,32.126 19.910,32.029 C20.049,31.298 20.671,30.780 21.443,30.807 C22.186,30.837 22.795,31.404 22.876,32.143 C23.312,36.130 25.858,40.156 29.768,39.923 C30.567,39.882 31.258,40.462 31.347,41.256 C31.435,42.049 30.886,42.772 30.098,42.901 C30.006,42.916 20.629,44.553 17.704,51.417 C17.329,52.297 16.978,53.139 16.646,53.935 C14.371,59.392 13.117,62.400 10.643,62.400 ZM8.145,55.545 C8.215,55.730 8.562,56.511 10.079,58.676 C10.338,59.046 10.526,59.237 10.639,59.332 C11.430,58.653 12.780,55.413 13.877,52.781 C14.212,51.978 14.566,51.128 14.944,50.242 C16.963,45.503 21.231,42.856 24.648,41.435 C23.239,40.442 22.134,39.031 21.337,37.437 C19.856,40.979 17.102,45.501 12.265,47.562 C11.168,48.030 10.127,48.458 9.158,48.856 C6.756,49.844 3.809,51.056 3.090,51.788 C3.191,51.899 3.377,52.072 3.705,52.302 C5.744,53.729 6.530,54.095 6.746,54.180 C7.116,54.185 7.447,54.332 7.723,54.594 C7.987,54.846 8.120,55.185 8.145,55.545 Z" id="path-7" class="cls-6" fill-rule="evenodd"/>
    <path d="M31.841,36.509 C31.629,36.509 31.421,36.499 31.215,36.480 C30.390,36.402 29.784,35.671 29.862,34.846 C29.939,34.022 30.677,33.408 31.496,33.494 C35.340,33.846 42.121,28.490 44.407,26.391 C45.018,25.830 45.966,25.872 46.526,26.481 C47.087,27.092 47.047,28.040 46.437,28.601 C45.529,29.434 37.657,36.509 31.841,36.509 Z" id="path-8" class="cls-6" fill-rule="evenodd"/>
  </g>
</svg>
