<svg xmlns="http://www.w3.org/2000/svg" xmlns:xlink="http://www.w3.org/1999/xlink" preserveAspectRatio="xMidYMid" width="65" height="57" viewBox="0 0 65 57">
  <defs>
    <style>

      .cls-3 {
        fill: #e56a77;
      }

      .cls-4 {
        fill: #ff917b;
      }

      .cls-6 {
        fill: #000000;
      }
    </style>
  </defs>
  <g id="group-29svg">
    <path d="M5.699,25.749 C5.699,12.911 18.213,2.504 35.057,2.504 C51.901,2.504 64.250,12.911 64.250,25.749 C64.250,25.749 64.250,32.838 64.250,32.838 C64.250,45.676 51.901,56.083 35.057,56.083 C18.213,56.083 5.376,45.676 5.376,32.838 C5.376,32.838 5.699,25.749 5.699,25.749 Z" id="path-1" class="cls-3" fill-rule="evenodd"/>
    <path d="M7.376,18.105 C7.543,17.852 7.844,17.763 8.064,17.635 C12.585,15.012 13.283,24.265 13.283,24.265 C13.283,24.265 11.305,48.994 21.690,39.102 C32.077,29.211 34.055,38.608 34.055,38.608 C34.055,38.608 36.033,56.083 41.309,42.399 C46.584,28.716 51.859,38.937 51.859,38.937 C51.859,38.937 59.113,43.883 58.948,34.321 C58.784,24.760 64.719,20.556 64.719,20.556 C64.719,20.556 66.167,34.826 63.677,39.545 C61.187,44.263 57.718,53.665 37.885,56.083 C18.051,58.500 6.385,39.500 6.385,39.500 C6.385,39.500 3.035,24.711 7.376,18.105 Z" id="path-2" class="cls-4" fill-rule="evenodd"/>
    <path d="M47.408,20.803 C47.408,24.354 42.390,27.232 36.198,27.232 C30.007,27.232 24.988,24.354 24.988,20.803 C24.988,17.252 30.007,14.373 36.198,14.373 C42.390,14.373 47.408,17.252 47.408,20.803 Z" id="path-3" class="cls-4" fill-rule="evenodd"/>
    <path d="M33.623,48.134 C33.512,48.134 33.398,48.127 33.283,48.112 C30.176,47.713 29.001,41.566 28.574,37.868 C28.488,37.537 27.932,35.631 26.446,35.180 C24.730,34.660 21.988,36.082 18.725,39.189 C16.084,41.704 13.739,42.500 11.762,41.558 C6.840,39.211 7.554,26.187 7.778,23.267 C7.579,20.944 6.725,18.124 5.785,17.710 C5.351,17.514 4.602,18.051 4.300,18.288 C3.647,18.796 2.705,18.683 2.194,18.029 C1.684,17.376 1.800,16.434 2.452,15.923 C4.454,14.358 6.030,14.539 6.998,14.966 C10.113,16.343 10.694,22.027 10.779,23.152 C10.785,23.229 10.784,23.307 10.778,23.384 C10.248,30.048 10.967,37.855 13.053,38.850 C13.765,39.190 15.078,38.520 16.656,37.016 C20.868,33.005 24.465,31.420 27.349,32.318 C30.655,33.345 31.488,37.138 31.522,37.299 C31.532,37.345 31.540,37.392 31.545,37.439 C31.928,40.800 32.892,44.256 33.641,45.051 C33.950,44.790 34.745,43.879 35.909,40.860 C37.948,35.571 40.293,32.927 43.077,32.776 C46.204,32.617 48.308,35.718 48.983,36.872 C49.846,37.375 51.424,38.025 52.290,37.556 C53.065,37.135 53.487,35.600 53.448,33.347 C53.272,23.111 59.583,18.522 59.851,18.332 C60.528,17.853 61.464,18.013 61.942,18.689 C62.420,19.363 62.263,20.296 61.592,20.776 C61.367,20.938 56.301,24.716 56.448,33.295 C56.510,36.862 55.589,39.184 53.711,40.198 C50.890,41.720 47.402,39.442 47.015,39.177 C46.809,39.036 46.641,38.847 46.526,38.625 C46.023,37.664 44.537,35.700 43.236,35.772 C42.575,35.810 40.811,36.486 38.708,41.939 C37.586,44.850 36.004,48.134 33.623,48.134 Z" id="path-4" class="cls-6" fill-rule="evenodd"/>
    <path d="M33.623,48.134 C33.512,48.134 33.398,48.127 33.283,48.112 C30.176,47.713 29.001,41.566 28.574,37.868 C28.488,37.537 27.932,35.631 26.446,35.180 C24.730,34.660 21.988,36.082 18.725,39.189 C16.084,41.704 13.739,42.500 11.762,41.558 C6.840,39.211 7.554,26.187 7.778,23.267 C7.579,20.944 6.725,18.124 5.785,17.710 C5.351,17.514 4.602,18.051 4.300,18.288 C3.647,18.796 2.705,18.683 2.194,18.029 C1.684,17.376 1.800,16.434 2.452,15.923 C4.454,14.358 6.030,14.539 6.998,14.966 C10.113,16.343 10.694,22.027 10.779,23.152 C10.785,23.229 10.784,23.307 10.778,23.384 C10.248,30.048 10.967,37.855 13.053,38.850 C13.765,39.190 15.078,38.520 16.656,37.016 C20.868,33.005 24.465,31.420 27.349,32.318 C30.655,33.345 31.488,37.138 31.522,37.299 C31.532,37.345 31.540,37.392 31.545,37.439 C31.928,40.800 32.892,44.256 33.641,45.051 C33.950,44.790 34.745,43.879 35.909,40.860 C37.948,35.571 40.293,32.927 43.077,32.776 C46.204,32.617 48.308,35.718 48.983,36.872 C49.846,37.375 51.424,38.025 52.290,37.556 C53.065,37.135 53.487,35.600 53.448,33.347 C53.272,23.111 59.583,18.522 59.851,18.332 C60.528,17.853 61.464,18.013 61.942,18.689 C62.420,19.363 62.263,20.296 61.592,20.776 C61.367,20.938 56.301,24.716 56.448,33.295 C56.510,36.862 55.589,39.184 53.711,40.198 C50.890,41.720 47.402,39.442 47.015,39.177 C46.809,39.036 46.641,38.847 46.526,38.625 C46.023,37.664 44.537,35.700 43.236,35.772 C42.575,35.810 40.811,36.486 38.708,41.939 C37.586,44.850 36.004,48.134 33.623,48.134 Z" id="path-5" class="cls-6" fill-rule="evenodd"/>
    <path d="M31.307,56.583 C13.752,56.583 0.001,45.714 0.001,31.838 C0.001,31.838 0.200,24.707 0.200,24.707 C0.199,10.873 13.863,0.004 31.307,0.004 C48.658,0.004 62.250,10.873 62.250,24.749 C62.250,24.749 62.250,31.838 62.250,31.838 C62.250,45.714 48.658,56.583 31.307,56.583 ZM31.307,3.004 C15.546,3.004 3.199,12.556 3.199,24.749 C3.199,24.749 3.000,31.880 3.000,31.880 C3.001,44.031 15.435,53.583 31.307,53.583 C46.976,53.583 59.250,44.031 59.250,31.838 C59.250,31.838 59.250,24.749 59.250,24.749 C59.250,12.556 46.976,3.004 31.307,3.004 Z" id="path-6" class="cls-6" fill-rule="evenodd"/>
    <path d="M31.307,56.583 C13.752,56.583 0.001,45.714 0.001,31.838 C0.001,31.838 0.200,24.707 0.200,24.707 C0.199,10.873 13.863,0.004 31.307,0.004 C48.658,0.004 62.250,10.873 62.250,24.749 C62.250,24.749 62.250,31.838 62.250,31.838 C62.250,45.714 48.658,56.583 31.307,56.583 ZM31.307,3.004 C15.546,3.004 3.199,12.556 3.199,24.749 C3.199,24.749 3.000,31.880 3.000,31.880 C3.001,44.031 15.435,53.583 31.307,53.583 C46.976,53.583 59.250,44.031 59.250,31.838 C59.250,31.838 59.250,24.749 59.250,24.749 C59.250,12.556 46.976,3.004 31.307,3.004 Z" id="path-7" class="cls-6" fill-rule="evenodd"/>
    <path d="M32.198,27.732 C25.071,27.732 19.488,24.249 19.488,19.803 C19.488,15.356 25.071,11.873 32.198,11.873 C39.325,11.873 44.908,15.356 44.908,19.803 C44.908,24.249 39.325,27.732 32.198,27.732 ZM32.198,14.873 C26.476,14.873 22.488,17.472 22.488,19.803 C22.488,22.135 26.476,24.732 32.198,24.732 C37.921,24.732 41.908,22.135 41.908,19.803 C41.908,17.472 37.921,14.873 32.198,14.873 Z" id="path-8" class="cls-6" fill-rule="evenodd"/>
    <path d="M42.679,23.567 C42.439,23.567 42.196,23.510 41.971,23.389 C41.809,23.304 31.984,18.223 22.430,23.387 C21.702,23.780 20.791,23.510 20.397,22.780 C20.003,22.051 20.274,21.141 21.004,20.747 C32.044,14.782 42.932,20.499 43.390,20.746 C44.120,21.138 44.393,22.047 44.001,22.777 C43.730,23.281 43.213,23.567 42.679,23.567 Z" id="path-9" class="cls-6" fill-rule="evenodd"/>
  </g>
</svg>
