<svg xmlns="http://www.w3.org/2000/svg" xmlns:xlink="http://www.w3.org/1999/xlink" preserveAspectRatio="xMidYMid" width="66" height="61" viewBox="0 0 66 61">
  <defs>
    <style>

      .cls-3 {
        fill: #e56a77;
      }

      .cls-4 {
        fill: #ffffff;
      }

      .cls-6 {
        fill: #000000;
      }
    </style>
  </defs>
  <g id="group-58svg">
    <path d="M8.279,54.216 C8.279,54.216 19.114,51.086 17.187,26.768 C15.262,2.451 55.951,-5.254 64.138,15.453 C72.323,36.158 42.228,61.198 23.688,60.476 C5.149,59.754 2.418,59.977 8.279,54.216 Z" id="path-1" class="cls-3" fill-rule="evenodd"/>
    <path d="M21.798,42.719 C21.798,42.719 28.639,40.742 27.423,25.388 C26.207,10.034 51.898,5.169 57.066,18.243 C62.235,31.317 43.233,47.127 31.527,46.671 C19.822,46.215 18.097,46.356 21.798,42.719 Z" id="path-2" class="cls-4" fill-rule="evenodd"/>
    <path d="M32.086,34.323 C32.086,34.323 34.835,33.529 34.347,27.360 C33.857,21.190 44.181,19.236 46.258,24.489 C48.334,29.742 40.699,36.095 35.996,35.911 C31.292,35.728 30.599,35.785 32.086,34.323 Z" id="path-3" class="cls-3" fill-rule="evenodd"/>
    <path d="M20.481,59.991 C20.194,59.991 19.912,59.986 19.630,59.975 C19.630,59.975 16.873,59.869 16.873,59.869 C4.764,59.409 1.108,59.270 0.182,56.875 C-0.528,55.044 1.142,53.197 3.227,51.146 C3.405,50.972 3.624,50.845 3.863,50.775 C3.940,50.750 13.479,47.446 11.692,24.887 C11.223,18.958 13.113,13.508 17.161,9.128 C22.370,3.490 31.011,-0.013 39.709,-0.013 C50.177,-0.013 58.336,4.814 61.532,12.901 C64.535,20.497 63.020,29.073 57.152,37.703 C48.654,50.201 32.546,59.991 20.481,59.991 ZM3.137,55.769 C4.613,56.401 10.132,56.611 16.987,56.871 C16.987,56.871 19.747,56.976 19.747,56.976 C30.976,57.413 46.497,48.038 54.671,36.017 C58.356,30.598 62.054,22.380 58.743,14.004 C56.016,7.105 48.899,2.987 39.709,2.987 C31.820,2.987 24.024,6.120 19.364,11.164 C15.900,14.914 14.281,19.577 14.683,24.650 C16.496,47.530 7.223,52.646 5.103,53.511 C3.857,54.753 3.342,55.417 3.137,55.769 Z" id="path-4" class="cls-6" fill-rule="evenodd"/>
    <path d="M28.028,46.181 C27.840,46.181 27.654,46.177 27.469,46.170 C27.469,46.170 25.726,46.103 25.726,46.103 C17.597,45.794 15.411,45.711 14.694,43.859 C14.079,42.269 15.558,40.816 16.746,39.648 C16.924,39.475 17.143,39.346 17.382,39.277 C17.407,39.268 23.013,37.210 21.928,23.507 C21.618,19.605 22.862,16.019 25.525,13.137 C28.916,9.468 34.526,7.188 40.169,7.188 C47.014,7.188 52.356,10.367 54.461,15.692 C56.399,20.595 55.397,26.339 51.639,31.866 C46.182,39.893 35.810,46.181 28.028,46.181 ZM18.037,42.628 C19.494,42.864 22.487,42.977 25.840,43.104 C25.840,43.104 27.586,43.172 27.586,43.172 C34.354,43.434 44.177,37.506 49.158,30.179 C51.410,26.868 53.674,21.858 51.672,16.794 C50.036,12.658 45.736,10.188 40.169,10.188 C35.337,10.188 30.570,12.098 27.728,15.173 C25.619,17.456 24.674,20.181 24.918,23.270 C26.056,37.639 20.294,41.261 18.639,41.998 C18.386,42.251 18.189,42.459 18.037,42.628 Z" id="path-5" class="cls-6" fill-rule="evenodd"/>
    <path d="M32.196,35.416 C32.108,35.416 32.022,35.414 31.937,35.410 C31.937,35.410 31.239,35.384 31.239,35.384 C27.602,35.246 26.503,35.204 26.002,33.909 C25.542,32.721 26.513,31.766 27.034,31.253 C27.259,31.033 27.357,30.930 27.667,30.882 C27.662,30.872 29.212,30.029 28.852,25.478 C28.707,23.655 29.288,21.978 30.532,20.632 C32.082,18.955 34.527,17.953 37.075,17.953 C40.207,17.953 42.666,19.442 43.652,21.937 C44.544,24.192 44.108,26.796 42.427,29.270 C40.045,32.773 35.646,35.416 32.196,35.416 ZM30.392,32.348 C30.701,32.361 31.024,32.373 31.354,32.386 C31.354,32.386 32.196,32.416 32.196,32.416 C34.616,32.416 38.165,30.203 39.945,27.584 C40.728,26.433 41.523,24.710 40.863,23.040 C40.097,21.103 37.770,20.953 37.075,20.953 C35.375,20.953 33.713,21.610 32.735,22.668 C32.064,23.394 31.764,24.260 31.842,25.241 C32.142,29.033 31.307,31.164 30.392,32.348 Z" id="path-6" class="cls-6" fill-rule="evenodd"/>
  </g>
</svg>
