<svg xmlns="http://www.w3.org/2000/svg" xmlns:xlink="http://www.w3.org/1999/xlink" preserveAspectRatio="xMidYMid" width="65" height="50" viewBox="0 0 65 50">
  <defs>
    <style>

      .cls-3 {
        fill: #ffffff;
      }

      .cls-4 {
        fill: #000000;
      }

      .cls-5 {
        fill: #edc951;
      }
    </style>
  </defs>
  <g id="group-62svg">
    <path d="M27.215,7.116 C19.004,9.088 13.378,13.115 13.378,17.764 C13.378,19.966 14.646,22.027 16.850,23.799 C9.361,26.375 4.489,30.546 4.489,35.256 C4.489,43.079 17.920,49.422 34.489,49.422 C51.058,49.422 64.489,43.079 64.489,35.256 C64.489,31.685 61.686,28.427 57.072,25.935 C61.324,23.799 63.934,20.926 63.934,17.764 C63.934,14.121 60.479,10.859 55.033,8.670 C55.033,8.670 55.033,8.670 55.033,8.670 " id="path-1" class="cls-3" fill-rule="evenodd"/>
    <path d="M31.489,48.922 C13.825,48.922 -0.011,42.041 -0.011,33.255 C-0.011,28.482 4.004,24.176 11.100,21.235 C9.639,19.539 8.878,17.679 8.878,15.763 C8.878,10.516 14.621,5.877 23.865,3.658 C24.669,3.465 25.481,3.961 25.674,4.766 C25.867,5.571 25.371,6.381 24.565,6.574 C16.858,8.425 11.878,12.031 11.878,15.763 C11.878,17.851 13.461,19.562 14.790,20.630 C15.216,20.973 15.422,21.519 15.328,22.058 C15.234,22.596 14.854,23.040 14.338,23.218 C7.231,25.662 2.989,29.414 2.989,33.255 C2.989,40.121 16.040,45.922 31.489,45.922 C46.937,45.922 59.989,40.121 59.989,33.255 C59.989,30.404 57.634,27.563 53.359,25.255 C52.867,24.990 52.563,24.473 52.572,23.913 C52.580,23.354 52.899,22.846 53.398,22.596 C57.290,20.640 59.434,18.213 59.434,15.763 C59.434,12.945 56.457,10.066 51.473,8.062 C50.705,7.753 50.332,6.879 50.641,6.111 C50.951,5.342 51.825,4.971 52.592,5.279 C58.847,7.793 62.434,11.614 62.434,15.763 C62.434,18.805 60.531,21.661 57.018,23.971 C60.889,26.619 62.989,29.855 62.989,33.255 C62.989,42.041 49.152,48.922 31.489,48.922 Z" id="path-2" class="cls-4" fill-rule="evenodd"/>
    <path d="M45.923,32.733 C45.923,35.174 40.804,37.151 34.489,37.151 C28.174,37.151 23.055,35.174 23.055,32.733 C23.055,30.294 30.253,26.237 36.568,26.237 C42.883,26.237 45.923,30.294 45.923,32.733 Z" id="path-3" class="cls-5" fill-rule="evenodd"/>
    <path d="M50.245,8.335 C50.245,10.155 46.427,11.630 41.718,11.630 C37.008,11.630 33.190,10.155 33.190,8.335 C33.190,6.516 38.559,3.490 43.268,3.490 C47.977,3.490 50.245,6.516 50.245,8.335 Z" id="path-4" class="cls-5" fill-rule="evenodd"/>
    <path d="M31.489,36.652 C25.061,36.652 18.554,34.619 18.554,30.733 C18.554,26.767 27.289,22.736 33.568,22.736 C40.651,22.736 44.423,27.381 44.423,30.733 C44.423,34.619 37.916,36.652 31.489,36.652 ZM33.568,25.736 C27.558,25.736 21.757,29.564 21.553,30.758 C21.554,31.580 25.036,33.652 31.489,33.652 C37.942,33.652 41.423,31.580 41.423,30.733 C41.423,29.263 39.163,25.736 33.568,25.736 Z" id="path-5" class="cls-4" fill-rule="evenodd"/>
    <path d="M38.718,11.130 C33.888,11.130 28.690,9.629 28.690,6.336 C28.690,3.127 35.320,-0.010 40.268,-0.010 C45.799,-0.010 48.745,3.676 48.745,6.336 C48.745,9.629 43.547,11.130 38.718,11.130 ZM31.709,6.375 C32.007,6.879 34.379,8.130 38.718,8.130 C43.175,8.130 45.556,6.810 45.752,6.285 C45.745,5.351 44.169,2.990 40.268,2.990 C36.283,2.990 32.240,5.351 31.709,6.375 Z" id="path-6" class="cls-4" fill-rule="evenodd"/>
    <path d="M42.156,7.281 C42.156,7.281 37.156,7.281 37.156,7.281 C36.328,7.281 35.656,6.609 35.656,5.781 C35.656,4.953 36.328,4.281 37.156,4.281 C37.156,4.281 42.156,4.281 42.156,4.281 C42.985,4.281 43.656,4.953 43.656,5.781 C43.656,6.609 42.985,7.281 42.156,7.281 Z" id="path-7" class="cls-4" fill-rule="evenodd"/>
    <path d="M35.156,31.281 C35.156,31.281 29.156,31.281 29.156,31.281 C28.328,31.281 27.656,30.609 27.656,29.781 C27.656,28.953 28.328,28.281 29.156,28.281 C29.156,28.281 35.156,28.281 35.156,28.281 C35.985,28.281 36.656,28.953 36.656,29.781 C36.656,30.609 35.985,31.281 35.156,31.281 Z" id="path-8" class="cls-4" fill-rule="evenodd"/>
  </g>
</svg>
