<svg xmlns="http://www.w3.org/2000/svg" xmlns:xlink="http://www.w3.org/1999/xlink" preserveAspectRatio="xMidYMid" width="65" height="55" viewBox="0 0 65 55">
  <defs>
    <style>

      .cls-3 {
        fill: #99746a;
      }

      .cls-4 {
        fill: #edc951;
      }

      .cls-5 {
        fill: #000000;
      }

      .cls-6 {
        fill: #8b71b5;
      }
    </style>
  </defs>
  <g id="group-69svg">
    <path d="M6.574,13.019 C9.000,24.815 24.824,37.619 24.824,37.619 C26.088,38.768 27.734,39.125 29.443,39.125 C29.443,39.125 41.113,39.125 41.113,39.125 C42.821,39.125 44.469,38.768 45.732,37.619 C45.732,37.619 61.557,24.676 63.982,12.879 C63.982,12.879 63.982,12.879 63.982,12.879 " id="path-1" class="cls-3" fill-rule="evenodd"/>
    <path d="M63.982,13.019 C63.982,18.823 51.115,23.528 35.242,23.528 C19.370,23.528 6.502,18.823 6.502,13.019 C6.502,7.215 19.370,2.510 35.242,2.510 C51.115,2.510 63.982,7.215 63.982,13.019 Z" id="path-2" class="cls-4" fill-rule="evenodd"/>
    <path d="M30.242,24.028 C15.582,24.028 0.002,19.819 0.002,12.019 C0.002,4.219 15.582,0.010 30.242,0.010 C44.902,0.010 60.482,4.219 60.482,12.019 C60.482,19.819 44.902,24.028 30.242,24.028 ZM30.242,3.010 C14.189,3.010 3.002,7.758 3.002,12.019 C3.002,16.281 14.189,21.028 30.242,21.028 C46.295,21.028 57.482,16.281 57.482,12.019 C57.482,7.758 46.295,3.010 30.242,3.010 Z" id="path-3" class="cls-5" fill-rule="evenodd"/>
    <path d="M39.512,6.385 C37.237,5.859 34.588,5.581 31.850,5.581 C26.868,5.581 21.075,6.547 18.999,8.649 C18.999,8.649 18.909,8.534 18.909,8.534 C18.909,8.534 18.878,8.777 18.878,8.777 C18.693,8.983 18.545,9.199 18.434,9.426 C18.067,10.177 18.107,10.981 18.539,11.727 C18.555,12.383 18.778,13.022 19.197,13.603 C19.197,13.603 19.311,13.764 19.311,13.764 C19.311,13.764 19.473,13.875 19.473,13.875 C21.041,14.965 24.387,15.796 27.826,16.003 C27.250,16.020 26.666,16.029 26.076,16.029 C23.814,16.029 21.668,15.887 19.678,15.603 C19.060,15.516 18.484,15.911 18.361,16.521 C18.361,16.521 18.359,16.532 18.359,16.532 C18.229,17.175 18.651,17.797 19.296,17.916 C21.311,18.288 23.499,18.458 26.216,18.458 C27.530,18.458 28.845,18.420 30.159,18.382 C31.452,18.345 32.744,18.307 34.136,18.303 C41.621,17.652 46.079,15.499 46.366,12.393 C46.599,9.889 44.054,7.646 39.512,6.385 ZM28.698,8.053 C28.698,8.053 28.658,8.347 28.658,8.347 C28.616,8.649 28.601,8.947 28.612,9.239 C27.686,9.491 26.990,9.795 26.429,10.184 C26.429,10.184 26.256,10.332 26.256,10.332 C25.435,11.186 25.553,11.981 25.695,12.378 C25.784,12.626 25.920,12.849 26.107,13.049 C24.807,12.743 23.573,12.317 22.306,11.877 C21.680,11.568 21.269,11.300 21.000,11.086 C21.657,9.940 24.187,8.469 28.698,8.053 ZM35.124,11.834 C35.137,12.037 34.979,12.283 34.700,12.511 C34.682,12.504 34.663,12.496 34.644,12.488 C33.878,12.189 32.656,11.710 31.817,10.945 C32.497,10.837 33.144,10.732 33.720,10.592 C34.721,11.049 35.106,11.536 35.124,11.834 ZM34.814,15.184 C34.814,15.184 35.682,14.882 35.847,14.684 C35.847,14.684 37.301,13.169 37.301,13.169 C37.533,12.727 37.605,12.307 37.604,11.953 C37.604,11.355 37.393,10.575 36.604,9.752 C36.604,9.752 35.217,8.664 35.106,8.598 C39.820,9.465 42.836,11.139 43.271,12.105 C42.306,13.376 38.837,14.693 34.079,15.432 C34.316,15.351 34.814,15.184 34.814,15.184 Z" id="path-4" class="cls-6" fill-rule="evenodd"/>
    <path d="M36.113,40.125 C36.113,40.125 24.443,40.125 24.443,40.125 C22.335,40.125 20.337,39.363 18.814,37.979 C18.207,37.479 2.608,24.496 0.104,12.321 C-0.062,11.510 0.461,10.717 1.272,10.550 C2.077,10.382 2.876,10.904 3.044,11.717 C5.334,22.853 20.625,35.585 20.779,35.713 C21.802,36.640 23.084,37.125 24.443,37.125 C24.443,37.125 36.113,37.125 36.113,37.125 C37.473,37.125 38.755,36.640 39.723,35.760 C39.932,35.585 55.223,22.838 57.513,11.701 C57.681,10.890 58.477,10.367 59.284,10.535 C60.096,10.701 60.618,11.494 60.452,12.307 C57.948,24.480 42.351,37.478 41.687,38.025 C40.220,39.363 38.222,40.125 36.113,40.125 Z" id="path-5" class="cls-5" fill-rule="evenodd"/>
    <path d="M14.727,50.767 C14.001,50.767 13.363,50.239 13.247,49.500 C13.118,48.682 13.677,47.914 14.495,47.785 C14.495,47.785 52.598,41.781 52.598,41.781 C53.410,41.656 54.184,42.210 54.312,43.029 C54.441,43.848 53.883,44.615 53.064,44.744 C53.064,44.744 14.962,50.749 14.962,50.749 C14.883,50.761 14.805,50.767 14.727,50.767 Z" id="path-6" class="cls-5" fill-rule="evenodd"/>
    <path d="M23.398,54.590 C22.673,54.590 22.035,54.062 21.919,53.323 C21.790,52.505 22.349,51.737 23.167,51.607 C23.167,51.607 61.269,45.603 61.269,45.603 C62.080,45.479 62.854,46.033 62.983,46.851 C63.112,47.670 62.554,48.438 61.735,48.567 C61.735,48.567 23.634,54.572 23.634,54.572 C23.555,54.584 23.477,54.590 23.398,54.590 Z" id="path-7" class="cls-5" fill-rule="evenodd"/>
  </g>
</svg>
