<svg xmlns="http://www.w3.org/2000/svg" xmlns:xlink="http://www.w3.org/1999/xlink" preserveAspectRatio="xMidYMid" width="41" height="63" viewBox="0 0 41 63">
  <defs>
    <style>

      .cls-3 {
        fill: #ff917b;
      }

      .cls-4 {
        fill: #53ecf4;
      }

      .cls-5 {
        fill: #edc951;
      }

      .cls-7 {
        fill: #000000;
      }
    </style>
  </defs>
  <g id="group-85svg">
    <path d="M14.420,41.539 C14.420,41.539 16.566,29.725 13.541,20.270 C10.516,10.816 4.000,5.006 4.000,5.006 C4.000,5.006 4.000,41.539 4.000,41.539 C4.000,41.539 4.000,62.500 4.000,62.500 C4.000,62.500 12.000,62.500 12.000,62.500 C12.000,62.500 12.000,57.500 12.000,57.500 C12.000,57.500 9.000,57.500 9.000,57.500 C9.000,57.500 9.000,41.515 9.000,41.515 C9.000,41.515 14.420,41.539 14.420,41.539 Z" id="path-1" class="cls-3" fill-rule="evenodd"/>
    <path d="M41.000,63.500 C41.000,63.500 32.000,63.500 32.000,63.500 C32.000,63.500 32.000,37.500 32.000,37.500 C32.000,37.500 41.000,37.500 41.000,37.500 C41.000,37.500 41.000,63.500 41.000,63.500 Z" id="path-2" class="cls-4" fill-rule="evenodd"/>
    <path d="M40.000,37.500 C40.000,37.500 33.000,37.500 33.000,37.500 C33.000,37.500 33.000,27.500 33.000,27.500 C33.000,27.500 40.000,27.500 40.000,27.500 C40.000,27.500 40.000,37.500 40.000,37.500 Z" id="path-3" class="cls-5" fill-rule="evenodd"/>
    <path d="M39.000,26.500 C39.000,26.500 34.000,26.500 34.000,26.500 C34.000,26.500 34.000,18.500 34.000,18.500 C34.000,18.500 39.000,18.500 39.000,18.500 C39.000,18.500 39.000,26.500 39.000,26.500 Z" id="path-4" class="cls-5" fill-rule="evenodd"/>
    <path d="M9.500,61.500 C9.500,61.500 1.500,61.500 1.500,61.500 C0.671,61.500 -0.000,60.828 -0.000,60.000 C-0.000,60.000 -0.000,3.006 -0.000,3.006 C-0.000,2.412 0.350,1.875 0.893,1.635 C1.437,1.393 2.070,1.497 2.509,1.896 C2.782,2.144 9.233,8.089 12.345,17.813 C15.451,27.520 13.239,39.324 13.143,39.822 C13.007,40.531 12.415,41.078 11.663,41.039 C11.663,41.039 8.000,41.021 8.000,41.021 C8.000,41.021 8.000,53.500 8.000,53.500 C8.000,53.500 9.500,53.500 9.500,53.500 C10.329,53.500 11.000,54.172 11.000,55.000 C11.000,55.000 11.000,60.000 11.000,60.000 C11.000,60.828 10.329,61.500 9.500,61.500 ZM3.000,58.500 C3.000,58.500 8.000,58.500 8.000,58.500 C8.000,58.500 8.000,56.500 8.000,56.500 C8.000,56.500 6.500,56.500 6.500,56.500 C5.671,56.500 5.000,55.828 5.000,55.000 C5.000,55.000 5.000,39.514 5.000,39.514 C5.000,39.115 5.159,38.975 5.442,38.694 C5.723,38.414 6.104,38.500 6.500,38.500 C6.502,38.500 6.505,38.500 6.507,38.500 C6.507,38.500 10.394,38.275 10.394,38.275 C10.856,35.076 11.806,26.093 9.488,18.849 C7.806,13.593 5.025,9.376 3.000,6.875 C3.000,6.875 3.000,58.500 3.000,58.500 Z" id="path-5" class="cls-7" fill-rule="evenodd"/>
    <path d="M38.500,62.500 C38.500,62.500 29.500,62.500 29.500,62.500 C28.671,62.500 28.000,61.828 28.000,61.000 C28.000,61.000 28.000,35.000 28.000,35.000 C28.000,34.172 28.671,33.500 29.500,33.500 C29.500,33.500 38.500,33.500 38.500,33.500 C39.329,33.500 40.000,34.172 40.000,35.000 C40.000,35.000 40.000,61.000 40.000,61.000 C40.000,61.828 39.329,62.500 38.500,62.500 ZM31.000,59.500 C31.000,59.500 37.000,59.500 37.000,59.500 C37.000,59.500 37.000,36.500 37.000,36.500 C37.000,36.500 31.000,36.500 31.000,36.500 C31.000,36.500 31.000,59.500 31.000,59.500 Z" id="path-6" class="cls-7" fill-rule="evenodd"/>
    <path d="M37.500,36.500 C37.500,36.500 30.500,36.500 30.500,36.500 C29.671,36.500 29.000,35.828 29.000,35.000 C29.000,35.000 29.000,25.000 29.000,25.000 C29.000,24.172 29.671,23.500 30.500,23.500 C30.500,23.500 37.500,23.500 37.500,23.500 C38.329,23.500 39.000,24.172 39.000,25.000 C39.000,25.000 39.000,35.000 39.000,35.000 C39.000,35.828 38.329,36.500 37.500,36.500 ZM32.000,33.500 C32.000,33.500 36.000,33.500 36.000,33.500 C36.000,33.500 36.000,26.500 36.000,26.500 C36.000,26.500 32.000,26.500 32.000,26.500 C32.000,26.500 32.000,33.500 32.000,33.500 Z" id="path-7" class="cls-7" fill-rule="evenodd"/>
    <path d="M36.500,25.500 C36.500,25.500 31.500,25.500 31.500,25.500 C30.671,25.500 30.000,24.828 30.000,24.000 C30.000,24.000 30.000,16.000 30.000,16.000 C30.000,15.172 30.671,14.500 31.500,14.500 C31.500,14.500 36.500,14.500 36.500,14.500 C37.329,14.500 38.000,15.172 38.000,16.000 C38.000,16.000 38.000,24.000 38.000,24.000 C38.000,24.828 37.329,25.500 36.500,25.500 ZM33.000,22.500 C33.000,22.500 35.000,22.500 35.000,22.500 C35.000,22.500 35.000,17.500 35.000,17.500 C35.000,17.500 33.000,17.500 33.000,17.500 C33.000,17.500 33.000,22.500 33.000,22.500 Z" id="path-8" class="cls-7" fill-rule="evenodd"/>
    <path d="M38.500,17.500 C38.500,17.500 36.000,17.500 36.000,17.500 C35.171,17.500 34.500,16.828 34.500,16.000 C34.500,15.172 35.171,14.500 36.000,14.500 C36.000,14.500 37.000,14.500 37.000,14.500 C37.000,14.500 37.000,1.500 37.000,1.500 C37.000,0.672 37.671,-0.000 38.500,-0.000 C39.329,-0.000 40.000,0.672 40.000,1.500 C40.000,1.500 40.000,16.000 40.000,16.000 C40.000,16.828 39.329,17.500 38.500,17.500 Z" id="path-9" class="cls-7" fill-rule="evenodd"/>
    <path d="M32.000,17.500 C32.000,17.500 29.500,17.500 29.500,17.500 C28.671,17.500 28.000,16.828 28.000,16.000 C28.000,16.000 28.000,1.500 28.000,1.500 C28.000,0.672 28.671,-0.000 29.500,-0.000 C30.329,-0.000 31.000,0.672 31.000,1.500 C31.000,1.500 31.000,14.500 31.000,14.500 C31.000,14.500 32.000,14.500 32.000,14.500 C32.829,14.500 33.500,15.172 33.500,16.000 C33.500,16.828 32.829,17.500 32.000,17.500 Z" id="path-10" class="cls-7" fill-rule="evenodd"/>
  </g>
</svg>
