<svg xmlns="http://www.w3.org/2000/svg" xmlns:xlink="http://www.w3.org/1999/xlink" preserveAspectRatio="xMidYMid" width="65" height="53" viewBox="0 0 65 53">
  <defs>
    <style>

      .cls-3 {
        fill: #ff917b;
      }

      .cls-4 {
        fill: #8b71b5;
      }

      .cls-5 {
        fill: #edc951;
      }

      .cls-8 {
        fill: #000000;
      }
    </style>
  </defs>
  <g id="group-82svg">
    <path d="M21.009,45.827 C21.009,49.740 27.597,52.854 35.681,52.854 C43.765,52.854 50.335,49.653 50.335,45.740 C50.335,45.740 59.082,20.006 59.082,20.006 C59.082,20.006 59.205,18.850 59.205,18.850 C59.205,25.131 48.620,30.219 35.644,30.219 C22.668,30.219 12.082,25.123 12.082,18.843 C12.082,18.843 21.009,45.827 21.009,45.827 Z" id="path-1" class="cls-3" fill-rule="evenodd"/>
    <path d="M59.209,13.754 C59.209,20.034 48.691,25.126 35.715,25.126 C22.740,25.126 12.222,20.034 12.222,13.754 C12.222,7.473 22.740,7.466 35.715,7.466 C48.691,7.466 59.209,7.473 59.209,13.754 Z" id="path-2" class="cls-4" fill-rule="evenodd"/>
    <path d="M65.000,23.000 C65.000,23.000 58.085,23.000 58.085,23.000 C58.085,23.000 59.584,19.000 59.584,19.000 C59.584,19.000 65.000,19.000 65.000,19.000 C65.000,19.000 65.000,23.000 65.000,23.000 Z" id="path-3" class="cls-5" fill-rule="evenodd"/>
    <path d="M5.000,23.000 C5.000,23.000 13.346,23.000 13.346,23.000 C13.346,23.000 11.847,19.000 11.847,19.000 C11.847,19.000 5.000,19.000 5.000,19.000 C5.000,19.000 5.000,23.000 5.000,23.000 Z" id="path-4" class="cls-5" fill-rule="evenodd"/>
    <rect id="rect-1" class="cls-5" x="33" y="5" width="5" height="8"/>
    <path d="M31.715,23.625 C17.700,23.625 6.722,17.971 6.722,10.754 C6.722,2.967 17.751,2.967 31.715,2.967 C45.680,2.967 56.709,2.967 56.709,10.754 C56.709,17.971 45.731,23.625 31.715,23.625 ZM31.715,5.967 C19.914,5.967 9.722,5.967 9.722,10.754 C9.722,15.521 18.559,20.625 31.715,20.625 C44.872,20.625 53.709,15.521 53.709,10.754 C53.709,5.967 43.517,5.967 31.715,5.967 Z" id="path-5" class="cls-8" fill-rule="evenodd"/>
    <path d="M31.681,51.353 C22.628,51.353 15.761,47.819 15.516,43.090 C15.516,43.090 7.896,20.057 7.896,20.057 C7.024,18.714 6.582,17.297 6.582,15.843 C6.582,15.106 7.117,14.478 7.844,14.361 C8.573,14.249 9.275,14.673 9.507,15.371 C9.507,15.371 10.612,18.713 10.612,18.713 C13.603,22.847 22.197,25.719 31.644,25.719 C43.266,25.719 51.267,21.764 53.217,17.832 C53.217,17.832 53.608,16.682 53.608,16.682 C53.608,16.682 53.713,15.691 53.713,15.691 C53.798,14.898 54.490,14.310 55.285,14.351 C56.081,14.394 56.705,15.053 56.705,15.850 C56.705,16.908 56.468,17.955 56.000,18.965 C56.000,18.965 47.828,43.010 47.828,43.010 C47.570,47.711 40.570,51.353 31.681,51.353 ZM12.421,24.183 C12.421,24.183 18.434,42.356 18.434,42.356 C18.484,42.508 18.509,42.667 18.509,42.827 C18.509,45.441 23.918,48.353 31.681,48.353 C39.209,48.353 44.835,45.391 44.835,42.740 C44.835,42.576 44.862,42.413 44.915,42.258 C44.915,42.258 51.108,24.037 51.108,24.037 C46.483,26.932 39.424,28.719 31.644,28.719 C24.062,28.719 17.073,26.998 12.421,24.183 Z" id="path-6" class="cls-8" fill-rule="evenodd"/>
    <path d="M61.500,21.000 C61.500,21.000 54.085,21.000 54.085,21.000 C53.593,21.000 53.132,20.759 52.852,20.354 C52.572,19.950 52.508,19.434 52.680,18.974 C52.680,18.974 54.180,14.974 54.180,14.974 C54.399,14.388 54.959,14.000 55.584,14.000 C55.584,14.000 61.500,14.000 61.500,14.000 C62.329,14.000 63.000,14.672 63.000,15.500 C63.000,15.500 63.000,19.500 63.000,19.500 C63.000,20.328 62.329,21.000 61.500,21.000 ZM56.249,18.000 C56.249,18.000 60.000,18.000 60.000,18.000 C60.000,18.000 60.000,17.000 60.000,17.000 C60.000,17.000 56.624,17.000 56.624,17.000 C56.624,17.000 56.249,18.000 56.249,18.000 Z" id="path-7" class="cls-8" fill-rule="evenodd"/>
    <path d="M9.346,21.000 C9.346,21.000 1.500,21.000 1.500,21.000 C0.671,21.000 -0.000,20.328 -0.000,19.500 C-0.000,19.500 -0.000,15.500 -0.000,15.500 C-0.000,14.672 0.671,14.000 1.500,14.000 C1.500,14.000 7.847,14.000 7.847,14.000 C8.472,14.000 9.032,14.388 9.251,14.974 C9.251,14.974 10.751,18.974 10.751,18.974 C10.923,19.434 10.859,19.950 10.579,20.354 C10.299,20.759 9.838,21.000 9.346,21.000 ZM3.000,18.000 C3.000,18.000 7.182,18.000 7.182,18.000 C7.182,18.000 6.807,17.000 6.807,17.000 C6.807,17.000 3.000,17.000 3.000,17.000 C3.000,17.000 3.000,18.000 3.000,18.000 Z" id="path-8" class="cls-8" fill-rule="evenodd"/>
    <path d="M34.500,11.000 C34.500,11.000 29.500,11.000 29.500,11.000 C28.671,11.000 28.000,10.328 28.000,9.500 C28.000,9.500 28.000,1.500 28.000,1.500 C28.000,0.672 28.671,-0.000 29.500,-0.000 C29.500,-0.000 34.500,-0.000 34.500,-0.000 C35.329,-0.000 36.000,0.672 36.000,1.500 C36.000,1.500 36.000,9.500 36.000,9.500 C36.000,10.328 35.329,11.000 34.500,11.000 ZM31.000,8.000 C31.000,8.000 33.000,8.000 33.000,8.000 C33.000,8.000 33.000,3.000 33.000,3.000 C33.000,3.000 31.000,3.000 31.000,3.000 C31.000,3.000 31.000,8.000 31.000,8.000 Z" id="path-9" class="cls-8" fill-rule="evenodd"/>
    <path d="M32.800,45.030 C31.558,45.030 30.242,44.851 28.916,44.387 C28.135,44.113 27.723,43.258 27.997,42.476 C28.270,41.695 29.126,41.283 29.908,41.556 C33.522,42.822 37.264,41.202 38.438,40.611 C38.438,40.611 43.311,30.378 43.311,30.378 C43.668,29.630 44.562,29.312 45.311,29.668 C46.059,30.025 46.376,30.920 46.020,31.668 C46.020,31.668 40.936,42.346 40.936,42.346 C40.809,42.611 40.606,42.835 40.353,42.986 C40.175,43.094 36.887,45.030 32.800,45.030 Z" id="path-10" class="cls-8" fill-rule="evenodd"/>
    <path d="M41.876,16.252 C41.200,16.252 40.585,15.791 40.419,15.103 C40.225,14.299 40.720,13.488 41.525,13.293 C44.557,12.560 46.069,11.970 46.812,11.592 C45.714,11.145 43.641,10.644 41.685,10.392 C40.864,10.285 40.284,9.533 40.390,8.712 C40.497,7.891 41.245,7.311 42.069,7.416 C50.222,8.468 50.344,10.693 50.384,11.424 C50.494,13.449 48.284,14.746 42.230,16.209 C42.111,16.238 41.993,16.252 41.876,16.252 Z" id="path-11" class="cls-8" fill-rule="evenodd"/>
  </g>
</svg>
