<svg xmlns="http://www.w3.org/2000/svg" xmlns:xlink="http://www.w3.org/1999/xlink" preserveAspectRatio="xMidYMid" width="68" height="50" viewBox="0 0 68 50">
  <defs>
    <style>

      .cls-3 {
        fill: #99746a;
      }

      .cls-4 {
        fill: #e56a77;
      }

      .cls-5 {
        fill: #000000;
      }
    </style>
  </defs>
  <g id="group-31svg">
    <path d="M15.655,37.316 C15.655,37.316 29.405,50.281 29.405,50.281 C29.405,50.281 47.093,50.281 47.093,50.281 C47.093,50.281 59.343,37.582 59.343,37.582 C59.343,37.582 52.160,31.701 52.160,31.701 C52.160,31.701 50.912,36.882 44.999,36.987 C39.086,37.092 37.948,31.963 37.948,31.963 C37.948,31.963 35.746,36.897 29.999,37.002 C24.253,37.108 22.390,30.698 22.390,30.698 C22.390,30.698 21.725,35.936 15.655,37.316 Z" id="path-1" class="cls-3" fill-rule="evenodd"/>
    <path d="M61.132,22.122 C61.852,20.746 62.249,19.281 62.249,17.758 C62.249,9.888 51.868,3.508 39.062,3.508 C26.256,3.508 15.874,9.888 15.874,17.758 C15.874,19.368 16.329,20.909 17.129,22.352 C16.450,22.150 15.744,22.008 14.999,22.008 C10.857,22.008 7.499,25.365 7.499,29.508 C7.499,33.650 10.857,37.008 14.999,37.008 C19.142,37.008 22.499,33.650 22.499,29.508 C22.499,28.814 22.499,28.936 22.499,29.508 C22.499,33.650 25.857,37.008 29.999,37.008 C33.283,37.008 36.044,34.884 37.060,31.945 C37.352,31.961 37.651,31.964 37.948,31.973 C38.972,34.897 41.726,37.008 44.999,37.008 C49.142,37.008 52.499,33.650 52.499,29.508 C52.499,29.458 52.486,29.413 52.484,29.363 C52.495,29.358 52.505,29.354 52.516,29.350 C52.514,29.403 52.499,29.454 52.499,29.508 C52.499,33.650 55.857,37.008 59.999,37.008 C64.142,37.008 67.499,33.650 67.499,29.508 C67.499,25.753 64.732,22.671 61.132,22.122 Z" id="path-2" class="cls-4" fill-rule="evenodd"/>
    <path d="M53.999,36.508 C50.872,36.508 48.112,34.905 46.499,32.478 C44.886,34.905 42.126,36.508 38.999,36.508 C35.937,36.508 33.135,34.933 31.499,32.432 C29.865,34.934 27.063,36.508 23.999,36.508 C20.872,36.508 18.112,34.905 16.499,32.478 C14.886,34.905 12.126,36.508 8.999,36.508 C4.036,36.508 -0.001,32.470 -0.001,27.508 C-0.001,22.627 3.904,18.642 8.754,18.511 C8.501,17.601 8.374,16.681 8.374,15.758 C8.374,6.926 19.219,0.008 33.062,0.008 C46.905,0.008 57.749,6.926 57.749,15.758 C57.749,16.890 57.561,18.014 57.190,19.115 C60.645,20.405 62.999,23.687 62.999,27.508 C62.999,32.470 58.962,36.508 53.999,36.508 ZM47.999,27.578 C48.037,30.854 50.714,33.508 53.999,33.508 C57.308,33.508 59.999,30.816 59.999,27.508 C59.999,24.537 57.857,22.055 54.905,21.605 C54.427,21.532 54.013,21.232 53.794,20.800 C53.575,20.368 53.578,19.856 53.803,19.427 C54.431,18.226 54.749,16.992 54.749,15.758 C54.749,8.727 45.021,3.008 33.062,3.008 C21.104,3.008 11.374,8.727 11.374,15.758 C11.374,17.047 11.733,18.348 12.440,19.625 C12.736,20.158 12.680,20.817 12.298,21.292 C11.917,21.766 11.284,21.964 10.701,21.790 C10.055,21.597 9.515,21.508 8.999,21.508 C5.690,21.508 2.999,24.199 2.999,27.508 C2.999,30.816 5.488,33.508 8.796,33.508 C12.104,33.508 14.594,30.816 14.594,27.508 C14.594,27.508 14.594,27.032 14.594,27.032 C14.594,26.204 15.266,25.532 16.094,25.532 C16.922,25.532 17.594,26.204 17.594,27.032 C17.594,27.032 17.594,27.508 17.594,27.508 C17.594,30.816 20.488,33.508 23.796,33.508 C26.333,33.508 28.702,31.879 29.540,29.455 C29.759,28.823 30.428,28.414 31.089,28.447 C31.277,28.457 31.495,28.462 31.687,28.466 C31.687,28.466 31.979,28.474 31.979,28.474 C32.601,28.492 33.152,28.891 33.357,29.477 C34.201,31.888 36.470,33.508 38.996,33.508 C42.280,33.508 44.958,30.855 44.997,27.581 C44.990,27.527 44.986,27.475 44.984,27.422 C44.961,26.813 45.309,26.250 45.863,25.997 C46.336,25.783 46.903,25.821 47.335,26.110 C47.767,26.399 48.033,26.885 48.015,27.404 C48.014,27.443 48.006,27.518 47.999,27.578 Z" id="path-3" class="cls-5" fill-rule="evenodd"/>
    <path d="M41.093,49.281 C41.093,49.281 23.405,49.281 23.405,49.281 C23.025,49.281 22.659,49.137 22.382,48.877 C22.382,48.877 8.632,36.038 8.632,36.038 C8.026,35.472 7.993,34.523 8.559,33.917 C9.126,33.312 10.075,33.281 10.679,33.845 C10.679,33.845 23.997,46.281 23.997,46.281 C23.997,46.281 40.463,46.281 40.463,46.281 C40.463,46.281 52.271,34.240 52.271,34.240 C52.852,33.649 53.803,33.639 54.393,34.220 C54.984,34.800 54.994,35.749 54.414,36.341 C54.414,36.341 42.164,48.832 42.164,48.832 C41.882,49.119 41.496,49.281 41.093,49.281 Z" id="path-4" class="cls-5" fill-rule="evenodd"/>
    <path d="M49.950,18.281 C49.145,18.281 48.479,17.860 48.452,17.050 C48.247,11.042 37.764,10.538 37.657,10.532 C36.830,10.490 36.194,9.838 36.237,9.011 C36.280,8.184 36.948,7.563 37.813,7.618 C38.357,7.646 51.153,8.206 51.450,16.934 C51.478,17.762 50.830,18.281 50.002,18.281 C49.985,18.281 49.968,18.281 49.950,18.281 Z" id="path-5" class="cls-5" fill-rule="evenodd"/>
    <path d="M36.594,44.281 C36.594,44.281 30.594,44.281 30.594,44.281 C29.766,44.281 29.094,43.610 29.094,42.781 C29.094,41.953 29.766,41.281 30.594,41.281 C30.594,41.281 36.594,41.281 36.594,41.281 C37.422,41.281 38.094,41.953 38.094,42.781 C38.094,43.610 37.422,44.281 36.594,44.281 Z" id="path-6" class="cls-5" fill-rule="evenodd"/>
  </g>
</svg>
