<svg xmlns="http://www.w3.org/2000/svg" xmlns:xlink="http://www.w3.org/1999/xlink" preserveAspectRatio="xMidYMid" width="33" height="63" viewBox="0 0 33 63">
  <defs>
    <style>

      .cls-3 {
        fill: #53ecf4;
      }

      .cls-4 {
        fill: #edc951;
      }

      .cls-5 {
        fill: #000000;
      }
    </style>
  </defs>
  <g id="group-35svg">
    <path d="M19.060,63.000 C19.060,63.000 21.226,63.000 21.226,63.000 C22.883,63.000 25.000,61.971 25.000,60.314 C25.000,60.314 25.000,42.000 25.000,42.000 C25.000,42.000 16.000,42.000 16.000,42.000 C16.000,42.000 16.000,60.314 16.000,60.314 C16.000,61.971 17.403,63.000 19.060,63.000 Z" id="path-1" class="cls-3" fill-rule="evenodd"/>
    <path d="M30.747,42.000 C30.747,42.000 9.540,42.000 9.540,42.000 C8.435,42.000 8.000,41.472 8.000,40.367 C8.000,40.367 8.000,15.144 8.000,15.144 C8.000,8.610 12.836,3.000 19.370,3.000 C19.370,3.000 20.916,3.000 20.916,3.000 C27.450,3.000 33.000,8.610 33.000,15.144 C33.000,15.144 33.000,40.367 33.000,40.367 C33.000,41.472 31.851,42.000 30.747,42.000 Z" id="path-2" class="cls-4" fill-rule="evenodd"/>
    <path d="M24.747,42.000 C24.747,42.000 3.539,42.000 3.539,42.000 C1.621,42.000 -0.000,40.336 -0.000,38.367 C-0.000,38.367 -0.000,13.144 -0.000,13.144 C-0.000,5.896 5.997,-0.000 13.370,-0.000 C13.370,-0.000 14.916,-0.000 14.916,-0.000 C22.551,-0.000 29.000,6.019 29.000,13.144 C29.000,13.144 29.000,38.367 29.000,38.367 C29.000,40.551 26.440,42.000 24.747,42.000 ZM13.370,3.000 C7.555,3.000 3.000,7.456 3.000,13.144 C3.000,13.144 3.000,38.367 3.000,38.367 C3.000,38.663 3.288,39.000 3.539,39.000 C3.539,39.000 24.747,39.000 24.747,39.000 C25.166,39.000 25.904,38.544 26.013,38.275 C26.013,38.275 26.000,13.144 26.000,13.144 C26.000,7.645 20.924,3.000 14.916,3.000 C14.916,3.000 13.370,3.000 13.370,3.000 Z" id="path-3" class="cls-5" fill-rule="evenodd"/>
    <path d="M15.226,63.000 C15.226,63.000 13.060,63.000 13.060,63.000 C10.707,63.000 9.000,61.029 9.000,58.314 C9.000,58.314 9.000,40.500 9.000,40.500 C9.000,39.671 9.671,39.000 10.500,39.000 C10.500,39.000 18.500,39.000 18.500,39.000 C19.329,39.000 20.000,39.671 20.000,40.500 C20.000,40.500 20.000,58.314 20.000,58.314 C20.000,60.767 17.725,63.000 15.226,63.000 ZM12.000,42.000 C12.000,42.000 12.000,58.314 12.000,58.314 C12.000,58.897 12.222,60.000 13.060,60.000 C13.060,60.000 15.226,60.000 15.226,60.000 C16.072,60.000 17.000,59.118 17.000,58.314 C17.000,58.314 17.000,42.000 17.000,42.000 C17.000,42.000 12.000,42.000 12.000,42.000 Z" id="path-4" class="cls-5" fill-rule="evenodd"/>
    <path d="M26.000,23.000 C26.000,23.000 2.000,23.000 2.000,23.000 C1.171,23.000 0.500,22.328 0.500,21.500 C0.500,20.671 1.171,20.000 2.000,20.000 C2.000,20.000 26.000,20.000 26.000,20.000 C26.829,20.000 27.500,20.671 27.500,21.500 C27.500,22.328 26.829,23.000 26.000,23.000 Z" id="path-5" class="cls-5" fill-rule="evenodd"/>
    <path d="M26.000,30.000 C26.000,30.000 2.000,30.000 2.000,30.000 C1.171,30.000 0.500,29.328 0.500,28.500 C0.500,27.671 1.171,27.000 2.000,27.000 C2.000,27.000 26.000,27.000 26.000,27.000 C26.829,27.000 27.500,27.671 27.500,28.500 C27.500,29.328 26.829,30.000 26.000,30.000 Z" id="path-6" class="cls-5" fill-rule="evenodd"/>
    <path d="M26.000,35.000 C26.000,35.000 2.000,35.000 2.000,35.000 C1.171,35.000 0.500,34.329 0.500,33.500 C0.500,32.671 1.171,32.000 2.000,32.000 C2.000,32.000 26.000,32.000 26.000,32.000 C26.829,32.000 27.500,32.671 27.500,33.500 C27.500,34.329 26.829,35.000 26.000,35.000 Z" id="path-7" class="cls-5" fill-rule="evenodd"/>
  </g>
</svg>
