<svg xmlns="http://www.w3.org/2000/svg" xmlns:xlink="http://www.w3.org/1999/xlink" preserveAspectRatio="xMidYMid" width="51" height="64" viewBox="0 0 51 64">
  <defs>
    <style>

      .cls-3 {
        fill: #e56a77;
      }

      .cls-4 {
        fill: #81bda4;
      }

      .cls-5 {
        fill: #000000;
      }
    </style>
  </defs>
  <g id="group-11svg">
    <path d="M6.494,31.591 C6.494,20.828 18.080,14.009 28.843,14.009 C39.606,14.009 51.191,20.828 51.191,31.591 C51.191,42.355 39.606,62.519 28.843,62.519 C18.080,62.519 6.494,42.355 6.494,31.591 Z" id="path-1" class="cls-3" fill-rule="evenodd"/>
    <path d="M34.383,10.269 C34.493,8.949 39.662,2.911 39.662,2.911 C35.920,1.590 29.024,7.903 29.024,7.903 C29.024,7.903 29.020,8.055 29.020,8.055 C29.020,8.055 29.017,7.817 29.017,7.817 C29.017,7.817 22.121,1.376 18.379,2.697 C18.379,2.697 23.548,8.738 23.657,10.058 C23.657,10.058 15.801,9.721 13.049,15.441 C13.049,15.441 20.697,15.279 20.697,15.279 C20.697,15.279 28.402,13.605 28.402,13.605 C29.356,13.600 29.356,13.818 29.356,13.823 C29.356,13.823 37.508,15.875 37.508,15.875 C37.508,15.875 44.991,15.875 44.991,15.875 C42.240,8.875 34.383,10.269 34.383,10.269 Z" id="path-2" class="cls-4" fill-rule="evenodd"/>
    <path d="M23.843,63.019 C12.015,63.019 -0.006,42.215 -0.006,30.591 C-0.006,18.805 12.373,11.509 23.843,11.509 C35.312,11.509 47.691,18.805 47.691,30.591 C47.691,42.215 35.671,63.019 23.843,63.019 ZM23.843,14.509 C13.816,14.509 2.994,20.658 2.994,30.591 C2.994,40.822 14.039,60.019 23.843,60.019 C33.646,60.019 44.691,40.822 44.691,30.591 C44.691,20.658 33.869,14.509 23.843,14.509 Z" id="path-3" class="cls-5" fill-rule="evenodd"/>
    <path d="M8.049,15.875 C7.539,15.875 7.063,15.648 6.787,15.218 C6.505,14.780 6.471,14.242 6.697,13.772 C8.802,9.398 13.376,8.092 16.220,7.703 C15.237,6.309 13.670,4.333 12.239,2.660 C11.918,2.284 11.802,1.776 11.930,1.298 C12.059,0.821 12.413,0.438 12.880,0.273 C13.376,0.098 13.921,0.010 14.498,0.010 C17.906,0.010 22.122,3.203 24.048,4.829 C25.994,3.208 30.157,0.105 33.533,0.105 C34.114,0.105 34.662,0.195 35.161,0.371 C35.630,0.537 35.986,0.924 36.113,1.405 C36.239,1.886 36.119,2.398 35.791,2.773 C34.478,4.275 33.050,6.034 32.065,7.369 C34.931,7.513 39.348,8.636 41.388,13.826 C41.568,14.288 41.510,14.810 41.230,15.220 C40.951,15.630 40.487,15.875 39.991,15.875 C39.991,15.875 32.508,15.875 32.508,15.875 C32.398,15.875 32.290,15.863 32.184,15.840 C32.184,15.840 24.256,14.086 24.256,14.086 C24.101,14.094 23.885,14.101 23.569,14.103 C23.569,14.103 16.016,15.744 16.016,15.744 C15.921,15.765 15.825,15.744 15.728,15.746 C15.728,15.746 8.080,15.875 8.080,15.875 C8.069,15.875 8.060,15.875 8.049,15.875 ZM32.672,12.875 C32.672,12.875 37.413,12.875 37.413,12.875 C35.740,10.840 33.312,10.351 31.368,10.351 C30.376,10.351 29.692,10.487 29.685,10.489 C29.220,10.581 28.740,10.453 28.388,10.139 C28.035,9.826 27.849,9.365 27.888,8.894 C27.962,8.012 29.005,6.309 30.997,3.816 C29.032,4.731 26.833,6.531 25.395,7.799 C25.164,8.330 24.635,8.875 24.020,8.875 C24.019,8.875 24.019,8.875 24.018,8.875 C23.380,8.875 22.833,8.298 22.618,7.733 C21.167,6.445 18.951,4.709 16.983,3.793 C19.015,6.378 20.078,8.086 20.152,8.975 C20.187,9.404 20.037,9.806 19.739,10.116 C19.440,10.426 19.022,10.586 18.593,10.564 C18.593,10.564 18.412,10.556 18.412,10.556 C17.512,10.556 13.707,10.690 11.124,12.877 C11.124,12.877 15.520,12.783 15.520,12.783 C15.520,12.783 23.085,11.139 23.085,11.139 C23.187,11.117 23.291,11.105 23.395,11.105 C23.841,11.102 24.042,11.095 24.133,11.088 C24.313,11.062 24.501,11.067 24.680,11.107 C24.680,11.107 32.672,12.875 32.672,12.875 Z" id="path-4" class="cls-5" fill-rule="evenodd"/>
    <path d="M10.815,29.220 C10.815,30.138 10.071,30.882 9.154,30.882 C8.236,30.882 7.493,30.138 7.493,29.220 C7.493,28.303 8.236,27.559 9.154,27.559 C10.071,27.559 10.815,28.303 10.815,29.220 Z" id="path-5" class="cls-5" fill-rule="evenodd"/>
    <path d="M20.783,29.220 C20.783,30.138 20.040,30.882 19.122,30.882 C18.205,30.882 17.461,30.138 17.461,29.220 C17.461,28.303 18.205,27.559 19.122,27.559 C20.040,27.559 20.783,28.303 20.783,29.220 Z" id="path-6" class="cls-5" fill-rule="evenodd"/>
    <path d="M30.752,29.220 C30.752,30.138 30.008,30.882 29.090,30.882 C28.173,30.882 27.429,30.138 27.429,29.220 C27.429,28.303 28.173,27.559 29.090,27.559 C30.008,27.559 30.752,28.303 30.752,29.220 Z" id="path-7" class="cls-5" fill-rule="evenodd"/>
    <path d="M40.720,29.220 C40.720,30.138 39.976,30.882 39.059,30.882 C38.141,30.882 37.396,30.138 37.396,29.220 C37.396,28.303 38.141,27.559 39.059,27.559 C39.976,27.559 40.720,28.303 40.720,29.220 Z" id="path-8" class="cls-5" fill-rule="evenodd"/>
    <path d="M15.246,36.973 C15.246,37.891 14.502,38.635 13.584,38.635 C12.667,38.635 11.923,37.891 11.923,36.973 C11.923,36.056 12.667,35.312 13.584,35.312 C14.502,35.312 15.246,36.056 15.246,36.973 Z" id="path-9" class="cls-5" fill-rule="evenodd"/>
    <path d="M25.214,36.973 C25.214,37.891 24.470,38.635 23.553,38.635 C22.635,38.635 21.891,37.891 21.891,36.973 C21.891,36.056 22.635,35.312 23.553,35.312 C24.470,35.312 25.214,36.056 25.214,36.973 Z" id="path-10" class="cls-5" fill-rule="evenodd"/>
    <path d="M35.182,36.973 C35.182,37.891 34.437,38.635 33.520,38.635 C32.603,38.635 31.859,37.891 31.859,36.973 C31.859,36.056 32.603,35.312 33.520,35.312 C34.437,35.312 35.182,36.056 35.182,36.973 Z" id="path-11" class="cls-5" fill-rule="evenodd"/>
    <path d="M15.246,21.944 C15.246,22.861 14.502,23.605 13.584,23.605 C12.667,23.605 11.923,22.861 11.923,21.944 C11.923,21.026 12.667,20.283 13.584,20.283 C14.502,20.283 15.246,21.026 15.246,21.944 Z" id="path-12" class="cls-5" fill-rule="evenodd"/>
    <path d="M25.214,21.944 C25.214,22.861 24.470,23.605 23.553,23.605 C22.635,23.605 21.891,22.861 21.891,21.944 C21.891,21.026 22.635,20.283 23.553,20.283 C24.470,20.283 25.214,21.026 25.214,21.944 Z" id="path-13" class="cls-5" fill-rule="evenodd"/>
    <path d="M35.182,21.944 C35.182,22.861 34.437,23.605 33.520,23.605 C32.603,23.605 31.859,22.861 31.859,21.944 C31.859,21.026 32.603,20.283 33.520,20.283 C34.437,20.283 35.182,21.026 35.182,21.944 Z" id="path-14" class="cls-5" fill-rule="evenodd"/>
    <path d="M19.676,46.941 C19.676,47.859 18.932,48.602 18.015,48.602 C17.097,48.602 16.353,47.859 16.353,46.941 C16.353,46.024 17.097,45.280 18.015,45.280 C18.932,45.280 19.676,46.024 19.676,46.941 Z" id="path-15" class="cls-5" fill-rule="evenodd"/>
    <path d="M29.643,46.941 C29.643,47.859 28.900,48.602 27.982,48.602 C27.065,48.602 26.321,47.859 26.321,46.941 C26.321,46.024 27.065,45.280 27.982,45.280 C28.900,45.280 29.643,46.024 29.643,46.941 Z" id="path-16" class="cls-5" fill-rule="evenodd"/>
    <path d="M25.214,54.694 C25.214,55.612 24.470,56.355 23.553,56.355 C22.635,56.355 21.891,55.612 21.891,54.694 C21.891,53.777 22.635,53.033 23.553,53.033 C24.470,53.033 25.214,53.777 25.214,54.694 Z" id="path-17" class="cls-5" fill-rule="evenodd"/>
  </g>
</svg>
