<svg xmlns="http://www.w3.org/2000/svg" xmlns:xlink="http://www.w3.org/1999/xlink" preserveAspectRatio="xMidYMid" width="56" height="65" viewBox="0 0 56 65">
  <defs>
    <style>

      .cls-3 {
        fill: #99746a;
      }

      .cls-4 {
        fill: #000000;
      }
    </style>
  </defs>
  <g id="group-65svg">
    <path d="M30.646,4.480 C30.646,4.480 -6.592,10.902 9.553,34.537 C25.698,58.172 17.911,64.594 17.911,64.594 C17.911,64.594 26.094,64.594 26.094,64.594 C26.094,64.594 26.094,38.073 26.094,38.073 C25.094,37.145 23.826,35.347 23.826,33.252 C23.826,30.216 26.688,27.755 29.725,27.755 C29.885,27.755 30.471,27.789 30.471,27.803 C30.627,27.789 30.866,27.755 31.026,27.755 C34.062,27.755 35.385,30.216 35.385,33.252 C35.385,35.445 33.094,37.324 31.094,38.205 C31.094,38.205 31.094,64.594 31.094,64.594 C31.094,64.594 43.174,64.594 43.174,64.594 C43.174,64.594 35.489,58.172 51.635,34.537 C67.780,10.902 30.646,4.480 30.646,4.480 Z" id="path-1" class="cls-3" fill-rule="evenodd"/>
    <path d="M39.174,62.594 C39.174,62.594 27.594,62.594 27.594,62.594 C26.765,62.594 26.094,61.922 26.094,61.094 C26.094,61.094 26.094,35.205 26.094,35.205 C26.094,34.611 26.445,34.073 26.989,33.833 C28.560,33.141 30.150,31.687 30.150,30.252 C30.150,29.314 29.927,26.255 27.057,26.255 C27.008,26.257 26.945,26.266 26.885,26.273 C26.885,26.273 26.659,26.297 26.659,26.297 C26.526,26.308 26.395,26.302 26.269,26.279 C26.151,26.267 25.938,26.255 25.848,26.255 C23.573,26.255 21.576,28.122 21.576,30.252 C21.576,31.904 23.001,33.405 23.614,33.974 C23.920,34.258 24.094,34.656 24.094,35.073 C24.094,35.073 24.094,61.094 24.094,61.094 C24.094,61.922 23.422,62.594 22.594,62.594 C22.594,62.594 13.911,62.594 13.911,62.594 C13.272,62.594 12.704,62.189 12.494,61.587 C12.284,60.984 12.478,60.314 12.979,59.918 C13.010,59.888 19.208,53.935 4.314,32.133 C-0.006,25.808 -1.095,20.019 1.079,14.930 C5.956,3.512 25.568,0.139 26.400,-0.000 C26.563,-0.025 26.729,-0.026 26.892,0.001 C27.721,0.139 47.252,3.507 52.118,14.906 C54.292,20.002 53.201,25.798 48.873,32.133 C33.979,53.935 40.083,59.895 40.146,59.952 C40.605,60.369 40.778,61.041 40.555,61.619 C40.332,62.197 39.793,62.594 39.174,62.594 ZM29.094,59.594 C29.094,59.594 36.480,59.594 36.480,59.594 C35.046,55.752 34.909,47.257 46.396,30.441 C50.107,25.008 51.104,20.179 49.360,16.088 C45.410,6.820 28.869,3.422 26.645,3.005 C24.417,3.422 7.798,6.825 3.836,16.112 C2.093,20.198 3.088,25.018 6.792,30.441 C18.276,47.253 18.096,55.749 16.629,59.594 C16.629,59.594 21.094,59.594 21.094,59.594 C21.094,59.594 21.094,35.701 21.094,35.701 C19.988,34.553 18.576,32.621 18.576,30.252 C18.576,26.459 21.907,23.255 25.850,23.255 C26.007,23.255 26.259,23.255 26.537,23.293 C26.713,23.272 26.900,23.255 27.057,23.255 C30.702,23.255 33.150,26.066 33.150,30.252 C33.150,32.916 31.125,34.976 29.094,36.127 C29.094,36.127 29.094,59.594 29.094,59.594 Z" id="path-2" class="cls-4" fill-rule="evenodd"/>
    <path d="M26.594,26.094 C25.765,26.094 25.094,25.422 25.094,24.594 C25.094,24.594 25.094,1.594 25.094,1.594 C25.094,0.766 25.765,0.094 26.594,0.094 C27.422,0.094 28.094,0.766 28.094,1.594 C28.094,1.594 28.094,24.594 28.094,24.594 C28.094,25.422 27.422,26.094 26.594,26.094 Z" id="path-3" class="cls-4" fill-rule="evenodd"/>
    <path d="M47.094,12.594 C47.094,12.594 6.094,12.594 6.094,12.594 C5.265,12.594 4.594,11.922 4.594,11.094 C4.594,10.266 5.265,9.594 6.094,9.594 C6.094,9.594 47.094,9.594 47.094,9.594 C47.922,9.594 48.594,10.266 48.594,11.094 C48.594,11.922 47.922,12.594 47.094,12.594 Z" id="path-4" class="cls-4" fill-rule="evenodd"/>
    <path d="M50.094,18.594 C50.094,18.594 2.094,18.594 2.094,18.594 C1.265,18.594 0.594,17.922 0.594,17.094 C0.594,16.266 1.265,15.594 2.094,15.594 C2.094,15.594 50.094,15.594 50.094,15.594 C50.922,15.594 51.594,16.266 51.594,17.094 C51.594,17.922 50.922,18.594 50.094,18.594 Z" id="path-5" class="cls-4" fill-rule="evenodd"/>
    <path d="M37.094,51.594 C37.094,51.594 28.094,51.594 28.094,51.594 C27.265,51.594 26.594,50.922 26.594,50.094 C26.594,49.266 27.265,48.594 28.094,48.594 C28.094,48.594 37.094,48.594 37.094,48.594 C37.922,48.594 38.594,49.266 38.594,50.094 C38.594,50.922 37.922,51.594 37.094,51.594 Z" id="path-6" class="cls-4" fill-rule="evenodd"/>
    <path d="M39.094,45.594 C39.094,45.594 28.094,45.594 28.094,45.594 C27.265,45.594 26.594,44.922 26.594,44.094 C26.594,43.266 27.265,42.594 28.094,42.594 C28.094,42.594 39.094,42.594 39.094,42.594 C39.922,42.594 40.594,43.266 40.594,44.094 C40.594,44.922 39.922,45.594 39.094,45.594 Z" id="path-7" class="cls-4" fill-rule="evenodd"/>
    <path d="M22.094,51.594 C22.094,51.594 15.094,51.594 15.094,51.594 C14.265,51.594 13.594,50.922 13.594,50.094 C13.594,49.266 14.265,48.594 15.094,48.594 C15.094,48.594 22.094,48.594 22.094,48.594 C22.922,48.594 23.594,49.266 23.594,50.094 C23.594,50.922 22.922,51.594 22.094,51.594 Z" id="path-8" class="cls-4" fill-rule="evenodd"/>
    <path d="M22.094,45.594 C22.094,45.594 13.094,45.594 13.094,45.594 C12.265,45.594 11.594,44.922 11.594,44.094 C11.594,43.266 12.265,42.594 13.094,42.594 C13.094,42.594 22.094,42.594 22.094,42.594 C22.922,42.594 23.594,43.266 23.594,44.094 C23.594,44.922 22.922,45.594 22.094,45.594 Z" id="path-9" class="cls-4" fill-rule="evenodd"/>
  </g>
</svg>
