<svg xmlns="http://www.w3.org/2000/svg" xmlns:xlink="http://www.w3.org/1999/xlink" preserveAspectRatio="xMidYMid" width="31" height="64" viewBox="0 0 31 64">
  <defs>
    <style>

      .cls-3 {
        fill: #53ecf4;
      }

      .cls-4 {
        fill: #edc951;
      }

      .cls-5 {
        fill: #000000;
      }
    </style>
  </defs>
  <g id="group-73svg">
    <path d="M27.822,18.000 C27.822,18.000 9.086,18.000 9.086,18.000 C9.086,18.000 6.751,20.439 6.751,20.439 C5.637,21.742 4.000,23.766 4.000,25.481 C4.000,25.481 4.000,58.796 4.000,58.796 C4.000,58.796 6.673,65.541 13.868,60.445 C13.868,60.445 13.331,63.953 18.277,63.548 C23.223,63.953 22.165,60.445 22.165,60.445 C29.360,65.541 31.000,58.796 31.000,58.796 C31.000,58.796 31.000,25.481 31.000,25.481 C31.000,23.766 30.652,21.742 29.538,20.439 C29.538,20.439 27.822,18.000 27.822,18.000 Z" id="path-1" class="cls-3" fill-rule="evenodd"/>
    <rect id="rect-1" class="cls-4" x="11" y="4" width="13" height="8"/>
    <path d="M16.161,63.081 C15.923,63.081 15.669,63.072 15.402,63.053 C15.134,63.072 14.881,63.081 14.641,63.081 C12.778,63.081 11.384,62.539 10.498,61.471 C10.325,61.262 10.184,61.048 10.069,60.832 C8.726,61.508 7.440,61.850 6.228,61.850 C1.773,61.850 0.155,57.488 0.088,57.303 C0.030,57.140 -0.000,56.969 -0.000,56.796 C-0.000,56.796 -0.000,23.481 -0.000,23.481 C-0.000,20.889 2.189,18.125 2.861,17.340 C2.861,17.340 10.775,8.500 10.775,8.500 C11.060,8.182 11.466,8.000 11.893,8.000 C11.893,8.000 19.686,8.000 19.686,8.000 C20.140,8.000 20.570,8.205 20.854,8.559 C20.854,8.559 27.956,17.373 27.956,17.373 C29.457,19.128 30.000,21.766 30.000,23.481 C30.000,23.481 30.000,56.796 30.000,56.796 C30.000,56.928 29.982,57.060 29.948,57.188 C29.511,58.801 27.760,61.850 24.258,61.850 C24.258,61.850 24.258,61.850 24.258,61.850 C23.123,61.850 21.900,61.523 20.607,60.879 C20.507,61.073 20.386,61.268 20.238,61.455 C19.395,62.534 18.023,63.081 16.161,63.081 ZM15.402,60.049 C15.443,60.049 15.483,60.050 15.524,60.053 C16.712,60.151 17.571,59.980 17.868,59.617 C18.117,59.310 18.017,58.785 18.016,58.781 C17.891,58.178 18.144,57.543 18.660,57.205 C19.175,56.868 19.842,56.864 20.345,57.221 C21.849,58.286 23.202,58.850 24.258,58.850 C26.034,58.850 26.800,57.117 27.000,56.560 C27.000,56.560 27.000,23.481 27.000,23.481 C27.000,21.943 26.444,20.220 25.648,19.289 C25.648,19.289 18.969,11.000 18.969,11.000 C18.969,11.000 12.563,11.000 12.563,11.000 C12.563,11.000 5.119,19.314 5.119,19.314 C3.880,20.764 3.000,22.488 3.000,23.481 C3.000,23.481 3.000,56.494 3.000,56.494 C3.285,57.106 4.269,58.850 6.228,58.850 C7.372,58.850 8.725,58.301 10.250,57.221 C10.749,56.867 11.413,56.852 11.928,57.182 C12.442,57.512 12.705,58.121 12.592,58.723 C12.592,58.723 12.592,58.722 12.592,58.722 C12.593,58.722 12.529,59.234 12.818,59.568 C13.168,59.973 14.040,60.152 15.279,60.053 C15.320,60.050 15.361,60.049 15.402,60.049 Z" id="path-2" class="cls-5" fill-rule="evenodd"/>
    <path d="M28.500,42.000 C28.500,42.000 1.500,42.000 1.500,42.000 C0.671,42.000 -0.000,41.328 -0.000,40.500 C-0.000,40.500 -0.000,29.500 -0.000,29.500 C-0.000,28.672 0.671,28.000 1.500,28.000 C1.500,28.000 28.500,28.000 28.500,28.000 C29.329,28.000 30.000,28.672 30.000,29.500 C30.000,29.500 30.000,40.500 30.000,40.500 C30.000,41.328 29.329,42.000 28.500,42.000 ZM3.000,39.000 C3.000,39.000 27.000,39.000 27.000,39.000 C27.000,39.000 27.000,31.000 27.000,31.000 C27.000,31.000 3.000,31.000 3.000,31.000 C3.000,31.000 3.000,39.000 3.000,39.000 Z" id="path-3" class="cls-5" fill-rule="evenodd"/>
    <path d="M21.500,11.000 C21.500,11.000 8.500,11.000 8.500,11.000 C7.671,11.000 7.000,10.328 7.000,9.500 C7.000,9.500 7.000,1.500 7.000,1.500 C7.000,0.672 7.671,-0.000 8.500,-0.000 C8.500,-0.000 21.500,-0.000 21.500,-0.000 C22.329,-0.000 23.000,0.672 23.000,1.500 C23.000,1.500 23.000,9.500 23.000,9.500 C23.000,10.328 22.329,11.000 21.500,11.000 ZM10.000,8.000 C10.000,8.000 20.000,8.000 20.000,8.000 C20.000,8.000 20.000,3.000 20.000,3.000 C20.000,3.000 10.000,3.000 10.000,3.000 C10.000,3.000 10.000,8.000 10.000,8.000 Z" id="path-4" class="cls-5" fill-rule="evenodd"/>
  </g>
</svg>
