<svg xmlns="http://www.w3.org/2000/svg" xmlns:xlink="http://www.w3.org/1999/xlink" preserveAspectRatio="xMidYMid" width="67" height="27" viewBox="0 0 67 27">
  <defs>
    <style>

      .cls-3 {
        fill: #81bda4;
      }

      .cls-7 {
        fill: #000000;
      }
    </style>
  </defs>
  <g id="group-27svg">
    <path d="M66.392,8.177 C44.439,14.217 28.587,14.217 6.635,8.177 C6.635,8.177 5.261,16.117 11.739,21.624 C18.218,27.131 54.809,27.131 61.287,21.624 C67.766,16.117 66.392,8.177 66.392,8.177 Z" id="path-1" class="cls-3" fill-rule="evenodd"/>
    <path d="M45.534,11.993 C45.328,11.316 45.217,10.598 45.217,9.853 C45.217,5.799 48.504,2.513 52.559,2.513 C56.612,2.513 59.899,5.799 59.899,9.853 C59.899,9.853 59.899,9.853 59.899,9.853 " id="path-2" class="cls-3" fill-rule="evenodd"/>
    <path d="M28.671,11.993 C28.877,11.316 28.987,10.598 28.987,9.853 C28.987,5.799 25.701,2.513 21.646,2.513 C17.593,2.513 14.306,5.799 14.306,9.853 C14.306,9.853 14.306,9.853 14.306,9.853 " id="path-3" class="cls-3" fill-rule="evenodd"/>
    <path d="M29.668,12.021 C29.525,11.329 29.482,10.602 29.551,9.862 C29.929,5.825 33.507,2.858 37.543,3.235 C41.580,3.613 44.547,7.191 44.170,11.227 C44.170,11.227 44.170,11.227 44.170,11.227 " id="path-4" class="cls-3" fill-rule="evenodd"/>
    <path d="M31.514,26.254 C21.619,26.254 9.660,25.075 5.768,21.767 C-1.282,15.774 0.095,7.280 0.156,6.921 C0.228,6.504 0.474,6.138 0.831,5.911 C1.187,5.684 1.622,5.617 2.032,5.731 C13.132,8.785 22.500,10.207 31.514,10.207 C40.526,10.207 49.894,8.785 60.994,5.731 C61.403,5.617 61.839,5.685 62.195,5.911 C62.553,6.138 62.798,6.504 62.870,6.921 C62.932,7.280 64.309,15.774 57.259,21.767 C53.366,25.075 41.407,26.254 31.514,26.254 ZM3.003,9.100 C3.008,11.500 3.629,16.011 7.711,19.481 C10.324,21.703 20.112,23.254 31.514,23.254 C42.914,23.254 52.702,21.703 55.315,19.481 C59.396,16.012 60.018,11.503 60.022,9.100 C49.420,11.898 40.317,13.207 31.514,13.207 C22.709,13.207 13.606,11.898 3.003,9.100 Z" id="path-5" class="cls-7" fill-rule="evenodd"/>
    <path d="M40.533,12.494 C39.891,12.494 39.296,12.077 39.100,11.430 C38.846,10.597 38.717,9.730 38.717,8.853 C38.717,3.978 42.683,0.013 47.558,0.013 C52.433,0.013 56.399,3.978 56.399,8.853 C56.399,9.682 55.727,10.353 54.899,10.353 C54.071,10.353 53.399,9.682 53.399,8.853 C53.399,5.633 50.778,3.013 47.558,3.013 C44.337,3.013 41.717,5.633 41.717,8.853 C41.717,9.434 41.802,10.006 41.969,10.556 C42.210,11.349 41.764,12.187 40.971,12.428 C40.825,12.473 40.679,12.494 40.533,12.494 Z" id="path-6" class="cls-7" fill-rule="evenodd"/>
    <path d="M23.672,12.494 C23.526,12.494 23.380,12.473 23.234,12.428 C22.441,12.187 21.995,11.349 22.236,10.556 C22.402,10.008 22.487,9.435 22.487,8.853 C22.487,5.633 19.867,3.013 16.646,3.013 C13.426,3.013 10.806,5.633 10.806,8.853 C10.806,9.682 10.134,10.353 9.306,10.353 C8.477,10.353 7.806,9.682 7.806,8.853 C7.806,3.978 11.771,0.013 16.646,0.013 C21.521,0.013 25.487,3.978 25.487,8.853 C25.487,9.732 25.359,10.599 25.105,11.430 C24.909,12.077 24.314,12.494 23.672,12.494 Z" id="path-7" class="cls-7" fill-rule="evenodd"/>
    <path d="M24.666,12.522 C23.970,12.522 23.345,12.033 23.199,11.324 C23.023,10.473 22.977,9.597 23.059,8.722 C23.277,6.371 24.399,4.246 26.218,2.739 C28.035,1.231 30.335,0.525 32.683,0.742 C37.536,1.196 41.116,5.514 40.663,10.367 C40.586,11.192 39.859,11.796 39.030,11.721 C38.206,11.644 37.600,10.913 37.677,10.088 C37.976,6.881 35.610,4.029 32.403,3.729 C30.849,3.583 29.334,4.052 28.133,5.048 C26.932,6.044 26.190,7.448 26.045,9.001 C25.991,9.581 26.021,10.159 26.137,10.719 C26.304,11.531 25.781,12.324 24.971,12.491 C24.868,12.512 24.767,12.522 24.666,12.522 Z" id="path-8" class="cls-7" fill-rule="evenodd"/>
    <path d="M40.446,20.549 C38.757,20.549 36.905,20.486 34.870,20.349 C34.044,20.293 33.419,19.578 33.475,18.751 C33.530,17.925 34.231,17.292 35.073,17.356 C50.387,18.390 54.481,14.886 54.769,13.448 C54.831,12.623 55.544,12.053 56.373,12.107 C57.199,12.169 57.813,12.931 57.751,13.757 C57.658,14.979 56.352,20.549 40.446,20.549 Z" id="path-9" class="cls-7" fill-rule="evenodd"/>
  </g>
</svg>
