<svg xmlns="http://www.w3.org/2000/svg" xmlns:xlink="http://www.w3.org/1999/xlink" preserveAspectRatio="xMidYMid" width="64" height="64" viewBox="0 0 64 64">
  <defs>
    <style>

      .cls-3 {
        fill: #99746a;
      }

      .cls-9 {
        fill: #81bda4;
      }

      .cls-11 {
        fill: #e56a77;
      }

      .cls-13 {
        fill: #edc951;
      }

      .cls-15 {
        fill: #000000;
      }
    </style>
  </defs>
  <g id="group-52svg">
    <path d="M30.085,17.058 C30.085,17.058 37.214,24.186 37.214,24.186 C37.214,24.186 42.398,19.002 42.398,19.002 C42.398,19.002 35.270,11.874 35.270,11.874 C35.270,11.874 30.085,17.058 30.085,17.058 Z" id="path-1" class="cls-3" fill-rule="evenodd"/>
    <path d="M19.069,28.074 C19.069,28.074 26.197,35.202 26.197,35.202 C26.197,35.202 30.733,30.666 30.733,30.666 C30.733,30.666 23.605,23.538 23.605,23.538 C23.605,23.538 19.069,28.074 19.069,28.074 Z" id="path-2" class="cls-3" fill-rule="evenodd"/>
    <path d="M8.053,39.090 C8.053,39.090 15.181,46.219 15.181,46.219 C15.181,46.219 19.717,41.683 19.717,41.683 C19.717,41.683 12.589,34.555 12.589,34.555 C12.589,34.555 8.053,39.090 8.053,39.090 Z" id="path-3" class="cls-3" fill-rule="evenodd"/>
    <path d="M43.429,30.401 C43.429,30.401 50.557,37.529 50.557,37.529 C50.557,37.529 55.741,32.345 55.741,32.345 C55.741,32.345 48.613,25.217 48.613,25.217 C48.613,25.217 43.429,30.401 43.429,30.401 Z" id="path-4" class="cls-3" fill-rule="evenodd"/>
    <path d="M32.412,41.417 C32.412,41.417 39.540,48.545 39.540,48.545 C39.540,48.545 44.077,44.010 44.077,44.010 C44.077,44.010 36.948,36.881 36.948,36.881 C36.948,36.881 32.412,41.417 32.412,41.417 Z" id="path-5" class="cls-3" fill-rule="evenodd"/>
    <path d="M21.396,52.434 C21.396,52.434 28.524,59.561 28.524,59.561 C28.524,59.561 33.061,55.025 33.061,55.025 C33.061,55.025 25.932,47.897 25.932,47.897 C25.932,47.897 21.396,52.434 21.396,52.434 Z" id="path-6" class="cls-3" fill-rule="evenodd"/>
    <path d="M44.482,14.973 C42.890,16.565 40.366,16.623 38.845,15.102 C37.324,13.581 37.382,11.058 38.974,9.465 C40.567,7.872 43.091,7.815 44.612,9.336 C46.133,10.857 46.075,13.381 44.482,14.973 Z" id="path-7" class="cls-9" fill-rule="evenodd"/>
    <path d="M57.826,28.316 C56.233,29.909 53.709,29.967 52.188,28.446 C50.667,26.925 50.725,24.401 52.317,22.808 C53.910,21.216 56.434,21.158 57.955,22.679 C59.476,24.200 59.418,26.724 57.826,28.316 Z" id="path-8" class="cls-9" fill-rule="evenodd"/>
    <path d="M22.185,37.270 C20.593,38.863 18.068,38.921 16.547,37.400 C15.026,35.879 15.084,33.355 16.677,31.763 C18.269,30.170 20.793,30.112 22.314,31.633 C23.835,33.154 23.777,35.678 22.185,37.270 Z" id="path-9" class="cls-11" fill-rule="evenodd"/>
    <path d="M35.528,50.613 C33.936,52.206 31.412,52.264 29.891,50.743 C28.370,49.222 28.428,46.698 30.020,45.105 C31.612,43.514 34.136,43.455 35.657,44.977 C37.178,46.497 37.121,49.021 35.528,50.613 Z" id="path-10" class="cls-11" fill-rule="evenodd"/>
    <path d="M33.010,26.446 C31.417,28.039 28.893,28.096 27.372,26.575 C25.851,25.054 25.909,22.530 27.501,20.938 C29.094,19.345 31.618,19.287 33.139,20.809 C34.660,22.330 34.602,24.853 33.010,26.446 Z" id="path-11" class="cls-13" fill-rule="evenodd"/>
    <path d="M46.352,39.789 C44.760,41.382 42.236,41.439 40.715,39.918 C39.194,38.397 39.252,35.873 40.845,34.281 C42.437,32.688 44.961,32.630 46.482,34.151 C48.003,35.673 47.945,38.196 46.352,39.789 Z" id="path-12" class="cls-13" fill-rule="evenodd"/>
    <path d="M1.489,49.635 C1.105,49.635 0.721,49.488 0.428,49.195 C-0.158,48.609 -0.158,47.660 0.428,47.074 C0.428,47.074 6.909,40.594 6.909,40.594 C7.495,40.008 8.444,40.008 9.030,40.594 C9.616,41.180 9.616,42.129 9.030,42.715 C9.030,42.715 2.549,49.195 2.549,49.195 C2.256,49.488 1.873,49.635 1.489,49.635 Z" id="path-13" class="cls-15" fill-rule="evenodd"/>
    <path d="M41.666,9.458 C41.282,9.458 40.898,9.311 40.605,9.018 C40.019,8.433 40.019,7.483 40.605,6.897 C40.605,6.897 47.085,0.417 47.085,0.417 C47.671,-0.169 48.621,-0.169 49.207,0.417 C49.792,1.002 49.792,1.953 49.207,2.538 C49.207,2.538 42.726,9.018 42.726,9.018 C42.433,9.311 42.049,9.458 41.666,9.458 Z" id="path-14" class="cls-15" fill-rule="evenodd"/>
    <path d="M38.545,16.706 C37.115,16.706 35.780,16.159 34.784,15.163 C32.681,13.060 32.739,9.579 34.914,7.405 C35.992,6.326 37.412,5.732 38.912,5.732 C40.342,5.732 41.677,6.280 42.672,7.275 C44.776,9.378 44.718,12.859 42.543,15.034 C41.465,16.112 40.045,16.706 38.545,16.706 ZM38.912,8.732 C38.213,8.732 37.547,9.014 37.035,9.526 C36.030,10.531 35.972,12.108 36.905,13.042 C37.810,13.945 39.448,13.885 40.421,12.912 C41.427,11.908 41.485,10.330 40.551,9.396 C40.123,8.968 39.540,8.732 38.912,8.732 Z" id="path-15" class="cls-15" fill-rule="evenodd"/>
    <path d="M51.888,30.050 C50.458,30.050 49.123,29.501 48.127,28.506 C46.024,26.403 46.082,22.923 48.256,20.747 C49.335,19.669 50.755,19.075 52.255,19.075 C53.685,19.075 55.020,19.623 56.016,20.618 C58.119,22.721 58.061,26.202 55.887,28.377 C54.808,29.456 53.387,30.050 51.888,30.050 ZM52.255,22.075 C51.557,22.075 50.890,22.357 50.378,22.869 C49.373,23.874 49.315,25.452 50.248,26.385 C51.154,27.290 52.792,27.228 53.765,26.255 C54.770,25.250 54.828,23.673 53.895,22.739 C53.466,22.311 52.883,22.075 52.255,22.075 Z" id="path-16" class="cls-15" fill-rule="evenodd"/>
    <path d="M27.072,28.179 C25.642,28.179 24.307,27.631 23.311,26.636 C21.208,24.533 21.266,21.052 23.441,18.877 C24.519,17.799 25.939,17.205 27.439,17.205 C28.869,17.205 30.205,17.752 31.200,18.748 C33.303,20.851 33.245,24.331 31.070,26.506 C29.992,27.585 28.572,28.179 27.072,28.179 ZM27.439,20.205 C26.741,20.205 26.074,20.487 25.562,20.998 C24.557,22.003 24.499,23.581 25.433,24.515 C26.337,25.419 27.976,25.358 28.949,24.385 C29.954,23.380 30.012,21.803 29.079,20.869 C28.650,20.440 28.068,20.205 27.439,20.205 Z" id="path-17" class="cls-15" fill-rule="evenodd"/>
    <path d="M40.415,41.522 C38.985,41.522 37.650,40.974 36.655,39.978 C34.551,37.876 34.609,34.395 36.784,32.220 C37.863,31.141 39.283,30.547 40.782,30.547 C42.212,30.547 43.547,31.096 44.542,32.091 C46.646,34.194 46.588,37.676 44.414,39.849 C43.335,40.928 41.914,41.522 40.415,41.522 ZM40.782,33.547 C40.084,33.547 39.417,33.830 38.905,34.342 C37.900,35.347 37.842,36.924 38.776,37.857 C39.682,38.763 41.320,38.701 42.292,37.727 C43.297,36.724 43.355,35.146 42.421,34.212 C41.993,33.783 41.411,33.547 40.782,33.547 Z" id="path-18" class="cls-15" fill-rule="evenodd"/>
    <path d="M16.248,39.004 C14.817,39.004 13.482,38.456 12.487,37.460 C10.383,35.357 10.441,31.877 12.616,29.702 C13.695,28.623 15.115,28.029 16.614,28.029 C18.044,28.029 19.380,28.577 20.375,29.573 C22.478,31.676 22.420,35.156 20.246,37.331 C19.167,38.410 17.747,39.004 16.248,39.004 ZM16.614,31.029 C15.916,31.029 15.249,31.311 14.737,31.823 C13.732,32.828 13.674,34.406 14.608,35.340 C15.513,36.244 17.151,36.183 18.124,35.210 C19.129,34.205 19.187,32.627 18.254,31.694 C17.825,31.265 17.243,31.029 16.614,31.029 Z" id="path-19" class="cls-15" fill-rule="evenodd"/>
    <path d="M29.590,52.348 C28.161,52.348 26.825,51.799 25.830,50.804 C23.727,48.701 23.785,45.220 25.959,43.045 C27.038,41.967 28.458,41.372 29.957,41.372 C31.387,41.372 32.723,41.920 33.718,42.916 C35.821,45.019 35.763,48.500 33.589,50.674 C32.510,51.753 31.090,52.348 29.590,52.348 ZM29.957,44.372 C29.259,44.372 28.593,44.654 28.081,45.166 C27.076,46.172 27.018,47.749 27.951,48.683 C28.857,49.588 30.496,49.525 31.468,48.553 C32.473,47.548 32.530,45.971 31.596,45.036 C31.168,44.608 30.586,44.372 29.957,44.372 Z" id="path-20" class="cls-15" fill-rule="evenodd"/>
    <path d="M34.213,24.686 C33.830,24.686 33.446,24.539 33.153,24.246 C33.153,24.246 26.025,17.119 26.025,17.119 C25.439,16.533 25.439,15.583 26.025,14.997 C26.025,14.997 31.209,9.813 31.209,9.813 C31.795,9.227 32.744,9.227 33.330,9.813 C33.330,9.813 40.458,16.941 40.458,16.941 C40.740,17.223 40.898,17.604 40.898,18.002 C40.898,18.400 40.740,18.781 40.458,19.062 C40.458,19.062 35.274,24.246 35.274,24.246 C34.981,24.539 34.597,24.686 34.213,24.686 ZM29.207,16.058 C29.207,16.058 34.213,21.065 34.213,21.065 C34.213,21.065 37.276,18.002 37.276,18.002 C37.276,18.002 32.269,12.995 32.269,12.995 C32.269,12.995 29.207,16.058 29.207,16.058 Z" id="path-21" class="cls-15" fill-rule="evenodd"/>
    <path d="M23.197,35.702 C22.813,35.702 22.430,35.556 22.137,35.263 C22.137,35.263 15.009,28.135 15.009,28.135 C14.423,27.549 14.423,26.599 15.009,26.014 C15.009,26.014 19.545,21.477 19.545,21.477 C20.131,20.892 21.080,20.892 21.666,21.477 C21.666,21.477 28.794,28.605 28.794,28.605 C29.380,29.191 29.380,30.141 28.794,30.726 C28.794,30.726 24.258,35.263 24.258,35.263 C23.965,35.556 23.581,35.702 23.197,35.702 ZM18.190,27.074 C18.190,27.074 23.197,32.081 23.197,32.081 C23.197,32.081 25.612,29.666 25.612,29.666 C25.612,29.666 20.605,24.659 20.605,24.659 C20.605,24.659 18.190,27.074 18.190,27.074 Z" id="path-22" class="cls-15" fill-rule="evenodd"/>
    <path d="M12.181,46.719 C11.797,46.719 11.414,46.572 11.121,46.279 C11.121,46.279 3.993,39.150 3.993,39.150 C3.407,38.565 3.407,37.615 3.993,37.029 C3.993,37.029 8.529,32.494 8.529,32.494 C8.810,32.212 9.191,32.054 9.589,32.054 C9.589,32.054 9.589,32.054 9.589,32.054 C9.987,32.054 10.369,32.212 10.650,32.494 C10.650,32.494 17.778,39.622 17.778,39.622 C18.059,39.903 18.217,40.285 18.217,40.683 C18.217,41.080 18.059,41.462 17.778,41.743 C17.778,41.743 13.242,46.279 13.242,46.279 C12.949,46.572 12.565,46.719 12.181,46.719 ZM7.174,38.090 C7.174,38.090 12.181,43.098 12.181,43.098 C12.181,43.098 14.596,40.683 14.596,40.683 C14.596,40.683 9.589,35.676 9.589,35.676 C9.589,35.676 7.174,38.090 7.174,38.090 Z" id="path-23" class="cls-15" fill-rule="evenodd"/>
    <path d="M47.557,38.029 C47.557,38.029 47.557,38.029 47.557,38.029 C47.159,38.029 46.777,37.871 46.496,37.590 C46.496,37.590 39.368,30.461 39.368,30.461 C38.782,29.875 38.782,28.926 39.368,28.340 C39.368,28.340 44.552,23.156 44.552,23.156 C44.833,22.875 45.215,22.717 45.613,22.717 C45.613,22.717 45.613,22.717 45.613,22.717 C46.011,22.717 46.392,22.875 46.673,23.156 C46.673,23.156 53.801,30.285 53.801,30.285 C54.387,30.871 54.387,31.820 53.801,32.406 C53.801,32.406 48.617,37.590 48.617,37.590 C48.336,37.871 47.955,38.029 47.557,38.029 ZM42.550,29.401 C42.550,29.401 47.557,34.407 47.557,34.407 C47.557,34.407 50.620,31.345 50.620,31.345 C50.620,31.345 45.613,26.338 45.613,26.338 C45.613,26.338 42.550,29.401 42.550,29.401 Z" id="path-24" class="cls-15" fill-rule="evenodd"/>
    <path d="M36.541,49.045 C36.157,49.045 35.773,48.898 35.480,48.605 C35.480,48.605 28.352,41.477 28.352,41.477 C27.766,40.892 27.766,39.943 28.352,39.356 C28.352,39.356 32.888,34.820 32.888,34.820 C33.450,34.258 34.446,34.258 35.009,34.820 C35.009,34.820 42.137,41.948 42.137,41.948 C42.418,42.230 42.577,42.611 42.577,43.010 C42.577,43.407 42.418,43.789 42.137,44.069 C42.137,44.069 37.601,48.605 37.601,48.605 C37.308,48.898 36.924,49.045 36.541,49.045 ZM31.534,40.418 C31.534,40.418 36.541,45.424 36.541,45.424 C36.541,45.424 38.955,43.010 38.955,43.010 C38.955,43.010 33.948,38.003 33.948,38.003 C33.948,38.003 31.534,40.418 31.534,40.418 Z" id="path-25" class="cls-15" fill-rule="evenodd"/>
    <path d="M25.524,60.061 C25.141,60.061 24.757,59.915 24.464,59.622 C24.464,59.622 17.335,52.494 17.335,52.494 C17.054,52.213 16.896,51.832 16.896,51.434 C16.896,51.035 17.054,50.654 17.335,50.373 C17.335,50.373 21.872,45.837 21.872,45.837 C22.457,45.251 23.407,45.251 23.993,45.837 C23.993,45.837 31.121,52.965 31.121,52.965 C31.402,53.246 31.560,53.627 31.560,54.025 C31.560,54.423 31.402,54.805 31.121,55.086 C31.121,55.086 26.585,59.622 26.585,59.622 C26.292,59.915 25.908,60.061 25.524,60.061 ZM20.518,51.434 C20.518,51.434 25.524,56.440 25.524,56.440 C25.524,56.440 27.939,54.025 27.939,54.025 C27.939,54.025 22.932,49.018 22.932,49.018 C22.932,49.018 20.518,51.434 20.518,51.434 Z" id="path-26" class="cls-15" fill-rule="evenodd"/>
    <path d="M14.832,62.977 C14.448,62.977 14.064,62.831 13.771,62.538 C13.186,61.952 13.186,61.002 13.771,60.417 C13.771,60.417 20.251,53.936 20.251,53.936 C20.837,53.351 21.787,53.351 22.372,53.936 C22.958,54.522 22.958,55.473 22.372,56.059 C22.372,56.059 15.893,62.538 15.893,62.538 C15.600,62.831 15.216,62.977 14.832,62.977 Z" id="path-27" class="cls-15" fill-rule="evenodd"/>
    <path d="M55.009,22.801 C54.625,22.801 54.241,22.654 53.948,22.361 C53.362,21.776 53.362,20.826 53.948,20.240 C53.948,20.240 60.428,13.760 60.428,13.760 C61.014,13.174 61.963,13.174 62.549,13.760 C63.135,14.346 63.135,15.296 62.549,15.881 C62.549,15.881 56.069,22.361 56.069,22.361 C55.776,22.654 55.393,22.801 55.009,22.801 Z" id="path-28" class="cls-15" fill-rule="evenodd"/>
  </g>
</svg>
