<svg xmlns="http://www.w3.org/2000/svg" xmlns:xlink="http://www.w3.org/1999/xlink" preserveAspectRatio="xMidYMid" width="53" height="64" viewBox="0 0 53 64">
  <defs>
    <style>

      .cls-3 {
        fill: #8b71b5;
      }

      .cls-4 {
        fill: #81bda4;
      }

      .cls-5 {
        fill: #000000;
      }
    </style>
  </defs>
  <g id="group-16svg">
    <path d="M36.869,17.321 C36.869,17.321 29.143,29.544 13.964,33.924 C-1.216,38.303 6.161,63.872 19.531,63.483 C32.902,63.096 50.021,54.289 49.106,23.383 C49.106,23.383 36.869,17.321 36.869,17.321 Z" id="path-1" class="cls-3" fill-rule="evenodd"/>
    <path d="M51.879,24.170 C53.857,19.458 51.452,14.468 46.801,12.326 C42.148,10.183 37.011,11.699 35.032,16.410 C35.032,16.410 51.879,24.170 51.879,24.170 Z" id="path-2" class="cls-4" fill-rule="evenodd"/>
    <path d="M15.233,62.750 C15.232,62.750 15.231,62.750 15.231,62.750 C6.956,62.750 1.319,54.576 0.217,46.775 C-0.932,38.643 2.644,32.415 9.548,30.423 C24.012,26.249 31.527,14.607 31.602,14.490 C32.012,13.840 32.846,13.621 33.535,13.962 C33.535,13.962 45.772,20.031 45.772,20.031 C46.269,20.277 46.590,20.781 46.605,21.334 C47.029,35.663 43.717,46.625 36.761,53.911 C31.407,59.519 23.884,62.622 15.576,62.863 C15.461,62.867 15.348,62.750 15.233,62.750 ZM33.364,17.240 C31.014,20.452 23.374,29.616 10.380,33.365 C2.316,35.691 2.836,43.987 3.187,46.474 C4.126,53.116 8.888,59.987 15.231,59.988 C15.231,59.988 15.488,59.984 15.488,59.984 C19.840,59.858 28.107,58.632 34.591,51.842 C40.831,45.306 43.869,35.378 43.629,22.325 C43.629,22.325 33.364,17.240 33.364,17.240 Z" id="path-3" class="cls-5" fill-rule="evenodd"/>
    <path d="M47.879,23.670 C47.664,23.670 47.450,23.624 47.251,23.532 C47.251,23.532 30.404,15.772 30.404,15.772 C29.670,15.434 29.336,14.574 29.649,13.829 C31.216,10.099 34.562,7.872 38.602,7.872 C40.233,7.872 41.856,8.239 43.429,8.963 C48.980,11.521 51.488,17.448 49.262,22.750 C49.104,23.125 48.802,23.420 48.423,23.568 C48.247,23.636 48.063,23.670 47.879,23.670 ZM33.107,13.714 C33.107,13.714 46.944,20.088 46.944,20.088 C47.559,16.738 45.694,13.310 42.173,11.688 C40.998,11.147 39.797,10.873 38.602,10.873 C36.309,10.873 34.338,11.912 33.107,13.714 Z" id="path-4" class="cls-5" fill-rule="evenodd"/>
    <path d="M42.802,11.826 C42.367,11.826 41.936,11.638 41.640,11.276 C41.116,10.636 41.209,9.695 41.846,9.169 C42.220,8.856 45.385,6.038 43.026,2.286 C42.585,1.584 42.796,0.659 43.498,0.218 C44.197,-0.222 45.125,-0.013 45.565,0.689 C48.623,5.554 45.715,9.879 43.751,11.486 C43.472,11.715 43.136,11.826 42.802,11.826 Z" id="path-5" class="cls-5" fill-rule="evenodd"/>
    <path d="M8.434,51.301 C7.902,51.301 7.388,51.018 7.116,50.519 C3.831,44.497 7.976,39.108 10.625,37.101 C11.285,36.600 12.226,36.729 12.727,37.390 C13.226,38.049 13.098,38.989 12.439,39.489 C12.197,39.675 6.892,43.843 9.749,49.082 C10.146,49.810 9.878,50.721 9.151,51.118 C8.923,51.242 8.677,51.301 8.434,51.301 Z" id="path-6" class="cls-5" fill-rule="evenodd"/>
  </g>
</svg>
