<svg xmlns="http://www.w3.org/2000/svg" xmlns:xlink="http://www.w3.org/1999/xlink" preserveAspectRatio="xMidYMid" width="50" height="64" viewBox="0 0 50 64">
  <defs>
    <style>

      .cls-3 {
        fill: #ff917b;
      }

      .cls-4 {
        fill: #81bda4;
      }

      .cls-6 {
        fill: #000000;
      }
    </style>
  </defs>
  <g id="group-21svg">
    <path d="M49.425,41.521 C49.425,53.653 39.590,63.488 27.457,63.488 C15.326,63.488 5.491,53.653 5.491,41.521 C5.491,29.389 15.326,19.554 27.457,19.554 C39.590,19.554 49.425,29.389 49.425,41.521 Z" id="path-1" class="cls-3" fill-rule="evenodd"/>
    <path d="M27.923,12.230 C27.923,12.230 27.606,4.507 35.940,6.451 C44.274,8.395 44.167,4.255 44.167,4.255 C44.167,4.255 46.576,19.110 34.709,15.011 C34.709,15.011 30.968,13.621 27.923,12.230 Z" id="path-2" class="cls-4" fill-rule="evenodd"/>
    <path d="M28.083,12.974 C28.083,12.974 29.135,5.316 20.653,6.457 C12.172,7.599 12.672,3.488 12.672,3.488 C12.672,3.488 8.861,18.046 21.063,15.096 C21.063,15.096 24.920,14.068 28.083,12.974 Z" id="path-3" class="cls-4" fill-rule="evenodd"/>
    <path d="M23.457,62.988 C10.518,62.988 -0.009,52.460 -0.009,39.521 C-0.009,26.582 10.518,16.054 23.457,16.054 C36.397,16.054 46.925,26.582 46.925,39.521 C46.925,52.460 36.397,62.988 23.457,62.988 ZM23.457,19.054 C12.172,19.054 2.991,28.235 2.991,39.521 C2.991,50.807 12.172,59.988 23.457,59.988 C34.743,59.988 43.925,50.807 43.925,39.521 C43.925,28.235 34.743,19.054 23.457,19.054 Z" id="path-4" class="cls-6" fill-rule="evenodd"/>
    <path d="M23.923,11.731 C23.284,11.731 22.692,11.320 22.491,10.678 C22.245,9.887 22.685,9.046 23.477,8.799 C23.709,8.726 29.222,7.028 33.219,7.801 C34.032,7.958 34.564,8.745 34.407,9.558 C34.250,10.371 33.461,10.904 32.650,10.746 C29.942,10.223 25.755,11.230 24.370,11.663 C24.222,11.709 24.071,11.731 23.923,11.731 Z" id="path-5" class="cls-6" fill-rule="evenodd"/>
    <path d="M34.426,15.226 C33.167,15.226 31.752,14.958 30.220,14.429 C30.032,14.359 26.360,12.992 23.300,11.596 C22.786,11.361 22.448,10.857 22.425,10.292 C22.419,10.152 22.308,6.824 24.458,4.584 C26.217,2.752 28.877,2.196 32.281,2.990 C33.647,3.309 34.843,3.470 35.837,3.470 C37.866,3.470 38.630,2.805 38.668,2.235 C38.647,1.446 39.242,0.806 40.028,0.732 C40.816,0.656 41.522,1.236 41.648,2.015 C41.696,2.308 42.779,9.256 39.633,12.952 C38.367,14.440 36.566,15.226 34.426,15.226 ZM25.486,9.286 C28.231,10.487 31.199,11.592 31.232,11.604 C34.037,12.572 36.139,12.425 37.346,11.011 C38.387,9.790 38.765,7.787 38.850,5.972 C37.122,6.651 34.700,6.635 31.600,5.912 C29.307,5.377 27.636,5.617 26.633,6.650 C25.879,7.428 25.594,8.523 25.486,9.286 Z" id="path-6" class="cls-6" fill-rule="evenodd"/>
    <path d="M14.087,14.990 C14.087,14.990 14.086,14.990 14.086,14.990 C10.990,14.990 9.271,13.605 8.375,12.444 C5.332,8.503 7.143,1.408 7.221,1.108 C7.421,0.345 8.181,-0.131 8.954,0.014 C9.729,0.162 10.257,0.886 10.161,1.669 C10.162,1.668 10.162,1.668 10.162,1.668 C10.166,1.668 10.177,1.967 10.471,2.269 C10.793,2.601 11.672,3.158 13.935,3.158 C14.685,3.158 15.532,3.095 16.453,2.971 C19.782,2.521 22.302,3.242 23.904,5.079 C26.041,7.530 25.590,11.030 25.569,11.178 C25.493,11.738 25.108,12.207 24.574,12.392 C21.396,13.491 17.609,14.502 17.450,14.545 C16.217,14.843 15.097,14.990 14.087,14.990 ZM9.629,5.312 C9.538,7.196 9.741,9.308 10.752,10.614 C11.469,11.540 12.559,11.990 14.086,11.990 C14.086,11.990 14.087,11.990 14.087,11.990 C14.860,11.990 15.743,11.871 16.711,11.638 C16.715,11.636 19.771,10.820 22.618,9.885 C22.582,9.081 22.387,7.896 21.633,7.039 C20.729,6.013 19.095,5.642 16.854,5.944 C13.700,6.368 11.288,6.156 9.629,5.312 Z" id="path-7" class="cls-6" fill-rule="evenodd"/>
    <path d="M24.082,12.474 C23.889,12.474 23.692,12.436 23.503,12.357 C23.455,12.336 18.646,10.344 15.347,10.657 C14.528,10.741 13.790,10.131 13.711,9.306 C13.632,8.481 14.237,7.749 15.062,7.670 C19.117,7.285 24.440,9.497 24.664,9.591 C25.428,9.912 25.787,10.790 25.466,11.554 C25.226,12.128 24.668,12.474 24.082,12.474 Z" id="path-8" class="cls-6" fill-rule="evenodd"/>
    <path d="M23.456,17.935 C22.804,17.935 22.204,17.506 22.015,16.847 C21.208,14.022 22.431,9.101 22.573,8.548 C22.779,7.746 23.600,7.265 24.398,7.470 C25.201,7.676 25.684,8.493 25.478,9.295 C25.021,11.079 24.459,14.482 24.900,16.023 C25.127,16.820 24.666,17.650 23.870,17.877 C23.732,17.916 23.593,17.935 23.456,17.935 Z" id="path-9" class="cls-6" fill-rule="evenodd"/>
    <path d="M32.690,24.844 C32.690,25.890 31.842,26.738 30.796,26.738 C29.750,26.738 28.903,25.890 28.903,24.844 C28.903,23.798 29.750,22.951 30.796,22.951 C31.842,22.951 32.690,23.798 32.690,24.844 Z" id="path-10" class="cls-6" fill-rule="evenodd"/>
    <path d="M24.854,30.441 C24.854,31.487 24.006,32.335 22.960,32.335 C21.915,32.335 21.067,31.487 21.067,30.441 C21.067,29.395 21.915,28.548 22.960,28.548 C24.006,28.548 24.854,29.395 24.854,30.441 Z" id="path-11" class="cls-6" fill-rule="evenodd"/>
    <path d="M24.854,39.397 C24.854,40.442 24.006,41.290 22.960,41.290 C21.915,41.290 21.067,40.442 21.067,39.397 C21.067,38.351 21.915,37.503 22.960,37.503 C24.006,37.503 24.854,38.351 24.854,39.397 Z" id="path-12" class="cls-6" fill-rule="evenodd"/>
    <path d="M40.526,40.516 C40.526,41.562 39.678,42.410 38.632,42.410 C37.586,42.410 36.739,41.562 36.739,40.516 C36.739,39.470 37.586,38.622 38.632,38.622 C39.678,38.622 40.526,39.470 40.526,40.516 Z" id="path-13" class="cls-6" fill-rule="evenodd"/>
    <path d="M10.301,40.516 C10.301,41.562 9.454,42.410 8.408,42.410 C7.362,42.410 6.514,41.562 6.514,40.516 C6.514,39.470 7.362,38.622 8.408,38.622 C9.454,38.622 10.301,39.470 10.301,40.516 Z" id="path-14" class="cls-6" fill-rule="evenodd"/>
    <path d="M37.168,32.680 C37.168,33.726 36.320,34.574 35.274,34.574 C34.229,34.574 33.380,33.726 33.380,32.680 C33.380,31.634 34.229,30.787 35.274,30.787 C36.320,30.787 37.168,31.634 37.168,32.680 Z" id="path-15" class="cls-6" fill-rule="evenodd"/>
    <path d="M15.470,24.844 C15.470,25.890 16.317,26.738 17.363,26.738 C18.409,26.738 19.257,25.890 19.257,24.844 C19.257,23.798 18.409,22.951 17.363,22.951 C16.317,22.951 15.470,23.798 15.470,24.844 Z" id="path-16" class="cls-6" fill-rule="evenodd"/>
    <path d="M10.992,32.680 C10.992,33.726 11.840,34.574 12.885,34.574 C13.931,34.574 14.779,33.726 14.779,32.680 C14.779,31.634 13.931,30.787 12.885,30.787 C11.840,30.787 10.992,31.634 10.992,32.680 Z" id="path-17" class="cls-6" fill-rule="evenodd"/>
  </g>
</svg>
