<svg xmlns="http://www.w3.org/2000/svg" xmlns:xlink="http://www.w3.org/1999/xlink" preserveAspectRatio="xMidYMid" width="66" height="58" viewBox="0 0 66 58">
  <defs>
    <style>

      .cls-3 {
        fill: #edc951;
      }

      .cls-4 {
        fill: #ff917b;
      }

      .cls-5 {
        fill: #000000;
      }
    </style>
  </defs>
  <g id="group-46svg">
    <path d="M44.617,8.614 C44.617,8.614 10.030,25.333 9.796,35.772 C9.647,42.432 21.821,69.311 25.999,49.314 C27.317,43.010 29.122,38.047 31.189,34.146 C31.189,34.146 49.774,20.169 49.774,20.169 C52.343,20.577 54.446,20.360 54.446,20.360 C59.105,20.546 76.797,17.058 54.446,10.454 C51.371,9.545 47.347,8.940 44.617,8.614 C44.617,8.614 44.617,8.614 44.617,8.614 Z" id="path-1" class="cls-3" fill-rule="evenodd"/>
    <path d="M35.810,3.747 C28.176,6.113 9.023,13.390 5.653,27.657 C4.648,31.914 8.714,35.635 12.907,34.389 C19.486,32.435 29.942,31.182 41.262,37.032 C44.869,38.896 49.174,36.421 49.553,32.379 C50.282,24.577 49.592,13.263 41.645,5.233 C40.121,3.692 37.880,3.105 35.810,3.747 Z" id="path-2" class="cls-4" fill-rule="evenodd"/>
    <path d="M17.372,56.082 C17.095,56.082 16.810,56.056 16.518,56.002 C10.098,54.841 3.526,38.682 4.313,33.545 C4.439,32.725 5.205,32.163 6.023,32.289 C6.843,32.415 7.405,33.181 7.279,33.999 C6.653,38.081 12.722,52.266 17.052,53.050 C18.389,53.308 19.690,51.034 20.531,47.008 C21.790,40.980 23.585,35.744 25.865,31.444 C26.252,30.712 27.158,30.432 27.893,30.821 C28.624,31.209 28.903,32.117 28.515,32.849 C26.368,36.900 24.669,41.870 23.468,47.621 C22.293,53.242 20.245,56.082 17.372,56.082 Z" id="path-3" class="cls-5" fill-rule="evenodd"/>
    <path d="M48.993,19.917 C48.087,19.917 46.872,19.862 45.539,19.651 C44.721,19.521 44.163,18.752 44.293,17.934 C44.423,17.116 45.187,16.558 46.010,16.688 C48.334,17.057 50.275,16.870 50.294,16.868 C50.364,16.860 50.437,16.859 50.506,16.861 C53.797,17.000 59.565,15.507 60.007,14.416 C60.007,14.416 60.007,14.416 60.007,14.416 C59.980,14.416 59.437,12.675 50.021,9.892 C46.832,8.950 42.648,8.367 40.439,8.103 C39.616,8.005 39.029,7.259 39.127,6.436 C39.226,5.614 39.978,5.025 40.794,5.125 C43.098,5.399 47.470,6.011 50.871,7.016 C59.824,9.661 63.440,12.027 62.961,14.929 C62.263,19.157 52.299,19.887 50.497,19.861 C50.279,19.880 49.742,19.917 48.993,19.917 Z" id="path-4" class="cls-5" fill-rule="evenodd"/>
    <path d="M39.828,37.163 C39.828,37.163 39.828,37.163 39.828,37.163 C38.694,37.163 37.599,36.894 36.573,36.364 C31.303,33.641 25.719,32.260 19.976,32.260 C16.415,32.260 12.834,32.787 9.334,33.827 C6.503,34.667 3.354,33.647 1.536,31.350 C0.181,29.637 -0.308,27.437 0.193,25.312 C3.721,10.378 23.168,2.855 31.365,0.314 C33.911,-0.475 36.821,0.268 38.712,2.178 C47.007,10.560 47.822,22.216 47.046,30.518 C46.697,34.245 43.527,37.163 39.828,37.163 ZM19.976,29.260 C26.203,29.260 32.250,30.753 37.950,33.699 C38.546,34.007 39.178,34.163 39.828,34.163 C41.995,34.163 43.853,32.439 44.059,30.239 C44.776,22.573 44.060,11.848 36.579,4.288 C35.461,3.158 33.752,2.717 32.253,3.180 C24.549,5.568 6.285,12.573 3.113,26.002 C2.819,27.247 3.095,28.485 3.889,29.488 C4.963,30.846 6.802,31.450 8.479,30.951 C12.257,29.829 16.125,29.260 19.976,29.260 Z" id="path-5" class="cls-5" fill-rule="evenodd"/>
    <path d="M38.621,25.065 C38.388,25.065 38.152,25.010 37.931,24.895 C37.196,24.513 36.910,23.607 37.291,22.872 C37.290,22.872 38.621,19.844 35.343,14.016 C33.024,9.892 20.245,15.280 14.420,18.535 C13.695,18.940 12.782,18.680 12.378,17.957 C11.975,17.234 12.233,16.320 12.956,15.916 C15.051,14.746 33.549,4.705 37.957,12.545 C42.041,19.805 40.179,23.822 39.954,24.256 C39.686,24.770 39.163,25.065 38.621,25.065 Z" id="path-6" class="cls-5" fill-rule="evenodd"/>
  </g>
</svg>
