<svg xmlns="http://www.w3.org/2000/svg" xmlns:xlink="http://www.w3.org/1999/xlink" preserveAspectRatio="xMidYMid" width="28" height="64" viewBox="0 0 28 64">
  <defs>
    <style>

      .cls-3 {
        fill: #53ecf4;
      }

      .cls-4 {
        fill: #e56a77;
      }

      .cls-5 {
        fill: #000000;
      }
    </style>
  </defs>
  <g id="group-33svg">
    <path d="M14.308,64.000 C14.308,64.000 18.785,64.000 18.785,64.000 C19.916,64.000 19.687,62.589 19.687,61.457 C19.687,61.457 19.687,42.000 19.687,42.000 C19.687,42.000 11.687,42.000 11.687,42.000 C11.687,42.000 11.687,61.756 11.687,61.756 C11.687,62.723 13.342,64.000 14.308,64.000 Z" id="path-1" class="cls-3" fill-rule="evenodd"/>
    <path d="M21.351,24.368 C21.351,21.723 22.545,19.358 24.421,17.777 C24.421,17.777 23.504,9.848 23.504,9.848 C23.099,6.199 20.015,4.000 16.344,4.000 C16.344,4.000 16.272,4.000 16.272,4.000 C12.601,4.000 9.518,6.309 9.112,9.957 C9.112,9.957 5.501,42.000 5.501,42.000 C5.501,42.000 27.115,42.000 27.115,42.000 C27.115,42.000 26.020,32.133 26.020,32.133 C23.249,30.700 21.351,27.704 21.351,24.368 Z" id="path-2" class="cls-4" fill-rule="evenodd"/>
    <path d="M14.785,63.000 C14.785,63.000 10.308,63.000 10.308,63.000 C8.596,63.000 6.687,61.668 6.687,59.756 C6.687,59.756 6.687,39.500 6.687,39.500 C6.687,38.671 7.359,38.000 8.187,38.000 C8.187,38.000 16.187,38.000 16.187,38.000 C17.016,38.000 17.687,38.671 17.687,39.500 C17.687,39.500 17.687,59.457 17.687,59.457 C17.687,62.745 15.466,63.000 14.785,63.000 ZM9.687,41.000 C9.687,41.000 9.687,59.756 9.687,59.756 C9.733,59.794 10.064,60.000 10.308,60.000 C10.308,60.000 14.649,60.000 14.649,60.000 C14.669,59.891 14.687,59.718 14.687,59.457 C14.687,59.457 14.687,41.000 14.687,41.000 C14.687,41.000 9.687,41.000 9.687,41.000 Z" id="path-3" class="cls-5" fill-rule="evenodd"/>
    <path d="M23.115,41.000 C23.115,41.000 1.501,41.000 1.501,41.000 C1.074,41.000 0.667,40.818 0.383,40.499 C0.099,40.181 -0.037,39.756 0.011,39.332 C0.011,39.332 3.621,7.289 3.621,7.289 C4.099,2.998 7.656,-0.000 12.272,-0.000 C16.878,-0.000 20.516,3.125 20.995,7.432 C20.995,7.432 21.912,15.610 21.912,15.610 C21.968,16.108 21.771,16.600 21.388,16.924 C19.776,18.283 18.851,20.268 18.851,22.368 C18.851,24.990 20.293,27.301 22.709,28.551 C23.153,28.781 23.454,29.217 23.510,29.714 C23.510,29.714 24.605,39.331 24.605,39.331 C24.653,39.755 24.518,40.180 24.234,40.499 C23.949,40.818 23.542,41.000 23.115,41.000 ZM3.180,38.000 C3.180,38.000 21.434,38.000 21.434,38.000 C21.434,38.000 20.616,30.811 20.616,30.811 C17.617,28.965 15.851,25.864 15.851,22.368 C15.851,19.657 16.933,17.082 18.846,15.186 C18.846,15.186 18.014,7.765 18.014,7.765 C17.702,4.959 15.370,3.000 12.344,3.000 C9.188,3.000 6.910,4.858 6.602,7.623 C6.602,7.623 3.180,38.000 3.180,38.000 Z" id="path-4" class="cls-5" fill-rule="evenodd"/>
    <path d="M22.187,45.500 C21.359,45.500 20.687,44.829 20.687,44.000 C20.687,44.000 20.687,40.000 20.687,40.000 C20.687,39.171 21.359,38.500 22.187,38.500 C23.016,38.500 23.687,39.171 23.687,40.000 C23.687,40.000 23.687,44.000 23.687,44.000 C23.687,44.829 23.016,45.500 22.187,45.500 Z" id="path-5" class="cls-5" fill-rule="evenodd"/>
    <path d="M12.696,9.989 C12.067,9.989 11.482,9.592 11.273,8.963 C11.273,8.963 10.885,7.799 10.885,7.799 C10.623,7.013 11.048,6.164 11.834,5.902 C12.622,5.639 13.469,6.065 13.731,6.851 C13.731,6.851 14.119,8.015 14.119,8.015 C14.381,8.801 13.956,9.650 13.170,9.912 C13.013,9.964 12.853,9.989 12.696,9.989 Z" id="path-6" class="cls-5" fill-rule="evenodd"/>
    <path d="M9.593,18.265 C8.965,18.265 8.379,17.868 8.170,17.239 C8.170,17.239 7.782,16.076 7.782,16.076 C7.519,15.290 7.944,14.440 8.730,14.178 C9.515,13.914 10.366,14.341 10.627,15.126 C10.627,15.126 11.016,16.290 11.016,16.290 C11.278,17.076 10.853,17.925 10.067,18.187 C9.910,18.240 9.750,18.265 9.593,18.265 Z" id="path-7" class="cls-5" fill-rule="evenodd"/>
    <path d="M15.799,17.231 C15.171,17.231 14.585,16.833 14.376,16.205 C14.376,16.205 13.988,15.040 13.988,15.040 C13.727,14.254 14.152,13.405 14.937,13.143 C15.726,12.881 16.573,13.307 16.835,14.092 C16.835,14.092 17.223,15.256 17.223,15.256 C17.484,16.042 17.059,16.892 16.273,17.154 C16.116,17.206 15.956,17.231 15.799,17.231 Z" id="path-8" class="cls-5" fill-rule="evenodd"/>
    <path d="M7.523,26.541 C6.895,26.541 6.310,26.144 6.101,25.515 C6.101,25.515 5.713,24.351 5.713,24.351 C5.451,23.565 5.875,22.716 6.662,22.454 C7.448,22.190 8.297,22.617 8.559,23.403 C8.559,23.403 8.946,24.566 8.946,24.566 C9.208,25.352 8.784,26.202 7.998,26.463 C7.840,26.516 7.680,26.541 7.523,26.541 Z" id="path-9" class="cls-5" fill-rule="evenodd"/>
    <path d="M13.730,25.507 C13.102,25.507 12.517,25.109 12.307,24.480 C12.307,24.480 11.919,23.316 11.919,23.316 C11.658,22.530 12.083,21.681 12.869,21.419 C13.656,21.158 14.504,21.583 14.766,22.368 C14.766,22.368 15.154,23.532 15.154,23.532 C15.416,24.318 14.990,25.167 14.205,25.430 C14.047,25.482 13.887,25.507 13.730,25.507 Z" id="path-10" class="cls-5" fill-rule="evenodd"/>
    <path d="M7.523,34.817 C6.895,34.817 6.310,34.419 6.101,33.790 C6.101,33.790 5.713,32.627 5.713,32.627 C5.451,31.841 5.875,30.992 6.662,30.730 C7.448,30.465 8.297,30.893 8.559,31.679 C8.559,31.679 8.946,32.842 8.946,32.842 C9.208,33.628 8.784,34.477 7.998,34.739 C7.840,34.792 7.680,34.817 7.523,34.817 Z" id="path-11" class="cls-5" fill-rule="evenodd"/>
    <path d="M13.730,33.783 C13.102,33.783 12.517,33.385 12.307,32.756 C12.307,32.756 11.919,31.592 11.919,31.592 C11.658,30.806 12.083,29.957 12.869,29.695 C13.656,29.433 14.504,29.859 14.766,30.644 C14.766,30.644 15.154,31.808 15.154,31.808 C15.416,32.594 14.990,33.443 14.205,33.706 C14.047,33.758 13.887,33.783 13.730,33.783 Z" id="path-12" class="cls-5" fill-rule="evenodd"/>
    <path d="M18.903,36.886 C18.274,36.886 17.689,36.488 17.479,35.860 C17.479,35.860 17.092,34.696 17.092,34.696 C16.830,33.910 17.255,33.060 18.041,32.798 C18.830,32.537 19.677,32.962 19.938,33.748 C19.938,33.748 20.326,34.912 20.326,34.912 C20.588,35.698 20.163,36.547 19.377,36.809 C19.220,36.861 19.060,36.886 18.903,36.886 Z" id="path-13" class="cls-5" fill-rule="evenodd"/>
  </g>
</svg>
