<svg xmlns="http://www.w3.org/2000/svg" xmlns:xlink="http://www.w3.org/1999/xlink" preserveAspectRatio="xMidYMid" width="49" height="64" viewBox="0 0 49 64">
  <defs>
    <style>

      .cls-3 {
        fill: #edc951;
      }

      .cls-4 {
        fill: #81bda4;
      }

      .cls-5 {
        fill: #000000;
      }
    </style>
  </defs>
  <g id="group-3svg">
    <path d="M39.829,39.822 C38.907,39.067 36.653,37.205 36.653,37.205 C32.976,34.906 32.510,30.810 32.510,26.153 C32.510,26.153 33.977,13.629 25.280,13.629 C16.330,13.629 18.049,26.153 18.049,26.153 C18.049,30.810 17.584,34.906 13.907,37.205 C13.907,37.205 11.653,39.067 10.731,39.822 C7.665,42.332 5.496,45.976 5.496,50.243 C5.496,57.416 9.478,61.796 16.506,63.232 C21.614,64.275 25.280,61.761 25.280,61.761 C25.280,61.761 28.946,64.275 34.054,63.232 C41.082,61.796 45.064,57.416 45.064,50.243 C45.064,45.976 42.894,42.332 39.829,39.822 Z" id="path-1" class="cls-3" fill-rule="evenodd"/>
    <path d="M27.719,8.261 C27.719,8.261 28.093,1.636 35.050,3.992 C42.007,6.348 48.308,8.848 48.308,8.848 C48.308,8.848 43.080,15.693 33.285,11.202 C33.285,11.202 30.205,9.702 27.719,8.261 Z" id="path-2" class="cls-4" fill-rule="evenodd"/>
    <path d="M27.560,62.985 C27.560,62.985 27.560,62.985 27.560,62.985 C24.672,62.985 22.430,62.077 21.280,61.487 C20.130,62.077 17.888,62.985 15.000,62.985 C14.068,62.985 13.128,62.890 12.206,62.702 C4.332,61.093 -0.004,55.958 -0.004,48.243 C-0.004,43.829 2.050,39.715 5.781,36.661 C6.701,35.907 8.952,34.049 8.952,34.049 C9.003,34.007 9.056,33.969 9.112,33.934 C11.968,32.147 12.542,29.026 12.549,24.247 C12.431,23.272 11.765,16.584 15.096,12.764 C16.621,11.016 18.701,10.129 21.280,10.129 C23.757,10.129 25.776,10.988 27.282,12.681 C30.675,16.494 30.105,23.311 30.010,24.233 C30.017,29.020 30.589,32.145 33.448,33.934 C33.504,33.969 33.557,34.007 33.608,34.049 C33.608,34.049 35.858,35.908 36.779,36.661 C40.509,39.716 42.564,43.829 42.564,48.243 C42.564,55.958 38.227,61.093 30.354,62.702 C29.432,62.890 28.492,62.985 27.560,62.985 ZM21.280,58.261 C21.576,58.261 21.873,58.349 22.128,58.524 C22.143,58.534 24.346,59.985 27.560,59.985 C27.560,59.985 27.560,59.985 27.560,59.985 C28.290,59.985 29.028,59.911 29.753,59.762 C36.263,58.432 39.564,54.557 39.564,48.243 C39.564,44.745 37.900,41.456 34.878,38.982 C34.054,38.307 32.165,36.748 31.771,36.422 C27.380,33.614 27.010,28.620 27.010,24.153 C27.010,24.096 27.014,24.037 27.020,23.980 C27.027,23.917 27.709,17.666 25.037,14.670 C24.112,13.633 22.883,13.129 21.280,13.129 C19.583,13.129 18.300,13.655 17.357,14.736 C15.169,17.244 15.300,22.237 15.535,23.949 C15.544,24.017 15.549,24.084 15.549,24.153 C15.549,28.620 15.180,33.615 10.789,36.422 C10.395,36.748 8.506,38.307 7.681,38.982 C4.660,41.456 2.996,44.745 2.996,48.243 C2.996,54.557 6.297,58.432 12.807,59.762 C13.532,59.911 14.270,59.985 15.000,59.985 C18.211,59.985 20.410,58.539 20.432,58.524 C20.687,58.349 20.983,58.261 21.280,58.261 Z" id="path-3" class="cls-5" fill-rule="evenodd"/>
    <path d="M24.303,48.614 C24.303,48.614 24.248,41.141 24.248,41.141 C24.248,41.141 28.149,47.515 28.149,47.515 C28.748,48.493 28.440,49.771 27.462,50.369 C26.484,50.968 25.207,50.660 24.608,49.682 C24.405,49.351 24.307,48.976 24.303,48.614 Z" id="path-4" class="cls-5" fill-rule="evenodd"/>
    <path d="M15.400,47.515 C15.400,47.515 19.302,41.141 19.302,41.141 C19.302,41.141 19.246,48.614 19.246,48.614 C19.238,49.761 18.302,50.683 17.155,50.674 C16.009,50.666 15.086,49.730 15.095,48.583 C15.098,48.195 15.212,47.825 15.400,47.515 Z" id="path-5" class="cls-5" fill-rule="evenodd"/>
    <path d="M35.698,12.229 C33.435,12.229 31.067,11.669 28.659,10.565 C28.500,10.488 25.470,9.010 22.967,7.558 C22.478,7.275 22.190,6.740 22.222,6.176 C22.343,4.035 23.774,-0.015 28.328,-0.015 C29.305,-0.015 30.383,0.183 31.531,0.571 C38.445,2.913 44.797,5.429 44.861,5.454 C45.297,5.627 45.627,5.995 45.753,6.448 C45.878,6.900 45.785,7.385 45.499,7.759 C45.360,7.941 42.012,12.229 35.698,12.229 ZM25.363,5.469 C27.566,6.695 29.914,7.840 29.941,7.853 C31.922,8.761 33.870,9.229 35.698,9.229 C38.339,9.229 40.293,8.266 41.532,7.380 C39.095,6.448 34.945,4.895 30.569,3.413 C29.731,3.129 28.977,2.985 28.328,2.985 C26.351,2.985 25.627,4.444 25.363,5.469 Z" id="path-6" class="cls-5" fill-rule="evenodd"/>
    <path d="M21.278,13.129 C20.495,13.129 19.835,12.521 19.783,11.728 C19.656,9.790 20.643,6.864 20.831,6.328 C21.002,5.724 22.096,2.407 25.872,0.357 C26.601,-0.039 27.510,0.231 27.906,0.959 C28.301,1.687 28.031,2.598 27.303,2.994 C24.430,4.553 23.744,7.042 23.716,7.148 C23.706,7.188 23.690,7.241 23.676,7.280 C23.291,8.363 22.707,10.475 22.776,11.531 C22.831,12.357 22.205,13.072 21.378,13.126 C21.345,13.128 21.312,13.129 21.278,13.129 Z" id="path-7" class="cls-5" fill-rule="evenodd"/>
  </g>
</svg>
