<svg xmlns="http://www.w3.org/2000/svg" xmlns:xlink="http://www.w3.org/1999/xlink" preserveAspectRatio="xMidYMid" width="38" height="64" viewBox="0 0 38 64">
  <defs>
    <style>

      .cls-3 {
        fill: #edc951;
      }

      .cls-5 {
        fill: #000000;
      }
    </style>
  </defs>
  <g id="group-79svg">
    <path d="M32.910,25.000 C32.910,25.000 22.537,25.000 22.537,25.000 C22.537,25.000 11.199,25.000 11.199,25.000 C11.199,25.000 6.564,58.964 6.564,58.964 C6.209,61.560 8.227,64.000 10.850,64.000 C10.850,64.000 22.537,64.000 22.537,64.000 C22.537,64.000 33.261,64.000 33.261,64.000 C35.882,64.000 37.900,61.560 37.545,58.964 C37.545,58.964 32.910,25.000 32.910,25.000 Z" id="path-1" class="cls-3" fill-rule="evenodd"/>
    <path d="M25.863,11.552 C25.263,11.251 24.601,11.000 23.929,11.000 C23.929,11.000 22.055,11.000 22.055,11.000 C22.055,11.000 20.181,11.000 20.181,11.000 C19.510,11.000 18.848,11.251 18.247,11.552 C18.247,11.552 13.586,13.566 13.586,13.566 C12.121,14.299 10.469,15.844 10.469,17.481 C10.469,17.481 10.469,20.000 10.469,20.000 C10.469,20.000 22.055,20.000 22.055,20.000 C22.055,20.000 31.469,20.000 31.469,20.000 C31.469,20.000 31.469,17.481 31.469,17.481 C31.469,15.844 30.902,14.299 29.437,13.566 C29.437,13.566 25.863,11.552 25.863,11.552 Z" id="path-2" class="cls-3" fill-rule="evenodd"/>
    <path d="M28.261,63.000 C28.261,63.000 5.850,63.000 5.850,63.000 C4.200,63.000 2.619,62.271 1.510,61.000 C0.367,59.689 -0.154,57.963 0.078,56.260 C0.078,56.260 4.713,22.297 4.713,22.297 C4.814,21.555 5.449,21.000 6.199,21.000 C6.199,21.000 27.910,21.000 27.910,21.000 C28.660,21.000 29.295,21.555 29.396,22.297 C29.396,22.297 34.031,56.262 34.031,56.262 C34.264,57.963 33.742,59.690 32.600,61.000 C31.490,62.271 29.909,63.000 28.261,63.000 ZM7.509,24.000 C7.509,24.000 3.051,56.666 3.051,56.666 C2.935,57.511 3.197,58.371 3.770,59.027 C4.317,59.654 5.056,60.000 5.850,60.000 C5.850,60.000 28.261,60.000 28.261,60.000 C29.054,60.000 29.792,59.654 30.339,59.027 C30.912,58.371 31.174,57.511 31.059,56.668 C31.059,56.668 26.601,24.000 26.601,24.000 C26.601,24.000 7.509,24.000 7.509,24.000 Z" id="path-3" class="cls-5" fill-rule="evenodd"/>
    <path d="M26.969,19.000 C26.969,19.000 5.969,19.000 5.969,19.000 C5.141,19.000 4.469,18.328 4.469,17.500 C4.469,17.500 4.469,15.481 4.469,15.481 C4.469,13.161 6.328,11.018 8.165,10.100 C8.165,10.100 12.593,7.952 12.593,7.952 C12.702,7.897 12.830,7.823 12.962,7.749 C13.549,7.415 14.279,7.000 15.181,7.000 C15.181,7.000 18.929,7.000 18.929,7.000 C19.831,7.000 20.561,7.416 21.149,7.749 C21.280,7.824 21.408,7.897 21.534,7.960 C21.534,7.960 25.420,10.132 25.420,10.132 C27.248,11.044 28.469,13.156 28.469,15.481 C28.469,15.481 28.469,17.500 28.469,17.500 C28.469,18.328 27.797,19.000 26.969,19.000 ZM7.469,16.000 C7.469,16.000 25.469,16.000 25.469,16.000 C25.469,16.000 25.469,15.481 25.469,15.481 C25.469,14.301 24.885,13.217 24.017,12.783 C24.017,12.783 20.131,10.611 20.131,10.611 C20.021,10.559 19.846,10.459 19.667,10.357 C19.440,10.228 19.061,10.000 18.921,10.000 C18.921,10.000 15.181,10.000 15.181,10.000 C15.049,10.000 14.670,10.228 14.444,10.357 C14.265,10.459 14.089,10.558 13.918,10.643 C13.918,10.643 9.490,12.791 9.490,12.791 C8.402,13.335 7.469,14.570 7.469,15.481 C7.469,15.481 7.469,16.000 7.469,16.000 Z" id="path-4" class="cls-5" fill-rule="evenodd"/>
    <path d="M16.469,10.000 C15.364,10.000 14.469,9.104 14.469,8.000 C14.469,8.000 14.469,2.000 14.469,2.000 C14.469,0.895 15.364,-0.000 16.469,-0.000 C17.573,-0.000 18.469,0.895 18.469,2.000 C18.469,2.000 18.469,8.000 18.469,8.000 C18.469,9.104 17.573,10.000 16.469,10.000 Z" id="path-5" class="cls-5" fill-rule="evenodd"/>
    <path d="M24.909,52.541 C24.192,52.541 23.559,52.025 23.433,51.295 C23.433,51.295 20.116,32.000 20.116,32.000 C20.116,32.000 15.469,32.000 15.469,32.000 C14.641,32.000 13.969,31.328 13.969,30.500 C13.969,29.672 14.641,29.000 15.469,29.000 C15.469,29.000 21.380,29.000 21.380,29.000 C22.110,29.000 22.734,29.525 22.858,30.246 C22.858,30.246 26.390,50.787 26.390,50.787 C26.530,51.603 25.981,52.379 25.165,52.519 C25.079,52.533 24.994,52.541 24.909,52.541 Z" id="path-6" class="cls-5" fill-rule="evenodd"/>
  </g>
</svg>
