<svg xmlns="http://www.w3.org/2000/svg" xmlns:xlink="http://www.w3.org/1999/xlink" preserveAspectRatio="xMidYMid" width="66" height="53" viewBox="0 0 66 53">
  <defs>
    <style>

      .cls-3 {
        fill: #81bda4;
      }

      .cls-4 {
        fill: #edc951;
      }

      .cls-5 {
        fill: #000000;
      }
    </style>
  </defs>
  <g id="group-5svg">
    <path d="M65.489,20.144 C65.489,20.144 63.593,6.000 65.489,4.000 C65.489,4.000 55.647,4.000 55.647,4.000 C55.647,4.000 60.557,14.714 57.966,19.069 C57.966,19.069 57.966,19.069 57.966,19.069 " id="path-1" class="cls-3" fill-rule="evenodd"/>
    <path d="M38.946,36.684 C28.162,40.618 16.437,37.755 9.098,33.489 C7.029,32.287 4.821,34.298 5.679,36.683 C5.686,36.704 5.694,36.727 5.703,36.749 C9.885,48.216 27.752,56.366 43.968,50.452 C60.183,44.537 68.607,26.798 64.425,15.331 C64.417,15.309 64.409,15.287 64.400,15.265 C63.521,12.888 60.537,12.771 59.728,15.022 C56.858,23.012 49.730,32.751 38.946,36.684 Z" id="path-2" class="cls-4" fill-rule="evenodd"/>
    <path d="M28.676,51.932 C15.753,51.932 3.816,44.922 0.293,35.264 C-0.228,33.814 -0.061,32.384 0.727,31.265 C1.850,29.665 4.095,29.171 5.852,30.192 C11.166,33.281 17.795,35.052 24.040,35.052 C27.703,35.052 31.200,34.455 34.432,33.275 C44.988,29.425 51.741,19.686 54.316,12.516 C54.886,10.930 56.303,9.905 57.926,9.905 C59.646,9.905 61.169,11.020 61.807,12.744 C64.023,18.819 63.024,26.623 59.162,33.693 C55.045,41.227 48.412,46.969 40.482,49.861 C36.715,51.235 32.743,51.932 28.676,51.932 ZM3.831,32.630 C3.578,32.630 3.341,32.762 3.181,32.990 C3.053,33.171 2.871,33.567 3.090,34.175 C6.167,42.614 17.158,48.932 28.676,48.932 C32.392,48.932 36.018,48.296 39.454,47.043 C46.698,44.400 52.763,39.148 56.529,32.254 C59.984,25.931 60.914,19.049 59.016,13.845 C58.754,13.137 58.285,12.905 57.926,12.905 C57.670,12.905 57.325,13.014 57.140,13.529 C54.211,21.683 46.978,31.893 35.460,36.094 C31.897,37.393 28.055,38.052 24.040,38.052 C17.282,38.052 10.102,36.133 4.344,32.786 C4.167,32.683 3.994,32.630 3.831,32.630 Z" id="path-3" class="cls-5" fill-rule="evenodd"/>
    <path d="M61.487,19.394 C60.746,19.394 60.101,18.845 60.001,18.090 C59.427,13.731 58.738,6.893 59.413,3.000 C59.413,3.000 53.891,3.000 53.891,3.000 C55.275,6.607 57.493,13.700 55.255,17.460 C54.833,18.172 53.912,18.406 53.200,17.983 C52.487,17.559 52.253,16.639 52.677,15.927 C54.270,13.250 52.052,6.037 50.280,2.119 C50.070,1.654 50.110,1.115 50.387,0.687 C50.663,0.259 51.138,-0.000 51.647,-0.000 C51.647,-0.000 61.489,-0.000 61.489,-0.000 C62.088,-0.000 62.630,0.357 62.867,0.908 C63.103,1.458 62.990,2.097 62.577,2.532 C61.791,3.717 62.139,11.342 62.976,17.699 C63.084,18.520 62.506,19.273 61.685,19.382 C61.618,19.391 61.552,19.394 61.487,19.394 Z" id="path-4" class="cls-5" fill-rule="evenodd"/>
    <path d="M30.348,46.269 C25.345,46.269 21.934,44.678 21.692,44.562 C20.946,44.203 20.631,43.307 20.990,42.560 C21.348,41.815 22.243,41.501 22.987,41.856 C23.356,42.030 31.994,45.987 41.844,39.863 C42.548,39.426 43.473,39.642 43.910,40.345 C44.348,41.049 44.132,41.974 43.428,42.411 C38.624,45.397 34.050,46.269 30.348,46.269 Z" id="path-5" class="cls-5" fill-rule="evenodd"/>
  </g>
</svg>
