<svg xmlns="http://www.w3.org/2000/svg" xmlns:xlink="http://www.w3.org/1999/xlink" preserveAspectRatio="xMidYMid" width="60" height="62" viewBox="0 0 60 62">
  <defs>
    <style>

      .cls-3 {
        fill: #81bda4;
      }

      .cls-4 {
        fill: #edc951;
      }

      .cls-5 {
        fill: #000000;
      }
    </style>
  </defs>
  <g id="group-15svg">
    <path d="M46.545,5.893 C41.358,-1.178 36.703,5.854 36.703,5.854 C36.585,1.533 32.813,2.633 32.813,2.633 C32.813,2.633 28.953,1.533 28.835,5.854 C28.835,5.854 24.135,-1.178 18.948,5.893 C13.763,12.965 -1.316,7.799 9.056,29.015 C9.056,29.015 8.559,38.218 20.109,33.267 C20.109,33.267 24.327,40.349 32.813,37.520 C41.300,40.349 45.439,33.267 45.439,33.267 C56.990,38.218 56.416,29.015 56.416,29.015 C66.788,7.799 51.730,12.965 46.545,5.893 Z" id="path-1" class="cls-3" fill-rule="evenodd"/>
    <path d="M33.025,37.756 C25.777,40.526 20.262,33.385 20.262,33.385 C19.992,33.729 17.967,34.555 17.967,34.555 C17.967,34.555 27.780,62.437 27.780,62.437 C27.780,62.437 37.799,62.437 37.799,62.437 C37.799,62.437 45.622,34.058 45.622,34.058 C41.983,40.648 33.025,37.756 33.025,37.756 ZM34.538,53.023 C34.538,53.023 29.666,43.437 29.666,43.437 C29.666,43.437 37.053,43.437 37.053,43.437 C37.053,43.437 34.538,53.023 34.538,53.023 Z" id="path-2" class="cls-4" fill-rule="evenodd"/>
    <path d="M32.691,38.687 C31.435,38.687 30.133,38.488 28.813,38.093 C27.494,38.488 26.189,38.687 24.930,38.687 C20.012,38.687 16.923,35.736 15.586,34.096 C10.956,35.842 7.520,35.545 5.431,33.340 C3.802,31.621 3.572,29.316 3.553,28.354 C0.227,21.467 -0.730,16.707 0.541,13.393 C1.803,10.106 4.871,8.869 7.839,7.672 C10.185,6.726 12.399,5.832 13.738,4.006 C15.571,1.507 17.622,0.240 19.833,0.240 C21.571,0.240 23.038,1.049 24.113,1.919 C24.975,0.549 26.419,0.008 27.787,0.008 C28.197,0.008 28.554,0.052 28.811,0.098 C29.064,0.052 29.414,0.008 29.816,0.008 C31.159,0.008 32.577,0.546 33.427,1.906 C34.494,1.041 35.948,0.240 37.672,0.240 C39.875,0.240 41.922,1.507 43.755,4.006 C45.094,5.832 47.306,6.725 49.648,7.671 C52.611,8.868 55.675,10.104 56.935,13.388 C58.204,16.701 57.247,21.461 53.922,28.349 C53.909,29.316 53.697,31.622 52.082,33.342 C50.905,34.595 49.286,35.230 47.271,35.230 C47.271,35.230 47.270,35.230 47.270,35.230 C45.742,35.230 43.964,34.850 41.971,34.099 C40.646,35.745 37.591,38.687 32.691,38.687 ZM28.813,35.020 C28.974,35.020 29.134,35.046 29.288,35.098 C30.463,35.489 31.607,35.687 32.691,35.687 C37.645,35.687 40.120,31.552 40.144,31.511 C40.525,30.858 41.335,30.590 42.030,30.889 C44.106,31.779 45.870,32.230 47.270,32.230 C47.270,32.230 47.271,32.230 47.271,32.230 C48.441,32.230 49.300,31.922 49.895,31.288 C50.992,30.121 50.920,28.128 50.919,28.108 C50.902,27.849 50.954,27.589 51.068,27.356 C54.089,21.178 55.091,16.961 54.133,14.462 C53.342,12.398 51.109,11.497 48.525,10.453 C46.019,9.441 43.179,8.294 41.335,5.781 C40.100,4.095 38.866,3.240 37.672,3.240 C35.956,3.240 34.373,5.049 33.954,5.683 C33.592,6.228 32.918,6.478 32.290,6.296 C31.661,6.117 31.222,5.550 31.204,4.895 C31.152,3.008 30.315,3.008 29.816,3.008 C29.481,3.008 29.222,3.076 29.219,3.077 C28.959,3.147 28.664,3.150 28.402,3.075 C28.402,3.075 28.402,3.076 28.402,3.076 C28.401,3.076 28.133,3.008 27.787,3.008 C27.109,3.008 26.382,3.153 26.334,4.895 C26.316,5.548 25.878,6.115 25.251,6.296 C24.624,6.475 23.951,6.231 23.588,5.688 C23.128,5.011 21.549,3.240 19.833,3.240 C18.631,3.240 17.393,4.095 16.158,5.781 C14.313,8.295 11.470,9.442 8.961,10.454 C6.372,11.498 4.136,12.400 3.343,14.468 C2.384,16.966 3.385,21.182 6.403,27.356 C6.516,27.585 6.567,27.840 6.554,28.095 C6.553,28.107 6.481,30.101 7.619,31.288 C8.954,32.680 11.705,32.523 15.518,30.889 C16.210,30.592 17.013,30.854 17.398,31.500 C17.499,31.665 20.001,35.687 24.930,35.687 C26.018,35.687 27.164,35.489 28.339,35.098 C28.493,35.046 28.653,35.020 28.813,35.020 Z" id="path-3" class="cls-5" fill-rule="evenodd"/>
    <path d="M34.786,16.963 C34.644,16.963 34.500,16.942 34.356,16.900 C33.562,16.663 33.111,15.828 33.348,15.034 C33.393,14.882 34.494,11.295 37.821,9.651 C39.993,8.578 42.535,8.581 45.376,9.660 C46.150,9.954 46.539,10.820 46.245,11.595 C45.951,12.371 45.083,12.757 44.310,12.464 C42.280,11.692 40.546,11.651 39.150,12.340 C37.017,13.395 36.230,15.866 36.223,15.891 C36.028,16.541 35.432,16.963 34.786,16.963 Z" id="path-4" class="cls-5" fill-rule="evenodd"/>
    <path d="M14.985,16.020 C14.843,16.020 14.699,15.999 14.556,15.957 C13.762,15.721 13.311,14.885 13.547,14.091 C13.592,13.939 14.693,10.353 18.020,8.708 C20.193,7.635 22.734,7.638 25.575,8.717 C26.350,9.011 26.738,9.877 26.444,10.652 C26.150,11.427 25.283,11.813 24.509,11.521 C22.479,10.750 20.745,10.708 19.350,11.397 C17.216,12.452 16.430,14.923 16.422,14.948 C16.227,15.599 15.631,16.020 14.985,16.020 Z" id="path-5" class="cls-5" fill-rule="evenodd"/>
    <path d="M18.757,32.049 C18.614,32.049 18.471,32.029 18.327,31.986 C17.533,31.750 17.082,30.914 17.318,30.121 C17.363,29.969 18.465,26.382 21.792,24.737 C23.965,23.663 26.506,23.667 29.347,24.746 C30.121,25.040 30.510,25.907 30.216,26.681 C29.922,27.457 29.055,27.845 28.280,27.551 C26.250,26.779 24.517,26.737 23.121,27.427 C20.987,28.481 20.201,30.952 20.193,30.977 C19.999,31.628 19.402,32.049 18.757,32.049 Z" id="path-6" class="cls-5" fill-rule="evenodd"/>
    <path d="M37.615,29.221 C37.473,29.221 37.329,29.200 37.186,29.158 C36.392,28.921 35.940,28.086 36.177,27.292 C36.222,27.140 37.323,23.553 40.650,21.909 C42.822,20.835 45.364,20.839 48.205,21.917 C48.979,22.212 49.368,23.078 49.074,23.852 C48.780,24.628 47.914,25.015 47.139,24.722 C45.109,23.951 43.375,23.909 41.979,24.598 C39.846,25.653 39.060,28.123 39.052,28.148 C38.857,28.799 38.261,29.221 37.615,29.221 Z" id="path-7" class="cls-5" fill-rule="evenodd"/>
    <path d="M10.270,25.449 C10.128,25.449 9.984,25.428 9.841,25.386 C9.047,25.149 8.596,24.314 8.832,23.520 C8.877,23.368 9.978,19.782 13.306,18.137 C15.479,17.063 18.020,17.067 20.860,18.146 C21.635,18.440 22.023,19.307 21.729,20.081 C21.435,20.857 20.568,21.243 19.794,20.951 C17.765,20.179 16.028,20.137 14.635,20.827 C12.501,21.881 11.715,24.352 11.707,24.376 C11.513,25.027 10.916,25.449 10.270,25.449 Z" id="path-8" class="cls-5" fill-rule="evenodd"/>
    <path d="M33.799,62.437 C33.799,62.437 23.780,62.437 23.780,62.437 C23.145,62.437 22.579,62.038 22.367,61.439 C22.367,61.439 12.554,33.807 12.554,33.807 C12.415,33.416 12.443,32.986 12.634,32.618 C12.823,32.249 13.157,31.976 13.556,31.862 C14.239,31.668 15.001,31.400 15.267,31.264 C15.540,31.020 15.914,30.894 16.269,30.885 C16.731,30.887 17.167,31.103 17.450,31.468 C17.482,31.510 20.957,35.894 25.646,35.894 C26.597,35.894 27.554,35.713 28.490,35.355 C28.797,35.239 29.134,35.226 29.450,35.317 C29.463,35.321 31.063,35.779 33.088,35.779 C36.525,35.779 38.954,34.536 40.309,32.082 C40.677,31.416 41.483,31.131 42.189,31.419 C42.894,31.707 43.271,32.476 43.067,33.209 C43.067,33.209 35.244,61.339 35.244,61.339 C35.063,61.988 34.473,62.437 33.799,62.437 ZM24.839,59.437 C24.839,59.437 32.659,59.437 32.659,59.437 C32.659,59.437 38.737,37.581 38.737,37.581 C37.137,38.373 35.240,38.779 33.088,38.779 C31.324,38.779 29.838,38.495 29.100,38.323 C27.966,38.703 26.807,38.895 25.646,38.895 C20.988,38.895 17.447,35.848 15.910,34.248 C15.905,34.250 15.900,34.252 15.895,34.254 C15.895,34.254 24.839,59.437 24.839,59.437 ZM30.537,53.023 C29.978,53.023 29.459,52.710 29.201,52.203 C29.201,52.203 24.329,42.617 24.329,42.617 C24.093,42.152 24.114,41.598 24.388,41.153 C24.660,40.708 25.145,40.437 25.666,40.437 C25.666,40.437 33.053,40.437 33.053,40.437 C33.518,40.437 33.956,40.653 34.240,41.021 C34.524,41.389 34.622,41.868 34.504,42.318 C34.504,42.318 31.989,51.904 31.989,51.904 C31.831,52.506 31.317,52.948 30.698,53.015 C30.644,53.020 30.591,53.023 30.537,53.023 ZM28.111,43.437 C28.111,43.437 30.088,47.328 30.088,47.328 C30.088,47.328 31.108,43.437 31.108,43.437 C31.108,43.437 28.111,43.437 28.111,43.437 Z" id="path-9" class="cls-5" fill-rule="evenodd"/>
  </g>
</svg>
