<svg xmlns="http://www.w3.org/2000/svg" xmlns:xlink="http://www.w3.org/1999/xlink" preserveAspectRatio="xMidYMid" width="66" height="47" viewBox="0 0 66 47">
  <defs>
    <style>

      .cls-3 {
        fill: #e56a77;
      }

      .cls-5 {
        fill: #000000;
      }
    </style>
  </defs>
  <g id="group-12svg">
    <path d="M65.499,29.902 C65.499,38.750 58.327,45.922 49.479,45.922 C40.633,45.922 33.460,38.750 33.460,29.902 C33.460,21.055 40.633,13.883 49.479,13.883 C58.327,13.883 65.499,21.055 65.499,29.902 Z" id="path-1" class="cls-3" fill-rule="evenodd"/>
    <path d="M30.808,15.145 C30.808,22.134 25.142,27.799 18.153,27.799 C11.165,27.799 5.499,22.134 5.499,15.145 C5.499,8.157 11.165,2.491 18.153,2.491 C25.142,2.491 30.808,8.157 30.808,15.145 Z" id="path-2" class="cls-3" fill-rule="evenodd"/>
    <path d="M45.479,28.363 C45.092,28.363 44.703,28.213 44.410,27.915 C42.342,25.810 40.588,23.619 41.757,21.849 C42.166,21.228 43.410,19.342 51.580,22.531 C52.351,22.833 52.732,23.703 52.432,24.474 C52.130,25.245 51.261,25.628 50.489,25.326 C48.351,24.492 46.034,23.865 44.768,23.740 C45.066,24.178 45.600,24.846 46.549,25.812 C47.130,26.402 47.122,27.352 46.531,27.933 C46.239,28.220 45.859,28.363 45.479,28.363 Z" id="path-3" class="cls-5" fill-rule="evenodd"/>
    <path d="M46.781,41.264 C40.464,41.264 37.380,36.532 37.339,36.465 C36.896,35.765 37.106,34.838 37.808,34.396 C38.505,33.957 39.428,34.163 39.872,34.859 C40.062,35.150 44.336,41.478 53.924,36.084 C54.644,35.678 55.562,35.934 55.967,36.656 C56.373,37.378 56.116,38.293 55.395,38.699 C52.050,40.581 49.183,41.264 46.781,41.264 Z" id="path-4" class="cls-5" fill-rule="evenodd"/>
    <path d="M45.479,46.422 C35.819,46.422 27.960,38.562 27.960,28.902 C27.960,19.242 35.819,11.383 45.479,11.383 C55.140,11.383 62.999,19.242 62.999,28.902 C62.999,38.562 55.140,46.422 45.479,46.422 ZM45.479,14.383 C37.474,14.383 30.960,20.896 30.960,28.902 C30.960,36.908 37.474,43.422 45.479,43.422 C53.485,43.422 59.999,36.908 59.999,28.902 C59.999,20.896 53.485,14.383 45.479,14.383 Z" id="path-5" class="cls-5" fill-rule="evenodd"/>
    <path d="M14.153,28.299 C6.349,28.299 -0.001,21.950 -0.001,14.145 C-0.001,6.341 6.349,-0.009 14.153,-0.009 C21.958,-0.009 28.308,6.341 28.308,14.145 C28.308,21.950 21.958,28.299 14.153,28.299 ZM14.153,2.991 C8.003,2.991 2.999,7.995 2.999,14.145 C2.999,20.296 8.003,25.299 14.153,25.299 C20.304,25.299 25.308,20.296 25.308,14.145 C25.308,7.995 20.304,2.991 14.153,2.991 Z" id="path-6" class="cls-5" fill-rule="evenodd"/>
    <path d="M14.153,14.035 C13.766,14.035 13.377,13.885 13.084,13.586 C11.356,11.829 9.903,9.985 10.949,8.400 C11.309,7.857 12.398,6.206 19.087,8.820 C19.858,9.121 20.239,9.991 19.938,10.762 C19.637,11.533 18.767,11.916 17.996,11.614 C16.735,11.123 15.336,10.709 14.325,10.505 C14.549,10.771 14.842,11.095 15.223,11.483 C15.804,12.074 15.796,13.024 15.205,13.604 C14.913,13.892 14.533,14.035 14.153,14.035 Z" id="path-7" class="cls-5" fill-rule="evenodd"/>
    <path d="M15.181,24.228 C10.021,24.228 7.491,20.342 7.457,20.288 C7.015,19.587 7.225,18.661 7.926,18.219 C8.621,17.780 9.545,17.984 9.988,18.679 C10.329,19.199 13.487,23.584 20.669,19.543 C21.391,19.139 22.306,19.393 22.712,20.116 C23.118,20.838 22.861,21.752 22.140,22.159 C19.442,23.675 17.124,24.228 15.181,24.228 Z" id="path-8" class="cls-5" fill-rule="evenodd"/>
  </g>
</svg>
