<svg xmlns="http://www.w3.org/2000/svg" xmlns:xlink="http://www.w3.org/1999/xlink" preserveAspectRatio="xMidYMid" width="22" height="64" viewBox="0 0 22 64">
  <defs>
    <style>

      .cls-3 {
        fill: #e56a77;
      }

      .cls-5 {
        fill: #000000;
      }
    </style>
  </defs>
  <g id="group-80svg">
    <path d="M14.893,11.475 C14.893,11.475 8.507,13.094 8.507,13.094 C6.762,13.934 5.000,15.699 5.000,17.637 C5.000,17.637 5.000,20.500 5.000,20.500 C5.000,20.500 14.893,20.500 14.893,20.500 C14.893,20.500 22.000,20.500 22.000,20.500 C22.000,20.500 22.000,17.629 22.000,17.629 C22.000,15.696 21.618,13.934 19.879,13.091 C19.879,13.091 14.893,11.475 14.893,11.475 Z" id="path-1" class="cls-3" fill-rule="evenodd"/>
    <path d="M9.500,64.500 C9.500,64.500 18.500,64.500 18.500,64.500 C20.709,64.500 22.000,61.894 22.000,59.685 C22.000,59.685 22.000,25.500 22.000,25.500 C22.000,25.500 5.000,25.500 5.000,25.500 C5.000,25.500 5.000,59.685 5.000,59.685 C5.000,61.894 7.291,64.500 9.500,64.500 Z" id="path-2" class="cls-3" fill-rule="evenodd"/>
    <path d="M18.500,18.500 C18.500,18.500 1.500,18.500 1.500,18.500 C0.672,18.500 -0.000,17.828 -0.000,17.000 C-0.000,17.000 -0.000,14.637 -0.000,14.637 C-0.000,11.931 2.062,9.726 4.106,8.742 C4.192,8.701 4.282,8.668 4.374,8.644 C4.374,8.644 10.510,7.024 10.510,7.024 C10.781,6.953 11.067,6.959 11.335,7.041 C11.335,7.041 16.571,8.658 16.571,8.658 C16.644,8.680 16.715,8.707 16.782,8.740 C18.857,9.746 20.000,11.837 20.000,14.629 C20.000,14.629 20.000,17.000 20.000,17.000 C20.000,17.828 19.328,18.500 18.500,18.500 ZM3.000,15.500 C3.000,15.500 17.000,15.500 17.000,15.500 C17.000,15.500 17.000,14.629 17.000,14.629 C17.000,13.053 16.518,11.996 15.565,11.486 C15.565,11.486 10.860,10.035 10.860,10.035 C10.860,10.035 5.289,11.505 5.289,11.505 C4.133,12.106 3.000,13.347 3.000,14.637 C3.000,14.637 3.000,15.500 3.000,15.500 Z" id="path-3" class="cls-5" fill-rule="evenodd"/>
    <path d="M14.500,62.500 C14.500,62.500 5.500,62.500 5.500,62.500 C2.519,62.500 -0.000,59.837 -0.000,56.685 C-0.000,56.685 -0.000,22.000 -0.000,22.000 C-0.000,21.172 0.672,20.500 1.500,20.500 C1.500,20.500 18.500,20.500 18.500,20.500 C19.328,20.500 20.000,21.172 20.000,22.000 C20.000,22.000 20.000,56.685 20.000,56.685 C20.000,59.837 17.481,62.500 14.500,62.500 ZM3.000,23.500 C3.000,23.500 3.000,56.685 3.000,56.685 C3.000,58.158 4.191,59.500 5.500,59.500 C5.500,59.500 14.500,59.500 14.500,59.500 C15.809,59.500 17.000,58.158 17.000,56.685 C17.000,56.685 17.000,23.500 17.000,23.500 C17.000,23.500 3.000,23.500 3.000,23.500 Z" id="path-4" class="cls-5" fill-rule="evenodd"/>
    <path d="M10.500,10.000 C9.672,10.000 9.000,9.328 9.000,8.500 C9.000,8.500 9.000,1.500 9.000,1.500 C9.000,0.672 9.672,-0.000 10.500,-0.000 C11.328,-0.000 12.000,0.672 12.000,1.500 C12.000,1.500 12.000,8.500 12.000,8.500 C12.000,9.328 11.328,10.000 10.500,10.000 Z" id="path-5" class="cls-5" fill-rule="evenodd"/>
    <path d="M10.994,56.703 C10.816,56.703 10.689,56.687 10.629,56.677 C9.812,56.541 9.260,55.767 9.396,54.951 C9.525,54.175 10.215,53.638 10.999,53.702 C11.169,53.654 13.320,52.834 13.074,44.316 C13.050,43.488 13.702,42.797 14.530,42.773 C15.381,42.735 16.048,43.401 16.072,44.229 C16.244,50.146 15.323,54.024 13.337,55.758 C12.407,56.568 11.498,56.703 10.994,56.703 Z" id="path-6" class="cls-5" fill-rule="evenodd"/>
  </g>
</svg>
