<svg xmlns="http://www.w3.org/2000/svg" xmlns:xlink="http://www.w3.org/1999/xlink" preserveAspectRatio="xMidYMid" width="60" height="64" viewBox="0 0 60 64">
  <defs>
    <style>

      .cls-3 {
        fill: #ff917b;
      }

      .cls-4 {
        fill: #e56a77;
      }

      .cls-5 {
        fill: #99746a;
      }

      .cls-6 {
        fill: #000000;
      }
    </style>
  </defs>
  <g id="group-53svg">
    <path d="M7.315,53.687 C7.315,53.687 56.989,53.687 56.989,53.687 C58.244,53.687 59.121,54.936 58.700,56.118 C58.700,56.118 56.008,63.687 56.008,63.687 C56.008,63.687 9.267,63.687 9.267,63.687 C9.267,63.687 5.682,56.303 5.682,56.303 C5.096,55.097 5.975,53.687 7.315,53.687 Z" id="path-1" class="cls-3" fill-rule="evenodd"/>
    <path d="M15.022,46.687 C15.022,46.687 40.272,46.687 40.272,46.687 C40.736,46.687 43.070,45.915 43.475,45.687 C44.603,45.054 45.311,44.471 49.091,41.374 C50.031,40.603 51.366,40.589 52.373,41.268 C52.373,41.268 53.449,42.367 53.449,42.367 C54.592,43.138 55.531,42.966 56.531,41.931 C56.531,41.931 56.531,41.933 56.531,41.933 C57.531,40.946 57.955,39.484 57.151,38.445 C57.151,38.445 56.664,37.487 56.664,37.487 C56.325,37.049 56.253,36.518 56.222,35.964 C56.222,35.964 56.039,31.421 56.039,31.421 C55.956,29.970 54.819,28.687 53.365,28.687 C53.365,28.687 52.695,28.687 52.695,28.687 C51.711,28.687 50.802,29.362 50.314,30.217 C50.314,30.217 48.716,33.092 48.716,33.092 C47.884,34.552 45.945,34.963 44.629,33.917 C44.629,33.917 24.816,18.186 24.816,18.186 C22.941,16.696 20.383,16.379 18.212,17.392 C12.013,20.284 1.138,27.676 9.351,43.433 C10.457,45.555 12.630,46.687 15.022,46.687 Z" id="path-2" class="cls-4" fill-rule="evenodd"/>
    <path d="M22.782,34.156 C21.239,39.469 17.896,43.169 15.315,42.419 C12.735,41.670 10.308,35.962 11.851,30.649 C13.394,25.336 18.323,22.430 20.903,23.179 C23.483,23.929 24.325,28.843 22.782,34.156 Z" id="path-3" class="cls-5" fill-rule="evenodd"/>
    <path d="M36.272,45.687 C36.272,45.687 11.022,45.687 11.022,45.687 C7.791,45.687 5.305,44.332 4.021,41.869 C0.882,35.847 0.105,30.391 1.711,25.652 C3.341,20.845 7.334,16.930 13.578,14.017 C16.219,12.786 19.474,13.172 21.749,14.981 C21.749,14.981 41.561,30.678 41.561,30.678 C42.127,31.128 43.040,30.877 43.413,30.224 C43.413,30.224 44.991,27.262 44.991,27.262 C45.711,25.997 47.046,24.687 48.695,24.687 C48.695,24.687 49.365,24.687 49.365,24.687 C51.731,24.687 53.448,26.962 53.567,29.087 C53.567,29.087 53.783,33.896 53.783,33.896 C53.800,34.199 53.863,34.425 53.975,34.569 C54.003,34.605 54.029,34.642 54.053,34.680 C54.053,34.680 54.633,35.587 54.633,35.587 C55.848,37.219 55.623,39.484 54.084,41.001 C52.639,42.494 50.588,42.746 48.860,41.578 C48.814,41.548 48.769,41.514 48.727,41.478 C48.727,41.478 47.474,40.411 47.474,40.411 C46.998,40.118 46.408,40.109 46.042,40.408 C42.258,43.508 41.477,44.034 40.208,44.746 C39.541,45.120 36.927,45.687 36.272,45.687 ZM16.884,16.284 C16.175,16.284 15.490,16.436 14.847,16.736 C9.373,19.289 5.910,22.613 4.553,26.616 C3.219,30.549 3.935,35.215 6.681,40.482 C7.631,42.305 9.566,42.687 11.022,42.687 C11.022,42.687 36.249,42.687 36.249,42.687 C36.664,42.654 38.416,42.261 38.805,42.097 C39.769,41.553 40.381,41.168 44.141,38.088 C45.534,36.947 47.644,36.904 49.212,37.963 C49.258,37.994 49.302,38.027 49.345,38.064 C49.345,38.064 50.599,39.132 50.599,39.132 C51.105,39.448 51.479,39.378 51.953,38.889 C52.445,38.402 52.542,37.786 52.214,37.363 C52.187,37.327 52.161,37.291 52.137,37.252 C52.137,37.252 51.557,36.344 51.557,36.344 C51.097,35.723 50.838,34.951 50.787,34.049 C50.787,34.049 50.571,29.239 50.571,29.239 C50.529,28.494 49.909,27.687 49.365,27.687 C49.365,27.687 48.695,27.687 48.695,27.687 C48.523,27.687 48.000,28.039 47.617,28.710 C47.617,28.710 46.040,31.672 46.040,31.672 C45.243,33.072 43.798,33.918 42.249,33.918 C41.311,33.919 40.429,33.610 39.696,33.028 C39.696,33.028 19.884,17.331 19.884,17.331 C19.034,16.655 17.969,16.284 16.884,16.284 Z" id="path-4" class="cls-6" fill-rule="evenodd"/>
    <path d="M12.001,42.016 C11.625,42.016 11.253,41.963 10.897,41.859 C7.464,40.863 4.663,34.246 6.411,28.231 C8.173,22.159 13.915,18.751 17.322,19.739 C20.807,20.751 22.053,26.269 20.222,32.575 C18.608,38.133 15.227,42.016 12.001,42.016 ZM16.025,22.562 C14.045,22.562 10.508,24.879 9.291,29.068 C7.868,33.970 10.270,38.554 11.734,38.978 C11.819,39.004 11.907,39.016 12.001,39.016 C13.354,39.016 15.962,36.486 17.341,31.738 C18.791,26.745 17.803,23.002 16.485,22.620 C16.354,22.582 16.200,22.562 16.025,22.562 Z" id="path-5" class="cls-6" fill-rule="evenodd"/>
    <path d="M52.008,62.687 C52.008,62.687 5.267,62.687 5.267,62.687 C4.692,62.687 4.168,62.359 3.917,61.843 C3.917,61.843 0.332,54.458 0.332,54.458 C-0.170,53.422 -0.106,52.221 0.506,51.244 C1.117,50.269 2.167,49.687 3.316,49.687 C3.316,49.687 52.989,49.687 52.989,49.687 C54.064,49.687 55.076,50.213 55.697,51.092 C56.319,51.974 56.474,53.105 56.113,54.121 C56.113,54.121 53.421,61.689 53.421,61.689 C53.208,62.288 52.643,62.687 52.008,62.687 ZM6.206,59.687 C6.206,59.687 50.949,59.687 50.949,59.687 C50.949,59.687 53.287,53.115 53.287,53.115 C53.332,52.985 53.289,52.885 53.246,52.822 C53.202,52.761 53.122,52.687 52.989,52.687 C52.989,52.687 3.316,52.687 3.316,52.687 C3.172,52.687 3.091,52.768 3.049,52.836 C3.006,52.906 2.967,53.016 3.031,53.147 C3.031,53.147 6.206,59.687 6.206,59.687 Z" id="path-6" class="cls-6" fill-rule="evenodd"/>
    <path d="M37.274,45.643 C36.730,45.643 36.207,45.348 35.940,44.832 C35.560,44.097 35.848,43.191 36.583,42.810 C42.223,39.895 40.733,32.940 40.718,32.870 C40.536,32.062 41.044,31.260 41.853,31.078 C42.659,30.896 43.463,31.405 43.644,32.213 C44.363,35.412 44.101,42.302 37.961,45.476 C37.741,45.590 37.506,45.643 37.274,45.643 Z" id="path-7" class="cls-6" fill-rule="evenodd"/>
    <path d="M47.531,57.687 C47.531,57.687 30.531,57.687 30.531,57.687 C29.703,57.687 29.031,57.016 29.031,56.187 C29.031,55.359 29.703,54.687 30.531,54.687 C30.531,54.687 47.531,54.687 47.531,54.687 C48.360,54.687 49.031,55.359 49.031,56.187 C49.031,57.016 48.360,57.687 47.531,57.687 Z" id="path-8" class="cls-6" fill-rule="evenodd"/>
    <path d="M38.634,23.406 C38.503,23.406 38.370,23.389 38.237,23.352 C38.075,23.308 34.237,22.225 32.830,19.018 C31.995,17.114 32.186,14.958 33.399,12.611 C36.279,7.039 32.548,2.666 32.388,2.482 C31.845,1.861 31.904,0.914 32.523,0.368 C33.143,-0.178 34.084,-0.124 34.633,0.493 C34.851,0.737 39.908,6.552 36.064,13.988 C35.288,15.492 35.123,16.778 35.577,17.813 C36.402,19.694 39.003,20.452 39.029,20.459 C39.828,20.678 40.299,21.502 40.080,22.302 C39.898,22.968 39.293,23.406 38.634,23.406 Z" id="path-9" class="cls-6" fill-rule="evenodd"/>
    <path d="M45.832,23.406 C45.700,23.406 45.567,23.389 45.435,23.352 C45.272,23.308 41.434,22.225 40.027,19.018 C39.192,17.114 39.383,14.958 40.597,12.611 C43.503,6.986 39.629,2.532 39.590,2.488 C39.039,1.869 39.094,0.921 39.712,0.370 C40.331,-0.182 41.279,-0.127 41.830,0.493 C42.047,0.737 47.104,6.552 43.262,13.988 C42.485,15.492 42.321,16.778 42.774,17.813 C43.600,19.694 46.200,20.452 46.227,20.459 C47.025,20.678 47.496,21.502 47.277,22.302 C47.095,22.968 46.491,23.406 45.832,23.406 Z" id="path-10" class="cls-6" fill-rule="evenodd"/>
  </g>
</svg>
