<svg xmlns="http://www.w3.org/2000/svg" xmlns:xlink="http://www.w3.org/1999/xlink" preserveAspectRatio="xMidYMid" width="52" height="64" viewBox="0 0 52 64">
  <defs>
    <style>

      .cls-3 {
        fill: #ff917b;
      }

      .cls-4 {
        fill: #000000;
      }
    </style>
  </defs>
  <g id="group-72svg">
    <path d="M42.860,29.000 C42.860,29.000 13.711,29.000 13.711,29.000 C13.711,29.000 9.079,36.229 9.079,36.229 C5.242,41.882 5.521,49.279 9.293,54.974 C9.293,54.974 15.600,64.000 15.600,64.000 C15.600,64.000 43.789,64.000 43.789,64.000 C43.789,64.000 49.208,54.828 49.208,54.828 C52.562,49.221 52.170,42.372 48.516,36.955 C48.516,36.955 42.860,29.000 42.860,29.000 Z" id="path-1" class="cls-3" fill-rule="evenodd"/>
    <path d="M38.789,63.000 C38.789,63.000 10.600,63.000 10.600,63.000 C10.108,63.000 9.648,62.760 9.368,62.355 C9.368,62.355 3.186,53.455 3.186,53.455 C-0.989,47.152 -1.020,39.188 3.087,33.137 C3.087,33.137 9.781,22.718 9.781,22.718 C9.781,22.718 9.781,10.378 9.781,10.378 C9.781,10.378 4.994,6.740 4.994,6.740 C4.844,6.626 4.718,6.486 4.620,6.325 C3.930,5.191 3.994,3.611 4.788,2.199 C5.561,0.822 6.796,-0.000 8.092,-0.000 C8.092,-0.000 42.699,-0.000 42.699,-0.000 C42.935,-0.000 43.167,0.056 43.377,0.162 C43.377,0.162 49.959,3.495 49.959,3.495 C50.463,3.751 50.781,4.268 50.781,4.834 C50.781,4.834 50.781,21.203 50.781,21.203 C50.781,23.914 49.244,24.936 47.769,24.997 C47.738,24.999 47.707,25.000 47.675,25.000 C47.675,25.000 47.624,25.000 47.624,25.000 C47.578,25.000 47.531,24.998 47.486,24.994 C45.446,24.877 43.781,23.180 43.781,21.203 C43.781,21.203 43.781,11.013 43.781,11.013 C43.781,11.013 41.300,9.402 41.300,9.402 C41.300,9.402 37.781,10.558 37.781,10.558 C37.781,10.558 37.781,23.025 37.781,23.025 C37.781,23.025 45.009,33.741 45.009,33.741 C49.002,39.660 49.189,47.174 45.495,53.348 C45.495,53.348 40.071,62.279 40.071,62.279 C39.798,62.726 39.312,63.000 38.789,63.000 ZM11.384,60.000 C11.384,60.000 37.945,60.000 37.945,60.000 C37.945,60.000 42.926,51.799 42.926,51.799 C46.010,46.642 45.858,40.363 42.522,35.419 C42.522,35.419 35.038,24.322 35.038,24.322 C34.871,24.074 34.781,23.783 34.781,23.484 C34.781,23.484 34.781,9.471 34.781,9.471 C34.781,8.822 35.198,8.248 35.813,8.046 C35.813,8.046 41.047,6.328 41.047,6.328 C41.478,6.187 41.949,6.248 42.331,6.496 C42.331,6.496 46.098,8.939 46.098,8.939 C46.524,9.216 46.781,9.689 46.781,10.197 C46.781,10.197 46.781,21.203 46.781,21.203 C46.781,21.607 47.211,21.995 47.666,22.000 C47.666,22.000 47.666,22.000 47.666,22.000 C47.666,22.000 47.666,22.000 47.667,22.000 C47.686,22.000 47.781,21.740 47.781,21.203 C47.781,21.203 47.781,5.756 47.781,5.756 C47.781,5.756 42.341,3.000 42.341,3.000 C42.341,3.000 8.092,3.000 8.092,3.000 C7.999,3.000 7.670,3.192 7.403,3.668 C7.185,4.057 7.131,4.404 7.145,4.606 C7.145,4.606 12.189,8.439 12.189,8.439 C12.562,8.723 12.781,9.165 12.781,9.634 C12.781,9.634 12.781,23.158 12.781,23.158 C12.781,23.445 12.699,23.727 12.543,23.969 C12.543,23.969 5.591,34.791 5.591,34.791 C2.148,39.861 2.187,46.516 5.668,51.772 C5.668,51.772 11.384,60.000 11.384,60.000 Z" id="path-2" class="cls-4" fill-rule="evenodd"/>
    <path d="M30.281,24.500 C29.453,24.500 28.781,23.828 28.781,23.000 C28.781,23.000 28.781,11.000 28.781,11.000 C28.781,11.000 17.781,11.000 17.781,11.000 C16.953,11.000 16.281,10.328 16.281,9.500 C16.281,8.672 16.953,8.000 17.781,8.000 C17.781,8.000 30.281,8.000 30.281,8.000 C31.110,8.000 31.781,8.672 31.781,9.500 C31.781,9.500 31.781,23.000 31.781,23.000 C31.781,23.828 31.110,24.500 30.281,24.500 Z" id="path-3" class="cls-4" fill-rule="evenodd"/>
    <path d="M30.205,57.367 C29.569,57.367 28.978,56.959 28.776,56.320 C28.525,55.530 28.962,54.687 29.752,54.437 C33.263,53.324 35.516,51.496 36.448,49.004 C38.322,43.998 34.577,37.763 34.539,37.700 C34.108,36.993 34.331,36.070 35.039,35.639 C35.745,35.207 36.669,35.430 37.101,36.139 C37.287,36.444 41.638,43.697 39.258,50.057 C37.986,53.455 35.093,55.891 30.659,57.297 C30.508,57.344 30.355,57.367 30.205,57.367 Z" id="path-4" class="cls-4" fill-rule="evenodd"/>
  </g>
</svg>
