<svg xmlns="http://www.w3.org/2000/svg" xmlns:xlink="http://www.w3.org/1999/xlink" preserveAspectRatio="xMidYMid" width="68" height="48" viewBox="0 0 68 48">
  <defs>
    <style>

      .cls-3 {
        fill: #ff917b;
      }

      .cls-4 {
        fill: #99746a;
      }

      .cls-5 {
        fill: #000000;
      }
    </style>
  </defs>
  <g id="group-44svg">
    <path d="M12.516,40.110 C12.516,40.110 18.404,45.212 18.404,45.212 C20.610,47.142 23.442,48.156 26.375,48.156 C26.375,48.156 47.492,48.156 47.492,48.156 C50.424,48.156 52.256,47.142 54.462,45.212 C54.462,45.212 60.351,40.084 60.351,40.084 C60.351,40.084 60.351,40.084 60.351,40.084 " id="path-1" class="cls-3" fill-rule="evenodd"/>
    <path d="M57.636,26.234 C55.040,26.234 52.684,26.974 50.923,28.173 C49.162,26.974 46.807,26.234 44.210,26.234 C41.613,26.234 39.258,26.974 37.497,28.173 C35.735,26.974 33.380,26.234 30.783,26.234 C28.187,26.234 25.831,26.974 24.070,28.173 C22.309,26.974 19.954,26.234 17.356,26.234 C11.911,26.234 7.497,29.461 7.497,33.442 C7.497,37.422 11.911,40.649 17.356,40.649 C19.954,40.649 55.040,40.343 57.636,40.343 C63.082,40.343 67.497,37.269 67.497,33.289 C67.497,29.308 63.082,26.234 57.636,26.234 Z" id="path-2" class="cls-4" fill-rule="evenodd"/>
    <path d="M11.357,39.149 C5.093,39.149 -0.003,35.243 -0.003,30.442 C-0.003,25.641 5.093,21.734 11.357,21.734 C13.785,21.734 16.131,22.325 18.070,23.412 C20.010,22.325 22.356,21.734 24.783,21.734 C27.211,21.734 29.557,22.325 31.497,23.412 C33.437,22.325 35.782,21.734 38.210,21.734 C40.637,21.734 42.983,22.325 44.923,23.412 C46.862,22.325 49.208,21.734 51.636,21.734 C58.006,21.734 62.997,25.492 62.997,30.288 C62.997,35.085 58.006,38.843 51.636,38.843 C50.344,38.843 40.769,38.921 31.509,38.996 C22.243,39.071 12.662,39.149 11.357,39.149 ZM11.357,24.734 C6.825,24.734 2.997,27.348 2.997,30.442 C2.997,33.536 6.825,36.149 11.357,36.149 C12.649,36.149 22.225,36.071 31.484,35.996 C40.750,35.921 50.331,35.843 51.636,35.843 C56.246,35.843 59.997,33.351 59.997,30.288 C59.997,27.226 56.246,24.734 51.636,24.734 C49.440,24.734 47.356,25.330 45.768,26.413 C45.768,26.413 44.923,26.988 44.923,26.988 C44.923,26.988 44.079,26.413 44.079,26.413 C42.490,25.330 40.405,24.734 38.210,24.734 C36.015,24.734 33.930,25.330 32.341,26.413 C32.341,26.413 31.497,26.988 31.497,26.988 C31.497,26.988 30.652,26.413 30.652,26.413 C29.063,25.330 26.979,24.734 24.783,24.734 C22.588,24.734 20.503,25.330 18.914,26.413 C18.914,26.413 18.070,26.988 18.070,26.988 C18.070,26.988 17.225,26.413 17.225,26.413 C15.637,25.330 13.553,24.734 11.357,24.734 Z" id="path-3" class="cls-5" fill-rule="evenodd"/>
    <path d="M39.522,31.942 C39.431,31.942 39.339,31.934 39.246,31.916 C38.432,31.765 37.895,30.982 38.046,30.167 C38.538,27.520 42.833,24.698 44.138,23.895 C44.845,23.464 45.766,23.682 46.201,24.387 C46.635,25.093 46.414,26.017 45.709,26.451 C43.615,27.741 41.164,29.810 40.995,30.716 C40.861,31.438 40.231,31.942 39.522,31.942 Z" id="path-4" class="cls-5" fill-rule="evenodd"/>
    <path d="M26.283,31.942 C26.192,31.942 26.100,31.934 26.007,31.916 C25.192,31.765 24.655,30.982 24.807,30.167 C25.299,27.520 29.594,24.698 30.898,23.895 C31.604,23.464 32.527,23.682 32.961,24.387 C33.395,25.093 33.175,26.017 32.470,26.451 C30.376,27.741 27.925,29.810 27.756,30.716 C27.622,31.438 26.991,31.942 26.283,31.942 Z" id="path-5" class="cls-5" fill-rule="evenodd"/>
    <path d="M13.044,31.942 C12.953,31.942 12.861,31.934 12.768,31.916 C11.954,31.765 11.416,30.982 11.568,30.167 C12.060,27.520 16.354,24.698 17.659,23.895 C18.365,23.464 19.288,23.682 19.722,24.387 C20.156,25.093 19.936,26.017 19.231,26.451 C17.137,27.741 14.686,29.810 14.517,30.716 C14.383,31.438 13.753,31.942 13.044,31.942 Z" id="path-6" class="cls-5" fill-rule="evenodd"/>
    <path d="M41.492,46.156 C41.492,46.156 21.374,46.156 21.374,46.156 C17.806,46.156 14.708,45.096 12.416,43.091 C12.416,43.091 6.561,38.268 6.561,38.268 C5.922,37.741 5.831,36.795 6.358,36.156 C6.885,35.516 7.829,35.426 8.470,35.952 C8.470,35.952 14.358,40.804 14.358,40.804 C16.153,42.374 18.503,43.156 21.374,43.156 C21.374,43.156 41.492,43.156 41.492,43.156 C44.363,43.156 46.713,42.374 48.475,40.833 C48.475,40.833 54.379,35.816 54.379,35.816 C55.011,35.281 55.957,35.357 56.494,35.988 C57.030,36.620 56.953,37.566 56.322,38.102 C56.322,38.102 50.434,43.105 50.434,43.105 C48.158,45.096 45.061,46.156 41.492,46.156 Z" id="path-7" class="cls-5" fill-rule="evenodd"/>
    <path d="M55.652,27.744 C55.652,28.587 54.969,29.271 54.125,29.271 C53.281,29.271 52.597,28.587 52.597,27.744 C52.597,26.900 53.281,26.216 54.125,26.216 C54.969,26.216 55.652,26.900 55.652,27.744 Z" id="path-8" class="cls-5" fill-rule="evenodd"/>
    <path d="M34.267,30.799 C34.267,31.643 33.582,32.326 32.739,32.326 C31.895,32.326 31.211,31.643 31.211,30.799 C31.211,29.955 31.895,29.271 32.739,29.271 C33.582,29.271 34.267,29.955 34.267,30.799 Z" id="path-9" class="cls-5" fill-rule="evenodd"/>
    <path d="M8.807,29.780 C8.807,30.624 8.123,31.308 7.279,31.308 C6.435,31.308 5.751,30.624 5.751,29.780 C5.751,28.937 6.435,28.253 7.279,28.253 C8.123,28.253 8.807,28.937 8.807,29.780 Z" id="path-10" class="cls-5" fill-rule="evenodd"/>
    <path d="M44.185,21.510 C44.050,21.510 43.914,21.491 43.777,21.453 C41.474,20.804 37.308,17.998 38.031,12.021 C38.145,11.080 38.264,10.203 38.374,9.389 C39.025,4.589 39.037,3.328 37.895,2.922 C37.114,2.645 36.705,1.788 36.983,1.007 C37.260,0.226 38.119,-0.183 38.898,0.095 C42.489,1.370 42.010,4.902 41.347,9.792 C41.239,10.593 41.122,11.455 41.010,12.382 C40.411,17.330 44.420,18.517 44.591,18.565 C45.388,18.790 45.852,19.619 45.628,20.416 C45.441,21.077 44.840,21.510 44.185,21.510 Z" id="path-11" class="cls-5" fill-rule="evenodd"/>
    <path d="M30.946,21.510 C30.811,21.510 30.674,21.491 30.538,21.453 C28.234,20.804 24.069,17.998 24.792,12.021 C24.906,11.080 25.025,10.203 25.135,9.389 C25.786,4.589 25.797,3.328 24.656,2.922 C23.875,2.645 23.467,1.787 23.744,1.007 C24.021,0.226 24.879,-0.183 25.659,0.095 C29.250,1.370 28.771,4.902 28.108,9.791 C27.999,10.593 27.882,11.455 27.770,12.382 C27.172,17.330 31.181,18.517 31.352,18.565 C32.149,18.790 32.613,19.619 32.389,20.416 C32.202,21.077 31.601,21.510 30.946,21.510 Z" id="path-12" class="cls-5" fill-rule="evenodd"/>
  </g>
</svg>
