<svg xmlns="http://www.w3.org/2000/svg" xmlns:xlink="http://www.w3.org/1999/xlink" preserveAspectRatio="xMidYMid" width="67" height="58" viewBox="0 0 67 58">
  <defs>
    <style>

      .cls-3 {
        fill: #81bda4;
      }

      .cls-4 {
        fill: #99746a;
      }

      .cls-5 {
        fill: #000000;
      }
    </style>
  </defs>
  <g id="group-22svg">
    <path d="M42.555,43.576 C40.505,39.123 41.557,30.771 41.885,28.589 C41.937,28.241 32.879,28.177 32.929,28.520 C33.243,30.689 34.253,39.148 32.201,43.607 C29.824,48.770 23.367,58.094 32.056,58.094 C32.056,58.094 37.473,58.094 37.473,58.094 C37.473,58.094 42.637,58.094 42.637,58.094 C51.325,58.094 44.932,48.740 42.555,43.576 Z" id="path-1" class="cls-3" fill-rule="evenodd"/>
    <path d="M54.194,30.062 C54.194,30.062 43.989,27.973 36.489,27.973 C28.989,27.973 18.784,30.062 18.784,30.062 C11.994,30.062 6.489,28.492 6.489,21.702 C6.489,21.702 6.489,21.702 6.489,21.702 C6.489,14.912 13.251,7.440 21.735,5.473 C21.735,5.473 31.202,3.505 36.489,3.505 C41.776,3.505 51.894,5.778 51.894,5.778 C62.022,9.038 66.489,14.912 66.489,21.702 C66.489,21.702 66.489,21.702 66.489,21.702 C66.489,28.492 60.984,30.062 54.194,30.062 Z" id="path-2" class="cls-4" fill-rule="evenodd"/>
    <path d="M49.194,29.562 C49.093,29.562 48.992,29.552 48.893,29.532 C48.792,29.511 38.747,27.473 31.489,27.473 C24.225,27.473 14.186,29.511 14.085,29.532 C13.986,29.552 13.885,29.562 13.784,29.562 C10.372,29.562 -0.011,29.562 -0.011,19.702 C-0.011,12.045 7.349,4.109 16.396,2.011 C16.822,1.922 26.110,0.005 31.489,0.005 C36.880,0.005 46.803,2.220 47.223,2.314 C47.267,2.324 47.311,2.336 47.353,2.350 C57.436,5.596 62.989,11.758 62.989,19.702 C62.989,29.562 52.606,29.562 49.194,29.562 ZM31.489,24.473 C38.643,24.473 47.990,26.291 49.343,26.562 C56.802,26.535 59.989,24.479 59.989,19.702 C59.989,13.089 55.325,8.085 46.500,5.227 C45.627,5.034 36.332,3.005 31.489,3.005 C26.419,3.005 17.133,4.922 17.040,4.941 C9.439,6.704 2.989,13.467 2.989,19.702 C2.989,24.479 6.175,26.535 13.635,26.562 C14.988,26.291 24.335,24.473 31.489,24.473 Z" id="path-3" class="cls-5" fill-rule="evenodd"/>
    <path d="M37.637,57.094 C37.637,57.094 27.056,57.094 27.056,57.094 C24.459,57.094 22.685,56.337 21.781,54.844 C20.012,51.919 22.381,47.395 24.472,43.405 C24.984,42.427 25.468,41.503 25.839,40.698 C27.317,37.486 27.121,31.346 26.445,26.672 C26.382,26.242 26.517,25.786 26.802,25.457 C27.237,24.954 27.455,24.702 32.365,24.702 C37.358,24.702 37.578,24.957 38.016,25.467 C38.301,25.798 38.434,26.257 38.368,26.689 C37.666,31.357 37.440,37.490 38.917,40.699 C39.281,41.490 39.753,42.395 40.253,43.354 C42.340,47.361 44.706,51.902 42.925,54.838 C42.017,56.335 40.238,57.094 37.637,57.094 ZM29.608,27.753 C30.001,31.203 30.433,37.891 28.564,41.953 C28.161,42.827 27.660,43.784 27.129,44.797 C25.665,47.591 23.454,51.813 24.348,53.291 C24.770,53.989 26.226,54.094 27.056,54.094 C27.056,54.094 37.637,54.094 37.637,54.094 C38.470,54.094 39.932,53.988 40.360,53.282 C41.265,51.790 39.055,47.548 37.592,44.741 C37.075,43.748 36.587,42.811 36.192,41.953 C34.322,37.891 34.787,31.206 35.199,27.755 C34.509,27.725 33.551,27.702 32.365,27.702 C31.215,27.702 30.283,27.724 29.608,27.753 Z" id="path-4" class="cls-5" fill-rule="evenodd"/>
    <path d="M9.602,21.940 C8.813,21.940 8.152,21.324 8.106,20.526 C7.932,17.503 8.882,14.846 10.930,12.628 C17.006,6.050 30.869,5.674 31.456,5.662 C32.325,5.638 32.969,6.300 32.988,7.128 C33.006,7.956 32.350,8.642 31.522,8.661 C31.391,8.663 18.339,9.023 13.131,14.667 C11.638,16.285 10.974,18.145 11.101,20.353 C11.149,21.181 10.517,21.890 9.690,21.937 C9.661,21.939 9.631,21.940 9.602,21.940 Z" id="path-5" class="cls-5" fill-rule="evenodd"/>
  </g>
</svg>
