<svg xmlns="http://www.w3.org/2000/svg" xmlns:xlink="http://www.w3.org/1999/xlink" preserveAspectRatio="xMidYMid" width="67" height="35" viewBox="0 0 67 35">
  <defs>
    <style>

      .cls-3 {
        fill: #ff917b;
      }

      .cls-4 {
        fill: #edc951;
      }

      .cls-5 {
        fill: #000000;
      }
    </style>
  </defs>
  <g id="group-7svg">
    <path d="M66.486,4.805 C66.486,21.373 53.055,34.805 36.486,34.805 C19.918,34.805 6.486,21.373 6.486,4.805 C6.486,4.805 6.486,4.805 6.486,4.805 " id="path-1" class="cls-3" fill-rule="evenodd"/>
    <path d="M41.115,4.718 C41.113,4.718 39.767,3.279 38.832,4.349 C38.273,4.989 37.471,5.094 36.622,5.094 C36.622,5.094 36.618,5.094 36.618,5.094 C35.628,5.094 34.691,4.932 34.112,4.128 C33.349,3.069 32.390,4.475 32.388,4.475 C32.388,4.475 13.266,4.427 13.266,4.525 C13.266,7.618 14.739,10.240 17.016,11.989 C16.996,12.243 16.978,12.437 16.978,12.696 C16.978,17.980 21.261,22.234 26.545,22.234 C26.901,22.234 27.252,22.197 27.598,22.159 C29.264,24.969 32.319,26.851 35.824,26.851 C39.382,26.851 42.480,24.900 44.129,22.018 C44.743,22.142 45.379,22.206 46.030,22.206 C51.314,22.206 55.599,17.921 55.599,12.637 C55.599,12.584 55.591,12.533 55.591,12.480 C58.371,10.807 60.237,8.129 60.237,4.647 C60.237,4.549 41.115,4.718 41.115,4.718 Z" id="path-2" class="cls-4" fill-rule="evenodd"/>
    <path d="M30.824,26.349 C27.261,26.349 23.896,24.598 21.831,21.721 C21.737,21.724 21.545,21.727 21.447,21.727 C15.345,21.727 10.281,16.771 10.281,10.680 C10.281,10.664 10.281,10.648 10.281,10.632 C8.281,8.534 6.667,5.599 6.667,2.463 C6.667,0.973 8.152,0.946 9.011,0.930 C9.537,0.920 10.313,0.912 11.217,0.904 C13.011,0.889 15.416,0.877 17.809,0.870 C21.490,0.857 25.178,0.852 26.678,0.850 C27.104,0.426 27.725,0.005 28.502,0.005 C28.915,0.005 29.702,0.134 30.327,1.000 C30.387,1.051 30.538,1.097 31.091,1.097 C31.091,1.097 31.618,1.094 31.618,1.094 C31.770,1.094 31.917,1.098 32.062,1.101 C32.062,1.101 32.396,1.108 32.396,1.108 C32.661,1.108 32.738,1.084 32.751,1.080 C33.191,0.552 33.849,0.244 34.554,0.244 C35.462,0.244 36.231,0.750 36.743,1.212 C39.219,1.191 48.372,1.116 52.784,1.116 C55.900,1.116 56.737,1.116 56.737,2.646 C56.737,6.172 55.091,9.217 52.079,11.304 C51.732,17.098 46.909,21.705 41.030,21.705 C40.643,21.705 40.254,21.686 39.869,21.645 C37.807,24.570 34.429,26.349 30.824,26.349 ZM22.598,18.655 C23.123,18.655 23.615,18.931 23.888,19.390 C25.358,21.869 27.952,23.349 30.824,23.349 C33.705,23.349 36.389,21.787 37.827,19.272 C38.147,18.712 38.788,18.418 39.425,18.546 C39.949,18.652 40.489,18.705 41.030,18.705 C45.479,18.705 49.099,15.086 49.099,10.637 C49.094,10.607 49.091,10.544 49.091,10.480 C49.091,9.955 49.366,9.455 49.817,9.184 C51.336,8.269 53.102,7.094 53.600,4.094 C53.366,4.094 53.097,4.094 52.784,4.094 C47.689,4.094 36.243,4.205 36.129,4.206 C35.679,4.203 35.247,4.013 34.959,3.667 C34.869,3.560 34.762,3.459 34.665,3.378 C33.817,4.105 32.806,4.106 32.396,4.106 C32.261,4.106 32.121,4.103 31.979,4.100 C31.979,4.100 31.622,4.093 31.622,4.093 C31.622,4.093 31.092,4.097 31.092,4.097 C30.503,4.097 29.395,4.097 28.483,3.373 C28.201,3.673 27.805,3.850 27.388,3.850 C21.574,3.854 13.266,3.875 9.896,3.917 C10.248,5.824 11.294,7.512 12.930,8.769 C13.331,9.077 13.550,9.568 13.511,10.073 C13.491,10.330 13.477,10.488 13.477,10.680 C13.477,15.117 17.097,18.727 21.546,18.727 C21.846,18.727 22.142,18.696 22.434,18.663 C22.488,18.658 22.543,18.655 22.598,18.655 Z" id="path-3" class="cls-5" fill-rule="evenodd"/>
    <path d="M50.590,11.981 C50.399,11.981 50.205,11.944 50.018,11.867 C50.018,11.867 34.504,5.454 34.504,5.454 C33.738,5.137 33.374,4.260 33.691,3.494 C34.007,2.729 34.883,2.363 35.650,2.681 C35.650,2.681 51.164,9.094 51.164,9.094 C51.930,9.411 52.294,10.288 51.977,11.054 C51.738,11.632 51.180,11.981 50.590,11.981 Z" id="path-4" class="cls-5" fill-rule="evenodd"/>
    <path d="M39.129,21.518 C38.512,21.518 37.933,21.134 37.715,20.519 C37.715,20.519 32.418,5.571 32.418,5.571 C32.142,4.790 32.550,3.933 33.331,3.656 C34.113,3.380 34.971,3.788 35.246,4.569 C35.246,4.569 40.543,19.517 40.543,19.517 C40.819,20.297 40.411,21.155 39.630,21.432 C39.464,21.490 39.295,21.518 39.129,21.518 Z" id="path-5" class="cls-5" fill-rule="evenodd"/>
    <path d="M22.597,21.659 C22.376,21.659 22.152,21.610 21.941,21.507 C21.196,21.144 20.887,20.246 21.249,19.501 C21.249,19.501 28.701,4.192 28.701,4.192 C29.063,3.447 29.964,3.137 30.706,3.500 C31.451,3.863 31.761,4.761 31.398,5.506 C31.398,5.506 23.946,20.815 23.946,20.815 C23.687,21.348 23.152,21.659 22.597,21.659 Z" id="path-6" class="cls-5" fill-rule="evenodd"/>
    <path d="M12.016,11.486 C11.384,11.486 10.796,11.083 10.590,10.450 C10.333,9.662 10.764,8.816 11.551,8.559 C11.551,8.559 28.389,3.072 28.389,3.072 C29.180,2.814 30.023,3.247 30.279,4.034 C30.536,4.821 30.105,5.668 29.318,5.925 C29.318,5.925 12.480,11.412 12.480,11.412 C12.326,11.462 12.169,11.486 12.016,11.486 Z" id="path-7" class="cls-5" fill-rule="evenodd"/>
    <path d="M31.486,33.305 C14.117,33.305 -0.014,19.174 -0.014,1.805 C-0.014,0.977 0.658,0.305 1.486,0.305 C2.314,0.305 2.986,0.977 2.986,1.805 C2.986,17.520 15.771,30.305 31.486,30.305 C47.201,30.305 59.986,17.520 59.986,1.805 C59.986,0.977 60.658,0.305 61.486,0.305 C62.314,0.305 62.986,0.977 62.986,1.805 C62.986,19.174 48.855,33.305 31.486,33.305 Z" id="path-8" class="cls-5" fill-rule="evenodd"/>
  </g>
</svg>
