<svg xmlns="http://www.w3.org/2000/svg" xmlns:xlink="http://www.w3.org/1999/xlink" preserveAspectRatio="xMidYMid" width="62" height="64" viewBox="0 0 62 64">
  <defs>
    <style>

      .cls-3 {
        fill: #8b71b5;
      }

      .cls-4 {
        fill: #99746a;
      }

      .cls-5 {
        fill: #000000;
      }
    </style>
  </defs>
  <g id="group-36svg">
    <path d="M6.502,38.664 C6.502,38.664 13.597,37.305 14.780,26.425 C14.780,26.425 12.415,10.106 30.389,12.945 C30.389,12.945 42.451,15.309 36.065,3.484 C36.065,3.484 50.728,4.430 51.911,20.040 C51.911,20.040 61.608,23.351 58.297,31.628 C58.297,31.628 64.245,30.471 61.135,38.664 C61.135,38.664 55.761,50.479 29.511,49.036 C3.261,47.594 6.502,38.664 6.502,38.664 Z" id="path-1" class="cls-3" fill-rule="evenodd"/>
    <path d="M50.906,42.005 C50.906,42.005 43.013,37.999 39.702,44.622 C39.702,44.622 37.957,41.027 33.700,41.754 C29.443,41.027 27.935,44.622 27.935,44.622 C24.624,37.999 16.967,42.005 16.967,42.005 C13.656,35.619 6.502,38.664 6.502,38.664 C15.016,67.282 33.700,63.295 33.700,63.295 C33.700,63.295 52.621,67.282 61.135,38.664 C61.135,38.664 54.217,35.619 50.906,42.005 Z" id="path-2" class="cls-4" fill-rule="evenodd"/>
    <path d="M31.092,62.984 C31.092,62.984 31.092,62.984 31.092,62.984 C29.955,62.984 29.125,62.884 28.702,62.818 C28.280,62.884 27.461,62.984 26.337,62.984 C20.754,62.984 7.017,60.461 0.064,37.092 C-0.153,36.361 0.212,35.583 0.915,35.284 C0.996,35.250 2.928,34.439 5.337,34.439 C7.548,34.439 10.487,35.112 12.580,38.118 C13.623,37.738 15.186,37.305 16.883,37.305 C19.399,37.305 21.478,38.229 22.999,40.003 C23.957,39.064 25.442,38.157 27.596,38.157 C27.956,38.157 28.326,38.184 28.700,38.236 C29.075,38.184 29.447,38.157 29.810,38.157 C32.026,38.157 33.586,39.109 34.593,40.062 C36.130,38.250 38.260,37.305 40.855,37.305 C42.604,37.305 44.218,37.746 45.285,38.127 C47.366,35.113 50.250,34.439 52.414,34.439 C54.774,34.439 56.660,35.257 56.739,35.291 C57.431,35.596 57.788,36.368 57.572,37.092 C50.620,60.460 36.739,62.984 31.092,62.984 ZM28.702,59.795 C28.805,59.795 28.909,59.806 29.009,59.827 C29.011,59.828 29.801,59.984 31.092,59.984 C35.954,59.984 47.773,57.772 54.259,37.651 C53.741,37.536 53.102,37.439 52.414,37.439 C50.067,37.439 48.373,38.504 47.237,40.696 C46.858,41.427 45.960,41.714 45.227,41.343 C45.209,41.334 43.128,40.305 40.855,40.305 C38.622,40.305 37.048,41.282 36.043,43.292 C35.788,43.803 35.247,44.103 34.693,44.121 C34.122,44.118 33.602,43.790 33.352,43.276 C33.314,43.202 32.245,41.157 29.810,41.157 C29.535,41.157 29.247,41.182 28.953,41.232 C28.786,41.261 28.615,41.261 28.448,41.232 C28.154,41.182 27.867,41.157 27.596,41.157 C25.255,41.157 24.350,43.132 24.312,43.216 C24.077,43.746 23.553,44.100 22.972,44.113 C22.390,44.144 21.853,43.811 21.593,43.292 C20.588,41.282 19.047,40.305 16.883,40.305 C14.692,40.305 12.683,41.324 12.663,41.334 C12.310,41.519 11.898,41.557 11.517,41.436 C11.136,41.316 10.819,41.050 10.636,40.696 C9.499,38.504 7.766,37.439 5.337,37.439 C4.605,37.439 3.927,37.541 3.381,37.662 C9.861,57.772 21.538,59.984 26.337,59.984 C27.609,59.984 28.385,59.828 28.393,59.827 C28.494,59.806 28.598,59.795 28.702,59.795 Z" id="path-3" class="cls-5" fill-rule="evenodd"/>
    <path d="M56.134,38.165 C55.958,38.165 55.778,38.133 55.602,38.067 C54.828,37.773 54.438,36.907 54.732,36.132 C56.005,32.781 55.432,31.724 55.227,31.479 C54.759,30.924 53.594,31.098 53.583,31.101 C53.043,31.204 52.492,31.008 52.141,30.584 C51.791,30.162 51.700,29.581 51.904,29.071 C52.652,27.202 52.682,25.563 51.997,24.062 C50.565,20.925 46.464,19.472 46.423,19.458 C45.858,19.262 45.460,18.748 45.415,18.153 C44.638,7.893 37.612,4.550 33.644,3.476 C34.762,6.406 34.703,8.661 33.478,10.326 C31.143,13.497 25.712,12.536 25.101,12.417 C20.053,11.621 16.292,12.367 13.975,14.644 C10.453,18.106 11.256,24.153 11.265,24.213 C11.282,24.336 11.284,24.464 11.271,24.587 C9.983,36.433 2.119,38.074 1.784,38.138 C0.968,38.295 0.185,37.760 0.029,36.947 C-0.126,36.137 0.401,35.355 1.208,35.194 C1.483,35.134 7.185,33.792 8.270,24.434 C8.126,23.175 7.629,16.694 11.855,12.521 C14.887,9.527 19.520,8.499 25.623,9.463 C26.747,9.677 30.034,9.949 31.063,8.544 C31.847,7.476 31.378,5.222 29.745,2.197 C29.486,1.717 29.508,1.134 29.802,0.675 C30.097,0.216 30.612,-0.045 31.162,-0.013 C31.318,-0.002 46.547,1.166 48.320,16.995 C49.934,17.723 53.222,19.541 54.717,22.797 C55.493,24.486 55.684,26.301 55.290,28.213 C56.053,28.393 56.872,28.776 57.521,29.546 C58.875,31.154 58.881,33.657 57.537,37.197 C57.309,37.796 56.740,38.165 56.134,38.165 Z" id="path-4" class="cls-5" fill-rule="evenodd"/>
    <path d="M42.551,26.194 C42.405,26.194 42.257,26.172 42.110,26.127 C41.318,25.883 40.873,25.044 41.117,24.252 C42.818,18.723 37.494,15.375 37.267,15.236 C36.562,14.803 36.339,13.881 36.769,13.175 C37.199,12.471 38.115,12.242 38.824,12.672 C41.447,14.259 45.900,18.907 43.984,25.134 C43.786,25.779 43.192,26.194 42.551,26.194 Z" id="path-5" class="cls-5" fill-rule="evenodd"/>
    <path d="M21.290,35.877 C16.612,35.877 14.279,32.856 14.158,32.694 C13.661,32.032 13.795,31.091 14.458,30.594 C15.116,30.101 16.051,30.230 16.550,30.884 C16.673,31.040 19.195,34.122 24.571,32.280 C25.358,32.013 26.208,32.431 26.477,33.214 C26.745,33.998 26.327,34.851 25.543,35.119 C23.956,35.661 22.540,35.877 21.290,35.877 Z" id="path-6" class="cls-5" fill-rule="evenodd"/>
    <path d="M28.752,57.609 C28.179,57.609 27.645,57.583 27.163,57.536 C26.339,57.455 25.736,56.722 25.816,55.897 C25.896,55.073 26.630,54.468 27.453,54.550 C27.919,54.595 38.707,55.497 41.526,46.584 C41.776,45.794 42.619,45.356 43.409,45.606 C44.199,45.855 44.637,46.699 44.387,47.488 C41.832,55.568 33.781,57.609 28.752,57.609 Z" id="path-7" class="cls-5" fill-rule="evenodd"/>
  </g>
</svg>
