<svg xmlns="http://www.w3.org/2000/svg" xmlns:xlink="http://www.w3.org/1999/xlink" preserveAspectRatio="xMidYMid" width="49" height="64" viewBox="0 0 49 64">
  <defs>
    <style>

      .cls-3 {
        fill: #81bda4;
      }

      .cls-4 {
        fill: #edc951;
      }

      .cls-5 {
        fill: #000000;
      }
    </style>
  </defs>
  <g id="group-26svg">
    <path d="M48.709,18.696 C40.014,22.030 38.419,31.659 38.419,31.659 C36.759,40.048 35.568,49.404 35.568,49.404 C35.568,49.404 34.834,53.172 26.970,53.172 C19.106,53.172 18.640,49.404 18.640,49.404 C18.640,49.404 17.449,40.048 15.788,31.659 C15.788,31.659 14.194,21.989 5.498,18.656 C5.498,18.656 9.991,23.196 8.541,32.762 C7.092,42.327 9.991,51.969 19.991,53.969 C19.991,53.969 21.295,53.969 21.295,53.969 C21.295,53.969 19.991,55.536 19.991,55.536 C19.991,55.536 22.808,57.551 22.808,57.551 C22.808,57.551 20.937,63.271 25.937,63.470 C25.937,63.470 25.937,63.479 25.937,63.479 C25.937,63.479 25.937,63.475 25.937,63.475 C25.937,63.475 25.937,63.479 25.937,63.479 C25.937,63.479 25.937,63.470 25.937,63.470 C30.937,63.271 30.233,57.392 30.233,57.392 C30.233,57.392 33.892,55.536 33.892,55.536 C33.892,55.536 32.912,53.969 32.912,53.969 C32.912,53.969 34.217,53.969 34.217,53.969 C44.217,51.969 47.115,42.347 45.666,32.782 C44.217,23.217 48.709,18.696 48.709,18.696 Z" id="path-1" class="cls-3" fill-rule="evenodd"/>
    <path d="M26.970,3.479 C26.970,3.479 16.246,5.536 16.825,26.405 C17.405,47.274 16.535,52.969 24.072,53.969 C24.072,53.969 26.970,53.969 26.970,53.969 C26.970,53.969 29.869,53.969 29.869,53.969 C37.405,52.969 36.535,47.274 37.115,26.405 C37.695,5.536 26.970,3.479 26.970,3.479 Z" id="path-2" class="cls-4" fill-rule="evenodd"/>
    <path d="M25.869,52.969 C25.869,52.969 20.072,52.969 20.072,52.969 C20.006,52.969 19.940,52.964 19.874,52.955 C11.938,51.903 11.824,46.598 11.484,30.849 C11.440,28.828 11.393,26.616 11.326,24.197 C10.717,2.275 22.230,0.082 22.721,-0.000 C22.886,-0.028 23.054,-0.028 23.219,-0.000 C23.710,0.082 35.224,2.275 34.615,24.197 C34.547,26.617 34.499,28.828 34.456,30.850 C34.116,46.598 34.001,51.903 26.066,52.955 C26.000,52.964 25.935,52.969 25.869,52.969 ZM20.173,49.969 C20.173,49.969 25.768,49.969 25.768,49.969 C30.730,49.281 31.110,46.842 31.456,30.786 C31.500,28.758 31.548,26.540 31.616,24.114 C32.103,6.558 24.456,3.456 22.969,3.020 C21.447,3.458 13.836,6.535 14.325,24.114 C14.392,26.539 14.440,28.758 14.483,30.785 C14.830,46.842 15.209,49.280 20.173,49.969 Z" id="path-3" class="cls-5" fill-rule="evenodd"/>
    <path d="M22.437,62.977 C22.361,62.977 22.287,62.971 22.213,62.960 C20.086,62.830 18.931,61.840 18.334,61.022 C17.173,59.431 17.224,57.352 17.399,56.097 C17.399,56.097 15.132,54.516 15.132,54.516 C14.803,54.286 14.580,53.934 14.512,53.538 C14.463,53.249 14.499,52.955 14.614,52.689 C5.715,50.347 1.303,41.875 3.059,30.287 C4.375,21.593 0.501,17.778 0.462,17.741 C-0.055,17.247 -0.151,16.457 0.230,15.853 C0.613,15.250 1.366,14.998 2.035,15.255 C11.426,18.855 13.197,28.986 13.268,29.415 C14.911,37.711 16.116,47.120 16.127,47.214 C16.127,47.214 16.127,47.214 16.127,47.214 C16.132,47.214 16.781,49.672 22.970,49.672 C28.878,49.672 29.971,47.415 30.095,47.098 C30.239,45.986 31.396,37.206 32.948,29.368 C33.010,28.986 34.782,18.895 44.172,15.296 C44.842,15.040 45.596,15.291 45.978,15.895 C46.360,16.500 46.261,17.291 45.743,17.784 C45.592,17.932 41.849,21.730 43.149,30.307 C44.915,41.961 40.431,50.462 31.412,52.736 C31.526,53.024 31.548,53.343 31.472,53.647 C31.376,54.036 31.128,54.369 30.785,54.574 C30.785,54.574 28.056,56.201 28.056,56.201 C28.094,57.437 27.927,59.491 26.652,61.051 C25.993,61.857 24.770,62.831 22.661,62.960 C22.588,62.971 22.513,62.977 22.437,62.977 ZM18.096,52.925 C18.096,52.925 19.916,54.196 19.916,54.196 C20.438,54.560 20.673,55.213 20.503,55.827 C20.347,56.408 20.055,58.297 20.761,59.258 C20.879,59.419 21.237,59.905 22.437,59.968 C23.298,59.923 23.917,59.656 24.329,59.152 C25.177,58.115 25.098,56.216 25.003,55.632 C24.904,55.025 25.186,54.419 25.715,54.104 C25.715,54.104 27.949,52.772 27.949,52.772 C27.949,52.772 27.630,52.248 27.630,52.248 C27.613,52.219 27.596,52.189 27.580,52.159 C26.342,52.475 24.826,52.672 22.970,52.672 C21.220,52.672 19.781,52.497 18.599,52.211 C18.573,52.257 18.544,52.301 18.514,52.344 C18.514,52.344 18.096,52.925 18.096,52.925 ZM40.704,20.998 C36.828,24.737 35.910,29.840 35.899,29.907 C34.259,38.193 33.068,47.500 33.056,47.593 C33.015,47.810 32.844,48.523 32.237,49.348 C41.648,45.849 40.734,34.395 40.183,30.756 C39.558,26.629 39.973,23.398 40.704,20.998 ZM5.500,20.961 C6.233,23.365 6.651,26.603 6.024,30.736 C5.475,34.363 4.565,45.745 13.845,49.300 C13.293,48.475 13.174,47.774 13.151,47.588 C13.140,47.500 11.948,38.190 10.316,29.951 C10.299,29.850 9.379,24.712 5.500,20.961 Z" id="path-4" class="cls-5" fill-rule="evenodd"/>
    <path d="M28.635,10.633 C28.635,11.209 28.168,11.676 27.592,11.676 C27.015,11.676 26.548,11.209 26.548,10.633 C26.548,10.056 27.015,9.589 27.592,9.589 C28.168,9.589 28.635,10.056 28.635,10.633 Z" id="path-5" class="cls-5" fill-rule="evenodd"/>
    <path d="M28.635,13.972 C28.635,14.548 28.168,15.015 27.592,15.015 C27.015,15.015 26.548,14.548 26.548,13.972 C26.548,13.395 27.015,12.928 27.592,12.928 C28.168,12.928 28.635,13.395 28.635,13.972 Z" id="path-6" class="cls-5" fill-rule="evenodd"/>
    <path d="M28.635,17.311 C28.635,17.887 28.168,18.354 27.592,18.354 C27.015,18.354 26.548,17.887 26.548,17.311 C26.548,16.735 27.015,16.268 27.592,16.268 C28.168,16.268 28.635,16.735 28.635,17.311 Z" id="path-7" class="cls-5" fill-rule="evenodd"/>
    <path d="M28.635,20.650 C28.635,21.226 28.168,21.693 27.592,21.693 C27.015,21.693 26.548,21.226 26.548,20.650 C26.548,20.074 27.015,19.606 27.592,19.606 C28.168,19.606 28.635,20.074 28.635,20.650 Z" id="path-8" class="cls-5" fill-rule="evenodd"/>
    <path d="M28.635,23.989 C28.635,24.565 28.168,25.033 27.592,25.033 C27.015,25.033 26.548,24.565 26.548,23.989 C26.548,23.413 27.015,22.946 27.592,22.946 C28.168,22.946 28.635,23.413 28.635,23.989 Z" id="path-9" class="cls-5" fill-rule="evenodd"/>
    <path d="M28.635,27.328 C28.635,27.905 28.168,28.371 27.592,28.371 C27.015,28.371 26.548,27.905 26.548,27.328 C26.548,26.752 27.015,26.285 27.592,26.285 C28.168,26.285 28.635,26.752 28.635,27.328 Z" id="path-10" class="cls-5" fill-rule="evenodd"/>
    <path d="M28.635,30.667 C28.635,31.244 28.168,31.711 27.592,31.711 C27.015,31.711 26.548,31.244 26.548,30.667 C26.548,30.091 27.015,29.624 27.592,29.624 C28.168,29.624 28.635,30.091 28.635,30.667 Z" id="path-11" class="cls-5" fill-rule="evenodd"/>
    <path d="M28.635,34.006 C28.635,34.583 28.168,35.050 27.592,35.050 C27.015,35.050 26.548,34.583 26.548,34.006 C26.548,33.430 27.015,32.963 27.592,32.963 C28.168,32.963 28.635,33.430 28.635,34.006 Z" id="path-12" class="cls-5" fill-rule="evenodd"/>
    <path d="M28.635,37.346 C28.635,37.922 28.168,38.389 27.592,38.389 C27.015,38.389 26.548,37.922 26.548,37.346 C26.548,36.769 27.015,36.302 27.592,36.302 C28.168,36.302 28.635,36.769 28.635,37.346 Z" id="path-13" class="cls-5" fill-rule="evenodd"/>
    <path d="M28.635,40.685 C28.635,41.261 28.168,41.728 27.592,41.728 C27.015,41.728 26.548,41.261 26.548,40.685 C26.548,40.108 27.015,39.641 27.592,39.641 C28.168,39.641 28.635,40.108 28.635,40.685 Z" id="path-14" class="cls-5" fill-rule="evenodd"/>
    <path d="M28.635,44.024 C28.635,44.600 28.168,45.067 27.592,45.067 C27.015,45.067 26.548,44.600 26.548,44.024 C26.548,43.448 27.015,42.980 27.592,42.980 C28.168,42.980 28.635,43.448 28.635,44.024 Z" id="path-15" class="cls-5" fill-rule="evenodd"/>
    <path d="M23.939,10.633 C23.939,11.209 23.472,11.676 22.896,11.676 C22.319,11.676 21.852,11.209 21.852,10.633 C21.852,10.056 22.319,9.589 22.896,9.589 C23.472,9.589 23.939,10.056 23.939,10.633 Z" id="path-16" class="cls-5" fill-rule="evenodd"/>
    <path d="M23.939,13.972 C23.939,14.548 23.472,15.015 22.896,15.015 C22.319,15.015 21.852,14.548 21.852,13.972 C21.852,13.395 22.319,12.928 22.896,12.928 C23.472,12.928 23.939,13.395 23.939,13.972 Z" id="path-17" class="cls-5" fill-rule="evenodd"/>
    <path d="M23.939,17.311 C23.939,17.887 23.472,18.354 22.896,18.354 C22.319,18.354 21.852,17.887 21.852,17.311 C21.852,16.735 22.319,16.268 22.896,16.268 C23.472,16.268 23.939,16.735 23.939,17.311 Z" id="path-18" class="cls-5" fill-rule="evenodd"/>
    <path d="M23.939,20.650 C23.939,21.226 23.472,21.693 22.896,21.693 C22.319,21.693 21.852,21.226 21.852,20.650 C21.852,20.074 22.319,19.606 22.896,19.606 C23.472,19.606 23.939,20.074 23.939,20.650 Z" id="path-19" class="cls-5" fill-rule="evenodd"/>
    <path d="M23.939,23.989 C23.939,24.565 23.472,25.033 22.896,25.033 C22.319,25.033 21.852,24.565 21.852,23.989 C21.852,23.413 22.319,22.946 22.896,22.946 C23.472,22.946 23.939,23.413 23.939,23.989 Z" id="path-20" class="cls-5" fill-rule="evenodd"/>
    <path d="M23.939,27.328 C23.939,27.905 23.472,28.371 22.896,28.371 C22.319,28.371 21.852,27.905 21.852,27.328 C21.852,26.752 22.319,26.285 22.896,26.285 C23.472,26.285 23.939,26.752 23.939,27.328 Z" id="path-21" class="cls-5" fill-rule="evenodd"/>
    <path d="M23.939,30.667 C23.939,31.244 23.472,31.711 22.896,31.711 C22.319,31.711 21.852,31.244 21.852,30.667 C21.852,30.091 22.319,29.624 22.896,29.624 C23.472,29.624 23.939,30.091 23.939,30.667 Z" id="path-22" class="cls-5" fill-rule="evenodd"/>
    <path d="M23.939,34.006 C23.939,34.583 23.472,35.050 22.896,35.050 C22.319,35.050 21.852,34.583 21.852,34.006 C21.852,33.430 22.319,32.963 22.896,32.963 C23.472,32.963 23.939,33.430 23.939,34.006 Z" id="path-23" class="cls-5" fill-rule="evenodd"/>
    <path d="M23.939,37.346 C23.939,37.922 23.472,38.389 22.896,38.389 C22.319,38.389 21.852,37.922 21.852,37.346 C21.852,36.769 22.319,36.302 22.896,36.302 C23.472,36.302 23.939,36.769 23.939,37.346 Z" id="path-24" class="cls-5" fill-rule="evenodd"/>
    <path d="M23.939,40.685 C23.939,41.261 23.472,41.728 22.896,41.728 C22.319,41.728 21.852,41.261 21.852,40.685 C21.852,40.108 22.319,39.641 22.896,39.641 C23.472,39.641 23.939,40.108 23.939,40.685 Z" id="path-25" class="cls-5" fill-rule="evenodd"/>
    <path d="M23.939,44.024 C23.939,44.600 23.472,45.067 22.896,45.067 C22.319,45.067 21.852,44.600 21.852,44.024 C21.852,43.448 22.319,42.980 22.896,42.980 C23.472,42.980 23.939,43.448 23.939,44.024 Z" id="path-26" class="cls-5" fill-rule="evenodd"/>
    <path d="M19.244,10.633 C19.244,11.209 18.776,11.676 18.200,11.676 C17.624,11.676 17.157,11.209 17.157,10.633 C17.157,10.056 17.624,9.589 18.200,9.589 C18.776,9.589 19.244,10.056 19.244,10.633 Z" id="path-27" class="cls-5" fill-rule="evenodd"/>
    <path d="M19.244,13.972 C19.244,14.548 18.776,15.015 18.200,15.015 C17.624,15.015 17.157,14.548 17.157,13.972 C17.157,13.395 17.624,12.928 18.200,12.928 C18.776,12.928 19.244,13.395 19.244,13.972 Z" id="path-28" class="cls-5" fill-rule="evenodd"/>
    <path d="M19.244,17.311 C19.244,17.887 18.776,18.354 18.200,18.354 C17.624,18.354 17.157,17.887 17.157,17.311 C17.157,16.735 17.624,16.268 18.200,16.268 C18.776,16.268 19.244,16.735 19.244,17.311 Z" id="path-29" class="cls-5" fill-rule="evenodd"/>
    <path d="M19.244,20.650 C19.244,21.226 18.776,21.693 18.200,21.693 C17.624,21.693 17.157,21.226 17.157,20.650 C17.157,20.074 17.624,19.606 18.200,19.606 C18.776,19.606 19.244,20.074 19.244,20.650 Z" id="path-30" class="cls-5" fill-rule="evenodd"/>
    <path d="M19.244,23.989 C19.244,24.565 18.776,25.033 18.200,25.033 C17.624,25.033 17.157,24.565 17.157,23.989 C17.157,23.413 17.624,22.946 18.200,22.946 C18.776,22.946 19.244,23.413 19.244,23.989 Z" id="path-31" class="cls-5" fill-rule="evenodd"/>
    <path d="M19.244,27.328 C19.244,27.905 18.776,28.371 18.200,28.371 C17.624,28.371 17.157,27.905 17.157,27.328 C17.157,26.752 17.624,26.285 18.200,26.285 C18.776,26.285 19.244,26.752 19.244,27.328 Z" id="path-32" class="cls-5" fill-rule="evenodd"/>
    <path d="M19.244,30.667 C19.244,31.244 18.776,31.711 18.200,31.711 C17.624,31.711 17.157,31.244 17.157,30.667 C17.157,30.091 17.624,29.624 18.200,29.624 C18.776,29.624 19.244,30.091 19.244,30.667 Z" id="path-33" class="cls-5" fill-rule="evenodd"/>
    <path d="M19.244,34.006 C19.244,34.583 18.776,35.050 18.200,35.050 C17.624,35.050 17.157,34.583 17.157,34.006 C17.157,33.430 17.624,32.963 18.200,32.963 C18.776,32.963 19.244,33.430 19.244,34.006 Z" id="path-34" class="cls-5" fill-rule="evenodd"/>
    <path d="M19.244,37.346 C19.244,37.922 18.776,38.389 18.200,38.389 C17.624,38.389 17.157,37.922 17.157,37.346 C17.157,36.769 17.624,36.302 18.200,36.302 C18.776,36.302 19.244,36.769 19.244,37.346 Z" id="path-35" class="cls-5" fill-rule="evenodd"/>
    <path d="M19.244,40.685 C19.244,41.261 18.776,41.728 18.200,41.728 C17.624,41.728 17.157,41.261 17.157,40.685 C17.157,40.108 17.624,39.641 18.200,39.641 C18.776,39.641 19.244,40.108 19.244,40.685 Z" id="path-36" class="cls-5" fill-rule="evenodd"/>
    <path d="M19.244,44.024 C19.244,44.600 18.776,45.067 18.200,45.067 C17.624,45.067 17.157,44.600 17.157,44.024 C17.157,43.448 17.624,42.980 18.200,42.980 C18.776,42.980 19.244,43.448 19.244,44.024 Z" id="path-37" class="cls-5" fill-rule="evenodd"/>
  </g>
</svg>
