<svg xmlns="http://www.w3.org/2000/svg" xmlns:xlink="http://www.w3.org/1999/xlink" preserveAspectRatio="xMidYMid" width="44" height="64" viewBox="0 0 44 64">
  <defs>
    <style>

      .cls-3 {
        fill: #99746a;
      }

      .cls-4 {
        fill: #ff917b;
      }

      .cls-5 {
        fill: #000000;
      }
    </style>
  </defs>
  <g id="group-76svg">
    <path d="M25.591,14.000 C25.591,14.000 9.884,14.000 9.884,14.000 C7.102,14.000 5.028,16.299 5.609,19.019 C5.609,19.019 13.376,60.546 13.376,60.546 C13.807,62.562 15.589,64.000 17.651,64.000 C17.651,64.000 25.591,64.000 25.591,64.000 C25.591,64.000 32.073,64.000 32.073,64.000 C34.135,64.000 35.917,62.430 36.348,60.413 C36.348,60.413 44.115,19.084 44.115,19.084 C44.696,16.363 42.622,14.000 39.840,14.000 C39.840,14.000 25.591,14.000 25.591,14.000 Z" id="path-1" class="cls-3" fill-rule="evenodd"/>
    <path d="M40.985,34.000 C40.985,34.000 30.385,34.000 30.385,34.000 C29.637,32.000 27.485,30.051 24.943,30.051 C22.401,30.051 20.249,32.000 19.502,34.000 C19.502,34.000 9.052,34.000 9.052,34.000 C9.052,34.000 9.906,40.000 9.906,40.000 C9.906,40.000 20.273,40.000 20.273,40.000 C21.311,41.000 23.014,42.420 24.943,42.420 C26.873,42.420 28.575,41.000 29.613,40.000 C29.613,40.000 40.131,40.000 40.131,40.000 C40.131,40.000 40.985,34.000 40.985,34.000 Z" id="path-2" class="cls-4" fill-rule="evenodd"/>
    <path d="M28.073,63.000 C28.073,63.000 13.651,63.000 13.651,63.000 C10.838,63.000 8.477,61.142 7.910,58.484 C7.910,58.484 0.135,17.046 0.135,17.046 C-0.229,15.346 0.198,13.557 1.314,12.178 C2.433,10.794 4.099,10.000 5.884,10.000 C5.884,10.000 35.840,10.000 35.840,10.000 C37.641,10.000 39.314,10.792 40.431,12.173 C41.531,13.532 41.950,15.300 41.582,17.022 C41.582,17.022 33.822,58.439 33.822,58.439 C33.246,61.141 30.884,63.000 28.073,63.000 ZM5.884,13.000 C5.009,13.000 4.193,13.389 3.646,14.064 C3.103,14.736 2.895,15.607 3.076,16.456 C3.076,16.456 10.851,57.894 10.851,57.894 C11.117,59.139 12.246,60.000 13.651,60.000 C13.651,60.000 28.073,60.000 28.073,60.000 C29.478,60.000 30.606,59.136 30.881,57.850 C30.881,57.850 38.641,16.433 38.641,16.433 C38.829,15.551 38.633,14.721 38.099,14.059 C37.554,13.387 36.730,13.000 35.840,13.000 C35.840,13.000 5.884,13.000 5.884,13.000 Z" id="path-3" class="cls-5" fill-rule="evenodd"/>
    <path d="M20.943,41.420 C19.225,41.420 17.499,40.627 15.685,39.000 C15.685,39.000 5.906,39.000 5.906,39.000 C5.160,39.000 4.526,38.451 4.421,37.711 C4.421,37.711 3.567,31.711 3.567,31.711 C3.506,31.281 3.634,30.846 3.919,30.518 C4.204,30.188 4.618,30.000 5.052,30.000 C5.052,30.000 14.553,30.000 14.553,30.000 C15.728,27.911 18.095,26.051 20.943,26.051 C23.791,26.051 26.158,27.911 27.334,30.000 C27.334,30.000 36.985,30.000 36.985,30.000 C37.419,30.000 37.833,30.188 38.118,30.518 C38.403,30.846 38.531,31.281 38.470,31.711 C38.470,31.711 37.616,37.711 37.616,37.711 C37.511,38.451 36.877,39.000 36.131,39.000 C36.131,39.000 26.207,39.000 26.207,39.000 C25.220,39.897 23.276,41.420 20.943,41.420 ZM7.208,36.000 C7.208,36.000 16.274,36.000 16.274,36.000 C16.662,36.000 17.036,36.150 17.315,36.420 C18.710,37.766 19.897,38.420 20.943,38.420 C21.989,38.420 23.176,37.766 24.572,36.420 C24.852,36.150 25.225,36.000 25.613,36.000 C25.613,36.000 34.829,36.000 34.829,36.000 C34.829,36.000 35.256,33.000 35.256,33.000 C35.256,33.000 26.385,33.000 26.385,33.000 C25.759,33.000 25.199,32.611 24.980,32.025 C24.440,30.584 22.842,29.051 20.943,29.051 C19.044,29.051 17.446,30.584 16.907,32.025 C16.688,32.611 16.128,33.000 15.502,33.000 C15.502,33.000 6.781,33.000 6.781,33.000 C6.781,33.000 7.208,36.000 7.208,36.000 Z" id="path-4" class="cls-5" fill-rule="evenodd"/>
    <path d="M36.250,7.000 C36.250,7.000 3.250,7.000 3.250,7.000 C2.421,7.000 1.750,6.328 1.750,5.500 C1.750,4.672 2.421,4.000 3.250,4.000 C3.250,4.000 36.250,4.000 36.250,4.000 C37.079,4.000 37.750,4.672 37.750,5.500 C37.750,6.328 37.079,7.000 36.250,7.000 Z" id="path-5" class="cls-5" fill-rule="evenodd"/>
    <path d="M26.250,3.000 C26.250,3.000 13.250,3.000 13.250,3.000 C12.421,3.000 11.750,2.328 11.750,1.500 C11.750,0.672 12.421,-0.000 13.250,-0.000 C13.250,-0.000 26.250,-0.000 26.250,-0.000 C27.079,-0.000 27.750,0.672 27.750,1.500 C27.750,2.328 27.079,3.000 26.250,3.000 Z" id="path-6" class="cls-5" fill-rule="evenodd"/>
  </g>
</svg>
