<svg xmlns="http://www.w3.org/2000/svg" xmlns:xlink="http://www.w3.org/1999/xlink" preserveAspectRatio="xMidYMid" width="57" height="63" viewBox="0 0 57 63">
  <defs>
    <style>

      .cls-3 {
        fill: #e56a77;
      }

      .cls-4 {
        fill: #53ecf4;
      }

      .cls-5 {
        fill: #edc951;
      }

      .cls-9 {
        fill: #000000;
      }
    </style>
  </defs>
  <g id="group-43svg">
    <path d="M19.434,62.019 C22.103,60.584 25.162,59.594 28.409,59.594 C28.409,59.594 34.605,59.594 34.605,59.594 C37.852,59.594 40.910,60.584 43.580,62.019 C49.383,58.899 53.340,52.949 53.340,46.051 C53.340,46.051 56.387,22.448 56.387,22.448 C56.387,19.880 53.125,18.015 48.125,16.756 C48.125,16.756 48.125,19.663 48.125,19.663 C48.125,26.470 42.729,31.594 35.764,31.594 C35.764,31.594 27.250,31.594 27.250,31.594 C20.284,31.594 14.125,26.470 14.125,19.663 C14.125,19.663 14.125,16.756 14.125,16.756 C9.125,18.014 6.245,19.923 6.245,22.490 C6.245,22.490 9.559,46.051 9.559,46.051 C9.559,52.949 13.631,58.899 19.434,62.019 Z" id="path-1" class="cls-3" fill-rule="evenodd"/>
    <path d="M37.704,46.576 C37.704,50.056 34.883,52.877 31.403,52.877 C27.923,52.877 25.102,50.056 25.102,46.576 C25.102,43.096 27.923,40.275 31.403,40.275 C34.883,40.275 37.704,43.096 37.704,46.576 Z" id="path-2" class="cls-4" fill-rule="evenodd"/>
    <path d="M18.125,28.056 C18.125,28.056 18.125,2.194 18.125,2.194 C18.125,0.806 13.125,-0.886 13.125,0.502 C13.125,0.502 13.125,23.865 13.125,23.865 C14.125,25.726 16.125,27.191 18.125,28.056 Z" id="path-3" class="cls-5" fill-rule="evenodd"/>
    <path d="M22.539,28.594 C22.539,28.594 25.125,28.594 25.125,28.594 C25.125,28.594 25.125,8.283 25.125,8.283 C25.125,6.895 19.125,5.203 19.125,6.592 C19.125,6.592 19.125,28.626 19.125,28.626 C20.125,28.821 21.592,28.594 22.539,28.594 Z" id="path-4" class="cls-5" fill-rule="evenodd"/>
    <path d="M31.052,28.594 C31.683,28.594 33.125,28.872 33.125,28.783 C33.125,28.783 33.125,2.701 33.125,2.701 C33.125,1.313 27.125,3.005 27.125,4.392 C27.125,4.392 27.125,28.594 27.125,28.594 C27.125,28.594 31.052,28.594 31.052,28.594 Z" id="path-5" class="cls-5" fill-rule="evenodd"/>
    <path d="M40.125,23.932 C40.125,23.932 40.125,9.882 40.125,9.882 C40.125,8.494 35.125,6.802 35.125,8.190 C35.125,8.190 35.125,28.075 35.125,28.075 C37.125,27.223 38.125,25.774 40.125,23.932 Z" id="path-6" class="cls-5" fill-rule="evenodd"/>
    <path d="M38.580,61.269 C38.335,61.269 38.091,61.210 37.869,61.091 C34.701,59.387 32.075,58.594 29.605,58.594 C29.605,58.594 23.409,58.594 23.409,58.594 C20.939,58.594 18.313,59.387 15.144,61.091 C14.700,61.329 14.167,61.329 13.724,61.091 C7.156,57.559 3.222,51.186 3.184,44.029 C3.184,44.029 0.009,20.692 0.009,20.692 C-0.000,20.625 -0.005,20.558 -0.005,20.490 C-0.005,17.267 3.112,14.848 9.259,13.301 C9.707,13.189 10.182,13.288 10.547,13.573 C10.912,13.857 11.125,14.293 11.125,14.756 C11.125,14.756 11.125,17.662 11.125,17.662 C11.125,23.417 15.804,27.594 22.250,27.594 C22.250,27.594 30.764,27.594 30.764,27.594 C37.241,27.594 42.125,23.324 42.125,17.662 C42.125,17.662 42.125,14.756 42.125,14.756 C42.125,14.293 42.338,13.857 42.703,13.573 C43.068,13.289 43.542,13.190 43.991,13.301 C46.253,13.871 53.137,15.603 53.137,20.385 C53.137,20.455 53.132,20.524 53.122,20.593 C53.122,20.593 49.840,44.032 49.840,44.032 C49.801,51.185 45.864,57.557 39.290,61.091 C39.068,61.210 38.824,61.269 38.580,61.269 ZM23.409,55.594 C23.409,55.594 29.605,55.594 29.605,55.594 C32.385,55.594 35.246,56.381 38.553,58.062 C43.757,54.979 46.840,49.749 46.840,43.926 C46.840,43.856 46.845,43.787 46.855,43.718 C46.855,43.718 50.134,20.298 50.134,20.298 C50.060,18.992 48.304,17.753 45.125,16.739 C45.125,16.739 45.125,17.662 45.125,17.662 C45.125,25.035 38.951,30.594 30.764,30.594 C30.764,30.594 22.250,30.594 22.250,30.594 C14.198,30.594 8.125,25.035 8.125,17.662 C8.125,17.662 8.125,16.744 8.125,16.744 C4.946,17.775 3.074,19.096 2.998,20.407 C2.998,20.407 6.170,43.724 6.170,43.724 C6.179,43.790 6.184,43.858 6.184,43.926 C6.184,49.752 9.262,54.982 14.461,58.062 C17.768,56.381 20.628,55.594 23.409,55.594 Z" id="path-7" class="cls-9" fill-rule="evenodd"/>
    <path d="M26.403,52.377 C22.102,52.377 18.602,48.877 18.602,44.576 C18.602,40.274 22.102,36.775 26.403,36.775 C30.705,36.775 34.204,40.274 34.204,44.576 C34.204,48.877 30.705,52.377 26.403,52.377 ZM26.403,39.775 C23.756,39.775 21.602,41.929 21.602,44.576 C21.602,47.223 23.756,49.377 26.403,49.377 C29.050,49.377 31.204,47.223 31.204,44.576 C31.204,41.929 29.050,39.775 26.403,39.775 Z" id="path-8" class="cls-9" fill-rule="evenodd"/>
  </g>
</svg>
