<svg xmlns="http://www.w3.org/2000/svg" xmlns:xlink="http://www.w3.org/1999/xlink" preserveAspectRatio="xMidYMid" width="66" height="62" viewBox="0 0 66 62">
  <defs>
    <style>

      .cls-3 {
        fill: #ff917b;
      }

      .cls-4 {
        fill: #000000;
      }
    </style>
  </defs>
  <g id="group-64svg">
    <path d="M64.757,31.746 C69.066,26.240 59.262,23.088 59.262,23.088 C59.262,23.088 57.805,24.482 57.805,24.482 C58.329,23.353 58.765,22.197 59.098,21.065 C61.067,14.357 44.678,14.933 44.678,14.933 C44.678,14.933 44.625,15.039 44.625,15.039 C39.815,9.818 23.642,19.230 23.642,19.230 C25.136,26.627 32.154,29.484 37.929,28.370 C37.929,28.370 37.855,28.516 37.855,28.516 C37.855,28.516 37.759,30.729 44.678,33.027 C45.827,33.408 46.937,33.514 47.999,33.401 C47.554,33.627 47.498,34.459 50.863,37.345 C50.863,37.345 50.658,37.417 50.658,37.417 C47.719,40.484 50.995,44.100 51.107,44.219 C51.107,44.219 50.437,44.230 50.437,44.230 C50.437,44.230 50.437,45.779 50.437,45.779 C50.437,46.713 51.489,47.542 52.297,48.008 C52.420,48.079 52.619,48.156 52.763,48.232 C52.763,48.232 47.204,51.161 47.204,51.161 C45.999,51.793 46.443,53.613 47.803,53.637 C47.803,53.637 51.869,53.709 51.869,53.709 C51.869,53.709 50.762,60.059 50.762,60.059 C50.526,61.403 52.246,62.170 53.089,61.098 C53.089,61.098 60.574,51.576 60.574,51.576 C60.574,51.576 57.440,50.080 57.440,50.080 C58.188,50.310 58.961,50.517 59.732,50.684 C63.963,51.590 63.738,45.156 63.675,44.127 C68.039,43.209 64.351,36.159 63.050,33.915 C63.612,33.216 64.179,32.485 64.757,31.746 ZM48.551,33.323 C48.554,33.322 48.558,33.322 48.562,33.320 C48.562,33.320 48.559,33.324 48.559,33.324 C48.559,33.324 48.552,33.323 48.551,33.323 Z" id="path-1" class="cls-3" fill-rule="evenodd"/>
    <path d="M30.474,28.754 C24.917,28.754 18.648,25.481 17.172,18.172 C17.044,17.543 17.332,16.902 17.887,16.578 C18.307,16.334 28.239,10.598 35.178,10.598 C39.878,10.598 42.466,13.182 42.466,17.875 C42.466,25.018 36.433,28.754 30.474,28.754 ZM20.375,18.629 C21.947,23.863 26.699,25.754 30.474,25.754 C34.805,25.754 39.466,23.288 39.466,17.875 C39.466,14.877 38.184,13.598 35.178,13.598 C30.199,13.598 22.976,17.228 20.375,18.629 Z" id="path-2" class="cls-4" fill-rule="evenodd"/>
    <path d="M42.197,33.943 C41.198,33.943 40.195,33.779 39.206,33.451 C31.990,31.055 31.313,28.456 31.357,27.451 C31.393,26.624 32.087,25.996 32.921,26.017 C33.670,26.051 34.268,26.628 34.347,27.351 C34.450,27.569 35.292,28.989 40.151,30.604 C41.884,31.180 43.608,31.026 45.279,30.152 C48.361,28.538 51.258,24.413 52.658,19.643 C52.900,18.820 52.668,18.377 52.439,18.081 C50.735,15.886 43.736,15.291 39.731,15.432 C38.891,15.447 38.208,14.813 38.179,13.985 C38.150,13.157 38.798,12.463 39.625,12.433 C40.842,12.389 51.620,12.135 54.809,16.242 C55.746,17.449 55.998,18.918 55.537,20.488 C54.249,24.875 51.243,30.415 46.670,32.810 C45.230,33.563 43.718,33.943 42.197,33.943 Z" id="path-3" class="cls-4" fill-rule="evenodd"/>
    <path d="M50.450,39.974 C48.717,39.974 46.961,39.235 45.220,37.771 C41.807,34.902 40.817,33.386 41.439,31.978 C41.885,30.968 42.967,30.731 43.757,30.838 C44.578,30.947 45.155,31.701 45.045,32.522 C45.010,32.789 44.906,33.029 44.755,33.229 C45.160,33.689 45.879,34.406 47.150,35.476 C48.476,36.590 49.660,37.073 50.771,36.958 C53.199,36.704 55.630,33.592 58.205,30.297 C58.205,30.297 58.576,29.822 58.576,29.822 C59.592,28.523 59.350,27.730 59.270,27.470 C58.666,25.494 55.028,23.914 53.801,23.516 C53.014,23.260 52.581,22.415 52.836,21.628 C53.090,20.840 53.933,20.407 54.721,20.660 C55.357,20.864 60.964,22.768 62.137,26.587 C62.494,27.751 62.576,29.578 60.938,31.672 C60.938,31.672 60.568,32.144 60.568,32.144 C57.591,35.955 54.779,39.555 51.084,39.941 C50.873,39.964 50.662,39.974 50.450,39.974 Z" id="path-4" class="cls-4" fill-rule="evenodd"/>
    <path d="M57.937,44.375 C57.937,44.375 46.219,44.375 46.219,44.375 C45.817,44.375 45.433,44.215 45.151,43.929 C43.621,42.378 41.562,38.574 44.724,35.274 C45.297,34.675 46.247,34.655 46.845,35.229 C47.443,35.802 47.463,36.752 46.890,37.350 C45.414,38.891 46.290,40.553 46.909,41.375 C46.909,41.375 57.937,41.375 57.937,41.375 C58.492,41.375 59.198,41.292 59.410,40.897 C60.109,39.591 58.279,35.592 56.689,33.207 C56.230,32.518 56.416,31.586 57.105,31.127 C57.795,30.666 58.725,30.853 59.186,31.543 C59.985,32.742 63.882,38.898 62.055,42.312 C61.551,43.253 60.428,44.375 57.937,44.375 Z" id="path-5" class="cls-4" fill-rule="evenodd"/>
    <path d="M55.586,51.307 C55.249,51.307 54.885,51.269 54.493,51.185 C51.525,50.551 48.509,49.291 46.835,48.326 C45.676,47.657 44.437,46.375 44.437,44.779 C44.437,44.779 44.437,43.375 44.437,43.375 C44.437,42.547 45.109,41.875 45.937,41.875 C46.766,41.875 47.437,42.547 47.437,43.375 C47.437,43.375 47.437,44.779 47.437,44.779 C47.437,44.930 47.746,45.388 48.334,45.727 C49.757,46.548 52.487,47.688 55.122,48.252 C55.786,48.395 56.085,48.229 56.270,48.069 C57.185,47.272 57.434,44.719 57.319,43.160 C57.258,42.335 57.876,41.614 58.702,41.553 C59.527,41.492 60.247,42.106 60.310,42.932 C60.351,43.469 60.644,48.231 58.246,50.327 C57.697,50.807 56.827,51.307 55.586,51.307 Z" id="path-6" class="cls-4" fill-rule="evenodd"/>
    <path d="M47.078,62.106 C46.688,62.106 46.292,62.024 45.911,61.854 C44.713,61.319 44.061,60.093 44.287,58.801 C44.287,58.801 45.095,54.178 45.095,54.178 C45.095,54.178 42.788,54.137 42.788,54.137 C41.482,54.113 40.402,53.244 40.101,51.973 C39.800,50.701 40.375,49.439 41.532,48.833 C41.532,48.833 47.474,45.716 47.474,45.716 C48.210,45.332 49.114,45.614 49.499,46.348 C49.884,47.081 49.601,47.988 48.868,48.373 C48.868,48.373 43.572,51.150 43.572,51.150 C43.572,51.150 46.902,51.209 46.902,51.209 C47.340,51.217 47.753,51.416 48.032,51.755 C48.311,52.093 48.428,52.536 48.353,52.968 C48.353,52.968 47.370,58.587 47.370,58.587 C47.370,58.587 54.396,49.648 54.396,49.648 C54.907,48.998 55.852,48.884 56.502,49.396 C57.153,49.908 57.267,50.852 56.754,51.502 C56.754,51.502 49.270,61.023 49.270,61.023 C48.717,61.727 47.913,62.106 47.078,62.106 Z" id="path-7" class="cls-4" fill-rule="evenodd"/>
    <path d="M18.641,19.410 C18.374,19.410 18.105,19.340 17.861,19.190 C17.753,19.125 7.167,12.502 11.493,0.969 C11.784,0.193 12.650,-0.199 13.424,0.092 C14.199,0.382 14.592,1.247 14.301,2.022 C10.837,11.261 19.071,16.415 19.423,16.631 C20.130,17.061 20.354,17.984 19.922,18.691 C19.640,19.155 19.146,19.410 18.641,19.410 Z" id="path-8" class="cls-4" fill-rule="evenodd"/>
    <path d="M9.667,25.760 C6.847,25.760 3.695,24.899 0.554,22.340 C-0.088,21.816 -0.185,20.871 0.339,20.229 C0.862,19.587 1.807,19.490 2.449,20.014 C10.097,26.246 17.610,20.089 17.927,19.824 C18.561,19.292 19.508,19.374 20.041,20.010 C20.573,20.644 20.490,21.590 19.855,22.123 C19.790,22.177 15.420,25.760 9.667,25.760 Z" id="path-9" class="cls-4" fill-rule="evenodd"/>
    <path d="M35.001,18.786 C35.001,19.994 34.021,20.974 32.813,20.974 C31.604,20.974 30.625,19.994 30.625,18.786 C30.625,17.577 31.604,16.598 32.813,16.598 C34.021,16.598 35.001,17.577 35.001,18.786 Z" id="path-10" class="cls-4" fill-rule="evenodd"/>
  </g>
</svg>
