<svg xmlns="http://www.w3.org/2000/svg" xmlns:xlink="http://www.w3.org/1999/xlink" preserveAspectRatio="xMidYMid" width="65" height="64" viewBox="0 0 65 64">
  <defs>
    <style>

      .cls-3 {
        fill: #99746a;
      }

      .cls-4 {
        fill: #ff917b;
      }

      .cls-6 {
        fill: #000000;
      }
    </style>
  </defs>
  <g id="group-57svg">
    <path d="M15.581,53.065 C10.936,48.420 10.270,38.163 16.132,32.301 C16.132,32.301 31.836,16.597 31.836,16.597 C37.697,10.736 47.955,11.401 52.601,16.046 C57.246,20.692 57.911,30.949 52.050,36.811 C52.050,36.811 36.346,52.515 36.346,52.515 C30.483,58.376 20.227,57.711 15.581,53.065 Z" id="path-1" class="cls-3" fill-rule="evenodd"/>
    <path d="M59.801,8.158 C59.801,8.158 55.448,3.805 55.448,3.805 C54.560,2.916 52.903,3.825 53.087,5.067 C53.087,5.067 53.163,13.697 53.163,13.697 C53.247,14.265 53.656,14.749 54.224,14.833 C54.224,14.833 62.910,14.853 62.910,14.853 C64.152,15.037 65.042,13.399 64.154,12.511 C64.154,12.511 59.801,8.158 59.801,8.158 Z" id="path-2" class="cls-4" fill-rule="evenodd"/>
    <path d="M9.268,58.690 C9.268,58.690 13.621,63.044 13.621,63.044 C14.509,63.932 15.936,63.253 15.753,62.011 C15.753,62.011 15.561,53.496 15.561,53.496 C15.478,52.928 15.012,52.501 14.443,52.417 C14.443,52.417 5.958,52.196 5.958,52.196 C4.716,52.013 4.027,53.449 4.915,54.338 C4.915,54.338 9.268,58.690 9.268,58.690 Z" id="path-3" class="cls-4" fill-rule="evenodd"/>
    <path d="M22.570,56.229 C18.221,56.229 14.090,54.695 11.520,52.126 C6.356,46.962 5.472,35.840 12.071,29.241 C12.071,29.241 27.775,13.536 27.775,13.536 C30.777,10.535 34.981,8.882 39.611,8.882 C43.961,8.882 48.092,10.416 50.661,12.986 C55.825,18.150 56.710,29.271 50.110,35.871 C50.110,35.871 34.406,51.575 34.406,51.575 C31.404,54.577 27.200,56.229 22.570,56.229 ZM39.611,11.882 C35.782,11.882 32.332,13.223 29.896,15.658 C29.896,15.658 14.192,31.362 14.192,31.362 C8.877,36.678 9.545,45.908 13.642,50.005 C15.661,52.024 18.999,53.229 22.570,53.229 C26.399,53.229 29.850,51.889 32.285,49.454 C32.285,49.454 47.989,33.750 47.989,33.750 C53.305,28.434 52.637,19.204 48.540,15.107 C46.520,13.087 43.183,11.882 39.611,11.882 Z" id="path-4" class="cls-6" fill-rule="evenodd"/>
    <path d="M60.103,14.367 C60.103,14.367 60.103,14.367 60.103,14.367 C60.009,14.367 59.914,14.363 59.818,14.353 C59.818,14.353 51.004,14.317 51.004,14.317 C49.800,14.139 48.865,13.174 48.680,11.916 C48.680,11.916 48.663,11.710 48.663,11.710 C48.663,11.710 48.588,3.165 48.588,3.165 C48.507,2.389 48.748,1.632 49.275,1.020 C50.343,-0.216 52.389,-0.376 53.509,0.744 C53.509,0.744 62.215,9.450 62.215,9.450 C63.018,10.253 63.235,11.427 62.784,12.516 C62.318,13.641 61.266,14.367 60.103,14.367 ZM51.660,11.334 C51.660,11.334 59.875,11.353 59.875,11.353 C59.875,11.353 51.587,3.065 51.587,3.065 C51.587,3.065 51.660,11.334 51.660,11.334 Z" id="path-5" class="cls-6" fill-rule="evenodd"/>
    <path d="M11.554,62.948 C11.554,62.948 11.554,62.948 11.554,62.948 C10.812,62.948 10.104,62.648 9.560,62.104 C9.560,62.104 0.854,53.398 0.854,53.398 C0.042,52.586 -0.206,51.391 0.223,50.356 C0.686,49.240 1.800,48.557 3.072,48.699 C3.072,48.699 11.663,48.934 11.663,48.934 C12.908,49.117 13.865,50.058 14.045,51.276 C14.045,51.276 14.061,51.462 14.061,51.462 C14.061,51.462 14.251,59.898 14.251,59.898 C14.339,60.683 14.114,61.429 13.614,62.008 C13.099,62.605 12.348,62.948 11.554,62.948 ZM3.407,51.708 C3.407,51.708 11.242,59.543 11.242,59.543 C11.242,59.543 11.070,51.908 11.070,51.908 C11.070,51.908 3.407,51.708 3.407,51.708 Z" id="path-6" class="cls-6" fill-rule="evenodd"/>
    <path d="M29.773,47.164 C29.390,47.164 29.006,47.018 28.713,46.726 C28.127,46.141 28.127,45.190 28.712,44.604 C28.712,44.604 39.199,34.117 39.199,34.117 C47.924,25.392 43.021,19.978 42.971,19.925 C42.402,19.322 42.431,18.372 43.034,17.805 C43.638,17.237 44.586,17.264 45.154,17.868 C45.225,17.943 52.080,25.479 41.320,36.238 C41.320,36.238 30.835,46.725 30.835,46.725 C30.542,47.018 30.157,47.164 29.773,47.164 Z" id="path-7" class="cls-6" fill-rule="evenodd"/>
    <path d="M52.891,45.233 C52.251,45.233 51.658,44.822 51.458,44.179 C50.871,42.292 51.937,40.582 53.413,38.215 C54.451,36.551 55.743,34.479 57.069,31.563 C60.435,24.163 50.272,14.002 50.170,13.900 C49.580,13.318 49.574,12.368 50.156,11.779 C50.739,11.189 51.688,11.184 52.277,11.766 C52.759,12.241 64.022,23.520 59.800,32.805 C58.393,35.900 56.986,38.156 55.959,39.803 C54.945,41.429 54.144,42.713 54.323,43.287 C54.569,44.078 54.128,44.920 53.337,45.166 C53.188,45.212 53.038,45.233 52.891,45.233 Z" id="path-8" class="cls-6" fill-rule="evenodd"/>
  </g>
</svg>
