<svg xmlns="http://www.w3.org/2000/svg" xmlns:xlink="http://www.w3.org/1999/xlink" preserveAspectRatio="xMidYMid" width="56" height="64" viewBox="0 0 56 64">
  <defs>
    <style>

      .cls-3 {
        fill: #53ecf4;
      }

      .cls-4 {
        fill: #edc951;
      }

      .cls-5 {
        fill: #e56a77;
      }

      .cls-6 {
        fill: #000000;
      }
    </style>
  </defs>
  <g id="group-88svg">
    <path d="M53.000,33.000 C53.000,33.000 55.841,33.000 55.841,33.000 C55.841,27.000 47.875,27.746 47.875,27.746 C47.875,27.746 39.909,27.000 39.909,33.000 C39.909,33.000 43.000,33.000 43.000,33.000 C43.000,33.000 43.000,39.273 43.000,39.273 C43.000,39.273 40.000,40.460 40.000,40.460 C40.000,40.460 40.000,57.379 40.000,57.379 C40.000,58.502 40.858,59.000 41.981,59.000 C41.981,59.000 54.185,59.000 54.185,59.000 C55.309,59.000 56.000,58.502 56.000,57.379 C56.000,57.379 56.000,40.460 56.000,40.460 C56.000,40.460 53.000,39.273 53.000,39.273 C53.000,39.273 53.000,33.000 53.000,33.000 Z" id="path-1" class="cls-3" fill-rule="evenodd"/>
    <path d="M11.000,64.000 C11.000,64.000 17.000,64.000 17.000,64.000 C17.000,64.000 17.000,36.000 17.000,36.000 C17.000,36.000 11.000,36.000 11.000,36.000 C11.000,36.000 11.000,64.000 11.000,64.000 Z" id="path-2" class="cls-4" fill-rule="evenodd"/>
    <path d="M14.975,4.000 C14.975,4.000 4.000,4.000 4.000,4.000 C4.000,4.000 4.000,17.699 4.000,17.699 C4.000,17.699 14.000,27.590 14.000,27.590 C14.000,27.590 24.000,17.699 24.000,17.699 C24.000,17.699 24.000,4.000 24.000,4.000 C24.000,4.000 14.975,4.000 14.975,4.000 Z" id="path-3" class="cls-5" fill-rule="evenodd"/>
    <path d="M11.500,27.090 C11.119,27.090 10.737,26.945 10.445,26.656 C10.445,26.656 0.445,16.766 0.445,16.766 C0.160,16.483 -0.000,16.100 -0.000,15.699 C-0.000,15.699 -0.000,1.500 -0.000,1.500 C-0.000,0.672 0.672,-0.000 1.500,-0.000 C1.500,-0.000 21.500,-0.000 21.500,-0.000 C22.328,-0.000 23.000,0.672 23.000,1.500 C23.000,1.500 23.000,15.699 23.000,15.699 C23.000,16.100 22.840,16.483 22.555,16.766 C22.555,16.766 12.555,26.656 12.555,26.656 C12.263,26.945 11.881,27.090 11.500,27.090 ZM3.000,15.072 C3.000,15.072 11.500,23.479 11.500,23.479 C11.500,23.479 20.000,15.072 20.000,15.072 C20.000,15.072 20.000,3.000 20.000,3.000 C20.000,3.000 3.000,3.000 3.000,3.000 C3.000,3.000 3.000,15.072 3.000,15.072 Z" id="path-4" class="cls-6" fill-rule="evenodd"/>
    <path d="M51.186,59.000 C51.186,59.000 38.981,59.000 38.981,59.000 C37.141,59.000 35.000,57.418 35.000,55.379 C35.000,55.379 35.000,38.460 35.000,38.460 C35.000,37.844 35.376,37.291 35.948,37.064 C35.948,37.064 38.000,36.254 38.000,36.254 C38.000,36.254 38.000,32.000 38.000,32.000 C38.000,32.000 36.909,32.000 36.909,32.000 C36.081,32.000 35.409,31.328 35.409,30.500 C35.409,26.315 38.722,23.716 44.054,23.716 C44.430,23.716 44.717,23.730 44.875,23.741 C45.033,23.730 45.320,23.716 45.696,23.716 C50.911,23.716 54.194,26.203 54.336,30.226 C54.352,30.315 54.360,30.406 54.360,30.500 C54.360,31.328 53.689,32.000 52.860,32.000 C52.856,32.000 52.849,32.000 52.841,32.000 C52.841,32.000 52.000,32.000 52.000,32.000 C52.000,32.000 52.000,36.254 52.000,36.254 C52.000,36.254 54.052,37.064 54.052,37.064 C54.624,37.291 55.000,37.844 55.000,38.460 C55.000,38.460 55.000,55.379 55.000,55.379 C55.000,57.273 53.182,59.000 51.186,59.000 ZM38.000,39.480 C38.000,39.480 38.000,55.379 38.000,55.379 C38.039,55.582 38.583,56.000 38.981,56.000 C38.981,56.000 51.186,56.000 51.186,56.000 C51.560,56.000 52.000,55.590 52.000,55.379 C52.000,55.379 52.000,39.480 52.000,39.480 C52.000,39.480 49.948,38.668 49.948,38.668 C49.376,38.441 49.000,37.889 49.000,37.273 C49.000,37.273 49.000,30.500 49.000,30.500 C49.000,29.672 49.672,29.000 50.500,29.000 C50.500,29.000 51.045,29.000 51.045,29.000 C50.216,27.151 47.792,26.716 45.696,26.716 C45.299,26.716 45.041,26.736 45.012,26.739 C44.921,26.747 44.826,26.747 44.735,26.739 C44.709,26.736 44.451,26.716 44.054,26.716 C41.958,26.716 39.534,27.151 38.705,29.000 C38.705,29.000 39.500,29.000 39.500,29.000 C40.328,29.000 41.000,29.672 41.000,30.500 C41.000,30.500 41.000,37.273 41.000,37.273 C41.000,37.889 40.624,38.441 40.052,38.668 C40.052,38.668 38.000,39.480 38.000,39.480 Z" id="path-5" class="cls-6" fill-rule="evenodd"/>
    <path d="M11.500,27.090 C11.119,27.090 10.737,26.945 10.445,26.656 C10.445,26.656 0.445,16.766 0.445,16.766 C0.160,16.483 -0.000,16.100 -0.000,15.699 C-0.000,15.699 -0.000,1.500 -0.000,1.500 C-0.000,0.672 0.672,-0.000 1.500,-0.000 C1.500,-0.000 21.500,-0.000 21.500,-0.000 C22.328,-0.000 23.000,0.672 23.000,1.500 C23.000,1.500 23.000,15.699 23.000,15.699 C23.000,16.100 22.840,16.483 22.555,16.766 C22.555,16.766 12.555,26.656 12.555,26.656 C12.263,26.945 11.881,27.090 11.500,27.090 ZM3.000,15.072 C3.000,15.072 11.500,23.479 11.500,23.479 C11.500,23.479 20.000,15.072 20.000,15.072 C20.000,15.072 20.000,3.000 20.000,3.000 C20.000,3.000 3.000,3.000 3.000,3.000 C3.000,3.000 3.000,15.072 3.000,15.072 Z" id="path-6" class="cls-6" fill-rule="evenodd"/>
    <path d="M11.500,34.500 C10.672,34.500 10.000,33.828 10.000,33.000 C10.000,33.000 10.000,25.000 10.000,25.000 C10.000,24.172 10.672,23.500 11.500,23.500 C12.328,23.500 13.000,24.172 13.000,25.000 C13.000,25.000 13.000,33.000 13.000,33.000 C13.000,33.828 12.328,34.500 11.500,34.500 Z" id="path-7" class="cls-6" fill-rule="evenodd"/>
    <path d="M14.500,63.000 C14.500,63.000 8.500,63.000 8.500,63.000 C7.672,63.000 7.000,62.328 7.000,61.500 C7.000,61.500 7.000,33.500 7.000,33.500 C7.000,32.672 7.672,32.000 8.500,32.000 C8.500,32.000 14.500,32.000 14.500,32.000 C15.328,32.000 16.000,32.672 16.000,33.500 C16.000,33.500 16.000,61.500 16.000,61.500 C16.000,62.328 15.328,63.000 14.500,63.000 ZM10.000,60.000 C10.000,60.000 13.000,60.000 13.000,60.000 C13.000,60.000 13.000,35.000 13.000,35.000 C13.000,35.000 10.000,35.000 10.000,35.000 C10.000,35.000 10.000,60.000 10.000,60.000 Z" id="path-8" class="cls-6" fill-rule="evenodd"/>
    <path d="M15.500,22.500 C14.672,22.500 14.000,21.828 14.000,21.000 C14.000,21.000 14.000,2.000 14.000,2.000 C14.000,1.172 14.672,0.500 15.500,0.500 C16.328,0.500 17.000,1.172 17.000,2.000 C17.000,2.000 17.000,21.000 17.000,21.000 C17.000,21.828 16.328,22.500 15.500,22.500 Z" id="path-9" class="cls-6" fill-rule="evenodd"/>
    <path d="M8.500,22.500 C7.672,22.500 7.000,21.828 7.000,21.000 C7.000,21.000 7.000,3.000 7.000,3.000 C7.000,2.172 7.672,1.500 8.500,1.500 C9.328,1.500 10.000,2.172 10.000,3.000 C10.000,3.000 10.000,21.000 10.000,21.000 C10.000,21.828 9.328,22.500 8.500,22.500 Z" id="path-10" class="cls-6" fill-rule="evenodd"/>
  </g>
</svg>
