<svg xmlns="http://www.w3.org/2000/svg" xmlns:xlink="http://www.w3.org/1999/xlink" preserveAspectRatio="xMidYMid" width="67" height="53" viewBox="0 0 67 53">
  <defs>
    <style>

      .cls-3 {
        fill: #99746a;
      }

      .cls-4 {
        fill: #e56a77;
      }

      .cls-5 {
        fill: #ffffff;
      }

      .cls-7 {
        fill: #000000;
      }
    </style>
  </defs>
  <g id="group-56svg">
    <path d="M7.476,31.245 C7.476,31.245 1.681,52.031 18.578,52.031 C35.474,52.031 59.389,52.031 59.389,52.031 C59.389,52.031 75.426,55.150 59.389,28.923 C59.389,28.923 59.389,28.923 59.389,28.923 " id="path-1" class="cls-3" fill-rule="evenodd"/>
    <path d="M30.951,38.701 C30.951,38.701 -0.801,45.193 9.363,19.588 C19.527,-6.016 43.644,8.729 43.644,8.729 C43.644,8.729 69.993,29.977 53.922,35.287 C47.152,37.524 30.951,38.701 30.951,38.701 Z" id="path-2" class="cls-4" fill-rule="evenodd"/>
    <path d="M30.085,31.601 C30.085,31.601 10.958,35.512 17.080,20.086 C23.204,4.661 37.732,13.545 37.732,13.545 C37.732,13.545 53.606,26.345 43.924,29.544 C39.846,30.892 30.085,31.601 30.085,31.601 Z" id="path-3" class="cls-5" fill-rule="evenodd"/>
    <path d="M29.985,26.367 C29.985,26.367 23.190,27.756 25.365,22.277 C27.540,16.798 32.701,19.953 32.701,19.953 C32.701,19.953 38.339,24.500 34.900,25.636 C33.452,26.115 29.985,26.367 29.985,26.367 Z" id="path-4" class="cls-4" fill-rule="evenodd"/>
    <path d="M20.279,30.543 C15.627,30.543 12.282,29.237 10.605,26.768 C8.938,24.312 8.965,20.869 10.686,16.533 C13.978,8.240 19.614,6.499 23.761,6.499 C28.933,6.499 33.330,9.152 33.515,9.265 C33.570,9.299 33.623,9.336 33.674,9.377 C35.486,10.838 44.476,18.408 43.474,23.919 C43.235,25.230 42.334,26.997 39.394,27.968 C35.355,29.303 26.354,30.010 25.285,30.090 C24.809,30.180 22.747,30.543 20.279,30.543 ZM23.761,9.499 C19.080,9.499 15.619,12.238 13.475,17.640 C12.143,20.996 12.012,23.500 13.087,25.083 C14.467,27.116 17.760,27.543 20.279,27.543 C22.739,27.543 24.765,27.135 24.785,27.130 C24.848,27.118 24.913,27.109 24.977,27.104 C25.073,27.097 34.599,26.393 38.453,25.120 C40.318,24.503 40.472,23.660 40.522,23.383 C41.024,20.618 35.797,14.964 31.876,11.782 C31.322,11.463 27.738,9.499 23.761,9.499 Z" id="path-5" class="cls-7" fill-rule="evenodd"/>
    <path d="M23.278,25.024 C20.767,25.024 19.588,24.064 19.041,23.259 C18.258,22.105 18.234,20.580 18.971,18.724 C20.413,15.091 23.063,14.549 24.515,14.549 C26.585,14.549 28.295,15.558 28.483,15.673 C28.539,15.707 28.592,15.745 28.643,15.786 C29.936,16.828 32.898,19.510 32.468,21.877 C32.360,22.469 31.945,23.540 30.371,24.060 C28.878,24.554 25.827,24.807 25.181,24.856 C24.907,24.906 24.164,25.024 23.278,25.024 ZM24.515,17.549 C23.721,17.549 22.571,17.786 21.759,19.830 C21.373,20.804 21.384,21.369 21.523,21.574 C21.664,21.782 22.208,22.024 23.278,22.024 C24.039,22.024 24.682,21.897 24.688,21.896 C24.748,21.884 24.814,21.875 24.876,21.871 C26.146,21.778 28.505,21.518 29.430,21.212 C29.444,21.207 29.457,21.203 29.470,21.198 C29.235,20.547 28.073,19.203 26.849,18.194 C26.582,18.049 25.582,17.549 24.515,17.549 Z" id="path-6" class="cls-7" fill-rule="evenodd"/>
    <path d="M17.973,37.935 C10.593,37.935 5.323,35.919 2.732,32.103 C0.161,28.314 0.240,22.909 2.969,16.035 C8.228,2.786 17.174,0.004 23.753,0.004 C32.061,0.004 39.130,4.268 39.426,4.450 C39.482,4.483 39.535,4.521 39.585,4.562 C41.383,6.011 57.096,18.973 55.500,27.754 C54.995,30.535 52.940,32.539 49.393,33.712 C42.720,35.916 27.616,37.082 26.152,37.190 C25.521,37.312 22.104,37.935 17.973,37.935 ZM23.753,3.004 C15.536,3.004 9.481,7.761 5.757,17.142 C3.417,23.036 3.235,27.502 5.214,30.418 C7.750,34.152 13.552,34.935 17.973,34.935 C22.138,34.935 25.616,34.238 25.651,34.231 C25.714,34.219 25.778,34.210 25.842,34.205 C26.002,34.193 41.937,33.016 48.451,30.863 C50.910,30.051 52.250,28.858 52.549,27.218 C53.628,21.281 42.339,10.655 37.786,6.964 C37.024,6.521 30.761,3.004 23.753,3.004 Z" id="path-7" class="cls-7" fill-rule="evenodd"/>
    <path d="M55.892,50.156 C55.134,50.156 54.537,50.077 54.258,50.031 C54.258,50.031 13.578,50.031 13.578,50.031 C8.764,50.031 5.147,48.478 2.831,45.417 C-2.088,38.919 0.902,28.047 1.032,27.588 C1.257,26.790 2.086,26.330 2.881,26.552 C3.679,26.776 4.143,27.604 3.919,28.401 C3.892,28.500 1.206,38.309 5.227,43.612 C6.947,45.881 9.756,47.031 13.578,47.031 C13.578,47.031 54.389,47.031 54.389,47.031 C54.489,47.031 54.588,47.041 54.686,47.060 C54.714,47.066 58.029,47.685 59.362,45.766 C60.480,44.154 61.154,39.488 53.109,26.331 C52.677,25.623 52.899,24.700 53.606,24.268 C54.314,23.835 55.237,24.058 55.668,24.765 C62.588,36.082 64.598,43.517 61.813,47.494 C60.246,49.733 57.639,50.156 55.892,50.156 Z" id="path-8" class="cls-7" fill-rule="evenodd"/>
  </g>
</svg>
