<?xml version="1.0" encoding="utf-8"?>
<!-- Generator: Adobe Illustrator 16.0.0, SVG Export Plug-In . SVG Version: 6.00 Build 0)  -->
<!DOCTYPE svg PUBLIC "-//W3C//DTD SVG 1.1//EN" "http://www.w3.org/Graphics/SVG/1.1/DTD/svg11.dtd">
<svg version="1.1" id="swiss_cheese" xmlns="http://www.w3.org/2000/svg" xmlns:xlink="http://www.w3.org/1999/xlink" x="0px"
	 y="0px" width="221px" height="210px" viewBox="0 0 221 210" enable-background="new 0 0 221 210" xml:space="preserve">
<g id="cheese_group">
	<path fill="#FFB022" d="M21.522,196.477h29.049c1.904-8.097,9.524-14.286,18.571-14.286c9.047,0,16.19,6.189,18.571,14.286h114.764
		c2.854,0,4.762-1.907,4.762-4.762v-67.143c-8.097-1.906-14.286-9.523-14.286-18.573c0-9.047,6.189-16.19,14.286-18.571V72.666
		h-94.286c-2.857,2.857-6.668,4.762-10.477,4.762s-8.096-1.904-10.477-4.762H16.761v57.143c10.478,0,19.048,8.571,19.048,19.048
		c0,10.478-8.57,19.048-19.048,19.048v23.811C16.761,194.569,18.665,196.477,21.522,196.477"/>
	<path fill="#FFCB5B" d="M146.287,15.522L35.334,63.142h59.047c1.905,0,3.332,0.953,4.286,2.381c1.428,2.857,6.189,2.857,8.096,0
		c0.951-1.428,2.381-2.381,4.285-2.381h96.19C203.905,36.951,178.193,15.999,146.287,15.522"/>
	<path fill="#014463" d="M212.001,96.478c2.855,0,4.762-1.909,4.762-4.762v-23.81C216.763,33.614,184.857,6,145.334,6
		c-0.475,0-1.428,0-1.907,0.472L10.095,63.616c-1.904,0.479-2.858,2.381-2.858,4.29v67.619c0,1.428,0.954,2.855,1.904,3.809
		c1.43,0.953,2.858,0.953,4.286,0.475c6.668-2.382,12.858,2.859,12.858,9.049c0,6.19-6.189,11.431-12.858,9.05
		c-1.428-0.479-2.855-0.479-4.286,0.475c-1.428,0.953-1.904,2.381-1.904,3.809v29.525c0,8.096,6.19,14.285,14.286,14.285h33.334
		c2.857,0,4.762-1.906,4.762-4.762c0-5.236,4.286-9.523,9.524-9.523c5.238,0,9.523,4.287,9.523,9.523
		c0,2.855,1.904,4.762,4.762,4.762h119.049c8.096,0,14.285-6.189,14.285-14.285v-71.43c0-2.855-1.906-4.762-4.762-4.762
		c-5.236,0-9.523-4.288-9.523-9.524S206.765,96.478,212.001,96.478 M146.287,15.524c31.906,0.472,57.618,21.429,60.478,47.619
		h-96.192c-1.907,0-3.334,0.951-4.288,2.381c-1.428,2.853-6.189,2.853-8.094,0c-0.477-1.43-2.381-2.381-3.811-2.381H35.332
		L146.287,15.524z M207.239,124.572v67.143c0,2.854-1.907,4.762-4.762,4.762H87.713c-1.904-8.097-9.524-14.286-18.571-14.286
		c-9.047,0-16.19,6.189-18.571,14.286H21.522c-2.857,0-4.762-1.907-4.762-4.762v-23.811c10.478,0,19.048-8.57,19.048-19.048
		c0-10.477-8.57-19.048-19.048-19.048V72.668h75.238c2.857,2.853,6.668,4.762,10.477,4.762s8.096-1.909,10.477-4.762h94.286v14.758
		c-8.097,1.909-14.286,9.524-14.286,18.573C192.953,115.049,199.143,122.191,207.239,124.572"/>
	<path fill="#F9FF93" d="M135.81,91.713c10.52,0,19.048,8.529,19.048,19.047c0,10.52-8.528,19.048-19.048,19.048
		c-10.519,0-19.048-8.528-19.048-19.048C116.762,100.242,125.291,91.713,135.81,91.713"/>
	<path fill="#EF770A" d="M121.523,115.523c0-10.478,8.571-19.048,19.049-19.048c3.809,0,7.617,1.428,10.951,3.334
		c-3.334-4.762-9.045-8.096-15.714-8.096c-10.478,0-19.048,8.57-19.048,19.047c0,6.669,3.335,12.38,8.097,15.714
		C122.951,123.141,121.523,119.332,121.523,115.523"/>
	<path fill="#F9FF93" d="M59.618,101.237c5.257,0,9.524,4.267,9.524,9.523c0,5.255-4.267,9.524-9.524,9.524
		c-5.257,0-9.523-4.27-9.523-9.524C50.095,105.504,54.361,101.237,59.618,101.237"/>
	<path fill="#F9FF93" d="M178.668,163.143c5.254,0,9.523,4.27,9.523,9.524s-4.27,9.523-9.523,9.523
		c-5.256,0-9.524-4.269-9.524-9.523S173.412,163.143,178.668,163.143"/>
	<path fill="#F19920" d="M107.238,148.856c5.255,0,9.523,4.27,9.523,9.524s-4.269,9.523-9.523,9.523
		c-5.257,0-9.524-4.269-9.524-9.523S101.981,148.856,107.238,148.856"/>
	<path fill="#F9FF93" d="M107.238,148.856c5.255,0,9.523,4.27,9.523,9.524s-4.269,9.523-9.523,9.523
		c-5.257,0-9.524-4.269-9.524-9.523S101.981,148.856,107.238,148.856"/>
	<path fill="#EF770A" d="M102.476,163.143c0-5.236,4.285-9.523,9.524-9.523c1.428,0,2.855,0.474,3.809,0.953
		c-1.428-3.334-4.762-5.716-8.57-5.716c-5.239,0-9.524,4.288-9.524,9.524c0,3.809,2.381,7.143,5.716,8.57
		C102.953,165.998,102.476,164.57,102.476,163.143"/>
	<path fill="#EF770A" d="M173.905,177.429c0-5.236,4.288-9.524,9.524-9.524c1.428,0,2.855,0.475,3.809,0.953
		c-1.428-3.334-4.762-5.715-8.57-5.715c-5.236,0-9.524,4.288-9.524,9.524c0,3.809,2.381,7.143,5.715,8.57
		C174.38,180.284,173.905,178.856,173.905,177.429"/>
	<path fill="#EF770A" d="M54.856,115.523c0-5.236,4.285-9.524,9.524-9.524c1.428,0,2.858,0.475,3.809,0.953
		c-1.428-3.334-4.762-5.715-8.571-5.715c-5.238,0-9.523,4.285-9.523,9.523c0,3.809,2.381,7.144,5.715,8.571
		C55.333,118.379,54.856,116.951,54.856,115.523"/>
	<path fill="#F9FF93" d="M107.238,44.094c5.255,0,9.523,2.127,9.523,4.762c0,2.635-4.269,4.762-9.523,4.762
		c-5.257,0-9.524-2.127-9.524-4.762C97.714,46.221,101.981,44.094,107.238,44.094"/>
	<path fill="#EF770A" d="M101.522,50.762c0-2.862,4.286-4.762,9.524-4.762c1.428,0,3.334,0,4.287,0.477
		c-0.953-1.43-4.287-2.381-8.096-2.381c-5.239,0-9.524,1.905-9.524,4.762c0,1.904,1.904,3.332,5.236,4.285
		C102,52.19,101.522,51.711,101.522,50.762"/>
	<path fill="#F9FF93" d="M154.857,34.57c7.892,0,14.286,3.199,14.286,7.143c0,3.943-6.395,7.143-14.286,7.143
		s-14.285-3.199-14.285-7.143C140.572,37.769,146.966,34.57,154.857,34.57"/>
	<path fill="#EF770A" d="M145.334,46.475c0-3.809,6.189-7.143,14.285-7.143c3.809,0,6.669,0.477,9.524,1.904
		c-0.475-3.809-6.669-6.666-14.286-6.666c-8.096,0-14.285,3.334-14.285,7.143c0,1.904,1.906,3.809,4.762,5.238V46.475z"/>
</g>
</svg>
