<?xml version="1.0" encoding="utf-8"?>
<!-- Generator: Adobe Illustrator 16.0.0, SVG Export Plug-In . SVG Version: 6.00 Build 0)  -->
<!DOCTYPE svg PUBLIC "-//W3C//DTD SVG 1.1//EN" "http://www.w3.org/Graphics/SVG/1.1/DTD/svg11.dtd">
<svg version="1.1" id="noodles" xmlns="http://www.w3.org/2000/svg" xmlns:xlink="http://www.w3.org/1999/xlink" x="0px" y="0px"
	 width="271px" height="310px" viewBox="0 0 271 310" enable-background="new 0 0 271 310" xml:space="preserve">
<g id="noodle_parts">
	<path fill="#FFE37B" d="M162.457,133.545c-3.408-26.59-26.59-47.727-53.863-47.727c-27.272,0-50.454,21.137-53.863,47.727H162.457z
		"/>
	<path fill="#004463" d="M108.594,72.182c-37.5,0-68.182,30.682-68.182,68.182c0,4.091,2.727,6.818,6.818,6.818h122.725
		c4.095,0,6.818-2.727,6.818-6.818C176.773,102.864,146.091,72.182,108.594,72.182 M97.002,133.545
		c2.048-4.091,6.818-6.818,11.592-6.818c4.771,0,9.545,2.727,11.589,6.818H97.002z M135.185,133.545
		c-2.727-11.592-13.636-20.455-26.59-20.455c-12.954,0-23.181,8.862-26.59,20.455h-6.818c3.409-15.68,17.045-27.273,33.408-27.273
		s30,11.593,33.409,27.273H135.185z M155.639,133.545c-3.408-23.181-23.181-40.909-47.044-40.909s-43.636,17.728-47.044,40.909
		h-6.818c3.409-26.59,26.59-47.727,53.863-47.727c27.273,0,50.455,21.137,53.863,47.727H155.639z"/>
	<path fill="#ECEFF9" d="M47.913,140.364l17.728,143.861c0.683,3.409,3.409,6.139,6.818,6.139h126.132
		c3.41,0,6.14-2.729,6.818-6.139l18.411-143.861H47.913z"/>
	<path fill="#014463" d="M198.592,304H73.142c-10.227,0-19.093-7.497-20.454-17.725L33.594,134.228c0-2.047,0.683-4.092,1.365-5.457
		c1.361-1.362,3.409-2.044,5.453-2.044h190.913c2.044,0,4.088,0.682,4.767,2.044c1.365,1.365,2.051,3.409,1.365,5.457
		l-19.09,151.362C217.688,296.503,208.819,304,198.592,304 M47.913,140.364l17.728,143.861c0.683,3.409,3.409,6.139,6.818,6.139
		h126.132c3.41,0,6.14-2.729,6.818-6.139l18.411-143.861H47.913z"/>
	<path fill="#014463" d="M258.598,188.091c-2.051,0-4.773-1.365-6.139-3.409l-27.273-47.727c-2.044-3.409-0.679-7.5,2.73-9.545
		c3.409-2.047,7.497-0.682,9.541,2.727l27.273,47.727c2.044,3.409,0.686,7.498-2.724,9.549
		C260.642,188.091,259.956,188.091,258.598,188.091"/>
	<path fill="#014463" d="M13.14,188.091c-1.365,0-2.044,0-3.409-0.679c-3.409-2.051-4.091-6.14-2.727-9.549l27.273-47.727
		c2.044-3.409,6.136-4.091,9.545-2.727c3.409,2.044,4.091,6.136,2.727,9.545l-27.273,47.727
		C17.914,186.726,15.184,188.091,13.14,188.091"/>
	<path fill="#F04D4E" d="M135.867,215.363c7.527,0,13.64,6.113,13.64,13.637s-6.112,13.637-13.64,13.637S122.23,236.523,122.23,229
		S128.34,215.363,135.867,215.363"/>
	<path fill="#004463" d="M135.867,256.272c-15.001,0-27.273-12.271-27.273-27.272s12.271-27.272,27.273-27.272
		c14.998,0,27.275,12.271,27.275,27.272S150.865,256.272,135.867,256.272 M135.867,215.363c-7.501,0-13.637,6.14-13.637,13.637
		s6.136,13.637,13.637,13.637c7.5,0,13.64-6.14,13.64-13.637S143.367,215.363,135.867,215.363"/>
	<path fill="#014463" d="M190.416,235.818h-13.637c-4.095,0-6.818-2.73-6.818-6.818s2.724-6.818,6.818-6.818h13.637
		c4.088,0,6.818,2.73,6.818,6.818S194.504,235.818,190.416,235.818"/>
	<path fill="#014463" d="M94.958,235.818H81.322c-4.092,0-6.818-2.73-6.818-6.818s2.727-6.818,6.818-6.818h13.636
		c4.092,0,6.818,2.73,6.818,6.818S99.05,235.818,94.958,235.818"/>
	<path fill="#84A1C1" d="M223.821,140.364h-15.681H47.913l2.044,15.68l17.729,24.55c6.135,8.862,17.045,14.315,27.955,14.315h94.769
		c6.14,0,10.913,4.774,10.228,10.906l-8.862,72.276c-0.68,3.409-3.409,6.133-6.818,6.133H66.32v0.686
		c0.683,3.409,3.409,6.133,6.818,6.133h126.14c3.409,0,6.132-2.724,6.818-6.133L223.821,140.364z"/>
	<path fill="#ECEFF9" d="M53.366,140.364l18.411,25.228c4.088,5.453,10.227,8.863,16.363,8.863h94.772
		c6.818,0,12.957-3.41,16.366-8.863l18.403-25.228H53.366z"/>
	<path fill="#014463" d="M182.912,188.091h-94.09c-10.91,0-21.137-5.453-27.955-14.315l-25.911-36.138
		c-1.362-2.047-1.362-4.774-0.679-6.818c0.679-2.047,3.409-4.091,6.136-4.091h190.906c2.73,0,4.773,1.365,6.139,3.409
		c1.365,2.044,0.68,4.774-0.679,6.818l-25.915,36.821C204.731,182.638,194.504,188.091,182.912,188.091 M53.366,140.364
		l18.411,25.228c4.088,5.453,10.227,8.863,16.363,8.863h94.772c6.818,0,12.957-3.41,16.366-8.863l18.403-25.228H53.366z"/>
	<polygon fill="#FFFFFF" points="58.823,147.182 212.914,147.182 218.367,140.364 53.37,140.364 	"/>
	<path fill="#014463" d="M129.049,126.728L115.413,10.136C114.73,6.727,111.321,4,107.912,4c-3.409,0.683-6.136,4.092-6.136,7.5
		l13.636,115.227H129.049z"/>
	<path fill="#014463" d="M86.096,126.728h14.319L67.686,22.41c-1.362-3.409-4.771-5.456-8.862-4.774
		c-3.409,1.365-5.454,5.454-4.774,8.862L86.096,126.728z"/>
	<path fill="#FFE37B" d="M217.003,126.728C213.594,100.137,190.409,79,163.137,79c-27.27,0-50.451,21.137-53.86,47.728H217.003z"/>
	<path fill="#004463" d="M163.137,65.364c-37.497,0-68.179,30.682-68.179,68.182c0,4.092,2.727,6.818,6.818,6.818H224.5
		c4.095,0,6.818-2.727,6.818-6.818C231.318,96.045,200.637,65.364,163.137,65.364 M151.551,126.728
		c2.044-4.092,6.818-6.818,11.586-6.818c4.773,0,9.548,2.727,11.592,6.818H151.551z M189.73,126.728
		c-2.73-11.593-13.637-20.455-26.594-20.455c-12.951,0-23.178,8.862-26.587,20.455h-6.818c3.409-15.681,17.046-27.273,33.405-27.273
		c16.366,0,30.002,11.592,33.412,27.273H189.73z M210.185,126.728c-3.409-23.182-23.185-40.909-47.048-40.909
		s-43.633,17.728-47.042,40.909h-6.818c3.409-26.59,26.59-47.728,53.86-47.728c27.272,0,50.457,21.137,53.866,47.728H210.185z"/>
</g>
</svg>
