<?xml version="1.0" encoding="utf-8"?>
<!-- Generator: Adobe Illustrator 16.0.0, SVG Export Plug-In . SVG Version: 6.00 Build 0)  -->
<!DOCTYPE svg PUBLIC "-//W3C//DTD SVG 1.1//EN" "http://www.w3.org/Graphics/SVG/1.1/DTD/svg11.dtd">
<svg version="1.1" id="coffee" xmlns="http://www.w3.org/2000/svg" xmlns:xlink="http://www.w3.org/1999/xlink" x="0px" y="0px"
	 width="183px" height="231px" viewBox="0 0 183 231" enable-background="new 0 0 183 231" xml:space="preserve">
<g id="parts">
	<defs>
		<rect id="SVGID_1_" x="-59" y="-34" width="300" height="300"/>
	</defs>
	<clipPath id="SVGID_2_">
		<use xlink:href="#SVGID_1_"  overflow="visible"/>
	</clipPath>
	<path clip-path="url(#SVGID_2_)" fill="#ECEFF9" d="M41,191h100V76H16c0.5,4.5,3,8.999,7,11.499L29,91c7.5,4.5,12,12.5,12,21.499
		V191z"/>
	<rect x="111" y="76" clip-path="url(#SVGID_2_)" fill="#C2DDF2" width="30" height="60"/>
	<path clip-path="url(#SVGID_2_)" fill="#FFFFFF" d="M36,97.499c3,4.5,5,9.5,5,15V151h5V76H36V97.499z"/>
	<path clip-path="url(#SVGID_2_)" fill="#014463" d="M91,36c-8.501,0-15-6.499-15-15S82.499,6,91,6s15,6.499,15,15S99.501,36,91,36
		 M91,16c-3,0-5,2-5,5s2,5,5,5c2.998,0,5-2,5-5S93.998,16,91,16"/>
	<linearGradient id="SVGID_3_" gradientUnits="userSpaceOnUse" x1="86" y1="106" x2="96" y2="106">
		<stop  offset="0.1478" style="stop-color:#4D4D4D"/>
		<stop  offset="0.1908" style="stop-color:#545454"/>
		<stop  offset="0.2539" style="stop-color:#686868"/>
		<stop  offset="0.3294" style="stop-color:#888888"/>
		<stop  offset="0.4145" style="stop-color:#B5B5B5"/>
		<stop  offset="0.5066" style="stop-color:#EEEEEE"/>
		<stop  offset="0.532" style="stop-color:#FFFFFF"/>
		<stop  offset="1" style="stop-color:#000000"/>
	</linearGradient>
	<rect x="86" y="76" clip-path="url(#SVGID_2_)" fill="url(#SVGID_3_)" width="10" height="60"/>
	<path clip-path="url(#SVGID_2_)" fill="#D5E3EF" d="M141,61c0-3-2.002-5-5-5H46c-3,0-5,2-5,5v5h100V61z"/>
	<path clip-path="url(#SVGID_2_)" fill="#014463" d="M91,51c-3,0-5-2-5-5V31c0-3,2-5,5-5c2.998,0,5,2,5,5v15C96,49,93.998,51,91,51"
		/>
	<path clip-path="url(#SVGID_2_)" fill="#D5E3EF" d="M146,201H36v10c0,2.998,2,5,5,5h100c2.998,0,5-2.002,5-5V201z"/>
	<path clip-path="url(#SVGID_2_)" fill="#A35425" d="M41,150.502V191h100v-47.5c-6.001-5-13.999-7.5-22.5-7.5
		c-8.999,0-17.5,2.998-23.999,8.999C86,152.001,74.999,156,63.5,156C55.5,156,47.499,153.998,41,150.502"/>
	<path clip-path="url(#SVGID_2_)" fill="#B06328" d="M44.501,141c11.001,6.499,27,6.499,38,0
		C71.5,134.501,55.502,134.501,44.501,141"/>
	<path clip-path="url(#SVGID_2_)" fill="#014463" d="M63.5,156c-11.499,0-22.5-3.999-30.999-11.001C31.5,143.998,31,142.499,31,141
		s0.5-2.998,1.501-3.999C41,129.999,51.5,126,63.5,126c12.002,0,22.5,3.999,31.001,11.001C95.502,138.002,96,139.501,96,141
		s-0.498,2.998-1.499,3.999C86,152.001,75.001,156,63.5,156 M44.501,141c11.001,6.499,27,6.499,38,0
		C71.5,134.501,55.502,134.501,44.501,141"/>
	<path clip-path="url(#SVGID_2_)" fill="#ECF0F9" d="M46,66h-5v-5c0-3,2-5,5-5V66z"/>
	<path clip-path="url(#SVGID_2_)" fill="#A3C7E5" d="M111,66h30v-5c0-3-2.002-5-5-5h-15C115.502,56,111,60.5,111,66"/>
	<path clip-path="url(#SVGID_2_)" fill="#752F10" d="M118.5,136c-2.5,0-5,0.498-7.5,0.498V171H96v-27.5l-1.499,1.499
		c-2.5,2.002-5.5,3.999-8.501,5.503V171H56c-3,0-5,2.002-5,5s2,5,5,5h55v10h30v-47.5C134.999,138.5,127.001,136,118.5,136z"/>
	<path clip-path="url(#SVGID_2_)" fill="#A6CAE2" d="M116,201c-2.998,0-5,2.002-5,5s-2.002,5-5,5H56H36c0,2.998,2,5,5,5h75h25
		c2.998,0,5-2.002,5-5v-10H116z"/>
	<path clip-path="url(#SVGID_2_)" fill="#014463" d="M161,66h-5c0-3-2.002-5-5-5c0-8.501-6.499-15-15-15H46c-8.501,0-15,6.499-15,15
		v5H11c-3,0-5,2-5,5v3.501C6,83,10.5,91.5,18,96l5.5,3.501c4.5,2.5,7.5,7.5,7.5,12.998V191c-3,0-5,2.002-5,5v15
		c0,8.501,6.499,15,15,15h100c8.501,0,15-6.499,15-15v-10h5c8.501,0,15-6.499,15-15V81C176,72.499,169.501,66,161,66 M41,61
		c0-3,2-5,5-5h90c2.998,0,5,2,5,5v5H41V61z M29,91l-5.5-3.501c-4.5-2.5-7-7-7.5-11.499h20h105v55.498
		c-6.499-3.496-14.502-5.498-22.5-5.498c-11.499,0-22.5,3.999-31.001,11.001C81,142.499,72.499,146,63.5,146
		c-8.501,0-16.499-2.5-22.5-7.5v-26.499C41,103.5,36.5,95.5,29,91 M41,150.502C47.499,153.998,55.5,156,63.5,156
		c11.499,0,22.5-3.999,31.001-11.001c6.499-5.498,15-8.999,23.999-8.999c8.501,0,16.499,2.5,22.5,7.5V191H41V150.502z M146,211
		c0,2.998-2.002,5-5,5H41c-3,0-5-2.002-5-5v-10h110V211z M166,186c0,2.998-2.002,5-5,5h-10V81c2.998,0,5-2,5-5h5c2.998,0,5,2,5,5
		V186z"/>
	<path clip-path="url(#SVGID_2_)" fill="#443008" d="M91,134.375c-26.5-17.167-50.063-2.938-50.063-2.938l0.125,19.25
		c11.375,5.5,18.938,5.188,18.938,5.188c21.5,1.875,36-12.041,36-12.041c24.5-17.667,45-0.334,45-0.334l0.063-11.938
		C113.875,117.438,91,134.375,91,134.375z M44.501,141c11.001-6.499,26.561-6.624,37.562-0.125
		C71.062,147.374,55.502,147.499,44.501,141z"/>
</g>
</svg>
