<?xml version="1.0" encoding="utf-8"?>
<!-- Generator: Adobe Illustrator 16.0.0, SVG Export Plug-In . SVG Version: 6.00 Build 0)  -->
<!DOCTYPE svg PUBLIC "-//W3C//DTD SVG 1.1//EN" "http://www.w3.org/Graphics/SVG/1.1/DTD/svg11.dtd">
<svg version="1.1" id="fish" xmlns="http://www.w3.org/2000/svg" xmlns:xlink="http://www.w3.org/1999/xlink" x="0px" y="0px"
	 width="308px" height="309px" viewBox="0 0 308 309" enable-background="new 0 0 308 309" xml:space="preserve">
<g id="parts_group">
	<path fill="#D5E3EF" d="M212.212,253.896c7.494-18.402,21.81-33.397,40.891-40.212l16.359-6.815
		c10.901-4.087,18.396-13.631,20.445-24.532h-44.983c-15.674,0-29.305-11.587-32.033-27.261
		c-4.086-23.171-12.944-45.663-25.896-64.744c-1.364-1.364-1.364-3.407-1.364-5.46c0.686-2.043,1.364-3.408,2.729-4.08
		c17.717-10.905,36.804-18.409,56.564-21.817C221.07,44.669,178.25,30,134.52,39.219c-1.493,0.314-3.407,0-4.771-0.689
		C97.036,20.816,58.188,14.677,20.705,21.492c-9.541,54.521,7.498,109.042,45.663,147.215
		c23.853,23.853,54.521,39.526,88.594,45.656c15.681,2.729,27.261,16.358,27.261,32.032v44.984
		c10.908-2.05,19.767-9.544,24.539-20.445L212.212,253.896z"/>
	<path fill="#5D82A0" d="M208.125,264.798c-6.136,8.18-19.766,4.086-19.766-6.815v-25.896c0-6.814-2.044-13.63-6.137-19.081
		c4.093-2.729,6.137-7.5,6.137-12.272c0-4.765-2.044-8.858-5.451-11.58v1.357c0,6.137-2.729,12.272-7.501,15.681
		c-4.086-2.729-8.173-5.458-13.63-6.137c-25.214-4.086-48.385-13.63-68.831-27.939c-0.682-0.686-1.364-1.364-2.046-2.05
		c-12.948-10.223-12.948-29.304-0.679-40.888c19.081-17.72,30.347-44.616,28.986-73.241c-12.269,32.032-38.848,57.247-71.559,66.787
		C29.246,92.054,22.069,56.936,25.477,20.816c-2.046,0-3.408,0.679-5.454,0.679c-5.451,36.123-1,72.424,14.677,104.456
		c0,0.679,4.254,8.709,6.3,12.799c0.679,0.682,1.694,2.332,2.376,3.011c6.133,10.223,14.13,19.267,22.992,27.446
		c23.853,23.853,54.521,39.026,88.594,45.156c15.681,2.05,25.082,16.68,25.082,32.354l0.5,43.978
		c10.901-2.043,20.767-9.537,25.532-20.445L208.125,264.798z"/>
	<path fill="#014463" d="M75.22,177.18c-0.33-0.22-0.66-0.42-0.99-0.6c3.72,3.189,7.57,6.22,11.55,9.06
		C82.13,182.97,78.61,180.14,75.22,177.18z"/>
	<path fill="#014463" d="M297.4,168.71h-52.48c-9.53,0-17.03-6.82-18.4-15.68c-4.09-23.17-12.27-44.98-24.529-64.06
		c14.99-8.86,31.35-14.31,48.38-17.04l12.28-2.05c2.72-0.68,4.76-2.04,5.449-4.09c0.681-2.04,0.681-4.76-1.369-6.81
		c-17.03-21.13-85.86-44.3-132.21-33.4C97.72,6.5,54.78,0.37,13.21,8.55C10.48,9.23,8.44,11.27,7.76,14
		c-11.59,60.66,6.13,121.99,48.39,163.57c2.14,2.14,4.33,4.22,6.58,6.229c-7.97,21.601-2.17,46.181,14.54,62.891l9.54,9.54
		c1.36,1.359,2.73,2.05,4.77,2.05h2.73c2.72-0.69,4.09-2.73,4.77-5.46l0.68-6.811c1.8-11.45,5.74-21.84,11.83-31.16
		c12.89,5.471,26.52,9.431,40.65,11.79c8.859,2.04,15.67,10.221,15.67,19.08v52.471c0,4.09,2.729,6.819,6.82,6.819
		c19.079,0,36.8-11.59,43.619-29.31l6.811-16.351c6.13-15,17.72-27.26,32.72-32.71l16.351-6.819c17.72-7.5,29.31-24.54,29.31-43.62
		C304.22,171.43,301.49,168.71,297.4,168.71z M20.71,21.5c31.35-5.46,63.37-2.05,92,9.54c-5.45,42.93-39.53,77.01-82.46,82.46
		C18.66,84.88,15.25,52.85,20.71,21.5z M86.13,236.47c-11.59-11.59-16.36-27.26-12.95-42.93c8.18,6.13,16.36,11.58,23.85,15.67
		C92.26,217.39,88.17,226.93,86.13,236.47z M269.46,206.87l-16.36,6.81c-18.399,7.5-33.39,21.811-40.89,40.221l-6.81,16.35
		c-4.091,10.91-13.631,18.4-24.53,20.44V245.72c0-15.68-11.59-29.31-27.27-32.04c-24.5-3.92-47.22-13.47-66.93-27.39
		c-0.3-0.21-0.6-0.42-0.89-0.65c-3.98-2.84-7.83-5.87-11.55-9.06c-3.18-2.73-6.26-5.59-9.23-8.561
		c-12.26-12.27-22.48-26.58-29.98-42.25c45.66-7.5,81.78-43.62,89.96-89.96c0.68,0.68,2.04,0.68,2.72,1.36
		c2.73,1.36,6.14,2.73,8.86,4.77c7.5,4.77,14.32,9.54,21.13,15c3.409,4.09,12.27-6.82,8.859-9.55c-4.77-4.08-9.54-7.49-14.31-10.9
		c33.39-2.73,72.92,9.54,93.37,22.49c-19.771,3.41-38.851,10.9-56.57,21.81c-1.36,0.68-2.72,2.72-2.72,4.09
		c-0.69,2.04,0,3.41,1.359,5.45c13.63,19.76,22.49,41.57,25.9,64.75c2.72,15.67,16.35,27.26,32.03,27.26h44.979
		C287.86,193.24,280.36,202.1,269.46,206.87z"/>
	<path fill="#5D82A0" d="M276.277,193.238l-16.359,6.815c-18.402,7.494-33.396,21.81-40.891,40.212l-0.68,2.044
		c8.174-12.952,20.946-22.675,35.255-28.805l15.859-6.814c10.223-4.094,18.717-13.452,20.76-23.675
		C286.814,187.788,281.729,190.51,276.277,193.238"/>
	<path fill="#5D82A0" d="M245.609,58.979c-9.545-5.451-21.132-6.815-31.354-2.726c-7.493,2.726-15.673,6.815-22.488,10.905
		c-6.137,2.726-6.315,10.041-2.907,14.13"/>
	<path fill="#5DA2BA" d="M58.871,39.219c7.524,0,13.63,6.1,13.63,13.63c0,7.524-6.106,13.631-13.63,13.631
		s-13.63-6.106-13.63-13.631C45.24,45.318,51.347,39.219,58.871,39.219"/>
	<path fill="#5D82A0" d="M114.753,137.353v1.364c0,11.583-9.541,21.125-21.127,21.125h-1.361c2.725,3.407,6.815,5.457,11.583,5.457
		c8.862,0,15.677-6.814,15.677-15.68C120.204,144.168,118.161,140.078,114.753,137.353"/>
	<path fill="#5D82A0" d="M148.829,100.555v1.354c0,11.587-9.541,21.135-21.128,21.135h-1.361c2.725,3.407,6.815,5.454,11.583,5.454
		c8.862,0,15.677-6.815,15.677-15.677C154.283,107.37,152.236,103.274,148.829,100.555"/>
	<path fill="#5D82A0" d="M148.829,59.664v1.354c0,11.587-9.541,21.134-21.128,21.134h-1.361c2.725,3.408,6.815,5.454,11.583,5.454
		c9.541-0.682,16.359-7.498,16.359-16.366C154.283,66.479,152.236,62.383,148.829,59.664"/>
	<path fill="#5D82A0" d="M148.829,134.631v1.354c0,11.587-9.541,21.134-21.128,21.134h-1.361c2.725,3.408,6.815,5.451,11.583,5.451
		c8.862,0,15.677-6.815,15.677-15.673C154.283,141.446,152.236,137.35,148.829,134.631"/>
	<path fill="#5D82A0" d="M189.723,121v1.354c0,11.587-9.543,21.134-21.131,21.134h-1.364c2.729,3.408,6.815,5.454,11.587,5.454
		c8.859,0,15.674-6.815,15.674-15.677C195.174,127.815,193.131,123.719,189.723,121"/>
	<path fill="#5D82A0" d="M176.093,155.076v1.357c0,11.588-9.544,21.132-21.131,21.132h-1.361c2.726,3.407,6.812,5.45,11.584,5.45
		c8.858,0,15.674-6.814,15.674-15.673C181.544,161.892,179.5,157.799,176.093,155.076"/>
	<path fill="#D5E3EF" d="M86.131,236.173L86.131,236.173c2.043-9.537,6.133-19.081,11.587-27.261
		c-8.862-4.771-17.038-10.223-24.536-15.674C70.458,208.233,75.227,224.586,86.131,236.173"/>
	<path fill="#5D82A0" d="M93.625,216.413l4.59-8.18c-8.862-4.772-17.538-10.223-25.036-15.674
		c-1.364,6.13,2.043,12.267,6.815,15.674S88.854,214.363,93.625,216.413"/>
</g>
</svg>
