<?xml version="1.0" encoding="utf-8"?>
<!-- Generator: Adobe Illustrator 16.0.0, SVG Export Plug-In . SVG Version: 6.00 Build 0)  -->
<!DOCTYPE svg PUBLIC "-//W3C//DTD SVG 1.1//EN" "http://www.w3.org/Graphics/SVG/1.1/DTD/svg11.dtd">
<svg version="1.1" id="utensils" xmlns="http://www.w3.org/2000/svg" xmlns:xlink="http://www.w3.org/1999/xlink" x="0px" y="0px"
	 width="200px" height="228px" viewBox="0 0 200 228" enable-background="new 0 0 200 228" xml:space="preserve">
<g id="parts_group">
	<path fill="#D98B37" d="M36.491,145.761c0-1.362-0.455-2.272-1.362-3.178l-3.182-3.639l-3.182,2.729
		c-0.908,0.909-1.362,2.271-1.362,3.634v64.067c0,2.729,1.817,4.544,4.544,4.544s4.544-1.814,4.544-4.544V145.761z"/>
	<path fill="#D98B37" d="M104.649,145.761c0-1.362-0.452-2.272-1.362-3.178l-3.182-3.639l-3.182,2.729
		c-0.907,0.909-1.362,2.271-1.362,3.182v64.52c0,2.729,1.817,4.544,4.544,4.544c2.725,0,4.544-1.814,4.544-4.544V145.761z"/>
	<path fill="#B0C4D8" d="M77.386,79.423c0,7.726,5.906,13.632,16.358,15.904c2.272,0.455,4.544,1.362,6.361,3.182
		c1.819-1.819,4.092-2.727,6.363-3.182c9.993-1.817,15.904-7.726,16.356-15.904c0-2.272-1.819-22.72-3.182-29.535
		c-3.182-14.087-7.269-17.721-19.538-17.721s-16.358,3.634-19.538,17.721C79.203,56.703,77.386,79.423,77.386,79.423"/>
	<path fill="#D98B37" d="M163.721,213.919c2.725,0,4.544-1.814,4.544-4.544v-59.07c0-2.725-1.819-4.544-4.544-4.544
		s-4.544,1.819-4.544,4.544v59.07C159.177,212.104,160.996,213.919,163.721,213.919"/>
	<path fill="#D5E3EF" d="M121.011,59.428L77.386,78.059v1.362c0,2.727,0.91,4.999,1.817,6.816l42.713-18.176
		C121.463,65.334,121.463,62.609,121.011,59.428"/>
	<path fill="#D5E3EF" d="M80.568,49.888c-0.91,3.634-1.817,12.27-2.272,19.085l41.348-17.723c0-0.453,0-0.908-0.452-1.362
		c-2.725-14.087-6.816-17.721-19.086-17.721C87.838,32.167,83.749,35.801,80.568,49.888"/>
	<path fill="#AF5F1E" d="M103.287,142.583l-3.182-3.182v65.435c0,2.725-1.817,4.544-4.544,4.544c0,2.725,1.819,4.544,4.544,4.544
		c2.729,0,4.544-1.819,4.544-4.544v-63.615C104.649,144.402,104.197,143.493,103.287,142.583"/>
	<path fill="#AF5F1E" d="M163.721,204.831c0,2.729-1.819,4.544-4.544,4.544c0,2.729,1.819,4.544,4.544,4.544
		s4.544-1.814,4.544-4.544v-59.07c0-2.725-1.819-4.544-4.544-4.544V204.831z"/>
	<path fill="#AF5F1E" d="M35.128,142.583l-3.182-3.182v65.435c0,2.725-1.817,4.544-4.544,4.544c0,2.725,1.819,4.544,4.544,4.544
		c2.727,0,4.544-1.819,4.544-4.544v-63.615C36.491,144.402,36.038,143.493,35.128,142.583"/>
	<path fill="#014463" d="M43.307,91.235c3.182-0.91,6.361-2.727,9.088-5.454c4.544-4.089,6.816-9.995,6.816-15.904v-2.725
		l-3.182-23.629c-0.453-2.272-0.908-12.723-1.362-16.359c0-2.727-2.272-4.544-4.999-4.089c-2.727,0-4.544,2.272-4.089,4.999
		c0,1.362,0.91,14.087,1.362,17.266l3.182,23.174v1.362c0,3.637-1.362,6.816-4.089,9.088c-1.364,1.365-3.182,2.727-5.453,3.182
		c-1.362,0.455-2.727,1.362-4.089,1.817V27.62c0-2.727-1.817-4.543-4.544-4.543s-4.544,2.272-4.544,4.543v56.799
		c-1.362-0.91-2.727-1.362-4.089-1.817c-2.271-0.455-4.089-1.817-5.453-3.182c-3.18-2.727-4.544-6.816-4.089-10.905l3.182-23.629
		c0.453-2.725,1.362-15.449,1.362-16.812c0-2.727-1.817-4.999-4.089-4.999c-2.727,0-4.999,1.817-4.999,4.089
		c-0.455,4.089-0.91,14.542-1.362,16.813L4.683,67.153c-0.91,6.816,1.817,13.632,6.816,18.628c2.727,2.272,5.454,4.091,9.088,5.454
		c4.089,1.362,6.816,4.999,6.816,9.088v30.443l-4.544,4.544c-2.727,2.729-4.544,6.363-4.544,9.997v64.067
		c0,7.726,5.906,13.632,13.632,13.632s13.632-5.906,13.632-13.632v-63.614c0-3.635-1.362-7.269-4.089-9.541l-4.999-5.453v-30.443
		C36.491,96.234,39.218,92.598,43.307,91.235 M36.491,209.375c0,2.729-1.817,4.544-4.544,4.544s-4.544-1.814-4.544-4.544v-64.067
		c0-1.362,0.455-2.271,1.362-3.182l3.182-3.182l3.182,3.182c0.908,1.362,1.362,2.272,1.362,3.635V209.375z"/>
	<path fill="#014463" d="M108.284,103.958c14.541-2.725,23.629-12.267,23.629-24.992v-0.453c0-0.91-1.819-23.174-3.634-30.9
		c-3.182-14.994-9.088-24.537-28.174-24.537c-19.085,0-24.991,9.542-28.173,24.537c-1.817,7.726-3.634,29.99-3.634,31.353
		c0,12.725,9.088,22.267,23.629,24.992c2.271,0.455,3.634,2.272,3.634,4.544v22.265l-4.544,4.544
		c-2.727,2.729-4.544,6.363-4.544,9.997v64.067c0,7.726,5.906,13.632,13.632,13.632s13.632-5.906,13.632-13.632v-63.614
		c0-3.635-1.362-7.269-4.091-9.541l-4.997-5.453v-22.265C104.649,106.229,106.012,104.412,108.284,103.958 M93.745,95.324
		c-9.998-1.817-16.358-7.723-16.358-15.903c0,0,1.817-22.72,3.182-29.536c3.179-14.086,7.268-17.721,19.538-17.721
		s16.356,3.635,19.538,17.721c1.362,6.816,3.182,27.264,3.182,29.536c0,8.18-5.906,14.086-16.356,15.903
		c-2.729,0.455-4.544,1.365-6.363,3.182C98.289,96.689,96.017,95.779,93.745,95.324 M104.649,209.375
		c0,2.729-1.819,4.544-4.544,4.544c-2.727,0-4.544-1.814-4.544-4.544v-64.067c0-1.362,0.455-2.271,1.362-3.182l3.182-2.725
		l3.182,3.182c0.91,0.905,1.362,1.815,1.362,3.178V209.375z"/>
	<path fill="#014463" d="M174.63,28.98c-0.38-0.61-0.82-1.17-1.32-1.7c0,0-0.01-0.02-0.04-0.05c-0.729-0.93-12.68-15.91-23.18-21.48
		v29.5l0.08-0.03c-0.05,0.49-0.08,0.99-0.08,1.49v172.67c0,7.72,5.91,13.63,13.63,13.63c7.73,0,13.63-5.91,13.63-13.63V139.4
		c0-2.271,1.36-4.091,3.641-4.54l3.63-0.91c6.36-1.36,10.91-6.82,10.91-13.18v-25.9C195.53,71.24,188.26,48.52,174.63,28.98z
		 M168.26,209.38c0,2.72-1.81,4.54-4.54,4.54c-2.72,0-4.54-1.82-4.54-4.54V150.3c0-2.72,1.82-4.54,4.54-4.54
		c2.73,0,4.54,1.82,4.54,4.54V209.38z M186.44,120.77c0,2.27-1.36,4.09-3.631,4.54l-3.64,0.91c-5.91,1.36-10,5.91-10.91,11.36
		c-1.359-0.45-3.18-0.91-4.54-0.91c-1.819,0-3.18,0.46-4.54,0.91V41.25l-0.68-20.63l9.39,14.13c0.67,0.97,1.32,1.95,1.95,2.94
		c11.07,17.29,16.601,36.84,16.601,57.18V120.77z"/>
	<path fill="#D5E3EF" d="M186.181,87.27c0.28,8.14,0.439,24.26,0.319,32.4c0,0,1.12,4.28-3.69,5.64
		c-0.159,0.04-0.319,0.091-0.479,0.141V94.67c-0.061-2.26-0.16-4.43-0.3-6.49L186.181,87.27z"/>
	<path fill="#FFFFFF" d="M185.85,87.27l-3.819,0.91c-0.32-4.88-0.84-9.21-1.46-12.98l3.75-1.17c0.439,2.42,0.89,5.17,1.35,8.3
		C185.67,82.33,185.74,84.25,185.85,87.27z"/>
	<path fill="#D5E3EF" d="M184.32,74.03l-3.75,1.17c-0.301-1.93-0.641-3.71-0.98-5.35l3.7-1.1
		C183.63,70.32,183.97,72.07,184.32,74.03z"/>
	<path fill="#FFFFFF" d="M183.29,68.75l-3.7,1.1c-1.91-9.09-4.09-13.68-4.09-13.68c-5.02-13.39-12.26-24.28-16.97-30.54L158.5,21
		c0,0,11.83,13.33,19.33,31.17C179.7,55.91,181.07,58.34,183.29,68.75z"/>
	<path fill="#B0C4D8" d="M182.33,94.67v30.78c-4.771,1.3-11.24,2.7-14.07,12.13c0,0-5.91-1.75-9.08,0.42l-0.26-44.32l23.11-5.5
		C182.17,90.24,182.27,92.41,182.33,94.67z"/>
	<path fill="#D5E3EF" d="M182.03,88.18l-23.11,5.5l-0.07-11.69l21.721-6.79C181.19,78.97,181.71,83.3,182.03,88.18z"/>
	<path fill="#B0C4D8" d="M180.57,75.2l-21.721,6.79l-0.029-5.95l20.77-6.19C179.93,71.49,180.27,73.27,180.57,75.2z"/>
	<path fill="#D5E3EF" d="M179.59,69.85l-20.77,6.19l-0.29-50.41c4.71,6.26,11.95,17.15,16.97,30.54
		C175.5,56.17,177.68,60.76,179.59,69.85z"/>
</g>
</svg>
