<?xml version="1.0" encoding="utf-8"?>
<!-- Generator: Adobe Illustrator 16.0.0, SVG Export Plug-In . SVG Version: 6.00 Build 0)  -->
<!DOCTYPE svg PUBLIC "-//W3C//DTD SVG 1.1//EN" "http://www.w3.org/Graphics/SVG/1.1/DTD/svg11.dtd">
<svg version="1.1" id="french_fries" xmlns="http://www.w3.org/2000/svg" xmlns:xlink="http://www.w3.org/1999/xlink" x="0px"
	 y="0px" width="170px" height="230px" viewBox="0 0 170 230" enable-background="new 0 0 170 230" xml:space="preserve">
<g id="parts_group">
	<path fill="#FFCB5B" d="M130,36h-15c-2.998,0-5-2-5-5V16h-10v5c0,3-2.002,5-5,5H60c0,3-2,5-5,5H40v50h90V36z"/>
	<path fill="#004463" d="M135,26h-15V11c0-3-2.002-5-5-5H95c-2.998,0-5,2-5,5v5H55c-3,0-5,2-5,5H35c-3,0-5,2-5,5v60c0,3,2,5,5,5h5
		V81V66V31h10v5c0,3,2,5,5,5s5-2,5-5V26h10v5c0,3,2,5,5,5s5-2,5-5v-5h10v10c0,3,2.002,5,5,5s5-2,5-5V21v-5h10v15v15c0,3,2.002,5,5,5
		s5-2,5-5V36h10v30v15v10h5c2.998,0,5-2,5-5V31C140,28,137.998,26,135,26"/>
	<rect x="110" y="71" fill="#FFE27A" width="10" height="30"/>
	<rect x="115" y="71" fill="#FFCB5B" width="5" height="25"/>
	<rect x="20" y="41" fill="#E2982D" width="10" height="35"/>
	<path fill="#004463" d="M35,86H15c-3,0-5-2-5-5V36c0-3,2-5,5-5h20c3,0,5,2,5,5v45C40,84,38,86,35,86 M20,76h10V41H20V76z"/>
	<rect x="140" y="51" fill="#FF9A00" width="10" height="25"/>
	<path fill="#004463" d="M155,86h-20c-2.998,0-5-2-5-5V46c0-3,2.002-5,5-5h20c2.998,0,5,2,5,5v35C160,84,157.998,86,155,86 M140,76
		h10V51h-10V76z"/>
	<rect x="90" y="61" fill="#FFE27A" width="10" height="40"/>
	<rect x="70" y="51" fill="#FFE27A" width="10" height="50"/>
	<rect x="50" y="66" fill="#FFE27A" width="10" height="35"/>
	<path fill="#004463" d="M125,61h-15v-5c0-3-2.002-5-5-5H90v-5c0-3-2.002-5-5-5H65c-3,0-5,2-5,5v10H45c-3,0-5,2-5,5v45c0,3,2,5,5,5
		h20h20h20h20c2.998,0,5-2,5-5V66C130,63,127.998,61,125,61 M50,66h10v35H50V66z M70,61V51h10v5v45H70V61z M90,61h10v5v35H90V61z
		 M120,101h-10V71h10V101z"/>
	<rect x="95" y="61" fill="#FFAD00" width="5" height="40"/>
	<rect x="55" y="66" fill="#FFAD00" width="5" height="30"/>
	<rect x="75" y="51" fill="#FFAD00" width="5" height="50"/>
	<path fill="#F46E75" d="M130.503,90.5C122.5,102.499,103.501,111,85,111c-18.499,0-37.5-8.501-45.5-20.5c-2-3-5-4.5-7.998-4.5H15
		c0,5,0.5,9.5,1.001,14.5L30,216h5c2.5,0,5.5-0.503,8-1.499L54.001,211c10-3.501,20.498-5,30.999-5c10.503,0,21.001,1.499,31.001,5
		l11.001,3.501c2.5,0.996,5,1.499,7.998,1.499h5l13.999-115.5C154.502,95.5,155,91,155,86h-16.499
		C135.503,86,132.5,87.499,130.503,90.5"/>
	<path fill="#004463" d="M144.502,226H135c-3.999,0-7.5-0.498-11.001-2.002l-11.001-3.496c-17.998-6.001-37.498-6.001-55.498,0
		l-11.001,3.496C42.5,225.502,38.999,226,35,226h-9.5c-2.5,0-4.5-2.002-5-4.502L6.001,101.5C5.5,94.501,5,88,5,81c0-3,2-5,5-5
		h21.499c6.501,0,12.5,3.501,16.001,8.999C53.999,94,70,101,85,101s31.001-7,37.5-16.001c3.999-5.498,10-8.999,16.001-8.999H160
		c2.998,0,5,2,5,5c0,7-0.498,13.501-1.001,20.5l-14.497,119.998C148.999,223.998,147.002,226,144.502,226 M85,206
		c10.498,0,21.001,1.499,31.001,5l11.001,3.501c2.5,1.001,5,1.499,7.998,1.499h5l13.999-115.5C154.502,95.5,155,91,155,86h-16.499
		c-3.003,0-6.001,1.499-8.003,4.5C122.5,102.499,103.501,111,85,111s-37.5-8.501-45.5-20.5c-2-3-5-4.5-8-4.5H15
		c0,5,0.5,9.5,1.001,14.5L30,216h5c2.5,0,5.5-0.498,8-1.499L53.999,211C63.999,207.499,74.5,206,85,206"/>
	<path fill="#B73540" d="M145,86c0,5-0.498,9.5-1.001,14.5L132.5,195.502c-1.001,6.997-7.998,10.996-14.502,7.998
		C107.5,198.5,96.001,196,85,196s-22.5,2.5-33,7.5l-12,5.498c-2.5,1.504-5.5,2.002-8.501,2.002h-2.5l0.5,5h5
		c2.5,0,5.5-0.498,8-1.499L53.501,211c2.5-1.001,5.498-2.002,7.998-2.5c18-3.999,36.499-3.501,53.501,2.5l11.001,3.501
		c1.499,0.498,2.998,1.001,5,1.001c1.001,0,1.997,0.498,2.998,0.498h5l13.999-115.5C154.502,95.5,155,91,155,86H145z"/>
</g>
</svg>
