<?xml version="1.0" encoding="utf-8"?>
<!-- Generator: Adobe Illustrator 16.0.0, SVG Export Plug-In . SVG Version: 6.00 Build 0)  -->
<!DOCTYPE svg PUBLIC "-//W3C//DTD SVG 1.1//EN" "http://www.w3.org/Graphics/SVG/1.1/DTD/svg11.dtd">
<svg version="1.1" id="grapes" xmlns="http://www.w3.org/2000/svg" xmlns:xlink="http://www.w3.org/1999/xlink" x="0px" y="0px"
	 width="243px" height="311px" viewBox="0 0 243 311" enable-background="new 0 0 243 311" xml:space="preserve">
<g id="grape_parts">
	<path fill="#AE89BE" d="M122,224.184c18.823,0,34.09,15.268,34.09,34.091s-15.267,34.09-34.09,34.09
		c-18.826,0-34.09-15.267-34.09-34.09S103.174,224.184,122,224.184"/>
	<path fill="#014463" d="M122,306c-26.59,0-47.727-21.133-47.727-47.726S95.41,210.548,122,210.548
		c26.593,0,47.727,21.134,47.727,47.727S148.593,306,122,306 M122,224.184c-19.089,0-34.09,15.002-34.09,34.091
		s15.001,34.09,34.09,34.09c19.089,0,34.09-15.001,34.09-34.09S141.089,224.184,122,224.184"/>
	<path fill="#634682" d="M142.454,231.002c4.088,5.453,6.818,12.957,6.818,20.454c0,19.089-15.001,34.091-34.091,34.091
		c-7.5,0-15.001-2.73-20.454-6.818c6.136,8.183,16.363,13.636,27.272,13.636c19.089,0,34.09-15.001,34.09-34.09
		C156.09,247.368,150.637,237.141,142.454,231.002"/>
	<path fill="#EBBEFC" d="M101.546,251.456c3.762,0,6.818,3.056,6.818,6.818c0,3.762-3.056,6.817-6.818,6.817
		c-3.762,0-6.818-3.056-6.818-6.817C94.728,254.512,97.784,251.456,101.546,251.456"/>
	<path fill="#634682" d="M94.728,251.456c13.636,0,25.229-5.453,34.091-14.315c6.817,6.818,16.365,12.271,26.593,13.637
		c-3.409-15.002-17.045-26.594-33.411-26.594c-16.363,0-29.999,11.592-33.408,26.594C90.636,251.456,92.684,251.456,94.728,251.456"
		/>
	<path fill="#AE89BE" d="M156.09,162.821c18.823,0,34.091,15.268,34.091,34.091c0,18.822-15.268,34.09-34.091,34.09
		c-18.822,0-34.09-15.268-34.09-34.09C122,178.089,137.268,162.821,156.09,162.821"/>
	<path fill="#014463" d="M156.09,244.639c-26.593,0-47.726-21.134-47.726-47.727c0-26.594,21.133-47.727,47.726-47.727
		c26.594,0,47.727,21.133,47.727,47.727C203.816,223.505,182.684,244.639,156.09,244.639 M156.09,162.821
		c-19.089,0-34.09,15.001-34.09,34.091c0,19.089,15.001,34.09,34.09,34.09c19.09,0,34.091-15.001,34.091-34.09
		C190.181,177.822,175.18,162.821,156.09,162.821"/>
	<path fill="#634682" d="M176.544,169.64c4.089,5.453,6.818,12.957,6.818,20.454c0,19.089-15.001,34.09-34.09,34.09
		c-7.497,0-15.001-2.729-20.454-6.818c6.139,8.184,16.365,13.637,27.271,13.637c19.09,0,34.091-15.001,34.091-34.09
		C190.181,186.006,184.728,175.778,176.544,169.64"/>
	<path fill="#634682" d="M189.495,189.414c-3.409-15.001-17.046-26.593-33.405-26.593c-19.089,0-34.09,15.001-34.09,34.091
		c0,10.906,4.773,19.774,12.271,25.906c4.773-7.496,8.183-16.358,8.183-25.906c0-2.73,0-6.14-0.686-8.862
		c8.183-2.044,15.687-6.818,21.14-12.271C169.727,182.597,179.268,188.05,189.495,189.414"/>
	<path fill="#AE89BE" d="M87.91,162.821c18.826,0,34.09,15.268,34.09,34.091c0,18.822-15.264,34.09-34.09,34.09
		s-34.09-15.268-34.09-34.09C53.819,178.089,69.083,162.821,87.91,162.821"/>
	<path fill="#014463" d="M87.91,244.639c-26.59,0-47.727-21.134-47.727-47.727c0-26.594,21.137-47.727,47.727-47.727
		s47.726,21.133,47.726,47.727C135.636,223.505,114.5,244.639,87.91,244.639 M87.91,162.821c-19.089,0-34.09,15.001-34.09,34.091
		c0,19.089,15.001,34.09,34.09,34.09S122,216.001,122,196.912C122,177.822,106.999,162.821,87.91,162.821"/>
	<path fill="#634682" d="M108.364,169.64c4.091,5.453,6.818,12.957,6.818,20.454c0,19.089-15.001,34.09-34.09,34.09
		c-7.501,0-15.001-2.729-20.454-6.818c6.135,8.184,16.362,13.637,27.272,13.637c19.089,0,34.09-15.001,34.09-34.09
		C122,186.006,116.547,175.778,108.364,169.64"/>
	<path fill="#634682" d="M60.638,190.094c13.636,0,25.228-5.453,34.09-14.315c6.818,6.818,16.363,12.271,26.59,13.636
		c-3.409-15.001-17.045-26.593-33.408-26.593s-29.999,11.592-33.408,26.593C56.546,190.094,58.593,190.094,60.638,190.094"/>
	<path fill="#EBBEFC" d="M67.456,190.094c3.762,0,6.818,3.056,6.818,6.818c0,3.762-3.056,6.817-6.818,6.817
		c-3.762,0-6.818-3.056-6.818-6.817C60.638,193.149,63.693,190.094,67.456,190.094"/>
	<path fill="#AE89BE" d="M53.819,101.458c18.826,0,34.09,15.267,34.09,34.09c0,18.827-15.264,34.091-34.09,34.091
		s-34.09-15.265-34.09-34.091C19.729,116.726,34.993,101.458,53.819,101.458"/>
	<path fill="#014463" d="M53.819,183.275c-26.59,0-47.727-21.133-47.727-47.727c0-26.589,21.137-47.726,47.727-47.726
		s47.727,21.137,47.727,47.726C101.546,162.143,80.409,183.275,53.819,183.275 M53.819,101.458c-19.089,0-34.09,15.001-34.09,34.09
		c0,19.089,15.001,34.091,34.09,34.091s34.09-15.002,34.09-34.091C87.91,116.459,72.909,101.458,53.819,101.458"/>
	<path fill="#634682" d="M74.273,108.276c4.092,5.453,6.818,12.954,6.818,20.454c0,19.089-15.001,34.091-34.09,34.091
		c-7.5,0-15.001-2.729-20.455-6.818c6.136,8.184,16.363,13.637,27.272,13.637c19.089,0,34.09-15.002,34.09-34.091
		C87.91,124.639,82.457,114.412,74.273,108.276"/>
	<path fill="#EBBEFC" d="M33.365,142.367c-4.092,0-6.818-2.727-6.818-6.818c0-15.001,12.271-27.272,27.272-27.272
		c4.092,0,6.818,2.727,6.818,6.818c0,4.092-2.727,6.818-6.818,6.818c-7.5,0-13.636,6.136-13.636,13.636
		C40.183,139.64,37.457,142.367,33.365,142.367"/>
	<path fill="#AE89BE" d="M190.181,101.458c18.823,0,34.09,15.267,34.09,34.09c0,18.827-15.267,34.091-34.09,34.091
		s-34.091-15.265-34.091-34.091C156.09,116.726,171.357,101.458,190.181,101.458"/>
	<path fill="#014463" d="M190.181,183.275c-26.593,0-47.727-21.133-47.727-47.727c0-26.589,21.134-47.726,47.727-47.726
		s47.727,21.137,47.727,47.726C237.907,162.143,216.773,183.275,190.181,183.275 M190.181,101.458
		c-19.09,0-34.091,15.001-34.091,34.09c0,19.089,15.001,34.091,34.091,34.091c19.089,0,34.09-15.002,34.09-34.091
		C224.271,116.459,209.27,101.458,190.181,101.458"/>
	<path fill="#634682" d="M210.635,108.276c4.088,5.453,6.818,12.954,6.818,20.454c0,19.089-15.001,34.091-34.091,34.091
		c-7.497,0-15.001-2.729-20.454-6.818c6.139,8.184,16.366,13.637,27.272,13.637c19.089,0,34.09-15.002,34.09-34.091
		C224.271,124.639,218.817,114.412,210.635,108.276"/>
	<path fill="#634682" d="M156.09,135.548c0,11.592,6.14,22.499,15.001,28.638c3.409-6.818,5.453-13.637,5.453-21.82
		c0-11.592-4.088-21.819-10.906-30.681C159.499,117.821,156.09,126.687,156.09,135.548"/>
	<path fill="#EBBEFC" d="M183.362,108.276c3.762,0,6.818,3.056,6.818,6.818c0,3.766-3.057,6.818-6.818,6.818
		s-6.818-3.053-6.818-6.818C176.544,111.333,179.601,108.276,183.362,108.276"/>
	<path fill="#AE89BE" d="M122,101.458c18.823,0,34.09,15.267,34.09,34.09c0,18.827-15.267,34.091-34.09,34.091
		c-18.826,0-34.09-15.265-34.09-34.091C87.91,116.726,103.174,101.458,122,101.458"/>
	<path fill="#014463" d="M122,183.275c-26.59,0-47.727-21.133-47.727-47.727c0-26.589,21.137-47.726,47.727-47.726
		c26.593,0,47.727,21.137,47.727,47.726C169.727,162.143,148.593,183.275,122,183.275 M122,101.458
		c-19.089,0-34.09,15.001-34.09,34.09c0,19.089,15.001,34.091,34.09,34.091c19.089,0,34.09-15.002,34.09-34.091
		C156.09,116.459,141.089,101.458,122,101.458"/>
	<path fill="#634682" d="M142.454,108.276c4.088,5.453,6.818,12.954,6.818,20.454c0,19.089-15.001,34.091-34.091,34.091
		c-7.5,0-15.001-2.729-20.454-6.818c6.136,8.184,16.363,13.637,27.272,13.637c19.089,0,34.09-15.002,34.09-34.091
		C156.09,124.639,150.637,114.412,142.454,108.276"/>
	<path fill="#EBBEFC" d="M101.546,142.367c-4.092,0-6.818-2.727-6.818-6.818c0-15.001,12.271-27.272,27.272-27.272
		c4.088,0,6.818,2.727,6.818,6.818c0,4.092-2.73,6.818-6.818,6.818c-7.5,0-13.636,6.136-13.636,13.636
		C108.364,139.64,105.637,142.367,101.546,142.367"/>
	<path fill="#90C962" d="M122,60.55c0-10.91-4.092-21.137-11.592-29.316c-8.18-7.501-18.407-11.592-29.316-11.592
		c0,10.91,4.091,21.137,11.592,29.316C100.181,57.141,111.09,60.55,122,60.55"/>
	<path fill="#014463" d="M176.544,33.278c-16.365,0-30.681,6.136-41.587,16.362c-2.051-10.227-6.818-20.454-15.001-27.954
		C107.682,9.415,90.636,3.961,74.273,6.688c-2.727,0.683-5.453,2.727-5.453,5.453c-2.729,16.363,3.409,34.09,14.998,45.683
		c9.544,9.544,22.501,14.998,35.455,15.68c-2.047,6.136-3.409,13.636-3.409,20.454c0,4.092,2.727,6.818,6.814,6.818
		c4.095,0,6.818-2.727,6.818-6.818c0-26.589,21.14-47.726,47.727-47.726c4.095,0,6.818-2.727,6.818-6.818
		C184.042,35.322,180.633,33.278,176.544,33.278 M81.092,19.642c10.909,0,21.137,4.091,29.316,11.592
		C117.908,39.414,122,49.64,122,60.55c-10.91,0-21.137-4.092-29.316-11.592C84.5,41.461,81.092,30.551,81.092,19.642"/>
	<path fill="#37960F" d="M121.317,53.732c-10.227,0-20.454-4.092-28.637-11.592c-6.135-6.136-10.227-13.636-11.588-21.816h-0.683
		c0,10.91,4.091,21.137,11.592,29.316c8.862,6.818,19.089,10.91,29.999,10.91C122,58.506,122,55.776,121.317,53.732"/>
</g>
</svg>
