<?xml version="1.0" encoding="utf-8"?>
<!-- Generator: Adobe Illustrator 16.0.0, SVG Export Plug-In . SVG Version: 6.00 Build 0)  -->
<!DOCTYPE svg PUBLIC "-//W3C//DTD SVG 1.1//EN" "http://www.w3.org/Graphics/SVG/1.1/DTD/svg11.dtd">
<svg version="1.1" id="hotdog" xmlns="http://www.w3.org/2000/svg" xmlns:xlink="http://www.w3.org/1999/xlink" x="0px" y="0px"
	 width="200px" height="307px" viewBox="0 0 200 307" enable-background="new 0 0 200 307" xml:space="preserve">
<g id="hotdog_parts">
	<path fill="#FFB176" d="M141.227,53.771H60.773l-30.002,4.091c-6.818,0.683-11.589,6.818-11.589,13.637v169.092
		c0,6.818,4.771,12.271,11.589,13.637l30.002,4.088h81.133l30.002-4.088c6.818-0.686,11.592-6.818,11.592-13.637V71.5
		c0-6.818-4.773-12.275-11.592-13.637L141.227,53.771z"/>
	<path fill="#014463" d="M141.912,271.953H60.091h-0.682l-30-4.088c-13.636-2.051-23.181-13.637-23.181-27.273V71.5
		c0-13.637,10.227-25.229,23.181-27.273l30-4.092h0.682h81.821h0.68l30.002,4.092c13.637,2.044,23.178,13.636,23.178,27.273v169.092
		c0,13.637-10.227,25.223-23.178,27.273l-30.002,4.088H141.912z M60.773,258.316h81.139l29.996-4.088
		c6.818-0.686,11.592-6.818,11.592-13.637V71.5c0-6.818-4.773-12.275-11.592-13.637l-29.996-4.091H60.773l-30,4.091
		c-6.818,0.683-11.592,6.818-11.592,13.637v169.092c0,6.818,4.774,12.271,11.592,13.637L60.773,258.316z"/>
	<path fill="#AC6700" d="M169.178,74.226v159.548v1.358c-2.043,7.504-13.635,5.459-13.635-2.724V55.815l-6.818-0.679v193.632
		l-21.135,2.73H53.273V54.454c-7.501,1.361-13.637,7.5-13.637,15.68v164.319c0,8.184-7.5,15.002-15.68,13.637l-2.73-0.68
		c2.047,3.409,5.457,5.453,9.548,6.133l30,4.095h81.133l30.002-4.095c6.818-0.68,11.592-6.818,11.592-13.637V71.5
		C182.814,64.681,169.178,60.59,169.178,74.226"/>
	<path fill="#F16B56" d="M135.088,51.728c0-19.09-14.994-34.091-34.088-34.091c-19.089,0-34.091,15.001-34.091,34.091v204.545
		c0,19.09,15.001,34.091,34.091,34.091c19.094,0,34.088-15.001,34.088-34.091V51.728z"/>
	<path fill="#004463" d="M101,304c-26.59,0-47.727-21.134-47.727-47.728V51.728C53.273,25.137,74.41,4,101,4
		c26.59,0,47.725,21.137,47.725,47.728v204.545C148.725,282.866,127.59,304,101,304 M101,17.636
		c-19.089,0-34.091,15.001-34.091,34.091v204.545c0,19.09,15.001,34.091,34.091,34.091c19.094,0,34.088-15.001,34.088-34.091V51.728
		C135.088,32.638,120.094,17.636,101,17.636"/>
	<path fill="#84393D" d="M126.232,29.229c1.357,3.409,2.043,6.818,2.043,10.91v204.542c0,19.096-15,34.091-34.093,34.091
		c-10.228,0-19.09-4.768-25.226-11.586c4.771,13.637,17.045,23.178,32.043,23.178c19.094,0,34.094-15.001,34.094-34.091V51.728
		C135.094,42.865,131.686,35.364,126.232,29.229"/>
	<path fill="#84393D" d="M112.596,235.818c-2.051,0-3.41-0.68-4.773-2.044l-15.685-15.681c-4.091-4.095-6.818-10.228-6.818-16.366
		c0-6.14,2.727-12.271,6.818-16.366l17.728-17.725c2.045-2.045,2.73-4.089,2.73-6.818c0-2.73-0.686-4.774-2.73-6.818l-17.728-17.728
		c-4.091-4.091-6.818-10.227-6.818-16.363s2.727-12.271,6.818-16.363l15.685-15.684c2.723-2.727,6.818-2.727,9.541,0
		c2.73,2.73,2.73,6.818,0,9.548l-15.682,15.681c-2.043,2.044-2.726,4.092-2.726,6.818s1.365,4.774,2.726,6.818l17.725,17.728
		c4.096,4.092,6.818,10.225,6.818,16.363s-2.723,12.271-6.818,16.366l-17.725,17.725c-2.043,2.044-2.726,4.088-2.726,6.818
		c0,2.729,1.365,4.773,2.726,6.817l15.682,15.681c2.73,2.73,2.73,6.818,0,9.549C115.998,235.139,114.641,235.818,112.596,235.818"/>
	<path fill="#E5BA41" d="M105.777,229c-2.051,0-3.408-0.68-4.777-2.044l-15.68-15.681c-4.092-4.095-6.818-10.228-6.818-16.366
		c0-6.14,2.727-12.271,6.818-16.366l17.727-17.725c2.045-2.044,2.73-4.088,2.73-6.818c0-2.727-0.686-4.774-2.73-6.818L85.32,129.454
		c-4.092-4.092-6.818-10.228-6.818-16.363s2.727-12.271,6.818-16.363L101,81.044c2.727-2.727,6.822-2.727,9.545,0
		c2.73,2.73,2.73,6.818,0,9.548l-15.681,15.68c-2.044,2.044-2.727,4.092-2.727,6.818s1.365,4.774,2.727,6.818l17.731,17.728
		c4.088,4.091,6.811,10.227,6.811,16.363c0,6.139-2.723,12.271-6.811,16.366l-17.731,17.725c-2.044,2.044-2.727,4.089-2.727,6.818
		s1.365,4.774,2.727,6.818l15.681,15.681c2.73,2.729,2.73,6.817,0,9.548C109.186,228.32,107.822,229,105.777,229"/>
</g>
<path fill="#FFFFFF" d="M106.667,81.62c-3.93,0-3.93,6.094,0,6.094S110.597,81.62,106.667,81.62z"/>
<path fill="#FFFFFF" d="M106.982,219.944c-1.439,0-2.642,1.201-2.642,2.642c0,1.439,1.202,2.641,2.642,2.641
	s2.642-1.201,2.642-2.641C109.624,221.146,108.422,219.944,106.982,219.944z"/>
<path fill="#FFFFFF" d="M116.784,152.037c-0.412-2.924-1.442-6.419-4.784-6.805c-0.724-0.083-1.238,0.764-1.063,1.395
	c0.481,1.719,0.854,3.791,0.964,5.594c0.055,0.918,0.04,1.861-0.251,2.739c0.044-0.131-0.407,0.485-0.05,0.064
	c-0.566,0.667-0.79,1.271-0.833,2.146c-0.077,1.555,1.271,2.5,2.646,2.647C117.296,160.232,117.121,154.434,116.784,152.037z"/>
<path fill="#FFFFFF" d="M86.105,116.689c-0.606-0.936-1.654-2.3-2.563-2.972c0.287,0.212,0.269-1.5,0.291-1.649
	c0.124-0.838,0.507-1.57,0.895-2.31c0.134-0.256,0.171-0.597,0-0.85c-0.003-0.117-0.006-0.234-0.009-0.351
	c0.188-0.312-0.127-0.8-0.502-0.654c-1.533,0.597-2.375,3.012-2.694,4.514c-0.506,2.379-0.884,5.787,1.73,7.125
	C85.008,120.443,87.311,118.548,86.105,116.689z"/>
<path fill="#FFFFFF" d="M87.508,189.842c1.743-1.729-0.479-4.527-2.585-3.35c-2.042,1.142-4.158,3.652-3.652,6.031
	c0.329,1.547,0.779,3.302,1.395,4.77c0.551,1.313,1.096,1.519,2.264,2.162c0.108,0.061,0.237-0.037,0.207-0.158
	c-0.211-0.83-0.075-1.326-0.429-2.112c-0.59-1.313-1.234-2.95-0.41-4.266C85.01,191.781,86.518,190.824,87.508,189.842z"/>
<path fill="#FFFFFF" d="M81.477,28.016C71.846,32.458,72.005,46.738,72,55.667c-0.003,6.449,9.997,6.449,10,0
	c0.002-5.042-1.032-16.454,4.523-19.016C92.375,33.953,87.29,25.335,81.477,28.016z"/>
<path fill="#FFFFFF" d="M86.857,265.017c-4.387-3.023-3.535-9.74-3.523-14.35c0.016-6.449-9.984-6.448-10,0
	c-0.022,8.914,0.498,17.485,8.477,22.984C87.135,277.321,92.129,268.649,86.857,265.017z"/>
</svg>
