<?xml version="1.0" encoding="utf-8"?>
<!-- Generator: Adobe Illustrator 16.0.0, SVG Export Plug-In . SVG Version: 6.00 Build 0)  -->
<!DOCTYPE svg PUBLIC "-//W3C//DTD SVG 1.1//EN" "http://www.w3.org/Graphics/SVG/1.1/DTD/svg11.dtd">
<svg version="1.1" id="condiments" xmlns="http://www.w3.org/2000/svg" xmlns:xlink="http://www.w3.org/1999/xlink" x="0px" y="0px"
	 width="212px" height="209px" viewBox="0 0 212 209" enable-background="new 0 0 212 209" xml:space="preserve">
<g id="parts_group">
	<path fill="#F04B4D" d="M165.091,98.544c0-5-0.91-9.546-2.726-14.546l-9.548-25.453h-39.089l-9.546,25.908
		c-1.818,4.545-2.728,9.546-2.728,14.551v91.359c0,2.726,1.818,4.546,4.545,4.546h54.545c2.727,0,4.546-1.82,4.546-4.546V98.544z"/>
	<path fill="#DE333F" d="M162.361,84.456l-9.544-25.91h-18.182l9.544,25.91c1.819,4.545,2.729,9.546,2.729,14.546v82.271
		c0,4.999-4.093,9.091-9.091,9.091h-9.091c-5.456,0-9.548-4.545-9.091-9.543v-3.184c0-4.092-0.457-7.728-1.82-11.82l-16.362-43.635
		v68.182c0,2.726,1.818,4.546,4.545,4.546h9.544h26.819H156h4.545c2.727,0,4.546-1.82,4.546-4.546V98.547
		C165.091,93.546,164.181,89.001,162.361,84.456"/>
	<path fill="#014463" d="M10.545,194.909c2.508,0,4.545,2.033,4.545,4.546c0,2.512-2.037,4.545-4.545,4.545
		C8.038,204,6,201.967,6,199.455C6,196.942,8.038,194.909,10.545,194.909"/>
	<path fill="#014463" d="M187.818,204H24.182c-2.728,0-4.545-1.82-4.545-4.545c0-2.727,1.818-4.546,4.545-4.546h163.637
		c2.726,0,4.545,1.819,4.545,4.546C192.363,202.18,190.544,204,187.818,204"/>
	<path fill="#014463" d="M201.455,194.909c2.508,0,4.545,2.033,4.545,4.546c0,2.512-2.037,4.545-4.545,4.545
		c-2.509,0-4.546-2.033-4.546-4.545C196.909,196.942,198.946,194.909,201.455,194.909"/>
	<path fill="#F6B545" d="M54.637,113.091l-15.454,50.91c-0.91,2.726-1.365,5.908-1.365,9.091c0,4.545,0.91,9.544,3.183,13.637
		l4.09,8.181h49.092l4.09-8.181c2.273-4.093,3.181-9.092,3.181-13.637c0-3.183-0.453-5.908-1.363-9.091l-15.454-50.91H54.637z"/>
	<rect x="115.091" y="40.364" fill="#F04B4D" width="36.364" height="9.091"/>
	<rect x="56" y="94.909" fill="#F6B545" width="27.272" height="9.091"/>
	<path fill="#F04B4D" d="M133.272,13.091c-0.452,6.363-2.272,12.727-5.455,18.182h10.911
		C135.998,25.817,134.183,19.454,133.272,13.091"/>
	<path fill="#014463" d="M170.999,81.272L160.545,53.09V35.818c0-2.728-1.819-4.546-4.545-4.546h-6.818v-0.455
		c-4.545-6.363-6.818-14.091-6.818-22.272c0-2.728-1.819-4.545-4.545-4.545h-9.091c-2.726,0-4.546,1.818-4.546,4.545
		c0,8.181-2.272,15.909-6.818,22.272v0.455h-6.818c-2.725,0-4.545,1.818-4.545,4.546V53.09L95.546,81.272
		C93.273,86.728,92.364,92.636,92.364,99v91.364C92.364,198.092,98.272,204,106,204h54.545c7.729,0,13.637-5.908,13.637-13.637
		V98.544C174.182,92.636,173.271,86.728,170.999,81.272 M133.272,13.091L133.272,13.091c0.91,6.363,2.726,12.727,5.908,18.182
		h-10.906C130.547,25.817,132.363,19.454,133.272,13.091 M115.091,40.364h4.546h27.272h4.546v9.091h-36.364V40.364z
		 M165.091,190.363c0,2.726-1.819,4.546-4.546,4.546H106c-2.728,0-4.545-1.82-4.545-4.546V98.544c0-4.998,0.91-9.543,2.728-14.544
		l9.546-25.91h39.089L162.365,84c1.815,4.545,2.726,9.546,2.726,14.544V190.363z"/>
	<path fill="#F6B545" d="M69.636,67.636C69.182,74,67.364,80.363,64.181,85.818h10.911C72.364,80.363,70.546,74,69.636,67.636"/>
	<path fill="#014463" d="M108.726,161.271l-16.362-53.179V90.364c0-2.726-1.82-4.545-4.545-4.545h-2.273v-0.453
		C81,78.547,78.728,70.819,78.728,63.091c0-2.726-1.82-4.545-4.546-4.545h-9.091c-2.728,0-4.545,1.82-4.545,4.545
		c0,8.183-2.273,15.909-6.818,22.274v0.453h-2.273c-2.728,0-4.545,1.82-4.545,4.545v17.729l-16.364,53.179
		c-1.365,3.64-1.817,7.728-1.817,11.82c0,6.361,1.362,12.273,4.09,17.725l5.453,10.911c0.91,1.362,2.273,2.272,4.093,2.272h54.545
		c1.817,0,3.181-0.91,4.09-2.726l5.454-10.911c2.729-5.455,4.092-11.816,4.092-17.729
		C110.545,168.999,110.088,164.911,108.726,161.271 M56,94.909h27.272V104H56V94.909z M69.636,67.636L69.636,67.636
		c0.908,6.366,2.726,12.729,5.908,18.182H64.636C66.909,80.365,68.727,74.002,69.636,67.636 M98.272,186.729l-4.09,8.181H45.089
		l-4.09-8.181c-2.272-4.093-3.18-9.092-3.18-13.637c0-3.183,0.453-5.908,1.362-9.091l15.454-50.91h29.546l15.454,50.91
		c0.91,2.726,1.365,5.908,1.365,9.091C101.455,177.637,100.544,182.636,98.272,186.729"/>
	<rect x="133.272" y="40.364" fill="#DE333F" width="18.183" height="9.091"/>
	<rect x="69.636" y="94.909" fill="#F19A22" width="13.636" height="9.091"/>
	<path fill="#F19A22" d="M100.092,164.001l-15.454-50.91H71.001l15.454,50.91c0.91,2.726,1.363,5.908,1.363,9.091
		c0,1.815-0.908,4.545-1.363,7.729c-1.818,5.908-7.273,9.996-13.636,9.996H59.183c-5,0-10.001,1.367-14.091,4.545h35.456h7.271
		h6.365l4.09-8.181c2.273-4.088,3.181-9.091,3.181-13.636C101.455,169.909,101.002,166.727,100.092,164.001"/>
	<path fill="#E2E7F0" d="M146.909,154h-4.546c-4.998,0-9.091-4.093-9.091-9.091v-27.272c0-4.998,4.093-9.092,9.091-9.092h4.546V154z
		"/>
	<rect x="146.909" y="108.545" fill="#C9D5E3" width="18.182" height="45.455"/>
	<path fill="#E2E7F0" d="M83.272,167.637H56c-2.728,0-4.545-1.82-4.545-4.546v-13.636c0-2.727,1.818-4.546,4.545-4.546h27.272
		c2.728,0,4.546,1.819,4.546,4.546v13.636C87.818,165.816,86,167.637,83.272,167.637"/>
	<path fill="#C9D5E3" d="M83.272,144.909h-2.728l5.911,19.092c0,0.452,0.453,1.362,0.453,1.815c0.455-0.905,0.91-1.815,0.91-2.726
		v-13.636C87.818,146.729,86,144.909,83.272,144.909"/>
	<path fill="#F19A22" d="M69.636,85.818h5.456C72.364,80.363,70.546,74,69.636,67.636V85.818z"/>
	<path fill="#DE333F" d="M133.272,31.272h5.456c-2.73-5.455-4.546-11.818-5.456-18.182V31.272z"/>
</g>
</svg>
