<?xml version="1.0" encoding="utf-8"?>
<!-- Generator: Adobe Illustrator 16.0.0, SVG Export Plug-In . SVG Version: 6.00 Build 0)  -->
<!DOCTYPE svg PUBLIC "-//W3C//DTD SVG 1.1//EN" "http://www.w3.org/Graphics/SVG/1.1/DTD/svg11.dtd">
<svg version="1.1" id="onion" xmlns="http://www.w3.org/2000/svg" xmlns:xlink="http://www.w3.org/1999/xlink" x="0px" y="0px"
	 width="259px" height="316px" viewBox="0 0 259 316" enable-background="new 0 0 259 316" xml:space="preserve">
<g>
	<path fill="#90C962" d="M116.364,53.318c0,4.091,0.682,7.5,1.365,11.592l10.906,1.362c0.683-4.091,1.365-8.18,1.365-12.954
		c0-10.228-2.727-19.772-6.818-26.59C119.09,34.229,116.364,43.773,116.364,53.318"/>
	<path fill="#014463" d="M133.409,80.591h-0.679l-21.138-2.733c-2.727,0-4.774-2.037-5.457-4.764
		c-2.727-6.139-3.409-12.958-3.409-19.775c0-17.046,6.139-32.726,15.684-42.271C119.772,9.676,121.138,9,123.182,9
		c2.048,0,3.409,0.676,4.774,2.047c9.548,9.545,15.681,25.901,15.681,42.271c0,7.494-1.365,15.684-3.409,22.502
		C138.862,79.229,136.139,80.591,133.409,80.591 M117.729,64.91l10.91,1.365c0.682-4.092,1.361-8.183,1.361-12.957
		c0-10.228-2.727-19.779-6.818-26.597c-4.088,7.507-6.818,16.37-6.818,26.597C116.364,57.403,117.046,61.501,117.729,64.91"/>
	<path fill="#F79548" d="M20.909,205.362c0,36.821,34.773,66.817,89.319,76.365h39.547c54.545-9.548,89.315-39.544,89.315-76.365
		c0-40.224-49.092-73.635-84.548-98.174c-7.498-4.781-10.228-14.326-7.498-22.509l0.68-2.044l-36.135-4.091l2.047,7.5
		c2.044,7.508-1.365,16.363-8.183,21.144C70.001,131.052,20.909,164.453,20.909,205.362"/>
	<path fill="#90C962" d="M130,66.275C130,66.958,130,66.958,130,66.275l13.637,1.358v-1.358c0-10.228-2.73-19.772-6.818-26.59
		C132.73,47.179,130,56.73,130,66.275"/>
	<path fill="#014463" d="M149.775,82.635h-0.686l-26.59-3.409c-3.409-0.679-5.454-2.727-6.136-6.136v-6.818
		c0-17.045,6.136-32.726,15.68-42.271c2.73-2.73,6.818-2.73,9.548,0c9.542,9.544,15.681,25.908,15.681,42.271
		c0,3.409,0,6.818-0.679,10.228C155.908,79.908,153.185,82.635,149.775,82.635 M130,66.955l13.637,1.365v-1.365
		c0-10.227-2.73-19.772-6.818-26.59C132.73,47.183,130,56.728,130,66.955"/>
	<path fill="#014463" d="M252.728,205.362c0-47.728-52.502-83.18-90.681-109.091c-2.051-1.362-3.409-4.088-2.051-6.818l3.409-10.227
		c0.686-2.044,0.686-4.088-0.68-6.136c-1.364-2.044-2.729-2.727-4.773-3.409l-54.542-6.136c-2.047,0-4.774,0.683-6.139,2.044
		c-1.361,2.047-2.044,4.091-1.361,6.818l4.771,17.045c0.683,2.048-0.679,4.774-2.727,6.139
		C59.771,121.5,7.272,157.635,7.272,205.362c0,42.274,37.5,76.365,95.455,88.637v8.183c0,2.045,1.361,4.088,2.727,5.453
		c1.365,0.686,2.727,1.365,4.091,1.365c0.683,0,1.362,0,2.044-0.68l18.41-6.139l18.41,6.139c0.68,0,1.358,0.68,2.045,0.68
		c1.364,0,2.723-0.68,4.088-1.365c2.044-1.365,2.729-3.408,2.729-5.453v-8.183C215.228,281.728,252.728,247.637,252.728,205.362
		 M149.769,281.728h-39.541c-54.545-9.548-89.319-40.23-89.319-76.365c0-40.224,49.089-73.635,85.227-98.181
		c6.818-4.771,10.228-12.954,8.18-21.137l-2.044-7.497l36.138,4.088l-0.686,2.048c-2.724,8.18,0,17.045,7.504,22.499
		c34.771,24.546,83.862,57.272,83.862,98.181C239.091,241.497,204.314,272.18,149.769,281.728"/>
	<path fill="#BC724D" d="M78.864,261.272c-2.727,0-4.774-1.364-6.136-3.409c-7.5-13.636-10.91-30.682-10.91-49.092
		c0-21.819,6.136-43.633,19.089-66.817c2.047-3.409,6.139-4.774,9.548-2.727c3.409,2.044,4.771,6.136,2.727,9.544
		c-11.592,21.134-17.728,40.23-17.728,59.999c0,15.681,3.409,30.682,9.545,42.953c2.047,3.409,0.682,7.504-2.727,8.869
		C80.908,261.272,80.229,261.272,78.864,261.272"/>
	<path fill="#BC724D" d="M239.09,205.36c0,36.819-34.77,66.819-89.31,76.37h-39.55c-22.5-4.091-42.27-12.271-57.27-22.5
		c2.72,0.68,5.45,2.039,8.18,2.72c12.95,4.1,26.59,6.14,40.23,6.14h15.68c2,0,4.05-0.06,6.13-0.189V234c0-4.09,2.73-6.82,6.82-6.82
		s6.82,2.73,6.82,6.82v31.75c0.449-0.13,0.91-0.25,1.359-0.39c13.9-3.48,26.391-8.32,37.13-14.28c5.95-12.13,9.23-26.22,9.23-42.311
		c0-19.09-5.45-38.859-17.72-60c-2.051-3.41-0.69-7.5,2.72-9.54c3.41-2.05,7.51-0.68,9.55,2.72c12.95,23.189,19.09,45,19.09,66.819
		c0,10.08-1.229,19.761-3.46,28.69c15.29-13.64,23.92-30.55,23.92-49.14c0-20.46-12.27-39.55-29.319-56.59
		C215.23,152.18,239.09,176.72,239.09,205.36z"/>
	<path fill="#BC724D" d="M130,213.545c-4.092,0-6.818-2.729-6.818-6.817v-88.637c0-4.091,2.727-6.818,6.818-6.818
		c4.088,0,6.818,2.727,6.818,6.818v88.637C136.818,210.137,134.088,213.545,130,213.545"/>
</g>
</svg>
