<?xml version="1.0" encoding="utf-8"?>
<!-- Generator: Adobe Illustrator 16.0.0, SVG Export Plug-In . SVG Version: 6.00 Build 0)  -->
<!DOCTYPE svg PUBLIC "-//W3C//DTD SVG 1.1//EN" "http://www.w3.org/Graphics/SVG/1.1/DTD/svg11.dtd">
<svg version="1.1" id="orange" xmlns="http://www.w3.org/2000/svg" xmlns:xlink="http://www.w3.org/1999/xlink" x="0px" y="0px"
	 width="311px" height="310px" viewBox="0 0 311 310" enable-background="new 0 0 311 310" xml:space="preserve">
<path fill="#014463" d="M134.815,59.941c-3.417-23.233-23.233-41.001-47.15-41.001c-4.101,0-6.833,2.733-6.833,6.834
	c0,4.101,2.733,6.833,6.833,6.833c16.399,0,30.751,11.619,33.483,28.019C56.914,64.042,5.663,117.342,5.663,182.948
	c0,67.647,55.352,123.003,123.003,123.003c67.654,0,123.003-55.355,123.003-123.003C251.669,117.342,199.737,63.358,134.815,59.941
	 M128.666,292.283c-60.133,0-109.336-49.202-109.336-109.335c0-60.137,49.203-109.34,109.336-109.34
	c60.133,0,109.336,49.203,109.336,109.34C238.002,243.081,188.799,292.283,128.666,292.283"/>
<path fill="#FF9255" d="M128.666,73.608c60.381,0,109.336,48.956,109.336,109.34c0,60.38-48.955,109.335-109.336,109.335
	c-60.38,0-109.336-48.955-109.336-109.335C19.33,122.564,68.286,73.608,128.666,73.608"/>
<path fill="#8E4706" d="M194.952,96.161c14.348,18.452,22.55,41.001,22.55,66.286c0,60.134-49.203,109.336-109.336,109.336
	c-25.282,0-47.834-8.201-66.283-22.549c19.816,25.966,51.251,43.049,86.783,43.049c60.133,0,109.336-49.202,109.336-109.335
	C238.002,147.412,220.918,115.978,194.952,96.161"/>
<path fill="#FFEDA9" d="M73.998,189.781c3.417,57.397,51.251,102.502,109.336,102.502s105.919-45.104,109.336-102.502H73.998z"/>
<path fill="#014463" d="M183.334,305.951c-67.651,0-123.003-55.355-123.003-123.003c0-4.104,2.732-6.834,6.833-6.834h232.338
	c4.098,0,6.834,2.729,6.834,6.834C306.337,250.596,250.988,305.951,183.334,305.951 M73.998,189.781
	c3.417,57.397,51.251,102.502,109.336,102.502s105.919-45.104,109.336-102.502H73.998z"/>
<path fill="#C3E8A3" d="M164.882,48.327c7.515-8.202,11.618-18.452,11.618-29.382c-10.938,0-21.184,4.097-29.386,11.615
	c-8.198,7.518-11.615,18.452-11.615,29.386C146.431,59.945,156.681,55.844,164.882,48.327"/>
<path fill="#014463" d="M136.184,73.608c-2.733,0-5.469,0-8.202-0.684c-2.733-0.684-5.465-2.733-5.465-5.466
	c-2.733-16.399,3.417-34.167,15.032-45.786c12.302-12.299,29.382-17.768,45.786-15.032c2.736,0.681,5.465,2.733,5.465,5.466
	c2.736,16.399-3.416,34.167-15.034,45.786C164.201,68.143,149.851,73.608,136.184,73.608 M135.5,59.941
	c10.934,0,21.181-4.101,29.382-11.618c7.521-8.198,11.618-18.448,11.618-29.383c-10.931,0-21.184,4.101-29.382,11.619
	C138.916,38.073,135.5,49.007,135.5,59.941"/>
<path fill="#40931D" d="M136.184,53.108c10.25,0,20.504-4.101,28.698-11.619c6.153-6.149,10.251-13.667,11.618-21.865h0.682
	c0,10.934-4.098,21.184-11.612,29.382c-8.882,6.833-19.136,10.934-30.07,10.934C135.5,57.893,135.5,55.157,136.184,53.108"/>
<path fill="#F78500" d="M278.315,189.781H199.73l50.57,50.564c2.736,2.735,8.201,2.735,10.25-0.682
	C270.801,225.311,277.635,208.227,278.315,189.781"/>
<path fill="#F78500" d="M176.5,270.415v-71.071l-50.567,50.571c-2.732,2.735-2.732,8.201,0.684,10.25
	c12.299,8.882,25.966,15.035,41.682,17.084C172.403,277.93,176.5,274.513,176.5,270.415"/>
<path fill="#F78500" d="M190.168,199.344v71.071c0,4.098,4.097,7.515,8.201,6.834c15.035-2.736,29.383-8.202,41.682-17.084
	c3.416-2.736,4.104-7.521,0.688-10.25L190.168,199.344z"/>
<path fill="#F78500" d="M166.938,189.781H88.349c1.368,18.445,7.518,35.529,17.768,49.196c2.733,3.417,7.518,4.104,10.25,0.687
	L166.938,189.781z"/>
<path fill="#FCD0B1" d="M60.331,133.062c-1.368,0-3.417-0.684-4.101-1.368c-2.733-2.733-3.417-6.833-0.684-9.566
	c9.569-11.615,22.552-21.185,36.903-27.334c3.417-1.364,7.514,0,8.882,3.417s0,7.518-3.417,8.886
	c-12.299,4.781-23.233,12.982-31.435,23.233C64.432,132.377,62.38,133.062,60.331,133.062"/>
<path fill="#FCD0B1" d="M41.879,169.281h-1.368c-3.417-0.688-6.149-4.785-4.781-8.202c1.365-4.784,2.732-10.253,4.781-15.035
	c1.368-3.417,5.469-4.785,8.886-3.417c3.417,1.365,5.465,5.465,3.417,8.882c-2.052,4.101-3.417,8.201-4.101,12.986
	C48.029,167.226,45.296,169.281,41.879,169.281"/>
<path fill="#FF7133" d="M183.334,121.443c3.771,0,6.834,3.063,6.834,6.833c0,3.774-3.063,6.834-6.834,6.834s-6.834-3.06-6.834-6.834
	C176.5,124.506,179.563,121.443,183.334,121.443"/>
<path fill="#FF7133" d="M162.834,141.943c3.77,0,6.833,3.063,6.833,6.834c0,3.773-3.063,6.833-6.833,6.833
	c-3.771,0-6.834-3.06-6.834-6.833C156,145.007,159.063,141.943,162.834,141.943"/>
<path fill="#FF7133" d="M142.333,121.443c3.771,0,6.833,3.063,6.833,6.833c0,3.774-3.063,6.834-6.833,6.834s-6.833-3.06-6.833-6.834
	C135.5,124.506,138.563,121.443,142.333,121.443"/>
</svg>
