<?xml version="1.0" encoding="utf-8"?>
<!-- Generator: Adobe Illustrator 16.0.0, SVG Export Plug-In . SVG Version: 6.00 Build 0)  -->
<!DOCTYPE svg PUBLIC "-//W3C//DTD SVG 1.1//EN" "http://www.w3.org/Graphics/SVG/1.1/DTD/svg11.dtd">
<svg version="1.1" id="pear" xmlns="http://www.w3.org/2000/svg" xmlns:xlink="http://www.w3.org/1999/xlink" x="0px" y="0px"
	 width="172px" height="266px" viewBox="0 0 172 266" enable-background="new 0 0 172 266" xml:space="preserve">
<g id="pear_group">
	<path fill="#014463" d="M81.306,65.086c-3.417,0-5.695-2.277-5.695-5.695c0-15.947-12.531-28.478-28.478-28.478
		c-3.418,0-5.696-2.278-5.696-5.696s2.278-5.695,5.696-5.695c22.212,0,39.866,17.657,39.866,39.869
		C86.999,62.809,84.724,65.086,81.306,65.086"/>
	<path fill="#90C962" d="M86.999,53.695c9.116,0,17.66-3.418,24.496-9.684c6.262-6.833,9.678-15.376,9.678-24.49h-0.567
		c-8.544,0-17.087,3.418-23.923,9.684C90.42,36.039,86.999,44.582,86.999,53.695"/>
	<path fill="#014463" d="M87.572,65.086c-2.278,0-4.559,0-6.836-0.57c-2.277-0.57-4.555-2.277-4.555-4.555
		c-2.278-13.669,2.848-28.478,12.531-38.162c9.678-9.681,24.49-14.809,38.156-12.528c2.28,0.567,4.561,2.278,4.561,4.555
		c2.274,13.669-2.848,28.478-12.531,38.162C110.922,60.531,98.963,65.086,87.572,65.086 M86.999,53.695
		c9.116,0,17.66-3.418,24.496-9.684c6.262-6.833,9.678-15.376,9.678-24.49h-0.567c-8.544,0-17.087,3.418-23.923,9.684
		C90.42,36.039,86.999,44.582,86.999,53.695"/>
	<path fill="#61A345" d="M87.572,48c8.543,0,17.087-3.418,23.923-9.683c5.122-5.126,8.543-11.391,9.683-18.225h0.567
		c0,9.114-3.415,17.657-9.684,24.49c-7.402,5.696-15.946,9.114-25.057,9.114C87.005,51.988,87.005,49.708,87.572,48"/>
	<path fill="#FFCB5B" d="M126.868,97.553c-0.567-18.228-16.515-32.466-35.881-32.466h-8.541c-18.797,0-34.744,14.809-35.884,32.466
		v0.57c-0.57,18.794-6.265,35.311-15.946,48.98c-8.543,11.391-13.102,25.063-12.531,39.869c1.71,33.033,30.755,60.377,65.499,60.377
		h7.404c34.746,0,63.791-27.344,64.358-60.377c0.573-14.239-3.982-27.905-12.525-39.869
		C133.136,134.004,127.441,116.917,126.868,97.553C126.868,98.123,126.868,98.123,126.868,97.553"/>
	<path fill="#014463" d="M90.42,258.733h-7.403c-40.439,0-74.613-31.893-75.75-71.762c-0.57-17.087,4.555-33.033,14.806-46.705
		c8.543-11.388,13.102-26.197,13.672-42.147v-0.567c1.138-23.923,22.212-43.287,47.272-43.287h8.543
		c25.063,0,46.132,19.364,47.272,43.854v0.57c0.573,16.517,5.129,30.755,13.672,42.15c10.251,13.666,15.379,29.612,14.807,46.699
		C165.603,226.841,131.429,258.733,90.42,258.733 M83.017,65.086c-18.794,0-34.744,14.809-35.881,32.466v0.567
		c-0.57,18.797-6.266,35.314-15.95,48.983c-8.543,11.391-13.098,25.063-12.528,39.869c1.137,33.033,30.186,60.371,64.929,60.371
		h7.406c34.741,0,63.786-27.338,64.359-60.371c0.567-14.239-3.988-27.911-12.531-39.869c-10.251-13.099-15.379-30.186-15.946-48.983
		v-0.567c-0.573-18.228-16.521-32.466-35.882-32.466H83.017z"/>
	<path fill="#D8A459" d="M142.82,147.103c-10.251-13.099-15.379-30.186-15.946-48.983v-0.57
		c-0.573-14.807-11.392-27.338-25.631-31.326c7.971,6.265,13.666,15.379,14.239,25.63v0.57c0.567,18.797,2.848,32.466,12.531,45.568
		c8.544,11.391,13.099,25.057,12.525,39.869c-1.134,33.033-26.764,63.791-61.511,63.791h-7.403c-8.543,0-15.947-1.713-23.353-4.562
		c10.253,6.27,22.212,10.258,34.744,10.258h7.403c34.746,0,63.791-27.344,64.358-60.377
		C155.919,172.165,151.363,158.493,142.82,147.103"/>
	<path fill="#FFE27A" d="M38.021,173.306h-1.707c-2.848-0.573-5.129-3.988-3.988-6.836c2.277-9.116,6.836-18.228,12.531-25.63
		c3.416-4.556,6.263-9.111,7.974-14.807c1.137-2.848,4.555-4.558,7.403-3.418c2.848,1.137,4.558,4.555,3.418,7.403
		c-2.278,6.266-5.696,11.961-9.684,17.084c-5.125,6.836-8.543,13.671-10.25,21.643C42.577,171.593,40.3,173.306,38.021,173.306"/>
	<path fill="#FFE27A" d="M35.741,179.001c3.143,0,5.696,2.548,5.696,5.696c0,3.142-2.553,5.694-5.696,5.694
		c-3.145,0-5.695-2.553-5.695-5.694C30.046,181.549,32.596,179.001,35.741,179.001"/>
	<path fill="#90C962" d="M65.93,89.579c6.266-6.266,10.251-15.379,9.684-24.49c-9.114,0-17.657,3.415-24.493,9.681
		c-6.833,6.266-9.681,15.379-9.681,24.493C50.55,99.263,59.094,95.845,65.93,89.579"/>
	<path fill="#014463" d="M42.007,110.651c-2.277,0-4.558,0-6.835-0.57c-2.278-0.57-4.556-2.278-4.556-4.555
		c-2.277-13.669,2.848-28.479,12.529-38.162c10.253-10.251,24.493-14.809,38.161-12.529c2.278,0.567,4.556,2.278,4.556,4.556
		c2.278,13.668-2.848,28.478-12.529,38.162C65.359,106.096,53.398,110.651,42.007,110.651 M41.437,99.26
		c9.113,0,17.657-3.418,24.49-9.683c6.266-6.263,10.254-15.376,9.684-24.49c-9.113,0-17.657,3.418-24.49,9.684
		C44.285,81.033,41.437,90.146,41.437,99.26"/>
	<path fill="#61A345" d="M42.007,93.564c8.543,0,17.087-3.418,23.923-9.684c5.125-5.125,8.543-11.392,9.681-18.225h0.57
		c0,9.114-3.418,17.657-9.684,24.49c-7.403,5.695-15.947,9.113-25.06,9.113C41.437,97.553,41.437,95.272,42.007,93.564"/>
	<g id="spots">
		<path fill="#D8A459" d="M55.065,171.944c-4.488,0-4.488,6.96,0,6.96C59.553,178.904,59.553,171.944,55.065,171.944z"/>
		<path fill="#D8A459" d="M58.862,186.751c-6.451,0-6.451,10.003,0,10.003C65.312,196.754,65.312,186.751,58.862,186.751z"/>
		<path fill="#D8A459" d="M51.268,204.52c-1.94,0-3.56,1.62-3.56,3.561s1.62,3.56,3.56,3.56s3.56-1.619,3.56-3.56
			S53.208,204.52,51.268,204.52z"/>
		<path fill="#D8A459" d="M68.354,206.977c-5.831,0-5.831,9.041,0,9.041C74.186,216.018,74.186,206.977,68.354,206.977z"/>
		<path fill="#D8A459" d="M71.012,222.794c-1.708,0-3.132,1.425-3.132,3.132c0,1.708,1.425,3.133,3.132,3.133
			s3.133-1.425,3.133-3.133C74.145,224.219,72.72,222.794,71.012,222.794z"/>
		<path fill="#D8A459" d="M88.858,218.194c-5.073,0-5.073,7.867,0,7.867C93.933,226.062,93.933,218.194,88.858,218.194z"/>
	</g>
</g>
</svg>
