<?xml version="1.0" encoding="utf-8"?>
<!-- Generator: Adobe Illustrator 16.0.0, SVG Export Plug-In . SVG Version: 6.00 Build 0)  -->
<!DOCTYPE svg PUBLIC "-//W3C//DTD SVG 1.1//EN" "http://www.w3.org/Graphics/SVG/1.1/DTD/svg11.dtd">
<svg version="1.1" id="pizza_slice" xmlns="http://www.w3.org/2000/svg" xmlns:xlink="http://www.w3.org/1999/xlink" x="0px"
	 y="0px" width="252px" height="314px" viewBox="0 0 252 314" enable-background="new 0 0 252 314" xml:space="preserve">
<g id="parts_group">
	<path fill="#FFC218" d="M198.369,165.692L21.695,29.693l11.108,104.06c0.579,8.188,16.503,119.396,16.503,119.396
		C108.757,242.983,161.104,211.865,198.369,165.692"/>
	<path fill="#F19A22" d="M40.902,130.752l-9.193-83.885c-0.33-6.274-4.066-12.597-10.014-17.174l10.804,104.456l10.578,70.092
		l6.626,49.213c2.869-0.37,6.153-1.287,9.021-1.66l-7.403-50.441L40.902,130.752z"/>
	<path fill="#FFFFFF" d="M89.902,144.15c-2.295,2.981-6.58,3.539-9.563,1.243c-2.98-2.294-3.537-6.58-1.242-9.561
		c2.295-2.981,6.58-3.539,9.561-1.244C91.64,136.883,92.197,141.168,89.902,144.15"/>
	<path fill="#FFFFFF" d="M49.578,68.364c-2.295,2.981-6.581,3.54-9.563,1.244c-2.98-2.294-3.539-6.582-1.244-9.563
		s6.582-3.538,9.563-1.244C51.315,61.098,51.873,65.383,49.578,68.364"/>
	<path fill="#FFFFFF" d="M164.692,175.908c-2.295,2.981-6.581,3.539-9.562,1.244c-2.981-2.295-3.539-6.581-1.244-9.562
		c2.295-2.981,6.58-3.539,9.562-1.244C166.43,168.641,166.986,172.927,164.692,175.908"/>
	<path fill="#3BD64A" d="M126.873,146.795c-2.295,2.981-6.581,3.539-9.563,1.244s-3.539-6.581-1.244-9.562
		c2.295-2.981,6.58-3.539,9.563-1.244C128.609,139.528,129.167,143.814,126.873,146.795"/>
	<path fill="#00834A" d="M43.8,136.079c-2.296,2.981-6.581,3.539-9.562,1.245c-2.981-2.295-3.539-6.581-1.244-9.562
		c2.295-2.981,6.58-3.539,9.563-1.243C45.537,128.813,46.094,133.098,43.8,136.079"/>
	<path fill="#CE4D53" d="M110.642,201.413c-6.892,8.954-19.731,10.624-28.685,3.731c-8.954-6.893-10.625-19.731-3.732-28.685
		s19.732-10.624,28.686-3.732C115.864,179.62,117.534,192.459,110.642,201.413"/>
	<path fill="#004463" d="M67.419,168.141c11.645-15.126,32.683-17.863,47.81-6.219c15.127,11.645,17.863,32.683,6.219,47.809
		c-11.645,15.127-32.682,17.864-47.809,6.22C58.512,204.307,55.774,183.268,67.419,168.141 M110.642,201.413
		c7.071-9.186,5.454-21.614-3.731-28.686c-9.186-7.071-21.614-5.454-28.686,3.732c-7.07,9.186-5.453,21.614,3.732,28.685
		C91.143,212.215,103.57,210.6,110.642,201.413"/>
	<path fill="#C68754" d="M51.591,266.947l4.437,26.65c68.054-11.281,131.256-48.678,174.759-102.952l-21.611-16.636
		C169.416,223.423,114.322,255.871,51.591,266.947"/>
	<path fill="#014463" d="M198.363,165.692l-0.047-0.037c-37.508,46.593-89.971,77.547-148.496,87.708l0.025,0.195
		C108.754,242.986,160.692,212.399,198.363,165.692z M37.113,260.313c-0.084,0.618-0.023,1.194,0.218,1.683L37.113,260.313z"/>
	<path fill="#8E4311" d="M70.244,290.776l-0.373-2.866c-1.785-9.979,4.332-19.043,14.182-21.779
		c52.14-14.077,95.631-45.988,130.525-87.962l-5.403-4.159c-39.759,49.413-94.853,81.861-157.588,92.943l4.44,26.645
		C60.809,292.975,66.004,291.814,70.244,290.776"/>
	<path fill="#CE4D53" d="M102.361,100.392c1.247-1.62,2.375-4.197,3.078-6.235L75.186,70.868c-1.791,1.202-3.993,2.951-5.24,4.57
		c-7.07,9.186-5.454,21.614,3.731,28.685C82.863,111.195,95.291,109.578,102.361,100.392"/>
	<path fill="#F77669" d="M105.238,197.254c-4.591,5.964-13.158,7.08-19.123,2.488s-7.079-13.159-2.488-19.124
		c4.592-5.965,13.159-7.08,19.124-2.488C108.715,182.722,109.83,191.29,105.238,197.254"/>
	<path fill="#F77669" d="M96.959,96.233c1.664-2.161,2.373-4.197,2.539-6.649L81.127,75.441c-2.329,0.788-4.115,1.996-5.778,4.156
		c-4.575,5.944-3.454,14.551,2.487,19.124C83.776,103.294,92.384,102.177,96.959,96.233"/>
	<path fill="#014463" d="M51.617,308.277c75.828-11.326,146.304-52.581,193.303-113.637l0.83-1.078
		c2.494-3.241,1.996-7.069-1.244-9.564L17.59,9.324c-2.164-1.666-5.148-2.247-7.352-0.499c-0.963,0.118-1.799,1.203-2.213,1.742
		c-1.244,1.617-1.533,3.124-1.293,5.025L19.42,135.491c0.365,2.868,10.945,72.962,10.945,72.962l6.748,51.86l0.218,1.683
		c0.033,0.253,0.072,0.498,0.123,0.727l6.595,39.729C44.553,306.272,47.794,308.768,51.617,308.277z M105.438,94.159
		c-0.698,2.038-1.832,4.61-3.077,6.227c-7.075,9.192-19.501,10.808-28.685,3.738c-9.184-7.069-10.801-19.495-3.726-28.687
		c1.245-1.617,3.449-3.365,5.232-4.567L105.438,94.159z M45.492,220.098c0,0-12.105-78.159-13.232-86.762L21.695,29.696
		l42.148,32.445c-1.792,1.196-3.457,3.359-4.701,4.976c-11.645,15.127-8.914,36.171,6.213,47.815s36.169,8.9,47.813-6.227
		c1.245-1.617,2.909-3.78,3.616-5.811l81.578,62.798c-37.671,46.707-89.609,77.294-148.518,87.866l-0.025-0.195L45.492,220.098z
		 M51.588,266.953c62.734-11.086,117.833-43.531,157.584-92.941l21.609,16.634c-43.496,54.275-106.7,91.676-174.757,102.953
		L51.588,266.953z"/>
</g>
</svg>
