<?xml version="1.0" encoding="utf-8"?>
<!-- Generator: Adobe Illustrator 16.0.0, SVG Export Plug-In . SVG Version: 6.00 Build 0)  -->
<!DOCTYPE svg PUBLIC "-//W3C//DTD SVG 1.1//EN" "http://www.w3.org/Graphics/SVG/1.1/DTD/svg11.dtd">
<svg version="1.1" id="hamburger" xmlns="http://www.w3.org/2000/svg" xmlns:xlink="http://www.w3.org/1999/xlink" x="0px" y="0px"
	 width="326px" height="211px" viewBox="0 0 326 211" enable-background="new 0 0 326 211" xml:space="preserve">
<g id="hamburger_parts">
	<path fill="#F6B545" d="M298.713,156H27.285c-4.286,0-7.143,2.86-7.143,7.143c0,15.716,12.855,28.571,28.571,28.571h228.571
		c15.715,0,28.572-12.855,28.572-28.571C305.857,158.86,302.996,156,298.713,156"/>
	<path fill="#014463" d="M277.285,206H48.714c-23.57,0-42.857-19.287-42.857-42.857c0-12.144,9.285-21.429,21.429-21.429h271.428
		c12.145,0,21.43,9.285,21.43,21.429C320.143,186.713,300.855,206,277.285,206 M27.285,156c-4.286,0-7.143,2.86-7.143,7.143
		c0,15.716,12.855,28.571,28.571,28.571h228.571c15.715,0,28.572-12.855,28.572-28.571c0-4.282-2.861-7.143-7.145-7.143H27.285z"/>
	<path fill="#AD7B3E" d="M298.713,156h-7.143c0,15.716-12.855,28.571-28.57,28.571H34.428c-1.43,0-3.572,0-5.001-0.711
		c5.001,4.994,12.145,7.854,19.287,7.854h228.571c15.715,0,28.572-12.855,28.572-28.571C305.857,158.86,302.996,156,298.713,156"/>
	<path fill="#F6B545" d="M27.285,70.286h271.428c4.283,0,7.145-2.856,7.145-7.143c0-23.57-19.287-42.857-42.857-42.857H63
		c-23.57,0-42.857,19.287-42.857,42.857C20.143,67.429,22.999,70.286,27.285,70.286"/>
	<path fill="#014463" d="M298.713,84.571H27.285c-12.144,0-21.429-9.284-21.429-21.428C5.856,31.715,31.572,6,63,6h200
		c31.432,0,57.143,25.715,57.143,57.143C320.143,75.287,310.857,84.571,298.713,84.571 M63,20.286
		c-23.57,0-42.857,19.287-42.857,42.857c0,4.286,2.856,7.143,7.143,7.143h271.428c4.283,0,7.145-2.856,7.145-7.143
		c0-23.57-19.287-42.857-42.857-42.857H63z"/>
	<path fill="#BC6906" d="M274.432,21.715C284.428,29.574,291.57,41.714,291.57,56c0,4.287-2.852,7.143-7.143,7.143H20.143
		c0,4.286,2.856,7.143,7.143,7.143h271.428c4.291,0,7.145-2.856,7.145-7.143C305.857,43.859,292.289,26.717,274.432,21.715"/>
	<path fill="#EF3E2B" d="M152.285,106H38c-5.713,0-10.715,5.001-10.715,10.714S32.287,127.429,38,127.429h114.285
		c5.713,0,10.715-5.002,10.715-10.715S157.998,106,152.285,106"/>
	<path fill="#004463" d="M152.285,141.714H38c-13.571,0-25-11.426-25-25c0-13.57,11.429-25,25-25h114.285c13.574,0,25,11.429,25,25
		C177.285,130.288,165.859,141.714,152.285,141.714 M38,106c-5.713,0-10.715,5.001-10.715,10.714S32.287,127.429,38,127.429h114.285
		c5.713,0,10.715-5.002,10.715-10.715S157.998,106,152.285,106H38z"/>
	<path fill="#90C962" d="M30.856,91.714h264.286c2.141,0,3.57-1.43,3.57-3.571c0-2.142-1.43-3.572-3.57-3.572H30.856
		c-2.141,0-3.571,1.43-3.571,3.572C27.285,90.284,28.715,91.714,30.856,91.714"/>
	<path fill="#014463" d="M295.143,106H30.856C20.857,106,13,98.142,13,88.143c0-10,7.857-17.857,17.856-17.857h264.286
		c10.002,0,17.857,7.858,17.857,17.857C313,98.142,305.145,106,295.143,106 M30.856,84.571c-2.141,0-3.571,1.43-3.571,3.572
		c0,2.141,1.43,3.571,3.571,3.571h264.286c2.141,0,3.57-1.43,3.57-3.571c0-2.142-1.43-3.572-3.57-3.572H30.856z"/>
	<path fill="#014463" d="M70.143,63.143c-2.142,0-3.571-0.715-5.001-2.142c-2.856-2.86-2.856-7.143,0-10.003L86.57,29.57
		c2.86-2.856,7.143-2.856,10.002,0c2.856,2.86,2.856,7.143,0,10.003L75.144,61.001C73.714,62.428,72.284,63.143,70.143,63.143"/>
	<path fill="#014463" d="M113,63.143c-2.142,0-3.572-0.715-5.002-2.142c-2.856-2.86-2.856-7.143,0-10.003l21.429-21.429
		c2.86-2.856,7.143-2.856,10.003,0c2.856,2.86,2.856,7.143,0,10.003l-21.429,21.429C116.571,62.428,115.141,63.143,113,63.143"/>
	<path fill="#014463" d="M155.857,63.143c-2.142,0-3.572-0.715-5.001-2.142c-2.856-2.86-2.856-7.143,0-10.003l21.428-21.429
		c2.861-2.856,7.143-2.856,10.004,0c2.852,2.86,2.852,7.143,0,10.003l-21.429,21.429C159.428,62.428,157.998,63.143,155.857,63.143"
		/>
	<path fill="#014463" d="M198.713,63.143c-2.141,0-3.57-0.715-5-2.142c-2.854-2.86-2.854-7.143,0-10.003l21.428-21.429
		c2.859-2.856,7.143-2.856,10.004,0c2.852,2.86,2.852,7.143,0,10.003l-21.43,21.429C202.285,62.428,200.855,63.143,198.713,63.143"
		/>
	<path fill="#014463" d="M241.57,63.143c-2.141,0-3.57-0.715-5-2.142c-2.854-2.86-2.854-7.143,0-10.003l21.428-21.429
		c2.859-2.856,7.143-2.856,10.002,0c2.854,2.86,2.854,7.143,0,10.003l-21.428,21.429C245.143,62.428,243.713,63.143,241.57,63.143"
		/>
	<path fill="#EF3E2B" d="M288,106H188c-5.713,0-10.715,5.001-10.715,10.714s5.002,10.715,10.715,10.715h100
		c5.713,0,10.713-5.002,10.713-10.715S293.713,106,288,106"/>
	<path fill="#004463" d="M288,141.714H188c-13.574,0-25-11.426-25-25c0-13.57,11.426-25,25-25h100c13.574,0,25,11.429,25,25
		C313,130.288,301.574,141.714,288,141.714 M188,106c-5.713,0-10.715,5.001-10.715,10.714s5.002,10.715,10.715,10.715h100
		c5.713,0,10.713-5.002,10.713-10.715S293.713,106,288,106H188z"/>
	<path fill="#EA8389" d="M178.004,120.286c1.422,4.282,5.713,7.143,9.996,7.143h100c5,0,8.572-2.86,10.002-7.143H178.004z"/>
	<path fill="#EA8389" d="M28,120.286c1.431,4.282,5.713,7.143,10,7.143h114.285c5.002,0,8.573-2.86,10-7.143H28z"/>
	<path fill="#FFFCD5" d="M262.281,151.71c11.432,7.143,25.719,5.002,35.715-4.994c0.717-0.719,0.717-1.43,0.717-2.148
		c0-1.423-1.43-2.854-2.859-2.854H30.142c-1.43,0-2.856,1.431-2.856,2.854c0,0.719,0,1.43,0.715,2.148
		c10,9.996,24.285,12.137,35.715,4.994c8.569-4.994,18.568-4.994,27.142,0c9.284,5.72,20.713,5.72,30.001,0
		c8.569-4.994,18.569-4.994,27.142,0c9.284,5.72,20.714,5.72,29.997,0c8.574-4.994,18.576-4.994,27.143,0
		c9.291,5.72,20.717,5.72,30,0c4.291-2.853,8.574-4.283,13.574-4.283C253.715,147.427,257.998,148.857,262.281,151.71"/>
	<path fill="#014463" d="M277.285,170.286c-7.854,0-15.715-2.142-22.859-6.432c-3.57-2.142-8.572-2.142-12.143,0
		c-13.568,8.572-31.426,8.572-45,0c-3.57-2.142-8.572-2.142-12.145,0c-13.566,8.572-31.423,8.572-44.998,0
		c-3.571-2.142-8.569-2.142-12.141,0c-13.571,8.572-31.428,8.572-45.002,0c-3.571-2.142-8.569-2.142-12.141,0
		c-6.428,4.29-14.286,6.432-22.144,6.432c-11.429,0-22.144-5.002-30.713-13.574c-2.86-2.854-5.001-7.144-5.001-12.145
		c0-9.284,7.857-17.139,17.142-17.139h265.001c9.283,0,17.145,7.854,17.145,17.139c0,4.29-1.43,8.572-5,12.145
		C299.426,165.284,288.711,170.286,277.285,170.286 M248.713,147.427c5.002,0,9.285,1.431,13.574,4.283
		c11.426,7.143,25.713,5.002,35.715-4.994c0.711-0.719,0.711-1.43,0.711-2.148c0-1.423-1.43-2.854-2.859-2.854H30.142
		c-1.426,0-2.856,1.431-2.856,2.854c0,0.719,0,1.43,0.715,2.148c10,9.996,24.285,12.137,35.715,4.994
		c8.569-4.994,18.572-4.994,27.142,0c9.288,5.72,20.713,5.72,30.001,0c8.569-4.994,18.572-4.994,27.142,0
		c9.288,5.72,20.714,5.72,29.997,0c8.574-4.994,18.576-4.994,27.148,0c9.285,5.72,20.711,5.72,29.994,0
		C239.43,148.857,243.713,147.427,248.713,147.427"/>
</g>
</svg>
