<?xml version="1.0" encoding="utf-8"?>
<!-- Generator: Adobe Illustrator 16.0.0, SVG Export Plug-In . SVG Version: 6.00 Build 0)  -->
<!DOCTYPE svg PUBLIC "-//W3C//DTD SVG 1.1//EN" "http://www.w3.org/Graphics/SVG/1.1/DTD/svg11.dtd">
<svg version="1.1" id="soy_sauce" xmlns="http://www.w3.org/2000/svg" xmlns:xlink="http://www.w3.org/1999/xlink" x="0px" y="0px"
	 width="157.333px" height="308.667px" viewBox="0 0 157.333 308.667" enable-background="new 0 0 157.333 308.667"
	 xml:space="preserve">
<g id="soy_sauce_parts">
	<path fill="#EDF1F9" d="M52.122,59.137v13.605c0,28.573-6.122,55.784-17.688,81.633c-10.885,23.132-16.326,48.981-16.326,74.83
		v54.423c0,4.079,2.72,6.803,6.803,6.803h108.844c4.079,0,6.803-2.724,6.803-6.803v-54.423c0-26.533-5.44-51.698-16.329-75.511
		c-11.56-25.85-17.685-53.061-17.685-81.634V59.137H52.122z"/>
	<path fill="#F04D4E" d="M49.401,45.531h59.866l10.882-21.089v-2.04c0-2.043-2.039-4.083-4.078-4.083H42.599
		c-2.04,0-4.082,2.04-4.082,4.083c0,0.681,0,1.358,0.681,2.04L49.401,45.531z"/>
	<path fill="#993540" d="M116.063,18.32H95.655c2.047,0,4.086,2.04,4.086,4.083c0,0.681,0,1.358-0.684,2.04L88.853,45.531h20.408
		l10.889-21.089v-2.04C120.149,20.36,118.11,18.32,116.063,18.32"/>
	<path fill="#7C5342" d="M140.558,229.206c0-26.533-5.44-51.698-16.329-75.511c-4.757-10.885-8.842-21.767-11.56-33.333H46.681
		c-2.724,11.566-6.803,22.448-11.566,33.333c-11.566,23.813-17.007,49.662-17.007,75.511v54.423c0,4.079,2.72,6.803,6.803,6.803
		h108.844c4.079,0,6.803-2.724,6.803-6.803V229.206z"/>
	<path fill="#FFCB5B" d="M79.333,161.179l-27.211,13.605v34.014l27.211,13.605l27.211-13.605v-34.014L79.333,161.179z
		 M99.741,204.72l-20.408,10.203L58.925,204.72v-25.856l20.408-10.204l20.408,10.204V204.72z"/>
	<path fill="#FFCB5B" d="M79.333,201.995L79.333,201.995c-4.082,0-6.803-2.724-6.803-6.803v-6.803c0-4.079,2.721-6.803,6.803-6.803
		c4.079,0,6.803,2.724,6.803,6.803v6.803C86.136,199.271,83.412,201.995,79.333,201.995"/>
	<path fill="#FFCB5B" d="M109.945,236.009H48.721c-2.04,0-3.401-1.361-3.401-3.4c0-2.04,1.362-3.402,3.401-3.402h61.225
		c2.04,0,3.401,1.362,3.401,3.402C113.347,234.647,111.985,236.009,109.945,236.009"/>
	<path fill="#FFCB5B" d="M96.34,249.615H62.326c-2.04,0-3.401-1.362-3.401-3.401c0-2.04,1.362-3.401,3.401-3.401H96.34
		c2.04,0,3.401,1.361,3.401,3.401C99.741,248.253,98.38,249.615,96.34,249.615"/>
	<path fill="#678DB7" d="M106.544,72.743V59.137H86.136v13.605c0,11.566,1.361,23.128,2.724,34.014h20.408
		C107.906,95.19,106.544,84.309,106.544,72.743"/>
	<path fill="#5B240E" d="M103.827,153.698c10.882,23.81,16.322,49.659,16.322,75.508v54.423c0,4.079-2.717,6.803-6.803,6.803h20.408
		c4.086,0,6.803-2.724,6.803-6.803v-54.423c0-26.533-5.44-51.698-16.322-75.508c-4.764-10.892-8.849-21.77-11.566-33.333H92.261
		C94.978,131.928,99.063,142.807,103.827,153.698"/>
	<path fill="#CAD5E3" d="M52.122,72.743c0,11.566-1.362,23.128-2.721,34.014h6.803c2.04-11.566,2.721-22.448,2.721-34.014V59.137
		h-6.803V72.743z"/>
	<path fill="#A0887F" d="M41.237,153.698c4.763-10.892,8.842-21.77,11.566-33.333H46c-2.724,11.563-6.803,22.441-11.566,33.333
		c-10.885,23.81-16.326,49.659-16.326,75.508v54.423c0,4.079,2.72,6.803,6.803,6.803h6.803c-4.082,0-6.803-2.724-6.803-6.803
		v-54.423C24.911,203.357,30.352,177.508,41.237,153.698"/>
	<path fill="#C19AA0" d="M46,24.445c-0.681-0.688-0.681-1.362-0.681-2.046c0-2.043,2.042-4.076,4.082-4.076h-6.803
		c-2.04,0-4.082,2.033-4.082,4.076c0,0.684,0,1.358,0.681,2.046l10.204,21.089h6.803L46,24.445z"/>
	<path fill="#002663" d="M136.479,148.254c-10.889-23.81-16.33-49.662-16.33-75.511V53.696l11.566-23.132
		c1.361-2.72,2.039-5.441,2.039-8.161c0-9.523-8.164-17.688-17.684-17.688H42.599c-9.523,0-17.688,8.165-17.688,17.688
		c0,2.72,0.681,5.441,2.04,8.161l11.566,23.132v19.046c0,26.53-5.441,51.702-16.326,75.511
		c-11.566,25.853-17.688,53.063-17.688,81.63v54.423c0,11.565,8.842,20.408,20.408,20.408h10.885h87.078h10.881
		c11.566,0,20.408-8.843,20.408-20.408v-54.423C154.163,201.317,148.038,174.106,136.479,148.254 M42.599,18.32h73.473
		c2.039,0,4.078,2.04,4.078,4.083c0,0.681,0,1.358-0.678,2.04l-10.204,21.089H49.401L38.517,24.442v-2.04
		C38.517,20.36,40.556,18.32,42.599,18.32 M109.268,106.756H48.721c2.039-11.566,2.72-22.448,2.72-34.014V59.137h54.425v13.605
		C106.544,84.309,107.906,95.19,109.268,106.756 M140.558,283.629c0,4.079-2.724,6.803-6.803,6.803h-10.881
		c-4.086,0-8.85-2.04-11.566-4.764c-5.441-5.44-12.928-8.842-21.093-8.842H68.448c-8.161,0-15.645,3.401-21.089,8.842
		c-2.72,2.724-7.48,4.764-11.563,4.764H24.911c-4.083,0-6.803-2.724-6.803-6.803v-54.423c0-26.533,5.441-51.698,16.326-75.511
		c4.763-10.885,8.845-21.767,11.566-33.333h66.669c2.718,11.566,6.803,22.448,11.56,33.333
		c10.889,23.813,16.329,49.662,16.329,75.511V283.629z"/>
</g>
</svg>
