<?xml version="1.0" encoding="utf-8"?>
<!-- Generator: Adobe Illustrator 16.0.0, SVG Export Plug-In . SVG Version: 6.00 Build 0)  -->
<!DOCTYPE svg PUBLIC "-//W3C//DTD SVG 1.1//EN" "http://www.w3.org/Graphics/SVG/1.1/DTD/svg11.dtd">
<svg version="1.1" id="toaster" xmlns="http://www.w3.org/2000/svg" xmlns:xlink="http://www.w3.org/1999/xlink" x="0px" y="0px"
	 width="363px" height="310px" viewBox="0 0 363 310" enable-background="new 0 0 363 310" xml:space="preserve">
<g id="toaster_parts">
	<path fill="#B27832" d="M293.526,38.365C293.526,38.365,293.526,37.575,293.526,38.365c0-9.468-7.108-16.58-15.79-16.58H88.263
		c-8.685,0-15.789,7.112-15.789,15.007v0.783c0,6.318,3.947,11.842,9.475,14.213c8.681,3.947,14.209,12.636,14.209,22.104v11.052
		h173.684V74.689c0-10.266,5.528-18.954,14.209-22.107C289.579,49.417,293.526,44.688,293.526,38.365"/>
	<path fill="#014463" d="M277.736,100.737H88.263c-4.737,0-7.895-3.157-7.895-7.895V74.686c0-3.161-1.58-6.318-4.737-7.895
		c-11.052-4.738-18.156-15.79-18.947-28.422v-0.79C56.684,20.209,70.893,6,88.263,6h189.474c17.37,0,30.793,13.422,31.579,30.789
		v0.791c0,12.632-7.895,24.474-18.95,29.212c-2.367,0.786-4.734,3.947-4.734,7.895v18.156
		C285.631,97.58,282.471,100.737,277.736,100.737 M96.158,84.947h173.684V74.686c0-10.266,5.528-18.95,14.209-22.107
		c5.528-2.367,9.476-7.895,9.476-14.209v-0.79c0-8.686-7.108-15.79-15.79-15.79H88.263c-8.685,0-15.789,7.104-15.789,15v0.791
		c0,6.314,3.947,11.842,9.475,14.209c8.681,3.947,14.209,12.632,14.209,22.107V84.947z"/>
	<path fill="#724106" d="M80.368,45.474C80.368,45.474,80.368,44.684,80.368,45.474c0-8.685,7.104-15.79,15.79-15.79h189.473
		c2.367,0,4.734,0.791,6.314,1.581c-2.366-5.528-7.895-9.476-14.209-9.476H88.263c-8.685,0-15.789,7.104-15.789,15v0.791
		c0,6.314,3.947,11.842,9.475,14.209C81.158,50.211,80.368,47.84,80.368,45.474"/>
	<path fill="#F0744D" d="M247.738,97.576c-45.788-6.314-93.156-6.314-138.948,0.798l-39.474,6.306
		c-11.842,1.588-19.737,11.842-19.737,23.684v98.688h268.424v-98.688c0-11.842-8.688-22.096-20.53-23.684L247.738,97.576z"/>
	<path fill="#F7B4AD" d="M96.158,171.789c4.356,0,7.895,3.531,7.895,7.895c0,4.364-3.539,7.896-7.895,7.896
		s-7.895-3.531-7.895-7.896C88.263,175.32,91.802,171.789,96.158,171.789"/>
	<path fill="#C7DDEF" d="M340.895,266.526v-15.79c0-4.733-3.161-7.895-7.895-7.895H33c-4.738,0-7.895,3.161-7.895,7.895v15.79
		c0,4.733,3.157,7.895,7.895,7.895h300C337.733,274.421,340.895,271.26,340.895,266.526"/>
	<path fill="#F7B4AD" d="M96.158,163.895c-4.738,0-7.895-3.161-7.895-7.895v-31.579c0-4.737,3.157-7.895,7.895-7.895
		s7.895,3.157,7.895,7.895V156C104.053,160.733,100.896,163.895,96.158,163.895"/>
	<rect x="333" y="148.105" fill="#99B5CD" width="7.895" height="31.578"/>
	<path fill="#014463" d="M348.789,195.474c4.734,0,7.895-3.161,7.895-7.895V140.21c0-4.738-3.16-7.895-7.895-7.895H333v-3.947
		c0-19.737-14.209-36.316-33.946-38.684l-49.735-7.104c-47.368-7.108-96.317-6.318-143.686,0.787l-39.474,6.318
		C47.209,92.052,33,107.841,33,127.578v99.475c-13.423,0-23.685,10.262-23.685,23.684v15.79c0,13.423,10.262,23.685,23.685,23.685
		h18.946l5.528,11.055c1.576,3.154,3.947,4.734,7.104,4.734h31.579c3.157,0,5.528-1.58,7.104-4.734l5.528-11.055h148.423
		l5.521,11.055c1.581,2.367,3.947,4.734,7.108,4.734h31.579c3.161,0,5.528-1.58,7.108-4.734l5.52-11.055H333
		c13.422,0,23.684-10.262,23.684-23.685v-15.79c0-13.422-10.262-23.684-23.684-23.684v-31.579H348.789z M340.895,179.684H333
		v-31.578h7.895V179.684z M48.789,127.578c0-11.842,8.686-21.313,19.737-23.685L108,97.58c45.788-7.104,93.156-7.104,138.944-0.791
		l49.743,7.104c11.842,1.581,20.523,11.842,20.523,23.685v12.632v47.369v39.474H48.789V127.578z M340.895,250.736v15.79
		c0,4.733-3.161,7.895-7.895,7.895H33c-4.738,0-7.895-3.161-7.895-7.895v-15.79c0-4.733,3.157-7.895,7.895-7.895h7.895h284.211H333
		C337.733,242.842,340.895,246.003,340.895,250.736"/>
	<path fill="#5290BA" d="M333,242.842h-31.579v15.789c0,4.734-3.161,7.896-7.895,7.896H40.895c-4.737,0-7.895-3.161-7.895-7.896
		v-15.789c-4.738,0-7.895,3.161-7.895,7.895v15.79c0,4.733,3.157,7.895,7.895,7.895h300c4.733,0,7.895-3.161,7.895-7.895v-15.79
		C340.895,246.003,337.733,242.842,333,242.842"/>
	<path fill="#FF0000" d="M296.68,104.684l-13.415-1.581c1.573,3.161,2.366,6.318,2.366,9.476v90.789c0,4.733-3.16,7.895-7.895,7.895
		H64.579c-4.738,0-7.895-3.161-7.895-7.895v-93.156c-4.738,4.734-7.895,10.262-7.895,17.366v83.685v7.896v7.895h268.422v-98.685
		C317.211,116.526,308.521,106.265,296.68,104.684"/>
	<path fill="#D1AB7D" d="M183,37.579c4.355,0,7.895,3.527,7.895,7.895c0,4.367-3.539,7.895-7.895,7.895
		c-4.356,0-7.895-3.527-7.895-7.895C175.105,41.106,178.644,37.579,183,37.579"/>
	<path fill="#D1AB7D" d="M246.158,37.579c4.355,0,7.895,3.527,7.895,7.895c0,4.367-3.539,7.895-7.895,7.895
		c-4.356,0-7.896-3.527-7.896-7.895C238.263,41.106,241.802,37.579,246.158,37.579"/>
	<path fill="#D1AB7D" d="M119.842,37.579c4.356,0,7.895,3.527,7.895,7.895c0,4.367-3.539,7.895-7.895,7.895
		c-4.355,0-7.895-3.527-7.895-7.895C111.947,41.106,115.486,37.579,119.842,37.579"/>
	<path fill="#D1AB7D" d="M214.579,61.263c4.355,0,7.895,3.527,7.895,7.895s-3.539,7.895-7.895,7.895
		c-4.356,0-7.896-3.527-7.896-7.895S210.223,61.263,214.579,61.263"/>
	<path fill="#D1AB7D" d="M151.421,61.263c4.356,0,7.895,3.527,7.895,7.895s-3.539,7.895-7.895,7.895s-7.895-3.527-7.895-7.895
		S147.065,61.263,151.421,61.263"/>
</g>
</svg>
