<?xml version="1.0" encoding="utf-8"?>
<!-- Generator: Adobe Illustrator 16.0.0, SVG Export Plug-In . SVG Version: 6.00 Build 0)  -->
<!DOCTYPE svg PUBLIC "-//W3C//DTD SVG 1.1//EN" "http://www.w3.org/Graphics/SVG/1.1/DTD/svg11.dtd">
<svg version="1.1" id="stand_mixer" xmlns="http://www.w3.org/2000/svg" xmlns:xlink="http://www.w3.org/1999/xlink" x="0px"
	 y="0px" width="341px" height="316px" viewBox="0 0 341 316" enable-background="new 0 0 341 316" xml:space="preserve">
<g id="parts_group">
	<path fill="#F46C73" d="M28.5,294h270c4.497,0,7.5-3.003,7.5-7.5s-3.003-7.5-7.5-7.5h-270c-4.501,0-7.5,3.003-7.5,7.5
		S23.999,294,28.5,294"/>
	<path fill="#F46C73" d="M43.5,76.5c0,4.501,2.999,7.5,7.5,7.5h213.003c2.995-6.749,4.497-15,4.497-22.5
		c0-20.999-16.502-37.5-37.5-37.5H81c-20.999,0-37.5,16.501-37.5,37.5V76.5z"/>
	<path fill="#AF0E1E" d="M239.254,24.747c8.994,7.5,14.246,17.256,14.246,29.249c0,3.75,0,6.757-0.747,10.507
		c-1.501,6.746-7.5,11.993-15,11.993H43.5c0,4.501,2.999,7.5,7.5,7.5h213.003c2.995-6.749,4.497-15,4.497-22.5
		C268.5,43.497,255.748,29.255,239.254,24.747"/>
	<path fill="#F46C73" d="M101.251,264c-3-12.752-5.251-25.503-5.251-39.002V106.5c0-2.999,0.751-5.251,1.501-7.5h-36.75
		C64.502,116.249,66,134.251,66,152.251c0,24.752-2.999,49.501-9.749,73.502l-10.5,37.5h55.5V264z"/>
	<path fill="#014463" d="M298.5,264H116.999c-3.75-12.752-5.999-25.503-5.999-39.002V106.5c0-4.501,2.999-7.5,7.5-7.5h150
		c3.003,0,5.252-1.501,6.753-4.501L276,93.001c5.252-9.752,7.5-21.002,7.5-31.501C283.5,32.251,260.253,9,231,9H81
		C51.751,9,28.5,32.251,28.5,61.5v15c0,10.499,6.749,18.75,16.501,21.749C48.751,115.501,51,134.251,51,152.251
		c0,23.251-2.999,47.252-9.001,69.752L30.001,264H28.5C15.749,264,6,273.748,6,286.5S15.749,309,28.5,309h270
		c12.752,0,22.5-9.748,22.5-22.5S311.252,264,298.5,264 M43.5,61.5C43.5,40.501,60.001,24,81,24h150c20.998,0,37.5,16.501,37.5,37.5
		c0,7.5-1.502,15.751-4.497,22.5H118.5H51c-4.501,0-7.5-2.999-7.5-7.5V61.5z M56.251,226.5C63.001,202.498,66,177.003,66,152.251
		c0-18-1.501-36.002-5.251-53.251h36.753c-0.75,2.249-1.501,4.501-1.501,7.5v118.498c0,12.752,1.501,26.25,5.251,39.002H45.749
		L56.251,226.5z M298.5,294h-270c-4.501,0-7.5-3.003-7.5-7.5s2.999-7.5,7.5-7.5H36h75h187.5c4.497,0,7.5,3.003,7.5,7.5
		S302.997,294,298.5,294"/>
	<path fill="#B0C4D8" d="M291,159H156v52.5c0,29.253,23.247,52.5,52.5,52.5h30c29.253,0,52.5-23.247,52.5-52.5V159z"/>
	<path fill="#518EB7" d="M261,159v45c0,29.253-23.247,52.5-52.5,52.5h-26.997c8.247,4.497,17.249,7.5,26.997,7.5h30
		c29.253,0,52.5-23.247,52.5-52.5V159H261z"/>
	<path fill="#014463" d="M313.5,144h-15h-150c-4.501,0-7.5,2.999-7.5,7.5v60c0,37.5,30,67.5,67.5,67.5h30
		c30,0,54.748-19.497,63.75-46.502h0.747L321,219c9.748-6.753,15-18.003,15-30v-22.5C336,153.749,326.252,144,313.5,144 M291,211.5
		c0,29.253-23.247,52.5-52.5,52.5h-30c-29.253,0-52.5-23.247-52.5-52.5V159h135V211.5z M321,189c0,6.753-3.003,13.498-9.002,18.003
		L306,211.5V159h7.5c4.497,0,7.5,3.003,7.5,7.5V189z"/>
	<rect x="201" y="106.5" fill="#B0C4D8" width="15" height="37.5"/>
	<path fill="#014463" d="M253.5,91.5h-30h-30c-4.497,0-7.5,2.999-7.5,7.5v52.5c0,4.501,3.003,7.5,7.5,7.5h30
		c4.497,0,7.5-2.999,7.5-7.5v-45h22.5c4.497,0,7.5-2.999,7.5-7.5S257.997,91.5,253.5,91.5 M216,144h-15v-37.5h15V144z"/>
	<rect x="201" y="106.5" fill="#518EB7" width="15" height="15"/>
	<path fill="#AF0E1E" d="M28.5,294h270c4.497,0,7.5-3.003,7.5-7.5H21C21,290.997,23.999,294,28.5,294"/>
	<path fill="#014463" d="M103.5,54c4.138,0,7.5,3.351,7.5,7.5s-3.362,7.5-7.5,7.5S96,65.649,96,61.5S99.362,54,103.5,54"/>
	<path fill="#014463" d="M133.5,54c4.138,0,7.5,3.351,7.5,7.5s-3.362,7.5-7.5,7.5s-7.5-3.351-7.5-7.5S129.362,54,133.5,54"/>
	<path fill="#014463" d="M73.5,54c4.138,0,7.5,3.351,7.5,7.5S77.638,69,73.5,69S66,65.649,66,61.5S69.362,54,73.5,54"/>
	<path fill="#AF0E1E" d="M96,224.998V106.5c0-3.003,0.751-5.251,1.501-7.5H84.75H60.749c0.75,2.249,0.75,5.248,1.501,7.5h6.749
		c8.251,0,15,6.757,15,15v103.498c0,12.752,1.502,26.25,5.252,39.002h12.748C97.501,251.248,96,238.497,96,224.998"/>
	<path fill="#FCB4AC" d="M137.25,39h-37.5C97.501,39,96,37.499,96,35.25s1.501-3.75,3.75-3.75h37.5c2.249,0,3.75,1.501,3.75,3.75
		S139.499,39,137.25,39"/>
	<path fill="#FCB4AC" d="M84.75,31.5c2.069,0,3.75,1.681,3.75,3.75S86.819,39,84.75,39S81,37.319,81,35.25S82.681,31.5,84.75,31.5"
		/>
</g>
<path fill="#CBE4F7" d="M181.317,236.977c-3.24-4.63-6.632-9.342-8.487-14.733c-1.922-5.585-2.483-11.531-2.75-17.393
	c-0.545-11.951,0.854-23.902,0.92-35.851c0.035-6.45-9.965-6.446-10,0c-0.071,13.053-1.542,26.067-0.746,39.123
	c0.792,12.974,5.042,23.348,12.428,33.9C176.351,247.264,185.025,242.273,181.317,236.977z"/>
<path fill="#FCB4AC" d="M64.5,227c-0.279-4.483-7.281-4.51-7,0c0.612,9.839-4.523,18.451-7.375,27.569
	c-1.351,4.32,5.407,6.154,6.75,1.861C59.933,246.652,65.157,237.561,64.5,227z"/>
</svg>
