<?xml version="1.0" encoding="utf-8"?>
<!-- Generator: Adobe Illustrator 16.0.0, SVG Export Plug-In . SVG Version: 6.00 Build 0)  -->
<!DOCTYPE svg PUBLIC "-//W3C//DTD SVG 1.1//EN" "http://www.w3.org/Graphics/SVG/1.1/DTD/svg11.dtd">
<svg version="1.1" id="wine" xmlns="http://www.w3.org/2000/svg" xmlns:xlink="http://www.w3.org/1999/xlink" x="0px" y="0px"
	 width="311px" height="312px" viewBox="0 0 311 312" enable-background="new 0 0 311 312" xml:space="preserve">
<g id="wine_parts">
	<path fill="#AACC8D" d="M94.636,46.909v45c0,8.18-4.774,15.681-12.954,19.09c-12.954,5.457-21.137,17.728-21.137,31.364v143.181
		c0,4.089,2.727,6.818,6.818,6.818h81.818c4.092,0,6.818-2.729,6.818-6.818V142.364c0-13.636-8.183-25.908-21.137-31.364
		c-8.18-2.727-12.954-10.228-12.954-19.09v-45H94.636z"/>
	<path fill="#558442" d="M135.545,111.682c-8.183-3.409-13.636-10.91-13.636-19.089V46.909h-13.637v45
		c0,8.862,5.454,15.681,13.637,19.09c12.954,5.457,20.455,17.728,20.455,31.364v6.818V156v115.909
		c0,7.497-6.136,13.636-13.636,13.636H60.545c0,4.089,2.727,6.818,6.818,6.818h75h6.818c4.092,0,6.818-2.729,6.818-6.818V142.364
		C156,128.728,147.817,116.456,135.545,111.682"/>
	<path fill="#8C6F5E" d="M156,176.455H60.545v109.09c0,4.089,2.727,6.818,6.818,6.818h81.818c4.092,0,6.818-2.729,6.818-6.818
		V176.455z"/>
	<rect x="94.636" y="19.636" fill="#D98B37" width="27.273" height="13.636"/>
	<rect x="108.272" y="19.636" fill="#9B5923" width="13.637" height="13.636"/>
	<rect x="87.818" y="169.637" fill="#ECEFF9" width="40.909" height="54.545"/>
	<path fill="#014463" d="M12.818,292.363c3.762,0,6.818,3.05,6.818,6.818S16.58,306,12.818,306C9.056,306,6,302.95,6,299.182
		S9.056,292.363,12.818,292.363"/>
	<path fill="#014463" d="M278.728,306H33.272c-4.091,0-6.818-2.73-6.818-6.818s2.727-6.818,6.818-6.818h245.455
		c4.088,0,6.817,2.73,6.817,6.818S282.815,306,278.728,306"/>
	<path fill="#014463" d="M299.182,292.363c3.762,0,6.818,3.05,6.818,6.818S302.943,306,299.182,306s-6.818-3.05-6.818-6.818
		S295.42,292.363,299.182,292.363"/>
	<path fill="#CAD5E3" d="M108.272,176.455c3.762,0,6.818,3.049,6.818,6.817s-3.056,6.818-6.818,6.818
		c-3.762,0-6.818-3.05-6.818-6.818S104.511,176.455,108.272,176.455"/>
	<path fill="#ECEFF9" d="M260.316,142.364h-57.954c-3.409,10.91-4.774,22.499-4.774,34.091c0,19.089,15.002,34.09,34.092,34.09
		c19.089,0,34.09-15.001,34.09-34.09C265.091,164.862,263.726,153.273,260.316,142.364"/>
	<path fill="#96BAE2" d="M260.316,142.364h-11.592c2.044,8.862,3.409,17.724,3.409,27.273c0,19.089-15.001,34.091-34.091,34.091
		c-2.724,0-5.453-0.68-7.498-0.68c6.133,4.768,12.951,7.497,21.135,7.497c19.089,0,34.09-15.001,34.09-34.09
		C265.091,164.862,263.726,153.273,260.316,142.364"/>
	<path fill="#B47AD3" d="M226.905,181.908c-8.177-6.133-21.238-9.574-30.905-1.074c1.588,23.833,17.955,29.711,35.68,29.711
		c14.321,0,29.316-10.92,34.09-23.878C252.813,190.076,236.453,189.412,226.905,181.908"/>
	<path fill="#7C28A3" d="M244.637,189.412c-6.14,8.862-16.367,14.315-27.273,14.315c-2.729,0-7.152-0.228-9.196-0.228
		c6.133,4.768,15.336,7.045,22.833,7.045c14.315,0,28.893-10.587,33.667-23.545C258.528,188.365,250.775,190.77,244.637,189.412"/>
	<path fill="#014463" d="M278.73,176.46c0-14.32-2.051-28.64-6.82-42.28l-0.68-1.36c-0.69-2.05-3.41-4.09-6.141-4.09h-68.18
		c-2.73,0-5.45,2.04-6.141,4.77l-0.68,0.68c-4.77,13.64-6.82,27.959-6.82,42.28c0,23.86,17.73,43.63,40.91,47.04v55.23
		c0,7.489-6.14,13.63-13.64,13.63c-4.08,0-6.81,2.729-6.81,6.819s2.729,6.82,6.81,6.82h40.92c4.08,0,6.81-2.73,6.81-6.82
		s-2.729-6.819-6.81-6.819c-7.5,0-13.64-6.141-13.64-13.63V223.5C261,220.09,278.73,200.32,278.73,176.46z M201.68,142.36h57.96
		c2.021,6.45,3.311,13.13,4.03,19.92c-11.97-4.24-25.95-2.99-36.32,3.729c0,0,0,0-0.01,0c-9.25-3.899-20.22-4.229-29.96-0.97
		C198.03,157.31,199.39,149.68,201.68,142.36z M257.07,175.03c-5.061,1.58-10.44,1.43-15.25-0.45
		C246.71,173.4,252.17,173.56,257.07,175.03z M230.32,210.54c-17.891,0-31.58-13.16-33.24-30.51c8.96-4.87,21.8-4.24,29.15,1.88
		c6.81,5.45,15.68,8.18,24.539,8.18c4.511,0,8.24-0.71,11.711-2.12C257.85,201.24,245.35,210.54,230.32,210.54z"/>
	<path fill="#604033" d="M142.364,176.455v95.454c0,7.497-6.136,13.636-13.636,13.636H60.545c0,4.089,2.727,6.818,6.818,6.818h75
		h6.818c4.092,0,6.818-2.729,6.818-6.818v-109.09H142.364z"/>
	<path fill="#D3BCB2" d="M77.591,271.909L77.591,271.909c-2.044,0-3.409-1.365-3.409-3.409v-20.455c0-2.044,1.365-3.408,3.409-3.408
		S81,246.001,81,248.045V268.5C81,270.544,79.635,271.909,77.591,271.909"/>
	<path fill="#D5E5B1" d="M92.592,123.953c-0.683-2.044-2.727-2.72-4.091-2.044c-8.18,3.409-13.637,11.589-14.319,20.455v3.409
		c0,2.044,1.365,3.409,3.409,3.409c2.048,0,3.409-1.365,3.409-3.409v-3.409c0-6.139,4.092-12.275,9.548-14.312
		C92.592,127.362,93.275,125.318,92.592,123.953"/>
	<path fill="#014463" d="M139.637,98.728c-2.727-1.365-4.092-3.409-4.092-6.136V40.091V12.818c0-4.092-2.727-6.818-6.818-6.818
		H87.818C83.727,6,81,8.727,81,12.818v27.272V91.91c0,2.727-1.365,5.454-4.092,6.136c-18.407,7.5-29.999,25.229-29.999,44.318
		v143.181c0,11.593,8.862,20.455,20.455,20.455h4.091h73.635h4.091c11.593,0,20.455-8.862,20.455-20.455V142.364
		C169.637,123.274,158.044,105.546,139.637,98.728 M94.636,19.636h27.273v13.636H94.636V19.636z M156,285.545
		c0,4.089-2.727,6.818-6.818,6.818h-4.091c-4.092,0-8.862-2.044-11.589-4.773c-5.457-5.453-12.958-8.862-21.137-8.862h-8.183
		c-8.18,0-15.68,3.409-21.137,8.862c-3.409,3.409-7.497,4.773-11.589,4.773h-4.091c-4.092,0-6.818-2.729-6.818-6.818v-109.09h13.636
		V231c0,4.088,2.727,6.818,6.818,6.818h54.545c4.092,0,6.818-2.73,6.818-6.818v-54.545H156V285.545z M87.818,169.637h40.909v54.545
		H87.818V169.637z M156,162.818h-13.636c0-4.088-2.727-6.818-6.818-6.818H81c-4.092,0-6.818,2.73-6.818,6.818H60.545v-20.455
		c0-13.636,8.183-25.908,21.137-31.364c7.5-3.409,12.954-10.91,12.954-19.09v-45h27.273v45c0,8.18,4.774,15.681,12.954,19.09
		C147.817,116.456,156,128.728,156,142.364V162.818z"/>
</g>
<path fill="#E3B3FF" d="M213.728,185.219c-0.273-0.104-0.594-0.092-0.864,0.016c-0.381,0.15-0.682,0.381-0.796,0.796
	c-0.119,0.433,0.055,1.005,0.464,1.243l0,0c0.504,0.631,1.564,0.378,1.931-0.249C214.893,186.291,214.46,185.494,213.728,185.219z"
	/>
<path fill="#E3B3FF" d="M224.12,190.659c-0.028-0.03-0.057-0.061-0.084-0.091c-0.389-0.415-1.098-0.297-1.376,0.178
	c-0.319,0.545,0.082,1.36,0.757,1.317c0.041-0.003,0.083-0.005,0.125-0.008C224.253,192.01,224.625,191.199,224.12,190.659z"/>
<path fill="#E3B3FF" d="M216.833,193.578c-2.479,0-2.479,3.844,0,3.844S219.312,193.578,216.833,193.578z"/>
<path fill="#E3B3FF" d="M222.167,183.609c-1.148,0-1.148,1.781,0,1.781S223.315,183.609,222.167,183.609z"/>
<path fill="#E3B3FF" d="M227.167,186.339c-1.068,0-1.068,1.656,0,1.656S228.235,186.339,227.167,186.339z"/>
<path fill="#E3B3FF" d="M232.5,203.781c-2.217,0-2.217,3.438,0,3.438S234.717,203.781,232.5,203.781z"/>
<path fill="#E3B3FF" d="M231.833,194.365c-1.249,0-1.249,1.938,0,1.938S233.082,194.365,231.833,194.365z"/>
<path fill="#E3B3FF" d="M226,197.464c-0.907,0-0.907,1.406,0,1.406S226.907,197.464,226,197.464z"/>
</svg>
