<svg xmlns="http://www.w3.org/2000/svg" xmlns:xlink="http://www.w3.org/1999/xlink" preserveAspectRatio="xMidYMid" width="34" height="44" viewBox="0 0 34 44">
  <defs>
    <style>

      .cls-3 {
        fill: #8b71b5;
      }
    </style>
  </defs>
  <g id="group-4svg">
    <path d="M31.510,43.016 C31.224,43.016 30.935,42.935 30.679,42.764 C30.679,42.764 0.679,22.764 0.679,22.764 C0.262,22.485 0.011,22.018 0.011,21.516 C0.011,21.014 0.262,20.546 0.679,20.268 C0.679,20.268 30.679,0.268 30.679,0.268 C31.368,-0.194 32.300,-0.006 32.759,0.684 C33.219,1.373 33.033,2.304 32.343,2.764 C32.343,2.764 4.215,21.516 4.215,21.516 C4.215,21.516 32.343,40.268 32.343,40.268 C33.033,40.728 33.219,41.658 32.759,42.348 C32.470,42.781 31.995,43.016 31.510,43.016 Z" id="path-1" class="cls-3" fill-rule="evenodd"/>
  </g>
</svg>
