<svg xmlns="http://www.w3.org/2000/svg" xmlns:xlink="http://www.w3.org/1999/xlink" preserveAspectRatio="xMidYMid" width="64" height="58" viewBox="0 0 64 58">
  <defs>
    <style>

      .cls-3 {
        fill: #e56a77;
      }
    </style>
  </defs>
  <g id="group-26svg">
    <path d="M60.922,58.312 C60.922,58.312 46.000,58.312 46.000,58.312 C45.171,58.312 44.500,57.641 44.500,56.812 C44.500,55.984 45.171,55.312 46.000,55.312 C46.000,55.312 60.020,55.312 60.020,55.312 C60.008,55.151 60.000,54.988 60.000,54.825 C60.000,54.825 60.000,40.312 60.000,40.312 C60.000,39.484 60.671,38.812 61.500,38.812 C62.329,38.812 63.000,39.484 63.000,40.312 C63.000,40.312 63.000,54.825 63.000,54.825 C63.000,55.009 63.020,55.193 63.037,55.368 C63.101,56.027 63.187,56.931 62.536,57.647 C62.261,57.951 61.757,58.312 60.922,58.312 Z" id="path-1" class="cls-3" fill-rule="evenodd"/>
    <path d="M62.177,57.267 C61.793,57.267 61.409,57.120 61.116,56.827 C61.116,56.827 42.940,38.651 42.940,38.651 C42.354,38.065 42.354,37.116 42.940,36.530 C43.526,35.944 44.475,35.944 45.061,36.530 C45.061,36.530 63.237,54.706 63.237,54.706 C63.823,55.292 63.823,56.241 63.237,56.827 C62.944,57.120 62.561,57.267 62.177,57.267 Z" id="path-2" class="cls-3" fill-rule="evenodd"/>
    <path d="M19.000,58.312 C19.000,58.312 5.305,58.312 5.305,58.312 C4.217,58.312 -0.000,57.231 -0.000,54.825 C-0.000,54.825 -0.000,40.312 -0.000,40.312 C-0.000,39.484 0.671,38.812 1.500,38.812 C2.329,38.812 3.000,39.484 3.000,40.312 C3.000,40.312 3.000,54.467 3.000,54.467 C3.505,54.835 4.821,55.309 5.306,55.312 C5.306,55.312 19.000,55.312 19.000,55.312 C19.829,55.312 20.500,55.984 20.500,56.812 C20.500,57.641 19.829,58.312 19.000,58.312 Z" id="path-3" class="cls-3" fill-rule="evenodd"/>
    <path d="M4.050,57.267 C3.666,57.267 3.283,57.120 2.990,56.827 C2.404,56.241 2.404,55.292 2.990,54.706 C2.990,54.706 21.166,36.530 21.166,36.530 C21.752,35.944 22.701,35.944 23.287,36.530 C23.873,37.116 23.873,38.065 23.287,38.651 C23.287,38.651 5.111,56.827 5.111,56.827 C4.818,57.120 4.434,57.267 4.050,57.267 Z" id="path-4" class="cls-3" fill-rule="evenodd"/>
    <path d="M1.500,17.812 C0.671,17.812 -0.000,17.141 -0.000,16.312 C-0.000,16.312 -0.000,2.433 -0.000,2.433 C-0.000,1.876 0.222,1.358 0.624,0.977 C1.511,0.138 2.951,0.217 4.223,0.287 C4.451,0.300 4.658,0.312 4.821,0.312 C4.821,0.312 19.000,0.312 19.000,0.312 C19.829,0.312 20.500,0.984 20.500,1.812 C20.500,2.641 19.829,3.312 19.000,3.312 C19.000,3.312 4.821,3.312 4.821,3.312 C4.613,3.312 4.349,3.299 4.059,3.283 C3.796,3.268 3.360,3.240 3.000,3.249 C3.000,3.249 3.000,16.312 3.000,16.312 C3.000,17.141 2.329,17.812 1.500,17.812 Z" id="path-5" class="cls-3" fill-rule="evenodd"/>
    <path d="M21.743,21.168 C21.359,21.168 20.975,21.021 20.682,20.728 C20.682,20.728 2.506,2.552 2.506,2.552 C1.920,1.966 1.920,1.017 2.506,0.431 C3.092,-0.155 4.041,-0.155 4.627,0.431 C4.627,0.431 22.803,18.607 22.803,18.607 C23.389,19.193 23.389,20.143 22.803,20.728 C22.510,21.021 22.126,21.168 21.743,21.168 Z" id="path-6" class="cls-3" fill-rule="evenodd"/>
    <path d="M61.500,17.812 C60.671,17.812 60.000,17.141 60.000,16.312 C60.000,16.312 60.000,3.312 60.000,3.312 C60.000,3.312 46.000,3.312 46.000,3.312 C45.171,3.312 44.500,2.641 44.500,1.812 C44.500,0.984 45.171,0.312 46.000,0.312 C46.000,0.312 60.438,0.312 60.438,0.312 C60.614,0.312 60.748,0.294 60.850,0.281 C61.164,0.239 61.823,0.156 62.398,0.665 C63.000,1.195 63.000,1.910 63.000,2.433 C63.000,2.433 63.000,16.312 63.000,16.312 C63.000,17.141 62.329,17.812 61.500,17.812 Z" id="path-7" class="cls-3" fill-rule="evenodd"/>
    <path d="M43.517,21.168 C43.133,21.168 42.749,21.021 42.456,20.728 C41.870,20.143 41.870,19.193 42.456,18.607 C42.456,18.607 60.632,0.431 60.632,0.431 C61.218,-0.155 62.167,-0.155 62.753,0.431 C63.339,1.017 63.339,1.966 62.753,2.552 C62.753,2.552 44.577,20.728 44.577,20.728 C44.284,21.021 43.900,21.168 43.517,21.168 Z" id="path-8" class="cls-3" fill-rule="evenodd"/>
  </g>
</svg>
