<svg xmlns="http://www.w3.org/2000/svg" xmlns:xlink="http://www.w3.org/1999/xlink" preserveAspectRatio="xMidYMid" width="66" height="64" viewBox="0 0 66 64">
  <defs>
    <style>

      .cls-3 {
        fill: #e56a77;
      }

      .cls-4 {
        fill: #000000;
      }

      .cls-5 {
        fill: #53ecf4;
      }
    </style>
  </defs>
  <g id="group-51svg">
    <path d="M66.000,56.000 C66.000,60.418 62.418,64.000 58.000,64.000 C58.000,64.000 14.000,64.000 14.000,64.000 C9.582,64.000 6.000,60.418 6.000,56.000 C6.000,56.000 6.000,12.000 6.000,12.000 C6.000,7.582 9.582,4.000 14.000,4.000 C14.000,4.000 58.000,4.000 58.000,4.000 C62.418,4.000 66.000,7.582 66.000,12.000 C66.000,12.000 66.000,56.000 66.000,56.000 Z" id="path-1" class="cls-3" fill-rule="evenodd"/>
    <path d="M53.500,63.000 C53.500,63.000 9.500,63.000 9.500,63.000 C4.262,63.000 -0.000,58.738 -0.000,53.500 C-0.000,53.500 -0.000,9.500 -0.000,9.500 C-0.000,4.262 4.262,-0.000 9.500,-0.000 C9.500,-0.000 53.500,-0.000 53.500,-0.000 C58.738,-0.000 63.000,4.262 63.000,9.500 C63.000,9.500 63.000,53.500 63.000,53.500 C63.000,58.738 58.738,63.000 53.500,63.000 ZM9.500,3.000 C5.916,3.000 3.000,5.916 3.000,9.500 C3.000,9.500 3.000,53.500 3.000,53.500 C3.000,57.084 5.916,60.000 9.500,60.000 C9.500,60.000 53.500,60.000 53.500,60.000 C57.084,60.000 60.000,57.084 60.000,53.500 C60.000,53.500 60.000,9.500 60.000,9.500 C60.000,5.916 57.084,3.000 53.500,3.000 C53.500,3.000 9.500,3.000 9.500,3.000 Z" id="path-2" class="cls-4" fill-rule="evenodd"/>
    <path d="M25.959,33.239 C25.959,33.239 40.500,24.505 40.500,24.505 C41.834,23.731 43.000,24.693 43.000,26.235 C43.000,26.235 43.000,39.885 43.000,39.885 C43.000,41.411 41.865,42.374 40.531,41.632 C40.531,41.632 25.959,33.239 25.959,33.239 Z" id="path-3" class="cls-5" fill-rule="evenodd"/>
    <path d="M37.716,41.389 C37.143,41.389 36.582,41.238 36.052,40.943 C36.052,40.943 21.220,32.544 21.220,32.544 C20.754,32.279 20.464,31.787 20.459,31.252 C20.454,30.717 20.735,30.219 21.196,29.946 C21.196,29.946 35.988,21.213 35.988,21.213 C36.534,20.896 37.128,20.731 37.714,20.731 C39.557,20.731 41.000,22.270 41.000,24.234 C41.000,24.234 41.000,37.885 41.000,37.885 C41.000,39.850 39.558,41.389 37.716,41.389 ZM24.955,31.211 C24.955,31.211 37.520,38.327 37.520,38.327 C37.758,38.459 38.000,38.328 38.000,37.885 C38.000,37.885 38.000,24.234 38.000,24.234 C38.001,23.792 37.777,23.643 37.504,23.803 C37.504,23.803 24.955,31.211 24.955,31.211 Z" id="path-4" class="cls-4" fill-rule="evenodd"/>
  </g>
</svg>
