<svg xmlns="http://www.w3.org/2000/svg" xmlns:xlink="http://www.w3.org/1999/xlink" preserveAspectRatio="xMidYMid" width="47" height="48" viewBox="0 0 47 48">
  <defs>
    <style>

      .cls-3 {
        fill: #8b71b5;
      }
    </style>
  </defs>
  <g id="group-10svg">
    <path d="M44.873,47.739 C44.765,47.739 44.656,47.728 44.549,47.704 C44.549,47.704 12.622,40.633 12.622,40.633 C11.813,40.453 11.303,39.652 11.481,38.844 C11.661,38.034 12.458,37.527 13.271,37.703 C13.271,37.703 42.899,44.266 42.899,44.266 C42.899,44.266 36.337,14.637 36.337,14.637 C36.158,13.828 36.669,13.027 37.478,12.848 C38.285,12.674 39.087,13.178 39.267,13.988 C39.267,13.988 46.338,45.915 46.338,45.915 C46.448,46.415 46.296,46.937 45.934,47.300 C45.649,47.584 45.267,47.739 44.873,47.739 Z" id="path-1" class="cls-3" fill-rule="evenodd"/>
    <path d="M43.927,45.406 C43.543,45.406 43.159,45.260 42.866,44.967 C42.866,44.967 0.440,2.540 0.440,2.540 C-0.146,1.954 -0.146,1.005 0.440,0.419 C1.026,-0.167 1.976,-0.167 2.561,0.419 C2.561,0.419 44.987,42.846 44.987,42.846 C45.573,43.432 45.573,44.381 44.987,44.967 C44.694,45.260 44.310,45.406 43.927,45.406 Z" id="path-2" class="cls-3" fill-rule="evenodd"/>
  </g>
</svg>
