<svg xmlns="http://www.w3.org/2000/svg" xmlns:xlink="http://www.w3.org/1999/xlink" preserveAspectRatio="xMidYMid" width="66" height="65" viewBox="0 0 66 65">
  <defs>
    <style>

      .cls-3 {
        fill: #81bda4;
      }

      .cls-4 {
        fill: #000000;
      }

      .cls-5 {
        fill: #edc951;
      }
    </style>
  </defs>
  <g id="group-41svg">
    <path d="M66.000,57.000 C66.000,61.418 62.418,65.000 58.000,65.000 C58.000,65.000 14.000,65.000 14.000,65.000 C9.582,65.000 6.000,61.418 6.000,57.000 C6.000,57.000 6.000,13.000 6.000,13.000 C6.000,8.582 9.582,5.000 14.000,5.000 C14.000,5.000 58.000,5.000 58.000,5.000 C62.418,5.000 66.000,8.582 66.000,13.000 C66.000,13.000 66.000,57.000 66.000,57.000 Z" id="path-1" class="cls-3" fill-rule="evenodd"/>
    <path d="M53.500,63.000 C53.500,63.000 9.500,63.000 9.500,63.000 C4.262,63.000 -0.000,58.738 -0.000,53.500 C-0.000,53.500 -0.000,9.500 -0.000,9.500 C-0.000,4.262 4.262,-0.000 9.500,-0.000 C9.500,-0.000 53.500,-0.000 53.500,-0.000 C58.738,-0.000 63.000,4.262 63.000,9.500 C63.000,9.500 63.000,53.500 63.000,53.500 C63.000,58.738 58.738,63.000 53.500,63.000 ZM9.500,3.000 C5.916,3.000 3.000,5.916 3.000,9.500 C3.000,9.500 3.000,53.500 3.000,53.500 C3.000,57.084 5.916,60.000 9.500,60.000 C9.500,60.000 53.500,60.000 53.500,60.000 C57.084,60.000 60.000,57.084 60.000,53.500 C60.000,53.500 60.000,9.500 60.000,9.500 C60.000,5.916 57.084,3.000 53.500,3.000 C53.500,3.000 9.500,3.000 9.500,3.000 Z" id="path-2" class="cls-4" fill-rule="evenodd"/>
    <path d="M42.221,20.772 C42.221,20.772 29.856,33.137 29.856,33.137 C28.908,34.085 28.932,35.646 29.909,36.624 C29.909,36.624 42.654,49.370 42.654,49.370 C43.805,50.520 45.706,50.269 46.443,48.869 C46.443,48.869 46.446,48.864 46.446,48.864 C46.932,47.942 46.746,46.792 45.988,46.034 C45.988,46.034 36.211,36.257 36.211,36.257 C35.492,35.539 35.476,34.393 36.172,33.696 C36.172,33.696 45.657,24.210 45.657,24.210 C46.393,23.476 46.543,22.331 46.029,21.394 C46.029,21.394 46.026,21.388 46.026,21.388 C45.246,19.965 43.337,19.656 42.221,20.772 Z" id="path-3" class="cls-5" fill-rule="evenodd"/>
    <path d="M39.389,48.597 C39.389,48.597 39.389,48.597 39.389,48.597 C38.338,48.597 37.346,48.183 36.594,47.431 C36.594,47.431 23.849,34.685 23.849,34.685 C23.099,33.935 22.677,32.943 22.660,31.893 C22.644,30.824 23.048,29.823 23.796,29.075 C23.796,29.075 36.160,16.712 36.160,16.712 C36.879,15.993 37.838,15.597 38.861,15.597 C40.308,15.597 41.642,16.391 42.342,17.668 C43.174,19.183 42.916,21.073 41.718,22.271 C41.718,22.271 32.232,31.757 32.232,31.757 C32.184,31.806 32.159,31.869 32.160,31.946 C32.161,31.999 32.177,32.102 32.270,32.195 C32.270,32.195 42.049,41.974 42.049,41.974 C43.279,43.204 43.571,45.049 42.773,46.563 C42.111,47.819 40.815,48.597 39.389,48.597 ZM38.861,18.597 C38.704,18.597 38.477,18.638 38.281,18.833 C38.281,18.833 25.917,31.197 25.917,31.197 C25.747,31.367 25.656,31.598 25.660,31.847 C25.664,32.113 25.774,32.368 25.970,32.563 C25.970,32.563 38.715,45.310 38.715,45.310 C38.900,45.495 39.140,45.597 39.389,45.597 C39.389,45.597 39.389,45.597 39.389,45.597 C39.540,45.597 39.913,45.556 40.116,45.170 C40.298,44.826 40.219,44.386 39.928,44.095 C39.928,44.095 30.150,34.317 30.150,34.317 C29.525,33.693 29.174,32.867 29.161,31.991 C29.147,31.099 29.485,30.262 30.111,29.636 C30.111,29.636 39.597,20.150 39.597,20.150 C39.861,19.886 39.909,19.470 39.715,19.115 C39.504,18.731 39.136,18.597 38.861,18.597 Z" id="path-4" class="cls-4" fill-rule="evenodd"/>
  </g>
</svg>
