<svg xmlns="http://www.w3.org/2000/svg" xmlns:xlink="http://www.w3.org/1999/xlink" preserveAspectRatio="xMidYMid" width="66" height="65" viewBox="0 0 66 65">
  <defs>
    <style>

      .cls-3 {
        fill: #81bda4;
      }

      .cls-4 {
        fill: #000000;
      }

      .cls-5 {
        fill: #edc951;
      }
    </style>
  </defs>
  <g id="group-40svg">
    <path d="M66.000,57.000 C66.000,61.418 62.418,65.000 58.000,65.000 C58.000,65.000 14.000,65.000 14.000,65.000 C9.582,65.000 6.000,61.418 6.000,57.000 C6.000,57.000 6.000,13.000 6.000,13.000 C6.000,8.582 9.582,5.000 14.000,5.000 C14.000,5.000 58.000,5.000 58.000,5.000 C62.418,5.000 66.000,8.582 66.000,13.000 C66.000,13.000 66.000,57.000 66.000,57.000 Z" id="path-1" class="cls-3" fill-rule="evenodd"/>
    <path d="M53.500,63.000 C53.500,63.000 9.500,63.000 9.500,63.000 C4.262,63.000 -0.000,58.738 -0.000,53.500 C-0.000,53.500 -0.000,9.500 -0.000,9.500 C-0.000,4.262 4.262,-0.000 9.500,-0.000 C9.500,-0.000 53.500,-0.000 53.500,-0.000 C58.738,-0.000 63.000,4.262 63.000,9.500 C63.000,9.500 63.000,53.500 63.000,53.500 C63.000,58.738 58.738,63.000 53.500,63.000 ZM9.500,3.000 C5.916,3.000 3.000,5.916 3.000,9.500 C3.000,9.500 3.000,53.500 3.000,53.500 C3.000,57.084 5.916,60.000 9.500,60.000 C9.500,60.000 53.500,60.000 53.500,60.000 C57.084,60.000 60.000,57.084 60.000,53.500 C60.000,53.500 60.000,9.500 60.000,9.500 C60.000,5.916 57.084,3.000 53.500,3.000 C53.500,3.000 9.500,3.000 9.500,3.000 Z" id="path-2" class="cls-4" fill-rule="evenodd"/>
    <path d="M37.566,20.772 C37.566,20.772 49.932,33.137 49.932,33.137 C50.880,34.085 50.856,35.646 49.879,36.624 C49.879,36.624 37.133,49.370 37.133,49.370 C35.982,50.520 34.081,50.269 33.344,48.869 C33.344,48.869 33.341,48.864 33.341,48.864 C32.855,47.942 33.042,46.792 33.799,46.034 C33.799,46.034 43.577,36.257 43.577,36.257 C44.295,35.539 44.312,34.393 43.615,33.696 C43.615,33.696 34.130,24.210 34.130,24.210 C33.396,23.476 33.244,22.331 33.758,21.394 C33.758,21.394 33.761,21.388 33.761,21.388 C34.541,19.965 36.450,19.656 37.566,20.772 Z" id="path-3" class="cls-5" fill-rule="evenodd"/>
    <path d="M30.398,48.597 C28.971,48.597 27.676,47.819 27.017,46.568 C26.217,45.050 26.508,43.205 27.737,41.975 C27.737,41.975 37.517,32.196 37.517,32.196 C37.646,32.066 37.664,31.865 37.556,31.757 C37.556,31.757 28.069,22.271 28.069,22.271 C26.873,21.073 26.615,19.183 27.442,17.673 C28.145,16.391 29.479,15.597 30.926,15.597 C31.949,15.597 32.908,15.993 33.627,16.712 C33.627,16.712 45.992,29.076 45.992,29.076 C46.740,29.824 47.144,30.824 47.127,31.892 C47.111,32.942 46.689,33.935 45.939,34.685 C45.939,34.685 33.193,47.431 33.193,47.431 C32.441,48.183 31.449,48.597 30.398,48.597 ZM30.926,18.597 C30.651,18.597 30.283,18.731 30.076,19.109 C29.879,19.469 29.927,19.886 30.191,20.151 C30.191,20.151 39.677,29.636 39.677,29.636 C40.957,30.916 40.939,33.016 39.638,34.317 C39.638,34.317 29.859,44.095 29.859,44.095 C29.568,44.386 29.489,44.826 29.668,45.165 C29.874,45.556 30.247,45.597 30.398,45.597 C30.647,45.597 30.887,45.495 31.072,45.310 C31.072,45.310 43.818,32.563 43.818,32.563 C44.014,32.368 44.124,32.113 44.128,31.847 C44.132,31.598 44.040,31.366 43.871,31.197 C43.871,31.197 31.506,18.833 31.506,18.833 C31.311,18.638 31.083,18.597 30.926,18.597 Z" id="path-4" class="cls-4" fill-rule="evenodd"/>
  </g>
</svg>
