<svg xmlns="http://www.w3.org/2000/svg" xmlns:xlink="http://www.w3.org/1999/xlink" preserveAspectRatio="xMidYMid" width="65" height="63" viewBox="0 0 65 63">
  <defs>
    <style>

      .cls-3 {
        fill: #ff917b;
      }

      .cls-4 {
        fill: #000000;
      }
    </style>
  </defs>
  <g id="group-32svg">
    <path d="M7.771,50.252 C7.771,50.252 32.475,8.256 32.475,8.256 C33.833,4.695 38.871,4.688 40.228,8.249 C40.228,8.249 64.932,50.255 64.932,50.255 C65.967,52.971 63.961,55.906 61.055,55.906 C61.055,55.906 11.648,55.906 11.648,55.906 C8.742,55.906 6.736,52.968 7.771,50.252 Z" id="path-1" class="cls-3" fill-rule="evenodd"/>
    <path d="M55.055,52.906 C55.055,52.906 5.648,52.906 5.648,52.906 C3.741,52.906 1.980,52.004 0.939,50.493 C-0.077,49.018 -0.285,47.186 0.370,45.468 C0.400,45.389 0.436,45.312 0.479,45.239 C0.479,45.239 25.124,3.471 25.124,3.471 C25.989,1.351 28.012,-0.012 30.314,-0.012 C32.649,-0.012 34.701,1.372 35.580,3.526 C35.580,3.526 60.223,45.211 60.223,45.211 C60.266,45.284 60.303,45.361 60.333,45.440 C60.990,47.163 60.780,49.003 59.757,50.488 C58.714,52.002 56.956,52.906 55.055,52.906 ZM3.135,46.644 C2.879,47.401 2.975,48.160 3.410,48.791 C3.898,49.500 4.714,49.906 5.648,49.906 C5.648,49.906 55.055,49.906 55.055,49.906 C55.983,49.906 56.796,49.498 57.286,48.786 C57.727,48.146 57.826,47.380 57.569,46.617 C57.569,46.617 32.937,4.951 32.937,4.951 C32.894,4.878 32.856,4.801 32.826,4.722 C32.339,3.443 31.209,2.988 30.314,2.988 C29.188,2.988 28.277,3.615 27.876,4.666 C27.847,4.745 27.810,4.821 27.767,4.895 C27.767,4.895 3.135,46.644 3.135,46.644 Z" id="path-2" class="cls-4" fill-rule="evenodd"/>
    <path d="M55.437,62.906 C55.437,62.906 3.437,62.906 3.437,62.906 C2.609,62.906 1.937,62.234 1.937,61.406 C1.937,60.578 2.609,59.906 3.437,59.906 C3.437,59.906 55.437,59.906 55.437,59.906 C56.266,59.906 56.937,60.578 56.937,61.406 C56.937,62.234 56.266,62.906 55.437,62.906 Z" id="path-3" class="cls-4" fill-rule="evenodd"/>
  </g>
</svg>
