<svg xmlns="http://www.w3.org/2000/svg" xmlns:xlink="http://www.w3.org/1999/xlink" preserveAspectRatio="xMidYMid" width="38" height="65" viewBox="0 0 38 65">
  <defs>
    <style>

      .cls-3 {
        fill: #8b71b5;
      }
    </style>
  </defs>
  <g id="group-7svg">
    <path d="M18.768,64.715 C18.272,64.715 17.809,64.470 17.529,64.061 C17.529,64.061 0.295,38.825 0.295,38.825 C-0.173,38.142 0.003,37.208 0.687,36.741 C1.370,36.276 2.305,36.448 2.771,37.134 C2.771,37.134 18.768,60.556 18.768,60.556 C18.768,60.556 34.765,37.134 34.765,37.134 C35.231,36.448 36.166,36.275 36.849,36.741 C37.533,37.208 37.709,38.142 37.241,38.825 C37.241,38.825 20.006,64.061 20.006,64.061 C19.727,64.470 19.263,64.715 18.768,64.715 Z" id="path-1" class="cls-3" fill-rule="evenodd"/>
    <path d="M18.562,61.000 C17.734,61.000 17.062,60.328 17.062,59.500 C17.062,59.500 17.062,1.500 17.062,1.500 C17.062,0.672 17.734,-0.000 18.562,-0.000 C19.391,-0.000 20.062,0.672 20.062,1.500 C20.062,1.500 20.062,59.500 20.062,59.500 C20.062,60.328 19.391,61.000 18.562,61.000 Z" id="path-2" class="cls-3" fill-rule="evenodd"/>
  </g>
</svg>
