<svg xmlns="http://www.w3.org/2000/svg" xmlns:xlink="http://www.w3.org/1999/xlink" preserveAspectRatio="xMidYMid" width="54" height="65" viewBox="0 0 54 65">
  <defs>
    <style>

      .cls-3 {
        fill: #8b71b5;
      }

      .cls-5 {
        fill: #000000;
      }
    </style>
  </defs>
  <g id="group-37svg">
    <path d="M31.433,6.285 C31.433,6.285 6.874,30.844 6.874,30.844 C4.991,32.728 5.038,35.828 6.979,37.770 C6.979,37.770 32.295,63.085 32.295,63.085 C34.579,65.370 38.355,64.871 39.819,62.090 C39.819,62.090 39.825,62.080 39.825,62.080 C40.790,60.248 40.420,57.965 38.915,56.459 C38.915,56.459 19.495,37.040 19.495,37.040 C18.069,35.614 18.035,33.337 19.418,31.954 C19.418,31.954 38.258,13.114 38.258,13.114 C39.718,11.655 40.018,9.381 38.997,7.520 C38.997,7.520 38.992,7.509 38.992,7.509 C37.442,4.683 33.649,4.069 31.433,6.285 Z" id="path-1" class="cls-3" fill-rule="evenodd"/>
    <path d="M54.125,60.170 C54.125,62.285 52.410,64.000 50.295,64.000 C50.295,64.000 48.955,64.000 48.955,64.000 C46.840,64.000 45.125,62.285 45.125,60.170 C45.125,60.170 45.125,8.830 45.125,8.830 C45.125,6.715 46.840,5.000 48.955,5.000 C48.955,5.000 50.295,5.000 50.295,5.000 C52.410,5.000 54.125,6.715 54.125,8.830 C54.125,8.830 54.125,60.170 54.125,60.170 Z" id="path-2" class="cls-3" fill-rule="evenodd"/>
    <path d="M31.739,63.028 C31.739,63.028 31.739,63.028 31.739,63.028 C30.048,63.028 28.447,62.359 27.234,61.145 C27.234,61.145 1.919,35.831 1.919,35.831 C-0.604,33.308 -0.651,29.249 1.813,26.783 C1.813,26.783 26.372,2.225 26.372,2.225 C27.520,1.076 29.054,0.443 30.689,0.443 C33.023,0.443 35.177,1.725 36.308,3.787 C36.316,3.804 36.325,3.820 36.333,3.837 C37.640,6.257 37.225,9.269 35.318,11.175 C35.318,11.175 16.478,30.015 16.478,30.015 C15.683,30.811 15.717,32.141 16.556,32.979 C16.556,32.979 35.976,52.399 35.976,52.399 C37.959,54.383 38.433,57.349 37.152,59.779 C36.095,61.787 34.022,63.028 31.739,63.028 ZM30.689,3.443 C29.855,3.443 29.075,3.764 28.493,4.346 C28.493,4.346 3.935,28.904 3.935,28.904 C2.640,30.200 2.686,32.356 4.040,33.710 C4.040,33.710 29.355,59.024 29.355,59.024 C30.003,59.672 30.850,60.028 31.739,60.028 C31.739,60.028 31.739,60.028 31.739,60.028 C32.924,60.028 33.952,59.416 34.492,58.392 C35.151,57.141 34.887,55.553 33.854,54.520 C33.854,54.520 14.435,35.101 14.435,35.101 C12.426,33.093 12.392,29.859 14.357,27.894 C14.357,27.894 33.197,9.054 33.197,9.054 C34.192,8.059 34.388,6.526 33.682,5.241 C33.675,5.228 33.667,5.214 33.660,5.200 C33.052,4.115 31.917,3.443 30.689,3.443 Z" id="path-3" class="cls-5" fill-rule="evenodd"/>
    <path d="M46.795,62.000 C46.795,62.000 45.455,62.000 45.455,62.000 C42.516,62.000 40.125,59.609 40.125,56.670 C40.125,56.670 40.125,5.330 40.125,5.330 C40.125,2.391 42.516,-0.000 45.455,-0.000 C45.455,-0.000 46.795,-0.000 46.795,-0.000 C49.734,-0.000 52.125,2.391 52.125,5.330 C52.125,5.330 52.125,56.670 52.125,56.670 C52.125,59.609 49.734,62.000 46.795,62.000 ZM45.455,3.000 C44.170,3.000 43.125,4.045 43.125,5.330 C43.125,5.330 43.125,56.670 43.125,56.670 C43.125,57.955 44.170,59.000 45.455,59.000 C45.455,59.000 46.795,59.000 46.795,59.000 C48.080,59.000 49.125,57.955 49.125,56.670 C49.125,56.670 49.125,5.330 49.125,5.330 C49.125,4.045 48.080,3.000 46.795,3.000 C46.795,3.000 45.455,3.000 45.455,3.000 Z" id="path-4" class="cls-5" fill-rule="evenodd"/>
  </g>
</svg>
