<svg xmlns="http://www.w3.org/2000/svg" xmlns:xlink="http://www.w3.org/1999/xlink" preserveAspectRatio="xMidYMid" width="65" height="38" viewBox="0 0 65 38">
  <defs>
    <style>

      .cls-3 {
        fill: #8b71b5;
      }
    </style>
  </defs>
  <g id="group-8svg">
    <path d="M29.057,38.144 C28.780,38.144 28.501,38.067 28.252,37.908 C28.252,37.908 0.686,20.343 0.686,20.343 C0.254,20.067 -0.008,19.591 -0.008,19.078 C-0.008,18.565 0.254,18.089 0.686,17.813 C0.686,17.813 28.252,0.248 28.252,0.248 C28.946,-0.196 29.876,0.008 30.322,0.707 C30.768,1.405 30.562,2.332 29.863,2.777 C29.863,2.777 4.283,19.078 4.283,19.078 C4.283,19.078 29.863,35.379 29.863,35.379 C30.562,35.824 30.768,36.751 30.322,37.449 C30.037,37.898 29.552,38.144 29.057,38.144 Z" id="path-1" class="cls-3" fill-rule="evenodd"/>
    <path d="M62.969,19.250 C62.969,19.250 2.969,19.250 2.969,19.250 C2.141,19.250 1.469,18.578 1.469,17.750 C1.469,16.922 2.141,16.250 2.969,16.250 C2.969,16.250 62.969,16.250 62.969,16.250 C63.797,16.250 64.469,16.922 64.469,17.750 C64.469,18.578 63.797,19.250 62.969,19.250 Z" id="path-2" class="cls-3" fill-rule="evenodd"/>
  </g>
</svg>
