<svg xmlns="http://www.w3.org/2000/svg" xmlns:xlink="http://www.w3.org/1999/xlink" preserveAspectRatio="xMidYMid" width="43" height="52" viewBox="0 0 43 52">
  <defs>
    <style>

      .cls-3 {
        fill: #e56a77;
      }
    </style>
  </defs>
  <g id="group-19svg">
    <path d="M32.822,51.909 C32.822,51.909 32.822,51.909 32.822,51.909 C32.238,51.909 31.708,51.570 31.462,51.041 C31.462,51.041 22.780,32.359 22.780,32.359 C22.432,31.608 22.757,30.717 23.509,30.367 C24.257,30.021 25.152,30.344 25.501,31.096 C25.501,31.096 32.822,46.850 32.822,46.850 C32.822,46.850 40.145,31.096 40.145,31.096 C40.494,30.344 41.389,30.021 42.137,30.367 C42.889,30.717 43.214,31.608 42.865,32.359 C42.865,32.359 34.183,51.041 34.183,51.041 C33.936,51.570 33.406,51.909 32.822,51.909 Z" id="path-1" class="cls-3" fill-rule="evenodd"/>
    <path d="M33.000,48.500 C32.172,48.500 31.500,47.828 31.500,47.000 C31.500,47.000 31.500,15.220 31.500,15.220 C31.500,8.710 26.208,3.000 20.176,3.000 C20.176,3.000 1.500,3.000 1.500,3.000 C0.672,3.000 -0.000,2.328 -0.000,1.500 C-0.000,0.672 0.672,-0.000 1.500,-0.000 C1.500,-0.000 20.176,-0.000 20.176,-0.000 C27.807,-0.000 34.500,7.112 34.500,15.220 C34.500,15.220 34.500,47.000 34.500,47.000 C34.500,47.828 33.828,48.500 33.000,48.500 Z" id="path-2" class="cls-3" fill-rule="evenodd"/>
  </g>
</svg>
