<svg xmlns="http://www.w3.org/2000/svg" xmlns:xlink="http://www.w3.org/1999/xlink" preserveAspectRatio="xMidYMid" width="57" height="63" viewBox="0 0 57 63">
  <defs>
    <style>

      .cls-3 {
        fill: #e56a77;
      }

      .cls-4 {
        fill: #000000;
      }

      .cls-5 {
        fill: #edc951;
      }
    </style>
  </defs>
  <g id="group-43svg">
    <path d="M6.000,47.000 C6.000,47.000 6.000,63.000 6.000,63.000 C6.000,63.000 57.000,63.000 57.000,63.000 C57.000,63.000 57.000,47.000 57.000,47.000 C57.000,47.000 48.000,47.000 48.000,47.000 C48.000,47.000 48.000,55.000 48.000,55.000 C48.000,55.000 15.000,55.000 15.000,55.000 C15.000,55.000 15.000,47.000 15.000,47.000 C15.000,47.000 6.000,47.000 6.000,47.000 Z" id="path-1" class="cls-3" fill-rule="evenodd"/>
    <path d="M52.500,62.000 C52.500,62.000 1.500,62.000 1.500,62.000 C0.671,62.000 -0.000,61.328 -0.000,60.500 C-0.000,60.500 -0.000,44.500 -0.000,44.500 C-0.000,43.672 0.671,43.000 1.500,43.000 C1.500,43.000 10.500,43.000 10.500,43.000 C11.329,43.000 12.000,43.672 12.000,44.500 C12.000,44.500 12.000,51.000 12.000,51.000 C12.000,51.000 42.000,51.000 42.000,51.000 C42.000,51.000 42.000,44.500 42.000,44.500 C42.000,43.672 42.671,43.000 43.500,43.000 C43.500,43.000 52.500,43.000 52.500,43.000 C53.329,43.000 54.000,43.672 54.000,44.500 C54.000,44.500 54.000,60.500 54.000,60.500 C54.000,61.328 53.329,62.000 52.500,62.000 ZM3.000,59.000 C3.000,59.000 51.000,59.000 51.000,59.000 C51.000,59.000 51.000,46.000 51.000,46.000 C51.000,46.000 45.000,46.000 45.000,46.000 C45.000,46.000 45.000,52.500 45.000,52.500 C45.000,53.328 44.329,54.000 43.500,54.000 C43.500,54.000 10.500,54.000 10.500,54.000 C9.671,54.000 9.000,53.328 9.000,52.500 C9.000,52.500 9.000,46.000 9.000,46.000 C9.000,46.000 3.000,46.000 3.000,46.000 C3.000,46.000 3.000,59.000 3.000,59.000 Z" id="path-2" class="cls-4" fill-rule="evenodd"/>
    <path d="M32.442,46.526 C32.442,46.526 21.026,29.517 21.026,29.517 C19.744,27.611 21.109,25.000 23.406,25.000 C23.406,25.000 27.000,25.000 27.000,25.000 C27.000,25.000 27.000,7.208 27.000,7.208 C27.000,5.327 28.800,3.653 30.675,3.489 C32.815,3.302 35.000,4.982 35.000,7.081 C35.000,7.081 35.000,25.000 35.000,25.000 C35.000,25.000 41.478,25.000 41.478,25.000 C43.775,25.000 45.140,27.611 43.858,29.517 C43.858,29.517 32.442,46.526 32.442,46.526 Z" id="path-3" class="cls-5" fill-rule="evenodd"/>
    <path d="M27.442,46.026 C26.938,46.026 26.469,45.773 26.191,45.354 C26.191,45.354 14.775,28.094 14.775,28.094 C13.850,26.721 13.780,24.905 14.600,23.366 C15.388,21.885 16.811,21.000 18.406,21.000 C18.406,21.000 21.000,21.000 21.000,21.000 C21.000,21.000 21.000,5.209 21.000,5.209 C21.000,2.622 23.310,0.234 26.044,-0.005 C29.132,-0.284 32.000,2.220 32.000,5.081 C32.000,5.081 32.000,21.000 32.000,21.000 C32.000,21.000 36.478,21.000 36.478,21.000 C38.073,21.000 39.496,21.885 40.284,23.366 C41.103,24.905 41.034,26.721 40.102,28.104 C40.102,28.104 28.693,45.354 28.693,45.354 C28.415,45.773 27.945,46.026 27.442,46.026 ZM18.406,24.000 C17.733,24.000 17.372,24.543 17.248,24.776 C17.015,25.213 16.899,25.877 17.270,26.429 C17.270,26.429 27.442,41.808 27.442,41.808 C27.442,41.808 37.607,26.439 37.607,26.439 C37.985,25.877 37.869,25.213 37.636,24.776 C37.512,24.543 37.150,24.000 36.478,24.000 C36.478,24.000 30.500,24.000 30.500,24.000 C29.671,24.000 29.000,23.328 29.000,22.500 C29.000,22.500 29.000,5.081 29.000,5.081 C29.000,3.942 27.659,2.867 26.306,2.983 C25.142,3.085 24.000,4.187 24.000,5.209 C24.000,5.209 24.000,22.500 24.000,22.500 C24.000,23.328 23.329,24.000 22.500,24.000 C22.500,24.000 18.406,24.000 18.406,24.000 Z" id="path-4" class="cls-4" fill-rule="evenodd"/>
  </g>
</svg>
