<svg xmlns="http://www.w3.org/2000/svg" xmlns:xlink="http://www.w3.org/1999/xlink" preserveAspectRatio="xMidYMid" width="63" height="58" viewBox="0 0 63 58">
  <defs>
    <style>

      .cls-3 {
        fill: #e56a77;
      }

      .cls-4 {
        fill: #8b71b5;
      }
    </style>
  </defs>
  <g id="group-13svg">
    <path d="M61.500,57.781 C61.500,57.781 1.500,57.781 1.500,57.781 C0.671,57.781 -0.000,57.109 -0.000,56.281 C-0.000,56.281 -0.000,42.781 -0.000,42.781 C-0.000,41.953 0.671,41.281 1.500,41.281 C2.329,41.281 3.000,41.953 3.000,42.781 C3.000,42.781 3.000,54.781 3.000,54.781 C3.000,54.781 60.000,54.781 60.000,54.781 C60.000,54.781 60.000,42.781 60.000,42.781 C60.000,41.953 60.671,41.281 61.500,41.281 C62.329,41.281 63.000,41.953 63.000,42.781 C63.000,42.781 63.000,56.281 63.000,56.281 C63.000,57.109 62.329,57.781 61.500,57.781 Z" id="path-1" class="cls-3" fill-rule="evenodd"/>
    <path d="M43.301,21.907 C42.805,21.907 42.320,21.662 42.034,21.213 C42.034,21.213 31.213,4.231 31.213,4.231 C31.213,4.231 20.393,21.213 20.393,21.213 C19.948,21.912 19.021,22.118 18.321,21.672 C17.623,21.227 17.417,20.300 17.862,19.602 C17.862,19.602 29.948,0.635 29.948,0.635 C30.499,-0.231 31.928,-0.231 32.478,0.635 C32.478,0.635 44.564,19.602 44.564,19.602 C45.009,20.300 44.804,21.227 44.105,21.672 C43.855,21.831 43.577,21.907 43.301,21.907 Z" id="path-2" class="cls-4" fill-rule="evenodd"/>
    <path d="M31.500,44.281 C30.671,44.281 30.000,43.609 30.000,42.781 C30.000,42.781 30.000,1.781 30.000,1.781 C30.000,0.953 30.671,0.281 31.500,0.281 C32.329,0.281 33.000,0.953 33.000,1.781 C33.000,1.781 33.000,42.781 33.000,42.781 C33.000,43.609 32.329,44.281 31.500,44.281 Z" id="path-3" class="cls-4" fill-rule="evenodd"/>
  </g>
</svg>
