<svg xmlns="http://www.w3.org/2000/svg" xmlns:xlink="http://www.w3.org/1999/xlink" preserveAspectRatio="xMidYMid" width="69" height="63" viewBox="0 0 69 63">
  <defs>
    <style>

      .cls-3 {
        fill: #ff917b;
      }

      .cls-4 {
        fill: #000000;
      }
    </style>
  </defs>
  <g id="group-34svg">
    <path d="M23.226,5.784 C23.226,5.784 65.446,30.449 65.446,30.449 C69.001,31.804 69.154,36.834 65.599,38.189 C65.599,38.189 23.150,62.854 23.150,62.854 C20.438,63.888 17.000,61.886 17.000,58.984 C17.000,58.984 17.000,9.654 17.000,9.654 C17.000,6.752 20.515,4.750 23.226,5.784 Z" id="path-1" class="cls-3" fill-rule="evenodd"/>
    <path d="M15.924,60.630 C12.713,60.630 10.000,58.045 10.000,54.984 C10.000,54.984 10.000,5.654 10.000,5.654 C10.000,2.594 12.731,0.009 15.964,0.009 C16.671,0.009 17.359,0.135 18.011,0.383 C18.088,0.412 18.163,0.448 18.234,0.490 C18.234,0.490 60.230,25.096 60.230,25.096 C62.394,25.978 63.783,28.037 63.783,30.381 C63.783,32.707 62.458,34.673 60.318,35.543 C60.318,35.543 18.187,60.149 18.187,60.149 C18.117,60.191 18.042,60.227 17.965,60.256 C17.314,60.504 16.628,60.630 15.924,60.630 ZM15.964,3.009 C14.562,3.009 13.000,4.095 13.000,5.654 C13.000,5.654 13.000,54.984 13.000,54.984 C13.000,56.543 14.541,57.630 15.924,57.630 C16.224,57.630 16.516,57.583 16.793,57.490 C16.793,57.490 58.904,32.895 58.904,32.895 C58.975,32.853 59.049,32.817 59.126,32.788 C60.164,32.393 60.783,31.492 60.783,30.380 C60.783,29.479 60.324,28.341 59.037,27.850 C58.959,27.820 58.884,27.784 58.813,27.742 C58.813,27.742 16.837,3.148 16.837,3.148 C16.560,3.056 16.266,3.009 15.964,3.009 Z" id="path-2" class="cls-4" fill-rule="evenodd"/>
    <path d="M1.500,57.906 C0.671,57.906 -0.000,57.234 -0.000,56.406 C-0.000,56.406 -0.000,4.406 -0.000,4.406 C-0.000,3.578 0.671,2.906 1.500,2.906 C2.329,2.906 3.000,3.578 3.000,4.406 C3.000,4.406 3.000,56.406 3.000,56.406 C3.000,57.234 2.329,57.906 1.500,57.906 Z" id="path-3" class="cls-4" fill-rule="evenodd"/>
  </g>
</svg>
