<svg xmlns="http://www.w3.org/2000/svg" xmlns:xlink="http://www.w3.org/1999/xlink" preserveAspectRatio="xMidYMid" width="67" height="65" viewBox="0 0 67 65">
  <defs>
    <style>

      .cls-3 {
        fill: #edc951;
      }

      .cls-4 {
        fill: #ffffff;
      }

      .cls-5 {
        fill: #000000;
      }
    </style>
  </defs>
  <g id="group-46svg">
    <path d="M66.493,34.495 C66.493,51.063 53.062,64.495 36.493,64.495 C19.925,64.495 6.493,51.063 6.493,34.495 C6.493,17.926 19.925,4.495 36.493,4.495 C53.062,4.495 66.493,17.926 66.493,34.495 Z" id="path-1" class="cls-3" fill-rule="evenodd"/>
    <path d="M35.275,28.828 C35.275,28.828 46.543,35.083 46.543,35.083 C46.543,35.083 35.218,41.339 35.218,41.339 C34.048,41.785 32.656,40.921 32.656,39.669 C32.656,39.669 32.656,30.497 32.656,30.497 C32.656,29.246 34.105,28.382 35.275,28.828 Z" id="path-2" class="cls-4" fill-rule="evenodd"/>
    <path d="M28.896,39.958 C27.109,39.958 25.656,38.482 25.656,36.669 C25.656,36.669 25.656,27.497 25.656,27.497 C25.656,25.684 27.108,24.208 28.892,24.208 C29.289,24.208 29.681,24.281 30.059,24.425 C30.128,24.451 30.195,24.483 30.260,24.520 C30.260,24.520 41.403,30.775 41.403,30.775 C41.875,31.040 42.168,31.541 42.168,32.083 C42.168,32.625 41.876,33.125 41.403,33.391 C41.403,33.391 30.265,39.646 30.265,39.646 C30.201,39.683 30.134,39.714 30.065,39.740 C29.686,39.885 29.293,39.958 28.896,39.958 ZM28.892,27.208 C28.801,27.208 28.656,27.287 28.656,27.497 C28.656,27.497 28.656,36.669 28.656,36.669 C28.656,36.891 28.810,36.979 28.931,36.955 C28.931,36.955 37.605,32.083 37.605,32.083 C37.605,32.083 28.927,27.211 28.927,27.211 C28.915,27.209 28.903,27.208 28.892,27.208 Z" id="path-3" class="cls-5" fill-rule="evenodd"/>
    <path d="M31.493,62.995 C14.124,62.995 -0.007,48.864 -0.007,31.495 C-0.007,14.126 14.124,-0.005 31.493,-0.005 C48.862,-0.005 62.993,14.126 62.993,31.495 C62.993,48.864 48.862,62.995 31.493,62.995 ZM31.493,2.995 C15.778,2.995 2.993,15.780 2.993,31.495 C2.993,47.210 15.778,59.995 31.493,59.995 C47.208,59.995 59.993,47.210 59.993,31.495 C59.993,15.780 47.208,2.995 31.493,2.995 Z" id="path-4" class="cls-5" fill-rule="evenodd"/>
  </g>
</svg>
