<svg xmlns="http://www.w3.org/2000/svg" xmlns:xlink="http://www.w3.org/1999/xlink" preserveAspectRatio="xMidYMid" width="65" height="38" viewBox="0 0 65 38">
  <defs>
    <style>

      .cls-3 {
        fill: #8b71b5;
      }
    </style>
  </defs>
  <g id="group-9svg">
    <path d="M35.904,38.153 C35.409,38.153 34.925,37.908 34.639,37.460 C34.193,36.761 34.398,35.834 35.097,35.389 C35.097,35.389 60.687,19.078 60.687,19.078 C60.687,19.078 35.097,2.768 35.097,2.768 C34.398,2.322 34.193,1.395 34.639,0.696 C35.085,-0.002 36.013,-0.206 36.710,0.238 C36.710,0.238 64.285,17.813 64.285,17.813 C64.717,18.089 64.978,18.565 64.978,19.078 C64.978,19.591 64.717,20.067 64.285,20.343 C64.285,20.343 36.710,37.918 36.710,37.918 C36.460,38.077 36.181,38.153 35.904,38.153 Z" id="path-1" class="cls-3" fill-rule="evenodd"/>
    <path d="M61.500,19.250 C61.500,19.250 1.500,19.250 1.500,19.250 C0.672,19.250 -0.000,18.578 -0.000,17.750 C-0.000,16.922 0.672,16.250 1.500,16.250 C1.500,16.250 61.500,16.250 61.500,16.250 C62.328,16.250 63.000,16.922 63.000,17.750 C63.000,18.578 62.328,19.250 61.500,19.250 Z" id="path-2" class="cls-3" fill-rule="evenodd"/>
  </g>
</svg>
