<svg xmlns="http://www.w3.org/2000/svg" xmlns:xlink="http://www.w3.org/1999/xlink" preserveAspectRatio="xMidYMid" width="67" height="65" viewBox="0 0 67 65">
  <defs>
    <style>

      .cls-3 {
        fill: #edc951;
      }

      .cls-4 {
        fill: #ffffff;
      }

      .cls-5 {
        fill: #000000;
      }
    </style>
  </defs>
  <g id="group-47svg">
    <path d="M66.486,34.495 C66.486,51.063 53.055,64.495 36.486,64.495 C19.918,64.495 6.486,51.063 6.486,34.495 C6.486,17.926 19.918,4.495 36.486,4.495 C53.055,4.495 66.486,17.926 66.486,34.495 Z" id="path-1" class="cls-3" fill-rule="evenodd"/>
    <path d="M38.662,41.326 C38.662,41.326 27.894,35.071 27.894,35.071 C27.894,35.071 38.470,28.815 38.470,28.815 C39.639,28.369 40.281,29.233 40.281,30.484 C40.281,30.484 40.281,39.657 40.281,39.657 C40.281,40.909 39.832,41.772 38.662,41.326 Z" id="path-2" class="cls-4" fill-rule="evenodd"/>
    <path d="M34.503,39.945 C34.135,39.945 33.756,39.872 33.378,39.728 C33.305,39.699 33.233,39.666 33.165,39.627 C33.165,39.627 22.271,33.372 22.271,33.372 C21.807,33.105 21.520,32.611 21.519,32.075 C21.518,31.539 21.802,31.044 22.265,30.774 C22.265,30.774 33.028,24.518 33.028,24.518 C33.099,24.477 33.173,24.441 33.249,24.412 C33.627,24.269 34.009,24.196 34.384,24.196 C36.035,24.196 37.281,25.609 37.281,27.484 C37.281,27.484 37.281,36.656 37.281,36.656 C37.281,38.593 36.139,39.945 34.503,39.945 ZM26.017,32.063 C26.017,32.063 34.274,36.805 34.274,36.805 C34.279,36.761 34.281,36.711 34.281,36.656 C34.281,36.656 34.281,27.484 34.281,27.484 C34.281,27.398 34.272,27.327 34.262,27.270 C34.262,27.270 26.017,32.063 26.017,32.063 Z" id="path-3" class="cls-5" fill-rule="evenodd"/>
    <path d="M31.486,62.995 C14.117,62.995 -0.014,48.864 -0.014,31.495 C-0.014,14.126 14.117,-0.005 31.486,-0.005 C48.855,-0.005 62.986,14.126 62.986,31.495 C62.986,48.864 48.855,62.995 31.486,62.995 ZM31.486,2.995 C15.771,2.995 2.986,15.780 2.986,31.495 C2.986,47.210 15.771,59.995 31.486,59.995 C47.201,59.995 59.986,47.210 59.986,31.495 C59.986,15.780 47.201,2.995 31.486,2.995 Z" id="path-4" class="cls-5" fill-rule="evenodd"/>
  </g>
</svg>
