<svg xmlns="http://www.w3.org/2000/svg" xmlns:xlink="http://www.w3.org/1999/xlink" preserveAspectRatio="xMidYMid" width="40" height="64" viewBox="0 0 40 64">
  <defs>
    <style>

      .cls-3 {
        fill: #99746a;
      }

      .cls-4 {
        fill: #e56a77;
      }
    </style>
  </defs>
  <g id="group-24svg">
    <path d="M31.562,63.967 C31.050,63.967 30.538,63.771 30.147,63.381 C30.147,63.381 0.862,34.096 0.862,34.096 C-0.312,32.922 -0.312,31.013 0.862,29.839 C0.862,29.839 30.147,0.553 30.147,0.553 C30.928,-0.229 32.194,-0.229 32.976,0.553 C33.757,1.334 33.757,2.600 32.976,3.381 C32.976,3.381 4.390,31.967 4.390,31.967 C4.390,31.967 32.976,60.553 32.976,60.553 C33.757,61.334 33.757,62.600 32.976,63.381 C32.585,63.771 32.073,63.967 31.562,63.967 Z" id="path-1" class="cls-3" fill-rule="evenodd"/>
    <path d="M38.417,56.679 C38.034,56.679 37.650,56.532 37.357,56.239 C37.357,56.239 14.145,33.027 14.145,33.027 C13.864,32.746 13.706,32.364 13.706,31.967 C13.706,31.569 13.864,31.187 14.145,30.906 C14.145,30.906 37.357,7.695 37.357,7.695 C37.943,7.109 38.892,7.109 39.478,7.695 C40.064,8.281 40.064,9.230 39.478,9.816 C39.478,9.816 17.327,31.967 17.327,31.967 C17.327,31.967 39.478,54.118 39.478,54.118 C40.064,54.704 40.064,55.653 39.478,56.239 C39.185,56.532 38.801,56.679 38.417,56.679 Z" id="path-2" class="cls-4" fill-rule="evenodd"/>
  </g>
</svg>
