<svg xmlns="http://www.w3.org/2000/svg" xmlns:xlink="http://www.w3.org/1999/xlink" preserveAspectRatio="xMidYMid" width="67" height="51" viewBox="0 0 67 51">
  <defs>
    <style>

      .cls-3 {
        fill: #53ecf4;
      }

      .cls-4 {
        fill: #000000;
      }
    </style>
  </defs>
  <g id="group-29svg">
    <path d="M52.388,27.437 C52.388,27.437 66.507,27.437 66.507,27.437 C66.507,27.437 47.905,5.758 47.905,5.758 C46.697,4.550 44.739,4.463 43.531,5.671 C43.531,5.671 24.931,27.437 24.931,27.437 C24.931,27.437 39.982,27.437 39.982,27.437 C35.850,34.437 28.409,39.148 19.894,39.148 C14.920,39.148 10.309,37.819 6.507,35.186 C9.617,44.548 18.440,51.100 28.848,51.100 C41.821,51.100 52.343,41.437 52.388,27.437 Z" id="path-1" class="cls-3" fill-rule="evenodd"/>
    <path d="M23.848,49.288 C12.963,49.288 3.413,42.555 0.083,32.533 C-0.120,31.921 0.091,31.247 0.607,30.860 C1.125,30.473 1.830,30.461 2.361,30.827 C5.780,33.196 9.997,34.397 14.894,34.397 C21.546,34.397 27.958,31.021 32.176,25.437 C32.176,25.437 19.931,25.437 19.931,25.437 C19.345,25.437 18.812,25.096 18.567,24.563 C18.323,24.030 18.411,23.404 18.793,22.960 C18.793,22.960 37.394,1.318 37.394,1.318 C37.418,1.290 37.444,1.262 37.471,1.235 C38.274,0.432 39.354,-0.011 40.512,-0.011 C41.780,-0.011 43.039,0.520 43.966,1.447 C43.991,1.472 44.015,1.498 44.038,1.524 C44.038,1.524 62.509,22.804 62.509,22.804 C62.826,23.079 63.026,23.484 63.026,23.937 C63.026,24.766 62.355,25.437 61.526,25.437 C61.521,25.438 61.515,25.438 61.507,25.437 C61.507,25.437 48.844,25.437 48.844,25.437 C48.088,39.137 37.581,49.288 23.848,49.288 ZM4.690,35.496 C8.515,42.086 15.760,46.288 23.848,46.288 C36.372,46.288 45.847,36.678 45.888,23.933 C45.891,23.106 46.561,22.437 47.388,22.437 C47.388,22.437 58.219,22.437 58.219,22.437 C58.219,22.437 41.812,3.537 41.812,3.537 C41.177,2.931 40.175,2.810 39.625,3.324 C39.625,3.324 23.198,22.437 23.198,22.437 C23.198,22.437 34.982,22.437 34.982,22.437 C35.520,22.437 36.019,22.727 36.285,23.193 C36.552,23.661 36.548,24.236 36.274,24.700 C31.650,32.532 23.458,37.397 14.894,37.397 C11.143,37.397 7.727,36.760 4.690,35.496 Z" id="path-2" class="cls-4" fill-rule="evenodd"/>
  </g>
</svg>
