<svg xmlns="http://www.w3.org/2000/svg" xmlns:xlink="http://www.w3.org/1999/xlink" preserveAspectRatio="xMidYMid" width="61" height="45" viewBox="0 0 61 45">
  <defs>
    <style>

      .cls-3 {
        fill: #99746a;
      }
    </style>
  </defs>
  <g id="group-14svg">
    <path d="M1.976,19.153 C1.511,19.153 1.044,18.992 0.665,18.664 C-0.169,17.939 -0.258,16.677 0.466,15.843 C0.466,15.843 13.620,0.688 13.620,0.688 C14.000,0.250 14.551,-0.001 15.130,-0.001 C15.130,-0.001 15.131,-0.001 15.131,-0.001 C15.710,-0.001 16.261,0.251 16.641,0.688 C16.641,0.688 29.788,15.843 29.788,15.843 C30.512,16.677 30.422,17.940 29.588,18.664 C28.754,19.388 27.491,19.299 26.767,18.464 C26.767,18.464 15.130,5.051 15.130,5.051 C15.130,5.051 3.487,18.464 3.487,18.464 C3.091,18.920 2.535,19.153 1.976,19.153 Z" id="path-1" class="cls-3" fill-rule="evenodd"/>
    <path d="M36.396,44.257 C23.134,44.257 12.344,33.611 12.344,20.525 C12.344,20.525 12.344,2.781 12.344,2.781 C12.344,1.677 13.239,0.781 14.344,0.781 C15.448,0.781 16.344,1.677 16.344,2.781 C16.344,2.781 16.344,20.525 16.344,20.525 C16.344,31.405 25.339,40.257 36.396,40.257 C47.454,40.257 56.450,31.356 56.450,20.417 C56.450,19.312 57.345,18.417 58.450,18.417 C59.554,18.417 60.450,19.312 60.450,20.417 C60.450,33.562 49.660,44.257 36.396,44.257 Z" id="path-2" class="cls-3" fill-rule="evenodd"/>
  </g>
</svg>
