<svg xmlns="http://www.w3.org/2000/svg" xmlns:xlink="http://www.w3.org/1999/xlink" preserveAspectRatio="xMidYMid" width="66" height="64" viewBox="0 0 66 64">
  <defs>
    <style>

      .cls-3 {
        fill: #e56a77;
      }

      .cls-4 {
        fill: #000000;
      }

      .cls-5 {
        fill: #53ecf4;
      }
    </style>
  </defs>
  <g id="group-48svg">
    <path d="M66.000,56.000 C66.000,60.418 62.418,64.000 58.000,64.000 C58.000,64.000 14.000,64.000 14.000,64.000 C9.582,64.000 6.000,60.418 6.000,56.000 C6.000,56.000 6.000,12.000 6.000,12.000 C6.000,7.582 9.582,4.000 14.000,4.000 C14.000,4.000 58.000,4.000 58.000,4.000 C62.418,4.000 66.000,7.582 66.000,12.000 C66.000,12.000 66.000,56.000 66.000,56.000 Z" id="path-1" class="cls-3" fill-rule="evenodd"/>
    <path d="M53.500,63.000 C53.500,63.000 9.500,63.000 9.500,63.000 C4.262,63.000 -0.000,58.738 -0.000,53.500 C-0.000,53.500 -0.000,9.500 -0.000,9.500 C-0.000,4.262 4.262,-0.000 9.500,-0.000 C9.500,-0.000 53.500,-0.000 53.500,-0.000 C58.738,-0.000 63.000,4.262 63.000,9.500 C63.000,9.500 63.000,53.500 63.000,53.500 C63.000,58.738 58.738,63.000 53.500,63.000 ZM9.500,3.000 C5.916,3.000 3.000,5.916 3.000,9.500 C3.000,9.500 3.000,53.500 3.000,53.500 C3.000,57.084 5.916,60.000 9.500,60.000 C9.500,60.000 53.500,60.000 53.500,60.000 C57.084,60.000 60.000,57.084 60.000,53.500 C60.000,53.500 60.000,9.500 60.000,9.500 C60.000,5.916 57.084,3.000 53.500,3.000 C53.500,3.000 9.500,3.000 9.500,3.000 Z" id="path-2" class="cls-4" fill-rule="evenodd"/>
    <path d="M36.437,26.931 C36.437,26.931 45.172,41.986 45.172,41.986 C45.945,43.320 44.983,45.000 43.441,45.000 C43.441,45.000 29.792,45.000 29.792,45.000 C28.266,45.000 27.302,43.351 28.044,42.018 C28.044,42.018 36.437,26.931 36.437,26.931 Z" id="path-3" class="cls-5" fill-rule="evenodd"/>
    <path d="M38.441,44.000 C38.441,44.000 24.792,44.000 24.792,44.000 C23.492,44.000 22.347,43.372 21.728,42.321 C21.143,41.323 21.144,40.096 21.733,39.038 C21.733,39.038 30.132,24.192 30.132,24.192 C30.395,23.726 30.888,23.436 31.424,23.431 C31.950,23.451 32.458,23.707 32.729,24.169 C32.729,24.169 41.464,38.975 41.464,38.975 C42.084,40.043 42.102,41.281 41.518,42.295 C40.903,43.362 39.753,44.000 38.441,44.000 ZM31.465,27.929 C31.465,27.929 24.350,40.506 24.350,40.506 C24.249,40.687 24.299,40.772 24.315,40.801 C24.372,40.897 24.526,41.000 24.792,41.000 C24.792,41.000 38.441,41.000 38.441,41.000 C38.707,41.000 38.862,40.895 38.919,40.798 C38.935,40.770 38.986,40.681 38.874,40.489 C38.874,40.489 31.465,27.929 31.465,27.929 Z" id="path-4" class="cls-4" fill-rule="evenodd"/>
  </g>
</svg>
