<svg xmlns="http://www.w3.org/2000/svg" xmlns:xlink="http://www.w3.org/1999/xlink" preserveAspectRatio="xMidYMid" width="65" height="41" viewBox="0 0 65 41">
  <defs>
    <style>

      .cls-3 {
        fill: #99746a;
      }

      .cls-4 {
        fill: #e56a77;
      }
    </style>
  </defs>
  <g id="group-23svg">
    <path d="M31.977,39.935 C31.206,39.935 30.435,39.641 29.848,39.054 C29.848,39.054 0.562,9.769 0.562,9.769 C-0.219,8.987 -0.219,7.722 0.562,6.940 C1.343,6.159 2.609,6.159 3.391,6.940 C3.391,6.940 31.977,35.525 31.977,35.525 C31.977,35.525 60.562,6.940 60.562,6.940 C61.343,6.159 62.609,6.159 63.391,6.940 C64.172,7.722 64.172,8.987 63.391,9.769 C63.391,9.769 34.105,39.054 34.105,39.054 C33.519,39.641 32.748,39.935 31.977,39.935 Z" id="path-1" class="cls-3" fill-rule="evenodd"/>
    <path d="M31.977,26.210 C31.579,26.210 31.197,26.052 30.916,25.770 C30.916,25.770 7.705,2.559 7.705,2.559 C7.119,1.973 7.119,1.023 7.705,0.437 C8.290,-0.148 9.240,-0.148 9.826,0.437 C9.826,0.437 31.977,22.589 31.977,22.589 C31.977,22.589 54.127,0.437 54.127,0.437 C54.713,-0.148 55.663,-0.148 56.249,0.437 C56.834,1.023 56.834,1.973 56.249,2.559 C56.249,2.559 33.037,25.770 33.037,25.770 C32.756,26.052 32.374,26.210 31.977,26.210 Z" id="path-2" class="cls-4" fill-rule="evenodd"/>
  </g>
</svg>
