<svg xmlns="http://www.w3.org/2000/svg" xmlns:xlink="http://www.w3.org/1999/xlink" preserveAspectRatio="xMidYMid" width="66" height="64" viewBox="0 0 66 64">
  <defs>
    <style>

      .cls-3 {
        fill: #81bda4;
      }

      .cls-4 {
        fill: #000000;
      }

      .cls-5 {
        fill: #edc951;
      }
    </style>
  </defs>
  <g id="group-38svg">
    <path d="M66.000,56.000 C66.000,60.418 62.418,64.000 58.000,64.000 C58.000,64.000 14.000,64.000 14.000,64.000 C9.582,64.000 6.000,60.418 6.000,56.000 C6.000,56.000 6.000,12.000 6.000,12.000 C6.000,7.581 9.582,4.000 14.000,4.000 C14.000,4.000 58.000,4.000 58.000,4.000 C62.418,4.000 66.000,7.581 66.000,12.000 C66.000,12.000 66.000,56.000 66.000,56.000 Z" id="path-1" class="cls-3" fill-rule="evenodd"/>
    <path d="M53.500,63.000 C53.500,63.000 9.500,63.000 9.500,63.000 C4.262,63.000 -0.000,58.738 -0.000,53.500 C-0.000,53.500 -0.000,9.500 -0.000,9.500 C-0.000,4.262 4.262,-0.000 9.500,-0.000 C9.500,-0.000 53.500,-0.000 53.500,-0.000 C58.738,-0.000 63.000,4.262 63.000,9.500 C63.000,9.500 63.000,53.500 63.000,53.500 C63.000,58.738 58.738,63.000 53.500,63.000 ZM9.500,3.000 C5.916,3.000 3.000,5.916 3.000,9.500 C3.000,9.500 3.000,53.500 3.000,53.500 C3.000,57.084 5.916,60.000 9.500,60.000 C9.500,60.000 53.500,60.000 53.500,60.000 C57.084,60.000 60.000,57.084 60.000,53.500 C60.000,53.500 60.000,9.500 60.000,9.500 C60.000,5.916 57.084,3.000 53.500,3.000 C53.500,3.000 9.500,3.000 9.500,3.000 Z" id="path-2" class="cls-4" fill-rule="evenodd"/>
    <path d="M51.042,38.427 C51.042,38.427 38.677,26.062 38.677,26.062 C37.728,25.114 36.167,25.138 35.189,26.115 C35.189,26.115 22.443,38.861 22.443,38.861 C21.293,40.012 21.545,41.913 22.944,42.650 C22.944,42.650 22.950,42.653 22.950,42.653 C23.872,43.138 25.021,42.952 25.779,42.194 C25.779,42.194 35.558,32.417 35.558,32.417 C36.275,31.699 37.422,31.682 38.118,32.378 C38.118,32.378 47.603,41.863 47.603,41.863 C48.338,42.599 49.483,42.750 50.420,42.236 C50.420,42.236 50.426,42.233 50.426,42.233 C51.849,41.453 52.158,39.543 51.042,38.427 Z" id="path-3" class="cls-5" fill-rule="evenodd"/>
    <path d="M19.041,42.421 C18.436,42.421 17.836,42.277 17.301,42.005 C17.281,41.996 17.263,41.986 17.244,41.977 C16.167,41.408 15.443,40.389 15.261,39.178 C15.075,37.951 15.495,36.688 16.383,35.801 C16.383,35.801 29.129,23.055 29.129,23.055 C29.894,22.288 30.908,21.866 31.981,21.866 C33.026,21.866 34.005,22.270 34.737,23.002 C34.737,23.002 47.103,35.367 47.103,35.367 C47.959,36.223 48.351,37.409 48.178,38.622 C48.000,39.872 47.260,40.938 46.147,41.549 C45.561,41.870 44.905,42.039 44.248,42.039 C44.248,42.039 44.248,42.039 44.248,42.039 C43.222,42.039 42.261,41.643 41.542,40.923 C41.542,40.923 32.058,31.438 32.058,31.438 C31.975,31.355 31.846,31.252 31.618,31.478 C31.618,31.478 21.840,41.255 21.840,41.255 C21.099,41.996 20.079,42.421 19.041,42.421 ZM18.618,39.310 C18.629,39.314 18.640,39.320 18.650,39.325 C18.981,39.501 19.433,39.419 19.719,39.134 C19.719,39.134 29.497,29.356 29.497,29.356 C30.757,28.097 32.939,28.076 34.179,29.317 C34.179,29.317 43.664,38.803 43.664,38.803 C43.921,39.059 44.355,39.110 44.698,38.921 C44.980,38.767 45.164,38.504 45.208,38.198 C45.230,38.040 45.231,37.738 44.981,37.489 C44.981,37.489 32.616,25.123 32.616,25.123 C32.265,24.774 31.628,24.798 31.250,25.176 C31.250,25.176 18.504,37.922 18.504,37.922 C18.283,38.143 18.183,38.437 18.226,38.729 C18.249,38.877 18.330,39.145 18.618,39.310 Z" id="path-4" class="cls-4" fill-rule="evenodd"/>
  </g>
</svg>
