<svg xmlns="http://www.w3.org/2000/svg" xmlns:xlink="http://www.w3.org/1999/xlink" preserveAspectRatio="xMidYMid" width="67" height="51" viewBox="0 0 67 51">
  <defs>
    <style>

      .cls-3 {
        fill: #53ecf4;
      }

      .cls-4 {
        fill: #000000;
      }
    </style>
  </defs>
  <g id="group-28svg">
    <path d="M20.592,28.500 C20.592,28.500 6.473,28.500 6.473,28.500 C6.473,28.500 25.074,50.161 25.074,50.161 C26.282,51.369 28.240,51.465 29.448,50.257 C29.448,50.257 48.049,28.500 48.049,28.500 C48.049,28.500 32.996,28.500 32.996,28.500 C37.130,21.500 44.570,16.771 53.085,16.771 C58.060,16.771 62.671,18.090 66.473,20.724 C63.362,11.362 54.539,4.823 44.132,4.823 C31.157,4.823 20.637,14.500 20.592,28.500 Z" id="path-1" class="cls-3" fill-rule="evenodd"/>
    <path d="M22.233,49.303 C21.017,49.303 19.873,48.830 19.014,47.973 C18.985,47.943 18.957,47.913 18.931,47.882 C18.931,47.882 0.329,25.971 0.329,25.971 C-0.049,25.525 -0.134,24.900 0.111,24.370 C0.356,23.840 0.888,23.500 1.473,23.500 C1.473,23.500 14.136,23.500 14.136,23.500 C14.901,10.006 25.405,0.011 39.132,0.011 C49.864,0.011 59.353,6.787 62.819,16.899 C62.930,17.108 62.992,17.547 62.992,17.800 C62.992,18.628 62.321,19.500 61.492,19.500 C61.488,19.500 61.480,19.500 61.473,19.500 C61.175,19.500 60.876,19.211 60.618,19.033 C57.018,16.539 52.685,15.121 48.085,15.121 C41.205,15.121 34.927,18.145 30.816,23.500 C30.816,23.500 43.049,23.500 43.049,23.500 C43.634,23.500 44.165,23.840 44.410,24.370 C44.655,24.901 44.570,25.526 44.191,25.972 C44.191,25.972 25.591,47.854 25.591,47.854 C25.565,47.885 25.537,47.915 25.509,47.943 C24.633,48.820 23.470,49.303 22.233,49.303 ZM21.171,45.886 C21.761,46.438 22.755,46.421 23.351,45.857 C23.351,45.857 39.805,26.500 39.805,26.500 C39.805,26.500 27.997,26.500 27.997,26.500 C27.459,26.500 26.961,26.211 26.694,25.744 C26.428,25.276 26.432,24.701 26.705,24.237 C31.222,16.588 39.214,12.020 48.085,12.020 C51.681,12.020 55.139,12.735 58.286,14.112 C54.427,7.335 47.177,3.011 39.132,3.011 C26.402,3.011 17.133,12.261 17.091,25.005 C17.088,25.831 16.417,26.500 15.591,26.500 C15.591,26.500 4.714,26.500 4.714,26.500 C4.714,26.500 21.171,45.886 21.171,45.886 Z" id="path-2" class="cls-4" fill-rule="evenodd"/>
  </g>
</svg>
