<svg xmlns="http://www.w3.org/2000/svg" xmlns:xlink="http://www.w3.org/1999/xlink" preserveAspectRatio="xMidYMid" width="67" height="64" viewBox="0 0 67 64">
  <defs>
    <style>

      .cls-3 {
        fill: #e56a77;
      }

      .cls-4 {
        fill: #000000;
      }

      .cls-5 {
        fill: #53ecf4;
      }
    </style>
  </defs>
  <g id="group-49svg">
    <path d="M67.000,56.000 C67.000,60.418 63.418,64.000 59.000,64.000 C59.000,64.000 15.000,64.000 15.000,64.000 C10.582,64.000 7.000,60.418 7.000,56.000 C7.000,56.000 7.000,12.000 7.000,12.000 C7.000,7.582 10.582,4.000 15.000,4.000 C15.000,4.000 59.000,4.000 59.000,4.000 C63.418,4.000 67.000,7.582 67.000,12.000 C67.000,12.000 67.000,56.000 67.000,56.000 Z" id="path-1" class="cls-3" fill-rule="evenodd"/>
    <path d="M53.500,63.000 C53.500,63.000 9.500,63.000 9.500,63.000 C4.262,63.000 -0.000,58.738 -0.000,53.500 C-0.000,53.500 -0.000,9.500 -0.000,9.500 C-0.000,4.262 4.262,-0.000 9.500,-0.000 C9.500,-0.000 53.500,-0.000 53.500,-0.000 C58.738,-0.000 63.000,4.262 63.000,9.500 C63.000,9.500 63.000,53.500 63.000,53.500 C63.000,58.738 58.738,63.000 53.500,63.000 ZM9.500,3.000 C5.916,3.000 3.000,5.916 3.000,9.500 C3.000,9.500 3.000,53.500 3.000,53.500 C3.000,57.084 5.916,60.000 9.500,60.000 C9.500,60.000 53.500,60.000 53.500,60.000 C57.084,60.000 60.000,57.084 60.000,53.500 C60.000,53.500 60.000,9.500 60.000,9.500 C60.000,5.916 57.084,3.000 53.500,3.000 C53.500,3.000 9.500,3.000 9.500,3.000 Z" id="path-2" class="cls-4" fill-rule="evenodd"/>
    <path d="M36.440,44.981 C36.440,44.981 45.174,29.969 45.174,29.969 C45.948,28.636 44.986,27.000 43.444,27.000 C43.444,27.000 29.794,27.000 29.794,27.000 C28.268,27.000 27.305,28.605 28.047,29.938 C28.047,29.938 36.440,44.981 36.440,44.981 Z" id="path-3" class="cls-5" fill-rule="evenodd"/>
    <path d="M31.440,44.000 C31.435,44.000 31.432,44.000 31.427,44.000 C30.885,44.000 30.387,43.937 30.126,43.462 C30.126,43.462 21.731,28.290 21.731,28.290 C21.116,27.184 21.148,25.840 21.820,24.697 C22.467,23.596 23.579,23.000 24.794,23.000 C24.794,23.000 38.444,23.000 38.444,23.000 C39.674,23.000 40.792,23.667 41.436,24.785 C42.104,25.946 42.117,27.359 41.471,28.473 C41.471,28.473 32.742,43.485 32.742,43.485 C32.475,43.952 31.978,44.000 31.440,44.000 ZM24.794,26.000 C24.592,26.000 24.456,26.193 24.407,26.276 C24.306,26.450 24.231,26.732 24.357,26.959 C24.357,26.959 31.468,39.913 31.468,39.913 C31.468,39.913 38.872,26.975 38.872,26.975 C39.008,26.741 38.936,26.457 38.836,26.282 C38.787,26.197 38.651,26.000 38.444,26.000 C38.444,26.000 24.794,26.000 24.794,26.000 Z" id="path-4" class="cls-4" fill-rule="evenodd"/>
  </g>
</svg>
