<svg xmlns="http://www.w3.org/2000/svg" xmlns:xlink="http://www.w3.org/1999/xlink" preserveAspectRatio="xMidYMid" width="44" height="61" viewBox="0 0 44 61">
  <defs>
    <style>

      .cls-3 {
        fill: #99746a;
      }
    </style>
  </defs>
  <g id="group-17svg">
    <path d="M26.258,60.567 C25.698,60.567 25.142,60.334 24.746,59.878 C24.022,59.044 24.111,57.781 24.946,57.057 C24.946,57.057 38.359,45.414 38.359,45.414 C38.359,45.414 24.946,33.778 24.946,33.778 C24.112,33.055 24.022,31.791 24.746,30.957 C25.470,30.122 26.731,30.033 27.567,30.757 C27.567,30.757 42.722,43.903 42.722,43.903 C43.159,44.283 43.411,44.834 43.411,45.414 C43.411,45.993 43.160,46.545 42.722,46.925 C42.722,46.925 27.567,60.078 27.567,60.078 C27.189,60.406 26.723,60.567 26.258,60.567 Z" id="path-1" class="cls-3" fill-rule="evenodd"/>
    <path d="M40.969,48.000 C40.969,48.000 23.884,48.000 23.884,48.000 C10.708,48.000 -0.012,37.232 -0.012,23.997 C-0.012,10.762 10.608,-0.006 23.663,-0.006 C24.768,-0.006 25.663,0.890 25.663,1.994 C25.663,3.099 24.768,3.994 23.663,3.994 C12.814,3.994 3.988,12.968 3.988,23.997 C3.988,35.026 12.913,44.000 23.884,44.000 C23.884,44.000 40.969,44.000 40.969,44.000 C42.073,44.000 42.969,44.895 42.969,46.000 C42.969,47.104 42.073,48.000 40.969,48.000 Z" id="path-2" class="cls-3" fill-rule="evenodd"/>
  </g>
</svg>
