<svg xmlns="http://www.w3.org/2000/svg" xmlns:xlink="http://www.w3.org/1999/xlink" preserveAspectRatio="xMidYMid" width="64" height="40" viewBox="0 0 64 40">
  <defs>
    <style>

      .cls-3 {
        fill: #99746a;
      }

      .cls-4 {
        fill: #e56a77;
      }
    </style>
  </defs>
  <g id="group-22svg">
    <path d="M61.976,33.549 C61.465,33.549 60.953,33.353 60.562,32.963 C60.562,32.963 31.977,4.377 31.977,4.377 C31.977,4.377 3.391,32.963 3.391,32.963 C2.610,33.744 1.344,33.744 0.562,32.963 C-0.219,32.182 -0.219,30.916 0.562,30.135 C0.562,30.135 29.848,0.849 29.848,0.849 C31.022,-0.325 32.931,-0.325 34.105,0.849 C34.105,0.849 63.391,30.135 63.391,30.135 C64.172,30.916 64.172,32.182 63.391,32.963 C63.000,33.353 62.488,33.549 61.976,33.549 Z" id="path-1" class="cls-3" fill-rule="evenodd"/>
    <path d="M55.188,39.904 C54.804,39.904 54.420,39.758 54.127,39.465 C54.127,39.465 31.977,17.314 31.977,17.314 C31.977,17.314 9.826,39.465 9.826,39.465 C9.240,40.051 8.291,40.051 7.705,39.465 C7.119,38.879 7.119,37.930 7.705,37.344 C7.705,37.344 30.916,14.133 30.916,14.133 C31.502,13.547 32.451,13.547 33.037,14.133 C33.037,14.133 56.248,37.344 56.248,37.344 C56.834,37.930 56.834,38.879 56.248,39.465 C55.956,39.758 55.572,39.904 55.188,39.904 Z" id="path-2" class="cls-4" fill-rule="evenodd"/>
  </g>
</svg>
