<svg xmlns="http://www.w3.org/2000/svg" xmlns:xlink="http://www.w3.org/1999/xlink" preserveAspectRatio="xMidYMid" width="44" height="34" viewBox="0 0 44 34">
  <defs>
    <style>

      .cls-3 {
        fill: #8b71b5;
      }
    </style>
  </defs>
  <g id="group-2svg">
    <path d="M41.509,32.953 C41.024,32.953 40.549,32.719 40.260,32.285 C40.260,32.285 21.508,4.157 21.508,4.157 C21.508,4.157 2.756,32.285 2.756,32.285 C2.296,32.974 1.365,33.161 0.676,32.701 C-0.014,32.241 -0.200,31.310 0.260,30.621 C0.260,30.621 20.260,0.621 20.260,0.621 C20.816,-0.213 22.199,-0.213 22.756,0.621 C22.756,0.621 42.756,30.621 42.756,30.621 C43.215,31.310 43.029,32.241 42.340,32.701 C42.084,32.872 41.795,32.953 41.509,32.953 Z" id="path-1" class="cls-3" fill-rule="evenodd"/>
  </g>
</svg>
