<svg xmlns="http://www.w3.org/2000/svg" xmlns:xlink="http://www.w3.org/1999/xlink" preserveAspectRatio="xMidYMid" width="44" height="61" viewBox="0 0 44 61">
  <defs>
    <style>

      .cls-3 {
        fill: #99746a;
      }
    </style>
  </defs>
  <g id="group-16svg">
    <path d="M17.419,60.567 C16.954,60.567 16.488,60.406 16.109,60.078 C16.109,60.078 0.954,46.925 0.954,46.925 C0.516,46.545 0.265,45.993 0.265,45.414 C0.265,44.834 0.516,44.283 0.954,43.903 C0.954,43.903 16.109,30.757 16.109,30.757 C16.944,30.034 18.207,30.123 18.931,30.957 C19.654,31.791 19.565,33.055 18.730,33.778 C18.730,33.778 5.316,45.414 5.316,45.414 C5.316,45.414 18.731,57.057 18.731,57.057 C19.565,57.781 19.654,59.044 18.930,59.878 C18.535,60.334 17.978,60.567 17.419,60.567 Z" id="path-1" class="cls-3" fill-rule="evenodd"/>
    <path d="M19.792,48.000 C19.792,48.000 2.000,48.000 2.000,48.000 C0.895,48.000 -0.000,47.104 -0.000,46.000 C-0.000,44.895 0.895,44.000 2.000,44.000 C2.000,44.000 19.792,44.000 19.792,44.000 C30.665,44.000 39.511,35.026 39.511,23.997 C39.511,12.968 30.606,3.994 19.660,3.994 C18.555,3.994 17.660,3.099 17.660,1.994 C17.660,0.890 18.555,-0.006 19.660,-0.006 C32.811,-0.006 43.511,10.762 43.511,23.997 C43.511,37.232 32.871,48.000 19.792,48.000 Z" id="path-2" class="cls-3" fill-rule="evenodd"/>
  </g>
</svg>
