<svg xmlns="http://www.w3.org/2000/svg" xmlns:xlink="http://www.w3.org/1999/xlink" preserveAspectRatio="xMidYMid" width="66" height="65" viewBox="0 0 66 65">
  <defs>
    <style>

      .cls-3 {
        fill: #81bda4;
      }

      .cls-4 {
        fill: #000000;
      }

      .cls-5 {
        fill: #edc951;
      }
    </style>
  </defs>
  <g id="group-39svg">
    <path d="M66.000,57.000 C66.000,61.418 62.418,65.000 58.000,65.000 C58.000,65.000 14.000,65.000 14.000,65.000 C9.582,65.000 6.000,61.418 6.000,57.000 C6.000,57.000 6.000,13.000 6.000,13.000 C6.000,8.582 9.582,5.000 14.000,5.000 C14.000,5.000 58.000,5.000 58.000,5.000 C62.418,5.000 66.000,8.582 66.000,13.000 C66.000,13.000 66.000,57.000 66.000,57.000 Z" id="path-1" class="cls-3" fill-rule="evenodd"/>
    <path d="M53.500,63.000 C53.500,63.000 9.500,63.000 9.500,63.000 C4.262,63.000 -0.000,58.738 -0.000,53.500 C-0.000,53.500 -0.000,9.500 -0.000,9.500 C-0.000,4.262 4.262,-0.000 9.500,-0.000 C9.500,-0.000 53.500,-0.000 53.500,-0.000 C58.738,-0.000 63.000,4.262 63.000,9.500 C63.000,9.500 63.000,53.500 63.000,53.500 C63.000,58.738 58.738,63.000 53.500,63.000 ZM9.500,3.000 C5.916,3.000 3.000,5.916 3.000,9.500 C3.000,9.500 3.000,53.500 3.000,53.500 C3.000,57.084 5.916,60.000 9.500,60.000 C9.500,60.000 53.500,60.000 53.500,60.000 C57.084,60.000 60.000,57.084 60.000,53.500 C60.000,53.500 60.000,9.500 60.000,9.500 C60.000,5.916 57.084,3.000 53.500,3.000 C53.500,3.000 9.500,3.000 9.500,3.000 Z" id="path-2" class="cls-4" fill-rule="evenodd"/>
    <path d="M51.544,34.656 C51.544,34.656 39.180,47.021 39.180,47.021 C38.230,47.970 36.670,47.946 35.691,46.968 C35.691,46.968 22.946,34.223 22.946,34.223 C21.796,33.072 22.047,31.171 23.447,30.434 C23.447,30.434 23.452,30.431 23.452,30.431 C24.374,29.945 25.524,30.131 26.282,30.889 C26.282,30.889 36.060,40.666 36.060,40.666 C36.777,41.384 37.924,41.402 38.620,40.706 C38.620,40.706 48.105,31.220 48.105,31.220 C48.841,30.485 49.985,30.333 50.923,30.848 C50.923,30.848 50.928,30.851 50.928,30.851 C52.351,31.631 52.660,33.540 51.544,34.656 Z" id="path-3" class="cls-5" fill-rule="evenodd"/>
    <path d="M32.484,46.218 C31.411,46.218 30.397,45.795 29.631,45.028 C29.631,45.028 16.886,32.283 16.886,32.283 C15.997,31.395 15.577,30.131 15.764,28.903 C15.947,27.693 16.670,26.674 17.748,26.106 C19.222,25.330 21.157,25.643 22.342,26.827 C22.342,26.827 32.120,36.606 32.120,36.606 C32.350,36.833 32.476,36.726 32.559,36.646 C32.559,36.646 42.045,27.159 42.045,27.159 C43.226,25.979 45.155,25.717 46.644,26.532 C47.761,27.145 48.501,28.212 48.680,29.461 C48.854,30.674 48.461,31.860 47.604,32.717 C47.604,32.717 35.240,45.082 35.240,45.082 C34.507,45.814 33.528,46.218 32.484,46.218 ZM19.543,28.663 C19.402,28.663 19.270,28.694 19.151,28.758 C18.837,28.924 18.753,29.201 18.729,29.353 C18.685,29.646 18.786,29.941 19.007,30.162 C19.007,30.162 31.753,42.907 31.753,42.907 C32.133,43.287 32.768,43.311 33.119,42.960 C33.119,42.960 45.483,30.596 45.483,30.596 C45.733,30.346 45.732,30.043 45.710,29.885 C45.666,29.579 45.482,29.317 45.206,29.166 C44.853,28.971 44.422,29.023 44.165,29.281 C44.165,29.281 34.681,38.766 34.681,38.766 C33.441,40.006 31.260,39.987 29.999,38.728 C29.999,38.728 20.222,28.949 20.222,28.949 C20.039,28.768 19.792,28.663 19.543,28.663 Z" id="path-4" class="cls-4" fill-rule="evenodd"/>
  </g>
</svg>
