<svg xmlns="http://www.w3.org/2000/svg" xmlns:xlink="http://www.w3.org/1999/xlink" preserveAspectRatio="xMidYMid" width="57" height="63" viewBox="0 0 57 63">
  <defs>
    <style>

      .cls-3 {
        fill: #e56a77;
      }

      .cls-4 {
        fill: #000000;
      }

      .cls-5 {
        fill: #edc951;
      }
    </style>
  </defs>
  <g id="group-42svg">
    <path d="M6.000,46.969 C6.000,46.969 6.000,62.969 6.000,62.969 C6.000,62.969 57.000,62.969 57.000,62.969 C57.000,62.969 57.000,46.969 57.000,46.969 C57.000,46.969 48.000,46.969 48.000,46.969 C48.000,46.969 48.000,54.969 48.000,54.969 C48.000,54.969 15.000,54.969 15.000,54.969 C15.000,54.969 15.000,46.969 15.000,46.969 C15.000,46.969 6.000,46.969 6.000,46.969 Z" id="path-1" class="cls-3" fill-rule="evenodd"/>
    <path d="M52.500,61.969 C52.500,61.969 1.500,61.969 1.500,61.969 C0.671,61.969 -0.000,61.297 -0.000,60.469 C-0.000,60.469 -0.000,44.469 -0.000,44.469 C-0.000,43.641 0.671,42.969 1.500,42.969 C1.500,42.969 10.500,42.969 10.500,42.969 C11.329,42.969 12.000,43.641 12.000,44.469 C12.000,44.469 12.000,50.969 12.000,50.969 C12.000,50.969 42.000,50.969 42.000,50.969 C42.000,50.969 42.000,44.469 42.000,44.469 C42.000,43.641 42.671,42.969 43.500,42.969 C43.500,42.969 52.500,42.969 52.500,42.969 C53.329,42.969 54.000,43.641 54.000,44.469 C54.000,44.469 54.000,60.469 54.000,60.469 C54.000,61.297 53.329,61.969 52.500,61.969 ZM3.000,58.969 C3.000,58.969 51.000,58.969 51.000,58.969 C51.000,58.969 51.000,45.969 51.000,45.969 C51.000,45.969 45.000,45.969 45.000,45.969 C45.000,45.969 45.000,52.469 45.000,52.469 C45.000,53.297 44.329,53.969 43.500,53.969 C43.500,53.969 10.500,53.969 10.500,53.969 C9.671,53.969 9.000,53.297 9.000,52.469 C9.000,52.469 9.000,45.969 9.000,45.969 C9.000,45.969 3.000,45.969 3.000,45.969 C3.000,45.969 3.000,58.969 3.000,58.969 Z" id="path-2" class="cls-4" fill-rule="evenodd"/>
    <path d="M32.036,3.443 C32.036,3.443 20.620,20.453 20.620,20.453 C19.337,22.358 20.703,24.969 22.999,24.969 C22.999,24.969 27.000,24.969 27.000,24.969 C27.000,24.969 27.000,42.762 27.000,42.762 C27.000,44.643 28.800,46.317 30.675,46.481 C32.815,46.668 35.000,44.988 35.000,42.890 C35.000,42.890 35.000,24.969 35.000,24.969 C35.000,24.969 41.072,24.969 41.072,24.969 C43.369,24.969 44.734,22.358 43.452,20.453 C43.452,20.453 32.036,3.443 32.036,3.443 Z" id="path-3" class="cls-5" fill-rule="evenodd"/>
    <path d="M26.502,45.996 C26.350,45.996 26.197,45.989 26.044,45.976 C23.310,45.736 21.000,43.349 21.000,40.762 C21.000,40.762 21.000,23.969 21.000,23.969 C21.000,23.969 18.000,23.969 18.000,23.969 C16.347,23.969 14.857,23.098 14.111,21.696 C13.378,20.319 13.476,18.700 14.375,17.365 C14.375,17.365 25.796,0.599 25.796,0.599 C26.354,-0.222 27.717,-0.222 28.275,0.599 C28.275,0.599 39.691,17.358 39.691,17.358 C40.595,18.700 40.693,20.319 39.960,21.696 C39.214,23.098 37.724,23.969 36.072,23.969 C36.072,23.969 32.000,23.969 32.000,23.969 C32.000,23.969 32.000,40.890 32.000,40.890 C32.000,43.609 29.431,45.996 26.502,45.996 ZM27.036,4.107 C27.036,4.107 16.859,19.048 16.859,19.048 C16.491,19.595 16.638,20.060 16.759,20.286 C16.986,20.714 17.450,20.969 18.000,20.969 C18.000,20.969 22.500,20.969 22.500,20.969 C23.329,20.969 24.000,21.641 24.000,22.469 C24.000,22.469 24.000,40.762 24.000,40.762 C24.000,41.783 25.142,42.886 26.306,42.987 C27.648,43.099 29.000,42.027 29.000,40.890 C29.000,40.890 29.000,22.469 29.000,22.469 C29.000,21.641 29.671,20.969 30.500,20.969 C30.500,20.969 36.072,20.969 36.072,20.969 C36.621,20.969 37.085,20.714 37.312,20.286 C37.433,20.060 37.581,19.595 37.207,19.041 C37.207,19.041 27.036,4.107 27.036,4.107 Z" id="path-4" class="cls-4" fill-rule="evenodd"/>
  </g>
</svg>
