<svg xmlns="http://www.w3.org/2000/svg" xmlns:xlink="http://www.w3.org/1999/xlink" preserveAspectRatio="xMidYMid" width="66" height="65" viewBox="0 0 66 65">
  <defs>
    <style>

      .cls-3 {
        fill: #edc951;
      }

      .cls-4 {
        fill: #000000;
      }

      .cls-5 {
        fill: #ffffff;
      }
    </style>
  </defs>
  <g id="group-45svg">
    <path d="M65.496,34.495 C65.496,51.063 52.064,64.495 35.496,64.495 C18.927,64.495 5.496,51.063 5.496,34.495 C5.496,17.926 18.927,4.495 35.496,4.495 C52.064,4.495 65.496,17.926 65.496,34.495 Z" id="path-1" class="cls-3" fill-rule="evenodd"/>
    <path d="M31.496,62.995 C14.127,62.995 -0.004,48.864 -0.004,31.495 C-0.004,14.126 14.127,-0.005 31.496,-0.005 C48.865,-0.005 62.996,14.126 62.996,31.495 C62.996,48.864 48.865,62.995 31.496,62.995 ZM31.496,2.995 C15.781,2.995 2.996,15.780 2.996,31.495 C2.996,47.210 15.781,59.995 31.496,59.995 C47.211,59.995 59.996,47.210 59.996,31.495 C59.996,15.780 47.211,2.995 31.496,2.995 Z" id="path-2" class="cls-4" fill-rule="evenodd"/>
    <path d="M41.587,32.369 C41.587,32.369 35.331,43.465 35.331,43.465 C35.331,43.465 29.075,32.397 29.075,32.397 C28.629,31.228 29.493,30.094 30.745,30.094 C30.745,30.094 39.917,30.094 39.917,30.094 C41.169,30.094 42.033,31.199 41.587,32.369 Z" id="path-3" class="cls-5" fill-rule="evenodd"/>
    <path d="M31.331,42.094 C30.795,42.094 30.299,41.805 30.031,41.340 C30.031,41.340 23.775,30.459 23.775,30.459 C23.735,30.391 23.702,30.318 23.673,30.245 C23.305,29.278 23.411,28.263 23.963,27.462 C24.553,26.606 25.593,26.094 26.745,26.094 C26.745,26.094 35.917,26.094 35.917,26.094 C37.109,26.094 38.130,26.584 38.719,27.438 C39.252,28.213 39.351,29.202 38.989,30.153 C38.961,30.226 38.928,30.295 38.890,30.362 C38.890,30.362 32.635,41.335 32.635,41.335 C32.368,41.802 31.872,42.094 31.334,42.094 C31.333,42.094 31.332,42.094 31.331,42.094 ZM26.478,29.141 C26.478,29.141 31.326,37.571 31.326,37.571 C31.326,37.571 36.145,29.118 36.145,29.118 C36.088,29.104 36.012,29.094 35.917,29.094 C35.917,29.094 26.745,29.094 26.745,29.094 C26.617,29.094 26.529,29.118 26.478,29.141 Z" id="path-4" class="cls-4" fill-rule="evenodd"/>
  </g>
</svg>
