<svg xmlns="http://www.w3.org/2000/svg" xmlns:xlink="http://www.w3.org/1999/xlink" preserveAspectRatio="xMidYMid" width="41" height="64" viewBox="0 0 41 64">
  <defs>
    <style>

      .cls-3 {
        fill: #99746a;
      }

      .cls-4 {
        fill: #e56a77;
      }
    </style>
  </defs>
  <g id="group-25svg">
    <path d="M8.352,63.967 C7.840,63.967 7.329,63.771 6.938,63.381 C6.157,62.600 6.157,61.334 6.938,60.553 C6.938,60.553 35.523,31.967 35.523,31.967 C35.523,31.967 6.938,3.381 6.938,3.381 C6.157,2.600 6.157,1.334 6.938,0.553 C7.718,-0.229 8.985,-0.229 9.766,0.553 C9.766,0.553 39.052,29.839 39.052,29.839 C40.226,31.013 40.226,32.922 39.052,34.096 C39.052,34.096 9.766,63.381 9.766,63.381 C9.376,63.771 8.864,63.967 8.352,63.967 Z" id="path-1" class="cls-3" fill-rule="evenodd"/>
    <path d="M1.496,56.679 C1.112,56.679 0.728,56.532 0.436,56.239 C-0.150,55.653 -0.150,54.704 0.436,54.118 C0.436,54.118 22.586,31.967 22.586,31.967 C22.586,31.967 0.436,9.816 0.436,9.816 C-0.150,9.230 -0.150,8.281 0.436,7.695 C1.021,7.109 1.971,7.109 2.557,7.695 C2.557,7.695 25.768,30.906 25.768,30.906 C26.049,31.187 26.207,31.569 26.207,31.967 C26.207,32.364 26.049,32.746 25.768,33.027 C25.768,33.027 2.557,56.239 2.557,56.239 C2.264,56.532 1.880,56.679 1.496,56.679 Z" id="path-2" class="cls-4" fill-rule="evenodd"/>
  </g>
</svg>
