<svg xmlns="http://www.w3.org/2000/svg" xmlns:xlink="http://www.w3.org/1999/xlink" preserveAspectRatio="xMidYMid" width="43" height="34" viewBox="0 0 43 34">
  <defs>
    <style>

      .cls-3 {
        fill: #8b71b5;
      }
    </style>
  </defs>
  <g id="group-3svg">
    <path d="M21.508,33.016 C21.006,33.016 20.538,32.765 20.260,32.348 C20.260,32.348 0.260,2.348 0.260,2.348 C-0.200,1.658 -0.014,0.728 0.676,0.268 C1.365,-0.194 2.296,-0.006 2.756,0.684 C2.756,0.684 21.508,28.812 21.508,28.812 C21.508,28.812 40.260,0.684 40.260,0.684 C40.719,-0.006 41.649,-0.194 42.340,0.268 C43.029,0.728 43.215,1.658 42.756,2.348 C42.756,2.348 22.756,32.348 22.756,32.348 C22.478,32.765 22.009,33.016 21.508,33.016 Z" id="path-1" class="cls-3" fill-rule="evenodd"/>
  </g>
</svg>
