<svg xmlns="http://www.w3.org/2000/svg" xmlns:xlink="http://www.w3.org/1999/xlink" preserveAspectRatio="xMidYMid" width="63" height="63" viewBox="0 0 63 63">
  <defs>
    <style>

      .cls-3 {
        fill: #ff917b;
      }

      .cls-4 {
        fill: #000000;
      }
    </style>
  </defs>
  <g id="group-35svg">
    <path d="M51.791,5.762 C51.791,5.762 10.060,30.311 10.060,30.311 C6.522,31.660 6.516,36.666 10.055,38.015 C10.055,38.015 51.794,62.564 51.794,62.564 C54.493,63.593 57.406,61.600 57.406,58.712 C57.406,58.712 57.406,9.614 57.406,9.614 C57.406,6.726 54.490,4.732 51.791,5.762 Z" id="path-1" class="cls-3" fill-rule="evenodd"/>
    <path d="M47.569,60.339 C47.569,60.339 47.569,60.339 47.569,60.339 C46.872,60.339 46.190,60.213 45.541,59.966 C45.464,59.937 45.390,59.901 45.318,59.859 C45.318,59.859 3.459,35.367 3.459,35.367 C1.352,34.508 -0.002,32.498 -0.003,30.210 C-0.003,27.881 1.378,25.834 3.526,24.958 C3.526,24.958 45.283,0.468 45.283,0.468 C45.354,0.426 45.429,0.390 45.507,0.360 C46.156,0.112 46.839,-0.013 47.539,-0.013 C50.719,-0.013 53.406,2.564 53.406,5.614 C53.406,5.614 53.406,54.712 53.406,54.712 C53.406,56.256 52.762,57.696 51.591,58.768 C50.500,59.766 49.035,60.339 47.569,60.339 ZM46.714,57.200 C46.989,57.292 47.276,57.339 47.569,57.339 C47.569,57.339 47.569,57.339 47.569,57.339 C48.294,57.339 49.021,57.053 49.565,56.555 C50.107,56.059 50.406,55.403 50.406,54.712 C50.406,54.712 50.406,5.614 50.406,5.614 C50.407,3.709 48.244,2.606 46.681,3.126 C46.681,3.126 4.944,27.604 4.944,27.604 C4.873,27.646 4.798,27.683 4.720,27.712 C3.450,28.196 2.997,29.319 2.997,30.209 C2.998,31.319 3.616,32.219 4.651,32.613 C4.729,32.643 4.803,32.679 4.874,32.720 C4.874,32.720 46.714,57.200 46.714,57.200 Z" id="path-2" class="cls-4" fill-rule="evenodd"/>
    <path d="M61.906,57.750 C61.078,57.750 60.406,57.078 60.406,56.250 C60.406,56.250 60.406,4.250 60.406,4.250 C60.406,3.422 61.078,2.750 61.906,2.750 C62.735,2.750 63.406,3.422 63.406,4.250 C63.406,4.250 63.406,56.250 63.406,56.250 C63.406,57.078 62.735,57.750 61.906,57.750 Z" id="path-3" class="cls-4" fill-rule="evenodd"/>
  </g>
</svg>
