<svg xmlns="http://www.w3.org/2000/svg" xmlns:xlink="http://www.w3.org/1999/xlink" preserveAspectRatio="xMidYMid" width="47" height="48" viewBox="0 0 47 48">
  <defs>
    <style>

      .cls-3 {
        fill: #8b71b5;
      }
    </style>
  </defs>
  <g id="group-11svg">
    <path d="M1.495,47.739 C1.102,47.739 0.719,47.584 0.435,47.300 C0.072,46.937 -0.080,46.415 0.030,45.915 C0.030,45.915 7.101,13.988 7.101,13.988 C7.279,13.180 8.078,12.674 8.890,12.848 C9.698,13.027 10.209,13.828 10.030,14.637 C10.030,14.637 3.469,44.266 3.469,44.266 C3.469,44.266 33.097,37.703 33.097,37.703 C33.905,37.527 34.706,38.034 34.886,38.844 C35.064,39.652 34.554,40.453 33.745,40.633 C33.745,40.633 1.819,47.704 1.819,47.704 C1.712,47.728 1.603,47.739 1.495,47.739 Z" id="path-1" class="cls-3" fill-rule="evenodd"/>
    <path d="M2.440,45.406 C2.057,45.406 1.673,45.260 1.380,44.967 C0.794,44.381 0.794,43.432 1.380,42.846 C1.380,42.846 43.807,0.419 43.807,0.419 C44.393,-0.167 45.342,-0.167 45.928,0.419 C46.514,1.005 46.514,1.954 45.928,2.540 C45.928,2.540 3.501,44.967 3.501,44.967 C3.208,45.260 2.824,45.406 2.440,45.406 Z" id="path-2" class="cls-3" fill-rule="evenodd"/>
  </g>
</svg>
