<svg xmlns="http://www.w3.org/2000/svg" xmlns:xlink="http://www.w3.org/1999/xlink" preserveAspectRatio="xMidYMid" width="63" height="58" viewBox="0 0 63 58">
  <defs>
    <style>

      .cls-3 {
        fill: #e56a77;
      }

      .cls-4 {
        fill: #8b71b5;
      }
    </style>
  </defs>
  <g id="group-12svg">
    <path d="M61.500,58.500 C61.500,58.500 1.500,58.500 1.500,58.500 C0.671,58.500 -0.000,57.828 -0.000,57.000 C-0.000,57.000 -0.000,43.500 -0.000,43.500 C-0.000,42.672 0.671,42.000 1.500,42.000 C2.329,42.000 3.000,42.672 3.000,43.500 C3.000,43.500 3.000,55.500 3.000,55.500 C3.000,55.500 60.000,55.500 60.000,55.500 C60.000,55.500 60.000,43.500 60.000,43.500 C60.000,42.672 60.671,42.000 61.500,42.000 C62.329,42.000 63.000,42.672 63.000,43.500 C63.000,43.500 63.000,57.000 63.000,57.000 C63.000,57.828 62.329,58.500 61.500,58.500 Z" id="path-1" class="cls-3" fill-rule="evenodd"/>
    <path d="M31.393,46.212 C30.880,46.212 30.403,45.950 30.128,45.518 C30.128,45.518 18.042,26.551 18.042,26.551 C17.597,25.853 17.802,24.926 18.501,24.480 C19.199,24.034 20.127,24.239 20.572,24.939 C20.572,24.939 31.393,41.921 31.393,41.921 C31.393,41.921 42.214,24.939 42.214,24.939 C42.660,24.240 43.586,24.036 44.285,24.480 C44.984,24.926 45.189,25.853 44.744,26.551 C44.744,26.551 32.658,45.518 32.658,45.518 C32.383,45.950 31.906,46.212 31.393,46.212 Z" id="path-2" class="cls-4" fill-rule="evenodd"/>
    <path d="M30.500,44.000 C29.671,44.000 29.000,43.328 29.000,42.500 C29.000,42.500 29.000,1.500 29.000,1.500 C29.000,0.672 29.671,-0.000 30.500,-0.000 C31.329,-0.000 32.000,0.672 32.000,1.500 C32.000,1.500 32.000,42.500 32.000,42.500 C32.000,43.328 31.329,44.000 30.500,44.000 Z" id="path-3" class="cls-4" fill-rule="evenodd"/>
    <path d="M61.500,58.500 C61.500,58.500 1.500,58.500 1.500,58.500 C0.671,58.500 -0.000,57.828 -0.000,57.000 C-0.000,57.000 -0.000,43.500 -0.000,43.500 C-0.000,42.672 0.671,42.000 1.500,42.000 C2.329,42.000 3.000,42.672 3.000,43.500 C3.000,43.500 3.000,55.500 3.000,55.500 C3.000,55.500 60.000,55.500 60.000,55.500 C60.000,55.500 60.000,43.500 60.000,43.500 C60.000,42.672 60.671,42.000 61.500,42.000 C62.329,42.000 63.000,42.672 63.000,43.500 C63.000,43.500 63.000,57.000 63.000,57.000 C63.000,57.828 62.329,58.500 61.500,58.500 Z" id="path-4" class="cls-3" fill-rule="evenodd"/>
    <path d="M31.393,46.212 C30.880,46.212 30.403,45.950 30.128,45.518 C30.128,45.518 18.042,26.551 18.042,26.551 C17.597,25.853 17.802,24.926 18.501,24.480 C19.199,24.034 20.127,24.239 20.572,24.939 C20.572,24.939 31.393,41.921 31.393,41.921 C31.393,41.921 42.214,24.939 42.214,24.939 C42.660,24.240 43.586,24.036 44.285,24.480 C44.984,24.926 45.189,25.853 44.744,26.551 C44.744,26.551 32.658,45.518 32.658,45.518 C32.383,45.950 31.906,46.212 31.393,46.212 Z" id="path-5" class="cls-4" fill-rule="evenodd"/>
    <path d="M30.500,44.000 C29.671,44.000 29.000,43.328 29.000,42.500 C29.000,42.500 29.000,1.500 29.000,1.500 C29.000,0.672 29.671,-0.000 30.500,-0.000 C31.329,-0.000 32.000,0.672 32.000,1.500 C32.000,1.500 32.000,42.500 32.000,42.500 C32.000,43.328 31.329,44.000 30.500,44.000 Z" id="path-6" class="cls-4" fill-rule="evenodd"/>
  </g>
</svg>
