<svg xmlns="http://www.w3.org/2000/svg" xmlns:xlink="http://www.w3.org/1999/xlink" preserveAspectRatio="xMidYMid" width="50" height="43" viewBox="0 0 50 43">
  <defs>
    <style>

      .cls-3 {
        fill: #e56a77;
      }
    </style>
  </defs>
  <g id="group-21svg">
    <path d="M20.173,20.367 C19.961,20.367 19.746,20.322 19.542,20.228 C19.542,20.228 0.860,11.546 0.860,11.546 C0.331,11.300 -0.008,10.769 -0.008,10.186 C-0.008,9.602 0.331,9.071 0.860,8.825 C0.860,8.825 19.542,0.143 19.542,0.143 C20.291,-0.203 21.185,0.119 21.534,0.871 C21.883,1.622 21.558,2.514 20.806,2.863 C20.806,2.863 5.052,10.186 5.052,10.186 C5.052,10.186 20.806,17.507 20.806,17.507 C21.558,17.856 21.883,18.748 21.534,19.499 C21.280,20.046 20.738,20.367 20.173,20.367 Z" id="path-1" class="cls-3" fill-rule="evenodd"/>
    <path d="M48.969,42.344 C48.141,42.344 47.469,41.672 47.469,40.844 C47.469,40.844 47.469,22.832 47.469,22.832 C47.469,16.567 42.831,11.844 36.681,11.844 C36.681,11.844 3.469,11.844 3.469,11.844 C2.641,11.844 1.969,11.172 1.969,10.344 C1.969,9.516 2.641,8.844 3.469,8.844 C3.469,8.844 36.681,8.844 36.681,8.844 C44.541,8.844 50.469,14.857 50.469,22.832 C50.469,22.832 50.469,40.844 50.469,40.844 C50.469,41.672 49.797,42.344 48.969,42.344 Z" id="path-2" class="cls-3" fill-rule="evenodd"/>
  </g>
</svg>
