<svg xmlns="http://www.w3.org/2000/svg" xmlns:xlink="http://www.w3.org/1999/xlink" preserveAspectRatio="xMidYMid" width="53" height="65" viewBox="0 0 53 65">
  <defs>
    <style>

      .cls-3 {
        fill: #53ecf4;
      }

      .cls-4 {
        fill: #000000;
      }
    </style>
  </defs>
  <g id="group-30svg">
    <path d="M29.594,50.378 C29.594,50.378 29.594,64.496 29.594,64.496 C29.594,64.496 51.632,45.895 51.632,45.895 C52.839,44.687 52.748,42.729 51.540,41.521 C51.540,41.521 29.594,22.920 29.594,22.920 C29.594,22.920 29.594,37.973 29.594,37.973 C22.594,33.840 18.241,26.399 18.241,17.884 C18.241,12.909 19.750,8.298 22.383,4.496 C13.020,7.607 6.200,16.430 6.200,26.837 C6.200,39.812 15.594,50.332 29.594,50.378 Z" id="path-1" class="cls-3" fill-rule="evenodd"/>
    <path d="M25.094,62.996 C24.881,62.996 24.666,62.951 24.466,62.858 C23.935,62.613 23.594,62.081 23.594,61.496 C23.594,61.496 23.594,48.834 23.594,48.834 C10.048,48.070 0.013,37.566 0.013,23.837 C0.013,13.005 6.854,3.455 17.036,0.072 C17.647,-0.133 18.322,0.079 18.709,0.597 C19.097,1.113 19.109,1.819 18.742,2.351 C16.288,5.892 14.991,10.226 14.991,14.884 C14.991,21.734 18.162,28.019 23.594,32.159 C23.594,32.159 23.594,19.920 23.594,19.920 C23.594,19.335 23.934,18.803 24.465,18.558 C24.996,18.311 25.621,18.397 26.066,18.778 C26.066,18.778 47.888,37.380 47.888,37.380 C47.918,37.405 47.947,37.433 47.976,37.460 C48.846,38.330 49.317,39.488 49.304,40.724 C49.291,41.942 48.808,43.090 47.943,43.956 C47.915,43.983 47.886,44.011 47.855,44.036 C47.855,44.036 26.067,62.637 26.067,62.637 C25.791,62.873 25.444,62.996 25.094,62.996 ZM14.038,4.680 C7.307,8.529 3.013,15.779 3.013,23.837 C3.013,36.567 12.301,45.837 25.099,45.878 C25.925,45.881 26.594,46.552 26.594,47.378 C26.594,47.378 26.594,58.243 26.594,58.243 C26.594,58.243 45.855,41.799 45.855,41.799 C46.141,41.496 46.300,41.105 46.304,40.692 C46.309,40.287 46.161,39.908 45.890,39.618 C45.890,39.618 26.594,23.170 26.594,23.170 C26.594,23.170 26.594,34.973 26.594,34.973 C26.594,35.511 26.305,36.009 25.838,36.275 C25.369,36.543 24.796,36.539 24.331,36.265 C16.604,31.702 11.991,23.710 11.991,14.884 C11.991,11.261 12.690,7.803 14.038,4.680 Z" id="path-2" class="cls-4" fill-rule="evenodd"/>
  </g>
</svg>
