<svg xmlns="http://www.w3.org/2000/svg" xmlns:xlink="http://www.w3.org/1999/xlink" preserveAspectRatio="xMidYMid" width="63" height="64" viewBox="0 0 63 64">
  <defs>
    <style>

      .cls-3 {
        fill: #8b71b5;
      }
    </style>
  </defs>
  <g id="group-27svg">
    <path d="M3.941,62.998 C1.761,62.998 -0.014,61.225 -0.014,59.044 C-0.014,59.009 -0.013,58.973 -0.010,58.937 C-0.010,58.937 0.802,47.551 0.802,47.551 C0.861,46.725 1.599,46.113 2.404,46.161 C3.230,46.220 3.852,46.937 3.794,47.764 C3.794,47.764 2.987,59.085 2.987,59.085 C3.008,59.578 3.406,59.977 3.900,59.997 C3.900,59.997 15.221,59.191 15.221,59.191 C16.044,59.137 16.765,59.754 16.823,60.581 C16.882,61.407 16.260,62.125 15.434,62.184 C15.434,62.184 4.048,62.994 4.048,62.994 C4.013,62.997 3.977,62.998 3.941,62.998 Z" id="path-1" class="cls-3" fill-rule="evenodd"/>
    <path d="M2.003,61.671 C1.619,61.671 1.235,61.524 0.942,61.231 C0.356,60.646 0.356,59.696 0.942,59.110 C0.942,59.110 17.572,42.480 17.572,42.480 C18.158,41.895 19.107,41.895 19.693,42.480 C20.279,43.066 20.279,44.016 19.693,44.602 C19.693,44.602 3.063,61.231 3.063,61.231 C2.770,61.524 2.387,61.671 2.003,61.671 Z" id="path-2" class="cls-3" fill-rule="evenodd"/>
    <path d="M21.269,47.271 C20.886,47.271 20.502,47.125 20.209,46.832 C20.209,46.832 15.747,42.370 15.747,42.370 C15.466,42.089 15.308,41.707 15.308,41.310 C15.308,40.912 15.466,40.530 15.747,40.249 C15.747,40.249 19.804,36.193 19.804,36.193 C20.390,35.607 21.339,35.607 21.925,36.193 C21.925,36.193 26.387,40.655 26.387,40.655 C26.668,40.937 26.826,41.318 26.826,41.716 C26.826,42.114 26.668,42.495 26.387,42.776 C26.387,42.776 22.330,46.832 22.330,46.832 C22.037,47.125 21.653,47.271 21.269,47.271 ZM18.929,41.310 C18.929,41.310 21.269,43.650 21.269,43.650 C21.269,43.650 23.205,41.716 23.205,41.716 C23.205,41.716 20.864,39.375 20.864,39.375 C20.864,39.375 18.929,41.310 18.929,41.310 Z" id="path-3" class="cls-3" fill-rule="evenodd"/>
    <path d="M58.627,62.998 C58.592,62.998 58.556,62.997 58.520,62.994 C58.520,62.994 47.134,62.184 47.134,62.184 C46.308,62.125 45.686,61.407 45.744,60.581 C45.803,59.754 46.535,59.138 47.347,59.191 C47.347,59.191 58.668,59.997 58.668,59.997 C59.161,59.977 59.560,59.578 59.580,59.085 C59.580,59.085 58.773,47.764 58.773,47.764 C58.715,46.937 59.337,46.220 60.163,46.161 C60.980,46.112 61.707,46.725 61.766,47.551 C61.766,47.551 62.577,58.937 62.577,58.937 C62.580,58.973 62.581,59.009 62.581,59.044 C62.581,61.225 60.808,62.998 58.627,62.998 Z" id="path-4" class="cls-3" fill-rule="evenodd"/>
    <path d="M60.565,61.671 C60.182,61.671 59.798,61.524 59.505,61.231 C59.505,61.231 42.874,44.602 42.874,44.602 C42.288,44.016 42.288,43.066 42.874,42.480 C43.460,41.895 44.409,41.895 44.995,42.480 C44.995,42.480 61.626,59.110 61.626,59.110 C62.212,59.696 62.212,60.646 61.626,61.231 C61.333,61.524 60.949,61.671 60.565,61.671 Z" id="path-5" class="cls-3" fill-rule="evenodd"/>
    <path d="M41.298,47.271 C40.914,47.271 40.530,47.125 40.237,46.832 C40.237,46.832 36.182,42.776 36.182,42.776 C35.900,42.495 35.742,42.113 35.742,41.716 C35.742,41.318 35.900,40.937 36.182,40.655 C36.182,40.655 40.643,36.193 40.643,36.193 C41.206,35.631 42.202,35.631 42.765,36.193 C42.765,36.193 46.820,40.249 46.820,40.249 C47.406,40.835 47.406,41.784 46.820,42.370 C46.820,42.370 42.358,46.832 42.358,46.832 C42.065,47.125 41.682,47.271 41.298,47.271 ZM39.363,41.716 C39.363,41.716 41.298,43.650 41.298,43.650 C41.298,43.650 43.639,41.310 43.639,41.310 C43.639,41.310 41.704,39.375 41.704,39.375 C41.704,39.375 39.363,41.716 39.363,41.716 Z" id="path-6" class="cls-3" fill-rule="evenodd"/>
    <path d="M60.271,16.839 C60.235,16.839 60.199,16.838 60.163,16.835 C59.337,16.776 58.715,16.059 58.773,15.232 C58.773,15.232 59.580,3.912 59.580,3.912 C59.560,3.418 59.161,3.019 58.668,2.999 C58.668,2.999 47.347,3.806 47.347,3.806 C46.534,3.886 45.804,3.243 45.744,2.416 C45.686,1.590 46.308,0.872 47.134,0.813 C47.134,0.813 58.520,0.002 58.520,0.002 C58.556,-0.001 58.592,-0.002 58.627,-0.002 C60.808,-0.002 62.581,1.772 62.581,3.953 C62.581,3.988 62.580,4.024 62.577,4.060 C62.577,4.060 61.766,15.445 61.766,15.445 C61.709,16.235 61.051,16.839 60.271,16.839 Z" id="path-7" class="cls-3" fill-rule="evenodd"/>
    <path d="M43.935,20.956 C43.551,20.956 43.167,20.810 42.874,20.517 C42.288,19.931 42.288,18.981 42.874,18.395 C42.874,18.395 59.505,1.766 59.505,1.766 C60.091,1.180 61.040,1.180 61.626,1.766 C62.212,2.352 62.212,3.301 61.626,3.887 C61.626,3.887 44.995,20.517 44.995,20.517 C44.702,20.810 44.318,20.956 43.935,20.956 Z" id="path-8" class="cls-3" fill-rule="evenodd"/>
    <path d="M41.704,27.243 C41.307,27.243 40.925,27.085 40.643,26.804 C40.643,26.804 36.182,22.342 36.182,22.342 C35.900,22.061 35.742,21.679 35.742,21.281 C35.742,20.884 35.900,20.502 36.182,20.221 C36.182,20.221 40.237,16.165 40.237,16.165 C40.823,15.579 41.772,15.579 42.358,16.165 C42.358,16.165 46.820,20.626 46.820,20.626 C47.406,21.212 47.406,22.161 46.820,22.747 C46.820,22.747 42.765,26.804 42.765,26.804 C42.483,27.085 42.102,27.243 41.704,27.243 ZM39.363,21.281 C39.363,21.281 41.704,23.622 41.704,23.622 C41.704,23.622 43.639,21.687 43.639,21.687 C43.639,21.687 41.298,19.347 41.298,19.347 C41.298,19.347 39.363,21.281 39.363,21.281 Z" id="path-9" class="cls-3" fill-rule="evenodd"/>
    <path d="M2.296,16.839 C1.517,16.839 0.858,16.235 0.802,15.445 C0.802,15.445 -0.010,4.060 -0.010,4.060 C-0.013,4.024 -0.014,3.988 -0.014,3.953 C-0.014,1.772 1.761,-0.002 3.941,-0.002 C3.977,-0.002 4.013,-0.001 4.048,0.002 C4.048,0.002 15.434,0.813 15.434,0.813 C16.260,0.872 16.882,1.590 16.823,2.416 C16.764,3.243 16.045,3.887 15.221,3.806 C15.221,3.806 3.900,2.999 3.900,2.999 C3.406,3.019 3.008,3.418 2.987,3.912 C2.987,3.912 3.794,15.232 3.794,15.232 C3.852,16.059 3.230,16.776 2.404,16.835 C2.368,16.838 2.332,16.839 2.296,16.839 Z" id="path-10" class="cls-3" fill-rule="evenodd"/>
    <path d="M18.633,20.956 C18.249,20.956 17.865,20.810 17.572,20.517 C17.572,20.517 0.942,3.887 0.942,3.887 C0.356,3.301 0.356,2.352 0.942,1.766 C1.528,1.180 2.478,1.180 3.063,1.766 C3.063,1.766 19.693,18.395 19.693,18.395 C20.279,18.981 20.279,19.931 19.693,20.517 C19.400,20.810 19.017,20.956 18.633,20.956 Z" id="path-11" class="cls-3" fill-rule="evenodd"/>
    <path d="M20.864,27.243 C20.480,27.243 20.097,27.097 19.804,26.804 C19.804,26.804 15.747,22.747 15.747,22.747 C15.466,22.466 15.308,22.084 15.308,21.687 C15.308,21.289 15.466,20.907 15.747,20.626 C15.747,20.626 20.209,16.165 20.209,16.165 C20.795,15.579 21.744,15.579 22.330,16.165 C22.330,16.165 26.387,20.221 26.387,20.221 C26.668,20.502 26.826,20.884 26.826,21.281 C26.826,21.679 26.668,22.061 26.387,22.342 C26.387,22.342 21.925,26.804 21.925,26.804 C21.632,27.097 21.248,27.243 20.864,27.243 ZM18.929,21.687 C18.929,21.687 20.864,23.622 20.864,23.622 C20.864,23.622 23.205,21.281 23.205,21.281 C23.205,21.281 21.269,19.347 21.269,19.347 C21.269,19.347 18.929,21.687 18.929,21.687 Z" id="path-12" class="cls-3" fill-rule="evenodd"/>
  </g>
</svg>
