<svg xmlns="http://www.w3.org/2000/svg" xmlns:xlink="http://www.w3.org/1999/xlink" preserveAspectRatio="xMidYMid" width="53" height="65" viewBox="0 0 53 65">
  <defs>
    <style>

      .cls-3 {
        fill: #53ecf4;
      }

      .cls-4 {
        fill: #000000;
      }
    </style>
  </defs>
  <g id="group-31svg">
    <path d="M28.375,50.378 C28.375,50.378 28.375,64.496 28.375,64.496 C28.375,64.496 7.298,45.895 7.298,45.895 C6.090,44.687 5.701,42.729 6.909,41.521 C6.909,41.521 28.375,22.920 28.375,22.920 C28.375,22.920 28.375,37.973 28.375,37.973 C35.375,33.840 40.687,26.399 40.687,17.884 C40.687,12.909 39.660,8.298 37.026,4.496 C46.389,7.607 52.489,16.430 52.489,26.837 C52.489,39.812 42.375,50.332 28.375,50.378 Z" id="path-1" class="cls-3" fill-rule="evenodd"/>
    <path d="M23.875,62.996 C23.520,62.996 23.168,62.869 22.889,62.627 C22.889,62.627 1.562,44.026 1.562,44.026 C1.536,44.004 1.512,43.980 1.487,43.956 C0.635,43.103 0.112,41.994 0.016,40.833 C-0.092,39.544 0.337,38.347 1.224,37.460 C1.250,37.435 1.277,37.409 1.305,37.385 C1.305,37.385 22.895,18.783 22.895,18.783 C23.342,18.401 23.967,18.313 24.500,18.557 C25.033,18.801 25.375,19.333 25.375,19.920 C25.375,19.920 25.375,32.170 25.375,32.170 C31.022,27.927 34.437,21.511 34.437,14.884 C34.437,9.937 33.254,5.721 30.918,2.351 C30.551,1.819 30.563,1.113 30.951,0.597 C31.338,0.080 32.015,-0.129 32.624,0.072 C42.600,3.387 49.302,12.936 49.302,23.837 C49.302,37.573 39.118,48.081 25.375,48.835 C25.375,48.835 25.375,61.496 25.375,61.496 C25.375,62.084 25.031,62.618 24.496,62.861 C24.297,62.952 24.086,62.996 23.875,62.996 ZM3.577,41.803 C3.577,41.803 22.375,58.197 22.375,58.197 C22.375,58.197 22.375,47.378 22.375,47.378 C22.375,46.552 23.044,45.881 23.870,45.878 C36.658,45.837 46.302,36.361 46.302,23.837 C46.302,15.588 42.197,8.443 35.561,4.649 C36.808,7.675 37.437,11.100 37.437,14.884 C37.437,23.410 32.533,31.603 24.638,36.265 C24.172,36.537 23.599,36.542 23.131,36.275 C22.664,36.009 22.375,35.511 22.375,34.973 C22.375,34.973 22.375,23.192 22.375,23.192 C22.375,23.192 3.313,39.614 3.313,39.614 C3.076,39.869 2.973,40.195 3.005,40.584 C3.041,41.019 3.249,41.461 3.577,41.803 Z" id="path-2" class="cls-4" fill-rule="evenodd"/>
  </g>
</svg>
