<svg xmlns="http://www.w3.org/2000/svg" xmlns:xlink="http://www.w3.org/1999/xlink" preserveAspectRatio="xMidYMid" width="65" height="67" viewBox="0 0 65 67">
  <defs>
    <style>

      .cls-3 {
        fill: #ff917b;
      }

      .cls-4 {
        fill: #000000;
      }
    </style>
  </defs>
  <g id="group-33svg">
    <path d="M64.605,21.836 C64.605,21.836 40.049,63.689 40.049,63.689 C38.699,67.228 33.691,67.290 32.342,63.750 C32.342,63.750 7.786,21.806 7.786,21.806 C6.757,19.106 8.750,16.000 11.639,16.000 C11.639,16.000 60.751,16.000 60.751,16.000 C63.641,16.000 65.634,19.137 64.605,21.836 Z" id="path-1" class="cls-3" fill-rule="evenodd"/>
    <path d="M30.112,63.781 C27.803,63.781 25.852,62.468 24.988,60.344 C24.988,60.344 0.489,18.279 0.489,18.279 C0.448,18.209 0.413,18.135 0.384,18.059 C-0.310,16.239 -0.033,14.150 1.124,12.472 C2.207,10.900 3.852,10.000 5.639,10.000 C5.639,10.000 54.751,10.000 54.751,10.000 C56.526,10.000 58.166,10.902 59.249,12.476 C60.405,14.152 60.695,16.315 60.006,18.120 C59.977,18.197 59.941,18.272 59.900,18.344 C59.900,18.344 35.401,60.223 35.401,60.223 C34.519,62.389 32.457,63.781 30.112,63.781 ZM3.151,16.888 C3.151,16.888 27.638,58.933 27.638,58.933 C27.679,59.003 27.714,59.077 27.743,59.153 C28.132,60.173 29.018,60.781 30.112,60.781 C31.015,60.781 32.155,60.321 32.647,59.030 C32.677,58.953 32.712,58.878 32.754,58.807 C32.754,58.807 57.240,16.948 57.240,16.948 C57.532,16.071 57.360,15.020 56.779,14.178 C56.264,13.429 55.524,13.000 54.751,13.000 C54.751,13.000 5.639,13.000 5.639,13.000 C4.854,13.000 4.109,13.428 3.595,14.174 C3.029,14.995 2.863,16.024 3.151,16.888 Z" id="path-2" class="cls-4" fill-rule="evenodd"/>
    <path d="M54.875,3.000 C54.875,3.000 3.875,3.000 3.875,3.000 C3.046,3.000 2.375,2.328 2.375,1.500 C2.375,0.672 3.046,-0.000 3.875,-0.000 C3.875,-0.000 54.875,-0.000 54.875,-0.000 C55.704,-0.000 56.375,0.672 56.375,1.500 C56.375,2.328 55.704,3.000 54.875,3.000 Z" id="path-3" class="cls-4" fill-rule="evenodd"/>
  </g>
</svg>
