<svg xmlns="http://www.w3.org/2000/svg" xmlns:xlink="http://www.w3.org/1999/xlink" preserveAspectRatio="xMidYMid" width="58" height="65" viewBox="0 0 58 65">
  <defs>
    <style>

      .cls-3 {
        fill: #8b71b5;
      }

      .cls-5 {
        fill: #000000;
      }
    </style>
  </defs>
  <g id="group-36svg">
    <path d="M31.126,6.285 C31.126,6.285 55.685,30.844 55.685,30.844 C57.569,32.728 57.521,35.828 55.580,37.770 C55.580,37.770 30.265,63.085 30.265,63.085 C27.980,65.370 24.205,64.871 22.740,62.090 C22.740,62.090 22.734,62.080 22.734,62.080 C21.770,60.248 22.140,57.965 23.645,56.459 C23.645,56.459 43.064,37.040 43.064,37.040 C44.490,35.614 44.524,33.337 43.142,31.954 C43.142,31.954 24.302,13.114 24.302,13.114 C22.842,11.655 22.541,9.381 23.562,7.520 C23.562,7.520 23.568,7.509 23.568,7.509 C25.118,4.683 28.910,4.069 31.126,6.285 Z" id="path-1" class="cls-3" fill-rule="evenodd"/>
    <path d="M14.000,8.830 C14.000,6.715 12.285,5.000 10.170,5.000 C10.170,5.000 8.830,5.000 8.830,5.000 C6.715,5.000 5.000,6.715 5.000,8.830 C5.000,8.830 5.000,60.170 5.000,60.170 C5.000,62.285 6.715,64.000 8.830,64.000 C8.830,64.000 10.170,64.000 10.170,64.000 C12.285,64.000 14.000,62.285 14.000,60.170 C14.000,60.170 14.000,8.830 14.000,8.830 Z" id="path-2" class="cls-3" fill-rule="evenodd"/>
    <path d="M22.820,63.028 C20.537,63.028 18.465,61.787 17.413,59.789 C16.127,57.349 16.601,54.383 18.584,52.399 C18.584,52.399 38.004,32.979 38.004,32.979 C38.842,32.141 38.877,30.811 38.081,30.015 C38.081,30.015 19.241,11.175 19.241,11.175 C17.325,9.258 16.916,6.225 18.247,3.799 C19.384,1.725 21.536,0.443 23.870,0.443 C25.506,0.443 27.039,1.076 28.187,2.225 C28.187,2.225 52.746,26.783 52.746,26.783 C55.211,29.248 55.164,33.308 52.641,35.831 C52.641,35.831 27.326,61.145 27.326,61.145 C26.112,62.359 24.512,63.028 22.820,63.028 ZM23.870,3.443 C22.632,3.443 21.487,4.128 20.883,5.230 C20.172,6.526 20.368,8.059 21.363,9.054 C21.363,9.054 40.202,27.894 40.202,27.894 C42.168,29.859 42.133,33.093 40.125,35.101 C40.125,35.101 20.705,54.520 20.705,54.520 C19.673,55.553 19.409,57.141 20.061,58.382 C20.607,59.416 21.636,60.028 22.820,60.028 C23.710,60.028 24.557,59.672 25.205,59.024 C25.205,59.024 50.519,33.710 50.519,33.710 C51.873,32.355 51.920,30.200 50.624,28.904 C50.624,28.904 26.066,4.346 26.066,4.346 C25.484,3.764 24.704,3.443 23.870,3.443 Z" id="path-3" class="cls-5" fill-rule="evenodd"/>
    <path d="M6.670,62.000 C6.670,62.000 5.330,62.000 5.330,62.000 C2.391,62.000 -0.000,59.609 -0.000,56.670 C-0.000,56.670 -0.000,5.330 -0.000,5.330 C-0.000,2.391 2.391,-0.000 5.330,-0.000 C5.330,-0.000 6.670,-0.000 6.670,-0.000 C9.609,-0.000 12.000,2.391 12.000,5.330 C12.000,5.330 12.000,56.670 12.000,56.670 C12.000,59.609 9.609,62.000 6.670,62.000 ZM5.330,3.000 C4.045,3.000 3.000,4.045 3.000,5.330 C3.000,5.330 3.000,56.670 3.000,56.670 C3.000,57.955 4.045,59.000 5.330,59.000 C5.330,59.000 6.670,59.000 6.670,59.000 C7.955,59.000 9.000,57.955 9.000,56.670 C9.000,56.670 9.000,5.330 9.000,5.330 C9.000,4.045 7.955,3.000 6.670,3.000 C6.670,3.000 5.330,3.000 5.330,3.000 Z" id="path-4" class="cls-5" fill-rule="evenodd"/>
  </g>
</svg>
