<svg xmlns="http://www.w3.org/2000/svg" xmlns:xlink="http://www.w3.org/1999/xlink" preserveAspectRatio="xMidYMid" width="62" height="45" viewBox="0 0 62 45">
  <defs>
    <style>

      .cls-3 {
        fill: #99746a;
      }
    </style>
  </defs>
  <g id="group-15svg">
    <path d="M46.540,44.392 C46.540,44.392 46.540,44.392 46.540,44.392 C45.960,44.392 45.409,44.140 45.029,43.702 C45.029,43.702 31.883,28.548 31.883,28.548 C31.159,27.714 31.248,26.450 32.083,25.727 C32.918,25.004 34.181,25.093 34.904,25.927 C34.904,25.927 46.541,39.340 46.541,39.340 C46.541,39.340 58.184,25.927 58.184,25.927 C58.907,25.092 60.171,25.002 61.005,25.727 C61.839,26.451 61.928,27.714 61.204,28.548 C61.204,28.548 48.050,43.702 48.050,43.702 C47.670,44.141 47.120,44.392 46.540,44.392 Z" id="path-1" class="cls-3" fill-rule="evenodd"/>
    <path d="M44.875,43.031 C43.770,43.031 42.875,42.136 42.875,41.031 C42.875,41.031 42.875,23.865 42.875,23.865 C42.875,12.905 34.154,3.989 23.435,3.989 C12.534,3.989 3.995,12.641 3.995,23.685 C3.995,24.789 3.100,25.685 1.995,25.685 C0.891,25.685 -0.005,24.789 -0.005,23.685 C-0.005,10.397 10.291,-0.011 23.435,-0.011 C36.360,-0.011 46.875,10.700 46.875,23.865 C46.875,23.865 46.875,41.031 46.875,41.031 C46.875,42.136 45.979,43.031 44.875,43.031 Z" id="path-2" class="cls-3" fill-rule="evenodd"/>
  </g>
</svg>
