<svg xmlns="http://www.w3.org/2000/svg" xmlns:xlink="http://www.w3.org/1999/xlink" preserveAspectRatio="xMidYMid" width="66" height="44" viewBox="0 0 66 44">
  <defs>
    <style>

      .cls-3 {
        fill: #edc951;
      }

      .cls-6 {
        fill: #8b71b5;
      }

      .cls-8 {
        fill: #000000;
      }
    </style>
  </defs>
  <g id="group-70svg">
    <path d="M57.031,39.750 C57.031,39.750 65.069,39.750 65.069,39.750 C65.069,31.750 58.936,25.055 51.061,24.202 C54.987,23.410 57.944,19.724 57.944,15.562 C57.944,10.817 53.631,6.750 48.885,6.750 C48.885,6.750 41.031,6.750 41.031,6.750 C41.031,6.750 41.031,39.750 41.031,39.750 C41.031,39.750 57.031,39.750 57.031,39.750 Z" id="path-1" class="cls-3" fill-rule="evenodd"/>
    <path d="M28.969,26.299 C26.624,24.942 23.947,24.171 21.012,24.171 C12.399,24.171 5.486,30.750 5.486,39.750 C5.486,39.750 17.031,39.750 17.031,39.750 C17.031,39.750 17.031,39.750 17.031,39.750 " id="path-2" class="cls-3" fill-rule="evenodd"/>
    <path d="M27.109,8.997 C25.566,7.454 23.436,6.500 21.081,6.500 C16.373,6.500 12.556,10.316 12.556,15.025 C12.556,19.733 16.373,23.550 21.081,23.550 C23.986,23.550 26.553,22.097 28.092,19.877 C28.092,19.877 28.092,19.877 28.092,19.877 " id="path-3" class="cls-3" fill-rule="evenodd"/>
    <path d="M18.933,43.565 C18.933,33.143 27.382,24.693 37.805,24.693 C48.226,24.693 56.676,33.143 56.676,43.565 C56.676,43.565 56.676,43.565 56.676,43.565 " id="path-4" class="cls-6" fill-rule="evenodd"/>
    <path d="M48.121,13.816 C48.121,19.514 43.502,24.133 37.805,24.133 C32.106,24.133 27.487,19.514 27.487,13.816 C27.487,8.119 32.106,3.500 37.805,3.500 C43.502,3.500 48.121,8.119 48.121,13.816 Z" id="path-5" class="cls-3" fill-rule="evenodd"/>
    <path d="M52.676,43.064 C51.848,43.064 51.176,42.393 51.176,41.564 C51.176,31.986 43.383,24.193 33.805,24.193 C24.226,24.193 16.433,31.986 16.433,41.564 C16.433,42.393 15.761,43.064 14.933,43.064 C14.104,43.064 13.433,42.393 13.433,41.564 C13.433,30.332 22.571,21.193 33.805,21.193 C45.037,21.193 54.176,30.332 54.176,41.564 C54.176,42.393 53.504,43.064 52.676,43.064 Z" id="path-6" class="cls-8" fill-rule="evenodd"/>
    <path d="M33.805,23.633 C27.288,23.633 21.987,18.332 21.987,11.816 C21.987,5.301 27.288,-0.000 33.805,-0.000 C40.320,-0.000 45.621,5.301 45.621,11.816 C45.621,18.332 40.320,23.633 33.805,23.633 ZM33.805,3.000 C28.942,3.000 24.987,6.955 24.987,11.816 C24.987,16.678 28.942,20.633 33.805,20.633 C38.666,20.633 42.621,16.678 42.621,11.816 C42.621,6.955 38.666,3.000 33.805,3.000 Z" id="path-7" class="cls-8" fill-rule="evenodd"/>
    <path d="M13.031,38.750 C13.031,38.750 1.486,38.750 1.486,38.750 C0.658,38.750 -0.014,38.078 -0.014,37.250 C-0.014,27.585 7.306,20.297 17.012,20.297 C19.975,20.297 22.904,21.122 25.720,22.750 C26.436,23.165 26.682,24.082 26.268,24.800 C25.852,25.517 24.934,25.762 24.218,25.348 C21.864,23.986 19.440,23.297 17.012,23.297 C9.527,23.297 3.765,28.553 3.060,35.750 C3.060,35.750 13.031,35.750 13.031,35.750 C13.859,35.750 14.531,36.422 14.531,37.250 C14.531,38.078 13.859,38.750 13.031,38.750 Z" id="path-8" class="cls-8" fill-rule="evenodd"/>
    <path d="M17.081,23.051 C11.553,23.051 7.056,18.553 7.056,13.025 C7.056,7.497 11.553,3.000 17.081,3.000 C19.759,3.000 22.276,4.043 24.170,5.936 C24.756,6.522 24.756,7.473 24.170,8.058 C23.584,8.644 22.635,8.644 22.049,8.058 C20.722,6.731 18.958,6.000 17.081,6.000 C13.207,6.000 10.056,9.151 10.056,13.025 C10.056,16.898 13.207,20.051 17.081,20.051 C19.385,20.051 21.545,18.918 22.859,17.022 C23.331,16.341 24.266,16.172 24.946,16.644 C25.627,17.116 25.797,18.051 25.324,18.731 C23.449,21.435 20.368,23.051 17.081,23.051 Z" id="path-9" class="cls-8" fill-rule="evenodd"/>
    <path d="M61.069,38.750 C61.069,38.750 53.031,38.750 53.031,38.750 C52.203,38.750 51.531,38.078 51.531,37.250 C51.531,36.422 52.203,35.750 53.031,35.750 C53.031,35.750 59.487,35.750 59.487,35.750 C58.782,29.339 53.606,24.169 46.899,23.443 C46.164,23.364 45.596,22.760 45.562,22.021 C45.528,21.282 46.038,20.628 46.764,20.482 C50.108,19.807 52.444,17.016 52.444,13.693 C52.444,9.874 48.841,6.396 44.885,6.396 C44.057,6.396 43.385,5.725 43.385,4.896 C43.385,4.067 44.057,3.396 44.885,3.396 C50.510,3.396 55.444,8.208 55.444,13.693 C55.444,16.859 53.979,19.686 51.600,21.511 C58.081,23.980 62.569,30.137 62.569,37.250 C62.569,38.078 61.897,38.750 61.069,38.750 Z" id="path-10" class="cls-8" fill-rule="evenodd"/>
  </g>
</svg>
