<svg xmlns="http://www.w3.org/2000/svg" xmlns:xlink="http://www.w3.org/1999/xlink" preserveAspectRatio="xMidYMid" width="69" height="49" viewBox="0 0 69 49">
  <defs>
    <style>

      .cls-3 {
        fill: #81bda4;
      }

      .cls-4 {
        fill: #ffffff;
      }

      .cls-5 {
        fill: #000000;
      }
    </style>
  </defs>
  <g id="group-58svg">
    <path d="M60.592,8.880 C65.085,8.880 68.000,12.522 68.000,17.016 C68.000,17.016 68.000,40.405 68.000,40.405 C68.000,44.898 65.811,48.687 61.318,48.687 C61.318,48.687 17.590,48.687 17.590,48.687 C13.097,48.687 8.000,44.898 8.000,40.405 C8.000,40.405 8.000,17.016 8.000,17.016 C8.000,12.522 12.006,8.880 16.499,8.880 C16.499,8.880 16.499,8.880 16.499,8.880 " id="path-1" class="cls-3" fill-rule="evenodd"/>
    <path d="M68.436,13.965 C68.436,13.965 43.479,29.182 43.479,29.182 C41.006,30.595 37.974,30.612 35.484,29.226 C35.484,29.226 10.979,13.965 10.979,13.965 C10.979,13.965 10.979,13.965 10.979,13.965 " id="path-2" class="cls-4" fill-rule="evenodd"/>
    <path d="M54.318,47.687 C54.318,47.687 10.590,47.687 10.590,47.687 C5.476,47.687 -0.000,43.958 -0.000,38.406 C-0.000,38.406 -0.000,15.015 -0.000,15.015 C-0.000,9.793 4.521,5.380 9.874,5.380 C10.702,5.380 11.374,6.052 11.374,6.880 C11.374,7.709 10.702,8.380 9.874,8.380 C6.147,8.380 3.000,11.419 3.000,15.015 C3.000,15.015 3.000,38.406 3.000,38.406 C3.000,42.107 7.000,44.687 10.590,44.687 C10.590,44.687 54.318,44.687 54.318,44.687 C57.823,44.687 60.000,42.280 60.000,38.406 C60.000,38.406 60.000,15.015 60.000,15.015 C60.000,11.233 57.352,8.380 53.842,8.380 C53.014,8.380 52.342,7.709 52.342,6.880 C52.342,6.052 53.014,5.380 53.842,5.380 C59.062,5.380 63.000,9.522 63.000,15.015 C63.000,15.015 63.000,38.406 63.000,38.406 C63.000,43.957 59.511,47.687 54.318,47.687 Z" id="path-3" class="cls-5" fill-rule="evenodd"/>
    <path d="M32.422,29.742 C30.805,29.742 29.195,29.340 27.755,28.537 C27.755,28.537 3.186,13.238 3.186,13.238 C2.483,12.800 2.268,11.875 2.706,11.172 C3.144,10.467 4.070,10.256 4.772,10.691 C4.772,10.691 29.277,25.953 29.277,25.953 C31.232,27.039 33.730,27.023 35.735,25.879 C35.735,25.879 59.632,10.699 59.632,10.699 C60.332,10.254 61.258,10.461 61.703,11.161 C62.146,11.860 61.940,12.787 61.241,13.231 C61.241,13.231 37.284,28.447 37.284,28.447 C35.773,29.311 34.094,29.742 32.422,29.742 Z" id="path-4" class="cls-5" fill-rule="evenodd"/>
    <path d="M34.502,5.825 C34.502,5.825 34.770,4.633 34.770,4.633 C34.770,4.633 37.606,4.633 37.606,4.633 C37.606,4.633 35.974,12.335 35.974,12.335 C35.873,12.822 35.823,13.144 35.823,13.302 C35.823,13.467 35.864,13.596 35.946,13.688 C36.029,13.782 36.128,13.828 36.242,13.828 C36.629,13.828 37.128,13.576 37.741,13.071 C38.353,12.566 38.887,11.878 39.341,11.008 C39.796,10.138 40.023,9.187 40.023,8.156 C40.023,7.297 39.860,6.488 39.534,5.728 C39.209,4.970 38.738,4.310 38.122,3.752 C37.506,3.193 36.745,2.757 35.839,2.441 C34.934,2.126 33.907,1.969 32.762,1.969 C31.595,1.969 30.523,2.121 29.550,2.425 C28.576,2.730 27.720,3.166 26.982,3.736 C26.245,4.305 25.629,5.009 25.135,5.847 C24.698,6.577 24.365,7.387 24.136,8.274 C23.906,9.162 23.792,10.068 23.792,10.992 C23.792,12.224 24.037,13.350 24.528,14.370 C25.019,15.391 25.731,16.247 26.665,16.938 C27.601,17.629 28.729,18.119 30.055,18.410 C31.380,18.699 32.876,18.759 34.545,18.587 C35.870,18.430 36.992,18.128 37.913,17.684 C38.833,17.240 39.611,16.617 40.249,15.815 C40.249,15.815 42.537,15.815 42.537,15.815 C42.165,16.581 41.680,17.266 41.081,17.867 C40.483,18.469 39.783,18.975 38.981,19.387 C38.180,19.799 37.280,20.112 36.285,20.327 C35.290,20.542 34.205,20.649 33.030,20.649 C31.268,20.649 29.683,20.419 28.271,19.957 C26.860,19.494 25.674,18.828 24.710,17.959 C23.747,17.088 23.018,16.050 22.524,14.843 C22.030,13.637 21.783,12.303 21.783,10.842 C21.783,9.316 22.037,7.892 22.546,6.566 C23.055,5.242 23.786,4.090 24.743,3.113 C25.698,2.135 26.866,1.371 28.245,0.819 C29.623,0.268 31.144,-0.008 32.805,-0.008 C34.165,-0.008 35.413,0.191 36.548,0.588 C37.684,0.986 38.655,1.557 39.465,2.302 C40.274,3.047 40.892,3.929 41.317,4.950 C41.744,5.970 41.957,7.097 41.957,8.328 C41.957,9.288 41.785,10.228 41.441,11.148 C41.098,12.068 40.605,12.895 39.964,13.629 C39.323,14.364 38.569,14.944 37.703,15.370 C36.837,15.796 35.902,16.009 34.899,16.009 C34.319,16.009 33.868,15.911 33.546,15.713 C33.224,15.517 33.009,15.203 32.901,14.773 C32.278,15.390 31.562,15.778 30.753,15.939 C29.943,16.100 29.159,16.025 28.400,15.713 C27.642,15.402 27.027,14.877 26.558,14.140 C26.089,13.402 25.854,12.493 25.854,11.411 C25.854,10.287 26.097,9.181 26.579,8.092 C27.063,7.003 27.751,6.112 28.642,5.417 C29.534,4.723 30.542,4.375 31.666,4.375 C32.955,4.375 33.900,4.858 34.502,5.825 ZM28.626,11.390 C28.626,12.249 28.805,12.908 29.163,13.366 C29.521,13.825 29.990,14.054 30.570,14.054 C31.243,14.054 31.836,13.785 32.349,13.248 C32.860,12.711 33.249,12.033 33.514,11.212 C33.778,10.393 33.911,9.600 33.911,8.833 C33.911,8.454 33.866,8.112 33.776,7.807 C33.687,7.503 33.555,7.236 33.380,7.007 C33.204,6.778 32.993,6.604 32.745,6.486 C32.499,6.368 32.218,6.309 31.902,6.309 C31.272,6.309 30.704,6.554 30.200,7.044 C29.694,7.535 29.307,8.172 29.034,8.956 C28.762,9.741 28.626,10.552 28.626,11.390 Z" id="path-5" class="cls-5" fill-rule="evenodd"/>
  </g>
</svg>
