<svg xmlns="http://www.w3.org/2000/svg" xmlns:xlink="http://www.w3.org/1999/xlink" preserveAspectRatio="xMidYMid" width="69" height="65" viewBox="0 0 69 65">
  <defs>
    <style>

      .cls-3 {
        fill: #99746a;
      }

      .cls-4 {
        fill: #81bda4;
      }

      .cls-5 {
        fill: #edc951;
      }

      .cls-7 {
        fill: #ffffff;
      }

      .cls-8 {
        fill: #000000;
      }
    </style>
  </defs>
  <g id="group-52svg">
    <path d="M19.000,28.000 C19.000,28.000 19.000,7.202 19.000,7.202 C19.000,5.002 21.025,3.000 23.225,3.000 C23.225,3.000 46.225,3.000 46.225,3.000 C48.434,3.000 50.000,4.993 50.000,7.202 C50.000,7.202 50.000,28.000 50.000,28.000 C50.000,28.000 50.000,28.000 50.000,28.000 " id="path-1" class="cls-3" fill-rule="evenodd"/>
    <path d="M60.413,25.415 C64.906,25.415 68.000,29.058 68.000,33.551 C68.000,33.551 68.000,56.940 68.000,56.940 C68.000,61.434 65.454,65.000 60.961,65.000 C60.961,65.000 17.232,65.000 17.232,65.000 C12.739,65.000 8.000,61.434 8.000,56.940 C8.000,56.940 8.000,33.551 8.000,33.551 C8.000,29.058 11.916,25.415 16.410,25.415 C16.410,25.415 16.410,25.415 16.410,25.415 " id="path-2" class="cls-4" fill-rule="evenodd"/>
    <path d="M37.000,23.000 C37.000,24.104 36.104,25.000 35.000,25.000 C35.000,25.000 28.000,25.000 28.000,25.000 C26.895,25.000 26.000,24.104 26.000,23.000 C26.000,23.000 26.000,18.000 26.000,18.000 C26.000,16.895 26.895,16.000 28.000,16.000 C28.000,16.000 35.000,16.000 35.000,16.000 C36.104,16.000 37.000,16.895 37.000,18.000 C37.000,18.000 37.000,23.000 37.000,23.000 Z" id="path-3" class="cls-5" fill-rule="evenodd"/>
    <path d="M43.000,24.591 C43.000,24.591 37.382,20.784 37.382,20.784 C37.382,20.784 37.122,18.860 37.122,18.860 C37.122,18.860 43.000,15.517 43.000,15.517 C43.000,15.517 43.000,24.591 43.000,24.591 Z" id="path-4" class="cls-5" fill-rule="evenodd"/>
    <path d="M68.079,30.500 C68.079,30.500 43.122,45.716 43.122,45.716 C40.648,47.130 37.616,47.147 35.126,45.761 C35.126,45.761 10.622,30.500 10.622,30.500 C10.622,30.500 10.622,30.500 10.622,30.500 " id="path-5" class="cls-7" fill-rule="evenodd"/>
    <path d="M53.961,64.000 C53.961,64.000 10.232,64.000 10.232,64.000 C4.590,64.000 -0.000,59.936 -0.000,54.940 C-0.000,54.940 -0.000,31.551 -0.000,31.551 C-0.000,26.237 4.389,21.915 9.785,21.915 C10.613,21.915 11.285,22.586 11.285,23.415 C11.285,24.244 10.613,24.915 9.785,24.915 C6.107,24.915 3.000,27.953 3.000,31.551 C3.000,31.551 3.000,54.940 3.000,54.940 C3.000,58.684 6.754,61.000 10.232,61.000 C10.232,61.000 53.961,61.000 53.961,61.000 C57.629,61.000 60.000,58.621 60.000,54.940 C60.000,54.940 60.000,31.551 60.000,31.551 C60.000,27.830 57.216,24.915 53.663,24.915 C52.834,24.915 52.163,24.244 52.163,23.415 C52.163,22.586 52.834,21.915 53.663,21.915 C58.898,21.915 63.000,26.147 63.000,31.551 C63.000,31.551 63.000,54.940 63.000,54.940 C63.000,60.274 59.283,64.000 53.961,64.000 Z" id="path-6" class="cls-8" fill-rule="evenodd"/>
    <path d="M32.065,46.276 C30.447,46.276 28.838,45.874 27.397,45.072 C27.397,45.072 2.829,29.772 2.829,29.772 C2.126,29.335 1.911,28.410 2.349,27.707 C2.787,27.003 3.712,26.789 4.415,27.226 C4.415,27.226 28.920,42.488 28.920,42.488 C30.874,43.573 33.373,43.560 35.378,42.414 C35.378,42.414 59.275,27.233 59.275,27.233 C59.976,26.789 60.902,26.996 61.345,27.695 C61.790,28.394 61.582,29.321 60.883,29.766 C60.883,29.766 36.926,44.982 36.926,44.982 C35.416,45.846 33.736,46.276 32.065,46.276 Z" id="path-7" class="cls-8" fill-rule="evenodd"/>
    <path d="M47.500,27.500 C46.671,27.500 46.000,26.829 46.000,26.000 C46.000,26.000 46.000,5.202 46.000,5.202 C46.000,3.842 44.560,3.000 43.225,3.000 C43.225,3.000 20.225,3.000 20.225,3.000 C18.852,3.000 18.000,3.844 18.000,5.202 C18.000,5.202 18.000,26.000 18.000,26.000 C18.000,26.829 17.329,27.500 16.500,27.500 C15.671,27.500 15.000,26.829 15.000,26.000 C15.000,26.000 15.000,5.202 15.000,5.202 C15.000,2.188 17.197,-0.000 20.225,-0.000 C20.225,-0.000 43.225,-0.000 43.225,-0.000 C46.463,-0.000 49.000,2.285 49.000,5.202 C49.000,5.202 49.000,26.000 49.000,26.000 C49.000,26.829 48.329,27.500 47.500,27.500 Z" id="path-8" class="cls-8" fill-rule="evenodd"/>
    <path d="M32.500,24.000 C32.500,24.000 25.500,24.000 25.500,24.000 C23.570,24.000 22.000,22.430 22.000,20.500 C22.000,20.500 22.000,15.500 22.000,15.500 C22.000,13.570 23.570,12.000 25.500,12.000 C25.500,12.000 32.500,12.000 32.500,12.000 C34.430,12.000 36.000,13.570 36.000,15.500 C36.000,15.500 36.000,20.500 36.000,20.500 C36.000,22.430 34.430,24.000 32.500,24.000 ZM25.500,15.000 C25.224,15.000 25.000,15.224 25.000,15.500 C25.000,15.500 25.000,20.500 25.000,20.500 C25.000,20.776 25.224,21.000 25.500,21.000 C25.500,21.000 32.500,21.000 32.500,21.000 C32.776,21.000 33.000,20.776 33.000,20.500 C33.000,20.500 33.000,15.500 33.000,15.500 C33.000,15.224 32.776,15.000 32.500,15.000 C32.500,15.000 25.500,15.000 25.500,15.000 Z" id="path-9" class="cls-8" fill-rule="evenodd"/>
    <path d="M40.500,24.091 C40.215,24.091 39.931,24.010 39.684,23.850 C39.684,23.850 33.815,20.042 33.815,20.042 C33.420,19.786 33.168,19.359 33.136,18.889 C33.136,18.889 33.000,16.965 33.000,16.965 C32.959,16.385 33.258,15.833 33.767,15.550 C33.767,15.550 39.770,12.206 39.770,12.206 C40.234,11.947 40.801,11.953 41.260,12.223 C41.718,12.493 42.000,12.985 42.000,13.517 C42.000,13.517 42.000,22.591 42.000,22.591 C42.000,23.141 41.699,23.647 41.216,23.909 C40.992,24.031 40.746,24.091 40.500,24.091 ZM36.076,17.933 C36.076,17.933 39.000,19.830 39.000,19.830 C39.000,19.830 39.000,16.069 39.000,16.069 C39.000,16.069 36.060,17.706 36.060,17.706 C36.060,17.706 36.076,17.933 36.076,17.933 Z" id="path-10" class="cls-8" fill-rule="evenodd"/>
  </g>
</svg>
