<svg xmlns="http://www.w3.org/2000/svg" xmlns:xlink="http://www.w3.org/1999/xlink" preserveAspectRatio="xMidYMid" width="69" height="42" viewBox="0 0 69 42">
  <defs>
    <style>

      .cls-3 {
        fill: #81bda4;
      }

      .cls-4 {
        fill: #ffffff;
      }

      .cls-5 {
        fill: #000000;
      }
    </style>
  </defs>
  <g id="group-43svg">
    <path d="M60.550,3.494 C65.043,3.494 68.000,7.137 68.000,11.630 C68.000,11.630 68.000,35.019 68.000,35.019 C68.000,39.513 65.729,42.375 61.236,42.375 C61.236,42.375 17.507,42.375 17.507,42.375 C13.014,42.375 8.000,39.513 8.000,35.019 C8.000,35.019 8.000,11.630 8.000,11.630 C8.000,7.137 11.985,3.494 16.479,3.494 C16.479,3.494 16.479,3.494 16.479,3.494 " id="path-1" class="cls-3" fill-rule="evenodd"/>
    <path d="M68.354,8.579 C68.354,8.579 43.397,23.795 43.397,23.795 C40.924,25.209 37.891,25.226 35.402,23.840 C35.402,23.840 10.897,8.579 10.897,8.579 C10.897,8.579 10.897,8.579 10.897,8.579 " id="path-2" class="cls-4" fill-rule="evenodd"/>
    <path d="M54.236,41.375 C54.236,41.375 10.507,41.375 10.507,41.375 C5.286,41.375 -0.000,38.505 -0.000,33.019 C-0.000,33.019 -0.000,9.630 -0.000,9.630 C-0.000,4.407 4.512,-0.006 9.853,-0.006 C10.682,-0.006 11.353,0.665 11.353,1.494 C11.353,2.323 10.682,2.994 9.853,2.994 C6.139,2.994 3.000,6.033 3.000,9.630 C3.000,9.630 3.000,33.019 3.000,33.019 C3.000,36.536 6.777,38.375 10.507,38.375 C10.507,38.375 54.236,38.375 54.236,38.375 C58.061,38.375 60.000,36.573 60.000,33.019 C60.000,33.019 60.000,9.630 60.000,9.630 C60.000,5.847 57.334,2.994 53.800,2.994 C52.972,2.994 52.300,2.323 52.300,1.494 C52.300,0.665 52.972,-0.006 53.800,-0.006 C59.045,-0.006 63.000,4.137 63.000,9.630 C63.000,9.630 63.000,33.019 63.000,33.019 C63.000,38.251 59.724,41.375 54.236,41.375 Z" id="path-3" class="cls-5" fill-rule="evenodd"/>
    <path d="M32.340,24.355 C30.723,24.355 29.113,23.953 27.672,23.151 C27.672,23.151 3.104,7.852 3.104,7.852 C2.401,7.414 2.186,6.489 2.624,5.786 C3.061,5.083 3.987,4.869 4.690,5.306 C4.690,5.306 29.195,20.567 29.195,20.567 C31.149,21.652 33.647,21.639 35.653,20.493 C35.653,20.493 59.550,5.313 59.550,5.313 C60.251,4.869 61.177,5.075 61.621,5.775 C62.065,6.474 61.858,7.401 61.159,7.845 C61.159,7.845 37.201,23.061 37.201,23.061 C35.691,23.925 34.011,24.355 32.340,24.355 Z" id="path-4" class="cls-5" fill-rule="evenodd"/>
  </g>
</svg>
