<svg xmlns="http://www.w3.org/2000/svg" xmlns:xlink="http://www.w3.org/1999/xlink" preserveAspectRatio="xMidYMid" width="52" height="67" viewBox="0 0 52 67">
  <defs>
    <style>

      .cls-3 {
        fill: #e56a77;
      }

      .cls-4 {
        fill: #000000;
      }
    </style>
  </defs>
  <g id="group-15svg">
    <path d="M43.868,6.000 C43.868,6.000 16.875,6.000 16.875,6.000 C11.690,6.000 7.000,10.369 7.000,15.554 C7.000,15.554 7.000,66.165 7.000,66.165 C7.000,66.165 18.276,52.000 18.276,52.000 C18.276,52.000 43.868,52.000 43.868,52.000 C49.053,52.000 52.000,47.732 52.000,42.546 C52.000,42.546 52.000,15.554 52.000,15.554 C52.000,10.369 49.053,6.000 43.868,6.000 Z" id="path-1" class="cls-3" fill-rule="evenodd"/>
    <path d="M1.500,63.665 C1.344,63.665 1.186,63.641 1.033,63.590 C0.416,63.388 -0.000,62.813 -0.000,62.165 C-0.000,62.165 -0.000,11.554 -0.000,11.554 C-0.000,5.399 5.082,-0.000 10.875,-0.000 C10.875,-0.000 37.868,-0.000 37.868,-0.000 C44.210,-0.000 48.000,5.874 48.000,11.554 C48.000,11.554 48.000,38.546 48.000,38.546 C48.000,44.701 43.833,49.000 37.868,49.000 C37.868,49.000 13.035,49.000 13.035,49.000 C13.035,49.000 2.709,63.053 2.709,63.053 C2.421,63.445 1.968,63.665 1.500,63.665 ZM10.875,3.000 C6.680,3.000 3.000,6.997 3.000,11.554 C3.000,11.554 3.000,57.590 3.000,57.590 C3.000,57.590 11.067,46.612 11.067,46.612 C11.350,46.227 11.798,46.000 12.276,46.000 C12.276,46.000 37.868,46.000 37.868,46.000 C42.134,46.000 45.000,43.004 45.000,38.546 C45.000,38.546 45.000,11.554 45.000,11.554 C45.000,7.349 42.333,3.000 37.868,3.000 C37.868,3.000 10.875,3.000 10.875,3.000 Z" id="path-2" class="cls-4" fill-rule="evenodd"/>
    <path d="M20.581,31.000 C20.564,31.000 20.548,31.000 20.531,31.000 C20.116,31.000 19.725,31.034 19.452,30.722 C19.452,30.722 15.565,26.388 15.565,26.388 C15.020,25.764 15.084,24.874 15.708,24.329 C16.333,23.785 17.281,23.879 17.825,24.502 C17.825,24.502 20.656,27.759 20.656,27.759 C20.656,27.759 27.359,21.063 27.359,21.063 C27.945,20.477 28.894,20.480 29.480,21.067 C30.066,21.652 30.066,22.604 29.480,23.189 C29.480,23.189 21.642,30.794 21.642,30.794 C21.360,31.076 20.979,31.000 20.581,31.000 Z" id="path-3" class="cls-4" fill-rule="evenodd"/>
  </g>
</svg>
