<svg xmlns="http://www.w3.org/2000/svg" xmlns:xlink="http://www.w3.org/1999/xlink" preserveAspectRatio="xMidYMid" width="64" height="49" viewBox="0 0 64 49">
  <defs>
    <style>

      .cls-3 {
        fill: #000000;
      }

      .cls-7 {
        fill: #e56a77;
      }
    </style>
  </defs>
  <g id="group-8svg">
    <path d="M55.965,18.318 C55.137,18.318 54.465,17.647 54.465,16.818 C54.465,12.131 50.651,8.318 45.965,8.318 C45.137,8.318 44.465,7.647 44.465,6.818 C44.465,5.990 45.137,5.318 45.965,5.318 C52.306,5.318 57.465,10.477 57.465,16.818 C57.465,17.647 56.793,18.318 55.965,18.318 Z" id="path-1" class="cls-3" fill-rule="evenodd"/>
    <path d="M61.298,17.651 C60.470,17.651 59.798,16.980 59.798,16.151 C59.798,8.891 53.892,2.985 46.631,2.985 C45.803,2.985 45.131,2.313 45.131,1.485 C45.131,0.656 45.803,-0.015 46.631,-0.015 C55.545,-0.015 62.798,7.237 62.798,16.151 C62.798,16.980 62.126,17.651 61.298,17.651 Z" id="path-2" class="cls-3" fill-rule="evenodd"/>
    <path d="M9.298,18.318 C8.470,18.318 7.798,17.647 7.798,16.818 C7.798,10.477 12.957,5.318 19.298,5.318 C20.126,5.318 20.798,5.990 20.798,6.818 C20.798,7.647 20.126,8.318 19.298,8.318 C14.611,8.318 10.798,12.131 10.798,16.818 C10.798,17.647 10.126,18.318 9.298,18.318 Z" id="path-3" class="cls-3" fill-rule="evenodd"/>
    <path d="M3.965,17.651 C3.137,17.651 2.465,16.980 2.465,16.151 C2.465,7.237 9.717,-0.015 18.631,-0.015 C19.459,-0.015 20.131,0.656 20.131,1.485 C20.131,2.313 19.459,2.985 18.631,2.985 C11.371,2.985 5.465,8.891 5.465,16.151 C5.465,16.980 4.793,17.651 3.965,17.651 Z" id="path-4" class="cls-3" fill-rule="evenodd"/>
    <path d="M18.000,45.125 C18.000,45.125 18.000,37.000 18.000,37.000 C18.000,37.000 34.708,37.000 34.708,37.000 C34.708,37.000 49.000,37.000 49.000,37.000 C49.000,37.000 49.000,45.125 49.000,45.125 C49.000,47.326 52.098,49.000 54.298,49.000 C54.298,49.000 61.298,49.000 61.298,49.000 C63.498,49.000 64.000,47.326 64.000,45.125 C64.000,45.125 64.000,31.125 64.000,31.125 C64.000,26.725 61.698,23.000 57.298,23.000 C57.298,23.000 34.708,23.000 34.708,23.000 C34.708,23.000 13.298,23.000 13.298,23.000 C8.880,23.000 4.000,26.707 4.000,31.125 C4.000,31.125 4.000,45.125 4.000,45.125 C4.000,47.326 7.098,49.000 9.298,49.000 C9.298,49.000 15.298,49.000 15.298,49.000 C17.507,49.000 18.000,47.335 18.000,45.125 Z" id="path-5" class="cls-7" fill-rule="evenodd"/>
    <path d="M58.298,48.000 C58.298,48.000 51.298,48.000 51.298,48.000 C48.202,48.000 45.000,46.177 45.000,43.125 C45.000,43.125 45.000,36.000 45.000,36.000 C45.000,36.000 17.000,36.000 17.000,36.000 C17.000,36.000 17.000,43.125 17.000,43.125 C17.000,46.223 15.286,48.000 12.298,48.000 C12.298,48.000 6.298,48.000 6.298,48.000 C3.202,48.000 -0.000,46.177 -0.000,43.125 C-0.000,43.125 -0.000,29.125 -0.000,29.125 C-0.000,23.921 5.005,19.000 10.298,19.000 C10.298,19.000 54.298,19.000 54.298,19.000 C59.745,19.000 63.000,24.148 63.000,29.125 C63.000,29.125 63.000,43.125 63.000,43.125 C63.000,46.223 61.286,48.000 58.298,48.000 ZM15.500,33.000 C15.500,33.000 46.500,33.000 46.500,33.000 C47.328,33.000 48.000,33.671 48.000,34.500 C48.000,34.500 48.000,43.125 48.000,43.125 C48.000,44.230 49.738,45.000 51.298,45.000 C51.298,45.000 58.298,45.000 58.298,45.000 C59.451,45.000 60.000,44.720 60.000,43.125 C60.000,43.125 60.000,29.125 60.000,29.125 C60.000,25.623 57.867,22.000 54.298,22.000 C54.298,22.000 10.298,22.000 10.298,22.000 C6.683,22.000 3.000,25.596 3.000,29.125 C3.000,29.125 3.000,43.125 3.000,43.125 C3.000,44.230 4.738,45.000 6.298,45.000 C6.298,45.000 12.298,45.000 12.298,45.000 C13.475,45.000 14.000,44.729 14.000,43.125 C14.000,43.125 14.000,34.500 14.000,34.500 C14.000,33.671 14.672,33.000 15.500,33.000 Z" id="path-6" class="cls-3" fill-rule="evenodd"/>
    <path d="M15.000,40.000 C15.000,40.000 2.000,40.000 2.000,40.000 C1.172,40.000 0.500,39.329 0.500,38.500 C0.500,37.671 1.172,37.000 2.000,37.000 C2.000,37.000 15.000,37.000 15.000,37.000 C15.828,37.000 16.500,37.671 16.500,38.500 C16.500,39.329 15.828,40.000 15.000,40.000 Z" id="path-7" class="cls-3" fill-rule="evenodd"/>
    <path d="M61.000,40.000 C61.000,40.000 47.000,40.000 47.000,40.000 C46.172,40.000 45.500,39.329 45.500,38.500 C45.500,37.671 46.172,37.000 47.000,37.000 C47.000,37.000 61.000,37.000 61.000,37.000 C61.828,37.000 62.500,37.671 62.500,38.500 C62.500,39.329 61.828,40.000 61.000,40.000 Z" id="path-8" class="cls-3" fill-rule="evenodd"/>
  </g>
</svg>
