<svg xmlns="http://www.w3.org/2000/svg" xmlns:xlink="http://www.w3.org/1999/xlink" preserveAspectRatio="xMidYMid" width="52" height="67" viewBox="0 0 52 67">
  <defs>
    <style>

      .cls-3 {
        fill: #e56a77;
      }

      .cls-4 {
        fill: #000000;
      }
    </style>
  </defs>
  <g id="group-19svg">
    <path d="M44.251,6.000 C44.251,6.000 17.259,6.000 17.259,6.000 C12.073,6.000 7.000,10.369 7.000,15.554 C7.000,15.554 7.000,66.165 7.000,66.165 C7.000,66.165 18.659,52.000 18.659,52.000 C18.659,52.000 44.251,52.000 44.251,52.000 C49.437,52.000 52.000,47.732 52.000,42.546 C52.000,42.546 52.000,15.554 52.000,15.554 C52.000,10.369 49.437,6.000 44.251,6.000 Z" id="path-1" class="cls-3" fill-rule="evenodd"/>
    <path d="M1.500,63.665 C1.340,63.665 1.178,63.640 1.020,63.586 C0.411,63.381 -0.000,62.809 -0.000,62.165 C-0.000,62.165 -0.000,11.554 -0.000,11.554 C-0.000,5.507 5.366,-0.000 11.259,-0.000 C11.259,-0.000 38.251,-0.000 38.251,-0.000 C44.583,-0.000 48.000,5.953 48.000,11.554 C48.000,11.554 48.000,38.546 48.000,38.546 C48.000,44.799 44.082,49.000 38.251,49.000 C38.251,49.000 13.402,49.000 13.402,49.000 C13.402,49.000 2.693,63.073 2.693,63.073 C2.404,63.454 1.959,63.665 1.500,63.665 ZM11.259,3.000 C7.014,3.000 3.000,7.157 3.000,11.554 C3.000,11.554 3.000,57.717 3.000,57.717 C3.000,57.717 11.466,46.592 11.466,46.592 C11.749,46.219 12.190,46.000 12.659,46.000 C12.659,46.000 38.251,46.000 38.251,46.000 C42.414,46.000 45.000,43.144 45.000,38.546 C45.000,38.546 45.000,11.554 45.000,11.554 C45.000,7.303 42.682,3.000 38.251,3.000 C38.251,3.000 11.259,3.000 11.259,3.000 Z" id="path-2" class="cls-4" fill-rule="evenodd"/>
    <path d="M22.418,38.357 C17.077,38.357 12.732,34.012 12.732,28.671 C12.732,23.330 17.077,18.985 22.418,18.985 C27.759,18.985 32.104,23.330 32.104,28.671 C32.104,34.012 27.759,38.357 22.418,38.357 ZM22.418,21.985 C18.731,21.985 15.732,24.984 15.732,28.671 C15.732,32.357 18.731,35.357 22.418,35.357 C26.104,35.357 29.103,32.357 29.103,28.671 C29.103,24.984 26.104,21.985 22.418,21.985 Z" id="path-3" class="cls-4" fill-rule="evenodd"/>
    <path d="M25.000,30.000 C25.000,30.000 19.000,30.000 19.000,30.000 C18.172,30.000 17.500,29.328 17.500,28.500 C17.500,27.671 18.172,27.000 19.000,27.000 C19.000,27.000 25.000,27.000 25.000,27.000 C25.828,27.000 26.500,27.671 26.500,28.500 C26.500,29.328 25.828,30.000 25.000,30.000 Z" id="path-4" class="cls-4" fill-rule="evenodd"/>
  </g>
</svg>
