<svg xmlns="http://www.w3.org/2000/svg" xmlns:xlink="http://www.w3.org/1999/xlink" preserveAspectRatio="xMidYMid" width="69" height="53" viewBox="0 0 69 53">
  <defs>
    <style>

      .cls-3 {
        fill: #81bda4;
      }

      .cls-4 {
        fill: #ffffff;
      }

      .cls-5 {
        fill: #000000;
      }
    </style>
  </defs>
  <g id="group-45svg">
    <path d="M60.439,13.650 C64.932,13.650 68.000,17.292 68.000,21.786 C68.000,21.786 68.000,45.176 68.000,45.176 C68.000,49.669 65.507,53.000 61.013,53.000 C61.013,53.000 17.285,53.000 17.285,53.000 C12.791,53.000 8.000,49.669 8.000,45.176 C8.000,45.176 8.000,21.786 8.000,21.786 C8.000,17.292 11.930,13.650 16.423,13.650 C16.423,13.650 16.423,13.650 16.423,13.650 " id="path-1" class="cls-3" fill-rule="evenodd"/>
    <path d="M68.132,18.735 C68.132,18.735 43.174,33.952 43.174,33.952 C40.701,35.365 37.668,35.382 35.179,33.997 C35.179,33.997 10.674,18.735 10.674,18.735 C10.674,18.735 10.674,18.735 10.674,18.735 " id="path-2" class="cls-4" fill-rule="evenodd"/>
    <path d="M54.013,52.000 C54.013,52.000 10.285,52.000 10.285,52.000 C5.229,52.000 -0.000,48.699 -0.000,43.176 C-0.000,43.176 -0.000,19.786 -0.000,19.786 C-0.000,14.473 4.395,10.150 9.798,10.150 C10.626,10.150 11.298,10.822 11.298,11.650 C11.298,12.479 10.626,13.150 9.798,13.150 C6.113,13.150 3.000,16.189 3.000,19.786 C3.000,19.786 3.000,43.176 3.000,43.176 C3.000,46.821 6.704,49.000 10.285,49.000 C10.285,49.000 54.013,49.000 54.013,49.000 C57.706,49.000 60.000,46.768 60.000,43.176 C60.000,43.176 60.000,19.786 60.000,19.786 C60.000,16.003 57.287,13.150 53.689,13.150 C52.860,13.150 52.189,12.479 52.189,11.650 C52.189,10.822 52.860,10.150 53.689,10.150 C58.910,10.150 63.000,14.383 63.000,19.786 C63.000,19.786 63.000,43.176 63.000,43.176 C63.000,48.454 59.389,52.000 54.013,52.000 Z" id="path-3" class="cls-5" fill-rule="evenodd"/>
    <path d="M32.117,34.512 C30.500,34.512 28.891,34.109 27.450,33.307 C27.450,33.307 2.881,18.008 2.881,18.008 C2.178,17.570 1.963,16.645 2.401,15.942 C2.839,15.239 3.764,15.024 4.467,15.461 C4.467,15.461 28.972,30.723 28.972,30.723 C30.927,31.809 33.425,31.795 35.430,30.649 C35.430,30.649 59.328,15.469 59.328,15.469 C60.029,15.024 60.954,15.232 61.398,15.931 C61.842,16.630 61.635,17.557 60.936,18.001 C60.936,18.001 36.978,33.218 36.978,33.218 C35.469,34.081 33.789,34.512 32.117,34.512 Z" id="path-4" class="cls-5" fill-rule="evenodd"/>
    <path d="M23.176,11.957 C22.784,11.957 22.392,11.804 22.097,11.499 C21.521,10.904 21.538,9.954 22.133,9.378 C22.133,9.378 31.137,0.677 31.137,0.677 C31.723,0.110 32.652,0.115 33.232,0.687 C33.232,0.687 42.055,9.389 42.055,9.389 C42.644,9.971 42.651,10.920 42.069,11.510 C41.487,12.101 40.537,12.107 39.948,11.525 C39.948,11.525 32.168,3.851 32.168,3.851 C32.168,3.851 24.218,11.536 24.218,11.536 C23.927,11.817 23.551,11.957 23.176,11.957 Z" id="path-5" class="cls-5" fill-rule="evenodd"/>
    <path d="M32.089,23.000 C32.086,23.000 32.084,23.000 32.082,23.000 C31.253,23.000 30.585,22.268 30.589,21.440 C30.589,21.440 30.679,1.647 30.679,1.647 C30.683,0.821 31.354,-0.000 32.179,-0.000 C32.182,-0.000 32.184,-0.000 32.186,-0.000 C33.015,-0.000 33.683,0.807 33.679,1.634 C33.679,1.634 33.589,21.390 33.589,21.390 C33.585,22.216 32.914,23.000 32.089,23.000 Z" id="path-6" class="cls-5" fill-rule="evenodd"/>
  </g>
</svg>
