<svg xmlns="http://www.w3.org/2000/svg" xmlns:xlink="http://www.w3.org/1999/xlink" preserveAspectRatio="xMidYMid" width="52" height="67" viewBox="0 0 52 67">
  <defs>
    <style>

      .cls-3 {
        fill: #e56a77;
      }

      .cls-4 {
        fill: #000000;
      }
    </style>
  </defs>
  <g id="group-22svg">
    <path d="M43.770,6.000 C43.770,6.000 16.777,6.000 16.777,6.000 C11.592,6.000 7.000,10.369 7.000,15.554 C7.000,15.554 7.000,66.165 7.000,66.165 C7.000,66.165 18.178,52.000 18.178,52.000 C18.178,52.000 43.770,52.000 43.770,52.000 C48.955,52.000 52.000,47.732 52.000,42.546 C52.000,42.546 52.000,15.554 52.000,15.554 C52.000,10.369 48.955,6.000 43.770,6.000 Z" id="path-1" class="cls-3" fill-rule="evenodd"/>
    <path d="M1.500,63.665 C1.345,63.665 1.188,63.641 1.036,63.591 C0.418,63.390 -0.000,62.814 -0.000,62.165 C-0.000,62.165 -0.000,11.554 -0.000,11.554 C-0.000,5.291 4.935,-0.000 10.777,-0.000 C10.777,-0.000 37.770,-0.000 37.770,-0.000 C43.411,-0.000 48.000,5.183 48.000,11.554 C48.000,11.554 48.000,38.546 48.000,38.546 C48.000,44.604 43.698,49.000 37.770,49.000 C37.770,49.000 12.941,49.000 12.941,49.000 C12.941,49.000 2.712,63.048 2.712,63.048 C2.425,63.443 1.970,63.665 1.500,63.665 ZM10.777,3.000 C6.634,3.000 3.000,6.997 3.000,11.554 C3.000,11.554 3.000,57.557 3.000,57.557 C3.000,57.557 10.966,46.617 10.966,46.617 C11.248,46.229 11.699,46.000 12.178,46.000 C12.178,46.000 37.770,46.000 37.770,46.000 C42.095,46.000 45.000,43.004 45.000,38.546 C45.000,38.546 45.000,11.554 45.000,11.554 C45.000,7.440 42.236,3.000 37.770,3.000 C37.770,3.000 10.777,3.000 10.777,3.000 Z" id="path-2" class="cls-4" fill-rule="evenodd"/>
    <path d="M29.855,37.000 C29.847,37.000 29.838,37.000 29.830,37.000 C29.830,37.000 17.919,36.809 17.919,36.809 C17.353,36.800 16.840,36.478 16.594,35.968 C16.348,35.458 16.410,34.856 16.754,34.407 C16.754,34.407 22.049,27.503 22.049,27.503 C22.049,27.503 16.841,20.470 16.841,20.470 C16.503,20.014 16.452,19.405 16.709,18.899 C16.967,18.392 17.464,18.079 18.057,18.079 C18.057,18.079 29.968,18.156 29.968,18.156 C30.538,18.160 31.056,18.486 31.306,18.997 C31.556,19.508 31.495,20.117 31.149,20.569 C31.149,20.569 25.806,27.537 25.806,27.537 C25.806,27.537 30.937,34.468 30.937,34.468 C31.208,34.739 31.375,35.100 31.375,35.513 C31.375,36.342 30.704,37.000 29.875,37.000 C29.868,37.000 29.861,37.000 29.855,37.000 ZM20.946,33.874 C20.946,33.874 26.840,33.975 26.840,33.975 C26.840,33.975 23.907,30.013 23.907,30.013 C23.907,30.013 20.946,33.874 20.946,33.874 ZM21.039,21.098 C21.039,21.098 23.949,25.028 23.949,25.028 C23.949,25.028 26.933,21.137 26.933,21.137 C26.933,21.137 21.039,21.098 21.039,21.098 Z" id="path-3" class="cls-4" fill-rule="evenodd"/>
  </g>
</svg>
