<svg xmlns="http://www.w3.org/2000/svg" xmlns:xlink="http://www.w3.org/1999/xlink" preserveAspectRatio="xMidYMid" width="52" height="67" viewBox="0 0 52 67">
  <defs>
    <style>

      .cls-3 {
        fill: #e56a77;
      }

      .cls-4 {
        fill: #000000;
      }
    </style>
  </defs>
  <g id="group-40svg">
    <path d="M43.868,6.000 C43.868,6.000 16.875,6.000 16.875,6.000 C11.690,6.000 7.000,10.369 7.000,15.554 C7.000,15.554 7.000,66.165 7.000,66.165 C7.000,66.165 18.276,52.000 18.276,52.000 C18.276,52.000 43.868,52.000 43.868,52.000 C49.053,52.000 52.000,47.732 52.000,42.546 C52.000,42.546 52.000,15.554 52.000,15.554 C52.000,10.369 49.053,6.000 43.868,6.000 Z" id="path-1" class="cls-3" fill-rule="evenodd"/>
    <path d="M1.500,63.665 C1.344,63.665 1.186,63.641 1.032,63.590 C0.417,63.388 -0.000,62.813 -0.000,62.165 C-0.000,62.165 -0.000,11.554 -0.000,11.554 C-0.000,5.399 5.082,-0.000 10.875,-0.000 C10.875,-0.000 37.868,-0.000 37.868,-0.000 C44.210,-0.000 48.000,5.874 48.000,11.554 C48.000,11.554 48.000,38.546 48.000,38.546 C48.000,44.701 43.834,49.000 37.868,49.000 C37.868,49.000 13.035,49.000 13.035,49.000 C13.035,49.000 2.709,63.053 2.709,63.053 C2.421,63.445 1.968,63.665 1.500,63.665 ZM10.875,3.000 C6.680,3.000 3.000,6.997 3.000,11.554 C3.000,11.554 3.000,57.591 3.000,57.591 C3.000,57.591 11.067,46.612 11.067,46.612 C11.351,46.227 11.799,46.000 12.276,46.000 C12.276,46.000 37.868,46.000 37.868,46.000 C42.134,46.000 45.000,43.004 45.000,38.546 C45.000,38.546 45.000,11.554 45.000,11.554 C45.000,7.349 42.332,3.000 37.868,3.000 C37.868,3.000 10.875,3.000 10.875,3.000 Z" id="path-2" class="cls-4" fill-rule="evenodd"/>
    <path d="M23.714,38.588 C20.184,38.588 14.973,35.215 12.181,33.205 C11.575,32.769 11.213,32.063 11.214,31.317 C11.214,30.572 11.575,29.866 12.182,29.430 C14.973,27.420 20.184,24.047 23.714,24.047 C27.243,24.047 32.454,27.420 35.246,29.431 C35.852,29.866 36.213,30.572 36.213,31.317 C36.214,32.063 35.852,32.769 35.245,33.205 C32.454,35.215 27.243,38.588 23.714,38.588 ZM14.708,31.317 C18.525,33.967 21.928,35.588 23.714,35.588 C25.499,35.588 28.901,33.967 32.719,31.318 C28.901,28.668 25.499,27.047 23.714,27.047 C21.928,27.047 18.525,28.668 14.708,31.317 Z" id="path-3" class="cls-4" fill-rule="evenodd"/>
    <path d="M23.468,36.740 C20.482,36.740 18.054,34.311 18.054,31.325 C18.054,28.340 20.482,25.911 23.468,25.911 C26.454,25.911 28.883,28.340 28.883,31.325 C28.883,34.311 26.454,36.740 23.468,36.740 ZM23.468,28.911 C22.137,28.911 21.054,29.994 21.054,31.325 C21.054,32.657 22.137,33.740 23.468,33.740 C24.800,33.740 25.883,32.657 25.883,31.325 C25.883,29.994 24.800,28.911 23.468,28.911 Z" id="path-4" class="cls-4" fill-rule="evenodd"/>
  </g>
</svg>
