<svg xmlns="http://www.w3.org/2000/svg" xmlns:xlink="http://www.w3.org/1999/xlink" preserveAspectRatio="xMidYMid" width="62" height="63" viewBox="0 0 62 63">
  <defs>
    <style>

      .cls-3 {
        fill: #8b71b5;
      }

      .cls-4 {
        fill: #edc951;
      }

      .cls-5 {
        fill: #000000;
      }
    </style>
  </defs>
  <g id="group-67svg">
    <path d="M6.505,62.501 C6.505,47.229 18.885,34.849 34.157,34.849 C49.429,34.849 61.810,47.229 61.810,62.501 C61.810,62.501 61.810,62.501 61.810,62.501 " id="path-1" class="cls-3" fill-rule="evenodd"/>
    <path d="M49.050,18.618 C49.050,26.967 42.281,33.734 33.933,33.734 C25.584,33.734 18.816,26.967 18.816,18.618 C18.816,10.269 25.584,3.501 33.933,3.501 C42.281,3.501 49.050,10.269 49.050,18.618 Z" id="path-2" class="cls-4" fill-rule="evenodd"/>
    <path d="M56.810,62.001 C55.981,62.001 55.310,61.329 55.310,60.501 C55.310,46.080 43.578,34.349 29.157,34.349 C14.736,34.349 3.005,46.080 3.005,60.501 C3.005,61.329 2.333,62.001 1.505,62.001 C0.677,62.001 0.005,61.329 0.005,60.501 C0.005,44.426 13.083,31.349 29.157,31.349 C45.231,31.349 58.309,44.426 58.309,60.501 C58.309,61.329 57.638,62.001 56.810,62.001 Z" id="path-3" class="cls-5" fill-rule="evenodd"/>
    <path d="M28.933,33.234 C19.770,33.234 12.316,25.780 12.316,16.617 C12.316,7.455 19.770,0.001 28.933,0.001 C38.096,0.001 45.550,7.455 45.550,16.617 C45.550,25.780 38.096,33.234 28.933,33.234 ZM28.933,3.001 C21.425,3.001 15.316,9.109 15.316,16.617 C15.316,24.126 21.425,30.234 28.933,30.234 C36.441,30.234 42.550,24.126 42.550,16.617 C42.550,9.109 36.441,3.001 28.933,3.001 Z" id="path-4" class="cls-5" fill-rule="evenodd"/>
    <path d="M29.399,55.428 C25.737,55.428 22.758,52.448 22.758,48.786 C22.758,45.124 25.737,42.144 29.399,42.144 C33.062,42.144 36.041,45.124 36.041,48.786 C36.041,52.448 33.062,55.428 29.399,55.428 ZM29.399,45.144 C27.392,45.144 25.758,46.778 25.758,48.786 C25.758,50.794 27.392,52.428 29.399,52.428 C31.407,52.428 33.041,50.794 33.041,48.786 C33.041,46.778 31.407,45.144 29.399,45.144 Z" id="path-5" class="cls-5" fill-rule="evenodd"/>
    <path d="M38.258,58.759 C37.874,58.759 37.490,58.613 37.197,58.320 C37.197,58.320 33.112,54.234 33.112,54.234 C32.526,53.649 32.526,52.699 33.112,52.113 C33.698,51.527 34.647,51.527 35.233,52.113 C35.233,52.113 39.318,56.199 39.318,56.199 C39.904,56.784 39.904,57.734 39.318,58.320 C39.025,58.613 38.642,58.759 38.258,58.759 Z" id="path-6" class="cls-5" fill-rule="evenodd"/>
  </g>
</svg>
