<svg xmlns="http://www.w3.org/2000/svg" xmlns:xlink="http://www.w3.org/1999/xlink" preserveAspectRatio="xMidYMid" width="68" height="52" viewBox="0 0 68 52">
  <defs>
    <style>

      .cls-3 {
        fill: #81bda4;
      }

      .cls-4 {
        fill: #ffffff;
      }

      .cls-5 {
        fill: #000000;
      }
    </style>
  </defs>
  <g id="group-47svg">
    <path d="M60.306,12.494 C64.799,12.494 68.000,16.136 68.000,20.630 C68.000,20.630 68.000,44.019 68.000,44.019 C68.000,48.513 65.240,51.844 60.747,51.844 C60.747,51.844 17.018,51.844 17.018,51.844 C12.525,51.844 8.000,48.513 8.000,44.019 C8.000,44.019 8.000,20.630 8.000,20.630 C8.000,16.136 11.863,12.494 16.356,12.494 C16.356,12.494 16.356,12.494 16.356,12.494 " id="path-1" class="cls-3" fill-rule="evenodd"/>
    <path d="M67.865,17.579 C67.865,17.579 42.908,32.795 42.908,32.795 C40.435,34.209 37.402,34.226 34.913,32.840 C34.913,32.840 10.408,17.579 10.408,17.579 C10.408,17.579 10.408,17.579 10.408,17.579 " id="path-2" class="cls-4" fill-rule="evenodd"/>
    <path d="M53.747,50.844 C53.747,50.844 10.019,50.844 10.019,50.844 C4.307,50.844 -0.000,47.050 -0.000,42.019 C-0.000,42.019 -0.000,18.630 -0.000,18.630 C-0.000,13.317 4.365,8.994 9.731,8.994 C10.560,8.994 11.231,9.665 11.231,10.494 C11.231,11.323 10.560,11.994 9.731,11.994 C6.019,11.994 3.000,14.971 3.000,18.630 C3.000,18.630 3.000,42.019 3.000,42.019 C3.000,45.803 6.616,47.844 10.019,47.844 C10.019,47.844 53.747,47.844 53.747,47.844 C57.546,47.844 60.000,45.558 60.000,42.019 C60.000,42.019 60.000,18.630 60.000,18.630 C60.000,14.909 57.169,11.994 53.556,11.994 C52.728,11.994 52.056,11.323 52.056,10.494 C52.056,9.665 52.728,8.994 53.556,8.994 C58.852,8.994 63.000,13.227 63.000,18.630 C63.000,18.630 63.000,42.019 63.000,42.019 C63.000,47.215 59.195,50.844 53.747,50.844 Z" id="path-3" class="cls-5" fill-rule="evenodd"/>
    <path d="M31.851,33.355 C30.233,33.355 28.624,32.953 27.184,32.151 C27.184,32.151 2.615,16.852 2.615,16.852 C1.912,16.414 1.697,15.489 2.135,14.786 C2.573,14.081 3.499,13.870 4.201,14.305 C4.201,14.305 28.706,29.567 28.706,29.567 C30.661,30.653 33.158,30.638 35.164,29.493 C35.164,29.493 59.061,14.312 59.061,14.312 C59.762,13.868 60.687,14.075 61.132,14.774 C61.575,15.474 61.369,16.400 60.670,16.845 C60.670,16.845 36.713,32.061 36.713,32.061 C35.202,32.925 33.522,33.355 31.851,33.355 Z" id="path-4" class="cls-5" fill-rule="evenodd"/>
    <path d="M30.704,20.831 C30.316,20.831 29.930,20.683 29.636,20.385 C29.636,20.385 20.935,11.562 20.935,11.562 C20.363,10.983 20.358,10.053 20.924,9.467 C20.924,9.467 29.626,0.463 29.626,0.463 C30.201,-0.131 31.151,-0.148 31.746,0.427 C32.342,1.003 32.358,1.953 31.783,2.548 C31.783,2.548 24.100,10.498 24.100,10.498 C24.100,10.498 31.772,18.278 31.772,18.278 C32.353,18.868 32.348,19.818 31.758,20.399 C31.465,20.687 31.085,20.831 30.704,20.831 Z" id="path-5" class="cls-5" fill-rule="evenodd"/>
    <path d="M22.003,11.844 C21.178,11.844 20.507,11.260 20.503,10.434 C20.499,9.605 21.168,8.934 21.996,8.931 C21.996,8.931 41.635,8.844 41.635,8.844 C41.637,8.844 41.640,8.844 41.642,8.844 C42.467,8.844 43.138,9.548 43.142,10.374 C43.145,11.202 42.477,11.813 41.648,11.817 C41.648,11.817 22.010,11.844 22.010,11.844 C22.008,11.844 22.005,11.844 22.003,11.844 Z" id="path-6" class="cls-5" fill-rule="evenodd"/>
  </g>
</svg>
