<svg xmlns="http://www.w3.org/2000/svg" xmlns:xlink="http://www.w3.org/1999/xlink" preserveAspectRatio="xMidYMid" width="52" height="67" viewBox="0 0 52 67">
  <defs>
    <style>

      .cls-3 {
        fill: #e56a77;
      }

      .cls-4 {
        fill: #000000;
      }
    </style>
  </defs>
  <g id="group-35svg">
    <path d="M43.868,6.000 C43.868,6.000 16.875,6.000 16.875,6.000 C11.690,6.000 7.000,10.369 7.000,15.554 C7.000,15.554 7.000,66.165 7.000,66.165 C7.000,66.165 18.276,52.000 18.276,52.000 C18.276,52.000 43.868,52.000 43.868,52.000 C49.053,52.000 52.000,47.732 52.000,42.546 C52.000,42.546 52.000,15.554 52.000,15.554 C52.000,10.369 49.053,6.000 43.868,6.000 Z" id="path-1" class="cls-3" fill-rule="evenodd"/>
    <path d="M1.500,63.665 C1.344,63.665 1.186,63.641 1.033,63.590 C0.416,63.388 -0.000,62.813 -0.000,62.165 C-0.000,62.165 -0.000,11.554 -0.000,11.554 C-0.000,5.399 5.082,-0.000 10.875,-0.000 C10.875,-0.000 37.868,-0.000 37.868,-0.000 C44.210,-0.000 48.000,5.874 48.000,11.554 C48.000,11.554 48.000,38.546 48.000,38.546 C48.000,44.701 43.833,49.000 37.868,49.000 C37.868,49.000 13.035,49.000 13.035,49.000 C13.035,49.000 2.709,63.053 2.709,63.053 C2.421,63.445 1.968,63.665 1.500,63.665 ZM10.875,3.000 C6.680,3.000 3.000,6.997 3.000,11.554 C3.000,11.554 3.000,57.590 3.000,57.590 C3.000,57.590 11.067,46.612 11.067,46.612 C11.350,46.227 11.798,46.000 12.276,46.000 C12.276,46.000 37.868,46.000 37.868,46.000 C42.134,46.000 45.000,43.004 45.000,38.546 C45.000,38.546 45.000,11.554 45.000,11.554 C45.000,7.349 42.333,3.000 37.868,3.000 C37.868,3.000 10.875,3.000 10.875,3.000 Z" id="path-2" class="cls-4" fill-rule="evenodd"/>
    <path d="M23.826,36.874 C18.863,36.874 14.826,32.837 14.826,27.874 C14.826,22.912 18.863,18.874 23.826,18.874 C28.788,18.874 32.826,22.912 32.826,27.874 C32.826,32.837 28.788,36.874 23.826,36.874 ZM23.826,21.874 C20.517,21.874 17.826,24.566 17.826,27.874 C17.826,31.183 20.517,33.874 23.826,33.874 C27.134,33.874 29.826,31.183 29.826,27.874 C29.826,24.566 27.134,21.874 23.826,21.874 Z" id="path-3" class="cls-4" fill-rule="evenodd"/>
    <path d="M23.224,24.377 C23.408,25.240 23.558,26.103 23.697,26.967 C23.855,27.830 23.891,28.693 24.091,29.557 C24.091,29.557 23.124,28.590 23.124,28.590 C23.673,28.465 24.223,28.509 24.772,28.657 C25.322,28.808 25.871,29.023 26.420,29.456 C26.476,29.500 26.485,29.580 26.441,29.635 C26.435,29.644 26.428,29.650 26.420,29.657 C25.871,30.090 25.322,30.306 24.772,30.456 C24.223,30.604 23.673,30.648 23.124,30.523 C23.124,30.523 22.625,30.428 22.625,30.428 C22.235,30.339 22.000,29.951 22.000,29.560 C22.000,29.560 22.000,29.557 22.000,29.557 C22.000,28.693 22.314,27.830 22.472,26.967 C22.612,26.103 22.801,25.240 22.985,24.377 C22.997,24.322 23.070,24.287 23.125,24.298 C23.166,24.307 23.216,24.339 23.224,24.377 Z" id="path-4" class="cls-4" fill-rule="evenodd"/>
  </g>
</svg>
