<svg xmlns="http://www.w3.org/2000/svg" xmlns:xlink="http://www.w3.org/1999/xlink" preserveAspectRatio="xMidYMid" width="52" height="67" viewBox="0 0 52 67">
  <defs>
    <style>

      .cls-3 {
        fill: #e56a77;
      }

      .cls-4 {
        fill: #000000;
      }
    </style>
  </defs>
  <g id="group-39svg">
    <path d="M44.251,6.000 C44.251,6.000 17.259,6.000 17.259,6.000 C12.073,6.000 7.000,10.369 7.000,15.554 C7.000,15.554 7.000,66.165 7.000,66.165 C7.000,66.165 18.659,52.000 18.659,52.000 C18.659,52.000 44.251,52.000 44.251,52.000 C49.437,52.000 52.000,47.732 52.000,42.546 C52.000,42.546 52.000,15.554 52.000,15.554 C52.000,10.369 49.437,6.000 44.251,6.000 Z" id="path-1" class="cls-3" fill-rule="evenodd"/>
    <path d="M1.500,63.665 C1.340,63.665 1.178,63.640 1.020,63.586 C0.411,63.381 -0.000,62.809 -0.000,62.165 C-0.000,62.165 -0.000,11.554 -0.000,11.554 C-0.000,5.507 5.366,-0.000 11.259,-0.000 C11.259,-0.000 38.251,-0.000 38.251,-0.000 C44.583,-0.000 48.000,5.953 48.000,11.554 C48.000,11.554 48.000,38.546 48.000,38.546 C48.000,44.799 44.082,49.000 38.251,49.000 C38.251,49.000 13.402,49.000 13.402,49.000 C13.402,49.000 2.693,63.073 2.693,63.073 C2.404,63.454 1.959,63.665 1.500,63.665 ZM11.259,3.000 C7.014,3.000 3.000,7.157 3.000,11.554 C3.000,11.554 3.000,57.717 3.000,57.717 C3.000,57.717 11.466,46.592 11.466,46.592 C11.749,46.219 12.190,46.000 12.659,46.000 C12.659,46.000 38.251,46.000 38.251,46.000 C42.414,46.000 45.000,43.144 45.000,38.546 C45.000,38.546 45.000,11.554 45.000,11.554 C45.000,7.303 42.682,3.000 38.251,3.000 C38.251,3.000 11.259,3.000 11.259,3.000 Z" id="path-2" class="cls-4" fill-rule="evenodd"/>
    <path d="M16.811,24.839 C16.811,24.003 17.079,23.155 17.617,22.297 C18.153,21.437 18.937,20.727 19.968,20.163 C20.998,19.600 22.201,19.317 23.574,19.317 C24.852,19.317 25.978,19.553 26.956,20.024 C27.934,20.495 28.688,21.136 29.222,21.946 C29.755,22.757 30.020,23.637 30.020,24.588 C30.020,25.337 29.869,25.993 29.565,26.557 C29.262,27.121 28.899,27.607 28.481,28.016 C28.063,28.426 27.313,29.115 26.229,30.083 C25.930,30.356 25.689,30.597 25.510,30.804 C25.329,31.011 25.194,31.200 25.106,31.372 C25.018,31.543 24.950,31.715 24.902,31.887 C24.853,32.059 24.781,32.360 24.684,32.791 C24.517,33.708 23.993,34.166 23.112,34.166 C22.654,34.166 22.270,34.016 21.956,33.716 C21.644,33.417 21.487,32.973 21.487,32.382 C21.487,31.642 21.602,31.002 21.831,30.460 C22.060,29.919 22.363,29.443 22.742,29.034 C23.121,28.624 23.632,28.137 24.274,27.574 C24.838,27.080 25.245,26.708 25.496,26.458 C25.748,26.207 25.959,25.927 26.131,25.619 C26.302,25.311 26.388,24.976 26.388,24.615 C26.388,23.910 26.126,23.316 25.601,22.831 C25.078,22.347 24.402,22.104 23.574,22.104 C22.605,22.104 21.892,22.349 21.435,22.838 C20.977,23.327 20.589,24.046 20.272,24.998 C19.973,25.993 19.404,26.491 18.568,26.491 C18.075,26.491 17.658,26.317 17.319,25.969 C16.980,25.621 16.811,25.245 16.811,24.839 ZM23.258,39.317 C22.720,39.317 22.251,39.143 21.851,38.795 C21.450,38.448 21.249,37.961 21.249,37.336 C21.249,36.781 21.443,36.314 21.831,35.936 C22.219,35.558 22.694,35.368 23.258,35.368 C23.812,35.368 24.279,35.558 24.657,35.936 C25.036,36.314 25.226,36.781 25.226,37.336 C25.226,37.953 25.027,38.437 24.631,38.789 C24.234,39.141 23.776,39.317 23.258,39.317 Z" id="path-3" class="cls-4" fill-rule="evenodd"/>
  </g>
</svg>
