<svg xmlns="http://www.w3.org/2000/svg" xmlns:xlink="http://www.w3.org/1999/xlink" preserveAspectRatio="xMidYMid" width="62" height="63" viewBox="0 0 62 63">
  <defs>
    <style>

      .cls-3 {
        fill: #8b71b5;
      }

      .cls-4 {
        fill: #edc951;
      }

      .cls-5 {
        fill: #000000;
      }
    </style>
  </defs>
  <g id="group-66svg">
    <path d="M6.498,62.501 C6.498,47.229 18.878,34.849 34.150,34.849 C49.422,34.849 61.803,47.229 61.803,62.501 C61.803,62.501 61.803,62.501 61.803,62.501 " id="path-1" class="cls-3" fill-rule="evenodd"/>
    <path d="M49.042,18.618 C49.042,26.967 42.274,33.734 33.926,33.734 C25.577,33.734 18.809,26.967 18.809,18.618 C18.809,10.269 25.577,3.501 33.926,3.501 C42.274,3.501 49.042,10.269 49.042,18.618 Z" id="path-2" class="cls-4" fill-rule="evenodd"/>
    <path d="M56.802,62.001 C55.974,62.001 55.302,61.329 55.302,60.501 C55.302,46.080 43.570,34.349 29.150,34.349 C14.729,34.349 2.997,46.080 2.997,60.501 C2.997,61.329 2.326,62.001 1.498,62.001 C0.669,62.001 -0.002,61.329 -0.002,60.501 C-0.002,44.426 13.075,31.349 29.150,31.349 C45.225,31.349 58.302,44.426 58.302,60.501 C58.302,61.329 57.631,62.001 56.802,62.001 Z" id="path-3" class="cls-5" fill-rule="evenodd"/>
    <path d="M28.926,33.234 C19.763,33.234 12.309,25.780 12.309,16.617 C12.309,7.455 19.763,0.001 28.926,0.001 C38.088,0.001 45.542,7.455 45.542,16.617 C45.542,25.780 38.088,33.234 28.926,33.234 ZM28.926,3.001 C21.417,3.001 15.309,9.109 15.309,16.617 C15.309,24.126 21.417,30.234 28.926,30.234 C36.434,30.234 42.542,24.126 42.542,16.617 C42.542,9.109 36.434,3.001 28.926,3.001 Z" id="path-4" class="cls-5" fill-rule="evenodd"/>
    <path d="M33.645,57.529 C33.261,57.529 32.877,57.383 32.584,57.090 C32.584,57.090 25.584,50.090 25.584,50.090 C24.998,49.505 24.998,48.555 25.584,47.969 C26.170,47.383 27.119,47.383 27.705,47.969 C27.705,47.969 34.705,54.969 34.705,54.969 C35.291,55.555 35.291,56.505 34.705,57.090 C34.412,57.383 34.028,57.529 33.645,57.529 Z" id="path-5" class="cls-5" fill-rule="evenodd"/>
    <path d="M26.645,57.529 C26.261,57.529 25.877,57.383 25.584,57.090 C24.998,56.505 24.998,55.555 25.584,54.969 C25.584,54.969 32.584,47.969 32.584,47.969 C33.170,47.383 34.119,47.383 34.705,47.969 C35.291,48.555 35.291,49.505 34.705,50.090 C34.705,50.090 27.705,57.090 27.705,57.090 C27.412,57.383 27.028,57.529 26.645,57.529 Z" id="path-6" class="cls-5" fill-rule="evenodd"/>
  </g>
</svg>
