<svg xmlns="http://www.w3.org/2000/svg" xmlns:xlink="http://www.w3.org/1999/xlink" preserveAspectRatio="xMidYMid" width="64" height="53" viewBox="0 0 64 53">
  <defs>
    <style>

      .cls-3 {
        fill: #e56a77;
      }

      .cls-4 {
        fill: #000000;
      }

      .cls-5 {
        fill: #edc951;
      }

      .cls-7 {
        fill: #81bda4;
      }
    </style>
  </defs>
  <g id="group-7svg">
    <path d="M25.331,23.534 C25.331,18.179 29.673,13.837 35.029,13.837 C40.385,13.837 44.727,18.179 44.727,23.534 C44.727,23.534 44.727,23.534 44.727,23.534 " id="path-1" class="cls-3" fill-rule="evenodd"/>
    <path d="M41.727,24.035 C40.898,24.035 40.227,23.363 40.227,22.535 C40.227,18.015 36.549,14.337 32.029,14.337 C27.509,14.337 23.831,18.015 23.831,22.535 C23.831,23.363 23.159,24.035 22.331,24.035 C21.503,24.035 20.831,23.363 20.831,22.535 C20.831,16.360 25.854,11.337 32.029,11.337 C38.203,11.337 43.226,16.360 43.226,22.535 C43.226,23.363 42.555,24.035 41.727,24.035 Z" id="path-2" class="cls-4" fill-rule="evenodd"/>
    <path d="M40.330,7.794 C40.330,10.722 37.957,13.096 35.029,13.096 C32.102,13.096 29.727,10.722 29.727,7.794 C29.727,4.866 32.102,2.493 35.029,2.493 C37.957,2.493 40.330,4.866 40.330,7.794 Z" id="path-3" class="cls-5" fill-rule="evenodd"/>
    <path d="M32.029,13.596 C28.278,13.596 25.227,10.544 25.227,6.794 C25.227,3.044 28.278,-0.007 32.029,-0.007 C35.779,-0.007 38.830,3.044 38.830,6.794 C38.830,10.544 35.779,13.596 32.029,13.596 ZM32.029,2.993 C29.933,2.993 28.228,4.698 28.228,6.794 C28.228,8.890 29.933,10.596 32.029,10.596 C34.125,10.596 35.830,8.890 35.830,6.794 C35.830,4.698 34.125,2.993 32.029,2.993 Z" id="path-4" class="cls-4" fill-rule="evenodd"/>
    <path d="M18.000,48.368 C18.000,48.368 18.000,40.625 18.000,40.625 C18.000,40.625 33.970,40.625 33.970,40.625 C33.970,40.625 49.000,40.625 49.000,40.625 C49.000,40.625 49.000,48.368 49.000,48.368 C49.000,50.568 51.359,52.625 53.560,52.625 C53.560,52.625 60.560,52.625 60.560,52.625 C62.760,52.625 64.000,50.568 64.000,48.368 C64.000,48.368 64.000,34.368 64.000,34.368 C64.000,29.968 60.960,26.625 56.560,26.625 C56.560,26.625 33.970,26.625 33.970,26.625 C33.970,26.625 12.560,26.625 12.560,26.625 C8.142,26.625 4.000,29.950 4.000,34.368 C4.000,34.368 4.000,48.368 4.000,48.368 C4.000,50.568 6.359,52.625 8.560,52.625 C8.560,52.625 14.560,52.625 14.560,52.625 C16.768,52.625 18.000,50.577 18.000,48.368 Z" id="path-5" class="cls-7" fill-rule="evenodd"/>
    <path d="M57.560,51.625 C57.560,51.625 50.560,51.625 50.560,51.625 C47.442,51.625 45.000,49.316 45.000,46.368 C45.000,46.368 45.000,39.625 45.000,39.625 C45.000,39.625 17.000,39.625 17.000,39.625 C17.000,39.625 17.000,46.368 17.000,46.368 C17.000,49.365 14.661,51.625 11.560,51.625 C11.560,51.625 5.560,51.625 5.560,51.625 C2.442,51.625 -0.000,49.316 -0.000,46.368 C-0.000,46.368 -0.000,32.368 -0.000,32.368 C-0.000,27.086 4.378,22.625 9.559,22.625 C9.559,22.625 53.560,22.625 53.560,22.625 C58.677,22.625 63.000,27.086 63.000,32.368 C63.000,32.368 63.000,46.368 63.000,46.368 C63.000,49.365 60.661,51.625 57.560,51.625 ZM15.500,36.625 C15.500,36.625 46.500,36.625 46.500,36.625 C47.328,36.625 48.000,37.296 48.000,38.125 C48.000,38.125 48.000,46.368 48.000,46.368 C48.000,47.834 49.318,48.625 50.560,48.625 C50.560,48.625 57.560,48.625 57.560,48.625 C58.974,48.625 60.000,47.676 60.000,46.368 C60.000,46.368 60.000,32.368 60.000,32.368 C60.000,28.713 57.051,25.625 53.560,25.625 C53.560,25.625 9.559,25.625 9.559,25.625 C6.004,25.625 3.000,28.713 3.000,32.368 C3.000,32.368 3.000,46.368 3.000,46.368 C3.000,47.834 4.318,48.625 5.560,48.625 C5.560,48.625 11.560,48.625 11.560,48.625 C12.996,48.625 14.000,47.697 14.000,46.368 C14.000,46.368 14.000,38.125 14.000,38.125 C14.000,37.296 14.672,36.625 15.500,36.625 Z" id="path-6" class="cls-4" fill-rule="evenodd"/>
    <path d="M15.000,43.625 C15.000,43.625 2.000,43.625 2.000,43.625 C1.172,43.625 0.500,42.954 0.500,42.125 C0.500,41.296 1.172,40.625 2.000,40.625 C2.000,40.625 15.000,40.625 15.000,40.625 C15.828,40.625 16.500,41.296 16.500,42.125 C16.500,42.954 15.828,43.625 15.000,43.625 Z" id="path-7" class="cls-4" fill-rule="evenodd"/>
    <path d="M61.000,43.625 C61.000,43.625 47.000,43.625 47.000,43.625 C46.172,43.625 45.500,42.954 45.500,42.125 C45.500,41.296 46.172,40.625 47.000,40.625 C47.000,40.625 61.000,40.625 61.000,40.625 C61.828,40.625 62.500,41.296 62.500,42.125 C62.500,42.954 61.828,43.625 61.000,43.625 Z" id="path-8" class="cls-4" fill-rule="evenodd"/>
  </g>
</svg>
