<svg xmlns="http://www.w3.org/2000/svg" xmlns:xlink="http://www.w3.org/1999/xlink" preserveAspectRatio="xMidYMid" width="52" height="67" viewBox="0 0 52 67">
  <defs>
    <style>

      .cls-3 {
        fill: #e56a77;
      }

      .cls-4 {
        fill: #000000;
      }
    </style>
  </defs>
  <g id="group-13svg">
    <path d="M43.588,6.000 C43.588,6.000 16.596,6.000 16.596,6.000 C11.410,6.000 7.000,10.369 7.000,15.554 C7.000,15.554 7.000,66.165 7.000,66.165 C7.000,66.165 17.997,52.000 17.997,52.000 C17.997,52.000 43.588,52.000 43.588,52.000 C48.773,52.000 52.000,47.732 52.000,42.546 C52.000,42.546 52.000,15.554 52.000,15.554 C52.000,10.369 48.773,6.000 43.588,6.000 Z" id="path-1" class="cls-3" fill-rule="evenodd"/>
    <path d="M1.500,63.665 C1.347,63.665 1.192,63.642 1.041,63.593 C0.421,63.394 -0.000,62.817 -0.000,62.165 C-0.000,62.165 -0.000,11.554 -0.000,11.554 C-0.000,5.291 4.852,-0.000 10.596,-0.000 C10.596,-0.000 37.588,-0.000 37.588,-0.000 C43.330,-0.000 48.000,5.183 48.000,11.554 C48.000,11.554 48.000,38.546 48.000,38.546 C48.000,44.603 43.621,49.000 37.588,49.000 C37.588,49.000 12.768,49.000 12.768,49.000 C12.768,49.000 2.720,63.038 2.720,63.038 C2.433,63.439 1.975,63.665 1.500,63.665 ZM10.596,3.000 C6.052,3.000 3.000,7.423 3.000,11.554 C3.000,11.554 3.000,57.492 3.000,57.492 C3.000,57.492 10.777,46.627 10.777,46.627 C11.059,46.233 11.513,46.000 11.997,46.000 C11.997,46.000 37.588,46.000 37.588,46.000 C41.952,46.000 45.000,42.935 45.000,38.546 C45.000,38.546 45.000,11.554 45.000,11.554 C45.000,7.440 42.166,3.000 37.588,3.000 C37.588,3.000 10.596,3.000 10.596,3.000 Z" id="path-2" class="cls-4" fill-rule="evenodd"/>
    <path d="M28.000,28.000 C28.000,28.000 19.000,28.000 19.000,28.000 C18.171,28.000 17.500,27.329 17.500,26.500 C17.500,25.671 18.171,25.000 19.000,25.000 C19.000,25.000 28.000,25.000 28.000,25.000 C28.829,25.000 29.500,25.671 29.500,26.500 C29.500,27.329 28.829,28.000 28.000,28.000 Z" id="path-3" class="cls-4" fill-rule="evenodd"/>
  </g>
</svg>
