<svg xmlns="http://www.w3.org/2000/svg" xmlns:xlink="http://www.w3.org/1999/xlink" preserveAspectRatio="xMidYMid" width="52" height="67" viewBox="0 0 52 67">
  <defs>
    <style>

      .cls-3 {
        fill: #e56a77;
      }

      .cls-4 {
        fill: #000000;
      }
    </style>
  </defs>
  <g id="group-12svg">
    <path d="M43.770,6.000 C43.770,6.000 16.777,6.000 16.777,6.000 C11.592,6.000 7.000,10.369 7.000,15.554 C7.000,15.554 7.000,66.165 7.000,66.165 C7.000,66.165 18.178,52.000 18.178,52.000 C18.178,52.000 43.770,52.000 43.770,52.000 C48.955,52.000 52.000,47.732 52.000,42.546 C52.000,42.546 52.000,15.554 52.000,15.554 C52.000,10.369 48.955,6.000 43.770,6.000 Z" id="path-1" class="cls-3" fill-rule="evenodd"/>
    <path d="M1.500,63.665 C1.345,63.665 1.188,63.641 1.036,63.591 C0.418,63.390 -0.000,62.814 -0.000,62.165 C-0.000,62.165 -0.000,11.554 -0.000,11.554 C-0.000,5.291 4.935,-0.000 10.777,-0.000 C10.777,-0.000 37.770,-0.000 37.770,-0.000 C43.411,-0.000 48.000,5.183 48.000,11.554 C48.000,11.554 48.000,38.546 48.000,38.546 C48.000,44.603 43.698,49.000 37.770,49.000 C37.770,49.000 12.941,49.000 12.941,49.000 C12.941,49.000 2.712,63.048 2.712,63.048 C2.425,63.443 1.970,63.665 1.500,63.665 ZM10.777,3.000 C6.634,3.000 3.000,6.997 3.000,11.554 C3.000,11.554 3.000,57.557 3.000,57.557 C3.000,57.557 10.966,46.617 10.966,46.617 C11.248,46.229 11.699,46.000 12.178,46.000 C12.178,46.000 37.770,46.000 37.770,46.000 C42.095,46.000 45.000,43.004 45.000,38.546 C45.000,38.546 45.000,11.554 45.000,11.554 C45.000,7.440 42.236,3.000 37.770,3.000 C37.770,3.000 10.777,3.000 10.777,3.000 Z" id="path-2" class="cls-4" fill-rule="evenodd"/>
    <path d="M25.500,31.500 C24.671,31.500 24.000,30.829 24.000,30.000 C24.000,30.000 24.000,20.000 24.000,20.000 C24.000,19.171 24.671,18.500 25.500,18.500 C26.329,18.500 27.000,19.171 27.000,20.000 C27.000,20.000 27.000,30.000 27.000,30.000 C27.000,30.829 26.329,31.500 25.500,31.500 Z" id="path-3" class="cls-4" fill-rule="evenodd"/>
    <path d="M30.000,27.000 C30.000,27.000 21.000,27.000 21.000,27.000 C20.171,27.000 19.500,26.329 19.500,25.500 C19.500,24.671 20.171,24.000 21.000,24.000 C21.000,24.000 30.000,24.000 30.000,24.000 C30.829,24.000 31.500,24.671 31.500,25.500 C31.500,26.329 30.829,27.000 30.000,27.000 Z" id="path-4" class="cls-4" fill-rule="evenodd"/>
  </g>
</svg>
