<svg xmlns="http://www.w3.org/2000/svg" xmlns:xlink="http://www.w3.org/1999/xlink" preserveAspectRatio="xMidYMid" width="68" height="47" viewBox="0 0 68 47">
  <defs>
    <style>

      .cls-3 {
        fill: #81bda4;
      }

      .cls-4 {
        fill: #ffffff;
      }

      .cls-5 {
        fill: #000000;
      }

      .cls-7 {
        fill: #99746a;
      }
    </style>
  </defs>
  <g id="group-57svg">
    <path d="M60.306,7.540 C64.799,7.540 68.000,11.182 68.000,15.675 C68.000,15.675 68.000,39.064 68.000,39.064 C68.000,43.558 65.240,47.187 60.747,47.187 C60.747,47.187 17.018,47.187 17.018,47.187 C12.525,47.187 8.000,43.558 8.000,39.064 C8.000,39.064 8.000,15.675 8.000,15.675 C8.000,11.182 11.863,7.540 16.356,7.540 C16.356,7.540 16.356,7.540 16.356,7.540 " id="path-1" class="cls-3" fill-rule="evenodd"/>
    <path d="M67.865,12.624 C67.865,12.624 42.908,27.841 42.908,27.841 C40.435,29.255 37.402,29.271 34.913,27.886 C34.913,27.886 10.408,12.624 10.408,12.624 C10.408,12.624 10.408,12.624 10.408,12.624 " id="path-2" class="cls-4" fill-rule="evenodd"/>
    <path d="M53.747,46.187 C53.747,46.187 10.019,46.187 10.019,46.187 C4.400,46.187 -0.000,42.180 -0.000,37.064 C-0.000,37.064 -0.000,13.675 -0.000,13.675 C-0.000,8.362 4.365,4.040 9.731,4.040 C10.560,4.040 11.231,4.711 11.231,5.539 C11.231,6.368 10.560,7.040 9.731,7.040 C6.019,7.040 3.000,10.016 3.000,13.675 C3.000,13.675 3.000,37.064 3.000,37.064 C3.000,40.897 6.568,43.187 10.019,43.187 C10.019,43.187 53.747,43.187 53.747,43.187 C57.429,43.187 60.000,40.670 60.000,37.064 C60.000,37.064 60.000,13.675 60.000,13.675 C60.000,9.954 57.169,7.040 53.556,7.040 C52.728,7.040 52.056,6.368 52.056,5.539 C52.056,4.711 52.728,4.040 53.556,4.040 C58.852,4.040 63.000,8.272 63.000,13.675 C63.000,13.675 63.000,37.064 63.000,37.064 C63.000,42.351 59.108,46.187 53.747,46.187 Z" id="path-3" class="cls-5" fill-rule="evenodd"/>
    <path d="M31.851,28.400 C30.233,28.400 28.624,27.998 27.184,27.196 C27.184,27.196 2.615,11.897 2.615,11.897 C1.912,11.459 1.697,10.534 2.135,9.831 C2.573,9.127 3.499,8.914 4.201,9.351 C4.201,9.351 28.706,24.612 28.706,24.612 C30.661,25.698 33.158,25.683 35.164,24.539 C35.164,24.539 59.061,9.358 59.061,9.358 C59.762,8.913 60.687,9.121 61.132,9.820 C61.575,10.519 61.369,11.446 60.670,11.890 C60.670,11.890 36.713,27.106 36.713,27.106 C35.202,27.971 33.522,28.400 31.851,28.400 Z" id="path-4" class="cls-5" fill-rule="evenodd"/>
    <path d="M36.987,3.515 C35.870,3.515 34.842,4.903 34.010,5.522 C33.177,4.903 32.149,3.515 31.031,3.515 C28.270,3.515 26.033,5.753 26.033,8.514 C26.033,11.274 33.177,19.427 34.010,18.808 C34.842,19.427 41.986,11.274 41.986,8.514 C41.986,5.753 39.748,3.515 36.987,3.515 Z" id="path-5" class="cls-7" fill-rule="evenodd"/>
    <path d="M31.129,18.187 C31.127,18.187 31.126,18.187 31.125,18.187 C31.086,18.187 31.048,18.263 31.010,18.261 C30.972,18.263 30.934,18.303 30.895,18.303 C28.445,18.303 21.533,9.590 21.533,6.494 C21.533,2.911 24.448,0.005 28.031,0.005 C29.270,0.005 30.256,0.808 31.010,1.504 C31.764,0.808 32.748,0.013 33.987,0.013 C37.571,0.013 40.486,2.929 40.486,6.513 C40.486,8.481 38.419,11.385 36.684,13.539 C32.889,18.249 31.566,18.187 31.129,18.187 ZM28.019,3.015 C26.102,3.015 24.533,4.584 24.533,6.514 C24.533,8.166 29.306,14.059 31.010,15.253 C32.713,14.059 37.486,8.166 37.486,6.514 C37.486,4.584 35.917,3.015 33.987,3.015 C33.742,3.054 33.125,3.636 32.793,3.949 C32.507,4.219 32.212,4.497 31.905,4.726 C31.374,5.121 30.645,5.121 30.114,4.726 C29.808,4.498 29.513,4.219 29.227,3.950 C28.895,3.637 28.276,3.054 28.019,3.015 Z" id="path-6" class="cls-5" fill-rule="evenodd"/>
  </g>
</svg>
