<svg xmlns="http://www.w3.org/2000/svg" xmlns:xlink="http://www.w3.org/1999/xlink" preserveAspectRatio="xMidYMid" width="69" height="52" viewBox="0 0 69 52">
  <defs>
    <style>

      .cls-3 {
        fill: #81bda4;
      }

      .cls-4 {
        fill: #ffffff;
      }

      .cls-5 {
        fill: #000000;
      }

      .cls-7 {
        fill: #99746a;
      }
    </style>
  </defs>
  <g id="group-54svg">
    <path d="M60.653,13.150 C65.146,13.150 68.000,16.792 68.000,21.286 C68.000,21.286 68.000,44.676 68.000,44.676 C68.000,49.169 65.935,52.500 61.442,52.500 C61.442,52.500 17.713,52.500 17.713,52.500 C13.220,52.500 8.000,49.169 8.000,44.676 C8.000,44.676 8.000,21.286 8.000,21.286 C8.000,16.792 12.037,13.150 16.530,13.150 C16.530,13.150 16.530,13.150 16.530,13.150 " id="path-1" class="cls-3" fill-rule="evenodd"/>
    <path d="M68.560,18.235 C68.560,18.235 43.603,33.451 43.603,33.451 C41.129,34.865 38.097,34.883 35.608,33.496 C35.608,33.496 11.103,18.235 11.103,18.235 C11.103,18.235 11.103,18.235 11.103,18.235 " id="path-2" class="cls-4" fill-rule="evenodd"/>
    <path d="M54.442,51.500 C54.442,51.500 10.713,51.500 10.713,51.500 C5.561,51.500 -0.000,48.127 -0.000,42.676 C-0.000,42.676 -0.000,19.286 -0.000,19.286 C-0.000,14.063 4.536,9.650 9.905,9.650 C10.733,9.650 11.405,10.322 11.405,11.150 C11.405,11.979 10.733,12.650 9.905,12.650 C6.162,12.650 3.000,15.689 3.000,19.286 C3.000,19.286 3.000,42.676 3.000,42.676 C3.000,46.273 7.004,48.500 10.713,48.500 C10.713,48.500 54.442,48.500 54.442,48.500 C58.026,48.500 60.000,46.432 60.000,42.676 C60.000,42.676 60.000,19.286 60.000,19.286 C60.000,15.441 57.436,12.650 53.903,12.650 C53.075,12.650 52.403,11.979 52.403,11.150 C52.403,10.322 53.075,9.650 53.903,9.650 C59.089,9.650 63.000,13.793 63.000,19.286 C63.000,19.286 63.000,42.676 63.000,42.676 C63.000,48.119 59.721,51.500 54.442,51.500 Z" id="path-3" class="cls-5" fill-rule="evenodd"/>
    <path d="M32.546,34.012 C30.928,34.012 29.319,33.609 27.878,32.807 C27.878,32.807 3.310,17.508 3.310,17.508 C2.607,17.070 2.392,16.145 2.830,15.442 C3.268,14.739 4.193,14.524 4.896,14.961 C4.896,14.961 29.401,30.223 29.401,30.223 C31.356,31.309 33.854,31.295 35.859,30.149 C35.859,30.149 59.756,14.969 59.756,14.969 C60.457,14.524 61.383,14.732 61.827,15.431 C62.271,16.130 62.064,17.057 61.365,17.501 C61.365,17.501 37.407,32.718 37.407,32.718 C35.897,33.581 34.217,34.012 32.546,34.012 Z" id="path-4" class="cls-5" fill-rule="evenodd"/>
    <path d="M36.525,5.800 C39.612,8.886 39.612,13.891 36.525,16.977 C33.439,20.064 28.435,20.064 25.348,16.977 C22.261,13.891 22.261,8.886 25.348,5.800 C28.435,2.713 33.439,2.713 36.525,5.800 Z" id="path-5" class="cls-7" fill-rule="evenodd"/>
    <path d="M26.937,18.792 C24.425,18.792 22.063,17.814 20.287,16.038 C16.621,12.371 16.621,6.405 20.287,2.739 C22.063,0.963 24.425,-0.015 26.937,-0.015 C29.449,-0.015 31.810,0.963 33.586,2.739 C35.362,4.515 36.340,6.876 36.340,9.389 C36.340,11.900 35.362,14.262 33.586,16.038 C31.810,17.814 29.449,18.792 26.937,18.792 ZM26.937,2.985 C25.226,2.985 23.618,3.651 22.408,4.860 C19.912,7.357 19.912,11.420 22.408,13.917 C23.618,15.126 25.226,15.792 26.937,15.792 C28.647,15.792 30.255,15.126 31.465,13.917 C32.674,12.707 33.340,11.099 33.340,9.389 C33.340,7.678 32.674,6.070 31.465,4.860 C30.255,3.651 28.647,2.985 26.937,2.985 Z" id="path-6" class="cls-5" fill-rule="evenodd"/>
    <path d="M39.783,23.725 C39.399,23.725 39.015,23.579 38.722,23.286 C38.722,23.286 33.455,18.019 33.455,18.019 C32.870,17.434 32.870,16.484 33.455,15.898 C34.041,15.312 34.991,15.312 35.577,15.898 C35.577,15.898 40.843,21.165 40.843,21.165 C41.429,21.750 41.429,22.701 40.843,23.286 C40.550,23.579 40.166,23.725 39.783,23.725 Z" id="path-7" class="cls-5" fill-rule="evenodd"/>
  </g>
</svg>
