<svg xmlns="http://www.w3.org/2000/svg" xmlns:xlink="http://www.w3.org/1999/xlink" preserveAspectRatio="xMidYMid" width="52" height="67" viewBox="0 0 52 67">
  <defs>
    <style>

      .cls-3 {
        fill: #e56a77;
      }

      .cls-4 {
        fill: #000000;
      }
    </style>
  </defs>
  <g id="group-34svg">
    <path d="M44.251,6.000 C44.251,6.000 17.258,6.000 17.258,6.000 C12.073,6.000 7.000,10.369 7.000,15.554 C7.000,15.554 7.000,66.165 7.000,66.165 C7.000,66.165 18.659,52.000 18.659,52.000 C18.659,52.000 44.251,52.000 44.251,52.000 C49.436,52.000 52.000,47.732 52.000,42.546 C52.000,42.546 52.000,15.554 52.000,15.554 C52.000,10.369 49.436,6.000 44.251,6.000 Z" id="path-1" class="cls-3" fill-rule="evenodd"/>
    <path d="M1.500,63.665 C1.340,63.665 1.178,63.640 1.020,63.586 C0.411,63.381 -0.000,62.809 -0.000,62.165 C-0.000,62.165 -0.000,11.554 -0.000,11.554 C-0.000,5.507 5.366,-0.000 11.258,-0.000 C11.258,-0.000 38.251,-0.000 38.251,-0.000 C44.583,-0.000 48.000,5.953 48.000,11.554 C48.000,11.554 48.000,38.546 48.000,38.546 C48.000,44.799 44.082,49.000 38.251,49.000 C38.251,49.000 13.403,49.000 13.403,49.000 C13.403,49.000 2.694,63.073 2.694,63.073 C2.404,63.454 1.959,63.665 1.500,63.665 ZM11.258,3.000 C7.013,3.000 3.000,7.157 3.000,11.554 C3.000,11.554 3.000,57.717 3.000,57.717 C3.000,57.717 11.465,46.592 11.465,46.592 C11.749,46.219 12.191,46.000 12.659,46.000 C12.659,46.000 38.251,46.000 38.251,46.000 C42.414,46.000 45.000,43.144 45.000,38.546 C45.000,38.546 45.000,11.554 45.000,11.554 C45.000,7.303 42.682,3.000 38.251,3.000 C38.251,3.000 11.258,3.000 11.258,3.000 Z" id="path-2" class="cls-4" fill-rule="evenodd"/>
    <path d="M26.375,39.372 C23.774,39.372 21.615,37.446 21.248,34.945 C21.248,34.945 17.829,33.060 17.829,33.060 C17.172,33.355 16.464,33.509 15.739,33.509 C12.881,33.509 10.557,31.185 10.557,28.327 C10.557,25.470 12.881,23.145 15.739,23.145 C16.500,23.145 17.240,23.313 17.921,23.635 C17.921,23.635 21.264,21.878 21.264,21.878 C21.674,19.427 23.810,17.554 26.375,17.554 C29.232,17.554 31.557,19.878 31.557,22.736 C31.557,25.593 29.232,27.917 26.375,27.917 C25.613,27.917 24.872,27.750 24.192,27.427 C24.192,27.427 22.355,28.393 22.355,28.393 C22.355,28.393 24.285,29.457 24.285,29.457 C24.942,29.162 25.650,29.008 26.375,29.008 C29.232,29.008 31.557,31.333 31.557,34.190 C31.557,37.047 29.232,39.372 26.375,39.372 ZM17.824,29.844 C18.073,29.844 18.322,29.906 18.548,30.031 C18.548,30.031 23.425,32.720 23.425,32.720 C23.949,33.009 24.251,33.582 24.194,34.177 C24.193,35.393 25.172,36.372 26.375,36.372 C27.578,36.372 28.557,35.393 28.557,34.190 C28.557,32.987 27.578,32.008 26.375,32.008 C25.936,32.008 25.524,32.141 25.151,32.402 C24.683,32.730 24.068,32.764 23.566,32.487 C23.566,32.487 18.689,29.797 18.689,29.797 C18.170,29.511 17.868,28.946 17.918,28.356 C17.888,27.771 18.202,27.187 18.720,26.915 C18.720,26.915 23.534,24.384 23.534,24.384 C24.041,24.119 24.655,24.163 25.118,24.501 C25.495,24.777 25.918,24.917 26.375,24.917 C27.578,24.917 28.557,23.939 28.557,22.736 C28.557,21.533 27.578,20.554 26.375,20.554 C25.172,20.554 24.193,21.533 24.193,22.736 C24.193,23.293 23.887,23.889 23.394,24.148 C23.394,24.148 18.581,26.678 18.581,26.678 C18.076,26.943 17.463,26.899 17.000,26.563 C16.620,26.286 16.195,26.145 15.739,26.145 C14.536,26.145 13.557,27.124 13.557,28.327 C13.557,29.530 14.536,30.509 15.739,30.509 C16.179,30.509 16.591,30.377 16.964,30.116 C17.221,29.935 17.522,29.844 17.824,29.844 Z" id="path-3" class="cls-4" fill-rule="evenodd"/>
  </g>
</svg>
