<svg xmlns="http://www.w3.org/2000/svg" xmlns:xlink="http://www.w3.org/1999/xlink" preserveAspectRatio="xMidYMid" width="52" height="67" viewBox="0 0 52 67">
  <defs>
    <style>

      .cls-3 {
        fill: #e56a77;
      }

      .cls-4 {
        fill: #000000;
      }
    </style>
  </defs>
  <g id="group-36svg">
    <path d="M43.868,6.000 C43.868,6.000 16.875,6.000 16.875,6.000 C11.690,6.000 7.000,10.369 7.000,15.554 C7.000,15.554 7.000,66.165 7.000,66.165 C7.000,66.165 18.276,52.000 18.276,52.000 C18.276,52.000 43.868,52.000 43.868,52.000 C49.053,52.000 52.000,47.732 52.000,42.546 C52.000,42.546 52.000,15.554 52.000,15.554 C52.000,10.369 49.053,6.000 43.868,6.000 Z" id="path-1" class="cls-3" fill-rule="evenodd"/>
    <path d="M1.500,63.665 C1.344,63.665 1.186,63.641 1.033,63.590 C0.416,63.388 -0.000,62.813 -0.000,62.165 C-0.000,62.165 -0.000,11.554 -0.000,11.554 C-0.000,5.399 5.082,-0.000 10.875,-0.000 C10.875,-0.000 37.868,-0.000 37.868,-0.000 C44.210,-0.000 48.000,5.874 48.000,11.554 C48.000,11.554 48.000,38.546 48.000,38.546 C48.000,44.701 43.833,49.000 37.868,49.000 C37.868,49.000 13.035,49.000 13.035,49.000 C13.035,49.000 2.709,63.053 2.709,63.053 C2.421,63.445 1.968,63.665 1.500,63.665 ZM10.875,3.000 C6.680,3.000 3.000,6.997 3.000,11.554 C3.000,11.554 3.000,57.590 3.000,57.590 C3.000,57.590 11.067,46.612 11.067,46.612 C11.350,46.227 11.798,46.000 12.276,46.000 C12.276,46.000 37.868,46.000 37.868,46.000 C42.134,46.000 45.000,43.004 45.000,38.546 C45.000,38.546 45.000,11.554 45.000,11.554 C45.000,7.349 42.333,3.000 37.868,3.000 C37.868,3.000 10.875,3.000 10.875,3.000 Z" id="path-2" class="cls-4" fill-rule="evenodd"/>
    <path d="M14.895,38.195 C14.501,38.195 14.119,38.039 13.835,37.756 C13.488,37.409 13.332,36.915 13.419,36.432 C13.419,36.432 14.305,31.474 14.305,31.474 C14.358,31.171 14.504,30.894 14.721,30.677 C14.721,30.677 26.919,18.478 26.919,18.478 C27.747,17.651 28.846,17.196 30.016,17.196 C31.186,17.196 32.285,17.651 33.112,18.478 C34.820,20.186 34.820,22.964 33.112,24.671 C33.112,24.671 20.914,36.870 20.914,36.870 C20.697,37.087 20.419,37.232 20.117,37.286 C20.117,37.286 15.159,38.172 15.159,38.172 C15.071,38.187 14.983,38.195 14.895,38.195 ZM17.175,32.465 C17.175,32.465 16.750,34.840 16.750,34.840 C16.750,34.840 19.126,34.416 19.126,34.416 C19.126,34.416 30.991,22.550 30.991,22.550 C31.529,22.012 31.529,21.138 30.991,20.600 C30.469,20.079 29.561,20.079 29.040,20.600 C29.040,20.600 17.175,32.465 17.175,32.465 Z" id="path-3" class="cls-4" fill-rule="evenodd"/>
  </g>
</svg>
