<svg xmlns="http://www.w3.org/2000/svg" xmlns:xlink="http://www.w3.org/1999/xlink" preserveAspectRatio="xMidYMid" width="52" height="67" viewBox="0 0 52 67">
  <defs>
    <style>

      .cls-3 {
        fill: #e56a77;
      }

      .cls-4 {
        fill: #000000;
      }
    </style>
  </defs>
  <g id="group-23svg">
    <path d="M43.588,6.000 C43.588,6.000 16.596,6.000 16.596,6.000 C11.410,6.000 7.000,10.369 7.000,15.554 C7.000,15.554 7.000,66.165 7.000,66.165 C7.000,66.165 17.997,52.000 17.997,52.000 C17.997,52.000 43.588,52.000 43.588,52.000 C48.773,52.000 52.000,47.732 52.000,42.546 C52.000,42.546 52.000,15.554 52.000,15.554 C52.000,10.369 48.773,6.000 43.588,6.000 Z" id="path-1" class="cls-3" fill-rule="evenodd"/>
    <path d="M1.500,63.665 C1.347,63.665 1.192,63.642 1.041,63.593 C0.421,63.394 -0.000,62.817 -0.000,62.165 C-0.000,62.165 -0.000,11.554 -0.000,11.554 C-0.000,5.291 4.852,-0.000 10.596,-0.000 C10.596,-0.000 37.588,-0.000 37.588,-0.000 C43.330,-0.000 48.000,5.183 48.000,11.554 C48.000,11.554 48.000,38.546 48.000,38.546 C48.000,44.604 43.621,49.000 37.588,49.000 C37.588,49.000 12.768,49.000 12.768,49.000 C12.768,49.000 2.720,63.038 2.720,63.038 C2.433,63.439 1.975,63.665 1.500,63.665 ZM10.596,3.000 C6.052,3.000 3.000,7.423 3.000,11.554 C3.000,11.554 3.000,57.492 3.000,57.492 C3.000,57.492 10.777,46.627 10.777,46.627 C11.059,46.233 11.513,46.000 11.997,46.000 C11.997,46.000 37.588,46.000 37.588,46.000 C41.952,46.000 45.000,42.935 45.000,38.546 C45.000,38.546 45.000,11.554 45.000,11.554 C45.000,7.440 42.166,3.000 37.588,3.000 C37.588,3.000 10.596,3.000 10.596,3.000 Z" id="path-2" class="cls-4" fill-rule="evenodd"/>
    <path d="M11.928,28.494 C11.099,28.494 10.428,27.823 10.428,26.994 C10.428,20.320 15.858,14.890 22.533,14.890 C28.572,14.890 33.730,19.397 34.530,25.374 C34.640,26.195 34.063,26.950 33.243,27.060 C32.423,27.169 31.667,26.594 31.557,25.772 C30.955,21.278 27.076,17.890 22.533,17.890 C17.512,17.890 13.428,21.974 13.428,26.994 C13.428,27.823 12.756,28.494 11.928,28.494 Z" id="path-3" class="cls-4" fill-rule="evenodd"/>
    <path d="M22.462,40.000 C22.459,40.000 22.456,40.000 22.453,40.000 C20.545,40.000 18.646,39.279 16.963,38.406 C16.228,38.025 15.941,36.999 16.322,36.264 C16.705,35.529 17.609,35.180 18.344,35.562 C19.627,36.227 21.016,36.540 22.472,36.549 C23.300,36.555 23.968,37.456 23.962,38.284 C23.957,39.109 23.287,40.000 22.462,40.000 ZM13.911,35.090 C13.444,35.090 12.984,34.873 12.691,34.465 C11.580,32.916 10.843,31.104 10.561,29.225 C10.438,28.406 11.003,27.642 11.822,27.519 C12.644,27.396 13.406,27.960 13.528,28.780 C13.740,30.191 14.293,31.552 15.128,32.716 C15.611,33.389 15.457,34.326 14.784,34.809 C14.519,34.999 14.214,35.090 13.911,35.090 Z" id="path-4" class="cls-4" fill-rule="evenodd"/>
    <path d="M33.304,24.228 C33.304,24.228 35.183,23.629 35.183,23.629 C35.628,23.487 36.103,23.842 36.071,24.308 C36.063,24.419 36.038,24.545 35.984,24.650 C35.984,24.650 34.272,27.960 34.272,27.960 C34.101,28.293 33.691,28.421 33.358,28.249 C33.358,28.249 30.046,26.535 30.046,26.535 C29.941,26.480 29.850,26.399 29.780,26.313 C29.484,25.952 29.666,25.387 30.111,25.245 C30.111,25.245 32.091,24.614 32.091,24.614 C32.091,24.614 33.304,24.228 33.304,24.228 Z" id="path-5" class="cls-4" fill-rule="evenodd"/>
  </g>
</svg>
