<svg xmlns="http://www.w3.org/2000/svg" xmlns:xlink="http://www.w3.org/1999/xlink" preserveAspectRatio="xMidYMid" width="68" height="56" viewBox="0 0 68 56">
  <defs>
    <style>

      .cls-3 {
        fill: #81bda4;
      }

      .cls-4 {
        fill: #ffffff;
      }

      .cls-5 {
        fill: #99746a;
      }

      .cls-6 {
        fill: #000000;
      }
    </style>
  </defs>
  <g id="group-53svg">
    <path d="M60.322,16.368 C64.815,16.368 68.000,20.011 68.000,24.504 C68.000,24.504 68.000,47.893 68.000,47.893 C68.000,52.387 65.272,55.594 60.779,55.594 C60.779,55.594 17.050,55.594 17.050,55.594 C12.557,55.594 8.000,52.387 8.000,47.893 C8.000,47.893 8.000,24.504 8.000,24.504 C8.000,20.011 11.871,16.368 16.364,16.368 C16.364,16.368 16.364,16.368 16.364,16.368 " id="path-1" class="cls-3" fill-rule="evenodd"/>
    <path d="M67.897,21.453 C67.897,21.453 42.940,36.670 42.940,36.670 C40.467,38.083 37.434,38.101 34.945,36.715 C34.945,36.715 10.440,21.453 10.440,21.453 C10.440,21.453 10.440,21.453 10.440,21.453 " id="path-2" class="cls-4" fill-rule="evenodd"/>
    <path d="M46.443,20.053 C46.443,20.053 48.089,17.488 48.089,17.488 C48.274,17.172 48.350,16.781 48.165,16.464 C48.165,16.464 46.405,13.899 46.405,13.899 C46.314,13.744 46.000,13.567 46.000,13.388 C46.000,13.388 46.000,10.760 46.000,10.760 C46.000,10.392 46.105,10.052 45.784,9.872 C45.784,9.872 43.473,8.494 43.473,8.494 C43.324,8.410 43.274,8.290 43.183,8.144 C43.183,8.144 41.734,5.916 41.734,5.916 C41.548,5.618 41.260,5.594 40.909,5.594 C40.909,5.594 38.249,5.594 38.249,5.594 C38.069,5.594 37.893,5.390 37.737,5.299 C37.737,5.299 35.172,3.727 35.172,3.727 C34.856,3.542 34.465,3.503 34.148,3.688 C34.148,3.688 31.583,5.319 31.583,5.319 C31.428,5.409 31.251,5.594 31.072,5.594 C31.072,5.594 28.454,5.594 28.454,5.594 C28.080,5.594 27.737,5.642 27.559,5.970 C27.559,5.970 26.309,8.203 26.309,8.203 C26.223,8.361 26.097,8.455 25.942,8.548 C25.942,8.548 23.599,9.886 23.599,9.886 C23.295,10.070 23.000,10.380 23.000,10.735 C23.000,10.735 23.000,13.388 23.000,13.388 C23.000,13.567 23.062,13.744 22.972,13.899 C22.972,13.899 21.533,16.464 21.533,16.464 C21.348,16.781 21.375,17.172 21.560,17.488 C21.560,17.488 22.958,20.053 22.958,20.053 C23.048,20.208 23.000,20.385 23.000,20.565 C23.000,20.565 23.000,23.217 23.000,23.217 C23.000,23.572 23.295,23.901 23.599,24.086 C23.599,24.086 25.888,25.443 25.888,25.443 C26.041,25.537 26.195,25.670 26.281,25.828 C26.281,25.828 27.545,28.100 27.545,28.100 C27.723,28.428 28.080,28.594 28.454,28.594 C28.454,28.594 31.072,28.594 31.072,28.594 C31.251,28.594 31.428,28.680 31.584,28.770 C31.584,28.770 34.148,30.284 34.148,30.284 C34.465,30.469 34.856,30.478 35.172,30.294 C35.172,30.294 37.737,28.766 37.737,28.766 C37.893,28.675 38.069,28.594 38.249,28.594 C38.249,28.594 40.909,28.594 40.909,28.594 C41.260,28.594 41.586,28.451 41.772,28.153 C41.772,28.153 43.259,25.788 43.259,25.788 C43.350,25.643 43.476,25.532 43.625,25.449 C43.625,25.449 45.784,24.075 45.784,24.075 C46.105,23.895 46.000,23.561 46.000,23.192 C46.000,23.192 46.000,20.565 46.000,20.565 C46.000,20.385 46.352,20.208 46.443,20.053 Z" id="path-3" class="cls-5" fill-rule="evenodd"/>
    <path d="M53.779,54.594 C53.779,54.594 10.050,54.594 10.050,54.594 C4.321,54.594 -0.000,50.853 -0.000,45.893 C-0.000,45.893 -0.000,22.504 -0.000,22.504 C-0.000,17.191 4.369,12.868 9.739,12.868 C10.568,12.868 11.239,13.540 11.239,14.368 C11.239,15.197 10.568,15.868 9.739,15.868 C6.023,15.868 3.000,18.845 3.000,22.504 C3.000,22.504 3.000,45.893 3.000,45.893 C3.000,49.636 6.547,51.594 10.050,51.594 C10.050,51.594 53.779,51.594 53.779,51.594 C57.616,51.594 60.000,49.409 60.000,45.893 C60.000,45.893 60.000,22.504 60.000,22.504 C60.000,18.783 57.176,15.868 53.572,15.868 C52.743,15.868 52.072,15.197 52.072,14.368 C52.072,13.540 52.743,12.868 53.572,12.868 C58.858,12.868 63.000,17.100 63.000,22.504 C63.000,22.504 63.000,45.893 63.000,45.893 C63.000,51.098 59.294,54.594 53.779,54.594 Z" id="path-4" class="cls-6" fill-rule="evenodd"/>
    <path d="M31.883,37.229 C30.266,37.229 28.656,36.827 27.215,36.025 C27.215,36.025 2.647,20.726 2.647,20.726 C1.944,20.288 1.728,19.363 2.166,18.660 C2.604,17.957 3.529,17.743 4.233,18.180 C4.233,18.180 28.738,33.441 28.738,33.441 C30.692,34.527 33.191,34.514 35.195,33.367 C35.195,33.367 59.093,18.187 59.093,18.187 C59.793,17.742 60.720,17.950 61.164,18.649 C61.608,19.348 61.401,20.275 60.702,20.719 C60.702,20.719 36.744,35.935 36.744,35.935 C35.234,36.800 33.555,37.229 31.883,37.229 Z" id="path-5" class="cls-6" fill-rule="evenodd"/>
    <path d="M31.761,29.838 C31.297,29.838 30.825,29.706 30.394,29.455 C30.394,29.455 27.776,27.784 27.776,27.784 C27.683,27.730 27.597,27.663 27.520,27.594 C27.520,27.594 25.095,27.603 25.095,27.603 C23.986,27.603 23.468,26.952 23.258,26.563 C23.258,26.563 22.072,24.623 22.072,24.623 C22.072,24.623 20.052,23.357 20.052,23.357 C19.359,22.935 19.000,22.212 19.000,21.217 C19.000,21.217 19.000,18.900 19.000,18.900 C18.978,18.866 18.959,18.835 18.942,18.805 C18.942,18.805 17.353,16.288 17.353,16.288 C16.881,15.480 16.895,14.509 17.362,13.708 C17.362,13.708 18.941,11.119 18.941,11.119 C18.956,11.092 18.976,11.061 19.000,11.025 C19.000,11.025 19.000,8.735 19.000,8.735 C19.000,7.732 19.359,7.005 20.069,6.573 C20.069,6.573 22.027,5.292 22.027,5.292 C22.027,5.292 23.234,3.017 23.234,3.017 C23.711,2.135 24.559,1.594 25.454,1.594 C25.454,1.594 28.096,1.594 28.096,1.594 C28.096,1.594 30.425,0.311 30.425,0.311 C31.144,-0.107 32.170,-0.136 32.928,0.306 C32.928,0.306 35.210,1.594 35.210,1.594 C35.224,1.594 35.236,1.594 35.249,1.594 C35.249,1.594 37.909,1.594 37.909,1.594 C38.742,1.594 39.538,2.072 40.038,2.872 C40.038,2.872 41.465,5.261 41.465,5.261 C41.465,5.261 43.772,6.566 43.772,6.566 C44.539,6.996 45.000,7.817 45.000,8.760 C45.000,8.760 45.000,11.169 45.000,11.169 C45.000,11.169 46.514,13.691 46.514,13.691 C46.976,14.483 46.970,15.455 46.510,16.244 C46.510,16.244 45.000,18.789 45.000,18.789 C45.000,18.789 45.000,21.192 45.000,21.192 C45.000,22.128 44.550,22.915 43.766,23.353 C43.766,23.353 41.384,24.681 41.384,24.681 C41.384,24.681 40.021,26.733 40.021,26.733 C39.831,27.040 39.324,27.613 38.330,27.613 C38.330,27.613 38.330,27.613 38.330,27.613 C38.234,27.613 38.134,27.607 38.031,27.600 C38.031,27.600 37.909,27.594 37.909,27.594 C37.909,27.594 35.756,27.594 35.756,27.594 C35.696,27.645 35.630,27.694 35.557,27.741 C35.557,27.741 33.017,29.471 33.017,29.471 C32.987,29.491 32.957,29.510 32.927,29.527 C32.578,29.730 32.174,29.838 31.761,29.838 ZM29.507,25.332 C29.507,25.332 31.705,26.734 31.705,26.734 C31.705,26.734 33.838,25.282 33.838,25.282 C34.084,25.027 34.535,24.594 35.249,24.594 C35.249,24.594 37.842,24.594 37.842,24.594 C37.842,24.594 39.010,22.834 39.010,22.834 C39.275,22.408 39.662,22.201 39.848,22.101 C39.848,22.101 42.000,20.903 42.000,20.903 C42.000,20.903 42.000,18.565 42.000,18.565 C42.000,17.982 42.257,17.539 42.394,17.302 C42.394,17.302 43.780,14.966 43.780,14.966 C43.780,14.966 42.400,12.672 42.400,12.672 C42.263,12.436 42.000,11.984 42.000,11.388 C42.000,11.388 42.000,9.010 42.000,9.010 C42.000,9.010 39.860,7.800 39.860,7.800 C39.502,7.599 39.202,7.307 38.971,6.935 C38.971,6.935 37.572,4.594 37.572,4.594 C37.572,4.594 35.249,4.594 35.249,4.594 C35.133,4.601 35.057,4.605 34.982,4.605 C34.615,4.605 34.279,4.518 33.983,4.346 C33.983,4.346 31.678,3.045 31.678,3.045 C31.678,3.045 29.307,4.351 29.307,4.351 C29.030,4.513 28.691,4.600 28.301,4.600 C28.301,4.600 28.126,4.596 28.126,4.596 C28.126,4.596 25.794,4.594 25.794,4.594 C25.794,4.594 24.634,6.781 24.634,6.781 C24.472,7.080 24.188,7.484 23.721,7.767 C23.721,7.767 22.000,8.894 22.000,8.894 C22.000,8.894 22.000,11.388 22.000,11.388 C22.000,12.008 21.681,12.439 21.528,12.646 C21.528,12.646 20.088,15.001 20.088,15.001 C20.088,15.001 21.508,17.253 21.508,17.253 C21.701,17.535 22.000,17.963 22.000,18.565 C22.000,18.565 22.000,21.038 22.000,21.038 C22.000,21.038 23.810,22.172 23.810,22.172 C24.267,22.451 24.516,22.843 24.663,23.114 C24.663,23.114 25.567,24.594 25.567,24.594 C25.567,24.594 28.072,24.594 28.072,24.594 C28.844,24.594 29.303,25.098 29.507,25.332 ZM23.288,23.730 C23.288,23.730 22.011,24.518 22.011,24.518 C22.013,24.520 22.034,24.555 22.077,24.600 C22.077,24.600 23.288,23.730 23.288,23.730 Z" id="path-6" class="cls-6" fill-rule="evenodd"/>
    <path d="M33.443,9.718 C32.936,9.058 31.714,9.032 31.266,9.509 C31.182,9.599 30.957,9.836 30.677,10.228 C30.462,10.526 30.191,10.807 29.899,11.061 C29.625,11.299 29.230,11.537 28.745,11.766 C28.333,11.958 28.040,12.120 27.855,12.259 C27.630,12.427 27.361,12.747 27.361,13.315 C27.361,13.693 27.503,14.040 27.774,14.319 C28.192,14.751 29.077,14.756 29.086,14.756 C29.447,14.756 29.930,14.610 31.020,13.977 C31.020,13.977 31.037,18.578 31.037,18.578 C31.037,19.096 31.147,20.672 32.508,20.672 C33.890,20.672 34.000,19.290 34.000,18.626 C34.000,18.626 34.000,10.900 34.000,10.900 C34.000,10.286 33.549,9.854 33.443,9.718 Z" id="path-7" class="cls-6" fill-rule="evenodd"/>
  </g>
</svg>
