<svg xmlns="http://www.w3.org/2000/svg" xmlns:xlink="http://www.w3.org/1999/xlink" preserveAspectRatio="xMidYMid" width="52" height="67" viewBox="0 0 52 67">
  <defs>
    <style>

      .cls-3 {
        fill: #e56a77;
      }

      .cls-4 {
        fill: #000000;
      }
    </style>
  </defs>
  <g id="group-18svg">
    <path d="M44.128,6.000 C44.128,6.000 17.135,6.000 17.135,6.000 C11.949,6.000 7.000,10.369 7.000,15.554 C7.000,15.554 7.000,66.165 7.000,66.165 C7.000,66.165 18.535,52.000 18.535,52.000 C18.535,52.000 44.128,52.000 44.128,52.000 C49.312,52.000 52.000,47.732 52.000,42.546 C52.000,42.546 52.000,15.554 52.000,15.554 C52.000,10.369 49.312,6.000 44.128,6.000 Z" id="path-1" class="cls-3" fill-rule="evenodd"/>
    <path d="M1.500,63.665 C1.341,63.665 1.181,63.640 1.024,63.588 C0.412,63.383 -0.000,62.810 -0.000,62.165 C-0.000,62.165 -0.000,11.554 -0.000,11.554 C-0.000,5.399 5.203,-0.000 11.135,-0.000 C11.135,-0.000 38.128,-0.000 38.128,-0.000 C44.540,-0.000 48.000,5.953 48.000,11.554 C48.000,11.554 48.000,38.546 48.000,38.546 C48.000,44.701 43.940,49.000 38.128,49.000 C38.128,49.000 13.283,49.000 13.283,49.000 C13.283,49.000 2.698,63.067 2.698,63.067 C2.410,63.451 1.962,63.665 1.500,63.665 ZM11.135,3.000 C6.877,3.000 3.000,7.077 3.000,11.554 C3.000,11.554 3.000,57.677 3.000,57.677 C3.000,57.677 11.337,46.598 11.337,46.598 C11.620,46.222 12.063,46.000 12.535,46.000 C12.535,46.000 38.128,46.000 38.128,46.000 C42.303,46.000 45.000,43.074 45.000,38.546 C45.000,38.546 45.000,11.554 45.000,11.554 C45.000,7.407 42.592,3.000 38.128,3.000 C38.128,3.000 11.135,3.000 11.135,3.000 Z" id="path-2" class="cls-4" fill-rule="evenodd"/>
    <path d="M23.988,33.855 C23.604,33.855 23.221,33.709 22.928,33.416 C22.342,32.830 22.342,31.880 22.928,31.295 C22.928,31.295 30.844,23.379 30.844,23.379 C30.844,23.379 22.928,15.464 22.928,15.464 C22.342,14.879 22.342,13.929 22.928,13.343 C23.514,12.757 24.463,12.757 25.049,13.343 C25.049,13.343 34.025,22.319 34.025,22.319 C34.307,22.600 34.465,22.981 34.465,23.379 C34.465,23.777 34.307,24.159 34.025,24.440 C34.025,24.440 25.049,33.416 25.049,33.416 C24.756,33.709 24.372,33.855 23.988,33.855 Z" id="path-3" class="cls-4" fill-rule="evenodd"/>
    <path d="M16.500,39.500 C15.672,39.500 15.000,38.829 15.000,38.000 C15.000,38.000 15.000,27.005 15.000,27.005 C15.000,23.754 18.026,22.000 20.873,22.000 C20.873,22.000 31.000,22.000 31.000,22.000 C31.828,22.000 32.500,22.671 32.500,23.500 C32.500,24.329 31.828,25.000 31.000,25.000 C31.000,25.000 20.873,25.000 20.873,25.000 C19.680,25.000 18.000,25.622 18.000,27.005 C18.000,27.005 18.000,38.000 18.000,38.000 C18.000,38.829 17.328,39.500 16.500,39.500 Z" id="path-4" class="cls-4" fill-rule="evenodd"/>
  </g>
</svg>
