<svg xmlns="http://www.w3.org/2000/svg" xmlns:xlink="http://www.w3.org/1999/xlink" preserveAspectRatio="xMidYMid" width="52" height="67" viewBox="0 0 52 67">
  <defs>
    <style>

      .cls-3 {
        fill: #e56a77;
      }

      .cls-4 {
        fill: #000000;
      }
    </style>
  </defs>
  <g id="group-21svg">
    <path d="M43.631,6.000 C43.631,6.000 16.638,6.000 16.638,6.000 C11.452,6.000 7.000,10.369 7.000,15.554 C7.000,15.554 7.000,66.165 7.000,66.165 C7.000,66.165 18.039,52.000 18.039,52.000 C18.039,52.000 43.631,52.000 43.631,52.000 C48.815,52.000 52.000,47.732 52.000,42.546 C52.000,42.546 52.000,15.554 52.000,15.554 C52.000,10.369 48.815,6.000 43.631,6.000 Z" id="path-1" class="cls-3" fill-rule="evenodd"/>
    <path d="M1.500,63.665 C1.347,63.665 1.191,63.642 1.040,63.593 C0.420,63.393 -0.000,62.816 -0.000,62.165 C-0.000,62.165 -0.000,11.554 -0.000,11.554 C-0.000,5.291 4.871,-0.000 10.638,-0.000 C10.638,-0.000 37.631,-0.000 37.631,-0.000 C43.349,-0.000 48.000,5.183 48.000,11.554 C48.000,11.554 48.000,38.546 48.000,38.546 C48.000,44.603 43.639,49.000 37.631,49.000 C37.631,49.000 12.809,49.000 12.809,49.000 C12.809,49.000 2.718,63.040 2.718,63.040 C2.431,63.440 1.974,63.665 1.500,63.665 ZM10.638,3.000 C6.069,3.000 3.000,7.423 3.000,11.554 C3.000,11.554 3.000,57.507 3.000,57.507 C3.000,57.507 10.821,46.624 10.821,46.624 C11.103,46.232 11.557,46.000 12.039,46.000 C12.039,46.000 37.631,46.000 37.631,46.000 C41.970,46.000 45.000,42.935 45.000,38.546 C45.000,38.546 45.000,11.554 45.000,11.554 C45.000,7.440 42.183,3.000 37.631,3.000 C37.631,3.000 10.638,3.000 10.638,3.000 Z" id="path-2" class="cls-4" fill-rule="evenodd"/>
    <path d="M21.017,26.385 C21.101,27.254 21.246,27.899 21.457,28.358 C21.750,28.995 22.316,29.346 23.050,29.346 C23.768,29.346 24.336,28.993 24.648,28.353 C24.883,27.873 25.030,27.234 25.096,26.403 C25.096,26.403 25.635,20.215 25.635,20.215 C25.696,19.619 25.727,19.033 25.727,18.456 C25.727,17.398 25.585,16.591 25.290,15.984 C25.034,15.460 24.463,14.836 23.201,14.836 C22.401,14.836 21.740,15.109 21.240,15.647 C20.748,16.171 20.498,16.883 20.498,17.765 C20.498,18.285 20.536,19.143 20.613,20.340 C20.613,20.340 21.017,26.385 21.017,26.385 Z" id="path-3" class="cls-4" fill-rule="evenodd"/>
    <path d="M21.257,30.872 C20.761,31.366 20.498,31.999 20.498,32.704 C20.498,33.502 20.782,34.170 21.318,34.637 C21.833,35.080 22.440,35.307 23.125,35.307 C23.806,35.307 24.411,35.077 24.921,34.622 C25.449,34.154 25.727,33.491 25.727,32.704 C25.727,31.996 25.459,31.360 24.954,30.868 C23.934,29.867 22.255,29.872 21.257,30.872 Z" id="path-4" class="cls-4" fill-rule="evenodd"/>
  </g>
</svg>
