<svg xmlns="http://www.w3.org/2000/svg" xmlns:xlink="http://www.w3.org/1999/xlink" preserveAspectRatio="xMidYMid" width="69" height="53" viewBox="0 0 69 53">
  <defs>
    <style>

      .cls-3 {
        fill: #81bda4;
      }

      .cls-4 {
        fill: #ffffff;
      }

      .cls-5 {
        fill: #000000;
      }
    </style>
  </defs>
  <g id="group-44svg">
    <path d="M60.653,13.650 C65.146,13.650 68.000,17.292 68.000,21.786 C68.000,21.786 68.000,45.176 68.000,45.176 C68.000,49.669 65.935,53.000 61.442,53.000 C61.442,53.000 17.713,53.000 17.713,53.000 C13.220,53.000 8.000,49.669 8.000,45.176 C8.000,45.176 8.000,21.786 8.000,21.786 C8.000,17.292 12.037,13.650 16.530,13.650 C16.530,13.650 16.530,13.650 16.530,13.650 " id="path-1" class="cls-3" fill-rule="evenodd"/>
    <path d="M68.560,18.735 C68.560,18.735 43.603,33.952 43.603,33.952 C41.129,35.365 38.097,35.382 35.608,33.997 C35.608,33.997 11.103,18.735 11.103,18.735 C11.103,18.735 11.103,18.735 11.103,18.735 " id="path-2" class="cls-4" fill-rule="evenodd"/>
    <path d="M54.442,52.000 C54.442,52.000 10.713,52.000 10.713,52.000 C5.561,52.000 -0.000,48.626 -0.000,43.176 C-0.000,43.176 -0.000,19.786 -0.000,19.786 C-0.000,14.563 4.536,10.150 9.905,10.150 C10.733,10.150 11.405,10.822 11.405,11.650 C11.405,12.479 10.733,13.150 9.905,13.150 C6.162,13.150 3.000,16.189 3.000,19.786 C3.000,19.786 3.000,43.176 3.000,43.176 C3.000,46.773 7.004,49.000 10.713,49.000 C10.713,49.000 54.442,49.000 54.442,49.000 C58.026,49.000 60.000,46.932 60.000,43.176 C60.000,43.176 60.000,19.786 60.000,19.786 C60.000,15.941 57.436,13.150 53.903,13.150 C53.075,13.150 52.403,12.479 52.403,11.650 C52.403,10.822 53.075,10.150 53.903,10.150 C59.089,10.150 63.000,14.293 63.000,19.786 C63.000,19.786 63.000,43.176 63.000,43.176 C63.000,48.619 59.721,52.000 54.442,52.000 Z" id="path-3" class="cls-5" fill-rule="evenodd"/>
    <path d="M32.546,34.512 C30.928,34.512 29.319,34.109 27.878,33.307 C27.878,33.307 3.310,18.008 3.310,18.008 C2.607,17.570 2.392,16.645 2.830,15.942 C3.268,15.239 4.193,15.024 4.896,15.461 C4.896,15.461 29.401,30.723 29.401,30.723 C31.356,31.809 33.854,31.795 35.859,30.649 C35.859,30.649 59.756,15.469 59.756,15.469 C60.457,15.024 61.383,15.232 61.827,15.931 C62.271,16.630 62.064,17.557 61.365,18.001 C61.365,18.001 37.407,33.218 37.407,33.218 C35.897,34.081 34.217,34.512 32.546,34.512 Z" id="path-4" class="cls-5" fill-rule="evenodd"/>
    <path d="M32.427,22.894 C32.046,22.894 31.665,22.750 31.374,22.462 C31.374,22.462 22.551,13.761 22.551,13.761 C21.961,13.179 21.955,12.229 22.537,11.640 C23.119,11.049 24.069,11.043 24.658,11.625 C24.658,11.625 32.437,19.298 32.437,19.298 C32.437,19.298 40.388,11.614 40.388,11.614 C40.983,11.039 41.932,11.054 42.509,11.650 C43.084,12.246 43.068,13.196 42.473,13.771 C42.473,13.771 33.469,22.473 33.469,22.473 C33.178,22.754 32.802,22.894 32.427,22.894 Z" id="path-5" class="cls-5" fill-rule="evenodd"/>
    <path d="M32.427,23.000 C32.424,23.000 32.422,23.000 32.420,23.000 C31.591,23.000 30.923,22.268 30.927,21.440 C30.927,21.440 31.017,1.647 31.017,1.647 C31.021,0.821 31.692,-0.000 32.517,-0.000 C32.519,-0.000 32.521,-0.000 32.524,-0.000 C33.353,-0.000 34.021,0.807 34.017,1.634 C34.017,1.634 33.927,21.390 33.927,21.390 C33.923,22.216 33.252,23.000 32.427,23.000 Z" id="path-6" class="cls-5" fill-rule="evenodd"/>
  </g>
</svg>
