<svg xmlns="http://www.w3.org/2000/svg" xmlns:xlink="http://www.w3.org/1999/xlink" preserveAspectRatio="xMidYMid" width="65" height="54" viewBox="0 0 65 54">
  <defs>
    <style>

      .cls-3 {
        fill: #8b71b5;
      }

      .cls-4 {
        fill: #53ecf4;
      }

      .cls-5 {
        fill: #edc951;
      }

      .cls-6 {
        fill: #000000;
      }
    </style>
  </defs>
  <g id="group-42svg">
    <path d="M44.000,27.132 C44.000,27.132 44.000,24.000 44.000,24.000 C44.000,24.000 35.872,24.000 35.872,24.000 C35.872,24.000 26.000,24.000 26.000,24.000 C26.000,24.000 26.000,27.132 26.000,27.132 C26.000,29.341 25.509,31.000 23.300,31.000 C23.300,31.000 14.872,31.000 14.872,31.000 C10.454,31.000 6.000,34.714 6.000,39.132 C6.000,39.132 6.000,45.632 6.000,45.632 C6.000,50.050 10.454,54.000 14.872,54.000 C14.872,54.000 35.872,54.000 35.872,54.000 C35.872,54.000 57.872,54.000 57.872,54.000 C62.290,54.000 65.000,50.050 65.000,45.632 C65.000,45.632 65.000,39.132 65.000,39.132 C65.000,34.714 62.290,31.000 57.872,31.000 C57.872,31.000 48.443,31.000 48.443,31.000 C46.234,31.000 44.000,29.341 44.000,27.132 Z" id="path-1" class="cls-3" fill-rule="evenodd"/>
    <path d="M20.000,21.775 C20.000,21.775 20.000,16.000 20.000,16.000 C20.000,16.000 36.040,16.000 36.040,16.000 C36.040,16.000 51.000,16.000 51.000,16.000 C51.000,16.000 51.000,21.775 51.000,21.775 C51.000,23.974 53.743,26.000 55.943,26.000 C55.943,26.000 59.729,26.000 59.729,26.000 C61.929,26.000 63.000,23.974 63.000,21.775 C63.000,21.775 63.000,13.417 63.000,13.417 C63.000,8.999 60.147,5.000 55.729,5.000 C55.729,5.000 36.040,5.000 36.040,5.000 C36.040,5.000 17.086,5.000 17.086,5.000 C12.686,5.000 8.000,9.017 8.000,13.417 C8.000,13.417 8.000,21.775 8.000,21.775 C8.000,23.974 10.886,26.000 13.086,26.000 C13.086,26.000 16.872,26.000 16.872,26.000 C19.072,26.000 20.000,23.974 20.000,21.775 Z" id="path-2" class="cls-4" fill-rule="evenodd"/>
    <path d="M44.175,41.310 C44.175,45.822 40.518,49.480 36.005,49.480 C31.494,49.480 27.836,45.822 27.836,41.310 C27.836,36.798 31.494,33.141 36.005,33.141 C40.518,33.141 44.175,36.798 44.175,41.310 Z" id="path-3" class="cls-5" fill-rule="evenodd"/>
    <path d="M54.729,24.000 C54.729,24.000 50.943,24.000 50.943,24.000 C48.085,24.000 45.000,22.002 45.000,18.775 C45.000,18.775 45.000,14.000 45.000,14.000 C45.000,14.000 17.000,14.000 17.000,14.000 C17.000,14.000 17.000,18.775 17.000,18.775 C17.000,21.852 14.891,24.000 11.872,24.000 C11.872,24.000 8.086,24.000 8.086,24.000 C5.147,24.000 2.000,21.900 2.000,18.775 C2.000,18.775 2.000,10.417 2.000,10.417 C2.000,5.062 6.901,-0.000 12.086,-0.000 C12.086,-0.000 50.729,-0.000 50.729,-0.000 C56.192,-0.000 60.000,5.490 60.000,10.417 C60.000,10.417 60.000,18.775 60.000,18.775 C60.000,21.803 57.783,24.000 54.729,24.000 ZM15.500,11.000 C15.500,11.000 46.500,11.000 46.500,11.000 C47.329,11.000 48.000,11.671 48.000,12.500 C48.000,12.500 48.000,18.775 48.000,18.775 C48.000,20.086 49.551,21.000 50.943,21.000 C50.943,21.000 54.729,21.000 54.729,21.000 C56.108,21.000 57.000,20.126 57.000,18.775 C57.000,18.775 57.000,10.417 57.000,10.417 C57.000,6.916 54.318,3.000 50.729,3.000 C50.729,3.000 12.086,3.000 12.086,3.000 C8.576,3.000 5.000,6.743 5.000,10.417 C5.000,10.417 5.000,18.775 5.000,18.775 C5.000,20.028 6.659,21.000 8.086,21.000 C8.086,21.000 11.872,21.000 11.872,21.000 C13.204,21.000 14.000,20.168 14.000,18.775 C14.000,18.775 14.000,12.500 14.000,12.500 C14.000,11.671 14.671,11.000 15.500,11.000 Z" id="path-4" class="cls-6" fill-rule="evenodd"/>
    <path d="M15.000,18.000 C15.000,18.000 5.000,18.000 5.000,18.000 C4.171,18.000 3.500,17.329 3.500,16.500 C3.500,15.671 4.171,15.000 5.000,15.000 C5.000,15.000 15.000,15.000 15.000,15.000 C15.829,15.000 16.500,15.671 16.500,16.500 C16.500,17.329 15.829,18.000 15.000,18.000 Z" id="path-5" class="cls-6" fill-rule="evenodd"/>
    <path d="M58.000,18.000 C58.000,18.000 47.000,18.000 47.000,18.000 C46.171,18.000 45.500,17.329 45.500,16.500 C45.500,15.671 46.171,15.000 47.000,15.000 C47.000,15.000 58.000,15.000 58.000,15.000 C58.829,15.000 59.500,15.671 59.500,16.500 C59.500,17.329 58.829,18.000 58.000,18.000 Z" id="path-6" class="cls-6" fill-rule="evenodd"/>
    <path d="M52.872,52.000 C52.872,52.000 9.872,52.000 9.872,52.000 C4.520,52.000 -0.000,47.710 -0.000,42.632 C-0.000,42.632 -0.000,36.132 -0.000,36.132 C-0.000,30.829 4.705,26.000 9.872,26.000 C9.872,26.000 18.300,26.000 18.300,26.000 C19.476,26.000 20.000,25.730 20.000,24.132 C20.000,24.132 20.000,20.500 20.000,20.500 C20.000,19.671 20.671,19.000 21.500,19.000 C21.500,19.000 39.500,19.000 39.500,19.000 C40.329,19.000 41.000,19.671 41.000,20.500 C41.000,20.500 41.000,24.132 41.000,24.132 C41.000,25.757 42.531,26.000 43.443,26.000 C43.443,26.000 52.872,26.000 52.872,26.000 C57.905,26.000 62.000,30.545 62.000,36.132 C62.000,36.132 62.000,42.632 62.000,42.632 C62.000,47.973 58.076,52.000 52.872,52.000 ZM9.872,29.000 C6.339,29.000 3.000,32.466 3.000,36.132 C3.000,36.132 3.000,42.632 3.000,42.632 C3.000,46.083 6.147,49.000 9.872,49.000 C9.872,49.000 52.872,49.000 52.872,49.000 C56.365,49.000 59.000,46.262 59.000,42.632 C59.000,42.632 59.000,36.132 59.000,36.132 C59.000,32.687 56.538,29.000 52.872,29.000 C52.872,29.000 43.443,29.000 43.443,29.000 C40.187,29.000 38.000,27.043 38.000,24.132 C38.000,24.132 38.000,22.000 38.000,22.000 C38.000,22.000 23.000,22.000 23.000,22.000 C23.000,22.000 23.000,24.132 23.000,24.132 C23.000,27.226 21.287,29.000 18.300,29.000 C18.300,29.000 9.872,29.000 9.872,29.000 Z" id="path-7" class="cls-6" fill-rule="evenodd"/>
    <path d="M31.005,47.980 C25.674,47.980 21.336,43.642 21.336,38.311 C21.336,32.979 25.674,28.641 31.005,28.641 C36.337,28.641 40.675,32.979 40.675,38.311 C40.675,43.642 36.337,47.980 31.005,47.980 ZM31.005,31.641 C27.328,31.641 24.336,34.633 24.336,38.311 C24.336,41.988 27.328,44.980 31.005,44.980 C34.683,44.980 37.675,41.988 37.675,38.311 C37.675,34.633 34.683,31.641 31.005,31.641 Z" id="path-8" class="cls-6" fill-rule="evenodd"/>
  </g>
</svg>
