<svg xmlns="http://www.w3.org/2000/svg" xmlns:xlink="http://www.w3.org/1999/xlink" preserveAspectRatio="xMidYMid" width="52" height="67" viewBox="0 0 52 67">
  <defs>
    <style>

      .cls-3 {
        fill: #e56a77;
      }

      .cls-4 {
        fill: #000000;
      }
    </style>
  </defs>
  <g id="group-24svg">
    <path d="M44.251,6.000 C44.251,6.000 17.258,6.000 17.258,6.000 C12.073,6.000 7.000,10.369 7.000,15.554 C7.000,15.554 7.000,66.165 7.000,66.165 C7.000,66.165 18.659,52.000 18.659,52.000 C18.659,52.000 44.251,52.000 44.251,52.000 C49.436,52.000 52.000,47.732 52.000,42.546 C52.000,42.546 52.000,15.554 52.000,15.554 C52.000,10.369 49.436,6.000 44.251,6.000 Z" id="path-1" class="cls-3" fill-rule="evenodd"/>
    <path d="M1.500,63.665 C1.340,63.665 1.178,63.640 1.020,63.586 C0.411,63.381 -0.000,62.808 -0.000,62.165 C-0.000,62.165 -0.000,11.554 -0.000,11.554 C-0.000,5.507 5.366,-0.000 11.258,-0.000 C11.258,-0.000 38.251,-0.000 38.251,-0.000 C44.583,-0.000 48.000,5.953 48.000,11.554 C48.000,11.554 48.000,38.546 48.000,38.546 C48.000,44.799 44.082,49.000 38.251,49.000 C38.251,49.000 13.403,49.000 13.403,49.000 C13.403,49.000 2.694,63.073 2.694,63.073 C2.404,63.454 1.959,63.665 1.500,63.665 ZM11.258,3.000 C7.013,3.000 3.000,7.157 3.000,11.554 C3.000,11.554 3.000,57.717 3.000,57.717 C3.000,57.717 11.465,46.592 11.465,46.592 C11.749,46.219 12.191,46.000 12.659,46.000 C12.659,46.000 38.251,46.000 38.251,46.000 C42.414,46.000 45.000,43.144 45.000,38.546 C45.000,38.546 45.000,11.554 45.000,11.554 C45.000,7.303 42.682,3.000 38.251,3.000 C38.251,3.000 11.258,3.000 11.258,3.000 Z" id="path-2" class="cls-4" fill-rule="evenodd"/>
    <path d="M22.462,37.812 C22.462,37.812 22.463,37.812 22.463,37.812 C23.580,37.812 24.376,36.596 24.044,35.530 C24.044,35.530 23.293,33.056 23.293,33.056 C23.293,33.056 23.825,32.391 23.825,31.954 C23.825,31.210 23.221,30.533 22.477,30.533 C21.733,30.533 21.129,31.099 21.129,31.843 C21.129,32.271 21.614,33.017 21.614,33.017 C21.614,33.017 20.879,35.538 20.879,35.538 C20.552,36.603 21.348,37.812 22.462,37.812 Z" id="path-3" class="cls-4" fill-rule="evenodd"/>
    <path d="M28.758,42.000 C28.758,42.000 17.008,42.000 17.008,42.000 C15.124,42.000 14.000,40.831 14.000,38.875 C14.000,38.875 14.000,26.000 14.000,26.000 C14.000,26.000 32.000,26.000 32.000,26.000 C32.000,26.000 32.000,38.875 32.000,38.875 C32.000,40.773 30.727,42.000 28.758,42.000 ZM17.003,39.000 C17.005,39.000 17.006,39.000 17.008,39.000 C17.008,39.000 28.758,39.000 28.758,39.000 C28.868,39.000 28.944,38.991 28.995,38.982 C28.998,38.954 29.000,38.919 29.000,38.875 C29.000,38.875 29.000,29.000 29.000,29.000 C29.000,29.000 17.000,29.000 17.000,29.000 C17.000,29.000 17.000,38.875 17.000,38.875 C17.000,38.922 17.001,38.964 17.003,39.000 Z" id="path-4" class="cls-4" fill-rule="evenodd"/>
    <path d="M30.500,28.485 C29.671,28.485 29.000,27.829 29.000,27.000 C29.000,23.622 26.452,21.000 23.199,21.000 C19.932,21.000 16.000,23.663 16.000,26.970 C16.000,27.798 15.329,28.485 14.500,28.485 C13.671,28.485 13.000,27.829 13.000,27.000 C13.000,27.000 13.000,26.970 13.000,26.970 C13.000,21.836 18.379,18.000 23.188,18.000 C28.134,18.000 32.000,21.940 32.000,26.970 C32.000,27.798 31.329,28.485 30.500,28.485 Z" id="path-5" class="cls-4" fill-rule="evenodd"/>
  </g>
</svg>
