<svg xmlns="http://www.w3.org/2000/svg" xmlns:xlink="http://www.w3.org/1999/xlink" preserveAspectRatio="xMidYMid" width="68" height="50" viewBox="0 0 68 50">
  <defs>
    <style>

      .cls-3 {
        fill: #81bda4;
      }

      .cls-4 {
        fill: #ffffff;
      }

      .cls-5 {
        fill: #000000;
      }

      .cls-7 {
        fill: #99746a;
      }
    </style>
  </defs>
  <g id="group-61svg">
    <path d="M60.343,10.682 C64.836,10.682 68.000,14.324 68.000,18.817 C68.000,18.817 68.000,42.207 68.000,42.207 C68.000,46.700 65.314,50.031 60.821,50.031 C60.821,50.031 17.093,50.031 17.093,50.031 C12.600,50.031 8.000,46.700 8.000,42.207 C8.000,42.207 8.000,18.817 8.000,18.817 C8.000,14.324 11.882,10.682 16.375,10.682 C16.375,10.682 16.375,10.682 16.375,10.682 " id="path-1" class="cls-3" fill-rule="evenodd"/>
    <path d="M67.939,15.767 C67.939,15.767 42.982,30.982 42.982,30.982 C40.509,32.396 37.476,32.414 34.987,31.027 C34.987,31.027 10.482,15.767 10.482,15.767 C10.482,15.767 10.482,15.767 10.482,15.767 " id="path-2" class="cls-4" fill-rule="evenodd"/>
    <path d="M53.821,49.031 C53.821,49.031 10.093,49.031 10.093,49.031 C4.339,49.031 -0.000,45.237 -0.000,40.207 C-0.000,40.207 -0.000,16.817 -0.000,16.817 C-0.000,11.504 4.374,7.182 9.750,7.182 C10.578,7.182 11.250,7.853 11.250,8.682 C11.250,9.510 10.578,10.182 9.750,10.182 C6.028,10.182 3.000,13.158 3.000,16.817 C3.000,16.817 3.000,40.207 3.000,40.207 C3.000,43.990 6.654,46.031 10.093,46.031 C10.093,46.031 53.821,46.031 53.821,46.031 C57.575,46.031 60.000,43.745 60.000,40.207 C60.000,40.207 60.000,16.817 60.000,16.817 C60.000,13.096 57.186,10.182 53.593,10.182 C52.765,10.182 52.093,9.510 52.093,8.682 C52.093,7.853 52.765,7.182 53.593,7.182 C58.868,7.182 63.000,11.414 63.000,16.817 C63.000,16.817 63.000,40.207 63.000,40.207 C63.000,45.402 59.226,49.031 53.821,49.031 Z" id="path-3" class="cls-5" fill-rule="evenodd"/>
    <path d="M31.925,31.543 C30.308,31.543 28.698,31.141 27.258,30.338 C27.258,30.338 2.689,15.039 2.689,15.039 C1.986,14.602 1.771,13.676 2.209,12.973 C2.648,12.268 3.573,12.057 4.275,12.493 C4.275,12.493 28.780,27.754 28.780,27.754 C30.735,28.840 33.233,28.825 35.238,27.681 C35.238,27.681 59.135,12.500 59.135,12.500 C59.836,12.056 60.761,12.262 61.206,12.962 C61.649,13.661 61.443,14.588 60.744,15.032 C60.744,15.032 36.787,30.249 36.787,30.249 C35.276,31.112 33.597,31.543 31.925,31.543 Z" id="path-4" class="cls-5" fill-rule="evenodd"/>
    <path d="M45.255,11.923 C45.255,17.135 41.030,21.359 35.818,21.359 C30.607,21.359 26.382,17.135 26.382,11.923 C26.382,6.711 30.607,2.486 35.818,2.486 C41.030,2.486 45.255,6.711 45.255,11.923 Z" id="path-5" class="cls-7" fill-rule="evenodd"/>
    <path d="M31.818,21.859 C25.788,21.859 20.882,16.953 20.882,10.923 C20.882,4.892 25.788,-0.014 31.818,-0.014 C37.849,-0.014 42.755,4.892 42.755,10.923 C42.755,16.953 37.849,21.859 31.818,21.859 ZM31.818,2.986 C27.442,2.986 23.882,6.547 23.882,10.923 C23.882,15.299 27.442,18.859 31.818,18.859 C36.194,18.859 39.755,15.299 39.755,10.923 C39.755,6.547 36.194,2.986 31.818,2.986 Z" id="path-6" class="cls-5" fill-rule="evenodd"/>
    <path d="M24.633,18.534 C24.173,18.534 23.719,18.323 23.425,17.924 C22.933,17.257 23.074,16.318 23.741,15.827 C23.741,15.827 38.884,4.656 38.884,4.656 C39.552,4.164 40.490,4.306 40.981,4.972 C41.474,5.639 41.332,6.578 40.665,7.070 C40.665,7.070 25.522,18.241 25.522,18.241 C25.254,18.438 24.942,18.534 24.633,18.534 Z" id="path-7" class="cls-5" fill-rule="evenodd"/>
  </g>
</svg>
