<svg xmlns="http://www.w3.org/2000/svg" xmlns:xlink="http://www.w3.org/1999/xlink" preserveAspectRatio="xMidYMid" width="66" height="65" viewBox="0 0 66 65">
  <defs>
    <style>

      .cls-3 {
        fill: #81bda4;
      }

      .cls-4 {
        fill: #000000;
      }

      .cls-7 {
        fill: #e56a77;
      }

      .cls-9 {
        fill: #edc951;
      }
    </style>
  </defs>
  <g id="group-9svg">
    <path d="M53.507,40.445 C53.507,40.445 47.036,46.916 47.036,46.916 C47.036,46.916 35.441,35.321 35.441,35.321 C35.441,35.321 23.848,23.727 23.848,23.727 C23.848,23.727 30.318,17.256 30.318,17.256 C31.867,15.707 31.867,13.196 30.318,11.647 C30.318,11.647 24.333,5.662 24.333,5.662 C22.790,4.119 20.267,4.119 18.724,5.662 C18.724,5.662 7.813,16.572 7.813,16.572 C4.716,19.670 4.716,24.692 7.813,27.790 C7.813,27.790 25.394,45.370 25.394,45.370 C25.394,45.370 42.200,62.177 42.200,62.177 C45.298,65.274 50.320,65.274 53.418,62.177 C53.418,62.177 64.328,51.266 64.328,51.266 C65.877,49.717 65.877,47.206 64.328,45.657 C64.328,45.657 59.116,40.445 59.116,40.445 C57.567,38.896 55.056,38.896 53.507,40.445 Z" id="path-1" class="cls-3" fill-rule="evenodd"/>
    <path d="M43.810,63.000 C41.290,63.000 38.921,62.019 37.140,60.237 C37.140,60.237 2.753,25.851 2.753,25.851 C-0.925,22.173 -0.925,16.189 2.753,12.511 C2.753,12.511 13.663,1.601 13.663,1.601 C14.692,0.572 16.065,0.005 17.528,0.005 C18.992,0.005 20.364,0.572 21.394,1.601 C21.394,1.601 27.379,7.586 27.379,7.586 C29.510,9.717 29.510,13.185 27.379,15.317 C27.379,15.317 21.969,20.727 21.969,20.727 C21.969,20.727 43.036,41.794 43.036,41.794 C43.036,41.794 48.446,36.384 48.446,36.384 C49.478,35.351 50.851,34.783 52.311,34.783 C53.771,34.783 55.145,35.351 56.177,36.384 C56.177,36.384 61.389,41.597 61.389,41.597 C62.422,42.629 62.990,44.001 62.990,45.462 C62.990,46.922 62.422,48.295 61.389,49.328 C61.389,49.328 50.478,60.237 50.478,60.237 C48.697,62.019 46.328,63.000 43.810,63.000 ZM17.528,3.005 C16.866,3.005 16.247,3.260 15.784,3.723 C15.784,3.723 4.874,14.632 4.874,14.632 C2.366,17.141 2.366,21.222 4.874,23.730 C4.874,23.730 39.261,58.116 39.261,58.116 C40.476,59.331 42.091,60.000 43.810,60.000 C45.527,60.000 47.143,59.331 48.357,58.116 C48.357,58.116 59.268,47.206 59.268,47.206 C59.733,46.740 59.990,46.121 59.990,45.462 C59.990,44.803 59.733,44.184 59.268,43.718 C59.268,43.718 54.056,38.505 54.056,38.505 C53.124,37.574 51.499,37.574 50.567,38.505 C50.567,38.505 44.097,44.976 44.097,44.976 C43.534,45.539 42.538,45.539 41.976,44.976 C41.976,44.976 18.787,21.788 18.787,21.788 C18.201,21.202 18.201,20.252 18.787,19.666 C18.787,19.666 25.258,13.196 25.258,13.196 C26.219,12.234 26.219,10.669 25.258,9.707 C25.258,9.707 19.272,3.722 19.272,3.722 C18.810,3.260 18.190,3.005 17.528,3.005 Z" id="path-2" class="cls-4" fill-rule="evenodd"/>
    <path d="M56.949,53.145 C56.565,53.145 56.182,52.999 55.889,52.706 C55.889,52.706 45.067,41.885 45.067,41.885 C44.481,41.299 44.481,40.349 45.067,39.764 C45.653,39.178 46.602,39.178 47.188,39.764 C47.188,39.764 58.010,50.585 58.010,50.585 C58.596,51.170 58.596,52.121 58.010,52.706 C57.717,52.999 57.333,53.145 56.949,53.145 Z" id="path-3" class="cls-4" fill-rule="evenodd"/>
    <path d="M22.939,19.135 C22.556,19.135 22.172,18.989 21.879,18.696 C21.879,18.696 10.284,7.101 10.284,7.101 C9.698,6.516 9.698,5.565 10.284,4.980 C10.870,4.394 11.819,4.394 12.405,4.980 C12.405,4.980 24.000,16.575 24.000,16.575 C24.586,17.160 24.586,18.110 24.000,18.696 C23.707,18.989 23.323,19.135 22.939,19.135 Z" id="path-4" class="cls-4" fill-rule="evenodd"/>
    <path d="M43.442,33.403 C43.442,28.092 47.747,23.787 53.059,23.787 C58.369,23.787 62.674,28.092 62.674,33.403 C62.674,33.403 62.674,33.403 62.674,33.403 " id="path-5" class="cls-7" fill-rule="evenodd"/>
    <path d="M59.674,33.903 C58.846,33.903 58.174,33.231 58.174,32.403 C58.174,27.928 54.533,24.287 50.059,24.287 C45.583,24.287 41.942,27.928 41.942,32.403 C41.942,33.231 41.270,33.903 40.442,33.903 C39.614,33.903 38.942,33.231 38.942,32.403 C38.942,26.273 43.929,21.287 50.059,21.287 C56.187,21.287 61.174,26.273 61.174,32.403 C61.174,33.231 60.502,33.903 59.674,33.903 Z" id="path-6" class="cls-4" fill-rule="evenodd"/>
    <path d="M58.315,17.795 C58.315,20.698 55.962,23.052 53.059,23.052 C50.155,23.052 47.802,20.698 47.802,17.795 C47.802,14.892 50.155,12.538 53.059,12.538 C55.962,12.538 58.315,14.892 58.315,17.795 Z" id="path-7" class="cls-9" fill-rule="evenodd"/>
    <path d="M50.059,23.552 C46.333,23.552 43.302,20.520 43.302,16.795 C43.302,13.069 46.333,10.038 50.059,10.038 C53.784,10.038 56.815,13.069 56.815,16.795 C56.815,20.520 53.784,23.552 50.059,23.552 ZM50.059,13.038 C47.987,13.038 46.302,14.724 46.302,16.795 C46.302,18.866 47.987,20.552 50.059,20.552 C52.130,20.552 53.815,18.866 53.815,16.795 C53.815,14.724 52.130,13.038 50.059,13.038 Z" id="path-8" class="cls-4" fill-rule="evenodd"/>
  </g>
</svg>
