<svg xmlns="http://www.w3.org/2000/svg" xmlns:xlink="http://www.w3.org/1999/xlink" preserveAspectRatio="xMidYMid" width="52" height="67" viewBox="0 0 52 67">
  <defs>
    <style>

      .cls-3 {
        fill: #e56a77;
      }

      .cls-4 {
        fill: #000000;
      }
    </style>
  </defs>
  <g id="group-38svg">
    <path d="M44.128,6.000 C44.128,6.000 17.135,6.000 17.135,6.000 C11.949,6.000 7.000,10.369 7.000,15.554 C7.000,15.554 7.000,66.165 7.000,66.165 C7.000,66.165 18.535,52.000 18.535,52.000 C18.535,52.000 44.128,52.000 44.128,52.000 C49.312,52.000 52.000,47.732 52.000,42.546 C52.000,42.546 52.000,15.554 52.000,15.554 C52.000,10.369 49.312,6.000 44.128,6.000 Z" id="path-1" class="cls-3" fill-rule="evenodd"/>
    <path d="M1.500,63.665 C1.341,63.665 1.181,63.640 1.024,63.588 C0.412,63.383 -0.000,62.810 -0.000,62.165 C-0.000,62.165 -0.000,11.554 -0.000,11.554 C-0.000,5.399 5.203,-0.000 11.135,-0.000 C11.135,-0.000 38.128,-0.000 38.128,-0.000 C44.540,-0.000 48.000,5.953 48.000,11.554 C48.000,11.554 48.000,38.546 48.000,38.546 C48.000,44.701 43.940,49.000 38.128,49.000 C38.128,49.000 13.283,49.000 13.283,49.000 C13.283,49.000 2.698,63.067 2.698,63.067 C2.410,63.451 1.962,63.665 1.500,63.665 ZM11.135,3.000 C6.877,3.000 3.000,7.077 3.000,11.554 C3.000,11.554 3.000,57.677 3.000,57.677 C3.000,57.677 11.337,46.598 11.337,46.598 C11.620,46.222 12.063,46.000 12.535,46.000 C12.535,46.000 38.128,46.000 38.128,46.000 C42.303,46.000 45.000,43.074 45.000,38.546 C45.000,38.546 45.000,11.554 45.000,11.554 C45.000,7.407 42.592,3.000 38.128,3.000 C38.128,3.000 11.135,3.000 11.135,3.000 Z" id="path-2" class="cls-4" fill-rule="evenodd"/>
    <path d="M15.643,26.504 C14.897,26.504 14.251,25.948 14.157,25.189 C14.055,24.367 14.639,23.618 15.460,23.516 C15.460,23.516 24.967,22.332 24.967,22.332 C25.802,22.230 26.539,22.814 26.641,23.636 C26.743,24.458 26.159,25.207 25.338,25.310 C25.338,25.310 15.831,26.492 15.831,26.492 C15.768,26.500 15.705,26.504 15.643,26.504 Z" id="path-3" class="cls-4" fill-rule="evenodd"/>
    <path d="M19.630,26.008 C18.884,26.008 18.237,25.452 18.143,24.693 C18.143,24.693 17.915,22.853 17.915,22.853 C17.812,22.031 18.396,21.282 19.218,21.180 C19.218,21.180 20.751,20.989 20.751,20.989 C21.584,20.884 22.322,21.469 22.425,22.291 C22.425,22.291 22.654,24.132 22.654,24.132 C22.704,24.527 22.594,24.925 22.350,25.239 C22.105,25.553 21.746,25.757 21.351,25.806 C21.351,25.806 19.816,25.997 19.816,25.997 C19.754,26.004 19.691,26.008 19.630,26.008 Z" id="path-4" class="cls-4" fill-rule="evenodd"/>
    <path d="M21.872,40.000 C21.872,40.000 18.691,40.000 18.691,40.000 C16.169,40.000 14.020,37.772 13.998,35.136 C13.998,35.136 13.944,28.512 13.944,28.512 C13.941,28.112 14.098,27.727 14.379,27.444 C14.661,27.160 15.044,27.000 15.444,27.000 C15.444,27.000 25.124,27.000 25.124,27.000 C25.524,27.000 25.907,27.160 26.189,27.444 C26.471,27.728 26.628,28.113 26.624,28.513 C26.624,28.513 26.565,35.139 26.565,35.139 C26.542,37.774 24.393,40.000 21.872,40.000 ZM16.957,30.000 C16.957,30.000 16.998,35.111 16.998,35.111 C17.006,36.100 17.813,37.000 18.691,37.000 C18.691,37.000 21.872,37.000 21.872,37.000 C22.750,37.000 23.557,36.100 23.565,35.112 C23.565,35.112 23.610,30.000 23.610,30.000 C23.610,30.000 16.957,30.000 16.957,30.000 Z" id="path-5" class="cls-4" fill-rule="evenodd"/>
  </g>
</svg>
