<svg xmlns="http://www.w3.org/2000/svg" xmlns:xlink="http://www.w3.org/1999/xlink" preserveAspectRatio="xMidYMid" width="52" height="67" viewBox="0 0 52 67">
  <defs>
    <style>

      .cls-3 {
        fill: #e56a77;
      }

      .cls-4 {
        fill: #000000;
      }
    </style>
  </defs>
  <g id="group-26svg">
    <path d="M43.868,6.000 C43.868,6.000 16.875,6.000 16.875,6.000 C11.690,6.000 7.000,10.369 7.000,15.554 C7.000,15.554 7.000,66.165 7.000,66.165 C7.000,66.165 18.276,52.000 18.276,52.000 C18.276,52.000 43.868,52.000 43.868,52.000 C49.053,52.000 52.000,47.732 52.000,42.546 C52.000,42.546 52.000,15.554 52.000,15.554 C52.000,10.369 49.053,6.000 43.868,6.000 Z" id="path-1" class="cls-3" fill-rule="evenodd"/>
    <path d="M1.500,63.665 C1.344,63.665 1.186,63.641 1.033,63.590 C0.416,63.388 -0.000,62.813 -0.000,62.165 C-0.000,62.165 -0.000,11.554 -0.000,11.554 C-0.000,5.399 5.082,-0.000 10.875,-0.000 C10.875,-0.000 37.868,-0.000 37.868,-0.000 C44.210,-0.000 48.000,5.874 48.000,11.554 C48.000,11.554 48.000,38.546 48.000,38.546 C48.000,44.701 43.833,49.000 37.868,49.000 C37.868,49.000 13.035,49.000 13.035,49.000 C13.035,49.000 2.709,63.053 2.709,63.053 C2.421,63.445 1.968,63.665 1.500,63.665 ZM10.875,3.000 C6.680,3.000 3.000,6.997 3.000,11.554 C3.000,11.554 3.000,57.590 3.000,57.590 C3.000,57.590 11.067,46.612 11.067,46.612 C11.350,46.227 11.798,46.000 12.276,46.000 C12.276,46.000 37.868,46.000 37.868,46.000 C42.134,46.000 45.000,43.004 45.000,38.546 C45.000,38.546 45.000,11.554 45.000,11.554 C45.000,7.349 42.333,3.000 37.868,3.000 C37.868,3.000 10.875,3.000 10.875,3.000 Z" id="path-2" class="cls-4" fill-rule="evenodd"/>
    <path d="M20.615,37.276 C20.580,37.277 20.541,37.275 20.505,37.273 C20.472,37.275 20.437,37.276 20.404,37.276 C20.001,37.276 18.778,37.276 15.382,33.061 C13.841,31.148 12.005,28.495 12.005,26.713 C12.005,23.467 14.646,20.827 17.892,20.827 C18.978,20.827 19.837,21.470 20.505,22.073 C21.172,21.470 22.031,20.827 23.118,20.827 C26.364,20.827 29.005,23.467 29.005,26.713 C29.005,28.495 27.168,31.148 25.627,33.061 C22.259,37.243 21.027,37.276 20.615,37.276 ZM17.842,23.822 C16.300,23.827 15.005,25.122 15.005,26.713 C15.037,28.026 18.872,32.947 20.505,34.158 C22.138,32.947 25.973,28.025 26.005,26.712 C26.005,25.122 24.710,23.827 23.118,23.827 C22.958,23.878 22.462,24.345 22.196,24.596 C21.917,24.860 21.649,25.107 21.400,25.292 C20.869,25.687 20.141,25.687 19.609,25.292 C19.361,25.107 19.093,24.860 18.813,24.596 C18.547,24.345 18.052,23.878 17.842,23.822 Z" id="path-3" class="cls-4" fill-rule="evenodd"/>
  </g>
</svg>
