<svg xmlns="http://www.w3.org/2000/svg" xmlns:xlink="http://www.w3.org/1999/xlink" preserveAspectRatio="xMidYMid" width="66" height="64" viewBox="0 0 66 64">
  <defs>
    <style>

      .cls-3 {
        fill: #81bda4;
      }

      .cls-4 {
        fill: #000000;
      }
    </style>
  </defs>
  <g id="group-2svg">
    <path d="M53.915,38.746 C53.915,38.746 47.390,45.271 47.390,45.271 C47.390,45.271 35.697,33.579 35.697,33.579 C35.697,33.579 24.004,21.886 24.004,21.886 C24.004,21.886 30.530,15.360 30.530,15.360 C32.092,13.798 32.092,11.265 30.530,9.703 C30.530,9.703 24.494,3.667 24.494,3.667 C22.938,2.111 20.393,2.111 18.837,3.667 C18.837,3.667 7.834,14.670 7.834,14.670 C4.710,17.794 4.710,22.859 7.834,25.983 C7.834,25.983 25.563,43.712 25.563,43.712 C25.563,43.712 42.512,60.661 42.512,60.661 C45.637,63.786 50.702,63.786 53.826,60.661 C53.826,60.661 64.829,49.659 64.829,49.659 C66.391,48.097 66.391,45.564 64.829,44.002 C64.829,44.002 59.572,38.746 59.572,38.746 C58.010,37.183 55.478,37.183 53.915,38.746 Z" id="path-1" class="cls-3" fill-rule="evenodd"/>
    <path d="M44.169,63.504 C41.632,63.504 39.246,62.516 37.452,60.722 C37.452,60.722 2.774,26.044 2.774,26.044 C0.979,24.250 -0.008,21.864 -0.008,19.327 C-0.008,16.789 0.979,14.403 2.774,12.609 C2.774,12.609 13.777,1.606 13.777,1.606 C14.812,0.571 16.193,0.000 17.666,0.000 C19.138,0.000 20.519,0.571 21.555,1.606 C21.555,1.606 27.590,7.642 27.590,7.642 C29.735,9.787 29.735,13.276 27.590,15.420 C27.590,15.420 22.125,20.886 22.125,20.886 C22.125,20.886 43.390,42.150 43.390,42.150 C43.390,42.150 48.855,36.685 48.855,36.685 C49.893,35.646 51.275,35.074 52.744,35.074 C54.213,35.074 55.594,35.646 56.633,36.685 C56.633,36.685 61.889,41.941 61.889,41.941 C62.928,42.980 63.500,44.361 63.500,45.830 C63.500,47.299 62.928,48.681 61.889,49.719 C61.889,49.719 50.887,60.722 50.887,60.722 C49.092,62.516 46.706,63.504 44.169,63.504 ZM17.666,3.000 C16.995,3.000 16.367,3.258 15.898,3.727 C15.898,3.727 4.895,14.730 4.895,14.730 C2.361,17.265 2.361,21.389 4.895,23.923 C4.895,23.923 39.573,58.600 39.573,58.600 C40.801,59.828 42.433,60.504 44.169,60.504 C45.905,60.504 47.538,59.828 48.766,58.600 C48.766,58.600 59.768,47.598 59.768,47.598 C60.743,46.624 60.743,45.037 59.768,44.062 C59.768,44.062 54.512,38.806 54.512,38.806 C53.567,37.861 51.919,37.862 50.977,38.806 C50.977,38.806 44.450,45.331 44.450,45.331 C43.864,45.917 42.915,45.917 42.329,45.331 C42.329,45.331 18.943,21.946 18.943,21.946 C18.662,21.665 18.504,21.284 18.504,20.886 C18.504,20.488 18.662,20.106 18.943,19.825 C18.943,19.825 25.469,13.299 25.469,13.299 C26.444,12.325 26.444,10.738 25.469,9.764 C25.469,9.764 19.434,3.727 19.434,3.727 C18.964,3.259 18.336,3.000 17.666,3.000 Z" id="path-2" class="cls-4" fill-rule="evenodd"/>
    <path d="M57.421,53.566 C57.037,53.566 56.653,53.420 56.360,53.127 C56.360,53.127 45.447,42.214 45.447,42.214 C44.861,41.628 44.861,40.678 45.447,40.093 C46.033,39.507 46.982,39.507 47.568,40.093 C47.568,40.093 58.481,51.006 58.481,51.006 C59.067,51.591 59.067,52.541 58.481,53.127 C58.188,53.420 57.805,53.566 57.421,53.566 Z" id="path-3" class="cls-4" fill-rule="evenodd"/>
    <path d="M23.122,19.268 C22.738,19.268 22.354,19.121 22.062,18.828 C22.062,18.828 10.369,7.135 10.369,7.135 C9.783,6.550 9.783,5.600 10.369,5.014 C10.955,4.428 11.904,4.428 12.490,5.014 C12.490,5.014 24.183,16.707 24.183,16.707 C24.768,17.292 24.768,18.243 24.183,18.828 C23.890,19.121 23.506,19.268 23.122,19.268 Z" id="path-4" class="cls-4" fill-rule="evenodd"/>
  </g>
</svg>
