<svg xmlns="http://www.w3.org/2000/svg" xmlns:xlink="http://www.w3.org/1999/xlink" preserveAspectRatio="xMidYMid" width="62" height="63" viewBox="0 0 62 63">
  <defs>
    <style>

      .cls-3 {
        fill: #8b71b5;
      }

      .cls-4 {
        fill: #edc951;
      }

      .cls-5 {
        fill: #000000;
      }
    </style>
  </defs>
  <g id="group-65svg">
    <path d="M6.490,62.501 C6.490,47.229 18.870,34.849 34.142,34.849 C49.414,34.849 61.794,47.229 61.794,62.501 C61.794,62.501 61.794,62.501 61.794,62.501 " id="path-1" class="cls-3" fill-rule="evenodd"/>
    <path d="M49.035,18.618 C49.035,26.967 42.267,33.734 33.918,33.734 C25.569,33.734 18.801,26.967 18.801,18.618 C18.801,10.269 25.569,3.501 33.918,3.501 C42.267,3.501 49.035,10.269 49.035,18.618 Z" id="path-2" class="cls-4" fill-rule="evenodd"/>
    <path d="M32.937,54.219 C32.937,54.219 23.937,54.219 23.937,54.219 C23.109,54.219 22.437,53.547 22.437,52.719 C22.437,51.891 23.109,51.219 23.937,51.219 C23.937,51.219 32.937,51.219 32.937,51.219 C33.766,51.219 34.437,51.891 34.437,52.719 C34.437,53.547 33.766,54.219 32.937,54.219 Z" id="path-3" class="cls-5" fill-rule="evenodd"/>
    <path d="M56.794,62.001 C55.966,62.001 55.294,61.329 55.294,60.501 C55.294,46.080 43.562,34.349 29.142,34.349 C14.722,34.349 2.990,46.080 2.990,60.501 C2.990,61.329 2.318,62.001 1.490,62.001 C0.661,62.001 -0.010,61.329 -0.010,60.501 C-0.010,44.426 13.067,31.349 29.142,31.349 C45.217,31.349 58.294,44.426 58.294,60.501 C58.294,61.329 57.623,62.001 56.794,62.001 Z" id="path-4" class="cls-5" fill-rule="evenodd"/>
    <path d="M28.918,33.234 C19.755,33.234 12.301,25.780 12.301,16.617 C12.301,7.455 19.755,0.001 28.918,0.001 C38.081,0.001 45.535,7.455 45.535,16.617 C45.535,25.780 38.081,33.234 28.918,33.234 ZM28.918,3.001 C21.410,3.001 15.301,9.109 15.301,16.617 C15.301,24.126 21.410,30.234 28.918,30.234 C36.426,30.234 42.535,24.126 42.535,16.617 C42.535,9.109 36.426,3.001 28.918,3.001 Z" id="path-5" class="cls-5" fill-rule="evenodd"/>
  </g>
</svg>
