<svg xmlns="http://www.w3.org/2000/svg" xmlns:xlink="http://www.w3.org/1999/xlink" preserveAspectRatio="xMidYMid" width="66" height="65" viewBox="0 0 66 65">
  <defs>
    <style>

      .cls-3 {
        fill: #000000;
      }

      .cls-6 {
        fill: #53ecf4;
      }
    </style>
  </defs>
  <g id="group-5svg">
    <path d="M52.192,22.825 C51.808,22.825 51.424,22.678 51.131,22.385 C51.131,22.385 39.438,10.692 39.438,10.692 C38.853,10.107 38.853,9.157 39.438,8.571 C40.024,7.985 40.974,7.985 41.560,8.571 C41.560,8.571 53.252,20.264 53.252,20.264 C53.838,20.850 53.838,21.800 53.252,22.385 C52.959,22.678 52.576,22.825 52.192,22.825 Z" id="path-1" class="cls-3" fill-rule="evenodd"/>
    <path d="M52.192,22.825 C51.808,22.825 51.424,22.678 51.131,22.385 C51.131,22.385 39.438,10.692 39.438,10.692 C38.853,10.107 38.853,9.157 39.438,8.571 C40.024,7.985 40.974,7.985 41.560,8.571 C41.560,8.571 53.252,20.264 53.252,20.264 C53.838,20.850 53.838,21.800 53.252,22.385 C52.959,22.678 52.576,22.825 52.192,22.825 Z" id="path-2" class="cls-3" fill-rule="evenodd"/>
    <path d="M40.499,22.825 C40.115,22.825 39.731,22.678 39.438,22.385 C38.853,21.800 38.853,20.850 39.438,20.264 C39.438,20.264 51.131,8.571 51.131,8.571 C51.717,7.985 52.666,7.985 53.252,8.571 C53.838,9.157 53.838,10.107 53.252,10.692 C53.252,10.692 41.560,22.385 41.560,22.385 C41.267,22.678 40.883,22.825 40.499,22.825 Z" id="path-3" class="cls-3" fill-rule="evenodd"/>
    <path d="M53.910,40.732 C53.910,40.732 47.384,47.258 47.384,47.258 C47.384,47.258 35.691,35.565 35.691,35.565 C35.691,35.565 23.998,23.872 23.998,23.872 C23.998,23.872 30.524,17.347 30.524,17.347 C32.086,15.785 32.086,13.252 30.524,11.690 C30.524,11.690 24.488,5.654 24.488,5.654 C22.933,4.099 20.387,4.099 18.832,5.654 C18.832,5.654 7.829,16.657 7.829,16.657 C4.705,19.781 4.705,24.846 7.829,27.970 C7.829,27.970 25.558,45.699 25.558,45.699 C25.558,45.699 42.507,62.648 42.507,62.648 C45.631,65.772 50.696,65.772 53.820,62.648 C53.820,62.648 64.823,51.645 64.823,51.645 C66.385,50.083 66.385,47.551 64.823,45.989 C64.823,45.989 59.567,40.732 59.567,40.732 C58.005,39.170 55.472,39.170 53.910,40.732 Z" id="path-4" class="cls-6" fill-rule="evenodd"/>
    <path d="M44.164,63.492 C41.626,63.492 39.240,62.503 37.446,60.709 C37.446,60.709 2.769,26.031 2.769,26.031 C0.974,24.237 -0.014,21.851 -0.014,19.313 C-0.014,16.776 0.974,14.390 2.769,12.596 C2.769,12.596 13.771,1.593 13.771,1.593 C14.807,0.558 16.188,-0.013 17.660,-0.013 C19.132,-0.013 20.513,0.558 21.549,1.593 C21.549,1.593 27.585,7.629 27.585,7.629 C29.729,9.774 29.729,13.263 27.585,15.407 C27.585,15.407 22.120,20.872 22.120,20.872 C22.120,20.872 43.384,42.137 43.384,42.137 C43.384,42.137 48.850,36.672 48.850,36.672 C49.888,35.633 51.270,35.061 52.738,35.061 C54.207,35.061 55.589,35.633 56.627,36.672 C56.627,36.672 61.884,41.928 61.884,41.928 C62.923,42.967 63.495,44.348 63.495,45.817 C63.495,47.286 62.923,48.667 61.884,49.706 C61.884,49.706 50.881,60.709 50.881,60.709 C49.087,62.503 46.701,63.492 44.164,63.492 ZM17.660,2.987 C16.989,2.987 16.361,3.246 15.892,3.715 C15.892,3.715 4.890,14.717 4.890,14.717 C3.662,15.945 2.986,17.577 2.986,19.313 C2.986,21.050 3.662,22.682 4.890,23.910 C4.890,23.910 39.567,58.588 39.567,58.588 C40.795,59.815 42.427,60.492 44.164,60.492 C45.900,60.492 47.532,59.815 48.760,58.588 C48.760,58.588 59.763,47.585 59.763,47.585 C60.737,46.610 60.737,45.024 59.763,44.049 C59.763,44.049 54.506,38.793 54.506,38.793 C53.562,37.849 51.916,37.849 50.971,38.793 C50.971,38.793 44.445,45.319 44.445,45.319 C43.882,45.881 42.886,45.881 42.324,45.319 C42.324,45.319 18.938,21.933 18.938,21.933 C18.657,21.652 18.499,21.270 18.499,20.872 C18.499,20.475 18.657,20.093 18.938,19.812 C18.938,19.812 25.464,13.286 25.464,13.286 C25.936,12.814 26.196,12.186 26.196,11.518 C26.196,10.851 25.936,10.223 25.464,9.750 C25.464,9.750 19.428,3.714 19.428,3.714 C18.958,3.246 18.331,2.987 17.660,2.987 Z" id="path-5" class="cls-3" fill-rule="evenodd"/>
    <path d="M57.415,53.553 C57.032,53.553 56.648,53.407 56.355,53.114 C56.355,53.114 45.442,42.201 45.442,42.201 C44.856,41.615 44.856,40.665 45.442,40.080 C46.028,39.494 46.977,39.494 47.563,40.080 C47.563,40.080 58.476,50.993 58.476,50.993 C59.062,51.578 59.062,52.528 58.476,53.114 C58.183,53.407 57.799,53.553 57.415,53.553 Z" id="path-6" class="cls-3" fill-rule="evenodd"/>
    <path d="M23.117,19.254 C22.733,19.254 22.349,19.108 22.056,18.815 C22.056,18.815 10.363,7.122 10.363,7.122 C9.777,6.537 9.777,5.587 10.363,5.001 C10.949,4.415 11.898,4.415 12.484,5.001 C12.484,5.001 24.177,16.694 24.177,16.694 C24.763,17.279 24.763,18.229 24.177,18.815 C23.884,19.108 23.500,19.254 23.117,19.254 Z" id="path-7" class="cls-3" fill-rule="evenodd"/>
  </g>
</svg>
