<svg xmlns="http://www.w3.org/2000/svg" xmlns:xlink="http://www.w3.org/1999/xlink" preserveAspectRatio="xMidYMid" width="52" height="67" viewBox="0 0 52 67">
  <defs>
    <style>

      .cls-3 {
        fill: #e56a77;
      }

      .cls-4 {
        fill: #000000;
      }
    </style>
  </defs>
  <g id="group-29svg">
    <path d="M44.251,6.000 C44.251,6.000 17.259,6.000 17.259,6.000 C12.073,6.000 7.000,10.369 7.000,15.554 C7.000,15.554 7.000,66.165 7.000,66.165 C7.000,66.165 18.659,52.000 18.659,52.000 C18.659,52.000 44.251,52.000 44.251,52.000 C49.437,52.000 52.000,47.732 52.000,42.546 C52.000,42.546 52.000,15.554 52.000,15.554 C52.000,10.369 49.437,6.000 44.251,6.000 Z" id="path-1" class="cls-3" fill-rule="evenodd"/>
    <path d="M1.500,63.665 C1.340,63.665 1.178,63.640 1.020,63.586 C0.411,63.381 -0.000,62.808 -0.000,62.165 C-0.000,62.165 -0.000,11.554 -0.000,11.554 C-0.000,5.507 5.366,-0.000 11.259,-0.000 C11.259,-0.000 38.251,-0.000 38.251,-0.000 C44.583,-0.000 48.000,5.953 48.000,11.554 C48.000,11.554 48.000,38.546 48.000,38.546 C48.000,44.799 44.082,49.000 38.251,49.000 C38.251,49.000 13.402,49.000 13.402,49.000 C13.402,49.000 2.693,63.073 2.693,63.073 C2.404,63.454 1.959,63.665 1.500,63.665 ZM11.259,3.000 C7.014,3.000 3.000,7.157 3.000,11.554 C3.000,11.554 3.000,57.717 3.000,57.717 C3.000,57.717 11.466,46.592 11.466,46.592 C11.749,46.219 12.190,46.000 12.659,46.000 C12.659,46.000 38.251,46.000 38.251,46.000 C42.414,46.000 45.000,43.144 45.000,38.546 C45.000,38.546 45.000,11.554 45.000,11.554 C45.000,7.303 42.682,3.000 38.251,3.000 C38.251,3.000 11.259,3.000 11.259,3.000 Z" id="path-2" class="cls-4" fill-rule="evenodd"/>
    <path d="M24.735,38.244 C24.735,38.244 17.235,38.235 17.235,38.235 C14.341,38.235 11.985,35.880 11.985,32.985 C11.985,30.594 13.593,28.570 15.784,27.939 C16.136,25.383 18.335,23.409 20.985,23.409 C23.640,23.409 25.840,25.389 26.187,27.949 C28.392,28.589 29.985,30.606 29.985,32.990 C29.985,35.887 27.630,38.244 24.735,38.244 ZM17.146,30.732 C15.995,30.735 14.985,31.745 14.985,32.985 C14.985,34.226 15.995,35.235 17.235,35.235 C17.235,35.235 24.735,35.244 24.735,35.244 C25.976,35.244 26.985,34.232 26.985,32.990 C26.985,31.746 25.976,30.735 24.735,30.735 C24.298,30.735 23.856,30.545 23.571,30.212 C23.286,29.880 23.136,29.441 23.203,29.008 C23.221,28.894 23.235,28.778 23.235,28.659 C23.235,27.418 22.226,26.409 20.985,26.409 C19.745,26.409 18.735,27.418 18.735,28.659 C18.735,28.778 18.749,28.894 18.767,29.008 C18.834,29.441 18.708,29.881 18.423,30.214 C18.113,30.575 17.621,30.770 17.146,30.732 Z" id="path-3" class="cls-4" fill-rule="evenodd"/>
  </g>
</svg>
