<svg xmlns="http://www.w3.org/2000/svg" xmlns:xlink="http://www.w3.org/1999/xlink" preserveAspectRatio="xMidYMid" width="69" height="52" viewBox="0 0 69 52">
  <defs>
    <style>

      .cls-3 {
        fill: #81bda4;
      }

      .cls-4 {
        fill: #ffffff;
      }

      .cls-5 {
        fill: #000000;
      }
    </style>
  </defs>
  <g id="group-48svg">
    <path d="M60.592,12.494 C65.085,12.494 68.000,16.136 68.000,20.630 C68.000,20.630 68.000,44.019 68.000,44.019 C68.000,48.513 65.811,51.844 61.318,51.844 C61.318,51.844 17.590,51.844 17.590,51.844 C13.097,51.844 8.000,48.513 8.000,44.019 C8.000,44.019 8.000,20.630 8.000,20.630 C8.000,16.136 12.006,12.494 16.499,12.494 C16.499,12.494 16.499,12.494 16.499,12.494 " id="path-1" class="cls-3" fill-rule="evenodd"/>
    <path d="M68.436,17.579 C68.436,17.579 43.479,32.795 43.479,32.795 C41.006,34.209 37.974,34.226 35.484,32.840 C35.484,32.840 10.979,17.579 10.979,17.579 C10.979,17.579 10.979,17.579 10.979,17.579 " id="path-2" class="cls-4" fill-rule="evenodd"/>
    <path d="M54.318,50.844 C54.318,50.844 10.590,50.844 10.590,50.844 C5.385,50.844 -0.000,47.543 -0.000,42.019 C-0.000,42.019 -0.000,18.630 -0.000,18.630 C-0.000,13.407 4.521,8.994 9.874,8.994 C10.702,8.994 11.374,9.665 11.374,10.494 C11.374,11.323 10.702,11.994 9.874,11.994 C6.147,11.994 3.000,15.033 3.000,18.630 C3.000,18.630 3.000,42.019 3.000,42.019 C3.000,45.617 6.939,47.844 10.590,47.844 C10.590,47.844 54.318,47.844 54.318,47.844 C57.929,47.844 60.000,45.721 60.000,42.019 C60.000,42.019 60.000,18.630 60.000,18.630 C60.000,14.847 57.352,11.994 53.842,11.994 C53.014,11.994 52.342,11.323 52.342,10.494 C52.342,9.665 53.014,8.994 53.842,8.994 C59.062,8.994 63.000,13.137 63.000,18.630 C63.000,18.630 63.000,42.019 63.000,42.019 C63.000,47.380 59.592,50.844 54.318,50.844 Z" id="path-3" class="cls-5" fill-rule="evenodd"/>
    <path d="M32.422,33.355 C30.805,33.355 29.195,32.953 27.755,32.151 C27.755,32.151 3.186,16.852 3.186,16.852 C2.483,16.414 2.268,15.489 2.706,14.786 C3.144,14.081 4.070,13.870 4.772,14.305 C4.772,14.305 29.277,29.567 29.277,29.567 C31.232,30.653 33.730,30.638 35.735,29.493 C35.735,29.493 59.632,14.312 59.632,14.312 C60.332,13.868 61.258,14.075 61.703,14.774 C62.146,15.474 61.940,16.400 61.241,16.845 C61.241,16.845 37.284,32.061 37.284,32.061 C35.773,32.925 34.094,33.355 32.422,33.355 Z" id="path-4" class="cls-5" fill-rule="evenodd"/>
    <path d="M34.326,20.824 C33.938,20.824 33.552,20.675 33.258,20.377 C33.258,20.377 24.557,11.555 24.557,11.555 C23.985,10.975 23.980,10.044 24.546,9.459 C24.546,9.459 33.248,0.455 33.248,0.455 C33.823,-0.139 34.773,-0.156 35.368,0.419 C35.964,0.995 35.980,1.945 35.405,2.540 C35.405,2.540 27.722,10.491 27.722,10.491 C27.722,10.491 35.394,18.271 35.394,18.271 C35.976,18.861 35.970,19.811 35.380,20.392 C35.087,20.680 34.707,20.824 34.326,20.824 Z" id="path-5" class="cls-5" fill-rule="evenodd"/>
    <path d="M27.208,20.824 C26.820,20.824 26.434,20.675 26.140,20.377 C26.140,20.377 17.438,11.555 17.438,11.555 C16.867,10.975 16.862,10.044 17.428,9.459 C17.428,9.459 26.130,0.455 26.130,0.455 C26.705,-0.139 27.655,-0.156 28.250,0.419 C28.846,0.995 28.862,1.945 28.287,2.540 C28.287,2.540 20.603,10.491 20.603,10.491 C20.603,10.491 28.276,18.271 28.276,18.271 C28.857,18.861 28.852,19.811 28.262,20.392 C27.969,20.680 27.589,20.824 27.208,20.824 Z" id="path-6" class="cls-5" fill-rule="evenodd"/>
    <path d="M25.625,11.844 C24.800,11.844 24.129,11.256 24.125,10.430 C24.121,9.601 24.790,8.932 25.618,8.928 C25.618,8.928 45.257,8.844 45.257,8.844 C45.259,8.844 45.262,8.844 45.264,8.844 C46.089,8.844 46.760,9.544 46.764,10.371 C46.768,11.199 46.099,11.811 45.270,11.815 C45.270,11.815 25.632,11.844 25.632,11.844 C25.630,11.844 25.627,11.844 25.625,11.844 Z" id="path-7" class="cls-5" fill-rule="evenodd"/>
  </g>
</svg>
