<svg xmlns="http://www.w3.org/2000/svg" xmlns:xlink="http://www.w3.org/1999/xlink" preserveAspectRatio="xMidYMid" width="66" height="52" viewBox="0 0 66 52">
  <defs>
    <style>

      .cls-3 {
        fill: #edc951;
      }

      .cls-6 {
        fill: #8b71b5;
      }

      .cls-8 {
        fill: #000000;
      }
    </style>
  </defs>
  <g id="group-72svg">
    <path d="M57.030,47.000 C57.030,47.000 65.069,47.000 65.069,47.000 C65.069,39.000 58.936,32.502 51.060,31.650 C54.986,30.857 57.943,27.072 57.943,22.912 C57.943,18.166 53.629,14.000 48.884,14.000 C48.884,14.000 40.625,14.000 40.625,14.000 C40.625,14.000 40.625,47.000 40.625,47.000 C40.625,47.000 57.030,47.000 57.030,47.000 Z" id="path-1" class="cls-3" fill-rule="evenodd"/>
    <path d="M28.766,33.746 C26.421,32.391 23.845,31.519 20.910,31.519 C12.297,31.519 5.485,38.000 5.485,47.000 C5.485,47.000 16.625,47.000 16.625,47.000 C16.625,47.000 16.625,47.000 16.625,47.000 " id="path-2" class="cls-3" fill-rule="evenodd"/>
    <path d="M27.108,16.642 C25.565,15.099 23.434,14.144 21.080,14.144 C16.372,14.144 12.555,17.962 12.555,22.670 C12.555,27.378 16.372,31.195 21.080,31.195 C23.986,31.195 26.552,29.741 28.091,27.522 C28.091,27.522 28.091,27.522 28.091,27.522 " id="path-3" class="cls-3" fill-rule="evenodd"/>
    <path d="M18.932,51.210 C18.932,40.787 27.381,32.338 37.803,32.338 C48.226,32.338 56.675,40.787 56.675,51.210 C56.675,51.210 56.675,51.210 56.675,51.210 " id="path-4" class="cls-6" fill-rule="evenodd"/>
    <path d="M48.120,21.461 C48.120,27.159 43.501,31.777 37.803,31.777 C32.105,31.777 27.487,27.159 27.487,21.461 C27.487,15.764 32.105,11.145 37.803,11.145 C43.501,11.145 48.120,15.764 48.120,21.461 Z" id="path-5" class="cls-3" fill-rule="evenodd"/>
    <path d="M52.675,50.710 C51.846,50.710 51.175,50.039 51.175,49.210 C51.175,39.631 43.382,31.838 33.803,31.838 C24.225,31.838 16.432,39.631 16.432,49.210 C16.432,50.039 15.760,50.710 14.932,50.710 C14.103,50.710 13.432,50.039 13.432,49.210 C13.432,37.976 22.570,28.838 33.803,28.838 C45.036,28.838 54.175,37.976 54.175,49.210 C54.175,50.039 53.503,50.710 52.675,50.710 Z" id="path-6" class="cls-8" fill-rule="evenodd"/>
    <path d="M33.803,31.277 C27.288,31.277 21.987,25.976 21.987,19.461 C21.987,12.945 27.288,7.644 33.803,7.644 C40.319,7.644 45.620,12.945 45.620,19.461 C45.620,25.976 40.319,31.277 33.803,31.277 ZM33.803,10.644 C28.942,10.644 24.987,14.600 24.987,19.461 C24.987,24.322 28.942,28.277 33.803,28.277 C38.664,28.277 42.620,24.322 42.620,19.461 C42.620,14.600 38.664,10.644 33.803,10.644 Z" id="path-7" class="cls-8" fill-rule="evenodd"/>
    <path d="M12.625,46.000 C12.625,46.000 1.485,46.000 1.485,46.000 C0.657,46.000 -0.015,45.328 -0.015,44.500 C-0.015,34.891 7.261,27.644 16.910,27.644 C19.770,27.644 22.505,28.456 25.517,30.197 C26.234,30.612 26.479,31.529 26.064,32.247 C25.650,32.964 24.732,33.209 24.015,32.795 C21.478,31.328 19.221,30.644 16.910,30.644 C9.482,30.644 3.764,35.859 3.059,43.000 C3.059,43.000 12.625,43.000 12.625,43.000 C13.454,43.000 14.125,43.672 14.125,44.500 C14.125,45.328 13.454,46.000 12.625,46.000 Z" id="path-8" class="cls-8" fill-rule="evenodd"/>
    <path d="M17.080,30.695 C11.552,30.695 7.055,26.197 7.055,20.670 C7.055,15.143 11.552,10.644 17.080,10.644 C19.757,10.644 22.275,11.687 24.169,13.580 C24.755,14.166 24.755,15.116 24.169,15.702 C23.583,16.288 22.634,16.287 22.048,15.703 C20.720,14.375 18.956,13.644 17.080,13.644 C13.207,13.644 10.055,16.796 10.055,20.670 C10.055,24.543 13.207,27.695 17.080,27.695 C19.384,27.695 21.544,26.563 22.858,24.668 C23.330,23.986 24.264,23.816 24.945,24.289 C25.626,24.762 25.795,25.695 25.324,26.377 C23.449,29.080 20.367,30.695 17.080,30.695 Z" id="path-9" class="cls-8" fill-rule="evenodd"/>
    <path d="M61.069,46.000 C61.069,46.000 52.625,46.000 52.625,46.000 C51.796,46.000 51.125,45.328 51.125,44.500 C51.125,43.672 51.796,43.000 52.625,43.000 C52.625,43.000 59.488,43.000 59.488,43.000 C58.796,36.615 53.715,31.629 46.898,30.891 C46.163,30.811 45.595,30.207 45.561,29.469 C45.527,28.729 46.038,28.076 46.763,27.930 C50.160,27.244 52.443,24.555 52.443,21.239 C52.443,17.412 48.671,13.795 44.681,13.795 C43.852,13.795 43.181,13.123 43.181,12.295 C43.181,11.466 43.852,10.795 44.681,10.795 C50.313,10.795 55.443,15.773 55.443,21.239 C55.443,24.350 53.993,27.133 51.637,28.941 C58.173,31.360 62.569,37.360 62.569,44.500 C62.569,45.328 61.897,46.000 61.069,46.000 Z" id="path-10" class="cls-8" fill-rule="evenodd"/>
    <path d="M57.625,3.000 C57.625,3.000 48.625,3.000 48.625,3.000 C47.796,3.000 47.125,2.328 47.125,1.500 C47.125,0.672 47.796,-0.000 48.625,-0.000 C48.625,-0.000 57.625,-0.000 57.625,-0.000 C58.454,-0.000 59.125,0.672 59.125,1.500 C59.125,2.328 58.454,3.000 57.625,3.000 Z" id="path-11" class="cls-8" fill-rule="evenodd"/>
  </g>
</svg>
