<svg xmlns="http://www.w3.org/2000/svg" xmlns:xlink="http://www.w3.org/1999/xlink" preserveAspectRatio="xMidYMid" width="52" height="67" viewBox="0 0 52 67">
  <defs>
    <style>

      .cls-3 {
        fill: #e56a77;
      }

      .cls-4 {
        fill: #000000;
      }
    </style>
  </defs>
  <g id="group-30svg">
    <path d="M43.868,6.000 C43.868,6.000 16.875,6.000 16.875,6.000 C11.690,6.000 7.000,10.369 7.000,15.554 C7.000,15.554 7.000,66.165 7.000,66.165 C7.000,66.165 18.276,52.000 18.276,52.000 C18.276,52.000 43.868,52.000 43.868,52.000 C49.053,52.000 52.000,47.732 52.000,42.546 C52.000,42.546 52.000,15.554 52.000,15.554 C52.000,10.369 49.053,6.000 43.868,6.000 Z" id="path-1" class="cls-3" fill-rule="evenodd"/>
    <path d="M1.500,63.665 C1.344,63.665 1.186,63.641 1.032,63.590 C0.417,63.388 -0.000,62.813 -0.000,62.165 C-0.000,62.165 -0.000,11.554 -0.000,11.554 C-0.000,5.399 5.082,-0.000 10.875,-0.000 C10.875,-0.000 37.868,-0.000 37.868,-0.000 C44.210,-0.000 48.000,5.874 48.000,11.554 C48.000,11.554 48.000,38.546 48.000,38.546 C48.000,44.701 43.834,49.000 37.868,49.000 C37.868,49.000 13.035,49.000 13.035,49.000 C13.035,49.000 2.709,63.053 2.709,63.053 C2.421,63.445 1.968,63.665 1.500,63.665 ZM10.875,3.000 C6.680,3.000 3.000,6.997 3.000,11.554 C3.000,11.554 3.000,57.591 3.000,57.591 C3.000,57.591 11.067,46.612 11.067,46.612 C11.351,46.227 11.799,46.000 12.276,46.000 C12.276,46.000 37.868,46.000 37.868,46.000 C42.134,46.000 45.000,43.004 45.000,38.546 C45.000,38.546 45.000,11.554 45.000,11.554 C45.000,7.349 42.332,3.000 37.868,3.000 C37.868,3.000 10.875,3.000 10.875,3.000 Z" id="path-2" class="cls-4" fill-rule="evenodd"/>
    <path d="M28.906,40.769 C28.906,40.769 28.906,40.769 28.906,40.769 C27.997,40.769 27.104,40.398 26.459,39.752 C26.459,39.752 21.029,34.323 21.029,34.323 C21.029,34.323 20.272,35.080 20.272,35.080 C19.711,35.641 18.967,35.951 18.178,35.951 C16.756,35.951 15.526,34.940 15.254,33.547 C15.254,33.547 13.242,23.249 13.242,23.249 C13.145,22.760 13.300,22.254 13.653,21.901 C14.007,21.548 14.515,21.395 15.002,21.490 C15.002,21.490 25.300,23.503 25.300,23.503 C26.380,23.714 27.251,24.499 27.572,25.553 C27.893,26.605 27.608,27.743 26.830,28.521 C26.830,28.521 25.752,29.600 25.752,29.600 C25.752,29.600 31.228,35.076 31.228,35.076 C31.894,35.740 32.251,36.659 32.210,37.594 C32.170,38.525 31.734,39.405 31.016,40.008 C30.432,40.499 29.682,40.769 28.906,40.769 ZM21.029,30.702 C21.413,30.702 21.797,30.848 22.090,31.141 C22.090,31.141 28.580,37.631 28.580,37.631 C28.721,37.771 28.965,37.813 29.087,37.710 C29.167,37.643 29.209,37.560 29.213,37.463 C29.216,37.406 29.205,37.295 29.107,37.197 C29.107,37.197 22.570,30.660 22.570,30.660 C21.984,30.075 21.984,29.125 22.570,28.539 C22.570,28.539 24.709,26.400 24.709,26.400 C24.709,26.400 16.611,24.852 16.611,24.852 C16.611,24.852 18.198,32.973 18.198,32.973 C18.198,32.973 19.969,31.141 19.969,31.141 C20.262,30.848 20.645,30.702 21.029,30.702 Z" id="path-3" class="cls-4" fill-rule="evenodd"/>
  </g>
</svg>
