<svg xmlns="http://www.w3.org/2000/svg" xmlns:xlink="http://www.w3.org/1999/xlink" preserveAspectRatio="xMidYMid" width="69" height="52" viewBox="0 0 69 52">
  <defs>
    <style>

      .cls-3 {
        fill: #81bda4;
      }

      .cls-4 {
        fill: #ffffff;
      }

      .cls-5 {
        fill: #000000;
      }
    </style>
  </defs>
  <g id="group-46svg">
    <path d="M60.734,12.494 C65.228,12.494 68.000,16.136 68.000,20.630 C68.000,20.630 68.000,44.019 68.000,44.019 C68.000,48.513 66.097,51.844 61.604,51.844 C61.604,51.844 17.875,51.844 17.875,51.844 C13.382,51.844 8.000,48.513 8.000,44.019 C8.000,44.019 8.000,20.630 8.000,20.630 C8.000,16.136 12.077,12.494 16.570,12.494 C16.570,12.494 16.570,12.494 16.570,12.494 " id="path-1" class="cls-3" fill-rule="evenodd"/>
    <path d="M68.723,17.579 C68.723,17.579 43.765,32.795 43.765,32.795 C41.291,34.209 38.259,34.226 35.770,32.840 C35.770,32.840 11.265,17.579 11.265,17.579 C11.265,17.579 11.265,17.579 11.265,17.579 " id="path-2" class="cls-4" fill-rule="evenodd"/>
    <path d="M54.604,50.844 C54.604,50.844 10.875,50.844 10.875,50.844 C5.645,50.844 -0.000,47.470 -0.000,42.019 C-0.000,42.019 -0.000,18.630 -0.000,18.630 C-0.000,13.407 4.554,8.994 9.945,8.994 C10.774,8.994 11.445,9.665 11.445,10.494 C11.445,11.323 10.774,11.994 9.945,11.994 C6.181,11.994 3.000,15.033 3.000,18.630 C3.000,18.630 3.000,42.019 3.000,42.019 C3.000,45.503 7.072,47.844 10.875,47.844 C10.875,47.844 54.604,47.844 54.604,47.844 C59.064,47.844 60.000,44.676 60.000,42.019 C60.000,42.019 60.000,18.630 60.000,18.630 C60.000,14.785 57.470,11.994 53.984,11.994 C53.156,11.994 52.484,11.323 52.484,10.494 C52.484,9.665 53.156,8.994 53.984,8.994 C59.124,8.994 63.000,13.137 63.000,18.630 C63.000,18.630 63.000,42.019 63.000,42.019 C63.000,47.462 59.783,50.844 54.604,50.844 Z" id="path-3" class="cls-5" fill-rule="evenodd"/>
    <path d="M32.708,33.355 C31.090,33.355 29.481,32.953 28.041,32.151 C28.041,32.151 3.472,16.852 3.472,16.852 C2.769,16.414 2.554,15.489 2.992,14.786 C3.430,14.082 4.355,13.868 5.058,14.305 C5.058,14.305 29.563,29.567 29.563,29.567 C31.518,30.653 34.016,30.639 36.021,29.493 C36.021,29.493 59.918,14.312 59.918,14.312 C60.620,13.868 61.545,14.076 61.989,14.774 C62.433,15.474 62.226,16.400 61.527,16.845 C61.527,16.845 37.569,32.061 37.569,32.061 C36.060,32.925 34.379,33.355 32.708,33.355 Z" id="path-4" class="cls-5" fill-rule="evenodd"/>
    <path d="M33.797,20.831 C33.417,20.831 33.036,20.687 32.744,20.399 C32.154,19.818 32.147,18.868 32.729,18.278 C32.729,18.278 40.402,10.498 40.402,10.498 C40.402,10.498 32.719,2.548 32.719,2.548 C32.143,1.953 32.159,1.003 32.755,0.427 C33.350,-0.148 34.299,-0.133 34.876,0.463 C34.876,0.463 43.577,9.467 43.577,9.467 C44.143,10.053 44.138,10.983 43.566,11.562 C43.566,11.562 34.865,20.385 34.865,20.385 C34.572,20.683 34.185,20.831 33.797,20.831 Z" id="path-5" class="cls-5" fill-rule="evenodd"/>
    <path d="M42.498,11.844 C42.496,11.844 42.494,11.844 42.492,11.844 C42.492,11.844 22.853,11.835 22.853,11.835 C22.024,11.832 21.356,11.161 21.360,10.333 C21.364,9.507 22.035,8.844 22.860,8.844 C22.862,8.844 22.864,8.844 22.867,8.844 C22.867,8.844 42.505,8.972 42.505,8.972 C43.334,8.976 44.002,9.586 43.999,10.414 C43.995,11.241 43.324,11.844 42.498,11.844 Z" id="path-6" class="cls-5" fill-rule="evenodd"/>
  </g>
</svg>
