<svg xmlns="http://www.w3.org/2000/svg" xmlns:xlink="http://www.w3.org/1999/xlink" preserveAspectRatio="xMidYMid" width="69" height="46" viewBox="0 0 69 46">
  <defs>
    <style>

      .cls-3 {
        fill: #81bda4;
      }

      .cls-4 {
        fill: #ffffff;
      }

      .cls-5 {
        fill: #000000;
      }

      .cls-7 {
        fill: #99746a;
      }
    </style>
  </defs>
  <g id="group-56svg">
    <path d="M60.734,6.915 C65.228,6.915 68.000,10.557 68.000,15.050 C68.000,15.050 68.000,38.440 68.000,38.440 C68.000,42.934 66.097,46.000 61.604,46.000 C61.604,46.000 17.875,46.000 17.875,46.000 C13.382,46.000 8.000,42.934 8.000,38.440 C8.000,38.440 8.000,15.050 8.000,15.050 C8.000,10.557 12.077,6.915 16.570,6.915 C16.570,6.915 16.570,6.915 16.570,6.915 " id="path-1" class="cls-3" fill-rule="evenodd"/>
    <path d="M68.723,11.999 C68.723,11.999 43.765,27.216 43.765,27.216 C41.291,28.630 38.259,28.647 35.770,27.261 C35.770,27.261 11.265,11.999 11.265,11.999 C11.265,11.999 11.265,11.999 11.265,11.999 " id="path-2" class="cls-4" fill-rule="evenodd"/>
    <path d="M54.604,45.000 C54.604,45.000 10.875,45.000 10.875,45.000 C5.530,45.000 -0.000,41.798 -0.000,36.440 C-0.000,36.440 -0.000,13.050 -0.000,13.050 C-0.000,7.828 4.554,3.415 9.945,3.415 C10.774,3.415 11.445,4.086 11.445,4.915 C11.445,5.744 10.774,6.415 9.945,6.415 C6.181,6.415 3.000,9.454 3.000,13.050 C3.000,13.050 3.000,36.440 3.000,36.440 C3.000,39.920 7.004,42.000 10.875,42.000 C10.875,42.000 54.604,42.000 54.604,42.000 C58.235,42.000 60.000,40.182 60.000,36.440 C60.000,36.440 60.000,13.050 60.000,13.050 C60.000,9.205 57.470,6.415 53.984,6.415 C53.156,6.415 52.484,5.744 52.484,4.915 C52.484,4.086 53.156,3.415 53.984,3.415 C59.124,3.415 63.000,7.557 63.000,13.050 C63.000,13.050 63.000,36.440 63.000,36.440 C63.000,41.801 59.861,45.000 54.604,45.000 Z" id="path-3" class="cls-5" fill-rule="evenodd"/>
    <path d="M32.708,27.776 C31.090,27.776 29.481,27.374 28.041,26.572 C28.041,26.572 3.472,11.273 3.472,11.273 C2.769,10.835 2.554,9.910 2.992,9.206 C3.430,8.503 4.355,8.289 5.058,8.726 C5.058,8.726 29.563,23.988 29.563,23.988 C31.518,25.073 34.016,25.060 36.021,23.914 C36.021,23.914 59.918,8.733 59.918,8.733 C60.620,8.289 61.545,8.497 61.989,9.195 C62.433,9.894 62.226,10.821 61.527,11.266 C61.527,11.266 37.569,26.482 37.569,26.482 C36.060,27.346 34.379,27.776 32.708,27.776 Z" id="path-4" class="cls-5" fill-rule="evenodd"/>
    <path d="M31.000,8.500 C31.000,6.015 28.985,4.000 26.500,4.000 C26.500,4.000 25.500,4.000 25.500,4.000 C23.015,4.000 21.000,6.015 21.000,8.500 C21.000,8.500 21.000,9.500 21.000,9.500 C21.000,11.985 23.015,14.000 25.500,14.000 C25.500,14.000 26.500,14.000 26.500,14.000 C28.985,14.000 31.000,11.985 31.000,9.500 C31.000,9.500 31.000,8.500 31.000,8.500 Z" id="path-5" class="cls-7" fill-rule="evenodd"/>
    <path d="M41.500,11.500 C40.671,11.500 40.000,10.829 40.000,10.000 C40.000,10.000 40.000,7.000 40.000,7.000 C40.000,7.000 30.000,7.000 30.000,7.000 C29.171,7.000 28.500,6.329 28.500,5.500 C28.500,4.671 29.171,4.000 30.000,4.000 C30.000,4.000 41.500,4.000 41.500,4.000 C42.329,4.000 43.000,4.671 43.000,5.500 C43.000,5.500 43.000,10.000 43.000,10.000 C43.000,10.829 42.329,11.500 41.500,11.500 Z" id="path-6" class="cls-5" fill-rule="evenodd"/>
    <path d="M25.000,13.000 C25.000,13.000 24.000,13.000 24.000,13.000 C20.691,13.000 18.000,10.308 18.000,7.000 C18.000,7.000 18.000,6.000 18.000,6.000 C18.000,2.691 20.691,-0.000 24.000,-0.000 C24.000,-0.000 25.000,-0.000 25.000,-0.000 C28.309,-0.000 31.000,2.691 31.000,6.000 C31.000,6.000 31.000,7.000 31.000,7.000 C31.000,10.308 28.309,13.000 25.000,13.000 ZM24.000,3.000 C22.346,3.000 21.000,4.346 21.000,6.000 C21.000,6.000 21.000,7.000 21.000,7.000 C21.000,8.654 22.346,10.000 24.000,10.000 C24.000,10.000 25.000,10.000 25.000,10.000 C26.654,10.000 28.000,8.654 28.000,7.000 C28.000,7.000 28.000,6.000 28.000,6.000 C28.000,4.346 26.654,3.000 25.000,3.000 C25.000,3.000 24.000,3.000 24.000,3.000 Z" id="path-7" class="cls-5" fill-rule="evenodd"/>
  </g>
</svg>
