<svg xmlns="http://www.w3.org/2000/svg" xmlns:xlink="http://www.w3.org/1999/xlink" preserveAspectRatio="xMidYMid" width="60" height="65" viewBox="0 0 60 65">
  <defs>
    <style>

      .cls-3 {
        fill: #edc951;
      }

      .cls-4 {
        fill: #e56a77;
      }

      .cls-5 {
        fill: #000000;
      }
    </style>
  </defs>
  <g id="group-41svg">
    <path d="M23.138,12.409 C23.138,8.228 26.937,5.000 31.117,5.000 C31.117,5.000 52.013,5.000 52.013,5.000 C56.431,5.000 60.000,8.632 60.000,13.051 C60.000,13.051 60.000,53.197 60.000,53.197 C60.000,53.197 51.751,41.000 51.751,41.000 C51.751,41.000 46.000,41.000 46.000,41.000 C46.000,41.000 46.000,41.000 46.000,41.000 " id="path-1" class="cls-3" fill-rule="evenodd"/>
    <path d="M37.013,13.000 C37.013,13.000 14.013,13.000 14.013,13.000 C9.594,13.000 6.000,16.632 6.000,21.051 C6.000,21.051 6.000,64.613 6.000,64.613 C6.000,64.613 14.942,52.000 14.942,52.000 C14.942,52.000 37.013,52.000 37.013,52.000 C41.431,52.000 45.000,48.469 45.000,44.051 C45.000,44.051 45.000,21.051 45.000,21.051 C45.000,16.632 41.431,13.000 37.013,13.000 Z" id="path-2" class="cls-4" fill-rule="evenodd"/>
    <path d="M1.500,62.113 C1.351,62.113 1.199,62.091 1.051,62.044 C0.426,61.848 -0.000,61.268 -0.000,60.613 C-0.000,60.613 -0.000,17.051 -0.000,17.051 C-0.000,11.807 3.790,8.000 9.013,8.000 C9.013,8.000 32.013,8.000 32.013,8.000 C37.519,8.000 42.000,12.060 42.000,17.051 C42.000,17.051 42.000,40.051 42.000,40.051 C42.000,45.258 37.239,50.000 32.013,50.000 C32.013,50.000 10.726,50.000 10.726,50.000 C10.726,50.000 2.730,61.471 2.730,61.471 C2.444,61.881 1.981,62.113 1.500,62.113 ZM9.013,11.000 C5.416,11.000 3.000,13.432 3.000,17.051 C3.000,17.051 3.000,55.838 3.000,55.838 C3.000,55.838 8.712,47.642 8.712,47.642 C8.992,47.240 9.452,47.000 9.942,47.000 C9.942,47.000 32.013,47.000 32.013,47.000 C35.604,47.000 39.000,43.623 39.000,40.051 C39.000,40.051 39.000,17.051 39.000,17.051 C39.000,13.313 35.373,11.000 32.013,11.000 C32.013,11.000 9.013,11.000 9.013,11.000 Z" id="path-3" class="cls-5" fill-rule="evenodd"/>
    <path d="M55.500,50.697 C55.036,50.697 54.588,50.481 54.299,50.095 C54.299,50.095 46.000,39.000 46.000,39.000 C46.000,39.000 41.000,39.000 41.000,39.000 C40.172,39.000 39.500,38.329 39.500,37.500 C39.500,36.671 40.172,36.000 41.000,36.000 C41.000,36.000 46.751,36.000 46.751,36.000 C47.224,36.000 47.669,36.223 47.952,36.601 C47.952,36.601 54.000,44.687 54.000,44.687 C54.000,44.687 54.000,9.051 54.000,9.051 C54.000,5.313 50.373,3.000 47.013,3.000 C47.013,3.000 26.117,3.000 26.117,3.000 C22.604,3.000 19.638,5.706 19.638,8.909 C19.638,9.737 18.966,10.409 18.138,10.409 C17.310,10.409 16.638,9.737 16.638,8.909 C16.638,4.079 20.978,-0.000 26.117,-0.000 C26.117,-0.000 47.013,-0.000 47.013,-0.000 C52.519,-0.000 57.000,4.060 57.000,9.051 C57.000,9.051 57.000,49.197 57.000,49.197 C57.000,49.843 56.586,50.416 55.974,50.620 C55.817,50.672 55.658,50.697 55.500,50.697 Z" id="path-4" class="cls-5" fill-rule="evenodd"/>
    <path d="M27.500,32.500 C26.672,32.500 26.000,31.828 26.000,31.000 C26.000,31.000 26.000,28.000 26.000,28.000 C26.000,27.171 26.672,26.500 27.500,26.500 C28.328,26.500 29.000,27.171 29.000,28.000 C29.000,28.000 29.000,31.000 29.000,31.000 C29.000,31.828 28.328,32.500 27.500,32.500 Z" id="path-5" class="cls-5" fill-rule="evenodd"/>
    <path d="M21.500,32.500 C20.672,32.500 20.000,31.828 20.000,31.000 C20.000,31.000 20.000,28.000 20.000,28.000 C20.000,27.171 20.672,26.500 21.500,26.500 C22.328,26.500 23.000,27.171 23.000,28.000 C23.000,28.000 23.000,31.000 23.000,31.000 C23.000,31.828 22.328,32.500 21.500,32.500 Z" id="path-6" class="cls-5" fill-rule="evenodd"/>
    <path d="M15.500,32.500 C14.672,32.500 14.000,31.828 14.000,31.000 C14.000,31.000 14.000,28.000 14.000,28.000 C14.000,27.171 14.672,26.500 15.500,26.500 C16.328,26.500 17.000,27.171 17.000,28.000 C17.000,28.000 17.000,31.000 17.000,31.000 C17.000,31.828 16.328,32.500 15.500,32.500 Z" id="path-7" class="cls-5" fill-rule="evenodd"/>
  </g>
</svg>
