<svg xmlns="http://www.w3.org/2000/svg" xmlns:xlink="http://www.w3.org/1999/xlink" preserveAspectRatio="xMidYMid" width="63" height="63" viewBox="0 0 63 63">
  <defs>
    <style>

      .cls-3 {
        fill: #8b71b5;
      }

      .cls-4 {
        fill: #edc951;
      }

      .cls-5 {
        fill: #000000;
      }
    </style>
  </defs>
  <g id="group-69svg">
    <path d="M6.512,62.501 C6.512,47.229 18.893,34.849 34.164,34.849 C49.436,34.849 61.816,47.229 61.816,62.501 C61.816,62.501 61.816,62.501 61.816,62.501 " id="path-1" class="cls-3" fill-rule="evenodd"/>
    <path d="M49.057,18.618 C49.057,26.967 42.289,33.734 33.940,33.734 C25.592,33.734 18.823,26.967 18.823,18.618 C18.823,10.269 25.592,3.501 33.940,3.501 C42.289,3.501 49.057,10.269 49.057,18.618 Z" id="path-2" class="cls-4" fill-rule="evenodd"/>
    <path d="M56.817,62.001 C55.989,62.001 55.317,61.329 55.317,60.501 C55.317,46.080 43.585,34.349 29.164,34.349 C14.743,34.349 3.012,46.080 3.012,60.501 C3.012,61.329 2.340,62.001 1.512,62.001 C0.684,62.001 0.012,61.329 0.012,60.501 C0.012,44.426 13.090,31.349 29.164,31.349 C45.239,31.349 58.317,44.426 58.317,60.501 C58.317,61.329 57.645,62.001 56.817,62.001 Z" id="path-3" class="cls-5" fill-rule="evenodd"/>
    <path d="M28.940,33.234 C19.777,33.234 12.323,25.780 12.323,16.617 C12.323,7.455 19.777,0.001 28.940,0.001 C38.102,0.001 45.557,7.455 45.557,16.617 C45.557,25.780 38.102,33.234 28.940,33.234 ZM28.940,3.001 C21.432,3.001 15.323,9.109 15.323,16.617 C15.323,24.126 21.432,30.234 28.940,30.234 C36.448,30.234 42.557,24.126 42.557,16.617 C42.557,9.109 36.448,3.001 28.940,3.001 Z" id="path-4" class="cls-5" fill-rule="evenodd"/>
    <path d="M29.642,55.672 C29.642,55.672 29.643,55.672 29.643,55.672 C30.466,55.672 31.053,54.775 30.808,53.989 C30.808,53.989 30.254,52.165 30.254,52.165 C30.254,52.165 30.646,51.675 30.646,51.353 C30.646,50.805 30.201,50.305 29.652,50.305 C29.103,50.305 28.659,50.723 28.659,51.271 C28.659,51.587 29.017,52.137 29.017,52.137 C29.017,52.137 28.475,53.995 28.475,53.995 C28.233,54.780 28.820,55.672 29.642,55.672 Z" id="path-5" class="cls-5" fill-rule="evenodd"/>
    <path d="M33.759,59.219 C33.759,59.219 26.145,59.219 26.145,59.219 C24.119,59.219 22.531,57.774 22.531,55.930 C22.531,55.930 22.531,47.219 22.531,47.219 C22.531,47.219 37.531,47.219 37.531,47.219 C37.531,47.219 37.531,55.930 37.531,55.930 C37.531,57.988 35.613,59.219 33.759,59.219 ZM25.531,50.219 C25.531,50.219 25.531,55.930 25.531,55.930 C25.531,56.078 25.830,56.219 26.145,56.219 C26.145,56.219 33.759,56.219 33.759,56.219 C34.180,56.219 34.493,56.012 34.534,55.924 C34.534,55.924 34.532,50.219 34.532,50.219 C34.532,50.219 25.531,50.219 25.531,50.219 Z" id="path-6" class="cls-5" fill-rule="evenodd"/>
    <path d="M36.031,49.719 C35.203,49.719 34.531,49.047 34.531,48.219 C34.531,48.219 34.531,47.678 34.531,47.678 C34.531,45.432 32.292,44.219 30.185,44.219 C27.942,44.219 25.531,45.541 25.531,47.678 C25.531,47.678 25.531,48.219 25.531,48.219 C25.531,49.047 24.859,49.719 24.031,49.719 C23.203,49.719 22.531,49.047 22.531,48.219 C22.531,48.219 22.531,47.678 22.531,47.678 C22.531,43.635 26.419,41.219 30.177,41.219 C34.373,41.219 37.531,43.996 37.531,47.678 C37.531,47.678 37.531,48.219 37.531,48.219 C37.531,49.047 36.859,49.719 36.031,49.719 Z" id="path-7" class="cls-5" fill-rule="evenodd"/>
  </g>
</svg>
