<svg xmlns="http://www.w3.org/2000/svg" xmlns:xlink="http://www.w3.org/1999/xlink" preserveAspectRatio="xMidYMid" width="69" height="50" viewBox="0 0 69 50">
  <defs>
    <style>

      .cls-3 {
        fill: #81bda4;
      }

      .cls-4 {
        fill: #ffffff;
      }

      .cls-5 {
        fill: #000000;
      }
    </style>
  </defs>
  <g id="group-50svg">
    <path d="M60.584,10.480 C65.077,10.480 68.000,14.122 68.000,18.616 C68.000,18.616 68.000,42.005 68.000,42.005 C68.000,46.498 65.797,50.000 61.304,50.000 C61.304,50.000 17.575,50.000 17.575,50.000 C13.082,50.000 8.000,46.498 8.000,42.005 C8.000,42.005 8.000,18.616 8.000,18.616 C8.000,14.122 12.002,10.480 16.495,10.480 C16.495,10.480 16.495,10.480 16.495,10.480 " id="path-1" class="cls-3" fill-rule="evenodd"/>
    <path d="M68.423,15.565 C68.423,15.565 43.465,30.781 43.465,30.781 C40.992,32.195 37.959,32.212 35.470,30.826 C35.470,30.826 10.965,15.565 10.965,15.565 C10.965,15.565 10.965,15.565 10.965,15.565 " id="path-2" class="cls-4" fill-rule="evenodd"/>
    <path d="M54.304,49.000 C54.304,49.000 10.575,49.000 10.575,49.000 C5.489,49.000 -0.000,45.561 -0.000,40.005 C-0.000,40.005 -0.000,16.616 -0.000,16.616 C-0.000,11.392 4.519,6.980 9.870,6.980 C10.698,6.980 11.370,7.651 11.370,8.480 C11.370,9.309 10.698,9.980 9.870,9.980 C6.146,9.980 3.000,13.018 3.000,16.616 C3.000,16.616 3.000,40.005 3.000,40.005 C3.000,43.591 6.917,46.000 10.575,46.000 C10.575,46.000 54.304,46.000 54.304,46.000 C57.870,46.000 60.000,43.759 60.000,40.005 C60.000,40.005 60.000,16.616 60.000,16.616 C60.000,12.832 57.350,9.980 53.834,9.980 C53.006,9.980 52.334,9.309 52.334,8.480 C52.334,7.651 53.006,6.980 53.834,6.980 C59.060,6.980 63.000,11.122 63.000,16.616 C63.000,16.616 63.000,40.005 63.000,40.005 C63.000,45.385 59.505,49.000 54.304,49.000 Z" id="path-3" class="cls-5" fill-rule="evenodd"/>
    <path d="M32.408,31.342 C30.791,31.342 29.182,30.939 27.740,30.137 C27.740,30.137 3.172,14.838 3.172,14.838 C2.469,14.400 2.254,13.475 2.691,12.772 C3.130,12.068 4.055,11.856 4.758,12.291 C4.758,12.291 29.263,27.553 29.263,27.553 C31.218,28.639 33.715,28.625 35.721,27.479 C35.721,27.479 59.619,12.299 59.619,12.299 C60.316,11.854 61.244,12.060 61.689,12.761 C62.133,13.460 61.927,14.387 61.227,14.831 C61.227,14.831 37.269,30.047 37.269,30.047 C35.760,30.911 34.079,31.342 32.408,31.342 Z" id="path-4" class="cls-5" fill-rule="evenodd"/>
    <path d="M36.711,20.000 C36.711,20.000 30.711,20.000 30.711,20.000 C29.115,20.000 28.000,19.124 28.000,17.871 C28.000,17.871 28.000,7.771 28.000,7.771 C28.000,6.392 29.049,5.000 31.392,5.000 C31.392,5.000 31.589,5.000 31.589,5.000 C33.945,5.000 35.000,6.392 35.000,7.771 C35.000,7.771 35.000,11.000 35.000,11.000 C35.000,11.829 34.328,12.500 33.500,12.500 C32.672,12.500 32.000,11.829 32.000,11.000 C32.000,11.000 32.000,8.038 32.000,8.038 C31.902,8.017 31.766,8.000 31.589,8.000 C31.589,8.000 31.392,8.000 31.392,8.000 C31.225,8.000 31.094,8.016 31.000,8.035 C31.000,8.035 31.000,17.000 31.000,17.000 C31.000,17.000 36.000,17.000 36.000,17.000 C36.000,17.000 36.000,3.299 36.000,3.299 C36.000,3.121 35.890,3.000 35.854,3.000 C35.854,3.000 27.282,3.000 27.282,3.000 C27.180,3.000 27.000,3.173 27.000,3.299 C27.000,3.299 27.000,18.000 27.000,18.000 C27.000,18.829 26.328,19.500 25.500,19.500 C24.672,19.500 24.000,18.829 24.000,18.000 C24.000,18.000 24.000,3.299 24.000,3.299 C24.000,1.511 25.503,-0.000 27.282,-0.000 C27.282,-0.000 35.854,-0.000 35.854,-0.000 C37.589,-0.000 39.000,1.480 39.000,3.299 C39.000,3.299 39.000,17.871 39.000,17.871 C39.000,18.931 38.292,20.000 36.711,20.000 Z" id="path-5" class="cls-5" fill-rule="evenodd"/>
  </g>
</svg>
