<svg xmlns="http://www.w3.org/2000/svg" xmlns:xlink="http://www.w3.org/1999/xlink" preserveAspectRatio="xMidYMid" width="52" height="67" viewBox="0 0 52 67">
  <defs>
    <style>

      .cls-3 {
        fill: #e56a77;
      }

      .cls-4 {
        fill: #000000;
      }
    </style>
  </defs>
  <g id="group-14svg">
    <path d="M44.251,6.000 C44.251,6.000 17.258,6.000 17.258,6.000 C12.073,6.000 7.000,10.369 7.000,15.554 C7.000,15.554 7.000,66.165 7.000,66.165 C7.000,66.165 18.659,52.000 18.659,52.000 C18.659,52.000 44.251,52.000 44.251,52.000 C49.436,52.000 52.000,47.732 52.000,42.546 C52.000,42.546 52.000,15.554 52.000,15.554 C52.000,10.369 49.436,6.000 44.251,6.000 Z" id="path-1" class="cls-3" fill-rule="evenodd"/>
    <path d="M1.500,63.665 C1.340,63.665 1.178,63.640 1.020,63.586 C0.411,63.381 -0.000,62.809 -0.000,62.165 C-0.000,62.165 -0.000,11.554 -0.000,11.554 C-0.000,5.507 5.366,-0.000 11.258,-0.000 C11.258,-0.000 38.251,-0.000 38.251,-0.000 C44.583,-0.000 48.000,5.953 48.000,11.554 C48.000,11.554 48.000,38.546 48.000,38.546 C48.000,44.799 44.082,49.000 38.251,49.000 C38.251,49.000 13.403,49.000 13.403,49.000 C13.403,49.000 2.694,63.073 2.694,63.073 C2.404,63.454 1.959,63.665 1.500,63.665 ZM11.258,3.000 C7.013,3.000 3.000,7.157 3.000,11.554 C3.000,11.554 3.000,57.717 3.000,57.717 C3.000,57.717 11.465,46.592 11.465,46.592 C11.749,46.219 12.191,46.000 12.659,46.000 C12.659,46.000 38.251,46.000 38.251,46.000 C42.414,46.000 45.000,43.144 45.000,38.546 C45.000,38.546 45.000,11.554 45.000,11.554 C45.000,7.303 42.682,3.000 38.251,3.000 C38.251,3.000 11.258,3.000 11.258,3.000 Z" id="path-2" class="cls-4" fill-rule="evenodd"/>
    <path d="M21.835,30.469 C21.452,30.469 21.068,30.323 20.775,30.030 C20.189,29.444 20.189,28.494 20.775,27.909 C20.775,27.909 27.549,21.135 27.549,21.135 C28.135,20.549 29.084,20.549 29.670,21.135 C30.256,21.720 30.256,22.670 29.670,23.256 C29.670,23.256 22.896,30.030 22.896,30.030 C22.603,30.323 22.219,30.469 21.835,30.469 Z" id="path-3" class="cls-4" fill-rule="evenodd"/>
    <path d="M28.609,30.469 C28.226,30.469 27.842,30.323 27.549,30.030 C27.549,30.030 20.775,23.256 20.775,23.256 C20.189,22.670 20.189,21.720 20.775,21.135 C21.361,20.549 22.310,20.549 22.896,21.135 C22.896,21.135 29.670,27.909 29.670,27.909 C30.256,28.494 30.256,29.444 29.670,30.030 C29.377,30.323 28.993,30.469 28.609,30.469 Z" id="path-4" class="cls-4" fill-rule="evenodd"/>
  </g>
</svg>
