<svg xmlns="http://www.w3.org/2000/svg" xmlns:xlink="http://www.w3.org/1999/xlink" preserveAspectRatio="xMidYMid" width="52" height="67" viewBox="0 0 52 67">
  <defs>
    <style>

      .cls-3 {
        fill: #e56a77;
      }

      .cls-4 {
        fill: #000000;
      }
    </style>
  </defs>
  <g id="group-32svg">
    <path d="M43.770,6.000 C43.770,6.000 16.777,6.000 16.777,6.000 C11.592,6.000 7.000,10.369 7.000,15.554 C7.000,15.554 7.000,66.165 7.000,66.165 C7.000,66.165 18.178,52.000 18.178,52.000 C18.178,52.000 43.770,52.000 43.770,52.000 C48.955,52.000 52.000,47.732 52.000,42.546 C52.000,42.546 52.000,15.554 52.000,15.554 C52.000,10.369 48.955,6.000 43.770,6.000 Z" id="path-1" class="cls-3" fill-rule="evenodd"/>
    <path d="M1.500,63.665 C1.345,63.665 1.188,63.641 1.036,63.591 C0.418,63.390 -0.000,62.814 -0.000,62.165 C-0.000,62.165 -0.000,11.554 -0.000,11.554 C-0.000,5.291 4.935,-0.000 10.777,-0.000 C10.777,-0.000 37.770,-0.000 37.770,-0.000 C43.411,-0.000 48.000,5.183 48.000,11.554 C48.000,11.554 48.000,38.546 48.000,38.546 C48.000,44.603 43.698,49.000 37.770,49.000 C37.770,49.000 12.941,49.000 12.941,49.000 C12.941,49.000 2.712,63.048 2.712,63.048 C2.425,63.443 1.970,63.665 1.500,63.665 ZM10.777,3.000 C6.634,3.000 3.000,6.997 3.000,11.554 C3.000,11.554 3.000,57.557 3.000,57.557 C3.000,57.557 10.966,46.617 10.966,46.617 C11.248,46.229 11.699,46.000 12.178,46.000 C12.178,46.000 37.770,46.000 37.770,46.000 C42.095,46.000 45.000,43.004 45.000,38.546 C45.000,38.546 45.000,11.554 45.000,11.554 C45.000,7.440 42.236,3.000 37.770,3.000 C37.770,3.000 10.777,3.000 10.777,3.000 Z" id="path-2" class="cls-4" fill-rule="evenodd"/>
    <path d="M23.500,38.000 C23.500,38.000 15.500,38.000 15.500,38.000 C13.570,38.000 12.000,36.430 12.000,34.500 C12.000,34.500 12.000,28.500 12.000,28.500 C12.000,26.570 13.570,25.000 15.500,25.000 C15.500,25.000 23.500,25.000 23.500,25.000 C25.430,25.000 27.000,26.570 27.000,28.500 C27.000,28.500 27.000,34.500 27.000,34.500 C27.000,36.430 25.430,38.000 23.500,38.000 ZM15.500,28.000 C15.224,28.000 15.000,28.224 15.000,28.500 C15.000,28.500 15.000,34.500 15.000,34.500 C15.000,34.776 15.224,35.000 15.500,35.000 C15.500,35.000 23.500,35.000 23.500,35.000 C23.776,35.000 24.000,34.776 24.000,34.500 C24.000,34.500 24.000,28.500 24.000,28.500 C24.000,28.224 23.776,28.000 23.500,28.000 C23.500,28.000 15.500,28.000 15.500,28.000 Z" id="path-3" class="cls-4" fill-rule="evenodd"/>
    <path d="M31.500,38.259 C31.207,38.259 30.914,38.173 30.663,38.003 C30.663,38.003 24.741,34.018 24.741,34.018 C24.381,33.776 24.144,33.390 24.090,32.960 C24.090,32.960 23.838,30.946 23.838,30.946 C23.763,30.343 24.059,29.755 24.587,29.455 C24.587,29.455 30.760,25.955 30.760,25.955 C31.225,25.692 31.794,25.695 32.255,25.964 C32.716,26.233 33.000,26.726 33.000,27.260 C33.000,27.260 33.000,36.759 33.000,36.759 C33.000,37.313 32.694,37.822 32.205,38.083 C31.984,38.201 31.742,38.259 31.500,38.259 ZM26.982,31.911 C26.982,31.911 30.000,33.941 30.000,33.941 C30.000,33.941 30.000,29.835 30.000,29.835 C30.000,29.835 26.939,31.570 26.939,31.570 C26.939,31.570 26.982,31.911 26.982,31.911 Z" id="path-4" class="cls-4" fill-rule="evenodd"/>
  </g>
</svg>
