<svg xmlns="http://www.w3.org/2000/svg" xmlns:xlink="http://www.w3.org/1999/xlink" preserveAspectRatio="xMidYMid" width="66" height="55" viewBox="0 0 66 55">
  <defs>
    <style>

      .cls-3 {
        fill: #edc951;
      }

      .cls-6 {
        fill: #8b71b5;
      }

      .cls-8 {
        fill: #000000;
      }
    </style>
  </defs>
  <g id="group-71svg">
    <path d="M57.031,51.500 C57.031,51.500 65.069,51.500 65.069,51.500 C65.069,43.500 58.936,36.764 51.061,35.911 C54.987,35.118 57.944,31.452 57.944,27.292 C57.944,22.547 53.631,18.500 48.885,18.500 C48.885,18.500 41.031,18.500 41.031,18.500 C41.031,18.500 41.031,51.500 41.031,51.500 C41.031,51.500 57.031,51.500 57.031,51.500 Z" id="path-1" class="cls-3" fill-rule="evenodd"/>
    <path d="M28.969,38.007 C26.624,36.651 23.947,35.900 21.012,35.900 C12.399,35.900 5.486,42.500 5.486,51.500 C5.486,51.500 17.031,51.500 17.031,51.500 C17.031,51.500 17.031,51.500 17.031,51.500 " id="path-2" class="cls-3" fill-rule="evenodd"/>
    <path d="M27.109,20.664 C25.566,19.121 23.436,18.167 21.081,18.167 C16.373,18.167 12.556,21.983 12.556,26.692 C12.556,31.400 16.373,35.217 21.081,35.217 C23.986,35.217 26.553,33.764 28.092,31.544 C28.092,31.544 28.092,31.544 28.092,31.544 " id="path-3" class="cls-3" fill-rule="evenodd"/>
    <path d="M18.933,55.232 C18.933,44.809 27.382,36.360 37.805,36.360 C48.226,36.360 56.676,44.809 56.676,55.232 C56.676,55.232 56.676,55.232 56.676,55.232 " id="path-4" class="cls-6" fill-rule="evenodd"/>
    <path d="M48.121,25.483 C48.121,31.181 43.502,35.800 37.805,35.800 C32.106,35.800 27.487,31.181 27.487,25.483 C27.487,19.786 32.106,15.167 37.805,15.167 C43.502,15.167 48.121,19.786 48.121,25.483 Z" id="path-5" class="cls-3" fill-rule="evenodd"/>
    <path d="M52.676,54.731 C51.848,54.731 51.176,54.061 51.176,53.231 C51.176,43.653 43.383,35.860 33.805,35.860 C24.226,35.860 16.433,43.653 16.433,53.231 C16.433,54.061 15.761,54.731 14.933,54.731 C14.104,54.731 13.433,54.061 13.433,53.231 C13.433,41.999 22.571,32.860 33.805,32.860 C45.037,32.860 54.176,41.999 54.176,53.231 C54.176,54.061 53.504,54.731 52.676,54.731 Z" id="path-6" class="cls-8" fill-rule="evenodd"/>
    <path d="M33.805,35.300 C27.288,35.300 21.987,29.999 21.987,23.483 C21.987,16.968 27.288,11.667 33.805,11.667 C40.320,11.667 45.621,16.968 45.621,23.483 C45.621,29.999 40.320,35.300 33.805,35.300 ZM33.805,14.667 C28.942,14.667 24.987,18.622 24.987,23.483 C24.987,28.345 28.942,32.300 33.805,32.300 C38.666,32.300 42.621,28.345 42.621,23.483 C42.621,18.622 38.666,14.667 33.805,14.667 Z" id="path-7" class="cls-8" fill-rule="evenodd"/>
    <path d="M13.031,50.500 C13.031,50.500 1.486,50.500 1.486,50.500 C0.658,50.500 -0.014,49.828 -0.014,49.000 C-0.014,39.322 7.306,32.025 17.012,32.025 C19.998,32.025 22.928,32.844 25.720,34.459 C26.436,34.873 26.682,35.791 26.268,36.508 C25.852,37.226 24.934,37.470 24.218,37.056 C21.888,35.709 19.464,35.025 17.012,35.025 C9.526,35.025 3.764,40.290 3.059,47.500 C3.059,47.500 13.031,47.500 13.031,47.500 C13.859,47.500 14.531,48.172 14.531,49.000 C14.531,49.828 13.859,50.500 13.031,50.500 Z" id="path-8" class="cls-8" fill-rule="evenodd"/>
    <path d="M17.081,34.717 C11.553,34.717 7.056,30.220 7.056,24.691 C7.056,19.164 11.553,14.667 17.081,14.667 C19.759,14.667 22.276,15.709 24.170,17.602 C24.756,18.188 24.756,19.139 24.170,19.724 C23.584,20.310 22.635,20.310 22.049,19.725 C20.722,18.397 18.957,17.667 17.081,17.667 C13.207,17.667 10.056,20.818 10.056,24.691 C10.056,28.565 13.207,31.717 17.081,31.717 C19.385,31.717 21.545,30.585 22.859,28.689 C23.332,28.008 24.267,27.840 24.946,28.310 C25.627,28.783 25.797,29.718 25.324,30.398 C23.449,33.103 20.368,34.717 17.081,34.717 Z" id="path-9" class="cls-8" fill-rule="evenodd"/>
    <path d="M61.069,50.500 C61.069,50.500 53.031,50.500 53.031,50.500 C52.203,50.500 51.531,49.828 51.531,49.000 C51.531,48.172 52.203,47.500 53.031,47.500 C53.031,47.500 59.488,47.500 59.488,47.500 C58.785,41.065 53.608,35.878 46.899,35.152 C46.164,35.072 45.596,34.469 45.562,33.729 C45.528,32.990 46.038,32.337 46.764,32.190 C50.108,31.516 52.444,28.715 52.444,25.381 C52.444,21.510 48.912,18.115 44.885,18.115 C44.057,18.115 43.385,17.443 43.385,16.615 C43.385,15.786 44.057,15.115 44.885,15.115 C50.510,15.115 55.444,19.912 55.444,25.381 C55.444,28.557 53.977,31.391 51.596,33.219 C58.080,35.693 62.569,41.865 62.569,49.000 C62.569,49.828 61.897,50.500 61.069,50.500 Z" id="path-10" class="cls-8" fill-rule="evenodd"/>
    <path d="M57.031,6.500 C57.031,6.500 49.031,6.500 49.031,6.500 C48.203,6.500 47.531,5.828 47.531,5.000 C47.531,4.172 48.203,3.500 49.031,3.500 C49.031,3.500 57.031,3.500 57.031,3.500 C57.859,3.500 58.531,4.172 58.531,5.000 C58.531,5.828 57.859,6.500 57.031,6.500 Z" id="path-11" class="cls-8" fill-rule="evenodd"/>
    <path d="M53.531,11.000 C52.703,11.000 52.031,10.328 52.031,9.500 C52.031,9.500 52.031,1.500 52.031,1.500 C52.031,0.672 52.703,-0.000 53.531,-0.000 C54.359,-0.000 55.031,0.672 55.031,1.500 C55.031,1.500 55.031,9.500 55.031,9.500 C55.031,10.328 54.359,11.000 53.531,11.000 Z" id="path-12" class="cls-8" fill-rule="evenodd"/>
  </g>
</svg>
