<svg xmlns="http://www.w3.org/2000/svg" xmlns:xlink="http://www.w3.org/1999/xlink" preserveAspectRatio="xMidYMid" width="66" height="65" viewBox="0 0 66 65">
  <defs>
    <style>

      .cls-3 {
        fill: #ff917b;
      }

      .cls-4 {
        fill: #000000;
      }
    </style>
  </defs>
  <g id="group-11svg">
    <path d="M53.498,40.445 C53.498,40.445 47.027,46.916 47.027,46.916 C47.027,46.916 35.433,35.321 35.433,35.321 C35.433,35.321 23.838,23.727 23.838,23.727 C23.838,23.727 30.310,17.256 30.310,17.256 C31.858,15.707 31.858,13.196 30.310,11.647 C30.310,11.647 24.324,5.662 24.324,5.662 C22.781,4.119 20.258,4.119 18.715,5.662 C18.715,5.662 7.805,16.572 7.805,16.572 C4.707,19.670 4.707,24.692 7.805,27.790 C7.805,27.790 25.385,45.370 25.385,45.370 C25.385,45.370 42.191,62.177 42.191,62.177 C45.289,65.274 50.312,65.274 53.409,62.177 C53.409,62.177 64.319,51.266 64.319,51.266 C65.868,49.717 65.868,47.206 64.319,45.657 C64.319,45.657 59.107,40.445 59.107,40.445 C57.559,38.896 55.047,38.896 53.498,40.445 Z" id="path-1" class="cls-3" fill-rule="evenodd"/>
    <path d="M43.801,63.000 C41.281,63.000 38.912,62.019 37.131,60.237 C37.131,60.237 2.744,25.851 2.744,25.851 C-0.934,22.173 -0.934,16.189 2.744,12.511 C2.744,12.511 13.654,1.601 13.654,1.601 C14.684,0.572 16.057,0.005 17.520,0.005 C18.982,0.005 20.355,0.572 21.385,1.600 C21.385,1.600 27.370,7.586 27.370,7.586 C29.501,9.717 29.501,13.185 27.370,15.317 C27.370,15.317 21.960,20.727 21.960,20.727 C21.960,20.727 43.027,41.794 43.027,41.794 C43.027,41.794 48.437,36.384 48.437,36.384 C49.470,35.351 50.843,34.783 52.303,34.783 C53.763,34.783 55.136,35.351 56.168,36.384 C56.168,36.384 61.380,41.597 61.380,41.597 C63.511,43.727 63.511,47.195 61.380,49.327 C61.380,49.327 50.470,60.237 50.470,60.237 C48.688,62.019 46.319,63.000 43.801,63.000 ZM17.520,3.005 C16.857,3.005 16.238,3.260 15.775,3.723 C15.775,3.723 4.865,14.632 4.865,14.632 C2.357,17.141 2.357,21.222 4.865,23.730 C4.865,23.730 39.252,58.116 39.252,58.116 C40.467,59.331 42.082,60.000 43.801,60.000 C45.519,60.000 47.134,59.331 48.349,58.116 C48.349,58.116 59.259,47.206 59.259,47.206 C60.220,46.244 60.220,44.679 59.259,43.718 C59.259,43.718 54.047,38.505 54.047,38.505 C53.115,37.574 51.490,37.574 50.559,38.505 C50.559,38.505 44.088,44.976 44.088,44.976 C43.525,45.539 42.529,45.539 41.967,44.976 C41.967,44.976 18.778,21.788 18.778,21.788 C18.192,21.202 18.192,20.252 18.778,19.666 C18.778,19.666 25.249,13.196 25.249,13.196 C26.210,12.234 26.210,10.669 25.249,9.707 C25.249,9.707 19.264,3.722 19.264,3.722 C18.801,3.260 18.182,3.005 17.520,3.005 Z" id="path-2" class="cls-4" fill-rule="evenodd"/>
    <path d="M56.940,53.145 C56.557,53.145 56.173,52.999 55.880,52.706 C55.880,52.706 45.059,41.885 45.059,41.885 C44.473,41.299 44.473,40.349 45.059,39.764 C45.644,39.178 46.594,39.178 47.180,39.764 C47.180,39.764 58.001,50.585 58.001,50.585 C58.587,51.170 58.587,52.121 58.001,52.706 C57.708,52.999 57.324,53.145 56.940,53.145 Z" id="path-3" class="cls-4" fill-rule="evenodd"/>
    <path d="M22.931,19.135 C22.547,19.135 22.163,18.989 21.870,18.696 C21.870,18.696 10.275,7.101 10.275,7.101 C9.689,6.516 9.689,5.565 10.275,4.980 C10.861,4.394 11.810,4.394 12.396,4.980 C12.396,4.980 23.991,16.575 23.991,16.575 C24.577,17.160 24.577,18.110 23.991,18.696 C23.698,18.989 23.314,19.135 22.931,19.135 Z" id="path-4" class="cls-4" fill-rule="evenodd"/>
    <path d="M40.715,20.617 C40.715,20.617 44.759,20.617 44.759,20.617 C45.162,20.617 45.469,20.699 45.681,20.864 C45.893,21.030 45.998,21.254 45.998,21.538 C45.998,21.791 45.914,22.006 45.747,22.182 C45.579,22.357 45.324,22.445 44.983,22.445 C44.983,22.445 39.282,22.445 39.282,22.445 C38.894,22.445 38.593,22.338 38.376,22.123 C38.158,21.909 38.050,21.657 38.050,21.368 C38.050,21.182 38.120,20.936 38.260,20.628 C38.398,20.321 38.551,20.079 38.717,19.904 C39.403,19.191 40.023,18.580 40.575,18.072 C41.128,17.563 41.523,17.228 41.761,17.068 C42.185,16.769 42.537,16.468 42.818,16.166 C43.100,15.864 43.314,15.554 43.461,15.236 C43.608,14.919 43.682,14.608 43.682,14.303 C43.682,13.973 43.603,13.677 43.446,13.416 C43.288,13.155 43.074,12.953 42.803,12.808 C42.531,12.663 42.236,12.591 41.916,12.591 C41.239,12.591 40.707,12.888 40.320,13.482 C40.269,13.559 40.182,13.771 40.061,14.117 C39.939,14.463 39.802,14.729 39.649,14.915 C39.497,15.101 39.274,15.194 38.979,15.194 C38.722,15.194 38.507,15.108 38.337,14.938 C38.166,14.767 38.081,14.535 38.081,14.241 C38.081,13.885 38.161,13.513 38.321,13.125 C38.481,12.738 38.721,12.387 39.038,12.072 C39.355,11.757 39.759,11.502 40.246,11.309 C40.734,11.115 41.307,11.018 41.962,11.018 C42.753,11.018 43.427,11.142 43.984,11.390 C44.346,11.556 44.663,11.783 44.937,12.072 C45.211,12.361 45.424,12.695 45.576,13.075 C45.728,13.455 45.805,13.849 45.805,14.256 C45.805,14.897 45.645,15.479 45.328,16.003 C45.011,16.527 44.686,16.938 44.356,17.235 C44.025,17.532 43.472,17.998 42.694,18.633 C41.917,19.268 41.384,19.762 41.095,20.113 C40.971,20.252 40.844,20.420 40.715,20.617 Z" id="path-5" class="cls-4" fill-rule="evenodd"/>
    <path d="M52.157,21.461 C52.157,21.461 52.157,20.020 52.157,20.020 C52.157,20.020 48.269,20.020 48.269,20.020 C47.777,20.020 47.409,19.909 47.164,19.687 C46.919,19.465 46.796,19.163 46.796,18.781 C46.796,18.683 46.814,18.583 46.851,18.482 C46.887,18.382 46.940,18.276 47.013,18.164 C47.085,18.054 47.160,17.947 47.237,17.843 C47.315,17.740 47.411,17.613 47.524,17.464 C47.524,17.464 51.630,11.971 51.630,11.971 C51.898,11.610 52.119,11.348 52.293,11.185 C52.466,11.022 52.674,10.941 52.916,10.941 C53.701,10.941 54.094,11.390 54.094,12.289 C54.094,12.289 54.094,18.285 54.094,18.285 C54.094,18.285 54.427,18.285 54.427,18.285 C54.824,18.285 55.144,18.339 55.384,18.447 C55.624,18.556 55.744,18.793 55.744,19.160 C55.744,19.460 55.646,19.678 55.449,19.815 C55.253,19.952 54.959,20.020 54.566,20.020 C54.566,20.020 54.094,20.020 54.094,20.020 C54.094,20.020 54.094,21.461 54.094,21.461 C54.094,21.859 54.006,22.154 53.830,22.348 C53.654,22.541 53.420,22.639 53.125,22.639 C52.836,22.639 52.602,22.539 52.424,22.340 C52.246,22.142 52.157,21.848 52.157,21.461 ZM48.826,18.285 C48.826,18.285 52.157,18.285 52.157,18.285 C52.157,18.285 52.157,13.784 52.157,13.784 C52.157,13.784 48.826,18.285 48.826,18.285 Z" id="path-6" class="cls-4" fill-rule="evenodd"/>
  </g>
</svg>
