<svg xmlns="http://www.w3.org/2000/svg" xmlns:xlink="http://www.w3.org/1999/xlink" preserveAspectRatio="xMidYMid" width="69" height="50" viewBox="0 0 69 50">
  <defs>
    <style>

      .cls-3 {
        fill: #81bda4;
      }

      .cls-4 {
        fill: #ffffff;
      }

      .cls-5 {
        fill: #000000;
      }

      .cls-7 {
        fill: #99746a;
      }
    </style>
  </defs>
  <g id="group-49svg">
    <path d="M60.653,11.351 C65.146,11.351 68.000,14.994 68.000,19.487 C68.000,19.487 68.000,42.876 68.000,42.876 C68.000,47.370 65.935,50.312 61.442,50.312 C61.442,50.312 17.713,50.312 17.713,50.312 C13.220,50.312 8.000,47.370 8.000,42.876 C8.000,42.876 8.000,19.487 8.000,19.487 C8.000,14.994 12.037,11.351 16.530,11.351 C16.530,11.351 16.530,11.351 16.530,11.351 " id="path-1" class="cls-3" fill-rule="evenodd"/>
    <path d="M68.560,16.435 C68.560,16.435 43.603,31.652 43.603,31.652 C41.130,33.066 38.097,33.083 35.607,31.697 C35.607,31.697 11.104,16.435 11.104,16.435 C11.104,16.435 11.104,16.435 11.104,16.435 " id="path-2" class="cls-4" fill-rule="evenodd"/>
    <path d="M54.442,49.312 C54.442,49.312 10.713,49.312 10.713,49.312 C5.519,49.312 -0.000,46.356 -0.000,40.876 C-0.000,40.876 -0.000,17.487 -0.000,17.487 C-0.000,12.264 4.536,7.851 9.905,7.851 C10.733,7.851 11.405,8.522 11.405,9.351 C11.405,10.180 10.733,10.851 9.905,10.851 C6.162,10.851 3.000,13.890 3.000,17.487 C3.000,17.487 3.000,40.876 3.000,40.876 C3.000,44.407 6.974,46.312 10.713,46.312 C10.713,46.312 54.442,46.312 54.442,46.312 C58.130,46.312 60.000,44.483 60.000,40.876 C60.000,40.876 60.000,17.487 60.000,17.487 C60.000,13.642 57.436,10.851 53.903,10.851 C53.075,10.851 52.403,10.180 52.403,9.351 C52.403,8.522 53.075,7.851 53.903,7.851 C59.089,7.851 63.000,11.994 63.000,17.487 C63.000,17.487 63.000,40.876 63.000,40.876 C63.000,46.159 59.801,49.312 54.442,49.312 Z" id="path-3" class="cls-5" fill-rule="evenodd"/>
    <path d="M32.546,32.213 C30.929,32.213 29.319,31.810 27.878,31.008 C27.878,31.008 3.310,15.709 3.310,15.709 C2.606,15.271 2.392,14.346 2.829,13.643 C3.268,12.938 4.193,12.727 4.895,13.163 C4.895,13.163 29.400,28.424 29.400,28.424 C31.355,29.510 33.853,29.496 35.858,28.350 C35.858,28.350 59.757,13.170 59.757,13.170 C60.454,12.725 61.382,12.932 61.827,13.632 C62.270,14.331 62.064,15.258 61.364,15.702 C61.364,15.702 37.406,30.918 37.406,30.918 C35.897,31.782 34.217,32.213 32.546,32.213 Z" id="path-4" class="cls-5" fill-rule="evenodd"/>
    <path d="M38.111,3.184 C38.111,3.184 40.200,7.415 40.200,7.415 C40.375,7.771 40.715,8.017 41.107,8.075 C41.107,8.075 45.777,8.753 45.777,8.753 C46.766,8.896 47.160,10.111 46.444,10.809 C46.444,10.809 43.065,14.102 43.065,14.102 C42.782,14.379 42.652,14.778 42.720,15.169 C42.720,15.169 43.517,19.820 43.517,19.820 C43.686,20.804 42.652,21.555 41.769,21.090 C41.769,21.090 37.592,18.895 37.592,18.895 C37.240,18.710 36.821,18.710 36.470,18.895 C36.470,18.895 32.294,21.090 32.294,21.090 C31.409,21.555 30.376,20.804 30.545,19.820 C30.545,19.820 31.343,15.169 31.343,15.169 C31.410,14.778 31.280,14.379 30.996,14.102 C30.996,14.102 27.617,10.809 27.617,10.809 C26.902,10.111 27.297,8.896 28.285,8.753 C28.285,8.753 32.955,8.075 32.955,8.075 C33.347,8.017 33.686,7.771 33.862,7.415 C33.862,7.415 35.950,3.184 35.950,3.184 C36.393,2.288 37.670,2.288 38.111,3.184 Z" id="path-5" class="cls-7" fill-rule="evenodd"/>
    <path d="M38.329,21.731 C37.895,21.731 37.460,21.622 37.070,21.417 C37.070,21.417 33.031,19.294 33.031,19.294 C33.031,19.294 28.992,21.417 28.992,21.417 C27.882,22.000 26.461,21.712 25.659,20.763 C25.147,20.155 24.932,19.354 25.066,18.566 C25.066,18.566 25.838,14.068 25.838,14.068 C25.838,14.068 22.570,10.883 22.570,10.883 C21.827,10.158 21.565,9.096 21.886,8.109 C22.207,7.123 23.043,6.417 24.069,6.268 C24.069,6.268 28.586,5.613 28.586,5.613 C28.586,5.613 30.605,1.520 30.605,1.520 C31.064,0.590 31.994,0.012 33.031,0.012 C34.068,0.012 34.998,0.590 35.457,1.521 C35.457,1.521 37.476,5.613 37.476,5.613 C37.476,5.613 41.993,6.268 41.993,6.268 C43.019,6.417 43.856,7.123 44.177,8.109 C44.497,9.096 44.234,10.159 43.491,10.883 C43.491,10.883 40.225,14.067 40.225,14.067 C40.225,14.067 40.995,18.566 40.995,18.566 C41.130,19.354 40.914,20.155 40.402,20.763 C39.883,21.378 39.128,21.731 38.329,21.731 ZM25.092,9.151 C25.092,9.151 28.043,12.028 28.043,12.028 C28.682,12.651 28.972,13.546 28.821,14.424 C28.821,14.424 28.124,18.484 28.124,18.484 C28.124,18.484 31.771,16.567 31.771,16.567 C32.548,16.159 33.517,16.161 34.289,16.566 C34.289,16.566 37.937,18.484 37.937,18.484 C37.937,18.484 37.241,14.422 37.241,14.422 C37.091,13.548 37.380,12.653 38.016,12.030 C38.016,12.030 40.970,9.151 40.970,9.151 C40.970,9.151 36.892,8.559 36.892,8.559 C36.011,8.431 35.250,7.878 34.855,7.081 C34.855,7.081 33.031,3.384 33.031,3.384 C33.031,3.384 31.207,7.079 31.207,7.079 C30.812,7.878 30.052,8.431 29.172,8.559 C29.172,8.559 25.092,9.151 25.092,9.151 Z" id="path-6" class="cls-5" fill-rule="evenodd"/>
  </g>
</svg>
