<svg xmlns="http://www.w3.org/2000/svg" xmlns:xlink="http://www.w3.org/1999/xlink" preserveAspectRatio="xMidYMid" width="69" height="61" viewBox="0 0 69 61">
  <defs>
    <style>

      .cls-3 {
        fill: #81bda4;
      }

      .cls-4 {
        fill: #ffffff;
      }

      .cls-5 {
        fill: #000000;
      }

      .cls-7 {
        fill: #99746a;
      }
    </style>
  </defs>
  <g id="group-62svg">
    <path d="M60.413,21.183 C64.906,21.183 68.000,24.825 68.000,29.318 C68.000,29.318 68.000,52.708 68.000,52.708 C68.000,57.201 65.454,61.000 60.961,61.000 C60.961,61.000 17.232,61.000 17.232,61.000 C12.739,61.000 8.000,57.201 8.000,52.708 C8.000,52.708 8.000,29.318 8.000,29.318 C8.000,24.825 11.916,21.183 16.410,21.183 C16.410,21.183 16.410,21.183 16.410,21.183 " id="path-1" class="cls-3" fill-rule="evenodd"/>
    <path d="M68.079,26.268 C68.079,26.268 43.122,41.484 43.122,41.484 C40.648,42.897 37.616,42.915 35.126,41.529 C35.126,41.529 10.622,26.268 10.622,26.268 C10.622,26.268 10.622,26.268 10.622,26.268 " id="path-2" class="cls-4" fill-rule="evenodd"/>
    <path d="M53.961,60.000 C53.961,60.000 10.232,60.000 10.232,60.000 C4.590,60.000 -0.000,55.831 -0.000,50.708 C-0.000,50.708 -0.000,27.318 -0.000,27.318 C-0.000,22.006 4.389,17.683 9.785,17.683 C10.613,17.683 11.285,18.354 11.285,19.183 C11.285,20.011 10.613,20.683 9.785,20.683 C6.107,20.683 3.000,23.721 3.000,27.318 C3.000,27.318 3.000,50.708 3.000,50.708 C3.000,54.472 6.739,57.000 10.232,57.000 C10.232,57.000 53.961,57.000 53.961,57.000 C57.573,57.000 60.000,54.472 60.000,50.708 C60.000,50.708 60.000,27.318 60.000,27.318 C60.000,23.598 57.216,20.683 53.663,20.683 C52.834,20.683 52.163,20.011 52.163,19.183 C52.163,18.354 52.834,17.683 53.663,17.683 C58.898,17.683 63.000,21.915 63.000,27.318 C63.000,27.318 63.000,50.708 63.000,50.708 C63.000,56.092 59.199,60.000 53.961,60.000 Z" id="path-3" class="cls-5" fill-rule="evenodd"/>
    <path d="M32.065,42.044 C30.447,42.044 28.838,41.641 27.397,40.840 C27.397,40.840 2.829,25.541 2.829,25.541 C2.126,25.103 1.911,24.178 2.349,23.475 C2.787,22.771 3.712,22.557 4.415,22.994 C4.415,22.994 28.920,38.256 28.920,38.256 C30.874,39.342 33.373,39.327 35.377,38.182 C35.377,38.182 59.275,23.002 59.275,23.002 C59.976,22.557 60.902,22.764 61.345,23.463 C61.790,24.162 61.582,25.090 60.883,25.533 C60.883,25.533 36.926,40.750 36.926,40.750 C35.416,41.614 33.736,42.044 32.065,42.044 Z" id="path-4" class="cls-5" fill-rule="evenodd"/>
    <path d="M19.000,28.996 C19.000,28.996 19.000,8.148 19.000,8.148 C19.000,5.902 21.155,5.000 23.401,5.000 C23.401,5.000 46.791,5.000 46.791,5.000 C49.038,5.000 50.000,5.902 50.000,8.148 C50.000,8.148 50.000,28.996 50.000,28.996 C50.000,28.996 43.142,18.318 43.142,18.318 C43.142,18.318 36.407,27.091 36.407,27.091 C36.407,27.091 30.585,20.352 30.585,20.352 C30.585,20.352 19.000,28.996 19.000,28.996 Z" id="path-5" class="cls-7" fill-rule="evenodd"/>
    <path d="M46.500,27.496 C46.008,27.496 45.535,27.253 45.251,26.827 C45.251,26.827 39.294,17.878 39.294,17.878 C39.294,17.878 33.714,25.014 33.714,25.014 C33.435,25.371 33.010,25.582 32.557,25.590 C32.127,25.595 31.672,25.400 31.381,25.053 C31.381,25.053 26.664,19.411 26.664,19.411 C26.664,19.411 16.406,27.191 16.406,27.191 C15.953,27.535 15.341,27.592 14.833,27.340 C14.323,27.086 14.000,26.565 14.000,25.996 C14.000,25.996 14.000,5.148 14.000,5.148 C14.000,2.165 16.271,-0.000 19.401,-0.000 C19.401,-0.000 42.791,-0.000 42.791,-0.000 C45.907,-0.000 48.000,2.069 48.000,5.148 C48.000,5.148 48.000,25.996 48.000,25.996 C48.000,26.657 47.567,27.240 46.934,27.432 C46.790,27.475 46.644,27.496 46.500,27.496 ZM19.401,3.000 C18.838,3.000 17.000,3.154 17.000,5.148 C17.000,5.148 17.000,22.976 17.000,22.976 C17.000,22.976 25.991,16.156 25.991,16.156 C26.629,15.673 27.535,15.776 28.048,16.390 C28.048,16.390 32.493,21.705 32.493,21.705 C32.493,21.705 38.210,14.394 38.210,14.394 C38.506,14.015 38.964,13.805 39.449,13.819 C39.930,13.838 40.373,14.086 40.640,14.487 C40.640,14.487 45.000,21.036 45.000,21.036 C45.000,21.036 45.000,5.148 45.000,5.148 C45.000,3.373 43.799,3.000 42.791,3.000 C42.791,3.000 19.401,3.000 19.401,3.000 Z" id="path-6" class="cls-5" fill-rule="evenodd"/>
    <path d="M27.368,11.988 C26.539,11.988 25.868,11.316 25.868,10.488 C25.868,9.388 24.973,8.492 23.872,8.492 C22.772,8.492 21.877,9.388 21.877,10.488 C21.877,11.316 21.206,11.988 20.377,11.988 C19.548,11.988 18.877,11.316 18.877,10.488 C18.877,7.733 21.118,5.492 23.872,5.492 C26.627,5.492 28.868,7.733 28.868,10.488 C28.868,11.316 28.196,11.988 27.368,11.988 Z" id="path-7" class="cls-5" fill-rule="evenodd"/>
  </g>
</svg>
