<svg xmlns="http://www.w3.org/2000/svg" xmlns:xlink="http://www.w3.org/1999/xlink" preserveAspectRatio="xMidYMid" width="52" height="67" viewBox="0 0 52 67">
  <defs>
    <style>

      .cls-3 {
        fill: #e56a77;
      }

      .cls-4 {
        fill: #000000;
      }
    </style>
  </defs>
  <g id="group-33svg">
    <path d="M43.588,6.000 C43.588,6.000 16.596,6.000 16.596,6.000 C11.410,6.000 7.000,10.369 7.000,15.554 C7.000,15.554 7.000,66.165 7.000,66.165 C7.000,66.165 17.997,52.000 17.997,52.000 C17.997,52.000 43.588,52.000 43.588,52.000 C48.773,52.000 52.000,47.732 52.000,42.546 C52.000,42.546 52.000,15.554 52.000,15.554 C52.000,10.369 48.773,6.000 43.588,6.000 Z" id="path-1" class="cls-3" fill-rule="evenodd"/>
    <path d="M1.500,63.665 C1.347,63.665 1.192,63.642 1.041,63.593 C0.421,63.394 -0.000,62.817 -0.000,62.165 C-0.000,62.165 -0.000,11.554 -0.000,11.554 C-0.000,5.291 4.852,-0.000 10.596,-0.000 C10.596,-0.000 37.588,-0.000 37.588,-0.000 C43.330,-0.000 48.000,5.183 48.000,11.554 C48.000,11.554 48.000,38.546 48.000,38.546 C48.000,44.603 43.621,49.000 37.588,49.000 C37.588,49.000 12.768,49.000 12.768,49.000 C12.768,49.000 2.720,63.038 2.720,63.038 C2.433,63.439 1.975,63.665 1.500,63.665 ZM10.596,3.000 C6.052,3.000 3.000,7.423 3.000,11.554 C3.000,11.554 3.000,57.492 3.000,57.492 C3.000,57.492 10.777,46.627 10.777,46.627 C11.059,46.233 11.513,46.000 11.997,46.000 C11.997,46.000 37.588,46.000 37.588,46.000 C41.952,46.000 45.000,42.935 45.000,38.546 C45.000,38.546 45.000,11.554 45.000,11.554 C45.000,7.440 42.166,3.000 37.588,3.000 C37.588,3.000 10.596,3.000 10.596,3.000 Z" id="path-2" class="cls-4" fill-rule="evenodd"/>
    <path d="M32.500,47.847 C31.998,47.847 31.517,47.594 31.236,47.155 C31.236,47.155 28.091,42.231 28.091,42.231 C28.091,42.231 25.162,46.058 25.162,46.058 C24.893,46.409 24.482,46.624 24.040,46.644 C23.604,46.664 23.169,46.488 22.869,46.163 C22.869,46.163 19.851,42.894 19.851,42.894 C19.851,42.894 13.377,47.563 13.377,47.563 C12.921,47.893 12.317,47.939 11.817,47.683 C11.315,47.426 11.000,46.910 11.000,46.347 C11.000,46.347 11.000,32.492 11.000,32.492 C11.000,30.469 12.354,29.000 14.220,29.000 C14.220,29.000 30.220,29.000 30.220,29.000 C32.008,29.000 34.000,30.434 34.000,32.492 C34.000,32.492 34.000,46.347 34.000,46.347 C34.000,47.014 33.560,47.600 32.920,47.787 C32.781,47.828 32.640,47.847 32.500,47.847 ZM14.220,32.000 C14.021,32.000 14.000,32.344 14.000,32.492 C14.000,32.492 14.000,43.415 14.000,43.415 C14.000,43.415 19.174,39.684 19.174,39.684 C19.789,39.240 20.639,39.325 21.153,39.883 C21.153,39.883 23.864,42.818 23.864,42.818 C23.864,42.818 27.012,38.707 27.012,38.707 C27.309,38.319 27.768,38.093 28.267,38.120 C28.755,38.141 29.204,38.399 29.467,38.811 C29.467,38.811 31.000,41.212 31.000,41.212 C31.000,41.212 31.000,32.492 31.000,32.492 C31.000,32.337 30.608,32.000 30.220,32.000 C30.220,32.000 14.220,32.000 14.220,32.000 Z" id="path-3" class="cls-4" fill-rule="evenodd"/>
    <path d="M20.808,38.082 C19.979,38.082 19.308,37.411 19.308,36.583 C19.308,36.195 18.993,35.880 18.605,35.880 C18.218,35.880 17.903,36.195 17.903,36.583 C17.903,37.411 17.231,38.082 16.403,38.082 C15.574,38.082 14.903,37.411 14.903,36.583 C14.903,34.541 16.564,32.880 18.605,32.880 C20.647,32.880 22.308,34.541 22.308,36.583 C22.308,37.411 21.636,38.082 20.808,38.082 Z" id="path-4" class="cls-4" fill-rule="evenodd"/>
  </g>
</svg>
