<svg xmlns="http://www.w3.org/2000/svg" xmlns:xlink="http://www.w3.org/1999/xlink" preserveAspectRatio="xMidYMid" width="69" height="53" viewBox="0 0 69 53">
  <defs>
    <style>

      .cls-3 {
        fill: #81bda4;
      }

      .cls-4 {
        fill: #ffffff;
      }

      .cls-5 {
        fill: #000000;
      }

      .cls-7 {
        fill: #99746a;
      }
    </style>
  </defs>
  <g id="group-55svg">
    <path d="M60.439,13.415 C64.932,13.415 68.000,17.057 68.000,21.550 C68.000,21.550 68.000,44.940 68.000,44.940 C68.000,49.434 65.507,53.000 61.013,53.000 C61.013,53.000 17.285,53.000 17.285,53.000 C12.791,53.000 8.000,49.434 8.000,44.940 C8.000,44.940 8.000,21.550 8.000,21.550 C8.000,17.057 11.930,13.415 16.423,13.415 C16.423,13.415 16.423,13.415 16.423,13.415 " id="path-1" class="cls-3" fill-rule="evenodd"/>
    <path d="M68.132,18.499 C68.132,18.499 43.174,33.716 43.174,33.716 C40.701,35.130 37.668,35.147 35.179,33.761 C35.179,33.761 10.674,18.499 10.674,18.499 C10.674,18.499 10.674,18.499 10.674,18.499 " id="path-2" class="cls-4" fill-rule="evenodd"/>
    <path d="M54.013,52.000 C54.013,52.000 10.285,52.000 10.285,52.000 C5.338,52.000 -0.000,48.536 -0.000,42.940 C-0.000,42.940 -0.000,19.550 -0.000,19.550 C-0.000,14.237 4.395,9.915 9.798,9.915 C10.626,9.915 11.298,10.586 11.298,11.415 C11.298,12.244 10.626,12.915 9.798,12.915 C6.113,12.915 3.000,15.954 3.000,19.550 C3.000,19.550 3.000,42.940 3.000,42.940 C3.000,46.684 6.781,49.000 10.285,49.000 C10.285,49.000 54.013,49.000 54.013,49.000 C57.650,49.000 60.000,46.621 60.000,42.940 C60.000,42.940 60.000,19.550 60.000,19.550 C60.000,15.768 57.287,12.915 53.689,12.915 C52.860,12.915 52.189,12.244 52.189,11.415 C52.189,10.586 52.860,9.915 53.689,9.915 C58.910,9.915 63.000,14.147 63.000,19.550 C63.000,19.550 63.000,42.940 63.000,42.940 C63.000,48.274 59.305,52.000 54.013,52.000 Z" id="path-3" class="cls-5" fill-rule="evenodd"/>
    <path d="M32.117,34.276 C30.500,34.276 28.891,33.874 27.450,33.072 C27.450,33.072 2.881,17.773 2.881,17.773 C2.178,17.335 1.963,16.410 2.401,15.707 C2.839,15.003 3.764,14.789 4.467,15.226 C4.467,15.226 28.972,30.488 28.972,30.488 C30.927,31.573 33.425,31.560 35.430,30.414 C35.430,30.414 59.328,15.233 59.328,15.233 C60.029,14.789 60.954,14.996 61.398,15.695 C61.842,16.395 61.635,17.321 60.936,17.766 C60.936,17.766 36.978,32.982 36.978,32.982 C35.469,33.846 33.789,34.276 32.117,34.276 Z" id="path-4" class="cls-5" fill-rule="evenodd"/>
    <path d="M41.152,23.000 C41.152,23.000 29.402,23.000 29.402,23.000 C28.302,23.000 27.000,22.560 27.000,21.459 C27.000,21.459 27.000,10.000 27.000,10.000 C27.000,10.000 43.000,10.000 43.000,10.000 C43.000,10.000 43.000,21.459 43.000,21.459 C43.000,22.564 42.257,23.000 41.152,23.000 Z" id="path-5" class="cls-7" fill-rule="evenodd"/>
    <path d="M30.856,19.577 C30.856,19.577 30.857,19.577 30.857,19.577 C31.974,19.577 32.770,18.360 32.438,17.294 C32.438,17.294 31.687,14.820 31.687,14.820 C31.687,14.820 32.219,14.156 32.219,13.719 C32.219,12.975 31.616,12.297 30.871,12.297 C30.127,12.297 29.523,12.864 29.523,13.608 C29.523,14.036 30.008,14.782 30.008,14.782 C30.008,14.782 29.273,17.303 29.273,17.303 C28.946,18.368 29.743,19.577 30.856,19.577 Z" id="path-6" class="cls-5" fill-rule="evenodd"/>
    <path d="M37.152,24.000 C37.152,24.000 25.402,24.000 25.402,24.000 C23.495,24.000 22.000,22.444 22.000,20.459 C22.000,20.459 22.000,8.000 22.000,8.000 C22.000,8.000 41.000,8.000 41.000,8.000 C41.000,8.000 41.000,20.459 41.000,20.459 C41.000,22.485 38.969,24.000 37.152,24.000 ZM25.000,11.000 C25.000,11.000 25.000,20.459 25.000,20.459 C25.000,20.725 25.150,21.000 25.402,21.000 C25.402,21.000 37.152,21.000 37.152,21.000 C37.539,21.000 37.983,20.624 38.000,20.458 C38.000,20.458 38.000,11.000 38.000,11.000 C38.000,11.000 25.000,11.000 25.000,11.000 Z" id="path-7" class="cls-5" fill-rule="evenodd"/>
    <path d="M39.500,10.500 C38.671,10.500 38.000,9.829 38.000,9.000 C38.000,9.000 38.000,8.734 38.000,8.734 C38.000,5.626 35.066,3.000 31.593,3.000 C28.469,3.000 25.000,5.355 25.000,8.734 C25.000,8.734 25.000,9.000 25.000,9.000 C25.000,9.829 24.329,10.500 23.500,10.500 C22.671,10.500 22.000,9.829 22.000,9.000 C22.000,9.000 22.000,8.734 22.000,8.734 C22.000,4.000 26.388,-0.000 31.582,-0.000 C36.780,-0.000 41.000,3.918 41.000,8.734 C41.000,8.734 41.000,9.000 41.000,9.000 C41.000,9.829 40.329,10.500 39.500,10.500 Z" id="path-8" class="cls-5" fill-rule="evenodd"/>
  </g>
</svg>
