<svg xmlns="http://www.w3.org/2000/svg" xmlns:xlink="http://www.w3.org/1999/xlink" preserveAspectRatio="xMidYMid" width="69" height="49" viewBox="0 0 69 49">
  <defs>
    <style>

      .cls-3 {
        fill: #81bda4;
      }

      .cls-4 {
        fill: #ffffff;
      }

      .cls-5 {
        fill: #000000;
      }
    </style>
  </defs>
  <g id="group-60svg">
    <path d="M60.584,9.650 C65.077,9.650 68.000,13.292 68.000,17.786 C68.000,17.786 68.000,41.176 68.000,41.176 C68.000,45.669 65.797,49.000 61.304,49.000 C61.304,49.000 17.575,49.000 17.575,49.000 C13.082,49.000 8.000,45.669 8.000,41.176 C8.000,41.176 8.000,17.786 8.000,17.786 C8.000,13.292 12.002,9.650 16.495,9.650 C16.495,9.650 16.495,9.650 16.495,9.650 " id="path-1" class="cls-3" fill-rule="evenodd"/>
    <path d="M68.423,14.735 C68.423,14.735 43.465,29.951 43.465,29.951 C40.992,31.365 37.959,31.383 35.470,29.996 C35.470,29.996 10.965,14.735 10.965,14.735 C10.965,14.735 10.965,14.735 10.965,14.735 " id="path-2" class="cls-4" fill-rule="evenodd"/>
    <path d="M54.304,48.000 C54.304,48.000 10.575,48.000 10.575,48.000 C5.377,48.000 -0.000,44.699 -0.000,39.176 C-0.000,39.176 -0.000,15.786 -0.000,15.786 C-0.000,10.563 4.519,6.150 9.870,6.150 C10.698,6.150 11.370,6.822 11.370,7.650 C11.370,8.479 10.698,9.150 9.870,9.150 C6.146,9.150 3.000,12.189 3.000,15.786 C3.000,15.786 3.000,39.176 3.000,39.176 C3.000,42.773 6.932,45.000 10.575,45.000 C10.575,45.000 54.304,45.000 54.304,45.000 C57.924,45.000 60.000,42.877 60.000,39.176 C60.000,39.176 60.000,15.786 60.000,15.786 C60.000,12.003 57.350,9.150 53.834,9.150 C53.006,9.150 52.334,8.479 52.334,7.650 C52.334,6.822 53.006,6.150 53.834,6.150 C59.060,6.150 63.000,10.293 63.000,15.786 C63.000,15.786 63.000,39.176 63.000,39.176 C63.000,44.536 59.587,48.000 54.304,48.000 Z" id="path-3" class="cls-5" fill-rule="evenodd"/>
    <path d="M32.407,30.512 C30.790,30.512 29.181,30.109 27.740,29.307 C27.740,29.307 3.172,14.008 3.172,14.008 C2.469,13.570 2.254,12.645 2.691,11.942 C3.130,11.237 4.055,11.026 4.758,11.461 C4.758,11.461 29.263,26.723 29.263,26.723 C31.218,27.809 33.715,27.794 35.721,26.649 C35.721,26.649 59.618,11.469 59.618,11.469 C60.319,11.024 61.244,11.230 61.689,11.931 C62.133,12.630 61.927,13.557 61.227,14.001 C61.227,14.001 37.269,29.218 37.269,29.218 C35.759,30.081 34.079,30.512 32.407,30.512 Z" id="path-4" class="cls-5" fill-rule="evenodd"/>
    <path d="M48.000,3.000 C48.000,3.000 16.000,3.000 16.000,3.000 C15.172,3.000 14.500,2.329 14.500,1.500 C14.500,0.671 15.172,-0.000 16.000,-0.000 C16.000,-0.000 48.000,-0.000 48.000,-0.000 C48.828,-0.000 49.500,0.671 49.500,1.500 C49.500,2.329 48.828,3.000 48.000,3.000 Z" id="path-5" class="cls-5" fill-rule="evenodd"/>
    <path d="M48.000,9.000 C48.000,9.000 16.000,9.000 16.000,9.000 C15.172,9.000 14.500,8.329 14.500,7.500 C14.500,6.671 15.172,6.000 16.000,6.000 C16.000,6.000 48.000,6.000 48.000,6.000 C48.828,6.000 49.500,6.671 49.500,7.500 C49.500,8.329 48.828,9.000 48.000,9.000 Z" id="path-6" class="cls-5" fill-rule="evenodd"/>
    <path d="M48.000,15.000 C48.000,15.000 16.000,15.000 16.000,15.000 C15.172,15.000 14.500,14.329 14.500,13.500 C14.500,12.671 15.172,12.000 16.000,12.000 C16.000,12.000 48.000,12.000 48.000,12.000 C48.828,12.000 49.500,12.671 49.500,13.500 C49.500,14.329 48.828,15.000 48.000,15.000 Z" id="path-7" class="cls-5" fill-rule="evenodd"/>
  </g>
</svg>
