<svg width="301" height="131" viewBox="0 0 301 131" fill="none" xmlns="http://www.w3.org/2000/svg">
<rect width="300" height="130" transform="translate(0.927734 0.514893)" fill="#3CB3E7"/>
<mask id="mask0" mask-type="alpha" maskUnits="userSpaceOnUse" x="0" y="0" width="301" height="131">
<rect width="300" height="130" transform="translate(0.927734 0.514893)" fill="#3CB3E7"/>
</mask>
<g mask="url(#mask0)">
<path d="M10.7406 0.011001C8.27715 0.165186 6.60201 0.524938 4.43419 1.09028C4.43419 1.60423 4.43419 2.11819 4.43419 2.58075C2.95613 2.47796 1.28099 3.09467 0.443419 3.96839C0.197075 4.22536 0 4.63654 0 5.0477V33.9317C0 34.754 0.689763 35.4735 1.47806 35.4735H42.8638C43.6521 35.4735 44.3419 34.754 44.3419 33.9317V5.0477C44.3419 4.63654 44.1941 4.27676 43.8985 3.96839C42.6667 2.88909 41.2872 2.47796 39.9077 2.58075C39.9077 2.0668 39.9077 1.55284 39.9077 1.09028C37.4935 0.473543 34.833 0.011001 32.6159 0.011001C28.5759 0.113791 25.3241 1.45006 22.1709 3.0947C18.7221 1.34727 15.2733 -0.143184 10.7406 0.011001ZM11.6274 3.04328C15.0762 3.09468 17.6875 4.22536 20.6929 5.76721V26.9934C16.1109 25.0917 11.9723 25.1945 7.39031 27.0447V3.55723C8.86838 3.24886 10.2479 3.04328 11.6274 3.04328ZM32.813 3.04328C34.094 3.04328 35.4242 3.19748 36.9516 3.50585V26.9934C32.3696 25.0917 28.231 25.0403 23.649 26.9419V5.71583C26.6544 4.22538 29.3149 3.09468 32.813 3.04328ZM4.43419 5.71583C4.43419 14.4016 4.43419 23.0873 4.43419 31.7731C10.3464 28.381 15.766 27.8671 20.6929 30.2826V32.3898H2.95613V5.87001C3.49808 5.61303 3.9415 5.61304 4.43419 5.71583ZM41.3858 5.87001V32.3898H23.649V30.2826C28.5759 27.8671 33.9954 28.381 39.9077 31.7731C39.9077 23.0873 39.9077 14.4016 39.9077 5.71583C40.4004 5.56164 40.9423 5.66443 41.3858 5.87001Z" transform="translate(100.166 45.1695) rotate(-15)" fill="white"/>
<path d="M10.7406 0.011001C8.27715 0.165186 6.60201 0.524938 4.43419 1.09028C4.43419 1.60423 4.43419 2.11819 4.43419 2.58075C2.95613 2.47796 1.28099 3.09467 0.443419 3.96839C0.197075 4.22536 0 4.63654 0 5.0477V33.9317C0 34.754 0.689763 35.4735 1.47806 35.4735H42.8638C43.6521 35.4735 44.3419 34.754 44.3419 33.9317V5.0477C44.3419 4.63654 44.1941 4.27676 43.8985 3.96839C42.6667 2.88909 41.2872 2.47796 39.9077 2.58075C39.9077 2.0668 39.9077 1.55284 39.9077 1.09028C37.4935 0.473543 34.833 0.011001 32.6159 0.011001C28.5759 0.113791 25.3241 1.45006 22.1709 3.0947C18.7221 1.34727 15.2733 -0.143184 10.7406 0.011001ZM11.6274 3.04328C15.0762 3.09468 17.6875 4.22536 20.6929 5.76721V26.9934C16.1109 25.0917 11.9723 25.1945 7.39031 27.0447V3.55723C8.86838 3.24886 10.2479 3.04328 11.6274 3.04328ZM32.813 3.04328C34.094 3.04328 35.4242 3.19748 36.9516 3.50585V26.9934C32.3696 25.0917 28.231 25.0403 23.649 26.9419V5.71583C26.6544 4.22538 29.3149 3.09468 32.813 3.04328ZM4.43419 5.71583C4.43419 14.4016 4.43419 23.0873 4.43419 31.7731C10.3464 28.381 15.766 27.8671 20.6929 30.2826V32.3898H2.95613V5.87001C3.49808 5.61303 3.9415 5.61304 4.43419 5.71583ZM41.3858 5.87001V32.3898H23.649V30.2826C28.5759 27.8671 33.9954 28.381 39.9077 31.7731C39.9077 23.0873 39.9077 14.4016 39.9077 5.71583C40.4004 5.56164 40.9423 5.66443 41.3858 5.87001Z" transform="translate(155.154 30.4357) rotate(-15)" fill="white"/>
<path d="M10.7406 0.011001C8.27715 0.165186 6.60201 0.524938 4.43419 1.09028C4.43419 1.60423 4.43419 2.11819 4.43419 2.58075C2.95613 2.47796 1.28099 3.09467 0.443419 3.96839C0.197075 4.22536 0 4.63654 0 5.0477V33.9317C0 34.754 0.689763 35.4735 1.47806 35.4735H42.8638C43.6521 35.4735 44.3419 34.754 44.3419 33.9317V5.0477C44.3419 4.63654 44.1941 4.27676 43.8985 3.96839C42.6667 2.88909 41.2872 2.47796 39.9077 2.58075C39.9077 2.0668 39.9077 1.55284 39.9077 1.09028C37.4935 0.473543 34.833 0.011001 32.6159 0.011001C28.5759 0.113791 25.3241 1.45006 22.1709 3.0947C18.7221 1.34727 15.2733 -0.143184 10.7406 0.011001ZM11.6274 3.04328C15.0762 3.09468 17.6875 4.22536 20.6929 5.76721V26.9934C16.1109 25.0917 11.9723 25.1945 7.39031 27.0447V3.55723C8.86838 3.24886 10.2479 3.04328 11.6274 3.04328ZM32.813 3.04328C34.094 3.04328 35.4242 3.19748 36.9516 3.50585V26.9934C32.3696 25.0917 28.231 25.0403 23.649 26.9419V5.71583C26.6544 4.22538 29.3149 3.09468 32.813 3.04328ZM4.43419 5.71583C4.43419 14.4016 4.43419 23.0873 4.43419 31.7731C10.3464 28.381 15.766 27.8671 20.6929 30.2826V32.3898H2.95613V5.87001C3.49808 5.61303 3.9415 5.61304 4.43419 5.71583ZM41.3858 5.87001V32.3898H23.649V30.2826C28.5759 27.8671 33.9954 28.381 39.9077 31.7731C39.9077 23.0873 39.9077 14.4016 39.9077 5.71583C40.4004 5.56164 40.9423 5.66443 41.3858 5.87001Z" transform="translate(210.141 15.7018) rotate(-15)" fill="white"/>
<path d="M10.7406 0.011001C8.27715 0.165186 6.60201 0.524938 4.43419 1.09028C4.43419 1.60423 4.43419 2.11819 4.43419 2.58075C2.95613 2.47796 1.28099 3.09467 0.443419 3.96839C0.197075 4.22536 0 4.63654 0 5.0477V33.9317C0 34.754 0.689763 35.4735 1.47806 35.4735H42.8638C43.6521 35.4735 44.3419 34.754 44.3419 33.9317V5.0477C44.3419 4.63654 44.1941 4.27676 43.8985 3.96839C42.6667 2.88909 41.2872 2.47796 39.9077 2.58075C39.9077 2.0668 39.9077 1.55284 39.9077 1.09028C37.4935 0.473543 34.833 0.011001 32.6159 0.011001C28.5759 0.113791 25.3241 1.45006 22.1709 3.0947C18.7221 1.34727 15.2733 -0.143184 10.7406 0.011001ZM11.6274 3.04328C15.0762 3.09468 17.6875 4.22536 20.6929 5.76721V26.9934C16.1109 25.0917 11.9723 25.1945 7.39031 27.0447V3.55723C8.86838 3.24886 10.2479 3.04328 11.6274 3.04328ZM32.813 3.04328C34.094 3.04328 35.4242 3.19748 36.9516 3.50585V26.9934C32.3696 25.0917 28.231 25.0403 23.649 26.9419V5.71583C26.6544 4.22538 29.3149 3.09468 32.813 3.04328ZM4.43419 5.71583C4.43419 14.4016 4.43419 23.0873 4.43419 31.7731C10.3464 28.381 15.766 27.8671 20.6929 30.2826V32.3898H2.95613V5.87001C3.49808 5.61303 3.9415 5.61304 4.43419 5.71583ZM41.3858 5.87001V32.3898H23.649V30.2826C28.5759 27.8671 33.9954 28.381 39.9077 31.7731C39.9077 23.0873 39.9077 14.4016 39.9077 5.71583C40.4004 5.56164 40.9423 5.66443 41.3858 5.87001Z" transform="translate(265.129 0.968018) rotate(-15)" fill="white"/>
<path d="M10.7406 0.011001C8.27715 0.165186 6.60201 0.524938 4.43419 1.09028C4.43419 1.60423 4.43419 2.11819 4.43419 2.58075C2.95613 2.47796 1.28099 3.09467 0.443419 3.96839C0.197075 4.22536 0 4.63654 0 5.0477V33.9317C0 34.754 0.689763 35.4735 1.47806 35.4735H42.8638C43.6521 35.4735 44.3419 34.754 44.3419 33.9317V5.0477C44.3419 4.63654 44.1941 4.27676 43.8985 3.96839C42.6667 2.88909 41.2872 2.47796 39.9077 2.58075C39.9077 2.0668 39.9077 1.55284 39.9077 1.09028C37.4935 0.473543 34.833 0.011001 32.6159 0.011001C28.5759 0.113791 25.3241 1.45006 22.1709 3.0947C18.7221 1.34727 15.2733 -0.143184 10.7406 0.011001ZM11.6274 3.04328C15.0762 3.09468 17.6875 4.22536 20.6929 5.76721V26.9934C16.1109 25.0917 11.9723 25.1945 7.39031 27.0447V3.55723C8.86838 3.24886 10.2479 3.04328 11.6274 3.04328ZM32.813 3.04328C34.094 3.04328 35.4242 3.19748 36.9516 3.50585V26.9934C32.3696 25.0917 28.231 25.0403 23.649 26.9419V5.71583C26.6544 4.22538 29.3149 3.09468 32.813 3.04328ZM4.43419 5.71583C4.43419 14.4016 4.43419 23.0873 4.43419 31.7731C10.3464 28.381 15.766 27.8671 20.6929 30.2826V32.3898H2.95613V5.87001C3.49808 5.61303 3.9415 5.61304 4.43419 5.71583ZM41.3858 5.87001V32.3898H23.649V30.2826C28.5759 27.8671 33.9954 28.381 39.9077 31.7731C39.9077 23.0873 39.9077 14.4016 39.9077 5.71583C40.4004 5.56164 40.9423 5.66443 41.3858 5.87001Z" transform="translate(84.0496 94.9967) rotate(-15)" fill="white"/>
<path d="M10.7406 0.011001C8.27715 0.165186 6.60201 0.524938 4.43419 1.09028C4.43419 1.60423 4.43419 2.11819 4.43419 2.58075C2.95613 2.47796 1.28099 3.09467 0.443419 3.96839C0.197075 4.22536 0 4.63654 0 5.0477V33.9317C0 34.754 0.689763 35.4735 1.47806 35.4735H42.8638C43.6521 35.4735 44.3419 34.754 44.3419 33.9317V5.0477C44.3419 4.63654 44.1941 4.27676 43.8985 3.96839C42.6667 2.88909 41.2872 2.47796 39.9077 2.58075C39.9077 2.0668 39.9077 1.55284 39.9077 1.09028C37.4935 0.473543 34.833 0.011001 32.6159 0.011001C28.5759 0.113791 25.3241 1.45006 22.1709 3.0947C18.7221 1.34727 15.2733 -0.143184 10.7406 0.011001ZM11.6274 3.04328C15.0762 3.09468 17.6875 4.22536 20.6929 5.76721V26.9934C16.1109 25.0917 11.9723 25.1945 7.39031 27.0447V3.55723C8.86838 3.24886 10.2479 3.04328 11.6274 3.04328ZM32.813 3.04328C34.094 3.04328 35.4242 3.19748 36.9516 3.50585V26.9934C32.3696 25.0917 28.231 25.0403 23.649 26.9419V5.71583C26.6544 4.22538 29.3149 3.09468 32.813 3.04328ZM4.43419 5.71583C4.43419 14.4016 4.43419 23.0873 4.43419 31.7731C10.3464 28.381 15.766 27.8671 20.6929 30.2826V32.3898H2.95613V5.87001C3.49808 5.61303 3.9415 5.61304 4.43419 5.71583ZM41.3858 5.87001V32.3898H23.649V30.2826C28.5759 27.8671 33.9954 28.381 39.9077 31.7731C39.9077 23.0873 39.9077 14.4016 39.9077 5.71583C40.4004 5.56164 40.9423 5.66443 41.3858 5.87001Z" transform="translate(139.037 80.2628) rotate(-15)" fill="white"/>
<path d="M10.7406 0.011001C8.27715 0.165186 6.60201 0.524938 4.43419 1.09028C4.43419 1.60423 4.43419 2.11819 4.43419 2.58075C2.95613 2.47796 1.28099 3.09467 0.443419 3.96839C0.197075 4.22536 0 4.63654 0 5.0477V33.9317C0 34.754 0.689763 35.4735 1.47806 35.4735H42.8638C43.6521 35.4735 44.3419 34.754 44.3419 33.9317V5.0477C44.3419 4.63654 44.1941 4.27676 43.8985 3.96839C42.6667 2.88909 41.2872 2.47796 39.9077 2.58075C39.9077 2.0668 39.9077 1.55284 39.9077 1.09028C37.4935 0.473543 34.833 0.011001 32.6159 0.011001C28.5759 0.113791 25.3241 1.45006 22.1709 3.0947C18.7221 1.34727 15.2733 -0.143184 10.7406 0.011001ZM11.6274 3.04328C15.0762 3.09468 17.6875 4.22536 20.6929 5.76721V26.9934C16.1109 25.0917 11.9723 25.1945 7.39031 27.0447V3.55723C8.86838 3.24886 10.2479 3.04328 11.6274 3.04328ZM32.813 3.04328C34.094 3.04328 35.4242 3.19748 36.9516 3.50585V26.9934C32.3696 25.0917 28.231 25.0403 23.649 26.9419V5.71583C26.6544 4.22538 29.3149 3.09468 32.813 3.04328ZM4.43419 5.71583C4.43419 14.4016 4.43419 23.0873 4.43419 31.7731C10.3464 28.381 15.766 27.8671 20.6929 30.2826V32.3898H2.95613V5.87001C3.49808 5.61303 3.9415 5.61304 4.43419 5.71583ZM41.3858 5.87001V32.3898H23.649V30.2826C28.5759 27.8671 33.9954 28.381 39.9077 31.7731C39.9077 23.0873 39.9077 14.4016 39.9077 5.71583C40.4004 5.56164 40.9423 5.66443 41.3858 5.87001Z" transform="translate(194.024 65.529) rotate(-15)" fill="white"/>
<path d="M10.7406 0.011001C8.27715 0.165186 6.60201 0.524938 4.43419 1.09028C4.43419 1.60423 4.43419 2.11819 4.43419 2.58075C2.95613 2.47796 1.28099 3.09467 0.443419 3.96839C0.197075 4.22536 0 4.63654 0 5.0477V33.9317C0 34.754 0.689763 35.4735 1.47806 35.4735H42.8638C43.6521 35.4735 44.3419 34.754 44.3419 33.9317V5.0477C44.3419 4.63654 44.1941 4.27676 43.8985 3.96839C42.6667 2.88909 41.2872 2.47796 39.9077 2.58075C39.9077 2.0668 39.9077 1.55284 39.9077 1.09028C37.4935 0.473543 34.833 0.011001 32.6159 0.011001C28.5759 0.113791 25.3241 1.45006 22.1709 3.0947C18.7221 1.34727 15.2733 -0.143184 10.7406 0.011001ZM11.6274 3.04328C15.0762 3.09468 17.6875 4.22536 20.6929 5.76721V26.9934C16.1109 25.0917 11.9723 25.1945 7.39031 27.0447V3.55723C8.86838 3.24886 10.2479 3.04328 11.6274 3.04328ZM32.813 3.04328C34.094 3.04328 35.4242 3.19748 36.9516 3.50585V26.9934C32.3696 25.0917 28.231 25.0403 23.649 26.9419V5.71583C26.6544 4.22538 29.3149 3.09468 32.813 3.04328ZM4.43419 5.71583C4.43419 14.4016 4.43419 23.0873 4.43419 31.7731C10.3464 28.381 15.766 27.8671 20.6929 30.2826V32.3898H2.95613V5.87001C3.49808 5.61303 3.9415 5.61304 4.43419 5.71583ZM41.3858 5.87001V32.3898H23.649V30.2826C28.5759 27.8671 33.9954 28.381 39.9077 31.7731C39.9077 23.0873 39.9077 14.4016 39.9077 5.71583C40.4004 5.56164 40.9423 5.66443 41.3858 5.87001Z" transform="translate(249.012 50.7951) rotate(-15)" fill="white"/>
<path d="M10.7406 0.011001C8.27715 0.165186 6.60201 0.524938 4.43419 1.09028C4.43419 1.60423 4.43419 2.11819 4.43419 2.58075C2.95613 2.47796 1.28099 3.09467 0.443419 3.96839C0.197075 4.22536 0 4.63654 0 5.0477V33.9317C0 34.754 0.689763 35.4735 1.47806 35.4735H42.8638C43.6521 35.4735 44.3419 34.754 44.3419 33.9317V5.0477C44.3419 4.63654 44.1941 4.27676 43.8985 3.96839C42.6667 2.88909 41.2872 2.47796 39.9077 2.58075C39.9077 2.0668 39.9077 1.55284 39.9077 1.09028C37.4935 0.473543 34.833 0.011001 32.6159 0.011001C28.5759 0.113791 25.3241 1.45006 22.1709 3.0947C18.7221 1.34727 15.2733 -0.143184 10.7406 0.011001ZM11.6274 3.04328C15.0762 3.09468 17.6875 4.22536 20.6929 5.76721V26.9934C16.1109 25.0917 11.9723 25.1945 7.39031 27.0447V3.55723C8.86838 3.24886 10.2479 3.04328 11.6274 3.04328ZM32.813 3.04328C34.094 3.04328 35.4242 3.19748 36.9516 3.50585V26.9934C32.3696 25.0917 28.231 25.0403 23.649 26.9419V5.71583C26.6544 4.22538 29.3149 3.09468 32.813 3.04328ZM4.43419 5.71583C4.43419 14.4016 4.43419 23.0873 4.43419 31.7731C10.3464 28.381 15.766 27.8671 20.6929 30.2826V32.3898H2.95613V5.87001C3.49808 5.61303 3.9415 5.61304 4.43419 5.71583ZM41.3858 5.87001V32.3898H23.649V30.2826C28.5759 27.8671 33.9954 28.381 39.9077 31.7731C39.9077 23.0873 39.9077 14.4016 39.9077 5.71583C40.4004 5.56164 40.9423 5.66443 41.3858 5.87001Z" transform="translate(61.295 10.0762) rotate(-15)" fill="white"/>
<path d="M10.7406 0.011001C8.27715 0.165186 6.60201 0.524938 4.43419 1.09028C4.43419 1.60423 4.43419 2.11819 4.43419 2.58075C2.95613 2.47796 1.28099 3.09467 0.443419 3.96839C0.197075 4.22536 0 4.63654 0 5.0477V33.9317C0 34.754 0.689763 35.4735 1.47806 35.4735H42.8638C43.6521 35.4735 44.3419 34.754 44.3419 33.9317V5.0477C44.3419 4.63654 44.1941 4.27676 43.8985 3.96839C42.6667 2.88909 41.2872 2.47796 39.9077 2.58075C39.9077 2.0668 39.9077 1.55284 39.9077 1.09028C37.4935 0.473543 34.833 0.011001 32.6159 0.011001C28.5759 0.113791 25.3241 1.45006 22.1709 3.0947C18.7221 1.34727 15.2733 -0.143184 10.7406 0.011001ZM11.6274 3.04328C15.0762 3.09468 17.6875 4.22536 20.6929 5.76721V26.9934C16.1109 25.0917 11.9723 25.1945 7.39031 27.0447V3.55723C8.86838 3.24886 10.2479 3.04328 11.6274 3.04328ZM32.813 3.04328C34.094 3.04328 35.4242 3.19748 36.9516 3.50585V26.9934C32.3696 25.0917 28.231 25.0403 23.649 26.9419V5.71583C26.6544 4.22538 29.3149 3.09468 32.813 3.04328ZM4.43419 5.71583C4.43419 14.4016 4.43419 23.0873 4.43419 31.7731C10.3464 28.381 15.766 27.8671 20.6929 30.2826V32.3898H2.95613V5.87001C3.49808 5.61303 3.9415 5.61304 4.43419 5.71583ZM41.3858 5.87001V32.3898H23.649V30.2826C28.5759 27.8671 33.9954 28.381 39.9077 31.7731C39.9077 23.0873 39.9077 14.4016 39.9077 5.71583C40.4004 5.56164 40.9423 5.66443 41.3858 5.87001Z" transform="translate(116.283 -4.65765) rotate(-15)" fill="white"/>
<path d="M10.7406 0.011001C8.27715 0.165186 6.60201 0.524938 4.43419 1.09028C4.43419 1.60423 4.43419 2.11819 4.43419 2.58075C2.95613 2.47796 1.28099 3.09467 0.443419 3.96839C0.197075 4.22536 0 4.63654 0 5.0477V33.9317C0 34.754 0.689763 35.4735 1.47806 35.4735H42.8638C43.6521 35.4735 44.3419 34.754 44.3419 33.9317V5.0477C44.3419 4.63654 44.1941 4.27676 43.8985 3.96839C42.6667 2.88909 41.2872 2.47796 39.9077 2.58075C39.9077 2.0668 39.9077 1.55284 39.9077 1.09028C37.4935 0.473543 34.833 0.011001 32.6159 0.011001C28.5759 0.113791 25.3241 1.45006 22.1709 3.0947C18.7221 1.34727 15.2733 -0.143184 10.7406 0.011001ZM11.6274 3.04328C15.0762 3.09468 17.6875 4.22536 20.6929 5.76721V26.9934C16.1109 25.0917 11.9723 25.1945 7.39031 27.0447V3.55723C8.86838 3.24886 10.2479 3.04328 11.6274 3.04328ZM32.813 3.04328C34.094 3.04328 35.4242 3.19748 36.9516 3.50585V26.9934C32.3696 25.0917 28.231 25.0403 23.649 26.9419V5.71583C26.6544 4.22538 29.3149 3.09468 32.813 3.04328ZM4.43419 5.71583C4.43419 14.4016 4.43419 23.0873 4.43419 31.7731C10.3464 28.381 15.766 27.8671 20.6929 30.2826V32.3898H2.95613V5.87001C3.49808 5.61303 3.9415 5.61304 4.43419 5.71583ZM41.3858 5.87001V32.3898H23.649V30.2826C28.5759 27.8671 33.9954 28.381 39.9077 31.7731C39.9077 23.0873 39.9077 14.4016 39.9077 5.71583C40.4004 5.56164 40.9423 5.66443 41.3858 5.87001Z" transform="translate(171.27 -19.3914) rotate(-15)" fill="white"/>
<path d="M10.7406 0.011001C8.27715 0.165186 6.60201 0.524938 4.43419 1.09028C4.43419 1.60423 4.43419 2.11819 4.43419 2.58075C2.95613 2.47796 1.28099 3.09467 0.443419 3.96839C0.197075 4.22536 0 4.63654 0 5.0477V33.9317C0 34.754 0.689763 35.4735 1.47806 35.4735H42.8638C43.6521 35.4735 44.3419 34.754 44.3419 33.9317V5.0477C44.3419 4.63654 44.1941 4.27676 43.8985 3.96839C42.6667 2.88909 41.2872 2.47796 39.9077 2.58075C39.9077 2.0668 39.9077 1.55284 39.9077 1.09028C37.4935 0.473543 34.833 0.011001 32.6159 0.011001C28.5759 0.113791 25.3241 1.45006 22.1709 3.0947C18.7221 1.34727 15.2733 -0.143184 10.7406 0.011001ZM11.6274 3.04328C15.0762 3.09468 17.6875 4.22536 20.6929 5.76721V26.9934C16.1109 25.0917 11.9723 25.1945 7.39031 27.0447V3.55723C8.86838 3.24886 10.2479 3.04328 11.6274 3.04328ZM32.813 3.04328C34.094 3.04328 35.4242 3.19748 36.9516 3.50585V26.9934C32.3696 25.0917 28.231 25.0403 23.649 26.9419V5.71583C26.6544 4.22538 29.3149 3.09468 32.813 3.04328ZM4.43419 5.71583C4.43419 14.4016 4.43419 23.0873 4.43419 31.7731C10.3464 28.381 15.766 27.8671 20.6929 30.2826V32.3898H2.95613V5.87001C3.49808 5.61303 3.9415 5.61304 4.43419 5.71583ZM41.3858 5.87001V32.3898H23.649V30.2826C28.5759 27.8671 33.9954 28.381 39.9077 31.7731C39.9077 23.0873 39.9077 14.4016 39.9077 5.71583C40.4004 5.56164 40.9423 5.66443 41.3858 5.87001Z" transform="translate(122.921 130.09) rotate(-15)" fill="white"/>
<path d="M10.7406 0.011001C8.27715 0.165186 6.60201 0.524938 4.43419 1.09028C4.43419 1.60423 4.43419 2.11819 4.43419 2.58075C2.95613 2.47796 1.28099 3.09467 0.443419 3.96839C0.197075 4.22536 0 4.63654 0 5.0477V33.9317C0 34.754 0.689763 35.4735 1.47806 35.4735H42.8638C43.6521 35.4735 44.3419 34.754 44.3419 33.9317V5.0477C44.3419 4.63654 44.1941 4.27676 43.8985 3.96839C42.6667 2.88909 41.2872 2.47796 39.9077 2.58075C39.9077 2.0668 39.9077 1.55284 39.9077 1.09028C37.4935 0.473543 34.833 0.011001 32.6159 0.011001C28.5759 0.113791 25.3241 1.45006 22.1709 3.0947C18.7221 1.34727 15.2733 -0.143184 10.7406 0.011001ZM11.6274 3.04328C15.0762 3.09468 17.6875 4.22536 20.6929 5.76721V26.9934C16.1109 25.0917 11.9723 25.1945 7.39031 27.0447V3.55723C8.86838 3.24886 10.2479 3.04328 11.6274 3.04328ZM32.813 3.04328C34.094 3.04328 35.4242 3.19748 36.9516 3.50585V26.9934C32.3696 25.0917 28.231 25.0403 23.649 26.9419V5.71583C26.6544 4.22538 29.3149 3.09468 32.813 3.04328ZM4.43419 5.71583C4.43419 14.4016 4.43419 23.0873 4.43419 31.7731C10.3464 28.381 15.766 27.8671 20.6929 30.2826V32.3898H2.95613V5.87001C3.49808 5.61303 3.9415 5.61304 4.43419 5.71583ZM41.3858 5.87001V32.3898H23.649V30.2826C28.5759 27.8671 33.9954 28.381 39.9077 31.7731C39.9077 23.0873 39.9077 14.4016 39.9077 5.71583C40.4004 5.56164 40.9423 5.66443 41.3858 5.87001Z" transform="translate(177.908 115.356) rotate(-15)" fill="white"/>
<path d="M10.7406 0.011001C8.27715 0.165186 6.60201 0.524938 4.43419 1.09028C4.43419 1.60423 4.43419 2.11819 4.43419 2.58075C2.95613 2.47796 1.28099 3.09467 0.443419 3.96839C0.197075 4.22536 0 4.63654 0 5.0477V33.9317C0 34.754 0.689763 35.4735 1.47806 35.4735H42.8638C43.6521 35.4735 44.3419 34.754 44.3419 33.9317V5.0477C44.3419 4.63654 44.1941 4.27676 43.8985 3.96839C42.6667 2.88909 41.2872 2.47796 39.9077 2.58075C39.9077 2.0668 39.9077 1.55284 39.9077 1.09028C37.4935 0.473543 34.833 0.011001 32.6159 0.011001C28.5759 0.113791 25.3241 1.45006 22.1709 3.0947C18.7221 1.34727 15.2733 -0.143184 10.7406 0.011001ZM11.6274 3.04328C15.0762 3.09468 17.6875 4.22536 20.6929 5.76721V26.9934C16.1109 25.0917 11.9723 25.1945 7.39031 27.0447V3.55723C8.86838 3.24886 10.2479 3.04328 11.6274 3.04328ZM32.813 3.04328C34.094 3.04328 35.4242 3.19748 36.9516 3.50585V26.9934C32.3696 25.0917 28.231 25.0403 23.649 26.9419V5.71583C26.6544 4.22538 29.3149 3.09468 32.813 3.04328ZM4.43419 5.71583C4.43419 14.4016 4.43419 23.0873 4.43419 31.7731C10.3464 28.381 15.766 27.8671 20.6929 30.2826V32.3898H2.95613V5.87001C3.49808 5.61303 3.9415 5.61304 4.43419 5.71583ZM41.3858 5.87001V32.3898H23.649V30.2826C28.5759 27.8671 33.9954 28.381 39.9077 31.7731C39.9077 23.0873 39.9077 14.4016 39.9077 5.71583C40.4004 5.56164 40.9423 5.66443 41.3858 5.87001Z" transform="translate(232.896 100.622) rotate(-15)" fill="white"/>
<path d="M10.7406 0.011001C8.27715 0.165186 6.60201 0.524938 4.43419 1.09028C4.43419 1.60423 4.43419 2.11819 4.43419 2.58075C2.95613 2.47796 1.28099 3.09467 0.443419 3.96839C0.197075 4.22536 0 4.63654 0 5.0477V33.9317C0 34.754 0.689763 35.4735 1.47806 35.4735H42.8638C43.6521 35.4735 44.3419 34.754 44.3419 33.9317V5.0477C44.3419 4.63654 44.1941 4.27676 43.8985 3.96839C42.6667 2.88909 41.2872 2.47796 39.9077 2.58075C39.9077 2.0668 39.9077 1.55284 39.9077 1.09028C37.4935 0.473543 34.833 0.011001 32.6159 0.011001C28.5759 0.113791 25.3241 1.45006 22.1709 3.0947C18.7221 1.34727 15.2733 -0.143184 10.7406 0.011001ZM11.6274 3.04328C15.0762 3.09468 17.6875 4.22536 20.6929 5.76721V26.9934C16.1109 25.0917 11.9723 25.1945 7.39031 27.0447V3.55723C8.86838 3.24886 10.2479 3.04328 11.6274 3.04328ZM32.813 3.04328C34.094 3.04328 35.4242 3.19748 36.9516 3.50585V26.9934C32.3696 25.0917 28.231 25.0403 23.649 26.9419V5.71583C26.6544 4.22538 29.3149 3.09468 32.813 3.04328ZM4.43419 5.71583C4.43419 14.4016 4.43419 23.0873 4.43419 31.7731C10.3464 28.381 15.766 27.8671 20.6929 30.2826V32.3898H2.95613V5.87001C3.49808 5.61303 3.9415 5.61304 4.43419 5.71583ZM41.3858 5.87001V32.3898H23.649V30.2826C28.5759 27.8671 33.9954 28.381 39.9077 31.7731C39.9077 23.0873 39.9077 14.4016 39.9077 5.71583C40.4004 5.56164 40.9423 5.66443 41.3858 5.87001Z" transform="translate(287.883 85.8887) rotate(-15)" fill="white"/>
<path d="M10.7406 0.011001C8.27715 0.165186 6.60201 0.524938 4.43419 1.09028C4.43419 1.60423 4.43419 2.11819 4.43419 2.58075C2.95613 2.47796 1.28099 3.09467 0.443419 3.96839C0.197075 4.22536 0 4.63654 0 5.0477V33.9317C0 34.754 0.689763 35.4735 1.47806 35.4735H42.8638C43.6521 35.4735 44.3419 34.754 44.3419 33.9317V5.0477C44.3419 4.63654 44.1941 4.27676 43.8985 3.96839C42.6667 2.88909 41.2872 2.47796 39.9077 2.58075C39.9077 2.0668 39.9077 1.55284 39.9077 1.09028C37.4935 0.473543 34.833 0.011001 32.6159 0.011001C28.5759 0.113791 25.3241 1.45006 22.1709 3.0947C18.7221 1.34727 15.2733 -0.143184 10.7406 0.011001ZM11.6274 3.04328C15.0762 3.09468 17.6875 4.22536 20.6929 5.76721V26.9934C16.1109 25.0917 11.9723 25.1945 7.39031 27.0447V3.55723C8.86838 3.24886 10.2479 3.04328 11.6274 3.04328ZM32.813 3.04328C34.094 3.04328 35.4242 3.19748 36.9516 3.50585V26.9934C32.3696 25.0917 28.231 25.0403 23.649 26.9419V5.71583C26.6544 4.22538 29.3149 3.09468 32.813 3.04328ZM4.43419 5.71583C4.43419 14.4016 4.43419 23.0873 4.43419 31.7731C10.3464 28.381 15.766 27.8671 20.6929 30.2826V32.3898H2.95613V5.87001C3.49808 5.61303 3.9415 5.61304 4.43419 5.71583ZM41.3858 5.87001V32.3898H23.649V30.2826C28.5759 27.8671 33.9954 28.381 39.9077 31.7731C39.9077 23.0873 39.9077 14.4016 39.9077 5.71583C40.4004 5.56164 40.9423 5.66443 41.3858 5.87001Z" transform="translate(271.766 135.716) rotate(-15)" fill="white"/>
</g>
<rect width="300" height="130" transform="translate(0.927734 0.514893)" fill="url(#paint0_linear)"/>
<defs>
<linearGradient id="paint0_linear" x2="1" gradientUnits="userSpaceOnUse" gradientTransform="matrix(159.292 -43.9139 101.34 362.711 94.2126 -100.88)">
<stop stop-color="#3CB3E7"/>
<stop offset="1" stop-color="#3CB3E7" stop-opacity="0"/>
</linearGradient>
</defs>
</svg>
