<?xml version="1.0" encoding="UTF-8" standalone="no"?>
<svg
   xmlns:dc="http://purl.org/dc/elements/1.1/"
   xmlns:cc="http://creativecommons.org/ns#"
   xmlns:rdf="http://www.w3.org/1999/02/22-rdf-syntax-ns#"
   xmlns:svg="http://www.w3.org/2000/svg"
   xmlns="http://www.w3.org/2000/svg"
   xmlns:sodipodi="http://sodipodi.sourceforge.net/DTD/sodipodi-0.dtd"
   xmlns:inkscape="http://www.inkscape.org/namespaces/inkscape"
   width="99.034775"
   height="99.034775"
   viewBox="0 0 99.034775 99.034775"
   version="1.1"
   preserveAspectRatio="xMidYMid"
   id="svg2"
   inkscape:version="0.91 r13725"
   sodipodi:docname="bitbucket_logo.svg">
  <metadata
     id="metadata16">
    <rdf:RDF>
      <cc:Work
         rdf:about="">
        <dc:format>image/svg+xml</dc:format>
        <dc:type
           rdf:resource="http://purl.org/dc/dcmitype/StillImage" />
        <dc:title></dc:title>
      </cc:Work>
    </rdf:RDF>
  </metadata>
  <defs
     id="defs14" />
  <sodipodi:namedview
     pagecolor="#ffffff"
     bordercolor="#666666"
     borderopacity="1"
     objecttolerance="10"
     gridtolerance="10"
     guidetolerance="10"
     inkscape:pageopacity="0"
     inkscape:pageshadow="2"
     inkscape:window-width="1920"
     inkscape:window-height="974"
     id="namedview12"
     showgrid="false"
     fit-margin-top="0"
     fit-margin-left="0"
     fit-margin-right="0"
     fit-margin-bottom="0"
     inkscape:zoom="1.6"
     inkscape:cx="263.31661"
     inkscape:cy="141.00657"
     inkscape:window-x="0"
     inkscape:window-y="32"
     inkscape:window-maximized="1"
     inkscape:current-layer="svg2" />
  <rect
     style="color:#000000;clip-rule:nonzero;display:inline;overflow:visible;visibility:visible;opacity:1;isolation:auto;mix-blend-mode:normal;color-interpolation:sRGB;color-interpolation-filters:linearRGB;solid-color:#000000;solid-opacity:1;fill:#205081;fill-opacity:1;fill-rule:nonzero;stroke:none;stroke-width:0.96522444;stroke-linecap:butt;stroke-linejoin:miter;stroke-miterlimit:4;stroke-dasharray:none;stroke-dashoffset:0;stroke-opacity:1;color-rendering:auto;image-rendering:auto;shape-rendering:auto;text-rendering:auto;enable-background:accumulate"
     id="rect4144"
     width="99.034775"
     height="99.034775"
     x="0"
     y="0" />
  <g
     id="g4149"
     transform="matrix(0.28868533,0,0,0.28868533,-60.68499,41.000356)"
     style="fill:#ffffff;fill-opacity:1">
    <path
       d="m 376.37126,-121.09203 0,0 c -70.26812,0 -127.98836,18.82181 -127.98836,42.662776 0,6.273941 15.05745,95.363878 21.33139,130.497928 2.50957,16.31226 43.91758,38.89844 106.65697,38.89844 l 0,0 c 62.73939,0 102.89259,-22.58618 106.65697,-38.89844 6.27393,-35.13405 21.33139,-124.223987 21.33139,-130.497928 -1.25479,-23.840966 -57.72025,-42.662776 -127.98836,-42.662776 l 0,0 z m 0,183.199014 c -22.58618,0 -40.15321,-17.56703 -40.15321,-40.15321 0,-22.58618031 17.56703,-40.1532 40.15321,-40.1532 22.58617,0 40.15321,17.56701969 40.15321,40.1532 0,21.33139 -17.56704,40.15321 -40.15321,40.15321 l 0,0 z m 0,-127.988356 c -45.17237,0 -81.56122,-7.528727 -81.56122,-17.567026 0,-10.03831 36.38885,-17.567032 81.56122,-17.567032 45.17235,0 81.56121,7.528722 81.56121,17.567032 0,10.038299 -36.38886,17.567026 -81.56121,17.567026 l 0,0 z"
       id="path6"
       inkscape:connector-curvature="0"
       style="fill:#ffffff;fill-opacity:1" />
    <path
       d="m 468.97944,85.947954 c -2.50959,0 -3.76437,1.25479 -3.76437,1.25479 0,0 -31.3697,25.095756 -87.83515,25.095756 -56.46545,0 -87.83516,-25.095756 -87.83516,-25.095756 0,0 -2.50957,-1.25479 -3.76435,-1.25479 -2.50959,0 -5.01916,1.25479 -5.01916,5.01916 l 0,1.25478 c 5.01916,26.350546 8.78351,45.172356 8.78351,47.681926 3.76437,18.82183 41.40801,33.87928 86.58037,33.87928 l 0,0 c 45.17236,0 82.816,-15.05745 86.58036,-33.87928 0,-2.50957 3.76436,-21.33138 8.78352,-47.681926 l 0,-1.25478 c 1.25478,-2.50959 0,-5.01916 -2.50957,-5.01916 l 0,0 z"
       id="path8"
       inkscape:connector-curvature="0"
       style="fill:#ffffff;fill-opacity:1" />
    <circle
       cx="376.37125"
       cy="20.699039"
       r="20.076605"
       id="circle10"
       style="fill:#ffffff;fill-opacity:1" />
  </g>
</svg>
