<svg id="Layer_1" data-name="Layer 1" xmlns="http://www.w3.org/2000/svg" viewBox="0 0 2147.2 1342"><defs><style>.cls-1{fill:#62ba46;}.cls-2{fill:#616162;}.cls-3{fill:#929497;}.cls-4{fill:#58595b;fill-rule:evenodd;}</style></defs><title>Beebox Logo-01</title><path class="cls-1" d="M181.94,500.17a164.66,164.66,0,0,0-97.6,32.45V406.89a32.52,32.52,0,0,0-32.53-32.53c-18,0-32.77,14.58-32.54,32.53V652.61c0.06,3,.11,6.2.11,9.76,0,89.56,73.09,162.16,163.28,162.21,89.45-.38,162-72.87,162-162.18C344.62,572.85,271.74,500.17,181.94,500.17Zm0,259.57a97.33,97.33,0,1,1,97.61-97.34A97.34,97.34,0,0,1,181.94,759.74Z"/><path class="cls-2" d="M1292.42,500.17a164.67,164.67,0,0,0-97.6,32.45V406.89a32.52,32.52,0,0,0-32.52-32.53c-18,0-32.77,14.58-32.54,32.53V652.61c0.06,3,.11,6.2.11,9.76,0,89.56,73.09,162.16,163.28,162.21,89.45-.38,162-72.87,162-162.18C1455.1,572.85,1382.22,500.17,1292.42,500.17Zm0,259.57A97.33,97.33,0,1,1,1390,662.39,97.34,97.34,0,0,1,1292.42,759.74Z"/><path class="cls-1" d="M669.58,547.52c-63.75-62.94-166.56-62.94-230.33,0a163,163,0,0,0,0,229.72c63.58,62.73,165.94,62.92,229.73.58a32.62,32.62,0,1,0-45.58-46.66h0a97.19,97.19,0,0,1-137.94,0A102.76,102.76,0,0,1,462,694.83a115.22,115.22,0,0,1-5.48-35.21c0-19.9,5.48-29.7,5.48-29.7a115.67,115.67,0,0,1,23.42-36.33,98.41,98.41,0,0,1,161.37,36.33H517.28a30.9,30.9,0,0,0-23,9.86,31.41,31.41,0,0,0-9.4,22.63,32.23,32.23,0,0,0,32.42,32.41H684.93a32.45,32.45,0,0,0,32.44-32.44c0-.55,0-1.09,0-1.65A165.79,165.79,0,0,0,669.58,547.52Z"/><path class="cls-1" d="M1038.5,547.52c-63.75-62.94-166.56-62.94-230.33,0a163,163,0,0,0,0,229.72c63.56,62.73,165.93,62.92,229.73.58a32.62,32.62,0,1,0-45.58-46.66h0a97.19,97.19,0,0,1-137.95,0,102.59,102.59,0,0,1-23.42-36.33,115.24,115.24,0,0,1-5.48-35.21c0-19.9,5.48-29.7,5.48-29.7a115.45,115.45,0,0,1,23.42-36.33,98.41,98.41,0,0,1,161.37,36.33H886.2a30.9,30.9,0,0,0-23,9.86,31.4,31.4,0,0,0-9.4,22.63,32.23,32.23,0,0,0,32.41,32.41h167.64a32.45,32.45,0,0,0,32.45-32.44c0-.55,0-1.09,0-1.65A165.78,165.78,0,0,0,1038.5,547.52Z"/><path class="cls-2" d="M2029.76,662.75l90.79-103.53a29.42,29.42,0,0,0-2.71-41.39l-2.6-2.28a29.42,29.42,0,0,0-41.39,2.71l-85.4,97.38L1903,518.26a29.42,29.42,0,0,0-41.39-2.71l-2.6,2.28a29.42,29.42,0,0,0-2.71,41.39l90.8,103.53-90.8,103.53a29.42,29.42,0,0,0,2.71,41.39l2.6,2.28a29.42,29.42,0,0,0,41.39-2.71l85.4-97.38,85.4,97.38a29.42,29.42,0,0,0,41.39,2.71l2.6-2.28a29.42,29.42,0,0,0,2.71-41.39Z"/><path class="cls-3" d="M1182.32,929.87Q1194.81,944,1194.81,969t-12.49,39.12q-12.5,14.13-34.41,14.13-14.34,0-24.58-7.17a38.58,38.58,0,0,1-14.54-19.87l-0.41,25h-7.58V870.68h8.4v70.86a38.42,38.42,0,0,1,14.64-18.94q10.14-6.86,24.07-6.86Q1169.82,915.74,1182.32,929.87Zm-6.35,72.81q10.44-12.18,10.44-33.69T1176,935.3q-10.45-12.18-29.08-12.19-16.8,0-27,11.57t-10.65,31.44v5.94q0.61,19.87,10.85,31.34t26.83,11.47Q1165.52,1014.87,1176,1002.68Z"/><path class="cls-3" d="M1247,1039.45q-5.74,13.93-12.49,19.35t-17.2,5.43q-12.7,0-18.64-7.37l3.48-7q4.91,7,15.16,7a19.38,19.38,0,0,0,12.7-4.2q5.12-4.2,9.63-15.05l7-17.41-10.86-25.6-32.36-76.8h9.42l33.18,80.9,4.71,12.49,4.92-13.31,32-80.08h9.22Z"/><path class="cls-3" d="M1502.44,917.79l-34.61,102.41h-8.4l-33.59-91.76-33,91.76h-8.4l-34.61-102.41h9.22l29.9,92.37,33-92.37h8.4l33,92.37,29.9-92.37h9.22Z"/><path class="cls-3" d="M1596.86,929.87q12.9,14.13,12.9,39.12t-12.9,39.12q-12.9,14.13-35.64,14.13-22.53,0-35.53-14.23t-13-39q0-24.78,13-39t35.53-14.23Q1584,915.74,1596.86,929.87Zm-65,5.33q-10.75,12.29-10.75,33.79t10.75,33.79q10.75,12.29,29.39,12.29t29.39-12.29q10.75-12.29,10.75-33.79t-10.75-33.79q-10.75-12.29-29.39-12.29T1531.83,935.2Z"/><path class="cls-3" d="M1688.61,919.63l-2.46,7.58a15.22,15.22,0,0,0-5.33-2.77,27.59,27.59,0,0,0-7.78-.92,25.51,25.51,0,0,0-15.26,5.12,35.65,35.65,0,0,0-11.26,14,45.29,45.29,0,0,0-4.2,19.56v58h-8.4V917.79h7.17l1,22.12a36.66,36.66,0,0,1,12.6-17.61,33.26,33.26,0,0,1,20.58-6.55Q1683.69,915.74,1688.61,919.63Z"/><path class="cls-3" d="M1786.1,870.68V1020.2h-7.58l-0.41-24.78a37.37,37.37,0,0,1-14.44,19.66q-10.34,7.17-24.68,7.17-21.92,0-34.31-14.13T1692.3,969q0-25,12.39-39.12T1739,915.74q13.93,0,24.06,6.76a37.87,37.87,0,0,1,14.64,18.84V870.68h8.4Zm-18.64,132.1Q1777.7,990.7,1777.7,970v-1.84q0-20.89-10.14-33t-27.34-12.08q-18.64,0-29.08,12.19T1700.69,969q0,21.51,10.44,33.69t29.08,12.19Q1757.22,1014.87,1767.46,1002.79Z"/><path class="cls-3" d="M1898.74,929.87Q1911.23,944,1911.24,969t-12.49,39.12q-12.5,14.13-34.41,14.13-14.34,0-24.58-7.17a38.58,38.58,0,0,1-14.54-19.87l-0.41,25h-7.58V870.68h8.4v70.86a38.42,38.42,0,0,1,14.64-18.94q10.14-6.86,24.07-6.86Q1886.25,915.74,1898.74,929.87Zm-6.35,72.81q10.44-12.18,10.44-33.69T1892.4,935.3q-10.45-12.18-29.08-12.19-16.8,0-27,11.57t-10.65,31.44v5.94q0.61,19.87,10.85,31.34t26.83,11.47Q1881.95,1014.87,1892.4,1002.68Z"/><path class="cls-3" d="M2019.79,972.68h-82.54q1,20.07,11.37,31.13t28.16,11.06a42.87,42.87,0,0,0,21.51-5.22A31.54,31.54,0,0,0,2011.8,995l7,3.69a39.61,39.61,0,0,1-16.38,17.41q-10.86,6.14-25.6,6.14-22.53,0-35.23-14.13T1928.85,969q0-25,12.39-39.12t34.51-14.13q20.68,0,32.46,14T2020,967.35Zm-71.48-38.5q-10,11.06-11.06,31.13h75q-1-20.07-10.34-31.13t-26.11-11.06Q1958.34,923.12,1948.31,934.18Z"/><path class="cls-3" d="M2127.72,972.68h-82.54q1,20.07,11.37,31.13t28.16,11.06a42.87,42.87,0,0,0,21.51-5.22A31.54,31.54,0,0,0,2119.73,995l7,3.69a39.61,39.61,0,0,1-16.38,17.41q-10.86,6.14-25.6,6.14-22.53,0-35.23-14.13T2036.78,969q0-25,12.39-39.12t34.51-14.13q20.68,0,32.46,14t11.78,37.58Zm-71.48-38.5q-10,11.06-11.06,31.13h75q-1-20.07-10.34-31.13t-26.11-11.06Q2066.27,923.12,2056.24,934.18Z"/><path class="cls-4" d="M1784.9,580.84a34.85,34.85,0,0,0-25.68.68A32.12,32.12,0,0,0,1741,600.73a34.87,34.87,0,0,0,.86,26.06,89.4,89.4,0,0,1,7.84,37.56,92,92,0,0,1-6.83,35A89.55,89.55,0,0,1,1723,729a86.33,86.33,0,0,1-29.45,19.94c-22.26,9.06-48.64,9.18-73.08-.93a33.29,33.29,0,0,0-26.14-1.28c-8.52,3.14-15.14,9.2-19.45,18.34a35.14,35.14,0,0,0-.56,25.8c3.14,8.49,9.24,15.08,18,19.26A163.88,163.88,0,0,0,1658,824a158,158,0,0,0,62.79-12.67,180.88,180.88,0,0,0,26.82-14.46,141.9,141.9,0,0,0,23.55-19.63,158.61,158.61,0,0,0,34.75-51A162.2,162.2,0,0,0,1818,664.36,156.06,156.06,0,0,0,1804.16,599a32.13,32.13,0,0,0-19.26-18.2h0Z"/><path class="cls-4" d="M1528,750.16a32,32,0,0,1-13.47-14.26,156.94,156.94,0,0,1-17.93-73.12,161.73,161.73,0,0,1,12.59-62,172.18,172.18,0,0,1,34.14-50.72,162.53,162.53,0,0,1,51-34.31,156.93,156.93,0,0,1,62.06-12.61h0.43a158.84,158.84,0,0,1,73.72,18A35,35,0,0,1,1747.24,541a31.94,31.94,0,0,1-2.45,26.33,33.44,33.44,0,0,1-20,16.64,33.87,33.87,0,0,1-25.44-2,91.72,91.72,0,0,0-77.7-3.55,93.11,93.11,0,0,0-49.69,49.54,89.4,89.4,0,0,0-7,34.87,87.24,87.24,0,0,0,10.41,41.8,33.09,33.09,0,0,1,2.3,26.49,33.13,33.13,0,0,1-32.43,23.4,35.53,35.53,0,0,1-17.23-4.32h0Z"/><path class="cls-4" d="M1798,233.36c-25.65,0-54.23,25.28-82.66,73.1-29.24,49.2-37.1,120-37.46,123.7-0.91,10.47,1.1,36.68,20.21,35.85,14.84-.65,24.73-13.82,27.86-38.89,1.42-11.44,9.4-35,39.36-82.55,17.28-27.39,32.13-41.69,44.06-53.17,6.53-6.28,12.16-11.69,17.06-18,8.9-11.56,6.66-20.51,4.54-24.84-4.66-9.48-17-15.14-33-15.14h0Z"/><path class="cls-4" d="M1990.5,352.21c15.24,9.36,23.56,21.53,22.26,32.56-0.55,4.82-3.65,13.62-17.93,18.3-8.11,2.66-16.43,4.09-26,5.75-17.64,3-39.6,6.83-71.11,20.58-54.59,23.85-75.12,39.7-82.75,48.79-8.17,9.7-20.79,21.26-34.57,21.26a23.3,23.3,0,0,1-12.34-3.49,16.62,16.62,0,0,1-7.59-10.68c-3.89-15.39,7.54-29.89,8.75-31.79,2.41-3,48.91-60,103.69-85.67C1925.6,343.06,1966.82,337.67,1990.5,352.21Z"/></svg>