<?xml version="1.0" encoding="utf-8"?>
<svg version="1.1" xmlns="http://www.w3.org/2000/svg" viewBox="1 -4 16 16">
<style type="text/css">
  .color{fill:#bebebe;}
</style>
<path class="color" d="M12.5,5V2.9l-1.3-0.2c-0.1-0.3-0.2-0.6-0.4-1l0.8-1.1L10-0.9L9-0.1c-0.4-0.2-0.7-0.4-1-0.4L7.8-1.8H5.7L5.5-0.5
	c-0.4,0.1-0.6,0.2-1,0.4L3.4-0.9L1.9,0.6l0.7,1.1c-0.2,0.4-0.3,0.6-0.4,1L1,2.8v2.1l1.3,0.2c0.1,0.4,0.2,0.6,0.4,1L2,7.2l1.5,1.5
	L4.6,8c0.3,0.1,0.6,0.3,1,0.4l0.2,1.3h2.1l0.2-1.3c0.4-0.1,0.6-0.2,1-0.4l1.1,0.8l1.5-1.5L11,6.2c0.2-0.4,0.4-0.7,0.4-1L12.5,5z
	 M6.7,6.1c-1.2,0-2.1-0.9-2.1-2.1s0.9-2.1,2.1-2.1s2.1,0.9,2.1,2.1S7.9,6.1,6.7,6.1z"/>
</svg>
