<?xml version="1.0" ?><svg version="1.1" viewBox="0 0 512 512" xmlns="http://www.w3.org/2000/svg"><style type="text/css">.color{fill:#bebebe;}</style><path class="color" d="M255.991,206.416c-26.52,0-48.092,21.57-48.092,48.08c0,26.532,21.572,48.12,48.092,48.12  c26.535,0,48.121-21.588,48.121-48.12C304.112,227.986,282.526,206.416,255.991,206.416 M255.991,117.315  C128.445,117.315,0,256.001,0,256.001s128.445,138.684,255.991,138.684C383.554,394.685,512,256.001,512,256.001  S383.554,117.315,255.991,117.315 M255.991,352.665c-54.2,0-98.142-43.899-98.142-98.169c0-54.2,43.942-98.128,98.142-98.128  c54.228,0,98.17,43.928,98.17,98.128C354.161,308.766,310.219,352.665,255.991,352.665"/></svg>
