<?xml version="1.0" ?><svg version="1.1" viewBox="0 0 32 32" xmlns="http://www.w3.org/2000/svg"><g><polyline fill="none" points="   649,137.999 675,137.999 675,155.999 661,155.999  " stroke="#FFFFFF" stroke-linecap="round" stroke-linejoin="round" stroke-miterlimit="10" stroke-width="2"/><polyline fill="none" points="   653,155.999 649,155.999 649,141.999  " stroke="#FFFFFF" stroke-linecap="round" stroke-linejoin="round" stroke-miterlimit="10" stroke-width="2"/><polyline fill="none" points="   661,156 653,162 653,156  " stroke="#FFFFFF" stroke-linecap="round" stroke-linejoin="round" stroke-miterlimit="10" stroke-width="2"/></g><g><path d="M29,3H3C2.448,3,2,3.448,2,4v4c0,0.552,0.448,1,1,1h22v18H7V12c0-0.552-0.448-1-1-1s-1,0.448-1,1v16c0,0.553,0.448,1,1,1   h20c0.553,0,1-0.447,1-1V9h2c0.553,0,1-0.448,1-1V4C30,3.448,29.553,3,29,3z M28,7H4V5h24V7z"/><path d="M22,17c0.553,0,1-0.448,1-1v-4c0-0.552-0.447-1-1-1H10c-0.552,0-1,0.448-1,1v4c0,0.552,0.448,1,1,1H22z M11,13h10v2H11V13z   "/></g></svg>
