<?xml version="1.0" ?><svg version="1.1" viewBox="0 0 18 18" xmlns="http://www.w3.org/2000/svg" ><title/><desc/><defs/><g fill-rule="evenodd" stroke="none" stroke-width="1"><g transform="translate(-87.000000, -171.000000)"><g transform="translate(87.000000, 171.000000)"><path d="M16,0 L2,0 C0.9,0 0,0.9 0,2 L0,16 C0,17.1 0.9,18 2,18 L16,18 C17.1,18 18,17.1 18,16 L18,2 C18,0.9 17.1,0 16,0 L16,0 Z M6,14 L4,14 L4,12 L6,12 L6,14 L6,14 Z M6,10 L4,10 L4,8 L6,8 L6,10 L6,10 Z M6,6 L4,6 L4,4 L6,4 L6,6 L6,6 Z M14,14 L7,14 L7,12 L14,12 L14,14 L14,14 Z M14,10 L7,10 L7,8 L14,8 L14,10 L14,10 Z M14,6 L7,6 L7,4 L14,4 L14,6 L14,6 Z"/></g></g></g></svg>
