<svg xmlns="http://www.w3.org/2000/svg" xmlns:xlink="http://www.w3.org/1999/xlink" version="1.1" x="0px" y="0px" width="444.819px" height="444.819px" viewBox="0 0 444.819 444.819" style="enable-background:new 0 0 444.819 444.819; fill: #595959;" xml:space="preserve">
	<path transform="rotate(90 222.41 222.41)" d="M388.025,196.712L201.884,10.848C195.029,3.615,186.469,0,176.187,0c-10.282,0-18.842,3.619-25.697,10.848L128.792,32.264c-7.044,7.043-10.566,15.604-10.566,25.692c0,9.897,3.521,18.56,10.566,25.981l138.753,138.473L128.786,361.168c-7.042,7.043-10.564,15.604-10.564,25.693c0,9.896,3.521,18.562,10.564,25.98l21.7,21.413c7.043,7.043,15.612,10.564,25.697,10.564c10.089,0,18.656-3.521,25.697-10.564l186.145-185.864c7.046-7.423,10.571-16.084,10.571-25.981C398.597,212.321,395.071,203.755,388.025,196.712z"/>
</svg>
