<?xml version="1.0" encoding="utf-8"?>
<!-- Generator: Adobe Illustrator 22.1.0, SVG Export Plug-In . SVG Version: 6.00 Build 0)  -->
<svg version="1.1" id="Calque_1" xmlns="http://www.w3.org/2000/svg" xmlns:xlink="http://www.w3.org/1999/xlink" x="0px" y="0px"
	 viewBox="0 0 200 200" style="enable-background:new 0 0 200 200;" xml:space="preserve">
<style type="text/css">
	.st0{fill:#575756;}
</style>
<path class="st0" d="M99.5,2C45.7,2,2,45.7,2,99.5s43.7,97.5,97.5,97.5c53.9,0,97.5-43.7,97.5-97.5S153.4,2,99.5,2z M49.1,63.4H151
	c0.4,0,0.7,0,1,0.1l-52,45.8L48.4,63.4C48.6,63.4,48.8,63.4,49.1,63.4z M42.8,128.7V70.4c0-1-0.3-1.9,0.1-2.8l36.4,32.6l-36.2,31.4
	C42.7,130.7,42.8,129.7,42.8,128.7z M49.1,135.7c-0.1,0-0.3,0.1-0.4,0.1l35.8-30.6l15.5,13.8l15.6-13.8l35.1,30.6H49.1z
	 M158.4,128.7c0,1.3-0.5,2.4-1.1,3.4l-36.3-31.7L157.8,68c0.3,0.8,0.6,1.6,0.6,2.4V128.7z"/>
</svg>
