<?xml version="1.0" encoding="utf-8"?>
<!-- Generator: Adobe Illustrator 22.1.0, SVG Export Plug-In . SVG Version: 6.00 Build 0)  -->
<svg version="1.1" id="Calque_1" xmlns="http://www.w3.org/2000/svg" xmlns:xlink="http://www.w3.org/1999/xlink" x="0px" y="0px"
	 viewBox="0 0 200 200" style="enable-background:new 0 0 200 200;" xml:space="preserve">
<style type="text/css">
	.st0{fill:#3A579E;}
</style>
<path class="st0" d="M99.5,2C45.7,2,2,45.7,2,99.5c0,53.9,43.7,97.5,97.5,97.5c53.9,0,97.5-43.7,97.5-97.5
	C197.1,45.7,153.4,2,99.5,2z M117.3,98.6h-11.5v45.2H85.9V98.6h-9V84.2h9V70.7c0,0-0.7-6.2,5.3-11.8c0,0,3.8-4,11.4-4.1
	c0,0,2.2,0.4,2.3,0.4h13.6v14.5h-9.6c0,0-3.1-1-3.1,3.6v10.8h12.6L117.3,98.6z"/>
</svg>
