<?xml version="1.0" encoding="utf-8"?>
<!-- Generator: Adobe Illustrator 22.1.0, SVG Export Plug-In . SVG Version: 6.00 Build 0)  -->
<svg version="1.1" id="Calque_1" xmlns="http://www.w3.org/2000/svg" xmlns:xlink="http://www.w3.org/1999/xlink" x="0px" y="0px"
	 viewBox="0 0 200 200" style="enable-background:new 0 0 200 200;" xml:space="preserve">
<style type="text/css">
	.st0{fill:#D7492F;}
</style>
<g>
	<path class="st0" d="M82.7,92.3C82.7,92.3,82.7,92.3,82.7,92.3c2.2,0,4.1-0.9,5.6-2.5c2.3-2.6,3.3-6.9,2.7-11.4
		c-1.1-8.1-6.8-14.8-12.9-15l-0.2,0c-2.1,0-4,0.9-5.5,2.5c-2.2,2.6-3.2,6.6-2.6,11.1C70.8,85.1,76.7,92.1,82.7,92.3L82.7,92.3z"/>
	<path class="st0" d="M99.5,2C45.7,2,2,45.7,2,99.5c0,53.9,43.7,97.5,97.5,97.5c53.9,0,97.5-43.7,97.5-97.5
		C197.1,45.7,153.4,2,99.5,2z M110.1,59.1l-6.1,4.4c-0.4,0.3-0.8,0.4-1.3,0.4h-2.2c2.8,3.4,4.5,8.2,4.5,13.6c0,6-3,11.6-8.5,15.9
		c-4.3,3.3-4.4,4.2-4.4,6.1c0.1,1,3,4.4,6.3,6.7c7.6,5.4,10.4,10.7,10.4,19.5c0,9.2-7,17.2-17.8,20.3c-3.5,1-7.2,1.5-11.2,1.5
		c-4.4,0-8.6-0.5-12.5-1.5c-7.6-1.9-13.2-5.6-15.9-10.2c-1.1-2-1.7-4.2-1.7-6.4c0-2.3,0.6-4.6,1.6-7c4.2-8.9,15.2-14.9,27.3-14.9
		c0.1,0,0.2,0,0.4,0c-1-1.7-1.5-3.5-1.5-5.4c0-0.9,0.1-1.9,0.4-2.9c-12.8-0.3-22.3-9.6-22.3-22c0-8.7,7-17.2,16.9-20.6
		c3-1,6-1.6,9-1.6h27.3c0.9,0,1.8,0.6,2,1.5C111.2,57.6,110.9,58.6,110.1,59.1z M151.3,74.4c0,1-0.8,1.8-1.8,1.8h-12.8v12.8
		c0,1-0.8,1.8-1.8,1.8h-3.6c-1,0-1.8-0.8-1.8-1.8V76.2h-12.8c-1,0-1.8-0.8-1.8-1.8v-3.6c0-1,0.8-1.8,1.8-1.8h12.8V56.2
		c0-1,0.8-1.8,1.8-1.8h3.6c1,0,1.8,0.8,1.8,1.8V69h12.8c1,0,1.8,0.8,1.8,1.8V74.4z"/>
	<path class="st0" d="M87.4,115.4c-1.9-0.6-3.8-0.9-5.9-0.9h-0.3c-9.3,0-17.4,5.6-17.4,12c0,7,7,12.5,15.9,12.5
		c11.8,0,17.7-4.1,17.7-12c0-0.8-0.1-1.5-0.3-2.3c-0.8-3.1-3.6-5-7.9-8C88.7,116.3,88.1,115.8,87.4,115.4z"/>
</g>
</svg>
