<?xml version="1.0" encoding="utf-8"?>
<!-- Generator: Adobe Illustrator 22.1.0, SVG Export Plug-In . SVG Version: 6.00 Build 0)  -->
<svg version="1.1" id="Calque_1" xmlns="http://www.w3.org/2000/svg" xmlns:xlink="http://www.w3.org/1999/xlink" x="0px" y="0px"
	 viewBox="0 0 200 200" style="enable-background:new 0 0 200 200;" xml:space="preserve">
<style type="text/css">
	.st0{fill:#3C3C3B;}
</style>
<g>
	<path class="st0" d="M99.5,2C45.7,2,2,45.7,2,99.5c0,53.9,43.7,97.5,97.5,97.5c53.9,0,97.5-43.7,97.5-97.5
		C197.1,45.7,153.4,2,99.5,2z M75.7,103.6v-34V59.6c0-1.4,1.1-2.7,2.5-2.8c15.2-1.7,30.7-1.7,45.9,0c1.4,0.2,2.5,1.4,2.5,2.8v10.1
		v34v2.8H75.7V103.6z M143.6,132.9c0,2.1-1.5,3.9-3.6,4.2c-12.8,2-25.9,3.1-38.9,3.1c-13,0-26.1-1-38.9-3.1
		c-2.1-0.3-3.6-2.1-3.6-4.2V85.2c0-2.3,1.9-4.2,4.2-4.2H70v31.1h62.3V81h7.1c2.3,0,4.2,1.9,4.2,4.2V132.9z"/>
	<rect x="123.8" y="120.6" class="st0" width="8.5" height="8.5"/>
</g>
</svg>
