<?xml version="1.0" encoding="utf-8"?>
<!-- Generator: Adobe Illustrator 22.1.0, SVG Export Plug-In . SVG Version: 6.00 Build 0)  -->
<svg version="1.1" id="Calque_1" xmlns="http://www.w3.org/2000/svg" xmlns:xlink="http://www.w3.org/1999/xlink" x="0px" y="0px"
	 viewBox="0 0 200 200" style="enable-background:new 0 0 200 200;" xml:space="preserve">
<style type="text/css">
	.st0{fill:#3E9AD5;}
</style>
<path class="st0" d="M99.5,2C45.7,2,2,45.7,2,99.5c0,53.9,43.7,97.5,97.5,97.5c53.9,0,97.5-43.7,97.5-97.5
	C197.1,45.7,153.4,2,99.5,2z M135.8,85.9c0,0.8,0.1,1.5,0.1,2.3c0,23.4-17.8,50.4-50.4,50.4c-10,0-19.3-2.9-27.2-8
	c1.4,0.2,2.8,0.2,4.2,0.2c8.3,0,15.9-2.8,22-7.6C76.8,123.2,70.2,118,68,111c1.1,0.2,2.2,0.3,3.3,0.3c1.6,0,3.4-0.2,4.9-0.6
	c-8.1-1.6-14-8.8-14-17.4c0-0.1,0-0.1,0-0.2c1.8,1.3,4.9,2.1,7.8,2.2c-4.8-3.2-8-8.6-8-14.7c0-3.2,0.8-6.3,2.3-8.9
	c8.7,10.7,21.8,17.8,36.5,18.5c-0.3-1.3-0.5-2.6-0.5-4c0-9.8,7.9-17.7,17.7-17.7c5.1,0,9.7,2.2,12.9,5.6c4-0.8,7.8-2.3,11.2-4.3
	c-1.3,4.1-4.1,7.6-7.8,9.8c3.6-0.4,7-1.4,10.2-2.8C142.3,80.3,139.3,83.4,135.8,85.9z"/>
</svg>
