<?xml version="1.0" encoding="utf-8"?>
<!-- Generator: Adobe Illustrator 22.1.0, SVG Export Plug-In . SVG Version: 6.00 Build 0)  -->
<svg version="1.1" id="Calque_1" xmlns="http://www.w3.org/2000/svg" xmlns:xlink="http://www.w3.org/1999/xlink" x="0px" y="0px"
	 viewBox="0 0 200 200" style="enable-background:new 0 0 200 200;" xml:space="preserve">
<style type="text/css">
	.st0{fill:#1A70B7;}
</style>
<path class="st0" d="M99.5,2C45.7,2,2,45.7,2,99.5c0,53.9,43.7,97.5,97.5,97.5c53.9,0,97.5-43.7,97.5-97.5
	C197.1,45.7,153.4,2,99.5,2z M112.9,63.4c-5.8,14.5-11.6,28.9-17.4,43.4c-3,7.4-5.9,14.8-8.9,22.2c-1.1,2.6-2.2,5.2-3.7,7.6
	c-1.2,1.9-2.5,3.7-4.2,5.3c-2.2,2-4.8,3.2-7.8,3.9c-2.1,0.5-4.3,0.6-6.4,0.6c-1.6,0-3.2-0.1-4.7-0.4c-1.1-0.2-2-0.8-2.7-1.6
	c-1.2-1.5-1.5-3.2-0.9-5c0.7-1.8,2-2.8,3.9-3.2c0.5-0.1,1-0.1,1.6-0.1c1,0,2,0.1,3,0.1c1.8,0,3.6-0.3,5.2-1.2
	c1.3-0.7,2.4-1.7,3.4-2.8c1.1-1.4,2-2.9,2.7-4.5c0.8-1.7,1.5-3.5,2.1-5.3c0.1-0.3,0-0.5-0.1-0.7c-2.2-5.4-4.4-10.8-6.7-16.3
	C65.7,91.6,60,77.7,54.3,63.8c-0.2-0.4-0.3-0.9-0.4-1.4c0-0.2-0.1-0.3-0.2-0.5c0-0.3,0-0.5,0-0.8c0.1-0.2,0.2-0.4,0.2-0.5
	c0.4-2.5,2.3-4.4,4.8-4.8c3-0.5,5.5,1.3,6.4,3.6c6.2,15.8,12.5,31.7,18.7,47.5c0,0.1,0.1,0.2,0.2,0.4c0.1,0.1,0.1,0.2,0.3,0.2
	c0.2,0,0.2-0.1,0.3-0.3c0.1-0.2,0.1-0.4,0.2-0.5c5.9-15.7,11.9-31.4,17.8-47.2c0.7-1.9,2-3.1,3.9-3.6c3.1-0.8,6.1,1.2,6.7,4.3
	C113.5,61.3,113.3,62.4,112.9,63.4z M115.6,87.6c0.1-0.2,0.2-0.5,0.3-0.7c0.3-0.5,0.7-0.9,1.1-1.3c1.4-1.5,3-2.9,4.6-4.2
	c4.6-3.8,9.4-7.3,14.3-10.7c1.5-1.1,3.1-2.1,4.6-3.1c0.5-0.3,1.1-0.7,1.7-0.7c0.3,0,0.6-0.1,0.9-0.1c2.9,0,5.6,2.5,5.4,5.8
	c-0.1,1.4-0.7,2.7-1.8,3.6c-0.1,0.1-0.3,0.2-0.5,0.3c-6.3,3.4-12.8,6.6-19.4,9.3c-2.3,0.9-4.5,1.7-6.9,2.3c-1,0.3-2.1,0.5-3.1,0.4
	c-0.3,0-0.6-0.1-0.8-0.2C115.5,88.2,115.4,88,115.6,87.6z M143.8,137.4c-0.6,0.1-1.2,0.1-1.8,0c-0.3-0.1-0.6-0.1-0.8-0.3
	c-1.3-0.8-2.7-1.6-4-2.5c-5.3-3.6-10.5-7.4-15.5-11.5c-1.5-1.2-3-2.5-4.3-3.9c-0.5-0.5-0.9-1-1.3-1.6c-0.2-0.3-0.4-0.6-0.5-0.9
	c-0.2-0.4-0.1-0.7,0.4-0.9c0.4-0.1,0.8-0.2,1.3-0.1c1,0,2,0.3,3,0.5c2.8,0.7,5.4,1.8,8.1,2.9c6.1,2.5,12,5.4,17.8,8.6
	c0.3,0.2,0.6,0.4,0.9,0.7c1,1,1.4,2.3,1.4,3.4C148.4,134.8,146.5,137,143.8,137.4z M156.4,107.2c-0.2,0-0.3,0-0.5,0
	c-1.4,0-2.8,0-4.2,0c-2.1-0.1-4.1-0.1-6.1-0.2c-1.9-0.1-3.9-0.3-5.8-0.4c-1.3-0.1-2.7-0.2-4-0.4c-2.9-0.3-5.9-0.7-8.7-1.5
	c-0.8-0.2-1.5-0.5-2.2-0.8c-0.3-0.1-0.6-0.3-0.9-0.5c-0.6-0.5-0.6-0.9,0.1-1.4c0.3-0.2,0.6-0.4,0.9-0.5c1-0.3,2-0.7,3-1
	c2.1-0.6,4.3-1,6.4-1.3c2-0.3,4-0.7,6.1-1c1.7-0.2,3.4-0.4,5.2-0.7c1.8-0.2,3.6-0.4,5.3-0.6c1.6-0.2,3.3-0.3,4.9-0.3
	c1.1-0.1,2,0.4,2.9,1.1c1.1,0.8,1.8,2,2,3.3C161.1,104.3,158.9,106.6,156.4,107.2z"/>
</svg>
