<?xml version="1.0" encoding="utf-8"?>
<!-- Generator: Adobe Illustrator 18.1.1, SVG Export Plug-In . SVG Version: 6.00 Build 0)  -->
<svg version="1.1" id="Ebene_1" xmlns="http://www.w3.org/2000/svg" xmlns:xlink="http://www.w3.org/1999/xlink" x="0px" y="0px"
	 viewBox="-297 389 16 16" enable-background="new -297 389 16 16" xml:space="preserve">
<path fill="#787878" d="M-283.9,401.7l0-3.4c0-0.4-0.2-0.5-0.5-0.2l-1,1l-2.1-2.1l2.1-2.1l1,1c0.3,0.3,0.5,0.2,0.5-0.2l0-3.4
	c0-0.2-0.2-0.4-0.4-0.4h-3.4c-0.4,0-0.5,0.2-0.2,0.5l1,1l-2.1,2.1l-2.1-2.1l1-1c0.3-0.3,0.2-0.5-0.2-0.5h-3.4
	c-0.2,0-0.4,0.2-0.3,0.3v3.4c0,0.4,0.2,0.5,0.5,0.2l1-1l2.1,2.1l-2.1,2.1l-1-1c-0.3-0.3-0.5-0.2-0.5,0.2l0,3.4
	c0,0.2,0.2,0.4,0.4,0.4h3.4c0.4,0,0.5-0.2,0.2-0.5l-1-1l2.1-2.1l2.1,2.1l-1,1c-0.3,0.3-0.2,0.5,0.2,0.5l3.4,0
	C-284.1,402.1-283.9,401.9-283.9,401.7z"/>
</svg>
