<svg xmlns="http://www.w3.org/2000/svg" viewBox="0 0 48 48"><path d="M46.754 0H23.756C10.503 0 0 10.457 0 23.711v23C0 47.263.204 48 .756 48h23C37.01 48 48 36.966 48 23.711v-23C48 .158 47.307 0 46.754 0z" fill="#ff5c06"/><g fill="#fff"><ellipse cx="20.857" cy="19.48" rx="1.557" ry="1.511"/><ellipse cx="27.358" cy="19.481" rx="1.557" ry="1.511"/><path d="M29.604 11.048c0 1.105.927 2.005 2.068 2.005s2.068-.901 2.068-2.01c0-1.107-.928-2.009-2.068-2.009-.867 0-1.608.52-1.918 1.255l-4.266-.99-1.771 4.888c-2.523.046-4.807.708-6.515 1.767a2.56 2.56 0 0 0-1.652-.608c-1.396 0-2.533 1.103-2.533 2.46 0 .841.447 1.615 1.169 2.066a4.21 4.21 0 0 0-.072.746c0 2.414 2.052 4.519 5.078 5.622-1.638.981-2.69 2.452-2.69 4.101 0 1.811 1.251 3.482 3.35 4.473l.03-.058c.093.388.195.759.316 1.102h-.841c-.732 0-1.326.226-1.76.671-.801.821-.745 2.085-.742 2.14l.02.366H31.04l.012-.374c.002-.055.038-1.356-.773-2.172-.417-.418-.97-.631-1.646-.631h-.853c.139-.386.254-.806.358-1.242l.058.106c1.98-.997 3.165-2.636 3.165-4.382 0-1.607-.998-3.046-2.567-4.026l.002-.071c3.03-1.102 5.086-3.209 5.086-5.625 0-.246-.026-.487-.066-.726a2.447 2.447 0 0 0 1.201-2.087c0-1.356-1.139-2.46-2.535-2.46-.622 0-1.203.226-1.666.621-1.648-1.026-3.837-1.681-6.26-1.77l1.445-3.983 3.603.835zm2.068-1.241c.702 0 1.274.555 1.274 1.236 0 .682-.571 1.236-1.274 1.236-.704 0-1.274-.555-1.274-1.236 0-.681.57-1.236 1.274-1.236zm-17.859 7.998c0-.93.781-1.687 1.738-1.687.356 0 .692.104.978.294-1.002.754-1.732 1.658-2.113 2.656a1.659 1.659 0 0 1-.603-1.263zm13.881 8.78c.103.05.203.1.302.152-.046 7.105-.775 11.481-3.976 11.481-3.549 0-3.954-5.4-3.978-11.579.054-.028.117-.05.175-.075 1.165.316 2.441.492 3.781.492a14.46 14.46 0 0 0 3.696-.471zM17.298 30.34c0-1.259.751-2.396 1.95-3.225.018 2.51.113 4.821.449 6.73-1.508-.866-2.399-2.144-2.399-3.505zm.877 6.721c.284-.289.672-.431 1.183-.431h1.157c.328.683.742 1.233 1.258 1.632H17.67c.042-.342.161-.849.505-1.201zm10.459-.431c.457 0 .807.128 1.072.393.356.355.481.884.525 1.238h-4.028c.509-.402.926-.951 1.255-1.632h1.176zm1.931-6.29c0 1.307-.833 2.553-2.245 3.417.346-1.908.451-4.171.471-6.511 1.096.815 1.774 1.899 1.774 3.094zm-6.567-4.056c-5.012 0-9.087-2.542-9.087-5.666 0-3.125 4.074-5.667 9.087-5.667 5.012 0 9.088 2.542 9.088 5.667.001 3.124-4.076 5.666-9.088 5.666zm8.485-10.165c.96 0 1.738.757 1.738 1.687 0 .505-.241.968-.632 1.285-.374-.999-1.103-1.907-2.103-2.664.291-.199.635-.308.997-.308z"/><path d="M27.097 23.032c-.01.009-.958.915-3.117.915-2.123 0-2.972-.874-2.994-.898a.402.402 0 0 0-.557-.04.377.377 0 0 0-.044.545c.042.047 1.058 1.166 3.596 1.166 2.525 0 3.644-1.103 3.69-1.15a.377.377 0 0 0-.012-.543.405.405 0 0 0-.562.005z"/></g></svg>