<svg xmlns="http://www.w3.org/2000/svg" viewBox="0 0 48 48"><path d="M48 .868c0-.552-.502-.863-1.05-.863H23.975C10.734.005 0 10.701 0 23.981c0 13.282 10.76 24.014 24.001 24.014C37.24 47.995 48 37.193 48 23.911V.868z" fill="#ff5c06"/><g fill="#fff"><ellipse cx="20.864" cy="18.412" rx="1.545" ry="1.514"/><ellipse cx="27.313" cy="18.412" rx="1.545" ry="1.514"/><path d="M29.541 9.963c0 1.108.92 2.009 2.052 2.009 1.132 0 2.052-.903 2.052-2.014 0-1.11-.92-2.013-2.052-2.013-.86 0-1.595.522-1.902 1.257l-4.232-.992-1.756 4.897c-2.503.046-4.769.709-6.463 1.77a2.53 2.53 0 0 0-1.639-.61c-1.385 0-2.513 1.106-2.513 2.465 0 .842.443 1.618 1.16 2.07a4.232 4.232 0 0 0-.072.748c0 2.419 2.036 4.528 5.038 5.633-1.625.983-2.669 2.457-2.669 4.109 0 1.814 1.241 3.489 3.323 4.482l.03-.058c.092.388.194.76.313 1.105h-.834c-.727 0-1.315.226-1.746.672-.794.823-.739 2.089-.737 2.144l.02.367h14.052l.012-.375c.002-.055.038-1.359-.766-2.176-.413-.419-.962-.632-1.633-.632h-.846c.138-.386.252-.807.355-1.245l.058.107c1.964-.999 3.14-2.641 3.14-4.391 0-1.611-.99-3.052-2.547-4.034l.002-.071c3.006-1.104 5.046-3.215 5.046-5.636 0-.247-.026-.488-.066-.727a2.456 2.456 0 0 0 1.192-2.091c0-1.359-1.13-2.465-2.515-2.465a2.52 2.52 0 0 0-1.653.622c-1.635-1.028-3.806-1.684-6.21-1.774l1.433-3.991 3.573.838zm2.052-1.243c.697 0 1.263.556 1.263 1.239s-.567 1.239-1.263 1.239a1.252 1.252 0 0 1-1.264-1.239c0-.684.565-1.239 1.264-1.239zm-17.717 8.013c0-.932.774-1.69 1.725-1.69.353 0 .687.104.97.295-.994.755-1.719 1.662-2.096 2.662a1.675 1.675 0 0 1-.599-1.267zm13.771 8.798c.102.05.202.1.299.153-.046 7.119-.768 11.504-3.944 11.504-3.521 0-3.922-5.411-3.946-11.602.054-.028.116-.05.174-.075 1.156.316 2.421.493 3.751.493 1.297 0 2.53-.171 3.666-.473zm-10.314 3.762c0-1.261.745-2.401 1.934-3.231.018 2.515.112 4.831.445 6.744-1.494-.869-2.379-2.15-2.379-3.513zm.871 6.734c.281-.29.667-.431 1.174-.431h1.148c.325.685.737 1.236 1.248 1.635h-4.07c.04-.343.158-.851.5-1.204zm10.375-.431c.453 0 .8.128 1.064.394.353.356.477.886.521 1.241h-3.996c.505-.403.918-.953 1.245-1.635h1.166zm1.916-6.303c0 1.309-.826 2.558-2.228 3.424.343-1.912.447-4.179.467-6.524 1.088.816 1.761 1.903 1.761 3.1zm-6.515-4.064c-4.972 0-9.014-2.547-9.014-5.677 0-3.131 4.042-5.678 9.014-5.678 4.972 0 9.016 2.547 9.016 5.678 0 3.13-4.044 5.677-9.016 5.677zm8.417-10.186c.952 0 1.725.758 1.725 1.69 0 .506-.24.97-.627 1.288-.371-1.001-1.094-1.911-2.086-2.669.288-.199.629-.309.988-.309z"/><path d="M27.054 21.97c-.01.009-.95.917-3.092.917-2.106 0-2.948-.876-2.97-.9a.397.397 0 0 0-.553-.04.38.38 0 0 0-.044.546c.042.047 1.05 1.168 3.567 1.168 2.505 0 3.615-1.106 3.661-1.153a.38.38 0 0 0-.012-.544.402.402 0 0 0-.557.006z"/></g></svg>