<?xml version="1.0"?><svg viewBox="0 0 30 30" xmlns="http://www.w3.org/2000/svg" xmlns:xlink="http://www.w3.org/1999/xlink"><style>:root>svg{display:none}:root>svg:target{display:block}</style><svg viewBox="0 0 448 512" fill="#fff" id="delete" xmlns="http://www.w3.org/2000/svg"><path d="M192 188v216c0 6.627-5.373 12-12 12h-24c-6.627 0-12-5.373-12-12V188c0-6.627 5.373-12 12-12h24c6.627 0 12 5.373 12 12zm100-12h-24c-6.627 0-12 5.373-12 12v216c0 6.627 5.373 12 12 12h24c6.627 0 12-5.373 12-12V188c0-6.627-5.373-12-12-12zm132-96c13.255 0 24 10.745 24 24v12c0 6.627-5.373 12-12 12h-20v336c0 26.51-21.49 48-48 48H80c-26.51 0-48-21.49-48-48V128H12c-6.627 0-12-5.373-12-12v-12c0-13.255 10.745-24 24-24h74.411l34.018-56.696A48 48 0 0 1 173.589 0h100.823a48 48 0 0 1 41.16 23.304L349.589 80H424zm-269.611 0h139.223L276.16 50.913A6 6 0 0 0 271.015 48h-94.028a6 6 0 0 0-5.145 2.913L154.389 80zM368 128H80v330a6 6 0 0 0 6 6h276a6 6 0 0 0 6-6V128z"/></svg><svg viewBox="0 0 512 512" fill="#fff" id="devel" xmlns="http://www.w3.org/2000/svg"><path d="M511.988 288.9c-.478 17.43-15.217 31.1-32.653 31.1H424v16c0 21.864-4.882 42.584-13.6 61.145l60.228 60.228c12.496 12.497 12.496 32.758 0 45.255-12.498 12.497-32.759 12.496-45.256 0l-54.736-54.736C345.886 467.965 314.351 480 280 480V236c0-6.627-5.373-12-12-12h-24c-6.627 0-12 5.373-12 12v244c-34.351 0-65.886-12.035-90.636-32.108l-54.736 54.736c-12.498 12.497-32.759 12.496-45.256 0-12.496-12.497-12.496-32.758 0-45.255l60.228-60.228C92.882 378.584 88 357.864 88 336v-16H32.666C15.23 320 .491 306.33.013 288.9-.484 270.816 14.028 256 32 256h56v-58.745l-46.628-46.628c-12.496-12.497-12.496-32.758 0-45.255 12.498-12.497 32.758-12.497 45.256 0L141.255 160h229.489l54.627-54.627c12.498-12.497 32.758-12.497 45.256 0 12.496 12.497 12.496 32.758 0 45.255L424 197.255V256h56c17.972 0 32.484 14.816 31.988 32.9zM257 0c-61.856 0-112 50.144-112 112h224C369 50.144 318.856 0 257 0z"/></svg><svg viewBox="0 0 576 512" fill="#fff" id="edit" xmlns="http://www.w3.org/2000/svg"><path d="M402.3 344.9l32-32c5-5 13.7-1.5 13.7 5.7V464c0 26.5-21.5 48-48 48H48c-26.5 0-48-21.5-48-48V112c0-26.5 21.5-48 48-48h273.5c7.1 0 10.7 8.6 5.7 13.7l-32 32c-1.5 1.5-3.5 2.3-5.7 2.3H48v352h352V350.5c0-2.1.8-4.1 2.3-5.6zm156.6-201.8L296.3 405.7l-90.4 10c-26.2 2.9-48.5-19.2-45.6-45.6l10-90.4L432.9 17.1c22.9-22.9 59.9-22.9 82.7 0l43.2 43.2c22.9 22.9 22.9 60 .1 82.8zM460.1 174L402 115.9 216.2 301.8l-7.3 65.3 65.3-7.3L460.1 174zm64.8-79.7l-43.2-43.2c-4.1-4.1-10.8-4.1-14.8 0L436 82l58.1 58.1 30.9-30.9c4-4.2 4-10.8-.1-14.9z"/></svg><svg viewBox="0 0 68.604 77.8" fill="#fff" id="revisions" xmlns="http://www.w3.org/2000/svg"><path d="M64.4 12.4h-8v-2c0-2.4-1.9-4.3-4.3-4.3h-7.6V4.3c0-2.4-1.9-4.3-4.3-4.3H4.3C1.9 0 0 1.9 0 4.3v44.3c0 2.4 1.9 4.3 4.3 4.3h2.5v8c0 2.4 1.9 4.3 4.3 4.3h2.8v8.3c0 2.4 1.9 4.3 4.3 4.3h46.1c2.4 0 4.3-1.9 4.3-4.3V16.8c.1-2.4-1.8-4.4-4.2-4.4zm-57.7-2v39.5H4.2c-.7 0-1.3-.6-1.3-1.3V4.3c0-.7.6-1.3 1.3-1.3h35.7c.7 0 1.3.6 1.3 1.3v1.8H11.1C8.7 6 6.7 8 6.7 10.4zm7.2 6.4v45.5h-2.8c-.7 0-1.3-.6-1.3-1.3V10.4c0-.7.6-1.3 1.3-1.3H52c.7 0 1.3.6 1.3 1.3v2h-35c-2.4 0-4.4 2-4.4 4.4zm51.8 56.8c0 .7-.6 1.3-1.3 1.3H18.3c-.7 0-1.3-.6-1.3-1.3V16.8c0-.7.6-1.3 1.3-1.3h46.1c.7 0 1.3.6 1.3 1.3zM41.2 30.9c-4.1 0-7.9 1.6-10.8 4.4-2.4 2.4-4 5.5-4.5 8.8h-2.2c-.7 0-1.2.8-.8 1.4l3.9 6.8c.4.6 1.3.6 1.6 0l3.9-6.8c.4-.6-.1-1.4-.8-1.4h-2.6c.5-2.5 1.7-4.8 3.5-6.6 2.4-2.3 5.5-3.6 8.7-3.6 6.9 0 12.5 5.6 12.5 12.5s-5.5 12.5-12.4 12.5c-2.9 0-5.8-1-8-2.9-.6-.5-1.6-.5-2.1.2-.5.6-.5 1.6.2 2.1 2.8 2.3 6.3 3.6 10 3.6 8.5 0 15.5-7 15.5-15.5s-7.1-15.5-15.6-15.5z"/></svg><svg viewBox="0 0 512 512" fill="#fff" id="settings" xmlns="http://www.w3.org/2000/svg"><path d="M481.156 200c9.3 0 15.12 10.155 10.325 18.124C466.295 259.992 420.419 288 368 288c-79.222 0-143.501-63.974-143.997-143.079C223.505 65.469 288.548-.001 368.002 0c52.362.001 98.196 27.949 123.4 69.743C496.24 77.766 490.523 88 481.154 88H376l-40 56 40 56h105.156zm-171.649 93.003L109.255 493.255c-24.994 24.993-65.515 24.994-90.51 0-24.993-24.994-24.993-65.516 0-90.51L218.991 202.5c16.16 41.197 49.303 74.335 90.516 90.503zM104 432c0-13.255-10.745-24-24-24s-24 10.745-24 24 10.745 24 24 24 24-10.745 24-24z"/></svg><svg viewBox="0 0 512 512" fill="#fff" id="translate" xmlns="http://www.w3.org/2000/svg"><path d="M364.215 192h131.43c5.439 20.419 8.354 41.868 8.354 64s-2.915 43.581-8.354 64h-131.43c5.154-43.049 4.939-86.746 0-128zM185.214 352c10.678 53.68 33.173 112.514 70.125 151.992.221.001.44.008.661.008s.44-.008.661-.008c37.012-39.543 59.467-98.414 70.125-151.992H185.214zm174.13-192h125.385C452.802 84.024 384.128 27.305 300.95 12.075c30.238 43.12 48.821 96.332 58.394 147.925zm-27.35 32H180.006c-5.339 41.914-5.345 86.037 0 128h151.989c5.339-41.915 5.345-86.037-.001-128zM152.656 352H27.271c31.926 75.976 100.6 132.695 183.778 147.925-30.246-43.136-48.823-96.35-58.393-147.925zm206.688 0c-9.575 51.605-28.163 104.814-58.394 147.925 83.178-15.23 151.852-71.949 183.778-147.925H359.344zm-32.558-192c-10.678-53.68-33.174-112.514-70.125-151.992-.221 0-.44-.008-.661-.008s-.44.008-.661.008C218.327 47.551 195.872 106.422 185.214 160h141.572zM16.355 192C10.915 212.419 8 233.868 8 256s2.915 43.581 8.355 64h131.43c-4.939-41.254-5.154-84.951 0-128H16.355zm136.301-32c9.575-51.602 28.161-104.81 58.394-147.925C127.872 27.305 59.198 84.024 27.271 160h125.385z"/></svg><svg viewBox="1 -1 100 100" fill="#fff" id="view" xmlns="http://www.w3.org/2000/svg"><path d="M99.3 45.2C93.9 38.5 74.6 16.7 51 16.7c-23.6 0-42.9 21.7-48.2 28.4-1.8 2.2-1.8 5.4 0 7.7C8.2 59.5 27.5 81.3 51 81.3c23.6 0 42.9-21.7 48.2-28.4 1.8-2.2 1.8-5.6.1-7.7zM51 25.2c18.5 0 35 17.4 40.4 23.8-5.3 6.4-21.8 23.8-40.4 23.8-17.8 0-33.8-16.2-40.4-23.8C15 43.8 31.8 25.2 51 25.2z"/><path d="M51 69.2c11.1 0 20.2-9.1 20.2-20.2s-9-20.2-20.2-20.2S30.8 37.9 30.8 49 39.9 69.2 51 69.2z"/></svg></svg>