<svg xmlns="http://www.w3.org/2000/svg" xmlns:xlink="http://www.w3.org/1999/xlink" preserveAspectRatio="xMidYMid" width="63" height="58" viewBox="0 0 63 58">
  <defs>
    <style>

      .cls-3 {
        fill: #53ecf4;
      }

      .cls-6 {
        fill: #000000;
      }
    </style>
  </defs>
  <g id="group-22svg">
    <path d="M43.414,48.177 C39.404,48.177 34.933,46.907 30.156,43.485 C13.997,31.912 3.024,42.840 2.564,43.311 C1.988,43.902 1.039,43.917 0.445,43.341 C-0.148,42.766 -0.166,41.820 0.408,41.225 C0.537,41.090 13.589,27.930 31.903,41.046 C47.927,52.523 59.775,36.515 60.271,35.828 C60.755,35.156 61.693,35.004 62.364,35.488 C63.036,35.972 63.189,36.908 62.706,37.580 C62.603,37.723 54.914,48.175 43.414,48.177 Z" id="path-1" class="cls-3" fill-rule="evenodd"/>
    <path d="M43.414,57.334 C39.404,57.334 34.933,56.064 30.156,52.643 C13.923,41.017 3.023,51.992 2.567,52.465 C1.992,53.062 1.043,53.078 0.446,52.503 C-0.150,51.929 -0.167,50.979 0.408,50.383 C0.537,50.248 13.589,37.087 31.903,50.204 C47.925,61.681 59.774,45.672 60.271,44.985 C60.755,44.314 61.693,44.162 62.364,44.646 C63.036,45.129 63.189,46.065 62.706,46.737 C62.603,46.880 54.913,57.333 43.414,57.334 Z" id="path-2" class="cls-3" fill-rule="evenodd"/>
    <path d="M43.414,38.732 C39.404,38.733 34.933,37.462 30.156,34.041 C13.997,22.468 3.024,33.396 2.564,33.866 C1.988,34.458 1.039,34.473 0.445,33.897 C-0.148,33.321 -0.166,32.375 0.408,31.780 C0.537,31.646 13.589,18.485 31.903,31.603 C47.927,43.080 59.775,27.070 60.271,26.383 C60.755,25.712 61.693,25.561 62.364,26.044 C63.036,26.528 63.189,27.463 62.706,28.136 C62.603,28.279 54.914,38.731 43.414,38.732 Z" id="path-3" class="cls-3" fill-rule="evenodd"/>
    <path d="M15.956,8.572 C15.956,7.623 16.725,6.854 17.673,6.854 C18.622,6.854 19.390,7.623 19.390,8.572 C19.390,9.520 18.622,10.289 17.673,10.289 C16.725,10.289 15.956,9.520 15.956,8.572 Z" id="path-4" class="cls-6" fill-rule="evenodd"/>
    <path d="M24.427,8.572 C24.427,7.623 25.195,6.854 26.144,6.854 C27.092,6.854 27.861,7.623 27.861,8.572 C27.861,9.520 27.092,10.289 26.144,10.289 C25.195,10.289 24.427,9.520 24.427,8.572 Z" id="path-5" class="cls-6" fill-rule="evenodd"/>
    <path d="M33.126,8.572 C33.126,7.623 33.895,6.854 34.843,6.854 C35.791,6.854 36.561,7.623 36.561,8.572 C36.561,9.520 35.791,10.289 34.843,10.289 C33.895,10.289 33.126,9.520 33.126,8.572 Z" id="path-6" class="cls-6" fill-rule="evenodd"/>
    <path d="M41.368,8.572 C41.368,7.623 42.137,6.854 43.085,6.854 C44.033,6.854 44.802,7.623 44.802,8.572 C44.802,9.520 44.033,10.289 43.085,10.289 C42.137,10.289 41.368,9.520 41.368,8.572 Z" id="path-7" class="cls-6" fill-rule="evenodd"/>
    <path d="M49.839,8.572 C49.839,7.623 50.607,6.854 51.556,6.854 C52.504,6.854 53.273,7.623 53.273,8.572 C53.273,9.520 52.504,10.289 51.556,10.289 C50.607,10.289 49.839,9.520 49.839,8.572 Z" id="path-8" class="cls-6" fill-rule="evenodd"/>
    <path d="M9.088,15.440 C9.088,14.492 9.856,13.723 10.805,13.723 C11.753,13.723 12.522,14.492 12.522,15.440 C12.522,16.388 11.753,17.157 10.805,17.157 C9.856,17.157 9.088,16.388 9.088,15.440 Z" id="path-9" class="cls-6" fill-rule="evenodd"/>
    <path d="M17.559,15.440 C17.559,14.492 18.327,13.723 19.276,13.723 C20.224,13.723 20.993,14.492 20.993,15.440 C20.993,16.388 20.224,17.157 19.276,17.157 C18.327,17.157 17.559,16.388 17.559,15.440 Z" id="path-10" class="cls-6" fill-rule="evenodd"/>
    <path d="M26.258,15.440 C26.258,14.492 27.027,13.723 27.975,13.723 C28.923,13.723 29.692,14.492 29.692,15.440 C29.692,16.388 28.923,17.157 27.975,17.157 C27.027,17.157 26.258,16.388 26.258,15.440 Z" id="path-11" class="cls-6" fill-rule="evenodd"/>
    <path d="M34.500,15.440 C34.500,14.492 35.269,13.723 36.217,13.723 C37.165,13.723 37.934,14.492 37.934,15.440 C37.934,16.388 37.165,17.157 36.217,17.157 C35.269,17.157 34.500,16.388 34.500,15.440 Z" id="path-12" class="cls-6" fill-rule="evenodd"/>
    <path d="M42.971,15.440 C42.971,14.492 43.739,13.723 44.687,13.723 C45.636,13.723 46.405,14.492 46.405,15.440 C46.405,16.388 45.636,17.157 44.687,17.157 C43.739,17.157 42.971,16.388 42.971,15.440 Z" id="path-13" class="cls-6" fill-rule="evenodd"/>
    <path d="M21.680,1.704 C21.680,0.755 22.448,-0.014 23.396,-0.014 C24.345,-0.014 25.114,0.755 25.114,1.704 C25.114,2.652 24.345,3.420 23.396,3.420 C22.448,3.420 21.680,2.652 21.680,1.704 Z" id="path-14" class="cls-6" fill-rule="evenodd"/>
    <path d="M30.150,1.704 C30.150,0.755 30.919,-0.014 31.867,-0.014 C32.815,-0.014 33.584,0.755 33.584,1.704 C33.584,2.652 32.815,3.420 31.867,3.420 C30.919,3.420 30.150,2.652 30.150,1.704 Z" id="path-15" class="cls-6" fill-rule="evenodd"/>
    <path d="M38.850,1.704 C38.850,0.755 39.619,-0.014 40.567,-0.014 C41.515,-0.014 42.284,0.755 42.284,1.704 C42.284,2.652 41.515,3.420 40.567,3.420 C39.619,3.420 38.850,2.652 38.850,1.704 Z" id="path-16" class="cls-6" fill-rule="evenodd"/>
    <path d="M47.091,1.704 C47.091,0.755 47.860,-0.014 48.809,-0.014 C49.757,-0.014 50.525,0.755 50.525,1.704 C50.525,2.652 49.757,3.420 48.809,3.420 C47.860,3.420 47.091,2.652 47.091,1.704 Z" id="path-17" class="cls-6" fill-rule="evenodd"/>
    <path d="M55.562,1.704 C55.562,0.755 56.331,-0.014 57.279,-0.014 C58.227,-0.014 58.996,0.755 58.996,1.704 C58.996,2.652 58.227,3.420 57.279,3.420 C56.331,3.420 55.562,2.652 55.562,1.704 Z" id="path-18" class="cls-6" fill-rule="evenodd"/>
  </g>
</svg>
