<svg xmlns="http://www.w3.org/2000/svg" xmlns:xlink="http://www.w3.org/1999/xlink" preserveAspectRatio="xMidYMid" width="64" height="45" viewBox="0 0 64 45">
  <defs>
    <style>

      .cls-3 {
        fill: #53ecf4;
      }

      .cls-4 {
        fill: #8b71b5;
      }

      .cls-5 {
        fill: #000000;
      }
    </style>
  </defs>
  <g id="group-3svg">
    <path d="M58.353,32.769 C61.514,29.732 63.309,25.607 63.370,20.664 C63.462,13.120 58.561,6.375 51.185,4.791 C44.872,3.436 39.007,5.755 35.423,10.101 C33.811,9.416 32.039,9.012 30.177,9.012 C24.480,9.012 19.624,12.552 17.670,17.556 C15.201,16.997 12.396,17.238 9.399,20.103 C7.546,21.874 6.333,24.255 6.343,26.818 C6.349,28.238 6.675,29.533 7.252,30.709 C7.252,30.709 7.252,30.709 7.252,30.709 " id="path-1" class="cls-3" fill-rule="evenodd"/>
    <path d="M52.455,27.643 C52.511,22.987 49.487,18.824 44.934,17.847 C41.038,17.010 37.418,18.441 35.206,21.123 C34.211,20.701 33.118,20.452 31.969,20.452 C28.453,20.452 25.456,22.636 24.250,25.725 C22.726,25.379 20.995,25.528 19.145,27.296 C19.145,27.296 19.145,27.296 19.145,27.296 " id="path-2" class="cls-4" fill-rule="evenodd"/>
    <path d="M53.507,31.361 C53.114,31.361 52.720,31.207 52.426,30.900 C51.852,30.303 51.871,29.353 52.468,28.779 C55.394,25.968 56.970,22.149 57.024,17.738 C57.110,10.676 52.586,4.759 46.024,3.350 C40.527,2.170 35.185,3.963 31.734,8.147 C31.311,8.660 30.602,8.833 29.990,8.573 C28.477,7.931 26.909,7.604 25.331,7.604 C20.382,7.604 16.022,10.584 14.222,15.194 C13.952,15.885 13.220,16.276 12.493,16.111 C10.748,15.716 8.386,15.605 5.589,18.280 C3.910,19.885 2.989,21.883 2.997,23.904 C3.001,25.040 3.255,26.128 3.752,27.140 C4.117,27.884 3.811,28.782 3.067,29.147 C2.323,29.512 1.424,29.206 1.059,28.462 C0.360,27.039 0.003,25.509 -0.003,23.915 C-0.014,21.063 1.235,18.292 3.516,16.111 C6.084,13.656 8.840,12.622 11.921,12.974 C14.413,7.852 19.552,4.604 25.331,4.604 C26.958,4.604 28.571,4.878 30.141,5.419 C34.281,1.009 40.507,-0.902 46.654,0.417 C54.503,2.102 60.125,9.402 60.024,17.774 C59.959,23.008 58.066,27.561 54.546,30.943 C54.256,31.222 53.881,31.361 53.507,31.361 Z" id="path-3" class="cls-5" fill-rule="evenodd"/>
    <path d="M47.609,26.594 C47.603,26.594 47.596,26.594 47.590,26.594 C46.762,26.594 46.099,25.725 46.108,24.896 C46.158,20.814 43.553,17.307 39.773,16.495 C36.596,15.813 33.509,16.801 31.518,19.215 C31.095,19.728 30.385,19.878 29.774,19.619 C28.911,19.252 28.019,19.055 27.123,19.055 C24.307,19.055 21.826,20.745 20.801,23.368 C20.532,24.060 19.798,24.448 19.072,24.283 C18.077,24.058 16.855,24.021 15.335,25.475 C14.737,26.046 13.787,26.025 13.215,25.426 C12.642,24.828 12.664,23.877 13.262,23.305 C14.845,21.792 16.612,21.081 18.509,21.181 C20.202,18.025 23.467,16.044 27.123,16.044 C28.070,16.044 29.010,16.185 29.928,16.464 C32.618,13.784 36.536,12.643 40.403,13.472 C45.513,14.569 49.174,19.493 49.108,24.933 C49.098,25.755 48.429,26.594 47.609,26.594 Z" id="path-4" class="cls-5" fill-rule="evenodd"/>
    <path d="M6.611,36.154 C6.611,35.293 7.310,34.594 8.171,34.594 C9.033,34.594 9.731,35.293 9.731,36.154 C9.731,37.016 9.033,37.714 8.171,37.714 C7.310,37.714 6.611,37.016 6.611,36.154 Z" id="path-5" class="cls-5" fill-rule="evenodd"/>
    <path d="M14.308,36.154 C14.308,35.293 15.006,34.594 15.868,34.594 C16.729,34.594 17.428,35.293 17.428,36.154 C17.428,37.016 16.729,37.714 15.868,37.714 C15.006,37.714 14.308,37.016 14.308,36.154 Z" id="path-6" class="cls-5" fill-rule="evenodd"/>
    <path d="M22.212,36.154 C22.212,35.293 22.910,34.594 23.772,34.594 C24.633,34.594 25.332,35.293 25.332,36.154 C25.332,37.016 24.633,37.714 23.772,37.714 C22.910,37.714 22.212,37.016 22.212,36.154 Z" id="path-7" class="cls-5" fill-rule="evenodd"/>
    <path d="M29.700,36.154 C29.700,35.293 30.398,34.594 31.260,34.594 C32.122,34.594 32.820,35.293 32.820,36.154 C32.820,37.016 32.122,37.714 31.260,37.714 C30.398,37.714 29.700,37.016 29.700,36.154 Z" id="path-8" class="cls-5" fill-rule="evenodd"/>
    <path d="M37.396,36.154 C37.396,35.293 38.095,34.594 38.956,34.594 C39.818,34.594 40.516,35.293 40.516,36.154 C40.516,37.016 39.818,37.714 38.956,37.714 C38.095,37.714 37.396,37.016 37.396,36.154 Z" id="path-9" class="cls-5" fill-rule="evenodd"/>
    <path d="M0.371,42.394 C0.371,41.533 1.070,40.834 1.931,40.834 C2.793,40.834 3.491,41.533 3.491,42.394 C3.491,43.256 2.793,43.955 1.931,43.955 C1.070,43.955 0.371,43.256 0.371,42.394 Z" id="path-10" class="cls-5" fill-rule="evenodd"/>
    <path d="M8.067,42.394 C8.067,41.533 8.766,40.834 9.627,40.834 C10.489,40.834 11.187,41.533 11.187,42.394 C11.187,43.256 10.489,43.955 9.627,43.955 C8.766,43.955 8.067,43.256 8.067,42.394 Z" id="path-11" class="cls-5" fill-rule="evenodd"/>
    <path d="M15.972,42.394 C15.972,41.533 16.670,40.834 17.532,40.834 C18.393,40.834 19.092,41.533 19.092,42.394 C19.092,43.256 18.393,43.955 17.532,43.955 C16.670,43.955 15.972,43.256 15.972,42.394 Z" id="path-12" class="cls-5" fill-rule="evenodd"/>
    <path d="M23.460,42.394 C23.460,41.533 24.158,40.834 25.020,40.834 C25.881,40.834 26.580,41.533 26.580,42.394 C26.580,43.256 25.881,43.955 25.020,43.955 C24.158,43.955 23.460,43.256 23.460,42.394 Z" id="path-13" class="cls-5" fill-rule="evenodd"/>
    <path d="M31.156,42.394 C31.156,41.533 31.854,40.834 32.716,40.834 C33.578,40.834 34.276,41.533 34.276,42.394 C34.276,43.256 33.578,43.955 32.716,43.955 C31.854,43.955 31.156,43.256 31.156,42.394 Z" id="path-14" class="cls-5" fill-rule="evenodd"/>
    <path d="M11.812,29.914 C11.812,29.053 12.510,28.354 13.372,28.354 C14.233,28.354 14.932,29.053 14.932,29.914 C14.932,30.776 14.233,31.474 13.372,31.474 C12.510,31.474 11.812,30.776 11.812,29.914 Z" id="path-15" class="cls-5" fill-rule="evenodd"/>
    <path d="M19.508,29.914 C19.508,29.053 20.206,28.354 21.068,28.354 C21.929,28.354 22.628,29.053 22.628,29.914 C22.628,30.776 21.929,31.474 21.068,31.474 C20.206,31.474 19.508,30.776 19.508,29.914 Z" id="path-16" class="cls-5" fill-rule="evenodd"/>
    <path d="M27.412,29.914 C27.412,29.053 28.110,28.354 28.972,28.354 C29.833,28.354 30.532,29.053 30.532,29.914 C30.532,30.776 29.833,31.474 28.972,31.474 C28.110,31.474 27.412,30.776 27.412,29.914 Z" id="path-17" class="cls-5" fill-rule="evenodd"/>
    <path d="M34.900,29.914 C34.900,29.053 35.599,28.354 36.460,28.354 C37.322,28.354 38.020,29.053 38.020,29.914 C38.020,30.776 37.322,31.474 36.460,31.474 C35.599,31.474 34.900,30.776 34.900,29.914 Z" id="path-18" class="cls-5" fill-rule="evenodd"/>
    <path d="M42.596,29.914 C42.596,29.053 43.295,28.354 44.156,28.354 C45.018,28.354 45.716,29.053 45.716,29.914 C45.716,30.776 45.018,31.474 44.156,31.474 C43.295,31.474 42.596,30.776 42.596,29.914 Z" id="path-19" class="cls-5" fill-rule="evenodd"/>
  </g>
</svg>
