<svg xmlns="http://www.w3.org/2000/svg" xmlns:xlink="http://www.w3.org/1999/xlink" preserveAspectRatio="xMidYMid" width="66" height="56" viewBox="0 0 66 56">
  <defs>
    <style>

      .cls-3 {
        fill: #53ecf4;
      }

      .cls-4 {
        fill: #8b71b5;
      }

      .cls-5 {
        fill: #000000;
      }
    </style>
  </defs>
  <g id="group-12svg">
    <path d="M60.208,45.807 C63.534,42.612 65.423,38.273 65.486,33.072 C65.583,25.135 60.427,18.038 52.666,16.372 C46.024,14.946 39.853,17.386 36.083,21.958 C34.387,21.237 32.522,20.813 30.564,20.813 C24.570,20.813 19.461,24.537 17.405,29.802 C14.807,29.213 11.856,29.467 8.703,32.481 C6.754,34.345 5.477,36.850 5.488,39.546 C5.494,41.041 5.836,42.403 6.444,43.640 C6.444,43.640 6.444,43.640 6.444,43.640 " id="path-1" class="cls-3" fill-rule="evenodd"/>
    <path d="M27.053,19.975 C22.595,15.516 21.430,9.022 23.533,3.486 C21.546,4.242 19.680,5.406 18.080,7.007 C12.020,13.066 12.020,21.795 18.080,27.854 C18.080,27.854 18.080,27.854 18.080,27.854 " id="path-2" class="cls-4" fill-rule="evenodd"/>
    <path d="M56.208,45.308 C55.815,45.308 55.421,45.153 55.127,44.847 C54.553,44.249 54.572,43.300 55.169,42.726 C58.264,39.752 59.930,35.716 59.986,31.054 C60.078,23.585 55.293,17.329 48.351,15.838 C42.536,14.590 36.890,16.487 33.240,20.912 C32.817,21.425 32.108,21.598 31.497,21.338 C29.894,20.658 28.234,20.312 26.564,20.312 C21.325,20.312 16.708,23.467 14.803,28.348 C14.533,29.039 13.800,29.429 13.074,29.265 C11.219,28.846 8.708,28.726 5.739,31.566 C3.956,33.271 2.979,35.393 2.988,37.540 C2.993,38.747 3.263,39.904 3.791,40.979 C4.155,41.723 3.849,42.622 3.105,42.987 C2.361,43.352 1.462,43.045 1.097,42.301 C0.368,40.814 -0.006,39.217 -0.012,37.552 C-0.024,34.573 1.282,31.677 3.666,29.397 C6.365,26.817 9.269,25.742 12.501,26.125 C15.100,20.733 20.494,17.312 26.564,17.312 C28.284,17.312 29.989,17.604 31.646,18.182 C35.983,13.536 42.524,11.519 48.981,12.905 C57.203,14.670 63.093,22.318 62.986,31.090 C62.919,36.575 60.935,41.346 57.248,44.889 C56.957,45.168 56.582,45.308 56.208,45.308 Z" id="path-3" class="cls-5" fill-rule="evenodd"/>
    <path d="M14.080,27.354 C13.696,27.354 13.312,27.208 13.019,26.915 C6.364,20.260 6.364,10.601 13.019,3.946 C14.719,2.246 16.731,0.946 18.999,0.084 C19.553,-0.126 20.176,0.008 20.593,0.425 C21.011,0.843 21.145,1.467 20.935,2.019 C18.975,7.176 20.223,13.023 24.114,16.914 C24.700,17.500 24.700,18.450 24.114,19.036 C23.528,19.621 22.579,19.621 21.993,19.035 C18.107,15.150 16.392,9.660 17.228,4.350 C16.480,4.851 15.783,5.425 15.140,6.067 C9.627,11.580 9.627,19.281 15.140,24.794 C15.726,25.379 15.726,26.329 15.140,26.915 C14.847,27.208 14.463,27.354 14.080,27.354 Z" id="path-4" class="cls-5" fill-rule="evenodd"/>
    <path d="M51.001,36.062 C50.794,36.062 50.584,36.020 50.384,35.929 C49.629,35.587 49.294,34.698 49.636,33.943 C49.636,33.943 50.730,31.527 50.730,31.527 C51.072,30.772 51.961,30.438 52.715,30.779 C53.470,31.121 53.805,32.010 53.463,32.765 C53.463,32.765 52.369,35.181 52.369,35.181 C52.118,35.735 51.572,36.062 51.001,36.062 Z" id="path-5" class="cls-5" fill-rule="evenodd"/>
    <path d="M41.427,36.062 C41.220,36.062 41.010,36.020 40.809,35.929 C40.054,35.587 39.720,34.698 40.061,33.943 C40.061,33.943 41.156,31.527 41.156,31.527 C41.497,30.772 42.385,30.438 43.141,30.779 C43.896,31.121 44.230,32.010 43.888,32.765 C43.888,32.765 42.794,35.181 42.794,35.181 C42.543,35.735 41.997,36.062 41.427,36.062 Z" id="path-6" class="cls-5" fill-rule="evenodd"/>
    <path d="M31.852,36.062 C31.646,36.062 31.436,36.020 31.235,35.929 C30.480,35.587 30.145,34.698 30.487,33.943 C30.487,33.943 31.581,31.527 31.581,31.527 C31.922,30.772 32.811,30.438 33.566,30.779 C34.321,31.121 34.656,32.010 34.314,32.765 C34.314,32.765 33.220,35.181 33.220,35.181 C32.969,35.735 32.423,36.062 31.852,36.062 Z" id="path-7" class="cls-5" fill-rule="evenodd"/>
    <path d="M22.278,36.062 C22.071,36.062 21.861,36.020 21.660,35.929 C20.905,35.587 20.571,34.698 20.913,33.943 C20.913,33.943 22.007,31.527 22.007,31.527 C22.348,30.772 23.236,30.438 23.992,30.779 C24.747,31.121 25.081,32.010 24.739,32.765 C24.739,32.765 23.645,35.181 23.645,35.181 C23.394,35.735 22.849,36.062 22.278,36.062 Z" id="path-8" class="cls-5" fill-rule="evenodd"/>
    <path d="M12.704,36.062 C12.497,36.062 12.287,36.020 12.086,35.929 C11.331,35.587 10.997,34.698 11.338,33.943 C11.338,33.943 12.433,31.527 12.433,31.527 C12.773,30.772 13.662,30.438 14.417,30.779 C15.172,31.121 15.507,32.010 15.165,32.765 C15.165,32.765 14.071,35.181 14.071,35.181 C13.820,35.735 13.274,36.062 12.704,36.062 Z" id="path-9" class="cls-5" fill-rule="evenodd"/>
    <path d="M43.342,45.911 C43.135,45.911 42.925,45.868 42.724,45.777 C41.969,45.435 41.635,44.546 41.977,43.791 C41.977,43.791 43.071,41.375 43.071,41.375 C43.412,40.620 44.300,40.286 45.056,40.627 C45.810,40.969 46.145,41.858 45.803,42.612 C45.803,42.612 44.709,45.029 44.709,45.029 C44.458,45.583 43.913,45.911 43.342,45.911 Z" id="path-10" class="cls-5" fill-rule="evenodd"/>
    <path d="M33.767,45.911 C33.560,45.911 33.350,45.868 33.149,45.777 C32.394,45.435 32.060,44.546 32.402,43.791 C32.402,43.791 33.496,41.375 33.496,41.375 C33.837,40.620 34.726,40.286 35.481,40.627 C36.236,40.969 36.570,41.858 36.228,42.612 C36.228,42.612 35.134,45.029 35.134,45.029 C34.884,45.583 34.338,45.911 33.767,45.911 Z" id="path-11" class="cls-5" fill-rule="evenodd"/>
    <path d="M24.193,45.911 C23.986,45.911 23.776,45.868 23.575,45.777 C22.820,45.435 22.486,44.546 22.828,43.791 C22.828,43.791 23.922,41.375 23.922,41.375 C24.263,40.620 25.152,40.286 25.907,40.627 C26.662,40.969 26.996,41.858 26.654,42.612 C26.654,42.612 25.560,45.029 25.560,45.029 C25.310,45.583 24.764,45.911 24.193,45.911 Z" id="path-12" class="cls-5" fill-rule="evenodd"/>
    <path d="M14.618,45.911 C14.411,45.911 14.201,45.868 14.000,45.777 C13.246,45.435 12.911,44.546 13.253,43.791 C13.253,43.791 14.347,41.375 14.347,41.375 C14.688,40.620 15.578,40.286 16.332,40.627 C17.087,40.969 17.421,41.858 17.080,42.612 C17.080,42.612 15.985,45.029 15.985,45.029 C15.735,45.583 15.189,45.911 14.618,45.911 Z" id="path-13" class="cls-5" fill-rule="evenodd"/>
    <path d="M34.588,54.665 C34.381,54.665 34.171,54.621 33.970,54.530 C33.215,54.188 32.881,53.300 33.223,52.545 C33.223,52.545 34.317,50.129 34.317,50.129 C34.658,49.374 35.546,49.039 36.302,49.381 C37.057,49.723 37.391,50.612 37.049,51.366 C37.049,51.366 35.955,53.783 35.955,53.783 C35.705,54.337 35.159,54.665 34.588,54.665 Z" id="path-14" class="cls-5" fill-rule="evenodd"/>
    <path d="M25.014,54.665 C24.807,54.665 24.597,54.621 24.396,54.530 C23.641,54.188 23.307,53.300 23.648,52.545 C23.648,52.545 24.743,50.129 24.743,50.129 C25.083,49.374 25.974,49.039 26.727,49.381 C27.482,49.723 27.817,50.612 27.475,51.366 C27.475,51.366 26.381,53.783 26.381,53.783 C26.130,54.337 25.584,54.665 25.014,54.665 Z" id="path-15" class="cls-5" fill-rule="evenodd"/>
    <path d="M15.439,54.665 C15.232,54.665 15.022,54.621 14.821,54.530 C14.066,54.188 13.732,53.300 14.074,52.545 C14.074,52.545 15.168,50.129 15.168,50.129 C15.509,49.374 16.397,49.039 17.153,49.381 C17.908,49.723 18.242,50.612 17.900,51.366 C17.900,51.366 16.806,53.783 16.806,53.783 C16.556,54.337 16.010,54.665 15.439,54.665 Z" id="path-16" class="cls-5" fill-rule="evenodd"/>
  </g>
</svg>
