<svg xmlns="http://www.w3.org/2000/svg" xmlns:xlink="http://www.w3.org/1999/xlink" preserveAspectRatio="xMidYMid" width="43" height="64" viewBox="0 0 43 64">
  <defs>
    <style>

      .cls-3 {
        fill: #000000;
      }

      .cls-8 {
        fill: #e56a77;
      }

      .cls-9 {
        fill: #edc951;
      }
    </style>
  </defs>
  <g id="group-30svg">
    <path d="M15.062,63.179 C15.060,63.179 15.060,63.179 15.060,63.179 C14.906,63.179 14.750,63.177 14.595,63.172 C10.010,63.033 5.803,60.793 3.053,57.026 C0.157,53.059 -0.759,47.854 0.604,43.104 C1.703,39.274 4.196,36.404 7.844,34.749 C7.844,34.749 7.844,4.679 7.844,4.679 C7.844,2.099 9.812,-0.000 12.230,-0.000 C12.230,-0.000 18.591,-0.000 18.591,-0.000 C20.976,-0.000 22.844,2.055 22.844,4.679 C22.844,4.679 22.844,35.269 22.844,35.269 C29.099,38.129 29.972,43.342 29.972,48.116 C29.972,52.144 28.435,55.924 25.643,58.759 C22.836,61.609 19.077,63.179 15.062,63.179 ZM12.230,3.000 C11.401,3.000 10.844,3.868 10.844,4.679 C10.844,4.679 10.844,35.750 10.844,35.750 C10.844,36.376 10.456,36.936 9.871,37.155 C6.570,38.394 4.423,40.674 3.487,43.932 C2.379,47.799 3.122,52.032 5.476,55.257 C7.676,58.271 11.033,60.062 14.685,60.173 C18.061,60.269 21.180,59.015 23.505,56.654 C25.740,54.384 26.972,51.352 26.972,48.116 C26.972,43.271 25.923,39.640 20.804,37.664 C20.226,37.440 19.844,36.884 19.844,36.265 C19.844,36.265 19.844,4.679 19.844,4.679 C19.844,3.854 19.375,3.000 18.591,3.000 C18.591,3.000 12.230,3.000 12.230,3.000 Z" id="path-1" class="cls-3" fill-rule="evenodd"/>
    <path d="M0.541,7.804 C0.541,6.704 1.433,5.811 2.533,5.811 C3.633,5.811 4.525,6.704 4.525,7.804 C4.525,8.904 3.633,9.796 2.533,9.796 C1.433,9.796 0.541,8.904 0.541,7.804 Z" id="path-2" class="cls-3" fill-rule="evenodd"/>
    <path d="M0.541,14.445 C0.541,13.345 1.433,12.453 2.533,12.453 C3.633,12.453 4.525,13.345 4.525,14.445 C4.525,15.545 3.633,16.437 2.533,16.437 C1.433,16.437 0.541,15.545 0.541,14.445 Z" id="path-3" class="cls-3" fill-rule="evenodd"/>
    <path d="M0.541,21.086 C0.541,19.985 1.433,19.093 2.533,19.093 C3.633,19.093 4.525,19.985 4.525,21.086 C4.525,22.186 3.633,23.078 2.533,23.078 C1.433,23.078 0.541,22.186 0.541,21.086 Z" id="path-4" class="cls-3" fill-rule="evenodd"/>
    <path d="M0.541,27.727 C0.541,26.626 1.433,25.734 2.533,25.734 C3.633,25.734 4.525,26.626 4.525,27.727 C4.525,28.827 3.633,29.719 2.533,29.719 C1.433,29.719 0.541,28.827 0.541,27.727 Z" id="path-5" class="cls-3" fill-rule="evenodd"/>
    <path d="M9.911,55.000 C11.395,56.000 13.350,57.177 15.520,57.177 C17.681,57.177 19.595,56.000 21.041,55.000 C21.041,55.000 9.911,55.000 9.911,55.000 Z" id="path-6" class="cls-8" fill-rule="evenodd"/>
    <path d="M32.973,12.387 C33.795,13.297 35.224,13.297 36.045,12.387 C36.045,12.387 37.789,10.456 37.789,10.456 C37.789,10.456 37.656,13.055 37.656,13.055 C37.594,14.279 38.603,15.289 39.828,15.227 C39.828,15.227 42.428,15.094 42.428,15.094 C42.428,15.094 40.496,16.838 40.496,16.838 C39.586,17.660 39.586,19.088 40.496,19.910 C40.496,19.910 42.428,21.654 42.428,21.654 C42.428,21.654 39.828,21.521 39.828,21.521 C38.603,21.458 37.594,22.469 37.656,23.693 C37.656,23.693 37.789,26.292 37.789,26.292 C37.789,26.292 36.045,24.361 36.045,24.361 C35.224,23.451 33.795,23.451 32.973,24.361 C32.973,24.361 31.229,26.292 31.229,26.292 C31.229,26.292 31.362,23.693 31.362,23.693 C31.425,22.469 30.414,21.458 29.189,21.521 C29.189,21.521 26.591,21.654 26.591,21.654 C26.591,21.654 28.522,19.910 28.522,19.910 C29.433,19.088 29.433,17.660 28.522,16.838 C28.522,16.838 26.591,15.094 26.591,15.094 C26.591,15.094 29.189,15.227 29.189,15.227 C30.414,15.289 31.425,14.279 31.362,13.055 C31.362,13.055 31.229,10.456 31.229,10.456 C31.229,10.456 32.973,12.387 32.973,12.387 Z" id="path-7" class="cls-9" fill-rule="evenodd"/>
  </g>
</svg>
