<svg xmlns="http://www.w3.org/2000/svg" xmlns:xlink="http://www.w3.org/1999/xlink" preserveAspectRatio="xMidYMid" width="64" height="66" viewBox="0 0 64 66">
  <defs>
    <style>

      .cls-3 {
        fill: #8b71b5;
      }

      .cls-4 {
        fill: #53ecf4;
      }

      .cls-7 {
        fill: #000000;
      }
    </style>
  </defs>
  <g id="group-20svg">
    <path d="M35.663,18.748 C31.270,14.354 30.121,7.955 32.194,2.500 C30.236,3.244 28.397,4.392 26.820,5.969 C20.850,11.939 20.850,21.620 26.820,27.590 C32.791,33.561 42.472,33.561 48.441,27.590 C50.019,26.013 51.167,24.174 51.911,22.216 C46.456,24.289 40.057,23.141 35.663,18.748 Z" id="path-1" class="cls-3" fill-rule="evenodd"/>
    <path d="M43.410,55.742 C39.400,55.743 34.930,54.473 30.153,51.051 C13.923,39.427 3.020,50.400 2.564,50.873 C1.988,51.470 1.040,51.486 0.443,50.911 C-0.153,50.336 -0.170,49.386 0.404,48.790 C0.534,48.656 13.585,35.495 31.899,48.612 C47.973,60.123 59.771,44.083 60.267,43.394 C60.751,42.721 61.688,42.570 62.359,43.052 C63.032,43.535 63.185,44.472 62.702,45.145 C62.600,45.288 54.910,55.741 43.410,55.742 Z" id="path-2" class="cls-4" fill-rule="evenodd"/>
    <path d="M43.410,64.899 C39.400,64.900 34.930,63.630 30.153,60.208 C13.923,48.584 3.020,59.558 2.564,60.030 C1.988,60.627 1.040,60.644 0.443,60.069 C-0.153,59.494 -0.170,58.544 0.404,57.948 C0.534,57.813 13.585,44.652 31.899,57.769 C47.969,69.277 59.771,53.241 60.267,52.552 C60.751,51.879 61.688,51.727 62.359,52.209 C63.032,52.693 63.185,53.630 62.702,54.303 C62.600,54.446 54.910,64.898 43.410,64.899 Z" id="path-3" class="cls-4" fill-rule="evenodd"/>
    <path d="M43.410,46.298 C39.400,46.298 34.930,45.028 30.153,41.606 C13.989,30.032 3.020,40.960 2.561,41.431 C1.982,42.024 1.034,42.037 0.441,41.462 C-0.152,40.887 -0.169,39.941 0.404,39.346 C0.534,39.211 13.585,26.051 31.899,39.168 C47.973,50.678 59.771,34.638 60.267,33.950 C60.751,33.277 61.688,33.126 62.359,33.607 C63.032,34.090 63.185,35.028 62.702,35.701 C62.600,35.844 54.910,46.296 43.410,46.298 Z" id="path-4" class="cls-4" fill-rule="evenodd"/>
    <path d="M33.632,32.568 C29.146,32.568 24.931,30.821 21.760,27.651 C15.215,21.105 15.215,10.454 21.760,3.908 C23.437,2.230 25.424,0.948 27.661,0.098 C28.215,-0.112 28.839,0.022 29.255,0.439 C29.673,0.857 29.807,1.481 29.597,2.033 C27.668,7.106 28.895,12.858 32.724,16.687 C35.322,19.285 38.778,20.716 42.457,20.716 C44.147,20.716 45.804,20.413 47.378,19.814 C47.932,19.605 48.555,19.738 48.972,20.156 C49.390,20.573 49.523,21.197 49.313,21.749 C48.463,23.986 47.181,25.972 45.503,27.650 C42.332,30.821 38.116,32.568 33.632,32.568 ZM25.894,4.369 C25.174,4.854 24.502,5.409 23.881,6.030 C18.506,11.406 18.506,20.153 23.881,25.529 C26.485,28.134 29.948,29.568 33.632,29.568 C37.314,29.568 40.777,28.134 43.382,25.529 C44.002,24.909 44.556,24.237 45.042,23.519 C44.190,23.650 43.327,23.716 42.457,23.716 C37.977,23.716 33.768,21.973 30.603,18.808 C26.780,14.986 25.087,9.591 25.894,4.369 Z" id="path-5" class="cls-7" fill-rule="evenodd"/>
  </g>
</svg>
