<svg xmlns="http://www.w3.org/2000/svg" xmlns:xlink="http://www.w3.org/1999/xlink" preserveAspectRatio="xMidYMid" width="30" height="64" viewBox="0 0 30 64">
  <defs>
    <style>

      .cls-3 {
        fill: #000000;
      }

      .cls-8 {
        fill: #e56a77;
      }
    </style>
  </defs>
  <g id="group-26svg">
    <path d="M15.278,63.179 C15.278,63.179 15.278,63.179 15.278,63.179 C14.828,63.179 14.374,63.159 13.916,63.119 C8.870,62.675 4.539,59.837 2.032,55.336 C-0.563,50.675 -0.683,45.056 1.712,40.305 C2.990,37.770 4.889,35.945 7.500,34.750 C7.500,34.750 7.500,2.500 7.500,2.500 C7.500,1.122 8.622,-0.000 10.000,-0.000 C10.000,-0.000 21.000,-0.000 21.000,-0.000 C22.378,-0.000 23.500,1.122 23.500,2.500 C23.500,2.500 23.500,35.340 23.500,35.340 C28.024,37.802 30.408,42.198 30.408,48.116 C30.408,52.138 28.828,55.921 25.960,58.771 C23.098,61.613 19.305,63.179 15.278,63.179 ZM10.500,3.000 C10.500,3.000 10.500,35.750 10.500,35.750 C10.500,36.376 10.112,36.936 9.527,37.155 C7.114,38.060 5.482,39.490 4.391,41.656 C2.445,45.517 2.543,50.086 4.653,53.877 C6.668,57.496 10.140,59.775 14.180,60.130 C17.830,60.450 21.292,59.179 23.846,56.642 C26.143,54.360 27.408,51.332 27.408,48.116 C27.408,43.011 25.376,39.481 21.370,37.625 C20.839,37.380 20.500,36.849 20.500,36.265 C20.500,36.265 20.500,3.000 20.500,3.000 C20.500,3.000 10.500,3.000 10.500,3.000 Z" id="path-1" class="cls-3" fill-rule="evenodd"/>
    <path d="M0.944,7.804 C0.944,6.704 1.836,5.811 2.936,5.811 C4.037,5.811 4.929,6.704 4.929,7.804 C4.929,8.904 4.037,9.796 2.936,9.796 C1.836,9.796 0.944,8.904 0.944,7.804 Z" id="path-2" class="cls-3" fill-rule="evenodd"/>
    <path d="M0.944,14.445 C0.944,13.345 1.836,12.453 2.936,12.453 C4.037,12.453 4.929,13.345 4.929,14.445 C4.929,15.545 4.037,16.437 2.936,16.437 C1.836,16.437 0.944,15.545 0.944,14.445 Z" id="path-3" class="cls-3" fill-rule="evenodd"/>
    <path d="M0.944,21.086 C0.944,19.985 1.836,19.093 2.936,19.093 C4.037,19.093 4.929,19.985 4.929,21.086 C4.929,22.186 4.037,23.078 2.936,23.078 C1.836,23.078 0.944,22.186 0.944,21.086 Z" id="path-4" class="cls-3" fill-rule="evenodd"/>
    <path d="M0.944,27.727 C0.944,26.626 1.836,25.734 2.936,25.734 C4.037,25.734 4.929,26.626 4.929,27.727 C4.929,28.827 4.037,29.719 2.936,29.719 C1.836,29.719 0.944,28.827 0.944,27.727 Z" id="path-5" class="cls-3" fill-rule="evenodd"/>
    <path d="M17.500,40.659 C17.500,40.659 17.500,19.000 17.500,19.000 C17.500,19.000 13.500,19.000 13.500,19.000 C13.500,19.000 13.500,40.659 13.500,40.659 C8.500,41.776 7.438,44.989 7.438,48.784 C7.438,53.506 11.184,57.335 15.906,57.335 C20.629,57.335 23.926,53.506 23.926,48.784 C23.926,44.989 22.500,41.776 17.500,40.659 Z" id="path-6" class="cls-8" fill-rule="evenodd"/>
  </g>
</svg>
