<svg xmlns="http://www.w3.org/2000/svg" xmlns:xlink="http://www.w3.org/1999/xlink" preserveAspectRatio="xMidYMid" width="66" height="34" viewBox="0 0 66 34">
  <defs>
    <style>

      .cls-3 {
        fill: #53ecf4;
      }

      .cls-4 {
        fill: #8b71b5;
      }

      .cls-5 {
        fill: #000000;
      }
    </style>
  </defs>
  <g id="group-2svg">
    <path d="M15.704,33.937 C15.704,33.937 54.490,33.937 54.490,33.937 C56.678,33.937 58.790,33.522 60.368,32.006 C63.593,28.908 65.425,24.911 65.486,19.868 C65.580,12.171 60.580,5.395 53.055,3.779 C46.614,2.396 40.630,4.815 36.974,9.248 C35.330,8.550 33.521,8.165 31.622,8.165 C25.810,8.165 20.855,11.789 18.862,16.894 C16.342,16.324 13.481,16.576 10.423,19.499 C8.534,21.307 7.295,23.739 7.306,26.353 C7.311,27.803 7.644,28.703 8.233,29.903 C9.608,32.703 12.585,33.937 15.704,33.937 Z" id="path-1" class="cls-3" fill-rule="evenodd"/>
    <path d="M54.350,27.198 C54.408,22.448 51.322,18.201 46.678,17.204 C42.702,16.351 39.010,17.811 36.753,20.547 C35.738,20.116 34.622,19.862 33.450,19.862 C29.863,19.862 26.805,22.090 25.575,25.242 C24.020,24.889 22.254,25.041 20.367,26.845 C20.367,26.845 20.367,26.845 20.367,26.845 " id="path-2" class="cls-4" fill-rule="evenodd"/>
    <path d="M48.672,33.937 C48.672,33.937 9.886,33.937 9.886,33.937 C5.990,33.937 2.611,31.986 1.069,28.845 C0.317,27.316 -0.006,25.993 -0.012,24.421 C-0.024,21.519 1.247,18.699 3.569,16.479 C6.171,13.991 9.053,12.923 12.141,13.285 C14.675,8.055 19.913,4.739 25.804,4.739 C27.479,4.739 29.128,5.016 30.718,5.562 C34.032,2.017 38.667,0.003 43.598,0.003 C44.908,0.003 46.238,0.146 47.551,0.428 C55.674,2.172 61.273,9.421 61.168,18.057 C61.103,23.396 59.226,27.874 55.589,31.368 C53.840,33.049 51.448,33.937 48.672,33.937 ZM10.953,16.216 C9.091,16.216 7.354,17.011 5.642,18.648 C3.922,20.292 2.979,22.338 2.988,24.409 C2.992,25.511 3.216,26.413 3.761,27.522 C4.796,29.629 7.143,30.937 9.886,30.937 C9.886,30.937 48.672,30.937 48.672,30.937 C50.057,30.937 52.020,30.637 53.511,29.205 C56.546,26.289 58.113,22.525 58.168,18.020 C58.256,10.830 53.631,4.802 46.921,3.361 C41.388,2.173 35.777,4.091 32.313,8.291 C31.890,8.804 31.181,8.977 30.569,8.717 C29.040,8.068 27.437,7.739 25.804,7.739 C20.744,7.739 16.284,10.788 14.441,15.508 C14.172,16.199 13.440,16.589 12.712,16.425 C12.090,16.284 11.515,16.216 10.953,16.216 Z" id="path-3" class="cls-5" fill-rule="evenodd"/>
    <path d="M48.532,26.937 C48.526,26.937 48.519,26.937 48.513,26.937 C47.685,26.937 47.021,26.158 47.032,25.330 C47.083,21.151 44.415,17.607 40.544,16.775 C37.288,16.077 34.130,17.113 32.092,19.584 C31.669,20.097 30.960,20.259 30.348,19.999 C29.464,19.624 28.550,19.428 27.632,19.428 C24.747,19.428 22.204,21.162 21.154,23.851 C20.885,24.542 20.151,24.930 19.425,24.767 C18.404,24.536 17.147,24.498 15.585,25.990 C14.987,26.563 14.038,26.542 13.465,25.943 C12.892,25.344 12.914,24.395 13.512,23.822 C15.151,22.254 16.915,21.536 18.864,21.661 C20.583,18.443 23.908,16.422 27.632,16.422 C28.602,16.422 29.563,16.567 30.502,16.855 C33.239,14.119 37.231,12.952 41.174,13.798 C46.374,14.914 50.099,19.832 50.032,25.367 C50.021,26.188 49.352,26.937 48.532,26.937 Z" id="path-4" class="cls-5" fill-rule="evenodd"/>
  </g>
</svg>
