<svg xmlns="http://www.w3.org/2000/svg" xmlns:xlink="http://www.w3.org/1999/xlink" preserveAspectRatio="xMidYMid" width="31" height="64" viewBox="0 0 31 64">
  <defs>
    <style>

      .cls-3 {
        fill: #000000;
      }

      .cls-8 {
        fill: #e56a77;
      }
    </style>
  </defs>
  <g id="group-28svg">
    <path d="M15.327,63.179 C15.327,63.179 15.327,63.179 15.327,63.179 C15.060,63.179 14.790,63.172 14.519,63.158 C9.610,62.901 5.257,60.346 2.573,56.149 C-0.275,51.693 -0.790,46.072 1.195,41.114 C2.408,38.083 4.287,36.039 7.062,34.753 C7.062,34.753 7.062,2.500 7.062,2.500 C7.062,1.122 8.184,-0.000 9.562,-0.000 C9.562,-0.000 20.562,-0.000 20.562,-0.000 C21.941,-0.000 23.062,1.122 23.062,2.500 C23.062,2.500 23.062,35.340 23.062,35.340 C27.684,37.844 30.214,42.345 30.214,48.116 C30.214,52.145 28.681,55.924 25.897,58.758 C23.097,61.609 19.343,63.179 15.327,63.179 ZM10.062,3.000 C10.062,3.000 10.062,35.750 10.062,35.750 C10.062,36.376 9.675,36.936 9.090,37.155 C6.551,38.108 5.022,39.625 3.980,42.229 C2.353,46.291 2.772,50.891 5.102,54.533 C7.257,57.905 10.746,59.956 14.676,60.162 C18.138,60.341 21.375,59.081 23.757,56.655 C25.986,54.386 27.214,51.353 27.214,48.116 C27.214,44.658 26.124,40.031 20.932,37.625 C20.401,37.380 20.062,36.849 20.062,36.265 C20.062,36.265 20.062,3.000 20.062,3.000 C20.062,3.000 10.062,3.000 10.062,3.000 Z" id="path-1" class="cls-3" fill-rule="evenodd"/>
    <path d="M1.156,7.804 C1.156,6.704 2.049,5.811 3.148,5.811 C4.249,5.811 5.141,6.704 5.141,7.804 C5.141,8.904 4.249,9.796 3.148,9.796 C2.049,9.796 1.156,8.904 1.156,7.804 Z" id="path-2" class="cls-3" fill-rule="evenodd"/>
    <path d="M1.156,14.445 C1.156,13.345 2.049,12.453 3.148,12.453 C4.249,12.453 5.141,13.345 5.141,14.445 C5.141,15.545 4.249,16.437 3.148,16.437 C2.049,16.437 1.156,15.545 1.156,14.445 Z" id="path-3" class="cls-3" fill-rule="evenodd"/>
    <path d="M1.156,21.086 C1.156,19.985 2.049,19.093 3.148,19.093 C4.249,19.093 5.141,19.985 5.141,21.086 C5.141,22.186 4.249,23.078 3.148,23.078 C2.049,23.078 1.156,22.186 1.156,21.086 Z" id="path-4" class="cls-3" fill-rule="evenodd"/>
    <path d="M1.156,27.727 C1.156,26.626 2.049,25.734 3.148,25.734 C4.249,25.734 5.141,26.626 5.141,27.727 C5.141,28.827 4.249,29.719 3.148,29.719 C2.049,29.719 1.156,28.827 1.156,27.727 Z" id="path-5" class="cls-3" fill-rule="evenodd"/>
    <path d="M7.755,47.000 C7.708,48.000 7.684,48.102 7.684,48.549 C7.684,53.272 11.412,57.218 16.135,57.218 C20.857,57.218 24.428,53.213 24.428,48.491 C24.428,48.043 24.402,48.000 24.354,47.000 C24.354,47.000 7.755,47.000 7.755,47.000 Z" id="path-6" class="cls-8" fill-rule="evenodd"/>
  </g>
</svg>
