<svg xmlns="http://www.w3.org/2000/svg" xmlns:xlink="http://www.w3.org/1999/xlink" preserveAspectRatio="xMidYMid" width="61" height="63" viewBox="0 0 61 63">
  <defs>
    <style>

      .cls-3 {
        fill: #e56a77;
      }

      .cls-4 {
        fill: #000000;
      }
    </style>
  </defs>
  <g id="group-31svg">
    <path d="M10.788,30.205 C9.224,30.205 6.504,30.892 6.504,30.401 C6.504,15.199 18.585,3.470 33.487,3.470 C48.390,3.470 60.471,15.277 60.471,30.479 C60.471,31.015 57.643,30.191 56.014,30.191 C52.525,30.191 14.277,30.205 10.788,30.205 Z" id="path-1" class="cls-3" fill-rule="evenodd"/>
    <path d="M44.697,36.230 C43.869,36.230 43.197,35.559 43.197,34.730 C43.197,30.420 46.704,26.913 51.014,26.913 C51.697,26.913 52.495,27.002 53.267,27.088 C53.468,27.111 53.704,27.138 53.937,27.161 C53.260,13.520 42.325,3.022 28.487,3.022 C14.656,3.022 3.726,13.508 3.038,27.138 C3.239,27.118 3.438,27.096 3.611,27.078 C4.356,26.997 5.128,26.913 5.788,26.913 C10.099,26.913 13.605,30.420 13.605,34.730 C13.605,35.559 12.934,36.230 12.105,36.230 C11.277,36.230 10.605,35.559 10.605,34.730 C10.605,32.074 8.444,29.913 5.788,29.913 C5.290,29.913 4.601,29.988 3.935,30.061 C2.204,30.248 1.255,30.351 0.545,29.714 C0.201,29.405 0.004,28.965 0.004,28.505 C0.004,12.534 12.516,0.022 28.487,0.022 C44.459,0.022 56.971,12.534 56.971,28.505 C56.971,28.970 56.770,29.415 56.423,29.727 C55.694,30.378 54.714,30.268 52.934,30.070 C52.244,29.993 51.530,29.913 51.014,29.913 C48.357,29.913 46.197,32.074 46.197,34.730 C46.197,35.559 45.525,36.230 44.697,36.230 Z" id="path-2" class="cls-4" fill-rule="evenodd"/>
    <path d="M44.647,35.837 C43.866,35.837 43.208,35.232 43.153,34.441 C42.979,31.928 40.872,29.959 38.354,29.959 C36.862,29.959 35.478,30.640 34.555,31.825 C34.555,31.825 33.370,33.346 33.370,33.346 C33.370,33.346 32.187,31.825 32.187,31.825 C31.265,30.639 29.881,29.959 28.389,29.959 C26.896,29.959 25.512,30.639 24.589,31.825 C24.589,31.825 23.406,33.346 23.406,33.346 C23.406,33.346 22.222,31.825 22.222,31.825 C21.299,30.640 19.914,29.959 18.422,29.959 C15.925,29.959 13.818,31.910 13.625,34.400 C13.561,35.226 12.817,35.840 12.015,35.779 C11.188,35.716 10.570,34.994 10.635,34.168 C10.947,30.126 14.367,26.959 18.422,26.959 C20.270,26.959 22.017,27.600 23.405,28.757 C24.793,27.600 26.539,26.959 28.389,26.959 C30.237,26.959 31.983,27.600 33.371,28.757 C34.760,27.600 36.506,26.959 38.354,26.959 C42.442,26.959 45.864,30.155 46.145,34.234 C46.203,35.061 45.579,35.777 44.753,35.834 C44.718,35.836 44.683,35.837 44.647,35.837 Z" id="path-3" class="cls-4" fill-rule="evenodd"/>
    <path d="M30.971,62.938 C28.100,62.938 26.094,61.122 26.094,58.521 C26.094,58.521 26.094,28.312 26.094,28.312 C26.094,27.484 26.766,26.812 27.594,26.812 C28.422,26.812 29.094,27.484 29.094,28.312 C29.094,28.312 29.094,58.521 29.094,58.521 C29.094,59.754 30.270,59.938 30.971,59.938 C32.109,59.938 32.875,58.868 32.875,57.869 C32.875,57.041 33.547,56.369 34.375,56.369 C35.203,56.369 35.875,57.041 35.875,57.869 C35.875,60.307 34.000,62.938 30.971,62.938 Z" id="path-4" class="cls-4" fill-rule="evenodd"/>
    <path d="M44.650,34.644 C44.623,34.644 44.595,34.643 44.566,34.642 C43.740,34.596 43.106,33.888 43.151,33.062 C43.165,32.818 44.290,8.658 27.990,2.937 C27.209,2.663 26.798,1.807 27.072,1.025 C27.348,0.244 28.201,-0.168 28.984,0.107 C47.417,6.576 46.208,32.142 46.147,33.228 C46.102,34.026 45.441,34.644 44.650,34.644 Z" id="path-5" class="cls-4" fill-rule="evenodd"/>
    <path d="M12.156,34.644 C11.365,34.644 10.704,34.026 10.659,33.228 C10.599,32.142 9.390,6.576 27.822,0.107 C28.606,-0.168 29.460,0.244 29.734,1.025 C30.009,1.807 29.598,2.663 28.816,2.937 C12.517,8.658 13.642,32.818 13.655,33.062 C13.700,33.888 13.066,34.596 12.240,34.642 C12.212,34.643 12.184,34.644 12.156,34.644 Z" id="path-6" class="cls-4" fill-rule="evenodd"/>
    <path d="M44.594,44.812 C43.766,44.812 43.094,44.141 43.094,43.312 C43.094,43.312 43.094,35.312 43.094,35.312 C43.094,34.484 43.766,33.812 44.594,33.812 C45.422,33.812 46.094,34.484 46.094,35.312 C46.094,35.312 46.094,43.312 46.094,43.312 C46.094,44.141 45.422,44.812 44.594,44.812 Z" id="path-7" class="cls-4" fill-rule="evenodd"/>
  </g>
</svg>
