<svg xmlns="http://www.w3.org/2000/svg" xmlns:xlink="http://www.w3.org/1999/xlink" preserveAspectRatio="xMidYMid" width="64" height="60" viewBox="0 0 64 60">
  <defs>
    <style>

      .cls-3 {
        fill: #53ecf4;
      }

      .cls-6 {
        fill: #000000;
      }
    </style>
  </defs>
  <g id="group-23svg">
    <path d="M43.421,50.858 C39.411,50.859 34.940,49.589 30.163,46.167 C13.932,34.542 3.030,45.516 2.574,45.989 C1.999,46.586 1.050,46.603 0.453,46.027 C-0.143,45.453 -0.160,44.503 0.415,43.907 C0.544,43.772 13.595,30.611 31.910,43.728 C47.980,55.238 59.782,39.199 60.276,38.511 C60.760,37.839 61.697,37.685 62.370,38.168 C63.042,38.651 63.196,39.589 62.713,40.261 C62.610,40.404 54.920,50.857 43.421,50.858 Z" id="path-1" class="cls-3" fill-rule="evenodd"/>
    <path d="M43.421,60.016 C39.411,60.016 34.940,58.746 30.163,55.325 C13.932,43.699 3.030,54.673 2.574,55.147 C1.999,55.744 1.050,55.760 0.453,55.185 C-0.143,54.610 -0.160,53.661 0.415,53.064 C0.544,52.930 13.595,39.769 31.910,52.886 C47.980,64.396 59.782,48.356 60.276,47.668 C60.760,46.996 61.697,46.842 62.370,47.325 C63.042,47.809 63.196,48.746 62.713,49.419 C62.610,49.562 54.920,60.015 43.421,60.016 Z" id="path-2" class="cls-3" fill-rule="evenodd"/>
    <path d="M43.421,41.414 C39.411,41.415 34.940,40.144 30.163,36.723 C13.932,25.097 3.030,36.071 2.574,36.544 C1.999,37.142 1.050,37.158 0.453,36.583 C-0.143,36.008 -0.160,35.059 0.415,34.462 C0.544,34.327 13.595,21.166 31.910,34.284 C47.980,45.794 59.782,29.755 60.276,29.066 C60.760,28.395 61.697,28.240 62.370,28.724 C63.042,29.207 63.196,30.144 62.713,30.817 C62.610,30.960 54.920,41.413 43.421,41.414 Z" id="path-3" class="cls-3" fill-rule="evenodd"/>
    <path d="M20.294,24.094 C19.468,24.094 18.796,23.669 18.794,22.842 C18.792,22.013 19.462,21.462 20.290,21.460 C20.290,21.460 46.704,21.451 46.704,21.451 C51.459,21.441 56.084,16.908 56.221,12.090 C56.291,9.646 55.274,6.766 53.856,5.371 C50.577,2.147 45.286,2.198 42.061,5.477 C39.598,7.982 39.632,12.029 42.138,14.493 C43.983,16.308 46.995,16.318 48.850,14.512 C49.607,13.775 49.967,12.710 49.838,11.586 C49.679,10.206 48.990,9.206 47.947,8.842 C47.027,8.520 46.027,8.750 45.338,9.439 C44.752,10.024 43.803,10.024 43.217,9.438 C42.631,8.852 42.631,7.903 43.217,7.317 C44.728,5.808 46.919,5.306 48.935,6.009 C51.075,6.756 52.527,8.713 52.818,11.245 C53.055,13.298 52.371,15.273 50.943,16.664 C47.927,19.598 43.034,19.585 40.034,16.636 C36.349,13.011 36.299,7.065 39.922,3.381 C44.306,-1.077 51.500,-1.138 55.959,3.248 C57.974,5.228 59.314,8.912 59.220,12.207 C59.037,18.634 53.074,24.254 46.711,24.268 C46.711,24.268 20.298,24.094 20.298,24.094 C20.297,24.094 20.296,24.094 20.294,24.094 Z" id="path-4" class="cls-6" fill-rule="evenodd"/>
  </g>
</svg>
