<svg xmlns="http://www.w3.org/2000/svg" xmlns:xlink="http://www.w3.org/1999/xlink" preserveAspectRatio="xMidYMid" width="66" height="58" viewBox="0 0 66 58">
  <defs>
    <style>

      .cls-3 {
        fill: #ff917b;
      }

      .cls-4 {
        fill: #53ecf4;
      }

      .cls-5 {
        fill: #000000;
      }
    </style>
  </defs>
  <g id="group-9svg">
    <path d="M18.687,33.650 C18.102,33.436 17.002,30.961 17.002,30.961 C14.219,23.734 17.822,15.620 25.049,12.837 C32.276,10.054 40.391,13.657 43.174,20.884 C43.174,20.884 45.024,26.107 45.024,26.107 C45.024,26.107 21.381,34.955 21.381,34.955 C21.381,34.955 18.687,33.650 18.687,33.650 Z" id="path-1" class="cls-3" fill-rule="evenodd"/>
    <path d="M60.225,52.137 C63.550,48.942 65.438,44.603 65.502,39.402 C65.599,31.465 60.443,24.368 52.682,22.702 C46.040,21.275 39.869,23.716 36.099,28.288 C34.403,27.567 32.538,27.143 30.580,27.143 C24.586,27.143 19.477,30.867 17.421,36.132 C14.822,35.543 11.872,35.797 8.719,38.811 C6.770,40.675 5.493,43.180 5.504,45.876 C5.510,47.371 5.852,48.732 6.460,49.970 C6.460,49.970 6.460,49.970 6.460,49.970 " id="path-2" class="cls-4" fill-rule="evenodd"/>
    <path d="M56.225,50.637 C55.831,50.637 55.437,50.483 55.143,50.177 C54.569,49.579 54.588,48.629 55.186,48.056 C58.279,45.083 59.945,41.046 60.002,36.383 C60.093,28.915 55.309,22.658 48.368,21.168 C42.550,19.920 36.905,21.817 33.256,26.242 C32.832,26.754 32.124,26.927 31.512,26.668 C29.910,25.987 28.251,25.643 26.580,25.643 C21.341,25.643 16.724,28.796 14.818,33.677 C14.549,34.370 13.807,34.758 13.090,34.595 C11.235,34.175 8.725,34.057 5.755,36.896 C3.973,38.600 2.995,40.722 3.004,42.870 C3.009,44.077 3.278,45.233 3.807,46.309 C4.172,47.052 3.864,47.951 3.121,48.316 C2.377,48.682 1.478,48.375 1.113,47.631 C0.384,46.145 0.011,44.547 0.004,42.882 C-0.008,39.902 1.299,37.006 3.683,34.727 C6.380,32.147 9.278,31.070 12.517,31.455 C15.115,26.062 20.510,22.643 26.580,22.643 C28.300,22.643 30.005,22.935 31.662,23.512 C35.999,18.864 42.542,16.850 48.997,18.235 C57.219,20.000 63.108,27.648 63.002,36.420 C62.935,41.905 60.951,46.677 57.264,50.219 C56.973,50.498 56.599,50.637 56.225,50.637 Z" id="path-3" class="cls-5" fill-rule="evenodd"/>
    <path d="M33.230,8.333 C33.027,8.333 32.820,8.292 32.623,8.204 C31.865,7.868 31.524,6.981 31.860,6.225 C31.860,6.225 34.232,0.881 34.232,0.881 C34.567,0.124 35.454,-0.217 36.212,0.119 C36.970,0.455 37.310,1.342 36.975,2.099 C36.975,2.099 34.602,7.442 34.602,7.442 C34.354,8.001 33.806,8.333 33.230,8.333 Z" id="path-4" class="cls-5" fill-rule="evenodd"/>
    <path d="M10.083,17.247 C9.880,17.247 9.673,17.205 9.476,17.118 C9.476,17.118 4.132,14.745 4.132,14.745 C3.374,14.409 3.033,13.522 3.369,12.766 C3.704,12.009 4.593,11.666 5.349,12.003 C5.349,12.003 10.692,14.375 10.692,14.375 C11.450,14.712 11.791,15.598 11.455,16.355 C11.207,16.915 10.658,17.247 10.083,17.247 Z" id="path-5" class="cls-5" fill-rule="evenodd"/>
    <path d="M42.919,16.179 C42.316,16.179 41.749,15.813 41.520,15.217 C41.222,14.444 41.606,13.576 42.380,13.278 C42.380,13.278 46.464,11.705 46.464,11.705 C47.233,11.408 48.104,11.792 48.402,12.566 C48.700,13.339 48.315,14.207 47.542,14.505 C47.542,14.505 43.458,16.078 43.458,16.078 C43.281,16.146 43.099,16.179 42.919,16.179 Z" id="path-6" class="cls-5" fill-rule="evenodd"/>
    <path d="M4.115,31.120 C3.513,31.120 2.945,30.754 2.716,30.158 C2.418,29.385 2.803,28.517 3.576,28.220 C3.576,28.220 8.682,26.253 8.682,26.253 C9.450,25.956 10.322,26.340 10.620,27.114 C10.918,27.888 10.533,28.755 9.760,29.053 C9.760,29.053 4.654,31.019 4.654,31.019 C4.477,31.087 4.295,31.120 4.115,31.120 Z" id="path-7" class="cls-5" fill-rule="evenodd"/>
    <path d="M19.740,9.274 C19.138,9.274 18.570,8.908 18.341,8.312 C18.341,8.312 15.981,2.185 15.981,2.185 C15.684,1.413 16.068,0.545 16.842,0.247 C17.610,-0.050 18.482,0.334 18.780,1.108 C18.780,1.108 21.140,7.234 21.140,7.234 C21.437,8.008 21.053,8.875 20.279,9.173 C20.103,9.242 19.920,9.274 19.740,9.274 Z" id="path-8" class="cls-5" fill-rule="evenodd"/>
    <path d="M14.687,32.151 C14.516,32.151 14.342,32.121 14.172,32.059 C13.788,31.918 12.990,31.626 11.632,28.571 C8.527,20.513 12.523,11.513 20.510,8.437 C28.498,5.362 37.497,9.357 40.573,17.345 C40.871,18.118 40.486,18.986 39.713,19.284 C38.943,19.580 38.072,19.197 37.774,18.423 C35.292,11.979 28.029,8.755 21.588,11.237 C15.145,13.718 11.921,20.979 14.401,27.423 C14.735,28.167 15.235,29.079 15.474,29.373 C16.069,29.738 16.346,30.484 16.096,31.166 C15.873,31.774 15.299,32.151 14.687,32.151 Z" id="path-9" class="cls-5" fill-rule="evenodd"/>
    <path d="M11.262,49.193 C11.262,48.287 11.996,47.552 12.902,47.552 C13.810,47.552 14.544,48.287 14.544,49.193 C14.544,50.100 13.810,50.834 12.902,50.834 C11.996,50.834 11.262,50.100 11.262,49.193 Z" id="path-10" class="cls-5" fill-rule="evenodd"/>
    <path d="M19.358,49.193 C19.358,48.287 20.094,47.552 21.000,47.552 C21.906,47.552 22.642,48.287 22.642,49.193 C22.642,50.100 21.906,50.834 21.000,50.834 C20.094,50.834 19.358,50.100 19.358,49.193 Z" id="path-11" class="cls-5" fill-rule="evenodd"/>
    <path d="M27.675,49.193 C27.675,48.287 28.409,47.552 29.316,47.552 C30.223,47.552 30.957,48.287 30.957,49.193 C30.957,50.100 30.223,50.834 29.316,50.834 C28.409,50.834 27.675,50.100 27.675,49.193 Z" id="path-12" class="cls-5" fill-rule="evenodd"/>
    <path d="M35.553,49.193 C35.553,48.287 36.288,47.552 37.194,47.552 C38.101,47.552 38.836,48.287 38.836,49.193 C38.836,50.100 38.101,50.834 37.194,50.834 C36.288,50.834 35.553,50.100 35.553,49.193 Z" id="path-13" class="cls-5" fill-rule="evenodd"/>
    <path d="M43.650,49.193 C43.650,48.287 44.385,47.552 45.292,47.552 C46.198,47.552 46.933,48.287 46.933,49.193 C46.933,50.100 46.198,50.834 45.292,50.834 C44.385,50.834 43.650,50.100 43.650,49.193 Z" id="path-14" class="cls-5" fill-rule="evenodd"/>
    <path d="M4.696,55.758 C4.696,54.852 5.431,54.117 6.338,54.117 C7.244,54.117 7.978,54.852 7.978,55.758 C7.978,56.665 7.244,57.399 6.338,57.399 C5.431,57.399 4.696,56.665 4.696,55.758 Z" id="path-15" class="cls-5" fill-rule="evenodd"/>
    <path d="M12.793,55.758 C12.793,54.852 13.528,54.117 14.435,54.117 C15.341,54.117 16.076,54.852 16.076,55.758 C16.076,56.665 15.341,57.399 14.435,57.399 C13.528,57.399 12.793,56.665 12.793,55.758 Z" id="path-16" class="cls-5" fill-rule="evenodd"/>
    <path d="M21.109,55.758 C21.109,54.852 21.845,54.117 22.751,54.117 C23.657,54.117 24.393,54.852 24.393,55.758 C24.393,56.665 23.657,57.399 22.751,57.399 C21.845,57.399 21.109,56.665 21.109,55.758 Z" id="path-17" class="cls-5" fill-rule="evenodd"/>
    <path d="M28.988,55.758 C28.988,54.852 29.723,54.117 30.629,54.117 C31.535,54.117 32.270,54.852 32.270,55.758 C32.270,56.665 31.535,57.399 30.629,57.399 C29.723,57.399 28.988,56.665 28.988,55.758 Z" id="path-18" class="cls-5" fill-rule="evenodd"/>
    <path d="M37.085,55.758 C37.085,54.852 37.820,54.117 38.727,54.117 C39.633,54.117 40.368,54.852 40.368,55.758 C40.368,56.665 39.633,57.399 38.727,57.399 C37.820,57.399 37.085,56.665 37.085,55.758 Z" id="path-19" class="cls-5" fill-rule="evenodd"/>
    <path d="M16.732,42.628 C16.732,41.721 17.468,40.986 18.374,40.986 C19.280,40.986 20.016,41.721 20.016,42.628 C20.016,43.534 19.280,44.269 18.374,44.269 C17.468,44.269 16.732,43.534 16.732,42.628 Z" id="path-20" class="cls-5" fill-rule="evenodd"/>
    <path d="M24.830,42.628 C24.830,41.721 25.564,40.986 26.471,40.986 C27.378,40.986 28.112,41.721 28.112,42.628 C28.112,43.534 27.378,44.269 26.471,44.269 C25.564,44.269 24.830,43.534 24.830,42.628 Z" id="path-21" class="cls-5" fill-rule="evenodd"/>
    <path d="M33.145,42.628 C33.145,41.721 33.881,40.986 34.787,40.986 C35.693,40.986 36.429,41.721 36.429,42.628 C36.429,43.534 35.693,44.269 34.787,44.269 C33.881,44.269 33.145,43.534 33.145,42.628 Z" id="path-22" class="cls-5" fill-rule="evenodd"/>
    <path d="M41.024,42.628 C41.024,41.721 41.759,40.986 42.666,40.986 C43.572,40.986 44.307,41.721 44.307,42.628 C44.307,43.534 43.572,44.269 42.666,44.269 C41.759,44.269 41.024,43.534 41.024,42.628 Z" id="path-23" class="cls-5" fill-rule="evenodd"/>
    <path d="M49.121,42.628 C49.121,41.721 49.856,40.986 50.763,40.986 C51.669,40.986 52.404,41.721 52.404,42.628 C52.404,43.534 51.669,44.269 50.763,44.269 C49.856,44.269 49.121,43.534 49.121,42.628 Z" id="path-24" class="cls-5" fill-rule="evenodd"/>
  </g>
</svg>
