<svg xmlns="http://www.w3.org/2000/svg" xmlns:xlink="http://www.w3.org/1999/xlink" preserveAspectRatio="xMidYMid" width="67" height="63" viewBox="0 0 67 63">
  <defs>
    <style>

      .cls-3 {
        fill: #ff917b;
      }

      .cls-4 {
        fill: #53ecf4;
      }

      .cls-5 {
        fill: #000000;
      }
    </style>
  </defs>
  <g id="group-11svg">
    <path d="M19.672,32.649 C19.086,32.435 17.986,29.961 17.986,29.961 C15.203,22.733 18.806,14.619 26.033,11.836 C33.260,9.053 41.375,12.656 44.157,19.883 C44.157,19.883 45.333,24.254 45.333,24.254 C45.333,24.254 22.365,34.095 22.365,34.095 C22.365,34.095 19.672,32.649 19.672,32.649 Z" id="path-1" class="cls-3" fill-rule="evenodd"/>
    <path d="M61.208,51.136 C64.533,47.941 66.423,43.602 66.486,38.401 C66.583,30.464 61.427,23.367 53.666,21.701 C47.023,20.274 40.853,22.715 37.083,27.287 C35.387,26.566 33.521,26.142 31.563,26.142 C25.570,26.142 20.461,29.866 18.405,35.131 C15.807,34.542 12.855,34.796 9.702,37.811 C7.754,39.674 6.476,42.179 6.487,44.875 C6.493,46.370 6.836,47.731 7.443,48.969 C7.443,48.969 7.443,48.969 7.443,48.969 " id="path-2" class="cls-4" fill-rule="evenodd"/>
    <path d="M56.208,50.636 C55.814,50.636 55.421,50.482 55.126,50.175 C54.553,49.578 54.571,48.628 55.169,48.055 C58.264,45.081 59.930,41.045 59.986,36.382 C60.077,28.914 55.293,22.658 48.351,21.167 C42.542,19.921 36.891,21.816 33.240,26.241 C32.815,26.754 32.106,26.926 31.497,26.667 C29.894,25.987 28.234,25.642 26.563,25.642 C21.324,25.642 16.708,28.796 14.803,33.676 C14.532,34.369 13.790,34.758 13.074,34.594 C11.219,34.174 8.708,34.056 5.738,36.895 C3.956,38.600 2.978,40.722 2.987,42.869 C2.992,44.076 3.262,45.233 3.790,46.308 C4.155,47.051 3.848,47.950 3.104,48.315 C2.359,48.681 1.462,48.374 1.097,47.630 C0.367,46.144 -0.006,44.546 -0.013,42.881 C-0.024,39.903 1.281,37.007 3.665,34.727 C6.365,32.146 9.263,31.071 12.501,31.454 C15.100,26.061 20.494,22.642 26.563,22.642 C28.283,22.642 29.988,22.934 31.646,23.511 C35.982,18.864 42.528,16.848 48.980,18.234 C57.203,19.999 63.093,27.647 62.986,36.419 C62.919,41.903 60.935,46.675 57.247,50.218 C56.956,50.497 56.582,50.636 56.208,50.636 Z" id="path-3" class="cls-5" fill-rule="evenodd"/>
    <path d="M33.214,8.333 C33.011,8.333 32.804,8.291 32.606,8.204 C31.849,7.867 31.508,6.980 31.844,6.224 C31.844,6.224 34.217,0.880 34.217,0.880 C34.554,0.123 35.438,-0.219 36.196,0.118 C36.954,0.454 37.295,1.341 36.959,2.098 C36.959,2.098 34.586,7.441 34.586,7.441 C34.337,8.000 33.789,8.333 33.214,8.333 Z" id="path-4" class="cls-5" fill-rule="evenodd"/>
    <path d="M10.066,17.246 C9.863,17.246 9.656,17.204 9.459,17.117 C9.459,17.117 4.115,14.744 4.115,14.744 C3.357,14.408 3.017,13.521 3.352,12.765 C3.688,12.008 4.575,11.666 5.332,12.002 C5.332,12.002 10.676,14.374 10.676,14.374 C11.434,14.711 11.774,15.597 11.438,16.354 C11.190,16.914 10.642,17.246 10.066,17.246 Z" id="path-5" class="cls-5" fill-rule="evenodd"/>
    <path d="M42.902,16.178 C42.300,16.178 41.732,15.812 41.503,15.216 C41.205,14.443 41.590,13.575 42.363,13.277 C42.363,13.277 46.447,11.704 46.447,11.704 C47.216,11.408 48.088,11.791 48.386,12.565 C48.684,13.338 48.299,14.206 47.525,14.504 C47.525,14.504 43.441,16.077 43.441,16.077 C43.265,16.145 43.082,16.178 42.902,16.178 Z" id="path-6" class="cls-5" fill-rule="evenodd"/>
    <path d="M4.100,31.119 C3.497,31.119 2.930,30.753 2.700,30.158 C2.402,29.384 2.787,28.517 3.561,28.218 C3.561,28.218 8.666,26.252 8.666,26.252 C9.436,25.955 10.307,26.340 10.604,27.113 C10.902,27.887 10.518,28.754 9.744,29.052 C9.744,29.052 4.639,31.018 4.639,31.018 C4.462,31.086 4.279,31.119 4.100,31.119 Z" id="path-7" class="cls-5" fill-rule="evenodd"/>
    <path d="M19.725,9.273 C19.122,9.273 18.555,8.908 18.325,8.311 C18.325,8.311 15.966,2.185 15.966,2.185 C15.668,1.412 16.053,0.543 16.826,0.246 C17.596,-0.050 18.467,0.333 18.765,1.107 C18.765,1.107 21.124,7.233 21.124,7.233 C21.422,8.007 21.037,8.874 20.264,9.172 C20.087,9.241 19.904,9.273 19.725,9.273 Z" id="path-8" class="cls-5" fill-rule="evenodd"/>
    <path d="M14.672,32.150 C14.501,32.150 14.326,32.121 14.156,32.058 C13.772,31.917 12.974,31.625 11.615,28.570 C10.097,24.630 10.202,20.413 11.885,16.623 C13.567,12.833 16.625,9.926 20.494,8.436 C24.364,6.946 28.580,7.052 32.370,8.735 C36.160,10.417 39.067,13.475 40.557,17.344 C40.854,18.117 40.470,18.985 39.696,19.283 C38.922,19.580 38.055,19.195 37.758,18.422 C36.556,15.300 34.210,12.834 31.153,11.477 C28.097,10.120 24.693,10.034 21.572,11.236 C18.450,12.438 15.984,14.783 14.627,17.841 C13.270,20.897 13.184,24.300 14.386,27.421 C14.720,28.166 15.219,29.078 15.457,29.371 C16.054,29.737 16.330,30.483 16.081,31.165 C15.858,31.772 15.283,32.150 14.672,32.150 Z" id="path-9" class="cls-5" fill-rule="evenodd"/>
    <path d="M48.812,44.674 C48.605,44.674 48.396,44.631 48.194,44.541 C47.439,44.198 47.105,43.310 47.447,42.555 C47.447,42.555 48.542,40.138 48.542,40.138 C48.884,39.384 49.771,39.049 50.527,39.391 C51.282,39.733 51.616,40.622 51.274,41.376 C51.274,41.376 50.180,43.792 50.180,43.792 C49.929,44.347 49.384,44.674 48.812,44.674 Z" id="path-10" class="cls-5" fill-rule="evenodd"/>
    <path d="M39.238,44.674 C39.031,44.674 38.821,44.631 38.621,44.541 C37.866,44.199 37.531,43.310 37.873,42.555 C37.873,42.555 38.967,40.139 38.967,40.139 C39.308,39.384 40.199,39.049 40.951,39.391 C41.706,39.732 42.041,40.621 41.699,41.375 C41.699,41.375 40.605,43.792 40.605,43.792 C40.355,44.346 39.810,44.674 39.238,44.674 Z" id="path-11" class="cls-5" fill-rule="evenodd"/>
    <path d="M29.664,44.674 C29.457,44.674 29.247,44.631 29.047,44.541 C28.292,44.199 27.957,43.310 28.299,42.555 C28.299,42.555 29.393,40.139 29.393,40.139 C29.733,39.384 30.624,39.049 31.377,39.391 C32.132,39.732 32.467,40.621 32.125,41.375 C32.125,41.375 31.031,43.792 31.031,43.792 C30.781,44.346 30.235,44.674 29.664,44.674 Z" id="path-12" class="cls-5" fill-rule="evenodd"/>
    <path d="M20.089,44.674 C19.882,44.674 19.672,44.631 19.471,44.541 C18.716,44.198 18.382,43.310 18.724,42.555 C18.724,42.555 19.818,40.138 19.818,40.138 C20.160,39.384 21.048,39.049 21.804,39.391 C22.559,39.733 22.893,40.622 22.551,41.376 C22.551,41.376 21.456,43.792 21.456,43.792 C21.205,44.347 20.660,44.674 20.089,44.674 Z" id="path-13" class="cls-5" fill-rule="evenodd"/>
    <path d="M10.515,44.674 C10.308,44.674 10.098,44.631 9.896,44.541 C9.142,44.198 8.808,43.310 9.149,42.555 C9.149,42.555 10.244,40.138 10.244,40.138 C10.586,39.384 11.473,39.049 12.229,39.391 C12.984,39.733 13.318,40.622 12.977,41.376 C12.977,41.376 11.882,43.792 11.882,43.792 C11.631,44.347 11.086,44.674 10.515,44.674 Z" id="path-14" class="cls-5" fill-rule="evenodd"/>
    <path d="M41.153,54.522 C40.946,54.522 40.736,54.479 40.536,54.388 C39.781,54.046 39.446,53.158 39.788,52.403 C39.788,52.403 40.882,49.987 40.882,49.987 C41.223,49.232 42.113,48.897 42.866,49.239 C43.621,49.581 43.956,50.469 43.614,51.224 C43.614,51.224 42.520,53.641 42.520,53.641 C42.270,54.194 41.725,54.522 41.153,54.522 Z" id="path-15" class="cls-5" fill-rule="evenodd"/>
    <path d="M31.578,54.522 C31.371,54.522 31.161,54.479 30.960,54.388 C30.205,54.046 29.871,53.157 30.213,52.402 C30.213,52.402 31.308,49.986 31.308,49.986 C31.649,49.231 32.537,48.896 33.293,49.239 C34.048,49.581 34.382,50.470 34.040,51.225 C34.040,51.225 32.945,53.641 32.945,53.641 C32.694,54.195 32.149,54.522 31.578,54.522 Z" id="path-16" class="cls-5" fill-rule="evenodd"/>
    <path d="M22.004,54.522 C21.797,54.522 21.587,54.479 21.386,54.388 C20.631,54.046 20.297,53.157 20.639,52.402 C20.639,52.402 21.733,49.986 21.733,49.986 C22.075,49.231 22.962,48.896 23.719,49.239 C24.474,49.581 24.808,50.470 24.466,51.225 C24.466,51.225 23.371,53.641 23.371,53.641 C23.120,54.195 22.575,54.522 22.004,54.522 Z" id="path-17" class="cls-5" fill-rule="evenodd"/>
    <path d="M12.430,54.522 C12.223,54.522 12.013,54.479 11.812,54.388 C11.058,54.046 10.723,53.158 11.064,52.403 C11.064,52.403 12.158,49.987 12.158,49.987 C12.498,49.232 13.391,48.897 14.143,49.239 C14.897,49.581 15.232,50.469 14.891,51.224 C14.891,51.224 13.797,53.641 13.797,53.641 C13.547,54.194 13.001,54.522 12.430,54.522 Z" id="path-18" class="cls-5" fill-rule="evenodd"/>
    <path d="M32.399,63.276 C32.192,63.276 31.982,63.233 31.782,63.142 C31.027,62.800 30.692,61.912 31.034,61.157 C31.034,61.157 32.128,58.741 32.128,58.741 C32.469,57.985 33.359,57.651 34.112,57.993 C34.867,58.334 35.202,59.223 34.860,59.977 C34.860,59.977 33.767,62.394 33.767,62.394 C33.517,62.948 32.971,63.276 32.399,63.276 Z" id="path-19" class="cls-5" fill-rule="evenodd"/>
    <path d="M22.825,63.276 C22.618,63.276 22.408,63.233 22.208,63.142 C21.453,62.800 21.118,61.912 21.460,61.157 C21.460,61.157 22.554,58.741 22.554,58.741 C22.894,57.985 23.786,57.651 24.538,57.993 C25.293,58.334 25.628,59.223 25.286,59.977 C25.286,59.977 24.192,62.394 24.192,62.394 C23.942,62.948 23.396,63.276 22.825,63.276 Z" id="path-20" class="cls-5" fill-rule="evenodd"/>
    <path d="M13.250,63.276 C13.043,63.276 12.833,63.233 12.632,63.142 C11.877,62.800 11.543,61.912 11.885,61.157 C11.885,61.157 12.979,58.740 12.979,58.740 C13.321,57.985 14.208,57.651 14.965,57.993 C15.720,58.334 16.054,59.224 15.712,59.978 C15.712,59.978 14.617,62.394 14.617,62.394 C14.366,62.949 13.821,63.276 13.250,63.276 Z" id="path-21" class="cls-5" fill-rule="evenodd"/>
  </g>
</svg>
