<svg xmlns="http://www.w3.org/2000/svg" xmlns:xlink="http://www.w3.org/1999/xlink" preserveAspectRatio="xMidYMid" width="63" height="56" viewBox="0 0 63 56">
  <defs>
    <style>

      .cls-3 {
        fill: #000000;
      }

      .cls-4 {
        fill: #53ecf4;
      }
    </style>
  </defs>
  <g id="group-18svg">
    <path d="M60.796,35.000 C60.795,35.000 60.793,35.000 60.792,35.000 C60.792,35.000 18.947,35.066 18.947,35.066 C8.761,35.045 0.263,27.749 0.005,18.691 C-0.139,13.698 1.878,8.007 4.909,5.026 C8.129,1.860 12.378,-0.000 16.888,-0.000 C16.937,-0.000 16.985,-0.000 17.034,-0.000 C21.600,-0.000 25.876,2.018 29.077,5.272 C31.694,7.934 33.118,11.538 33.086,15.269 C33.054,19.001 31.570,22.539 28.909,25.156 C24.494,29.498 17.290,29.538 12.854,25.218 C10.786,23.206 9.798,20.353 10.141,17.372 C10.562,13.703 12.645,10.879 15.711,9.810 C18.587,8.809 21.708,9.525 23.861,11.677 C24.807,12.622 25.388,13.853 25.541,15.233 C25.893,18.400 24.683,20.967 22.305,22.097 C20.120,23.135 17.515,22.675 15.820,20.951 C15.239,20.360 15.247,19.411 15.838,18.831 C16.429,18.250 17.380,18.257 17.959,18.849 C18.746,19.648 20.002,19.870 21.017,19.388 C22.204,18.824 22.766,17.430 22.559,15.565 C22.481,14.869 22.199,14.259 21.740,13.801 C20.408,12.470 18.477,12.028 16.699,12.648 C14.717,13.339 13.413,15.189 13.121,17.725 C12.885,19.775 13.550,21.730 14.945,23.089 C18.226,26.280 23.544,26.266 26.806,23.058 C28.895,21.003 30.061,18.257 30.086,15.327 C30.111,12.396 28.993,9.632 26.938,7.542 C24.299,4.858 20.772,3.363 17.010,3.332 C13.227,3.318 9.696,4.737 7.013,7.375 C4.570,9.777 2.884,14.538 3.003,18.694 C3.241,27.044 11.469,32.228 18.954,32.244 C18.954,32.244 60.800,32.355 60.800,32.355 C61.628,32.357 62.298,32.853 62.296,33.682 C62.294,34.509 61.622,35.000 60.796,35.000 Z" id="path-1" class="cls-3" fill-rule="evenodd"/>
    <path d="M32.145,30.000 C31.317,30.000 30.646,29.311 30.644,28.484 C30.643,27.656 31.312,26.973 32.141,26.971 C32.141,26.971 52.854,26.911 52.854,26.911 C56.421,26.904 59.892,23.475 59.995,19.859 C60.048,18.022 59.292,15.854 58.236,14.816 C57.052,13.652 55.465,13.010 53.825,13.032 C52.164,13.045 50.608,13.705 49.444,14.889 C48.569,15.779 48.093,16.957 48.103,18.205 C48.114,19.453 48.610,20.623 49.501,21.498 C50.825,22.799 52.982,22.805 54.312,21.511 C54.833,21.003 55.081,20.265 54.991,19.484 C54.880,18.516 54.430,17.846 53.723,17.600 C53.121,17.392 52.465,17.539 52.013,17.992 C51.427,18.577 50.477,18.577 49.892,17.991 C49.306,17.405 49.306,16.456 49.892,15.870 C51.164,14.598 53.013,14.175 54.710,14.767 C56.510,15.395 57.728,17.030 57.972,19.142 C58.168,20.852 57.598,22.499 56.404,23.660 C53.916,26.082 49.876,26.073 47.397,23.637 C45.935,22.200 45.121,20.280 45.104,18.230 C45.086,16.180 45.868,14.231 47.306,12.769 C49.031,11.014 51.338,10.000 53.800,10.000 C53.826,10.000 53.852,10.000 53.879,10.000 C56.311,10.000 58.603,10.953 60.340,12.661 C61.979,14.273 63.070,17.269 62.993,19.935 C62.845,25.139 58.015,29.911 52.860,29.922 C52.860,29.922 32.148,30.000 32.148,30.000 C32.147,30.000 32.145,30.000 32.145,30.000 Z" id="path-2" class="cls-4" fill-rule="evenodd"/>
    <path d="M14.588,47.542 C14.588,46.648 15.312,45.924 16.206,45.924 C17.100,45.924 17.824,46.648 17.824,47.542 C17.824,48.436 17.100,49.160 16.206,49.160 C15.312,49.160 14.588,48.436 14.588,47.542 Z" id="path-3" class="cls-3" fill-rule="evenodd"/>
    <path d="M22.571,47.542 C22.571,46.648 23.296,45.924 24.189,45.924 C25.083,45.924 25.808,46.648 25.808,47.542 C25.808,48.436 25.083,49.160 24.189,49.160 C23.296,49.160 22.571,48.436 22.571,47.542 Z" id="path-4" class="cls-3" fill-rule="evenodd"/>
    <path d="M30.770,47.542 C30.770,46.648 31.494,45.924 32.389,45.924 C33.282,45.924 34.006,46.648 34.006,47.542 C34.006,48.436 33.282,49.160 32.389,49.160 C31.494,49.160 30.770,48.436 30.770,47.542 Z" id="path-5" class="cls-3" fill-rule="evenodd"/>
    <path d="M38.537,47.542 C38.537,46.648 39.262,45.924 40.155,45.924 C41.049,45.924 41.773,46.648 41.773,47.542 C41.773,48.436 41.049,49.160 40.155,49.160 C39.262,49.160 38.537,48.436 38.537,47.542 Z" id="path-6" class="cls-3" fill-rule="evenodd"/>
    <path d="M46.521,47.542 C46.521,46.648 47.245,45.924 48.139,45.924 C49.032,45.924 49.757,46.648 49.757,47.542 C49.757,48.436 49.032,49.160 48.139,49.160 C47.245,49.160 46.521,48.436 46.521,47.542 Z" id="path-7" class="cls-3" fill-rule="evenodd"/>
    <path d="M8.115,54.015 C8.115,53.121 8.840,52.396 9.733,52.396 C10.627,52.396 11.352,53.121 11.352,54.015 C11.352,54.909 10.627,55.633 9.733,55.633 C8.840,55.633 8.115,54.909 8.115,54.015 Z" id="path-8" class="cls-3" fill-rule="evenodd"/>
    <path d="M16.099,54.015 C16.099,53.121 16.823,52.396 17.717,52.396 C18.610,52.396 19.335,53.121 19.335,54.015 C19.335,54.909 18.610,55.633 17.717,55.633 C16.823,55.633 16.099,54.909 16.099,54.015 Z" id="path-9" class="cls-3" fill-rule="evenodd"/>
    <path d="M24.297,54.015 C24.297,53.121 25.021,52.396 25.915,52.396 C26.810,52.396 27.533,53.121 27.533,54.015 C27.533,54.909 26.810,55.633 25.915,55.633 C25.021,55.633 24.297,54.909 24.297,54.015 Z" id="path-10" class="cls-3" fill-rule="evenodd"/>
    <path d="M32.064,54.015 C32.064,53.121 32.789,52.396 33.683,52.396 C34.576,52.396 35.301,53.121 35.301,54.015 C35.301,54.909 34.576,55.633 33.683,55.633 C32.789,55.633 32.064,54.909 32.064,54.015 Z" id="path-11" class="cls-3" fill-rule="evenodd"/>
    <path d="M40.048,54.015 C40.048,53.121 40.772,52.396 41.666,52.396 C42.560,52.396 43.284,53.121 43.284,54.015 C43.284,54.909 42.560,55.633 41.666,55.633 C40.772,55.633 40.048,54.909 40.048,54.015 Z" id="path-12" class="cls-3" fill-rule="evenodd"/>
    <path d="M19.982,41.069 C19.982,40.176 20.707,39.451 21.601,39.451 C22.494,39.451 23.219,40.176 23.219,41.069 C23.219,41.963 22.494,42.687 21.601,42.687 C20.707,42.687 19.982,41.963 19.982,41.069 Z" id="path-13" class="cls-3" fill-rule="evenodd"/>
    <path d="M27.965,41.069 C27.965,40.176 28.689,39.451 29.583,39.451 C30.477,39.451 31.201,40.176 31.201,41.069 C31.201,41.963 30.477,42.687 29.583,42.687 C28.689,42.687 27.965,41.963 27.965,41.069 Z" id="path-14" class="cls-3" fill-rule="evenodd"/>
    <path d="M36.164,41.069 C36.164,40.176 36.889,39.451 37.782,39.451 C38.676,39.451 39.400,40.176 39.400,41.069 C39.400,41.963 38.676,42.687 37.782,42.687 C36.889,42.687 36.164,41.963 36.164,41.069 Z" id="path-15" class="cls-3" fill-rule="evenodd"/>
    <path d="M43.932,41.069 C43.932,40.176 44.656,39.451 45.550,39.451 C46.443,39.451 47.168,40.176 47.168,41.069 C47.168,41.963 46.443,42.687 45.550,42.687 C44.656,42.687 43.932,41.963 43.932,41.069 Z" id="path-16" class="cls-3" fill-rule="evenodd"/>
    <path d="M51.914,41.069 C51.914,40.176 52.639,39.451 53.532,39.451 C54.426,39.451 55.150,40.176 55.150,41.069 C55.150,41.963 54.426,42.687 53.532,42.687 C52.639,42.687 51.914,41.963 51.914,41.069 Z" id="path-17" class="cls-3" fill-rule="evenodd"/>
  </g>
</svg>
