<svg xmlns="http://www.w3.org/2000/svg" xmlns:xlink="http://www.w3.org/1999/xlink" preserveAspectRatio="xMidYMid" width="66" height="58" viewBox="0 0 66 58">
  <defs>
    <style>

      .cls-3 {
        fill: #8b71b5;
      }

      .cls-4 {
        fill: #53ecf4;
      }

      .cls-5 {
        fill: #000000;
      }
    </style>
  </defs>
  <g id="group-15svg">
    <path d="M27.057,18.991 C22.598,14.532 21.433,8.038 23.537,2.502 C21.550,3.257 19.684,4.422 18.083,6.022 C12.024,12.082 12.024,20.811 18.083,26.870 C18.083,26.870 18.083,26.870 18.083,26.870 " id="path-1" class="cls-3" fill-rule="evenodd"/>
    <path d="M60.212,44.823 C63.537,41.628 65.426,37.289 65.490,32.087 C65.586,24.150 60.431,17.054 52.670,15.388 C46.027,13.961 39.857,16.402 36.086,20.974 C34.391,20.253 32.526,19.829 30.567,19.829 C24.574,19.829 19.464,23.553 17.409,28.818 C14.810,28.229 11.859,28.482 8.707,31.498 C6.757,33.361 5.480,35.865 5.491,38.562 C5.497,40.057 5.840,41.418 6.448,42.656 C6.448,42.656 6.448,42.656 6.448,42.656 " id="path-2" class="cls-4" fill-rule="evenodd"/>
    <path d="M56.212,45.323 C55.818,45.323 55.425,45.169 55.130,44.862 C54.556,44.265 54.575,43.315 55.173,42.742 C58.267,39.768 59.933,35.732 59.990,31.069 C60.081,23.601 55.296,17.345 48.355,15.854 C42.543,14.607 36.894,16.503 33.244,20.928 C32.821,21.441 32.112,21.614 31.500,21.354 C29.898,20.674 28.238,20.329 26.567,20.329 C21.328,20.329 16.711,23.482 14.806,28.363 C14.536,29.055 13.804,29.445 13.077,29.281 C11.223,28.861 8.713,28.743 5.743,31.582 C3.960,33.287 2.982,35.408 2.991,37.556 C2.996,38.763 3.266,39.920 3.794,40.994 C4.159,41.738 3.853,42.637 3.109,43.002 C2.367,43.367 1.467,43.061 1.101,42.317 C0.371,40.831 -0.002,39.233 -0.009,37.567 C-0.021,34.588 1.286,31.692 3.670,29.413 C6.369,26.833 9.270,25.755 12.504,26.141 C15.103,20.748 20.497,17.329 26.567,17.329 C28.288,17.329 29.993,17.621 31.650,18.198 C35.987,13.551 42.527,11.536 48.985,12.921 C57.207,14.686 63.097,22.334 62.990,31.106 C62.923,36.591 60.938,41.362 57.251,44.904 C56.960,45.184 56.586,45.323 56.212,45.323 Z" id="path-3" class="cls-5" fill-rule="evenodd"/>
    <path d="M41.157,49.209 C40.950,49.209 40.740,49.166 40.539,49.075 C39.784,48.733 39.450,47.845 39.791,47.090 C39.791,47.090 40.886,44.674 40.886,44.674 C41.227,43.919 42.116,43.583 42.871,43.926 C43.625,44.268 43.960,45.156 43.618,45.911 C43.618,45.911 42.524,48.327 42.524,48.327 C42.273,48.881 41.728,49.209 41.157,49.209 Z" id="path-4" class="cls-5" fill-rule="evenodd"/>
    <path d="M31.582,49.209 C31.375,49.209 31.165,49.166 30.965,49.075 C30.210,48.733 29.875,47.845 30.217,47.090 C30.217,47.090 31.312,44.674 31.312,44.674 C31.653,43.919 32.542,43.583 33.296,43.926 C34.051,44.268 34.386,45.156 34.044,45.911 C34.044,45.911 32.950,48.327 32.950,48.327 C32.699,48.881 32.153,49.209 31.582,49.209 Z" id="path-5" class="cls-5" fill-rule="evenodd"/>
    <path d="M22.008,49.209 C21.801,49.209 21.591,49.166 21.390,49.075 C20.635,48.733 20.301,47.845 20.643,47.090 C20.643,47.090 21.737,44.674 21.737,44.674 C22.078,43.919 22.966,43.583 23.722,43.926 C24.477,44.268 24.811,45.156 24.469,45.911 C24.469,45.911 23.375,48.327 23.375,48.327 C23.124,48.881 22.579,49.209 22.008,49.209 Z" id="path-6" class="cls-5" fill-rule="evenodd"/>
    <path d="M12.434,49.209 C12.227,49.209 12.017,49.166 11.816,49.075 C11.061,48.733 10.727,47.845 11.068,47.090 C11.068,47.090 12.163,44.674 12.163,44.674 C12.503,43.919 13.393,43.583 14.147,43.926 C14.902,44.268 15.237,45.156 14.895,45.911 C14.895,45.911 13.801,48.327 13.801,48.327 C13.550,48.881 13.004,49.209 12.434,49.209 Z" id="path-7" class="cls-5" fill-rule="evenodd"/>
    <path d="M32.403,57.963 C32.197,57.963 31.986,57.920 31.786,57.829 C31.031,57.487 30.696,56.599 31.038,55.844 C31.038,55.844 32.131,53.428 32.131,53.428 C32.473,52.673 33.360,52.338 34.117,52.680 C34.871,53.021 35.206,53.910 34.865,54.665 C34.865,54.665 33.771,57.081 33.771,57.081 C33.520,57.635 32.975,57.963 32.403,57.963 Z" id="path-8" class="cls-5" fill-rule="evenodd"/>
    <path d="M22.829,57.963 C22.622,57.963 22.412,57.920 22.211,57.829 C21.456,57.487 21.122,56.598 21.463,55.844 C21.463,55.844 22.558,53.427 22.558,53.427 C22.898,52.672 23.788,52.338 24.542,52.680 C25.297,53.021 25.632,53.910 25.290,54.665 C25.290,54.665 24.196,57.081 24.196,57.081 C23.945,57.635 23.399,57.963 22.829,57.963 Z" id="path-9" class="cls-5" fill-rule="evenodd"/>
    <path d="M13.254,57.963 C13.047,57.963 12.837,57.920 12.637,57.829 C11.882,57.487 11.547,56.598 11.889,55.844 C11.889,55.844 12.983,53.427 12.983,53.427 C13.325,52.672 14.213,52.338 14.968,52.680 C15.723,53.021 16.058,53.910 15.716,54.665 C15.716,54.665 14.622,57.081 14.622,57.081 C14.371,57.635 13.825,57.963 13.254,57.963 Z" id="path-10" class="cls-5" fill-rule="evenodd"/>
    <path d="M40.572,39.908 C40.134,39.908 39.699,39.716 39.402,39.348 C38.883,38.703 38.985,37.758 39.631,37.239 C39.631,37.239 47.626,30.807 47.626,30.807 C47.626,30.807 41.096,28.124 41.096,28.124 C40.581,27.912 40.226,27.433 40.172,26.879 C40.119,26.326 40.377,25.788 40.842,25.483 C40.842,25.483 49.721,19.647 49.721,19.647 C50.414,19.191 51.344,19.384 51.798,20.077 C52.253,20.769 52.061,21.699 51.369,22.154 C51.369,22.154 44.865,26.429 44.865,26.429 C44.865,26.429 51.115,28.996 51.115,28.996 C51.605,29.198 51.953,29.644 52.029,30.168 C52.105,30.693 51.898,31.220 51.485,31.552 C51.485,31.552 41.512,39.576 41.512,39.576 C41.234,39.799 40.902,39.908 40.572,39.908 Z" id="path-11" class="cls-5" fill-rule="evenodd"/>
    <path d="M14.083,27.370 C13.699,27.370 13.315,27.224 13.022,26.931 C6.368,20.276 6.368,10.617 13.022,3.962 C14.723,2.262 16.735,0.962 19.004,0.100 C19.556,-0.110 20.180,0.024 20.597,0.441 C21.015,0.859 21.148,1.483 20.939,2.035 C18.979,7.192 20.227,13.039 24.118,16.930 C24.704,17.516 24.704,18.466 24.118,19.051 C23.532,19.637 22.582,19.637 21.997,19.051 C18.111,15.166 16.395,9.675 17.232,4.366 C16.484,4.867 15.787,5.440 15.144,6.083 C9.631,11.596 9.631,19.296 15.144,24.810 C15.729,25.395 15.729,26.345 15.144,26.931 C14.851,27.224 14.467,27.370 14.083,27.370 Z" id="path-12" class="cls-5" fill-rule="evenodd"/>
  </g>
</svg>
