<svg xmlns="http://www.w3.org/2000/svg" xmlns:xlink="http://www.w3.org/1999/xlink" preserveAspectRatio="xMidYMid" width="67" height="64" viewBox="0 0 67 64">
  <defs>
    <style>

      .cls-3 {
        fill: #ff917b;
      }

      .cls-4 {
        fill: #53ecf4;
      }

      .cls-5 {
        fill: #000000;
      }
    </style>
  </defs>
  <g id="group-14svg">
    <path d="M19.685,33.095 C19.100,32.881 17.999,30.407 17.999,30.407 C15.217,23.180 18.819,15.065 26.046,12.282 C33.273,9.499 41.388,13.102 44.171,20.329 C44.171,20.329 45.958,26.372 45.958,26.372 C45.958,26.372 19.685,33.095 19.685,33.095 C19.685,33.095 19.685,33.095 19.685,33.095 Z" id="path-1" class="cls-3" fill-rule="evenodd"/>
    <path d="M61.222,52.143 C64.547,48.948 66.436,44.608 66.499,39.407 C66.596,31.470 61.440,24.373 53.680,22.707 C47.037,21.281 40.867,23.722 37.096,28.293 C35.400,27.573 33.536,27.148 31.577,27.148 C25.584,27.148 20.474,30.872 18.418,36.137 C15.820,35.549 12.869,35.802 9.716,38.817 C7.767,40.680 6.490,43.185 6.501,45.881 C6.507,47.376 6.850,48.738 7.457,49.975 C7.457,49.975 7.457,49.975 7.457,49.975 " id="path-2" class="cls-4" fill-rule="evenodd"/>
    <path d="M56.222,50.643 C55.828,50.643 55.435,50.488 55.140,50.182 C54.566,49.584 54.585,48.635 55.183,48.061 C58.277,45.088 59.943,41.052 59.999,36.389 C60.091,28.920 55.306,22.664 48.365,21.173 C42.555,19.927 36.903,21.823 33.253,26.248 C32.831,26.760 32.121,26.933 31.510,26.673 C29.907,25.993 28.248,25.648 26.577,25.648 C21.338,25.648 16.721,28.802 14.816,33.683 C14.546,34.374 13.810,34.764 13.087,34.600 C11.231,34.181 8.722,34.062 5.752,36.901 C3.970,38.606 2.992,40.727 3.001,42.875 C3.006,44.082 3.276,45.239 3.804,46.313 C4.169,47.057 3.863,47.956 3.119,48.321 C2.376,48.686 1.477,48.381 1.111,47.637 C0.381,46.150 0.007,44.553 0.001,42.887 C-0.011,39.908 1.295,37.012 3.679,34.732 C6.379,32.152 9.282,31.074 12.514,31.460 C15.113,26.068 20.507,22.648 26.577,22.648 C28.297,22.648 30.002,22.940 31.660,23.518 C35.998,18.871 42.537,16.853 48.995,18.240 C57.216,20.005 63.106,27.653 62.999,36.425 C62.933,41.910 60.948,46.682 57.261,50.224 C56.970,50.503 56.596,50.643 56.222,50.643 Z" id="path-3" class="cls-5" fill-rule="evenodd"/>
    <path d="M33.227,8.339 C33.024,8.339 32.818,8.297 32.620,8.209 C31.863,7.873 31.521,6.987 31.857,6.230 C31.857,6.230 34.230,0.886 34.230,0.886 C34.566,0.130 35.450,-0.213 36.210,0.124 C36.967,0.460 37.308,1.347 36.972,2.103 C36.972,2.103 34.600,7.447 34.600,7.447 C34.351,8.006 33.803,8.339 33.227,8.339 Z" id="path-4" class="cls-5" fill-rule="evenodd"/>
    <path d="M10.080,17.252 C9.877,17.252 9.670,17.210 9.472,17.123 C9.472,17.123 4.128,14.750 4.128,14.750 C3.372,14.414 3.030,13.528 3.366,12.770 C3.702,12.014 4.585,11.671 5.346,12.009 C5.346,12.009 10.690,14.381 10.690,14.381 C11.447,14.717 11.788,15.603 11.452,16.360 C11.204,16.920 10.655,17.252 10.080,17.252 Z" id="path-5" class="cls-5" fill-rule="evenodd"/>
    <path d="M42.916,16.184 C42.314,16.184 41.746,15.818 41.516,15.223 C41.219,14.449 41.604,13.581 42.377,13.283 C42.377,13.283 46.461,11.710 46.461,11.710 C47.234,11.412 48.102,11.798 48.400,12.571 C48.698,13.344 48.312,14.212 47.540,14.510 C47.540,14.510 43.455,16.083 43.455,16.083 C43.278,16.151 43.096,16.184 42.916,16.184 Z" id="path-6" class="cls-5" fill-rule="evenodd"/>
    <path d="M4.113,31.125 C3.511,31.125 2.942,30.760 2.713,30.164 C2.415,29.391 2.801,28.523 3.574,28.225 C3.574,28.225 8.679,26.259 8.679,26.259 C9.451,25.961 10.320,26.347 10.618,27.120 C10.915,27.893 10.530,28.761 9.757,29.059 C9.757,29.059 4.652,31.024 4.652,31.024 C4.475,31.093 4.292,31.125 4.113,31.125 Z" id="path-7" class="cls-5" fill-rule="evenodd"/>
    <path d="M19.738,9.279 C19.136,9.279 18.567,8.914 18.338,8.318 C18.338,8.318 15.978,2.191 15.978,2.191 C15.681,1.418 16.066,0.550 16.839,0.252 C17.611,-0.044 18.480,0.340 18.778,1.113 C18.778,1.113 21.138,7.240 21.138,7.240 C21.435,8.013 21.050,8.881 20.277,9.179 C20.100,9.247 19.917,9.279 19.738,9.279 Z" id="path-8" class="cls-5" fill-rule="evenodd"/>
    <path d="M14.685,32.156 C14.514,32.156 14.339,32.127 14.169,32.064 C13.786,31.924 12.987,31.631 11.629,28.577 C8.524,20.519 12.520,11.518 20.507,8.442 C28.496,5.367 37.496,9.363 40.571,17.351 C40.868,18.124 40.483,18.991 39.710,19.290 C38.935,19.586 38.069,19.202 37.771,18.428 C36.569,15.307 34.224,12.840 31.166,11.483 C28.109,10.125 24.706,10.040 21.585,11.242 C15.142,13.723 11.918,20.984 14.399,27.428 C14.733,28.173 15.232,29.084 15.471,29.378 C16.067,29.744 16.343,30.490 16.094,31.171 C15.871,31.779 15.296,32.156 14.685,32.156 Z" id="path-9" class="cls-5" fill-rule="evenodd"/>
    <path d="M41.166,54.528 C40.959,54.528 40.749,54.485 40.549,54.395 C39.794,54.053 39.459,53.164 39.801,52.410 C39.801,52.410 40.895,49.993 40.895,49.993 C41.237,49.238 42.126,48.904 42.880,49.245 C43.635,49.587 43.970,50.476 43.628,51.230 C43.628,51.230 42.534,53.646 42.534,53.646 C42.283,54.201 41.737,54.528 41.166,54.528 Z" id="path-10" class="cls-5" fill-rule="evenodd"/>
    <path d="M31.592,54.528 C31.385,54.528 31.175,54.485 30.975,54.395 C30.220,54.053 29.885,53.164 30.227,52.410 C30.227,52.410 31.321,49.993 31.321,49.993 C31.663,49.238 32.552,48.904 33.306,49.245 C34.061,49.587 34.396,50.476 34.054,51.230 C34.054,51.230 32.959,53.646 32.959,53.646 C32.709,54.201 32.163,54.528 31.592,54.528 Z" id="path-11" class="cls-5" fill-rule="evenodd"/>
    <path d="M22.018,54.528 C21.811,54.528 21.601,54.485 21.400,54.395 C20.645,54.053 20.310,53.164 20.652,52.410 C20.652,52.410 21.747,49.993 21.747,49.993 C22.087,49.238 22.976,48.904 23.731,49.245 C24.486,49.587 24.821,50.476 24.479,51.230 C24.479,51.230 23.385,53.646 23.385,53.646 C23.134,54.201 22.588,54.528 22.018,54.528 Z" id="path-12" class="cls-5" fill-rule="evenodd"/>
    <path d="M12.443,54.528 C12.236,54.528 12.026,54.485 11.826,54.395 C11.071,54.053 10.736,53.164 11.078,52.410 C11.078,52.410 12.172,49.993 12.172,49.993 C12.513,49.238 13.401,48.904 14.157,49.245 C14.912,49.587 15.247,50.476 14.905,51.230 C14.905,51.230 13.810,53.646 13.810,53.646 C13.560,54.201 13.014,54.528 12.443,54.528 Z" id="path-13" class="cls-5" fill-rule="evenodd"/>
    <path d="M32.413,63.282 C32.206,63.282 31.996,63.239 31.795,63.148 C31.040,62.806 30.706,61.917 31.047,61.163 C31.047,61.163 32.142,58.747 32.142,58.747 C32.483,57.992 33.372,57.657 34.126,57.999 C34.881,58.341 35.216,59.229 34.874,59.984 C34.874,59.984 33.780,62.400 33.780,62.400 C33.529,62.954 32.983,63.282 32.413,63.282 Z" id="path-14" class="cls-5" fill-rule="evenodd"/>
    <path d="M22.838,63.282 C22.631,63.282 22.421,63.239 22.221,63.148 C21.466,62.806 21.131,61.917 21.473,61.163 C21.473,61.163 22.567,58.747 22.567,58.747 C22.908,57.992 23.798,57.657 24.552,57.999 C25.307,58.341 25.642,59.229 25.300,59.984 C25.300,59.984 24.206,62.400 24.206,62.400 C23.955,62.954 23.409,63.282 22.838,63.282 Z" id="path-15" class="cls-5" fill-rule="evenodd"/>
    <path d="M13.264,63.282 C13.057,63.282 12.847,63.239 12.646,63.148 C11.892,62.806 11.557,61.917 11.899,61.163 C11.899,61.163 12.993,58.747 12.993,58.747 C13.334,57.992 14.224,57.657 14.978,57.999 C15.733,58.341 16.067,59.229 15.726,59.984 C15.726,59.984 14.631,62.400 14.631,62.400 C14.381,62.954 13.835,63.282 13.264,63.282 Z" id="path-16" class="cls-5" fill-rule="evenodd"/>
    <path d="M40.582,45.227 C40.143,45.227 39.708,45.036 39.413,44.667 C38.893,44.022 38.995,43.078 39.641,42.559 C39.641,42.559 47.636,36.126 47.636,36.126 C47.636,36.126 41.105,33.443 41.105,33.443 C40.591,33.231 40.235,32.752 40.182,32.199 C40.129,31.645 40.387,31.107 40.852,30.802 C40.852,30.802 49.731,24.966 49.731,24.966 C50.423,24.511 51.353,24.703 51.808,25.396 C52.263,26.088 52.071,27.019 51.378,27.473 C51.378,27.473 44.874,31.748 44.874,31.748 C44.874,31.748 51.125,34.315 51.125,34.315 C51.615,34.517 51.963,34.963 52.039,35.488 C52.115,36.013 51.908,36.539 51.495,36.872 C51.495,36.872 41.521,44.896 41.521,44.896 C41.244,45.119 40.912,45.227 40.582,45.227 Z" id="path-17" class="cls-5" fill-rule="evenodd"/>
  </g>
</svg>
