<svg xmlns="http://www.w3.org/2000/svg" xmlns:xlink="http://www.w3.org/1999/xlink" preserveAspectRatio="xMidYMid" width="30" height="64" viewBox="0 0 30 64">
  <defs>
    <style>

      .cls-3 {
        fill: #000000;
      }

      .cls-8 {
        fill: #e56a77;
      }
    </style>
  </defs>
  <g id="group-25svg">
    <path d="M15.292,64.000 C15.291,64.000 15.291,64.000 15.291,64.000 C14.795,64.000 14.291,63.726 13.794,63.678 C8.787,63.193 4.494,60.225 2.017,55.751 C-0.560,51.098 -0.681,45.418 1.692,40.662 C2.953,38.136 4.828,36.258 7.406,35.073 C7.406,35.073 7.406,2.500 7.406,2.500 C7.406,1.122 8.528,-0.000 9.906,-0.000 C9.906,-0.000 20.906,-0.000 20.906,-0.000 C22.285,-0.000 23.406,1.122 23.406,2.500 C23.406,2.500 23.406,35.662 23.406,35.662 C27.966,38.136 30.368,42.533 30.368,48.438 C30.368,52.461 28.799,56.494 25.949,59.339 C23.101,62.184 19.316,64.000 15.292,64.000 ZM10.406,3.000 C10.406,3.000 10.406,36.073 10.406,36.073 C10.406,36.698 10.018,37.258 9.433,37.477 C7.058,38.369 5.451,39.786 4.377,41.938 C2.444,45.811 2.543,50.384 4.642,54.173 C6.633,57.770 10.074,60.054 14.083,60.442 C14.490,60.482 14.893,60.501 15.291,60.501 C15.291,60.501 15.292,60.501 15.292,60.501 C18.516,60.501 21.547,59.246 23.829,56.967 C26.111,54.688 27.368,51.659 27.368,48.438 C27.368,43.350 25.318,39.820 21.276,37.947 C20.746,37.702 20.406,37.171 20.406,36.586 C20.406,36.586 20.406,3.000 20.406,3.000 C20.406,3.000 10.406,3.000 10.406,3.000 Z" id="path-1" class="cls-3" fill-rule="evenodd"/>
    <path d="M0.994,8.126 C0.994,7.026 1.886,6.134 2.986,6.134 C4.086,6.134 4.978,7.026 4.978,8.126 C4.978,9.227 4.086,10.118 2.986,10.118 C1.886,10.118 0.994,9.227 0.994,8.126 Z" id="path-2" class="cls-3" fill-rule="evenodd"/>
    <path d="M0.994,14.767 C0.994,13.666 1.886,12.775 2.986,12.775 C4.086,12.775 4.978,13.666 4.978,14.767 C4.978,15.867 4.086,16.759 2.986,16.759 C1.886,16.759 0.994,15.867 0.994,14.767 Z" id="path-3" class="cls-3" fill-rule="evenodd"/>
    <path d="M0.994,21.408 C0.994,20.308 1.886,19.415 2.986,19.415 C4.086,19.415 4.978,20.308 4.978,21.408 C4.978,22.508 4.086,23.400 2.986,23.400 C1.886,23.400 0.994,22.508 0.994,21.408 Z" id="path-4" class="cls-3" fill-rule="evenodd"/>
    <path d="M0.994,28.049 C0.994,26.948 1.886,26.057 2.986,26.057 C4.086,26.057 4.978,26.948 4.978,28.049 C4.978,29.149 4.086,30.041 2.986,30.041 C1.886,30.041 0.994,29.149 0.994,28.049 Z" id="path-5" class="cls-3" fill-rule="evenodd"/>
    <path d="M17.406,40.980 C17.406,40.980 17.406,7.000 17.406,7.000 C17.406,7.000 13.406,7.000 13.406,7.000 C13.406,7.000 13.406,40.980 13.406,40.980 C8.406,42.099 7.416,45.312 7.416,49.106 C7.416,53.829 11.197,57.657 15.920,57.657 C20.643,57.657 23.886,53.829 23.886,49.106 C23.886,45.312 22.406,42.099 17.406,40.980 Z" id="path-6" class="cls-8" fill-rule="evenodd"/>
  </g>
</svg>
