<svg xmlns="http://www.w3.org/2000/svg" xmlns:xlink="http://www.w3.org/1999/xlink" preserveAspectRatio="xMidYMid" width="63" height="60" viewBox="0 0 63 60">
  <defs>
    <style>

      .cls-3 {
        fill: #000000;
      }

      .cls-8 {
        fill: #ff917b;
      }

      .cls-9 {
        fill: #e56a77;
      }

      .cls-12 {
        fill: #53ecf4;
      }
    </style>
  </defs>
  <g id="group-24svg">
    <path d="M47.915,18.975 C47.531,18.975 47.147,18.828 46.854,18.535 C46.268,17.950 46.268,17.000 46.854,16.414 C46.854,16.414 52.311,10.957 52.311,10.957 C52.897,10.371 53.846,10.372 54.432,10.957 C55.018,11.543 55.018,12.493 54.432,13.079 C54.432,13.079 48.976,18.535 48.976,18.535 C48.683,18.828 48.299,18.975 47.915,18.975 Z" id="path-1" class="cls-3" fill-rule="evenodd"/>
    <path d="M15.175,18.975 C14.791,18.975 14.407,18.828 14.114,18.535 C14.114,18.535 8.657,13.079 8.657,13.079 C8.071,12.493 8.071,11.543 8.657,10.957 C9.243,10.371 10.192,10.372 10.778,10.957 C10.778,10.957 16.235,16.414 16.235,16.414 C16.821,17.000 16.821,17.950 16.235,18.535 C15.942,18.828 15.559,18.975 15.175,18.975 Z" id="path-2" class="cls-3" fill-rule="evenodd"/>
    <path d="M61.500,32.500 C61.500,32.500 56.500,32.500 56.500,32.500 C55.671,32.500 55.000,31.829 55.000,31.000 C55.000,30.171 55.671,29.500 56.500,29.500 C56.500,29.500 61.500,29.500 61.500,29.500 C62.329,29.500 63.000,30.171 63.000,31.000 C63.000,31.829 62.329,32.500 61.500,32.500 Z" id="path-3" class="cls-3" fill-rule="evenodd"/>
    <path d="M7.500,32.500 C7.500,32.500 1.500,32.500 1.500,32.500 C0.671,32.500 -0.000,31.829 -0.000,31.000 C-0.000,30.171 0.671,29.500 1.500,29.500 C1.500,29.500 7.500,29.500 7.500,29.500 C8.329,29.500 9.000,30.171 9.000,31.000 C9.000,31.829 8.329,32.500 7.500,32.500 Z" id="path-4" class="cls-3" fill-rule="evenodd"/>
    <path d="M31.000,13.000 C30.171,13.000 29.500,12.329 29.500,11.500 C29.500,11.500 29.500,1.500 29.500,1.500 C29.500,0.671 30.171,-0.000 31.000,-0.000 C31.829,-0.000 32.500,0.671 32.500,1.500 C32.500,1.500 32.500,11.500 32.500,11.500 C32.500,12.329 31.829,13.000 31.000,13.000 Z" id="path-5" class="cls-3" fill-rule="evenodd"/>
    <path d="M54.993,35.905 C54.993,25.683 46.707,17.396 36.484,17.396 C26.263,17.396 17.976,25.683 17.976,35.905 C17.976,35.905 17.976,35.905 17.976,35.905 " id="path-6" class="cls-8" fill-rule="evenodd"/>
    <path d="M34.115,36.102 C34.115,31.651 37.724,28.043 42.174,28.043 C46.625,28.043 50.233,31.651 50.233,36.102 C50.233,36.102 50.233,36.102 50.233,36.102 " id="path-7" class="cls-9" fill-rule="evenodd"/>
    <path d="M49.993,35.405 C49.165,35.405 48.493,34.733 48.493,33.905 C48.493,24.526 40.863,16.896 31.484,16.896 C22.106,16.896 14.476,24.526 14.476,33.905 C14.476,34.733 13.805,35.405 12.976,35.405 C12.147,35.405 11.476,34.733 11.476,33.905 C11.476,22.872 20.452,13.896 31.484,13.896 C42.517,13.896 51.493,22.872 51.493,33.905 C51.493,34.733 50.822,35.405 49.993,35.405 Z" id="path-8" class="cls-3" fill-rule="evenodd"/>
    <path d="M45.233,35.602 C44.405,35.602 43.733,34.931 43.733,34.103 C43.733,30.485 40.791,27.543 37.174,27.543 C33.558,27.543 30.615,30.485 30.615,34.103 C30.615,34.931 29.944,35.602 29.115,35.602 C28.287,35.602 27.615,34.931 27.615,34.103 C27.615,28.831 31.903,24.543 37.174,24.543 C42.445,24.543 46.733,28.831 46.733,34.103 C46.733,34.931 46.062,35.602 45.233,35.602 Z" id="path-9" class="cls-3" fill-rule="evenodd"/>
    <path d="M40.374,60.419 C36.725,60.419 32.655,59.263 28.308,56.149 C13.811,45.767 3.971,55.553 3.560,55.975 C2.983,56.565 2.035,56.581 1.440,56.004 C0.847,55.429 0.830,54.483 1.404,53.888 C1.521,53.766 13.401,41.784 30.055,53.710 C44.416,63.996 55.044,49.643 55.490,49.026 C55.975,48.355 56.913,48.204 57.583,48.687 C58.255,49.171 58.408,50.106 57.925,50.779 C57.831,50.909 50.837,60.418 40.374,60.419 Z" id="path-10" class="cls-12" fill-rule="evenodd"/>
    <path d="M40.374,51.883 C36.725,51.883 32.655,50.728 28.308,47.614 C13.811,37.231 3.971,47.018 3.560,47.439 C2.983,48.030 2.035,48.046 1.440,47.469 C0.847,46.894 0.830,45.948 1.404,45.353 C1.521,45.231 13.401,33.249 30.055,45.175 C44.416,55.461 55.044,41.107 55.490,40.491 C55.975,39.820 56.913,39.669 57.583,40.152 C58.255,40.636 58.408,41.571 57.925,42.243 C57.831,42.374 50.837,51.883 40.374,51.883 Z" id="path-11" class="cls-12" fill-rule="evenodd"/>
  </g>
</svg>
