<svg xmlns="http://www.w3.org/2000/svg" xmlns:xlink="http://www.w3.org/1999/xlink" preserveAspectRatio="xMidYMid" width="64" height="60" viewBox="0 0 64 60">
  <defs>
    <style>

      .cls-3 {
        fill: #53ecf4;
      }

      .cls-6 {
        fill: #000000;
      }
    </style>
  </defs>
  <g id="group-21svg">
    <path d="M43.413,49.927 C39.403,49.928 34.933,48.658 30.156,45.236 C13.926,33.612 3.023,44.585 2.567,45.058 C1.991,45.655 1.042,45.671 0.446,45.096 C-0.150,44.521 -0.167,43.571 0.407,42.975 C0.537,42.841 13.587,29.680 31.902,42.797 C47.972,54.305 59.773,38.268 60.269,37.580 C60.755,36.906 61.692,36.755 62.362,37.237 C63.035,37.720 63.188,38.658 62.705,39.330 C62.602,39.474 54.913,49.926 43.413,49.927 Z" id="path-1" class="cls-3" fill-rule="evenodd"/>
    <path d="M43.413,59.084 C39.403,59.085 34.933,57.815 30.156,54.394 C13.993,42.819 3.022,53.747 2.564,54.219 C1.985,54.812 1.037,54.825 0.444,54.249 C-0.149,53.674 -0.166,52.728 0.407,52.133 C0.537,51.998 13.587,38.838 31.902,51.955 C47.976,63.465 59.773,47.426 60.269,46.737 C60.755,46.064 61.692,45.913 62.362,46.395 C63.035,46.878 63.188,47.815 62.705,48.488 C62.602,48.631 54.913,59.083 43.413,59.084 Z" id="path-2" class="cls-3" fill-rule="evenodd"/>
    <path d="M43.413,40.483 C39.403,40.483 34.933,39.213 30.156,35.791 C13.926,24.167 3.023,35.141 2.567,35.613 C1.991,36.210 1.042,36.227 0.446,35.652 C-0.150,35.077 -0.167,34.127 0.407,33.531 C0.537,33.396 13.587,20.236 31.902,33.353 C47.972,44.860 59.773,28.824 60.269,28.136 C60.755,27.462 61.692,27.311 62.362,27.792 C63.035,28.276 63.188,29.213 62.705,29.886 C62.602,30.029 54.913,40.481 43.413,40.483 Z" id="path-3" class="cls-3" fill-rule="evenodd"/>
    <path d="M52.966,5.527 C52.759,5.527 52.549,5.483 52.348,5.393 C51.593,5.051 51.259,4.162 51.601,3.407 C51.601,3.407 52.746,0.879 52.746,0.879 C53.088,0.125 53.976,-0.210 54.731,0.132 C55.486,0.474 55.820,1.363 55.479,2.118 C55.479,2.118 54.333,4.645 54.333,4.645 C54.082,5.199 53.537,5.527 52.966,5.527 Z" id="path-4" class="cls-6" fill-rule="evenodd"/>
    <path d="M42.950,5.527 C42.743,5.527 42.533,5.483 42.332,5.393 C41.578,5.051 41.243,4.163 41.585,3.408 C41.585,3.408 42.729,0.880 42.729,0.880 C43.071,0.125 43.958,-0.209 44.715,0.132 C45.469,0.474 45.804,1.362 45.462,2.117 C45.462,2.117 44.317,4.645 44.317,4.645 C44.066,5.199 43.521,5.527 42.950,5.527 Z" id="path-5" class="cls-6" fill-rule="evenodd"/>
    <path d="M32.935,5.527 C32.728,5.527 32.518,5.483 32.316,5.393 C31.562,5.051 31.227,4.163 31.569,3.408 C31.569,3.408 32.714,0.880 32.714,0.880 C33.056,0.125 33.943,-0.209 34.699,0.132 C35.453,0.474 35.788,1.362 35.446,2.117 C35.446,2.117 34.302,4.645 34.302,4.645 C34.051,5.199 33.506,5.527 32.935,5.527 Z" id="path-6" class="cls-6" fill-rule="evenodd"/>
    <path d="M22.918,5.527 C22.711,5.527 22.501,5.483 22.300,5.393 C21.546,5.051 21.211,4.163 21.553,3.408 C21.553,3.408 22.697,0.880 22.697,0.880 C23.040,0.125 23.926,-0.209 24.683,0.132 C25.436,0.474 25.771,1.362 25.430,2.117 C25.430,2.117 24.285,4.645 24.285,4.645 C24.034,5.199 23.489,5.527 22.918,5.527 Z" id="path-7" class="cls-6" fill-rule="evenodd"/>
    <path d="M12.902,5.527 C12.695,5.527 12.485,5.483 12.284,5.393 C11.530,5.051 11.195,4.163 11.537,3.408 C11.537,3.408 12.682,0.880 12.682,0.880 C13.024,0.125 13.910,-0.209 14.667,0.132 C15.421,0.474 15.756,1.362 15.414,2.117 C15.414,2.117 14.269,4.645 14.269,4.645 C14.019,5.199 13.474,5.527 12.902,5.527 Z" id="path-8" class="cls-6" fill-rule="evenodd"/>
    <path d="M44.953,15.829 C44.746,15.829 44.536,15.786 44.335,15.695 C43.580,15.353 43.246,14.464 43.588,13.709 C43.588,13.709 44.733,11.182 44.733,11.182 C45.075,10.427 45.963,10.092 46.719,10.435 C47.474,10.776 47.808,11.665 47.466,12.420 C47.466,12.420 46.320,14.948 46.320,14.948 C46.069,15.501 45.524,15.829 44.953,15.829 Z" id="path-9" class="cls-6" fill-rule="evenodd"/>
    <path d="M34.937,15.829 C34.730,15.829 34.520,15.786 34.319,15.695 C33.565,15.354 33.230,14.465 33.572,13.710 C33.572,13.710 34.717,11.182 34.717,11.182 C35.059,10.428 35.945,10.093 36.702,10.434 C37.456,10.776 37.791,11.665 37.449,12.419 C37.449,12.419 36.305,14.947 36.305,14.947 C36.054,15.501 35.509,15.829 34.937,15.829 Z" id="path-10" class="cls-6" fill-rule="evenodd"/>
    <path d="M24.922,15.829 C24.715,15.829 24.505,15.786 24.304,15.695 C23.550,15.354 23.215,14.465 23.557,13.710 C23.557,13.710 24.701,11.182 24.701,11.182 C25.043,10.428 25.931,10.093 26.686,10.434 C27.440,10.776 27.775,11.665 27.434,12.419 C27.434,12.419 26.289,14.947 26.289,14.947 C26.038,15.501 25.493,15.829 24.922,15.829 Z" id="path-11" class="cls-6" fill-rule="evenodd"/>
    <path d="M14.905,15.829 C14.698,15.829 14.488,15.786 14.287,15.695 C13.533,15.354 13.198,14.465 13.540,13.710 C13.540,13.710 14.685,11.182 14.685,11.182 C15.026,10.428 15.913,10.093 16.670,10.434 C17.424,10.776 17.759,11.665 17.417,12.419 C17.417,12.419 16.272,14.947 16.272,14.947 C16.021,15.501 15.476,15.829 14.905,15.829 Z" id="path-12" class="cls-6" fill-rule="evenodd"/>
    <path d="M35.796,24.987 C35.589,24.987 35.379,24.943 35.178,24.853 C34.424,24.511 34.089,23.622 34.431,22.867 C34.431,22.867 35.575,20.340 35.575,20.340 C35.917,19.584 36.805,19.250 37.560,19.592 C38.314,19.934 38.649,20.822 38.308,21.577 C38.308,21.577 37.163,24.104 37.163,24.104 C36.912,24.659 36.367,24.987 35.796,24.987 Z" id="path-13" class="cls-6" fill-rule="evenodd"/>
    <path d="M25.780,24.987 C25.573,24.987 25.363,24.943 25.162,24.853 C24.408,24.511 24.073,23.622 24.415,22.867 C24.415,22.867 25.560,20.340 25.560,20.340 C25.901,19.584 26.789,19.250 27.545,19.592 C28.299,19.934 28.634,20.822 28.292,21.577 C28.292,21.577 27.147,24.104 27.147,24.104 C26.896,24.659 26.352,24.987 25.780,24.987 Z" id="path-14" class="cls-6" fill-rule="evenodd"/>
    <path d="M15.764,24.987 C15.557,24.987 15.347,24.943 15.145,24.853 C14.392,24.511 14.057,23.622 14.398,22.867 C14.398,22.867 15.543,20.340 15.543,20.340 C15.885,19.584 16.772,19.250 17.528,19.592 C18.282,19.934 18.617,20.822 18.275,21.577 C18.275,21.577 17.131,24.104 17.131,24.104 C16.880,24.659 16.335,24.987 15.764,24.987 Z" id="path-15" class="cls-6" fill-rule="evenodd"/>
  </g>
</svg>
