<svg xmlns="http://www.w3.org/2000/svg" xmlns:xlink="http://www.w3.org/1999/xlink" preserveAspectRatio="xMidYMid" width="65" height="35" viewBox="0 0 65 35">
  <defs>
    <style>

      .cls-3 {
        fill: #53ecf4;
      }

      .cls-4 {
        fill: #000000;
      }
    </style>
  </defs>
  <g id="group-16svg">
    <path d="M59.389,34.289 C62.612,31.192 64.443,26.986 64.505,21.945 C64.599,14.252 59.601,7.373 52.079,5.759 C45.642,4.377 39.661,6.742 36.006,11.173 C34.363,10.475 32.555,10.063 30.657,10.063 C24.848,10.063 19.895,13.673 17.903,18.776 C15.385,18.206 12.524,18.451 9.469,21.373 C7.580,23.179 6.342,25.607 6.353,28.220 C6.358,29.669 6.690,30.989 7.279,32.188 C7.279,32.188 7.279,32.188 7.279,32.188 " id="path-1" class="cls-3" fill-rule="evenodd"/>
    <path d="M54.543,31.912 C54.149,31.912 53.756,31.757 53.461,31.451 C52.887,30.853 52.906,29.904 53.504,29.330 C56.494,26.457 58.104,22.556 58.159,18.050 C58.247,10.834 53.624,4.788 46.918,3.348 C41.301,2.143 35.844,3.975 32.317,8.250 C31.894,8.764 31.184,8.936 30.574,8.677 C29.027,8.020 27.424,7.686 25.810,7.686 C20.752,7.686 16.294,10.731 14.455,15.444 C14.185,16.136 13.453,16.527 12.726,16.362 C10.939,15.957 8.521,15.844 5.659,18.581 C3.940,20.224 2.998,22.269 3.006,24.337 C3.011,25.500 3.271,26.615 3.779,27.650 C4.144,28.394 3.838,29.292 3.094,29.658 C2.352,30.023 1.452,29.717 1.087,28.973 C0.376,27.526 0.013,25.970 0.006,24.349 C-0.005,21.449 1.266,18.630 3.586,16.412 C6.203,13.910 9.014,12.859 12.153,13.224 C14.685,7.998 19.921,4.686 25.810,4.686 C27.473,4.686 29.122,4.967 30.724,5.521 C34.939,1.021 41.287,-0.929 47.548,0.415 C55.538,2.131 61.263,9.562 61.159,18.086 C61.094,23.415 59.165,28.051 55.582,31.494 C55.291,31.773 54.917,31.912 54.543,31.912 Z" id="path-2" class="cls-4" fill-rule="evenodd"/>
    <path d="M13.916,32.156 C13.090,32.156 12.418,31.569 12.416,30.742 C12.415,29.913 13.084,29.281 13.913,29.278 C13.913,29.278 38.384,29.234 38.384,29.234 C42.735,29.225 46.967,25.059 47.092,20.651 C47.156,18.414 46.228,15.771 44.934,14.499 C43.483,13.071 41.562,12.303 39.529,12.314 C37.494,12.331 35.588,13.141 34.161,14.592 C33.076,15.695 32.486,17.156 32.499,18.703 C32.513,20.250 33.127,21.701 34.231,22.786 C35.901,24.427 38.621,24.434 40.296,22.802 C40.973,22.144 41.294,21.189 41.179,20.183 C41.037,18.947 40.425,18.053 39.500,17.730 C38.687,17.447 37.805,17.649 37.197,18.257 C36.611,18.843 35.662,18.843 35.076,18.257 C34.490,17.671 34.490,16.721 35.076,16.136 C36.506,14.706 38.580,14.232 40.488,14.898 C42.512,15.604 43.885,17.452 44.159,19.840 C44.382,21.777 43.736,23.640 42.389,24.952 C39.552,27.713 34.949,27.700 32.128,24.926 C30.453,23.278 29.520,21.078 29.499,18.729 C29.479,16.381 30.375,14.165 32.022,12.490 C34.011,10.468 36.668,9.341 39.504,9.317 C42.363,9.290 45.015,10.376 47.037,12.364 C48.923,14.219 50.179,17.666 50.091,20.747 C49.919,26.757 44.343,32.161 38.391,32.173 C38.391,32.173 13.920,32.156 13.920,32.156 C13.919,32.156 13.918,32.156 13.916,32.156 Z" id="path-3" class="cls-4" fill-rule="evenodd"/>
  </g>
</svg>
