<svg xmlns="http://www.w3.org/2000/svg" xmlns:xlink="http://www.w3.org/1999/xlink" preserveAspectRatio="xMidYMid" width="67" height="60" viewBox="0 0 67 60">
  <defs>
    <style>

      .cls-3 {
        fill: #8b71b5;
      }

      .cls-4 {
        fill: #53ecf4;
      }

      .cls-5 {
        fill: #000000;
      }
    </style>
  </defs>
  <g id="group-10svg">
    <path d="M67.000,38.009 C67.000,42.429 63.418,46.011 59.000,46.011 C59.000,46.011 39.000,46.011 39.000,46.011 C34.582,46.011 31.000,42.429 31.000,38.009 C31.000,38.009 31.000,12.001 31.000,12.001 C31.000,7.581 34.582,3.998 39.000,3.998 C39.000,3.998 59.000,3.998 59.000,3.998 C63.418,3.998 67.000,7.581 67.000,12.001 C67.000,12.001 67.000,38.009 67.000,38.009 Z" id="path-1" class="cls-3" fill-rule="evenodd"/>
    <path d="M31.000,38.009 C31.000,38.009 67.000,38.009 67.000,38.009 C67.000,38.009 67.000,12.001 67.000,12.001 C67.000,12.001 31.000,12.001 31.000,12.001 C31.000,12.001 31.000,38.009 31.000,38.009 Z" id="path-2" class="cls-4" fill-rule="evenodd"/>
    <path d="M54.500,45.011 C54.500,45.011 34.500,45.011 34.500,45.011 C29.262,45.011 25.000,40.748 25.000,35.508 C25.000,35.508 25.000,9.500 25.000,9.500 C25.000,4.260 29.262,-0.003 34.500,-0.003 C34.500,-0.003 54.500,-0.003 54.500,-0.003 C59.738,-0.003 64.000,4.260 64.000,9.500 C64.000,9.500 64.000,35.508 64.000,35.508 C64.000,40.748 59.738,45.011 54.500,45.011 ZM34.500,2.998 C30.916,2.998 28.000,5.915 28.000,9.500 C28.000,9.500 28.000,35.508 28.000,35.508 C28.000,39.093 30.916,42.010 34.500,42.010 C34.500,42.010 54.500,42.010 54.500,42.010 C58.084,42.010 61.000,39.093 61.000,35.508 C61.000,35.508 61.000,9.500 61.000,9.500 C61.000,5.915 58.084,2.998 54.500,2.998 C54.500,2.998 34.500,2.998 34.500,2.998 Z" id="path-3" class="cls-5" fill-rule="evenodd"/>
    <path d="M62.500,37.008 C62.500,37.008 26.500,37.008 26.500,37.008 C25.672,37.008 25.000,36.336 25.000,35.508 C25.000,35.508 25.000,9.500 25.000,9.500 C25.000,8.672 25.672,8.000 26.500,8.000 C26.500,8.000 62.500,8.000 62.500,8.000 C63.328,8.000 64.000,8.672 64.000,9.500 C64.000,9.500 64.000,35.508 64.000,35.508 C64.000,36.336 63.328,37.008 62.500,37.008 ZM28.000,34.007 C28.000,34.007 61.000,34.007 61.000,34.007 C61.000,34.007 61.000,11.000 61.000,11.000 C61.000,11.000 28.000,11.000 28.000,11.000 C28.000,11.000 28.000,34.007 28.000,34.007 Z" id="path-4" class="cls-5" fill-rule="evenodd"/>
    <path d="M47.000,41.010 C47.000,41.010 43.000,41.010 43.000,41.010 C42.172,41.010 41.500,40.338 41.500,39.509 C41.500,38.681 42.172,38.009 43.000,38.009 C43.000,38.009 47.000,38.009 47.000,38.009 C47.828,38.009 48.500,38.681 48.500,39.509 C48.500,40.338 47.828,41.010 47.000,41.010 Z" id="path-5" class="cls-5" fill-rule="evenodd"/>
    <path d="M36.765,31.601 C36.381,31.601 35.997,31.454 35.704,31.161 C35.118,30.575 35.118,29.625 35.704,29.039 C35.704,29.039 51.920,12.819 51.920,12.819 C52.506,12.233 53.455,12.233 54.041,12.819 C54.627,13.405 54.627,14.355 54.041,14.941 C54.041,14.941 37.825,31.161 37.825,31.161 C37.532,31.454 37.148,31.601 36.765,31.601 Z" id="path-6" class="cls-5" fill-rule="evenodd"/>
    <path d="M45.700,30.608 C45.316,30.608 44.933,30.461 44.640,30.168 C44.054,29.582 44.054,28.633 44.640,28.047 C44.640,28.047 49.338,23.346 49.338,23.346 C49.924,22.760 50.873,22.760 51.459,23.346 C52.045,23.932 52.045,24.882 51.459,25.468 C51.459,25.468 46.761,30.168 46.761,30.168 C46.468,30.461 46.084,30.608 45.700,30.608 Z" id="path-7" class="cls-5" fill-rule="evenodd"/>
    <path d="M35.000,59.015 C35.000,59.015 29.000,59.015 29.000,59.015 C28.172,59.015 27.500,58.343 27.500,57.515 C27.500,56.686 28.172,56.014 29.000,56.014 C29.000,56.014 35.000,56.014 35.000,56.014 C35.828,56.014 36.500,56.686 36.500,57.515 C36.500,58.343 35.828,59.015 35.000,59.015 ZM23.000,59.015 C23.000,59.015 17.000,59.015 17.000,59.015 C16.172,59.015 15.500,58.343 15.500,57.515 C15.500,56.686 16.172,56.014 17.000,56.014 C17.000,56.014 23.000,56.014 23.000,56.014 C23.828,56.014 24.500,56.686 24.500,57.515 C24.500,58.343 23.828,59.015 23.000,59.015 ZM11.000,59.015 C11.000,59.015 5.000,59.015 5.000,59.015 C4.172,59.015 3.500,58.343 3.500,57.515 C3.500,56.686 4.172,56.014 5.000,56.014 C5.000,56.014 11.000,56.014 11.000,56.014 C11.828,56.014 12.500,56.686 12.500,57.515 C12.500,58.343 11.828,59.015 11.000,59.015 ZM1.500,56.514 C0.672,56.514 -0.000,55.842 -0.000,55.014 C-0.000,55.014 -0.000,49.012 -0.000,49.012 C-0.000,48.184 0.672,47.512 1.500,47.512 C2.328,47.512 3.000,48.184 3.000,49.012 C3.000,49.012 3.000,55.014 3.000,55.014 C3.000,55.842 2.328,56.514 1.500,56.514 ZM1.500,44.511 C0.672,44.511 -0.000,43.839 -0.000,43.010 C-0.000,43.010 -0.000,37.008 -0.000,37.008 C-0.000,36.180 0.672,35.508 1.500,35.508 C2.328,35.508 3.000,36.180 3.000,37.008 C3.000,37.008 3.000,43.010 3.000,43.010 C3.000,43.839 2.328,44.511 1.500,44.511 ZM1.500,32.507 C0.672,32.507 -0.000,31.835 -0.000,31.007 C-0.000,31.007 -0.000,28.506 -0.000,28.506 C-0.000,27.677 0.672,27.005 1.500,27.005 C1.500,27.005 5.000,27.005 5.000,27.005 C5.828,27.005 6.500,27.677 6.500,28.506 C6.500,29.334 5.828,30.006 5.000,30.006 C5.000,30.006 3.000,30.006 3.000,30.006 C3.000,30.006 3.000,31.007 3.000,31.007 C3.000,31.835 2.328,32.507 1.500,32.507 ZM17.000,30.006 C17.000,30.006 11.000,30.006 11.000,30.006 C10.172,30.006 9.500,29.334 9.500,28.506 C9.500,27.677 10.172,27.005 11.000,27.005 C11.000,27.005 17.000,27.005 17.000,27.005 C17.828,27.005 18.500,27.677 18.500,28.506 C18.500,29.334 17.828,30.006 17.000,30.006 Z" id="path-8" class="cls-3" fill-rule="evenodd"/>
  </g>
</svg>
