<svg xmlns="http://www.w3.org/2000/svg" xmlns:xlink="http://www.w3.org/1999/xlink" preserveAspectRatio="xMidYMid" width="52" height="66" viewBox="0 0 52 66">
  <defs>
    <style>

      .cls-3 {
        fill: #81bda4;
      }

      .cls-4 {
        fill: #000000;
      }
    </style>
  </defs>
  <g id="group-20svg">
    <path d="M35.769,5.006 C35.769,5.006 10.588,5.006 10.588,5.006 C8.378,5.006 7.000,6.593 7.000,8.803 C7.000,8.803 7.000,60.819 7.000,60.819 C7.000,63.028 8.378,65.024 10.588,65.024 C10.588,65.024 48.470,65.024 48.470,65.024 C50.679,65.024 52.000,63.028 52.000,60.819 C52.000,60.819 52.000,23.384 52.000,23.384 C52.000,23.384 35.769,5.006 35.769,5.006 Z" id="path-1" class="cls-3" fill-rule="evenodd"/>
    <path d="M43.470,63.024 C43.470,63.024 5.588,63.024 5.588,63.024 C2.454,63.024 -0.000,60.737 -0.000,57.817 C-0.000,57.817 -0.000,5.801 -0.000,5.801 C-0.000,2.713 2.611,0.005 5.588,0.005 C5.588,0.005 30.769,0.005 30.769,0.005 C31.197,0.005 31.606,0.188 31.891,0.510 C31.891,0.510 48.622,19.387 48.622,19.387 C48.865,19.662 49.000,20.016 49.000,20.383 C49.000,20.383 49.000,57.817 49.000,57.817 C49.000,60.786 46.622,63.024 43.470,63.024 ZM5.588,3.005 C4.258,3.005 3.000,4.364 3.000,5.801 C3.000,5.801 3.000,57.817 3.000,57.817 C3.000,59.265 4.302,60.023 5.588,60.023 C5.588,60.023 43.470,60.023 43.470,60.023 C44.727,60.023 46.000,59.265 46.000,57.817 C46.000,57.817 46.000,20.952 46.000,20.952 C46.000,20.952 30.094,3.005 30.094,3.005 C30.094,3.005 5.588,3.005 5.588,3.005 Z" id="path-2" class="cls-4" fill-rule="evenodd"/>
    <path d="M26.500,27.513 C25.672,27.513 25.000,26.841 25.000,26.012 C25.000,26.012 25.000,9.007 25.000,9.007 C25.000,8.179 25.672,7.507 26.500,7.507 C27.328,7.507 28.000,8.179 28.000,9.007 C28.000,9.007 28.000,26.012 28.000,26.012 C28.000,26.841 27.328,27.513 26.500,27.513 Z" id="path-3" class="cls-4" fill-rule="evenodd"/>
    <path d="M18.500,27.513 C17.672,27.513 17.000,26.841 17.000,26.012 C17.000,26.012 17.000,9.007 17.000,9.007 C17.000,8.179 17.672,7.507 18.500,7.507 C19.328,7.507 20.000,8.179 20.000,9.007 C20.000,9.007 20.000,26.012 20.000,26.012 C20.000,26.841 19.328,27.513 18.500,27.513 Z" id="path-4" class="cls-4" fill-rule="evenodd"/>
    <path d="M10.500,27.513 C9.672,27.513 9.000,26.841 9.000,26.012 C9.000,26.012 9.000,9.007 9.000,9.007 C9.000,8.179 9.672,7.507 10.500,7.507 C11.328,7.507 12.000,8.179 12.000,9.007 C12.000,9.007 12.000,26.012 12.000,26.012 C12.000,26.841 11.328,27.513 10.500,27.513 Z" id="path-5" class="cls-4" fill-rule="evenodd"/>
  </g>
</svg>
