<svg xmlns="http://www.w3.org/2000/svg" xmlns:xlink="http://www.w3.org/1999/xlink" preserveAspectRatio="xMidYMid" width="63" height="55" viewBox="0 0 63 55">
  <defs>
    <style>

      .cls-3 {
        fill: #000000;
      }

      .cls-4 {
        fill: #edc951;
      }
    </style>
  </defs>
  <g id="group-26svg">
    <path d="M61.500,44.527 C60.671,44.527 60.000,43.855 60.000,43.027 C60.000,43.027 60.000,31.941 60.000,31.941 C60.000,15.721 47.873,3.015 32.392,3.015 C16.455,3.015 3.000,16.261 3.000,31.941 C3.000,31.941 3.000,43.027 3.000,43.027 C3.000,43.855 2.329,44.527 1.500,44.527 C0.671,44.527 -0.000,43.855 -0.000,43.027 C-0.000,43.027 -0.000,31.941 -0.000,31.941 C-0.000,14.635 14.829,0.014 32.382,0.014 C49.555,0.014 63.000,14.038 63.000,31.941 C63.000,31.941 63.000,43.027 63.000,43.027 C63.000,43.855 62.329,44.527 61.500,44.527 Z" id="path-1" class="cls-3" fill-rule="evenodd"/>
    <path d="M61.000,34.024 C61.000,32.919 60.104,32.024 59.000,32.024 C59.000,32.024 54.000,32.024 54.000,32.024 C52.895,32.024 52.000,32.919 52.000,34.024 C52.000,34.024 52.000,52.030 52.000,52.030 C52.000,53.135 52.895,54.030 54.000,54.030 C54.000,54.030 59.000,54.030 59.000,54.030 C60.104,54.030 61.000,53.135 61.000,52.030 C61.000,52.030 61.000,34.024 61.000,34.024 Z" id="path-2" class="cls-4" fill-rule="evenodd"/>
    <path d="M19.000,34.024 C19.000,32.919 18.104,32.024 17.000,32.024 C17.000,32.024 12.000,32.024 12.000,32.024 C10.895,32.024 10.000,32.919 10.000,34.024 C10.000,34.024 10.000,52.030 10.000,52.030 C10.000,53.135 10.895,54.030 12.000,54.030 C12.000,54.030 17.000,54.030 17.000,54.030 C18.104,54.030 19.000,53.135 19.000,52.030 C19.000,52.030 19.000,34.024 19.000,34.024 Z" id="path-3" class="cls-4" fill-rule="evenodd"/>
    <path d="M55.500,52.030 C55.500,52.030 50.500,52.030 50.500,52.030 C48.570,52.030 47.000,50.459 47.000,48.529 C47.000,48.529 47.000,30.523 47.000,30.523 C47.000,28.593 48.570,27.022 50.500,27.022 C50.500,27.022 55.500,27.022 55.500,27.022 C57.430,27.022 59.000,28.593 59.000,30.523 C59.000,30.523 59.000,48.529 59.000,48.529 C59.000,50.459 57.430,52.030 55.500,52.030 ZM50.500,30.023 C50.224,30.023 50.000,30.248 50.000,30.523 C50.000,30.523 50.000,48.529 50.000,48.529 C50.000,48.804 50.224,49.029 50.500,49.029 C50.500,49.029 55.500,49.029 55.500,49.029 C55.776,49.029 56.000,48.804 56.000,48.529 C56.000,48.529 56.000,30.523 56.000,30.523 C56.000,30.248 55.776,30.023 55.500,30.023 C55.500,30.023 50.500,30.023 50.500,30.023 Z" id="path-4" class="cls-3" fill-rule="evenodd"/>
    <path d="M13.500,52.030 C13.500,52.030 8.500,52.030 8.500,52.030 C6.570,52.030 5.000,50.459 5.000,48.529 C5.000,48.529 5.000,30.523 5.000,30.523 C5.000,28.593 6.570,27.022 8.500,27.022 C8.500,27.022 13.500,27.022 13.500,27.022 C15.430,27.022 17.000,28.593 17.000,30.523 C17.000,30.523 17.000,48.529 17.000,48.529 C17.000,50.459 15.430,52.030 13.500,52.030 ZM8.500,30.023 C8.224,30.023 8.000,30.248 8.000,30.523 C8.000,30.523 8.000,48.529 8.000,48.529 C8.000,48.804 8.224,49.029 8.500,49.029 C8.500,49.029 13.500,49.029 13.500,49.029 C13.776,49.029 14.000,48.804 14.000,48.529 C14.000,48.529 14.000,30.523 14.000,30.523 C14.000,30.248 13.776,30.023 13.500,30.023 C13.500,30.023 8.500,30.023 8.500,30.023 Z" id="path-5" class="cls-3" fill-rule="evenodd"/>
  </g>
</svg>
