<svg xmlns="http://www.w3.org/2000/svg" xmlns:xlink="http://www.w3.org/1999/xlink" preserveAspectRatio="xMidYMid" width="46" height="66" viewBox="0 0 46 66">
  <defs>
    <style>

      .cls-3 {
        fill: #ff917b;
      }

      .cls-4 {
        fill: #e56a77;
      }

      .cls-5 {
        fill: #000000;
      }

      .cls-9 {
        fill: #ffffff;
      }
    </style>
  </defs>
  <g id="group-4svg">
    <path d="M46.000,57.013 C46.000,61.433 42.418,65.016 38.000,65.016 C38.000,65.016 14.000,65.016 14.000,65.016 C9.582,65.016 6.000,61.433 6.000,57.013 C6.000,57.013 6.000,13.000 6.000,13.000 C6.000,8.580 9.582,4.997 14.000,4.997 C14.000,4.997 38.000,4.997 38.000,4.997 C42.418,4.997 46.000,8.580 46.000,13.000 C46.000,13.000 46.000,57.013 46.000,57.013 Z" id="path-1" class="cls-3" fill-rule="evenodd"/>
    <path d="M6.000,56.013 C6.000,56.013 46.000,56.013 46.000,56.013 C46.000,56.013 46.000,13.000 46.000,13.000 C46.000,13.000 6.000,13.000 6.000,13.000 C6.000,13.000 6.000,56.013 6.000,56.013 Z" id="path-2" class="cls-4" fill-rule="evenodd"/>
    <path d="M33.500,63.015 C33.500,63.015 9.500,63.015 9.500,63.015 C4.262,63.015 -0.000,58.752 -0.000,53.512 C-0.000,53.512 -0.000,9.499 -0.000,9.499 C-0.000,4.259 4.262,-0.004 9.500,-0.004 C9.500,-0.004 33.500,-0.004 33.500,-0.004 C38.738,-0.004 43.000,4.259 43.000,9.499 C43.000,9.499 43.000,53.512 43.000,53.512 C43.000,58.752 38.738,63.015 33.500,63.015 ZM9.500,2.997 C5.916,2.997 3.000,5.914 3.000,9.499 C3.000,9.499 3.000,53.512 3.000,53.512 C3.000,57.097 5.916,60.014 9.500,60.014 C9.500,60.014 33.500,60.014 33.500,60.014 C37.084,60.014 40.000,57.097 40.000,53.512 C40.000,53.512 40.000,9.499 40.000,9.499 C40.000,5.914 37.084,2.997 33.500,2.997 C33.500,2.997 9.500,2.997 9.500,2.997 Z" id="path-3" class="cls-5" fill-rule="evenodd"/>
    <path d="M41.500,54.012 C41.500,54.012 1.500,54.012 1.500,54.012 C0.671,54.012 -0.000,53.340 -0.000,52.512 C-0.000,52.512 -0.000,9.499 -0.000,9.499 C-0.000,8.670 0.671,7.998 1.500,7.998 C1.500,7.998 41.500,7.998 41.500,7.998 C42.329,7.998 43.000,8.670 43.000,9.499 C43.000,9.499 43.000,52.512 43.000,52.512 C43.000,53.340 42.329,54.012 41.500,54.012 ZM3.000,51.011 C3.000,51.011 40.000,51.011 40.000,51.011 C40.000,51.011 40.000,10.999 40.000,10.999 C40.000,10.999 3.000,10.999 3.000,10.999 C3.000,10.999 3.000,51.011 3.000,51.011 Z" id="path-4" class="cls-5" fill-rule="evenodd"/>
    <path d="M24.783,5.710 C24.783,6.815 23.888,7.711 22.783,7.711 C21.679,7.711 20.783,6.815 20.783,5.710 C20.783,4.605 21.679,3.709 22.783,3.709 C23.888,3.709 24.783,4.605 24.783,5.710 Z" id="path-5" class="cls-5" fill-rule="evenodd"/>
    <path d="M25.000,58.014 C25.000,58.014 20.000,58.014 20.000,58.014 C19.171,58.014 18.500,57.342 18.500,56.513 C18.500,55.685 19.171,55.013 20.000,55.013 C20.000,55.013 25.000,55.013 25.000,55.013 C25.829,55.013 26.500,55.685 26.500,56.513 C26.500,57.342 25.829,58.014 25.000,58.014 Z" id="path-6" class="cls-5" fill-rule="evenodd"/>
    <path d="M34.000,27.186 C34.000,27.186 28.343,32.006 28.343,32.006 C28.343,32.006 22.000,32.006 22.000,32.006 C22.000,32.006 22.000,37.007 22.000,37.007 C22.000,37.007 28.343,37.007 28.343,37.007 C28.343,37.007 34.000,42.859 34.000,42.859 C34.000,42.859 34.000,27.186 34.000,27.186 Z" id="path-7" class="cls-9" fill-rule="evenodd"/>
    <path d="M31.500,43.359 C31.102,43.359 30.711,43.200 30.423,42.903 C30.423,42.903 24.708,37.007 24.708,37.007 C24.708,37.007 19.500,37.007 19.500,37.007 C18.671,37.007 18.000,36.335 18.000,35.507 C18.000,35.507 18.000,30.505 18.000,30.505 C18.000,29.677 18.671,29.005 19.500,29.005 C19.500,29.005 24.869,29.005 24.869,29.005 C24.869,29.005 30.639,24.957 30.639,24.957 C31.098,24.636 31.697,24.597 32.192,24.854 C32.688,25.113 33.000,25.626 33.000,26.186 C33.000,26.186 33.000,41.858 33.000,41.858 C33.000,42.470 32.629,43.020 32.063,43.249 C31.881,43.323 31.690,43.359 31.500,43.359 ZM21.000,34.006 C21.000,34.006 25.343,34.006 25.343,34.006 C25.749,34.006 26.137,34.170 26.419,34.462 C26.419,34.462 30.000,38.156 30.000,38.156 C30.000,38.156 30.000,29.070 30.000,29.070 C30.000,29.070 26.204,31.734 26.204,31.734 C25.952,31.911 25.651,32.006 25.343,32.006 C25.343,32.006 21.000,32.006 21.000,32.006 C21.000,32.006 21.000,34.006 21.000,34.006 Z" id="path-8" class="cls-5" fill-rule="evenodd"/>
    <path d="M23.557,42.428 C23.557,42.428 20.310,40.089 20.310,40.089 C20.310,40.089 32.351,23.366 32.351,23.366 C32.351,23.366 35.598,25.705 35.598,25.705 C35.598,25.705 23.557,42.428 23.557,42.428 Z" id="path-9" class="cls-4" fill-rule="evenodd"/>
    <path d="M21.933,42.259 C21.730,42.259 21.526,42.197 21.349,42.070 C20.901,41.747 20.799,41.122 21.122,40.674 C21.122,40.674 33.163,23.951 33.163,23.951 C33.485,23.503 34.110,23.400 34.559,23.724 C35.007,24.047 35.109,24.672 34.786,25.120 C34.786,25.120 22.745,41.843 22.745,41.843 C22.550,42.114 22.243,42.259 21.933,42.259 Z" id="path-10" class="cls-5" fill-rule="evenodd"/>
  </g>
</svg>
