<svg xmlns="http://www.w3.org/2000/svg" xmlns:xlink="http://www.w3.org/1999/xlink" preserveAspectRatio="xMidYMid" width="67" height="64" viewBox="0 0 67 64">
  <defs>
    <style>

      .cls-3 {
        fill: #ff917b;
      }

      .cls-4 {
        fill: #000000;
      }
    </style>
  </defs>
  <g id="group-19svg">
    <path d="M36.491,3.489 C19.923,3.489 6.491,16.925 6.491,33.498 C6.491,50.072 19.923,63.507 36.491,63.507 C53.059,63.507 66.491,50.072 66.491,33.498 C66.491,16.925 53.059,3.489 36.491,3.489 ZM28.390,49.249 C26.279,51.361 22.856,51.361 20.745,49.249 C18.635,47.138 18.635,43.714 20.745,41.602 C22.856,39.491 26.279,39.491 28.390,41.602 C30.501,43.714 30.501,47.138 28.390,49.249 ZM28.390,25.395 C26.279,27.506 22.856,27.506 20.745,25.395 C18.635,23.283 18.635,19.859 20.745,17.748 C22.856,15.636 26.279,15.636 28.390,17.748 C30.501,19.859 30.501,23.283 28.390,25.395 ZM40.447,37.188 C38.337,39.300 34.914,39.300 32.804,37.188 C30.692,35.077 30.692,31.653 32.804,29.541 C34.914,27.430 38.337,27.430 40.447,29.541 C42.559,31.653 42.559,35.077 40.447,37.188 ZM52.237,49.249 C50.126,51.361 46.704,51.361 44.593,49.249 C42.482,47.138 42.482,43.714 44.593,41.602 C46.704,39.491 50.126,39.491 52.237,41.602 C54.349,43.714 54.349,47.138 52.237,49.249 ZM52.237,25.395 C50.126,27.506 46.704,27.506 44.593,25.395 C42.482,23.283 42.482,19.859 44.593,17.748 C46.704,15.636 50.126,15.636 52.237,17.748 C54.349,19.859 54.349,23.283 52.237,25.395 Z" id="path-1" class="cls-3" fill-rule="evenodd"/>
    <path d="M31.491,63.007 C14.122,63.007 -0.009,48.871 -0.009,31.497 C-0.009,14.122 14.122,-0.013 31.491,-0.013 C48.860,-0.013 62.991,14.122 62.991,31.497 C62.991,48.871 48.860,63.007 31.491,63.007 ZM31.491,2.988 C15.776,2.988 2.991,15.777 2.991,31.497 C2.991,47.216 15.776,60.006 31.491,60.006 C47.206,60.006 59.991,47.216 59.991,31.497 C59.991,15.777 47.206,2.988 31.491,2.988 ZM43.415,50.332 C41.570,50.332 39.837,49.614 38.532,48.309 C35.840,45.616 35.840,41.234 38.532,38.540 C39.837,37.236 41.571,36.517 43.415,36.517 C45.259,36.517 46.993,37.236 48.298,38.540 C49.603,39.845 50.320,41.580 50.320,43.424 C50.320,45.270 49.603,47.005 48.298,48.309 C46.993,49.614 45.260,50.332 43.415,50.332 ZM43.415,39.518 C42.372,39.518 41.391,39.924 40.653,40.662 C39.131,42.186 39.131,44.664 40.653,46.187 C42.130,47.662 44.700,47.662 46.177,46.187 C46.915,45.449 47.320,44.469 47.320,43.424 C47.320,42.381 46.914,41.400 46.177,40.662 C45.439,39.924 44.458,39.518 43.415,39.518 ZM19.567,50.332 C17.724,50.332 15.989,49.614 14.685,48.309 C11.992,45.616 11.992,41.234 14.685,38.540 C15.989,37.236 17.724,36.517 19.567,36.517 C21.412,36.517 23.146,37.236 24.450,38.540 C25.755,39.845 26.473,41.580 26.473,43.424 C26.473,45.270 25.755,47.005 24.450,48.309 C23.146,49.614 21.412,50.332 19.567,50.332 ZM19.567,39.518 C18.524,39.518 17.543,39.924 16.806,40.662 C15.283,42.186 15.283,44.664 16.806,46.187 C18.283,47.663 20.855,47.665 22.329,46.187 C23.067,45.449 23.473,44.469 23.473,43.424 C23.473,42.381 23.066,41.400 22.329,40.662 C21.592,39.924 20.611,39.518 19.567,39.518 ZM31.625,38.270 C29.781,38.270 28.047,37.552 26.742,36.247 C24.050,33.555 24.050,29.173 26.742,26.479 C28.047,25.175 29.781,24.456 31.625,24.456 C33.470,24.456 35.204,25.175 36.508,26.479 C37.812,27.784 38.530,29.519 38.530,31.363 C38.530,33.208 37.812,34.943 36.508,36.247 C35.204,37.552 33.470,38.270 31.625,38.270 ZM31.625,27.457 C30.582,27.457 29.601,27.863 28.863,28.600 C27.341,30.124 27.341,32.603 28.863,34.126 C30.341,35.603 32.913,35.601 34.387,34.126 C35.124,33.388 35.530,32.407 35.530,31.363 C35.530,30.320 35.124,29.339 34.387,28.600 C33.649,27.863 32.669,27.457 31.625,27.457 ZM43.415,26.478 C41.571,26.478 39.837,25.759 38.532,24.455 C35.840,21.760 35.840,17.378 38.532,14.686 C39.837,13.381 41.570,12.663 43.415,12.663 C45.260,12.663 46.993,13.381 48.298,14.686 C49.603,15.990 50.320,17.725 50.320,19.570 C50.320,21.415 49.603,23.150 48.298,24.455 C46.993,25.759 45.259,26.478 43.415,26.478 ZM43.415,15.664 C42.372,15.664 41.392,16.070 40.653,16.808 C39.131,18.331 39.131,20.809 40.653,22.333 C42.128,23.808 44.702,23.808 46.177,22.333 C46.914,21.594 47.320,20.614 47.320,19.570 C47.320,18.526 46.914,17.545 46.177,16.808 C45.438,16.070 44.458,15.664 43.415,15.664 ZM19.567,26.478 C17.724,26.478 15.989,25.759 14.685,24.455 C11.992,21.760 11.992,17.378 14.685,14.686 C15.989,13.381 17.724,12.663 19.567,12.663 C21.412,12.663 23.146,13.381 24.450,14.686 C25.755,15.990 26.473,17.725 26.473,19.570 C26.473,21.415 25.755,23.150 24.450,24.455 C23.146,25.759 21.412,26.478 19.567,26.478 ZM19.567,15.664 C18.524,15.664 17.544,16.070 16.806,16.808 C15.283,18.331 15.283,20.809 16.806,22.333 C18.281,23.810 20.855,23.808 22.329,22.333 C23.066,21.594 23.473,20.614 23.473,19.570 C23.473,18.526 23.066,17.545 22.329,16.808 C21.592,16.069 20.611,15.664 19.567,15.664 Z" id="path-2" class="cls-4" fill-rule="evenodd"/>
  </g>
</svg>
