<svg xmlns="http://www.w3.org/2000/svg" xmlns:xlink="http://www.w3.org/1999/xlink" preserveAspectRatio="xMidYMid" width="46" height="66" viewBox="0 0 46 66">
  <defs>
    <style>

      .cls-3 {
        fill: #ff917b;
      }

      .cls-4 {
        fill: #e56a77;
      }

      .cls-5 {
        fill: #000000;
      }
    </style>
  </defs>
  <g id="group-3svg">
    <path d="M46.000,57.013 C46.000,61.433 42.418,65.016 38.000,65.016 C38.000,65.016 14.000,65.016 14.000,65.016 C9.582,65.016 6.000,61.433 6.000,57.013 C6.000,57.013 6.000,13.000 6.000,13.000 C6.000,8.580 9.582,4.997 14.000,4.997 C14.000,4.997 38.000,4.997 38.000,4.997 C42.418,4.997 46.000,8.580 46.000,13.000 C46.000,13.000 46.000,57.013 46.000,57.013 Z" id="path-1" class="cls-3" fill-rule="evenodd"/>
    <path d="M6.000,56.013 C6.000,56.013 46.000,56.013 46.000,56.013 C46.000,56.013 46.000,13.000 46.000,13.000 C46.000,13.000 6.000,13.000 6.000,13.000 C6.000,13.000 6.000,56.013 6.000,56.013 Z" id="path-2" class="cls-4" fill-rule="evenodd"/>
    <path d="M33.500,63.015 C33.500,63.015 9.500,63.015 9.500,63.015 C4.262,63.015 -0.000,58.752 -0.000,53.512 C-0.000,53.512 -0.000,9.499 -0.000,9.499 C-0.000,4.259 4.262,-0.004 9.500,-0.004 C9.500,-0.004 33.500,-0.004 33.500,-0.004 C38.738,-0.004 43.000,4.259 43.000,9.499 C43.000,9.499 43.000,53.512 43.000,53.512 C43.000,58.752 38.738,63.015 33.500,63.015 ZM9.500,2.997 C5.916,2.997 3.000,5.914 3.000,9.499 C3.000,9.499 3.000,53.512 3.000,53.512 C3.000,57.097 5.916,60.014 9.500,60.014 C9.500,60.014 33.500,60.014 33.500,60.014 C37.084,60.014 40.000,57.097 40.000,53.512 C40.000,53.512 40.000,9.499 40.000,9.499 C40.000,5.914 37.084,2.997 33.500,2.997 C33.500,2.997 9.500,2.997 9.500,2.997 Z" id="path-3" class="cls-5" fill-rule="evenodd"/>
    <path d="M41.500,54.012 C41.500,54.012 1.500,54.012 1.500,54.012 C0.671,54.012 -0.000,53.340 -0.000,52.512 C-0.000,52.512 -0.000,9.499 -0.000,9.499 C-0.000,8.670 0.671,7.998 1.500,7.998 C1.500,7.998 41.500,7.998 41.500,7.998 C42.329,7.998 43.000,8.670 43.000,9.499 C43.000,9.499 43.000,52.512 43.000,52.512 C43.000,53.340 42.329,54.012 41.500,54.012 ZM3.000,51.011 C3.000,51.011 40.000,51.011 40.000,51.011 C40.000,51.011 40.000,10.999 40.000,10.999 C40.000,10.999 3.000,10.999 3.000,10.999 C3.000,10.999 3.000,51.011 3.000,51.011 Z" id="path-4" class="cls-5" fill-rule="evenodd"/>
    <path d="M24.369,5.710 C24.369,6.815 23.473,7.711 22.369,7.711 C21.264,7.711 20.369,6.815 20.369,5.710 C20.369,4.605 21.264,3.709 22.369,3.709 C23.473,3.709 24.369,4.605 24.369,5.710 Z" id="path-5" class="cls-5" fill-rule="evenodd"/>
    <path d="M25.000,58.014 C25.000,58.014 20.000,58.014 20.000,58.014 C19.171,58.014 18.500,57.342 18.500,56.513 C18.500,55.685 19.171,55.013 20.000,55.013 C20.000,55.013 25.000,55.013 25.000,55.013 C25.829,55.013 26.500,55.685 26.500,56.513 C26.500,57.342 25.829,58.014 25.000,58.014 Z" id="path-6" class="cls-5" fill-rule="evenodd"/>
    <path d="M24.925,39.008 C24.924,39.008 24.923,39.008 24.923,39.008 C24.094,39.008 23.424,38.119 23.425,37.291 C23.435,29.521 18.570,28.950 18.363,28.933 C17.537,28.870 16.919,28.095 16.982,27.269 C17.046,26.442 17.772,25.784 18.593,25.862 C18.672,25.868 26.438,26.789 26.425,37.308 C26.424,38.136 25.752,39.008 24.925,39.008 Z" id="path-7" class="cls-5" fill-rule="evenodd"/>
    <path d="M31.787,38.007 C31.787,38.007 31.786,38.007 31.785,38.007 C30.957,38.007 30.286,37.278 30.287,36.449 C30.305,23.146 21.413,22.279 21.323,22.271 C20.497,22.207 19.879,21.473 19.943,20.646 C20.007,19.819 20.733,19.179 21.554,19.259 C21.671,19.267 33.308,20.402 33.287,36.457 C33.286,37.285 32.615,38.007 31.787,38.007 Z" id="path-8" class="cls-5" fill-rule="evenodd"/>
  </g>
</svg>
