<svg xmlns="http://www.w3.org/2000/svg" xmlns:xlink="http://www.w3.org/1999/xlink" preserveAspectRatio="xMidYMid" width="67" height="54" viewBox="0 0 67 54">
  <defs>
    <style>

      .cls-3 {
        fill: #8b71b5;
      }

      .cls-4 {
        fill: #000000;
      }

      .cls-5 {
        fill: #53ecf4;
      }

      .cls-6 {
        fill: #ffffff;
      }
    </style>
  </defs>
  <g id="group-17svg">
    <path d="M62.155,16.011 C62.155,16.011 46.326,16.011 46.326,16.011 C46.326,16.011 44.933,9.375 44.933,9.375 C44.434,7.377 42.639,6.008 40.580,6.008 C40.580,6.008 33.003,6.008 33.003,6.008 C30.944,6.008 29.149,7.377 28.650,9.375 C28.650,9.375 27.256,16.011 27.256,16.011 C27.256,16.011 10.883,16.011 10.883,16.011 C8.482,16.011 7.000,17.634 7.000,20.035 C7.000,20.035 7.000,48.407 7.000,48.407 C7.000,50.818 8.473,53.023 10.883,53.023 C10.883,53.023 62.155,53.023 62.155,53.023 C64.565,53.023 67.000,50.818 67.000,48.407 C67.000,48.407 67.000,20.035 67.000,20.035 C67.000,17.634 64.555,16.011 62.155,16.011 Z" id="path-1" class="cls-3" fill-rule="evenodd"/>
    <path d="M57.155,50.022 C57.155,50.022 5.883,50.022 5.883,50.022 C2.584,50.022 -0.000,47.555 -0.000,44.407 C-0.000,44.407 -0.000,16.034 -0.000,16.034 C-0.000,12.768 2.694,10.009 5.883,10.009 C5.883,10.009 21.038,10.009 21.038,10.009 C21.038,10.009 22.183,4.565 22.183,4.565 C22.857,1.858 25.246,0.006 28.003,0.006 C28.003,0.006 35.580,0.006 35.580,0.006 C38.337,0.006 40.726,1.858 41.388,4.511 C41.388,4.511 42.544,10.009 42.544,10.009 C42.544,10.009 57.155,10.009 57.155,10.009 C60.323,10.009 63.000,12.768 63.000,16.034 C63.000,16.034 63.000,44.407 63.000,44.407 C63.000,47.608 60.487,50.022 57.155,50.022 ZM5.883,13.010 C4.347,13.010 3.000,14.423 3.000,16.034 C3.000,16.034 3.000,44.407 3.000,44.407 C3.000,45.922 4.212,47.021 5.883,47.021 C5.883,47.021 57.155,47.021 57.155,47.021 C58.804,47.021 60.000,45.922 60.000,44.407 C60.000,44.407 60.000,16.034 60.000,16.034 C60.000,14.423 58.671,13.010 57.155,13.010 C57.155,13.010 41.326,13.010 41.326,13.010 C40.616,13.010 40.004,12.513 39.858,11.819 C39.858,11.819 38.465,5.183 38.465,5.183 C38.149,3.925 36.958,3.007 35.580,3.007 C35.580,3.007 28.003,3.007 28.003,3.007 C26.625,3.007 25.434,3.925 25.105,5.237 C25.105,5.237 23.724,11.819 23.724,11.819 C23.578,12.513 22.966,13.010 22.256,13.010 C22.256,13.010 5.883,13.010 5.883,13.010 Z" id="path-2" class="cls-4" fill-rule="evenodd"/>
    <path d="M50.039,33.500 C50.039,41.152 43.838,47.355 36.188,47.355 C28.538,47.355 22.337,41.152 22.337,33.500 C22.337,25.848 28.538,19.644 36.188,19.644 C43.838,19.644 50.039,25.848 50.039,33.500 Z" id="path-3" class="cls-5" fill-rule="evenodd"/>
    <path d="M44.682,33.500 C44.682,38.192 40.879,41.996 36.188,41.996 C31.497,41.996 27.694,38.192 27.694,33.500 C27.694,28.807 31.497,25.003 36.188,25.003 C40.879,25.003 44.682,28.807 44.682,33.500 Z" id="path-4" class="cls-6" fill-rule="evenodd"/>
    <path d="M31.188,39.495 C25.678,39.495 21.194,35.010 21.194,29.499 C21.194,23.986 25.678,19.502 31.188,19.502 C36.698,19.502 41.182,23.986 41.182,29.499 C41.182,35.010 36.698,39.495 31.188,39.495 ZM31.188,22.503 C27.332,22.503 24.194,25.641 24.194,29.499 C24.194,33.356 27.332,36.494 31.188,36.494 C35.045,36.494 38.182,33.356 38.182,29.499 C38.182,25.641 35.045,22.503 31.188,22.503 Z" id="path-5" class="cls-4" fill-rule="evenodd"/>
    <path d="M31.188,44.854 C22.724,44.854 15.837,37.965 15.837,29.499 C15.837,21.031 22.724,14.143 31.188,14.143 C39.652,14.143 46.539,21.031 46.539,29.499 C46.539,37.965 39.652,44.854 31.188,44.854 ZM31.188,17.143 C24.378,17.143 18.837,22.686 18.837,29.499 C18.837,36.311 24.378,41.853 31.188,41.853 C37.999,41.853 43.539,36.311 43.539,29.499 C43.539,22.686 37.999,17.143 31.188,17.143 Z" id="path-6" class="cls-4" fill-rule="evenodd"/>
    <path d="M18.000,7.008 C18.000,7.008 10.000,7.008 10.000,7.008 C9.172,7.008 8.500,6.336 8.500,5.508 C8.500,4.680 9.172,4.008 10.000,4.008 C10.000,4.008 18.000,4.008 18.000,4.008 C18.828,4.008 19.500,4.680 19.500,5.508 C19.500,6.336 18.828,7.008 18.000,7.008 Z" id="path-7" class="cls-4" fill-rule="evenodd"/>
    <path d="M49.859,5.008 C49.859,5.008 50.481,5.008 50.481,5.008 C52.860,5.008 54.000,6.889 54.000,9.269 C54.000,9.269 54.000,11.010 54.000,11.010 C54.000,11.010 46.000,11.010 46.000,11.010 C46.000,11.010 46.000,9.269 46.000,9.269 C46.000,6.889 47.480,5.008 49.859,5.008 Z" id="path-8" class="cls-4" fill-rule="evenodd"/>
  </g>
</svg>
