<svg xmlns="http://www.w3.org/2000/svg" xmlns:xlink="http://www.w3.org/1999/xlink" preserveAspectRatio="xMidYMid" width="66" height="56" viewBox="0 0 66 56">
  <defs>
    <style>

      .cls-3 {
        fill: #edc951;
      }

      .cls-4 {
        fill: #e56a77;
      }

      .cls-6 {
        fill: #000000;
      }
    </style>
  </defs>
  <g id="group-16svg">
    <path d="M66.000,47.020 C66.000,51.440 62.418,55.023 58.000,55.023 C58.000,55.023 14.000,55.023 14.000,55.023 C9.582,55.023 6.000,51.440 6.000,47.020 C6.000,47.020 6.000,20.012 6.000,20.012 C6.000,15.592 9.582,12.010 14.000,12.010 C14.000,12.010 58.000,12.010 58.000,12.010 C62.418,12.010 66.000,15.592 66.000,20.012 C66.000,20.012 66.000,47.020 66.000,47.020 Z" id="path-1" class="cls-3" fill-rule="evenodd"/>
    <path d="M26.000,5.008 C26.000,5.008 45.000,5.008 45.000,5.008 C45.000,5.008 45.000,12.010 45.000,12.010 C45.000,12.010 26.000,12.010 26.000,12.010 C26.000,12.010 26.000,5.008 26.000,5.008 Z" id="path-2" class="cls-4" fill-rule="evenodd"/>
    <path d="M47.816,33.822 C47.816,40.099 42.729,45.187 36.455,45.187 C30.180,45.187 25.093,40.099 25.093,33.822 C25.093,27.546 30.180,22.457 36.455,22.457 C42.729,22.457 47.816,27.546 47.816,33.822 Z" id="path-3" class="cls-4" fill-rule="evenodd"/>
    <path d="M53.500,53.022 C53.500,53.022 9.500,53.022 9.500,53.022 C4.262,53.022 -0.000,48.759 -0.000,43.519 C-0.000,43.519 -0.000,16.511 -0.000,16.511 C-0.000,11.271 4.262,7.008 9.500,7.008 C9.500,7.008 53.500,7.008 53.500,7.008 C58.738,7.008 63.000,11.271 63.000,16.511 C63.000,16.511 63.000,43.519 63.000,43.519 C63.000,48.759 58.738,53.022 53.500,53.022 ZM9.500,10.009 C5.916,10.009 3.000,12.926 3.000,16.511 C3.000,16.511 3.000,43.519 3.000,43.519 C3.000,47.104 5.916,50.021 9.500,50.021 C9.500,50.021 53.500,50.021 53.500,50.021 C57.084,50.021 60.000,47.104 60.000,43.519 C60.000,43.519 60.000,16.511 60.000,16.511 C60.000,12.926 57.084,10.009 53.500,10.009 C53.500,10.009 9.500,10.009 9.500,10.009 Z" id="path-4" class="cls-6" fill-rule="evenodd"/>
    <path d="M31.455,43.686 C24.363,43.686 18.593,37.915 18.593,30.821 C18.593,23.727 24.363,17.956 31.455,17.956 C38.546,17.956 44.316,23.727 44.316,30.821 C44.316,37.915 38.546,43.686 31.455,43.686 ZM31.455,20.957 C26.017,20.957 21.593,25.382 21.593,30.821 C21.593,36.260 26.017,40.686 31.455,40.686 C36.892,40.686 41.316,36.260 41.316,30.821 C41.316,25.382 36.892,20.957 31.455,20.957 Z" id="path-5" class="cls-6" fill-rule="evenodd"/>
    <path d="M13.571,16.864 C13.571,18.388 12.335,19.624 10.811,19.624 C9.288,19.624 8.052,18.388 8.052,16.864 C8.052,15.339 9.288,14.103 10.811,14.103 C12.335,14.103 13.571,15.339 13.571,16.864 Z" id="path-6" class="cls-6" fill-rule="evenodd"/>
    <path d="M54.500,52.522 C53.671,52.522 53.000,51.850 53.000,51.022 C53.000,51.022 53.000,4.007 53.000,4.007 C53.000,4.007 48.000,4.007 48.000,4.007 C48.000,4.007 48.000,8.008 48.000,8.008 C48.000,8.837 47.329,9.509 46.500,9.509 C45.671,9.509 45.000,8.837 45.000,8.008 C45.000,8.008 45.000,2.507 45.000,2.507 C45.000,1.678 45.671,1.006 46.500,1.006 C46.500,1.006 54.500,1.006 54.500,1.006 C55.329,1.006 56.000,1.678 56.000,2.507 C56.000,2.507 56.000,51.022 56.000,51.022 C56.000,51.850 55.329,52.522 54.500,52.522 Z" id="path-7" class="cls-6" fill-rule="evenodd"/>
    <path d="M40.500,10.009 C40.500,10.009 21.500,10.009 21.500,10.009 C20.671,10.009 20.000,9.337 20.000,8.509 C20.000,8.509 20.000,1.507 20.000,1.507 C20.000,0.678 20.671,0.006 21.500,0.006 C21.500,0.006 40.500,0.006 40.500,0.006 C41.329,0.006 42.000,0.678 42.000,1.507 C42.000,1.507 42.000,8.509 42.000,8.509 C42.000,9.337 41.329,10.009 40.500,10.009 ZM23.000,7.008 C23.000,7.008 39.000,7.008 39.000,7.008 C39.000,7.008 39.000,3.007 39.000,3.007 C39.000,3.007 23.000,3.007 23.000,3.007 C23.000,3.007 23.000,7.008 23.000,7.008 Z" id="path-8" class="cls-6" fill-rule="evenodd"/>
  </g>
</svg>
