<svg xmlns="http://www.w3.org/2000/svg" xmlns:xlink="http://www.w3.org/1999/xlink" preserveAspectRatio="xMidYMid" width="69" height="64" viewBox="0 0 69 64">
  <defs>
    <style>

      .cls-3 {
        fill: #e56a77;
      }

      .cls-4 {
        fill: #81bda4;
      }

      .cls-5 {
        fill: #000000;
      }
    </style>
  </defs>
  <g id="group-14svg">
    <path d="M68.000,40.017 C68.000,44.437 64.418,48.020 60.000,48.020 C60.000,48.020 16.000,48.020 16.000,48.020 C11.582,48.020 8.000,44.437 8.000,40.017 C8.000,40.017 8.000,13.009 8.000,13.009 C8.000,8.589 11.582,5.007 16.000,5.007 C16.000,5.007 60.000,5.007 60.000,5.007 C64.418,5.007 68.000,8.589 68.000,13.009 C68.000,13.009 68.000,40.017 68.000,40.017 Z" id="path-1" class="cls-3" fill-rule="evenodd"/>
    <path d="M8.994,37.016 C8.994,43.018 13.114,47.020 18.195,47.020 C18.195,47.020 59.601,47.020 59.601,47.020 C64.683,47.020 68.802,43.018 68.802,37.016 C68.802,37.016 8.994,37.016 8.994,37.016 Z" id="path-2" class="cls-4" fill-rule="evenodd"/>
    <path d="M53.500,46.019 C53.500,46.019 9.500,46.019 9.500,46.019 C4.262,46.019 -0.000,41.756 -0.000,36.516 C-0.000,36.516 -0.000,9.508 -0.000,9.508 C-0.000,4.268 4.262,0.005 9.500,0.005 C9.500,0.005 53.500,0.005 53.500,0.005 C58.738,0.005 63.000,4.268 63.000,9.508 C63.000,9.508 63.000,36.516 63.000,36.516 C63.000,41.756 58.738,46.019 53.500,46.019 ZM9.500,3.006 C5.916,3.006 3.000,5.923 3.000,9.508 C3.000,9.508 3.000,36.516 3.000,36.516 C3.000,40.101 5.916,43.018 9.500,43.018 C9.500,43.018 53.500,43.018 53.500,43.018 C57.084,43.018 60.000,40.101 60.000,36.516 C60.000,36.516 60.000,9.508 60.000,9.508 C60.000,5.923 57.084,3.006 53.500,3.006 C53.500,3.006 9.500,3.006 9.500,3.006 Z" id="path-3" class="cls-5" fill-rule="evenodd"/>
    <path d="M52.601,46.019 C52.601,46.019 11.195,46.019 11.195,46.019 C5.095,46.019 0.494,41.073 0.494,34.516 C0.494,33.687 1.165,33.015 1.994,33.015 C1.994,33.015 61.802,33.015 61.802,33.015 C62.631,33.015 63.302,33.687 63.302,34.516 C63.302,41.073 58.702,46.019 52.601,46.019 ZM3.598,36.016 C4.185,40.152 7.200,43.018 11.195,43.018 C11.195,43.018 52.601,43.018 52.601,43.018 C56.596,43.018 59.611,40.152 60.198,36.016 C60.198,36.016 3.598,36.016 3.598,36.016 Z" id="path-4" class="cls-5" fill-rule="evenodd"/>
    <path d="M34.713,30.280 C34.329,30.280 33.945,30.133 33.652,29.840 C33.066,29.254 33.066,28.305 33.652,27.719 C33.652,27.719 41.986,19.383 41.986,19.383 C42.572,18.797 43.521,18.797 44.107,19.383 C44.693,19.969 44.693,20.919 44.107,21.505 C44.107,21.505 35.773,29.840 35.773,29.840 C35.480,30.133 35.097,30.280 34.713,30.280 Z" id="path-5" class="cls-5" fill-rule="evenodd"/>
    <path d="M21.800,31.692 C21.416,31.692 21.033,31.545 20.740,31.252 C20.154,30.666 20.154,29.716 20.740,29.130 C20.740,29.130 38.796,11.069 38.796,11.069 C39.382,10.483 40.331,10.483 40.917,11.069 C41.503,11.655 41.503,12.605 40.917,13.191 C40.917,13.191 22.861,31.252 22.861,31.252 C22.568,31.545 22.184,31.692 21.800,31.692 Z" id="path-6" class="cls-5" fill-rule="evenodd"/>
    <path d="M31.500,54.522 C30.671,54.522 30.000,53.850 30.000,53.021 C30.000,53.021 30.000,45.019 30.000,45.019 C30.000,44.191 30.671,43.518 31.500,43.518 C32.329,43.518 33.000,44.191 33.000,45.019 C33.000,45.019 33.000,53.021 33.000,53.021 C33.000,53.850 32.329,54.522 31.500,54.522 Z" id="path-7" class="cls-5" fill-rule="evenodd"/>
    <path d="M41.387,63.102 C40.559,63.102 39.887,62.430 39.887,61.601 C39.887,58.040 36.217,55.144 31.707,55.144 C27.196,55.144 23.526,58.040 23.526,61.601 C23.526,62.430 22.854,63.102 22.026,63.102 C21.197,63.102 20.526,62.430 20.526,61.601 C20.526,56.386 25.541,52.143 31.707,52.143 C37.872,52.143 42.887,56.386 42.887,61.601 C42.887,62.430 42.216,63.102 41.387,63.102 Z" id="path-8" class="cls-5" fill-rule="evenodd"/>
  </g>
</svg>
