<svg xmlns="http://www.w3.org/2000/svg" xmlns:xlink="http://www.w3.org/1999/xlink" preserveAspectRatio="xMidYMid" width="66" height="58" viewBox="0 0 66 58">
  <defs>
    <style>

      .cls-3 {
        fill: #ff917b;
      }

      .cls-4 {
        fill: #8b71b5;
      }

      .cls-5 {
        fill: #53ecf4;
      }

      .cls-7 {
        fill: #000000;
      }
    </style>
  </defs>
  <g id="group-30svg">
    <path d="M66.000,49.029 C66.000,53.448 62.418,57.031 58.000,57.031 C58.000,57.031 14.000,57.031 14.000,57.031 C9.582,57.031 6.000,53.448 6.000,49.029 C6.000,49.029 6.000,13.017 6.000,13.017 C6.000,8.598 9.582,5.015 14.000,5.015 C14.000,5.015 58.000,5.015 58.000,5.015 C62.418,5.015 66.000,8.598 66.000,13.017 C66.000,13.017 66.000,49.029 66.000,49.029 Z" id="path-1" class="cls-3" fill-rule="evenodd"/>
    <path d="M24.000,49.029 C24.000,53.448 20.418,57.031 16.000,57.031 C16.000,57.031 14.000,57.031 14.000,57.031 C9.582,57.031 6.000,53.448 6.000,49.029 C6.000,49.029 6.000,13.017 6.000,13.017 C6.000,8.598 9.582,5.015 14.000,5.015 C14.000,5.015 16.000,5.015 16.000,5.015 C20.418,5.015 24.000,8.598 24.000,13.017 C24.000,13.017 24.000,49.029 24.000,49.029 Z" id="path-2" class="cls-4" fill-rule="evenodd"/>
    <path d="M36.000,23.021 C36.000,23.021 57.000,23.021 57.000,23.021 C57.000,23.021 57.000,11.017 57.000,11.017 C57.000,11.017 36.000,11.017 36.000,11.017 C36.000,11.017 36.000,23.021 36.000,23.021 Z" id="path-3" class="cls-5" fill-rule="evenodd"/>
    <path d="M36.000,50.029 C36.000,50.029 57.000,50.029 57.000,50.029 C57.000,50.029 57.000,29.022 57.000,29.022 C57.000,29.022 36.000,29.022 36.000,29.022 C36.000,29.022 36.000,50.029 36.000,50.029 Z" id="path-4" class="cls-4" fill-rule="evenodd"/>
    <path d="M53.500,55.030 C53.500,55.030 9.500,55.030 9.500,55.030 C4.262,55.030 -0.000,50.767 -0.000,45.527 C-0.000,45.527 -0.000,9.516 -0.000,9.516 C-0.000,4.277 4.262,0.013 9.500,0.013 C9.500,0.013 53.500,0.013 53.500,0.013 C58.738,0.013 63.000,4.277 63.000,9.516 C63.000,9.516 63.000,45.527 63.000,45.527 C63.000,50.767 58.738,55.030 53.500,55.030 ZM9.500,3.014 C5.916,3.014 3.000,5.931 3.000,9.516 C3.000,9.516 3.000,45.527 3.000,45.527 C3.000,49.113 5.916,52.029 9.500,52.029 C9.500,52.029 53.500,52.029 53.500,52.029 C57.084,52.029 60.000,49.113 60.000,45.527 C60.000,45.527 60.000,9.516 60.000,9.516 C60.000,5.931 57.084,3.014 53.500,3.014 C53.500,3.014 9.500,3.014 9.500,3.014 Z" id="path-5" class="cls-7" fill-rule="evenodd"/>
    <path d="M11.500,55.030 C11.500,55.030 9.500,55.030 9.500,55.030 C4.262,55.030 -0.000,50.767 -0.000,45.527 C-0.000,45.527 -0.000,9.516 -0.000,9.516 C-0.000,4.277 4.262,0.013 9.500,0.013 C9.500,0.013 11.500,0.013 11.500,0.013 C16.738,0.013 21.000,4.277 21.000,9.516 C21.000,9.516 21.000,45.527 21.000,45.527 C21.000,50.767 16.738,55.030 11.500,55.030 ZM9.500,3.014 C5.916,3.014 3.000,5.931 3.000,9.516 C3.000,9.516 3.000,45.527 3.000,45.527 C3.000,49.113 5.916,52.029 9.500,52.029 C9.500,52.029 11.500,52.029 11.500,52.029 C15.084,52.029 18.000,49.113 18.000,45.527 C18.000,45.527 18.000,9.516 18.000,9.516 C18.000,5.931 15.084,3.014 11.500,3.014 C11.500,3.014 9.500,3.014 9.500,3.014 Z" id="path-6" class="cls-7" fill-rule="evenodd"/>
    <path d="M52.500,21.020 C52.500,21.020 31.500,21.020 31.500,21.020 C30.672,21.020 30.000,20.348 30.000,19.519 C30.000,19.519 30.000,7.516 30.000,7.516 C30.000,6.687 30.672,6.015 31.500,6.015 C31.500,6.015 52.500,6.015 52.500,6.015 C53.328,6.015 54.000,6.687 54.000,7.516 C54.000,7.516 54.000,19.519 54.000,19.519 C54.000,20.348 53.328,21.020 52.500,21.020 ZM33.000,18.019 C33.000,18.019 51.000,18.019 51.000,18.019 C51.000,18.019 51.000,9.016 51.000,9.016 C51.000,9.016 33.000,9.016 33.000,9.016 C33.000,9.016 33.000,18.019 33.000,18.019 Z" id="path-7" class="cls-7" fill-rule="evenodd"/>
    <path d="M52.500,48.028 C52.500,48.028 31.500,48.028 31.500,48.028 C30.672,48.028 30.000,47.356 30.000,46.528 C30.000,46.528 30.000,25.521 30.000,25.521 C30.000,24.693 30.672,24.021 31.500,24.021 C31.500,24.021 52.500,24.021 52.500,24.021 C53.328,24.021 54.000,24.693 54.000,25.521 C54.000,25.521 54.000,46.528 54.000,46.528 C54.000,47.356 53.328,48.028 52.500,48.028 ZM33.000,45.027 C33.000,45.027 51.000,45.027 51.000,45.027 C51.000,45.027 51.000,27.022 51.000,27.022 C51.000,27.022 33.000,27.022 33.000,27.022 C33.000,27.022 33.000,45.027 33.000,45.027 Z" id="path-8" class="cls-7" fill-rule="evenodd"/>
    <path d="M45.500,46.528 C44.672,46.528 44.000,45.856 44.000,45.027 C44.000,45.027 44.000,26.021 44.000,26.021 C44.000,25.193 44.672,24.521 45.500,24.521 C46.328,24.521 47.000,25.193 47.000,26.021 C47.000,26.021 47.000,45.027 47.000,45.027 C47.000,45.856 46.328,46.528 45.500,46.528 Z" id="path-9" class="cls-7" fill-rule="evenodd"/>
    <path d="M38.500,46.528 C37.672,46.528 37.000,45.856 37.000,45.027 C37.000,45.027 37.000,26.021 37.000,26.021 C37.000,25.193 37.672,24.521 38.500,24.521 C39.328,24.521 40.000,25.193 40.000,26.021 C40.000,26.021 40.000,45.027 40.000,45.027 C40.000,45.856 39.328,46.528 38.500,46.528 Z" id="path-10" class="cls-7" fill-rule="evenodd"/>
    <path d="M52.000,34.024 C52.000,34.024 32.000,34.024 32.000,34.024 C31.172,34.024 30.500,33.352 30.500,32.523 C30.500,31.695 31.172,31.023 32.000,31.023 C32.000,31.023 52.000,31.023 52.000,31.023 C52.828,31.023 53.500,31.695 53.500,32.523 C53.500,33.352 52.828,34.024 52.000,34.024 Z" id="path-11" class="cls-7" fill-rule="evenodd"/>
    <path d="M52.000,41.026 C52.000,41.026 32.000,41.026 32.000,41.026 C31.172,41.026 30.500,40.354 30.500,39.526 C30.500,38.697 31.172,38.025 32.000,38.025 C32.000,38.025 52.000,38.025 52.000,38.025 C52.828,38.025 53.500,38.697 53.500,39.526 C53.500,40.354 52.828,41.026 52.000,41.026 Z" id="path-12" class="cls-7" fill-rule="evenodd"/>
  </g>
</svg>
