<svg xmlns="http://www.w3.org/2000/svg" xmlns:xlink="http://www.w3.org/1999/xlink" preserveAspectRatio="xMidYMid" width="66" height="53" viewBox="0 0 66 53">
  <defs>
    <style>

      .cls-3 {
        fill: #99746a;
      }

      .cls-5 {
        fill: #000000;
      }

      .cls-7 {
        fill: #e56a77;
      }
    </style>
  </defs>
  <g id="group-18svg">
    <path d="M48.000,43.801 C48.000,48.221 44.418,51.804 40.000,51.804 C40.000,51.804 14.000,51.804 14.000,51.804 C9.582,51.804 6.000,48.221 6.000,43.801 C6.000,43.801 6.000,27.796 6.000,27.796 C6.000,23.376 9.582,19.794 14.000,19.794 C14.000,19.794 40.000,19.794 40.000,19.794 C44.418,19.794 48.000,23.376 48.000,27.796 C48.000,27.796 48.000,43.801 48.000,43.801 Z" id="path-1" class="cls-3" fill-rule="evenodd"/>
    <path d="M49.461,29.828 C49.461,29.828 62.915,21.056 62.915,21.056 C64.395,20.115 66.000,21.177 66.000,22.931 C66.000,22.931 66.000,50.464 66.000,50.464 C66.000,52.205 64.421,53.270 62.940,52.356 C62.940,52.356 48.885,43.574 48.885,43.574 C48.885,43.574 49.461,29.828 49.461,29.828 Z" id="path-2" class="cls-3" fill-rule="evenodd"/>
    <path d="M35.500,49.803 C35.500,49.803 9.500,49.803 9.500,49.803 C4.262,49.803 -0.000,45.540 -0.000,40.300 C-0.000,40.300 -0.000,24.295 -0.000,24.295 C-0.000,19.055 4.262,14.792 9.500,14.792 C9.500,14.792 35.500,14.792 35.500,14.792 C40.738,14.792 45.000,19.055 45.000,24.295 C45.000,24.295 45.000,40.300 45.000,40.300 C45.000,45.540 40.738,49.803 35.500,49.803 ZM9.500,17.793 C5.916,17.793 3.000,20.710 3.000,24.295 C3.000,24.295 3.000,40.300 3.000,40.300 C3.000,43.885 5.916,46.802 9.500,46.802 C9.500,46.802 35.500,46.802 35.500,46.802 C39.084,46.802 42.000,43.885 42.000,40.300 C42.000,40.300 42.000,24.295 42.000,24.295 C42.000,20.710 39.084,17.793 35.500,17.793 C35.500,17.793 9.500,17.793 9.500,17.793 Z" id="path-3" class="cls-5" fill-rule="evenodd"/>
    <path d="M59.341,51.190 C58.665,51.190 57.994,50.997 57.402,50.631 C57.402,50.631 43.220,41.848 43.220,41.848 C42.764,41.566 42.493,41.060 42.511,40.524 C42.511,40.524 42.962,26.778 42.962,26.778 C42.977,26.284 43.236,25.830 43.652,25.563 C43.652,25.563 57.356,16.791 57.356,16.791 C57.962,16.406 58.646,16.204 59.339,16.204 C61.357,16.204 63.000,17.875 63.000,19.930 C63.000,19.930 63.000,47.463 63.000,47.463 C63.000,49.519 61.358,51.190 59.341,51.190 ZM45.537,39.754 C45.537,39.754 58.980,48.079 58.980,48.079 C59.410,48.346 59.999,48.087 60.000,47.463 C60.000,47.463 60.000,19.930 60.000,19.930 C59.999,19.304 59.412,19.040 58.971,19.321 C58.971,19.321 45.935,27.665 45.935,27.665 C45.935,27.665 45.537,39.754 45.537,39.754 Z" id="path-4" class="cls-5" fill-rule="evenodd"/>
    <path d="M40.680,13.424 C40.680,16.515 38.175,19.021 35.084,19.021 C31.994,19.021 29.489,16.515 29.489,13.424 C29.489,10.333 31.994,7.827 35.084,7.827 C38.175,7.827 40.680,10.333 40.680,13.424 Z" id="path-5" class="cls-7" fill-rule="evenodd"/>
    <path d="M29.568,11.757 C29.568,15.769 26.317,19.021 22.307,19.021 C18.296,19.021 15.044,15.769 15.044,11.757 C15.044,7.745 18.296,4.493 22.307,4.493 C26.317,4.493 29.568,7.745 29.568,11.757 Z" id="path-6" class="cls-7" fill-rule="evenodd"/>
    <path d="M30.084,17.521 C26.172,17.521 22.989,14.337 22.989,10.424 C22.989,6.510 26.172,3.326 30.084,3.326 C33.996,3.326 37.180,6.510 37.180,10.424 C37.180,14.337 33.996,17.521 30.084,17.521 ZM30.084,6.327 C27.826,6.327 25.989,8.164 25.989,10.424 C25.989,12.682 27.826,14.520 30.084,14.520 C32.343,14.520 34.180,12.682 34.180,10.424 C34.180,8.164 32.343,6.327 30.084,6.327 Z" id="path-7" class="cls-5" fill-rule="evenodd"/>
    <path d="M17.307,17.521 C12.475,17.521 8.544,13.589 8.544,8.756 C8.544,3.924 12.475,-0.008 17.307,-0.008 C22.138,-0.008 26.068,3.924 26.068,8.756 C26.068,13.589 22.138,17.521 17.307,17.521 ZM17.307,2.993 C14.129,2.993 11.544,5.578 11.544,8.756 C11.544,11.934 14.129,14.520 17.307,14.520 C20.483,14.520 23.068,11.934 23.068,8.756 C23.068,5.578 20.483,2.993 17.307,2.993 Z" id="path-8" class="cls-5" fill-rule="evenodd"/>
  </g>
</svg>
