<svg xmlns="http://www.w3.org/2000/svg" xmlns:xlink="http://www.w3.org/1999/xlink" preserveAspectRatio="xMidYMid" width="67" height="58" viewBox="0 0 67 58">
  <defs>
    <style>

      .cls-3 {
        fill: #8b71b5;
      }

      .cls-4 {
        fill: #e56a77;
      }

      .cls-5 {
        fill: #ff917b;
      }

      .cls-8 {
        fill: #000000;
      }
    </style>
  </defs>
  <g id="group-28svg">
    <path d="M67.000,49.029 C67.000,53.448 63.418,57.031 59.000,57.031 C59.000,57.031 15.000,57.031 15.000,57.031 C10.582,57.031 7.000,53.448 7.000,49.029 C7.000,49.029 7.000,13.017 7.000,13.017 C7.000,8.598 10.582,5.015 15.000,5.015 C15.000,5.015 59.000,5.015 59.000,5.015 C63.418,5.015 67.000,8.598 67.000,13.017 C67.000,13.017 67.000,49.029 67.000,49.029 Z" id="path-1" class="cls-3" fill-rule="evenodd"/>
    <path d="M62.000,41.026 C62.000,45.446 58.418,49.029 54.000,49.029 C54.000,49.029 37.000,49.029 37.000,49.029 C32.582,49.029 29.000,45.446 29.000,41.026 C29.000,41.026 29.000,19.019 29.000,19.019 C29.000,14.599 32.582,11.017 37.000,11.017 C37.000,11.017 54.000,11.017 54.000,11.017 C58.418,11.017 62.000,14.599 62.000,19.019 C62.000,19.019 62.000,41.026 62.000,41.026 Z" id="path-2" class="cls-4" fill-rule="evenodd"/>
    <path d="M14.000,10.017 C14.000,10.017 14.000,23.021 14.000,23.021 C14.000,23.021 22.000,23.021 22.000,23.021 C22.000,23.021 22.000,10.017 22.000,10.017 C22.000,10.017 14.000,10.017 14.000,10.017 Z" id="path-3" class="cls-5" fill-rule="evenodd"/>
    <path d="M14.000,38.025 C14.000,38.025 14.000,51.029 14.000,51.029 C14.000,51.029 22.000,51.029 22.000,51.029 C22.000,51.029 22.000,38.025 22.000,38.025 C22.000,38.025 14.000,38.025 14.000,38.025 Z" id="path-4" class="cls-5" fill-rule="evenodd"/>
    <path d="M22.871,30.009 C22.871,32.189 21.104,33.957 18.923,33.957 C16.743,33.957 14.976,32.189 14.976,30.009 C14.976,27.828 16.743,26.060 18.923,26.060 C21.104,26.060 22.871,27.828 22.871,30.009 Z" id="path-5" class="cls-5" fill-rule="evenodd"/>
    <path d="M53.500,55.030 C53.500,55.030 9.500,55.030 9.500,55.030 C4.262,55.030 -0.000,50.767 -0.000,45.527 C-0.000,45.527 -0.000,9.516 -0.000,9.516 C-0.000,4.277 4.262,0.013 9.500,0.013 C9.500,0.013 53.500,0.013 53.500,0.013 C58.738,0.013 63.000,4.277 63.000,9.516 C63.000,9.516 63.000,45.527 63.000,45.527 C63.000,50.767 58.738,55.030 53.500,55.030 ZM9.500,3.014 C5.916,3.014 3.000,5.931 3.000,9.516 C3.000,9.516 3.000,45.527 3.000,45.527 C3.000,49.113 5.916,52.029 9.500,52.029 C9.500,52.029 53.500,52.029 53.500,52.029 C57.084,52.029 60.000,49.113 60.000,45.527 C60.000,45.527 60.000,9.516 60.000,9.516 C60.000,5.931 57.084,3.014 53.500,3.014 C53.500,3.014 9.500,3.014 9.500,3.014 Z" id="path-6" class="cls-8" fill-rule="evenodd"/>
    <path d="M48.500,47.028 C48.500,47.028 31.500,47.028 31.500,47.028 C26.262,47.028 22.000,42.765 22.000,37.525 C22.000,37.525 22.000,15.518 22.000,15.518 C22.000,10.278 26.262,6.015 31.500,6.015 C31.500,6.015 48.500,6.015 48.500,6.015 C53.738,6.015 58.000,10.278 58.000,15.518 C58.000,15.518 58.000,37.525 58.000,37.525 C58.000,42.765 53.738,47.028 48.500,47.028 ZM31.500,9.016 C27.916,9.016 25.000,11.933 25.000,15.518 C25.000,15.518 25.000,37.525 25.000,37.525 C25.000,41.110 27.916,44.027 31.500,44.027 C31.500,44.027 48.500,44.027 48.500,44.027 C52.084,44.027 55.000,41.110 55.000,37.525 C55.000,37.525 55.000,15.518 55.000,15.518 C55.000,11.933 52.084,9.016 48.500,9.016 C48.500,9.016 31.500,9.016 31.500,9.016 Z" id="path-7" class="cls-8" fill-rule="evenodd"/>
    <path d="M16.500,21.020 C16.500,21.020 8.500,21.020 8.500,21.020 C7.672,21.020 7.000,20.348 7.000,19.519 C7.000,19.519 7.000,6.515 7.000,6.515 C7.000,5.687 7.672,5.015 8.500,5.015 C8.500,5.015 16.500,5.015 16.500,5.015 C17.328,5.015 18.000,5.687 18.000,6.515 C18.000,6.515 18.000,19.519 18.000,19.519 C18.000,20.348 17.328,21.020 16.500,21.020 ZM10.000,18.019 C10.000,18.019 15.000,18.019 15.000,18.019 C15.000,18.019 15.000,8.016 15.000,8.016 C15.000,8.016 10.000,8.016 10.000,8.016 C10.000,8.016 10.000,18.019 10.000,18.019 Z" id="path-8" class="cls-8" fill-rule="evenodd"/>
    <path d="M16.500,49.029 C16.500,49.029 8.500,49.029 8.500,49.029 C7.672,49.029 7.000,48.356 7.000,47.528 C7.000,47.528 7.000,34.524 7.000,34.524 C7.000,33.696 7.672,33.024 8.500,33.024 C8.500,33.024 16.500,33.024 16.500,33.024 C17.328,33.024 18.000,33.696 18.000,34.524 C18.000,34.524 18.000,47.528 18.000,47.528 C18.000,48.356 17.328,49.029 16.500,49.029 ZM10.000,46.028 C10.000,46.028 15.000,46.028 15.000,46.028 C15.000,46.028 15.000,36.025 15.000,36.025 C15.000,36.025 10.000,36.025 10.000,36.025 C10.000,36.025 10.000,46.028 10.000,46.028 Z" id="path-9" class="cls-8" fill-rule="evenodd"/>
    <path d="M12.923,32.457 C9.919,32.457 7.476,30.013 7.476,27.008 C7.476,24.003 9.919,21.558 12.923,21.558 C15.927,21.558 18.371,24.003 18.371,27.008 C18.371,30.013 15.927,32.457 12.923,32.457 ZM12.923,24.559 C11.573,24.559 10.476,25.658 10.476,27.008 C10.476,28.358 11.573,29.456 12.923,29.456 C14.272,29.456 15.371,28.358 15.371,27.008 C15.371,25.658 14.272,24.559 12.923,24.559 Z" id="path-10" class="cls-8" fill-rule="evenodd"/>
  </g>
</svg>
