<svg xmlns="http://www.w3.org/2000/svg" xmlns:xlink="http://www.w3.org/1999/xlink" preserveAspectRatio="xMidYMid" width="62" height="66" viewBox="0 0 62 66">
  <defs>
    <style>

      .cls-3 {
        fill: #ff917b;
      }

      .cls-4 {
        fill: #e56a77;
      }

      .cls-5 {
        fill: #000000;
      }
    </style>
  </defs>
  <g id="group-7svg">
    <path d="M62.000,47.011 C62.000,51.430 58.418,55.013 54.000,55.013 C54.000,55.013 36.000,55.013 36.000,55.013 C31.582,55.013 28.000,51.430 28.000,47.011 C28.000,47.011 28.000,12.000 28.000,12.000 C28.000,7.580 31.582,3.997 36.000,3.997 C36.000,3.997 54.000,3.997 54.000,3.997 C58.418,3.997 62.000,7.580 62.000,12.000 C62.000,12.000 62.000,47.011 62.000,47.011 Z" id="path-1" class="cls-3" fill-rule="evenodd"/>
    <path d="M28.000,47.011 C28.000,47.011 62.000,47.011 62.000,47.011 C62.000,47.011 62.000,12.000 62.000,12.000 C62.000,12.000 28.000,12.000 28.000,12.000 C28.000,12.000 28.000,47.011 28.000,47.011 Z" id="path-2" class="cls-4" fill-rule="evenodd"/>
    <path d="M49.500,54.013 C49.500,54.013 31.500,54.013 31.500,54.013 C26.262,54.013 22.000,49.750 22.000,44.510 C22.000,44.510 22.000,9.499 22.000,9.499 C22.000,4.259 26.262,-0.004 31.500,-0.004 C31.500,-0.004 49.500,-0.004 49.500,-0.004 C54.738,-0.004 59.000,4.259 59.000,9.499 C59.000,9.499 59.000,44.510 59.000,44.510 C59.000,49.750 54.738,54.013 49.500,54.013 ZM31.500,2.997 C27.916,2.997 25.000,5.914 25.000,9.499 C25.000,9.499 25.000,44.510 25.000,44.510 C25.000,48.095 27.916,51.012 31.500,51.012 C31.500,51.012 49.500,51.012 49.500,51.012 C53.084,51.012 56.000,48.095 56.000,44.510 C56.000,44.510 56.000,9.499 56.000,9.499 C56.000,5.914 53.084,2.997 49.500,2.997 C49.500,2.997 31.500,2.997 31.500,2.997 Z" id="path-3" class="cls-5" fill-rule="evenodd"/>
    <path d="M57.500,46.010 C57.500,46.010 23.500,46.010 23.500,46.010 C22.672,46.010 22.000,45.338 22.000,44.510 C22.000,44.510 22.000,9.499 22.000,9.499 C22.000,8.671 22.672,7.999 23.500,7.999 C23.500,7.999 57.500,7.999 57.500,7.999 C58.328,7.999 59.000,8.671 59.000,9.499 C59.000,9.499 59.000,44.510 59.000,44.510 C59.000,45.338 58.328,46.010 57.500,46.010 ZM25.000,43.009 C25.000,43.009 56.000,43.009 56.000,43.009 C56.000,43.009 56.000,11.000 56.000,11.000 C56.000,11.000 25.000,11.000 25.000,11.000 C25.000,11.000 25.000,43.009 25.000,43.009 Z" id="path-4" class="cls-5" fill-rule="evenodd"/>
    <path d="M42.958,6.054 C42.958,7.159 42.062,8.055 40.958,8.055 C39.853,8.055 38.958,7.159 38.958,6.054 C38.958,4.949 39.853,4.054 40.958,4.054 C42.062,4.054 42.958,4.949 42.958,6.054 Z" id="path-5" class="cls-5" fill-rule="evenodd"/>
    <path d="M43.000,50.011 C43.000,50.011 38.000,50.011 38.000,50.011 C37.172,50.011 36.500,49.339 36.500,48.511 C36.500,47.683 37.172,47.011 38.000,47.011 C38.000,47.011 43.000,47.011 43.000,47.011 C43.828,47.011 44.500,47.683 44.500,48.511 C44.500,49.339 43.828,50.011 43.000,50.011 Z" id="path-6" class="cls-5" fill-rule="evenodd"/>
    <path d="M41.000,65.016 C41.000,65.016 39.000,65.016 39.000,65.016 C38.172,65.016 37.500,64.344 37.500,63.516 C37.500,62.687 38.172,62.015 39.000,62.015 C39.000,62.015 41.000,62.015 41.000,62.015 C41.828,62.015 42.500,62.687 42.500,63.516 C42.500,64.344 41.828,65.016 41.000,65.016 ZM33.000,65.016 C33.000,65.016 27.000,65.016 27.000,65.016 C26.172,65.016 25.500,64.344 25.500,63.516 C25.500,62.687 26.172,62.015 27.000,62.015 C27.000,62.015 33.000,62.015 33.000,62.015 C33.828,62.015 34.500,62.687 34.500,63.516 C34.500,64.344 33.828,65.016 33.000,65.016 ZM21.000,65.016 C21.000,65.016 15.000,65.016 15.000,65.016 C14.172,65.016 13.500,64.344 13.500,63.516 C13.500,62.687 14.172,62.015 15.000,62.015 C15.000,62.015 21.000,62.015 21.000,62.015 C21.828,62.015 22.500,62.687 22.500,63.516 C22.500,64.344 21.828,65.016 21.000,65.016 ZM9.000,65.016 C9.000,65.016 3.000,65.016 3.000,65.016 C2.172,65.016 1.500,64.344 1.500,63.516 C1.500,62.687 2.172,62.015 3.000,62.015 C3.000,62.015 9.000,62.015 9.000,62.015 C9.828,62.015 10.500,62.687 10.500,63.516 C10.500,64.344 9.828,65.016 9.000,65.016 ZM1.500,60.515 C0.672,60.515 -0.000,59.843 -0.000,59.014 C-0.000,59.014 -0.000,53.012 -0.000,53.012 C-0.000,52.184 0.672,51.512 1.500,51.512 C2.328,51.512 3.000,52.184 3.000,53.012 C3.000,53.012 3.000,59.014 3.000,59.014 C3.000,59.843 2.328,60.515 1.500,60.515 ZM1.500,48.511 C0.672,48.511 -0.000,47.839 -0.000,47.011 C-0.000,47.011 -0.000,41.009 -0.000,41.009 C-0.000,40.180 0.672,39.508 1.500,39.508 C2.328,39.508 3.000,40.180 3.000,41.009 C3.000,41.009 3.000,47.011 3.000,47.011 C3.000,47.839 2.328,48.511 1.500,48.511 ZM1.500,36.507 C0.672,36.507 -0.000,35.835 -0.000,35.007 C-0.000,35.007 -0.000,33.506 -0.000,33.506 C-0.000,32.678 0.672,32.006 1.500,32.006 C1.500,32.006 6.000,32.006 6.000,32.006 C6.828,32.006 7.500,32.678 7.500,33.506 C7.500,34.335 6.828,35.007 6.000,35.007 C6.000,35.007 3.000,35.007 3.000,35.007 C3.000,35.835 2.328,36.507 1.500,36.507 ZM18.000,35.007 C18.000,35.007 12.000,35.007 12.000,35.007 C11.172,35.007 10.500,34.335 10.500,33.506 C10.500,32.678 11.172,32.006 12.000,32.006 C12.000,32.006 18.000,32.006 18.000,32.006 C18.828,32.006 19.500,32.678 19.500,33.506 C19.500,34.335 18.828,35.007 18.000,35.007 Z" id="path-7" class="cls-4" fill-rule="evenodd"/>
    <path d="M31.864,32.132 C31.480,32.132 31.097,31.985 30.804,31.692 C30.218,31.106 30.218,30.157 30.804,29.571 C30.804,29.571 45.337,15.033 45.337,15.033 C45.923,14.447 46.872,14.447 47.458,15.033 C48.044,15.619 48.044,16.569 47.458,17.155 C47.458,17.155 32.925,31.692 32.925,31.692 C32.632,31.985 32.248,32.132 31.864,32.132 Z" id="path-8" class="cls-5" fill-rule="evenodd"/>
    <path d="M39.872,31.242 C39.488,31.242 39.104,31.096 38.812,30.802 C38.226,30.216 38.226,29.267 38.812,28.681 C38.812,28.681 43.023,24.468 43.023,24.468 C43.609,23.881 44.559,23.881 45.145,24.468 C45.730,25.054 45.730,26.003 45.145,26.589 C45.145,26.589 40.933,30.802 40.933,30.802 C40.640,31.096 40.256,31.242 39.872,31.242 Z" id="path-9" class="cls-5" fill-rule="evenodd"/>
  </g>
</svg>
