<svg xmlns="http://www.w3.org/2000/svg" xmlns:xlink="http://www.w3.org/1999/xlink" preserveAspectRatio="xMidYMid" width="46" height="66" viewBox="0 0 46 66">
  <defs>
    <style>

      .cls-3 {
        fill: #ff917b;
      }

      .cls-4 {
        fill: #e56a77;
      }

      .cls-5 {
        fill: #000000;
      }

      .cls-9 {
        fill: #ffffff;
      }
    </style>
  </defs>
  <g id="group-6svg">
    <path d="M46.000,57.013 C46.000,61.433 42.418,65.016 38.000,65.016 C38.000,65.016 14.000,65.016 14.000,65.016 C9.581,65.016 6.000,61.433 6.000,57.013 C6.000,57.013 6.000,13.000 6.000,13.000 C6.000,8.580 9.581,4.997 14.000,4.997 C14.000,4.997 38.000,4.997 38.000,4.997 C42.418,4.997 46.000,8.580 46.000,13.000 C46.000,13.000 46.000,57.013 46.000,57.013 Z" id="path-1" class="cls-3" fill-rule="evenodd"/>
    <path d="M6.000,56.013 C6.000,56.013 46.000,56.013 46.000,56.013 C46.000,56.013 46.000,13.000 46.000,13.000 C46.000,13.000 6.000,13.000 6.000,13.000 C6.000,13.000 6.000,56.013 6.000,56.013 Z" id="path-2" class="cls-4" fill-rule="evenodd"/>
    <path d="M33.500,63.015 C33.500,63.015 9.500,63.015 9.500,63.015 C4.262,63.015 -0.000,58.752 -0.000,53.512 C-0.000,53.512 -0.000,9.499 -0.000,9.499 C-0.000,4.259 4.262,-0.004 9.500,-0.004 C9.500,-0.004 33.500,-0.004 33.500,-0.004 C38.738,-0.004 43.000,4.259 43.000,9.499 C43.000,9.499 43.000,53.512 43.000,53.512 C43.000,58.752 38.738,63.015 33.500,63.015 ZM9.500,2.997 C5.916,2.997 3.000,5.914 3.000,9.499 C3.000,9.499 3.000,53.512 3.000,53.512 C3.000,57.097 5.916,60.014 9.500,60.014 C9.500,60.014 33.500,60.014 33.500,60.014 C37.084,60.014 40.000,57.097 40.000,53.512 C40.000,53.512 40.000,9.499 40.000,9.499 C40.000,5.914 37.084,2.997 33.500,2.997 C33.500,2.997 9.500,2.997 9.500,2.997 Z" id="path-3" class="cls-5" fill-rule="evenodd"/>
    <path d="M41.500,54.012 C41.500,54.012 1.500,54.012 1.500,54.012 C0.671,54.012 -0.000,53.340 -0.000,52.512 C-0.000,52.512 -0.000,9.499 -0.000,9.499 C-0.000,8.670 0.671,7.998 1.500,7.998 C1.500,7.998 41.500,7.998 41.500,7.998 C42.329,7.998 43.000,8.670 43.000,9.499 C43.000,9.499 43.000,52.512 43.000,52.512 C43.000,53.340 42.329,54.012 41.500,54.012 ZM3.000,51.011 C3.000,51.011 40.000,51.011 40.000,51.011 C40.000,51.011 40.000,10.999 40.000,10.999 C40.000,10.999 3.000,10.999 3.000,10.999 C3.000,10.999 3.000,51.011 3.000,51.011 Z" id="path-4" class="cls-5" fill-rule="evenodd"/>
    <path d="M24.774,5.710 C24.774,6.815 23.878,7.711 22.774,7.711 C21.669,7.711 20.774,6.815 20.774,5.710 C20.774,4.605 21.669,3.709 22.774,3.709 C23.878,3.709 24.774,4.605 24.774,5.710 Z" id="path-5" class="cls-5" fill-rule="evenodd"/>
    <path d="M25.000,58.014 C25.000,58.014 20.000,58.014 20.000,58.014 C19.171,58.014 18.500,57.342 18.500,56.513 C18.500,55.685 19.171,55.013 20.000,55.013 C20.000,55.013 25.000,55.013 25.000,55.013 C25.829,55.013 26.500,55.685 26.500,56.513 C26.500,57.342 25.829,58.014 25.000,58.014 Z" id="path-6" class="cls-5" fill-rule="evenodd"/>
    <path d="M40.144,45.107 C40.144,47.324 38.348,49.121 36.132,49.121 C33.916,49.121 32.120,47.324 32.120,45.107 C32.120,42.891 33.916,41.094 36.132,41.094 C38.348,41.094 40.144,42.891 40.144,45.107 Z" id="path-7" class="cls-9" fill-rule="evenodd"/>
    <path d="M14.597,45.107 C14.597,47.324 12.800,49.121 10.584,49.121 C8.368,49.121 6.572,47.324 6.572,45.107 C6.572,42.891 8.368,41.094 10.584,41.094 C12.800,41.094 14.597,42.891 14.597,45.107 Z" id="path-8" class="cls-9" fill-rule="evenodd"/>
    <path d="M34.132,50.122 C31.368,50.122 29.120,47.872 29.120,45.107 C29.120,42.343 31.368,40.093 34.132,40.093 C36.896,40.093 39.145,42.343 39.145,45.107 C39.145,47.872 36.896,50.122 34.132,50.122 ZM34.132,42.094 C32.471,42.094 31.120,43.446 31.120,45.107 C31.120,46.769 32.471,48.121 34.132,48.121 C35.793,48.121 37.145,46.769 37.145,45.107 C37.145,43.446 35.793,42.094 34.132,42.094 Z" id="path-9" class="cls-5" fill-rule="evenodd"/>
    <path d="M8.584,50.122 C5.820,50.122 3.572,47.872 3.572,45.107 C3.572,42.343 5.820,40.093 8.584,40.093 C11.349,40.093 13.597,42.343 13.597,45.107 C13.597,47.872 11.349,50.122 8.584,50.122 ZM8.584,42.094 C6.923,42.094 5.572,43.446 5.572,45.107 C5.572,46.769 6.923,48.121 8.584,48.121 C10.246,48.121 11.597,46.769 11.597,45.107 C11.597,43.446 10.246,42.094 8.584,42.094 Z" id="path-10" class="cls-5" fill-rule="evenodd"/>
    <path d="M31.584,49.182 C31.328,49.182 31.072,49.084 30.877,48.889 C30.486,48.498 30.486,47.865 30.877,47.474 C30.877,47.474 36.500,41.849 36.500,41.849 C36.891,41.458 37.524,41.458 37.914,41.849 C38.305,42.239 38.305,42.872 37.914,43.263 C37.914,43.263 32.291,48.889 32.291,48.889 C32.096,49.084 31.840,49.182 31.584,49.182 Z" id="path-11" class="cls-5" fill-rule="evenodd"/>
    <path d="M17.000,47.010 C17.000,47.010 15.000,47.010 15.000,47.010 C14.448,47.010 14.000,46.563 14.000,46.010 C14.000,45.457 14.448,45.010 15.000,45.010 C15.000,45.010 17.000,45.010 17.000,45.010 C17.552,45.010 18.000,45.457 18.000,46.010 C18.000,46.563 17.552,47.010 17.000,47.010 Z" id="path-12" class="cls-5" fill-rule="evenodd"/>
    <path d="M23.000,47.010 C23.000,47.010 20.000,47.010 20.000,47.010 C19.448,47.010 19.000,46.563 19.000,46.010 C19.000,45.457 19.448,45.010 20.000,45.010 C20.000,45.010 23.000,45.010 23.000,45.010 C23.552,45.010 24.000,45.457 24.000,46.010 C24.000,46.563 23.552,47.010 23.000,47.010 Z" id="path-13" class="cls-5" fill-rule="evenodd"/>
    <path d="M29.000,47.010 C29.000,47.010 27.000,47.010 27.000,47.010 C26.448,47.010 26.000,46.563 26.000,46.010 C26.000,45.457 26.448,45.010 27.000,45.010 C27.000,45.010 29.000,45.010 29.000,45.010 C29.552,45.010 30.000,45.457 30.000,46.010 C30.000,46.563 29.552,47.010 29.000,47.010 Z" id="path-14" class="cls-5" fill-rule="evenodd"/>
  </g>
</svg>
