<svg xmlns="http://www.w3.org/2000/svg" xmlns:xlink="http://www.w3.org/1999/xlink" preserveAspectRatio="xMidYMid" width="43" height="64" viewBox="0 0 43 64">
  <defs>
    <style>

      .cls-3 {
        fill: #e56a77;
      }

      .cls-4 {
        fill: #000000;
      }
    </style>
  </defs>
  <g id="group-25svg">
    <path d="M40.000,36.026 C40.000,43.759 33.733,50.028 26.002,50.028 C26.002,50.028 25.998,50.028 25.998,50.028 C18.267,50.028 12.000,43.759 12.000,36.026 C12.000,36.026 12.000,20.017 12.000,20.017 C12.000,12.283 18.267,6.014 25.998,6.014 C25.998,6.014 26.002,6.014 26.002,6.014 C33.733,6.014 40.000,12.283 40.000,20.017 C40.000,20.017 40.000,36.026 40.000,36.026 Z" id="path-1" class="cls-3" fill-rule="evenodd"/>
    <path d="M21.502,47.027 C21.502,47.027 21.498,47.027 21.498,47.027 C12.953,47.027 6.000,40.073 6.000,31.524 C6.000,31.524 6.000,15.515 6.000,15.515 C6.000,6.967 12.953,0.013 21.498,0.013 C30.047,0.013 37.000,6.967 37.000,15.515 C37.000,15.515 37.000,31.524 37.000,31.524 C37.000,40.073 30.047,47.027 21.502,47.027 ZM21.502,3.013 C14.606,3.013 9.000,8.622 9.000,15.515 C9.000,15.515 9.000,31.524 9.000,31.524 C9.000,38.418 14.606,44.026 21.498,44.026 C21.498,44.026 21.502,44.026 21.502,44.026 C28.393,44.026 34.000,38.418 34.000,31.524 C34.000,31.524 34.000,15.515 34.000,15.515 C34.000,8.622 28.393,3.013 21.502,3.013 Z" id="path-2" class="cls-4" fill-rule="evenodd"/>
    <path d="M21.772,55.029 C9.561,55.029 -0.000,45.797 -0.000,34.011 C-0.000,34.011 -0.000,25.020 -0.000,25.020 C-0.000,24.192 0.671,23.520 1.500,23.520 C2.329,23.520 3.000,24.192 3.000,25.020 C3.000,25.020 3.000,34.011 3.000,34.011 C3.000,44.283 11.067,52.029 21.766,52.029 C32.334,52.029 40.000,44.451 40.000,34.011 C40.000,34.011 40.000,25.020 40.000,25.020 C40.000,24.192 40.671,23.520 41.500,23.520 C42.329,23.520 43.000,24.192 43.000,25.020 C43.000,25.020 43.000,34.011 43.000,34.011 C43.000,45.993 33.874,55.029 21.772,55.029 Z" id="path-3" class="cls-4" fill-rule="evenodd"/>
    <path d="M22.500,61.531 C21.671,61.531 21.000,60.859 21.000,60.031 C21.000,60.031 21.000,55.029 21.000,55.029 C21.000,54.201 21.671,53.529 22.500,53.529 C23.329,53.529 24.000,54.201 24.000,55.029 C24.000,55.029 24.000,60.031 24.000,60.031 C24.000,60.859 23.329,61.531 22.500,61.531 Z" id="path-4" class="cls-4" fill-rule="evenodd"/>
    <path d="M28.000,63.032 C28.000,63.032 16.000,63.032 16.000,63.032 C15.171,63.032 14.500,62.360 14.500,61.531 C14.500,60.703 15.171,60.031 16.000,60.031 C16.000,60.031 28.000,60.031 28.000,60.031 C28.829,60.031 29.500,60.703 29.500,61.531 C29.500,62.360 28.829,63.032 28.000,63.032 Z" id="path-5" class="cls-4" fill-rule="evenodd"/>
    <path d="M35.000,19.018 C35.000,19.018 8.000,19.018 8.000,19.018 C7.171,19.018 6.500,18.346 6.500,17.518 C6.500,16.690 7.171,16.017 8.000,16.017 C8.000,16.017 35.000,16.017 35.000,16.017 C35.829,16.017 36.500,16.690 36.500,17.518 C36.500,18.346 35.829,19.018 35.000,19.018 Z" id="path-6" class="cls-4" fill-rule="evenodd"/>
    <path d="M35.000,24.020 C35.000,24.020 8.000,24.020 8.000,24.020 C7.171,24.020 6.500,23.348 6.500,22.519 C6.500,21.691 7.171,21.019 8.000,21.019 C8.000,21.019 35.000,21.019 35.000,21.019 C35.829,21.019 36.500,21.691 36.500,22.519 C36.500,23.348 35.829,24.020 35.000,24.020 Z" id="path-7" class="cls-4" fill-rule="evenodd"/>
    <path d="M35.000,29.021 C35.000,29.021 8.000,29.021 8.000,29.021 C7.171,29.021 6.500,28.349 6.500,27.521 C6.500,26.693 7.171,26.021 8.000,26.021 C8.000,26.021 35.000,26.021 35.000,26.021 C35.829,26.021 36.500,26.693 36.500,27.521 C36.500,28.349 35.829,29.021 35.000,29.021 Z" id="path-8" class="cls-4" fill-rule="evenodd"/>
  </g>
</svg>
