<svg xmlns="http://www.w3.org/2000/svg" xmlns:xlink="http://www.w3.org/1999/xlink" preserveAspectRatio="xMidYMid" width="50" height="64" viewBox="0 0 50 64">
  <defs>
    <style>

      .cls-3 {
        fill: #99746a;
      }

      .cls-4 {
        fill: #edc951;
      }

      .cls-5 {
        fill: #000000;
      }
    </style>
  </defs>
  <g id="group-31svg">
    <path d="M49.000,47.027 C49.000,51.447 45.418,55.029 41.000,55.029 C41.000,55.029 16.000,55.029 16.000,55.029 C11.582,55.029 8.000,51.447 8.000,47.027 C8.000,47.027 8.000,34.023 8.000,34.023 C8.000,29.603 11.582,26.021 16.000,26.021 C16.000,26.021 41.000,26.021 41.000,26.021 C45.418,26.021 49.000,29.603 49.000,34.023 C49.000,34.023 49.000,47.027 49.000,47.027 Z" id="path-1" class="cls-3" fill-rule="evenodd"/>
    <path d="M42.000,26.021 C42.000,26.021 13.000,26.021 13.000,26.021 C13.000,26.021 13.000,12.752 13.000,12.752 C13.000,8.332 17.381,5.014 21.799,5.014 C21.799,5.014 35.399,5.014 35.399,5.014 C39.758,5.014 42.000,8.284 42.000,12.644 C42.000,12.644 42.000,26.021 42.000,26.021 Z" id="path-2" class="cls-4" fill-rule="evenodd"/>
    <path d="M34.500,53.029 C34.500,53.029 9.500,53.029 9.500,53.029 C4.262,53.029 -0.000,48.766 -0.000,43.526 C-0.000,43.526 -0.000,30.522 -0.000,30.522 C-0.000,25.282 4.262,21.019 9.500,21.019 C9.500,21.019 34.500,21.019 34.500,21.019 C39.738,21.019 44.000,25.282 44.000,30.522 C44.000,30.522 44.000,43.526 44.000,43.526 C44.000,48.766 39.738,53.029 34.500,53.029 ZM9.500,24.020 C5.916,24.020 3.000,26.937 3.000,30.522 C3.000,30.522 3.000,43.526 3.000,43.526 C3.000,47.111 5.916,50.028 9.500,50.028 C9.500,50.028 34.500,50.028 34.500,50.028 C38.084,50.028 41.000,47.111 41.000,43.526 C41.000,43.526 41.000,30.522 41.000,30.522 C41.000,26.937 38.084,24.020 34.500,24.020 C34.500,24.020 9.500,24.020 9.500,24.020 Z" id="path-3" class="cls-5" fill-rule="evenodd"/>
    <path d="M35.500,24.020 C35.500,24.020 6.500,24.020 6.500,24.020 C5.672,24.020 5.000,23.348 5.000,22.519 C5.000,22.519 5.000,9.752 5.000,9.752 C5.000,4.564 9.579,0.013 14.799,0.013 C14.799,0.013 28.399,0.013 28.399,0.013 C33.303,0.013 37.000,4.153 37.000,9.643 C37.000,9.643 37.000,22.519 37.000,22.519 C37.000,23.348 36.328,24.020 35.500,24.020 ZM8.000,21.019 C8.000,21.019 34.000,21.019 34.000,21.019 C34.000,21.019 34.000,9.643 34.000,9.643 C34.000,6.349 32.076,3.013 28.399,3.013 C28.399,3.013 14.799,3.013 14.799,3.013 C11.177,3.013 8.000,6.162 8.000,9.752 C8.000,9.752 8.000,21.019 8.000,21.019 Z" id="path-4" class="cls-5" fill-rule="evenodd"/>
    <path d="M24.500,22.519 C23.672,22.519 23.000,21.847 23.000,21.019 C23.000,21.019 23.000,19.018 23.000,19.018 C23.000,19.018 19.500,19.018 19.500,19.018 C18.672,19.018 18.000,18.346 18.000,17.518 C18.000,17.518 18.000,12.516 18.000,12.516 C18.000,11.688 18.672,11.016 19.500,11.016 C19.500,11.016 23.000,11.016 23.000,11.016 C23.000,11.016 23.000,9.015 23.000,9.015 C23.000,9.015 20.500,9.015 20.500,9.015 C19.672,9.015 19.000,8.343 19.000,7.515 C19.000,7.515 19.000,2.013 19.000,2.013 C19.000,1.185 19.672,0.513 20.500,0.513 C21.328,0.513 22.000,1.185 22.000,2.013 C22.000,2.013 22.000,6.014 22.000,6.014 C22.000,6.014 24.500,6.014 24.500,6.014 C25.328,6.014 26.000,6.686 26.000,7.515 C26.000,7.515 26.000,12.516 26.000,12.516 C26.000,13.345 25.328,14.017 24.500,14.017 C24.500,14.017 21.000,14.017 21.000,14.017 C21.000,14.017 21.000,16.017 21.000,16.017 C21.000,16.017 24.500,16.017 24.500,16.017 C25.328,16.017 26.000,16.690 26.000,17.518 C26.000,17.518 26.000,21.019 26.000,21.019 C26.000,21.847 25.328,22.519 24.500,22.519 Z" id="path-5" class="cls-5" fill-rule="evenodd"/>
    <path d="M15.000,18.018 C15.000,18.018 11.000,18.018 11.000,18.018 C11.000,18.018 11.000,9.015 11.000,9.015 C11.000,9.015 15.000,9.015 15.000,9.015 C15.000,9.015 15.000,18.018 15.000,18.018 Z" id="path-6" class="cls-5" fill-rule="evenodd"/>
    <path d="M32.000,18.018 C32.000,18.018 28.000,18.018 28.000,18.018 C28.000,18.018 28.000,9.015 28.000,9.015 C28.000,9.015 32.000,9.015 32.000,9.015 C32.000,9.015 32.000,18.018 32.000,18.018 Z" id="path-7" class="cls-5" fill-rule="evenodd"/>
    <path d="M48.000,63.032 C48.000,63.032 28.155,63.032 28.155,63.032 C24.217,63.032 20.000,60.071 20.000,55.663 C20.000,55.663 20.000,52.029 20.000,52.029 C20.000,51.200 20.672,50.528 21.500,50.528 C22.328,50.528 23.000,51.200 23.000,52.029 C23.000,52.029 23.000,55.663 23.000,55.663 C23.000,58.237 25.717,60.031 28.155,60.031 C28.155,60.031 48.000,60.031 48.000,60.031 C48.828,60.031 49.500,60.703 49.500,61.531 C49.500,62.360 48.828,63.032 48.000,63.032 Z" id="path-8" class="cls-5" fill-rule="evenodd"/>
  </g>
</svg>
