<svg xmlns="http://www.w3.org/2000/svg" xmlns:xlink="http://www.w3.org/1999/xlink" preserveAspectRatio="xMidYMid" width="39" height="64" viewBox="0 0 39 64">
  <defs>
    <style>

      .cls-3 {
        fill: #000000;
      }

      .cls-4 {
        fill: #e56a77;
      }

      .cls-5 {
        fill: #edc951;
      }
    </style>
  </defs>
  <g id="group-23svg">
    <path d="M25.000,63.032 C25.000,63.032 15.000,63.032 15.000,63.032 C14.171,63.032 13.500,62.360 13.500,61.531 C13.500,60.703 14.171,60.031 15.000,60.031 C15.000,60.031 25.000,60.031 25.000,60.031 C25.829,60.031 26.500,60.703 26.500,61.531 C26.500,62.360 25.829,63.032 25.000,63.032 Z" id="path-1" class="cls-3" fill-rule="evenodd"/>
    <path d="M37.000,37.024 C37.000,41.444 33.418,45.026 29.000,45.026 C29.000,45.026 21.000,45.026 21.000,45.026 C16.581,45.026 13.000,41.444 13.000,37.024 C13.000,37.024 13.000,13.017 13.000,13.017 C13.000,8.597 16.581,5.014 21.000,5.014 C21.000,5.014 29.000,5.014 29.000,5.014 C33.418,5.014 37.000,8.597 37.000,13.017 C37.000,13.017 37.000,37.024 37.000,37.024 Z" id="path-2" class="cls-4" fill-rule="evenodd"/>
    <path d="M37.000,35.023 C37.000,35.023 13.000,35.023 13.000,35.023 C13.000,35.023 13.000,15.017 13.000,15.017 C13.000,15.017 37.000,15.017 37.000,15.017 C37.000,15.017 37.000,35.023 37.000,35.023 Z" id="path-3" class="cls-5" fill-rule="evenodd"/>
    <path d="M23.500,43.026 C23.500,43.026 15.500,43.026 15.500,43.026 C10.262,43.026 6.000,38.763 6.000,33.523 C6.000,33.523 6.000,9.515 6.000,9.515 C6.000,4.276 10.262,0.013 15.500,0.013 C15.500,0.013 23.500,0.013 23.500,0.013 C28.738,0.013 33.000,4.276 33.000,9.515 C33.000,9.515 33.000,33.523 33.000,33.523 C33.000,38.763 28.738,43.026 23.500,43.026 ZM15.500,3.013 C11.916,3.013 9.000,5.930 9.000,9.515 C9.000,9.515 9.000,33.523 9.000,33.523 C9.000,37.108 11.916,40.025 15.500,40.025 C15.500,40.025 23.500,40.025 23.500,40.025 C27.084,40.025 30.000,37.108 30.000,33.523 C30.000,33.523 30.000,9.515 30.000,9.515 C30.000,5.930 27.084,3.013 23.500,3.013 C23.500,3.013 15.500,3.013 15.500,3.013 Z" id="path-4" class="cls-3" fill-rule="evenodd"/>
    <path d="M24.543,51.028 C24.543,51.028 13.877,51.028 13.877,51.028 C6.096,51.028 -0.000,45.201 -0.000,37.762 C-0.000,37.762 -0.000,25.020 -0.000,25.020 C-0.000,24.192 0.671,23.520 1.500,23.520 C2.329,23.520 3.000,24.192 3.000,25.020 C3.000,25.020 3.000,37.762 3.000,37.762 C3.000,43.615 7.676,48.027 13.877,48.027 C13.877,48.027 24.543,48.027 24.543,48.027 C30.860,48.027 36.000,43.422 36.000,37.762 C36.000,37.762 36.000,25.020 36.000,25.020 C36.000,24.192 36.671,23.520 37.500,23.520 C38.329,23.520 39.000,24.192 39.000,25.020 C39.000,25.020 39.000,37.762 39.000,37.762 C39.000,45.077 32.515,51.028 24.543,51.028 Z" id="path-5" class="cls-3" fill-rule="evenodd"/>
    <path d="M19.500,61.531 C18.671,61.531 18.000,60.859 18.000,60.031 C18.000,60.031 18.000,51.028 18.000,51.028 C18.000,50.200 18.671,49.528 19.500,49.528 C20.329,49.528 21.000,50.200 21.000,51.028 C21.000,51.028 21.000,60.031 21.000,60.031 C21.000,60.859 20.329,61.531 19.500,61.531 Z" id="path-6" class="cls-3" fill-rule="evenodd"/>
    <path d="M33.000,33.023 C33.000,33.023 6.000,33.023 6.000,33.023 C6.000,33.023 6.000,10.016 6.000,10.016 C6.000,10.016 33.000,10.016 33.000,10.016 C33.000,10.016 33.000,33.023 33.000,33.023 ZM9.000,30.022 C9.000,30.022 30.000,30.022 30.000,30.022 C30.000,30.022 30.000,13.017 30.000,13.017 C30.000,13.017 9.000,13.017 9.000,13.017 C9.000,13.017 9.000,30.022 9.000,30.022 Z" id="path-7" class="cls-3" fill-rule="evenodd"/>
    <path d="M31.000,18.018 C31.000,18.018 25.000,18.018 25.000,18.018 C24.171,18.018 23.500,17.346 23.500,16.518 C23.500,15.689 24.171,15.017 25.000,15.017 C25.000,15.017 31.000,15.017 31.000,15.017 C31.829,15.017 32.500,15.689 32.500,16.518 C32.500,17.346 31.829,18.018 31.000,18.018 Z" id="path-8" class="cls-3" fill-rule="evenodd"/>
    <path d="M31.000,24.020 C31.000,24.020 23.000,24.020 23.000,24.020 C22.171,24.020 21.500,23.348 21.500,22.519 C21.500,21.691 22.171,21.019 23.000,21.019 C23.000,21.019 31.000,21.019 31.000,21.019 C31.829,21.019 32.500,21.691 32.500,22.519 C32.500,23.348 31.829,24.020 31.000,24.020 Z" id="path-9" class="cls-3" fill-rule="evenodd"/>
    <path d="M31.000,29.021 C31.000,29.021 25.000,29.021 25.000,29.021 C24.171,29.021 23.500,28.349 23.500,27.521 C23.500,26.693 24.171,26.021 25.000,26.021 C25.000,26.021 31.000,26.021 31.000,26.021 C31.829,26.021 32.500,26.693 32.500,27.521 C32.500,28.349 31.829,29.021 31.000,29.021 Z" id="path-10" class="cls-3" fill-rule="evenodd"/>
    <path d="M14.000,18.018 C14.000,18.018 8.000,18.018 8.000,18.018 C7.171,18.018 6.500,17.346 6.500,16.518 C6.500,15.689 7.171,15.017 8.000,15.017 C8.000,15.017 14.000,15.017 14.000,15.017 C14.829,15.017 15.500,15.689 15.500,16.518 C15.500,17.346 14.829,18.018 14.000,18.018 Z" id="path-11" class="cls-3" fill-rule="evenodd"/>
    <path d="M12.000,24.020 C12.000,24.020 8.000,24.020 8.000,24.020 C7.171,24.020 6.500,23.348 6.500,22.519 C6.500,21.691 7.171,21.019 8.000,21.019 C8.000,21.019 12.000,21.019 12.000,21.019 C12.829,21.019 13.500,21.691 13.500,22.519 C13.500,23.348 12.829,24.020 12.000,24.020 Z" id="path-12" class="cls-3" fill-rule="evenodd"/>
    <path d="M14.000,29.021 C14.000,29.021 8.000,29.021 8.000,29.021 C7.171,29.021 6.500,28.349 6.500,27.521 C6.500,26.693 7.171,26.021 8.000,26.021 C8.000,26.021 14.000,26.021 14.000,26.021 C14.829,26.021 15.500,26.693 15.500,27.521 C15.500,28.349 14.829,29.021 14.000,29.021 Z" id="path-13" class="cls-3" fill-rule="evenodd"/>
  </g>
</svg>
