<svg xmlns="http://www.w3.org/2000/svg" xmlns:xlink="http://www.w3.org/1999/xlink" preserveAspectRatio="xMidYMid" width="67" height="63" viewBox="0 0 67 63">
  <defs>
    <style>

      .cls-3 {
        fill: #edc951;
      }

      .cls-4 {
        fill: #000000;
      }
    </style>
  </defs>
  <g id="group-11svg">
    <path d="M67.000,47.011 C67.000,51.431 63.418,55.013 59.000,55.013 C59.000,55.013 15.000,55.013 15.000,55.013 C10.582,55.013 7.000,51.431 7.000,47.011 C7.000,47.011 7.000,12.000 7.000,12.000 C7.000,7.580 10.582,3.998 15.000,3.998 C15.000,3.998 59.000,3.998 59.000,3.998 C63.418,3.998 67.000,7.580 67.000,12.000 C67.000,12.000 67.000,47.011 67.000,47.011 Z" id="path-1" class="cls-3" fill-rule="evenodd"/>
    <path d="M53.500,54.013 C53.500,54.013 9.500,54.013 9.500,54.013 C4.262,54.013 -0.000,49.750 -0.000,44.510 C-0.000,44.510 -0.000,9.499 -0.000,9.499 C-0.000,4.259 4.262,-0.004 9.500,-0.004 C9.500,-0.004 53.500,-0.004 53.500,-0.004 C58.738,-0.004 63.000,4.259 63.000,9.499 C63.000,9.499 63.000,44.510 63.000,44.510 C63.000,49.750 58.738,54.013 53.500,54.013 ZM9.500,2.997 C5.916,2.997 3.000,5.914 3.000,9.499 C3.000,9.499 3.000,44.510 3.000,44.510 C3.000,48.095 5.916,51.012 9.500,51.012 C9.500,51.012 53.500,51.012 53.500,51.012 C57.084,51.012 60.000,48.095 60.000,44.510 C60.000,44.510 60.000,9.499 60.000,9.499 C60.000,5.914 57.084,2.997 53.500,2.997 C53.500,2.997 9.500,2.997 9.500,2.997 Z" id="path-2" class="cls-4" fill-rule="evenodd"/>
    <path d="M39.500,62.015 C39.500,62.015 23.500,62.015 23.500,62.015 C22.672,62.015 22.000,61.343 22.000,60.515 C22.000,60.515 22.000,52.513 22.000,52.513 C22.000,51.684 22.672,51.012 23.500,51.012 C23.500,51.012 39.500,51.012 39.500,51.012 C40.328,51.012 41.000,51.684 41.000,52.513 C41.000,52.513 41.000,60.515 41.000,60.515 C41.000,61.343 40.328,62.015 39.500,62.015 ZM25.000,59.015 C25.000,59.015 38.000,59.015 38.000,59.015 C38.000,59.015 38.000,54.013 38.000,54.013 C38.000,54.013 25.000,54.013 25.000,54.013 C25.000,54.013 25.000,59.015 25.000,59.015 Z" id="path-3" class="cls-4" fill-rule="evenodd"/>
    <path d="M15.411,44.311 C15.027,44.311 14.644,44.164 14.351,43.871 C13.765,43.285 13.765,42.336 14.351,41.749 C14.351,41.749 46.824,9.266 46.824,9.266 C47.410,8.680 48.359,8.680 48.945,9.266 C49.531,9.852 49.531,10.802 48.945,11.388 C48.945,11.388 16.472,43.871 16.472,43.871 C16.179,44.164 15.795,44.311 15.411,44.311 Z" id="path-4" class="cls-4" fill-rule="evenodd"/>
    <path d="M33.305,42.323 C32.921,42.323 32.537,42.176 32.244,41.883 C31.658,41.297 31.658,40.348 32.244,39.762 C32.244,39.762 41.655,30.348 41.655,30.348 C42.241,29.761 43.190,29.761 43.776,30.348 C44.362,30.934 44.362,31.883 43.776,32.469 C43.776,32.469 34.365,41.883 34.365,41.883 C34.072,42.176 33.688,42.323 33.305,42.323 Z" id="path-5" class="cls-4" fill-rule="evenodd"/>
  </g>
</svg>
