<svg xmlns="http://www.w3.org/2000/svg" xmlns:xlink="http://www.w3.org/1999/xlink" preserveAspectRatio="xMidYMid" width="33" height="61" viewBox="0 0 33 61">
  <defs>
    <style>

      .cls-3 {
        fill: #8b71b5;
      }

      .cls-4 {
        fill: #000000;
      }
    </style>
  </defs>
  <g id="group-21svg">
    <path d="M32.156,31.518 C32.156,36.765 27.904,41.018 22.660,41.018 C22.660,41.018 18.652,41.018 18.652,41.018 C13.408,41.018 9.156,36.765 9.156,31.518 C9.156,31.518 9.156,12.506 9.156,12.506 C9.156,7.259 13.408,3.006 18.652,3.006 C18.652,3.006 22.660,3.006 22.660,3.006 C27.904,3.006 32.156,7.259 32.156,12.506 C32.156,12.506 32.156,31.518 32.156,31.518 Z" id="path-1" class="cls-3" fill-rule="evenodd"/>
    <path d="M18.160,41.018 C18.160,41.018 14.152,41.018 14.152,41.018 C8.089,41.018 3.156,36.084 3.156,30.019 C3.156,30.019 3.156,11.005 3.156,11.005 C3.156,4.940 8.089,0.005 14.152,0.005 C14.152,0.005 18.160,0.005 18.160,0.005 C24.224,0.005 29.156,4.940 29.156,11.005 C29.156,11.005 29.156,30.019 29.156,30.019 C29.156,36.084 24.224,41.018 18.160,41.018 ZM14.152,3.006 C9.743,3.006 6.156,6.594 6.156,11.005 C6.156,11.005 6.156,30.019 6.156,30.019 C6.156,34.429 9.743,38.017 14.152,38.017 C14.152,38.017 18.160,38.017 18.160,38.017 C22.569,38.017 26.156,34.429 26.156,30.019 C26.156,30.019 26.156,11.005 26.156,11.005 C26.156,6.594 22.569,3.006 18.160,3.006 C18.160,3.006 14.152,3.006 14.152,3.006 Z" id="path-2" class="cls-4" fill-rule="evenodd"/>
    <path d="M17.098,46.020 C17.098,46.020 16.575,46.020 16.575,46.020 C9.302,46.020 3.156,40.291 3.156,33.510 C3.156,33.510 3.156,18.011 3.156,18.011 C3.156,17.183 3.828,16.510 4.656,16.510 C5.484,16.510 6.156,17.183 6.156,18.011 C6.156,18.011 6.156,33.510 6.156,33.510 C6.156,38.664 10.928,43.019 16.575,43.019 C16.575,43.019 17.098,43.019 17.098,43.019 C22.347,43.019 26.156,39.019 26.156,33.510 C26.156,33.510 26.156,18.011 26.156,18.011 C26.156,17.183 26.828,16.510 27.656,16.510 C28.484,16.510 29.156,17.183 29.156,18.011 C29.156,18.011 29.156,33.510 29.156,33.510 C29.156,40.642 23.973,46.020 17.098,46.020 Z" id="path-3" class="cls-4" fill-rule="evenodd"/>
    <path d="M16.656,55.522 C15.828,55.522 15.156,54.850 15.156,54.022 C15.156,54.022 15.156,45.019 15.156,45.019 C15.156,44.191 15.828,43.519 16.656,43.519 C17.484,43.519 18.156,44.191 18.156,45.019 C18.156,45.019 18.156,54.022 18.156,54.022 C18.156,54.850 17.484,55.522 16.656,55.522 Z" id="path-4" class="cls-4" fill-rule="evenodd"/>
    <path d="M16.313,60.319 C8.459,60.319 0.005,58.306 0.005,53.886 C0.005,53.058 0.677,52.386 1.505,52.386 C2.333,52.386 3.005,53.058 3.005,53.886 C3.005,54.883 7.669,57.318 16.313,57.318 C24.959,57.318 29.623,54.883 29.623,53.886 C29.623,53.058 30.295,52.386 31.123,52.386 C31.951,52.386 32.623,53.058 32.623,53.886 C32.623,58.306 24.169,60.319 16.313,60.319 Z" id="path-5" class="cls-4" fill-rule="evenodd"/>
  </g>
</svg>
