<svg xmlns="http://www.w3.org/2000/svg" xmlns:xlink="http://www.w3.org/1999/xlink" preserveAspectRatio="xMidYMid" width="46" height="66" viewBox="0 0 46 66">
  <defs>
    <style>

      .cls-3 {
        fill: #ff917b;
      }

      .cls-4 {
        fill: #e56a77;
      }

      .cls-5 {
        fill: #000000;
      }
    </style>
  </defs>
  <g id="group-2svg">
    <path d="M46.000,57.013 C46.000,61.433 42.418,65.016 38.000,65.016 C38.000,65.016 14.000,65.016 14.000,65.016 C9.581,65.016 6.000,61.433 6.000,57.013 C6.000,57.013 6.000,13.000 6.000,13.000 C6.000,8.580 9.581,4.997 14.000,4.997 C14.000,4.997 38.000,4.997 38.000,4.997 C42.418,4.997 46.000,8.580 46.000,13.000 C46.000,13.000 46.000,57.013 46.000,57.013 Z" id="path-1" class="cls-3" fill-rule="evenodd"/>
    <path d="M6.000,56.013 C6.000,56.013 46.000,56.013 46.000,56.013 C46.000,56.013 46.000,13.000 46.000,13.000 C46.000,13.000 6.000,13.000 6.000,13.000 C6.000,13.000 6.000,56.013 6.000,56.013 Z" id="path-2" class="cls-4" fill-rule="evenodd"/>
    <path d="M33.500,63.015 C33.500,63.015 9.500,63.015 9.500,63.015 C4.262,63.015 -0.000,58.752 -0.000,53.512 C-0.000,53.512 -0.000,9.499 -0.000,9.499 C-0.000,4.259 4.262,-0.004 9.500,-0.004 C9.500,-0.004 33.500,-0.004 33.500,-0.004 C38.738,-0.004 43.000,4.259 43.000,9.499 C43.000,9.499 43.000,53.512 43.000,53.512 C43.000,58.752 38.738,63.015 33.500,63.015 ZM9.500,2.997 C5.916,2.997 3.000,5.914 3.000,9.499 C3.000,9.499 3.000,53.512 3.000,53.512 C3.000,57.097 5.916,60.014 9.500,60.014 C9.500,60.014 33.500,60.014 33.500,60.014 C37.084,60.014 40.000,57.097 40.000,53.512 C40.000,53.512 40.000,9.499 40.000,9.499 C40.000,5.914 37.084,2.997 33.500,2.997 C33.500,2.997 9.500,2.997 9.500,2.997 Z" id="path-3" class="cls-5" fill-rule="evenodd"/>
    <path d="M41.500,54.012 C41.500,54.012 1.500,54.012 1.500,54.012 C0.671,54.012 -0.000,53.340 -0.000,52.512 C-0.000,52.512 -0.000,9.499 -0.000,9.499 C-0.000,8.670 0.671,7.998 1.500,7.998 C1.500,7.998 41.500,7.998 41.500,7.998 C42.329,7.998 43.000,8.670 43.000,9.499 C43.000,9.499 43.000,52.512 43.000,52.512 C43.000,53.340 42.329,54.012 41.500,54.012 ZM3.000,51.011 C3.000,51.011 40.000,51.011 40.000,51.011 C40.000,51.011 40.000,10.999 40.000,10.999 C40.000,10.999 3.000,10.999 3.000,10.999 C3.000,10.999 3.000,51.011 3.000,51.011 Z" id="path-4" class="cls-5" fill-rule="evenodd"/>
    <path d="M24.204,5.710 C24.204,6.815 23.308,7.711 22.204,7.711 C21.099,7.711 20.204,6.815 20.204,5.710 C20.204,4.605 21.099,3.709 22.204,3.709 C23.308,3.709 24.204,4.605 24.204,5.710 Z" id="path-5" class="cls-5" fill-rule="evenodd"/>
    <path d="M25.000,58.014 C25.000,58.014 20.000,58.014 20.000,58.014 C19.171,58.014 18.500,57.342 18.500,56.513 C18.500,55.685 19.171,55.013 20.000,55.013 C20.000,55.013 25.000,55.013 25.000,55.013 C25.829,55.013 26.500,55.685 26.500,56.513 C26.500,57.342 25.829,58.014 25.000,58.014 Z" id="path-6" class="cls-5" fill-rule="evenodd"/>
    <path d="M9.679,43.674 C9.295,43.674 8.911,43.528 8.618,43.235 C8.032,42.649 8.032,41.699 8.618,41.113 C8.618,41.113 31.518,18.206 31.518,18.206 C32.104,17.620 33.053,17.620 33.639,18.206 C34.225,18.793 34.225,19.742 33.639,20.328 C33.639,20.328 10.739,43.235 10.739,43.235 C10.446,43.528 10.062,43.674 9.679,43.674 Z" id="path-7" class="cls-5" fill-rule="evenodd"/>
    <path d="M22.297,42.272 C21.913,42.272 21.529,42.126 21.236,41.833 C20.650,41.247 20.650,40.297 21.236,39.711 C21.236,39.711 27.873,33.072 27.873,33.072 C28.458,32.486 29.408,32.486 29.994,33.072 C30.580,33.659 30.580,34.608 29.994,35.194 C29.994,35.194 23.357,41.833 23.357,41.833 C23.064,42.126 22.681,42.272 22.297,42.272 Z" id="path-8" class="cls-5" fill-rule="evenodd"/>
  </g>
</svg>
