<svg xmlns="http://www.w3.org/2000/svg" xmlns:xlink="http://www.w3.org/1999/xlink" preserveAspectRatio="xMidYMid" width="36" height="67" viewBox="0 0 36 67">
  <defs>
    <style>

      .cls-3 {
        fill: #ff917b;
      }

      .cls-4 {
        fill: #8b71b5;
      }

      .cls-5 {
        fill: #000000;
      }
    </style>
  </defs>
  <g id="group-27svg">
    <path d="M36.000,26.020 C36.000,23.810 34.209,22.019 32.000,22.019 C32.000,22.019 12.000,22.019 12.000,22.019 C9.791,22.019 8.000,23.810 8.000,26.020 C8.000,26.020 8.000,62.031 8.000,62.031 C8.000,64.241 9.791,66.032 12.000,66.032 C12.000,66.032 32.000,66.032 32.000,66.032 C34.209,66.032 36.000,64.241 36.000,62.031 C36.000,62.031 36.000,26.020 36.000,26.020 Z" id="path-1" class="cls-3" fill-rule="evenodd"/>
    <path d="M30.000,8.014 C30.000,6.910 29.104,6.014 28.000,6.014 C28.000,6.014 16.000,6.014 16.000,6.014 C14.896,6.014 14.000,6.910 14.000,8.014 C14.000,8.014 14.000,20.018 14.000,20.018 C14.000,21.123 14.896,22.019 16.000,22.019 C16.000,22.019 28.000,22.019 28.000,22.019 C29.104,22.019 30.000,21.123 30.000,20.018 C30.000,20.018 30.000,8.014 30.000,8.014 Z" id="path-2" class="cls-4" fill-rule="evenodd"/>
    <path d="M25.500,63.031 C25.500,63.031 5.500,63.031 5.500,63.031 C2.468,63.031 -0.000,60.563 -0.000,57.530 C-0.000,57.530 -0.000,21.519 -0.000,21.519 C-0.000,18.485 2.468,16.017 5.500,16.017 C5.500,16.017 25.500,16.017 25.500,16.017 C28.532,16.017 31.000,18.485 31.000,21.519 C31.000,21.519 31.000,57.530 31.000,57.530 C31.000,60.563 28.532,63.031 25.500,63.031 ZM5.500,19.018 C4.121,19.018 3.000,20.139 3.000,21.519 C3.000,21.519 3.000,57.530 3.000,57.530 C3.000,58.909 4.121,60.030 5.500,60.030 C5.500,60.030 25.500,60.030 25.500,60.030 C26.879,60.030 28.000,58.909 28.000,57.530 C28.000,57.530 28.000,21.519 28.000,21.519 C28.000,20.139 26.879,19.018 25.500,19.018 C25.500,19.018 5.500,19.018 5.500,19.018 Z" id="path-3" class="cls-5" fill-rule="evenodd"/>
    <path d="M22.500,19.018 C22.500,19.018 10.500,19.018 10.500,19.018 C8.570,19.018 7.000,17.447 7.000,15.517 C7.000,15.517 7.000,3.513 7.000,3.513 C7.000,1.583 8.570,0.012 10.500,0.012 C10.500,0.012 22.500,0.012 22.500,0.012 C24.430,0.012 26.000,1.583 26.000,3.513 C26.000,3.513 26.000,15.517 26.000,15.517 C26.000,17.447 24.430,19.018 22.500,19.018 ZM10.500,3.013 C10.225,3.013 10.000,3.238 10.000,3.513 C10.000,3.513 10.000,15.517 10.000,15.517 C10.000,15.792 10.225,16.017 10.500,16.017 C10.500,16.017 22.500,16.017 22.500,16.017 C22.775,16.017 23.000,15.792 23.000,15.517 C23.000,15.517 23.000,3.513 23.000,3.513 C23.000,3.238 22.775,3.013 22.500,3.013 C22.500,3.013 10.500,3.013 10.500,3.013 Z" id="path-4" class="cls-5" fill-rule="evenodd"/>
    <path d="M18.500,14.516 C17.672,14.516 17.000,13.844 17.000,13.016 C17.000,13.016 17.000,7.014 17.000,7.014 C17.000,6.186 17.672,5.514 18.500,5.514 C19.328,5.514 20.000,6.186 20.000,7.014 C20.000,7.014 20.000,13.016 20.000,13.016 C20.000,13.844 19.328,14.516 18.500,14.516 Z" id="path-5" class="cls-5" fill-rule="evenodd"/>
    <path d="M13.500,14.516 C12.672,14.516 12.000,13.844 12.000,13.016 C12.000,13.016 12.000,7.014 12.000,7.014 C12.000,6.186 12.672,5.514 13.500,5.514 C14.328,5.514 15.000,6.186 15.000,7.014 C15.000,7.014 15.000,13.016 15.000,13.016 C15.000,13.844 14.328,14.516 13.500,14.516 Z" id="path-6" class="cls-5" fill-rule="evenodd"/>
  </g>
</svg>
