<svg xmlns="http://www.w3.org/2000/svg" xmlns:xlink="http://www.w3.org/1999/xlink" preserveAspectRatio="xMidYMid" width="60" height="64" viewBox="0 0 60 64">
  <defs>
    <style>

      .cls-3 {
        fill: #ff917b;
      }

      .cls-4 {
        fill: #81bda4;
      }

      .cls-5 {
        fill: #99746a;
      }

      .cls-6 {
        fill: #000000;
      }
    </style>
  </defs>
  <g id="group-12svg">
    <path d="M60.000,41.017 C60.000,45.437 56.418,49.020 52.000,49.020 C52.000,49.020 15.000,49.020 15.000,49.020 C10.582,49.020 7.000,45.437 7.000,41.017 C7.000,41.017 7.000,12.008 7.000,12.008 C7.000,7.589 10.582,4.006 15.000,4.006 C15.000,4.006 52.000,4.006 52.000,4.006 C56.418,4.006 60.000,7.589 60.000,12.008 C60.000,12.008 60.000,41.017 60.000,41.017 Z" id="path-1" class="cls-3" fill-rule="evenodd"/>
    <path d="M7.109,40.017 C7.109,45.019 10.752,49.020 15.245,49.020 C15.245,49.020 52.855,49.020 52.855,49.020 C57.349,49.020 59.991,45.019 59.991,40.017 C59.991,40.017 7.109,40.017 7.109,40.017 Z" id="path-2" class="cls-4" fill-rule="evenodd"/>
    <path d="M47.000,60.990 C47.000,62.113 46.089,63.024 44.966,63.024 C44.966,63.024 21.034,63.024 21.034,63.024 C19.911,63.024 19.000,62.113 19.000,60.990 C19.000,60.990 19.000,57.056 19.000,57.056 C19.000,55.933 19.911,55.022 21.034,55.022 C21.034,55.022 44.966,55.022 44.966,55.022 C46.089,55.022 47.000,55.933 47.000,57.056 C47.000,57.056 47.000,60.990 47.000,60.990 Z" id="path-3" class="cls-5" fill-rule="evenodd"/>
    <path d="M46.500,48.020 C46.500,48.020 9.500,48.020 9.500,48.020 C4.262,48.020 -0.000,43.757 -0.000,38.517 C-0.000,38.517 -0.000,9.508 -0.000,9.508 C-0.000,4.268 4.262,0.005 9.500,0.005 C9.500,0.005 46.500,0.005 46.500,0.005 C51.738,0.005 56.000,4.268 56.000,9.508 C56.000,9.508 56.000,38.517 56.000,38.517 C56.000,43.757 51.738,48.020 46.500,48.020 ZM9.500,3.006 C5.916,3.006 3.000,5.923 3.000,9.508 C3.000,9.508 3.000,38.517 3.000,38.517 C3.000,42.102 5.916,45.019 9.500,45.019 C9.500,45.019 46.500,45.019 46.500,45.019 C50.084,45.019 53.000,42.102 53.000,38.517 C53.000,38.517 53.000,9.508 53.000,9.508 C53.000,5.923 50.084,3.006 46.500,3.006 C46.500,3.006 9.500,3.006 9.500,3.006 Z" id="path-4" class="cls-6" fill-rule="evenodd"/>
    <path d="M46.855,48.020 C46.855,48.020 10.245,48.020 10.245,48.020 C4.932,48.020 0.609,43.308 0.609,37.516 C0.609,36.688 1.281,36.016 2.109,36.016 C2.109,36.016 53.991,36.016 53.991,36.016 C54.819,36.016 55.491,36.688 55.491,37.516 C55.491,43.701 51.940,48.020 46.855,48.020 ZM3.743,39.017 C4.359,42.437 7.040,45.019 10.245,45.019 C10.245,45.019 46.855,45.019 46.855,45.019 C50.224,45.019 51.983,42.196 52.395,39.017 C52.395,39.017 3.743,39.017 3.743,39.017 Z" id="path-5" class="cls-6" fill-rule="evenodd"/>
    <path d="M34.500,54.021 C34.500,54.021 20.500,54.021 20.500,54.021 C19.671,54.021 19.000,53.349 19.000,52.521 C19.000,52.521 19.000,46.519 19.000,46.519 C19.000,45.691 19.671,45.019 20.500,45.019 C20.500,45.019 34.500,45.019 34.500,45.019 C35.329,45.019 36.000,45.691 36.000,46.519 C36.000,46.519 36.000,52.521 36.000,52.521 C36.000,53.349 35.329,54.021 34.500,54.021 ZM22.000,51.020 C22.000,51.020 33.000,51.020 33.000,51.020 C33.000,51.020 33.000,48.020 33.000,48.020 C33.000,48.020 22.000,48.020 22.000,48.020 C22.000,48.020 22.000,51.020 22.000,51.020 Z" id="path-6" class="cls-6" fill-rule="evenodd"/>
    <path d="M39.466,62.024 C39.466,62.024 15.534,62.024 15.534,62.024 C13.585,62.024 12.000,60.438 12.000,58.489 C12.000,58.489 12.000,54.556 12.000,54.556 C12.000,52.606 13.585,51.020 15.534,51.020 C15.534,51.020 39.466,51.020 39.466,51.020 C41.415,51.020 43.000,52.606 43.000,54.556 C43.000,54.556 43.000,58.489 43.000,58.489 C43.000,60.438 41.415,62.024 39.466,62.024 ZM15.534,54.021 C15.239,54.021 15.000,54.261 15.000,54.556 C15.000,54.556 15.000,58.489 15.000,58.489 C15.000,58.784 15.239,59.023 15.534,59.023 C15.534,59.023 39.466,59.023 39.466,59.023 C39.761,59.023 40.000,58.784 40.000,58.489 C40.000,58.489 40.000,54.556 40.000,54.556 C40.000,54.261 39.761,54.021 39.466,54.021 C39.466,54.021 15.534,54.021 15.534,54.021 Z" id="path-7" class="cls-6" fill-rule="evenodd"/>
    <path d="M16.028,35.712 C15.644,35.712 15.260,35.566 14.967,35.272 C14.381,34.686 14.381,33.737 14.967,33.151 C14.967,33.151 40.394,7.715 40.394,7.715 C40.980,7.129 41.930,7.129 42.516,7.715 C43.102,8.301 43.102,9.251 42.516,9.837 C42.516,9.837 17.088,35.272 17.088,35.272 C16.795,35.566 16.412,35.712 16.028,35.712 Z" id="path-8" class="cls-6" fill-rule="evenodd"/>
    <path d="M30.039,34.154 C29.655,34.154 29.271,34.007 28.978,33.714 C28.392,33.128 28.392,32.179 28.978,31.593 C28.978,31.593 36.347,24.222 36.347,24.222 C36.933,23.636 37.882,23.636 38.468,24.222 C39.054,24.808 39.054,25.758 38.468,26.344 C38.468,26.344 31.099,33.714 31.099,33.714 C30.806,34.007 30.422,34.154 30.039,34.154 Z" id="path-9" class="cls-6" fill-rule="evenodd"/>
  </g>
</svg>
