<svg xmlns="http://www.w3.org/2000/svg" xmlns:xlink="http://www.w3.org/1999/xlink" preserveAspectRatio="xMidYMid" width="40" height="66" viewBox="0 0 40 66">
  <defs>
    <style>

      .cls-3 {
        fill: #81bda4;
      }

      .cls-4 {
        fill: #edc951;
      }

      .cls-6 {
        fill: #000000;
      }
    </style>
  </defs>
  <g id="group-29svg">
    <path d="M40.000,42.025 C40.000,46.445 36.418,50.028 32.000,50.028 C32.000,50.028 15.000,50.028 15.000,50.028 C10.582,50.028 7.000,46.445 7.000,42.025 C7.000,42.025 7.000,13.016 7.000,13.016 C7.000,8.596 10.582,5.014 15.000,5.014 C15.000,5.014 32.000,5.014 32.000,5.014 C36.418,5.014 40.000,8.596 40.000,13.016 C40.000,13.016 40.000,42.025 40.000,42.025 Z" id="path-1" class="cls-3" fill-rule="evenodd"/>
    <path d="M21.000,57.030 C21.000,57.030 27.000,57.030 27.000,57.030 C27.000,57.030 27.000,50.028 27.000,50.028 C27.000,50.028 21.000,50.028 21.000,50.028 C21.000,50.028 21.000,57.030 21.000,57.030 Z" id="path-2" class="cls-4" fill-rule="evenodd"/>
    <path d="M33.000,62.998 C33.000,64.121 32.090,65.032 30.966,65.032 C30.966,65.032 17.034,65.032 17.034,65.032 C15.910,65.032 15.000,64.121 15.000,62.998 C15.000,62.998 15.000,59.064 15.000,59.064 C15.000,57.941 15.910,57.030 17.034,57.030 C17.034,57.030 30.966,57.030 30.966,57.030 C32.090,57.030 33.000,57.941 33.000,59.064 C33.000,59.064 33.000,62.998 33.000,62.998 Z" id="path-3" class="cls-4" fill-rule="evenodd"/>
    <path d="M26.500,48.027 C26.500,48.027 9.500,48.027 9.500,48.027 C4.262,48.027 -0.000,43.764 -0.000,38.524 C-0.000,38.524 -0.000,9.515 -0.000,9.515 C-0.000,4.275 4.262,0.012 9.500,0.012 C9.500,0.012 26.500,0.012 26.500,0.012 C31.738,0.012 36.000,4.275 36.000,9.515 C36.000,9.515 36.000,38.524 36.000,38.524 C36.000,43.764 31.738,48.027 26.500,48.027 ZM9.500,3.013 C5.916,3.013 3.000,5.930 3.000,9.515 C3.000,9.515 3.000,38.524 3.000,38.524 C3.000,42.109 5.916,45.026 9.500,45.026 C9.500,45.026 26.500,45.026 26.500,45.026 C30.084,45.026 33.000,42.109 33.000,38.524 C33.000,38.524 33.000,9.515 33.000,9.515 C33.000,5.930 30.084,3.013 26.500,3.013 C26.500,3.013 9.500,3.013 9.500,3.013 Z" id="path-4" class="cls-6" fill-rule="evenodd"/>
    <path d="M21.500,55.029 C21.500,55.029 15.500,55.029 15.500,55.029 C14.672,55.029 14.000,54.357 14.000,53.529 C14.000,53.529 14.000,46.527 14.000,46.527 C14.000,45.698 14.672,45.026 15.500,45.026 C15.500,45.026 21.500,45.026 21.500,45.026 C22.328,45.026 23.000,45.698 23.000,46.527 C23.000,46.527 23.000,53.529 23.000,53.529 C23.000,54.357 22.328,55.029 21.500,55.029 ZM17.000,52.028 C17.000,52.028 20.000,52.028 20.000,52.028 C20.000,52.028 20.000,48.027 20.000,48.027 C20.000,48.027 17.000,48.027 17.000,48.027 C17.000,48.027 17.000,52.028 17.000,52.028 Z" id="path-5" class="cls-6" fill-rule="evenodd"/>
    <path d="M25.466,63.032 C25.466,63.032 11.534,63.032 11.534,63.032 C9.585,63.032 8.000,61.446 8.000,59.496 C8.000,59.496 8.000,55.563 8.000,55.563 C8.000,53.614 9.585,52.028 11.534,52.028 C11.534,52.028 25.466,52.028 25.466,52.028 C27.415,52.028 29.000,53.614 29.000,55.563 C29.000,55.563 29.000,59.496 29.000,59.496 C29.000,61.446 27.415,63.032 25.466,63.032 ZM11.534,55.029 C11.239,55.029 11.000,55.268 11.000,55.563 C11.000,55.563 11.000,59.496 11.000,59.496 C11.000,59.791 11.239,60.031 11.534,60.031 C11.534,60.031 25.466,60.031 25.466,60.031 C25.761,60.031 26.000,59.791 26.000,59.496 C26.000,59.496 26.000,55.563 26.000,55.563 C26.000,55.268 25.761,55.029 25.466,55.029 C25.466,55.029 11.534,55.029 11.534,55.029 Z" id="path-6" class="cls-6" fill-rule="evenodd"/>
    <path d="M24.000,38.024 C24.000,38.024 12.000,38.024 12.000,38.024 C11.172,38.024 10.500,37.352 10.500,36.523 C10.500,35.695 11.172,35.023 12.000,35.023 C12.000,35.023 24.000,35.023 24.000,35.023 C24.828,35.023 25.500,35.695 25.500,36.523 C25.500,37.352 24.828,38.024 24.000,38.024 Z" id="path-7" class="cls-6" fill-rule="evenodd"/>
    <path d="M24.000,33.022 C24.000,33.022 12.000,33.022 12.000,33.022 C11.172,33.022 10.500,32.350 10.500,31.522 C10.500,30.694 11.172,30.021 12.000,30.021 C12.000,30.021 24.000,30.021 24.000,30.021 C24.828,30.021 25.500,30.694 25.500,31.522 C25.500,32.350 24.828,33.022 24.000,33.022 Z" id="path-8" class="cls-6" fill-rule="evenodd"/>
    <path d="M20.373,12.485 C21.764,13.875 21.764,16.130 20.373,17.521 C18.983,18.911 16.729,18.911 15.340,17.521 C13.950,16.130 13.950,13.875 15.340,12.485 C16.729,11.095 18.983,11.095 20.373,12.485 Z" id="path-9" class="cls-6" fill-rule="evenodd"/>
  </g>
</svg>
