<svg xmlns="http://www.w3.org/2000/svg" xmlns:xlink="http://www.w3.org/1999/xlink" preserveAspectRatio="xMidYMid" width="39" height="64" viewBox="0 0 39 64">
  <defs>
    <style>

      .cls-3 {
        fill: #53ecf4;
      }

      .cls-4 {
        fill: #000000;
      }
    </style>
  </defs>
  <g id="group-22svg">
    <path d="M37.000,40.025 C37.000,44.445 33.418,48.027 29.000,48.027 C29.000,48.027 20.000,48.027 20.000,48.027 C15.582,48.027 12.000,44.445 12.000,40.025 C12.000,40.025 12.000,15.017 12.000,15.017 C12.000,10.597 15.582,7.015 20.000,7.015 C20.000,7.015 29.000,7.015 29.000,7.015 C33.418,7.015 37.000,10.597 37.000,15.017 C37.000,15.017 37.000,40.025 37.000,40.025 Z" id="path-1" class="cls-3" fill-rule="evenodd"/>
    <path d="M24.500,44.026 C24.500,44.026 15.500,44.026 15.500,44.026 C10.262,44.026 6.000,39.763 6.000,34.523 C6.000,34.523 6.000,9.515 6.000,9.515 C6.000,4.276 10.262,0.013 15.500,0.013 C15.500,0.013 24.500,0.013 24.500,0.013 C29.738,0.013 34.000,4.276 34.000,9.515 C34.000,9.515 34.000,34.523 34.000,34.523 C34.000,39.763 29.738,44.026 24.500,44.026 ZM15.500,3.013 C11.916,3.013 9.000,5.930 9.000,9.515 C9.000,9.515 9.000,34.523 9.000,34.523 C9.000,38.108 11.916,41.025 15.500,41.025 C15.500,41.025 24.500,41.025 24.500,41.025 C28.084,41.025 31.000,38.108 31.000,34.523 C31.000,34.523 31.000,9.515 31.000,9.515 C31.000,5.930 28.084,3.013 24.500,3.013 C24.500,3.013 15.500,3.013 15.500,3.013 Z" id="path-2" class="cls-4" fill-rule="evenodd"/>
    <path d="M24.948,52.029 C24.948,52.029 14.222,52.029 14.222,52.029 C6.513,52.029 -0.000,45.475 -0.000,37.717 C-0.000,37.717 -0.000,25.020 -0.000,25.020 C-0.000,24.192 0.671,23.520 1.500,23.520 C2.329,23.520 3.000,24.192 3.000,25.020 C3.000,25.020 3.000,37.717 3.000,37.717 C3.000,43.742 8.244,49.028 14.222,49.028 C14.222,49.028 24.948,49.028 24.948,49.028 C30.938,49.028 36.000,43.847 36.000,37.717 C36.000,37.717 36.000,25.020 36.000,25.020 C36.000,24.192 36.671,23.520 37.500,23.520 C38.329,23.520 39.000,24.192 39.000,25.020 C39.000,25.020 39.000,37.717 39.000,37.717 C39.000,45.475 32.565,52.029 24.948,52.029 Z" id="path-3" class="cls-4" fill-rule="evenodd"/>
    <path d="M20.500,62.532 C19.671,62.532 19.000,61.860 19.000,61.031 C19.000,61.031 19.000,51.028 19.000,51.028 C19.000,50.200 19.671,49.528 20.500,49.528 C21.329,49.528 22.000,50.200 22.000,51.028 C22.000,51.028 22.000,61.031 22.000,61.031 C22.000,61.860 21.329,62.532 20.500,62.532 Z" id="path-4" class="cls-4" fill-rule="evenodd"/>
    <path d="M25.000,63.032 C25.000,63.032 15.000,63.032 15.000,63.032 C14.171,63.032 13.500,62.360 13.500,61.531 C13.500,60.703 14.171,60.031 15.000,60.031 C15.000,60.031 25.000,60.031 25.000,60.031 C25.829,60.031 26.500,60.703 26.500,61.531 C26.500,62.360 25.829,63.032 25.000,63.032 Z" id="path-5" class="cls-4" fill-rule="evenodd"/>
  </g>
</svg>
