<svg xmlns="http://www.w3.org/2000/svg" xmlns:xlink="http://www.w3.org/1999/xlink" preserveAspectRatio="xMidYMid" width="39" height="64" viewBox="0 0 39 64">
  <defs>
    <style>

      .cls-3 {
        fill: #000000;
      }

      .cls-4 {
        fill: #81bda4;
      }

      .cls-5 {
        fill: #53ecf4;
      }
    </style>
  </defs>
  <g id="group-24svg">
    <path d="M25.000,63.032 C25.000,63.032 14.000,63.032 14.000,63.032 C13.171,63.032 12.500,62.360 12.500,61.531 C12.500,60.703 13.171,60.031 14.000,60.031 C14.000,60.031 25.000,60.031 25.000,60.031 C25.829,60.031 26.500,60.703 26.500,61.531 C26.500,62.360 25.829,63.032 25.000,63.032 Z" id="path-1" class="cls-3" fill-rule="evenodd"/>
    <path d="M37.000,38.024 C37.000,42.444 33.418,46.027 29.000,46.027 C29.000,46.027 21.000,46.027 21.000,46.027 C16.581,46.027 13.000,42.444 13.000,38.024 C13.000,38.024 13.000,14.017 13.000,14.017 C13.000,9.597 16.581,6.014 21.000,6.014 C21.000,6.014 29.000,6.014 29.000,6.014 C33.418,6.014 37.000,9.597 37.000,14.017 C37.000,14.017 37.000,38.024 37.000,38.024 Z" id="path-2" class="cls-4" fill-rule="evenodd"/>
    <path d="M37.000,36.024 C37.000,36.024 13.000,36.024 13.000,36.024 C13.000,36.024 13.000,16.017 13.000,16.017 C13.000,16.017 37.000,16.017 37.000,16.017 C37.000,16.017 37.000,36.024 37.000,36.024 Z" id="path-3" class="cls-5" fill-rule="evenodd"/>
    <path d="M23.500,43.026 C23.500,43.026 15.500,43.026 15.500,43.026 C10.262,43.026 6.000,38.763 6.000,33.523 C6.000,33.523 6.000,9.515 6.000,9.515 C6.000,4.276 10.262,0.013 15.500,0.013 C15.500,0.013 23.500,0.013 23.500,0.013 C28.738,0.013 33.000,4.276 33.000,9.515 C33.000,9.515 33.000,33.523 33.000,33.523 C33.000,38.763 28.738,43.026 23.500,43.026 ZM15.500,3.013 C11.916,3.013 9.000,5.930 9.000,9.515 C9.000,9.515 9.000,33.523 9.000,33.523 C9.000,37.108 11.916,40.025 15.500,40.025 C15.500,40.025 23.500,40.025 23.500,40.025 C27.084,40.025 30.000,37.108 30.000,33.523 C30.000,33.523 30.000,9.515 30.000,9.515 C30.000,5.930 27.084,3.013 23.500,3.013 C23.500,3.013 15.500,3.013 15.500,3.013 Z" id="path-4" class="cls-3" fill-rule="evenodd"/>
    <path d="M24.683,51.028 C24.683,51.028 14.017,51.028 14.017,51.028 C6.157,51.028 -0.000,45.201 -0.000,37.762 C-0.000,37.762 -0.000,25.020 -0.000,25.020 C-0.000,24.192 0.671,23.520 1.500,23.520 C2.329,23.520 3.000,24.192 3.000,25.020 C3.000,25.020 3.000,37.762 3.000,37.762 C3.000,43.518 7.839,48.027 14.017,48.027 C14.017,48.027 24.683,48.027 24.683,48.027 C31.029,48.027 36.000,43.518 36.000,37.762 C36.000,37.762 36.000,25.020 36.000,25.020 C36.000,24.192 36.671,23.520 37.500,23.520 C38.329,23.520 39.000,24.192 39.000,25.020 C39.000,25.020 39.000,37.762 39.000,37.762 C39.000,45.201 32.711,51.028 24.683,51.028 Z" id="path-5" class="cls-3" fill-rule="evenodd"/>
    <path d="M19.500,61.531 C18.671,61.531 18.000,60.859 18.000,60.031 C18.000,60.031 18.000,51.028 18.000,51.028 C18.000,50.200 18.671,49.528 19.500,49.528 C20.329,49.528 21.000,50.200 21.000,51.028 C21.000,51.028 21.000,60.031 21.000,60.031 C21.000,60.859 20.329,61.531 19.500,61.531 Z" id="path-6" class="cls-3" fill-rule="evenodd"/>
    <path d="M33.000,33.023 C33.000,33.023 6.000,33.023 6.000,33.023 C6.000,33.023 6.000,10.016 6.000,10.016 C6.000,10.016 33.000,10.016 33.000,10.016 C33.000,10.016 33.000,33.023 33.000,33.023 ZM9.000,30.022 C9.000,30.022 30.000,30.022 30.000,30.022 C30.000,30.022 30.000,13.017 30.000,13.017 C30.000,13.017 9.000,13.017 9.000,13.017 C9.000,13.017 9.000,30.022 9.000,30.022 Z" id="path-7" class="cls-3" fill-rule="evenodd"/>
    <path d="M28.378,18.149 C28.378,19.021 27.671,19.728 26.799,19.728 C25.927,19.728 25.221,19.021 25.221,18.149 C25.221,17.277 25.927,16.569 26.799,16.569 C27.671,16.569 28.378,17.277 28.378,18.149 Z" id="path-8" class="cls-3" fill-rule="evenodd"/>
    <path d="M22.062,18.149 C22.062,19.021 21.355,19.728 20.484,19.728 C19.612,19.728 18.905,19.021 18.905,18.149 C18.905,17.277 19.612,16.569 20.484,16.569 C21.355,16.569 22.062,17.277 22.062,18.149 Z" id="path-9" class="cls-3" fill-rule="evenodd"/>
    <path d="M15.747,18.149 C15.747,19.021 15.040,19.728 14.168,19.728 C13.296,19.728 12.589,19.021 12.589,18.149 C12.589,17.277 13.296,16.569 14.168,16.569 C15.040,16.569 15.747,17.277 15.747,18.149 Z" id="path-10" class="cls-3" fill-rule="evenodd"/>
    <path d="M28.378,28.679 C28.378,29.551 27.671,30.258 26.799,30.258 C25.927,30.258 25.221,29.551 25.221,28.679 C25.221,27.806 25.927,27.099 26.799,27.099 C27.671,27.099 28.378,27.806 28.378,28.679 Z" id="path-11" class="cls-3" fill-rule="evenodd"/>
    <path d="M22.062,28.679 C22.062,29.551 21.355,30.258 20.484,30.258 C19.612,30.258 18.905,29.551 18.905,28.679 C18.905,27.806 19.612,27.099 20.484,27.099 C21.355,27.099 22.062,27.806 22.062,28.679 Z" id="path-12" class="cls-3" fill-rule="evenodd"/>
    <path d="M15.747,28.679 C15.747,29.551 15.040,30.258 14.168,30.258 C13.296,30.258 12.589,29.551 12.589,28.679 C12.589,27.806 13.296,27.099 14.168,27.099 C15.040,27.099 15.747,27.806 15.747,28.679 Z" id="path-13" class="cls-3" fill-rule="evenodd"/>
    <path d="M31.536,23.414 C31.536,24.286 30.830,24.993 29.958,24.993 C29.085,24.993 28.378,24.286 28.378,23.414 C28.378,22.541 29.085,21.834 29.958,21.834 C30.830,21.834 31.536,22.541 31.536,23.414 Z" id="path-14" class="cls-3" fill-rule="evenodd"/>
    <path d="M12.589,23.414 C12.589,24.286 11.882,24.993 11.010,24.993 C10.138,24.993 9.431,24.286 9.431,23.414 C9.431,22.541 10.138,21.834 11.010,21.834 C11.882,21.834 12.589,22.541 12.589,23.414 Z" id="path-15" class="cls-3" fill-rule="evenodd"/>
    <path d="M25.221,23.414 C25.221,24.286 24.514,24.993 23.642,24.993 C22.770,24.993 22.062,24.286 22.062,23.414 C22.062,22.541 22.770,21.834 23.642,21.834 C24.514,21.834 25.221,22.541 25.221,23.414 Z" id="path-16" class="cls-3" fill-rule="evenodd"/>
    <path d="M18.905,23.414 C18.905,24.286 18.198,24.993 17.326,24.993 C16.454,24.993 15.747,24.286 15.747,23.414 C15.747,22.541 16.454,21.834 17.326,21.834 C18.198,21.834 18.905,22.541 18.905,23.414 Z" id="path-17" class="cls-3" fill-rule="evenodd"/>
  </g>
</svg>
