<?xml version="1.0" encoding="UTF-8" standalone="no"?><svg xmlns="http://www.w3.org/2000/svg" width="12" height="12" viewBox="0 0 12 12"><title>Fill 1</title><path fill="#fff" d="M9.19 1.623L6 4.813l-3.19-3.19c-.14-.141-.657-.262-1.053.134-.396.396-.275.913-.134 1.054L4.813 6l-3.19 3.19c-.141.14-.262.657.134 1.053.396.396.913.275 1.054.134L6 7.187l3.19 3.19c.14.141.657.262 1.053-.134.396-.396.275-.913.134-1.054L7.187 6l3.19-3.19c.141-.14.262-.657-.134-1.053-.396-.396-.913-.275-1.054-.134z"/></svg>