<svg width="14" height="14" viewBox="0 0 14 14" fill="none" xmlns="http://www.w3.org/2000/svg">
<path d="M13.3354 2.41525C13.2808 2.36069 13.2109 2.33326 13.1259 2.33326H10.3094L9.67134 0.811212C9.58023 0.586333 9.41614 0.394911 9.17929 0.236915C8.94221 0.0789503 8.70207 0 8.45909 0H5.54234C5.29936 0 5.05928 0.0789503 4.8223 0.236915C4.58529 0.394911 4.42123 0.586301 4.33005 0.811212L3.69203 2.33326H0.875618C0.790475 2.33326 0.720687 2.36069 0.665968 2.41525C0.611408 2.46993 0.583984 2.53985 0.583984 2.6249V3.20829C0.583984 3.29334 0.61128 3.36326 0.665968 3.41785C0.720687 3.4725 0.790602 3.49983 0.875618 3.49983H1.75055V12.177C1.75055 12.6815 1.89335 13.1113 2.17892 13.4667C2.46455 13.8223 2.80787 14 3.20895 14H10.7925C11.1936 14 11.5369 13.8162 11.8225 13.4487C12.1081 13.0809 12.2508 12.645 12.2508 12.1407V3.49983H13.1259C13.2109 3.49983 13.2808 3.4725 13.3354 3.41785C13.3899 3.36329 13.4174 3.29334 13.4174 3.20829V2.6249C13.4175 2.53985 13.39 2.46993 13.3354 2.41525ZM5.40567 1.26672C5.44816 1.21206 5.49985 1.17854 5.5606 1.16647H8.44993C8.51068 1.17864 8.56246 1.21213 8.60489 1.26672L9.04255 2.33314H4.95904L5.40567 1.26672ZM11.0842 12.1408C11.0842 12.2744 11.063 12.3975 11.0204 12.5098C10.9778 12.6222 10.9337 12.7042 10.8882 12.7559C10.8425 12.8076 10.8108 12.8333 10.7925 12.8333H3.20898C3.19075 12.8333 3.15902 12.8076 3.11333 12.7559C3.06771 12.7042 3.02362 12.6222 2.98107 12.5098C2.93857 12.3975 2.91731 12.2743 2.91731 12.1408V3.49983H11.0842V12.1408H11.0842Z" fill="#707070"/>
<path d="M4.37562 11.0834H4.95892C5.04406 11.0834 5.11401 11.0561 5.16857 11.0015C5.22313 10.9466 5.25055 10.8769 5.25055 10.7917V5.54154C5.25055 5.45652 5.22313 5.38661 5.16857 5.33189C5.11385 5.27733 5.04409 5.25 4.95892 5.25H4.37562C4.29047 5.25 4.22065 5.2773 4.16597 5.33189C4.11134 5.38661 4.08398 5.45652 4.08398 5.54154V10.7917C4.08398 10.8769 4.11125 10.9467 4.16597 11.0015C4.22065 11.0561 4.29047 11.0834 4.37562 11.0834Z" fill="#707070"/>
<path d="M6.7096 11.0834H7.2929C7.37801 11.0834 7.44792 11.0561 7.50245 11.0015C7.5573 10.9466 7.58447 10.8769 7.58447 10.7917V5.54154C7.58447 5.45652 7.55727 5.38661 7.50245 5.33189C7.44792 5.27733 7.37801 5.25 7.2929 5.25H6.7096C6.62455 5.25 6.55464 5.2773 6.49995 5.33189C6.44523 5.38661 6.41797 5.45652 6.41797 5.54154V10.7917C6.41797 10.8769 6.44523 10.9467 6.49995 11.0015C6.55461 11.0561 6.62455 11.0834 6.7096 11.0834Z" fill="#707070"/>
<path d="M9.04365 11.0834H9.62686C9.71206 11.0834 9.78198 11.0561 9.8366 11.0015C9.89123 10.9466 9.91839 10.8769 9.91839 10.7917V5.54154C9.91839 5.45652 9.89119 5.38661 9.8366 5.33189C9.78198 5.27733 9.71206 5.25 9.62686 5.25H9.04365C8.95841 5.25 8.88872 5.2773 8.83387 5.33189C8.77925 5.38661 8.75195 5.45652 8.75195 5.54154V10.7917C8.75195 10.8769 8.77925 10.9467 8.83387 11.0015C8.88872 11.0561 8.95841 11.0834 9.04365 11.0834Z" fill="#707070"/>
</svg>
