<svg width="12" height="12" viewBox="0 0 12 12" fill="none" xmlns="http://www.w3.org/2000/svg">
<path d="M11.343 5.06253H11.3437H6.93746V0.664584C6.93746 0.302634 6.64439 0 6.28244 0H5.71863C5.35678 0 5.06244 0.302634 5.06244 0.664584V5.06253H0.656293C0.294537 5.06253 0 5.35521 0 5.71726V6.28428C0 6.64604 0.294439 6.93745 0.656293 6.93745H5.06254V11.3513C5.06254 11.7131 5.35678 11.9999 5.71873 11.9999H6.28254C6.64449 11.9999 6.93756 11.713 6.93756 11.3513V6.93745H11.343C11.705 6.93745 12 6.64594 12 6.28428V5.71726C12 5.35521 11.705 5.06253 11.343 5.06253Z" fill="#808080"/>
</svg>
