<svg width="19" height="19" viewBox="0 0 19 19" fill="none" xmlns="http://www.w3.org/2000/svg">
<g clip-path="url(#clip0)">
<path d="M17.4563 2.73311C16.4594 1.73613 15.1341 1.1875 13.7241 1.1875C12.314 1.1875 10.9885 1.73613 9.99126 2.73311L9.49999 3.22448L9.00872 2.73311C8.01174 1.73613 6.68599 1.1875 5.27615 1.1875C3.86637 1.1875 2.54052 1.73613 1.54364 2.73311C-0.514548 4.7915 -0.514548 8.1406 1.54364 10.1982L8.91872 17.5733C9.0393 17.6943 9.18942 17.7685 9.34626 17.797C9.39886 17.8074 9.45175 17.8122 9.50475 17.8122C9.71338 17.8122 9.92237 17.7326 10.0813 17.5733L17.4563 10.1982C19.5146 8.1406 19.5146 4.7915 17.4563 2.73311ZM16.3033 9.04522L9.50004 15.8485L2.69666 9.04522C1.27429 7.62305 1.27429 5.3091 2.69666 3.88618C3.38563 3.19731 4.30199 2.8184 5.27615 2.8184C6.25042 2.8184 7.16653 3.19731 7.85525 3.88618L8.92348 4.95476C9.22968 5.26051 9.77069 5.26051 10.0768 4.95476L11.1447 3.88618C11.8334 3.19731 12.7496 2.8184 13.7242 2.8184C14.6984 2.8184 15.6145 3.19731 16.3033 3.88618C17.7258 5.3091 17.7258 7.623 16.3033 9.04522Z" fill="#707070"/>
</g>
<defs>
<clipPath id="clip0">
<rect width="19" height="19" fill="white" transform="matrix(1 0 0 -1 0 19)"/>
</clipPath>
</defs>
</svg>
