<?xml version="1.0" encoding="UTF-8"?>
<svg width="226.83mm" height="45.586mm" version="1.1" viewBox="0 0 226.83 45.586" xmlns="http://www.w3.org/2000/svg">
    <path d="m54.293 22.67c1.7134 0.18627 2.9482 0.19756 4.1917 0.19756 3.8347 0 5.9895-0.93804 5.9895-4.7491 0-3.2882-1.5561-4.621-5.878-4.621-1.2079 0-2.7742 0.08431-4.3032 0.29069zm0 10.954h-2.3675v-21.584c1.8976-0.31926 4.2559-0.51541 6.5592-0.51541 4.5903 0 8.3478 0.93874 8.3478 6.5931 0 5.5189-3.344 6.7201-8.0994 6.7201-1.1786 0-3.3807-0.09349-4.4401-0.14958z" fill="#656263"/>
    <path d="m54.293 22.67c1.7134 0.18627 2.9482 0.19756 4.1917 0.19756 3.8347 0 5.9895-0.93804 5.9895-4.7491 0-3.2882-1.5561-4.6214-5.878-4.6214-1.2079 0-2.7742 0.08467-4.3032 0.29104zm0 10.954h-2.3675v-21.584c1.8976-0.31926 4.2563-0.51541 6.5592-0.51541 4.5903 0 8.3478 0.93874 8.3478 6.5931 0 5.5189-3.344 6.7201-8.0994 6.7201-1.1786 0-3.3807-0.09349-4.4401-0.14958z" fill="none" stroke="#656263" stroke-width=".51576"/>
    <path d="m86.251 22.689c0-5.3622-0.23036-9.1267-5.9048-9.1267-5.6938 0-5.9062 3.7645-5.9062 9.1267 0 5.3428 0.21237 9.1242 5.9062 9.1242 5.6744 0 5.9048-3.7814 5.9048-9.1242m-14.216 0c0-7.9255 1.8341-11.162 8.3111-11.162 6.4752 0 8.3002 3.2367 8.3002 11.162 0 7.9223-1.8249 11.16-8.3002 11.16-6.477 0-8.3111-3.2381-8.3111-11.16" fill="#656263" stroke="#656263" stroke-width=".51576"/>
    <path d="m99.746 30.622 4.6263-14.76c0.35948-1.1345 0.8389-1.6228 1.6492-1.6228 0.80186 0 1.3077 0.49812 1.6492 1.6228l4.4588 14.75 4.1088-18.861h2.3036l-4.6249 20.4c-0.26706 1.1924-0.8569 1.6983-1.7043 1.6983-0.84772 0-1.3914-0.5334-1.7413-1.688l-4.5053-14.778-4.6267 14.778c-0.35913 1.1546-0.89323 1.688-1.7406 1.688-0.84772 0-1.4376-0.52388-1.7046-1.688l-4.6986-20.411h2.3957z" fill="#656263"/>
    <path d="m99.746 30.622 4.6263-14.76c0.35983-1.1345 0.8389-1.6228 1.6492-1.6228 0.80186 0 1.3077 0.49812 1.6492 1.6228l4.4588 14.75 4.1088-18.861h2.3036l-4.6249 20.4c-0.26706 1.1924-0.8569 1.6983-1.7043 1.6983-0.84772 0-1.3914-0.5334-1.7413-1.688l-4.5053-14.778-4.6267 14.778c-0.35913 1.1546-0.89323 1.688-1.7406 1.688-0.84772 0-1.4376-0.52388-1.7046-1.688l-4.6986-20.411h2.3957z" fill="none" stroke="#656263" stroke-width=".51576"/>
    <path d="m136.11 13.713h-5.3806c-3.9529 0-4.597 0.72284-4.597 4.1861v3.6064h9.5352v1.9622h-9.5352v4.0382c0 3.4526 0.64417 4.1575 4.597 4.1575h5.3806v1.9156c-1.7046 0.07479-3.6484 0.1016-5.2888 0.1016-3.6297 0-7.0563-0.18662-7.0563-4.8239v-12.319c0-4.6369 3.4265-4.8447 7.0563-4.8447 1.373 0 3.5285 0.0575 5.2888 0.13264z" fill="#656263"/>
    <path d="m136.11 13.713h-5.3806c-3.9529 0-4.597 0.72284-4.597 4.1861v3.6064h9.5352v1.9622h-9.5352v4.0382c0 3.4526 0.64417 4.1575 4.597 4.1575h5.3806v1.9156c-1.7046 0.07479-3.6484 0.1016-5.2888 0.1016-3.6297 0-7.0563-0.18662-7.0563-4.8239v-12.319c0-4.6369 3.4265-4.8447 7.0563-4.8447 1.373 0 3.5285 0.0575 5.2888 0.13264z" fill="none" stroke="#656263" stroke-width=".51576"/>
    <path d="m144.3 22.474c1.7226 0.18662 2.9475 0.1965 4.1914 0.1965 3.8061 0 5.9888-0.95673 5.9888-4.657 0-3.2568-1.5755-4.5265-5.878-4.5265-1.2072 0-2.7637 0.08572-4.3021 0.29245zm-2.3587 11.153v-21.585c1.8888-0.31962 4.2563-0.51647 6.55-0.51647 4.5607 0 8.3467 0.87524 8.3467 6.4883 0 4.2633-2.0913 5.9242-5.2786 6.4424l5.2606 9.1708h-2.7637l-4.9844-8.974h-0.33125c-1.1705 0-3.3817-0.0956-4.4408-0.1524v9.1264z" fill="#656263"/>
    <path d="m144.3 22.474c1.7226 0.18662 2.9475 0.1965 4.1914 0.1965 3.8061 0 5.9888-0.95673 5.9888-4.657 0-3.2568-1.5755-4.5265-5.878-4.5265-1.2072 0-2.7637 0.08572-4.3021 0.29245zm-2.3587 11.153v-21.585c1.8888-0.31962 4.2563-0.51647 6.55-0.51647 4.5607 0 8.3467 0.87524 8.3467 6.4883 0 4.2633-2.0913 5.9242-5.2786 6.4421l5.2606 9.1712h-2.7637l-4.9844-8.974h-0.33125c-1.1705 0-3.3817-0.0956-4.4408-0.1524v9.1264z" fill="none" stroke="#656263" stroke-width=".51576"/>
    <path d="m174.56 33.598c-1.7233 0.06421-3.3898 0.08396-4.892 0.08396-3.6389 0-7.0563-0.18732-7.0563-4.826v-17.106h2.3668v15.755c0 3.435 0.64487 4.1589 4.6066 4.1589h4.9749z" fill="#656263"/>
    <path d="m174.56 33.598c-1.7233 0.06421-3.3898 0.08396-4.892 0.08396-3.6389 0-7.0563-0.18732-7.0563-4.826v-17.106h2.3668v15.755c0 3.435 0.64487 4.1589 4.6066 4.1589h4.9749z" fill="none" stroke="#656263" stroke-width=".51576"/>
    <path d="m179.08 11.75h2.3682v21.874h-2.3682z" fill="#656263"/>
    <path d="m179.08 11.75h2.3682v21.875h-2.3682z" fill="none" stroke="#656263" stroke-width=".51576"/>
    <path d="m202.34 30.443v-18.691h2.1745v20.38c0 1.2019-0.58914 1.7177-1.4552 1.7177-0.86536 0-1.4559-0.51576-2.1008-1.5776l-10.569-17.358v18.712h-2.1738v-20.383c0-1.21 0.59866-1.718 1.4552-1.718 0.82939 0 1.4566 0.52634 2.092 1.5684z" fill="#656263"/>
    <path d="m202.34 30.443v-18.691h2.1745v20.38c0 1.2019-0.58914 1.7177-1.4552 1.7177-0.86536 0-1.4559-0.51576-2.1008-1.5776l-10.569-17.358v18.712h-2.1738v-20.383c0-1.21 0.59866-1.7184 1.4552-1.7184 0.82939 0 1.4566 0.5267 2.092 1.5688z" fill="none" stroke="#656263" stroke-width=".51576"/>
    <path d="m220.04 22.154h6.2466v8.0719c0 3.4008-2.9482 3.6244-6.9458 3.6244-6.9102 0-8.617-3.3976-8.617-11.16 0-7.8595 1.7067-11.165 8.617-11.165 2.2384 0 4.3938 0.15169 6.301 0.49848l-0.21167 1.935c-1.7046-0.23495-3.658-0.3676-5.1689-0.3676-6.5871 0-7.1205 3.1842-7.1205 9.0992 0 5.8554 0.56162 9.1055 7.1205 9.1055 3.5017 0 3.6855-1.0901 3.6855-2.6857v-5.013h-3.9067z" fill="#656263"/>
    <path d="m220.04 22.154h6.2466v8.0719c0 3.4008-2.9482 3.6244-6.9458 3.6244-6.9102 0-8.617-3.3976-8.617-11.16 0-7.8595 1.7067-11.165 8.617-11.165 2.2384 0 4.3938 0.15169 6.301 0.49848l-0.21167 1.935c-1.7046-0.23495-3.658-0.3676-5.1689-0.3676-6.5871 0-7.1205 3.1842-7.1205 9.0992 0 5.8554 0.56162 9.1055 7.1205 9.1055 3.5017 0 3.6855-1.0901 3.6855-2.6857v-5.013h-3.9067z" fill="none" stroke="#656263" stroke-width=".51576"/>
    <path d="m29.066 34.835c0.29739 0.23883-0.03457 0.63571-0.53975 0.38206-1.9145-0.96555-3.5849-2.0084-5.4211-3.4611-1.0047 0.28787-2.0637 0.44309-3.1591 0.44309-6.44 0-11.659-5.3157-11.659-11.876 0-6.5606 5.2186-11.878 11.659-11.878 6.4385 0 11.657 5.3174 11.657 11.878 0 3.4509-1.4453 6.5557-3.7532 8.7274-0.74824 3.3856 0.6537 5.3365 1.2164 5.7845m-9.1211-34.835c-10.809 0-19.602 8.7605-19.93 19.695-0.0099 0.19226-0.01517 0.39476-0.01517 0.62971 0 13.75 0.65793 22.725 0.82232 24.448 0.06703 0.68262 0.54222 0.86431 0.84702 0.15099 0.85972-2.2479 1.8979-5.9362 5.5164-7.8828 0.36442-0.19509 1.0054-0.24977 1.6866 0.18874 0.00564 0.0021 0.010583 0.0035 0.016933 0.0088 3.1655 2.1541 6.9656 3.41 11.056 3.41 11.017 0 19.947-9.102 19.947-20.324 0-11.226-8.9299-20.325-19.947-20.325" fill="#f79210"/>
    <path d="m51.478 45.209c0.30269 0.20562 0.89965 0.3684 1.4462 0.3684 1.3369 0 1.9843-0.77106 1.9843-1.6621 0-0.84817-0.48766-1.3194-1.4462-1.6963-0.78194-0.30842-1.1267-0.57401-1.1267-1.1138 0-0.3941 0.29428-0.8653 1.0678-0.8653 0.51288 0 0.89124 0.17135 1.0762 0.27415l0.20179-0.60828c-0.25224-0.14564-0.67263-0.28272-1.2528-0.28272-1.1014 0-1.8329 0.66825-1.8329 1.5678 0 0.8139 0.57174 1.3022 1.4966 1.6364 0.76512 0.29986 1.0678 0.60828 1.0678 1.148 0 0.58258-0.43721 0.98525-1.1855 0.98525-0.50448 0-0.98373-0.17135-1.3116-0.37696z" fill="#656263"/>
    <path d="m63.745 45.491h0.71467l-0.35313-5.7744h-0.93328l-1.009 2.793c-0.25224 0.72822-0.45403 1.3622-0.59696 1.9448h-0.02522c-0.14294-0.59971-0.33632-1.2337-0.57174-1.9448l-0.96691-2.793h-0.93328l-0.39517 5.7744h0.69786l0.15134-2.476c0.05044-0.8653 0.09249-1.8334 0.1093-2.5531h0.01681c0.15975 0.68539 0.38676 1.4307 0.65582 2.2446l0.91646 2.7501h0.55492l1.0005-2.8015c0.28587-0.79676 0.52129-1.5164 0.71467-2.1932h0.02522c-0.0084 0.71966 0.04204 1.6878 0.08408 2.4931z" fill="#656263"/>
    <path d="m71.355 43.675 0.60537 1.8163h0.78194l-1.9338-5.7744h-0.88283l-1.9254 5.7744h0.75671l0.58855-1.8163zm-1.8582-0.58258 0.55492-1.6706c0.1093-0.35126 0.20179-0.70252 0.28587-1.0452h0.01682c0.08408 0.33413 0.16816 0.67682 0.29428 1.0538l0.55492 1.6621z" fill="#656263"/>
    <path d="m76.492 45.491h0.73149v-2.5017h0.68945c0.66423 0.0257 0.96691 0.32556 1.1351 1.1223 0.15975 0.71966 0.28587 1.2166 0.37836 1.3793h0.75671c-0.11771-0.22275-0.25224-0.77963-0.43721-1.585-0.13453-0.59971-0.39517-1.0109-0.83238-1.1652v-0.0257c0.59696-0.20562 1.0678-0.71109 1.0678-1.4736 0-0.4455-0.15975-0.8396-0.44562-1.0966-0.35313-0.32556-0.85761-0.4712-1.6395-0.4712-0.50448 0-1.0342 0.04284-1.4041 0.11994zm0.73149-5.1747c0.11771-0.03427 0.36995-0.06854 0.72308-0.06854 0.77353 0.0086 1.3032 0.33413 1.3032 1.0795 0 0.65969-0.49607 1.0966-1.278 1.0966h-0.74831z" fill="#656263"/>
    <path d="m85.093 45.491h0.7399v-5.1404h1.732v-0.63398h-4.1956v0.63398h1.7236z" fill="#656263"/>
    <path d="m95.83 45.491h3.153v-0.62542h-2.4215v-5.149h-0.73149z" fill="#656263"/>
    <path d="m105.65 43.675 0.60537 1.8163h0.78194l-1.9338-5.7744h-0.88283l-1.9254 5.7744h0.75671l0.58856-1.8163zm-1.8582-0.58258 0.55492-1.6706c0.1093-0.35126 0.20179-0.70252 0.28587-1.0452h0.0168c0.0841 0.33413 0.16816 0.67682 0.29428 1.0538l0.55492 1.6621z" fill="#656263"/>
    <path d="m111.48 45.491v-2.4674c0-0.95954-0.0168-1.6535-0.0589-2.3817l0.0252-0.0086c0.28587 0.62542 0.66423 1.2851 1.0594 1.9277l1.7993 2.93h0.7399v-5.7744h-0.68946v2.416c0 0.89957 0.0168 1.6021 0.0841 2.3732l-0.0168 0.0086c-0.26905-0.59115-0.59696-1.1994-1.0174-1.8762l-1.8161-2.9215h-0.79875v5.7744z" fill="#656263"/>
    <path d="m123.56 42.459h-1.8666v0.59971h1.1519v1.722c-0.16816 0.08567-0.49607 0.15421-0.97532 0.15421-1.32 0-2.1861-0.8653-2.1861-2.3303 0-1.4479 0.89964-2.3218 2.2785-2.3218 0.57175 0 0.95011 0.11138 1.2528 0.24845l0.17657-0.60828c-0.24383-0.11994-0.75671-0.26559-1.4125-0.26559-1.9002 0-3.0605 1.2594-3.0689 2.9814 0 0.89957 0.30269 1.6706 0.79035 2.1504 0.55492 0.53974 1.2612 0.76249 2.1188 0.76249 0.76512 0 1.4125-0.19705 1.7404-0.31699z" fill="#656263"/>
    <path d="m127.59 39.717v3.4012c0 1.7906 0.87442 2.4674 2.0347 2.4674 1.2276 0 2.144-0.72822 2.144-2.5017v-3.367h-0.7399v3.4184c0 1.2765-0.53811 1.842-1.3789 1.842-0.75672 0-1.32-0.54831-1.32-1.842v-3.4184z" fill="#656263"/>
    <path d="m138.6 43.675 0.60537 1.8163h0.78194l-1.9338-5.7744h-0.88283l-1.9254 5.7744h0.75671l0.58856-1.8163zm-1.8582-0.58258 0.55493-1.6706c0.1093-0.35126 0.20179-0.70252 0.28587-1.0452h0.0168c0.0841 0.33413 0.16816 0.67682 0.29428 1.0538l0.55493 1.6621z" fill="#656263"/>
    <path d="m147.93 42.459h-1.8666v0.59971h1.1519v1.722c-0.16816 0.08567-0.49607 0.15421-0.97532 0.15421-1.32 0-2.1861-0.8653-2.1861-2.3303 0-1.4479 0.89965-2.3218 2.2786-2.3218 0.57173 0 0.95009 0.11138 1.2528 0.24845l0.17656-0.60828c-0.24383-0.11994-0.75671-0.26559-1.4125-0.26559-1.9002 0-3.0605 1.2594-3.0689 2.9814 0 0.89957 0.30268 1.6706 0.79034 2.1504 0.55492 0.53974 1.2612 0.76249 2.1188 0.76249 0.76512 0 1.4125-0.19705 1.7404-0.31699z" fill="#656263"/>
    <path d="m154.9 42.167h-2.2029v-1.8248h2.329v-0.62542h-3.0605v5.7744h3.1866v-0.62542h-2.4551v-2.0819h2.2029z" fill="#656263"/>
    <path d="m163.45 45.209c0.30268 0.20562 0.89965 0.3684 1.4462 0.3684 1.3369 0 1.9843-0.77106 1.9843-1.6621 0-0.84817-0.48767-1.3194-1.4462-1.6963-0.78194-0.30842-1.1267-0.57401-1.1267-1.1138 0-0.3941 0.29428-0.8653 1.0678-0.8653 0.51288 0 0.89124 0.17135 1.0762 0.27415l0.20178-0.60828c-0.25224-0.14564-0.67263-0.28272-1.2528-0.28272-1.1014 0-1.8329 0.66825-1.8329 1.5678 0 0.8139 0.57175 1.3022 1.4966 1.6364 0.76512 0.29986 1.0678 0.60828 1.0678 1.148 0 0.58258-0.43721 0.98525-1.1855 0.98525-0.50447 0-0.98373-0.17135-1.3116-0.37696z" fill="#656263"/>
    <path d="m173.1 39.623c-1.5134 0-2.6317 1.1994-2.6317 3.0328 0 1.7477 1.051 2.93 2.5476 2.93 1.4462 0 2.6317-1.0538 2.6317-3.0414 0-1.7135-1.0005-2.9215-2.5476-2.9215zm-0.0337 0.60828c1.2192 0 1.8077 1.1994 1.8077 2.3475 0 1.3108-0.65582 2.3989-1.8161 2.3989-1.1519 0-1.8077-1.1052-1.8077-2.3389 0-1.268 0.60537-2.4074 1.8161-2.4074z" fill="#656263"/>
    <path d="m179.52 45.491h3.153v-0.62542h-2.4215v-5.149h-0.73149z" fill="#656263"/>
    <path d="m186.1 39.717v3.4012c0 1.7906 0.87442 2.4674 2.0347 2.4674 1.2276 0 2.144-0.72822 2.144-2.5017v-3.367h-0.7399v3.4184c0 1.2765-0.53811 1.842-1.3789 1.842-0.75672 0-1.32-0.54831-1.32-1.842v-3.4184z" fill="#656263"/>
    <path d="m195.55 45.491h0.7399v-5.1404h1.732v-0.63398h-4.1956v0.63398h1.7236z" fill="#656263"/>
    <path d="m201.57 39.717v5.7744h0.73149v-5.7744z" fill="#656263"/>
    <path d="m208.8 39.623c-1.5134 0-2.6317 1.1994-2.6317 3.0328 0 1.7477 1.051 2.93 2.5476 2.93 1.4462 0 2.6317-1.0538 2.6317-3.0414 0-1.7135-1.0005-2.9215-2.5476-2.9215zm-0.0337 0.60828c1.2192 0 1.8077 1.1994 1.8077 2.3475 0 1.3108-0.65581 2.3989-1.8161 2.3989-1.1519 0-1.8077-1.1052-1.8077-2.3389 0-1.268 0.60538-2.4074 1.8161-2.4074z" fill="#656263"/>
    <path d="m215.91 45.491v-2.4674c0-0.95954-0.0169-1.6535-0.0589-2.3817l0.0253-0.0086c0.28587 0.62542 0.66422 1.2851 1.0594 1.9277l1.7993 2.93h0.7399v-5.7744h-0.68946v2.416c0 0.89957 0.0168 1.6021 0.0841 2.3732l-0.0168 0.0086c-0.26905-0.59115-0.59697-1.1994-1.0174-1.8762l-1.8161-2.9215h-0.79875v5.7744z" fill="#656263"/>
    <path d="m223.4 45.209c0.30268 0.20562 0.89964 0.3684 1.4462 0.3684 1.3369 0 1.9843-0.77106 1.9843-1.6621 0-0.84817-0.48766-1.3194-1.4462-1.6963-0.78193-0.30842-1.1267-0.57401-1.1267-1.1138 0-0.3941 0.29428-0.8653 1.0678-0.8653 0.51288 0 0.89124 0.17135 1.0762 0.27415l0.2018-0.60828c-0.25224-0.14564-0.67264-0.28272-1.2528-0.28272-1.1014 0-1.8329 0.66825-1.8329 1.5678 0 0.8139 0.57173 1.3022 1.4966 1.6364 0.76512 0.29986 1.0678 0.60828 1.0678 1.148 0 0.58258-0.43722 0.98525-1.1855 0.98525-0.50448 0-0.98372-0.17135-1.3116-0.37696z" fill="#656263"/>
</svg>

