<svg xmlns="http://www.w3.org/2000/svg" xmlns:xlink="http://www.w3.org/1999/xlink" preserveAspectRatio="xMidYMid" width="46" height="65" viewBox="0 0 46 65">
  <defs>
    <style>

      .cls-3 {
        fill: #81bda4;
      }

      .cls-4 {
        fill: #000000;
      }
    </style>
  </defs>
  <g id="group-9svg">
    <path d="M24.975,3.493 C24.975,3.493 7.507,12.956 7.507,12.956 C5.682,13.945 6.383,16.728 8.459,16.728 C8.459,16.728 17.056,16.728 17.056,16.728 C17.056,16.728 4.569,61.219 4.569,61.219 C4.212,62.495 5.170,63.761 6.495,63.761 C6.495,63.761 11.115,63.761 11.115,63.761 C11.115,63.761 38.834,63.761 38.834,63.761 C38.834,63.761 43.454,63.761 43.454,63.761 C44.779,63.761 45.737,62.495 45.380,61.219 C45.380,61.219 32.894,16.728 32.894,16.728 C32.894,16.728 41.490,16.728 41.490,16.728 C43.566,16.728 44.268,13.945 42.442,12.956 C42.442,12.956 24.975,3.493 24.975,3.493 Z" id="path-1" class="cls-3" fill-rule="evenodd"/>
    <path d="M40.454,62.760 C40.454,62.760 3.495,62.760 3.495,62.760 C2.391,62.760 1.374,62.255 0.706,61.375 C0.039,60.493 -0.173,59.377 0.125,58.312 C0.125,58.312 12.076,15.727 12.076,15.727 C12.076,15.727 5.459,15.727 5.459,15.727 C3.810,15.727 2.443,14.700 2.057,13.171 C1.678,11.673 2.376,10.152 3.793,9.385 C3.793,9.385 21.275,0.163 21.275,0.163 C21.713,-0.067 22.236,-0.067 22.674,0.163 C22.674,0.163 40.142,9.377 40.142,9.377 C41.573,10.152 42.271,11.673 41.893,13.171 C41.506,14.700 40.139,15.727 38.490,15.727 C38.490,15.727 31.873,15.727 31.873,15.727 C31.873,15.727 43.824,58.311 43.824,58.311 C44.122,59.377 43.910,60.493 43.243,61.375 C42.575,62.255 41.559,62.760 40.454,62.760 ZM21.975,3.188 C21.975,3.188 5.206,12.032 5.206,12.032 C4.905,12.196 4.950,12.375 4.965,12.434 C4.993,12.543 5.094,12.725 5.459,12.725 C5.459,12.725 14.056,12.725 14.056,12.725 C14.525,12.725 14.968,12.945 15.251,13.320 C15.535,13.694 15.627,14.180 15.500,14.632 C15.500,14.632 3.014,59.122 3.014,59.122 C2.955,59.331 3.041,59.486 3.097,59.560 C3.153,59.634 3.279,59.758 3.495,59.758 C3.495,59.758 40.454,59.758 40.454,59.758 C40.670,59.758 40.796,59.634 40.853,59.560 C40.908,59.486 40.994,59.331 40.936,59.122 C40.936,59.122 28.449,14.632 28.449,14.632 C28.322,14.180 28.414,13.694 28.698,13.320 C28.981,12.945 29.424,12.725 29.894,12.725 C29.894,12.725 38.490,12.725 38.490,12.725 C38.855,12.725 38.956,12.543 38.984,12.434 C38.999,12.375 39.044,12.196 38.728,12.025 C38.728,12.025 21.975,3.188 21.975,3.188 Z" id="path-2" class="cls-4" fill-rule="evenodd"/>
    <path d="M21.875,23.232 C21.047,23.232 20.375,22.560 20.375,21.731 C20.375,21.731 20.375,15.727 20.375,15.727 C20.375,14.898 21.047,14.226 21.875,14.226 C22.703,14.226 23.375,14.898 23.375,15.727 C23.375,15.727 23.375,21.731 23.375,21.731 C23.375,22.560 22.703,23.232 21.875,23.232 Z" id="path-3" class="cls-4" fill-rule="evenodd"/>
    <path d="M21.875,41.245 C21.047,41.245 20.375,40.573 20.375,39.744 C20.375,39.744 20.375,30.738 20.375,30.738 C20.375,29.908 21.047,29.237 21.875,29.237 C22.703,29.237 23.375,29.908 23.375,30.738 C23.375,30.738 23.375,39.744 23.375,39.744 C23.375,40.573 22.703,41.245 21.875,41.245 Z" id="path-4" class="cls-4" fill-rule="evenodd"/>
    <path d="M21.875,57.256 C21.047,57.256 20.375,56.585 20.375,55.755 C20.375,55.755 20.375,49.751 20.375,49.751 C20.375,48.922 21.047,48.250 21.875,48.250 C22.703,48.250 23.375,48.922 23.375,49.751 C23.375,49.751 23.375,55.755 23.375,55.755 C23.375,56.585 22.703,57.256 21.875,57.256 Z" id="path-5" class="cls-4" fill-rule="evenodd"/>
  </g>
</svg>
