<svg xmlns="http://www.w3.org/2000/svg" xmlns:xlink="http://www.w3.org/1999/xlink" preserveAspectRatio="xMidYMid" width="64" height="53" viewBox="0 0 64 53">
  <defs>
    <style>

      .cls-3 {
        fill: #53ecf4;
      }

      .cls-4 {
        fill: #e56a77;
      }

      .cls-8 {
        fill: #000000;
      }
    </style>
  </defs>
  <g id="group-20svg">
    <path d="M57.000,46.031 C57.000,46.031 60.000,46.031 60.000,46.031 C62.209,46.031 64.000,44.239 64.000,42.029 C64.000,42.029 64.000,7.004 64.000,7.004 C64.000,4.793 62.209,3.001 60.000,3.001 C60.000,3.001 8.000,3.001 8.000,3.001 C5.800,3.001 4.000,4.802 4.000,7.004 C4.000,7.004 4.000,42.029 4.000,42.029 C4.000,44.230 5.800,46.031 8.000,46.031 C8.000,46.031 11.000,46.031 11.000,46.031 C11.000,46.031 11.000,46.031 11.000,46.031 " id="path-1" class="cls-3" fill-rule="evenodd"/>
    <path d="M56.921,47.144 C56.921,49.508 55.006,51.424 52.644,51.424 C50.281,51.424 48.366,49.508 48.366,47.144 C48.366,44.780 50.281,42.864 52.644,42.864 C55.006,42.864 56.921,44.780 56.921,47.144 Z" id="path-2" class="cls-4" fill-rule="evenodd"/>
    <path d="M20.714,47.144 C20.714,49.508 18.799,51.424 16.436,51.424 C14.074,51.424 12.159,49.508 12.159,47.144 C12.159,44.780 14.074,42.864 16.436,42.864 C18.799,42.864 20.714,44.780 20.714,47.144 Z" id="path-3" class="cls-4" fill-rule="evenodd"/>
    <path d="M55.000,11.007 C55.000,9.901 54.104,9.005 53.000,9.005 C53.000,9.005 14.000,9.005 14.000,9.005 C12.895,9.005 12.000,9.901 12.000,11.007 C12.000,11.007 12.000,17.011 12.000,17.011 C12.000,18.116 12.895,19.012 14.000,19.012 C14.000,19.012 53.000,19.012 53.000,19.012 C54.104,19.012 55.000,18.116 55.000,17.011 C55.000,17.011 55.000,11.007 55.000,11.007 Z" id="path-4" class="cls-4" fill-rule="evenodd"/>
    <path d="M55.000,28.019 C55.000,26.913 54.104,26.017 53.000,26.017 C53.000,26.017 14.000,26.017 14.000,26.017 C12.895,26.017 12.000,26.913 12.000,28.019 C12.000,28.019 12.000,34.023 12.000,34.023 C12.000,35.128 12.895,36.024 14.000,36.024 C14.000,36.024 53.000,36.024 53.000,36.024 C54.104,36.024 55.000,35.128 55.000,34.023 C55.000,34.023 55.000,28.019 55.000,28.019 Z" id="path-5" class="cls-4" fill-rule="evenodd"/>
    <path d="M50.500,19.012 C50.500,19.012 11.500,19.012 11.500,19.012 C9.570,19.012 8.000,17.441 8.000,15.510 C8.000,15.510 8.000,9.506 8.000,9.506 C8.000,7.575 9.570,6.003 11.500,6.003 C11.500,6.003 50.500,6.003 50.500,6.003 C52.430,6.003 54.000,7.575 54.000,9.506 C54.000,9.506 54.000,15.510 54.000,15.510 C54.000,17.441 52.430,19.012 50.500,19.012 ZM11.500,9.005 C11.225,9.005 11.000,9.229 11.000,9.506 C11.000,9.506 11.000,15.510 11.000,15.510 C11.000,15.786 11.225,16.010 11.500,16.010 C11.500,16.010 50.500,16.010 50.500,16.010 C50.775,16.010 51.000,15.786 51.000,15.510 C51.000,15.510 51.000,9.506 51.000,9.506 C51.000,9.229 50.775,9.005 50.500,9.005 C50.500,9.005 11.500,9.005 11.500,9.005 Z" id="path-6" class="cls-8" fill-rule="evenodd"/>
    <path d="M50.500,36.024 C50.500,36.024 11.500,36.024 11.500,36.024 C9.570,36.024 8.000,34.453 8.000,32.522 C8.000,32.522 8.000,26.518 8.000,26.518 C8.000,24.587 9.570,23.015 11.500,23.015 C11.500,23.015 50.500,23.015 50.500,23.015 C52.430,23.015 54.000,24.587 54.000,26.518 C54.000,26.518 54.000,32.522 54.000,32.522 C54.000,34.453 52.430,36.024 50.500,36.024 ZM11.500,26.017 C11.225,26.017 11.000,26.242 11.000,26.518 C11.000,26.518 11.000,32.522 11.000,32.522 C11.000,32.798 11.225,33.022 11.500,33.022 C11.500,33.022 50.500,33.022 50.500,33.022 C50.775,33.022 51.000,32.798 51.000,32.522 C51.000,32.522 51.000,26.518 51.000,26.518 C51.000,26.242 50.775,26.017 50.500,26.017 C50.500,26.017 11.500,26.017 11.500,26.017 Z" id="path-7" class="cls-8" fill-rule="evenodd"/>
    <path d="M57.500,46.031 C57.500,46.031 54.000,46.031 54.000,46.031 C53.172,46.031 52.500,45.360 52.500,44.530 C52.500,43.701 53.172,43.029 54.000,43.029 C54.000,43.029 57.500,43.029 57.500,43.029 C58.879,43.029 60.000,41.907 60.000,40.528 C60.000,40.528 60.000,5.503 60.000,5.503 C60.000,4.123 58.879,3.001 57.500,3.001 C57.500,3.001 5.500,3.001 5.500,3.001 C4.121,3.001 3.000,4.123 3.000,5.503 C3.000,5.503 3.000,40.528 3.000,40.528 C3.000,41.907 4.121,43.029 5.500,43.029 C5.500,43.029 8.000,43.029 8.000,43.029 C8.828,43.029 9.500,43.701 9.500,44.530 C9.500,45.360 8.828,46.031 8.000,46.031 C8.000,46.031 5.500,46.031 5.500,46.031 C2.468,46.031 -0.000,43.562 -0.000,40.528 C-0.000,40.528 -0.000,5.503 -0.000,5.503 C-0.000,2.468 2.468,-0.001 5.500,-0.001 C5.500,-0.001 57.500,-0.001 57.500,-0.001 C60.532,-0.001 63.000,2.468 63.000,5.503 C63.000,5.503 63.000,40.528 63.000,40.528 C63.000,43.562 60.532,46.031 57.500,46.031 Z" id="path-8" class="cls-8" fill-rule="evenodd"/>
    <path d="M44.000,46.031 C44.000,46.031 18.000,46.031 18.000,46.031 C17.172,46.031 16.500,45.360 16.500,44.530 C16.500,43.701 17.172,43.029 18.000,43.029 C18.000,43.029 44.000,43.029 44.000,43.029 C44.828,43.029 45.500,43.701 45.500,44.530 C45.500,45.360 44.828,46.031 44.000,46.031 Z" id="path-9" class="cls-8" fill-rule="evenodd"/>
    <path d="M49.644,51.925 C46.458,51.925 43.866,49.331 43.866,46.143 C43.866,42.956 46.458,40.362 49.644,40.362 C52.829,40.362 55.421,42.956 55.421,46.143 C55.421,49.331 52.829,51.925 49.644,51.925 ZM49.644,43.364 C48.112,43.364 46.866,44.611 46.866,46.143 C46.866,47.676 48.112,48.923 49.644,48.923 C51.175,48.923 52.421,47.676 52.421,46.143 C52.421,44.611 51.175,43.364 49.644,43.364 Z" id="path-10" class="cls-8" fill-rule="evenodd"/>
    <path d="M13.436,51.925 C10.251,51.925 7.659,49.331 7.659,46.143 C7.659,42.956 10.251,40.362 13.436,40.362 C16.622,40.362 19.214,42.956 19.214,46.143 C19.214,49.331 16.622,51.925 13.436,51.925 ZM13.436,43.364 C11.905,43.364 10.659,44.611 10.659,46.143 C10.659,47.676 11.905,48.923 13.436,48.923 C14.968,48.923 16.214,47.676 16.214,46.143 C16.214,44.611 14.968,43.364 13.436,43.364 Z" id="path-11" class="cls-8" fill-rule="evenodd"/>
    <path d="M60.000,37.025 C60.000,37.025 57.000,37.025 57.000,37.025 C56.172,37.025 55.500,36.353 55.500,35.524 C55.500,34.695 56.172,34.023 57.000,34.023 C57.000,34.023 60.000,34.023 60.000,34.023 C60.828,34.023 61.500,34.695 61.500,35.524 C61.500,36.353 60.828,37.025 60.000,37.025 Z" id="path-12" class="cls-8" fill-rule="evenodd"/>
    <path d="M43.500,34.523 C42.672,34.523 42.000,33.851 42.000,33.022 C42.000,33.022 42.000,26.017 42.000,26.017 C42.000,25.188 42.672,24.516 43.500,24.516 C44.328,24.516 45.000,25.188 45.000,26.017 C45.000,26.017 45.000,33.022 45.000,33.022 C45.000,33.851 44.328,34.523 43.500,34.523 Z" id="path-13" class="cls-8" fill-rule="evenodd"/>
    <path d="M36.500,34.523 C35.672,34.523 35.000,33.851 35.000,33.022 C35.000,33.022 35.000,26.017 35.000,26.017 C35.000,25.188 35.672,24.516 36.500,24.516 C37.328,24.516 38.000,25.188 38.000,26.017 C38.000,26.017 38.000,33.022 38.000,33.022 C38.000,33.851 37.328,34.523 36.500,34.523 Z" id="path-14" class="cls-8" fill-rule="evenodd"/>
    <path d="M29.500,34.523 C28.672,34.523 28.000,33.851 28.000,33.022 C28.000,33.022 28.000,26.017 28.000,26.017 C28.000,25.188 28.672,24.516 29.500,24.516 C30.328,24.516 31.000,25.188 31.000,26.017 C31.000,26.017 31.000,33.022 31.000,33.022 C31.000,33.851 30.328,34.523 29.500,34.523 Z" id="path-15" class="cls-8" fill-rule="evenodd"/>
    <path d="M23.500,34.523 C22.672,34.523 22.000,33.851 22.000,33.022 C22.000,33.022 22.000,26.017 22.000,26.017 C22.000,25.188 22.672,24.516 23.500,24.516 C24.328,24.516 25.000,25.188 25.000,26.017 C25.000,26.017 25.000,33.022 25.000,33.022 C25.000,33.851 24.328,34.523 23.500,34.523 Z" id="path-16" class="cls-8" fill-rule="evenodd"/>
    <path d="M15.500,34.523 C14.672,34.523 14.000,33.851 14.000,33.022 C14.000,33.022 14.000,26.017 14.000,26.017 C14.000,25.188 14.672,24.516 15.500,24.516 C16.328,24.516 17.000,25.188 17.000,26.017 C17.000,26.017 17.000,33.022 17.000,33.022 C17.000,33.851 16.328,34.523 15.500,34.523 Z" id="path-17" class="cls-8" fill-rule="evenodd"/>
    <path d="M43.500,18.512 C42.672,18.512 42.000,17.840 42.000,17.011 C42.000,17.011 42.000,9.005 42.000,9.005 C42.000,8.176 42.672,7.504 43.500,7.504 C44.328,7.504 45.000,8.176 45.000,9.005 C45.000,9.005 45.000,17.011 45.000,17.011 C45.000,17.840 44.328,18.512 43.500,18.512 Z" id="path-18" class="cls-8" fill-rule="evenodd"/>
    <path d="M36.500,18.512 C35.672,18.512 35.000,17.840 35.000,17.011 C35.000,17.011 35.000,9.005 35.000,9.005 C35.000,8.176 35.672,7.504 36.500,7.504 C37.328,7.504 38.000,8.176 38.000,9.005 C38.000,9.005 38.000,17.011 38.000,17.011 C38.000,17.840 37.328,18.512 36.500,18.512 Z" id="path-19" class="cls-8" fill-rule="evenodd"/>
    <path d="M29.500,18.512 C28.672,18.512 28.000,17.840 28.000,17.011 C28.000,17.011 28.000,9.005 28.000,9.005 C28.000,8.176 28.672,7.504 29.500,7.504 C30.328,7.504 31.000,8.176 31.000,9.005 C31.000,9.005 31.000,17.011 31.000,17.011 C31.000,17.840 30.328,18.512 29.500,18.512 Z" id="path-20" class="cls-8" fill-rule="evenodd"/>
    <path d="M23.500,18.512 C22.672,18.512 22.000,17.840 22.000,17.011 C22.000,17.011 22.000,9.005 22.000,9.005 C22.000,8.176 22.672,7.504 23.500,7.504 C24.328,7.504 25.000,8.176 25.000,9.005 C25.000,9.005 25.000,17.011 25.000,17.011 C25.000,17.840 24.328,18.512 23.500,18.512 Z" id="path-21" class="cls-8" fill-rule="evenodd"/>
    <path d="M15.500,18.512 C14.672,18.512 14.000,17.840 14.000,17.011 C14.000,17.011 14.000,9.005 14.000,9.005 C14.000,8.176 14.672,7.504 15.500,7.504 C16.328,7.504 17.000,8.176 17.000,9.005 C17.000,9.005 17.000,17.011 17.000,17.011 C17.000,17.840 16.328,18.512 15.500,18.512 Z" id="path-22" class="cls-8" fill-rule="evenodd"/>
  </g>
</svg>
