<svg xmlns="http://www.w3.org/2000/svg" xmlns:xlink="http://www.w3.org/1999/xlink" preserveAspectRatio="xMidYMid" width="64" height="58" viewBox="0 0 64 58">
  <defs>
    <style>

      .cls-3 {
        fill: #ff917b;
      }

      .cls-4 {
        fill: #edc951;
      }

      .cls-7 {
        fill: #53ecf4;
      }

      .cls-9 {
        fill: #000000;
      }
    </style>
  </defs>
  <g id="group-15svg">
    <path d="M17.088,12.005 C17.088,12.005 49.770,12.005 49.770,12.005 C55.232,12.005 58.548,43.862 58.548,43.862 C58.429,46.671 56.119,49.031 53.309,49.031 C53.309,49.031 13.553,49.031 13.553,49.031 C10.742,49.031 8.431,46.668 8.313,43.858 C8.313,43.858 11.626,12.005 17.088,12.005 Z" id="path-1" class="cls-3" fill-rule="evenodd"/>
    <path d="M12.687,49.031 C12.687,49.031 12.687,53.034 12.687,53.034 C12.687,55.236 14.487,57.037 16.687,57.037 C16.687,57.037 18.687,57.037 18.687,57.037 C20.896,57.037 22.687,55.245 22.687,53.034 C22.687,53.034 22.687,49.031 22.687,49.031 C22.687,49.031 12.687,49.031 12.687,49.031 Z" id="path-2" class="cls-4" fill-rule="evenodd"/>
    <path d="M41.687,49.031 C41.687,49.031 41.687,53.034 41.687,53.034 C41.687,55.236 43.487,57.037 45.687,57.037 C45.687,57.037 48.687,57.037 48.687,57.037 C50.896,57.037 52.687,55.245 52.687,53.034 C52.687,53.034 52.687,49.031 52.687,49.031 C52.687,49.031 41.687,49.031 41.687,49.031 Z" id="path-3" class="cls-4" fill-rule="evenodd"/>
    <path d="M22.687,12.005 C22.687,12.005 41.687,12.005 41.687,12.005 C41.687,12.005 41.687,9.003 41.687,9.003 C41.687,6.251 39.437,4.000 36.687,4.000 C36.687,4.000 27.687,4.000 27.687,4.000 C24.937,4.000 22.687,6.251 22.687,9.003 C22.687,9.003 22.687,12.005 22.687,12.005 Z" id="path-4" class="cls-4" fill-rule="evenodd"/>
    <path d="M63.514,26.132 C63.514,24.633 62.300,23.419 60.802,23.419 C59.304,23.419 56.703,26.021 56.703,27.520 C56.703,29.019 59.304,28.846 60.802,28.846 C62.300,28.846 63.514,27.631 63.514,26.132 Z" id="path-5" class="cls-7" fill-rule="evenodd"/>
    <path d="M3.514,26.132 C3.514,24.633 4.728,23.419 6.226,23.419 C7.724,23.419 10.325,26.021 10.325,27.520 C10.325,29.019 7.724,28.846 6.226,28.846 C4.728,28.846 3.514,27.631 3.514,26.132 Z" id="path-6" class="cls-7" fill-rule="evenodd"/>
    <path d="M51.309,48.031 C51.309,48.031 11.553,48.031 11.553,48.031 C7.990,48.031 4.967,45.065 4.815,41.419 C4.812,41.346 4.814,41.273 4.822,41.201 C4.830,41.121 5.674,33.083 7.179,25.150 C10.046,10.039 12.786,8.002 15.088,8.002 C15.088,8.002 47.770,8.002 47.770,8.002 C50.072,8.002 52.812,10.040 55.681,25.152 C57.187,33.086 58.032,41.124 58.040,41.205 C58.048,41.277 58.050,41.351 58.047,41.423 C57.893,45.067 54.870,48.031 51.309,48.031 ZM7.818,41.394 C7.953,43.407 9.608,45.029 11.553,45.029 C11.553,45.029 51.309,45.029 51.309,45.029 C53.251,45.029 54.907,43.409 55.044,41.398 C53.398,25.689 49.998,11.501 47.756,11.004 C47.756,11.004 15.088,11.004 15.088,11.004 C12.860,11.501 9.462,25.688 7.818,41.394 Z" id="path-7" class="cls-9" fill-rule="evenodd"/>
    <path d="M53.687,29.017 C53.687,29.017 8.687,29.017 8.687,29.017 C8.135,29.017 7.687,28.569 7.687,28.017 C7.687,27.464 8.135,27.016 8.687,27.016 C8.687,27.016 53.687,27.016 53.687,27.016 C54.240,27.016 54.687,27.464 54.687,28.017 C54.687,28.569 54.240,29.017 53.687,29.017 Z" id="path-8" class="cls-9" fill-rule="evenodd"/>
    <path d="M17.187,56.036 C17.187,56.036 15.187,56.036 15.187,56.036 C12.155,56.036 9.687,53.567 9.687,50.533 C9.687,50.533 9.687,46.530 9.687,46.530 C9.687,45.700 10.359,45.029 11.187,45.029 C11.187,45.029 21.187,45.029 21.187,45.029 C22.016,45.029 22.687,45.700 22.687,46.530 C22.687,46.530 22.687,50.533 22.687,50.533 C22.687,53.567 20.220,56.036 17.187,56.036 ZM12.687,48.031 C12.687,48.031 12.687,50.533 12.687,50.533 C12.687,51.912 13.809,53.034 15.187,53.034 C15.187,53.034 17.187,53.034 17.187,53.034 C18.566,53.034 19.687,51.912 19.687,50.533 C19.687,50.533 19.687,48.031 19.687,48.031 C19.687,48.031 12.687,48.031 12.687,48.031 Z" id="path-9" class="cls-9" fill-rule="evenodd"/>
    <path d="M47.187,56.036 C47.187,56.036 44.187,56.036 44.187,56.036 C41.155,56.036 38.687,53.567 38.687,50.533 C38.687,50.533 38.687,46.530 38.687,46.530 C38.687,45.700 39.359,45.029 40.187,45.029 C40.187,45.029 51.187,45.029 51.187,45.029 C52.016,45.029 52.687,45.700 52.687,46.530 C52.687,46.530 52.687,50.533 52.687,50.533 C52.687,53.567 50.220,56.036 47.187,56.036 ZM41.687,48.031 C41.687,48.031 41.687,50.533 41.687,50.533 C41.687,51.912 42.809,53.034 44.187,53.034 C44.187,53.034 47.187,53.034 47.187,53.034 C48.566,53.034 49.687,51.912 49.687,50.533 C49.687,50.533 49.687,48.031 49.687,48.031 C49.687,48.031 41.687,48.031 41.687,48.031 Z" id="path-10" class="cls-9" fill-rule="evenodd"/>
    <path d="M40.187,11.004 C40.187,11.004 21.187,11.004 21.187,11.004 C20.359,11.004 19.687,10.333 19.687,9.503 C19.687,9.503 19.687,6.501 19.687,6.501 C19.687,2.915 22.603,-0.003 26.187,-0.003 C26.187,-0.003 35.187,-0.003 35.187,-0.003 C38.771,-0.003 41.687,2.915 41.687,6.501 C41.687,6.501 41.687,9.503 41.687,9.503 C41.687,10.333 41.016,11.004 40.187,11.004 ZM22.687,8.002 C22.687,8.002 38.687,8.002 38.687,8.002 C38.687,8.002 38.687,6.501 38.687,6.501 C38.687,4.570 37.117,2.999 35.187,2.999 C35.187,2.999 26.187,2.999 26.187,2.999 C24.258,2.999 22.687,4.570 22.687,6.501 C22.687,6.501 22.687,8.002 22.687,8.002 Z" id="path-11" class="cls-9" fill-rule="evenodd"/>
    <path d="M57.868,28.352 C56.714,28.352 53.203,28.352 53.203,25.519 C53.203,23.215 56.500,19.916 58.802,19.916 C61.124,19.916 63.014,21.807 63.014,24.131 C63.014,26.455 61.124,28.346 58.802,28.346 C58.802,28.346 57.868,28.352 57.868,28.352 ZM56.287,25.236 C56.546,25.294 57.016,25.350 57.868,25.350 C57.868,25.350 58.802,25.344 58.802,25.344 C59.471,25.344 60.014,24.799 60.014,24.131 C60.014,23.462 59.471,22.918 58.802,22.918 C58.151,22.971 56.660,24.395 56.287,25.236 Z" id="path-12" class="cls-9" fill-rule="evenodd"/>
    <path d="M5.161,28.352 C5.161,28.352 4.226,28.346 4.226,28.346 C1.904,28.346 0.014,26.455 0.014,24.131 C0.014,21.807 1.904,19.916 4.226,19.916 C6.528,19.916 9.825,23.215 9.825,25.519 C9.825,28.352 6.314,28.352 5.161,28.352 ZM4.217,22.918 C3.558,22.918 3.014,23.462 3.014,24.131 C3.014,24.799 3.558,25.344 4.226,25.344 C4.226,25.344 5.161,25.350 5.161,25.350 C6.014,25.350 6.485,25.293 6.743,25.236 C6.374,24.402 4.877,22.972 4.217,22.918 Z" id="path-13" class="cls-9" fill-rule="evenodd"/>
    <path d="M20.088,22.111 C19.449,22.111 18.856,21.698 18.656,21.055 C18.411,20.263 18.853,19.422 19.644,19.176 C19.644,19.176 34.767,14.480 34.767,14.480 C35.560,14.234 36.398,14.676 36.644,15.468 C36.890,16.260 36.447,17.101 35.656,17.347 C35.656,17.347 20.534,22.043 20.534,22.043 C20.385,22.090 20.236,22.111 20.088,22.111 Z" id="path-14" class="cls-9" fill-rule="evenodd"/>
    <path d="M26.018,25.373 C25.378,25.373 24.785,24.960 24.585,24.317 C24.340,23.525 24.782,22.684 25.573,22.438 C25.573,22.438 31.116,20.716 31.116,20.716 C31.908,20.471 32.748,20.913 32.994,21.705 C33.239,22.497 32.797,23.338 32.006,23.584 C32.006,23.584 26.463,25.305 26.463,25.305 C26.314,25.351 26.165,25.373 26.018,25.373 Z" id="path-15" class="cls-9" fill-rule="evenodd"/>
    <path d="M50.891,37.047 C50.891,38.705 49.547,40.049 47.891,40.049 C46.233,40.049 44.891,38.705 44.891,37.047 C44.891,35.389 46.233,34.045 47.891,34.045 C49.547,34.045 50.891,35.389 50.891,37.047 Z" id="path-16" class="cls-9" fill-rule="evenodd"/>
    <path d="M18.860,37.047 C18.860,38.705 17.517,40.049 15.860,40.049 C14.203,40.049 12.860,38.705 12.860,37.047 C12.860,35.389 14.203,34.045 15.860,34.045 C17.517,34.045 18.860,35.389 18.860,37.047 Z" id="path-17" class="cls-9" fill-rule="evenodd"/>
  </g>
</svg>
