<svg xmlns="http://www.w3.org/2000/svg" xmlns:xlink="http://www.w3.org/1999/xlink" preserveAspectRatio="xMidYMid" width="60" height="65" viewBox="0 0 60 65">
  <defs>
    <style>

      .cls-3 {
        fill: #e56a77;
      }

      .cls-4 {
        fill: #edc951;
      }

      .cls-8 {
        fill: #000000;
      }
    </style>
  </defs>
  <g id="group-37svg">
    <path d="M37.490,16.278 C37.857,15.238 38.560,13.631 38.560,12.464 C38.560,6.960 34.102,2.498 28.602,2.498 C23.102,2.498 18.643,6.960 18.643,12.464 C18.643,13.631 19.345,15.238 19.713,16.278 C19.713,16.278 27.528,31.893 27.528,31.893 C27.965,32.765 29.209,32.766 29.646,31.894 C29.646,31.894 37.490,16.278 37.490,16.278 Z" id="path-1" class="cls-3" fill-rule="evenodd"/>
    <path d="M30.754,7.748 C32.569,8.570 33.832,10.398 33.832,12.521 C33.832,15.412 31.490,17.755 28.602,17.755 C25.712,17.755 23.370,15.412 23.370,12.521 C23.370,10.426 24.601,8.618 26.378,7.781 C26.378,7.781 26.378,7.781 26.378,7.781 " id="path-2" class="cls-4" fill-rule="evenodd"/>
    <path d="M60.266,58.598 C60.266,61.330 58.053,63.544 55.323,63.544 C52.594,63.544 50.381,61.330 50.381,58.598 C50.381,55.867 52.594,53.652 55.323,53.652 C58.053,53.652 60.266,55.867 60.266,58.598 Z" id="path-3" class="cls-4" fill-rule="evenodd"/>
    <path d="M33.338,48.613 C33.338,51.344 31.125,53.559 28.395,53.559 C25.666,53.559 23.454,51.344 23.454,48.613 C23.454,45.881 25.666,43.667 28.395,43.667 C31.125,43.667 33.338,45.881 33.338,48.613 Z" id="path-4" class="cls-4" fill-rule="evenodd"/>
    <path d="M14.390,57.595 C14.390,60.326 12.177,62.540 9.447,62.540 C6.718,62.540 4.505,60.326 4.505,57.595 C4.505,54.863 6.718,52.649 9.447,52.649 C12.177,52.649 14.390,54.863 14.390,57.595 Z" id="path-5" class="cls-4" fill-rule="evenodd"/>
    <path d="M25.588,33.048 C25.588,33.048 25.588,33.048 25.588,33.048 C24.565,33.047 23.646,32.479 23.187,31.564 C23.187,31.564 15.372,15.950 15.372,15.950 C15.344,15.894 15.319,15.837 15.299,15.778 C15.234,15.595 15.158,15.393 15.077,15.178 C14.661,14.069 14.143,12.687 14.143,11.463 C14.143,5.140 19.283,-0.004 25.601,-0.004 C31.920,-0.004 37.061,5.140 37.061,11.463 C37.061,12.685 36.544,14.062 36.129,15.170 C36.047,15.387 35.970,15.591 35.904,15.777 C35.884,15.837 35.858,15.895 35.830,15.951 C35.830,15.951 27.986,31.567 27.986,31.567 C27.528,32.481 26.609,33.048 25.588,33.048 ZM18.095,14.686 C18.095,14.686 25.588,29.658 25.588,29.658 C25.588,29.658 33.108,14.686 33.108,14.686 C33.172,14.508 33.244,14.316 33.320,14.115 C33.633,13.281 34.060,12.140 34.060,11.463 C34.060,6.796 30.266,2.998 25.601,2.998 C20.937,2.998 17.143,6.796 17.143,11.463 C17.143,12.143 17.572,13.287 17.886,14.123 C17.961,14.322 18.031,14.511 18.095,14.686 Z" id="path-6" class="cls-8" fill-rule="evenodd"/>
    <path d="M25.601,18.256 C21.890,18.256 18.870,15.234 18.870,11.520 C18.870,8.922 20.389,6.528 22.739,5.422 C23.492,5.069 24.383,5.392 24.735,6.142 C25.088,6.892 24.766,7.786 24.017,8.139 C22.713,8.752 21.870,10.080 21.870,11.520 C21.870,13.579 23.544,15.254 25.601,15.254 C27.658,15.254 29.332,13.579 29.332,11.520 C29.332,10.055 28.470,8.719 27.136,8.115 C26.381,7.774 26.046,6.885 26.387,6.129 C26.728,5.375 27.614,5.038 28.372,5.380 C30.777,6.468 32.332,8.878 32.332,11.520 C32.332,15.234 29.312,18.256 25.601,18.256 Z" id="path-7" class="cls-8" fill-rule="evenodd"/>
    <path d="M52.323,64.044 C48.770,64.044 45.881,61.152 45.881,57.598 C45.881,54.043 48.770,51.151 52.323,51.151 C55.876,51.151 58.766,54.043 58.766,57.598 C58.766,61.152 55.876,64.044 52.323,64.044 ZM52.323,54.153 C50.425,54.153 48.881,55.698 48.881,57.598 C48.881,59.497 50.425,61.042 52.323,61.042 C54.222,61.042 55.766,59.497 55.766,57.598 C55.766,55.698 54.222,54.153 52.323,54.153 Z" id="path-8" class="cls-8" fill-rule="evenodd"/>
    <path d="M25.395,54.059 C21.844,54.059 18.954,51.167 18.954,47.612 C18.954,44.057 21.844,41.165 25.395,41.165 C28.948,41.165 31.838,44.057 31.838,47.612 C31.838,51.167 28.948,54.059 25.395,54.059 ZM25.395,44.167 C23.498,44.167 21.954,45.713 21.954,47.612 C21.954,49.511 23.498,51.057 25.395,51.057 C27.294,51.057 28.838,49.511 28.838,47.612 C28.838,45.713 27.294,44.167 25.395,44.167 Z" id="path-9" class="cls-8" fill-rule="evenodd"/>
    <path d="M6.447,63.041 C2.895,63.041 0.005,60.149 0.005,56.594 C0.005,53.039 2.895,50.148 6.447,50.148 C10.000,50.148 12.890,53.039 12.890,56.594 C12.890,60.149 10.000,63.041 6.447,63.041 ZM6.447,53.150 C4.549,53.150 3.005,54.695 3.005,56.594 C3.005,58.493 4.549,60.039 6.447,60.039 C8.346,60.039 9.890,58.493 9.890,56.594 C9.890,54.695 8.346,53.150 6.447,53.150 Z" id="path-10" class="cls-8" fill-rule="evenodd"/>
    <path d="M10.668,55.531 C10.109,55.531 9.572,55.217 9.314,54.679 C8.956,53.931 9.271,53.035 10.019,52.676 C10.019,52.676 20.072,47.851 20.072,47.851 C20.817,47.493 21.715,47.807 22.073,48.556 C22.432,49.303 22.116,50.200 21.369,50.558 C21.369,50.558 11.315,55.383 11.315,55.383 C11.106,55.484 10.886,55.531 10.668,55.531 Z" id="path-11" class="cls-8" fill-rule="evenodd"/>
    <path d="M47.634,57.533 C47.440,57.533 47.243,57.495 47.054,57.415 C47.054,57.415 29.633,50.084 29.633,50.084 C28.869,49.763 28.510,48.883 28.831,48.119 C29.152,47.355 30.031,46.995 30.795,47.317 C30.795,47.317 48.216,54.647 48.216,54.647 C48.979,54.969 49.339,55.849 49.018,56.613 C48.776,57.187 48.220,57.533 47.634,57.533 Z" id="path-12" class="cls-8" fill-rule="evenodd"/>
    <path d="M25.396,44.397 C25.379,44.397 25.362,44.397 25.345,44.397 C24.518,44.397 23.868,43.559 23.896,42.731 C23.896,42.731 24.103,36.542 24.103,36.542 C24.131,35.713 24.849,35.037 25.652,35.064 C26.479,35.091 27.129,35.771 27.101,36.600 C27.101,36.600 26.894,42.839 26.894,42.839 C26.867,43.650 26.201,44.397 25.396,44.397 Z" id="path-13" class="cls-8" fill-rule="evenodd"/>
  </g>
</svg>
