<svg xmlns="http://www.w3.org/2000/svg" xmlns:xlink="http://www.w3.org/1999/xlink" preserveAspectRatio="xMidYMid" width="60" height="63" viewBox="0 0 60 63">
  <defs>
    <style>

      .cls-3 {
        fill: #53ecf4;
      }

      .cls-4 {
        fill: #e56a77;
      }

      .cls-5 {
        fill: #edc951;
      }

      .cls-6 {
        fill: #000000;
      }
    </style>
  </defs>
  <g id="group-35svg">
    <path d="M32.515,48.788 C29.122,48.788 14.000,49.211 4.000,35.876 C4.000,35.876 4.000,54.570 4.000,54.570 C4.000,54.570 10.795,48.675 10.795,48.675 C10.795,48.675 20.742,63.546 33.504,62.488 C46.266,63.546 54.935,48.675 54.935,48.675 C54.935,48.675 60.000,54.570 60.000,54.570 C60.000,54.570 60.000,35.876 60.000,35.876 C50.000,49.211 35.907,48.788 32.515,48.788 Z" id="path-1" class="cls-3" fill-rule="evenodd"/>
    <path d="M41.000,24.883 C41.000,23.778 40.104,22.882 39.000,22.882 C39.000,22.882 26.000,22.882 26.000,22.882 C24.896,22.882 24.000,23.778 24.000,24.883 C24.000,24.883 24.000,27.885 24.000,27.885 C24.000,28.991 24.896,29.887 26.000,29.887 C26.000,29.887 39.000,29.887 39.000,29.887 C40.104,29.887 41.000,28.991 41.000,27.885 C41.000,27.885 41.000,24.883 41.000,24.883 Z" id="path-2" class="cls-4" fill-rule="evenodd"/>
    <path d="M39.775,8.618 C39.775,11.997 37.038,14.737 33.661,14.737 C30.284,14.737 27.547,11.997 27.547,8.618 C27.547,5.239 30.284,2.499 33.661,2.499 C37.038,2.499 39.775,5.239 39.775,8.618 Z" id="path-3" class="cls-5" fill-rule="evenodd"/>
    <path d="M31.930,63.042 C31.500,63.042 31.066,63.027 30.629,62.993 C19.514,63.834 10.704,53.727 7.806,49.910 C7.806,49.910 2.503,54.686 2.503,54.686 C2.063,55.082 1.430,55.183 0.890,54.941 C0.349,54.700 -0.000,54.163 -0.000,53.570 C-0.000,53.570 -0.000,34.875 -0.000,34.875 C-0.000,34.229 0.413,33.655 1.025,33.451 C1.637,33.247 2.312,33.457 2.700,33.974 C6.912,39.592 14.944,46.288 29.286,46.288 C29.286,46.288 30.015,46.286 30.015,46.286 C30.015,46.286 30.733,46.288 30.733,46.288 C41.571,46.288 50.173,42.145 56.300,33.974 C56.688,33.457 57.363,33.247 57.975,33.451 C58.587,33.655 59.000,34.229 59.000,34.875 C59.000,34.875 59.000,53.570 59.000,53.570 C59.000,54.193 58.616,54.751 58.034,54.973 C57.453,55.195 56.794,55.034 56.380,54.569 C56.380,54.569 52.422,50.127 52.422,50.127 C49.697,53.982 42.198,63.042 31.930,63.042 ZM30.629,59.986 C30.670,59.986 30.711,59.988 30.753,59.992 C42.468,60.963 50.877,47.042 50.958,46.906 C51.203,46.495 51.628,46.226 52.104,46.180 C52.581,46.135 53.049,46.319 53.367,46.676 C53.367,46.676 56.000,49.631 56.000,49.631 C56.000,49.631 56.000,38.967 56.000,38.967 C50.989,44.218 42.977,49.290 30.733,49.290 C30.733,49.290 30.015,49.288 30.015,49.288 C30.015,49.288 29.286,49.290 29.286,49.290 C16.327,49.290 8.071,44.206 3.000,38.948 C3.000,38.948 3.000,50.199 3.000,50.199 C3.000,50.199 7.042,46.559 7.042,46.559 C7.366,46.267 7.803,46.131 8.234,46.186 C8.667,46.241 9.055,46.482 9.296,46.846 C9.387,46.983 18.755,60.965 30.505,59.992 C30.546,59.988 30.587,59.986 30.629,59.986 Z" id="path-4" class="cls-6" fill-rule="evenodd"/>
    <path d="M29.661,15.237 C25.462,15.237 22.047,11.819 22.047,7.618 C22.047,3.416 25.462,-0.002 29.661,-0.002 C33.860,-0.002 37.275,3.416 37.275,7.618 C37.275,11.819 33.860,15.237 29.661,15.237 ZM29.661,3.000 C27.117,3.000 25.047,5.071 25.047,7.618 C25.047,10.163 27.117,12.235 29.661,12.235 C32.206,12.235 34.275,10.163 34.275,7.618 C34.275,5.071 32.206,3.000 29.661,3.000 Z" id="path-5" class="cls-6" fill-rule="evenodd"/>
    <path d="M36.500,29.887 C36.500,29.887 23.500,29.887 23.500,29.887 C21.570,29.887 20.000,28.315 20.000,26.384 C20.000,26.384 20.000,23.382 20.000,23.382 C20.000,21.451 21.570,19.880 23.500,19.880 C23.500,19.880 36.500,19.880 36.500,19.880 C38.430,19.880 40.000,21.451 40.000,23.382 C40.000,23.382 40.000,26.384 40.000,26.384 C40.000,28.315 38.430,29.887 36.500,29.887 ZM23.500,22.882 C23.224,22.882 23.000,23.106 23.000,23.382 C23.000,23.382 23.000,26.384 23.000,26.384 C23.000,26.660 23.224,26.885 23.500,26.885 C23.500,26.885 36.500,26.885 36.500,26.885 C36.776,26.885 37.000,26.660 37.000,26.384 C37.000,26.384 37.000,23.382 37.000,23.382 C37.000,23.106 36.776,22.882 36.500,22.882 C36.500,22.882 23.500,22.882 23.500,22.882 Z" id="path-6" class="cls-6" fill-rule="evenodd"/>
    <path d="M29.500,48.400 C28.671,48.400 28.000,47.728 28.000,46.899 C28.000,46.899 28.000,28.886 28.000,28.886 C28.000,28.057 28.671,27.385 29.500,27.385 C30.329,27.385 31.000,28.057 31.000,28.886 C31.000,28.886 31.000,46.899 31.000,46.899 C31.000,47.728 30.329,48.400 29.500,48.400 Z" id="path-7" class="cls-6" fill-rule="evenodd"/>
    <path d="M29.500,22.382 C28.671,22.382 28.000,21.709 28.000,20.880 C28.000,20.880 28.000,13.876 28.000,13.876 C28.000,13.046 28.671,12.374 29.500,12.374 C30.329,12.374 31.000,13.046 31.000,13.876 C31.000,13.876 31.000,20.880 31.000,20.880 C31.000,21.709 30.329,22.382 29.500,22.382 Z" id="path-8" class="cls-6" fill-rule="evenodd"/>
  </g>
</svg>
