<svg xmlns="http://www.w3.org/2000/svg" xmlns:xlink="http://www.w3.org/1999/xlink" preserveAspectRatio="xMidYMid" width="64" height="49" viewBox="0 0 64 49">
  <defs>
    <style>

      .cls-3 {
        fill: #8b71b5;
      }

      .cls-4 {
        fill: #53ecf4;
      }

      .cls-5 {
        fill: #edc951;
      }

      .cls-7 {
        fill: #000000;
      }
    </style>
  </defs>
  <g id="group-16svg">
    <path d="M57.000,43.031 C57.000,43.031 60.872,43.031 60.872,43.031 C63.081,43.031 64.000,40.808 64.000,38.597 C64.000,38.597 64.000,25.578 64.000,25.578 C64.000,21.063 60.674,18.424 56.330,17.127 C56.217,17.093 56.323,17.055 56.215,17.010 C56.215,17.010 36.564,9.092 36.564,9.092 C36.082,8.893 35.674,9.007 35.152,9.007 C35.152,9.007 8.872,9.007 8.872,9.007 C6.663,9.007 4.000,10.368 4.000,12.578 C4.000,12.578 4.000,38.597 4.000,38.597 C4.000,40.799 6.672,43.031 8.872,43.031 C8.872,43.031 11.000,43.031 11.000,43.031 C11.000,43.031 11.000,43.031 11.000,43.031 " id="path-1" class="cls-3" fill-rule="evenodd"/>
    <path d="M35.000,21.086 C35.000,21.086 35.000,31.022 35.000,31.022 C35.000,31.022 54.407,31.022 54.407,31.022 C58.138,31.022 59.665,26.092 56.621,23.933 C56.621,23.933 41.495,18.028 41.495,18.028 C38.039,16.328 35.000,17.976 35.000,21.086 Z" id="path-2" class="cls-4" fill-rule="evenodd"/>
    <path d="M56.649,43.608 C56.649,45.972 54.734,47.889 52.372,47.889 C50.009,47.889 48.094,45.972 48.094,43.608 C48.094,41.244 50.009,39.328 52.372,39.328 C54.734,39.328 56.649,41.244 56.649,43.608 Z" id="path-3" class="cls-5" fill-rule="evenodd"/>
    <path d="M20.442,43.608 C20.442,45.972 18.527,47.889 16.165,47.889 C13.803,47.889 11.887,45.972 11.887,43.608 C11.887,41.244 13.803,39.328 16.165,39.328 C18.527,39.328 20.442,41.244 20.442,43.608 Z" id="path-4" class="cls-5" fill-rule="evenodd"/>
    <path d="M57.872,43.031 C57.872,43.031 54.000,43.031 54.000,43.031 C53.171,43.031 52.500,42.359 52.500,41.530 C52.500,40.700 53.171,40.029 54.000,40.029 C54.000,40.029 57.872,40.029 57.872,40.029 C59.442,40.029 60.000,38.719 60.000,37.596 C60.000,37.596 60.000,24.578 60.000,24.578 C60.000,20.472 56.275,18.498 53.151,17.564 C52.943,17.503 52.794,17.423 52.709,17.373 C52.709,17.373 33.053,9.228 33.053,9.228 C32.677,9.073 32.407,9.007 32.152,9.007 C32.152,9.007 5.872,9.007 5.872,9.007 C4.422,9.007 3.000,10.280 3.000,11.578 C3.000,11.578 3.000,37.596 3.000,37.596 C3.000,38.966 4.543,40.029 5.872,40.029 C5.872,40.029 8.000,40.029 8.000,40.029 C8.829,40.029 9.500,40.700 9.500,41.530 C9.500,42.359 8.829,43.031 8.000,43.031 C8.000,43.031 5.872,43.031 5.872,43.031 C2.689,43.031 -0.000,40.542 -0.000,37.596 C-0.000,37.596 -0.000,11.578 -0.000,11.578 C-0.000,8.609 2.744,6.004 5.872,6.004 C5.872,6.004 32.152,6.004 32.152,6.004 C33.000,6.004 33.690,6.244 34.198,6.453 C34.198,6.453 53.914,14.622 53.914,14.622 C53.998,14.657 54.065,14.690 54.124,14.723 C59.849,16.467 63.000,19.963 63.000,24.578 C63.000,24.578 63.000,37.596 63.000,37.596 C63.000,40.745 60.843,43.031 57.872,43.031 Z" id="path-5" class="cls-7" fill-rule="evenodd"/>
    <path d="M44.000,43.031 C44.000,43.031 18.000,43.031 18.000,43.031 C17.171,43.031 16.500,42.359 16.500,41.530 C16.500,40.700 17.171,40.029 18.000,40.029 C18.000,40.029 44.000,40.029 44.000,40.029 C44.829,40.029 45.500,40.700 45.500,41.530 C45.500,42.359 44.829,43.031 44.000,43.031 Z" id="path-6" class="cls-7" fill-rule="evenodd"/>
    <path d="M49.372,48.389 C46.186,48.389 43.594,45.795 43.594,42.608 C43.594,39.420 46.186,36.826 49.372,36.826 C52.557,36.826 55.149,39.420 55.149,42.608 C55.149,45.795 52.557,48.389 49.372,48.389 ZM49.372,39.828 C47.840,39.828 46.594,41.075 46.594,42.608 C46.594,44.140 47.840,45.387 49.372,45.387 C50.903,45.387 52.149,44.140 52.149,42.608 C52.149,41.075 50.903,39.828 49.372,39.828 Z" id="path-7" class="cls-7" fill-rule="evenodd"/>
    <path d="M13.165,48.389 C9.979,48.389 7.387,45.795 7.387,42.608 C7.387,39.420 9.979,36.826 13.165,36.826 C16.350,36.826 18.942,39.420 18.942,42.608 C18.942,45.795 16.350,48.389 13.165,48.389 ZM13.165,39.828 C11.633,39.828 10.387,41.075 10.387,42.608 C10.387,44.140 11.633,45.387 13.165,45.387 C14.696,45.387 15.942,44.140 15.942,42.608 C15.942,41.075 14.696,39.828 13.165,39.828 Z" id="path-8" class="cls-7" fill-rule="evenodd"/>
    <path d="M60.000,34.024 C60.000,34.024 57.000,34.024 57.000,34.024 C56.171,34.024 55.500,33.352 55.500,32.523 C55.500,31.694 56.171,31.022 57.000,31.022 C57.000,31.022 60.000,31.022 60.000,31.022 C60.829,31.022 61.500,31.694 61.500,32.523 C61.500,33.352 60.829,34.024 60.000,34.024 Z" id="path-9" class="cls-7" fill-rule="evenodd"/>
    <path d="M23.000,31.022 C23.000,31.022 20.000,31.022 20.000,31.022 C19.171,31.022 18.500,30.350 18.500,29.521 C18.500,28.692 19.171,28.020 20.000,28.020 C20.000,28.020 23.000,28.020 23.000,28.020 C23.829,28.020 24.500,28.692 24.500,29.521 C24.500,30.350 23.829,31.022 23.000,31.022 Z" id="path-10" class="cls-7" fill-rule="evenodd"/>
    <path d="M51.407,31.022 C51.407,31.022 32.500,31.022 32.500,31.022 C31.671,31.022 31.000,30.350 31.000,29.521 C31.000,29.521 31.000,20.085 31.000,20.085 C31.000,16.989 33.172,14.742 36.164,14.742 C37.199,14.742 38.269,15.005 39.346,15.525 C39.346,15.525 54.164,21.282 54.164,21.282 C54.279,21.327 54.388,21.386 54.489,21.457 C56.410,22.820 57.195,25.131 56.490,27.345 C55.779,29.579 53.784,31.022 51.407,31.022 ZM34.000,28.020 C34.000,28.020 51.407,28.020 51.407,28.020 C52.675,28.020 53.388,27.201 53.632,26.434 C53.744,26.083 54.007,24.901 52.887,24.007 C52.887,24.007 38.203,18.301 38.203,18.301 C38.163,18.286 38.123,18.269 38.084,18.250 C37.412,17.919 36.748,17.744 36.164,17.744 C34.829,17.744 34.000,18.641 34.000,20.085 C34.000,20.085 34.000,28.020 34.000,28.020 Z" id="path-11" class="cls-7" fill-rule="evenodd"/>
    <path d="M32.500,8.506 C31.671,8.506 31.000,7.834 31.000,7.005 C31.000,7.005 31.000,5.574 31.000,5.574 C31.000,4.335 30.334,3.002 28.872,3.002 C28.872,3.002 11.000,3.002 11.000,3.002 C10.171,3.002 9.500,2.331 9.500,1.501 C9.500,0.672 10.171,0.000 11.000,0.000 C11.000,0.000 28.872,0.000 28.872,0.000 C31.795,0.000 34.000,2.396 34.000,5.574 C34.000,5.574 34.000,7.005 34.000,7.005 C34.000,7.834 33.329,8.506 32.500,8.506 Z" id="path-12" class="cls-7" fill-rule="evenodd"/>
  </g>
</svg>
