<svg xmlns="http://www.w3.org/2000/svg" xmlns:xlink="http://www.w3.org/1999/xlink" preserveAspectRatio="xMidYMid" width="68" height="54" viewBox="0 0 68 54">
  <defs>
    <style>

      .cls-3 {
        fill: #ff917b;
      }

      .cls-4 {
        fill: #edc951;
      }

      .cls-6 {
        fill: #53ecf4;
      }

      .cls-9 {
        fill: #000000;
      }
    </style>
  </defs>
  <g id="group-26svg">
    <path d="M9.719,34.290 C7.312,34.290 6.000,32.607 6.000,30.199 C6.000,30.199 6.000,20.389 6.000,20.389 C6.000,19.185 8.347,18.009 9.550,18.009 C9.550,18.009 29.157,18.009 29.157,18.009 C30.360,18.009 31.000,17.233 31.000,16.029 C31.000,16.029 31.000,5.128 31.000,5.128 C31.000,3.924 32.312,2.999 33.515,2.999 C33.515,2.999 51.158,2.999 51.158,2.999 C53.062,2.999 54.763,3.976 55.409,5.769 C55.409,5.769 60.929,17.115 60.929,17.115 C61.297,18.137 62.021,18.938 62.967,19.470 C62.967,19.470 65.380,21.184 65.380,21.184 C66.804,21.984 67.000,23.465 67.000,25.099 C67.000,25.099 67.000,32.380 67.000,32.380 C67.000,33.579 67.391,34.021 66.193,34.021 C66.193,34.021 63.000,34.021 63.000,34.021 C63.000,34.021 63.000,34.021 63.000,34.021 " id="path-1" class="cls-3" fill-rule="evenodd"/>
    <path d="M28.982,40.154 C28.982,46.053 24.204,50.835 18.310,50.835 C12.415,50.835 7.637,46.053 7.637,40.154 C7.637,34.256 12.415,29.474 18.310,29.474 C24.204,29.474 28.982,34.256 28.982,40.154 Z" id="path-2" class="cls-4" fill-rule="evenodd"/>
    <path d="M62.750,40.154 C62.750,46.053 57.972,50.835 52.078,50.835 C46.183,50.835 41.404,46.053 41.404,40.154 C41.404,34.256 46.183,29.474 52.078,29.474 C57.972,29.474 62.750,34.256 62.750,40.154 Z" id="path-3" class="cls-4" fill-rule="evenodd"/>
    <path d="M57.236,40.154 C57.236,43.005 54.926,45.317 52.078,45.317 C49.228,45.317 46.919,43.005 46.919,40.154 C46.919,37.304 49.228,34.992 52.078,34.992 C54.926,34.992 57.236,37.304 57.236,40.154 Z" id="path-4" class="cls-6" fill-rule="evenodd"/>
    <path d="M23.468,40.154 C23.468,43.005 21.159,45.317 18.310,45.317 C15.461,45.317 13.151,43.005 13.151,40.154 C13.151,37.304 15.461,34.992 18.310,34.992 C21.159,34.992 23.468,37.304 23.468,40.154 Z" id="path-5" class="cls-6" fill-rule="evenodd"/>
    <path d="M54.000,11.004 C54.000,11.004 41.318,11.004 41.318,11.004 C40.115,11.004 38.000,11.555 38.000,12.758 C38.000,12.758 38.000,17.119 38.000,17.119 C38.000,18.323 40.115,19.010 41.318,19.010 C41.318,19.010 60.000,19.010 60.000,19.010 C60.000,19.010 60.000,19.010 60.000,19.010 " id="path-6" class="cls-6" fill-rule="evenodd"/>
    <path d="M4.969,34.540 C1.857,34.540 -0.000,32.544 -0.000,29.199 C-0.000,29.199 -0.000,19.388 -0.000,19.388 C-0.000,17.382 2.466,15.007 4.550,15.007 C4.550,15.007 24.157,15.007 24.157,15.007 C24.611,15.007 25.000,14.957 25.000,14.919 C25.000,14.919 25.000,4.127 25.000,4.127 C25.000,2.132 26.412,-0.004 28.515,-0.004 C28.515,-0.004 46.158,-0.004 46.158,-0.004 C48.652,-0.004 50.906,1.574 51.791,3.931 C51.791,3.931 57.280,15.338 57.280,15.338 C57.302,15.384 57.322,15.432 57.340,15.480 C57.588,16.169 58.072,16.744 58.702,17.097 C58.731,17.114 58.760,17.132 58.789,17.151 C58.789,17.151 61.413,18.871 61.413,18.871 C62.605,19.558 64.000,21.021 64.000,24.099 C64.000,24.099 64.000,31.379 64.000,31.379 C64.000,32.022 64.000,32.822 63.390,33.431 C62.796,34.024 62.045,34.021 61.349,34.021 C61.349,34.021 58.000,34.021 58.000,34.021 C57.171,34.021 56.500,33.349 56.500,32.520 C56.500,31.690 57.171,31.018 58.000,31.018 C58.000,31.018 61.000,31.018 61.000,31.018 C61.000,31.018 61.000,24.099 61.000,24.099 C61.000,22.291 60.370,21.727 59.895,21.461 C59.866,21.444 59.836,21.426 59.808,21.408 C59.808,21.408 57.185,19.688 57.185,19.688 C55.974,18.992 55.040,17.891 54.546,16.576 C54.546,16.576 49.057,5.169 49.057,5.169 C49.035,5.123 49.015,5.075 48.998,5.027 C48.560,3.814 47.419,2.999 46.158,2.999 C46.158,2.999 28.515,2.999 28.515,2.999 C28.366,3.033 28.000,3.556 28.000,4.127 C28.000,4.127 28.000,15.028 28.000,15.028 C28.000,15.727 27.723,18.009 24.157,18.009 C24.157,18.009 4.550,18.009 4.550,18.009 C4.096,18.048 3.075,18.970 2.998,19.418 C2.998,19.418 3.000,29.199 3.000,29.199 C3.000,31.358 3.973,31.538 4.969,31.538 C5.797,31.538 6.469,32.210 6.469,33.039 C6.469,33.868 5.797,34.540 4.969,34.540 Z" id="path-7" class="cls-9" fill-rule="evenodd"/>
    <path d="M38.000,34.021 C38.000,34.021 24.000,34.021 24.000,34.021 C23.171,34.021 22.500,33.349 22.500,32.520 C22.500,31.690 23.171,31.018 24.000,31.018 C24.000,31.018 38.000,31.018 38.000,31.018 C38.829,31.018 39.500,31.690 39.500,32.520 C39.500,33.349 38.829,34.021 38.000,34.021 Z" id="path-8" class="cls-9" fill-rule="evenodd"/>
    <path d="M49.078,51.336 C42.365,51.336 36.904,45.871 36.904,39.154 C36.904,32.437 42.365,26.972 49.078,26.972 C55.790,26.972 61.250,32.437 61.250,39.154 C61.250,45.871 55.790,51.336 49.078,51.336 ZM49.078,29.974 C44.019,29.974 39.904,34.092 39.904,39.154 C39.904,44.215 44.019,48.333 49.078,48.333 C54.136,48.333 58.250,44.215 58.250,39.154 C58.250,34.092 54.136,29.974 49.078,29.974 Z" id="path-9" class="cls-9" fill-rule="evenodd"/>
    <path d="M50.838,39.154 C50.838,40.127 50.050,40.916 49.078,40.916 C48.105,40.916 47.317,40.127 47.317,39.154 C47.317,38.181 48.105,37.392 49.078,37.392 C50.050,37.392 50.838,38.181 50.838,39.154 Z" id="path-10" class="cls-9" fill-rule="evenodd"/>
    <path d="M49.078,45.817 C45.406,45.817 42.419,42.828 42.419,39.154 C42.419,35.480 45.406,32.491 49.078,32.491 C52.749,32.491 55.736,35.480 55.736,39.154 C55.736,42.828 52.749,45.817 49.078,45.817 ZM49.078,35.493 C47.060,35.493 45.419,37.135 45.419,39.154 C45.419,41.173 47.060,42.815 49.078,42.815 C51.095,42.815 52.736,41.173 52.736,39.154 C52.736,37.135 51.095,35.493 49.078,35.493 Z" id="path-11" class="cls-9" fill-rule="evenodd"/>
    <path d="M40.256,49.972 C39.744,49.972 39.232,49.777 38.842,49.386 C38.061,48.605 38.061,47.338 38.841,46.556 C38.841,46.556 39.210,46.186 39.210,46.186 C39.992,45.405 41.258,45.405 42.039,46.186 C42.820,46.968 42.820,48.235 42.039,49.017 C42.039,49.017 41.670,49.386 41.670,49.386 C41.280,49.777 40.768,49.972 40.256,49.972 Z" id="path-12" class="cls-9" fill-rule="evenodd"/>
    <path d="M57.532,32.683 C57.020,32.683 56.508,32.488 56.118,32.097 C55.337,31.316 55.337,30.049 56.118,29.267 C56.118,29.267 56.487,28.897 56.487,28.897 C57.268,28.116 58.535,28.116 59.315,28.897 C60.097,29.679 60.097,30.946 59.315,31.728 C59.315,31.728 58.946,32.097 58.946,32.097 C58.556,32.488 58.044,32.683 57.532,32.683 Z" id="path-13" class="cls-9" fill-rule="evenodd"/>
    <path d="M57.901,49.972 C57.390,49.972 56.877,49.777 56.487,49.386 C56.487,49.386 56.118,49.017 56.118,49.017 C55.337,48.235 55.337,46.968 56.118,46.186 C56.899,45.405 58.165,45.405 58.947,46.186 C58.947,46.186 59.316,46.556 59.316,46.556 C60.097,47.338 60.097,48.605 59.315,49.386 C58.925,49.777 58.413,49.972 57.901,49.972 Z" id="path-14" class="cls-9" fill-rule="evenodd"/>
    <path d="M40.625,32.683 C40.113,32.683 39.601,32.488 39.211,32.097 C39.211,32.097 38.842,31.728 38.842,31.728 C38.061,30.946 38.061,29.679 38.842,28.897 C39.622,28.116 40.890,28.116 41.670,28.897 C41.670,28.897 42.039,29.267 42.039,29.267 C42.820,30.049 42.820,31.316 42.039,32.097 C41.649,32.488 41.137,32.683 40.625,32.683 Z" id="path-15" class="cls-9" fill-rule="evenodd"/>
    <path d="M61.000,41.026 C61.000,41.026 60.000,41.026 60.000,41.026 C58.895,41.026 58.000,40.129 58.000,39.024 C58.000,37.919 58.895,37.023 60.000,37.023 C60.000,37.023 61.000,37.023 61.000,37.023 C62.104,37.023 63.000,37.919 63.000,39.024 C63.000,40.129 62.104,41.026 61.000,41.026 Z" id="path-16" class="cls-9" fill-rule="evenodd"/>
    <path d="M37.000,41.026 C37.000,41.026 36.000,41.026 36.000,41.026 C34.895,41.026 34.000,40.129 34.000,39.024 C34.000,37.919 34.895,37.023 36.000,37.023 C36.000,37.023 37.000,37.023 37.000,37.023 C38.104,37.023 39.000,37.919 39.000,39.024 C39.000,40.129 38.104,41.026 37.000,41.026 Z" id="path-17" class="cls-9" fill-rule="evenodd"/>
    <path d="M48.000,29.017 C46.895,29.017 46.000,28.121 46.000,27.016 C46.000,27.016 46.000,26.015 46.000,26.015 C46.000,24.910 46.895,24.013 48.000,24.013 C49.104,24.013 50.000,24.910 50.000,26.015 C50.000,26.015 50.000,27.016 50.000,27.016 C50.000,28.121 49.104,29.017 48.000,29.017 Z" id="path-18" class="cls-9" fill-rule="evenodd"/>
    <path d="M48.000,53.034 C46.895,53.034 46.000,52.138 46.000,51.033 C46.000,51.033 46.000,50.032 46.000,50.032 C46.000,48.927 46.895,48.031 48.000,48.031 C49.104,48.031 50.000,48.927 50.000,50.032 C50.000,50.032 50.000,51.033 50.000,51.033 C50.000,52.138 49.104,53.034 48.000,53.034 Z" id="path-19" class="cls-9" fill-rule="evenodd"/>
    <path d="M15.310,51.336 C8.598,51.336 3.137,45.871 3.137,39.154 C3.137,32.437 8.598,26.972 15.310,26.972 C22.021,26.972 27.482,32.437 27.482,39.154 C27.482,45.871 22.021,51.336 15.310,51.336 ZM15.310,29.974 C10.251,29.974 6.137,34.092 6.137,39.154 C6.137,44.215 10.251,48.333 15.310,48.333 C20.368,48.333 24.482,44.215 24.482,39.154 C24.482,34.092 20.368,29.974 15.310,29.974 Z" id="path-20" class="cls-9" fill-rule="evenodd"/>
    <path d="M17.070,39.154 C17.070,40.127 16.282,40.916 15.310,40.916 C14.337,40.916 13.549,40.127 13.549,39.154 C13.549,38.181 14.337,37.392 15.310,37.392 C16.282,37.392 17.070,38.181 17.070,39.154 Z" id="path-21" class="cls-9" fill-rule="evenodd"/>
    <path d="M15.310,45.817 C11.638,45.817 8.651,42.828 8.651,39.154 C8.651,35.480 11.638,32.491 15.310,32.491 C18.981,32.491 21.968,35.480 21.968,39.154 C21.968,42.828 18.981,45.817 15.310,45.817 ZM15.310,35.493 C13.292,35.493 11.651,37.135 11.651,39.154 C11.651,41.173 13.292,42.815 15.310,42.815 C17.327,42.815 18.968,41.173 18.968,39.154 C18.968,37.135 17.327,35.493 15.310,35.493 Z" id="path-22" class="cls-9" fill-rule="evenodd"/>
    <path d="M6.488,49.972 C5.976,49.972 5.464,49.777 5.074,49.386 C4.292,48.605 4.292,47.338 5.073,46.556 C5.073,46.556 5.442,46.186 5.442,46.186 C6.224,45.405 7.490,45.405 8.271,46.186 C9.052,46.968 9.052,48.235 8.271,49.017 C8.271,49.017 7.902,49.386 7.902,49.386 C7.512,49.777 6.999,49.972 6.488,49.972 Z" id="path-23" class="cls-9" fill-rule="evenodd"/>
    <path d="M23.765,32.683 C23.253,32.683 22.741,32.488 22.351,32.097 C21.569,31.316 21.569,30.049 22.351,29.267 C22.351,29.267 22.720,28.897 22.720,28.897 C23.500,28.116 24.768,28.116 25.548,28.897 C26.329,29.679 26.329,30.946 25.548,31.728 C25.548,31.728 25.179,32.097 25.179,32.097 C24.789,32.488 24.276,32.683 23.765,32.683 Z" id="path-24" class="cls-9" fill-rule="evenodd"/>
    <path d="M24.134,49.972 C23.622,49.972 23.110,49.777 22.719,49.386 C22.719,49.386 22.350,49.017 22.350,49.017 C21.569,48.235 21.569,46.968 22.351,46.186 C23.132,45.405 24.398,45.405 25.179,46.186 C25.179,46.186 25.548,46.556 25.548,46.556 C26.329,47.338 26.329,48.605 25.548,49.386 C25.157,49.777 24.646,49.972 24.134,49.972 Z" id="path-25" class="cls-9" fill-rule="evenodd"/>
    <path d="M6.857,32.683 C6.345,32.683 5.833,32.488 5.443,32.097 C5.443,32.097 5.074,31.728 5.074,31.728 C4.292,30.946 4.292,29.679 5.074,28.897 C5.854,28.116 7.122,28.116 7.902,28.897 C7.902,28.897 8.271,29.267 8.271,29.267 C9.052,30.049 9.052,31.316 8.271,32.097 C7.881,32.488 7.369,32.683 6.857,32.683 Z" id="path-26" class="cls-9" fill-rule="evenodd"/>
    <path d="M28.000,41.026 C28.000,41.026 27.000,41.026 27.000,41.026 C25.896,41.026 25.000,40.129 25.000,39.024 C25.000,37.919 25.896,37.023 27.000,37.023 C27.000,37.023 28.000,37.023 28.000,37.023 C29.104,37.023 30.000,37.919 30.000,39.024 C30.000,40.129 29.104,41.026 28.000,41.026 Z" id="path-27" class="cls-9" fill-rule="evenodd"/>
    <path d="M4.000,41.026 C4.000,41.026 3.000,41.026 3.000,41.026 C1.895,41.026 1.000,40.129 1.000,39.024 C1.000,37.919 1.895,37.023 3.000,37.023 C3.000,37.023 4.000,37.023 4.000,37.023 C5.104,37.023 6.000,37.919 6.000,39.024 C6.000,40.129 5.104,41.026 4.000,41.026 Z" id="path-28" class="cls-9" fill-rule="evenodd"/>
    <path d="M15.000,29.017 C13.895,29.017 13.000,28.121 13.000,27.016 C13.000,27.016 13.000,26.015 13.000,26.015 C13.000,24.910 13.895,24.013 15.000,24.013 C16.104,24.013 17.000,24.910 17.000,26.015 C17.000,26.015 17.000,27.016 17.000,27.016 C17.000,28.121 16.104,29.017 15.000,29.017 Z" id="path-29" class="cls-9" fill-rule="evenodd"/>
    <path d="M15.000,53.034 C13.895,53.034 13.000,52.138 13.000,51.033 C13.000,51.033 13.000,50.032 13.000,50.032 C13.000,48.927 13.895,48.031 15.000,48.031 C16.104,48.031 17.000,48.927 17.000,50.032 C17.000,50.032 17.000,51.033 17.000,51.033 C17.000,52.138 16.104,53.034 15.000,53.034 Z" id="path-30" class="cls-9" fill-rule="evenodd"/>
    <path d="M61.000,25.014 C61.000,25.014 58.000,25.014 58.000,25.014 C57.171,25.014 56.500,24.342 56.500,23.513 C56.500,22.684 57.171,22.012 58.000,22.012 C58.000,22.012 61.000,22.012 61.000,22.012 C61.829,22.012 62.500,22.684 62.500,23.513 C62.500,24.342 61.829,25.014 61.000,25.014 Z" id="path-31" class="cls-9" fill-rule="evenodd"/>
    <path d="M36.000,25.014 C36.000,25.014 34.000,25.014 34.000,25.014 C33.171,25.014 32.500,24.342 32.500,23.513 C32.500,22.684 33.171,22.012 34.000,22.012 C34.000,22.012 36.000,22.012 36.000,22.012 C36.829,22.012 37.500,22.684 37.500,23.513 C37.500,24.342 36.829,25.014 36.000,25.014 Z" id="path-32" class="cls-9" fill-rule="evenodd"/>
    <path d="M57.000,19.010 C57.000,19.010 38.318,19.010 38.318,19.010 C34.421,19.010 34.000,16.988 34.000,16.118 C34.000,16.118 34.000,11.758 34.000,11.758 C34.000,9.643 36.321,8.002 38.318,8.002 C38.318,8.002 51.000,8.002 51.000,8.002 C51.829,8.002 52.500,8.674 52.500,9.503 C52.500,10.332 51.829,11.004 51.000,11.004 C51.000,11.004 38.318,11.004 38.318,11.004 C37.797,11.004 37.062,11.517 36.998,11.780 C36.998,11.780 37.000,15.864 37.000,15.864 C37.192,15.925 37.586,16.008 38.318,16.008 C38.318,16.008 57.000,16.008 57.000,16.008 C57.829,16.008 58.500,16.680 58.500,17.509 C58.500,18.338 57.829,19.010 57.000,19.010 Z" id="path-33" class="cls-9" fill-rule="evenodd"/>
  </g>
</svg>
