<svg xmlns="http://www.w3.org/2000/svg" xmlns:xlink="http://www.w3.org/1999/xlink" preserveAspectRatio="xMidYMid" width="57" height="64" viewBox="0 0 57 64">
  <defs>
    <style>

      .cls-3 {
        fill: #ff917b;
      }

      .cls-4 {
        fill: #81bda4;
      }

      .cls-5 {
        fill: #e56a77;
      }

      .cls-6 {
        fill: #000000;
      }
    </style>
  </defs>
  <g id="group-11svg">
    <path d="M14.781,34.022 C14.781,34.022 14.781,18.077 14.781,18.077 C14.781,15.120 18.324,13.007 21.280,13.007 C21.280,13.007 39.978,13.007 39.978,13.007 C42.934,13.007 44.781,15.120 44.781,18.077 C44.781,18.077 44.781,34.022 44.781,34.022 C44.781,34.022 44.781,34.022 44.781,34.022 " id="path-1" class="cls-3" fill-rule="evenodd"/>
    <path d="M23.781,4.000 C23.781,4.000 35.781,4.000 35.781,4.000 C36.886,4.000 37.781,4.897 37.781,6.002 C37.781,6.002 37.781,13.007 37.781,13.007 C37.781,13.007 21.781,13.007 21.781,13.007 C21.781,13.007 21.781,6.002 21.781,6.002 C21.781,4.901 22.682,4.000 23.781,4.000 Z" id="path-2" class="cls-4" fill-rule="evenodd"/>
    <path d="M38.605,31.676 C38.605,31.676 30.968,17.411 30.968,17.411 C30.968,17.411 23.329,31.636 23.329,31.636 C22.300,33.779 20.134,35.022 17.758,35.022 C17.758,35.022 8.704,35.022 8.704,35.022 C5.607,35.022 3.568,38.412 4.899,41.210 C4.899,41.210 14.268,60.777 14.268,60.777 C14.967,62.247 16.447,63.042 18.073,63.042 C18.073,63.042 43.186,63.042 43.186,63.042 C44.811,63.042 46.292,62.326 46.990,60.857 C46.990,60.857 56.359,41.100 56.359,41.100 C57.689,38.302 55.650,35.022 52.555,35.022 C52.555,35.022 44.178,35.022 44.178,35.022 C41.801,35.022 39.635,33.819 38.605,31.676 Z" id="path-3" class="cls-5" fill-rule="evenodd"/>
    <path d="M40.185,62.042 C40.185,62.042 15.073,62.042 15.073,62.042 C12.734,62.042 10.806,60.922 9.914,59.045 C9.914,59.045 0.548,39.610 0.548,39.610 C-0.325,37.773 -0.163,35.524 0.968,33.732 C2.040,32.034 3.811,31.020 5.704,31.020 C5.704,31.020 14.758,31.020 14.758,31.020 C16.723,31.020 18.261,30.164 18.977,28.672 C18.977,28.672 26.650,14.678 26.650,14.678 C26.913,14.196 27.419,14.008 27.968,14.008 C27.969,14.008 27.970,14.008 27.970,14.008 C28.520,14.008 29.025,14.198 29.287,14.683 C29.287,14.683 36.925,28.767 36.925,28.767 C37.895,30.784 40.004,31.020 41.177,31.020 C41.177,31.020 49.555,31.020 49.555,31.020 C51.492,31.020 53.283,32.024 54.346,33.707 C55.438,35.438 55.576,37.554 54.714,39.368 C54.714,39.368 45.347,59.246 45.347,59.246 C44.739,60.523 43.354,62.042 40.185,62.042 ZM5.704,34.022 C4.833,34.022 4.031,34.501 3.504,35.336 C2.918,36.264 2.822,37.405 3.254,38.313 C3.254,38.313 12.620,57.748 12.620,57.748 C13.154,58.873 14.386,59.039 15.073,59.039 C15.073,59.039 40.185,59.039 40.185,59.039 C42.123,59.039 42.495,58.256 42.636,57.961 C42.636,57.961 52.003,38.083 52.003,38.083 C52.422,37.200 52.349,36.166 51.809,35.311 C51.292,34.491 50.471,34.022 49.555,34.022 C49.555,34.022 41.177,34.022 41.177,34.022 C37.981,34.022 35.458,32.583 34.254,30.075 C34.254,30.075 27.963,18.432 27.963,18.432 C27.963,18.432 21.646,30.040 21.646,30.040 C20.463,32.508 17.875,34.022 14.758,34.022 C14.758,34.022 5.704,34.022 5.704,34.022 Z" id="path-4" class="cls-6" fill-rule="evenodd"/>
    <path d="M28.281,61.541 C27.453,61.541 26.781,60.869 26.781,60.040 C26.781,60.040 26.781,16.009 26.781,16.009 C26.781,15.180 27.453,14.508 28.281,14.508 C29.109,14.508 29.781,15.180 29.781,16.009 C29.781,16.009 29.781,60.040 29.781,60.040 C29.781,60.869 29.109,61.541 28.281,61.541 Z" id="path-5" class="cls-6" fill-rule="evenodd"/>
    <path d="M42.281,33.521 C41.453,33.521 40.781,32.850 40.781,32.020 C40.781,32.020 40.781,16.076 40.781,16.076 C40.781,13.870 39.040,12.006 36.979,12.006 C36.979,12.006 18.280,12.006 18.280,12.006 C16.052,12.006 13.781,14.060 13.781,16.076 C13.781,16.076 13.781,32.020 13.781,32.020 C13.781,32.850 13.109,33.521 12.281,33.521 C11.453,33.521 10.781,32.850 10.781,32.020 C10.781,32.020 10.781,16.076 10.781,16.076 C10.781,12.375 14.355,9.004 18.280,9.004 C18.280,9.004 36.979,9.004 36.979,9.004 C40.666,9.004 43.781,12.243 43.781,16.076 C43.781,16.076 43.781,32.020 43.781,32.020 C43.781,32.850 43.109,33.521 42.281,33.521 Z" id="path-6" class="cls-6" fill-rule="evenodd"/>
    <path d="M35.281,12.006 C35.281,12.006 19.281,12.006 19.281,12.006 C18.453,12.006 17.781,11.334 17.781,10.505 C17.781,10.505 17.781,3.500 17.781,3.500 C17.781,1.569 19.352,-0.002 21.281,-0.002 C21.281,-0.002 33.281,-0.002 33.281,-0.002 C35.211,-0.002 36.781,1.569 36.781,3.500 C36.781,3.500 36.781,10.505 36.781,10.505 C36.781,11.334 36.109,12.006 35.281,12.006 ZM20.781,9.004 C20.781,9.004 33.781,9.004 33.781,9.004 C33.781,9.004 33.781,3.500 33.781,3.500 C33.781,3.229 33.553,3.000 33.281,3.000 C33.281,3.000 21.281,3.000 21.281,3.000 C21.010,3.000 20.781,3.229 20.781,3.500 C20.781,3.500 20.781,9.004 20.781,9.004 Z" id="path-7" class="cls-6" fill-rule="evenodd"/>
  </g>
</svg>
