<svg xmlns="http://www.w3.org/2000/svg" xmlns:xlink="http://www.w3.org/1999/xlink" preserveAspectRatio="xMidYMid" width="65" height="33" viewBox="0 0 65 33">
  <defs>
    <style>

      .cls-3 {
        fill: #99746a;
      }

      .cls-4 {
        fill: #53ecf4;
      }

      .cls-7 {
        fill: #000000;
      }
    </style>
  </defs>
  <g id="group-29svg">
    <path d="M54.969,27.023 C54.969,27.023 60.469,27.023 60.469,27.023 C60.645,27.023 61.472,26.944 61.643,26.924 C64.500,26.592 65.351,22.872 64.012,20.325 C64.012,20.325 55.042,3.328 55.042,3.328 C54.272,1.864 52.755,1.004 51.101,1.004 C51.101,1.004 9.285,1.004 9.285,1.004 C8.431,1.004 7.605,1.059 6.863,1.418 C5.258,2.194 4.370,3.887 4.522,5.665 C4.522,5.665 5.925,22.262 5.925,22.262 C5.925,24.723 7.918,27.023 10.377,27.023 C10.377,27.023 14.969,27.023 14.969,27.023 C14.969,27.023 14.969,27.023 14.969,27.023 " id="path-1" class="cls-3" fill-rule="evenodd"/>
    <path d="M54.332,28.251 C54.332,30.692 52.353,32.671 49.914,32.671 C47.475,32.671 45.497,30.692 45.497,28.251 C45.497,25.809 47.475,23.830 49.914,23.830 C52.353,23.830 54.332,25.809 54.332,28.251 Z" id="path-2" class="cls-4" fill-rule="evenodd"/>
    <path d="M24.276,28.251 C24.276,30.692 22.299,32.671 19.859,32.671 C17.420,32.671 15.442,30.692 15.442,28.251 C15.442,25.809 17.420,23.830 19.859,23.830 C22.299,23.830 24.276,25.809 24.276,28.251 Z" id="path-3" class="cls-4" fill-rule="evenodd"/>
    <path d="M54.969,9.010 C54.969,9.010 42.969,9.010 42.969,9.010 C41.869,9.010 40.969,9.911 40.969,11.011 C40.969,11.011 40.969,14.013 40.969,14.013 C40.969,15.114 41.869,16.015 42.969,16.015 C42.969,16.015 57.969,16.015 57.969,16.015 C57.969,16.015 57.969,16.015 57.969,16.015 " id="path-4" class="cls-4" fill-rule="evenodd"/>
    <path d="M58.719,29.024 C58.719,29.024 52.969,29.024 52.969,29.024 C52.141,29.024 51.469,28.352 51.469,27.523 C51.469,26.694 52.141,26.022 52.969,26.022 C52.969,26.022 58.719,26.022 58.719,26.022 C59.218,26.022 59.542,25.838 59.803,25.406 C60.416,24.389 60.362,22.439 59.684,21.149 C59.684,21.149 50.719,4.348 50.719,4.348 C50.104,3.179 48.815,3.006 48.102,3.006 C48.102,3.006 5.994,3.005 5.994,3.005 C5.439,3.001 4.594,2.996 4.244,3.165 C3.601,3.477 2.878,4.042 3.017,5.661 C3.017,5.661 4.420,22.450 4.420,22.450 C4.423,22.491 4.425,22.533 4.425,22.575 C4.425,24.346 5.859,26.022 7.377,26.022 C7.377,26.022 12.969,26.022 12.969,26.022 C13.797,26.022 14.469,26.694 14.469,27.523 C14.469,28.352 13.797,29.024 12.969,29.024 C12.969,29.024 7.377,29.024 7.377,29.024 C4.227,29.024 1.461,26.049 1.425,22.642 C1.425,22.642 0.027,5.915 0.027,5.915 C-0.187,3.411 0.847,1.474 2.939,0.462 C3.916,-0.010 5.078,-0.003 6.013,0.003 C6.013,0.003 6.285,0.004 6.285,0.004 C6.285,0.004 48.102,0.004 48.102,0.004 C50.468,0.004 52.388,1.075 53.369,2.942 C53.369,2.942 62.334,19.743 62.334,19.743 C63.351,21.679 63.688,24.773 62.371,26.958 C61.567,28.290 60.270,29.024 58.719,29.024 Z" id="path-5" class="cls-7" fill-rule="evenodd"/>
    <path d="M41.969,28.023 C41.969,28.023 22.969,28.023 22.969,28.023 C22.141,28.023 21.469,27.352 21.469,26.522 C21.469,25.693 22.141,25.021 22.969,25.021 C22.969,25.021 41.969,25.021 41.969,25.021 C42.797,25.021 43.469,25.693 43.469,26.522 C43.469,27.352 42.797,28.023 41.969,28.023 Z" id="path-6" class="cls-7" fill-rule="evenodd"/>
    <path d="M47.914,32.170 C44.651,32.170 41.997,29.514 41.997,26.249 C41.997,22.984 44.651,20.328 47.914,20.328 C51.177,20.328 53.832,22.984 53.832,26.249 C53.832,29.514 51.177,32.170 47.914,32.170 ZM47.914,23.330 C46.306,23.330 44.997,24.639 44.997,26.249 C44.997,27.859 46.306,29.168 47.914,29.168 C49.523,29.168 50.832,27.859 50.832,26.249 C50.832,24.639 49.523,23.330 47.914,23.330 Z" id="path-7" class="cls-7" fill-rule="evenodd"/>
    <path d="M17.859,32.170 C14.597,32.170 11.942,29.514 11.942,26.249 C11.942,22.984 14.597,20.328 17.859,20.328 C21.122,20.328 23.776,22.984 23.776,26.249 C23.776,29.514 21.122,32.170 17.859,32.170 ZM17.859,23.330 C16.251,23.330 14.942,24.639 14.942,26.249 C14.942,27.859 16.251,29.168 17.859,29.168 C19.468,29.168 20.776,27.859 20.776,26.249 C20.776,24.639 19.468,23.330 17.859,23.330 Z" id="path-8" class="cls-7" fill-rule="evenodd"/>
    <path d="M55.969,15.014 C55.969,15.014 41.469,15.014 41.469,15.014 C39.539,15.014 37.969,13.443 37.969,11.512 C37.969,11.512 37.969,8.510 37.969,8.510 C37.969,6.579 39.539,5.007 41.469,5.007 C41.469,5.007 52.969,5.007 52.969,5.007 C53.797,5.007 54.469,5.679 54.469,6.508 C54.469,7.337 53.797,8.009 52.969,8.009 C52.969,8.009 41.469,8.009 41.469,8.009 C41.197,8.009 40.969,8.238 40.969,8.510 C40.969,8.510 40.969,11.512 40.969,11.512 C40.969,11.788 41.193,12.012 41.469,12.012 C41.469,12.012 55.969,12.012 55.969,12.012 C56.797,12.012 57.469,12.684 57.469,13.513 C57.469,14.342 56.797,15.014 55.969,15.014 Z" id="path-9" class="cls-7" fill-rule="evenodd"/>
    <path d="M10.896,26.437 C10.142,26.437 9.491,25.868 9.407,25.098 C9.407,25.098 6.875,1.885 6.875,1.885 C6.785,1.061 7.380,0.320 8.203,0.230 C9.027,0.141 9.768,0.735 9.857,1.559 C9.857,1.559 12.390,24.773 12.390,24.773 C12.479,25.597 11.885,26.338 11.062,26.428 C11.006,26.434 10.951,26.437 10.896,26.437 Z" id="path-10" class="cls-7" fill-rule="evenodd"/>
  </g>
</svg>
