<svg xmlns="http://www.w3.org/2000/svg" xmlns:xlink="http://www.w3.org/1999/xlink" preserveAspectRatio="xMidYMid" width="65" height="41" viewBox="0 0 65 41">
  <defs>
    <style>

      .cls-3 {
        fill: #ff917b;
      }

      .cls-4 {
        fill: #53ecf4;
      }

      .cls-5 {
        fill: #edc951;
      }

      .cls-7 {
        fill: #000000;
      }
    </style>
  </defs>
  <g id="group-39svg">
    <path d="M12.000,34.148 C12.000,34.148 9.751,34.148 9.751,34.148 C7.138,34.148 5.000,32.009 5.000,29.394 C5.000,29.394 5.000,26.143 5.000,26.143 C5.000,21.721 8.582,18.137 13.000,18.137 C13.000,18.137 57.000,18.137 57.000,18.137 C61.418,18.137 65.000,21.721 65.000,26.143 C65.000,26.143 65.000,29.740 65.000,29.740 C65.000,32.165 63.018,34.148 60.596,34.148 C60.596,34.148 59.000,34.148 59.000,34.148 C59.000,34.148 59.000,34.148 59.000,34.148 " id="path-1" class="cls-3" fill-rule="evenodd"/>
    <path d="M15.261,17.141 C15.261,10.156 22.805,4.494 32.110,4.494 C41.416,4.494 48.872,10.829 48.960,17.141 C48.960,17.141 48.960,17.141 48.960,17.141 " id="path-2" class="cls-4" fill-rule="evenodd"/>
    <path d="M59.803,31.708 C59.803,34.947 57.178,37.573 53.940,37.573 C50.703,37.573 48.078,34.947 48.078,31.708 C48.078,28.467 50.703,25.841 53.940,25.841 C57.178,25.841 59.803,28.467 59.803,31.708 Z" id="path-3" class="cls-5" fill-rule="evenodd"/>
    <path d="M24.665,33.709 C24.665,36.949 22.040,39.575 18.803,39.575 C15.565,39.575 12.940,36.949 12.940,33.709 C12.940,30.469 15.565,27.842 18.803,27.842 C22.040,27.842 24.665,30.469 24.665,33.709 Z" id="path-4" class="cls-5" fill-rule="evenodd"/>
    <path d="M58.218,33.309 C57.390,33.309 56.718,32.636 56.718,31.808 C56.718,30.978 57.390,30.307 58.218,30.307 C58.658,30.307 60.000,30.307 60.000,27.739 C60.000,27.739 60.000,23.641 60.000,23.641 C60.000,20.054 57.084,17.136 53.500,17.136 C53.500,17.136 9.500,17.136 9.500,17.136 C5.916,17.136 3.000,20.054 3.000,23.641 C3.000,23.641 3.000,27.392 3.000,27.392 C3.000,28.910 4.234,30.145 5.751,30.145 C5.751,30.145 8.000,30.145 8.000,30.145 C8.828,30.145 9.500,30.817 9.500,31.646 C9.500,32.475 8.828,33.147 8.000,33.147 C8.000,33.147 5.751,33.147 5.751,33.147 C2.580,33.147 -0.000,30.566 -0.000,27.392 C-0.000,27.392 -0.000,23.641 -0.000,23.641 C-0.000,18.399 4.262,14.134 9.500,14.134 C9.500,14.134 53.500,14.134 53.500,14.134 C58.738,14.134 63.000,18.399 63.000,23.641 C63.000,23.641 63.000,27.739 63.000,27.739 C63.000,31.123 61.123,33.309 58.218,33.309 Z" id="path-5" class="cls-7" fill-rule="evenodd"/>
    <path d="M45.000,33.147 C45.000,33.147 21.000,33.147 21.000,33.147 C20.172,33.147 19.500,32.475 19.500,31.646 C19.500,30.817 20.172,30.145 21.000,30.145 C21.000,30.145 45.000,30.145 45.000,30.145 C45.828,30.145 46.500,30.817 46.500,31.646 C46.500,32.475 45.828,33.147 45.000,33.147 Z" id="path-6" class="cls-7" fill-rule="evenodd"/>
    <path d="M44.960,16.135 C44.141,16.135 43.472,15.229 43.460,14.407 C43.387,9.136 36.807,3.117 28.110,3.117 C19.646,3.117 12.761,8.055 12.761,14.200 C12.761,15.029 12.089,15.670 11.261,15.670 C10.433,15.670 9.761,14.983 9.761,14.154 C9.761,6.353 17.992,-0.001 28.110,-0.001 C37.780,-0.001 46.355,6.844 46.460,14.370 C46.472,15.198 45.810,15.135 44.980,16.135 C44.974,16.135 44.967,16.135 44.960,16.135 Z" id="path-7" class="cls-7" fill-rule="evenodd"/>
    <path d="M51.940,40.075 C47.881,40.075 44.578,36.770 44.578,32.708 C44.578,28.646 47.881,25.341 51.940,25.341 C56.000,25.341 59.303,28.646 59.303,32.708 C59.303,36.770 56.000,40.075 51.940,40.075 ZM51.940,28.343 C49.535,28.343 47.578,30.301 47.578,32.708 C47.578,35.115 49.535,37.073 51.940,37.073 C54.346,37.073 56.303,35.115 56.303,32.708 C56.303,30.301 54.346,28.343 51.940,28.343 Z" id="path-8" class="cls-7" fill-rule="evenodd"/>
    <path d="M14.803,39.075 C10.743,39.075 7.440,35.769 7.440,31.708 C7.440,27.645 10.743,24.340 14.803,24.340 C18.862,24.340 22.165,27.645 22.165,31.708 C22.165,35.769 18.862,39.075 14.803,39.075 ZM14.803,27.342 C12.397,27.342 10.440,29.301 10.440,31.708 C10.440,34.115 12.397,36.072 14.803,36.072 C17.208,36.072 19.165,34.115 19.165,31.708 C19.165,29.301 17.208,27.342 14.803,27.342 Z" id="path-9" class="cls-7" fill-rule="evenodd"/>
    <path d="M27.500,16.636 C26.672,16.636 26.000,15.963 26.000,15.135 C26.000,15.135 26.000,2.126 26.000,2.126 C26.000,1.296 26.672,0.624 27.500,0.624 C28.328,0.624 29.000,1.296 29.000,2.126 C29.000,2.126 29.000,15.135 29.000,15.135 C29.000,15.963 28.328,16.636 27.500,16.636 Z" id="path-10" class="cls-7" fill-rule="evenodd"/>
    <path d="M61.000,23.140 C61.000,23.140 57.000,23.140 57.000,23.140 C56.172,23.140 55.500,22.468 55.500,21.639 C55.500,20.810 56.172,20.138 57.000,20.138 C57.000,20.138 61.000,20.138 61.000,20.138 C61.828,20.138 62.500,20.810 62.500,21.639 C62.500,22.468 61.828,23.140 61.000,23.140 Z" id="path-11" class="cls-7" fill-rule="evenodd"/>
  </g>
</svg>
