<svg xmlns="http://www.w3.org/2000/svg" xmlns:xlink="http://www.w3.org/1999/xlink" preserveAspectRatio="xMidYMid" width="46" height="64" viewBox="0 0 46 64">
  <defs>
    <style>

      .cls-3 {
        fill: #81bda4;
      }

      .cls-4 {
        fill: #edc951;
      }

      .cls-5 {
        fill: #000000;
      }
    </style>
  </defs>
  <g id="group-17svg">
    <path d="M43.145,30.046 C43.881,27.967 45.284,24.756 45.284,22.425 C45.284,11.427 36.375,2.512 25.385,2.512 C14.394,2.512 5.486,11.427 5.486,22.425 C5.486,24.756 6.890,27.967 7.625,30.046 C7.625,30.046 23.241,61.246 23.241,61.246 C24.114,62.989 26.599,62.990 27.474,61.249 C27.474,61.249 43.145,30.046 43.145,30.046 Z" id="path-1" class="cls-3" fill-rule="evenodd"/>
    <path d="M30.743,10.547 C35.262,12.591 38.405,17.141 38.405,22.425 C38.405,29.621 32.576,35.455 25.385,35.455 C18.194,35.455 12.364,29.621 12.364,22.425 C12.364,17.209 15.427,12.709 19.851,10.628 C19.851,10.628 19.851,10.628 19.851,10.628 " id="path-2" class="cls-4" fill-rule="evenodd"/>
    <path d="M21.385,35.955 C13.378,35.955 6.864,29.436 6.864,21.424 C6.864,15.819 10.141,10.655 15.212,8.269 C15.964,7.916 16.855,8.238 17.208,8.988 C17.560,9.738 17.238,10.633 16.489,10.985 C12.465,12.879 9.864,16.977 9.864,21.424 C9.864,27.781 15.032,32.953 21.385,32.953 C27.737,32.953 32.905,27.781 32.905,21.424 C32.905,16.903 30.244,12.777 26.125,10.914 C25.370,10.572 25.035,9.683 25.376,8.927 C25.718,8.172 26.604,7.836 27.361,8.178 C32.552,10.526 35.905,15.726 35.905,21.424 C35.905,29.436 29.392,35.955 21.385,35.955 Z" id="path-3" class="cls-5" fill-rule="evenodd"/>
    <path d="M21.358,63.054 C21.358,63.054 21.358,63.054 21.358,63.054 C19.886,63.054 18.561,62.236 17.900,60.918 C17.900,60.918 2.284,29.718 2.284,29.718 C2.256,29.662 2.231,29.605 2.211,29.546 C2.078,29.171 1.923,28.757 1.758,28.318 C0.969,26.215 -0.014,23.597 -0.014,21.424 C-0.014,9.616 9.586,0.010 21.385,0.010 C33.185,0.010 42.784,9.616 42.784,21.424 C42.784,23.597 41.802,26.215 41.013,28.318 C40.848,28.757 40.692,29.171 40.559,29.546 C40.539,29.605 40.514,29.664 40.485,29.720 C40.485,29.720 24.813,60.923 24.813,60.923 C24.153,62.238 22.829,63.054 21.358,63.054 ZM5.008,28.456 C5.008,28.456 20.582,59.573 20.582,59.573 C20.799,60.005 21.197,60.052 21.358,60.052 C21.358,60.052 21.358,60.052 21.358,60.052 C21.519,60.052 21.917,60.006 22.134,59.574 C22.134,59.574 37.764,28.455 37.764,28.455 C37.895,28.087 38.045,27.686 38.204,27.262 C38.908,25.387 39.784,23.052 39.784,21.424 C39.784,11.272 31.530,3.012 21.385,3.012 C11.240,3.012 2.986,11.272 2.986,21.424 C2.986,23.052 3.862,25.387 4.566,27.262 C4.726,27.686 4.876,28.087 5.008,28.456 Z" id="path-4" class="cls-5" fill-rule="evenodd"/>
    <path d="M23.602,50.356 C23.602,50.356 25.858,43.028 25.858,43.028 C26.637,41.453 25.492,39.210 23.736,39.210 C23.736,39.210 19.242,39.210 19.242,39.210 C17.490,39.210 16.345,41.447 17.117,43.021 C17.117,43.021 19.355,50.150 19.355,50.150 C20.221,51.913 22.731,52.116 23.602,50.356 Z" id="path-5" class="cls-5" fill-rule="evenodd"/>
  </g>
</svg>
