<svg xmlns="http://www.w3.org/2000/svg" xmlns:xlink="http://www.w3.org/1999/xlink" preserveAspectRatio="xMidYMid" width="63" height="49" viewBox="0 0 63 49">
  <defs>
    <style>

      .cls-3 {
        fill: #000000;
      }

      .cls-4 {
        fill: #8b71b5;
      }
    </style>
  </defs>
  <g id="group-41svg">
    <path d="M7.545,48.375 C7.545,48.375 1.500,48.375 1.500,48.375 C0.672,48.375 -0.000,47.702 -0.000,46.874 C-0.000,46.045 0.672,45.373 1.500,45.373 C1.500,45.373 7.545,45.373 7.545,45.373 C8.065,45.373 8.348,45.346 8.500,45.318 C8.500,45.313 8.500,45.307 8.500,45.301 C8.500,45.301 8.500,41.416 8.500,41.416 C8.500,39.383 10.272,36.366 12.721,36.366 C12.721,36.366 17.896,36.366 17.896,36.366 C18.184,36.366 18.373,36.356 18.498,36.344 C18.499,36.313 18.500,36.277 18.500,36.237 C18.500,36.237 18.500,33.647 18.500,33.647 C18.500,31.233 20.958,29.361 23.072,29.361 C23.072,29.361 28.248,29.361 28.248,29.361 C28.851,29.361 29.500,29.020 29.500,28.468 C29.500,28.468 29.500,25.878 29.500,25.878 C29.500,23.694 31.077,21.356 33.424,21.356 C33.424,21.356 39.894,21.356 39.894,21.356 C40.287,21.356 40.403,21.272 40.404,21.271 C40.404,21.271 40.500,21.143 40.500,20.698 C40.500,20.698 40.500,19.404 40.500,19.404 C40.500,17.197 42.716,14.351 45.069,14.351 C45.069,14.351 50.245,14.351 50.245,14.351 C51.014,14.351 51.353,14.276 51.494,14.226 C51.494,14.226 51.500,11.097 51.500,11.097 C51.500,9.029 53.018,7.346 54.885,7.346 C54.885,7.346 61.500,7.346 61.500,7.346 C62.328,7.346 63.000,8.018 63.000,8.847 C63.000,9.675 62.328,10.348 61.500,10.348 C61.500,10.348 54.885,10.348 54.885,10.348 C54.732,10.348 54.500,10.683 54.500,11.097 C54.500,11.097 54.500,14.224 54.500,14.224 C54.500,15.651 53.762,17.353 50.245,17.353 C50.245,17.353 45.069,17.353 45.069,17.353 C44.584,17.376 43.500,18.688 43.500,19.404 C43.500,19.404 43.500,20.698 43.500,20.698 C43.500,22.990 42.151,24.358 39.894,24.358 C39.894,24.358 33.424,24.358 33.424,24.358 C32.983,24.358 32.500,25.153 32.500,25.878 C32.500,25.878 32.500,28.468 32.500,28.468 C32.500,30.652 30.632,32.363 28.248,32.363 C28.248,32.363 23.072,32.363 23.072,32.363 C22.358,32.363 21.500,33.152 21.500,33.647 C21.500,33.647 21.500,36.237 21.500,36.237 C21.500,39.368 18.882,39.368 17.896,39.368 C17.896,39.368 12.721,39.368 12.721,39.368 C12.340,39.406 11.500,40.588 11.500,41.416 C11.500,41.416 11.500,45.301 11.500,45.301 C11.500,48.375 8.523,48.375 7.545,48.375 Z" id="path-1" class="cls-3" fill-rule="evenodd"/>
    <path d="M16.234,17.068 C16.307,17.253 16.418,17.480 16.567,17.630 C16.567,17.630 21.263,22.355 21.263,22.355 C21.734,22.828 22.500,22.841 22.972,22.369 C22.972,22.369 27.667,17.677 27.667,17.677 C27.816,17.528 27.927,17.250 28.000,17.065 C28.306,16.291 27.691,15.351 26.859,15.351 C26.859,15.351 23.500,15.351 23.500,15.351 C23.500,15.351 23.500,1.225 23.500,1.225 C23.500,0.557 22.667,0.015 22.000,0.015 C21.333,0.015 20.500,0.557 20.500,1.225 C20.500,1.225 20.500,15.351 20.500,15.351 C20.500,15.351 17.375,15.351 17.375,15.351 C16.543,15.351 15.929,16.294 16.234,17.068 Z" id="path-2" class="cls-4" fill-rule="evenodd"/>
  </g>
</svg>
