<svg xmlns="http://www.w3.org/2000/svg" xmlns:xlink="http://www.w3.org/1999/xlink" preserveAspectRatio="xMidYMid" width="64" height="45" viewBox="0 0 64 45">
  <defs>
    <style>

      .cls-3 {
        fill: #edc951;
      }

      .cls-4 {
        fill: #81bda4;
      }

      .cls-6 {
        fill: #53ecf4;
      }

      .cls-7 {
        fill: #000000;
      }
    </style>
  </defs>
  <g id="group-19svg">
    <path d="M57.000,37.028 C57.000,37.028 60.000,37.028 60.000,37.028 C62.209,37.028 64.000,35.236 64.000,33.025 C64.000,33.025 64.000,13.011 64.000,13.011 C64.000,10.809 62.200,9.008 60.000,9.008 C60.000,9.008 8.000,9.008 8.000,9.008 C5.800,9.008 4.000,10.809 4.000,13.011 C4.000,13.011 4.000,33.025 4.000,33.025 C4.000,35.236 5.791,37.028 8.000,37.028 C8.000,37.028 11.000,37.028 11.000,37.028 C11.000,37.028 11.000,37.028 11.000,37.028 " id="path-1" class="cls-3" fill-rule="evenodd"/>
    <path d="M56.649,39.072 C56.649,41.436 54.734,43.353 52.372,43.353 C50.010,43.353 48.095,41.436 48.095,39.072 C48.095,36.708 50.010,34.792 52.372,34.792 C54.734,34.792 56.649,36.708 56.649,39.072 Z" id="path-2" class="cls-4" fill-rule="evenodd"/>
    <path d="M20.442,39.072 C20.442,41.436 18.527,43.353 16.165,43.353 C13.803,43.353 11.888,41.436 11.888,39.072 C11.888,36.708 13.803,34.792 16.165,34.792 C18.527,34.792 20.442,36.708 20.442,39.072 Z" id="path-3" class="cls-4" fill-rule="evenodd"/>
    <path d="M55.000,18.014 C55.000,16.909 54.104,16.013 53.000,16.013 C53.000,16.013 14.000,16.013 14.000,16.013 C12.895,16.013 12.000,16.909 12.000,18.014 C12.000,18.014 12.000,24.019 12.000,24.019 C12.000,25.124 12.895,26.020 14.000,26.020 C14.000,26.020 53.000,26.020 53.000,26.020 C54.104,26.020 55.000,25.124 55.000,24.019 C55.000,24.019 55.000,18.014 55.000,18.014 Z" id="path-4" class="cls-6" fill-rule="evenodd"/>
    <path d="M50.500,26.020 C50.500,26.020 11.500,26.020 11.500,26.020 C9.570,26.020 8.000,24.449 8.000,22.518 C8.000,22.518 8.000,16.513 8.000,16.513 C8.000,14.582 9.570,13.011 11.500,13.011 C11.500,13.011 50.500,13.011 50.500,13.011 C52.430,13.011 54.000,14.582 54.000,16.513 C54.000,16.513 54.000,22.518 54.000,22.518 C54.000,24.449 52.430,26.020 50.500,26.020 ZM11.500,16.013 C11.225,16.013 11.000,16.237 11.000,16.513 C11.000,16.513 11.000,22.518 11.000,22.518 C11.000,22.794 11.225,23.018 11.500,23.018 C11.500,23.018 50.500,23.018 50.500,23.018 C50.775,23.018 51.000,22.794 51.000,22.518 C51.000,22.518 51.000,16.513 51.000,16.513 C51.000,16.237 50.775,16.013 50.500,16.013 C50.500,16.013 11.500,16.013 11.500,16.013 Z" id="path-5" class="cls-7" fill-rule="evenodd"/>
    <path d="M57.500,37.028 C57.500,37.028 54.000,37.028 54.000,37.028 C53.172,37.028 52.500,36.356 52.500,35.527 C52.500,34.698 53.172,34.026 54.000,34.026 C54.000,34.026 57.500,34.026 57.500,34.026 C58.879,34.026 60.000,32.903 60.000,31.524 C60.000,31.524 60.000,11.510 60.000,11.510 C60.000,10.130 58.879,9.008 57.500,9.008 C57.500,9.008 5.500,9.008 5.500,9.008 C4.121,9.008 3.000,10.130 3.000,11.510 C3.000,11.510 3.000,31.524 3.000,31.524 C3.000,32.903 4.121,34.026 5.500,34.026 C5.500,34.026 9.000,34.026 9.000,34.026 C9.828,34.026 10.500,34.698 10.500,35.527 C10.500,36.356 9.828,37.028 9.000,37.028 C9.000,37.028 5.500,37.028 5.500,37.028 C2.468,37.028 -0.000,34.559 -0.000,31.524 C-0.000,31.524 -0.000,11.510 -0.000,11.510 C-0.000,8.475 2.468,6.006 5.500,6.006 C5.500,6.006 57.500,6.006 57.500,6.006 C60.532,6.006 63.000,8.475 63.000,11.510 C63.000,11.510 63.000,31.524 63.000,31.524 C63.000,34.559 60.532,37.028 57.500,37.028 Z" id="path-6" class="cls-7" fill-rule="evenodd"/>
    <path d="M45.000,37.028 C45.000,37.028 17.000,37.028 17.000,37.028 C16.172,37.028 15.500,36.356 15.500,35.527 C15.500,34.698 16.172,34.026 17.000,34.026 C17.000,34.026 45.000,34.026 45.000,34.026 C45.828,34.026 46.500,34.698 46.500,35.527 C46.500,36.356 45.828,37.028 45.000,37.028 Z" id="path-7" class="cls-7" fill-rule="evenodd"/>
    <path d="M49.372,43.853 C46.187,43.853 43.595,41.259 43.595,38.072 C43.595,34.883 46.187,32.290 49.372,32.290 C52.558,32.290 55.149,34.883 55.149,38.072 C55.149,41.259 52.558,43.853 49.372,43.853 ZM49.372,35.292 C47.841,35.292 46.595,36.539 46.595,38.072 C46.595,39.604 47.841,40.851 49.372,40.851 C50.903,40.851 52.149,39.604 52.149,38.072 C52.149,36.539 50.903,35.292 49.372,35.292 Z" id="path-8" class="cls-7" fill-rule="evenodd"/>
    <path d="M13.165,43.853 C9.979,43.853 7.388,41.259 7.388,38.072 C7.388,34.883 9.979,32.290 13.165,32.290 C16.351,32.290 18.942,34.883 18.942,38.072 C18.942,41.259 16.351,43.853 13.165,43.853 ZM13.165,35.292 C11.634,35.292 10.388,36.539 10.388,38.072 C10.388,39.604 11.634,40.851 13.165,40.851 C14.696,40.851 15.942,39.604 15.942,38.072 C15.942,36.539 14.696,35.292 13.165,35.292 Z" id="path-9" class="cls-7" fill-rule="evenodd"/>
    <path d="M60.000,29.022 C60.000,29.022 57.000,29.022 57.000,29.022 C56.172,29.022 55.500,28.350 55.500,27.521 C55.500,26.692 56.172,26.020 57.000,26.020 C57.000,26.020 60.000,26.020 60.000,26.020 C60.828,26.020 61.500,26.692 61.500,27.521 C61.500,28.350 60.828,29.022 60.000,29.022 Z" id="path-10" class="cls-7" fill-rule="evenodd"/>
    <path d="M43.500,24.519 C42.672,24.519 42.000,23.847 42.000,23.018 C42.000,23.018 42.000,16.013 42.000,16.013 C42.000,15.184 42.672,14.512 43.500,14.512 C44.328,14.512 45.000,15.184 45.000,16.013 C45.000,16.013 45.000,23.018 45.000,23.018 C45.000,23.847 44.328,24.519 43.500,24.519 Z" id="path-11" class="cls-7" fill-rule="evenodd"/>
    <path d="M36.500,24.519 C35.672,24.519 35.000,23.847 35.000,23.018 C35.000,23.018 35.000,16.013 35.000,16.013 C35.000,15.184 35.672,14.512 36.500,14.512 C37.328,14.512 38.000,15.184 38.000,16.013 C38.000,16.013 38.000,23.018 38.000,23.018 C38.000,23.847 37.328,24.519 36.500,24.519 Z" id="path-12" class="cls-7" fill-rule="evenodd"/>
    <path d="M29.500,24.519 C28.672,24.519 28.000,23.847 28.000,23.018 C28.000,23.018 28.000,16.013 28.000,16.013 C28.000,15.184 28.672,14.512 29.500,14.512 C30.328,14.512 31.000,15.184 31.000,16.013 C31.000,16.013 31.000,23.018 31.000,23.018 C31.000,23.847 30.328,24.519 29.500,24.519 Z" id="path-13" class="cls-7" fill-rule="evenodd"/>
    <path d="M23.500,24.519 C22.672,24.519 22.000,23.847 22.000,23.018 C22.000,23.018 22.000,16.013 22.000,16.013 C22.000,15.184 22.672,14.512 23.500,14.512 C24.328,14.512 25.000,15.184 25.000,16.013 C25.000,16.013 25.000,23.018 25.000,23.018 C25.000,23.847 24.328,24.519 23.500,24.519 Z" id="path-14" class="cls-7" fill-rule="evenodd"/>
    <path d="M15.500,24.519 C14.672,24.519 14.000,23.847 14.000,23.018 C14.000,23.018 14.000,16.013 14.000,16.013 C14.000,15.184 14.672,14.512 15.500,14.512 C16.328,14.512 17.000,15.184 17.000,16.013 C17.000,16.013 17.000,23.018 17.000,23.018 C17.000,23.847 16.328,24.519 15.500,24.519 Z" id="path-15" class="cls-7" fill-rule="evenodd"/>
    <path d="M42.000,3.004 C42.000,3.004 21.000,3.004 21.000,3.004 C20.172,3.004 19.500,2.332 19.500,1.503 C19.500,0.674 20.172,0.002 21.000,0.002 C21.000,0.002 42.000,0.002 42.000,0.002 C42.828,0.002 43.500,0.674 43.500,1.503 C43.500,2.332 42.828,3.004 42.000,3.004 Z" id="path-16" class="cls-7" fill-rule="evenodd"/>
  </g>
</svg>
