<svg xmlns="http://www.w3.org/2000/svg" xmlns:xlink="http://www.w3.org/1999/xlink" preserveAspectRatio="xMidYMid" width="66" height="54" viewBox="0 0 66 54">
  <defs>
    <style>

      .cls-3 {
        fill: #edc951;
      }

      .cls-4 {
        fill: #e56a77;
      }

      .cls-5 {
        fill: #53ecf4;
      }

      .cls-10 {
        fill: #000000;
      }
    </style>
  </defs>
  <g id="group-28svg">
    <path d="M6.000,39.024 C6.000,39.024 6.000,34.021 6.000,34.021 C6.000,31.819 7.800,30.018 10.000,30.018 C10.000,30.018 38.294,30.018 38.294,30.018 C38.684,30.018 39.000,29.702 39.000,29.311 C39.000,29.311 39.000,16.126 39.000,16.126 C39.000,14.960 39.953,14.006 41.118,14.006 C41.118,14.006 53.755,14.006 53.755,14.006 C55.310,14.006 56.698,14.686 57.226,16.150 C57.226,16.150 61.733,25.356 61.733,25.356 C62.034,26.190 62.625,26.814 63.397,27.249 C63.397,27.249 65.022,28.633 65.022,28.633 C66.185,29.287 66.000,30.481 66.000,31.816 C66.000,31.816 66.000,39.024 66.000,39.024 C66.000,39.024 63.809,39.024 63.809,39.024 C63.809,39.024 6.000,39.024 6.000,39.024 Z" id="path-1" class="cls-3" fill-rule="evenodd"/>
    <path d="M56.000,20.011 C56.000,20.011 45.353,20.011 45.353,20.011 C44.370,20.011 42.000,20.755 42.000,21.739 C42.000,21.739 42.000,25.299 42.000,25.299 C42.000,26.283 44.370,27.016 45.353,27.016 C45.353,27.016 60.000,27.016 60.000,27.016 C60.000,27.016 60.000,27.016 60.000,27.016 " id="path-2" class="cls-4" fill-rule="evenodd"/>
    <path d="M6.000,47.030 C6.000,47.030 66.000,47.030 66.000,47.030 C66.000,47.030 66.000,40.025 66.000,40.025 C66.000,40.025 6.000,40.025 6.000,40.025 C6.000,40.025 6.000,47.030 6.000,47.030 Z" id="path-3" class="cls-5" fill-rule="evenodd"/>
    <path d="M23.621,2.999 C23.621,2.999 12.000,2.999 12.000,2.999 C9.800,2.999 8.000,4.800 8.000,7.001 C8.000,7.001 8.000,18.578 8.000,18.578 C8.000,19.722 9.667,20.649 10.810,20.649 C10.810,20.649 23.890,16.474 23.890,16.474 C25.823,15.793 26.000,14.546 26.000,13.402 C26.000,13.402 26.000,5.379 26.000,5.379 C26.000,4.070 24.930,2.999 23.621,2.999 Z" id="path-4" class="cls-5" fill-rule="evenodd"/>
    <path d="M61.037,48.254 C61.037,50.523 59.199,52.362 56.932,52.362 C54.665,52.362 52.827,50.523 52.827,48.254 C52.827,45.986 54.665,44.146 56.932,44.146 C59.199,44.146 61.037,45.986 61.037,48.254 Z" id="path-5" class="cls-4" fill-rule="evenodd"/>
    <path d="M30.002,48.254 C30.002,50.523 28.164,52.362 25.897,52.362 C23.630,52.362 21.792,50.523 21.792,48.254 C21.792,45.986 23.630,44.146 25.897,44.146 C28.164,44.146 30.002,45.986 30.002,48.254 Z" id="path-6" class="cls-4" fill-rule="evenodd"/>
    <path d="M19.657,48.254 C19.657,50.523 17.819,52.362 15.553,52.362 C13.285,52.362 11.447,50.523 11.447,48.254 C11.447,45.986 13.285,44.146 15.553,44.146 C17.819,44.146 19.657,45.986 19.657,48.254 Z" id="path-7" class="cls-4" fill-rule="evenodd"/>
    <path d="M61.500,39.024 C61.500,39.024 1.500,39.024 1.500,39.024 C0.672,39.024 -0.000,38.352 -0.000,37.523 C-0.000,37.523 -0.000,32.520 -0.000,32.520 C-0.000,29.485 2.468,27.016 5.500,27.016 C5.500,27.016 33.000,27.016 33.000,27.016 C33.000,27.016 33.000,15.125 33.000,15.125 C33.000,12.853 34.848,11.004 37.118,11.004 C37.118,11.004 48.755,11.004 48.755,11.004 C50.917,11.004 52.855,12.329 53.607,14.310 C53.607,14.310 58.084,23.577 58.084,23.577 C58.106,23.624 58.127,23.671 58.144,23.720 C58.319,24.206 58.670,24.617 59.132,24.877 C59.191,24.910 59.247,24.947 59.301,24.987 C59.301,24.987 61.104,26.349 61.104,26.349 C63.000,27.483 63.000,29.564 63.000,30.815 C63.000,30.815 63.000,37.523 63.000,37.523 C63.000,38.352 62.328,39.024 61.500,39.024 ZM3.000,36.022 C3.000,36.022 60.000,36.022 60.000,36.022 C60.000,36.022 60.000,30.815 60.000,30.815 C60.000,29.399 59.864,29.094 59.538,28.911 C59.479,28.877 59.423,28.840 59.369,28.800 C59.369,28.800 57.567,27.439 57.567,27.439 C56.550,26.838 55.768,25.914 55.352,24.819 C55.352,24.819 50.875,15.552 50.875,15.552 C50.852,15.505 50.832,15.457 50.814,15.408 C50.508,14.557 49.699,14.006 48.755,14.006 C48.755,14.006 37.118,14.006 37.118,14.006 C36.512,14.006 36.000,14.519 36.000,15.125 C36.000,15.125 36.000,27.310 36.000,27.310 C36.000,28.803 34.786,30.018 33.294,30.018 C33.294,30.018 5.500,30.018 5.500,30.018 C4.121,30.018 3.000,31.140 3.000,32.520 C3.000,32.520 3.000,36.022 3.000,36.022 Z" id="path-8" class="cls-10" fill-rule="evenodd"/>
    <path d="M7.000,48.031 C7.000,48.031 1.500,48.031 1.500,48.031 C0.672,48.031 -0.000,47.359 -0.000,46.529 C-0.000,46.529 -0.000,38.023 -0.000,38.023 C-0.000,37.194 0.672,36.522 1.500,36.522 C2.328,36.522 3.000,37.194 3.000,38.023 C3.000,38.023 3.000,45.028 3.000,45.028 C3.000,45.028 7.000,45.028 7.000,45.028 C7.828,45.028 8.500,45.700 8.500,46.529 C8.500,47.359 7.828,48.031 7.000,48.031 Z" id="path-9" class="cls-10" fill-rule="evenodd"/>
    <path d="M49.000,48.031 C49.000,48.031 27.000,48.031 27.000,48.031 C26.172,48.031 25.500,47.359 25.500,46.529 C25.500,45.700 26.172,45.028 27.000,45.028 C27.000,45.028 49.000,45.028 49.000,45.028 C49.828,45.028 50.500,45.700 50.500,46.529 C50.500,47.359 49.828,48.031 49.000,48.031 Z" id="path-10" class="cls-10" fill-rule="evenodd"/>
    <path d="M61.500,48.031 C61.500,48.031 58.000,48.031 58.000,48.031 C57.172,48.031 56.500,47.359 56.500,46.529 C56.500,45.700 57.172,45.028 58.000,45.028 C58.000,45.028 60.000,45.028 60.000,45.028 C60.000,45.028 60.000,38.023 60.000,38.023 C60.000,37.194 60.672,36.522 61.500,36.522 C62.328,36.522 63.000,37.194 63.000,38.023 C63.000,38.023 63.000,46.529 63.000,46.529 C63.000,47.359 62.328,48.031 61.500,48.031 Z" id="path-11" class="cls-10" fill-rule="evenodd"/>
    <path d="M57.000,27.016 C57.000,27.016 42.352,27.016 42.352,27.016 C39.668,27.016 38.000,25.974 38.000,24.298 C38.000,24.298 38.000,20.738 38.000,20.738 C38.000,18.751 40.713,17.009 42.352,17.009 C42.352,17.009 53.000,17.009 53.000,17.009 C53.828,17.009 54.500,17.680 54.500,18.510 C54.500,19.339 53.828,20.011 53.000,20.011 C53.000,20.011 42.352,20.011 42.352,20.011 C42.016,20.042 41.218,20.559 41.000,20.881 C41.000,20.881 41.000,23.842 41.000,23.842 C41.296,23.930 41.796,24.013 42.352,24.013 C42.352,24.013 57.000,24.013 57.000,24.013 C57.828,24.013 58.500,24.685 58.500,25.515 C58.500,26.344 57.828,27.016 57.000,27.016 Z" id="path-12" class="cls-10" fill-rule="evenodd"/>
    <path d="M53.932,52.863 C50.842,52.863 48.327,50.347 48.327,47.254 C48.327,44.161 50.842,41.645 53.932,41.645 C57.022,41.645 59.537,44.161 59.537,47.254 C59.537,50.347 57.022,52.863 53.932,52.863 ZM53.932,44.647 C52.495,44.647 51.327,45.817 51.327,47.254 C51.327,48.691 52.495,49.860 53.932,49.860 C55.368,49.860 56.537,48.691 56.537,47.254 C56.537,45.817 55.368,44.647 53.932,44.647 Z" id="path-13" class="cls-10" fill-rule="evenodd"/>
    <path d="M22.897,52.863 C19.807,52.863 17.292,50.347 17.292,47.254 C17.292,44.161 19.807,41.645 22.897,41.645 C25.988,41.645 28.502,44.161 28.502,47.254 C28.502,50.347 25.988,52.863 22.897,52.863 ZM22.897,44.647 C21.461,44.647 20.292,45.817 20.292,47.254 C20.292,48.691 21.461,49.860 22.897,49.860 C24.334,49.860 25.502,48.691 25.502,47.254 C25.502,45.817 24.334,44.647 22.897,44.647 Z" id="path-14" class="cls-10" fill-rule="evenodd"/>
    <path d="M12.553,52.863 C9.462,52.863 6.947,50.347 6.947,47.254 C6.947,44.161 9.462,41.645 12.553,41.645 C15.643,41.645 18.157,44.161 18.157,47.254 C18.157,50.347 15.643,52.863 12.553,52.863 ZM12.553,44.647 C11.116,44.647 9.947,45.817 9.947,47.254 C9.947,48.691 11.116,49.860 12.553,49.860 C13.989,49.860 15.157,48.691 15.157,47.254 C15.157,45.817 13.989,44.647 12.553,44.647 Z" id="path-15" class="cls-10" fill-rule="evenodd"/>
    <path d="M7.060,21.149 C5.144,21.149 3.000,19.622 3.000,17.577 C3.000,17.577 3.000,5.500 3.000,5.500 C3.000,2.466 5.468,-0.004 8.500,-0.004 C8.500,-0.004 19.621,-0.004 19.621,-0.004 C22.035,-0.004 24.000,1.962 24.000,4.379 C24.000,4.379 24.000,12.401 24.000,12.401 C24.000,14.623 22.911,16.132 20.763,16.889 C20.763,16.889 7.512,21.079 7.512,21.079 C7.365,21.126 7.213,21.149 7.060,21.149 ZM8.500,2.999 C7.121,2.999 6.000,4.121 6.000,5.500 C6.000,5.500 6.000,17.577 6.000,17.577 C6.041,17.721 6.465,18.050 6.884,18.129 C6.884,18.129 19.812,14.041 19.812,14.041 C20.914,13.653 21.000,13.139 21.000,12.401 C21.000,12.401 21.000,4.379 21.000,4.379 C21.000,3.618 20.382,2.999 19.621,2.999 C19.621,2.999 8.500,2.999 8.500,2.999 Z" id="path-16" class="cls-10" fill-rule="evenodd"/>
    <path d="M56.228,10.355 C55.812,10.355 55.399,10.278 55.032,10.116 C54.131,9.720 53.624,8.910 53.642,7.895 C53.652,7.343 54.154,6.898 54.659,6.912 C55.211,6.922 55.651,7.377 55.642,7.930 C55.638,8.165 55.710,8.235 55.863,8.295 C56.185,8.419 56.592,8.333 56.778,8.236 C56.627,7.698 56.628,6.808 56.674,6.001 C56.674,6.001 22.000,6.001 22.000,6.001 C21.447,6.001 21.000,5.553 21.000,5.000 C21.000,4.447 21.447,3.999 22.000,3.999 C22.000,3.999 57.757,3.999 57.757,3.999 C58.040,3.999 58.309,4.120 58.499,4.329 C58.688,4.540 58.780,4.820 58.752,5.102 C58.641,6.190 58.615,7.392 58.696,7.675 C58.960,8.368 58.789,9.105 58.234,9.632 C57.742,10.100 56.982,10.355 56.228,10.355 Z" id="path-17" class="cls-10" fill-rule="evenodd"/>
    <path d="M57.000,1.998 C57.000,1.998 19.000,1.998 19.000,1.998 C18.447,1.998 18.000,1.550 18.000,0.997 C18.000,0.445 18.447,-0.004 19.000,-0.004 C19.000,-0.004 57.000,-0.004 57.000,-0.004 C57.553,-0.004 58.000,0.445 58.000,0.997 C58.000,1.550 57.553,1.998 57.000,1.998 Z" id="path-18" class="cls-10" fill-rule="evenodd"/>
    <path d="M22.898,13.027 C22.540,13.027 22.194,12.834 22.015,12.496 C21.755,12.007 21.940,11.402 22.429,11.142 C22.429,11.142 33.895,5.047 33.895,5.047 C34.382,4.788 34.986,4.974 35.246,5.462 C35.506,5.950 35.320,6.556 34.832,6.815 C34.832,6.815 23.366,12.910 23.366,12.910 C23.217,12.989 23.057,13.027 22.898,13.027 Z" id="path-19" class="cls-10" fill-rule="evenodd"/>
  </g>
</svg>
