<svg xmlns="http://www.w3.org/2000/svg" xmlns:xlink="http://www.w3.org/1999/xlink" preserveAspectRatio="xMidYMid" width="68" height="27" viewBox="0 0 68 27">
  <defs>
    <style>

      .cls-3 {
        fill: #edc951;
      }

      .cls-4 {
        fill: #53ecf4;
      }

      .cls-5 {
        fill: #000000;
      }
    </style>
  </defs>
  <g id="group-38svg">
    <path d="M30.000,12.012 C30.000,12.012 61.675,12.012 61.675,12.012 C61.675,12.012 67.097,16.774 67.097,16.774 C67.097,16.774 62.192,21.018 62.192,21.018 C62.192,21.018 57.331,21.018 57.331,21.018 C57.331,21.018 55.576,18.680 55.576,18.680 C55.576,18.680 52.624,21.174 52.624,21.174 C52.624,21.174 49.689,18.917 49.689,18.917 C49.689,18.917 48.592,21.018 48.592,21.018 C48.592,21.018 32.000,21.018 32.000,21.018 C32.000,21.018 32.000,21.018 32.000,21.018 " id="path-1" class="cls-3" fill-rule="evenodd"/>
    <path d="M33.000,9.010 C33.000,5.694 30.313,3.005 27.000,3.005 C27.000,3.005 12.000,3.005 12.000,3.005 C8.687,3.005 6.000,5.694 6.000,9.010 C6.000,9.010 6.000,20.018 6.000,20.018 C6.000,23.333 8.687,26.022 12.000,26.022 C12.000,26.022 27.000,26.022 27.000,26.022 C30.313,26.022 33.000,23.333 33.000,20.018 C33.000,20.018 33.000,9.010 33.000,9.010 Z" id="path-2" class="cls-4" fill-rule="evenodd"/>
    <path d="M38.000,21.018 C38.000,21.018 30.000,21.018 30.000,21.018 C29.172,21.018 28.500,20.346 28.500,19.517 C28.500,18.688 29.172,18.016 30.000,18.016 C30.000,18.016 38.000,18.016 38.000,18.016 C38.828,18.016 39.500,18.688 39.500,19.517 C39.500,20.346 38.828,21.018 38.000,21.018 Z" id="path-3" class="cls-5" fill-rule="evenodd"/>
    <path d="M47.624,21.549 C47.334,21.549 47.044,21.465 46.790,21.295 C46.790,21.295 45.066,20.141 45.066,20.141 C45.066,20.141 44.754,20.579 44.754,20.579 C44.274,21.256 43.336,21.412 42.662,20.932 C41.987,20.450 41.830,19.513 42.310,18.838 C42.310,18.838 43.468,17.212 43.468,17.212 C43.938,16.550 44.851,16.384 45.523,16.835 C45.523,16.835 47.496,18.156 47.496,18.156 C47.496,18.156 49.581,16.306 49.581,16.306 C49.884,16.037 50.280,15.902 50.685,15.932 C51.089,15.961 51.464,16.153 51.725,16.463 C51.725,16.463 53.029,18.016 53.029,18.016 C53.029,18.016 56.634,18.016 56.634,18.016 C56.634,18.016 59.813,15.265 59.813,15.265 C59.813,15.265 56.110,12.012 56.110,12.012 C56.110,12.012 30.000,12.012 30.000,12.012 C29.172,12.012 28.500,11.340 28.500,10.511 C28.500,9.682 29.172,9.010 30.000,9.010 C30.000,9.010 56.675,9.010 56.675,9.010 C57.039,9.010 57.391,9.142 57.664,9.383 C57.664,9.383 63.086,14.145 63.086,14.145 C63.412,14.431 63.599,14.844 63.597,15.279 C63.595,15.713 63.406,16.125 63.078,16.409 C63.078,16.409 58.174,20.653 58.174,20.653 C57.901,20.888 57.553,21.018 57.192,21.018 C57.192,21.018 52.331,21.018 52.331,21.018 C51.889,21.018 51.468,20.822 51.183,20.483 C51.183,20.483 50.419,19.574 50.419,19.574 C50.419,19.574 48.619,21.171 48.619,21.171 C48.337,21.421 47.981,21.549 47.624,21.549 Z" id="path-4" class="cls-5" fill-rule="evenodd"/>
    <path d="M22.500,26.022 C22.500,26.022 7.500,26.022 7.500,26.022 C3.364,26.022 -0.000,22.655 -0.000,18.517 C-0.000,18.517 -0.000,7.509 -0.000,7.509 C-0.000,3.370 3.364,0.003 7.500,0.003 C7.500,0.003 22.500,0.003 22.500,0.003 C26.636,0.003 30.000,3.370 30.000,7.509 C30.000,7.509 30.000,18.517 30.000,18.517 C30.000,22.655 26.636,26.022 22.500,26.022 ZM7.500,3.005 C5.019,3.005 3.000,5.025 3.000,7.509 C3.000,7.509 3.000,18.517 3.000,18.517 C3.000,21.000 5.019,23.020 7.500,23.020 C7.500,23.020 22.500,23.020 22.500,23.020 C24.981,23.020 27.000,21.000 27.000,18.517 C27.000,18.517 27.000,7.509 27.000,7.509 C27.000,5.025 24.981,3.005 22.500,3.005 C22.500,3.005 7.500,3.005 7.500,3.005 Z" id="path-5" class="cls-5" fill-rule="evenodd"/>
  </g>
</svg>
