<svg xmlns="http://www.w3.org/2000/svg" xmlns:xlink="http://www.w3.org/1999/xlink" preserveAspectRatio="xMidYMid" width="60" height="66" viewBox="0 0 60 66">
  <defs>
    <style>

      .cls-3 {
        fill: #53ecf4;
      }

      .cls-4 {
        fill: #edc951;
      }

      .cls-5 {
        fill: #e56a77;
      }

      .cls-6 {
        fill: #000000;
      }
    </style>
  </defs>
  <g id="group-4svg">
    <path d="M38.863,51.033 C38.863,51.033 14.710,51.033 14.710,51.033 C11.569,51.033 9.000,48.462 9.000,45.319 C9.000,45.319 9.000,12.005 9.000,12.005 C9.000,7.584 12.582,4.000 17.000,4.000 C17.000,4.000 35.000,4.000 35.000,4.000 C39.418,4.000 43.000,7.584 43.000,12.005 C43.000,12.005 43.000,46.893 43.000,46.893 C43.000,49.170 41.138,51.033 38.863,51.033 Z" id="path-1" class="cls-3" fill-rule="evenodd"/>
    <path d="M33.225,38.761 C33.706,42.874 31.702,44.732 27.563,44.732 C23.425,44.732 21.634,42.862 22.207,38.761 C22.818,34.394 27.563,29.429 27.563,29.429 C27.563,29.429 32.739,34.623 33.225,38.761 Z" id="path-2" class="cls-4" fill-rule="evenodd"/>
    <path d="M48.000,61.040 C48.000,63.251 46.209,65.043 44.000,65.043 C44.000,65.043 8.000,65.043 8.000,65.043 C5.791,65.043 4.000,63.251 4.000,61.040 C4.000,61.040 4.000,61.040 4.000,61.040 C4.000,58.830 5.791,57.037 8.000,57.037 C8.000,57.037 44.000,57.037 44.000,57.037 C46.209,57.037 48.000,58.830 48.000,61.040 C48.000,61.040 48.000,61.040 48.000,61.040 Z" id="path-3" class="cls-5" fill-rule="evenodd"/>
    <path d="M34.500,22.013 C34.500,22.013 13.500,22.013 13.500,22.013 C12.671,22.013 12.000,21.341 12.000,20.511 C12.000,20.511 12.000,11.505 12.000,11.505 C12.000,10.676 12.671,10.004 13.500,10.004 C13.500,10.004 34.500,10.004 34.500,10.004 C35.329,10.004 36.000,10.676 36.000,11.505 C36.000,11.505 36.000,20.511 36.000,20.511 C36.000,21.341 35.329,22.013 34.500,22.013 ZM15.000,19.010 C15.000,19.010 33.000,19.010 33.000,19.010 C33.000,19.010 33.000,13.006 33.000,13.006 C33.000,13.006 15.000,13.006 15.000,13.006 C15.000,13.006 15.000,19.010 15.000,19.010 Z" id="path-4" class="cls-6" fill-rule="evenodd"/>
    <path d="M41.500,64.042 C41.500,64.042 5.500,64.042 5.500,64.042 C2.467,64.042 -0.000,61.573 -0.000,58.538 C-0.000,55.503 2.467,53.034 5.500,53.034 C5.500,53.034 41.500,53.034 41.500,53.034 C44.533,53.034 47.000,55.503 47.000,58.538 C47.000,61.573 44.533,64.042 41.500,64.042 ZM5.500,56.037 C4.122,56.037 3.000,57.159 3.000,58.538 C3.000,59.918 4.122,61.040 5.500,61.040 C5.500,61.040 41.500,61.040 41.500,61.040 C42.878,61.040 44.000,59.918 44.000,58.538 C44.000,57.159 42.878,56.037 41.500,56.037 C41.500,56.037 5.500,56.037 5.500,56.037 Z" id="path-5" class="cls-6" fill-rule="evenodd"/>
    <path d="M36.863,50.032 C36.863,50.032 11.710,50.032 11.710,50.032 C8.010,50.032 5.000,47.020 5.000,43.318 C5.000,43.318 5.000,9.504 5.000,9.504 C5.000,4.262 9.262,-0.003 14.500,-0.003 C14.500,-0.003 32.500,-0.003 32.500,-0.003 C37.738,-0.003 42.000,4.262 42.000,9.504 C42.000,9.504 42.000,44.892 42.000,44.892 C42.000,47.726 39.695,50.032 36.863,50.032 ZM14.500,2.999 C10.916,2.999 8.000,5.917 8.000,9.504 C8.000,9.504 8.000,43.318 8.000,43.318 C8.000,45.365 9.664,47.030 11.710,47.030 C11.710,47.030 36.863,47.030 36.863,47.030 C38.041,47.030 39.000,46.071 39.000,44.892 C39.000,44.892 39.000,9.504 39.000,9.504 C39.000,5.917 36.084,2.999 32.500,2.999 C32.500,2.999 14.500,2.999 14.500,2.999 Z" id="path-6" class="cls-6" fill-rule="evenodd"/>
    <path d="M54.308,38.024 C54.308,38.024 54.192,38.024 54.192,38.024 C50.733,38.024 47.000,35.826 47.000,32.275 C47.000,32.275 47.000,18.873 47.000,18.873 C47.000,16.972 46.398,16.008 45.210,16.008 C45.210,16.008 41.000,16.008 41.000,16.008 C40.171,16.008 39.500,15.336 39.500,14.507 C39.500,13.678 40.171,13.006 41.000,13.006 C41.000,13.006 45.210,13.006 45.210,13.006 C48.165,13.006 50.000,15.254 50.000,18.873 C50.000,18.873 50.000,32.275 50.000,32.275 C50.000,33.894 52.209,35.022 54.192,35.022 C54.192,35.022 54.308,35.022 54.308,35.022 C56.120,35.022 57.000,34.123 57.000,32.275 C57.000,32.275 57.000,14.897 57.000,14.897 C57.000,14.897 51.027,8.158 51.027,8.158 C50.477,7.538 50.534,6.590 51.153,6.040 C51.774,5.490 52.722,5.546 53.271,6.166 C53.271,6.166 59.622,13.331 59.622,13.331 C59.866,13.605 60.000,13.960 60.000,14.327 C60.000,14.327 60.000,32.275 60.000,32.275 C60.000,35.767 57.766,38.024 54.308,38.024 Z" id="path-7" class="cls-6" fill-rule="evenodd"/>
    <path d="M24.563,44.231 C21.958,44.231 20.117,43.570 18.934,42.208 C17.789,40.892 17.381,38.988 17.722,36.552 C18.392,31.760 23.271,26.608 23.479,26.391 C23.758,26.098 24.144,25.931 24.547,25.927 C24.960,25.923 25.339,26.082 25.625,26.368 C26.192,26.937 31.184,32.061 31.714,36.585 C31.993,38.963 31.540,40.838 30.367,42.157 C29.143,43.534 27.190,44.231 24.563,44.231 ZM24.594,29.678 C23.252,31.315 21.061,34.330 20.692,36.967 C20.478,38.506 20.647,39.606 21.197,40.238 C21.769,40.896 22.901,41.229 24.563,41.229 C26.297,41.229 27.496,40.870 28.125,40.162 C28.704,39.510 28.909,38.424 28.735,36.934 C28.461,34.599 26.196,31.530 24.594,29.678 Z" id="path-8" class="cls-6" fill-rule="evenodd"/>
    <path d="M19.500,20.511 C18.671,20.511 18.000,19.840 18.000,19.010 C18.000,19.010 18.000,16.008 18.000,16.008 C18.000,15.179 18.671,14.507 19.500,14.507 C20.329,14.507 21.000,15.179 21.000,16.008 C21.000,16.008 21.000,19.010 21.000,19.010 C21.000,19.840 20.329,20.511 19.500,20.511 Z" id="path-9" class="cls-6" fill-rule="evenodd"/>
    <path d="M24.500,20.511 C23.671,20.511 23.000,19.840 23.000,19.010 C23.000,19.010 23.000,18.010 23.000,18.010 C23.000,17.180 23.671,16.509 24.500,16.509 C25.329,16.509 26.000,17.180 26.000,18.010 C26.000,18.010 26.000,19.010 26.000,19.010 C26.000,19.840 25.329,20.511 24.500,20.511 Z" id="path-10" class="cls-6" fill-rule="evenodd"/>
    <path d="M29.500,20.511 C28.671,20.511 28.000,19.840 28.000,19.010 C28.000,19.010 28.000,16.008 28.000,16.008 C28.000,15.179 28.671,14.507 29.500,14.507 C30.329,14.507 31.000,15.179 31.000,16.008 C31.000,16.008 31.000,19.010 31.000,19.010 C31.000,19.840 30.329,20.511 29.500,20.511 Z" id="path-11" class="cls-6" fill-rule="evenodd"/>
  </g>
</svg>
