<svg xmlns="http://www.w3.org/2000/svg" xmlns:xlink="http://www.w3.org/1999/xlink" preserveAspectRatio="xMidYMid" width="56" height="65" viewBox="0 0 56 65">
  <defs>
    <style>

      .cls-3 {
        fill: #ff917b;
      }

      .cls-4 {
        fill: #000000;
      }

      .cls-5 {
        fill: #edc951;
      }

      .cls-7 {
        fill: #81bda4;
      }
    </style>
  </defs>
  <g id="group-2svg">
    <path d="M24.768,53.888 C20.965,53.888 17.500,50.803 17.500,46.997 C17.500,46.997 17.500,24.601 17.500,24.601 C17.500,20.795 21.347,16.696 25.150,16.696 C25.150,16.696 37.201,16.696 37.201,16.696 C41.004,16.696 44.500,20.795 44.500,24.601 C44.500,24.601 44.500,46.997 44.500,46.997 C44.500,50.803 41.019,53.888 37.216,53.888 C37.216,53.888 37.216,53.888 37.216,53.888 " id="path-1" class="cls-3" fill-rule="evenodd"/>
    <path d="M34.591,54.388 C33.763,54.388 33.091,53.716 33.091,52.887 C33.091,52.058 33.763,51.386 34.591,51.386 C37.684,51.386 40.500,48.817 40.500,45.996 C40.500,45.996 40.500,23.600 40.500,23.600 C40.500,20.503 37.026,16.696 34.201,16.696 C34.201,16.696 22.150,16.696 22.150,16.696 C19.240,16.696 16.500,20.585 16.500,23.600 C16.500,23.600 16.500,45.996 16.500,45.996 C16.500,48.918 19.027,51.386 22.018,51.386 C22.847,51.386 23.518,52.058 23.518,52.887 C23.518,53.716 22.847,54.388 22.018,54.388 C17.321,54.388 13.500,50.623 13.500,45.996 C13.500,45.996 13.500,23.600 13.500,23.600 C13.500,19.113 17.358,13.694 22.150,13.694 C22.150,13.694 34.201,13.694 34.201,13.694 C38.720,13.694 43.500,18.786 43.500,23.600 C43.500,23.600 43.500,45.996 43.500,45.996 C43.500,50.466 39.337,54.388 34.591,54.388 Z" id="path-2" class="cls-4" fill-rule="evenodd"/>
    <path d="M27.647,44.918 C25.505,44.918 23.500,43.179 23.500,41.034 C23.500,41.034 23.500,28.416 23.500,28.416 C23.500,26.272 25.772,24.702 27.915,24.702 C27.915,24.702 34.705,24.702 34.705,24.702 C36.848,24.702 37.500,26.272 37.500,28.416 C37.500,28.416 37.500,41.034 37.500,41.034 C37.500,43.179 36.171,44.918 34.029,44.918 C34.029,44.918 34.029,44.918 34.029,44.918 " id="path-3" class="cls-5" fill-rule="evenodd"/>
    <path d="M31.404,45.418 C30.575,45.418 29.904,44.746 29.904,43.917 C29.904,43.088 30.575,42.416 31.404,42.416 C32.844,42.416 33.500,41.181 33.500,40.034 C33.500,40.034 33.500,27.415 33.500,27.415 C33.500,26.324 33.022,24.702 31.705,24.702 C31.705,24.702 24.915,24.702 24.915,24.702 C23.674,24.702 22.500,26.020 22.500,27.415 C22.500,27.415 22.500,40.034 22.500,40.034 C22.500,41.347 23.576,42.416 24.897,42.416 C25.726,42.416 26.397,43.088 26.397,43.917 C26.397,44.746 25.726,45.418 24.897,45.418 C21.921,45.418 19.500,43.003 19.500,40.034 C19.500,40.034 19.500,27.415 19.500,27.415 C19.500,24.371 22.030,21.700 24.915,21.700 C24.915,21.700 31.705,21.700 31.705,21.700 C34.483,21.700 36.500,24.104 36.500,27.415 C36.500,27.415 36.500,40.034 36.500,40.034 C36.500,43.103 34.309,45.418 31.404,45.418 Z" id="path-4" class="cls-4" fill-rule="evenodd"/>
    <path d="M35.500,53.872 C35.500,51.579 33.642,49.720 31.351,49.720 C31.351,49.720 29.649,49.720 29.649,49.720 C27.358,49.720 25.500,51.579 25.500,53.872 C25.500,53.872 25.500,59.577 25.500,59.577 C25.500,61.871 27.358,63.730 29.649,63.730 C29.649,63.730 31.351,63.730 31.351,63.730 C33.642,63.730 35.500,61.871 35.500,59.577 C35.500,59.577 35.500,53.872 35.500,53.872 Z" id="path-5" class="cls-7" fill-rule="evenodd"/>
    <path d="M28.851,62.729 C28.851,62.729 27.149,62.729 27.149,62.729 C24.034,62.729 21.500,60.193 21.500,57.076 C21.500,57.076 21.500,51.370 21.500,51.370 C21.500,48.253 24.034,45.717 27.149,45.717 C27.149,45.717 28.851,45.717 28.851,45.717 C31.966,45.717 34.500,48.253 34.500,51.370 C34.500,51.370 34.500,57.076 34.500,57.076 C34.500,60.193 31.966,62.729 28.851,62.729 ZM27.149,48.719 C25.688,48.719 24.500,49.908 24.500,51.370 C24.500,51.370 24.500,57.076 24.500,57.076 C24.500,58.538 25.688,59.727 27.149,59.727 C27.149,59.727 28.851,59.727 28.851,59.727 C30.312,59.727 31.500,58.538 31.500,57.076 C31.500,57.076 31.500,51.370 31.500,51.370 C31.500,49.908 30.312,48.719 28.851,48.719 C28.851,48.719 27.149,48.719 27.149,48.719 Z" id="path-6" class="cls-4" fill-rule="evenodd"/>
    <path d="M36.729,5.802 C36.729,5.802 36.863,6.284 36.863,6.284 C35.683,4.042 33.408,2.510 30.699,2.510 C27.628,2.510 25.060,4.479 24.094,7.221 C24.094,7.221 23.241,5.802 23.241,5.802 C23.241,5.802 11.500,8.638 11.500,8.638 C11.500,8.638 11.500,14.695 11.500,14.695 C11.500,14.695 24.989,14.695 24.989,14.695 C24.989,14.695 24.409,12.751 24.409,12.751 C25.463,15.319 27.827,16.814 30.772,16.814 C33.360,16.814 35.617,15.707 36.842,13.626 C36.842,13.626 36.824,14.695 36.824,14.695 C36.824,14.695 48.500,14.695 48.500,14.695 C48.500,14.695 48.500,8.638 48.500,8.638 C48.500,8.638 36.729,5.802 36.729,5.802 Z" id="path-7" class="cls-7" fill-rule="evenodd"/>
    <path d="M27.772,17.118 C23.059,17.118 19.224,13.280 19.224,8.563 C19.224,3.846 23.059,0.008 27.772,0.008 C32.485,0.008 36.320,3.846 36.320,8.563 C36.320,13.280 32.485,17.118 27.772,17.118 ZM27.772,3.011 C24.712,3.011 22.224,5.502 22.224,8.563 C22.224,11.625 24.712,14.116 27.772,14.116 C30.832,14.116 33.320,11.625 33.320,8.563 C33.320,5.502 30.832,3.011 27.772,3.011 Z" id="path-8" class="cls-4" fill-rule="evenodd"/>
    <path d="M29.979,8.563 C29.979,9.783 28.991,10.772 27.772,10.772 C26.553,10.772 25.565,9.783 25.565,8.563 C25.565,7.343 26.553,6.355 27.772,6.355 C28.991,6.355 29.979,7.343 29.979,8.563 Z" id="path-9" class="cls-4" fill-rule="evenodd"/>
    <path d="M27.772,17.189 C25.395,17.189 23.258,16.277 21.728,14.695 C21.728,14.695 9.000,14.695 9.000,14.695 C8.171,14.695 7.500,14.023 7.500,13.194 C7.500,13.194 7.500,7.637 7.500,7.637 C7.500,6.946 7.971,6.344 8.641,6.179 C8.641,6.179 20.148,3.343 20.148,3.343 C20.431,3.274 20.717,3.290 20.977,3.376 C22.565,1.295 25.058,0.008 27.762,0.008 C30.463,0.008 32.962,1.278 34.561,3.396 C34.561,3.396 46.344,6.176 46.344,6.176 C47.021,6.336 47.500,6.941 47.500,7.637 C47.500,7.637 47.500,13.194 47.500,13.194 C47.500,14.023 46.829,14.695 46.000,14.695 C46.000,14.695 33.890,14.695 33.890,14.695 C32.321,16.282 30.147,17.189 27.772,17.189 ZM21.409,9.999 C22.000,9.999 22.559,10.352 22.797,10.930 C23.634,12.969 25.494,14.187 27.772,14.187 C29.792,14.187 31.579,13.201 32.550,11.551 C32.896,10.962 33.597,10.682 34.253,10.869 C34.688,10.993 35.031,11.301 35.209,11.693 C35.209,11.693 44.500,11.693 44.500,11.693 C44.500,11.693 44.500,8.825 44.500,8.825 C44.500,8.825 34.810,6.539 34.810,6.539 C34.675,6.627 34.524,6.695 34.361,6.737 C33.690,6.910 32.985,6.597 32.661,5.983 C31.696,4.150 29.819,3.011 27.762,3.011 C25.420,3.011 23.321,4.501 22.540,6.719 C22.334,7.301 21.795,7.698 21.179,7.720 C20.551,7.742 19.996,7.385 19.750,6.820 C19.750,6.820 19.637,6.561 19.637,6.561 C19.637,6.561 10.500,8.813 10.500,8.813 C10.500,8.813 10.500,11.693 10.500,11.693 C10.500,11.693 19.921,11.693 19.921,11.693 C19.833,11.016 20.218,10.345 20.881,10.096 C21.055,10.030 21.233,9.999 21.409,9.999 Z" id="path-10" class="cls-4" fill-rule="evenodd"/>
    <path d="M54.500,10.692 C54.500,10.692 50.500,10.692 50.500,10.692 C49.671,10.692 49.000,10.020 49.000,9.191 C49.000,8.362 49.671,7.690 50.500,7.690 C50.500,7.690 54.500,7.690 54.500,7.690 C55.329,7.690 56.000,8.362 56.000,9.191 C56.000,10.020 55.329,10.692 54.500,10.692 Z" id="path-11" class="cls-4" fill-rule="evenodd"/>
    <path d="M5.500,10.692 C5.500,10.692 1.500,10.692 1.500,10.692 C0.671,10.692 -0.000,10.020 -0.000,9.191 C-0.000,8.362 0.671,7.690 1.500,7.690 C1.500,7.690 5.500,7.690 5.500,7.690 C6.329,7.690 7.000,8.362 7.000,9.191 C7.000,10.020 6.329,10.692 5.500,10.692 Z" id="path-12" class="cls-4" fill-rule="evenodd"/>
  </g>
</svg>
