<svg xmlns="http://www.w3.org/2000/svg" xmlns:xlink="http://www.w3.org/1999/xlink" preserveAspectRatio="xMidYMid" width="65" height="44" viewBox="0 0 65 44">
  <defs>
    <style>

      .cls-3 {
        fill: #8b71b5;
      }

      .cls-4 {
        fill: #53ecf4;
      }

      .cls-5 {
        fill: #edc951;
      }

      .cls-6 {
        fill: #000000;
      }
    </style>
  </defs>
  <g id="group-10svg">
    <path d="M8.706,21.020 C8.706,21.020 64.507,21.020 64.507,21.020 C64.507,21.020 61.021,43.035 29.475,43.035 C29.475,43.035 11.305,43.035 11.305,43.035 C9.289,43.035 7.559,41.563 7.181,39.581 C7.181,39.581 4.582,25.967 4.582,25.967 C4.090,23.378 6.072,21.020 8.706,21.020 Z" id="path-1" class="cls-3" fill-rule="evenodd"/>
    <path d="M17.515,21.020 C17.515,21.020 54.264,21.020 54.264,21.020 C54.264,21.020 51.969,3.007 31.192,3.007 C31.192,3.007 19.227,3.007 19.227,3.007 C17.899,3.007 16.759,4.060 16.511,5.365 C16.511,5.365 14.799,17.622 14.799,17.622 C14.475,19.327 15.780,21.020 17.515,21.020 Z" id="path-2" class="cls-4" fill-rule="evenodd"/>
    <path d="M47.591,9.252 C47.591,9.252 29.834,8.371 29.834,8.371 C27.516,8.371 25.219,10.228 25.219,12.548 C25.219,12.548 25.219,19.018 25.219,19.018 C25.219,19.018 51.591,19.018 51.591,19.018 C51.591,19.018 53.091,11.878 47.591,9.252 Z" id="path-3" class="cls-5" fill-rule="evenodd"/>
    <path d="M26.475,43.035 C26.475,43.035 8.305,43.035 8.305,43.035 C5.506,43.035 3.204,41.216 2.707,38.612 C2.707,38.612 0.108,24.870 0.108,24.870 C-0.214,23.174 0.237,21.431 1.348,20.089 C2.436,18.772 4.024,18.017 5.706,18.017 C5.706,18.017 61.507,18.017 61.507,18.017 C61.945,18.017 62.362,18.210 62.647,18.544 C62.933,18.877 63.057,19.320 62.988,19.754 C62.951,19.986 58.927,43.035 26.475,43.035 ZM5.706,21.020 C4.922,21.020 4.176,21.378 3.659,22.003 C3.120,22.654 2.900,23.495 3.056,24.310 C3.056,24.310 5.654,38.051 5.654,38.051 C5.884,39.254 6.925,40.033 8.305,40.033 C8.305,40.033 26.475,40.033 26.475,40.033 C51.461,40.033 58.036,26.042 59.591,21.020 C59.591,21.020 5.706,21.020 5.706,21.020 Z" id="path-4" class="cls-6" fill-rule="evenodd"/>
    <path d="M51.265,21.020 C51.265,21.020 14.515,21.020 14.515,21.020 C13.236,21.020 12.038,20.456 11.226,19.474 C10.415,18.494 10.088,17.216 10.325,15.965 C10.325,15.965 12.025,3.904 12.025,3.904 C12.395,1.951 14.060,0.005 16.226,0.005 C16.226,0.005 28.192,0.005 28.192,0.005 C50.037,0.005 52.728,19.135 52.753,19.328 C52.807,19.757 52.675,20.187 52.391,20.510 C52.105,20.834 51.695,21.020 51.265,21.020 ZM16.226,3.007 C15.732,3.007 15.117,3.694 14.984,4.395 C14.984,4.395 13.284,16.455 13.284,16.455 C13.177,17.031 13.396,17.391 13.536,17.560 C13.678,17.731 13.993,18.017 14.515,18.017 C14.515,18.017 49.420,18.017 49.420,18.017 C48.288,13.751 43.880,3.007 28.192,3.007 C28.192,3.007 16.226,3.007 16.226,3.007 Z" id="path-5" class="cls-6" fill-rule="evenodd"/>
    <path d="M25.719,20.519 C24.891,20.519 24.219,19.847 24.219,19.018 C24.219,19.018 24.219,12.548 24.219,12.548 C24.219,9.524 26.753,6.009 30.020,6.009 C30.020,6.009 44.219,6.009 44.219,6.009 C45.047,6.009 45.719,6.681 45.719,7.510 C45.719,8.339 45.047,9.011 44.219,9.011 C44.219,9.011 30.020,9.011 30.020,9.011 C28.711,9.011 27.219,10.896 27.219,12.548 C27.219,12.548 27.219,19.018 27.219,19.018 C27.219,19.847 26.547,20.519 25.719,20.519 Z" id="path-6" class="cls-6" fill-rule="evenodd"/>
    <path d="M35.719,20.519 C34.891,20.519 34.219,19.847 34.219,19.018 C34.219,19.018 34.219,8.010 34.219,8.010 C34.219,7.181 34.891,6.509 35.719,6.509 C36.547,6.509 37.219,7.181 37.219,8.010 C37.219,8.010 37.219,19.018 37.219,19.018 C37.219,19.847 36.547,20.519 35.719,20.519 Z" id="path-7" class="cls-6" fill-rule="evenodd"/>
    <path d="M35.219,16.016 C35.219,16.016 26.219,16.016 26.219,16.016 C25.391,16.016 24.719,15.344 24.719,14.515 C24.719,13.686 25.391,13.014 26.219,13.014 C26.219,13.014 35.219,13.014 35.219,13.014 C36.047,13.014 36.719,13.686 36.719,14.515 C36.719,15.344 36.047,16.016 35.219,16.016 Z" id="path-8" class="cls-6" fill-rule="evenodd"/>
  </g>
</svg>
