<svg xmlns="http://www.w3.org/2000/svg" xmlns:xlink="http://www.w3.org/1999/xlink" preserveAspectRatio="xMidYMid" width="62" height="56" viewBox="0 0 62 56">
  <defs>
    <style>

      .cls-3 {
        fill: #e56a77;
      }

      .cls-4 {
        fill: #53ecf4;
      }

      .cls-5 {
        fill: #81bda4;
      }

      .cls-8 {
        fill: #000000;
      }
    </style>
  </defs>
  <g id="group-14svg">
    <path d="M17.119,12.006 C17.119,12.006 50.105,12.006 50.105,12.006 C55.618,12.006 60.011,31.326 59.688,40.030 C59.688,40.030 58.966,43.873 58.966,43.873 C58.845,46.709 56.513,49.032 53.677,49.032 C53.677,49.032 13.552,49.032 13.552,49.032 C10.714,49.032 8.381,46.593 8.263,43.756 C8.263,43.756 7.554,40.132 7.554,40.132 C7.231,34.625 11.607,12.006 17.119,12.006 Z" id="path-1" class="cls-3" fill-rule="evenodd"/>
    <path d="M15.042,29.018 C14.861,26.016 17.313,17.009 20.401,17.009 C20.401,17.009 46.823,17.009 46.823,17.009 C49.912,17.009 52.364,26.016 52.183,29.018 C52.183,29.018 15.042,29.018 15.042,29.018 Z" id="path-2" class="cls-4" fill-rule="evenodd"/>
    <path d="M12.500,49.032 C12.500,49.032 12.500,52.034 12.500,52.034 C12.500,53.685 13.850,55.036 15.500,55.036 C15.500,55.036 19.500,55.036 19.500,55.036 C21.157,55.036 22.500,53.692 22.500,52.034 C22.500,52.034 22.500,49.032 22.500,49.032 C22.500,49.032 12.500,49.032 12.500,49.032 Z" id="path-3" class="cls-5" fill-rule="evenodd"/>
    <path d="M40.500,49.032 C40.500,49.032 40.500,52.034 40.500,52.034 C40.500,53.685 41.850,55.036 43.500,55.036 C43.500,55.036 48.500,55.036 48.500,55.036 C50.157,55.036 51.500,53.692 51.500,52.034 C51.500,52.034 51.500,49.032 51.500,49.032 C51.500,49.032 40.500,49.032 40.500,49.032 Z" id="path-4" class="cls-5" fill-rule="evenodd"/>
    <path d="M22.500,12.006 C22.500,12.006 41.500,12.006 41.500,12.006 C41.500,12.006 41.500,7.002 41.500,7.002 C41.500,4.792 39.709,3.000 37.500,3.000 C37.500,3.000 26.500,3.000 26.500,3.000 C24.300,3.000 22.500,4.801 22.500,7.002 C22.500,7.002 22.500,12.006 22.500,12.006 Z" id="path-5" class="cls-5" fill-rule="evenodd"/>
    <path d="M50.677,49.032 C50.677,49.032 10.552,49.032 10.552,49.032 C6.936,49.032 3.979,46.253 3.770,42.683 C3.770,42.683 3.080,39.035 3.080,39.035 C3.068,38.972 3.060,38.908 3.056,38.844 C2.755,33.702 5.996,15.788 10.849,10.638 C11.871,9.554 12.972,9.004 14.119,9.004 C14.119,9.004 47.105,9.004 47.105,9.004 C48.338,9.004 49.523,9.585 50.627,10.731 C55.353,15.640 58.471,31.164 58.187,38.835 C58.184,38.912 58.175,38.989 58.161,39.065 C58.161,39.065 57.458,42.680 57.458,42.680 C57.245,46.251 54.289,49.032 50.677,49.032 ZM6.046,38.576 C6.046,38.576 6.737,42.226 6.737,42.226 C6.750,42.297 6.759,42.370 6.762,42.443 C6.846,44.454 8.510,46.030 10.552,46.030 C10.552,46.030 50.677,46.030 50.677,46.030 C52.717,46.030 54.381,44.450 54.467,42.433 C54.470,42.358 54.479,42.284 54.493,42.211 C54.493,42.211 55.193,38.609 55.193,38.609 C55.418,31.534 52.457,16.959 48.467,12.815 C48.111,12.446 47.587,12.006 47.105,12.006 C47.105,12.006 14.119,12.006 14.119,12.006 C13.843,12.006 13.446,12.258 13.032,12.698 C9.034,16.940 5.822,33.819 6.046,38.576 Z" id="path-6" class="cls-8" fill-rule="evenodd"/>
    <path d="M49.183,29.018 C49.183,29.018 12.042,29.018 12.042,29.018 C11.248,29.018 10.592,28.399 10.545,27.607 C10.388,24.995 11.951,18.200 14.592,15.393 C15.457,14.473 16.402,14.007 17.401,14.007 C17.401,14.007 43.824,14.007 43.824,14.007 C44.823,14.007 45.768,14.473 46.633,15.393 C49.274,18.200 50.837,24.995 50.680,27.607 C50.633,28.399 49.977,29.018 49.183,29.018 ZM13.616,26.016 C13.616,26.016 47.609,26.016 47.609,26.016 C47.283,23.420 46.040,19.142 44.449,17.451 C44.120,17.102 43.896,17.009 43.824,17.009 C43.824,17.009 17.401,17.009 17.401,17.009 C17.329,17.009 17.105,17.102 16.776,17.451 C15.185,19.142 13.942,23.420 13.616,26.016 Z" id="path-7" class="cls-8" fill-rule="evenodd"/>
    <path d="M55.500,38.024 C55.500,38.024 5.500,38.024 5.500,38.024 C4.671,38.024 4.000,37.352 4.000,36.523 C4.000,35.694 4.671,35.022 5.500,35.022 C5.500,35.022 55.500,35.022 55.500,35.022 C56.329,35.022 57.000,35.694 57.000,36.523 C57.000,37.352 56.329,38.024 55.500,38.024 Z" id="path-8" class="cls-8" fill-rule="evenodd"/>
    <path d="M39.000,12.006 C39.000,12.006 20.000,12.006 20.000,12.006 C19.171,12.006 18.500,11.334 18.500,10.505 C18.500,10.505 18.500,5.501 18.500,5.501 C18.500,2.466 20.967,-0.003 24.000,-0.003 C24.000,-0.003 35.000,-0.003 35.000,-0.003 C38.033,-0.003 40.500,2.466 40.500,5.501 C40.500,5.501 40.500,10.505 40.500,10.505 C40.500,11.334 39.829,12.006 39.000,12.006 ZM21.500,9.004 C21.500,9.004 37.500,9.004 37.500,9.004 C37.500,9.004 37.500,5.501 37.500,5.501 C37.500,4.122 36.378,3.000 35.000,3.000 C35.000,3.000 24.000,3.000 24.000,3.000 C22.622,3.000 21.500,4.122 21.500,5.501 C21.500,5.501 21.500,9.004 21.500,9.004 Z" id="path-9" class="cls-8" fill-rule="evenodd"/>
    <path d="M48.304,42.100 C48.304,43.758 46.961,45.102 45.304,45.102 C43.647,45.102 42.304,43.758 42.304,42.100 C42.304,40.442 43.647,39.098 45.304,39.098 C46.961,39.098 48.304,40.442 48.304,42.100 Z" id="path-10" class="cls-8" fill-rule="evenodd"/>
    <path d="M17.778,42.100 C17.778,43.758 16.435,45.102 14.778,45.102 C13.121,45.102 11.778,43.758 11.778,42.100 C11.778,40.442 13.121,39.098 14.778,39.098 C16.435,39.098 17.778,40.442 17.778,42.100 Z" id="path-11" class="cls-8" fill-rule="evenodd"/>
    <path d="M60.500,31.019 C60.500,31.019 56.500,31.019 56.500,31.019 C55.671,31.019 55.000,30.348 55.000,29.518 C55.000,28.689 55.671,28.017 56.500,28.017 C56.500,28.017 60.500,28.017 60.500,28.017 C61.329,28.017 62.000,28.689 62.000,29.518 C62.000,30.348 61.329,31.019 60.500,31.019 Z" id="path-12" class="cls-8" fill-rule="evenodd"/>
    <path d="M4.500,31.019 C4.500,31.019 1.500,31.019 1.500,31.019 C0.671,31.019 -0.000,30.348 -0.000,29.518 C-0.000,28.689 0.671,28.017 1.500,28.017 C1.500,28.017 4.500,28.017 4.500,28.017 C5.329,28.017 6.000,28.689 6.000,29.518 C6.000,30.348 5.329,31.019 4.500,31.019 Z" id="path-13" class="cls-8" fill-rule="evenodd"/>
    <path d="M17.000,55.036 C17.000,55.036 13.000,55.036 13.000,55.036 C10.518,55.036 8.500,53.016 8.500,50.533 C8.500,50.533 8.500,47.531 8.500,47.531 C8.500,46.702 9.171,46.030 10.000,46.030 C10.000,46.030 20.000,46.030 20.000,46.030 C20.829,46.030 21.500,46.702 21.500,47.531 C21.500,47.531 21.500,50.533 21.500,50.533 C21.500,53.016 19.481,55.036 17.000,55.036 ZM11.500,49.032 C11.500,49.032 11.500,50.533 11.500,50.533 C11.500,51.361 12.173,52.034 13.000,52.034 C13.000,52.034 17.000,52.034 17.000,52.034 C17.827,52.034 18.500,51.361 18.500,50.533 C18.500,50.533 18.500,49.032 18.500,49.032 C18.500,49.032 11.500,49.032 11.500,49.032 Z" id="path-14" class="cls-8" fill-rule="evenodd"/>
    <path d="M46.000,55.036 C46.000,55.036 41.000,55.036 41.000,55.036 C38.519,55.036 36.500,53.016 36.500,50.533 C36.500,50.533 36.500,47.531 36.500,47.531 C36.500,46.702 37.171,46.030 38.000,46.030 C38.000,46.030 49.000,46.030 49.000,46.030 C49.829,46.030 50.500,46.702 50.500,47.531 C50.500,47.531 50.500,50.533 50.500,50.533 C50.500,53.016 48.481,55.036 46.000,55.036 ZM39.500,49.032 C39.500,49.032 39.500,50.533 39.500,50.533 C39.500,51.361 40.173,52.034 41.000,52.034 C41.000,52.034 46.000,52.034 46.000,52.034 C46.827,52.034 47.500,51.361 47.500,50.533 C47.500,50.533 47.500,49.032 47.500,49.032 C47.500,49.032 39.500,49.032 39.500,49.032 Z" id="path-15" class="cls-8" fill-rule="evenodd"/>
  </g>
</svg>
