<svg xmlns="http://www.w3.org/2000/svg" xmlns:xlink="http://www.w3.org/1999/xlink" preserveAspectRatio="xMidYMid" width="56" height="64" viewBox="0 0 56 64">
  <defs>
    <style>

      .cls-3 {
        fill: #81bda4;
      }

      .cls-4 {
        fill: #000000;
      }

      .cls-5 {
        fill: #ff917b;
      }

      .cls-7 {
        fill: #edc951;
      }
    </style>
  </defs>
  <g id="group-3svg">
    <path d="M24.833,53.891 C21.030,53.891 17.500,50.805 17.500,47.000 C17.500,47.000 17.500,24.604 17.500,24.604 C17.500,20.798 21.477,16.853 25.281,16.853 C25.281,16.853 37.332,16.853 37.332,16.853 C41.135,16.853 44.500,20.798 44.500,24.604 C44.500,24.604 44.500,47.000 44.500,47.000 C44.500,50.805 41.052,53.891 37.249,53.891 C37.249,53.891 37.249,53.891 37.249,53.891 " id="path-1" class="cls-3" fill-rule="evenodd"/>
    <path d="M34.624,54.391 C33.795,54.391 33.124,53.719 33.124,52.890 C33.124,52.061 33.795,51.389 34.624,51.389 C37.754,51.389 40.500,48.870 40.500,45.999 C40.500,45.999 40.500,23.603 40.500,23.603 C40.500,20.512 37.156,16.853 34.331,16.853 C34.331,16.853 22.281,16.853 22.281,16.853 C19.303,16.853 16.500,20.656 16.500,23.603 C16.500,23.603 16.500,45.999 16.500,45.999 C16.500,48.921 19.057,51.389 22.083,51.389 C22.912,51.389 23.583,52.061 23.583,52.890 C23.583,53.719 22.912,54.391 22.083,54.391 C17.431,54.391 13.500,50.548 13.500,45.999 C13.500,45.999 13.500,23.603 13.500,23.603 C13.500,19.186 17.417,13.851 22.281,13.851 C22.281,13.851 34.331,13.851 34.331,13.851 C38.873,13.851 43.500,18.773 43.500,23.603 C43.500,23.603 43.500,45.999 43.500,45.999 C43.500,50.548 39.435,54.391 34.624,54.391 Z" id="path-2" class="cls-4" fill-rule="evenodd"/>
    <path d="M35.500,53.028 C35.500,50.735 33.642,48.876 31.351,48.876 C31.351,48.876 29.649,48.876 29.649,48.876 C27.358,48.876 25.500,50.735 25.500,53.028 C25.500,53.028 25.500,58.734 25.500,58.734 C25.500,61.027 27.358,62.886 29.649,62.886 C29.649,62.886 31.351,62.886 31.351,62.886 C33.642,62.886 35.500,61.027 35.500,58.734 C35.500,58.734 35.500,53.028 35.500,53.028 Z" id="path-3" class="cls-5" fill-rule="evenodd"/>
    <path d="M28.851,62.886 C28.851,62.886 27.149,62.886 27.149,62.886 C24.034,62.886 21.500,60.350 21.500,57.233 C21.500,57.233 21.500,51.527 21.500,51.527 C21.500,48.410 24.034,45.874 27.149,45.874 C27.149,45.874 28.851,45.874 28.851,45.874 C31.966,45.874 34.500,48.410 34.500,51.527 C34.500,51.527 34.500,57.233 34.500,57.233 C34.500,60.350 31.966,62.886 28.851,62.886 ZM27.149,48.876 C25.688,48.876 24.500,50.065 24.500,51.527 C24.500,51.527 24.500,57.233 24.500,57.233 C24.500,58.695 25.688,59.884 27.149,59.884 C27.149,59.884 28.851,59.884 28.851,59.884 C30.312,59.884 31.500,58.695 31.500,57.233 C31.500,57.233 31.500,51.527 31.500,51.527 C31.500,50.065 30.312,48.876 28.851,48.876 C28.851,48.876 27.149,48.876 27.149,48.876 Z" id="path-4" class="cls-4" fill-rule="evenodd"/>
    <path d="M23.442,43.397 C23.442,41.272 25.573,42.872 28.203,42.872 C28.203,42.872 30.037,42.872 30.037,42.872 C32.666,42.872 34.797,41.272 34.797,43.397 C34.797,43.397 32.886,37.480 32.886,37.480 C32.457,35.910 31.496,33.539 28.903,33.539 C26.309,33.539 25.034,35.926 24.605,37.496 C24.605,37.496 23.442,43.397 23.442,43.397 Z" id="path-5" class="cls-7" fill-rule="evenodd"/>
    <path d="M34.796,44.648 C34.159,44.648 33.579,44.240 33.373,43.617 C33.373,43.617 33.329,43.482 33.329,43.482 C33.098,43.510 32.845,43.553 32.584,43.598 C31.876,43.721 30.996,43.873 30.037,43.873 C30.037,43.873 28.203,43.873 28.203,43.873 C27.243,43.873 26.363,43.721 25.655,43.598 C25.385,43.552 25.124,43.507 24.905,43.479 C24.738,44.216 24.034,44.715 23.294,44.640 C22.526,44.564 21.942,43.918 21.942,43.146 C21.942,42.674 22.013,42.267 22.160,41.911 C22.160,41.911 23.135,37.045 23.135,37.045 C23.142,37.011 23.149,36.978 23.158,36.945 C23.813,34.543 25.666,31.975 28.903,31.975 C30.759,31.975 33.208,32.840 34.333,36.959 C34.333,36.959 35.805,41.413 35.805,41.413 C36.132,41.863 36.297,42.444 36.297,43.146 C36.297,43.884 35.763,44.512 35.036,44.628 C34.956,44.642 34.875,44.648 34.796,44.648 ZM25.496,40.530 C25.714,40.562 25.937,40.601 26.165,40.640 C26.821,40.753 27.500,40.870 28.203,40.870 C28.203,40.870 30.037,40.870 30.037,40.870 C30.740,40.870 31.418,40.753 32.074,40.640 C32.175,40.623 32.275,40.606 32.373,40.589 C32.373,40.589 31.462,37.826 31.462,37.826 C30.768,35.293 29.731,34.978 28.903,34.978 C27.000,34.978 26.263,36.994 26.065,37.689 C26.065,37.689 25.496,40.530 25.496,40.530 Z" id="path-6" class="cls-4" fill-rule="evenodd"/>
    <path d="M36.794,5.805 C36.794,5.805 36.961,6.287 36.961,6.287 C35.781,4.045 33.522,2.513 30.813,2.513 C27.743,2.513 25.183,4.482 24.216,7.224 C24.216,7.224 23.303,5.805 23.303,5.805 C23.303,5.805 11.500,8.641 11.500,8.641 C11.500,8.641 11.500,14.852 11.500,14.852 C11.500,14.852 25.120,14.852 25.120,14.852 C25.120,14.852 24.540,12.832 24.540,12.832 C25.594,15.399 27.957,16.855 30.903,16.855 C33.491,16.855 35.748,15.806 36.973,13.725 C36.973,13.725 36.955,14.852 36.955,14.852 C36.955,14.852 48.500,14.852 48.500,14.852 C48.500,14.852 48.500,8.641 48.500,8.641 C48.500,8.641 36.794,5.805 36.794,5.805 Z" id="path-7" class="cls-5" fill-rule="evenodd"/>
    <path d="M27.903,17.230 C25.522,17.230 23.435,16.376 21.924,14.852 C21.924,14.852 9.000,14.852 9.000,14.852 C8.171,14.852 7.500,14.180 7.500,13.351 C7.500,13.351 7.500,7.640 7.500,7.640 C7.500,6.948 7.972,6.346 8.643,6.182 C8.643,6.182 20.211,3.346 20.211,3.346 C20.509,3.273 20.812,3.294 21.086,3.395 C22.672,1.305 25.168,0.011 27.876,0.011 C30.573,0.011 33.070,1.285 34.668,3.409 C34.668,3.409 46.346,6.179 46.346,6.179 C47.022,6.340 47.500,6.944 47.500,7.640 C47.500,7.640 47.500,13.351 47.500,13.351 C47.500,14.180 46.829,14.852 46.000,14.852 C46.000,14.852 33.955,14.852 33.955,14.852 C33.953,14.852 33.952,14.852 33.950,14.852 C32.396,16.367 30.253,17.230 27.903,17.230 ZM21.539,10.079 C22.131,10.079 22.689,10.431 22.927,11.010 C23.767,13.055 25.581,14.228 27.903,14.228 C29.944,14.228 31.730,13.264 32.681,11.650 C33.027,11.062 33.725,10.781 34.382,10.967 C34.839,11.097 35.194,11.430 35.364,11.850 C35.364,11.850 44.500,11.850 44.500,11.850 C44.500,11.850 44.500,8.827 44.500,8.827 C44.500,8.827 34.898,6.549 34.898,6.549 C34.780,6.625 34.649,6.685 34.509,6.727 C33.825,6.928 33.092,6.618 32.759,5.986 C31.794,4.153 29.923,3.014 27.876,3.014 C25.539,3.014 23.444,4.504 22.662,6.722 C22.460,7.294 21.934,7.689 21.328,7.722 C20.725,7.755 20.157,7.419 19.895,6.871 C19.895,6.871 19.742,6.552 19.742,6.552 C19.742,6.552 10.500,8.817 10.500,8.817 C10.500,8.817 10.500,11.850 10.500,11.850 C10.500,11.850 20.064,11.850 20.064,11.850 C19.934,11.143 20.328,10.428 21.020,10.172 C21.191,10.109 21.367,10.079 21.539,10.079 Z" id="path-8" class="cls-4" fill-rule="evenodd"/>
    <path d="M30.770,38.667 C30.770,39.579 30.031,40.319 29.120,40.319 C28.208,40.319 27.469,39.579 27.469,38.667 C27.469,37.755 28.208,37.016 29.120,37.016 C30.031,37.016 30.770,37.755 30.770,38.667 Z" id="path-9" class="cls-4" fill-rule="evenodd"/>
    <path d="M30.110,8.566 C30.110,9.786 29.122,10.775 27.903,10.775 C26.684,10.775 25.696,9.786 25.696,8.566 C25.696,7.346 26.684,6.358 27.903,6.358 C29.122,6.358 30.110,7.346 30.110,8.566 Z" id="path-10" class="cls-4" fill-rule="evenodd"/>
    <path d="M27.903,17.121 C23.189,17.121 19.354,13.283 19.354,8.566 C19.354,3.849 23.189,0.011 27.903,0.011 C32.616,0.011 36.451,3.849 36.451,8.566 C36.451,13.283 32.616,17.121 27.903,17.121 ZM27.903,3.014 C24.843,3.014 22.354,5.505 22.354,8.566 C22.354,11.628 24.843,14.119 27.903,14.119 C30.962,14.119 33.451,11.628 33.451,8.566 C33.451,5.505 30.962,3.014 27.903,3.014 Z" id="path-11" class="cls-4" fill-rule="evenodd"/>
    <path d="M54.500,10.849 C54.500,10.849 50.500,10.849 50.500,10.849 C49.671,10.849 49.000,10.177 49.000,9.348 C49.000,8.519 49.671,7.847 50.500,7.847 C50.500,7.847 54.500,7.847 54.500,7.847 C55.329,7.847 56.000,8.519 56.000,9.348 C56.000,10.177 55.329,10.849 54.500,10.849 Z" id="path-12" class="cls-4" fill-rule="evenodd"/>
    <path d="M5.500,10.849 C5.500,10.849 1.500,10.849 1.500,10.849 C0.671,10.849 -0.000,10.177 -0.000,9.348 C-0.000,8.519 0.671,7.847 1.500,7.847 C1.500,7.847 5.500,7.847 5.500,7.847 C6.329,7.847 7.000,8.519 7.000,9.348 C7.000,10.177 6.329,10.849 5.500,10.849 Z" id="path-13" class="cls-4" fill-rule="evenodd"/>
  </g>
</svg>
