<svg xmlns="http://www.w3.org/2000/svg" xmlns:xlink="http://www.w3.org/1999/xlink" preserveAspectRatio="xMidYMid" width="63" height="48" viewBox="0 0 63 48">
  <defs>
    <style>

      .cls-3 {
        fill: #000000;
      }

      .cls-4 {
        fill: #8b71b5;
      }
    </style>
  </defs>
  <g id="group-40svg">
    <path d="M7.633,42.026 C7.633,42.026 1.500,42.026 1.500,42.026 C0.672,42.026 -0.000,41.354 -0.000,40.525 C-0.000,39.696 0.672,39.024 1.500,39.024 C1.500,39.024 7.633,39.024 7.633,39.024 C8.235,39.024 8.441,38.920 8.479,38.897 C8.476,38.889 8.500,38.810 8.500,38.640 C8.500,38.640 8.500,34.755 8.500,34.755 C8.500,32.609 10.422,30.018 12.809,30.018 C12.809,30.018 17.984,30.018 17.984,30.018 C18.237,30.018 18.387,29.996 18.469,29.978 C18.483,29.905 18.500,29.778 18.500,29.576 C18.500,29.576 18.500,26.986 18.500,26.986 C18.500,24.860 20.804,22.012 23.160,22.012 C23.160,22.012 28.336,22.012 28.336,22.012 C29.090,22.012 29.500,21.919 29.500,21.871 C29.500,21.856 29.500,21.834 29.500,21.807 C29.500,21.807 29.500,19.217 29.500,19.217 C29.500,16.895 31.300,15.007 33.512,15.007 C33.512,15.007 39.981,15.007 39.981,15.007 C40.225,15.007 40.500,15.007 40.500,14.038 C40.500,14.038 40.500,12.743 40.500,12.743 C40.500,10.483 42.937,8.002 45.157,8.002 C45.157,8.002 50.333,8.002 50.333,8.002 C50.865,8.002 51.500,7.926 51.500,7.563 C51.500,7.563 51.500,4.436 51.500,4.436 C51.500,2.582 52.821,-0.004 54.973,-0.004 C54.973,-0.004 61.500,-0.004 61.500,-0.004 C62.328,-0.004 63.000,0.668 63.000,1.497 C63.000,2.326 62.328,2.998 61.500,2.998 C61.500,2.998 55.085,2.998 55.085,2.998 C54.851,3.198 54.500,3.914 54.500,4.436 C54.500,4.436 54.500,7.563 54.500,7.563 C54.500,9.654 52.864,11.004 50.333,11.004 C50.333,11.004 45.157,11.004 45.157,11.004 C44.568,11.004 43.500,12.125 43.500,12.743 C43.500,12.743 43.500,14.038 43.500,14.038 C43.500,16.450 42.119,18.009 39.981,18.009 C39.981,18.009 33.512,18.009 33.512,18.009 C32.906,18.009 32.500,18.633 32.500,19.217 C32.500,19.217 32.500,21.807 32.500,21.807 C32.500,23.004 31.959,25.014 28.336,25.014 C28.336,25.014 23.160,25.014 23.160,25.014 C22.664,25.014 21.500,26.287 21.500,26.986 C21.500,26.986 21.500,29.576 21.500,29.576 C21.500,31.797 20.251,33.020 17.984,33.020 C17.984,33.020 12.809,33.020 12.809,33.020 C12.335,33.020 11.500,34.023 11.500,34.755 C11.500,34.755 11.500,38.640 11.500,38.640 C11.500,39.658 11.123,42.026 7.633,42.026 Z" id="path-1" class="cls-3" fill-rule="evenodd"/>
    <path d="M47.575,29.541 C47.502,29.356 47.391,29.249 47.242,29.099 C47.242,29.099 42.547,24.433 42.547,24.433 C42.074,23.962 41.310,23.978 40.838,24.450 C40.838,24.450 36.143,29.157 36.143,29.157 C35.993,29.307 35.882,29.352 35.810,29.537 C35.504,30.312 36.118,31.018 36.950,31.018 C36.950,31.018 39.937,31.018 39.937,31.018 C39.937,31.018 39.937,45.625 39.937,45.625 C39.937,46.292 40.770,46.834 41.437,46.834 C42.104,46.834 42.937,46.292 42.937,45.625 C42.937,45.625 42.937,31.018 42.937,31.018 C42.937,31.018 46.434,31.018 46.434,31.018 C47.266,31.018 47.881,30.316 47.575,29.541 Z" id="path-2" class="cls-4" fill-rule="evenodd"/>
  </g>
</svg>
