<svg xmlns="http://www.w3.org/2000/svg" xmlns:xlink="http://www.w3.org/1999/xlink" preserveAspectRatio="xMidYMid" width="64" height="45" viewBox="0 0 64 45">
  <defs>
    <style>

      .cls-3 {
        fill: #e56a77;
      }

      .cls-5 {
        fill: #53ecf4;
      }

      .cls-7 {
        fill: #000000;
      }
    </style>
  </defs>
  <g id="group-6svg">
    <path d="M63.503,31.154 C63.503,38.273 57.736,44.045 50.622,44.045 C43.507,44.045 37.740,38.273 37.740,31.154 C37.740,24.034 43.507,18.263 50.622,18.263 C57.736,18.263 63.503,24.034 63.503,31.154 Z" id="path-1" class="cls-3" fill-rule="evenodd"/>
    <path d="M29.267,31.154 C29.267,38.273 23.500,44.045 16.385,44.045 C9.271,44.045 3.503,38.273 3.503,31.154 C3.503,24.034 9.271,18.263 16.385,18.263 C23.500,18.263 29.267,24.034 29.267,31.154 Z" id="path-2" class="cls-3" fill-rule="evenodd"/>
    <path d="M54.911,31.154 C54.911,33.525 52.991,35.447 50.622,35.447 C48.252,35.447 46.332,33.525 46.332,31.154 C46.332,28.783 48.252,26.861 50.622,26.861 C52.991,26.861 54.911,28.783 54.911,31.154 Z" id="path-3" class="cls-5" fill-rule="evenodd"/>
    <path d="M20.675,31.154 C20.675,33.525 18.754,35.447 16.385,35.447 C14.016,35.447 12.096,33.525 12.096,31.154 C12.096,28.783 14.016,26.861 16.385,26.861 C18.754,26.861 20.675,28.783 20.675,31.154 Z" id="path-4" class="cls-5" fill-rule="evenodd"/>
    <path d="M48.622,35.947 C45.429,35.947 42.832,33.348 42.832,30.153 C42.832,26.959 45.429,24.360 48.622,24.360 C51.814,24.360 54.412,26.959 54.412,30.153 C54.412,33.348 51.814,35.947 48.622,35.947 ZM48.622,27.362 C47.083,27.362 45.832,28.614 45.832,30.153 C45.832,31.692 47.083,32.945 48.622,32.945 C50.160,32.945 51.412,31.692 51.412,30.153 C51.412,28.614 50.160,27.362 48.622,27.362 Z" id="path-5" class="cls-7" fill-rule="evenodd"/>
    <path d="M48.622,44.545 C40.691,44.545 34.240,38.089 34.240,30.153 C34.240,22.217 40.691,15.761 48.622,15.761 C56.552,15.761 63.003,22.217 63.003,30.153 C63.003,38.089 56.552,44.545 48.622,44.545 ZM48.622,18.763 C42.346,18.763 37.240,23.873 37.240,30.153 C37.240,36.434 42.346,41.543 48.622,41.543 C54.897,41.543 60.003,36.434 60.003,30.153 C60.003,23.873 54.897,18.763 48.622,18.763 Z" id="path-6" class="cls-7" fill-rule="evenodd"/>
    <path d="M14.385,35.947 C11.193,35.947 8.596,33.348 8.596,30.153 C8.596,26.959 11.193,24.360 14.385,24.360 C17.578,24.360 20.175,26.959 20.175,30.153 C20.175,33.348 17.578,35.947 14.385,35.947 ZM14.385,27.362 C12.847,27.362 11.596,28.614 11.596,30.153 C11.596,31.692 12.847,32.945 14.385,32.945 C15.924,32.945 17.175,31.692 17.175,30.153 C17.175,28.614 15.924,27.362 14.385,27.362 Z" id="path-7" class="cls-7" fill-rule="evenodd"/>
    <path d="M14.385,44.545 C6.455,44.545 0.003,38.089 0.003,30.153 C0.003,22.217 6.455,15.761 14.385,15.761 C22.315,15.761 28.767,22.217 28.767,30.153 C28.767,38.089 22.315,44.545 14.385,44.545 ZM14.385,18.763 C8.109,18.763 3.003,23.873 3.003,30.153 C3.003,36.434 8.109,41.543 14.385,41.543 C20.661,41.543 25.767,36.434 25.767,30.153 C25.767,23.873 20.661,18.763 14.385,18.763 Z" id="path-8" class="cls-7" fill-rule="evenodd"/>
    <path d="M44.561,29.525 C43.776,29.525 43.116,28.914 43.065,28.120 C43.065,28.120 42.081,12.671 42.081,12.671 C42.081,12.671 37.756,2.072 37.756,2.072 C37.567,1.610 37.621,1.083 37.899,0.668 C38.178,0.253 38.645,0.004 39.145,0.004 C39.145,0.004 45.370,0.004 45.370,0.004 C45.953,0.004 46.484,0.343 46.730,0.872 C46.730,0.872 48.420,4.510 48.420,4.510 C48.769,5.261 48.443,6.154 47.692,6.504 C46.942,6.853 46.049,6.527 45.699,5.775 C45.699,5.775 44.413,3.006 44.413,3.006 C44.413,3.006 41.377,3.006 41.377,3.006 C41.377,3.006 44.951,11.763 44.951,11.763 C45.013,11.914 45.049,12.073 45.060,12.235 C45.060,12.235 46.060,27.928 46.060,27.928 C46.112,28.756 45.485,29.469 44.658,29.522 C44.625,29.524 44.593,29.525 44.561,29.525 Z" id="path-9" class="cls-7" fill-rule="evenodd"/>
    <path d="M13.896,26.765 C13.562,26.765 13.226,26.654 12.947,26.426 C12.306,25.900 12.211,24.955 12.736,24.313 C12.736,24.313 23.167,11.562 23.167,11.562 C23.452,11.214 23.878,11.012 24.328,11.012 C24.328,11.012 43.062,11.012 43.062,11.012 C43.891,11.012 44.562,11.684 44.562,12.513 C44.562,13.342 43.891,14.014 43.062,14.014 C43.062,14.014 25.038,14.014 25.038,14.014 C25.038,14.014 15.058,26.214 15.058,26.214 C14.761,26.577 14.331,26.765 13.896,26.765 Z" id="path-10" class="cls-7" fill-rule="evenodd"/>
    <path d="M35.062,30.025 C35.062,30.025 28.062,30.025 28.062,30.025 C27.234,30.025 26.562,29.353 26.562,28.524 C26.562,27.695 27.234,27.023 28.062,27.023 C28.062,27.023 35.062,27.023 35.062,27.023 C35.891,27.023 36.562,27.695 36.562,28.524 C36.562,29.353 35.891,30.025 35.062,30.025 Z" id="path-11" class="cls-7" fill-rule="evenodd"/>
    <path d="M32.108,34.893 C31.435,34.893 30.824,34.438 30.654,33.756 C30.654,33.756 29.616,29.603 29.616,29.603 C29.415,28.799 29.904,27.984 30.708,27.783 C31.511,27.581 32.326,28.071 32.526,28.875 C32.526,28.875 33.564,33.028 33.564,33.028 C33.765,33.832 33.276,34.647 32.473,34.848 C32.351,34.879 32.228,34.893 32.108,34.893 Z" id="path-12" class="cls-7" fill-rule="evenodd"/>
    <path d="M24.585,13.870 C23.881,13.870 23.253,13.371 23.114,12.654 C23.114,12.654 22.452,9.242 22.452,9.242 C22.294,8.429 22.826,7.641 23.639,7.483 C24.451,7.325 25.239,7.857 25.397,8.671 C25.397,8.671 26.059,12.082 26.059,12.082 C26.217,12.896 25.685,13.684 24.872,13.842 C24.776,13.861 24.680,13.870 24.585,13.870 Z" id="path-13" class="cls-7" fill-rule="evenodd"/>
    <path d="M26.062,6.509 C26.062,7.890 24.943,9.010 23.562,9.010 C23.562,9.010 17.562,9.010 17.562,9.010 C16.182,9.010 15.062,7.890 15.062,6.509 C15.062,6.509 15.062,6.509 15.062,6.509 C15.062,5.127 16.182,4.007 17.562,4.007 C17.562,4.007 23.562,4.007 23.562,4.007 C24.943,4.007 26.062,5.127 26.062,6.509 C26.062,6.509 26.062,6.509 26.062,6.509 Z" id="path-14" class="cls-7" fill-rule="evenodd"/>
  </g>
</svg>
