<svg xmlns="http://www.w3.org/2000/svg" xmlns:xlink="http://www.w3.org/1999/xlink" preserveAspectRatio="xMidYMid" width="52" height="64" viewBox="0 0 52 64">
  <defs>
    <style>

      .cls-3 {
        fill: #ff917b;
      }

      .cls-4 {
        fill: #81bda4;
      }

      .cls-5 {
        fill: #edc951;
      }

      .cls-6 {
        fill: #000000;
      }
    </style>
  </defs>
  <g id="group-18svg">
    <path d="M51.835,38.905 C51.835,51.984 41.240,62.587 28.170,62.587 C15.101,62.587 4.506,51.984 4.506,38.905 C4.506,25.826 15.101,15.224 28.170,15.224 C41.240,15.224 51.835,25.826 51.835,38.905 Z" id="path-1" class="cls-3" fill-rule="evenodd"/>
    <path d="M44.186,38.905 C44.186,47.757 37.016,54.932 28.170,54.932 C19.325,54.932 12.155,47.757 12.155,38.905 C12.155,30.054 19.325,22.878 28.170,22.878 C37.016,22.878 44.186,30.054 44.186,38.905 Z" id="path-2" class="cls-4" fill-rule="evenodd"/>
    <path d="M34.312,8.000 C34.312,9.106 33.417,10.002 32.312,10.002 C32.312,10.002 22.312,10.002 22.312,10.002 C21.208,10.002 20.312,9.106 20.312,8.000 C20.312,8.000 20.312,4.998 20.312,4.998 C20.312,3.893 21.208,2.997 22.312,2.997 C22.312,2.997 32.312,2.997 32.312,2.997 C33.417,2.997 34.312,3.893 34.312,4.998 C34.312,4.998 34.312,8.000 34.312,8.000 Z" id="path-3" class="cls-5" fill-rule="evenodd"/>
    <path d="M25.171,63.088 C11.295,63.088 0.006,51.791 0.006,37.905 C0.006,24.019 11.295,12.722 25.171,12.722 C39.047,12.722 50.335,24.019 50.335,37.905 C50.335,51.791 39.047,63.088 25.171,63.088 ZM25.171,15.724 C12.949,15.724 3.006,25.674 3.006,37.905 C3.006,50.135 12.949,60.085 25.171,60.085 C37.393,60.085 47.335,50.135 47.335,37.905 C47.335,25.674 37.393,15.724 25.171,15.724 Z" id="path-4" class="cls-6" fill-rule="evenodd"/>
    <path d="M25.171,55.432 C15.513,55.432 7.655,47.570 7.655,37.905 C7.655,28.240 15.513,20.377 25.171,20.377 C34.828,20.377 42.686,28.240 42.686,37.905 C42.686,47.570 34.828,55.432 25.171,55.432 ZM25.171,23.379 C17.167,23.379 10.655,29.895 10.655,37.905 C10.655,45.914 17.167,52.430 25.171,52.430 C33.174,52.430 39.686,45.914 39.686,37.905 C39.686,29.895 33.174,23.379 25.171,23.379 Z" id="path-5" class="cls-6" fill-rule="evenodd"/>
    <path d="M24.812,14.505 C23.984,14.505 23.312,13.833 23.312,13.004 C23.312,13.004 23.312,9.001 23.312,9.001 C23.312,8.172 23.984,7.500 24.812,7.500 C25.641,7.500 26.312,8.172 26.312,9.001 C26.312,9.001 26.312,13.004 26.312,13.004 C26.312,13.833 25.641,14.505 24.812,14.505 Z" id="path-6" class="cls-6" fill-rule="evenodd"/>
    <path d="M23.068,37.699 C23.068,37.699 31.198,29.002 31.198,29.002 C31.198,29.002 27.355,40.274 27.355,40.274 C26.899,41.611 25.446,42.325 24.110,41.869 C22.773,41.413 22.060,39.958 22.516,38.621 C22.635,38.271 22.832,37.954 23.068,37.699 Z" id="path-7" class="cls-6" fill-rule="evenodd"/>
    <path d="M29.812,10.002 C29.812,10.002 19.812,10.002 19.812,10.002 C17.883,10.002 16.312,8.430 16.312,6.499 C16.312,6.499 16.312,3.497 16.312,3.497 C16.312,1.566 17.883,-0.005 19.812,-0.005 C19.812,-0.005 29.812,-0.005 29.812,-0.005 C31.742,-0.005 33.312,1.566 33.312,3.497 C33.312,3.497 33.312,6.499 33.312,6.499 C33.312,8.430 31.742,10.002 29.812,10.002 ZM19.812,2.997 C19.537,2.997 19.312,3.221 19.312,3.497 C19.312,3.497 19.312,6.499 19.312,6.499 C19.312,6.775 19.537,7.000 19.812,7.000 C19.812,7.000 29.812,7.000 29.812,7.000 C30.088,7.000 30.312,6.775 30.312,6.499 C30.312,6.499 30.312,3.497 30.312,3.497 C30.312,3.221 30.088,2.997 29.812,2.997 C29.812,2.997 19.812,2.997 19.812,2.997 Z" id="path-8" class="cls-6" fill-rule="evenodd"/>
  </g>
</svg>
