<svg xmlns="http://www.w3.org/2000/svg" xmlns:xlink="http://www.w3.org/1999/xlink" preserveAspectRatio="xMidYMid" width="66" height="51" viewBox="0 0 66 51">
  <defs>
    <style>

      .cls-3 {
        fill: #e56a77;
      }

      .cls-4 {
        fill: #81bda4;
      }

      .cls-6 {
        fill: #edc951;
      }

      .cls-10 {
        fill: #000000;
      }
    </style>
  </defs>
  <g id="group-27svg">
    <path d="M6.000,36.023 C6.000,36.023 6.000,31.019 6.000,31.019 C6.000,28.817 7.800,27.016 10.000,27.016 C10.000,27.016 37.760,27.016 37.760,27.016 C38.444,27.016 39.000,26.461 39.000,25.775 C39.000,25.775 39.000,14.007 39.000,14.007 C39.000,11.805 40.800,10.004 43.000,10.004 C43.000,10.004 53.186,10.004 53.186,10.004 C54.741,10.004 56.130,11.295 56.657,12.759 C56.657,12.759 61.165,22.271 61.165,22.271 C61.466,23.105 62.057,23.882 62.829,24.317 C62.829,24.317 64.738,25.778 64.738,25.778 C65.901,26.431 66.000,27.702 66.000,29.037 C66.000,29.037 66.000,36.023 66.000,36.023 C66.000,36.023 63.240,36.023 63.240,36.023 C63.240,36.023 6.000,36.023 6.000,36.023 Z" id="path-1" class="cls-3" fill-rule="evenodd"/>
    <path d="M7.000,44.028 C7.000,44.028 66.000,44.028 66.000,44.028 C66.000,44.028 66.000,36.023 66.000,36.023 C66.000,36.023 7.000,36.023 7.000,36.023 C7.000,36.023 7.000,44.028 7.000,44.028 Z" id="path-2" class="cls-4" fill-rule="evenodd"/>
    <path d="M25.623,2.999 C25.623,2.999 10.000,2.999 10.000,2.999 C7.800,2.999 6.000,4.800 6.000,7.002 C6.000,7.002 6.000,20.785 6.000,20.785 C6.000,21.463 6.549,22.013 7.227,22.013 C7.227,22.013 32.331,22.013 32.331,22.013 C33.253,22.013 34.000,21.265 34.000,20.343 C34.000,20.343 34.000,11.382 34.000,11.382 C34.000,6.772 30.230,2.999 25.623,2.999 Z" id="path-3" class="cls-4" fill-rule="evenodd"/>
    <path d="M56.000,17.009 C56.000,17.009 44.784,17.009 44.784,17.009 C43.802,17.009 42.000,17.976 42.000,18.959 C42.000,18.959 42.000,22.520 42.000,22.520 C42.000,23.503 43.802,24.014 44.784,24.014 C44.784,24.014 60.000,24.014 60.000,24.014 C60.000,24.014 60.000,24.014 60.000,24.014 " id="path-4" class="cls-6" fill-rule="evenodd"/>
    <path d="M60.469,45.475 C60.469,47.744 58.631,49.583 56.363,49.583 C54.097,49.583 52.259,47.744 52.259,45.475 C52.259,43.206 54.097,41.367 56.363,41.367 C58.631,41.367 60.469,43.206 60.469,45.475 Z" id="path-5" class="cls-6" fill-rule="evenodd"/>
    <path d="M29.434,45.475 C29.434,47.744 27.596,49.583 25.329,49.583 C23.061,49.583 21.224,47.744 21.224,45.475 C21.224,43.206 23.061,41.367 25.329,41.367 C27.596,41.367 29.434,43.206 29.434,45.475 Z" id="path-6" class="cls-6" fill-rule="evenodd"/>
    <path d="M19.089,45.475 C19.089,47.744 17.251,49.583 14.984,49.583 C12.717,49.583 10.879,47.744 10.879,45.475 C10.879,43.206 12.717,41.367 14.984,41.367 C17.251,41.367 19.089,43.206 19.089,45.475 Z" id="path-7" class="cls-6" fill-rule="evenodd"/>
    <path d="M61.500,36.023 C61.500,36.023 1.500,36.023 1.500,36.023 C0.672,36.023 -0.000,35.351 -0.000,34.522 C-0.000,34.522 -0.000,29.518 -0.000,29.518 C-0.000,26.483 2.468,24.014 5.500,24.014 C5.500,24.014 32.760,24.014 32.760,24.014 C32.893,24.014 33.000,23.906 33.000,23.774 C33.000,23.774 33.000,12.506 33.000,12.506 C33.000,9.471 35.468,7.002 38.500,7.002 C38.500,7.002 48.186,7.002 48.186,7.002 C50.420,7.002 52.309,8.966 53.043,10.930 C53.043,10.930 57.523,20.508 57.523,20.508 C57.543,20.550 57.560,20.592 57.576,20.636 C57.783,21.209 58.171,21.724 58.563,21.944 C58.604,21.967 58.644,21.992 58.682,22.018 C58.682,22.018 60.790,23.476 60.790,23.476 C61.814,24.076 63.000,25.352 63.000,28.036 C63.000,28.036 63.000,34.522 63.000,34.522 C63.000,35.351 62.328,36.023 61.500,36.023 ZM3.000,33.021 C3.000,33.021 60.000,33.021 60.000,33.021 C60.000,33.021 60.000,28.036 60.000,28.036 C60.000,27.000 59.749,26.333 59.254,26.055 C59.213,26.032 59.174,26.007 59.136,25.981 C59.136,25.981 57.027,24.523 57.027,24.523 C56.046,23.947 55.232,22.934 54.779,21.724 C54.779,21.724 50.299,12.144 50.299,12.144 C50.279,12.103 50.262,12.060 50.246,12.017 C49.860,10.945 48.897,10.004 48.186,10.004 C48.186,10.004 38.500,10.004 38.500,10.004 C37.121,10.004 36.000,11.127 36.000,12.506 C36.000,12.506 36.000,23.774 36.000,23.774 C36.000,25.562 34.547,27.016 32.760,27.016 C32.760,27.016 5.500,27.016 5.500,27.016 C4.121,27.016 3.000,28.139 3.000,29.518 C3.000,29.518 3.000,33.021 3.000,33.021 Z" id="path-8" class="cls-10" fill-rule="evenodd"/>
    <path d="M7.000,45.029 C7.000,45.029 1.500,45.029 1.500,45.029 C0.672,45.029 -0.000,44.357 -0.000,43.528 C-0.000,43.528 -0.000,35.022 -0.000,35.022 C-0.000,34.193 0.672,33.521 1.500,33.521 C2.328,33.521 3.000,34.193 3.000,35.022 C3.000,35.022 3.000,42.027 3.000,42.027 C3.000,42.027 7.000,42.027 7.000,42.027 C7.828,42.027 8.500,42.699 8.500,43.528 C8.500,44.357 7.828,45.029 7.000,45.029 Z" id="path-9" class="cls-10" fill-rule="evenodd"/>
    <path d="M49.000,45.029 C49.000,45.029 27.000,45.029 27.000,45.029 C26.172,45.029 25.500,44.357 25.500,43.528 C25.500,42.699 26.172,42.027 27.000,42.027 C27.000,42.027 49.000,42.027 49.000,42.027 C49.828,42.027 50.500,42.699 50.500,43.528 C50.500,44.357 49.828,45.029 49.000,45.029 Z" id="path-10" class="cls-10" fill-rule="evenodd"/>
    <path d="M61.500,45.029 C61.500,45.029 58.000,45.029 58.000,45.029 C57.172,45.029 56.500,44.357 56.500,43.528 C56.500,42.699 57.172,42.027 58.000,42.027 C58.000,42.027 60.000,42.027 60.000,42.027 C60.000,42.027 60.000,35.022 60.000,35.022 C60.000,34.193 60.672,33.521 61.500,33.521 C62.328,33.521 63.000,34.193 63.000,35.022 C63.000,35.022 63.000,43.528 63.000,43.528 C63.000,44.357 62.328,45.029 61.500,45.029 Z" id="path-11" class="cls-10" fill-rule="evenodd"/>
    <path d="M57.000,24.014 C57.000,24.014 41.784,24.014 41.784,24.014 C40.849,24.014 38.000,24.014 38.000,21.519 C38.000,21.519 38.000,17.959 38.000,17.959 C38.000,16.270 39.871,14.007 41.784,14.007 C41.784,14.007 53.000,14.007 53.000,14.007 C53.828,14.007 54.500,14.679 54.500,15.508 C54.500,16.337 53.828,17.009 53.000,17.009 C53.000,17.009 41.784,17.009 41.784,17.009 C41.584,17.084 41.048,17.696 40.998,17.994 C40.998,17.994 41.000,20.990 41.000,20.990 C41.270,21.012 41.604,21.012 41.784,21.012 C41.784,21.012 57.000,21.012 57.000,21.012 C57.828,21.012 58.500,21.684 58.500,22.513 C58.500,23.342 57.828,24.014 57.000,24.014 Z" id="path-12" class="cls-10" fill-rule="evenodd"/>
    <path d="M53.363,50.083 C50.273,50.083 47.759,47.567 47.759,44.475 C47.759,41.381 50.273,38.866 53.363,38.866 C56.454,38.866 58.969,41.381 58.969,44.475 C58.969,47.567 56.454,50.083 53.363,50.083 ZM53.363,41.868 C51.927,41.868 50.759,43.037 50.759,44.475 C50.759,45.912 51.927,47.081 53.363,47.081 C54.800,47.081 55.969,45.912 55.969,44.475 C55.969,43.037 54.800,41.868 53.363,41.868 Z" id="path-13" class="cls-10" fill-rule="evenodd"/>
    <path d="M22.329,50.083 C19.238,50.083 16.724,47.567 16.724,44.475 C16.724,41.381 19.238,38.866 22.329,38.866 C25.420,38.866 27.934,41.381 27.934,44.475 C27.934,47.567 25.420,50.083 22.329,50.083 ZM22.329,41.868 C20.893,41.868 19.724,43.037 19.724,44.475 C19.724,45.912 20.893,47.081 22.329,47.081 C23.766,47.081 24.934,45.912 24.934,44.475 C24.934,43.037 23.766,41.868 22.329,41.868 Z" id="path-14" class="cls-10" fill-rule="evenodd"/>
    <path d="M11.984,50.083 C8.894,50.083 6.379,47.567 6.379,44.475 C6.379,41.381 8.894,38.866 11.984,38.866 C15.074,38.866 17.589,41.381 17.589,44.475 C17.589,47.567 15.074,50.083 11.984,50.083 ZM11.984,41.868 C10.548,41.868 9.379,43.037 9.379,44.475 C9.379,45.912 10.548,47.081 11.984,47.081 C13.421,47.081 14.589,45.912 14.589,44.475 C14.589,43.037 13.421,41.868 11.984,41.868 Z" id="path-15" class="cls-10" fill-rule="evenodd"/>
    <path d="M27.331,22.013 C27.331,22.013 2.227,22.013 2.227,22.013 C0.999,22.013 -0.000,21.013 -0.000,19.785 C-0.000,19.785 -0.000,5.501 -0.000,5.501 C-0.000,2.466 2.468,-0.003 5.500,-0.003 C5.500,-0.003 20.623,-0.003 20.623,-0.003 C26.345,-0.003 31.000,4.656 31.000,10.382 C31.000,10.382 31.000,18.341 31.000,18.341 C31.000,20.366 29.354,22.013 27.331,22.013 ZM3.000,19.011 C3.000,19.011 27.331,19.011 27.331,19.011 C27.693,19.011 28.000,18.704 28.000,18.341 C28.000,18.341 28.000,10.382 28.000,10.382 C28.000,6.311 24.690,2.999 20.623,2.999 C20.623,2.999 5.500,2.999 5.500,2.999 C4.121,2.999 3.000,4.122 3.000,5.501 C3.000,5.501 3.000,19.011 3.000,19.011 Z" id="path-16" class="cls-10" fill-rule="evenodd"/>
  </g>
</svg>
