<svg xmlns="http://www.w3.org/2000/svg" xmlns:xlink="http://www.w3.org/1999/xlink" preserveAspectRatio="xMidYMid" width="65" height="32" viewBox="0 0 65 32">
  <defs>
    <style>

      .cls-3 {
        fill: #81bda4;
      }

      .cls-5 {
        fill: #ff917b;
      }

      .cls-6 {
        fill: #000000;
      }
    </style>
  </defs>
  <g id="group-36svg">
    <path d="M44.603,6.034 C46.669,4.538 49.208,3.657 51.952,3.657 C58.884,3.657 64.503,9.280 64.503,16.217 C64.503,23.153 58.884,28.777 51.952,28.777 C49.631,28.777 47.457,28.147 45.592,27.047 C45.592,27.047 45.592,27.047 45.592,27.047 " id="path-1" class="cls-3" fill-rule="evenodd"/>
    <path d="M25.303,6.547 C23.159,5.053 20.554,4.178 17.744,4.178 C10.432,4.178 4.503,10.110 4.503,17.427 C4.503,24.745 10.432,30.678 17.744,30.678 C20.629,30.678 23.299,29.754 25.474,28.187 C25.474,28.187 25.474,28.187 25.474,28.187 " id="path-2" class="cls-3" fill-rule="evenodd"/>
    <path d="M48.978,17.427 C48.978,25.120 42.748,31.355 35.061,31.355 C27.374,31.355 21.143,25.120 21.143,17.427 C21.143,9.735 27.374,3.500 35.061,3.500 C42.748,3.500 48.978,9.735 48.978,17.427 Z" id="path-3" class="cls-5" fill-rule="evenodd"/>
    <path d="M32.061,30.855 C23.560,30.855 16.643,23.934 16.643,15.426 C16.643,6.919 23.560,-0.003 32.061,-0.003 C40.562,-0.003 47.479,6.919 47.479,15.426 C47.479,23.934 40.562,30.855 32.061,30.855 ZM32.061,2.999 C25.214,2.999 19.643,8.574 19.643,15.426 C19.643,22.278 25.214,27.853 32.061,27.853 C38.908,27.853 44.479,22.278 44.479,15.426 C44.479,8.574 38.908,2.999 32.061,2.999 Z" id="path-4" class="cls-6" fill-rule="evenodd"/>
    <path d="M48.953,28.277 C46.444,28.277 43.982,27.607 41.831,26.339 C41.117,25.919 40.879,24.999 41.300,24.284 C41.721,23.570 42.640,23.332 43.353,23.752 C45.043,24.748 46.979,25.275 48.953,25.275 C55.046,25.275 60.003,20.313 60.003,14.215 C60.003,8.118 55.046,3.156 48.953,3.156 C46.611,3.156 44.373,3.880 42.482,5.249 C41.811,5.735 40.873,5.583 40.388,4.912 C39.903,4.241 40.053,3.302 40.725,2.816 C43.130,1.075 45.975,0.154 48.953,0.154 C56.700,0.154 63.003,6.462 63.003,14.215 C63.003,21.968 56.700,28.277 48.953,28.277 Z" id="path-5" class="cls-6" fill-rule="evenodd"/>
    <path d="M14.744,30.177 C6.616,30.177 0.003,23.560 0.003,15.426 C0.003,7.292 6.616,0.675 14.744,0.675 C17.772,0.675 20.683,1.587 23.160,3.314 C23.840,3.787 24.007,4.723 23.534,5.403 C23.061,6.083 22.126,6.251 21.446,5.777 C19.474,4.403 17.156,3.677 14.744,3.677 C8.270,3.677 3.003,8.948 3.003,15.426 C3.003,21.904 8.270,27.175 14.744,27.175 C17.223,27.175 19.593,26.412 21.598,24.967 C22.269,24.482 23.208,24.636 23.691,25.308 C24.175,25.981 24.023,26.919 23.351,27.403 C20.833,29.218 17.856,30.177 14.744,30.177 Z" id="path-6" class="cls-6" fill-rule="evenodd"/>
    <path d="M30.403,14.306 C30.403,14.306 36.963,8.157 36.963,8.157 C36.963,8.157 33.719,16.546 33.719,16.546 C33.310,17.603 32.122,18.128 31.065,17.719 C30.008,17.310 29.483,16.121 29.893,15.064 C30.006,14.769 30.188,14.510 30.403,14.306 Z" id="path-7" class="cls-6" fill-rule="evenodd"/>
    <path d="M48.664,13.629 C48.664,13.629 52.647,8.079 52.647,8.079 C52.647,8.079 51.425,14.802 51.425,14.802 C51.273,15.638 50.473,16.192 49.637,16.040 C48.802,15.889 48.248,15.087 48.400,14.251 C48.441,14.021 48.537,13.807 48.664,13.629 Z" id="path-8" class="cls-6" fill-rule="evenodd"/>
    <path d="M13.532,16.832 C13.532,16.832 7.387,12.932 7.387,12.932 C7.387,12.932 14.581,14.020 14.581,14.020 C15.418,14.147 15.995,14.928 15.868,15.766 C15.742,16.603 14.961,17.180 14.123,17.053 C13.909,17.021 13.705,16.941 13.532,16.832 Z" id="path-9" class="cls-6" fill-rule="evenodd"/>
  </g>
</svg>
