<svg xmlns="http://www.w3.org/2000/svg" xmlns:xlink="http://www.w3.org/1999/xlink" preserveAspectRatio="xMidYMid" width="43" height="64" viewBox="0 0 43 64">
  <defs>
    <style>

      .cls-3 {
        fill: #ff917b;
      }

      .cls-4 {
        fill: #53ecf4;
      }

      .cls-5 {
        fill: #edc951;
      }

      .cls-7 {
        fill: #000000;
      }
    </style>
  </defs>
  <g id="group-12svg">
    <path d="M11.534,3.998 C11.534,3.998 35.826,3.998 35.826,3.998 C39.885,3.998 43.107,23.577 42.870,29.986 C42.870,29.986 40.861,47.831 40.861,47.831 C40.691,48.387 38.283,53.033 35.370,53.033 C35.370,53.033 11.990,53.033 11.990,53.033 C9.077,53.033 6.669,50.582 6.499,47.673 C6.499,47.673 4.490,27.721 4.490,27.721 C4.252,23.666 7.475,3.998 11.534,3.998 Z" id="path-1" class="cls-3" fill-rule="evenodd"/>
    <path d="M11.953,24.012 C11.820,21.010 13.625,10.002 15.900,10.002 C15.900,10.002 31.459,10.002 31.459,10.002 C33.734,10.002 35.540,21.010 35.407,24.012 C35.407,24.012 11.953,24.012 11.953,24.012 Z" id="path-2" class="cls-4" fill-rule="evenodd"/>
    <path d="M36.362,34.632 C36.362,36.462 34.879,37.946 33.051,37.946 C31.222,37.946 29.739,36.462 29.739,34.632 C29.739,32.802 31.222,31.318 33.051,31.318 C34.879,31.318 36.362,32.802 36.362,34.632 Z" id="path-3" class="cls-5" fill-rule="evenodd"/>
    <path d="M17.719,34.632 C17.719,36.462 16.236,37.946 14.407,37.946 C12.579,37.946 11.096,36.462 11.096,34.632 C11.096,32.802 12.579,31.318 14.407,31.318 C16.236,31.318 17.719,32.802 17.719,34.632 Z" id="path-4" class="cls-5" fill-rule="evenodd"/>
    <path d="M32.370,52.032 C32.370,52.032 8.990,52.032 8.990,52.032 C5.286,52.032 2.216,49.167 2.001,45.509 C2.001,45.509 -0.003,25.494 -0.003,25.494 C-0.206,22.045 2.105,5.415 6.085,1.192 C6.833,0.398 7.657,-0.005 8.534,-0.005 C8.534,-0.005 32.826,-0.005 32.826,-0.005 C33.684,-0.005 34.490,0.381 35.222,1.141 C39.119,5.187 41.579,22.131 41.369,27.790 C41.368,27.828 41.365,27.866 41.360,27.904 C41.360,27.904 39.352,45.624 39.352,45.624 C39.341,45.716 39.322,45.806 39.295,45.895 C39.072,46.623 36.349,52.032 32.370,52.032 ZM32.770,2.990 C32.770,2.990 8.534,2.997 8.534,2.997 C6.215,3.800 2.704,20.412 2.987,25.257 C2.987,25.257 4.991,45.271 4.991,45.271 C5.120,47.440 6.837,49.030 8.990,49.030 C8.990,49.030 32.370,49.030 32.370,49.030 C34.031,49.030 35.957,46.063 36.394,45.087 C36.394,45.087 38.373,27.623 38.373,27.623 C38.625,20.254 35.223,3.843 32.770,2.990 Z" id="path-5" class="cls-7" fill-rule="evenodd"/>
    <path d="M32.407,23.012 C32.407,23.012 8.953,23.012 8.953,23.012 C8.150,23.012 7.490,22.379 7.455,21.577 C7.339,18.970 8.636,9.398 11.064,6.859 C11.743,6.149 12.437,6.000 12.900,6.000 C12.900,6.000 28.460,6.000 28.460,6.000 C28.923,6.000 29.617,6.149 30.296,6.859 C32.724,9.398 34.020,18.970 33.905,21.577 C33.870,22.379 33.209,23.012 32.407,23.012 ZM10.484,20.009 C10.484,20.009 30.876,20.009 30.876,20.009 C30.624,16.377 29.247,10.155 28.200,9.002 C28.200,9.002 13.160,9.002 13.160,9.002 C12.113,10.155 10.736,16.377 10.484,20.009 Z" id="path-6" class="cls-7" fill-rule="evenodd"/>
    <path d="M30.051,37.445 C27.397,37.445 25.239,35.285 25.239,32.631 C25.239,29.976 27.397,27.816 30.051,27.816 C32.704,27.816 34.862,29.976 34.862,32.631 C34.862,35.285 32.704,37.445 30.051,37.445 ZM30.051,30.818 C29.052,30.818 28.239,31.631 28.239,32.631 C28.239,33.630 29.052,34.443 30.051,34.443 C31.049,34.443 31.862,33.630 31.862,32.631 C31.862,31.631 31.049,30.818 30.051,30.818 Z" id="path-7" class="cls-7" fill-rule="evenodd"/>
    <path d="M11.407,37.445 C8.754,37.445 6.596,35.285 6.596,32.631 C6.596,29.976 8.754,27.816 11.407,27.816 C14.061,27.816 16.219,29.976 16.219,32.631 C16.219,35.285 14.061,37.445 11.407,37.445 ZM11.407,30.818 C10.409,30.818 9.596,31.631 9.596,32.631 C9.596,33.630 10.409,34.443 11.407,34.443 C12.406,34.443 13.219,33.630 13.219,32.631 C13.219,31.631 12.406,30.818 11.407,30.818 Z" id="path-8" class="cls-7" fill-rule="evenodd"/>
    <path d="M30.062,42.025 C30.062,42.025 10.062,42.025 10.062,42.025 C9.234,42.025 8.562,41.353 8.562,40.524 C8.562,39.695 9.234,39.023 10.062,39.023 C10.062,39.023 30.062,39.023 30.062,39.023 C30.891,39.023 31.562,39.695 31.562,40.524 C31.562,41.353 30.891,42.025 30.062,42.025 Z" id="path-9" class="cls-7" fill-rule="evenodd"/>
    <path d="M30.062,47.029 C30.062,47.029 10.062,47.029 10.062,47.029 C9.234,47.029 8.562,46.357 8.562,45.528 C8.562,44.698 9.234,44.026 10.062,44.026 C10.062,44.026 30.062,44.026 30.062,44.026 C30.891,44.026 31.562,44.698 31.562,45.528 C31.562,46.357 30.891,47.029 30.062,47.029 Z" id="path-10" class="cls-7" fill-rule="evenodd"/>
    <path d="M34.062,58.036 C34.062,58.036 6.062,58.036 6.062,58.036 C5.234,58.036 4.562,57.365 4.562,56.535 C4.562,55.706 5.234,55.034 6.062,55.034 C6.062,55.034 34.062,55.034 34.062,55.034 C34.891,55.034 35.562,55.706 35.562,56.535 C35.562,57.365 34.891,58.036 34.062,58.036 Z" id="path-11" class="cls-7" fill-rule="evenodd"/>
    <path d="M38.831,63.049 C38.411,63.049 37.994,62.874 37.697,62.531 C37.697,62.531 28.926,52.414 28.926,52.414 C28.384,51.787 28.451,50.839 29.077,50.297 C29.701,49.753 30.649,49.820 31.193,50.447 C31.193,50.447 39.963,60.564 39.963,60.564 C40.506,61.191 40.439,62.138 39.813,62.682 C39.529,62.928 39.179,63.049 38.831,63.049 Z" id="path-12" class="cls-7" fill-rule="evenodd"/>
    <path d="M1.798,63.049 C1.450,63.049 1.100,62.928 0.816,62.682 C0.190,62.138 0.123,61.191 0.666,60.564 C0.666,60.564 9.436,50.447 9.436,50.447 C9.980,49.820 10.928,49.753 11.552,50.297 C12.178,50.839 12.245,51.787 11.703,52.414 C11.703,52.414 2.932,62.531 2.932,62.531 C2.635,62.874 2.218,63.049 1.798,63.049 Z" id="path-13" class="cls-7" fill-rule="evenodd"/>
  </g>
</svg>
