<svg xmlns="http://www.w3.org/2000/svg" xmlns:xlink="http://www.w3.org/1999/xlink" preserveAspectRatio="xMidYMid" width="64" height="46" viewBox="0 0 64 46">
  <defs>
    <style>

      .cls-3 {
        fill: #81bda4;
      }

      .cls-4 {
        fill: #edc951;
      }

      .cls-5 {
        fill: #000000;
      }
    </style>
  </defs>
  <g id="group-22svg">
    <path d="M32.239,40.528 C27.839,40.528 23.000,37.389 23.000,32.986 C23.000,32.986 23.000,28.983 23.000,28.983 C23.000,24.562 27.821,20.513 32.239,20.513 C32.239,20.513 45.292,20.513 45.292,20.513 C46.253,20.513 47.206,20.919 48.105,21.257 C48.105,21.257 59.329,25.823 59.329,25.823 C62.152,26.641 64.000,27.978 64.000,30.902 C64.000,30.902 64.000,31.700 64.000,31.700 C64.000,36.832 61.082,40.528 55.954,40.528 C55.954,40.528 32.239,40.528 32.239,40.528 Z" id="path-1" class="cls-3" fill-rule="evenodd"/>
    <path d="M23.000,26.518 C23.000,26.518 4.000,26.518 4.000,26.518 C4.000,26.518 4.000,33.035 4.000,33.035 C4.000,33.035 23.418,35.673 23.418,35.673 C23.418,35.673 23.418,35.673 23.418,35.673 " id="path-2" class="cls-4" fill-rule="evenodd"/>
    <path d="M52.954,39.527 C52.954,39.527 29.239,39.527 29.239,39.527 C24.275,39.527 19.000,36.533 19.000,30.985 C19.000,30.985 19.000,26.982 19.000,26.982 C19.000,21.697 24.072,16.511 29.239,16.511 C29.239,16.511 42.292,16.511 42.292,16.511 C43.296,16.511 44.152,16.917 44.907,17.276 C45.153,17.393 45.395,17.510 45.633,17.600 C45.633,17.600 57.075,22.278 57.075,22.278 C61.006,23.438 63.000,25.666 63.000,28.900 C63.000,28.900 63.000,29.698 63.000,29.698 C63.000,35.577 58.963,39.527 52.954,39.527 ZM29.239,19.513 C25.721,19.513 22.000,23.352 22.000,26.982 C22.000,26.982 22.000,30.985 22.000,30.985 C22.000,34.583 25.730,36.525 29.239,36.525 C29.239,36.525 52.954,36.525 52.954,36.525 C57.300,36.525 60.000,33.909 60.000,29.698 C60.000,29.698 60.000,28.900 60.000,28.900 C60.000,27.590 59.544,26.119 56.162,25.139 C56.111,25.124 56.061,25.107 56.012,25.087 C56.012,25.087 44.538,20.395 44.538,20.395 C44.264,20.292 43.943,20.142 43.620,19.988 C43.128,19.754 42.620,19.513 42.292,19.513 C42.292,19.513 29.239,19.513 29.239,19.513 Z" id="path-3" class="cls-5" fill-rule="evenodd"/>
    <path d="M42.500,18.012 C41.671,18.012 41.000,17.340 41.000,16.511 C41.000,16.511 41.000,12.508 41.000,12.508 C41.000,12.508 30.165,12.508 30.165,12.508 C29.480,12.508 28.882,12.043 28.712,11.379 C28.542,10.715 28.844,10.019 29.445,9.690 C29.445,9.690 41.589,3.037 41.589,3.037 C42.317,2.639 43.227,2.907 43.625,3.633 C44.023,4.361 43.756,5.273 43.030,5.671 C43.030,5.671 36.029,9.506 36.029,9.506 C36.029,9.506 42.500,9.506 42.500,9.506 C43.329,9.506 44.000,10.178 44.000,11.007 C44.000,11.007 44.000,16.511 44.000,16.511 C44.000,17.340 43.329,18.012 42.500,18.012 Z" id="path-4" class="cls-5" fill-rule="evenodd"/>
    <path d="M29.500,12.026 C29.331,12.026 29.161,11.997 28.998,11.939 C28.998,11.939 17.713,7.927 17.713,7.927 C16.933,7.650 16.524,6.791 16.802,6.010 C17.079,5.229 17.937,4.821 18.717,5.098 C18.717,5.098 28.000,8.399 28.000,8.399 C28.000,8.399 28.000,1.500 28.000,1.500 C28.000,0.671 28.671,-0.001 29.500,-0.001 C30.329,-0.001 31.000,0.671 31.000,1.500 C31.000,1.500 31.000,10.524 31.000,10.524 C31.000,11.013 30.763,11.470 30.365,11.751 C30.108,11.932 29.806,12.026 29.500,12.026 Z" id="path-5" class="cls-5" fill-rule="evenodd"/>
    <path d="M51.017,33.523 C51.017,33.523 40.000,33.523 40.000,33.523 C39.171,33.523 38.500,32.851 38.500,32.022 C38.500,31.192 39.171,30.521 40.000,30.521 C40.000,30.521 51.017,30.521 51.017,30.521 C51.554,30.521 51.803,30.471 51.906,30.441 C51.945,30.309 52.000,29.980 52.000,29.167 C52.000,29.167 52.000,28.845 52.000,28.845 C52.000,27.965 51.852,27.922 51.681,27.873 C51.583,27.844 51.489,27.806 51.399,27.759 C51.399,27.759 47.138,25.517 47.138,25.517 C47.138,25.517 41.000,25.517 41.000,25.517 C40.171,25.517 39.500,24.845 39.500,24.016 C39.500,23.187 40.171,22.515 41.000,22.515 C41.000,22.515 47.508,22.515 47.508,22.515 C47.751,22.515 47.991,22.574 48.206,22.687 C48.206,22.687 52.676,25.039 52.676,25.039 C54.218,25.553 55.000,26.833 55.000,28.845 C55.000,28.845 55.000,29.167 55.000,29.167 C55.000,31.371 54.692,33.523 51.017,33.523 Z" id="path-6" class="cls-5" fill-rule="evenodd"/>
    <path d="M20.670,34.923 C20.608,34.923 20.545,34.919 20.482,34.911 C20.482,34.911 1.314,32.523 1.314,32.523 C0.563,32.430 -0.000,31.791 -0.000,31.034 C-0.000,31.034 -0.000,24.016 -0.000,24.016 C-0.000,23.187 0.671,22.515 1.500,22.515 C1.500,22.515 20.000,22.515 20.000,22.515 C20.829,22.515 21.500,23.187 21.500,24.016 C21.500,24.845 20.829,25.517 20.000,25.517 C20.000,25.517 3.000,25.517 3.000,25.517 C3.000,25.517 3.000,29.708 3.000,29.708 C3.000,29.708 20.853,31.932 20.853,31.932 C21.675,32.034 22.259,32.784 22.156,33.607 C22.062,34.367 21.415,34.923 20.670,34.923 Z" id="path-7" class="cls-5" fill-rule="evenodd"/>
    <path d="M52.000,45.531 C52.000,45.531 32.000,45.531 32.000,45.531 C31.171,45.531 30.500,44.859 30.500,44.030 C30.500,43.201 31.171,42.529 32.000,42.529 C32.000,42.529 52.000,42.529 52.000,42.529 C52.829,42.529 53.500,43.201 53.500,44.030 C53.500,44.859 52.829,45.531 52.000,45.531 Z" id="path-8" class="cls-5" fill-rule="evenodd"/>
    <path d="M1.500,31.021 C0.671,31.021 -0.000,30.349 -0.000,29.520 C-0.000,29.520 -0.000,14.509 -0.000,14.509 C-0.000,13.680 0.671,13.008 1.500,13.008 C2.329,13.008 3.000,13.680 3.000,14.509 C3.000,14.509 3.000,29.520 3.000,29.520 C3.000,30.349 2.329,31.021 1.500,31.021 Z" id="path-9" class="cls-5" fill-rule="evenodd"/>
  </g>
</svg>
