<svg xmlns="http://www.w3.org/2000/svg" xmlns:xlink="http://www.w3.org/1999/xlink" preserveAspectRatio="xMidYMid" width="65" height="44" viewBox="0 0 65 44">
  <defs>
    <style>

      .cls-3 {
        fill: #99746a;
      }

      .cls-4 {
        fill: #e56a77;
      }

      .cls-6 {
        fill: #edc951;
      }

      .cls-7 {
        fill: #000000;
      }
    </style>
  </defs>
  <g id="group-23svg">
    <path d="M9.400,37.671 C7.234,37.374 5.000,35.201 5.000,32.951 C5.000,32.951 5.000,7.005 5.000,7.005 C5.000,4.794 6.791,3.002 9.000,3.002 C9.000,3.002 50.591,3.002 50.591,3.002 C52.464,3.002 54.137,3.586 54.772,5.349 C54.772,5.349 58.059,14.177 58.059,14.177 C58.421,15.182 59.133,15.875 60.063,16.398 C60.063,16.398 62.922,18.037 62.922,18.037 C64.323,18.824 65.000,20.233 65.000,21.841 C65.000,21.841 65.000,34.024 65.000,34.024 C65.000,36.235 63.209,38.027 61.000,38.027 C61.000,38.027 59.000,38.027 59.000,38.027 C59.000,38.027 59.000,38.027 59.000,38.027 " id="path-1" class="cls-3" fill-rule="evenodd"/>
    <path d="M56.659,37.862 C56.659,40.401 54.602,42.459 52.065,42.459 C49.527,42.459 47.471,40.401 47.471,37.862 C47.471,35.323 49.527,33.265 52.065,33.265 C54.602,33.265 56.659,35.323 56.659,37.862 Z" id="path-2" class="cls-4" fill-rule="evenodd"/>
    <path d="M17.770,37.862 C17.770,40.401 15.713,42.459 13.176,42.459 C10.639,42.459 8.582,40.401 8.582,37.862 C8.582,35.323 10.639,33.265 13.176,33.265 C15.713,33.265 17.770,35.323 17.770,37.862 Z" id="path-3" class="cls-4" fill-rule="evenodd"/>
    <path d="M63.000,29.021 C63.000,29.021 44.000,29.021 44.000,29.021 C44.000,29.021 44.000,17.012 44.000,17.012 C44.000,17.012 54.630,17.012 54.630,17.012 C59.048,17.012 63.000,20.133 63.000,24.554 C63.000,24.554 63.000,29.021 63.000,29.021 Z" id="path-4" class="cls-6" fill-rule="evenodd"/>
    <path d="M43.000,38.027 C43.000,38.027 15.000,38.027 15.000,38.027 C14.171,38.027 13.500,37.355 13.500,36.526 C13.500,35.697 14.171,35.025 15.000,35.025 C15.000,35.025 43.000,35.025 43.000,35.025 C43.829,35.025 44.500,35.697 44.500,36.526 C44.500,37.355 43.829,38.027 43.000,38.027 Z" id="path-5" class="cls-7" fill-rule="evenodd"/>
    <path d="M57.500,38.027 C57.500,38.027 55.000,38.027 55.000,38.027 C54.171,38.027 53.500,37.355 53.500,36.526 C53.500,35.697 54.171,35.025 55.000,35.025 C55.000,35.025 57.500,35.025 57.500,35.025 C58.878,35.025 60.000,33.902 60.000,32.523 C60.000,32.523 60.000,20.840 60.000,20.840 C60.000,19.824 59.401,18.856 58.437,18.314 C58.437,18.314 55.354,16.657 55.354,16.657 C54.040,15.919 53.113,14.853 52.648,13.559 C52.648,13.559 49.364,4.616 49.364,4.616 C48.839,3.159 47.250,3.002 46.591,3.002 C46.591,3.002 5.500,3.002 5.500,3.002 C4.122,3.002 3.000,4.125 3.000,5.504 C3.000,5.504 3.000,31.950 3.000,31.950 C3.000,33.501 4.476,34.744 5.854,34.933 C6.675,35.046 7.249,35.803 7.137,36.625 C7.024,37.446 6.266,38.021 5.447,37.908 C2.443,37.496 -0.000,34.824 -0.000,31.950 C-0.000,31.950 -0.000,5.504 -0.000,5.504 C-0.000,2.469 2.467,0.000 5.500,0.000 C5.500,0.000 46.591,0.000 46.591,0.000 C49.283,0.000 51.373,1.342 52.183,3.590 C52.183,3.590 55.467,12.533 55.467,12.533 C55.691,13.155 56.138,13.655 56.798,14.026 C56.798,14.026 59.881,15.683 59.881,15.683 C61.814,16.769 63.000,18.740 63.000,20.840 C63.000,20.840 63.000,32.523 63.000,32.523 C63.000,35.558 60.533,38.027 57.500,38.027 Z" id="path-6" class="cls-7" fill-rule="evenodd"/>
    <path d="M49.065,42.960 C45.705,42.960 42.971,40.224 42.971,36.861 C42.971,33.499 45.705,30.763 49.065,30.763 C52.425,30.763 55.159,33.499 55.159,36.861 C55.159,40.224 52.425,42.960 49.065,42.960 ZM49.065,33.765 C47.359,33.765 45.971,35.154 45.971,36.861 C45.971,38.569 47.359,39.958 49.065,39.958 C50.771,39.958 52.159,38.569 52.159,36.861 C52.159,35.154 50.771,33.765 49.065,33.765 Z" id="path-7" class="cls-7" fill-rule="evenodd"/>
    <path d="M10.176,42.960 C6.815,42.960 4.081,40.224 4.081,36.861 C4.081,33.499 6.815,30.763 10.176,30.763 C13.536,30.763 16.270,33.499 16.270,36.861 C16.270,40.224 13.536,42.960 10.176,42.960 ZM10.176,33.765 C8.470,33.765 7.082,35.154 7.082,36.861 C7.082,38.569 8.470,39.958 10.176,39.958 C11.882,39.958 13.270,38.569 13.270,36.861 C13.270,35.154 11.882,33.765 10.176,33.765 Z" id="path-8" class="cls-7" fill-rule="evenodd"/>
    <path d="M40.500,28.520 C39.671,28.520 39.000,27.848 39.000,27.019 C39.000,27.019 39.000,2.001 39.000,2.001 C39.000,1.172 39.671,0.500 40.500,0.500 C41.329,0.500 42.000,1.172 42.000,2.001 C42.000,2.001 42.000,27.019 42.000,27.019 C42.000,27.848 41.329,28.520 40.500,28.520 Z" id="path-9" class="cls-7" fill-rule="evenodd"/>
    <path d="M61.000,29.021 C61.000,29.021 2.000,29.021 2.000,29.021 C1.171,29.021 0.500,28.349 0.500,27.520 C0.500,26.690 1.171,26.018 2.000,26.018 C2.000,26.018 61.000,26.018 61.000,26.018 C61.829,26.018 62.500,26.690 62.500,27.520 C62.500,28.349 61.829,29.021 61.000,29.021 Z" id="path-10" class="cls-7" fill-rule="evenodd"/>
    <path d="M56.000,17.012 C56.000,17.012 41.000,17.012 41.000,17.012 C40.171,17.012 39.500,16.340 39.500,15.511 C39.500,14.682 40.171,14.010 41.000,14.010 C41.000,14.010 56.000,14.010 56.000,14.010 C56.829,14.010 57.500,14.682 57.500,15.511 C57.500,16.340 56.829,17.012 56.000,17.012 Z" id="path-11" class="cls-7" fill-rule="evenodd"/>
  </g>
</svg>
