<svg xmlns="http://www.w3.org/2000/svg" xmlns:xlink="http://www.w3.org/1999/xlink" preserveAspectRatio="xMidYMid" width="65" height="42" viewBox="0 0 65 42">
  <defs>
    <style>

      .cls-3 {
        fill: #53ecf4;
      }

      .cls-4 {
        fill: #edc951;
      }

      .cls-8 {
        fill: #000000;
      }
    </style>
  </defs>
  <g id="group-25svg">
    <path d="M57.094,24.704 C57.094,24.704 64.505,22.259 64.505,22.259 C64.505,22.259 62.806,17.101 62.806,17.101 C62.806,17.101 42.138,18.060 42.138,18.060 C42.138,18.060 21.956,24.048 21.956,24.048 C21.956,24.048 4.505,36.335 4.505,36.335 C4.505,36.335 6.204,41.493 6.204,41.493 C6.204,41.493 13.615,39.048 13.615,39.048 C13.615,39.048 13.615,39.048 13.615,39.048 " id="path-1" class="cls-3" fill-rule="evenodd"/>
    <path d="M43.448,22.134 C45.286,27.715 42.255,33.732 36.678,35.572 C31.100,37.411 25.088,34.379 23.249,28.797 C21.410,23.215 23.230,13.524 28.808,11.684 C34.386,9.844 41.608,16.552 43.448,22.134 Z" id="path-2" class="cls-4" fill-rule="evenodd"/>
    <path d="M56.571,24.827 C57.077,26.360 56.244,28.013 54.712,28.518 C53.180,29.024 51.528,28.191 51.023,26.657 C50.519,25.124 51.351,23.471 52.883,22.966 C54.415,22.460 56.066,23.294 56.571,24.827 Z" id="path-3" class="cls-4" fill-rule="evenodd"/>
    <path d="M14.858,38.589 C15.395,40.219 17.151,41.105 18.780,40.568 C20.409,40.030 21.295,38.273 20.758,36.642 C20.220,35.012 18.464,34.126 16.835,34.663 C15.206,35.201 14.321,36.959 14.858,38.589 Z" id="path-4" class="cls-4" fill-rule="evenodd"/>
    <path d="M34.751,12.373 C34.751,12.373 27.479,3.100 27.479,3.100 C26.593,1.968 24.778,2.553 24.717,3.990 C24.717,3.990 24.202,16.253 24.202,16.253 C24.202,16.253 24.202,16.253 24.202,16.253 " id="path-5" class="cls-4" fill-rule="evenodd"/>
    <path d="M30.346,36.610 C25.099,36.610 20.469,33.257 18.824,28.266 C17.815,25.202 17.806,21.053 18.801,17.438 C19.977,13.166 22.299,10.260 25.338,9.258 C26.115,9.002 26.939,8.872 27.790,8.872 C33.626,8.872 40.039,15.097 41.873,20.663 C43.967,27.022 40.501,33.900 34.147,35.996 C32.914,36.403 31.635,36.610 30.346,36.610 ZM27.790,11.874 C27.259,11.874 26.750,11.953 26.278,12.109 C24.252,12.777 22.581,15.010 21.693,18.235 C20.847,21.311 20.839,24.794 21.674,27.326 C22.911,31.084 26.396,33.608 30.346,33.608 C31.315,33.608 32.278,33.452 33.208,33.145 C37.991,31.567 40.600,26.390 39.023,21.602 C37.571,17.196 32.237,11.874 27.790,11.874 Z" id="path-6" class="cls-8" fill-rule="evenodd"/>
    <path d="M17.532,37.267 C16.902,37.267 16.315,36.867 16.107,36.235 C15.848,35.448 16.276,34.599 17.062,34.340 C17.062,34.340 22.992,32.383 22.992,32.383 C23.776,32.125 24.626,32.552 24.886,33.339 C25.145,34.127 24.718,34.975 23.931,35.235 C23.931,35.235 18.002,37.191 18.002,37.191 C17.846,37.242 17.687,37.267 17.532,37.267 Z" id="path-7" class="cls-8" fill-rule="evenodd"/>
    <path d="M40.259,29.769 C39.629,29.769 39.043,29.369 38.835,28.737 C38.576,27.950 39.003,27.101 39.790,26.841 C39.790,26.841 46.707,24.560 46.707,24.560 C47.491,24.300 48.342,24.728 48.602,25.515 C48.861,26.303 48.433,27.151 47.646,27.411 C47.646,27.411 40.729,29.693 40.729,29.693 C40.574,29.744 40.415,29.769 40.259,29.769 Z" id="path-8" class="cls-8" fill-rule="evenodd"/>
    <path d="M54.093,25.205 C53.463,25.205 52.877,24.804 52.669,24.173 C52.410,23.386 52.837,22.537 53.624,22.278 C53.624,22.278 59.611,20.303 59.611,20.303 C59.611,20.303 58.738,17.652 58.738,17.652 C58.738,17.652 39.207,18.559 39.207,18.559 C38.382,18.598 37.678,17.957 37.639,17.130 C37.601,16.301 38.241,15.599 39.068,15.561 C39.068,15.561 59.736,14.600 59.736,14.600 C60.403,14.571 61.020,14.990 61.230,15.630 C61.230,15.630 62.930,20.788 62.930,20.788 C63.189,21.576 62.761,22.424 61.975,22.684 C61.975,22.684 54.563,25.129 54.563,25.129 C54.408,25.180 54.249,25.205 54.093,25.205 Z" id="path-9" class="cls-8" fill-rule="evenodd"/>
    <path d="M3.204,41.993 C2.972,41.993 2.740,41.940 2.529,41.833 C2.174,41.654 1.904,41.341 1.779,40.962 C1.779,40.962 0.080,35.804 0.080,35.804 C-0.127,35.177 0.102,34.487 0.642,34.106 C0.642,34.106 18.093,21.819 18.093,21.819 C18.772,21.342 19.706,21.506 20.183,22.183 C20.660,22.862 20.497,23.798 19.820,24.275 C19.820,24.275 3.278,35.922 3.278,35.922 C3.278,35.922 4.159,38.597 4.159,38.597 C4.159,38.597 10.146,36.622 10.146,36.622 C10.930,36.362 11.780,36.790 12.040,37.577 C12.299,38.365 11.872,39.214 11.085,39.473 C11.085,39.473 3.674,41.918 3.674,41.918 C3.521,41.968 3.362,41.993 3.204,41.993 Z" id="path-10" class="cls-8" fill-rule="evenodd"/>
    <path d="M50.797,29.166 C48.885,29.166 47.198,27.944 46.599,26.126 C45.836,23.810 47.098,21.303 49.413,20.540 C49.862,20.392 50.328,20.317 50.798,20.317 C52.710,20.317 54.397,21.538 54.996,23.357 C55.366,24.478 55.277,25.678 54.745,26.733 C54.213,27.788 53.303,28.573 52.182,28.943 C51.732,29.091 51.267,29.166 50.797,29.166 ZM50.798,23.319 C50.648,23.319 50.498,23.343 50.352,23.391 C49.608,23.637 49.203,24.442 49.448,25.187 C49.688,25.914 50.500,26.336 51.242,26.092 C51.603,25.973 51.895,25.721 52.066,25.381 C52.237,25.042 52.266,24.657 52.147,24.296 C51.954,23.711 51.412,23.319 50.798,23.319 Z" id="path-11" class="cls-8" fill-rule="evenodd"/>
    <path d="M14.807,41.225 C14.807,41.225 14.807,41.225 14.807,41.225 C12.815,41.225 11.057,39.952 10.433,38.058 C9.638,35.645 10.954,33.033 13.365,32.237 C13.833,32.083 14.319,32.005 14.808,32.005 C16.800,32.005 18.558,33.277 19.183,35.172 C19.977,37.585 18.662,40.197 16.250,40.993 C15.782,41.147 15.296,41.225 14.807,41.225 ZM14.808,35.007 C14.638,35.007 14.469,35.034 14.305,35.089 C13.464,35.366 13.005,36.276 13.283,37.118 C13.553,37.941 14.475,38.417 15.310,38.142 C16.152,37.864 16.610,36.953 16.333,36.112 C16.116,35.451 15.502,35.007 14.808,35.007 Z" id="path-12" class="cls-8" fill-rule="evenodd"/>
    <path d="M21.203,16.754 C21.182,16.754 21.161,16.753 21.139,16.752 C20.312,16.718 19.668,16.018 19.704,15.190 C19.704,15.190 20.219,2.927 20.219,2.927 C20.273,1.637 21.101,0.548 22.329,0.152 C23.556,-0.243 24.864,0.157 25.660,1.172 C25.660,1.172 32.931,10.446 32.931,10.446 C33.442,11.098 33.329,12.041 32.677,12.554 C32.026,13.065 31.082,12.952 30.571,12.299 C30.571,12.299 23.299,3.026 23.299,3.026 C23.299,3.026 22.701,15.316 22.701,15.316 C22.667,16.122 22.002,16.754 21.203,16.754 Z" id="path-13" class="cls-8" fill-rule="evenodd"/>
    <path d="M24.824,24.978 C24.404,24.978 24.013,24.712 23.874,24.290 C22.787,20.989 24.569,17.422 27.848,16.340 C29.434,15.817 31.135,15.948 32.634,16.710 C34.128,17.471 35.240,18.764 35.763,20.354 C35.936,20.879 35.651,21.445 35.126,21.618 C34.601,21.792 34.037,21.506 33.864,20.981 C33.506,19.897 32.748,19.013 31.728,18.494 C30.708,17.975 29.554,17.885 28.474,18.241 C26.243,18.978 25.032,21.410 25.774,23.664 C25.947,24.189 25.662,24.755 25.137,24.928 C25.033,24.962 24.928,24.978 24.824,24.978 Z" id="path-14" class="cls-8" fill-rule="evenodd"/>
  </g>
</svg>
