<svg xmlns="http://www.w3.org/2000/svg" xmlns:xlink="http://www.w3.org/1999/xlink" preserveAspectRatio="xMidYMid" width="64" height="48" viewBox="0 0 64 48">
  <defs>
    <style>

      .cls-3 {
        fill: #edc951;
      }

      .cls-4 {
        fill: #000000;
      }
    </style>
  </defs>
  <g id="group-30svg">
    <path d="M59.034,46.187 C61.328,42.185 62.643,37.611 62.643,32.605 C62.643,17.095 50.078,4.616 34.578,4.616 C19.079,4.616 6.514,17.047 6.514,32.558 C6.514,37.564 7.829,42.185 10.123,46.187 C10.123,46.187 59.034,46.187 59.034,46.187 Z" id="path-1" class="cls-3" fill-rule="evenodd"/>
    <path d="M29.448,32.464 C29.448,32.464 42.806,15.048 42.806,15.048 C42.806,15.048 33.736,35.039 33.736,35.039 C33.161,36.304 31.670,36.865 30.404,36.290 C29.139,35.715 28.579,34.222 29.153,32.956 C29.232,32.781 29.338,32.610 29.448,32.464 Z" id="path-2" class="cls-4" fill-rule="evenodd"/>
    <path d="M57.656,47.188 C57.656,47.188 5.372,47.188 5.372,47.188 C4.851,47.188 4.366,46.917 4.093,46.472 C1.463,42.177 0.014,36.772 0.014,31.250 C0.014,14.026 14.145,0.013 31.515,0.013 C48.883,0.013 63.014,14.068 63.014,31.345 C63.014,36.885 61.603,42.116 58.935,46.472 C58.662,46.917 58.178,47.188 57.656,47.188 ZM6.230,44.186 C6.230,44.186 56.799,44.186 56.799,44.186 C58.904,40.449 60.014,36.028 60.014,31.345 C60.014,15.724 47.229,3.015 31.515,3.015 C15.799,3.015 3.014,15.681 3.014,31.250 C3.014,35.919 4.151,40.478 6.230,44.186 Z" id="path-3" class="cls-4" fill-rule="evenodd"/>
    <path d="M31.156,9.662 C30.328,9.662 29.656,8.990 29.656,8.161 C29.656,8.161 29.656,2.156 29.656,2.156 C29.656,1.327 30.328,0.655 31.156,0.655 C31.984,0.655 32.656,1.327 32.656,2.156 C32.656,2.156 32.656,8.161 32.656,8.161 C32.656,8.990 31.984,9.662 31.156,9.662 Z" id="path-4" class="cls-4" fill-rule="evenodd"/>
    <path d="M8.656,30.176 C8.656,30.176 1.656,30.176 1.656,30.176 C0.828,30.176 0.156,29.504 0.156,28.675 C0.156,27.846 0.828,27.174 1.656,27.174 C1.656,27.174 8.656,27.174 8.656,27.174 C9.484,27.174 10.156,27.846 10.156,28.675 C10.156,29.504 9.484,30.176 8.656,30.176 Z" id="path-5" class="cls-4" fill-rule="evenodd"/>
    <path d="M60.656,30.176 C60.656,30.176 53.656,30.176 53.656,30.176 C52.828,30.176 52.156,29.504 52.156,28.675 C52.156,27.846 52.828,27.174 53.656,27.174 C53.656,27.174 60.656,27.174 60.656,27.174 C61.484,27.174 62.156,27.846 62.156,28.675 C62.156,29.504 61.484,30.176 60.656,30.176 Z" id="path-6" class="cls-4" fill-rule="evenodd"/>
  </g>
</svg>
