<?xml version="1.0" encoding="UTF-8" standalone="no"?>
<!-- Created with Inkscape (http://www.inkscape.org/) -->

<svg
   xmlns:dc="http://purl.org/dc/elements/1.1/"
   xmlns:cc="http://creativecommons.org/ns#"
   xmlns:rdf="http://www.w3.org/1999/02/22-rdf-syntax-ns#"
   xmlns:svg="http://www.w3.org/2000/svg"
   xmlns="http://www.w3.org/2000/svg"
   xmlns:sodipodi="http://sodipodi.sourceforge.net/DTD/sodipodi-0.dtd"
   xmlns:inkscape="http://www.inkscape.org/namespaces/inkscape"
   width="56.322605mm"
   height="54.94593mm"
   viewBox="0 0 199.56829 194.6903"
   id="svg2"
   version="1.1"
   inkscape:version="0.91 r13725"
   sodipodi:docname="gsis.svg">
  <defs
     id="defs4" />
  <sodipodi:namedview
     id="base"
     pagecolor="#ffffff"
     bordercolor="#666666"
     borderopacity="1.0"
     inkscape:pageopacity="0.0"
     inkscape:pageshadow="2"
     inkscape:zoom="0.98994949"
     inkscape:cx="23.301069"
     inkscape:cy="-0.32390516"
     inkscape:document-units="px"
     inkscape:current-layer="layer1"
     showgrid="false"
     inkscape:window-width="1920"
     inkscape:window-height="1176"
     inkscape:window-x="0"
     inkscape:window-y="0"
     inkscape:window-maximized="1"
     fit-margin-top="0"
     fit-margin-left="0"
     fit-margin-right="0"
     fit-margin-bottom="0" />
  <metadata
     id="metadata7">
    <rdf:RDF>
      <cc:Work
         rdf:about="">
        <dc:format>image/svg+xml</dc:format>
        <dc:type
           rdf:resource="http://purl.org/dc/dcmitype/StillImage" />
        <dc:title></dc:title>
      </cc:Work>
    </rdf:RDF>
  </metadata>
  <g
     inkscape:label="Layer 1"
     inkscape:groupmode="layer"
     id="layer1"
     transform="translate(-409.29074,-642.87421)">
    <path
       style="fill:#008dff;fill-opacity:0.7914692"
       d="m 439.62443,811.34028 0,-52.8034 c 0,-52.08776 0.0409,-52.85544 3.01867,-56.64103 1.66026,-2.11069 5.57018,-4.99645 8.6887,-6.41282 5.22845,-2.37465 10.23163,-2.57759 64.2407,-2.60574 l 58.57066,-0.0306 c 8.53231,-2.30997 13.25634,19.4627 1.44556,19.4627 l -48.42895,0 c -47.48346,0 -54.68946,0.57966 -57.24907,4.6051 -0.5773,0.90792 -1.05923,22.48261 -1.07093,47.94373 -0.0177,38.54127 0.099,47.26221 -2.12096,50.35329 -15.15457,12.8324 -20.90206,4.95116 -27.09438,-3.87123 z m 33.24968,1.34504 0.40503,-43.35046 c 0.38479,-41.18589 0.54094,-43.44977 3.12716,-45.3395 2.26329,-1.65377 11.045,-1.92754 52.09914,-1.62424 0,0 47.14486,0.54337 48.93057,0.3648 4.59303,4.15968 3.96002,9.86379 -2.41753,12.19598 -3.59158,0.95225 -11.89875,1.01085 -36.6401,1.01085 -29.78265,0 -37.58359,0.38671 -39.75258,1.97061 -2.52432,1.8434 -2.74342,4.39442 -3.39365,39.51172 -0.69208,37.37808 -0.70973,37.55665 -4.06535,41.12536 -7.93636,8.59956 -18.28835,0.75229 -18.29269,-5.86512 z m 30.21957,6.9071 c -2.0011,-2.21118 -2.30075,-6.72461 -2.30075,-34.65393 l 0,-32.11162 c 11.28446,-8.14553 55.14251,-8.23369 58.91474,0.55557 0.47496,1.23774 0.86356,16.178 0.86356,33.2006 0,28.2185 -0.22439,31.15325 -2.5423,33.25093 -3.41797,3.09322 -8.15656,2.90777 -9.92053,-0.38824 -0.82637,-1.5441 -1.4391,-12.52368 -1.4391,-25.78761 0,-31.04084 -0.85145,-32.69189 -16.85921,-32.69189 -6.94882,0 -8.84292,0.55226 -11.70295,3.41229 -3.3686,3.36861 -3.41228,3.73062 -3.41228,28.2835 0,22.32928 -0.25983,25.10634 -2.5423,27.17195 -3.30433,2.99037 -6.20401,2.91306 -9.05888,-0.24155 z m 66.32499,0.46626 c -0.94782,-2.46996 3.66512,-11.87753 9.34148,-19.05094 5.36922,-6.78527 7.14724,-11.7831 6.04691,-16.99728 -1.26574,-5.99802 -5.521,-12.5701 -9.25711,-14.29725 -1.73915,-0.80399 -5.03884,-4.96965 -7.33266,-9.25702 -6.41659,-11.99325 -5.54551,-12.60922 18.50019,-13.08209 18.23223,-0.35856 19.69282,-0.19671 21.04622,2.33212 1.96925,3.67958 0.46944,6.96908 -3.55473,7.79652 -1.82718,0.3757 -4.84236,0.99684 -6.70041,1.38028 -7.98375,1.64763 -10.02123,8.89404 -4.38432,15.59313 5.64852,6.71288 5.90738,12.69675 0.93071,21.51492 -7.50652,13.30081 -4.98757,19.19269 8.20545,19.19269 6.00549,0 8.08049,1.84962 5.52686,4.92656 -2.49192,3.00258 -37.21451,2.95585 -38.36859,-0.0516 z"
       id="path4167"
       inkscape:connector-curvature="0"
       sodipodi:nodetypes="csssscsssscccsssccsssccssccssssssssscsssssssssssscc" />
    <rect
       style="fill:none;fill-opacity:1;stroke:#ed9e38;stroke-width:3.79999995;stroke-linecap:round;stroke-linejoin:round;stroke-miterlimit:4;stroke-dasharray:none;stroke-opacity:1"
       id="rect4173"
       width="136.78572"
       height="139.28572"
       x="755.62714"
       y="284.2001"
       transform="matrix(0.84440426,0.53570649,-0.53570649,0.84440426,0,0)" />
  </g>
</svg>
