<svg xmlns="http://www.w3.org/2000/svg" viewBox="0 0 48 48"><circle cx="24" cy="23.998" r="24" fill="#58595b"/><g fill="#fff"><path d="M9.314 32.626c3.803 3.302 7.969 6.372 13.572 6.374.109 0 .219-.002.332-.004 3.564-.082 7.596-1.286 10.725-3.251l.018-.012c.41-.246.82-.524 1.205-.834.242-.178.406-.455.406-.744-.01-.516-.447-.864-.918-.864a1.004 1.004 0 0 0-.445.102c-.16.064-.326.137-.479.203l-.23.096-.295.119v.002c-3.219 1.305-6.6 2.071-9.728 2.14-.115.004-.23.004-.344.004-4.92.002-8.936-2.282-12.984-4.531a.932.932 0 0 0-.428-.113.75.75 0 0 0-.506.195.682.682 0 0 0-.215.502.8.8 0 0 0 .314.616z"/><path d="M38.994 31.465c-.012-.313-.078-.551-.209-.748l-.012-.02-.016-.02c-.133-.145-.26-.199-.398-.26-.41-.158-1.008-.242-1.726-.244-.518 0-1.09.049-1.662.174l-.002-.037-.576.191-.01.006-.326.106v.014a5.19 5.19 0 0 0-1.053.59c-.201.152-.369.35-.379.655a.615.615 0 0 0 .221.471.694.694 0 0 0 .539.144l.025-.002.023-.004c.281-.061.693-.1 1.174-.168.412-.045.85-.08 1.228-.08.269 0 .51.018.676.055a.779.779 0 0 1 .205.069.584.584 0 0 1 .016.166c.006.317-.131.907-.314 1.481-.18.576-.4 1.153-.545 1.536a.785.785 0 0 0-.055.291.635.635 0 0 0 .193.465.645.645 0 0 0 .439.174h.006a.912.912 0 0 0 .549-.209c1.465-1.319 1.973-3.421 1.994-4.604l-.006-.19v-.002zM25.605 17.346c-.861.065-1.855.131-2.848.262-1.523.201-3.045.465-4.303 1.063-2.449.993-4.105 3.111-4.105 6.224 0 3.908 2.516 5.895 5.695 5.895 1.059 0 1.92-.135 2.713-.33 1.26-.399 2.316-1.126 3.576-2.452.727.993.926 1.458 2.184 2.517.33.131.662.131.926-.064.797-.664 2.186-1.856 2.912-2.519.334-.264.266-.662.066-.991-.726-.928-1.455-1.723-1.455-3.513v-5.96c0-2.517.199-4.836-1.654-6.556C27.791 9.532 25.406 9 23.553 9h-.795c-3.375.197-6.951 1.655-7.746 5.829-.133.53.266.727.531.793l3.705.463c.399-.066.598-.399.662-.727.332-1.458 1.523-2.187 2.848-2.319h.266c.795 0 1.654.332 2.117.995.529.795.465 1.854.465 2.782v.53zm-.728 7.88c-.463.924-1.258 1.52-2.119 1.723-.133 0-.33.064-.531.064-1.455 0-2.316-1.127-2.316-2.781 0-2.122 1.26-3.115 2.848-3.578.861-.197 1.853-.266 2.848-.266v.795c-.002 1.526.063 2.718-.73 4.043z"/></g></svg>