<svg xmlns="http://www.w3.org/2000/svg" xmlns:xlink="http://www.w3.org/1999/xlink" preserveAspectRatio="xMidYMid" width="65" height="63" viewBox="0 0 65 63">
  <defs>
    <style>

      .cls-3 {
        fill: #53ecf4;
      }

      .cls-4 {
        fill: #edc951;
      }

      .cls-5 {
        fill: #99746a;
      }

      .cls-8 {
        fill: #000000;
      }
    </style>
  </defs>
  <g id="group-25svg">
    <path d="M42.000,21.012 C42.000,21.012 27.784,21.012 27.784,21.012 C27.784,21.012 11.000,21.012 11.000,21.012 C11.000,21.012 11.000,4.001 11.000,4.001 C11.000,4.001 42.000,4.001 42.000,4.001 C42.000,4.001 42.000,21.012 42.000,21.012 Z" id="path-1" class="cls-3" fill-rule="evenodd"/>
    <path d="M56.000,27.016 C56.000,27.016 51.000,27.016 51.000,27.016 C51.000,27.016 51.000,18.010 51.000,18.010 C51.000,18.010 56.000,18.010 56.000,18.010 C56.000,18.010 56.000,27.016 56.000,27.016 Z" id="path-2" class="cls-4" fill-rule="evenodd"/>
    <path d="M4.000,34.021 C4.000,34.021 65.000,34.021 65.000,34.021 C65.000,34.021 65.000,27.016 65.000,27.016 C65.000,27.016 4.000,27.016 4.000,27.016 C4.000,27.016 4.000,34.021 4.000,34.021 Z" id="path-3" class="cls-5" fill-rule="evenodd"/>
    <path d="M4.000,34.021 C4.000,34.021 4.000,62.041 4.000,62.041 C4.000,62.041 9.872,62.041 9.872,62.041 C9.872,62.041 11.872,34.021 11.872,34.021 C11.872,34.021 4.000,34.021 4.000,34.021 Z" id="path-4" class="cls-5" fill-rule="evenodd"/>
    <path d="M57.872,34.021 C57.872,34.021 59.872,62.041 59.872,62.041 C59.872,62.041 65.000,62.041 65.000,62.041 C65.000,62.041 65.000,34.021 65.000,34.021 C65.000,34.021 57.872,34.021 57.872,34.021 Z" id="path-5" class="cls-5" fill-rule="evenodd"/>
    <path d="M62.500,33.021 C62.500,33.021 1.500,33.021 1.500,33.021 C0.672,33.021 -0.000,32.348 -0.000,31.520 C-0.000,31.520 -0.000,24.515 -0.000,24.515 C-0.000,23.686 0.672,23.014 1.500,23.014 C1.500,23.014 62.500,23.014 62.500,23.014 C63.328,23.014 64.000,23.686 64.000,24.515 C64.000,24.515 64.000,31.520 64.000,31.520 C64.000,32.348 63.328,33.021 62.500,33.021 ZM3.000,30.019 C3.000,30.019 61.000,30.019 61.000,30.019 C61.000,30.019 61.000,26.016 61.000,26.016 C61.000,26.016 3.000,26.016 3.000,26.016 C3.000,26.016 3.000,30.019 3.000,30.019 Z" id="path-6" class="cls-8" fill-rule="evenodd"/>
    <path d="M6.872,61.040 C6.872,61.040 1.500,61.040 1.500,61.040 C0.672,61.040 -0.000,60.368 -0.000,59.539 C-0.000,59.539 -0.000,31.520 -0.000,31.520 C-0.000,30.691 0.672,30.019 1.500,30.019 C1.500,30.019 8.872,30.019 8.872,30.019 C9.288,30.019 9.686,30.191 9.970,30.496 C10.254,30.801 10.397,31.211 10.368,31.626 C10.368,31.626 8.368,59.645 8.368,59.645 C8.312,60.431 7.659,61.040 6.872,61.040 ZM3.000,58.038 C3.000,58.038 5.476,58.038 5.476,58.038 C5.476,58.038 7.261,33.021 7.261,33.021 C7.261,33.021 3.000,33.021 3.000,33.021 C3.000,33.021 3.000,58.038 3.000,58.038 Z" id="path-7" class="cls-8" fill-rule="evenodd"/>
    <path d="M62.500,61.040 C62.500,61.040 56.872,61.040 56.872,61.040 C56.085,61.040 55.432,60.431 55.376,59.645 C55.376,59.645 53.376,31.626 53.376,31.626 C53.347,31.211 53.490,30.801 53.774,30.496 C54.058,30.191 54.456,30.019 54.872,30.019 C54.872,30.019 62.500,30.019 62.500,30.019 C63.328,30.019 64.000,30.691 64.000,31.520 C64.000,31.520 64.000,59.539 64.000,59.539 C64.000,60.368 63.328,61.040 62.500,61.040 ZM58.269,58.038 C58.269,58.038 61.000,58.038 61.000,58.038 C61.000,58.038 61.000,33.021 61.000,33.021 C61.000,33.021 56.483,33.021 56.483,33.021 C56.483,33.021 58.269,58.038 58.269,58.038 Z" id="path-8" class="cls-8" fill-rule="evenodd"/>
    <path d="M39.500,20.012 C39.500,20.012 8.500,20.012 8.500,20.012 C7.672,20.012 7.000,19.339 7.000,18.511 C7.000,18.511 7.000,1.499 7.000,1.499 C7.000,0.670 7.672,-0.002 8.500,-0.002 C8.500,-0.002 39.500,-0.002 39.500,-0.002 C40.328,-0.002 41.000,0.670 41.000,1.499 C41.000,1.499 41.000,18.511 41.000,18.511 C41.000,19.339 40.328,20.012 39.500,20.012 ZM10.000,17.010 C10.000,17.010 38.000,17.010 38.000,17.010 C38.000,17.010 38.000,3.000 38.000,3.000 C38.000,3.000 10.000,3.000 10.000,3.000 C10.000,3.000 10.000,17.010 10.000,17.010 Z" id="path-9" class="cls-8" fill-rule="evenodd"/>
    <path d="M24.500,25.515 C23.672,25.515 23.000,24.843 23.000,24.014 C23.000,24.014 23.000,19.011 23.000,19.011 C23.000,18.182 23.672,17.510 24.500,17.510 C25.328,17.510 26.000,18.182 26.000,19.011 C26.000,19.011 26.000,24.014 26.000,24.014 C26.000,24.843 25.328,25.515 24.500,25.515 Z" id="path-10" class="cls-8" fill-rule="evenodd"/>
    <path d="M39.000,7.003 C39.000,7.003 9.000,7.003 9.000,7.003 C8.447,7.003 8.000,6.555 8.000,6.002 C8.000,5.449 8.447,5.001 9.000,5.001 C9.000,5.001 39.000,5.001 39.000,5.001 C39.553,5.001 40.000,5.449 40.000,6.002 C40.000,6.555 39.553,7.003 39.000,7.003 Z" id="path-11" class="cls-8" fill-rule="evenodd"/>
    <path d="M39.000,15.008 C39.000,15.008 9.000,15.008 9.000,15.008 C8.447,15.008 8.000,14.561 8.000,14.007 C8.000,13.454 8.447,13.007 9.000,13.007 C9.000,13.007 39.000,13.007 39.000,13.007 C39.553,13.007 40.000,13.454 40.000,14.007 C40.000,14.561 39.553,15.008 39.000,15.008 Z" id="path-12" class="cls-8" fill-rule="evenodd"/>
    <path d="M53.500,26.016 C53.500,26.016 48.500,26.016 48.500,26.016 C47.672,26.016 47.000,25.343 47.000,24.515 C47.000,24.515 47.000,15.508 47.000,15.508 C47.000,14.680 47.672,14.007 48.500,14.007 C48.500,14.007 53.500,14.007 53.500,14.007 C54.328,14.007 55.000,14.680 55.000,15.508 C55.000,15.508 55.000,24.515 55.000,24.515 C55.000,25.343 54.328,26.016 53.500,26.016 ZM50.000,23.014 C50.000,23.014 52.000,23.014 52.000,23.014 C52.000,23.014 52.000,17.010 52.000,17.010 C52.000,17.010 50.000,17.010 50.000,17.010 C50.000,17.010 50.000,23.014 50.000,23.014 Z" id="path-13" class="cls-8" fill-rule="evenodd"/>
    <path d="M57.500,22.513 C56.672,22.513 56.000,21.841 56.000,21.012 C56.000,21.012 56.000,19.011 56.000,19.011 C56.000,19.011 54.000,19.011 54.000,19.011 C53.172,19.011 52.500,18.339 52.500,17.510 C52.500,16.681 53.172,16.009 54.000,16.009 C54.000,16.009 57.500,16.009 57.500,16.009 C58.328,16.009 59.000,16.681 59.000,17.510 C59.000,17.510 59.000,21.012 59.000,21.012 C59.000,21.841 58.328,22.513 57.500,22.513 Z" id="path-14" class="cls-8" fill-rule="evenodd"/>
    <path d="M51.748,14.052 C51.295,14.052 50.848,13.848 50.553,13.459 C50.553,13.459 50.016,12.752 50.016,12.752 C48.960,11.358 48.867,9.583 49.773,8.115 C49.773,8.115 50.472,6.987 50.472,6.987 C50.907,6.281 51.832,6.064 52.536,6.500 C53.241,6.936 53.459,7.862 53.022,8.566 C53.022,8.566 52.325,9.694 52.325,9.694 C52.006,10.212 52.192,10.656 52.405,10.937 C52.405,10.937 52.941,11.644 52.941,11.644 C53.442,12.303 53.314,13.245 52.654,13.747 C52.383,13.953 52.064,14.052 51.748,14.052 Z" id="path-15" class="cls-8" fill-rule="evenodd"/>
  </g>
</svg>
