<svg xmlns="http://www.w3.org/2000/svg" xmlns:xlink="http://www.w3.org/1999/xlink" preserveAspectRatio="xMidYMid" width="65" height="43" viewBox="0 0 65 43">
  <defs>
    <style>

      .cls-3 {
        fill: #e56a77;
      }

      .cls-5 {
        fill: #edc951;
      }

      .cls-7 {
        fill: #53ecf4;
      }

      .cls-8 {
        fill: #000000;
      }
    </style>
  </defs>
  <g id="group-28svg">
    <path d="M65.000,40.033 C65.000,40.033 9.000,40.033 9.000,40.033 C9.000,40.033 9.000,32.011 9.000,32.011 C9.000,30.906 11.160,30.026 12.265,30.026 C12.265,30.026 63.872,30.026 63.872,30.026 C64.976,30.026 65.000,30.906 65.000,32.011 C65.000,32.011 65.000,40.033 65.000,40.033 Z" id="path-1" class="cls-3" fill-rule="evenodd"/>
    <path d="M9.000,40.033 C9.000,40.033 9.000,8.073 9.000,8.073 C9.000,6.595 8.872,5.009 7.395,5.009 C7.395,5.009 7.470,5.009 7.470,5.009 C5.994,5.009 4.000,6.595 4.000,8.073 C4.000,8.073 4.000,40.033 4.000,40.033 C4.000,40.033 9.000,40.033 9.000,40.033 Z" id="path-2" class="cls-3" fill-rule="evenodd"/>
    <path d="M60.000,27.524 C60.000,28.906 58.881,30.026 57.500,30.026 C57.500,30.026 12.500,30.026 12.500,30.026 C11.119,30.026 10.000,28.906 10.000,27.524 C10.000,27.524 10.000,27.524 10.000,27.524 C10.000,26.143 11.119,25.023 12.500,25.023 C12.500,25.023 57.500,25.023 57.500,25.023 C58.881,25.023 60.000,26.143 60.000,27.524 C60.000,27.524 60.000,27.524 60.000,27.524 Z" id="path-3" class="cls-5" fill-rule="evenodd"/>
    <path d="M23.275,20.112 C23.275,22.624 20.363,24.660 16.770,24.660 C13.178,24.660 10.265,22.624 10.265,20.112 C10.265,17.600 13.178,15.563 16.770,15.563 C20.363,15.563 23.275,17.600 23.275,20.112 Z" id="path-4" class="cls-5" fill-rule="evenodd"/>
    <path d="M31.000,12.014 C31.000,12.014 53.000,12.014 53.000,12.014 C53.000,12.014 53.000,5.009 53.000,5.009 C53.000,5.009 31.000,5.009 31.000,5.009 C31.000,5.009 31.000,12.014 31.000,12.014 Z" id="path-5" class="cls-7" fill-rule="evenodd"/>
    <path d="M62.500,38.032 C62.500,38.032 6.500,38.032 6.500,38.032 C5.671,38.032 5.000,37.359 5.000,36.531 C5.000,36.531 5.000,29.010 5.000,29.010 C5.000,26.994 7.442,25.023 9.265,25.023 C9.265,25.023 60.872,25.023 60.872,25.023 C62.904,25.023 64.000,27.077 64.000,29.010 C64.000,29.010 64.000,36.531 64.000,36.531 C64.000,37.359 63.329,38.032 62.500,38.032 ZM7.999,35.030 C7.999,35.030 61.000,35.030 61.000,35.030 C61.000,35.030 61.000,29.010 61.000,29.010 C61.000,28.556 60.861,28.176 60.756,28.025 C60.756,28.025 9.265,28.025 9.265,28.025 C8.894,28.050 8.083,28.712 7.995,29.064 C7.995,29.064 7.999,35.030 7.999,35.030 Z" id="path-6" class="cls-8" fill-rule="evenodd"/>
    <path d="M6.500,38.032 C6.500,38.032 1.500,38.032 1.500,38.032 C0.671,38.032 -0.000,37.359 -0.000,36.531 C-0.000,36.531 -0.000,5.071 -0.000,5.071 C-0.000,2.895 1.928,0.202 4.219,0.015 C4.288,0.008 4.360,0.008 4.429,0.005 C4.446,0.005 4.464,0.005 4.470,0.005 C4.577,0.005 4.681,0.016 4.781,0.038 C6.917,0.341 8.000,2.733 8.000,5.071 C8.000,5.071 8.000,36.531 8.000,36.531 C8.000,37.359 7.329,38.032 6.500,38.032 ZM3.000,35.030 C3.000,35.030 5.000,35.030 5.000,35.030 C5.000,35.030 5.000,5.071 5.000,5.071 C5.000,4.006 4.608,3.144 4.386,3.007 C4.370,3.007 4.354,3.007 4.339,3.006 C3.956,3.094 3.000,4.249 3.000,5.071 C3.000,5.071 3.000,35.030 3.000,35.030 Z" id="path-7" class="cls-8" fill-rule="evenodd"/>
    <path d="M55.000,28.025 C55.000,28.025 10.000,28.025 10.000,28.025 C7.794,28.025 6.000,26.230 6.000,24.022 C6.000,21.814 7.794,20.019 10.000,20.019 C10.000,20.019 55.000,20.019 55.000,20.019 C57.206,20.019 59.000,21.814 59.000,24.022 C59.000,26.230 57.206,28.025 55.000,28.025 ZM10.000,23.021 C9.449,23.021 9.000,23.470 9.000,24.022 C9.000,24.574 9.449,25.023 10.000,25.023 C10.000,25.023 55.000,25.023 55.000,25.023 C55.551,25.023 56.000,24.574 56.000,24.022 C56.000,23.470 55.551,23.021 55.000,23.021 C55.000,23.021 10.000,23.021 10.000,23.021 Z" id="path-8" class="cls-8" fill-rule="evenodd"/>
    <path d="M13.770,23.158 C9.281,23.158 5.765,20.501 5.765,17.110 C5.765,13.718 9.281,11.061 13.770,11.061 C18.259,11.061 21.775,13.718 21.775,17.110 C21.775,20.501 18.259,23.158 13.770,23.158 ZM13.770,14.063 C11.104,14.063 8.765,15.487 8.765,17.110 C8.765,18.732 11.104,20.156 13.770,20.156 C16.437,20.156 18.775,18.732 18.775,17.110 C18.775,15.487 16.437,14.063 13.770,14.063 Z" id="path-9" class="cls-8" fill-rule="evenodd"/>
    <path d="M62.500,42.535 C61.671,42.535 61.000,41.862 61.000,41.034 C61.000,41.034 61.000,37.031 61.000,37.031 C61.000,36.202 61.671,35.530 62.500,35.530 C63.329,35.530 64.000,36.202 64.000,37.031 C64.000,37.031 64.000,41.034 64.000,41.034 C64.000,41.862 63.329,42.535 62.500,42.535 Z" id="path-10" class="cls-8" fill-rule="evenodd"/>
    <path d="M1.500,42.535 C0.671,42.535 -0.000,41.862 -0.000,41.034 C-0.000,41.034 -0.000,37.031 -0.000,37.031 C-0.000,36.202 0.671,35.530 1.500,35.530 C2.329,35.530 3.000,36.202 3.000,37.031 C3.000,37.031 3.000,41.034 3.000,41.034 C3.000,41.862 2.329,42.535 1.500,42.535 Z" id="path-11" class="cls-8" fill-rule="evenodd"/>
    <path d="M50.500,10.012 C50.500,10.012 28.500,10.012 28.500,10.012 C27.671,10.012 27.000,9.340 27.000,8.511 C27.000,8.511 27.000,1.506 27.000,1.506 C27.000,0.678 27.671,0.005 28.500,0.005 C28.500,0.005 50.500,0.005 50.500,0.005 C51.329,0.005 52.000,0.678 52.000,1.506 C52.000,1.506 52.000,8.511 52.000,8.511 C52.000,9.340 51.329,10.012 50.500,10.012 ZM30.000,7.010 C30.000,7.010 49.000,7.010 49.000,7.010 C49.000,7.010 49.000,3.007 49.000,3.007 C49.000,3.007 30.000,3.007 30.000,3.007 C30.000,3.007 30.000,7.010 30.000,7.010 Z" id="path-12" class="cls-8" fill-rule="evenodd"/>
  </g>
</svg>
