<svg xmlns="http://www.w3.org/2000/svg" xmlns:xlink="http://www.w3.org/1999/xlink" preserveAspectRatio="xMidYMid" width="46" height="66" viewBox="0 0 46 66">
  <defs>
    <style>

      .cls-3 {
        fill: #edc951;
      }

      .cls-4 {
        fill: #ff917b;
      }

      .cls-5 {
        fill: #000000;
      }
    </style>
  </defs>
  <g id="group-10svg">
    <path d="M46.000,65.053 C46.000,65.053 5.000,65.053 5.000,65.053 C5.000,65.053 5.000,5.011 5.000,5.011 C5.000,5.011 46.000,5.011 46.000,5.011 C46.000,5.011 46.000,65.053 46.000,65.053 Z" id="path-1" class="cls-3" fill-rule="evenodd"/>
    <path d="M40.000,59.048 C40.000,59.048 12.000,59.048 12.000,59.048 C12.000,59.048 12.000,10.015 12.000,10.015 C12.000,10.015 40.000,10.015 40.000,10.015 C40.000,10.015 40.000,59.048 40.000,59.048 Z" id="path-2" class="cls-4" fill-rule="evenodd"/>
    <path d="M42.500,63.051 C42.500,63.051 1.500,63.051 1.500,63.051 C0.671,63.051 -0.000,62.379 -0.000,61.550 C-0.000,61.550 -0.000,1.509 -0.000,1.509 C-0.000,0.680 0.671,0.008 1.500,0.008 C1.500,0.008 42.500,0.008 42.500,0.008 C43.329,0.008 44.000,0.680 44.000,1.509 C44.000,1.509 44.000,61.550 44.000,61.550 C44.000,62.379 43.329,63.051 42.500,63.051 ZM3.000,60.049 C3.000,60.049 41.000,60.049 41.000,60.049 C41.000,60.049 41.000,3.010 41.000,3.010 C41.000,3.010 3.000,3.010 3.000,3.010 C3.000,3.010 3.000,60.049 3.000,60.049 Z" id="path-3" class="cls-5" fill-rule="evenodd"/>
    <path d="M32.000,34.031 C32.000,34.031 26.000,34.031 26.000,34.031 C25.171,34.031 24.500,33.359 24.500,32.530 C24.500,31.701 25.171,31.029 26.000,31.029 C26.000,31.029 32.000,31.029 32.000,31.029 C32.829,31.029 33.500,31.701 33.500,32.530 C33.500,33.359 32.829,34.031 32.000,34.031 Z" id="path-4" class="cls-5" fill-rule="evenodd"/>
    <path d="M36.500,57.047 C36.500,57.047 8.500,57.047 8.500,57.047 C7.671,57.047 7.000,56.375 7.000,55.546 C7.000,55.546 7.000,6.512 7.000,6.512 C7.000,5.683 7.671,5.011 8.500,5.011 C8.500,5.011 36.500,5.011 36.500,5.011 C37.329,5.011 38.000,5.683 38.000,6.512 C38.000,6.512 38.000,55.546 38.000,55.546 C38.000,56.375 37.329,57.047 36.500,57.047 ZM10.000,54.045 C10.000,54.045 35.000,54.045 35.000,54.045 C35.000,54.045 35.000,8.013 35.000,8.013 C35.000,8.013 10.000,8.013 10.000,8.013 C10.000,8.013 10.000,54.045 10.000,54.045 Z" id="path-5" class="cls-5" fill-rule="evenodd"/>
  </g>
</svg>
