<svg xmlns="http://www.w3.org/2000/svg" xmlns:xlink="http://www.w3.org/1999/xlink" preserveAspectRatio="xMidYMid" width="63" height="37" viewBox="0 0 63 37">
  <defs>
    <style>

      .cls-3 {
        fill: #ff917b;
      }

      .cls-4 {
        fill: #99746a;
      }

      .cls-6 {
        fill: #000000;
      }
    </style>
  </defs>
  <g id="group-23svg">
    <path d="M19.000,16.019 C19.000,16.019 48.000,16.019 48.000,16.019 C48.000,16.019 48.000,12.937 48.000,12.937 C48.000,11.836 48.402,11.015 47.303,11.015 C47.303,11.015 22.303,11.015 22.303,11.015 C21.202,11.015 19.000,11.836 19.000,12.937 C19.000,12.937 19.000,16.019 19.000,16.019 Z" id="path-1" class="cls-3" fill-rule="evenodd"/>
    <path d="M63.000,4.010 C63.000,4.010 62.303,4.010 62.303,4.010 C60.645,4.010 58.000,5.274 58.000,6.933 C58.000,6.933 58.000,20.021 58.000,20.021 C58.000,20.021 50.303,20.021 50.303,20.021 C48.645,20.021 46.000,21.285 46.000,22.944 C46.000,22.944 46.000,25.025 46.000,25.025 C46.000,25.025 63.000,25.025 63.000,25.025 C63.000,25.025 63.000,21.074 63.000,21.074 C63.000,21.074 63.000,21.074 63.000,21.074 C63.000,21.074 63.000,4.010 63.000,4.010 Z" id="path-2" class="cls-4" fill-rule="evenodd"/>
    <path d="M5.000,4.010 C5.000,4.010 8.303,4.010 8.303,4.010 C9.959,4.010 10.000,5.274 10.000,6.933 C10.000,6.933 10.000,20.021 10.000,20.021 C10.000,20.021 20.303,20.021 20.303,20.021 C21.959,20.021 22.000,21.285 22.000,22.944 C22.000,22.944 22.000,25.025 22.000,25.025 C22.000,25.025 5.000,25.025 5.000,25.025 C5.000,25.025 5.000,21.074 5.000,21.074 C5.000,21.074 5.000,21.074 5.000,21.074 C5.000,21.074 5.000,4.010 5.000,4.010 Z" id="path-3" class="cls-4" fill-rule="evenodd"/>
    <path d="M44.500,15.018 C44.500,15.018 15.500,15.018 15.500,15.018 C14.672,15.018 14.000,14.345 14.000,13.517 C14.000,13.517 14.000,10.935 14.000,10.935 C14.000,8.915 16.424,7.012 18.303,7.012 C18.303,7.012 43.303,7.012 43.303,7.012 C44.533,7.012 46.000,7.692 46.000,10.935 C46.000,10.935 46.000,13.517 46.000,13.517 C46.000,14.345 45.328,15.018 44.500,15.018 ZM16.996,12.016 C16.996,12.016 43.000,12.016 43.000,12.016 C43.000,12.016 43.000,10.935 43.000,10.935 C43.000,10.474 42.976,10.189 42.947,10.014 C42.947,10.014 18.303,10.014 18.303,10.014 C17.928,10.031 17.094,10.662 16.993,11.006 C16.993,11.006 16.996,12.016 16.996,12.016 Z" id="path-4" class="cls-6" fill-rule="evenodd"/>
    <path d="M38.448,36.126 C37.980,36.126 37.520,35.907 37.227,35.498 C37.227,35.498 22.665,15.097 22.665,15.097 C22.184,14.422 22.340,13.485 23.014,13.003 C23.688,12.522 24.625,12.678 25.106,13.352 C25.106,13.352 39.668,33.752 39.668,33.752 C40.149,34.428 39.993,35.365 39.319,35.847 C39.055,36.035 38.750,36.126 38.448,36.126 Z" id="path-5" class="cls-6" fill-rule="evenodd"/>
    <path d="M23.156,36.126 C22.854,36.126 22.550,36.035 22.285,35.847 C21.611,35.365 21.455,34.428 21.937,33.752 C21.937,33.752 36.498,13.352 36.498,13.352 C36.979,12.678 37.916,12.522 38.591,13.003 C39.265,13.485 39.421,14.422 38.939,15.097 C38.939,15.097 24.378,35.498 24.378,35.498 C24.085,35.907 23.624,36.126 23.156,36.126 Z" id="path-6" class="cls-6" fill-rule="evenodd"/>
    <path d="M59.500,24.024 C59.500,24.024 42.500,24.024 42.500,24.024 C41.672,24.024 41.000,23.352 41.000,22.523 C41.000,22.523 41.000,20.942 41.000,20.942 C41.000,18.336 43.965,16.019 46.303,16.019 C46.303,16.019 53.000,16.019 53.000,16.019 C53.000,16.019 53.000,4.931 53.000,4.931 C53.000,2.325 55.965,0.007 58.303,0.007 C58.303,0.007 59.500,0.007 59.500,0.007 C60.328,0.007 61.000,0.680 61.000,1.508 C61.000,1.508 61.000,22.523 61.000,22.523 C61.000,23.352 60.328,24.024 59.500,24.024 ZM44.000,21.022 C44.000,21.022 58.000,21.022 58.000,21.022 C58.000,21.022 58.000,3.048 58.000,3.048 C57.117,3.253 56.000,4.256 56.000,4.931 C56.000,4.931 56.000,17.520 56.000,17.520 C56.000,18.348 55.328,19.021 54.500,19.021 C54.500,19.021 46.303,19.021 46.303,19.021 C45.398,19.021 44.000,20.187 44.000,20.942 C44.000,20.942 44.000,21.022 44.000,21.022 Z" id="path-7" class="cls-6" fill-rule="evenodd"/>
    <path d="M59.500,36.533 C58.672,36.533 58.000,35.860 58.000,35.032 C58.000,35.032 58.000,23.023 58.000,23.023 C58.000,22.195 58.672,21.522 59.500,21.522 C60.328,21.522 61.000,22.195 61.000,23.023 C61.000,23.023 61.000,35.032 61.000,35.032 C61.000,35.860 60.328,36.533 59.500,36.533 Z" id="path-8" class="cls-6" fill-rule="evenodd"/>
    <path d="M44.500,36.533 C43.672,36.533 43.000,35.860 43.000,35.032 C43.000,35.032 43.000,23.023 43.000,23.023 C43.000,22.195 43.672,21.522 44.500,21.522 C45.328,21.522 46.000,22.195 46.000,23.023 C46.000,23.023 46.000,35.032 46.000,35.032 C46.000,35.860 45.328,36.533 44.500,36.533 Z" id="path-9" class="cls-6" fill-rule="evenodd"/>
    <path d="M18.500,24.024 C18.500,24.024 1.500,24.024 1.500,24.024 C0.672,24.024 -0.000,23.352 -0.000,22.523 C-0.000,22.523 -0.000,1.508 -0.000,1.508 C-0.000,0.680 0.672,0.007 1.500,0.007 C1.500,0.007 4.303,0.007 4.303,0.007 C6.549,0.007 8.000,1.940 8.000,4.931 C8.000,4.931 8.000,16.019 8.000,16.019 C8.000,16.019 16.303,16.019 16.303,16.019 C18.549,16.019 20.000,17.951 20.000,20.942 C20.000,20.942 20.000,22.523 20.000,22.523 C20.000,23.352 19.328,24.024 18.500,24.024 ZM3.000,21.022 C3.000,21.022 17.000,21.022 17.000,21.022 C17.000,21.022 17.000,20.942 17.000,20.942 C17.000,20.407 16.875,19.021 16.303,19.021 C16.303,19.021 6.500,19.021 6.500,19.021 C5.672,19.021 5.000,18.348 5.000,17.520 C5.000,17.520 5.000,4.931 5.000,4.931 C5.000,4.396 4.875,3.010 4.303,3.010 C4.303,3.010 3.000,3.010 3.000,3.010 C3.000,3.010 3.000,21.022 3.000,21.022 Z" id="path-10" class="cls-6" fill-rule="evenodd"/>
    <path d="M1.500,36.533 C0.672,36.533 -0.000,35.860 -0.000,35.032 C-0.000,35.032 -0.000,23.023 -0.000,23.023 C-0.000,22.195 0.672,21.522 1.500,21.522 C2.328,21.522 3.000,22.195 3.000,23.023 C3.000,23.023 3.000,35.032 3.000,35.032 C3.000,35.860 2.328,36.533 1.500,36.533 Z" id="path-11" class="cls-6" fill-rule="evenodd"/>
    <path d="M16.500,36.533 C15.672,36.533 15.000,35.860 15.000,35.032 C15.000,35.032 15.000,23.023 15.000,23.023 C15.000,22.195 15.672,21.522 16.500,21.522 C17.328,21.522 18.000,22.195 18.000,23.023 C18.000,23.023 18.000,35.032 18.000,35.032 C18.000,35.860 17.328,36.533 16.500,36.533 Z" id="path-12" class="cls-6" fill-rule="evenodd"/>
    <path d="M21.450,8.013 C21.435,8.013 21.417,8.013 21.401,8.013 C21.382,8.013 21.362,8.013 21.343,8.012 C19.339,7.969 18.000,6.742 18.000,4.931 C18.000,4.931 18.000,3.010 18.000,3.010 C18.000,2.181 18.672,1.508 19.500,1.508 C20.328,1.508 21.000,2.181 21.000,3.010 C21.000,3.010 21.000,4.931 21.000,4.931 C20.973,4.941 21.078,5.007 21.426,5.011 C21.815,5.007 22.012,4.906 22.043,4.879 C22.043,4.879 22.000,3.010 22.000,3.010 C22.000,2.181 22.672,1.508 23.500,1.508 C24.328,1.508 25.000,2.181 25.000,3.010 C25.000,3.010 25.000,4.931 25.000,4.931 C25.000,6.715 23.569,8.013 21.507,8.013 C21.488,8.013 21.470,8.013 21.450,8.013 Z" id="path-13" class="cls-6" fill-rule="evenodd"/>
    <path d="M40.486,8.013 C40.481,8.012 40.477,8.012 40.474,8.013 C40.469,8.013 40.464,8.013 40.459,8.013 C38.389,8.002 37.000,6.766 37.000,4.931 C37.000,4.931 37.000,3.010 37.000,3.010 C37.000,2.181 37.672,1.508 38.500,1.508 C39.328,1.508 40.000,2.181 40.000,3.010 C40.000,3.010 40.000,4.931 40.000,4.931 C39.988,4.940 40.155,5.010 40.480,5.011 C40.830,5.010 41.010,4.931 41.045,4.903 C41.045,4.903 41.000,3.010 41.000,3.010 C41.000,2.181 41.672,1.508 42.500,1.508 C43.328,1.508 44.000,2.181 44.000,3.010 C44.000,3.010 44.000,4.931 44.000,4.931 C44.000,6.766 42.595,8.002 40.501,8.013 C40.496,8.013 40.491,8.013 40.486,8.013 Z" id="path-14" class="cls-6" fill-rule="evenodd"/>
  </g>
</svg>
