<svg xmlns="http://www.w3.org/2000/svg" xmlns:xlink="http://www.w3.org/1999/xlink" preserveAspectRatio="xMidYMid" width="58" height="65" viewBox="0 0 58 65">
  <defs>
    <style>

      .cls-3 {
        fill: #99746a;
      }

      .cls-4 {
        fill: #ff917b;
      }

      .cls-5 {
        fill: #000000;
      }
    </style>
  </defs>
  <g id="group-14svg">
    <path d="M5.000,4.005 C5.000,4.005 5.000,54.521 5.000,54.521 C5.000,54.521 5.000,57.023 5.000,57.023 C5.000,57.023 5.000,64.047 5.000,64.047 C5.000,64.047 10.000,64.047 10.000,64.047 C10.000,64.047 10.000,57.042 10.000,57.042 C10.000,57.042 53.000,57.042 53.000,57.042 C53.000,57.042 53.000,64.047 53.000,64.047 C53.000,64.047 58.000,64.047 58.000,64.047 C58.000,64.047 58.000,57.023 58.000,57.023 C58.000,57.023 58.000,54.521 58.000,54.521 C58.000,54.521 58.000,4.005 58.000,4.005 C58.000,4.005 5.000,4.005 5.000,4.005 Z" id="path-1" class="cls-3" fill-rule="evenodd"/>
    <path d="M11.000,10.009 C11.000,10.009 11.000,51.038 11.000,51.038 C11.000,51.038 52.000,51.038 52.000,51.038 C52.000,51.038 52.000,10.009 52.000,10.009 C52.000,10.009 11.000,10.009 11.000,10.009 Z" id="path-2" class="cls-4" fill-rule="evenodd"/>
    <path d="M54.500,63.046 C54.500,63.046 49.500,63.046 49.500,63.046 C48.671,63.046 48.000,62.374 48.000,61.545 C48.000,61.545 48.000,56.041 48.000,56.041 C48.000,56.041 8.000,56.041 8.000,56.041 C8.000,56.041 8.000,61.545 8.000,61.545 C8.000,62.374 7.329,63.046 6.500,63.046 C6.500,63.046 1.500,63.046 1.500,63.046 C0.671,63.046 -0.000,62.374 -0.000,61.545 C-0.000,61.545 -0.000,1.503 -0.000,1.503 C-0.000,0.675 0.671,0.002 1.500,0.002 C1.500,0.002 54.500,0.002 54.500,0.002 C55.329,0.002 56.000,0.675 56.000,1.503 C56.000,1.503 56.000,61.545 56.000,61.545 C56.000,62.374 55.329,63.046 54.500,63.046 ZM51.000,60.044 C51.000,60.044 53.000,60.044 53.000,60.044 C53.000,60.044 53.000,3.004 53.000,3.004 C53.000,3.004 3.000,3.004 3.000,3.004 C3.000,3.004 3.000,60.044 3.000,60.044 C3.000,60.044 5.000,60.044 5.000,60.044 C5.000,60.044 5.000,54.540 5.000,54.540 C5.000,53.711 5.671,53.039 6.500,53.039 C6.500,53.039 49.500,53.039 49.500,53.039 C50.329,53.039 51.000,53.711 51.000,54.540 C51.000,54.540 51.000,60.044 51.000,60.044 Z" id="path-3" class="cls-5" fill-rule="evenodd"/>
    <path d="M48.500,50.037 C48.500,50.037 7.500,50.037 7.500,50.037 C6.671,50.037 6.000,49.365 6.000,48.536 C6.000,48.536 6.000,7.508 6.000,7.508 C6.000,6.679 6.671,6.007 7.500,6.007 C7.500,6.007 48.500,6.007 48.500,6.007 C49.329,6.007 50.000,6.679 50.000,7.508 C50.000,7.508 50.000,48.536 50.000,48.536 C50.000,49.365 49.329,50.037 48.500,50.037 ZM9.000,47.035 C9.000,47.035 47.000,47.035 47.000,47.035 C47.000,47.035 47.000,9.009 47.000,9.009 C47.000,9.009 9.000,9.009 9.000,9.009 C9.000,9.009 9.000,47.035 9.000,47.035 Z" id="path-4" class="cls-5" fill-rule="evenodd"/>
    <path d="M48.000,40.030 C48.000,40.030 8.000,40.030 8.000,40.030 C7.171,40.030 6.500,39.358 6.500,38.529 C6.500,37.700 7.171,37.028 8.000,37.028 C8.000,37.028 48.000,37.028 48.000,37.028 C48.829,37.028 49.500,37.700 49.500,38.529 C49.500,39.358 48.829,40.030 48.000,40.030 Z" id="path-5" class="cls-5" fill-rule="evenodd"/>
    <path d="M48.000,30.023 C48.000,30.023 8.000,30.023 8.000,30.023 C7.171,30.023 6.500,29.351 6.500,28.522 C6.500,27.693 7.171,27.021 8.000,27.021 C8.000,27.021 48.000,27.021 48.000,27.021 C48.829,27.021 49.500,27.693 49.500,28.522 C49.500,29.351 48.829,30.023 48.000,30.023 Z" id="path-6" class="cls-5" fill-rule="evenodd"/>
    <path d="M48.000,19.015 C48.000,19.015 8.000,19.015 8.000,19.015 C7.171,19.015 6.500,18.343 6.500,17.514 C6.500,16.686 7.171,16.013 8.000,16.013 C8.000,16.013 48.000,16.013 48.000,16.013 C48.829,16.013 49.500,16.686 49.500,17.514 C49.500,18.343 48.829,19.015 48.000,19.015 Z" id="path-7" class="cls-5" fill-rule="evenodd"/>
    <path d="M28.309,15.508 C25.458,15.508 23.309,13.963 23.309,11.915 C23.309,11.086 23.980,10.414 24.809,10.414 C25.638,10.414 26.309,11.086 26.309,11.915 C26.390,12.038 27.101,12.506 28.309,12.506 C29.517,12.506 30.228,12.038 30.322,11.843 C30.322,11.014 30.987,10.378 31.815,10.378 C32.644,10.378 33.309,11.086 33.309,11.915 C33.309,13.963 31.160,15.508 28.309,15.508 Z" id="path-8" class="cls-5" fill-rule="evenodd"/>
    <path d="M28.309,26.516 C25.458,26.516 23.309,24.971 23.309,22.922 C23.309,22.094 23.980,21.421 24.809,21.421 C25.638,21.421 26.309,22.094 26.309,22.922 C26.390,23.046 27.101,23.514 28.309,23.514 C29.517,23.514 30.228,23.046 30.322,22.850 C30.322,22.021 30.987,21.385 31.815,21.385 C32.644,21.385 33.309,22.094 33.309,22.922 C33.309,24.971 31.160,26.516 28.309,26.516 Z" id="path-9" class="cls-5" fill-rule="evenodd"/>
    <path d="M28.309,36.523 C25.458,36.523 23.309,34.978 23.309,32.929 C23.309,32.101 23.980,31.428 24.809,31.428 C25.638,31.428 26.309,32.101 26.309,32.929 C26.390,33.053 27.101,33.521 28.309,33.521 C29.517,33.521 30.228,33.053 30.322,32.857 C30.322,32.028 30.987,31.392 31.815,31.392 C32.644,31.392 33.309,32.101 33.309,32.929 C33.309,34.978 31.160,36.523 28.309,36.523 Z" id="path-10" class="cls-5" fill-rule="evenodd"/>
    <path d="M28.309,46.530 C25.458,46.530 23.309,44.985 23.309,42.936 C23.309,42.108 23.980,41.435 24.809,41.435 C25.638,41.435 26.309,42.108 26.309,42.936 C26.390,43.059 27.101,43.528 28.309,43.528 C29.517,43.528 30.228,43.059 30.322,42.864 C30.322,42.035 30.987,41.399 31.815,41.399 C32.644,41.399 33.309,42.108 33.309,42.936 C33.309,44.985 31.160,46.530 28.309,46.530 Z" id="path-11" class="cls-5" fill-rule="evenodd"/>
  </g>
</svg>
