<svg xmlns="http://www.w3.org/2000/svg" xmlns:xlink="http://www.w3.org/1999/xlink" preserveAspectRatio="xMidYMid" width="66" height="61" viewBox="0 0 66 61">
  <defs>
    <style>

      .cls-3 {
        fill: #99746a;
      }

      .cls-4 {
        fill: #e56a77;
      }

      .cls-5 {
        fill: #edc951;
      }

      .cls-8 {
        fill: #000000;
      }
    </style>
  </defs>
  <g id="group-20svg">
    <path d="M12.791,25.021 C8.967,25.021 5.000,28.255 5.000,32.082 C5.000,32.082 5.000,60.045 5.000,60.045 C5.000,60.045 10.000,60.045 10.000,60.045 C10.000,60.045 10.000,57.043 10.000,57.043 C10.000,57.043 61.000,57.043 61.000,57.043 C61.000,57.043 61.000,60.045 61.000,60.045 C61.000,60.045 66.000,60.045 66.000,60.045 C66.000,60.045 66.000,32.082 66.000,32.082 C66.000,28.255 63.937,25.021 60.113,25.021 C60.113,25.021 12.791,25.021 12.791,25.021 Z" id="path-1" class="cls-3" fill-rule="evenodd"/>
    <path d="M52.000,18.016 C52.000,18.016 22.000,18.016 22.000,18.016 C22.000,18.016 22.000,5.007 22.000,5.007 C22.000,5.007 52.000,5.007 52.000,5.007 C52.000,5.007 52.000,18.016 52.000,18.016 Z" id="path-2" class="cls-4" fill-rule="evenodd"/>
    <path d="M5.000,44.941 C5.000,44.941 5.000,48.037 5.000,48.037 C5.000,48.037 66.000,48.037 66.000,48.037 C66.000,48.037 66.000,44.941 66.000,44.941 C66.000,41.752 64.455,39.031 61.268,39.031 C61.268,39.031 11.637,39.031 11.637,39.031 C8.449,39.031 5.000,41.752 5.000,44.941 Z" id="path-3" class="cls-5" fill-rule="evenodd"/>
    <path d="M41.000,37.160 C41.000,37.160 41.000,39.031 41.000,39.031 C41.000,39.031 62.000,39.031 62.000,39.031 C62.000,39.031 62.000,37.160 62.000,37.160 C62.000,33.844 60.185,31.025 56.872,31.025 C56.872,31.025 47.872,31.025 47.872,31.025 C44.559,31.025 41.000,33.844 41.000,37.160 Z" id="path-4" class="cls-5" fill-rule="evenodd"/>
    <path d="M10.000,37.160 C10.000,37.160 10.000,39.031 10.000,39.031 C10.000,39.031 31.000,39.031 31.000,39.031 C31.000,39.031 31.000,37.160 31.000,37.160 C31.000,33.844 29.185,31.025 25.872,31.025 C25.872,31.025 16.872,31.025 16.872,31.025 C13.571,31.025 10.000,33.858 10.000,37.160 Z" id="path-5" class="cls-5" fill-rule="evenodd"/>
    <path d="M62.500,58.044 C62.500,58.044 57.500,58.044 57.500,58.044 C56.672,58.044 56.000,57.372 56.000,56.543 C56.000,56.543 56.000,55.042 56.000,55.042 C56.000,55.042 8.000,55.042 8.000,55.042 C8.000,55.042 8.000,56.543 8.000,56.543 C8.000,57.372 7.328,58.044 6.500,58.044 C6.500,58.044 1.500,58.044 1.500,58.044 C0.672,58.044 -0.000,57.372 -0.000,56.543 C-0.000,56.543 -0.000,29.079 -0.000,29.079 C-0.000,24.337 4.190,20.018 8.791,20.018 C8.791,20.018 56.113,20.018 56.113,20.018 C60.984,20.018 64.000,24.721 64.000,29.079 C64.000,29.079 64.000,56.543 64.000,56.543 C64.000,57.372 63.328,58.044 62.500,58.044 ZM59.000,55.042 C59.000,55.042 61.000,55.042 61.000,55.042 C61.000,55.042 61.000,29.079 61.000,29.079 C61.000,26.165 59.132,23.020 56.113,23.020 C56.113,23.020 8.791,23.020 8.791,23.020 C5.868,23.020 3.000,26.022 3.000,29.079 C3.000,29.079 3.000,55.042 3.000,55.042 C3.000,55.042 5.000,55.042 5.000,55.042 C5.000,55.042 5.000,53.541 5.000,53.541 C5.000,52.712 5.672,52.040 6.500,52.040 C6.500,52.040 57.500,52.040 57.500,52.040 C58.328,52.040 59.000,52.712 59.000,53.541 C59.000,53.541 59.000,55.042 59.000,55.042 Z" id="path-6" class="cls-8" fill-rule="evenodd"/>
    <path d="M62.500,47.036 C62.500,47.036 1.500,47.036 1.500,47.036 C0.672,47.036 -0.000,46.364 -0.000,45.535 C-0.000,45.535 -0.000,42.940 -0.000,42.940 C-0.000,38.873 3.711,35.028 7.637,35.028 C7.637,35.028 57.268,35.028 57.268,35.028 C61.426,35.028 64.000,39.134 64.000,42.940 C64.000,42.940 64.000,45.535 64.000,45.535 C64.000,46.364 63.328,47.036 62.500,47.036 ZM3.000,44.034 C3.000,44.034 61.000,44.034 61.000,44.034 C61.000,44.034 61.000,42.940 61.000,42.940 C61.000,40.579 59.573,38.030 57.268,38.030 C57.268,38.030 7.637,38.030 7.637,38.030 C5.340,38.030 3.000,40.507 3.000,42.940 C3.000,42.940 3.000,44.034 3.000,44.034 Z" id="path-7" class="cls-8" fill-rule="evenodd"/>
    <path d="M58.500,38.030 C58.500,38.030 37.500,38.030 37.500,38.030 C36.672,38.030 36.000,37.358 36.000,36.529 C36.000,36.529 36.000,35.159 36.000,35.159 C36.000,30.976 39.825,27.022 43.872,27.022 C43.872,27.022 52.872,27.022 52.872,27.022 C57.274,27.022 60.000,31.246 60.000,35.159 C60.000,35.159 60.000,36.529 60.000,36.529 C60.000,37.358 59.328,38.030 58.500,38.030 ZM39.002,35.028 C39.002,35.028 56.998,35.028 56.998,35.028 C56.941,32.587 55.298,30.025 52.872,30.025 C52.872,30.025 43.872,30.025 43.872,30.025 C41.500,30.025 39.084,32.527 39.002,35.028 Z" id="path-8" class="cls-8" fill-rule="evenodd"/>
    <path d="M27.500,38.030 C27.500,38.030 6.500,38.030 6.500,38.030 C5.672,38.030 5.000,37.358 5.000,36.529 C5.000,36.529 5.000,35.159 5.000,35.159 C5.000,30.976 8.825,27.022 12.872,27.022 C12.872,27.022 21.872,27.022 21.872,27.022 C26.274,27.022 29.000,31.246 29.000,35.159 C29.000,35.159 29.000,36.529 29.000,36.529 C29.000,37.358 28.328,38.030 27.500,38.030 ZM8.002,35.028 C8.002,35.028 25.998,35.028 25.998,35.028 C25.941,32.587 24.298,30.025 21.872,30.025 C21.872,30.025 12.872,30.025 12.872,30.025 C10.500,30.025 8.084,32.527 8.002,35.028 Z" id="path-9" class="cls-8" fill-rule="evenodd"/>
    <path d="M48.500,16.015 C48.500,16.015 18.500,16.015 18.500,16.015 C17.672,16.015 17.000,15.342 17.000,14.514 C17.000,14.514 17.000,1.505 17.000,1.505 C17.000,0.676 17.672,0.004 18.500,0.004 C18.500,0.004 48.500,0.004 48.500,0.004 C49.328,0.004 50.000,0.676 50.000,1.505 C50.000,1.505 50.000,14.514 50.000,14.514 C50.000,15.342 49.328,16.015 48.500,16.015 ZM20.000,13.013 C20.000,13.013 47.000,13.013 47.000,13.013 C47.000,13.013 47.000,3.006 47.000,3.006 C47.000,3.006 20.000,3.006 20.000,3.006 C20.000,3.006 20.000,13.013 20.000,13.013 Z" id="path-10" class="cls-8" fill-rule="evenodd"/>
  </g>
</svg>
