<svg xmlns="http://www.w3.org/2000/svg" xmlns:xlink="http://www.w3.org/1999/xlink" preserveAspectRatio="xMidYMid" width="62" height="65" viewBox="0 0 62 65">
  <defs>
    <style>

      .cls-3 {
        fill: #edc951;
      }

      .cls-4 {
        fill: #99746a;
      }

      .cls-5 {
        fill: #000000;
      }
    </style>
  </defs>
  <g id="group-16svg">
    <path d="M5.000,4.005 C5.000,4.005 5.000,54.521 5.000,54.521 C5.000,54.521 5.000,57.023 5.000,57.023 C5.000,57.023 5.000,64.047 5.000,64.047 C5.000,64.047 10.000,64.047 10.000,64.047 C10.000,64.047 10.000,57.042 10.000,57.042 C10.000,57.042 57.000,57.042 57.000,57.042 C57.000,57.042 57.000,64.047 57.000,64.047 C57.000,64.047 62.000,64.047 62.000,64.047 C62.000,64.047 62.000,57.023 62.000,57.023 C62.000,57.023 62.000,54.521 62.000,54.521 C62.000,54.521 62.000,4.005 62.000,4.005 C62.000,4.005 5.000,4.005 5.000,4.005 Z" id="path-1" class="cls-3" fill-rule="evenodd"/>
    <path d="M11.000,10.009 C11.000,10.009 11.000,51.038 11.000,51.038 C11.000,51.038 56.000,51.038 56.000,51.038 C56.000,51.038 56.000,10.009 56.000,10.009 C56.000,10.009 11.000,10.009 11.000,10.009 Z" id="path-2" class="cls-4" fill-rule="evenodd"/>
    <path d="M58.500,63.046 C58.500,63.046 53.500,63.046 53.500,63.046 C52.672,63.046 52.000,62.374 52.000,61.545 C52.000,61.545 52.000,56.041 52.000,56.041 C52.000,56.041 8.000,56.041 8.000,56.041 C8.000,56.041 8.000,61.545 8.000,61.545 C8.000,62.374 7.328,63.046 6.500,63.046 C6.500,63.046 1.500,63.046 1.500,63.046 C0.672,63.046 -0.000,62.374 -0.000,61.545 C-0.000,61.545 -0.000,1.503 -0.000,1.503 C-0.000,0.675 0.672,0.002 1.500,0.002 C1.500,0.002 58.500,0.002 58.500,0.002 C59.328,0.002 60.000,0.675 60.000,1.503 C60.000,1.503 60.000,61.545 60.000,61.545 C60.000,62.374 59.328,63.046 58.500,63.046 ZM55.000,60.044 C55.000,60.044 57.000,60.044 57.000,60.044 C57.000,60.044 57.000,3.004 57.000,3.004 C57.000,3.004 3.000,3.004 3.000,3.004 C3.000,3.004 3.000,60.044 3.000,60.044 C3.000,60.044 5.000,60.044 5.000,60.044 C5.000,60.044 5.000,54.540 5.000,54.540 C5.000,53.711 5.672,53.039 6.500,53.039 C6.500,53.039 53.500,53.039 53.500,53.039 C54.328,53.039 55.000,53.711 55.000,54.540 C55.000,54.540 55.000,60.044 55.000,60.044 Z" id="path-3" class="cls-5" fill-rule="evenodd"/>
    <path d="M52.500,50.037 C52.500,50.037 7.500,50.037 7.500,50.037 C6.672,50.037 6.000,49.365 6.000,48.536 C6.000,48.536 6.000,7.508 6.000,7.508 C6.000,6.679 6.672,6.007 7.500,6.007 C7.500,6.007 52.500,6.007 52.500,6.007 C53.328,6.007 54.000,6.679 54.000,7.508 C54.000,7.508 54.000,48.536 54.000,48.536 C54.000,49.365 53.328,50.037 52.500,50.037 ZM9.000,47.035 C9.000,47.035 51.000,47.035 51.000,47.035 C51.000,47.035 51.000,9.009 51.000,9.009 C51.000,9.009 9.000,9.009 9.000,9.009 C9.000,9.009 9.000,47.035 9.000,47.035 Z" id="path-4" class="cls-5" fill-rule="evenodd"/>
    <path d="M52.000,40.030 C52.000,40.030 8.000,40.030 8.000,40.030 C7.172,40.030 6.500,39.358 6.500,38.529 C6.500,37.700 7.172,37.028 8.000,37.028 C8.000,37.028 52.000,37.028 52.000,37.028 C52.828,37.028 53.500,37.700 53.500,38.529 C53.500,39.358 52.828,40.030 52.000,40.030 Z" id="path-5" class="cls-5" fill-rule="evenodd"/>
    <path d="M52.000,30.023 C52.000,30.023 8.000,30.023 8.000,30.023 C7.172,30.023 6.500,29.351 6.500,28.522 C6.500,27.693 7.172,27.021 8.000,27.021 C8.000,27.021 52.000,27.021 52.000,27.021 C52.828,27.021 53.500,27.693 53.500,28.522 C53.500,29.351 52.828,30.023 52.000,30.023 Z" id="path-6" class="cls-5" fill-rule="evenodd"/>
    <path d="M52.000,19.015 C52.000,19.015 8.000,19.015 8.000,19.015 C7.172,19.015 6.500,18.343 6.500,17.514 C6.500,16.686 7.172,16.013 8.000,16.013 C8.000,16.013 52.000,16.013 52.000,16.013 C52.828,16.013 53.500,16.686 53.500,17.514 C53.500,18.343 52.828,19.015 52.000,19.015 Z" id="path-7" class="cls-5" fill-rule="evenodd"/>
    <path d="M29.500,49.537 C28.672,49.537 28.000,48.864 28.000,48.036 C28.000,48.036 28.000,8.008 28.000,8.008 C28.000,7.179 28.672,6.507 29.500,6.507 C30.328,6.507 31.000,7.179 31.000,8.008 C31.000,8.008 31.000,48.036 31.000,48.036 C31.000,48.864 30.328,49.537 29.500,49.537 Z" id="path-8" class="cls-5" fill-rule="evenodd"/>
    <path d="M38.000,14.012 C38.000,14.012 34.000,14.012 34.000,14.012 C33.172,14.012 32.500,13.340 32.500,12.511 C32.500,11.682 33.172,11.010 34.000,11.010 C34.000,11.010 38.000,11.010 38.000,11.010 C38.828,11.010 39.500,11.682 39.500,12.511 C39.500,13.340 38.828,14.012 38.000,14.012 Z" id="path-9" class="cls-5" fill-rule="evenodd"/>
    <path d="M38.000,25.020 C38.000,25.020 34.000,25.020 34.000,25.020 C33.172,25.020 32.500,24.347 32.500,23.519 C32.500,22.690 33.172,22.018 34.000,22.018 C34.000,22.018 38.000,22.018 38.000,22.018 C38.828,22.018 39.500,22.690 39.500,23.519 C39.500,24.347 38.828,25.020 38.000,25.020 Z" id="path-10" class="cls-5" fill-rule="evenodd"/>
    <path d="M38.000,35.027 C38.000,35.027 34.000,35.027 34.000,35.027 C33.172,35.027 32.500,34.354 32.500,33.526 C32.500,32.697 33.172,32.025 34.000,32.025 C34.000,32.025 38.000,32.025 38.000,32.025 C38.828,32.025 39.500,32.697 39.500,33.526 C39.500,34.354 38.828,35.027 38.000,35.027 Z" id="path-11" class="cls-5" fill-rule="evenodd"/>
    <path d="M38.000,46.034 C38.000,46.034 34.000,46.034 34.000,46.034 C33.172,46.034 32.500,45.362 32.500,44.533 C32.500,43.704 33.172,43.032 34.000,43.032 C34.000,43.032 38.000,43.032 38.000,43.032 C38.828,43.032 39.500,43.704 39.500,44.533 C39.500,45.362 38.828,46.034 38.000,46.034 Z" id="path-12" class="cls-5" fill-rule="evenodd"/>
    <path d="M25.000,14.012 C25.000,14.012 21.000,14.012 21.000,14.012 C20.172,14.012 19.500,13.340 19.500,12.511 C19.500,11.682 20.172,11.010 21.000,11.010 C21.000,11.010 25.000,11.010 25.000,11.010 C25.828,11.010 26.500,11.682 26.500,12.511 C26.500,13.340 25.828,14.012 25.000,14.012 Z" id="path-13" class="cls-5" fill-rule="evenodd"/>
    <path d="M25.000,25.020 C25.000,25.020 21.000,25.020 21.000,25.020 C20.172,25.020 19.500,24.347 19.500,23.519 C19.500,22.690 20.172,22.018 21.000,22.018 C21.000,22.018 25.000,22.018 25.000,22.018 C25.828,22.018 26.500,22.690 26.500,23.519 C26.500,24.347 25.828,25.020 25.000,25.020 Z" id="path-14" class="cls-5" fill-rule="evenodd"/>
    <path d="M25.000,35.027 C25.000,35.027 21.000,35.027 21.000,35.027 C20.172,35.027 19.500,34.354 19.500,33.526 C19.500,32.697 20.172,32.025 21.000,32.025 C21.000,32.025 25.000,32.025 25.000,32.025 C25.828,32.025 26.500,32.697 26.500,33.526 C26.500,34.354 25.828,35.027 25.000,35.027 Z" id="path-15" class="cls-5" fill-rule="evenodd"/>
    <path d="M25.000,46.034 C25.000,46.034 21.000,46.034 21.000,46.034 C20.172,46.034 19.500,45.362 19.500,44.533 C19.500,43.704 20.172,43.032 21.000,43.032 C21.000,43.032 25.000,43.032 25.000,43.032 C25.828,43.032 26.500,43.704 26.500,44.533 C26.500,45.362 25.828,46.034 25.000,46.034 Z" id="path-16" class="cls-5" fill-rule="evenodd"/>
  </g>
</svg>
