<svg xmlns="http://www.w3.org/2000/svg" xmlns:xlink="http://www.w3.org/1999/xlink" preserveAspectRatio="xMidYMid" width="62" height="65" viewBox="0 0 62 65">
  <defs>
    <style>

      .cls-3 {
        fill: #e56a77;
      }

      .cls-4 {
        fill: #ff917b;
      }

      .cls-5 {
        fill: #edc951;
      }

      .cls-6 {
        fill: #000000;
      }
    </style>
  </defs>
  <g id="group-18svg">
    <path d="M5.000,5.006 C5.000,5.006 5.000,55.522 5.000,55.522 C5.000,55.522 5.000,58.023 5.000,58.023 C5.000,58.023 5.000,64.047 5.000,64.047 C5.000,64.047 10.000,64.047 10.000,64.047 C10.000,64.047 10.000,58.042 10.000,58.042 C10.000,58.042 57.000,58.042 57.000,58.042 C57.000,58.042 57.000,64.047 57.000,64.047 C57.000,64.047 62.000,64.047 62.000,64.047 C62.000,64.047 62.000,58.023 62.000,58.023 C62.000,58.023 62.000,55.522 62.000,55.522 C62.000,55.522 62.000,5.006 62.000,5.006 C62.000,5.006 5.000,5.006 5.000,5.006 Z" id="path-1" class="cls-3" fill-rule="evenodd"/>
    <path d="M11.000,11.010 C11.000,11.010 11.000,52.038 11.000,52.038 C11.000,52.038 28.000,52.038 28.000,52.038 C28.000,52.038 28.000,11.010 28.000,11.010 C28.000,11.010 11.000,11.010 11.000,11.010 Z" id="path-2" class="cls-4" fill-rule="evenodd"/>
    <path d="M33.000,11.010 C33.000,11.010 33.000,52.038 33.000,52.038 C33.000,52.038 56.000,52.038 56.000,52.038 C56.000,52.038 56.000,11.010 56.000,11.010 C56.000,11.010 33.000,11.010 33.000,11.010 Z" id="path-3" class="cls-5" fill-rule="evenodd"/>
    <path d="M58.500,62.045 C58.500,62.045 53.500,62.045 53.500,62.045 C52.672,62.045 52.000,61.373 52.000,60.544 C52.000,60.544 52.000,56.041 52.000,56.041 C52.000,56.041 8.000,56.041 8.000,56.041 C8.000,56.041 8.000,60.544 8.000,60.544 C8.000,61.373 7.328,62.045 6.500,62.045 C6.500,62.045 1.500,62.045 1.500,62.045 C0.672,62.045 -0.000,61.373 -0.000,60.544 C-0.000,60.544 -0.000,1.503 -0.000,1.503 C-0.000,0.675 0.672,0.002 1.500,0.002 C1.500,0.002 58.500,0.002 58.500,0.002 C59.328,0.002 60.000,0.675 60.000,1.503 C60.000,1.503 60.000,60.544 60.000,60.544 C60.000,61.373 59.328,62.045 58.500,62.045 ZM55.000,59.043 C55.000,59.043 57.000,59.043 57.000,59.043 C57.000,59.043 57.000,3.004 57.000,3.004 C57.000,3.004 3.000,3.004 3.000,3.004 C3.000,3.004 3.000,59.043 3.000,59.043 C3.000,59.043 5.000,59.043 5.000,59.043 C5.000,59.043 5.000,54.540 5.000,54.540 C5.000,53.711 5.672,53.039 6.500,53.039 C6.500,53.039 53.500,53.039 53.500,53.039 C54.328,53.039 55.000,53.711 55.000,54.540 C55.000,54.540 55.000,59.043 55.000,59.043 Z" id="path-4" class="cls-6" fill-rule="evenodd"/>
    <path d="M52.500,50.037 C52.500,50.037 29.500,50.037 29.500,50.037 C28.672,50.037 28.000,49.365 28.000,48.536 C28.000,48.536 28.000,7.508 28.000,7.508 C28.000,6.679 28.672,6.007 29.500,6.007 C29.500,6.007 52.500,6.007 52.500,6.007 C53.328,6.007 54.000,6.679 54.000,7.508 C54.000,7.508 54.000,48.536 54.000,48.536 C54.000,49.365 53.328,50.037 52.500,50.037 ZM31.000,47.035 C31.000,47.035 51.000,47.035 51.000,47.035 C51.000,47.035 51.000,9.009 51.000,9.009 C51.000,9.009 31.000,9.009 31.000,9.009 C31.000,9.009 31.000,47.035 31.000,47.035 Z" id="path-5" class="cls-6" fill-rule="evenodd"/>
    <path d="M24.500,50.037 C24.500,50.037 7.500,50.037 7.500,50.037 C6.672,50.037 6.000,49.365 6.000,48.536 C6.000,48.536 6.000,7.508 6.000,7.508 C6.000,6.679 6.672,6.007 7.500,6.007 C7.500,6.007 24.500,6.007 24.500,6.007 C25.328,6.007 26.000,6.679 26.000,7.508 C26.000,7.508 26.000,48.536 26.000,48.536 C26.000,49.365 25.328,50.037 24.500,50.037 ZM9.000,47.035 C9.000,47.035 23.000,47.035 23.000,47.035 C23.000,47.035 23.000,9.009 23.000,9.009 C23.000,9.009 9.000,9.009 9.000,9.009 C9.000,9.009 9.000,47.035 9.000,47.035 Z" id="path-6" class="cls-6" fill-rule="evenodd"/>
    <path d="M52.000,40.030 C52.000,40.030 30.000,40.030 30.000,40.030 C29.172,40.030 28.500,39.358 28.500,38.529 C28.500,37.700 29.172,37.028 30.000,37.028 C30.000,37.028 52.000,37.028 52.000,37.028 C52.828,37.028 53.500,37.700 53.500,38.529 C53.500,39.358 52.828,40.030 52.000,40.030 Z" id="path-7" class="cls-6" fill-rule="evenodd"/>
    <path d="M52.000,30.023 C52.000,30.023 30.000,30.023 30.000,30.023 C29.172,30.023 28.500,29.351 28.500,28.522 C28.500,27.693 29.172,27.021 30.000,27.021 C30.000,27.021 52.000,27.021 52.000,27.021 C52.828,27.021 53.500,27.693 53.500,28.522 C53.500,29.351 52.828,30.023 52.000,30.023 Z" id="path-8" class="cls-6" fill-rule="evenodd"/>
    <path d="M52.000,19.015 C52.000,19.015 30.000,19.015 30.000,19.015 C29.172,19.015 28.500,18.343 28.500,17.514 C28.500,16.686 29.172,16.013 30.000,16.013 C30.000,16.013 52.000,16.013 52.000,16.013 C52.828,16.013 53.500,16.686 53.500,17.514 C53.500,18.343 52.828,19.015 52.000,19.015 Z" id="path-9" class="cls-6" fill-rule="evenodd"/>
    <path d="M38.000,14.012 C38.000,14.012 34.000,14.012 34.000,14.012 C33.172,14.012 32.500,13.340 32.500,12.511 C32.500,11.682 33.172,11.010 34.000,11.010 C34.000,11.010 38.000,11.010 38.000,11.010 C38.828,11.010 39.500,11.682 39.500,12.511 C39.500,13.340 38.828,14.012 38.000,14.012 Z" id="path-10" class="cls-6" fill-rule="evenodd"/>
    <path d="M38.000,25.020 C38.000,25.020 34.000,25.020 34.000,25.020 C33.172,25.020 32.500,24.347 32.500,23.519 C32.500,22.690 33.172,22.018 34.000,22.018 C34.000,22.018 38.000,22.018 38.000,22.018 C38.828,22.018 39.500,22.690 39.500,23.519 C39.500,24.347 38.828,25.020 38.000,25.020 Z" id="path-11" class="cls-6" fill-rule="evenodd"/>
    <path d="M38.000,35.027 C38.000,35.027 34.000,35.027 34.000,35.027 C33.172,35.027 32.500,34.354 32.500,33.526 C32.500,32.697 33.172,32.025 34.000,32.025 C34.000,32.025 38.000,32.025 38.000,32.025 C38.828,32.025 39.500,32.697 39.500,33.526 C39.500,34.354 38.828,35.027 38.000,35.027 Z" id="path-12" class="cls-6" fill-rule="evenodd"/>
    <path d="M38.000,46.034 C38.000,46.034 34.000,46.034 34.000,46.034 C33.172,46.034 32.500,45.362 32.500,44.533 C32.500,43.704 33.172,43.032 34.000,43.032 C34.000,43.032 38.000,43.032 38.000,43.032 C38.828,43.032 39.500,43.704 39.500,44.533 C39.500,45.362 38.828,46.034 38.000,46.034 Z" id="path-13" class="cls-6" fill-rule="evenodd"/>
    <path d="M24.000,17.014 C24.000,17.014 8.000,17.014 8.000,17.014 C7.172,17.014 6.500,16.342 6.500,15.513 C6.500,14.684 7.172,14.012 8.000,14.012 C8.000,14.012 24.000,14.012 24.000,14.012 C24.828,14.012 25.500,14.684 25.500,15.513 C25.500,16.342 24.828,17.014 24.000,17.014 Z" id="path-14" class="cls-6" fill-rule="evenodd"/>
    <path d="M24.000,21.017 C24.000,21.017 8.000,21.017 8.000,21.017 C7.172,21.017 6.500,20.345 6.500,19.516 C6.500,18.687 7.172,18.015 8.000,18.015 C8.000,18.015 24.000,18.015 24.000,18.015 C24.828,18.015 25.500,18.687 25.500,19.516 C25.500,20.345 24.828,21.017 24.000,21.017 Z" id="path-15" class="cls-6" fill-rule="evenodd"/>
    <path d="M24.000,43.032 C24.000,43.032 8.000,43.032 8.000,43.032 C7.172,43.032 6.500,42.360 6.500,41.531 C6.500,40.702 7.172,40.030 8.000,40.030 C8.000,40.030 24.000,40.030 24.000,40.030 C24.828,40.030 25.500,40.702 25.500,41.531 C25.500,42.360 24.828,43.032 24.000,43.032 Z" id="path-16" class="cls-6" fill-rule="evenodd"/>
    <path d="M19.500,23.519 C18.672,23.519 18.000,22.846 18.000,22.018 C18.000,22.018 18.000,20.016 18.000,20.016 C18.000,19.187 18.672,18.515 19.500,18.515 C20.328,18.515 21.000,19.187 21.000,20.016 C21.000,20.016 21.000,22.018 21.000,22.018 C21.000,22.846 20.328,23.519 19.500,23.519 Z" id="path-17" class="cls-6" fill-rule="evenodd"/>
    <path d="M15.500,23.519 C14.672,23.519 14.000,22.846 14.000,22.018 C14.000,22.018 14.000,20.016 14.000,20.016 C14.000,19.187 14.672,18.515 15.500,18.515 C16.328,18.515 17.000,19.187 17.000,20.016 C17.000,20.016 17.000,22.018 17.000,22.018 C17.000,22.846 16.328,23.519 15.500,23.519 Z" id="path-18" class="cls-6" fill-rule="evenodd"/>
    <path d="M11.500,23.519 C10.672,23.519 10.000,22.846 10.000,22.018 C10.000,22.018 10.000,20.016 10.000,20.016 C10.000,19.187 10.672,18.515 11.500,18.515 C12.328,18.515 13.000,19.187 13.000,20.016 C13.000,20.016 13.000,22.018 13.000,22.018 C13.000,22.846 12.328,23.519 11.500,23.519 Z" id="path-19" class="cls-6" fill-rule="evenodd"/>
  </g>
</svg>
