<svg xmlns="http://www.w3.org/2000/svg" xmlns:xlink="http://www.w3.org/1999/xlink" preserveAspectRatio="xMidYMid" width="58" height="65" viewBox="0 0 58 65">
  <defs>
    <style>

      .cls-3 {
        fill: #99746a;
      }

      .cls-4 {
        fill: #edc951;
      }

      .cls-5 {
        fill: #53ecf4;
      }

      .cls-7 {
        fill: #000000;
      }
    </style>
  </defs>
  <g id="group-15svg">
    <path d="M12.294,15.013 C8.980,15.013 5.000,17.682 5.000,20.998 C5.000,20.998 5.000,56.522 5.000,56.522 C5.000,56.522 5.000,59.024 5.000,59.024 C5.000,59.024 5.000,64.047 5.000,64.047 C5.000,64.047 10.000,64.047 10.000,64.047 C10.000,64.047 10.000,59.043 10.000,59.043 C10.000,59.043 53.000,59.043 53.000,59.043 C53.000,59.043 53.000,64.047 53.000,64.047 C53.000,64.047 58.000,64.047 58.000,64.047 C58.000,64.047 58.000,59.024 58.000,59.024 C58.000,59.024 58.000,56.522 58.000,56.522 C58.000,56.522 58.000,20.998 58.000,20.998 C58.000,17.682 56.607,15.013 53.294,15.013 C53.294,15.013 12.294,15.013 12.294,15.013 Z" id="path-1" class="cls-3" fill-rule="evenodd"/>
    <path d="M11.000,27.002 C11.000,27.002 11.000,53.039 11.000,53.039 C11.000,53.039 52.000,53.039 52.000,53.039 C52.000,53.039 52.000,27.002 52.000,27.002 C52.000,24.238 51.055,22.018 48.294,22.018 C48.294,22.018 17.294,22.018 17.294,22.018 C14.533,22.018 11.000,24.238 11.000,27.002 Z" id="path-2" class="cls-4" fill-rule="evenodd"/>
    <path d="M26.780,5.154 C23.811,5.154 20.963,5.014 18.314,4.761 C18.308,4.892 18.294,5.021 18.294,5.154 C18.294,9.667 21.950,13.326 26.461,13.326 C30.971,13.326 34.627,9.667 34.627,5.154 C34.627,5.040 34.615,4.931 34.610,4.819 C32.143,5.036 29.513,5.154 26.780,5.154 Z" id="path-3" class="cls-5" fill-rule="evenodd"/>
    <path d="M45.000,14.012 C45.000,14.012 39.000,14.012 39.000,14.012 C39.000,14.012 39.000,3.004 39.000,3.004 C39.000,3.004 45.000,3.004 45.000,3.004 C45.000,3.004 45.000,14.012 45.000,14.012 Z" id="path-4" class="cls-5" fill-rule="evenodd"/>
    <path d="M54.500,63.046 C54.500,63.046 49.500,63.046 49.500,63.046 C48.671,63.046 48.000,62.374 48.000,61.545 C48.000,61.545 48.000,58.042 48.000,58.042 C48.000,58.042 8.000,58.042 8.000,58.042 C8.000,58.042 8.000,61.545 8.000,61.545 C8.000,62.374 7.329,63.046 6.500,63.046 C6.500,63.046 1.500,63.046 1.500,63.046 C0.671,63.046 -0.000,62.374 -0.000,61.545 C-0.000,61.545 -0.000,18.996 -0.000,18.996 C-0.000,14.891 4.031,11.010 8.294,11.010 C8.294,11.010 49.294,11.010 49.294,11.010 C53.117,11.010 56.000,14.443 56.000,18.996 C56.000,18.996 56.000,61.545 56.000,61.545 C56.000,62.374 55.329,63.046 54.500,63.046 ZM51.000,60.044 C51.000,60.044 53.000,60.044 53.000,60.044 C53.000,60.044 53.000,18.996 53.000,18.996 C53.000,16.520 51.727,14.012 49.294,14.012 C49.294,14.012 8.294,14.012 8.294,14.012 C5.721,14.012 3.000,16.573 3.000,18.996 C3.000,18.996 3.000,60.044 3.000,60.044 C3.000,60.044 5.000,60.044 5.000,60.044 C5.000,60.044 5.000,56.541 5.000,56.541 C5.000,55.713 5.671,55.040 6.500,55.040 C6.500,55.040 49.500,55.040 49.500,55.040 C50.329,55.040 51.000,55.713 51.000,56.541 C51.000,56.541 51.000,60.044 51.000,60.044 Z" id="path-5" class="cls-7" fill-rule="evenodd"/>
    <path d="M41.500,14.012 C41.500,14.012 35.500,14.012 35.500,14.012 C34.671,14.012 34.000,13.340 34.000,12.511 C34.000,12.511 34.000,1.503 34.000,1.503 C34.000,0.675 34.671,0.002 35.500,0.002 C35.500,0.002 41.500,0.002 41.500,0.002 C42.329,0.002 43.000,0.675 43.000,1.503 C43.000,1.503 43.000,12.511 43.000,12.511 C43.000,13.340 42.329,14.012 41.500,14.012 ZM37.000,11.010 C37.000,11.010 40.000,11.010 40.000,11.010 C40.000,11.010 40.000,3.004 40.000,3.004 C40.000,3.004 37.000,3.004 37.000,3.004 C37.000,3.004 37.000,11.010 37.000,11.010 Z" id="path-6" class="cls-7" fill-rule="evenodd"/>
    <path d="M48.500,52.038 C48.500,52.038 7.500,52.038 7.500,52.038 C6.671,52.038 6.000,51.366 6.000,50.537 C6.000,50.537 6.000,25.000 6.000,25.000 C6.000,21.475 9.613,18.015 13.294,18.015 C13.294,18.015 44.294,18.015 44.294,18.015 C48.040,18.015 50.000,21.529 50.000,25.000 C50.000,25.000 50.000,50.537 50.000,50.537 C50.000,51.366 49.329,52.038 48.500,52.038 ZM9.000,49.036 C9.000,49.036 47.000,49.036 47.000,49.036 C47.000,49.036 47.000,25.000 47.000,25.000 C47.000,23.622 46.435,21.017 44.294,21.017 C44.294,21.017 13.294,21.017 13.294,21.017 C11.288,21.017 9.000,23.138 9.000,25.000 C9.000,25.000 9.000,49.036 9.000,49.036 Z" id="path-7" class="cls-7" fill-rule="evenodd"/>
    <path d="M48.000,42.031 C48.000,42.031 8.000,42.031 8.000,42.031 C7.171,42.031 6.500,41.359 6.500,40.530 C6.500,39.702 7.171,39.029 8.000,39.029 C8.000,39.029 48.000,39.029 48.000,39.029 C48.829,39.029 49.500,39.702 49.500,40.530 C49.500,41.359 48.829,42.031 48.000,42.031 Z" id="path-8" class="cls-7" fill-rule="evenodd"/>
    <path d="M48.000,32.025 C48.000,32.025 8.000,32.025 8.000,32.025 C7.171,32.025 6.500,31.352 6.500,30.523 C6.500,29.695 7.171,29.022 8.000,29.022 C8.000,29.022 48.000,29.022 48.000,29.022 C48.829,29.022 49.500,29.695 49.500,30.523 C49.500,31.352 48.829,32.025 48.000,32.025 Z" id="path-9" class="cls-7" fill-rule="evenodd"/>
    <path d="M28.919,28.517 C26.068,28.517 23.919,26.972 23.919,24.924 C23.919,24.095 24.590,23.423 25.419,23.423 C26.248,23.423 26.919,24.095 26.919,24.924 C26.999,25.047 27.711,25.515 28.919,25.515 C30.127,25.515 30.838,25.047 30.932,24.852 C30.932,24.023 31.597,23.387 32.425,23.387 C33.253,23.387 33.919,24.095 33.919,24.924 C33.919,26.972 31.770,28.517 28.919,28.517 Z" id="path-10" class="cls-7" fill-rule="evenodd"/>
    <path d="M28.919,38.524 C26.068,38.524 23.919,36.979 23.919,34.931 C23.919,34.102 24.590,33.430 25.419,33.430 C26.248,33.430 26.919,34.102 26.919,34.931 C26.999,35.054 27.711,35.522 28.919,35.522 C30.127,35.522 30.838,35.054 30.932,34.858 C30.932,34.030 31.597,33.394 32.425,33.394 C33.253,33.394 33.919,34.102 33.919,34.931 C33.919,36.979 31.770,38.524 28.919,38.524 Z" id="path-11" class="cls-7" fill-rule="evenodd"/>
    <path d="M28.919,48.531 C26.068,48.531 23.919,46.986 23.919,44.938 C23.919,44.109 24.590,43.437 25.419,43.437 C26.248,43.437 26.919,44.109 26.919,44.938 C26.999,45.061 27.711,45.529 28.919,45.529 C30.127,45.529 30.838,45.061 30.932,44.865 C30.932,44.037 31.597,43.401 32.425,43.401 C33.253,43.401 33.919,44.109 33.919,44.938 C33.919,46.986 31.770,48.531 28.919,48.531 Z" id="path-12" class="cls-7" fill-rule="evenodd"/>
    <path d="M22.461,13.825 C17.130,13.825 12.794,9.486 12.794,4.153 C12.794,4.032 12.801,3.912 12.809,3.794 C12.809,3.794 12.816,3.688 12.816,3.688 C12.835,3.277 13.022,2.894 13.332,2.625 C13.642,2.357 14.045,2.221 14.457,2.266 C19.614,2.758 25.299,2.778 30.479,2.322 C30.889,2.291 31.292,2.418 31.599,2.689 C31.907,2.959 32.091,3.343 32.109,3.752 C32.122,3.944 32.127,4.047 32.127,4.153 C32.127,9.486 27.791,13.825 22.461,13.825 ZM15.911,5.402 C16.497,8.486 19.211,10.823 22.461,10.823 C25.694,10.823 28.397,8.508 29.001,5.448 C24.721,5.736 20.171,5.720 15.911,5.402 Z" id="path-13" class="cls-7" fill-rule="evenodd"/>
  </g>
</svg>
