<svg xmlns="http://www.w3.org/2000/svg" xmlns:xlink="http://www.w3.org/1999/xlink" preserveAspectRatio="xMidYMid" width="60" height="66" viewBox="0 0 60 66">
  <defs>
    <style>

      .cls-3 {
        fill: #53ecf4;
      }

      .cls-4 {
        fill: #e56a77;
      }

      .cls-5 {
        fill: #edc951;
      }

      .cls-6 {
        fill: #000000;
      }
    </style>
  </defs>
  <g id="group-26svg">
    <path d="M5.000,28.016 C5.000,28.016 5.000,57.198 5.000,57.198 C5.000,57.198 5.000,59.786 5.000,59.786 C5.000,59.786 5.000,65.042 5.000,65.042 C5.000,65.042 10.000,65.042 10.000,65.042 C10.000,65.042 10.000,60.039 10.000,60.039 C10.000,60.039 55.000,60.039 55.000,60.039 C55.000,60.039 55.000,65.042 55.000,65.042 C55.000,65.042 60.000,65.042 60.000,65.042 C60.000,65.042 60.000,59.786 60.000,59.786 C60.000,59.786 60.000,57.198 60.000,57.198 C60.000,57.198 60.000,28.016 60.000,28.016 C60.000,28.016 5.000,28.016 5.000,28.016 Z" id="path-1" class="cls-3" fill-rule="evenodd"/>
    <path d="M39.061,22.433 C39.061,25.339 36.707,27.695 33.803,27.695 C30.898,27.695 28.544,25.339 28.544,22.433 C28.544,19.527 30.898,17.171 33.803,17.171 C36.707,17.171 39.061,19.527 39.061,22.433 Z" id="path-2" class="cls-4" fill-rule="evenodd"/>
    <path d="M28.372,5.001 C28.372,5.001 38.544,5.001 38.544,5.001 C38.544,5.001 42.682,16.008 42.682,16.008 C42.682,16.008 24.234,16.008 24.234,16.008 C24.234,16.008 28.372,5.001 28.372,5.001 Z" id="path-3" class="cls-5" fill-rule="evenodd"/>
    <path d="M56.500,63.041 C56.500,63.041 51.500,63.041 51.500,63.041 C50.671,63.041 50.000,62.368 50.000,61.540 C50.000,61.540 50.000,58.037 50.000,58.037 C50.000,58.037 8.000,58.037 8.000,58.037 C8.000,58.037 8.000,61.540 8.000,61.540 C8.000,62.368 7.329,63.041 6.500,63.041 C6.500,63.041 1.500,63.041 1.500,63.041 C0.671,63.041 -0.000,62.368 -0.000,61.540 C-0.000,61.540 -0.000,24.514 -0.000,24.514 C-0.000,23.685 0.671,23.013 1.500,23.013 C1.500,23.013 56.500,23.013 56.500,23.013 C57.329,23.013 58.000,23.685 58.000,24.514 C58.000,24.514 58.000,61.540 58.000,61.540 C58.000,62.368 57.329,63.041 56.500,63.041 ZM53.000,60.039 C53.000,60.039 55.000,60.039 55.000,60.039 C55.000,60.039 55.000,26.015 55.000,26.015 C55.000,26.015 3.000,26.015 3.000,26.015 C3.000,26.015 3.000,60.039 3.000,60.039 C3.000,60.039 5.000,60.039 5.000,60.039 C5.000,60.039 5.000,56.536 5.000,56.536 C5.000,55.707 5.671,55.035 6.500,55.035 C6.500,55.035 51.500,55.035 51.500,55.035 C52.329,55.035 53.000,55.707 53.000,56.536 C53.000,56.536 53.000,60.039 53.000,60.039 Z" id="path-4" class="cls-6" fill-rule="evenodd"/>
    <path d="M56.000,42.026 C56.000,42.026 2.000,42.026 2.000,42.026 C1.171,42.026 0.500,41.354 0.500,40.525 C0.500,39.696 1.171,39.024 2.000,39.024 C2.000,39.024 56.000,39.024 56.000,39.024 C56.829,39.024 57.500,39.696 57.500,40.525 C57.500,41.354 56.829,42.026 56.000,42.026 Z" id="path-5" class="cls-6" fill-rule="evenodd"/>
    <path d="M56.000,58.037 C56.000,58.037 2.000,58.037 2.000,58.037 C1.171,58.037 0.500,57.365 0.500,56.536 C0.500,55.707 1.171,55.035 2.000,55.035 C2.000,55.035 56.000,55.035 56.000,55.035 C56.829,55.035 57.500,55.707 57.500,56.536 C57.500,57.365 56.829,58.037 56.000,58.037 Z" id="path-6" class="cls-6" fill-rule="evenodd"/>
    <path d="M29.803,26.194 C26.076,26.194 23.044,23.160 23.044,19.430 C23.044,15.701 26.076,12.668 29.803,12.668 C33.530,12.668 36.561,15.701 36.561,19.430 C36.561,23.160 33.530,26.194 29.803,26.194 ZM29.803,15.670 C27.730,15.670 26.044,17.357 26.044,19.430 C26.044,21.504 27.730,23.192 29.803,23.192 C31.875,23.192 33.562,21.504 33.562,19.430 C33.562,17.357 31.875,15.670 29.803,15.670 Z" id="path-7" class="cls-6" fill-rule="evenodd"/>
    <path d="M38.702,14.007 C38.695,14.006 38.688,14.006 38.682,14.007 C38.682,14.007 20.234,14.007 20.234,14.007 C19.742,14.007 19.281,13.765 19.000,13.360 C18.720,12.955 18.657,12.438 18.830,11.977 C18.830,11.977 22.968,0.969 22.968,0.969 C23.187,0.384 23.747,-0.003 24.372,-0.003 C24.372,-0.003 34.544,-0.003 34.544,-0.003 C35.168,-0.003 35.728,0.384 35.948,0.969 C35.948,0.969 40.005,11.761 40.005,11.761 C40.130,11.981 40.202,12.235 40.202,12.506 C40.202,13.334 39.531,14.007 38.702,14.007 ZM22.401,11.005 C22.401,11.005 36.515,11.005 36.515,11.005 C36.515,11.005 33.505,2.999 33.505,2.999 C33.505,2.999 25.410,2.999 25.410,2.999 C25.410,2.999 22.401,11.005 22.401,11.005 Z" id="path-8" class="cls-6" fill-rule="evenodd"/>
    <path d="M51.000,50.032 C51.000,50.032 47.000,50.032 47.000,50.032 C46.171,50.032 45.500,49.359 45.500,48.531 C45.500,47.702 46.171,47.030 47.000,47.030 C47.000,47.030 51.000,47.030 51.000,47.030 C51.829,47.030 52.500,47.702 52.500,48.531 C52.500,49.359 51.829,50.032 51.000,50.032 Z" id="path-9" class="cls-6" fill-rule="evenodd"/>
    <path d="M10.000,50.032 C10.000,50.032 6.000,50.032 6.000,50.032 C5.171,50.032 4.500,49.359 4.500,48.531 C4.500,47.702 5.171,47.030 6.000,47.030 C6.000,47.030 10.000,47.030 10.000,47.030 C10.829,47.030 11.500,47.702 11.500,48.531 C11.500,49.359 10.829,50.032 10.000,50.032 Z" id="path-10" class="cls-6" fill-rule="evenodd"/>
    <path d="M51.000,35.021 C51.000,35.021 47.000,35.021 47.000,35.021 C46.171,35.021 45.500,34.349 45.500,33.520 C45.500,32.692 46.171,32.019 47.000,32.019 C47.000,32.019 51.000,32.019 51.000,32.019 C51.829,32.019 52.500,32.692 52.500,33.520 C52.500,34.349 51.829,35.021 51.000,35.021 Z" id="path-11" class="cls-6" fill-rule="evenodd"/>
    <path d="M10.000,35.021 C10.000,35.021 6.000,35.021 6.000,35.021 C5.171,35.021 4.500,34.349 4.500,33.520 C4.500,32.692 5.171,32.019 6.000,32.019 C6.000,32.019 10.000,32.019 10.000,32.019 C10.829,32.019 11.500,32.692 11.500,33.520 C11.500,34.349 10.829,35.021 10.000,35.021 Z" id="path-12" class="cls-6" fill-rule="evenodd"/>
  </g>
</svg>
