<svg xmlns="http://www.w3.org/2000/svg" xmlns:xlink="http://www.w3.org/1999/xlink" preserveAspectRatio="xMidYMid" width="58" height="65" viewBox="0 0 58 65">
  <defs>
    <style>

      .cls-3 {
        fill: #edc951;
      }

      .cls-4 {
        fill: #53ecf4;
      }

      .cls-8 {
        fill: #000000;
      }
    </style>
  </defs>
  <g id="group-27svg">
    <path d="M5.000,4.000 C5.000,4.000 5.000,54.516 5.000,54.516 C5.000,54.516 5.000,57.017 5.000,57.017 C5.000,57.017 5.000,64.041 5.000,64.041 C5.000,64.041 10.000,64.041 10.000,64.041 C10.000,64.041 10.000,57.036 10.000,57.036 C10.000,57.036 53.000,57.036 53.000,57.036 C53.000,57.036 53.000,64.041 53.000,64.041 C53.000,64.041 58.000,64.041 58.000,64.041 C58.000,64.041 58.000,57.017 58.000,57.017 C58.000,57.017 58.000,54.516 58.000,54.516 C58.000,54.516 58.000,4.000 58.000,4.000 C58.000,4.000 5.000,4.000 5.000,4.000 Z" id="path-1" class="cls-3" fill-rule="evenodd"/>
    <path d="M23.000,31.019 C23.000,31.019 53.000,31.019 53.000,31.019 C53.000,31.019 53.000,41.025 53.000,41.025 C53.000,41.025 23.000,41.025 23.000,41.025 C23.000,41.025 23.000,31.019 23.000,31.019 Z" id="path-2" class="cls-4" fill-rule="evenodd"/>
    <path d="M24.000,12.005 C24.000,12.005 24.000,22.012 24.000,22.012 C24.000,22.012 12.000,22.012 12.000,22.012 C12.000,22.012 12.000,12.005 12.000,12.005 C12.000,12.005 24.000,12.005 24.000,12.005 Z" id="path-3" class="cls-4" fill-rule="evenodd"/>
    <path d="M53.684,22.012 C53.684,22.012 43.684,22.012 43.684,22.012 C43.684,22.012 47.709,12.005 47.709,12.005 C47.709,12.005 57.101,12.005 57.101,12.005 C57.101,12.005 53.684,22.012 53.684,22.012 Z" id="path-4" class="cls-4" fill-rule="evenodd"/>
    <path d="M48.882,21.462 C48.882,21.462 52.230,12.457 52.230,12.457 C52.230,12.457 52.230,12.457 52.230,12.457 " id="path-5" class="cls-4" fill-rule="evenodd"/>
    <path d="M54.500,63.041 C54.500,63.041 49.500,63.041 49.500,63.041 C48.671,63.041 48.000,62.368 48.000,61.540 C48.000,61.540 48.000,56.036 48.000,56.036 C48.000,56.036 8.000,56.036 8.000,56.036 C8.000,56.036 8.000,61.540 8.000,61.540 C8.000,62.368 7.329,63.041 6.500,63.041 C6.500,63.041 1.500,63.041 1.500,63.041 C0.671,63.041 -0.000,62.368 -0.000,61.540 C-0.000,61.540 -0.000,1.498 -0.000,1.498 C-0.000,0.669 0.671,-0.003 1.500,-0.003 C1.500,-0.003 54.500,-0.003 54.500,-0.003 C55.329,-0.003 56.000,0.669 56.000,1.498 C56.000,1.498 56.000,61.540 56.000,61.540 C56.000,62.368 55.329,63.041 54.500,63.041 ZM51.000,60.039 C51.000,60.039 53.000,60.039 53.000,60.039 C53.000,60.039 53.000,2.999 53.000,2.999 C53.000,2.999 3.000,2.999 3.000,2.999 C3.000,2.999 3.000,60.039 3.000,60.039 C3.000,60.039 5.000,60.039 5.000,60.039 C5.000,60.039 5.000,54.535 5.000,54.535 C5.000,53.706 5.671,53.034 6.500,53.034 C6.500,53.034 49.500,53.034 49.500,53.034 C50.329,53.034 51.000,53.706 51.000,54.535 C51.000,54.535 51.000,60.039 51.000,60.039 Z" id="path-6" class="cls-8" fill-rule="evenodd"/>
    <path d="M54.000,40.025 C54.000,40.025 2.000,40.025 2.000,40.025 C1.171,40.025 0.500,39.352 0.500,38.524 C0.500,37.695 1.171,37.023 2.000,37.023 C2.000,37.023 54.000,37.023 54.000,37.023 C54.829,37.023 55.500,37.695 55.500,38.524 C55.500,39.352 54.829,40.025 54.000,40.025 Z" id="path-7" class="cls-8" fill-rule="evenodd"/>
    <path d="M54.000,56.036 C54.000,56.036 2.000,56.036 2.000,56.036 C1.171,56.036 0.500,55.363 0.500,54.535 C0.500,53.706 1.171,53.034 2.000,53.034 C2.000,53.034 54.000,53.034 54.000,53.034 C54.829,53.034 55.500,53.706 55.500,54.535 C55.500,55.363 54.829,56.036 54.000,56.036 Z" id="path-8" class="cls-8" fill-rule="evenodd"/>
    <path d="M54.000,21.012 C54.000,21.012 2.000,21.012 2.000,21.012 C1.171,21.012 0.500,20.339 0.500,19.511 C0.500,18.682 1.171,18.010 2.000,18.010 C2.000,18.010 54.000,18.010 54.000,18.010 C54.829,18.010 55.500,18.682 55.500,19.511 C55.500,20.339 54.829,21.012 54.000,21.012 Z" id="path-9" class="cls-8" fill-rule="evenodd"/>
    <path d="M27.500,55.535 C26.671,55.535 26.000,54.863 26.000,54.034 C26.000,54.034 26.000,39.024 26.000,39.024 C26.000,38.195 26.671,37.523 27.500,37.523 C28.329,37.523 29.000,38.195 29.000,39.024 C29.000,39.024 29.000,54.034 29.000,54.034 C29.000,54.863 28.329,55.535 27.500,55.535 Z" id="path-10" class="cls-8" fill-rule="evenodd"/>
    <path d="M32.500,49.531 C31.671,49.531 31.000,48.859 31.000,48.030 C31.000,48.030 31.000,46.029 31.000,46.029 C31.000,45.200 31.671,44.528 32.500,44.528 C33.329,44.528 34.000,45.200 34.000,46.029 C34.000,46.029 34.000,48.030 34.000,48.030 C34.000,48.859 33.329,49.531 32.500,49.531 Z" id="path-11" class="cls-8" fill-rule="evenodd"/>
    <path d="M22.500,49.531 C21.671,49.531 21.000,48.859 21.000,48.030 C21.000,48.030 21.000,46.029 21.000,46.029 C21.000,45.200 21.671,44.528 22.500,44.528 C23.329,44.528 24.000,45.200 24.000,46.029 C24.000,46.029 24.000,48.030 24.000,48.030 C24.000,48.859 23.329,49.531 22.500,49.531 Z" id="path-12" class="cls-8" fill-rule="evenodd"/>
    <path d="M49.500,40.025 C49.500,40.025 19.500,40.025 19.500,40.025 C18.671,40.025 18.000,39.352 18.000,38.524 C18.000,38.524 18.000,28.517 18.000,28.517 C18.000,27.688 18.671,27.016 19.500,27.016 C19.500,27.016 49.500,27.016 49.500,27.016 C50.329,27.016 51.000,27.688 51.000,28.517 C51.000,28.517 51.000,38.524 51.000,38.524 C51.000,39.352 50.329,40.025 49.500,40.025 ZM21.000,37.023 C21.000,37.023 48.000,37.023 48.000,37.023 C48.000,37.023 48.000,30.018 48.000,30.018 C48.000,30.018 21.000,30.018 21.000,30.018 C21.000,30.018 21.000,37.023 21.000,37.023 Z" id="path-13" class="cls-8" fill-rule="evenodd"/>
    <path d="M43.500,39.524 C42.671,39.524 42.000,38.852 42.000,38.023 C42.000,38.023 42.000,29.017 42.000,29.017 C42.000,28.188 42.671,27.516 43.500,27.516 C44.329,27.516 45.000,28.188 45.000,29.017 C45.000,29.017 45.000,38.023 45.000,38.023 C45.000,38.852 44.329,39.524 43.500,39.524 Z" id="path-14" class="cls-8" fill-rule="evenodd"/>
    <path d="M37.500,39.524 C36.671,39.524 36.000,38.852 36.000,38.023 C36.000,38.023 36.000,29.017 36.000,29.017 C36.000,28.188 36.671,27.516 37.500,27.516 C38.329,27.516 39.000,28.188 39.000,29.017 C39.000,29.017 39.000,38.023 39.000,38.023 C39.000,38.852 38.329,39.524 37.500,39.524 Z" id="path-15" class="cls-8" fill-rule="evenodd"/>
    <path d="M31.500,39.524 C30.671,39.524 30.000,38.852 30.000,38.023 C30.000,38.023 30.000,29.017 30.000,29.017 C30.000,28.188 30.671,27.516 31.500,27.516 C32.329,27.516 33.000,28.188 33.000,29.017 C33.000,29.017 33.000,38.023 33.000,38.023 C33.000,38.852 32.329,39.524 31.500,39.524 Z" id="path-16" class="cls-8" fill-rule="evenodd"/>
    <path d="M25.500,39.524 C24.671,39.524 24.000,38.852 24.000,38.023 C24.000,38.023 24.000,29.017 24.000,29.017 C24.000,28.188 24.671,27.516 25.500,27.516 C26.329,27.516 27.000,28.188 27.000,29.017 C27.000,29.017 27.000,38.023 27.000,38.023 C27.000,38.852 26.329,39.524 25.500,39.524 Z" id="path-17" class="cls-8" fill-rule="evenodd"/>
    <path d="M20.500,21.012 C20.500,21.012 8.500,21.012 8.500,21.012 C7.671,21.012 7.000,20.339 7.000,19.511 C7.000,19.511 7.000,9.504 7.000,9.504 C7.000,8.675 7.671,8.003 8.500,8.003 C8.500,8.003 20.500,8.003 20.500,8.003 C21.329,8.003 22.000,8.675 22.000,9.504 C22.000,9.504 22.000,19.511 22.000,19.511 C22.000,20.339 21.329,21.012 20.500,21.012 ZM10.000,18.010 C10.000,18.010 19.000,18.010 19.000,18.010 C19.000,18.010 19.000,11.005 19.000,11.005 C19.000,11.005 10.000,11.005 10.000,11.005 C10.000,11.005 10.000,18.010 10.000,18.010 Z" id="path-18" class="cls-8" fill-rule="evenodd"/>
    <path d="M20.000,16.008 C20.000,16.008 9.000,16.008 9.000,16.008 C8.171,16.008 7.500,15.336 7.500,14.507 C7.500,13.678 8.171,13.006 9.000,13.006 C9.000,13.006 20.000,13.006 20.000,13.006 C20.829,13.006 21.500,13.678 21.500,14.507 C21.500,15.336 20.829,16.008 20.000,16.008 Z" id="path-19" class="cls-8" fill-rule="evenodd"/>
    <path d="M49.684,21.012 C49.684,21.012 39.684,21.012 39.684,21.012 C39.186,21.012 38.720,20.764 38.441,20.351 C38.162,19.938 38.106,19.413 38.292,18.950 C38.292,18.950 42.317,8.943 42.317,8.943 C42.546,8.375 43.097,8.003 43.709,8.003 C43.709,8.003 53.101,8.003 53.101,8.003 C53.585,8.003 54.040,8.236 54.321,8.631 C54.603,9.025 54.677,9.531 54.520,9.989 C54.520,9.989 51.103,19.996 51.103,19.996 C50.896,20.603 50.326,21.012 49.684,21.012 ZM41.905,18.010 C41.905,18.010 48.611,18.010 48.611,18.010 C48.611,18.010 51.003,11.005 51.003,11.005 C51.003,11.005 44.722,11.005 44.722,11.005 C44.722,11.005 41.905,18.010 41.905,18.010 Z" id="path-20" class="cls-8" fill-rule="evenodd"/>
    <path d="M44.882,20.962 C44.708,20.962 44.531,20.931 44.359,20.868 C43.582,20.579 43.187,19.714 43.476,18.937 C43.476,18.937 46.824,9.933 46.824,9.933 C47.113,9.156 47.977,8.764 48.753,9.049 C49.529,9.338 49.925,10.203 49.636,10.980 C49.636,10.980 46.288,19.985 46.288,19.985 C46.063,20.588 45.490,20.962 44.882,20.962 Z" id="path-21" class="cls-8" fill-rule="evenodd"/>
  </g>
</svg>
