<svg xmlns="http://www.w3.org/2000/svg" xmlns:xlink="http://www.w3.org/1999/xlink" preserveAspectRatio="xMidYMid" width="67" height="65" viewBox="0 0 67 65">
  <defs>
    <style>

      .cls-3 {
        fill: #81bda4;
      }

      .cls-4 {
        fill: #000000;
      }

      .cls-5 {
        fill: #e56a77;
      }

      .cls-6 {
        fill: #53ecf4;
      }

      .cls-8 {
        fill: #ff917b;
      }
    </style>
  </defs>
  <g id="group-2svg">
    <path d="M61.000,55.046 C61.000,55.046 12.000,55.046 12.000,55.046 C12.000,55.046 12.000,11.015 12.000,11.015 C12.000,11.015 61.000,11.015 61.000,11.015 C61.000,11.015 61.000,55.046 61.000,55.046 Z" id="path-1" class="cls-3" fill-rule="evenodd"/>
    <path d="M56.500,54.045 C56.500,54.045 10.500,54.045 10.500,54.045 C9.672,54.045 9.000,53.373 9.000,52.544 C9.000,52.544 9.000,8.514 9.000,8.514 C9.000,7.685 9.672,7.012 10.500,7.012 C10.500,7.012 56.500,7.012 56.500,7.012 C57.328,7.012 58.000,7.685 58.000,8.514 C58.000,8.514 58.000,52.544 58.000,52.544 C58.000,53.373 57.328,54.045 56.500,54.045 ZM12.000,51.043 C12.000,51.043 55.000,51.043 55.000,51.043 C55.000,51.043 55.000,10.015 55.000,10.015 C55.000,10.015 12.000,10.015 12.000,10.015 C12.000,10.015 12.000,51.043 12.000,51.043 Z" id="path-2" class="cls-4" fill-rule="evenodd"/>
    <path d="M38.485,6.012 C38.485,6.012 30.344,59.068 30.344,59.068 C29.848,61.948 26.352,64.052 23.432,64.052 C23.432,64.052 12.985,64.052 12.985,64.052 C9.672,64.052 7.000,61.228 7.000,57.912 C7.000,57.912 7.000,6.012 7.000,6.012 C7.000,6.012 38.485,6.012 38.485,6.012 Z" id="path-3" class="cls-5" fill-rule="evenodd"/>
    <path d="M40.000,20.021 C40.000,20.021 55.000,20.021 55.000,20.021 C55.000,20.021 55.000,46.039 55.000,46.039 C55.000,46.039 40.000,46.039 40.000,46.039 C40.000,46.039 40.000,20.021 40.000,20.021 Z" id="path-4" class="cls-6" fill-rule="evenodd"/>
    <path d="M20.256,63.051 C20.256,63.051 8.485,63.051 8.485,63.051 C4.357,63.051 1.000,59.623 1.000,55.410 C1.000,55.410 1.000,3.510 1.000,3.510 C1.000,2.681 1.672,2.009 2.500,2.009 C2.500,2.009 33.485,2.009 33.485,2.009 C33.919,2.009 34.331,2.197 34.616,2.524 C34.901,2.851 35.030,3.285 34.972,3.715 C34.972,3.715 27.686,56.572 27.686,56.572 C27.176,60.266 23.981,63.051 20.256,63.051 ZM4.000,5.011 C4.000,5.011 4.000,55.410 4.000,55.410 C4.000,57.925 6.054,60.049 8.485,60.049 C8.485,60.049 20.256,60.049 20.256,60.049 C22.491,60.049 24.408,58.378 24.714,56.162 C24.714,56.162 31.765,5.011 31.765,5.011 C31.765,5.011 4.000,5.011 4.000,5.011 Z" id="path-5" class="cls-4" fill-rule="evenodd"/>
    <path d="M67.000,11.015 C67.000,11.015 6.000,11.015 6.000,11.015 C6.000,11.015 6.000,4.010 6.000,4.010 C6.000,4.010 67.000,4.010 67.000,4.010 C67.000,4.010 67.000,11.015 67.000,11.015 Z" id="path-6" class="cls-8" fill-rule="evenodd"/>
    <path d="M62.500,10.015 C62.500,10.015 1.500,10.015 1.500,10.015 C0.672,10.015 -0.000,9.342 -0.000,8.514 C-0.000,8.514 -0.000,1.509 -0.000,1.509 C-0.000,0.680 0.672,0.008 1.500,0.008 C1.500,0.008 62.500,0.008 62.500,0.008 C63.328,0.008 64.000,0.680 64.000,1.509 C64.000,1.509 64.000,8.514 64.000,8.514 C64.000,9.342 63.328,10.015 62.500,10.015 ZM3.000,7.012 C3.000,7.012 61.000,7.012 61.000,7.012 C61.000,7.012 61.000,3.010 61.000,3.010 C61.000,3.010 3.000,3.010 3.000,3.010 C3.000,3.010 3.000,7.012 3.000,7.012 Z" id="path-7" class="cls-4" fill-rule="evenodd"/>
    <path d="M50.500,45.039 C50.500,45.039 35.500,45.039 35.500,45.039 C34.672,45.039 34.000,44.366 34.000,43.538 C34.000,43.538 34.000,17.520 34.000,17.520 C34.000,16.691 34.672,16.019 35.500,16.019 C35.500,16.019 50.500,16.019 50.500,16.019 C51.328,16.019 52.000,16.691 52.000,17.520 C52.000,17.520 52.000,43.538 52.000,43.538 C52.000,44.366 51.328,45.039 50.500,45.039 ZM37.000,42.037 C37.000,42.037 49.000,42.037 49.000,42.037 C49.000,42.037 49.000,19.021 49.000,19.021 C49.000,19.021 37.000,19.021 37.000,19.021 C37.000,19.021 37.000,42.037 37.000,42.037 Z" id="path-8" class="cls-4" fill-rule="evenodd"/>
    <path d="M41.000,34.031 C41.000,34.031 36.000,34.031 36.000,34.031 C35.172,34.031 34.500,33.359 34.500,32.530 C34.500,31.701 35.172,31.029 36.000,31.029 C36.000,31.029 41.000,31.029 41.000,31.029 C41.828,31.029 42.500,31.701 42.500,32.530 C42.500,33.359 41.828,34.031 41.000,34.031 Z" id="path-9" class="cls-4" fill-rule="evenodd"/>
    <path d="M18.374,55.410 C18.327,55.410 18.279,55.408 18.232,55.403 C17.407,55.326 16.802,54.594 16.879,53.769 C16.879,53.769 19.879,21.747 19.879,21.747 C19.956,20.922 20.700,20.314 21.512,20.393 C22.337,20.470 22.942,21.202 22.865,22.027 C22.865,22.027 19.865,54.049 19.865,54.049 C19.793,54.827 19.139,55.410 18.374,55.410 Z" id="path-10" class="cls-4" fill-rule="evenodd"/>
    <path d="M12.370,55.410 C11.595,55.410 10.938,54.813 10.877,54.026 C10.877,54.026 8.377,22.004 8.377,22.004 C8.312,21.178 8.930,20.455 9.755,20.391 C10.597,20.320 11.303,20.944 11.367,21.770 C11.367,21.770 13.867,53.792 13.867,53.792 C13.932,54.619 13.314,55.341 12.489,55.405 C12.449,55.409 12.409,55.410 12.370,55.410 Z" id="path-11" class="cls-4" fill-rule="evenodd"/>
  </g>
</svg>
