<svg xmlns="http://www.w3.org/2000/svg" xmlns:xlink="http://www.w3.org/1999/xlink" preserveAspectRatio="xMidYMid" width="62" height="65" viewBox="0 0 62 65">
  <defs>
    <style>

      .cls-3 {
        fill: #e56a77;
      }

      .cls-4 {
        fill: #edc951;
      }

      .cls-5 {
        fill: #99746a;
      }

      .cls-6 {
        fill: #000000;
      }
    </style>
  </defs>
  <g id="group-17svg">
    <path d="M5.000,4.005 C5.000,4.005 5.000,54.521 5.000,54.521 C5.000,54.521 5.000,57.023 5.000,57.023 C5.000,57.023 5.000,64.047 5.000,64.047 C5.000,64.047 10.000,64.047 10.000,64.047 C10.000,64.047 10.000,57.042 10.000,57.042 C10.000,57.042 57.000,57.042 57.000,57.042 C57.000,57.042 57.000,64.047 57.000,64.047 C57.000,64.047 62.000,64.047 62.000,64.047 C62.000,64.047 62.000,57.023 62.000,57.023 C62.000,57.023 62.000,54.521 62.000,54.521 C62.000,54.521 62.000,4.005 62.000,4.005 C62.000,4.005 5.000,4.005 5.000,4.005 Z" id="path-1" class="cls-3" fill-rule="evenodd"/>
    <path d="M11.000,10.009 C11.000,10.009 11.000,51.038 11.000,51.038 C11.000,51.038 28.000,51.038 28.000,51.038 C28.000,51.038 28.000,10.009 28.000,10.009 C28.000,10.009 11.000,10.009 11.000,10.009 Z" id="path-2" class="cls-4" fill-rule="evenodd"/>
    <path d="M33.000,10.009 C33.000,10.009 33.000,51.038 33.000,51.038 C33.000,51.038 56.000,51.038 56.000,51.038 C56.000,51.038 56.000,10.009 56.000,10.009 C56.000,10.009 33.000,10.009 33.000,10.009 Z" id="path-3" class="cls-5" fill-rule="evenodd"/>
    <path d="M58.500,63.046 C58.500,63.046 53.500,63.046 53.500,63.046 C52.672,63.046 52.000,62.374 52.000,61.545 C52.000,61.545 52.000,56.041 52.000,56.041 C52.000,56.041 8.000,56.041 8.000,56.041 C8.000,56.041 8.000,61.545 8.000,61.545 C8.000,62.374 7.328,63.046 6.500,63.046 C6.500,63.046 1.500,63.046 1.500,63.046 C0.672,63.046 -0.000,62.374 -0.000,61.545 C-0.000,61.545 -0.000,1.503 -0.000,1.503 C-0.000,0.675 0.672,0.002 1.500,0.002 C1.500,0.002 58.500,0.002 58.500,0.002 C59.328,0.002 60.000,0.675 60.000,1.503 C60.000,1.503 60.000,61.545 60.000,61.545 C60.000,62.374 59.328,63.046 58.500,63.046 ZM55.000,60.044 C55.000,60.044 57.000,60.044 57.000,60.044 C57.000,60.044 57.000,3.004 57.000,3.004 C57.000,3.004 3.000,3.004 3.000,3.004 C3.000,3.004 3.000,60.044 3.000,60.044 C3.000,60.044 5.000,60.044 5.000,60.044 C5.000,60.044 5.000,54.540 5.000,54.540 C5.000,53.711 5.672,53.039 6.500,53.039 C6.500,53.039 53.500,53.039 53.500,53.039 C54.328,53.039 55.000,53.711 55.000,54.540 C55.000,54.540 55.000,60.044 55.000,60.044 Z" id="path-4" class="cls-6" fill-rule="evenodd"/>
    <path d="M52.500,50.037 C52.500,50.037 29.500,50.037 29.500,50.037 C28.672,50.037 28.000,49.365 28.000,48.536 C28.000,48.536 28.000,7.508 28.000,7.508 C28.000,6.679 28.672,6.007 29.500,6.007 C29.500,6.007 52.500,6.007 52.500,6.007 C53.328,6.007 54.000,6.679 54.000,7.508 C54.000,7.508 54.000,48.536 54.000,48.536 C54.000,49.365 53.328,50.037 52.500,50.037 ZM31.000,47.035 C31.000,47.035 51.000,47.035 51.000,47.035 C51.000,47.035 51.000,9.009 51.000,9.009 C51.000,9.009 31.000,9.009 31.000,9.009 C31.000,9.009 31.000,47.035 31.000,47.035 Z" id="path-5" class="cls-6" fill-rule="evenodd"/>
    <path d="M24.500,50.037 C24.500,50.037 7.500,50.037 7.500,50.037 C6.672,50.037 6.000,49.365 6.000,48.536 C6.000,48.536 6.000,7.508 6.000,7.508 C6.000,6.679 6.672,6.007 7.500,6.007 C7.500,6.007 24.500,6.007 24.500,6.007 C25.328,6.007 26.000,6.679 26.000,7.508 C26.000,7.508 26.000,48.536 26.000,48.536 C26.000,49.365 25.328,50.037 24.500,50.037 ZM9.000,47.035 C9.000,47.035 23.000,47.035 23.000,47.035 C23.000,47.035 23.000,9.009 23.000,9.009 C23.000,9.009 9.000,9.009 9.000,9.009 C9.000,9.009 9.000,47.035 9.000,47.035 Z" id="path-6" class="cls-6" fill-rule="evenodd"/>
    <path d="M52.000,40.030 C52.000,40.030 30.000,40.030 30.000,40.030 C29.172,40.030 28.500,39.358 28.500,38.529 C28.500,37.700 29.172,37.028 30.000,37.028 C30.000,37.028 52.000,37.028 52.000,37.028 C52.828,37.028 53.500,37.700 53.500,38.529 C53.500,39.358 52.828,40.030 52.000,40.030 Z" id="path-7" class="cls-6" fill-rule="evenodd"/>
    <path d="M52.000,30.023 C52.000,30.023 30.000,30.023 30.000,30.023 C29.172,30.023 28.500,29.351 28.500,28.522 C28.500,27.693 29.172,27.021 30.000,27.021 C30.000,27.021 52.000,27.021 52.000,27.021 C52.828,27.021 53.500,27.693 53.500,28.522 C53.500,29.351 52.828,30.023 52.000,30.023 Z" id="path-8" class="cls-6" fill-rule="evenodd"/>
    <path d="M52.000,19.015 C52.000,19.015 30.000,19.015 30.000,19.015 C29.172,19.015 28.500,18.343 28.500,17.514 C28.500,16.686 29.172,16.013 30.000,16.013 C30.000,16.013 52.000,16.013 52.000,16.013 C52.828,16.013 53.500,16.686 53.500,17.514 C53.500,18.343 52.828,19.015 52.000,19.015 Z" id="path-9" class="cls-6" fill-rule="evenodd"/>
    <path d="M38.000,14.012 C38.000,14.012 34.000,14.012 34.000,14.012 C33.172,14.012 32.500,13.340 32.500,12.511 C32.500,11.682 33.172,11.010 34.000,11.010 C34.000,11.010 38.000,11.010 38.000,11.010 C38.828,11.010 39.500,11.682 39.500,12.511 C39.500,13.340 38.828,14.012 38.000,14.012 Z" id="path-10" class="cls-6" fill-rule="evenodd"/>
    <path d="M38.000,25.020 C38.000,25.020 34.000,25.020 34.000,25.020 C33.172,25.020 32.500,24.347 32.500,23.519 C32.500,22.690 33.172,22.018 34.000,22.018 C34.000,22.018 38.000,22.018 38.000,22.018 C38.828,22.018 39.500,22.690 39.500,23.519 C39.500,24.347 38.828,25.020 38.000,25.020 Z" id="path-11" class="cls-6" fill-rule="evenodd"/>
    <path d="M38.000,35.027 C38.000,35.027 34.000,35.027 34.000,35.027 C33.172,35.027 32.500,34.354 32.500,33.526 C32.500,32.697 33.172,32.025 34.000,32.025 C34.000,32.025 38.000,32.025 38.000,32.025 C38.828,32.025 39.500,32.697 39.500,33.526 C39.500,34.354 38.828,35.027 38.000,35.027 Z" id="path-12" class="cls-6" fill-rule="evenodd"/>
    <path d="M38.000,46.034 C38.000,46.034 34.000,46.034 34.000,46.034 C33.172,46.034 32.500,45.362 32.500,44.533 C32.500,43.704 33.172,43.032 34.000,43.032 C34.000,43.032 38.000,43.032 38.000,43.032 C38.828,43.032 39.500,43.704 39.500,44.533 C39.500,45.362 38.828,46.034 38.000,46.034 Z" id="path-13" class="cls-6" fill-rule="evenodd"/>
    <path d="M24.000,23.018 C24.000,23.018 8.000,23.018 8.000,23.018 C7.172,23.018 6.500,22.346 6.500,21.517 C6.500,20.689 7.172,20.016 8.000,20.016 C8.000,20.016 24.000,20.016 24.000,20.016 C24.828,20.016 25.500,20.689 25.500,21.517 C25.500,22.346 24.828,23.018 24.000,23.018 Z" id="path-14" class="cls-6" fill-rule="evenodd"/>
    <path d="M24.000,36.027 C24.000,36.027 8.000,36.027 8.000,36.027 C7.172,36.027 6.500,35.355 6.500,34.526 C6.500,33.698 7.172,33.025 8.000,33.025 C8.000,33.025 24.000,33.025 24.000,33.025 C24.828,33.025 25.500,33.698 25.500,34.526 C25.500,35.355 24.828,36.027 24.000,36.027 Z" id="path-15" class="cls-6" fill-rule="evenodd"/>
  </g>
</svg>
