<svg xmlns="http://www.w3.org/2000/svg" xmlns:xlink="http://www.w3.org/1999/xlink" preserveAspectRatio="xMidYMid" width="65" height="59" viewBox="0 0 65 59">
  <defs>
    <style>

      .cls-3 {
        fill: #edc951;
      }

      .cls-5 {
        fill: #ff917b;
      }

      .cls-6 {
        fill: #81bda4;
      }

      .cls-8 {
        fill: #000000;
      }
    </style>
  </defs>
  <g id="group-21svg">
    <path d="M10.000,57.039 C10.000,57.039 5.000,57.039 5.000,57.039 C5.000,57.039 5.000,51.035 5.000,51.035 C5.000,51.035 10.000,51.035 10.000,51.035 C10.000,51.035 10.000,57.039 10.000,57.039 Z" id="path-1" class="cls-3" fill-rule="evenodd"/>
    <path d="M61.000,57.039 C61.000,57.039 56.000,57.039 56.000,57.039 C56.000,57.039 56.000,51.035 56.000,51.035 C56.000,51.035 61.000,51.035 61.000,51.035 C61.000,51.035 61.000,57.039 61.000,57.039 Z" id="path-2" class="cls-3" fill-rule="evenodd"/>
    <path d="M65.000,41.949 C65.000,41.949 65.000,28.459 65.000,28.459 C65.000,26.257 63.641,24.016 61.441,24.016 C61.441,24.016 57.441,24.016 57.441,24.016 C55.241,24.016 53.000,26.257 53.000,28.459 C53.000,28.459 53.000,41.028 53.000,41.028 C53.000,41.028 17.000,41.028 17.000,41.028 C17.000,41.028 17.000,28.459 17.000,28.459 C17.000,26.257 15.641,24.016 13.441,24.016 C13.441,24.016 9.441,24.016 9.441,24.016 C7.241,24.016 5.000,26.257 5.000,28.459 C5.000,28.459 5.000,41.523 5.000,41.523 C5.000,41.523 5.000,52.036 5.000,52.036 C5.000,52.036 17.464,52.036 17.464,52.036 C17.464,52.036 54.384,52.036 54.384,52.036 C54.384,52.036 65.000,52.036 65.000,52.036 C65.000,52.036 65.000,41.949 65.000,41.949 C65.000,41.949 65.000,41.949 65.000,41.949 Z" id="path-3" class="cls-5" fill-rule="evenodd"/>
    <path d="M17.000,28.087 C17.000,28.087 17.000,41.028 17.000,41.028 C17.000,41.028 53.000,41.028 53.000,41.028 C53.000,41.028 53.000,27.940 53.000,27.940 C53.000,25.738 54.800,23.937 57.000,23.937 C57.000,23.937 57.000,23.937 57.000,23.937 C57.000,23.937 57.000,7.444 57.000,7.444 C57.000,5.243 55.641,3.002 53.441,3.002 C53.441,3.002 16.441,3.002 16.441,3.002 C14.241,3.002 12.000,5.243 12.000,7.444 C12.000,7.444 12.000,24.016 12.000,24.016 C12.000,24.016 13.812,24.016 13.812,24.016 C15.816,24.016 17.000,26.082 17.000,28.087 Z" id="path-4" class="cls-6" fill-rule="evenodd"/>
    <path d="M23.000,27.334 C23.000,27.334 23.000,34.023 23.000,34.023 C23.000,34.023 47.000,34.023 47.000,34.023 C47.000,34.023 47.000,26.833 47.000,26.833 C47.000,24.437 49.000,24.437 49.000,24.437 C49.000,24.437 49.000,14.449 49.000,14.449 C49.000,12.248 47.641,10.007 45.441,10.007 C45.441,10.007 24.441,10.007 24.441,10.007 C22.241,10.007 20.000,12.248 20.000,14.449 C20.000,14.449 20.000,24.437 20.000,24.437 C20.000,24.437 23.000,24.281 23.000,27.334 Z" id="path-5" class="cls-3" fill-rule="evenodd"/>
    <path d="M61.500,52.036 C61.500,52.036 1.500,52.036 1.500,52.036 C0.672,52.036 -0.000,51.363 -0.000,50.535 C-0.000,50.535 -0.000,26.458 -0.000,26.458 C-0.000,23.406 2.391,21.014 5.441,21.014 C5.441,21.014 9.441,21.014 9.441,21.014 C12.507,21.014 15.000,23.456 15.000,26.458 C15.000,26.458 15.000,38.026 15.000,38.026 C15.000,38.026 48.000,38.026 48.000,38.026 C48.000,38.026 48.000,26.458 48.000,26.458 C48.000,23.406 50.391,21.014 53.441,21.014 C53.441,21.014 57.441,21.014 57.441,21.014 C60.507,21.014 63.000,23.456 63.000,26.458 C63.000,26.458 63.000,50.535 63.000,50.535 C63.000,51.363 62.328,52.036 61.500,52.036 ZM3.000,49.034 C3.000,49.034 60.000,49.034 60.000,49.034 C60.000,49.034 60.000,26.458 60.000,26.458 C60.000,25.112 58.852,24.016 57.441,24.016 C57.441,24.016 53.441,24.016 53.441,24.016 C52.072,24.016 51.000,25.088 51.000,26.458 C51.000,26.458 51.000,39.527 51.000,39.527 C51.000,40.356 50.328,41.028 49.500,41.028 C49.500,41.028 13.500,41.028 13.500,41.028 C12.672,41.028 12.000,40.356 12.000,39.527 C12.000,39.527 12.000,26.458 12.000,26.458 C12.000,25.112 10.853,24.016 9.441,24.016 C9.441,24.016 5.441,24.016 5.441,24.016 C4.072,24.016 3.000,25.088 3.000,26.458 C3.000,26.458 3.000,49.034 3.000,49.034 Z" id="path-6" class="cls-8" fill-rule="evenodd"/>
    <path d="M49.500,41.028 C49.500,41.028 13.500,41.028 13.500,41.028 C12.672,41.028 12.000,40.356 12.000,39.527 C12.000,39.527 12.000,26.085 12.000,26.085 C12.000,24.945 11.018,24.016 9.812,24.016 C9.812,24.016 8.500,24.016 8.500,24.016 C7.672,24.016 7.000,23.344 7.000,22.515 C7.000,22.515 7.000,5.443 7.000,5.443 C7.000,2.391 9.391,-0.000 12.441,-0.000 C12.441,-0.000 49.441,-0.000 49.441,-0.000 C52.507,-0.000 55.000,2.442 55.000,5.443 C55.000,5.443 55.000,21.935 55.000,21.935 C55.000,22.764 54.328,23.436 53.500,23.436 C52.121,23.436 51.000,24.558 51.000,25.938 C51.000,25.938 51.000,39.527 51.000,39.527 C51.000,40.356 50.328,41.028 49.500,41.028 ZM15.000,38.026 C15.000,38.026 48.000,38.026 48.000,38.026 C48.000,38.026 48.000,25.938 48.000,25.938 C48.000,23.423 49.694,21.297 52.000,20.642 C52.000,20.642 52.000,5.443 52.000,5.443 C52.000,4.097 50.853,3.002 49.441,3.002 C49.441,3.002 12.441,3.002 12.441,3.002 C11.072,3.002 10.000,4.074 10.000,5.443 C10.000,5.443 10.000,21.017 10.000,21.017 C12.774,21.114 15.000,23.350 15.000,26.085 C15.000,26.085 15.000,38.026 15.000,38.026 Z" id="path-7" class="cls-8" fill-rule="evenodd"/>
    <path d="M43.500,34.023 C43.500,34.023 19.500,34.023 19.500,34.023 C18.672,34.023 18.000,33.351 18.000,32.522 C18.000,32.522 18.000,25.333 18.000,25.333 C18.000,24.951 18.000,23.935 16.573,23.935 C15.744,23.935 15.000,23.264 15.000,22.435 C15.000,22.435 15.000,12.448 15.000,12.448 C15.000,9.396 17.391,7.005 20.441,7.005 C20.441,7.005 41.441,7.005 41.441,7.005 C44.507,7.005 47.000,9.447 47.000,12.448 C47.000,12.448 47.000,22.435 47.000,22.435 C47.000,23.264 46.328,23.936 45.500,23.936 C45.274,23.954 45.000,24.075 45.000,24.832 C45.000,24.832 45.000,32.522 45.000,32.522 C45.000,33.351 44.328,34.023 43.500,34.023 ZM21.000,31.021 C21.000,31.021 42.000,31.021 42.000,31.021 C42.000,31.021 42.000,24.832 42.000,24.832 C42.000,22.905 42.950,21.806 44.000,21.293 C44.000,21.293 44.000,12.448 44.000,12.448 C44.000,11.102 42.852,10.007 41.441,10.007 C41.441,10.007 20.441,10.007 20.441,10.007 C19.072,10.007 18.000,11.079 18.000,12.448 C18.000,12.448 18.000,21.132 18.000,21.132 C19.644,21.609 21.000,22.959 21.000,25.333 C21.000,25.333 21.000,31.021 21.000,31.021 Z" id="path-8" class="cls-8" fill-rule="evenodd"/>
    <path d="M8.500,58.040 C8.500,58.040 3.500,58.040 3.500,58.040 C2.672,58.040 2.000,57.368 2.000,56.539 C2.000,56.539 2.000,50.535 2.000,50.535 C2.000,49.706 2.672,49.034 3.500,49.034 C3.500,49.034 8.500,49.034 8.500,49.034 C9.328,49.034 10.000,49.706 10.000,50.535 C10.000,50.535 10.000,56.539 10.000,56.539 C10.000,57.368 9.328,58.040 8.500,58.040 ZM5.000,55.038 C5.000,55.038 7.000,55.038 7.000,55.038 C7.000,55.038 7.000,52.036 7.000,52.036 C7.000,52.036 5.000,52.036 5.000,52.036 C5.000,52.036 5.000,55.038 5.000,55.038 Z" id="path-9" class="cls-8" fill-rule="evenodd"/>
    <path d="M59.500,58.040 C59.500,58.040 54.500,58.040 54.500,58.040 C53.672,58.040 53.000,57.368 53.000,56.539 C53.000,56.539 53.000,50.535 53.000,50.535 C53.000,49.706 53.672,49.034 54.500,49.034 C54.500,49.034 59.500,49.034 59.500,49.034 C60.328,49.034 61.000,49.706 61.000,50.535 C61.000,50.535 61.000,56.539 61.000,56.539 C61.000,57.368 60.328,58.040 59.500,58.040 ZM56.000,55.038 C56.000,55.038 58.000,55.038 58.000,55.038 C58.000,55.038 58.000,52.036 58.000,52.036 C58.000,52.036 56.000,52.036 56.000,52.036 C56.000,52.036 56.000,55.038 56.000,55.038 Z" id="path-10" class="cls-8" fill-rule="evenodd"/>
  </g>
</svg>
