<svg xmlns="http://www.w3.org/2000/svg" xmlns:xlink="http://www.w3.org/1999/xlink" preserveAspectRatio="xMidYMid" width="51" height="65" viewBox="0 0 51 65">
  <defs>
    <style>

      .cls-3 {
        fill: #99746a;
      }

      .cls-4 {
        fill: #ff917b;
      }

      .cls-7 {
        fill: #000000;
      }
    </style>
  </defs>
  <g id="group-9svg">
    <path d="M51.000,64.052 C51.000,64.052 6.000,64.052 6.000,64.052 C6.000,64.052 6.000,4.010 6.000,4.010 C6.000,4.010 51.000,4.010 51.000,4.010 C51.000,4.010 51.000,64.052 51.000,64.052 Z" id="path-1" class="cls-3" fill-rule="evenodd"/>
    <path d="M41.000,21.022 C41.000,21.022 13.000,21.022 13.000,21.022 C13.000,21.022 13.000,9.014 13.000,9.014 C13.000,9.014 41.000,9.014 41.000,9.014 C41.000,9.014 41.000,21.022 41.000,21.022 Z" id="path-2" class="cls-4" fill-rule="evenodd"/>
    <path d="M41.000,40.035 C41.000,40.035 13.000,40.035 13.000,40.035 C13.000,40.035 13.000,28.027 13.000,28.027 C13.000,28.027 41.000,28.027 41.000,28.027 C41.000,28.027 41.000,40.035 41.000,40.035 Z" id="path-3" class="cls-4" fill-rule="evenodd"/>
    <path d="M41.000,58.048 C41.000,58.048 13.000,58.048 13.000,58.048 C13.000,58.048 13.000,46.039 13.000,46.039 C13.000,46.039 41.000,46.039 41.000,46.039 C41.000,46.039 41.000,58.048 41.000,58.048 Z" id="path-4" class="cls-4" fill-rule="evenodd"/>
    <path d="M36.500,20.021 C36.500,20.021 8.500,20.021 8.500,20.021 C7.671,20.021 7.000,19.349 7.000,18.520 C7.000,18.520 7.000,6.512 7.000,6.512 C7.000,5.683 7.671,5.011 8.500,5.011 C8.500,5.011 36.500,5.011 36.500,5.011 C37.329,5.011 38.000,5.683 38.000,6.512 C38.000,6.512 38.000,18.520 38.000,18.520 C38.000,19.349 37.329,20.021 36.500,20.021 ZM10.000,17.019 C10.000,17.019 35.000,17.019 35.000,17.019 C35.000,17.019 35.000,8.013 35.000,8.013 C35.000,8.013 10.000,8.013 10.000,8.013 C10.000,8.013 10.000,17.019 10.000,17.019 Z" id="path-5" class="cls-7" fill-rule="evenodd"/>
    <path d="M36.500,39.035 C36.500,39.035 8.500,39.035 8.500,39.035 C7.671,39.035 7.000,38.362 7.000,37.534 C7.000,37.534 7.000,25.525 7.000,25.525 C7.000,24.697 7.671,24.024 8.500,24.024 C8.500,24.024 36.500,24.024 36.500,24.024 C37.329,24.024 38.000,24.697 38.000,25.525 C38.000,25.525 38.000,37.534 38.000,37.534 C38.000,38.362 37.329,39.035 36.500,39.035 ZM10.000,36.033 C10.000,36.033 35.000,36.033 35.000,36.033 C35.000,36.033 35.000,27.026 35.000,27.026 C35.000,27.026 10.000,27.026 10.000,27.026 C10.000,27.026 10.000,36.033 10.000,36.033 Z" id="path-6" class="cls-7" fill-rule="evenodd"/>
    <path d="M36.500,57.047 C36.500,57.047 8.500,57.047 8.500,57.047 C7.671,57.047 7.000,56.375 7.000,55.546 C7.000,55.546 7.000,43.538 7.000,43.538 C7.000,42.709 7.671,42.037 8.500,42.037 C8.500,42.037 36.500,42.037 36.500,42.037 C37.329,42.037 38.000,42.709 38.000,43.538 C38.000,43.538 38.000,55.546 38.000,55.546 C38.000,56.375 37.329,57.047 36.500,57.047 ZM10.000,54.045 C10.000,54.045 35.000,54.045 35.000,54.045 C35.000,54.045 35.000,45.039 35.000,45.039 C35.000,45.039 10.000,45.039 10.000,45.039 C10.000,45.039 10.000,54.045 10.000,54.045 Z" id="path-7" class="cls-7" fill-rule="evenodd"/>
    <path d="M46.500,63.051 C46.500,63.051 1.500,63.051 1.500,63.051 C0.671,63.051 -0.000,62.379 -0.000,61.550 C-0.000,61.550 -0.000,1.509 -0.000,1.509 C-0.000,0.680 0.671,0.008 1.500,0.008 C1.500,0.008 46.500,0.008 46.500,0.008 C47.329,0.008 48.000,0.680 48.000,1.509 C48.000,1.509 48.000,61.550 48.000,61.550 C48.000,62.379 47.329,63.051 46.500,63.051 ZM3.000,60.049 C3.000,60.049 45.000,60.049 45.000,60.049 C45.000,60.049 45.000,3.010 45.000,3.010 C45.000,3.010 3.000,3.010 3.000,3.010 C3.000,3.010 3.000,60.049 3.000,60.049 Z" id="path-8" class="cls-7" fill-rule="evenodd"/>
    <path d="M44.635,31.907 C44.635,33.013 43.739,33.909 42.635,33.909 C41.530,33.909 40.635,33.013 40.635,31.907 C40.635,30.802 41.530,29.906 42.635,29.906 C43.739,29.906 44.635,30.802 44.635,31.907 Z" id="path-9" class="cls-7" fill-rule="evenodd"/>
  </g>
</svg>
