<svg xmlns="http://www.w3.org/2000/svg" xmlns:xlink="http://www.w3.org/1999/xlink" preserveAspectRatio="xMidYMid" width="63" height="54" viewBox="0 0 63 54">
  <defs>
    <style>

      .cls-3 {
        fill: #99746a;
      }

      .cls-4 {
        fill: #ff917b;
      }

      .cls-6 {
        fill: #81bda4;
      }

      .cls-8 {
        fill: #000000;
      }
    </style>
  </defs>
  <g id="group-29svg">
    <path d="M33.000,32.023 C33.000,32.023 33.000,11.930 33.000,11.930 C33.000,11.930 33.000,4.004 33.000,4.004 C33.000,4.004 5.000,4.004 5.000,4.004 C5.000,4.004 5.000,49.035 5.000,49.035 C5.000,49.035 32.000,49.035 32.000,49.035 C32.000,49.035 32.000,49.035 32.000,49.035 " id="path-1" class="cls-3" fill-rule="evenodd"/>
    <path d="M12.000,46.229 C12.000,46.229 12.000,49.035 12.000,49.035 C12.000,49.035 63.000,49.035 63.000,49.035 C63.000,49.035 63.000,46.229 63.000,46.229 C63.000,43.040 61.642,40.029 58.455,40.029 C58.455,40.029 18.824,40.029 18.824,40.029 C15.637,40.029 12.000,43.040 12.000,46.229 Z" id="path-2" class="cls-4" fill-rule="evenodd"/>
    <path d="M59.000,36.836 C59.000,35.283 57.742,34.025 56.191,34.025 C56.191,34.025 19.809,34.025 19.809,34.025 C18.258,34.025 17.000,35.283 17.000,36.836 C17.000,36.836 17.000,37.218 17.000,37.218 C17.000,38.770 18.258,40.029 19.809,40.029 C19.809,40.029 56.191,40.029 56.191,40.029 C57.742,40.029 59.000,38.770 59.000,37.218 C59.000,37.218 59.000,36.836 59.000,36.836 Z" id="path-3" class="cls-4" fill-rule="evenodd"/>
    <path d="M22.000,34.025 C22.000,34.025 22.000,9.007 22.000,9.007 C22.000,9.007 29.000,9.007 29.000,9.007 C29.000,9.007 29.000,34.025 29.000,34.025 C29.000,34.025 22.000,34.025 22.000,34.025 Z" id="path-4" class="cls-6" fill-rule="evenodd"/>
    <path d="M9.000,34.025 C9.000,34.025 9.000,9.007 9.000,9.007 C9.000,9.007 16.000,9.007 16.000,9.007 C16.000,9.007 16.000,34.025 16.000,34.025 C16.000,34.025 9.000,34.025 9.000,34.025 Z" id="path-5" class="cls-6" fill-rule="evenodd"/>
    <path d="M57.500,53.538 C56.671,53.538 56.000,52.866 56.000,52.037 C56.000,52.037 56.000,47.034 56.000,47.034 C56.000,46.205 56.671,45.533 57.500,45.533 C58.329,45.533 59.000,46.205 59.000,47.034 C59.000,47.034 59.000,52.037 59.000,52.037 C59.000,52.866 58.329,53.538 57.500,53.538 Z" id="path-6" class="cls-8" fill-rule="evenodd"/>
    <path d="M10.500,53.538 C9.671,53.538 9.000,52.866 9.000,52.037 C9.000,52.037 9.000,47.034 9.000,47.034 C9.000,46.205 9.671,45.533 10.500,45.533 C11.329,45.533 12.000,46.205 12.000,47.034 C12.000,47.034 12.000,52.037 12.000,52.037 C12.000,52.866 11.329,53.538 10.500,53.538 Z" id="path-7" class="cls-8" fill-rule="evenodd"/>
    <path d="M59.500,48.034 C59.500,48.034 8.500,48.034 8.500,48.034 C7.671,48.034 7.000,47.362 7.000,46.533 C7.000,46.533 7.000,44.228 7.000,44.228 C7.000,40.088 10.875,36.026 14.824,36.026 C14.824,36.026 54.455,36.026 54.455,36.026 C58.552,36.026 61.000,40.196 61.000,44.228 C61.000,44.228 61.000,46.533 61.000,46.533 C61.000,47.362 60.329,48.034 59.500,48.034 ZM10.000,45.032 C10.000,45.032 58.000,45.032 58.000,45.032 C58.000,45.032 58.000,44.228 58.000,44.228 C58.000,41.727 56.645,39.028 54.455,39.028 C54.455,39.028 14.824,39.028 14.824,39.028 C12.570,39.028 10.000,41.799 10.000,44.228 C10.000,44.228 10.000,45.032 10.000,45.032 Z" id="path-8" class="cls-8" fill-rule="evenodd"/>
    <path d="M52.691,39.028 C52.691,39.028 16.309,39.028 16.309,39.028 C13.933,39.028 12.000,37.093 12.000,34.716 C12.000,34.716 12.000,34.334 12.000,34.334 C12.000,31.957 13.933,30.022 16.309,30.022 C16.309,30.022 52.691,30.022 52.691,30.022 C55.067,30.022 57.000,31.957 57.000,34.334 C57.000,34.334 57.000,34.716 57.000,34.716 C57.000,37.093 55.067,39.028 52.691,39.028 ZM16.309,33.024 C15.587,33.024 15.000,33.612 15.000,34.334 C15.000,34.334 15.000,34.716 15.000,34.716 C15.000,35.438 15.587,36.026 16.309,36.026 C16.309,36.026 52.691,36.026 52.691,36.026 C53.413,36.026 54.000,35.438 54.000,34.716 C54.000,34.716 54.000,34.334 54.000,34.334 C54.000,33.612 53.413,33.024 52.691,33.024 C52.691,33.024 16.309,33.024 16.309,33.024 Z" id="path-9" class="cls-8" fill-rule="evenodd"/>
    <path d="M28.000,48.034 C28.000,48.034 1.500,48.034 1.500,48.034 C0.671,48.034 -0.000,47.362 -0.000,46.533 C-0.000,46.533 -0.000,1.502 -0.000,1.502 C-0.000,0.674 0.671,0.001 1.500,0.001 C1.500,0.001 29.500,0.001 29.500,0.001 C30.329,0.001 31.000,0.674 31.000,1.502 C31.000,1.502 31.000,30.022 31.000,30.022 C31.000,30.851 30.329,31.523 29.500,31.523 C28.671,31.523 28.000,30.851 28.000,30.022 C28.000,30.022 28.000,3.003 28.000,3.003 C28.000,3.003 3.000,3.003 3.000,3.003 C3.000,3.003 3.000,45.032 3.000,45.032 C3.000,45.032 28.000,45.032 28.000,45.032 C28.829,45.032 29.500,45.705 29.500,46.533 C29.500,47.362 28.829,48.034 28.000,48.034 Z" id="path-10" class="cls-8" fill-rule="evenodd"/>
    <path d="M25.500,33.024 C25.500,33.024 18.500,33.024 18.500,33.024 C17.671,33.024 17.000,32.352 17.000,31.523 C17.000,31.523 17.000,6.506 17.000,6.506 C17.000,5.677 17.671,5.005 18.500,5.005 C18.500,5.005 25.500,5.005 25.500,5.005 C26.329,5.005 27.000,5.677 27.000,6.506 C27.000,6.506 27.000,31.523 27.000,31.523 C27.000,32.352 26.329,33.024 25.500,33.024 ZM20.000,30.022 C20.000,30.022 24.000,30.022 24.000,30.022 C24.000,30.022 24.000,8.007 24.000,8.007 C24.000,8.007 20.000,8.007 20.000,8.007 C20.000,8.007 20.000,30.022 20.000,30.022 Z" id="path-11" class="cls-8" fill-rule="evenodd"/>
    <path d="M12.500,33.024 C12.500,33.024 5.500,33.024 5.500,33.024 C4.671,33.024 4.000,32.352 4.000,31.523 C4.000,31.523 4.000,6.506 4.000,6.506 C4.000,5.677 4.671,5.005 5.500,5.005 C5.500,5.005 12.500,5.005 12.500,5.005 C13.329,5.005 14.000,5.677 14.000,6.506 C14.000,6.506 14.000,31.523 14.000,31.523 C14.000,32.352 13.329,33.024 12.500,33.024 ZM7.000,30.022 C7.000,30.022 11.000,30.022 11.000,30.022 C11.000,30.022 11.000,8.007 11.000,8.007 C11.000,8.007 7.000,8.007 7.000,8.007 C7.000,8.007 7.000,30.022 7.000,30.022 Z" id="path-12" class="cls-8" fill-rule="evenodd"/>
    <path d="M21.000,22.016 C21.000,22.016 20.000,22.016 20.000,22.016 C19.171,22.016 18.500,21.344 18.500,20.515 C18.500,19.687 19.171,19.014 20.000,19.014 C20.000,19.014 21.000,19.014 21.000,19.014 C21.829,19.014 22.500,19.687 22.500,20.515 C22.500,21.344 21.829,22.016 21.000,22.016 Z" id="path-13" class="cls-8" fill-rule="evenodd"/>
    <path d="M11.000,22.016 C11.000,22.016 10.000,22.016 10.000,22.016 C9.171,22.016 8.500,21.344 8.500,20.515 C8.500,19.687 9.171,19.014 10.000,19.014 C10.000,19.014 11.000,19.014 11.000,19.014 C11.829,19.014 12.500,19.687 12.500,20.515 C12.500,21.344 11.829,22.016 11.000,22.016 Z" id="path-14" class="cls-8" fill-rule="evenodd"/>
  </g>
</svg>
