<svg xmlns="http://www.w3.org/2000/svg" xmlns:xlink="http://www.w3.org/1999/xlink" preserveAspectRatio="xMidYMid" width="60" height="67" viewBox="0 0 60 67">
  <defs>
    <style>

      .cls-3 {
        fill: #edc951;
      }

      .cls-4 {
        fill: #e56a77;
      }

      .cls-5 {
        fill: #53ecf4;
      }

      .cls-6 {
        fill: #000000;
      }
    </style>
  </defs>
  <g id="group-19svg">
    <path d="M11.967,24.018 C8.516,24.018 5.000,27.296 5.000,30.749 C5.000,30.749 5.000,66.047 5.000,66.047 C5.000,66.047 10.000,66.047 10.000,66.047 C10.000,66.047 10.000,61.044 10.000,61.044 C10.000,61.044 55.000,61.044 55.000,61.044 C55.000,61.044 55.000,66.047 55.000,66.047 C55.000,66.047 60.000,66.047 60.000,66.047 C60.000,66.047 60.000,30.749 60.000,30.749 C60.000,27.296 58.110,24.018 54.660,24.018 C54.660,24.018 11.967,24.018 11.967,24.018 Z" id="path-1" class="cls-3" fill-rule="evenodd"/>
    <path d="M11.000,37.001 C11.000,37.001 11.000,55.040 11.000,55.040 C11.000,55.040 54.000,55.040 54.000,55.040 C54.000,55.040 54.000,37.001 54.000,37.001 C54.000,34.123 52.329,32.024 49.453,32.024 C49.453,32.024 17.173,32.024 17.173,32.024 C14.298,32.024 11.000,34.123 11.000,37.001 Z" id="path-2" class="cls-4" fill-rule="evenodd"/>
    <path d="M45.000,19.015 C45.000,19.015 33.033,19.015 33.033,19.015 C33.033,19.015 18.000,19.015 18.000,19.015 C18.000,19.015 18.000,5.005 18.000,5.005 C18.000,5.005 45.000,5.005 45.000,5.005 C45.000,5.005 45.000,19.015 45.000,19.015 Z" id="path-3" class="cls-5" fill-rule="evenodd"/>
    <path d="M56.500,65.047 C56.500,65.047 51.500,65.047 51.500,65.047 C50.672,65.047 50.000,64.374 50.000,63.546 C50.000,63.546 50.000,60.043 50.000,60.043 C50.000,60.043 8.000,60.043 8.000,60.043 C8.000,60.043 8.000,63.546 8.000,63.546 C8.000,64.374 7.328,65.047 6.500,65.047 C6.500,65.047 1.500,65.047 1.500,65.047 C0.672,65.047 -0.000,64.374 -0.000,63.546 C-0.000,63.546 -0.000,28.665 -0.000,28.665 C-0.000,24.582 3.337,20.015 7.802,20.015 C7.802,20.015 50.495,20.015 50.495,20.015 C54.918,20.015 58.000,24.574 58.000,28.665 C58.000,28.665 58.000,63.546 58.000,63.546 C58.000,64.374 57.328,65.047 56.500,65.047 ZM53.000,62.045 C53.000,62.045 55.000,62.045 55.000,62.045 C55.000,62.045 55.000,28.665 55.000,28.665 C55.000,25.999 53.073,23.018 50.495,23.018 C50.495,23.018 7.802,23.018 7.802,23.018 C5.142,23.018 3.000,26.107 3.000,28.665 C3.000,28.665 3.000,62.045 3.000,62.045 C3.000,62.045 5.000,62.045 5.000,62.045 C5.000,62.045 5.000,58.542 5.000,58.542 C5.000,57.713 5.672,57.041 6.500,57.041 C6.500,57.041 51.500,57.041 51.500,57.041 C52.328,57.041 53.000,57.713 53.000,58.542 C53.000,58.542 53.000,62.045 53.000,62.045 Z" id="path-4" class="cls-6" fill-rule="evenodd"/>
    <path d="M50.500,53.038 C50.500,53.038 7.500,53.038 7.500,53.038 C6.672,53.038 6.000,52.366 6.000,51.537 C6.000,51.537 6.000,34.916 6.000,34.916 C6.000,31.243 9.274,28.021 13.008,28.021 C13.008,28.021 45.288,28.021 45.288,28.021 C48.927,28.021 52.000,31.178 52.000,34.916 C52.000,34.916 52.000,51.537 52.000,51.537 C52.000,52.366 51.328,53.038 50.500,53.038 ZM9.000,50.036 C9.000,50.036 49.000,50.036 49.000,50.036 C49.000,50.036 49.000,34.916 49.000,34.916 C49.000,32.806 47.300,31.023 45.288,31.023 C45.288,31.023 13.008,31.023 13.008,31.023 C10.947,31.023 9.000,32.915 9.000,34.916 C9.000,34.916 9.000,50.036 9.000,50.036 Z" id="path-5" class="cls-6" fill-rule="evenodd"/>
    <path d="M50.000,43.031 C50.000,43.031 8.000,43.031 8.000,43.031 C7.172,43.031 6.500,42.359 6.500,41.530 C6.500,40.702 7.172,40.029 8.000,40.029 C8.000,40.029 50.000,40.029 50.000,40.029 C50.828,40.029 51.500,40.702 51.500,41.530 C51.500,42.359 50.828,43.031 50.000,43.031 Z" id="path-6" class="cls-6" fill-rule="evenodd"/>
    <path d="M29.278,39.559 C26.346,39.559 24.134,37.977 24.134,35.879 C24.134,35.050 24.806,34.378 25.634,34.378 C26.462,34.378 27.134,35.050 27.134,35.879 C27.212,36.036 27.978,36.557 29.278,36.557 C30.578,36.557 31.345,36.036 31.431,35.829 C31.431,35.000 32.099,34.354 32.927,34.354 C33.755,34.354 34.423,35.050 34.423,35.879 C34.423,37.977 32.211,39.559 29.278,39.559 Z" id="path-7" class="cls-6" fill-rule="evenodd"/>
    <path d="M29.278,49.980 C26.346,49.980 24.134,48.397 24.134,46.299 C24.134,45.471 24.806,44.798 25.634,44.798 C26.462,44.798 27.134,45.471 27.134,46.299 C27.212,46.457 27.978,46.977 29.278,46.977 C30.578,46.977 31.345,46.457 31.431,46.249 C31.431,45.421 32.099,44.774 32.927,44.774 C33.755,44.774 34.423,45.471 34.423,46.299 C34.423,48.397 32.211,49.980 29.278,49.980 Z" id="path-8" class="cls-6" fill-rule="evenodd"/>
    <path d="M41.500,18.014 C41.500,18.014 14.500,18.014 14.500,18.014 C13.672,18.014 13.000,17.342 13.000,16.513 C13.000,16.513 13.000,1.503 13.000,1.503 C13.000,0.674 13.672,0.002 14.500,0.002 C14.500,0.002 41.500,0.002 41.500,0.002 C42.328,0.002 43.000,0.674 43.000,1.503 C43.000,1.503 43.000,16.513 43.000,16.513 C43.000,17.342 42.328,18.014 41.500,18.014 ZM16.000,15.012 C16.000,15.012 40.000,15.012 40.000,15.012 C40.000,15.012 40.000,3.004 40.000,3.004 C40.000,3.004 16.000,3.004 16.000,3.004 C16.000,3.004 16.000,15.012 16.000,15.012 Z" id="path-9" class="cls-6" fill-rule="evenodd"/>
    <path d="M28.500,22.517 C27.672,22.517 27.000,21.845 27.000,21.016 C27.000,21.016 27.000,17.013 27.000,17.013 C27.000,16.185 27.672,15.512 28.500,15.512 C29.328,15.512 30.000,16.185 30.000,17.013 C30.000,17.013 30.000,21.016 30.000,21.016 C30.000,21.845 29.328,22.517 28.500,22.517 Z" id="path-10" class="cls-6" fill-rule="evenodd"/>
    <path d="M41.000,7.007 C41.000,7.007 15.000,7.007 15.000,7.007 C14.447,7.007 14.000,6.559 14.000,6.006 C14.000,5.453 14.447,5.005 15.000,5.005 C15.000,5.005 41.000,5.005 41.000,5.005 C41.553,5.005 42.000,5.453 42.000,6.006 C42.000,6.559 41.553,7.007 41.000,7.007 Z" id="path-11" class="cls-6" fill-rule="evenodd"/>
    <path d="M41.000,14.011 C41.000,14.011 15.000,14.011 15.000,14.011 C14.447,14.011 14.000,13.564 14.000,13.011 C14.000,12.458 14.447,12.010 15.000,12.010 C15.000,12.010 41.000,12.010 41.000,12.010 C41.553,12.010 42.000,12.458 42.000,13.011 C42.000,13.564 41.553,14.011 41.000,14.011 Z" id="path-12" class="cls-6" fill-rule="evenodd"/>
  </g>
</svg>
