<svg xmlns="http://www.w3.org/2000/svg" xmlns:xlink="http://www.w3.org/1999/xlink" preserveAspectRatio="xMidYMid" width="66" height="39" viewBox="0 0 66 39">
  <defs>
    <style>

      .cls-3 {
        fill: #ff917b;
      }

      .cls-4 {
        fill: #81bda4;
      }

      .cls-6 {
        fill: #000000;
      }
    </style>
  </defs>
  <g id="group-30svg">
    <path d="M15.125,4.829 C12.064,2.246 6.811,3.547 5.705,7.398 C5.530,8.009 5.000,8.653 5.000,9.320 C5.000,9.320 5.000,34.280 5.000,34.280 C5.000,34.280 66.000,34.280 66.000,34.280 C66.000,34.280 66.000,9.320 66.000,9.320 C66.000,9.282 66.000,9.243 66.000,9.205 C66.000,4.522 60.716,2.164 57.196,5.252 C54.191,7.889 48.262,11.396 36.821,11.396 C24.756,11.396 18.288,7.496 15.125,4.829 Z" id="path-1" class="cls-3" fill-rule="evenodd"/>
    <path d="M5.000,31.185 C5.000,31.185 5.000,34.280 5.000,34.280 C5.000,34.280 66.000,34.280 66.000,34.280 C66.000,34.280 66.000,31.185 66.000,31.185 C66.000,27.996 64.455,25.274 61.267,25.274 C61.267,25.274 11.637,25.274 11.637,25.274 C8.450,25.274 5.000,27.996 5.000,31.185 Z" id="path-2" class="cls-4" fill-rule="evenodd"/>
    <path d="M62.000,22.081 C62.000,20.529 60.742,19.270 59.191,19.270 C59.191,19.270 12.809,19.270 12.809,19.270 C11.258,19.270 10.000,20.529 10.000,22.081 C10.000,22.081 10.000,22.463 10.000,22.463 C10.000,24.015 11.258,25.274 12.809,25.274 C12.809,25.274 59.191,25.274 59.191,25.274 C60.742,25.274 62.000,24.015 62.000,22.463 C62.000,22.463 62.000,22.081 62.000,22.081 Z" id="path-3" class="cls-4" fill-rule="evenodd"/>
    <path d="M62.500,33.280 C62.500,33.280 1.500,33.280 1.500,33.280 C0.671,33.280 -0.000,32.607 -0.000,31.779 C-0.000,31.779 -0.000,7.318 -0.000,7.318 C-0.000,6.578 0.214,5.918 0.387,5.387 C0.431,5.250 0.475,5.116 0.514,4.982 C1.372,1.993 4.141,-0.015 7.403,-0.015 C9.131,-0.015 10.796,0.587 12.092,1.681 C15.453,4.515 21.800,7.894 32.946,7.894 C43.637,7.894 49.457,4.755 52.457,2.122 C53.775,0.966 55.377,0.355 57.091,0.355 C60.487,0.355 64.000,2.917 64.000,7.204 C64.000,7.204 64.000,31.779 64.000,31.779 C64.000,32.607 63.329,33.280 62.500,33.280 ZM3.000,30.277 C3.000,30.277 61.000,30.277 61.000,30.277 C61.000,30.277 61.000,7.204 61.000,7.204 C61.000,4.796 59.012,3.358 57.091,3.358 C56.116,3.358 55.197,3.710 54.435,4.380 C51.048,7.352 44.570,10.896 32.946,10.896 C20.894,10.896 13.902,7.133 10.159,3.975 C9.190,3.158 8.125,2.987 7.403,2.987 C5.813,2.987 3.958,3.860 3.396,5.811 C3.349,5.977 3.295,6.146 3.240,6.316 C3.116,6.695 3.000,7.052 3.000,7.318 C3.000,7.318 3.000,30.277 3.000,30.277 Z" id="path-4" class="cls-6" fill-rule="evenodd"/>
    <path d="M62.500,33.280 C62.500,33.280 1.500,33.280 1.500,33.280 C0.671,33.280 -0.000,32.607 -0.000,31.779 C-0.000,31.779 -0.000,29.184 -0.000,29.184 C-0.000,25.117 3.711,21.271 7.637,21.271 C7.637,21.271 57.268,21.271 57.268,21.271 C61.426,21.271 64.000,25.379 64.000,29.184 C64.000,29.184 64.000,31.779 64.000,31.779 C64.000,32.607 63.329,33.280 62.500,33.280 ZM3.000,30.277 C3.000,30.277 61.000,30.277 61.000,30.277 C61.000,30.277 61.000,29.184 61.000,29.184 C61.000,26.822 59.573,24.273 57.268,24.273 C57.268,24.273 7.637,24.273 7.637,24.273 C5.340,24.273 3.000,26.752 3.000,29.184 C3.000,29.184 3.000,30.277 3.000,30.277 Z" id="path-5" class="cls-6" fill-rule="evenodd"/>
    <path d="M60.500,38.783 C59.671,38.783 59.000,38.111 59.000,37.282 C59.000,37.282 59.000,32.279 59.000,32.279 C59.000,31.450 59.671,30.778 60.500,30.778 C61.329,30.778 62.000,31.450 62.000,32.279 C62.000,32.279 62.000,37.282 62.000,37.282 C62.000,38.111 61.329,38.783 60.500,38.783 Z" id="path-6" class="cls-6" fill-rule="evenodd"/>
    <path d="M3.500,38.783 C2.671,38.783 2.000,38.111 2.000,37.282 C2.000,37.282 2.000,32.279 2.000,32.279 C2.000,31.450 2.671,30.778 3.500,30.778 C4.329,30.778 5.000,31.450 5.000,32.279 C5.000,32.279 5.000,37.282 5.000,37.282 C5.000,38.111 4.329,38.783 3.500,38.783 Z" id="path-7" class="cls-6" fill-rule="evenodd"/>
    <path d="M55.691,24.273 C55.691,24.273 9.309,24.273 9.309,24.273 C6.933,24.273 5.000,22.338 5.000,19.961 C5.000,19.961 5.000,19.580 5.000,19.580 C5.000,17.202 6.933,15.267 9.309,15.267 C9.309,15.267 55.691,15.267 55.691,15.267 C58.067,15.267 60.000,17.202 60.000,19.580 C60.000,19.580 60.000,19.961 60.000,19.961 C60.000,22.338 58.067,24.273 55.691,24.273 ZM9.309,18.269 C8.587,18.269 8.000,18.857 8.000,19.580 C8.000,19.580 8.000,19.961 8.000,19.961 C8.000,20.683 8.587,21.271 9.309,21.271 C9.309,21.271 55.691,21.271 55.691,21.271 C56.413,21.271 57.000,20.683 57.000,19.961 C57.000,19.961 57.000,19.580 57.000,19.580 C57.000,18.857 56.413,18.269 55.691,18.269 C55.691,18.269 9.309,18.269 9.309,18.269 Z" id="path-8" class="cls-6" fill-rule="evenodd"/>
  </g>
</svg>
