<svg xmlns="http://www.w3.org/2000/svg" xmlns:xlink="http://www.w3.org/1999/xlink" preserveAspectRatio="xMidYMid" width="43" height="64" viewBox="0 0 43 64">
  <defs>
    <style>

      .cls-3 {
        fill: #edc951;
      }

      .cls-4 {
        fill: #e56a77;
      }

      .cls-6 {
        fill: #000000;
      }
    </style>
  </defs>
  <g id="group-22svg">
    <path d="M41.000,40.025 C41.000,40.025 9.000,40.025 9.000,40.025 C9.000,40.025 9.000,37.954 9.000,37.954 C9.000,35.743 10.676,34.021 12.885,34.021 C12.885,34.021 36.885,34.021 36.885,34.021 C39.094,34.021 41.000,35.743 41.000,37.954 C41.000,37.954 41.000,40.025 41.000,40.025 Z" id="path-1" class="cls-3" fill-rule="evenodd"/>
    <path d="M24.942,34.021 C24.942,34.021 24.971,34.021 24.971,34.021 C17.791,34.021 12.000,28.127 12.000,20.942 C12.000,20.942 12.000,6.932 12.000,6.932 C12.000,4.722 13.676,3.000 15.885,3.000 C15.885,3.000 33.885,3.000 33.885,3.000 C36.094,3.000 38.000,4.722 38.000,6.932 C38.000,6.932 38.000,20.942 38.000,20.942 C38.000,28.127 32.122,34.021 24.942,34.021 Z" id="path-2" class="cls-4" fill-rule="evenodd"/>
    <path d="M28.000,46.030 C28.000,46.030 22.000,46.030 22.000,46.030 C22.000,46.030 22.000,40.025 22.000,40.025 C22.000,40.025 28.000,40.025 28.000,40.025 C28.000,40.025 28.000,46.030 28.000,46.030 Z" id="path-3" class="cls-4" fill-rule="evenodd"/>
    <path d="M37.500,40.025 C37.500,40.025 5.500,40.025 5.500,40.025 C4.672,40.025 4.000,39.353 4.000,38.524 C4.000,38.524 4.000,36.953 4.000,36.953 C4.000,33.903 6.860,31.019 9.885,31.019 C9.885,31.019 33.885,31.019 33.885,31.019 C37.087,31.019 39.000,34.036 39.000,36.953 C39.000,36.953 39.000,38.524 39.000,38.524 C39.000,39.353 38.328,40.025 37.500,40.025 ZM7.000,37.023 C7.000,37.023 36.000,37.023 36.000,37.023 C36.000,37.023 36.000,36.953 36.000,36.953 C36.000,35.543 35.191,34.021 33.885,34.021 C33.885,34.021 9.885,34.021 9.885,34.021 C8.510,34.021 7.000,35.556 7.000,36.953 C7.000,36.953 7.000,37.023 7.000,37.023 Z" id="path-4" class="cls-6" fill-rule="evenodd"/>
    <path d="M21.692,34.021 C21.692,34.021 21.596,34.021 21.596,34.021 C13.411,34.021 7.000,27.836 7.000,19.941 C7.000,19.941 7.000,5.932 7.000,5.932 C7.000,2.882 9.860,-0.002 12.885,-0.002 C12.885,-0.002 30.885,-0.002 30.885,-0.002 C34.087,-0.002 36.000,3.014 36.000,5.932 C36.000,5.932 36.000,19.941 36.000,19.941 C36.000,27.836 29.716,34.021 21.692,34.021 ZM12.885,3.000 C11.510,3.000 10.000,4.534 10.000,5.932 C10.000,5.932 10.000,19.941 10.000,19.941 C10.000,26.154 15.094,31.019 21.596,31.019 C21.596,31.019 21.692,31.019 21.692,31.019 C28.139,31.019 33.000,26.257 33.000,19.941 C33.000,19.941 33.000,5.932 33.000,5.932 C33.000,4.521 32.191,3.000 30.885,3.000 C30.885,3.000 12.885,3.000 12.885,3.000 Z" id="path-5" class="cls-6" fill-rule="evenodd"/>
    <path d="M5.678,40.491 C5.600,40.491 5.520,40.484 5.440,40.471 C2.427,40.392 -0.000,37.946 -0.000,34.952 C-0.000,34.952 -0.000,30.019 -0.000,30.019 C-0.000,29.190 0.672,28.517 1.500,28.517 C2.328,28.517 3.000,29.190 3.000,30.019 C3.000,30.019 3.000,34.952 3.000,34.952 C3.000,36.317 4.186,37.471 5.591,37.471 C5.687,37.471 5.782,37.480 5.876,37.498 C6.689,37.656 7.267,38.452 7.109,39.266 C6.970,39.984 6.375,40.491 5.678,40.491 Z" id="path-6" class="cls-6" fill-rule="evenodd"/>
    <path d="M37.678,40.491 C37.586,40.491 37.492,40.482 37.396,40.463 C37.396,40.463 37.306,40.446 37.306,40.446 C36.547,40.299 36.023,39.598 36.098,38.828 C36.172,38.058 36.817,37.471 37.591,37.471 C38.941,37.471 40.000,36.365 40.000,34.952 C40.000,34.952 40.000,30.019 40.000,30.019 C40.000,29.190 40.672,28.517 41.500,28.517 C42.328,28.517 43.000,29.190 43.000,30.019 C43.000,30.019 43.000,34.952 43.000,34.952 C43.000,37.918 40.820,40.268 37.971,40.460 C37.876,40.480 37.778,40.491 37.678,40.491 Z" id="path-7" class="cls-6" fill-rule="evenodd"/>
    <path d="M21.864,16.560 C20.896,16.560 19.987,16.183 19.304,15.499 C18.619,14.815 18.242,13.905 18.242,12.936 C18.242,11.968 18.619,11.058 19.305,10.373 C20.670,9.008 23.057,9.005 24.424,10.373 C25.837,11.787 25.837,14.086 24.425,15.499 C23.740,16.184 22.831,16.560 21.864,16.560 ZM21.864,12.315 C21.768,12.315 21.583,12.338 21.425,12.497 C21.266,12.656 21.242,12.841 21.242,12.936 C21.242,13.032 21.266,13.217 21.424,13.375 C21.583,13.534 21.768,13.558 21.864,13.558 C21.960,13.558 22.145,13.534 22.305,13.375 C22.546,13.134 22.546,12.739 22.304,12.497 C22.145,12.338 21.960,12.315 21.864,12.315 Z" id="path-8" class="cls-6" fill-rule="evenodd"/>
    <path d="M25.500,46.030 C25.500,46.030 18.500,46.030 18.500,46.030 C17.672,46.030 17.000,45.357 17.000,44.529 C17.000,44.529 17.000,38.524 17.000,38.524 C17.000,37.696 17.672,37.023 18.500,37.023 C18.500,37.023 25.500,37.023 25.500,37.023 C26.328,37.023 27.000,37.696 27.000,38.524 C27.000,38.524 27.000,44.529 27.000,44.529 C27.000,45.357 26.328,46.030 25.500,46.030 ZM20.000,43.027 C20.000,43.027 24.000,43.027 24.000,43.027 C24.000,43.027 24.000,40.025 24.000,40.025 C24.000,40.025 20.000,40.025 20.000,40.025 C20.000,40.025 20.000,43.027 20.000,43.027 Z" id="path-9" class="cls-6" fill-rule="evenodd"/>
    <path d="M40.500,63.542 C39.672,63.542 39.000,62.869 39.000,62.041 C39.000,62.041 39.000,59.365 39.000,59.365 C39.000,59.365 22.044,53.944 22.044,53.944 C21.422,53.746 21.000,53.167 21.000,52.515 C21.000,52.515 21.000,45.029 21.000,45.029 C21.000,44.200 21.672,43.528 22.500,43.528 C23.328,43.528 24.000,44.200 24.000,45.029 C24.000,45.029 24.000,51.418 24.000,51.418 C24.000,51.418 40.956,56.839 40.956,56.839 C41.578,57.037 42.000,57.616 42.000,58.268 C42.000,58.268 42.000,62.041 42.000,62.041 C42.000,62.869 41.328,63.542 40.500,63.542 Z" id="path-10" class="cls-6" fill-rule="evenodd"/>
    <path d="M4.500,63.542 C3.672,63.542 3.000,62.869 3.000,62.041 C3.000,62.041 3.000,58.268 3.000,58.268 C3.000,57.616 3.422,57.037 4.044,56.839 C4.044,56.839 21.000,51.418 21.000,51.418 C21.000,51.418 21.000,45.029 21.000,45.029 C21.000,44.200 21.672,43.528 22.500,43.528 C23.328,43.528 24.000,44.200 24.000,45.029 C24.000,45.029 24.000,52.515 24.000,52.515 C24.000,53.167 23.578,53.746 22.956,53.944 C22.956,53.944 6.000,59.365 6.000,59.365 C6.000,59.365 6.000,62.041 6.000,62.041 C6.000,62.869 5.328,63.542 4.500,63.542 Z" id="path-11" class="cls-6" fill-rule="evenodd"/>
  </g>
</svg>
