<svg xmlns="http://www.w3.org/2000/svg" xmlns:xlink="http://www.w3.org/1999/xlink" preserveAspectRatio="xMidYMid" width="58" height="65" viewBox="0 0 58 65">
  <defs>
    <style>

      .cls-3 {
        fill: #81bda4;
      }

      .cls-4 {
        fill: #ff917b;
      }

      .cls-8 {
        fill: #99746a;
      }

      .cls-9 {
        fill: #000000;
      }
    </style>
  </defs>
  <g id="group-7svg">
    <path d="M58.000,64.052 C58.000,64.052 7.000,64.052 7.000,64.052 C7.000,64.052 7.000,4.010 7.000,4.010 C7.000,4.010 58.000,4.010 58.000,4.010 C58.000,4.010 58.000,64.052 58.000,64.052 Z" id="path-1" class="cls-3" fill-rule="evenodd"/>
    <path d="M13.000,21.022 C13.000,21.022 13.000,11.015 13.000,11.015 C13.000,11.015 25.000,11.015 25.000,11.015 C25.000,11.015 25.000,21.022 25.000,21.022 C25.000,21.022 13.000,21.022 13.000,21.022 Z" id="path-2" class="cls-4" fill-rule="evenodd"/>
    <path d="M34.000,21.022 C34.000,21.022 34.000,11.015 34.000,11.015 C34.000,11.015 46.000,11.015 46.000,11.015 C46.000,11.015 46.000,21.022 46.000,21.022 C46.000,21.022 34.000,21.022 34.000,21.022 Z" id="path-3" class="cls-4" fill-rule="evenodd"/>
    <path d="M13.000,38.034 C13.000,38.034 13.000,28.027 13.000,28.027 C13.000,28.027 25.000,28.027 25.000,28.027 C25.000,28.027 25.000,38.034 25.000,38.034 C25.000,38.034 13.000,38.034 13.000,38.034 Z" id="path-4" class="cls-4" fill-rule="evenodd"/>
    <path d="M34.000,38.034 C34.000,38.034 34.000,28.027 34.000,28.027 C34.000,28.027 46.000,28.027 46.000,28.027 C46.000,28.027 46.000,38.034 46.000,38.034 C46.000,38.034 34.000,38.034 34.000,38.034 Z" id="path-5" class="cls-4" fill-rule="evenodd"/>
    <path d="M13.000,45.039 C13.000,45.039 46.000,45.039 46.000,45.039 C46.000,45.039 46.000,57.047 46.000,57.047 C46.000,57.047 13.000,57.047 13.000,57.047 C13.000,57.047 13.000,45.039 13.000,45.039 Z" id="path-6" class="cls-8" fill-rule="evenodd"/>
    <path d="M40.500,56.046 C40.500,56.046 7.500,56.046 7.500,56.046 C6.671,56.046 6.000,55.374 6.000,54.545 C6.000,54.545 6.000,42.537 6.000,42.537 C6.000,41.708 6.671,41.036 7.500,41.036 C7.500,41.036 40.500,41.036 40.500,41.036 C41.329,41.036 42.000,41.708 42.000,42.537 C42.000,42.537 42.000,54.545 42.000,54.545 C42.000,55.374 41.329,56.046 40.500,56.046 ZM9.000,53.044 C9.000,53.044 39.000,53.044 39.000,53.044 C39.000,53.044 39.000,44.038 39.000,44.038 C39.000,44.038 9.000,44.038 9.000,44.038 C9.000,44.038 9.000,53.044 9.000,53.044 Z" id="path-7" class="cls-9" fill-rule="evenodd"/>
    <path d="M19.500,37.033 C19.500,37.033 7.500,37.033 7.500,37.033 C6.671,37.033 6.000,36.361 6.000,35.532 C6.000,35.532 6.000,26.526 6.000,26.526 C6.000,25.697 6.671,25.025 7.500,25.025 C7.500,25.025 19.500,25.025 19.500,25.025 C20.329,25.025 21.000,25.697 21.000,26.526 C21.000,26.526 21.000,35.532 21.000,35.532 C21.000,36.361 20.329,37.033 19.500,37.033 ZM9.000,34.031 C9.000,34.031 18.000,34.031 18.000,34.031 C18.000,34.031 18.000,28.027 18.000,28.027 C18.000,28.027 9.000,28.027 9.000,28.027 C9.000,28.027 9.000,34.031 9.000,34.031 Z" id="path-8" class="cls-9" fill-rule="evenodd"/>
    <path d="M40.500,37.033 C40.500,37.033 28.500,37.033 28.500,37.033 C27.671,37.033 27.000,36.361 27.000,35.532 C27.000,35.532 27.000,26.526 27.000,26.526 C27.000,25.697 27.671,25.025 28.500,25.025 C28.500,25.025 40.500,25.025 40.500,25.025 C41.329,25.025 42.000,25.697 42.000,26.526 C42.000,26.526 42.000,35.532 42.000,35.532 C42.000,36.361 41.329,37.033 40.500,37.033 ZM30.000,34.031 C30.000,34.031 39.000,34.031 39.000,34.031 C39.000,34.031 39.000,28.027 39.000,28.027 C39.000,28.027 30.000,28.027 30.000,28.027 C30.000,28.027 30.000,34.031 30.000,34.031 Z" id="path-9" class="cls-9" fill-rule="evenodd"/>
    <path d="M19.500,20.021 C19.500,20.021 7.500,20.021 7.500,20.021 C6.671,20.021 6.000,19.349 6.000,18.520 C6.000,18.520 6.000,8.514 6.000,8.514 C6.000,7.685 6.671,7.012 7.500,7.012 C7.500,7.012 19.500,7.012 19.500,7.012 C20.329,7.012 21.000,7.685 21.000,8.514 C21.000,8.514 21.000,18.520 21.000,18.520 C21.000,19.349 20.329,20.021 19.500,20.021 ZM9.000,17.019 C9.000,17.019 18.000,17.019 18.000,17.019 C18.000,17.019 18.000,10.015 18.000,10.015 C18.000,10.015 9.000,10.015 9.000,10.015 C9.000,10.015 9.000,17.019 9.000,17.019 Z" id="path-10" class="cls-9" fill-rule="evenodd"/>
    <path d="M40.500,20.021 C40.500,20.021 28.500,20.021 28.500,20.021 C27.671,20.021 27.000,19.349 27.000,18.520 C27.000,18.520 27.000,8.514 27.000,8.514 C27.000,7.685 27.671,7.012 28.500,7.012 C28.500,7.012 40.500,7.012 40.500,7.012 C41.329,7.012 42.000,7.685 42.000,8.514 C42.000,8.514 42.000,18.520 42.000,18.520 C42.000,19.349 41.329,20.021 40.500,20.021 ZM30.000,17.019 C30.000,17.019 39.000,17.019 39.000,17.019 C39.000,17.019 39.000,10.015 39.000,10.015 C39.000,10.015 30.000,10.015 30.000,10.015 C30.000,10.015 30.000,17.019 30.000,17.019 Z" id="path-11" class="cls-9" fill-rule="evenodd"/>
    <path d="M52.500,63.051 C52.500,63.051 1.500,63.051 1.500,63.051 C0.671,63.051 -0.000,62.379 -0.000,61.550 C-0.000,61.550 -0.000,1.509 -0.000,1.509 C-0.000,0.680 0.671,0.008 1.500,0.008 C1.500,0.008 52.500,0.008 52.500,0.008 C53.329,0.008 54.000,0.680 54.000,1.509 C54.000,1.509 54.000,61.550 54.000,61.550 C54.000,62.379 53.329,63.051 52.500,63.051 ZM3.000,60.049 C3.000,60.049 51.000,60.049 51.000,60.049 C51.000,60.049 51.000,3.010 51.000,3.010 C51.000,3.010 3.000,3.010 3.000,3.010 C3.000,3.010 3.000,60.049 3.000,60.049 Z" id="path-12" class="cls-9" fill-rule="evenodd"/>
    <path d="M49.000,34.031 C49.000,34.031 45.000,34.031 45.000,34.031 C44.171,34.031 43.500,33.359 43.500,32.530 C43.500,31.701 44.171,31.029 45.000,31.029 C45.000,31.029 49.000,31.029 49.000,31.029 C49.829,31.029 50.500,31.701 50.500,32.530 C50.500,33.359 49.829,34.031 49.000,34.031 Z" id="path-13" class="cls-9" fill-rule="evenodd"/>
  </g>
</svg>
