<svg xmlns="http://www.w3.org/2000/svg" xmlns:xlink="http://www.w3.org/1999/xlink" preserveAspectRatio="xMidYMid" width="67" height="56" viewBox="0 0 67 56">
  <defs>
    <style>

      .cls-3 {
        fill: #000000;
      }

      .cls-4 {
        fill: #99746a;
      }

      .cls-6 {
        fill: #53ecf4;
      }
    </style>
  </defs>
  <g id="group-3svg">
    <path d="M51.500,44.042 C51.500,44.042 36.500,44.042 36.500,44.042 C35.672,44.042 35.000,43.369 35.000,42.540 C35.000,42.540 35.000,16.523 35.000,16.523 C35.000,15.694 35.672,15.021 36.500,15.021 C36.500,15.021 51.500,15.021 51.500,15.021 C52.328,15.021 53.000,15.694 53.000,16.523 C53.000,16.523 53.000,42.540 53.000,42.540 C53.000,43.369 52.328,44.042 51.500,44.042 ZM38.000,41.039 C38.000,41.039 50.000,41.039 50.000,41.039 C50.000,41.039 50.000,18.024 50.000,18.024 C50.000,18.024 38.000,18.024 38.000,18.024 C38.000,18.024 38.000,41.039 38.000,41.039 Z" id="path-1" class="cls-3" fill-rule="evenodd"/>
    <path d="M61.000,55.049 C61.000,55.049 12.000,55.049 12.000,55.049 C12.000,55.049 12.000,11.019 12.000,11.019 C12.000,11.019 61.000,11.019 61.000,11.019 C61.000,11.019 61.000,55.049 61.000,55.049 Z" id="path-2" class="cls-4" fill-rule="evenodd"/>
    <path d="M67.000,11.019 C67.000,11.019 6.000,11.019 6.000,11.019 C6.000,11.019 6.000,4.014 6.000,4.014 C6.000,4.014 67.000,4.014 67.000,4.014 C67.000,4.014 67.000,11.019 67.000,11.019 Z" id="path-3" class="cls-4" fill-rule="evenodd"/>
    <path d="M40.000,20.025 C40.000,20.025 55.000,20.025 55.000,20.025 C55.000,20.025 55.000,46.043 55.000,46.043 C55.000,46.043 40.000,46.043 40.000,46.043 C40.000,46.043 40.000,20.025 40.000,20.025 Z" id="path-4" class="cls-6" fill-rule="evenodd"/>
    <path d="M18.000,20.025 C18.000,20.025 33.000,20.025 33.000,20.025 C33.000,20.025 33.000,46.043 33.000,46.043 C33.000,46.043 18.000,46.043 18.000,46.043 C18.000,46.043 18.000,20.025 18.000,20.025 Z" id="path-5" class="cls-6" fill-rule="evenodd"/>
    <path d="M56.500,54.048 C56.500,54.048 7.500,54.048 7.500,54.048 C6.672,54.048 6.000,53.376 6.000,52.547 C6.000,52.547 6.000,8.517 6.000,8.517 C6.000,7.688 6.672,7.016 7.500,7.016 C7.500,7.016 56.500,7.016 56.500,7.016 C57.328,7.016 58.000,7.688 58.000,8.517 C58.000,8.517 58.000,52.547 58.000,52.547 C58.000,53.376 57.328,54.048 56.500,54.048 ZM9.000,51.046 C9.000,51.046 55.000,51.046 55.000,51.046 C55.000,51.046 55.000,10.018 55.000,10.018 C55.000,10.018 9.000,10.018 9.000,10.018 C9.000,10.018 9.000,51.046 9.000,51.046 Z" id="path-6" class="cls-3" fill-rule="evenodd"/>
    <path d="M62.500,10.018 C62.500,10.018 1.500,10.018 1.500,10.018 C0.672,10.018 -0.000,9.346 -0.000,8.517 C-0.000,8.517 -0.000,1.512 -0.000,1.512 C-0.000,0.683 0.672,0.011 1.500,0.011 C1.500,0.011 62.500,0.011 62.500,0.011 C63.328,0.011 64.000,0.683 64.000,1.512 C64.000,1.512 64.000,8.517 64.000,8.517 C64.000,9.346 63.328,10.018 62.500,10.018 ZM3.000,7.016 C3.000,7.016 61.000,7.016 61.000,7.016 C61.000,7.016 61.000,3.013 61.000,3.013 C61.000,3.013 3.000,3.013 3.000,3.013 C3.000,3.013 3.000,7.016 3.000,7.016 Z" id="path-7" class="cls-3" fill-rule="evenodd"/>
    <path d="M51.500,44.042 C51.500,44.042 36.500,44.042 36.500,44.042 C35.672,44.042 35.000,43.369 35.000,42.540 C35.000,42.540 35.000,16.523 35.000,16.523 C35.000,15.694 35.672,15.021 36.500,15.021 C36.500,15.021 51.500,15.021 51.500,15.021 C52.328,15.021 53.000,15.694 53.000,16.523 C53.000,16.523 53.000,42.540 53.000,42.540 C53.000,43.369 52.328,44.042 51.500,44.042 ZM38.000,41.039 C38.000,41.039 50.000,41.039 50.000,41.039 C50.000,41.039 50.000,18.024 50.000,18.024 C50.000,18.024 38.000,18.024 38.000,18.024 C38.000,18.024 38.000,41.039 38.000,41.039 Z" id="path-8" class="cls-3" fill-rule="evenodd"/>
    <path d="M29.500,44.042 C29.500,44.042 14.500,44.042 14.500,44.042 C13.672,44.042 13.000,43.369 13.000,42.540 C13.000,42.540 13.000,16.523 13.000,16.523 C13.000,15.694 13.672,15.021 14.500,15.021 C14.500,15.021 29.500,15.021 29.500,15.021 C30.328,15.021 31.000,15.694 31.000,16.523 C31.000,16.523 31.000,42.540 31.000,42.540 C31.000,43.369 30.328,44.042 29.500,44.042 ZM16.000,41.039 C16.000,41.039 28.000,41.039 28.000,41.039 C28.000,41.039 28.000,18.024 28.000,18.024 C28.000,18.024 16.000,18.024 16.000,18.024 C16.000,18.024 16.000,41.039 16.000,41.039 Z" id="path-9" class="cls-3" fill-rule="evenodd"/>
    <path d="M42.000,33.034 C42.000,33.034 37.000,33.034 37.000,33.034 C36.172,33.034 35.500,32.362 35.500,31.533 C35.500,30.704 36.172,30.032 37.000,30.032 C37.000,30.032 42.000,30.032 42.000,30.032 C42.828,30.032 43.500,30.704 43.500,31.533 C43.500,32.362 42.828,33.034 42.000,33.034 Z" id="path-10" class="cls-3" fill-rule="evenodd"/>
  </g>
</svg>
