<svg xmlns="http://www.w3.org/2000/svg" xmlns:xlink="http://www.w3.org/1999/xlink" preserveAspectRatio="xMidYMid" width="52" height="65" viewBox="0 0 52 65">
  <defs>
    <style>

      .cls-3 {
        fill: #ff917b;
      }

      .cls-4 {
        fill: #99746a;
      }

      .cls-8 {
        fill: #000000;
      }
    </style>
  </defs>
  <g id="group-8svg">
    <path d="M52.000,64.052 C52.000,64.052 6.000,64.052 6.000,64.052 C6.000,64.052 6.000,4.010 6.000,4.010 C6.000,4.010 52.000,4.010 52.000,4.010 C52.000,4.010 52.000,64.052 52.000,64.052 Z" id="path-1" class="cls-3" fill-rule="evenodd"/>
    <path d="M12.000,57.047 C12.000,57.047 12.000,38.034 12.000,38.034 C12.000,38.034 24.000,38.034 24.000,38.034 C24.000,38.034 24.000,57.047 24.000,57.047 C24.000,57.047 12.000,57.047 12.000,57.047 Z" id="path-2" class="cls-4" fill-rule="evenodd"/>
    <path d="M32.000,57.047 C32.000,57.047 32.000,38.034 32.000,38.034 C32.000,38.034 44.000,38.034 44.000,38.034 C44.000,38.034 44.000,57.047 44.000,57.047 C44.000,57.047 32.000,57.047 32.000,57.047 Z" id="path-3" class="cls-4" fill-rule="evenodd"/>
    <path d="M12.000,30.028 C12.000,30.028 12.000,11.015 12.000,11.015 C12.000,11.015 24.000,11.015 24.000,11.015 C24.000,11.015 24.000,30.028 24.000,30.028 C24.000,30.028 12.000,30.028 12.000,30.028 Z" id="path-4" class="cls-4" fill-rule="evenodd"/>
    <path d="M32.000,30.028 C32.000,30.028 32.000,11.015 32.000,11.015 C32.000,11.015 44.000,11.015 44.000,11.015 C44.000,11.015 44.000,30.028 44.000,30.028 C44.000,30.028 32.000,30.028 32.000,30.028 Z" id="path-5" class="cls-4" fill-rule="evenodd"/>
    <path d="M19.500,56.046 C19.500,56.046 7.500,56.046 7.500,56.046 C6.671,56.046 6.000,55.374 6.000,54.545 C6.000,54.545 6.000,35.532 6.000,35.532 C6.000,34.704 6.671,34.031 7.500,34.031 C7.500,34.031 19.500,34.031 19.500,34.031 C20.329,34.031 21.000,34.704 21.000,35.532 C21.000,35.532 21.000,54.545 21.000,54.545 C21.000,55.374 20.329,56.046 19.500,56.046 ZM9.000,53.044 C9.000,53.044 18.000,53.044 18.000,53.044 C18.000,53.044 18.000,37.033 18.000,37.033 C18.000,37.033 9.000,37.033 9.000,37.033 C9.000,37.033 9.000,53.044 9.000,53.044 Z" id="path-6" class="cls-8" fill-rule="evenodd"/>
    <path d="M39.500,56.046 C39.500,56.046 27.500,56.046 27.500,56.046 C26.671,56.046 26.000,55.374 26.000,54.545 C26.000,54.545 26.000,35.532 26.000,35.532 C26.000,34.704 26.671,34.031 27.500,34.031 C27.500,34.031 39.500,34.031 39.500,34.031 C40.329,34.031 41.000,34.704 41.000,35.532 C41.000,35.532 41.000,54.545 41.000,54.545 C41.000,55.374 40.329,56.046 39.500,56.046 ZM29.000,53.044 C29.000,53.044 38.000,53.044 38.000,53.044 C38.000,53.044 38.000,37.033 38.000,37.033 C38.000,37.033 29.000,37.033 29.000,37.033 C29.000,37.033 29.000,53.044 29.000,53.044 Z" id="path-7" class="cls-8" fill-rule="evenodd"/>
    <path d="M19.500,29.028 C19.500,29.028 7.500,29.028 7.500,29.028 C6.671,29.028 6.000,28.355 6.000,27.527 C6.000,27.527 6.000,8.514 6.000,8.514 C6.000,7.685 6.671,7.012 7.500,7.012 C7.500,7.012 19.500,7.012 19.500,7.012 C20.329,7.012 21.000,7.685 21.000,8.514 C21.000,8.514 21.000,27.527 21.000,27.527 C21.000,28.355 20.329,29.028 19.500,29.028 ZM9.000,26.026 C9.000,26.026 18.000,26.026 18.000,26.026 C18.000,26.026 18.000,10.015 18.000,10.015 C18.000,10.015 9.000,10.015 9.000,10.015 C9.000,10.015 9.000,26.026 9.000,26.026 Z" id="path-8" class="cls-8" fill-rule="evenodd"/>
    <path d="M39.500,29.028 C39.500,29.028 27.500,29.028 27.500,29.028 C26.671,29.028 26.000,28.355 26.000,27.527 C26.000,27.527 26.000,8.514 26.000,8.514 C26.000,7.685 26.671,7.012 27.500,7.012 C27.500,7.012 39.500,7.012 39.500,7.012 C40.329,7.012 41.000,7.685 41.000,8.514 C41.000,8.514 41.000,27.527 41.000,27.527 C41.000,28.355 40.329,29.028 39.500,29.028 ZM29.000,26.026 C29.000,26.026 38.000,26.026 38.000,26.026 C38.000,26.026 38.000,10.015 38.000,10.015 C38.000,10.015 29.000,10.015 29.000,10.015 C29.000,10.015 29.000,26.026 29.000,26.026 Z" id="path-9" class="cls-8" fill-rule="evenodd"/>
    <path d="M47.500,63.051 C47.500,63.051 1.500,63.051 1.500,63.051 C0.671,63.051 -0.000,62.379 -0.000,61.550 C-0.000,61.550 -0.000,1.509 -0.000,1.509 C-0.000,0.680 0.671,0.008 1.500,0.008 C1.500,0.008 47.500,0.008 47.500,0.008 C48.329,0.008 49.000,0.680 49.000,1.509 C49.000,1.509 49.000,61.550 49.000,61.550 C49.000,62.379 48.329,63.051 47.500,63.051 ZM3.000,60.049 C3.000,60.049 46.000,60.049 46.000,60.049 C46.000,60.049 46.000,3.010 46.000,3.010 C46.000,3.010 3.000,3.010 3.000,3.010 C3.000,3.010 3.000,60.049 3.000,60.049 Z" id="path-10" class="cls-8" fill-rule="evenodd"/>
    <path d="M42.000,33.030 C42.000,33.030 38.000,33.030 38.000,33.030 C37.171,33.030 36.500,32.358 36.500,31.529 C36.500,30.701 37.171,30.028 38.000,30.028 C38.000,30.028 42.000,30.028 42.000,30.028 C42.829,30.028 43.500,30.701 43.500,31.529 C43.500,32.358 42.829,33.030 42.000,33.030 Z" id="path-11" class="cls-8" fill-rule="evenodd"/>
  </g>
</svg>
