<svg xmlns="http://www.w3.org/2000/svg" xmlns:xlink="http://www.w3.org/1999/xlink" preserveAspectRatio="xMidYMid" width="67" height="65" viewBox="0 0 67 65">
  <defs>
    <style>

      .cls-3 {
        fill: #edc951;
      }

      .cls-4 {
        fill: #53ecf4;
      }

      .cls-6 {
        fill: #ff917b;
      }

      .cls-10 {
        fill: #000000;
      }
    </style>
  </defs>
  <g id="group-12svg">
    <path d="M14.000,18.015 C14.000,18.015 59.000,18.015 59.000,18.015 C59.000,18.015 59.000,50.037 59.000,50.037 C59.000,50.037 14.000,50.037 14.000,50.037 C14.000,50.037 14.000,18.015 14.000,18.015 Z" id="path-1" class="cls-3" fill-rule="evenodd"/>
    <path d="M19.000,46.034 C19.000,46.034 19.000,23.018 19.000,23.018 C19.000,23.018 34.000,23.018 34.000,23.018 C34.000,23.018 34.000,46.034 34.000,46.034 C34.000,46.034 19.000,46.034 19.000,46.034 Z" id="path-2" class="cls-4" fill-rule="evenodd"/>
    <path d="M39.000,46.034 C39.000,46.034 39.000,23.018 39.000,23.018 C39.000,23.018 54.000,23.018 54.000,23.018 C54.000,23.018 54.000,46.034 54.000,46.034 C54.000,46.034 39.000,46.034 39.000,46.034 Z" id="path-3" class="cls-4" fill-rule="evenodd"/>
    <path d="M67.000,11.010 C67.000,11.010 6.000,11.010 6.000,11.010 C6.000,11.010 6.000,4.005 6.000,4.005 C6.000,4.005 67.000,4.005 67.000,4.005 C67.000,4.005 67.000,11.010 67.000,11.010 Z" id="path-4" class="cls-6" fill-rule="evenodd"/>
    <path d="M6.000,57.042 C6.000,57.042 67.000,57.042 67.000,57.042 C67.000,57.042 67.000,64.047 67.000,64.047 C67.000,64.047 6.000,64.047 6.000,64.047 C6.000,64.047 6.000,57.042 6.000,57.042 Z" id="path-5" class="cls-6" fill-rule="evenodd"/>
    <path d="M63.000,18.015 C63.000,18.015 10.000,18.015 10.000,18.015 C10.000,18.015 10.000,11.010 10.000,11.010 C10.000,11.010 63.000,11.010 63.000,11.010 C63.000,11.010 63.000,18.015 63.000,18.015 Z" id="path-6" class="cls-3" fill-rule="evenodd"/>
    <path d="M10.000,50.037 C10.000,50.037 63.000,50.037 63.000,50.037 C63.000,50.037 63.000,57.042 63.000,57.042 C63.000,57.042 10.000,57.042 10.000,57.042 C10.000,57.042 10.000,50.037 10.000,50.037 Z" id="path-7" class="cls-3" fill-rule="evenodd"/>
    <path d="M62.500,10.009 C62.500,10.009 1.500,10.009 1.500,10.009 C0.671,10.009 -0.000,9.337 -0.000,8.508 C-0.000,8.508 -0.000,1.503 -0.000,1.503 C-0.000,0.675 0.671,0.002 1.500,0.002 C1.500,0.002 62.500,0.002 62.500,0.002 C63.329,0.002 64.000,0.675 64.000,1.503 C64.000,1.503 64.000,8.508 64.000,8.508 C64.000,9.337 63.329,10.009 62.500,10.009 ZM3.000,7.007 C3.000,7.007 61.000,7.007 61.000,7.007 C61.000,7.007 61.000,3.004 61.000,3.004 C61.000,3.004 3.000,3.004 3.000,3.004 C3.000,3.004 3.000,7.007 3.000,7.007 Z" id="path-8" class="cls-10" fill-rule="evenodd"/>
    <path d="M62.500,63.046 C62.500,63.046 1.500,63.046 1.500,63.046 C0.671,63.046 -0.000,62.374 -0.000,61.545 C-0.000,61.545 -0.000,54.540 -0.000,54.540 C-0.000,53.711 0.671,53.039 1.500,53.039 C1.500,53.039 62.500,53.039 62.500,53.039 C63.329,53.039 64.000,53.711 64.000,54.540 C64.000,54.540 64.000,61.545 64.000,61.545 C64.000,62.374 63.329,63.046 62.500,63.046 ZM3.000,60.044 C3.000,60.044 61.000,60.044 61.000,60.044 C61.000,60.044 61.000,56.041 61.000,56.041 C61.000,56.041 3.000,56.041 3.000,56.041 C3.000,56.041 3.000,60.044 3.000,60.044 Z" id="path-9" class="cls-10" fill-rule="evenodd"/>
    <path d="M58.500,17.014 C58.500,17.014 5.500,17.014 5.500,17.014 C4.671,17.014 4.000,16.342 4.000,15.513 C4.000,15.513 4.000,8.508 4.000,8.508 C4.000,7.680 4.671,7.007 5.500,7.007 C5.500,7.007 58.500,7.007 58.500,7.007 C59.329,7.007 60.000,7.680 60.000,8.508 C60.000,8.508 60.000,15.513 60.000,15.513 C60.000,16.342 59.329,17.014 58.500,17.014 ZM7.000,14.012 C7.000,14.012 57.000,14.012 57.000,14.012 C57.000,14.012 57.000,10.009 57.000,10.009 C57.000,10.009 7.000,10.009 7.000,10.009 C7.000,10.009 7.000,14.012 7.000,14.012 Z" id="path-10" class="cls-10" fill-rule="evenodd"/>
    <path d="M58.500,56.041 C58.500,56.041 5.500,56.041 5.500,56.041 C4.671,56.041 4.000,55.369 4.000,54.540 C4.000,54.540 4.000,47.535 4.000,47.535 C4.000,46.706 4.671,46.034 5.500,46.034 C5.500,46.034 58.500,46.034 58.500,46.034 C59.329,46.034 60.000,46.706 60.000,47.535 C60.000,47.535 60.000,54.540 60.000,54.540 C60.000,55.369 59.329,56.041 58.500,56.041 ZM7.000,53.039 C7.000,53.039 57.000,53.039 57.000,53.039 C57.000,53.039 57.000,49.036 57.000,49.036 C57.000,49.036 7.000,49.036 7.000,49.036 C7.000,49.036 7.000,53.039 7.000,53.039 Z" id="path-11" class="cls-10" fill-rule="evenodd"/>
    <path d="M54.500,49.036 C54.500,49.036 9.500,49.036 9.500,49.036 C8.671,49.036 8.000,48.364 8.000,47.535 C8.000,47.535 8.000,15.513 8.000,15.513 C8.000,14.684 8.671,14.012 9.500,14.012 C9.500,14.012 54.500,14.012 54.500,14.012 C55.329,14.012 56.000,14.684 56.000,15.513 C56.000,15.513 56.000,47.535 56.000,47.535 C56.000,48.364 55.329,49.036 54.500,49.036 ZM11.000,46.034 C11.000,46.034 53.000,46.034 53.000,46.034 C53.000,46.034 53.000,17.014 53.000,17.014 C53.000,17.014 11.000,17.014 11.000,17.014 C11.000,17.014 11.000,46.034 11.000,46.034 Z" id="path-12" class="cls-10" fill-rule="evenodd"/>
    <path d="M29.500,45.033 C29.500,45.033 14.500,45.033 14.500,45.033 C13.671,45.033 13.000,44.361 13.000,43.532 C13.000,43.532 13.000,20.517 13.000,20.517 C13.000,19.688 13.671,19.015 14.500,19.015 C14.500,19.015 29.500,19.015 29.500,19.015 C30.329,19.015 31.000,19.688 31.000,20.517 C31.000,20.517 31.000,43.532 31.000,43.532 C31.000,44.361 30.329,45.033 29.500,45.033 ZM16.000,42.031 C16.000,42.031 28.000,42.031 28.000,42.031 C28.000,42.031 28.000,22.018 28.000,22.018 C28.000,22.018 16.000,22.018 16.000,22.018 C16.000,22.018 16.000,42.031 16.000,42.031 Z" id="path-13" class="cls-10" fill-rule="evenodd"/>
    <path d="M49.500,45.033 C49.500,45.033 34.500,45.033 34.500,45.033 C33.671,45.033 33.000,44.361 33.000,43.532 C33.000,43.532 33.000,20.517 33.000,20.517 C33.000,19.688 33.671,19.015 34.500,19.015 C34.500,19.015 49.500,19.015 49.500,19.015 C50.329,19.015 51.000,19.688 51.000,20.517 C51.000,20.517 51.000,43.532 51.000,43.532 C51.000,44.361 50.329,45.033 49.500,45.033 ZM36.000,42.031 C36.000,42.031 48.000,42.031 48.000,42.031 C48.000,42.031 48.000,22.018 48.000,22.018 C48.000,22.018 36.000,22.018 36.000,22.018 C36.000,22.018 36.000,42.031 36.000,42.031 Z" id="path-14" class="cls-10" fill-rule="evenodd"/>
  </g>
</svg>
