<?xml version="1.0" encoding="UTF-8" standalone="no"?>
<svg width="321px" height="83px" viewBox="0 0 321 83" version="1.1" xmlns="http://www.w3.org/2000/svg" xmlns:xlink="http://www.w3.org/1999/xlink">
    <!-- Generator: Sketch 42 (36781) - http://www.bohemiancoding.com/sketch -->
    <title>Group</title>
    <desc>Created with Sketch.</desc>
    <defs></defs>
    <g id="Page-1" stroke="none" stroke-width="1" fill="none" fill-rule="evenodd">
        <g id="Dashboard---newcomers" transform="translate(-670.000000, -223.000000)" fill="#EC6702">
            <g id="cta-start-email" transform="translate(465.000000, 190.000000)">
                <g id="Group" transform="translate(205.000000, 33.000000)">
                    <path d="M196.571429,70.8928571 L196.571429,44.3214286 C195.83333,45.1517899 195.037579,45.912943 194.184152,46.6049107 C188.002573,51.3564226 183.089676,55.2544491 179.445312,58.2991071 C178.268967,59.2909276 177.31176,60.0636133 176.573661,60.6171875 C175.835562,61.1707617 174.83799,61.7300939 173.580915,62.2952009 C172.32384,62.8603079 171.141747,63.1428571 170.034598,63.1428571 L169.965402,63.1428571 C168.858253,63.1428571 167.67616,62.8603079 166.419085,62.2952009 C165.16201,61.7300939 164.164438,61.1707617 163.426339,60.6171875 C162.68824,60.0636133 161.731033,59.2909276 160.554688,58.2991071 C156.910324,55.2544491 151.997427,51.3564226 145.815848,46.6049107 C144.962421,45.912943 144.16667,45.1517899 143.428571,44.3214286 L143.428571,70.8928571 C143.428571,71.1927098 143.538131,71.4521938 143.757254,71.671317 C143.976378,71.8904401 144.235862,72 144.535714,72 L195.464286,72 C195.764138,72 196.023622,71.8904401 196.242746,71.671317 C196.461869,71.4521938 196.571429,71.1927098 196.571429,70.8928571 Z M196.571429,34.5301339 L196.571429,33.6824777 C196.571429,33.5786825 196.565662,33.4287584 196.554129,33.2327009 C196.542597,33.0366434 196.507999,32.8924856 196.450335,32.8002232 C196.392671,32.7079608 196.329241,32.6041672 196.260045,32.4888393 C196.190848,32.3735113 196.087054,32.2870167 195.948661,32.2293527 C195.810267,32.1716887 195.64881,32.1428571 195.464286,32.1428571 L144.535714,32.1428571 C144.235862,32.1428571 143.976378,32.2524171 143.757254,32.4715402 C143.538131,32.6906633 143.428571,32.9501473 143.428571,33.25 C143.428571,37.1250194 145.123867,40.4002842 148.514509,43.0758929 C152.966168,46.5818628 157.59075,50.2377042 162.388393,54.0435268 C162.526786,54.1588547 162.930428,54.4990671 163.59933,55.0641741 C164.268233,55.6292811 164.798733,56.0617545 165.190848,56.3616071 C165.582963,56.6614598 166.096165,57.0247374 166.730469,57.4514509 C167.364773,57.8781643 167.94717,58.1953115 168.477679,58.4029018 C169.008187,58.6104921 169.50409,58.7142857 169.965402,58.7142857 L170.034598,58.7142857 C170.49591,58.7142857 170.991813,58.6104921 171.522321,58.4029018 C172.05283,58.1953115 172.635227,57.8781643 173.269531,57.4514509 C173.903835,57.0247374 174.417037,56.6614598 174.809152,56.3616071 C175.201267,56.0617545 175.731767,55.6292811 176.40067,55.0641741 C177.069572,54.4990671 177.473214,54.1588547 177.611607,54.0435268 C182.40925,50.2377042 187.033832,46.5818628 191.485491,43.0758929 C192.731033,42.0840724 193.890062,40.7520545 194.962612,39.0797991 C196.035162,37.4075437 196.571429,35.8910038 196.571429,34.5301339 Z M201,33.25 L201,70.8928571 C201,72.4151862 200.457967,73.7183726 199.373884,74.8024554 C198.289801,75.8865382 196.986615,76.4285714 195.464286,76.4285714 L144.535714,76.4285714 C143.013385,76.4285714 141.710199,75.8865382 140.626116,74.8024554 C139.542033,73.7183726 139,72.4151862 139,70.8928571 L139,33.25 C139,31.727671 139.542033,30.4244846 140.626116,29.3404018 C141.710199,28.256319 143.013385,27.7142857 144.535714,27.7142857 L195.464286,27.7142857 C196.986615,27.7142857 198.289801,28.256319 199.373884,29.3404018 C200.457967,30.4244846 201,31.727671 201,33.25 Z" id=""></path>
                    <rect id="Rectangle-1427" fill-opacity="0.799999952" x="112" y="45" width="18" height="2"></rect>
                    <rect id="Rectangle-1427-Copy" fill-opacity="0.799999952" x="114" y="52" width="16" height="2"></rect>
                    <rect id="Rectangle-1427-Copy-2" fill-opacity="0.799999952" x="116" y="59" width="14" height="2"></rect>
                    <path d="M253.714286,61.4285714 L253.714286,47.7142857 C253.333331,48.1428593 252.922621,48.5357125 252.482143,48.8928571 C249.291651,51.3452504 246.755962,53.357135 244.875,54.9285714 C244.267854,55.4404787 243.773811,55.8392843 243.392857,56.125 C243.011903,56.4107157 242.497027,56.6994033 241.848214,56.9910714 C241.199402,57.2827396 240.589289,57.4285714 240.017857,57.4285714 L239.982143,57.4285714 C239.410711,57.4285714 238.800598,57.2827396 238.151786,56.9910714 C237.502973,56.6994033 236.988097,56.4107157 236.607143,56.125 C236.226189,55.8392843 235.732146,55.4404787 235.125,54.9285714 C233.244038,53.357135 230.708349,51.3452504 227.517857,48.8928571 C227.077379,48.5357125 226.666669,48.1428593 226.285714,47.7142857 L226.285714,61.4285714 C226.285714,61.5833341 226.342261,61.7172613 226.455357,61.8303571 C226.568453,61.9434529 226.70238,62 226.857143,62 L253.142857,62 C253.29762,62 253.431547,61.9434529 253.544643,61.8303571 C253.657739,61.7172613 253.714286,61.5833341 253.714286,61.4285714 Z M253.714286,42.6607143 L253.714286,42.2232143 C253.714286,42.1696426 253.71131,42.0922624 253.705357,41.9910714 C253.699405,41.8898804 253.681548,41.8154764 253.651786,41.7678571 C253.622024,41.7202379 253.589286,41.666667 253.553571,41.6071429 C253.517857,41.5476187 253.464286,41.5029763 253.392857,41.4732143 C253.321428,41.4434522 253.238096,41.4285714 253.142857,41.4285714 L226.857143,41.4285714 C226.70238,41.4285714 226.568453,41.4851185 226.455357,41.5982143 C226.342261,41.7113101 226.285714,41.8452373 226.285714,42 C226.285714,44.00001 227.160706,45.6904693 228.910714,47.0714286 C231.208345,48.8809614 233.595226,50.7678473 236.071429,52.7321429 C236.142857,52.791667 236.351189,52.9672604 236.696429,53.2589286 C237.041668,53.5505967 237.315475,53.7738087 237.517857,53.9285714 C237.720239,54.0833341 237.985117,54.2708322 238.3125,54.4910714 C238.639883,54.7113106 238.940475,54.8749995 239.214286,54.9821429 C239.488097,55.0892862 239.744046,55.1428571 239.982143,55.1428571 L240.017857,55.1428571 C240.255954,55.1428571 240.511903,55.0892862 240.785714,54.9821429 C241.059525,54.8749995 241.360117,54.7113106 241.6875,54.4910714 C242.014883,54.2708322 242.279761,54.0833341 242.482143,53.9285714 C242.684525,53.7738087 242.958332,53.5505967 243.303571,53.2589286 C243.648811,52.9672604 243.857143,52.791667 243.928571,52.7321429 C246.404774,50.7678473 248.791655,48.8809614 251.089286,47.0714286 C251.732146,46.5595212 252.330354,45.8720281 252.883929,45.0089286 C253.437503,44.145829 253.714286,43.3630987 253.714286,42.6607143 Z M256,42 L256,61.4285714 C256,62.2142896 255.720241,62.886902 255.160714,63.4464286 C254.601188,64.0059552 253.928575,64.2857143 253.142857,64.2857143 L226.857143,64.2857143 C226.071425,64.2857143 225.398812,64.0059552 224.839286,63.4464286 C224.279759,62.886902 224,62.2142896 224,61.4285714 L224,42 C224,41.2142818 224.279759,40.5416695 224.839286,39.9821429 C225.398812,39.4226162 226.071425,39.1428571 226.857143,39.1428571 L253.142857,39.1428571 C253.928575,39.1428571 254.601188,39.4226162 255.160714,39.9821429 C255.720241,40.5416695 256,41.2142818 256,42 Z" id="-copy" fill-opacity="0.154891304"></path>
                    <path d="M103.714286,22.4285714 L103.714286,8.71428571 C103.333331,9.14285929 102.922621,9.5357125 102.482143,9.89285714 C99.2916507,12.3452504 96.7559618,14.357135 94.875,15.9285714 C94.2678541,16.4404787 93.7738114,16.8392843 93.3928571,17.125 C93.0119029,17.4107157 92.4970271,17.6994033 91.8482143,17.9910714 C91.1994015,18.2827396 90.5892886,18.4285714 90.0178571,18.4285714 L89.9821429,18.4285714 C89.4107114,18.4285714 88.8005985,18.2827396 88.1517857,17.9910714 C87.5029729,17.6994033 86.9880971,17.4107157 86.6071429,17.125 C86.2261886,16.8392843 85.7321459,16.4404787 85.125,15.9285714 C83.2440382,14.357135 80.7083493,12.3452504 77.5178571,9.89285714 C77.0773787,9.5357125 76.6666686,9.14285929 76.2857143,8.71428571 L76.2857143,22.4285714 C76.2857143,22.5833341 76.3422613,22.7172613 76.4553571,22.8303571 C76.5684529,22.9434529 76.7023802,23 76.8571429,23 L103.142857,23 C103.29762,23 103.431547,22.9434529 103.544643,22.8303571 C103.657739,22.7172613 103.714286,22.5833341 103.714286,22.4285714 Z M103.714286,3.66071429 L103.714286,3.22321429 C103.714286,3.16964259 103.71131,3.09226241 103.705357,2.99107143 C103.699405,2.88988045 103.681548,2.81547643 103.651786,2.76785714 C103.622024,2.72023786 103.589286,2.66666696 103.553571,2.60714286 C103.517857,2.54761875 103.464286,2.50297634 103.392857,2.47321429 C103.321428,2.44345223 103.238096,2.42857143 103.142857,2.42857143 L76.8571429,2.42857143 C76.7023802,2.42857143 76.5684529,2.48511848 76.4553571,2.59821429 C76.3422613,2.71131009 76.2857143,2.84523732 76.2857143,3 C76.2857143,5.00001 77.1607055,6.69046929 78.9107143,8.07142857 C81.2083448,9.88096143 83.5952257,11.7678473 86.0714286,13.7321429 C86.1428575,13.791667 86.3511888,13.9672604 86.6964286,14.2589286 C87.0416684,14.5505967 87.3154752,14.7738087 87.5178571,14.9285714 C87.7202391,15.0833341 87.9851174,15.2708322 88.3125,15.4910714 C88.6398826,15.7113106 88.9404748,15.8749995 89.2142857,15.9821429 C89.4880966,16.0892862 89.7440464,16.1428571 89.9821429,16.1428571 L90.0178571,16.1428571 C90.2559536,16.1428571 90.5119034,16.0892862 90.7857143,15.9821429 C91.0595252,15.8749995 91.3601174,15.7113106 91.6875,15.4910714 C92.0148826,15.2708322 92.2797609,15.0833341 92.4821429,14.9285714 C92.6845248,14.7738087 92.9583316,14.5505967 93.3035714,14.2589286 C93.6488112,13.9672604 93.8571425,13.791667 93.9285714,13.7321429 C96.4047743,11.7678473 98.7916552,9.88096143 101.089286,8.07142857 C101.732146,7.55952125 102.330354,6.87202812 102.883929,6.00892857 C103.437503,5.14582902 103.714286,4.36309875 103.714286,3.66071429 Z M106,3 L106,22.4285714 C106,23.2142896 105.720241,23.886902 105.160714,24.4464286 C104.601188,25.0059552 103.928575,25.2857143 103.142857,25.2857143 L76.8571429,25.2857143 C76.0714246,25.2857143 75.3988123,25.0059552 74.8392857,24.4464286 C74.2797591,23.886902 74,23.2142896 74,22.4285714 L74,3 C74,2.21428179 74.2797591,1.54166946 74.8392857,0.982142857 C75.3988123,0.42261625 76.0714246,0.142857143 76.8571429,0.142857143 L103.142857,0.142857143 C103.928575,0.142857143 104.601188,0.42261625 105.160714,0.982142857 C105.720241,1.54166946 106,2.21428179 106,3 Z" id="-copy-2" fill-opacity="0.154891304"></path>
                    <path d="M99.5,78.625 L99.5,69.625 C99.2499988,69.9062514 98.9804702,70.1640613 98.6914062,70.3984375 C96.5976458,72.0078205 94.9335999,73.3281198 93.6992188,74.359375 C93.3007793,74.6953142 92.9765637,74.9570303 92.7265625,75.1445312 C92.4765613,75.3320322 92.138674,75.5214834 91.7128906,75.7128906 C91.2871072,75.9042978 90.8867206,76 90.5117188,76 L90.4882812,76 C90.1132794,76 89.7128928,75.9042978 89.2871094,75.7128906 C88.861326,75.5214834 88.5234387,75.3320322 88.2734375,75.1445312 C88.0234363,74.9570303 87.6992207,74.6953142 87.3007812,74.359375 C86.0664001,73.3281198 84.4023542,72.0078205 82.3085938,70.3984375 C82.0195298,70.1640613 81.7500012,69.9062514 81.5,69.625 L81.5,78.625 C81.5,78.726563 81.537109,78.8144528 81.6113281,78.8886719 C81.6855472,78.962891 81.773437,79 81.875,79 L99.125,79 C99.226563,79 99.3144528,78.962891 99.3886719,78.8886719 C99.462891,78.8144528 99.5,78.726563 99.5,78.625 Z M99.5,66.3085938 L99.5,66.0214844 C99.5,65.9863279 99.4980469,65.9355472 99.4941406,65.8691406 C99.4902344,65.802734 99.4785157,65.7539064 99.4589844,65.7226562 C99.439453,65.6914061 99.4179689,65.6562502 99.3945312,65.6171875 C99.3710936,65.5781248 99.3359377,65.5488282 99.2890625,65.5292969 C99.2421873,65.5097655 99.1875003,65.5 99.125,65.5 L81.875,65.5 C81.773437,65.5 81.6855472,65.537109 81.6113281,65.6113281 C81.537109,65.6855472 81.5,65.773437 81.5,65.875 C81.5,67.1875066 82.074213,68.2968705 83.2226562,69.203125 C84.7304763,70.3906309 86.2968669,71.6288998 87.921875,72.9179688 C87.9687502,72.9570314 88.1054676,73.0722647 88.3320312,73.2636719 C88.5585949,73.4550791 88.7382806,73.601562 88.8710938,73.703125 C89.0039069,73.804688 89.1777333,73.9277337 89.3925781,74.0722656 C89.6074229,74.2167976 89.8046866,74.3242184 89.984375,74.3945312 C90.1640634,74.4648441 90.3320305,74.5 90.4882812,74.5 L90.5117188,74.5 C90.6679695,74.5 90.8359366,74.4648441 91.015625,74.3945312 C91.1953134,74.3242184 91.3925771,74.2167976 91.6074219,74.0722656 C91.8222667,73.9277337 91.9960931,73.804688 92.1289062,73.703125 C92.2617194,73.601562 92.4414051,73.4550791 92.6679688,73.2636719 C92.8945324,73.0722647 93.0312498,72.9570314 93.078125,72.9179688 C94.7031331,71.6288998 96.2695237,70.3906309 97.7773438,69.203125 C98.1992209,68.8671858 98.5917951,68.4160185 98.9550781,67.8496094 C99.3183612,67.2832003 99.5,66.7695336 99.5,66.3085938 Z M101,65.875 L101,78.625 C101,79.1406276 100.816408,79.5820294 100.449219,79.9492188 C100.082029,80.3164081 99.6406276,80.5 99.125,80.5 L81.875,80.5 C81.3593724,80.5 80.9179706,80.3164081 80.5507812,79.9492188 C80.1835919,79.5820294 80,79.1406276 80,78.625 L80,65.875 C80,65.3593724 80.1835919,64.9179706 80.5507812,64.5507812 C80.9179706,64.1835919 81.3593724,64 81.875,64 L99.125,64 C99.6406276,64 100.082029,64.1835919 100.449219,64.5507812 C100.816408,64.9179706 101,65.3593724 101,65.875 Z" id="-copy-3" fill-opacity="0.1"></path>
                    <path d="M286.5,24.625 L286.5,15.625 C286.249999,15.9062514 285.98047,16.1640613 285.691406,16.3984375 C283.597646,18.0078205 281.9336,19.3281198 280.699219,20.359375 C280.300779,20.6953142 279.976564,20.9570303 279.726562,21.1445312 C279.476561,21.3320322 279.138674,21.5214834 278.712891,21.7128906 C278.287107,21.9042978 277.886721,22 277.511719,22 L277.488281,22 C277.113279,22 276.712893,21.9042978 276.287109,21.7128906 C275.861326,21.5214834 275.523439,21.3320322 275.273438,21.1445312 C275.023436,20.9570303 274.699221,20.6953142 274.300781,20.359375 C273.0664,19.3281198 271.402354,18.0078205 269.308594,16.3984375 C269.01953,16.1640613 268.750001,15.9062514 268.5,15.625 L268.5,24.625 C268.5,24.726563 268.537109,24.8144528 268.611328,24.8886719 C268.685547,24.962891 268.773437,25 268.875,25 L286.125,25 C286.226563,25 286.314453,24.962891 286.388672,24.8886719 C286.462891,24.8144528 286.5,24.726563 286.5,24.625 Z M286.5,12.3085938 L286.5,12.0214844 C286.5,11.9863279 286.498047,11.9355472 286.494141,11.8691406 C286.490234,11.802734 286.478516,11.7539064 286.458984,11.7226562 C286.439453,11.6914061 286.417969,11.6562502 286.394531,11.6171875 C286.371094,11.5781248 286.335938,11.5488282 286.289062,11.5292969 C286.242187,11.5097655 286.1875,11.5 286.125,11.5 L268.875,11.5 C268.773437,11.5 268.685547,11.537109 268.611328,11.6113281 C268.537109,11.6855472 268.5,11.773437 268.5,11.875 C268.5,13.1875066 269.074213,14.2968705 270.222656,15.203125 C271.730476,16.3906309 273.296867,17.6288998 274.921875,18.9179688 C274.96875,18.9570314 275.105468,19.0722647 275.332031,19.2636719 C275.558595,19.4550791 275.738281,19.601562 275.871094,19.703125 C276.003907,19.804688 276.177733,19.9277337 276.392578,20.0722656 C276.607423,20.2167976 276.804687,20.3242184 276.984375,20.3945312 C277.164063,20.4648441 277.33203,20.5 277.488281,20.5 L277.511719,20.5 C277.66797,20.5 277.835937,20.4648441 278.015625,20.3945312 C278.195313,20.3242184 278.392577,20.2167976 278.607422,20.0722656 C278.822267,19.9277337 278.996093,19.804688 279.128906,19.703125 C279.261719,19.601562 279.441405,19.4550791 279.667969,19.2636719 C279.894532,19.0722647 280.03125,18.9570314 280.078125,18.9179688 C281.703133,17.6288998 283.269524,16.3906309 284.777344,15.203125 C285.199221,14.8671858 285.591795,14.4160185 285.955078,13.8496094 C286.318361,13.2832003 286.5,12.7695336 286.5,12.3085938 Z M288,11.875 L288,24.625 C288,25.1406276 287.816408,25.5820294 287.449219,25.9492188 C287.082029,26.3164081 286.640628,26.5 286.125,26.5 L268.875,26.5 C268.359372,26.5 267.917971,26.3164081 267.550781,25.9492188 C267.183592,25.5820294 267,25.1406276 267,24.625 L267,11.875 C267,11.3593724 267.183592,10.9179706 267.550781,10.5507812 C267.917971,10.1835919 268.359372,10 268.875,10 L286.125,10 C286.640628,10 287.082029,10.1835919 287.449219,10.5507812 C287.816408,10.9179706 288,11.3593724 288,11.875 Z" id="-copy-4" fill-opacity="0.1"></path>
                    <path d="M292.214286,81.8035714 L292.214286,77.0892857 C292.083333,77.2366079 291.942151,77.3716512 291.790737,77.4944196 C290.694005,78.3374298 289.822362,79.0290152 289.175781,79.5691964 C288.967075,79.7451646 288.797248,79.882254 288.666295,79.9804687 C288.535342,80.0786835 288.358353,80.1779199 288.135324,80.2781808 C287.912294,80.3784417 287.702568,80.4285714 287.506138,80.4285714 L287.493862,80.4285714 C287.297432,80.4285714 287.087706,80.3784417 286.864676,80.2781808 C286.641647,80.1779199 286.464658,80.0786835 286.333705,79.9804687 C286.202752,79.882254 286.032925,79.7451646 285.824219,79.5691964 C285.177638,79.0290152 284.305995,78.3374298 283.209263,77.4944196 C283.057849,77.3716512 282.916667,77.2366079 282.785714,77.0892857 L282.785714,81.8035714 C282.785714,81.8567711 282.805152,81.9028086 282.844029,81.9416853 C282.882906,81.980562 282.928943,82 282.982143,82 L292.017857,82 C292.071057,82 292.117094,81.980562 292.155971,81.9416853 C292.194848,81.9028086 292.214286,81.8567711 292.214286,81.8035714 Z M292.214286,75.3521205 L292.214286,75.2017299 C292.214286,75.1833146 292.213263,75.1567152 292.211217,75.1219308 C292.20917,75.0871464 292.203032,75.06157 292.192801,75.0452009 C292.182571,75.0288318 292.171317,75.0104168 292.15904,74.9899554 C292.146763,74.9694939 292.128348,74.9541481 292.103795,74.9439174 C292.079241,74.9336867 292.050595,74.9285714 292.017857,74.9285714 L282.982143,74.9285714 C282.928943,74.9285714 282.882906,74.9480095 282.844029,74.9868862 C282.805152,75.0257628 282.785714,75.0718003 282.785714,75.125 C282.785714,75.8125034 283.086493,76.3935988 283.688058,76.8683036 C284.477869,77.4903305 285.298359,78.1389475 286.149554,78.8141741 C286.174107,78.8346355 286.245721,78.8949958 286.364397,78.9952567 C286.483074,79.0955176 286.577195,79.1722468 286.646763,79.2254464 C286.716332,79.2786461 286.807384,79.3430986 286.919922,79.4188058 C287.03246,79.494513 287.135788,79.5507811 287.229911,79.5876116 C287.324033,79.6244421 287.412016,79.6428571 287.493862,79.6428571 L287.506138,79.6428571 C287.587984,79.6428571 287.675967,79.6244421 287.770089,79.5876116 C287.864212,79.5507811 287.96754,79.494513 288.080078,79.4188058 C288.192616,79.3430986 288.283668,79.2786461 288.353237,79.2254464 C288.422805,79.1722468 288.516926,79.0955176 288.635603,78.9952567 C288.754279,78.8949958 288.825893,78.8346355 288.850446,78.8141741 C289.701641,78.1389475 290.522131,77.4903305 291.311942,76.8683036 C291.532925,76.6923354 291.738559,76.4560097 291.92885,76.1593192 C292.119142,75.8626287 292.214286,75.5935652 292.214286,75.3521205 Z M293,75.125 L293,81.8035714 C293,82.0736621 292.903833,82.3048726 292.711496,82.4972098 C292.519158,82.6895471 292.287948,82.7857143 292.017857,82.7857143 L282.982143,82.7857143 C282.712052,82.7857143 282.480842,82.6895471 282.288504,82.4972098 C282.096167,82.3048726 282,82.0736621 282,81.8035714 L282,75.125 C282,74.8549094 282.096167,74.6236989 282.288504,74.4313616 C282.480842,74.2390243 282.712052,74.1428571 282.982143,74.1428571 L292.017857,74.1428571 C292.287948,74.1428571 292.519158,74.2390243 292.711496,74.4313616 C292.903833,74.6236989 293,74.8549094 293,75.125 Z" id="-copy-5" fill-opacity="0.154891304"></path>
                    <path d="M40.2142857,58.8035714 L40.2142857,54.0892857 C40.0833327,54.2366079 39.9421511,54.3716512 39.7907366,54.4944196 C38.6940049,55.3374298 37.8223619,56.0290152 37.1757812,56.5691964 C36.9670748,56.7451646 36.7972477,56.882254 36.6662946,56.9804687 C36.5353416,57.0786835 36.358353,57.1779199 36.1353237,57.2781808 C35.9122943,57.3784417 35.7025679,57.4285714 35.5061384,57.4285714 L35.4938616,57.4285714 C35.2974321,57.4285714 35.0877057,57.3784417 34.8646763,57.2781808 C34.641647,57.1779199 34.4646584,57.0786835 34.3337054,56.9804687 C34.2027523,56.882254 34.0329252,56.7451646 33.8242188,56.5691964 C33.1776381,56.0290152 32.3059951,55.3374298 31.2092634,54.4944196 C31.0578489,54.3716512 30.9166673,54.2366079 30.7857143,54.0892857 L30.7857143,58.8035714 C30.7857143,58.8567711 30.8051523,58.9028086 30.844029,58.9416853 C30.8829057,58.980562 30.9289432,59 30.9821429,59 L40.0178571,59 C40.0710568,59 40.1170943,58.980562 40.155971,58.9416853 C40.1948477,58.9028086 40.2142857,58.8567711 40.2142857,58.8035714 Z M40.2142857,52.3521205 L40.2142857,52.2017299 C40.2142857,52.1833146 40.2132627,52.1567152 40.2112165,52.1219308 C40.2091704,52.0871464 40.203032,52.06157 40.1928013,52.0452009 C40.1825706,52.0288318 40.171317,52.0104168 40.1590402,51.9899554 C40.1467633,51.9694939 40.1283483,51.9541481 40.1037946,51.9439174 C40.0792409,51.9336867 40.0505954,51.9285714 40.0178571,51.9285714 L30.9821429,51.9285714 C30.9289432,51.9285714 30.8829057,51.9480095 30.844029,51.9868862 C30.8051523,52.0257628 30.7857143,52.0718003 30.7857143,52.125 C30.7857143,52.8125034 31.0864925,53.3935988 31.688058,53.8683036 C32.4778685,54.4903305 33.2983588,55.1389475 34.1495536,55.8141741 C34.1741073,55.8346355 34.2457211,55.8949958 34.3643973,55.9952567 C34.4830735,56.0955176 34.5771946,56.1722468 34.6467634,56.2254464 C34.7163322,56.2786461 34.8073841,56.3430986 34.9199219,56.4188058 C35.0324596,56.494513 35.1357882,56.5507811 35.2299107,56.5876116 C35.3240332,56.6244421 35.412016,56.6428571 35.4938616,56.6428571 L35.5061384,56.6428571 C35.587984,56.6428571 35.6759668,56.6244421 35.7700893,56.5876116 C35.8642118,56.5507811 35.9675404,56.494513 36.0800781,56.4188058 C36.1926159,56.3430986 36.2836678,56.2786461 36.3532366,56.2254464 C36.4228054,56.1722468 36.5169265,56.0955176 36.6356027,55.9952567 C36.7542789,55.8949958 36.8258927,55.8346355 36.8504464,55.8141741 C37.7016412,55.1389475 38.5221315,54.4903305 39.311942,53.8683036 C39.5329252,53.6923354 39.7385593,53.4560097 39.9288504,53.1593192 C40.1191416,52.8626287 40.2142857,52.5935652 40.2142857,52.3521205 Z M41,52.125 L41,58.8035714 C41,59.0736621 40.9038328,59.3048726 40.7114955,59.4972098 C40.5191583,59.6895471 40.2879478,59.7857143 40.0178571,59.7857143 L30.9821429,59.7857143 C30.7120522,59.7857143 30.4808417,59.6895471 30.2885045,59.4972098 C30.0961672,59.3048726 30,59.0736621 30,58.8035714 L30,52.125 C30,51.8549094 30.0961672,51.6236989 30.2885045,51.4313616 C30.4808417,51.2390243 30.7120522,51.1428571 30.9821429,51.1428571 L40.0178571,51.1428571 C40.2879478,51.1428571 40.5191583,51.2390243 40.7114955,51.4313616 C40.9038328,51.6236989 41,51.8549094 41,52.125 Z" id="-copy-6" fill-opacity="0.154891304"></path>
                    <path d="M10.2142857,28.8035714 L10.2142857,24.0892857 C10.0833327,24.2366079 9.94215105,24.3716512 9.79073661,24.4944196 C8.69400493,25.3374298 7.82236186,26.0290152 7.17578125,26.5691964 C6.96707485,26.7451646 6.79724768,26.882254 6.66629464,26.9804687 C6.53534161,27.0786835 6.35835305,27.1779199 6.13532366,27.2781808 C5.91229427,27.3784417 5.70256795,27.4285714 5.50613839,27.4285714 L5.49386161,27.4285714 C5.29743205,27.4285714 5.08770573,27.3784417 4.86467634,27.2781808 C4.64164695,27.1779199 4.46465839,27.0786835 4.33370536,26.9804687 C4.20275232,26.882254 4.03292515,26.7451646 3.82421875,26.5691964 C3.17763814,26.0290152 2.30599507,25.3374298 1.20926339,24.4944196 C1.05784895,24.3716512 0.916667321,24.2366079 0.785714286,24.0892857 L0.785714286,28.8035714 C0.785714286,28.8567711 0.805152335,28.9028086 0.844029018,28.9416853 C0.8829057,28.980562 0.928943186,29 0.982142857,29 L10.0178571,29 C10.0710568,29 10.1170943,28.980562 10.155971,28.9416853 C10.1948477,28.9028086 10.2142857,28.8567711 10.2142857,28.8035714 Z M10.2142857,22.3521205 L10.2142857,22.2017299 C10.2142857,22.1833146 10.2132627,22.1567152 10.2112165,22.1219308 C10.2091704,22.0871464 10.203032,22.06157 10.1928013,22.0452009 C10.1825706,22.0288318 10.171317,22.0104168 10.1590402,21.9899554 C10.1467633,21.9694939 10.1283483,21.9541481 10.1037946,21.9439174 C10.0792409,21.9336867 10.0505954,21.9285714 10.0178571,21.9285714 L0.982142857,21.9285714 C0.928943186,21.9285714 0.8829057,21.9480095 0.844029018,21.9868862 C0.805152335,22.0257628 0.785714286,22.0718003 0.785714286,22.125 C0.785714286,22.8125034 1.08649253,23.3935988 1.68805804,23.8683036 C2.47786853,24.4903305 3.29835884,25.1389475 4.14955357,25.8141741 C4.17410727,25.8346355 4.24572113,25.8949958 4.36439732,25.9952567 C4.48307351,26.0955176 4.57719459,26.1722468 4.64676339,26.2254464 C4.71633219,26.2786461 4.80738411,26.3430986 4.91992188,26.4188058 C5.03245964,26.494513 5.13578822,26.5507811 5.22991071,26.5876116 C5.32403321,26.6244421 5.41201596,26.6428571 5.49386161,26.6428571 L5.50613839,26.6428571 C5.58798404,26.6428571 5.67596679,26.6244421 5.77008929,26.5876116 C5.86421178,26.5507811 5.96754036,26.494513 6.08007812,26.4188058 C6.19261589,26.3430986 6.28366781,26.2786461 6.35323661,26.2254464 C6.42280541,26.1722468 6.51692649,26.0955176 6.63560268,25.9952567 C6.75427887,25.8949958 6.82589273,25.8346355 6.85044643,25.8141741 C7.70164116,25.1389475 8.52213147,24.4903305 9.31194196,23.8683036 C9.53292521,23.6923354 9.73855932,23.4560097 9.92885045,23.1593192 C10.1191416,22.8626287 10.2142857,22.5935652 10.2142857,22.3521205 Z M11,22.125 L11,28.8035714 C11,29.0736621 10.9038328,29.3048726 10.7114955,29.4972098 C10.5191583,29.6895471 10.2879478,29.7857143 10.0178571,29.7857143 L0.982142857,29.7857143 C0.712052221,29.7857143 0.480841735,29.6895471 0.288504464,29.4972098 C0.0961671931,29.3048726 0,29.0736621 0,28.8035714 L0,22.125 C0,21.8549094 0.0961671931,21.6236989 0.288504464,21.4313616 C0.480841735,21.2390243 0.712052221,21.1428571 0.982142857,21.1428571 L10.0178571,21.1428571 C10.2879478,21.1428571 10.5191583,21.2390243 10.7114955,21.4313616 C10.9038328,21.6236989 11,21.8549094 11,22.125 Z" id="-copy-7" fill-opacity="0.154891304"></path>
                    <path d="M320.214286,48.8035714 L320.214286,44.0892857 C320.083333,44.2366079 319.942151,44.3716512 319.790737,44.4944196 C318.694005,45.3374298 317.822362,46.0290152 317.175781,46.5691964 C316.967075,46.7451646 316.797248,46.882254 316.666295,46.9804687 C316.535342,47.0786835 316.358353,47.1779199 316.135324,47.2781808 C315.912294,47.3784417 315.702568,47.4285714 315.506138,47.4285714 L315.493862,47.4285714 C315.297432,47.4285714 315.087706,47.3784417 314.864676,47.2781808 C314.641647,47.1779199 314.464658,47.0786835 314.333705,46.9804687 C314.202752,46.882254 314.032925,46.7451646 313.824219,46.5691964 C313.177638,46.0290152 312.305995,45.3374298 311.209263,44.4944196 C311.057849,44.3716512 310.916667,44.2366079 310.785714,44.0892857 L310.785714,48.8035714 C310.785714,48.8567711 310.805152,48.9028086 310.844029,48.9416853 C310.882906,48.980562 310.928943,49 310.982143,49 L320.017857,49 C320.071057,49 320.117094,48.980562 320.155971,48.9416853 C320.194848,48.9028086 320.214286,48.8567711 320.214286,48.8035714 Z M320.214286,42.3521205 L320.214286,42.2017299 C320.214286,42.1833146 320.213263,42.1567152 320.211217,42.1219308 C320.20917,42.0871464 320.203032,42.06157 320.192801,42.0452009 C320.182571,42.0288318 320.171317,42.0104168 320.15904,41.9899554 C320.146763,41.9694939 320.128348,41.9541481 320.103795,41.9439174 C320.079241,41.9336867 320.050595,41.9285714 320.017857,41.9285714 L310.982143,41.9285714 C310.928943,41.9285714 310.882906,41.9480095 310.844029,41.9868862 C310.805152,42.0257628 310.785714,42.0718003 310.785714,42.125 C310.785714,42.8125034 311.086493,43.3935988 311.688058,43.8683036 C312.477869,44.4903305 313.298359,45.1389475 314.149554,45.8141741 C314.174107,45.8346355 314.245721,45.8949958 314.364397,45.9952567 C314.483074,46.0955176 314.577195,46.1722468 314.646763,46.2254464 C314.716332,46.2786461 314.807384,46.3430986 314.919922,46.4188058 C315.03246,46.494513 315.135788,46.5507811 315.229911,46.5876116 C315.324033,46.6244421 315.412016,46.6428571 315.493862,46.6428571 L315.506138,46.6428571 C315.587984,46.6428571 315.675967,46.6244421 315.770089,46.5876116 C315.864212,46.5507811 315.96754,46.494513 316.080078,46.4188058 C316.192616,46.3430986 316.283668,46.2786461 316.353237,46.2254464 C316.422805,46.1722468 316.516926,46.0955176 316.635603,45.9952567 C316.754279,45.8949958 316.825893,45.8346355 316.850446,45.8141741 C317.701641,45.1389475 318.522131,44.4903305 319.311942,43.8683036 C319.532925,43.6923354 319.738559,43.4560097 319.92885,43.1593192 C320.119142,42.8626287 320.214286,42.5935652 320.214286,42.3521205 Z M321,42.125 L321,48.8035714 C321,49.0736621 320.903833,49.3048726 320.711496,49.4972098 C320.519158,49.6895471 320.287948,49.7857143 320.017857,49.7857143 L310.982143,49.7857143 C310.712052,49.7857143 310.480842,49.6895471 310.288504,49.4972098 C310.096167,49.3048726 310,49.0736621 310,48.8035714 L310,42.125 C310,41.8549094 310.096167,41.6236989 310.288504,41.4313616 C310.480842,41.2390243 310.712052,41.1428571 310.982143,41.1428571 L320.017857,41.1428571 C320.287948,41.1428571 320.519158,41.2390243 320.711496,41.4313616 C320.903833,41.6236989 321,41.8549094 321,42.125 Z" id="-copy-8" fill-opacity="0.154891304"></path>
                </g>
            </g>
        </g>
    </g>
</svg>