<svg xmlns="http://www.w3.org/2000/svg" viewBox="0 0 128 128"><path fill="#DC4B3E" d="M0 0h128v128H0z"/><g fill="#FFF"><path d="M28.174 64.03c-.447-11.743 9.84-22.594 21.594-22.736 5.99-.511 11.818 1.814 16.355 5.611-1.86 2.043-3.756 4.066-5.774 5.959-3.993-2.425-8.798-4.273-13.462-2.633-7.528 2.143-12.08 11.026-9.3 18.388 2.308 7.686 11.66 11.904 18.987 8.674 3.797-1.357 6.294-4.86 7.392-8.621-4.349-.086-8.7-.033-13.048-.154-.008-2.587-.022-5.163-.008-7.75 7.251-.012 14.516-.033 21.779.034.444 6.337-.49 13.123-4.61 18.21-5.644 7.263-16.072 9.394-24.553 6.547-9.005-2.957-15.548-12.026-15.352-21.53M86.823 54.244h6.47c.01 2.164.031 4.337.042 6.502 2.165.021 4.34.03 6.505.044v6.48l-6.505.03a1788.73 1788.73 0 0 0-.042 6.514c-2.164-.01-4.33 0-6.482 0-.022-2.174-.022-4.34-.042-6.501-2.163-.022-4.34-.034-6.5-.044V60.79c2.16-.014 4.324-.023 6.5-.044.011-2.165.033-4.338.054-6.502"/></g></svg>
