<?xml version="1.0" encoding="UTF-8" standalone="no"?>
<svg width="183px" height="48px" viewBox="0 0 183 48" version="1.1" xmlns="http://www.w3.org/2000/svg" xmlns:xlink="http://www.w3.org/1999/xlink">
    <!-- Generator: Sketch 42 (36781) - http://www.bohemiancoding.com/sketch -->
    <title>Group 10</title>
    <desc>Created with Sketch.</desc>
    <defs></defs>
    <g id="Page-1" stroke="none" stroke-width="1" fill="none" fill-rule="evenodd">
        <g id="Widgets-in-icons" transform="translate(-768.000000, -319.000000)">
            <g id="Group-10" transform="translate(768.000000, 319.000000)">
                <g id="Group-9" fill="#E5EAEB">
                    <rect id="Rectangle" x="0" y="0" width="48" height="48"></rect>
                    <rect id="Rectangle" x="68" y="0" width="48" height="48"></rect>
                    <rect id="Rectangle" x="135" y="0" width="48" height="48"></rect>
                </g>
                <path d="M26.9968511,17.9927028 C26.5238758,17.9927028 25.9963264,18.5592608 25.9963264,19.3184996 L25.9963264,21.9496767 L30.9933526,21.9496767 L30.9933526,25.7012096 L25.9963264,25.7012096 L25.9963264,36.9685684 L21.2777679,36.9685684 L21.2777679,25.7024856 L17,25.7024856 L17,21.9496767 L21.2777679,21.9496767 L21.2777679,19.7421421 C21.2777679,16.5763078 23.6874232,14 26.9954517,14 L30.9933526,14 L30.9933526,17.9927028 L26.9968511,17.9927028 Z" id="facebook" fill="#FFFFFF"></path>
                <path d="M93.1212853,13.6265534 C78.2855744,13.6265534 78.0259344,14.9530724 78.0259344,25.3132767 C78.0259344,35.673481 78.2855744,37 93.1212853,37 C107.956996,37 108.216636,35.673481 108.216636,25.3132767 C108.216636,14.9530724 107.956996,13.6265534 93.1212853,13.6265534 L93.1212853,13.6265534 Z M97.9593453,25.8202073 L91.1815327,29.0014244 C90.5882854,29.2776561 90.1022151,28.9680338 90.1022151,28.3093276 L90.1022151,22.3172258 C90.1022151,21.6600374 90.5882854,21.3488973 91.1815327,21.625129 L97.9593453,24.8063461 C98.5525926,25.0856133 98.5525926,25.5409401 97.9593453,25.8202073 L97.9593453,25.8202073 Z" id="Shape" fill="#FFFFFF"></path>
                <path d="M159.185,13 C155.875744,13 155.460745,13.0139401 154.161109,13.0733322 C152.864144,13.1325641 151.978385,13.3385138 151.203347,13.6396938 C150.40203,13.9510752 149.722543,14.3677281 149.045138,15.0451295 C148.367734,15.722531 147.951079,16.4021222 147.639697,17.2033818 C147.338408,17.9784705 147.132458,18.8642251 147.073279,20.1611847 C147.01394,21.4608148 147,21.8757051 147,25.184947 C147,28.4942957 147.01394,28.909186 147.073279,30.2088162 C147.132458,31.5057758 147.338408,32.3915303 147.639697,33.166619 C147.951079,33.9678786 148.367734,34.6474699 149.045138,35.3248713 C149.722543,36.0022727 150.40203,36.4189256 151.203347,36.730307 C151.978385,37.0314871 152.864144,37.2374368 154.161109,37.2966687 C155.460745,37.355954 155.875744,37.3700008 159.185,37.3700008 C162.494257,37.3700008 162.909202,37.355954 164.208892,37.2966687 C165.505857,37.2374368 166.391615,37.0314871 167.166601,36.730307 C167.967971,36.4189256 168.647458,36.0022727 169.324862,35.3248713 C170.002267,34.6474699 170.418921,33.9678786 170.730304,33.166619 C171.031592,32.3915303 171.237543,31.5057758 171.296668,30.2088162 C171.356061,28.909186 171.370001,28.4942957 171.370001,25.184947 C171.370001,21.8757051 171.356061,21.4608148 171.296668,20.1611847 C171.237543,18.8642251 171.031592,17.9784705 170.730304,17.2033818 C170.418921,16.4021222 170.002267,15.722531 169.324862,15.0451295 C168.647458,14.3677281 167.967971,13.9510752 167.166601,13.6396938 C166.391615,13.3385138 165.505857,13.1325641 164.208892,13.0733322 C162.909202,13.0139401 162.494257,13 159.185,13 M159.185,15.1954258 C162.43855,15.1954258 162.823853,15.2078704 164.1088,15.2664614 C165.296755,15.3206727 165.942006,15.5192518 166.371373,15.6860518 C166.94014,15.9071166 167.346113,16.1711765 167.772435,16.5975501 C168.198864,17.023977 168.462925,17.429841 168.683937,17.9986061 C168.850738,18.4279706 169.049318,19.0732191 169.10353,20.2611685 C169.162121,21.5461109 169.174565,21.931412 169.174565,25.184947 C169.174565,28.4385889 169.162121,28.82389 169.10353,30.1087255 C169.049318,31.2967817 168.850738,31.9420302 168.683937,32.3713947 C168.462925,32.940053 168.198864,33.3460238 167.772435,33.7724508 C167.346113,34.1988243 166.94014,34.4628843 166.371373,34.6838956 C165.942006,34.8507491 165.296755,35.0493281 164.1088,35.1034327 C162.824066,35.1621305 162.438817,35.1744682 159.185,35.1744682 C155.931184,35.1744682 155.545935,35.1621305 154.2612,35.1034327 C153.073192,35.0493281 152.427994,34.8507491 151.998628,34.6838956 C151.42986,34.4628843 151.023888,34.1988243 150.597566,33.7724508 C150.17119,33.3460238 149.907129,32.940053 149.686064,32.3713947 C149.519263,31.9420302 149.320683,31.2967817 149.266471,30.1087255 C149.20788,28.82389 149.195435,28.4385889 149.195435,25.184947 C149.195435,21.931412 149.20788,21.5461109 149.266471,20.2611685 C149.320683,19.0732191 149.519263,18.4279706 149.686064,17.9986061 C149.907129,17.429841 150.17119,17.023977 150.597566,16.5975501 C151.023888,16.1711765 151.42986,15.9071166 151.998628,15.6860518 C152.427994,15.5192518 153.073192,15.3206727 154.2612,15.2664614 C155.546148,15.2078704 155.931451,15.1954258 159.185,15.1954258 Z M159.185,18.927858 C155.729293,18.927858 152.927863,21.7292758 152.927863,25.1849684 C152.927863,28.6407678 155.729293,31.4420788 159.185,31.4420788 C162.640708,31.4420788 165.442138,28.6407678 165.442138,25.1849684 C165.442138,21.7292758 162.640708,18.927858 159.185,18.927858 Z M159.185,29.246653 C156.941763,29.246653 155.123298,27.4281963 155.123298,25.1849684 C155.123298,22.9417405 156.941763,21.1232838 159.185,21.1232838 C161.428238,21.1232838 163.246703,22.9417405 163.246703,25.1849684 C163.246703,27.4281963 161.428238,29.246653 159.185,29.246653 Z M167.151614,18.6806169 C167.151614,17.8730548 166.497015,17.2184061 165.689396,17.2184061 C164.881884,17.2184061 164.227179,17.8730548 164.227179,18.6806169 C164.227179,19.4881255 164.881884,20.1428276 165.689396,20.1428276 C166.497015,20.1428276 167.151614,19.4881255 167.151614,18.6806169 Z" id="Combined-Shape" fill="#FFFFFF"></path>
            </g>
        </g>
    </g>
</svg>