<?xml version="1.0" encoding="UTF-8" standalone="no"?>
<svg width="205px" height="54px" viewBox="0 0 205 54" version="1.1" xmlns="http://www.w3.org/2000/svg" xmlns:xlink="http://www.w3.org/1999/xlink">
    <!-- Generator: Sketch 42 (36781) - http://www.bohemiancoding.com/sketch -->
    <title>Group 6</title>
    <desc>Created with Sketch.</desc>
    <defs></defs>
    <g id="Page-1" stroke="none" stroke-width="1" fill="none" fill-rule="evenodd">
        <g id="Widgets-in-icons" transform="translate(-757.000000, -136.000000)">
            <g id="Group-3" transform="translate(734.000000, 104.000000)">
                <g id="Group-6" transform="translate(26.000000, 32.000000)">
                    <g id="Group-4" transform="translate(35.000000, 0.000000)">
                        <rect id="Rectangle-6" fill="#E5EAEB" x="0" y="0" width="54" height="54" rx="5"></rect>
                        <circle id="Oval" fill="#FFFFFF" cx="41.5" cy="12.5" r="5.5"></circle>
                        <polygon id="Path-3" fill="#FFFFFF" points="6.32421875 47.5273438 41.6972656 47.6796875 15.6152344 20.6835938 6.32421875 30.8476562"></polygon>
                    </g>
                    <g id="Group-4" transform="translate(110.000000, 0.000000)">
                        <rect id="Rectangle-6" fill="#E5EAEB" x="0" y="0" width="54" height="54" rx="5"></rect>
                        <circle id="Oval" fill="#FFFFFF" cx="41.5" cy="12.5" r="5.5"></circle>
                        <polygon id="Path-3" fill="#FFFFFF" points="6.32421875 47.5273438 41.6972656 47.6796875 15.6152344 20.6835938 6.32421875 30.8476562"></polygon>
                    </g>
                    <g id="Group-5" transform="translate(186.000000, 12.000000)" stroke="#E5EAEB" stroke-width="4" stroke-linecap="square">
                        <path d="M0.40625,0.397435897 L12.59375,15.5" id="Line"></path>
                        <path d="M0.40625,15.5 L12.59375,30.6025641" id="Line" transform="translate(6.500000, 23.051282) scale(1, -1) translate(-6.500000, -23.051282) "></path>
                    </g>
                    <g id="Group-5" transform="translate(6.500000, 27.500000) scale(-1, 1) translate(-6.500000, -27.500000) translate(0.000000, 12.000000)" stroke="#E5EAEB" stroke-width="4" stroke-linecap="square">
                        <path d="M0.40625,0.397435897 L12.59375,15.5" id="Line"></path>
                        <path d="M0.40625,15.5 L12.59375,30.6025641" id="Line" transform="translate(6.500000, 23.051282) scale(1, -1) translate(-6.500000, -23.051282) "></path>
                    </g>
                </g>
            </g>
        </g>
    </g>
</svg>