<?xml version="1.0" encoding="UTF-8" standalone="no"?>
<svg width="211px" height="76px" viewBox="0 0 211 76" version="1.1" xmlns="http://www.w3.org/2000/svg" xmlns:xlink="http://www.w3.org/1999/xlink">
    <!-- Generator: Sketch 42 (36781) - http://www.bohemiancoding.com/sketch -->
    <title>Group 2</title>
    <desc>Created with Sketch.</desc>
    <defs></defs>
    <g id="Page-1" stroke="none" stroke-width="1" fill="none" fill-rule="evenodd">
        <g id="Widgets-in-icons" transform="translate(-754.000000, -487.000000)">
            <g id="Group-12" transform="translate(171.000000, 105.000000)">
                <g id="Group-3" transform="translate(281.000000, 0.000000)">
                    <g transform="translate(283.000000, 362.000000)" id="Group-2">
                        <g transform="translate(20.000000, 21.000000)">
                            <g id="Group-22">
                                <rect id="Rectangle" stroke="#E5EAEB" fill="#FFFFFF" x="0" y="0" width="62.0900002" height="74"></rect>
                                <g id="Group-21" transform="translate(10.594059, 40.047170)" fill="#E5EAEC">
                                    <rect id="Rectangle-3" x="0" y="0" width="41.1287129" height="3.83971081"></rect>
                                    <rect id="Rectangle-3" x="0" y="7.91147946" width="41.1287129" height="3.83971081"></rect>
                                    <rect id="Rectangle-3" x="0" y="15.8229589" width="27.6753956" height="3.83971081"></rect>
                                </g>
                                <g id="Group-7" transform="translate(9.980198, 10.518868)">
                                    <rect id="Rectangle-6" fill="#E5EAEB" x="0" y="0" width="42.970297" height="19.7134871" rx="5"></rect>
                                    <ellipse id="Oval" fill="#FFFFFF" cx="35.9677301" cy="6.67714885" rx="2.22808948" ry="2.22571628"></ellipse>
                                    <polygon id="Path-3" fill="#FFFFFF" points="14.7449292 16.7015663 26.0041168 16.7500055 17.7022455 8.16634183 14.7449292 11.3981017"></polygon>
                                    <polygon id="Path-3" fill="#E5EAEB" points="5.09277594 16.6860592 19.9564454 16.7500055 8.99683842 5.41839408 5.09277594 9.6847597"></polygon>
                                    <polygon id="Path-3" fill="#FFFFFF" points="2.86468647 16.6860592 17.7283559 16.7500055 6.76874895 5.41839408 2.86468647 9.6847597"></polygon>
                                </g>
                            </g>
                            <g id="Group-22" transform="translate(74.000000, 0.000000)">
                                <rect id="Rectangle" stroke="#E5EAEB" fill="#FFFFFF" x="0" y="0" width="62.0900002" height="74"></rect>
                                <g id="Group-21" transform="translate(10.594059, 40.047170)" fill="#E5EAEC">
                                    <rect id="Rectangle-3" x="0" y="0" width="41.1287129" height="3.83971081"></rect>
                                    <rect id="Rectangle-3" x="0" y="7.91147946" width="41.1287129" height="3.83971081"></rect>
                                    <rect id="Rectangle-3" x="0" y="15.8229589" width="27.6753956" height="3.83971081"></rect>
                                </g>
                                <g id="Group-7" transform="translate(9.980198, 10.518868)">
                                    <rect id="Rectangle-6" fill="#E5EAEB" x="0" y="0" width="42.970297" height="19.7134871" rx="5"></rect>
                                    <ellipse id="Oval" fill="#FFFFFF" cx="35.9677301" cy="6.67714885" rx="2.22808948" ry="2.22571628"></ellipse>
                                    <polygon id="Path-3" fill="#FFFFFF" points="14.7449292 16.7015663 26.0041168 16.7500055 17.7022455 8.16634183 14.7449292 11.3981017"></polygon>
                                    <polygon id="Path-3" fill="#E5EAEB" points="5.09277594 16.6860592 19.9564454 16.7500055 8.99683842 5.41839408 5.09277594 9.6847597"></polygon>
                                    <polygon id="Path-3" fill="#FFFFFF" points="2.86468647 16.6860592 17.7283559 16.7500055 6.76874895 5.41839408 2.86468647 9.6847597"></polygon>
                                </g>
                            </g>
                            <g id="Group-22" transform="translate(147.000000, 0.000000)">
                                <rect id="Rectangle" stroke="#E5EAEB" fill="#FFFFFF" x="0" y="0" width="62.0900002" height="74"></rect>
                                <g id="Group-21" transform="translate(10.594059, 40.047170)" fill="#E5EAEC">
                                    <rect id="Rectangle-3" x="0" y="0" width="41.1287129" height="3.83971081"></rect>
                                    <rect id="Rectangle-3" x="0" y="7.91147946" width="41.1287129" height="3.83971081"></rect>
                                    <rect id="Rectangle-3" x="0" y="15.8229589" width="27.6753956" height="3.83971081"></rect>
                                </g>
                                <g id="Group-7" transform="translate(9.980198, 10.518868)">
                                    <rect id="Rectangle-6" fill="#E5EAEB" x="0" y="0" width="42.970297" height="19.7134871" rx="5"></rect>
                                    <ellipse id="Oval" fill="#FFFFFF" cx="35.9677301" cy="6.67714885" rx="2.22808948" ry="2.22571628"></ellipse>
                                    <polygon id="Path-3" fill="#FFFFFF" points="14.7449292 16.7015663 26.0041168 16.7500055 17.7022455 8.16634183 14.7449292 11.3981017"></polygon>
                                    <polygon id="Path-3" fill="#E5EAEB" points="5.09277594 16.6860592 19.9564454 16.7500055 8.99683842 5.41839408 5.09277594 9.6847597"></polygon>
                                    <polygon id="Path-3" fill="#FFFFFF" points="2.86468647 16.6860592 17.7283559 16.7500055 6.76874895 5.41839408 2.86468647 9.6847597"></polygon>
                                </g>
                            </g>
                        </g>
                    </g>
                </g>
            </g>
        </g>
    </g>
</svg>