<?xml version="1.0" encoding="UTF-8" standalone="no"?>
<svg width="178px" height="114px" viewBox="0 0 178 114" version="1.1" xmlns="http://www.w3.org/2000/svg" xmlns:xlink="http://www.w3.org/1999/xlink">
    <!-- Generator: Sketch 42 (36781) - http://www.bohemiancoding.com/sketch -->
    <title>Group 11</title>
    <desc>Created with Sketch.</desc>
    <defs></defs>
    <g id="Page-1" stroke="none" stroke-width="1" fill="none" fill-rule="evenodd">
        <g id="Widgets-in-icons" transform="translate(-1051.000000, -286.000000)">
            <g id="Group-11" transform="translate(1015.000000, 286.000000)">
                <g transform="translate(36.000000, -13.000000)" id="Group-4">
                    <g>
                        <rect id="Rectangle-6" fill="#E5EAEB" x="0" y="0" width="54" height="54" rx="5"></rect>
                        <circle id="Oval" fill="#FFFFFF" cx="41.5" cy="12.5" r="5.5"></circle>
                        <polygon id="Path-3" fill="#FFFFFF" points="6.32421875 47.5273438 41.6972656 47.6796875 15.6152344 20.6835938 6.32421875 30.8476562"></polygon>
                    </g>
                    <g transform="translate(124.000000, 0.000000)">
                        <rect id="Rectangle-6" fill="#E5EAEB" x="0" y="0" width="54" height="54" rx="5"></rect>
                        <circle id="Oval" fill="#FFFFFF" cx="41.5" cy="12.5" r="5.5"></circle>
                        <polygon id="Path-3" fill="#FFFFFF" points="6.32421875 47.5273438 41.6972656 47.6796875 15.6152344 20.6835938 6.32421875 30.8476562"></polygon>
                    </g>
                    <g transform="translate(62.000000, 24.000000)">
                        <rect id="Rectangle-6" fill="#E5EAEB" x="0" y="0" width="54" height="54" rx="5"></rect>
                        <circle id="Oval" fill="#FFFFFF" cx="41.5" cy="12.5" r="5.5"></circle>
                        <polygon id="Path-3" fill="#FFFFFF" points="6.32421875 47.5273438 41.6972656 47.6796875 15.6152344 20.6835938 6.32421875 30.8476562"></polygon>
                    </g>
                    <g transform="translate(0.000000, 62.000000)">
                        <rect id="Rectangle-6" fill="#E5EAEB" x="0" y="0" width="54" height="54" rx="5"></rect>
                        <circle id="Oval" fill="#FFFFFF" cx="41.5" cy="12.5" r="5.5"></circle>
                        <polygon id="Path-3" fill="#FFFFFF" points="6.32421875 47.5273438 41.6972656 47.6796875 15.6152344 20.6835938 6.32421875 30.8476562"></polygon>
                    </g>
                    <g transform="translate(124.000000, 62.000000)">
                        <rect id="Rectangle-6" fill="#E5EAEB" x="0" y="0" width="54" height="54" rx="5"></rect>
                        <circle id="Oval" fill="#FFFFFF" cx="41.5" cy="12.5" r="5.5"></circle>
                        <polygon id="Path-3" fill="#FFFFFF" points="6.32421875 47.5273438 41.6972656 47.6796875 15.6152344 20.6835938 6.32421875 30.8476562"></polygon>
                    </g>
                    <g transform="translate(62.000000, 86.000000)">
                        <rect id="Rectangle-6" fill="#E5EAEB" x="0" y="0" width="54" height="54" rx="5"></rect>
                        <circle id="Oval" fill="#FFFFFF" cx="41.5" cy="12.5" r="5.5"></circle>
                        <polygon id="Path-3" fill="#FFFFFF" points="6.32421875 47.5273438 41.6972656 47.6796875 15.6152344 20.6835938 6.32421875 30.8476562"></polygon>
                    </g>
                </g>
            </g>
        </g>
    </g>
</svg>