<?xml version="1.0" encoding="UTF-8" standalone="no"?>
<svg width="79px" height="74px" viewBox="0 0 79 74" version="1.1" xmlns="http://www.w3.org/2000/svg" xmlns:xlink="http://www.w3.org/1999/xlink">
    <!-- Generator: Sketch 42 (36781) - http://www.bohemiancoding.com/sketch -->
    <title>Group 13</title>
    <desc>Created with Sketch.</desc>
    <defs></defs>
    <g id="Page-1" stroke="none" stroke-width="1" fill="none" fill-rule="evenodd">
        <g id="Widgets-in-icons" transform="translate(-256.000000, -476.000000)">
            <g id="Group-12" transform="translate(171.000000, 105.000000)">
                <g id="Group-3" transform="translate(0.000000, 361.000000)">
                    <g id="Group-13" transform="translate(85.000000, 10.000000)">
                        <path d="M7.64015318,50.8443786 C8.1641074,49.2734717 9.93640149,48 11.5793338,48 L68.0363419,48 C69.6879371,48 71.4509556,49.2716346 71.9755226,50.8443786 L78.7500559,71.1556214 C79.2740101,72.7265283 78.3474709,74 76.6927755,74 L2.92290024,74 C1.26274147,74 0.341052934,72.7283654 0.865619901,71.1556214 L7.64015318,50.8443786 Z" id="Rectangle-6" fill="#E5EAEB"></path>
                        <path d="M52.0324342,64.0104211 C56.5664712,64.0104211 75.0648685,35.7528964 75.0648685,23.0324342 C75.0648685,10.3119721 64.7528964,0 52.0324342,0 C39.3119721,0 29,10.3119721 29,23.0324342 C29,35.7528964 47.4983973,64.0104211 52.0324342,64.0104211 Z" id="Oval" fill="#FFFFFF"></path>
                        <path d="M52.1800003,55.1873867 C55.1682508,55.1873867 67.3600006,36.563683 67.3600006,28.1800003 C67.3600006,19.7963176 60.563683,13 52.1800003,13 C43.7963176,13 37,19.7963176 37,28.1800003 C37,36.563683 49.1917498,55.1873867 52.1800003,55.1873867 Z" id="Oval" fill="#E5EAEB"></path>
                        <circle id="Oval-3" fill="#FFFFFF" cx="52.5" cy="28.5" r="7.5"></circle>
                    </g>
                </g>
            </g>
        </g>
    </g>
</svg>