<svg xmlns="http://www.w3.org/2000/svg" width="30" height="26" viewBox="0 0 30 26">
  <defs>
    <style>
      .cls-1 {
        fill: #027ac4;
        fill-rule: evenodd;
      }
    </style>
  </defs>
  <path id="cam-icon.svg" class="cls-1" d="M682,656.5a4.5,4.5,0,1,0,4.5,4.5A4.5,4.5,0,0,0,682,656.5Zm11-6.5h-3.5l-0.8-2.125A3.124,3.124,0,0,0,686,646h-8a3.125,3.125,0,0,0-2.7,1.875L674.5,650H671a4.008,4.008,0,0,0-4,4v14a4.008,4.008,0,0,0,4,4h22a4.008,4.008,0,0,0,4-4V654A4.008,4.008,0,0,0,693,650Zm-11,18a7,7,0,1,1,7-7A7.009,7.009,0,0,1,682,668Z" transform="translate(-667 -646)"/>
</svg>
