<svg width="301" height="131" viewBox="0 0 301 131" fill="none" xmlns="http://www.w3.org/2000/svg">
<rect width="300" height="130" transform="translate(0.140869 0.514893)" fill="#3CB3E7"/>
<mask id="mask0" mask-type="alpha" maskUnits="userSpaceOnUse" x="0" y="0" width="301" height="131">
<rect width="300" height="130" transform="translate(0.140869 0.514893)" fill="#3CB3E7"/>
</mask>
<g mask="url(#mask0)">
<path d="M41.1157 28.2704V3.29364C41.1157 1.42725 39.6884 0 37.822 0H28.5998C27.5019 0 26.5138 0.603835 26.1296 1.59193C25.6904 2.58002 25.8551 3.7328 26.5687 4.55621C27.2824 5.37962 27.7764 6.4775 27.7764 7.4107C27.7764 8.89284 25.91 9.05752 25.1415 9.05752C24.373 9.05752 22.5066 8.89284 22.5066 7.4107C22.5066 6.53239 23.0006 5.37962 23.7142 4.55621C24.1534 4.06216 24.373 3.40343 24.373 2.7447C24.373 1.20767 23.1653 0 21.6283 0H12.3512C10.4848 0 9.05752 1.42725 9.05752 3.29364V9.66136C7.95964 9.2222 6.97155 9.00263 6.03835 9.00263C2.47023 9.00263 0 11.912 0 16.0291C0 20.1461 2.47023 23.0555 6.03835 23.0555C7.02644 23.0555 8.06943 22.8359 9.05752 22.4517V28.8194C9.05752 30.6858 10.4848 32.113 12.3512 32.113H18.7189C18.2797 33.2109 18.0602 34.199 18.0602 35.1322C18.0602 38.7003 20.9695 41.1706 25.0866 41.1706C29.2036 41.1706 32.113 38.7003 32.113 35.1322C32.113 34.1441 31.8935 33.1011 31.5092 32.113H37.8769C39.7433 32.113 41.1706 30.6858 41.1706 28.8194C41.1706 28.6547 41.1706 28.4351 41.1157 28.2704ZM26.1845 29.533C26.0747 29.7526 26.0747 30.0271 26.1296 30.3015C26.1845 30.5211 26.4041 30.7407 26.5687 30.8505C27.8313 31.7837 28.7645 33.6501 28.7645 35.1871C28.7645 37.2182 26.7334 37.9318 25.0317 37.9318C23.33 37.9318 21.2989 37.2182 21.2989 35.1871C21.2989 33.6501 22.287 31.7837 23.5496 30.8505L23.6045 30.7956C23.9338 30.4662 24.0436 30.082 23.9887 29.6428C23.8789 29.1488 23.4398 28.8194 22.8908 28.8194H12.3512V18.1699C12.3512 17.7308 12.0767 17.3465 11.6375 17.127L11.5278 17.0721H11.2533C10.869 17.0721 10.5397 17.2367 10.375 17.5112C9.44178 18.7738 7.57538 19.7619 6.03835 19.7619C4.00727 19.7619 3.29364 17.7308 3.29364 16.0291C3.29364 14.3274 4.00727 12.2963 6.03835 12.2963C7.57538 12.2963 9.44178 13.2844 10.375 14.5469L10.4299 14.6018C10.5946 14.7665 10.9788 14.9861 11.3082 14.9861H11.5278C12.0218 14.8763 12.3512 14.4371 12.3512 13.8882V3.29364H20.4755C19.6521 4.6111 19.158 6.09324 19.158 7.4107C19.158 10.375 21.5185 12.3512 25.0866 12.3512C28.6547 12.3512 31.0152 10.375 31.0152 7.4107C31.0152 6.03835 30.5211 4.55621 29.6977 3.29364H37.822V28.8194H27.2275C26.7883 28.8194 26.404 29.0939 26.1845 29.533Z" transform="translate(147.736 31.0069) rotate(-15)" fill="white"/>
<path d="M41.1157 28.2704V3.29364C41.1157 1.42725 39.6884 0 37.822 0H28.5998C27.5019 0 26.5138 0.603835 26.1296 1.59193C25.6904 2.58002 25.8551 3.7328 26.5687 4.55621C27.2824 5.37962 27.7764 6.4775 27.7764 7.4107C27.7764 8.89284 25.91 9.05752 25.1415 9.05752C24.373 9.05752 22.5066 8.89284 22.5066 7.4107C22.5066 6.53239 23.0006 5.37962 23.7142 4.55621C24.1534 4.06216 24.373 3.40343 24.373 2.7447C24.373 1.20767 23.1653 0 21.6283 0H12.3512C10.4848 0 9.05752 1.42725 9.05752 3.29364V9.66136C7.95964 9.2222 6.97155 9.00263 6.03835 9.00263C2.47023 9.00263 0 11.912 0 16.0291C0 20.1461 2.47023 23.0555 6.03835 23.0555C7.02644 23.0555 8.06943 22.8359 9.05752 22.4517V28.8194C9.05752 30.6858 10.4848 32.113 12.3512 32.113H18.7189C18.2797 33.2109 18.0602 34.199 18.0602 35.1322C18.0602 38.7003 20.9695 41.1706 25.0866 41.1706C29.2036 41.1706 32.113 38.7003 32.113 35.1322C32.113 34.1441 31.8935 33.1011 31.5092 32.113H37.8769C39.7433 32.113 41.1706 30.6858 41.1706 28.8194C41.1706 28.6547 41.1706 28.4351 41.1157 28.2704ZM26.1845 29.533C26.0747 29.7526 26.0747 30.0271 26.1296 30.3015C26.1845 30.5211 26.4041 30.7407 26.5687 30.8505C27.8313 31.7837 28.7645 33.6501 28.7645 35.1871C28.7645 37.2182 26.7334 37.9318 25.0317 37.9318C23.33 37.9318 21.2989 37.2182 21.2989 35.1871C21.2989 33.6501 22.287 31.7837 23.5496 30.8505L23.6045 30.7956C23.9338 30.4662 24.0436 30.082 23.9887 29.6428C23.8789 29.1488 23.4398 28.8194 22.8908 28.8194H12.3512V18.1699C12.3512 17.7308 12.0767 17.3465 11.6375 17.127L11.5278 17.0721H11.2533C10.869 17.0721 10.5397 17.2367 10.375 17.5112C9.44178 18.7738 7.57538 19.7619 6.03835 19.7619C4.00727 19.7619 3.29364 17.7308 3.29364 16.0291C3.29364 14.3274 4.00727 12.2963 6.03835 12.2963C7.57538 12.2963 9.44178 13.2844 10.375 14.5469L10.4299 14.6018C10.5946 14.7665 10.9788 14.9861 11.3082 14.9861H11.5278C12.0218 14.8763 12.3512 14.4371 12.3512 13.8882V3.29364H20.4755C19.6521 4.6111 19.158 6.09324 19.158 7.4107C19.158 10.375 21.5185 12.3512 25.0866 12.3512C28.6547 12.3512 31.0152 10.375 31.0152 7.4107C31.0152 6.03835 30.5211 4.55621 29.6977 3.29364H37.822V28.8194H27.2275C26.7883 28.8194 26.404 29.0939 26.1845 29.533Z" transform="translate(196.429 17.9595) rotate(-15)" fill="white"/>
<path d="M41.1157 28.2704V3.29364C41.1157 1.42725 39.6884 0 37.822 0H28.5998C27.5019 0 26.5138 0.603835 26.1296 1.59193C25.6904 2.58002 25.8551 3.7328 26.5687 4.55621C27.2824 5.37962 27.7764 6.4775 27.7764 7.4107C27.7764 8.89284 25.91 9.05752 25.1415 9.05752C24.373 9.05752 22.5066 8.89284 22.5066 7.4107C22.5066 6.53239 23.0006 5.37962 23.7142 4.55621C24.1534 4.06216 24.373 3.40343 24.373 2.7447C24.373 1.20767 23.1653 0 21.6283 0H12.3512C10.4848 0 9.05752 1.42725 9.05752 3.29364V9.66136C7.95964 9.2222 6.97155 9.00263 6.03835 9.00263C2.47023 9.00263 0 11.912 0 16.0291C0 20.1461 2.47023 23.0555 6.03835 23.0555C7.02644 23.0555 8.06943 22.8359 9.05752 22.4517V28.8194C9.05752 30.6858 10.4848 32.113 12.3512 32.113H18.7189C18.2797 33.2109 18.0602 34.199 18.0602 35.1322C18.0602 38.7003 20.9695 41.1706 25.0866 41.1706C29.2036 41.1706 32.113 38.7003 32.113 35.1322C32.113 34.1441 31.8935 33.1011 31.5092 32.113H37.8769C39.7433 32.113 41.1706 30.6858 41.1706 28.8194C41.1706 28.6547 41.1706 28.4351 41.1157 28.2704ZM26.1845 29.533C26.0747 29.7526 26.0747 30.0271 26.1296 30.3015C26.1845 30.5211 26.4041 30.7407 26.5687 30.8505C27.8313 31.7837 28.7645 33.6501 28.7645 35.1871C28.7645 37.2182 26.7334 37.9318 25.0317 37.9318C23.33 37.9318 21.2989 37.2182 21.2989 35.1871C21.2989 33.6501 22.287 31.7837 23.5496 30.8505L23.6045 30.7956C23.9338 30.4662 24.0436 30.082 23.9887 29.6428C23.8789 29.1488 23.4398 28.8194 22.8908 28.8194H12.3512V18.1699C12.3512 17.7308 12.0767 17.3465 11.6375 17.127L11.5278 17.0721H11.2533C10.869 17.0721 10.5397 17.2367 10.375 17.5112C9.44178 18.7738 7.57538 19.7619 6.03835 19.7619C4.00727 19.7619 3.29364 17.7308 3.29364 16.0291C3.29364 14.3274 4.00727 12.2963 6.03835 12.2963C7.57538 12.2963 9.44178 13.2844 10.375 14.5469L10.4299 14.6018C10.5946 14.7665 10.9788 14.9861 11.3082 14.9861H11.5278C12.0218 14.8763 12.3512 14.4371 12.3512 13.8882V3.29364H20.4755C19.6521 4.6111 19.158 6.09324 19.158 7.4107C19.158 10.375 21.5185 12.3512 25.0866 12.3512C28.6547 12.3512 31.0152 10.375 31.0152 7.4107C31.0152 6.03835 30.5211 4.55621 29.6977 3.29364H37.822V28.8194H27.2275C26.7883 28.8194 26.404 29.0939 26.1845 29.533Z" transform="translate(245.122 4.91223) rotate(-15)" fill="white"/>
<path d="M41.1157 28.2704V3.29364C41.1157 1.42725 39.6884 0 37.822 0H28.5998C27.5019 0 26.5138 0.603835 26.1296 1.59193C25.6904 2.58002 25.8551 3.7328 26.5687 4.55621C27.2824 5.37962 27.7764 6.4775 27.7764 7.4107C27.7764 8.89284 25.91 9.05752 25.1415 9.05752C24.373 9.05752 22.5066 8.89284 22.5066 7.4107C22.5066 6.53239 23.0006 5.37962 23.7142 4.55621C24.1534 4.06216 24.373 3.40343 24.373 2.7447C24.373 1.20767 23.1653 0 21.6283 0H12.3512C10.4848 0 9.05752 1.42725 9.05752 3.29364V9.66136C7.95964 9.2222 6.97155 9.00263 6.03835 9.00263C2.47023 9.00263 0 11.912 0 16.0291C0 20.1461 2.47023 23.0555 6.03835 23.0555C7.02644 23.0555 8.06943 22.8359 9.05752 22.4517V28.8194C9.05752 30.6858 10.4848 32.113 12.3512 32.113H18.7189C18.2797 33.2109 18.0602 34.199 18.0602 35.1322C18.0602 38.7003 20.9695 41.1706 25.0866 41.1706C29.2036 41.1706 32.113 38.7003 32.113 35.1322C32.113 34.1441 31.8935 33.1011 31.5092 32.113H37.8769C39.7433 32.113 41.1706 30.6858 41.1706 28.8194C41.1706 28.6547 41.1706 28.4351 41.1157 28.2704ZM26.1845 29.533C26.0747 29.7526 26.0747 30.0271 26.1296 30.3015C26.1845 30.5211 26.4041 30.7407 26.5687 30.8505C27.8313 31.7837 28.7645 33.6501 28.7645 35.1871C28.7645 37.2182 26.7334 37.9318 25.0317 37.9318C23.33 37.9318 21.2989 37.2182 21.2989 35.1871C21.2989 33.6501 22.287 31.7837 23.5496 30.8505L23.6045 30.7956C23.9338 30.4662 24.0436 30.082 23.9887 29.6428C23.8789 29.1488 23.4398 28.8194 22.8908 28.8194H12.3512V18.1699C12.3512 17.7308 12.0767 17.3465 11.6375 17.127L11.5278 17.0721H11.2533C10.869 17.0721 10.5397 17.2367 10.375 17.5112C9.44178 18.7738 7.57538 19.7619 6.03835 19.7619C4.00727 19.7619 3.29364 17.7308 3.29364 16.0291C3.29364 14.3274 4.00727 12.2963 6.03835 12.2963C7.57538 12.2963 9.44178 13.2844 10.375 14.5469L10.4299 14.6018C10.5946 14.7665 10.9788 14.9861 11.3082 14.9861H11.5278C12.0218 14.8763 12.3512 14.4371 12.3512 13.8882V3.29364H20.4755C19.6521 4.6111 19.158 6.09324 19.158 7.4107C19.158 10.375 21.5185 12.3512 25.0866 12.3512C28.6547 12.3512 31.0152 10.375 31.0152 7.4107C31.0152 6.03835 30.5211 4.55621 29.6977 3.29364H37.822V28.8194H27.2275C26.7883 28.8194 26.404 29.0939 26.1845 29.533Z" transform="translate(293.816 -8.13507) rotate(-15)" fill="white"/>
<path d="M41.1157 28.2704V3.29364C41.1157 1.42725 39.6884 0 37.822 0H28.5998C27.5019 0 26.5138 0.603835 26.1296 1.59193C25.6904 2.58002 25.8551 3.7328 26.5687 4.55621C27.2824 5.37962 27.7764 6.4775 27.7764 7.4107C27.7764 8.89284 25.91 9.05752 25.1415 9.05752C24.373 9.05752 22.5066 8.89284 22.5066 7.4107C22.5066 6.53239 23.0006 5.37962 23.7142 4.55621C24.1534 4.06216 24.373 3.40343 24.373 2.7447C24.373 1.20767 23.1653 0 21.6283 0H12.3512C10.4848 0 9.05752 1.42725 9.05752 3.29364V9.66136C7.95964 9.2222 6.97155 9.00263 6.03835 9.00263C2.47023 9.00263 0 11.912 0 16.0291C0 20.1461 2.47023 23.0555 6.03835 23.0555C7.02644 23.0555 8.06943 22.8359 9.05752 22.4517V28.8194C9.05752 30.6858 10.4848 32.113 12.3512 32.113H18.7189C18.2797 33.2109 18.0602 34.199 18.0602 35.1322C18.0602 38.7003 20.9695 41.1706 25.0866 41.1706C29.2036 41.1706 32.113 38.7003 32.113 35.1322C32.113 34.1441 31.8935 33.1011 31.5092 32.113H37.8769C39.7433 32.113 41.1706 30.6858 41.1706 28.8194C41.1706 28.6547 41.1706 28.4351 41.1157 28.2704ZM26.1845 29.533C26.0747 29.7526 26.0747 30.0271 26.1296 30.3015C26.1845 30.5211 26.4041 30.7407 26.5687 30.8505C27.8313 31.7837 28.7645 33.6501 28.7645 35.1871C28.7645 37.2182 26.7334 37.9318 25.0317 37.9318C23.33 37.9318 21.2989 37.2182 21.2989 35.1871C21.2989 33.6501 22.287 31.7837 23.5496 30.8505L23.6045 30.7956C23.9338 30.4662 24.0436 30.082 23.9887 29.6428C23.8789 29.1488 23.4398 28.8194 22.8908 28.8194H12.3512V18.1699C12.3512 17.7308 12.0767 17.3465 11.6375 17.127L11.5278 17.0721H11.2533C10.869 17.0721 10.5397 17.2367 10.375 17.5112C9.44178 18.7738 7.57538 19.7619 6.03835 19.7619C4.00727 19.7619 3.29364 17.7308 3.29364 16.0291C3.29364 14.3274 4.00727 12.2963 6.03835 12.2963C7.57538 12.2963 9.44178 13.2844 10.375 14.5469L10.4299 14.6018C10.5946 14.7665 10.9788 14.9861 11.3082 14.9861H11.5278C12.0218 14.8763 12.3512 14.4371 12.3512 13.8882V3.29364H20.4755C19.6521 4.6111 19.158 6.09324 19.158 7.4107C19.158 10.375 21.5185 12.3512 25.0866 12.3512C28.6547 12.3512 31.0152 10.375 31.0152 7.4107C31.0152 6.03835 30.5211 4.55621 29.6977 3.29364H37.822V28.8194H27.2275C26.7883 28.8194 26.404 29.0939 26.1845 29.533Z" transform="translate(99.0426 44.0542) rotate(-15)" fill="white"/>
<path d="M41.1157 28.2704V3.29364C41.1157 1.42725 39.6884 0 37.822 0H28.5998C27.5019 0 26.5138 0.603835 26.1296 1.59193C25.6904 2.58002 25.8551 3.7328 26.5687 4.55621C27.2824 5.37962 27.7764 6.4775 27.7764 7.4107C27.7764 8.89284 25.91 9.05752 25.1415 9.05752C24.373 9.05752 22.5066 8.89284 22.5066 7.4107C22.5066 6.53239 23.0006 5.37962 23.7142 4.55621C24.1534 4.06216 24.373 3.40343 24.373 2.7447C24.373 1.20767 23.1653 0 21.6283 0H12.3512C10.4848 0 9.05752 1.42725 9.05752 3.29364V9.66136C7.95964 9.2222 6.97155 9.00263 6.03835 9.00263C2.47023 9.00263 0 11.912 0 16.0291C0 20.1461 2.47023 23.0555 6.03835 23.0555C7.02644 23.0555 8.06943 22.8359 9.05752 22.4517V28.8194C9.05752 30.6858 10.4848 32.113 12.3512 32.113H18.7189C18.2797 33.2109 18.0602 34.199 18.0602 35.1322C18.0602 38.7003 20.9695 41.1706 25.0866 41.1706C29.2036 41.1706 32.113 38.7003 32.113 35.1322C32.113 34.1441 31.8935 33.1011 31.5092 32.113H37.8769C39.7433 32.113 41.1706 30.6858 41.1706 28.8194C41.1706 28.6547 41.1706 28.4351 41.1157 28.2704ZM26.1845 29.533C26.0747 29.7526 26.0747 30.0271 26.1296 30.3015C26.1845 30.5211 26.4041 30.7407 26.5687 30.8505C27.8313 31.7837 28.7645 33.6501 28.7645 35.1871C28.7645 37.2182 26.7334 37.9318 25.0317 37.9318C23.33 37.9318 21.2989 37.2182 21.2989 35.1871C21.2989 33.6501 22.287 31.7837 23.5496 30.8505L23.6045 30.7956C23.9338 30.4662 24.0436 30.082 23.9887 29.6428C23.8789 29.1488 23.4398 28.8194 22.8908 28.8194H12.3512V18.1699C12.3512 17.7308 12.0767 17.3465 11.6375 17.127L11.5278 17.0721H11.2533C10.869 17.0721 10.5397 17.2367 10.375 17.5112C9.44178 18.7738 7.57538 19.7619 6.03835 19.7619C4.00727 19.7619 3.29364 17.7308 3.29364 16.0291C3.29364 14.3274 4.00727 12.2963 6.03835 12.2963C7.57538 12.2963 9.44178 13.2844 10.375 14.5469L10.4299 14.6018C10.5946 14.7665 10.9788 14.9861 11.3082 14.9861H11.5278C12.0218 14.8763 12.3512 14.4371 12.3512 13.8882V3.29364H20.4755C19.6521 4.6111 19.158 6.09324 19.158 7.4107C19.158 10.375 21.5185 12.3512 25.0866 12.3512C28.6547 12.3512 31.0152 10.375 31.0152 7.4107C31.0152 6.03835 30.5211 4.55621 29.6977 3.29364H37.822V28.8194H27.2275C26.7883 28.8194 26.404 29.0939 26.1845 29.533Z" transform="translate(111.55 -7.65784) rotate(-15)" fill="white"/>
<path d="M41.1157 28.2704V3.29364C41.1157 1.42725 39.6884 0 37.822 0H28.5998C27.5019 0 26.5138 0.603835 26.1296 1.59193C25.6904 2.58002 25.8551 3.7328 26.5687 4.55621C27.2824 5.37962 27.7764 6.4775 27.7764 7.4107C27.7764 8.89284 25.91 9.05752 25.1415 9.05752C24.373 9.05752 22.5066 8.89284 22.5066 7.4107C22.5066 6.53239 23.0006 5.37962 23.7142 4.55621C24.1534 4.06216 24.373 3.40343 24.373 2.7447C24.373 1.20767 23.1653 0 21.6283 0H12.3512C10.4848 0 9.05752 1.42725 9.05752 3.29364V9.66136C7.95964 9.2222 6.97155 9.00263 6.03835 9.00263C2.47023 9.00263 0 11.912 0 16.0291C0 20.1461 2.47023 23.0555 6.03835 23.0555C7.02644 23.0555 8.06943 22.8359 9.05752 22.4517V28.8194C9.05752 30.6858 10.4848 32.113 12.3512 32.113H18.7189C18.2797 33.2109 18.0602 34.199 18.0602 35.1322C18.0602 38.7003 20.9695 41.1706 25.0866 41.1706C29.2036 41.1706 32.113 38.7003 32.113 35.1322C32.113 34.1441 31.8935 33.1011 31.5092 32.113H37.8769C39.7433 32.113 41.1706 30.6858 41.1706 28.8194C41.1706 28.6547 41.1706 28.4351 41.1157 28.2704ZM26.1845 29.533C26.0747 29.7526 26.0747 30.0271 26.1296 30.3015C26.1845 30.5211 26.4041 30.7407 26.5687 30.8505C27.8313 31.7837 28.7645 33.6501 28.7645 35.1871C28.7645 37.2182 26.7334 37.9318 25.0317 37.9318C23.33 37.9318 21.2989 37.2182 21.2989 35.1871C21.2989 33.6501 22.287 31.7837 23.5496 30.8505L23.6045 30.7956C23.9338 30.4662 24.0436 30.082 23.9887 29.6428C23.8789 29.1488 23.4398 28.8194 22.8908 28.8194H12.3512V18.1699C12.3512 17.7308 12.0767 17.3465 11.6375 17.127L11.5278 17.0721H11.2533C10.869 17.0721 10.5397 17.2367 10.375 17.5112C9.44178 18.7738 7.57538 19.7619 6.03835 19.7619C4.00727 19.7619 3.29364 17.7308 3.29364 16.0291C3.29364 14.3274 4.00727 12.2963 6.03835 12.2963C7.57538 12.2963 9.44178 13.2844 10.375 14.5469L10.4299 14.6018C10.5946 14.7665 10.9788 14.9861 11.3082 14.9861H11.5278C12.0218 14.8763 12.3512 14.4371 12.3512 13.8882V3.29364H20.4755C19.6521 4.6111 19.158 6.09324 19.158 7.4107C19.158 10.375 21.5185 12.3512 25.0866 12.3512C28.6547 12.3512 31.0152 10.375 31.0152 7.4107C31.0152 6.03835 30.5211 4.55621 29.6977 3.29364H37.822V28.8194H27.2275C26.7883 28.8194 26.404 29.0939 26.1845 29.533Z" transform="translate(160.244 -20.7052) rotate(-15)" fill="white"/>
<path d="M41.1157 28.2704V3.29364C41.1157 1.42725 39.6884 0 37.822 0H28.5998C27.5019 0 26.5138 0.603835 26.1296 1.59193C25.6904 2.58002 25.8551 3.7328 26.5687 4.55621C27.2824 5.37962 27.7764 6.4775 27.7764 7.4107C27.7764 8.89284 25.91 9.05752 25.1415 9.05752C24.373 9.05752 22.5066 8.89284 22.5066 7.4107C22.5066 6.53239 23.0006 5.37962 23.7142 4.55621C24.1534 4.06216 24.373 3.40343 24.373 2.7447C24.373 1.20767 23.1653 0 21.6283 0H12.3512C10.4848 0 9.05752 1.42725 9.05752 3.29364V9.66136C7.95964 9.2222 6.97155 9.00263 6.03835 9.00263C2.47023 9.00263 0 11.912 0 16.0291C0 20.1461 2.47023 23.0555 6.03835 23.0555C7.02644 23.0555 8.06943 22.8359 9.05752 22.4517V28.8194C9.05752 30.6858 10.4848 32.113 12.3512 32.113H18.7189C18.2797 33.2109 18.0602 34.199 18.0602 35.1322C18.0602 38.7003 20.9695 41.1706 25.0866 41.1706C29.2036 41.1706 32.113 38.7003 32.113 35.1322C32.113 34.1441 31.8935 33.1011 31.5092 32.113H37.8769C39.7433 32.113 41.1706 30.6858 41.1706 28.8194C41.1706 28.6547 41.1706 28.4351 41.1157 28.2704ZM26.1845 29.533C26.0747 29.7526 26.0747 30.0271 26.1296 30.3015C26.1845 30.5211 26.4041 30.7407 26.5687 30.8505C27.8313 31.7837 28.7645 33.6501 28.7645 35.1871C28.7645 37.2182 26.7334 37.9318 25.0317 37.9318C23.33 37.9318 21.2989 37.2182 21.2989 35.1871C21.2989 33.6501 22.287 31.7837 23.5496 30.8505L23.6045 30.7956C23.9338 30.4662 24.0436 30.082 23.9887 29.6428C23.8789 29.1488 23.4398 28.8194 22.8908 28.8194H12.3512V18.1699C12.3512 17.7308 12.0767 17.3465 11.6375 17.127L11.5278 17.0721H11.2533C10.869 17.0721 10.5397 17.2367 10.375 17.5112C9.44178 18.7738 7.57538 19.7619 6.03835 19.7619C4.00727 19.7619 3.29364 17.7308 3.29364 16.0291C3.29364 14.3274 4.00727 12.2963 6.03835 12.2963C7.57538 12.2963 9.44178 13.2844 10.375 14.5469L10.4299 14.6018C10.5946 14.7665 10.9788 14.9861 11.3082 14.9861H11.5278C12.0218 14.8763 12.3512 14.4371 12.3512 13.8882V3.29364H20.4755C19.6521 4.6111 19.158 6.09324 19.158 7.4107C19.158 10.375 21.5185 12.3512 25.0866 12.3512C28.6547 12.3512 31.0152 10.375 31.0152 7.4107C31.0152 6.03835 30.5211 4.55621 29.6977 3.29364H37.822V28.8194H27.2275C26.7883 28.8194 26.404 29.0939 26.1845 29.533Z" transform="translate(62.8572 5.38947) rotate(-15)" fill="white"/>
<path d="M41.1157 28.2704V3.29364C41.1157 1.42725 39.6884 0 37.822 0H28.5998C27.5019 0 26.5138 0.603835 26.1296 1.59193C25.6904 2.58002 25.8551 3.7328 26.5687 4.55621C27.2824 5.37962 27.7764 6.4775 27.7764 7.4107C27.7764 8.89284 25.91 9.05752 25.1415 9.05752C24.373 9.05752 22.5066 8.89284 22.5066 7.4107C22.5066 6.53239 23.0006 5.37962 23.7142 4.55621C24.1534 4.06216 24.373 3.40343 24.373 2.7447C24.373 1.20767 23.1653 0 21.6283 0H12.3512C10.4848 0 9.05752 1.42725 9.05752 3.29364V9.66136C7.95964 9.2222 6.97155 9.00263 6.03835 9.00263C2.47023 9.00263 0 11.912 0 16.0291C0 20.1461 2.47023 23.0555 6.03835 23.0555C7.02644 23.0555 8.06943 22.8359 9.05752 22.4517V28.8194C9.05752 30.6858 10.4848 32.113 12.3512 32.113H18.7189C18.2797 33.2109 18.0602 34.199 18.0602 35.1322C18.0602 38.7003 20.9695 41.1706 25.0866 41.1706C29.2036 41.1706 32.113 38.7003 32.113 35.1322C32.113 34.1441 31.8935 33.1011 31.5092 32.113H37.8769C39.7433 32.113 41.1706 30.6858 41.1706 28.8194C41.1706 28.6547 41.1706 28.4351 41.1157 28.2704ZM26.1845 29.533C26.0747 29.7526 26.0747 30.0271 26.1296 30.3015C26.1845 30.5211 26.4041 30.7407 26.5687 30.8505C27.8313 31.7837 28.7645 33.6501 28.7645 35.1871C28.7645 37.2182 26.7334 37.9318 25.0317 37.9318C23.33 37.9318 21.2989 37.2182 21.2989 35.1871C21.2989 33.6501 22.287 31.7837 23.5496 30.8505L23.6045 30.7956C23.9338 30.4662 24.0436 30.082 23.9887 29.6428C23.8789 29.1488 23.4398 28.8194 22.8908 28.8194H12.3512V18.1699C12.3512 17.7308 12.0767 17.3465 11.6375 17.127L11.5278 17.0721H11.2533C10.869 17.0721 10.5397 17.2367 10.375 17.5112C9.44178 18.7738 7.57538 19.7619 6.03835 19.7619C4.00727 19.7619 3.29364 17.7308 3.29364 16.0291C3.29364 14.3274 4.00727 12.2963 6.03835 12.2963C7.57538 12.2963 9.44178 13.2844 10.375 14.5469L10.4299 14.6018C10.5946 14.7665 10.9788 14.9861 11.3082 14.9861H11.5278C12.0218 14.8763 12.3512 14.4371 12.3512 13.8882V3.29364H20.4755C19.6521 4.6111 19.158 6.09324 19.158 7.4107C19.158 10.375 21.5185 12.3512 25.0866 12.3512C28.6547 12.3512 31.0152 10.375 31.0152 7.4107C31.0152 6.03835 30.5211 4.55621 29.6977 3.29364H37.822V28.8194H27.2275C26.7883 28.8194 26.404 29.0939 26.1845 29.533Z" transform="translate(170.423 115.678) rotate(-15)" fill="white"/>
<path d="M41.1157 28.2704V3.29364C41.1157 1.42725 39.6884 0 37.822 0H28.5998C27.5019 0 26.5138 0.603835 26.1296 1.59193C25.6904 2.58002 25.8551 3.7328 26.5687 4.55621C27.2824 5.37962 27.7764 6.4775 27.7764 7.4107C27.7764 8.89284 25.91 9.05752 25.1415 9.05752C24.373 9.05752 22.5066 8.89284 22.5066 7.4107C22.5066 6.53239 23.0006 5.37962 23.7142 4.55621C24.1534 4.06216 24.373 3.40343 24.373 2.7447C24.373 1.20767 23.1653 0 21.6283 0H12.3512C10.4848 0 9.05752 1.42725 9.05752 3.29364V9.66136C7.95964 9.2222 6.97155 9.00263 6.03835 9.00263C2.47023 9.00263 0 11.912 0 16.0291C0 20.1461 2.47023 23.0555 6.03835 23.0555C7.02644 23.0555 8.06943 22.8359 9.05752 22.4517V28.8194C9.05752 30.6858 10.4848 32.113 12.3512 32.113H18.7189C18.2797 33.2109 18.0602 34.199 18.0602 35.1322C18.0602 38.7003 20.9695 41.1706 25.0866 41.1706C29.2036 41.1706 32.113 38.7003 32.113 35.1322C32.113 34.1441 31.8935 33.1011 31.5092 32.113H37.8769C39.7433 32.113 41.1706 30.6858 41.1706 28.8194C41.1706 28.6547 41.1706 28.4351 41.1157 28.2704ZM26.1845 29.533C26.0747 29.7526 26.0747 30.0271 26.1296 30.3015C26.1845 30.5211 26.4041 30.7407 26.5687 30.8505C27.8313 31.7837 28.7645 33.6501 28.7645 35.1871C28.7645 37.2182 26.7334 37.9318 25.0317 37.9318C23.33 37.9318 21.2989 37.2182 21.2989 35.1871C21.2989 33.6501 22.287 31.7837 23.5496 30.8505L23.6045 30.7956C23.9338 30.4662 24.0436 30.082 23.9887 29.6428C23.8789 29.1488 23.4398 28.8194 22.8908 28.8194H12.3512V18.1699C12.3512 17.7308 12.0767 17.3465 11.6375 17.127L11.5278 17.0721H11.2533C10.869 17.0721 10.5397 17.2367 10.375 17.5112C9.44178 18.7738 7.57538 19.7619 6.03835 19.7619C4.00727 19.7619 3.29364 17.7308 3.29364 16.0291C3.29364 14.3274 4.00727 12.2963 6.03835 12.2963C7.57538 12.2963 9.44178 13.2844 10.375 14.5469L10.4299 14.6018C10.5946 14.7665 10.9788 14.9861 11.3082 14.9861H11.5278C12.0218 14.8763 12.3512 14.4371 12.3512 13.8882V3.29364H20.4755C19.6521 4.6111 19.158 6.09324 19.158 7.4107C19.158 10.375 21.5185 12.3512 25.0866 12.3512C28.6547 12.3512 31.0152 10.375 31.0152 7.4107C31.0152 6.03835 30.5211 4.55621 29.6977 3.29364H37.822V28.8194H27.2275C26.7883 28.8194 26.404 29.0939 26.1845 29.533Z" transform="translate(219.117 102.63) rotate(-15)" fill="white"/>
<path d="M41.1157 28.2704V3.29364C41.1157 1.42725 39.6884 0 37.822 0H28.5998C27.5019 0 26.5138 0.603835 26.1296 1.59193C25.6904 2.58002 25.8551 3.7328 26.5687 4.55621C27.2824 5.37962 27.7764 6.4775 27.7764 7.4107C27.7764 8.89284 25.91 9.05752 25.1415 9.05752C24.373 9.05752 22.5066 8.89284 22.5066 7.4107C22.5066 6.53239 23.0006 5.37962 23.7142 4.55621C24.1534 4.06216 24.373 3.40343 24.373 2.7447C24.373 1.20767 23.1653 0 21.6283 0H12.3512C10.4848 0 9.05752 1.42725 9.05752 3.29364V9.66136C7.95964 9.2222 6.97155 9.00263 6.03835 9.00263C2.47023 9.00263 0 11.912 0 16.0291C0 20.1461 2.47023 23.0555 6.03835 23.0555C7.02644 23.0555 8.06943 22.8359 9.05752 22.4517V28.8194C9.05752 30.6858 10.4848 32.113 12.3512 32.113H18.7189C18.2797 33.2109 18.0602 34.199 18.0602 35.1322C18.0602 38.7003 20.9695 41.1706 25.0866 41.1706C29.2036 41.1706 32.113 38.7003 32.113 35.1322C32.113 34.1441 31.8935 33.1011 31.5092 32.113H37.8769C39.7433 32.113 41.1706 30.6858 41.1706 28.8194C41.1706 28.6547 41.1706 28.4351 41.1157 28.2704ZM26.1845 29.533C26.0747 29.7526 26.0747 30.0271 26.1296 30.3015C26.1845 30.5211 26.4041 30.7407 26.5687 30.8505C27.8313 31.7837 28.7645 33.6501 28.7645 35.1871C28.7645 37.2182 26.7334 37.9318 25.0317 37.9318C23.33 37.9318 21.2989 37.2182 21.2989 35.1871C21.2989 33.6501 22.287 31.7837 23.5496 30.8505L23.6045 30.7956C23.9338 30.4662 24.0436 30.082 23.9887 29.6428C23.8789 29.1488 23.4398 28.8194 22.8908 28.8194H12.3512V18.1699C12.3512 17.7308 12.0767 17.3465 11.6375 17.127L11.5278 17.0721H11.2533C10.869 17.0721 10.5397 17.2367 10.375 17.5112C9.44178 18.7738 7.57538 19.7619 6.03835 19.7619C4.00727 19.7619 3.29364 17.7308 3.29364 16.0291C3.29364 14.3274 4.00727 12.2963 6.03835 12.2963C7.57538 12.2963 9.44178 13.2844 10.375 14.5469L10.4299 14.6018C10.5946 14.7665 10.9788 14.9861 11.3082 14.9861H11.5278C12.0218 14.8763 12.3512 14.4371 12.3512 13.8882V3.29364H20.4755C19.6521 4.6111 19.158 6.09324 19.158 7.4107C19.158 10.375 21.5185 12.3512 25.0866 12.3512C28.6547 12.3512 31.0152 10.375 31.0152 7.4107C31.0152 6.03835 30.5211 4.55621 29.6977 3.29364H37.822V28.8194H27.2275C26.7883 28.8194 26.404 29.0939 26.1845 29.533Z" transform="translate(267.81 89.583) rotate(-15)" fill="white"/>
<path d="M41.1157 28.2704V3.29364C41.1157 1.42725 39.6884 0 37.822 0H28.5998C27.5019 0 26.5138 0.603835 26.1296 1.59193C25.6904 2.58002 25.8551 3.7328 26.5687 4.55621C27.2824 5.37962 27.7764 6.4775 27.7764 7.4107C27.7764 8.89284 25.91 9.05752 25.1415 9.05752C24.373 9.05752 22.5066 8.89284 22.5066 7.4107C22.5066 6.53239 23.0006 5.37962 23.7142 4.55621C24.1534 4.06216 24.373 3.40343 24.373 2.7447C24.373 1.20767 23.1653 0 21.6283 0H12.3512C10.4848 0 9.05752 1.42725 9.05752 3.29364V9.66136C7.95964 9.2222 6.97155 9.00263 6.03835 9.00263C2.47023 9.00263 0 11.912 0 16.0291C0 20.1461 2.47023 23.0555 6.03835 23.0555C7.02644 23.0555 8.06943 22.8359 9.05752 22.4517V28.8194C9.05752 30.6858 10.4848 32.113 12.3512 32.113H18.7189C18.2797 33.2109 18.0602 34.199 18.0602 35.1322C18.0602 38.7003 20.9695 41.1706 25.0866 41.1706C29.2036 41.1706 32.113 38.7003 32.113 35.1322C32.113 34.1441 31.8935 33.1011 31.5092 32.113H37.8769C39.7433 32.113 41.1706 30.6858 41.1706 28.8194C41.1706 28.6547 41.1706 28.4351 41.1157 28.2704ZM26.1845 29.533C26.0747 29.7526 26.0747 30.0271 26.1296 30.3015C26.1845 30.5211 26.4041 30.7407 26.5687 30.8505C27.8313 31.7837 28.7645 33.6501 28.7645 35.1871C28.7645 37.2182 26.7334 37.9318 25.0317 37.9318C23.33 37.9318 21.2989 37.2182 21.2989 35.1871C21.2989 33.6501 22.287 31.7837 23.5496 30.8505L23.6045 30.7956C23.9338 30.4662 24.0436 30.082 23.9887 29.6428C23.8789 29.1488 23.4398 28.8194 22.8908 28.8194H12.3512V18.1699C12.3512 17.7308 12.0767 17.3465 11.6375 17.127L11.5278 17.0721H11.2533C10.869 17.0721 10.5397 17.2367 10.375 17.5112C9.44178 18.7738 7.57538 19.7619 6.03835 19.7619C4.00727 19.7619 3.29364 17.7308 3.29364 16.0291C3.29364 14.3274 4.00727 12.2963 6.03835 12.2963C7.57538 12.2963 9.44178 13.2844 10.375 14.5469L10.4299 14.6018C10.5946 14.7665 10.9788 14.9861 11.3082 14.9861H11.5278C12.0218 14.8763 12.3512 14.4371 12.3512 13.8882V3.29364H20.4755C19.6521 4.6111 19.158 6.09324 19.158 7.4107C19.158 10.375 21.5185 12.3512 25.0866 12.3512C28.6547 12.3512 31.0152 10.375 31.0152 7.4107C31.0152 6.03835 30.5211 4.55621 29.6977 3.29364H37.822V28.8194H27.2275C26.7883 28.8194 26.404 29.0939 26.1845 29.533Z" transform="translate(121.73 128.725) rotate(-15)" fill="white"/>
<path d="M41.1157 28.2704V3.29364C41.1157 1.42725 39.6884 0 37.822 0H28.5998C27.5019 0 26.5138 0.603835 26.1296 1.59193C25.6904 2.58002 25.8551 3.7328 26.5687 4.55621C27.2824 5.37962 27.7764 6.4775 27.7764 7.4107C27.7764 8.89284 25.91 9.05752 25.1415 9.05752C24.373 9.05752 22.5066 8.89284 22.5066 7.4107C22.5066 6.53239 23.0006 5.37962 23.7142 4.55621C24.1534 4.06216 24.373 3.40343 24.373 2.7447C24.373 1.20767 23.1653 0 21.6283 0H12.3512C10.4848 0 9.05752 1.42725 9.05752 3.29364V9.66136C7.95964 9.2222 6.97155 9.00263 6.03835 9.00263C2.47023 9.00263 0 11.912 0 16.0291C0 20.1461 2.47023 23.0555 6.03835 23.0555C7.02644 23.0555 8.06943 22.8359 9.05752 22.4517V28.8194C9.05752 30.6858 10.4848 32.113 12.3512 32.113H18.7189C18.2797 33.2109 18.0602 34.199 18.0602 35.1322C18.0602 38.7003 20.9695 41.1706 25.0866 41.1706C29.2036 41.1706 32.113 38.7003 32.113 35.1322C32.113 34.1441 31.8935 33.1011 31.5092 32.113H37.8769C39.7433 32.113 41.1706 30.6858 41.1706 28.8194C41.1706 28.6547 41.1706 28.4351 41.1157 28.2704ZM26.1845 29.533C26.0747 29.7526 26.0747 30.0271 26.1296 30.3015C26.1845 30.5211 26.4041 30.7407 26.5687 30.8505C27.8313 31.7837 28.7645 33.6501 28.7645 35.1871C28.7645 37.2182 26.7334 37.9318 25.0317 37.9318C23.33 37.9318 21.2989 37.2182 21.2989 35.1871C21.2989 33.6501 22.287 31.7837 23.5496 30.8505L23.6045 30.7956C23.9338 30.4662 24.0436 30.082 23.9887 29.6428C23.8789 29.1488 23.4398 28.8194 22.8908 28.8194H12.3512V18.1699C12.3512 17.7308 12.0767 17.3465 11.6375 17.127L11.5278 17.0721H11.2533C10.869 17.0721 10.5397 17.2367 10.375 17.5112C9.44178 18.7738 7.57538 19.7619 6.03835 19.7619C4.00727 19.7619 3.29364 17.7308 3.29364 16.0291C3.29364 14.3274 4.00727 12.2963 6.03835 12.2963C7.57538 12.2963 9.44178 13.2844 10.375 14.5469L10.4299 14.6018C10.5946 14.7665 10.9788 14.9861 11.3082 14.9861H11.5278C12.0218 14.8763 12.3512 14.4371 12.3512 13.8882V3.29364H20.4755C19.6521 4.6111 19.158 6.09324 19.158 7.4107C19.158 10.375 21.5185 12.3512 25.0866 12.3512C28.6547 12.3512 31.0152 10.375 31.0152 7.4107C31.0152 6.03835 30.5211 4.55621 29.6977 3.29364H37.822V28.8194H27.2275C26.7883 28.8194 26.404 29.0939 26.1845 29.533Z" transform="translate(134.238 77.0129) rotate(-15)" fill="white"/>
<path d="M41.1157 28.2704V3.29364C41.1157 1.42725 39.6884 0 37.822 0H28.5998C27.5019 0 26.5138 0.603835 26.1296 1.59193C25.6904 2.58002 25.8551 3.7328 26.5687 4.55621C27.2824 5.37962 27.7764 6.4775 27.7764 7.4107C27.7764 8.89284 25.91 9.05752 25.1415 9.05752C24.373 9.05752 22.5066 8.89284 22.5066 7.4107C22.5066 6.53239 23.0006 5.37962 23.7142 4.55621C24.1534 4.06216 24.373 3.40343 24.373 2.7447C24.373 1.20767 23.1653 0 21.6283 0H12.3512C10.4848 0 9.05752 1.42725 9.05752 3.29364V9.66136C7.95964 9.2222 6.97155 9.00263 6.03835 9.00263C2.47023 9.00263 0 11.912 0 16.0291C0 20.1461 2.47023 23.0555 6.03835 23.0555C7.02644 23.0555 8.06943 22.8359 9.05752 22.4517V28.8194C9.05752 30.6858 10.4848 32.113 12.3512 32.113H18.7189C18.2797 33.2109 18.0602 34.199 18.0602 35.1322C18.0602 38.7003 20.9695 41.1706 25.0866 41.1706C29.2036 41.1706 32.113 38.7003 32.113 35.1322C32.113 34.1441 31.8935 33.1011 31.5092 32.113H37.8769C39.7433 32.113 41.1706 30.6858 41.1706 28.8194C41.1706 28.6547 41.1706 28.4351 41.1157 28.2704ZM26.1845 29.533C26.0747 29.7526 26.0747 30.0271 26.1296 30.3015C26.1845 30.5211 26.4041 30.7407 26.5687 30.8505C27.8313 31.7837 28.7645 33.6501 28.7645 35.1871C28.7645 37.2182 26.7334 37.9318 25.0317 37.9318C23.33 37.9318 21.2989 37.2182 21.2989 35.1871C21.2989 33.6501 22.287 31.7837 23.5496 30.8505L23.6045 30.7956C23.9338 30.4662 24.0436 30.082 23.9887 29.6428C23.8789 29.1488 23.4398 28.8194 22.8908 28.8194H12.3512V18.1699C12.3512 17.7308 12.0767 17.3465 11.6375 17.127L11.5278 17.0721H11.2533C10.869 17.0721 10.5397 17.2367 10.375 17.5112C9.44178 18.7738 7.57538 19.7619 6.03835 19.7619C4.00727 19.7619 3.29364 17.7308 3.29364 16.0291C3.29364 14.3274 4.00727 12.2963 6.03835 12.2963C7.57538 12.2963 9.44178 13.2844 10.375 14.5469L10.4299 14.6018C10.5946 14.7665 10.9788 14.9861 11.3082 14.9861H11.5278C12.0218 14.8763 12.3512 14.4371 12.3512 13.8882V3.29364H20.4755C19.6521 4.6111 19.158 6.09324 19.158 7.4107C19.158 10.375 21.5185 12.3512 25.0866 12.3512C28.6547 12.3512 31.0152 10.375 31.0152 7.4107C31.0152 6.03835 30.5211 4.55621 29.6977 3.29364H37.822V28.8194H27.2275C26.7883 28.8194 26.404 29.0939 26.1845 29.533Z" transform="translate(182.931 63.9655) rotate(-15)" fill="white"/>
<path d="M41.1157 28.2704V3.29364C41.1157 1.42725 39.6884 0 37.822 0H28.5998C27.5019 0 26.5138 0.603835 26.1296 1.59193C25.6904 2.58002 25.8551 3.7328 26.5687 4.55621C27.2824 5.37962 27.7764 6.4775 27.7764 7.4107C27.7764 8.89284 25.91 9.05752 25.1415 9.05752C24.373 9.05752 22.5066 8.89284 22.5066 7.4107C22.5066 6.53239 23.0006 5.37962 23.7142 4.55621C24.1534 4.06216 24.373 3.40343 24.373 2.7447C24.373 1.20767 23.1653 0 21.6283 0H12.3512C10.4848 0 9.05752 1.42725 9.05752 3.29364V9.66136C7.95964 9.2222 6.97155 9.00263 6.03835 9.00263C2.47023 9.00263 0 11.912 0 16.0291C0 20.1461 2.47023 23.0555 6.03835 23.0555C7.02644 23.0555 8.06943 22.8359 9.05752 22.4517V28.8194C9.05752 30.6858 10.4848 32.113 12.3512 32.113H18.7189C18.2797 33.2109 18.0602 34.199 18.0602 35.1322C18.0602 38.7003 20.9695 41.1706 25.0866 41.1706C29.2036 41.1706 32.113 38.7003 32.113 35.1322C32.113 34.1441 31.8935 33.1011 31.5092 32.113H37.8769C39.7433 32.113 41.1706 30.6858 41.1706 28.8194C41.1706 28.6547 41.1706 28.4351 41.1157 28.2704ZM26.1845 29.533C26.0747 29.7526 26.0747 30.0271 26.1296 30.3015C26.1845 30.5211 26.4041 30.7407 26.5687 30.8505C27.8313 31.7837 28.7645 33.6501 28.7645 35.1871C28.7645 37.2182 26.7334 37.9318 25.0317 37.9318C23.33 37.9318 21.2989 37.2182 21.2989 35.1871C21.2989 33.6501 22.287 31.7837 23.5496 30.8505L23.6045 30.7956C23.9338 30.4662 24.0436 30.082 23.9887 29.6428C23.8789 29.1488 23.4398 28.8194 22.8908 28.8194H12.3512V18.1699C12.3512 17.7308 12.0767 17.3465 11.6375 17.127L11.5278 17.0721H11.2533C10.869 17.0721 10.5397 17.2367 10.375 17.5112C9.44178 18.7738 7.57538 19.7619 6.03835 19.7619C4.00727 19.7619 3.29364 17.7308 3.29364 16.0291C3.29364 14.3274 4.00727 12.2963 6.03835 12.2963C7.57538 12.2963 9.44178 13.2844 10.375 14.5469L10.4299 14.6018C10.5946 14.7665 10.9788 14.9861 11.3082 14.9861H11.5278C12.0218 14.8763 12.3512 14.4371 12.3512 13.8882V3.29364H20.4755C19.6521 4.6111 19.158 6.09324 19.158 7.4107C19.158 10.375 21.5185 12.3512 25.0866 12.3512C28.6547 12.3512 31.0152 10.375 31.0152 7.4107C31.0152 6.03835 30.5211 4.55621 29.6977 3.29364H37.822V28.8194H27.2275C26.7883 28.8194 26.404 29.0939 26.1845 29.533Z" transform="translate(231.624 50.9182) rotate(-15)" fill="white"/>
<path d="M41.1157 28.2704V3.29364C41.1157 1.42725 39.6884 0 37.822 0H28.5998C27.5019 0 26.5138 0.603835 26.1296 1.59193C25.6904 2.58002 25.8551 3.7328 26.5687 4.55621C27.2824 5.37962 27.7764 6.4775 27.7764 7.4107C27.7764 8.89284 25.91 9.05752 25.1415 9.05752C24.373 9.05752 22.5066 8.89284 22.5066 7.4107C22.5066 6.53239 23.0006 5.37962 23.7142 4.55621C24.1534 4.06216 24.373 3.40343 24.373 2.7447C24.373 1.20767 23.1653 0 21.6283 0H12.3512C10.4848 0 9.05752 1.42725 9.05752 3.29364V9.66136C7.95964 9.2222 6.97155 9.00263 6.03835 9.00263C2.47023 9.00263 0 11.912 0 16.0291C0 20.1461 2.47023 23.0555 6.03835 23.0555C7.02644 23.0555 8.06943 22.8359 9.05752 22.4517V28.8194C9.05752 30.6858 10.4848 32.113 12.3512 32.113H18.7189C18.2797 33.2109 18.0602 34.199 18.0602 35.1322C18.0602 38.7003 20.9695 41.1706 25.0866 41.1706C29.2036 41.1706 32.113 38.7003 32.113 35.1322C32.113 34.1441 31.8935 33.1011 31.5092 32.113H37.8769C39.7433 32.113 41.1706 30.6858 41.1706 28.8194C41.1706 28.6547 41.1706 28.4351 41.1157 28.2704ZM26.1845 29.533C26.0747 29.7526 26.0747 30.0271 26.1296 30.3015C26.1845 30.5211 26.4041 30.7407 26.5687 30.8505C27.8313 31.7837 28.7645 33.6501 28.7645 35.1871C28.7645 37.2182 26.7334 37.9318 25.0317 37.9318C23.33 37.9318 21.2989 37.2182 21.2989 35.1871C21.2989 33.6501 22.287 31.7837 23.5496 30.8505L23.6045 30.7956C23.9338 30.4662 24.0436 30.082 23.9887 29.6428C23.8789 29.1488 23.4398 28.8194 22.8908 28.8194H12.3512V18.1699C12.3512 17.7308 12.0767 17.3465 11.6375 17.127L11.5278 17.0721H11.2533C10.869 17.0721 10.5397 17.2367 10.375 17.5112C9.44178 18.7738 7.57538 19.7619 6.03835 19.7619C4.00727 19.7619 3.29364 17.7308 3.29364 16.0291C3.29364 14.3274 4.00727 12.2963 6.03835 12.2963C7.57538 12.2963 9.44178 13.2844 10.375 14.5469L10.4299 14.6018C10.5946 14.7665 10.9788 14.9861 11.3082 14.9861H11.5278C12.0218 14.8763 12.3512 14.4371 12.3512 13.8882V3.29364H20.4755C19.6521 4.6111 19.158 6.09324 19.158 7.4107C19.158 10.375 21.5185 12.3512 25.0866 12.3512C28.6547 12.3512 31.0152 10.375 31.0152 7.4107C31.0152 6.03835 30.5211 4.55621 29.6977 3.29364H37.822V28.8194H27.2275C26.7883 28.8194 26.404 29.0939 26.1845 29.533Z" transform="translate(280.318 37.871) rotate(-15)" fill="white"/>
<path d="M41.1157 28.2704V3.29364C41.1157 1.42725 39.6884 0 37.822 0H28.5998C27.5019 0 26.5138 0.603835 26.1296 1.59193C25.6904 2.58002 25.8551 3.7328 26.5687 4.55621C27.2824 5.37962 27.7764 6.4775 27.7764 7.4107C27.7764 8.89284 25.91 9.05752 25.1415 9.05752C24.373 9.05752 22.5066 8.89284 22.5066 7.4107C22.5066 6.53239 23.0006 5.37962 23.7142 4.55621C24.1534 4.06216 24.373 3.40343 24.373 2.7447C24.373 1.20767 23.1653 0 21.6283 0H12.3512C10.4848 0 9.05752 1.42725 9.05752 3.29364V9.66136C7.95964 9.2222 6.97155 9.00263 6.03835 9.00263C2.47023 9.00263 0 11.912 0 16.0291C0 20.1461 2.47023 23.0555 6.03835 23.0555C7.02644 23.0555 8.06943 22.8359 9.05752 22.4517V28.8194C9.05752 30.6858 10.4848 32.113 12.3512 32.113H18.7189C18.2797 33.2109 18.0602 34.199 18.0602 35.1322C18.0602 38.7003 20.9695 41.1706 25.0866 41.1706C29.2036 41.1706 32.113 38.7003 32.113 35.1322C32.113 34.1441 31.8935 33.1011 31.5092 32.113H37.8769C39.7433 32.113 41.1706 30.6858 41.1706 28.8194C41.1706 28.6547 41.1706 28.4351 41.1157 28.2704ZM26.1845 29.533C26.0747 29.7526 26.0747 30.0271 26.1296 30.3015C26.1845 30.5211 26.4041 30.7407 26.5687 30.8505C27.8313 31.7837 28.7645 33.6501 28.7645 35.1871C28.7645 37.2182 26.7334 37.9318 25.0317 37.9318C23.33 37.9318 21.2989 37.2182 21.2989 35.1871C21.2989 33.6501 22.287 31.7837 23.5496 30.8505L23.6045 30.7956C23.9338 30.4662 24.0436 30.082 23.9887 29.6428C23.8789 29.1488 23.4398 28.8194 22.8908 28.8194H12.3512V18.1699C12.3512 17.7308 12.0767 17.3465 11.6375 17.127L11.5278 17.0721H11.2533C10.869 17.0721 10.5397 17.2367 10.375 17.5112C9.44178 18.7738 7.57538 19.7619 6.03835 19.7619C4.00727 19.7619 3.29364 17.7308 3.29364 16.0291C3.29364 14.3274 4.00727 12.2963 6.03835 12.2963C7.57538 12.2963 9.44178 13.2844 10.375 14.5469L10.4299 14.6018C10.5946 14.7665 10.9788 14.9861 11.3082 14.9861H11.5278C12.0218 14.8763 12.3512 14.4371 12.3512 13.8882V3.29364H20.4755C19.6521 4.6111 19.158 6.09324 19.158 7.4107C19.158 10.375 21.5185 12.3512 25.0866 12.3512C28.6547 12.3512 31.0152 10.375 31.0152 7.4107C31.0152 6.03835 30.5211 4.55621 29.6977 3.29364H37.822V28.8194H27.2275C26.7883 28.8194 26.404 29.0939 26.1845 29.533Z" transform="translate(85.5447 90.0602) rotate(-15)" fill="white"/>
</g>
<rect width="300" height="130" transform="translate(0.140869 0.514893)" fill="url(#paint0_linear)"/>
<defs>
<linearGradient id="paint0_linear" x2="1" gradientUnits="userSpaceOnUse" gradientTransform="matrix(159.292 -43.9139 101.34 362.711 94.2126 -100.88)">
<stop stop-color="#3CB3E7"/>
<stop offset="1" stop-color="#3CB3E7" stop-opacity="0"/>
</linearGradient>
</defs>
</svg>
