<svg xmlns="http://www.w3.org/2000/svg" viewBox="0 0 68.603775 77.800003" fill="#fff"><path d="M64.4 12.4h-8v-2c0-2.4-1.9-4.3-4.3-4.3h-7.6V4.3c0-2.4-1.9-4.3-4.3-4.3H4.3C1.9 0 0 1.9 0 4.3v44.3c0 2.4 1.9 4.3 4.3 4.3h2.5v8c0 2.4 1.9 4.3 4.3 4.3h2.8v8.3c0 2.4 1.9 4.3 4.3 4.3h46.1c2.4 0 4.3-1.9 4.3-4.3V16.8c.1-2.4-1.8-4.4-4.2-4.4zm-57.7-2v39.5H4.2c-.7 0-1.3-.6-1.3-1.3V4.3c0-.7.6-1.3 1.3-1.3h35.7c.7 0 1.3.6 1.3 1.3v1.8H11.1C8.7 6 6.7 8 6.7 10.4zm7.2 6.4v45.5h-2.8c-.7 0-1.3-.6-1.3-1.3V10.4c0-.7.6-1.3 1.3-1.3H52c.7 0 1.3.6 1.3 1.3v2h-35c-2.4 0-4.4 2-4.4 4.4zm51.8 56.8c0 .7-.6 1.3-1.3 1.3H18.3c-.7 0-1.3-.6-1.3-1.3V16.8c0-.7.6-1.3 1.3-1.3h46.1c.7 0 1.3.6 1.3 1.3zM41.2 30.9c-4.1 0-7.9 1.6-10.8 4.4-2.4 2.4-4 5.5-4.5 8.8h-2.2c-.7 0-1.2.8-.8 1.4l3.9 6.8c.4.6 1.3.6 1.6 0l3.9-6.8c.4-.6-.1-1.4-.8-1.4h-2.6c.5-2.5 1.7-4.8 3.5-6.6 2.4-2.3 5.5-3.6 8.7-3.6 6.9 0 12.5 5.6 12.5 12.5s-5.5 12.5-12.4 12.5c-2.9 0-5.8-1-8-2.9-.6-.5-1.6-.5-2.1.2-.5.6-.5 1.6.2 2.1 2.8 2.3 6.3 3.6 10 3.6 8.5 0 15.5-7 15.5-15.5s-7.1-15.5-15.6-15.5z"/></svg>
