<svg xmlns="http://www.w3.org/2000/svg" xmlns:xlink="http://www.w3.org/1999/xlink" preserveAspectRatio="xMidYMid" width="67" height="52" viewBox="0 0 67 52">
  <defs>
    <style>

      .cls-3 {
        fill: #81bda4;
      }

      .cls-4 {
        fill: #ffffff;
      }

      .cls-6 {
        fill: #000000;
      }
    </style>
  </defs>
  <g id="group-40svg">
    <path d="M67.000,13.010 C67.000,8.591 63.418,5.010 59.000,5.010 C59.000,5.010 15.000,5.010 15.000,5.010 C10.582,5.010 7.000,8.591 7.000,13.010 C7.000,13.010 7.000,43.012 7.000,43.012 C7.000,47.431 10.582,51.013 15.000,51.013 C15.000,51.013 59.000,51.013 59.000,51.013 C63.418,51.013 67.000,47.431 67.000,43.012 C67.000,43.012 67.000,13.010 67.000,13.010 Z" id="path-1" class="cls-3" fill-rule="evenodd"/>
    <path d="M42.000,34.012 C42.000,35.116 41.104,36.012 40.000,36.012 C40.000,36.012 28.000,36.012 28.000,36.012 C26.895,36.012 26.000,35.116 26.000,34.012 C26.000,34.012 26.000,25.011 26.000,25.011 C26.000,23.907 26.895,23.011 28.000,23.011 C28.000,23.011 40.000,23.011 40.000,23.011 C41.104,23.011 42.000,23.907 42.000,25.011 C42.000,25.011 42.000,34.012 42.000,34.012 Z" id="path-2" class="cls-4" fill-rule="evenodd"/>
    <path d="M51.000,35.721 C51.000,35.721 42.714,30.325 42.714,30.325 C42.714,30.325 42.508,27.599 42.508,27.599 C42.508,27.599 51.000,22.860 51.000,22.860 C51.000,22.860 51.000,35.721 51.000,35.721 Z" id="path-3" class="cls-4" fill-rule="evenodd"/>
    <path d="M53.500,49.013 C53.500,49.013 9.500,49.013 9.500,49.013 C4.262,49.013 -0.000,44.751 -0.000,39.512 C-0.000,39.512 -0.000,9.510 -0.000,9.510 C-0.000,4.271 4.262,0.009 9.500,0.009 C9.500,0.009 53.500,0.009 53.500,0.009 C58.738,0.009 63.000,4.271 63.000,9.510 C63.000,9.510 63.000,39.512 63.000,39.512 C63.000,44.751 58.738,49.013 53.500,49.013 ZM9.500,3.010 C5.916,3.010 3.000,5.926 3.000,9.510 C3.000,9.510 3.000,39.512 3.000,39.512 C3.000,43.096 5.916,46.013 9.500,46.013 C9.500,46.013 53.500,46.013 53.500,46.013 C57.084,46.013 60.000,43.096 60.000,39.512 C60.000,39.512 60.000,9.510 60.000,9.510 C60.000,5.926 57.084,3.010 53.500,3.010 C53.500,3.010 9.500,3.010 9.500,3.010 Z" id="path-4" class="cls-6" fill-rule="evenodd"/>
    <path d="M34.500,34.012 C34.500,34.012 22.500,34.012 22.500,34.012 C20.570,34.012 19.000,32.441 19.000,30.512 C19.000,30.512 19.000,21.511 19.000,21.511 C19.000,19.581 20.570,18.011 22.500,18.011 C22.500,18.011 34.500,18.011 34.500,18.011 C36.430,18.011 38.000,19.581 38.000,21.511 C38.000,21.511 38.000,30.512 38.000,30.512 C38.000,32.441 36.430,34.012 34.500,34.012 ZM22.500,21.011 C22.225,21.011 22.000,21.235 22.000,21.511 C22.000,21.511 22.000,30.512 22.000,30.512 C22.000,30.787 22.225,31.011 22.500,31.011 C22.500,31.011 34.500,31.011 34.500,31.011 C34.775,31.011 35.000,30.787 35.000,30.512 C35.000,30.512 35.000,21.511 35.000,21.511 C35.000,21.235 34.775,21.011 34.500,21.011 C34.500,21.011 22.500,21.011 22.500,21.011 Z" id="path-5" class="cls-6" fill-rule="evenodd"/>
    <path d="M45.500,34.222 C45.221,34.222 44.942,34.144 44.698,33.989 C44.698,33.989 36.162,28.593 36.162,28.593 C35.741,28.328 35.479,27.869 35.465,27.371 C35.465,27.371 35.383,24.644 35.383,24.644 C35.365,24.081 35.665,23.556 36.159,23.284 C36.159,23.284 44.777,18.545 44.777,18.545 C45.243,18.289 45.808,18.298 46.264,18.568 C46.720,18.838 47.000,19.329 47.000,19.859 C47.000,19.859 47.000,32.722 47.000,32.722 C47.000,33.269 46.702,33.771 46.224,34.035 C45.998,34.160 45.749,34.222 45.500,34.222 ZM38.439,26.484 C38.439,26.484 44.000,29.999 44.000,29.999 C44.000,29.999 44.000,22.397 44.000,22.397 C44.000,22.397 38.409,25.471 38.409,25.471 C38.409,25.471 38.439,26.484 38.439,26.484 Z" id="path-6" class="cls-6" fill-rule="evenodd"/>
  </g>
</svg>
