<svg xmlns="http://www.w3.org/2000/svg" xmlns:xlink="http://www.w3.org/1999/xlink" preserveAspectRatio="xMidYMid" width="60" height="66" viewBox="0 0 60 66">
  <defs>
    <style>

      .cls-3 {
        fill: #edc951;
      }

      .cls-4 {
        fill: #8b71b5;
      }

      .cls-5 {
        fill: #000000;
      }
    </style>
  </defs>
  <g id="group-101svg">
    <path d="M22.577,5.014 C22.577,5.014 47.077,5.014 47.077,5.014 C49.277,5.014 51.000,6.314 51.000,8.514 C51.000,8.514 51.000,60.518 51.000,60.518 C51.000,62.718 49.277,65.018 47.077,65.018 C47.077,65.018 10.077,65.018 10.077,65.018 C7.868,65.018 6.000,62.727 6.000,60.518 C6.000,60.518 6.000,24.584 6.000,24.584 C6.000,24.584 22.577,5.014 22.577,5.014 Z" id="path-1" class="cls-3" fill-rule="evenodd"/>
    <path d="M7.263,23.015 C7.263,23.015 18.577,23.015 18.577,23.015 C20.786,23.015 23.000,21.224 23.000,19.015 C23.000,19.015 23.000,4.514 23.000,4.514 C23.000,4.514 7.263,23.015 7.263,23.015 Z" id="path-2" class="cls-4" fill-rule="evenodd"/>
    <path d="M42.077,63.018 C42.077,63.018 5.077,63.018 5.077,63.018 C2.135,63.018 -0.000,60.704 -0.000,57.517 C-0.000,57.517 -0.000,21.584 -0.000,21.584 C-0.000,21.251 0.111,20.928 0.315,20.664 C0.315,20.664 15.892,0.593 15.892,0.593 C16.176,0.227 16.614,0.013 17.077,0.013 C17.077,0.013 42.077,0.013 42.077,0.013 C45.232,0.013 48.000,2.584 48.000,5.514 C48.000,5.514 48.000,57.517 48.000,57.517 C48.000,60.447 45.232,63.018 42.077,63.018 ZM3.000,22.098 C3.000,22.098 3.000,57.517 3.000,57.517 C3.000,58.671 3.544,60.018 5.077,60.018 C5.077,60.018 42.077,60.018 42.077,60.018 C43.552,60.018 45.000,58.779 45.000,57.517 C45.000,57.517 45.000,5.514 45.000,5.514 C45.000,4.252 43.552,3.013 42.077,3.013 C42.077,3.013 17.812,3.013 17.812,3.013 C17.812,3.013 3.000,22.098 3.000,22.098 Z" id="path-3" class="cls-5" fill-rule="evenodd"/>
    <path d="M12.706,22.015 C12.706,22.015 1.930,22.015 1.930,22.015 C1.348,22.015 0.819,21.679 0.572,21.152 C0.325,20.627 0.404,20.005 0.775,19.558 C0.775,19.558 16.345,0.771 16.345,0.771 C16.748,0.284 17.412,0.101 18.009,0.317 C18.604,0.532 19.000,1.096 19.000,1.728 C19.000,1.728 19.000,16.034 19.000,16.034 C19.000,18.996 15.823,22.015 12.706,22.015 ZM5.121,19.015 C5.121,19.015 12.706,19.015 12.706,19.015 C14.153,19.015 16.000,17.344 16.000,16.034 C16.000,16.034 16.000,5.889 16.000,5.889 C16.000,5.889 5.121,19.015 5.121,19.015 Z" id="path-4" class="cls-5" fill-rule="evenodd"/>
    <path d="M58.000,39.016 C58.000,41.225 56.209,43.016 54.000,43.016 C54.000,43.016 35.000,43.016 35.000,43.016 C32.791,43.016 31.000,41.225 31.000,39.016 C31.000,39.016 31.000,30.015 31.000,30.015 C31.000,27.806 32.791,26.015 35.000,26.015 C35.000,26.015 54.000,26.015 54.000,26.015 C56.209,26.015 58.000,27.806 58.000,30.015 C58.000,30.015 58.000,39.016 58.000,39.016 Z" id="path-5" class="cls-4" fill-rule="evenodd"/>
    <path d="M54.500,44.016 C54.500,44.016 35.500,44.016 35.500,44.016 C32.467,44.016 30.000,41.548 30.000,38.516 C30.000,38.516 30.000,29.515 30.000,29.515 C30.000,26.483 32.467,24.015 35.500,24.015 C35.500,24.015 54.500,24.015 54.500,24.015 C57.533,24.015 60.000,26.483 60.000,29.515 C60.000,29.515 60.000,38.516 60.000,38.516 C60.000,41.548 57.533,44.016 54.500,44.016 ZM35.500,27.015 C34.122,27.015 33.000,28.136 33.000,29.515 C33.000,29.515 33.000,38.516 33.000,38.516 C33.000,39.895 34.122,41.016 35.500,41.016 C35.500,41.016 54.500,41.016 54.500,41.016 C55.878,41.016 57.000,39.895 57.000,38.516 C57.000,38.516 57.000,29.515 57.000,29.515 C57.000,28.136 55.878,27.015 54.500,27.015 C54.500,27.015 35.500,27.015 35.500,27.015 Z" id="path-6" class="cls-5" fill-rule="evenodd"/>
    <path d="M38.487,35.863 C38.487,35.863 37.159,35.863 37.159,35.863 C37.159,35.863 37.159,37.889 37.159,37.889 C37.159,38.180 37.091,38.399 36.954,38.549 C36.817,38.698 36.645,38.774 36.436,38.774 C36.218,38.774 36.042,38.700 35.909,38.551 C35.776,38.403 35.709,38.186 35.709,37.899 C35.709,37.899 35.709,32.381 35.709,32.381 C35.709,32.062 35.782,31.834 35.929,31.697 C36.075,31.560 36.308,31.492 36.627,31.492 C36.627,31.492 38.487,31.492 38.487,31.492 C39.038,31.492 39.460,31.535 39.757,31.619 C40.050,31.701 40.303,31.836 40.516,32.025 C40.729,32.213 40.891,32.445 41.002,32.719 C41.113,32.992 41.168,33.299 41.168,33.641 C41.168,34.371 40.943,34.922 40.494,35.299 C40.045,35.674 39.376,35.863 38.487,35.863 ZM38.136,32.582 C38.136,32.582 37.159,32.582 37.159,32.582 C37.159,32.582 37.159,34.770 37.159,34.770 C37.159,34.770 38.136,34.770 38.136,34.770 C38.478,34.770 38.763,34.733 38.993,34.662 C39.222,34.590 39.397,34.473 39.518,34.311 C39.638,34.147 39.698,33.934 39.698,33.670 C39.698,33.355 39.605,33.098 39.420,32.898 C39.211,32.687 38.784,32.582 38.136,32.582 Z" id="path-7" class="cls-3" fill-rule="evenodd"/>
    <path d="M44.269,32.240 C44.269,32.240 47.057,36.459 47.057,36.459 C47.057,36.459 47.057,32.201 47.057,32.201 C47.057,31.924 47.116,31.717 47.235,31.578 C47.353,31.439 47.514,31.371 47.716,31.371 C47.924,31.371 48.088,31.439 48.209,31.578 C48.330,31.717 48.390,31.924 48.390,32.201 C48.390,32.201 48.390,37.830 48.390,37.830 C48.390,38.459 48.129,38.774 47.608,38.774 C47.478,38.774 47.361,38.754 47.257,38.717 C47.153,38.680 47.055,38.619 46.964,38.539 C46.873,38.457 46.788,38.362 46.710,38.252 C46.632,38.145 46.554,38.034 46.476,37.918 C46.476,37.918 43.756,33.748 43.756,33.748 C43.756,33.748 43.756,37.944 43.756,37.944 C43.756,38.217 43.692,38.424 43.565,38.563 C43.438,38.703 43.276,38.774 43.077,38.774 C42.872,38.774 42.707,38.701 42.584,38.561 C42.460,38.418 42.398,38.213 42.398,37.944 C42.398,37.944 42.398,32.420 42.398,32.420 C42.398,32.186 42.424,32.002 42.476,31.869 C42.539,31.722 42.641,31.601 42.784,31.510 C42.927,31.416 43.082,31.371 43.248,31.371 C43.378,31.371 43.490,31.392 43.582,31.433 C43.675,31.476 43.757,31.533 43.827,31.605 C43.896,31.676 43.968,31.769 44.041,31.883 C44.115,31.998 44.190,32.115 44.269,32.240 Z" id="path-8" class="cls-3" fill-rule="evenodd"/>
    <path d="M56.515,35.740 C56.515,35.740 56.515,37.114 56.515,37.114 C56.515,37.295 56.497,37.442 56.461,37.549 C56.425,37.659 56.359,37.758 56.263,37.846 C56.167,37.934 56.044,38.018 55.895,38.100 C55.461,38.334 55.045,38.504 54.645,38.612 C54.244,38.719 53.808,38.774 53.336,38.774 C52.786,38.774 52.285,38.688 51.832,38.520 C51.379,38.350 50.994,38.104 50.675,37.782 C50.356,37.459 50.111,37.069 49.940,36.610 C49.769,36.151 49.684,35.639 49.684,35.072 C49.684,34.516 49.767,34.006 49.933,33.543 C50.099,33.082 50.343,32.689 50.665,32.367 C50.987,32.045 51.379,31.797 51.842,31.627 C52.304,31.455 52.828,31.371 53.414,31.371 C53.896,31.371 54.322,31.435 54.693,31.562 C55.064,31.691 55.366,31.853 55.597,32.049 C55.828,32.244 56.002,32.451 56.119,32.670 C56.236,32.887 56.295,33.082 56.295,33.250 C56.295,33.434 56.227,33.588 56.092,33.717 C55.957,33.846 55.795,33.910 55.606,33.910 C55.502,33.910 55.402,33.885 55.306,33.836 C55.210,33.787 55.129,33.719 55.064,33.631 C54.885,33.351 54.734,33.141 54.610,32.996 C54.487,32.853 54.320,32.732 54.110,32.635 C53.900,32.537 53.632,32.488 53.307,32.488 C52.971,32.488 52.672,32.547 52.408,32.662 C52.145,32.777 51.919,32.945 51.732,33.164 C51.545,33.385 51.401,33.654 51.302,33.973 C51.203,34.293 51.153,34.645 51.153,35.033 C51.153,35.873 51.346,36.520 51.732,36.971 C52.118,37.424 52.656,37.651 53.346,37.651 C53.681,37.651 53.996,37.606 54.290,37.518 C54.585,37.430 54.884,37.305 55.186,37.143 C55.186,37.143 55.186,35.981 55.186,35.981 C55.186,35.981 54.063,35.981 54.063,35.981 C53.793,35.981 53.589,35.940 53.451,35.858 C53.312,35.778 53.243,35.639 53.243,35.444 C53.243,35.283 53.301,35.152 53.416,35.047 C53.532,34.943 53.689,34.891 53.888,34.891 C53.888,34.891 55.533,34.891 55.533,34.891 C55.735,34.891 55.906,34.908 56.046,34.945 C56.186,34.981 56.299,35.061 56.385,35.184 C56.472,35.309 56.515,35.494 56.515,35.740 Z" id="path-9" class="cls-3" fill-rule="evenodd"/>
  </g>
</svg>
