<svg xmlns="http://www.w3.org/2000/svg" xmlns:xlink="http://www.w3.org/1999/xlink" preserveAspectRatio="xMidYMid" width="51" height="66" viewBox="0 0 51 66">
  <defs>
    <style>

      .cls-3 {
        fill: #e56a77;
      }

      .cls-4 {
        fill: #53ecf4;
      }

      .cls-5 {
        fill: #000000;
      }
    </style>
  </defs>
  <g id="group-4svg">
    <path d="M34.164,65.018 C34.164,65.018 13.665,65.018 13.665,65.018 C9.265,65.018 6.000,60.917 6.000,56.517 C6.000,56.517 6.000,12.514 6.000,12.514 C6.000,8.114 9.265,5.014 13.665,5.014 C13.665,5.014 42.665,5.014 42.665,5.014 C47.083,5.014 51.000,8.095 51.000,12.514 C51.000,12.514 51.000,44.447 51.000,44.447 C51.000,44.447 34.164,65.018 34.164,65.018 Z" id="path-1" class="cls-3" fill-rule="evenodd"/>
    <path d="M49.479,46.016 C49.479,46.016 38.165,46.016 38.165,46.016 C35.956,46.016 34.000,47.808 34.000,50.017 C34.000,50.017 34.000,64.518 34.000,64.518 C34.000,64.518 49.479,46.016 49.479,46.016 Z" id="path-2" class="cls-4" fill-rule="evenodd"/>
    <path d="M30.665,63.018 C30.665,63.018 9.665,63.018 9.665,63.018 C4.426,63.018 -0.000,58.667 -0.000,53.517 C-0.000,53.517 -0.000,9.514 -0.000,9.514 C-0.000,4.364 4.426,0.013 9.665,0.013 C9.665,0.013 38.664,0.013 38.664,0.013 C43.899,0.013 48.000,4.186 48.000,9.514 C48.000,9.514 48.000,41.447 48.000,41.447 C48.000,41.784 47.886,42.111 47.678,42.376 C47.678,42.376 31.842,62.446 31.842,62.446 C31.558,62.808 31.124,63.018 30.665,63.018 ZM9.665,3.013 C6.052,3.013 3.000,5.990 3.000,9.514 C3.000,9.514 3.000,53.517 3.000,53.517 C3.000,57.041 6.052,60.017 9.665,60.017 C9.665,60.017 29.937,60.017 29.937,60.017 C29.937,60.017 45.000,40.926 45.000,40.926 C45.000,40.926 45.000,9.514 45.000,9.514 C45.000,5.869 42.217,3.013 38.664,3.013 C38.664,3.013 9.665,3.013 9.665,3.013 Z" id="path-3" class="cls-5" fill-rule="evenodd"/>
    <path d="M30.499,62.803 C30.333,62.803 30.164,62.775 30.001,62.717 C29.401,62.506 29.000,61.938 29.000,61.303 C29.000,61.303 29.000,46.997 29.000,46.997 C29.000,43.923 31.853,41.016 34.872,41.016 C34.872,41.016 45.647,41.016 45.647,41.016 C46.225,41.016 46.751,41.348 47.000,41.869 C47.250,42.390 47.178,43.008 46.815,43.458 C46.815,43.458 31.667,62.244 31.667,62.244 C31.377,62.605 30.945,62.803 30.499,62.803 ZM34.872,44.016 C33.530,44.016 32.000,45.604 32.000,46.997 C32.000,46.997 32.000,57.052 32.000,57.052 C32.000,57.052 42.511,44.016 42.511,44.016 C42.511,44.016 34.872,44.016 34.872,44.016 Z" id="path-4" class="cls-5" fill-rule="evenodd"/>
    <path d="M33.943,27.345 C33.560,27.345 33.176,27.199 32.883,26.906 C32.297,26.320 32.297,25.370 32.883,24.785 C32.883,24.785 39.582,18.086 39.582,18.086 C40.167,17.500 41.117,17.500 41.703,18.086 C42.288,18.672 42.288,19.621 41.703,20.207 C41.703,20.207 35.004,26.906 35.004,26.906 C34.711,27.199 34.327,27.345 33.943,27.345 Z" id="path-5" class="cls-5" fill-rule="evenodd"/>
    <path d="M40.642,27.345 C40.258,27.345 39.874,27.199 39.582,26.906 C39.582,26.906 32.883,20.207 32.883,20.207 C32.297,19.621 32.297,18.672 32.883,18.086 C33.469,17.500 34.418,17.500 35.004,18.086 C35.004,18.086 41.703,24.785 41.703,24.785 C42.288,25.370 42.288,26.320 41.703,26.906 C41.410,27.199 41.026,27.345 40.642,27.345 Z" id="path-6" class="cls-5" fill-rule="evenodd"/>
  </g>
</svg>
