<svg xmlns="http://www.w3.org/2000/svg" xmlns:xlink="http://www.w3.org/1999/xlink" preserveAspectRatio="xMidYMid" width="67" height="52" viewBox="0 0 67 52">
  <defs>
    <style>

      .cls-3 {
        fill: #99746a;
      }

      .cls-4 {
        fill: #000000;
      }
    </style>
  </defs>
  <g id="group-38svg">
    <path d="M67.000,13.010 C67.000,8.591 63.418,5.010 59.000,5.010 C59.000,5.010 15.000,5.010 15.000,5.010 C10.582,5.010 7.000,8.591 7.000,13.010 C7.000,13.010 7.000,43.012 7.000,43.012 C7.000,47.431 10.582,51.013 15.000,51.013 C15.000,51.013 59.000,51.013 59.000,51.013 C63.418,51.013 67.000,47.431 67.000,43.012 C67.000,43.012 67.000,13.010 67.000,13.010 Z" id="path-1" class="cls-3" fill-rule="evenodd"/>
    <path d="M53.500,49.013 C53.500,49.013 9.500,49.013 9.500,49.013 C4.262,49.013 -0.000,44.751 -0.000,39.512 C-0.000,39.512 -0.000,9.510 -0.000,9.510 C-0.000,4.271 4.262,0.009 9.500,0.009 C9.500,0.009 53.500,0.009 53.500,0.009 C58.738,0.009 63.000,4.271 63.000,9.510 C63.000,9.510 63.000,39.512 63.000,39.512 C63.000,44.751 58.738,49.013 53.500,49.013 ZM9.500,3.010 C5.916,3.010 3.000,5.926 3.000,9.510 C3.000,9.510 3.000,39.512 3.000,39.512 C3.000,43.096 5.916,46.013 9.500,46.013 C9.500,46.013 53.500,46.013 53.500,46.013 C57.084,46.013 60.000,43.096 60.000,39.512 C60.000,39.512 60.000,9.510 60.000,9.510 C60.000,5.926 57.084,3.010 53.500,3.010 C53.500,3.010 9.500,3.010 9.500,3.010 Z" id="path-2" class="cls-4" fill-rule="evenodd"/>
    <path d="M19.424,22.484 C19.133,22.484 18.840,22.400 18.581,22.224 C18.581,22.224 11.591,17.469 11.591,17.469 C10.793,16.885 10.388,15.999 10.463,15.066 C10.537,14.133 11.079,13.322 11.912,12.896 C11.912,12.896 18.742,9.406 18.742,9.406 C19.481,9.031 20.384,9.321 20.761,10.059 C21.138,10.796 20.845,11.701 20.107,12.078 C20.107,12.078 13.764,15.319 13.764,15.319 C13.764,15.319 20.269,19.743 20.269,19.743 C20.953,20.209 21.131,21.142 20.665,21.827 C20.375,22.254 19.903,22.484 19.424,22.484 Z" id="path-3" class="cls-4" fill-rule="evenodd"/>
    <path d="M46.358,22.484 C45.879,22.484 45.407,22.254 45.117,21.827 C44.651,21.143 44.829,20.209 45.514,19.743 C45.514,19.743 52.018,15.318 52.018,15.318 C52.018,15.318 45.675,12.078 45.675,12.078 C44.937,11.701 44.644,10.796 45.021,10.059 C45.399,9.323 46.303,9.031 47.040,9.406 C47.040,9.406 53.870,12.896 53.870,12.896 C54.703,13.323 55.245,14.133 55.319,15.066 C55.395,15.999 54.988,16.885 54.232,17.438 C54.232,17.438 47.201,22.224 47.201,22.224 C46.943,22.400 46.649,22.484 46.358,22.484 Z" id="path-4" class="cls-4" fill-rule="evenodd"/>
  </g>
</svg>
