<svg xmlns="http://www.w3.org/2000/svg" xmlns:xlink="http://www.w3.org/1999/xlink" preserveAspectRatio="xMidYMid" width="61" height="66" viewBox="0 0 61 66">
  <defs>
    <style>

      .cls-3 {
        fill: #edc951;
      }

      .cls-4 {
        fill: #8b71b5;
      }

      .cls-5 {
        fill: #000000;
      }
    </style>
  </defs>
  <g id="group-80svg">
    <path d="M22.986,5.014 C22.986,5.014 47.486,5.014 47.486,5.014 C49.686,5.014 51.000,6.314 51.000,8.514 C51.000,8.514 51.000,60.518 51.000,60.518 C51.000,62.718 49.686,65.018 47.486,65.018 C47.486,65.018 10.486,65.018 10.486,65.018 C8.277,65.018 6.000,62.727 6.000,60.518 C6.000,60.518 6.000,24.584 6.000,24.584 C6.000,24.584 22.986,5.014 22.986,5.014 Z" id="path-1" class="cls-3" fill-rule="evenodd"/>
    <path d="M7.673,23.015 C7.673,23.015 18.986,23.015 18.986,23.015 C21.196,23.015 23.000,21.224 23.000,19.015 C23.000,19.015 23.000,4.514 23.000,4.514 C23.000,4.514 7.673,23.015 7.673,23.015 Z" id="path-2" class="cls-4" fill-rule="evenodd"/>
    <path d="M42.487,63.018 C42.487,63.018 5.487,63.018 5.487,63.018 C2.462,63.018 -0.000,60.550 -0.000,57.517 C-0.000,57.517 -0.000,21.584 -0.000,21.584 C-0.000,21.244 0.115,20.915 0.327,20.650 C0.327,20.650 16.314,0.579 16.314,0.579 C16.599,0.221 17.030,0.013 17.487,0.013 C17.487,0.013 42.487,0.013 42.487,0.013 C45.527,0.013 48.000,2.481 48.000,5.514 C48.000,5.514 48.000,57.517 48.000,57.517 C48.000,60.550 45.527,63.018 42.487,63.018 ZM3.000,22.109 C3.000,22.109 3.000,57.517 3.000,57.517 C3.000,58.896 4.116,60.018 5.487,60.018 C5.487,60.018 42.487,60.018 42.487,60.018 C43.873,60.018 45.000,58.896 45.000,57.517 C45.000,57.517 45.000,5.514 45.000,5.514 C45.000,4.135 43.873,3.013 42.487,3.013 C42.487,3.013 18.210,3.013 18.210,3.013 C18.210,3.013 3.000,22.109 3.000,22.109 Z" id="path-3" class="cls-5" fill-rule="evenodd"/>
    <path d="M13.115,22.015 C13.115,22.015 2.340,22.015 2.340,22.015 C1.762,22.015 1.235,21.683 0.986,21.161 C0.737,20.641 0.810,20.023 1.173,19.572 C1.173,19.572 16.333,0.786 16.333,0.786 C16.732,0.292 17.401,0.106 18.000,0.314 C18.599,0.526 19.000,1.092 19.000,1.728 C19.000,1.728 19.000,16.034 19.000,16.034 C19.000,19.108 16.140,22.015 13.115,22.015 ZM5.477,19.015 C5.477,19.015 13.115,19.015 13.115,19.015 C14.463,19.015 16.000,17.427 16.000,16.034 C16.000,16.034 16.000,5.976 16.000,5.976 C16.000,5.976 5.477,19.015 5.477,19.015 Z" id="path-4" class="cls-5" fill-rule="evenodd"/>
    <path d="M59.000,39.016 C59.000,41.225 57.209,43.016 55.000,43.016 C55.000,43.016 36.000,43.016 36.000,43.016 C33.791,43.016 32.000,41.225 32.000,39.016 C32.000,39.016 32.000,30.015 32.000,30.015 C32.000,27.806 33.791,26.015 36.000,26.015 C36.000,26.015 55.000,26.015 55.000,26.015 C57.209,26.015 59.000,27.806 59.000,30.015 C59.000,30.015 59.000,39.016 59.000,39.016 Z" id="path-5" class="cls-4" fill-rule="evenodd"/>
    <path d="M55.500,44.016 C55.500,44.016 36.500,44.016 36.500,44.016 C33.468,44.016 31.000,41.548 31.000,38.516 C31.000,38.516 31.000,29.515 31.000,29.515 C31.000,26.483 33.468,24.015 36.500,24.015 C36.500,24.015 55.500,24.015 55.500,24.015 C58.532,24.015 61.000,26.483 61.000,29.515 C61.000,29.515 61.000,38.516 61.000,38.516 C61.000,41.548 58.532,44.016 55.500,44.016 ZM36.500,27.015 C35.121,27.015 34.000,28.136 34.000,29.515 C34.000,29.515 34.000,38.516 34.000,38.516 C34.000,39.895 35.121,41.016 36.500,41.016 C36.500,41.016 55.500,41.016 55.500,41.016 C56.879,41.016 58.000,39.895 58.000,38.516 C58.000,38.516 58.000,29.515 58.000,29.515 C58.000,28.136 56.879,27.015 55.500,27.015 C55.500,27.015 36.500,27.015 36.500,27.015 Z" id="path-6" class="cls-5" fill-rule="evenodd"/>
    <path d="M40.956,37.840 C40.956,37.840 40.614,36.942 40.614,36.942 C40.614,36.942 37.704,36.942 37.704,36.942 C37.704,36.942 37.362,37.860 37.362,37.860 C37.228,38.219 37.115,38.459 37.020,38.584 C36.926,38.711 36.771,38.774 36.557,38.774 C36.375,38.774 36.213,38.707 36.073,38.573 C35.934,38.440 35.863,38.287 35.863,38.119 C35.863,38.022 35.879,37.920 35.912,37.817 C35.945,37.711 35.998,37.567 36.073,37.381 C36.073,37.381 37.904,32.732 37.904,32.732 C37.957,32.600 38.019,32.439 38.092,32.252 C38.166,32.064 38.244,31.910 38.326,31.785 C38.410,31.662 38.519,31.562 38.654,31.484 C38.789,31.408 38.955,31.371 39.154,31.371 C39.355,31.371 39.524,31.408 39.660,31.484 C39.795,31.562 39.904,31.660 39.986,31.781 C40.070,31.900 40.140,32.031 40.197,32.168 C40.254,32.307 40.326,32.492 40.414,32.723 C40.414,32.723 42.284,37.342 42.284,37.342 C42.431,37.694 42.504,37.950 42.504,38.110 C42.504,38.276 42.435,38.428 42.297,38.565 C42.158,38.703 41.991,38.774 41.796,38.774 C41.682,38.774 41.584,38.752 41.503,38.711 C41.422,38.672 41.353,38.616 41.298,38.545 C41.242,38.477 41.184,38.369 41.119,38.223 C41.057,38.078 41.002,37.951 40.956,37.840 ZM38.085,35.854 C38.085,35.854 40.224,35.854 40.224,35.854 C40.224,35.854 39.144,32.898 39.144,32.898 C39.144,32.898 38.085,35.854 38.085,35.854 Z" id="path-7" class="cls-3" fill-rule="evenodd"/>
    <path d="M46.347,35.863 C46.347,35.863 45.019,35.863 45.019,35.863 C45.019,35.863 45.019,37.889 45.019,37.889 C45.019,38.180 44.950,38.399 44.813,38.549 C44.677,38.698 44.504,38.774 44.296,38.774 C44.078,38.774 43.902,38.700 43.769,38.551 C43.635,38.403 43.568,38.186 43.568,37.899 C43.568,37.899 43.568,32.381 43.568,32.381 C43.568,32.062 43.642,31.834 43.788,31.697 C43.935,31.560 44.168,31.492 44.486,31.492 C44.486,31.492 46.347,31.492 46.347,31.492 C46.896,31.492 47.320,31.535 47.616,31.619 C47.909,31.701 48.162,31.836 48.375,32.025 C48.589,32.213 48.750,32.445 48.861,32.719 C48.973,32.992 49.027,33.299 49.027,33.641 C49.027,34.371 48.803,34.922 48.353,35.299 C47.904,35.674 47.235,35.863 46.347,35.863 ZM45.995,32.582 C45.995,32.582 45.019,32.582 45.019,32.582 C45.019,32.582 45.019,34.770 45.019,34.770 C45.019,34.770 45.995,34.770 45.995,34.770 C46.337,34.770 46.623,34.733 46.852,34.662 C47.082,34.590 47.256,34.473 47.377,34.311 C47.498,34.147 47.558,33.934 47.558,33.670 C47.558,33.355 47.465,33.098 47.279,32.898 C47.070,32.687 46.643,32.582 45.995,32.582 Z" id="path-8" class="cls-3" fill-rule="evenodd"/>
    <path d="M51.698,32.250 C51.698,32.250 51.698,34.760 51.698,34.760 C51.698,34.760 54.545,31.791 54.545,31.791 C54.682,31.646 54.798,31.541 54.895,31.472 C54.990,31.404 55.117,31.371 55.277,31.371 C55.486,31.371 55.654,31.432 55.783,31.553 C55.911,31.676 55.976,31.824 55.976,32.000 C55.976,32.213 55.867,32.422 55.648,32.631 C55.648,32.631 53.886,34.301 53.886,34.301 C53.886,34.301 55.917,37.211 55.917,37.211 C56.061,37.412 56.168,37.588 56.239,37.741 C56.311,37.891 56.347,38.039 56.347,38.182 C56.347,38.342 56.284,38.481 56.158,38.598 C56.033,38.715 55.863,38.774 55.648,38.774 C55.447,38.774 55.282,38.731 55.155,38.643 C55.028,38.557 54.921,38.444 54.833,38.299 C54.745,38.157 54.667,38.026 54.599,37.909 C54.599,37.909 52.885,35.272 52.885,35.272 C52.885,35.272 51.698,36.410 51.698,36.410 C51.698,36.410 51.698,37.889 51.698,37.889 C51.698,38.190 51.630,38.410 51.493,38.555 C51.356,38.701 51.181,38.774 50.966,38.774 C50.842,38.774 50.723,38.741 50.609,38.676 C50.496,38.610 50.408,38.522 50.346,38.412 C50.301,38.321 50.272,38.215 50.263,38.094 C50.253,37.975 50.248,37.799 50.248,37.573 C50.248,37.573 50.248,32.250 50.248,32.250 C50.248,31.957 50.312,31.736 50.441,31.590 C50.569,31.443 50.744,31.371 50.966,31.371 C51.184,31.371 51.360,31.443 51.496,31.588 C51.631,31.732 51.698,31.953 51.698,32.250 Z" id="path-9" class="cls-3" fill-rule="evenodd"/>
  </g>
</svg>
