<svg xmlns="http://www.w3.org/2000/svg" xmlns:xlink="http://www.w3.org/1999/xlink" preserveAspectRatio="xMidYMid" width="62" height="66" viewBox="0 0 62 66">
  <defs>
    <style>

      .cls-3 {
        fill: #edc951;
      }

      .cls-4 {
        fill: #8b71b5;
      }

      .cls-5 {
        fill: #000000;
      }
    </style>
  </defs>
  <g id="group-97svg">
    <path d="M22.538,5.000 C22.538,5.000 47.038,5.000 47.038,5.000 C49.238,5.000 51.000,6.300 51.000,8.501 C51.000,8.501 51.000,60.504 51.000,60.504 C51.000,62.705 49.238,65.005 47.038,65.005 C47.038,65.005 10.038,65.005 10.038,65.005 C7.829,65.005 6.000,62.713 6.000,60.504 C6.000,60.504 6.000,24.571 6.000,24.571 C6.000,24.571 22.538,5.000 22.538,5.000 Z" id="path-1" class="cls-3" fill-rule="evenodd"/>
    <path d="M7.225,23.002 C7.225,23.002 18.538,23.002 18.538,23.002 C20.748,23.002 23.000,21.211 23.000,19.001 C23.000,19.001 23.000,4.500 23.000,4.500 C23.000,4.500 7.225,23.002 7.225,23.002 Z" id="path-2" class="cls-4" fill-rule="evenodd"/>
    <path d="M42.038,63.004 C42.038,63.004 5.038,63.004 5.038,63.004 C2.119,63.004 -0.000,60.691 -0.000,57.504 C-0.000,57.504 -0.000,21.571 -0.000,21.571 C-0.000,21.239 0.110,20.916 0.313,20.653 C0.313,20.653 15.852,0.582 15.852,0.582 C16.136,0.215 16.574,0.000 17.038,0.000 C17.038,0.000 42.038,0.000 42.038,0.000 C45.214,0.000 48.000,2.570 48.000,5.500 C48.000,5.500 48.000,57.504 48.000,57.504 C48.000,60.434 45.214,63.004 42.038,63.004 ZM3.000,22.084 C3.000,22.084 3.000,57.504 3.000,57.504 C3.000,58.657 3.534,60.004 5.038,60.004 C5.038,60.004 42.038,60.004 42.038,60.004 C43.533,60.004 45.000,58.766 45.000,57.504 C45.000,57.504 45.000,5.500 45.000,5.500 C45.000,4.239 43.533,3.000 42.038,3.000 C42.038,3.000 17.773,3.000 17.773,3.000 C17.773,3.000 3.000,22.084 3.000,22.084 Z" id="path-3" class="cls-5" fill-rule="evenodd"/>
    <path d="M12.667,22.002 C12.667,22.002 1.891,22.002 1.891,22.002 C1.309,22.002 0.779,21.666 0.532,21.138 C0.285,20.612 0.365,19.990 0.737,19.542 C0.737,19.542 16.347,0.756 16.347,0.756 C16.750,0.270 17.414,0.092 18.010,0.304 C18.604,0.519 19.000,1.083 19.000,1.715 C19.000,1.715 19.000,16.021 19.000,16.021 C19.000,18.983 15.804,22.002 12.667,22.002 ZM5.087,19.001 C5.087,19.001 12.667,19.001 12.667,19.001 C14.100,19.001 16.000,17.302 16.000,16.021 C16.000,16.021 16.000,5.868 16.000,5.868 C16.000,5.868 5.087,19.001 5.087,19.001 Z" id="path-4" class="cls-5" fill-rule="evenodd"/>
    <path d="M60.000,37.003 C60.000,39.212 58.209,41.003 56.000,41.003 C56.000,41.003 37.000,41.003 37.000,41.003 C34.791,41.003 33.000,39.212 33.000,37.003 C33.000,37.003 33.000,28.002 33.000,28.002 C33.000,25.793 34.791,24.002 37.000,24.002 C37.000,24.002 56.000,24.002 56.000,24.002 C58.209,24.002 60.000,25.793 60.000,28.002 C60.000,28.002 60.000,37.003 60.000,37.003 Z" id="path-5" class="cls-4" fill-rule="evenodd"/>
    <path d="M56.500,42.003 C56.500,42.003 37.500,42.003 37.500,42.003 C34.468,42.003 32.000,39.535 32.000,36.503 C32.000,36.503 32.000,27.502 32.000,27.502 C32.000,24.470 34.468,22.002 37.500,22.002 C37.500,22.002 56.500,22.002 56.500,22.002 C59.532,22.002 62.000,24.470 62.000,27.502 C62.000,27.502 62.000,36.503 62.000,36.503 C62.000,39.535 59.532,42.003 56.500,42.003 ZM37.500,25.002 C36.121,25.002 35.000,26.123 35.000,27.502 C35.000,27.502 35.000,36.503 35.000,36.503 C35.000,37.882 36.121,39.003 37.500,39.003 C37.500,39.003 56.500,39.003 56.500,39.003 C57.879,39.003 59.000,37.882 59.000,36.503 C59.000,36.503 59.000,27.502 59.000,27.502 C59.000,26.123 57.879,25.002 56.500,25.002 C56.500,25.002 37.500,25.002 37.500,25.002 Z" id="path-6" class="cls-5" fill-rule="evenodd"/>
    <path d="M42.527,29.948 C42.527,29.948 39.261,29.948 39.261,29.948 C39.261,29.948 39.261,31.706 39.261,31.706 C39.261,31.706 42.269,31.706 42.269,31.706 C42.489,31.706 42.655,31.756 42.764,31.856 C42.873,31.954 42.928,32.085 42.928,32.248 C42.928,32.411 42.874,32.543 42.767,32.647 C42.659,32.749 42.493,32.800 42.269,32.800 C42.269,32.800 39.261,32.800 39.261,32.800 C39.261,32.800 39.261,34.837 39.261,34.837 C39.261,34.837 42.640,34.837 42.640,34.837 C42.867,34.837 43.039,34.889 43.154,34.995 C43.270,35.101 43.328,35.242 43.328,35.418 C43.328,35.587 43.270,35.724 43.154,35.831 C43.039,35.936 42.867,35.989 42.640,35.989 C42.640,35.989 38.699,35.989 38.699,35.989 C38.383,35.989 38.156,35.919 38.018,35.779 C37.880,35.639 37.811,35.413 37.811,35.100 C37.811,35.100 37.811,29.719 37.811,29.719 C37.811,29.511 37.841,29.340 37.903,29.209 C37.965,29.076 38.061,28.981 38.193,28.920 C38.325,28.860 38.494,28.830 38.699,28.830 C38.699,28.830 42.527,28.830 42.527,28.830 C42.758,28.830 42.930,28.881 43.042,28.984 C43.154,29.086 43.211,29.221 43.211,29.387 C43.211,29.556 43.154,29.692 43.042,29.795 C42.930,29.897 42.758,29.948 42.527,29.948 Z" id="path-7" class="cls-3" fill-rule="evenodd"/>
    <path d="M44.217,34.597 C44.217,34.597 45.818,32.258 45.818,32.258 C45.818,32.258 44.471,30.178 44.471,30.178 C44.344,29.976 44.248,29.803 44.185,29.658 C44.121,29.513 44.090,29.374 44.090,29.240 C44.090,29.104 44.150,28.981 44.272,28.871 C44.395,28.763 44.544,28.708 44.720,28.708 C44.921,28.708 45.078,28.768 45.190,28.887 C45.303,29.005 45.458,29.226 45.657,29.548 C45.657,29.548 46.731,31.286 46.731,31.286 C46.731,31.286 47.879,29.548 47.879,29.548 C47.973,29.402 48.054,29.277 48.120,29.172 C48.187,29.067 48.251,28.982 48.313,28.913 C48.375,28.845 48.444,28.793 48.520,28.760 C48.598,28.725 48.686,28.708 48.787,28.708 C48.969,28.708 49.118,28.763 49.233,28.871 C49.350,28.981 49.407,29.110 49.407,29.260 C49.407,29.478 49.281,29.775 49.031,30.149 C49.031,30.149 47.620,32.258 47.620,32.258 C47.620,32.258 49.139,34.597 49.139,34.597 C49.275,34.802 49.374,34.972 49.437,35.108 C49.498,35.243 49.529,35.371 49.529,35.491 C49.529,35.605 49.501,35.709 49.446,35.803 C49.391,35.898 49.312,35.972 49.212,36.028 C49.110,36.084 48.997,36.111 48.870,36.111 C48.733,36.111 48.617,36.083 48.523,36.026 C48.429,35.968 48.352,35.898 48.294,35.813 C48.235,35.728 48.126,35.564 47.967,35.320 C47.967,35.320 46.707,33.337 46.707,33.337 C46.707,33.337 45.369,35.379 45.369,35.379 C45.265,35.542 45.190,35.655 45.146,35.720 C45.102,35.786 45.050,35.849 44.988,35.911 C44.926,35.972 44.853,36.021 44.769,36.057 C44.684,36.093 44.584,36.111 44.471,36.111 C44.295,36.111 44.149,36.057 44.033,35.950 C43.918,35.842 43.860,35.686 43.860,35.481 C43.860,35.240 43.978,34.946 44.217,34.597 Z" id="path-8" class="cls-3" fill-rule="evenodd"/>
    <path d="M55.237,29.948 C55.237,29.948 51.971,29.948 51.971,29.948 C51.971,29.948 51.971,31.706 51.971,31.706 C51.971,31.706 54.978,31.706 54.978,31.706 C55.199,31.706 55.365,31.756 55.474,31.856 C55.583,31.954 55.638,32.085 55.638,32.248 C55.638,32.411 55.584,32.543 55.477,32.647 C55.369,32.749 55.203,32.800 54.978,32.800 C54.978,32.800 51.971,32.800 51.971,32.800 C51.971,32.800 51.971,34.837 51.971,34.837 C51.971,34.837 55.350,34.837 55.350,34.837 C55.577,34.837 55.749,34.889 55.864,34.995 C55.980,35.101 56.038,35.242 56.038,35.418 C56.038,35.587 55.980,35.724 55.864,35.831 C55.749,35.936 55.577,35.989 55.350,35.989 C55.350,35.989 51.409,35.989 51.409,35.989 C51.093,35.989 50.866,35.919 50.728,35.779 C50.590,35.639 50.520,35.413 50.520,35.100 C50.520,35.100 50.520,29.719 50.520,29.719 C50.520,29.511 50.551,29.340 50.613,29.209 C50.675,29.076 50.771,28.981 50.903,28.920 C51.035,28.860 51.204,28.830 51.409,28.830 C51.409,28.830 55.237,28.830 55.237,28.830 C55.468,28.830 55.640,28.881 55.752,28.984 C55.864,29.086 55.921,29.221 55.921,29.387 C55.921,29.556 55.864,29.692 55.752,29.795 C55.640,29.897 55.468,29.948 55.237,29.948 Z" id="path-9" class="cls-3" fill-rule="evenodd"/>
  </g>
</svg>
