<svg xmlns="http://www.w3.org/2000/svg" xmlns:xlink="http://www.w3.org/1999/xlink" preserveAspectRatio="xMidYMid" width="51" height="66" viewBox="0 0 51 66">
  <defs>
    <style>

      .cls-3 {
        fill: #e56a77;
      }

      .cls-4 {
        fill: #53ecf4;
      }

      .cls-5 {
        fill: #000000;
      }

      .cls-7 {
        fill: #ffffff;
      }
    </style>
  </defs>
  <g id="group-24svg">
    <path d="M34.164,65.004 C34.164,65.004 13.665,65.004 13.665,65.004 C9.265,65.004 6.000,60.904 6.000,56.503 C6.000,56.503 6.000,12.500 6.000,12.500 C6.000,8.100 9.265,5.000 13.665,5.000 C13.665,5.000 42.665,5.000 42.665,5.000 C47.083,5.000 51.000,8.082 51.000,12.500 C51.000,12.500 51.000,44.433 51.000,44.433 C51.000,44.433 34.164,65.004 34.164,65.004 Z" id="path-1" class="cls-3" fill-rule="evenodd"/>
    <path d="M49.479,46.003 C49.479,46.003 38.165,46.003 38.165,46.003 C35.956,46.003 34.000,47.794 34.000,50.003 C34.000,50.003 34.000,64.504 34.000,64.504 C34.000,64.504 49.479,46.003 49.479,46.003 Z" id="path-2" class="cls-4" fill-rule="evenodd"/>
    <path d="M30.665,63.004 C30.665,63.004 9.665,63.004 9.665,63.004 C4.426,63.004 -0.000,58.653 -0.000,53.503 C-0.000,53.503 -0.000,9.500 -0.000,9.500 C-0.000,4.350 4.426,-0.000 9.665,-0.000 C9.665,-0.000 38.664,-0.000 38.664,-0.000 C43.899,-0.000 48.000,4.173 48.000,9.500 C48.000,9.500 48.000,41.433 48.000,41.433 C48.000,41.770 47.886,42.097 47.678,42.362 C47.678,42.362 31.842,62.433 31.842,62.433 C31.558,62.794 31.124,63.004 30.665,63.004 ZM9.665,3.000 C6.052,3.000 3.000,5.976 3.000,9.500 C3.000,9.500 3.000,53.503 3.000,53.503 C3.000,57.027 6.052,60.004 9.665,60.004 C9.665,60.004 29.937,60.004 29.937,60.004 C29.937,60.004 45.000,40.913 45.000,40.913 C45.000,40.913 45.000,9.500 45.000,9.500 C45.000,5.855 42.217,3.000 38.664,3.000 C38.664,3.000 9.665,3.000 9.665,3.000 Z" id="path-3" class="cls-5" fill-rule="evenodd"/>
    <path d="M30.499,62.789 C30.333,62.789 30.164,62.762 30.001,62.703 C29.401,62.492 29.000,61.925 29.000,61.289 C29.000,61.289 29.000,46.983 29.000,46.983 C29.000,43.909 31.853,41.002 34.872,41.002 C34.872,41.002 45.647,41.002 45.647,41.002 C46.225,41.002 46.751,41.334 47.000,41.855 C47.250,42.376 47.178,42.995 46.815,43.444 C46.815,43.444 31.667,62.230 31.667,62.230 C31.377,62.591 30.945,62.789 30.499,62.789 ZM34.872,44.003 C33.530,44.003 32.000,45.591 32.000,46.983 C32.000,46.983 32.000,57.039 32.000,57.039 C32.000,57.039 42.511,44.003 42.511,44.003 C42.511,44.003 34.872,44.003 34.872,44.003 Z" id="path-4" class="cls-5" fill-rule="evenodd"/>
    <path d="M39.667,31.740 C38.984,31.740 38.331,31.950 37.763,32.348 C37.763,32.348 33.306,29.890 33.306,29.890 C33.310,29.844 33.312,29.795 33.312,29.747 C33.312,29.721 33.312,29.695 33.310,29.670 C33.310,29.670 37.709,27.357 37.709,27.357 C38.288,27.780 38.960,28.002 39.667,28.002 C41.523,28.002 43.032,26.493 43.032,24.637 C43.032,22.782 41.523,21.273 39.667,21.273 C37.813,21.273 36.303,22.782 36.303,24.637 C36.303,24.664 36.305,24.690 36.306,24.715 C36.306,24.715 31.908,27.027 31.908,27.027 C31.328,26.605 30.656,26.383 29.948,26.383 C28.094,26.383 26.584,27.892 26.584,29.747 C26.584,31.602 28.094,33.112 29.948,33.112 C30.632,33.112 31.285,32.903 31.854,32.504 C31.854,32.504 36.311,34.962 36.311,34.962 C36.306,35.009 36.303,35.057 36.303,35.105 C36.303,36.961 37.813,38.469 39.667,38.469 C41.523,38.469 43.032,36.961 43.032,35.105 C43.032,33.250 41.523,31.740 39.667,31.740 Z" id="path-5" class="cls-7" fill-rule="evenodd"/>
    <path d="M38.115,38.417 C35.695,38.417 33.683,36.642 33.312,34.325 C33.312,34.325 30.300,32.664 30.300,32.664 C29.700,32.925 29.055,33.059 28.396,33.059 C25.714,33.059 23.532,30.878 23.532,28.195 C23.532,25.512 25.714,23.330 28.396,23.330 C29.089,23.330 29.764,23.478 30.387,23.763 C30.387,23.763 33.328,22.217 33.328,22.217 C33.739,19.947 35.729,18.221 38.115,18.221 C40.797,18.221 42.979,20.402 42.979,23.085 C42.979,25.768 40.797,27.950 38.115,27.950 C37.421,27.950 36.747,27.802 36.124,27.517 C36.124,27.517 34.715,28.257 34.715,28.257 C34.715,28.257 36.212,29.084 36.212,29.084 C36.811,28.823 37.456,28.688 38.115,28.688 C40.797,28.688 42.979,30.870 42.979,33.553 C42.979,36.235 40.797,38.417 38.115,38.417 ZM35.593,32.163 C36.047,32.467 36.303,32.998 36.251,33.549 C36.250,34.581 37.087,35.417 38.115,35.417 C39.143,35.417 39.979,34.581 39.979,33.553 C39.979,32.524 39.143,31.688 38.115,31.688 C37.740,31.688 37.389,31.802 37.070,32.024 C36.635,32.331 36.073,32.380 35.593,32.163 ZM28.396,26.330 C27.368,26.330 26.532,27.166 26.532,28.195 C26.532,29.223 27.368,30.059 28.396,30.059 C28.771,30.059 29.123,29.946 29.440,29.723 C29.877,29.418 30.442,29.368 30.923,29.587 C30.470,29.286 30.212,28.759 30.259,28.210 C30.227,27.661 30.500,27.135 30.963,26.845 C30.478,27.061 29.908,27.005 29.473,26.687 C29.148,26.451 28.786,26.330 28.396,26.330 ZM36.157,24.305 C36.469,24.305 36.780,24.403 37.042,24.594 C37.365,24.829 37.726,24.950 38.115,24.950 C39.143,24.950 39.979,24.113 39.979,23.085 C39.979,22.057 39.143,21.221 38.115,21.221 C37.087,21.221 36.250,22.057 36.250,23.085 C36.250,23.606 35.983,24.154 35.546,24.435 C35.741,24.348 35.949,24.305 36.157,24.305 Z" id="path-6" class="cls-5" fill-rule="evenodd"/>
  </g>
</svg>
