<svg xmlns="http://www.w3.org/2000/svg" xmlns:xlink="http://www.w3.org/1999/xlink" preserveAspectRatio="xMidYMid" width="61" height="66" viewBox="0 0 61 66">
  <defs>
    <style>

      .cls-3 {
        fill: #edc951;
      }

      .cls-4 {
        fill: #8b71b5;
      }

      .cls-5 {
        fill: #000000;
      }
    </style>
  </defs>
  <g id="group-86svg">
    <path d="M22.519,4.991 C22.519,4.991 47.019,4.991 47.019,4.991 C49.219,4.991 51.000,6.291 51.000,8.492 C51.000,8.492 51.000,60.495 51.000,60.495 C51.000,62.696 49.219,64.996 47.019,64.996 C47.019,64.996 10.018,64.996 10.018,64.996 C7.810,64.996 6.000,62.704 6.000,60.495 C6.000,60.495 6.000,24.562 6.000,24.562 C6.000,24.562 22.519,4.991 22.519,4.991 Z" id="path-1" class="cls-3" fill-rule="evenodd"/>
    <path d="M7.204,22.993 C7.204,22.993 18.519,22.993 18.519,22.993 C20.728,22.993 23.000,21.202 23.000,18.992 C23.000,18.992 23.000,4.491 23.000,4.491 C23.000,4.491 7.204,22.993 7.204,22.993 Z" id="path-2" class="cls-4" fill-rule="evenodd"/>
    <path d="M42.019,62.996 C42.019,62.996 5.019,62.996 5.019,62.996 C2.110,62.996 -0.000,60.682 -0.000,57.495 C-0.000,57.495 -0.000,21.562 -0.000,21.562 C-0.000,21.230 0.110,20.907 0.313,20.644 C0.313,20.644 15.832,0.573 15.832,0.573 C16.116,0.206 16.554,-0.009 17.018,-0.009 C17.018,-0.009 42.019,-0.009 42.019,-0.009 C45.205,-0.009 48.000,2.562 48.000,5.492 C48.000,5.492 48.000,57.495 48.000,57.495 C48.000,60.425 45.205,62.996 42.019,62.996 ZM3.000,22.075 C3.000,22.075 3.000,57.495 3.000,57.495 C3.000,58.649 3.528,59.995 5.019,59.995 C5.019,59.995 42.019,59.995 42.019,59.995 C43.523,59.995 45.000,58.757 45.000,57.495 C45.000,57.495 45.000,5.492 45.000,5.492 C45.000,4.230 43.523,2.991 42.019,2.991 C42.019,2.991 17.755,2.991 17.755,2.991 C17.755,2.991 3.000,22.075 3.000,22.075 Z" id="path-3" class="cls-5" fill-rule="evenodd"/>
    <path d="M12.647,21.993 C12.647,21.993 1.871,21.993 1.871,21.993 C1.289,21.993 0.760,21.656 0.513,21.129 C0.266,20.603 0.346,19.981 0.718,19.533 C0.718,19.533 16.347,0.747 16.347,0.747 C16.752,0.262 17.421,0.084 18.010,0.296 C18.604,0.511 19.000,1.074 19.000,1.706 C19.000,1.706 19.000,16.012 19.000,16.012 C19.000,19.233 15.507,21.993 12.647,21.993 ZM5.070,18.992 C5.070,18.992 12.647,18.992 12.647,18.992 C14.089,18.992 16.000,17.293 16.000,16.012 C16.000,16.012 16.000,5.855 16.000,5.855 C16.000,5.855 5.070,18.992 5.070,18.992 Z" id="path-4" class="cls-5" fill-rule="evenodd"/>
    <path d="M59.000,36.994 C59.000,39.203 57.209,40.994 55.000,40.994 C55.000,40.994 36.000,40.994 36.000,40.994 C33.791,40.994 32.000,39.203 32.000,36.994 C32.000,36.994 32.000,27.993 32.000,27.993 C32.000,25.784 33.791,23.993 36.000,23.993 C36.000,23.993 55.000,23.993 55.000,23.993 C57.209,23.993 59.000,25.784 59.000,27.993 C59.000,27.993 59.000,36.994 59.000,36.994 Z" id="path-5" class="cls-4" fill-rule="evenodd"/>
    <path d="M55.500,41.994 C55.500,41.994 36.500,41.994 36.500,41.994 C33.468,41.994 31.000,39.526 31.000,36.494 C31.000,36.494 31.000,27.493 31.000,27.493 C31.000,24.461 33.468,21.993 36.500,21.993 C36.500,21.993 55.500,21.993 55.500,21.993 C58.532,21.993 61.000,24.461 61.000,27.493 C61.000,27.493 61.000,36.494 61.000,36.494 C61.000,39.526 58.532,41.994 55.500,41.994 ZM36.500,24.993 C35.121,24.993 34.000,26.114 34.000,27.493 C34.000,27.493 34.000,36.494 34.000,36.494 C34.000,37.873 35.121,38.994 36.500,38.994 C36.500,38.994 55.500,38.994 55.500,38.994 C56.879,38.994 58.000,37.873 58.000,36.494 C58.000,36.494 58.000,27.493 58.000,27.493 C58.000,26.114 56.879,24.993 55.500,24.993 C55.500,24.993 36.500,24.993 36.500,24.993 Z" id="path-6" class="cls-5" fill-rule="evenodd"/>
    <path d="M43.400,30.666 C43.400,30.666 41.818,30.666 41.818,30.666 C41.818,30.666 41.818,35.867 41.818,35.867 C41.818,36.166 41.751,36.388 41.618,36.533 C41.484,36.678 41.311,36.751 41.101,36.751 C40.886,36.751 40.711,36.677 40.575,36.531 C40.440,36.384 40.373,36.163 40.373,35.867 C40.373,35.867 40.373,30.666 40.373,30.666 C40.373,30.666 38.791,30.666 38.791,30.666 C38.543,30.666 38.359,30.611 38.239,30.503 C38.118,30.394 38.059,30.249 38.059,30.070 C38.059,29.885 38.121,29.738 38.246,29.631 C38.372,29.524 38.553,29.470 38.791,29.470 C38.791,29.470 43.400,29.470 43.400,29.470 C43.650,29.470 43.837,29.525 43.959,29.636 C44.081,29.746 44.143,29.892 44.143,30.070 C44.143,30.249 44.080,30.394 43.957,30.503 C43.833,30.611 43.647,30.666 43.400,30.666 Z" id="path-7" class="cls-3" fill-rule="evenodd"/>
    <path d="M45.061,35.867 C45.061,35.867 45.061,30.227 45.061,30.227 C45.061,29.934 45.127,29.714 45.261,29.567 C45.393,29.421 45.566,29.348 45.778,29.348 C45.996,29.348 46.173,29.420 46.308,29.566 C46.443,29.710 46.511,29.931 46.511,30.227 C46.511,30.227 46.511,35.867 46.511,35.867 C46.511,36.163 46.443,36.384 46.308,36.531 C46.173,36.677 45.996,36.751 45.778,36.751 C45.569,36.751 45.398,36.676 45.263,36.529 C45.128,36.380 45.061,36.160 45.061,35.867 Z" id="path-8" class="cls-3" fill-rule="evenodd"/>
    <path d="M52.409,30.588 C52.409,30.588 49.553,30.588 49.553,30.588 C49.553,30.588 49.553,32.419 49.553,32.419 C49.553,32.419 51.940,32.419 51.940,32.419 C52.161,32.419 52.327,32.469 52.436,32.568 C52.545,32.667 52.600,32.800 52.600,32.966 C52.600,33.132 52.544,33.264 52.434,33.362 C52.322,33.459 52.158,33.508 51.940,33.508 C51.940,33.508 49.553,33.508 49.553,33.508 C49.553,33.508 49.553,35.867 49.553,35.867 C49.553,36.166 49.485,36.388 49.350,36.533 C49.215,36.678 49.041,36.751 48.830,36.751 C48.615,36.751 48.440,36.677 48.305,36.531 C48.170,36.384 48.102,36.163 48.102,35.867 C48.102,35.867 48.102,30.358 48.102,30.358 C48.102,30.150 48.133,29.980 48.195,29.849 C48.257,29.716 48.353,29.620 48.485,29.560 C48.617,29.500 48.786,29.470 48.991,29.470 C48.991,29.470 52.409,29.470 52.409,29.470 C52.640,29.470 52.811,29.521 52.924,29.624 C53.036,29.726 53.093,29.860 53.093,30.026 C53.093,30.195 53.036,30.331 52.924,30.435 C52.811,30.536 52.640,30.588 52.409,30.588 Z" id="path-9" class="cls-3" fill-rule="evenodd"/>
  </g>
</svg>
