<svg xmlns="http://www.w3.org/2000/svg" xmlns:xlink="http://www.w3.org/1999/xlink" preserveAspectRatio="xMidYMid" width="51" height="66" viewBox="0 0 51 66">
  <defs>
    <style>

      .cls-3 {
        fill: #e56a77;
      }

      .cls-4 {
        fill: #53ecf4;
      }

      .cls-5 {
        fill: #000000;
      }

      .cls-7 {
        fill: #ffffff;
      }
    </style>
  </defs>
  <g id="group-17svg">
    <path d="M34.019,64.995 C34.019,64.995 13.519,64.995 13.519,64.995 C9.119,64.995 6.000,60.895 6.000,56.495 C6.000,56.495 6.000,12.492 6.000,12.492 C6.000,8.091 9.119,4.991 13.519,4.991 C13.519,4.991 42.519,4.991 42.519,4.991 C46.937,4.991 51.000,8.073 51.000,12.492 C51.000,12.492 51.000,44.425 51.000,44.425 C51.000,44.425 34.019,64.995 34.019,64.995 Z" id="path-1" class="cls-3" fill-rule="evenodd"/>
    <path d="M49.333,45.994 C49.333,45.994 38.019,45.994 38.019,45.994 C35.810,45.994 34.000,47.785 34.000,49.994 C34.000,49.994 34.000,64.495 34.000,64.495 C34.000,64.495 49.333,45.994 49.333,45.994 Z" id="path-2" class="cls-4" fill-rule="evenodd"/>
    <path d="M30.518,62.995 C30.518,62.995 9.519,62.995 9.519,62.995 C4.269,62.995 -0.000,58.733 -0.000,53.495 C-0.000,53.495 -0.000,9.491 -0.000,9.491 C-0.000,4.253 4.269,-0.009 9.519,-0.009 C9.519,-0.009 38.519,-0.009 38.519,-0.009 C43.747,-0.009 48.000,4.253 48.000,9.491 C48.000,9.491 48.000,41.424 48.000,41.424 C48.000,41.764 47.885,42.093 47.674,42.359 C47.674,42.359 31.692,62.430 31.692,62.430 C31.407,62.787 30.976,62.995 30.518,62.995 ZM9.519,2.991 C5.924,2.991 3.000,5.907 3.000,9.491 C3.000,9.491 3.000,53.495 3.000,53.495 C3.000,57.079 5.924,59.995 9.519,59.995 C9.519,59.995 29.796,59.995 29.796,59.995 C29.796,59.995 45.000,40.900 45.000,40.900 C45.000,40.900 45.000,9.491 45.000,9.491 C45.000,5.907 42.093,2.991 38.519,2.991 C38.519,2.991 9.519,2.991 9.519,2.991 Z" id="path-3" class="cls-5" fill-rule="evenodd"/>
    <path d="M30.500,62.780 C30.333,62.780 30.164,62.752 30.000,62.694 C29.400,62.482 29.000,61.916 29.000,61.280 C29.000,61.280 29.000,46.975 29.000,46.975 C29.000,43.900 31.862,40.994 34.891,40.994 C34.891,40.994 45.666,40.994 45.666,40.994 C46.244,40.994 46.770,41.326 47.020,41.847 C47.268,42.369 47.196,42.986 46.833,43.436 C46.833,43.436 31.667,62.223 31.667,62.223 C31.377,62.582 30.944,62.780 30.500,62.780 ZM34.891,43.994 C33.540,43.994 32.000,45.582 32.000,46.975 C32.000,46.975 32.000,57.034 32.000,57.034 C32.000,57.034 42.527,43.994 42.527,43.994 C42.527,43.994 34.891,43.994 34.891,43.994 Z" id="path-4" class="cls-5" fill-rule="evenodd"/>
    <circle id="circle-1" class="cls-7" cx="37" cy="29" r="4"/>
    <path d="M43.536,27.309 C43.536,27.309 41.606,26.623 41.606,26.623 C41.158,26.463 40.946,25.952 41.150,25.522 C41.150,25.522 42.029,23.673 42.029,23.673 C42.353,22.991 41.643,22.280 40.961,22.604 C40.961,22.604 39.111,23.483 39.111,23.483 C38.682,23.687 38.170,23.475 38.011,23.028 C38.011,23.028 37.325,21.098 37.325,21.098 C37.072,20.386 36.066,20.386 35.813,21.098 C35.813,21.098 35.127,23.028 35.127,23.028 C34.968,23.475 34.456,23.687 34.027,23.483 C34.027,23.483 32.178,22.604 32.178,22.604 C31.496,22.280 30.784,22.991 31.108,23.673 C31.108,23.673 31.988,25.522 31.988,25.522 C32.191,25.952 31.980,26.463 31.532,26.623 C31.532,26.623 29.603,27.309 29.603,27.309 C28.892,27.562 28.892,28.567 29.603,28.820 C29.603,28.820 31.532,29.507 31.532,29.507 C31.980,29.666 32.191,30.177 31.988,30.607 C31.988,30.607 31.108,32.457 31.108,32.457 C30.784,33.139 31.496,33.850 32.178,33.526 C32.178,33.526 34.027,32.646 34.027,32.646 C34.456,32.442 34.968,32.654 35.127,33.102 C35.127,33.102 35.813,35.032 35.813,35.032 C36.066,35.743 37.072,35.743 37.325,35.032 C37.325,35.032 38.011,33.102 38.011,33.102 C38.170,32.654 38.682,32.442 39.111,32.646 C39.111,32.646 40.961,33.526 40.961,33.526 C41.643,33.850 42.353,33.139 42.029,32.457 C42.029,32.457 41.150,30.607 41.150,30.607 C40.946,30.177 41.158,29.666 41.606,29.507 C41.606,29.507 43.536,28.820 43.536,28.820 C44.247,28.567 44.247,27.562 43.536,27.309 ZM36.507,31.290 C34.721,31.290 33.273,29.842 33.273,28.056 C33.273,26.270 34.721,24.823 36.507,24.823 C38.292,24.823 39.740,26.270 39.740,28.056 C39.740,29.842 38.292,31.290 36.507,31.290 Z" id="path-5" class="cls-5" fill-rule="evenodd"/>
  </g>
</svg>
