<svg xmlns="http://www.w3.org/2000/svg" xmlns:xlink="http://www.w3.org/1999/xlink" preserveAspectRatio="xMidYMid" width="61" height="66" viewBox="0 0 61 66">
  <defs>
    <style>

      .cls-3 {
        fill: #edc951;
      }

      .cls-4 {
        fill: #8b71b5;
      }

      .cls-5 {
        fill: #000000;
      }
    </style>
  </defs>
  <g id="group-83svg">
    <path d="M22.664,4.991 C22.664,4.991 47.164,4.991 47.164,4.991 C49.364,4.991 51.000,6.291 51.000,8.492 C51.000,8.492 51.000,60.495 51.000,60.495 C51.000,62.696 49.364,64.996 47.164,64.996 C47.164,64.996 10.165,64.996 10.165,64.996 C7.956,64.996 6.000,62.704 6.000,60.495 C6.000,60.495 6.000,24.562 6.000,24.562 C6.000,24.562 22.664,4.991 22.664,4.991 Z" id="path-1" class="cls-3" fill-rule="evenodd"/>
    <path d="M7.350,22.993 C7.350,22.993 18.664,22.993 18.664,22.993 C20.873,22.993 23.000,21.202 23.000,18.992 C23.000,18.992 23.000,4.491 23.000,4.491 C23.000,4.491 7.350,22.993 7.350,22.993 Z" id="path-2" class="cls-4" fill-rule="evenodd"/>
    <path d="M42.165,62.996 C42.165,62.996 5.164,62.996 5.164,62.996 C2.220,62.996 -0.000,60.631 -0.000,57.495 C-0.000,57.495 -0.000,21.562 -0.000,21.562 C-0.000,21.228 0.112,20.903 0.317,20.639 C0.317,20.639 15.982,0.568 15.982,0.568 C16.266,0.204 16.703,-0.009 17.165,-0.009 C17.165,-0.009 42.165,-0.009 42.165,-0.009 C45.273,-0.009 48.000,2.562 48.000,5.492 C48.000,5.492 48.000,57.495 48.000,57.495 C48.000,60.425 45.273,62.996 42.165,62.996 ZM3.000,22.078 C3.000,22.078 3.000,57.495 3.000,57.495 C3.000,58.699 3.677,59.995 5.164,59.995 C5.164,59.995 42.165,59.995 42.165,59.995 C43.622,59.995 45.000,58.780 45.000,57.495 C45.000,57.495 45.000,5.492 45.000,5.492 C45.000,4.206 43.622,2.991 42.165,2.991 C42.165,2.991 17.896,2.991 17.896,2.991 C17.896,2.991 3.000,22.078 3.000,22.078 Z" id="path-3" class="cls-5" fill-rule="evenodd"/>
    <path d="M13.128,21.993 C13.128,21.993 2.353,21.993 2.353,21.993 C1.775,21.993 1.248,21.661 0.999,21.140 C0.750,20.619 0.822,20.000 1.185,19.551 C1.185,19.551 16.332,0.765 16.332,0.765 C16.731,0.270 17.401,0.079 17.999,0.292 C18.599,0.503 19.000,1.070 19.000,1.706 C19.000,1.706 19.000,16.012 19.000,16.012 C19.000,19.086 16.146,21.993 13.128,21.993 ZM5.489,18.992 C5.489,18.992 13.128,18.992 13.128,18.992 C14.470,18.992 16.000,17.405 16.000,16.012 C16.000,16.012 16.000,5.956 16.000,5.956 C16.000,5.956 5.489,18.992 5.489,18.992 Z" id="path-4" class="cls-5" fill-rule="evenodd"/>
    <path d="M59.000,35.994 C59.000,38.203 57.209,39.994 55.000,39.994 C55.000,39.994 36.000,39.994 36.000,39.994 C33.791,39.994 32.000,38.203 32.000,35.994 C32.000,35.994 32.000,26.993 32.000,26.993 C32.000,24.784 33.791,22.993 36.000,22.993 C36.000,22.993 55.000,22.993 55.000,22.993 C57.209,22.993 59.000,24.784 59.000,26.993 C59.000,26.993 59.000,35.994 59.000,35.994 Z" id="path-5" class="cls-4" fill-rule="evenodd"/>
    <path d="M55.500,40.994 C55.500,40.994 36.500,40.994 36.500,40.994 C33.467,40.994 31.000,38.526 31.000,35.494 C31.000,35.494 31.000,26.493 31.000,26.493 C31.000,23.461 33.467,20.993 36.500,20.993 C36.500,20.993 55.500,20.993 55.500,20.993 C58.533,20.993 61.000,23.461 61.000,26.493 C61.000,26.493 61.000,35.494 61.000,35.494 C61.000,38.526 58.533,40.994 55.500,40.994 ZM36.500,23.993 C35.122,23.993 34.000,25.114 34.000,26.493 C34.000,26.493 34.000,35.494 34.000,35.494 C34.000,36.873 35.122,37.994 36.500,37.994 C36.500,37.994 55.500,37.994 55.500,37.994 C56.878,37.994 58.000,36.873 58.000,35.494 C58.000,35.494 58.000,26.493 58.000,26.493 C58.000,25.114 56.878,23.993 55.500,23.993 C55.500,23.993 36.500,23.993 36.500,23.993 Z" id="path-6" class="cls-5" fill-rule="evenodd"/>
    <path d="M40.158,33.841 C40.158,33.841 38.830,33.841 38.830,33.841 C38.830,33.841 38.830,35.867 38.830,35.867 C38.830,36.158 38.761,36.376 38.625,36.527 C38.488,36.675 38.315,36.752 38.107,36.752 C37.889,36.752 37.713,36.677 37.580,36.529 C37.446,36.380 37.379,36.164 37.379,35.876 C37.379,35.876 37.379,30.358 37.379,30.358 C37.379,30.040 37.453,29.812 37.599,29.675 C37.746,29.538 37.979,29.470 38.297,29.470 C38.297,29.470 40.158,29.470 40.158,29.470 C40.708,29.470 41.131,29.513 41.427,29.597 C41.720,29.679 41.973,29.814 42.186,30.003 C42.400,30.191 42.561,30.423 42.672,30.696 C42.783,30.970 42.838,31.277 42.838,31.618 C42.838,32.349 42.614,32.900 42.165,33.277 C41.715,33.652 41.046,33.841 40.158,33.841 ZM39.806,30.560 C39.806,30.560 38.830,30.560 38.830,30.560 C38.830,30.560 38.830,32.747 38.830,32.747 C38.830,32.747 39.806,32.747 39.806,32.747 C40.148,32.747 40.434,32.710 40.663,32.640 C40.893,32.568 41.067,32.450 41.188,32.288 C41.309,32.124 41.369,31.911 41.369,31.648 C41.369,31.333 41.276,31.075 41.090,30.876 C40.882,30.665 40.454,30.560 39.806,30.560 Z" id="path-7" class="cls-3" fill-rule="evenodd"/>
    <path d="M45.509,30.228 C45.509,30.228 45.509,32.279 45.509,32.279 C45.509,32.279 48.639,32.279 48.639,32.279 C48.639,32.279 48.639,30.228 48.639,30.228 C48.639,29.935 48.705,29.714 48.837,29.567 C48.969,29.421 49.142,29.349 49.357,29.349 C49.575,29.349 49.751,29.421 49.887,29.566 C50.022,29.710 50.089,29.931 50.089,30.228 C50.089,30.228 50.089,35.867 50.089,35.867 C50.089,36.164 50.021,36.384 49.884,36.531 C49.748,36.677 49.572,36.752 49.357,36.752 C49.139,36.752 48.965,36.677 48.834,36.529 C48.704,36.380 48.639,36.160 48.639,35.867 C48.639,35.867 48.639,33.460 48.639,33.460 C48.639,33.460 45.509,33.460 45.509,33.460 C45.509,33.460 45.509,35.867 45.509,35.867 C45.509,36.164 45.441,36.384 45.304,36.531 C45.167,36.677 44.992,36.752 44.777,36.752 C44.559,36.752 44.385,36.677 44.254,36.529 C44.124,36.380 44.059,36.160 44.059,35.867 C44.059,35.867 44.059,30.228 44.059,30.228 C44.059,29.935 44.123,29.714 44.252,29.567 C44.380,29.421 44.556,29.349 44.777,29.349 C44.995,29.349 45.171,29.421 45.307,29.566 C45.442,29.710 45.509,29.931 45.509,30.228 Z" id="path-8" class="cls-3" fill-rule="evenodd"/>
    <path d="M54.425,33.841 C54.425,33.841 53.097,33.841 53.097,33.841 C53.097,33.841 53.097,35.867 53.097,35.867 C53.097,36.158 53.029,36.376 52.892,36.527 C52.755,36.675 52.583,36.752 52.374,36.752 C52.156,36.752 51.980,36.677 51.847,36.529 C51.714,36.380 51.647,36.164 51.647,35.876 C51.647,35.876 51.647,30.358 51.647,30.358 C51.647,30.040 51.720,29.812 51.867,29.675 C52.013,29.538 52.246,29.470 52.565,29.470 C52.565,29.470 54.425,29.470 54.425,29.470 C54.976,29.470 55.398,29.513 55.695,29.597 C55.988,29.679 56.241,29.814 56.454,30.003 C56.667,30.191 56.829,30.423 56.940,30.696 C57.051,30.970 57.106,31.277 57.106,31.618 C57.106,32.349 56.881,32.900 56.432,33.277 C55.983,33.652 55.314,33.841 54.425,33.841 ZM54.074,30.560 C54.074,30.560 53.097,30.560 53.097,30.560 C53.097,30.560 53.097,32.747 53.097,32.747 C53.097,32.747 54.074,32.747 54.074,32.747 C54.415,32.747 54.701,32.710 54.931,32.640 C55.160,32.568 55.335,32.450 55.456,32.288 C55.576,32.124 55.636,31.911 55.636,31.648 C55.636,31.333 55.543,31.075 55.358,30.876 C55.149,30.665 54.722,30.560 54.074,30.560 Z" id="path-9" class="cls-3" fill-rule="evenodd"/>
  </g>
</svg>
