<svg xmlns="http://www.w3.org/2000/svg" xmlns:xlink="http://www.w3.org/1999/xlink" preserveAspectRatio="xMidYMid" width="67" height="66" viewBox="0 0 67 66">
  <defs>
    <style>

      .cls-3 {
        fill: #edc951;
      }

      .cls-4 {
        fill: #8b71b5;
      }

      .cls-5 {
        fill: #000000;
      }
    </style>
  </defs>
  <g id="group-89svg">
    <path d="M22.528,4.991 C22.528,4.991 47.028,4.991 47.028,4.991 C49.228,4.991 51.000,6.291 51.000,8.492 C51.000,8.492 51.000,60.495 51.000,60.495 C51.000,62.696 49.228,64.996 47.028,64.996 C47.028,64.996 10.028,64.996 10.028,64.996 C7.819,64.996 6.000,62.704 6.000,60.495 C6.000,60.495 6.000,24.562 6.000,24.562 C6.000,24.562 22.528,4.991 22.528,4.991 Z" id="path-1" class="cls-3" fill-rule="evenodd"/>
    <path d="M7.215,22.993 C7.215,22.993 18.528,22.993 18.528,22.993 C20.738,22.993 23.000,21.202 23.000,18.992 C23.000,18.992 23.000,4.491 23.000,4.491 C23.000,4.491 7.215,22.993 7.215,22.993 Z" id="path-2" class="cls-4" fill-rule="evenodd"/>
    <path d="M42.028,62.996 C42.028,62.996 5.028,62.996 5.028,62.996 C2.114,62.996 -0.000,60.682 -0.000,57.495 C-0.000,57.495 -0.000,21.562 -0.000,21.562 C-0.000,21.230 0.110,20.907 0.313,20.644 C0.313,20.644 15.842,0.573 15.842,0.573 C16.126,0.206 16.564,-0.009 17.028,-0.009 C17.028,-0.009 42.028,-0.009 42.028,-0.009 C45.210,-0.009 48.000,2.562 48.000,5.492 C48.000,5.492 48.000,57.495 48.000,57.495 C48.000,60.425 45.210,62.996 42.028,62.996 ZM3.000,22.075 C3.000,22.075 3.000,57.495 3.000,57.495 C3.000,58.649 3.531,59.995 5.028,59.995 C5.028,59.995 42.028,59.995 42.028,59.995 C43.528,59.995 45.000,58.757 45.000,57.495 C45.000,57.495 45.000,5.492 45.000,5.492 C45.000,4.230 43.528,2.991 42.028,2.991 C42.028,2.991 17.765,2.991 17.765,2.991 C17.765,2.991 3.000,22.075 3.000,22.075 Z" id="path-3" class="cls-5" fill-rule="evenodd"/>
    <path d="M13.128,21.993 C13.128,21.993 2.352,21.993 2.352,21.993 C1.774,21.993 1.249,21.661 0.999,21.140 C0.750,20.619 0.822,20.000 1.185,19.551 C1.185,19.551 16.332,0.765 16.332,0.765 C16.733,0.270 17.403,0.079 17.999,0.292 C18.599,0.503 19.000,1.070 19.000,1.706 C19.000,1.706 19.000,16.012 19.000,16.012 C19.000,19.086 16.146,21.993 13.128,21.993 ZM5.489,18.992 C5.489,18.992 13.128,18.992 13.128,18.992 C14.470,18.992 16.000,17.405 16.000,16.012 C16.000,16.012 16.000,5.956 16.000,5.956 C16.000,5.956 5.489,18.992 5.489,18.992 Z" id="path-4" class="cls-5" fill-rule="evenodd"/>
    <path d="M65.000,36.994 C65.000,39.203 63.209,40.994 61.000,40.994 C61.000,40.994 42.000,40.994 42.000,40.994 C39.791,40.994 38.000,39.203 38.000,36.994 C38.000,36.994 38.000,27.993 38.000,27.993 C38.000,25.784 39.791,23.993 42.000,23.993 C42.000,23.993 61.000,23.993 61.000,23.993 C63.209,23.993 65.000,25.784 65.000,27.993 C65.000,27.993 65.000,36.994 65.000,36.994 Z" id="path-5" class="cls-4" fill-rule="evenodd"/>
    <path d="M61.500,41.994 C61.500,41.994 42.500,41.994 42.500,41.994 C39.468,41.994 37.000,39.526 37.000,36.494 C37.000,36.494 37.000,27.493 37.000,27.493 C37.000,24.461 39.468,21.993 42.500,21.993 C42.500,21.993 61.500,21.993 61.500,21.993 C64.532,21.993 67.000,24.461 67.000,27.493 C67.000,27.493 67.000,36.494 67.000,36.494 C67.000,39.526 64.532,41.994 61.500,41.994 ZM42.500,24.993 C41.121,24.993 40.000,26.114 40.000,27.493 C40.000,27.493 40.000,36.494 40.000,36.494 C40.000,37.873 41.121,38.994 42.500,38.994 C42.500,38.994 61.500,38.994 61.500,38.994 C62.879,38.994 64.000,37.873 64.000,36.494 C64.000,36.494 64.000,27.493 64.000,27.493 C64.000,26.114 62.879,24.993 61.500,24.993 C61.500,24.993 42.500,24.993 42.500,24.993 Z" id="path-6" class="cls-5" fill-rule="evenodd"/>
    <path d="M46.253,35.824 C46.253,35.824 45.211,31.961 45.211,31.961 C45.211,31.961 44.156,35.824 44.156,35.824 C44.074,36.117 44.010,36.328 43.961,36.455 C43.913,36.583 43.828,36.697 43.708,36.797 C43.588,36.899 43.429,36.949 43.229,36.949 C43.068,36.949 42.935,36.920 42.832,36.859 C42.728,36.799 42.644,36.714 42.579,36.604 C42.515,36.495 42.462,36.364 42.421,36.213 C42.380,36.062 42.343,35.922 42.310,35.793 C42.310,35.793 41.238,31.456 41.238,31.456 C41.174,31.204 41.142,31.012 41.142,30.880 C41.142,30.713 41.200,30.572 41.317,30.458 C41.435,30.344 41.580,30.286 41.753,30.286 C41.990,30.286 42.149,30.362 42.231,30.515 C42.313,30.667 42.386,30.889 42.447,31.179 C42.447,31.179 43.291,34.941 43.291,34.941 C43.291,34.941 44.235,31.421 44.235,31.421 C44.306,31.151 44.369,30.946 44.425,30.806 C44.480,30.665 44.571,30.543 44.697,30.441 C44.823,30.338 44.994,30.286 45.211,30.286 C45.431,30.286 45.602,30.340 45.724,30.447 C45.845,30.554 45.929,30.671 45.976,30.796 C46.022,30.923 46.086,31.130 46.165,31.421 C46.165,31.421 47.118,34.941 47.118,34.941 C47.118,34.941 47.962,31.179 47.962,31.179 C48.003,30.982 48.042,30.829 48.079,30.718 C48.115,30.607 48.178,30.507 48.268,30.419 C48.356,30.331 48.486,30.286 48.656,30.286 C48.826,30.286 48.971,30.343 49.090,30.456 C49.208,30.568 49.268,30.710 49.268,30.880 C49.268,31.000 49.235,31.192 49.171,31.456 C49.171,31.456 48.099,35.793 48.099,35.793 C48.025,36.086 47.965,36.301 47.916,36.437 C47.868,36.574 47.785,36.693 47.670,36.796 C47.554,36.898 47.391,36.949 47.180,36.949 C46.980,36.949 46.821,36.900 46.701,36.800 C46.581,36.701 46.497,36.588 46.450,36.463 C46.403,36.339 46.338,36.126 46.253,35.824 Z" id="path-7" class="cls-3" fill-rule="evenodd"/>
    <path d="M52.309,35.869 C52.309,35.869 51.275,31.763 51.275,31.763 C51.275,31.763 51.275,36.210 51.275,36.210 C51.275,36.457 51.221,36.642 51.110,36.765 C51.001,36.888 50.855,36.949 50.674,36.949 C50.498,36.949 50.354,36.888 50.243,36.767 C50.132,36.645 50.076,36.460 50.076,36.210 C50.076,36.210 50.076,31.112 50.076,31.112 C50.076,30.831 50.149,30.642 50.296,30.544 C50.442,30.445 50.640,30.397 50.889,30.397 C50.889,30.397 51.293,30.397 51.293,30.397 C51.536,30.397 51.713,30.419 51.822,30.462 C51.933,30.507 52.014,30.585 52.066,30.700 C52.119,30.814 52.180,31.000 52.247,31.258 C52.247,31.258 53.183,34.787 53.183,34.787 C53.183,34.787 54.119,31.258 54.119,31.258 C54.186,31.000 54.246,30.814 54.299,30.700 C54.352,30.585 54.433,30.507 54.543,30.462 C54.652,30.419 54.829,30.397 55.072,30.397 C55.072,30.397 55.477,30.397 55.477,30.397 C55.726,30.397 55.924,30.445 56.070,30.544 C56.217,30.642 56.290,30.831 56.290,31.112 C56.290,31.112 56.290,36.210 56.290,36.210 C56.290,36.457 56.234,36.642 56.125,36.765 C56.015,36.888 55.868,36.949 55.684,36.949 C55.511,36.949 55.368,36.888 55.257,36.765 C55.145,36.642 55.090,36.457 55.090,36.210 C55.090,36.210 55.090,31.763 55.090,31.763 C55.090,31.763 54.058,35.869 54.058,35.869 C53.990,36.134 53.935,36.331 53.893,36.455 C53.850,36.580 53.771,36.693 53.657,36.796 C53.543,36.898 53.385,36.949 53.183,36.949 C53.030,36.949 52.901,36.917 52.796,36.850 C52.690,36.785 52.608,36.701 52.550,36.597 C52.491,36.496 52.445,36.381 52.411,36.257 C52.378,36.132 52.344,36.003 52.309,35.869 Z" id="path-8" class="cls-3" fill-rule="evenodd"/>
    <path d="M61.752,36.110 C61.752,36.110 61.444,35.301 61.444,35.301 C61.444,35.301 58.825,35.301 58.825,35.301 C58.825,35.301 58.518,36.127 58.518,36.127 C58.397,36.450 58.295,36.668 58.210,36.780 C58.125,36.893 57.986,36.949 57.793,36.949 C57.629,36.949 57.483,36.889 57.357,36.769 C57.231,36.649 57.169,36.513 57.169,36.361 C57.169,36.273 57.184,36.181 57.213,36.087 C57.242,35.994 57.290,35.864 57.357,35.697 C57.357,35.697 59.006,31.513 59.006,31.513 C59.053,31.393 59.108,31.248 59.175,31.080 C59.240,30.911 59.311,30.772 59.386,30.660 C59.460,30.549 59.559,30.459 59.680,30.390 C59.802,30.321 59.952,30.286 60.131,30.286 C60.312,30.286 60.464,30.321 60.585,30.390 C60.707,30.459 60.805,30.548 60.880,30.655 C60.954,30.765 61.018,30.881 61.068,31.005 C61.120,31.130 61.185,31.296 61.265,31.504 C61.265,31.504 62.947,35.662 62.947,35.662 C63.079,35.978 63.145,36.208 63.145,36.351 C63.145,36.501 63.083,36.638 62.958,36.762 C62.834,36.887 62.684,36.949 62.508,36.949 C62.405,36.949 62.317,36.931 62.244,36.894 C62.171,36.858 62.109,36.808 62.060,36.745 C62.010,36.682 61.956,36.585 61.899,36.455 C61.842,36.325 61.793,36.209 61.752,36.110 ZM59.168,34.322 C59.168,34.322 61.093,34.322 61.093,34.322 C61.093,34.322 60.122,31.662 60.122,31.662 C60.122,31.662 59.168,34.322 59.168,34.322 Z" id="path-9" class="cls-3" fill-rule="evenodd"/>
  </g>
</svg>
