<svg xmlns="http://www.w3.org/2000/svg" xmlns:xlink="http://www.w3.org/1999/xlink" preserveAspectRatio="xMidYMid" width="55" height="66" viewBox="0 0 55 66">
  <defs>
    <style>

      .cls-3 {
        fill: #edc951;
      }

      .cls-4 {
        fill: #8b71b5;
      }

      .cls-5 {
        fill: #000000;
      }
    </style>
  </defs>
  <g id="group-82svg">
    <path d="M22.524,4.991 C22.524,4.991 47.024,4.991 47.024,4.991 C49.224,4.991 51.000,6.291 51.000,8.492 C51.000,8.492 51.000,60.495 51.000,60.495 C51.000,62.696 49.224,64.996 47.024,64.996 C47.024,64.996 10.024,64.996 10.024,64.996 C7.815,64.996 6.000,62.704 6.000,60.495 C6.000,60.495 6.000,24.562 6.000,24.562 C6.000,24.562 22.524,4.991 22.524,4.991 Z" id="path-1" class="cls-3" fill-rule="evenodd"/>
    <path d="M7.209,22.993 C7.209,22.993 18.524,22.993 18.524,22.993 C20.733,22.993 23.000,21.202 23.000,18.992 C23.000,18.992 23.000,4.491 23.000,4.491 C23.000,4.491 7.209,22.993 7.209,22.993 Z" id="path-2" class="cls-4" fill-rule="evenodd"/>
    <path d="M42.024,62.996 C42.024,62.996 5.024,62.996 5.024,62.996 C2.113,62.996 -0.000,60.682 -0.000,57.495 C-0.000,57.495 -0.000,21.562 -0.000,21.562 C-0.000,21.230 0.110,20.907 0.313,20.644 C0.313,20.644 15.837,0.573 15.837,0.573 C16.122,0.206 16.560,-0.009 17.024,-0.009 C17.024,-0.009 42.024,-0.009 42.024,-0.009 C45.208,-0.009 48.000,2.562 48.000,5.492 C48.000,5.492 48.000,57.495 48.000,57.495 C48.000,60.425 45.208,62.996 42.024,62.996 ZM3.000,22.075 C3.000,22.075 3.000,57.495 3.000,57.495 C3.000,58.649 3.530,59.995 5.024,59.995 C5.024,59.995 42.024,59.995 42.024,59.995 C43.526,59.995 45.000,58.757 45.000,57.495 C45.000,57.495 45.000,5.492 45.000,5.492 C45.000,4.230 43.526,2.991 42.024,2.991 C42.024,2.991 17.760,2.991 17.760,2.991 C17.760,2.991 3.000,22.075 3.000,22.075 Z" id="path-3" class="cls-5" fill-rule="evenodd"/>
    <path d="M12.652,21.993 C12.652,21.993 1.876,21.993 1.876,21.993 C1.295,21.993 0.766,21.657 0.519,21.129 C0.271,20.603 0.351,19.981 0.723,19.533 C0.723,19.533 16.347,0.747 16.347,0.747 C16.750,0.261 17.415,0.082 18.010,0.295 C18.604,0.510 19.000,1.074 19.000,1.706 C19.000,1.706 19.000,16.012 19.000,16.012 C19.000,19.233 15.510,21.993 12.652,21.993 ZM5.075,18.992 C5.075,18.992 12.652,18.992 12.652,18.992 C14.091,18.992 16.000,17.293 16.000,16.012 C16.000,16.012 16.000,5.856 16.000,5.856 C16.000,5.856 5.075,18.992 5.075,18.992 Z" id="path-4" class="cls-5" fill-rule="evenodd"/>
    <path d="M53.000,35.994 C53.000,38.203 51.209,39.994 49.000,39.994 C49.000,39.994 30.000,39.994 30.000,39.994 C27.791,39.994 26.000,38.203 26.000,35.994 C26.000,35.994 26.000,26.993 26.000,26.993 C26.000,24.784 27.791,22.993 30.000,22.993 C30.000,22.993 49.000,22.993 49.000,22.993 C51.209,22.993 53.000,24.784 53.000,26.993 C53.000,26.993 53.000,35.994 53.000,35.994 Z" id="path-5" class="cls-4" fill-rule="evenodd"/>
    <path d="M49.500,40.994 C49.500,40.994 30.500,40.994 30.500,40.994 C27.467,40.994 25.000,38.526 25.000,35.494 C25.000,35.494 25.000,26.493 25.000,26.493 C25.000,23.461 27.467,20.993 30.500,20.993 C30.500,20.993 49.500,20.993 49.500,20.993 C52.533,20.993 55.000,23.461 55.000,26.493 C55.000,26.493 55.000,35.494 55.000,35.494 C55.000,38.526 52.533,40.994 49.500,40.994 ZM30.500,23.993 C29.122,23.993 28.000,25.114 28.000,26.493 C28.000,26.493 28.000,35.494 28.000,35.494 C28.000,36.873 29.122,37.994 30.500,37.994 C30.500,37.994 49.500,37.994 49.500,37.994 C50.878,37.994 52.000,36.873 52.000,35.494 C52.000,35.494 52.000,26.493 52.000,26.493 C52.000,25.114 50.878,23.993 49.500,23.993 C49.500,23.993 30.500,23.993 30.500,23.993 Z" id="path-6" class="cls-5" fill-rule="evenodd"/>
    <path d="M36.533,34.368 C36.533,34.595 36.477,34.843 36.365,35.107 C36.252,35.372 36.076,35.634 35.835,35.888 C35.594,36.144 35.287,36.353 34.912,36.511 C34.538,36.671 34.102,36.752 33.604,36.752 C33.226,36.752 32.882,36.714 32.573,36.644 C32.264,36.572 31.983,36.460 31.731,36.308 C31.478,36.158 31.247,35.958 31.035,35.710 C30.846,35.486 30.685,35.234 30.552,34.956 C30.418,34.677 30.318,34.380 30.251,34.066 C30.185,33.749 30.151,33.413 30.151,33.060 C30.151,32.484 30.235,31.968 30.403,31.511 C30.570,31.056 30.811,30.665 31.123,30.341 C31.436,30.019 31.802,29.771 32.222,29.603 C32.642,29.433 33.089,29.349 33.564,29.349 C34.144,29.349 34.660,29.464 35.112,29.694 C35.565,29.927 35.912,30.212 36.152,30.552 C36.393,30.892 36.514,31.214 36.514,31.517 C36.514,31.683 36.455,31.829 36.338,31.956 C36.221,32.083 36.079,32.146 35.913,32.146 C35.727,32.146 35.588,32.103 35.496,32.015 C35.403,31.927 35.299,31.775 35.186,31.560 C34.997,31.206 34.774,30.941 34.519,30.765 C34.264,30.589 33.949,30.501 33.574,30.501 C32.979,30.501 32.504,30.728 32.151,31.179 C31.798,31.632 31.621,32.275 31.621,33.109 C31.621,33.665 31.699,34.128 31.855,34.497 C32.012,34.867 32.233,35.142 32.519,35.326 C32.806,35.507 33.141,35.599 33.525,35.599 C33.942,35.599 34.294,35.496 34.582,35.289 C34.871,35.082 35.088,34.779 35.234,34.378 C35.296,34.189 35.373,34.035 35.464,33.915 C35.555,33.798 35.702,33.738 35.903,33.738 C36.076,33.738 36.224,33.798 36.348,33.919 C36.471,34.038 36.533,34.189 36.533,34.368 Z" id="path-7" class="cls-3" fill-rule="evenodd"/>
    <path d="M43.276,34.480 C43.276,34.914 43.165,35.302 42.942,35.648 C42.719,35.992 42.393,36.263 41.963,36.458 C41.533,36.654 41.024,36.752 40.435,36.752 C39.728,36.752 39.145,36.617 38.687,36.351 C38.361,36.158 38.097,35.902 37.893,35.581 C37.689,35.261 37.588,34.949 37.588,34.646 C37.588,34.470 37.649,34.320 37.771,34.195 C37.893,34.070 38.048,34.007 38.237,34.007 C38.390,34.007 38.519,34.056 38.625,34.154 C38.731,34.251 38.822,34.396 38.896,34.587 C38.988,34.816 39.086,35.005 39.192,35.160 C39.298,35.312 39.447,35.439 39.639,35.537 C39.831,35.636 40.083,35.687 40.395,35.687 C40.825,35.687 41.174,35.585 41.443,35.386 C41.711,35.185 41.846,34.937 41.846,34.636 C41.846,34.400 41.773,34.206 41.628,34.058 C41.483,33.909 41.296,33.796 41.067,33.718 C40.837,33.640 40.531,33.558 40.146,33.470 C39.632,33.349 39.202,33.208 38.855,33.046 C38.508,32.886 38.233,32.665 38.030,32.388 C37.826,32.109 37.725,31.763 37.725,31.351 C37.725,30.956 37.832,30.607 38.047,30.300 C38.262,29.995 38.573,29.759 38.979,29.595 C39.386,29.431 39.865,29.349 40.415,29.349 C40.854,29.349 41.234,29.403 41.555,29.511 C41.876,29.620 42.142,29.765 42.353,29.946 C42.565,30.126 42.720,30.317 42.817,30.515 C42.915,30.714 42.964,30.907 42.964,31.097 C42.964,31.269 42.903,31.425 42.781,31.562 C42.659,31.700 42.506,31.771 42.324,31.771 C42.158,31.771 42.032,31.728 41.946,31.646 C41.859,31.562 41.766,31.427 41.665,31.237 C41.535,30.968 41.378,30.757 41.196,30.605 C41.014,30.454 40.721,30.378 40.317,30.378 C39.943,30.378 39.641,30.460 39.412,30.624 C39.182,30.790 39.067,30.987 39.067,31.218 C39.067,31.362 39.106,31.486 39.185,31.589 C39.263,31.695 39.370,31.782 39.507,31.859 C39.644,31.933 39.782,31.991 39.922,32.034 C40.062,32.075 40.293,32.138 40.615,32.220 C41.019,32.314 41.384,32.417 41.711,32.532 C42.039,32.646 42.317,32.784 42.546,32.946 C42.776,33.111 42.955,33.316 43.083,33.564 C43.212,33.814 43.276,34.119 43.276,34.480 Z" id="path-8" class="cls-3" fill-rule="evenodd"/>
    <path d="M49.946,34.480 C49.946,34.914 49.835,35.302 49.612,35.648 C49.389,35.992 49.062,36.263 48.633,36.458 C48.203,36.654 47.694,36.752 47.104,36.752 C46.398,36.752 45.815,36.617 45.356,36.351 C45.031,36.158 44.767,35.902 44.563,35.581 C44.359,35.261 44.258,34.949 44.258,34.646 C44.258,34.470 44.319,34.320 44.441,34.195 C44.563,34.070 44.718,34.007 44.907,34.007 C45.060,34.007 45.189,34.056 45.295,34.154 C45.401,34.251 45.492,34.396 45.566,34.587 C45.658,34.816 45.756,35.005 45.862,35.160 C45.968,35.312 46.117,35.439 46.309,35.537 C46.500,35.636 46.753,35.687 47.065,35.687 C47.495,35.687 47.844,35.585 48.113,35.386 C48.381,35.185 48.516,34.937 48.516,34.636 C48.516,34.400 48.443,34.206 48.298,34.058 C48.153,33.909 47.966,33.796 47.737,33.718 C47.507,33.640 47.201,33.558 46.816,33.470 C46.302,33.349 45.872,33.208 45.525,33.046 C45.178,32.886 44.903,32.665 44.700,32.388 C44.496,32.109 44.395,31.763 44.395,31.351 C44.395,30.956 44.502,30.607 44.717,30.300 C44.932,29.995 45.243,29.759 45.649,29.595 C46.056,29.431 46.535,29.349 47.085,29.349 C47.524,29.349 47.904,29.403 48.225,29.511 C48.546,29.620 48.812,29.765 49.023,29.946 C49.235,30.126 49.390,30.317 49.487,30.515 C49.585,30.714 49.634,30.907 49.634,31.097 C49.634,31.269 49.573,31.425 49.451,31.562 C49.329,31.700 49.176,31.771 48.994,31.771 C48.828,31.771 48.702,31.728 48.616,31.646 C48.529,31.562 48.436,31.427 48.335,31.237 C48.205,30.968 48.048,30.757 47.866,30.605 C47.684,30.454 47.391,30.378 46.987,30.378 C46.613,30.378 46.311,30.460 46.081,30.624 C45.852,30.790 45.737,30.987 45.737,31.218 C45.737,31.362 45.776,31.486 45.854,31.589 C45.933,31.695 46.040,31.782 46.177,31.859 C46.313,31.933 46.452,31.991 46.592,32.034 C46.732,32.075 46.963,32.138 47.285,32.220 C47.689,32.314 48.054,32.417 48.381,32.532 C48.708,32.646 48.987,32.784 49.216,32.946 C49.446,33.111 49.625,33.316 49.753,33.564 C49.882,33.814 49.946,34.119 49.946,34.480 Z" id="path-9" class="cls-3" fill-rule="evenodd"/>
  </g>
</svg>
