<svg xmlns="http://www.w3.org/2000/svg" xmlns:xlink="http://www.w3.org/1999/xlink" preserveAspectRatio="xMidYMid" width="66" height="52" viewBox="0 0 66 52">
  <defs>
    <style>

      .cls-3 {
        fill: #53ecf4;
      }

      .cls-4 {
        fill: #edc951;
      }

      .cls-5 {
        fill: #99746a;
      }

      .cls-6 {
        fill: #000000;
      }
    </style>
  </defs>
  <g id="group-39svg">
    <path d="M66.000,13.010 C66.000,8.591 62.418,5.010 58.000,5.010 C58.000,5.010 14.000,5.010 14.000,5.010 C9.582,5.010 6.000,8.591 6.000,13.010 C6.000,13.010 6.000,43.012 6.000,43.012 C6.000,47.431 9.582,51.013 14.000,51.013 C14.000,51.013 58.000,51.013 58.000,51.013 C62.418,51.013 66.000,47.431 66.000,43.012 C66.000,43.012 66.000,13.010 66.000,13.010 Z" id="path-1" class="cls-3" fill-rule="evenodd"/>
    <path d="M46.209,19.387 C46.209,21.971 48.304,24.067 50.888,24.067 C53.472,24.067 55.567,21.971 55.567,19.387 C55.567,16.803 53.472,14.708 50.888,14.708 C48.304,14.708 46.209,16.803 46.209,19.387 Z" id="path-2" class="cls-4" fill-rule="evenodd"/>
    <path d="M6.000,30.950 C6.000,30.950 18.431,24.625 18.431,24.625 C18.431,24.625 25.676,28.302 25.676,28.302 C25.676,28.302 37.165,17.566 37.165,17.566 C37.165,17.566 43.131,38.891 43.131,38.891 C43.131,38.891 51.702,30.361 51.702,30.361 C51.702,30.361 58.781,50.069 58.781,50.069 C58.781,50.069 59.050,51.175 59.050,51.175 C59.050,51.175 16.072,51.245 16.072,51.245 C16.072,51.245 5.000,51.245 6.000,41.539 C6.000,41.539 6.000,30.950 6.000,30.950 Z" id="path-3" class="cls-5" fill-rule="evenodd"/>
    <path d="M53.500,49.013 C53.500,49.013 9.500,49.013 9.500,49.013 C4.262,49.013 -0.000,44.751 -0.000,39.512 C-0.000,39.512 -0.000,9.510 -0.000,9.510 C-0.000,4.271 4.262,0.009 9.500,0.009 C9.500,0.009 53.500,0.009 53.500,0.009 C58.738,0.009 63.000,4.271 63.000,9.510 C63.000,9.510 63.000,39.512 63.000,39.512 C63.000,44.751 58.738,49.013 53.500,49.013 ZM9.500,3.010 C5.916,3.010 3.000,5.926 3.000,9.510 C3.000,9.510 3.000,39.512 3.000,39.512 C3.000,43.096 5.916,46.013 9.500,46.013 C9.500,46.013 53.500,46.013 53.500,46.013 C57.084,46.013 60.000,43.096 60.000,39.512 C60.000,39.512 60.000,9.510 60.000,9.510 C60.000,5.926 57.084,3.010 53.500,3.010 C53.500,3.010 9.500,3.010 9.500,3.010 Z" id="path-4" class="cls-6" fill-rule="evenodd"/>
    <path d="M11.320,48.745 C7.798,48.745 0.908,46.436 0.008,37.692 C0.003,37.641 -0.000,37.590 -0.000,37.538 C-0.000,37.538 -0.000,26.949 -0.000,26.949 C-0.000,26.389 0.311,25.875 0.809,25.618 C0.809,25.618 12.989,19.294 12.989,19.294 C13.422,19.070 13.936,19.068 14.369,19.292 C14.369,19.292 20.547,22.483 20.547,22.483 C20.547,22.483 31.200,12.473 31.200,12.473 C31.583,12.112 32.123,11.978 32.632,12.122 C33.137,12.262 33.532,12.658 33.673,13.164 C33.673,13.164 38.920,32.017 38.920,32.017 C38.920,32.017 45.659,25.298 45.659,25.298 C46.022,24.937 46.545,24.785 47.047,24.897 C47.548,25.010 47.956,25.370 48.130,25.854 C48.130,25.854 55.201,45.561 55.201,45.561 C55.220,45.613 55.235,45.666 55.248,45.720 C55.248,45.720 55.513,46.826 55.513,46.826 C55.619,47.272 55.516,47.742 55.232,48.103 C54.948,48.464 54.515,48.674 54.057,48.675 C54.057,48.675 11.327,48.745 11.327,48.745 C11.324,48.743 11.321,48.744 11.320,48.745 ZM3.000,37.459 C3.885,45.643 10.996,45.745 11.321,45.745 C11.321,45.745 52.056,45.678 52.056,45.678 C52.056,45.678 46.103,29.091 46.103,29.091 C46.103,29.091 39.221,35.953 39.221,35.953 C38.844,36.329 38.295,36.475 37.779,36.341 C37.265,36.205 36.860,35.807 36.717,35.293 C36.717,35.293 31.447,16.357 31.447,16.357 C31.447,16.357 21.828,25.395 21.828,25.395 C21.364,25.831 20.677,25.926 20.112,25.635 C20.112,25.635 13.683,22.315 13.683,22.315 C13.683,22.315 3.000,27.860 3.000,27.860 C3.000,27.860 3.000,37.459 3.000,37.459 Z" id="path-5" class="cls-6" fill-rule="evenodd"/>
    <path d="M45.888,22.567 C42.480,22.567 39.708,19.794 39.708,16.387 C39.708,12.979 42.480,10.207 45.888,10.207 C49.295,10.207 52.067,12.979 52.067,16.387 C52.067,19.794 49.295,22.567 45.888,22.567 ZM45.888,13.208 C44.135,13.208 42.708,14.633 42.708,16.387 C42.708,18.140 44.135,19.566 45.888,19.566 C47.641,19.566 49.067,18.140 49.067,16.387 C49.067,14.633 47.641,13.208 45.888,13.208 Z" id="path-6" class="cls-6" fill-rule="evenodd"/>
  </g>
</svg>
