<svg xmlns="http://www.w3.org/2000/svg" xmlns:xlink="http://www.w3.org/1999/xlink" preserveAspectRatio="xMidYMid" width="67" height="49" viewBox="0 0 67 49">
  <defs>
    <style>

      .cls-3 {
        fill: #81bda4;
      }

      .cls-4 {
        fill: #53ecf4;
      }

      .cls-5 {
        fill: #000000;
      }
    </style>
  </defs>
  <g id="group-47svg">
    <path d="M67.000,39.990 C67.000,44.409 63.418,47.991 59.000,47.991 C59.000,47.991 15.000,47.991 15.000,47.991 C10.582,47.991 7.000,44.409 7.000,39.990 C7.000,39.990 7.000,11.988 7.000,11.988 C7.000,7.569 10.582,3.987 15.000,3.987 C15.000,3.987 59.000,3.987 59.000,3.987 C63.418,3.987 67.000,7.569 67.000,11.988 C67.000,11.988 67.000,39.990 67.000,39.990 Z" id="path-1" class="cls-3" fill-rule="evenodd"/>
    <path d="M59.000,37.990 C59.000,39.094 58.104,39.990 57.000,39.990 C57.000,39.990 17.000,39.990 17.000,39.990 C15.896,39.990 15.000,39.094 15.000,37.990 C15.000,37.990 15.000,21.989 15.000,21.989 C15.000,20.884 15.896,19.989 17.000,19.989 C17.000,19.989 57.000,19.989 57.000,19.989 C58.104,19.989 59.000,20.884 59.000,21.989 C59.000,21.989 59.000,37.990 59.000,37.990 Z" id="path-2" class="cls-4" fill-rule="evenodd"/>
    <path d="M53.500,46.990 C53.500,46.990 9.500,46.990 9.500,46.990 C4.262,46.990 -0.000,42.728 -0.000,37.490 C-0.000,37.490 -0.000,9.488 -0.000,9.488 C-0.000,4.249 4.262,-0.013 9.500,-0.013 C9.500,-0.013 53.500,-0.013 53.500,-0.013 C58.738,-0.013 63.000,4.249 63.000,9.488 C63.000,9.488 63.000,37.490 63.000,37.490 C63.000,42.728 58.738,46.990 53.500,46.990 ZM9.500,2.987 C5.916,2.987 3.000,5.904 3.000,9.488 C3.000,9.488 3.000,37.490 3.000,37.490 C3.000,41.074 5.916,43.990 9.500,43.990 C9.500,43.990 53.500,43.990 53.500,43.990 C57.084,43.990 60.000,41.074 60.000,37.490 C60.000,37.490 60.000,9.488 60.000,9.488 C60.000,5.904 57.084,2.987 53.500,2.987 C53.500,2.987 9.500,2.987 9.500,2.987 Z" id="path-3" class="cls-5" fill-rule="evenodd"/>
    <path d="M51.500,38.990 C51.500,38.990 11.500,38.990 11.500,38.990 C9.570,38.990 8.000,37.419 8.000,35.490 C8.000,35.490 8.000,19.489 8.000,19.489 C8.000,17.559 9.570,15.988 11.500,15.988 C11.500,15.988 51.500,15.988 51.500,15.988 C53.430,15.988 55.000,17.559 55.000,19.489 C55.000,19.489 55.000,35.490 55.000,35.490 C55.000,37.419 53.430,38.990 51.500,38.990 ZM11.500,18.989 C11.225,18.989 11.000,19.213 11.000,19.489 C11.000,19.489 11.000,35.490 11.000,35.490 C11.000,35.765 11.225,35.990 11.500,35.990 C11.500,35.990 51.500,35.990 51.500,35.990 C51.775,35.990 52.000,35.765 52.000,35.490 C52.000,35.490 52.000,19.489 52.000,19.489 C52.000,19.213 51.775,18.989 51.500,18.989 C51.500,18.989 11.500,18.989 11.500,18.989 Z" id="path-4" class="cls-5" fill-rule="evenodd"/>
    <path d="M34.687,10.177 C34.687,11.740 33.420,13.007 31.857,13.007 C30.294,13.007 29.027,11.740 29.027,10.177 C29.027,8.614 30.294,7.346 31.857,7.346 C33.420,7.346 34.687,8.614 34.687,10.177 Z" id="path-5" class="cls-5" fill-rule="evenodd"/>
    <path d="M44.876,10.177 C44.876,11.740 43.609,13.007 42.046,13.007 C40.483,13.007 39.216,11.740 39.216,10.177 C39.216,8.614 40.483,7.346 42.046,7.346 C43.609,7.346 44.876,8.614 44.876,10.177 Z" id="path-6" class="cls-5" fill-rule="evenodd"/>
    <path d="M53.933,10.177 C53.933,11.740 52.666,13.007 51.103,13.007 C49.539,13.007 48.272,11.740 48.272,10.177 C48.272,8.614 49.539,7.346 51.103,7.346 C52.666,7.346 53.933,8.614 53.933,10.177 Z" id="path-7" class="cls-5" fill-rule="evenodd"/>
  </g>
</svg>
