<svg xmlns="http://www.w3.org/2000/svg" xmlns:xlink="http://www.w3.org/1999/xlink" preserveAspectRatio="xMidYMid" width="50" height="66" viewBox="0 0 50 66">
  <defs>
    <style>

      .cls-3 {
        fill: #e56a77;
      }

      .cls-4 {
        fill: #53ecf4;
      }

      .cls-5 {
        fill: #000000;
      }
    </style>
  </defs>
  <g id="group-8svg">
    <path d="M33.538,65.018 C33.538,65.018 13.038,65.018 13.038,65.018 C8.639,65.018 5.000,60.917 5.000,56.517 C5.000,56.517 5.000,12.514 5.000,12.514 C5.000,8.114 8.639,5.014 13.038,5.014 C13.038,5.014 42.038,5.014 42.038,5.014 C46.457,5.014 50.000,8.095 50.000,12.514 C50.000,12.514 50.000,44.447 50.000,44.447 C50.000,44.447 33.538,65.018 33.538,65.018 Z" id="path-1" class="cls-3" fill-rule="evenodd"/>
    <path d="M48.853,46.016 C48.853,46.016 37.538,46.016 37.538,46.016 C35.329,46.016 34.000,47.808 34.000,50.017 C34.000,50.017 34.000,64.518 34.000,64.518 C34.000,64.518 48.853,46.016 48.853,46.016 Z" id="path-2" class="cls-4" fill-rule="evenodd"/>
    <path d="M30.038,63.018 C30.038,63.018 9.038,63.018 9.038,63.018 C3.970,63.018 -0.000,58.844 -0.000,53.517 C-0.000,53.517 -0.000,9.514 -0.000,9.514 C-0.000,4.186 3.970,0.013 9.038,0.013 C9.038,0.013 38.038,0.013 38.038,0.013 C43.438,0.013 48.000,4.364 48.000,9.514 C48.000,9.514 48.000,41.447 48.000,41.447 C48.000,41.794 47.880,42.129 47.660,42.398 C47.660,42.398 31.198,62.469 31.198,62.469 C30.913,62.816 30.487,63.018 30.038,63.018 ZM9.038,3.013 C5.596,3.013 3.000,5.808 3.000,9.514 C3.000,9.514 3.000,53.517 3.000,53.517 C3.000,57.223 5.596,60.017 9.038,60.017 C9.038,60.017 29.328,60.017 29.328,60.017 C29.328,60.017 45.000,40.911 45.000,40.911 C45.000,40.911 45.000,9.514 45.000,9.514 C45.000,6.051 41.747,3.013 38.038,3.013 C38.038,3.013 9.038,3.013 9.038,3.013 Z" id="path-3" class="cls-5" fill-rule="evenodd"/>
    <path d="M30.500,62.803 C30.337,62.803 30.172,62.776 30.012,62.721 C29.406,62.513 29.000,61.942 29.000,61.303 C29.000,61.303 29.000,46.997 29.000,46.997 C29.000,44.168 31.222,41.016 34.410,41.016 C34.410,41.016 45.186,41.016 45.186,41.016 C45.759,41.016 46.282,41.343 46.534,41.859 C46.785,42.375 46.721,42.988 46.367,43.440 C46.367,43.440 31.682,62.227 31.682,62.227 C31.392,62.598 30.952,62.803 30.500,62.803 ZM34.410,44.016 C33.075,44.016 32.000,45.647 32.000,46.997 C32.000,46.997 32.000,56.948 32.000,56.948 C32.000,56.948 42.109,44.016 42.109,44.016 C42.109,44.016 34.410,44.016 34.410,44.016 Z" id="path-4" class="cls-5" fill-rule="evenodd"/>
    <path d="M33.655,31.847 C33.208,31.847 32.767,31.649 32.471,31.268 C31.962,30.615 32.079,29.672 32.733,29.164 C32.733,29.164 39.199,24.130 39.199,24.130 C39.199,24.130 32.732,19.096 32.732,19.096 C32.079,18.587 31.962,17.644 32.471,16.990 C32.980,16.336 33.922,16.219 34.576,16.728 C34.576,16.728 42.563,22.946 42.563,22.946 C42.928,23.231 43.142,23.667 43.142,24.130 C43.142,24.593 42.928,25.030 42.562,25.314 C42.562,25.314 34.575,31.531 34.575,31.531 C34.302,31.744 33.978,31.847 33.655,31.847 Z" id="path-5" class="cls-5" fill-rule="evenodd"/>
    <path d="M28.500,38.516 C27.672,38.516 27.000,37.844 27.000,37.016 C27.000,37.016 27.000,29.492 27.000,29.492 C27.000,25.739 29.722,23.015 33.472,23.015 C33.472,23.015 41.000,23.015 41.000,23.015 C41.828,23.015 42.500,23.687 42.500,24.515 C42.500,25.343 41.828,26.015 41.000,26.015 C41.000,26.015 33.472,26.015 33.472,26.015 C31.395,26.015 30.000,27.413 30.000,29.492 C30.000,29.492 30.000,37.016 30.000,37.016 C30.000,37.844 29.328,38.516 28.500,38.516 Z" id="path-6" class="cls-5" fill-rule="evenodd"/>
  </g>
</svg>
