<svg xmlns="http://www.w3.org/2000/svg" xmlns:xlink="http://www.w3.org/1999/xlink" preserveAspectRatio="xMidYMid" width="58" height="66" viewBox="0 0 58 66">
  <defs>
    <style>

      .cls-3 {
        fill: #edc951;
      }

      .cls-4 {
        fill: #8b71b5;
      }

      .cls-5 {
        fill: #000000;
      }
    </style>
  </defs>
  <g id="group-91svg">
    <path d="M22.585,5.000 C22.585,5.000 47.085,5.000 47.085,5.000 C49.285,5.000 51.000,6.300 51.000,8.501 C51.000,8.501 51.000,60.504 51.000,60.504 C51.000,62.705 49.285,65.005 47.085,65.005 C47.085,65.005 10.085,65.005 10.085,65.005 C7.875,65.005 6.000,62.713 6.000,60.504 C6.000,60.504 6.000,24.571 6.000,24.571 C6.000,24.571 22.585,5.000 22.585,5.000 Z" id="path-1" class="cls-3" fill-rule="evenodd"/>
    <path d="M7.270,23.002 C7.270,23.002 18.585,23.002 18.585,23.002 C20.794,23.002 23.000,21.211 23.000,19.001 C23.000,19.001 23.000,4.500 23.000,4.500 C23.000,4.500 7.270,23.002 7.270,23.002 Z" id="path-2" class="cls-4" fill-rule="evenodd"/>
    <path d="M42.085,63.004 C42.085,63.004 5.085,63.004 5.085,63.004 C2.139,63.004 -0.000,60.691 -0.000,57.504 C-0.000,57.504 -0.000,21.571 -0.000,21.571 C-0.000,21.238 0.111,20.914 0.315,20.651 C0.315,20.651 15.900,0.580 15.900,0.580 C16.185,0.214 16.622,0.000 17.085,0.000 C17.085,0.000 42.085,0.000 42.085,0.000 C45.236,0.000 48.000,2.570 48.000,5.500 C48.000,5.500 48.000,57.504 48.000,57.504 C48.000,60.434 45.236,63.004 42.085,63.004 ZM3.000,22.085 C3.000,22.085 3.000,57.504 3.000,57.504 C3.000,58.748 3.645,60.004 5.085,60.004 C5.085,60.004 42.085,60.004 42.085,60.004 C43.556,60.004 45.000,58.766 45.000,57.504 C45.000,57.504 45.000,5.500 45.000,5.500 C45.000,4.239 43.556,3.000 42.085,3.000 C42.085,3.000 17.819,3.000 17.819,3.000 C17.819,3.000 3.000,22.085 3.000,22.085 Z" id="path-3" class="cls-5" fill-rule="evenodd"/>
    <path d="M12.713,22.002 C12.713,22.002 1.937,22.002 1.937,22.002 C1.356,22.002 0.827,21.666 0.580,21.140 C0.332,20.614 0.412,19.992 0.782,19.544 C0.782,19.544 16.345,0.758 16.345,0.758 C16.747,0.272 17.413,0.088 18.009,0.304 C18.604,0.519 19.000,1.082 19.000,1.715 C19.000,1.715 19.000,16.021 19.000,16.021 C19.000,18.983 15.827,22.002 12.713,22.002 ZM5.128,19.001 C5.128,19.001 12.713,19.001 12.713,19.001 C14.157,19.001 16.000,17.330 16.000,16.021 C16.000,16.021 16.000,5.877 16.000,5.877 C16.000,5.877 5.128,19.001 5.128,19.001 Z" id="path-4" class="cls-5" fill-rule="evenodd"/>
    <path d="M56.000,37.003 C56.000,39.212 54.209,41.003 52.000,41.003 C52.000,41.003 33.000,41.003 33.000,41.003 C30.791,41.003 29.000,39.212 29.000,37.003 C29.000,37.003 29.000,28.002 29.000,28.002 C29.000,25.793 30.791,24.002 33.000,24.002 C33.000,24.002 52.000,24.002 52.000,24.002 C54.209,24.002 56.000,25.793 56.000,28.002 C56.000,28.002 56.000,37.003 56.000,37.003 Z" id="path-5" class="cls-4" fill-rule="evenodd"/>
    <path d="M52.500,42.003 C52.500,42.003 33.500,42.003 33.500,42.003 C30.467,42.003 28.000,39.535 28.000,36.503 C28.000,36.503 28.000,27.502 28.000,27.502 C28.000,24.470 30.467,22.002 33.500,22.002 C33.500,22.002 52.500,22.002 52.500,22.002 C55.533,22.002 58.000,24.470 58.000,27.502 C58.000,27.502 58.000,36.503 58.000,36.503 C58.000,39.535 55.533,42.003 52.500,42.003 ZM33.500,25.002 C32.122,25.002 31.000,26.123 31.000,27.502 C31.000,27.502 31.000,36.503 31.000,36.503 C31.000,37.882 32.122,39.003 33.500,39.003 C33.500,39.003 52.500,39.003 52.500,39.003 C53.878,39.003 55.000,37.882 55.000,36.503 C55.000,36.503 55.000,27.502 55.000,27.502 C55.000,26.123 53.878,25.002 52.500,25.002 C52.500,25.002 33.500,25.002 33.500,25.002 Z" id="path-6" class="cls-5" fill-rule="evenodd"/>
    <path d="M34.609,32.927 C34.609,32.927 34.102,32.927 34.102,32.927 C34.102,32.927 34.102,35.227 34.102,35.227 C34.102,35.530 34.035,35.753 33.901,35.896 C33.768,36.040 33.594,36.111 33.379,36.111 C33.148,36.111 32.969,36.036 32.842,35.886 C32.715,35.737 32.651,35.517 32.651,35.227 C32.651,35.227 32.651,29.719 32.651,29.719 C32.651,29.406 32.721,29.180 32.861,29.040 C33.001,28.901 33.228,28.830 33.540,28.830 C33.540,28.830 35.898,28.830 35.898,28.830 C36.224,28.830 36.502,28.844 36.733,28.871 C36.964,28.900 37.173,28.955 37.358,29.040 C37.583,29.135 37.782,29.270 37.954,29.445 C38.126,29.621 38.258,29.825 38.347,30.059 C38.437,30.291 38.481,30.537 38.481,30.798 C38.481,31.332 38.331,31.758 38.030,32.077 C37.728,32.397 37.272,32.622 36.660,32.756 C36.917,32.893 37.163,33.095 37.397,33.362 C37.632,33.628 37.841,33.913 38.025,34.213 C38.209,34.515 38.352,34.787 38.455,35.030 C38.557,35.272 38.608,35.439 38.608,35.530 C38.608,35.625 38.578,35.717 38.518,35.811 C38.458,35.903 38.375,35.977 38.271,36.030 C38.167,36.085 38.047,36.111 37.910,36.111 C37.748,36.111 37.611,36.073 37.500,35.997 C37.389,35.920 37.294,35.823 37.214,35.706 C37.135,35.588 37.026,35.416 36.890,35.188 C36.890,35.188 36.309,34.221 36.309,34.221 C36.100,33.867 35.914,33.596 35.749,33.411 C35.585,33.225 35.418,33.098 35.249,33.030 C35.080,32.961 34.867,32.927 34.609,32.927 ZM35.439,29.919 C35.439,29.919 34.102,29.919 34.102,29.919 C34.102,29.919 34.102,31.887 34.102,31.887 C34.102,31.887 35.400,31.887 35.400,31.887 C35.749,31.887 36.042,31.857 36.279,31.797 C36.517,31.737 36.698,31.634 36.824,31.489 C36.949,31.344 37.012,31.145 37.012,30.891 C37.012,30.693 36.961,30.518 36.860,30.365 C36.759,30.215 36.620,30.102 36.440,30.027 C36.271,29.955 35.937,29.919 35.439,29.919 Z" id="path-7" class="cls-3" fill-rule="evenodd"/>
    <path d="M44.434,35.178 C44.434,35.178 44.092,34.280 44.092,34.280 C44.092,34.280 41.182,34.280 41.182,34.280 C41.182,34.280 40.840,35.198 40.840,35.198 C40.706,35.556 40.592,35.797 40.498,35.922 C40.404,36.048 40.249,36.111 40.034,36.111 C39.852,36.111 39.691,36.045 39.551,35.911 C39.411,35.777 39.341,35.626 39.341,35.457 C39.341,35.359 39.357,35.258 39.390,35.154 C39.422,35.049 39.476,34.905 39.551,34.719 C39.551,34.719 41.382,30.071 41.382,30.071 C41.434,29.937 41.497,29.777 41.570,29.590 C41.643,29.403 41.721,29.247 41.804,29.123 C41.887,28.999 41.996,28.900 42.131,28.822 C42.267,28.746 42.433,28.708 42.632,28.708 C42.833,28.708 43.002,28.746 43.137,28.822 C43.272,28.900 43.381,28.998 43.464,29.118 C43.547,29.239 43.617,29.368 43.674,29.506 C43.731,29.645 43.804,29.829 43.892,30.061 C43.892,30.061 45.762,34.680 45.762,34.680 C45.908,35.032 45.981,35.288 45.981,35.447 C45.981,35.613 45.912,35.765 45.774,35.903 C45.636,36.042 45.469,36.111 45.273,36.111 C45.160,36.111 45.062,36.090 44.980,36.049 C44.899,36.009 44.831,35.954 44.775,35.883 C44.720,35.814 44.661,35.707 44.597,35.561 C44.534,35.417 44.479,35.289 44.434,35.178 ZM41.562,33.191 C41.562,33.191 43.701,33.191 43.701,33.191 C43.701,33.191 42.622,30.237 42.622,30.237 C42.622,30.237 41.562,33.191 41.562,33.191 Z" id="path-8" class="cls-3" fill-rule="evenodd"/>
    <path d="M48.994,32.927 C48.994,32.927 48.486,32.927 48.486,32.927 C48.486,32.927 48.486,35.227 48.486,35.227 C48.486,35.530 48.419,35.753 48.286,35.896 C48.153,36.040 47.978,36.111 47.764,36.111 C47.533,36.111 47.353,36.036 47.227,35.886 C47.100,35.737 47.036,35.517 47.036,35.227 C47.036,35.227 47.036,29.719 47.036,29.719 C47.036,29.406 47.106,29.180 47.246,29.040 C47.386,28.901 47.612,28.830 47.925,28.830 C47.925,28.830 50.283,28.830 50.283,28.830 C50.609,28.830 50.887,28.844 51.118,28.871 C51.349,28.900 51.558,28.955 51.743,29.040 C51.968,29.135 52.167,29.270 52.339,29.445 C52.511,29.621 52.643,29.825 52.732,30.059 C52.821,30.291 52.866,30.537 52.866,30.798 C52.866,31.332 52.716,31.758 52.415,32.077 C52.113,32.397 51.657,32.622 51.045,32.756 C51.302,32.893 51.548,33.095 51.782,33.362 C52.017,33.628 52.226,33.913 52.410,34.213 C52.594,34.515 52.737,34.787 52.839,35.030 C52.942,35.272 52.993,35.439 52.993,35.530 C52.993,35.625 52.963,35.717 52.903,35.811 C52.843,35.903 52.760,35.977 52.656,36.030 C52.552,36.085 52.432,36.111 52.295,36.111 C52.132,36.111 51.996,36.073 51.885,35.997 C51.774,35.920 51.679,35.823 51.599,35.706 C51.519,35.588 51.411,35.416 51.274,35.188 C51.274,35.188 50.693,34.221 50.693,34.221 C50.485,33.867 50.299,33.596 50.134,33.411 C49.970,33.225 49.803,33.098 49.634,33.030 C49.464,32.961 49.251,32.927 48.994,32.927 ZM49.824,29.919 C49.824,29.919 48.486,29.919 48.486,29.919 C48.486,29.919 48.486,31.887 48.486,31.887 C48.486,31.887 49.785,31.887 49.785,31.887 C50.133,31.887 50.426,31.857 50.664,31.797 C50.902,31.737 51.083,31.634 51.208,31.489 C51.334,31.344 51.396,31.145 51.396,30.891 C51.396,30.693 51.346,30.518 51.245,30.365 C51.144,30.215 51.004,30.102 50.825,30.027 C50.656,29.955 50.322,29.919 49.824,29.919 Z" id="path-9" class="cls-3" fill-rule="evenodd"/>
  </g>
</svg>
