<svg xmlns="http://www.w3.org/2000/svg" xmlns:xlink="http://www.w3.org/1999/xlink" preserveAspectRatio="xMidYMid" width="63" height="66" viewBox="0 0 63 66">
  <defs>
    <style>

      .cls-3 {
        fill: #edc951;
      }

      .cls-4 {
        fill: #8b71b5;
      }

      .cls-5 {
        fill: #000000;
      }
    </style>
  </defs>
  <g id="group-88svg">
    <path d="M23.210,4.991 C23.210,4.991 47.710,4.991 47.710,4.991 C49.910,4.991 52.000,6.291 52.000,8.492 C52.000,8.492 52.000,60.495 52.000,60.495 C52.000,62.696 49.910,64.996 47.710,64.996 C47.710,64.996 10.710,64.996 10.710,64.996 C8.501,64.996 7.000,62.704 7.000,60.495 C7.000,60.495 7.000,24.562 7.000,24.562 C7.000,24.562 23.210,4.991 23.210,4.991 Z" id="path-1" class="cls-3" fill-rule="evenodd"/>
    <path d="M7.896,22.993 C7.896,22.993 19.210,22.993 19.210,22.993 C21.419,22.993 23.000,21.202 23.000,18.992 C23.000,18.992 23.000,4.491 23.000,4.491 C23.000,4.491 7.896,22.993 7.896,22.993 Z" id="path-2" class="cls-4" fill-rule="evenodd"/>
    <path d="M42.710,62.996 C42.710,62.996 5.710,62.996 5.710,62.996 C2.615,62.996 -0.000,60.477 -0.000,57.495 C-0.000,57.495 -0.000,21.562 -0.000,21.562 C-0.000,21.219 0.117,20.886 0.333,20.619 C0.333,20.619 16.543,0.549 16.543,0.549 C16.828,0.196 17.257,-0.009 17.710,-0.009 C17.710,-0.009 42.710,-0.009 42.710,-0.009 C45.677,-0.009 48.000,2.407 48.000,5.492 C48.000,5.492 48.000,57.495 48.000,57.495 C48.000,60.579 45.677,62.996 42.710,62.996 ZM3.000,22.092 C3.000,22.092 3.000,57.495 3.000,57.495 C3.000,58.827 4.267,59.995 5.710,59.995 C5.710,59.995 42.710,59.995 42.710,59.995 C44.016,59.995 45.000,58.920 45.000,57.495 C45.000,57.495 45.000,5.492 45.000,5.492 C45.000,4.067 44.016,2.991 42.710,2.991 C42.710,2.991 18.427,2.991 18.427,2.991 C18.427,2.991 3.000,22.092 3.000,22.092 Z" id="path-3" class="cls-5" fill-rule="evenodd"/>
    <path d="M13.339,21.993 C13.339,21.993 2.562,21.993 2.562,21.993 C1.986,21.993 1.462,21.663 1.212,21.144 C0.961,20.625 1.030,20.010 1.389,19.559 C1.389,19.559 16.326,0.772 16.326,0.772 C16.724,0.272 17.393,0.079 17.994,0.290 C18.597,0.500 19.000,1.068 19.000,1.706 C19.000,1.706 19.000,16.012 19.000,16.012 C19.000,19.142 16.302,21.993 13.339,21.993 ZM5.672,18.992 C5.672,18.992 13.339,18.992 13.339,18.992 C14.632,18.992 16.000,17.460 16.000,16.012 C16.000,16.012 16.000,6.003 16.000,6.003 C16.000,6.003 5.672,18.992 5.672,18.992 Z" id="path-4" class="cls-5" fill-rule="evenodd"/>
    <path d="M61.000,36.994 C61.000,39.203 59.209,40.994 57.000,40.994 C57.000,40.994 38.000,40.994 38.000,40.994 C35.791,40.994 34.000,39.203 34.000,36.994 C34.000,36.994 34.000,27.993 34.000,27.993 C34.000,25.784 35.791,23.993 38.000,23.993 C38.000,23.993 57.000,23.993 57.000,23.993 C59.209,23.993 61.000,25.784 61.000,27.993 C61.000,27.993 61.000,36.994 61.000,36.994 Z" id="path-5" class="cls-4" fill-rule="evenodd"/>
    <path d="M57.500,41.994 C57.500,41.994 38.500,41.994 38.500,41.994 C35.468,41.994 33.000,39.526 33.000,36.494 C33.000,36.494 33.000,27.493 33.000,27.493 C33.000,24.461 35.468,21.993 38.500,21.993 C38.500,21.993 57.500,21.993 57.500,21.993 C60.532,21.993 63.000,24.461 63.000,27.493 C63.000,27.493 63.000,36.494 63.000,36.494 C63.000,39.526 60.532,41.994 57.500,41.994 ZM38.500,24.993 C37.121,24.993 36.000,26.114 36.000,27.493 C36.000,27.493 36.000,36.494 36.000,36.494 C36.000,37.873 37.121,38.994 38.500,38.994 C38.500,38.994 57.500,38.994 57.500,38.994 C58.879,38.994 60.000,37.873 60.000,36.494 C60.000,36.494 60.000,27.493 60.000,27.493 C60.000,26.114 58.879,24.993 57.500,24.993 C57.500,24.993 38.500,24.993 38.500,24.993 Z" id="path-6" class="cls-5" fill-rule="evenodd"/>
    <path d="M45.224,29.348 C45.966,29.348 46.602,29.498 47.135,29.800 C47.667,30.101 48.070,30.528 48.344,31.083 C48.617,31.639 48.754,32.290 48.754,33.039 C48.754,33.593 48.679,34.096 48.529,34.548 C48.379,35.000 48.154,35.393 47.855,35.725 C47.556,36.057 47.187,36.311 46.752,36.487 C46.315,36.663 45.815,36.751 45.253,36.751 C44.692,36.751 44.191,36.660 43.749,36.480 C43.306,36.298 42.936,36.044 42.641,35.715 C42.344,35.386 42.120,34.991 41.969,34.529 C41.817,34.067 41.742,33.567 41.742,33.030 C41.742,32.480 41.821,31.975 41.978,31.516 C42.137,31.057 42.365,30.666 42.665,30.344 C42.964,30.022 43.329,29.775 43.759,29.605 C44.188,29.433 44.677,29.348 45.224,29.348 ZM47.284,33.030 C47.284,32.505 47.199,32.051 47.030,31.667 C46.860,31.283 46.619,30.992 46.305,30.796 C45.991,30.599 45.630,30.500 45.224,30.500 C44.934,30.500 44.666,30.555 44.420,30.663 C44.175,30.773 43.963,30.932 43.785,31.140 C43.608,31.348 43.468,31.614 43.365,31.939 C43.263,32.262 43.212,32.626 43.212,33.030 C43.212,33.437 43.263,33.804 43.365,34.133 C43.468,34.462 43.613,34.735 43.800,34.951 C43.987,35.167 44.202,35.330 44.444,35.437 C44.687,35.544 44.953,35.598 45.243,35.598 C45.614,35.598 45.955,35.505 46.266,35.320 C46.577,35.134 46.824,34.848 47.008,34.460 C47.192,34.073 47.284,33.596 47.284,33.030 Z" id="path-7" class="cls-3" fill-rule="evenodd"/>
    <path d="M54.262,30.666 C54.262,30.666 52.680,30.666 52.680,30.666 C52.680,30.666 52.680,35.867 52.680,35.867 C52.680,36.166 52.612,36.388 52.479,36.533 C52.346,36.678 52.173,36.751 51.962,36.751 C51.747,36.751 51.572,36.677 51.437,36.531 C51.302,36.384 51.234,36.163 51.234,35.867 C51.234,35.867 51.234,30.666 51.234,30.666 C51.234,30.666 49.652,30.666 49.652,30.666 C49.404,30.666 49.221,30.611 49.101,30.503 C48.979,30.394 48.920,30.249 48.920,30.070 C48.920,29.885 48.982,29.738 49.107,29.631 C49.233,29.524 49.414,29.470 49.652,29.470 C49.652,29.470 54.262,29.470 54.262,29.470 C54.512,29.470 54.698,29.525 54.820,29.636 C54.942,29.746 55.004,29.892 55.004,30.070 C55.004,30.249 54.941,30.394 54.818,30.503 C54.694,30.611 54.509,30.666 54.262,30.666 Z" id="path-8" class="cls-3" fill-rule="evenodd"/>
  </g>
</svg>
