<svg xmlns="http://www.w3.org/2000/svg" xmlns:xlink="http://www.w3.org/1999/xlink" preserveAspectRatio="xMidYMid" width="52" height="66" viewBox="0 0 52 66">
  <defs>
    <style>

      .cls-3 {
        fill: #edc951;
      }

      .cls-4 {
        fill: #8b71b5;
      }

      .cls-5 {
        fill: #000000;
      }
    </style>
  </defs>
  <g id="group-62svg">
    <path d="M23.085,5.005 C23.085,5.005 47.585,5.005 47.585,5.005 C49.785,5.005 52.000,6.305 52.000,8.505 C52.000,8.505 52.000,60.509 52.000,60.509 C52.000,62.709 49.785,65.009 47.585,65.009 C47.585,65.009 10.585,65.009 10.585,65.009 C8.375,65.009 7.000,62.718 7.000,60.509 C7.000,60.509 7.000,24.575 7.000,24.575 C7.000,24.575 23.085,5.005 23.085,5.005 Z" id="path-1" class="cls-3" fill-rule="evenodd"/>
    <path d="M7.770,23.006 C7.770,23.006 19.085,23.006 19.085,23.006 C21.294,23.006 23.000,21.215 23.000,19.006 C23.000,19.006 23.000,4.505 23.000,4.505 C23.000,4.505 7.770,23.006 7.770,23.006 Z" id="path-2" class="cls-4" fill-rule="evenodd"/>
    <path d="M42.585,63.009 C42.585,63.009 5.585,63.009 5.585,63.009 C2.505,63.009 -0.000,60.541 -0.000,57.508 C-0.000,57.508 -0.000,21.575 -0.000,21.575 C-0.000,21.234 0.116,20.903 0.330,20.637 C0.330,20.637 16.415,0.566 16.415,0.566 C16.699,0.211 17.130,0.004 17.585,0.004 C17.585,0.004 42.585,0.004 42.585,0.004 C45.571,0.004 48.000,2.472 48.000,5.505 C48.000,5.505 48.000,57.508 48.000,57.508 C48.000,60.541 45.571,63.009 42.585,63.009 ZM3.000,22.103 C3.000,22.103 3.000,57.508 3.000,57.508 C3.000,58.864 4.184,60.009 5.585,60.009 C5.585,60.009 42.585,60.009 42.585,60.009 C43.939,60.009 45.000,58.911 45.000,57.508 C45.000,57.508 45.000,5.505 45.000,5.505 C45.000,4.102 43.939,3.005 42.585,3.005 C42.585,3.005 18.305,3.005 18.305,3.005 C18.305,3.005 3.000,22.103 3.000,22.103 Z" id="path-3" class="cls-5" fill-rule="evenodd"/>
    <path d="M13.128,22.006 C13.128,22.006 2.353,22.006 2.353,22.006 C1.775,22.006 1.248,21.674 0.999,21.153 C0.750,20.632 0.822,20.014 1.185,19.564 C1.185,19.564 16.332,0.778 16.332,0.778 C16.731,0.283 17.401,0.093 17.999,0.305 C18.599,0.516 19.000,1.084 19.000,1.719 C19.000,1.719 19.000,16.025 19.000,16.025 C19.000,19.100 16.146,22.006 13.128,22.006 ZM5.489,19.006 C5.489,19.006 13.128,19.006 13.128,19.006 C14.470,19.006 16.000,17.418 16.000,16.025 C16.000,16.025 16.000,5.970 16.000,5.970 C16.000,5.970 5.489,19.006 5.489,19.006 Z" id="path-4" class="cls-5" fill-rule="evenodd"/>
    <path d="M36.928,55.276 C36.448,55.276 35.977,55.046 35.686,54.620 C35.221,53.935 35.398,53.001 36.083,52.535 C36.083,52.535 39.326,50.329 39.326,50.329 C39.326,50.329 36.244,48.755 36.244,48.755 C35.506,48.378 35.214,47.475 35.591,46.736 C35.969,45.999 36.873,45.706 37.609,46.083 C37.609,46.083 41.849,48.249 41.849,48.249 C42.542,48.604 42.994,49.279 43.057,50.057 C43.119,50.834 42.781,51.573 42.152,52.034 C42.152,52.034 37.770,55.016 37.770,55.016 C37.512,55.192 37.219,55.276 36.928,55.276 Z" id="path-5" class="cls-4" fill-rule="evenodd"/>
    <path d="M24.589,55.276 C24.299,55.276 24.005,55.192 23.747,55.016 C23.747,55.016 19.409,52.065 19.409,52.065 C18.737,51.573 18.398,50.834 18.461,50.057 C18.523,49.279 18.975,48.604 19.669,48.249 C19.669,48.249 23.908,46.083 23.908,46.083 C24.646,45.706 25.549,45.997 25.927,46.736 C26.304,47.475 26.011,48.378 25.273,48.755 C25.273,48.755 22.191,50.329 22.191,50.329 C22.191,50.329 25.435,52.535 25.435,52.535 C26.120,53.001 26.297,53.935 25.831,54.620 C25.541,55.046 25.069,55.276 24.589,55.276 Z" id="path-6" class="cls-4" fill-rule="evenodd"/>
    <path d="M26.453,45.380 C26.453,44.809 26.636,44.232 27.001,43.647 C27.368,43.061 27.901,42.578 28.604,42.193 C29.306,41.809 30.125,41.617 31.061,41.617 C31.931,41.617 32.699,41.778 33.365,42.098 C34.031,42.419 34.545,42.856 34.908,43.408 C35.271,43.961 35.453,44.560 35.453,45.209 C35.453,45.719 35.349,46.166 35.143,46.550 C34.936,46.933 34.689,47.266 34.404,47.544 C34.119,47.823 33.608,48.293 32.870,48.953 C32.666,49.139 32.502,49.303 32.379,49.443 C32.256,49.585 32.164,49.714 32.105,49.830 C32.045,49.947 31.999,50.065 31.965,50.182 C31.932,50.299 31.883,50.504 31.817,50.798 C31.703,51.422 31.346,51.735 30.746,51.735 C30.434,51.735 30.171,51.632 29.958,51.428 C29.745,51.224 29.639,50.921 29.639,50.519 C29.639,50.015 29.716,49.578 29.873,49.209 C30.029,48.841 30.236,48.517 30.494,48.237 C30.752,47.958 31.100,47.627 31.538,47.243 C31.922,46.906 32.199,46.653 32.371,46.482 C32.541,46.311 32.685,46.121 32.802,45.911 C32.919,45.701 32.977,45.472 32.977,45.226 C32.977,44.746 32.799,44.341 32.442,44.011 C32.085,43.681 31.625,43.516 31.061,43.516 C30.400,43.516 29.915,43.683 29.603,44.015 C29.291,44.349 29.026,44.840 28.811,45.487 C28.607,46.166 28.220,46.505 27.650,46.505 C27.314,46.505 27.030,46.387 26.799,46.149 C26.568,45.912 26.453,45.656 26.453,45.380 ZM30.845,55.245 C30.478,55.245 30.159,55.126 29.886,54.889 C29.613,54.652 29.476,54.321 29.476,53.895 C29.476,53.516 29.608,53.199 29.873,52.941 C30.137,52.683 30.461,52.553 30.845,52.553 C31.223,52.553 31.541,52.683 31.799,52.941 C32.057,53.199 32.186,53.516 32.186,53.895 C32.186,54.315 32.051,54.644 31.781,54.884 C31.511,55.124 31.199,55.245 30.845,55.245 Z" id="path-7" class="cls-4" fill-rule="evenodd"/>
  </g>
</svg>
