<svg xmlns="http://www.w3.org/2000/svg" xmlns:xlink="http://www.w3.org/1999/xlink" preserveAspectRatio="xMidYMid" width="51" height="66" viewBox="0 0 51 66">
  <defs>
    <style>

      .cls-3 {
        fill: #edc951;
      }

      .cls-4 {
        fill: #8b71b5;
      }

      .cls-5 {
        fill: #000000;
      }
    </style>
  </defs>
  <g id="group-66svg">
    <path d="M22.655,5.005 C22.655,5.005 47.155,5.005 47.155,5.005 C49.355,5.005 51.000,6.305 51.000,8.505 C51.000,8.505 51.000,60.509 51.000,60.509 C51.000,62.709 49.355,65.009 47.155,65.009 C47.155,65.009 10.155,65.009 10.155,65.009 C7.946,65.009 6.000,62.718 6.000,60.509 C6.000,60.509 6.000,24.575 6.000,24.575 C6.000,24.575 22.655,5.005 22.655,5.005 Z" id="path-1" class="cls-3" fill-rule="evenodd"/>
    <path d="M7.341,23.006 C7.341,23.006 18.655,23.006 18.655,23.006 C20.865,23.006 23.000,21.215 23.000,19.006 C23.000,19.006 23.000,4.505 23.000,4.505 C23.000,4.505 7.341,23.006 7.341,23.006 Z" id="path-2" class="cls-4" fill-rule="evenodd"/>
    <path d="M42.155,63.009 C42.155,63.009 5.155,63.009 5.155,63.009 C2.216,63.009 -0.000,60.644 -0.000,57.508 C-0.000,57.508 -0.000,21.575 -0.000,21.575 C-0.000,21.241 0.112,20.916 0.317,20.652 C0.317,20.652 15.973,0.582 15.973,0.582 C16.257,0.217 16.693,0.004 17.155,0.004 C17.155,0.004 42.155,0.004 42.155,0.004 C45.269,0.004 48.000,2.575 48.000,5.505 C48.000,5.505 48.000,57.508 48.000,57.508 C48.000,60.438 45.269,63.009 42.155,63.009 ZM3.000,22.091 C3.000,22.091 3.000,57.508 3.000,57.508 C3.000,58.713 3.674,60.009 5.155,60.009 C5.155,60.009 42.155,60.009 42.155,60.009 C43.618,60.009 45.000,58.794 45.000,57.508 C45.000,57.508 45.000,5.505 45.000,5.505 C45.000,4.220 43.618,3.005 42.155,3.005 C42.155,3.005 17.888,3.005 17.888,3.005 C17.888,3.005 3.000,22.091 3.000,22.091 Z" id="path-3" class="cls-5" fill-rule="evenodd"/>
    <path d="M13.128,22.006 C13.128,22.006 2.353,22.006 2.353,22.006 C1.775,22.006 1.249,21.674 0.999,21.153 C0.750,20.632 0.822,20.014 1.185,19.564 C1.185,19.564 16.332,0.778 16.332,0.778 C16.731,0.283 17.401,0.093 17.999,0.305 C18.599,0.516 19.000,1.084 19.000,1.719 C19.000,1.719 19.000,16.025 19.000,16.025 C19.000,19.100 16.146,22.006 13.128,22.006 ZM5.489,19.006 C5.489,19.006 13.128,19.006 13.128,19.006 C14.470,19.006 16.000,17.418 16.000,16.025 C16.000,16.025 16.000,5.970 16.000,5.970 C16.000,5.970 5.489,19.006 5.489,19.006 Z" id="path-4" class="cls-5" fill-rule="evenodd"/>
    <path d="M25.347,46.476 C25.347,46.476 19.970,46.476 19.970,46.476 C19.970,46.476 19.970,49.923 19.970,49.923 C19.970,49.923 24.465,49.923 24.465,49.923 C24.881,49.923 25.192,50.017 25.398,50.203 C25.603,50.391 25.706,50.640 25.706,50.952 C25.706,51.265 25.602,51.513 25.393,51.697 C25.185,51.881 24.875,51.973 24.465,51.973 C24.465,51.973 19.970,51.973 19.970,51.973 C19.970,51.973 19.970,56.413 19.970,56.413 C19.970,56.976 19.843,57.394 19.589,57.667 C19.334,57.940 19.008,58.076 18.610,58.076 C18.206,58.076 17.876,57.938 17.622,57.663 C17.368,57.387 17.241,56.970 17.241,56.413 C17.241,56.413 17.241,46.044 17.241,46.044 C17.241,45.652 17.299,45.332 17.415,45.084 C17.532,44.836 17.714,44.655 17.962,44.541 C18.210,44.427 18.527,44.371 18.914,44.371 C18.914,44.371 25.347,44.371 25.347,44.371 C25.782,44.371 26.105,44.468 26.317,44.661 C26.528,44.853 26.634,45.106 26.634,45.419 C26.634,45.738 26.528,45.994 26.317,46.186 C26.105,46.380 25.782,46.476 25.347,46.476 Z" id="path-5" class="cls-4" fill-rule="evenodd"/>
    <path d="M30.053,49.436 C30.053,49.436 31.689,55.043 31.689,55.043 C31.689,55.043 33.178,49.831 33.178,49.831 C33.337,49.285 33.455,48.914 33.532,48.715 C33.608,48.516 33.752,48.325 33.964,48.144 C34.175,47.964 34.464,47.873 34.832,47.873 C35.206,47.873 35.499,47.964 35.710,48.144 C35.921,48.325 36.070,48.522 36.156,48.732 C36.242,48.944 36.361,49.311 36.514,49.831 C36.514,49.831 38.003,55.043 38.003,55.043 C38.003,55.043 39.658,49.436 39.658,49.436 C39.768,49.031 39.856,48.738 39.924,48.559 C39.992,48.377 40.105,48.218 40.264,48.080 C40.423,47.942 40.653,47.873 40.954,47.873 C41.254,47.873 41.514,47.977 41.735,48.185 C41.955,48.395 42.065,48.640 42.065,48.921 C42.065,49.179 41.971,49.568 41.781,50.088 C41.781,50.088 39.731,56.100 39.731,56.100 C39.553,56.609 39.416,56.976 39.317,57.203 C39.219,57.430 39.065,57.632 38.853,57.809 C38.642,57.987 38.352,58.076 37.985,58.076 C37.605,58.076 37.306,57.981 37.089,57.792 C36.871,57.601 36.710,57.368 36.606,57.092 C36.502,56.817 36.389,56.459 36.266,56.017 C36.266,56.017 34.832,51.127 34.832,51.127 C34.832,51.127 33.444,56.017 33.444,56.017 C33.261,56.698 33.061,57.211 32.847,57.557 C32.632,57.903 32.255,58.076 31.716,58.076 C31.440,58.076 31.206,58.022 31.013,57.915 C30.820,57.808 30.659,57.655 30.531,57.456 C30.402,57.256 30.289,57.020 30.190,56.748 C30.093,56.475 30.016,56.259 29.961,56.100 C29.961,56.100 27.930,50.088 27.930,50.088 C27.728,49.525 27.626,49.136 27.626,48.921 C27.626,48.651 27.733,48.409 27.948,48.195 C28.163,47.980 28.426,47.873 28.738,47.873 C29.155,47.873 29.437,47.991 29.584,48.227 C29.731,48.463 29.887,48.866 30.053,49.436 Z" id="path-6" class="cls-4" fill-rule="evenodd"/>
  </g>
</svg>
