<svg xmlns="http://www.w3.org/2000/svg" xmlns:xlink="http://www.w3.org/1999/xlink" preserveAspectRatio="xMidYMid" width="57" height="66" viewBox="0 0 57 66">
  <defs>
    <style>

      .cls-3 {
        fill: #edc951;
      }

      .cls-4 {
        fill: #8b71b5;
      }

      .cls-5 {
        fill: #000000;
      }
    </style>
  </defs>
  <g id="group-92svg">
    <path d="M22.524,5.000 C22.524,5.000 47.024,5.000 47.024,5.000 C49.224,5.000 51.000,6.300 51.000,8.501 C51.000,8.501 51.000,60.504 51.000,60.504 C51.000,62.705 49.224,65.005 47.024,65.005 C47.024,65.005 10.024,65.005 10.024,65.005 C7.815,65.005 6.000,62.713 6.000,60.504 C6.000,60.504 6.000,24.571 6.000,24.571 C6.000,24.571 22.524,5.000 22.524,5.000 Z" id="path-1" class="cls-3" fill-rule="evenodd"/>
    <path d="M7.209,23.002 C7.209,23.002 18.524,23.002 18.524,23.002 C20.733,23.002 23.000,21.211 23.000,19.001 C23.000,19.001 23.000,4.500 23.000,4.500 C23.000,4.500 7.209,23.002 7.209,23.002 Z" id="path-2" class="cls-4" fill-rule="evenodd"/>
    <path d="M42.024,63.004 C42.024,63.004 5.024,63.004 5.024,63.004 C2.113,63.004 -0.000,60.691 -0.000,57.504 C-0.000,57.504 -0.000,21.571 -0.000,21.571 C-0.000,21.239 0.110,20.916 0.313,20.653 C0.313,20.653 15.837,0.582 15.837,0.582 C16.122,0.215 16.559,0.000 17.024,0.000 C17.024,0.000 42.024,0.000 42.024,0.000 C45.207,0.000 48.000,2.570 48.000,5.500 C48.000,5.500 48.000,57.504 48.000,57.504 C48.000,60.434 45.207,63.004 42.024,63.004 ZM3.000,22.084 C3.000,22.084 3.000,57.504 3.000,57.504 C3.000,58.657 3.530,60.004 5.024,60.004 C5.024,60.004 42.024,60.004 42.024,60.004 C43.526,60.004 45.000,58.766 45.000,57.504 C45.000,57.504 45.000,5.500 45.000,5.500 C45.000,4.239 43.526,3.000 42.024,3.000 C42.024,3.000 17.760,3.000 17.760,3.000 C17.760,3.000 3.000,22.084 3.000,22.084 Z" id="path-3" class="cls-5" fill-rule="evenodd"/>
    <path d="M12.652,22.002 C12.652,22.002 1.876,22.002 1.876,22.002 C1.295,22.002 0.766,21.666 0.518,21.138 C0.271,20.612 0.351,19.990 0.723,19.542 C0.723,19.542 16.347,0.756 16.347,0.756 C16.750,0.270 17.415,0.090 18.010,0.304 C18.604,0.519 19.000,1.083 19.000,1.715 C19.000,1.715 19.000,16.021 19.000,16.021 C19.000,19.242 15.510,22.002 12.652,22.002 ZM5.075,19.001 C5.075,19.001 12.652,19.001 12.652,19.001 C14.091,19.001 16.000,17.302 16.000,16.021 C16.000,16.021 16.000,5.865 16.000,5.865 C16.000,5.865 5.075,19.001 5.075,19.001 Z" id="path-4" class="cls-5" fill-rule="evenodd"/>
    <path d="M55.000,37.003 C55.000,39.212 53.209,41.003 51.000,41.003 C51.000,41.003 32.000,41.003 32.000,41.003 C29.791,41.003 28.000,39.212 28.000,37.003 C28.000,37.003 28.000,28.002 28.000,28.002 C28.000,25.793 29.791,24.002 32.000,24.002 C32.000,24.002 51.000,24.002 51.000,24.002 C53.209,24.002 55.000,25.793 55.000,28.002 C55.000,28.002 55.000,37.003 55.000,37.003 Z" id="path-5" class="cls-4" fill-rule="evenodd"/>
    <path d="M51.500,42.003 C51.500,42.003 32.500,42.003 32.500,42.003 C29.467,42.003 27.000,39.535 27.000,36.503 C27.000,36.503 27.000,27.502 27.000,27.502 C27.000,24.470 29.467,22.002 32.500,22.002 C32.500,22.002 51.500,22.002 51.500,22.002 C54.533,22.002 57.000,24.470 57.000,27.502 C57.000,27.502 57.000,36.503 57.000,36.503 C57.000,39.535 54.533,42.003 51.500,42.003 ZM32.500,25.002 C31.122,25.002 30.000,26.123 30.000,27.502 C30.000,27.502 30.000,36.503 30.000,36.503 C30.000,37.882 31.122,39.003 32.500,39.003 C32.500,39.003 51.500,39.003 51.500,39.003 C52.878,39.003 54.000,37.882 54.000,36.503 C54.000,36.503 54.000,27.502 54.000,27.502 C54.000,26.123 52.878,25.002 51.500,25.002 C51.500,25.002 32.500,25.002 32.500,25.002 Z" id="path-6" class="cls-5" fill-rule="evenodd"/>
    <path d="M33.723,34.910 C33.723,34.910 32.575,30.349 32.575,30.349 C32.575,30.349 32.575,35.291 32.575,35.291 C32.575,35.564 32.514,35.769 32.392,35.906 C32.270,36.043 32.108,36.111 31.906,36.111 C31.711,36.111 31.551,36.043 31.428,35.909 C31.304,35.773 31.242,35.567 31.242,35.291 C31.242,35.291 31.242,29.626 31.242,29.626 C31.242,29.314 31.324,29.103 31.486,28.994 C31.649,28.885 31.869,28.830 32.146,28.830 C32.146,28.830 32.595,28.830 32.595,28.830 C32.865,28.830 33.061,28.855 33.183,28.903 C33.305,28.952 33.396,29.040 33.454,29.167 C33.513,29.294 33.580,29.501 33.654,29.787 C33.654,29.787 34.694,33.708 34.694,33.708 C34.694,33.708 35.734,29.787 35.734,29.787 C35.809,29.501 35.876,29.294 35.935,29.167 C35.993,29.040 36.083,28.952 36.206,28.903 C36.328,28.855 36.524,28.830 36.794,28.830 C36.794,28.830 37.243,28.830 37.243,28.830 C37.520,28.830 37.740,28.885 37.902,28.994 C38.065,29.103 38.146,29.314 38.146,29.626 C38.146,29.626 38.146,35.291 38.146,35.291 C38.146,35.564 38.085,35.769 37.963,35.906 C37.841,36.043 37.678,36.111 37.473,36.111 C37.281,36.111 37.123,36.043 36.999,35.906 C36.875,35.769 36.813,35.564 36.813,35.291 C36.813,35.291 36.813,30.349 36.813,30.349 C36.813,30.349 35.666,34.910 35.666,34.910 C35.591,35.206 35.530,35.423 35.483,35.561 C35.435,35.700 35.349,35.826 35.222,35.940 C35.095,36.054 34.919,36.111 34.694,36.111 C34.525,36.111 34.382,36.075 34.265,36.001 C34.147,35.928 34.056,35.835 33.991,35.720 C33.926,35.606 33.875,35.480 33.837,35.342 C33.800,35.204 33.762,35.059 33.723,34.910 Z" id="path-7" class="cls-3" fill-rule="evenodd"/>
    <path d="M42.785,28.708 C43.527,28.708 44.165,28.858 44.697,29.160 C45.229,29.461 45.632,29.889 45.905,30.444 C46.179,30.999 46.315,31.651 46.315,32.400 C46.315,32.954 46.241,33.457 46.091,33.909 C45.941,34.361 45.716,34.753 45.417,35.086 C45.118,35.418 44.749,35.671 44.313,35.847 C43.877,36.023 43.377,36.111 42.814,36.111 C42.254,36.111 41.753,36.020 41.310,35.840 C40.868,35.659 40.498,35.405 40.202,35.076 C39.906,34.747 39.682,34.351 39.531,33.889 C39.379,33.427 39.304,32.927 39.304,32.390 C39.304,31.840 39.383,31.335 39.540,30.876 C39.698,30.417 39.927,30.027 40.227,29.704 C40.526,29.382 40.891,29.135 41.320,28.965 C41.750,28.793 42.238,28.708 42.785,28.708 ZM44.846,32.390 C44.846,31.866 44.761,31.411 44.592,31.028 C44.422,30.644 44.181,30.353 43.867,30.156 C43.553,29.959 43.192,29.861 42.785,29.861 C42.496,29.861 42.228,29.915 41.982,30.024 C41.736,30.133 41.524,30.292 41.347,30.500 C41.170,30.708 41.030,30.975 40.927,31.299 C40.825,31.622 40.773,31.987 40.773,32.390 C40.773,32.797 40.825,33.165 40.927,33.494 C41.030,33.823 41.175,34.095 41.362,34.311 C41.549,34.528 41.764,34.690 42.006,34.797 C42.249,34.905 42.515,34.959 42.805,34.959 C43.176,34.959 43.517,34.866 43.828,34.680 C44.139,34.495 44.386,34.208 44.570,33.821 C44.754,33.433 44.846,32.957 44.846,32.390 Z" id="path-8" class="cls-3" fill-rule="evenodd"/>
    <path d="M48.356,29.660 C48.356,29.660 49.978,34.461 49.978,34.461 C49.978,34.461 51.603,29.626 51.603,29.626 C51.688,29.372 51.751,29.196 51.794,29.096 C51.836,28.997 51.906,28.907 52.004,28.828 C52.101,28.748 52.235,28.708 52.404,28.708 C52.528,28.708 52.643,28.739 52.748,28.801 C52.854,28.862 52.937,28.945 52.998,29.047 C53.058,29.151 53.088,29.253 53.088,29.358 C53.088,29.429 53.078,29.506 53.059,29.590 C53.039,29.672 53.015,29.754 52.985,29.834 C52.956,29.913 52.927,29.995 52.897,30.080 C52.897,30.080 51.164,34.758 51.164,34.758 C51.102,34.937 51.040,35.108 50.978,35.268 C50.916,35.430 50.845,35.571 50.764,35.694 C50.682,35.815 50.574,35.916 50.439,35.994 C50.304,36.072 50.139,36.111 49.943,36.111 C49.748,36.111 49.583,36.073 49.448,35.997 C49.312,35.920 49.204,35.819 49.121,35.694 C49.038,35.568 48.965,35.425 48.903,35.266 C48.841,35.107 48.780,34.937 48.718,34.758 C48.718,34.758 47.014,30.119 47.014,30.119 C46.984,30.034 46.954,29.951 46.923,29.870 C46.893,29.789 46.866,29.701 46.845,29.607 C46.824,29.512 46.813,29.433 46.813,29.367 C46.813,29.201 46.880,29.050 47.014,28.913 C47.147,28.776 47.315,28.708 47.517,28.708 C47.764,28.708 47.939,28.783 48.041,28.936 C48.144,29.086 48.249,29.328 48.356,29.660 Z" id="path-9" class="cls-3" fill-rule="evenodd"/>
  </g>
</svg>
