<svg xmlns="http://www.w3.org/2000/svg" xmlns:xlink="http://www.w3.org/1999/xlink" preserveAspectRatio="xMidYMid" width="61" height="66" viewBox="0 0 61 66">
  <defs>
    <style>

      .cls-3 {
        fill: #edc951;
      }

      .cls-4 {
        fill: #8b71b5;
      }

      .cls-5 {
        fill: #000000;
      }
    </style>
  </defs>
  <g id="group-76svg">
    <path d="M22.519,5.014 C22.519,5.014 47.019,5.014 47.019,5.014 C49.219,5.014 51.000,6.314 51.000,8.514 C51.000,8.514 51.000,60.518 51.000,60.518 C51.000,62.718 49.219,65.018 47.019,65.018 C47.019,65.018 10.018,65.018 10.018,65.018 C7.810,65.018 6.000,62.727 6.000,60.518 C6.000,60.518 6.000,24.584 6.000,24.584 C6.000,24.584 22.519,5.014 22.519,5.014 Z" id="path-1" class="cls-3" fill-rule="evenodd"/>
    <path d="M7.204,23.015 C7.204,23.015 18.519,23.015 18.519,23.015 C20.728,23.015 23.000,21.224 23.000,19.015 C23.000,19.015 23.000,4.514 23.000,4.514 C23.000,4.514 7.204,23.015 7.204,23.015 Z" id="path-2" class="cls-4" fill-rule="evenodd"/>
    <path d="M42.019,63.018 C42.019,63.018 5.019,63.018 5.019,63.018 C2.110,63.018 -0.000,60.704 -0.000,57.517 C-0.000,57.517 -0.000,21.584 -0.000,21.584 C-0.000,21.252 0.110,20.929 0.313,20.666 C0.313,20.666 15.832,0.595 15.832,0.595 C16.116,0.228 16.554,0.013 17.018,0.013 C17.018,0.013 42.019,0.013 42.019,0.013 C45.205,0.013 48.000,2.584 48.000,5.514 C48.000,5.514 48.000,57.517 48.000,57.517 C48.000,60.447 45.205,63.018 42.019,63.018 ZM3.000,22.097 C3.000,22.097 3.000,57.517 3.000,57.517 C3.000,58.671 3.528,60.018 5.019,60.018 C5.019,60.018 42.019,60.018 42.019,60.018 C43.523,60.018 45.000,58.779 45.000,57.517 C45.000,57.517 45.000,5.514 45.000,5.514 C45.000,4.252 43.523,3.013 42.019,3.013 C42.019,3.013 17.755,3.013 17.755,3.013 C17.755,3.013 3.000,22.097 3.000,22.097 Z" id="path-3" class="cls-5" fill-rule="evenodd"/>
    <path d="M12.647,22.015 C12.647,22.015 1.871,22.015 1.871,22.015 C1.289,22.015 0.760,21.678 0.513,21.151 C0.266,20.625 0.346,20.003 0.718,19.556 C0.718,19.556 16.347,0.769 16.347,0.769 C16.752,0.283 17.421,0.103 18.010,0.318 C18.604,0.533 19.000,1.096 19.000,1.728 C19.000,1.728 19.000,16.034 19.000,16.034 C19.000,19.255 15.507,22.015 12.647,22.015 ZM5.070,19.015 C5.070,19.015 12.647,19.015 12.647,19.015 C14.089,19.015 16.000,17.315 16.000,16.034 C16.000,16.034 16.000,5.877 16.000,5.877 C16.000,5.877 5.070,19.015 5.070,19.015 Z" id="path-4" class="cls-5" fill-rule="evenodd"/>
    <path d="M59.000,39.016 C59.000,41.225 57.209,43.016 55.000,43.016 C55.000,43.016 36.000,43.016 36.000,43.016 C33.791,43.016 32.000,41.225 32.000,39.016 C32.000,39.016 32.000,30.015 32.000,30.015 C32.000,27.806 33.791,26.015 36.000,26.015 C36.000,26.015 55.000,26.015 55.000,26.015 C57.209,26.015 59.000,27.806 59.000,30.015 C59.000,30.015 59.000,39.016 59.000,39.016 Z" id="path-5" class="cls-4" fill-rule="evenodd"/>
    <path d="M55.500,44.016 C55.500,44.016 36.500,44.016 36.500,44.016 C33.468,44.016 31.000,41.548 31.000,38.516 C31.000,38.516 31.000,29.515 31.000,29.515 C31.000,26.483 33.468,24.015 36.500,24.015 C36.500,24.015 55.500,24.015 55.500,24.015 C58.532,24.015 61.000,26.483 61.000,29.515 C61.000,29.515 61.000,38.516 61.000,38.516 C61.000,41.548 58.532,44.016 55.500,44.016 ZM36.500,27.015 C35.121,27.015 34.000,28.136 34.000,29.515 C34.000,29.515 34.000,38.516 34.000,38.516 C34.000,39.895 35.121,41.016 36.500,41.016 C36.500,41.016 55.500,41.016 55.500,41.016 C56.879,41.016 58.000,39.895 58.000,38.516 C58.000,38.516 58.000,29.515 58.000,29.515 C58.000,28.136 56.879,27.015 55.500,27.015 C55.500,27.015 36.500,27.015 36.500,27.015 Z" id="path-6" class="cls-5" fill-rule="evenodd"/>
    <path d="M38.721,36.981 C38.721,36.981 42.397,32.582 42.397,32.582 C42.397,32.582 39.238,32.582 39.238,32.582 C39.018,32.582 38.851,32.533 38.738,32.436 C38.626,32.338 38.569,32.209 38.569,32.049 C38.569,31.883 38.626,31.748 38.738,31.646 C38.851,31.543 39.018,31.492 39.238,31.492 C39.238,31.492 43.311,31.492 43.311,31.492 C43.838,31.492 44.101,31.738 44.101,32.230 C44.101,32.465 44.058,32.652 43.970,32.791 C43.882,32.932 43.705,33.158 43.437,33.471 C43.437,33.471 40.000,37.563 40.000,37.563 C40.000,37.563 43.789,37.563 43.789,37.563 C44.014,37.563 44.182,37.608 44.292,37.702 C44.403,37.793 44.458,37.924 44.458,38.090 C44.458,38.262 44.403,38.399 44.292,38.500 C44.182,38.600 44.014,38.651 43.789,38.651 C43.789,38.651 39.141,38.651 39.141,38.651 C38.825,38.651 38.588,38.580 38.428,38.438 C38.268,38.297 38.188,38.108 38.188,37.869 C38.188,37.789 38.202,37.713 38.228,37.645 C38.254,37.576 38.289,37.512 38.333,37.452 C38.377,37.393 38.437,37.315 38.516,37.223 C38.594,37.129 38.662,37.049 38.721,36.981 Z" id="path-7" class="cls-3" fill-rule="evenodd"/>
    <path d="M45.430,37.889 C45.430,37.889 45.430,32.250 45.430,32.250 C45.430,31.957 45.497,31.736 45.630,31.590 C45.764,31.443 45.937,31.371 46.147,31.371 C46.366,31.371 46.542,31.443 46.678,31.588 C46.812,31.732 46.880,31.953 46.880,32.250 C46.880,32.250 46.880,37.889 46.880,37.889 C46.880,38.186 46.812,38.407 46.678,38.553 C46.542,38.700 46.366,38.774 46.147,38.774 C45.939,38.774 45.768,38.700 45.633,38.551 C45.497,38.403 45.430,38.182 45.430,37.889 Z" id="path-8" class="cls-3" fill-rule="evenodd"/>
    <path d="M51.279,35.863 C51.279,35.863 49.951,35.863 49.951,35.863 C49.951,35.863 49.951,37.889 49.951,37.889 C49.951,38.180 49.883,38.399 49.746,38.549 C49.609,38.698 49.437,38.774 49.229,38.774 C49.011,38.774 48.835,38.700 48.701,38.551 C48.568,38.403 48.501,38.186 48.501,37.899 C48.501,37.899 48.501,32.381 48.501,32.381 C48.501,32.062 48.574,31.834 48.721,31.697 C48.867,31.560 49.101,31.492 49.419,31.492 C49.419,31.492 51.279,31.492 51.279,31.492 C51.830,31.492 52.253,31.535 52.549,31.619 C52.842,31.701 53.095,31.836 53.309,32.025 C53.521,32.213 53.684,32.445 53.794,32.719 C53.905,32.992 53.960,33.299 53.960,33.641 C53.960,34.371 53.735,34.922 53.286,35.299 C52.837,35.674 52.168,35.863 51.279,35.863 ZM50.928,32.582 C50.928,32.582 49.951,32.582 49.951,32.582 C49.951,32.582 49.951,34.770 49.951,34.770 C49.951,34.770 50.928,34.770 50.928,34.770 C51.269,34.770 51.556,34.733 51.785,34.662 C52.015,34.590 52.189,34.473 52.310,34.311 C52.431,34.147 52.490,33.934 52.490,33.670 C52.490,33.355 52.397,33.098 52.212,32.898 C52.004,32.687 51.576,32.582 50.928,32.582 Z" id="path-9" class="cls-3" fill-rule="evenodd"/>
  </g>
</svg>
