<svg xmlns="http://www.w3.org/2000/svg" xmlns:xlink="http://www.w3.org/1999/xlink" preserveAspectRatio="xMidYMid" width="51" height="66" viewBox="0 0 51 66">
  <defs>
    <style>

      .cls-3 {
        fill: #e56a77;
      }

      .cls-4 {
        fill: #53ecf4;
      }

      .cls-5 {
        fill: #ffffff;
      }

      .cls-6 {
        fill: #000000;
      }
    </style>
  </defs>
  <g id="group-23svg">
    <path d="M34.024,65.004 C34.024,65.004 13.524,65.004 13.524,65.004 C9.124,65.004 6.000,60.904 6.000,56.503 C6.000,56.503 6.000,12.500 6.000,12.500 C6.000,8.100 9.124,5.000 13.524,5.000 C13.524,5.000 42.524,5.000 42.524,5.000 C46.942,5.000 51.000,8.082 51.000,12.500 C51.000,12.500 51.000,44.433 51.000,44.433 C51.000,44.433 34.024,65.004 34.024,65.004 Z" id="path-1" class="cls-3" fill-rule="evenodd"/>
    <path d="M49.338,46.003 C49.338,46.003 38.024,46.003 38.024,46.003 C35.815,46.003 34.000,47.794 34.000,50.003 C34.000,50.003 34.000,64.504 34.000,64.504 C34.000,64.504 49.338,46.003 49.338,46.003 Z" id="path-2" class="cls-4" fill-rule="evenodd"/>
    <path d="M25.000,44.405 C25.000,44.405 25.000,28.001 25.000,28.001 C25.000,25.801 26.324,24.001 28.524,24.001 C28.524,24.001 43.524,24.001 43.524,24.001 C45.733,24.001 48.000,25.792 48.000,28.001 C48.000,28.001 48.000,40.404 48.000,40.404 C48.000,40.404 42.444,36.086 42.444,36.086 C42.444,36.086 38.091,42.920 38.091,42.920 C38.091,42.920 33.790,37.671 33.790,37.671 C33.790,37.671 25.000,44.405 25.000,44.405 Z" id="path-3" class="cls-5" fill-rule="evenodd"/>
    <path d="M30.524,63.004 C30.524,63.004 9.524,63.004 9.524,63.004 C4.272,63.004 -0.000,58.742 -0.000,53.503 C-0.000,53.503 -0.000,9.500 -0.000,9.500 C-0.000,4.262 4.272,-0.000 9.524,-0.000 C9.524,-0.000 38.524,-0.000 38.524,-0.000 C43.749,-0.000 48.000,4.262 48.000,9.500 C48.000,9.500 48.000,41.433 48.000,41.433 C48.000,41.773 47.885,42.102 47.673,42.368 C47.673,42.368 31.697,62.438 31.697,62.438 C31.413,62.796 30.981,63.004 30.524,63.004 ZM9.524,3.000 C5.927,3.000 3.000,5.916 3.000,9.500 C3.000,9.500 3.000,53.503 3.000,53.503 C3.000,57.088 5.927,60.004 9.524,60.004 C9.524,60.004 29.801,60.004 29.801,60.004 C29.801,60.004 45.000,40.909 45.000,40.909 C45.000,40.909 45.000,9.500 45.000,9.500 C45.000,5.916 42.095,3.000 38.524,3.000 C38.524,3.000 9.524,3.000 9.524,3.000 Z" id="path-4" class="cls-6" fill-rule="evenodd"/>
    <path d="M30.499,62.789 C30.333,62.789 30.164,62.762 30.001,62.703 C29.401,62.492 29.000,61.925 29.000,61.289 C29.000,61.289 29.000,46.983 29.000,46.983 C29.000,43.909 31.853,41.002 34.872,41.002 C34.872,41.002 45.647,41.002 45.647,41.002 C46.225,41.002 46.751,41.334 47.000,41.855 C47.250,42.376 47.178,42.995 46.815,43.444 C46.815,43.444 31.667,62.230 31.667,62.230 C31.377,62.591 30.945,62.789 30.499,62.789 ZM34.872,44.003 C33.530,44.003 32.000,45.591 32.000,46.983 C32.000,46.983 32.000,57.039 32.000,57.039 C32.000,57.039 42.511,44.003 42.511,44.003 C42.511,44.003 34.872,44.003 34.872,44.003 Z" id="path-5" class="cls-6" fill-rule="evenodd"/>
    <path d="M32.035,31.323 C31.206,31.323 30.535,30.651 30.535,29.823 C30.535,29.149 29.986,28.601 29.312,28.601 C28.638,28.601 28.089,29.149 28.089,29.823 C28.089,30.651 27.418,31.323 26.589,31.323 C25.761,31.323 25.089,30.651 25.089,29.823 C25.089,27.495 26.983,25.601 29.312,25.601 C31.641,25.601 33.535,27.495 33.535,29.823 C33.535,30.651 32.863,31.323 32.035,31.323 Z" id="path-6" class="cls-6" fill-rule="evenodd"/>
    <path d="M45.500,43.405 C44.997,43.405 44.516,43.151 44.235,42.712 C44.235,42.712 40.082,36.200 40.082,36.200 C40.082,36.200 36.158,41.330 36.158,41.330 C35.882,41.691 35.460,41.907 35.007,41.918 C34.555,41.964 34.121,41.739 33.826,41.394 C33.826,41.394 30.252,37.215 30.252,37.215 C30.252,37.215 22.400,43.105 22.400,43.105 C21.944,43.447 21.337,43.501 20.829,43.247 C20.321,42.993 20.000,42.473 20.000,41.905 C20.000,41.905 20.000,25.501 20.000,25.501 C20.000,22.469 22.478,20.001 25.524,20.001 C25.524,20.001 41.524,20.001 41.524,20.001 C44.543,20.001 47.000,22.469 47.000,25.501 C47.000,25.501 47.000,41.905 47.000,41.905 C47.000,42.572 46.560,43.158 45.920,43.345 C45.781,43.385 45.640,43.405 45.500,43.405 ZM25.524,23.001 C24.156,23.001 23.000,24.146 23.000,25.501 C23.000,25.501 23.000,38.905 23.000,38.905 C23.000,38.905 29.578,33.971 29.578,33.971 C30.211,33.498 31.104,33.596 31.618,34.196 C31.618,34.196 34.901,38.035 34.901,38.035 C34.901,38.035 39.002,32.675 39.002,32.675 C39.300,32.286 39.765,32.075 40.258,32.087 C40.747,32.108 41.195,32.366 41.458,32.779 C41.458,32.779 44.000,36.764 44.000,36.764 C44.000,36.764 44.000,25.501 44.000,25.501 C44.000,24.122 42.889,23.001 41.524,23.001 C41.524,23.001 25.524,23.001 25.524,23.001 Z" id="path-7" class="cls-6" fill-rule="evenodd"/>
  </g>
</svg>
