<svg xmlns="http://www.w3.org/2000/svg" xmlns:xlink="http://www.w3.org/1999/xlink" preserveAspectRatio="xMidYMid" width="59" height="65" viewBox="0 0 59 65">
  <defs>
    <style>

      .cls-3 {
        fill: #e56a77;
      }

      .cls-4 {
        fill: #000000;
      }

      .cls-11 {
        fill: #edc951;
      }
    </style>
  </defs>
  <g id="group-57svg">
    <path d="M59.000,55.999 C59.000,60.418 55.418,64.000 51.000,64.000 C51.000,64.000 15.000,64.000 15.000,64.000 C10.582,64.000 7.000,60.418 7.000,55.999 C7.000,55.999 7.000,11.996 7.000,11.996 C7.000,7.578 10.582,3.996 15.000,3.996 C15.000,3.996 51.000,3.996 51.000,3.996 C55.418,3.996 59.000,7.578 59.000,11.996 C59.000,11.996 59.000,55.999 59.000,55.999 Z" id="path-1" class="cls-3" fill-rule="evenodd"/>
    <path d="M45.500,63.000 C45.500,63.000 9.500,63.000 9.500,63.000 C4.262,63.000 -0.000,58.738 -0.000,53.499 C-0.000,53.499 -0.000,9.496 -0.000,9.496 C-0.000,4.257 4.262,-0.005 9.500,-0.005 C9.500,-0.005 45.500,-0.005 45.500,-0.005 C50.738,-0.005 55.000,4.257 55.000,9.496 C55.000,9.496 55.000,53.499 55.000,53.499 C55.000,58.738 50.738,63.000 45.500,63.000 ZM9.500,2.996 C5.916,2.996 3.000,5.912 3.000,9.496 C3.000,9.496 3.000,53.499 3.000,53.499 C3.000,57.083 5.916,60.000 9.500,60.000 C9.500,60.000 45.500,60.000 45.500,60.000 C49.084,60.000 52.000,57.083 52.000,53.499 C52.000,53.499 52.000,9.496 52.000,9.496 C52.000,5.912 49.084,2.996 45.500,2.996 C45.500,2.996 9.500,2.996 9.500,2.996 Z" id="path-2" class="cls-4" fill-rule="evenodd"/>
    <path d="M4.000,19.997 C4.000,19.997 2.000,19.997 2.000,19.997 C1.172,19.997 0.500,19.325 0.500,18.497 C0.500,17.669 1.172,16.997 2.000,16.997 C2.000,16.997 4.000,16.997 4.000,16.997 C4.828,16.997 5.500,17.669 5.500,18.497 C5.500,19.325 4.828,19.997 4.000,19.997 Z" id="path-3" class="cls-4" fill-rule="evenodd"/>
    <path d="M51.000,19.997 C51.000,19.997 4.000,19.997 4.000,19.997 C3.170,19.997 2.500,19.327 2.500,18.497 C2.500,17.667 3.170,16.997 4.000,16.997 C4.000,16.997 51.000,16.997 51.000,16.997 C51.830,16.997 52.500,17.667 52.500,18.497 C52.500,19.327 51.830,19.997 51.000,19.997 Z" id="path-4" class="cls-4" fill-rule="evenodd"/>
    <path d="M53.000,19.997 C53.000,19.997 51.000,19.997 51.000,19.997 C50.172,19.997 49.500,19.325 49.500,18.497 C49.500,17.669 50.172,16.997 51.000,16.997 C51.000,16.997 53.000,16.997 53.000,16.997 C53.828,16.997 54.500,17.669 54.500,18.497 C54.500,19.325 53.828,19.997 53.000,19.997 Z" id="path-5" class="cls-4" fill-rule="evenodd"/>
    <path d="M16.816,11.144 C16.816,12.555 15.672,13.699 14.261,13.699 C12.850,13.699 11.705,12.555 11.705,11.144 C11.705,9.732 12.850,8.588 14.261,8.588 C15.672,8.588 16.816,9.732 16.816,11.144 Z" id="path-6" class="cls-4" fill-rule="evenodd"/>
    <path d="M26.016,11.144 C26.016,12.555 24.872,13.699 23.461,13.699 C22.049,13.699 20.905,12.555 20.905,11.144 C20.905,9.732 22.049,8.588 23.461,8.588 C24.872,8.588 26.016,9.732 26.016,11.144 Z" id="path-7" class="cls-4" fill-rule="evenodd"/>
    <path d="M34.194,11.144 C34.194,12.555 33.050,13.699 31.639,13.699 C30.227,13.699 29.083,12.555 29.083,11.144 C29.083,9.732 30.227,8.588 31.639,8.588 C33.050,8.588 34.194,9.732 34.194,11.144 Z" id="path-8" class="cls-4" fill-rule="evenodd"/>
    <path d="M40.150,45.423 C39.671,45.423 39.199,45.194 38.909,44.767 C38.443,44.081 38.621,43.149 39.306,42.683 C39.306,42.683 46.956,37.479 46.956,37.479 C46.956,37.479 39.467,33.652 39.467,33.652 C38.729,33.275 38.436,32.371 38.813,31.633 C39.191,30.896 40.094,30.604 40.832,30.980 C40.832,30.980 48.572,34.936 48.572,34.936 C49.454,35.387 50.028,36.245 50.107,37.232 C50.186,38.220 49.757,39.159 48.958,39.745 C48.958,39.745 40.993,45.164 40.993,45.164 C40.734,45.339 40.441,45.423 40.150,45.423 Z" id="path-9" class="cls-11" fill-rule="evenodd"/>
    <path d="M17.625,45.423 C17.334,45.423 17.041,45.339 16.782,45.164 C16.782,45.164 8.860,39.776 8.860,39.776 C8.018,39.159 7.589,38.220 7.668,37.232 C7.747,36.245 8.321,35.387 9.204,34.936 C9.204,34.936 16.943,30.980 16.943,30.980 C17.683,30.604 18.585,30.896 18.962,31.633 C19.339,32.371 19.046,33.275 18.309,33.652 C18.309,33.652 10.818,37.480 10.818,37.480 C10.818,37.480 18.470,42.683 18.470,42.683 C19.154,43.149 19.332,44.081 18.866,44.767 C18.576,45.194 18.104,45.423 17.625,45.423 Z" id="path-10" class="cls-11" fill-rule="evenodd"/>
    <path d="M21.574,31.011 C21.574,30.089 21.870,29.156 22.462,28.209 C23.054,27.263 23.917,26.480 25.053,25.859 C26.187,25.238 27.513,24.927 29.025,24.927 C30.433,24.927 31.675,25.187 32.753,25.705 C33.829,26.225 34.661,26.931 35.248,27.824 C35.836,28.717 36.129,29.687 36.129,30.735 C36.129,31.560 35.961,32.283 35.627,32.904 C35.292,33.525 34.894,34.061 34.434,34.511 C33.972,34.964 33.145,35.722 31.951,36.790 C31.621,37.091 31.357,37.355 31.158,37.584 C30.959,37.812 30.811,38.020 30.715,38.209 C30.617,38.399 30.542,38.588 30.488,38.776 C30.436,38.966 30.355,39.299 30.248,39.774 C30.064,40.783 29.487,41.288 28.517,41.288 C28.012,41.288 27.588,41.123 27.243,40.792 C26.898,40.463 26.726,39.973 26.726,39.322 C26.726,38.508 26.852,37.802 27.104,37.205 C27.356,36.608 27.691,36.084 28.109,35.633 C28.526,35.181 29.090,34.645 29.797,34.024 C30.418,33.481 30.867,33.071 31.144,32.795 C31.421,32.518 31.653,32.210 31.843,31.871 C32.031,31.531 32.126,31.162 32.126,30.764 C32.126,29.988 31.838,29.333 31.260,28.799 C30.683,28.265 29.938,27.998 29.025,27.998 C27.958,27.998 27.172,28.268 26.668,28.806 C26.164,29.345 25.736,30.138 25.388,31.186 C25.058,32.283 24.432,32.832 23.510,32.832 C22.967,32.832 22.508,32.639 22.135,32.256 C21.761,31.873 21.574,31.459 21.574,31.011 ZM28.677,46.964 C28.085,46.964 27.568,46.773 27.127,46.389 C26.685,46.006 26.465,45.470 26.465,44.782 C26.465,44.170 26.678,43.656 27.104,43.239 C27.532,42.822 28.056,42.613 28.677,42.613 C29.288,42.613 29.803,42.822 30.220,43.239 C30.637,43.656 30.846,44.170 30.846,44.782 C30.846,45.460 30.628,45.994 30.190,46.382 C29.754,46.770 29.249,46.964 28.677,46.964 Z" id="path-11" class="cls-11" fill-rule="evenodd"/>
  </g>
</svg>
