<svg xmlns="http://www.w3.org/2000/svg" xmlns:xlink="http://www.w3.org/1999/xlink" preserveAspectRatio="xMidYMid" width="52" height="66" viewBox="0 0 52 66">
  <defs>
    <style>

      .cls-3 {
        fill: #edc951;
      }

      .cls-4 {
        fill: #8b71b5;
      }

      .cls-5 {
        fill: #000000;
      }
    </style>
  </defs>
  <g id="group-68svg">
    <path d="M23.038,5.005 C23.038,5.005 47.538,5.005 47.538,5.005 C49.738,5.005 52.000,6.305 52.000,8.505 C52.000,8.505 52.000,60.509 52.000,60.509 C52.000,62.709 49.738,65.009 47.538,65.009 C47.538,65.009 10.538,65.009 10.538,65.009 C8.329,65.009 7.000,62.718 7.000,60.509 C7.000,60.509 7.000,24.575 7.000,24.575 C7.000,24.575 23.038,5.005 23.038,5.005 Z" id="path-1" class="cls-3" fill-rule="evenodd"/>
    <path d="M7.725,23.006 C7.725,23.006 19.038,23.006 19.038,23.006 C21.248,23.006 23.000,21.215 23.000,19.006 C23.000,19.006 23.000,4.505 23.000,4.505 C23.000,4.505 7.725,23.006 7.725,23.006 Z" id="path-2" class="cls-4" fill-rule="evenodd"/>
    <path d="M42.538,63.009 C42.538,63.009 5.538,63.009 5.538,63.009 C2.484,63.009 -0.000,60.541 -0.000,57.508 C-0.000,57.508 -0.000,21.575 -0.000,21.575 C-0.000,21.234 0.116,20.904 0.328,20.639 C0.328,20.639 16.366,0.568 16.366,0.568 C16.651,0.211 17.082,0.004 17.538,0.004 C17.538,0.004 42.538,0.004 42.538,0.004 C45.550,0.004 48.000,2.472 48.000,5.505 C48.000,5.505 48.000,57.508 48.000,57.508 C48.000,60.541 45.550,63.009 42.538,63.009 ZM3.000,22.101 C3.000,22.101 3.000,57.508 3.000,57.508 C3.000,58.887 4.139,60.009 5.538,60.009 C5.538,60.009 42.538,60.009 42.538,60.009 C43.895,60.009 45.000,58.887 45.000,57.508 C45.000,57.508 45.000,5.505 45.000,5.505 C45.000,4.126 43.895,3.005 42.538,3.005 C42.538,3.005 18.260,3.005 18.260,3.005 C18.260,3.005 3.000,22.101 3.000,22.101 Z" id="path-3" class="cls-5" fill-rule="evenodd"/>
    <path d="M13.128,22.006 C13.128,22.006 2.353,22.006 2.353,22.006 C1.774,22.006 1.249,21.674 0.999,21.153 C0.750,20.632 0.822,20.014 1.185,19.564 C1.185,19.564 16.332,0.778 16.332,0.778 C16.733,0.283 17.403,0.091 17.999,0.305 C18.599,0.516 19.000,1.084 19.000,1.719 C19.000,1.719 19.000,16.025 19.000,16.025 C19.000,19.100 16.146,22.006 13.128,22.006 ZM5.489,19.006 C5.489,19.006 13.128,19.006 13.128,19.006 C14.470,19.006 16.000,17.418 16.000,16.025 C16.000,16.025 16.000,5.970 16.000,5.970 C16.000,5.970 5.489,19.006 5.489,19.006 Z" id="path-4" class="cls-5" fill-rule="evenodd"/>
    <path d="M28.527,52.598 C28.527,52.598 26.027,52.598 26.027,52.598 C26.027,52.598 26.027,56.413 26.027,56.413 C26.027,56.958 25.898,57.372 25.642,57.653 C25.384,57.935 25.060,58.076 24.667,58.076 C24.257,58.076 23.926,57.936 23.675,57.658 C23.423,57.380 23.298,56.970 23.298,56.430 C23.298,56.430 23.298,46.044 23.298,46.044 C23.298,45.443 23.436,45.014 23.711,44.758 C23.987,44.500 24.425,44.371 25.025,44.371 C25.025,44.371 28.527,44.371 28.527,44.371 C29.562,44.371 30.359,44.451 30.917,44.610 C31.469,44.763 31.945,45.017 32.347,45.373 C32.748,45.728 33.053,46.164 33.261,46.679 C33.469,47.193 33.573,47.772 33.573,48.416 C33.573,49.788 33.150,50.828 32.305,51.536 C31.460,52.244 30.200,52.598 28.527,52.598 ZM27.866,46.421 C27.866,46.421 26.027,46.421 26.027,46.421 C26.027,46.421 26.027,50.539 26.027,50.539 C26.027,50.539 27.866,50.539 27.866,50.539 C28.509,50.539 29.047,50.472 29.479,50.336 C29.911,50.202 30.240,49.981 30.467,49.675 C30.693,49.368 30.807,48.967 30.807,48.471 C30.807,47.877 30.632,47.392 30.283,47.018 C29.891,46.620 29.085,46.421 27.866,46.421 Z" id="path-5" class="cls-4" fill-rule="evenodd"/>
    <path d="M38.169,54.454 C38.169,54.454 38.169,56.550 38.169,56.550 C38.169,57.059 38.049,57.440 37.811,57.695 C37.571,57.949 37.268,58.076 36.900,58.076 C36.539,58.076 36.241,57.948 36.009,57.690 C35.775,57.432 35.659,57.053 35.659,56.550 C35.659,56.550 35.659,49.565 35.659,49.565 C35.659,48.438 36.066,47.873 36.882,47.873 C37.299,47.873 37.599,48.005 37.782,48.269 C37.967,48.532 38.067,48.921 38.086,49.436 C38.386,48.921 38.694,48.532 39.010,48.269 C39.325,48.005 39.746,47.873 40.273,47.873 C40.801,47.873 41.311,48.005 41.809,48.269 C42.305,48.532 42.553,48.881 42.553,49.317 C42.553,49.623 42.447,49.875 42.235,50.074 C42.024,50.274 41.796,50.373 41.551,50.373 C41.459,50.373 41.237,50.317 40.885,50.203 C40.532,50.090 40.222,50.033 39.952,50.033 C39.584,50.033 39.284,50.130 39.051,50.322 C38.818,50.516 38.638,50.803 38.509,51.182 C38.380,51.563 38.291,52.014 38.242,52.538 C38.193,53.062 38.169,53.701 38.169,54.454 Z" id="path-6" class="cls-4" fill-rule="evenodd"/>
  </g>
</svg>
