<svg xmlns="http://www.w3.org/2000/svg" xmlns:xlink="http://www.w3.org/1999/xlink" preserveAspectRatio="xMidYMid" width="50" height="66" viewBox="0 0 50 66">
  <defs>
    <style>

      .cls-3 {
        fill: #e56a77;
      }

      .cls-4 {
        fill: #53ecf4;
      }

      .cls-5 {
        fill: #000000;
      }
    </style>
  </defs>
  <g id="group-2svg">
    <path d="M33.585,65.018 C33.585,65.018 13.085,65.018 13.085,65.018 C8.685,65.018 5.000,60.917 5.000,56.517 C5.000,56.517 5.000,12.514 5.000,12.514 C5.000,8.114 8.685,5.014 13.085,5.014 C13.085,5.014 42.085,5.014 42.085,5.014 C46.503,5.014 50.000,8.095 50.000,12.514 C50.000,12.514 50.000,44.447 50.000,44.447 C50.000,44.447 33.585,65.018 33.585,65.018 Z" id="path-1" class="cls-3" fill-rule="evenodd"/>
    <path d="M48.899,46.016 C48.899,46.016 37.585,46.016 37.585,46.016 C35.375,46.016 34.000,47.808 34.000,50.017 C34.000,50.017 34.000,64.518 34.000,64.518 C34.000,64.518 48.899,46.016 48.899,46.016 Z" id="path-2" class="cls-4" fill-rule="evenodd"/>
    <path d="M30.085,63.018 C30.085,63.018 9.085,63.018 9.085,63.018 C3.991,63.018 -0.000,58.844 -0.000,53.517 C-0.000,53.517 -0.000,9.514 -0.000,9.514 C-0.000,4.186 3.991,0.013 9.085,0.013 C9.085,0.013 38.085,0.013 38.085,0.013 C43.459,0.013 48.000,4.364 48.000,9.514 C48.000,9.514 48.000,41.447 48.000,41.447 C48.000,41.793 47.880,42.128 47.661,42.396 C47.661,42.396 31.246,62.467 31.246,62.467 C30.961,62.815 30.535,63.018 30.085,63.018 ZM9.085,3.013 C5.616,3.013 3.000,5.808 3.000,9.514 C3.000,9.514 3.000,53.517 3.000,53.517 C3.000,57.223 5.616,60.017 9.085,60.017 C9.085,60.017 29.374,60.017 29.374,60.017 C29.374,60.017 45.000,40.912 45.000,40.912 C45.000,40.912 45.000,9.514 45.000,9.514 C45.000,6.051 41.769,3.013 38.085,3.013 C38.085,3.013 9.085,3.013 9.085,3.013 Z" id="path-3" class="cls-5" fill-rule="evenodd"/>
    <path d="M30.499,62.803 C30.336,62.803 30.171,62.776 30.010,62.721 C29.406,62.512 29.000,61.942 29.000,61.303 C29.000,61.303 29.000,46.997 29.000,46.997 C29.000,44.168 31.241,41.016 34.456,41.016 C34.456,41.016 45.232,41.016 45.232,41.016 C45.807,41.016 46.330,41.343 46.581,41.860 C46.832,42.376 46.767,42.990 46.413,43.442 C46.413,43.442 31.680,62.228 31.680,62.228 C31.391,62.598 30.952,62.803 30.499,62.803 ZM34.456,44.016 C33.217,44.016 32.000,45.493 32.000,46.997 C32.000,46.997 32.000,56.959 32.000,56.959 C32.000,56.959 42.150,44.016 42.150,44.016 C42.150,44.016 34.456,44.016 34.456,44.016 Z" id="path-4" class="cls-5" fill-rule="evenodd"/>
    <path d="M35.500,28.515 C34.671,28.515 34.000,27.843 34.000,27.015 C34.000,27.015 34.000,18.014 34.000,18.014 C34.000,17.186 34.671,16.514 35.500,16.514 C36.329,16.514 37.000,17.186 37.000,18.014 C37.000,18.014 37.000,27.015 37.000,27.015 C37.000,27.843 36.329,28.515 35.500,28.515 Z" id="path-5" class="cls-5" fill-rule="evenodd"/>
    <path d="M40.000,24.015 C40.000,24.015 31.000,24.015 31.000,24.015 C30.171,24.015 29.500,23.343 29.500,22.515 C29.500,21.687 30.171,21.015 31.000,21.015 C31.000,21.015 40.000,21.015 40.000,21.015 C40.829,21.015 41.500,21.687 41.500,22.515 C41.500,23.343 40.829,24.015 40.000,24.015 Z" id="path-6" class="cls-5" fill-rule="evenodd"/>
  </g>
</svg>
