<svg xmlns="http://www.w3.org/2000/svg" xmlns:xlink="http://www.w3.org/1999/xlink" preserveAspectRatio="xMidYMid" width="66" height="49" viewBox="0 0 66 49">
  <defs>
    <style>

      .cls-3 {
        fill: #81bda4;
      }

      .cls-4 {
        fill: #53ecf4;
      }

      .cls-6 {
        fill: #000000;
      }
    </style>
  </defs>
  <g id="group-46svg">
    <path d="M66.000,39.990 C66.000,44.409 62.418,47.991 58.000,47.991 C58.000,47.991 14.000,47.991 14.000,47.991 C9.581,47.991 6.000,44.409 6.000,39.990 C6.000,39.990 6.000,11.988 6.000,11.988 C6.000,7.569 9.581,3.987 14.000,3.987 C14.000,3.987 58.000,3.987 58.000,3.987 C62.418,3.987 66.000,7.569 66.000,11.988 C66.000,11.988 66.000,39.990 66.000,39.990 Z" id="path-1" class="cls-3" fill-rule="evenodd"/>
    <path d="M37.000,38.990 C37.000,40.094 36.104,40.990 35.000,40.990 C35.000,40.990 17.000,40.990 17.000,40.990 C15.896,40.990 15.000,40.094 15.000,38.990 C15.000,38.990 15.000,25.989 15.000,25.989 C15.000,24.884 15.896,23.989 17.000,23.989 C17.000,23.989 35.000,23.989 35.000,23.989 C36.104,23.989 37.000,24.884 37.000,25.989 C37.000,25.989 37.000,38.990 37.000,38.990 Z" id="path-2" class="cls-4" fill-rule="evenodd"/>
    <path d="M62.000,38.990 C62.000,40.094 61.104,40.990 60.000,40.990 C60.000,40.990 52.000,40.990 52.000,40.990 C50.895,40.990 50.000,40.094 50.000,38.990 C50.000,38.990 50.000,25.989 50.000,25.989 C50.000,24.884 50.895,23.989 52.000,23.989 C52.000,23.989 60.000,23.989 60.000,23.989 C61.104,23.989 62.000,24.884 62.000,25.989 C62.000,25.989 62.000,38.990 62.000,38.990 Z" id="path-3" class="cls-4" fill-rule="evenodd"/>
    <path d="M53.500,46.990 C53.500,46.990 9.500,46.990 9.500,46.990 C4.262,46.990 -0.000,42.728 -0.000,37.490 C-0.000,37.490 -0.000,9.488 -0.000,9.488 C-0.000,4.249 4.262,-0.013 9.500,-0.013 C9.500,-0.013 53.500,-0.013 53.500,-0.013 C58.738,-0.013 63.000,4.249 63.000,9.488 C63.000,9.488 63.000,37.490 63.000,37.490 C63.000,42.728 58.738,46.990 53.500,46.990 ZM9.500,2.987 C5.916,2.987 3.000,5.904 3.000,9.488 C3.000,9.488 3.000,37.490 3.000,37.490 C3.000,41.074 5.916,43.990 9.500,43.990 C9.500,43.990 53.500,43.990 53.500,43.990 C57.084,43.990 60.000,41.074 60.000,37.490 C60.000,37.490 60.000,9.488 60.000,9.488 C60.000,5.904 57.084,2.987 53.500,2.987 C53.500,2.987 9.500,2.987 9.500,2.987 Z" id="path-4" class="cls-6" fill-rule="evenodd"/>
    <path d="M31.500,40.990 C31.500,40.990 13.500,40.990 13.500,40.990 C11.570,40.990 10.000,39.420 10.000,37.490 C10.000,37.490 10.000,24.489 10.000,24.489 C10.000,22.559 11.570,20.989 13.500,20.989 C13.500,20.989 31.500,20.989 31.500,20.989 C33.430,20.989 35.000,22.559 35.000,24.489 C35.000,24.489 35.000,37.490 35.000,37.490 C35.000,39.420 33.430,40.990 31.500,40.990 ZM13.500,23.989 C13.224,23.989 13.000,24.213 13.000,24.489 C13.000,24.489 13.000,37.490 13.000,37.490 C13.000,37.765 13.224,37.990 13.500,37.990 C13.500,37.990 31.500,37.990 31.500,37.990 C31.776,37.990 32.000,37.765 32.000,37.490 C32.000,37.490 32.000,24.489 32.000,24.489 C32.000,24.213 31.776,23.989 31.500,23.989 C31.500,23.989 13.500,23.989 13.500,23.989 Z" id="path-5" class="cls-6" fill-rule="evenodd"/>
    <path d="M55.500,41.990 C55.500,41.990 47.500,41.990 47.500,41.990 C45.570,41.990 44.000,40.420 44.000,38.490 C44.000,38.490 44.000,25.489 44.000,25.489 C44.000,23.559 45.570,21.989 47.500,21.989 C47.500,21.989 55.500,21.989 55.500,21.989 C57.430,21.989 59.000,23.559 59.000,25.489 C59.000,25.489 59.000,38.490 59.000,38.490 C59.000,40.420 57.430,41.990 55.500,41.990 ZM47.500,24.989 C47.224,24.989 47.000,25.214 47.000,25.489 C47.000,25.489 47.000,38.490 47.000,38.490 C47.000,38.765 47.224,38.990 47.500,38.990 C47.500,38.990 55.500,38.990 55.500,38.990 C55.776,38.990 56.000,38.765 56.000,38.490 C56.000,38.490 56.000,25.489 56.000,25.489 C56.000,25.214 55.776,24.989 55.500,24.989 C55.500,24.989 47.500,24.989 47.500,24.989 Z" id="path-6" class="cls-6" fill-rule="evenodd"/>
    <path d="M61.000,16.988 C61.000,16.988 3.000,16.988 3.000,16.988 C2.171,16.988 1.500,16.316 1.500,15.488 C1.500,14.660 2.171,13.988 3.000,13.988 C3.000,13.988 61.000,13.988 61.000,13.988 C61.829,13.988 62.500,14.660 62.500,15.488 C62.500,16.316 61.829,16.988 61.000,16.988 Z" id="path-7" class="cls-6" fill-rule="evenodd"/>
    <path d="M16.079,9.752 C16.079,11.315 14.811,12.582 13.249,12.582 C11.686,12.582 10.418,11.315 10.418,9.752 C10.418,8.188 11.686,6.921 13.249,6.921 C14.811,6.921 16.079,8.188 16.079,9.752 Z" id="path-8" class="cls-6" fill-rule="evenodd"/>
    <path d="M26.268,9.752 C26.268,11.315 25.000,12.582 23.437,12.582 C21.874,12.582 20.607,11.315 20.607,9.752 C20.607,8.188 21.874,6.921 23.437,6.921 C25.000,6.921 26.268,8.188 26.268,9.752 Z" id="path-9" class="cls-6" fill-rule="evenodd"/>
    <path d="M35.324,9.752 C35.324,11.315 34.057,12.582 32.494,12.582 C30.931,12.582 29.664,11.315 29.664,9.752 C29.664,8.188 30.931,6.921 32.494,6.921 C34.057,6.921 35.324,8.188 35.324,9.752 Z" id="path-10" class="cls-6" fill-rule="evenodd"/>
  </g>
</svg>
