<svg xmlns="http://www.w3.org/2000/svg" xmlns:xlink="http://www.w3.org/1999/xlink" preserveAspectRatio="xMidYMid" width="67" height="52" viewBox="0 0 67 52">
  <defs>
    <style>

      .cls-3 {
        fill: #e56a77;
      }

      .cls-4 {
        fill: #ffffff;
      }

      .cls-5 {
        fill: #000000;
      }
    </style>
  </defs>
  <g id="group-41svg">
    <path d="M67.000,13.010 C67.000,8.591 63.418,5.010 59.000,5.010 C59.000,5.010 15.000,5.010 15.000,5.010 C10.582,5.010 7.000,8.591 7.000,13.010 C7.000,13.010 7.000,43.012 7.000,43.012 C7.000,47.431 10.582,51.013 15.000,51.013 C15.000,51.013 59.000,51.013 59.000,51.013 C63.418,51.013 67.000,47.431 67.000,43.012 C67.000,43.012 67.000,13.010 67.000,13.010 Z" id="path-1" class="cls-3" fill-rule="evenodd"/>
    <path d="M52.603,29.304 C53.198,29.734 53.198,30.616 52.603,31.046 C49.858,33.022 42.950,37.676 38.752,37.676 C34.554,37.676 27.645,33.022 24.901,31.046 C24.306,30.616 24.306,29.734 24.901,29.304 C27.645,27.328 34.554,22.674 38.752,22.674 C42.950,22.674 49.858,27.328 52.603,29.304 Z" id="path-2" class="cls-4" fill-rule="evenodd"/>
    <path d="M53.500,49.013 C53.500,49.013 9.500,49.013 9.500,49.013 C4.262,49.013 -0.000,44.751 -0.000,39.512 C-0.000,39.512 -0.000,9.510 -0.000,9.510 C-0.000,4.271 4.262,0.009 9.500,0.009 C9.500,0.009 53.500,0.009 53.500,0.009 C58.738,0.009 63.000,4.271 63.000,9.510 C63.000,9.510 63.000,39.512 63.000,39.512 C63.000,44.751 58.738,49.013 53.500,49.013 ZM9.500,3.010 C5.916,3.010 3.000,5.926 3.000,9.510 C3.000,9.510 3.000,39.512 3.000,39.512 C3.000,43.096 5.916,46.013 9.500,46.013 C9.500,46.013 53.500,46.013 53.500,46.013 C57.084,46.013 60.000,43.096 60.000,39.512 C60.000,39.512 60.000,9.510 60.000,9.510 C60.000,5.926 57.084,3.010 53.500,3.010 C53.500,3.010 9.500,3.010 9.500,3.010 Z" id="path-3" class="cls-5" fill-rule="evenodd"/>
    <path d="M32.752,36.175 C28.291,36.175 21.610,31.845 18.025,29.263 C17.353,28.779 16.954,27.998 16.955,27.173 C16.955,26.349 17.355,25.569 18.025,25.086 C21.609,22.505 28.288,18.174 32.752,18.174 C37.216,18.174 43.894,22.505 47.479,25.087 C48.148,25.569 48.549,26.349 48.549,27.173 C48.550,27.998 48.150,28.779 47.480,29.262 C43.894,31.845 37.213,36.175 32.752,36.175 ZM20.264,27.174 C25.580,30.939 30.224,33.175 32.752,33.175 C35.279,33.175 39.923,30.940 45.240,27.174 C39.924,23.408 35.281,21.174 32.752,21.174 C30.223,21.174 25.579,23.409 20.264,27.174 Z" id="path-4" class="cls-5" fill-rule="evenodd"/>
    <path d="M32.752,33.088 C29.491,33.088 26.839,30.435 26.839,27.174 C26.839,23.914 29.491,21.262 32.752,21.262 C36.013,21.262 38.665,23.914 38.665,27.174 C38.665,30.435 36.013,33.088 32.752,33.088 ZM32.752,24.262 C31.145,24.262 29.839,25.569 29.839,27.174 C29.839,28.781 31.145,30.088 32.752,30.088 C34.358,30.088 35.665,28.781 35.665,27.174 C35.665,25.569 34.358,24.262 32.752,24.262 Z" id="path-5" class="cls-5" fill-rule="evenodd"/>
  </g>
</svg>
