<svg xmlns="http://www.w3.org/2000/svg" xmlns:xlink="http://www.w3.org/1999/xlink" preserveAspectRatio="xMidYMid" width="51" height="66" viewBox="0 0 51 66">
  <defs>
    <style>

      .cls-3 {
        fill: #e56a77;
      }

      .cls-4 {
        fill: #53ecf4;
      }

      .cls-5 {
        fill: #000000;
      }

      .cls-7 {
        fill: #ffffff;
      }
    </style>
  </defs>
  <g id="group-14svg">
    <path d="M34.164,64.995 C34.164,64.995 13.665,64.995 13.665,64.995 C9.265,64.995 6.000,60.895 6.000,56.495 C6.000,56.495 6.000,12.492 6.000,12.492 C6.000,8.091 9.265,4.991 13.665,4.991 C13.665,4.991 42.665,4.991 42.665,4.991 C47.083,4.991 51.000,8.073 51.000,12.492 C51.000,12.492 51.000,44.425 51.000,44.425 C51.000,44.425 34.164,64.995 34.164,64.995 Z" id="path-1" class="cls-3" fill-rule="evenodd"/>
    <path d="M49.479,45.994 C49.479,45.994 38.165,45.994 38.165,45.994 C35.956,45.994 34.000,47.785 34.000,49.994 C34.000,49.994 34.000,64.495 34.000,64.495 C34.000,64.495 49.479,45.994 49.479,45.994 Z" id="path-2" class="cls-4" fill-rule="evenodd"/>
    <path d="M30.665,62.995 C30.665,62.995 9.665,62.995 9.665,62.995 C4.426,62.995 -0.000,58.644 -0.000,53.495 C-0.000,53.495 -0.000,9.491 -0.000,9.491 C-0.000,4.342 4.426,-0.009 9.665,-0.009 C9.665,-0.009 38.664,-0.009 38.664,-0.009 C43.899,-0.009 48.000,4.164 48.000,9.491 C48.000,9.491 48.000,41.424 48.000,41.424 C48.000,41.761 47.886,42.088 47.678,42.353 C47.678,42.353 31.842,62.424 31.842,62.424 C31.558,62.785 31.124,62.995 30.665,62.995 ZM9.665,2.991 C6.052,2.991 3.000,5.968 3.000,9.491 C3.000,9.491 3.000,53.495 3.000,53.495 C3.000,57.018 6.052,59.995 9.665,59.995 C9.665,59.995 29.937,59.995 29.937,59.995 C29.937,59.995 45.000,40.904 45.000,40.904 C45.000,40.904 45.000,9.491 45.000,9.491 C45.000,5.847 42.217,2.991 38.664,2.991 C38.664,2.991 9.665,2.991 9.665,2.991 Z" id="path-3" class="cls-5" fill-rule="evenodd"/>
    <path d="M30.499,62.780 C30.333,62.780 30.164,62.753 30.001,62.694 C29.401,62.483 29.000,61.916 29.000,61.280 C29.000,61.280 29.000,46.975 29.000,46.975 C29.000,43.900 31.853,40.994 34.872,40.994 C34.872,40.994 45.647,40.994 45.647,40.994 C46.225,40.994 46.751,41.326 47.000,41.846 C47.250,42.368 47.178,42.986 46.815,43.435 C46.815,43.435 31.667,62.222 31.667,62.222 C31.377,62.582 30.945,62.780 30.499,62.780 ZM34.872,43.994 C33.530,43.994 32.000,45.582 32.000,46.975 C32.000,46.975 32.000,57.030 32.000,57.030 C32.000,57.030 42.511,43.994 42.511,43.994 C42.511,43.994 34.872,43.994 34.872,43.994 Z" id="path-4" class="cls-5" fill-rule="evenodd"/>
    <path d="M39.000,36.993 C39.000,36.993 32.412,36.993 32.412,36.993 C31.312,36.993 30.000,36.211 30.000,35.111 C30.000,35.111 30.000,27.993 30.000,27.993 C30.000,27.993 41.000,27.993 41.000,27.993 C41.000,27.993 41.000,35.111 41.000,35.111 C41.000,36.215 40.104,36.993 39.000,36.993 Z" id="path-5" class="cls-7" fill-rule="evenodd"/>
    <path d="M33.667,34.136 C33.667,34.136 33.668,34.136 33.668,34.136 C34.415,34.136 34.948,33.412 34.726,32.698 C34.726,32.698 34.224,31.087 34.224,31.087 C34.224,31.087 34.580,30.664 34.580,30.372 C34.580,29.874 34.176,29.431 33.677,29.431 C33.179,29.431 32.775,29.816 32.775,30.314 C32.775,30.601 33.100,31.103 33.100,31.103 C33.100,31.103 32.608,32.702 32.608,32.702 C32.389,33.414 32.922,34.136 33.667,34.136 Z" id="path-6" class="cls-5" fill-rule="evenodd"/>
    <path d="M36.588,36.993 C36.588,36.993 30.000,36.993 30.000,36.993 C28.150,36.993 26.000,35.426 26.000,33.405 C26.000,33.405 26.000,24.993 26.000,24.993 C26.000,24.993 40.000,24.993 40.000,24.993 C40.000,24.993 40.000,33.405 40.000,33.405 C40.000,35.384 38.470,36.993 36.588,36.993 ZM29.000,27.993 C29.000,27.993 29.000,33.405 29.000,33.405 C29.057,33.588 29.610,33.993 30.000,33.993 C30.000,33.993 36.588,33.993 36.588,33.993 C36.831,33.993 37.000,33.684 37.000,33.405 C37.000,33.405 37.000,27.993 37.000,27.993 C37.000,27.993 29.000,27.993 29.000,27.993 Z" id="path-7" class="cls-5" fill-rule="evenodd"/>
    <path d="M38.500,27.493 C37.671,27.493 37.000,26.821 37.000,25.993 C37.000,25.993 37.000,23.492 37.000,23.492 C37.000,22.113 35.878,20.992 34.500,20.992 C34.500,20.992 32.000,20.992 32.000,20.992 C30.514,20.992 29.000,22.254 29.000,23.492 C29.000,23.492 29.000,25.993 29.000,25.993 C29.000,26.821 28.329,27.493 27.500,27.493 C26.671,27.493 26.000,26.821 26.000,25.993 C26.000,25.993 26.000,23.492 26.000,23.492 C26.000,20.251 29.162,17.992 32.000,17.992 C32.000,17.992 34.500,17.992 34.500,17.992 C37.533,17.992 40.000,20.460 40.000,23.492 C40.000,23.492 40.000,25.993 40.000,25.993 C40.000,26.821 39.329,27.493 38.500,27.493 Z" id="path-8" class="cls-5" fill-rule="evenodd"/>
  </g>
</svg>
