<svg xmlns="http://www.w3.org/2000/svg" xmlns:xlink="http://www.w3.org/1999/xlink" preserveAspectRatio="xMidYMid" width="51" height="66" viewBox="0 0 51 66">
  <defs>
    <style>

      .cls-3 {
        fill: #e56a77;
      }

      .cls-4 {
        fill: #53ecf4;
      }

      .cls-5 {
        fill: #000000;
      }
    </style>
  </defs>
  <g id="group-7svg">
    <path d="M34.019,65.018 C34.019,65.018 13.519,65.018 13.519,65.018 C9.119,65.018 6.000,60.917 6.000,56.517 C6.000,56.517 6.000,12.514 6.000,12.514 C6.000,8.114 9.119,5.014 13.519,5.014 C13.519,5.014 42.519,5.014 42.519,5.014 C46.937,5.014 51.000,8.095 51.000,12.514 C51.000,12.514 51.000,44.447 51.000,44.447 C51.000,44.447 34.019,65.018 34.019,65.018 Z" id="path-1" class="cls-3" fill-rule="evenodd"/>
    <path d="M49.333,46.016 C49.333,46.016 38.019,46.016 38.019,46.016 C35.810,46.016 34.000,47.808 34.000,50.017 C34.000,50.017 34.000,64.518 34.000,64.518 C34.000,64.518 49.333,46.016 49.333,46.016 Z" id="path-2" class="cls-4" fill-rule="evenodd"/>
    <path d="M30.518,63.018 C30.518,63.018 9.519,63.018 9.519,63.018 C4.269,63.018 -0.000,58.756 -0.000,53.517 C-0.000,53.517 -0.000,9.514 -0.000,9.514 C-0.000,4.275 4.269,0.013 9.519,0.013 C9.519,0.013 38.519,0.013 38.519,0.013 C43.747,0.013 48.000,4.275 48.000,9.514 C48.000,9.514 48.000,41.447 48.000,41.447 C48.000,41.787 47.885,42.116 47.674,42.381 C47.674,42.381 31.692,62.452 31.692,62.452 C31.407,62.810 30.976,63.018 30.518,63.018 ZM9.519,3.013 C5.924,3.013 3.000,5.930 3.000,9.514 C3.000,9.514 3.000,53.517 3.000,53.517 C3.000,57.101 5.924,60.017 9.519,60.017 C9.519,60.017 29.796,60.017 29.796,60.017 C29.796,60.017 45.000,40.922 45.000,40.922 C45.000,40.922 45.000,9.514 45.000,9.514 C45.000,5.930 42.093,3.013 38.519,3.013 C38.519,3.013 9.519,3.013 9.519,3.013 Z" id="path-3" class="cls-5" fill-rule="evenodd"/>
    <path d="M30.500,62.803 C30.333,62.803 30.164,62.774 30.000,62.717 C29.400,62.505 29.000,61.938 29.000,61.303 C29.000,61.303 29.000,46.997 29.000,46.997 C29.000,43.923 31.862,41.016 34.891,41.016 C34.891,41.016 45.666,41.016 45.666,41.016 C46.244,41.016 46.770,41.348 47.020,41.870 C47.268,42.391 47.196,43.008 46.833,43.459 C46.833,43.459 31.667,62.245 31.667,62.245 C31.377,62.605 30.944,62.803 30.500,62.803 ZM34.891,44.016 C33.540,44.016 32.000,45.604 32.000,46.997 C32.000,46.997 32.000,57.056 32.000,57.056 C32.000,57.056 42.527,44.016 42.527,44.016 C42.527,44.016 34.891,44.016 34.891,44.016 Z" id="path-4" class="cls-5" fill-rule="evenodd"/>
    <path d="M35.542,38.516 C35.542,38.516 35.542,38.516 35.542,38.516 C35.086,38.516 34.654,38.308 34.370,37.951 C34.370,37.951 27.394,29.214 27.394,29.214 C26.876,28.568 26.982,27.624 27.630,27.107 C28.278,26.591 29.222,26.696 29.737,27.343 C29.737,27.343 35.542,34.612 35.542,34.612 C35.542,34.612 41.348,27.342 41.348,27.342 C41.864,26.696 42.807,26.590 43.456,27.107 C44.102,27.624 44.209,28.568 43.691,29.215 C43.691,29.215 36.714,37.952 36.714,37.952 C36.430,38.308 35.998,38.516 35.542,38.516 Z" id="path-5" class="cls-5" fill-rule="evenodd"/>
    <path d="M35.500,37.516 C34.672,37.516 34.000,36.844 34.000,36.016 C34.000,36.016 34.000,18.014 34.000,18.014 C34.000,17.186 34.672,16.514 35.500,16.514 C36.328,16.514 37.000,17.186 37.000,18.014 C37.000,18.014 37.000,36.016 37.000,36.016 C37.000,36.844 36.328,37.516 35.500,37.516 Z" id="path-6" class="cls-5" fill-rule="evenodd"/>
  </g>
</svg>
