<svg xmlns="http://www.w3.org/2000/svg" xmlns:xlink="http://www.w3.org/1999/xlink" preserveAspectRatio="xMidYMid" width="50" height="66" viewBox="0 0 50 66">
  <defs>
    <style>

      .cls-3 {
        fill: #e56a77;
      }

      .cls-4 {
        fill: #53ecf4;
      }

      .cls-5 {
        fill: #000000;
      }

      .cls-7 {
        fill: #ffffff;
      }
    </style>
  </defs>
  <g id="group-15svg">
    <path d="M33.577,64.995 C33.577,64.995 13.077,64.995 13.077,64.995 C8.677,64.995 5.000,60.895 5.000,56.495 C5.000,56.495 5.000,12.492 5.000,12.492 C5.000,8.091 8.677,4.991 13.077,4.991 C13.077,4.991 42.077,4.991 42.077,4.991 C46.495,4.991 50.000,8.073 50.000,12.492 C50.000,12.492 50.000,44.425 50.000,44.425 C50.000,44.425 33.577,64.995 33.577,64.995 Z" id="path-1" class="cls-3" fill-rule="evenodd"/>
    <path d="M48.891,45.994 C48.891,45.994 37.577,45.994 37.577,45.994 C35.368,45.994 34.000,47.785 34.000,49.994 C34.000,49.994 34.000,64.495 34.000,64.495 C34.000,64.495 48.891,45.994 48.891,45.994 Z" id="path-2" class="cls-4" fill-rule="evenodd"/>
    <path d="M30.077,62.995 C30.077,62.995 9.077,62.995 9.077,62.995 C3.987,62.995 -0.000,58.822 -0.000,53.495 C-0.000,53.495 -0.000,9.491 -0.000,9.491 C-0.000,4.164 3.987,-0.009 9.077,-0.009 C9.077,-0.009 38.077,-0.009 38.077,-0.009 C43.456,-0.009 48.000,4.342 48.000,9.491 C48.000,9.491 48.000,41.424 48.000,41.424 C48.000,41.771 47.880,42.106 47.661,42.375 C47.661,42.375 31.238,62.445 31.238,62.445 C30.953,62.793 30.527,62.995 30.077,62.995 ZM9.077,2.991 C5.613,2.991 3.000,5.785 3.000,9.491 C3.000,9.491 3.000,53.495 3.000,53.495 C3.000,57.201 5.613,59.995 9.077,59.995 C9.077,59.995 29.366,59.995 29.366,59.995 C29.366,59.995 45.000,40.889 45.000,40.889 C45.000,40.889 45.000,9.491 45.000,9.491 C45.000,6.028 41.765,2.991 38.077,2.991 C38.077,2.991 9.077,2.991 9.077,2.991 Z" id="path-3" class="cls-5" fill-rule="evenodd"/>
    <path d="M30.499,62.780 C30.336,62.780 30.171,62.754 30.011,62.698 C29.406,62.489 29.000,61.920 29.000,61.280 C29.000,61.280 29.000,46.975 29.000,46.975 C29.000,44.145 31.238,40.994 34.449,40.994 C34.449,40.994 45.225,40.994 45.225,40.994 C45.798,40.994 46.322,41.321 46.573,41.837 C46.825,42.353 46.759,42.967 46.405,43.420 C46.405,43.420 31.681,62.206 31.681,62.206 C31.391,62.575 30.952,62.780 30.499,62.780 ZM34.449,43.994 C33.092,43.994 32.000,45.625 32.000,46.975 C32.000,46.975 32.000,56.935 32.000,56.935 C32.000,56.935 42.143,43.994 42.143,43.994 C42.143,43.994 34.449,43.994 34.449,43.994 Z" id="path-4" class="cls-5" fill-rule="evenodd"/>
    <path d="M35.000,27.493 C35.000,25.007 32.985,22.992 30.500,22.992 C30.500,22.992 30.500,22.992 30.500,22.992 C28.015,22.992 26.000,25.007 26.000,27.493 C26.000,27.493 26.000,27.493 26.000,27.493 C26.000,29.978 28.015,31.993 30.500,31.993 C30.500,31.993 30.500,31.993 30.500,31.993 C32.985,31.993 35.000,29.978 35.000,27.493 C35.000,27.493 35.000,27.493 35.000,27.493 Z" id="path-5" class="cls-7" fill-rule="evenodd"/>
    <path d="M42.500,30.493 C41.671,30.493 41.000,29.821 41.000,28.993 C41.000,28.993 41.000,26.993 41.000,26.993 C41.000,26.993 34.000,26.993 34.000,26.993 C33.171,26.993 32.500,26.321 32.500,25.493 C32.500,24.664 33.171,23.992 34.000,23.992 C34.000,23.992 42.500,23.992 42.500,23.992 C43.329,23.992 44.000,24.664 44.000,25.493 C44.000,25.493 44.000,28.993 44.000,28.993 C44.000,29.821 43.329,30.493 42.500,30.493 Z" id="path-6" class="cls-5" fill-rule="evenodd"/>
    <path d="M29.000,31.993 C25.691,31.993 23.000,29.301 23.000,25.993 C23.000,22.684 25.691,19.992 29.000,19.992 C32.309,19.992 35.000,22.684 35.000,25.993 C35.000,29.301 32.309,31.993 29.000,31.993 ZM29.000,22.992 C27.346,22.992 26.000,24.338 26.000,25.993 C26.000,27.647 27.346,28.993 29.000,28.993 C30.654,28.993 32.000,27.647 32.000,25.993 C32.000,24.338 30.654,22.992 29.000,22.992 Z" id="path-7" class="cls-5" fill-rule="evenodd"/>
  </g>
</svg>
