<svg xmlns="http://www.w3.org/2000/svg" xmlns:xlink="http://www.w3.org/1999/xlink" preserveAspectRatio="xMidYMid" width="50" height="66" viewBox="0 0 50 66">
  <defs>
    <style>

      .cls-3 {
        fill: #e56a77;
      }

      .cls-4 {
        fill: #53ecf4;
      }

      .cls-5 {
        fill: #000000;
      }

      .cls-7 {
        fill: #ffffff;
      }
    </style>
  </defs>
  <g id="group-9svg">
    <path d="M33.710,65.018 C33.710,65.018 13.210,65.018 13.210,65.018 C8.810,65.018 5.000,60.917 5.000,56.517 C5.000,56.517 5.000,12.514 5.000,12.514 C5.000,8.114 8.810,5.014 13.210,5.014 C13.210,5.014 42.210,5.014 42.210,5.014 C46.629,5.014 50.000,8.095 50.000,12.514 C50.000,12.514 50.000,44.447 50.000,44.447 C50.000,44.447 33.710,65.018 33.710,65.018 Z" id="path-1" class="cls-3" fill-rule="evenodd"/>
    <path d="M49.024,46.016 C49.024,46.016 37.710,46.016 37.710,46.016 C35.501,46.016 34.000,47.808 34.000,50.017 C34.000,50.017 34.000,64.518 34.000,64.518 C34.000,64.518 49.024,46.016 49.024,46.016 Z" id="path-2" class="cls-4" fill-rule="evenodd"/>
    <path d="M30.210,63.018 C30.210,63.018 9.210,63.018 9.210,63.018 C4.046,63.018 -0.000,58.844 -0.000,53.517 C-0.000,53.517 -0.000,9.514 -0.000,9.514 C-0.000,4.186 4.046,0.013 9.210,0.013 C9.210,0.013 38.210,0.013 38.210,0.013 C43.517,0.013 48.000,4.364 48.000,9.514 C48.000,9.514 48.000,41.447 48.000,41.447 C48.000,41.792 47.882,42.125 47.665,42.392 C47.665,42.392 31.375,62.463 31.375,62.463 C31.090,62.814 30.662,63.018 30.210,63.018 ZM9.210,3.013 C5.727,3.013 3.000,5.869 3.000,9.514 C3.000,9.514 3.000,53.517 3.000,53.517 C3.000,57.162 5.727,60.017 9.210,60.017 C9.210,60.017 29.495,60.017 29.495,60.017 C29.495,60.017 45.000,40.914 45.000,40.914 C45.000,40.914 45.000,9.514 45.000,9.514 C45.000,5.990 41.891,3.013 38.210,3.013 C38.210,3.013 9.210,3.013 9.210,3.013 Z" id="path-3" class="cls-5" fill-rule="evenodd"/>
    <path d="M30.500,62.803 C30.335,62.803 30.169,62.775 30.008,62.720 C29.404,62.510 29.000,61.941 29.000,61.303 C29.000,61.303 29.000,46.997 29.000,46.997 C29.000,43.867 31.660,41.016 34.582,41.016 C34.582,41.016 45.357,41.016 45.357,41.016 C45.933,41.016 46.457,41.345 46.708,41.863 C46.958,42.380 46.891,42.996 46.534,43.447 C46.534,43.447 31.677,62.233 31.677,62.233 C31.387,62.600 30.949,62.803 30.500,62.803 ZM34.582,44.016 C33.303,44.016 32.000,45.520 32.000,46.997 C32.000,46.997 32.000,56.988 32.000,56.988 C32.000,56.988 42.259,44.016 42.259,44.016 C42.259,44.016 34.582,44.016 34.582,44.016 Z" id="path-4" class="cls-5" fill-rule="evenodd"/>
    <path d="M43.396,27.661 C43.396,31.537 40.254,34.679 36.378,34.679 C32.502,34.679 29.360,31.537 29.360,27.661 C29.360,23.784 32.502,20.642 36.378,20.642 C40.254,20.642 43.396,23.784 43.396,27.661 Z" id="path-5" class="cls-7" fill-rule="evenodd"/>
    <path d="M33.777,35.313 C29.081,35.313 25.260,31.491 25.260,26.793 C25.260,22.097 29.081,18.275 33.777,18.275 C38.474,18.275 42.295,22.097 42.295,26.793 C42.295,31.491 38.474,35.313 33.777,35.313 ZM33.777,21.275 C30.735,21.275 28.260,23.751 28.260,26.793 C28.260,29.837 30.735,32.312 33.777,32.312 C36.819,32.312 39.295,29.837 39.295,26.793 C39.295,23.751 36.819,21.275 33.777,21.275 Z" id="path-6" class="cls-5" fill-rule="evenodd"/>
    <path d="M37.000,28.015 C37.000,28.015 31.000,28.015 31.000,28.015 C30.172,28.015 29.500,27.343 29.500,26.515 C29.500,25.687 30.172,25.015 31.000,25.015 C31.000,25.015 37.000,25.015 37.000,25.015 C37.828,25.015 38.500,25.687 38.500,26.515 C38.500,27.343 37.828,28.015 37.000,28.015 Z" id="path-7" class="cls-5" fill-rule="evenodd"/>
  </g>
</svg>
