<svg xmlns="http://www.w3.org/2000/svg" xmlns:xlink="http://www.w3.org/1999/xlink" preserveAspectRatio="xMidYMid" width="50" height="66" viewBox="0 0 50 66">
  <defs>
    <style>

      .cls-3 {
        fill: #e56a77;
      }

      .cls-4 {
        fill: #53ecf4;
      }

      .cls-5 {
        fill: #000000;
      }

      .cls-7 {
        fill: #ffffff;
      }
    </style>
  </defs>
  <g id="group-22svg">
    <path d="M33.585,65.004 C33.585,65.004 13.085,65.004 13.085,65.004 C8.685,65.004 5.000,60.904 5.000,56.503 C5.000,56.503 5.000,12.500 5.000,12.500 C5.000,8.100 8.685,5.000 13.085,5.000 C13.085,5.000 42.085,5.000 42.085,5.000 C46.503,5.000 50.000,8.082 50.000,12.500 C50.000,12.500 50.000,44.433 50.000,44.433 C50.000,44.433 33.585,65.004 33.585,65.004 Z" id="path-1" class="cls-3" fill-rule="evenodd"/>
    <path d="M48.899,46.003 C48.899,46.003 37.585,46.003 37.585,46.003 C35.375,46.003 34.000,47.794 34.000,50.003 C34.000,50.003 34.000,64.504 34.000,64.504 C34.000,64.504 48.899,46.003 48.899,46.003 Z" id="path-2" class="cls-4" fill-rule="evenodd"/>
    <path d="M30.085,63.004 C30.085,63.004 9.085,63.004 9.085,63.004 C3.991,63.004 -0.000,58.831 -0.000,53.503 C-0.000,53.503 -0.000,9.500 -0.000,9.500 C-0.000,4.173 3.991,-0.000 9.085,-0.000 C9.085,-0.000 38.085,-0.000 38.085,-0.000 C43.459,-0.000 48.000,4.350 48.000,9.500 C48.000,9.500 48.000,41.433 48.000,41.433 C48.000,41.779 47.880,42.115 47.661,42.382 C47.661,42.382 31.246,62.453 31.246,62.453 C30.961,62.802 30.535,63.004 30.085,63.004 ZM9.085,3.000 C5.616,3.000 3.000,5.794 3.000,9.500 C3.000,9.500 3.000,53.503 3.000,53.503 C3.000,57.210 5.616,60.004 9.085,60.004 C9.085,60.004 29.374,60.004 29.374,60.004 C29.374,60.004 45.000,40.898 45.000,40.898 C45.000,40.898 45.000,9.500 45.000,9.500 C45.000,6.037 41.769,3.000 38.085,3.000 C38.085,3.000 9.085,3.000 9.085,3.000 Z" id="path-3" class="cls-5" fill-rule="evenodd"/>
    <path d="M30.499,62.789 C30.336,62.789 30.171,62.763 30.010,62.707 C29.406,62.498 29.000,61.929 29.000,61.289 C29.000,61.289 29.000,46.983 29.000,46.983 C29.000,44.154 31.241,41.002 34.456,41.002 C34.456,41.002 45.232,41.002 45.232,41.002 C45.807,41.002 46.330,41.330 46.581,41.846 C46.832,42.362 46.767,42.976 46.413,43.428 C46.413,43.428 31.680,62.215 31.680,62.215 C31.391,62.584 30.952,62.789 30.499,62.789 ZM34.456,44.003 C33.217,44.003 32.000,45.479 32.000,46.983 C32.000,46.983 32.000,56.945 32.000,56.945 C32.000,56.945 42.150,44.003 42.150,44.003 C42.150,44.003 34.456,44.003 34.456,44.003 Z" id="path-4" class="cls-5" fill-rule="evenodd"/>
    <path d="M37.000,36.002 C37.000,37.107 36.104,38.002 35.000,38.002 C35.000,38.002 27.000,38.002 27.000,38.002 C25.895,38.002 25.000,37.107 25.000,36.002 C25.000,36.002 25.000,31.002 25.000,31.002 C25.000,29.897 25.895,29.002 27.000,29.002 C27.000,29.002 35.000,29.002 35.000,29.002 C36.104,29.002 37.000,29.897 37.000,31.002 C37.000,31.002 37.000,36.002 37.000,36.002 Z" id="path-5" class="cls-7" fill-rule="evenodd"/>
    <path d="M44.000,38.719 C44.000,38.719 37.924,34.777 37.924,34.777 C37.924,34.777 37.785,32.786 37.785,32.786 C37.785,32.786 44.000,29.324 44.000,29.324 C44.000,29.324 44.000,38.719 44.000,38.719 Z" id="path-6" class="cls-7" fill-rule="evenodd"/>
    <path d="M32.500,37.002 C32.500,37.002 24.500,37.002 24.500,37.002 C22.570,37.002 21.000,35.432 21.000,33.502 C21.000,33.502 21.000,28.501 21.000,28.501 C21.000,26.572 22.570,25.001 24.500,25.001 C24.500,25.001 32.500,25.001 32.500,25.001 C34.430,25.001 36.000,26.572 36.000,28.501 C36.000,28.501 36.000,33.502 36.000,33.502 C36.000,35.432 34.430,37.002 32.500,37.002 ZM24.500,28.001 C24.224,28.001 24.000,28.226 24.000,28.501 C24.000,28.501 24.000,33.502 24.000,33.502 C24.000,33.777 24.224,34.002 24.500,34.002 C24.500,34.002 32.500,34.002 32.500,34.002 C32.776,34.002 33.000,33.777 33.000,33.502 C33.000,33.502 33.000,28.501 33.000,28.501 C33.000,28.226 32.776,28.001 32.500,28.001 C32.500,28.001 24.500,28.001 24.500,28.001 Z" id="path-7" class="cls-5" fill-rule="evenodd"/>
    <path d="M41.500,38.218 C41.225,38.218 40.949,38.142 40.707,37.991 C40.707,37.991 34.381,34.051 34.381,34.051 C33.945,33.778 33.678,33.302 33.674,32.788 C33.674,32.788 33.660,30.797 33.660,30.797 C33.656,30.244 33.957,29.734 34.441,29.469 C34.441,29.469 40.781,26.008 40.781,26.008 C41.247,25.754 41.811,25.766 42.266,26.035 C42.721,26.305 43.000,26.795 43.000,27.325 C43.000,27.325 43.000,36.718 43.000,36.718 C43.000,37.263 42.705,37.765 42.228,38.029 C42.001,38.156 41.750,38.218 41.500,38.218 ZM36.668,31.940 C36.668,31.940 40.000,34.017 40.000,34.017 C40.000,34.017 40.000,29.852 40.000,29.852 C40.000,29.852 36.666,31.673 36.666,31.673 C36.666,31.673 36.668,31.940 36.668,31.940 Z" id="path-8" class="cls-5" fill-rule="evenodd"/>
  </g>
</svg>
