<svg xmlns="http://www.w3.org/2000/svg" xmlns:xlink="http://www.w3.org/1999/xlink" preserveAspectRatio="xMidYMid" width="59" height="66" viewBox="0 0 59 66">
  <defs>
    <style>

      .cls-3 {
        fill: #edc951;
      }

      .cls-4 {
        fill: #8b71b5;
      }

      .cls-5 {
        fill: #000000;
      }
    </style>
  </defs>
  <g id="group-85svg">
    <path d="M22.655,4.991 C22.655,4.991 47.155,4.991 47.155,4.991 C49.355,4.991 51.000,6.291 51.000,8.492 C51.000,8.492 51.000,60.495 51.000,60.495 C51.000,62.696 49.355,64.996 47.155,64.996 C47.155,64.996 10.155,64.996 10.155,64.996 C7.946,64.996 6.000,62.704 6.000,60.495 C6.000,60.495 6.000,24.562 6.000,24.562 C6.000,24.562 22.655,4.991 22.655,4.991 Z" id="path-1" class="cls-3" fill-rule="evenodd"/>
    <path d="M7.341,22.993 C7.341,22.993 18.655,22.993 18.655,22.993 C20.865,22.993 23.000,21.202 23.000,18.992 C23.000,18.992 23.000,4.491 23.000,4.491 C23.000,4.491 7.341,22.993 7.341,22.993 Z" id="path-2" class="cls-4" fill-rule="evenodd"/>
    <path d="M42.155,62.996 C42.155,62.996 5.155,62.996 5.155,62.996 C2.216,62.996 -0.000,60.631 -0.000,57.495 C-0.000,57.495 -0.000,21.562 -0.000,21.562 C-0.000,21.228 0.112,20.903 0.317,20.639 C0.317,20.639 15.973,0.568 15.973,0.568 C16.257,0.204 16.693,-0.009 17.155,-0.009 C17.155,-0.009 42.155,-0.009 42.155,-0.009 C45.269,-0.009 48.000,2.562 48.000,5.492 C48.000,5.492 48.000,57.495 48.000,57.495 C48.000,60.425 45.269,62.996 42.155,62.996 ZM3.000,22.078 C3.000,22.078 3.000,57.495 3.000,57.495 C3.000,58.699 3.674,59.995 5.155,59.995 C5.155,59.995 42.155,59.995 42.155,59.995 C43.618,59.995 45.000,58.780 45.000,57.495 C45.000,57.495 45.000,5.492 45.000,5.492 C45.000,4.206 43.618,2.991 42.155,2.991 C42.155,2.991 17.888,2.991 17.888,2.991 C17.888,2.991 3.000,22.078 3.000,22.078 Z" id="path-3" class="cls-5" fill-rule="evenodd"/>
    <path d="M12.784,21.993 C12.784,21.993 2.008,21.993 2.008,21.993 C1.427,21.993 0.899,21.658 0.651,21.132 C0.403,20.607 0.481,19.986 0.851,19.538 C0.851,19.538 16.343,0.752 16.343,0.752 C16.745,0.263 17.410,0.079 18.007,0.294 C18.602,0.508 19.000,1.073 19.000,1.706 C19.000,1.706 19.000,16.012 19.000,16.012 C19.000,18.974 15.863,21.993 12.784,21.993 ZM5.189,18.992 C5.189,18.992 12.784,18.992 12.784,18.992 C14.196,18.992 16.000,17.321 16.000,16.012 C16.000,16.012 16.000,5.883 16.000,5.883 C16.000,5.883 5.189,18.992 5.189,18.992 Z" id="path-4" class="cls-5" fill-rule="evenodd"/>
    <path d="M57.000,36.994 C57.000,39.203 55.209,40.994 53.000,40.994 C53.000,40.994 34.000,40.994 34.000,40.994 C31.791,40.994 30.000,39.203 30.000,36.994 C30.000,36.994 30.000,27.993 30.000,27.993 C30.000,25.784 31.791,23.993 34.000,23.993 C34.000,23.993 53.000,23.993 53.000,23.993 C55.209,23.993 57.000,25.784 57.000,27.993 C57.000,27.993 57.000,36.994 57.000,36.994 Z" id="path-5" class="cls-4" fill-rule="evenodd"/>
    <path d="M53.500,41.994 C53.500,41.994 34.500,41.994 34.500,41.994 C31.467,41.994 29.000,39.526 29.000,36.494 C29.000,36.494 29.000,27.493 29.000,27.493 C29.000,24.461 31.467,21.993 34.500,21.993 C34.500,21.993 53.500,21.993 53.500,21.993 C56.533,21.993 59.000,24.461 59.000,27.493 C59.000,27.493 59.000,36.494 59.000,36.494 C59.000,39.526 56.533,41.994 53.500,41.994 ZM34.500,24.993 C33.122,24.993 32.000,26.114 32.000,27.493 C32.000,27.493 32.000,36.494 32.000,36.494 C32.000,37.873 33.122,38.994 34.500,38.994 C34.500,38.994 53.500,38.994 53.500,38.994 C54.878,38.994 56.000,37.873 56.000,36.494 C56.000,36.494 56.000,27.493 56.000,27.493 C56.000,26.114 54.878,24.993 53.500,24.993 C53.500,24.993 34.500,24.993 34.500,24.993 Z" id="path-6" class="cls-5" fill-rule="evenodd"/>
    <path d="M37.152,31.646 C37.152,31.646 37.152,34.771 37.152,34.771 C37.152,35.042 37.141,35.273 37.118,35.462 C37.095,35.652 37.042,35.845 36.961,36.040 C36.825,36.369 36.601,36.625 36.290,36.807 C35.977,36.990 35.598,37.082 35.150,37.082 C34.746,37.082 34.409,37.018 34.139,36.890 C33.870,36.763 33.652,36.557 33.486,36.272 C33.399,36.121 33.329,35.945 33.275,35.748 C33.220,35.549 33.193,35.361 33.193,35.181 C33.193,34.992 33.246,34.847 33.352,34.746 C33.458,34.646 33.593,34.595 33.759,34.595 C33.919,34.595 34.039,34.642 34.121,34.734 C34.203,34.826 34.265,34.970 34.308,35.165 C34.354,35.374 34.400,35.541 34.446,35.665 C34.493,35.791 34.570,35.898 34.678,35.988 C34.787,36.077 34.941,36.122 35.142,36.122 C35.677,36.122 35.944,35.730 35.944,34.946 C35.944,34.946 35.944,31.646 35.944,31.646 C35.944,31.402 35.997,31.218 36.104,31.096 C36.212,30.974 36.357,30.913 36.542,30.913 C36.729,30.913 36.877,30.974 36.987,31.096 C37.097,31.218 37.152,31.402 37.152,31.646 Z" id="path-7" class="cls-3" fill-rule="evenodd"/>
    <path d="M40.778,34.657 C40.778,34.657 39.671,34.657 39.671,34.657 C39.671,34.657 39.671,36.345 39.671,36.345 C39.671,36.586 39.614,36.770 39.500,36.894 C39.386,37.019 39.242,37.082 39.069,37.082 C38.887,37.082 38.741,37.020 38.629,36.896 C38.518,36.773 38.462,36.592 38.462,36.353 C38.462,36.353 38.462,31.755 38.462,31.755 C38.462,31.489 38.523,31.300 38.645,31.186 C38.768,31.071 38.961,31.015 39.227,31.015 C39.227,31.015 40.778,31.015 40.778,31.015 C41.236,31.015 41.589,31.050 41.835,31.120 C42.080,31.189 42.291,31.301 42.468,31.458 C42.646,31.615 42.781,31.808 42.873,32.036 C42.965,32.264 43.011,32.521 43.011,32.805 C43.011,33.413 42.824,33.873 42.450,34.187 C42.076,34.499 41.518,34.657 40.778,34.657 ZM40.485,31.922 C40.485,31.922 39.671,31.922 39.671,31.922 C39.671,31.922 39.671,33.745 39.671,33.745 C39.671,33.745 40.485,33.745 40.485,33.745 C40.769,33.745 41.007,33.715 41.199,33.656 C41.390,33.596 41.536,33.498 41.636,33.363 C41.736,33.227 41.787,33.049 41.787,32.829 C41.787,32.567 41.709,32.353 41.555,32.187 C41.381,32.011 41.024,31.922 40.485,31.922 Z" id="path-8" class="cls-3" fill-rule="evenodd"/>
    <path d="M47.951,31.947 C47.951,31.947 45.229,31.947 45.229,31.947 C45.229,31.947 45.229,33.411 45.229,33.411 C45.229,33.411 47.735,33.411 47.735,33.411 C47.920,33.411 48.058,33.453 48.148,33.535 C48.239,33.619 48.285,33.728 48.285,33.863 C48.285,33.999 48.240,34.109 48.150,34.195 C48.061,34.281 47.922,34.323 47.735,34.323 C47.735,34.323 45.229,34.323 45.229,34.323 C45.229,34.323 45.229,36.020 45.229,36.020 C45.229,36.020 48.044,36.020 48.044,36.020 C48.234,36.020 48.377,36.064 48.474,36.152 C48.570,36.240 48.618,36.357 48.618,36.503 C48.618,36.645 48.570,36.759 48.474,36.847 C48.377,36.936 48.234,36.980 48.044,36.980 C48.044,36.980 44.761,36.980 44.761,36.980 C44.498,36.980 44.309,36.921 44.193,36.805 C44.078,36.689 44.020,36.499 44.020,36.240 C44.020,36.240 44.020,31.755 44.020,31.755 C44.020,31.581 44.046,31.441 44.098,31.330 C44.149,31.220 44.230,31.140 44.340,31.090 C44.450,31.040 44.590,31.015 44.761,31.015 C44.761,31.015 47.951,31.015 47.951,31.015 C48.144,31.015 48.287,31.058 48.380,31.143 C48.474,31.229 48.520,31.340 48.520,31.479 C48.520,31.620 48.474,31.734 48.380,31.819 C48.287,31.904 48.144,31.947 47.951,31.947 Z" id="path-9" class="cls-3" fill-rule="evenodd"/>
    <path d="M55.027,34.555 C55.027,34.555 55.027,35.699 55.027,35.699 C55.027,35.850 55.012,35.972 54.982,36.062 C54.952,36.154 54.897,36.236 54.817,36.308 C54.737,36.382 54.635,36.453 54.510,36.520 C54.149,36.715 53.802,36.858 53.468,36.948 C53.135,37.037 52.771,37.082 52.378,37.082 C51.919,37.082 51.502,37.011 51.125,36.871 C50.748,36.729 50.426,36.524 50.161,36.255 C49.894,35.988 49.690,35.662 49.548,35.279 C49.406,34.897 49.334,34.469 49.334,33.997 C49.334,33.534 49.404,33.109 49.542,32.724 C49.681,32.339 49.884,32.012 50.152,31.743 C50.421,31.475 50.748,31.269 51.133,31.126 C51.518,30.984 51.955,30.913 52.443,30.913 C52.845,30.913 53.200,30.967 53.509,31.073 C53.818,31.181 54.069,31.316 54.262,31.479 C54.455,31.642 54.600,31.814 54.697,31.995 C54.795,32.177 54.844,32.339 54.844,32.480 C54.844,32.632 54.788,32.761 54.675,32.868 C54.562,32.976 54.427,33.029 54.270,33.029 C54.183,33.029 54.100,33.009 54.020,32.968 C53.940,32.927 53.873,32.870 53.818,32.797 C53.669,32.564 53.543,32.388 53.440,32.268 C53.337,32.149 53.198,32.048 53.023,31.967 C52.848,31.886 52.625,31.845 52.353,31.845 C52.074,31.845 51.825,31.893 51.605,31.989 C51.385,32.085 51.197,32.226 51.041,32.408 C50.885,32.591 50.766,32.816 50.684,33.081 C50.601,33.348 50.559,33.642 50.559,33.965 C50.559,34.664 50.720,35.204 51.041,35.580 C51.363,35.957 51.811,36.146 52.386,36.146 C52.666,36.146 52.928,36.109 53.173,36.037 C53.419,35.962 53.668,35.859 53.920,35.722 C53.920,35.722 53.920,34.754 53.920,34.754 C53.920,34.754 52.984,34.754 52.984,34.754 C52.759,34.754 52.589,34.720 52.474,34.653 C52.358,34.585 52.301,34.469 52.301,34.307 C52.301,34.173 52.349,34.064 52.445,33.977 C52.541,33.890 52.672,33.847 52.838,33.847 C52.838,33.847 54.209,33.847 54.209,33.847 C54.377,33.847 54.520,33.862 54.636,33.892 C54.753,33.921 54.847,33.988 54.919,34.091 C54.991,34.195 55.027,34.349 55.027,34.555 Z" id="path-10" class="cls-3" fill-rule="evenodd"/>
  </g>
</svg>
