<svg xmlns="http://www.w3.org/2000/svg" xmlns:xlink="http://www.w3.org/1999/xlink" preserveAspectRatio="xMidYMid" width="56" height="66" viewBox="0 0 56 66">
  <defs>
    <style>

      .cls-3 {
        fill: #edc951;
      }

      .cls-4 {
        fill: #8b71b5;
      }

      .cls-5 {
        fill: #000000;
      }
    </style>
  </defs>
  <g id="group-81svg">
    <path d="M22.585,4.991 C22.585,4.991 47.085,4.991 47.085,4.991 C49.285,4.991 51.000,6.291 51.000,8.492 C51.000,8.492 51.000,60.495 51.000,60.495 C51.000,62.696 49.285,64.996 47.085,64.996 C47.085,64.996 10.085,64.996 10.085,64.996 C7.875,64.996 6.000,62.704 6.000,60.495 C6.000,60.495 6.000,24.562 6.000,24.562 C6.000,24.562 22.585,4.991 22.585,4.991 Z" id="path-1" class="cls-3" fill-rule="evenodd"/>
    <path d="M7.271,22.993 C7.271,22.993 18.585,22.993 18.585,22.993 C20.794,22.993 23.000,21.202 23.000,18.992 C23.000,18.992 23.000,4.491 23.000,4.491 C23.000,4.491 7.271,22.993 7.271,22.993 Z" id="path-2" class="cls-4" fill-rule="evenodd"/>
    <path d="M42.085,62.996 C42.085,62.996 5.085,62.996 5.085,62.996 C2.139,62.996 -0.000,60.682 -0.000,57.495 C-0.000,57.495 -0.000,21.562 -0.000,21.562 C-0.000,21.229 0.111,20.905 0.315,20.642 C0.315,20.642 15.900,0.571 15.900,0.571 C16.185,0.205 16.622,-0.009 17.085,-0.009 C17.085,-0.009 42.085,-0.009 42.085,-0.009 C45.236,-0.009 48.000,2.562 48.000,5.492 C48.000,5.492 48.000,57.495 48.000,57.495 C48.000,60.425 45.236,62.996 42.085,62.996 ZM3.000,22.076 C3.000,22.076 3.000,57.495 3.000,57.495 C3.000,58.739 3.644,59.995 5.085,59.995 C5.085,59.995 42.085,59.995 42.085,59.995 C43.556,59.995 45.000,58.757 45.000,57.495 C45.000,57.495 45.000,5.492 45.000,5.492 C45.000,4.230 43.556,2.991 42.085,2.991 C42.085,2.991 17.819,2.991 17.819,2.991 C17.819,2.991 3.000,22.076 3.000,22.076 Z" id="path-3" class="cls-5" fill-rule="evenodd"/>
    <path d="M12.713,21.993 C12.713,21.993 1.937,21.993 1.937,21.993 C1.356,21.993 0.827,21.657 0.580,21.131 C0.332,20.605 0.412,19.983 0.782,19.536 C0.782,19.536 16.345,0.749 16.345,0.749 C16.747,0.262 17.413,0.081 18.009,0.295 C18.603,0.510 19.000,1.073 19.000,1.706 C19.000,1.706 19.000,16.012 19.000,16.012 C19.000,18.974 15.827,21.993 12.713,21.993 ZM5.128,18.992 C5.128,18.992 12.713,18.992 12.713,18.992 C14.157,18.992 16.000,17.321 16.000,16.012 C16.000,16.012 16.000,5.869 16.000,5.869 C16.000,5.869 5.128,18.992 5.128,18.992 Z" id="path-4" class="cls-5" fill-rule="evenodd"/>
    <path d="M54.000,35.994 C54.000,38.203 52.209,39.994 50.000,39.994 C50.000,39.994 31.000,39.994 31.000,39.994 C28.791,39.994 27.000,38.203 27.000,35.994 C27.000,35.994 27.000,26.993 27.000,26.993 C27.000,24.784 28.791,22.993 31.000,22.993 C31.000,22.993 50.000,22.993 50.000,22.993 C52.209,22.993 54.000,24.784 54.000,26.993 C54.000,26.993 54.000,35.994 54.000,35.994 Z" id="path-5" class="cls-4" fill-rule="evenodd"/>
    <path d="M50.500,40.994 C50.500,40.994 31.500,40.994 31.500,40.994 C28.467,40.994 26.000,38.526 26.000,35.494 C26.000,35.494 26.000,26.493 26.000,26.493 C26.000,23.461 28.467,20.993 31.500,20.993 C31.500,20.993 50.500,20.993 50.500,20.993 C53.533,20.993 56.000,23.461 56.000,26.493 C56.000,26.493 56.000,35.494 56.000,35.494 C56.000,38.526 53.533,40.994 50.500,40.994 ZM31.500,23.993 C30.122,23.993 29.000,25.114 29.000,26.493 C29.000,26.493 29.000,35.494 29.000,35.494 C29.000,36.873 30.122,37.994 31.500,37.994 C31.500,37.994 50.500,37.994 50.500,37.994 C51.878,37.994 53.000,36.873 53.000,35.494 C53.000,35.494 53.000,26.493 53.000,26.493 C53.000,25.114 51.878,23.993 50.500,23.993 C50.500,23.993 31.500,23.993 31.500,23.993 Z" id="path-6" class="cls-5" fill-rule="evenodd"/>
    <path d="M34.183,35.867 C34.183,35.867 34.183,30.228 34.183,30.228 C34.183,29.935 34.249,29.714 34.383,29.567 C34.516,29.421 34.689,29.349 34.900,29.349 C35.119,29.349 35.295,29.421 35.430,29.566 C35.565,29.710 35.633,29.931 35.633,30.228 C35.633,30.228 35.633,35.867 35.633,35.867 C35.633,36.164 35.565,36.384 35.430,36.531 C35.295,36.677 35.119,36.752 34.900,36.752 C34.692,36.752 34.520,36.677 34.385,36.529 C34.250,36.380 34.183,36.160 34.183,35.867 Z" id="path-7" class="cls-3" fill-rule="evenodd"/>
    <path d="M40.032,33.841 C40.032,33.841 38.704,33.841 38.704,33.841 C38.704,33.841 38.704,35.867 38.704,35.867 C38.704,36.158 38.636,36.376 38.499,36.527 C38.362,36.675 38.190,36.752 37.981,36.752 C37.763,36.752 37.587,36.677 37.454,36.529 C37.321,36.380 37.254,36.164 37.254,35.876 C37.254,35.876 37.254,30.358 37.254,30.358 C37.254,30.040 37.327,29.812 37.474,29.675 C37.620,29.538 37.853,29.470 38.172,29.470 C38.172,29.470 40.032,29.470 40.032,29.470 C40.582,29.470 41.005,29.513 41.302,29.597 C41.595,29.679 41.848,29.814 42.061,30.003 C42.274,30.191 42.436,30.423 42.547,30.696 C42.658,30.970 42.713,31.277 42.713,31.618 C42.713,32.349 42.488,32.900 42.039,33.277 C41.590,33.652 40.921,33.841 40.032,33.841 ZM39.681,30.560 C39.681,30.560 38.704,30.560 38.704,30.560 C38.704,30.560 38.704,32.747 38.704,32.747 C38.704,32.747 39.681,32.747 39.681,32.747 C40.022,32.747 40.308,32.710 40.538,32.640 C40.767,32.568 40.942,32.450 41.062,32.288 C41.183,32.124 41.243,31.911 41.243,31.648 C41.243,31.333 41.150,31.075 40.965,30.876 C40.756,30.665 40.329,30.560 39.681,30.560 Z" id="path-8" class="cls-3" fill-rule="evenodd"/>
    <path d="M47.625,35.818 C47.625,35.818 47.283,34.919 47.283,34.919 C47.283,34.919 44.373,34.919 44.373,34.919 C44.373,34.919 44.031,35.837 44.031,35.837 C43.898,36.197 43.784,36.437 43.689,36.562 C43.595,36.689 43.440,36.752 43.226,36.752 C43.043,36.752 42.882,36.685 42.742,36.550 C42.602,36.417 42.532,36.265 42.532,36.097 C42.532,35.999 42.548,35.898 42.581,35.794 C42.614,35.689 42.667,35.544 42.742,35.359 C42.742,35.359 44.573,30.710 44.573,30.710 C44.625,30.577 44.688,30.417 44.761,30.230 C44.834,30.042 44.913,29.888 44.996,29.763 C45.079,29.640 45.187,29.540 45.323,29.462 C45.458,29.386 45.624,29.349 45.823,29.349 C46.025,29.349 46.193,29.386 46.329,29.462 C46.464,29.540 46.573,29.638 46.656,29.759 C46.739,29.878 46.809,30.009 46.866,30.146 C46.923,30.284 46.995,30.470 47.083,30.700 C47.083,30.700 48.953,35.320 48.953,35.320 C49.100,35.671 49.173,35.927 49.173,36.087 C49.173,36.253 49.104,36.406 48.965,36.543 C48.827,36.681 48.660,36.752 48.465,36.752 C48.351,36.752 48.253,36.730 48.172,36.689 C48.090,36.650 48.022,36.593 47.967,36.523 C47.912,36.455 47.852,36.347 47.788,36.201 C47.725,36.056 47.670,35.929 47.625,35.818 ZM44.754,33.831 C44.754,33.831 46.893,33.831 46.893,33.831 C46.893,33.831 45.813,30.876 45.813,30.876 C45.813,30.876 44.754,33.831 44.754,33.831 Z" id="path-9" class="cls-3" fill-rule="evenodd"/>
  </g>
</svg>
