<svg xmlns="http://www.w3.org/2000/svg" xmlns:xlink="http://www.w3.org/1999/xlink" preserveAspectRatio="xMidYMid" width="50" height="66" viewBox="0 0 50 66">
  <defs>
    <style>

      .cls-3 {
        fill: #e56a77;
      }

      .cls-4 {
        fill: #53ecf4;
      }

      .cls-5 {
        fill: #000000;
      }
    </style>
  </defs>
  <g id="group-29svg">
    <path d="M33.710,65.004 C33.710,65.004 13.210,65.004 13.210,65.004 C8.810,65.004 5.000,60.904 5.000,56.503 C5.000,56.503 5.000,12.500 5.000,12.500 C5.000,8.100 8.810,5.000 13.210,5.000 C13.210,5.000 42.210,5.000 42.210,5.000 C46.629,5.000 50.000,8.082 50.000,12.500 C50.000,12.500 50.000,44.433 50.000,44.433 C50.000,44.433 33.710,65.004 33.710,65.004 Z" id="path-1" class="cls-3" fill-rule="evenodd"/>
    <path d="M49.024,46.003 C49.024,46.003 37.710,46.003 37.710,46.003 C35.501,46.003 34.000,47.794 34.000,50.003 C34.000,50.003 34.000,64.504 34.000,64.504 C34.000,64.504 49.024,46.003 49.024,46.003 Z" id="path-2" class="cls-4" fill-rule="evenodd"/>
    <path d="M30.210,63.004 C30.210,63.004 9.210,63.004 9.210,63.004 C4.046,63.004 -0.000,58.831 -0.000,53.503 C-0.000,53.503 -0.000,9.500 -0.000,9.500 C-0.000,4.173 4.046,-0.000 9.210,-0.000 C9.210,-0.000 38.210,-0.000 38.210,-0.000 C43.517,-0.000 48.000,4.350 48.000,9.500 C48.000,9.500 48.000,41.433 48.000,41.433 C48.000,41.778 47.882,42.111 47.665,42.378 C47.665,42.378 31.375,62.449 31.375,62.449 C31.090,62.800 30.662,63.004 30.210,63.004 ZM9.210,3.000 C5.727,3.000 3.000,5.855 3.000,9.500 C3.000,9.500 3.000,53.503 3.000,53.503 C3.000,57.148 5.727,60.004 9.210,60.004 C9.210,60.004 29.495,60.004 29.495,60.004 C29.495,60.004 45.000,40.901 45.000,40.901 C45.000,40.901 45.000,9.500 45.000,9.500 C45.000,5.976 41.891,3.000 38.210,3.000 C38.210,3.000 9.210,3.000 9.210,3.000 Z" id="path-3" class="cls-5" fill-rule="evenodd"/>
    <path d="M30.500,62.789 C30.335,62.789 30.169,62.762 30.008,62.706 C29.404,62.496 29.000,61.928 29.000,61.289 C29.000,61.289 29.000,46.983 29.000,46.983 C29.000,43.853 31.660,41.002 34.582,41.002 C34.582,41.002 45.357,41.002 45.357,41.002 C45.933,41.002 46.457,41.331 46.708,41.849 C46.958,42.367 46.891,42.982 46.534,43.433 C46.534,43.433 31.677,62.220 31.677,62.220 C31.387,62.586 30.949,62.789 30.500,62.789 ZM34.582,44.003 C33.303,44.003 32.000,45.507 32.000,46.983 C32.000,46.983 32.000,56.974 32.000,56.974 C32.000,56.974 42.259,44.003 42.259,44.003 C42.259,44.003 34.582,44.003 34.582,44.003 Z" id="path-4" class="cls-5" fill-rule="evenodd"/>
    <path d="M29.029,24.635 C29.029,23.799 29.298,22.951 29.835,22.092 C30.372,21.233 31.156,20.522 32.186,19.959 C33.217,19.395 34.419,19.113 35.793,19.113 C37.069,19.113 38.197,19.349 39.175,19.820 C40.152,20.291 40.907,20.932 41.439,21.742 C41.973,22.553 42.239,23.433 42.239,24.385 C42.239,25.133 42.087,25.789 41.784,26.353 C41.480,26.917 41.118,27.403 40.700,27.813 C40.282,28.222 39.531,28.912 38.448,29.880 C38.148,30.153 37.908,30.394 37.728,30.600 C37.548,30.807 37.413,30.997 37.325,31.168 C37.237,31.340 37.169,31.511 37.120,31.683 C37.072,31.855 36.999,32.157 36.902,32.588 C36.734,33.504 36.211,33.962 35.330,33.962 C34.872,33.962 34.487,33.812 34.175,33.513 C33.862,33.214 33.706,32.769 33.706,32.179 C33.706,31.439 33.819,30.798 34.049,30.257 C34.278,29.715 34.582,29.240 34.961,28.830 C35.340,28.420 35.851,27.934 36.493,27.370 C37.057,26.877 37.464,26.504 37.715,26.254 C37.966,26.003 38.178,25.724 38.349,25.415 C38.521,25.107 38.606,24.772 38.606,24.411 C38.606,23.706 38.345,23.112 37.820,22.627 C37.297,22.143 36.621,21.900 35.793,21.900 C34.824,21.900 34.110,22.145 33.653,22.633 C33.195,23.123 32.808,23.842 32.490,24.794 C32.191,25.789 31.623,26.287 30.786,26.287 C30.293,26.287 29.877,26.113 29.538,25.765 C29.199,25.417 29.029,25.041 29.029,24.635 ZM35.477,39.115 C34.938,39.115 34.470,38.941 34.068,38.593 C33.669,38.245 33.468,37.758 33.468,37.133 C33.468,36.578 33.661,36.111 34.049,35.733 C34.436,35.354 34.912,35.165 35.477,35.165 C36.030,35.165 36.498,35.354 36.876,35.733 C37.255,36.111 37.444,36.578 37.444,37.133 C37.444,37.750 37.246,38.234 36.850,38.586 C36.453,38.938 35.995,39.115 35.477,39.115 Z" id="path-5" class="cls-5" fill-rule="evenodd"/>
  </g>
</svg>
