<svg xmlns="http://www.w3.org/2000/svg" xmlns:xlink="http://www.w3.org/1999/xlink" preserveAspectRatio="xMidYMid" width="57" height="66" viewBox="0 0 57 66">
  <defs>
    <style>

      .cls-3 {
        fill: #53ecf4;
      }

      .cls-4 {
        fill: #ff917b;
      }

      .cls-6 {
        fill: #000000;
      }
    </style>
  </defs>
  <g id="group-37svg">
    <path d="M57.000,13.010 C57.000,8.591 53.418,5.009 49.000,5.009 C49.000,5.009 14.000,5.009 14.000,5.009 C9.582,5.009 6.000,8.591 6.000,13.010 C6.000,13.010 6.000,57.013 6.000,57.013 C6.000,61.432 9.582,65.013 14.000,65.013 C14.000,65.013 49.000,65.013 49.000,65.013 C53.418,65.013 57.000,61.432 57.000,57.013 C57.000,57.013 57.000,13.010 57.000,13.010 Z" id="path-1" class="cls-3" fill-rule="evenodd"/>
    <path d="M48.000,64.013 C48.000,64.013 40.000,64.013 40.000,64.013 C40.000,64.013 40.000,5.009 40.000,5.009 C40.000,5.009 48.000,5.009 48.000,5.009 C48.000,5.009 48.000,64.013 48.000,64.013 Z" id="path-2" class="cls-4" fill-rule="evenodd"/>
    <path d="M31.000,27.785 C31.000,27.785 25.500,20.505 25.500,20.505 C25.500,20.505 20.000,27.785 20.000,27.785 C20.000,27.785 20.000,5.009 20.000,5.009 C20.000,5.009 31.000,5.009 31.000,5.009 C31.000,5.009 31.000,27.785 31.000,27.785 Z" id="path-3" class="cls-4" fill-rule="evenodd"/>
    <path d="M44.500,63.013 C44.500,63.013 9.500,63.013 9.500,63.013 C4.262,63.013 -0.000,58.751 -0.000,53.513 C-0.000,53.513 -0.000,9.510 -0.000,9.510 C-0.000,4.271 4.262,0.009 9.500,0.009 C9.500,0.009 44.500,0.009 44.500,0.009 C49.738,0.009 54.000,4.271 54.000,9.510 C54.000,9.510 54.000,53.513 54.000,53.513 C54.000,58.751 49.738,63.013 44.500,63.013 ZM9.500,3.009 C5.916,3.009 3.000,5.925 3.000,9.510 C3.000,9.510 3.000,53.513 3.000,53.513 C3.000,57.097 5.916,60.013 9.500,60.013 C9.500,60.013 44.500,60.013 44.500,60.013 C48.084,60.013 51.000,57.097 51.000,53.513 C51.000,53.513 51.000,9.510 51.000,9.510 C51.000,5.925 48.084,3.009 44.500,3.009 C44.500,3.009 9.500,3.009 9.500,3.009 Z" id="path-4" class="cls-6" fill-rule="evenodd"/>
    <path d="M43.500,62.013 C43.500,62.013 35.500,62.013 35.500,62.013 C34.672,62.013 34.000,61.341 34.000,60.513 C34.000,60.513 34.000,1.509 34.000,1.509 C34.000,0.681 34.672,0.009 35.500,0.009 C35.500,0.009 43.500,0.009 43.500,0.009 C44.328,0.009 45.000,0.681 45.000,1.509 C45.000,1.509 45.000,60.513 45.000,60.513 C45.000,61.341 44.328,62.013 43.500,62.013 ZM37.000,59.013 C37.000,59.013 42.000,59.013 42.000,59.013 C42.000,59.013 42.000,3.009 42.000,3.009 C42.000,3.009 37.000,3.009 37.000,3.009 C37.000,3.009 37.000,59.013 37.000,59.013 Z" id="path-5" class="cls-6" fill-rule="evenodd"/>
    <path d="M26.500,26.285 C26.039,26.285 25.592,26.072 25.303,25.689 C25.303,25.689 21.000,19.994 21.000,19.994 C21.000,19.994 16.697,25.689 16.697,25.689 C16.308,26.204 15.631,26.411 15.023,26.207 C14.412,26.002 14.000,25.430 14.000,24.785 C14.000,24.785 14.000,1.509 14.000,1.509 C14.000,0.681 14.672,0.009 15.500,0.009 C15.500,0.009 26.500,0.009 26.500,0.009 C27.328,0.009 28.000,0.681 28.000,1.509 C28.000,1.509 28.000,24.785 28.000,24.785 C28.000,25.430 27.588,26.002 26.976,26.207 C26.820,26.260 26.659,26.285 26.500,26.285 ZM21.000,16.005 C21.471,16.005 21.913,16.226 22.197,16.601 C22.197,16.601 25.000,20.311 25.000,20.311 C25.000,20.311 25.000,3.009 25.000,3.009 C25.000,3.009 17.000,3.009 17.000,3.009 C17.000,3.009 17.000,20.311 17.000,20.311 C17.000,20.311 19.803,16.601 19.803,16.601 C20.087,16.226 20.529,16.005 21.000,16.005 Z" id="path-6" class="cls-6" fill-rule="evenodd"/>
  </g>
</svg>
