<svg xmlns="http://www.w3.org/2000/svg" xmlns:xlink="http://www.w3.org/1999/xlink" preserveAspectRatio="xMidYMid" width="51" height="66" viewBox="0 0 51 66">
  <defs>
    <style>

      .cls-3 {
        fill: #e56a77;
      }

      .cls-4 {
        fill: #53ecf4;
      }

      .cls-5 {
        fill: #000000;
      }

      .cls-7 {
        fill: #ffffff;
      }
    </style>
  </defs>
  <g id="group-20svg">
    <path d="M34.028,64.995 C34.028,64.995 13.528,64.995 13.528,64.995 C9.129,64.995 6.000,60.895 6.000,56.495 C6.000,56.495 6.000,12.492 6.000,12.492 C6.000,8.091 9.129,4.991 13.528,4.991 C13.528,4.991 42.528,4.991 42.528,4.991 C46.947,4.991 51.000,8.073 51.000,12.492 C51.000,12.492 51.000,44.425 51.000,44.425 C51.000,44.425 34.028,64.995 34.028,64.995 Z" id="path-1" class="cls-3" fill-rule="evenodd"/>
    <path d="M49.343,45.994 C49.343,45.994 38.028,45.994 38.028,45.994 C35.819,45.994 34.000,47.785 34.000,49.994 C34.000,49.994 34.000,64.495 34.000,64.495 C34.000,64.495 49.343,45.994 49.343,45.994 Z" id="path-2" class="cls-4" fill-rule="evenodd"/>
    <path d="M30.528,62.995 C30.528,62.995 9.528,62.995 9.528,62.995 C4.274,62.995 -0.000,58.733 -0.000,53.495 C-0.000,53.495 -0.000,9.491 -0.000,9.491 C-0.000,4.253 4.274,-0.009 9.528,-0.009 C9.528,-0.009 38.528,-0.009 38.528,-0.009 C43.751,-0.009 48.000,4.253 48.000,9.491 C48.000,9.491 48.000,41.424 48.000,41.424 C48.000,41.763 47.885,42.093 47.674,42.358 C47.674,42.358 31.702,62.429 31.702,62.429 C31.417,62.787 30.985,62.995 30.528,62.995 ZM9.528,2.991 C5.929,2.991 3.000,5.907 3.000,9.491 C3.000,9.491 3.000,53.495 3.000,53.495 C3.000,57.079 5.929,59.995 9.528,59.995 C9.528,59.995 29.805,59.995 29.805,59.995 C29.805,59.995 45.000,40.900 45.000,40.900 C45.000,40.900 45.000,9.491 45.000,9.491 C45.000,5.907 42.097,2.991 38.528,2.991 C38.528,2.991 9.528,2.991 9.528,2.991 Z" id="path-3" class="cls-5" fill-rule="evenodd"/>
    <path d="M30.500,62.780 C30.333,62.780 30.164,62.752 30.000,62.694 C29.400,62.482 29.000,61.916 29.000,61.280 C29.000,61.280 29.000,46.975 29.000,46.975 C29.000,43.900 31.867,40.994 34.900,40.994 C34.900,40.994 45.676,40.994 45.676,40.994 C46.254,40.994 46.780,41.326 47.029,41.847 C47.278,42.369 47.206,42.987 46.843,43.436 C46.843,43.436 31.667,62.223 31.667,62.223 C31.376,62.582 30.944,62.780 30.500,62.780 ZM34.900,43.994 C33.545,43.994 32.000,45.582 32.000,46.975 C32.000,46.975 32.000,57.036 32.000,57.036 C32.000,57.036 42.536,43.994 42.536,43.994 C42.536,43.994 34.900,43.994 34.900,43.994 Z" id="path-4" class="cls-5" fill-rule="evenodd"/>
    <path d="M27.445,21.870 C27.445,21.870 29.390,31.818 29.390,31.818 C29.608,32.935 30.985,33.356 31.791,32.551 C31.791,32.551 33.546,30.796 33.546,30.796 C33.546,30.796 39.814,37.065 39.814,37.065 C40.475,37.724 41.547,37.825 42.262,37.226 C43.077,36.541 43.108,35.332 42.373,34.596 C42.373,34.596 36.060,28.282 36.060,28.282 C36.060,28.282 38.125,26.216 38.125,26.216 C38.931,25.411 38.510,24.033 37.393,23.815 C37.393,23.815 27.445,21.870 27.445,21.870 Z" id="path-5" class="cls-7" fill-rule="evenodd"/>
    <path d="M38.608,37.577 C38.608,37.577 38.608,37.577 38.608,37.577 C37.717,37.577 36.842,37.214 36.209,36.580 C36.209,36.580 31.000,31.371 31.000,31.371 C31.000,31.371 30.306,32.065 30.306,32.065 C29.754,32.618 29.022,32.923 28.247,32.923 C26.849,32.923 25.640,31.929 25.372,30.559 C25.372,30.559 23.429,20.612 23.429,20.612 C23.332,20.122 23.486,19.616 23.840,19.264 C24.193,18.910 24.700,18.756 25.188,18.852 C25.188,18.852 35.136,20.797 35.136,20.797 C36.197,21.004 37.053,21.776 37.369,22.811 C37.685,23.846 37.406,24.964 36.642,25.730 C36.642,25.730 35.635,26.736 35.635,26.736 C35.635,26.736 40.889,31.990 40.889,31.990 C41.540,32.642 41.892,33.542 41.852,34.459 C41.812,35.373 41.386,36.236 40.681,36.829 C40.104,37.312 39.369,37.577 38.608,37.577 ZM31.000,27.750 C31.397,27.750 31.779,27.908 32.060,28.189 C32.060,28.189 38.330,34.459 38.330,34.459 C38.404,34.533 38.508,34.577 38.608,34.577 C38.608,34.577 38.608,34.577 38.608,34.577 C38.697,34.577 38.739,34.542 38.753,34.530 C38.816,34.478 38.851,34.409 38.854,34.329 C38.856,34.282 38.848,34.192 38.768,34.111 C38.768,34.111 32.453,27.796 32.453,27.796 C32.172,27.515 32.014,27.133 32.014,26.736 C32.014,26.337 32.172,25.956 32.453,25.675 C32.453,25.675 34.416,23.713 34.416,23.713 C34.416,23.713 26.800,22.224 26.800,22.224 C26.800,22.224 28.289,29.840 28.289,29.840 C28.289,29.840 29.939,28.189 29.939,28.189 C30.221,27.908 30.603,27.750 31.000,27.750 Z" id="path-6" class="cls-5" fill-rule="evenodd"/>
  </g>
</svg>
