<svg xmlns="http://www.w3.org/2000/svg" xmlns:xlink="http://www.w3.org/1999/xlink" preserveAspectRatio="xMidYMid" width="51" height="66" viewBox="0 0 51 66">
  <defs>
    <style>

      .cls-3 {
        fill: #e56a77;
      }

      .cls-4 {
        fill: #53ecf4;
      }

      .cls-5 {
        fill: #000000;
      }
    </style>
  </defs>
  <g id="group-11svg">
    <path d="M34.486,65.018 C34.486,65.018 13.986,65.018 13.986,65.018 C9.587,65.018 6.000,60.917 6.000,56.517 C6.000,56.517 6.000,12.514 6.000,12.514 C6.000,8.114 9.587,5.014 13.986,5.014 C13.986,5.014 42.986,5.014 42.986,5.014 C47.405,5.014 51.000,8.095 51.000,12.514 C51.000,12.514 51.000,44.447 51.000,44.447 C51.000,44.447 34.486,65.018 34.486,65.018 Z" id="path-1" class="cls-3" fill-rule="evenodd"/>
    <path d="M49.801,46.016 C49.801,46.016 38.486,46.016 38.486,46.016 C36.277,46.016 34.000,47.808 34.000,50.017 C34.000,50.017 34.000,64.518 34.000,64.518 C34.000,64.518 49.801,46.016 49.801,46.016 Z" id="path-2" class="cls-4" fill-rule="evenodd"/>
    <path d="M30.987,63.018 C30.987,63.018 9.987,63.018 9.987,63.018 C4.667,63.018 -0.000,58.578 -0.000,53.517 C-0.000,53.517 -0.000,9.514 -0.000,9.514 C-0.000,4.453 4.667,0.013 9.987,0.013 C9.987,0.013 38.987,0.013 38.987,0.013 C44.125,0.013 48.000,4.097 48.000,9.514 C48.000,9.514 48.000,41.447 48.000,41.447 C48.000,41.779 47.890,42.101 47.686,42.364 C47.686,42.364 32.174,62.435 32.174,62.435 C31.890,62.803 31.452,63.018 30.987,63.018 ZM9.987,3.013 C6.265,3.013 3.000,6.051 3.000,9.514 C3.000,9.514 3.000,53.517 3.000,53.517 C3.000,56.980 6.265,60.017 9.987,60.017 C9.987,60.017 30.251,60.017 30.251,60.017 C30.251,60.017 45.000,40.935 45.000,40.935 C45.000,40.935 45.000,9.514 45.000,9.514 C45.000,5.808 42.415,3.013 38.987,3.013 C38.987,3.013 9.987,3.013 9.987,3.013 Z" id="path-3" class="cls-5" fill-rule="evenodd"/>
    <path d="M30.500,62.803 C30.329,62.803 30.156,62.773 29.990,62.713 C29.395,62.498 29.000,61.935 29.000,61.303 C29.000,61.303 29.000,46.997 29.000,46.997 C29.000,43.776 32.496,41.016 35.358,41.016 C35.358,41.016 46.135,41.016 46.135,41.016 C46.717,41.016 47.246,41.353 47.493,41.879 C47.740,42.407 47.660,43.029 47.288,43.476 C47.288,43.476 31.653,62.263 31.653,62.263 C31.362,62.611 30.937,62.803 30.500,62.803 ZM35.358,44.016 C33.915,44.016 32.000,45.716 32.000,46.997 C32.000,46.997 32.000,57.155 32.000,57.155 C32.000,57.155 42.935,44.016 42.935,44.016 C42.935,44.016 35.358,44.016 35.358,44.016 Z" id="path-4" class="cls-5" fill-rule="evenodd"/>
    <path d="M36.148,29.290 C36.232,30.149 36.375,30.787 36.584,31.241 C36.874,31.871 37.434,32.218 38.159,32.218 C38.869,32.218 39.430,31.869 39.739,31.237 C39.972,30.762 40.117,30.130 40.182,29.308 C40.182,29.308 40.715,23.187 40.715,23.187 C40.776,22.599 40.807,22.019 40.807,21.448 C40.807,20.402 40.666,19.603 40.374,19.004 C40.121,18.485 39.556,17.868 38.309,17.868 C37.518,17.868 36.864,18.138 36.369,18.670 C35.883,19.188 35.636,19.893 35.636,20.764 C35.636,21.279 35.673,22.128 35.749,23.311 C35.749,23.311 36.148,29.290 36.148,29.290 Z" id="path-5" class="cls-5" fill-rule="evenodd"/>
    <path d="M36.386,33.727 C35.895,34.216 35.636,34.843 35.636,35.540 C35.636,36.329 35.916,36.989 36.447,37.450 C36.955,37.890 37.557,38.113 38.233,38.113 C38.906,38.113 39.505,37.886 40.009,37.437 C40.531,36.973 40.807,36.317 40.807,35.540 C40.807,34.838 40.541,34.210 40.042,33.724 C39.032,32.734 37.373,32.738 36.386,33.727 Z" id="path-6" class="cls-5" fill-rule="evenodd"/>
  </g>
</svg>
