<svg xmlns="http://www.w3.org/2000/svg" xmlns:xlink="http://www.w3.org/1999/xlink" preserveAspectRatio="xMidYMid" width="50" height="66" viewBox="0 0 50 66">
  <defs>
    <style>

      .cls-3 {
        fill: #e56a77;
      }

      .cls-4 {
        fill: #53ecf4;
      }

      .cls-5 {
        fill: #000000;
      }

      .cls-7 {
        fill: #ffffff;
      }
    </style>
  </defs>
  <g id="group-19svg">
    <path d="M33.710,64.995 C33.710,64.995 13.210,64.995 13.210,64.995 C8.810,64.995 5.000,60.895 5.000,56.495 C5.000,56.495 5.000,12.492 5.000,12.492 C5.000,8.091 8.810,4.991 13.210,4.991 C13.210,4.991 42.210,4.991 42.210,4.991 C46.629,4.991 50.000,8.073 50.000,12.492 C50.000,12.492 50.000,44.425 50.000,44.425 C50.000,44.425 33.710,64.995 33.710,64.995 Z" id="path-1" class="cls-3" fill-rule="evenodd"/>
    <path d="M49.024,45.994 C49.024,45.994 37.710,45.994 37.710,45.994 C35.501,45.994 34.000,47.785 34.000,49.994 C34.000,49.994 34.000,64.495 34.000,64.495 C34.000,64.495 49.024,45.994 49.024,45.994 Z" id="path-2" class="cls-4" fill-rule="evenodd"/>
    <path d="M30.210,62.995 C30.210,62.995 9.210,62.995 9.210,62.995 C4.046,62.995 -0.000,58.822 -0.000,53.495 C-0.000,53.495 -0.000,9.491 -0.000,9.491 C-0.000,4.164 4.046,-0.009 9.210,-0.009 C9.210,-0.009 38.210,-0.009 38.210,-0.009 C43.517,-0.009 48.000,4.342 48.000,9.491 C48.000,9.491 48.000,41.424 48.000,41.424 C48.000,41.769 47.882,42.102 47.665,42.370 C47.665,42.370 31.375,62.440 31.375,62.440 C31.090,62.791 30.662,62.995 30.210,62.995 ZM9.210,2.991 C5.727,2.991 3.000,5.847 3.000,9.491 C3.000,9.491 3.000,53.495 3.000,53.495 C3.000,57.139 5.727,59.995 9.210,59.995 C9.210,59.995 29.495,59.995 29.495,59.995 C29.495,59.995 45.000,40.892 45.000,40.892 C45.000,40.892 45.000,9.491 45.000,9.491 C45.000,5.968 41.891,2.991 38.210,2.991 C38.210,2.991 9.210,2.991 9.210,2.991 Z" id="path-3" class="cls-5" fill-rule="evenodd"/>
    <path d="M30.500,62.780 C30.335,62.780 30.169,62.753 30.008,62.697 C29.404,62.487 29.000,61.919 29.000,61.280 C29.000,61.280 29.000,46.975 29.000,46.975 C29.000,43.844 31.660,40.994 34.582,40.994 C34.582,40.994 45.357,40.994 45.357,40.994 C45.933,40.994 46.457,41.323 46.708,41.840 C46.958,42.358 46.891,42.973 46.534,43.424 C46.534,43.424 31.677,62.211 31.677,62.211 C31.387,62.577 30.949,62.780 30.500,62.780 ZM34.582,43.994 C33.303,43.994 32.000,45.498 32.000,46.975 C32.000,46.975 32.000,56.965 32.000,56.965 C32.000,56.965 42.259,43.994 42.259,43.994 C42.259,43.994 34.582,43.994 34.582,43.994 Z" id="path-4" class="cls-5" fill-rule="evenodd"/>
    <path d="M39.530,28.107 C39.516,28.107 39.502,28.109 39.488,28.109 C39.513,27.947 39.530,27.781 39.530,27.611 C39.530,25.828 38.086,24.384 36.304,24.384 C34.521,24.384 33.077,25.828 33.077,27.611 C33.077,27.781 33.094,27.947 33.119,28.109 C33.105,28.109 33.091,28.107 33.077,28.107 C31.295,28.107 29.851,29.552 29.851,31.334 C29.851,33.117 31.295,34.561 33.077,34.561 C34.859,34.561 37.748,34.568 39.530,34.568 C41.312,34.568 42.757,33.120 42.757,31.338 C42.757,29.555 41.312,28.107 39.530,28.107 Z" id="path-5" class="cls-7" fill-rule="evenodd"/>
    <path d="M37.436,34.673 C37.436,34.673 30.983,34.666 30.983,34.666 C28.377,34.666 26.257,32.546 26.257,29.939 C26.257,27.833 27.642,26.043 29.548,25.434 C29.921,23.198 31.870,21.488 34.210,21.488 C36.550,21.488 38.499,23.198 38.872,25.434 C40.779,26.043 42.164,27.835 42.164,29.942 C42.164,32.551 40.043,34.673 37.436,34.673 ZM30.926,28.211 C30.031,28.211 29.257,28.987 29.257,29.939 C29.257,30.891 30.031,31.666 30.983,31.666 C30.983,31.666 37.436,31.673 37.436,31.673 C38.389,31.673 39.164,30.896 39.164,29.942 C39.164,28.999 38.407,28.230 37.470,28.211 C37.022,28.238 36.608,28.057 36.310,27.740 C35.993,27.403 35.841,26.940 35.912,26.484 C35.926,26.396 35.936,26.307 35.936,26.215 C35.936,25.263 35.162,24.489 34.210,24.489 C33.258,24.489 32.483,25.263 32.483,26.215 C32.483,26.307 32.495,26.396 32.509,26.484 C32.578,26.934 32.440,27.391 32.133,27.727 C31.825,28.063 31.393,28.236 30.926,28.211 Z" id="path-6" class="cls-5" fill-rule="evenodd"/>
  </g>
</svg>
