<svg xmlns="http://www.w3.org/2000/svg" xmlns:xlink="http://www.w3.org/1999/xlink" preserveAspectRatio="xMidYMid" width="51" height="66" viewBox="0 0 51 66">
  <defs>
    <style>

      .cls-3 {
        fill: #edc951;
      }

      .cls-4 {
        fill: #8b71b5;
      }

      .cls-5 {
        fill: #000000;
      }
    </style>
  </defs>
  <g id="group-67svg">
    <path d="M22.519,5.005 C22.519,5.005 47.019,5.005 47.019,5.005 C49.219,5.005 51.000,6.305 51.000,8.505 C51.000,8.505 51.000,60.509 51.000,60.509 C51.000,62.709 49.219,65.009 47.019,65.009 C47.019,65.009 10.019,65.009 10.019,65.009 C7.809,65.009 6.000,62.718 6.000,60.509 C6.000,60.509 6.000,24.575 6.000,24.575 C6.000,24.575 22.519,5.005 22.519,5.005 Z" id="path-1" class="cls-3" fill-rule="evenodd"/>
    <path d="M7.204,23.006 C7.204,23.006 18.519,23.006 18.519,23.006 C20.728,23.006 23.000,21.215 23.000,19.006 C23.000,19.006 23.000,4.505 23.000,4.505 C23.000,4.505 7.204,23.006 7.204,23.006 Z" id="path-2" class="cls-4" fill-rule="evenodd"/>
    <path d="M42.018,63.009 C42.018,63.009 5.019,63.009 5.019,63.009 C2.110,63.009 -0.000,60.695 -0.000,57.508 C-0.000,57.508 -0.000,21.575 -0.000,21.575 C-0.000,21.243 0.110,20.920 0.313,20.657 C0.313,20.657 15.832,0.587 15.832,0.587 C16.116,0.219 16.554,0.004 17.018,0.004 C17.018,0.004 42.018,0.004 42.018,0.004 C45.205,0.004 48.000,2.575 48.000,5.505 C48.000,5.505 48.000,57.508 48.000,57.508 C48.000,60.438 45.205,63.009 42.018,63.009 ZM3.000,22.088 C3.000,22.088 3.000,57.508 3.000,57.508 C3.000,58.662 3.528,60.009 5.019,60.009 C5.019,60.009 42.018,60.009 42.018,60.009 C43.523,60.009 45.000,58.770 45.000,57.508 C45.000,57.508 45.000,5.505 45.000,5.505 C45.000,4.243 43.523,3.005 42.018,3.005 C42.018,3.005 17.755,3.005 17.755,3.005 C17.755,3.005 3.000,22.088 3.000,22.088 Z" id="path-3" class="cls-5" fill-rule="evenodd"/>
    <path d="M12.647,22.006 C12.647,22.006 1.871,22.006 1.871,22.006 C1.289,22.006 0.760,21.669 0.513,21.143 C0.266,20.616 0.346,19.994 0.718,19.547 C0.718,19.547 16.347,0.760 16.347,0.760 C16.752,0.274 17.421,0.095 18.010,0.309 C18.604,0.524 19.000,1.087 19.000,1.719 C19.000,1.719 19.000,16.025 19.000,16.025 C19.000,19.246 15.507,22.006 12.647,22.006 ZM5.070,19.006 C5.070,19.006 12.647,19.006 12.647,19.006 C14.089,19.006 16.000,17.306 16.000,16.025 C16.000,16.025 16.000,5.868 16.000,5.868 C16.000,5.868 5.070,19.006 5.070,19.006 Z" id="path-4" class="cls-5" fill-rule="evenodd"/>
    <path d="M27.476,56.671 C27.476,56.671 23.358,56.671 23.358,56.671 C22.764,56.671 22.340,56.538 22.085,56.270 C21.831,56.004 21.704,55.580 21.704,54.998 C21.704,54.998 21.704,44.868 21.704,44.868 C21.704,44.274 21.834,43.846 22.095,43.586 C22.354,43.326 22.776,43.195 23.358,43.195 C23.358,43.195 27.725,43.195 27.725,43.195 C28.367,43.195 28.925,43.235 29.396,43.315 C29.869,43.394 30.291,43.547 30.665,43.774 C30.983,43.965 31.266,44.205 31.511,44.496 C31.756,44.787 31.943,45.109 32.071,45.461 C32.200,45.813 32.265,46.185 32.265,46.578 C32.265,47.926 31.591,48.912 30.242,49.537 C32.014,50.102 32.898,51.198 32.898,52.828 C32.898,53.582 32.706,54.261 32.319,54.864 C31.934,55.468 31.413,55.914 30.757,56.202 C30.347,56.374 29.875,56.495 29.342,56.565 C28.809,56.635 28.186,56.671 27.476,56.671 ZM24.434,45.245 C24.434,45.245 24.434,48.729 24.434,48.729 C24.434,48.729 26.934,48.729 26.934,48.729 C27.614,48.729 28.140,48.664 28.510,48.535 C28.881,48.407 29.164,48.162 29.360,47.801 C29.514,47.543 29.590,47.255 29.590,46.936 C29.590,46.256 29.348,45.805 28.864,45.581 C28.380,45.357 27.642,45.245 26.648,45.245 C26.648,45.245 24.434,45.245 24.434,45.245 ZM27.273,50.687 C27.273,50.687 24.434,50.687 24.434,50.687 C24.434,50.687 24.434,54.621 24.434,54.621 C24.434,54.621 27.365,54.621 27.365,54.621 C29.210,54.621 30.132,53.955 30.132,52.626 C30.132,51.946 29.893,51.452 29.415,51.147 C28.937,50.840 28.224,50.687 27.273,50.687 Z" id="path-5" class="cls-4" fill-rule="evenodd"/>
    <path d="M37.577,53.279 C37.577,53.279 37.577,55.375 37.577,55.375 C37.577,55.883 37.458,56.264 37.219,56.519 C36.979,56.773 36.677,56.900 36.309,56.900 C35.947,56.900 35.650,56.772 35.417,56.514 C35.185,56.256 35.067,55.877 35.067,55.375 C35.067,55.375 35.067,48.389 35.067,48.389 C35.067,47.262 35.476,46.697 36.290,46.697 C36.707,46.697 37.007,46.829 37.191,47.093 C37.375,47.356 37.476,47.745 37.494,48.260 C37.795,47.745 38.103,47.356 38.418,47.093 C38.733,46.829 39.154,46.697 39.682,46.697 C40.209,46.697 40.721,46.829 41.217,47.093 C41.713,47.356 41.961,47.705 41.961,48.141 C41.961,48.447 41.855,48.699 41.644,48.898 C41.433,49.098 41.204,49.197 40.959,49.197 C40.867,49.197 40.645,49.141 40.293,49.027 C39.940,48.914 39.630,48.857 39.360,48.857 C38.992,48.857 38.692,48.954 38.459,49.147 C38.226,49.340 38.046,49.627 37.917,50.006 C37.788,50.387 37.699,50.838 37.650,51.363 C37.602,51.886 37.577,52.525 37.577,53.279 Z" id="path-6" class="cls-4" fill-rule="evenodd"/>
  </g>
</svg>
