<svg xmlns="http://www.w3.org/2000/svg" xmlns:xlink="http://www.w3.org/1999/xlink" preserveAspectRatio="xMidYMid" width="59" height="65" viewBox="0 0 59 65">
  <defs>
    <style>

      .cls-3 {
        fill: #ff917b;
      }

      .cls-4 {
        fill: #000000;
      }
    </style>
  </defs>
  <g id="group-43svg">
    <path d="M59.000,55.991 C59.000,60.409 55.418,63.991 51.000,63.991 C51.000,63.991 16.000,63.991 16.000,63.991 C11.581,63.991 8.000,60.409 8.000,55.991 C8.000,55.991 8.000,11.987 8.000,11.987 C8.000,7.569 11.581,3.987 16.000,3.987 C16.000,3.987 51.000,3.987 51.000,3.987 C55.418,3.987 59.000,7.569 59.000,11.987 C59.000,11.987 59.000,55.991 59.000,55.991 Z" id="path-1" class="cls-3" fill-rule="evenodd"/>
    <path d="M44.500,62.991 C44.500,62.991 9.500,62.991 9.500,62.991 C4.262,62.991 -0.000,58.729 -0.000,53.490 C-0.000,53.490 -0.000,9.487 -0.000,9.487 C-0.000,4.249 4.262,-0.013 9.500,-0.013 C9.500,-0.013 44.500,-0.013 44.500,-0.013 C49.738,-0.013 54.000,4.249 54.000,9.487 C54.000,9.487 54.000,53.490 54.000,53.490 C54.000,58.729 49.738,62.991 44.500,62.991 ZM9.500,2.987 C5.916,2.987 3.000,5.903 3.000,9.487 C3.000,9.487 3.000,53.490 3.000,53.490 C3.000,57.075 5.916,59.991 9.500,59.991 C9.500,59.991 44.500,59.991 44.500,59.991 C48.084,59.991 51.000,57.075 51.000,53.490 C51.000,53.490 51.000,9.487 51.000,9.487 C51.000,5.903 48.084,2.987 44.500,2.987 C44.500,2.987 9.500,2.987 9.500,2.987 Z" id="path-2" class="cls-4" fill-rule="evenodd"/>
    <path d="M4.000,50.990 C4.000,50.990 2.000,50.990 2.000,50.990 C1.171,50.990 0.500,50.318 0.500,49.490 C0.500,48.662 1.171,47.990 2.000,47.990 C2.000,47.990 4.000,47.990 4.000,47.990 C4.829,47.990 5.500,48.662 5.500,49.490 C5.500,50.318 4.829,50.990 4.000,50.990 Z" id="path-3" class="cls-4" fill-rule="evenodd"/>
    <path d="M50.000,50.990 C50.000,50.990 4.000,50.990 4.000,50.990 C3.170,50.990 2.500,50.320 2.500,49.490 C2.500,48.660 3.170,47.990 4.000,47.990 C4.000,47.990 50.000,47.990 50.000,47.990 C50.830,47.990 51.500,48.660 51.500,49.490 C51.500,50.320 50.830,50.990 50.000,50.990 Z" id="path-4" class="cls-4" fill-rule="evenodd"/>
    <path d="M52.000,50.990 C52.000,50.990 50.000,50.990 50.000,50.990 C49.171,50.990 48.500,50.318 48.500,49.490 C48.500,48.662 49.171,47.990 50.000,47.990 C50.000,47.990 52.000,47.990 52.000,47.990 C52.829,47.990 53.500,48.662 53.500,49.490 C53.500,50.318 52.829,50.990 52.000,50.990 Z" id="path-5" class="cls-4" fill-rule="evenodd"/>
    <path d="M46.000,14.988 C46.000,14.988 27.000,14.988 27.000,14.988 C26.171,14.988 25.500,14.316 25.500,13.488 C25.500,12.659 26.171,11.987 27.000,11.987 C27.000,11.987 46.000,11.987 46.000,11.987 C46.829,11.987 47.500,12.659 47.500,13.488 C47.500,14.316 46.829,14.988 46.000,14.988 Z" id="path-6" class="cls-4" fill-rule="evenodd"/>
    <path d="M46.000,20.988 C46.000,20.988 27.000,20.988 27.000,20.988 C26.171,20.988 25.500,20.316 25.500,19.488 C25.500,18.660 26.171,17.988 27.000,17.988 C27.000,17.988 46.000,17.988 46.000,17.988 C46.829,17.988 47.500,18.660 47.500,19.488 C47.500,20.316 46.829,20.988 46.000,20.988 Z" id="path-7" class="cls-4" fill-rule="evenodd"/>
  </g>
</svg>
