<svg xmlns="http://www.w3.org/2000/svg" xmlns:xlink="http://www.w3.org/1999/xlink" preserveAspectRatio="xMidYMid" width="51" height="66" viewBox="0 0 51 66">
  <defs>
    <style>

      .cls-3 {
        fill: #e56a77;
      }

      .cls-4 {
        fill: #53ecf4;
      }

      .cls-5 {
        fill: #000000;
      }
    </style>
  </defs>
  <g id="group-13svg">
    <path d="M34.024,64.995 C34.024,64.995 13.524,64.995 13.524,64.995 C9.124,64.995 6.000,60.895 6.000,56.495 C6.000,56.495 6.000,12.492 6.000,12.492 C6.000,8.091 9.124,4.991 13.524,4.991 C13.524,4.991 42.524,4.991 42.524,4.991 C46.942,4.991 51.000,8.073 51.000,12.492 C51.000,12.492 51.000,44.425 51.000,44.425 C51.000,44.425 34.024,64.995 34.024,64.995 Z" id="path-1" class="cls-3" fill-rule="evenodd"/>
    <path d="M49.338,45.994 C49.338,45.994 38.024,45.994 38.024,45.994 C35.815,45.994 34.000,47.785 34.000,49.994 C34.000,49.994 34.000,64.495 34.000,64.495 C34.000,64.495 49.338,45.994 49.338,45.994 Z" id="path-2" class="cls-4" fill-rule="evenodd"/>
    <path d="M30.524,62.995 C30.524,62.995 9.524,62.995 9.524,62.995 C4.272,62.995 -0.000,58.733 -0.000,53.495 C-0.000,53.495 -0.000,9.491 -0.000,9.491 C-0.000,4.253 4.272,-0.009 9.524,-0.009 C9.524,-0.009 38.524,-0.009 38.524,-0.009 C43.749,-0.009 48.000,4.253 48.000,9.491 C48.000,9.491 48.000,41.424 48.000,41.424 C48.000,41.764 47.885,42.093 47.673,42.359 C47.673,42.359 31.697,62.430 31.697,62.430 C31.413,62.787 30.981,62.995 30.524,62.995 ZM9.524,2.991 C5.927,2.991 3.000,5.907 3.000,9.491 C3.000,9.491 3.000,53.495 3.000,53.495 C3.000,57.079 5.927,59.995 9.524,59.995 C9.524,59.995 29.801,59.995 29.801,59.995 C29.801,59.995 45.000,40.900 45.000,40.900 C45.000,40.900 45.000,9.491 45.000,9.491 C45.000,5.907 42.095,2.991 38.524,2.991 C38.524,2.991 9.524,2.991 9.524,2.991 Z" id="path-3" class="cls-5" fill-rule="evenodd"/>
    <path d="M30.499,62.780 C30.333,62.780 30.164,62.753 30.001,62.694 C29.401,62.483 29.000,61.916 29.000,61.280 C29.000,61.280 29.000,46.975 29.000,46.975 C29.000,43.900 31.853,40.994 34.872,40.994 C34.872,40.994 45.647,40.994 45.647,40.994 C46.225,40.994 46.751,41.326 47.000,41.846 C47.250,42.368 47.178,42.986 46.815,43.435 C46.815,43.435 31.667,62.222 31.667,62.222 C31.377,62.582 30.945,62.780 30.499,62.780 ZM34.872,43.994 C33.530,43.994 32.000,45.582 32.000,46.975 C32.000,46.975 32.000,57.030 32.000,57.030 C32.000,57.030 42.511,43.994 42.511,43.994 C42.511,43.994 34.872,43.994 34.872,43.994 Z" id="path-4" class="cls-5" fill-rule="evenodd"/>
    <path d="M24.446,29.495 C23.617,29.495 22.946,28.823 22.946,27.995 C22.946,22.501 27.415,18.031 32.908,18.031 C37.878,18.031 42.124,21.741 42.783,26.662 C42.893,27.483 42.316,28.238 41.495,28.347 C40.670,28.464 39.919,27.882 39.809,27.060 C39.349,23.623 36.382,21.031 32.908,21.031 C29.069,21.031 25.946,24.156 25.946,27.995 C25.946,28.823 25.274,29.495 24.446,29.495 Z" id="path-5" class="cls-5" fill-rule="evenodd"/>
    <path d="M32.852,37.993 C32.849,37.993 32.846,37.993 32.842,37.993 C30.855,37.993 28.941,37.534 27.305,36.421 C26.621,35.954 26.443,35.096 26.910,34.410 C27.375,33.726 28.308,33.586 28.994,34.052 C30.135,34.831 31.473,35.265 32.863,35.275 C33.691,35.280 34.358,35.816 34.353,36.644 C34.347,37.469 33.676,37.993 32.852,37.993 ZM25.057,32.994 C24.463,32.994 23.901,32.640 23.665,32.055 C23.187,30.870 22.944,29.617 22.944,28.331 C22.944,28.331 24.445,28.275 24.445,28.275 C24.445,28.275 25.944,28.314 25.944,28.314 C25.944,29.230 26.113,30.106 26.447,30.932 C26.757,31.701 26.386,32.575 25.618,32.885 C25.434,32.959 25.244,32.994 25.057,32.994 Z" id="path-6" class="cls-5" fill-rule="evenodd"/>
    <path d="M41.332,24.786 C41.332,24.786 43.141,24.210 43.141,24.210 C43.570,24.073 44.027,24.415 43.997,24.864 C43.990,24.971 43.965,25.092 43.913,25.193 C43.913,25.193 42.265,28.381 42.265,28.381 C42.099,28.702 41.705,28.825 41.384,28.660 C41.384,28.660 38.194,27.008 38.194,27.008 C38.093,26.956 38.005,26.878 37.937,26.795 C37.653,26.447 37.828,25.902 38.257,25.766 C38.257,25.766 40.164,25.159 40.164,25.159 C40.164,25.159 41.332,24.786 41.332,24.786 Z" id="path-7" class="cls-5" fill-rule="evenodd"/>
  </g>
</svg>
