<svg xmlns="http://www.w3.org/2000/svg" xmlns:xlink="http://www.w3.org/1999/xlink" preserveAspectRatio="xMidYMid" width="59" height="66" viewBox="0 0 59 66">
  <defs>
    <style>

      .cls-3 {
        fill: #e56a77;
      }

      .cls-4 {
        fill: #000000;
      }

      .cls-11 {
        fill: #edc951;
      }
    </style>
  </defs>
  <g id="group-55svg">
    <path d="M59.000,56.999 C59.000,61.418 55.418,65.000 51.000,65.000 C51.000,65.000 15.000,65.000 15.000,65.000 C10.581,65.000 7.000,61.418 7.000,56.999 C7.000,56.999 7.000,12.996 7.000,12.996 C7.000,8.578 10.581,4.996 15.000,4.996 C15.000,4.996 51.000,4.996 51.000,4.996 C55.418,4.996 59.000,8.578 59.000,12.996 C59.000,12.996 59.000,56.999 59.000,56.999 Z" id="path-1" class="cls-3" fill-rule="evenodd"/>
    <path d="M45.500,63.000 C45.500,63.000 9.500,63.000 9.500,63.000 C4.262,63.000 -0.000,58.738 -0.000,53.499 C-0.000,53.499 -0.000,9.496 -0.000,9.496 C-0.000,4.257 4.262,-0.005 9.500,-0.005 C9.500,-0.005 45.500,-0.005 45.500,-0.005 C50.738,-0.005 55.000,4.257 55.000,9.496 C55.000,9.496 55.000,53.499 55.000,53.499 C55.000,58.738 50.738,63.000 45.500,63.000 ZM9.500,2.996 C5.916,2.996 3.000,5.912 3.000,9.496 C3.000,9.496 3.000,53.499 3.000,53.499 C3.000,57.083 5.916,60.000 9.500,60.000 C9.500,60.000 45.500,60.000 45.500,60.000 C49.084,60.000 52.000,57.083 52.000,53.499 C52.000,53.499 52.000,9.496 52.000,9.496 C52.000,5.912 49.084,2.996 45.500,2.996 C45.500,2.996 9.500,2.996 9.500,2.996 Z" id="path-2" class="cls-4" fill-rule="evenodd"/>
    <path d="M4.000,19.997 C4.000,19.997 2.000,19.997 2.000,19.997 C1.171,19.997 0.500,19.325 0.500,18.497 C0.500,17.669 1.171,16.997 2.000,16.997 C2.000,16.997 4.000,16.997 4.000,16.997 C4.829,16.997 5.500,17.669 5.500,18.497 C5.500,19.325 4.829,19.997 4.000,19.997 Z" id="path-3" class="cls-4" fill-rule="evenodd"/>
    <path d="M51.000,19.997 C51.000,19.997 4.000,19.997 4.000,19.997 C3.170,19.997 2.500,19.327 2.500,18.497 C2.500,17.667 3.170,16.997 4.000,16.997 C4.000,16.997 51.000,16.997 51.000,16.997 C51.830,16.997 52.500,17.667 52.500,18.497 C52.500,19.327 51.830,19.997 51.000,19.997 Z" id="path-4" class="cls-4" fill-rule="evenodd"/>
    <path d="M53.000,19.997 C53.000,19.997 51.000,19.997 51.000,19.997 C50.171,19.997 49.500,19.325 49.500,18.497 C49.500,17.669 50.171,16.997 51.000,16.997 C51.000,16.997 53.000,16.997 53.000,16.997 C53.829,16.997 54.500,17.669 54.500,18.497 C54.500,19.325 53.829,19.997 53.000,19.997 Z" id="path-5" class="cls-4" fill-rule="evenodd"/>
    <path d="M17.143,10.669 C17.143,12.080 15.999,13.225 14.587,13.225 C13.176,13.225 12.032,12.080 12.032,10.669 C12.032,9.257 13.176,8.113 14.587,8.113 C15.999,8.113 17.143,9.257 17.143,10.669 Z" id="path-6" class="cls-4" fill-rule="evenodd"/>
    <path d="M26.343,10.669 C26.343,12.080 25.199,13.225 23.788,13.225 C22.376,13.225 21.232,12.080 21.232,10.669 C21.232,9.257 22.376,8.113 23.788,8.113 C25.199,8.113 26.343,9.257 26.343,10.669 Z" id="path-7" class="cls-4" fill-rule="evenodd"/>
    <path d="M34.521,10.669 C34.521,12.080 33.376,13.225 31.965,13.225 C30.554,13.225 29.410,12.080 29.410,10.669 C29.410,9.257 30.554,8.113 31.965,8.113 C33.376,8.113 34.521,9.257 34.521,10.669 Z" id="path-8" class="cls-4" fill-rule="evenodd"/>
    <path d="M34.279,51.649 C33.552,51.649 32.913,51.119 32.799,50.378 C32.673,49.560 33.232,48.796 34.049,48.668 C34.048,48.668 34.048,48.668 34.048,48.668 C34.036,48.668 34.232,48.612 34.294,48.477 C34.321,48.420 34.530,47.872 33.737,46.365 C31.747,42.582 32.450,40.720 33.559,39.401 C32.241,38.069 31.455,36.246 33.370,32.606 C34.190,31.046 34.057,30.372 33.996,30.204 C33.944,30.058 33.848,30.004 33.810,29.988 C33.810,29.988 34.281,28.565 34.281,28.565 C34.281,28.565 34.683,27.119 34.683,27.119 C35.339,27.302 36.270,27.900 36.738,28.984 C37.314,30.319 37.075,32.007 36.025,34.003 C34.739,36.447 35.212,36.872 35.928,37.515 C35.976,37.559 36.024,37.602 36.071,37.645 C36.071,37.645 37.697,37.967 37.697,37.967 C38.421,38.110 38.933,38.759 38.904,39.496 C38.875,40.234 38.315,40.841 37.583,40.928 C37.583,40.928 36.051,41.111 36.051,41.111 C35.431,41.755 35.045,42.408 36.393,44.968 C37.419,46.920 37.613,48.557 36.969,49.837 C36.217,51.329 34.683,51.606 34.510,51.632 C34.433,51.644 34.355,51.649 34.279,51.649 Z" id="path-9" class="cls-11" fill-rule="evenodd"/>
    <path d="M22.006,51.649 C21.929,51.649 21.851,51.644 21.773,51.632 C21.601,51.606 20.066,51.329 19.314,49.837 C18.670,48.557 18.864,46.920 19.891,44.968 C21.238,42.408 20.852,41.755 20.232,41.111 C20.232,41.111 18.700,40.928 18.700,40.928 C17.967,40.841 17.407,40.234 17.378,39.496 C17.350,38.759 17.862,38.110 18.585,37.967 C18.585,37.967 20.212,37.645 20.212,37.645 C20.259,37.602 20.307,37.559 20.355,37.515 C21.071,36.872 21.544,36.447 20.258,34.003 C19.208,32.007 18.968,30.319 19.545,28.984 C20.013,27.900 20.944,27.302 21.600,27.119 C21.600,27.119 22.404,30.010 22.404,30.010 C22.404,30.010 22.474,29.988 22.474,29.988 C22.435,30.004 22.339,30.058 22.287,30.204 C22.226,30.372 22.092,31.046 22.913,32.606 C24.828,36.246 24.042,38.069 22.725,39.401 C23.832,40.720 24.536,42.582 22.546,46.365 C21.753,47.872 21.962,48.420 21.989,48.477 C22.055,48.621 22.273,48.674 22.275,48.675 C23.094,48.801 23.633,49.563 23.507,50.382 C23.393,51.123 22.736,51.649 22.006,51.649 Z" id="path-10" class="cls-11" fill-rule="evenodd"/>
  </g>
</svg>
