<svg xmlns="http://www.w3.org/2000/svg" xmlns:xlink="http://www.w3.org/1999/xlink" preserveAspectRatio="xMidYMid" width="50" height="66" viewBox="0 0 50 66">
  <defs>
    <style>

      .cls-3 {
        fill: #e56a77;
      }

      .cls-4 {
        fill: #53ecf4;
      }

      .cls-5 {
        fill: #000000;
      }
    </style>
  </defs>
  <g id="group-5svg">
    <path d="M33.577,65.018 C33.577,65.018 13.077,65.018 13.077,65.018 C8.677,65.018 5.000,60.917 5.000,56.517 C5.000,56.517 5.000,12.514 5.000,12.514 C5.000,8.114 8.677,5.014 13.077,5.014 C13.077,5.014 42.077,5.014 42.077,5.014 C46.495,5.014 50.000,8.095 50.000,12.514 C50.000,12.514 50.000,44.447 50.000,44.447 C50.000,44.447 33.577,65.018 33.577,65.018 Z" id="path-1" class="cls-3" fill-rule="evenodd"/>
    <path d="M48.891,46.016 C48.891,46.016 37.577,46.016 37.577,46.016 C35.368,46.016 34.000,47.808 34.000,50.017 C34.000,50.017 34.000,64.518 34.000,64.518 C34.000,64.518 48.891,46.016 48.891,46.016 Z" id="path-2" class="cls-4" fill-rule="evenodd"/>
    <path d="M30.077,63.018 C30.077,63.018 9.077,63.018 9.077,63.018 C3.987,63.018 -0.000,58.844 -0.000,53.517 C-0.000,53.517 -0.000,9.514 -0.000,9.514 C-0.000,4.186 3.987,0.013 9.077,0.013 C9.077,0.013 38.077,0.013 38.077,0.013 C43.456,0.013 48.000,4.364 48.000,9.514 C48.000,9.514 48.000,41.447 48.000,41.447 C48.000,41.794 47.880,42.128 47.661,42.397 C47.661,42.397 31.238,62.468 31.238,62.468 C30.953,62.815 30.527,63.018 30.077,63.018 ZM9.077,3.013 C5.613,3.013 3.000,5.808 3.000,9.514 C3.000,9.514 3.000,53.517 3.000,53.517 C3.000,57.223 5.613,60.017 9.077,60.017 C9.077,60.017 29.366,60.017 29.366,60.017 C29.366,60.017 45.000,40.912 45.000,40.912 C45.000,40.912 45.000,9.514 45.000,9.514 C45.000,6.051 41.765,3.013 38.077,3.013 C38.077,3.013 9.077,3.013 9.077,3.013 Z" id="path-3" class="cls-5" fill-rule="evenodd"/>
    <path d="M30.499,62.803 C30.336,62.803 30.171,62.776 30.011,62.721 C29.406,62.512 29.000,61.942 29.000,61.303 C29.000,61.303 29.000,46.997 29.000,46.997 C29.000,44.168 31.238,41.016 34.449,41.016 C34.449,41.016 45.225,41.016 45.225,41.016 C45.798,41.016 46.322,41.343 46.573,41.860 C46.825,42.376 46.759,42.990 46.405,43.442 C46.405,43.442 31.681,62.228 31.681,62.228 C31.391,62.598 30.952,62.803 30.499,62.803 ZM34.449,44.016 C33.092,44.016 32.000,45.647 32.000,46.997 C32.000,46.997 32.000,56.958 32.000,56.958 C32.000,56.958 42.143,44.016 42.143,44.016 C42.143,44.016 34.449,44.016 34.449,44.016 Z" id="path-4" class="cls-5" fill-rule="evenodd"/>
    <path d="M31.625,27.015 C31.608,27.015 31.592,27.015 31.575,27.015 C31.160,27.015 30.768,26.980 30.496,26.667 C30.496,26.667 26.652,22.347 26.652,22.347 C26.107,21.723 26.171,20.816 26.795,20.272 C27.419,19.728 28.367,19.812 28.912,20.436 C28.912,20.436 31.700,23.639 31.700,23.639 C31.700,23.639 38.316,17.028 38.316,17.028 C38.902,16.442 39.852,16.445 40.437,17.031 C41.023,17.617 41.023,18.567 40.437,19.153 C40.437,19.153 32.686,26.740 32.686,26.740 C32.404,27.022 32.022,27.015 31.625,27.015 Z" id="path-5" class="cls-5" fill-rule="evenodd"/>
  </g>
</svg>
