<svg xmlns="http://www.w3.org/2000/svg" xmlns:xlink="http://www.w3.org/1999/xlink" preserveAspectRatio="xMidYMid" width="52" height="66" viewBox="0 0 52 66">
  <defs>
    <style>

      .cls-3 {
        fill: #edc951;
      }

      .cls-4 {
        fill: #8b71b5;
      }

      .cls-5 {
        fill: #000000;
      }
    </style>
  </defs>
  <g id="group-65svg">
    <path d="M23.077,5.005 C23.077,5.005 47.577,5.005 47.577,5.005 C49.777,5.005 52.000,6.305 52.000,8.505 C52.000,8.505 52.000,60.509 52.000,60.509 C52.000,62.709 49.777,65.009 47.577,65.009 C47.577,65.009 10.577,65.009 10.577,65.009 C8.368,65.009 7.000,62.718 7.000,60.509 C7.000,60.509 7.000,24.575 7.000,24.575 C7.000,24.575 23.077,5.005 23.077,5.005 Z" id="path-1" class="cls-3" fill-rule="evenodd"/>
    <path d="M7.763,23.006 C7.763,23.006 19.077,23.006 19.077,23.006 C21.286,23.006 23.000,21.215 23.000,19.006 C23.000,19.006 23.000,4.505 23.000,4.505 C23.000,4.505 7.763,23.006 7.763,23.006 Z" id="path-2" class="cls-4" fill-rule="evenodd"/>
    <path d="M42.577,63.009 C42.577,63.009 5.577,63.009 5.577,63.009 C2.502,63.009 -0.000,60.541 -0.000,57.508 C-0.000,57.508 -0.000,21.575 -0.000,21.575 C-0.000,21.234 0.116,20.903 0.329,20.638 C0.329,20.638 16.406,0.567 16.406,0.567 C16.691,0.211 17.122,0.004 17.577,0.004 C17.577,0.004 42.577,0.004 42.577,0.004 C45.567,0.004 48.000,2.472 48.000,5.505 C48.000,5.505 48.000,57.508 48.000,57.508 C48.000,60.541 45.567,63.009 42.577,63.009 ZM3.000,22.102 C3.000,22.102 3.000,57.508 3.000,57.508 C3.000,58.864 4.180,60.009 5.577,60.009 C5.577,60.009 42.577,60.009 42.577,60.009 C43.936,60.009 45.000,58.911 45.000,57.508 C45.000,57.508 45.000,5.505 45.000,5.505 C45.000,4.102 43.936,3.005 42.577,3.005 C42.577,3.005 18.297,3.005 18.297,3.005 C18.297,3.005 3.000,22.102 3.000,22.102 Z" id="path-3" class="cls-5" fill-rule="evenodd"/>
    <path d="M13.206,22.006 C13.206,22.006 2.430,22.006 2.430,22.006 C1.853,22.006 1.327,21.675 1.077,21.154 C0.828,20.635 0.898,20.018 1.260,19.567 C1.260,19.567 16.330,0.781 16.330,0.781 C16.728,0.284 17.396,0.091 17.998,0.304 C18.598,0.515 19.000,1.083 19.000,1.719 C19.000,1.719 19.000,16.025 19.000,16.025 C19.000,19.100 16.184,22.006 13.206,22.006 ZM5.556,19.006 C5.556,19.006 13.206,19.006 13.206,19.006 C14.538,19.006 16.000,17.446 16.000,16.025 C16.000,16.025 16.000,5.986 16.000,5.986 C16.000,5.986 5.556,19.006 5.556,19.006 Z" id="path-4" class="cls-5" fill-rule="evenodd"/>
    <path d="M24.619,56.413 C24.619,56.413 24.619,45.796 24.619,45.796 C24.619,45.244 24.744,44.831 24.995,44.554 C25.247,44.279 25.571,44.141 25.970,44.141 C26.380,44.141 26.712,44.278 26.967,44.550 C27.221,44.823 27.348,45.238 27.348,45.796 C27.348,45.796 27.348,56.413 27.348,56.413 C27.348,56.970 27.221,57.387 26.967,57.663 C26.712,57.938 26.380,58.076 25.970,58.076 C25.577,58.076 25.254,57.936 25.000,57.658 C24.746,57.380 24.619,56.963 24.619,56.413 Z" id="path-5" class="cls-4" fill-rule="evenodd"/>
    <path d="M32.091,44.371 C32.091,44.371 35.648,44.371 35.648,44.371 C36.573,44.371 37.367,44.457 38.028,44.629 C38.690,44.800 39.291,45.122 39.830,45.594 C41.233,46.795 41.935,48.621 41.935,51.072 C41.935,51.881 41.864,52.619 41.723,53.287 C41.582,53.955 41.365,54.557 41.071,55.093 C40.777,55.629 40.400,56.109 39.940,56.532 C39.579,56.857 39.184,57.118 38.754,57.313 C38.326,57.509 37.864,57.647 37.371,57.727 C36.878,57.806 36.322,57.846 35.703,57.846 C35.703,57.846 32.146,57.846 32.146,57.846 C31.650,57.846 31.276,57.771 31.025,57.622 C30.773,57.471 30.609,57.259 30.533,56.987 C30.456,56.714 30.418,56.360 30.418,55.925 C30.418,55.925 30.418,46.044 30.418,46.044 C30.418,45.456 30.550,45.030 30.813,44.766 C31.077,44.503 31.503,44.371 32.091,44.371 ZM33.148,46.531 C33.148,46.531 33.148,55.677 33.148,55.677 C33.148,55.677 35.216,55.677 35.216,55.677 C35.669,55.677 36.025,55.665 36.282,55.640 C36.540,55.616 36.806,55.555 37.081,55.457 C37.357,55.359 37.597,55.221 37.799,55.043 C38.711,54.271 39.168,52.941 39.168,51.054 C39.168,49.724 38.967,48.729 38.566,48.066 C38.164,47.404 37.670,46.983 37.081,46.803 C36.494,46.622 35.783,46.531 34.949,46.531 C34.949,46.531 33.148,46.531 33.148,46.531 Z" id="path-6" class="cls-4" fill-rule="evenodd"/>
  </g>
</svg>
