<svg xmlns="http://www.w3.org/2000/svg" xmlns:xlink="http://www.w3.org/1999/xlink" preserveAspectRatio="xMidYMid" width="51" height="66" viewBox="0 0 51 66">
  <defs>
    <style>

      .cls-3 {
        fill: #e56a77;
      }

      .cls-4 {
        fill: #53ecf4;
      }

      .cls-5 {
        fill: #000000;
      }

      .cls-7 {
        fill: #ffffff;
      }
    </style>
  </defs>
  <g id="group-30svg">
    <path d="M34.028,65.004 C34.028,65.004 13.528,65.004 13.528,65.004 C9.129,65.004 6.000,60.904 6.000,56.503 C6.000,56.503 6.000,12.500 6.000,12.500 C6.000,8.100 9.129,5.000 13.528,5.000 C13.528,5.000 42.528,5.000 42.528,5.000 C46.947,5.000 51.000,8.082 51.000,12.500 C51.000,12.500 51.000,44.433 51.000,44.433 C51.000,44.433 34.028,65.004 34.028,65.004 Z" id="path-1" class="cls-3" fill-rule="evenodd"/>
    <path d="M49.343,46.003 C49.343,46.003 38.028,46.003 38.028,46.003 C35.819,46.003 34.000,47.794 34.000,50.003 C34.000,50.003 34.000,64.504 34.000,64.504 C34.000,64.504 49.343,46.003 49.343,46.003 Z" id="path-2" class="cls-4" fill-rule="evenodd"/>
    <path d="M30.528,63.004 C30.528,63.004 9.528,63.004 9.528,63.004 C4.274,63.004 -0.000,58.742 -0.000,53.503 C-0.000,53.503 -0.000,9.500 -0.000,9.500 C-0.000,4.262 4.274,-0.000 9.528,-0.000 C9.528,-0.000 38.528,-0.000 38.528,-0.000 C43.751,-0.000 48.000,4.262 48.000,9.500 C48.000,9.500 48.000,41.433 48.000,41.433 C48.000,41.772 47.885,42.102 47.674,42.367 C47.674,42.367 31.702,62.437 31.702,62.437 C31.417,62.796 30.985,63.004 30.528,63.004 ZM9.528,3.000 C5.929,3.000 3.000,5.916 3.000,9.500 C3.000,9.500 3.000,53.503 3.000,53.503 C3.000,57.088 5.929,60.004 9.528,60.004 C9.528,60.004 29.805,60.004 29.805,60.004 C29.805,60.004 45.000,40.909 45.000,40.909 C45.000,40.909 45.000,9.500 45.000,9.500 C45.000,5.916 42.097,3.000 38.528,3.000 C38.528,3.000 9.528,3.000 9.528,3.000 Z" id="path-3" class="cls-5" fill-rule="evenodd"/>
    <path d="M30.500,62.789 C30.333,62.789 30.164,62.761 30.000,62.703 C29.400,62.491 29.000,61.925 29.000,61.289 C29.000,61.289 29.000,46.983 29.000,46.983 C29.000,43.909 31.867,41.002 34.900,41.002 C34.900,41.002 45.676,41.002 45.676,41.002 C46.254,41.002 46.780,41.334 47.029,41.856 C47.278,42.377 47.206,42.996 46.843,43.445 C46.843,43.445 31.667,62.231 31.667,62.231 C31.376,62.591 30.944,62.789 30.500,62.789 ZM34.900,44.003 C33.545,44.003 32.000,45.591 32.000,46.983 C32.000,46.983 32.000,57.045 32.000,57.045 C32.000,57.045 42.536,44.003 42.536,44.003 C42.536,44.003 34.900,44.003 34.900,44.003 Z" id="path-4" class="cls-5" fill-rule="evenodd"/>
    <path d="M43.643,26.677 C44.028,26.954 44.028,27.524 43.643,27.801 C41.871,29.078 37.410,32.083 34.699,32.083 C31.988,32.083 27.527,29.078 25.756,27.801 C25.371,27.524 25.371,26.954 25.756,26.677 C27.527,25.401 31.988,22.396 34.699,22.396 C37.410,22.396 41.871,25.401 43.643,26.677 Z" id="path-5" class="cls-7" fill-rule="evenodd"/>
    <path d="M33.164,32.815 C30.132,32.815 25.710,29.956 23.344,28.251 C22.772,27.839 22.433,27.174 22.433,26.471 C22.433,25.769 22.772,25.104 23.344,24.693 C25.710,22.987 30.132,20.128 33.164,20.128 C36.194,20.128 40.618,22.987 42.985,24.693 C43.557,25.104 43.896,25.769 43.896,26.471 C43.896,27.174 43.557,27.839 42.985,28.251 C40.618,29.956 36.194,32.815 33.164,32.815 ZM26.030,26.472 C29.075,28.551 31.754,29.815 33.164,29.815 C34.573,29.815 37.252,28.551 40.298,26.471 C37.253,24.392 34.573,23.128 33.164,23.128 C31.754,23.128 29.075,24.392 26.030,26.472 Z" id="path-6" class="cls-5" fill-rule="evenodd"/>
    <path d="M33.164,31.258 C30.525,31.258 28.379,29.111 28.379,26.472 C28.379,23.833 30.525,21.686 33.164,21.686 C35.803,21.686 37.950,23.833 37.950,26.472 C37.950,29.111 35.803,31.258 33.164,31.258 ZM33.164,24.686 C32.180,24.686 31.379,25.487 31.379,26.472 C31.379,27.456 32.180,28.257 33.164,28.257 C34.149,28.257 34.950,27.456 34.950,26.472 C34.950,25.487 34.149,24.686 33.164,24.686 Z" id="path-7" class="cls-5" fill-rule="evenodd"/>
  </g>
</svg>
