<svg xmlns="http://www.w3.org/2000/svg" xmlns:xlink="http://www.w3.org/1999/xlink" preserveAspectRatio="xMidYMid" width="51" height="66" viewBox="0 0 51 66">
  <defs>
    <style>

      .cls-3 {
        fill: #e56a77;
      }

      .cls-4 {
        fill: #53ecf4;
      }

      .cls-5 {
        fill: #000000;
      }

      .cls-7 {
        fill: #ffffff;
      }
    </style>
  </defs>
  <g id="group-10svg">
    <path d="M34.028,65.018 C34.028,65.018 13.528,65.018 13.528,65.018 C9.129,65.018 6.000,60.917 6.000,56.517 C6.000,56.517 6.000,12.514 6.000,12.514 C6.000,8.114 9.129,5.014 13.528,5.014 C13.528,5.014 42.528,5.014 42.528,5.014 C46.947,5.014 51.000,8.095 51.000,12.514 C51.000,12.514 51.000,44.447 51.000,44.447 C51.000,44.447 34.028,65.018 34.028,65.018 Z" id="path-1" class="cls-3" fill-rule="evenodd"/>
    <path d="M49.343,46.016 C49.343,46.016 38.028,46.016 38.028,46.016 C35.819,46.016 34.000,47.808 34.000,50.017 C34.000,50.017 34.000,64.518 34.000,64.518 C34.000,64.518 49.343,46.016 49.343,46.016 Z" id="path-2" class="cls-4" fill-rule="evenodd"/>
    <path d="M30.528,63.018 C30.528,63.018 9.528,63.018 9.528,63.018 C4.274,63.018 -0.000,58.756 -0.000,53.517 C-0.000,53.517 -0.000,9.514 -0.000,9.514 C-0.000,4.275 4.274,0.013 9.528,0.013 C9.528,0.013 38.528,0.013 38.528,0.013 C43.751,0.013 48.000,4.275 48.000,9.514 C48.000,9.514 48.000,41.447 48.000,41.447 C48.000,41.786 47.885,42.116 47.674,42.380 C47.674,42.380 31.702,62.451 31.702,62.451 C31.417,62.810 30.985,63.018 30.528,63.018 ZM9.528,3.013 C5.929,3.013 3.000,5.930 3.000,9.514 C3.000,9.514 3.000,53.517 3.000,53.517 C3.000,57.101 5.929,60.017 9.528,60.017 C9.528,60.017 29.805,60.017 29.805,60.017 C29.805,60.017 45.000,40.922 45.000,40.922 C45.000,40.922 45.000,9.514 45.000,9.514 C45.000,5.930 42.097,3.013 38.528,3.013 C38.528,3.013 9.528,3.013 9.528,3.013 Z" id="path-3" class="cls-5" fill-rule="evenodd"/>
    <path d="M30.500,62.803 C30.333,62.803 30.164,62.774 30.000,62.717 C29.400,62.505 29.000,61.938 29.000,61.303 C29.000,61.303 29.000,46.997 29.000,46.997 C29.000,43.923 31.867,41.016 34.900,41.016 C34.900,41.016 45.676,41.016 45.676,41.016 C46.254,41.016 46.780,41.348 47.029,41.870 C47.278,42.391 47.206,43.009 46.843,43.459 C46.843,43.459 31.667,62.245 31.667,62.245 C31.376,62.605 30.944,62.803 30.500,62.803 ZM34.900,44.016 C33.545,44.016 32.000,45.604 32.000,46.997 C32.000,46.997 32.000,57.058 32.000,57.058 C32.000,57.058 42.536,44.016 42.536,44.016 C42.536,44.016 34.900,44.016 34.900,44.016 Z" id="path-4" class="cls-5" fill-rule="evenodd"/>
    <path d="M39.448,22.756 C41.989,25.297 41.989,29.417 39.448,31.958 C36.907,34.499 32.787,34.499 30.246,31.958 C27.706,29.417 27.706,25.297 30.246,22.756 C32.787,20.214 36.907,20.214 39.448,22.756 Z" id="path-5" class="cls-7" fill-rule="evenodd"/>
    <path d="M31.848,34.364 C29.709,34.364 27.698,33.531 26.187,32.018 C23.064,28.896 23.064,23.817 26.187,20.694 C27.698,19.183 29.709,18.349 31.848,18.349 C33.986,18.349 35.996,19.183 37.509,20.694 C40.631,23.817 40.631,28.896 37.509,32.018 C35.997,33.531 33.986,34.364 31.848,34.364 ZM31.848,21.350 C30.510,21.350 29.253,21.870 28.308,22.816 C26.355,24.768 26.355,27.945 28.308,29.897 C29.253,30.843 30.510,31.364 31.848,31.364 C33.185,31.364 34.442,30.843 35.388,29.897 C37.340,27.945 37.340,24.768 35.388,22.816 C34.442,21.870 33.185,21.350 31.848,21.350 Z" id="path-6" class="cls-5" fill-rule="evenodd"/>
    <path d="M42.422,38.425 C42.038,38.425 41.654,38.279 41.361,37.986 C41.361,37.986 37.026,33.649 37.026,33.649 C36.440,33.063 36.440,32.114 37.026,31.528 C37.612,30.942 38.561,30.942 39.147,31.528 C39.147,31.528 43.482,35.864 43.482,35.864 C44.068,36.450 44.068,37.400 43.482,37.986 C43.189,38.279 42.806,38.425 42.422,38.425 Z" id="path-7" class="cls-5" fill-rule="evenodd"/>
  </g>
</svg>
