<svg xmlns="http://www.w3.org/2000/svg" xmlns:xlink="http://www.w3.org/1999/xlink" preserveAspectRatio="xMidYMid" width="58" height="66" viewBox="0 0 58 66">
  <defs>
    <style>

      .cls-3 {
        fill: #edc951;
      }

      .cls-4 {
        fill: #8b71b5;
      }

      .cls-5 {
        fill: #000000;
      }
    </style>
  </defs>
  <g id="group-93svg">
    <path d="M23.165,5.000 C23.165,5.000 47.665,5.000 47.665,5.000 C49.864,5.000 52.000,6.300 52.000,8.501 C52.000,8.501 52.000,60.504 52.000,60.504 C52.000,62.705 49.864,65.005 47.665,65.005 C47.665,65.005 10.664,65.005 10.664,65.005 C8.456,65.005 7.000,62.713 7.000,60.504 C7.000,60.504 7.000,24.571 7.000,24.571 C7.000,24.571 23.165,5.000 23.165,5.000 Z" id="path-1" class="cls-3" fill-rule="evenodd"/>
    <path d="M7.850,23.002 C7.850,23.002 19.165,23.002 19.165,23.002 C21.374,23.002 23.000,21.211 23.000,19.001 C23.000,19.001 23.000,4.500 23.000,4.500 C23.000,4.500 7.850,23.002 7.850,23.002 Z" id="path-2" class="cls-4" fill-rule="evenodd"/>
    <path d="M42.665,63.004 C42.665,63.004 5.665,63.004 5.665,63.004 C2.594,63.004 0.000,60.486 0.000,57.504 C0.000,57.504 0.000,21.571 0.000,21.571 C0.000,21.228 0.117,20.896 0.332,20.630 C0.332,20.630 16.497,0.560 16.497,0.560 C16.781,0.206 17.210,0.000 17.664,0.000 C17.664,0.000 42.665,0.000 42.665,0.000 C45.656,0.000 48.000,2.416 48.000,5.500 C48.000,5.500 48.000,57.504 48.000,57.504 C48.000,60.588 45.656,63.004 42.665,63.004 ZM3.000,22.100 C3.000,22.100 3.000,57.504 3.000,57.504 C3.000,58.836 4.245,60.004 5.665,60.004 C5.665,60.004 42.665,60.004 42.665,60.004 C43.996,60.004 45.000,58.929 45.000,57.504 C45.000,57.504 45.000,5.500 45.000,5.500 C45.000,4.075 43.996,3.000 42.665,3.000 C42.665,3.000 18.382,3.000 18.382,3.000 C18.382,3.000 3.000,22.100 3.000,22.100 Z" id="path-3" class="cls-5" fill-rule="evenodd"/>
    <path d="M13.293,22.002 C13.293,22.002 2.517,22.002 2.517,22.002 C1.941,22.002 1.416,21.671 1.165,21.152 C0.915,20.633 0.985,20.017 1.344,19.566 C1.344,19.566 16.327,0.779 16.327,0.779 C16.725,0.281 17.392,0.089 17.996,0.299 C18.597,0.510 19.000,1.077 19.000,1.715 C19.000,1.715 19.000,16.021 19.000,16.021 C19.000,19.151 16.280,22.002 13.293,22.002 ZM5.632,19.001 C5.632,19.001 13.293,19.001 13.293,19.001 C14.608,19.001 16.000,17.469 16.000,16.021 C16.000,16.021 16.000,6.001 16.000,6.001 C16.000,6.001 5.632,19.001 5.632,19.001 Z" id="path-4" class="cls-5" fill-rule="evenodd"/>
    <path d="M56.000,37.003 C56.000,39.212 54.209,41.003 52.000,41.003 C52.000,41.003 33.000,41.003 33.000,41.003 C30.791,41.003 29.000,39.212 29.000,37.003 C29.000,37.003 29.000,28.002 29.000,28.002 C29.000,25.793 30.791,24.002 33.000,24.002 C33.000,24.002 52.000,24.002 52.000,24.002 C54.209,24.002 56.000,25.793 56.000,28.002 C56.000,28.002 56.000,37.003 56.000,37.003 Z" id="path-5" class="cls-4" fill-rule="evenodd"/>
    <path d="M52.500,42.003 C52.500,42.003 33.500,42.003 33.500,42.003 C30.467,42.003 28.000,39.535 28.000,36.503 C28.000,36.503 28.000,27.502 28.000,27.502 C28.000,24.470 30.467,22.002 33.500,22.002 C33.500,22.002 52.500,22.002 52.500,22.002 C55.533,22.002 58.000,24.470 58.000,27.502 C58.000,27.502 58.000,36.503 58.000,36.503 C58.000,39.535 55.533,42.003 52.500,42.003 ZM33.500,25.002 C32.122,25.002 31.000,26.123 31.000,27.502 C31.000,27.502 31.000,36.503 31.000,36.503 C31.000,37.882 32.122,39.003 33.500,39.003 C33.500,39.003 52.500,39.003 52.500,39.003 C53.878,39.003 55.000,37.882 55.000,36.503 C55.000,36.503 55.000,27.502 55.000,27.502 C55.000,26.123 53.878,25.002 52.500,25.002 C52.500,25.002 33.500,25.002 33.500,25.002 Z" id="path-6" class="cls-5" fill-rule="evenodd"/>
    <path d="M41.266,33.079 C41.266,33.079 41.266,34.451 41.266,34.451 C41.266,34.633 41.248,34.779 41.212,34.887 C41.176,34.997 41.110,35.095 41.014,35.183 C40.918,35.271 40.795,35.356 40.645,35.437 C40.212,35.671 39.796,35.842 39.395,35.950 C38.995,36.057 38.559,36.111 38.087,36.111 C37.537,36.111 37.036,36.026 36.583,35.857 C36.130,35.688 35.745,35.442 35.426,35.120 C35.107,34.797 34.862,34.407 34.691,33.948 C34.520,33.489 34.435,32.976 34.435,32.410 C34.435,31.853 34.518,31.343 34.684,30.881 C34.850,30.419 35.094,30.027 35.416,29.704 C35.738,29.382 36.130,29.135 36.593,28.965 C37.055,28.793 37.579,28.708 38.165,28.708 C38.647,28.708 39.073,28.773 39.444,28.901 C39.815,29.029 40.117,29.192 40.348,29.387 C40.579,29.582 40.753,29.789 40.870,30.007 C40.987,30.225 41.046,30.419 41.046,30.588 C41.046,30.771 40.978,30.926 40.843,31.055 C40.708,31.183 40.546,31.247 40.357,31.247 C40.253,31.247 40.153,31.223 40.057,31.174 C39.961,31.125 39.880,31.057 39.815,30.969 C39.636,30.689 39.485,30.478 39.361,30.334 C39.238,30.191 39.071,30.071 38.861,29.973 C38.651,29.875 38.383,29.826 38.058,29.826 C37.722,29.826 37.423,29.884 37.159,30.000 C36.895,30.115 36.670,30.283 36.483,30.502 C36.296,30.723 36.152,30.992 36.053,31.311 C35.954,31.630 35.904,31.983 35.904,32.370 C35.904,33.210 36.097,33.857 36.483,34.309 C36.869,34.761 37.407,34.988 38.097,34.988 C38.432,34.988 38.747,34.944 39.041,34.856 C39.336,34.768 39.635,34.643 39.937,34.480 C39.937,34.480 39.937,33.318 39.937,33.318 C39.937,33.318 38.814,33.318 38.814,33.318 C38.544,33.318 38.340,33.277 38.202,33.196 C38.063,33.115 37.994,32.976 37.994,32.781 C37.994,32.621 38.052,32.490 38.167,32.385 C38.283,32.281 38.440,32.229 38.639,32.229 C38.639,32.229 40.284,32.229 40.284,32.229 C40.486,32.229 40.657,32.246 40.797,32.283 C40.937,32.319 41.050,32.398 41.136,32.522 C41.223,32.646 41.266,32.831 41.266,33.079 Z" id="path-7" class="cls-3" fill-rule="evenodd"/>
    <path d="M42.706,35.227 C42.706,35.227 42.706,29.587 42.706,29.587 C42.706,29.294 42.773,29.074 42.906,28.928 C43.040,28.781 43.212,28.708 43.424,28.708 C43.642,28.708 43.818,28.780 43.954,28.926 C44.089,29.070 44.156,29.291 44.156,29.587 C44.156,29.587 44.156,35.227 44.156,35.227 C44.156,35.523 44.089,35.745 43.954,35.891 C43.818,36.038 43.642,36.111 43.424,36.111 C43.215,36.111 43.044,36.037 42.909,35.889 C42.773,35.741 42.706,35.520 42.706,35.227 Z" id="path-8" class="cls-3" fill-rule="evenodd"/>
    <path d="M50.055,29.948 C50.055,29.948 47.198,29.948 47.198,29.948 C47.198,29.948 47.198,31.780 47.198,31.780 C47.198,31.780 49.586,31.780 49.586,31.780 C49.807,31.780 49.973,31.829 50.081,31.928 C50.190,32.028 50.245,32.160 50.245,32.326 C50.245,32.492 50.190,32.624 50.079,32.722 C49.968,32.820 49.804,32.869 49.586,32.869 C49.586,32.869 47.198,32.869 47.198,32.869 C47.198,32.869 47.198,35.227 47.198,35.227 C47.198,35.527 47.131,35.749 46.996,35.893 C46.860,36.039 46.687,36.111 46.476,36.111 C46.261,36.111 46.086,36.038 45.951,35.891 C45.815,35.745 45.748,35.523 45.748,35.227 C45.748,35.227 45.748,29.719 45.748,29.719 C45.748,29.511 45.779,29.340 45.841,29.209 C45.903,29.076 46.000,28.981 46.131,28.920 C46.263,28.860 46.432,28.830 46.637,28.830 C46.637,28.830 50.055,28.830 50.055,28.830 C50.286,28.830 50.458,28.881 50.570,28.984 C50.682,29.086 50.738,29.221 50.738,29.387 C50.738,29.556 50.682,29.692 50.570,29.795 C50.458,29.897 50.286,29.948 50.055,29.948 Z" id="path-9" class="cls-3" fill-rule="evenodd"/>
  </g>
</svg>
