<svg xmlns="http://www.w3.org/2000/svg" xmlns:xlink="http://www.w3.org/1999/xlink" preserveAspectRatio="xMidYMid" width="50" height="66" viewBox="0 0 50 66">
  <defs>
    <style>

      .cls-3 {
        fill: #e56a77;
      }

      .cls-4 {
        fill: #53ecf4;
      }

      .cls-5 {
        fill: #000000;
      }

      .cls-9 {
        fill: #ffffff;
      }
    </style>
  </defs>
  <g id="group-28svg">
    <path d="M33.538,65.004 C33.538,65.004 13.038,65.004 13.038,65.004 C8.639,65.004 5.000,60.904 5.000,56.503 C5.000,56.503 5.000,12.500 5.000,12.500 C5.000,8.100 8.639,5.000 13.038,5.000 C13.038,5.000 42.038,5.000 42.038,5.000 C46.457,5.000 50.000,8.082 50.000,12.500 C50.000,12.500 50.000,44.433 50.000,44.433 C50.000,44.433 33.538,65.004 33.538,65.004 Z" id="path-1" class="cls-3" fill-rule="evenodd"/>
    <path d="M48.853,46.003 C48.853,46.003 37.538,46.003 37.538,46.003 C35.329,46.003 34.000,47.794 34.000,50.003 C34.000,50.003 34.000,64.504 34.000,64.504 C34.000,64.504 48.853,46.003 48.853,46.003 Z" id="path-2" class="cls-4" fill-rule="evenodd"/>
    <path d="M30.038,63.004 C30.038,63.004 9.038,63.004 9.038,63.004 C3.970,63.004 -0.000,58.831 -0.000,53.503 C-0.000,53.503 -0.000,9.500 -0.000,9.500 C-0.000,4.173 3.970,-0.000 9.038,-0.000 C9.038,-0.000 38.038,-0.000 38.038,-0.000 C43.438,-0.000 48.000,4.350 48.000,9.500 C48.000,9.500 48.000,41.433 48.000,41.433 C48.000,41.780 47.880,42.116 47.660,42.384 C47.660,42.384 31.198,62.455 31.198,62.455 C30.913,62.803 30.487,63.004 30.038,63.004 ZM9.038,3.000 C5.596,3.000 3.000,5.794 3.000,9.500 C3.000,9.500 3.000,53.503 3.000,53.503 C3.000,57.210 5.596,60.004 9.038,60.004 C9.038,60.004 29.328,60.004 29.328,60.004 C29.328,60.004 45.000,40.897 45.000,40.897 C45.000,40.897 45.000,9.500 45.000,9.500 C45.000,6.037 41.747,3.000 38.038,3.000 C38.038,3.000 9.038,3.000 9.038,3.000 Z" id="path-3" class="cls-5" fill-rule="evenodd"/>
    <path d="M30.500,62.789 C30.337,62.789 30.172,62.763 30.012,62.707 C29.406,62.499 29.000,61.929 29.000,61.289 C29.000,61.289 29.000,46.983 29.000,46.983 C29.000,44.154 31.222,41.002 34.410,41.002 C34.410,41.002 45.186,41.002 45.186,41.002 C45.759,41.002 46.282,41.330 46.534,41.845 C46.785,42.361 46.721,42.974 46.367,43.426 C46.367,43.426 31.682,62.213 31.682,62.213 C31.392,62.584 30.952,62.789 30.500,62.789 ZM34.410,44.003 C33.075,44.003 32.000,45.634 32.000,46.983 C32.000,46.983 32.000,56.934 32.000,56.934 C32.000,56.934 42.109,44.003 42.109,44.003 C42.109,44.003 34.410,44.003 34.410,44.003 Z" id="path-4" class="cls-5" fill-rule="evenodd"/>
    <path d="M29.627,23.813 C28.881,23.813 28.234,23.257 28.141,22.498 C28.038,21.676 28.622,20.926 29.443,20.824 C29.443,20.824 40.216,19.484 40.216,19.484 C41.050,19.378 41.788,19.966 41.890,20.787 C41.992,21.609 41.408,22.359 40.587,22.461 C40.587,22.461 29.814,23.801 29.814,23.801 C29.751,23.809 29.688,23.813 29.627,23.813 Z" id="path-5" class="cls-5" fill-rule="evenodd"/>
    <path d="M34.146,23.251 C33.814,23.251 33.490,23.141 33.226,22.935 C32.911,22.691 32.707,22.331 32.658,21.937 C32.658,21.937 32.398,19.851 32.398,19.851 C32.296,19.029 32.879,18.280 33.701,18.178 C33.701,18.178 35.438,17.961 35.438,17.961 C35.832,17.911 36.231,18.021 36.545,18.265 C36.859,18.510 37.063,18.869 37.112,19.264 C37.112,19.264 37.372,21.349 37.372,21.349 C37.475,22.171 36.892,22.920 36.069,23.023 C36.069,23.023 34.332,23.239 34.332,23.239 C34.270,23.247 34.208,23.251 34.146,23.251 Z" id="path-6" class="cls-5" fill-rule="evenodd"/>
    <path d="M32.400,27.001 C32.400,27.001 32.462,34.341 32.462,34.341 C32.478,36.328 34.094,38.002 36.080,38.002 C36.080,38.002 39.685,38.002 39.685,38.002 C41.670,38.002 43.285,36.330 43.303,34.344 C43.303,34.344 43.369,27.001 43.369,27.001 C43.369,27.001 32.400,27.001 32.400,27.001 Z" id="path-7" class="cls-9" fill-rule="evenodd"/>
    <path d="M36.685,39.002 C36.685,39.002 33.080,39.002 33.080,39.002 C30.281,39.002 27.985,36.693 27.962,33.854 C27.962,33.854 27.901,26.514 27.901,26.514 C27.898,26.114 28.055,25.729 28.336,25.445 C28.618,25.161 29.001,25.001 29.401,25.001 C29.401,25.001 40.369,25.001 40.369,25.001 C40.769,25.001 41.153,25.161 41.435,25.446 C41.716,25.730 41.873,26.115 41.869,26.515 C41.869,26.515 41.803,33.857 41.803,33.857 C41.777,36.694 39.481,39.002 36.685,39.002 ZM30.914,28.001 C30.914,28.001 30.962,33.829 30.962,33.829 C30.972,35.007 31.941,36.002 33.080,36.002 C33.080,36.002 36.685,36.002 36.685,36.002 C37.822,36.002 38.792,35.008 38.803,33.830 C38.803,33.830 38.855,28.001 38.855,28.001 C38.855,28.001 30.914,28.001 30.914,28.001 Z" id="path-8" class="cls-5" fill-rule="evenodd"/>
  </g>
</svg>
