<svg xmlns="http://www.w3.org/2000/svg" xmlns:xlink="http://www.w3.org/1999/xlink" preserveAspectRatio="xMidYMid" width="62" height="66" viewBox="0 0 62 66">
  <defs>
    <style>

      .cls-3 {
        fill: #edc951;
      }

      .cls-4 {
        fill: #8b71b5;
      }

      .cls-5 {
        fill: #000000;
      }
    </style>
  </defs>
  <g id="group-99svg">
    <path d="M23.028,5.000 C23.028,5.000 47.528,5.000 47.528,5.000 C49.728,5.000 52.000,6.300 52.000,8.501 C52.000,8.501 52.000,60.504 52.000,60.504 C52.000,62.705 49.728,65.005 47.528,65.005 C47.528,65.005 10.528,65.005 10.528,65.005 C8.319,65.005 7.000,62.713 7.000,60.504 C7.000,60.504 7.000,24.571 7.000,24.571 C7.000,24.571 23.028,5.000 23.028,5.000 Z" id="path-1" class="cls-3" fill-rule="evenodd"/>
    <path d="M7.715,23.002 C7.715,23.002 19.028,23.002 19.028,23.002 C21.238,23.002 23.000,21.211 23.000,19.001 C23.000,19.001 23.000,4.500 23.000,4.500 C23.000,4.500 7.715,23.002 7.715,23.002 Z" id="path-2" class="cls-4" fill-rule="evenodd"/>
    <path d="M42.528,63.004 C42.528,63.004 5.528,63.004 5.528,63.004 C2.480,63.004 -0.000,60.536 -0.000,57.504 C-0.000,57.504 -0.000,21.571 -0.000,21.571 C-0.000,21.231 0.115,20.901 0.328,20.634 C0.328,20.634 16.356,0.564 16.356,0.564 C16.641,0.208 17.072,0.000 17.528,0.000 C17.528,0.000 42.528,0.000 42.528,0.000 C45.546,0.000 48.000,2.468 48.000,5.500 C48.000,5.500 48.000,57.504 48.000,57.504 C48.000,60.536 45.546,63.004 42.528,63.004 ZM3.000,22.096 C3.000,22.096 3.000,57.504 3.000,57.504 C3.000,58.883 4.134,60.004 5.528,60.004 C5.528,60.004 42.528,60.004 42.528,60.004 C43.892,60.004 45.000,58.883 45.000,57.504 C45.000,57.504 45.000,5.500 45.000,5.500 C45.000,4.121 43.892,3.000 42.528,3.000 C42.528,3.000 18.250,3.000 18.250,3.000 C18.250,3.000 3.000,22.096 3.000,22.096 Z" id="path-3" class="cls-5" fill-rule="evenodd"/>
    <path d="M13.157,22.002 C13.157,22.002 2.381,22.002 2.381,22.002 C1.804,22.002 1.277,21.671 1.028,21.149 C0.778,20.628 0.851,20.011 1.212,19.561 C1.212,19.561 16.331,0.774 16.331,0.774 C16.731,0.279 17.398,0.091 17.999,0.300 C18.599,0.512 19.000,1.079 19.000,1.715 C19.000,1.715 19.000,16.021 19.000,16.021 C19.000,19.095 16.160,22.002 13.157,22.002 ZM5.514,19.001 C5.514,19.001 13.157,19.001 13.157,19.001 C14.485,19.001 16.000,17.413 16.000,16.021 C16.000,16.021 16.000,5.971 16.000,5.971 C16.000,5.971 5.514,19.001 5.514,19.001 Z" id="path-4" class="cls-5" fill-rule="evenodd"/>
    <path d="M60.000,37.003 C60.000,39.212 58.209,41.003 56.000,41.003 C56.000,41.003 37.000,41.003 37.000,41.003 C34.791,41.003 33.000,39.212 33.000,37.003 C33.000,37.003 33.000,28.002 33.000,28.002 C33.000,25.793 34.791,24.002 37.000,24.002 C37.000,24.002 56.000,24.002 56.000,24.002 C58.209,24.002 60.000,25.793 60.000,28.002 C60.000,28.002 60.000,37.003 60.000,37.003 Z" id="path-5" class="cls-4" fill-rule="evenodd"/>
    <path d="M56.500,42.003 C56.500,42.003 37.500,42.003 37.500,42.003 C34.468,42.003 32.000,39.535 32.000,36.503 C32.000,36.503 32.000,27.502 32.000,27.502 C32.000,24.470 34.468,22.002 37.500,22.002 C37.500,22.002 56.500,22.002 56.500,22.002 C59.532,22.002 62.000,24.470 62.000,27.502 C62.000,27.502 62.000,36.503 62.000,36.503 C62.000,39.535 59.532,42.003 56.500,42.003 ZM37.500,25.002 C36.121,25.002 35.000,26.123 35.000,27.502 C35.000,27.502 35.000,36.503 35.000,36.503 C35.000,37.882 36.121,39.003 37.500,39.003 C37.500,39.003 56.500,39.003 56.500,39.003 C57.879,39.003 59.000,37.882 59.000,36.503 C59.000,36.503 59.000,27.502 59.000,27.502 C59.000,26.123 57.879,25.002 56.500,25.002 C56.500,25.002 37.500,25.002 37.500,25.002 Z" id="path-6" class="cls-5" fill-rule="evenodd"/>
    <path d="M39.098,28.830 C39.098,28.830 40.987,28.830 40.987,28.830 C41.478,28.830 41.900,28.876 42.252,28.967 C42.603,29.058 42.922,29.229 43.209,29.480 C43.954,30.117 44.327,31.088 44.327,32.390 C44.327,32.820 44.289,33.212 44.215,33.567 C44.140,33.921 44.024,34.242 43.868,34.526 C43.712,34.811 43.512,35.066 43.268,35.291 C43.075,35.463 42.865,35.601 42.638,35.706 C42.409,35.810 42.165,35.883 41.902,35.925 C41.641,35.967 41.345,35.989 41.017,35.989 C41.017,35.989 39.127,35.989 39.127,35.989 C38.863,35.989 38.664,35.949 38.531,35.870 C38.397,35.790 38.311,35.677 38.270,35.532 C38.229,35.387 38.209,35.200 38.209,34.968 C38.209,34.968 38.209,29.719 38.209,29.719 C38.209,29.406 38.278,29.180 38.419,29.040 C38.559,28.901 38.785,28.830 39.098,28.830 ZM39.659,29.978 C39.659,29.978 39.659,34.837 39.659,34.837 C39.659,34.837 40.758,34.837 40.758,34.837 C40.998,34.837 41.187,34.830 41.324,34.817 C41.461,34.804 41.602,34.771 41.749,34.719 C41.895,34.668 42.022,34.594 42.130,34.500 C42.614,34.089 42.857,33.383 42.857,32.380 C42.857,31.674 42.751,31.145 42.537,30.793 C42.324,30.442 42.062,30.218 41.749,30.121 C41.437,30.026 41.059,29.978 40.616,29.978 C40.616,29.978 39.659,29.978 39.659,29.978 Z" id="path-7" class="cls-3" fill-rule="evenodd"/>
    <path d="M47.022,29.587 C47.022,29.587 47.022,34.797 47.022,34.797 C47.022,34.797 49.962,34.797 49.962,34.797 C50.196,34.797 50.376,34.854 50.501,34.968 C50.627,35.083 50.689,35.225 50.689,35.398 C50.689,35.574 50.627,35.716 50.504,35.825 C50.380,35.934 50.199,35.989 49.962,35.989 C49.962,35.989 46.461,35.989 46.461,35.989 C46.144,35.989 45.918,35.919 45.779,35.779 C45.642,35.639 45.572,35.413 45.572,35.100 C45.572,35.100 45.572,29.587 45.572,29.587 C45.572,29.294 45.638,29.074 45.769,28.928 C45.901,28.781 46.075,28.708 46.290,28.708 C46.508,28.708 46.684,28.780 46.819,28.926 C46.955,29.070 47.022,29.291 47.022,29.587 Z" id="path-8" class="cls-3" fill-rule="evenodd"/>
    <path d="M53.062,29.587 C53.062,29.587 53.062,34.797 53.062,34.797 C53.062,34.797 56.002,34.797 56.002,34.797 C56.236,34.797 56.416,34.854 56.541,34.968 C56.667,35.083 56.729,35.225 56.729,35.398 C56.729,35.574 56.667,35.716 56.544,35.825 C56.420,35.934 56.239,35.989 56.002,35.989 C56.002,35.989 52.501,35.989 52.501,35.989 C52.185,35.989 51.958,35.919 51.819,35.779 C51.682,35.639 51.612,35.413 51.612,35.100 C51.612,35.100 51.612,29.587 51.612,29.587 C51.612,29.294 51.678,29.074 51.809,28.928 C51.941,28.781 52.115,28.708 52.330,28.708 C52.548,28.708 52.725,28.780 52.859,28.926 C52.995,29.070 53.062,29.291 53.062,29.587 Z" id="path-9" class="cls-3" fill-rule="evenodd"/>
  </g>
</svg>
