<svg xmlns="http://www.w3.org/2000/svg" xmlns:xlink="http://www.w3.org/1999/xlink" preserveAspectRatio="xMidYMid" width="60" height="66" viewBox="0 0 60 66">
  <defs>
    <style>

      .cls-3 {
        fill: #edc951;
      }

      .cls-4 {
        fill: #8b71b5;
      }

      .cls-5 {
        fill: #000000;
      }
    </style>
  </defs>
  <g id="group-87svg">
    <path d="M22.538,4.991 C22.538,4.991 47.038,4.991 47.038,4.991 C49.238,4.991 51.000,6.291 51.000,8.492 C51.000,8.492 51.000,60.495 51.000,60.495 C51.000,62.696 49.238,64.996 47.038,64.996 C47.038,64.996 10.038,64.996 10.038,64.996 C7.829,64.996 6.000,62.704 6.000,60.495 C6.000,60.495 6.000,24.562 6.000,24.562 C6.000,24.562 22.538,4.991 22.538,4.991 Z" id="path-1" class="cls-3" fill-rule="evenodd"/>
    <path d="M7.225,22.993 C7.225,22.993 18.538,22.993 18.538,22.993 C20.748,22.993 23.000,21.202 23.000,18.992 C23.000,18.992 23.000,4.491 23.000,4.491 C23.000,4.491 7.225,22.993 7.225,22.993 Z" id="path-2" class="cls-4" fill-rule="evenodd"/>
    <path d="M42.038,62.996 C42.038,62.996 5.038,62.996 5.038,62.996 C2.119,62.996 -0.000,60.682 -0.000,57.495 C-0.000,57.495 -0.000,21.562 -0.000,21.562 C-0.000,21.230 0.110,20.907 0.313,20.644 C0.313,20.644 15.852,0.573 15.852,0.573 C16.136,0.206 16.574,-0.009 17.038,-0.009 C17.038,-0.009 42.038,-0.009 42.038,-0.009 C45.214,-0.009 48.000,2.562 48.000,5.492 C48.000,5.492 48.000,57.495 48.000,57.495 C48.000,60.425 45.214,62.996 42.038,62.996 ZM3.000,22.075 C3.000,22.075 3.000,57.495 3.000,57.495 C3.000,58.649 3.534,59.995 5.038,59.995 C5.038,59.995 42.038,59.995 42.038,59.995 C43.533,59.995 45.000,58.757 45.000,57.495 C45.000,57.495 45.000,5.492 45.000,5.492 C45.000,4.230 43.533,2.991 42.038,2.991 C42.038,2.991 17.773,2.991 17.773,2.991 C17.773,2.991 3.000,22.075 3.000,22.075 Z" id="path-3" class="cls-5" fill-rule="evenodd"/>
    <path d="M12.667,21.993 C12.667,21.993 1.891,21.993 1.891,21.993 C1.309,21.993 0.779,21.657 0.532,21.129 C0.285,20.603 0.365,19.981 0.737,19.533 C0.737,19.533 16.347,0.747 16.347,0.747 C16.750,0.261 17.415,0.083 18.010,0.295 C18.603,0.510 19.000,1.074 19.000,1.706 C19.000,1.706 19.000,16.012 19.000,16.012 C19.000,18.974 15.804,21.993 12.667,21.993 ZM5.087,18.992 C5.087,18.992 12.667,18.992 12.667,18.992 C14.100,18.992 16.000,17.293 16.000,16.012 C16.000,16.012 16.000,5.859 16.000,5.859 C16.000,5.859 5.087,18.992 5.087,18.992 Z" id="path-4" class="cls-5" fill-rule="evenodd"/>
    <path d="M58.000,36.994 C58.000,39.203 56.209,40.994 54.000,40.994 C54.000,40.994 35.000,40.994 35.000,40.994 C32.791,40.994 31.000,39.203 31.000,36.994 C31.000,36.994 31.000,27.993 31.000,27.993 C31.000,25.784 32.791,23.993 35.000,23.993 C35.000,23.993 54.000,23.993 54.000,23.993 C56.209,23.993 58.000,25.784 58.000,27.993 C58.000,27.993 58.000,36.994 58.000,36.994 Z" id="path-5" class="cls-4" fill-rule="evenodd"/>
    <path d="M54.500,41.994 C54.500,41.994 35.500,41.994 35.500,41.994 C32.468,41.994 30.000,39.526 30.000,36.494 C30.000,36.494 30.000,27.493 30.000,27.493 C30.000,24.461 32.468,21.993 35.500,21.993 C35.500,21.993 54.500,21.993 54.500,21.993 C57.532,21.993 60.000,24.461 60.000,27.493 C60.000,27.493 60.000,36.494 60.000,36.494 C60.000,39.526 57.532,41.994 54.500,41.994 ZM35.500,24.993 C34.121,24.993 33.000,26.114 33.000,27.493 C33.000,27.493 33.000,36.494 33.000,36.494 C33.000,37.873 34.121,38.994 35.500,38.994 C35.500,38.994 54.500,38.994 54.500,38.994 C55.879,38.994 57.000,37.873 57.000,36.494 C57.000,36.494 57.000,27.493 57.000,27.493 C57.000,26.114 55.879,24.993 54.500,24.993 C54.500,24.993 35.500,24.993 35.500,24.993 Z" id="path-6" class="cls-5" fill-rule="evenodd"/>
    <path d="M41.299,30.666 C41.299,30.666 39.717,30.666 39.717,30.666 C39.717,30.666 39.717,35.867 39.717,35.867 C39.717,36.166 39.649,36.388 39.517,36.533 C39.383,36.678 39.210,36.751 38.999,36.751 C38.784,36.751 38.609,36.677 38.474,36.531 C38.339,36.384 38.271,36.163 38.271,35.867 C38.271,35.867 38.271,30.666 38.271,30.666 C38.271,30.666 36.689,30.666 36.689,30.666 C36.441,30.666 36.258,30.611 36.138,30.503 C36.017,30.394 35.957,30.249 35.957,30.070 C35.957,29.885 36.019,29.738 36.145,29.631 C36.270,29.524 36.451,29.470 36.689,29.470 C36.689,29.470 41.299,29.470 41.299,29.470 C41.549,29.470 41.735,29.525 41.857,29.636 C41.979,29.746 42.041,29.892 42.041,30.070 C42.041,30.249 41.978,30.394 41.855,30.503 C41.731,30.611 41.546,30.666 41.299,30.666 Z" id="path-7" class="cls-3" fill-rule="evenodd"/>
    <path d="M47.549,30.666 C47.549,30.666 45.967,30.666 45.967,30.666 C45.967,30.666 45.967,35.867 45.967,35.867 C45.967,36.166 45.899,36.388 45.767,36.533 C45.633,36.678 45.460,36.751 45.249,36.751 C45.034,36.751 44.859,36.677 44.724,36.531 C44.589,36.384 44.521,36.163 44.521,35.867 C44.521,35.867 44.521,30.666 44.521,30.666 C44.521,30.666 42.939,30.666 42.939,30.666 C42.691,30.666 42.508,30.611 42.388,30.503 C42.267,30.394 42.207,30.249 42.207,30.070 C42.207,29.885 42.269,29.738 42.394,29.631 C42.520,29.524 42.701,29.470 42.939,29.470 C42.939,29.470 47.549,29.470 47.549,29.470 C47.799,29.470 47.985,29.525 48.107,29.636 C48.229,29.746 48.291,29.892 48.291,30.070 C48.291,30.249 48.228,30.394 48.105,30.503 C47.981,30.611 47.796,30.666 47.549,30.666 Z" id="path-8" class="cls-3" fill-rule="evenodd"/>
    <path d="M53.428,30.588 C53.428,30.588 50.571,30.588 50.571,30.588 C50.571,30.588 50.571,32.419 50.571,32.419 C50.571,32.419 52.959,32.419 52.959,32.419 C53.180,32.419 53.346,32.469 53.454,32.568 C53.563,32.667 53.618,32.800 53.618,32.966 C53.618,33.132 53.562,33.264 53.452,33.362 C53.341,33.459 53.177,33.508 52.959,33.508 C52.959,33.508 50.571,33.508 50.571,33.508 C50.571,33.508 50.571,35.867 50.571,35.867 C50.571,36.166 50.504,36.388 50.368,36.533 C50.233,36.678 50.060,36.751 49.849,36.751 C49.634,36.751 49.459,36.677 49.323,36.531 C49.188,36.384 49.121,36.163 49.121,35.867 C49.121,35.867 49.121,30.358 49.121,30.358 C49.121,30.150 49.151,29.980 49.214,29.849 C49.275,29.716 49.372,29.620 49.504,29.560 C49.636,29.500 49.805,29.470 50.010,29.470 C50.010,29.470 53.428,29.470 53.428,29.470 C53.658,29.470 53.830,29.521 53.942,29.624 C54.055,29.726 54.111,29.860 54.111,30.026 C54.111,30.195 54.055,30.331 53.942,30.435 C53.830,30.536 53.658,30.588 53.428,30.588 Z" id="path-9" class="cls-3" fill-rule="evenodd"/>
  </g>
</svg>
