<svg xmlns="http://www.w3.org/2000/svg" xmlns:xlink="http://www.w3.org/1999/xlink" preserveAspectRatio="xMidYMid" width="67" height="50" viewBox="0 0 67 50">
  <defs>
    <style>

      .cls-3 {
        fill: #81bda4;
      }

      .cls-4 {
        fill: #000000;
      }

      .cls-9 {
        fill: #53ecf4;
      }
    </style>
  </defs>
  <g id="group-51svg">
    <path d="M67.000,40.990 C67.000,45.409 63.418,48.991 59.000,48.991 C59.000,48.991 15.000,48.991 15.000,48.991 C10.582,48.991 7.000,45.409 7.000,40.990 C7.000,40.990 7.000,12.988 7.000,12.988 C7.000,8.569 10.582,4.987 15.000,4.987 C15.000,4.987 59.000,4.987 59.000,4.987 C63.418,4.987 67.000,8.569 67.000,12.988 C67.000,12.988 67.000,40.990 67.000,40.990 Z" id="path-1" class="cls-3" fill-rule="evenodd"/>
    <path d="M53.500,46.990 C53.500,46.990 9.500,46.990 9.500,46.990 C4.262,46.990 -0.000,42.728 -0.000,37.490 C-0.000,37.490 -0.000,9.488 -0.000,9.488 C-0.000,4.249 4.262,-0.013 9.500,-0.013 C9.500,-0.013 53.500,-0.013 53.500,-0.013 C58.738,-0.013 63.000,4.249 63.000,9.488 C63.000,9.488 63.000,37.490 63.000,37.490 C63.000,42.728 58.738,46.990 53.500,46.990 ZM9.500,2.987 C5.916,2.987 3.000,5.904 3.000,9.488 C3.000,9.488 3.000,37.490 3.000,37.490 C3.000,41.074 5.916,43.990 9.500,43.990 C9.500,43.990 53.500,43.990 53.500,43.990 C57.084,43.990 60.000,41.074 60.000,37.490 C60.000,37.490 60.000,9.488 60.000,9.488 C60.000,5.904 57.084,2.987 53.500,2.987 C53.500,2.987 9.500,2.987 9.500,2.987 Z" id="path-2" class="cls-4" fill-rule="evenodd"/>
    <path d="M61.000,16.988 C61.000,16.988 3.000,16.988 3.000,16.988 C2.172,16.988 1.500,16.316 1.500,15.488 C1.500,14.660 2.172,13.988 3.000,13.988 C3.000,13.988 61.000,13.988 61.000,13.988 C61.828,13.988 62.500,14.660 62.500,15.488 C62.500,16.316 61.828,16.988 61.000,16.988 Z" id="path-3" class="cls-4" fill-rule="evenodd"/>
    <path d="M15.910,9.752 C15.910,11.315 14.643,12.582 13.080,12.582 C11.518,12.582 10.250,11.315 10.250,9.752 C10.250,8.188 11.518,6.921 13.080,6.921 C14.643,6.921 15.910,8.188 15.910,9.752 Z" id="path-4" class="cls-4" fill-rule="evenodd"/>
    <path d="M26.100,9.752 C26.100,11.315 24.832,12.582 23.269,12.582 C21.706,12.582 20.438,11.315 20.438,9.752 C20.438,8.188 21.706,6.921 23.269,6.921 C24.832,6.921 26.100,8.188 26.100,9.752 Z" id="path-5" class="cls-4" fill-rule="evenodd"/>
    <path d="M35.155,9.752 C35.155,11.315 33.889,12.582 32.325,12.582 C30.763,12.582 29.495,11.315 29.495,9.752 C29.495,8.188 30.763,6.921 32.325,6.921 C33.889,6.921 35.155,8.188 35.155,9.752 Z" id="path-6" class="cls-4" fill-rule="evenodd"/>
    <path d="M12.500,41.490 C11.672,41.490 11.000,40.818 11.000,39.990 C11.000,39.990 11.000,23.989 11.000,23.989 C11.000,23.161 11.672,22.489 12.500,22.489 C13.328,22.489 14.000,23.161 14.000,23.989 C14.000,23.989 14.000,39.990 14.000,39.990 C14.000,40.818 13.328,41.490 12.500,41.490 Z" id="path-7" class="cls-9" fill-rule="evenodd"/>
    <path d="M24.500,41.490 C23.672,41.490 23.000,40.818 23.000,39.990 C23.000,39.990 23.000,31.989 23.000,31.989 C23.000,31.161 23.672,30.489 24.500,30.489 C25.328,30.489 26.000,31.161 26.000,31.989 C26.000,31.989 26.000,39.990 26.000,39.990 C26.000,40.818 25.328,41.490 24.500,41.490 Z" id="path-8" class="cls-9" fill-rule="evenodd"/>
    <path d="M49.500,41.490 C48.672,41.490 48.000,40.818 48.000,39.990 C48.000,39.990 48.000,29.989 48.000,29.989 C48.000,29.161 48.672,28.489 49.500,28.489 C50.328,28.489 51.000,29.161 51.000,29.989 C51.000,29.989 51.000,39.990 51.000,39.990 C51.000,40.818 50.328,41.490 49.500,41.490 Z" id="path-9" class="cls-9" fill-rule="evenodd"/>
    <path d="M37.500,41.490 C36.672,41.490 36.000,40.818 36.000,39.990 C36.000,39.990 36.000,21.989 36.000,21.989 C36.000,21.161 36.672,20.489 37.500,20.489 C38.328,20.489 39.000,21.161 39.000,21.989 C39.000,21.989 39.000,39.990 39.000,39.990 C39.000,40.818 38.328,41.490 37.500,41.490 Z" id="path-10" class="cls-9" fill-rule="evenodd"/>
  </g>
</svg>
