<svg xmlns="http://www.w3.org/2000/svg" xmlns:xlink="http://www.w3.org/1999/xlink" preserveAspectRatio="xMidYMid" width="51" height="66" viewBox="0 0 51 66">
  <defs>
    <style>

      .cls-3 {
        fill: #edc951;
      }

      .cls-4 {
        fill: #8b71b5;
      }

      .cls-5 {
        fill: #000000;
      }
    </style>
  </defs>
  <g id="group-70svg">
    <path d="M22.528,5.005 C22.528,5.005 47.028,5.005 47.028,5.005 C49.228,5.005 51.000,6.305 51.000,8.505 C51.000,8.505 51.000,60.509 51.000,60.509 C51.000,62.709 49.228,65.009 47.028,65.009 C47.028,65.009 10.028,65.009 10.028,65.009 C7.819,65.009 6.000,62.718 6.000,60.509 C6.000,60.509 6.000,24.575 6.000,24.575 C6.000,24.575 22.528,5.005 22.528,5.005 Z" id="path-1" class="cls-3" fill-rule="evenodd"/>
    <path d="M7.215,23.006 C7.215,23.006 18.528,23.006 18.528,23.006 C20.738,23.006 23.000,21.215 23.000,19.006 C23.000,19.006 23.000,4.505 23.000,4.505 C23.000,4.505 7.215,23.006 7.215,23.006 Z" id="path-2" class="cls-4" fill-rule="evenodd"/>
    <path d="M42.028,63.009 C42.028,63.009 5.028,63.009 5.028,63.009 C2.114,63.009 -0.000,60.695 -0.000,57.508 C-0.000,57.508 -0.000,21.575 -0.000,21.575 C-0.000,21.243 0.110,20.920 0.313,20.657 C0.313,20.657 15.842,0.587 15.842,0.587 C16.126,0.219 16.564,0.004 17.028,0.004 C17.028,0.004 42.028,0.004 42.028,0.004 C45.210,0.004 48.000,2.575 48.000,5.505 C48.000,5.505 48.000,57.508 48.000,57.508 C48.000,60.438 45.210,63.009 42.028,63.009 ZM3.000,22.088 C3.000,22.088 3.000,57.508 3.000,57.508 C3.000,58.662 3.531,60.009 5.028,60.009 C5.028,60.009 42.028,60.009 42.028,60.009 C43.528,60.009 45.000,58.770 45.000,57.508 C45.000,57.508 45.000,5.505 45.000,5.505 C45.000,4.243 43.528,3.005 42.028,3.005 C42.028,3.005 17.765,3.005 17.765,3.005 C17.765,3.005 3.000,22.088 3.000,22.088 Z" id="path-3" class="cls-5" fill-rule="evenodd"/>
    <path d="M13.128,22.006 C13.128,22.006 2.353,22.006 2.353,22.006 C1.774,22.006 1.249,21.674 0.999,21.153 C0.750,20.632 0.822,20.014 1.185,19.564 C1.185,19.564 16.332,0.778 16.332,0.778 C16.733,0.283 17.403,0.091 17.999,0.305 C18.599,0.516 19.000,1.084 19.000,1.719 C19.000,1.719 19.000,16.025 19.000,16.025 C19.000,19.100 16.146,22.006 13.128,22.006 ZM5.489,19.006 C5.489,19.006 13.128,19.006 13.128,19.006 C14.470,19.006 16.000,17.418 16.000,16.025 C16.000,16.025 16.000,5.970 16.000,5.970 C16.000,5.970 5.489,19.006 5.489,19.006 Z" id="path-4" class="cls-5" fill-rule="evenodd"/>
    <path d="M28.026,56.321 C28.026,56.321 27.383,54.629 27.383,54.629 C27.383,54.629 21.905,54.629 21.905,54.629 C21.905,54.629 21.262,56.357 21.262,56.357 C21.011,57.032 20.796,57.487 20.618,57.722 C20.440,57.958 20.149,58.076 19.745,58.076 C19.402,58.076 19.099,57.950 18.835,57.700 C18.571,57.448 18.440,57.163 18.440,56.844 C18.440,56.661 18.471,56.471 18.532,56.274 C18.593,56.079 18.694,55.805 18.835,55.457 C18.835,55.457 22.282,46.706 22.282,46.706 C22.380,46.455 22.498,46.153 22.636,45.801 C22.773,45.448 22.921,45.156 23.077,44.923 C23.233,44.690 23.438,44.502 23.692,44.357 C23.947,44.214 24.261,44.141 24.635,44.141 C25.015,44.141 25.332,44.214 25.586,44.357 C25.841,44.502 26.046,44.687 26.202,44.914 C26.358,45.140 26.490,45.384 26.598,45.644 C26.704,45.905 26.841,46.253 27.006,46.687 C27.006,46.687 30.526,55.383 30.526,55.383 C30.802,56.044 30.940,56.526 30.940,56.826 C30.940,57.138 30.810,57.425 30.550,57.685 C30.289,57.946 29.975,58.076 29.607,58.076 C29.393,58.076 29.209,58.038 29.056,57.962 C28.902,57.884 28.774,57.781 28.670,57.649 C28.565,57.517 28.454,57.315 28.334,57.042 C28.215,56.769 28.112,56.529 28.026,56.321 ZM22.622,52.579 C22.622,52.579 26.647,52.579 26.647,52.579 C26.647,52.579 24.616,47.018 24.616,47.018 C24.616,47.018 22.622,52.579 22.622,52.579 Z" id="path-5" class="cls-4" fill-rule="evenodd"/>
    <path d="M39.285,56.661 C39.285,56.661 39.285,56.338 39.285,56.338 C38.985,56.719 38.669,57.038 38.339,57.295 C38.008,57.552 37.645,57.744 37.254,57.870 C36.861,57.995 36.414,58.057 35.912,58.057 C35.306,58.057 34.762,57.932 34.280,57.680 C33.800,57.430 33.427,57.084 33.164,56.642 C32.852,56.109 32.695,55.343 32.695,54.344 C32.695,54.344 32.695,49.371 32.695,49.371 C32.695,48.869 32.809,48.494 33.035,48.246 C33.262,47.997 33.562,47.873 33.936,47.873 C34.315,47.873 34.622,47.999 34.855,48.250 C35.088,48.502 35.204,48.875 35.204,49.371 C35.204,49.371 35.204,53.388 35.204,53.388 C35.204,53.971 35.253,54.459 35.352,54.854 C35.449,55.249 35.625,55.559 35.880,55.783 C36.134,56.006 36.478,56.118 36.914,56.118 C37.337,56.118 37.735,55.993 38.108,55.742 C38.482,55.491 38.755,55.163 38.927,54.758 C39.067,54.403 39.138,53.624 39.138,52.423 C39.138,52.423 39.138,49.371 39.138,49.371 C39.138,48.875 39.255,48.502 39.487,48.250 C39.720,47.999 40.023,47.873 40.397,47.873 C40.770,47.873 41.071,47.997 41.298,48.246 C41.524,48.494 41.638,48.869 41.638,49.371 C41.638,49.371 41.638,56.642 41.638,56.642 C41.638,57.120 41.529,57.479 41.311,57.717 C41.094,57.957 40.813,58.076 40.471,58.076 C40.128,58.076 39.844,57.952 39.621,57.704 C39.396,57.456 39.285,57.108 39.285,56.661 Z" id="path-6" class="cls-4" fill-rule="evenodd"/>
  </g>
</svg>
