<svg xmlns="http://www.w3.org/2000/svg" xmlns:xlink="http://www.w3.org/1999/xlink" preserveAspectRatio="xMidYMid" width="64" height="66" viewBox="0 0 64 66">
  <defs>
    <style>

      .cls-3 {
        fill: #edc951;
      }

      .cls-4 {
        fill: #8b71b5;
      }

      .cls-5 {
        fill: #000000;
      }
    </style>
  </defs>
  <g id="group-96svg">
    <path d="M23.018,5.000 C23.018,5.000 47.518,5.000 47.518,5.000 C49.719,5.000 52.000,6.300 52.000,8.501 C52.000,8.501 52.000,60.504 52.000,60.504 C52.000,62.705 49.719,65.005 47.518,65.005 C47.518,65.005 10.519,65.005 10.519,65.005 C8.310,65.005 7.000,62.713 7.000,60.504 C7.000,60.504 7.000,24.571 7.000,24.571 C7.000,24.571 23.018,5.000 23.018,5.000 Z" id="path-1" class="cls-3" fill-rule="evenodd"/>
    <path d="M7.704,23.002 C7.704,23.002 19.018,23.002 19.018,23.002 C21.227,23.002 23.000,21.211 23.000,19.001 C23.000,19.001 23.000,4.500 23.000,4.500 C23.000,4.500 7.704,23.002 7.704,23.002 Z" id="path-2" class="cls-4" fill-rule="evenodd"/>
    <path d="M42.519,63.004 C42.519,63.004 5.518,63.004 5.518,63.004 C2.476,63.004 -0.000,60.536 -0.000,57.504 C-0.000,57.504 -0.000,21.571 -0.000,21.571 C-0.000,21.231 0.115,20.901 0.328,20.635 C0.328,20.635 16.347,0.565 16.347,0.565 C16.631,0.208 17.062,0.000 17.519,0.000 C17.519,0.000 42.519,0.000 42.519,0.000 C45.541,0.000 48.000,2.468 48.000,5.500 C48.000,5.500 48.000,57.504 48.000,57.504 C48.000,60.536 45.541,63.004 42.519,63.004 ZM3.000,22.096 C3.000,22.096 3.000,57.504 3.000,57.504 C3.000,58.883 4.130,60.004 5.518,60.004 C5.518,60.004 42.519,60.004 42.519,60.004 C43.887,60.004 45.000,58.883 45.000,57.504 C45.000,57.504 45.000,5.500 45.000,5.500 C45.000,4.121 43.887,3.000 42.519,3.000 C42.519,3.000 18.240,3.000 18.240,3.000 C18.240,3.000 3.000,22.096 3.000,22.096 Z" id="path-3" class="cls-5" fill-rule="evenodd"/>
    <path d="M13.147,22.002 C13.147,22.002 2.371,22.002 2.371,22.002 C1.794,22.002 1.268,21.671 1.018,21.149 C0.769,20.628 0.841,20.010 1.203,19.561 C1.203,19.561 16.332,0.774 16.332,0.774 C16.731,0.278 17.398,0.091 17.999,0.300 C18.599,0.512 19.000,1.079 19.000,1.715 C19.000,1.715 19.000,16.021 19.000,16.021 C19.000,19.095 16.156,22.002 13.147,22.002 ZM5.505,19.001 C5.505,19.001 13.147,19.001 13.147,19.001 C14.480,19.001 16.000,17.413 16.000,16.021 C16.000,16.021 16.000,5.969 16.000,5.969 C16.000,5.969 5.505,19.001 5.505,19.001 Z" id="path-4" class="cls-5" fill-rule="evenodd"/>
    <path d="M62.000,37.003 C62.000,39.212 60.209,41.003 58.000,41.003 C58.000,41.003 39.000,41.003 39.000,41.003 C36.791,41.003 35.000,39.212 35.000,37.003 C35.000,37.003 35.000,28.002 35.000,28.002 C35.000,25.793 36.791,24.002 39.000,24.002 C39.000,24.002 58.000,24.002 58.000,24.002 C60.209,24.002 62.000,25.793 62.000,28.002 C62.000,28.002 62.000,37.003 62.000,37.003 Z" id="path-5" class="cls-4" fill-rule="evenodd"/>
    <path d="M58.500,42.003 C58.500,42.003 39.500,42.003 39.500,42.003 C36.468,42.003 34.000,39.535 34.000,36.503 C34.000,36.503 34.000,27.502 34.000,27.502 C34.000,24.470 36.468,22.002 39.500,22.002 C39.500,22.002 58.500,22.002 58.500,22.002 C61.532,22.002 64.000,24.470 64.000,27.502 C64.000,27.502 64.000,36.503 64.000,36.503 C64.000,39.535 61.532,42.003 58.500,42.003 ZM39.500,25.002 C38.121,25.002 37.000,26.123 37.000,27.502 C37.000,27.502 37.000,36.503 37.000,36.503 C37.000,37.882 38.121,39.003 39.500,39.003 C39.500,39.003 58.500,39.003 58.500,39.003 C59.879,39.003 61.000,37.882 61.000,36.503 C61.000,36.503 61.000,27.502 61.000,27.502 C61.000,26.123 59.879,25.002 58.500,25.002 C58.500,25.002 39.500,25.002 39.500,25.002 Z" id="path-6" class="cls-5" fill-rule="evenodd"/>
    <path d="M42.636,32.927 C42.636,32.927 42.128,32.927 42.128,32.927 C42.128,32.927 42.128,35.227 42.128,35.227 C42.128,35.530 42.061,35.753 41.928,35.896 C41.794,36.040 41.620,36.111 41.405,36.111 C41.174,36.111 40.995,36.036 40.868,35.886 C40.741,35.737 40.678,35.517 40.678,35.227 C40.678,35.227 40.678,29.719 40.678,29.719 C40.678,29.406 40.747,29.180 40.888,29.040 C41.027,28.901 41.254,28.830 41.566,28.830 C41.566,28.830 43.925,28.830 43.925,28.830 C44.250,28.830 44.528,28.844 44.760,28.871 C44.990,28.900 45.199,28.955 45.385,29.040 C45.609,29.135 45.808,29.270 45.980,29.445 C46.152,29.621 46.284,29.825 46.373,30.059 C46.463,30.291 46.508,30.537 46.508,30.798 C46.508,31.332 46.357,31.758 46.056,32.077 C45.755,32.397 45.298,32.622 44.687,32.756 C44.943,32.893 45.189,33.095 45.424,33.362 C45.658,33.628 45.867,33.913 46.051,34.213 C46.235,34.515 46.378,34.787 46.480,35.030 C46.583,35.272 46.635,35.439 46.635,35.530 C46.635,35.625 46.604,35.717 46.544,35.811 C46.484,35.903 46.401,35.977 46.298,36.030 C46.193,36.085 46.073,36.111 45.936,36.111 C45.773,36.111 45.637,36.073 45.526,35.997 C45.415,35.920 45.320,35.823 45.240,35.706 C45.161,35.588 45.053,35.416 44.916,35.188 C44.916,35.188 44.335,34.221 44.335,34.221 C44.126,33.867 43.940,33.596 43.775,33.411 C43.611,33.225 43.444,33.098 43.275,33.030 C43.105,32.961 42.893,32.927 42.636,32.927 ZM43.466,29.919 C43.466,29.919 42.128,29.919 42.128,29.919 C42.128,29.919 42.128,31.887 42.128,31.887 C42.128,31.887 43.427,31.887 43.427,31.887 C43.774,31.887 44.067,31.857 44.306,31.797 C44.543,31.737 44.725,31.634 44.850,31.489 C44.976,31.344 45.038,31.145 45.038,30.891 C45.038,30.693 44.987,30.518 44.887,30.365 C44.785,30.215 44.645,30.102 44.467,30.027 C44.297,29.955 43.964,29.919 43.466,29.919 Z" id="path-7" class="cls-3" fill-rule="evenodd"/>
    <path d="M52.030,30.027 C52.030,30.027 50.448,30.027 50.448,30.027 C50.448,30.027 50.448,35.227 50.448,35.227 C50.448,35.527 50.381,35.749 50.248,35.893 C50.114,36.039 49.941,36.111 49.730,36.111 C49.516,36.111 49.341,36.038 49.205,35.891 C49.070,35.745 49.003,35.523 49.003,35.227 C49.003,35.227 49.003,30.027 49.003,30.027 C49.003,30.027 47.421,30.027 47.421,30.027 C47.173,30.027 46.989,29.972 46.869,29.864 C46.748,29.754 46.688,29.610 46.688,29.431 C46.688,29.245 46.751,29.099 46.876,28.991 C47.002,28.884 47.183,28.830 47.421,28.830 C47.421,28.830 52.030,28.830 52.030,28.830 C52.280,28.830 52.467,28.886 52.589,28.996 C52.711,29.106 52.772,29.252 52.772,29.431 C52.772,29.610 52.710,29.754 52.587,29.864 C52.463,29.972 52.277,30.027 52.030,30.027 Z" id="path-8" class="cls-3" fill-rule="evenodd"/>
    <path d="M57.909,29.948 C57.909,29.948 55.053,29.948 55.053,29.948 C55.053,29.948 55.053,31.780 55.053,31.780 C55.053,31.780 57.440,31.780 57.440,31.780 C57.661,31.780 57.827,31.829 57.935,31.928 C58.045,32.028 58.100,32.160 58.100,32.326 C58.100,32.492 58.044,32.624 57.934,32.722 C57.822,32.820 57.658,32.869 57.440,32.869 C57.440,32.869 55.053,32.869 55.053,32.869 C55.053,32.869 55.053,35.227 55.053,35.227 C55.053,35.527 54.985,35.749 54.850,35.893 C54.715,36.039 54.541,36.111 54.330,36.111 C54.115,36.111 53.940,36.038 53.805,35.891 C53.670,35.745 53.603,35.523 53.603,35.227 C53.603,35.227 53.603,29.719 53.603,29.719 C53.603,29.511 53.633,29.340 53.695,29.209 C53.757,29.076 53.854,28.981 53.985,28.920 C54.117,28.860 54.286,28.830 54.491,28.830 C54.491,28.830 57.909,28.830 57.909,28.830 C58.140,28.830 58.312,28.881 58.424,28.984 C58.536,29.086 58.593,29.221 58.593,29.387 C58.593,29.556 58.536,29.692 58.424,29.795 C58.312,29.897 58.140,29.948 57.909,29.948 Z" id="path-9" class="cls-3" fill-rule="evenodd"/>
  </g>
</svg>
