<svg xmlns="http://www.w3.org/2000/svg" xmlns:xlink="http://www.w3.org/1999/xlink" preserveAspectRatio="xMidYMid" width="51" height="66" viewBox="0 0 51 66">
  <defs>
    <style>

      .cls-3 {
        fill: #e56a77;
      }

      .cls-4 {
        fill: #53ecf4;
      }

      .cls-5 {
        fill: #000000;
      }

      .cls-7 {
        fill: #ffffff;
      }
    </style>
  </defs>
  <g id="group-26svg">
    <path d="M34.155,65.004 C34.155,65.004 13.655,65.004 13.655,65.004 C9.255,65.004 6.000,60.904 6.000,56.503 C6.000,56.503 6.000,12.500 6.000,12.500 C6.000,8.100 9.255,5.000 13.655,5.000 C13.655,5.000 42.655,5.000 42.655,5.000 C47.074,5.000 51.000,8.082 51.000,12.500 C51.000,12.500 51.000,44.433 51.000,44.433 C51.000,44.433 34.155,65.004 34.155,65.004 Z" id="path-1" class="cls-3" fill-rule="evenodd"/>
    <path d="M49.470,46.003 C49.470,46.003 38.155,46.003 38.155,46.003 C35.946,46.003 34.000,47.794 34.000,50.003 C34.000,50.003 34.000,64.504 34.000,64.504 C34.000,64.504 49.470,46.003 49.470,46.003 Z" id="path-2" class="cls-4" fill-rule="evenodd"/>
    <path d="M30.655,63.004 C30.655,63.004 9.655,63.004 9.655,63.004 C4.421,63.004 -0.000,58.653 -0.000,53.503 C-0.000,53.503 -0.000,9.500 -0.000,9.500 C-0.000,4.350 4.421,-0.000 9.655,-0.000 C9.655,-0.000 38.655,-0.000 38.655,-0.000 C43.895,-0.000 48.000,4.173 48.000,9.500 C48.000,9.500 48.000,41.433 48.000,41.433 C48.000,41.770 47.886,42.098 47.677,42.363 C47.677,42.363 31.832,62.434 31.832,62.434 C31.548,62.794 31.114,63.004 30.655,63.004 ZM9.655,3.000 C6.048,3.000 3.000,5.976 3.000,9.500 C3.000,9.500 3.000,53.503 3.000,53.503 C3.000,57.027 6.048,60.004 9.655,60.004 C9.655,60.004 29.928,60.004 29.928,60.004 C29.928,60.004 45.000,40.913 45.000,40.913 C45.000,40.913 45.000,9.500 45.000,9.500 C45.000,5.855 42.213,3.000 38.655,3.000 C38.655,3.000 9.655,3.000 9.655,3.000 Z" id="path-3" class="cls-5" fill-rule="evenodd"/>
    <path d="M30.499,62.789 C30.332,62.789 30.162,62.761 29.997,62.702 C29.399,62.489 29.000,61.924 29.000,61.289 C29.000,61.289 29.000,46.983 29.000,46.983 C29.000,43.964 31.985,41.002 35.027,41.002 C35.027,41.002 45.803,41.002 45.803,41.002 C46.382,41.002 46.909,41.335 47.158,41.859 C47.406,42.381 47.331,43.001 46.966,43.450 C46.966,43.450 31.663,62.236 31.663,62.236 C31.373,62.593 30.942,62.789 30.499,62.789 ZM35.027,44.003 C33.641,44.003 32.000,45.618 32.000,46.983 C32.000,46.983 32.000,57.072 32.000,57.072 C32.000,57.072 42.646,44.003 42.646,44.003 C42.646,44.003 35.027,44.003 35.027,44.003 Z" id="path-4" class="cls-5" fill-rule="evenodd"/>
    <path d="M31.181,39.435 C31.181,39.435 26.330,40.302 26.330,40.302 C26.330,40.302 27.196,35.451 27.196,35.451 C27.196,35.451 39.130,23.516 39.130,23.516 C40.230,22.416 42.015,22.416 43.115,23.516 C43.115,23.516 43.115,23.516 43.115,23.516 C44.215,24.616 44.215,26.400 43.115,27.500 C43.115,27.500 31.181,39.435 31.181,39.435 Z" id="path-5" class="cls-7" fill-rule="evenodd"/>
    <path d="M23.940,40.208 C23.545,40.208 23.163,40.053 22.879,39.769 C22.532,39.422 22.377,38.927 22.463,38.445 C22.463,38.445 23.330,33.594 23.330,33.594 C23.384,33.292 23.529,33.014 23.746,32.797 C23.746,32.797 35.680,20.861 35.680,20.861 C36.496,20.046 37.580,19.598 38.733,19.598 C39.886,19.598 40.970,20.046 41.785,20.861 C43.468,22.545 43.468,25.283 41.786,26.967 C41.786,26.967 29.851,38.903 29.851,38.903 C29.634,39.119 29.356,39.265 29.054,39.319 C29.054,39.319 24.204,40.185 24.204,40.185 C24.116,40.201 24.027,40.208 23.940,40.208 ZM26.200,34.585 C26.200,34.585 25.795,36.853 25.795,36.853 C25.795,36.853 28.063,36.448 28.063,36.448 C28.063,36.448 39.664,24.846 39.664,24.846 C40.177,24.332 40.177,23.496 39.664,22.983 C39.167,22.486 38.299,22.487 37.801,22.983 C37.801,22.983 26.200,34.585 26.200,34.585 Z" id="path-6" class="cls-5" fill-rule="evenodd"/>
  </g>
</svg>
