<svg xmlns="http://www.w3.org/2000/svg" xmlns:xlink="http://www.w3.org/1999/xlink" preserveAspectRatio="xMidYMid" width="59" height="65" viewBox="0 0 59 65">
  <defs>
    <style>

      .cls-3 {
        fill: #53ecf4;
      }

      .cls-4 {
        fill: #000000;
      }

      .cls-5 {
        fill: #e56a77;
      }
    </style>
  </defs>
  <g id="group-35svg">
    <path d="M59.000,12.010 C59.000,7.591 55.418,4.009 51.000,4.009 C51.000,4.009 16.000,4.009 16.000,4.009 C11.582,4.009 8.000,7.591 8.000,12.010 C8.000,12.010 8.000,56.013 8.000,56.013 C8.000,60.432 11.582,64.013 16.000,64.013 C16.000,64.013 51.000,64.013 51.000,64.013 C55.418,64.013 59.000,60.432 59.000,56.013 C59.000,56.013 59.000,12.010 59.000,12.010 Z" id="path-1" class="cls-3" fill-rule="evenodd"/>
    <path d="M44.500,63.013 C44.500,63.013 9.500,63.013 9.500,63.013 C4.262,63.013 -0.000,58.751 -0.000,53.513 C-0.000,53.513 -0.000,9.510 -0.000,9.510 C-0.000,4.271 4.262,0.009 9.500,0.009 C9.500,0.009 44.500,0.009 44.500,0.009 C49.738,0.009 54.000,4.271 54.000,9.510 C54.000,9.510 54.000,53.513 54.000,53.513 C54.000,58.751 49.738,63.013 44.500,63.013 ZM9.500,3.009 C5.916,3.009 3.000,5.925 3.000,9.510 C3.000,9.510 3.000,53.513 3.000,53.513 C3.000,57.097 5.916,60.013 9.500,60.013 C9.500,60.013 44.500,60.013 44.500,60.013 C48.084,60.013 51.000,57.097 51.000,53.513 C51.000,53.513 51.000,9.510 51.000,9.510 C51.000,5.925 48.084,3.009 44.500,3.009 C44.500,3.009 9.500,3.009 9.500,3.009 Z" id="path-2" class="cls-4" fill-rule="evenodd"/>
    <path d="M11.500,53.513 C10.671,53.513 10.000,52.841 10.000,52.013 C10.000,52.013 10.000,19.010 10.000,19.010 C10.000,18.182 10.671,17.510 11.500,17.510 C12.329,17.510 13.000,18.182 13.000,19.010 C13.000,19.010 13.000,52.013 13.000,52.013 C13.000,52.841 12.329,53.513 11.500,53.513 Z" id="path-3" class="cls-5" fill-rule="evenodd"/>
    <path d="M21.500,53.513 C20.671,53.513 20.000,52.841 20.000,52.013 C20.000,52.013 20.000,41.012 20.000,41.012 C20.000,40.184 20.671,39.512 21.500,39.512 C22.329,39.512 23.000,40.184 23.000,41.012 C23.000,41.012 23.000,52.013 23.000,52.013 C23.000,52.841 22.329,53.513 21.500,53.513 Z" id="path-4" class="cls-5" fill-rule="evenodd"/>
    <path d="M31.500,53.513 C30.671,53.513 30.000,52.841 30.000,52.013 C30.000,52.013 30.000,30.011 30.000,30.011 C30.000,29.183 30.671,28.511 31.500,28.511 C32.329,28.511 33.000,29.183 33.000,30.011 C33.000,30.011 33.000,52.013 33.000,52.013 C33.000,52.841 32.329,53.513 31.500,53.513 Z" id="path-5" class="cls-5" fill-rule="evenodd"/>
    <path d="M41.500,53.513 C40.671,53.513 40.000,52.841 40.000,52.013 C40.000,52.013 40.000,10.010 40.000,10.010 C40.000,9.181 40.671,8.510 41.500,8.510 C42.329,8.510 43.000,9.181 43.000,10.010 C43.000,10.010 43.000,52.013 43.000,52.013 C43.000,52.841 42.329,53.513 41.500,53.513 Z" id="path-6" class="cls-5" fill-rule="evenodd"/>
  </g>
</svg>
