<svg xmlns="http://www.w3.org/2000/svg" xmlns:xlink="http://www.w3.org/1999/xlink" preserveAspectRatio="xMidYMid" width="51" height="65" viewBox="0 0 51 65">
  <defs>
    <style>

      .cls-3 {
        fill: #edc951;
      }

      .cls-4 {
        fill: #8b71b5;
      }

      .cls-5 {
        fill: #000000;
      }
    </style>
  </defs>
  <g id="group-60svg">
    <path d="M22.528,4.027 C22.528,4.027 47.028,4.027 47.028,4.027 C49.228,4.027 51.000,6.102 51.000,8.303 C51.000,8.303 51.000,60.306 51.000,60.306 C51.000,62.506 49.228,64.031 47.028,64.031 C47.028,64.031 10.028,64.031 10.028,64.031 C7.819,64.031 6.000,62.515 6.000,60.306 C6.000,60.306 6.000,24.373 6.000,24.373 C6.000,24.373 22.528,4.027 22.528,4.027 Z" id="path-1" class="cls-3" fill-rule="evenodd"/>
    <path d="M7.215,23.028 C7.215,23.028 18.528,23.028 18.528,23.028 C20.738,23.028 23.000,21.013 23.000,18.803 C23.000,18.803 23.000,4.302 23.000,4.302 C23.000,4.302 7.215,23.028 7.215,23.028 Z" id="path-2" class="cls-4" fill-rule="evenodd"/>
    <path d="M42.028,63.031 C42.028,63.031 5.028,63.031 5.028,63.031 C2.162,63.031 -0.000,60.570 -0.000,57.306 C-0.000,57.306 -0.000,21.373 -0.000,21.373 C-0.000,21.038 0.112,20.713 0.318,20.448 C0.318,20.448 15.847,0.602 15.847,0.602 C16.131,0.239 16.567,0.027 17.028,0.027 C17.028,0.027 42.028,0.027 42.028,0.027 C44.912,0.027 48.000,2.147 48.000,5.302 C48.000,5.302 48.000,57.306 48.000,57.306 C48.000,60.249 45.098,63.031 42.028,63.031 ZM3.000,21.891 C3.000,21.891 3.000,57.306 3.000,57.306 C3.000,58.660 3.696,60.031 5.028,60.031 C5.028,60.031 42.028,60.031 42.028,60.031 C43.473,60.031 45.000,58.630 45.000,57.306 C45.000,57.306 45.000,5.302 45.000,5.302 C45.000,4.000 43.431,3.027 42.028,3.027 C42.028,3.027 17.759,3.027 17.759,3.027 C17.759,3.027 3.000,21.891 3.000,21.891 Z" id="path-3" class="cls-5" fill-rule="evenodd"/>
    <path d="M12.657,22.028 C12.657,22.028 1.881,22.028 1.881,22.028 C1.301,22.028 0.772,21.693 0.524,21.169 C0.276,20.644 0.353,20.024 0.722,19.576 C0.722,19.576 16.341,0.565 16.341,0.565 C16.744,0.076 17.409,-0.110 18.006,0.105 C18.602,0.319 19.000,0.883 19.000,1.517 C19.000,1.517 19.000,15.822 19.000,15.822 C19.000,18.838 15.739,22.028 12.657,22.028 ZM5.055,19.028 C5.055,19.028 12.657,19.028 12.657,19.028 C14.063,19.028 16.000,17.170 16.000,15.822 C16.000,15.822 16.000,5.706 16.000,5.706 C16.000,5.706 5.055,19.028 5.055,19.028 Z" id="path-4" class="cls-5" fill-rule="evenodd"/>
    <path d="M28.372,52.756 C27.644,52.756 27.006,52.227 26.892,51.485 C26.765,50.666 27.326,49.900 28.145,49.773 C28.145,49.773 28.145,49.773 28.145,49.773 C28.129,49.773 28.205,49.738 28.217,49.713 C28.219,49.708 28.394,49.284 27.733,48.027 C25.999,44.731 26.542,43.042 27.491,41.850 C26.357,40.646 25.733,38.990 27.412,35.802 C28.150,34.399 27.967,33.885 27.943,33.830 C27.145,33.608 26.692,32.762 26.915,31.963 C27.137,31.167 27.976,30.680 28.776,30.902 C28.998,30.964 30.136,31.338 30.697,32.641 C31.226,33.866 31.014,35.398 30.066,37.198 C29.008,39.211 29.358,39.527 29.940,40.049 C29.971,40.075 30.000,40.103 30.029,40.129 C30.029,40.129 31.403,40.402 31.403,40.402 C32.127,40.546 32.639,41.195 32.610,41.932 C32.582,42.668 32.021,43.276 31.289,43.363 C31.289,43.363 30.014,43.515 30.014,43.515 C29.536,44.028 29.305,44.571 30.388,46.630 C31.317,48.395 31.487,49.888 30.894,51.064 C30.363,52.121 29.328,52.626 28.603,52.738 C28.525,52.750 28.448,52.756 28.372,52.756 Z" id="path-5" class="cls-4" fill-rule="evenodd"/>
    <path d="M17.610,52.755 C17.537,52.755 17.464,52.750 17.389,52.738 C16.664,52.626 15.629,52.121 15.098,51.064 C14.505,49.888 14.675,48.395 15.604,46.630 C16.688,44.571 16.456,44.028 15.979,43.515 C15.979,43.515 14.704,43.363 14.704,43.363 C13.972,43.276 13.411,42.668 13.383,41.932 C13.354,41.195 13.866,40.546 14.589,40.402 C14.589,40.402 15.963,40.129 15.963,40.129 C15.992,40.103 16.021,40.075 16.052,40.049 C16.634,39.527 16.985,39.211 15.927,37.198 C14.979,35.398 14.767,33.865 15.295,32.641 C15.857,31.338 16.994,30.964 17.216,30.902 C17.216,30.902 18.020,33.793 18.020,33.793 C18.020,33.793 18.057,33.789 18.108,33.763 C18.062,33.785 18.048,33.832 18.040,33.854 C18.010,33.949 17.890,34.487 18.581,35.802 C20.259,38.990 19.635,40.646 18.501,41.850 C19.450,43.042 19.994,44.731 18.259,48.027 C17.597,49.286 17.774,49.711 17.776,49.716 C18.596,49.842 19.191,50.638 19.065,51.456 C18.950,52.200 18.336,52.755 17.610,52.755 Z" id="path-6" class="cls-4" fill-rule="evenodd"/>
  </g>
</svg>
