<svg xmlns="http://www.w3.org/2000/svg" xmlns:xlink="http://www.w3.org/1999/xlink" preserveAspectRatio="xMidYMid" width="51" height="66" viewBox="0 0 51 66">
  <defs>
    <style>

      .cls-3 {
        fill: #e56a77;
      }

      .cls-4 {
        fill: #53ecf4;
      }

      .cls-5 {
        fill: #000000;
      }
    </style>
  </defs>
  <g id="group-31svg">
    <path d="M34.486,65.004 C34.486,65.004 13.986,65.004 13.986,65.004 C9.587,65.004 6.000,60.904 6.000,56.503 C6.000,56.503 6.000,12.500 6.000,12.500 C6.000,8.100 9.587,5.000 13.986,5.000 C13.986,5.000 42.986,5.000 42.986,5.000 C47.405,5.000 51.000,8.082 51.000,12.500 C51.000,12.500 51.000,44.433 51.000,44.433 C51.000,44.433 34.486,65.004 34.486,65.004 Z" id="path-1" class="cls-3" fill-rule="evenodd"/>
    <path d="M49.801,46.003 C49.801,46.003 38.486,46.003 38.486,46.003 C36.277,46.003 34.000,47.794 34.000,50.003 C34.000,50.003 34.000,64.504 34.000,64.504 C34.000,64.504 49.801,46.003 49.801,46.003 Z" id="path-2" class="cls-4" fill-rule="evenodd"/>
    <path d="M30.987,63.004 C30.987,63.004 9.987,63.004 9.987,63.004 C4.667,63.004 -0.000,58.564 -0.000,53.503 C-0.000,53.503 -0.000,9.500 -0.000,9.500 C-0.000,4.439 4.667,-0.000 9.987,-0.000 C9.987,-0.000 38.987,-0.000 38.987,-0.000 C44.125,-0.000 48.000,4.084 48.000,9.500 C48.000,9.500 48.000,41.433 48.000,41.433 C48.000,41.765 47.890,42.087 47.686,42.350 C47.686,42.350 32.174,62.421 32.174,62.421 C31.890,62.789 31.452,63.004 30.987,63.004 ZM9.987,3.000 C6.265,3.000 3.000,6.037 3.000,9.500 C3.000,9.500 3.000,53.503 3.000,53.503 C3.000,56.966 6.265,60.004 9.987,60.004 C9.987,60.004 30.251,60.004 30.251,60.004 C30.251,60.004 45.000,40.921 45.000,40.921 C45.000,40.921 45.000,9.500 45.000,9.500 C45.000,5.794 42.415,3.000 38.987,3.000 C38.987,3.000 9.987,3.000 9.987,3.000 Z" id="path-3" class="cls-5" fill-rule="evenodd"/>
    <path d="M30.500,62.789 C30.329,62.789 30.156,62.760 29.990,62.699 C29.395,62.484 29.000,61.921 29.000,61.289 C29.000,61.289 29.000,46.983 29.000,46.983 C29.000,43.762 32.496,41.002 35.358,41.002 C35.358,41.002 46.135,41.002 46.135,41.002 C46.717,41.002 47.246,41.339 47.493,41.866 C47.740,42.393 47.660,43.015 47.288,43.462 C47.288,43.462 31.653,62.249 31.653,62.249 C31.362,62.598 30.937,62.789 30.500,62.789 ZM35.358,44.003 C33.915,44.003 32.000,45.702 32.000,46.983 C32.000,46.983 32.000,57.141 32.000,57.141 C32.000,57.141 42.935,44.003 42.935,44.003 C42.935,44.003 35.358,44.003 35.358,44.003 Z" id="path-4" class="cls-5" fill-rule="evenodd"/>
    <path d="M42.000,22.001 C42.000,22.001 26.000,22.001 26.000,22.001 C25.172,22.001 24.500,21.329 24.500,20.501 C24.500,19.673 25.172,19.001 26.000,19.001 C26.000,19.001 42.000,19.001 42.000,19.001 C42.828,19.001 43.500,19.673 43.500,20.501 C43.500,21.329 42.828,22.001 42.000,22.001 Z" id="path-5" class="cls-5" fill-rule="evenodd"/>
    <path d="M42.000,29.002 C42.000,29.002 26.000,29.002 26.000,29.002 C25.172,29.002 24.500,28.330 24.500,27.501 C24.500,26.673 25.172,26.001 26.000,26.001 C26.000,26.001 42.000,26.001 42.000,26.001 C42.828,26.001 43.500,26.673 43.500,27.501 C43.500,28.330 42.828,29.002 42.000,29.002 Z" id="path-6" class="cls-5" fill-rule="evenodd"/>
    <path d="M42.000,36.002 C42.000,36.002 26.000,36.002 26.000,36.002 C25.172,36.002 24.500,35.330 24.500,34.502 C24.500,33.674 25.172,33.002 26.000,33.002 C26.000,33.002 42.000,33.002 42.000,33.002 C42.828,33.002 43.500,33.674 43.500,34.502 C43.500,35.330 42.828,36.002 42.000,36.002 Z" id="path-7" class="cls-5" fill-rule="evenodd"/>
  </g>
</svg>
