<svg xmlns="http://www.w3.org/2000/svg" xmlns:xlink="http://www.w3.org/1999/xlink" preserveAspectRatio="xMidYMid" width="58" height="65" viewBox="0 0 58 65">
  <defs>
    <style>

      .cls-3 {
        fill: #99746a;
      }

      .cls-4 {
        fill: #000000;
      }

      .cls-5 {
        fill: #ff917b;
      }
    </style>
  </defs>
  <g id="group-34svg">
    <path d="M58.000,12.010 C58.000,7.591 54.418,4.009 50.000,4.009 C50.000,4.009 15.000,4.009 15.000,4.009 C10.582,4.009 7.000,7.591 7.000,12.010 C7.000,12.010 7.000,56.013 7.000,56.013 C7.000,60.432 10.582,64.013 15.000,64.013 C15.000,64.013 50.000,64.013 50.000,64.013 C54.418,64.013 58.000,60.432 58.000,56.013 C58.000,56.013 58.000,12.010 58.000,12.010 Z" id="path-1" class="cls-3" fill-rule="evenodd"/>
    <path d="M44.500,63.013 C44.500,63.013 9.500,63.013 9.500,63.013 C4.262,63.013 -0.000,58.751 -0.000,53.513 C-0.000,53.513 -0.000,9.510 -0.000,9.510 C-0.000,4.271 4.262,0.009 9.500,0.009 C9.500,0.009 44.500,0.009 44.500,0.009 C49.738,0.009 54.000,4.271 54.000,9.510 C54.000,9.510 54.000,53.513 54.000,53.513 C54.000,58.751 49.738,63.013 44.500,63.013 ZM9.500,3.009 C5.916,3.009 3.000,5.925 3.000,9.510 C3.000,9.510 3.000,53.513 3.000,53.513 C3.000,57.097 5.916,60.013 9.500,60.013 C9.500,60.013 44.500,60.013 44.500,60.013 C48.084,60.013 51.000,57.097 51.000,53.513 C51.000,53.513 51.000,9.510 51.000,9.510 C51.000,5.925 48.084,3.009 44.500,3.009 C44.500,3.009 9.500,3.009 9.500,3.009 Z" id="path-2" class="cls-4" fill-rule="evenodd"/>
    <path d="M27.000,38.721 C27.000,40.511 30.002,41.567 31.477,40.552 C31.477,40.552 40.829,34.460 40.829,34.460 C42.090,33.535 42.256,31.606 40.863,30.895 C40.863,30.895 31.109,26.328 31.109,26.328 C29.630,25.567 27.000,26.642 27.000,28.304 C27.000,28.304 27.000,38.721 27.000,38.721 Z" id="path-3" class="cls-5" fill-rule="evenodd"/>
    <path d="M24.342,40.447 C24.342,40.447 24.342,40.447 24.342,40.447 C22.245,40.447 20.000,38.949 20.000,36.720 C20.000,36.720 20.000,26.305 20.000,26.305 C20.000,24.076 22.219,22.579 24.291,22.579 C24.931,22.579 25.548,22.722 26.076,22.994 C26.076,22.994 35.574,27.542 35.574,27.542 C36.666,28.099 37.328,29.091 37.424,30.280 C37.528,31.578 36.922,32.876 35.841,33.669 C35.841,33.669 26.554,39.804 26.554,39.804 C25.950,40.219 25.177,40.447 24.342,40.447 ZM24.291,25.579 C23.625,25.579 23.000,26.032 23.000,26.305 C23.000,26.305 23.000,36.720 23.000,36.720 C23.000,36.994 23.627,37.447 24.342,37.447 C24.342,37.447 24.342,37.447 24.342,37.447 C24.564,37.447 24.754,37.400 24.877,37.316 C24.877,37.316 34.127,31.207 34.127,31.207 C34.344,31.046 34.451,30.737 34.434,30.521 C34.419,30.344 34.334,30.277 34.244,30.231 C34.244,30.231 24.742,25.681 24.742,25.681 C24.599,25.607 24.456,25.579 24.291,25.579 Z" id="path-4" class="cls-4" fill-rule="evenodd"/>
  </g>
</svg>
