<svg xmlns="http://www.w3.org/2000/svg" xmlns:xlink="http://www.w3.org/1999/xlink" preserveAspectRatio="xMidYMid" width="50" height="66" viewBox="0 0 50 66">
  <defs>
    <style>

      .cls-3 {
        fill: #e56a77;
      }

      .cls-4 {
        fill: #53ecf4;
      }

      .cls-5 {
        fill: #000000;
      }

      .cls-7 {
        fill: #ffffff;
      }
    </style>
  </defs>
  <g id="group-12svg">
    <path d="M33.585,64.995 C33.585,64.995 13.085,64.995 13.085,64.995 C8.685,64.995 5.000,60.895 5.000,56.495 C5.000,56.495 5.000,12.492 5.000,12.492 C5.000,8.091 8.685,4.991 13.085,4.991 C13.085,4.991 42.085,4.991 42.085,4.991 C46.503,4.991 50.000,8.073 50.000,12.492 C50.000,12.492 50.000,44.425 50.000,44.425 C50.000,44.425 33.585,64.995 33.585,64.995 Z" id="path-1" class="cls-3" fill-rule="evenodd"/>
    <path d="M48.899,45.994 C48.899,45.994 37.585,45.994 37.585,45.994 C35.375,45.994 34.000,47.785 34.000,49.994 C34.000,49.994 34.000,64.495 34.000,64.495 C34.000,64.495 48.899,45.994 48.899,45.994 Z" id="path-2" class="cls-4" fill-rule="evenodd"/>
    <path d="M30.085,62.995 C30.085,62.995 9.085,62.995 9.085,62.995 C3.991,62.995 -0.000,58.822 -0.000,53.495 C-0.000,53.495 -0.000,9.491 -0.000,9.491 C-0.000,4.164 3.991,-0.009 9.085,-0.009 C9.085,-0.009 38.085,-0.009 38.085,-0.009 C43.459,-0.009 48.000,4.342 48.000,9.491 C48.000,9.491 48.000,41.424 48.000,41.424 C48.000,41.770 47.880,42.106 47.661,42.374 C47.661,42.374 31.246,62.444 31.246,62.444 C30.961,62.793 30.535,62.995 30.085,62.995 ZM9.085,2.991 C5.616,2.991 3.000,5.785 3.000,9.491 C3.000,9.491 3.000,53.495 3.000,53.495 C3.000,57.201 5.616,59.995 9.085,59.995 C9.085,59.995 29.374,59.995 29.374,59.995 C29.374,59.995 45.000,40.889 45.000,40.889 C45.000,40.889 45.000,9.491 45.000,9.491 C45.000,6.028 41.769,2.991 38.085,2.991 C38.085,2.991 9.085,2.991 9.085,2.991 Z" id="path-3" class="cls-5" fill-rule="evenodd"/>
    <path d="M30.499,62.780 C30.336,62.780 30.171,62.754 30.010,62.698 C29.406,62.489 29.000,61.920 29.000,61.280 C29.000,61.280 29.000,46.975 29.000,46.975 C29.000,44.145 31.241,40.994 34.456,40.994 C34.456,40.994 45.232,40.994 45.232,40.994 C45.807,40.994 46.330,41.321 46.581,41.837 C46.832,42.353 46.767,42.967 46.413,43.420 C46.413,43.420 31.680,62.206 31.680,62.206 C31.391,62.575 30.952,62.780 30.499,62.780 ZM34.456,43.994 C33.217,43.994 32.000,45.470 32.000,46.975 C32.000,46.975 32.000,56.936 32.000,56.936 C32.000,56.936 42.150,43.994 42.150,43.994 C42.150,43.994 34.456,43.994 34.456,43.994 Z" id="path-4" class="cls-5" fill-rule="evenodd"/>
    <path d="M30.134,38.193 C30.134,38.193 42.015,22.698 42.015,22.698 C42.015,22.698 30.235,22.622 30.235,22.622 C30.235,22.622 41.913,38.394 41.913,38.394 C41.913,38.394 30.134,38.193 30.134,38.193 Z" id="path-5" class="cls-7" fill-rule="evenodd"/>
    <path d="M39.913,37.993 C39.904,37.993 39.895,37.993 39.887,37.993 C39.887,37.993 28.108,37.742 28.108,37.742 C27.541,37.732 27.029,37.380 26.783,36.869 C26.537,36.359 26.599,35.742 26.943,35.292 C26.943,35.292 32.172,28.466 32.172,28.466 C32.172,28.466 27.029,21.518 27.029,21.518 C26.691,21.061 26.640,20.451 26.897,19.944 C27.155,19.438 27.688,19.110 28.245,19.123 C28.245,19.123 40.024,19.199 40.024,19.199 C40.594,19.203 41.112,19.527 41.362,20.039 C41.612,20.551 41.551,21.159 41.205,21.611 C41.205,21.611 35.928,28.493 35.928,28.493 C35.928,28.493 40.995,35.336 40.995,35.336 C41.265,35.607 41.433,36.031 41.433,36.444 C41.433,37.272 40.761,37.993 39.933,37.993 C39.926,37.993 39.919,37.993 39.913,37.993 ZM31.135,34.744 C31.135,34.744 36.897,34.843 36.897,34.843 C36.897,34.843 34.029,30.970 34.029,30.970 C34.029,30.970 31.135,34.744 31.135,34.744 ZM31.226,22.142 C31.226,22.142 34.071,25.984 34.071,25.984 C34.071,25.984 36.989,22.179 36.989,22.179 C36.989,22.179 31.226,22.142 31.226,22.142 Z" id="path-6" class="cls-5" fill-rule="evenodd"/>
  </g>
</svg>
