<svg xmlns="http://www.w3.org/2000/svg" xmlns:xlink="http://www.w3.org/1999/xlink" preserveAspectRatio="xMidYMid" width="59" height="66" viewBox="0 0 59 66">
  <defs>
    <style>

      .cls-3 {
        fill: #e56a77;
      }

      .cls-4 {
        fill: #000000;
      }

      .cls-11 {
        fill: #edc951;
      }
    </style>
  </defs>
  <g id="group-56svg">
    <path d="M59.000,56.999 C59.000,61.418 55.418,65.000 51.000,65.000 C51.000,65.000 15.000,65.000 15.000,65.000 C10.581,65.000 7.000,61.418 7.000,56.999 C7.000,56.999 7.000,12.996 7.000,12.996 C7.000,8.578 10.581,4.996 15.000,4.996 C15.000,4.996 51.000,4.996 51.000,4.996 C55.418,4.996 59.000,8.578 59.000,12.996 C59.000,12.996 59.000,56.999 59.000,56.999 Z" id="path-1" class="cls-3" fill-rule="evenodd"/>
    <path d="M45.500,63.000 C45.500,63.000 9.500,63.000 9.500,63.000 C4.262,63.000 -0.000,58.738 -0.000,53.499 C-0.000,53.499 -0.000,9.496 -0.000,9.496 C-0.000,4.257 4.262,-0.005 9.500,-0.005 C9.500,-0.005 45.500,-0.005 45.500,-0.005 C50.738,-0.005 55.000,4.257 55.000,9.496 C55.000,9.496 55.000,53.499 55.000,53.499 C55.000,58.738 50.738,63.000 45.500,63.000 ZM9.500,2.996 C5.916,2.996 3.000,5.912 3.000,9.496 C3.000,9.496 3.000,53.499 3.000,53.499 C3.000,57.083 5.916,60.000 9.500,60.000 C9.500,60.000 45.500,60.000 45.500,60.000 C49.084,60.000 52.000,57.083 52.000,53.499 C52.000,53.499 52.000,9.496 52.000,9.496 C52.000,5.912 49.084,2.996 45.500,2.996 C45.500,2.996 9.500,2.996 9.500,2.996 Z" id="path-2" class="cls-4" fill-rule="evenodd"/>
    <path d="M4.000,19.997 C4.000,19.997 2.000,19.997 2.000,19.997 C1.171,19.997 0.500,19.325 0.500,18.497 C0.500,17.669 1.171,16.997 2.000,16.997 C2.000,16.997 4.000,16.997 4.000,16.997 C4.829,16.997 5.500,17.669 5.500,18.497 C5.500,19.325 4.829,19.997 4.000,19.997 Z" id="path-3" class="cls-4" fill-rule="evenodd"/>
    <path d="M51.000,19.997 C51.000,19.997 4.000,19.997 4.000,19.997 C3.170,19.997 2.500,19.327 2.500,18.497 C2.500,17.667 3.170,16.997 4.000,16.997 C4.000,16.997 51.000,16.997 51.000,16.997 C51.830,16.997 52.500,17.667 52.500,18.497 C52.500,19.327 51.830,19.997 51.000,19.997 Z" id="path-4" class="cls-4" fill-rule="evenodd"/>
    <path d="M53.000,19.997 C53.000,19.997 51.000,19.997 51.000,19.997 C50.171,19.997 49.500,19.325 49.500,18.497 C49.500,17.669 50.171,16.997 51.000,16.997 C51.000,16.997 53.000,16.997 53.000,16.997 C53.829,16.997 54.500,17.669 54.500,18.497 C54.500,19.325 53.829,19.997 53.000,19.997 Z" id="path-5" class="cls-4" fill-rule="evenodd"/>
    <path d="M16.722,10.669 C16.722,12.080 15.577,13.225 14.166,13.225 C12.754,13.225 11.610,12.080 11.610,10.669 C11.610,9.257 12.754,8.113 14.166,8.113 C15.577,8.113 16.722,9.257 16.722,10.669 Z" id="path-6" class="cls-4" fill-rule="evenodd"/>
    <path d="M25.921,10.669 C25.921,12.080 24.777,13.225 23.366,13.225 C21.955,13.225 20.811,12.080 20.811,10.669 C20.811,9.257 21.955,8.113 23.366,8.113 C24.777,8.113 25.921,9.257 25.921,10.669 Z" id="path-7" class="cls-4" fill-rule="evenodd"/>
    <path d="M34.099,10.669 C34.099,12.080 32.955,13.225 31.544,13.225 C30.132,13.225 28.988,12.080 28.988,10.669 C28.988,9.257 30.132,8.113 31.544,8.113 C32.955,8.113 34.099,9.257 34.099,10.669 Z" id="path-8" class="cls-4" fill-rule="evenodd"/>
    <path d="M31.647,33.677 C31.647,35.206 30.407,36.446 28.877,36.446 C27.348,36.446 26.107,35.206 26.107,33.677 C26.107,32.146 27.348,30.906 28.877,30.906 C30.407,30.906 31.647,32.146 31.647,33.677 Z" id="path-9" class="cls-11" fill-rule="evenodd"/>
    <path d="M41.191,51.649 C40.463,51.649 39.825,51.119 39.710,50.378 C39.584,49.560 40.144,48.796 40.960,48.668 C40.960,48.668 40.959,48.668 40.959,48.668 C40.947,48.668 41.144,48.612 41.206,48.477 C41.232,48.420 41.441,47.872 40.649,46.365 C38.659,42.582 39.362,40.720 40.470,39.401 C39.152,38.069 38.367,36.246 40.282,32.606 C40.956,31.325 41.041,30.509 40.896,30.172 C40.865,30.102 40.791,30.010 40.791,30.010 C39.993,29.789 39.526,28.961 39.748,28.162 C39.970,27.365 40.800,26.899 41.595,27.119 C42.250,27.302 43.182,27.900 43.650,28.984 C44.227,30.319 43.986,32.007 42.937,34.003 C41.650,36.447 42.124,36.872 42.839,37.515 C42.888,37.559 42.936,37.602 42.983,37.645 C42.983,37.645 44.609,37.967 44.609,37.967 C45.333,38.110 45.845,38.759 45.816,39.496 C45.788,40.234 45.228,40.841 44.495,40.928 C44.495,40.928 42.963,41.111 42.963,41.111 C42.343,41.755 41.957,42.408 43.304,44.968 C44.331,46.920 44.525,48.557 43.881,49.837 C43.129,51.329 41.594,51.606 41.421,51.632 C41.344,51.644 41.267,51.649 41.191,51.649 Z" id="path-10" class="cls-11" fill-rule="evenodd"/>
    <path d="M16.917,51.649 C16.840,51.649 16.763,51.644 16.685,51.632 C16.512,51.606 14.978,51.329 14.226,49.837 C13.582,48.557 13.775,46.920 14.802,44.968 C16.150,42.408 15.764,41.755 15.144,41.111 C15.144,41.111 13.612,40.928 13.612,40.928 C12.879,40.841 12.319,40.234 12.291,39.496 C12.262,38.759 12.774,38.110 13.498,37.967 C13.498,37.967 15.123,37.645 15.123,37.645 C15.171,37.602 15.219,37.559 15.267,37.515 C15.983,36.872 16.456,36.447 15.170,34.003 C14.120,32.007 13.880,30.319 14.456,28.984 C14.925,27.900 15.856,27.302 16.512,27.119 C16.512,27.119 17.315,30.010 17.315,30.010 C17.315,30.010 17.385,29.988 17.385,29.988 C17.347,30.004 17.251,30.058 17.199,30.204 C17.138,30.372 17.004,31.046 17.825,32.606 C19.740,36.246 18.954,38.069 17.637,39.401 C18.745,40.720 19.448,42.582 17.457,46.365 C16.665,47.872 16.874,48.420 16.900,48.477 C16.966,48.621 17.185,48.674 17.186,48.675 C18.005,48.801 18.544,49.563 18.418,50.382 C18.304,51.123 17.647,51.649 16.917,51.649 Z" id="path-11" class="cls-11" fill-rule="evenodd"/>
    <path d="M31.646,43.381 C31.646,41.852 30.407,40.611 28.877,40.611 C27.348,40.611 26.107,41.852 26.107,43.381 C26.107,44.911 27.348,46.151 28.877,46.151 C29.030,46.151 29.177,46.130 29.323,46.106 C29.002,47.795 28.528,49.824 28.528,49.824 C29.929,49.272 31.002,46.534 31.456,44.827 C31.647,44.216 31.646,43.818 31.646,43.381 Z" id="path-12" class="cls-11" fill-rule="evenodd"/>
  </g>
</svg>
