<svg xmlns="http://www.w3.org/2000/svg" xmlns:xlink="http://www.w3.org/1999/xlink" preserveAspectRatio="xMidYMid" width="59" height="66" viewBox="0 0 59 66">
  <defs>
    <style>

      .cls-3 {
        fill: #edc951;
      }

      .cls-4 {
        fill: #8b71b5;
      }

      .cls-5 {
        fill: #000000;
      }
    </style>
  </defs>
  <g id="group-84svg">
    <path d="M23.077,4.991 C23.077,4.991 47.577,4.991 47.577,4.991 C49.777,4.991 52.000,6.291 52.000,8.492 C52.000,8.492 52.000,60.495 52.000,60.495 C52.000,62.696 49.777,64.996 47.577,64.996 C47.577,64.996 10.577,64.996 10.577,64.996 C8.368,64.996 7.000,62.704 7.000,60.495 C7.000,60.495 7.000,24.562 7.000,24.562 C7.000,24.562 23.077,4.991 23.077,4.991 Z" id="path-1" class="cls-3" fill-rule="evenodd"/>
    <path d="M7.763,22.993 C7.763,22.993 19.077,22.993 19.077,22.993 C21.286,22.993 23.000,21.202 23.000,18.992 C23.000,18.992 23.000,4.491 23.000,4.491 C23.000,4.491 7.763,22.993 7.763,22.993 Z" id="path-2" class="cls-4" fill-rule="evenodd"/>
    <path d="M42.577,62.996 C42.577,62.996 5.577,62.996 5.577,62.996 C2.502,62.996 -0.000,60.528 -0.000,57.495 C-0.000,57.495 -0.000,21.562 -0.000,21.562 C-0.000,21.221 0.116,20.890 0.329,20.624 C0.329,20.624 16.406,0.554 16.406,0.554 C16.691,0.198 17.122,-0.009 17.577,-0.009 C17.577,-0.009 42.577,-0.009 42.577,-0.009 C45.567,-0.009 48.000,2.459 48.000,5.492 C48.000,5.492 48.000,57.495 48.000,57.495 C48.000,60.528 45.567,62.996 42.577,62.996 ZM3.000,22.088 C3.000,22.088 3.000,57.495 3.000,57.495 C3.000,58.851 4.180,59.995 5.577,59.995 C5.577,59.995 42.577,59.995 42.577,59.995 C43.935,59.995 45.000,58.898 45.000,57.495 C45.000,57.495 45.000,5.492 45.000,5.492 C45.000,4.089 43.935,2.991 42.577,2.991 C42.577,2.991 18.297,2.991 18.297,2.991 C18.297,2.991 3.000,22.088 3.000,22.088 Z" id="path-3" class="cls-5" fill-rule="evenodd"/>
    <path d="M13.206,21.993 C13.206,21.993 2.430,21.993 2.430,21.993 C1.852,21.993 1.327,21.662 1.077,21.141 C0.828,20.621 0.898,20.004 1.260,19.554 C1.260,19.554 16.330,0.768 16.330,0.768 C16.728,0.271 17.395,0.076 17.997,0.291 C18.598,0.502 19.000,1.069 19.000,1.706 C19.000,1.706 19.000,16.012 19.000,16.012 C19.000,19.086 16.184,21.993 13.206,21.993 ZM5.556,18.992 C5.556,18.992 13.206,18.992 13.206,18.992 C14.538,18.992 16.000,17.433 16.000,16.012 C16.000,16.012 16.000,5.973 16.000,5.973 C16.000,5.973 5.556,18.992 5.556,18.992 Z" id="path-4" class="cls-5" fill-rule="evenodd"/>
    <path d="M57.000,35.994 C57.000,38.203 55.209,39.994 53.000,39.994 C53.000,39.994 34.000,39.994 34.000,39.994 C31.791,39.994 30.000,38.203 30.000,35.994 C30.000,35.994 30.000,26.993 30.000,26.993 C30.000,24.784 31.791,22.993 34.000,22.993 C34.000,22.993 53.000,22.993 53.000,22.993 C55.209,22.993 57.000,24.784 57.000,26.993 C57.000,26.993 57.000,35.994 57.000,35.994 Z" id="path-5" class="cls-4" fill-rule="evenodd"/>
    <path d="M53.500,40.994 C53.500,40.994 34.500,40.994 34.500,40.994 C31.467,40.994 29.000,38.526 29.000,35.494 C29.000,35.494 29.000,26.493 29.000,26.493 C29.000,23.461 31.467,20.993 34.500,20.993 C34.500,20.993 53.500,20.993 53.500,20.993 C56.533,20.993 59.000,23.461 59.000,26.493 C59.000,26.493 59.000,35.494 59.000,35.494 C59.000,38.526 56.533,40.994 53.500,40.994 ZM34.500,23.993 C33.122,23.993 32.000,25.114 32.000,26.493 C32.000,26.493 32.000,35.494 32.000,35.494 C32.000,36.873 33.122,37.994 34.500,37.994 C34.500,37.994 53.500,37.994 53.500,37.994 C54.878,37.994 56.000,36.873 56.000,35.494 C56.000,35.494 56.000,26.493 56.000,26.493 C56.000,25.114 54.878,23.993 53.500,23.993 C53.500,23.993 34.500,23.993 34.500,23.993 Z" id="path-6" class="cls-5" fill-rule="evenodd"/>
    <path d="M40.837,30.667 C40.837,30.667 39.255,30.667 39.255,30.667 C39.255,30.667 39.255,35.867 39.255,35.867 C39.255,36.167 39.188,36.388 39.055,36.533 C38.921,36.679 38.748,36.752 38.537,36.752 C38.322,36.752 38.147,36.677 38.012,36.531 C37.877,36.384 37.810,36.164 37.810,35.867 C37.810,35.867 37.810,30.667 37.810,30.667 C37.810,30.667 36.227,30.667 36.227,30.667 C35.980,30.667 35.796,30.612 35.676,30.503 C35.555,30.394 35.495,30.249 35.495,30.071 C35.495,29.886 35.558,29.739 35.683,29.632 C35.809,29.524 35.990,29.470 36.227,29.470 C36.227,29.470 40.837,29.470 40.837,29.470 C41.087,29.470 41.274,29.526 41.396,29.636 C41.518,29.747 41.579,29.892 41.579,30.071 C41.579,30.249 41.517,30.394 41.394,30.503 C41.270,30.612 41.084,30.667 40.837,30.667 Z" id="path-7" class="cls-3" fill-rule="evenodd"/>
    <path d="M42.175,35.238 C42.175,35.238 43.776,32.898 43.776,32.898 C43.776,32.898 42.429,30.817 42.429,30.817 C42.302,30.616 42.207,30.442 42.143,30.298 C42.080,30.153 42.048,30.015 42.048,29.880 C42.048,29.743 42.109,29.620 42.231,29.511 C42.353,29.403 42.502,29.349 42.678,29.349 C42.879,29.349 43.037,29.407 43.149,29.526 C43.261,29.646 43.416,29.866 43.615,30.189 C43.615,30.189 44.689,31.927 44.689,31.927 C44.689,31.927 45.837,30.189 45.837,30.189 C45.931,30.042 46.012,29.917 46.079,29.812 C46.145,29.708 46.209,29.622 46.271,29.554 C46.333,29.485 46.402,29.433 46.479,29.399 C46.556,29.364 46.644,29.349 46.745,29.349 C46.927,29.349 47.076,29.403 47.192,29.511 C47.308,29.620 47.365,29.751 47.365,29.899 C47.365,30.118 47.240,30.415 46.989,30.788 C46.989,30.788 45.578,32.898 45.578,32.898 C45.578,32.898 47.097,35.238 47.097,35.238 C47.233,35.443 47.332,35.613 47.395,35.748 C47.457,35.882 47.487,36.011 47.487,36.130 C47.487,36.246 47.459,36.349 47.404,36.443 C47.349,36.539 47.271,36.613 47.170,36.668 C47.069,36.724 46.955,36.752 46.828,36.752 C46.691,36.752 46.576,36.722 46.481,36.666 C46.387,36.609 46.310,36.539 46.252,36.453 C46.193,36.369 46.084,36.205 45.925,35.960 C45.925,35.960 44.665,33.978 44.665,33.978 C44.665,33.978 43.327,36.019 43.327,36.019 C43.223,36.181 43.149,36.294 43.105,36.361 C43.061,36.425 43.008,36.490 42.946,36.550 C42.884,36.613 42.811,36.662 42.727,36.697 C42.642,36.734 42.542,36.752 42.429,36.752 C42.253,36.752 42.107,36.697 41.992,36.589 C41.876,36.482 41.818,36.326 41.818,36.121 C41.818,35.880 41.937,35.585 42.175,35.238 Z" id="path-8" class="cls-3" fill-rule="evenodd"/>
    <path d="M53.127,30.667 C53.127,30.667 51.545,30.667 51.545,30.667 C51.545,30.667 51.545,35.867 51.545,35.867 C51.545,36.167 51.478,36.388 51.345,36.533 C51.211,36.679 51.039,36.752 50.827,36.752 C50.612,36.752 50.437,36.677 50.302,36.531 C50.167,36.384 50.100,36.164 50.100,35.867 C50.100,35.867 50.100,30.667 50.100,30.667 C50.100,30.667 48.518,30.667 48.518,30.667 C48.270,30.667 48.086,30.612 47.966,30.503 C47.845,30.394 47.785,30.249 47.785,30.071 C47.785,29.886 47.848,29.739 47.973,29.632 C48.099,29.524 48.280,29.470 48.518,29.470 C48.518,29.470 53.127,29.470 53.127,29.470 C53.377,29.470 53.564,29.526 53.686,29.636 C53.808,29.747 53.869,29.892 53.869,30.071 C53.869,30.249 53.807,30.394 53.684,30.503 C53.560,30.612 53.374,30.667 53.127,30.667 Z" id="path-9" class="cls-3" fill-rule="evenodd"/>
  </g>
</svg>
