<svg xmlns="http://www.w3.org/2000/svg" xmlns:xlink="http://www.w3.org/1999/xlink" preserveAspectRatio="xMidYMid" width="60" height="66" viewBox="0 0 60 66">
  <defs>
    <style>

      .cls-3 {
        fill: #edc951;
      }

      .cls-4 {
        fill: #8b71b5;
      }

      .cls-5 {
        fill: #000000;
      }
    </style>
  </defs>
  <g id="group-77svg">
    <path d="M22.538,5.014 C22.538,5.014 47.038,5.014 47.038,5.014 C49.238,5.014 51.000,6.314 51.000,8.514 C51.000,8.514 51.000,60.518 51.000,60.518 C51.000,62.718 49.238,65.018 47.038,65.018 C47.038,65.018 10.038,65.018 10.038,65.018 C7.829,65.018 6.000,62.727 6.000,60.518 C6.000,60.518 6.000,24.584 6.000,24.584 C6.000,24.584 22.538,5.014 22.538,5.014 Z" id="path-1" class="cls-3" fill-rule="evenodd"/>
    <path d="M7.225,23.015 C7.225,23.015 18.538,23.015 18.538,23.015 C20.748,23.015 23.000,21.224 23.000,19.015 C23.000,19.015 23.000,4.514 23.000,4.514 C23.000,4.514 7.225,23.015 7.225,23.015 Z" id="path-2" class="cls-4" fill-rule="evenodd"/>
    <path d="M42.038,63.018 C42.038,63.018 5.038,63.018 5.038,63.018 C2.119,63.018 -0.000,60.704 -0.000,57.517 C-0.000,57.517 -0.000,21.584 -0.000,21.584 C-0.000,21.252 0.110,20.929 0.313,20.666 C0.313,20.666 15.852,0.595 15.852,0.595 C16.136,0.228 16.574,0.013 17.038,0.013 C17.038,0.013 42.038,0.013 42.038,0.013 C45.214,0.013 48.000,2.584 48.000,5.514 C48.000,5.514 48.000,57.517 48.000,57.517 C48.000,60.447 45.214,63.018 42.038,63.018 ZM3.000,22.097 C3.000,22.097 3.000,57.517 3.000,57.517 C3.000,58.671 3.534,60.018 5.038,60.018 C5.038,60.018 42.038,60.018 42.038,60.018 C43.533,60.018 45.000,58.779 45.000,57.517 C45.000,57.517 45.000,5.514 45.000,5.514 C45.000,4.252 43.533,3.013 42.038,3.013 C42.038,3.013 17.773,3.013 17.773,3.013 C17.773,3.013 3.000,22.097 3.000,22.097 Z" id="path-3" class="cls-5" fill-rule="evenodd"/>
    <path d="M12.667,22.015 C12.667,22.015 1.891,22.015 1.891,22.015 C1.309,22.015 0.779,21.679 0.532,21.151 C0.285,20.625 0.365,20.003 0.737,19.556 C0.737,19.556 16.347,0.769 16.347,0.769 C16.750,0.282 17.415,0.102 18.010,0.317 C18.603,0.532 19.000,1.096 19.000,1.728 C19.000,1.728 19.000,16.034 19.000,16.034 C19.000,18.996 15.804,22.015 12.667,22.015 ZM5.087,19.015 C5.087,19.015 12.667,19.015 12.667,19.015 C14.100,19.015 16.000,17.315 16.000,16.034 C16.000,16.034 16.000,5.881 16.000,5.881 C16.000,5.881 5.087,19.015 5.087,19.015 Z" id="path-4" class="cls-5" fill-rule="evenodd"/>
    <path d="M58.000,39.016 C58.000,41.225 56.209,43.016 54.000,43.016 C54.000,43.016 35.000,43.016 35.000,43.016 C32.791,43.016 31.000,41.225 31.000,39.016 C31.000,39.016 31.000,30.015 31.000,30.015 C31.000,27.806 32.791,26.015 35.000,26.015 C35.000,26.015 54.000,26.015 54.000,26.015 C56.209,26.015 58.000,27.806 58.000,30.015 C58.000,30.015 58.000,39.016 58.000,39.016 Z" id="path-5" class="cls-4" fill-rule="evenodd"/>
    <path d="M54.500,44.016 C54.500,44.016 35.500,44.016 35.500,44.016 C32.468,44.016 30.000,41.548 30.000,38.516 C30.000,38.516 30.000,29.515 30.000,29.515 C30.000,26.483 32.468,24.015 35.500,24.015 C35.500,24.015 54.500,24.015 54.500,24.015 C57.532,24.015 60.000,26.483 60.000,29.515 C60.000,29.515 60.000,38.516 60.000,38.516 C60.000,41.548 57.532,44.016 54.500,44.016 ZM35.500,27.015 C34.121,27.015 33.000,28.136 33.000,29.515 C33.000,29.515 33.000,38.516 33.000,38.516 C33.000,39.895 34.121,41.016 35.500,41.016 C35.500,41.016 54.500,41.016 54.500,41.016 C55.879,41.016 57.000,39.895 57.000,38.516 C57.000,38.516 57.000,29.515 57.000,29.515 C57.000,28.136 55.879,27.015 54.500,27.015 C54.500,27.015 35.500,27.015 35.500,27.015 Z" id="path-6" class="cls-5" fill-rule="evenodd"/>
    <path d="M35.031,31.492 C35.031,31.492 36.921,31.492 36.921,31.492 C37.413,31.492 37.834,31.539 38.186,31.629 C38.537,31.721 38.856,31.890 39.143,32.143 C39.889,32.779 40.261,33.750 40.261,35.053 C40.261,35.483 40.224,35.875 40.148,36.229 C40.074,36.584 39.958,36.905 39.802,37.188 C39.645,37.473 39.445,37.729 39.201,37.953 C39.010,38.125 38.800,38.264 38.571,38.368 C38.344,38.473 38.099,38.545 37.837,38.588 C37.574,38.629 37.279,38.651 36.950,38.651 C36.950,38.651 35.060,38.651 35.060,38.651 C34.797,38.651 34.599,38.612 34.465,38.532 C34.332,38.451 34.244,38.340 34.204,38.194 C34.163,38.049 34.143,37.862 34.143,37.631 C34.143,37.631 34.143,32.381 34.143,32.381 C34.143,32.068 34.213,31.842 34.353,31.703 C34.493,31.562 34.719,31.492 35.031,31.492 ZM35.593,32.641 C35.593,32.641 35.593,37.498 35.593,37.498 C35.593,37.498 36.691,37.498 36.691,37.498 C36.933,37.498 37.121,37.492 37.258,37.479 C37.395,37.467 37.536,37.434 37.683,37.381 C37.829,37.330 37.956,37.256 38.063,37.162 C38.549,36.752 38.791,36.045 38.791,35.043 C38.791,34.336 38.685,33.807 38.472,33.455 C38.258,33.104 37.995,32.881 37.683,32.783 C37.370,32.687 36.993,32.641 36.550,32.641 C36.550,32.641 35.593,32.641 35.593,32.641 Z" id="path-7" class="cls-3" fill-rule="evenodd"/>
    <path d="M44.684,31.371 C45.427,31.371 46.064,31.521 46.597,31.822 C47.129,32.123 47.531,32.551 47.805,33.105 C48.078,33.662 48.215,34.313 48.215,35.063 C48.215,35.615 48.141,36.119 47.990,36.571 C47.841,37.024 47.616,37.416 47.316,37.748 C47.018,38.080 46.649,38.334 46.213,38.510 C45.777,38.686 45.277,38.774 44.714,38.774 C44.154,38.774 43.653,38.682 43.210,38.502 C42.768,38.321 42.398,38.067 42.101,37.739 C41.806,37.409 41.582,37.014 41.431,36.551 C41.279,36.090 41.203,35.590 41.203,35.053 C41.203,34.502 41.282,33.998 41.440,33.539 C41.598,33.080 41.827,32.689 42.126,32.367 C42.426,32.045 42.790,31.797 43.220,31.627 C43.649,31.455 44.138,31.371 44.684,31.371 ZM46.745,35.053 C46.745,34.527 46.661,34.074 46.491,33.690 C46.322,33.307 46.080,33.016 45.767,32.818 C45.452,32.621 45.092,32.523 44.684,32.523 C44.395,32.523 44.127,32.578 43.882,32.685 C43.636,32.795 43.424,32.955 43.247,33.162 C43.069,33.371 42.930,33.637 42.827,33.961 C42.725,34.285 42.673,34.649 42.673,35.053 C42.673,35.459 42.725,35.826 42.827,36.156 C42.930,36.485 43.074,36.758 43.262,36.973 C43.448,37.190 43.663,37.352 43.906,37.459 C44.148,37.567 44.415,37.621 44.704,37.621 C45.075,37.621 45.416,37.528 45.728,37.342 C46.038,37.156 46.285,36.871 46.470,36.483 C46.653,36.096 46.745,35.619 46.745,35.053 Z" id="path-8" class="cls-3" fill-rule="evenodd"/>
    <path d="M55.554,36.391 C55.554,36.617 55.498,36.865 55.386,37.129 C55.273,37.395 55.097,37.657 54.855,37.911 C54.615,38.166 54.308,38.375 53.933,38.534 C53.559,38.694 53.122,38.774 52.624,38.774 C52.247,38.774 51.903,38.737 51.594,38.666 C51.285,38.594 51.004,38.483 50.752,38.330 C50.499,38.180 50.268,37.981 50.056,37.733 C49.867,37.508 49.706,37.256 49.572,36.979 C49.439,36.699 49.339,36.403 49.272,36.088 C49.205,35.772 49.172,35.436 49.172,35.082 C49.172,34.506 49.256,33.990 49.424,33.533 C49.591,33.078 49.831,32.687 50.144,32.363 C50.456,32.041 50.822,31.793 51.242,31.625 C51.662,31.455 52.110,31.371 52.585,31.371 C53.165,31.371 53.681,31.486 54.133,31.717 C54.586,31.949 54.933,32.234 55.173,32.574 C55.414,32.914 55.534,33.236 55.534,33.539 C55.534,33.705 55.476,33.852 55.358,33.979 C55.241,34.106 55.100,34.168 54.934,34.168 C54.748,34.168 54.609,34.125 54.517,34.037 C54.424,33.949 54.320,33.797 54.206,33.582 C54.018,33.228 53.795,32.963 53.540,32.787 C53.284,32.611 52.970,32.523 52.595,32.523 C51.999,32.523 51.524,32.750 51.172,33.201 C50.818,33.654 50.642,34.297 50.642,35.131 C50.642,35.688 50.720,36.151 50.876,36.520 C51.032,36.889 51.254,37.164 51.540,37.348 C51.827,37.530 52.162,37.621 52.546,37.621 C52.963,37.621 53.315,37.518 53.603,37.311 C53.892,37.104 54.108,36.801 54.255,36.401 C54.317,36.211 54.393,36.057 54.484,35.938 C54.576,35.820 54.723,35.760 54.924,35.760 C55.097,35.760 55.245,35.820 55.368,35.942 C55.492,36.061 55.554,36.211 55.554,36.391 Z" id="path-9" class="cls-3" fill-rule="evenodd"/>
  </g>
</svg>
