<svg xmlns="http://www.w3.org/2000/svg" xmlns:xlink="http://www.w3.org/1999/xlink" preserveAspectRatio="xMidYMid" width="60" height="66" viewBox="0 0 60 66">
  <defs>
    <style>

      .cls-3 {
        fill: #edc951;
      }

      .cls-4 {
        fill: #8b71b5;
      }

      .cls-5 {
        fill: #000000;
      }
    </style>
  </defs>
  <g id="group-75svg">
    <path d="M23.155,5.014 C23.155,5.014 47.655,5.014 47.655,5.014 C49.855,5.014 52.000,6.314 52.000,8.514 C52.000,8.514 52.000,60.518 52.000,60.518 C52.000,62.718 49.855,65.018 47.655,65.018 C47.655,65.018 10.655,65.018 10.655,65.018 C8.446,65.018 7.000,62.727 7.000,60.518 C7.000,60.518 7.000,24.584 7.000,24.584 C7.000,24.584 23.155,5.014 23.155,5.014 Z" id="path-1" class="cls-3" fill-rule="evenodd"/>
    <path d="M7.841,23.015 C7.841,23.015 19.155,23.015 19.155,23.015 C21.365,23.015 23.000,21.224 23.000,19.015 C23.000,19.015 23.000,4.514 23.000,4.514 C23.000,4.514 7.841,23.015 7.841,23.015 Z" id="path-2" class="cls-4" fill-rule="evenodd"/>
    <path d="M42.655,63.018 C42.655,63.018 5.655,63.018 5.655,63.018 C2.590,63.018 -0.000,60.499 -0.000,57.517 C-0.000,57.517 -0.000,21.584 -0.000,21.584 C-0.000,21.242 0.117,20.910 0.331,20.644 C0.331,20.644 16.487,0.573 16.487,0.573 C16.771,0.219 17.201,0.013 17.655,0.013 C17.655,0.013 42.655,0.013 42.655,0.013 C45.652,0.013 48.000,2.430 48.000,5.514 C48.000,5.514 48.000,57.517 48.000,57.517 C48.000,60.602 45.652,63.018 42.655,63.018 ZM3.000,22.113 C3.000,22.113 3.000,57.517 3.000,57.517 C3.000,58.849 4.241,60.018 5.655,60.018 C5.655,60.018 42.655,60.018 42.655,60.018 C43.992,60.018 45.000,58.942 45.000,57.517 C45.000,57.517 45.000,5.514 45.000,5.514 C45.000,4.089 43.992,3.013 42.655,3.013 C42.655,3.013 18.373,3.013 18.373,3.013 C18.373,3.013 3.000,22.113 3.000,22.113 Z" id="path-3" class="cls-5" fill-rule="evenodd"/>
    <path d="M13.284,22.015 C13.284,22.015 2.508,22.015 2.508,22.015 C1.932,22.015 1.406,21.685 1.156,21.165 C0.906,20.646 0.976,20.029 1.335,19.579 C1.335,19.579 16.328,0.793 16.328,0.793 C16.724,0.296 17.392,0.100 17.996,0.312 C18.597,0.523 19.000,1.091 19.000,1.728 C19.000,1.728 19.000,16.034 19.000,16.034 C19.000,19.108 16.222,22.015 13.284,22.015 ZM5.624,19.015 C5.624,19.015 13.284,19.015 13.284,19.015 C14.604,19.015 16.000,17.482 16.000,16.034 C16.000,16.034 16.000,6.013 16.000,6.013 C16.000,6.013 5.624,19.015 5.624,19.015 Z" id="path-4" class="cls-5" fill-rule="evenodd"/>
    <path d="M58.000,39.016 C58.000,41.225 56.209,43.016 54.000,43.016 C54.000,43.016 35.000,43.016 35.000,43.016 C32.791,43.016 31.000,41.225 31.000,39.016 C31.000,39.016 31.000,30.015 31.000,30.015 C31.000,27.806 32.791,26.015 35.000,26.015 C35.000,26.015 54.000,26.015 54.000,26.015 C56.209,26.015 58.000,27.806 58.000,30.015 C58.000,30.015 58.000,39.016 58.000,39.016 Z" id="path-5" class="cls-4" fill-rule="evenodd"/>
    <path d="M54.500,44.016 C54.500,44.016 35.500,44.016 35.500,44.016 C32.467,44.016 30.000,41.548 30.000,38.516 C30.000,38.516 30.000,29.515 30.000,29.515 C30.000,26.483 32.467,24.015 35.500,24.015 C35.500,24.015 54.500,24.015 54.500,24.015 C57.533,24.015 60.000,26.483 60.000,29.515 C60.000,29.515 60.000,38.516 60.000,38.516 C60.000,41.548 57.533,44.016 54.500,44.016 ZM35.500,27.015 C34.122,27.015 33.000,28.136 33.000,29.515 C33.000,29.515 33.000,38.516 33.000,38.516 C33.000,39.895 34.122,41.016 35.500,41.016 C35.500,41.016 54.500,41.016 54.500,41.016 C55.878,41.016 57.000,39.895 57.000,38.516 C57.000,38.516 57.000,29.515 57.000,29.515 C57.000,28.136 55.878,27.015 54.500,27.015 C54.500,27.015 35.500,27.015 35.500,27.015 Z" id="path-6" class="cls-5" fill-rule="evenodd"/>
    <path d="M40.646,32.250 C40.646,32.250 40.646,36.000 40.646,36.000 C40.646,36.324 40.632,36.602 40.604,36.830 C40.577,37.057 40.514,37.289 40.416,37.524 C40.254,37.916 39.985,38.223 39.611,38.444 C39.236,38.662 38.781,38.774 38.244,38.774 C37.759,38.774 37.354,38.698 37.030,38.543 C36.707,38.391 36.445,38.143 36.247,37.801 C36.143,37.619 36.058,37.409 35.993,37.172 C35.928,36.934 35.895,36.707 35.895,36.492 C35.895,36.266 35.958,36.090 36.085,35.971 C36.212,35.850 36.375,35.789 36.574,35.789 C36.766,35.789 36.911,35.846 37.008,35.955 C37.106,36.067 37.181,36.239 37.233,36.473 C37.288,36.725 37.344,36.924 37.399,37.074 C37.454,37.223 37.547,37.352 37.677,37.459 C37.808,37.567 37.993,37.621 38.234,37.621 C38.875,37.621 39.196,37.151 39.196,36.209 C39.196,36.209 39.196,32.250 39.196,32.250 C39.196,31.957 39.260,31.736 39.389,31.590 C39.517,31.443 39.692,31.371 39.914,31.371 C40.138,31.371 40.316,31.443 40.448,31.590 C40.580,31.736 40.646,31.957 40.646,32.250 Z" id="path-7" class="cls-3" fill-rule="evenodd"/>
    <path d="M44.997,35.863 C44.997,35.863 43.668,35.863 43.668,35.863 C43.668,35.863 43.668,37.889 43.668,37.889 C43.668,38.180 43.600,38.399 43.463,38.549 C43.327,38.698 43.154,38.774 42.946,38.774 C42.728,38.774 42.552,38.700 42.418,38.551 C42.285,38.403 42.218,38.186 42.218,37.899 C42.218,37.899 42.218,32.381 42.218,32.381 C42.218,32.062 42.291,31.834 42.438,31.697 C42.584,31.560 42.817,31.492 43.136,31.492 C43.136,31.492 44.997,31.492 44.997,31.492 C45.547,31.492 45.970,31.535 46.266,31.619 C46.559,31.701 46.812,31.836 47.025,32.025 C47.239,32.213 47.400,32.445 47.511,32.719 C47.622,32.992 47.677,33.299 47.677,33.641 C47.677,34.371 47.453,34.922 47.003,35.299 C46.554,35.674 45.885,35.863 44.997,35.863 ZM44.645,32.582 C44.645,32.582 43.668,32.582 43.668,32.582 C43.668,32.582 43.668,34.770 43.668,34.770 C43.668,34.770 44.645,34.770 44.645,34.770 C44.987,34.770 45.272,34.733 45.502,34.662 C45.731,34.590 45.906,34.473 46.027,34.311 C46.147,34.147 46.207,33.934 46.207,33.670 C46.207,33.355 46.115,33.098 45.929,32.898 C45.721,32.687 45.293,32.582 44.645,32.582 Z" id="path-8" class="cls-3" fill-rule="evenodd"/>
    <path d="M55.426,35.740 C55.426,35.740 55.426,37.114 55.426,37.114 C55.426,37.295 55.408,37.442 55.373,37.549 C55.337,37.659 55.271,37.758 55.175,37.846 C55.079,37.934 54.956,38.018 54.806,38.100 C54.373,38.334 53.956,38.504 53.556,38.612 C53.156,38.719 52.720,38.774 52.248,38.774 C51.697,38.774 51.196,38.688 50.744,38.520 C50.291,38.350 49.905,38.104 49.586,37.782 C49.268,37.459 49.022,37.069 48.852,36.610 C48.681,36.151 48.595,35.639 48.595,35.072 C48.595,34.516 48.678,34.006 48.844,33.543 C49.010,33.082 49.254,32.689 49.577,32.367 C49.899,32.045 50.291,31.797 50.753,31.627 C51.216,31.455 51.740,31.371 52.326,31.371 C52.808,31.371 53.234,31.435 53.605,31.562 C53.976,31.691 54.277,31.853 54.508,32.049 C54.739,32.244 54.914,32.451 55.031,32.670 C55.148,32.887 55.206,33.082 55.206,33.250 C55.206,33.434 55.139,33.588 55.004,33.717 C54.869,33.846 54.707,33.910 54.518,33.910 C54.414,33.910 54.314,33.885 54.218,33.836 C54.122,33.787 54.041,33.719 53.976,33.631 C53.797,33.351 53.645,33.141 53.522,32.996 C53.398,32.853 53.231,32.732 53.021,32.635 C52.811,32.537 52.544,32.488 52.218,32.488 C51.883,32.488 51.583,32.547 51.320,32.662 C51.056,32.777 50.831,32.945 50.643,33.164 C50.457,33.385 50.313,33.654 50.214,33.973 C50.115,34.293 50.065,34.645 50.065,35.033 C50.065,35.873 50.258,36.520 50.643,36.971 C51.029,37.424 51.567,37.651 52.257,37.651 C52.593,37.651 52.908,37.606 53.202,37.518 C53.497,37.430 53.795,37.305 54.098,37.143 C54.098,37.143 54.098,35.981 54.098,35.981 C54.098,35.981 52.975,35.981 52.975,35.981 C52.705,35.981 52.500,35.940 52.362,35.858 C52.224,35.778 52.155,35.639 52.155,35.444 C52.155,35.283 52.212,35.152 52.328,35.047 C52.444,34.943 52.601,34.891 52.799,34.891 C52.799,34.891 54.445,34.891 54.445,34.891 C54.646,34.891 54.817,34.908 54.958,34.945 C55.098,34.981 55.210,35.061 55.297,35.184 C55.383,35.309 55.426,35.494 55.426,35.740 Z" id="path-9" class="cls-3" fill-rule="evenodd"/>
  </g>
</svg>
