<svg xmlns="http://www.w3.org/2000/svg" xmlns:xlink="http://www.w3.org/1999/xlink" preserveAspectRatio="xMidYMid" width="51" height="66" viewBox="0 0 51 66">
  <defs>
    <style>

      .cls-3 {
        fill: #e56a77;
      }

      .cls-4 {
        fill: #53ecf4;
      }

      .cls-5 {
        fill: #000000;
      }

      .cls-7 {
        fill: #ffffff;
      }
    </style>
  </defs>
  <g id="group-21svg">
    <path d="M34.486,64.995 C34.486,64.995 13.986,64.995 13.986,64.995 C9.587,64.995 6.000,60.895 6.000,56.495 C6.000,56.495 6.000,12.492 6.000,12.492 C6.000,8.091 9.587,4.991 13.986,4.991 C13.986,4.991 42.986,4.991 42.986,4.991 C47.405,4.991 51.000,8.073 51.000,12.492 C51.000,12.492 51.000,44.425 51.000,44.425 C51.000,44.425 34.486,64.995 34.486,64.995 Z" id="path-1" class="cls-3" fill-rule="evenodd"/>
    <path d="M49.801,45.994 C49.801,45.994 38.486,45.994 38.486,45.994 C36.277,45.994 34.000,47.785 34.000,49.994 C34.000,49.994 34.000,64.495 34.000,64.495 C34.000,64.495 49.801,45.994 49.801,45.994 Z" id="path-2" class="cls-4" fill-rule="evenodd"/>
    <path d="M30.987,62.995 C30.987,62.995 9.987,62.995 9.987,62.995 C4.667,62.995 -0.000,58.555 -0.000,53.495 C-0.000,53.495 -0.000,9.491 -0.000,9.491 C-0.000,4.430 4.667,-0.009 9.987,-0.009 C9.987,-0.009 38.987,-0.009 38.987,-0.009 C44.125,-0.009 48.000,4.075 48.000,9.491 C48.000,9.491 48.000,41.424 48.000,41.424 C48.000,41.756 47.890,42.079 47.686,42.341 C47.686,42.341 32.174,62.412 32.174,62.412 C31.890,62.780 31.452,62.995 30.987,62.995 ZM9.987,2.991 C6.265,2.991 3.000,6.028 3.000,9.491 C3.000,9.491 3.000,53.495 3.000,53.495 C3.000,56.958 6.265,59.995 9.987,59.995 C9.987,59.995 30.251,59.995 30.251,59.995 C30.251,59.995 45.000,40.913 45.000,40.913 C45.000,40.913 45.000,9.491 45.000,9.491 C45.000,5.785 42.415,2.991 38.987,2.991 C38.987,2.991 9.987,2.991 9.987,2.991 Z" id="path-3" class="cls-5" fill-rule="evenodd"/>
    <path d="M30.500,62.780 C30.329,62.780 30.156,62.751 29.990,62.690 C29.395,62.476 29.000,61.912 29.000,61.280 C29.000,61.280 29.000,46.975 29.000,46.975 C29.000,43.754 32.496,40.994 35.358,40.994 C35.358,40.994 46.135,40.994 46.135,40.994 C46.717,40.994 47.246,41.331 47.493,41.857 C47.740,42.384 47.660,43.006 47.288,43.454 C47.288,43.454 31.653,62.240 31.653,62.240 C31.362,62.589 30.937,62.780 30.500,62.780 ZM35.358,43.994 C33.915,43.994 32.000,45.693 32.000,46.975 C32.000,46.975 32.000,57.133 32.000,57.133 C32.000,57.133 42.935,43.994 42.935,43.994 C42.935,43.994 35.358,43.994 35.358,43.994 Z" id="path-4" class="cls-5" fill-rule="evenodd"/>
    <path d="M36.685,28.027 C36.685,28.027 36.527,27.269 36.527,27.269 C36.527,26.431 37.049,24.993 37.887,24.993 C37.887,24.993 42.287,24.993 42.287,24.993 C42.947,24.993 43.000,25.933 43.000,26.593 C43.000,26.593 43.000,32.193 43.000,32.193 C43.000,32.856 42.949,32.993 42.287,32.993 C42.287,32.993 38.287,32.993 38.287,32.993 C37.624,32.993 37.000,32.656 37.000,31.993 C37.000,31.993 37.000,31.993 37.000,31.993 C37.000,31.993 37.000,31.993 37.000,31.993 " id="path-5" class="cls-7" fill-rule="evenodd"/>
    <path d="M33.168,28.027 C33.168,28.027 33.252,27.269 33.252,27.269 C33.252,26.431 32.656,24.993 31.818,24.993 C31.818,24.993 26.287,24.993 26.287,24.993 C25.627,24.993 25.000,25.933 25.000,26.593 C25.000,26.593 25.000,32.193 25.000,32.193 C25.000,32.856 25.624,32.993 26.287,32.993 C26.287,32.993 31.887,32.993 31.887,32.993 C32.550,32.993 33.000,32.656 33.000,31.993 C33.000,31.993 33.000,31.993 33.000,31.993 C33.000,31.993 33.000,31.993 33.000,31.993 " id="path-6" class="cls-7" fill-rule="evenodd"/>
    <path d="M40.687,33.993 C40.687,33.993 36.686,33.993 36.686,33.993 C35.180,33.993 34.000,32.829 34.000,31.343 C34.000,31.343 34.000,30.993 34.000,30.993 C34.000,30.165 34.672,29.493 35.500,29.493 C36.328,29.493 37.000,30.165 37.000,30.993 C37.000,30.993 40.000,30.993 40.000,30.993 C40.000,30.993 40.000,25.993 40.000,25.993 C40.000,25.993 36.586,25.993 36.586,25.993 C36.540,26.090 36.495,26.224 36.471,26.358 C36.471,26.358 36.556,26.609 36.556,26.609 C36.821,27.394 36.400,28.245 35.615,28.510 C34.829,28.773 33.979,28.355 33.714,27.570 C33.714,27.570 33.531,27.030 33.531,27.030 C33.478,26.875 33.452,26.712 33.452,26.549 C33.452,24.838 34.536,22.992 36.287,22.992 C36.287,22.992 40.687,22.992 40.687,22.992 C41.754,22.992 43.000,23.726 43.000,25.792 C43.000,25.792 43.000,31.393 43.000,31.393 C43.000,33.868 41.073,33.993 40.687,33.993 Z" id="path-7" class="cls-5" fill-rule="evenodd"/>
    <path d="M30.287,33.993 C30.287,33.993 24.686,33.993 24.686,33.993 C23.180,33.993 22.000,32.851 22.000,31.393 C22.000,31.393 22.000,25.792 22.000,25.792 C22.000,24.275 23.230,22.992 24.686,22.992 C24.686,22.992 30.219,22.992 30.219,22.992 C32.123,22.992 33.177,25.095 33.177,26.549 C33.177,26.603 33.174,26.658 33.168,26.711 C33.168,26.711 33.109,27.251 33.109,27.251 C33.020,28.075 32.291,28.667 31.456,28.581 C30.633,28.492 30.037,27.752 30.127,26.927 C30.127,26.927 30.174,26.497 30.174,26.497 C30.156,26.337 30.070,26.121 29.985,25.993 C29.985,25.993 25.000,25.993 25.000,25.993 C25.000,25.993 25.000,30.993 25.000,30.993 C25.000,30.993 30.000,30.993 30.000,30.993 C30.000,30.165 30.672,29.493 31.500,29.493 C32.328,29.493 33.000,30.165 33.000,30.993 C33.000,30.993 33.000,31.343 33.000,31.343 C33.000,32.829 31.809,33.993 30.287,33.993 Z" id="path-8" class="cls-5" fill-rule="evenodd"/>
    <path d="M35.000,29.993 C35.000,29.993 29.000,29.993 29.000,29.993 C28.172,29.993 27.500,29.321 27.500,28.493 C27.500,27.665 28.172,26.993 29.000,26.993 C29.000,26.993 35.000,26.993 35.000,26.993 C35.828,26.993 36.500,27.665 36.500,28.493 C36.500,29.321 35.828,29.993 35.000,29.993 Z" id="path-9" class="cls-5" fill-rule="evenodd"/>
  </g>
</svg>
