<svg xmlns="http://www.w3.org/2000/svg" xmlns:xlink="http://www.w3.org/1999/xlink" preserveAspectRatio="xMidYMid" width="58" height="65" viewBox="0 0 58 65">
  <defs>
    <style>

      .cls-3 {
        fill: #edc951;
      }

      .cls-4 {
        fill: #99746a;
      }

      .cls-6 {
        fill: #000000;
      }
    </style>
  </defs>
  <g id="group-42svg">
    <path d="M58.000,55.991 C58.000,60.409 54.418,63.991 50.000,63.991 C50.000,63.991 15.000,63.991 15.000,63.991 C10.581,63.991 7.000,60.409 7.000,55.991 C7.000,55.991 7.000,11.987 7.000,11.987 C7.000,7.569 10.581,3.987 15.000,3.987 C15.000,3.987 50.000,3.987 50.000,3.987 C54.418,3.987 58.000,7.569 58.000,11.987 C58.000,11.987 58.000,55.991 58.000,55.991 Z" id="path-1" class="cls-3" fill-rule="evenodd"/>
    <path d="M38.000,38.989 C38.000,40.094 37.104,40.989 36.000,40.989 C36.000,40.989 22.000,40.989 22.000,40.989 C20.896,40.989 20.000,40.094 20.000,38.989 C20.000,38.989 20.000,28.989 20.000,28.989 C20.000,27.884 20.896,26.989 22.000,26.989 C22.000,26.989 36.000,26.989 36.000,26.989 C37.104,26.989 38.000,27.884 38.000,28.989 C38.000,28.989 38.000,38.989 38.000,38.989 Z" id="path-2" class="cls-4" fill-rule="evenodd"/>
    <path d="M47.000,42.337 C47.000,42.337 37.903,36.103 37.903,36.103 C37.903,36.103 37.427,32.954 37.427,32.954 C37.427,32.954 47.000,27.479 47.000,27.479 C47.000,27.479 47.000,42.337 47.000,42.337 Z" id="path-3" class="cls-4" fill-rule="evenodd"/>
    <path d="M44.500,62.991 C44.500,62.991 9.500,62.991 9.500,62.991 C4.262,62.991 -0.000,58.729 -0.000,53.490 C-0.000,53.490 -0.000,9.487 -0.000,9.487 C-0.000,4.249 4.262,-0.013 9.500,-0.013 C9.500,-0.013 44.500,-0.013 44.500,-0.013 C49.738,-0.013 54.000,4.249 54.000,9.487 C54.000,9.487 54.000,53.490 54.000,53.490 C54.000,58.729 49.738,62.991 44.500,62.991 ZM9.500,2.987 C5.916,2.987 3.000,5.903 3.000,9.487 C3.000,9.487 3.000,53.490 3.000,53.490 C3.000,57.075 5.916,59.991 9.500,59.991 C9.500,59.991 44.500,59.991 44.500,59.991 C48.084,59.991 51.000,57.075 51.000,53.490 C51.000,53.490 51.000,9.487 51.000,9.487 C51.000,5.903 48.084,2.987 44.500,2.987 C44.500,2.987 9.500,2.987 9.500,2.987 Z" id="path-4" class="cls-6" fill-rule="evenodd"/>
    <path d="M30.500,39.989 C30.500,39.989 16.500,39.989 16.500,39.989 C14.570,39.989 13.000,38.419 13.000,36.489 C13.000,36.489 13.000,26.488 13.000,26.488 C13.000,24.559 14.570,22.988 16.500,22.988 C16.500,22.988 30.500,22.988 30.500,22.988 C32.430,22.988 34.000,24.559 34.000,26.488 C34.000,26.488 34.000,36.489 34.000,36.489 C34.000,38.419 32.430,39.989 30.500,39.989 ZM16.500,25.988 C16.224,25.988 16.000,26.213 16.000,26.488 C16.000,26.488 16.000,36.489 16.000,36.489 C16.000,36.765 16.224,36.989 16.500,36.989 C16.500,36.989 30.500,36.989 30.500,36.989 C30.776,36.989 31.000,36.765 31.000,36.489 C31.000,36.489 31.000,26.488 31.000,26.488 C31.000,26.213 30.776,25.988 30.500,25.988 C30.500,25.988 16.500,25.988 16.500,25.988 Z" id="path-5" class="cls-6" fill-rule="evenodd"/>
    <path d="M41.500,41.837 C41.209,41.837 40.919,41.752 40.668,41.585 C40.668,41.585 31.321,35.351 31.321,35.351 C30.952,35.105 30.711,34.710 30.662,34.269 C30.662,34.269 30.311,31.120 30.311,31.120 C30.245,30.522 30.541,29.943 31.064,29.647 C31.064,29.647 40.763,24.172 40.763,24.172 C41.227,23.910 41.795,23.913 42.256,24.184 C42.717,24.452 43.000,24.945 43.000,25.479 C43.000,25.479 43.000,40.337 43.000,40.337 C43.000,40.891 42.695,41.399 42.207,41.659 C41.986,41.779 41.743,41.837 41.500,41.837 ZM33.566,33.243 C33.566,33.243 40.000,37.533 40.000,37.533 C40.000,37.533 40.000,28.048 40.000,28.048 C40.000,28.048 33.402,31.773 33.402,31.773 C33.402,31.773 33.566,33.243 33.566,33.243 Z" id="path-6" class="cls-6" fill-rule="evenodd"/>
    <path d="M51.000,11.987 C51.000,11.987 3.000,11.987 3.000,11.987 C2.171,11.987 1.500,11.315 1.500,10.487 C1.500,9.659 2.171,8.987 3.000,8.987 C3.000,8.987 51.000,8.987 51.000,8.987 C51.829,8.987 52.500,9.659 52.500,10.487 C52.500,11.315 51.829,11.987 51.000,11.987 Z" id="path-7" class="cls-6" fill-rule="evenodd"/>
    <path d="M51.000,53.990 C51.000,53.990 3.000,53.990 3.000,53.990 C2.171,53.990 1.500,53.318 1.500,52.490 C1.500,51.662 2.171,50.990 3.000,50.990 C3.000,50.990 51.000,50.990 51.000,50.990 C51.829,50.990 52.500,51.662 52.500,52.490 C52.500,53.318 51.829,53.990 51.000,53.990 Z" id="path-8" class="cls-6" fill-rule="evenodd"/>
  </g>
</svg>
