<svg xmlns="http://www.w3.org/2000/svg" xmlns:xlink="http://www.w3.org/1999/xlink" preserveAspectRatio="xMidYMid" width="51" height="66" viewBox="0 0 51 66">
  <defs>
    <style>

      .cls-3 {
        fill: #e56a77;
      }

      .cls-4 {
        fill: #53ecf4;
      }

      .cls-5 {
        fill: #000000;
      }

      .cls-7 {
        fill: #ffffff;
      }
    </style>
  </defs>
  <g id="group-16svg">
    <path d="M34.155,64.995 C34.155,64.995 13.655,64.995 13.655,64.995 C9.255,64.995 6.000,60.895 6.000,56.495 C6.000,56.495 6.000,12.492 6.000,12.492 C6.000,8.091 9.255,4.991 13.655,4.991 C13.655,4.991 42.655,4.991 42.655,4.991 C47.074,4.991 51.000,8.073 51.000,12.492 C51.000,12.492 51.000,44.425 51.000,44.425 C51.000,44.425 34.155,64.995 34.155,64.995 Z" id="path-1" class="cls-3" fill-rule="evenodd"/>
    <path d="M49.470,45.994 C49.470,45.994 38.155,45.994 38.155,45.994 C35.946,45.994 34.000,47.785 34.000,49.994 C34.000,49.994 34.000,64.495 34.000,64.495 C34.000,64.495 49.470,45.994 49.470,45.994 Z" id="path-2" class="cls-4" fill-rule="evenodd"/>
    <path d="M30.655,62.995 C30.655,62.995 9.655,62.995 9.655,62.995 C4.421,62.995 -0.000,58.644 -0.000,53.495 C-0.000,53.495 -0.000,9.491 -0.000,9.491 C-0.000,4.342 4.421,-0.009 9.655,-0.009 C9.655,-0.009 38.655,-0.009 38.655,-0.009 C43.895,-0.009 48.000,4.164 48.000,9.491 C48.000,9.491 48.000,41.424 48.000,41.424 C48.000,41.761 47.886,42.089 47.677,42.354 C47.677,42.354 31.832,62.425 31.832,62.425 C31.548,62.785 31.114,62.995 30.655,62.995 ZM9.655,2.991 C6.048,2.991 3.000,5.968 3.000,9.491 C3.000,9.491 3.000,53.495 3.000,53.495 C3.000,57.018 6.048,59.995 9.655,59.995 C9.655,59.995 29.928,59.995 29.928,59.995 C29.928,59.995 45.000,40.904 45.000,40.904 C45.000,40.904 45.000,9.491 45.000,9.491 C45.000,5.847 42.213,2.991 38.655,2.991 C38.655,2.991 9.655,2.991 9.655,2.991 Z" id="path-3" class="cls-5" fill-rule="evenodd"/>
    <path d="M30.499,62.780 C30.332,62.780 30.162,62.752 29.997,62.693 C29.399,62.480 29.000,61.915 29.000,61.280 C29.000,61.280 29.000,46.975 29.000,46.975 C29.000,43.956 31.985,40.994 35.027,40.994 C35.027,40.994 45.803,40.994 45.803,40.994 C46.382,40.994 46.909,41.327 47.158,41.850 C47.406,42.373 47.331,42.992 46.966,43.441 C46.966,43.441 31.663,62.228 31.663,62.228 C31.373,62.584 30.942,62.780 30.499,62.780 ZM35.027,43.994 C33.641,43.994 32.000,45.609 32.000,46.975 C32.000,46.975 32.000,57.063 32.000,57.063 C32.000,57.063 42.646,43.994 42.646,43.994 C42.646,43.994 35.027,43.994 35.027,43.994 Z" id="path-4" class="cls-5" fill-rule="evenodd"/>
    <path d="M40.186,23.030 C39.241,23.030 38.371,24.204 37.666,24.728 C36.962,24.204 36.092,23.030 35.147,23.030 C32.811,23.030 30.917,24.923 30.917,27.259 C30.917,29.595 36.962,36.493 37.666,35.969 C38.371,36.493 44.415,29.595 44.415,27.259 C44.415,24.923 42.522,23.030 40.186,23.030 Z" id="path-5" class="cls-7" fill-rule="evenodd"/>
    <path d="M35.136,35.680 C35.097,35.680 35.066,35.679 35.032,35.677 C34.999,35.679 34.967,35.680 34.934,35.680 C34.498,35.680 33.340,35.680 30.050,31.596 C28.560,29.745 26.783,27.174 26.783,25.442 C26.783,22.282 29.353,19.712 32.512,19.712 C33.559,19.712 34.386,20.316 35.032,20.895 C35.677,20.316 36.504,19.712 37.551,19.712 C40.710,19.712 43.281,22.282 43.281,25.442 C43.281,27.174 41.503,29.745 40.013,31.596 C36.739,35.659 35.576,35.680 35.136,35.680 ZM32.450,22.705 C31.007,22.712 29.783,23.937 29.783,25.442 C29.830,26.686 33.462,31.351 35.032,32.551 C36.602,31.351 40.233,26.685 40.281,25.439 C40.281,23.937 39.056,22.712 37.551,22.712 C37.416,22.763 36.949,23.203 36.698,23.441 C36.428,23.696 36.168,23.934 35.928,24.114 C35.396,24.510 34.667,24.510 34.136,24.114 C33.895,23.934 33.635,23.695 33.364,23.440 C33.114,23.203 32.647,22.763 32.450,22.705 Z" id="path-6" class="cls-5" fill-rule="evenodd"/>
  </g>
</svg>
