<svg xmlns="http://www.w3.org/2000/svg" xmlns:xlink="http://www.w3.org/1999/xlink" preserveAspectRatio="xMidYMid" width="50" height="66" viewBox="0 0 50 66">
  <defs>
    <style>

      .cls-3 {
        fill: #e56a77;
      }

      .cls-4 {
        fill: #53ecf4;
      }

      .cls-5 {
        fill: #000000;
      }

      .cls-7 {
        fill: #ffffff;
      }
    </style>
  </defs>
  <g id="group-18svg">
    <path d="M33.538,64.995 C33.538,64.995 13.038,64.995 13.038,64.995 C8.639,64.995 5.000,60.895 5.000,56.495 C5.000,56.495 5.000,12.492 5.000,12.492 C5.000,8.091 8.639,4.991 13.038,4.991 C13.038,4.991 42.038,4.991 42.038,4.991 C46.457,4.991 50.000,8.073 50.000,12.492 C50.000,12.492 50.000,44.425 50.000,44.425 C50.000,44.425 33.538,64.995 33.538,64.995 Z" id="path-1" class="cls-3" fill-rule="evenodd"/>
    <path d="M48.853,45.994 C48.853,45.994 37.538,45.994 37.538,45.994 C35.329,45.994 34.000,47.785 34.000,49.994 C34.000,49.994 34.000,64.495 34.000,64.495 C34.000,64.495 48.853,45.994 48.853,45.994 Z" id="path-2" class="cls-4" fill-rule="evenodd"/>
    <path d="M30.038,62.995 C30.038,62.995 9.038,62.995 9.038,62.995 C3.970,62.995 -0.000,58.822 -0.000,53.495 C-0.000,53.495 -0.000,9.491 -0.000,9.491 C-0.000,4.164 3.970,-0.009 9.038,-0.009 C9.038,-0.009 38.038,-0.009 38.038,-0.009 C43.438,-0.009 48.000,4.342 48.000,9.491 C48.000,9.491 48.000,41.424 48.000,41.424 C48.000,41.771 47.880,42.107 47.660,42.376 C47.660,42.376 31.198,62.446 31.198,62.446 C30.913,62.794 30.487,62.995 30.038,62.995 ZM9.038,2.991 C5.596,2.991 3.000,5.785 3.000,9.491 C3.000,9.491 3.000,53.495 3.000,53.495 C3.000,57.201 5.596,59.995 9.038,59.995 C9.038,59.995 29.328,59.995 29.328,59.995 C29.328,59.995 45.000,40.888 45.000,40.888 C45.000,40.888 45.000,9.491 45.000,9.491 C45.000,6.028 41.747,2.991 38.038,2.991 C38.038,2.991 9.038,2.991 9.038,2.991 Z" id="path-3" class="cls-5" fill-rule="evenodd"/>
    <path d="M30.500,62.780 C30.337,62.780 30.172,62.754 30.012,62.698 C29.406,62.490 29.000,61.920 29.000,61.280 C29.000,61.280 29.000,46.975 29.000,46.975 C29.000,44.145 31.222,40.994 34.410,40.994 C34.410,40.994 45.186,40.994 45.186,40.994 C45.759,40.994 46.282,41.321 46.534,41.836 C46.785,42.352 46.721,42.965 46.367,43.418 C46.367,43.418 31.682,62.204 31.682,62.204 C31.392,62.575 30.952,62.780 30.500,62.780 ZM34.410,43.994 C33.075,43.994 32.000,45.625 32.000,46.975 C32.000,46.975 32.000,56.925 32.000,56.925 C32.000,56.925 42.109,43.994 42.109,43.994 C42.109,43.994 34.410,43.994 34.410,43.994 Z" id="path-4" class="cls-5" fill-rule="evenodd"/>
    <path d="M37.106,23.918 C37.106,23.918 39.038,27.833 39.038,27.833 C39.038,27.833 43.357,28.461 43.357,28.461 C43.357,28.461 40.231,31.508 40.231,31.508 C40.231,31.508 40.970,35.810 40.970,35.810 C40.970,35.810 37.106,33.778 37.106,33.778 C37.106,33.778 33.243,35.810 33.243,35.810 C33.243,35.810 33.980,31.508 33.980,31.508 C33.980,31.508 30.855,28.461 30.855,28.461 C30.855,28.461 35.175,27.833 35.175,27.833 C35.175,27.833 37.106,23.918 37.106,23.918 Z" id="path-5" class="cls-7" fill-rule="evenodd"/>
    <path d="M30.745,36.478 C30.435,36.478 30.125,36.381 29.863,36.192 C29.401,35.856 29.170,35.287 29.267,34.724 C29.267,34.724 29.872,31.198 29.872,31.198 C29.872,31.198 27.310,28.702 27.310,28.702 C26.901,28.303 26.754,27.707 26.931,27.164 C27.107,26.621 27.577,26.225 28.142,26.143 C28.142,26.143 31.681,25.629 31.681,25.629 C31.681,25.629 33.264,22.422 33.264,22.422 C33.516,21.910 34.037,21.586 34.608,21.586 C35.180,21.586 35.701,21.910 35.953,22.422 C35.953,22.422 37.536,25.629 37.536,25.629 C37.536,25.629 41.076,26.143 41.076,26.143 C41.641,26.225 42.110,26.621 42.287,27.164 C42.464,27.707 42.316,28.303 41.907,28.702 C41.907,28.702 39.346,31.198 39.346,31.198 C39.346,31.198 39.951,34.724 39.951,34.724 C40.048,35.286 39.816,35.856 39.354,36.192 C38.892,36.527 38.279,36.571 37.774,36.306 C37.774,36.306 34.608,34.641 34.608,34.641 C34.608,34.641 31.443,36.306 31.443,36.306 C31.224,36.421 30.984,36.478 30.745,36.478 ZM34.608,31.446 C34.849,31.446 35.088,31.504 35.307,31.618 C35.307,31.618 36.480,32.235 36.480,32.235 C36.480,32.235 36.256,30.928 36.256,30.928 C36.173,30.441 36.334,29.945 36.687,29.600 C36.687,29.600 37.637,28.675 37.637,28.675 C37.637,28.675 36.324,28.485 36.324,28.485 C35.836,28.414 35.413,28.107 35.195,27.665 C35.195,27.665 34.608,26.476 34.608,26.476 C34.608,26.476 34.021,27.665 34.021,27.665 C33.804,28.107 33.381,28.414 32.893,28.485 C32.893,28.485 31.581,28.675 31.581,28.675 C31.581,28.675 32.530,29.600 32.530,29.600 C32.884,29.945 33.045,30.441 32.962,30.928 C32.962,30.928 32.737,32.235 32.737,32.235 C32.737,32.235 33.910,31.618 33.910,31.618 C34.129,31.504 34.368,31.446 34.608,31.446 Z" id="path-6" class="cls-5" fill-rule="evenodd"/>
  </g>
</svg>
