<svg xmlns="http://www.w3.org/2000/svg" xmlns:xlink="http://www.w3.org/1999/xlink" preserveAspectRatio="xMidYMid" width="59" height="66" viewBox="0 0 59 66">
  <defs>
    <style>

      .cls-3 {
        fill: #53ecf4;
      }

      .cls-4 {
        fill: #000000;
      }
    </style>
  </defs>
  <g id="group-44svg">
    <path d="M59.000,56.991 C59.000,61.409 55.418,64.991 51.000,64.991 C51.000,64.991 16.000,64.991 16.000,64.991 C11.581,64.991 8.000,61.409 8.000,56.991 C8.000,56.991 8.000,12.987 8.000,12.987 C8.000,8.569 11.581,4.987 16.000,4.987 C16.000,4.987 51.000,4.987 51.000,4.987 C55.418,4.987 59.000,8.569 59.000,12.987 C59.000,12.987 59.000,56.991 59.000,56.991 Z" id="path-1" class="cls-3" fill-rule="evenodd"/>
    <path d="M44.500,62.991 C44.500,62.991 9.500,62.991 9.500,62.991 C4.262,62.991 -0.000,58.729 -0.000,53.490 C-0.000,53.490 -0.000,9.487 -0.000,9.487 C-0.000,4.249 4.262,-0.013 9.500,-0.013 C9.500,-0.013 44.500,-0.013 44.500,-0.013 C49.738,-0.013 54.000,4.249 54.000,9.487 C54.000,9.487 54.000,53.490 54.000,53.490 C54.000,58.729 49.738,62.991 44.500,62.991 ZM9.500,2.987 C5.916,2.987 3.000,5.903 3.000,9.487 C3.000,9.487 3.000,53.490 3.000,53.490 C3.000,57.075 5.916,59.991 9.500,59.991 C9.500,59.991 44.500,59.991 44.500,59.991 C48.084,59.991 51.000,57.075 51.000,53.490 C51.000,53.490 51.000,9.487 51.000,9.487 C51.000,5.903 48.084,2.987 44.500,2.987 C44.500,2.987 9.500,2.987 9.500,2.987 Z" id="path-2" class="cls-4" fill-rule="evenodd"/>
    <path d="M46.000,16.988 C46.000,16.988 10.000,16.988 10.000,16.988 C9.171,16.988 8.500,16.316 8.500,15.488 C8.500,14.659 9.171,13.988 10.000,13.988 C10.000,13.988 46.000,13.988 46.000,13.988 C46.829,13.988 47.500,14.659 47.500,15.488 C47.500,16.316 46.829,16.988 46.000,16.988 Z" id="path-3" class="cls-4" fill-rule="evenodd"/>
    <path d="M46.000,24.988 C46.000,24.988 10.000,24.988 10.000,24.988 C9.171,24.988 8.500,24.316 8.500,23.488 C8.500,22.660 9.171,21.988 10.000,21.988 C10.000,21.988 46.000,21.988 46.000,21.988 C46.829,21.988 47.500,22.660 47.500,23.488 C47.500,24.316 46.829,24.988 46.000,24.988 Z" id="path-4" class="cls-4" fill-rule="evenodd"/>
    <path d="M46.000,31.989 C46.000,31.989 10.000,31.989 10.000,31.989 C9.171,31.989 8.500,31.317 8.500,30.489 C8.500,29.661 9.171,28.989 10.000,28.989 C10.000,28.989 46.000,28.989 46.000,28.989 C46.829,28.989 47.500,29.661 47.500,30.489 C47.500,31.317 46.829,31.989 46.000,31.989 Z" id="path-5" class="cls-4" fill-rule="evenodd"/>
    <path d="M46.000,38.989 C46.000,38.989 10.000,38.989 10.000,38.989 C9.171,38.989 8.500,38.317 8.500,37.489 C8.500,36.661 9.171,35.989 10.000,35.989 C10.000,35.989 46.000,35.989 46.000,35.989 C46.829,35.989 47.500,36.661 47.500,37.489 C47.500,38.317 46.829,38.989 46.000,38.989 Z" id="path-6" class="cls-4" fill-rule="evenodd"/>
  </g>
</svg>
