<svg xmlns="http://www.w3.org/2000/svg" xmlns:xlink="http://www.w3.org/1999/xlink" preserveAspectRatio="xMidYMid" width="65" height="66" viewBox="0 0 65 66">
  <defs>
    <style>

      .cls-3 {
        fill: #edc951;
      }

      .cls-4 {
        fill: #8b71b5;
      }

      .cls-5 {
        fill: #000000;
      }
    </style>
  </defs>
  <g id="group-98svg">
    <path d="M23.210,5.000 C23.210,5.000 47.710,5.000 47.710,5.000 C49.910,5.000 52.000,6.300 52.000,8.501 C52.000,8.501 52.000,60.504 52.000,60.504 C52.000,62.705 49.910,65.005 47.710,65.005 C47.710,65.005 10.710,65.005 10.710,65.005 C8.501,65.005 7.000,62.713 7.000,60.504 C7.000,60.504 7.000,24.571 7.000,24.571 C7.000,24.571 23.210,5.000 23.210,5.000 Z" id="path-1" class="cls-3" fill-rule="evenodd"/>
    <path d="M7.896,23.002 C7.896,23.002 19.210,23.002 19.210,23.002 C21.419,23.002 23.000,21.211 23.000,19.001 C23.000,19.001 23.000,4.500 23.000,4.500 C23.000,4.500 7.896,23.002 7.896,23.002 Z" id="path-2" class="cls-4" fill-rule="evenodd"/>
    <path d="M42.710,63.004 C42.710,63.004 5.710,63.004 5.710,63.004 C2.615,63.004 -0.000,60.486 -0.000,57.504 C-0.000,57.504 -0.000,21.571 -0.000,21.571 C-0.000,21.228 0.117,20.895 0.333,20.628 C0.333,20.628 16.543,0.558 16.543,0.558 C16.828,0.205 17.257,0.000 17.710,0.000 C17.710,0.000 42.710,0.000 42.710,0.000 C45.677,0.000 48.000,2.416 48.000,5.500 C48.000,5.500 48.000,57.504 48.000,57.504 C48.000,60.588 45.677,63.004 42.710,63.004 ZM3.000,22.101 C3.000,22.101 3.000,57.504 3.000,57.504 C3.000,58.836 4.267,60.004 5.710,60.004 C5.710,60.004 42.710,60.004 42.710,60.004 C44.016,60.004 45.000,58.929 45.000,57.504 C45.000,57.504 45.000,5.500 45.000,5.500 C45.000,4.075 44.016,3.000 42.710,3.000 C42.710,3.000 18.427,3.000 18.427,3.000 C18.427,3.000 3.000,22.101 3.000,22.101 Z" id="path-3" class="cls-5" fill-rule="evenodd"/>
    <path d="M13.339,22.002 C13.339,22.002 2.562,22.002 2.562,22.002 C1.986,22.002 1.462,21.671 1.212,21.153 C0.961,20.634 1.030,20.019 1.389,19.568 C1.389,19.568 16.326,0.781 16.326,0.781 C16.723,0.282 17.393,0.090 17.994,0.299 C18.597,0.509 19.000,1.077 19.000,1.715 C19.000,1.715 19.000,16.021 19.000,16.021 C19.000,19.151 16.302,22.002 13.339,22.002 ZM5.672,19.001 C5.672,19.001 13.339,19.001 13.339,19.001 C14.632,19.001 16.000,17.469 16.000,16.021 C16.000,16.021 16.000,6.012 16.000,6.012 C16.000,6.012 5.672,19.001 5.672,19.001 Z" id="path-4" class="cls-5" fill-rule="evenodd"/>
    <path d="M63.000,37.003 C63.000,39.212 61.209,41.003 59.000,41.003 C59.000,41.003 40.000,41.003 40.000,41.003 C37.791,41.003 36.000,39.212 36.000,37.003 C36.000,37.003 36.000,28.002 36.000,28.002 C36.000,25.793 37.791,24.002 40.000,24.002 C40.000,24.002 59.000,24.002 59.000,24.002 C61.209,24.002 63.000,25.793 63.000,28.002 C63.000,28.002 63.000,37.003 63.000,37.003 Z" id="path-5" class="cls-4" fill-rule="evenodd"/>
    <path d="M59.500,42.003 C59.500,42.003 40.500,42.003 40.500,42.003 C37.468,42.003 35.000,39.535 35.000,36.503 C35.000,36.503 35.000,27.502 35.000,27.502 C35.000,24.470 37.468,22.002 40.500,22.002 C40.500,22.002 59.500,22.002 59.500,22.002 C62.532,22.002 65.000,24.470 65.000,27.502 C65.000,27.502 65.000,36.503 65.000,36.503 C65.000,39.535 62.532,42.003 59.500,42.003 ZM40.500,25.002 C39.121,25.002 38.000,26.123 38.000,27.502 C38.000,27.502 38.000,36.503 38.000,36.503 C38.000,37.882 39.121,39.003 40.500,39.003 C40.500,39.003 59.500,39.003 59.500,39.003 C60.879,39.003 62.000,37.882 62.000,36.503 C62.000,36.503 62.000,27.502 62.000,27.502 C62.000,26.123 60.879,25.002 59.500,25.002 C59.500,25.002 40.500,25.002 40.500,25.002 Z" id="path-6" class="cls-5" fill-rule="evenodd"/>
    <path d="M42.360,34.910 C42.360,34.910 41.213,30.349 41.213,30.349 C41.213,30.349 41.213,35.291 41.213,35.291 C41.213,35.564 41.151,35.769 41.029,35.906 C40.907,36.043 40.745,36.111 40.544,36.111 C40.349,36.111 40.188,36.043 40.065,35.909 C39.941,35.773 39.880,35.567 39.880,35.291 C39.880,35.291 39.880,29.626 39.880,29.626 C39.880,29.314 39.961,29.103 40.124,28.994 C40.286,28.885 40.506,28.830 40.783,28.830 C40.783,28.830 41.232,28.830 41.232,28.830 C41.502,28.830 41.698,28.855 41.820,28.903 C41.942,28.952 42.033,29.040 42.092,29.167 C42.150,29.294 42.217,29.501 42.292,29.787 C42.292,29.787 43.332,33.708 43.332,33.708 C43.332,33.708 44.372,29.787 44.372,29.787 C44.446,29.501 44.514,29.294 44.572,29.167 C44.631,29.040 44.721,28.952 44.843,28.903 C44.965,28.855 45.161,28.830 45.432,28.830 C45.432,28.830 45.881,28.830 45.881,28.830 C46.157,28.830 46.377,28.885 46.540,28.994 C46.702,29.103 46.784,29.314 46.784,29.626 C46.784,29.626 46.784,35.291 46.784,35.291 C46.784,35.564 46.723,35.769 46.601,35.906 C46.478,36.043 46.315,36.111 46.110,36.111 C45.918,36.111 45.760,36.043 45.637,35.906 C45.513,35.769 45.451,35.564 45.451,35.291 C45.451,35.291 45.451,30.349 45.451,30.349 C45.451,30.349 44.304,34.910 44.304,34.910 C44.229,35.206 44.168,35.423 44.120,35.561 C44.073,35.700 43.986,35.826 43.859,35.940 C43.732,36.054 43.557,36.111 43.332,36.111 C43.162,36.111 43.019,36.075 42.902,36.001 C42.785,35.928 42.693,35.835 42.629,35.720 C42.563,35.606 42.513,35.480 42.475,35.342 C42.437,35.204 42.399,35.059 42.360,34.910 Z" id="path-7" class="cls-3" fill-rule="evenodd"/>
    <path d="M51.052,33.201 C51.052,33.201 49.724,33.201 49.724,33.201 C49.724,33.201 49.724,35.227 49.724,35.227 C49.724,35.517 49.655,35.737 49.519,35.886 C49.382,36.036 49.209,36.111 49.001,36.111 C48.782,36.111 48.606,36.037 48.474,35.889 C48.340,35.741 48.273,35.523 48.273,35.237 C48.273,35.237 48.273,29.719 48.273,29.719 C48.273,29.400 48.347,29.172 48.493,29.035 C48.640,28.898 48.872,28.830 49.191,28.830 C49.191,28.830 51.052,28.830 51.052,28.830 C51.602,28.830 52.024,28.872 52.321,28.957 C52.614,29.038 52.867,29.174 53.080,29.363 C53.294,29.551 53.455,29.782 53.566,30.056 C53.677,30.329 53.732,30.637 53.732,30.979 C53.732,31.708 53.508,32.260 53.059,32.637 C52.609,33.012 51.940,33.201 51.052,33.201 ZM50.700,29.919 C50.700,29.919 49.724,29.919 49.724,29.919 C49.724,29.919 49.724,32.107 49.724,32.107 C49.724,32.107 50.700,32.107 50.700,32.107 C51.042,32.107 51.327,32.071 51.557,31.999 C51.786,31.928 51.961,31.811 52.082,31.648 C52.202,31.485 52.263,31.272 52.263,31.008 C52.263,30.693 52.170,30.435 51.984,30.237 C51.775,30.025 51.348,29.919 50.700,29.919 Z" id="path-8" class="cls-3" fill-rule="evenodd"/>
    <path d="M61.481,33.079 C61.481,33.079 61.481,34.451 61.481,34.451 C61.481,34.633 61.463,34.779 61.428,34.887 C61.392,34.997 61.326,35.095 61.229,35.183 C61.134,35.271 61.011,35.356 60.861,35.437 C60.428,35.671 60.012,35.842 59.611,35.950 C59.211,36.057 58.774,36.111 58.303,36.111 C57.752,36.111 57.251,36.026 56.799,35.857 C56.346,35.688 55.960,35.442 55.642,35.120 C55.322,34.797 55.077,34.407 54.906,33.948 C54.735,33.489 54.650,32.976 54.650,32.410 C54.650,31.853 54.733,31.343 54.899,30.881 C55.065,30.419 55.310,30.027 55.632,29.704 C55.954,29.382 56.346,29.135 56.809,28.965 C57.270,28.793 57.795,28.708 58.381,28.708 C58.862,28.708 59.289,28.773 59.660,28.901 C60.031,29.029 60.332,29.192 60.563,29.387 C60.794,29.582 60.969,29.789 61.086,30.007 C61.203,30.225 61.262,30.419 61.262,30.588 C61.262,30.771 61.194,30.926 61.059,31.055 C60.924,31.183 60.762,31.247 60.573,31.247 C60.469,31.247 60.369,31.223 60.272,31.174 C60.177,31.125 60.096,31.057 60.031,30.969 C59.852,30.689 59.700,30.478 59.577,30.334 C59.453,30.191 59.286,30.071 59.076,29.973 C58.866,29.875 58.599,29.826 58.273,29.826 C57.937,29.826 57.639,29.884 57.375,30.000 C57.111,30.115 56.886,30.283 56.698,30.502 C56.512,30.723 56.368,30.992 56.269,31.311 C56.170,31.630 56.120,31.983 56.120,32.370 C56.120,33.210 56.312,33.857 56.698,34.309 C57.084,34.761 57.622,34.988 58.312,34.988 C58.647,34.988 58.963,34.944 59.257,34.856 C59.552,34.768 59.851,34.643 60.153,34.480 C60.153,34.480 60.153,33.318 60.153,33.318 C60.153,33.318 59.030,33.318 59.030,33.318 C58.760,33.318 58.556,33.277 58.417,33.196 C58.279,33.115 58.210,32.976 58.210,32.781 C58.210,32.621 58.268,32.490 58.383,32.385 C58.499,32.281 58.655,32.229 58.854,32.229 C58.854,32.229 60.500,32.229 60.500,32.229 C60.701,32.229 60.872,32.246 61.013,32.283 C61.152,32.319 61.266,32.398 61.352,32.522 C61.438,32.646 61.481,32.831 61.481,33.079 Z" id="path-9" class="cls-3" fill-rule="evenodd"/>
  </g>
</svg>
