<svg xmlns="http://www.w3.org/2000/svg" xmlns:xlink="http://www.w3.org/1999/xlink" preserveAspectRatio="xMidYMid" width="61" height="66" viewBox="0 0 61 66">
  <defs>
    <style>

      .cls-3 {
        fill: #edc951;
      }

      .cls-4 {
        fill: #8b71b5;
      }

      .cls-5 {
        fill: #000000;
      }
    </style>
  </defs>
  <g id="group-95svg">
    <path d="M22.655,5.000 C22.655,5.000 47.155,5.000 47.155,5.000 C49.355,5.000 51.000,6.300 51.000,8.501 C51.000,8.501 51.000,60.504 51.000,60.504 C51.000,62.705 49.355,65.005 47.155,65.005 C47.155,65.005 10.155,65.005 10.155,65.005 C7.946,65.005 6.000,62.713 6.000,60.504 C6.000,60.504 6.000,24.571 6.000,24.571 C6.000,24.571 22.655,5.000 22.655,5.000 Z" id="path-1" class="cls-3" fill-rule="evenodd"/>
    <path d="M7.341,23.002 C7.341,23.002 18.655,23.002 18.655,23.002 C20.865,23.002 23.000,21.211 23.000,19.001 C23.000,19.001 23.000,4.500 23.000,4.500 C23.000,4.500 7.341,23.002 7.341,23.002 Z" id="path-2" class="cls-4" fill-rule="evenodd"/>
    <path d="M42.155,63.004 C42.155,63.004 5.155,63.004 5.155,63.004 C2.216,63.004 -0.000,60.640 -0.000,57.504 C-0.000,57.504 -0.000,21.571 -0.000,21.571 C-0.000,21.237 0.112,20.912 0.317,20.648 C0.317,20.648 15.973,0.577 15.973,0.577 C16.257,0.213 16.693,0.000 17.155,0.000 C17.155,0.000 42.155,0.000 42.155,0.000 C45.269,0.000 48.000,2.570 48.000,5.500 C48.000,5.500 48.000,57.504 48.000,57.504 C48.000,60.434 45.269,63.004 42.155,63.004 ZM3.000,22.087 C3.000,22.087 3.000,57.504 3.000,57.504 C3.000,58.708 3.674,60.004 5.155,60.004 C5.155,60.004 42.155,60.004 42.155,60.004 C43.618,60.004 45.000,58.789 45.000,57.504 C45.000,57.504 45.000,5.500 45.000,5.500 C45.000,4.215 43.618,3.000 42.155,3.000 C42.155,3.000 17.888,3.000 17.888,3.000 C17.888,3.000 3.000,22.087 3.000,22.087 Z" id="path-3" class="cls-5" fill-rule="evenodd"/>
    <path d="M12.784,22.002 C12.784,22.002 2.008,22.002 2.008,22.002 C1.427,22.002 0.899,21.667 0.651,21.141 C0.403,20.616 0.481,19.995 0.851,19.547 C0.851,19.547 16.343,0.761 16.343,0.761 C16.745,0.273 17.412,0.088 18.007,0.303 C18.603,0.517 19.000,1.082 19.000,1.715 C19.000,1.715 19.000,16.021 19.000,16.021 C19.000,18.983 15.863,22.002 12.784,22.002 ZM5.189,19.001 C5.189,19.001 12.784,19.001 12.784,19.001 C14.196,19.001 16.000,17.330 16.000,16.021 C16.000,16.021 16.000,5.892 16.000,5.892 C16.000,5.892 5.189,19.001 5.189,19.001 Z" id="path-4" class="cls-5" fill-rule="evenodd"/>
    <path d="M59.000,37.003 C59.000,39.212 57.209,41.003 55.000,41.003 C55.000,41.003 36.000,41.003 36.000,41.003 C33.791,41.003 32.000,39.212 32.000,37.003 C32.000,37.003 32.000,28.002 32.000,28.002 C32.000,25.793 33.791,24.002 36.000,24.002 C36.000,24.002 55.000,24.002 55.000,24.002 C57.209,24.002 59.000,25.793 59.000,28.002 C59.000,28.002 59.000,37.003 59.000,37.003 Z" id="path-5" class="cls-4" fill-rule="evenodd"/>
    <path d="M55.500,42.003 C55.500,42.003 36.500,42.003 36.500,42.003 C33.467,42.003 31.000,39.535 31.000,36.503 C31.000,36.503 31.000,27.502 31.000,27.502 C31.000,24.470 33.467,22.002 36.500,22.002 C36.500,22.002 55.500,22.002 55.500,22.002 C58.533,22.002 61.000,24.470 61.000,27.502 C61.000,27.502 61.000,36.503 61.000,36.503 C61.000,39.535 58.533,42.003 55.500,42.003 ZM36.500,25.002 C35.122,25.002 34.000,26.123 34.000,27.502 C34.000,27.502 34.000,36.503 34.000,36.503 C34.000,37.882 35.122,39.003 36.500,39.003 C36.500,39.003 55.500,39.003 55.500,39.003 C56.878,39.003 58.000,37.882 58.000,36.503 C58.000,36.503 58.000,27.502 58.000,27.502 C58.000,26.123 56.878,25.002 55.500,25.002 C55.500,25.002 36.500,25.002 36.500,25.002 Z" id="path-6" class="cls-5" fill-rule="evenodd"/>
    <path d="M41.753,29.948 C41.753,29.948 38.897,29.948 38.897,29.948 C38.897,29.948 38.897,31.780 38.897,31.780 C38.897,31.780 41.285,31.780 41.285,31.780 C41.506,31.780 41.671,31.829 41.780,31.928 C41.889,32.028 41.944,32.160 41.944,32.326 C41.944,32.492 41.889,32.624 41.778,32.722 C41.667,32.820 41.503,32.869 41.285,32.869 C41.285,32.869 38.897,32.869 38.897,32.869 C38.897,32.869 38.897,35.227 38.897,35.227 C38.897,35.527 38.830,35.749 38.694,35.893 C38.559,36.039 38.386,36.111 38.174,36.111 C37.959,36.111 37.785,36.038 37.649,35.891 C37.514,35.745 37.447,35.523 37.447,35.227 C37.447,35.227 37.447,29.719 37.447,29.719 C37.447,29.511 37.478,29.340 37.540,29.209 C37.601,29.076 37.698,28.981 37.830,28.920 C37.962,28.860 38.130,28.830 38.335,28.830 C38.335,28.830 41.753,28.830 41.753,28.830 C41.984,28.830 42.156,28.881 42.268,28.984 C42.381,29.086 42.437,29.221 42.437,29.387 C42.437,29.556 42.381,29.692 42.268,29.795 C42.156,29.897 41.984,29.948 41.753,29.948 Z" id="path-7" class="cls-3" fill-rule="evenodd"/>
    <path d="M44.937,29.587 C44.937,29.587 44.937,34.797 44.937,34.797 C44.937,34.797 47.876,34.797 47.876,34.797 C48.111,34.797 48.290,34.854 48.416,34.968 C48.541,35.083 48.604,35.225 48.604,35.398 C48.604,35.574 48.542,35.716 48.418,35.825 C48.295,35.934 48.114,35.989 47.876,35.989 C47.876,35.989 44.375,35.989 44.375,35.989 C44.060,35.989 43.832,35.919 43.694,35.779 C43.556,35.639 43.487,35.413 43.487,35.100 C43.487,35.100 43.487,29.587 43.487,29.587 C43.487,29.294 43.553,29.074 43.685,28.928 C43.816,28.781 43.990,28.708 44.205,28.708 C44.423,28.708 44.599,28.780 44.734,28.926 C44.870,29.070 44.937,29.291 44.937,29.587 Z" id="path-8" class="cls-3" fill-rule="evenodd"/>
    <path d="M49.488,29.660 C49.488,29.660 51.109,34.461 51.109,34.461 C51.109,34.461 52.735,29.626 52.735,29.626 C52.819,29.372 52.883,29.196 52.925,29.096 C52.968,28.997 53.038,28.907 53.135,28.828 C53.233,28.748 53.366,28.708 53.536,28.708 C53.659,28.708 53.774,28.739 53.880,28.801 C53.986,28.862 54.069,28.945 54.129,29.047 C54.189,29.151 54.219,29.253 54.219,29.358 C54.219,29.429 54.209,29.506 54.190,29.590 C54.170,29.672 54.146,29.754 54.117,29.834 C54.087,29.913 54.058,29.995 54.029,30.080 C54.029,30.080 52.295,34.758 52.295,34.758 C52.233,34.937 52.172,35.108 52.110,35.268 C52.048,35.430 51.977,35.571 51.895,35.694 C51.813,35.815 51.706,35.916 51.570,35.994 C51.435,36.072 51.270,36.111 51.075,36.111 C50.879,36.111 50.714,36.073 50.579,35.997 C50.444,35.920 50.335,35.819 50.252,35.694 C50.169,35.568 50.097,35.425 50.035,35.266 C49.973,35.107 49.911,34.937 49.849,34.758 C49.849,34.758 48.145,30.119 48.145,30.119 C48.116,30.034 48.085,29.951 48.055,29.870 C48.024,29.789 47.997,29.701 47.976,29.607 C47.955,29.512 47.945,29.433 47.945,29.367 C47.945,29.201 48.012,29.050 48.145,28.913 C48.278,28.776 48.446,28.708 48.648,28.708 C48.895,28.708 49.070,28.783 49.173,28.936 C49.275,29.086 49.380,29.328 49.488,29.660 Z" id="path-9" class="cls-3" fill-rule="evenodd"/>
  </g>
</svg>
