<svg xmlns="http://www.w3.org/2000/svg" xmlns:xlink="http://www.w3.org/1999/xlink" preserveAspectRatio="xMidYMid" width="51" height="66" viewBox="0 0 51 66">
  <defs>
    <style>

      .cls-3 {
        fill: #edc951;
      }

      .cls-4 {
        fill: #8b71b5;
      }

      .cls-5 {
        fill: #000000;
      }
    </style>
  </defs>
  <g id="group-63svg">
    <path d="M22.524,5.005 C22.524,5.005 47.024,5.005 47.024,5.005 C49.224,5.005 51.000,6.305 51.000,8.505 C51.000,8.505 51.000,60.509 51.000,60.509 C51.000,62.709 49.224,65.009 47.024,65.009 C47.024,65.009 10.024,65.009 10.024,65.009 C7.815,65.009 6.000,62.718 6.000,60.509 C6.000,60.509 6.000,24.575 6.000,24.575 C6.000,24.575 22.524,5.005 22.524,5.005 Z" id="path-1" class="cls-3" fill-rule="evenodd"/>
    <path d="M7.209,23.006 C7.209,23.006 18.524,23.006 18.524,23.006 C20.733,23.006 23.000,21.215 23.000,19.006 C23.000,19.006 23.000,4.505 23.000,4.505 C23.000,4.505 7.209,23.006 7.209,23.006 Z" id="path-2" class="cls-4" fill-rule="evenodd"/>
    <path d="M42.024,63.009 C42.024,63.009 5.024,63.009 5.024,63.009 C2.113,63.009 -0.000,60.695 -0.000,57.508 C-0.000,57.508 -0.000,21.575 -0.000,21.575 C-0.000,21.243 0.110,20.920 0.313,20.657 C0.313,20.657 15.837,0.587 15.837,0.587 C16.122,0.219 16.560,0.004 17.024,0.004 C17.024,0.004 42.024,0.004 42.024,0.004 C45.207,0.004 48.000,2.575 48.000,5.505 C48.000,5.505 48.000,57.508 48.000,57.508 C48.000,60.438 45.207,63.009 42.024,63.009 ZM3.000,22.088 C3.000,22.088 3.000,57.508 3.000,57.508 C3.000,58.662 3.530,60.009 5.024,60.009 C5.024,60.009 42.024,60.009 42.024,60.009 C43.526,60.009 45.000,58.770 45.000,57.508 C45.000,57.508 45.000,5.505 45.000,5.505 C45.000,4.243 43.526,3.005 42.024,3.005 C42.024,3.005 17.760,3.005 17.760,3.005 C17.760,3.005 3.000,22.088 3.000,22.088 Z" id="path-3" class="cls-5" fill-rule="evenodd"/>
    <path d="M12.652,22.006 C12.652,22.006 1.876,22.006 1.876,22.006 C1.295,22.006 0.766,21.670 0.518,21.143 C0.271,20.616 0.351,19.994 0.723,19.547 C0.723,19.547 16.347,0.760 16.347,0.760 C16.750,0.274 17.415,0.093 18.010,0.308 C18.604,0.523 19.000,1.087 19.000,1.719 C19.000,1.719 19.000,16.025 19.000,16.025 C19.000,19.246 15.510,22.006 12.652,22.006 ZM5.075,19.006 C5.075,19.006 12.652,19.006 12.652,19.006 C14.091,19.006 16.000,17.306 16.000,16.025 C16.000,16.025 16.000,5.869 16.000,5.869 C16.000,5.869 5.075,19.006 5.075,19.006 Z" id="path-4" class="cls-5" fill-rule="evenodd"/>
    <path d="M26.509,52.598 C26.509,52.598 24.009,52.598 24.009,52.598 C24.009,52.598 24.009,56.413 24.009,56.413 C24.009,56.959 23.881,57.372 23.624,57.654 C23.366,57.936 23.041,58.077 22.649,58.077 C22.239,58.077 21.908,57.937 21.657,57.659 C21.405,57.380 21.280,56.970 21.280,56.431 C21.280,56.431 21.280,46.045 21.280,46.045 C21.280,45.444 21.417,45.015 21.693,44.758 C21.969,44.500 22.407,44.372 23.008,44.372 C23.008,44.372 26.509,44.372 26.509,44.372 C27.545,44.372 28.341,44.451 28.899,44.611 C29.451,44.763 29.927,45.018 30.329,45.374 C30.729,45.729 31.035,46.164 31.243,46.679 C31.451,47.193 31.555,47.772 31.555,48.416 C31.555,49.789 31.133,50.828 30.287,51.536 C29.441,52.244 28.182,52.598 26.509,52.598 ZM25.848,46.422 C25.848,46.422 24.009,46.422 24.009,46.422 C24.009,46.422 24.009,50.539 24.009,50.539 C24.009,50.539 25.848,50.539 25.848,50.539 C26.491,50.539 27.029,50.472 27.461,50.337 C27.893,50.202 28.222,49.981 28.449,49.676 C28.675,49.369 28.789,48.968 28.789,48.471 C28.789,47.877 28.614,47.392 28.265,47.019 C27.873,46.621 27.067,46.422 25.848,46.422 Z" id="path-5" class="cls-4" fill-rule="evenodd"/>
    <path d="M41.739,54.795 C41.739,55.488 41.571,56.081 41.234,56.574 C40.896,57.067 40.399,57.441 39.740,57.695 C39.082,57.950 38.280,58.077 37.337,58.077 C36.436,58.077 35.664,57.938 35.020,57.663 C34.377,57.387 33.902,57.043 33.596,56.629 C33.289,56.215 33.136,55.800 33.136,55.383 C33.136,55.108 33.234,54.872 33.431,54.676 C33.626,54.480 33.874,54.381 34.175,54.381 C34.438,54.381 34.641,54.446 34.782,54.575 C34.922,54.704 35.057,54.884 35.186,55.117 C35.443,55.564 35.751,55.898 36.110,56.119 C36.468,56.339 36.957,56.450 37.576,56.450 C38.078,56.450 38.490,56.338 38.812,56.114 C39.134,55.891 39.294,55.635 39.294,55.346 C39.294,54.906 39.127,54.583 38.793,54.381 C38.459,54.179 37.910,53.987 37.143,53.802 C36.280,53.588 35.577,53.363 35.034,53.127 C34.492,52.891 34.059,52.580 33.734,52.194 C33.409,51.808 33.247,51.333 33.247,50.770 C33.247,50.267 33.396,49.792 33.697,49.344 C33.997,48.897 34.440,48.540 35.025,48.273 C35.610,48.007 36.316,47.874 37.143,47.874 C37.793,47.874 38.377,47.941 38.895,48.076 C39.412,48.211 39.844,48.392 40.190,48.618 C40.537,48.845 40.800,49.096 40.981,49.372 C41.162,49.648 41.252,49.918 41.252,50.181 C41.252,50.469 41.156,50.705 40.962,50.889 C40.769,51.072 40.495,51.164 40.140,51.164 C39.883,51.164 39.663,51.091 39.483,50.943 C39.302,50.797 39.095,50.576 38.862,50.281 C38.672,50.037 38.449,49.841 38.191,49.693 C37.934,49.547 37.585,49.473 37.143,49.473 C36.690,49.473 36.313,49.569 36.013,49.763 C35.713,49.955 35.563,50.196 35.563,50.484 C35.563,50.748 35.673,50.964 35.893,51.132 C36.114,51.301 36.412,51.440 36.785,51.551 C37.159,51.660 37.674,51.795 38.329,51.955 C39.107,52.145 39.743,52.371 40.236,52.635 C40.729,52.899 41.103,53.209 41.358,53.568 C41.612,53.926 41.739,54.335 41.739,54.795 Z" id="path-6" class="cls-4" fill-rule="evenodd"/>
  </g>
</svg>
