<svg xmlns="http://www.w3.org/2000/svg" xmlns:xlink="http://www.w3.org/1999/xlink" preserveAspectRatio="xMidYMid" width="51" height="65" viewBox="0 0 51 65">
  <defs>
    <style>

      .cls-3 {
        fill: #edc951;
      }

      .cls-4 {
        fill: #8b71b5;
      }

      .cls-5 {
        fill: #000000;
      }
    </style>
  </defs>
  <g id="group-61svg">
    <path d="M22.986,3.996 C22.986,3.996 47.486,3.996 47.486,3.996 C49.687,3.996 51.000,6.071 51.000,8.271 C51.000,8.271 51.000,60.275 51.000,60.275 C51.000,62.474 49.687,64.000 47.486,64.000 C47.486,64.000 10.486,64.000 10.486,64.000 C8.277,64.000 6.000,62.484 6.000,60.275 C6.000,60.275 6.000,24.342 6.000,24.342 C6.000,24.342 22.986,3.996 22.986,3.996 Z" id="path-1" class="cls-3" fill-rule="evenodd"/>
    <path d="M7.673,22.997 C7.673,22.997 18.986,22.997 18.986,22.997 C21.196,22.997 23.000,20.981 23.000,18.772 C23.000,18.772 23.000,4.271 23.000,4.271 C23.000,4.271 7.673,22.997 7.673,22.997 Z" id="path-2" class="cls-4" fill-rule="evenodd"/>
    <path d="M42.487,63.000 C42.487,63.000 5.487,63.000 5.487,63.000 C2.513,63.000 -0.000,60.379 -0.000,57.275 C-0.000,57.275 -0.000,21.342 -0.000,21.342 C-0.000,20.999 0.117,20.667 0.332,20.400 C0.332,20.400 16.319,0.554 16.319,0.554 C16.603,0.200 17.033,-0.005 17.487,-0.005 C17.487,-0.005 42.487,-0.005 42.487,-0.005 C45.578,-0.005 48.000,2.313 48.000,5.271 C48.000,5.271 48.000,57.275 48.000,57.275 C48.000,60.379 45.476,63.000 42.487,63.000 ZM3.000,21.871 C3.000,21.871 3.000,57.275 3.000,57.275 C3.000,58.726 4.162,60.000 5.487,60.000 C5.487,60.000 42.487,60.000 42.487,60.000 C43.803,60.000 45.000,58.701 45.000,57.275 C45.000,57.275 45.000,5.271 45.000,5.271 C45.000,3.974 43.920,2.996 42.487,2.996 C42.487,2.996 18.205,2.996 18.205,2.996 C18.205,2.996 3.000,21.871 3.000,21.871 Z" id="path-3" class="cls-5" fill-rule="evenodd"/>
    <path d="M13.115,21.997 C13.115,21.997 2.340,21.997 2.340,21.997 C1.764,21.997 1.238,21.667 0.988,21.147 C0.738,20.629 0.808,20.012 1.167,19.561 C1.167,19.561 16.327,0.550 16.327,0.550 C16.726,0.053 17.395,-0.140 17.995,0.070 C18.597,0.281 19.000,0.848 19.000,1.486 C19.000,1.486 19.000,15.790 19.000,15.790 C19.000,18.922 16.085,21.997 13.115,21.997 ZM5.455,18.997 C5.455,18.997 13.115,18.997 13.115,18.997 C14.409,18.997 16.000,17.229 16.000,15.790 C16.000,15.790 16.000,5.773 16.000,5.773 C16.000,5.773 5.455,18.997 5.455,18.997 Z" id="path-4" class="cls-5" fill-rule="evenodd"/>
    <path d="M26.155,37.965 C26.155,39.315 25.061,40.409 23.711,40.409 C22.361,40.409 21.268,39.315 21.268,37.965 C21.268,36.615 22.361,35.521 23.711,35.521 C25.061,35.521 26.155,36.615 26.155,37.965 Z" id="path-5" class="cls-4" fill-rule="evenodd"/>
    <path d="M34.576,54.000 C33.849,54.000 33.210,53.470 33.096,52.729 C32.970,51.910 33.530,51.144 34.350,51.018 C34.336,51.018 34.416,50.980 34.430,50.950 C34.432,50.946 34.610,50.515 33.942,49.243 C32.195,45.922 32.746,44.224 33.703,43.026 C32.560,41.815 31.929,40.150 33.618,36.938 C34.317,35.609 34.195,35.064 34.163,34.969 C34.156,34.946 34.139,34.895 34.090,34.872 C34.090,34.872 34.578,33.455 34.578,33.455 C34.578,33.455 34.980,32.009 34.980,32.009 C35.203,32.072 36.344,32.447 36.908,33.755 C37.439,34.984 37.226,36.525 36.272,38.335 C35.202,40.370 35.559,40.691 36.149,41.221 C36.180,41.248 36.210,41.276 36.240,41.303 C36.240,41.303 37.628,41.579 37.628,41.579 C38.352,41.723 38.862,42.371 38.834,43.109 C38.805,43.846 38.244,44.453 37.512,44.540 C37.512,44.540 36.224,44.693 36.224,44.693 C35.738,45.213 35.500,45.761 36.597,47.846 C37.531,49.622 37.703,51.121 37.107,52.304 C36.573,53.363 35.534,53.870 34.807,53.983 C34.729,53.994 34.652,54.000 34.576,54.000 Z" id="path-6" class="cls-4" fill-rule="evenodd"/>
    <path d="M13.159,54.000 C13.082,54.000 13.005,53.994 12.927,53.983 C12.199,53.870 11.160,53.363 10.627,52.304 C10.031,51.122 10.202,49.622 11.137,47.846 C12.234,45.760 11.995,45.213 11.510,44.693 C11.510,44.693 10.222,44.540 10.222,44.540 C9.489,44.453 8.929,43.846 8.899,43.109 C8.871,42.371 9.382,41.723 10.105,41.579 C10.105,41.579 11.493,41.303 11.493,41.303 C11.523,41.276 11.554,41.248 11.585,41.221 C12.175,40.691 12.531,40.370 11.461,38.335 C10.508,36.525 10.294,34.984 10.825,33.755 C11.390,32.447 12.530,32.072 12.753,32.009 C12.753,32.009 13.558,34.900 13.558,34.900 C13.558,34.900 13.593,34.896 13.643,34.872 C13.595,34.895 13.577,34.946 13.570,34.969 C13.538,35.064 13.416,35.609 14.115,36.938 C15.806,40.150 15.174,41.815 14.030,43.026 C14.987,44.225 15.539,45.922 13.791,49.243 C13.123,50.515 13.302,50.946 13.304,50.950 C13.317,50.980 13.398,51.018 13.437,51.027 C14.256,51.153 14.791,51.915 14.664,52.733 C14.550,53.475 13.891,54.000 13.159,54.000 Z" id="path-7" class="cls-4" fill-rule="evenodd"/>
    <path d="M26.155,46.528 C26.155,45.178 25.061,44.084 23.711,44.084 C22.361,44.084 21.268,45.178 21.268,46.528 C21.268,47.878 22.361,48.973 23.711,48.973 C23.847,48.973 23.976,48.953 24.104,48.932 C23.821,50.422 23.403,52.213 23.403,52.213 C24.640,51.727 25.586,49.310 25.986,47.803 C26.155,47.265 26.155,46.914 26.155,46.528 Z" id="path-8" class="cls-4" fill-rule="evenodd"/>
  </g>
</svg>
