<svg xmlns="http://www.w3.org/2000/svg" xmlns:xlink="http://www.w3.org/1999/xlink" preserveAspectRatio="xMidYMid" width="61" height="66" viewBox="0 0 61 66">
  <defs>
    <style>

      .cls-3 {
        fill: #edc951;
      }

      .cls-4 {
        fill: #8b71b5;
      }

      .cls-5 {
        fill: #000000;
      }
    </style>
  </defs>
  <g id="group-100svg">
    <path d="M22.986,5.000 C22.986,5.000 47.486,5.000 47.486,5.000 C49.686,5.000 51.000,6.300 51.000,8.501 C51.000,8.501 51.000,60.504 51.000,60.504 C51.000,62.705 49.686,65.005 47.486,65.005 C47.486,65.005 10.486,65.005 10.486,65.005 C8.277,65.005 6.000,62.713 6.000,60.504 C6.000,60.504 6.000,24.571 6.000,24.571 C6.000,24.571 22.986,5.000 22.986,5.000 Z" id="path-1" class="cls-3" fill-rule="evenodd"/>
    <path d="M7.673,23.002 C7.673,23.002 18.986,23.002 18.986,23.002 C21.196,23.002 23.000,21.211 23.000,19.001 C23.000,19.001 23.000,4.500 23.000,4.500 C23.000,4.500 7.673,23.002 7.673,23.002 Z" id="path-2" class="cls-4" fill-rule="evenodd"/>
    <path d="M42.487,63.004 C42.487,63.004 5.487,63.004 5.487,63.004 C2.462,63.004 -0.000,60.536 -0.000,57.504 C-0.000,57.504 -0.000,21.571 -0.000,21.571 C-0.000,21.231 0.115,20.902 0.327,20.636 C0.327,20.636 16.314,0.566 16.314,0.566 C16.599,0.208 17.030,0.000 17.487,0.000 C17.487,0.000 42.487,0.000 42.487,0.000 C45.527,0.000 48.000,2.468 48.000,5.500 C48.000,5.500 48.000,57.504 48.000,57.504 C48.000,60.536 45.527,63.004 42.487,63.004 ZM3.000,22.095 C3.000,22.095 3.000,57.504 3.000,57.504 C3.000,58.883 4.116,60.004 5.487,60.004 C5.487,60.004 42.487,60.004 42.487,60.004 C43.873,60.004 45.000,58.883 45.000,57.504 C45.000,57.504 45.000,5.500 45.000,5.500 C45.000,4.121 43.873,3.000 42.487,3.000 C42.487,3.000 18.210,3.000 18.210,3.000 C18.210,3.000 3.000,22.095 3.000,22.095 Z" id="path-3" class="cls-5" fill-rule="evenodd"/>
    <path d="M13.115,22.002 C13.115,22.002 2.340,22.002 2.340,22.002 C1.762,22.002 1.235,21.670 0.986,21.148 C0.737,20.627 0.810,20.009 1.173,19.559 C1.173,19.559 16.333,0.773 16.333,0.773 C16.732,0.279 17.401,0.092 18.000,0.301 C18.599,0.513 19.000,1.079 19.000,1.715 C19.000,1.715 19.000,16.021 19.000,16.021 C19.000,19.095 16.140,22.002 13.115,22.002 ZM5.477,19.001 C5.477,19.001 13.115,19.001 13.115,19.001 C14.463,19.001 16.000,17.413 16.000,16.021 C16.000,16.021 16.000,5.962 16.000,5.962 C16.000,5.962 5.477,19.001 5.477,19.001 Z" id="path-4" class="cls-5" fill-rule="evenodd"/>
    <path d="M59.000,37.003 C59.000,39.212 57.209,41.003 55.000,41.003 C55.000,41.003 36.000,41.003 36.000,41.003 C33.791,41.003 32.000,39.212 32.000,37.003 C32.000,37.003 32.000,28.002 32.000,28.002 C32.000,25.793 33.791,24.002 36.000,24.002 C36.000,24.002 55.000,24.002 55.000,24.002 C57.209,24.002 59.000,25.793 59.000,28.002 C59.000,28.002 59.000,37.003 59.000,37.003 Z" id="path-5" class="cls-4" fill-rule="evenodd"/>
    <path d="M55.500,42.003 C55.500,42.003 36.500,42.003 36.500,42.003 C33.468,42.003 31.000,39.535 31.000,36.503 C31.000,36.503 31.000,27.502 31.000,27.502 C31.000,24.470 33.468,22.002 36.500,22.002 C36.500,22.002 55.500,22.002 55.500,22.002 C58.532,22.002 61.000,24.470 61.000,27.502 C61.000,27.502 61.000,36.503 61.000,36.503 C61.000,39.535 58.532,42.003 55.500,42.003 ZM36.500,25.002 C35.121,25.002 34.000,26.123 34.000,27.502 C34.000,27.502 34.000,36.503 34.000,36.503 C34.000,37.882 35.121,39.003 36.500,39.003 C36.500,39.003 55.500,39.003 55.500,39.003 C56.879,39.003 58.000,37.882 58.000,36.503 C58.000,36.503 58.000,27.502 58.000,27.502 C58.000,26.123 56.879,25.002 55.500,25.002 C55.500,25.002 36.500,25.002 36.500,25.002 Z" id="path-6" class="cls-5" fill-rule="evenodd"/>
    <path d="M42.068,33.728 C42.068,33.955 42.012,34.203 41.899,34.467 C41.787,34.733 41.610,34.994 41.370,35.249 C41.129,35.504 40.821,35.712 40.447,35.872 C40.072,36.031 39.637,36.111 39.139,36.111 C38.761,36.111 38.417,36.075 38.108,36.004 C37.799,35.932 37.519,35.821 37.266,35.669 C37.014,35.518 36.781,35.318 36.570,35.071 C36.381,34.846 36.220,34.594 36.087,34.317 C35.953,34.038 35.853,33.741 35.786,33.425 C35.720,33.110 35.687,32.774 35.687,32.419 C35.687,31.843 35.771,31.327 35.937,30.871 C36.105,30.415 36.346,30.026 36.658,29.701 C36.971,29.378 37.337,29.131 37.757,28.962 C38.177,28.793 38.624,28.708 39.100,28.708 C39.679,28.708 40.194,28.823 40.647,29.055 C41.100,29.286 41.446,29.571 41.687,29.912 C41.928,30.252 42.049,30.573 42.049,30.876 C42.049,31.042 41.990,31.189 41.873,31.316 C41.756,31.443 41.614,31.506 41.448,31.506 C41.263,31.506 41.123,31.462 41.030,31.374 C40.937,31.286 40.834,31.135 40.721,30.920 C40.531,30.566 40.310,30.300 40.054,30.124 C39.799,29.948 39.483,29.861 39.109,29.861 C38.514,29.861 38.039,30.087 37.685,30.539 C37.333,30.992 37.156,31.635 37.156,32.468 C37.156,33.025 37.234,33.488 37.391,33.858 C37.547,34.227 37.768,34.502 38.055,34.685 C38.341,34.868 38.676,34.959 39.060,34.959 C39.477,34.959 39.829,34.855 40.117,34.649 C40.405,34.442 40.623,34.138 40.770,33.738 C40.831,33.549 40.907,33.395 40.999,33.276 C41.090,33.158 41.236,33.098 41.438,33.098 C41.610,33.098 41.759,33.159 41.883,33.279 C42.006,33.399 42.068,33.549 42.068,33.728 Z" id="path-7" class="cls-3" fill-rule="evenodd"/>
    <path d="M48.811,33.840 C48.811,34.273 48.700,34.663 48.477,35.007 C48.254,35.352 47.928,35.623 47.498,35.818 C47.068,36.013 46.559,36.111 45.970,36.111 C45.263,36.111 44.681,35.977 44.222,35.711 C43.895,35.518 43.632,35.262 43.428,34.942 C43.225,34.621 43.123,34.309 43.123,34.006 C43.123,33.831 43.184,33.680 43.306,33.555 C43.428,33.429 43.583,33.367 43.772,33.367 C43.925,33.367 44.055,33.415 44.160,33.513 C44.267,33.611 44.356,33.755 44.432,33.948 C44.522,34.175 44.621,34.366 44.726,34.519 C44.833,34.672 44.981,34.798 45.174,34.897 C45.365,34.997 45.618,35.046 45.931,35.046 C46.360,35.046 46.709,34.946 46.977,34.747 C47.246,34.545 47.381,34.296 47.381,33.997 C47.381,33.759 47.309,33.566 47.163,33.418 C47.019,33.270 46.831,33.157 46.602,33.079 C46.372,33.000 46.065,32.917 45.682,32.830 C45.167,32.709 44.736,32.569 44.390,32.407 C44.043,32.246 43.769,32.026 43.564,31.748 C43.361,31.469 43.260,31.123 43.260,30.710 C43.260,30.317 43.367,29.966 43.582,29.660 C43.797,29.355 44.107,29.119 44.515,28.955 C44.921,28.790 45.399,28.708 45.950,28.708 C46.390,28.708 46.769,28.763 47.090,28.871 C47.411,28.981 47.677,29.125 47.889,29.307 C48.100,29.487 48.255,29.677 48.353,29.875 C48.450,30.073 48.499,30.268 48.499,30.456 C48.499,30.629 48.437,30.784 48.315,30.922 C48.193,31.061 48.041,31.130 47.859,31.130 C47.693,31.130 47.567,31.088 47.480,31.006 C47.394,30.922 47.301,30.786 47.200,30.598 C47.069,30.327 46.913,30.117 46.731,29.965 C46.549,29.815 46.256,29.738 45.853,29.738 C45.477,29.738 45.176,29.821 44.946,29.985 C44.717,30.150 44.603,30.347 44.603,30.578 C44.603,30.722 44.642,30.845 44.720,30.950 C44.798,31.054 44.905,31.143 45.042,31.218 C45.179,31.293 45.316,31.352 45.457,31.394 C45.597,31.436 45.828,31.498 46.150,31.579 C46.554,31.674 46.919,31.778 47.246,31.892 C47.573,32.006 47.852,32.144 48.081,32.307 C48.311,32.470 48.490,32.676 48.618,32.924 C48.747,33.174 48.811,33.479 48.811,33.840 Z" id="path-8" class="cls-3" fill-rule="evenodd"/>
    <path d="M51.502,29.587 C51.502,29.587 51.502,31.638 51.502,31.638 C51.502,31.638 54.632,31.638 54.632,31.638 C54.632,31.638 54.632,29.587 54.632,29.587 C54.632,29.294 54.697,29.074 54.829,28.928 C54.961,28.781 55.135,28.708 55.350,28.708 C55.567,28.708 55.744,28.780 55.879,28.926 C56.015,29.070 56.082,29.291 56.082,29.587 C56.082,29.587 56.082,35.227 56.082,35.227 C56.082,35.523 56.014,35.745 55.877,35.891 C55.740,36.038 55.564,36.111 55.350,36.111 C55.131,36.111 54.957,36.037 54.827,35.889 C54.696,35.741 54.632,35.520 54.632,35.227 C54.632,35.227 54.632,32.820 54.632,32.820 C54.632,32.820 51.502,32.820 51.502,32.820 C51.502,32.820 51.502,35.227 51.502,35.227 C51.502,35.523 51.434,35.745 51.297,35.891 C51.160,36.038 50.984,36.111 50.769,36.111 C50.551,36.111 50.377,36.037 50.247,35.889 C50.116,35.741 50.052,35.520 50.052,35.227 C50.052,35.227 50.052,29.587 50.052,29.587 C50.052,29.294 50.116,29.074 50.244,28.928 C50.373,28.781 50.548,28.708 50.769,28.708 C50.987,28.708 51.164,28.780 51.299,28.926 C51.435,29.070 51.502,29.291 51.502,29.587 Z" id="path-9" class="cls-3" fill-rule="evenodd"/>
  </g>
</svg>
