<svg xmlns="http://www.w3.org/2000/svg" xmlns:xlink="http://www.w3.org/1999/xlink" preserveAspectRatio="xMidYMid" width="50" height="66" viewBox="0 0 50 66">
  <defs>
    <style>

      .cls-3 {
        fill: #e56a77;
      }

      .cls-4 {
        fill: #53ecf4;
      }

      .cls-5 {
        fill: #000000;
      }

      .cls-7 {
        fill: #ffffff;
      }
    </style>
  </defs>
  <g id="group-25svg">
    <path d="M33.577,65.004 C33.577,65.004 13.077,65.004 13.077,65.004 C8.677,65.004 5.000,60.904 5.000,56.503 C5.000,56.503 5.000,12.500 5.000,12.500 C5.000,8.100 8.677,5.000 13.077,5.000 C13.077,5.000 42.077,5.000 42.077,5.000 C46.495,5.000 50.000,8.082 50.000,12.500 C50.000,12.500 50.000,44.433 50.000,44.433 C50.000,44.433 33.577,65.004 33.577,65.004 Z" id="path-1" class="cls-3" fill-rule="evenodd"/>
    <path d="M48.891,46.003 C48.891,46.003 37.577,46.003 37.577,46.003 C35.368,46.003 34.000,47.794 34.000,50.003 C34.000,50.003 34.000,64.504 34.000,64.504 C34.000,64.504 48.891,46.003 48.891,46.003 Z" id="path-2" class="cls-4" fill-rule="evenodd"/>
    <path d="M30.077,63.004 C30.077,63.004 9.077,63.004 9.077,63.004 C3.987,63.004 -0.000,58.831 -0.000,53.503 C-0.000,53.503 -0.000,9.500 -0.000,9.500 C-0.000,4.173 3.987,-0.000 9.077,-0.000 C9.077,-0.000 38.077,-0.000 38.077,-0.000 C43.456,-0.000 48.000,4.350 48.000,9.500 C48.000,9.500 48.000,41.433 48.000,41.433 C48.000,41.780 47.880,42.115 47.661,42.383 C47.661,42.383 31.238,62.454 31.238,62.454 C30.953,62.802 30.527,63.004 30.077,63.004 ZM9.077,3.000 C5.613,3.000 3.000,5.794 3.000,9.500 C3.000,9.500 3.000,53.503 3.000,53.503 C3.000,57.210 5.613,60.004 9.077,60.004 C9.077,60.004 29.366,60.004 29.366,60.004 C29.366,60.004 45.000,40.898 45.000,40.898 C45.000,40.898 45.000,9.500 45.000,9.500 C45.000,6.037 41.765,3.000 38.077,3.000 C38.077,3.000 9.077,3.000 9.077,3.000 Z" id="path-3" class="cls-5" fill-rule="evenodd"/>
    <path d="M30.499,62.789 C30.336,62.789 30.171,62.763 30.011,62.707 C29.406,62.498 29.000,61.929 29.000,61.289 C29.000,61.289 29.000,46.983 29.000,46.983 C29.000,44.154 31.238,41.002 34.449,41.002 C34.449,41.002 45.225,41.002 45.225,41.002 C45.798,41.002 46.322,41.330 46.573,41.846 C46.825,42.362 46.759,42.976 46.405,43.428 C46.405,43.428 31.681,62.215 31.681,62.215 C31.391,62.584 30.952,62.789 30.499,62.789 ZM34.449,44.003 C33.092,44.003 32.000,45.634 32.000,46.983 C32.000,46.983 32.000,56.944 32.000,56.944 C32.000,56.944 42.143,44.003 42.143,44.003 C42.143,44.003 34.449,44.003 34.449,44.003 Z" id="path-4" class="cls-5" fill-rule="evenodd"/>
    <path d="M42.601,30.693 C42.601,34.293 39.683,37.212 36.082,37.212 C32.482,37.212 29.564,34.293 29.564,30.693 C29.564,27.092 32.482,24.174 36.082,24.174 C39.683,24.174 42.601,27.092 42.601,30.693 Z" id="path-5" class="cls-7" fill-rule="evenodd"/>
    <path d="M34.120,38.057 C29.698,38.057 26.101,34.460 26.101,30.038 C26.101,25.616 29.698,22.019 34.120,22.019 C38.541,22.019 42.138,25.616 42.138,30.038 C42.138,34.460 38.541,38.057 34.120,38.057 ZM34.120,25.019 C31.353,25.019 29.101,27.270 29.101,30.038 C29.101,32.806 31.353,35.057 34.120,35.057 C36.887,35.057 39.138,32.806 39.138,30.038 C39.138,27.270 36.887,25.019 34.120,25.019 Z" id="path-6" class="cls-5" fill-rule="evenodd"/>
    <path d="M33.610,26.998 C33.793,27.749 33.943,28.499 34.083,29.250 C34.241,30.000 34.276,30.750 34.477,31.500 C34.477,31.500 33.510,30.534 33.510,30.534 C33.987,30.409 34.465,30.453 34.942,30.600 C35.420,30.751 35.897,30.967 36.374,31.400 C36.430,31.451 36.434,31.536 36.384,31.592 C36.381,31.594 36.378,31.597 36.374,31.600 C35.897,32.034 35.420,32.250 34.942,32.400 C34.465,32.548 33.987,32.592 33.510,32.468 C33.510,32.468 33.034,32.343 33.034,32.343 C32.666,32.247 32.446,31.872 32.542,31.504 C32.542,31.504 32.543,31.500 32.543,31.500 C32.743,30.750 32.779,30.000 32.936,29.250 C33.076,28.499 33.226,27.749 33.410,26.998 C33.423,26.943 33.479,26.910 33.534,26.922 C33.573,26.932 33.601,26.962 33.610,26.998 Z" id="path-7" class="cls-5" fill-rule="evenodd"/>
  </g>
</svg>
