<svg xmlns="http://www.w3.org/2000/svg" xmlns:xlink="http://www.w3.org/1999/xlink" preserveAspectRatio="xMidYMid" width="51" height="66" viewBox="0 0 51 66">
  <defs>
    <style>

      .cls-3 {
        fill: #edc951;
      }

      .cls-4 {
        fill: #8b71b5;
      }

      .cls-5 {
        fill: #000000;
      }
    </style>
  </defs>
  <g id="group-71svg">
    <path d="M22.986,5.005 C22.986,5.005 47.486,5.005 47.486,5.005 C49.687,5.005 51.000,6.305 51.000,8.505 C51.000,8.505 51.000,60.509 51.000,60.509 C51.000,62.709 49.687,65.009 47.486,65.009 C47.486,65.009 10.486,65.009 10.486,65.009 C8.277,65.009 6.000,62.718 6.000,60.509 C6.000,60.509 6.000,24.575 6.000,24.575 C6.000,24.575 22.986,5.005 22.986,5.005 Z" id="path-1" class="cls-3" fill-rule="evenodd"/>
    <path d="M7.673,23.006 C7.673,23.006 18.986,23.006 18.986,23.006 C21.196,23.006 23.000,21.215 23.000,19.006 C23.000,19.006 23.000,4.505 23.000,4.505 C23.000,4.505 7.673,23.006 7.673,23.006 Z" id="path-2" class="cls-4" fill-rule="evenodd"/>
    <path d="M42.487,63.009 C42.487,63.009 5.487,63.009 5.487,63.009 C2.462,63.009 -0.000,60.541 -0.000,57.508 C-0.000,57.508 -0.000,21.575 -0.000,21.575 C-0.000,21.235 0.115,20.906 0.327,20.641 C0.327,20.641 16.314,0.570 16.314,0.570 C16.599,0.212 17.030,0.004 17.487,0.004 C17.487,0.004 42.487,0.004 42.487,0.004 C45.527,0.004 48.000,2.472 48.000,5.505 C48.000,5.505 48.000,57.508 48.000,57.508 C48.000,60.541 45.527,63.009 42.487,63.009 ZM3.000,22.100 C3.000,22.100 3.000,57.508 3.000,57.508 C3.000,58.887 4.116,60.009 5.487,60.009 C5.487,60.009 42.487,60.009 42.487,60.009 C43.873,60.009 45.000,58.887 45.000,57.508 C45.000,57.508 45.000,5.505 45.000,5.505 C45.000,4.126 43.873,3.005 42.487,3.005 C42.487,3.005 18.210,3.005 18.210,3.005 C18.210,3.005 3.000,22.100 3.000,22.100 Z" id="path-3" class="cls-5" fill-rule="evenodd"/>
    <path d="M13.115,22.006 C13.115,22.006 2.340,22.006 2.340,22.006 C1.762,22.006 1.235,21.674 0.986,21.152 C0.737,20.632 0.810,20.014 1.173,19.563 C1.173,19.563 16.333,0.777 16.333,0.777 C16.732,0.283 17.399,0.095 18.000,0.305 C18.599,0.517 19.000,1.084 19.000,1.719 C19.000,1.719 19.000,16.025 19.000,16.025 C19.000,19.100 16.140,22.006 13.115,22.006 ZM5.477,19.006 C5.477,19.006 13.115,19.006 13.115,19.006 C14.463,19.006 16.000,17.418 16.000,16.025 C16.000,16.025 16.000,5.967 16.000,5.967 C16.000,5.967 5.477,19.006 5.477,19.006 Z" id="path-4" class="cls-5" fill-rule="evenodd"/>
    <path d="M31.130,50.802 C31.130,51.617 30.920,52.349 30.500,52.998 C30.080,53.649 29.466,54.157 28.657,54.524 C27.849,54.892 26.890,55.076 25.780,55.076 C24.450,55.076 23.354,54.825 22.490,54.323 C21.877,53.961 21.379,53.478 20.996,52.874 C20.613,52.271 20.422,51.684 20.422,51.114 C20.422,50.783 20.537,50.500 20.767,50.264 C20.996,50.028 21.289,49.910 21.644,49.910 C21.932,49.910 22.176,50.002 22.375,50.186 C22.574,50.369 22.744,50.643 22.885,51.004 C23.057,51.433 23.242,51.791 23.441,52.079 C23.640,52.367 23.921,52.605 24.282,52.791 C24.643,52.979 25.118,53.073 25.707,53.073 C26.516,53.073 27.173,52.883 27.678,52.507 C28.184,52.130 28.437,51.659 28.437,51.096 C28.437,50.649 28.300,50.285 28.027,50.007 C27.755,49.728 27.402,49.515 26.971,49.367 C26.538,49.221 25.961,49.064 25.238,48.898 C24.269,48.672 23.459,48.407 22.807,48.104 C22.154,47.801 21.637,47.387 21.254,46.863 C20.870,46.340 20.679,45.688 20.679,44.910 C20.679,44.169 20.881,43.509 21.286,42.933 C21.690,42.358 22.275,41.915 23.041,41.605 C23.807,41.296 24.708,41.141 25.743,41.141 C26.570,41.141 27.286,41.244 27.890,41.449 C28.493,41.655 28.994,41.927 29.393,42.267 C29.791,42.607 30.082,42.964 30.266,43.338 C30.449,43.712 30.541,44.077 30.541,44.431 C30.541,44.757 30.427,45.050 30.196,45.309 C29.967,45.570 29.681,45.700 29.337,45.700 C29.024,45.700 28.787,45.622 28.625,45.466 C28.463,45.309 28.286,45.054 28.097,44.699 C27.851,44.190 27.557,43.793 27.214,43.507 C26.871,43.223 26.319,43.081 25.560,43.081 C24.854,43.081 24.287,43.236 23.854,43.545 C23.423,43.854 23.207,44.226 23.207,44.662 C23.207,44.931 23.280,45.164 23.428,45.360 C23.574,45.556 23.776,45.724 24.034,45.866 C24.291,46.007 24.552,46.117 24.815,46.197 C25.078,46.276 25.514,46.392 26.120,46.546 C26.880,46.724 27.568,46.920 28.184,47.135 C28.800,47.348 29.323,47.609 29.756,47.916 C30.187,48.222 30.524,48.609 30.767,49.078 C31.009,49.547 31.130,50.121 31.130,50.802 Z" id="path-5" class="cls-4" fill-rule="evenodd"/>
    <path d="M42.498,46.711 C42.498,46.711 42.498,54.000 42.498,54.000 C42.498,54.834 42.409,55.551 42.232,56.151 C42.054,56.752 41.769,57.249 41.377,57.640 C40.985,58.033 40.472,58.324 39.838,58.513 C39.203,58.704 38.414,58.799 37.471,58.799 C36.607,58.799 35.835,58.677 35.154,58.435 C34.475,58.193 33.951,57.880 33.583,57.498 C33.216,57.115 33.031,56.721 33.031,56.317 C33.031,56.010 33.136,55.760 33.344,55.568 C33.553,55.375 33.804,55.278 34.098,55.278 C34.466,55.278 34.787,55.440 35.062,55.765 C35.197,55.930 35.337,56.098 35.481,56.266 C35.625,56.434 35.784,56.579 35.959,56.698 C36.134,56.818 36.344,56.907 36.589,56.965 C36.834,57.023 37.115,57.052 37.435,57.052 C38.084,57.052 38.588,56.961 38.946,56.781 C39.305,56.600 39.556,56.347 39.700,56.023 C39.844,55.698 39.928,55.350 39.952,54.979 C39.977,54.609 39.995,54.013 40.008,53.192 C39.622,53.731 39.176,54.141 38.670,54.423 C38.165,54.706 37.562,54.846 36.864,54.846 C36.024,54.846 35.291,54.631 34.663,54.203 C34.035,53.774 33.553,53.173 33.216,52.401 C32.878,51.629 32.710,50.737 32.710,49.727 C32.710,48.973 32.812,48.293 33.018,47.685 C33.223,47.079 33.516,46.567 33.895,46.150 C34.275,45.734 34.714,45.420 35.210,45.209 C35.706,44.997 36.252,44.891 36.846,44.891 C37.557,44.891 38.173,45.028 38.693,45.301 C39.214,45.573 39.698,46.001 40.146,46.583 C40.146,46.583 40.146,46.242 40.146,46.242 C40.146,45.807 40.253,45.470 40.467,45.231 C40.682,44.992 40.957,44.873 41.295,44.873 C41.778,44.873 42.101,45.031 42.260,45.346 C42.419,45.662 42.498,46.117 42.498,46.711 ZM35.228,49.892 C35.228,50.909 35.450,51.678 35.894,52.199 C36.339,52.720 36.913,52.981 37.618,52.981 C38.034,52.981 38.429,52.869 38.799,52.645 C39.170,52.421 39.472,52.084 39.704,51.633 C39.937,51.184 40.054,50.637 40.054,49.992 C40.054,48.970 39.828,48.173 39.378,47.603 C38.928,47.033 38.335,46.748 37.600,46.748 C36.883,46.748 36.309,47.021 35.876,47.566 C35.444,48.111 35.228,48.887 35.228,49.892 Z" id="path-6" class="cls-4" fill-rule="evenodd"/>
  </g>
</svg>
