<svg xmlns="http://www.w3.org/2000/svg" xmlns:xlink="http://www.w3.org/1999/xlink" preserveAspectRatio="xMidYMid" width="67" height="51" viewBox="0 0 67 51">
  <defs>
    <style>

      .cls-3 {
        fill: #81bda4;
      }

      .cls-4 {
        fill: #000000;
      }

      .cls-9 {
        fill: #53ecf4;
      }
    </style>
  </defs>
  <g id="group-53svg">
    <path d="M67.000,41.999 C67.000,46.417 63.418,49.999 59.000,49.999 C59.000,49.999 15.000,49.999 15.000,49.999 C10.581,49.999 7.000,46.417 7.000,41.999 C7.000,41.999 7.000,13.997 7.000,13.997 C7.000,9.579 10.581,5.996 15.000,5.996 C15.000,5.996 59.000,5.996 59.000,5.996 C63.418,5.996 67.000,9.579 67.000,13.997 C67.000,13.997 67.000,41.999 67.000,41.999 Z" id="path-1" class="cls-3" fill-rule="evenodd"/>
    <path d="M53.500,46.999 C53.500,46.999 9.500,46.999 9.500,46.999 C4.262,46.999 -0.000,42.737 -0.000,37.499 C-0.000,37.499 -0.000,9.497 -0.000,9.497 C-0.000,4.258 4.262,-0.004 9.500,-0.004 C9.500,-0.004 53.500,-0.004 53.500,-0.004 C58.738,-0.004 63.000,4.258 63.000,9.497 C63.000,9.497 63.000,37.499 63.000,37.499 C63.000,42.737 58.738,46.999 53.500,46.999 ZM9.500,2.996 C5.916,2.996 3.000,5.912 3.000,9.497 C3.000,9.497 3.000,37.499 3.000,37.499 C3.000,41.083 5.916,43.999 9.500,43.999 C9.500,43.999 53.500,43.999 53.500,43.999 C57.084,43.999 60.000,41.083 60.000,37.499 C60.000,37.499 60.000,9.497 60.000,9.497 C60.000,5.912 57.084,2.996 53.500,2.996 C53.500,2.996 9.500,2.996 9.500,2.996 Z" id="path-2" class="cls-4" fill-rule="evenodd"/>
    <path d="M61.000,16.997 C61.000,16.997 3.000,16.997 3.000,16.997 C2.171,16.997 1.500,16.325 1.500,15.497 C1.500,14.669 2.171,13.997 3.000,13.997 C3.000,13.997 61.000,13.997 61.000,13.997 C61.829,13.997 62.500,14.669 62.500,15.497 C62.500,16.325 61.829,16.997 61.000,16.997 Z" id="path-3" class="cls-4" fill-rule="evenodd"/>
    <path d="M15.674,9.786 C15.674,11.348 14.406,12.616 12.843,12.616 C11.280,12.616 10.013,11.348 10.013,9.786 C10.013,8.222 11.280,6.955 12.843,6.955 C14.406,6.955 15.674,8.222 15.674,9.786 Z" id="path-4" class="cls-4" fill-rule="evenodd"/>
    <path d="M25.862,9.786 C25.862,11.348 24.595,12.616 23.032,12.616 C21.469,12.616 20.202,11.348 20.202,9.786 C20.202,8.222 21.469,6.955 23.032,6.955 C24.595,6.955 25.862,8.222 25.862,9.786 Z" id="path-5" class="cls-4" fill-rule="evenodd"/>
    <path d="M34.919,9.786 C34.919,11.348 33.652,12.616 32.088,12.616 C30.525,12.616 29.258,11.348 29.258,9.786 C29.258,8.222 30.525,6.955 32.088,6.955 C33.652,6.955 34.919,8.222 34.919,9.786 Z" id="path-6" class="cls-4" fill-rule="evenodd"/>
    <path d="M45.048,37.441 C44.568,37.441 44.097,37.211 43.807,36.785 C43.341,36.099 43.518,35.166 44.203,34.700 C44.203,34.700 50.382,30.497 50.382,30.497 C50.382,30.497 44.364,27.422 44.364,27.422 C43.626,27.045 43.334,26.140 43.711,25.403 C44.089,24.665 44.993,24.376 45.729,24.750 C45.729,24.750 52.301,28.108 52.301,28.108 C53.121,28.528 53.654,29.325 53.727,30.243 C53.801,31.159 53.401,32.031 52.660,32.575 C52.660,32.575 45.891,37.181 45.891,37.181 C45.632,37.357 45.339,37.441 45.048,37.441 Z" id="path-7" class="cls-9" fill-rule="evenodd"/>
    <path d="M19.129,37.441 C18.839,37.441 18.545,37.357 18.287,37.181 C18.287,37.181 11.561,32.606 11.561,32.606 C10.776,32.031 10.376,31.159 10.450,30.243 C10.523,29.325 11.056,28.528 11.875,28.108 C11.875,28.108 18.448,24.750 18.448,24.750 C19.186,24.376 20.089,24.665 20.467,25.403 C20.844,26.140 20.551,27.045 19.813,27.422 C19.813,27.422 13.794,30.497 13.794,30.497 C13.794,30.497 19.975,34.700 19.975,34.700 C20.660,35.166 20.837,36.099 20.371,36.785 C20.081,37.211 19.609,37.441 19.129,37.441 Z" id="path-8" class="cls-9" fill-rule="evenodd"/>
  </g>
</svg>
