<svg xmlns="http://www.w3.org/2000/svg" xmlns:xlink="http://www.w3.org/1999/xlink" preserveAspectRatio="xMidYMid" width="61" height="66" viewBox="0 0 61 66">
  <defs>
    <style>

      .cls-3 {
        fill: #edc951;
      }

      .cls-4 {
        fill: #8b71b5;
      }

      .cls-5 {
        fill: #000000;
      }
    </style>
  </defs>
  <g id="group-79svg">
    <path d="M22.528,5.014 C22.528,5.014 47.028,5.014 47.028,5.014 C49.228,5.014 51.000,6.314 51.000,8.514 C51.000,8.514 51.000,60.518 51.000,60.518 C51.000,62.718 49.228,65.018 47.028,65.018 C47.028,65.018 10.028,65.018 10.028,65.018 C7.819,65.018 6.000,62.727 6.000,60.518 C6.000,60.518 6.000,24.584 6.000,24.584 C6.000,24.584 22.528,5.014 22.528,5.014 Z" id="path-1" class="cls-3" fill-rule="evenodd"/>
    <path d="M7.215,23.015 C7.215,23.015 18.528,23.015 18.528,23.015 C20.738,23.015 23.000,21.224 23.000,19.015 C23.000,19.015 23.000,4.514 23.000,4.514 C23.000,4.514 7.215,23.015 7.215,23.015 Z" id="path-2" class="cls-4" fill-rule="evenodd"/>
    <path d="M42.028,63.018 C42.028,63.018 5.028,63.018 5.028,63.018 C2.114,63.018 -0.000,60.704 -0.000,57.517 C-0.000,57.517 -0.000,21.584 -0.000,21.584 C-0.000,21.252 0.110,20.929 0.313,20.666 C0.313,20.666 15.842,0.595 15.842,0.595 C16.126,0.228 16.564,0.013 17.028,0.013 C17.028,0.013 42.028,0.013 42.028,0.013 C45.210,0.013 48.000,2.584 48.000,5.514 C48.000,5.514 48.000,57.517 48.000,57.517 C48.000,60.447 45.210,63.018 42.028,63.018 ZM3.000,22.097 C3.000,22.097 3.000,57.517 3.000,57.517 C3.000,58.671 3.531,60.018 5.028,60.018 C5.028,60.018 42.028,60.018 42.028,60.018 C43.528,60.018 45.000,58.779 45.000,57.517 C45.000,57.517 45.000,5.514 45.000,5.514 C45.000,4.252 43.528,3.013 42.028,3.013 C42.028,3.013 17.765,3.013 17.765,3.013 C17.765,3.013 3.000,22.097 3.000,22.097 Z" id="path-3" class="cls-5" fill-rule="evenodd"/>
    <path d="M12.657,22.015 C12.657,22.015 1.881,22.015 1.881,22.015 C1.299,22.015 0.769,21.679 0.522,21.151 C0.275,20.625 0.355,20.003 0.727,19.556 C0.727,19.556 16.347,0.769 16.347,0.769 C16.752,0.283 17.417,0.107 18.010,0.317 C18.604,0.532 19.000,1.096 19.000,1.728 C19.000,1.728 19.000,16.034 19.000,16.034 C19.000,19.255 15.513,22.015 12.657,22.015 ZM5.079,19.015 C5.079,19.015 12.657,19.015 12.657,19.015 C14.095,19.015 16.000,17.315 16.000,16.034 C16.000,16.034 16.000,5.879 16.000,5.879 C16.000,5.879 5.079,19.015 5.079,19.015 Z" id="path-4" class="cls-5" fill-rule="evenodd"/>
    <path d="M59.000,39.016 C59.000,41.225 57.209,43.016 55.000,43.016 C55.000,43.016 36.000,43.016 36.000,43.016 C33.791,43.016 32.000,41.225 32.000,39.016 C32.000,39.016 32.000,30.015 32.000,30.015 C32.000,27.806 33.791,26.015 36.000,26.015 C36.000,26.015 55.000,26.015 55.000,26.015 C57.209,26.015 59.000,27.806 59.000,30.015 C59.000,30.015 59.000,39.016 59.000,39.016 Z" id="path-5" class="cls-4" fill-rule="evenodd"/>
    <path d="M55.500,44.016 C55.500,44.016 36.500,44.016 36.500,44.016 C33.468,44.016 31.000,41.548 31.000,38.516 C31.000,38.516 31.000,29.515 31.000,29.515 C31.000,26.483 33.468,24.015 36.500,24.015 C36.500,24.015 55.500,24.015 55.500,24.015 C58.532,24.015 61.000,26.483 61.000,29.515 C61.000,29.515 61.000,38.516 61.000,38.516 C61.000,41.548 58.532,44.016 55.500,44.016 ZM36.500,27.015 C35.121,27.015 34.000,28.136 34.000,29.515 C34.000,29.515 34.000,38.516 34.000,38.516 C34.000,39.895 35.121,41.016 36.500,41.016 C36.500,41.016 55.500,41.016 55.500,41.016 C56.879,41.016 58.000,39.895 58.000,38.516 C58.000,38.516 58.000,29.515 58.000,29.515 C58.000,28.136 56.879,27.015 55.500,27.015 C55.500,27.015 36.500,27.015 36.500,27.015 Z" id="path-6" class="cls-5" fill-rule="evenodd"/>
    <path d="M40.370,35.863 C40.370,35.863 39.042,35.863 39.042,35.863 C39.042,35.863 39.042,37.889 39.042,37.889 C39.042,38.180 38.974,38.399 38.837,38.549 C38.700,38.698 38.527,38.774 38.319,38.774 C38.101,38.774 37.925,38.700 37.792,38.551 C37.658,38.403 37.592,38.186 37.592,37.899 C37.592,37.899 37.592,32.381 37.592,32.381 C37.592,32.062 37.665,31.834 37.811,31.697 C37.958,31.560 38.190,31.492 38.510,31.492 C38.510,31.492 40.370,31.492 40.370,31.492 C40.920,31.492 41.343,31.535 41.640,31.619 C41.933,31.701 42.186,31.836 42.398,32.025 C42.612,32.213 42.773,32.445 42.885,32.719 C42.995,32.992 43.051,33.299 43.051,33.641 C43.051,34.371 42.826,34.922 42.377,35.299 C41.928,35.674 41.259,35.863 40.370,35.863 ZM40.018,32.582 C40.018,32.582 39.042,32.582 39.042,32.582 C39.042,32.582 39.042,34.770 39.042,34.770 C39.042,34.770 40.018,34.770 40.018,34.770 C40.360,34.770 40.645,34.733 40.875,34.662 C41.104,34.590 41.279,34.473 41.400,34.311 C41.520,34.147 41.581,33.934 41.581,33.670 C41.581,33.355 41.488,33.098 41.303,32.898 C41.094,32.687 40.666,32.582 40.018,32.582 Z" id="path-7" class="cls-3" fill-rule="evenodd"/>
    <path d="M47.040,35.863 C47.040,35.863 45.712,35.863 45.712,35.863 C45.712,35.863 45.712,37.889 45.712,37.889 C45.712,38.180 45.644,38.399 45.507,38.549 C45.370,38.698 45.197,38.774 44.989,38.774 C44.770,38.774 44.595,38.700 44.462,38.551 C44.328,38.403 44.262,38.186 44.262,37.899 C44.262,37.899 44.262,32.381 44.262,32.381 C44.262,32.062 44.335,31.834 44.481,31.697 C44.628,31.560 44.860,31.492 45.180,31.492 C45.180,31.492 47.040,31.492 47.040,31.492 C47.590,31.492 48.013,31.535 48.310,31.619 C48.602,31.701 48.855,31.836 49.068,32.025 C49.282,32.213 49.443,32.445 49.555,32.719 C49.665,32.992 49.721,33.299 49.721,33.641 C49.721,34.371 49.496,34.922 49.047,35.299 C48.598,35.674 47.929,35.863 47.040,35.863 ZM46.688,32.582 C46.688,32.582 45.712,32.582 45.712,32.582 C45.712,32.582 45.712,34.770 45.712,34.770 C45.712,34.770 46.688,34.770 46.688,34.770 C47.030,34.770 47.315,34.733 47.545,34.662 C47.774,34.590 47.949,34.473 48.070,34.311 C48.190,34.147 48.251,33.934 48.251,33.670 C48.251,33.355 48.158,33.098 47.973,32.898 C47.764,32.687 47.336,32.582 46.688,32.582 Z" id="path-8" class="cls-3" fill-rule="evenodd"/>
    <path d="M55.580,32.689 C55.580,32.689 53.998,32.689 53.998,32.689 C53.998,32.689 53.998,37.889 53.998,37.889 C53.998,38.190 53.931,38.410 53.798,38.555 C53.664,38.701 53.491,38.774 53.280,38.774 C53.065,38.774 52.891,38.700 52.755,38.553 C52.620,38.407 52.553,38.186 52.553,37.889 C52.553,37.889 52.553,32.689 52.553,32.689 C52.553,32.689 50.971,32.689 50.971,32.689 C50.723,32.689 50.539,32.635 50.419,32.525 C50.298,32.416 50.238,32.271 50.238,32.094 C50.238,31.908 50.301,31.762 50.426,31.654 C50.552,31.547 50.732,31.492 50.971,31.492 C50.971,31.492 55.580,31.492 55.580,31.492 C55.830,31.492 56.017,31.549 56.139,31.658 C56.261,31.769 56.322,31.914 56.322,32.094 C56.322,32.271 56.260,32.416 56.137,32.525 C56.013,32.635 55.827,32.689 55.580,32.689 Z" id="path-9" class="cls-3" fill-rule="evenodd"/>
  </g>
</svg>
