<svg xmlns="http://www.w3.org/2000/svg" xmlns:xlink="http://www.w3.org/1999/xlink" preserveAspectRatio="xMidYMid" width="52" height="66" viewBox="0 0 52 66">
  <defs>
    <style>

      .cls-3 {
        fill: #53ecf4;
      }

      .cls-4 {
        fill: #99746a;
      }

      .cls-5 {
        fill: #000000;
      }
    </style>
  </defs>
  <g id="group-45svg">
    <path d="M23.077,4.987 C23.077,4.987 47.577,4.987 47.577,4.987 C49.777,4.987 52.000,6.462 52.000,8.662 C52.000,8.662 52.000,60.666 52.000,60.666 C52.000,62.866 49.777,64.991 47.577,64.991 C47.577,64.991 10.577,64.991 10.577,64.991 C8.368,64.991 7.000,62.875 7.000,60.666 C7.000,60.666 7.000,24.732 7.000,24.732 C7.000,24.732 23.077,4.987 23.077,4.987 Z" id="path-1" class="cls-3" fill-rule="evenodd"/>
    <path d="M7.763,22.988 C7.763,22.988 19.077,22.988 19.077,22.988 C21.286,22.988 23.000,21.372 23.000,19.163 C23.000,19.163 23.000,4.662 23.000,4.662 C23.000,4.662 7.763,22.988 7.763,22.988 Z" id="path-2" class="cls-4" fill-rule="evenodd"/>
    <path d="M42.577,62.991 C42.577,62.991 5.577,62.991 5.577,62.991 C2.450,62.991 -0.000,60.652 -0.000,57.665 C-0.000,57.665 -0.000,21.732 -0.000,21.732 C-0.000,21.393 0.115,21.064 0.325,20.800 C0.325,20.800 16.402,0.554 16.402,0.554 C16.687,0.196 17.120,-0.013 17.577,-0.013 C17.577,-0.013 42.577,-0.013 42.577,-0.013 C45.517,-0.013 48.000,2.585 48.000,5.662 C48.000,5.662 48.000,57.665 48.000,57.665 C48.000,60.652 45.618,62.991 42.577,62.991 ZM3.000,22.256 C3.000,22.256 3.000,57.665 3.000,57.665 C3.000,58.969 4.132,59.991 5.577,59.991 C5.577,59.991 42.577,59.991 42.577,59.991 C43.981,59.991 45.000,59.013 45.000,57.665 C45.000,57.665 45.000,5.662 45.000,5.662 C45.000,4.212 43.891,2.987 42.577,2.987 C42.577,2.987 18.301,2.987 18.301,2.987 C18.301,2.987 3.000,22.256 3.000,22.256 Z" id="path-3" class="cls-5" fill-rule="evenodd"/>
    <path d="M13.206,21.988 C13.206,21.988 2.430,21.988 2.430,21.988 C1.852,21.988 1.325,21.656 1.076,21.134 C0.827,20.612 0.900,19.993 1.264,19.544 C1.264,19.544 16.334,0.933 16.334,0.933 C16.734,0.441 17.402,0.253 18.001,0.463 C18.600,0.675 19.000,1.242 19.000,1.877 C19.000,1.877 19.000,16.182 19.000,16.182 C19.000,19.220 16.238,21.988 13.206,21.988 ZM5.575,18.988 C5.575,18.988 13.206,18.988 13.206,18.988 C14.563,18.988 16.000,17.545 16.000,16.182 C16.000,16.182 16.000,6.113 16.000,6.113 C16.000,6.113 5.575,18.988 5.575,18.988 Z" id="path-4" class="cls-5" fill-rule="evenodd"/>
    <path d="M22.000,43.990 C22.000,43.990 6.000,43.990 6.000,43.990 C5.171,43.990 4.500,43.318 4.500,42.490 C4.500,41.661 5.171,40.989 6.000,40.989 C6.000,40.989 22.000,40.989 22.000,40.989 C22.829,40.989 23.500,41.661 23.500,42.490 C23.500,43.318 22.829,43.990 22.000,43.990 Z" id="path-5" class="cls-5" fill-rule="evenodd"/>
    <path d="M22.000,36.989 C22.000,36.989 6.000,36.989 6.000,36.989 C5.171,36.989 4.500,36.317 4.500,35.489 C4.500,34.661 5.171,33.989 6.000,33.989 C6.000,33.989 22.000,33.989 22.000,33.989 C22.829,33.989 23.500,34.661 23.500,35.489 C23.500,36.317 22.829,36.989 22.000,36.989 Z" id="path-6" class="cls-5" fill-rule="evenodd"/>
    <path d="M22.000,29.989 C22.000,29.989 6.000,29.989 6.000,29.989 C5.171,29.989 4.500,29.317 4.500,28.489 C4.500,27.660 5.171,26.989 6.000,26.989 C6.000,26.989 22.000,26.989 22.000,26.989 C22.829,26.989 23.500,27.660 23.500,28.489 C23.500,29.317 22.829,29.989 22.000,29.989 Z" id="path-7" class="cls-5" fill-rule="evenodd"/>
  </g>
</svg>
