<svg xmlns="http://www.w3.org/2000/svg" xmlns:xlink="http://www.w3.org/1999/xlink" preserveAspectRatio="xMidYMid" width="51" height="66" viewBox="0 0 51 66">
  <defs>
    <style>

      .cls-3 {
        fill: #e56a77;
      }

      .cls-4 {
        fill: #53ecf4;
      }

      .cls-5 {
        fill: #000000;
      }
    </style>
  </defs>
  <g id="group-6svg">
    <path d="M34.155,65.018 C34.155,65.018 13.655,65.018 13.655,65.018 C9.255,65.018 6.000,60.917 6.000,56.517 C6.000,56.517 6.000,12.514 6.000,12.514 C6.000,8.114 9.255,5.014 13.655,5.014 C13.655,5.014 42.655,5.014 42.655,5.014 C47.074,5.014 51.000,8.095 51.000,12.514 C51.000,12.514 51.000,44.447 51.000,44.447 C51.000,44.447 34.155,65.018 34.155,65.018 Z" id="path-1" class="cls-3" fill-rule="evenodd"/>
    <path d="M49.470,46.016 C49.470,46.016 38.155,46.016 38.155,46.016 C35.946,46.016 34.000,47.808 34.000,50.017 C34.000,50.017 34.000,64.518 34.000,64.518 C34.000,64.518 49.470,46.016 49.470,46.016 Z" id="path-2" class="cls-4" fill-rule="evenodd"/>
    <path d="M30.655,63.018 C30.655,63.018 9.655,63.018 9.655,63.018 C4.421,63.018 -0.000,58.667 -0.000,53.517 C-0.000,53.517 -0.000,9.514 -0.000,9.514 C-0.000,4.364 4.421,0.013 9.655,0.013 C9.655,0.013 38.655,0.013 38.655,0.013 C43.895,0.013 48.000,4.186 48.000,9.514 C48.000,9.514 48.000,41.447 48.000,41.447 C48.000,41.784 47.886,42.112 47.677,42.377 C47.677,42.377 31.832,62.447 31.832,62.447 C31.548,62.808 31.114,63.018 30.655,63.018 ZM9.655,3.013 C6.048,3.013 3.000,5.990 3.000,9.514 C3.000,9.514 3.000,53.517 3.000,53.517 C3.000,57.041 6.048,60.017 9.655,60.017 C9.655,60.017 29.928,60.017 29.928,60.017 C29.928,60.017 45.000,40.926 45.000,40.926 C45.000,40.926 45.000,9.514 45.000,9.514 C45.000,5.869 42.213,3.013 38.655,3.013 C38.655,3.013 9.655,3.013 9.655,3.013 Z" id="path-3" class="cls-5" fill-rule="evenodd"/>
    <path d="M30.499,62.803 C30.332,62.803 30.162,62.774 29.997,62.716 C29.399,62.503 29.000,61.938 29.000,61.303 C29.000,61.303 29.000,46.997 29.000,46.997 C29.000,43.978 31.985,41.016 35.027,41.016 C35.027,41.016 45.803,41.016 45.803,41.016 C46.382,41.016 46.909,41.349 47.158,41.873 C47.406,42.395 47.331,43.014 46.966,43.464 C46.966,43.464 31.663,62.250 31.663,62.250 C31.373,62.606 30.942,62.803 30.499,62.803 ZM35.027,44.016 C33.641,44.016 32.000,45.632 32.000,46.997 C32.000,46.997 32.000,57.086 32.000,57.086 C32.000,57.086 42.646,44.016 42.646,44.016 C42.646,44.016 35.027,44.016 35.027,44.016 Z" id="path-4" class="cls-5" fill-rule="evenodd"/>
    <path d="M41.658,28.453 C41.217,28.453 40.781,28.259 40.485,27.889 C40.485,27.889 34.679,20.619 34.679,20.619 C34.679,20.619 28.874,27.889 28.874,27.889 C28.357,28.535 27.413,28.642 26.766,28.125 C26.118,27.608 26.013,26.664 26.530,26.016 C26.530,26.016 33.507,17.279 33.507,17.279 C34.077,16.566 35.282,16.566 35.851,17.279 C35.851,17.279 42.829,26.016 42.829,26.016 C43.346,26.664 43.240,27.608 42.593,28.125 C42.316,28.345 41.986,28.453 41.658,28.453 Z" id="path-5" class="cls-5" fill-rule="evenodd"/>
    <path d="M34.500,38.516 C33.671,38.516 33.000,37.844 33.000,37.016 C33.000,37.016 33.000,19.015 33.000,19.015 C33.000,18.186 33.671,17.514 34.500,17.514 C35.329,17.514 36.000,18.186 36.000,19.015 C36.000,19.015 36.000,37.016 36.000,37.016 C36.000,37.844 35.329,38.516 34.500,38.516 Z" id="path-6" class="cls-5" fill-rule="evenodd"/>
  </g>
</svg>
