<svg xmlns="http://www.w3.org/2000/svg" xmlns:xlink="http://www.w3.org/1999/xlink" preserveAspectRatio="xMidYMid" width="66" height="66" viewBox="0 0 66 66">
  <defs>
    <style>

      .cls-3 {
        fill: #edc951;
      }

      .cls-4 {
        fill: #8b71b5;
      }

      .cls-5 {
        fill: #000000;
      }
    </style>
  </defs>
  <g id="group-90svg">
    <path d="M23.486,4.991 C23.486,4.991 47.986,4.991 47.986,4.991 C50.187,4.991 52.000,6.291 52.000,8.492 C52.000,8.492 52.000,60.495 52.000,60.495 C52.000,62.696 50.187,64.996 47.986,64.996 C47.986,64.996 10.986,64.996 10.986,64.996 C8.777,64.996 7.000,62.704 7.000,60.495 C7.000,60.495 7.000,24.562 7.000,24.562 C7.000,24.562 23.486,4.991 23.486,4.991 Z" id="path-1" class="cls-3" fill-rule="evenodd"/>
    <path d="M8.173,22.993 C8.173,22.993 19.486,22.993 19.486,22.993 C21.696,22.993 23.000,21.202 23.000,18.992 C23.000,18.992 23.000,4.491 23.000,4.491 C23.000,4.491 8.173,22.993 8.173,22.993 Z" id="path-2" class="cls-4" fill-rule="evenodd"/>
    <path d="M42.987,62.996 C42.987,62.996 5.987,62.996 5.987,62.996 C2.798,62.996 -0.000,60.425 -0.000,57.495 C-0.000,57.495 -0.000,21.562 -0.000,21.562 C-0.000,21.214 0.120,20.878 0.341,20.610 C0.341,20.610 16.828,0.539 16.828,0.539 C17.113,0.192 17.538,-0.009 17.987,-0.009 C17.987,-0.009 42.987,-0.009 42.987,-0.009 C45.892,-0.009 48.000,2.305 48.000,5.492 C48.000,5.492 48.000,57.495 48.000,57.495 C48.000,60.682 45.892,62.996 42.987,62.996 ZM3.000,22.099 C3.000,22.099 3.000,57.495 3.000,57.495 C3.000,58.757 4.479,59.995 5.987,59.995 C5.987,59.995 42.987,59.995 42.987,59.995 C44.473,59.995 45.000,58.649 45.000,57.495 C45.000,57.495 45.000,5.492 45.000,5.492 C45.000,4.338 44.473,2.991 42.987,2.991 C42.987,2.991 18.696,2.991 18.696,2.991 C18.696,2.991 3.000,22.099 3.000,22.099 Z" id="path-3" class="cls-5" fill-rule="evenodd"/>
    <path d="M13.615,21.993 C13.615,21.993 2.840,21.993 2.840,21.993 C2.267,21.993 1.743,21.666 1.492,21.151 C1.240,20.635 1.305,20.022 1.657,19.570 C1.657,19.570 16.317,0.783 16.317,0.783 C16.713,0.278 17.385,0.080 17.988,0.288 C18.594,0.496 19.000,1.065 19.000,1.706 C19.000,1.706 19.000,16.012 19.000,16.012 C19.000,18.841 16.788,21.993 13.615,21.993 ZM5.913,18.992 C5.913,18.992 13.615,18.992 13.615,18.992 C14.958,18.992 16.000,17.390 16.000,16.012 C16.000,16.012 16.000,6.067 16.000,6.067 C16.000,6.067 5.913,18.992 5.913,18.992 Z" id="path-4" class="cls-5" fill-rule="evenodd"/>
    <path d="M64.000,36.994 C64.000,39.203 62.209,40.994 60.000,40.994 C60.000,40.994 41.000,40.994 41.000,40.994 C38.791,40.994 37.000,39.203 37.000,36.994 C37.000,36.994 37.000,27.993 37.000,27.993 C37.000,25.784 38.791,23.993 41.000,23.993 C41.000,23.993 60.000,23.993 60.000,23.993 C62.209,23.993 64.000,25.784 64.000,27.993 C64.000,27.993 64.000,36.994 64.000,36.994 Z" id="path-5" class="cls-4" fill-rule="evenodd"/>
    <path d="M60.500,41.994 C60.500,41.994 41.500,41.994 41.500,41.994 C38.468,41.994 36.000,39.526 36.000,36.494 C36.000,36.494 36.000,27.493 36.000,27.493 C36.000,24.461 38.468,21.993 41.500,21.993 C41.500,21.993 60.500,21.993 60.500,21.993 C63.532,21.993 66.000,24.461 66.000,27.493 C66.000,27.493 66.000,36.494 66.000,36.494 C66.000,39.526 63.532,41.994 60.500,41.994 ZM41.500,24.993 C40.121,24.993 39.000,26.114 39.000,27.493 C39.000,27.493 39.000,36.494 39.000,36.494 C39.000,37.873 40.121,38.994 41.500,38.994 C41.500,38.994 60.500,38.994 60.500,38.994 C61.879,38.994 63.000,37.873 63.000,36.494 C63.000,36.494 63.000,27.493 63.000,27.493 C63.000,26.114 61.879,24.993 60.500,24.993 C60.500,24.993 41.500,24.993 41.500,24.993 Z" id="path-6" class="cls-5" fill-rule="evenodd"/>
    <path d="M46.276,30.588 C46.276,30.588 43.420,30.588 43.420,30.588 C43.420,30.588 43.420,32.419 43.420,32.419 C43.420,32.419 45.808,32.419 45.808,32.419 C46.028,32.419 46.194,32.469 46.303,32.568 C46.412,32.667 46.467,32.800 46.467,32.966 C46.467,33.132 46.411,33.264 46.301,33.362 C46.189,33.459 46.025,33.508 45.808,33.508 C45.808,33.508 43.420,33.508 43.420,33.508 C43.420,33.508 43.420,35.867 43.420,35.867 C43.420,36.166 43.352,36.388 43.217,36.533 C43.082,36.678 42.908,36.751 42.697,36.751 C42.482,36.751 42.308,36.677 42.172,36.531 C42.037,36.384 41.970,36.163 41.970,35.867 C41.970,35.867 41.970,30.358 41.970,30.358 C41.970,30.150 42.000,29.980 42.062,29.849 C42.124,29.716 42.221,29.620 42.353,29.560 C42.484,29.500 42.653,29.470 42.858,29.470 C42.858,29.470 46.276,29.470 46.276,29.470 C46.507,29.470 46.679,29.521 46.791,29.624 C46.903,29.726 46.960,29.860 46.960,30.026 C46.960,30.195 46.903,30.331 46.791,30.435 C46.679,30.536 46.507,30.588 46.276,30.588 Z" id="path-7" class="cls-3" fill-rule="evenodd"/>
    <path d="M49.460,30.227 C49.460,30.227 49.460,35.437 49.460,35.437 C49.460,35.437 52.399,35.437 52.399,35.437 C52.634,35.437 52.813,35.494 52.938,35.608 C53.064,35.722 53.127,35.865 53.127,36.038 C53.127,36.213 53.064,36.356 52.941,36.464 C52.817,36.574 52.637,36.628 52.399,36.628 C52.399,36.628 48.898,36.628 48.898,36.628 C48.582,36.628 48.355,36.558 48.217,36.418 C48.079,36.279 48.010,36.052 48.010,35.740 C48.010,35.740 48.010,30.227 48.010,30.227 C48.010,29.934 48.075,29.714 48.207,29.567 C48.339,29.421 48.513,29.348 48.728,29.348 C48.945,29.348 49.122,29.420 49.257,29.566 C49.393,29.710 49.460,29.931 49.460,30.227 Z" id="path-8" class="cls-3" fill-rule="evenodd"/>
    <path d="M58.527,35.818 C58.527,35.818 58.185,34.919 58.185,34.919 C58.185,34.919 55.275,34.919 55.275,34.919 C55.275,34.919 54.934,35.837 54.934,35.837 C54.800,36.196 54.686,36.437 54.592,36.562 C54.497,36.688 54.343,36.751 54.128,36.751 C53.945,36.751 53.784,36.684 53.644,36.550 C53.504,36.416 53.435,36.265 53.435,36.096 C53.435,35.999 53.450,35.898 53.483,35.793 C53.516,35.689 53.569,35.544 53.644,35.359 C53.644,35.359 55.476,30.710 55.476,30.710 C55.527,30.576 55.590,30.416 55.663,30.230 C55.736,30.042 55.814,29.887 55.897,29.763 C55.980,29.639 56.090,29.539 56.225,29.462 C56.360,29.386 56.526,29.348 56.726,29.348 C56.927,29.348 57.096,29.386 57.230,29.462 C57.366,29.539 57.475,29.638 57.558,29.758 C57.641,29.878 57.711,30.008 57.768,30.146 C57.825,30.284 57.897,30.469 57.985,30.700 C57.985,30.700 59.855,35.320 59.855,35.320 C60.002,35.671 60.075,35.927 60.075,36.086 C60.075,36.252 60.006,36.405 59.867,36.543 C59.729,36.681 59.562,36.751 59.367,36.751 C59.253,36.751 59.155,36.730 59.074,36.689 C58.992,36.649 58.924,36.593 58.869,36.523 C58.813,36.454 58.754,36.346 58.690,36.201 C58.627,36.056 58.572,35.928 58.527,35.818 ZM55.656,33.830 C55.656,33.830 57.795,33.830 57.795,33.830 C57.795,33.830 56.716,30.876 56.716,30.876 C56.716,30.876 55.656,33.830 55.656,33.830 Z" id="path-9" class="cls-3" fill-rule="evenodd"/>
  </g>
</svg>
