<svg xmlns="http://www.w3.org/2000/svg" xmlns:xlink="http://www.w3.org/1999/xlink" preserveAspectRatio="xMidYMid" width="67" height="49" viewBox="0 0 67 49">
  <defs>
    <style>

      .cls-3 {
        fill: #81bda4;
      }

      .cls-4 {
        fill: #53ecf4;
      }

      .cls-7 {
        fill: #000000;
      }
    </style>
  </defs>
  <g id="group-48svg">
    <path d="M67.000,39.990 C67.000,44.409 63.418,47.991 59.000,47.991 C59.000,47.991 15.000,47.991 15.000,47.991 C10.582,47.991 7.000,44.409 7.000,39.990 C7.000,39.990 7.000,11.988 7.000,11.988 C7.000,7.569 10.582,3.987 15.000,3.987 C15.000,3.987 59.000,3.987 59.000,3.987 C63.418,3.987 67.000,7.569 67.000,11.988 C67.000,11.988 67.000,39.990 67.000,39.990 Z" id="path-1" class="cls-3" fill-rule="evenodd"/>
    <path d="M60.000,39.990 C60.000,41.095 59.104,41.990 58.000,41.990 C58.000,41.990 50.000,41.990 50.000,41.990 C48.895,41.990 48.000,41.095 48.000,39.990 C48.000,39.990 48.000,26.989 48.000,26.989 C48.000,25.884 48.895,24.989 50.000,24.989 C50.000,24.989 58.000,24.989 58.000,24.989 C59.104,24.989 60.000,25.884 60.000,26.989 C60.000,26.989 60.000,39.990 60.000,39.990 Z" id="path-2" class="cls-4" fill-rule="evenodd"/>
    <path d="M42.000,39.990 C42.000,41.095 41.104,41.990 40.000,41.990 C40.000,41.990 32.000,41.990 32.000,41.990 C30.895,41.990 30.000,41.095 30.000,39.990 C30.000,39.990 30.000,26.989 30.000,26.989 C30.000,25.884 30.895,24.989 32.000,24.989 C32.000,24.989 40.000,24.989 40.000,24.989 C41.104,24.989 42.000,25.884 42.000,26.989 C42.000,26.989 42.000,39.990 42.000,39.990 Z" id="path-3" class="cls-4" fill-rule="evenodd"/>
    <path d="M24.000,39.990 C24.000,41.095 23.104,41.990 22.000,41.990 C22.000,41.990 14.000,41.990 14.000,41.990 C12.895,41.990 12.000,41.095 12.000,39.990 C12.000,39.990 12.000,26.989 12.000,26.989 C12.000,25.884 12.895,24.989 14.000,24.989 C14.000,24.989 22.000,24.989 22.000,24.989 C23.104,24.989 24.000,25.884 24.000,26.989 C24.000,26.989 24.000,39.990 24.000,39.990 Z" id="path-4" class="cls-4" fill-rule="evenodd"/>
    <path d="M53.500,46.990 C53.500,46.990 9.500,46.990 9.500,46.990 C4.262,46.990 -0.000,42.728 -0.000,37.490 C-0.000,37.490 -0.000,9.488 -0.000,9.488 C-0.000,4.249 4.262,-0.013 9.500,-0.013 C9.500,-0.013 53.500,-0.013 53.500,-0.013 C58.738,-0.013 63.000,4.249 63.000,9.488 C63.000,9.488 63.000,37.490 63.000,37.490 C63.000,42.728 58.738,46.990 53.500,46.990 ZM9.500,2.987 C5.916,2.987 3.000,5.904 3.000,9.488 C3.000,9.488 3.000,37.490 3.000,37.490 C3.000,41.074 5.916,43.990 9.500,43.990 C9.500,43.990 53.500,43.990 53.500,43.990 C57.084,43.990 60.000,41.074 60.000,37.490 C60.000,37.490 60.000,9.488 60.000,9.488 C60.000,5.904 57.084,2.987 53.500,2.987 C53.500,2.987 9.500,2.987 9.500,2.987 Z" id="path-5" class="cls-7" fill-rule="evenodd"/>
    <path d="M53.500,40.990 C53.500,40.990 45.500,40.990 45.500,40.990 C43.570,40.990 42.000,39.420 42.000,37.490 C42.000,37.490 42.000,24.489 42.000,24.489 C42.000,22.559 43.570,20.989 45.500,20.989 C45.500,20.989 53.500,20.989 53.500,20.989 C55.430,20.989 57.000,22.559 57.000,24.489 C57.000,24.489 57.000,37.490 57.000,37.490 C57.000,39.420 55.430,40.990 53.500,40.990 ZM45.500,23.989 C45.225,23.989 45.000,24.213 45.000,24.489 C45.000,24.489 45.000,37.490 45.000,37.490 C45.000,37.765 45.225,37.990 45.500,37.990 C45.500,37.990 53.500,37.990 53.500,37.990 C53.775,37.990 54.000,37.765 54.000,37.490 C54.000,37.490 54.000,24.489 54.000,24.489 C54.000,24.213 53.775,23.989 53.500,23.989 C53.500,23.989 45.500,23.989 45.500,23.989 Z" id="path-6" class="cls-7" fill-rule="evenodd"/>
    <path d="M35.500,40.990 C35.500,40.990 27.500,40.990 27.500,40.990 C25.570,40.990 24.000,39.420 24.000,37.490 C24.000,37.490 24.000,24.489 24.000,24.489 C24.000,22.559 25.570,20.989 27.500,20.989 C27.500,20.989 35.500,20.989 35.500,20.989 C37.430,20.989 39.000,22.559 39.000,24.489 C39.000,24.489 39.000,37.490 39.000,37.490 C39.000,39.420 37.430,40.990 35.500,40.990 ZM27.500,23.989 C27.225,23.989 27.000,24.213 27.000,24.489 C27.000,24.489 27.000,37.490 27.000,37.490 C27.000,37.765 27.225,37.990 27.500,37.990 C27.500,37.990 35.500,37.990 35.500,37.990 C35.775,37.990 36.000,37.765 36.000,37.490 C36.000,37.490 36.000,24.489 36.000,24.489 C36.000,24.213 35.775,23.989 35.500,23.989 C35.500,23.989 27.500,23.989 27.500,23.989 Z" id="path-7" class="cls-7" fill-rule="evenodd"/>
    <path d="M17.500,40.990 C17.500,40.990 9.500,40.990 9.500,40.990 C7.570,40.990 6.000,39.420 6.000,37.490 C6.000,37.490 6.000,24.489 6.000,24.489 C6.000,22.559 7.570,20.989 9.500,20.989 C9.500,20.989 17.500,20.989 17.500,20.989 C19.430,20.989 21.000,22.559 21.000,24.489 C21.000,24.489 21.000,37.490 21.000,37.490 C21.000,39.420 19.430,40.990 17.500,40.990 ZM9.500,23.989 C9.225,23.989 9.000,24.213 9.000,24.489 C9.000,24.489 9.000,37.490 9.000,37.490 C9.000,37.765 9.225,37.990 9.500,37.990 C9.500,37.990 17.500,37.990 17.500,37.990 C17.775,37.990 18.000,37.765 18.000,37.490 C18.000,37.490 18.000,24.489 18.000,24.489 C18.000,24.213 17.775,23.989 17.500,23.989 C17.500,23.989 9.500,23.989 9.500,23.989 Z" id="path-8" class="cls-7" fill-rule="evenodd"/>
    <path d="M61.000,16.988 C61.000,16.988 3.000,16.988 3.000,16.988 C2.172,16.988 1.500,16.316 1.500,15.488 C1.500,14.660 2.172,13.988 3.000,13.988 C3.000,13.988 61.000,13.988 61.000,13.988 C61.828,13.988 62.500,14.660 62.500,15.488 C62.500,16.316 61.828,16.988 61.000,16.988 Z" id="path-9" class="cls-7" fill-rule="evenodd"/>
    <path d="M15.962,10.177 C15.962,11.740 14.695,13.007 13.132,13.007 C11.568,13.007 10.302,11.740 10.302,10.177 C10.302,8.614 11.568,7.346 13.132,7.346 C14.695,7.346 15.962,8.614 15.962,10.177 Z" id="path-10" class="cls-7" fill-rule="evenodd"/>
    <path d="M26.150,10.177 C26.150,11.740 24.884,13.007 23.320,13.007 C21.758,13.007 20.490,11.740 20.490,10.177 C20.490,8.614 21.758,7.346 23.320,7.346 C24.884,7.346 26.150,8.614 26.150,10.177 Z" id="path-11" class="cls-7" fill-rule="evenodd"/>
    <path d="M35.207,10.177 C35.207,11.740 33.940,13.007 32.377,13.007 C30.814,13.007 29.547,11.740 29.547,10.177 C29.547,8.614 30.814,7.346 32.377,7.346 C33.940,7.346 35.207,8.614 35.207,10.177 Z" id="path-12" class="cls-7" fill-rule="evenodd"/>
  </g>
</svg>
