<svg xmlns="http://www.w3.org/2000/svg" xmlns:xlink="http://www.w3.org/1999/xlink" preserveAspectRatio="xMidYMid" width="67" height="50" viewBox="0 0 67 50">
  <defs>
    <style>

      .cls-3 {
        fill: #81bda4;
      }

      .cls-4 {
        fill: #000000;
      }

      .cls-9 {
        fill: #53ecf4;
      }
    </style>
  </defs>
  <g id="group-50svg">
    <path d="M67.000,40.990 C67.000,45.409 63.418,48.991 59.000,48.991 C59.000,48.991 15.000,48.991 15.000,48.991 C10.582,48.991 7.000,45.409 7.000,40.990 C7.000,40.990 7.000,12.988 7.000,12.988 C7.000,8.569 10.582,4.987 15.000,4.987 C15.000,4.987 59.000,4.987 59.000,4.987 C63.418,4.987 67.000,8.569 67.000,12.988 C67.000,12.988 67.000,40.990 67.000,40.990 Z" id="path-1" class="cls-3" fill-rule="evenodd"/>
    <path d="M53.500,46.990 C53.500,46.990 9.500,46.990 9.500,46.990 C4.262,46.990 -0.000,42.728 -0.000,37.490 C-0.000,37.490 -0.000,9.488 -0.000,9.488 C-0.000,4.249 4.262,-0.013 9.500,-0.013 C9.500,-0.013 53.500,-0.013 53.500,-0.013 C58.738,-0.013 63.000,4.249 63.000,9.488 C63.000,9.488 63.000,37.490 63.000,37.490 C63.000,42.728 58.738,46.990 53.500,46.990 ZM9.500,2.987 C5.916,2.987 3.000,5.904 3.000,9.488 C3.000,9.488 3.000,37.490 3.000,37.490 C3.000,41.074 5.916,43.990 9.500,43.990 C9.500,43.990 53.500,43.990 53.500,43.990 C57.084,43.990 60.000,41.074 60.000,37.490 C60.000,37.490 60.000,9.488 60.000,9.488 C60.000,5.904 57.084,2.987 53.500,2.987 C53.500,2.987 9.500,2.987 9.500,2.987 Z" id="path-2" class="cls-4" fill-rule="evenodd"/>
    <path d="M61.000,16.988 C61.000,16.988 3.000,16.988 3.000,16.988 C2.172,16.988 1.500,16.316 1.500,15.488 C1.500,14.660 2.172,13.988 3.000,13.988 C3.000,13.988 61.000,13.988 61.000,13.988 C61.828,13.988 62.500,14.660 62.500,15.488 C62.500,16.316 61.828,16.988 61.000,16.988 Z" id="path-3" class="cls-4" fill-rule="evenodd"/>
    <path d="M15.452,9.752 C15.452,11.315 14.186,12.582 12.622,12.582 C11.059,12.582 9.792,11.315 9.792,9.752 C9.792,8.188 11.059,6.921 12.622,6.921 C14.186,6.921 15.452,8.188 15.452,9.752 Z" id="path-4" class="cls-4" fill-rule="evenodd"/>
    <path d="M25.641,9.752 C25.641,11.315 24.374,12.582 22.810,12.582 C21.248,12.582 19.980,11.315 19.980,9.752 C19.980,8.188 21.248,6.921 22.810,6.921 C24.374,6.921 25.641,8.188 25.641,9.752 Z" id="path-5" class="cls-4" fill-rule="evenodd"/>
    <path d="M34.697,9.752 C34.697,11.315 33.431,12.582 31.867,12.582 C30.305,12.582 29.037,11.315 29.037,9.752 C29.037,8.188 30.305,6.921 31.867,6.921 C33.431,6.921 34.697,8.188 34.697,9.752 Z" id="path-6" class="cls-4" fill-rule="evenodd"/>
    <path d="M54.000,26.989 C54.000,26.989 10.000,26.989 10.000,26.989 C9.172,26.989 8.500,26.317 8.500,25.489 C8.500,24.661 9.172,23.989 10.000,23.989 C10.000,23.989 54.000,23.989 54.000,23.989 C54.828,23.989 55.500,24.661 55.500,25.489 C55.500,26.317 54.828,26.989 54.000,26.989 Z" id="path-7" class="cls-9" fill-rule="evenodd"/>
    <path d="M41.000,34.990 C41.000,34.990 10.000,34.990 10.000,34.990 C9.172,34.990 8.500,34.318 8.500,33.490 C8.500,32.661 9.172,31.989 10.000,31.989 C10.000,31.989 41.000,31.989 41.000,31.989 C41.828,31.989 42.500,32.661 42.500,33.490 C42.500,34.318 41.828,34.990 41.000,34.990 Z" id="path-8" class="cls-9" fill-rule="evenodd"/>
    <path d="M49.000,41.990 C49.000,41.990 10.000,41.990 10.000,41.990 C9.172,41.990 8.500,41.318 8.500,40.490 C8.500,39.662 9.172,38.990 10.000,38.990 C10.000,38.990 49.000,38.990 49.000,38.990 C49.828,38.990 50.500,39.662 50.500,40.490 C50.500,41.318 49.828,41.990 49.000,41.990 Z" id="path-9" class="cls-9" fill-rule="evenodd"/>
  </g>
</svg>
