<svg xmlns="http://www.w3.org/2000/svg" xmlns:xlink="http://www.w3.org/1999/xlink" preserveAspectRatio="xMidYMid" width="51" height="66" viewBox="0 0 51 66">
  <defs>
    <style>

      .cls-3 {
        fill: #edc951;
      }

      .cls-4 {
        fill: #8b71b5;
      }

      .cls-5 {
        fill: #000000;
      }
    </style>
  </defs>
  <g id="group-64svg">
    <path d="M22.665,5.005 C22.665,5.005 47.165,5.005 47.165,5.005 C49.364,5.005 51.000,6.305 51.000,8.505 C51.000,8.505 51.000,60.509 51.000,60.509 C51.000,62.709 49.364,65.009 47.165,65.009 C47.165,65.009 10.164,65.009 10.164,65.009 C7.956,65.009 6.000,62.718 6.000,60.509 C6.000,60.509 6.000,24.575 6.000,24.575 C6.000,24.575 22.665,5.005 22.665,5.005 Z" id="path-1" class="cls-3" fill-rule="evenodd"/>
    <path d="M7.350,23.006 C7.350,23.006 18.664,23.006 18.664,23.006 C20.874,23.006 23.000,21.215 23.000,19.006 C23.000,19.006 23.000,4.505 23.000,4.505 C23.000,4.505 7.350,23.006 7.350,23.006 Z" id="path-2" class="cls-4" fill-rule="evenodd"/>
    <path d="M42.165,63.009 C42.165,63.009 5.165,63.009 5.165,63.009 C2.220,63.009 -0.000,60.644 -0.000,57.508 C-0.000,57.508 -0.000,21.575 -0.000,21.575 C-0.000,21.241 0.112,20.916 0.317,20.652 C0.317,20.652 15.982,0.582 15.982,0.582 C16.266,0.217 16.703,0.004 17.165,0.004 C17.165,0.004 42.165,0.004 42.165,0.004 C45.273,0.004 48.000,2.575 48.000,5.505 C48.000,5.505 48.000,57.508 48.000,57.508 C48.000,60.438 45.273,63.009 42.165,63.009 ZM3.000,22.091 C3.000,22.091 3.000,57.508 3.000,57.508 C3.000,58.713 3.677,60.009 5.165,60.009 C5.165,60.009 42.165,60.009 42.165,60.009 C43.622,60.009 45.000,58.794 45.000,57.508 C45.000,57.508 45.000,5.505 45.000,5.505 C45.000,4.220 43.622,3.005 42.165,3.005 C42.165,3.005 17.896,3.005 17.896,3.005 C17.896,3.005 3.000,22.091 3.000,22.091 Z" id="path-3" class="cls-5" fill-rule="evenodd"/>
    <path d="M12.793,22.006 C12.793,22.006 2.017,22.006 2.017,22.006 C1.436,22.006 0.908,21.671 0.661,21.146 C0.413,20.621 0.490,20.000 0.859,19.552 C0.859,19.552 16.342,0.765 16.342,0.765 C16.745,0.277 17.411,0.094 18.007,0.307 C18.602,0.521 19.000,1.087 19.000,1.719 C19.000,1.719 19.000,16.025 19.000,16.025 C19.000,18.987 15.868,22.006 12.793,22.006 ZM5.197,19.006 C5.197,19.006 12.793,19.006 12.793,19.006 C14.202,19.006 16.000,17.335 16.000,16.025 C16.000,16.025 16.000,5.898 16.000,5.898 C16.000,5.898 5.197,19.006 5.197,19.006 Z" id="path-4" class="cls-5" fill-rule="evenodd"/>
    <path d="M34.549,56.321 C34.549,56.321 33.906,54.629 33.906,54.629 C33.906,54.629 28.428,54.629 28.428,54.629 C28.428,54.629 27.785,56.357 27.785,56.357 C27.533,57.032 27.319,57.487 27.141,57.722 C26.963,57.958 26.672,58.076 26.268,58.076 C25.925,58.076 25.622,57.950 25.358,57.700 C25.095,57.448 24.963,57.163 24.963,56.844 C24.963,56.661 24.994,56.471 25.055,56.274 C25.116,56.079 25.217,55.805 25.358,55.457 C25.358,55.457 28.805,46.706 28.805,46.706 C28.903,46.455 29.021,46.153 29.159,45.801 C29.297,45.448 29.444,45.156 29.600,44.923 C29.756,44.690 29.961,44.502 30.216,44.357 C30.470,44.214 30.784,44.141 31.158,44.141 C31.538,44.141 31.855,44.214 32.109,44.357 C32.363,44.502 32.569,44.687 32.725,44.914 C32.881,45.140 33.013,45.384 33.120,45.644 C33.228,45.905 33.364,46.253 33.529,46.687 C33.529,46.687 37.049,55.383 37.049,55.383 C37.325,56.044 37.463,56.526 37.463,56.826 C37.463,57.138 37.333,57.425 37.072,57.685 C36.812,57.946 36.498,58.076 36.130,58.076 C35.916,58.076 35.732,58.038 35.579,57.962 C35.426,57.884 35.297,57.781 35.193,57.649 C35.088,57.517 34.977,57.315 34.857,57.042 C34.738,56.769 34.635,56.529 34.549,56.321 ZM29.145,52.579 C29.145,52.579 33.171,52.579 33.171,52.579 C33.171,52.579 31.140,47.018 31.140,47.018 C31.140,47.018 29.145,52.579 29.145,52.579 Z" id="path-5" class="cls-4" fill-rule="evenodd"/>
    <path d="M40.560,46.706 C40.211,46.706 39.913,46.598 39.664,46.385 C39.416,46.170 39.292,45.867 39.292,45.474 C39.292,45.119 39.419,44.826 39.673,44.596 C39.928,44.367 40.223,44.252 40.560,44.252 C40.885,44.252 41.173,44.356 41.424,44.564 C41.676,44.773 41.801,45.076 41.801,45.474 C41.801,45.860 41.679,46.162 41.434,46.380 C41.188,46.598 40.897,46.706 40.560,46.706 ZM41.801,49.298 C41.801,49.298 41.801,56.550 41.801,56.550 C41.801,57.053 41.682,57.432 41.443,57.690 C41.204,57.948 40.900,58.076 40.533,58.076 C40.165,58.076 39.867,57.944 39.637,57.680 C39.407,57.418 39.292,57.041 39.292,56.550 C39.292,56.550 39.292,49.371 39.292,49.371 C39.292,48.875 39.407,48.502 39.637,48.250 C39.867,47.999 40.165,47.873 40.533,47.873 C40.900,47.873 41.204,47.999 41.443,48.250 C41.682,48.502 41.801,48.851 41.801,49.298 Z" id="path-6" class="cls-4" fill-rule="evenodd"/>
  </g>
</svg>
