<?xml version="1.0" standalone="no"?>
<!DOCTYPE svg PUBLIC "-//W3C//DTD SVG 20010904//EN"
 "http://www.w3.org/TR/2001/REC-SVG-20010904/DTD/svg10.dtd">
<svg version="1.0" xmlns="http://www.w3.org/2000/svg"
 width="500.000000pt" height="500.000000pt" viewBox="0 0 500.000000 500.000000"
 preserveAspectRatio="xMidYMid meet">
<metadata>
Created by potrace 1.15, written by Peter Selinger 2001-2017
</metadata>
<g transform="translate(0.000000,500.000000) scale(0.100000,-0.100000)"
fill="#000000" stroke="none">
<path d="M312 4819 c-69 -34 -104 -71 -138 -144 l-24 -50 0 -2126 0 -2126 31
-61 c34 -69 71 -104 144 -138 l50 -24 2126 0 2126 0 61 31 c69 34 104 71 138
144 l24 50 0 2125 0 2125 -24 50 c-34 73 -69 110 -138 144 l-61 31 -2127 0
-2127 0 -61 -31z m2479 -878 c299 -64 527 -187 745 -405 217 -218 339 -443
406 -750 32 -144 31 -426 0 -572 -43 -202 -114 -370 -223 -535 -88 -131 -273
-316 -407 -404 -494 -326 -1132 -325 -1626 2 -137 91 -319 273 -410 411 -117
176 -207 413 -231 605 l-7 57 511 0 511 0 0 -122 c0 -111 2 -124 22 -145 l21
-23 396 0 c392 0 395 0 418 22 l23 21 0 396 c0 392 0 395 -22 418 l-21 23
-396 0 c-484 0 -441 16 -441 -167 l0 -123 -510 0 -510 0 0 21 c0 38 39 214 66
295 65 202 182 392 341 555 234 240 502 379 839 434 123 20 376 13 505 -14z"/>
</g>
</svg>
