<?xml version="1.0" encoding="UTF-8"?>
<svg width="13px" height="10px" viewBox="0 0 13 10" version="1.1" xmlns="http://www.w3.org/2000/svg" xmlns:xlink="http://www.w3.org/1999/xlink">
    <!-- Generator: Sketch 49 (51002) - http://www.bohemiancoding.com/sketch -->
    <title> copy</title>
    <desc>Created with Sketch.</desc>
    <defs></defs>
    <g id="Category" stroke="none" stroke-width="1" fill="none" fill-rule="evenodd">
        <g id="1920px---category-with-filters" transform="translate(-68.000000, -391.000000)" fill="#ffffff" stroke="#ffffff">
            <path d="M72.4973357,400 C72.4322081,400 72.3687096,399.988604 72.3068384,399.965812 C72.2449671,399.94302 72.1912376,399.905576 72.1456483,399.85348 L69.1465364,396.854701 C69.048845,396.75702 69,396.639805 69,396.503053 C69,396.3663 69.048845,396.249085 69.1465364,396.151404 C69.2442278,396.053724 69.3614558,396.004884 69.4982238,396.004884 C69.6349918,396.004884 69.7522198,396.053724 69.8499112,396.151404 L72.4973357,398.798535 L79.1500888,392.14652 C79.2477802,392.04884 79.3650082,392 79.5017762,392 C79.6385442,392 79.7557722,392.04884 79.8534636,392.14652 C79.951155,392.244201 80,392.361416 80,392.498168 C80,392.634921 79.951155,392.752136 79.8534636,392.849817 L72.8490231,399.85348 C72.8034338,399.905576 72.7497043,399.94302 72.687833,399.965812 C72.6259618,399.988604 72.5624633,400 72.4973357,400 Z" id="-copy"></path>
        </g>
    </g>
</svg>