<?xml version="1.0" encoding="UTF-8"?>
<svg width="17px" height="17px" viewBox="0 0 17 17" version="1.1" xmlns="http://www.w3.org/2000/svg" xmlns:xlink="http://www.w3.org/1999/xlink">
    <!-- Generator: Sketch 51.1 (57501) - http://www.bohemiancoding.com/sketch -->
    <title>info--glyph</title>
    <desc>Created with Sketch.</desc>
    <defs></defs>
    <g id="Page-1" stroke="none" stroke-width="1" fill="none" fill-rule="evenodd">
        <g id="After-CSV-is-uploaded" transform="translate(-59.000000, -582.000000)" fill="#5AAAFA">
            <g id="Notification/Informational" transform="translate(59.131768, 579.291127)">
                <g id="info--glyph" transform="translate(0.000000, 3.000000)">
                    <path d="M8,0 C3.6,0 0,3.6 0,8 C0,12.4 3.6,16 8,16 C12.4,16 16,12.4 16,8 C16,3.6 12.4,0 8,0 L8,0 Z M8,4 C8.6,4 9,4.4 9,5 C9,5.6 8.6,6 8,6 C7.4,6 7,5.6 7,5 C7,4.4 7.4,4 8,4 L8,4 Z M10,12 L6,12 L6,11 L7,11 L7,8 L6,8 L6,7 L9,7 L9,11 L10,11 L10,12 L10,12 Z" id="Shape"></path>
                </g>
            </g>
        </g>
    </g>
</svg>