<svg xmlns="http://www.w3.org/2000/svg" xmlns:xlink="http://www.w3.org/1999/xlink" preserveAspectRatio="xMidYMid" width="64" height="49" viewBox="0 0 64 49">
  <defs>
    <style>

      .cls-3 {
        fill: #81bda4;
      }

      .cls-4 {
        fill: #8b71b5;
      }

      .cls-5 {
        fill: #ff917b;
      }

      .cls-6 {
        fill: #000000;
      }
    </style>
  </defs>
  <g id="group-11svg">
    <path d="M56.125,23.000 C56.125,23.000 56.125,49.000 56.125,49.000 C56.125,49.000 12.125,49.000 12.125,49.000 C12.125,49.000 12.125,23.000 12.125,23.000 C12.125,23.000 12.125,23.000 12.125,23.000 " id="path-1" class="cls-3" fill-rule="evenodd"/>
    <path d="M43.125,49.000 C43.125,49.000 26.125,49.000 26.125,49.000 C26.125,49.000 26.125,32.000 26.125,32.000 C26.125,32.000 43.125,32.000 43.125,32.000 C43.125,32.000 43.125,49.000 43.125,49.000 Z" id="path-2" class="cls-4" fill-rule="evenodd"/>
    <path d="M64.125,21.904 C64.125,21.904 56.124,5.000 56.124,5.000 C56.124,5.000 12.975,5.000 12.975,5.000 C12.975,5.000 4.514,21.913 4.514,21.913 C4.514,21.913 4.514,22.261 4.673,22.560 C5.274,23.696 8.154,24.762 12.251,24.762 C16.350,24.762 19.671,23.878 19.671,22.593 C19.671,22.294 19.803,22.241 19.803,22.540 C19.803,23.824 23.125,24.760 27.223,24.760 C31.321,24.760 34.643,23.877 34.643,22.592 C34.643,22.293 34.774,22.240 34.774,22.539 C34.774,23.824 38.096,24.760 42.194,24.760 C46.292,24.760 49.614,23.876 49.614,22.592 C49.614,22.293 49.746,22.240 49.746,22.539 C49.746,23.824 52.837,24.760 56.936,24.760 C61.033,24.760 64.125,23.876 64.125,22.592 C64.125,22.293 64.125,21.904 64.125,21.904 Z" id="path-3" class="cls-5" fill-rule="evenodd"/>
    <path d="M40.625,47.000 C40.625,47.000 23.625,47.000 23.625,47.000 C22.796,47.000 22.125,46.329 22.125,45.500 C22.125,45.500 22.125,28.500 22.125,28.500 C22.125,27.671 22.796,27.000 23.625,27.000 C23.625,27.000 40.625,27.000 40.625,27.000 C41.454,27.000 42.125,27.671 42.125,28.500 C42.125,28.500 42.125,45.500 42.125,45.500 C42.125,46.329 41.454,47.000 40.625,47.000 ZM25.125,44.000 C25.125,44.000 39.125,44.000 39.125,44.000 C39.125,44.000 39.125,30.000 39.125,30.000 C39.125,30.000 25.125,30.000 25.125,30.000 C25.125,30.000 25.125,44.000 25.125,44.000 Z" id="path-4" class="cls-6" fill-rule="evenodd"/>
    <path d="M53.625,47.000 C53.625,47.000 9.625,47.000 9.625,47.000 C8.796,47.000 8.125,46.329 8.125,45.500 C8.125,45.500 8.125,22.000 8.125,22.000 C8.125,21.171 8.796,20.500 9.625,20.500 C10.454,20.500 11.125,21.171 11.125,22.000 C11.125,22.000 11.125,44.000 11.125,44.000 C11.125,44.000 52.125,44.000 52.125,44.000 C52.125,44.000 52.125,22.000 52.125,22.000 C52.125,21.171 52.796,20.500 53.625,20.500 C54.454,20.500 55.125,21.171 55.125,22.000 C55.125,22.000 55.125,45.500 55.125,45.500 C55.125,46.329 54.454,47.000 53.625,47.000 Z" id="path-5" class="cls-6" fill-rule="evenodd"/>
    <path d="M54.185,23.260 C52.699,23.260 48.826,23.125 46.698,21.815 C44.582,23.125 40.685,23.259 39.194,23.259 C37.715,23.259 33.870,23.125 31.742,21.826 C29.743,23.076 26.106,23.252 24.223,23.252 C22.737,23.252 18.865,23.117 16.744,21.800 C14.739,23.026 11.126,23.200 9.251,23.200 C4.827,23.200 1.331,21.998 0.347,20.138 C0.038,19.554 0.014,18.861 0.014,18.663 C0.014,18.433 0.067,18.206 0.169,17.999 C0.169,17.999 8.630,0.837 8.630,0.837 C8.882,0.325 9.404,-0.000 9.975,-0.000 C9.975,-0.000 53.124,-0.000 53.124,-0.000 C53.698,-0.000 54.221,0.327 54.472,0.842 C54.472,0.842 62.973,18.246 62.973,18.246 C63.073,18.451 63.125,18.676 63.125,18.904 C63.125,18.904 63.125,19.592 63.125,19.592 C63.125,22.996 56.283,23.260 54.185,23.260 ZM48.223,19.228 C48.783,19.629 50.872,20.260 54.185,20.260 C57.452,20.260 59.526,19.673 60.125,19.286 C60.125,19.286 60.125,19.251 60.125,19.251 C60.125,19.251 52.188,3.000 52.188,3.000 C52.188,3.000 10.908,3.000 10.908,3.000 C10.908,3.000 3.101,18.836 3.101,18.836 C3.624,19.285 5.641,20.200 9.251,20.200 C12.721,20.200 14.659,19.590 15.194,19.237 C15.458,17.398 18.010,17.367 18.281,19.217 C18.837,19.619 20.918,20.252 24.223,20.252 C27.693,20.252 29.633,19.629 30.164,19.269 C30.424,17.419 32.979,17.383 33.252,19.228 C33.809,19.629 35.890,20.259 39.194,20.259 C42.492,20.259 44.569,19.659 45.136,19.273 C45.394,17.422 47.947,17.385 48.223,19.228 Z" id="path-6" class="cls-6" fill-rule="evenodd"/>
  </g>
</svg>
