<svg xmlns="http://www.w3.org/2000/svg" xmlns:xlink="http://www.w3.org/1999/xlink" preserveAspectRatio="xMidYMid" width="68" height="60" viewBox="0 0 68 60">
  <defs>
    <style>

      .cls-3 {
        fill: #ff917b;
      }

      .cls-4 {
        fill: #edc951;
      }

      .cls-5 {
        fill: #8b71b5;
      }

      .cls-6 {
        fill: #000000;
      }
    </style>
  </defs>
  <g id="group-30svg">
    <path d="M7.500,24.022 C7.500,24.022 9.004,13.879 9.004,13.879 C9.362,8.851 13.605,5.000 18.720,5.000 C18.720,5.000 56.561,5.000 56.561,5.000 C61.676,5.000 65.919,8.851 66.277,13.879 C66.277,13.879 67.500,24.267 67.500,24.267 C67.500,24.267 67.500,24.267 67.500,24.267 " id="path-1" class="cls-3" fill-rule="evenodd"/>
    <path d="M67.000,52.000 C67.000,56.418 63.418,60.000 59.000,60.000 C59.000,60.000 15.000,60.000 15.000,60.000 C10.582,60.000 7.000,56.418 7.000,52.000 C7.000,52.000 7.000,25.000 7.000,25.000 C7.000,20.581 10.582,17.000 15.000,17.000 C15.000,17.000 59.000,17.000 59.000,17.000 C63.418,17.000 67.000,20.581 67.000,25.000 C67.000,25.000 67.000,52.000 67.000,52.000 Z" id="path-2" class="cls-4" fill-rule="evenodd"/>
    <path d="M32.141,5.000 C32.141,5.000 43.317,5.000 43.317,5.000 C43.317,5.000 45.000,17.898 45.000,17.898 C45.000,17.898 45.000,36.022 45.000,36.022 C45.000,37.679 43.226,39.000 41.569,39.000 C41.569,39.000 33.569,39.000 33.569,39.000 C31.919,39.000 31.000,37.672 31.000,36.022 C31.000,36.022 31.000,17.898 31.000,17.898 C31.000,17.898 32.141,5.000 32.141,5.000 Z" id="path-3" class="cls-5" fill-rule="evenodd"/>
    <path d="M53.500,58.000 C53.500,58.000 9.500,58.000 9.500,58.000 C4.262,58.000 -0.000,53.738 -0.000,48.500 C-0.000,48.500 -0.000,21.500 -0.000,21.500 C-0.000,16.262 4.262,12.000 9.500,12.000 C9.500,12.000 53.500,12.000 53.500,12.000 C58.738,12.000 63.000,16.262 63.000,21.500 C63.000,21.500 63.000,48.500 63.000,48.500 C63.000,53.738 58.738,58.000 53.500,58.000 ZM9.500,15.000 C5.916,15.000 3.000,17.916 3.000,21.500 C3.000,21.500 3.000,48.500 3.000,48.500 C3.000,52.084 5.916,55.000 9.500,55.000 C9.500,55.000 53.500,55.000 53.500,55.000 C57.084,55.000 60.000,52.084 60.000,48.500 C60.000,48.500 60.000,21.500 60.000,21.500 C60.000,17.916 57.084,15.000 53.500,15.000 C53.500,15.000 9.500,15.000 9.500,15.000 Z" id="path-4" class="cls-6" fill-rule="evenodd"/>
    <path d="M61.498,22.642 C60.747,22.642 60.099,22.079 60.010,21.315 C60.010,21.315 58.788,10.803 58.788,10.803 C58.472,6.398 54.861,3.000 50.562,3.000 C50.562,3.000 12.720,3.000 12.720,3.000 C8.419,3.000 4.810,6.398 4.500,10.736 C4.498,10.772 4.494,10.808 4.489,10.844 C4.489,10.844 2.984,21.237 2.984,21.237 C2.866,22.057 2.102,22.626 1.285,22.507 C0.465,22.388 -0.103,21.627 0.016,20.808 C0.016,20.808 1.512,10.467 1.512,10.467 C1.959,4.593 6.872,-0.000 12.720,-0.000 C12.720,-0.000 50.562,-0.000 50.562,-0.000 C56.428,-0.000 61.353,4.622 61.773,10.522 C61.773,10.522 62.990,20.968 62.990,20.968 C63.085,21.791 62.496,22.536 61.673,22.632 C61.614,22.638 61.556,22.642 61.498,22.642 Z" id="path-5" class="cls-6" fill-rule="evenodd"/>
    <path d="M35.569,37.000 C35.569,37.000 27.569,37.000 27.569,37.000 C24.954,37.000 23.000,34.372 23.000,32.022 C23.000,32.022 23.000,13.898 23.000,13.898 C23.000,13.826 23.005,13.755 23.015,13.684 C23.015,13.684 24.655,2.286 24.655,2.286 C24.762,1.548 25.394,1.000 26.140,1.000 C26.140,1.000 37.317,1.000 37.317,1.000 C38.086,1.000 38.730,1.581 38.810,2.345 C38.810,2.345 39.992,13.743 39.992,13.743 C39.998,13.795 40.000,13.846 40.000,13.898 C40.000,13.898 40.000,32.022 40.000,32.022 C40.000,34.376 38.180,37.000 35.569,37.000 ZM26.000,14.005 C26.000,14.005 26.000,32.022 26.000,32.022 C26.000,32.928 26.851,34.000 27.569,34.000 C27.569,34.000 35.569,34.000 35.569,34.000 C36.251,34.000 37.000,32.965 37.000,32.022 C37.000,32.022 37.000,13.976 37.000,13.976 C37.000,13.976 35.965,4.000 35.965,4.000 C35.965,4.000 27.440,4.000 27.440,4.000 C27.440,4.000 26.000,14.005 26.000,14.005 Z" id="path-6" class="cls-6" fill-rule="evenodd"/>
  </g>
</svg>
