<svg xmlns="http://www.w3.org/2000/svg" xmlns:xlink="http://www.w3.org/1999/xlink" preserveAspectRatio="xMidYMid" width="65" height="50" viewBox="0 0 65 50">
  <defs>
    <style>

      .cls-3 {
        fill: #ff917b;
      }

      .cls-4 {
        fill: #8b71b5;
      }

      .cls-5 {
        fill: #53ecf4;
      }

      .cls-6 {
        fill: #000000;
      }
    </style>
  </defs>
  <g id="group-13svg">
    <path d="M56.844,22.000 C56.844,22.000 56.844,50.000 56.844,50.000 C56.844,50.000 12.844,50.000 12.844,50.000 C12.844,50.000 12.844,22.000 12.844,22.000 C12.844,22.000 12.844,22.000 12.844,22.000 " id="path-1" class="cls-3" fill-rule="evenodd"/>
    <path d="M47.844,22.000 C47.844,22.000 47.844,42.000 47.844,42.000 C47.844,42.000 21.844,42.000 21.844,42.000 C21.844,42.000 21.844,22.000 21.844,22.000 C21.844,22.000 21.844,22.000 21.844,22.000 " id="path-2" class="cls-4" fill-rule="evenodd"/>
    <path d="M64.844,23.248 C64.844,23.248 57.095,6.000 57.095,6.000 C57.095,6.000 13.945,6.000 13.945,6.000 C13.945,6.000 5.485,23.085 5.485,23.085 C5.485,23.085 5.485,23.520 5.644,23.819 C6.245,24.955 9.124,26.063 13.222,26.063 C17.320,26.063 20.642,25.200 20.642,23.915 C20.642,23.617 20.773,23.574 20.773,23.873 C20.773,25.158 24.095,26.099 28.193,26.099 C32.291,26.099 35.613,25.218 35.613,23.934 C35.613,23.635 35.745,23.583 35.745,23.882 C35.745,25.166 39.067,26.103 43.165,26.103 C47.263,26.103 50.585,25.221 50.585,23.936 C50.585,23.637 50.716,23.584 50.716,23.883 C50.716,25.168 53.682,26.104 57.780,26.104 C61.878,26.104 64.844,25.221 64.844,23.936 C64.844,23.637 64.844,23.248 64.844,23.248 Z" id="path-3" class="cls-5" fill-rule="evenodd"/>
    <path d="M53.344,47.000 C53.344,47.000 9.344,47.000 9.344,47.000 C8.515,47.000 7.844,46.329 7.844,45.500 C7.844,45.500 7.844,22.000 7.844,22.000 C7.844,21.171 8.515,20.500 9.344,20.500 C10.172,20.500 10.844,21.171 10.844,22.000 C10.844,22.000 10.844,44.000 10.844,44.000 C10.844,44.000 51.844,44.000 51.844,44.000 C51.844,44.000 51.844,22.000 51.844,22.000 C51.844,21.171 52.515,20.500 53.344,20.500 C54.172,20.500 54.844,21.171 54.844,22.000 C54.844,22.000 54.844,45.500 54.844,45.500 C54.844,46.329 54.172,47.000 53.344,47.000 Z" id="path-4" class="cls-6" fill-rule="evenodd"/>
    <path d="M44.344,39.000 C44.344,39.000 18.344,39.000 18.344,39.000 C17.515,39.000 16.844,38.329 16.844,37.500 C16.844,37.500 16.844,22.000 16.844,22.000 C16.844,21.171 17.515,20.500 18.344,20.500 C19.172,20.500 19.844,21.171 19.844,22.000 C19.844,22.000 19.844,36.000 19.844,36.000 C19.844,36.000 42.844,36.000 42.844,36.000 C42.844,36.000 42.844,22.000 42.844,22.000 C42.844,21.171 43.515,20.500 44.344,20.500 C45.172,20.500 45.844,21.171 45.844,22.000 C45.844,22.000 45.844,37.500 45.844,37.500 C45.844,38.329 45.172,39.000 44.344,39.000 Z" id="path-5" class="cls-6" fill-rule="evenodd"/>
    <path d="M54.030,23.604 C52.571,23.604 48.783,23.471 46.678,22.179 C44.678,23.426 41.046,23.602 39.165,23.602 C37.685,23.602 33.836,23.468 31.710,22.167 C29.710,23.416 26.076,23.591 24.193,23.591 C22.703,23.591 18.809,23.455 16.692,22.123 C14.683,23.330 11.090,23.500 9.222,23.500 C4.879,23.500 1.301,22.253 0.318,20.396 C0.017,19.828 -0.015,19.115 -0.015,18.835 C-0.015,18.607 0.037,18.382 0.137,18.177 C0.137,18.177 8.597,0.842 8.597,0.842 C8.849,0.327 9.372,-0.000 9.945,-0.000 C9.945,-0.000 53.095,-0.000 53.095,-0.000 C53.679,-0.000 54.209,0.338 54.456,0.868 C54.456,0.868 62.704,18.617 62.704,18.617 C62.796,18.814 62.844,19.030 62.844,19.249 C62.844,19.249 62.844,19.936 62.844,19.936 C62.844,23.247 56.680,23.604 54.030,23.604 ZM48.196,19.587 C48.736,19.982 50.776,20.604 54.030,20.604 C57.404,20.604 59.300,20.001 59.844,19.645 C59.844,19.645 59.844,19.580 59.844,19.580 C59.844,19.580 52.138,3.000 52.138,3.000 C52.138,3.000 10.882,3.000 10.882,3.000 C10.882,3.000 3.038,19.072 3.038,19.072 C3.487,19.508 5.517,20.500 9.222,20.500 C12.690,20.500 14.628,19.903 15.165,19.555 C15.434,17.726 17.982,17.697 18.252,19.551 C18.808,19.955 20.889,20.591 24.193,20.591 C27.663,20.591 29.603,19.970 30.135,19.610 C30.395,17.761 32.951,17.726 33.223,19.571 C33.779,19.972 35.860,20.603 39.165,20.603 C42.462,20.603 44.540,20.002 45.106,19.617 C45.365,17.761 47.934,17.729 48.196,19.587 Z" id="path-6" class="cls-6" fill-rule="evenodd"/>
  </g>
</svg>
