<svg xmlns="http://www.w3.org/2000/svg" xmlns:xlink="http://www.w3.org/1999/xlink" preserveAspectRatio="xMidYMid" width="64" height="49" viewBox="0 0 64 49">
  <defs>
    <style>

      .cls-3 {
        fill: #ff917b;
      }

      .cls-4 {
        fill: #8b71b5;
      }

      .cls-5 {
        fill: #edc951;
      }

      .cls-7 {
        fill: #000000;
      }
    </style>
  </defs>
  <g id="group-12svg">
    <path d="M55.687,20.000 C55.687,20.000 55.687,49.000 55.687,49.000 C55.687,49.000 11.687,49.000 11.687,49.000 C11.687,49.000 11.687,20.000 11.687,20.000 C11.687,20.000 11.687,20.000 11.687,20.000 " id="path-1" class="cls-3" fill-rule="evenodd"/>
    <path d="M63.687,21.404 C63.687,21.404 56.105,5.000 56.105,5.000 C56.105,5.000 12.956,5.000 12.956,5.000 C12.956,5.000 4.495,21.663 4.495,21.663 C4.495,21.663 4.495,21.886 4.654,22.186 C5.255,23.321 8.134,24.325 12.232,24.325 C16.330,24.325 19.652,23.409 19.652,22.124 C19.652,21.825 19.784,21.756 19.784,22.055 C19.784,23.340 23.105,24.268 27.204,24.268 C31.302,24.268 34.624,23.381 34.624,22.096 C34.624,21.797 34.755,21.742 34.755,22.041 C34.755,23.326 38.077,24.261 42.175,24.261 C46.273,24.261 49.595,23.377 49.595,22.092 C49.595,21.793 49.726,21.740 49.726,22.039 C49.726,23.324 52.609,24.260 56.707,24.260 C60.805,24.260 63.687,23.376 63.687,22.092 C63.687,21.793 63.687,21.404 63.687,21.404 Z" id="path-2" class="cls-4" fill-rule="evenodd"/>
    <path d="M47.687,49.000 C47.687,49.000 38.687,49.000 38.687,49.000 C38.687,49.000 38.687,36.000 38.687,36.000 C38.687,36.000 47.687,36.000 47.687,36.000 C47.687,36.000 47.687,49.000 47.687,49.000 Z" id="path-3" class="cls-5" fill-rule="evenodd"/>
    <path d="M29.687,49.000 C29.687,49.000 20.687,49.000 20.687,49.000 C20.687,49.000 20.687,36.000 20.687,36.000 C20.687,36.000 29.687,36.000 29.687,36.000 C29.687,36.000 29.687,49.000 29.687,49.000 Z" id="path-4" class="cls-5" fill-rule="evenodd"/>
    <path d="M45.187,47.000 C45.187,47.000 36.187,47.000 36.187,47.000 C35.359,47.000 34.687,46.329 34.687,45.500 C34.687,45.500 34.687,32.500 34.687,32.500 C34.687,31.671 35.359,31.000 36.187,31.000 C36.187,31.000 45.187,31.000 45.187,31.000 C46.016,31.000 46.687,31.671 46.687,32.500 C46.687,32.500 46.687,45.500 46.687,45.500 C46.687,46.329 46.016,47.000 45.187,47.000 ZM37.687,44.000 C37.687,44.000 43.687,44.000 43.687,44.000 C43.687,44.000 43.687,34.000 43.687,34.000 C43.687,34.000 37.687,34.000 37.687,34.000 C37.687,34.000 37.687,44.000 37.687,44.000 Z" id="path-5" class="cls-7" fill-rule="evenodd"/>
    <path d="M27.187,47.000 C27.187,47.000 18.187,47.000 18.187,47.000 C17.359,47.000 16.687,46.329 16.687,45.500 C16.687,45.500 16.687,32.500 16.687,32.500 C16.687,31.671 17.359,31.000 18.187,31.000 C18.187,31.000 27.187,31.000 27.187,31.000 C28.016,31.000 28.687,31.671 28.687,32.500 C28.687,32.500 28.687,45.500 28.687,45.500 C28.687,46.329 28.016,47.000 27.187,47.000 ZM19.687,44.000 C19.687,44.000 25.687,44.000 25.687,44.000 C25.687,44.000 25.687,34.000 25.687,34.000 C25.687,34.000 19.687,34.000 19.687,34.000 C19.687,34.000 19.687,44.000 19.687,44.000 Z" id="path-6" class="cls-7" fill-rule="evenodd"/>
    <path d="M53.187,47.000 C53.187,47.000 9.187,47.000 9.187,47.000 C8.359,47.000 7.687,46.329 7.687,45.500 C7.687,45.500 7.687,22.000 7.687,22.000 C7.687,21.171 8.359,20.500 9.187,20.500 C10.016,20.500 10.687,21.171 10.687,22.000 C10.687,22.000 10.687,44.000 10.687,44.000 C10.687,44.000 51.687,44.000 51.687,44.000 C51.687,44.000 51.687,22.000 51.687,22.000 C51.687,21.171 52.359,20.500 53.187,20.500 C54.016,20.500 54.687,21.171 54.687,22.000 C54.687,22.000 54.687,45.500 54.687,45.500 C54.687,46.329 54.016,47.000 53.187,47.000 Z" id="path-7" class="cls-7" fill-rule="evenodd"/>
    <path d="M9.232,22.762 C4.788,22.762 1.292,21.584 0.328,19.763 C0.019,19.179 -0.005,18.582 -0.005,18.413 C-0.005,18.180 0.049,17.950 0.154,17.742 C0.154,17.742 8.614,0.829 8.614,0.829 C8.868,0.321 9.388,-0.000 9.956,-0.000 C9.956,-0.000 53.105,-0.000 53.105,-0.000 C53.683,-0.000 54.209,0.332 54.459,0.853 C54.459,0.853 62.541,17.757 62.541,17.757 C62.637,17.959 62.687,18.180 62.687,18.404 C62.687,18.404 62.687,19.092 62.687,19.092 C62.687,22.402 56.582,22.760 53.957,22.760 C52.509,22.760 48.744,22.625 46.662,21.327 C44.542,22.626 40.662,22.760 39.175,22.760 C37.691,22.760 33.830,22.625 31.706,21.317 C29.590,22.626 25.695,22.760 24.204,22.760 C22.721,22.760 18.859,22.625 16.736,21.318 C14.620,22.627 10.724,22.762 9.232,22.762 ZM3.118,18.521 C3.650,18.906 5.656,19.762 9.232,19.762 C12.530,19.762 14.607,19.161 15.174,18.775 C15.432,16.923 17.988,16.886 18.262,18.730 C18.818,19.130 20.899,19.760 24.204,19.760 C27.501,19.760 29.579,19.160 30.145,18.774 C30.403,16.922 32.959,16.886 33.233,18.730 C33.790,19.130 35.871,19.760 39.175,19.760 C42.473,19.760 44.550,19.159 45.117,18.774 C45.375,16.914 47.954,16.885 48.207,18.754 C48.701,19.118 50.573,19.760 53.957,19.760 C57.292,19.760 59.158,19.163 59.687,18.810 C59.687,18.810 59.687,18.744 59.687,18.744 C59.687,18.744 52.160,3.000 52.160,3.000 C52.160,3.000 10.882,3.000 10.882,3.000 C10.882,3.000 3.118,18.521 3.118,18.521 Z" id="path-8" class="cls-7" fill-rule="evenodd"/>
    <path d="M40.687,28.000 C40.687,28.000 22.687,28.000 22.687,28.000 C21.859,28.000 21.187,27.329 21.187,26.500 C21.187,25.671 21.859,25.000 22.687,25.000 C22.687,25.000 40.687,25.000 40.687,25.000 C41.516,25.000 42.187,25.671 42.187,26.500 C42.187,27.329 41.516,28.000 40.687,28.000 Z" id="path-9" class="cls-7" fill-rule="evenodd"/>
  </g>
</svg>
