<svg xmlns="http://www.w3.org/2000/svg" xmlns:xlink="http://www.w3.org/1999/xlink" preserveAspectRatio="xMidYMid" width="69" height="62" viewBox="0 0 69 62">
  <defs>
    <style>

      .cls-3 {
        fill: #edc951;
      }

      .cls-4 {
        fill: #e56a77;
      }

      .cls-5 {
        fill: #000000;
      }
    </style>
  </defs>
  <g id="group-21svg">
    <path d="M50.876,62.000 C50.876,62.000 26.147,62.000 26.147,62.000 C21.402,62.000 17.208,58.760 15.793,54.231 C15.793,54.231 9.013,32.810 9.013,32.810 C6.830,25.824 12.049,19.000 19.367,19.000 C19.367,19.000 57.656,19.000 57.656,19.000 C64.975,19.000 70.193,25.746 68.011,32.731 C68.011,32.731 61.230,54.407 61.230,54.407 C59.815,58.936 55.621,62.000 50.876,62.000 Z" id="path-1" class="cls-3" fill-rule="evenodd"/>
    <path d="M54.451,58.345 C54.451,58.345 48.976,46.051 48.976,46.051 C48.976,46.051 43.604,48.485 43.604,48.485 C43.604,48.485 42.469,47.522 42.469,47.522 C42.469,47.522 42.469,38.000 42.469,38.000 C42.469,38.000 28.469,38.000 28.469,38.000 C28.469,38.000 28.469,44.522 28.469,44.522 C28.469,44.522 33.628,45.627 33.628,45.627 C33.628,45.627 19.469,48.130 19.469,48.130 C19.469,48.130 19.469,59.000 19.469,59.000 C19.469,59.000 32.391,59.000 32.391,59.000 C32.391,59.000 39.850,58.782 39.850,58.782 C39.850,58.782 40.172,59.511 40.172,59.511 C40.172,59.511 54.451,58.345 54.451,58.345 Z" id="path-2" class="cls-4" fill-rule="evenodd"/>
    <path d="M43.876,60.000 C43.876,60.000 19.147,60.000 19.147,60.000 C13.699,60.000 8.963,56.555 7.361,51.429 C7.361,51.429 0.582,29.885 0.582,29.885 C-0.593,26.125 0.061,22.165 2.375,19.018 C4.720,15.829 8.361,14.000 12.367,14.000 C12.367,14.000 50.656,14.000 50.656,14.000 C54.650,14.000 58.288,15.831 60.635,19.023 C62.961,22.186 63.619,26.161 62.442,29.929 C62.442,29.929 55.661,51.483 55.661,51.483 C54.069,56.576 49.333,60.000 43.876,60.000 ZM12.367,17.000 C9.326,17.000 6.565,18.383 4.792,20.795 C3.050,23.165 2.559,26.151 3.444,28.987 C3.444,28.987 10.224,50.531 10.224,50.531 C11.434,54.401 15.019,57.000 19.147,57.000 C19.147,57.000 43.876,57.000 43.876,57.000 C48.014,57.000 51.600,54.422 52.799,50.585 C52.799,50.585 59.580,29.031 59.580,29.031 C60.469,26.187 59.973,23.186 58.218,20.800 C56.442,18.385 53.686,17.000 50.656,17.000 C50.656,17.000 12.367,17.000 12.367,17.000 Z" id="path-3" class="cls-5" fill-rule="evenodd"/>
    <path d="M46.969,16.500 C46.141,16.500 45.469,15.829 45.469,15.000 C45.469,15.000 45.469,9.500 45.469,9.500 C45.469,5.916 42.553,3.000 38.969,3.000 C38.969,3.000 23.969,3.000 23.969,3.000 C20.385,3.000 17.469,5.916 17.469,9.500 C17.469,9.500 17.469,15.000 17.469,15.000 C17.469,15.829 16.797,16.500 15.969,16.500 C15.141,16.500 14.469,15.829 14.469,15.000 C14.469,15.000 14.469,9.500 14.469,9.500 C14.469,4.262 18.730,-0.000 23.969,-0.000 C23.969,-0.000 38.969,-0.000 38.969,-0.000 C44.207,-0.000 48.469,4.262 48.469,9.500 C48.469,9.500 48.469,15.000 48.469,15.000 C48.469,15.829 47.797,16.500 46.969,16.500 Z" id="path-4" class="cls-5" fill-rule="evenodd"/>
    <path d="M36.174,59.017 C35.601,59.017 35.053,58.686 34.804,58.128 C34.804,58.128 31.313,50.323 31.313,50.323 C30.977,49.573 31.309,48.692 32.056,48.349 C32.056,48.349 44.349,42.688 44.349,42.688 C44.712,42.521 45.130,42.506 45.504,42.647 C45.880,42.789 46.183,43.075 46.346,43.441 C46.346,43.441 51.821,55.735 51.821,55.735 C52.158,56.492 51.818,57.379 51.061,57.716 C50.305,58.052 49.419,57.712 49.081,56.956 C49.081,56.956 44.224,46.049 44.224,46.049 C44.224,46.049 34.657,50.453 34.657,50.453 C34.657,50.453 37.542,56.904 37.542,56.904 C37.880,57.660 37.541,58.547 36.785,58.886 C36.586,58.975 36.378,59.017 36.174,59.017 Z" id="path-5" class="cls-5" fill-rule="evenodd"/>
    <path d="M28.390,59.000 C28.390,59.000 15.969,59.000 15.969,59.000 C15.141,59.000 14.469,58.329 14.469,57.500 C14.469,57.500 14.469,46.129 14.469,46.129 C14.469,45.394 15.001,44.768 15.727,44.649 C15.727,44.649 32.081,41.970 32.081,41.970 C32.592,41.887 33.101,42.068 33.440,42.449 C33.782,42.831 33.906,43.361 33.768,43.854 C33.768,43.854 29.834,57.904 29.834,57.904 C29.652,58.552 29.062,59.000 28.390,59.000 ZM17.469,56.000 C17.469,56.000 27.252,56.000 27.252,56.000 C27.252,56.000 30.245,45.311 30.245,45.311 C30.245,45.311 17.469,47.404 17.469,47.404 C17.469,47.404 17.469,56.000 17.469,56.000 Z" id="path-6" class="cls-5" fill-rule="evenodd"/>
    <path d="M38.969,47.500 C38.141,47.500 37.469,46.829 37.469,46.000 C37.469,46.000 37.469,38.000 37.469,38.000 C37.469,38.000 26.469,38.000 26.469,38.000 C26.469,38.000 26.469,43.000 26.469,43.000 C26.469,43.829 25.797,44.500 24.969,44.500 C24.141,44.500 23.469,43.829 23.469,43.000 C23.469,43.000 23.469,36.500 23.469,36.500 C23.469,35.671 24.141,35.000 24.969,35.000 C24.969,35.000 38.969,35.000 38.969,35.000 C39.797,35.000 40.469,35.671 40.469,36.500 C40.469,36.500 40.469,46.000 40.469,46.000 C40.469,46.829 39.797,47.500 38.969,47.500 Z" id="path-7" class="cls-5" fill-rule="evenodd"/>
  </g>
</svg>
