<svg xmlns="http://www.w3.org/2000/svg" xmlns:xlink="http://www.w3.org/1999/xlink" preserveAspectRatio="xMidYMid" width="67" height="44" viewBox="0 0 67 44">
  <defs>
    <style>

      .cls-3 {
        fill: #81bda4;
      }

      .cls-4 {
        fill: #edc951;
      }

      .cls-6 {
        fill: #000000;
      }
    </style>
  </defs>
  <g id="group-16svg">
    <path d="M67.000,35.000 C67.000,39.418 63.418,43.000 59.000,43.000 C59.000,43.000 15.000,43.000 15.000,43.000 C10.582,43.000 7.000,39.418 7.000,35.000 C7.000,35.000 7.000,13.000 7.000,13.000 C7.000,8.582 10.582,5.000 15.000,5.000 C15.000,5.000 59.000,5.000 59.000,5.000 C63.418,5.000 67.000,8.582 67.000,13.000 C67.000,13.000 67.000,35.000 67.000,35.000 Z" id="path-1" class="cls-3" fill-rule="evenodd"/>
    <path d="M53.722,5.024 C53.722,5.024 54.000,19.525 67.000,18.125 C67.000,18.125 67.000,12.952 67.000,12.952 C67.000,8.492 63.416,4.893 58.956,4.953 C58.956,4.953 53.722,5.024 53.722,5.024 Z" id="path-2" class="cls-4" fill-rule="evenodd"/>
    <path d="M20.470,43.395 C20.470,43.395 20.000,28.894 7.000,30.294 C7.000,30.294 7.000,35.467 7.000,35.467 C7.000,39.927 10.680,43.526 15.140,43.466 C15.140,43.466 20.470,43.395 20.470,43.395 Z" id="path-3" class="cls-4" fill-rule="evenodd"/>
    <path d="M53.500,41.000 C53.500,41.000 9.500,41.000 9.500,41.000 C4.262,41.000 -0.000,36.738 -0.000,31.500 C-0.000,31.500 -0.000,9.500 -0.000,9.500 C-0.000,4.262 4.262,-0.000 9.500,-0.000 C9.500,-0.000 53.500,-0.000 53.500,-0.000 C58.738,-0.000 63.000,4.262 63.000,9.500 C63.000,9.500 63.000,31.500 63.000,31.500 C63.000,36.738 58.738,41.000 53.500,41.000 ZM9.500,3.000 C5.916,3.000 3.000,5.916 3.000,9.500 C3.000,9.500 3.000,31.500 3.000,31.500 C3.000,35.084 5.916,38.000 9.500,38.000 C9.500,38.000 53.500,38.000 53.500,38.000 C57.084,38.000 60.000,35.084 60.000,31.500 C60.000,31.500 60.000,9.500 60.000,9.500 C60.000,5.916 57.084,3.000 53.500,3.000 C53.500,3.000 9.500,3.000 9.500,3.000 Z" id="path-4" class="cls-6" fill-rule="evenodd"/>
    <path d="M59.783,16.720 C59.782,16.720 59.782,16.720 59.782,16.720 C49.677,16.720 46.657,7.143 46.473,2.079 C46.458,1.675 46.606,1.283 46.885,0.990 C47.163,0.697 47.548,0.529 47.952,0.524 C47.952,0.524 53.440,0.452 53.440,0.452 C58.712,0.452 63.000,4.714 63.000,9.952 C63.000,9.952 63.000,15.125 63.000,15.125 C63.000,15.892 62.423,16.534 61.660,16.617 C61.020,16.686 60.389,16.720 59.783,16.720 ZM49.636,3.502 C50.135,6.696 52.103,13.720 59.782,13.720 C59.782,13.720 59.782,13.720 59.783,13.720 C59.854,13.720 59.927,13.720 60.000,13.719 C60.000,13.719 60.000,9.952 60.000,9.952 C60.000,6.368 57.058,3.452 53.440,3.452 C53.440,3.452 49.636,3.502 49.636,3.502 Z" id="path-5" class="cls-6" fill-rule="evenodd"/>
    <path d="M9.436,40.844 C4.233,40.844 -0.000,36.583 -0.000,31.344 C-0.000,31.344 -0.000,26.171 -0.000,26.171 C-0.000,25.405 0.577,24.762 1.340,24.680 C1.979,24.611 2.610,24.576 3.216,24.576 C13.324,24.576 16.182,34.170 16.280,39.243 C16.288,39.643 16.136,40.029 15.858,40.315 C15.581,40.602 15.200,40.767 14.801,40.772 C14.801,40.772 9.436,40.844 9.436,40.844 ZM3.000,27.578 C3.000,27.578 3.000,31.344 3.000,31.344 C3.000,34.928 5.888,37.844 9.436,37.844 C9.436,37.844 13.145,37.794 13.145,37.794 C12.705,34.588 10.829,27.459 3.000,27.578 Z" id="path-6" class="cls-6" fill-rule="evenodd"/>
    <path d="M33.068,30.568 C27.640,30.568 23.224,26.152 23.224,20.725 C23.224,15.296 27.640,10.881 33.068,10.881 C34.570,10.881 36.013,11.211 37.356,11.862 C38.101,12.224 38.413,13.121 38.052,13.866 C37.690,14.612 36.794,14.922 36.048,14.562 C35.116,14.110 34.113,13.881 33.068,13.881 C29.294,13.881 26.224,16.951 26.224,20.725 C26.224,24.498 29.294,27.568 33.068,27.568 C34.074,27.568 35.043,27.355 35.946,26.936 C36.694,26.588 37.589,26.913 37.938,27.665 C38.287,28.416 37.961,29.308 37.210,29.657 C35.907,30.262 34.514,30.568 33.068,30.568 Z" id="path-7" class="cls-6" fill-rule="evenodd"/>
    <path d="M37.000,20.000 C37.000,20.000 21.000,20.000 21.000,20.000 C20.172,20.000 19.500,19.329 19.500,18.500 C19.500,17.671 20.172,17.000 21.000,17.000 C21.000,17.000 37.000,17.000 37.000,17.000 C37.828,17.000 38.500,17.671 38.500,18.500 C38.500,19.329 37.828,20.000 37.000,20.000 Z" id="path-8" class="cls-6" fill-rule="evenodd"/>
    <path d="M37.000,25.000 C37.000,25.000 21.000,25.000 21.000,25.000 C20.172,25.000 19.500,24.329 19.500,23.500 C19.500,22.671 20.172,22.000 21.000,22.000 C21.000,22.000 37.000,22.000 37.000,22.000 C37.828,22.000 38.500,22.671 38.500,23.500 C38.500,24.329 37.828,25.000 37.000,25.000 Z" id="path-9" class="cls-6" fill-rule="evenodd"/>
  </g>
</svg>
