<svg xmlns="http://www.w3.org/2000/svg" xmlns:xlink="http://www.w3.org/1999/xlink" preserveAspectRatio="xMidYMid" width="66" height="60" viewBox="0 0 66 60">
  <defs>
    <style>

      .cls-3 {
        fill: #8b71b5;
      }

      .cls-4 {
        fill: #e56a77;
      }

      .cls-5 {
        fill: #edc951;
      }

      .cls-7 {
        fill: #53ecf4;
      }

      .cls-8 {
        fill: #000000;
      }
    </style>
  </defs>
  <g id="group-3svg">
    <path d="M62.312,53.000 C62.312,53.000 65.312,53.000 65.312,53.000 C65.312,53.000 65.312,43.000 65.312,43.000 C65.312,43.000 20.132,43.000 20.132,43.000 C20.132,43.000 22.052,53.000 22.052,53.000 C22.052,53.000 25.312,53.000 25.312,53.000 C25.312,53.000 25.312,53.000 25.312,53.000 " id="path-1" class="cls-3" fill-rule="evenodd"/>
    <path d="M20.132,43.000 C20.132,43.000 56.619,43.000 56.619,43.000 C56.619,43.000 66.221,23.000 66.221,23.000 C66.221,23.000 15.231,23.000 15.231,23.000 C15.231,23.000 20.132,43.000 20.132,43.000 Z" id="path-2" class="cls-4" fill-rule="evenodd"/>
    <path d="M61.132,53.654 C61.132,56.835 58.553,59.415 55.370,59.415 C52.188,59.415 49.609,56.835 49.609,53.654 C49.609,50.472 52.188,47.893 55.370,47.893 C58.553,47.893 61.132,50.472 61.132,53.654 Z" id="path-3" class="cls-5" fill-rule="evenodd"/>
    <path d="M38.039,53.654 C38.039,56.835 35.460,59.415 32.278,59.415 C29.097,59.415 26.517,56.835 26.517,53.654 C26.517,50.472 29.097,47.893 32.278,47.893 C35.460,47.893 38.039,50.472 38.039,53.654 Z" id="path-4" class="cls-5" fill-rule="evenodd"/>
    <path d="M58.370,20.000 C58.370,20.000 53.068,8.669 53.068,8.669 C53.068,8.669 42.312,13.556 42.312,13.556 C42.312,13.556 42.312,2.000 42.312,2.000 C42.312,2.000 29.842,2.000 29.842,2.000 C29.842,2.000 28.899,8.784 28.899,8.784 C28.899,8.784 24.312,9.561 24.312,9.561 C24.312,9.561 24.312,20.000 24.312,20.000 C24.312,20.000 28.013,20.000 28.013,20.000 C28.013,20.000 27.911,21.000 27.911,21.000 C27.911,21.000 42.312,21.000 42.312,21.000 C42.312,21.000 42.312,15.509 42.312,15.509 C42.312,15.509 45.233,20.000 45.233,20.000 C45.233,20.000 58.370,20.000 58.370,20.000 Z" id="path-5" class="cls-7" fill-rule="evenodd"/>
    <path d="M51.619,42.000 C51.619,42.000 15.132,42.000 15.132,42.000 C14.440,42.000 13.839,41.528 13.675,40.857 C13.675,40.857 8.774,20.857 8.774,20.857 C8.665,20.409 8.767,19.937 9.052,19.574 C9.336,19.212 9.770,19.000 10.231,19.000 C10.231,19.000 61.221,19.000 61.221,19.000 C61.736,19.000 62.216,19.265 62.490,19.701 C62.765,20.138 62.796,20.684 62.573,21.149 C62.573,21.149 52.972,41.149 52.972,41.149 C52.722,41.669 52.196,42.000 51.619,42.000 ZM16.309,39.000 C16.309,39.000 50.676,39.000 50.676,39.000 C50.676,39.000 58.837,22.000 58.837,22.000 C58.837,22.000 12.144,22.000 12.144,22.000 C12.144,22.000 16.309,39.000 16.309,39.000 Z" id="path-6" class="cls-8" fill-rule="evenodd"/>
    <path d="M60.812,52.000 C60.812,52.000 56.312,52.000 56.312,52.000 C55.484,52.000 54.812,51.329 54.812,50.500 C54.812,49.671 55.484,49.000 56.312,49.000 C56.312,49.000 59.312,49.000 59.312,49.000 C59.312,49.000 59.312,42.000 59.312,42.000 C59.312,42.000 16.947,42.000 16.947,42.000 C16.947,42.000 18.291,49.000 18.291,49.000 C18.291,49.000 20.312,49.000 20.312,49.000 C21.141,49.000 21.812,49.671 21.812,50.500 C21.812,51.329 21.141,52.000 20.312,52.000 C20.312,52.000 17.052,52.000 17.052,52.000 C16.332,52.000 15.714,51.489 15.579,50.783 C15.579,50.783 13.659,40.783 13.659,40.783 C13.574,40.343 13.690,39.889 13.976,39.544 C14.261,39.200 14.685,39.000 15.132,39.000 C15.132,39.000 60.812,39.000 60.812,39.000 C61.641,39.000 62.312,39.671 62.312,40.500 C62.312,40.500 62.312,50.500 62.312,50.500 C62.312,51.329 61.641,52.000 60.812,52.000 Z" id="path-7" class="cls-8" fill-rule="evenodd"/>
    <path d="M43.312,52.000 C43.312,52.000 33.312,52.000 33.312,52.000 C32.484,52.000 31.812,51.329 31.812,50.500 C31.812,49.671 32.484,49.000 33.312,49.000 C33.312,49.000 43.312,49.000 43.312,49.000 C44.141,49.000 44.812,49.671 44.812,50.500 C44.812,51.329 44.141,52.000 43.312,52.000 Z" id="path-8" class="cls-8" fill-rule="evenodd"/>
    <path d="M50.370,58.915 C46.366,58.915 43.109,55.658 43.109,51.654 C43.109,47.650 46.366,44.393 50.370,44.393 C54.374,44.393 57.632,47.650 57.632,51.654 C57.632,55.658 54.374,58.915 50.370,58.915 ZM50.370,47.393 C48.020,47.393 46.109,49.304 46.109,51.654 C46.109,54.003 48.020,55.915 50.370,55.915 C52.720,55.915 54.632,54.003 54.632,51.654 C54.632,49.304 52.720,47.393 50.370,47.393 Z" id="path-9" class="cls-8" fill-rule="evenodd"/>
    <path d="M27.278,58.915 C23.274,58.915 20.017,55.658 20.017,51.654 C20.017,47.650 23.274,44.393 27.278,44.393 C31.282,44.393 34.539,47.650 34.539,51.654 C34.539,55.658 31.282,58.915 27.278,58.915 ZM27.278,47.393 C24.929,47.393 23.017,49.304 23.017,51.654 C23.017,54.003 24.929,55.915 27.278,55.915 C29.628,55.915 31.539,54.003 31.539,51.654 C31.539,49.304 29.628,47.393 27.278,47.393 Z" id="path-10" class="cls-8" fill-rule="evenodd"/>
    <path d="M17.051,51.194 C16.375,51.194 15.761,50.734 15.594,50.048 C15.594,50.048 6.005,10.606 6.005,10.606 C5.785,10.382 5.158,9.975 4.477,9.975 C3.643,9.975 2.990,10.665 2.990,11.546 C2.990,12.088 3.256,12.588 3.702,12.884 C4.392,13.342 4.580,14.273 4.122,14.963 C3.663,15.654 2.734,15.841 2.042,15.383 C0.758,14.530 -0.010,13.096 -0.010,11.546 C-0.010,9.025 2.003,6.975 4.477,6.975 C6.573,6.975 8.705,8.432 8.931,9.942 C8.931,9.942 18.510,49.339 18.510,49.339 C18.705,50.145 18.211,50.955 17.406,51.151 C17.287,51.180 17.168,51.194 17.051,51.194 Z" id="path-11" class="cls-8" fill-rule="evenodd"/>
    <path d="M53.371,21.614 C52.795,21.614 52.246,21.281 51.998,20.721 C51.998,20.721 47.577,10.725 47.577,10.725 C47.577,10.725 39.079,14.638 39.079,14.638 C39.079,14.638 41.564,19.422 41.564,19.422 C41.946,20.158 41.660,21.063 40.925,21.445 C40.191,21.826 39.283,21.541 38.902,20.805 C38.902,20.805 35.691,14.624 35.691,14.624 C35.502,14.260 35.471,13.834 35.603,13.446 C35.736,13.059 36.022,12.742 36.395,12.570 C36.395,12.570 47.706,7.363 47.706,7.363 C48.069,7.195 48.487,7.180 48.863,7.323 C49.239,7.465 49.542,7.751 49.705,8.119 C49.705,8.119 54.742,19.507 54.742,19.507 C55.077,20.265 54.734,21.150 53.977,21.485 C53.779,21.573 53.573,21.614 53.371,21.614 Z" id="path-12" class="cls-8" fill-rule="evenodd"/>
    <path d="M31.997,21.000 C31.997,21.000 19.812,21.000 19.812,21.000 C18.984,21.000 18.312,20.329 18.312,19.500 C18.312,19.500 18.312,9.561 18.312,9.561 C18.312,8.833 18.835,8.210 19.552,8.083 C19.552,8.083 34.977,5.357 34.977,5.357 C35.477,5.268 35.991,5.440 36.337,5.814 C36.684,6.188 36.816,6.712 36.690,7.206 C36.690,7.206 33.450,19.872 33.450,19.872 C33.280,20.536 32.683,21.000 31.997,21.000 ZM21.312,18.000 C21.312,18.000 30.832,18.000 30.832,18.000 C30.832,18.000 33.207,8.716 33.207,8.716 C33.207,8.716 21.312,10.819 21.312,10.819 C21.312,10.819 21.312,18.000 21.312,18.000 Z" id="path-13" class="cls-8" fill-rule="evenodd"/>
    <path d="M36.812,12.500 C35.984,12.500 35.312,11.829 35.312,11.000 C35.312,11.000 35.312,3.000 35.312,3.000 C35.312,3.000 25.312,3.000 25.312,3.000 C25.312,3.000 25.312,7.000 25.312,7.000 C25.312,7.829 24.641,8.500 23.812,8.500 C22.984,8.500 22.312,7.829 22.312,7.000 C22.312,7.000 22.312,1.500 22.312,1.500 C22.312,0.671 22.984,-0.000 23.812,-0.000 C23.812,-0.000 36.812,-0.000 36.812,-0.000 C37.641,-0.000 38.312,0.671 38.312,1.500 C38.312,1.500 38.312,11.000 38.312,11.000 C38.312,11.829 37.641,12.500 36.812,12.500 Z" id="path-14" class="cls-8" fill-rule="evenodd"/>
  </g>
</svg>
