<svg xmlns="http://www.w3.org/2000/svg" xmlns:xlink="http://www.w3.org/1999/xlink" preserveAspectRatio="xMidYMid" width="67" height="62" viewBox="0 0 67 62">
  <defs>
    <style>

      .cls-3 {
        fill: #edc951;
      }

      .cls-4 {
        fill: #000000;
      }
    </style>
  </defs>
  <g id="group-24svg">
    <path d="M48.877,62.000 C48.877,62.000 24.148,62.000 24.148,62.000 C19.403,62.000 15.209,58.760 13.794,54.231 C13.794,54.231 7.015,32.810 7.015,32.810 C4.831,25.824 10.050,19.000 17.368,19.000 C17.368,19.000 55.657,19.000 55.657,19.000 C62.976,19.000 68.194,25.746 66.012,32.731 C66.012,32.731 59.231,54.407 59.231,54.407 C57.816,58.936 53.622,62.000 48.877,62.000 Z" id="path-1" class="cls-3" fill-rule="evenodd"/>
    <path d="M43.878,60.000 C43.878,60.000 19.148,60.000 19.148,60.000 C13.700,60.000 8.964,56.555 7.362,51.429 C7.362,51.429 0.584,29.885 0.584,29.885 C-0.592,26.125 0.062,22.166 2.376,19.018 C4.721,15.829 8.362,14.000 12.368,14.000 C12.368,14.000 50.657,14.000 50.657,14.000 C54.651,14.000 58.289,15.831 60.636,19.023 C62.962,22.186 63.620,26.161 62.443,29.929 C62.443,29.929 55.662,51.483 55.662,51.483 C54.070,56.576 49.335,60.000 43.878,60.000 ZM12.368,17.000 C9.327,17.000 6.566,18.383 4.793,20.795 C3.051,23.165 2.560,26.151 3.446,28.987 C3.446,28.987 10.225,50.531 10.225,50.531 C11.435,54.401 15.020,57.000 19.148,57.000 C19.148,57.000 43.878,57.000 43.878,57.000 C48.016,57.000 51.601,54.422 52.800,50.585 C52.800,50.585 59.581,29.031 59.581,29.031 C60.470,26.187 59.974,23.186 58.219,20.800 C56.443,18.385 53.687,17.000 50.657,17.000 C50.657,17.000 12.368,17.000 12.368,17.000 Z" id="path-2" class="cls-4" fill-rule="evenodd"/>
    <path d="M46.594,16.500 C45.766,16.500 45.094,15.829 45.094,15.000 C45.094,15.000 45.094,9.500 45.094,9.500 C45.094,5.916 42.178,3.000 38.594,3.000 C38.594,3.000 23.594,3.000 23.594,3.000 C20.010,3.000 17.094,5.916 17.094,9.500 C17.094,9.500 17.094,15.000 17.094,15.000 C17.094,15.829 16.422,16.500 15.594,16.500 C14.766,16.500 14.094,15.829 14.094,15.000 C14.094,15.000 14.094,9.500 14.094,9.500 C14.094,4.262 18.355,-0.000 23.594,-0.000 C23.594,-0.000 38.594,-0.000 38.594,-0.000 C43.832,-0.000 48.094,4.262 48.094,9.500 C48.094,9.500 48.094,15.000 48.094,15.000 C48.094,15.829 47.422,16.500 46.594,16.500 Z" id="path-3" class="cls-4" fill-rule="evenodd"/>
    <path d="M32.533,35.000 C33.025,35.000 33.447,34.955 33.803,34.667 C34.157,34.379 34.334,34.015 34.334,33.477 C34.334,33.065 34.193,32.738 33.910,32.441 C33.628,32.146 33.246,32.010 32.766,32.010 C32.440,32.010 32.172,32.061 31.962,32.151 C31.750,32.242 31.584,32.364 31.461,32.515 C31.339,32.664 31.222,32.857 31.113,33.093 C31.004,33.326 30.904,33.549 30.812,33.757 C30.760,33.869 30.664,33.958 30.524,34.022 C30.387,34.086 30.227,34.119 30.045,34.119 C29.832,34.119 29.635,34.032 29.457,33.858 C29.277,33.685 29.188,33.454 29.188,33.165 C29.188,32.889 29.272,32.596 29.440,32.290 C29.608,31.983 29.853,31.690 30.177,31.414 C30.499,31.135 30.900,30.913 31.381,30.746 C31.861,30.577 32.397,30.492 32.989,30.492 C33.508,30.492 33.979,30.563 34.406,30.705 C34.834,30.847 35.204,31.050 35.519,31.318 C35.834,31.583 36.071,31.894 36.231,32.246 C36.391,32.598 36.471,32.976 36.471,33.383 C36.471,33.916 36.355,34.373 36.123,34.754 C35.892,35.137 35.559,35.509 35.127,35.871 C35.543,36.095 35.893,36.351 36.180,36.639 C36.464,36.927 36.679,37.247 36.823,37.597 C36.968,37.944 37.039,38.322 37.039,38.729 C37.039,39.213 36.942,39.683 36.748,40.137 C36.553,40.590 36.267,40.995 35.887,41.350 C35.509,41.704 35.059,41.983 34.539,42.182 C34.018,42.383 33.443,42.481 32.813,42.481 C32.174,42.481 31.601,42.367 31.093,42.138 C30.586,41.907 30.169,41.622 29.841,41.278 C29.513,40.933 29.265,40.577 29.097,40.208 C28.929,39.840 28.844,39.536 28.844,39.296 C28.844,38.987 28.944,38.738 29.145,38.548 C29.345,38.358 29.594,38.265 29.893,38.265 C30.042,38.265 30.186,38.308 30.324,38.397 C30.464,38.484 30.555,38.589 30.597,38.713 C30.874,39.454 31.172,40.005 31.489,40.366 C31.807,40.725 32.253,40.906 32.829,40.906 C33.161,40.906 33.478,40.823 33.786,40.661 C34.093,40.499 34.347,40.256 34.547,39.936 C34.747,39.616 34.847,39.246 34.847,38.825 C34.847,38.201 34.676,37.711 34.334,37.357 C33.993,37.000 33.518,36.824 32.909,36.824 C32.803,36.824 32.638,36.833 32.413,36.856 C32.189,36.876 32.045,36.888 31.981,36.888 C31.688,36.888 31.461,36.815 31.301,36.668 C31.141,36.520 31.061,36.316 31.061,36.056 C31.061,35.800 31.157,35.492 31.349,35.337 C31.541,35.179 31.827,35.000 32.205,35.000 C32.205,35.000 32.533,35.000 32.533,35.000 Z" id="path-4" class="cls-4" fill-rule="evenodd"/>
  </g>
</svg>
