<svg xmlns="http://www.w3.org/2000/svg" xmlns:xlink="http://www.w3.org/1999/xlink" preserveAspectRatio="xMidYMid" width="68" height="58" viewBox="0 0 68 58">
  <defs>
    <style>

      .cls-3 {
        fill: #8b71b5;
      }

      .cls-4 {
        fill: #e56a77;
      }

      .cls-5 {
        fill: #edc951;
      }

      .cls-7 {
        fill: #53ecf4;
      }

      .cls-8 {
        fill: #000000;
      }
    </style>
  </defs>
  <g id="group-1svg">
    <path d="M63.812,51.000 C63.812,51.000 66.812,51.000 66.812,51.000 C66.812,51.000 66.812,41.000 66.812,41.000 C66.812,41.000 21.132,41.000 21.132,41.000 C21.132,41.000 23.052,51.000 23.052,51.000 C23.052,51.000 26.812,51.000 26.812,51.000 C26.812,51.000 26.812,51.000 26.812,51.000 " id="path-1" class="cls-3" fill-rule="evenodd"/>
    <path d="M21.132,41.000 C21.132,41.000 57.619,41.000 57.619,41.000 C57.619,41.000 67.221,21.000 67.221,21.000 C67.221,21.000 16.231,21.000 16.231,21.000 C16.231,21.000 21.132,41.000 21.132,41.000 Z" id="path-2" class="cls-4" fill-rule="evenodd"/>
    <path d="M62.132,51.474 C62.132,54.656 59.553,57.235 56.371,57.235 C53.188,57.235 50.609,54.656 50.609,51.474 C50.609,48.292 53.188,45.713 56.371,45.713 C59.553,45.713 62.132,48.292 62.132,51.474 Z" id="path-3" class="cls-5" fill-rule="evenodd"/>
    <path d="M39.039,51.474 C39.039,54.656 36.460,57.235 33.278,57.235 C30.097,57.235 27.517,54.656 27.517,51.474 C27.517,48.292 30.097,45.713 33.278,45.713 C36.460,45.713 39.039,48.292 39.039,51.474 Z" id="path-4" class="cls-5" fill-rule="evenodd"/>
    <path d="M31.268,13.250 C31.268,13.250 37.947,2.825 37.947,2.825 C38.924,1.362 41.064,1.122 42.080,2.558 C42.080,2.558 49.151,13.301 49.151,13.301 C50.326,14.962 49.139,18.000 47.103,18.000 C47.103,18.000 44.812,18.000 44.812,18.000 C44.812,18.000 44.812,28.736 44.812,28.736 C44.812,29.286 44.394,30.000 43.844,30.000 C43.844,30.000 37.844,30.000 37.844,30.000 C37.292,30.000 36.812,29.289 36.812,28.736 C36.812,28.736 36.812,18.000 36.812,18.000 C36.812,18.000 33.353,18.000 33.353,18.000 C31.350,18.000 30.155,14.917 31.268,13.250 Z" id="path-5" class="cls-7" fill-rule="evenodd"/>
    <path d="M51.619,41.000 C51.619,41.000 15.132,41.000 15.132,41.000 C14.440,41.000 13.840,40.528 13.675,39.857 C13.675,39.857 8.774,19.857 8.774,19.857 C8.665,19.409 8.767,18.937 9.052,18.574 C9.336,18.212 9.770,18.000 10.231,18.000 C10.231,18.000 21.812,18.000 21.812,18.000 C22.641,18.000 23.312,18.671 23.312,19.500 C23.312,20.329 22.641,21.000 21.812,21.000 C21.812,21.000 12.144,21.000 12.144,21.000 C12.144,21.000 16.309,38.000 16.309,38.000 C16.309,38.000 50.676,38.000 50.676,38.000 C50.676,38.000 58.837,21.000 58.837,21.000 C58.837,21.000 48.812,21.000 48.812,21.000 C47.984,21.000 47.312,20.329 47.312,19.500 C47.312,18.671 47.984,18.000 48.812,18.000 C48.812,18.000 61.221,18.000 61.221,18.000 C61.736,18.000 62.216,18.265 62.490,18.701 C62.765,19.138 62.796,19.684 62.573,20.149 C62.573,20.149 52.972,40.149 52.972,40.149 C52.722,40.669 52.196,41.000 51.619,41.000 Z" id="path-6" class="cls-8" fill-rule="evenodd"/>
    <path d="M61.312,52.000 C61.312,52.000 57.812,52.000 57.812,52.000 C56.984,52.000 56.312,51.329 56.312,50.500 C56.312,49.671 56.984,49.000 57.812,49.000 C57.812,49.000 59.812,49.000 59.812,49.000 C59.812,49.000 59.812,41.000 59.812,41.000 C59.812,41.000 16.916,41.000 16.916,41.000 C16.916,41.000 18.312,49.000 18.312,49.000 C18.312,49.000 20.812,49.000 20.812,49.000 C21.641,49.000 22.312,49.671 22.312,50.500 C22.312,51.329 21.641,52.000 20.812,52.000 C20.812,52.000 17.052,52.000 17.052,52.000 C16.323,52.000 15.699,51.476 15.574,50.758 C15.574,50.758 13.654,39.758 13.654,39.758 C13.578,39.321 13.698,38.874 13.983,38.535 C14.269,38.196 14.688,38.000 15.132,38.000 C15.132,38.000 61.312,38.000 61.312,38.000 C62.141,38.000 62.812,38.671 62.812,39.500 C62.812,39.500 62.812,50.500 62.812,50.500 C62.812,51.329 62.141,52.000 61.312,52.000 Z" id="path-7" class="cls-8" fill-rule="evenodd"/>
    <path d="M43.812,52.000 C43.812,52.000 33.812,52.000 33.812,52.000 C32.984,52.000 32.312,51.329 32.312,50.500 C32.312,49.671 32.984,49.000 33.812,49.000 C33.812,49.000 43.812,49.000 43.812,49.000 C44.641,49.000 45.312,49.671 45.312,50.500 C45.312,51.329 44.641,52.000 43.812,52.000 Z" id="path-8" class="cls-8" fill-rule="evenodd"/>
    <path d="M50.370,57.947 C46.366,57.947 43.109,54.690 43.109,50.686 C43.109,46.683 46.366,43.425 50.370,43.425 C54.374,43.425 57.632,46.683 57.632,50.686 C57.632,54.690 54.374,57.947 50.370,57.947 ZM50.370,46.425 C48.021,46.425 46.109,48.336 46.109,50.686 C46.109,53.036 48.021,54.947 50.370,54.947 C52.720,54.947 54.632,53.036 54.632,50.686 C54.632,48.336 52.720,46.425 50.370,46.425 Z" id="path-9" class="cls-8" fill-rule="evenodd"/>
    <path d="M27.278,57.947 C23.274,57.947 20.017,54.690 20.017,50.686 C20.017,46.683 23.274,43.425 27.278,43.425 C31.282,43.425 34.539,46.683 34.539,50.686 C34.539,54.690 31.282,57.947 27.278,57.947 ZM27.278,46.425 C24.929,46.425 23.017,48.336 23.017,50.686 C23.017,53.036 24.929,54.947 27.278,54.947 C29.628,54.947 31.539,53.036 31.539,50.686 C31.539,48.336 29.628,46.425 27.278,46.425 Z" id="path-10" class="cls-8" fill-rule="evenodd"/>
    <path d="M17.051,51.226 C16.375,51.226 15.761,50.766 15.594,50.080 C15.594,50.080 5.992,10.589 5.992,10.589 C5.965,10.473 5.950,10.354 5.950,10.234 C5.950,9.569 5.275,9.008 4.478,9.008 C3.644,9.008 2.990,9.698 2.990,10.579 C2.990,11.121 3.256,11.621 3.702,11.916 C4.392,12.374 4.580,13.305 4.122,13.996 C3.664,14.686 2.734,14.874 2.042,14.416 C0.758,13.562 -0.010,12.128 -0.010,10.579 C-0.010,8.058 2.003,6.008 4.478,6.008 C6.873,6.008 8.834,7.796 8.945,10.034 C8.945,10.034 18.510,49.371 18.510,49.371 C18.705,50.176 18.211,50.987 17.406,51.183 C17.287,51.212 17.168,51.226 17.051,51.226 Z" id="path-11" class="cls-8" fill-rule="evenodd"/>
    <path d="M39.342,31.000 C39.342,31.000 33.342,31.000 33.342,31.000 C31.852,31.000 30.812,30.069 30.812,28.736 C30.812,28.736 30.812,19.000 30.812,19.000 C30.812,19.000 28.851,19.000 28.851,19.000 C27.440,19.000 26.159,18.176 25.421,16.796 C24.612,15.283 24.650,13.466 25.518,12.167 C25.518,12.167 32.186,1.884 32.186,1.884 C32.975,0.702 34.267,0.006 35.651,0.006 C36.924,0.006 38.072,0.598 38.802,1.629 C38.802,1.629 45.894,12.184 45.894,12.184 C46.778,13.434 46.857,15.238 46.075,16.751 C45.346,18.159 44.048,19.000 42.602,19.000 C42.602,19.000 41.812,19.000 41.812,19.000 C41.812,19.000 41.812,28.736 41.812,28.736 C41.812,30.069 40.797,31.000 39.342,31.000 ZM33.812,27.997 C33.812,27.997 38.812,28.000 38.812,28.000 C38.812,28.000 38.812,16.000 38.812,16.000 C38.812,16.000 42.602,16.000 42.602,16.000 C43.051,16.000 43.334,15.520 43.410,15.372 C43.675,14.860 43.681,14.250 43.424,13.887 C43.424,13.887 36.332,3.332 36.332,3.332 C36.145,3.067 35.856,3.006 35.651,3.006 C35.357,3.006 34.951,3.144 34.691,3.533 C34.691,3.533 28.024,13.817 28.024,13.817 C27.764,14.207 27.786,14.858 28.067,15.382 C28.144,15.527 28.430,16.000 28.851,16.000 C28.851,16.000 33.812,16.000 33.812,16.000 C33.812,16.000 33.812,27.997 33.812,27.997 Z" id="path-12" class="cls-8" fill-rule="evenodd"/>
  </g>
</svg>
