<svg xmlns="http://www.w3.org/2000/svg" xmlns:xlink="http://www.w3.org/1999/xlink" preserveAspectRatio="xMidYMid" width="66" height="44" viewBox="0 0 66 44">
  <defs>
    <style>

      .cls-3 {
        fill: #81bda4;
      }

      .cls-4 {
        fill: #edc951;
      }

      .cls-6 {
        fill: #000000;
      }
    </style>
  </defs>
  <g id="group-15svg">
    <path d="M66.000,35.000 C66.000,39.418 62.418,43.000 58.000,43.000 C58.000,43.000 14.000,43.000 14.000,43.000 C9.582,43.000 6.000,39.418 6.000,35.000 C6.000,35.000 6.000,13.000 6.000,13.000 C6.000,8.582 9.582,5.000 14.000,5.000 C14.000,5.000 58.000,5.000 58.000,5.000 C62.418,5.000 66.000,8.582 66.000,13.000 C66.000,13.000 66.000,35.000 66.000,35.000 Z" id="path-1" class="cls-3" fill-rule="evenodd"/>
    <path d="M52.846,5.024 C52.846,5.024 53.000,19.525 66.000,18.125 C66.000,18.125 66.000,12.952 66.000,12.952 C66.000,8.492 62.478,4.893 58.018,4.953 C58.018,4.953 52.846,5.024 52.846,5.024 Z" id="path-2" class="cls-4" fill-rule="evenodd"/>
    <path d="M18.654,43.272 C18.654,43.272 18.000,28.771 5.000,30.171 C5.000,30.171 5.000,35.344 5.000,35.344 C5.000,39.805 8.772,43.403 13.232,43.344 C13.232,43.344 18.654,43.272 18.654,43.272 Z" id="path-3" class="cls-4" fill-rule="evenodd"/>
    <path d="M53.500,41.000 C53.500,41.000 9.500,41.000 9.500,41.000 C4.262,41.000 -0.000,36.738 -0.000,31.500 C-0.000,31.500 -0.000,9.500 -0.000,9.500 C-0.000,4.262 4.262,-0.000 9.500,-0.000 C9.500,-0.000 53.500,-0.000 53.500,-0.000 C58.738,-0.000 63.000,4.262 63.000,9.500 C63.000,9.500 63.000,31.500 63.000,31.500 C63.000,36.738 58.738,41.000 53.500,41.000 ZM9.500,3.000 C5.916,3.000 3.000,5.916 3.000,9.500 C3.000,9.500 3.000,31.500 3.000,31.500 C3.000,35.084 5.916,38.000 9.500,38.000 C9.500,38.000 53.500,38.000 53.500,38.000 C57.084,38.000 60.000,35.084 60.000,31.500 C60.000,31.500 60.000,9.500 60.000,9.500 C60.000,5.916 57.084,3.000 53.500,3.000 C53.500,3.000 9.500,3.000 9.500,3.000 Z" id="path-4" class="cls-6" fill-rule="evenodd"/>
    <path d="M59.784,16.720 C59.783,16.720 59.783,16.720 59.783,16.720 C49.676,16.720 46.738,7.134 46.596,2.066 C46.585,1.665 46.735,1.275 47.013,0.985 C47.291,0.696 47.674,0.530 48.076,0.524 C48.076,0.524 53.502,0.452 53.502,0.452 C58.739,0.452 63.000,4.714 63.000,9.952 C63.000,9.952 63.000,15.125 63.000,15.125 C63.000,15.892 62.422,16.534 61.661,16.617 C61.020,16.686 60.389,16.720 59.784,16.720 ZM49.745,3.502 C50.212,6.687 52.113,13.720 59.783,13.720 C59.783,13.720 59.784,13.720 59.784,13.720 C59.855,13.720 59.927,13.720 60.000,13.719 C60.000,13.719 60.000,9.952 60.000,9.952 C60.000,6.368 57.085,3.452 53.502,3.452 C53.502,3.452 49.745,3.502 49.745,3.502 Z" id="path-5" class="cls-6" fill-rule="evenodd"/>
    <path d="M9.498,40.844 C4.261,40.844 -0.000,36.583 -0.000,31.344 C-0.000,31.344 -0.000,26.171 -0.000,26.171 C-0.000,25.405 0.578,24.762 1.339,24.680 C1.979,24.611 2.611,24.576 3.217,24.576 C13.323,24.576 16.262,34.162 16.404,39.230 C16.415,39.632 16.265,40.021 15.987,40.311 C15.708,40.601 15.326,40.767 14.924,40.772 C14.924,40.772 9.498,40.844 9.498,40.844 ZM3.000,27.578 C3.000,27.578 3.000,31.344 3.000,31.344 C3.000,34.928 5.915,37.844 9.498,37.844 C9.498,37.844 13.255,37.794 13.255,37.794 C12.783,34.579 10.850,27.443 3.000,27.578 Z" id="path-6" class="cls-6" fill-rule="evenodd"/>
    <path d="M34.231,29.000 C34.231,29.000 27.000,29.000 27.000,29.000 C26.171,29.000 25.500,28.329 25.500,27.500 C25.500,26.671 26.171,26.000 27.000,26.000 C27.000,26.000 34.231,26.000 34.231,26.000 C35.207,26.000 36.000,25.254 36.000,24.338 C36.000,23.038 34.413,23.000 34.231,23.000 C34.231,23.000 30.519,23.000 30.519,23.000 C27.728,23.000 26.000,20.354 26.000,17.902 C26.000,17.902 26.000,17.267 26.000,17.267 C26.000,14.715 27.816,13.000 30.519,13.000 C30.519,13.000 37.000,13.000 37.000,13.000 C37.829,13.000 38.500,13.671 38.500,14.500 C38.500,15.329 37.829,16.000 37.000,16.000 C37.000,16.000 30.519,16.000 30.519,16.000 C29.000,16.000 29.000,16.921 29.000,17.267 C29.000,17.267 29.000,17.902 29.000,17.902 C29.000,18.893 29.649,20.000 30.519,20.000 C30.519,20.000 34.231,20.000 34.231,20.000 C36.995,20.000 39.000,21.822 39.000,24.332 C39.000,26.909 36.861,29.000 34.231,29.000 Z" id="path-7" class="cls-6" fill-rule="evenodd"/>
    <path d="M32.500,32.500 C31.671,32.500 31.000,31.829 31.000,31.000 C31.000,31.000 31.000,10.000 31.000,10.000 C31.000,9.171 31.671,8.500 32.500,8.500 C33.329,8.500 34.000,9.171 34.000,10.000 C34.000,10.000 34.000,31.000 34.000,31.000 C34.000,31.829 33.329,32.500 32.500,32.500 Z" id="path-8" class="cls-6" fill-rule="evenodd"/>
  </g>
</svg>
