<svg xmlns="http://www.w3.org/2000/svg" xmlns:xlink="http://www.w3.org/1999/xlink" preserveAspectRatio="xMidYMid" width="67" height="53" viewBox="0 0 67 53">
  <defs>
    <style>

      .cls-3 {
        fill: #8b71b5;
      }

      .cls-4 {
        fill: #e56a77;
      }

      .cls-5 {
        fill: #edc951;
      }

      .cls-7 {
        fill: #000000;
      }
    </style>
  </defs>
  <g id="group-4svg">
    <path d="M62.937,45.625 C62.937,45.625 65.937,45.625 65.937,45.625 C65.937,45.625 65.937,35.625 65.937,35.625 C65.937,35.625 20.133,35.625 20.133,35.625 C20.133,35.625 22.053,45.625 22.053,45.625 C22.053,45.625 25.937,45.625 25.937,45.625 C25.937,45.625 25.937,45.625 25.937,45.625 " id="path-1" class="cls-3" fill-rule="evenodd"/>
    <path d="M20.133,35.625 C20.133,35.625 56.620,35.625 56.620,35.625 C56.620,35.625 66.222,15.625 66.222,15.625 C66.222,15.625 15.232,15.625 15.232,15.625 C15.232,15.625 20.133,35.625 20.133,35.625 Z" id="path-2" class="cls-4" fill-rule="evenodd"/>
    <path d="M61.133,46.665 C61.133,49.847 58.554,52.426 55.372,52.426 C52.189,52.426 49.610,49.847 49.610,46.665 C49.610,43.483 52.189,40.904 55.372,40.904 C58.554,40.904 61.133,43.483 61.133,46.665 Z" id="path-3" class="cls-5" fill-rule="evenodd"/>
    <path d="M38.040,46.665 C38.040,49.847 35.461,52.426 32.279,52.426 C29.098,52.426 26.518,49.847 26.518,46.665 C26.518,43.483 29.098,40.904 32.279,40.904 C35.461,40.904 38.040,43.483 38.040,46.665 Z" id="path-4" class="cls-5" fill-rule="evenodd"/>
    <path d="M51.620,34.625 C51.620,34.625 15.133,34.625 15.133,34.625 C14.441,34.625 13.841,34.153 13.676,33.482 C13.676,33.482 8.775,13.482 8.775,13.482 C8.666,13.034 8.768,12.562 9.053,12.199 C9.337,11.837 9.771,11.625 10.232,11.625 C10.232,11.625 61.222,11.625 61.222,11.625 C61.737,11.625 62.217,11.890 62.491,12.326 C62.766,12.763 62.797,13.309 62.574,13.774 C62.574,13.774 52.973,33.774 52.973,33.774 C52.723,34.294 52.197,34.625 51.620,34.625 ZM16.310,31.625 C16.310,31.625 50.677,31.625 50.677,31.625 C50.677,31.625 58.838,14.625 58.838,14.625 C58.838,14.625 12.145,14.625 12.145,14.625 C12.145,14.625 16.310,31.625 16.310,31.625 Z" id="path-5" class="cls-7" fill-rule="evenodd"/>
    <path d="M61.437,44.625 C61.437,44.625 56.937,44.625 56.937,44.625 C56.109,44.625 55.437,43.954 55.437,43.125 C55.437,42.296 56.109,41.625 56.937,41.625 C56.937,41.625 59.937,41.625 59.937,41.625 C59.937,41.625 59.937,34.625 59.937,34.625 C59.937,34.625 16.948,34.625 16.948,34.625 C16.948,34.625 18.292,41.625 18.292,41.625 C18.292,41.625 20.937,41.625 20.937,41.625 C21.766,41.625 22.437,42.296 22.437,43.125 C22.437,43.954 21.766,44.625 20.937,44.625 C20.937,44.625 17.053,44.625 17.053,44.625 C16.333,44.625 15.715,44.114 15.580,43.408 C15.580,43.408 13.660,33.408 13.660,33.408 C13.575,32.968 13.691,32.514 13.977,32.169 C14.262,31.825 14.686,31.625 15.133,31.625 C15.133,31.625 61.437,31.625 61.437,31.625 C62.266,31.625 62.937,32.296 62.937,33.125 C62.937,33.125 62.937,43.125 62.937,43.125 C62.937,43.954 62.266,44.625 61.437,44.625 Z" id="path-6" class="cls-7" fill-rule="evenodd"/>
    <path d="M43.937,44.625 C43.937,44.625 33.937,44.625 33.937,44.625 C33.109,44.625 32.437,43.954 32.437,43.125 C32.437,42.296 33.109,41.625 33.937,41.625 C33.937,41.625 43.937,41.625 43.937,41.625 C44.766,41.625 45.437,42.296 45.437,43.125 C45.437,43.954 44.766,44.625 43.937,44.625 Z" id="path-7" class="cls-7" fill-rule="evenodd"/>
    <path d="M50.372,51.926 C46.368,51.926 43.110,48.669 43.110,44.665 C43.110,40.661 46.368,37.404 50.372,37.404 C54.376,37.404 57.633,40.661 57.633,44.665 C57.633,48.669 54.376,51.926 50.372,51.926 ZM50.372,40.404 C48.022,40.404 46.110,42.315 46.110,44.665 C46.110,47.015 48.022,48.926 50.372,48.926 C52.722,48.926 54.633,47.015 54.633,44.665 C54.633,42.315 52.722,40.404 50.372,40.404 Z" id="path-8" class="cls-7" fill-rule="evenodd"/>
    <path d="M27.279,51.926 C23.275,51.926 20.018,48.669 20.018,44.665 C20.018,40.661 23.275,37.404 27.279,37.404 C31.283,37.404 34.540,40.661 34.540,44.665 C34.540,48.669 31.283,51.926 27.279,51.926 ZM27.279,40.404 C24.930,40.404 23.019,42.315 23.019,44.665 C23.019,47.015 24.930,48.926 27.279,48.926 C29.629,48.926 31.540,47.015 31.540,44.665 C31.540,42.315 29.629,40.404 27.279,40.404 Z" id="path-9" class="cls-7" fill-rule="evenodd"/>
    <path d="M17.052,44.205 C16.376,44.205 15.762,43.745 15.595,43.059 C15.595,43.059 6.006,3.617 6.006,3.617 C5.786,3.394 5.160,2.986 4.479,2.986 C3.644,2.986 2.991,3.676 2.991,4.558 C2.991,5.100 3.257,5.600 3.703,5.895 C4.393,6.354 4.581,7.285 4.122,7.975 C3.665,8.665 2.734,8.853 2.043,8.394 C0.758,7.541 -0.009,6.106 -0.009,4.558 C-0.009,2.037 2.005,-0.014 4.479,-0.014 C6.574,-0.014 8.706,1.443 8.932,2.953 C8.932,2.953 18.511,42.350 18.511,42.350 C18.706,43.155 18.212,43.967 17.407,44.163 C17.288,44.191 17.169,44.205 17.052,44.205 Z" id="path-10" class="cls-7" fill-rule="evenodd"/>
    <path d="M36.120,21.625 C36.572,21.625 36.961,21.892 37.288,21.627 C37.613,21.362 37.776,21.181 37.776,20.686 C37.776,20.308 37.647,20.083 37.387,19.810 C37.127,19.539 36.775,19.452 36.334,19.452 C36.035,19.452 35.788,19.519 35.594,19.601 C35.399,19.686 35.247,19.807 35.134,19.946 C35.020,20.083 34.913,20.266 34.813,20.482 C34.713,20.697 34.621,20.904 34.537,21.096 C34.488,21.199 34.400,21.282 34.271,21.341 C34.145,21.400 33.997,21.430 33.830,21.430 C33.635,21.430 33.453,21.351 33.289,21.191 C33.124,21.031 33.042,20.819 33.042,20.554 C33.042,20.299 33.120,20.030 33.274,19.748 C33.430,19.466 33.654,19.197 33.952,18.942 C34.249,18.686 34.618,18.481 35.060,18.328 C35.502,18.172 35.995,18.095 36.540,18.095 C37.017,18.095 37.451,18.160 37.843,18.290 C38.236,18.420 38.577,18.608 38.866,18.854 C39.157,19.098 39.375,19.384 39.521,19.708 C39.669,20.032 39.743,20.379 39.743,20.754 C39.743,21.244 39.637,21.665 39.423,22.016 C39.210,22.367 38.903,22.710 38.506,23.042 C38.889,23.249 39.212,23.484 39.475,23.750 C39.736,24.015 39.934,24.309 40.066,24.631 C40.199,24.951 40.266,25.298 40.266,25.672 C40.266,26.119 40.176,26.550 39.997,26.968 C39.817,27.385 39.555,27.757 39.205,28.083 C38.857,28.410 38.443,28.666 37.965,28.849 C37.486,29.034 36.957,29.125 36.378,29.125 C35.789,29.125 35.262,29.019 34.795,28.809 C34.329,28.597 33.944,28.334 33.643,28.018 C33.341,27.701 33.112,27.372 32.958,27.034 C32.804,26.695 32.726,26.415 32.726,26.194 C32.726,25.910 32.818,25.681 33.002,25.506 C33.186,25.331 33.416,25.246 33.690,25.246 C33.828,25.246 33.961,25.285 34.088,25.367 C34.216,25.447 34.299,25.544 34.338,25.658 C34.594,26.339 34.867,26.846 35.160,27.179 C35.451,27.509 35.862,27.675 36.393,27.675 C36.697,27.675 36.990,27.600 37.273,27.450 C37.555,27.301 37.788,27.078 37.973,26.783 C38.156,26.489 38.248,26.148 38.248,25.761 C38.248,25.186 38.091,24.736 37.776,24.410 C37.463,24.082 37.025,23.920 36.466,23.920 C36.368,23.920 36.216,23.928 36.010,23.950 C35.804,23.968 35.671,23.979 35.612,23.979 C35.343,23.979 35.134,23.912 34.986,23.777 C34.839,23.640 34.766,23.453 34.766,23.213 C34.766,22.978 34.854,22.387 35.030,22.243 C35.207,22.098 35.470,21.625 35.818,21.625 C35.818,21.625 36.120,21.625 36.120,21.625 Z" id="path-11" class="cls-7" fill-rule="evenodd"/>
  </g>
</svg>
