<svg xmlns="http://www.w3.org/2000/svg" xmlns:xlink="http://www.w3.org/1999/xlink" preserveAspectRatio="xMidYMid" width="65" height="59" viewBox="0 0 65 59">
  <defs>
    <style>

      .cls-3 {
        fill: #99746a;
      }

      .cls-4 {
        fill: #edc951;
      }

      .cls-5 {
        fill: #81bda4;
      }

      .cls-8 {
        fill: #000000;
      }
    </style>
  </defs>
  <g id="group-14svg">
    <path d="M57.125,32.000 C57.125,32.000 57.125,59.000 57.125,59.000 C57.125,59.000 13.125,59.000 13.125,59.000 C13.125,59.000 13.125,32.000 13.125,32.000 C13.125,32.000 13.125,32.000 13.125,32.000 " id="path-1" class="cls-3" fill-rule="evenodd"/>
    <path d="M47.125,33.000 C47.125,33.000 47.125,55.000 47.125,55.000 C47.125,55.000 21.125,55.000 21.125,55.000 C21.125,55.000 21.125,33.000 21.125,33.000 C21.125,33.000 21.125,33.000 21.125,33.000 " id="path-2" class="cls-4" fill-rule="evenodd"/>
    <path d="M65.125,34.959 C65.125,34.959 57.096,19.000 57.096,19.000 C57.096,19.000 13.946,19.000 13.946,19.000 C13.946,19.000 5.486,35.440 5.486,35.440 C5.486,35.440 5.486,35.552 5.645,35.852 C6.246,36.987 9.125,37.935 13.223,37.935 C17.321,37.935 20.643,36.992 20.643,35.706 C20.643,35.408 20.774,35.325 20.774,35.624 C20.774,36.909 24.097,37.830 28.194,37.830 C32.292,37.830 35.614,36.939 35.614,35.654 C35.614,35.355 35.746,35.299 35.746,35.598 C35.746,36.882 39.068,37.816 43.166,37.816 C47.264,37.816 50.586,36.932 50.586,35.647 C50.586,35.349 50.717,35.295 50.717,35.594 C50.717,36.879 53.823,37.815 57.921,37.815 C62.019,37.815 65.125,36.932 65.125,35.646 C65.125,35.348 65.125,34.959 65.125,34.959 Z" id="path-3" class="cls-5" fill-rule="evenodd"/>
    <path d="M46.125,19.000 C46.125,19.000 46.125,11.000 46.125,11.000 C46.125,11.000 34.125,11.000 34.125,11.000 C34.125,11.000 34.125,19.000 34.125,19.000 C34.125,19.000 46.125,19.000 46.125,19.000 Z" id="path-4" class="cls-4" fill-rule="evenodd"/>
    <path d="M49.125,11.000 C49.125,11.000 49.125,5.000 49.125,5.000 C49.125,5.000 30.125,5.000 30.125,5.000 C30.125,5.000 30.125,11.000 30.125,11.000 C30.125,11.000 49.125,11.000 49.125,11.000 Z" id="path-5" class="cls-4" fill-rule="evenodd"/>
    <path d="M53.625,57.000 C53.625,57.000 9.625,57.000 9.625,57.000 C8.796,57.000 8.125,56.329 8.125,55.500 C8.125,55.500 8.125,35.000 8.125,35.000 C8.125,34.171 8.796,33.500 9.625,33.500 C10.454,33.500 11.125,34.171 11.125,35.000 C11.125,35.000 11.125,54.000 11.125,54.000 C11.125,54.000 52.125,54.000 52.125,54.000 C52.125,54.000 52.125,35.000 52.125,35.000 C52.125,34.171 52.796,33.500 53.625,33.500 C54.454,33.500 55.125,34.171 55.125,35.000 C55.125,35.000 55.125,55.500 55.125,55.500 C55.125,56.329 54.454,57.000 53.625,57.000 Z" id="path-6" class="cls-8" fill-rule="evenodd"/>
    <path d="M44.625,51.000 C44.625,51.000 18.625,51.000 18.625,51.000 C17.796,51.000 17.125,50.329 17.125,49.500 C17.125,49.500 17.125,35.000 17.125,35.000 C17.125,34.171 17.796,33.500 18.625,33.500 C19.454,33.500 20.125,34.171 20.125,35.000 C20.125,35.000 20.125,48.000 20.125,48.000 C20.125,48.000 43.125,48.000 43.125,48.000 C43.125,48.000 43.125,35.000 43.125,35.000 C43.125,34.171 43.796,33.500 44.625,33.500 C45.454,33.500 46.125,34.171 46.125,35.000 C46.125,35.000 46.125,49.500 46.125,49.500 C46.125,50.329 45.454,51.000 44.625,51.000 Z" id="path-7" class="cls-8" fill-rule="evenodd"/>
    <path d="M9.223,36.373 C5.672,36.373 1.468,35.600 0.319,33.429 C0.018,32.861 -0.014,32.374 -0.014,32.190 C-0.014,31.955 0.041,31.722 0.148,31.512 C0.148,31.512 8.608,14.822 8.608,14.822 C8.864,14.317 9.381,14.000 9.946,14.000 C9.946,14.000 53.096,14.000 53.096,14.000 C53.657,14.000 54.170,14.312 54.428,14.810 C54.428,14.810 62.957,31.269 62.957,31.269 C63.067,31.482 63.125,31.719 63.125,31.959 C63.125,31.959 63.125,32.646 63.125,32.646 C63.125,36.050 56.272,36.314 54.171,36.314 C52.682,36.314 48.803,36.180 46.671,34.871 C44.556,36.181 40.658,36.316 39.166,36.316 C37.684,36.316 33.825,36.181 31.700,34.875 C29.585,36.187 25.686,36.322 24.194,36.322 C22.718,36.322 18.884,36.188 16.755,34.900 C14.646,36.236 10.721,36.373 9.223,36.373 ZM3.165,32.195 C3.789,32.622 5.735,33.373 9.223,33.373 C12.521,33.373 14.600,32.757 15.164,32.364 C15.417,30.500 17.976,30.456 18.252,32.298 C18.809,32.696 20.890,33.322 24.194,33.322 C27.493,33.322 29.570,32.720 30.136,32.333 C30.393,30.479 32.950,30.442 33.224,32.287 C33.780,32.687 35.861,33.316 39.166,33.316 C42.464,33.316 44.541,32.715 45.107,32.329 C45.365,30.478 47.917,30.440 48.194,32.281 C48.757,32.683 50.851,33.314 54.171,33.314 C57.444,33.314 59.523,32.727 60.125,32.339 C60.125,32.339 60.125,32.325 60.125,32.325 C60.125,32.325 52.184,17.000 52.184,17.000 C52.184,17.000 10.868,17.000 10.868,17.000 C10.868,17.000 3.165,32.195 3.165,32.195 Z" id="path-8" class="cls-8" fill-rule="evenodd"/>
    <path d="M42.625,17.000 C42.625,17.000 30.625,17.000 30.625,17.000 C29.796,17.000 29.125,16.329 29.125,15.500 C29.125,15.500 29.125,7.500 29.125,7.500 C29.125,6.671 29.796,6.000 30.625,6.000 C30.625,6.000 42.625,6.000 42.625,6.000 C43.454,6.000 44.125,6.671 44.125,7.500 C44.125,7.500 44.125,15.500 44.125,15.500 C44.125,16.329 43.454,17.000 42.625,17.000 ZM32.125,14.000 C32.125,14.000 41.125,14.000 41.125,14.000 C41.125,14.000 41.125,9.000 41.125,9.000 C41.125,9.000 32.125,9.000 32.125,9.000 C32.125,9.000 32.125,14.000 32.125,14.000 Z" id="path-9" class="cls-8" fill-rule="evenodd"/>
    <path d="M45.625,9.000 C45.625,9.000 26.625,9.000 26.625,9.000 C25.796,9.000 25.125,8.329 25.125,7.500 C25.125,7.500 25.125,1.500 25.125,1.500 C25.125,0.671 25.796,-0.000 26.625,-0.000 C26.625,-0.000 45.625,-0.000 45.625,-0.000 C46.454,-0.000 47.125,0.671 47.125,1.500 C47.125,1.500 47.125,7.500 47.125,7.500 C47.125,8.329 46.454,9.000 45.625,9.000 ZM28.125,6.000 C28.125,6.000 44.125,6.000 44.125,6.000 C44.125,6.000 44.125,3.000 44.125,3.000 C44.125,3.000 28.125,3.000 28.125,3.000 C28.125,3.000 28.125,6.000 28.125,6.000 Z" id="path-10" class="cls-8" fill-rule="evenodd"/>
  </g>
</svg>
