<svg xmlns="http://www.w3.org/2000/svg" xmlns:xlink="http://www.w3.org/1999/xlink" preserveAspectRatio="xMidYMid" width="67" height="62" viewBox="0 0 67 62">
  <defs>
    <style>

      .cls-3 {
        fill: #edc951;
      }

      .cls-4 {
        fill: #000000;
      }
    </style>
  </defs>
  <g id="group-22svg">
    <path d="M48.866,62.000 C48.866,62.000 24.137,62.000 24.137,62.000 C19.393,62.000 15.198,58.760 13.783,54.231 C13.783,54.231 7.003,32.810 7.003,32.810 C4.820,25.824 10.038,19.000 17.356,19.000 C17.356,19.000 55.645,19.000 55.645,19.000 C62.964,19.000 68.183,25.746 66.000,32.731 C66.000,32.731 59.220,54.407 59.220,54.407 C57.805,58.936 53.610,62.000 48.866,62.000 Z" id="path-1" class="cls-3" fill-rule="evenodd"/>
    <path d="M43.866,60.000 C43.866,60.000 19.137,60.000 19.137,60.000 C13.690,60.000 8.953,56.555 7.351,51.429 C7.351,51.429 0.572,29.885 0.572,29.885 C-0.604,26.125 0.051,22.166 2.364,19.018 C4.709,15.829 8.351,14.000 12.356,14.000 C12.356,14.000 50.645,14.000 50.645,14.000 C54.640,14.000 58.277,15.831 60.624,19.023 C62.950,22.186 63.608,26.161 62.432,29.929 C62.432,29.929 55.650,51.483 55.650,51.483 C54.059,56.576 49.323,60.000 43.866,60.000 ZM12.356,17.000 C9.315,17.000 6.555,18.383 4.781,20.795 C3.039,23.165 2.548,26.151 3.435,28.987 C3.435,28.987 10.213,50.531 10.213,50.531 C11.423,54.401 15.009,57.000 19.137,57.000 C19.137,57.000 43.866,57.000 43.866,57.000 C48.004,57.000 51.589,54.422 52.788,50.585 C52.788,50.585 59.569,29.031 59.569,29.031 C60.458,26.187 59.962,23.186 58.207,20.800 C56.432,18.385 53.676,17.000 50.645,17.000 C50.645,17.000 12.356,17.000 12.356,17.000 Z" id="path-2" class="cls-4" fill-rule="evenodd"/>
    <path d="M46.625,16.500 C45.797,16.500 45.125,15.829 45.125,15.000 C45.125,15.000 45.125,9.500 45.125,9.500 C45.125,5.916 42.209,3.000 38.625,3.000 C38.625,3.000 23.625,3.000 23.625,3.000 C20.041,3.000 17.125,5.916 17.125,9.500 C17.125,9.500 17.125,15.000 17.125,15.000 C17.125,15.829 16.453,16.500 15.625,16.500 C14.797,16.500 14.125,15.829 14.125,15.000 C14.125,15.000 14.125,9.500 14.125,9.500 C14.125,4.262 18.387,-0.000 23.625,-0.000 C23.625,-0.000 38.625,-0.000 38.625,-0.000 C43.863,-0.000 48.125,4.262 48.125,9.500 C48.125,9.500 48.125,15.000 48.125,15.000 C48.125,15.829 47.453,16.500 46.625,16.500 Z" id="path-3" class="cls-4" fill-rule="evenodd"/>
    <path d="M31.703,43.000 C31.688,43.000 31.673,43.000 31.658,43.000 C31.244,43.000 30.854,42.638 30.580,42.329 C30.580,42.329 27.280,38.520 27.280,38.520 C26.731,37.900 26.789,36.910 27.409,36.361 C28.029,35.811 28.977,35.849 29.526,36.468 C29.526,36.468 31.770,38.990 31.770,38.990 C31.770,38.990 38.093,32.662 38.093,32.662 C38.679,32.076 39.628,32.073 40.214,32.659 C40.800,33.245 40.800,34.193 40.214,34.779 C40.214,34.779 32.764,42.395 32.764,42.395 C32.482,42.677 32.101,43.000 31.703,43.000 Z" id="path-4" class="cls-4" fill-rule="evenodd"/>
  </g>
</svg>
