<svg xmlns="http://www.w3.org/2000/svg" xmlns:xlink="http://www.w3.org/1999/xlink" preserveAspectRatio="xMidYMid" width="67" height="53" viewBox="0 0 67 53">
  <defs>
    <style>

      .cls-3 {
        fill: #8b71b5;
      }

      .cls-4 {
        fill: #e56a77;
      }

      .cls-5 {
        fill: #edc951;
      }

      .cls-7 {
        fill: #000000;
      }
    </style>
  </defs>
  <g id="group-7svg">
    <path d="M62.812,45.625 C62.812,45.625 65.812,45.625 65.812,45.625 C65.812,45.625 65.812,35.625 65.812,35.625 C65.812,35.625 20.129,35.625 20.129,35.625 C20.129,35.625 22.049,45.625 22.049,45.625 C22.049,45.625 25.812,45.625 25.812,45.625 C25.812,45.625 25.812,45.625 25.812,45.625 " id="path-1" class="cls-3" fill-rule="evenodd"/>
    <path d="M20.129,35.625 C20.129,35.625 56.616,35.625 56.616,35.625 C56.616,35.625 66.218,15.625 66.218,15.625 C66.218,15.625 15.228,15.625 15.228,15.625 C15.228,15.625 20.129,35.625 20.129,35.625 Z" id="path-2" class="cls-4" fill-rule="evenodd"/>
    <path d="M61.129,46.665 C61.129,49.847 58.550,52.426 55.368,52.426 C52.186,52.426 49.607,49.847 49.607,46.665 C49.607,43.483 52.186,40.904 55.368,40.904 C58.550,40.904 61.129,43.483 61.129,46.665 Z" id="path-3" class="cls-5" fill-rule="evenodd"/>
    <path d="M38.037,46.665 C38.037,49.847 35.457,52.426 32.275,52.426 C29.094,52.426 26.514,49.847 26.514,46.665 C26.514,43.483 29.094,40.904 32.275,40.904 C35.457,40.904 38.037,43.483 38.037,46.665 Z" id="path-4" class="cls-5" fill-rule="evenodd"/>
    <path d="M51.616,34.625 C51.616,34.625 15.129,34.625 15.129,34.625 C14.438,34.625 13.836,34.153 13.672,33.482 C13.672,33.482 8.771,13.482 8.771,13.482 C8.662,13.034 8.764,12.562 9.048,12.199 C9.332,11.837 9.768,11.625 10.228,11.625 C10.228,11.625 61.218,11.625 61.218,11.625 C61.734,11.625 62.213,11.890 62.488,12.326 C62.762,12.763 62.793,13.309 62.570,13.774 C62.570,13.774 52.968,33.774 52.968,33.774 C52.719,34.294 52.193,34.625 51.616,34.625 ZM16.306,31.625 C16.306,31.625 50.672,31.625 50.672,31.625 C50.672,31.625 58.834,14.625 58.834,14.625 C58.834,14.625 12.141,14.625 12.141,14.625 C12.141,14.625 16.306,31.625 16.306,31.625 Z" id="path-5" class="cls-7" fill-rule="evenodd"/>
    <path d="M61.312,44.625 C61.312,44.625 56.812,44.625 56.812,44.625 C55.984,44.625 55.312,43.954 55.312,43.125 C55.312,42.296 55.984,41.625 56.812,41.625 C56.812,41.625 59.812,41.625 59.812,41.625 C59.812,41.625 59.812,34.625 59.812,34.625 C59.812,34.625 16.944,34.625 16.944,34.625 C16.944,34.625 18.289,41.625 18.289,41.625 C18.289,41.625 20.812,41.625 20.812,41.625 C21.641,41.625 22.312,42.296 22.312,43.125 C22.312,43.954 21.641,44.625 20.812,44.625 C20.812,44.625 17.049,44.625 17.049,44.625 C16.330,44.625 15.712,44.114 15.576,43.408 C15.576,43.408 13.656,33.408 13.656,33.408 C13.571,32.968 13.687,32.514 13.973,32.170 C14.257,31.825 14.682,31.625 15.129,31.625 C15.129,31.625 61.312,31.625 61.312,31.625 C62.141,31.625 62.812,32.296 62.812,33.125 C62.812,33.125 62.812,43.125 62.812,43.125 C62.812,43.954 62.141,44.625 61.312,44.625 Z" id="path-6" class="cls-7" fill-rule="evenodd"/>
    <path d="M43.812,44.625 C43.812,44.625 33.812,44.625 33.812,44.625 C32.984,44.625 32.312,43.954 32.312,43.125 C32.312,42.296 32.984,41.625 33.812,41.625 C33.812,41.625 43.812,41.625 43.812,41.625 C44.641,41.625 45.312,42.296 45.312,43.125 C45.312,43.954 44.641,44.625 43.812,44.625 Z" id="path-7" class="cls-7" fill-rule="evenodd"/>
    <path d="M50.368,51.926 C46.364,51.926 43.107,48.669 43.107,44.665 C43.107,40.661 46.364,37.404 50.368,37.404 C54.372,37.404 57.629,40.661 57.629,44.665 C57.629,48.669 54.372,51.926 50.368,51.926 ZM50.368,40.404 C48.018,40.404 46.107,42.315 46.107,44.665 C46.107,47.015 48.018,48.926 50.368,48.926 C52.718,48.926 54.629,47.015 54.629,44.665 C54.629,42.315 52.718,40.404 50.368,40.404 Z" id="path-8" class="cls-7" fill-rule="evenodd"/>
    <path d="M27.275,51.926 C23.271,51.926 20.014,48.669 20.014,44.665 C20.014,40.661 23.271,37.404 27.275,37.404 C31.279,37.404 34.537,40.661 34.537,44.665 C34.537,48.669 31.279,51.926 27.275,51.926 ZM27.275,40.404 C24.926,40.404 23.014,42.315 23.014,44.665 C23.014,47.015 24.926,48.926 27.275,48.926 C29.625,48.926 31.537,47.015 31.537,44.665 C31.537,42.315 29.625,40.404 27.275,40.404 Z" id="path-9" class="cls-7" fill-rule="evenodd"/>
    <path d="M17.048,44.205 C16.376,44.205 15.764,43.750 15.594,43.068 C15.594,43.068 5.992,4.576 5.992,4.576 C5.962,4.457 5.947,4.335 5.947,4.213 C5.947,3.548 5.273,2.986 4.476,2.986 C3.641,2.986 2.987,3.676 2.987,4.558 C2.987,5.100 3.253,5.600 3.699,5.895 C4.389,6.354 4.577,7.285 4.119,7.975 C3.660,8.665 2.729,8.853 2.039,8.394 C0.754,7.541 -0.013,6.106 -0.013,4.558 C-0.013,2.037 2.001,-0.014 4.476,-0.014 C6.869,-0.014 8.829,1.772 8.942,4.008 C8.942,4.008 18.505,42.342 18.505,42.342 C18.705,43.145 18.216,43.959 17.413,44.160 C17.290,44.191 17.168,44.205 17.048,44.205 Z" id="path-10" class="cls-7" fill-rule="evenodd"/>
    <path d="M33.208,29.496 C32.825,29.496 32.441,29.350 32.148,29.057 C31.562,28.471 31.562,27.521 32.148,26.936 C32.148,26.936 39.003,20.081 39.003,20.081 C39.589,19.495 40.538,19.495 41.124,20.081 C41.710,20.666 41.710,21.616 41.124,22.202 C41.124,22.202 34.269,29.057 34.269,29.057 C33.976,29.350 33.592,29.496 33.208,29.496 Z" id="path-11" class="cls-7" fill-rule="evenodd"/>
    <path d="M40.063,29.496 C39.680,29.496 39.296,29.350 39.003,29.057 C39.003,29.057 32.148,22.202 32.148,22.202 C31.562,21.616 31.562,20.666 32.148,20.081 C32.734,19.495 33.683,19.495 34.269,20.081 C34.269,20.081 41.124,26.936 41.124,26.936 C41.710,27.521 41.710,28.471 41.124,29.057 C40.831,29.350 40.447,29.496 40.063,29.496 Z" id="path-12" class="cls-7" fill-rule="evenodd"/>
  </g>
</svg>
