<svg xmlns="http://www.w3.org/2000/svg" xmlns:xlink="http://www.w3.org/1999/xlink" preserveAspectRatio="xMidYMid" width="69" height="55" viewBox="0 0 69 55">
  <defs>
    <style>

      .cls-3 {
        fill: #99746a;
      }

      .cls-4 {
        fill: #ff917b;
      }

      .cls-5 {
        fill: #000000;
      }
    </style>
  </defs>
  <g id="group-19svg">
    <path d="M8.497,40.270 C8.497,47.971 21.928,54.213 38.497,54.213 C55.065,54.213 68.497,47.971 68.497,40.270 C68.497,40.270 68.497,40.270 68.497,40.270 " id="path-1" class="cls-3" fill-rule="evenodd"/>
    <path d="M68.497,23.142 C68.497,33.990 55.065,42.784 38.497,42.784 C21.928,42.784 8.497,33.990 8.497,23.142 C8.497,12.293 21.928,3.499 38.497,3.499 C55.065,3.499 68.497,12.293 68.497,23.142 Z" id="path-2" class="cls-4" fill-rule="evenodd"/>
    <path d="M31.497,42.284 C14.128,42.284 -0.003,32.800 -0.003,21.142 C-0.003,9.483 14.128,-0.001 31.497,-0.001 C48.866,-0.001 62.997,9.483 62.997,21.142 C62.997,32.800 48.866,42.284 31.497,42.284 ZM31.497,2.999 C15.782,2.999 2.997,11.138 2.997,21.142 C2.997,31.145 15.782,39.284 31.497,39.284 C47.212,39.284 59.997,31.145 59.997,21.142 C59.997,11.138 47.212,2.999 31.497,2.999 Z" id="path-3" class="cls-5" fill-rule="evenodd"/>
    <path d="M31.497,53.713 C13.834,53.713 -0.003,46.930 -0.003,38.270 C-0.003,37.442 0.669,36.770 1.497,36.770 C2.325,36.770 2.997,37.442 2.997,38.270 C2.997,45.015 16.049,50.713 31.497,50.713 C46.945,50.713 59.997,45.015 59.997,38.270 C59.997,37.442 60.669,36.770 61.497,36.770 C62.325,36.770 62.997,37.442 62.997,38.270 C62.997,46.930 49.160,53.713 31.497,53.713 Z" id="path-4" class="cls-5" fill-rule="evenodd"/>
    <path d="M33.691,32.150 C27.388,32.150 22.259,27.021 22.259,20.717 C22.259,14.413 27.388,9.284 33.691,9.284 C35.436,9.284 37.113,9.667 38.673,10.424 C39.418,10.785 39.729,11.683 39.368,12.428 C39.008,13.174 38.109,13.484 37.364,13.124 C36.216,12.567 34.979,12.284 33.691,12.284 C29.042,12.284 25.259,16.067 25.259,20.717 C25.259,25.368 29.042,29.150 33.691,29.150 C34.932,29.150 36.125,28.888 37.238,28.371 C37.987,28.023 38.881,28.348 39.230,29.100 C39.579,29.851 39.254,30.743 38.502,31.092 C36.990,31.794 35.371,32.150 33.691,32.150 Z" id="path-5" class="cls-5" fill-rule="evenodd"/>
    <path d="M38.125,17.625 C38.125,17.625 20.125,17.625 20.125,17.625 C19.572,17.625 19.125,17.177 19.125,16.625 C19.125,16.073 19.572,15.625 20.125,15.625 C20.125,15.625 38.125,15.625 38.125,15.625 C38.678,15.625 39.125,16.073 39.125,16.625 C39.125,17.177 38.678,17.625 38.125,17.625 Z" id="path-6" class="cls-5" fill-rule="evenodd"/>
    <path d="M38.125,23.625 C38.125,23.625 20.125,23.625 20.125,23.625 C19.572,23.625 19.125,23.177 19.125,22.625 C19.125,22.073 19.572,21.625 20.125,21.625 C20.125,21.625 38.125,21.625 38.125,21.625 C38.678,21.625 39.125,22.073 39.125,22.625 C39.125,23.177 38.678,23.625 38.125,23.625 Z" id="path-7" class="cls-5" fill-rule="evenodd"/>
  </g>
</svg>
