<svg xmlns="http://www.w3.org/2000/svg" xmlns:xlink="http://www.w3.org/1999/xlink" preserveAspectRatio="xMidYMid" width="69" height="55" viewBox="0 0 69 55">
  <defs>
    <style>

      .cls-3 {
        fill: #99746a;
      }

      .cls-4 {
        fill: #ff917b;
      }

      .cls-5 {
        fill: #000000;
      }
    </style>
  </defs>
  <g id="group-20svg">
    <path d="M8.497,40.270 C8.497,47.971 21.928,54.213 38.497,54.213 C55.065,54.213 68.497,47.971 68.497,40.270 C68.497,40.270 68.497,40.270 68.497,40.270 " id="path-1" class="cls-3" fill-rule="evenodd"/>
    <path d="M68.497,23.142 C68.497,33.990 55.065,42.784 38.497,42.784 C21.928,42.784 8.497,33.990 8.497,23.142 C8.497,12.293 21.928,3.499 38.497,3.499 C55.065,3.499 68.497,12.293 68.497,23.142 Z" id="path-2" class="cls-4" fill-rule="evenodd"/>
    <path d="M31.497,42.284 C14.128,42.284 -0.003,32.800 -0.003,21.142 C-0.003,9.483 14.128,-0.001 31.497,-0.001 C48.866,-0.001 62.997,9.483 62.997,21.142 C62.997,32.800 48.866,42.284 31.497,42.284 ZM31.497,2.999 C15.782,2.999 2.997,11.138 2.997,21.142 C2.997,31.145 15.782,39.284 31.497,39.284 C47.212,39.284 59.997,31.145 59.997,21.142 C59.997,11.138 47.212,2.999 31.497,2.999 Z" id="path-3" class="cls-5" fill-rule="evenodd"/>
    <path d="M31.497,53.713 C13.834,53.713 -0.003,46.930 -0.003,38.270 C-0.003,37.442 0.669,36.770 1.497,36.770 C2.325,36.770 2.997,37.442 2.997,38.270 C2.997,45.015 16.049,50.713 31.497,50.713 C46.945,50.713 59.997,45.015 59.997,38.270 C59.997,37.442 60.669,36.770 61.497,36.770 C62.325,36.770 62.997,37.442 62.997,38.270 C62.997,46.930 49.160,53.713 31.497,53.713 Z" id="path-4" class="cls-5" fill-rule="evenodd"/>
    <path d="M37.125,33.625 C37.125,33.625 23.625,33.625 23.625,33.625 C22.797,33.625 22.125,32.954 22.125,32.125 C22.125,32.125 22.125,29.978 22.125,29.978 C22.125,29.430 22.527,28.926 23.008,28.663 C24.508,27.840 26.125,26.180 26.125,24.329 C26.125,24.329 26.125,24.016 26.125,24.016 C26.125,23.396 26.025,22.907 25.932,22.297 C25.932,22.297 25.612,20.225 25.612,20.225 C25.451,19.271 25.231,17.935 25.231,16.547 C25.231,12.031 28.459,8.754 32.924,8.754 C35.067,8.754 36.476,9.629 37.154,10.049 C37.859,10.485 38.073,11.409 37.637,12.114 C37.201,12.818 36.276,13.036 35.571,12.600 C35.026,12.263 34.203,11.754 32.912,11.754 C30.054,11.754 28.205,13.636 28.205,16.547 C28.205,17.713 28.377,18.891 28.527,19.785 C28.527,19.785 28.901,21.876 28.901,21.876 C29.027,22.682 29.125,23.367 29.125,24.028 C29.125,24.028 29.125,24.329 29.125,24.329 C29.125,27.084 27.188,29.299 25.388,30.625 C25.388,30.625 37.125,30.625 37.125,30.625 C37.953,30.625 38.625,31.296 38.625,32.125 C38.625,32.954 37.953,33.625 37.125,33.625 Z" id="path-5" class="cls-5" fill-rule="evenodd"/>
    <path d="M37.125,23.625 C37.125,23.625 22.125,23.625 22.125,23.625 C21.297,23.625 20.625,22.954 20.625,22.125 C20.625,21.296 21.297,20.625 22.125,20.625 C22.125,20.625 37.125,20.625 37.125,20.625 C37.953,20.625 38.625,21.296 38.625,22.125 C38.625,22.954 37.953,23.625 37.125,23.625 Z" id="path-6" class="cls-5" fill-rule="evenodd"/>
  </g>
</svg>
