<svg xmlns="http://www.w3.org/2000/svg" xmlns:xlink="http://www.w3.org/1999/xlink" preserveAspectRatio="xMidYMid" width="67" height="62" viewBox="0 0 67 62">
  <defs>
    <style>

      .cls-3 {
        fill: #edc951;
      }

      .cls-4 {
        fill: #000000;
      }
    </style>
  </defs>
  <g id="group-26svg">
    <path d="M48.861,62.000 C48.861,62.000 24.132,62.000 24.132,62.000 C19.387,62.000 15.193,58.760 13.778,54.231 C13.778,54.231 6.998,32.810 6.998,32.810 C4.815,25.824 10.034,19.000 17.352,19.000 C17.352,19.000 55.641,19.000 55.641,19.000 C62.959,19.000 68.178,25.746 65.995,32.731 C65.995,32.731 59.215,54.407 59.215,54.407 C57.800,58.936 53.606,62.000 48.861,62.000 Z" id="path-1" class="cls-3" fill-rule="evenodd"/>
    <path d="M43.861,60.000 C43.861,60.000 19.132,60.000 19.132,60.000 C13.685,60.000 8.949,56.555 7.346,51.429 C7.346,51.429 0.567,29.885 0.567,29.885 C-0.608,26.125 0.046,22.166 2.360,19.018 C4.705,15.829 8.346,14.000 12.352,14.000 C12.352,14.000 50.641,14.000 50.641,14.000 C54.636,14.000 58.273,15.831 60.620,19.023 C62.945,22.187 63.604,26.162 62.427,29.929 C62.427,29.929 55.646,51.483 55.646,51.483 C54.055,56.576 49.318,60.000 43.861,60.000 ZM12.352,17.000 C9.311,17.000 6.550,18.383 4.777,20.795 C3.035,23.165 2.543,26.151 3.430,28.987 C3.430,28.987 10.208,50.531 10.208,50.531 C11.418,54.401 15.004,57.000 19.132,57.000 C19.132,57.000 43.861,57.000 43.861,57.000 C47.999,57.000 51.584,54.422 52.784,50.585 C52.784,50.585 59.564,29.031 59.564,29.031 C60.453,26.187 59.957,23.186 58.203,20.800 C56.427,18.385 53.671,17.000 50.641,17.000 C50.641,17.000 12.352,17.000 12.352,17.000 Z" id="path-2" class="cls-4" fill-rule="evenodd"/>
    <path d="M46.625,16.500 C45.796,16.500 45.125,15.829 45.125,15.000 C45.125,15.000 45.125,9.500 45.125,9.500 C45.125,5.916 42.209,3.000 38.625,3.000 C38.625,3.000 23.625,3.000 23.625,3.000 C20.041,3.000 17.125,5.916 17.125,9.500 C17.125,9.500 17.125,15.000 17.125,15.000 C17.125,15.829 16.454,16.500 15.625,16.500 C14.796,16.500 14.125,15.829 14.125,15.000 C14.125,15.000 14.125,9.500 14.125,9.500 C14.125,4.262 18.387,-0.000 23.625,-0.000 C23.625,-0.000 38.625,-0.000 38.625,-0.000 C43.863,-0.000 48.125,4.262 48.125,9.500 C48.125,9.500 48.125,15.000 48.125,15.000 C48.125,15.829 47.454,16.500 46.625,16.500 Z" id="path-3" class="cls-4" fill-rule="evenodd"/>
    <path d="M31.625,43.500 C30.796,43.500 30.125,42.829 30.125,42.000 C30.125,42.000 30.125,31.000 30.125,31.000 C30.125,30.171 30.796,29.500 31.625,29.500 C32.454,29.500 33.125,30.171 33.125,31.000 C33.125,31.000 33.125,42.000 33.125,42.000 C33.125,42.829 32.454,43.500 31.625,43.500 Z" id="path-4" class="cls-4" fill-rule="evenodd"/>
    <path d="M37.125,38.000 C37.125,38.000 26.125,38.000 26.125,38.000 C25.296,38.000 24.625,37.329 24.625,36.500 C24.625,35.671 25.296,35.000 26.125,35.000 C26.125,35.000 37.125,35.000 37.125,35.000 C37.954,35.000 38.625,35.671 38.625,36.500 C38.625,37.329 37.954,38.000 37.125,38.000 Z" id="path-5" class="cls-4" fill-rule="evenodd"/>
  </g>
</svg>
