<?xml version="1.0" encoding="UTF-8" standalone="no"?>
<svg xmlns="http://www.w3.org/2000/svg" width="20" height="20">
  <g>
    <path
       d="m 2.6760827,5.899843 c 0.02919,0.03649 0.06857,0.05049 0.109172,0.07366 0.04376,0.02575 0.07994,0.05399 0.129884,0.06056 0.01142,0.0012 0.01866,0.01262 0.02974,0.01324 0.03789,0.0019 0.06508,-0.02742 0.10037,-0.03678 0.03762,-0.0093 0.07726,0.0015 0.11215,-0.02057 0.0022,-0.0014 0.0055,-0.0034 0.0082,-0.0052 l 1.573754,-1.051887 c 0.170378,-0.113112 0.21617,-0.343554 0.102168,-0.514132 -0.112279,-0.167852 -0.337326,-0.2147675 -0.506846,-0.107539 -0.0027,0.0017 -0.0054,0.0034 -0.0082,0.0052 l -0.887629,0.59351 c 0.439491,-1.8943908 2.146474,-3.3679185 3.997646,-3.2971766 2.1718291,0.085418 3.8711203,1.9212854 3.7867923,4.0924246 0.0036,0.191634 0.174408,0.416198 0.37265,0.415693 0.21446,0.0032 0.372604,-0.212412 0.369432,-0.3875 C 12.064856,3.1541914 10.046606,0.97212243 7.4650327,0.87114233 5.2895877,0.78724833 3.2808497,2.4798846 2.7327577,4.671921 L 2.2150656,3.8981253 C 2.1031879,3.7284934 1.8945556,3.720801 1.7009332,3.7959579 1.5303555,3.9099602 1.4845634,4.1404027 1.5991106,4.310635 l 1.0517901,1.572321 c 0.0057,0.01016 0.01803,0.0092 0.02518,0.01689 z"
       fill="#ffffff" />
    <path
       d="m 18.885302,10.089401 h -1.47983 c -0.208912,0 -0.378077,-0.16965 -0.378077,-0.377592 0,-0.209881 0.169165,-0.378076 0.378077,-0.378076 h 1.101754 V 5.4623246 h -4.920328 v 0.4469059 c 0,0.209881 -0.169165,0.3780766 -0.378076,0.3780766 -0.208912,0 -0.378077,-0.1681956 -0.378077,-0.3780766 V 5.084248 c 0,-0.2084269 0.169165,-0.3780766 0.378077,-0.3780766 h 5.67648 c 0.208912,0 0.378077,0.1696497 0.378077,0.3780766 v 4.627076 c -4.85e-4,0.208427 -0.169165,0.378077 -0.378077,0.378077 z"
       fill="#ffffff" />
    <path
       d="m 16.19356,12.15557 h -5.692298 c -0.209512,0 -0.379162,-0.170623 -0.379162,-0.379163 V 7.1355541 c 0,-0.2090264 0.16965,-0.3791631 0.379162,-0.3791631 h 5.691811 c 0.209511,0 0.379163,0.1701367 0.379163,0.3791631 v 4.6403679 c 0,0.209025 -0.169652,0.379648 -0.378676,0.379648 z m -5.313136,-0.758325 h 4.933974 V 7.5147151 h -4.933974 v 3.8825299 z"
       fill="#ffffff" />
    <path
       d="m 6.8912814,19.134199 -5.692298,0 c -0.20951205,0 -0.37916205,-0.170623 -0.37916205,-0.379163 l 0,-11.6521009 c 0,-0.209027 0.16965,-0.379163 0.37916205,-0.379163 l 5.691811,0 c 0.209511,0 0.379163,0.170136 0.379163,0.379163 l 0,11.6516159 c 0,0.209025 -0.169652,0.379648 -0.378676,0.379648 z m -5.313136,-0.758325 4.933974,0 0,-10.8937779 -4.933974,0 z"
       fill="#ffffff" />
    <path
       d="m 18.891176,19.104131 -9.9319942,0 c -0.209512,0 -0.379162,-0.170623 -0.379162,-0.379163 l 0,-4.640853 c 0,-0.209026 0.16965,-0.379163 0.379162,-0.379163 l 9.9315072,0 c 0.209511,0 0.379163,0.170137 0.379163,0.379163 l 0,4.640368 c 0,0.209025 -0.169652,0.379648 -0.378676,0.379648 z m -9.5528322,-0.758325 9.1736702,0 0,-3.88253 -9.1736702,0 z"
       fill="#ffffff" />
  </g>
</svg>
