<svg width="45" height="45" viewBox="0 0 45 45" xmlns="http://www.w3.org/2000/svg"><title>icons/light gray/briefcase</title><path d="M40.908 9.38c-.488-.526-1.09-.797-1.801-.797h-9.572V5.24c0-.686-.502-1.24-1.152-1.24H16.257c-.65 0-1.173.554-1.173 1.24v3.343h-9.55c-.712 0-1.314.271-1.801.797A2.702 2.702 0 0 0 3 11.262v26.701c0 .73.246 1.378.733 1.904.476.515 1.089.775 1.8.775h33.573c.713 0 1.325-.26 1.801-.775a2.726 2.726 0 0 0 .734-1.904v-26.7a2.7 2.7 0 0 0-.733-1.883zm-23.5-2.922h9.823v2.125H17.41V6.458zm21.908 31.505c0 .155-.063.222-.21.222H5.535c-.105 0-.23-.133-.23-.222v-18h14.032v.598c0 .686.503 1.218 1.152 1.218h3.644c.65 0 1.173-.532 1.173-1.218v-.598h14.011v18zm0-20.435H5.304v-6.266c0-.155.083-.221.23-.221h33.572c.147 0 .21.066.21.221v6.266z" fill-rule="nonzero" fill="#F0F0F0"/></svg>
