<svg width="45" height="45" viewBox="0 0 45 45" xmlns="http://www.w3.org/2000/svg"><title>icons/light gray/building</title><g fill-rule="nonzero" fill="#F0F0F0"><path d="M38.312 12.658H26.945v-8.87c0-.438-.33-.788-.742-.788H5.743C5.33 3 5 3.35 5 3.788v37.424c0 .438.33.788.742.788h32.57c.412 0 .742-.35.742-.788V13.447c0-.438-.33-.789-.742-.789zm-12.851.789V40.43H6.485V4.577H25.46v8.87zM37.57 40.423H26.945V14.227H37.57v26.196z"/><path d="M29.426 19h5.067c.432 0 .777-.444.777-1s-.345-1-.777-1h-5.067c-.432 0-.777.444-.777 1 0 .545.345 1 .777 1zM29.426 23h5.067c.432 0 .777-.444.777-1s-.345-1-.777-1h-5.067c-.432 0-.777.444-.777 1s.345 1 .777 1zM29.426 27h5.067c.432 0 .777-.444.777-1s-.345-1-.777-1h-5.067c-.432 0-.777.444-.777 1s.345 1 .777 1zM29.426 30h5.067c.432 0 .777-.444.777-1s-.345-1-.777-1h-5.067c-.432 0-.777.444-.777 1s.345 1 .777 1zM29.426 34h5.067c.432 0 .777-.444.777-1s-.345-1-.777-1h-5.067c-.432 0-.777.444-.777 1 0 .545.345 1 .777 1zM29.426 38h5.067c.432 0 .777-.444.777-1s-.345-1-.777-1h-5.067c-.432 0-.777.444-.777 1s.345 1 .777 1zM10.676 10c.525 0 .946-.317.946-.712V7.712c0-.395-.42-.712-.946-.712s-.946.317-.946.712v1.576c0 .395.42.712.946.712zM14.46 10c.525 0 .945-.317.945-.712V7.712c0-.395-.42-.712-.946-.712-.525 0-.945.317-.945.712v1.576c0 .395.42.712.945.712zM18.243 10c.526 0 .946-.317.946-.712V7.712c0-.395-.42-.712-.946-.712-.525 0-.946.317-.946.712v1.576c0 .395.43.712.946.712zM22.027 10c.526 0 .946-.317.946-.712V7.712c0-.395-.42-.712-.946-.712-.525 0-.946.317-.946.712v1.576c0 .395.42.712.946.712zM10.676 16c.525 0 .946-.316.946-.71v-1.58c0-.394-.42-.71-.946-.71s-.946.316-.946.71v1.58c0 .387.42.71.946.71zM14.46 16c.525 0 .945-.316.945-.71v-1.58c0-.394-.42-.71-.946-.71-.525 0-.945.316-.945.71v1.58c0 .387.42.71.945.71zM18.243 16c.526 0 .946-.316.946-.71v-1.58c0-.394-.42-.71-.946-.71-.525 0-.946.316-.946.71v1.58c0 .387.43.71.946.71zM22.027 16c.526 0 .946-.316.946-.71v-1.58c0-.394-.42-.71-.946-.71-.525 0-.946.316-.946.71v1.58c0 .387.42.71.946.71zM10.676 21c.525 0 .946-.317.946-.712v-1.576c0-.395-.42-.712-.946-.712s-.946.317-.946.712v1.576c0 .395.42.712.946.712zM14.46 21c.525 0 .945-.317.945-.712v-1.576c0-.395-.42-.712-.946-.712-.525 0-.945.317-.945.712v1.576c0 .395.42.712.945.712zM18.243 21c.526 0 .946-.317.946-.712v-1.576c0-.395-.42-.712-.946-.712-.525 0-.946.317-.946.712v1.576c0 .395.43.712.946.712zM22.027 21c.526 0 .946-.317.946-.712v-1.576c0-.395-.42-.712-.946-.712-.525 0-.946.317-.946.712v1.576c0 .395.42.712.946.712zM10.676 27c.525 0 .946-.317.946-.712v-1.576c0-.395-.42-.712-.946-.712s-.946.317-.946.712v1.576c0 .388.42.712.946.712zM14.46 27c.525 0 .945-.317.945-.712v-1.576c0-.395-.42-.712-.946-.712-.525 0-.945.317-.945.712v1.576c0 .388.42.712.945.712zM18.243 27c.526 0 .946-.317.946-.712v-1.576c0-.395-.42-.712-.946-.712-.525 0-.946.317-.946.712v1.576c0 .388.43.712.946.712zM22.027 27c.526 0 .946-.317.946-.712v-1.576c0-.395-.42-.712-.946-.712-.525 0-.946.317-.946.712v1.576c0 .388.42.712.946.712zM10.676 32c.525 0 .946-.317.946-.712v-1.576c0-.395-.42-.712-.946-.712s-.946.317-.946.712v1.576c0 .395.42.712.946.712zM14.46 32c.525 0 .945-.317.945-.712v-1.576c0-.395-.42-.712-.946-.712-.525 0-.945.317-.945.712v1.576c0 .395.42.712.945.712zM18.243 32c.526 0 .946-.317.946-.712v-1.576c0-.395-.42-.712-.946-.712-.525 0-.946.317-.946.712v1.576c0 .395.43.712.946.712zM22.027 32c.526 0 .946-.317.946-.712v-1.576c0-.395-.42-.712-.946-.712-.525 0-.946.317-.946.712v1.576c0 .395.42.712.946.712zM10.676 37c.525 0 .946-.316.946-.71v-1.58c0-.394-.42-.71-.946-.71s-.946.316-.946.71v1.58c0 .387.42.71.946.71zM14.46 37c.525 0 .945-.316.945-.71v-1.58c0-.394-.42-.71-.946-.71-.525 0-.945.316-.945.71v1.58c0 .387.42.71.945.71zM18.243 37c.526 0 .946-.316.946-.71v-1.58c0-.394-.42-.71-.946-.71-.525 0-.946.316-.946.71v1.58c0 .387.43.71.946.71zM22.027 37c.526 0 .946-.316.946-.71v-1.58c0-.394-.42-.71-.946-.71-.525 0-.946.316-.946.71v1.58c0 .387.42.71.946.71z"/></g></svg>
