<svg width="45" height="45" viewBox="0 0 45 45" xmlns="http://www.w3.org/2000/svg"><title>icons/light gray/heart</title><path d="M38.946 15.857c0-1.248-.155-2.35-.463-3.305-.31-.955-.705-1.714-1.186-2.276a5.731 5.731 0 0 0-1.757-1.375 7.42 7.42 0 0 0-2.026-.716A11.52 11.52 0 0 0 31.402 8c-.747 0-1.552.196-2.414.59-.863.392-1.656.885-2.382 1.478a25.532 25.532 0 0 0-1.865 1.664c-.517.516-.948.99-1.293 1.421-.259.339-.61.508-1.056.508-.446 0-.798-.17-1.056-.508a17.384 17.384 0 0 0-1.294-1.421 25.532 25.532 0 0 0-1.864-1.664 10.865 10.865 0 0 0-2.382-1.479C14.934 8.196 14.13 8 13.382 8c-.747 0-1.451.062-2.112.185a7.42 7.42 0 0 0-2.027.716 5.731 5.731 0 0 0-1.756 1.375c-.482.562-.877 1.321-1.186 2.276-.309.955-.463 2.057-.463 3.305 0 2.588 1.343 5.322 4.03 8.203L22.393 37l12.502-12.917c2.701-2.896 4.052-5.638 4.052-8.226zm2.838-.193c0 3.357-1.652 6.775-4.956 10.254L23.344 39.59c-.26.273-.577.41-.952.41s-.693-.137-.952-.41L7.935 25.872a7.31 7.31 0 0 1-.596-.592c-.252-.273-.653-.771-1.2-1.493a20.218 20.218 0 0 1-1.473-2.221c-.432-.76-.818-1.679-1.157-2.757C3.169 17.73 3 16.682 3 15.664c0-3.342.916-5.955 2.749-7.838C7.58 5.942 10.113 5 13.345 5c.895 0 1.807.163 2.738.49.93.327 1.796.767 2.597 1.322.8.554 1.49 1.074 2.067 1.56a20.327 20.327 0 0 1 1.645 1.55 20.327 20.327 0 0 1 1.645-1.55 27.775 27.775 0 0 1 2.067-1.56c.8-.555 1.666-.995 2.597-1.322A8.236 8.236 0 0 1 31.439 5c3.232 0 5.764.942 7.596 2.826 1.833 1.883 2.749 4.496 2.749 7.838z" fill="#F0F0F0" fill-rule="evenodd"/></svg>
