<svg width="45" height="45" viewBox="0 0 45 45" xmlns="http://www.w3.org/2000/svg"><title>icons/light gray/rocket</title><g fill-rule="nonzero" fill="#F0F0F0"><path d="M37.055 25.535C47 13.43 42.145 5.127 41.908 4.895c-.237-.232-.237-.477-.488-.477 0 0-2.19-1.418-6.066-1.418-3.403 0-8.73.954-15.049 5.93-.237 0-.488.232-.976.71-2.664-2.141-6.053-1.664-9.218 1.417-7.517 7.348-4.366 12.57-4.128 12.815.237.232.237.477.488.477 0 0 1.45.71 3.64.71.237 2.371 1.45 4.512 3.64 6.638 2.19 1.895 4.365 3.327 6.792 3.559-.238 2.14.725 3.326.725 3.558.237.232.237.477.488.477.237 0 1.45.709 3.403.709 2.19 0 5.578-.954 9.707-4.513 3.151-3.08 3.64-6.162 1.45-9.01a3.13 3.13 0 0 1 .74-.942zm-3.152 1.418c1.214 1.186 2.427 3.327-.725 6.408-3.403 3.326-6.304 4.035-8.005 4.035-.976 0-1.702 0-1.939-.232-.237-.477-.488-1.418.237-2.604 0-.231 0-.708-.237-.954-.237-.245-.725-.477-.976-.477-2.19 0-4.365-1.186-6.304-3.081-2.19-1.895-3.152-4.035-3.152-6.162 0-.477-.237-.71-.488-.955-.237-.231-.725-.231-.976-.231-1.45.231-2.664 0-3.152-.232-.488-.954-1.213-4.513 3.877-9.489 2.427-2.372 4.616-2.604 6.555-.709.237 0 .725.232.976.232.488 0 .725-.232 1.702-.954 0-.232.237-.477.488-.477 0-.232.237-.232.237-.232C27.85 6.095 32.704 5.14 35.605 5.14c2.426 0 4.128.71 4.616.955.711 1.404 3.138 8.043-4.867 17.777-.237 0-.237.232-.237.232l-.489.477c-.976.709-1.464 1.663-.725 2.372zM10.962 33.35a1.15 1.15 0 0 0-1.653 0l-5.89 5.797c-.474.467-.474 1.16 0 1.626.23.227.704.227.948.227.474 0 .704-.24.704-.227l5.89-5.797c.474-.467.474-1.16 0-1.626zM2.91 32.783l2.91-2.888c.451-.448.451-1.112 0-1.56a1.088 1.088 0 0 0-1.571 0l-2.91 2.889a1.068 1.068 0 0 0 0 1.559c.218.217.669.217.9.217.233 0 .67 0 .67-.217zM13.534 37.335l-2.91 2.889a1.068 1.068 0 0 0 0 1.559c.218.217.67.217.901.217.232 0 .45 0 .67-.217l2.91-2.888c.451-.448.451-1.112 0-1.56-.45-.447-1.133-.447-1.57 0z"/><path d="M23.313 14.615c-2.239 2.17-2.239 5.529 0 7.699.999 1.202 2.482 1.686 3.965 1.686 1.483 0 2.98-.719 3.965-1.686 1.24-.968 1.74-2.405 1.74-3.843 0-1.437-.742-2.888-1.74-3.842-1.983-2.17-5.705-2.17-7.93-.014zm6.204 6.013a3.213 3.213 0 0 1-4.464 0 2.98 2.98 0 0 1 0-4.326c.5-.72 1.483-.968 2.24-.968.998 0 1.482.484 2.238.968.742.483.999 1.437.999 2.17-.029.718-.514 1.672-1.013 2.156z"/></g></svg>
