<?xml version="1.0" encoding="UTF-8"?>
<svg width="45px" height="45px" viewBox="0 0 45 45" version="1.1" xmlns="http://www.w3.org/2000/svg" xmlns:xlink="http://www.w3.org/1999/xlink">
    <!-- Generator: Sketch 42 (36781) - http://www.bohemiancoding.com/sketch -->
    <title>icons / light gray / search</title>
    <desc>Created with Sketch.</desc>
    <defs></defs>
    <g id="Symbols" stroke="none" stroke-width="1" fill="none" fill-rule="evenodd">
        <g id="icons-/-light-gray-/-search" fill="#DDDDDD">
            <path d="M28.9230769,19.6593407 C28.9230769,16.9910581 27.9747691,14.708629 26.078125,12.8119849 C24.1814809,10.9153408 21.8990518,9.96703297 19.2307692,9.96703297 C16.5624867,9.96703297 14.2800576,10.9153408 12.3834135,12.8119849 C10.4867694,14.708629 9.53846154,16.9910581 9.53846154,19.6593407 C9.53846154,22.3276232 10.4867694,24.6100523 12.3834135,26.5066964 C14.2800576,28.4033405 16.5624867,29.3516484 19.2307692,29.3516484 C21.8990518,29.3516484 24.1814809,28.4033405 26.078125,26.5066964 C27.9747691,24.6100523 28.9230769,22.3276232 28.9230769,19.6593407 Z M40,37.6593407 C40,38.4093444 39.7259643,39.0583764 39.1778846,39.606456 C38.629805,40.1545357 37.980773,40.4285714 37.2307692,40.4285714 C36.4519192,40.4285714 35.8028872,40.1545357 35.2836538,39.606456 L27.8629808,32.2074176 C25.2812371,33.9958881 22.403862,34.8901099 19.2307692,34.8901099 C17.1682589,34.8901099 15.1959229,34.4898735 13.3137019,33.6893887 C11.431481,32.888904 9.80890105,31.807184 8.44591346,30.4441964 C7.08292588,29.0812088 6.00120593,27.4586289 5.20072115,25.576408 C4.40023638,23.694187 4,21.721851 4,19.6593407 C4,17.5968303 4.40023638,15.6244943 5.20072115,13.7422734 C6.00120593,11.8600524 7.08292588,10.2374725 8.44591346,8.87448489 C9.80890105,7.51149731 11.431481,6.42977735 13.3137019,5.62929258 C15.1959229,4.82880781 17.1682589,4.42857143 19.2307692,4.42857143 C21.2932795,4.42857143 23.2656156,4.82880781 25.1478365,5.62929258 C27.0300575,6.42977735 28.6526374,7.51149731 30.015625,8.87448489 C31.3786126,10.2374725 32.4603325,11.8600524 33.2608173,13.7422734 C34.0613021,15.6244943 34.4615385,17.5968303 34.4615385,19.6593407 C34.4615385,22.8324334 33.5673166,25.7098085 31.7788462,28.2915522 L39.1995192,35.7122253 C39.7331757,36.2458818 40,36.8949138 40,37.6593407 Z" id=""></path>
        </g>
    </g>
</svg>