<?xml version="1.0" encoding="utf-8"?>
<!-- Generator: Adobe Illustrator 20.1.0, SVG Export Plug-In . SVG Version: 6.00 Build 0)  -->
<svg version="1.1" id="Layer_1" xmlns="http://www.w3.org/2000/svg" xmlns:xlink="http://www.w3.org/1999/xlink" x="0px" y="0px"
	 viewBox="0 0 298 298" style="enable-background:new 0 0 298 298;" xml:space="preserve">
<style type="text/css">
	.st0{fill:#FFFFFF;}
</style>
<g>
	<g>
		<path class="st0" d="M253.2,167.3C324.5,78.5,289.7,17.6,288,15.9s-1.7-3.5-3.5-3.5c0,0-15.7-10.4-43.5-10.4
			c-24.4,0-62.6,7-107.9,43.5c-1.7,0-3.5,1.7-7,5.2C107,35,82.7,38.5,60,61.1c-53.9,53.9-31.3,92.2-29.6,94c1.7,1.7,1.7,3.5,3.5,3.5
			c0,0,10.4,5.2,26.1,5.2c1.7,17.4,10.4,33.1,26.1,48.7c15.7,13.9,31.3,24.4,48.7,26.1c-1.7,15.7,5.2,24.4,5.2,26.1
			c1.7,1.7,1.7,3.5,3.5,3.5c1.7,0,10.4,5.2,24.4,5.2c15.7,0,40-7,69.6-33.1c22.6-22.6,26.1-45.2,10.4-66.1
			C249.7,170.7,251.4,169,253.2,167.3L253.2,167.3z M230.6,177.7c8.7,8.7,17.4,24.4-5.2,47c-24.4,24.4-45.2,29.6-57.4,29.6
			c-7,0-12.2,0-13.9-1.7c-1.7-3.5-3.5-10.4,1.7-19.1c0-1.7,0-5.2-1.7-7s-5.2-3.5-7-3.5c-15.7,0-31.3-8.7-45.2-22.6
			c-15.7-13.9-22.6-29.6-22.6-45.2c0-3.5-1.7-5.2-3.5-7c-1.7-1.7-5.2-1.7-7-1.7c-10.4,1.7-19.1,0-22.6-1.7
			c-3.5-7-8.7-33.1,27.8-69.6c17.4-17.4,33.1-19.1,47-5.2c1.7,0,5.2,1.7,7,1.7c3.5,0,5.2-1.7,12.2-7c0-1.7,1.7-3.5,3.5-3.5
			c0-1.7,1.7-1.7,1.7-1.7c41.8-34.8,76.6-41.8,97.4-41.8c17.4,0,29.6,5.2,33.1,7C281,35,298.4,83.7,241,155.1
			c-1.7,0-1.7,1.7-1.7,1.7s-1.7,1.7-3.5,3.5C228.8,165.5,225.3,172.5,230.6,177.7L230.6,177.7z"/>
		<path class="st0" d="M68.7,228.2c-3.5-3.5-8.7-3.5-12.2,0l-43.5,43.5c-3.5,3.5-3.5,8.7,0,12.2c1.7,1.7,5.2,1.7,7,1.7
			c3.5,0,5.2-1.8,5.2-1.7l43.5-43.5C72.2,236.9,72.2,231.7,68.7,228.2L68.7,228.2z"/>
		<path class="st0" d="M14.8,228.2l22.6-22.6c3.5-3.5,3.5-8.7,0-12.2s-8.7-3.5-12.2,0L2.6,216c-3.5,3.5-3.5,8.7,0,12.2
			c1.7,1.7,5.2,1.7,7,1.7S14.8,229.9,14.8,228.2z"/>
		<path class="st0" d="M91.4,259.5l-22.6,22.6c-3.5,3.5-3.5,8.7,0,12.2c1.7,1.7,5.2,1.7,7,1.7s3.5,0,5.2-1.7l22.6-22.6
			c3.5-3.5,3.5-8.7,0-12.2S94.8,256,91.4,259.5z"/>
		<path class="st0" d="M157.5,83.7c-15.7,15.7-15.7,40,0,55.7c7,8.7,17.4,12.2,27.8,12.2s20.9-5.2,27.8-12.2
			c8.7-7,12.2-17.4,12.2-27.8s-5.2-20.9-12.2-27.8C199.2,68.1,173.1,68.1,157.5,83.7L157.5,83.7z M201,127.2
			c-8.7,8.7-22.6,8.7-31.3,0s-8.7-22.6,0-31.3c3.5-5.2,10.4-7,15.7-7c7,0,10.4,3.5,15.7,7c5.2,3.5,7,10.4,7,15.7
			C207.9,116.8,204.5,123.7,201,127.2L201,127.2z"/>
	</g>
</g>
</svg>
