<?xml version="1.0" standalone="no"?>
<!DOCTYPE svg PUBLIC "-//W3C//DTD SVG 20010904//EN"
 "http://www.w3.org/TR/2001/REC-SVG-20010904/DTD/svg10.dtd">
<svg version="1.0" xmlns="http://www.w3.org/2000/svg"
 width="16.000000pt" height="16.000000pt" viewBox="0 0 16.000000 16.000000"
 preserveAspectRatio="xMidYMid meet">
<metadata>
Created by potrace 1.11, written by Peter Selinger 2001-2013
</metadata>
<g transform="translate(0.000000,16.000000) scale(0.100000,-0.100000)"
fill="#000000" stroke="none">
<path d="M16 114 c-19 -18 -21 -65 -4 -82 7 -7 27 -12 45 -12 30 0 33 3 33 30
0 23 -4 30 -20 30 -11 0 -20 -4 -20 -10 0 -5 5 -10 10 -10 6 0 10 -4 10 -10 0
-16 -37 -11 -44 6 -9 24 12 54 39 54 14 0 25 5 25 10 0 16 -57 12 -74 -6z"/>
<path d="M110 60 c0 -22 5 -40 10 -40 6 0 10 14 10 30 0 17 5 30 10 30 6 0 10
5 10 10 0 6 -9 10 -20 10 -17 0 -20 -7 -20 -40z"/>
</g>
</svg>
