<svg xmlns="http://www.w3.org/2000/svg" xmlns:xlink="http://www.w3.org/1999/xlink" preserveAspectRatio="xMidYMid" width="59" height="66" viewBox="0 0 59 66">
  <defs>
    <style>

      .cls-3 {
        fill: #81bda4;
      }

      .cls-4 {
        fill: #edc951;
      }

      .cls-10 {
        fill: #000000;
      }
    </style>
  </defs>
  <g id="group-15svg">
    <path d="M59.000,57.031 C59.000,61.452 55.418,65.036 51.000,65.036 C51.000,65.036 14.000,65.036 14.000,65.036 C9.582,65.036 6.000,61.452 6.000,57.031 C6.000,57.031 6.000,13.005 6.000,13.005 C6.000,8.584 9.582,5.001 14.000,5.001 C14.000,5.001 51.000,5.001 51.000,5.001 C55.418,5.001 59.000,8.584 59.000,13.005 C59.000,13.005 59.000,57.031 59.000,57.031 Z" id="path-1" class="cls-3" fill-rule="evenodd"/>
    <path d="M51.000,21.174 C51.000,23.294 49.283,25.012 47.164,25.012 C47.164,25.012 39.836,25.012 39.836,25.012 C37.717,25.012 36.000,23.294 36.000,21.174 C36.000,21.174 36.000,20.846 36.000,20.846 C36.000,18.726 37.717,17.008 39.836,17.008 C39.836,17.008 47.164,17.008 47.164,17.008 C49.283,17.008 51.000,18.726 51.000,20.846 C51.000,20.846 51.000,21.174 51.000,21.174 Z" id="path-2" class="cls-4" fill-rule="evenodd"/>
    <path d="M51.000,37.183 C51.000,39.303 49.283,41.022 47.164,41.022 C47.164,41.022 39.836,41.022 39.836,41.022 C37.717,41.022 36.000,39.303 36.000,37.183 C36.000,37.183 36.000,36.855 36.000,36.855 C36.000,34.735 37.717,33.017 39.836,33.017 C39.836,33.017 47.164,33.017 47.164,33.017 C49.283,33.017 51.000,34.735 51.000,36.855 C51.000,36.855 51.000,37.183 51.000,37.183 Z" id="path-3" class="cls-4" fill-rule="evenodd"/>
    <path d="M51.000,51.192 C51.000,53.311 49.283,55.030 47.164,55.030 C47.164,55.030 39.836,55.030 39.836,55.030 C37.717,55.030 36.000,53.311 36.000,51.192 C36.000,51.192 36.000,50.863 36.000,50.863 C36.000,48.743 37.717,47.025 39.836,47.025 C39.836,47.025 47.164,47.025 47.164,47.025 C49.283,47.025 51.000,48.743 51.000,50.863 C51.000,50.863 51.000,51.192 51.000,51.192 Z" id="path-4" class="cls-4" fill-rule="evenodd"/>
    <path d="M27.000,21.174 C27.000,23.294 25.283,25.012 23.164,25.012 C23.164,25.012 15.836,25.012 15.836,25.012 C13.717,25.012 12.000,23.294 12.000,21.174 C12.000,21.174 12.000,20.846 12.000,20.846 C12.000,18.726 13.717,17.008 15.836,17.008 C15.836,17.008 23.164,17.008 23.164,17.008 C25.283,17.008 27.000,18.726 27.000,20.846 C27.000,20.846 27.000,21.174 27.000,21.174 Z" id="path-5" class="cls-4" fill-rule="evenodd"/>
    <path d="M27.000,37.183 C27.000,39.303 25.283,41.022 23.164,41.022 C23.164,41.022 15.836,41.022 15.836,41.022 C13.717,41.022 12.000,39.303 12.000,37.183 C12.000,37.183 12.000,36.855 12.000,36.855 C12.000,34.735 13.717,33.017 15.836,33.017 C15.836,33.017 23.164,33.017 23.164,33.017 C25.283,33.017 27.000,34.735 27.000,36.855 C27.000,36.855 27.000,37.183 27.000,37.183 Z" id="path-6" class="cls-4" fill-rule="evenodd"/>
    <path d="M27.000,51.192 C27.000,53.311 25.283,55.030 23.164,55.030 C23.164,55.030 15.836,55.030 15.836,55.030 C13.717,55.030 12.000,53.311 12.000,51.192 C12.000,51.192 12.000,50.863 12.000,50.863 C12.000,48.743 13.717,47.025 15.836,47.025 C15.836,47.025 23.164,47.025 23.164,47.025 C25.283,47.025 27.000,48.743 27.000,50.863 C27.000,50.863 27.000,51.192 27.000,51.192 Z" id="path-7" class="cls-4" fill-rule="evenodd"/>
    <path d="M42.664,22.011 C42.664,22.011 35.336,22.011 35.336,22.011 C32.394,22.011 30.000,19.616 30.000,16.672 C30.000,16.672 30.000,16.343 30.000,16.343 C30.000,13.399 32.394,11.004 35.336,11.004 C35.336,11.004 42.664,11.004 42.664,11.004 C45.606,11.004 48.000,13.399 48.000,16.343 C48.000,16.343 48.000,16.672 48.000,16.672 C48.000,19.616 45.606,22.011 42.664,22.011 ZM35.336,14.006 C34.048,14.006 33.000,15.054 33.000,16.343 C33.000,16.343 33.000,16.672 33.000,16.672 C33.000,17.960 34.048,19.009 35.336,19.009 C35.336,19.009 42.664,19.009 42.664,19.009 C43.952,19.009 45.000,17.960 45.000,16.672 C45.000,16.672 45.000,16.343 45.000,16.343 C45.000,15.054 43.952,14.006 42.664,14.006 C42.664,14.006 35.336,14.006 35.336,14.006 Z" id="path-8" class="cls-10" fill-rule="evenodd"/>
    <path d="M39.500,21.510 C38.671,21.510 38.000,20.838 38.000,20.009 C38.000,20.009 38.000,13.005 38.000,13.005 C38.000,12.177 38.671,11.505 39.500,11.505 C40.329,11.505 41.000,12.177 41.000,13.005 C41.000,13.005 41.000,20.009 41.000,20.009 C41.000,20.838 40.329,21.510 39.500,21.510 Z" id="path-9" class="cls-10" fill-rule="evenodd"/>
    <path d="M42.664,38.020 C42.664,38.020 35.336,38.020 35.336,38.020 C32.394,38.020 30.000,35.625 30.000,32.681 C30.000,32.681 30.000,32.353 30.000,32.353 C30.000,29.408 32.394,27.013 35.336,27.013 C35.336,27.013 42.664,27.013 42.664,27.013 C45.606,27.013 48.000,29.408 48.000,32.353 C48.000,32.353 48.000,32.681 48.000,32.681 C48.000,35.625 45.606,38.020 42.664,38.020 ZM35.336,30.015 C34.048,30.015 33.000,31.064 33.000,32.353 C33.000,32.353 33.000,32.681 33.000,32.681 C33.000,33.970 34.048,35.018 35.336,35.018 C35.336,35.018 42.664,35.018 42.664,35.018 C43.952,35.018 45.000,33.970 45.000,32.681 C45.000,32.681 45.000,32.353 45.000,32.353 C45.000,31.064 43.952,30.015 42.664,30.015 C42.664,30.015 35.336,30.015 35.336,30.015 Z" id="path-10" class="cls-10" fill-rule="evenodd"/>
    <path d="M39.500,35.518 C38.671,35.518 38.000,34.846 38.000,34.018 C38.000,34.018 38.000,29.015 38.000,29.015 C38.000,28.186 38.671,27.514 39.500,27.514 C40.329,27.514 41.000,28.186 41.000,29.015 C41.000,29.015 41.000,34.018 41.000,34.018 C41.000,34.846 40.329,35.518 39.500,35.518 Z" id="path-11" class="cls-10" fill-rule="evenodd"/>
    <path d="M42.664,52.028 C42.664,52.028 35.336,52.028 35.336,52.028 C32.394,52.028 30.000,49.633 30.000,46.689 C30.000,46.689 30.000,46.361 30.000,46.361 C30.000,43.417 32.394,41.022 35.336,41.022 C35.336,41.022 42.664,41.022 42.664,41.022 C45.606,41.022 48.000,43.417 48.000,46.361 C48.000,46.361 48.000,46.689 48.000,46.689 C48.000,49.633 45.606,52.028 42.664,52.028 ZM35.336,44.023 C34.048,44.023 33.000,45.072 33.000,46.361 C33.000,46.361 33.000,46.689 33.000,46.689 C33.000,47.978 34.048,49.026 35.336,49.026 C35.336,49.026 42.664,49.026 42.664,49.026 C43.952,49.026 45.000,47.978 45.000,46.689 C45.000,46.689 45.000,46.361 45.000,46.361 C45.000,45.072 43.952,44.023 42.664,44.023 C42.664,44.023 35.336,44.023 35.336,44.023 Z" id="path-12" class="cls-10" fill-rule="evenodd"/>
    <path d="M39.500,51.528 C38.671,51.528 38.000,50.855 38.000,50.027 C38.000,50.027 38.000,43.023 38.000,43.023 C38.000,42.194 38.671,41.522 39.500,41.522 C40.329,41.522 41.000,42.194 41.000,43.023 C41.000,43.023 41.000,50.027 41.000,50.027 C41.000,50.855 40.329,51.528 39.500,51.528 Z" id="path-13" class="cls-10" fill-rule="evenodd"/>
    <path d="M18.664,22.011 C18.664,22.011 11.336,22.011 11.336,22.011 C8.393,22.011 6.000,19.616 6.000,16.672 C6.000,16.672 6.000,16.343 6.000,16.343 C6.000,13.399 8.393,11.004 11.336,11.004 C11.336,11.004 18.664,11.004 18.664,11.004 C21.606,11.004 24.000,13.399 24.000,16.343 C24.000,16.343 24.000,16.672 24.000,16.672 C24.000,19.616 21.606,22.011 18.664,22.011 ZM11.336,14.006 C10.048,14.006 9.000,15.054 9.000,16.343 C9.000,16.343 9.000,16.672 9.000,16.672 C9.000,17.960 10.048,19.009 11.336,19.009 C11.336,19.009 18.664,19.009 18.664,19.009 C19.952,19.009 21.000,17.960 21.000,16.672 C21.000,16.672 21.000,16.343 21.000,16.343 C21.000,15.054 19.952,14.006 18.664,14.006 C18.664,14.006 11.336,14.006 11.336,14.006 Z" id="path-14" class="cls-10" fill-rule="evenodd"/>
    <path d="M15.500,21.510 C14.671,21.510 14.000,20.838 14.000,20.009 C14.000,20.009 14.000,13.005 14.000,13.005 C14.000,12.177 14.671,11.505 15.500,11.505 C16.329,11.505 17.000,12.177 17.000,13.005 C17.000,13.005 17.000,20.009 17.000,20.009 C17.000,20.838 16.329,21.510 15.500,21.510 Z" id="path-15" class="cls-10" fill-rule="evenodd"/>
    <path d="M18.664,38.020 C18.664,38.020 11.336,38.020 11.336,38.020 C8.393,38.020 6.000,35.625 6.000,32.681 C6.000,32.681 6.000,32.353 6.000,32.353 C6.000,29.408 8.393,27.013 11.336,27.013 C11.336,27.013 18.664,27.013 18.664,27.013 C21.606,27.013 24.000,29.408 24.000,32.353 C24.000,32.353 24.000,32.681 24.000,32.681 C24.000,35.625 21.606,38.020 18.664,38.020 ZM11.336,30.015 C10.048,30.015 9.000,31.064 9.000,32.353 C9.000,32.353 9.000,32.681 9.000,32.681 C9.000,33.970 10.048,35.018 11.336,35.018 C11.336,35.018 18.664,35.018 18.664,35.018 C19.952,35.018 21.000,33.970 21.000,32.681 C21.000,32.681 21.000,32.353 21.000,32.353 C21.000,31.064 19.952,30.015 18.664,30.015 C18.664,30.015 11.336,30.015 11.336,30.015 Z" id="path-16" class="cls-10" fill-rule="evenodd"/>
    <path d="M15.500,35.518 C14.671,35.518 14.000,34.846 14.000,34.018 C14.000,34.018 14.000,29.015 14.000,29.015 C14.000,28.186 14.671,27.514 15.500,27.514 C16.329,27.514 17.000,28.186 17.000,29.015 C17.000,29.015 17.000,34.018 17.000,34.018 C17.000,34.846 16.329,35.518 15.500,35.518 Z" id="path-17" class="cls-10" fill-rule="evenodd"/>
    <path d="M18.664,52.028 C18.664,52.028 11.336,52.028 11.336,52.028 C8.393,52.028 6.000,49.633 6.000,46.689 C6.000,46.689 6.000,46.361 6.000,46.361 C6.000,43.417 8.393,41.022 11.336,41.022 C11.336,41.022 18.664,41.022 18.664,41.022 C21.606,41.022 24.000,43.417 24.000,46.361 C24.000,46.361 24.000,46.689 24.000,46.689 C24.000,49.633 21.606,52.028 18.664,52.028 ZM11.336,44.023 C10.048,44.023 9.000,45.072 9.000,46.361 C9.000,46.361 9.000,46.689 9.000,46.689 C9.000,47.978 10.048,49.026 11.336,49.026 C11.336,49.026 18.664,49.026 18.664,49.026 C19.952,49.026 21.000,47.978 21.000,46.689 C21.000,46.689 21.000,46.361 21.000,46.361 C21.000,45.072 19.952,44.023 18.664,44.023 C18.664,44.023 11.336,44.023 11.336,44.023 Z" id="path-18" class="cls-10" fill-rule="evenodd"/>
    <path d="M15.500,51.528 C14.671,51.528 14.000,50.855 14.000,50.027 C14.000,50.027 14.000,43.023 14.000,43.023 C14.000,42.194 14.671,41.522 15.500,41.522 C16.329,41.522 17.000,42.194 17.000,43.023 C17.000,43.023 17.000,50.027 17.000,50.027 C17.000,50.855 16.329,51.528 15.500,51.528 Z" id="path-19" class="cls-10" fill-rule="evenodd"/>
    <path d="M46.500,63.034 C46.500,63.034 9.500,63.034 9.500,63.034 C4.262,63.034 -0.000,58.770 -0.000,53.529 C-0.000,53.529 -0.000,9.503 -0.000,9.503 C-0.000,4.262 4.262,-0.002 9.500,-0.002 C9.500,-0.002 46.500,-0.002 46.500,-0.002 C51.738,-0.002 56.000,4.262 56.000,9.503 C56.000,9.503 56.000,53.529 56.000,53.529 C56.000,58.770 51.738,63.034 46.500,63.034 ZM9.500,3.000 C5.916,3.000 3.000,5.917 3.000,9.503 C3.000,9.503 3.000,53.529 3.000,53.529 C3.000,57.115 5.916,60.033 9.500,60.033 C9.500,60.033 46.500,60.033 46.500,60.033 C50.084,60.033 53.000,57.115 53.000,53.529 C53.000,53.529 53.000,9.503 53.000,9.503 C53.000,5.917 50.084,3.000 46.500,3.000 C46.500,3.000 9.500,3.000 9.500,3.000 Z" id="path-20" class="cls-10" fill-rule="evenodd"/>
  </g>
</svg>
