<svg xmlns="http://www.w3.org/2000/svg" xmlns:xlink="http://www.w3.org/1999/xlink" preserveAspectRatio="xMidYMid" width="65" height="63" viewBox="0 0 65 63">
  <defs>
    <style>

      .cls-3 {
        fill: #53ecf4;
      }

      .cls-4 {
        fill: #edc951;
      }

      .cls-6 {
        fill: #000000;
      }
    </style>
  </defs>
  <g id="group-30svg">
    <path d="M52.786,27.279 C52.786,27.279 29.850,50.228 29.850,50.228 C29.082,50.996 27.837,50.996 27.070,50.228 C27.070,50.228 18.729,41.883 18.729,41.883 C17.962,41.114 17.962,39.869 18.729,39.101 C18.729,39.101 41.665,16.152 41.665,16.152 C42.433,15.384 43.678,15.384 44.445,16.152 C44.445,16.152 52.786,24.497 52.786,24.497 C53.553,25.265 53.553,26.511 52.786,27.279 Z" id="path-1" class="cls-3" fill-rule="evenodd"/>
    <path d="M52.786,5.025 C53.553,4.257 54.798,4.257 55.565,5.025 C55.565,5.025 63.906,13.370 63.906,13.370 C64.673,14.138 64.673,15.384 63.906,16.152 C63.906,16.152 61.126,18.934 61.126,18.934 C60.358,19.702 59.113,19.702 58.346,18.934 C58.346,18.934 50.005,10.589 50.005,10.589 C49.238,9.820 49.238,8.575 50.005,7.807 C50.005,7.807 52.786,5.025 52.786,5.025 Z" id="path-2" class="cls-4" fill-rule="evenodd"/>
    <path d="M56.956,17.543 C56.956,17.543 51.395,23.106 51.395,23.106 C51.395,23.106 45.835,17.543 45.835,17.543 C45.835,17.543 51.395,11.980 51.395,11.980 C51.395,11.980 56.956,17.543 56.956,17.543 Z" id="path-3" class="cls-4" fill-rule="evenodd"/>
    <path d="M25.460,49.303 C24.534,49.303 23.664,48.942 23.009,48.287 C23.009,48.287 14.669,39.942 14.669,39.942 C14.014,39.288 13.654,38.417 13.654,37.491 C13.654,36.563 14.014,35.693 14.669,35.038 C14.669,35.038 37.604,12.089 37.604,12.089 C38.259,11.434 39.130,11.074 40.055,11.074 C40.055,11.074 40.055,11.074 40.055,11.074 C40.981,11.074 41.851,11.434 42.506,12.089 C42.506,12.089 50.846,20.434 50.846,20.434 C51.501,21.089 51.861,21.959 51.861,22.886 C51.861,23.813 51.501,24.683 50.846,25.338 C50.846,25.338 27.911,48.287 27.911,48.287 C27.256,48.942 26.385,49.303 25.460,49.303 ZM40.055,14.076 C39.967,14.076 39.838,14.099 39.726,14.211 C39.726,14.211 16.790,37.160 16.790,37.160 C16.671,37.280 16.654,37.418 16.654,37.491 C16.654,37.562 16.671,37.701 16.790,37.820 C16.790,37.820 25.130,46.165 25.130,46.165 C25.356,46.389 25.563,46.390 25.789,46.165 C25.789,46.165 48.725,23.216 48.725,23.216 C48.844,23.097 48.861,22.958 48.861,22.886 C48.861,22.814 48.844,22.675 48.725,22.556 C48.725,22.556 40.385,14.211 40.385,14.211 C40.272,14.099 40.144,14.076 40.055,14.076 Z" id="path-4" class="cls-6" fill-rule="evenodd"/>
    <path d="M56.736,18.010 C55.810,18.010 54.939,17.648 54.285,16.993 C54.285,16.993 45.945,8.648 45.945,8.648 C44.594,7.296 44.594,5.096 45.945,3.744 C45.945,3.744 48.725,0.963 48.725,0.963 C50.034,-0.348 52.318,-0.346 53.626,0.963 C53.626,0.963 61.966,9.307 61.966,9.307 C63.318,10.660 63.318,12.859 61.966,14.211 C61.966,14.211 59.187,16.993 59.187,16.993 C58.532,17.649 57.661,18.010 56.736,18.010 ZM51.175,2.948 C51.087,2.948 50.959,2.973 50.846,3.085 C50.846,3.085 48.066,5.867 48.066,5.867 C47.885,6.049 47.885,6.344 48.066,6.525 C48.066,6.525 56.406,14.871 56.406,14.871 C56.611,15.075 56.801,15.134 57.065,14.871 C57.065,14.871 59.845,12.089 59.845,12.089 C60.027,11.907 60.027,11.611 59.845,11.430 C59.845,11.430 51.505,3.085 51.505,3.085 C51.392,2.973 51.264,2.948 51.175,2.948 Z" id="path-5" class="cls-6" fill-rule="evenodd"/>
    <path d="M48.395,21.605 C47.998,21.605 47.616,21.447 47.335,21.166 C47.335,21.166 41.775,15.602 41.775,15.602 C41.494,15.321 41.335,14.938 41.335,14.541 C41.335,14.143 41.494,13.761 41.775,13.480 C41.775,13.480 47.335,7.917 47.335,7.917 C47.921,7.331 48.870,7.331 49.456,7.917 C49.456,7.917 55.016,13.480 55.016,13.480 C55.297,13.761 55.456,14.143 55.456,14.541 C55.456,14.938 55.297,15.321 55.016,15.602 C55.016,15.602 49.456,21.166 49.456,21.166 C49.175,21.447 48.793,21.605 48.395,21.605 ZM44.957,14.541 C44.957,14.541 48.395,17.982 48.395,17.982 C48.395,17.982 51.834,14.541 51.834,14.541 C51.834,14.541 48.395,11.100 48.395,11.100 C48.395,11.100 44.957,14.541 44.957,14.541 Z" id="path-6" class="cls-6" fill-rule="evenodd"/>
    <path d="M18.510,49.303 C17.584,49.303 16.713,48.942 16.059,48.287 C16.059,48.287 14.669,46.896 14.669,46.896 C13.317,45.544 13.317,43.345 14.669,41.992 C14.669,41.992 16.754,39.906 16.754,39.906 C17.340,39.320 18.289,39.320 18.875,39.906 C18.875,39.906 23.045,44.078 23.045,44.078 C23.327,44.360 23.485,44.742 23.485,45.140 C23.485,45.537 23.327,45.919 23.045,46.201 C23.045,46.201 20.960,48.287 20.960,48.287 C20.306,48.942 19.435,49.303 18.510,49.303 ZM17.814,43.090 C17.814,43.090 16.790,44.115 16.790,44.115 C16.671,44.234 16.654,44.373 16.654,44.445 C16.654,44.516 16.671,44.655 16.790,44.774 C16.790,44.774 18.180,46.165 18.180,46.165 C18.384,46.368 18.575,46.428 18.839,46.165 C18.839,46.165 19.863,45.140 19.863,45.140 C19.863,45.140 17.814,43.090 17.814,43.090 Z" id="path-7" class="cls-6" fill-rule="evenodd"/>
    <path d="M1.481,62.983 C1.098,62.983 0.714,62.836 0.421,62.543 C-0.165,61.957 -0.165,61.007 0.421,60.421 C0.421,60.421 15.017,45.817 15.017,45.817 C15.602,45.230 16.552,45.230 17.138,45.817 C17.724,46.403 17.724,47.353 17.138,47.939 C17.138,47.939 2.542,62.543 2.542,62.543 C2.249,62.836 1.865,62.983 1.481,62.983 Z" id="path-8" class="cls-6" fill-rule="evenodd"/>
  </g>
</svg>
