<svg xmlns="http://www.w3.org/2000/svg" xmlns:xlink="http://www.w3.org/1999/xlink" preserveAspectRatio="xMidYMid" width="56" height="64" viewBox="0 0 56 64">
  <defs>
    <style>

      .cls-3 {
        fill: #edc951;
      }

      .cls-4 {
        fill: #e56a77;
      }

      .cls-5 {
        fill: #81bda4;
      }

      .cls-6 {
        fill: #000000;
      }
    </style>
  </defs>
  <g id="group-7svg">
    <path d="M54.948,20.802 C57.641,24.945 56.467,30.487 52.326,33.181 C52.326,33.181 52.326,33.181 52.326,33.181 C48.186,35.875 42.647,34.701 39.954,30.558 C39.954,30.558 31.351,17.321 31.351,17.321 C28.659,13.178 29.832,7.636 33.973,4.942 C33.973,4.942 33.973,4.942 33.973,4.942 C38.113,2.248 43.652,3.422 46.345,7.565 C46.345,7.565 54.948,20.802 54.948,20.802 Z" id="path-1" class="cls-3" fill-rule="evenodd"/>
    <path d="M20.291,53.337 C16.151,56.031 10.612,54.857 7.919,50.714 C7.919,50.714 7.919,50.714 7.919,50.714 C5.227,46.571 6.401,41.029 10.541,38.335 C10.541,38.335 23.771,29.727 23.771,29.727 C27.911,27.033 33.450,28.207 36.143,32.350 C36.143,32.350 36.143,32.350 36.143,32.350 C38.835,36.493 37.662,42.035 33.521,44.729 C33.521,44.729 20.291,53.337 20.291,53.337 Z" id="path-2" class="cls-4" fill-rule="evenodd"/>
    <path d="M49.720,59.017 C49.069,62.091 46.050,64.055 42.977,63.404 C42.977,63.404 42.977,63.404 42.977,63.404 C39.905,62.753 37.942,59.732 38.593,56.658 C38.593,56.658 40.673,46.834 40.673,46.834 C41.325,43.759 44.343,41.795 47.416,42.446 C47.416,42.446 47.416,42.446 47.416,42.446 C50.489,43.098 52.452,46.118 51.801,49.193 C51.801,49.193 49.720,59.017 49.720,59.017 Z" id="path-3" class="cls-5" fill-rule="evenodd"/>
    <path d="M42.459,34.128 C38.907,34.128 35.632,32.352 33.697,29.375 C33.697,29.375 25.094,16.137 25.094,16.137 C21.955,11.308 23.328,4.824 28.155,1.681 C29.854,0.576 31.820,-0.008 33.839,-0.008 C37.392,-0.008 40.668,1.768 42.602,4.746 C42.602,4.746 51.205,17.983 51.205,17.983 C54.345,22.813 52.971,29.298 48.144,32.439 C46.444,33.544 44.479,34.128 42.459,34.128 ZM33.839,2.994 C32.402,2.994 31.002,3.410 29.791,4.199 C26.350,6.437 25.372,11.059 27.608,14.501 C27.608,14.501 36.212,27.740 36.212,27.740 C37.591,29.860 39.926,31.126 42.459,31.126 C43.897,31.126 45.297,30.710 46.508,29.921 C49.949,27.683 50.928,23.061 48.691,19.619 C48.691,19.619 40.087,6.381 40.087,6.381 C38.708,4.260 36.372,2.994 33.839,2.994 Z" id="path-4" class="cls-6" fill-rule="evenodd"/>
    <path d="M31.265,22.673 C30.765,22.673 30.275,22.423 29.991,21.967 C29.553,21.263 29.767,20.338 30.470,19.899 C30.470,19.899 44.412,11.196 44.412,11.196 C45.116,10.756 46.041,10.972 46.478,11.675 C46.916,12.378 46.703,13.303 45.999,13.742 C45.999,13.742 32.058,22.445 32.058,22.445 C31.811,22.600 31.536,22.673 31.265,22.673 Z" id="path-5" class="cls-6" fill-rule="evenodd"/>
    <path d="M10.425,54.284 C6.872,54.284 3.596,52.508 1.662,49.530 C-1.477,44.701 -0.104,38.216 4.723,35.075 C4.723,35.075 17.953,26.466 17.953,26.466 C19.652,25.361 21.618,24.777 23.637,24.777 C27.190,24.777 30.466,26.553 32.400,29.531 C35.540,34.361 34.166,40.846 29.339,43.986 C29.339,43.986 16.109,52.595 16.109,52.595 C14.410,53.700 12.444,54.284 10.425,54.284 ZM23.637,27.779 C22.200,27.779 20.800,28.195 19.589,28.983 C19.589,28.983 6.359,37.592 6.359,37.592 C2.918,39.831 1.940,44.452 4.177,47.895 C5.556,50.016 7.892,51.282 10.425,51.282 C11.862,51.282 13.262,50.866 14.474,50.078 C14.474,50.078 27.703,41.469 27.703,41.469 C31.144,39.231 32.123,34.609 29.886,31.166 C28.506,29.045 26.171,27.779 23.637,27.779 Z" id="path-6" class="cls-6" fill-rule="evenodd"/>
    <path d="M21.621,48.091 C21.121,48.091 20.631,47.841 20.347,47.385 C20.347,47.385 11.649,33.435 11.649,33.435 C11.210,32.732 11.424,31.806 12.127,31.368 C12.832,30.928 13.756,31.144 14.194,31.846 C14.194,31.846 22.892,45.796 22.892,45.796 C23.331,46.499 23.117,47.425 22.414,47.864 C22.166,48.018 21.892,48.091 21.621,48.091 Z" id="path-7" class="cls-6" fill-rule="evenodd"/>
    <path d="M39.163,63.029 C38.663,63.029 38.159,62.976 37.666,62.871 C35.789,62.474 34.178,61.367 33.131,59.756 C32.085,58.146 31.728,56.225 32.125,54.346 C32.125,54.346 34.206,44.522 34.206,44.522 C34.906,41.217 37.861,38.820 41.232,38.820 C41.732,38.820 42.234,38.873 42.727,38.977 C46.603,39.799 49.089,43.624 48.268,47.503 C48.268,47.503 46.187,57.326 46.187,57.326 C45.488,60.631 42.533,63.029 39.163,63.029 ZM41.232,41.822 C39.269,41.822 37.549,43.218 37.141,45.144 C37.141,45.144 35.060,54.967 35.060,54.967 C34.829,56.063 35.037,57.181 35.646,58.120 C36.256,59.058 37.194,59.702 38.288,59.934 C40.526,60.412 42.785,58.916 43.253,56.705 C43.253,56.705 45.333,46.881 45.333,46.881 C45.811,44.621 44.363,42.393 42.105,41.914 C41.817,41.852 41.523,41.822 41.232,41.822 Z" id="path-8" class="cls-6" fill-rule="evenodd"/>
    <path d="M45.435,53.536 C45.321,53.536 45.206,53.523 45.091,53.497 C45.091,53.497 35.016,51.137 35.016,51.137 C34.209,50.947 33.708,50.140 33.897,49.333 C34.086,48.526 34.894,48.028 35.700,48.213 C35.700,48.213 45.775,50.573 45.775,50.573 C46.582,50.763 47.082,51.570 46.894,52.377 C46.732,53.069 46.115,53.536 45.435,53.536 Z" id="path-9" class="cls-6" fill-rule="evenodd"/>
  </g>
</svg>
