<svg xmlns="http://www.w3.org/2000/svg" xmlns:xlink="http://www.w3.org/1999/xlink" preserveAspectRatio="xMidYMid" width="66" height="59" viewBox="0 0 66 59">
  <defs>
    <style>

      .cls-3 {
        fill: #e56a77;
      }

      .cls-4 {
        fill: #000000;
      }
    </style>
  </defs>
  <g id="group-23svg">
    <path d="M33.748,41.737 C33.748,41.737 27.014,34.998 27.014,34.998 C27.014,34.998 57.603,4.391 57.603,4.391 C58.774,3.218 60.674,3.218 61.846,4.391 C61.846,4.391 64.338,6.884 64.338,6.884 C65.509,8.056 65.509,9.957 64.338,11.129 C64.338,11.129 33.748,41.737 33.748,41.737 Z" id="path-1" class="cls-3" fill-rule="evenodd"/>
    <path d="M30.748,41.236 C30.351,41.236 29.969,41.078 29.687,40.797 C29.687,40.797 22.953,34.058 22.953,34.058 C22.367,33.472 22.367,32.522 22.953,31.936 C22.953,31.936 53.542,1.328 53.542,1.328 C54.392,0.477 55.522,0.009 56.724,0.009 C57.926,0.009 59.057,0.477 59.906,1.328 C59.906,1.328 62.398,3.822 62.398,3.822 C64.152,5.577 64.152,8.433 62.399,10.189 C62.399,10.189 31.809,40.797 31.809,40.797 C31.527,41.078 31.145,41.236 30.748,41.236 ZM26.135,32.997 C26.135,32.997 30.748,37.613 30.748,37.613 C30.748,37.613 60.277,8.067 60.277,8.067 C60.861,7.481 60.861,6.530 60.277,5.944 C60.277,5.944 57.785,3.451 57.785,3.451 C57.219,2.885 56.229,2.883 55.663,3.451 C55.663,3.451 26.135,32.997 26.135,32.997 Z" id="path-2" class="cls-4" fill-rule="evenodd"/>
    <path d="M8.000,58.045 C8.000,58.045 6.465,58.045 6.465,58.045 C1.083,58.045 0.129,55.033 0.014,53.372 C0.005,53.306 -0.000,53.238 -0.000,53.170 C-0.000,53.170 -0.000,52.984 -0.000,52.984 C-0.000,52.924 0.004,52.863 0.011,52.804 C0.201,49.536 2.898,46.038 6.465,46.038 C6.465,46.038 7.370,46.038 7.370,46.038 C8.255,46.038 8.977,45.718 9.643,45.032 C9.643,45.032 25.908,28.734 25.908,28.734 C26.494,28.146 27.443,28.148 28.029,28.732 C28.616,29.318 28.616,30.268 28.031,30.854 C28.031,30.854 11.780,47.138 11.780,47.138 C10.561,48.395 9.072,49.040 7.370,49.040 C7.370,49.040 6.465,49.040 6.465,49.040 C4.622,49.040 3.039,51.256 3.001,53.102 C3.012,53.766 3.205,55.043 6.465,55.043 C6.465,55.043 8.000,55.043 8.000,55.043 C8.828,55.043 9.500,55.715 9.500,56.544 C9.500,57.373 8.828,58.045 8.000,58.045 Z" id="path-3" class="cls-4" fill-rule="evenodd"/>
  </g>
</svg>
