<svg xmlns="http://www.w3.org/2000/svg" xmlns:xlink="http://www.w3.org/1999/xlink" preserveAspectRatio="xMidYMid" width="44" height="64" viewBox="0 0 44 64">
  <defs>
    <style>

      .cls-3 {
        fill: #e56a77;
      }

      .cls-5 {
        fill: #53ecf4;
      }

      .cls-6 {
        fill: #000000;
      }
    </style>
  </defs>
  <g id="group-1svg">
    <path d="M39.000,13.994 C39.000,13.994 10.000,13.994 10.000,13.994 C10.000,13.994 10.000,3.989 10.000,3.989 C10.000,3.989 39.000,3.989 39.000,3.989 C39.000,3.989 39.000,13.994 39.000,13.994 Z" id="path-1" class="cls-3" fill-rule="evenodd"/>
    <path d="M44.000,24.000 C44.000,24.000 40.000,24.000 40.000,24.000 C40.000,24.000 40.000,18.997 40.000,18.997 C40.000,18.997 9.000,18.997 9.000,18.997 C9.000,18.997 9.000,24.000 9.000,24.000 C9.000,24.000 5.000,24.000 5.000,24.000 C5.000,24.000 5.000,30.004 5.000,30.004 C5.000,30.004 9.000,30.004 9.000,30.004 C9.000,30.004 9.000,63.023 9.000,63.023 C9.000,63.023 40.000,63.023 40.000,63.023 C40.000,63.023 40.000,30.004 40.000,30.004 C40.000,30.004 44.000,30.004 44.000,30.004 C44.000,30.004 44.000,24.000 44.000,24.000 Z" id="path-2" class="cls-3" fill-rule="evenodd"/>
    <path d="M25.000,53.017 C25.000,53.017 40.000,53.017 40.000,53.017 C40.000,53.017 40.000,34.006 40.000,34.006 C40.000,34.006 25.000,34.006 25.000,34.006 C25.000,34.006 25.000,53.017 25.000,53.017 Z" id="path-3" class="cls-5" fill-rule="evenodd"/>
    <path d="M35.500,12.994 C35.500,12.994 6.500,12.994 6.500,12.994 C5.672,12.994 5.000,12.322 5.000,11.493 C5.000,11.493 5.000,1.487 5.000,1.487 C5.000,0.658 5.672,-0.014 6.500,-0.014 C6.500,-0.014 35.500,-0.014 35.500,-0.014 C36.328,-0.014 37.000,0.658 37.000,1.487 C37.000,1.487 37.000,11.493 37.000,11.493 C37.000,12.322 36.328,12.994 35.500,12.994 ZM8.000,9.992 C8.000,9.992 34.000,9.992 34.000,9.992 C34.000,9.992 34.000,2.988 34.000,2.988 C34.000,2.988 8.000,2.988 8.000,2.988 C8.000,2.988 8.000,9.992 8.000,9.992 Z" id="path-4" class="cls-6" fill-rule="evenodd"/>
    <path d="M36.500,62.022 C36.500,62.022 5.500,62.022 5.500,62.022 C4.672,62.022 4.000,61.350 4.000,60.521 C4.000,60.521 4.000,29.003 4.000,29.003 C4.000,29.003 1.500,29.003 1.500,29.003 C0.672,29.003 -0.000,28.331 -0.000,27.502 C-0.000,27.502 -0.000,21.499 -0.000,21.499 C-0.000,20.670 0.672,19.998 1.500,19.998 C1.500,19.998 4.000,19.998 4.000,19.998 C4.000,19.998 4.000,16.496 4.000,16.496 C4.000,15.667 4.672,14.995 5.500,14.995 C5.500,14.995 36.500,14.995 36.500,14.995 C37.328,14.995 38.000,15.667 38.000,16.496 C38.000,16.496 38.000,19.998 38.000,19.998 C38.000,19.998 40.500,19.998 40.500,19.998 C41.328,19.998 42.000,20.670 42.000,21.499 C42.000,21.499 42.000,27.502 42.000,27.502 C42.000,28.331 41.328,29.003 40.500,29.003 C40.500,29.003 38.000,29.003 38.000,29.003 C38.000,29.003 38.000,60.521 38.000,60.521 C38.000,61.350 37.328,62.022 36.500,62.022 ZM7.000,59.020 C7.000,59.020 35.000,59.020 35.000,59.020 C35.000,59.020 35.000,27.502 35.000,27.502 C35.000,26.674 35.672,26.001 36.500,26.001 C36.500,26.001 39.000,26.001 39.000,26.001 C39.000,26.001 39.000,23.000 39.000,23.000 C39.000,23.000 36.500,23.000 36.500,23.000 C35.672,23.000 35.000,22.327 35.000,21.499 C35.000,21.499 35.000,17.997 35.000,17.997 C35.000,17.997 7.000,17.997 7.000,17.997 C7.000,17.997 7.000,21.499 7.000,21.499 C7.000,22.327 6.328,23.000 5.500,23.000 C5.500,23.000 3.000,23.000 3.000,23.000 C3.000,23.000 3.000,26.001 3.000,26.001 C3.000,26.001 5.500,26.001 5.500,26.001 C6.328,26.001 7.000,26.674 7.000,27.502 C7.000,27.502 7.000,59.020 7.000,59.020 Z" id="path-5" class="cls-6" fill-rule="evenodd"/>
    <path d="M29.500,11.493 C28.672,11.493 28.000,10.821 28.000,9.992 C28.000,9.992 28.000,1.987 28.000,1.987 C28.000,1.159 28.672,0.487 29.500,0.487 C30.328,0.487 31.000,1.159 31.000,1.987 C31.000,1.987 31.000,9.992 31.000,9.992 C31.000,10.821 30.328,11.493 29.500,11.493 Z" id="path-6" class="cls-6" fill-rule="evenodd"/>
    <path d="M21.500,11.493 C20.672,11.493 20.000,10.821 20.000,9.992 C20.000,9.992 20.000,1.987 20.000,1.987 C20.000,1.159 20.672,0.487 21.500,0.487 C22.328,0.487 23.000,1.159 23.000,1.987 C23.000,1.987 23.000,9.992 23.000,9.992 C23.000,10.821 22.328,11.493 21.500,11.493 Z" id="path-7" class="cls-6" fill-rule="evenodd"/>
    <path d="M12.500,11.493 C11.672,11.493 11.000,10.821 11.000,9.992 C11.000,9.992 11.000,1.987 11.000,1.987 C11.000,1.159 11.672,0.487 12.500,0.487 C13.328,0.487 14.000,1.159 14.000,1.987 C14.000,1.987 14.000,9.992 14.000,9.992 C14.000,10.821 13.328,11.493 12.500,11.493 Z" id="path-8" class="cls-6" fill-rule="evenodd"/>
    <path d="M36.500,52.016 C36.500,52.016 21.500,52.016 21.500,52.016 C20.672,52.016 20.000,51.344 20.000,50.515 C20.000,50.515 20.000,31.504 20.000,31.504 C20.000,30.676 20.672,30.004 21.500,30.004 C21.500,30.004 36.500,30.004 36.500,30.004 C37.328,30.004 38.000,30.676 38.000,31.504 C38.000,31.504 38.000,50.515 38.000,50.515 C38.000,51.344 37.328,52.016 36.500,52.016 ZM23.000,49.015 C23.000,49.015 35.000,49.015 35.000,49.015 C35.000,49.015 35.000,33.005 35.000,33.005 C35.000,33.005 23.000,33.005 23.000,33.005 C23.000,33.005 23.000,49.015 23.000,49.015 Z" id="path-9" class="cls-6" fill-rule="evenodd"/>
    <path d="M36.000,43.011 C36.000,43.011 29.000,43.011 29.000,43.011 C28.172,43.011 27.500,42.339 27.500,41.510 C27.500,40.682 28.172,40.009 29.000,40.009 C29.000,40.009 36.000,40.009 36.000,40.009 C36.828,40.009 37.500,40.682 37.500,41.510 C37.500,42.339 36.828,43.011 36.000,43.011 Z" id="path-10" class="cls-6" fill-rule="evenodd"/>
  </g>
</svg>
