<svg xmlns="http://www.w3.org/2000/svg" xmlns:xlink="http://www.w3.org/1999/xlink" preserveAspectRatio="xMidYMid" width="65" height="60" viewBox="0 0 65 60">
  <defs>
    <style>

      .cls-3 {
        fill: #53ecf4;
      }

      .cls-4 {
        fill: #000000;
      }

      .cls-5 {
        fill: #e56a77;
      }
    </style>
  </defs>
  <g id="group-24svg">
    <path d="M31.174,31.064 C31.174,31.064 4.491,57.762 4.491,57.762 C4.491,57.762 10.632,63.483 18.892,55.220 C18.892,55.220 30.327,43.777 30.327,43.777 C30.327,43.777 27.785,41.234 27.785,41.234 C27.785,41.234 34.562,34.454 34.562,34.454 C34.562,34.454 31.174,31.064 31.174,31.064 Z" id="path-1" class="cls-3" fill-rule="evenodd"/>
    <path d="M6.915,59.191 C6.915,59.191 6.915,59.191 6.914,59.191 C3.017,59.190 0.571,56.955 0.470,56.860 C0.171,56.582 -0.001,56.195 -0.009,55.789 C-0.016,55.381 0.143,54.989 0.431,54.700 C0.431,54.700 27.113,28.001 27.113,28.001 C27.676,27.438 28.672,27.438 29.234,28.001 C29.234,28.001 32.623,31.392 32.623,31.392 C32.904,31.673 33.062,32.055 33.062,32.453 C33.062,32.851 32.904,33.233 32.623,33.514 C32.623,33.514 26.907,39.233 26.907,39.233 C26.907,39.233 28.388,40.715 28.388,40.715 C28.669,40.996 28.827,41.377 28.827,41.776 C28.827,42.174 28.669,42.556 28.388,42.837 C28.388,42.837 16.952,54.279 16.952,54.279 C13.695,57.539 10.318,59.191 6.915,59.191 ZM3.869,55.504 C4.624,55.858 5.664,56.189 6.915,56.189 C6.915,56.189 6.915,56.189 6.915,56.189 C9.493,56.189 12.156,54.832 14.831,52.157 C14.831,52.157 25.206,41.776 25.206,41.776 C25.206,41.776 23.725,40.294 23.725,40.294 C23.443,40.013 23.285,39.632 23.285,39.233 C23.285,38.836 23.443,38.454 23.725,38.172 C23.725,38.172 29.441,32.453 29.441,32.453 C29.441,32.453 28.174,31.185 28.174,31.185 C28.174,31.185 3.869,55.504 3.869,55.504 Z" id="path-2" class="cls-4" fill-rule="evenodd"/>
    <path d="M37.163,36.997 C37.163,36.997 31.233,31.064 31.233,31.064 C31.233,31.064 57.913,4.369 57.913,4.369 C59.084,3.197 60.984,3.197 62.155,4.369 C62.155,4.369 63.843,6.057 63.843,6.057 C65.014,7.229 65.014,9.129 63.843,10.302 C63.843,10.302 37.163,36.997 37.163,36.997 Z" id="path-3" class="cls-5" fill-rule="evenodd"/>
    <path d="M34.163,36.496 C33.779,36.496 33.395,36.350 33.103,36.057 C33.103,36.057 27.173,30.124 27.173,30.124 C26.587,29.537 26.587,28.588 27.173,28.001 C27.173,28.001 53.853,1.306 53.853,1.306 C54.702,0.456 55.832,-0.012 57.034,-0.012 C58.236,-0.012 59.366,0.456 60.216,1.306 C60.216,1.306 61.903,2.995 61.903,2.995 C63.657,4.750 63.657,7.607 61.903,9.362 C61.903,9.362 35.224,36.057 35.224,36.057 C34.931,36.350 34.547,36.496 34.163,36.496 ZM30.354,29.062 C30.354,29.062 34.163,32.873 34.163,32.873 C34.163,32.873 59.782,7.239 59.782,7.239 C60.366,6.654 60.366,5.702 59.781,5.117 C59.781,5.117 58.095,3.428 58.095,3.428 C57.528,2.862 56.540,2.862 55.974,3.428 C55.974,3.428 30.354,29.062 30.354,29.062 Z" id="path-4" class="cls-4" fill-rule="evenodd"/>
  </g>
</svg>
