<svg xmlns="http://www.w3.org/2000/svg" xmlns:xlink="http://www.w3.org/1999/xlink" preserveAspectRatio="xMidYMid" width="65" height="59" viewBox="0 0 65 59">
  <defs>
    <style>

      .cls-3 {
        fill: #99746a;
      }

      .cls-4 {
        fill: #ffffff;
      }

      .cls-6 {
        fill: #000000;
      }
    </style>
  </defs>
  <g id="group-21svg">
    <path d="M65.000,54.042 C65.000,56.252 63.209,58.044 61.000,58.044 C61.000,58.044 9.000,58.044 9.000,58.044 C6.791,58.044 5.000,56.252 5.000,54.042 C5.000,54.042 5.000,15.019 5.000,15.019 C5.000,12.809 6.791,11.017 9.000,11.017 C9.000,11.017 61.000,11.017 61.000,11.017 C63.209,11.017 65.000,12.809 65.000,15.019 C65.000,15.019 65.000,54.042 65.000,54.042 Z" id="path-1" class="cls-3" fill-rule="evenodd"/>
    <path d="M48.000,40.034 C48.000,40.034 56.000,40.034 56.000,40.034 C56.000,40.034 56.000,35.031 56.000,35.031 C56.000,35.031 48.000,35.031 48.000,35.031 C48.000,35.031 48.000,40.034 48.000,40.034 Z" id="path-2" class="cls-4" fill-rule="evenodd"/>
    <path d="M14.000,40.034 C14.000,40.034 22.000,40.034 22.000,40.034 C22.000,40.034 22.000,35.031 22.000,35.031 C22.000,35.031 14.000,35.031 14.000,35.031 C14.000,35.031 14.000,40.034 14.000,40.034 Z" id="path-3" class="cls-4" fill-rule="evenodd"/>
    <path d="M57.500,57.044 C57.500,57.044 5.500,57.044 5.500,57.044 C2.468,57.044 -0.000,54.575 -0.000,51.541 C-0.000,51.541 -0.000,12.518 -0.000,12.518 C-0.000,9.484 2.468,7.015 5.500,7.015 C5.500,7.015 57.500,7.015 57.500,7.015 C60.532,7.015 63.000,9.484 63.000,12.518 C63.000,12.518 63.000,51.541 63.000,51.541 C63.000,54.575 60.532,57.044 57.500,57.044 ZM5.500,10.016 C4.121,10.016 3.000,11.138 3.000,12.518 C3.000,12.518 3.000,51.541 3.000,51.541 C3.000,52.920 4.121,54.042 5.500,54.042 C5.500,54.042 57.500,54.042 57.500,54.042 C58.879,54.042 60.000,52.920 60.000,51.541 C60.000,51.541 60.000,12.518 60.000,12.518 C60.000,11.138 58.879,10.016 57.500,10.016 C57.500,10.016 5.500,10.016 5.500,10.016 Z" id="path-4" class="cls-6" fill-rule="evenodd"/>
    <path d="M41.500,9.516 C40.672,9.516 40.000,8.844 40.000,8.015 C40.000,8.015 40.000,3.012 40.000,3.012 C40.000,3.012 22.000,3.012 22.000,3.012 C22.000,3.012 22.000,8.015 22.000,8.015 C22.000,8.844 21.328,9.516 20.500,9.516 C19.672,9.516 19.000,8.844 19.000,8.015 C19.000,8.015 19.000,1.512 19.000,1.512 C19.000,0.683 19.672,0.011 20.500,0.011 C20.500,0.011 41.500,0.011 41.500,0.011 C42.328,0.011 43.000,0.683 43.000,1.512 C43.000,1.512 43.000,8.015 43.000,8.015 C43.000,8.844 42.328,9.516 41.500,9.516 Z" id="path-5" class="cls-6" fill-rule="evenodd"/>
    <path d="M31.500,27.527 C30.672,27.527 30.000,26.854 30.000,26.026 C30.000,26.026 30.000,14.019 30.000,14.019 C30.000,13.190 30.672,12.518 31.500,12.518 C32.328,12.518 33.000,13.190 33.000,14.019 C33.000,14.019 33.000,26.026 33.000,26.026 C33.000,26.854 32.328,27.527 31.500,27.527 Z" id="path-6" class="cls-6" fill-rule="evenodd"/>
    <path d="M37.000,22.023 C37.000,22.023 26.000,22.023 26.000,22.023 C25.172,22.023 24.500,21.351 24.500,20.523 C24.500,19.694 25.172,19.022 26.000,19.022 C26.000,19.022 37.000,19.022 37.000,19.022 C37.828,19.022 38.500,19.694 38.500,20.523 C38.500,21.351 37.828,22.023 37.000,22.023 Z" id="path-7" class="cls-6" fill-rule="evenodd"/>
    <path d="M52.500,39.033 C52.500,39.033 44.500,39.033 44.500,39.033 C43.672,39.033 43.000,38.361 43.000,37.532 C43.000,37.532 43.000,32.530 43.000,32.530 C43.000,31.701 43.672,31.029 44.500,31.029 C44.500,31.029 52.500,31.029 52.500,31.029 C53.328,31.029 54.000,31.701 54.000,32.530 C54.000,32.530 54.000,37.532 54.000,37.532 C54.000,38.361 53.328,39.033 52.500,39.033 ZM46.000,36.032 C46.000,36.032 51.000,36.032 51.000,36.032 C51.000,36.032 51.000,34.030 51.000,34.030 C51.000,34.030 46.000,34.030 46.000,34.030 C46.000,34.030 46.000,36.032 46.000,36.032 Z" id="path-8" class="cls-6" fill-rule="evenodd"/>
    <path d="M18.500,39.033 C18.500,39.033 10.500,39.033 10.500,39.033 C9.672,39.033 9.000,38.361 9.000,37.532 C9.000,37.532 9.000,32.530 9.000,32.530 C9.000,31.701 9.672,31.029 10.500,31.029 C10.500,31.029 18.500,31.029 18.500,31.029 C19.328,31.029 20.000,31.701 20.000,32.530 C20.000,32.530 20.000,37.532 20.000,37.532 C20.000,38.361 19.328,39.033 18.500,39.033 ZM12.000,36.032 C12.000,36.032 17.000,36.032 17.000,36.032 C17.000,36.032 17.000,34.030 17.000,34.030 C17.000,34.030 12.000,34.030 12.000,34.030 C12.000,34.030 12.000,36.032 12.000,36.032 Z" id="path-9" class="cls-6" fill-rule="evenodd"/>
    <path d="M61.000,33.030 C61.000,33.030 2.000,33.030 2.000,33.030 C1.172,33.030 0.500,32.358 0.500,31.529 C0.500,30.700 1.172,30.028 2.000,30.028 C2.000,30.028 61.000,30.028 61.000,30.028 C61.828,30.028 62.500,30.700 62.500,31.529 C62.500,32.358 61.828,33.030 61.000,33.030 Z" id="path-10" class="cls-6" fill-rule="evenodd"/>
  </g>
</svg>
