<svg xmlns="http://www.w3.org/2000/svg" xmlns:xlink="http://www.w3.org/1999/xlink" preserveAspectRatio="xMidYMid" width="40" height="62" viewBox="0 0 40 62">
  <defs>
    <style>

      .cls-3 {
        fill: #e56a77;
      }

      .cls-4 {
        fill: #000000;
      }
    </style>
  </defs>
  <g id="group-29svg">
    <path d="M39.853,55.322 C39.853,58.258 37.474,60.639 34.540,60.639 C31.605,60.639 29.227,58.258 29.227,55.322 C29.227,52.386 31.605,50.006 34.540,50.006 C37.474,50.006 39.853,52.386 39.853,55.322 Z" id="path-1" class="cls-3" fill-rule="evenodd"/>
    <path d="M21.344,2.050 C21.344,3.134 20.465,4.013 19.382,4.013 C19.382,4.013 17.306,4.013 17.306,4.013 C16.222,4.013 15.344,3.134 15.344,2.050 C15.344,2.050 15.344,1.974 15.344,1.974 C15.344,0.890 16.222,0.011 17.306,0.011 C17.306,0.011 19.382,0.011 19.382,0.011 C20.465,0.011 21.344,0.890 21.344,1.974 C21.344,1.974 21.344,2.050 21.344,2.050 Z" id="path-2" class="cls-4" fill-rule="evenodd"/>
    <path d="M11.344,2.050 C11.344,3.134 10.465,4.013 9.382,4.013 C9.382,4.013 7.306,4.013 7.306,4.013 C6.222,4.013 5.344,3.134 5.344,2.050 C5.344,2.050 5.344,1.974 5.344,1.974 C5.344,0.890 6.222,0.011 7.306,0.011 C7.306,0.011 9.382,0.011 9.382,0.011 C10.465,0.011 11.344,0.890 11.344,1.974 C11.344,1.974 11.344,2.050 11.344,2.050 Z" id="path-3" class="cls-4" fill-rule="evenodd"/>
    <path d="M13.517,32.999 C11.683,32.999 6.519,31.345 2.846,14.019 C2.846,14.019 2.304,14.019 2.304,14.019 C1.693,14.019 1.143,13.648 0.914,13.082 C0.829,12.873 -1.135,7.918 0.944,4.046 C2.046,1.995 4.010,0.670 6.779,0.109 C7.593,-0.048 8.383,0.471 8.547,1.284 C8.711,2.096 8.186,2.887 7.374,3.052 C5.494,3.433 4.255,4.222 3.587,5.468 C2.611,7.283 3.042,9.707 3.397,11.017 C3.397,11.017 4.068,11.017 4.068,11.017 C4.784,11.017 5.399,11.522 5.539,12.224 C8.768,28.391 12.964,29.860 13.514,29.980 C13.752,29.886 13.693,29.886 13.926,29.980 C14.480,29.853 18.635,28.353 21.856,12.224 C21.996,11.522 22.611,11.017 23.327,11.017 C23.327,11.017 24.173,11.017 24.173,11.017 C24.528,9.727 24.955,7.354 23.986,5.553 C23.319,4.313 22.078,3.524 20.191,3.142 C19.379,2.978 18.854,2.187 19.018,1.374 C19.182,0.562 19.975,0.034 20.786,0.201 C23.569,0.764 25.537,2.092 26.636,4.146 C28.692,7.990 26.733,12.880 26.649,13.087 C26.418,13.650 25.870,14.019 25.261,14.019 C25.261,14.019 24.549,14.019 24.549,14.019 C20.734,32.019 15.331,33.101 13.720,32.992 C13.658,32.997 13.590,32.999 13.517,32.999 Z" id="path-4" class="cls-4" fill-rule="evenodd"/>
    <path d="M31.776,50.506 C31.595,50.506 31.410,50.473 31.231,50.402 C30.459,50.101 30.079,49.231 30.380,48.459 C32.621,42.718 33.411,37.327 32.570,36.692 C32.564,36.684 31.572,36.343 28.238,38.873 C24.007,42.085 20.367,43.051 17.421,41.737 C12.611,39.598 11.928,32.215 11.901,31.902 C11.831,31.077 12.442,30.350 13.268,30.279 C14.083,30.208 14.819,30.821 14.890,31.645 C15.036,33.293 15.995,37.823 18.645,38.997 C20.974,40.027 24.162,38.199 26.425,36.481 C28.749,34.718 32.102,32.576 34.379,34.297 C37.693,36.804 34.640,45.800 33.174,49.551 C32.942,50.144 32.376,50.506 31.776,50.506 Z" id="path-5" class="cls-4" fill-rule="evenodd"/>
    <path d="M30.540,61.139 C26.783,61.139 23.726,58.080 23.726,54.321 C23.726,50.562 26.783,47.504 30.540,47.504 C34.296,47.504 37.353,50.562 37.353,54.321 C37.353,58.080 34.296,61.139 30.540,61.139 ZM30.540,50.506 C28.437,50.506 26.727,52.218 26.727,54.321 C26.727,56.425 28.437,58.137 30.540,58.137 C32.642,58.137 34.353,56.425 34.353,54.321 C34.353,52.218 32.642,50.506 30.540,50.506 Z" id="path-6" class="cls-4" fill-rule="evenodd"/>
  </g>
</svg>
