<svg xmlns="http://www.w3.org/2000/svg" xmlns:xlink="http://www.w3.org/1999/xlink" preserveAspectRatio="xMidYMid" width="67" height="64" viewBox="0 0 67 64">
  <defs>
    <style>

      .cls-3 {
        fill: #edc951;
      }

      .cls-4 {
        fill: #000000;
      }
    </style>
  </defs>
  <g id="group-20svg">
    <path d="M63.359,24.151 C63.359,24.151 60.586,21.377 60.586,21.377 C60.586,21.377 63.842,18.120 63.842,18.120 C68.144,13.815 66.814,5.996 59.941,3.807 C57.194,2.932 54.182,3.741 52.143,5.781 C52.143,5.781 48.570,9.355 48.570,9.355 C48.570,9.355 45.798,6.581 45.798,6.581 C44.777,5.559 43.122,5.559 42.101,6.581 C42.101,6.581 40.252,8.430 40.252,8.430 C39.231,9.451 39.231,11.108 40.252,12.129 C40.252,12.129 43.025,14.904 43.025,14.904 C43.025,14.904 12.203,45.744 12.203,45.744 C11.238,46.708 11.149,48.378 12.164,49.289 C13.220,50.236 13.361,51.982 12.365,52.980 C12.365,52.980 7.548,57.800 7.548,57.800 C6.507,58.841 6.162,60.465 6.866,61.759 C7.937,63.726 10.546,64.048 12.018,62.575 C12.018,62.575 16.944,57.645 16.944,57.645 C17.908,56.681 19.577,56.592 20.487,57.607 C21.435,58.663 23.180,58.805 24.176,57.808 C24.176,57.808 55.041,26.926 55.041,26.926 C55.041,26.926 57.813,29.700 57.813,29.700 C58.830,30.718 60.494,30.718 61.511,29.700 C61.511,29.700 63.359,27.851 63.359,27.851 C64.375,26.834 64.375,25.168 63.359,24.151 Z" id="path-1" class="cls-3" fill-rule="evenodd"/>
    <path d="M4.774,62.992 C3.014,62.992 1.395,62.028 0.549,60.475 C-0.447,58.646 -0.062,56.287 1.487,54.737 C1.487,54.737 6.305,49.917 6.305,49.917 C6.519,49.703 6.543,49.409 6.539,49.253 C6.530,48.925 6.390,48.609 6.162,48.405 C5.404,47.725 4.971,46.767 4.942,45.709 C4.912,44.579 5.350,43.475 6.143,42.682 C6.143,42.682 35.904,12.903 35.904,12.903 C35.904,12.903 34.192,11.189 34.192,11.189 C33.415,10.412 32.987,9.378 32.987,8.279 C32.987,7.179 33.415,6.145 34.192,5.367 C34.192,5.367 36.040,3.518 36.040,3.518 C36.817,2.740 37.851,2.313 38.949,2.313 C40.049,2.313 41.082,2.740 41.859,3.518 C41.859,3.518 43.570,5.231 43.570,5.231 C43.570,5.231 46.082,2.718 46.082,2.718 C48.501,0.298 52.206,-0.640 55.396,0.375 C59.072,1.546 61.671,4.238 62.527,7.761 C63.359,11.182 62.378,14.703 59.902,17.180 C59.902,17.180 57.707,19.376 57.707,19.376 C57.707,19.376 59.420,21.089 59.420,21.089 C60.195,21.864 60.622,22.898 60.622,24.000 C60.622,25.102 60.195,26.136 59.420,26.911 C59.420,26.911 57.571,28.760 57.571,28.760 C56.797,29.536 55.764,29.963 54.662,29.963 C53.561,29.963 52.527,29.536 51.753,28.760 C51.753,28.760 50.041,27.047 50.041,27.047 C50.041,27.047 20.236,56.869 20.236,56.869 C19.519,57.587 18.541,57.982 17.483,57.982 C16.289,57.982 15.155,57.482 14.371,56.609 C14.204,56.422 13.968,56.383 13.799,56.383 C13.504,56.383 13.207,56.503 13.005,56.705 C13.005,56.705 8.078,61.636 8.078,61.636 C7.204,62.510 6.030,62.992 4.774,62.992 ZM38.949,5.314 C38.652,5.314 38.372,5.430 38.161,5.641 C38.161,5.641 36.313,7.490 36.313,7.490 C36.103,7.701 35.987,7.981 35.987,8.279 C35.987,8.576 36.103,8.855 36.313,9.065 C36.313,9.065 39.086,11.841 39.086,11.841 C39.672,12.428 39.672,13.378 39.086,13.964 C39.086,13.964 8.264,44.804 8.264,44.804 C8.054,45.014 7.933,45.322 7.941,45.628 C7.945,45.787 7.988,46.011 8.166,46.171 C9.007,46.925 9.507,48.020 9.538,49.172 C9.567,50.274 9.173,51.292 8.426,52.040 C8.426,52.040 3.608,56.860 3.608,56.860 C3.004,57.465 2.825,58.381 3.184,59.039 C3.508,59.635 4.103,59.990 4.774,59.990 C5.229,59.990 5.649,59.820 5.957,59.514 C5.957,59.514 10.884,54.583 10.884,54.583 C11.647,53.819 12.709,53.381 13.799,53.381 C14.900,53.381 15.897,53.815 16.603,54.604 C16.815,54.840 17.144,54.981 17.483,54.981 C17.632,54.981 17.911,54.950 18.115,54.746 C18.115,54.746 48.980,23.863 48.980,23.863 C49.262,23.582 49.644,23.423 50.041,23.423 C50.041,23.423 50.041,23.423 50.041,23.423 C50.439,23.423 50.820,23.582 51.102,23.863 C51.102,23.863 53.874,26.638 53.874,26.638 C54.290,27.054 55.034,27.054 55.450,26.638 C55.450,26.638 57.299,24.788 57.299,24.788 C57.733,24.354 57.733,23.646 57.299,23.211 C57.299,23.211 54.525,20.437 54.525,20.437 C54.244,20.156 54.086,19.775 54.086,19.376 C54.086,18.978 54.244,18.596 54.525,18.315 C54.525,18.315 57.781,15.057 57.781,15.057 C59.510,13.328 60.194,10.865 59.612,8.470 C59.010,5.989 57.141,4.081 54.486,3.236 C52.347,2.555 49.845,3.199 48.203,4.840 C48.203,4.840 44.631,8.415 44.631,8.415 C44.045,9.001 43.096,9.001 42.510,8.415 C42.510,8.415 39.737,5.641 39.737,5.641 C39.526,5.430 39.247,5.314 38.949,5.314 Z" id="path-2" class="cls-4" fill-rule="evenodd"/>
    <path d="M49.578,25.963 C49.194,25.963 48.810,25.816 48.518,25.523 C48.518,25.523 36.503,13.502 36.503,13.502 C35.917,12.915 35.917,11.966 36.503,11.379 C37.089,10.793 38.038,10.793 38.624,11.379 C38.624,11.379 50.639,23.401 50.639,23.401 C51.225,23.987 51.225,24.937 50.639,25.523 C50.346,25.816 49.962,25.963 49.578,25.963 Z" id="path-3" class="cls-4" fill-rule="evenodd"/>
    <path d="M55.124,20.415 C54.740,20.415 54.356,20.268 54.063,19.975 C54.063,19.975 42.048,7.952 42.048,7.952 C41.462,7.366 41.462,6.416 42.048,5.830 C42.634,5.244 43.583,5.244 44.169,5.830 C44.169,5.830 56.185,17.853 56.185,17.853 C56.770,18.439 56.770,19.389 56.185,19.975 C55.892,20.268 55.508,20.415 55.124,20.415 Z" id="path-4" class="cls-4" fill-rule="evenodd"/>
  </g>
</svg>
