<svg xmlns="http://www.w3.org/2000/svg" xmlns:xlink="http://www.w3.org/1999/xlink" preserveAspectRatio="xMidYMid" width="49" height="66" viewBox="0 0 49 66">
  <defs>
    <style>

      .cls-3 {
        fill: #8b71b5;
      }

      .cls-4 {
        fill: #81bda4;
      }

      .cls-6 {
        fill: #000000;
      }
    </style>
  </defs>
  <g id="group-5svg">
    <path d="M35.750,22.003 C35.750,22.003 35.750,13.994 35.750,13.994 C35.750,13.994 27.871,13.994 27.871,13.994 C27.871,13.994 15.750,13.994 15.750,13.994 C15.750,13.994 15.750,22.003 15.750,22.003 C15.750,22.003 0.817,25.288 6.532,50.660 C6.532,50.660 12.671,65.023 12.671,65.023 C12.671,65.023 27.871,65.023 27.871,65.023 C27.871,65.023 43.228,65.023 43.228,65.023 C43.228,65.023 47.168,50.660 47.168,50.660 C52.882,25.288 35.750,22.003 35.750,22.003 Z" id="path-1" class="cls-3" fill-rule="evenodd"/>
    <path d="M47.869,35.006 C47.869,35.006 21.750,35.006 21.750,35.006 C21.750,35.006 21.750,54.017 21.750,54.017 C21.750,54.017 46.327,54.017 46.327,54.017 C46.327,54.017 50.200,41.009 47.869,35.006 Z" id="path-2" class="cls-4" fill-rule="evenodd"/>
    <path d="M23.013,4.989 C23.013,4.989 31.013,4.989 31.013,4.989 C31.565,4.989 31.750,5.630 31.750,6.183 C31.750,6.183 31.750,13.994 31.750,13.994 C31.750,13.994 21.750,13.994 21.750,13.994 C21.750,13.994 21.750,6.183 21.750,6.183 C21.750,5.630 22.460,4.989 23.013,4.989 Z" id="path-3" class="cls-4" fill-rule="evenodd"/>
    <path d="M39.228,63.022 C39.228,63.022 8.671,63.022 8.671,63.022 C8.065,63.022 7.519,62.659 7.287,62.100 C7.287,62.100 1.398,47.987 1.398,47.987 C1.364,47.907 1.338,47.824 1.319,47.739 C-0.975,37.557 -0.299,29.563 3.327,23.976 C5.808,20.155 9.028,18.528 10.750,17.893 C10.750,17.893 10.750,10.492 10.750,10.492 C10.750,9.663 11.422,8.991 12.250,8.991 C12.250,8.991 32.250,8.991 32.250,8.991 C33.078,8.991 33.750,9.663 33.750,10.492 C33.750,10.492 33.750,17.853 33.750,17.853 C35.736,18.497 39.701,20.266 42.623,24.673 C46.314,30.241 47.074,38.002 44.881,47.739 C44.874,47.771 44.865,47.803 44.855,47.836 C44.855,47.836 40.666,61.948 40.666,61.948 C40.478,62.585 39.893,63.022 39.228,63.022 ZM9.670,60.020 C9.670,60.020 38.109,60.020 38.109,60.020 C38.109,60.020 41.966,47.029 41.966,47.029 C43.958,38.146 43.338,31.182 40.123,26.332 C36.856,21.404 32.033,20.488 31.984,20.479 C31.270,20.350 30.750,19.729 30.750,19.002 C30.750,19.002 30.750,11.993 30.750,11.993 C30.750,11.993 13.750,11.993 13.750,11.993 C13.750,11.993 13.750,19.002 13.750,19.002 C13.750,19.717 13.245,20.333 12.544,20.473 C12.391,20.506 8.565,21.361 5.798,25.683 C2.684,30.543 2.152,37.699 4.217,46.951 C4.217,46.951 9.670,60.020 9.670,60.020 Z" id="path-4" class="cls-6" fill-rule="evenodd"/>
    <path d="M41.818,52.016 C41.818,52.016 18.250,52.016 18.250,52.016 C17.422,52.016 16.750,51.344 16.750,50.515 C16.750,50.515 16.750,31.504 16.750,31.504 C16.750,30.675 17.422,30.003 18.250,30.003 C18.250,30.003 43.585,30.003 43.585,30.003 C44.163,30.003 44.690,30.336 44.939,30.859 C48.028,37.349 43.429,50.463 43.231,51.018 C43.019,51.616 42.453,52.016 41.818,52.016 ZM19.750,49.014 C19.750,49.014 40.741,49.014 40.741,49.014 C41.968,45.193 43.901,37.347 42.561,33.005 C42.561,33.005 19.750,33.005 19.750,33.005 C19.750,33.005 19.750,49.014 19.750,49.014 Z" id="path-5" class="cls-6" fill-rule="evenodd"/>
    <path d="M27.513,11.993 C27.513,11.993 19.513,11.993 19.513,11.993 C17.937,11.993 16.750,11.001 16.750,9.685 C16.750,9.685 16.750,2.681 16.750,2.681 C16.750,1.320 18.118,-0.014 19.513,-0.014 C19.513,-0.014 27.513,-0.014 27.513,-0.014 C28.830,-0.014 29.750,1.094 29.750,2.681 C29.750,2.681 29.750,9.685 29.750,9.685 C29.750,11.087 28.872,11.993 27.513,11.993 ZM27.513,8.991 C27.513,8.991 27.513,10.492 27.513,10.492 C27.513,10.492 27.519,8.991 27.519,8.991 C27.517,8.991 27.515,8.991 27.513,8.991 ZM19.750,8.991 C19.750,8.991 26.750,8.991 26.750,8.991 C26.750,8.991 26.750,2.987 26.750,2.987 C26.750,2.987 19.750,2.987 19.750,2.987 C19.750,2.987 19.750,8.991 19.750,8.991 Z" id="path-6" class="cls-6" fill-rule="evenodd"/>
    <path d="M31.750,19.997 C31.750,19.997 13.750,19.997 13.750,19.997 C12.922,19.997 12.250,19.325 12.250,18.496 C12.250,17.668 12.922,16.995 13.750,16.995 C13.750,16.995 31.750,16.995 31.750,16.995 C32.578,16.995 33.250,17.668 33.250,18.496 C33.250,19.325 32.578,19.997 31.750,19.997 Z" id="path-7" class="cls-6" fill-rule="evenodd"/>
  </g>
</svg>
