<svg xmlns="http://www.w3.org/2000/svg" xmlns:xlink="http://www.w3.org/1999/xlink" preserveAspectRatio="xMidYMid" width="67" height="64" viewBox="0 0 67 64">
  <defs>
    <style>

      .cls-3 {
        fill: #99746a;
      }

      .cls-4 {
        fill: #53ecf4;
      }

      .cls-6 {
        fill: #000000;
      }
    </style>
  </defs>
  <g id="group-12svg">
    <path d="M58.781,18.518 C58.781,18.518 51.483,11.216 51.483,11.216 C51.483,11.216 6.483,47.318 6.483,47.318 C6.483,47.318 22.700,63.544 22.700,63.544 C22.700,63.544 58.781,18.518 58.781,18.518 Z" id="path-1" class="cls-3" fill-rule="evenodd"/>
    <path d="M51.483,11.216 C51.483,11.216 58.781,18.518 58.781,18.518 C58.781,18.518 66.483,6.754 66.483,6.754 C66.483,6.754 63.240,3.509 63.240,3.509 C63.240,3.509 55.937,8.297 55.937,8.297 C55.937,8.297 51.483,11.216 51.483,11.216 Z" id="path-2" class="cls-4" fill-rule="evenodd"/>
    <path d="M33.240,36.771 C33.240,36.771 38.888,42.422 38.888,42.422 C38.888,42.422 49.428,30.253 49.428,30.253 C49.428,30.253 44.591,25.414 44.591,25.414 C44.591,25.414 33.240,36.771 33.240,36.771 Z" id="path-3" class="cls-4" fill-rule="evenodd"/>
    <path d="M17.700,63.044 C17.303,63.044 16.921,62.886 16.639,62.604 C16.639,62.604 0.423,46.378 0.423,46.378 C0.121,46.076 -0.038,45.661 -0.014,45.235 C0.009,44.809 0.212,44.413 0.545,44.146 C0.545,44.146 45.545,8.044 45.545,8.044 C46.143,7.564 47.004,7.613 47.544,8.154 C47.544,8.154 54.841,15.456 54.841,15.456 C55.382,15.997 55.430,16.859 54.951,17.456 C54.951,17.456 18.870,62.482 18.870,62.482 C18.603,62.814 18.207,63.018 17.782,63.042 C17.754,63.043 17.727,63.044 17.700,63.044 ZM3.728,45.440 C3.728,45.440 17.577,59.297 17.577,59.297 C17.577,59.297 51.769,16.627 51.769,16.627 C51.769,16.627 46.373,11.227 46.373,11.227 C46.373,11.227 3.728,45.440 3.728,45.440 Z" id="path-4" class="cls-6" fill-rule="evenodd"/>
    <path d="M53.781,18.018 C53.385,18.018 53.003,17.861 52.720,17.578 C52.720,17.578 45.423,10.276 45.423,10.276 C45.104,9.956 44.945,9.510 44.991,9.060 C45.038,8.612 45.284,8.206 45.662,7.959 C45.662,7.959 57.418,0.253 57.418,0.253 C58.013,-0.137 58.799,-0.056 59.301,0.447 C59.301,0.447 62.544,3.692 62.544,3.692 C63.046,4.194 63.127,4.981 62.738,5.576 C62.738,5.576 55.036,17.340 55.036,17.340 C54.788,17.717 54.384,17.964 53.935,18.010 C53.883,18.015 53.832,18.018 53.781,18.018 ZM48.849,9.459 C48.849,9.459 53.537,14.150 53.537,14.150 C53.537,14.150 59.560,4.952 59.560,4.952 C59.560,4.952 58.042,3.432 58.042,3.432 C58.042,3.432 48.849,9.459 48.849,9.459 Z" id="path-5" class="cls-6" fill-rule="evenodd"/>
    <path d="M33.888,41.960 C33.491,41.960 33.109,41.784 32.827,41.502 C32.827,41.502 27.180,35.841 27.180,35.841 C26.594,35.255 26.594,34.301 27.180,33.714 C27.180,33.714 38.531,22.354 38.531,22.354 C39.093,21.791 40.089,21.789 40.652,22.352 C40.652,22.352 45.489,27.191 45.489,27.191 C46.045,27.748 46.077,28.641 45.562,29.236 C45.562,29.236 35.021,41.424 35.021,41.424 C34.748,41.738 34.357,41.960 33.941,41.960 C33.923,41.960 33.905,41.960 33.888,41.960 ZM30.361,34.771 C30.361,34.771 33.809,38.220 33.809,38.220 C33.809,38.220 42.380,28.325 42.380,28.325 C42.380,28.325 39.591,25.535 39.591,25.535 C39.591,25.535 30.361,34.771 30.361,34.771 Z" id="path-6" class="cls-6" fill-rule="evenodd"/>
    <path d="M57.024,13.150 C56.640,13.150 56.256,13.003 55.963,12.710 C55.963,12.710 50.288,7.031 50.288,7.031 C49.702,6.445 49.702,5.495 50.288,4.909 C50.873,4.322 51.823,4.322 52.409,4.909 C52.409,4.909 58.084,10.588 58.084,10.588 C58.670,11.174 58.670,12.124 58.084,12.710 C57.791,13.003 57.408,13.150 57.024,13.150 Z" id="path-7" class="cls-6" fill-rule="evenodd"/>
    <path d="M22.159,56.147 C21.775,56.147 21.392,56.001 21.099,55.708 C21.099,55.708 7.315,41.916 7.315,41.916 C6.729,41.330 6.729,40.380 7.315,39.794 C7.901,39.208 8.850,39.208 9.436,39.794 C9.436,39.794 23.220,53.585 23.220,53.585 C23.806,54.171 23.806,55.121 23.220,55.708 C22.927,56.001 22.543,56.147 22.159,56.147 Z" id="path-8" class="cls-6" fill-rule="evenodd"/>
    <path d="M9.997,54.525 C9.613,54.525 9.229,54.379 8.937,54.085 C8.351,53.499 8.351,52.549 8.937,51.963 C8.937,51.963 13.801,47.095 13.801,47.095 C14.386,46.509 15.336,46.509 15.922,47.095 C16.508,47.681 16.508,48.631 15.922,49.217 C15.922,49.217 11.058,54.085 11.058,54.085 C10.765,54.379 10.381,54.525 9.997,54.525 Z" id="path-9" class="cls-6" fill-rule="evenodd"/>
    <path d="M14.051,58.581 C13.667,58.581 13.283,58.435 12.990,58.142 C12.404,57.555 12.404,56.605 12.990,56.019 C12.990,56.019 17.855,51.152 17.855,51.152 C18.441,50.566 19.392,50.566 19.977,51.152 C20.562,51.738 20.562,52.688 19.977,53.274 C19.977,53.274 15.111,58.142 15.111,58.142 C14.818,58.435 14.435,58.581 14.051,58.581 Z" id="path-10" class="cls-6" fill-rule="evenodd"/>
    <path d="M6.753,51.280 C6.370,51.280 5.986,51.134 5.693,50.840 C5.107,50.254 5.107,49.304 5.693,48.718 C5.693,48.718 10.558,43.850 10.558,43.850 C11.144,43.264 12.093,43.264 12.679,43.850 C13.265,44.436 13.265,45.386 12.679,45.972 C12.679,45.972 7.814,50.840 7.814,50.840 C7.521,51.134 7.137,51.280 6.753,51.280 Z" id="path-11" class="cls-6" fill-rule="evenodd"/>
  </g>
</svg>
