<svg xmlns="http://www.w3.org/2000/svg" xmlns:xlink="http://www.w3.org/1999/xlink" preserveAspectRatio="xMidYMid" width="31" height="65" viewBox="0 0 31 65">
  <defs>
    <style>

      .cls-3 {
        fill: #e56a77;
      }

      .cls-4 {
        fill: #81bda4;
      }

      .cls-5 {
        fill: #000000;
      }
    </style>
  </defs>
  <g id="group-13svg">
    <path d="M11.248,57.031 C11.248,57.031 24.888,57.031 24.888,57.031 C24.888,57.031 30.659,5.001 30.659,5.001 C30.659,5.001 5.477,5.001 5.477,5.001 C5.477,5.001 11.248,57.031 11.248,57.031 Z" id="path-1" class="cls-3" fill-rule="evenodd"/>
    <path d="M24.789,56.685 C24.789,56.685 11.214,56.748 11.214,56.748 C11.214,56.748 11.249,64.097 11.249,64.097 C11.249,64.097 24.823,64.034 24.823,64.034 C24.823,64.034 24.789,56.685 24.789,56.685 Z" id="path-2" class="cls-4" fill-rule="evenodd"/>
    <path d="M7.248,63.035 C6.853,63.035 6.474,62.659 6.193,62.381 C5.910,62.100 5.750,61.610 5.748,61.212 C5.748,61.212 5.714,53.808 5.714,53.808 C5.710,52.979 6.379,52.200 7.207,52.196 C7.207,52.196 20.782,52.029 20.782,52.029 C20.784,52.029 20.786,52.029 20.789,52.029 C21.184,52.029 21.563,52.262 21.844,52.540 C22.127,52.821 22.287,53.239 22.289,53.638 C22.289,53.638 22.323,61.006 22.323,61.006 C22.327,61.835 21.658,62.738 20.830,62.742 C20.830,62.742 7.255,63.035 7.255,63.035 C7.253,63.035 7.251,63.035 7.248,63.035 ZM8.721,55.240 C8.721,55.240 8.742,59.588 8.742,59.588 C8.742,59.588 19.316,59.538 19.316,59.538 C19.316,59.538 19.295,55.191 19.295,55.191 C19.295,55.191 8.721,55.240 8.721,55.240 Z" id="path-3" class="cls-5" fill-rule="evenodd"/>
    <path d="M20.888,55.030 C20.888,55.030 7.248,55.030 7.248,55.030 C6.484,55.030 5.841,54.455 5.757,53.695 C5.757,53.695 -0.014,1.664 -0.014,1.664 C-0.061,1.240 0.075,0.816 0.359,0.499 C0.644,0.180 1.050,-0.002 1.477,-0.002 C1.477,-0.002 26.659,-0.002 26.659,-0.002 C27.086,-0.002 27.492,0.180 27.777,0.499 C28.062,0.816 28.197,1.240 28.150,1.664 C28.150,1.664 22.379,53.695 22.379,53.695 C22.295,54.455 21.652,55.030 20.888,55.030 ZM8.591,52.029 C8.591,52.029 19.545,52.029 19.545,52.029 C19.545,52.029 24.983,3.000 24.983,3.000 C24.983,3.000 3.153,3.000 3.153,3.000 C3.153,3.000 8.591,52.029 8.591,52.029 Z" id="path-4" class="cls-5" fill-rule="evenodd"/>
    <path d="M23.906,10.004 C23.906,10.004 2.906,10.004 2.906,10.004 C2.078,10.004 1.406,9.332 1.406,8.503 C1.406,7.675 2.078,7.003 2.906,7.003 C2.906,7.003 23.906,7.003 23.906,7.003 C24.735,7.003 25.406,7.675 25.406,8.503 C25.406,9.332 24.735,10.004 23.906,10.004 Z" id="path-5" class="cls-5" fill-rule="evenodd"/>
    <path d="M13.406,9.504 C12.578,9.504 11.906,8.832 11.906,8.003 C11.906,8.003 11.906,2.000 11.906,2.000 C11.906,1.171 12.578,0.499 13.406,0.499 C14.235,0.499 14.906,1.171 14.906,2.000 C14.906,2.000 14.906,8.003 14.906,8.003 C14.906,8.832 14.235,9.504 13.406,9.504 Z" id="path-6" class="cls-5" fill-rule="evenodd"/>
    <path d="M7.406,9.504 C6.578,9.504 5.906,8.832 5.906,8.003 C5.906,8.003 5.906,2.000 5.906,2.000 C5.906,1.171 6.578,0.499 7.406,0.499 C8.235,0.499 8.906,1.171 8.906,2.000 C8.906,2.000 8.906,8.003 8.906,8.003 C8.906,8.832 8.235,9.504 7.406,9.504 Z" id="path-7" class="cls-5" fill-rule="evenodd"/>
    <path d="M20.406,9.504 C19.578,9.504 18.906,8.832 18.906,8.003 C18.906,8.003 18.906,2.000 18.906,2.000 C18.906,1.171 19.578,0.499 20.406,0.499 C21.235,0.499 21.906,1.171 21.906,2.000 C21.906,2.000 21.906,8.003 21.906,8.003 C21.906,8.832 21.235,9.504 20.406,9.504 Z" id="path-8" class="cls-5" fill-rule="evenodd"/>
    <path d="M13.406,33.518 C12.578,33.518 11.906,32.846 11.906,32.017 C11.906,32.017 11.906,23.012 11.906,23.012 C11.906,22.183 12.578,21.511 13.406,21.511 C14.235,21.511 14.906,22.183 14.906,23.012 C14.906,23.012 14.906,32.017 14.906,32.017 C14.906,32.846 14.235,33.518 13.406,33.518 Z" id="path-9" class="cls-5" fill-rule="evenodd"/>
    <path d="M17.906,29.015 C17.906,29.015 9.906,29.015 9.906,29.015 C9.078,29.015 8.406,28.343 8.406,27.514 C8.406,26.686 9.078,26.013 9.906,26.013 C9.906,26.013 17.906,26.013 17.906,26.013 C18.735,26.013 19.406,26.686 19.406,27.514 C19.406,28.343 18.735,29.015 17.906,29.015 Z" id="path-10" class="cls-5" fill-rule="evenodd"/>
  </g>
</svg>
