<svg xmlns="http://www.w3.org/2000/svg" xmlns:xlink="http://www.w3.org/1999/xlink" preserveAspectRatio="xMidYMid" width="61" height="66" viewBox="0 0 61 66">
  <defs>
    <style>

      .cls-3 {
        fill: #81bda4;
      }

      .cls-4 {
        fill: #000000;
      }
    </style>
  </defs>
  <g id="group-28svg">
    <path d="M61.000,57.042 C61.000,61.463 57.418,65.047 53.000,65.047 C53.000,65.047 16.000,65.047 16.000,65.047 C11.581,65.047 8.000,61.463 8.000,57.042 C8.000,57.042 8.000,13.016 8.000,13.016 C8.000,8.595 11.581,5.012 16.000,5.012 C16.000,5.012 53.000,5.012 53.000,5.012 C57.418,5.012 61.000,8.595 61.000,13.016 C61.000,13.016 61.000,57.042 61.000,57.042 Z" id="path-1" class="cls-3" fill-rule="evenodd"/>
    <path d="M46.500,63.045 C46.500,63.045 9.500,63.045 9.500,63.045 C4.262,63.045 -0.000,58.781 -0.000,53.540 C-0.000,53.540 -0.000,9.514 -0.000,9.514 C-0.000,4.273 4.262,0.009 9.500,0.009 C9.500,0.009 46.500,0.009 46.500,0.009 C51.738,0.009 56.000,4.273 56.000,9.514 C56.000,9.514 56.000,53.540 56.000,53.540 C56.000,58.781 51.738,63.045 46.500,63.045 ZM9.500,3.011 C5.916,3.011 3.000,5.928 3.000,9.514 C3.000,9.514 3.000,53.540 3.000,53.540 C3.000,57.126 5.916,60.044 9.500,60.044 C9.500,60.044 46.500,60.044 46.500,60.044 C50.084,60.044 53.000,57.126 53.000,53.540 C53.000,53.540 53.000,9.514 53.000,9.514 C53.000,5.928 50.084,3.011 46.500,3.011 C46.500,3.011 9.500,3.011 9.500,3.011 Z" id="path-2" class="cls-4" fill-rule="evenodd"/>
    <path d="M27.500,31.527 C26.671,31.527 26.000,30.855 26.000,30.026 C26.000,30.026 26.000,14.017 26.000,14.017 C26.000,13.188 26.671,12.516 27.500,12.516 C28.329,12.516 29.000,13.188 29.000,14.017 C29.000,14.017 29.000,30.026 29.000,30.026 C29.000,30.855 28.329,31.527 27.500,31.527 Z" id="path-3" class="cls-4" fill-rule="evenodd"/>
    <path d="M35.000,24.023 C35.000,24.023 21.000,24.023 21.000,24.023 C20.171,24.023 19.500,23.351 19.500,22.522 C19.500,21.693 20.171,21.021 21.000,21.021 C21.000,21.021 35.000,21.021 35.000,21.021 C35.829,21.021 36.500,21.693 36.500,22.522 C36.500,23.351 35.829,24.023 35.000,24.023 Z" id="path-4" class="cls-4" fill-rule="evenodd"/>
    <path d="M44.000,41.033 C44.000,41.033 14.000,41.033 14.000,41.033 C13.171,41.033 12.500,40.360 12.500,39.532 C12.500,38.703 13.171,38.031 14.000,38.031 C14.000,38.031 44.000,38.031 44.000,38.031 C44.829,38.031 45.500,38.703 45.500,39.532 C45.500,40.360 44.829,41.033 44.000,41.033 Z" id="path-5" class="cls-4" fill-rule="evenodd"/>
    <path d="M44.000,48.037 C44.000,48.037 14.000,48.037 14.000,48.037 C13.171,48.037 12.500,47.364 12.500,46.536 C12.500,45.707 13.171,45.035 14.000,45.035 C14.000,45.035 44.000,45.035 44.000,45.035 C44.829,45.035 45.500,45.707 45.500,46.536 C45.500,47.364 44.829,48.037 44.000,48.037 Z" id="path-6" class="cls-4" fill-rule="evenodd"/>
    <path d="M44.000,55.041 C44.000,55.041 14.000,55.041 14.000,55.041 C13.171,55.041 12.500,54.369 12.500,53.540 C12.500,52.711 13.171,52.039 14.000,52.039 C14.000,52.039 44.000,52.039 44.000,52.039 C44.829,52.039 45.500,52.711 45.500,53.540 C45.500,54.369 44.829,55.041 44.000,55.041 Z" id="path-7" class="cls-4" fill-rule="evenodd"/>
  </g>
</svg>
