<svg xmlns="http://www.w3.org/2000/svg" xmlns:xlink="http://www.w3.org/1999/xlink" preserveAspectRatio="xMidYMid" width="67" height="63" viewBox="0 0 67 63">
  <defs>
    <style>

      .cls-3 {
        fill: #edc951;
      }

      .cls-4 {
        fill: #ff917b;
      }

      .cls-5 {
        fill: #000000;
      }
    </style>
  </defs>
  <g id="group-17svg">
    <path d="M52.910,61.779 C52.910,61.779 65.715,48.967 65.715,48.967 C66.734,47.947 66.734,46.294 65.715,45.274 C65.715,45.274 23.738,3.273 23.738,3.273 C22.720,2.254 21.067,2.254 20.048,3.273 C20.048,3.273 7.243,16.085 7.243,16.085 C6.225,17.105 6.225,18.758 7.243,19.778 C7.243,19.778 49.221,61.779 49.221,61.779 C50.239,62.798 51.892,62.798 52.910,61.779 Z" id="path-1" class="cls-3" fill-rule="evenodd"/>
    <path d="M20.048,61.779 C20.048,61.779 7.243,48.967 7.243,48.967 C6.225,47.947 6.225,46.294 7.243,45.274 C7.243,45.274 49.221,3.273 49.221,3.273 C50.239,2.254 51.892,2.254 52.910,3.273 C52.910,3.273 65.715,16.085 65.715,16.085 C66.734,17.105 66.734,18.758 65.715,19.778 C65.715,19.778 23.738,61.779 23.738,61.779 C22.720,62.798 21.067,62.798 20.048,61.779 Z" id="path-2" class="cls-4" fill-rule="evenodd"/>
    <path d="M46.065,63.044 C44.968,63.044 43.935,62.616 43.159,61.839 C43.159,61.839 1.183,19.838 1.183,19.838 C-0.419,18.235 -0.419,15.627 1.182,14.023 C1.182,14.023 13.987,1.211 13.987,1.211 C14.764,0.435 15.796,0.008 16.894,0.008 C17.991,0.008 19.023,0.435 19.799,1.211 C19.799,1.211 61.775,43.212 61.775,43.212 C62.552,43.989 62.979,45.022 62.979,46.120 C62.979,47.218 62.552,48.251 61.775,49.028 C61.775,49.028 48.971,61.839 48.971,61.839 C48.195,62.616 47.163,63.044 46.065,63.044 ZM16.894,3.009 C16.597,3.009 16.317,3.125 16.108,3.335 C16.108,3.335 3.304,16.146 3.304,16.146 C2.872,16.579 2.872,17.283 3.305,17.716 C3.305,17.716 45.280,59.717 45.280,59.717 C45.699,60.136 46.430,60.137 46.849,59.717 C46.849,59.717 59.654,46.905 59.654,46.905 C59.864,46.695 59.979,46.416 59.979,46.120 C59.979,45.823 59.864,45.545 59.654,45.335 C59.654,45.335 17.678,3.334 17.678,3.334 C17.469,3.125 17.189,3.009 16.894,3.009 Z" id="path-3" class="cls-5" fill-rule="evenodd"/>
    <path d="M16.894,63.044 C15.796,63.044 14.764,62.616 13.987,61.839 C13.987,61.839 1.183,49.027 1.183,49.027 C-0.419,47.425 -0.419,44.817 1.182,43.212 C1.182,43.212 43.159,1.211 43.159,1.211 C43.935,0.435 44.968,0.008 46.065,0.008 C47.163,0.008 48.195,0.435 48.971,1.211 C48.971,1.211 61.775,14.023 61.775,14.023 C63.378,15.627 63.378,18.235 61.775,19.838 C61.775,19.838 19.799,61.839 19.799,61.839 C19.023,62.616 17.991,63.044 16.894,63.044 ZM46.065,3.009 C45.768,3.009 45.489,3.125 45.280,3.335 C45.280,3.335 3.304,45.335 3.304,45.335 C2.872,45.767 2.871,46.472 3.304,46.905 C3.304,46.905 16.108,59.717 16.108,59.717 C16.526,60.136 17.257,60.137 17.677,59.717 C17.677,59.717 59.654,17.716 59.654,17.716 C60.087,17.283 60.087,16.579 59.654,16.146 C59.654,16.146 46.850,3.334 46.850,3.334 C46.641,3.125 46.361,3.009 46.065,3.009 Z" id="path-4" class="cls-5" fill-rule="evenodd"/>
  </g>
</svg>
