<svg xmlns="http://www.w3.org/2000/svg" xmlns:xlink="http://www.w3.org/1999/xlink" preserveAspectRatio="xMidYMid" width="66" height="64" viewBox="0 0 66 64">
  <defs>
    <style>

      .cls-3 {
        fill: #53ecf4;
      }

      .cls-4 {
        fill: #000000;
      }
    </style>
  </defs>
  <g id="group-10svg">
    <path d="M65.513,33.511 C65.513,50.089 52.082,63.529 35.513,63.529 C18.944,63.529 5.513,50.089 5.513,33.511 C5.513,16.933 18.944,3.494 35.513,3.494 C52.082,3.494 65.513,16.933 65.513,33.511 Z" id="path-1" class="cls-3" fill-rule="evenodd"/>
    <path d="M31.513,63.029 C14.143,63.029 0.013,48.890 0.013,31.510 C0.013,14.131 14.143,-0.008 31.513,-0.008 C48.882,-0.008 63.013,14.131 63.013,31.510 C63.013,48.890 48.882,63.029 31.513,63.029 ZM31.513,2.994 C15.798,2.994 3.013,15.786 3.013,31.510 C3.013,47.234 15.798,60.027 31.513,60.027 C47.227,60.027 60.013,47.234 60.013,31.510 C60.013,15.786 47.227,2.994 31.513,2.994 Z" id="path-2" class="cls-4" fill-rule="evenodd"/>
    <path d="M60.250,27.064 C60.250,27.064 2.250,27.064 2.250,27.064 C1.421,27.064 0.750,26.392 0.750,25.563 C0.750,24.735 1.421,24.063 2.250,24.063 C2.250,24.063 60.250,24.063 60.250,24.063 C61.079,24.063 61.750,24.735 61.750,25.563 C61.750,26.392 61.079,27.064 60.250,27.064 Z" id="path-3" class="cls-4" fill-rule="evenodd"/>
    <path d="M60.250,35.069 C60.250,35.069 2.250,35.069 2.250,35.069 C1.421,35.069 0.750,34.397 0.750,33.568 C0.750,32.740 1.421,32.067 2.250,32.067 C2.250,32.067 60.250,32.067 60.250,32.067 C61.079,32.067 61.750,32.740 61.750,33.568 C61.750,34.397 61.079,35.069 60.250,35.069 Z" id="path-4" class="cls-4" fill-rule="evenodd"/>
  </g>
</svg>
