<svg xmlns="http://www.w3.org/2000/svg" xmlns:xlink="http://www.w3.org/1999/xlink" preserveAspectRatio="xMidYMid" width="29" height="65" viewBox="0 0 29 65">
  <defs>
    <style>

      .cls-3 {
        fill: #edc951;
      }

      .cls-4 {
        fill: #81bda4;
      }

      .cls-6 {
        fill: #000000;
      }
    </style>
  </defs>
  <g id="group-14svg">
    <path d="M19.299,64.036 C19.299,64.036 15.693,64.036 15.693,64.036 C12.794,64.036 10.000,61.754 10.000,58.853 C10.000,58.853 10.000,22.011 10.000,22.011 C10.000,22.011 25.000,22.011 25.000,22.011 C25.000,22.011 25.000,58.853 25.000,58.853 C25.000,61.754 22.199,64.036 19.299,64.036 Z" id="path-1" class="cls-3" fill-rule="evenodd"/>
    <path d="M29.000,17.008 C29.000,15.351 27.657,14.007 26.000,14.007 C26.000,14.007 8.000,14.007 8.000,14.007 C6.343,14.007 5.000,15.351 5.000,17.008 C5.000,17.008 5.000,19.009 5.000,19.009 C5.000,20.667 6.343,22.011 8.000,22.011 C8.000,22.011 26.000,22.011 26.000,22.011 C27.657,22.011 29.000,20.667 29.000,19.009 C29.000,19.009 29.000,17.008 29.000,17.008 Z" id="path-2" class="cls-4" fill-rule="evenodd"/>
    <path d="M25.000,14.007 C25.000,14.007 10.000,14.007 10.000,14.007 C10.000,14.007 10.000,4.001 10.000,4.001 C10.000,4.001 25.000,4.001 25.000,4.001 C25.000,4.001 25.000,14.007 25.000,14.007 Z" id="path-3" class="cls-3" fill-rule="evenodd"/>
    <path d="M15.299,63.035 C15.299,63.035 11.693,63.035 11.693,63.035 C8.065,63.035 5.000,59.746 5.000,55.852 C5.000,55.852 5.000,18.509 5.000,18.509 C5.000,17.681 5.671,17.008 6.500,17.008 C6.500,17.008 20.500,17.008 20.500,17.008 C21.329,17.008 22.000,17.681 22.000,18.509 C22.000,18.509 22.000,55.852 22.000,55.852 C22.000,59.746 18.931,63.035 15.299,63.035 ZM8.000,20.010 C8.000,20.010 8.000,55.852 8.000,55.852 C8.000,58.040 9.760,60.033 11.693,60.033 C11.693,60.033 15.299,60.033 15.299,60.033 C17.236,60.033 19.000,58.040 19.000,55.852 C19.000,55.852 19.000,20.010 19.000,20.010 C19.000,20.010 8.000,20.010 8.000,20.010 Z" id="path-4" class="cls-6" fill-rule="evenodd"/>
    <path d="M20.500,13.006 C20.500,13.006 6.500,13.006 6.500,13.006 C5.671,13.006 5.000,12.334 5.000,11.505 C5.000,11.505 5.000,1.499 5.000,1.499 C5.000,0.671 5.671,-0.002 6.500,-0.002 C6.500,-0.002 20.500,-0.002 20.500,-0.002 C21.329,-0.002 22.000,0.671 22.000,1.499 C22.000,1.499 22.000,11.505 22.000,11.505 C22.000,12.334 21.329,13.006 20.500,13.006 ZM8.000,10.004 C8.000,10.004 19.000,10.004 19.000,10.004 C19.000,10.004 19.000,3.000 19.000,3.000 C19.000,3.000 8.000,3.000 8.000,3.000 C8.000,3.000 8.000,10.004 8.000,10.004 Z" id="path-5" class="cls-6" fill-rule="evenodd"/>
    <path d="M22.500,21.011 C22.500,21.011 4.500,21.011 4.500,21.011 C2.018,21.011 -0.000,18.991 -0.000,16.508 C-0.000,16.508 -0.000,14.507 -0.000,14.507 C-0.000,12.024 2.018,10.004 4.500,10.004 C4.500,10.004 22.500,10.004 22.500,10.004 C24.981,10.004 27.000,12.024 27.000,14.507 C27.000,14.507 27.000,16.508 27.000,16.508 C27.000,18.991 24.981,21.011 22.500,21.011 ZM4.500,13.006 C3.673,13.006 3.000,13.679 3.000,14.507 C3.000,14.507 3.000,16.508 3.000,16.508 C3.000,17.336 3.673,18.009 4.500,18.009 C4.500,18.009 22.500,18.009 22.500,18.009 C23.327,18.009 24.000,17.336 24.000,16.508 C24.000,16.508 24.000,14.507 24.000,14.507 C24.000,13.679 23.327,13.006 22.500,13.006 C22.500,13.006 4.500,13.006 4.500,13.006 Z" id="path-6" class="cls-6" fill-rule="evenodd"/>
    <path d="M19.947,11.377 C19.669,11.377 19.388,11.300 19.137,11.139 C19.137,11.139 7.662,3.756 7.662,3.756 C6.965,3.307 6.763,2.379 7.211,1.681 C7.660,0.984 8.587,0.783 9.285,1.231 C9.285,1.231 20.760,8.614 20.760,8.614 C21.456,9.062 21.658,9.991 21.210,10.688 C20.923,11.134 20.440,11.377 19.947,11.377 Z" id="path-7" class="cls-6" fill-rule="evenodd"/>
    <path d="M20.000,36.019 C20.000,36.019 7.000,36.019 7.000,36.019 C6.171,36.019 5.500,35.347 5.500,34.518 C5.500,33.690 6.171,33.018 7.000,33.018 C7.000,33.018 20.000,33.018 20.000,33.018 C20.829,33.018 21.500,33.690 21.500,34.518 C21.500,35.347 20.829,36.019 20.000,36.019 Z" id="path-8" class="cls-6" fill-rule="evenodd"/>
  </g>
</svg>
