<svg xmlns="http://www.w3.org/2000/svg" xmlns:xlink="http://www.w3.org/1999/xlink" preserveAspectRatio="xMidYMid" width="65" height="57" viewBox="0 0 65 57">
  <defs>
    <style>

      .cls-3 {
        fill: #8b71b5;
      }

      .cls-5 {
        fill: #ff917b;
      }

      .cls-6 {
        fill: #000000;
      }
    </style>
  </defs>
  <g id="group-25svg">
    <path d="M54.000,56.044 C54.000,56.044 62.000,56.044 62.000,56.044 C62.000,56.044 62.000,51.041 62.000,51.041 C62.000,51.041 54.000,51.041 54.000,51.041 C54.000,51.041 54.000,56.044 54.000,56.044 Z" id="path-1" class="cls-3" fill-rule="evenodd"/>
    <path d="M9.000,56.044 C9.000,56.044 17.000,56.044 17.000,56.044 C17.000,56.044 17.000,51.041 17.000,51.041 C17.000,51.041 9.000,51.041 9.000,51.041 C9.000,51.041 9.000,56.044 9.000,56.044 Z" id="path-2" class="cls-3" fill-rule="evenodd"/>
    <path d="M65.000,8.016 C65.000,5.806 63.209,4.014 61.000,4.014 C61.000,4.014 9.000,4.014 9.000,4.014 C6.791,4.014 5.000,5.806 5.000,8.016 C5.000,8.016 5.000,47.038 5.000,47.038 C5.000,49.249 6.791,51.041 9.000,51.041 C9.000,51.041 61.000,51.041 61.000,51.041 C63.209,51.041 65.000,49.249 65.000,47.038 C65.000,47.038 65.000,8.016 65.000,8.016 ZM58.000,40.034 C58.000,42.245 56.209,44.037 54.000,44.037 C54.000,44.037 16.000,44.037 16.000,44.037 C13.791,44.037 12.000,42.245 12.000,40.034 C12.000,40.034 12.000,14.019 12.000,14.019 C12.000,11.809 13.791,10.017 16.000,10.017 C16.000,10.017 54.000,10.017 54.000,10.017 C56.209,10.017 58.000,11.809 58.000,14.019 C58.000,14.019 58.000,40.034 58.000,40.034 Z" id="path-3" class="cls-5" fill-rule="evenodd"/>
    <path d="M57.500,50.040 C57.500,50.040 5.500,50.040 5.500,50.040 C2.468,50.040 -0.000,47.571 -0.000,44.537 C-0.000,44.537 -0.000,5.514 -0.000,5.514 C-0.000,2.480 2.468,0.011 5.500,0.011 C5.500,0.011 57.500,0.011 57.500,0.011 C60.532,0.011 63.000,2.480 63.000,5.514 C63.000,5.514 63.000,44.537 63.000,44.537 C63.000,47.571 60.532,50.040 57.500,50.040 ZM5.500,3.013 C4.121,3.013 3.000,4.135 3.000,5.514 C3.000,5.514 3.000,44.537 3.000,44.537 C3.000,45.917 4.121,47.038 5.500,47.038 C5.500,47.038 57.500,47.038 57.500,47.038 C58.879,47.038 60.000,45.917 60.000,44.537 C60.000,44.537 60.000,5.514 60.000,5.514 C60.000,4.135 58.879,3.013 57.500,3.013 C57.500,3.013 5.500,3.013 5.500,3.013 ZM50.500,43.036 C50.500,43.036 12.500,43.036 12.500,43.036 C9.468,43.036 7.000,40.567 7.000,37.533 C7.000,37.533 7.000,11.518 7.000,11.518 C7.000,8.484 9.468,6.015 12.500,6.015 C12.500,6.015 50.500,6.015 50.500,6.015 C53.532,6.015 56.000,8.484 56.000,11.518 C56.000,11.518 56.000,37.533 56.000,37.533 C56.000,40.567 53.532,43.036 50.500,43.036 ZM12.500,9.016 C11.121,9.016 10.000,10.138 10.000,11.518 C10.000,11.518 10.000,37.533 10.000,37.533 C10.000,38.913 11.121,40.034 12.500,40.034 C12.500,40.034 50.500,40.034 50.500,40.034 C51.879,40.034 53.000,38.913 53.000,37.533 C53.000,37.533 53.000,11.518 53.000,11.518 C53.000,10.138 51.879,9.016 50.500,9.016 C50.500,9.016 12.500,9.016 12.500,9.016 Z" id="path-4" class="cls-6" fill-rule="evenodd"/>
    <path d="M58.500,55.043 C58.500,55.043 50.500,55.043 50.500,55.043 C49.672,55.043 49.000,54.371 49.000,53.542 C49.000,53.542 49.000,48.539 49.000,48.539 C49.000,47.711 49.672,47.038 50.500,47.038 C50.500,47.038 58.500,47.038 58.500,47.038 C59.328,47.038 60.000,47.711 60.000,48.539 C60.000,48.539 60.000,53.542 60.000,53.542 C60.000,54.371 59.328,55.043 58.500,55.043 ZM52.000,52.041 C52.000,52.041 57.000,52.041 57.000,52.041 C57.000,52.041 57.000,50.040 57.000,50.040 C57.000,50.040 52.000,50.040 52.000,50.040 C52.000,50.040 52.000,52.041 52.000,52.041 Z" id="path-5" class="cls-6" fill-rule="evenodd"/>
    <path d="M13.500,55.043 C13.500,55.043 5.500,55.043 5.500,55.043 C4.672,55.043 4.000,54.371 4.000,53.542 C4.000,53.542 4.000,48.539 4.000,48.539 C4.000,47.711 4.672,47.038 5.500,47.038 C5.500,47.038 13.500,47.038 13.500,47.038 C14.328,47.038 15.000,47.711 15.000,48.539 C15.000,48.539 15.000,53.542 15.000,53.542 C15.000,54.371 14.328,55.043 13.500,55.043 ZM7.000,52.041 C7.000,52.041 12.000,52.041 12.000,52.041 C12.000,52.041 12.000,50.040 12.000,50.040 C12.000,50.040 7.000,50.040 7.000,50.040 C7.000,50.040 7.000,52.041 7.000,52.041 Z" id="path-6" class="cls-6" fill-rule="evenodd"/>
    <path d="M32.522,37.033 C31.526,37.033 30.675,36.154 30.398,35.194 C30.398,35.194 27.364,24.025 27.364,24.025 C27.364,24.025 25.765,24.025 25.765,24.025 C25.754,24.044 25.743,24.061 25.733,24.077 C25.733,24.077 24.102,26.897 24.102,26.897 C23.657,27.610 22.915,28.032 22.138,28.040 C21.421,28.056 20.737,27.689 20.340,27.081 C20.340,27.081 17.697,23.025 17.697,23.025 C17.697,23.025 9.000,23.025 9.000,23.025 C8.172,23.025 7.500,22.352 7.500,21.524 C7.500,20.695 8.172,20.023 9.000,20.023 C9.000,20.023 18.125,20.023 18.125,20.023 C18.874,20.023 19.567,20.400 19.981,21.032 C19.981,21.032 22.125,24.324 22.125,24.324 C22.125,24.324 23.238,22.396 23.238,22.396 C23.460,21.986 23.980,21.023 25.069,21.023 C25.069,21.023 28.074,21.023 28.074,21.023 C29.214,21.023 29.922,22.065 30.204,23.040 C30.204,23.040 32.512,31.353 32.512,31.353 C32.512,31.353 34.177,25.104 34.177,25.104 C34.437,24.128 35.291,23.461 36.300,23.445 C37.244,23.441 38.153,24.055 38.440,25.007 C38.440,25.007 39.498,28.459 39.498,28.459 C39.498,28.459 43.716,22.313 43.716,22.313 C43.932,21.927 44.439,21.023 45.490,21.023 C45.490,21.023 53.000,21.023 53.000,21.023 C53.828,21.023 54.500,21.696 54.500,22.524 C54.500,23.353 53.828,24.025 53.000,24.025 C53.000,24.025 46.188,24.025 46.188,24.025 C46.168,24.057 46.148,24.087 46.131,24.112 C46.131,24.112 41.066,31.474 41.066,31.474 C40.547,32.208 39.669,32.574 38.818,32.442 C38.012,32.310 37.363,31.742 37.125,30.957 C37.125,30.957 36.375,28.507 36.375,28.507 C36.375,28.507 34.670,35.145 34.670,35.145 C34.409,36.122 33.556,37.033 32.546,37.033 C32.538,37.033 32.530,37.033 32.522,37.033 Z" id="path-7" class="cls-6" fill-rule="evenodd"/>
  </g>
</svg>
