<svg xmlns="http://www.w3.org/2000/svg" xmlns:xlink="http://www.w3.org/1999/xlink" preserveAspectRatio="xMidYMid" width="65" height="60" viewBox="0 0 65 60">
  <defs>
    <style>

      .cls-3 {
        fill: #e56a77;
      }

      .cls-4 {
        fill: #000000;
      }
    </style>
  </defs>
  <g id="group-18svg">
    <path d="M46.548,4.370 C42.536,4.370 38.845,9.356 35.856,11.581 C32.868,9.356 29.178,4.370 25.166,4.370 C15.255,4.370 7.221,12.409 7.221,22.326 C7.221,32.242 32.868,61.527 35.856,59.302 C38.845,61.527 64.493,32.242 64.493,22.326 C64.493,12.409 56.459,4.370 46.548,4.370 Z" id="path-1" class="cls-3" fill-rule="evenodd"/>
    <path d="M29.881,41.899 C28.704,41.899 27.697,41.374 27.370,40.240 C27.370,40.240 22.625,23.888 22.625,23.888 C22.625,23.888 18.587,23.888 18.587,23.888 C18.587,23.888 16.031,27.833 16.031,27.833 C15.545,28.613 14.716,28.891 13.809,28.891 C13.800,28.891 13.790,28.891 13.781,28.891 C12.904,28.891 12.098,28.653 11.618,27.920 C11.618,27.920 7.421,21.887 7.421,21.887 C7.421,21.887 2.531,21.887 2.531,21.887 C1.703,21.887 1.031,21.215 1.031,20.387 C1.031,19.558 1.703,18.886 2.531,18.886 C2.531,18.886 7.476,18.886 7.476,18.886 C7.999,18.881 9.029,18.874 9.666,19.851 C9.666,19.851 13.782,25.960 13.782,25.960 C13.782,25.960 16.056,22.261 16.056,22.261 C16.596,21.397 17.425,20.887 18.279,20.887 C18.279,20.887 22.954,20.887 22.954,20.887 C24.221,20.887 25.177,21.906 25.467,22.912 C25.467,22.912 29.870,38.301 29.870,38.301 C29.870,38.301 33.254,25.614 33.254,25.614 C33.559,24.470 34.559,23.688 35.742,23.669 C36.911,23.630 37.941,24.393 38.283,25.522 C38.283,25.522 40.467,32.709 40.467,32.709 C40.467,32.709 47.911,22.130 47.911,22.130 C48.472,21.338 49.249,20.887 50.048,20.887 C50.048,20.887 57.531,20.887 57.531,20.887 C58.359,20.887 59.031,21.559 59.031,22.388 C59.031,23.216 58.359,23.888 57.531,23.888 C57.531,23.888 50.354,23.888 50.354,23.888 C50.354,23.888 42.471,35.075 42.471,35.075 C41.880,35.909 40.892,36.325 39.891,36.162 C38.909,36.002 38.120,35.311 37.832,34.358 C37.832,34.358 35.806,27.688 35.806,27.688 C35.806,27.688 32.410,40.188 32.410,40.188 C32.103,41.339 31.097,41.899 29.907,41.899 C29.898,41.899 29.890,41.899 29.881,41.899 Z" id="path-2" class="cls-4" fill-rule="evenodd"/>
    <path d="M30.544,57.908 C30.543,57.908 30.543,57.908 30.542,57.908 C30.401,57.908 30.264,57.971 30.130,57.947 C29.996,57.971 29.857,58.021 29.716,58.021 C23.862,58.021 -0.007,29.094 -0.007,19.442 C-0.007,8.713 8.716,-0.006 19.438,-0.006 C22.907,-0.006 25.853,2.780 28.452,5.233 C29.035,5.783 29.598,6.317 30.130,6.779 C30.662,6.317 31.225,5.787 31.809,5.236 C34.407,2.784 37.353,0.003 40.820,0.003 C51.543,0.003 60.266,8.731 60.266,19.460 C60.266,25.946 51.320,37.683 47.475,42.460 C46.195,44.049 34.854,57.908 30.544,57.908 ZM30.130,54.936 C30.306,54.936 30.482,54.967 30.649,55.029 C34.604,53.944 57.266,28.450 57.266,19.460 C57.266,10.387 49.889,3.005 40.820,3.005 C38.545,3.005 36.060,5.351 33.867,7.421 C32.878,8.354 31.944,9.235 31.025,9.919 C30.494,10.316 29.766,10.316 29.234,9.919 C28.315,9.235 27.382,8.354 26.394,7.421 C24.200,5.351 21.715,3.005 19.438,3.005 C10.370,3.005 2.993,10.387 2.993,19.460 C2.993,28.450 25.653,53.941 29.610,55.029 C29.778,54.967 29.954,54.936 30.130,54.936 Z" id="path-3" class="cls-4" fill-rule="evenodd"/>
  </g>
</svg>
