<svg xmlns="http://www.w3.org/2000/svg" xmlns:xlink="http://www.w3.org/1999/xlink" preserveAspectRatio="xMidYMid" width="39" height="65" viewBox="0 0 39 65">
  <defs>
    <style>

      .cls-3 {
        fill: #53ecf4;
      }

      .cls-4 {
        fill: #81bda4;
      }

      .cls-5 {
        fill: #000000;
      }
    </style>
  </defs>
  <g id="group-9svg">
    <path d="M39.000,36.007 C39.000,36.007 39.000,19.032 39.000,19.032 C39.000,10.190 31.914,2.988 23.077,2.988 C23.077,2.988 22.077,2.988 22.077,2.988 C13.241,2.988 6.000,10.190 6.000,19.032 C6.000,19.032 6.000,36.007 6.000,36.007 C6.000,36.007 39.000,36.007 39.000,36.007 Z" id="path-1" class="cls-3" fill-rule="evenodd"/>
    <path d="M6.000,31.004 C6.000,31.004 6.000,47.707 6.000,47.707 C6.000,56.549 13.241,64.023 22.077,64.023 C22.077,64.023 23.077,64.023 23.077,64.023 C31.914,64.023 39.000,56.549 39.000,47.707 C39.000,47.707 39.000,31.004 39.000,31.004 C39.000,31.004 6.000,31.004 6.000,31.004 Z" id="path-2" class="cls-4" fill-rule="evenodd"/>
    <path d="M18.500,63.023 C18.500,63.023 17.500,63.023 17.500,63.023 C7.851,63.023 -0.000,55.168 -0.000,45.513 C-0.000,45.513 -0.000,17.496 -0.000,17.496 C-0.000,7.841 7.851,-0.014 17.500,-0.014 C17.500,-0.014 18.500,-0.014 18.500,-0.014 C28.149,-0.014 36.000,7.841 36.000,17.496 C36.000,17.496 36.000,45.513 36.000,45.513 C36.000,55.168 28.149,63.023 18.500,63.023 ZM17.500,2.988 C9.505,2.988 3.000,9.497 3.000,17.496 C3.000,17.496 3.000,45.513 3.000,45.513 C3.000,53.512 9.505,60.021 17.500,60.021 C17.500,60.021 18.500,60.021 18.500,60.021 C26.495,60.021 33.000,53.512 33.000,45.513 C33.000,45.513 33.000,17.496 33.000,17.496 C33.000,9.497 26.495,2.988 18.500,2.988 C18.500,2.988 17.500,2.988 17.500,2.988 Z" id="path-3" class="cls-5" fill-rule="evenodd"/>
    <path d="M33.000,32.005 C33.000,32.005 2.000,32.005 2.000,32.005 C1.171,32.005 0.500,31.332 0.500,30.504 C0.500,29.675 1.171,29.003 2.000,29.003 C2.000,29.003 33.000,29.003 33.000,29.003 C33.829,29.003 34.500,29.675 34.500,30.504 C34.500,31.332 33.829,32.005 33.000,32.005 Z" id="path-4" class="cls-5" fill-rule="evenodd"/>
    <path d="M13.000,25.001 C13.000,25.001 2.000,25.001 2.000,25.001 C1.171,25.001 0.500,24.328 0.500,23.500 C0.500,22.671 1.171,21.999 2.000,21.999 C2.000,21.999 13.000,21.999 13.000,21.999 C13.829,21.999 14.500,22.671 14.500,23.500 C14.500,24.328 13.829,25.001 13.000,25.001 Z" id="path-5" class="cls-5" fill-rule="evenodd"/>
    <path d="M13.000,14.995 C13.000,14.995 2.000,14.995 2.000,14.995 C1.171,14.995 0.500,14.323 0.500,13.494 C0.500,12.665 1.171,11.993 2.000,11.993 C2.000,11.993 13.000,11.993 13.000,11.993 C13.829,11.993 14.500,12.665 14.500,13.494 C14.500,14.323 13.829,14.995 13.000,14.995 Z" id="path-6" class="cls-5" fill-rule="evenodd"/>
    <path d="M32.000,21.999 C32.000,21.999 21.000,21.999 21.000,21.999 C20.171,21.999 19.500,21.327 19.500,20.498 C19.500,19.670 20.171,18.997 21.000,18.997 C21.000,18.997 32.000,18.997 32.000,18.997 C32.829,18.997 33.500,19.670 33.500,20.498 C33.500,21.327 32.829,21.999 32.000,21.999 Z" id="path-7" class="cls-5" fill-rule="evenodd"/>
    <path d="M31.000,11.993 C31.000,11.993 21.000,11.993 21.000,11.993 C20.171,11.993 19.500,11.321 19.500,10.492 C19.500,9.664 20.171,8.991 21.000,8.991 C21.000,8.991 31.000,8.991 31.000,8.991 C31.829,8.991 32.500,9.664 32.500,10.492 C32.500,11.321 31.829,11.993 31.000,11.993 Z" id="path-8" class="cls-5" fill-rule="evenodd"/>
  </g>
</svg>
