<svg xmlns="http://www.w3.org/2000/svg" xmlns:xlink="http://www.w3.org/1999/xlink" preserveAspectRatio="xMidYMid" width="65" height="64" viewBox="0 0 65 64">
  <defs>
    <style>

      .cls-3 {
        fill: #e56a77;
      }

      .cls-4 {
        fill: #edc951;
      }

      .cls-5 {
        fill: #53ecf4;
      }

      .cls-8 {
        fill: #000000;
      }
    </style>
  </defs>
  <g id="group-8svg">
    <path d="M61.531,34.068 C61.531,34.068 61.531,14.548 61.531,14.548 C61.531,8.443 56.633,3.494 50.531,3.494 C44.430,3.494 39.531,8.443 39.531,14.548 C39.531,14.548 39.531,34.068 39.531,34.068 C39.531,34.068 61.531,34.068 61.531,34.068 Z" id="path-1" class="cls-3" fill-rule="evenodd"/>
    <path d="M37.823,38.493 C37.823,38.493 24.330,24.992 24.330,24.992 C20.016,20.675 13.020,20.675 8.706,24.992 C4.392,29.309 4.392,36.308 8.706,40.625 C8.706,40.625 22.199,54.125 22.199,54.125 C22.199,54.125 37.823,38.493 37.823,38.493 Z" id="path-2" class="cls-4" fill-rule="evenodd"/>
    <path d="M53.505,47.145 C53.505,49.331 51.735,51.103 49.550,51.103 C47.366,51.103 45.595,49.331 45.595,47.145 C45.595,44.959 47.366,43.187 49.550,43.187 C51.735,43.187 53.505,44.959 53.505,47.145 Z" id="path-3" class="cls-5" fill-rule="evenodd"/>
    <path d="M39.812,57.194 C39.812,59.028 38.327,60.514 36.494,60.514 C34.662,60.514 33.176,59.028 33.176,57.194 C33.176,55.361 34.662,53.874 36.494,53.874 C38.327,53.874 39.812,55.361 39.812,57.194 Z" id="path-4" class="cls-5" fill-rule="evenodd"/>
    <path d="M63.915,60.209 C63.915,62.043 62.430,63.529 60.598,63.529 C58.765,63.529 57.280,62.043 57.280,60.209 C57.280,58.375 58.765,56.889 60.598,56.889 C62.430,56.889 63.915,58.375 63.915,60.209 Z" id="path-5" class="cls-5" fill-rule="evenodd"/>
    <path d="M58.031,33.068 C58.031,33.068 36.031,33.068 36.031,33.068 C35.203,33.068 34.531,32.396 34.531,31.567 C34.531,31.567 34.531,12.547 34.531,12.547 C34.531,5.624 40.139,-0.008 47.031,-0.008 C53.924,-0.008 59.531,5.624 59.531,12.547 C59.531,12.547 59.531,31.567 59.531,31.567 C59.531,32.396 58.860,33.068 58.031,33.068 ZM37.531,30.066 C37.531,30.066 56.531,30.066 56.531,30.066 C56.531,30.066 56.531,12.547 56.531,12.547 C56.531,7.279 52.269,2.994 47.031,2.994 C41.793,2.994 37.531,7.279 37.531,12.547 C37.531,12.547 37.531,30.066 37.531,30.066 Z" id="path-6" class="cls-8" fill-rule="evenodd"/>
    <path d="M18.199,53.626 C17.801,53.626 17.420,53.467 17.139,53.186 C17.139,53.186 3.646,39.685 3.646,39.685 C-1.247,34.790 -1.247,26.825 3.646,21.930 C6.016,19.558 9.166,18.253 12.518,18.253 C15.870,18.253 19.020,19.558 21.391,21.930 C21.391,21.930 34.883,35.431 34.883,35.431 C35.469,36.017 35.469,36.967 34.883,37.553 C34.883,37.553 19.260,53.186 19.260,53.186 C18.979,53.467 18.597,53.626 18.199,53.626 ZM12.518,21.254 C9.968,21.254 7.570,22.248 5.767,24.052 C2.044,27.777 2.044,33.838 5.767,37.563 C5.767,37.563 18.199,50.002 18.199,50.002 C18.199,50.002 31.702,36.492 31.702,36.492 C31.702,36.492 19.269,24.052 19.269,24.052 C17.466,22.248 15.068,21.254 12.518,21.254 Z" id="path-7" class="cls-8" fill-rule="evenodd"/>
    <path d="M45.550,50.602 C42.542,50.602 40.095,48.154 40.095,45.144 C40.095,42.135 42.542,39.686 45.550,39.686 C48.558,39.686 51.005,42.135 51.005,45.144 C51.005,48.154 48.558,50.602 45.550,50.602 ZM45.550,42.688 C44.196,42.688 43.095,43.790 43.095,45.144 C43.095,46.498 44.196,47.601 45.550,47.601 C46.904,47.601 48.005,46.498 48.005,45.144 C48.005,43.790 46.904,42.688 45.550,42.688 Z" id="path-8" class="cls-8" fill-rule="evenodd"/>
    <path d="M32.494,60.014 C29.837,60.014 27.676,57.852 27.676,55.193 C27.676,52.535 29.837,50.373 32.494,50.373 C35.151,50.373 37.312,52.535 37.312,55.193 C37.312,57.852 35.151,60.014 32.494,60.014 ZM32.494,53.375 C31.492,53.375 30.676,54.190 30.676,55.193 C30.676,56.196 31.492,57.012 32.494,57.012 C33.497,57.012 34.312,56.196 34.312,55.193 C34.312,54.190 33.497,53.375 32.494,53.375 Z" id="path-9" class="cls-8" fill-rule="evenodd"/>
    <path d="M56.598,63.029 C53.941,63.029 51.780,60.866 51.780,58.207 C51.780,55.550 53.941,53.387 56.598,53.387 C59.254,53.387 61.416,55.550 61.416,58.207 C61.416,60.866 59.254,63.029 56.598,63.029 ZM56.598,56.389 C55.595,56.389 54.780,57.205 54.780,58.207 C54.780,59.211 55.595,60.027 56.598,60.027 C57.600,60.027 58.415,59.211 58.415,58.207 C58.415,57.205 57.600,56.389 56.598,56.389 Z" id="path-10" class="cls-8" fill-rule="evenodd"/>
    <path d="M55.031,44.574 C54.203,44.574 53.531,43.902 53.531,43.074 C53.531,43.074 53.531,37.070 53.531,37.070 C53.531,36.242 54.203,35.569 55.031,35.569 C55.860,35.569 56.531,36.242 56.531,37.070 C56.531,37.070 56.531,43.074 56.531,43.074 C56.531,43.902 55.860,44.574 55.031,44.574 Z" id="path-11" class="cls-8" fill-rule="evenodd"/>
    <path d="M41.031,59.583 C40.203,59.583 39.531,58.911 39.531,58.082 C39.531,58.082 39.531,52.079 39.531,52.079 C39.531,51.250 40.203,50.578 41.031,50.578 C41.860,50.578 42.531,51.250 42.531,52.079 C42.531,52.079 42.531,58.082 42.531,58.082 C42.531,58.911 41.860,59.583 41.031,59.583 Z" id="path-12" class="cls-8" fill-rule="evenodd"/>
    <path d="M37.031,44.574 C36.203,44.574 35.531,43.902 35.531,43.074 C35.531,43.074 35.531,37.070 35.531,37.070 C35.531,36.242 36.203,35.569 37.031,35.569 C37.860,35.569 38.531,36.242 38.531,37.070 C38.531,37.070 38.531,43.074 38.531,43.074 C38.531,43.902 37.860,44.574 37.031,44.574 Z" id="path-13" class="cls-8" fill-rule="evenodd"/>
  </g>
</svg>
