<svg xmlns="http://www.w3.org/2000/svg" xmlns:xlink="http://www.w3.org/1999/xlink" preserveAspectRatio="xMidYMid" width="40" height="66" viewBox="0 0 40 66">
  <defs>
    <style>

      .cls-3 {
        fill: #81bda4;
      }

      .cls-4 {
        fill: #53ecf4;
      }

      .cls-7 {
        fill: #edc951;
      }

      .cls-8 {
        fill: #000000;
      }
    </style>
  </defs>
  <g id="group-4svg">
    <path d="M10.998,65.023 C10.998,65.023 36.523,65.023 36.523,65.023 C38.174,65.023 40.000,64.116 40.000,62.465 C40.000,62.465 40.000,37.875 40.000,37.875 C40.000,34.006 36.390,31.004 32.523,31.004 C32.523,31.004 14.998,31.004 14.998,31.004 C11.132,31.004 8.000,34.006 8.000,37.875 C8.000,37.875 8.000,62.465 8.000,62.465 C8.000,64.116 9.348,65.023 10.998,65.023 Z" id="path-1" class="cls-3" fill-rule="evenodd"/>
    <path d="M25.000,56.018 C25.000,56.018 37.000,56.018 37.000,56.018 C37.000,56.018 37.000,42.010 37.000,42.010 C37.000,42.010 25.000,42.010 25.000,42.010 C25.000,42.010 25.000,56.018 25.000,56.018 Z" id="path-2" class="cls-4" fill-rule="evenodd"/>
    <path d="M15.000,31.004 C15.000,31.004 30.000,31.004 30.000,31.004 C30.000,31.004 30.000,20.998 30.000,20.998 C30.000,20.998 15.000,20.998 15.000,20.998 C15.000,20.998 15.000,31.004 15.000,31.004 Z" id="path-3" class="cls-4" fill-rule="evenodd"/>
    <path d="M8.000,56.018 C8.000,56.018 16.000,56.018 16.000,56.018 C16.000,56.018 16.000,42.010 16.000,42.010 C16.000,42.010 8.000,42.010 8.000,42.010 C8.000,42.010 8.000,56.018 8.000,56.018 Z" id="path-4" class="cls-4" fill-rule="evenodd"/>
    <path d="M19.000,19.997 C19.000,19.997 27.000,19.997 27.000,19.997 C27.000,19.997 27.000,8.434 27.000,8.434 C27.000,6.232 25.537,3.988 23.337,3.988 C23.337,3.988 23.201,3.988 23.201,3.988 C20.992,3.988 19.000,6.224 19.000,8.434 C19.000,8.434 19.000,19.997 19.000,19.997 Z" id="path-5" class="cls-7" fill-rule="evenodd"/>
    <path d="M30.523,64.023 C30.523,64.023 4.998,64.023 4.998,64.023 C2.639,64.023 -0.000,62.073 -0.000,59.463 C-0.000,59.463 -0.000,34.873 -0.000,34.873 C-0.000,30.230 4.289,26.001 8.998,26.001 C8.998,26.001 26.523,26.001 26.523,26.001 C31.118,26.001 35.000,30.064 35.000,34.873 C35.000,34.873 35.000,59.463 35.000,59.463 C35.000,61.978 32.992,64.023 30.523,64.023 ZM8.998,29.002 C5.915,29.002 3.000,31.856 3.000,34.873 C3.000,34.873 3.000,59.463 3.000,59.463 C3.000,60.177 4.083,61.021 4.998,61.021 C4.998,61.021 30.523,61.021 30.523,61.021 C31.324,61.021 32.000,60.308 32.000,59.463 C32.000,59.463 32.000,34.873 32.000,34.873 C32.000,31.745 29.440,29.002 26.523,29.002 C26.523,29.002 8.998,29.002 8.998,29.002 Z" id="path-6" class="cls-8" fill-rule="evenodd"/>
    <path d="M31.500,54.017 C31.500,54.017 19.500,54.017 19.500,54.017 C18.672,54.017 18.000,53.345 18.000,52.516 C18.000,52.516 18.000,38.508 18.000,38.508 C18.000,37.679 18.672,37.007 19.500,37.007 C19.500,37.007 31.500,37.007 31.500,37.007 C32.328,37.007 33.000,37.679 33.000,38.508 C33.000,38.508 33.000,52.516 33.000,52.516 C33.000,53.345 32.328,54.017 31.500,54.017 ZM21.000,51.015 C21.000,51.015 30.000,51.015 30.000,51.015 C30.000,51.015 30.000,40.009 30.000,40.009 C30.000,40.009 21.000,40.009 21.000,40.009 C21.000,40.009 21.000,51.015 21.000,51.015 Z" id="path-7" class="cls-8" fill-rule="evenodd"/>
    <path d="M24.500,29.002 C24.500,29.002 9.500,29.002 9.500,29.002 C8.672,29.002 8.000,28.330 8.000,27.502 C8.000,27.502 8.000,17.496 8.000,17.496 C8.000,16.667 8.672,15.995 9.500,15.995 C9.500,15.995 24.500,15.995 24.500,15.995 C25.328,15.995 26.000,16.667 26.000,17.496 C26.000,17.496 26.000,27.502 26.000,27.502 C26.000,28.330 25.328,29.002 24.500,29.002 ZM11.000,26.001 C11.000,26.001 23.000,26.001 23.000,26.001 C23.000,26.001 23.000,18.997 23.000,18.997 C23.000,18.997 11.000,18.997 11.000,18.997 C11.000,18.997 11.000,26.001 11.000,26.001 Z" id="path-8" class="cls-8" fill-rule="evenodd"/>
    <path d="M10.500,54.017 C10.500,54.017 2.500,54.017 2.500,54.017 C1.672,54.017 1.000,53.345 1.000,52.516 C1.000,52.516 1.000,38.508 1.000,38.508 C1.000,37.679 1.672,37.007 2.500,37.007 C2.500,37.007 10.500,37.007 10.500,37.007 C11.328,37.007 12.000,37.679 12.000,38.508 C12.000,38.508 12.000,52.516 12.000,52.516 C12.000,53.345 11.328,54.017 10.500,54.017 ZM4.000,51.015 C4.000,51.015 9.000,51.015 9.000,51.015 C9.000,51.015 9.000,40.009 9.000,40.009 C9.000,40.009 4.000,40.009 4.000,40.009 C4.000,40.009 4.000,51.015 4.000,51.015 Z" id="path-9" class="cls-8" fill-rule="evenodd"/>
    <path d="M21.500,17.996 C21.500,17.996 13.500,17.996 13.500,17.996 C12.672,17.996 12.000,17.324 12.000,16.495 C12.000,16.495 12.000,5.432 12.000,5.432 C12.000,2.327 14.236,-0.014 17.201,-0.014 C17.201,-0.014 17.337,-0.014 17.337,-0.014 C20.406,-0.014 23.000,2.480 23.000,5.432 C23.000,5.432 23.000,16.495 23.000,16.495 C23.000,17.324 22.328,17.996 21.500,17.996 ZM15.000,14.994 C15.000,14.994 20.000,14.994 20.000,14.994 C20.000,14.994 20.000,5.432 20.000,5.432 C20.000,4.130 18.756,2.987 17.337,2.987 C17.337,2.987 17.201,2.987 17.201,2.987 C15.681,2.987 15.000,4.216 15.000,5.432 C15.000,5.432 15.000,14.994 15.000,14.994 Z" id="path-10" class="cls-8" fill-rule="evenodd"/>
    <path d="M17.500,28.502 C16.672,28.502 16.000,27.830 16.000,27.001 C16.000,27.001 16.000,17.996 16.000,17.996 C16.000,17.167 16.672,16.495 17.500,16.495 C18.328,16.495 19.000,17.167 19.000,17.996 C19.000,17.996 19.000,27.001 19.000,27.001 C19.000,27.830 18.328,28.502 17.500,28.502 Z" id="path-11" class="cls-8" fill-rule="evenodd"/>
  </g>
</svg>
