<svg xmlns="http://www.w3.org/2000/svg" xmlns:xlink="http://www.w3.org/1999/xlink" preserveAspectRatio="xMidYMid" width="49" height="64" viewBox="0 0 49 64">
  <defs>
    <style>

      .cls-3 {
        fill: #edc951;
      }

      .cls-4 {
        fill: #53ecf4;
      }

      .cls-6 {
        fill: #000000;
      }
    </style>
  </defs>
  <g id="group-16svg">
    <path d="M29.474,37.020 C29.474,37.020 13.474,37.020 13.474,37.020 C9.055,37.020 5.000,32.558 5.000,28.137 C5.000,28.137 5.000,6.125 5.000,6.125 C5.000,4.467 6.816,4.001 8.474,4.001 C8.474,4.001 34.474,4.001 34.474,4.001 C36.123,4.001 37.000,4.474 37.000,6.125 C37.000,6.125 37.000,28.137 37.000,28.137 C37.000,32.540 33.873,37.020 29.474,37.020 Z" id="path-1" class="cls-3" fill-rule="evenodd"/>
    <path d="M25.474,32.018 C25.474,32.018 16.474,32.018 16.474,32.018 C13.160,32.018 10.000,28.452 10.000,25.136 C10.000,25.136 10.000,17.131 10.000,17.131 C10.000,16.030 11.373,16.008 12.474,16.008 C12.474,16.008 29.474,16.008 29.474,16.008 C30.578,16.008 31.000,16.026 31.000,17.131 C31.000,17.131 31.000,25.136 31.000,25.136 C31.000,28.452 28.787,32.018 25.474,32.018 Z" id="path-2" class="cls-4" fill-rule="evenodd"/>
    <path d="M25.474,46.026 C25.474,46.026 18.474,46.026 18.474,46.026 C17.373,46.026 16.000,44.247 16.000,43.146 C16.000,43.146 16.000,38.143 16.000,38.143 C16.000,37.042 17.373,37.020 18.474,37.020 C18.474,37.020 25.474,37.020 25.474,37.020 C26.578,37.020 27.000,37.038 27.000,38.143 C27.000,38.143 27.000,43.146 27.000,43.146 C27.000,44.251 26.578,46.026 25.474,46.026 Z" id="path-3" class="cls-4" fill-rule="evenodd"/>
    <path d="M25.474,36.020 C25.474,36.020 9.474,36.020 9.474,36.020 C4.339,36.020 -0.000,31.494 -0.000,26.136 C-0.000,26.136 -0.000,4.123 -0.000,4.123 C-0.000,1.733 1.882,-0.001 4.474,-0.001 C4.474,-0.001 30.474,-0.001 30.474,-0.001 C33.097,-0.001 35.000,1.733 35.000,4.123 C35.000,4.123 35.000,26.136 35.000,26.136 C35.000,31.494 30.638,36.020 25.474,36.020 ZM4.474,3.001 C4.030,3.001 3.000,3.110 3.000,4.123 C3.000,4.123 3.000,26.136 3.000,26.136 C3.000,29.867 5.965,33.018 9.474,33.018 C9.474,33.018 25.474,33.018 25.474,33.018 C28.950,33.018 32.000,29.802 32.000,26.136 C32.000,26.136 32.000,4.123 32.000,4.123 C32.000,3.055 30.728,3.001 30.474,3.001 C30.474,3.001 4.474,3.001 4.474,3.001 Z" id="path-4" class="cls-6" fill-rule="evenodd"/>
    <path d="M21.474,31.017 C21.474,31.017 12.474,31.017 12.474,31.017 C8.423,31.017 5.000,27.407 5.000,23.134 C5.000,23.134 5.000,15.130 5.000,15.130 C5.000,13.291 6.429,12.006 8.474,12.006 C8.474,12.006 25.474,12.006 25.474,12.006 C27.550,12.006 29.000,13.291 29.000,15.130 C29.000,15.130 29.000,23.134 29.000,23.134 C29.000,27.407 25.554,31.017 21.474,31.017 ZM8.474,15.008 C8.164,15.008 8.007,15.080 7.976,15.105 C7.976,15.105 8.000,23.134 8.000,23.134 C8.000,25.735 10.091,28.015 12.474,28.015 C12.474,28.015 21.474,28.015 21.474,28.015 C23.885,28.015 26.000,25.735 26.000,23.134 C26.000,23.134 26.000,15.130 26.000,15.130 C25.997,15.098 25.823,15.008 25.474,15.008 C25.474,15.008 8.474,15.008 8.474,15.008 Z" id="path-5" class="cls-6" fill-rule="evenodd"/>
    <path d="M21.474,45.025 C21.474,45.025 14.474,45.025 14.474,45.025 C12.427,45.025 11.000,42.980 11.000,41.145 C11.000,41.145 11.000,36.142 11.000,36.142 C11.000,34.303 12.429,33.018 14.474,33.018 C14.474,33.018 21.474,33.018 21.474,33.018 C23.550,33.018 25.000,34.303 25.000,36.142 C25.000,36.142 25.000,41.145 25.000,41.145 C25.000,42.977 23.492,45.025 21.474,45.025 ZM14.474,36.020 C14.164,36.020 14.007,36.092 13.976,36.118 C13.976,36.118 14.000,41.144 14.000,41.144 C14.000,41.543 14.331,42.023 14.487,42.023 C14.487,42.023 21.469,42.023 21.469,42.023 C21.638,42.023 22.000,41.533 22.000,41.145 C22.000,41.145 22.000,36.142 22.000,36.142 C21.997,36.110 21.823,36.020 21.474,36.020 C21.474,36.020 14.474,36.020 14.474,36.020 Z" id="path-6" class="cls-6" fill-rule="evenodd"/>
    <path d="M43.687,63.555 C43.455,63.555 43.219,63.502 42.998,63.386 C42.263,63.005 41.976,62.099 42.357,61.364 C44.794,56.660 46.645,50.590 45.405,49.399 C45.278,49.280 44.013,48.314 38.299,51.581 C32.052,55.152 26.896,55.955 22.972,53.964 C17.681,51.279 16.866,44.592 16.834,44.309 C16.740,43.485 17.332,42.742 18.155,42.649 C18.980,42.552 19.719,43.146 19.814,43.967 C19.814,43.967 19.814,43.967 19.814,43.967 C19.820,44.021 20.495,49.354 24.344,51.294 C27.311,52.789 31.504,52.009 36.810,48.974 C40.171,47.053 44.932,44.782 47.483,47.234 C50.940,50.557 46.472,59.947 45.020,62.746 C44.753,63.260 44.229,63.555 43.687,63.555 Z" id="path-7" class="cls-6" fill-rule="evenodd"/>
  </g>
</svg>
