<svg xmlns="http://www.w3.org/2000/svg" xmlns:xlink="http://www.w3.org/1999/xlink" preserveAspectRatio="xMidYMid" width="52" height="66" viewBox="0 0 52 66">
  <defs>
    <style>

      .cls-3 {
        fill: #53ecf4;
      }

      .cls-4 {
        fill: #e56a77;
      }

      .cls-5 {
        fill: #000000;
      }
    </style>
  </defs>
  <g id="group-19svg">
    <path d="M25.717,38.672 C24.738,37.552 23.469,36.646 22.469,36.030 C22.469,36.030 22.469,16.169 22.469,16.169 C22.469,15.235 21.289,15.007 20.355,15.007 C20.355,15.007 14.435,15.007 14.435,15.007 C13.502,15.007 12.469,15.235 12.469,16.169 C12.469,16.169 12.469,36.313 12.469,36.313 C9.469,38.040 7.241,41.483 7.241,45.450 C7.241,51.151 12.006,55.771 17.703,55.771 C19.127,55.771 20.626,55.482 21.862,54.960 C21.862,54.960 21.862,54.960 21.862,54.960 " id="path-1" class="cls-3" fill-rule="evenodd"/>
    <path d="M43.469,36.445 C43.469,36.445 43.469,7.494 43.469,7.494 C43.469,6.132 42.293,5.001 40.931,5.001 C40.931,5.001 32.302,5.001 32.302,5.001 C30.940,5.001 29.469,6.132 29.469,7.494 C29.469,7.494 29.469,36.857 29.469,36.857 C25.469,39.375 21.832,44.393 21.832,50.177 C21.832,58.485 28.769,65.221 37.073,65.221 C45.377,65.221 52.235,58.485 52.235,50.177 C52.235,44.058 47.469,38.796 43.469,36.445 Z" id="path-2" class="cls-4" fill-rule="evenodd"/>
    <path d="M31.198,63.719 C22.036,63.719 14.582,56.297 14.582,47.175 C14.582,40.792 18.683,35.705 22.469,33.051 C22.469,33.051 22.469,4.493 22.469,4.493 C22.469,2.366 24.043,-0.002 26.302,-0.002 C26.302,-0.002 34.931,-0.002 34.931,-0.002 C37.136,-0.002 39.469,2.308 39.469,4.493 C39.469,4.493 39.469,32.610 39.469,32.610 C43.853,35.485 48.048,40.929 48.048,47.175 C48.048,56.297 40.489,63.719 31.198,63.719 ZM26.302,3.000 C26.003,3.000 25.469,3.752 25.469,4.493 C25.469,4.493 25.469,33.855 25.469,33.855 C25.469,34.371 25.204,34.851 24.768,35.126 C21.190,37.377 17.582,41.975 17.582,47.175 C17.582,54.642 23.690,60.718 31.198,60.718 C38.705,60.718 45.048,54.516 45.048,47.175 C45.048,41.795 40.984,36.956 37.209,34.739 C36.751,34.469 36.469,33.977 36.469,33.444 C36.469,33.444 36.469,4.493 36.469,4.493 C36.469,3.962 35.477,3.000 34.931,3.000 C34.931,3.000 26.302,3.000 26.302,3.000 Z" id="path-3" class="cls-5" fill-rule="evenodd"/>
    <path d="M11.828,54.271 C5.301,54.271 -0.009,48.967 -0.009,42.448 C-0.009,38.569 2.115,34.746 5.469,32.480 C5.469,32.480 5.469,13.168 5.469,13.168 C5.469,11.335 6.717,10.004 8.436,10.004 C8.436,10.004 14.355,10.004 14.355,10.004 C15.791,10.004 18.469,11.090 18.469,13.168 C18.469,13.168 18.469,32.229 18.469,32.229 C19.351,32.871 20.231,33.693 21.096,34.682 C21.642,35.306 21.578,36.254 20.954,36.799 C20.330,37.347 19.381,37.280 18.838,36.658 C17.951,35.643 17.033,34.831 16.183,34.307 C15.739,34.034 15.469,33.550 15.469,33.029 C15.469,33.029 15.469,13.413 15.469,13.413 C15.227,13.230 14.674,13.005 14.355,13.005 C14.355,13.005 8.485,13.005 8.485,13.005 C8.476,13.043 8.469,13.097 8.469,13.168 C8.469,13.168 8.469,33.311 8.469,33.311 C8.469,33.849 8.182,34.344 7.717,34.612 C4.846,36.265 2.991,39.341 2.991,42.448 C2.991,47.312 6.955,51.269 11.828,51.269 C13.078,51.269 14.438,51.010 15.467,50.576 C16.232,50.254 17.111,50.611 17.432,51.375 C17.754,52.139 17.396,53.020 16.633,53.341 C15.233,53.931 13.482,54.271 11.828,54.271 Z" id="path-4" class="cls-5" fill-rule="evenodd"/>
    <path d="M29.469,17.008 C29.469,17.008 24.469,17.008 24.469,17.008 C23.641,17.008 22.969,16.335 22.969,15.507 C22.969,14.678 23.641,14.006 24.469,14.006 C24.469,14.006 29.469,14.006 29.469,14.006 C30.297,14.006 30.969,14.678 30.969,15.507 C30.969,16.335 30.297,17.008 29.469,17.008 Z" id="path-5" class="cls-5" fill-rule="evenodd"/>
    <path d="M29.469,10.004 C29.469,10.004 24.469,10.004 24.469,10.004 C23.641,10.004 22.969,9.331 22.969,8.503 C22.969,7.674 23.641,7.002 24.469,7.002 C24.469,7.002 29.469,7.002 29.469,7.002 C30.297,7.002 30.969,7.674 30.969,8.503 C30.969,9.331 30.297,10.004 29.469,10.004 Z" id="path-6" class="cls-5" fill-rule="evenodd"/>
    <path d="M29.469,26.013 C29.469,26.013 24.469,26.013 24.469,26.013 C23.641,26.013 22.969,25.341 22.969,24.512 C22.969,23.683 23.641,23.011 24.469,23.011 C24.469,23.011 29.469,23.011 29.469,23.011 C30.297,23.011 30.969,23.683 30.969,24.512 C30.969,25.341 30.297,26.013 29.469,26.013 Z" id="path-7" class="cls-5" fill-rule="evenodd"/>
    <path d="M11.469,24.012 C11.469,24.012 7.469,24.012 7.469,24.012 C6.641,24.012 5.969,23.340 5.969,22.511 C5.969,21.682 6.641,21.010 7.469,21.010 C7.469,21.010 11.469,21.010 11.469,21.010 C12.297,21.010 12.969,21.682 12.969,22.511 C12.969,23.340 12.297,24.012 11.469,24.012 Z" id="path-8" class="cls-5" fill-rule="evenodd"/>
    <path d="M11.469,19.009 C11.469,19.009 7.469,19.009 7.469,19.009 C6.641,19.009 5.969,18.337 5.969,17.508 C5.969,16.679 6.641,16.007 7.469,16.007 C7.469,16.007 11.469,16.007 11.469,16.007 C12.297,16.007 12.969,16.679 12.969,17.508 C12.969,18.337 12.297,19.009 11.469,19.009 Z" id="path-9" class="cls-5" fill-rule="evenodd"/>
    <path d="M11.469,30.015 C11.469,30.015 7.469,30.015 7.469,30.015 C6.641,30.015 5.969,29.343 5.969,28.514 C5.969,27.686 6.641,27.013 7.469,27.013 C7.469,27.013 11.469,27.013 11.469,27.013 C12.297,27.013 12.969,27.686 12.969,28.514 C12.969,29.343 12.297,30.015 11.469,30.015 Z" id="path-10" class="cls-5" fill-rule="evenodd"/>
  </g>
</svg>
