<svg xmlns="http://www.w3.org/2000/svg" xmlns:xlink="http://www.w3.org/1999/xlink" preserveAspectRatio="xMidYMid" width="63" height="52" viewBox="0 0 63 52">
  <defs>
    <style>

      .cls-3 {
        fill: #ff917b;
      }

      .cls-4 {
        fill: #81bda4;
      }

      .cls-5 {
        fill: #000000;
      }
    </style>
  </defs>
  <g id="group-2svg">
    <path d="M22.794,10.622 C22.794,10.622 30.268,35.729 30.268,35.729 C30.268,35.729 41.281,35.729 41.281,35.729 C41.281,35.729 41.281,50.738 41.281,50.738 C41.281,50.738 15.140,50.738 15.140,50.738 C15.140,50.738 6.495,19.642 6.495,19.642 C6.495,19.642 22.794,10.622 22.794,10.622 Z" id="path-1" class="cls-3" fill-rule="evenodd"/>
    <path d="M14.965,3.678 C14.965,3.678 8.724,6.337 8.724,6.337 C7.826,6.720 7.322,7.682 7.518,8.639 C7.518,8.639 9.444,18.022 9.444,18.022 C9.444,18.022 20.528,12.078 20.528,12.078 C20.528,12.078 17.678,4.816 17.678,4.816 C17.255,3.740 16.027,3.225 14.965,3.678 Z" id="path-2" class="cls-4" fill-rule="evenodd"/>
    <path d="M36.781,49.737 C36.781,49.737 10.140,49.737 10.140,49.737 C9.467,49.737 8.876,49.289 8.695,48.640 C8.695,48.640 0.051,17.670 0.051,17.670 C-0.138,16.997 0.164,16.283 0.776,15.949 C0.776,15.949 17.075,7.054 17.075,7.054 C17.474,6.836 17.946,6.810 18.363,6.982 C18.782,7.154 19.101,7.505 19.230,7.938 C19.230,7.938 26.383,31.727 26.383,31.727 C26.383,31.727 36.781,31.727 36.781,31.727 C37.609,31.727 38.281,32.399 38.281,33.228 C38.281,33.228 38.281,48.237 38.281,48.237 C38.281,49.065 37.609,49.737 36.781,49.737 ZM11.278,46.736 C11.278,46.736 35.281,46.736 35.281,46.736 C35.281,46.736 35.281,34.729 35.281,34.729 C35.281,34.729 25.268,34.729 25.268,34.729 C24.605,34.729 24.021,34.295 23.831,33.661 C23.831,33.661 16.890,10.574 16.890,10.574 C16.890,10.574 3.261,18.012 3.261,18.012 C3.261,18.012 11.278,46.736 11.278,46.736 Z" id="path-3" class="cls-5" fill-rule="evenodd"/>
    <path d="M4.444,17.521 C4.227,17.521 4.010,17.475 3.808,17.380 C3.379,17.179 3.070,16.787 2.975,16.323 C2.975,16.323 1.048,6.939 1.048,6.939 C0.710,5.292 1.588,3.616 3.135,2.955 C3.135,2.955 9.376,0.296 9.376,0.296 C9.820,0.107 10.288,0.011 10.767,0.011 C12.238,0.011 13.536,0.896 14.074,2.266 C14.074,2.266 16.925,9.530 16.925,9.530 C17.202,10.237 16.907,11.041 16.236,11.401 C16.236,11.401 5.152,17.344 5.152,17.344 C4.932,17.462 4.688,17.521 4.444,17.521 ZM10.767,3.013 C10.693,3.013 10.621,3.028 10.551,3.058 C10.551,3.058 4.311,5.717 4.311,5.717 C4.071,5.819 3.935,6.079 3.987,6.335 C3.987,6.335 5.509,13.747 5.509,13.747 C5.509,13.747 13.645,9.385 13.645,9.385 C13.645,9.385 11.281,3.363 11.281,3.363 C11.180,3.105 10.940,3.013 10.767,3.013 Z" id="path-4" class="cls-5" fill-rule="evenodd"/>
    <path d="M49.281,38.731 C49.281,38.731 42.281,38.731 42.281,38.731 C41.453,38.731 40.781,38.059 40.781,37.230 C40.781,36.402 41.453,35.729 42.281,35.729 C42.281,35.729 49.281,35.729 49.281,35.729 C50.109,35.729 50.781,36.402 50.781,37.230 C50.781,38.059 50.109,38.731 49.281,38.731 Z" id="path-5" class="cls-5" fill-rule="evenodd"/>
    <path d="M61.281,49.737 C61.281,49.737 54.281,49.737 54.281,49.737 C53.453,49.737 52.781,49.065 52.781,48.237 C52.781,47.408 53.453,46.736 54.281,46.736 C54.281,46.736 61.281,46.736 61.281,46.736 C62.109,46.736 62.781,47.408 62.781,48.237 C62.781,49.065 62.109,49.737 61.281,49.737 Z" id="path-6" class="cls-5" fill-rule="evenodd"/>
    <path d="M57.281,43.734 C57.281,43.734 49.281,43.734 49.281,43.734 C48.453,43.734 47.781,43.062 47.781,42.233 C47.781,41.404 48.453,40.732 49.281,40.732 C49.281,40.732 57.281,40.732 57.281,40.732 C58.109,40.732 58.781,41.404 58.781,42.233 C58.781,43.062 58.109,43.734 57.281,43.734 Z" id="path-7" class="cls-5" fill-rule="evenodd"/>
    <path d="M45.281,43.734 C45.281,43.734 42.281,43.734 42.281,43.734 C41.453,43.734 40.781,43.062 40.781,42.233 C40.781,41.404 41.453,40.732 42.281,40.732 C42.281,40.732 45.281,40.732 45.281,40.732 C46.109,40.732 46.781,41.404 46.781,42.233 C46.781,43.062 46.109,43.734 45.281,43.734 Z" id="path-8" class="cls-5" fill-rule="evenodd"/>
    <path d="M46.281,49.737 C46.281,49.737 44.281,49.737 44.281,49.737 C43.453,49.737 42.781,49.065 42.781,48.237 C42.781,47.408 43.453,46.736 44.281,46.736 C44.281,46.736 46.281,46.736 46.281,46.736 C47.109,46.736 47.781,47.408 47.781,48.237 C47.781,49.065 47.109,49.737 46.281,49.737 Z" id="path-9" class="cls-5" fill-rule="evenodd"/>
    <path d="M59.281,39.732 C59.281,39.732 57.281,39.732 57.281,39.732 C56.453,39.732 55.781,39.059 55.781,38.231 C55.781,37.402 56.453,36.730 57.281,36.730 C57.281,36.730 59.281,36.730 59.281,36.730 C60.109,36.730 60.781,37.402 60.781,38.231 C60.781,39.059 60.109,39.732 59.281,39.732 Z" id="path-10" class="cls-5" fill-rule="evenodd"/>
  </g>
</svg>
