<svg xmlns="http://www.w3.org/2000/svg" xmlns:xlink="http://www.w3.org/1999/xlink" preserveAspectRatio="xMidYMid" width="66" height="64" viewBox="0 0 66 64">
  <defs>
    <style>

      .cls-3 {
        fill: #e56a77;
      }

      .cls-4 {
        fill: #53ecf4;
      }

      .cls-5 {
        fill: #000000;
      }
    </style>
  </defs>
  <g id="group-22svg">
    <path d="M34.108,40.653 C34.108,40.653 27.557,34.097 27.557,34.097 C27.557,34.097 57.262,4.374 57.262,4.374 C58.434,3.202 60.333,3.202 61.504,4.374 C61.504,4.374 63.814,6.686 63.814,6.686 C64.985,7.858 64.985,9.758 63.814,10.931 C63.814,10.931 34.108,40.653 34.108,40.653 Z" id="path-1" class="cls-3" fill-rule="evenodd"/>
    <path d="M19.352,55.501 C19.352,59.607 16.025,62.936 11.921,62.936 C7.817,62.936 4.490,59.607 4.490,55.501 C4.490,51.394 7.817,48.066 11.921,48.066 C16.025,48.066 19.352,51.394 19.352,55.501 Z" id="path-2" class="cls-4" fill-rule="evenodd"/>
    <path d="M31.108,40.153 C31.108,40.153 31.108,40.153 31.108,40.153 C30.711,40.153 30.329,39.995 30.048,39.713 C30.048,39.713 23.496,33.157 23.496,33.157 C22.910,32.570 22.910,31.621 23.496,31.034 C23.496,31.034 53.201,1.312 53.201,1.312 C54.051,0.461 55.182,-0.007 56.383,-0.007 C57.585,-0.007 58.716,0.462 59.565,1.312 C59.565,1.312 61.875,3.623 61.875,3.623 C63.629,5.379 63.629,8.235 61.876,9.991 C61.876,9.991 32.169,39.713 32.169,39.713 C31.888,39.995 31.506,40.153 31.108,40.153 ZM26.678,32.095 C26.678,32.095 31.108,36.530 31.108,36.530 C31.108,36.530 59.754,7.869 59.754,7.869 C60.338,7.283 60.338,6.331 59.753,5.745 C59.753,5.745 57.443,3.434 57.443,3.434 C56.877,2.868 55.889,2.868 55.322,3.434 C55.322,3.434 26.678,32.095 26.678,32.095 Z" id="path-3" class="cls-5" fill-rule="evenodd"/>
    <path d="M14.778,50.182 C14.393,50.182 14.007,50.035 13.714,49.738 C13.130,49.150 13.134,48.200 13.722,47.616 C13.722,47.616 26.688,34.733 26.688,34.733 C27.276,34.149 28.227,34.151 28.810,34.741 C29.394,35.329 29.390,36.279 28.802,36.863 C28.802,36.863 15.835,49.746 15.835,49.746 C15.543,50.036 15.160,50.182 14.778,50.182 Z" id="path-4" class="cls-5" fill-rule="evenodd"/>
    <path d="M8.921,62.435 C3.996,62.435 -0.010,58.427 -0.010,53.499 C-0.010,48.572 3.996,44.564 8.921,44.564 C13.846,44.564 17.851,48.572 17.851,53.499 C17.851,58.427 13.846,62.435 8.921,62.435 ZM8.921,47.565 C5.650,47.565 2.990,50.227 2.990,53.499 C2.990,56.772 5.650,59.434 8.921,59.434 C12.191,59.434 14.852,56.772 14.852,53.499 C14.852,50.227 12.191,47.565 8.921,47.565 Z" id="path-5" class="cls-5" fill-rule="evenodd"/>
  </g>
</svg>
