<svg xmlns="http://www.w3.org/2000/svg" xmlns:xlink="http://www.w3.org/1999/xlink" preserveAspectRatio="xMidYMid" width="67" height="64" viewBox="0 0 67 64">
  <defs>
    <style>

      .cls-3 {
        fill: #53ecf4;
      }

      .cls-4 {
        fill: #000000;
      }
    </style>
  </defs>
  <g id="group-26svg">
    <path d="M24.220,57.670 C23.226,58.664 21.620,58.656 20.675,57.603 C19.768,56.590 18.237,56.813 17.276,57.775 C17.276,57.775 12.363,62.692 12.363,62.692 C10.895,64.160 8.034,63.578 6.966,61.616 C6.264,60.326 6.347,58.446 7.385,57.408 C7.385,57.408 12.189,52.602 12.189,52.602 C13.183,51.607 13.175,50.000 12.122,49.055 C11.110,48.147 11.333,46.615 12.294,45.653 C12.294,45.653 52.123,5.802 52.123,5.802 C54.156,3.768 57.153,2.953 59.893,3.826 C66.746,6.010 68.065,13.799 63.775,18.092 C63.775,18.092 24.220,57.670 24.220,57.670 Z" id="path-1" class="cls-3" fill-rule="evenodd"/>
    <path d="M5.249,63.014 C3.341,63.014 1.535,61.961 0.648,60.333 C-0.418,58.373 -0.128,55.798 1.325,54.345 C1.325,54.345 6.128,49.539 6.128,49.539 C6.326,49.342 6.430,49.086 6.423,48.819 C6.418,48.643 6.362,48.388 6.121,48.171 C5.400,47.524 4.989,46.631 4.962,45.656 C4.933,44.547 5.396,43.430 6.234,42.592 C6.234,42.592 46.062,2.739 46.062,2.739 C48.479,0.320 52.168,-0.621 55.348,0.396 C59.012,1.563 61.603,4.245 62.457,7.755 C63.286,11.166 62.306,14.680 59.835,17.152 C59.835,17.152 20.280,56.730 20.280,56.730 C19.524,57.487 18.524,57.904 17.464,57.904 C16.359,57.904 15.300,57.430 14.559,56.605 C14.490,56.528 14.386,56.441 14.178,56.441 C13.902,56.441 13.580,56.592 13.336,56.835 C13.336,56.835 8.423,61.751 8.423,61.751 C7.610,62.565 6.482,63.014 5.249,63.014 ZM52.651,2.979 C51.008,2.979 49.379,3.666 48.184,4.862 C48.184,4.862 8.355,44.714 8.355,44.714 C8.104,44.965 7.954,45.294 7.961,45.576 C7.967,45.771 8.051,45.872 8.124,45.937 C8.932,46.662 9.393,47.657 9.422,48.738 C9.451,49.821 9.023,50.887 8.249,51.661 C8.249,51.661 3.446,56.468 3.446,56.468 C2.934,56.981 2.857,58.115 3.283,58.897 C3.702,59.667 4.572,60.012 5.249,60.012 C5.499,60.012 5.969,59.962 6.302,59.629 C6.302,59.629 11.215,54.713 11.215,54.713 C12.024,53.904 13.104,53.440 14.178,53.440 C15.193,53.440 16.122,53.852 16.792,54.600 C17.028,54.863 17.314,54.902 17.464,54.902 C17.722,54.902 17.969,54.798 18.159,54.607 C18.159,54.607 57.714,15.030 57.714,15.030 C59.438,13.304 60.122,10.850 59.541,8.464 C58.941,5.996 57.081,4.098 54.437,3.256 C53.861,3.072 53.260,2.979 52.651,2.979 Z" id="path-2" class="cls-4" fill-rule="evenodd"/>
    <path d="M41.807,18.319 C41.423,18.319 41.039,18.172 40.746,17.879 C40.746,17.879 37.327,14.458 37.327,14.458 C36.741,13.872 36.741,12.922 37.327,12.336 C37.912,11.750 38.862,11.750 39.448,12.336 C39.448,12.336 42.867,15.757 42.867,15.757 C43.453,16.343 43.453,17.293 42.867,17.879 C42.575,18.172 42.190,18.319 41.807,18.319 Z" id="path-3" class="cls-4" fill-rule="evenodd"/>
    <path d="M36.678,23.451 C36.294,23.451 35.910,23.304 35.617,23.011 C35.617,23.011 32.198,19.590 32.198,19.590 C31.612,19.004 31.612,18.054 32.198,17.468 C32.783,16.881 33.733,16.881 34.319,17.468 C34.319,17.468 37.738,20.889 37.738,20.889 C38.324,21.475 38.324,22.425 37.738,23.011 C37.446,23.304 37.061,23.451 36.678,23.451 Z" id="path-4" class="cls-4" fill-rule="evenodd"/>
    <path d="M31.549,28.583 C31.165,28.583 30.781,28.436 30.488,28.143 C30.488,28.143 27.069,24.722 27.069,24.722 C26.483,24.136 26.483,23.186 27.069,22.600 C27.655,22.013 28.604,22.013 29.190,22.600 C29.190,22.600 32.609,26.020 32.609,26.020 C33.195,26.607 33.195,27.556 32.609,28.143 C32.316,28.436 31.933,28.583 31.549,28.583 Z" id="path-5" class="cls-4" fill-rule="evenodd"/>
    <path d="M26.420,33.714 C26.036,33.714 25.652,33.568 25.359,33.275 C25.359,33.275 21.940,29.854 21.940,29.854 C21.354,29.267 21.354,28.318 21.940,27.731 C22.526,27.145 23.476,27.145 24.062,27.731 C24.062,27.731 27.480,31.152 27.480,31.152 C28.066,31.739 28.066,32.688 27.480,33.275 C27.187,33.568 26.804,33.714 26.420,33.714 Z" id="path-6" class="cls-4" fill-rule="evenodd"/>
  </g>
</svg>
