<svg version="1.1" xmlns="http://www.w3.org/2000/svg" xmlns:xlink="http://www.w3.org/1999/xlink" width="17" height="17" viewBox="0 0 17 17"><path id="Rounded-Rectangl" d="M16.000,17.000 C16.000,17.000 9.000,17.000 9.000,17.000 C8.448,17.000 8.000,16.552 8.000,16.000 C8.000,16.000 8.000,9.000 8.000,9.000 C8.000,8.448 8.448,8.000 9.000,8.000 C9.000,8.000 16.000,8.000 16.000,8.000 C16.552,8.000 17.000,8.448 17.000,9.000 C17.000,9.000 17.000,16.000 17.000,16.000 C17.000,16.552 16.552,17.000 16.000,17.000 zM14.766,11.917 C14.928,11.616 15.010,11.294 15.010,10.950 C15.010,10.732 14.974,10.515 14.902,10.300 C14.830,10.085 14.728,9.893 14.597,9.725 C14.466,9.556 14.307,9.419 14.119,9.313 C13.932,9.207 13.723,9.154 13.492,9.154 C13.492,9.154 9.931,9.154 9.931,9.154 L9.931,16.198 C9.931,16.198 13.145,16.198 13.145,16.198 C13.438,16.198 13.715,16.159 13.974,16.079 C14.233,16.000 14.461,15.884 14.658,15.732 C14.855,15.580 15.010,15.391 15.122,15.166 C15.234,14.942 15.291,14.680 15.291,14.383 C15.291,13.920 15.180,13.534 14.958,13.227 C14.736,12.919 14.435,12.706 14.054,12.587 C14.366,12.441 14.603,12.218 14.766,11.917 zM13.745,14.775 C13.670,14.857 13.581,14.922 13.478,14.968 C13.374,15.014 13.264,15.037 13.145,15.037 C13.145,15.037 11.224,15.037 11.224,15.037 L11.224,13.182 C11.224,13.182 13.211,13.182 13.211,13.182 C13.323,13.182 13.426,13.207 13.520,13.257 C13.613,13.306 13.695,13.374 13.763,13.460 C13.832,13.546 13.887,13.647 13.927,13.763 C13.968,13.878 13.988,13.999 13.988,14.125 C13.988,14.250 13.966,14.369 13.923,14.482 C13.879,14.594 13.820,14.692 13.745,14.775 zM12.948,12.101 C12.948,12.101 11.224,12.101 11.224,12.101 L11.224,10.325 C11.224,10.325 13.004,10.325 13.004,10.325 C13.211,10.325 13.384,10.404 13.524,10.563 C13.665,10.722 13.735,10.937 13.735,11.208 C13.735,11.486 13.659,11.704 13.506,11.863 C13.353,12.021 13.167,12.101 12.948,12.101 zM7.187,8.187 C7.187,8.187 7.187,9.000 7.187,9.000 C7.187,9.000 1.000,9.000 1.000,9.000 C0.448,9.000 -0.000,8.552 -0.000,8.000 C-0.000,8.000 -0.000,1.000 -0.000,1.000 C-0.000,0.448 0.448,-0.000 1.000,-0.000 C1.000,-0.000 8.000,-0.000 8.000,-0.000 C8.552,-0.000 9.000,0.448 9.000,1.000 C9.000,1.000 9.000,7.187 9.000,7.187 C9.000,7.187 8.187,7.187 8.187,7.187 C7.635,7.187 7.187,7.635 7.187,8.187 zM4.959,0.856 L4.022,0.856 L1.941,7.612 L3.032,7.612 L3.531,5.928 L5.436,5.928 L5.943,7.612 L7.033,7.612 L4.959,0.856 zM4.491,2.350 L5.244,5.005 L3.708,5.005 L4.491,2.350 z" fill="#787878" /></svg>