<svg xmlns="http://www.w3.org/2000/svg" width="23" height="23" viewBox="0 0 23 23">
  <path fill="#9C9C9C" d="M9.24,13.24 C9.18,13.3 9.09,13.33 9,13.33 L7,13.33 C6.82,13.34 6.68,13.2 6.67,13.02 C6.67,13.01 6.67,13.01 6.67,13 L6.67,11 C6.66,10.82 6.8,10.68 6.98,10.67 C6.99,10.67 6.99,10.67 7,10.67 L9,10.67 C9.18,10.66 9.32,10.8 9.33,10.98 C9.33,10.99 9.33,10.99 9.33,11 L9.33,13 C9.33,13.09 9.3,13.18 9.24,13.24 Z M12,6 C12,6.29 11.96,6.57 11.87,6.84 C11.8,7.06 11.7,7.27 11.58,7.47 C11.45,7.66 11.3,7.83 11.12,7.97 C10.97,8.1 10.81,8.22 10.64,8.33 L10.13,8.63 C9.9,8.76 9.71,8.94 9.56,9.15 C9.44,9.3 9.36,9.48 9.34,9.67 C9.35,9.85 9.21,9.99 9.03,10 C9.02,10 9.01,10 9,10 L7,10 C6.82,10.01 6.68,9.87 6.67,9.69 C6.67,9.68 6.67,9.68 6.67,9.67 L6.67,9.29 C6.68,8.81 6.88,8.35 7.21,8 C7.54,7.62 7.95,7.31 8.41,7.1 C8.68,6.99 8.92,6.83 9.12,6.63 C9.27,6.45 9.34,6.23 9.33,6 C9.31,5.74 9.16,5.51 8.94,5.39 C8.39,5.04 7.7,5.04 7.15,5.39 C6.81,5.68 6.51,6.02 6.25,6.39 C6.19,6.47 6.09,6.51 5.99,6.51 C5.92,6.52 5.85,6.49 5.79,6.45 L4.42,5.45 C4.28,5.36 4.23,5.18 4.32,5.04 C4.33,5.03 4.33,5.02 4.34,5.01 C5.11,3.6 6.6,2.74 8.2,2.79 C9.45,2.77 10.64,3.33 11.42,4.3 C11.8,4.79 12,5.38 12,6 L12,6 Z M14.93,4 C14.23,2.79 13.22,1.78 12,1.08 C10.79,0.37 9.41,-0.01 8,-4.4408921e-16 C6.59,-0.01 5.21,0.37 4,1.08 C2.79,1.78 1.78,2.79 1.08,4 C0.37,5.21 -0.01,6.59 2.04941316e-16,8 C-0.01,9.41 0.36,10.79 1.07,12 C1.77,13.21 2.78,14.22 4,14.92 C5.21,15.63 6.59,16.01 8,16 C9.41,16.01 10.79,15.64 12,14.93 C13.21,14.23 14.22,13.22 14.92,12 C15.63,10.79 16.01,9.41 16,8 C16.01,6.59 15.63,5.21 14.92,4 L14.93,4 Z" transform="translate(4 4)"/>
</svg>
