<svg xmlns="http://www.w3.org/2000/svg" width="23" height="23" viewBox="0 0 23 23">
  <path fill="#808080" d="M15.33,9.67 C15.34,9.49 15.21,9.34 15.03,9.33 C15.02,9.33 15.01,9.33 15,9.33 L14.33,9.33 C14.15,9.32 14.01,9.46 14,9.64 C14,9.65 14,9.65 14,9.66 L14,13 C14,13.92 13.25,14.67 12.33,14.67 L12.33,14.67 L3.67,14.67 C2.75,14.67 2,13.92 2,13 L2,13 L2,4.34 C2,3.42 2.75,2.67 3.67,2.67 L3.67,2.67 L11,2.67 C11.18,2.68 11.32,2.54 11.33,2.36 C11.33,2.35 11.33,2.35 11.33,2.34 L11.33,1.67 C11.34,1.49 11.2,1.35 11.02,1.34 C11.01,1.34 11.01,1.34 11,1.34 L3.67,1.34 C2.87,1.33 2.1,1.65 1.55,2.22 C0.98,2.77 0.66,3.54 0.67,4.34 L0.67,13 C0.66,13.8 0.98,14.57 1.55,15.12 C2.1,15.69 2.87,16.01 3.67,16 L12.33,16 C13.99,16 15.33,14.66 15.33,13 L15.33,9.67 L15.33,9.67 Z M19.33,0.67 C19.32,0.3 19.03,0.01 18.66,0 L13.33,0 C12.97,0 12.67,0.29 12.66,0.65 C12.66,0.83 12.73,1 12.86,1.13 L14.7,3 L7.91,9.76 C7.78,9.89 7.77,10.09 7.9,10.23 C7.9,10.23 7.91,10.24 7.91,10.24 L9.1,11.43 C9.23,11.56 9.43,11.57 9.57,11.44 C9.57,11.44 9.58,11.43 9.58,11.43 L16.37,4.64 L18.2,6.47 C18.47,6.72 18.89,6.71 19.15,6.44 C19.26,6.32 19.33,6.16 19.33,6 L19.33,0.67 L19.33,0.67 Z" transform="translate(2 4)"/>
</svg>
