<?xml version="1.0" encoding="UTF-8" standalone="no"?>
<svg width="256px" height="163px" viewBox="0 0 256 163" version="1.1" xmlns="http://www.w3.org/2000/svg" xmlns:xlink="http://www.w3.org/1999/xlink" xmlns:sketch="http://www.bohemiancoding.com/sketch/ns">
    <!-- Generator: Sketch 3.5.1 (25234) - http://www.bohemiancoding.com/sketch -->
    <title>deploy copy 9</title>
    <desc>Created with Sketch.</desc>
    <defs></defs>
    <g id="Page-1" stroke="none" stroke-width="1" fill="none" fill-rule="evenodd" sketch:type="MSPage">
        <g id="deploy-copy-9" sketch:type="MSLayerGroup">
            <path d="M46.5454545,162.909091 C20.8391098,162.909091 0,142.069981 0,116.363636 C0,98.9771818 9.53280182,83.8172325 23.6568008,75.8253931 C23.4033953,73.8587953 23.2727273,71.8537481 23.2727273,69.8181818 C23.2727273,44.1118371 44.1118371,23.2727273 69.8181818,23.2727273 C75.2606315,23.2727273 80.4849136,24.2068143 85.339456,25.9234167 C98.1392317,10.1100689 117.707131,0 139.636364,0 C178.195881,0 209.454545,31.2586647 209.454545,69.8181818 C235.16089,69.8181818 256,90.6572916 256,116.363636 C256,142.069981 235.16089,162.909091 209.454545,162.909091 L46.5454545,162.909091 L46.5454545,162.909091 Z" id="Oval-1" fill="#37A0CD" sketch:type="MSShapeGroup"></path>
            <path d="M136.89924,31.5123489 C133.076504,28.9227536 127.773999,22.7570503 123.334693,17.4545455 C122.471494,25.9632161 119.881899,29.4160098 116.922361,31.8822912 C110.633344,36.8148538 106.687294,38.2946225 101.261475,41.2541601 C96.6988544,43.5971274 71.9127273,58.3948153 71.9127273,90.2098441 C71.9127273,122.024873 98.6718794,145.454545 128.390569,145.454545 C158.109259,145.454545 183.881899,123.874584 183.881899,91.1963567 C183.881899,58.5181293 159.712342,43.7204415 155.766292,41.2541601 C149.230646,37.1847959 143.064943,35.581713 136.89924,31.5123489 Z" id="Shape" fill="#FFFFFF" sketch:type="MSShapeGroup"></path>
            <path d="M128,52.3636364 L162.909091,87.396959 L93.0909091,87.396959 L128,52.3636364 L128,52.3636364 Z M110.483339,87.396959 L145.516661,87.396959 L145.516661,122.430282 L110.483339,122.430282 L110.483339,87.396959 L110.483339,87.396959 Z" id="Triangle-1" fill="#37A0CD" sketch:type="MSShapeGroup"></path>
        </g>
    </g>
</svg>