<svg xmlns="http://www.w3.org/2000/svg" xmlns:xlink="http://www.w3.org/1999/xlink" preserveAspectRatio="xMidYMid" width="36" height="64" viewBox="0 0 36 64">
  <defs>
    <style>

      .cls-3 {
        fill: #e56a77;
      }

      .cls-4 {
        fill: #ff917b;
      }

      .cls-5 {
        fill: #53ecf4;
      }

      .cls-9 {
        fill: #000000;
      }
    </style>
  </defs>
  <g id="group-20svg">
    <path d="M32.326,50.521 C32.326,50.521 27.604,45.512 29.945,41.276 C32.286,37.040 32.312,29.500 32.312,29.500 C32.312,29.500 20.663,29.500 20.663,29.500 C20.663,29.500 9.569,29.500 9.569,29.500 C9.569,29.500 9.596,37.040 11.937,41.276 C14.276,45.512 9.278,50.368 9.278,50.368 C9.278,50.368 3.022,63.623 20.663,63.618 C39.364,63.623 32.326,50.521 32.326,50.521 Z" id="path-1" class="cls-3" fill-rule="evenodd"/>
    <path d="M6.731,18.655 C6.731,18.655 14.996,6.601 14.996,6.601 C17.738,2.609 23.631,2.600 26.373,6.592 C26.373,6.592 34.638,18.660 34.638,18.660 C37.781,23.239 34.504,29.500 28.949,29.500 C28.949,29.500 12.420,29.500 12.420,29.500 C6.865,29.500 3.588,23.234 6.731,18.655 Z" id="path-2" class="cls-4" fill-rule="evenodd"/>
    <path d="M30.839,20.934 C30.839,23.281 28.936,25.183 26.590,25.183 C24.243,25.183 22.340,23.281 22.340,20.934 C22.340,18.587 24.243,16.685 26.590,16.685 C28.936,16.685 30.839,18.587 30.839,20.934 Z" id="path-3" class="cls-5" fill-rule="evenodd"/>
    <path d="M20.256,20.934 C20.256,23.281 18.354,25.183 16.006,25.183 C13.659,25.183 11.757,23.281 11.757,20.934 C11.757,18.587 13.659,16.685 16.006,16.685 C18.354,16.685 20.256,18.587 20.256,20.934 Z" id="path-4" class="cls-5" fill-rule="evenodd"/>
    <path d="M25.066,13.237 C25.066,15.583 23.164,17.486 20.816,17.486 C18.470,17.486 16.567,15.583 16.567,13.237 C16.567,10.890 18.470,8.987 20.816,8.987 C23.164,8.987 25.066,10.890 25.066,13.237 Z" id="path-5" class="cls-5" fill-rule="evenodd"/>
    <path d="M23.390,41.405 C23.390,42.826 22.238,43.978 20.816,43.978 C19.396,43.978 18.244,42.826 18.244,41.405 C18.244,39.984 19.396,38.832 20.816,38.832 C22.238,38.832 23.390,39.984 23.390,41.405 Z" id="path-6" class="cls-5" fill-rule="evenodd"/>
    <path d="M24.949,28.500 C24.949,28.500 8.420,28.500 8.420,28.500 C5.258,28.500 2.396,26.797 0.953,24.056 C-0.485,21.323 -0.283,18.145 1.495,15.556 C1.495,15.556 9.763,3.622 9.763,3.622 C11.316,1.361 13.889,0.009 16.642,0.009 C19.426,0.009 22.030,1.381 23.609,3.680 C23.609,3.680 31.868,15.521 31.868,15.521 C33.654,18.123 33.855,21.308 32.412,24.051 C30.967,26.795 28.107,28.500 24.949,28.500 ZM16.642,3.009 C14.851,3.009 13.244,3.853 12.232,5.325 C12.232,5.325 3.965,17.259 3.965,17.259 C2.832,18.909 2.697,20.929 3.608,22.659 C4.545,24.438 6.344,25.500 8.420,25.500 C8.420,25.500 24.949,25.500 24.949,25.500 C27.021,25.500 28.818,24.436 29.757,22.653 C30.673,20.914 30.539,18.886 29.401,17.228 C29.401,17.228 21.143,5.387 21.143,5.387 C20.103,3.873 18.464,3.009 16.642,3.009 Z" id="path-7" class="cls-9" fill-rule="evenodd"/>
    <path d="M17.125,63.277 C17.125,63.277 17.125,63.500 17.125,63.500 C17.125,63.500 16.663,63.500 16.663,63.500 C10.353,63.500 6.112,61.628 4.046,58.375 C1.159,53.831 3.807,47.959 3.921,47.716 C3.995,47.559 4.096,47.359 4.220,47.236 C4.260,47.196 8.385,42.967 6.623,39.779 C4.126,35.260 4.070,27.353 4.069,27.019 C4.068,26.620 4.226,26.230 4.507,25.948 C4.788,25.666 5.171,25.500 5.569,25.500 C5.569,25.500 28.312,25.500 28.312,25.500 C28.711,25.500 29.094,25.659 29.375,25.941 C29.656,26.224 29.813,26.606 29.812,27.005 C29.811,27.339 29.756,35.232 27.258,39.752 C25.466,42.995 29.404,47.477 29.444,47.521 C29.521,47.608 29.591,47.707 29.646,47.809 C29.770,48.039 32.891,53.622 30.223,58.093 C28.215,61.459 23.125,63.277 17.125,63.277 ZM6.551,49.082 C6.181,49.994 4.821,54.017 6.585,56.778 C8.069,59.100 11.456,60.500 16.652,60.500 C16.652,60.500 17.125,60.500 17.125,60.500 C17.125,60.500 17.125,60.277 17.125,60.277 C22.125,60.277 26.227,58.922 27.640,56.567 C29.262,53.866 27.536,50.150 27.182,49.417 C26.327,48.404 22.088,43.033 24.689,38.329 C26.230,35.539 26.626,30.876 26.758,28.500 C26.758,28.500 7.124,28.500 7.124,28.500 C7.258,30.878 7.711,35.517 9.249,38.301 C11.820,42.955 7.588,47.962 6.551,49.082 Z" id="path-8" class="cls-9" fill-rule="evenodd"/>
    <path d="M22.590,24.683 C19.419,24.683 16.840,22.104 16.840,18.934 C16.840,15.764 19.419,13.185 22.590,13.185 C25.760,13.185 28.339,15.764 28.339,18.934 C28.339,22.104 25.760,24.683 22.590,24.683 ZM22.590,16.185 C21.073,16.185 19.840,17.418 19.840,18.934 C19.840,20.450 21.073,21.683 22.590,21.683 C24.105,21.683 25.339,20.450 25.339,18.934 C25.339,17.418 24.105,16.185 22.590,16.185 Z" id="path-9" class="cls-9" fill-rule="evenodd"/>
    <path d="M12.006,24.683 C8.836,24.683 6.257,22.104 6.257,18.934 C6.257,15.764 8.836,13.185 12.006,13.185 C15.177,13.185 17.756,15.764 17.756,18.934 C17.756,22.104 15.177,24.683 12.006,24.683 ZM12.006,16.185 C10.490,16.185 9.257,17.418 9.257,18.934 C9.257,20.450 10.490,21.683 12.006,21.683 C13.522,21.683 14.756,20.450 14.756,18.934 C14.756,17.418 13.522,16.185 12.006,16.185 Z" id="path-10" class="cls-9" fill-rule="evenodd"/>
    <path d="M16.817,16.986 C13.646,16.986 11.067,14.407 11.067,11.237 C11.067,8.066 13.646,5.487 16.817,5.487 C19.987,5.487 22.566,8.066 22.566,11.237 C22.566,14.407 19.987,16.986 16.817,16.986 ZM16.817,8.487 C15.301,8.487 14.067,9.721 14.067,11.237 C14.067,12.753 15.301,13.986 16.817,13.986 C18.333,13.986 19.566,12.753 19.566,11.237 C19.566,9.721 18.333,8.487 16.817,8.487 Z" id="path-11" class="cls-9" fill-rule="evenodd"/>
    <path d="M16.817,43.478 C14.571,43.478 12.744,41.650 12.744,39.405 C12.744,37.159 14.571,35.332 16.817,35.332 C19.062,35.332 20.890,37.159 20.890,39.405 C20.890,41.650 19.062,43.478 16.817,43.478 ZM16.817,38.332 C16.226,38.332 15.744,38.813 15.744,39.405 C15.744,39.996 16.226,40.477 16.817,40.477 C17.408,40.477 17.890,39.996 17.890,39.405 C17.890,38.813 17.408,38.332 16.817,38.332 Z" id="path-12" class="cls-9" fill-rule="evenodd"/>
  </g>
</svg>
