<svg xmlns="http://www.w3.org/2000/svg" xmlns:xlink="http://www.w3.org/1999/xlink" preserveAspectRatio="xMidYMid" width="64" height="65" viewBox="0 0 64 65">
  <defs>
    <style>

      .cls-3 {
        fill: #99746a;
      }

      .cls-4 {
        fill: #53ecf4;
      }

      .cls-5 {
        fill: #ff917b;
      }

      .cls-6 {
        fill: #000000;
      }
    </style>
  </defs>
  <g id="group-13svg">
    <path d="M64.000,57.000 C64.000,54.791 62.209,53.000 60.000,53.000 C60.000,53.000 10.000,53.000 10.000,53.000 C7.791,53.000 6.000,54.791 6.000,57.000 C6.000,57.000 6.000,61.000 6.000,61.000 C6.000,63.209 7.791,65.000 10.000,65.000 C10.000,65.000 60.000,65.000 60.000,65.000 C62.209,65.000 64.000,63.209 64.000,61.000 C64.000,61.000 64.000,57.000 64.000,57.000 Z" id="path-1" class="cls-3" fill-rule="evenodd"/>
    <path d="M58.000,49.000 C58.000,51.209 56.209,53.000 54.000,53.000 C54.000,53.000 16.000,53.000 16.000,53.000 C13.791,53.000 12.000,51.209 12.000,49.000 C12.000,49.000 12.000,9.000 12.000,9.000 C12.000,6.791 13.791,5.000 16.000,5.000 C16.000,5.000 54.000,5.000 54.000,5.000 C56.209,5.000 58.000,6.791 58.000,9.000 C58.000,9.000 58.000,49.000 58.000,49.000 Z" id="path-2" class="cls-4" fill-rule="evenodd"/>
    <path d="M51.000,27.000 C51.000,29.209 49.209,31.000 47.000,31.000 C47.000,31.000 24.000,31.000 24.000,31.000 C21.791,31.000 20.000,29.209 20.000,27.000 C20.000,27.000 20.000,15.000 20.000,15.000 C20.000,12.791 21.791,11.000 24.000,11.000 C24.000,11.000 47.000,11.000 47.000,11.000 C49.209,11.000 51.000,12.791 51.000,15.000 C51.000,15.000 51.000,27.000 51.000,27.000 Z" id="path-3" class="cls-5" fill-rule="evenodd"/>
    <path d="M42.500,29.000 C42.500,29.000 19.500,29.000 19.500,29.000 C16.467,29.000 14.000,26.533 14.000,23.500 C14.000,23.500 14.000,11.500 14.000,11.500 C14.000,8.467 16.467,6.000 19.500,6.000 C19.500,6.000 42.500,6.000 42.500,6.000 C45.533,6.000 48.000,8.467 48.000,11.500 C48.000,11.500 48.000,23.500 48.000,23.500 C48.000,26.533 45.533,29.000 42.500,29.000 ZM19.500,9.000 C18.122,9.000 17.000,10.122 17.000,11.500 C17.000,11.500 17.000,23.500 17.000,23.500 C17.000,24.878 18.122,26.000 19.500,26.000 C19.500,26.000 42.500,26.000 42.500,26.000 C43.878,26.000 45.000,24.878 45.000,23.500 C45.000,23.500 45.000,11.500 45.000,11.500 C45.000,10.122 43.878,9.000 42.500,9.000 C42.500,9.000 19.500,9.000 19.500,9.000 Z" id="path-4" class="cls-6" fill-rule="evenodd"/>
    <path d="M49.500,51.000 C49.500,51.000 11.500,51.000 11.500,51.000 C8.467,51.000 6.000,48.533 6.000,45.500 C6.000,45.500 6.000,5.500 6.000,5.500 C6.000,2.467 8.467,-0.000 11.500,-0.000 C11.500,-0.000 49.500,-0.000 49.500,-0.000 C52.533,-0.000 55.000,2.467 55.000,5.500 C55.000,5.500 55.000,45.500 55.000,45.500 C55.000,48.533 52.533,51.000 49.500,51.000 ZM11.500,3.000 C10.122,3.000 9.000,4.122 9.000,5.500 C9.000,5.500 9.000,45.500 9.000,45.500 C9.000,46.878 10.122,48.000 11.500,48.000 C11.500,48.000 49.500,48.000 49.500,48.000 C50.878,48.000 52.000,46.878 52.000,45.500 C52.000,45.500 52.000,5.500 52.000,5.500 C52.000,4.122 50.878,3.000 49.500,3.000 C49.500,3.000 11.500,3.000 11.500,3.000 Z" id="path-5" class="cls-6" fill-rule="evenodd"/>
    <path d="M22.616,42.958 C22.616,42.958 22.067,41.516 22.067,41.516 C22.067,41.516 17.396,41.516 17.396,41.516 C17.396,41.516 16.848,42.989 16.848,42.989 C16.633,43.564 16.451,43.952 16.299,44.153 C16.147,44.354 15.899,44.455 15.555,44.455 C15.262,44.455 15.003,44.348 14.779,44.134 C14.554,43.919 14.442,43.676 14.442,43.404 C14.442,43.248 14.468,43.086 14.520,42.919 C14.572,42.752 14.659,42.519 14.779,42.221 C14.779,42.221 17.718,34.760 17.718,34.760 C17.801,34.546 17.902,34.289 18.020,33.988 C18.137,33.687 18.262,33.438 18.395,33.239 C18.529,33.041 18.704,32.881 18.921,32.758 C19.138,32.635 19.405,32.573 19.724,32.573 C20.048,32.573 20.318,32.635 20.535,32.758 C20.752,32.881 20.927,33.039 21.060,33.231 C21.193,33.425 21.306,33.633 21.397,33.854 C21.489,34.077 21.605,34.374 21.746,34.744 C21.746,34.744 24.748,42.158 24.748,42.158 C24.983,42.723 25.100,43.133 25.100,43.389 C25.100,43.655 24.989,43.899 24.767,44.122 C24.545,44.344 24.277,44.455 23.964,44.455 C23.781,44.455 23.624,44.422 23.494,44.356 C23.363,44.291 23.253,44.203 23.165,44.090 C23.076,43.978 22.980,43.806 22.878,43.573 C22.776,43.341 22.689,43.136 22.616,42.958 ZM18.008,39.769 C18.008,39.769 21.440,39.769 21.440,39.769 C21.440,39.769 19.708,35.026 19.708,35.026 C19.708,35.026 18.008,39.769 18.008,39.769 Z" id="path-6" class="cls-6" fill-rule="evenodd"/>
    <path d="M32.859,34.689 C32.859,34.689 30.320,34.689 30.320,34.689 C30.320,34.689 30.320,43.036 30.320,43.036 C30.320,43.517 30.212,43.874 29.998,44.106 C29.784,44.339 29.507,44.455 29.167,44.455 C28.823,44.455 28.542,44.337 28.325,44.102 C28.108,43.867 28.000,43.512 28.000,43.036 C28.000,43.036 28.000,34.689 28.000,34.689 C28.000,34.689 25.460,34.689 25.460,34.689 C25.063,34.689 24.769,34.603 24.575,34.427 C24.382,34.252 24.285,34.020 24.285,33.733 C24.285,33.436 24.386,33.200 24.587,33.028 C24.788,32.855 25.079,32.769 25.460,32.769 C25.460,32.769 32.859,32.769 32.859,32.769 C33.261,32.769 33.561,32.858 33.756,33.036 C33.952,33.214 34.050,33.446 34.050,33.733 C34.050,34.020 33.951,34.252 33.752,34.427 C33.554,34.603 33.256,34.689 32.859,34.689 Z" id="path-7" class="cls-6" fill-rule="evenodd"/>
    <path d="M39.309,42.526 C39.309,42.526 37.467,35.207 37.467,35.207 C37.467,35.207 37.467,43.138 37.467,43.138 C37.467,43.577 37.370,43.906 37.173,44.126 C36.977,44.345 36.718,44.455 36.394,44.455 C36.080,44.455 35.824,44.347 35.625,44.130 C35.427,43.913 35.328,43.582 35.328,43.138 C35.328,43.138 35.328,34.047 35.328,34.047 C35.328,33.545 35.458,33.207 35.720,33.032 C35.981,32.857 36.333,32.769 36.778,32.769 C36.778,32.769 37.499,32.769 37.499,32.769 C37.932,32.769 38.247,32.809 38.443,32.887 C38.639,32.966 38.784,33.106 38.878,33.311 C38.972,33.514 39.079,33.846 39.199,34.306 C39.199,34.306 40.869,40.599 40.869,40.599 C40.869,40.599 42.538,34.306 42.538,34.306 C42.658,33.846 42.765,33.514 42.859,33.311 C42.954,33.106 43.098,32.966 43.294,32.887 C43.490,32.809 43.805,32.769 44.239,32.769 C44.239,32.769 44.959,32.769 44.959,32.769 C45.404,32.769 45.756,32.857 46.018,33.032 C46.279,33.207 46.410,33.545 46.410,34.047 C46.410,34.047 46.410,43.138 46.410,43.138 C46.410,43.577 46.311,43.906 46.116,44.126 C45.920,44.345 45.657,44.455 45.328,44.455 C45.020,44.455 44.766,44.345 44.568,44.126 C44.369,43.906 44.270,43.577 44.270,43.138 C44.270,43.138 44.270,35.207 44.270,35.207 C44.270,35.207 42.428,42.526 42.428,42.526 C42.308,43.002 42.210,43.351 42.134,43.573 C42.059,43.795 41.919,43.998 41.715,44.181 C41.511,44.363 41.229,44.455 40.869,44.455 C40.597,44.455 40.367,44.395 40.179,44.278 C39.991,44.161 39.845,44.011 39.740,43.828 C39.636,43.645 39.553,43.442 39.493,43.221 C39.433,42.998 39.372,42.768 39.309,42.526 Z" id="path-8" class="cls-6" fill-rule="evenodd"/>
    <path d="M42.000,18.000 C42.000,18.000 37.000,18.000 37.000,18.000 C36.171,18.000 35.500,17.329 35.500,16.500 C35.500,15.671 36.171,15.000 37.000,15.000 C37.000,15.000 42.000,15.000 42.000,15.000 C42.829,15.000 43.500,15.671 43.500,16.500 C43.500,17.329 42.829,18.000 42.000,18.000 Z" id="path-9" class="cls-6" fill-rule="evenodd"/>
    <path d="M42.000,23.000 C42.000,23.000 37.000,23.000 37.000,23.000 C36.171,23.000 35.500,22.329 35.500,21.500 C35.500,20.671 36.171,20.000 37.000,20.000 C37.000,20.000 42.000,20.000 42.000,20.000 C42.829,20.000 43.500,20.671 43.500,21.500 C43.500,22.329 42.829,23.000 42.000,23.000 Z" id="path-10" class="cls-6" fill-rule="evenodd"/>
    <path d="M25.000,18.000 C25.000,18.000 20.000,18.000 20.000,18.000 C19.171,18.000 18.500,17.329 18.500,16.500 C18.500,15.671 19.171,15.000 20.000,15.000 C20.000,15.000 25.000,15.000 25.000,15.000 C25.829,15.000 26.500,15.671 26.500,16.500 C26.500,17.329 25.829,18.000 25.000,18.000 Z" id="path-11" class="cls-6" fill-rule="evenodd"/>
    <path d="M25.000,23.000 C25.000,23.000 20.000,23.000 20.000,23.000 C19.171,23.000 18.500,22.329 18.500,21.500 C18.500,20.671 19.171,20.000 20.000,20.000 C20.000,20.000 25.000,20.000 25.000,20.000 C25.829,20.000 26.500,20.671 26.500,21.500 C26.500,22.329 25.829,23.000 25.000,23.000 Z" id="path-12" class="cls-6" fill-rule="evenodd"/>
    <path d="M55.500,63.000 C55.500,63.000 5.500,63.000 5.500,63.000 C2.467,63.000 -0.000,60.533 -0.000,57.500 C-0.000,57.500 -0.000,53.500 -0.000,53.500 C-0.000,50.467 2.467,48.000 5.500,48.000 C5.500,48.000 55.500,48.000 55.500,48.000 C58.533,48.000 61.000,50.467 61.000,53.500 C61.000,53.500 61.000,57.500 61.000,57.500 C61.000,60.533 58.533,63.000 55.500,63.000 ZM5.500,51.000 C4.122,51.000 3.000,52.122 3.000,53.500 C3.000,53.500 3.000,57.500 3.000,57.500 C3.000,58.878 4.122,60.000 5.500,60.000 C5.500,60.000 55.500,60.000 55.500,60.000 C56.878,60.000 58.000,58.878 58.000,57.500 C58.000,57.500 58.000,53.500 58.000,53.500 C58.000,52.122 56.878,51.000 55.500,51.000 C55.500,51.000 5.500,51.000 5.500,51.000 Z" id="path-13" class="cls-6" fill-rule="evenodd"/>
  </g>
</svg>
