<svg xmlns="http://www.w3.org/2000/svg" xmlns:xlink="http://www.w3.org/1999/xlink" preserveAspectRatio="xMidYMid" width="42" height="64" viewBox="0 0 42 64">
  <defs>
    <style>

      .cls-3 {
        fill: #53ecf4;
      }

      .cls-4 {
        fill: #edc951;
      }

      .cls-9 {
        fill: #000000;
      }
    </style>
  </defs>
  <g id="group-28svg">
    <path d="M41.905,22.183 C41.905,32.508 33.534,40.879 23.208,40.879 C12.882,40.879 4.512,32.508 4.512,22.183 C4.512,11.857 12.882,3.486 23.208,3.486 C33.534,3.486 41.905,11.857 41.905,22.183 Z" id="path-1" class="cls-3" fill-rule="evenodd"/>
    <path d="M27.747,21.922 C27.747,24.473 25.679,26.540 23.129,26.540 C20.579,26.540 18.511,24.473 18.511,21.922 C18.511,19.372 20.579,17.305 23.129,17.305 C25.679,17.305 27.747,19.372 27.747,21.922 Z" id="path-2" class="cls-4" fill-rule="evenodd"/>
    <path d="M20.396,12.042 C20.130,9.771 21.238,8.746 23.524,8.746 C25.811,8.746 26.800,9.778 26.483,12.042 C26.146,14.453 23.524,17.194 23.524,17.194 C23.524,17.194 20.665,14.327 20.396,12.042 Z" id="path-3" class="cls-4" fill-rule="evenodd"/>
    <path d="M33.023,25.169 C35.065,26.198 35.310,27.688 34.050,29.596 C32.790,31.503 31.384,31.760 29.669,30.248 C27.843,28.638 27.001,24.940 27.001,24.940 C27.001,24.940 30.970,24.134 33.023,25.169 Z" id="path-4" class="cls-4" fill-rule="evenodd"/>
    <path d="M15.659,27.528 C14.012,29.114 12.525,28.852 11.143,27.031 C9.760,25.210 9.984,23.797 11.979,22.681 C14.103,21.491 17.871,21.922 17.871,21.922 C17.871,21.922 17.317,25.934 15.659,27.528 Z" id="path-5" class="cls-4" fill-rule="evenodd"/>
    <path d="M24.312,54.941 C24.312,54.941 24.312,41.719 24.312,41.719 C24.312,41.719 20.312,41.719 20.312,41.719 C20.312,41.719 20.312,54.832 20.312,54.832 C16.312,55.206 14.031,59.121 14.031,59.121 C14.031,59.121 14.204,63.486 23.112,63.486 C32.020,63.486 31.501,59.121 31.501,59.121 C31.501,59.121 29.312,55.481 24.312,54.941 Z" id="path-6" class="cls-4" fill-rule="evenodd"/>
    <path d="M20.208,40.379 C9.071,40.379 0.011,31.319 0.011,20.183 C0.011,9.046 9.071,-0.014 20.208,-0.014 C31.345,-0.014 40.405,9.046 40.405,20.183 C40.405,31.319 31.345,40.379 20.208,40.379 ZM20.208,2.986 C10.726,2.986 3.011,10.700 3.011,20.183 C3.011,29.665 10.726,37.379 20.208,37.379 C29.690,37.379 37.405,29.665 37.405,20.183 C37.405,10.700 29.690,2.986 20.208,2.986 Z" id="path-7" class="cls-9" fill-rule="evenodd"/>
    <path d="M20.237,62.986 C9.963,62.986 9.784,57.377 9.781,57.138 C9.778,56.844 9.862,56.555 10.021,56.307 C10.129,56.141 12.451,52.611 16.312,51.582 C16.312,51.582 16.312,39.219 16.312,39.219 C16.312,38.390 16.984,37.719 17.812,37.719 C17.812,37.719 21.812,37.719 21.812,37.719 C22.641,37.719 23.312,38.390 23.312,39.219 C23.312,39.219 23.312,51.669 23.312,51.669 C28.055,52.722 30.039,56.237 30.128,56.399 C30.231,56.586 30.293,56.794 30.309,57.008 C30.323,57.185 30.400,58.777 28.993,60.295 C27.338,62.081 24.392,62.986 20.237,62.986 ZM12.883,57.479 C13.321,58.492 15.217,59.986 20.237,59.986 C25.265,59.986 26.971,58.501 27.266,57.497 C26.679,56.699 24.949,54.789 21.651,54.433 C20.890,54.351 20.312,53.707 20.312,52.941 C20.312,52.941 20.312,40.719 20.312,40.719 C20.312,40.719 19.312,40.719 19.312,40.719 C19.312,40.719 19.312,52.832 19.312,52.832 C19.312,53.606 18.723,54.253 17.952,54.326 C15.494,54.555 13.620,56.561 12.883,57.479 Z" id="path-8" class="cls-9" fill-rule="evenodd"/>
    <path d="M20.129,26.040 C16.755,26.040 14.011,23.296 14.011,19.922 C14.011,16.549 16.755,13.805 20.129,13.805 C23.502,13.805 26.247,16.549 26.247,19.922 C26.247,23.296 23.502,26.040 20.129,26.040 ZM20.129,16.805 C18.410,16.805 17.011,18.203 17.011,19.922 C17.011,21.642 18.410,23.040 20.129,23.040 C21.848,23.040 23.247,21.642 23.247,19.922 C23.247,18.203 21.848,16.805 20.129,16.805 Z" id="path-9" class="cls-9" fill-rule="evenodd"/>
    <path d="M20.524,16.719 C20.126,16.719 19.744,16.548 19.462,16.266 C19.132,15.935 16.226,12.945 15.907,10.223 C15.729,8.711 16.036,7.497 16.816,6.619 C17.625,5.710 18.873,5.248 20.524,5.248 C22.146,5.248 23.363,5.700 24.141,6.595 C24.907,7.474 25.185,8.705 24.969,10.251 C24.576,13.060 21.911,15.927 21.608,16.243 C21.329,16.535 20.944,16.719 20.540,16.719 C20.535,16.719 20.530,16.719 20.524,16.719 ZM20.524,8.246 C19.798,8.246 19.264,8.379 19.058,8.610 C18.876,8.814 18.815,9.261 18.886,9.868 C18.988,10.733 19.749,11.925 20.494,12.879 C21.161,11.972 21.862,10.807 21.998,9.834 C22.083,9.223 22.039,8.748 21.877,8.562 C21.706,8.364 21.199,8.246 20.524,8.246 Z" id="path-10" class="cls-9" fill-rule="evenodd"/>
    <path d="M28.739,30.727 C27.726,30.727 26.696,30.271 25.677,29.373 C23.550,27.498 22.636,23.700 22.539,23.273 C22.449,22.879 22.521,22.466 22.741,22.126 C22.960,21.787 23.307,21.550 23.703,21.470 C23.769,21.456 25.342,21.141 27.088,21.141 C28.577,21.141 29.792,21.373 30.699,21.830 C32.058,22.515 32.900,23.438 33.202,24.573 C33.515,25.749 33.212,27.044 32.302,28.422 C31.292,29.952 30.093,30.727 28.739,30.727 ZM25.949,24.190 C26.338,25.246 26.925,26.474 27.661,27.123 C28.279,27.668 28.621,27.727 28.739,27.727 C29.006,27.727 29.402,27.369 29.798,26.769 C30.199,26.163 30.382,25.644 30.303,25.345 C30.232,25.081 29.893,24.783 29.348,24.508 C28.878,24.271 28.075,24.141 27.088,24.141 C26.691,24.141 26.303,24.161 25.949,24.190 Z" id="path-11" class="cls-9" fill-rule="evenodd"/>
    <path d="M10.553,28.073 C9.236,28.073 8.023,27.354 6.948,25.938 C5.967,24.645 5.592,23.402 5.834,22.242 C6.072,21.100 6.884,20.134 8.246,19.372 C9.461,18.691 11.154,18.346 13.276,18.346 C14.280,18.346 15.011,18.429 15.041,18.432 C15.443,18.478 15.809,18.684 16.056,19.003 C16.304,19.322 16.412,19.728 16.357,20.127 C16.293,20.591 15.675,24.709 13.699,26.610 C12.690,27.581 11.631,28.073 10.553,28.073 ZM13.045,21.348 C11.593,21.370 10.415,21.595 9.711,21.989 C9.173,22.291 8.821,22.614 8.771,22.854 C8.717,23.111 8.929,23.586 9.337,24.124 C9.795,24.727 10.238,25.073 10.553,25.073 C10.822,25.073 11.200,24.851 11.619,24.448 C12.247,23.844 12.736,22.518 13.045,21.348 Z" id="path-12" class="cls-9" fill-rule="evenodd"/>
  </g>
</svg>
