<svg xmlns="http://www.w3.org/2000/svg" xmlns:xlink="http://www.w3.org/1999/xlink" preserveAspectRatio="xMidYMid" width="65" height="62" viewBox="0 0 65 62">
  <defs>
    <style>

      .cls-3 {
        fill: #ff917b;
      }

      .cls-4 {
        fill: #edc951;
      }

      .cls-9 {
        fill: #81bda4;
      }

      .cls-10 {
        fill: #000000;
      }
    </style>
  </defs>
  <g id="group-14svg">
    <path d="M56.000,15.000 C56.000,15.000 62.218,15.000 62.218,15.000 C64.503,15.000 65.000,17.605 65.000,19.891 C65.000,19.891 65.000,58.166 65.000,58.166 C65.000,60.452 64.503,62.000 62.218,62.000 C62.218,62.000 10.494,62.000 10.494,62.000 C8.209,62.000 5.000,60.452 5.000,58.166 C5.000,58.166 5.000,19.891 5.000,19.891 C5.000,17.605 8.209,15.000 10.494,15.000 C10.494,15.000 12.000,15.000 12.000,15.000 C12.000,15.000 12.000,15.000 12.000,15.000 " id="path-1" class="cls-3" fill-rule="evenodd"/>
    <path d="M23.000,56.000 C23.000,56.000 11.000,56.000 11.000,56.000 C11.000,56.000 11.000,45.000 11.000,45.000 C11.000,45.000 23.000,45.000 23.000,45.000 C23.000,45.000 23.000,56.000 23.000,56.000 Z" id="path-2" class="cls-4" fill-rule="evenodd"/>
    <path d="M42.000,38.000 C42.000,38.000 31.000,38.000 31.000,38.000 C31.000,38.000 31.000,27.000 31.000,27.000 C31.000,27.000 42.000,27.000 42.000,27.000 C42.000,27.000 42.000,38.000 42.000,38.000 Z" id="path-3" class="cls-4" fill-rule="evenodd"/>
    <path d="M23.000,38.000 C23.000,38.000 11.000,38.000 11.000,38.000 C11.000,38.000 11.000,27.000 11.000,27.000 C11.000,27.000 23.000,27.000 23.000,27.000 C23.000,27.000 23.000,38.000 23.000,38.000 Z" id="path-4" class="cls-4" fill-rule="evenodd"/>
    <path d="M60.000,51.000 C60.000,51.000 48.000,51.000 48.000,51.000 C48.000,51.000 48.000,32.000 48.000,32.000 C48.000,32.000 60.000,32.000 60.000,32.000 C60.000,32.000 60.000,51.000 60.000,51.000 Z" id="path-5" class="cls-4" fill-rule="evenodd"/>
    <path d="M42.000,56.000 C42.000,56.000 31.000,56.000 31.000,56.000 C31.000,56.000 31.000,45.000 31.000,45.000 C31.000,45.000 42.000,45.000 42.000,45.000 C42.000,45.000 42.000,56.000 42.000,56.000 Z" id="path-6" class="cls-4" fill-rule="evenodd"/>
    <path d="M17.415,22.000 C17.415,22.000 57.006,22.000 57.006,22.000 C58.664,21.000 60.259,17.038 52.596,14.713 C45.174,12.462 48.000,6.356 58.000,7.477 C58.000,7.477 58.000,4.000 58.000,4.000 C58.000,4.000 16.109,4.000 16.109,4.000 C16.109,4.000 9.656,12.406 15.077,17.406 C17.479,19.623 17.415,22.000 17.415,22.000 Z" id="path-7" class="cls-9" fill-rule="evenodd"/>
    <path d="M58.218,61.000 C58.218,61.000 6.494,61.000 6.494,61.000 C3.267,61.000 -0.000,59.340 -0.000,56.166 C-0.000,56.166 -0.000,17.891 -0.000,17.891 C-0.000,14.946 3.211,11.000 6.494,11.000 C6.494,11.000 8.000,11.000 8.000,11.000 C8.829,11.000 9.500,11.671 9.500,12.500 C9.500,13.329 8.829,14.000 8.000,14.000 C8.000,14.000 6.494,14.000 6.494,14.000 C5.123,14.000 3.000,16.363 3.000,17.891 C3.000,17.891 3.000,56.166 3.000,56.166 C3.000,57.417 5.085,58.000 6.494,58.000 C6.494,58.000 58.218,58.000 58.218,58.000 C59.650,58.000 60.000,57.640 60.000,56.166 C60.000,56.166 60.000,17.891 60.000,17.891 C60.000,16.054 59.238,14.000 58.218,14.000 C58.218,14.000 52.000,14.000 52.000,14.000 C51.171,14.000 50.500,13.329 50.500,12.500 C50.500,11.671 51.171,11.000 52.000,11.000 C52.000,11.000 58.218,11.000 58.218,11.000 C61.357,11.000 63.000,14.466 63.000,17.891 C63.000,17.891 63.000,56.166 63.000,56.166 C63.000,59.283 61.302,61.000 58.218,61.000 Z" id="path-8" class="cls-10" fill-rule="evenodd"/>
    <path d="M19.500,55.000 C19.500,55.000 7.500,55.000 7.500,55.000 C6.671,55.000 6.000,54.329 6.000,53.500 C6.000,53.500 6.000,42.500 6.000,42.500 C6.000,41.671 6.671,41.000 7.500,41.000 C7.500,41.000 19.500,41.000 19.500,41.000 C20.329,41.000 21.000,41.671 21.000,42.500 C21.000,42.500 21.000,53.500 21.000,53.500 C21.000,54.329 20.329,55.000 19.500,55.000 ZM9.000,52.000 C9.000,52.000 18.000,52.000 18.000,52.000 C18.000,52.000 18.000,44.000 18.000,44.000 C18.000,44.000 9.000,44.000 9.000,44.000 C9.000,44.000 9.000,52.000 9.000,52.000 Z" id="path-9" class="cls-10" fill-rule="evenodd"/>
    <path d="M38.500,37.000 C38.500,37.000 27.500,37.000 27.500,37.000 C26.671,37.000 26.000,36.329 26.000,35.500 C26.000,35.500 26.000,24.500 26.000,24.500 C26.000,23.671 26.671,23.000 27.500,23.000 C27.500,23.000 38.500,23.000 38.500,23.000 C39.329,23.000 40.000,23.671 40.000,24.500 C40.000,24.500 40.000,35.500 40.000,35.500 C40.000,36.329 39.329,37.000 38.500,37.000 ZM29.000,34.000 C29.000,34.000 37.000,34.000 37.000,34.000 C37.000,34.000 37.000,26.000 37.000,26.000 C37.000,26.000 29.000,26.000 29.000,26.000 C29.000,26.000 29.000,34.000 29.000,34.000 Z" id="path-10" class="cls-10" fill-rule="evenodd"/>
    <path d="M19.500,37.000 C19.500,37.000 7.500,37.000 7.500,37.000 C6.671,37.000 6.000,36.329 6.000,35.500 C6.000,35.500 6.000,24.500 6.000,24.500 C6.000,23.671 6.671,23.000 7.500,23.000 C7.500,23.000 19.500,23.000 19.500,23.000 C20.329,23.000 21.000,23.671 21.000,24.500 C21.000,24.500 21.000,35.500 21.000,35.500 C21.000,36.329 20.329,37.000 19.500,37.000 ZM9.000,34.000 C9.000,34.000 18.000,34.000 18.000,34.000 C18.000,34.000 18.000,26.000 18.000,26.000 C18.000,26.000 9.000,26.000 9.000,26.000 C9.000,26.000 9.000,34.000 9.000,34.000 Z" id="path-11" class="cls-10" fill-rule="evenodd"/>
    <path d="M56.500,50.000 C56.500,50.000 44.500,50.000 44.500,50.000 C43.671,50.000 43.000,49.329 43.000,48.500 C43.000,48.500 43.000,29.500 43.000,29.500 C43.000,28.671 43.671,28.000 44.500,28.000 C44.500,28.000 56.500,28.000 56.500,28.000 C57.329,28.000 58.000,28.671 58.000,29.500 C58.000,29.500 58.000,48.500 58.000,48.500 C58.000,49.329 57.329,50.000 56.500,50.000 ZM46.000,47.000 C46.000,47.000 55.000,47.000 55.000,47.000 C55.000,47.000 55.000,31.000 55.000,31.000 C55.000,31.000 46.000,31.000 46.000,31.000 C46.000,31.000 46.000,47.000 46.000,47.000 Z" id="path-12" class="cls-10" fill-rule="evenodd"/>
    <path d="M38.500,55.000 C38.500,55.000 27.500,55.000 27.500,55.000 C26.671,55.000 26.000,54.329 26.000,53.500 C26.000,53.500 26.000,42.500 26.000,42.500 C26.000,41.671 26.671,41.000 27.500,41.000 C27.500,41.000 38.500,41.000 38.500,41.000 C39.329,41.000 40.000,41.671 40.000,42.500 C40.000,42.500 40.000,53.500 40.000,53.500 C40.000,54.329 39.329,55.000 38.500,55.000 ZM29.000,52.000 C29.000,52.000 37.000,52.000 37.000,52.000 C37.000,52.000 37.000,44.000 37.000,44.000 C37.000,44.000 29.000,44.000 29.000,44.000 C29.000,44.000 29.000,52.000 29.000,52.000 Z" id="path-13" class="cls-10" fill-rule="evenodd"/>
    <path d="M53.000,38.000 C53.000,38.000 49.000,38.000 49.000,38.000 C48.448,38.000 48.000,37.552 48.000,37.000 C48.000,36.448 48.448,36.000 49.000,36.000 C49.000,36.000 53.000,36.000 53.000,36.000 C53.552,36.000 54.000,36.448 54.000,37.000 C54.000,37.552 53.552,38.000 53.000,38.000 Z" id="path-14" class="cls-10" fill-rule="evenodd"/>
    <path d="M15.000,31.000 C15.000,31.000 11.000,31.000 11.000,31.000 C10.448,31.000 10.000,30.552 10.000,30.000 C10.000,29.448 10.448,29.000 11.000,29.000 C11.000,29.000 15.000,29.000 15.000,29.000 C15.552,29.000 16.000,29.448 16.000,30.000 C16.000,30.552 15.552,31.000 15.000,31.000 Z" id="path-15" class="cls-10" fill-rule="evenodd"/>
    <path d="M13.565,51.665 C13.310,51.665 13.054,51.567 12.858,51.372 C12.468,50.981 12.468,50.348 12.858,49.957 C12.858,49.957 15.785,47.032 15.785,47.032 C16.175,46.641 16.808,46.641 17.199,47.032 C17.589,47.422 17.589,48.056 17.199,48.446 C17.199,48.446 14.272,51.372 14.272,51.372 C14.077,51.567 13.821,51.665 13.565,51.665 Z" id="path-16" class="cls-10" fill-rule="evenodd"/>
    <path d="M35.000,31.000 C35.000,31.000 31.000,31.000 31.000,31.000 C30.448,31.000 30.000,30.552 30.000,30.000 C30.000,29.448 30.448,29.000 31.000,29.000 C31.000,29.000 35.000,29.000 35.000,29.000 C35.552,29.000 36.000,29.448 36.000,30.000 C36.000,30.552 35.552,31.000 35.000,31.000 Z" id="path-17" class="cls-10" fill-rule="evenodd"/>
    <path d="M33.000,33.000 C32.448,33.000 32.000,32.552 32.000,32.000 C32.000,32.000 32.000,28.000 32.000,28.000 C32.000,27.448 32.448,27.000 33.000,27.000 C33.552,27.000 34.000,27.448 34.000,28.000 C34.000,28.000 34.000,32.000 34.000,32.000 C34.000,32.552 33.552,33.000 33.000,33.000 Z" id="path-18" class="cls-10" fill-rule="evenodd"/>
    <path d="M53.000,42.000 C53.000,42.000 49.000,42.000 49.000,42.000 C48.448,42.000 48.000,41.552 48.000,41.000 C48.000,40.448 48.448,40.000 49.000,40.000 C49.000,40.000 53.000,40.000 53.000,40.000 C53.552,40.000 54.000,40.448 54.000,41.000 C54.000,41.552 53.552,42.000 53.000,42.000 Z" id="path-19" class="cls-10" fill-rule="evenodd"/>
    <path d="M35.371,50.871 C35.115,50.871 34.859,50.773 34.664,50.578 C34.664,50.578 31.738,47.652 31.738,47.652 C31.347,47.262 31.347,46.628 31.738,46.238 C32.128,45.847 32.761,45.847 33.152,46.238 C33.152,46.238 36.078,49.164 36.078,49.164 C36.469,49.554 36.469,50.187 36.078,50.578 C35.883,50.773 35.627,50.871 35.371,50.871 Z" id="path-20" class="cls-10" fill-rule="evenodd"/>
    <path d="M32.445,50.871 C32.189,50.871 31.933,50.773 31.738,50.578 C31.347,50.187 31.347,49.554 31.738,49.164 C31.738,49.164 34.664,46.238 34.664,46.238 C35.055,45.847 35.687,45.847 36.078,46.238 C36.469,46.628 36.469,47.262 36.078,47.652 C36.078,47.652 33.152,50.578 33.152,50.578 C32.957,50.773 32.701,50.871 32.445,50.871 Z" id="path-21" class="cls-10" fill-rule="evenodd"/>
    <path d="M17.701,51.166 C17.701,51.738 17.238,52.201 16.666,52.201 C16.095,52.201 15.632,51.738 15.632,51.166 C15.632,50.595 16.095,50.132 16.666,50.132 C17.238,50.132 17.701,50.595 17.701,51.166 Z" id="path-22" class="cls-10" fill-rule="evenodd"/>
    <path d="M14.598,47.028 C14.598,47.600 14.134,48.063 13.563,48.063 C12.992,48.063 12.529,47.600 12.529,47.028 C12.529,46.457 12.992,45.994 13.563,45.994 C14.134,45.994 14.598,46.457 14.598,47.028 Z" id="path-23" class="cls-10" fill-rule="evenodd"/>
    <path d="M53.006,21.000 C53.006,21.000 13.415,21.000 13.415,21.000 C13.011,21.000 12.623,20.836 12.341,20.546 C12.058,20.256 11.905,19.864 11.916,19.459 C11.916,19.410 11.885,17.693 10.060,16.009 C4.976,11.319 8.399,3.870 10.919,0.586 C11.204,0.217 11.643,-0.000 12.109,-0.000 C12.109,-0.000 54.500,-0.000 54.500,-0.000 C55.329,-0.000 56.000,0.671 56.000,1.500 C56.000,1.500 56.000,5.477 56.000,5.477 C56.000,5.903 55.818,6.310 55.500,6.595 C55.182,6.879 54.755,7.017 54.333,6.967 C53.553,6.880 52.794,6.835 52.078,6.835 C47.937,6.835 46.336,8.232 46.242,8.869 C46.174,9.327 46.939,10.317 49.281,11.027 C53.407,12.279 55.649,14.124 55.947,16.512 C56.185,18.417 55.030,20.031 53.780,20.785 C53.547,20.925 53.279,21.000 53.006,21.000 ZM14.693,18.000 C14.693,18.000 52.502,18.000 52.502,18.000 C52.777,17.729 53.023,17.311 52.970,16.883 C52.921,16.493 52.449,15.123 48.410,13.898 C43.129,12.296 43.144,9.307 43.274,8.429 C43.714,5.468 47.575,3.628 53.000,3.855 C53.000,3.855 53.000,3.000 53.000,3.000 C53.000,3.000 12.892,3.000 12.892,3.000 C11.691,4.823 8.472,10.463 12.094,13.804 C13.704,15.289 14.396,16.873 14.693,18.000 Z" id="path-24" class="cls-10" fill-rule="evenodd"/>
  </g>
</svg>
