<svg xmlns="http://www.w3.org/2000/svg" xmlns:xlink="http://www.w3.org/1999/xlink" preserveAspectRatio="xMidYMid" width="54" height="64" viewBox="0 0 54 64">
  <defs>
    <style>

      .cls-3 {
        fill: #e56a77;
      }

      .cls-4 {
        fill: #53ecf4;
      }

      .cls-5 {
        fill: #edc951;
      }

      .cls-6 {
        fill: #000000;
      }
    </style>
  </defs>
  <g id="group-6svg">
    <path d="M54.000,60.000 C54.000,62.209 52.209,64.000 50.000,64.000 C50.000,64.000 9.000,64.000 9.000,64.000 C6.791,64.000 5.000,62.209 5.000,60.000 C5.000,60.000 5.000,8.000 5.000,8.000 C5.000,5.791 6.791,4.000 9.000,4.000 C9.000,4.000 50.000,4.000 50.000,4.000 C52.209,4.000 54.000,5.791 54.000,8.000 C54.000,8.000 54.000,60.000 54.000,60.000 Z" id="path-1" class="cls-3" fill-rule="evenodd"/>
    <path d="M42.520,42.968 C42.520,50.074 36.760,55.834 29.654,55.834 C22.548,55.834 16.787,50.074 16.787,42.968 C16.787,35.862 22.548,30.102 29.654,30.102 C36.760,30.102 42.520,35.862 42.520,42.968 Z" id="path-2" class="cls-4" fill-rule="evenodd"/>
    <path d="M54.000,20.000 C54.000,20.000 5.000,20.000 5.000,20.000 C5.000,20.000 5.000,7.981 5.000,7.981 C5.000,5.771 7.716,4.000 9.926,4.000 C9.926,4.000 50.546,4.000 50.546,4.000 C52.755,4.000 54.000,5.771 54.000,7.981 C54.000,7.981 54.000,20.000 54.000,20.000 Z" id="path-3" class="cls-5" fill-rule="evenodd"/>
    <path d="M46.500,63.000 C46.500,63.000 5.500,63.000 5.500,63.000 C2.468,63.000 -0.000,60.533 -0.000,57.500 C-0.000,57.500 -0.000,5.500 -0.000,5.500 C-0.000,2.467 2.468,-0.000 5.500,-0.000 C5.500,-0.000 46.500,-0.000 46.500,-0.000 C49.532,-0.000 52.000,2.467 52.000,5.500 C52.000,5.500 52.000,57.500 52.000,57.500 C52.000,60.533 49.532,63.000 46.500,63.000 ZM5.500,3.000 C4.121,3.000 3.000,4.122 3.000,5.500 C3.000,5.500 3.000,57.500 3.000,57.500 C3.000,58.878 4.121,60.000 5.500,60.000 C5.500,60.000 46.500,60.000 46.500,60.000 C47.879,60.000 49.000,58.878 49.000,57.500 C49.000,57.500 49.000,5.500 49.000,5.500 C49.000,4.122 47.879,3.000 46.500,3.000 C46.500,3.000 5.500,3.000 5.500,3.000 Z" id="path-4" class="cls-6" fill-rule="evenodd"/>
    <path d="M50.500,19.000 C50.500,19.000 1.500,19.000 1.500,19.000 C0.672,19.000 -0.000,18.329 -0.000,17.500 C-0.000,17.500 -0.000,5.981 -0.000,5.981 C-0.000,2.907 2.880,-0.000 5.926,-0.000 C5.926,-0.000 46.546,-0.000 46.546,-0.000 C49.760,-0.000 52.000,3.152 52.000,5.981 C52.000,5.981 52.000,17.500 52.000,17.500 C52.000,18.329 51.328,19.000 50.500,19.000 ZM3.000,16.000 C3.000,16.000 49.000,16.000 49.000,16.000 C49.000,16.000 49.000,5.981 49.000,5.981 C49.000,4.631 47.905,3.000 46.546,3.000 C46.546,3.000 5.926,3.000 5.926,3.000 C4.559,3.000 3.000,4.588 3.000,5.981 C3.000,5.981 3.000,16.000 3.000,16.000 Z" id="path-5" class="cls-6" fill-rule="evenodd"/>
    <path d="M17.500,18.500 C16.672,18.500 16.000,17.829 16.000,17.000 C16.000,17.000 16.000,2.000 16.000,2.000 C16.000,1.171 16.672,0.500 17.500,0.500 C18.328,0.500 19.000,1.171 19.000,2.000 C19.000,2.000 19.000,17.000 19.000,17.000 C19.000,17.829 18.328,18.500 17.500,18.500 Z" id="path-6" class="cls-6" fill-rule="evenodd"/>
    <path d="M45.632,9.739 C45.632,11.168 44.475,12.326 43.046,12.326 C41.617,12.326 40.460,11.168 40.460,9.739 C40.460,8.311 41.617,7.153 43.046,7.153 C44.475,7.153 45.632,8.311 45.632,9.739 Z" id="path-7" class="cls-6" fill-rule="evenodd"/>
    <path d="M38.391,9.739 C38.391,11.168 37.233,12.326 35.805,12.326 C34.376,12.326 33.219,11.168 33.219,9.739 C33.219,8.311 34.376,7.153 35.805,7.153 C37.233,7.153 38.391,8.311 38.391,9.739 Z" id="path-8" class="cls-6" fill-rule="evenodd"/>
    <path d="M31.149,9.739 C31.149,11.168 29.991,12.326 28.563,12.326 C27.135,12.326 25.978,11.168 25.978,9.739 C25.978,8.311 27.135,7.153 28.563,7.153 C29.991,7.153 31.149,8.311 31.149,9.739 Z" id="path-9" class="cls-6" fill-rule="evenodd"/>
    <path d="M25.653,55.334 C17.731,55.334 11.287,48.890 11.287,40.968 C11.287,33.046 17.731,26.602 25.653,26.602 C33.575,26.602 40.020,33.046 40.020,40.968 C40.020,48.890 33.575,55.334 25.653,55.334 ZM25.653,29.602 C19.386,29.602 14.287,34.700 14.287,40.968 C14.287,47.235 19.386,52.334 25.653,52.334 C31.921,52.334 37.021,47.235 37.021,40.968 C37.021,34.700 31.921,29.602 25.653,29.602 Z" id="path-10" class="cls-6" fill-rule="evenodd"/>
    <path d="M20.179,45.712 C16.671,45.712 13.626,43.666 12.084,42.028 C11.516,41.425 11.544,40.476 12.147,39.908 C12.748,39.340 13.695,39.367 14.265,39.968 C14.265,39.968 14.265,39.968 14.265,39.968 C14.473,40.185 19.403,45.240 24.454,41.009 C30.169,36.228 36.172,38.936 38.548,41.036 C39.169,41.584 39.228,42.532 38.679,43.153 C38.129,43.773 37.182,43.832 36.561,43.284 C36.363,43.111 31.519,39.007 26.380,43.310 C24.290,45.059 22.161,45.712 20.179,45.712 Z" id="path-11" class="cls-6" fill-rule="evenodd"/>
    <path d="M33.735,43.877 C33.735,44.449 33.272,44.912 32.701,44.912 C32.130,44.912 31.667,44.449 31.667,43.877 C31.667,43.306 32.130,42.843 32.701,42.843 C33.272,42.843 33.735,43.306 33.735,43.877 Z" id="path-12" class="cls-6" fill-rule="evenodd"/>
    <path d="M32.701,48.015 C32.701,48.586 32.238,49.050 31.667,49.050 C31.096,49.050 30.632,48.586 30.632,48.015 C30.632,47.444 31.096,46.981 31.667,46.981 C32.238,46.981 32.701,47.444 32.701,48.015 Z" id="path-13" class="cls-6" fill-rule="evenodd"/>
    <path d="M28.563,44.912 C28.563,45.483 28.100,45.946 27.529,45.946 C26.957,45.946 26.494,45.483 26.494,44.912 C26.494,44.340 26.957,43.877 27.529,43.877 C28.100,43.877 28.563,44.340 28.563,44.912 Z" id="path-14" class="cls-6" fill-rule="evenodd"/>
    <path d="M26.494,49.050 C26.494,49.621 26.031,50.084 25.460,50.084 C24.889,50.084 24.426,49.621 24.426,49.050 C24.426,48.478 24.889,48.015 25.460,48.015 C26.031,48.015 26.494,48.478 26.494,49.050 Z" id="path-15" class="cls-6" fill-rule="evenodd"/>
    <path d="M20.287,46.981 C20.287,47.552 19.824,48.015 19.253,48.015 C18.682,48.015 18.219,47.552 18.219,46.981 C18.219,46.410 18.682,45.946 19.253,45.946 C19.824,45.946 20.287,46.410 20.287,46.981 Z" id="path-16" class="cls-6" fill-rule="evenodd"/>
  </g>
</svg>
