<svg xmlns="http://www.w3.org/2000/svg" xmlns:xlink="http://www.w3.org/1999/xlink" preserveAspectRatio="xMidYMid" width="35" height="62" viewBox="0 0 35 62">
  <defs>
    <style>

      .cls-3 {
        fill: #81bda4;
      }

      .cls-4 {
        fill: #ff917b;
      }

      .cls-6 {
        fill: #000000;
      }
    </style>
  </defs>
  <g id="group-31svg">
    <path d="M34.567,18.540 C34.567,26.847 27.833,33.581 19.527,33.581 C11.220,33.581 4.487,26.847 4.487,18.540 C4.487,10.233 11.220,3.499 19.527,3.499 C27.833,3.499 34.567,10.233 34.567,18.540 Z" id="path-1" class="cls-3" fill-rule="evenodd"/>
    <path d="M23.218,18.540 C23.218,20.579 21.565,22.231 19.527,22.231 C17.489,22.231 15.836,20.579 15.836,18.540 C15.836,16.502 17.489,14.850 19.527,14.850 C21.565,14.850 23.218,16.502 23.218,18.540 Z" id="path-2" class="cls-4" fill-rule="evenodd"/>
    <path d="M25.156,43.312 C25.156,41.103 23.365,39.312 21.156,39.312 C21.156,39.312 18.156,39.312 18.156,39.312 C15.947,39.312 14.156,41.103 14.156,43.312 C14.156,43.312 14.156,49.312 14.156,49.312 C14.156,51.521 15.947,53.312 18.156,53.312 C18.156,53.312 21.156,53.312 21.156,53.312 C23.365,53.312 25.156,51.521 25.156,49.312 C25.156,49.312 25.156,43.312 25.156,43.312 Z" id="path-3" class="cls-4" fill-rule="evenodd"/>
    <path d="M18.656,52.312 C18.656,52.312 15.656,52.312 15.656,52.312 C12.623,52.312 10.156,49.845 10.156,46.812 C10.156,46.812 10.156,40.812 10.156,40.812 C10.156,37.780 12.623,35.312 15.656,35.312 C15.656,35.312 18.656,35.312 18.656,35.312 C21.689,35.312 24.156,37.780 24.156,40.812 C24.156,40.812 24.156,46.812 24.156,46.812 C24.156,49.845 21.689,52.312 18.656,52.312 ZM15.656,38.312 C14.278,38.312 13.156,39.434 13.156,40.812 C13.156,40.812 13.156,46.812 13.156,46.812 C13.156,48.191 14.278,49.312 15.656,49.312 C15.656,49.312 18.656,49.312 18.656,49.312 C20.035,49.312 21.156,48.191 21.156,46.812 C21.156,46.812 21.156,40.812 21.156,40.812 C21.156,39.434 20.035,38.312 18.656,38.312 C18.656,38.312 15.656,38.312 15.656,38.312 Z" id="path-4" class="cls-6" fill-rule="evenodd"/>
    <path d="M16.527,33.081 C7.407,33.081 -0.013,25.661 -0.013,16.540 C-0.013,7.419 7.407,-0.001 16.527,-0.001 C25.647,-0.001 33.067,7.419 33.067,16.540 C33.067,25.661 25.647,33.081 16.527,33.081 ZM16.527,2.999 C9.061,2.999 2.987,9.074 2.987,16.540 C2.987,24.006 9.061,30.081 16.527,30.081 C23.993,30.081 30.067,24.006 30.067,16.540 C30.067,9.074 23.993,2.999 16.527,2.999 Z" id="path-5" class="cls-6" fill-rule="evenodd"/>
    <path d="M16.527,21.731 C13.665,21.731 11.336,19.402 11.336,16.540 C11.336,13.678 13.665,11.350 16.527,11.350 C19.389,11.350 21.718,13.678 21.718,16.540 C21.718,19.402 19.389,21.731 16.527,21.731 ZM16.527,14.350 C15.319,14.350 14.336,15.332 14.336,16.540 C14.336,17.748 15.319,18.731 16.527,18.731 C17.735,18.731 18.718,17.748 18.718,16.540 C18.718,15.332 17.735,14.350 16.527,14.350 Z" id="path-6" class="cls-6" fill-rule="evenodd"/>
    <path d="M16.656,60.812 C15.828,60.812 15.156,60.141 15.156,59.312 C15.156,59.312 15.156,51.312 15.156,51.312 C15.156,50.484 15.828,49.812 16.656,49.812 C17.485,49.812 18.156,50.484 18.156,51.312 C18.156,51.312 18.156,59.312 18.156,59.312 C18.156,60.141 17.485,60.812 16.656,60.812 Z" id="path-7" class="cls-6" fill-rule="evenodd"/>
    <path d="M16.656,37.812 C15.828,37.812 15.156,37.141 15.156,36.312 C15.156,36.312 15.156,31.312 15.156,31.312 C15.156,30.484 15.828,29.812 16.656,29.812 C17.485,29.812 18.156,30.484 18.156,31.312 C18.156,31.312 18.156,36.312 18.156,36.312 C18.156,37.141 17.485,37.812 16.656,37.812 Z" id="path-8" class="cls-6" fill-rule="evenodd"/>
    <path d="M27.156,62.312 C27.156,62.312 5.156,62.312 5.156,62.312 C4.328,62.312 3.656,61.641 3.656,60.812 C3.656,59.984 4.328,59.312 5.156,59.312 C5.156,59.312 27.156,59.312 27.156,59.312 C27.985,59.312 28.656,59.984 28.656,60.812 C28.656,61.641 27.985,62.312 27.156,62.312 Z" id="path-9" class="cls-6" fill-rule="evenodd"/>
    <path d="M21.362,26.939 C20.581,26.939 19.804,26.767 19.076,26.425 C17.775,25.813 16.791,24.732 16.303,23.380 C16.303,23.380 15.480,21.098 15.480,21.098 C15.199,20.319 15.603,19.459 16.382,19.178 C17.161,18.898 18.021,19.301 18.302,20.081 C18.302,20.081 19.125,22.362 19.125,22.362 C19.341,22.961 19.776,23.439 20.352,23.710 C20.928,23.981 21.575,24.011 22.173,23.795 C22.173,23.795 23.542,23.301 23.542,23.301 C24.321,23.020 25.180,23.424 25.462,24.204 C25.743,24.983 25.339,25.842 24.560,26.123 C24.560,26.123 23.190,26.617 23.190,26.617 C22.594,26.832 21.977,26.939 21.362,26.939 Z" id="path-10" class="cls-6" fill-rule="evenodd"/>
    <path d="M16.326,13.587 C15.827,13.587 15.339,13.338 15.054,12.884 C15.054,12.884 14.231,11.572 14.231,11.572 C14.174,11.481 14.127,11.384 14.091,11.284 C13.645,10.049 12.279,9.406 11.042,9.851 C11.042,9.851 9.674,10.345 9.674,10.345 C8.894,10.625 8.035,10.222 7.754,9.442 C7.473,8.663 7.877,7.804 8.656,7.522 C8.656,7.522 10.025,7.029 10.025,7.029 C12.764,6.042 15.786,7.419 16.852,10.103 C16.852,10.103 17.596,11.290 17.596,11.290 C18.036,11.992 17.823,12.917 17.122,13.358 C16.874,13.513 16.598,13.587 16.326,13.587 Z" id="path-11" class="cls-6" fill-rule="evenodd"/>
    <path d="M20.336,16.746 C19.769,16.746 19.227,16.422 18.974,15.874 C18.626,15.122 18.955,14.230 19.706,13.883 C19.706,13.883 21.909,12.866 21.909,12.866 C23.101,12.315 23.623,10.898 23.072,9.706 C23.072,9.706 22.462,8.384 22.462,8.384 C22.115,7.632 22.443,6.741 23.195,6.394 C23.947,6.045 24.838,6.375 25.186,7.126 C25.186,7.126 25.796,8.448 25.796,8.448 C26.398,9.753 26.457,11.214 25.960,12.563 C25.464,13.912 24.472,14.987 23.166,15.590 C23.166,15.590 20.964,16.607 20.964,16.607 C20.761,16.701 20.547,16.746 20.336,16.746 Z" id="path-12" class="cls-6" fill-rule="evenodd"/>
    <path d="M9.393,25.451 C8.826,25.451 8.284,25.127 8.030,24.579 C8.030,24.579 7.420,23.258 7.420,23.258 C6.817,21.953 6.759,20.491 7.255,19.142 C7.752,17.793 8.745,16.719 10.049,16.116 C10.049,16.116 12.251,15.099 12.251,15.099 C13.004,14.751 13.894,15.081 14.242,15.832 C14.589,16.584 14.261,17.476 13.509,17.823 C13.509,17.823 11.307,18.840 11.307,18.840 C10.729,19.106 10.290,19.582 10.071,20.179 C9.851,20.776 9.877,21.422 10.144,22.000 C10.144,22.000 10.754,23.321 10.754,23.321 C11.101,24.073 10.773,24.964 10.021,25.312 C9.817,25.406 9.603,25.451 9.393,25.451 Z" id="path-13" class="cls-6" fill-rule="evenodd"/>
    <path d="M18.791,41.093 C18.791,41.896 18.140,42.548 17.336,42.548 C16.532,42.548 15.880,41.896 15.880,41.093 C15.880,40.289 16.532,39.637 17.336,39.637 C18.140,39.637 18.791,40.289 18.791,41.093 Z" id="path-14" class="cls-6" fill-rule="evenodd"/>
    <path d="M18.791,45.944 C18.791,46.748 18.140,47.400 17.336,47.400 C16.532,47.400 15.880,46.748 15.880,45.944 C15.880,45.141 16.532,44.489 17.336,44.489 C18.140,44.489 18.791,45.141 18.791,45.944 Z" id="path-15" class="cls-6" fill-rule="evenodd"/>
  </g>
</svg>
