<svg xmlns="http://www.w3.org/2000/svg" xmlns:xlink="http://www.w3.org/1999/xlink" preserveAspectRatio="xMidYMid" width="64" height="52" viewBox="0 0 64 52">
  <defs>
    <style>

      .cls-3 {
        fill: #53ecf4;
      }

      .cls-4 {
        fill: #e56a77;
      }

      .cls-8 {
        fill: #000000;
      }
    </style>
  </defs>
  <g id="group-24svg">
    <path d="M16.523,19.625 C16.523,19.625 29.101,19.625 29.101,19.625 C29.101,19.625 41.827,20.147 55.302,36.467 C55.302,36.467 63.537,44.625 63.537,44.625 C63.537,44.625 21.914,44.625 21.914,44.625 C21.914,44.625 10.554,45.856 7.975,40.169 C7.247,38.565 7.437,36.639 8.268,35.086 C8.268,35.086 16.523,19.625 16.523,19.625 Z" id="path-1" class="cls-3" fill-rule="evenodd"/>
    <path d="M20.844,51.625 C20.844,51.625 57.844,51.625 57.844,51.625 C57.844,51.625 57.844,45.625 57.844,45.625 C57.844,45.625 20.844,45.625 20.844,45.625 C20.844,45.625 20.844,51.625 20.844,51.625 Z" id="path-2" class="cls-4" fill-rule="evenodd"/>
    <path d="M14.561,21.741 C14.561,21.741 11.491,18.198 11.491,18.198 C11.491,18.198 8.100,21.741 8.100,21.741 C8.100,21.741 11.771,27.061 11.771,27.061 C11.771,27.061 14.561,21.741 14.561,21.741 Z" id="path-3" class="cls-4" fill-rule="evenodd"/>
    <path d="M21.892,24.625 C21.892,24.625 25.144,24.625 25.144,24.625 C25.144,24.625 28.436,24.527 31.920,28.748 C31.920,28.748 34.050,30.625 34.050,30.625 C34.050,30.625 23.285,30.625 23.285,30.625 C23.285,30.625 20.348,31.003 19.681,29.533 C19.492,29.118 19.542,28.822 19.757,28.421 C19.757,28.421 21.892,24.625 21.892,24.625 Z" id="path-4" class="cls-4" fill-rule="evenodd"/>
    <path d="M37.844,21.226 C37.844,21.226 37.844,19.771 37.844,19.771 C37.844,18.166 39.054,16.625 40.659,16.625 C40.659,16.625 40.798,16.625 40.798,16.625 C42.403,16.625 43.844,18.166 43.844,19.771 C43.844,19.771 43.844,24.133 43.844,24.133 C43.844,24.133 39.844,21.226 37.844,21.226 Z" id="path-5" class="cls-4" fill-rule="evenodd"/>
    <path d="M56.344,50.625 C56.344,50.625 19.344,50.625 19.344,50.625 C18.516,50.625 17.844,49.954 17.844,49.125 C17.844,49.125 17.844,43.125 17.844,43.125 C17.844,42.296 18.516,41.625 19.344,41.625 C19.344,41.625 56.344,41.625 56.344,41.625 C57.172,41.625 57.844,42.296 57.844,43.125 C57.844,43.125 57.844,49.125 57.844,49.125 C57.844,49.954 57.172,50.625 56.344,50.625 ZM20.844,47.625 C20.844,47.625 54.844,47.625 54.844,47.625 C54.844,47.625 54.844,44.625 54.844,44.625 C54.844,44.625 20.844,44.625 20.844,44.625 C20.844,44.625 20.844,47.625 20.844,47.625 Z" id="path-6" class="cls-8" fill-rule="evenodd"/>
    <path d="M8.231,19.016 C8.177,19.016 8.122,19.013 8.067,19.007 C7.520,18.947 2.670,18.329 0.764,14.983 C-0.242,13.218 -0.211,11.131 0.857,8.782 C3.453,3.067 11.145,3.990 16.231,4.602 C17.458,4.749 19.091,4.948 19.752,4.875 C20.433,3.732 20.592,2.031 20.592,1.487 C20.592,0.659 21.264,-0.013 22.092,-0.013 C22.920,-0.013 23.592,0.659 23.592,1.487 C23.592,1.818 23.548,4.782 22.012,6.893 C21.060,8.202 19.109,7.969 15.874,7.581 C11.405,7.043 5.276,6.308 3.588,10.023 C2.932,11.467 2.860,12.603 3.370,13.498 C4.352,15.221 7.401,15.916 8.392,16.024 C9.216,16.114 9.811,16.854 9.721,17.678 C9.637,18.446 8.987,19.016 8.231,19.016 Z" id="path-7" class="cls-8" fill-rule="evenodd"/>
    <path d="M16.726,43.799 C12.286,43.799 6.580,42.886 4.608,38.539 C3.714,36.566 3.843,34.062 4.946,32.002 C4.946,32.002 13.198,16.423 13.198,16.423 C13.458,15.932 13.968,15.625 14.523,15.625 C14.523,15.625 27.101,15.625 27.101,15.625 C27.708,15.648 40.686,16.365 54.410,32.954 C54.410,32.954 62.593,41.060 62.593,41.060 C63.024,41.487 63.155,42.133 62.924,42.696 C62.693,43.258 62.145,43.625 61.537,43.625 C61.537,43.625 20.005,43.625 20.005,43.625 C19.644,43.667 18.383,43.799 16.726,43.799 ZM15.427,18.625 C15.427,18.625 7.594,33.413 7.594,33.413 C6.939,34.635 6.839,36.194 7.341,37.300 C8.722,40.344 13.813,40.799 16.726,40.799 C18.449,40.799 19.709,40.639 19.722,40.637 C19.785,40.629 19.850,40.625 19.914,40.625 C19.914,40.625 57.892,40.625 57.892,40.625 C57.892,40.625 52.246,35.032 52.246,35.032 C52.211,34.997 52.177,34.960 52.145,34.922 C39.246,19.299 27.160,18.629 27.039,18.623 C27.039,18.623 15.427,18.625 15.427,18.625 Z" id="path-8" class="cls-8" fill-rule="evenodd"/>
    <path d="M9.771,26.561 C9.280,26.561 8.818,26.320 8.537,25.913 C8.537,25.913 4.865,20.593 4.865,20.593 C4.461,20.007 4.523,19.218 5.016,18.704 C5.016,18.704 8.407,15.161 8.407,15.161 C8.700,14.855 9.117,14.686 9.528,14.698 C9.950,14.708 10.349,14.896 10.625,15.216 C10.625,15.216 13.694,18.759 13.694,18.759 C14.099,19.225 14.176,19.891 13.889,20.437 C13.889,20.437 11.100,25.757 11.100,25.757 C10.856,26.222 10.387,26.526 9.862,26.558 C9.832,26.560 9.802,26.561 9.771,26.561 ZM8.028,19.895 C8.028,19.895 9.596,22.165 9.596,22.165 C9.596,22.165 10.757,19.950 10.757,19.950 C10.757,19.950 9.435,18.425 9.435,18.425 C9.435,18.425 8.028,19.895 8.028,19.895 Z" id="path-9" class="cls-8" fill-rule="evenodd"/>
    <path d="M19.924,29.758 C17.516,29.758 16.629,28.596 16.314,27.902 C15.944,27.086 15.986,26.175 16.435,25.338 C16.435,25.338 18.574,21.408 18.574,21.408 C18.837,20.925 19.342,20.625 19.892,20.625 C19.892,20.625 23.144,20.625 23.144,20.625 C23.144,20.625 23.145,20.625 23.145,20.625 C23.839,20.625 27.359,20.848 31.000,25.200 C31.000,25.200 33.042,27.000 33.042,27.000 C33.510,27.413 33.674,28.072 33.453,28.655 C33.232,29.239 32.674,29.625 32.050,29.625 C32.050,29.625 21.427,29.625 21.427,29.625 C21.148,29.674 20.577,29.758 19.924,29.758 ZM19.126,26.668 C19.243,26.700 19.491,26.758 19.924,26.758 C20.481,26.758 20.971,26.658 20.976,26.657 C21.076,26.636 21.183,26.625 21.285,26.625 C21.285,26.625 28.263,26.625 28.263,26.625 C25.565,23.676 23.265,23.625 23.163,23.625 C23.163,23.625 20.783,23.625 20.783,23.625 C20.783,23.625 19.126,26.668 19.126,26.668 Z" id="path-10" class="cls-8" fill-rule="evenodd"/>
    <path d="M41.344,23.633 C40.963,23.633 40.587,23.488 40.302,23.212 C40.302,23.212 40.302,23.212 40.302,23.212 C39.583,22.520 37.290,20.726 35.344,20.726 C34.516,20.726 33.844,20.054 33.844,19.226 C33.844,19.226 33.844,17.772 33.844,17.772 C33.844,15.447 35.850,13.625 38.409,13.625 C40.943,13.625 42.844,15.408 42.844,17.772 C42.844,17.772 42.844,22.133 42.844,22.133 C42.844,22.736 42.483,23.280 41.929,23.515 C41.740,23.594 41.541,23.633 41.344,23.633 ZM36.844,17.897 C37.947,18.144 38.978,18.624 39.844,19.139 C39.844,19.139 39.844,17.772 39.844,17.772 C39.844,16.867 38.950,16.625 38.423,16.625 C37.650,16.625 36.844,17.027 36.844,17.772 C36.844,17.772 36.844,17.897 36.844,17.897 Z" id="path-11" class="cls-8" fill-rule="evenodd"/>
    <path d="M50.440,23.301 C50.268,23.301 50.092,23.270 49.920,23.207 C49.920,23.207 44.348,21.147 44.348,21.147 C43.571,20.860 43.174,19.998 43.461,19.221 C43.749,18.444 44.610,18.047 45.389,18.334 C45.389,18.334 50.961,20.394 50.961,20.394 C51.737,20.681 52.135,21.543 51.848,22.320 C51.624,22.926 51.050,23.301 50.440,23.301 Z" id="path-12" class="cls-8" fill-rule="evenodd"/>
    <path d="M49.844,16.625 C49.844,16.625 44.844,16.625 44.844,16.625 C44.016,16.625 43.344,15.954 43.344,15.125 C43.344,14.296 44.016,13.625 44.844,13.625 C44.844,13.625 49.844,13.625 49.844,13.625 C50.672,13.625 51.344,14.296 51.344,15.125 C51.344,15.954 50.672,16.625 49.844,16.625 Z" id="path-13" class="cls-8" fill-rule="evenodd"/>
  </g>
</svg>
