<svg xmlns="http://www.w3.org/2000/svg" xmlns:xlink="http://www.w3.org/1999/xlink" preserveAspectRatio="xMidYMid" width="53" height="64" viewBox="0 0 53 64">
  <defs>
    <style>

      .cls-3 {
        fill: #8b71b5;
      }

      .cls-4 {
        fill: #ff917b;
      }

      .cls-6 {
        fill: #000000;
      }
    </style>
  </defs>
  <g id="group-15svg">
    <path d="M42.000,22.000 C42.000,22.000 42.000,33.000 42.000,33.000 C42.000,33.000 16.000,33.000 16.000,33.000 C16.000,33.000 16.000,22.000 16.000,22.000 C16.000,22.000 5.000,22.000 5.000,22.000 C5.000,22.000 5.000,54.000 5.000,54.000 C5.000,54.000 15.000,54.000 15.000,54.000 C15.000,54.000 15.000,44.000 15.000,44.000 C15.000,44.000 43.000,44.000 43.000,44.000 C43.000,44.000 43.000,54.000 43.000,54.000 C43.000,54.000 53.000,54.000 53.000,54.000 C53.000,54.000 53.000,22.000 53.000,22.000 C53.000,22.000 42.000,22.000 42.000,22.000 Z" id="path-1" class="cls-3" fill-rule="evenodd"/>
    <path d="M22.000,64.000 C22.000,64.000 36.000,64.000 36.000,64.000 C36.000,64.000 36.000,49.000 36.000,49.000 C36.000,49.000 22.000,49.000 22.000,49.000 C22.000,49.000 22.000,64.000 22.000,64.000 Z" id="path-2" class="cls-4" fill-rule="evenodd"/>
    <path d="M22.000,13.991 C22.000,13.991 22.000,10.000 22.000,10.000 C22.000,10.000 29.483,10.000 29.483,10.000 C29.483,10.000 37.000,10.000 37.000,10.000 C37.000,10.000 37.000,13.991 37.000,13.991 C37.000,15.096 37.610,16.000 38.715,16.000 C38.715,16.000 42.715,16.000 42.715,16.000 C43.820,16.000 45.000,15.096 45.000,13.991 C45.000,13.991 45.000,7.907 45.000,7.907 C45.000,5.744 42.962,4.000 40.800,4.000 C40.800,4.000 29.483,4.000 29.483,4.000 C29.483,4.000 18.630,4.000 18.630,4.000 C16.477,4.000 15.000,5.753 15.000,7.907 C15.000,7.907 15.000,13.991 15.000,13.991 C15.000,15.096 15.610,16.000 16.715,16.000 C16.715,16.000 19.715,16.000 19.715,16.000 C20.820,16.000 22.000,15.096 22.000,13.991 Z" id="path-3" class="cls-4" fill-rule="evenodd"/>
    <path d="M49.500,53.000 C49.500,53.000 39.500,53.000 39.500,53.000 C38.671,53.000 38.000,52.329 38.000,51.500 C38.000,51.500 38.000,43.000 38.000,43.000 C38.000,43.000 13.000,43.000 13.000,43.000 C13.000,43.000 13.000,51.500 13.000,51.500 C13.000,52.329 12.329,53.000 11.500,53.000 C11.500,53.000 1.500,53.000 1.500,53.000 C0.671,53.000 -0.000,52.329 -0.000,51.500 C-0.000,51.500 -0.000,19.500 -0.000,19.500 C-0.000,18.671 0.671,18.000 1.500,18.000 C1.500,18.000 12.500,18.000 12.500,18.000 C13.329,18.000 14.000,18.671 14.000,19.500 C14.000,19.500 14.000,29.000 14.000,29.000 C14.000,29.000 37.000,29.000 37.000,29.000 C37.000,29.000 37.000,19.500 37.000,19.500 C37.000,18.671 37.671,18.000 38.500,18.000 C38.500,18.000 49.500,18.000 49.500,18.000 C50.329,18.000 51.000,18.671 51.000,19.500 C51.000,19.500 51.000,51.500 51.000,51.500 C51.000,52.329 50.329,53.000 49.500,53.000 ZM41.000,50.000 C41.000,50.000 48.000,50.000 48.000,50.000 C48.000,50.000 48.000,21.000 48.000,21.000 C48.000,21.000 40.000,21.000 40.000,21.000 C40.000,21.000 40.000,30.500 40.000,30.500 C40.000,31.329 39.329,32.000 38.500,32.000 C38.500,32.000 12.500,32.000 12.500,32.000 C11.671,32.000 11.000,31.329 11.000,30.500 C11.000,30.500 11.000,21.000 11.000,21.000 C11.000,21.000 3.000,21.000 3.000,21.000 C3.000,21.000 3.000,50.000 3.000,50.000 C3.000,50.000 10.000,50.000 10.000,50.000 C10.000,50.000 10.000,41.500 10.000,41.500 C10.000,40.671 10.671,40.000 11.500,40.000 C11.500,40.000 39.500,40.000 39.500,40.000 C40.329,40.000 41.000,40.671 41.000,41.500 C41.000,41.500 41.000,50.000 41.000,50.000 Z" id="path-4" class="cls-6" fill-rule="evenodd"/>
    <path d="M32.500,63.000 C32.500,63.000 18.500,63.000 18.500,63.000 C17.671,63.000 17.000,62.329 17.000,61.500 C17.000,61.500 17.000,46.500 17.000,46.500 C17.000,45.671 17.671,45.000 18.500,45.000 C18.500,45.000 32.500,45.000 32.500,45.000 C33.329,45.000 34.000,45.671 34.000,46.500 C34.000,46.500 34.000,61.500 34.000,61.500 C34.000,62.329 33.329,63.000 32.500,63.000 ZM20.000,60.000 C20.000,60.000 31.000,60.000 31.000,60.000 C31.000,60.000 31.000,48.000 31.000,48.000 C31.000,48.000 20.000,48.000 20.000,48.000 C20.000,48.000 20.000,60.000 20.000,60.000 Z" id="path-5" class="cls-6" fill-rule="evenodd"/>
    <path d="M38.715,15.000 C38.715,15.000 34.715,15.000 34.715,15.000 C32.493,15.000 31.000,13.791 31.000,11.991 C31.000,11.991 31.000,9.000 31.000,9.000 C31.000,9.000 19.000,9.000 19.000,9.000 C19.000,9.000 19.000,11.991 19.000,11.991 C19.000,13.446 18.137,15.000 15.715,15.000 C15.715,15.000 12.715,15.000 12.715,15.000 C10.493,15.000 9.000,13.791 9.000,11.991 C9.000,11.991 9.000,5.907 9.000,5.907 C9.000,2.871 11.736,-0.000 14.630,-0.000 C14.630,-0.000 36.800,-0.000 36.800,-0.000 C39.911,-0.000 42.000,3.054 42.000,5.907 C42.000,5.907 42.000,11.991 42.000,11.991 C42.000,13.446 41.137,15.000 38.715,15.000 ZM34.000,11.889 C34.123,11.939 34.366,12.000 34.715,12.000 C34.715,12.000 38.715,12.000 38.715,12.000 C38.841,12.000 38.934,11.992 39.000,11.983 C39.000,11.983 39.000,5.907 39.000,5.907 C39.000,4.535 38.059,3.000 36.800,3.000 C36.800,3.000 14.630,3.000 14.630,3.000 C13.376,3.000 12.000,4.521 12.000,5.907 C12.000,5.907 12.000,11.889 12.000,11.889 C12.123,11.939 12.366,12.000 12.715,12.000 C12.715,12.000 15.715,12.000 15.715,12.000 C15.841,12.000 15.934,11.992 16.000,11.983 C16.000,11.983 16.000,7.500 16.000,7.500 C16.000,6.671 16.671,6.000 17.500,6.000 C17.500,6.000 32.500,6.000 32.500,6.000 C33.329,6.000 34.000,6.671 34.000,7.500 C34.000,7.500 34.000,11.889 34.000,11.889 Z" id="path-6" class="cls-6" fill-rule="evenodd"/>
    <path d="M35.216,17.341 C35.216,18.156 34.555,18.817 33.740,18.817 C32.926,18.817 32.265,18.156 32.265,17.341 C32.265,16.526 32.926,15.866 33.740,15.866 C34.555,15.866 35.216,16.526 35.216,17.341 Z" id="path-7" class="cls-6" fill-rule="evenodd"/>
    <path d="M35.216,22.259 C35.216,23.074 34.555,23.735 33.740,23.735 C32.926,23.735 32.265,23.074 32.265,22.259 C32.265,21.445 32.926,20.784 33.740,20.784 C34.555,20.784 35.216,21.445 35.216,22.259 Z" id="path-8" class="cls-6" fill-rule="evenodd"/>
    <path d="M35.216,27.178 C35.216,27.992 34.555,28.653 33.740,28.653 C32.926,28.653 32.265,27.992 32.265,27.178 C32.265,26.363 32.926,25.702 33.740,25.702 C34.555,25.702 35.216,26.363 35.216,27.178 Z" id="path-9" class="cls-6" fill-rule="evenodd"/>
    <path d="M29.314,17.341 C29.314,18.156 28.654,18.817 27.839,18.817 C27.024,18.817 26.363,18.156 26.363,17.341 C26.363,16.526 27.024,15.866 27.839,15.866 C28.654,15.866 29.314,16.526 29.314,17.341 Z" id="path-10" class="cls-6" fill-rule="evenodd"/>
    <path d="M29.314,22.259 C29.314,23.074 28.654,23.735 27.839,23.735 C27.024,23.735 26.363,23.074 26.363,22.259 C26.363,21.445 27.024,20.784 27.839,20.784 C28.654,20.784 29.314,21.445 29.314,22.259 Z" id="path-11" class="cls-6" fill-rule="evenodd"/>
    <path d="M29.314,27.178 C29.314,27.992 28.654,28.653 27.839,28.653 C27.024,28.653 26.363,27.992 26.363,27.178 C26.363,26.363 27.024,25.702 27.839,25.702 C28.654,25.702 29.314,26.363 29.314,27.178 Z" id="path-12" class="cls-6" fill-rule="evenodd"/>
    <path d="M24.068,17.341 C24.068,18.156 23.408,18.817 22.593,18.817 C21.778,18.817 21.118,18.156 21.118,17.341 C21.118,16.526 21.778,15.866 22.593,15.866 C23.408,15.866 24.068,16.526 24.068,17.341 Z" id="path-13" class="cls-6" fill-rule="evenodd"/>
    <path d="M24.068,22.259 C24.068,23.074 23.408,23.735 22.593,23.735 C21.778,23.735 21.118,23.074 21.118,22.259 C21.118,21.445 21.778,20.784 22.593,20.784 C23.408,20.784 24.068,21.445 24.068,22.259 Z" id="path-14" class="cls-6" fill-rule="evenodd"/>
    <path d="M24.068,27.178 C24.068,27.992 23.408,28.653 22.593,28.653 C21.778,28.653 21.118,27.992 21.118,27.178 C21.118,26.363 21.778,25.702 22.593,25.702 C23.408,25.702 24.068,26.363 24.068,27.178 Z" id="path-15" class="cls-6" fill-rule="evenodd"/>
    <path d="M18.495,17.341 C18.495,18.156 17.834,18.817 17.019,18.817 C16.205,18.817 15.544,18.156 15.544,17.341 C15.544,16.526 16.205,15.866 17.019,15.866 C17.834,15.866 18.495,16.526 18.495,17.341 Z" id="path-16" class="cls-6" fill-rule="evenodd"/>
    <path d="M18.495,22.259 C18.495,23.074 17.834,23.735 17.019,23.735 C16.205,23.735 15.544,23.074 15.544,22.259 C15.544,21.445 16.205,20.784 17.019,20.784 C17.834,20.784 18.495,21.445 18.495,22.259 Z" id="path-17" class="cls-6" fill-rule="evenodd"/>
    <path d="M18.495,27.178 C18.495,27.992 17.834,28.653 17.019,28.653 C16.205,28.653 15.544,27.992 15.544,27.178 C15.544,26.363 16.205,25.702 17.019,25.702 C17.834,25.702 18.495,26.363 18.495,27.178 Z" id="path-18" class="cls-6" fill-rule="evenodd"/>
    <path d="M29.000,52.000 C29.000,52.000 22.000,52.000 22.000,52.000 C21.448,52.000 21.000,51.552 21.000,51.000 C21.000,50.448 21.448,50.000 22.000,50.000 C22.000,50.000 29.000,50.000 29.000,50.000 C29.552,50.000 30.000,50.448 30.000,51.000 C30.000,51.552 29.552,52.000 29.000,52.000 Z" id="path-19" class="cls-6" fill-rule="evenodd"/>
    <path d="M29.000,55.000 C29.000,55.000 22.000,55.000 22.000,55.000 C21.448,55.000 21.000,54.552 21.000,54.000 C21.000,53.448 21.448,53.000 22.000,53.000 C22.000,53.000 29.000,53.000 29.000,53.000 C29.552,53.000 30.000,53.448 30.000,54.000 C30.000,54.552 29.552,55.000 29.000,55.000 Z" id="path-20" class="cls-6" fill-rule="evenodd"/>
    <path d="M29.000,58.000 C29.000,58.000 22.000,58.000 22.000,58.000 C21.448,58.000 21.000,57.552 21.000,57.000 C21.000,56.448 21.448,56.000 22.000,56.000 C22.000,56.000 29.000,56.000 29.000,56.000 C29.552,56.000 30.000,56.448 30.000,57.000 C30.000,57.552 29.552,58.000 29.000,58.000 Z" id="path-21" class="cls-6" fill-rule="evenodd"/>
  </g>
</svg>
