<svg xmlns="http://www.w3.org/2000/svg" xmlns:xlink="http://www.w3.org/1999/xlink" preserveAspectRatio="xMidYMid" width="33" height="61" viewBox="0 0 33 61">
  <defs>
    <style>

      .cls-3 {
        fill: #e56a77;
      }

      .cls-4 {
        fill: #edc951;
      }

      .cls-5 {
        fill: #000000;
      }
    </style>
  </defs>
  <g id="group-19svg">
    <path d="M33.000,57.000 C33.000,59.209 31.209,61.000 29.000,61.000 C29.000,61.000 9.000,61.000 9.000,61.000 C6.791,61.000 5.000,59.209 5.000,57.000 C5.000,57.000 5.000,8.000 5.000,8.000 C5.000,5.791 6.791,4.000 9.000,4.000 C9.000,4.000 29.000,4.000 29.000,4.000 C31.209,4.000 33.000,5.791 33.000,8.000 C33.000,8.000 33.000,57.000 33.000,57.000 Z" id="path-1" class="cls-3" fill-rule="evenodd"/>
    <path d="M25.000,17.000 C25.000,17.000 14.000,17.000 14.000,17.000 C14.000,17.000 14.000,12.000 14.000,12.000 C14.000,12.000 25.000,12.000 25.000,12.000 C25.000,12.000 25.000,17.000 25.000,17.000 Z" id="path-2" class="cls-4" fill-rule="evenodd"/>
    <path d="M25.500,60.000 C25.500,60.000 5.500,60.000 5.500,60.000 C2.468,60.000 -0.000,57.533 -0.000,54.500 C-0.000,54.500 -0.000,5.500 -0.000,5.500 C-0.000,2.467 2.468,-0.000 5.500,-0.000 C5.500,-0.000 25.500,-0.000 25.500,-0.000 C28.532,-0.000 31.000,2.467 31.000,5.500 C31.000,5.500 31.000,54.500 31.000,54.500 C31.000,57.533 28.532,60.000 25.500,60.000 ZM5.500,3.000 C4.121,3.000 3.000,4.122 3.000,5.500 C3.000,5.500 3.000,54.500 3.000,54.500 C3.000,55.878 4.121,57.000 5.500,57.000 C5.500,57.000 25.500,57.000 25.500,57.000 C26.879,57.000 28.000,55.878 28.000,54.500 C28.000,54.500 28.000,5.500 28.000,5.500 C28.000,4.122 26.879,3.000 25.500,3.000 C25.500,3.000 5.500,3.000 5.500,3.000 Z" id="path-3" class="cls-5" fill-rule="evenodd"/>
    <path d="M28.000,32.000 C28.000,32.000 2.000,32.000 2.000,32.000 C1.172,32.000 0.500,31.329 0.500,30.500 C0.500,29.671 1.172,29.000 2.000,29.000 C2.000,29.000 28.000,29.000 28.000,29.000 C28.828,29.000 29.500,29.671 29.500,30.500 C29.500,31.329 28.828,32.000 28.000,32.000 Z" id="path-4" class="cls-5" fill-rule="evenodd"/>
    <path d="M21.500,16.000 C21.500,16.000 10.500,16.000 10.500,16.000 C9.672,16.000 9.000,15.329 9.000,14.500 C9.000,14.500 9.000,9.500 9.000,9.500 C9.000,8.671 9.672,8.000 10.500,8.000 C10.500,8.000 21.500,8.000 21.500,8.000 C22.328,8.000 23.000,8.671 23.000,9.500 C23.000,9.500 23.000,14.500 23.000,14.500 C23.000,15.329 22.328,16.000 21.500,16.000 ZM12.000,13.000 C12.000,13.000 20.000,13.000 20.000,13.000 C20.000,13.000 20.000,11.000 20.000,11.000 C20.000,11.000 12.000,11.000 12.000,11.000 C12.000,11.000 12.000,13.000 12.000,13.000 Z" id="path-5" class="cls-5" fill-rule="evenodd"/>
    <path d="M11.832,48.987 C11.384,48.987 10.939,48.787 10.644,48.404 C10.138,47.748 10.259,46.807 10.914,46.300 C10.914,46.300 18.961,40.082 18.961,40.082 C19.615,39.576 20.559,39.696 21.064,40.352 C21.571,41.007 21.450,41.949 20.795,42.456 C20.795,42.456 12.748,48.674 12.748,48.674 C12.476,48.885 12.152,48.987 11.832,48.987 Z" id="path-6" class="cls-5" fill-rule="evenodd"/>
    <path d="M19.877,48.987 C19.557,48.987 19.233,48.885 18.961,48.674 C18.961,48.674 10.914,42.456 10.914,42.456 C10.259,41.949 10.138,41.007 10.644,40.352 C11.149,39.696 12.095,39.576 12.748,40.082 C12.748,40.082 20.795,46.300 20.795,46.300 C21.450,46.807 21.571,47.748 21.064,48.404 C20.769,48.787 20.325,48.987 19.877,48.987 Z" id="path-7" class="cls-5" fill-rule="evenodd"/>
    <path d="M15.500,51.500 C14.672,51.500 14.000,50.829 14.000,50.000 C14.000,50.000 14.000,38.000 14.000,38.000 C14.000,37.171 14.672,36.500 15.500,36.500 C16.328,36.500 17.000,37.171 17.000,38.000 C17.000,38.000 17.000,50.000 17.000,50.000 C17.000,50.829 16.328,51.500 15.500,51.500 Z" id="path-8" class="cls-5" fill-rule="evenodd"/>
  </g>
</svg>
