<svg xmlns="http://www.w3.org/2000/svg" xmlns:xlink="http://www.w3.org/1999/xlink" preserveAspectRatio="xMidYMid" width="63" height="61" viewBox="0 0 63 61">
  <defs>
    <style>

      .cls-3 {
        fill: #ff917b;
      }

      .cls-4 {
        fill: #000000;
      }
    </style>
  </defs>
  <g id="group-4svg">
    <path d="M48.334,7.078 C48.334,7.078 42.419,8.607 42.419,8.607 C42.419,8.607 21.987,3.561 21.987,3.561 C21.574,3.455 21.223,3.568 20.810,3.676 C20.810,3.676 15.123,5.220 15.123,5.220 C9.601,6.404 5.479,11.336 5.479,17.212 C5.479,23.088 9.632,28.006 15.153,29.191 C15.153,29.191 21.268,54.334 21.268,54.334 C21.622,55.343 22.578,56.022 23.647,56.022 C24.816,56.022 25.833,55.221 26.102,54.084 C26.102,54.084 24.794,32.632 24.794,32.632 C24.117,31.214 24.890,29.530 26.405,29.116 C26.405,29.116 42.996,24.070 42.996,24.070 C42.996,24.070 48.311,25.561 48.311,25.561 C51.563,26.374 54.062,23.914 54.062,20.561 C54.062,20.561 54.062,12.084 54.062,12.084 C54.062,8.741 51.581,6.283 48.334,7.078 Z" id="path-1" class="cls-3" fill-rule="evenodd"/>
    <path d="M10.562,28.031 C9.734,28.031 9.062,27.360 9.062,26.531 C9.062,26.531 9.062,3.531 9.062,3.531 C9.062,2.703 9.734,2.031 10.562,2.031 C11.391,2.031 12.062,2.703 12.062,3.531 C12.062,3.531 12.062,26.531 12.062,26.531 C12.062,27.360 11.391,28.031 10.562,28.031 Z" id="path-2" class="cls-4" fill-rule="evenodd"/>
    <path d="M19.648,55.522 C17.944,55.522 16.420,54.440 15.854,52.831 C15.838,52.784 15.823,52.736 15.811,52.688 C15.811,52.688 9.913,28.423 9.913,28.423 C4.107,26.741 -0.013,21.332 -0.013,15.212 C-0.013,8.760 4.545,3.100 10.824,1.753 C10.824,1.753 16.450,0.228 16.450,0.228 C17.066,0.066 17.757,-0.063 18.423,0.107 C18.423,0.107 38.539,5.061 38.539,5.061 C38.539,5.061 44.216,3.624 44.216,3.624 C44.751,3.493 45.281,3.428 45.803,3.428 C49.312,3.428 52.062,6.352 52.062,10.084 C52.062,10.084 52.062,18.561 52.062,18.561 C52.062,20.349 51.433,22.015 50.289,23.251 C49.117,24.519 47.523,25.218 45.803,25.218 C45.803,25.218 45.802,25.218 45.802,25.218 C45.270,25.218 44.730,25.150 44.197,25.017 C44.197,25.017 39.022,23.630 39.022,23.630 C39.022,23.630 22.842,28.551 22.842,28.551 C22.400,28.672 22.216,28.960 22.142,29.123 C22.067,29.285 21.970,29.612 22.148,29.987 C22.230,30.161 22.279,30.349 22.291,30.541 C22.291,30.541 23.600,51.993 23.600,51.993 C23.608,52.140 23.596,52.287 23.562,52.430 C23.130,54.251 21.521,55.522 19.648,55.522 ZM18.706,51.891 C18.863,52.271 19.235,52.522 19.648,52.522 C20.065,52.522 20.431,52.275 20.589,51.903 C20.589,51.903 19.312,30.980 19.312,30.980 C18.929,29.975 18.962,28.860 19.414,27.873 C19.911,26.787 20.857,25.984 22.010,25.669 C22.010,25.669 38.560,20.635 38.560,20.635 C38.829,20.553 39.112,20.548 39.385,20.621 C39.385,20.621 44.949,22.113 44.949,22.113 C45.221,22.180 45.516,22.218 45.802,22.218 C45.803,22.218 45.803,22.218 45.803,22.218 C46.678,22.218 47.488,21.862 48.087,21.215 C48.716,20.534 49.062,19.591 49.062,18.561 C49.062,18.561 49.062,10.084 49.062,10.084 C49.062,7.684 47.156,5.994 44.940,6.535 C44.940,6.535 38.912,8.061 38.912,8.061 C38.674,8.122 38.424,8.123 38.185,8.064 C38.185,8.064 17.691,3.017 17.691,3.017 C17.636,3.018 17.446,3.068 17.295,3.108 C17.295,3.108 11.530,4.667 11.530,4.667 C6.548,5.739 2.987,10.165 2.987,15.212 C2.987,20.249 6.556,24.669 11.472,25.724 C12.035,25.845 12.478,26.277 12.615,26.836 C12.615,26.836 18.706,51.891 18.706,51.891 Z" id="path-3" class="cls-4" fill-rule="evenodd"/>
    <path d="M38.562,23.031 C37.734,23.031 37.062,22.360 37.062,21.531 C37.062,21.531 37.062,6.531 37.062,6.531 C37.062,5.703 37.734,5.031 38.562,5.031 C39.391,5.031 40.062,5.703 40.062,6.531 C40.062,6.531 40.062,21.531 40.062,21.531 C40.062,22.360 39.391,23.031 38.562,23.031 Z" id="path-4" class="cls-4" fill-rule="evenodd"/>
    <path d="M61.062,15.531 C61.062,15.531 54.062,15.531 54.062,15.531 C53.234,15.531 52.562,14.860 52.562,14.031 C52.562,13.203 53.234,12.531 54.062,12.531 C54.062,12.531 61.062,12.531 61.062,12.531 C61.891,12.531 62.562,13.203 62.562,14.031 C62.562,14.860 61.891,15.531 61.062,15.531 Z" id="path-5" class="cls-4" fill-rule="evenodd"/>
    <path d="M61.062,22.531 C61.062,22.531 54.062,22.531 54.062,22.531 C53.234,22.531 52.562,21.860 52.562,21.031 C52.562,20.203 53.234,19.531 54.062,19.531 C54.062,19.531 61.062,19.531 61.062,19.531 C61.891,19.531 62.562,20.203 62.562,21.031 C62.562,21.860 61.891,22.531 61.062,22.531 Z" id="path-6" class="cls-4" fill-rule="evenodd"/>
    <path d="M61.062,9.531 C61.062,9.531 54.062,9.531 54.062,9.531 C53.234,9.531 52.562,8.860 52.562,8.031 C52.562,7.203 53.234,6.531 54.062,6.531 C54.062,6.531 61.062,6.531 61.062,6.531 C61.891,6.531 62.562,7.203 62.562,8.031 C62.562,8.860 61.891,9.531 61.062,9.531 Z" id="path-7" class="cls-4" fill-rule="evenodd"/>
    <path d="M56.562,60.031 C55.734,60.031 55.062,59.360 55.062,58.531 C55.062,58.531 55.062,58.407 55.062,58.407 C55.062,56.010 53.335,53.531 50.443,53.531 C50.443,53.531 39.192,53.531 39.192,53.531 C37.116,53.531 35.084,52.644 33.471,51.033 C31.943,49.508 29.567,49.822 27.867,50.816 C27.867,50.816 22.268,54.737 22.268,54.737 C21.590,55.212 20.654,55.048 20.179,54.369 C19.703,53.690 19.868,52.755 20.547,52.279 C20.547,52.279 26.194,48.325 26.194,48.325 C26.225,48.304 26.255,48.285 26.286,48.266 C29.529,46.333 33.269,46.591 35.590,48.910 C36.638,49.956 37.917,50.531 39.192,50.531 C39.192,50.531 50.443,50.531 50.443,50.531 C55.213,50.531 58.062,54.536 58.062,58.407 C58.062,58.407 58.062,58.531 58.062,58.531 C58.062,59.360 57.391,60.031 56.562,60.031 Z" id="path-8" class="cls-4" fill-rule="evenodd"/>
  </g>
</svg>
