<svg xmlns="http://www.w3.org/2000/svg" xmlns:xlink="http://www.w3.org/1999/xlink" preserveAspectRatio="xMidYMid" width="63" height="64" viewBox="0 0 63 64">
  <defs>
    <style>

      .cls-3 {
        fill: #edc951;
      }

      .cls-4 {
        fill: #e56a77;
      }

      .cls-5 {
        fill: #8b71b5;
      }

      .cls-7 {
        fill: #000000;
      }
    </style>
  </defs>
  <g id="group-29svg">
    <path d="M63.000,11.108 C63.000,11.108 63.000,11.061 63.000,11.061 C63.000,6.900 61.499,4.000 57.340,4.000 C57.340,4.000 14.660,4.000 14.660,4.000 C10.500,4.000 7.000,6.853 7.000,11.013 C7.000,11.013 7.000,11.108 7.000,11.108 C7.000,15.268 10.500,19.000 14.660,19.000 C14.660,19.000 19.712,19.000 19.712,19.000 C21.825,19.000 23.385,20.498 22.901,22.554 C22.901,22.554 14.016,55.000 14.016,55.000 C14.016,55.000 9.400,55.000 9.400,55.000 C7.320,55.000 5.000,57.103 5.000,59.183 C5.000,59.183 5.000,59.449 5.000,59.449 C5.000,61.529 7.320,64.000 9.400,64.000 C9.400,64.000 54.591,64.000 54.591,64.000 C56.671,64.000 57.000,61.564 57.000,59.484 C57.000,59.484 57.000,59.298 57.000,59.298 C57.000,57.218 56.671,55.000 54.591,55.000 C54.591,55.000 28.096,55.000 28.096,55.000 C25.983,55.000 24.423,53.274 24.906,51.218 C24.906,51.218 33.198,21.176 33.198,21.176 C33.546,19.696 34.867,19.000 36.387,19.000 C36.387,19.000 57.340,19.000 57.340,19.000 C61.499,19.000 63.000,15.268 63.000,11.108 Z" id="path-1" class="cls-3" fill-rule="evenodd"/>
    <path d="M41.984,52.000 C41.984,52.000 50.984,52.000 50.984,52.000 C55.403,52.000 59.000,48.073 59.000,43.655 C59.000,43.655 59.000,34.000 59.000,34.000 C59.000,34.000 34.000,34.000 34.000,34.000 C34.000,34.000 34.000,43.655 34.000,43.655 C34.000,48.073 37.566,52.000 41.984,52.000 Z" id="path-2" class="cls-4" fill-rule="evenodd"/>
    <path d="M40.984,26.000 C40.984,26.000 49.984,26.000 49.984,26.000 C51.089,26.000 52.000,24.760 52.000,23.655 C52.000,23.655 52.000,19.000 52.000,19.000 C52.000,19.000 39.000,19.000 39.000,19.000 C39.000,19.000 39.000,23.655 39.000,23.655 C39.000,24.760 39.880,26.000 40.984,26.000 Z" id="path-3" class="cls-5" fill-rule="evenodd"/>
    <path d="M40.911,40.600 C40.911,36.106 42.773,36.023 45.318,36.023 C47.863,36.023 50.126,36.106 50.126,40.600 C50.126,45.093 48.063,48.735 45.518,48.735 C42.974,48.735 40.911,45.093 40.911,40.600 Z" id="path-4" class="cls-3" fill-rule="evenodd"/>
    <path d="M50.591,63.000 C50.591,63.000 5.400,63.000 5.400,63.000 C2.523,63.000 -0.000,60.406 -0.000,57.449 C-0.000,57.449 -0.000,57.183 -0.000,57.183 C-0.000,54.382 2.409,51.000 5.400,51.000 C5.400,51.000 8.872,51.000 8.872,51.000 C8.872,51.000 17.455,19.658 17.455,19.658 C17.545,19.269 17.482,18.898 17.253,18.609 C16.951,18.228 16.375,18.000 15.712,18.000 C15.712,18.000 10.660,18.000 10.660,18.000 C5.723,18.000 2.000,14.177 2.000,9.108 C2.000,3.959 5.804,-0.000 10.660,-0.000 C10.660,-0.000 53.340,-0.000 53.340,-0.000 C57.993,-0.000 61.000,3.556 61.000,9.060 C61.000,14.510 57.993,18.000 53.340,18.000 C53.340,18.000 32.387,18.000 32.387,18.000 C32.044,18.000 30.908,18.082 30.658,19.145 C30.658,19.145 22.353,49.366 22.353,49.366 C22.264,49.748 22.325,50.113 22.548,50.395 C22.848,50.774 23.427,51.000 24.096,51.000 C24.096,51.000 50.591,51.000 50.591,51.000 C53.620,51.000 55.000,54.265 55.000,57.298 C55.000,57.298 55.000,57.484 55.000,57.484 C55.000,60.835 53.269,63.000 50.591,63.000 ZM5.400,54.000 C4.324,54.000 3.000,55.755 3.000,57.183 C3.000,57.183 3.000,57.449 3.000,57.449 C3.000,58.736 4.189,60.000 5.400,60.000 C5.400,60.000 50.591,60.000 50.591,60.000 C51.863,60.000 52.000,58.241 52.000,57.484 C52.000,57.484 52.000,57.298 52.000,57.298 C52.000,55.738 51.421,54.000 50.591,54.000 C50.591,54.000 24.096,54.000 24.096,54.000 C22.495,54.000 21.074,53.365 20.196,52.257 C19.398,51.250 19.132,49.960 19.446,48.625 C19.446,48.625 27.751,18.404 27.751,18.404 C28.224,16.390 30.092,15.000 32.387,15.000 C32.387,15.000 53.340,15.000 53.340,15.000 C57.546,15.000 58.000,10.879 58.000,9.108 C58.000,7.639 57.664,3.000 53.340,3.000 C53.340,3.000 10.660,3.000 10.660,3.000 C7.433,3.000 5.000,5.585 5.000,9.013 C5.000,12.522 7.380,15.000 10.660,15.000 C10.660,15.000 15.712,15.000 15.712,15.000 C17.307,15.000 18.726,15.637 19.605,16.747 C20.408,17.760 20.677,19.057 20.361,20.397 C20.361,20.397 11.463,52.896 11.463,52.896 C11.284,53.548 10.692,54.000 10.016,54.000 C10.016,54.000 5.400,54.000 5.400,54.000 Z" id="path-5" class="cls-7" fill-rule="evenodd"/>
    <path d="M45.984,25.000 C45.984,25.000 36.984,25.000 36.984,25.000 C35.060,25.000 33.000,23.656 33.000,21.655 C33.000,21.655 33.000,16.500 33.000,16.500 C33.000,15.671 33.671,15.000 34.500,15.000 C34.500,15.000 47.500,15.000 47.500,15.000 C48.329,15.000 49.000,15.671 49.000,16.500 C49.000,16.500 49.000,21.655 49.000,21.655 C49.000,24.122 47.442,25.000 45.984,25.000 ZM36.000,18.000 C36.000,18.000 36.000,21.655 36.000,21.655 C36.061,21.727 36.534,22.000 36.984,22.000 C36.984,22.000 45.973,22.000 45.973,22.000 C45.987,21.927 46.000,21.816 46.000,21.655 C46.000,21.655 46.000,18.000 46.000,18.000 C46.000,18.000 36.000,18.000 36.000,18.000 Z" id="path-6" class="cls-7" fill-rule="evenodd"/>
    <path d="M46.984,51.000 C46.984,51.000 37.984,51.000 37.984,51.000 C32.572,51.000 28.000,46.721 28.000,41.655 C28.000,41.655 28.000,31.500 28.000,31.500 C28.000,30.671 28.671,30.000 29.500,30.000 C29.500,30.000 54.500,30.000 54.500,30.000 C55.329,30.000 56.000,30.671 56.000,31.500 C56.000,31.500 56.000,41.655 56.000,41.655 C56.000,46.982 52.124,51.000 46.984,51.000 ZM31.000,33.000 C31.000,33.000 31.000,41.655 31.000,41.655 C31.000,45.094 34.198,48.000 37.984,48.000 C37.984,48.000 46.984,48.000 46.984,48.000 C50.470,48.000 53.000,45.332 53.000,41.655 C53.000,41.655 53.000,33.000 53.000,33.000 C53.000,33.000 31.000,33.000 31.000,33.000 Z" id="path-7" class="cls-7" fill-rule="evenodd"/>
    <path d="M41.500,45.500 C40.671,45.500 40.000,44.829 40.000,44.000 C40.000,44.000 40.000,24.000 40.000,24.000 C40.000,23.171 40.671,22.500 41.500,22.500 C42.329,22.500 43.000,23.171 43.000,24.000 C43.000,24.000 43.000,44.000 43.000,44.000 C43.000,44.829 42.329,45.500 41.500,45.500 Z" id="path-8" class="cls-7" fill-rule="evenodd"/>
    <path d="M41.518,48.235 C38.093,48.235 35.411,44.002 35.411,38.600 C35.411,32.523 38.965,32.523 41.318,32.523 C43.677,32.523 47.626,32.523 47.626,38.600 C47.626,44.002 44.943,48.235 41.518,48.235 ZM41.318,35.523 C38.912,35.523 38.411,35.523 38.411,38.600 C38.411,42.397 40.051,45.235 41.518,45.235 C42.985,45.235 44.626,42.397 44.626,38.600 C44.626,35.523 43.792,35.523 41.318,35.523 Z" id="path-9" class="cls-7" fill-rule="evenodd"/>
    <path d="M49.705,14.028 C46.954,14.028 44.716,11.790 44.716,9.039 C44.716,6.287 46.954,4.049 49.705,4.049 C52.457,4.049 54.695,6.287 54.695,9.039 C54.695,11.790 52.457,14.028 49.705,14.028 ZM49.705,7.049 C48.608,7.049 47.716,7.941 47.716,9.039 C47.716,10.136 48.608,11.028 49.705,11.028 C50.803,11.028 51.695,10.136 51.695,9.039 C51.695,7.941 50.803,7.049 49.705,7.049 Z" id="path-10" class="cls-7" fill-rule="evenodd"/>
  </g>
</svg>
