<svg xmlns="http://www.w3.org/2000/svg" xmlns:xlink="http://www.w3.org/1999/xlink" preserveAspectRatio="xMidYMid" width="42" height="63" viewBox="0 0 42 63">
  <defs>
    <style>

      .cls-3 {
        fill: #e56a77;
      }

      .cls-4 {
        fill: #edc951;
      }

      .cls-5 {
        fill: #000000;
      }
    </style>
  </defs>
  <g id="group-11svg">
    <path d="M29.000,63.000 C29.000,63.000 14.708,63.000 14.708,63.000 C10.104,63.000 6.487,60.834 6.487,56.229 C6.487,56.229 6.337,51.020 6.337,51.020 C6.337,50.467 6.785,50.000 7.337,50.000 C7.337,50.000 34.337,50.000 34.337,50.000 C34.890,50.000 35.594,50.527 35.594,51.079 C35.594,51.079 35.594,56.742 35.594,56.742 C35.594,60.228 32.485,63.000 29.000,63.000 Z" id="path-1" class="cls-3" fill-rule="evenodd"/>
    <path d="M29.010,46.000 C29.010,46.000 13.718,46.000 13.718,46.000 C11.864,46.000 10.848,43.188 10.361,41.315 C10.361,41.315 4.486,13.315 4.486,13.315 C4.486,11.461 5.989,9.000 7.843,9.000 C7.843,9.000 34.885,9.000 34.885,9.000 C36.739,9.000 38.242,10.797 38.242,12.651 C38.242,12.651 32.367,41.168 32.367,41.168 C31.870,43.131 30.864,46.000 29.010,46.000 Z" id="path-2" class="cls-4" fill-rule="evenodd"/>
    <path d="M26.010,45.000 C26.010,45.000 10.718,45.000 10.718,45.000 C9.184,45.000 7.104,44.036 5.909,39.442 C5.909,39.442 -0.014,10.940 -0.014,10.940 C-0.014,8.518 1.878,5.000 4.843,5.000 C4.843,5.000 31.885,5.000 31.885,5.000 C34.665,5.000 36.742,7.852 36.742,10.401 C36.742,10.401 36.711,10.705 36.711,10.705 C36.711,10.705 30.835,39.097 30.835,39.097 C29.841,43.036 28.222,45.000 26.010,45.000 ZM2.990,10.805 C2.990,10.805 8.829,38.758 8.829,38.758 C9.378,40.862 10.200,42.000 10.718,42.000 C10.718,42.000 26.010,42.000 26.010,42.000 C26.411,42.000 27.249,41.048 27.913,38.425 C27.913,38.425 33.738,10.268 33.738,10.268 C33.667,9.162 32.736,8.000 31.885,8.000 C31.885,8.000 4.843,8.000 4.843,8.000 C4.090,8.000 3.063,9.583 2.990,10.805 Z" id="path-3" class="cls-5" fill-rule="evenodd"/>
    <path d="M26.000,63.000 C26.000,63.000 11.708,63.000 11.708,63.000 C5.894,63.000 1.987,59.576 1.987,54.479 C1.987,54.479 1.837,49.439 1.837,49.439 C1.837,48.030 2.912,47.000 4.337,47.000 C4.337,47.000 31.337,47.000 31.337,47.000 C33.301,47.000 33.594,48.303 33.594,49.079 C33.594,49.079 33.594,54.742 33.594,54.742 C33.594,59.218 30.116,63.000 26.000,63.000 ZM4.855,50.000 C4.855,50.000 4.987,54.435 4.987,54.435 C4.987,58.550 8.459,60.000 11.708,60.000 C11.708,60.000 26.000,60.000 26.000,60.000 C28.748,60.000 30.594,57.281 30.594,54.742 C30.594,54.742 30.594,50.000 30.594,50.000 C30.594,50.000 4.855,50.000 4.855,50.000 Z" id="path-4" class="cls-5" fill-rule="evenodd"/>
    <path d="M28.594,8.000 C28.594,8.000 8.594,8.000 8.594,8.000 C8.594,8.000 8.594,6.500 8.594,6.500 C8.594,6.435 8.653,-0.000 11.515,-0.000 C11.515,-0.000 25.213,-0.000 25.213,-0.000 C28.075,-0.000 28.594,6.435 28.594,6.500 C28.594,6.500 28.594,8.000 28.594,8.000 ZM11.526,5.000 C11.526,5.000 25.202,5.000 25.202,5.000 C25.048,4.258 24.833,3.458 24.631,3.000 C24.631,3.000 12.096,3.000 12.096,3.000 C11.895,3.458 11.680,4.258 11.526,5.000 Z" id="path-5" class="cls-5" fill-rule="evenodd"/>
    <path d="M33.389,32.187 C32.526,32.187 31.693,32.114 31.163,31.993 C31.163,31.993 29.700,31.658 29.700,31.658 C29.700,31.658 34.192,12.065 34.192,12.065 C34.192,12.065 35.655,12.401 35.655,12.401 C35.714,12.415 41.535,14.098 40.895,16.887 C40.895,16.887 37.834,30.239 37.834,30.239 C37.434,31.985 35.105,32.187 33.389,32.187 ZM33.345,29.187 C34.125,29.187 34.723,29.114 35.030,29.046 C35.030,29.046 37.853,16.730 37.853,16.730 C37.532,16.474 36.966,16.151 36.396,15.876 C36.396,15.876 33.345,29.187 33.345,29.187 Z" id="path-6" class="cls-5" fill-rule="evenodd"/>
    <path d="M22.167,33.782 C21.101,33.782 19.964,33.667 18.762,33.400 C18.762,33.400 18.477,33.307 18.477,33.307 C16.257,32.322 9.829,30.351 6.794,33.018 C6.794,33.018 4.814,30.764 4.814,30.764 C9.629,26.534 18.258,29.954 19.548,30.501 C26.196,31.904 30.351,27.479 30.392,27.434 C30.392,27.434 32.603,29.462 32.603,29.462 C32.416,29.666 28.554,33.782 22.167,33.782 Z" id="path-7" class="cls-5" fill-rule="evenodd"/>
    <path d="M20.858,57.244 C20.858,58.654 19.715,59.797 18.305,59.797 C16.894,59.797 15.751,58.654 15.751,57.244 C15.751,55.833 16.894,54.690 18.305,54.690 C19.715,54.690 20.858,55.833 20.858,57.244 Z" id="path-8" class="cls-5" fill-rule="evenodd"/>
    <path d="M22.594,53.000 C22.594,53.000 13.594,53.000 13.594,53.000 C13.041,53.000 12.594,52.552 12.594,52.000 C12.594,51.448 13.041,51.000 13.594,51.000 C13.594,51.000 22.594,51.000 22.594,51.000 C23.146,51.000 23.594,51.448 23.594,52.000 C23.594,52.552 23.146,53.000 22.594,53.000 Z" id="path-9" class="cls-5" fill-rule="evenodd"/>
    <path d="M24.594,21.000 C24.041,21.000 23.594,20.552 23.594,20.000 C23.594,20.000 23.594,16.000 23.594,16.000 C23.594,15.448 24.041,15.000 24.594,15.000 C25.146,15.000 25.594,15.448 25.594,16.000 C25.594,16.000 25.594,20.000 25.594,20.000 C25.594,20.552 25.146,21.000 24.594,21.000 Z" id="path-10" class="cls-5" fill-rule="evenodd"/>
    <path d="M16.594,18.000 C16.041,18.000 15.594,17.552 15.594,17.000 C15.594,17.000 15.594,14.000 15.594,14.000 C15.594,13.448 16.041,13.000 16.594,13.000 C17.146,13.000 17.594,13.448 17.594,14.000 C17.594,14.000 17.594,17.000 17.594,17.000 C17.594,17.552 17.146,18.000 16.594,18.000 Z" id="path-11" class="cls-5" fill-rule="evenodd"/>
    <path d="M20.594,24.000 C20.041,24.000 19.594,23.552 19.594,23.000 C19.594,23.000 19.594,18.000 19.594,18.000 C19.594,17.448 20.041,17.000 20.594,17.000 C21.146,17.000 21.594,17.448 21.594,18.000 C21.594,18.000 21.594,23.000 21.594,23.000 C21.594,23.552 21.146,24.000 20.594,24.000 Z" id="path-12" class="cls-5" fill-rule="evenodd"/>
    <path d="M10.594,22.000 C10.041,22.000 9.594,21.552 9.594,21.000 C9.594,21.000 9.594,18.000 9.594,18.000 C9.594,17.448 10.041,17.000 10.594,17.000 C11.146,17.000 11.594,17.448 11.594,18.000 C11.594,18.000 11.594,21.000 11.594,21.000 C11.594,21.552 11.146,22.000 10.594,22.000 Z" id="path-13" class="cls-5" fill-rule="evenodd"/>
  </g>
</svg>
