<svg xmlns="http://www.w3.org/2000/svg" xmlns:xlink="http://www.w3.org/1999/xlink" preserveAspectRatio="xMidYMid" width="56" height="64" viewBox="0 0 56 64">
  <defs>
    <style>

      .cls-3 {
        fill: #ff917b;
      }

      .cls-4 {
        fill: #e56a77;
      }

      .cls-5 {
        fill: #000000;
      }
    </style>
  </defs>
  <g id="group-8svg">
    <path d="M43.000,13.000 C43.000,13.000 43.000,7.829 43.000,7.829 C43.000,5.629 41.700,4.000 39.500,4.000 C39.500,4.000 24.500,4.000 24.500,4.000 C22.300,4.000 20.000,5.629 20.000,7.829 C20.000,7.829 20.000,13.000 20.000,13.000 C20.000,13.000 10.500,13.000 10.500,13.000 C8.300,13.000 6.000,14.629 6.000,16.829 C6.000,16.829 6.000,40.000 6.000,40.000 C6.000,40.000 56.000,40.000 56.000,40.000 C56.000,40.000 56.000,16.829 56.000,16.829 C56.000,14.629 54.700,13.000 52.500,13.000 C52.500,13.000 43.000,13.000 43.000,13.000 Z" id="path-1" class="cls-3" fill-rule="evenodd"/>
    <path d="M56.000,46.000 C56.000,46.000 8.000,46.000 8.000,46.000 C8.000,46.000 8.000,53.199 8.000,53.199 C8.000,57.204 12.000,56.829 12.000,56.829 C12.000,56.829 12.000,64.000 12.000,64.000 C12.000,64.000 19.000,64.000 19.000,64.000 C19.000,64.000 19.000,57.000 19.000,57.000 C19.000,57.000 45.000,57.000 45.000,57.000 C45.000,57.000 45.000,64.000 45.000,64.000 C45.000,64.000 52.000,64.000 52.000,64.000 C52.000,64.000 52.000,57.000 52.000,57.000 C52.000,57.000 52.649,57.000 52.649,57.000 C55.104,57.000 56.000,55.653 56.000,53.199 C56.000,53.199 56.000,46.000 56.000,46.000 Z" id="path-2" class="cls-4" fill-rule="evenodd"/>
    <path d="M51.500,39.000 C51.500,39.000 1.500,39.000 1.500,39.000 C0.671,39.000 -0.000,38.329 -0.000,37.500 C-0.000,37.500 -0.000,14.829 -0.000,14.829 C-0.000,11.724 2.570,9.000 5.500,9.000 C5.500,9.000 14.000,9.000 14.000,9.000 C14.000,9.000 14.000,5.829 14.000,5.829 C14.000,2.724 16.570,-0.000 19.500,-0.000 C19.500,-0.000 34.500,-0.000 34.500,-0.000 C37.430,-0.000 40.000,2.724 40.000,5.829 C40.000,5.829 40.000,9.000 40.000,9.000 C40.000,9.000 47.500,9.000 47.500,9.000 C50.430,9.000 53.000,11.724 53.000,14.829 C53.000,14.829 53.000,37.500 53.000,37.500 C53.000,38.329 52.329,39.000 51.500,39.000 ZM3.000,36.000 C3.000,36.000 50.000,36.000 50.000,36.000 C50.000,36.000 50.000,14.829 50.000,14.829 C50.000,13.375 48.785,12.000 47.500,12.000 C47.500,12.000 38.500,12.000 38.500,12.000 C37.671,12.000 37.000,11.329 37.000,10.500 C37.000,10.500 37.000,5.829 37.000,5.829 C37.000,4.375 35.785,3.000 34.500,3.000 C34.500,3.000 19.500,3.000 19.500,3.000 C18.215,3.000 17.000,4.375 17.000,5.829 C17.000,5.829 17.000,10.500 17.000,10.500 C17.000,11.329 16.329,12.000 15.500,12.000 C15.500,12.000 5.500,12.000 5.500,12.000 C4.215,12.000 3.000,13.375 3.000,14.829 C3.000,14.829 3.000,36.000 3.000,36.000 Z" id="path-3" class="cls-5" fill-rule="evenodd"/>
    <path d="M45.500,45.000 C45.500,45.000 9.500,45.000 9.500,45.000 C8.671,45.000 8.000,44.329 8.000,43.500 C8.000,43.500 8.000,37.500 8.000,37.500 C8.000,36.671 8.671,36.000 9.500,36.000 C9.500,36.000 45.500,36.000 45.500,36.000 C46.329,36.000 47.000,36.671 47.000,37.500 C47.000,37.500 47.000,43.500 47.000,43.500 C47.000,44.329 46.329,45.000 45.500,45.000 ZM11.000,42.000 C11.000,42.000 44.000,42.000 44.000,42.000 C44.000,42.000 44.000,39.000 44.000,39.000 C44.000,39.000 11.000,39.000 11.000,39.000 C11.000,39.000 11.000,42.000 11.000,42.000 Z" id="path-4" class="cls-5" fill-rule="evenodd"/>
    <path d="M47.500,63.000 C47.500,63.000 40.500,63.000 40.500,63.000 C39.671,63.000 39.000,62.329 39.000,61.500 C39.000,61.500 39.000,56.000 39.000,56.000 C39.000,56.000 16.000,56.000 16.000,56.000 C16.000,56.000 16.000,61.500 16.000,61.500 C16.000,62.329 15.329,63.000 14.500,63.000 C14.500,63.000 7.500,63.000 7.500,63.000 C6.671,63.000 6.000,62.329 6.000,61.500 C6.000,61.500 6.000,56.220 6.000,56.220 C3.953,55.818 2.000,54.356 2.000,51.199 C2.000,51.199 2.000,43.500 2.000,43.500 C2.000,42.671 2.671,42.000 3.500,42.000 C3.500,42.000 51.500,42.000 51.500,42.000 C52.329,42.000 53.000,42.671 53.000,43.500 C53.000,43.500 53.000,51.199 53.000,51.199 C53.000,53.145 52.267,55.424 49.000,55.907 C49.000,55.907 49.000,61.500 49.000,61.500 C49.000,62.329 48.329,63.000 47.500,63.000 ZM42.000,60.000 C42.000,60.000 46.000,60.000 46.000,60.000 C46.000,60.000 46.000,54.500 46.000,54.500 C46.000,53.671 46.671,53.000 47.500,53.000 C47.500,53.000 47.649,53.000 47.649,53.000 C49.842,53.000 50.000,52.319 50.000,51.199 C50.000,51.199 50.000,45.000 50.000,45.000 C50.000,45.000 5.000,45.000 5.000,45.000 C5.000,45.000 5.000,51.199 5.000,51.199 C5.000,51.784 5.000,53.338 7.233,53.338 C7.305,53.338 7.354,53.336 7.372,53.334 C7.785,53.304 8.206,53.446 8.513,53.729 C8.819,54.014 9.000,54.412 9.000,54.829 C9.000,54.829 9.000,60.000 9.000,60.000 C9.000,60.000 13.000,60.000 13.000,60.000 C13.000,60.000 13.000,54.500 13.000,54.500 C13.000,53.671 13.671,53.000 14.500,53.000 C14.500,53.000 40.500,53.000 40.500,53.000 C41.329,53.000 42.000,53.671 42.000,54.500 C42.000,54.500 42.000,60.000 42.000,60.000 Z" id="path-5" class="cls-5" fill-rule="evenodd"/>
    <path d="M47.000,19.000 C47.000,19.000 44.000,19.000 44.000,19.000 C43.171,19.000 42.500,18.329 42.500,17.500 C42.500,16.671 43.171,16.000 44.000,16.000 C44.000,16.000 47.000,16.000 47.000,16.000 C47.829,16.000 48.500,16.671 48.500,17.500 C48.500,18.329 47.829,19.000 47.000,19.000 Z" id="path-6" class="cls-5" fill-rule="evenodd"/>
    <path d="M38.000,19.000 C38.000,19.000 31.000,19.000 31.000,19.000 C30.171,19.000 29.500,18.329 29.500,17.500 C29.500,16.671 30.171,16.000 31.000,16.000 C31.000,16.000 38.000,16.000 38.000,16.000 C38.829,16.000 39.500,16.671 39.500,17.500 C39.500,18.329 38.829,19.000 38.000,19.000 ZM24.000,19.000 C24.000,19.000 17.000,19.000 17.000,19.000 C16.171,19.000 15.500,18.329 15.500,17.500 C15.500,16.671 16.171,16.000 17.000,16.000 C17.000,16.000 24.000,16.000 24.000,16.000 C24.829,16.000 25.500,16.671 25.500,17.500 C25.500,18.329 24.829,19.000 24.000,19.000 Z" id="path-7" class="cls-5" fill-rule="evenodd"/>
    <path d="M10.000,19.000 C10.000,19.000 7.000,19.000 7.000,19.000 C6.171,19.000 5.500,18.329 5.500,17.500 C5.500,16.671 6.171,16.000 7.000,16.000 C7.000,16.000 10.000,16.000 10.000,16.000 C10.829,16.000 11.500,16.671 11.500,17.500 C11.500,18.329 10.829,19.000 10.000,19.000 Z" id="path-8" class="cls-5" fill-rule="evenodd"/>
    <path d="M47.000,26.000 C47.000,26.000 44.000,26.000 44.000,26.000 C43.171,26.000 42.500,25.329 42.500,24.500 C42.500,23.671 43.171,23.000 44.000,23.000 C44.000,23.000 47.000,23.000 47.000,23.000 C47.829,23.000 48.500,23.671 48.500,24.500 C48.500,25.329 47.829,26.000 47.000,26.000 Z" id="path-9" class="cls-5" fill-rule="evenodd"/>
    <path d="M38.000,26.000 C38.000,26.000 31.000,26.000 31.000,26.000 C30.171,26.000 29.500,25.329 29.500,24.500 C29.500,23.671 30.171,23.000 31.000,23.000 C31.000,23.000 38.000,23.000 38.000,23.000 C38.829,23.000 39.500,23.671 39.500,24.500 C39.500,25.329 38.829,26.000 38.000,26.000 ZM24.000,26.000 C24.000,26.000 17.000,26.000 17.000,26.000 C16.171,26.000 15.500,25.329 15.500,24.500 C15.500,23.671 16.171,23.000 17.000,23.000 C17.000,23.000 24.000,23.000 24.000,23.000 C24.829,23.000 25.500,23.671 25.500,24.500 C25.500,25.329 24.829,26.000 24.000,26.000 Z" id="path-10" class="cls-5" fill-rule="evenodd"/>
    <path d="M10.000,26.000 C10.000,26.000 7.000,26.000 7.000,26.000 C6.171,26.000 5.500,25.329 5.500,24.500 C5.500,23.671 6.171,23.000 7.000,23.000 C7.000,23.000 10.000,23.000 10.000,23.000 C10.829,23.000 11.500,23.671 11.500,24.500 C11.500,25.329 10.829,26.000 10.000,26.000 Z" id="path-11" class="cls-5" fill-rule="evenodd"/>
    <path d="M47.000,33.000 C47.000,33.000 44.000,33.000 44.000,33.000 C43.171,33.000 42.500,32.329 42.500,31.500 C42.500,30.671 43.171,30.000 44.000,30.000 C44.000,30.000 47.000,30.000 47.000,30.000 C47.829,30.000 48.500,30.671 48.500,31.500 C48.500,32.329 47.829,33.000 47.000,33.000 Z" id="path-12" class="cls-5" fill-rule="evenodd"/>
    <path d="M38.000,33.000 C38.000,33.000 31.000,33.000 31.000,33.000 C30.171,33.000 29.500,32.329 29.500,31.500 C29.500,30.671 30.171,30.000 31.000,30.000 C31.000,30.000 38.000,30.000 38.000,30.000 C38.829,30.000 39.500,30.671 39.500,31.500 C39.500,32.329 38.829,33.000 38.000,33.000 ZM24.000,33.000 C24.000,33.000 17.000,33.000 17.000,33.000 C16.171,33.000 15.500,32.329 15.500,31.500 C15.500,30.671 16.171,30.000 17.000,30.000 C17.000,30.000 24.000,30.000 24.000,30.000 C24.829,30.000 25.500,30.671 25.500,31.500 C25.500,32.329 24.829,33.000 24.000,33.000 Z" id="path-13" class="cls-5" fill-rule="evenodd"/>
    <path d="M10.000,33.000 C10.000,33.000 7.000,33.000 7.000,33.000 C6.171,33.000 5.500,32.329 5.500,31.500 C5.500,30.671 6.171,30.000 7.000,30.000 C7.000,30.000 10.000,30.000 10.000,30.000 C10.829,30.000 11.500,30.671 11.500,31.500 C11.500,32.329 10.829,33.000 10.000,33.000 Z" id="path-14" class="cls-5" fill-rule="evenodd"/>
  </g>
</svg>
