<svg xmlns="http://www.w3.org/2000/svg" xmlns:xlink="http://www.w3.org/1999/xlink" preserveAspectRatio="xMidYMid" width="64" height="64" viewBox="0 0 64 64">
  <defs>
    <style>

      .cls-3 {
        fill: #8b71b5;
      }

      .cls-4 {
        fill: #53ecf4;
      }

      .cls-5 {
        fill: #ff917b;
      }

      .cls-6 {
        fill: #edc951;
      }

      .cls-7 {
        fill: #000000;
      }
    </style>
  </defs>
  <g id="group-30svg">
    <path d="M64.000,60.000 C64.000,62.209 62.209,64.000 60.000,64.000 C60.000,64.000 9.000,64.000 9.000,64.000 C6.791,64.000 5.000,62.209 5.000,60.000 C5.000,60.000 5.000,8.000 5.000,8.000 C5.000,5.791 6.791,4.000 9.000,4.000 C9.000,4.000 60.000,4.000 60.000,4.000 C62.209,4.000 64.000,5.791 64.000,8.000 C64.000,8.000 64.000,60.000 64.000,60.000 Z" id="path-1" class="cls-3" fill-rule="evenodd"/>
    <path d="M54.467,34.324 C54.467,44.790 45.983,53.274 35.517,53.274 C25.051,53.274 16.567,44.790 16.567,34.324 C16.567,23.858 25.051,15.374 35.517,15.374 C45.983,15.374 54.467,23.858 54.467,34.324 Z" id="path-2" class="cls-4" fill-rule="evenodd"/>
    <path d="M48.570,34.324 C48.570,41.533 42.726,47.376 35.517,47.376 C28.309,47.376 22.465,41.533 22.465,34.324 C22.465,27.115 28.309,21.271 35.517,21.271 C42.726,21.271 48.570,27.115 48.570,34.324 Z" id="path-3" class="cls-5" fill-rule="evenodd"/>
    <path d="M41.696,34.324 C41.696,37.736 38.930,40.502 35.517,40.502 C32.104,40.502 29.338,37.736 29.338,34.324 C29.338,30.911 32.104,28.145 35.517,28.145 C38.930,28.145 41.696,30.911 41.696,34.324 Z" id="path-4" class="cls-6" fill-rule="evenodd"/>
    <path d="M56.500,63.000 C56.500,63.000 5.500,63.000 5.500,63.000 C2.467,63.000 -0.000,60.533 -0.000,57.500 C-0.000,57.500 -0.000,5.500 -0.000,5.500 C-0.000,2.467 2.467,-0.000 5.500,-0.000 C5.500,-0.000 56.500,-0.000 56.500,-0.000 C59.533,-0.000 62.000,2.467 62.000,5.500 C62.000,5.500 62.000,57.500 62.000,57.500 C62.000,60.533 59.533,63.000 56.500,63.000 ZM5.500,3.000 C4.122,3.000 3.000,4.122 3.000,5.500 C3.000,5.500 3.000,57.500 3.000,57.500 C3.000,58.878 4.122,60.000 5.500,60.000 C5.500,60.000 56.500,60.000 56.500,60.000 C57.878,60.000 59.000,58.878 59.000,57.500 C59.000,57.500 59.000,5.500 59.000,5.500 C59.000,4.122 57.878,3.000 56.500,3.000 C56.500,3.000 5.500,3.000 5.500,3.000 Z" id="path-5" class="cls-7" fill-rule="evenodd"/>
    <path d="M31.517,40.002 C27.283,40.002 23.838,36.558 23.838,32.324 C23.838,28.090 27.283,24.645 31.517,24.645 C35.751,24.645 39.196,28.090 39.196,32.324 C39.196,36.558 35.751,40.002 31.517,40.002 ZM31.517,27.645 C28.937,27.645 26.838,29.744 26.838,32.324 C26.838,34.904 28.937,37.002 31.517,37.002 C34.097,37.002 36.196,34.904 36.196,32.324 C36.196,29.744 34.097,27.645 31.517,27.645 Z" id="path-6" class="cls-7" fill-rule="evenodd"/>
    <path d="M31.517,46.876 C23.493,46.876 16.964,40.348 16.964,32.324 C16.964,24.299 23.493,17.771 31.517,17.771 C39.541,17.771 46.070,24.299 46.070,32.324 C46.070,40.348 39.541,46.876 31.517,46.876 ZM31.517,20.771 C25.147,20.771 19.964,25.954 19.964,32.324 C19.964,38.694 25.147,43.876 31.517,43.876 C37.887,43.876 43.070,38.694 43.070,32.324 C43.070,25.954 37.887,20.771 31.517,20.771 Z" id="path-7" class="cls-7" fill-rule="evenodd"/>
    <path d="M31.517,52.774 C20.241,52.774 11.067,43.600 11.067,32.324 C11.067,21.047 20.241,11.873 31.517,11.873 C42.793,11.873 51.967,21.047 51.967,32.324 C51.967,43.600 42.793,52.774 31.517,52.774 ZM31.517,14.874 C21.895,14.874 14.067,22.702 14.067,32.324 C14.067,41.946 21.895,49.774 31.517,49.774 C41.139,49.774 48.967,41.946 48.967,32.324 C48.967,22.702 41.139,14.874 31.517,14.874 Z" id="path-8" class="cls-7" fill-rule="evenodd"/>
    <path d="M50.000,34.000 C50.000,34.000 13.000,34.000 13.000,34.000 C12.171,34.000 11.500,33.329 11.500,32.500 C11.500,31.671 12.171,31.000 13.000,31.000 C13.000,31.000 50.000,31.000 50.000,31.000 C50.829,31.000 51.500,31.671 51.500,32.500 C51.500,33.329 50.829,34.000 50.000,34.000 Z" id="path-9" class="cls-7" fill-rule="evenodd"/>
    <path d="M30.500,52.500 C29.671,52.500 29.000,51.829 29.000,51.000 C29.000,51.000 29.000,14.000 29.000,14.000 C29.000,13.171 29.671,12.500 30.500,12.500 C31.329,12.500 32.000,13.171 32.000,14.000 C32.000,14.000 32.000,51.000 32.000,51.000 C32.000,51.829 31.329,52.500 30.500,52.500 Z" id="path-10" class="cls-7" fill-rule="evenodd"/>
    <path d="M56.533,55.929 C56.533,57.072 55.606,57.998 54.463,57.998 C53.321,57.998 52.394,57.072 52.394,55.929 C52.394,54.786 53.321,53.860 54.463,53.860 C55.606,53.860 56.533,54.786 56.533,55.929 Z" id="path-11" class="cls-7" fill-rule="evenodd"/>
    <path d="M50.326,55.929 C50.326,57.072 49.399,57.998 48.257,57.998 C47.114,57.998 46.188,57.072 46.188,55.929 C46.188,54.786 47.114,53.860 48.257,53.860 C49.399,53.860 50.326,54.786 50.326,55.929 Z" id="path-12" class="cls-7" fill-rule="evenodd"/>
    <path d="M43.084,55.929 C43.084,57.072 42.158,57.998 41.015,57.998 C39.873,57.998 38.946,57.072 38.946,55.929 C38.946,54.786 39.873,53.860 41.015,53.860 C42.158,53.860 43.084,54.786 43.084,55.929 Z" id="path-13" class="cls-7" fill-rule="evenodd"/>
    <path d="M14.000,58.000 C14.000,58.000 8.000,58.000 8.000,58.000 C7.171,58.000 6.500,57.329 6.500,56.500 C6.500,55.671 7.171,55.000 8.000,55.000 C8.000,55.000 14.000,55.000 14.000,55.000 C14.829,55.000 15.500,55.671 15.500,56.500 C15.500,57.329 14.829,58.000 14.000,58.000 Z" id="path-14" class="cls-7" fill-rule="evenodd"/>
  </g>
</svg>
