<svg xmlns="http://www.w3.org/2000/svg" xmlns:xlink="http://www.w3.org/1999/xlink" preserveAspectRatio="xMidYMid" width="63" height="63" viewBox="0 0 63 63">
  <defs>
    <style>

      .cls-3 {
        fill: #81bda4;
      }

      .cls-4 {
        fill: #e56a77;
      }

      .cls-5 {
        fill: #000000;
      }
    </style>
  </defs>
  <g id="group-5svg">
    <path d="M58.972,14.375 C58.972,14.375 48.321,14.375 48.321,14.375 C47.448,8.375 41.962,3.009 35.306,3.009 C28.650,3.009 23.164,8.375 22.291,14.375 C22.291,14.375 9.972,14.375 9.972,14.375 C7.771,14.375 6.000,16.437 6.000,18.637 C6.000,18.637 6.000,59.637 6.000,59.637 C6.000,61.846 7.763,63.375 9.972,63.375 C9.972,63.375 58.972,63.375 58.972,63.375 C61.172,63.375 63.000,61.837 63.000,59.637 C63.000,59.637 63.000,18.637 63.000,18.637 C63.000,16.437 61.172,14.375 58.972,14.375 Z" id="path-1" class="cls-3" fill-rule="evenodd"/>
    <path d="M44.756,17.950 C44.756,23.168 40.524,27.399 35.306,27.399 C30.088,27.399 25.856,23.168 25.856,17.950 C25.856,12.731 30.088,8.500 35.306,8.500 C40.524,8.500 44.756,12.731 44.756,17.950 Z" id="path-2" class="cls-4" fill-rule="evenodd"/>
    <path d="M54.972,63.375 C54.972,63.375 5.972,63.375 5.972,63.375 C2.847,63.375 -0.000,60.640 -0.000,57.637 C-0.000,57.637 -0.000,16.637 -0.000,16.637 C-0.000,13.489 3.088,11.375 5.972,11.375 C5.972,11.375 17.055,11.375 17.055,11.375 C18.621,4.907 24.642,0.009 31.306,0.009 C37.970,0.009 43.991,4.907 45.558,11.375 C45.558,11.375 54.972,11.375 54.972,11.375 C57.933,11.375 60.000,13.539 60.000,16.637 C60.000,16.637 60.000,57.637 60.000,57.637 C60.000,60.908 57.838,63.375 54.972,63.375 ZM5.972,14.375 C4.569,14.375 3.000,15.342 3.000,16.637 C3.000,16.637 3.000,57.637 3.000,57.637 C3.000,58.968 4.527,60.375 5.972,60.375 C5.972,60.375 54.972,60.375 54.972,60.375 C56.304,60.375 57.000,58.998 57.000,57.637 C57.000,57.637 57.000,16.637 57.000,16.637 C57.000,15.957 56.803,14.375 54.972,14.375 C54.972,14.375 44.321,14.375 44.321,14.375 C43.576,14.375 42.944,13.828 42.837,13.091 C42.028,7.532 36.855,3.009 31.306,3.009 C25.757,3.009 20.584,7.532 19.775,13.091 C19.668,13.828 19.036,14.375 18.291,14.375 C18.291,14.375 5.972,14.375 5.972,14.375 Z" id="path-3" class="cls-5" fill-rule="evenodd"/>
    <path d="M31.306,26.899 C25.268,26.899 20.356,21.987 20.356,15.950 C20.356,9.912 25.268,5.000 31.306,5.000 C37.344,5.000 42.256,9.912 42.256,15.950 C42.256,21.987 37.344,26.899 31.306,26.899 ZM31.306,8.000 C26.923,8.000 23.356,11.566 23.356,15.950 C23.356,20.333 26.923,23.899 31.306,23.899 C35.689,23.899 39.256,20.333 39.256,15.950 C39.256,11.566 35.689,8.000 31.306,8.000 Z" id="path-4" class="cls-5" fill-rule="evenodd"/>
    <path d="M30.035,17.606 C30.035,17.606 27.407,10.597 27.407,10.597 C27.407,10.597 32.576,16.011 32.576,16.011 C33.160,16.623 33.138,17.592 32.526,18.176 C31.915,18.760 30.945,18.738 30.362,18.126 C30.217,17.974 30.106,17.791 30.035,17.606 Z" id="path-5" class="cls-5" fill-rule="evenodd"/>
  </g>
</svg>
