<svg xmlns="http://www.w3.org/2000/svg" xmlns:xlink="http://www.w3.org/1999/xlink" preserveAspectRatio="xMidYMid" width="65" height="64" viewBox="0 0 65 64">
  <defs>
    <style>

      .cls-3 {
        fill: #53ecf4;
      }

      .cls-5 {
        fill: #e56a77;
      }

      .cls-6 {
        fill: #000000;
      }
    </style>
  </defs>
  <g id="group-16svg">
    <path d="M25.602,16.172 C23.381,15.002 22.528,12.253 23.698,10.032 C24.868,7.811 27.617,6.958 29.838,8.128 C29.838,8.128 29.838,8.128 29.838,8.128 " id="path-1" class="cls-3" fill-rule="evenodd"/>
    <path d="M21.653,13.328 C19.809,12.356 19.101,10.073 20.072,8.228 C21.044,6.383 23.327,5.675 25.172,6.647 C25.172,6.647 25.172,6.647 25.172,6.647 " id="path-2" class="cls-3" fill-rule="evenodd"/>
    <path d="M32.813,27.707 C32.813,27.707 47.261,34.712 47.261,34.712 C47.261,34.712 36.792,52.563 36.792,52.563 C36.792,52.563 33.790,50.911 33.790,50.911 C33.790,50.911 32.012,54.216 32.012,54.216 C32.012,54.216 46.165,62.481 46.165,62.481 C46.165,62.481 63.225,31.576 63.225,31.576 C66.189,26.240 64.146,19.510 58.716,16.723 C58.716,16.723 42.458,8.378 42.458,8.378 C37.333,5.748 31.046,7.602 28.169,12.593 C28.169,12.593 28.168,12.596 28.168,12.596 C25.038,18.026 27.173,24.972 32.813,27.707 Z" id="path-3" class="cls-5" fill-rule="evenodd"/>
    <path d="M43.166,62.981 C42.902,62.981 42.641,62.912 42.409,62.776 C42.409,62.776 28.255,54.512 28.255,54.512 C27.558,54.104 27.308,53.217 27.690,52.506 C27.690,52.506 29.468,49.200 29.468,49.200 C29.658,48.848 29.981,48.585 30.365,48.472 C30.747,48.359 31.161,48.403 31.513,48.597 C31.513,48.597 33.237,49.545 33.237,49.545 C33.237,49.545 42.145,34.354 42.145,34.354 C42.145,34.354 29.159,28.057 29.159,28.057 C26.097,26.572 23.768,23.856 22.768,20.603 C21.768,17.351 22.169,13.794 23.869,10.847 C26.060,7.044 30.146,4.685 34.535,4.685 C36.472,4.685 38.411,5.154 40.144,6.043 C40.144,6.043 56.401,14.389 56.401,14.389 C59.392,15.924 61.577,18.541 62.553,21.758 C63.530,24.975 63.169,28.365 61.536,31.305 C61.536,31.305 44.479,62.206 44.479,62.206 C44.284,62.560 43.954,62.820 43.564,62.927 C43.433,62.963 43.299,62.981 43.166,62.981 ZM31.018,52.651 C31.018,52.651 42.595,59.411 42.595,59.411 C42.595,59.411 58.912,29.851 58.912,29.851 C60.148,27.625 60.421,25.062 59.683,22.629 C58.944,20.197 57.292,18.218 55.031,17.058 C55.031,17.058 38.773,8.712 38.773,8.712 C37.444,8.030 36.018,7.685 34.535,7.685 C31.216,7.685 28.125,9.469 26.469,12.342 C25.164,14.606 24.868,17.227 25.635,19.722 C26.402,22.217 28.119,24.219 30.467,25.357 C30.467,25.357 44.915,32.363 44.915,32.363 C45.291,32.545 45.575,32.876 45.696,33.277 C45.817,33.677 45.766,34.110 45.555,34.471 C45.555,34.471 35.086,52.322 35.086,52.322 C34.675,53.022 33.780,53.269 33.069,52.877 C33.069,52.877 31.393,51.955 31.393,51.955 C31.393,51.955 31.018,52.651 31.018,52.651 Z" id="path-4" class="cls-6" fill-rule="evenodd"/>
    <path d="M22.601,16.672 C22.365,16.672 22.126,16.617 21.903,16.499 C20.475,15.747 19.424,14.483 18.946,12.940 C18.468,11.398 18.619,9.762 19.371,8.333 C20.925,5.384 24.586,4.247 27.538,5.801 C28.270,6.187 28.552,7.094 28.166,7.828 C27.780,8.560 26.874,8.842 26.139,8.456 C24.654,7.673 22.809,8.246 22.025,9.731 C21.243,11.217 21.815,13.062 23.301,13.845 C24.034,14.230 24.315,15.138 23.929,15.871 C23.661,16.381 23.140,16.672 22.601,16.672 Z" id="path-5" class="cls-6" fill-rule="evenodd"/>
    <path d="M18.652,13.828 C18.416,13.828 18.177,13.772 17.954,13.655 C15.381,12.299 14.390,9.103 15.745,6.529 C17.101,3.955 20.300,2.966 22.871,4.320 C23.604,4.706 23.885,5.613 23.499,6.346 C23.113,7.079 22.205,7.361 21.473,6.974 C20.362,6.389 18.984,6.817 18.399,7.927 C17.815,9.037 18.242,10.416 19.352,11.000 C20.085,11.387 20.367,12.294 19.980,13.027 C19.712,13.537 19.191,13.828 18.652,13.828 Z" id="path-6" class="cls-6" fill-rule="evenodd"/>
    <path d="M17.071,8.728 C16.851,8.728 16.626,8.680 16.415,8.576 C16.415,8.576 4.634,2.829 4.634,2.829 C3.889,2.466 3.580,1.568 3.943,0.823 C4.306,0.079 5.204,-0.231 5.949,0.133 C5.949,0.133 17.730,5.880 17.730,5.880 C18.475,6.243 18.784,7.141 18.420,7.886 C18.161,8.418 17.626,8.728 17.071,8.728 Z" id="path-7" class="cls-6" fill-rule="evenodd"/>
    <path d="M38.580,43.908 C38.384,43.908 38.185,43.869 37.993,43.788 C31.703,41.111 28.372,37.981 28.093,34.485 C27.746,30.135 32.275,27.233 32.468,27.112 C33.168,26.670 34.095,26.881 34.536,27.583 C34.977,28.283 34.768,29.207 34.069,29.649 C34.069,29.649 34.069,29.649 34.069,29.649 C33.180,30.216 30.909,32.150 31.084,34.255 C31.269,36.483 34.140,38.888 39.168,41.027 C39.930,41.351 40.285,42.232 39.961,42.995 C39.718,43.565 39.163,43.908 38.580,43.908 Z" id="path-8" class="cls-6" fill-rule="evenodd"/>
    <path d="M46.003,18.255 C45.759,18.255 45.512,18.195 45.283,18.069 C45.283,18.069 35.005,12.423 35.005,12.423 C34.279,12.025 34.014,11.113 34.413,10.387 C34.811,9.661 35.723,9.395 36.449,9.794 C36.449,9.794 46.727,15.440 46.727,15.440 C47.453,15.839 47.718,16.751 47.319,17.477 C47.046,17.974 46.533,18.255 46.003,18.255 Z" id="path-9" class="cls-6" fill-rule="evenodd"/>
    <path d="M42.758,22.809 C42.514,22.809 42.266,22.748 42.037,22.623 C42.037,22.623 31.759,16.977 31.759,16.977 C31.033,16.578 30.768,15.666 31.167,14.940 C31.566,14.213 32.477,13.948 33.204,14.348 C33.204,14.348 43.481,19.994 43.481,19.994 C44.207,20.392 44.473,21.304 44.074,22.030 C43.801,22.527 43.288,22.809 42.758,22.809 Z" id="path-10" class="cls-6" fill-rule="evenodd"/>
    <path d="M39.332,27.361 C39.088,27.361 38.840,27.301 38.611,27.176 C38.611,27.176 28.333,21.530 28.333,21.530 C27.607,21.131 27.342,20.219 27.740,19.493 C28.139,18.767 29.050,18.501 29.777,18.900 C29.777,18.900 40.056,24.546 40.056,24.546 C40.782,24.945 41.047,25.857 40.648,26.583 C40.375,27.080 39.862,27.361 39.332,27.361 Z" id="path-11" class="cls-6" fill-rule="evenodd"/>
    <path d="M28.710,62.610 C25.543,62.610 21.530,61.973 16.690,60.700 C4.572,57.513 2.988,59.133 2.973,59.149 C2.992,59.197 3.131,59.504 3.204,59.604 C3.693,60.273 3.547,61.211 2.878,61.700 C2.207,62.190 1.269,62.042 0.782,61.374 C0.214,60.597 -0.485,58.896 0.499,57.453 C1.605,55.828 4.535,54.399 17.454,57.799 C29.282,60.911 32.748,59.273 33.690,58.425 C34.264,57.908 34.246,57.372 34.245,57.367 C34.118,56.548 34.679,55.782 35.497,55.655 C36.317,55.530 37.082,56.088 37.209,56.907 C37.243,57.122 37.482,59.045 35.699,60.653 C34.252,61.957 31.915,62.610 28.710,62.610 Z" id="path-12" class="cls-6" fill-rule="evenodd"/>
  </g>
</svg>
