<svg xmlns="http://www.w3.org/2000/svg" xmlns:xlink="http://www.w3.org/1999/xlink" preserveAspectRatio="xMidYMid" width="64" height="55" viewBox="0 0 64 55">
  <defs>
    <style>

      .cls-3 {
        fill: #8b71b5;
      }

      .cls-4 {
        fill: #99746a;
      }

      .cls-5 {
        fill: #e56a77;
      }

      .cls-6 {
        fill: #000000;
      }
    </style>
  </defs>
  <g id="group-12svg">
    <path d="M62.000,6.139 C62.000,6.139 62.000,12.308 62.000,12.308 C62.000,13.413 61.339,14.000 60.234,14.000 C60.234,14.000 31.726,14.000 31.726,14.000 C30.603,14.000 30.000,15.219 30.000,16.342 C30.000,16.342 30.000,46.851 30.000,46.851 C30.000,47.974 30.603,49.000 31.726,49.000 C31.726,49.000 60.234,49.000 60.234,49.000 C61.339,49.000 62.000,49.780 62.000,50.884 C62.000,50.884 62.000,52.986 62.000,52.986 C62.000,54.091 61.339,55.000 60.234,55.000 C60.234,55.000 7.285,55.000 7.285,55.000 C6.180,55.000 5.000,54.091 5.000,52.986 C5.000,52.986 5.000,51.901 5.000,51.901 C5.000,50.797 6.180,50.000 7.285,50.000 C7.285,50.000 12.404,50.000 12.404,50.000 C13.527,50.000 15.748,43.768 15.748,43.768 C16.880,40.181 16.880,36.551 15.748,32.963 C15.748,32.963 13.527,27.000 12.404,27.000 C12.404,27.000 9.000,27.000 9.000,27.000 C9.000,27.000 9.000,6.139 9.000,6.139 C9.000,5.034 10.248,4.000 11.353,4.000 C11.353,4.000 60.234,4.000 60.234,4.000 C61.339,4.000 62.000,5.034 62.000,6.139 Z" id="path-1" class="cls-3" fill-rule="evenodd"/>
    <path d="M52.564,44.000 C52.564,44.000 45.048,44.000 45.048,44.000 C40.077,44.000 36.000,40.279 36.000,35.308 C36.000,35.308 36.000,25.000 36.000,25.000 C36.000,25.000 62.000,25.000 62.000,25.000 C62.000,25.000 62.000,35.308 62.000,35.308 C62.000,40.279 57.534,44.000 52.564,44.000 Z" id="path-2" class="cls-4" fill-rule="evenodd"/>
    <path d="M46.992,19.000 C46.992,19.000 50.619,19.000 50.619,19.000 C51.724,19.000 53.000,18.243 53.000,17.139 C53.000,17.139 53.000,14.000 53.000,14.000 C53.000,14.000 45.000,14.000 45.000,14.000 C45.000,14.000 45.000,17.139 45.000,17.139 C45.000,18.243 45.888,19.000 46.992,19.000 Z" id="path-3" class="cls-5" fill-rule="evenodd"/>
    <path d="M56.234,53.000 C56.234,53.000 3.285,53.000 3.285,53.000 C0.863,53.000 -0.000,51.443 -0.000,49.986 C-0.000,49.986 -0.000,48.901 -0.000,48.901 C-0.000,47.025 1.256,45.000 3.285,45.000 C3.285,45.000 7.974,45.000 7.974,45.000 C8.517,44.293 9.555,42.115 10.341,39.996 C11.353,36.787 11.352,33.319 10.317,30.040 C9.548,27.936 8.510,25.721 7.965,25.000 C7.965,25.000 5.500,25.000 5.500,25.000 C4.671,25.000 4.000,24.329 4.000,23.500 C4.000,23.500 4.000,3.139 4.000,3.139 C4.000,1.261 5.347,-0.000 7.353,-0.000 C7.353,-0.000 56.234,-0.000 56.234,-0.000 C58.416,-0.000 60.000,1.320 60.000,3.139 C60.000,3.139 60.000,9.308 60.000,9.308 C60.000,11.206 58.170,13.000 56.234,13.000 C56.234,13.000 27.726,13.000 27.726,13.000 C27.325,13.000 27.000,13.207 27.000,13.342 C27.000,13.342 27.000,43.851 27.000,43.851 C27.021,43.863 27.283,44.000 27.726,44.000 C27.726,44.000 56.234,44.000 56.234,44.000 C58.135,44.000 60.000,45.924 60.000,47.884 C60.000,47.884 60.000,49.986 60.000,49.986 C60.000,51.789 58.487,53.000 56.234,53.000 ZM3.000,49.982 C3.066,49.992 3.159,50.000 3.285,50.000 C3.285,50.000 56.234,50.000 56.234,50.000 C56.610,50.000 56.872,49.931 57.000,49.874 C57.000,49.874 57.000,47.884 57.000,47.884 C57.000,47.566 56.483,47.018 56.232,47.000 C56.232,47.000 27.726,47.000 27.726,47.000 C25.567,47.000 24.000,45.675 24.000,43.851 C24.000,43.851 24.000,13.342 24.000,13.342 C24.000,11.468 25.637,10.000 27.726,10.000 C27.726,10.000 56.234,10.000 56.234,10.000 C56.542,10.000 57.000,9.546 57.000,9.308 C57.000,9.308 57.000,3.139 57.000,3.139 C57.000,3.139 56.999,3.139 56.999,3.139 C56.964,3.139 56.659,3.000 56.234,3.000 C56.234,3.000 7.353,3.000 7.353,3.000 C7.171,3.000 7.057,3.026 7.002,3.046 C7.003,3.062 7.000,3.094 7.000,3.139 C7.000,3.139 7.000,22.000 7.000,22.000 C7.000,22.000 8.404,22.000 8.404,22.000 C9.163,22.000 10.576,22.000 13.157,29.074 C14.400,33.007 14.400,37.099 13.178,40.970 C10.570,48.000 9.161,48.000 8.404,48.000 C8.404,48.000 3.285,48.000 3.285,48.000 C3.223,48.056 3.000,48.456 3.000,48.901 C3.000,48.901 3.000,49.982 3.000,49.982 Z" id="path-4" class="cls-6" fill-rule="evenodd"/>
    <path d="M48.564,43.000 C48.564,43.000 41.048,43.000 41.048,43.000 C35.414,43.000 31.000,38.304 31.000,32.308 C31.000,32.308 31.000,21.500 31.000,21.500 C31.000,20.671 31.671,20.000 32.500,20.000 C32.500,20.000 57.500,20.000 57.500,20.000 C58.329,20.000 59.000,20.671 59.000,21.500 C59.000,21.500 59.000,32.308 59.000,32.308 C59.000,38.204 54.318,43.000 48.564,43.000 ZM34.000,23.000 C34.000,23.000 34.000,32.308 34.000,32.308 C34.000,36.621 37.096,40.000 41.048,40.000 C41.048,40.000 48.564,40.000 48.564,40.000 C52.664,40.000 56.000,36.549 56.000,32.308 C56.000,32.308 56.000,23.000 56.000,23.000 C56.000,23.000 34.000,23.000 34.000,23.000 Z" id="path-5" class="cls-6" fill-rule="evenodd"/>
    <path d="M62.500,36.500 C61.671,36.500 61.000,35.829 61.000,35.000 C61.000,35.000 61.000,27.000 61.000,27.000 C61.000,27.000 59.000,27.000 59.000,27.000 C58.171,27.000 57.500,26.329 57.500,25.500 C57.500,24.671 58.171,24.000 59.000,24.000 C59.000,24.000 62.500,24.000 62.500,24.000 C63.329,24.000 64.000,24.671 64.000,25.500 C64.000,25.500 64.000,35.000 64.000,35.000 C64.000,35.829 63.329,36.500 62.500,36.500 Z" id="path-6" class="cls-6" fill-rule="evenodd"/>
    <path d="M44.500,22.500 C43.671,22.500 43.000,21.829 43.000,21.000 C43.000,21.000 43.000,17.000 43.000,17.000 C43.000,16.171 43.671,15.500 44.500,15.500 C45.329,15.500 46.000,16.171 46.000,17.000 C46.000,17.000 46.000,21.000 46.000,21.000 C46.000,21.829 45.329,22.500 44.500,22.500 Z" id="path-7" class="cls-6" fill-rule="evenodd"/>
    <path d="M46.619,18.000 C46.619,18.000 42.992,18.000 42.992,18.000 C41.015,18.000 39.000,16.051 39.000,14.139 C39.000,14.139 39.000,11.500 39.000,11.500 C39.000,10.671 39.671,10.000 40.500,10.000 C40.500,10.000 48.500,10.000 48.500,10.000 C49.329,10.000 50.000,10.671 50.000,11.500 C50.000,11.500 50.000,14.139 50.000,14.139 C50.000,16.003 48.642,18.000 46.619,18.000 ZM42.000,13.000 C42.000,13.000 42.000,14.139 42.000,14.139 C42.040,14.428 42.681,14.992 42.993,15.000 C42.993,15.000 46.608,15.000 46.608,15.000 C46.743,14.941 47.000,14.541 47.000,14.139 C47.000,14.139 47.000,13.000 47.000,13.000 C47.000,13.000 42.000,13.000 42.000,13.000 Z" id="path-8" class="cls-6" fill-rule="evenodd"/>
  </g>
</svg>
