<svg xmlns="http://www.w3.org/2000/svg" xmlns:xlink="http://www.w3.org/1999/xlink" preserveAspectRatio="xMidYMid" width="64" height="57" viewBox="0 0 64 57">
  <defs>
    <style>

      .cls-3 {
        fill: #81bda4;
      }

      .cls-4 {
        fill: #e56a77;
      }

      .cls-5 {
        fill: #edc951;
      }

      .cls-6 {
        fill: #000000;
      }
    </style>
  </defs>
  <g id="group-22svg">
    <path d="M13.809,57.000 C13.809,57.000 56.467,57.000 56.467,57.000 C57.749,57.000 58.749,55.931 58.612,54.655 C58.612,54.655 55.838,24.814 55.838,24.814 C55.721,23.718 54.796,23.000 53.693,23.000 C53.693,23.000 16.582,23.000 16.582,23.000 C15.479,23.000 14.555,23.739 14.436,24.835 C14.436,24.835 11.663,54.702 11.663,54.702 C11.526,55.977 12.525,57.000 13.809,57.000 Z" id="path-1" class="cls-3" fill-rule="evenodd"/>
    <path d="M64.000,12.000 C64.000,13.104 63.104,14.000 62.000,14.000 C62.000,14.000 6.000,14.000 6.000,14.000 C4.895,14.000 4.000,13.104 4.000,12.000 C4.000,12.000 4.000,6.000 4.000,6.000 C4.000,4.895 4.895,4.000 6.000,4.000 C6.000,4.000 62.000,4.000 62.000,4.000 C63.104,4.000 64.000,4.895 64.000,6.000 C64.000,6.000 64.000,12.000 64.000,12.000 Z" id="path-2" class="cls-4" fill-rule="evenodd"/>
    <path d="M43.233,37.723 C43.233,42.194 39.608,45.818 35.138,45.818 C30.666,45.818 27.042,42.194 27.042,37.723 C27.042,33.252 30.666,29.627 35.138,29.627 C39.608,29.627 43.233,33.252 43.233,37.723 Z" id="path-3" class="cls-5" fill-rule="evenodd"/>
    <path d="M53.467,56.000 C53.467,56.000 10.808,56.000 10.808,56.000 C9.707,56.000 8.685,55.564 8.003,54.806 C7.361,54.091 7.065,53.154 7.172,52.166 C7.172,52.166 9.943,22.446 9.943,22.446 C10.150,20.505 11.748,19.000 13.582,19.000 C13.582,19.000 50.693,19.000 50.693,19.000 C52.566,19.000 54.130,20.410 54.329,22.279 C54.329,22.279 57.105,52.267 57.105,52.267 C57.207,53.213 56.923,54.126 56.302,54.817 C55.627,55.569 54.593,56.000 53.467,56.000 ZM13.582,22.000 C13.298,22.000 12.968,22.375 12.928,22.745 C12.928,22.745 10.156,52.466 10.156,52.466 C10.136,52.665 10.187,52.748 10.234,52.801 C10.347,52.925 10.560,53.000 10.808,53.000 C10.808,53.000 53.467,53.000 53.467,53.000 C53.788,53.000 53.992,52.899 54.070,52.812 C54.091,52.789 54.139,52.736 54.121,52.565 C54.121,52.565 51.345,22.577 51.345,22.577 C51.311,22.263 51.023,22.000 50.693,22.000 C50.693,22.000 13.582,22.000 13.582,22.000 Z" id="path-4" class="cls-6" fill-rule="evenodd"/>
    <path d="M38.500,22.000 C38.500,22.000 25.500,22.000 25.500,22.000 C24.672,22.000 24.000,21.329 24.000,20.500 C24.000,20.500 24.000,11.500 24.000,11.500 C24.000,10.671 24.672,10.000 25.500,10.000 C25.500,10.000 38.500,10.000 38.500,10.000 C39.328,10.000 40.000,10.671 40.000,11.500 C40.000,11.500 40.000,20.500 40.000,20.500 C40.000,21.329 39.328,22.000 38.500,22.000 ZM27.000,19.000 C27.000,19.000 37.000,19.000 37.000,19.000 C37.000,19.000 37.000,13.000 37.000,13.000 C37.000,13.000 27.000,13.000 27.000,13.000 C27.000,13.000 27.000,19.000 27.000,19.000 Z" id="path-5" class="cls-6" fill-rule="evenodd"/>
    <path d="M59.500,13.000 C59.500,13.000 3.500,13.000 3.500,13.000 C1.570,13.000 -0.000,11.430 -0.000,9.500 C-0.000,9.500 -0.000,3.500 -0.000,3.500 C-0.000,1.570 1.570,-0.000 3.500,-0.000 C3.500,-0.000 59.500,-0.000 59.500,-0.000 C61.430,-0.000 63.000,1.570 63.000,3.500 C63.000,3.500 63.000,9.500 63.000,9.500 C63.000,11.430 61.430,13.000 59.500,13.000 ZM3.500,3.000 C3.225,3.000 3.000,3.224 3.000,3.500 C3.000,3.500 3.000,9.500 3.000,9.500 C3.000,9.776 3.225,10.000 3.500,10.000 C3.500,10.000 59.500,10.000 59.500,10.000 C59.775,10.000 60.000,9.776 60.000,9.500 C60.000,9.500 60.000,3.500 60.000,3.500 C60.000,3.224 59.775,3.000 59.500,3.000 C59.500,3.000 3.500,3.000 3.500,3.000 Z" id="path-6" class="cls-6" fill-rule="evenodd"/>
    <path d="M32.138,45.318 C26.847,45.318 22.542,41.014 22.542,35.723 C22.542,30.432 26.847,26.127 32.138,26.127 C37.429,26.127 41.733,30.432 41.733,35.723 C41.733,41.014 37.429,45.318 32.138,45.318 ZM32.138,29.127 C28.501,29.127 25.542,32.086 25.542,35.723 C25.542,39.360 28.501,42.318 32.138,42.318 C35.774,42.318 38.733,39.360 38.733,35.723 C38.733,32.086 35.774,29.127 32.138,29.127 Z" id="path-7" class="cls-6" fill-rule="evenodd"/>
    <path d="M31.278,37.553 C31.278,37.553 28.431,32.331 28.431,32.331 C28.431,32.331 33.465,35.499 33.465,35.499 C34.189,35.955 34.407,36.912 33.951,37.636 C33.495,38.361 32.538,38.579 31.813,38.123 C31.583,37.978 31.400,37.776 31.278,37.553 Z" id="path-8" class="cls-6" fill-rule="evenodd"/>
  </g>
</svg>
