<svg xmlns="http://www.w3.org/2000/svg" xmlns:xlink="http://www.w3.org/1999/xlink" preserveAspectRatio="xMidYMid" width="61" height="64" viewBox="0 0 61 64">
  <defs>
    <style>

      .cls-3 {
        fill: #edc951;
      }

      .cls-4 {
        fill: #53ecf4;
      }

      .cls-5 {
        fill: #000000;
      }
    </style>
  </defs>
  <g id="group-18svg">
    <path d="M51.969,49.000 C51.969,51.209 50.178,53.000 47.969,53.000 C47.969,53.000 17.969,53.000 17.969,53.000 C15.760,53.000 13.969,51.209 13.969,49.000 C13.969,49.000 13.969,8.000 13.969,8.000 C13.969,5.791 15.760,4.000 17.969,4.000 C17.969,4.000 47.969,4.000 47.969,4.000 C50.178,4.000 51.969,5.791 51.969,8.000 C51.969,8.000 51.969,49.000 51.969,49.000 Z" id="path-1" class="cls-3" fill-rule="evenodd"/>
    <path d="M40.345,42.155 C40.345,45.291 37.803,47.832 34.668,47.832 C31.532,47.832 28.991,45.291 28.991,42.155 C28.991,39.020 31.532,36.478 34.668,36.478 C37.803,36.478 40.345,39.020 40.345,42.155 Z" id="path-2" class="cls-4" fill-rule="evenodd"/>
    <path d="M44.469,52.000 C44.469,52.000 14.469,52.000 14.469,52.000 C11.437,52.000 8.969,49.533 8.969,46.500 C8.969,46.500 8.969,5.500 8.969,5.500 C8.969,2.467 11.437,-0.000 14.469,-0.000 C14.469,-0.000 44.469,-0.000 44.469,-0.000 C47.501,-0.000 49.969,2.467 49.969,5.500 C49.969,5.500 49.969,46.500 49.969,46.500 C49.969,49.533 47.501,52.000 44.469,52.000 ZM14.469,3.000 C13.090,3.000 11.969,4.122 11.969,5.500 C11.969,5.500 11.969,46.500 11.969,46.500 C11.969,47.878 13.090,49.000 14.469,49.000 C14.469,49.000 44.469,49.000 44.469,49.000 C45.848,49.000 46.969,47.878 46.969,46.500 C46.969,46.500 46.969,5.500 46.969,5.500 C46.969,4.122 45.848,3.000 44.469,3.000 C44.469,3.000 14.469,3.000 14.469,3.000 Z" id="path-3" class="cls-5" fill-rule="evenodd"/>
    <path d="M41.969,54.000 C41.969,54.552 41.521,55.000 40.969,55.000 C40.969,55.000 34.969,55.000 34.969,55.000 C34.416,55.000 33.969,54.552 33.969,54.000 C33.969,54.000 33.969,52.000 33.969,52.000 C33.969,51.448 34.416,51.000 34.969,51.000 C34.969,51.000 40.969,51.000 40.969,51.000 C41.521,51.000 41.969,51.448 41.969,52.000 C41.969,52.000 41.969,54.000 41.969,54.000 Z" id="path-4" class="cls-5" fill-rule="evenodd"/>
    <path d="M45.562,63.904 C43.012,63.904 40.979,63.223 39.494,61.864 C36.559,59.179 37.060,54.957 37.082,54.778 C37.187,53.956 37.935,53.370 38.760,53.480 C39.580,53.585 40.160,54.332 40.060,55.151 C40.053,55.205 39.750,58.049 41.533,59.663 C42.965,60.961 45.562,61.244 49.041,60.481 C58.449,58.418 59.913,59.352 60.602,60.487 C61.112,61.326 60.862,62.276 60.388,62.845 C59.856,63.481 58.912,63.568 58.275,63.038 C58.026,62.830 57.861,62.559 57.784,62.267 C56.886,62.211 54.699,62.312 49.684,63.412 C48.187,63.740 46.812,63.904 45.562,63.904 Z" id="path-5" class="cls-5" fill-rule="evenodd"/>
    <path d="M25.969,52.000 C25.969,51.448 25.521,51.000 24.969,51.000 C24.969,51.000 18.969,51.000 18.969,51.000 C18.416,51.000 17.969,51.448 17.969,52.000 C17.969,52.000 17.969,54.000 17.969,54.000 C17.969,54.552 18.416,55.000 18.969,55.000 C18.969,55.000 24.969,55.000 24.969,55.000 C25.521,55.000 25.969,54.552 25.969,54.000 C25.969,54.000 25.969,52.000 25.969,52.000 Z" id="path-6" class="cls-5" fill-rule="evenodd"/>
    <path d="M15.319,63.904 C14.068,63.904 12.693,63.740 11.197,63.412 C6.187,62.312 4.002,62.208 3.098,62.267 C3.020,62.559 2.856,62.830 2.606,63.038 C1.971,63.567 1.025,63.482 0.494,62.846 C0.019,62.276 -0.230,61.326 0.279,60.487 C0.969,59.352 2.428,58.417 11.840,60.481 C15.319,61.245 17.915,60.962 19.349,59.663 C21.140,58.042 20.826,55.180 20.822,55.151 C20.727,54.331 21.310,53.583 22.130,53.483 C22.947,53.378 23.694,53.960 23.800,54.778 C23.822,54.957 24.323,59.179 21.388,61.864 C19.902,63.222 17.870,63.904 15.319,63.904 Z" id="path-7" class="cls-5" fill-rule="evenodd"/>
    <path d="M30.668,47.332 C26.711,47.332 23.491,44.113 23.491,40.155 C23.491,36.198 26.711,32.978 30.668,32.978 C34.625,32.978 37.845,36.198 37.845,40.155 C37.845,44.113 34.625,47.332 30.668,47.332 ZM30.668,35.978 C28.365,35.978 26.491,37.852 26.491,40.155 C26.491,42.458 28.365,44.332 30.668,44.332 C32.971,44.332 34.845,42.458 34.845,40.155 C34.845,37.852 32.971,35.978 30.668,35.978 Z" id="path-8" class="cls-5" fill-rule="evenodd"/>
    <path d="M30.469,38.500 C29.641,38.500 28.969,37.829 28.969,37.000 C28.969,37.000 28.969,34.000 28.969,34.000 C28.969,33.171 29.641,32.500 30.469,32.500 C31.297,32.500 31.969,33.171 31.969,34.000 C31.969,34.000 31.969,37.000 31.969,37.000 C31.969,37.829 31.297,38.500 30.469,38.500 Z" id="path-9" class="cls-5" fill-rule="evenodd"/>
    <path d="M33.969,11.000 C33.969,11.000 25.969,11.000 25.969,11.000 C25.141,11.000 24.469,10.329 24.469,9.500 C24.469,8.671 25.141,8.000 25.969,8.000 C25.969,8.000 33.969,8.000 33.969,8.000 C34.797,8.000 35.469,8.671 35.469,9.500 C35.469,10.329 34.797,11.000 33.969,11.000 Z" id="path-10" class="cls-5" fill-rule="evenodd"/>
  </g>
</svg>
