<svg xmlns="http://www.w3.org/2000/svg" xmlns:xlink="http://www.w3.org/1999/xlink" preserveAspectRatio="xMidYMid" width="65" height="61" viewBox="0 0 65 61">
  <defs>
    <style>

      .cls-3 {
        fill: #53ecf4;
      }

      .cls-4 {
        fill: #ffffff;
      }

      .cls-5 {
        fill: #ff917b;
      }

      .cls-8 {
        fill: #000000;
      }
    </style>
  </defs>
  <g id="group-7svg">
    <path d="M53.000,57.000 C53.000,59.209 51.209,61.000 49.000,61.000 C49.000,61.000 17.000,61.000 17.000,61.000 C14.791,61.000 13.000,59.209 13.000,57.000 C13.000,57.000 13.000,15.000 13.000,15.000 C13.000,12.791 14.791,11.000 17.000,11.000 C17.000,11.000 49.000,11.000 49.000,11.000 C51.209,11.000 53.000,12.791 53.000,15.000 C53.000,15.000 53.000,57.000 53.000,57.000 Z" id="path-1" class="cls-3" fill-rule="evenodd"/>
    <path d="M40.000,46.514 C40.000,48.439 38.439,50.000 36.514,50.000 C36.514,50.000 33.486,50.000 33.486,50.000 C31.561,50.000 30.000,48.439 30.000,46.514 C30.000,46.514 30.000,26.486 30.000,26.486 C30.000,24.560 31.561,23.000 33.486,23.000 C33.486,23.000 36.514,23.000 36.514,23.000 C38.439,23.000 40.000,24.560 40.000,26.486 C40.000,26.486 40.000,46.514 40.000,46.514 Z" id="path-2" class="cls-4" fill-rule="evenodd"/>
    <path d="M42.000,11.000 C42.000,11.000 26.000,11.000 26.000,11.000 C26.000,11.000 26.000,7.826 26.000,7.826 C26.000,5.616 28.114,4.000 30.323,4.000 C30.323,4.000 38.468,4.000 38.468,4.000 C40.668,4.000 42.000,5.625 42.000,7.826 C42.000,7.826 42.000,11.000 42.000,11.000 Z" id="path-3" class="cls-5" fill-rule="evenodd"/>
    <path d="M53.205,19.000 C53.205,19.000 61.762,19.000 61.762,19.000 C64.319,19.000 65.831,21.651 64.391,23.763 C64.391,23.763 53.268,40.172 53.268,40.172 C53.268,40.172 53.205,19.000 53.205,19.000 Z" id="path-4" class="cls-5" fill-rule="evenodd"/>
    <path d="M13.000,21.000 C13.000,21.000 9.179,21.000 9.179,21.000 C7.402,21.000 5.000,21.347 5.000,23.123 C5.000,23.123 5.000,32.810 5.000,32.810 C5.000,34.593 7.395,37.000 9.179,37.000 C9.179,37.000 13.000,37.000 13.000,37.000 C13.000,37.000 13.000,21.000 13.000,21.000 Z" id="path-5" class="cls-5" fill-rule="evenodd"/>
    <path d="M45.500,60.000 C45.500,60.000 13.500,60.000 13.500,60.000 C10.467,60.000 8.000,57.533 8.000,54.500 C8.000,54.500 8.000,12.500 8.000,12.500 C8.000,9.467 10.467,7.000 13.500,7.000 C13.500,7.000 45.500,7.000 45.500,7.000 C48.533,7.000 51.000,9.467 51.000,12.500 C51.000,12.500 51.000,54.500 51.000,54.500 C51.000,57.533 48.533,60.000 45.500,60.000 ZM13.500,10.000 C12.122,10.000 11.000,11.122 11.000,12.500 C11.000,12.500 11.000,54.500 11.000,54.500 C11.000,55.878 12.122,57.000 13.500,57.000 C13.500,57.000 45.500,57.000 45.500,57.000 C46.878,57.000 48.000,55.878 48.000,54.500 C48.000,54.500 48.000,12.500 48.000,12.500 C48.000,11.122 46.878,10.000 45.500,10.000 C45.500,10.000 13.500,10.000 13.500,10.000 Z" id="path-6" class="cls-8" fill-rule="evenodd"/>
    <path d="M38.500,10.000 C38.500,10.000 22.500,10.000 22.500,10.000 C21.671,10.000 21.000,9.329 21.000,8.500 C21.000,8.500 21.000,5.826 21.000,5.826 C21.000,2.613 23.388,-0.000 26.323,-0.000 C26.323,-0.000 34.468,-0.000 34.468,-0.000 C37.415,-0.000 40.000,2.722 40.000,5.826 C40.000,5.826 40.000,8.500 40.000,8.500 C40.000,9.329 39.329,10.000 38.500,10.000 ZM24.000,7.000 C24.000,7.000 37.000,7.000 37.000,7.000 C37.000,7.000 37.000,5.826 37.000,5.826 C37.000,4.373 35.769,3.000 34.468,3.000 C34.468,3.000 26.323,3.000 26.323,3.000 C24.954,3.000 24.000,4.489 24.000,5.826 C24.000,5.826 24.000,7.000 24.000,7.000 Z" id="path-7" class="cls-8" fill-rule="evenodd"/>
    <path d="M50.268,39.297 C50.118,39.297 49.967,39.274 49.819,39.228 C49.188,39.030 48.762,38.443 48.768,37.783 C48.768,37.783 48.967,16.486 48.967,16.486 C48.975,15.663 49.645,15.000 50.467,15.000 C50.467,15.000 58.762,15.000 58.762,15.000 C60.497,15.000 62.080,15.959 62.895,17.502 C63.716,19.055 63.614,20.916 62.630,22.358 C62.630,22.358 51.507,38.643 51.507,38.643 C51.222,39.060 50.754,39.297 50.268,39.297 ZM51.953,18.000 C51.953,18.000 51.814,32.874 51.814,32.874 C51.814,32.874 60.152,20.667 60.152,20.667 C60.513,20.138 60.547,19.479 60.243,18.904 C59.944,18.338 59.391,18.000 58.762,18.000 C58.762,18.000 51.953,18.000 51.953,18.000 Z" id="path-8" class="cls-8" fill-rule="evenodd"/>
    <path d="M9.500,36.000 C9.500,36.000 5.178,36.000 5.178,36.000 C2.565,36.000 -0.000,33.429 -0.000,30.810 C-0.000,30.810 -0.000,21.123 -0.000,21.123 C-0.000,18.734 2.178,17.000 5.178,17.000 C5.178,17.000 9.500,17.000 9.500,17.000 C10.329,17.000 11.000,17.671 11.000,18.500 C11.000,18.500 11.000,34.500 11.000,34.500 C11.000,35.329 10.329,36.000 9.500,36.000 ZM5.178,20.000 C4.274,20.000 3.000,20.349 3.000,21.123 C3.000,21.123 3.000,30.810 3.000,30.810 C3.000,31.772 4.221,33.000 5.178,33.000 C5.178,33.000 8.000,33.000 8.000,33.000 C8.000,33.000 8.000,20.000 8.000,20.000 C8.000,20.000 5.178,20.000 5.178,20.000 Z" id="path-9" class="cls-8" fill-rule="evenodd"/>
    <path d="M33.014,49.000 C33.014,49.000 29.986,49.000 29.986,49.000 C27.237,49.000 25.000,46.763 25.000,44.014 C25.000,44.014 25.000,23.986 25.000,23.986 C25.000,21.237 27.237,19.000 29.986,19.000 C29.986,19.000 33.014,19.000 33.014,19.000 C35.763,19.000 38.000,21.237 38.000,23.986 C38.000,23.986 38.000,44.014 38.000,44.014 C38.000,46.763 35.763,49.000 33.014,49.000 ZM29.986,22.000 C28.891,22.000 28.000,22.891 28.000,23.986 C28.000,23.986 28.000,44.014 28.000,44.014 C28.000,45.109 28.891,46.000 29.986,46.000 C29.986,46.000 33.014,46.000 33.014,46.000 C34.109,46.000 35.000,45.109 35.000,44.014 C35.000,44.014 35.000,23.986 35.000,23.986 C35.000,22.891 34.109,22.000 33.014,22.000 C33.014,22.000 29.986,22.000 29.986,22.000 Z" id="path-10" class="cls-8" fill-rule="evenodd"/>
    <path d="M35.000,30.000 C35.000,30.000 32.000,30.000 32.000,30.000 C31.171,30.000 30.500,29.329 30.500,28.500 C30.500,27.671 31.171,27.000 32.000,27.000 C32.000,27.000 35.000,27.000 35.000,27.000 C35.829,27.000 36.500,27.671 36.500,28.500 C36.500,29.329 35.829,30.000 35.000,30.000 Z" id="path-11" class="cls-8" fill-rule="evenodd"/>
    <path d="M35.000,36.000 C35.000,36.000 32.000,36.000 32.000,36.000 C31.171,36.000 30.500,35.329 30.500,34.500 C30.500,33.671 31.171,33.000 32.000,33.000 C32.000,33.000 35.000,33.000 35.000,33.000 C35.829,33.000 36.500,33.671 36.500,34.500 C36.500,35.329 35.829,36.000 35.000,36.000 Z" id="path-12" class="cls-8" fill-rule="evenodd"/>
    <path d="M35.000,41.000 C35.000,41.000 32.000,41.000 32.000,41.000 C31.171,41.000 30.500,40.329 30.500,39.500 C30.500,38.671 31.171,38.000 32.000,38.000 C32.000,38.000 35.000,38.000 35.000,38.000 C35.829,38.000 36.500,38.671 36.500,39.500 C36.500,40.329 35.829,41.000 35.000,41.000 Z" id="path-13" class="cls-8" fill-rule="evenodd"/>
  </g>
</svg>
