<svg xmlns="http://www.w3.org/2000/svg" xmlns:xlink="http://www.w3.org/1999/xlink" preserveAspectRatio="xMidYMid" width="63" height="47" viewBox="0 0 63 47">
  <defs>
    <style>

      .cls-3 {
        fill: #e56a77;
      }

      .cls-4 {
        fill: #53ecf4;
      }

      .cls-6 {
        fill: #ff917b;
      }

      .cls-7 {
        fill: #edc951;
      }

      .cls-8 {
        fill: #000000;
      }
    </style>
  </defs>
  <g id="group-25svg">
    <path d="M10.427,36.691 C7.633,35.706 5.000,33.140 5.000,30.008 C5.000,30.008 5.000,18.297 5.000,18.297 C5.000,13.175 11.002,9.697 15.734,11.658 C15.734,11.658 43.769,23.360 43.769,23.360 C46.453,24.473 48.000,27.093 48.000,29.999 C48.000,29.999 48.000,30.008 48.000,30.008 C48.000,33.977 45.985,37.000 42.018,37.000 C42.018,37.000 32.000,37.000 32.000,37.000 C32.000,37.000 32.000,37.000 32.000,37.000 " id="path-1" class="cls-3" fill-rule="evenodd"/>
    <path d="M44.000,23.465 C44.000,23.465 44.000,19.888 44.000,19.888 C44.000,18.341 43.744,16.926 42.360,16.234 C42.360,16.234 37.620,13.528 37.620,13.528 C34.904,12.169 31.999,14.000 31.999,17.000 C31.999,17.000 31.937,17.000 31.937,17.000 C31.937,17.000 44.000,23.465 44.000,23.465 Z" id="path-2" class="cls-4" fill-rule="evenodd"/>
    <path d="M61.000,41.500 C61.000,42.881 59.881,44.000 58.500,44.000 C58.500,44.000 50.500,44.000 50.500,44.000 C49.119,44.000 48.000,42.881 48.000,41.500 C48.000,41.500 48.000,41.500 48.000,41.500 C48.000,40.119 49.119,39.000 50.500,39.000 C50.500,39.000 58.500,39.000 58.500,39.000 C59.881,39.000 61.000,40.119 61.000,41.500 C61.000,41.500 61.000,41.500 61.000,41.500 Z" id="path-3" class="cls-4" fill-rule="evenodd"/>
    <path d="M18.018,25.177 C12.494,25.177 8.018,29.654 8.018,35.177 C8.018,40.700 12.494,45.177 18.018,45.177 C23.540,45.177 28.018,40.700 28.018,35.177 C28.018,29.654 23.540,25.177 18.018,25.177 ZM18.018,40.753 C14.937,40.753 12.440,38.257 12.440,35.177 C12.440,32.098 14.937,29.601 18.018,29.601 C21.097,29.601 23.594,32.098 23.594,35.177 C23.594,38.257 21.097,40.753 18.018,40.753 Z" id="path-4" class="cls-6" fill-rule="evenodd"/>
    <path d="M18.018,25.177 C12.494,25.177 8.018,29.654 8.018,35.177 C8.018,40.700 12.494,45.177 18.018,45.177 C23.540,45.177 28.018,40.700 28.018,35.177 C28.018,29.654 23.540,25.177 18.018,25.177 ZM18.018,40.753 C14.937,40.753 12.440,38.257 12.440,35.177 C12.440,32.098 14.937,29.601 18.018,29.601 C21.097,29.601 23.594,32.098 23.594,35.177 C23.594,38.257 21.097,40.753 18.018,40.753 Z" id="path-5" class="cls-7" fill-rule="evenodd"/>
    <path d="M38.017,37.000 C38.017,37.000 28.000,37.000 28.000,37.000 C27.172,37.000 26.500,36.329 26.500,35.500 C26.500,34.671 27.172,34.000 28.000,34.000 C28.000,34.000 38.017,34.000 38.017,34.000 C41.137,34.000 43.000,32.134 43.000,29.008 C43.000,26.671 41.653,24.609 39.569,23.746 C39.569,23.746 11.409,12.043 11.409,12.043 C9.543,11.271 7.367,11.518 5.586,12.707 C3.942,13.805 3.000,15.478 3.000,17.297 C3.000,17.297 3.000,29.008 3.000,29.008 C3.000,31.623 5.157,33.315 7.175,34.026 C7.957,34.301 8.367,35.158 8.092,35.939 C7.815,36.720 6.957,37.130 6.179,36.855 C2.425,35.533 -0.000,32.453 -0.000,29.008 C-0.000,29.008 -0.000,17.297 -0.000,17.297 C-0.000,14.459 1.429,11.877 3.920,10.213 C6.535,8.465 9.766,8.115 12.559,9.272 C12.559,9.272 40.719,20.975 40.719,20.975 C43.927,22.304 46.000,25.454 46.000,28.999 C46.000,33.788 42.792,37.000 38.017,37.000 Z" id="path-6" class="cls-8" fill-rule="evenodd"/>
    <path d="M18.018,46.677 C11.677,46.677 6.518,41.519 6.518,35.177 C6.518,28.836 11.677,23.677 18.018,23.677 C24.358,23.677 29.518,28.836 29.518,35.177 C29.518,41.519 24.358,46.677 18.018,46.677 ZM18.018,26.677 C13.331,26.677 9.518,30.490 9.518,35.177 C9.518,39.864 13.331,43.677 18.018,43.677 C22.704,43.677 26.518,39.864 26.518,35.177 C26.518,30.490 22.704,26.677 18.018,26.677 ZM18.018,42.253 C14.115,42.253 10.940,39.079 10.940,35.177 C10.940,31.275 14.115,28.101 18.018,28.101 C21.919,28.101 25.094,31.275 25.094,35.177 C25.094,39.079 21.919,42.253 18.018,42.253 ZM18.018,31.101 C15.770,31.101 13.940,32.929 13.940,35.177 C13.940,37.425 15.770,39.253 18.018,39.253 C20.266,39.253 22.094,37.425 22.094,35.177 C22.094,32.929 20.266,31.101 18.018,31.101 Z" id="path-7" class="cls-8" fill-rule="evenodd"/>
    <path d="M55.500,39.500 C54.672,39.500 54.000,38.829 54.000,38.000 C54.000,38.000 54.000,5.177 54.000,5.177 C54.000,4.378 53.832,3.046 52.722,3.001 C51.459,3.043 50.000,4.199 50.000,5.177 C50.000,5.177 50.000,27.550 50.000,27.550 C50.000,30.329 47.906,32.425 45.129,32.425 C44.519,32.425 43.969,32.055 43.739,31.489 C43.510,30.923 43.645,30.275 44.084,29.850 C44.084,29.850 44.273,29.665 44.273,29.665 C44.693,29.256 45.292,29.144 45.811,29.324 C46.551,29.085 47.000,28.441 47.000,27.550 C47.000,27.550 47.000,5.177 47.000,5.177 C47.000,2.368 49.891,0.165 52.498,0.009 C52.553,0.003 52.607,-0.000 52.663,-0.000 C52.663,-0.000 52.793,-0.000 52.793,-0.000 C52.850,-0.000 52.906,0.003 52.961,0.009 C55.390,0.163 57.000,2.201 57.000,5.177 C57.000,5.177 57.000,38.000 57.000,38.000 C57.000,38.829 56.328,39.500 55.500,39.500 Z" id="path-8" class="cls-8" fill-rule="evenodd"/>
    <path d="M59.000,45.000 C59.000,45.000 51.000,45.000 51.000,45.000 C48.794,45.000 47.000,43.206 47.000,41.000 C47.000,38.794 48.794,37.000 51.000,37.000 C51.000,37.000 59.000,37.000 59.000,37.000 C61.206,37.000 63.000,38.794 63.000,41.000 C63.000,43.206 61.206,45.000 59.000,45.000 ZM51.000,40.000 C50.448,40.000 50.000,40.449 50.000,41.000 C50.000,41.551 50.448,42.000 51.000,42.000 C51.000,42.000 59.000,42.000 59.000,42.000 C59.552,42.000 60.000,41.551 60.000,41.000 C60.000,40.449 59.552,40.000 59.000,40.000 C59.000,40.000 51.000,40.000 51.000,40.000 Z" id="path-9" class="cls-8" fill-rule="evenodd"/>
    <path d="M40.500,23.965 C40.250,23.965 39.999,23.903 39.772,23.777 C39.772,23.777 27.209,16.812 27.209,16.812 C26.611,16.480 26.313,15.786 26.484,15.125 C26.495,15.084 26.507,15.045 26.519,15.006 C26.754,12.283 28.914,10.286 31.727,10.286 C32.636,10.286 33.566,10.511 34.416,10.936 C34.453,10.955 34.489,10.975 34.524,10.996 C34.524,10.996 39.341,13.923 39.341,13.923 C41.057,14.810 42.000,16.570 42.000,18.889 C42.000,18.889 42.000,22.465 42.000,22.465 C42.000,22.997 41.719,23.488 41.262,23.758 C41.026,23.896 40.764,23.965 40.500,23.965 ZM29.617,14.717 C29.617,14.717 39.000,19.918 39.000,19.918 C39.000,19.918 39.000,18.889 39.000,18.889 C39.000,17.706 38.644,16.928 37.939,16.576 C37.902,16.558 37.866,16.538 37.831,16.516 C37.831,16.516 33.023,13.595 33.023,13.595 C32.598,13.390 32.162,13.286 31.727,13.286 C30.859,13.286 29.938,13.739 29.617,14.717 Z" id="path-10" class="cls-8" fill-rule="evenodd"/>
  </g>
</svg>
