<svg xmlns="http://www.w3.org/2000/svg" xmlns:xlink="http://www.w3.org/1999/xlink" preserveAspectRatio="xMidYMid" width="66" height="40" viewBox="0 0 66 40">
  <defs>
    <style>

      .cls-3 {
        fill: #99746a;
      }

      .cls-4 {
        fill: #edc951;
      }

      .cls-5 {
        fill: #53ecf4;
      }

      .cls-9 {
        fill: #000000;
      }
    </style>
  </defs>
  <g id="group-9svg">
    <path d="M66.094,33.394 C66.094,29.863 63.231,27.000 59.700,27.000 C59.700,27.000 27.488,27.000 27.488,27.000 C23.957,27.000 21.094,29.863 21.094,33.394 C21.094,33.394 21.094,33.606 21.094,33.606 C21.094,37.137 23.957,40.000 27.488,40.000 C27.488,40.000 59.700,40.000 59.700,40.000 C63.231,40.000 66.094,37.137 66.094,33.606 C66.094,33.606 66.094,33.394 66.094,33.394 Z" id="path-1" class="cls-3" fill-rule="evenodd"/>
    <path d="M33.072,13.000 C33.072,13.000 57.582,13.000 57.582,13.000 C57.582,13.000 60.140,27.000 60.140,27.000 C60.140,27.000 30.514,27.000 30.514,27.000 C30.514,27.000 33.072,13.000 33.072,13.000 Z" id="path-2" class="cls-4" fill-rule="evenodd"/>
    <path d="M54.094,12.000 C54.094,12.000 54.094,5.000 54.094,5.000 C54.094,5.000 41.046,5.000 41.046,5.000 C41.046,5.000 38.407,12.318 38.407,12.318 C38.407,12.318 38.407,12.318 38.407,12.318 " id="path-3" class="cls-5" fill-rule="evenodd"/>
    <path d="M16.731,21.960 C16.731,19.340 18.827,16.151 18.827,16.151 C18.827,16.151 16.625,15.673 15.417,15.673 C10.493,15.673 6.501,18.488 6.501,21.960 C6.501,25.433 10.493,28.248 15.417,28.248 C16.625,28.248 18.827,27.769 18.827,27.769 C18.827,27.769 16.731,24.581 16.731,21.960 Z" id="path-4" class="cls-5" fill-rule="evenodd"/>
    <path d="M32.001,34.511 C32.001,36.256 30.585,37.672 28.839,37.672 C27.093,37.672 25.678,36.256 25.678,34.511 C25.678,32.764 27.093,31.349 28.839,31.349 C30.585,31.349 32.001,32.764 32.001,34.511 Z" id="path-5" class="cls-4" fill-rule="evenodd"/>
    <path d="M60.134,34.511 C60.134,36.256 58.719,37.672 56.973,37.672 C55.227,37.672 53.811,36.256 53.811,34.511 C53.811,32.764 55.227,31.349 56.973,31.349 C58.719,31.349 60.134,32.764 60.134,34.511 Z" id="path-6" class="cls-4" fill-rule="evenodd"/>
    <path d="M55.200,38.000 C55.200,38.000 22.988,38.000 22.988,38.000 C18.635,38.000 15.094,34.459 15.094,30.106 C15.094,30.106 15.094,29.894 15.094,29.894 C15.094,25.541 18.635,22.000 22.988,22.000 C22.988,22.000 55.200,22.000 55.200,22.000 C59.553,22.000 63.094,25.541 63.094,29.894 C63.094,29.894 63.094,30.106 63.094,30.106 C63.094,34.459 59.553,38.000 55.200,38.000 ZM22.988,25.000 C20.289,25.000 18.094,27.195 18.094,29.894 C18.094,29.894 18.094,30.106 18.094,30.106 C18.094,32.805 20.289,35.000 22.988,35.000 C22.988,35.000 55.200,35.000 55.200,35.000 C57.898,35.000 60.094,32.805 60.094,30.106 C60.094,30.106 60.094,29.894 60.094,29.894 C60.094,27.195 57.898,25.000 55.200,25.000 C55.200,25.000 22.988,25.000 22.988,25.000 Z" id="path-7" class="cls-9" fill-rule="evenodd"/>
    <path d="M55.160,25.000 C55.153,24.999 55.146,24.999 55.140,25.000 C55.140,25.000 25.514,25.000 25.514,25.000 C25.069,25.000 24.647,24.802 24.362,24.460 C24.077,24.119 23.958,23.668 24.039,23.230 C24.039,23.230 26.596,9.230 26.596,9.230 C26.726,8.518 27.347,8.000 28.072,8.000 C28.072,8.000 52.582,8.000 52.582,8.000 C53.307,8.000 53.927,8.518 54.058,9.230 C54.058,9.230 56.572,22.993 56.572,22.993 C56.629,23.151 56.660,23.322 56.660,23.500 C56.660,24.329 55.988,25.000 55.160,25.000 ZM27.313,22.000 C27.313,22.000 53.341,22.000 53.341,22.000 C53.341,22.000 51.331,11.000 51.331,11.000 C51.331,11.000 29.323,11.000 29.323,11.000 C29.323,11.000 27.313,22.000 27.313,22.000 Z" id="path-8" class="cls-9" fill-rule="evenodd"/>
    <path d="M24.839,36.172 C22.269,36.172 20.178,34.081 20.178,31.510 C20.178,28.940 22.269,26.849 24.839,26.849 C27.410,26.849 29.501,28.940 29.501,31.510 C29.501,34.081 27.410,36.172 24.839,36.172 ZM24.839,29.849 C23.923,29.849 23.178,30.594 23.178,31.510 C23.178,32.426 23.923,33.172 24.839,33.172 C25.755,33.172 26.501,32.426 26.501,31.510 C26.501,30.594 25.755,29.849 24.839,29.849 Z" id="path-9" class="cls-9" fill-rule="evenodd"/>
    <path d="M52.973,36.172 C50.402,36.172 48.311,34.081 48.311,31.510 C48.311,28.940 50.402,26.849 52.973,26.849 C55.543,26.849 57.634,28.940 57.634,31.510 C57.634,34.081 55.543,36.172 52.973,36.172 ZM52.973,29.849 C52.057,29.849 51.311,30.594 51.311,31.510 C51.311,32.426 52.057,33.172 52.973,33.172 C53.889,33.172 54.634,32.426 54.634,31.510 C54.634,30.594 53.889,29.849 52.973,29.849 Z" id="path-10" class="cls-9" fill-rule="evenodd"/>
    <path d="M33.657,10.569 C33.507,10.569 33.355,10.546 33.205,10.499 C32.415,10.249 31.977,9.407 32.227,8.617 C32.227,8.617 34.616,1.048 34.616,1.048 C34.813,0.424 35.392,-0.000 36.046,-0.000 C36.046,-0.000 49.594,-0.000 49.594,-0.000 C50.422,-0.000 51.094,0.671 51.094,1.500 C51.094,1.500 51.094,9.000 51.094,9.000 C51.094,9.829 50.422,10.500 49.594,10.500 C48.765,10.500 48.094,9.829 48.094,9.000 C48.094,9.000 48.094,3.000 48.094,3.000 C48.094,3.000 37.146,3.000 37.146,3.000 C37.146,3.000 35.087,9.520 35.087,9.520 C34.885,10.160 34.294,10.569 33.657,10.569 Z" id="path-11" class="cls-9" fill-rule="evenodd"/>
    <path d="M26.921,18.001 C26.446,18.001 25.978,17.776 25.687,17.356 C25.687,17.356 16.683,4.385 16.683,4.385 C16.683,4.385 7.791,14.044 7.791,14.044 C7.230,14.653 6.282,14.693 5.671,14.132 C5.062,13.571 5.023,12.622 5.584,12.012 C5.584,12.012 15.744,0.976 15.744,0.976 C16.052,0.641 16.493,0.464 16.950,0.495 C17.404,0.526 17.820,0.762 18.080,1.136 C18.080,1.136 28.152,15.645 28.152,15.645 C28.624,16.326 28.456,17.261 27.775,17.733 C27.514,17.914 27.216,18.001 26.921,18.001 Z" id="path-12" class="cls-9" fill-rule="evenodd"/>
    <path d="M10.417,26.748 C4.576,26.748 0.001,23.327 0.001,18.960 C0.001,14.594 4.576,11.173 10.417,11.173 C11.748,11.173 13.904,11.633 14.145,11.686 C14.628,11.790 15.027,12.126 15.215,12.583 C15.402,13.040 15.352,13.561 15.082,13.974 C14.567,14.761 13.231,17.191 13.231,18.960 C13.231,20.742 14.566,23.163 15.081,23.945 C15.352,24.358 15.403,24.878 15.216,25.336 C15.029,25.793 14.629,26.130 14.146,26.235 C13.905,26.287 11.749,26.748 10.417,26.748 ZM10.417,14.173 C6.397,14.173 3.001,16.365 3.001,18.960 C3.001,21.556 6.397,23.748 10.417,23.748 C10.708,23.748 11.093,23.711 11.497,23.657 C10.880,22.366 10.231,20.617 10.231,18.960 C10.231,17.304 10.879,15.555 11.497,14.264 C11.093,14.210 10.708,14.173 10.417,14.173 Z" id="path-13" class="cls-9" fill-rule="evenodd"/>
  </g>
</svg>
