<svg xmlns="http://www.w3.org/2000/svg" xmlns:xlink="http://www.w3.org/1999/xlink" preserveAspectRatio="xMidYMid" width="64" height="63" viewBox="0 0 64 63">
  <defs>
    <style>

      .cls-3 {
        fill: #81bda4;
      }

      .cls-4 {
        fill: #e56a77;
      }

      .cls-5 {
        fill: #edc951;
      }

      .cls-6 {
        fill: #000000;
      }
    </style>
  </defs>
  <g id="group-26svg">
    <path d="M58.775,4.000 C58.775,4.000 26.648,4.000 26.648,4.000 C14.414,4.000 4.496,14.408 4.496,26.642 C4.496,26.642 4.496,26.642 4.496,26.642 C4.496,29.882 7.124,33.000 10.364,33.000 C10.364,33.000 58.775,33.000 58.775,33.000 C62.017,33.000 63.812,29.336 63.812,26.096 C63.812,26.096 63.812,9.812 63.812,9.812 C63.812,6.572 62.017,4.000 58.775,4.000 ZM57.812,22.996 C57.812,24.215 57.991,25.000 56.772,25.000 C56.772,25.000 34.703,25.000 34.703,25.000 C33.490,25.000 31.812,24.210 31.812,22.996 C31.812,22.996 31.812,19.686 31.812,19.686 C31.812,14.811 36.449,11.000 41.324,11.000 C41.324,11.000 56.772,11.000 56.772,11.000 C57.991,11.000 57.812,11.846 57.812,13.065 C57.812,13.065 57.812,22.996 57.812,22.996 Z" id="path-1" class="cls-3" fill-rule="evenodd"/>
    <path d="M16.085,41.000 C16.085,41.000 18.085,41.000 18.085,41.000 C20.294,41.000 21.812,39.689 21.812,37.480 C21.812,37.480 21.812,32.000 21.812,32.000 C21.812,32.000 11.812,32.000 11.812,32.000 C11.812,32.000 11.812,37.480 11.812,37.480 C11.812,39.689 13.875,41.000 16.085,41.000 Z" id="path-2" class="cls-4" fill-rule="evenodd"/>
    <path d="M10.902,52.942 C10.902,47.756 15.068,47.661 17.553,47.661 C20.037,47.661 24.595,47.756 24.595,52.942 C24.595,58.127 20.233,62.331 17.748,62.331 C15.264,62.331 10.902,58.127 10.902,52.942 Z" id="path-3" class="cls-5" fill-rule="evenodd"/>
    <path d="M55.775,32.000 C55.775,32.000 7.364,32.000 7.364,32.000 C3.439,32.000 -0.003,28.328 -0.003,24.142 C-0.003,11.056 10.828,-0.000 23.648,-0.000 C23.648,-0.000 55.775,-0.000 55.775,-0.000 C59.655,-0.000 62.812,3.504 62.812,7.812 C62.812,7.812 62.812,24.096 62.812,24.096 C62.812,27.897 60.122,32.000 55.775,32.000 ZM23.648,3.000 C12.454,3.000 2.997,12.682 2.997,24.142 C2.997,26.684 5.079,29.000 7.364,29.000 C7.364,29.000 55.775,29.000 55.775,29.000 C58.190,29.000 59.812,26.464 59.812,24.096 C59.812,24.096 59.812,7.812 59.812,7.812 C59.812,5.498 58.268,3.000 55.775,3.000 C55.775,3.000 23.648,3.000 23.648,3.000 ZM53.772,24.000 C53.772,24.000 31.703,24.000 31.703,24.000 C28.093,24.000 27.812,21.701 27.812,20.996 C27.812,20.996 27.812,17.686 27.812,17.686 C27.812,11.894 32.626,7.000 38.324,7.000 C38.324,7.000 53.772,7.000 53.772,7.000 C55.242,7.000 56.812,8.068 56.812,11.065 C56.812,11.065 56.812,20.996 56.812,20.996 C56.812,23.018 55.818,24.000 53.772,24.000 ZM30.812,20.897 C30.942,20.940 31.211,21.000 31.703,21.000 C31.703,21.000 53.772,21.000 53.772,21.000 C53.786,21.000 53.800,21.000 53.812,21.000 C53.812,20.999 53.812,20.998 53.812,20.996 C53.812,20.996 53.812,11.065 53.812,11.065 C53.812,10.493 53.723,10.153 53.659,10.000 C53.659,10.000 38.324,10.000 38.324,10.000 C34.322,10.000 30.812,13.592 30.812,17.686 C30.812,17.686 30.812,20.897 30.812,20.897 Z" id="path-4" class="cls-6" fill-rule="evenodd"/>
    <path d="M15.085,41.000 C15.085,41.000 13.085,41.000 13.085,41.000 C10.129,41.000 7.812,38.575 7.812,35.480 C7.812,35.480 7.812,30.500 7.812,30.500 C7.812,29.671 8.484,29.000 9.312,29.000 C9.312,29.000 19.312,29.000 19.312,29.000 C20.141,29.000 20.812,29.671 20.812,30.500 C20.812,30.500 20.812,35.480 20.812,35.480 C20.812,38.472 18.189,41.000 15.085,41.000 ZM10.812,32.000 C10.812,32.000 10.812,35.480 10.812,35.480 C10.812,36.732 11.593,38.000 13.085,38.000 C13.085,38.000 15.085,38.000 15.085,38.000 C16.513,38.000 17.812,36.799 17.812,35.480 C17.812,35.480 17.812,32.000 17.812,32.000 C17.812,32.000 10.812,32.000 10.812,32.000 Z" id="path-5" class="cls-6" fill-rule="evenodd"/>
    <path d="M14.312,59.500 C13.484,59.500 12.812,58.829 12.812,58.000 C12.812,58.000 12.812,40.000 12.812,40.000 C12.812,39.171 13.484,38.500 14.312,38.500 C15.141,38.500 15.812,39.171 15.812,40.000 C15.812,40.000 15.812,58.000 15.812,58.000 C15.812,58.829 15.141,59.500 14.312,59.500 Z" id="path-6" class="cls-6" fill-rule="evenodd"/>
    <path d="M14.748,61.831 C11.452,61.831 6.402,56.953 6.402,50.942 C6.402,44.161 12.323,44.161 14.553,44.161 C16.665,44.161 23.095,44.161 23.095,50.942 C23.095,56.953 18.044,61.831 14.748,61.831 ZM14.553,47.161 C11.137,47.161 9.402,47.746 9.402,50.942 C9.402,55.416 13.198,58.831 14.748,58.831 C16.299,58.831 20.095,55.416 20.095,50.942 C20.095,47.763 18.147,47.161 14.553,47.161 Z" id="path-7" class="cls-6" fill-rule="evenodd"/>
    <path d="M15.428,16.979 C13.079,16.979 11.169,15.068 11.169,12.720 C11.169,10.372 13.079,8.462 15.428,8.462 C17.776,8.462 19.686,10.372 19.686,12.720 C19.686,15.068 17.776,16.979 15.428,16.979 ZM15.428,11.462 C14.733,11.462 14.169,12.026 14.169,12.720 C14.169,13.415 14.733,13.979 15.428,13.979 C16.122,13.979 16.686,13.415 16.686,12.720 C16.686,12.026 16.122,11.462 15.428,11.462 Z" id="path-8" class="cls-6" fill-rule="evenodd"/>
  </g>
</svg>
