<svg xmlns="http://www.w3.org/2000/svg" xmlns:xlink="http://www.w3.org/1999/xlink" preserveAspectRatio="xMidYMid" width="63" height="64" viewBox="0 0 63 64">
  <defs>
    <style>

      .cls-3 {
        fill: #ff917b;
      }

      .cls-4 {
        fill: #edc951;
      }

      .cls-5 {
        fill: #53ecf4;
      }

      .cls-9 {
        fill: #000000;
      }
    </style>
  </defs>
  <g id="group-23svg">
    <path d="M63.000,60.000 C63.000,62.209 61.209,64.000 59.000,64.000 C59.000,64.000 8.000,64.000 8.000,64.000 C5.791,64.000 4.000,62.209 4.000,60.000 C4.000,60.000 4.000,8.000 4.000,8.000 C4.000,5.791 5.791,4.000 8.000,4.000 C8.000,4.000 59.000,4.000 59.000,4.000 C61.209,4.000 63.000,5.791 63.000,8.000 C63.000,8.000 63.000,60.000 63.000,60.000 Z" id="path-1" class="cls-3" fill-rule="evenodd"/>
    <path d="M54.000,47.000 C54.000,49.761 51.762,52.000 49.000,52.000 C49.000,52.000 18.000,52.000 18.000,52.000 C15.238,52.000 13.000,49.761 13.000,47.000 C13.000,47.000 13.000,15.000 13.000,15.000 C13.000,12.239 15.238,10.000 18.000,10.000 C18.000,10.000 49.000,10.000 49.000,10.000 C51.762,10.000 54.000,12.239 54.000,15.000 C54.000,15.000 54.000,47.000 54.000,47.000 Z" id="path-2" class="cls-4" fill-rule="evenodd"/>
    <path d="M49.552,20.985 C49.552,22.949 47.960,24.541 45.996,24.541 C44.032,24.541 42.439,22.949 42.439,20.985 C42.439,19.021 44.032,17.429 45.996,17.429 C47.960,17.429 49.552,19.021 49.552,20.985 Z" id="path-3" class="cls-5" fill-rule="evenodd"/>
    <path d="M49.552,42.709 C49.552,44.673 47.960,46.265 45.996,46.265 C44.032,46.265 42.439,44.673 42.439,42.709 C42.439,40.745 44.032,39.153 45.996,39.153 C47.960,39.153 49.552,40.745 49.552,42.709 Z" id="path-4" class="cls-5" fill-rule="evenodd"/>
    <path d="M27.828,20.985 C27.828,22.949 26.235,24.541 24.271,24.541 C22.308,24.541 20.716,22.949 20.716,20.985 C20.716,19.021 22.308,17.429 24.271,17.429 C26.235,17.429 27.828,19.021 27.828,20.985 Z" id="path-5" class="cls-5" fill-rule="evenodd"/>
    <path d="M27.828,42.709 C27.828,44.673 26.235,46.265 24.271,46.265 C22.308,46.265 20.716,44.673 20.716,42.709 C20.716,40.745 22.308,39.153 24.271,39.153 C26.235,39.153 27.828,40.745 27.828,42.709 Z" id="path-6" class="cls-5" fill-rule="evenodd"/>
    <path d="M56.500,63.000 C56.500,63.000 5.500,63.000 5.500,63.000 C2.468,63.000 -0.000,60.533 -0.000,57.500 C-0.000,57.500 -0.000,5.500 -0.000,5.500 C-0.000,2.467 2.468,-0.000 5.500,-0.000 C5.500,-0.000 56.500,-0.000 56.500,-0.000 C59.532,-0.000 62.000,2.467 62.000,5.500 C62.000,5.500 62.000,57.500 62.000,57.500 C62.000,60.533 59.532,63.000 56.500,63.000 ZM5.500,3.000 C4.121,3.000 3.000,4.122 3.000,5.500 C3.000,5.500 3.000,57.500 3.000,57.500 C3.000,58.878 4.121,60.000 5.500,60.000 C5.500,60.000 56.500,60.000 56.500,60.000 C57.879,60.000 59.000,58.878 59.000,57.500 C59.000,57.500 59.000,5.500 59.000,5.500 C59.000,4.122 57.879,3.000 56.500,3.000 C56.500,3.000 5.500,3.000 5.500,3.000 Z" id="path-7" class="cls-9" fill-rule="evenodd"/>
    <path d="M46.500,51.000 C46.500,51.000 15.500,51.000 15.500,51.000 C11.916,51.000 9.000,48.084 9.000,44.500 C9.000,44.500 9.000,12.500 9.000,12.500 C9.000,8.916 11.916,6.000 15.500,6.000 C15.500,6.000 46.500,6.000 46.500,6.000 C50.084,6.000 53.000,8.916 53.000,12.500 C53.000,12.500 53.000,44.500 53.000,44.500 C53.000,48.084 50.084,51.000 46.500,51.000 ZM15.500,9.000 C13.570,9.000 12.000,10.570 12.000,12.500 C12.000,12.500 12.000,44.500 12.000,44.500 C12.000,46.430 13.570,48.000 15.500,48.000 C15.500,48.000 46.500,48.000 46.500,48.000 C48.430,48.000 50.000,46.430 50.000,44.500 C50.000,44.500 50.000,12.500 50.000,12.500 C50.000,10.570 48.430,9.000 46.500,9.000 C46.500,9.000 15.500,9.000 15.500,9.000 Z" id="path-8" class="cls-9" fill-rule="evenodd"/>
    <path d="M51.000,31.000 C51.000,31.000 11.000,31.000 11.000,31.000 C10.172,31.000 9.500,30.329 9.500,29.500 C9.500,28.671 10.172,28.000 11.000,28.000 C11.000,28.000 51.000,28.000 51.000,28.000 C51.828,28.000 52.500,28.671 52.500,29.500 C52.500,30.329 51.828,31.000 51.000,31.000 Z" id="path-9" class="cls-9" fill-rule="evenodd"/>
    <path d="M31.500,50.500 C30.672,50.500 30.000,49.829 30.000,49.000 C30.000,49.000 30.000,8.000 30.000,8.000 C30.000,7.171 30.672,6.500 31.500,6.500 C32.328,6.500 33.000,7.171 33.000,8.000 C33.000,8.000 33.000,49.000 33.000,49.000 C33.000,49.829 32.328,50.500 31.500,50.500 Z" id="path-10" class="cls-9" fill-rule="evenodd"/>
    <path d="M47.634,56.209 C47.634,57.638 46.476,58.796 45.048,58.796 C43.619,58.796 42.462,57.638 42.462,56.209 C42.462,54.781 43.619,53.623 45.048,53.623 C46.476,53.623 47.634,54.781 47.634,56.209 Z" id="path-11" class="cls-9" fill-rule="evenodd"/>
    <path d="M39.358,56.209 C39.358,57.638 38.200,58.796 36.772,58.796 C35.344,58.796 34.185,57.638 34.185,56.209 C34.185,54.781 35.344,53.623 36.772,53.623 C38.200,53.623 39.358,54.781 39.358,56.209 Z" id="path-12" class="cls-9" fill-rule="evenodd"/>
    <path d="M31.082,56.209 C31.082,57.638 29.925,58.796 28.496,58.796 C27.068,58.796 25.910,57.638 25.910,56.209 C25.910,54.781 27.068,53.623 28.496,53.623 C29.925,53.623 31.082,54.781 31.082,56.209 Z" id="path-13" class="cls-9" fill-rule="evenodd"/>
    <path d="M22.807,56.209 C22.807,57.638 21.648,58.796 20.221,58.796 C18.792,58.796 17.634,57.638 17.634,56.209 C17.634,54.781 18.792,53.623 20.221,53.623 C21.648,53.623 22.807,54.781 22.807,56.209 Z" id="path-14" class="cls-9" fill-rule="evenodd"/>
    <path d="M42.996,24.041 C40.208,24.041 37.939,21.773 37.939,18.985 C37.939,16.197 40.208,13.929 42.996,13.929 C45.784,13.929 48.052,16.197 48.052,18.985 C48.052,21.773 45.784,24.041 42.996,24.041 ZM42.996,16.929 C41.862,16.929 40.939,17.852 40.939,18.985 C40.939,20.119 41.862,21.041 42.996,21.041 C44.130,21.041 45.052,20.119 45.052,18.985 C45.052,17.852 44.130,16.929 42.996,16.929 Z" id="path-15" class="cls-9" fill-rule="evenodd"/>
    <path d="M42.996,45.765 C40.208,45.765 37.939,43.497 37.939,40.709 C37.939,37.921 40.208,35.653 42.996,35.653 C45.784,35.653 48.052,37.921 48.052,40.709 C48.052,43.497 45.784,45.765 42.996,45.765 ZM42.996,38.653 C41.862,38.653 40.939,39.576 40.939,40.709 C40.939,41.843 41.862,42.765 42.996,42.765 C44.130,42.765 45.052,41.843 45.052,40.709 C45.052,39.576 44.130,38.653 42.996,38.653 Z" id="path-16" class="cls-9" fill-rule="evenodd"/>
    <path d="M21.271,24.041 C18.483,24.041 16.216,21.773 16.216,18.985 C16.216,16.197 18.483,13.929 21.271,13.929 C24.060,13.929 26.328,16.197 26.328,18.985 C26.328,21.773 24.060,24.041 21.271,24.041 ZM21.271,16.929 C20.138,16.929 19.216,17.852 19.216,18.985 C19.216,20.119 20.138,21.041 21.271,21.041 C22.405,21.041 23.328,20.119 23.328,18.985 C23.328,17.852 22.405,16.929 21.271,16.929 Z" id="path-17" class="cls-9" fill-rule="evenodd"/>
    <path d="M21.271,45.765 C18.483,45.765 16.216,43.497 16.216,40.709 C16.216,37.921 18.483,35.653 21.271,35.653 C24.060,35.653 26.328,37.921 26.328,40.709 C26.328,43.497 24.060,45.765 21.271,45.765 ZM21.271,38.653 C20.138,38.653 19.216,39.576 19.216,40.709 C19.216,41.843 20.138,42.765 21.271,42.765 C22.405,42.765 23.328,41.843 23.328,40.709 C23.328,39.576 22.405,38.653 21.271,38.653 Z" id="path-18" class="cls-9" fill-rule="evenodd"/>
    <path d="M41.500,33.500 C40.672,33.500 40.000,32.829 40.000,32.000 C40.000,32.000 40.000,27.000 40.000,27.000 C40.000,26.171 40.672,25.500 41.500,25.500 C42.328,25.500 43.000,26.171 43.000,27.000 C43.000,27.000 43.000,32.000 43.000,32.000 C43.000,32.829 42.328,33.500 41.500,33.500 Z" id="path-19" class="cls-9" fill-rule="evenodd"/>
    <path d="M20.500,33.500 C19.672,33.500 19.000,32.829 19.000,32.000 C19.000,32.000 19.000,27.000 19.000,27.000 C19.000,26.171 19.672,25.500 20.500,25.500 C21.328,25.500 22.000,26.171 22.000,27.000 C22.000,27.000 22.000,32.000 22.000,32.000 C22.000,32.829 21.328,33.500 20.500,33.500 Z" id="path-20" class="cls-9" fill-rule="evenodd"/>
    <path d="M34.000,20.000 C34.000,20.000 29.000,20.000 29.000,20.000 C28.172,20.000 27.500,19.329 27.500,18.500 C27.500,17.671 28.172,17.000 29.000,17.000 C29.000,17.000 34.000,17.000 34.000,17.000 C34.828,17.000 35.500,17.671 35.500,18.500 C35.500,19.329 34.828,20.000 34.000,20.000 Z" id="path-21" class="cls-9" fill-rule="evenodd"/>
    <path d="M34.000,41.000 C34.000,41.000 29.000,41.000 29.000,41.000 C28.172,41.000 27.500,40.329 27.500,39.500 C27.500,38.671 28.172,38.000 29.000,38.000 C29.000,38.000 34.000,38.000 34.000,38.000 C34.828,38.000 35.500,38.671 35.500,39.500 C35.500,40.329 34.828,41.000 34.000,41.000 Z" id="path-22" class="cls-9" fill-rule="evenodd"/>
  </g>
</svg>
