<?xml version="1.0" encoding="utf-8"?>
<!-- Generator: Adobe Illustrator 20.0.0, SVG Export Plug-In . SVG Version: 6.00 Build 0)  -->
<svg version="1.1" id="Layer_1" xmlns="http://www.w3.org/2000/svg" xmlns:xlink="http://www.w3.org/1999/xlink" x="0px" y="0px"
	 viewBox="0 0 800 200" style="enable-background:new 0 0 800 200;" xml:space="preserve">
<style type="text/css">
	.st0{fill:#F49320;}
</style>
<g>
	<path class="st0" d="M272.4,85.9l-11.6,6.4c-2.2-2.3-4.3-3.9-6.5-4.7c-2.1-0.9-4.6-1.3-7.5-1.3c-5.2,0-9.4,1.5-12.6,4.7
		c-3.2,3.1-4.8,7.1-4.8,12c0,4.7,1.5,8.6,4.6,11.6c3.1,3,7.2,4.5,12.2,4.5c6.2,0,11.1-2.1,14.6-6.4l11,7.5
		c-6,7.7-14.4,11.6-25.2,11.6c-9.8,0-17.4-2.9-22.9-8.7c-5.5-5.8-8.3-12.6-8.3-20.3c0-5.4,1.3-10.3,4-14.9
		c2.7-4.5,6.4-8.1,11.3-10.7c4.8-2.6,10.2-3.9,16.2-3.9c5.5,0,10.5,1.1,14.9,3.3C266.1,78.8,269.7,81.9,272.4,85.9z M281.4,53.3
		h13.9v77h-13.9V53.3z M332,73.3c5.2,0,10.2,1.3,14.8,3.9c4.6,2.6,8.2,6.2,10.8,10.7c2.6,4.5,3.9,9.3,3.9,14.6
		c0,5.2-1.3,10.1-3.9,14.7c-2.6,4.6-6.1,8.1-10.6,10.7c-4.5,2.6-9.5,3.8-14.9,3.8c-8,0-14.8-2.8-20.4-8.5
		c-5.6-5.7-8.5-12.6-8.5-20.7c0-8.7,3.2-15.9,9.5-21.7C318.3,75.8,324.7,73.3,332,73.3z M332.2,86.4c-4.3,0-7.9,1.5-10.8,4.5
		c-2.9,3-4.3,6.9-4.3,11.6c0,4.8,1.4,8.7,4.3,11.7c2.9,3,6.5,4.5,10.8,4.5c4.4,0,8-1.5,10.9-4.5c2.9-3,4.3-6.9,4.3-11.7
		c0-4.8-1.4-8.6-4.3-11.6C340.3,87.9,336.6,86.4,332.2,86.4z M370.7,74.7h14.1v26.8c0,5.2,0.4,8.8,1.1,10.9c0.7,2,1.9,3.6,3.4,4.7
		c1.6,1.1,3.5,1.7,5.9,1.7c2.3,0,4.3-0.5,5.9-1.7c1.6-1.1,2.8-2.7,3.6-4.9c0.6-1.6,0.9-5,0.9-10.3V74.7h13.9v23.5
		c0,9.7-0.8,16.3-2.3,19.9c-1.9,4.4-4.6,7.7-8.3,10c-3.7,2.3-8.3,3.5-13.9,3.5c-6.1,0-11-1.4-14.8-4.1c-3.8-2.7-6.4-6.5-7.9-11.4
		c-1.1-3.4-1.6-9.5-1.6-18.4V74.7z M472.4,53.3h13.9v77h-13.9v-5.9c-2.7,2.6-5.4,4.5-8.2,5.6c-2.7,1.1-5.7,1.7-8.9,1.7
		c-7.2,0-13.4-2.8-18.6-8.3c-5.2-5.6-7.8-12.5-7.8-20.7c0-8.6,2.5-15.6,7.6-21.1c5.1-5.5,11.2-8.2,18.5-8.2c3.3,0,6.5,0.6,9.4,1.9
		c2.9,1.3,5.6,3.1,8.1,5.7V53.3z M457.7,86.1c-4.3,0-7.9,1.5-10.7,4.6c-2.8,3-4.3,7-4.3,11.7c0,4.8,1.5,8.7,4.3,11.8
		c2.9,3.1,6.5,4.6,10.7,4.6c4.4,0,8-1.5,10.9-4.6c2.9-3,4.3-7,4.3-12c0-4.8-1.4-8.8-4.3-11.7C465.8,87.6,462.1,86.1,457.7,86.1z
		 M494.2,74.7h13.6l11.2,31.6l12-31.6h8.3l11.8,31.2l11.2-31.2h13.7l-20.3,55.6H547l-11.8-31.7L523,130.2h-8.7L494.2,74.7z
		 M608,73.3c5.2,0,10.2,1.3,14.8,3.9c4.6,2.6,8.2,6.2,10.8,10.7c2.6,4.5,3.9,9.3,3.9,14.6c0,5.2-1.3,10.1-3.9,14.7
		c-2.6,4.6-6.2,8.1-10.6,10.7c-4.5,2.6-9.4,3.8-14.9,3.8c-8,0-14.8-2.8-20.4-8.5c-5.6-5.7-8.5-12.6-8.5-20.7
		c0-8.7,3.2-15.9,9.5-21.7C594.3,75.8,600.8,73.3,608,73.3z M608.2,86.4c-4.3,0-7.9,1.5-10.8,4.5c-2.9,3-4.3,6.9-4.3,11.6
		c0,4.8,1.4,8.7,4.3,11.7c2.8,3,6.5,4.5,10.8,4.5c4.4,0,8-1.5,10.9-4.5c2.9-3,4.3-6.9,4.3-11.7c0-4.8-1.4-8.6-4.3-11.6
		C616.3,87.9,612.7,86.4,608.2,86.4z M645.6,74.7h11.9v7c1.3-2.8,3-4.9,5.2-6.3c2.2-1.4,4.5-2.1,7-2.1c1.8,0,3.7,0.5,5.7,1.4
		l-4.3,12c-1.6-0.8-3-1.2-4-1.2c-2.1,0-4,1.3-5.4,4c-1.5,2.7-2.2,7.9-2.2,15.6l0,2.7v22.5h-13.8V74.7z M721.2,53.3h13.9v77h-13.9
		v-5.9c-2.7,2.6-5.4,4.5-8.2,5.6c-2.7,1.1-5.7,1.7-8.9,1.7c-7.2,0-13.4-2.8-18.6-8.3c-5.2-5.6-7.8-12.5-7.8-20.7
		c0-8.6,2.5-15.6,7.6-21.1c5.1-5.5,11.2-8.2,18.5-8.2c3.3,0,6.5,0.6,9.4,1.9c2.9,1.3,5.6,3.1,8.1,5.7V53.3z M706.5,86.1
		c-4.3,0-7.9,1.5-10.7,4.6c-2.9,3-4.3,7-4.3,11.7c0,4.8,1.5,8.7,4.4,11.8c2.9,3.1,6.5,4.6,10.7,4.6c4.4,0,8-1.5,10.9-4.6
		c2.9-3,4.3-7,4.3-12c0-4.8-1.4-8.8-4.3-11.7C714.6,87.6,710.9,86.1,706.5,86.1z M781.1,82.5l-8.6,8.6c-3.5-3.5-6.7-5.2-9.5-5.2
		c-1.6,0-2.8,0.3-3.7,1c-0.9,0.7-1.3,1.5-1.3,2.5c0,0.7,0.3,1.4,0.8,2.1c0.6,0.6,1.9,1.5,4.2,2.6l5.1,2.5c5.4,2.7,9.1,5.4,11.1,8.1
		c2,2.8,3,6,3,9.7c0,4.9-1.8,9.1-5.4,12.4c-3.6,3.3-8.5,4.9-14.6,4.9c-8.1,0-14.6-3.2-19.4-9.5l8.6-9.3c1.6,1.9,3.5,3.5,5.7,4.6
		c2.2,1.2,4.1,1.8,5.8,1.8c1.8,0,3.3-0.4,4.4-1.3c1.1-0.9,1.7-1.9,1.7-3.1c0-2.2-2-4.2-6.1-6.3l-4.7-2.3c-9-4.5-13.5-10.2-13.5-17
		c0-4.4,1.7-8.1,5.1-11.3c3.4-3.1,7.7-4.7,13-4.7c3.6,0,7,0.8,10.2,2.4C776.2,77.2,778.9,79.5,781.1,82.5z M127,95.7L89.7,68.9
		c-1.4,1.3-3.2,2.1-5.2,2.3l-3.5,38c4.2,1.2,7.7,4.1,9.7,8l35.1-14.4c-0.1-0.6-0.2-1.2-0.2-1.8C125.6,99.1,126.1,97.3,127,95.7z
		 M97.8,22.4c-43,0-77.9,34.9-77.9,77.9c0,43,35,77.9,77.9,77.9c43,0,77.9-35,77.9-77.9C175.7,57.4,140.8,22.4,97.8,22.4z
		 M148.4,101c0,6.3-5.1,11.4-11.4,11.4c-4.4,0-8.1-2.5-10-6.1l-35,14.4c0.4,1.3,0.6,2.7,0.6,4.2c0,3-0.9,5.8-2.3,8.3l46.3,30.5
		c-1.1,0.7-2.2,1.4-3.4,2.1l-45-29.7c-3,3.1-7.1,5-11.7,5c-9,0-16.2-7.3-16.2-16.2c0-9,7.3-16.2,16.2-16.2c0.3,0,0.6,0.1,1,0.1
		l3.5-37.7c-3.1-1-5.4-3.5-6.1-6.7l-45,6.3c0.6-1.3,1.2-2.6,1.9-3.9l43.1-6.1c0.8-4.1,4.5-7.2,8.8-7.2c5,0,9,4,9,9
		c0,1.3-0.3,2.5-0.8,3.6l37.3,26.8c2.1-2,4.8-3.2,7.9-3.2c0.3,0,0.5,0.1,0.8,0.1l7.7-46.2c1.1,0.9,2.1,1.9,3.2,2.9l-7.4,44.1
		C145.5,92.2,148.4,96.2,148.4,101z M84.5,71.3l-3.5,38c4.2,1.2,7.7,4.1,9.7,8l35.1-14.4c-0.1-0.6-0.2-1.2-0.2-1.8
		c0-1.9,0.5-3.7,1.4-5.3L89.7,68.9C88.3,70.2,86.5,71,84.5,71.3z"/>
</g>
</svg>
