<?xml version="1.0" encoding="utf-8"?>
<!-- Generator: Adobe Illustrator 18.1.1, SVG Export Plug-In . SVG Version: 6.00 Build 0)  -->
<svg version="1.1" id="Layer_1" xmlns="http://www.w3.org/2000/svg" xmlns:xlink="http://www.w3.org/1999/xlink" x="0px" y="0px"
	 viewBox="0 0 18 18" enable-background="new 0 0 18 18" xml:space="preserve">
<g>
	<g>
		<path d="M6,4.3c0.2-0.5,0.7-0.8,1.3-0.8c0.8,0,1.5,0.7,1.5,1.5c0,0.1,0,0.1,0,0.2l3.4,2.5c0.2-0.1,0.3-0.2,0.5-0.2l0.8-4.9
			C12.2,1.5,10.6,1,8.8,1C5.9,1,3.4,2.5,2,4.8L6,4.3z"/>
	</g>
	<g>
		<path d="M7.9,6.3L7.6,9.6c0.3,0.1,0.5,0.3,0.7,0.6l3.1-1.3c0-0.1,0-0.2,0-0.2L7.9,6.3C7.9,6.2,7.9,6.2,7.9,6.3z"/>
	</g>
	<g>
		<path d="M14.7,3.6L14,7.7C14.5,8,14.7,8.5,14.7,9c0,0.9-0.8,1.7-1.7,1.7c-0.5,0-0.9-0.2-1.2-0.5l-3,1.2c0,0,0,0.1,0,0.1
			c0,0.2,0,0.5-0.1,0.7l4.8,3.2c2-1.4,3.4-3.8,3.4-6.5C16.8,6.9,16,5,14.7,3.6z"/>
	</g>
	<g>
		<path d="M7.8,13.4c-0.4,0.3-0.8,0.4-1.3,0.4c-1.2,0-2.2-1-2.2-2.2c0-1.1,0.8-2,1.9-2.2l0.3-3.3C6.3,6,6.2,5.8,6.1,5.7L1.3,6.3
			C1,7.2,0.8,8,0.8,9c0,4.4,3.6,8,8,8c1.2,0,2.3-0.3,3.3-0.7L7.8,13.4z"/>
	</g>
</g>
</svg>
