<?xml version="1.0" encoding="utf-8"?>
<!-- Generator: Adobe Illustrator 20.0.0, SVG Export Plug-In . SVG Version: 6.00 Build 0)  -->
<svg version="1.1" id="Layer_1" xmlns="http://www.w3.org/2000/svg" xmlns:xlink="http://www.w3.org/1999/xlink" x="0px" y="0px"
	 viewBox="0 0 24 24" style="enable-background:new 0 0 24 24;" xml:space="preserve">
<style type="text/css">
	.st0{fill:#FFFFFF;}
	.st1{fill:#F49320;}
</style>
<g>
	<g>
		<path class="st0" d="M12.4,1.2c-6.1,0-11,4.9-11,11c0,6.1,4.9,11,11,11c6.1,0,11-4.9,11-11C23.4,6.1,18.5,1.2,12.4,1.2z"/>
		<path class="st1" d="M18.6,10.8l1-6.2c-0.1-0.1-0.3-0.3-0.5-0.4l-1.1,6.5c0,0-0.1,0-0.1,0c-0.4,0-0.8,0.2-1.1,0.4l-5.3-3.8
			c0.1-0.2,0.1-0.3,0.1-0.5c0-0.7-0.6-1.3-1.3-1.3c-0.6,0-1.1,0.4-1.2,1L3.1,7.4C3,7.6,2.9,7.8,2.8,8l6.4-0.9C9.3,7.5,9.6,7.9,10,8
			l-0.5,5.3c0,0-0.1,0-0.1,0c-1.3,0-2.3,1-2.3,2.3c0,1.3,1,2.3,2.3,2.3c0.7,0,1.2-0.3,1.7-0.7l6.4,4.2c0.2-0.1,0.3-0.2,0.5-0.3
			l-6.5-4.3c0.2-0.3,0.3-0.7,0.3-1.2c0-0.2,0-0.4-0.1-0.6l4.9-2c0.3,0.5,0.8,0.9,1.4,0.9c0.9,0,1.6-0.7,1.6-1.6
			C19.6,11.6,19.1,11,18.6,10.8z M11.4,14.6c-0.3-0.5-0.8-0.9-1.4-1.1l0.5-5.4c0.3,0,0.5-0.1,0.7-0.3l5.3,3.8
			c-0.1,0.2-0.2,0.5-0.2,0.7c0,0.1,0,0.2,0,0.3L11.4,14.6z"/>
	</g>
</g>
</svg>
