<svg xmlns="http://www.w3.org/2000/svg" version="1.1" x="0" y="0" width="283.5" height="283.5" viewBox="0 0 283.5 283.5" enable-background="new 0 0 283.46 283.46" xml:space="preserve"><path fill-rule="evenodd" clip-rule="evenodd" d="M238.7 222.9c-6.2 6.3-12.4 12.5-18.7 18.7 -8 7.9-16.6 7.9-24.5 0 -13.5-13.4-27-26.7-40.2-40.3 -3.3-3.4-5.2-3-8.3 0.1 -12.9 13.2-26 26.2-39.1 39.2 -9.2 9.2-17.5 9.1-26.7-0.1 -5.8-5.8-11.5-11.5-17.3-17.3 -8.1-8.2-8.2-17.3-0.1-25.4 12.8-12.8 25.7-25.6 38.5-38.5 1.6-1.6 3.2-3.4 5.1-5.5 -1.8-1.9-3.1-3.4-4.5-4.8 -13.2-13.2-26.4-26.4-39.5-39.6 -7.5-7.5-7.4-16.6 0.1-24.2 6.5-6.5 12.9-13 19.5-19.4 7.2-6.9 16.4-7 23.5 0 13.8 13.6 27.5 27.2 41 41 2.9 3 4.7 3 7.6 0 12.9-13.2 26.1-26.2 39.1-39.3 9.2-9.2 18-9.2 27.3 0 5.9 5.9 11.8 11.7 17.7 17.7 7.4 7.5 7.5 16.8 0.1 24.3 -13.2 13.4-26.6 26.6-39.9 39.9 -1.4 1.4-3.2 2.4-4.8 3.6 -0.2 0.8-0.4 1.6-0.6 2.4 2.7 2 5.6 3.6 8 6 12.5 12.3 24.8 24.7 37.1 37.1C246.5 206 246.4 215.2 238.7 222.9z"/></svg>
