<svg xmlns="http://www.w3.org/2000/svg" version="1.1" x="0" y="0" width="283.5" height="283.5" viewBox="0 0 283.5 283.5" enable-background="new 0 0 283.46 283.46" xml:space="preserve"><path fill-rule="evenodd" clip-rule="evenodd" d="M257 157.1c-0.8 7.9-7.2 12.4-15.5 12.4 -31.5 0-63 0-94.4 0 -31 0-62 0-92.9 0 -11.2 0-17-5.5-17.2-16.6 -0.1-9.8-0.2-19.7 0.1-29.5 0.2-9.1 5.9-14.6 15.2-15.1 1.2-0.1 2.3 0 3.5 0 61.1 0 122.3 0 183.4 0 12.9 0 18.7 5.5 18.8 18.4C257.9 136.9 258 147.1 257 157.1z"/></svg>
