<?xml version="1.0" encoding="utf-8"?>
<!-- Generator: Adobe Illustrator 16.0.0, SVG Export Plug-In . SVG Version: 6.00 Build 0)  -->
<!DOCTYPE svg PUBLIC "-//W3C//DTD SVG 1.1//EN" "http://www.w3.org/Graphics/SVG/1.1/DTD/svg11.dtd">
<svg version="1.1" id="Layer_1" xmlns="http://www.w3.org/2000/svg" xmlns:xlink="http://www.w3.org/1999/xlink" x="0px" y="0px"
	 width="283.5px" height="283.5px" viewBox="0 0 283.5 283.5" enable-background="new 0 0 283.5 283.5" xml:space="preserve">
<path fill="#FFFFFF" d="M251,160.9c-0.7,8-7.1,12.699-15.3,12.699c-19.5,0.101-39,0.2-58.5-0.1c-4.4,0-5.7,1.1-5.7,5.6
	c0.2,18.801,0.1,37.7,0.1,56.5c0,5.801-0.699,11.5-6.3,14.801c-2.6,1.5-5.8,2.8-8.7,2.899c-9.8,0.4-19.6,0.2-29.5,0.101
	c-10.2,0-16.2-5.601-16.3-15.9c-0.2-19.3-0.2-38.7,0-58c0.1-4.9-1.5-6.1-6.2-6c-19,0.3-38,0.1-57,0.1c-10.6,0-16.5-5.6-16.7-16.1
	c-0.2-9.7-0.2-19.3,0-29c0.2-10.6,6-16.1,16.7-16.1c19-0.1,38-0.2,57,0.1c4.7,0.1,6.5-0.9,6.2-6c-0.4-9.6-0.1-19.3-0.1-29h0.2
	c0-10.2-0.2-20.3,0.1-30.5c0.2-8.6,6.6-14.5,15.2-14.5c10-0.1,20-0.1,30,0c8.399,0.1,14.899,5.5,15.1,13.9c0.5,18.6,0.3,37.3,0.4,56
	c0.1,11.9-1.2,9.9,10.1,10c17.5,0.1,35,0,52.5,0c10.9,0,17.101,5.4,17.4,16.2C251.9,139.3,252,150.2,251,160.9z"/>
</svg>
