<?xml version="1.0" encoding="UTF-8" standalone="no"?>
<!-- Creator: CorelDRAW -->

<svg
   xmlns:dc="http://purl.org/dc/elements/1.1/"
   xmlns:cc="http://creativecommons.org/ns#"
   xmlns:rdf="http://www.w3.org/1999/02/22-rdf-syntax-ns#"
   xmlns:svg="http://www.w3.org/2000/svg"
   xmlns="http://www.w3.org/2000/svg"
   xmlns:sodipodi="http://sodipodi.sourceforge.net/DTD/sodipodi-0.dtd"
   xmlns:inkscape="http://www.inkscape.org/namespaces/inkscape"
   xml:space="preserve"
   width="64px"
   height="64px"
   style="shape-rendering:geometricPrecision; text-rendering:geometricPrecision; image-rendering:optimizeQuality; fill-rule:evenodd; clip-rule:evenodd"
   viewBox="0 0 640 640"
   version="1.1"
   id="svg10"
   sodipodi:docname="info-circle-yellow.svg"
   inkscape:version="0.92.3 (2405546, 2018-03-11)"><metadata
   id="metadata14"><rdf:RDF><cc:Work
       rdf:about=""><dc:format>image/svg+xml</dc:format><dc:type
         rdf:resource="http://purl.org/dc/dcmitype/StillImage" /><dc:title></dc:title></cc:Work></rdf:RDF></metadata><sodipodi:namedview
   pagecolor="#ffffff"
   bordercolor="#666666"
   borderopacity="1"
   objecttolerance="10"
   gridtolerance="10"
   guidetolerance="10"
   inkscape:pageopacity="0"
   inkscape:pageshadow="2"
   inkscape:window-width="1920"
   inkscape:window-height="1031"
   id="namedview12"
   showgrid="false"
   inkscape:zoom="6.2514648"
   inkscape:cx="-8.8342404"
   inkscape:cy="27.170519"
   inkscape:window-x="0"
   inkscape:window-y="25"
   inkscape:window-maximized="1"
   inkscape:current-layer="svg10" />
 <defs
   id="defs4">
  <style
   type="text/css"
   id="style2">
   <![CDATA[
    .fil0 {fill:black}
   ]]>
  </style>
 </defs>
 <g
   id="Layer_x0020_1">
  <metadata
   id="CorelCorpID_0Corel-Layer" />
  <path
   class="fil0"
   d="M320 -0.0118112c176.707,0 320.012,143.305 320.012,320.012 0,176.707 -143.305,320.012 -320.012,320.012 -176.707,0 -320.012,-143.305 -320.012,-320.012 0,-176.707 143.305,-320.012 320.012,-320.012zm93.6508 511.554l-187.302 0 0 -31.524 35.1973 0 0 -192.51 -35.1973 0 0 -25.0869 87.5444 0c22.1105,0 43.8667,-2.65751 65.363,-8.07884l0 225.676 34.3941 0 0 31.524zm-81.0482 -401.769c14.5041,0 25.9137,4.19296 34.2288,12.4844 8.22057,8.27963 12.3781,19.642 12.3781,34.276 0,14.8348 -7.07489,28.0279 -21.3192,39.591 -14.3269,11.5631 -30.9453,17.386 -49.8786,17.386 -14.2325,0 -25.5476,-3.98036 -34.217,-11.9647 -8.6694,-8.07884 -13.0041,-18.5199 -13.0041,-31.5122 0,-16.3703 7.07489,-30.4846 21.142,-42.4612 14.0553,-11.8584 30.9453,-17.7994 50.6699,-17.7994z"
   id="path7" />
 </g>
<path
   style="opacity:1;fill:#cccccc;fill-opacity:1;stroke:#787878;stroke-width:0.07998125;stroke-opacity:0"
   d="M 29.928486,63.910613 C 24.073305,63.443322 18.917897,61.688607 14.25216,58.574955 7.3134934,53.944478 2.3640258,46.60577 0.70382744,38.48648 0.20400371,36.042065 0.09992637,34.925552 0.09992637,32.007998 c 0,-2.290066 0.02376164,-2.814039 0.17954004,-3.959072 C 0.70676067,24.908143 1.415737,22.265022 2.5535619,19.570913 6.7749061,9.5757365 15.955456,2.2881115 26.569273,0.5069695 c 2.156503,-0.36189047 2.828793,-0.41164727 5.518706,-0.40844475 2.188592,0.0026056 2.750598,0.02890416 3.879091,0.18151817 3.81925,0.51650391 6.834093,1.43235238 10.19761,3.09782798 3.203385,1.5861848 5.855736,3.4783752 8.341418,5.9507795 5.214542,5.1866876 8.348842,11.6533916 9.267222,19.1201816 0.199326,1.620612 0.198943,5.388715 -7.2e-4,7.078341 -0.739049,6.25406 -3.087824,11.828332 -7.043194,16.715383 -0.966755,1.194472 -3.463893,3.670219 -4.686102,4.645958 -4.825672,3.852531 -10.366471,6.165172 -16.476138,6.876878 -1.028072,0.119758 -4.755021,0.215744 -5.638679,0.145221 z m 11.47731,-14.34673 V 47.964258 H 39.686199 37.966602 V 36.678231 25.392203 l -0.179958,0.04465 c -0.597824,0.148338 -2.319809,0.466652 -3.139264,0.580302 -0.79402,0.110123 -1.916322,0.139353 -6.498477,0.169252 l -5.538702,0.03614 v 1.273103 1.273102 h 1.759587 1.759588 v 9.597751 9.59775 h -1.759588 -1.759587 v 1.599625 1.599626 h 9.397797 9.397798 z M 32.836028,21.125395 c 1.428171,-0.362285 2.698548,-1.112403 3.716466,-2.194455 1.20725,-1.283316 1.611173,-2.662035 1.296737,-4.426188 -0.422979,-2.373123 -2.279452,-3.677291 -5.04142,-3.541582 -1.62181,0.07969 -3.030542,0.568354 -4.253414,1.475442 -1.910047,1.416813 -2.778631,3.356256 -2.429667,5.425148 0.304153,1.803228 1.757175,3.161894 3.700177,3.459893 0.760985,0.116713 2.122985,0.02704 3.011121,-0.198258 z"
   id="path821"
   inkscape:connector-curvature="0"
   transform="scale(10)" /><path
   style="opacity:1;fill:#ffd25c;fill-opacity:1;stroke:#787878;stroke-width:0.15996251;stroke-opacity:0"
   d="M 27.444174,63.563856 C 17.857526,62.001808 9.8916623,56.767313 4.9050237,48.753022 2.8659632,45.47594 1.0909791,40.832634 0.61303892,37.525318 0.5526479,37.107415 0.456444,36.765496 0.39925246,36.765496 c -0.0571915,0 -0.12802404,-1.817574 -0.15740555,-4.039054 -0.0293815,-2.221479 -0.0866381,-4.09304 -0.1272369,-4.159025 -0.04059879,-0.06598 0.002415,-0.119972 0.095587,-0.119972 0.0931717,0 0.16940302,-0.188909 0.16940302,-0.419799 0,-0.230888 0.18046082,-1.311064 0.40102404,-2.400388 C 1.7735034,20.723598 3.9484906,16.0821 7.0943084,12.153638 8.4428781,10.46956 10.94463,7.9860358 12.456769,6.8302482 c 2.394493,-1.8302045 5.86325,-3.7856585 8.198079,-4.6215294 0.549871,-0.1968543 0.999766,-0.4245033 0.999766,-0.5058867 0,-0.081383 0.05791,-0.1121759 0.128699,-0.068428 0.07079,0.043748 0.909379,-0.129896 1.863541,-0.3858745 0.954162,-0.25597858 2.299917,-0.55191923 2.990568,-0.65764589 0.690651,-0.10572666 1.25573,-0.25600722 1.25573,-0.33395677 0,-0.0779496 0.05551,-0.10741606 0.123367,-0.0654811 0.06785,0.0419349 1.579569,0.0281874 3.359371,-0.0305501 1.779801,-0.0587375 3.235932,-0.0528081 3.235845,0.0131764 -8.8e-5,0.0659845 0.242353,0.11997188 0.538757,0.11997188 1.455475,0 5.348713,0.87563378 7.619173,1.71363918 10.912057,4.027539 18.545399,13.1427398 20.667917,24.6801748 0.276796,1.504591 0.34185,2.516805 0.357248,5.558697 0.01035,2.04552 -0.03717,3.719128 -0.105607,3.719128 -0.06844,0 -0.124432,0.179692 -0.124432,0.399318 0,0.219623 -0.172636,1.214385 -0.383635,2.210581 -1.713189,8.088509 -6.610982,15.304766 -13.523827,19.925595 -3.42403,2.288761 -7.181677,3.858339 -11.366614,4.747862 -1.774306,0.377135 -2.422956,0.430995 -5.758651,0.478168 -2.63222,0.03722 -4.157454,-0.01174 -5.08789,-0.163351 z M 41.489965,49.562496 V 47.962871 H 39.730377 37.97079 V 36.664585 25.366298 l -0.59986,0.103304 c -0.329922,0.05682 -1.121737,0.187118 -1.759587,0.289555 -0.637851,0.102435 -1.159682,0.227329 -1.159626,0.27754 5.7e-5,0.05021 -1.997474,0.08784 -4.43896,0.08363 -4.340191,-0.0075 -4.367805,-0.0056 -1.239812,0.08753 2.996261,0.08915 2.902375,0.09471 -1.479747,0.08765 l -4.678998,-0.0076 9.4e-5,1.239709 9.5e-5,1.23971 h 1.759587 1.759588 v 9.59775 9.597751 h -1.759588 -1.759587 v 1.492982 c 0,0.821142 0.04799,1.540974 0.106642,1.599626 0.05865,0.05865 4.305656,0.106642 9.437788,0.106642 l 9.331146,1e-6 z M 32.21261,21.289123 c 3.2e-4,-0.06599 0.246179,-0.125121 0.546487,-0.131416 0.827147,-0.01733 2.559146,-0.95134 3.540081,-1.90904 1.193413,-1.165143 1.668033,-2.221835 1.670049,-3.718194 8e-4,-0.637851 -0.06368,-1.159729 -0.143424,-1.159729 -0.07974,0 -0.110146,-0.133235 -0.06756,-0.296078 0.04258,-0.162843 -0.01814,-0.398502 -0.134948,-0.523687 -0.116806,-0.125185 -0.234684,-0.328816 -0.261951,-0.452513 -0.175802,-0.79751 -1.6091,-1.891013 -2.614578,-1.994734 -0.294302,-0.03036 -0.673565,-0.112014 -0.842806,-0.181454 -0.40875,-0.167712 -3.022638,0.162627 -3.098977,0.391644 -0.03291,0.09872 -0.122498,0.140761 -0.19909,0.09342 -0.199518,-0.123308 -1.273079,0.353346 -1.273079,0.565239 0,0.09766 -0.06748,0.135857 -0.149968,0.08488 -0.469707,-0.290296 -3.037981,2.654923 -2.817088,3.230557 0.04273,0.111353 -4.8e-4,0.20246 -0.09591,0.20246 -0.09548,0 -0.135951,0.143966 -0.08994,0.319925 0.04602,0.175959 0.01842,0.319925 -0.06133,0.319925 -0.07974,0 -0.144987,0.395907 -0.144987,0.879794 0,0.483886 0.06524,0.879794 0.144987,0.879794 0.07974,0 0.110146,0.133236 0.06756,0.296077 -0.04258,0.162844 0.01814,0.398504 0.134948,0.523687 0.116806,0.125185 0.234684,0.328816 0.261951,0.452515 0.157404,0.714045 1.206468,1.59561 2.411011,2.026055 0.617232,0.220567 3.217763,0.302068 3.218552,0.100869 z"
   id="path835"
   inkscape:connector-curvature="0"
   transform="scale(10)" /></svg>