<?xml version="1.0" encoding="utf-8"?>
<!-- Generator: Adobe Illustrator 17.1.0, SVG Export Plug-In . SVG Version: 6.00 Build 0)  -->
<!DOCTYPE svg PUBLIC "-//W3C//DTD SVG 1.1//EN" "http://www.w3.org/Graphics/SVG/1.1/DTD/svg11.dtd">
<svg version="1.1" id="ai-illustrator-file" xmlns="http://www.w3.org/2000/svg" xmlns:xlink="http://www.w3.org/1999/xlink"
	 x="0px" y="0px" viewBox="0 0 1009.9922 1009.9917" enable-background="new 0 0 1009.9922 1009.9917" xml:space="preserve">
<path id="ai-illustrator-file-label" fill="#FFFFFF" d="M504.9961,0C226.0977,0,0,226.0972,0,504.9956
	s226.0977,504.9961,504.9961,504.9961s504.9961-226.0977,504.9961-504.9961S783.8945,0,504.9961,0z"/>
<g id="ai-illustrator-file-shadow">
	<path opacity="0.1" fill="#434A54" d="M1005.4551,520.481c-0.9375-1.0518-1.9395-2.0713-3.0088-3.0088
		c-0.9199-1.0352-1.8896-2.0215-2.9424-2.9414c-0.9365-1.0528-1.9229-2.0391-2.9746-2.9766
		c-0.9209-1.0508-1.9072-2.0371-2.959-2.9746c-0.954-1.0528-1.9404-2.0391-2.9922-2.9756
		c-0.9375-1.0518-1.9072-2.0381-2.9589-2.9756c-0.9375-1.0351-1.9073-2.0215-2.959-2.959c-0.9532-1.0517-1.924-2.0381-2.9922-2.959
		c-0.9199-1.0683-1.9063-2.0546-2.9756-2.9921c-0.9365-1.0508-1.9229-2.0372-2.9746-2.959
		c-0.9209-1.0508-1.9072-2.0371-2.959-2.9746c-0.9209-1.0528-1.9072-2.0215-2.959-2.959c-0.9375-1.0684-1.9238-2.0547-2.9922-2.9756
		c-0.9209-1.0684-1.9072-2.0547-2.959-2.9917c-0.9365-1.0523-1.9228-2.0386-2.9755-2.959
		c-0.9366-1.0522-1.9229-2.0386-2.9756-2.9756c-0.9199-1.0517-1.9062-2.022-2.958-2.959c-0.9375-1.0683-1.9405-2.0546-2.9922-2.9917
		c-0.9209-1.0356-1.8906-2.0053-2.9258-2.9262c-0.9375-1.0684-1.9404-2.0547-2.9922-2.9917
		c-0.9209-1.0523-1.9072-2.0386-2.9756-2.9756c-0.9365-1.0518-1.9229-2.0381-2.9756-2.959
		c-0.9199-1.0684-1.9062-2.0547-2.9755-2.9917c-0.9366-1.0518-1.9063-2.022-2.9424-2.959
		c-0.9532-1.0517-1.9395-2.0381-2.9912-2.9751c-0.9209-1.0522-1.9073-2.022-2.959-2.959c-0.9375-1.0688-1.9239-2.0385-2.9756-2.9756
		c-0.9375-1.0522-1.9238-2.0385-2.9756-2.9755c-0.9209-1.0518-1.9072-2.0381-2.959-2.9751
		c-0.9531-1.0523-1.9394-2.0386-2.9912-2.9756c-0.9209-1.0357-1.9072-2.022-2.959-2.9424c-0.9209-1.0523-1.9072-2.0386-2.959-2.9756
		c-0.9375-1.0683-1.9404-2.0547-2.9921-3.0083c-0.9375-1.0517-1.9073-2.022-2.959-2.9424c-0.9209-1.0522-1.9072-2.0385-2.959-2.9756
		c-0.9531-1.0517-1.9395-2.038-2.9922-2.9751c-0.9199-1.0522-1.9063-2.0219-2.959-2.9423c-0.9199-1.0689-1.9062-2.0552-2.959-2.9922
		c-0.9531-1.0518-1.9395-2.0547-3.0078-2.9917c-0.9209-1.0523-1.8906-2.022-2.9424-2.9424
		c-0.9375-1.0689-1.9238-2.0386-2.9756-2.9756c-0.9375-1.0522-1.9238-2.0547-2.9921-2.9917
		c-0.92-1.0356-1.8907-2.0054-2.9092-2.9263c-0.9542-1.0517-1.9395-2.0547-3.0244-2.9917c-0.9209-1.0522-1.9073-2.0385-2.959-2.9755
		c-0.9375-1.0684-1.9238-2.0381-2.9756-2.9751c-0.9375-1.0523-1.9238-2.0386-2.9756-2.959c-0.9209-1.0523-1.9072-2.0386-2.959-2.959
		c-0.9209-1.0689-1.9072-2.0552-2.9756-2.9922c-0.9365-1.0518-1.9072-2.0381-2.9589-2.9585
		c-0.9366-1.0522-1.9229-2.0386-2.9756-2.9756c-0.9366-1.0522-1.9063-2.0386-2.959-2.9756
		c-0.9531-1.0517-1.9395-2.0381-2.9912-2.9751c-0.9209-1.0522-1.9073-2.0219-2.959-2.959
		c-0.9375-1.0688-1.9072-2.0385-2.9756-2.9755c-0.9375-1.0523-1.9072-2.0386-2.959-2.959
		c-0.9375-1.0518-1.9238-2.0381-2.9756-2.9917c-0.9365-1.0523-1.9394-2.0386-2.9911-2.9756c-0.9209-1.0518-1.9072-2.022-2.959-2.959
		c-0.9209-1.0356-1.9072-2.022-2.9266-2.9424c-0.9531-1.0683-1.9395-2.0713-3.0244-3.0083
		c-0.9209-1.0522-1.9073-2.0386-2.9756-2.9756c-0.921-1.0356-1.8906-2.0053-2.9424-2.9257
		c-0.9375-1.085-1.9395-2.0713-2.9922-3.0083c-0.9199-1.0357-1.9062-2.022-2.959-2.9424c-0.9199-1.0689-1.9062-2.0552-2.9912-2.9922
		c-0.9209-1.0518-1.9072-2.0381-2.959-2.959c-0.9209-1.0518-1.9072-2.0381-2.959-2.9751c-0.9209-1.0356-1.9072-2.022-2.9589-2.959
		c-0.9375-1.0688-1.9405-2.0547-3.0089-3.0083c-0.9366-1.0522-1.9062-2.022-2.9424-2.9424
		c-0.9365-1.0522-1.9063-2.0385-2.959-2.9756c-0.9365-1.0522-1.9228-2.0385-2.9912-2.9589
		c-0.9209-1.0523-1.9072-2.0386-2.959-2.9756c-0.9375-1.0684-1.9238-2.0547-2.9922-2.9917c-0.9209-1.0523-1.9072-2.022-2.959-2.959
		c-0.9209-1.0518-1.9072-2.022-2.9589-2.9424c-0.9209-1.0683-1.9073-2.0547-2.9756-2.9917
		c-0.9366-1.0688-1.9229-2.0552-2.9756-2.9922c-0.9365-1.0517-1.9062-2.0219-2.959-2.9424
		c-0.9365-1.0683-1.9395-2.0546-2.9912-3.0083c-0.9375-1.0522-1.9238-2.0385-2.9756-2.9589
		c-0.9375-1.0523-1.9072-2.022-2.9424-2.9424c-0.9375-1.0523-1.9072-2.0386-2.959-2.9756
		c-0.9531-1.0518-1.9394-2.0381-2.9922-2.9751c-0.9199-1.0523-1.9062-2.0386-2.9589-2.9756
		c-0.9366-1.0522-1.9395-2.0386-2.9913-2.959c-0.9209-1.0683-1.9072-2.0547-2.9755-2.9917c-0.9375-1.0522-1.9073-2.022-2.9424-2.959
		c-0.954-1.0522-1.9405-2.0385-2.9922-2.9589c-0.9209-1.0523-1.9072-2.0386-2.959-2.959c-0.9209-1.085-1.9228-2.0713-2.9922-3.0083
		c-6.164-6.9864-15.0742-11.4742-25.1347-11.4742H437.6631L269.3316,404.0132v134.6484V740.644
		c0,10.0606,4.5044,18.9864,11.4907,25.1514c0.9287,1.0518,1.915,2.0381,2.9668,2.9756c0.9375,1.0517,1.915,2.0381,2.9756,2.959
		c0.9287,1.0517,1.915,2.0381,2.9672,2.9746c0.9371,1.0683,1.9151,2.039,2.9751,2.9756c0.9288,1.0517,1.9151,2.0381,2.9673,2.959
		c0.937,1.0683,1.9156,2.0546,2.9756,2.9921c0.9287,1.0518,1.9151,2.0381,2.9673,2.959c0.9365,1.0518,1.9229,2.0381,2.9751,2.9756
		c0.9292,1.0518,1.9067,2.0215,2.959,2.959c0.937,1.0518,1.9155,2.0381,2.9673,2.9745c0.937,1.0527,1.9233,2.0391,2.9917,2.9922
		c0.9204,1.0352,1.8989,2.0059,2.9507,2.9424c0.9287,1.0683,1.915,2.0547,2.9755,2.9756c0.937,1.0517,1.9234,2.038,2.9756,2.9755
		c0.9287,1.0518,1.9151,2.0381,2.9668,2.9756c0.9287,1.0518,1.9151,2.0381,2.9673,2.959c0.937,1.0518,1.9155,2.0381,2.9751,2.9746
		c0.9375,1.0528,1.9238,2.0391,2.9756,2.9756c0.9287,1.0518,1.9072,2.0225,2.9512,2.9424c0.9365,1.0684,1.9316,2.0547,2.9917,3.0088
		c0.9287,1.0351,1.9067,2.0049,2.9506,2.9424c0.9371,1.0683,1.9317,2.0547,2.9917,2.9922c0.9292,1.0517,1.9068,2.0214,2.959,2.9423
		c0.937,1.0684,1.9234,2.0713,2.9839,2.9913c0.9287,1.0527,1.9068,2.039,2.9502,2.9589c0.9375,1.0528,1.9238,2.0391,2.9839,2.9922
		c0.9292,1.0518,1.9155,2.0381,2.9673,2.959c0.9287,1.0518,1.9067,2.0381,2.959,2.959c0.937,1.0684,1.9316,2.0547,2.9917,2.9922
		c0.9204,1.0517,1.8989,2.0215,2.9428,2.9424c0.9449,1.0683,1.9395,2.0546,3,3.0078c0.9287,1.0361,1.8985,2.0058,2.9424,2.9267
		c0.9453,1.084,1.9317,2.0703,3,3.0078c0.9287,1.0518,1.8985,2.0215,2.9424,2.9424c0.937,1.0684,1.9316,2.0547,2.9922,2.9922
		c0.9287,1.0518,1.9067,2.0381,2.959,2.959c0.9365,1.0518,1.9228,2.0381,2.9834,2.9911c0.9287,1.0527,1.9067,2.0225,2.959,2.959
		c0.9365,1.0527,1.9316,2.0391,2.9921,2.9922c0.9288,1.0517,1.8985,2.0058,2.9502,2.9424c0.9287,1.0517,1.9151,2.0381,2.9678,2.9756
		c0.9365,1.0517,1.9307,2.038,3,2.9921c0.9199,1.0352,1.8897,2.0049,2.9336,2.9258c0.9453,1.0684,1.9316,2.0713,3,2.9922
		c0.9209,1.0518,1.8994,2.0381,2.9512,2.959c0.9287,1.0517,1.9072,2.0381,2.9668,2.959c0.9287,1.0683,1.915,2.0547,2.9756,2.9912
		c0.9375,1.0517,1.9316,2.0547,2.9921,2.9922c0.92,1.0351,1.8907,2.0049,2.9424,2.9258c0.9287,1.0683,1.9151,2.0546,2.9756,2.9921
		c0.9365,1.0518,1.9229,2.0381,2.9756,2.9756c0.9287,1.0518,1.915,2.0381,2.9746,2.9746c0.9287,1.0528,1.9072,2.0391,2.9678,2.959
		c0.9199,1.0528,1.8984,2.0391,2.9424,2.959c0.9453,1.0684,1.9394,2.0714,3.0078,3.0089c0.9287,1.0352,1.9072,2.0215,2.959,2.9424
		c0.9287,1.0517,1.915,2.0381,2.9677,2.9756c0.9287,1.0517,1.9063,2.0214,2.9502,2.9589c0.9453,1.0684,1.9405,2.0547,3.0166,3.0079
		c0.9209,1.0517,1.8985,2.0224,2.9512,2.9589c0.9287,1.0518,1.915,2.0381,2.9668,2.959c0.9375,1.0518,1.9238,2.0547,2.9922,2.9922
		c0.9199,1.0518,1.8984,2.0049,2.9424,2.9424c0.9365,1.0518,1.915,2.0381,2.9756,2.9756c0.9287,1.0517,1.9062,2.0381,2.9668,2.959
		c0.9375,1.0683,1.9238,2.0713,2.9834,2.9912c0.9287,1.0527,1.915,2.039,2.9677,2.959c0.9287,1.0683,1.9151,2.039,2.9756,2.9922
		c0.9199,1.0351,1.8897,2.0058,2.9336,2.9257c0.9453,1.085,1.9483,2.0713,3.0166,3.0254c0.9287,1.0518,1.9072,2.0215,2.959,2.959
		c0.9375,1.0518,1.915,2.0381,2.9756,2.959c0.9209,1.0518,1.8984,2.0215,2.9424,2.9424c0.9375,1.0683,1.9238,2.0547,2.9834,2.9912
		c0.9375,1.0527,1.9238,2.0547,2.9843,2.9756c0.9287,1.0517,1.9151,2.0381,2.9668,2.959c0.9287,1.0517,1.9073,2.038,2.9502,2.9589
		c0.9375,1.0684,1.9239,2.0547,2.9844,2.9922c0.9365,1.0518,1.9229,2.0381,2.9756,2.9756c0.9287,1.0518,1.9062,2.0215,2.958,2.959
		c0.9375,1.0684,1.9238,2.0547,2.9756,2.9745c0.9375,1.0527,1.9238,2.0391,2.9844,2.9756c0.0322,0.0498,0.0732,0.082,0.1142,0.1152
		c263.3399-10.0273,474.9219-221.6259,484.9658-484.9736c-0.3779-0.3613-0.707-0.7559-1.1015-1.1016
		C1007.4766,522.3882,1006.4902,521.4018,1005.4551,520.481z"/>
</g>
<g id="ai-illustrator-file-ai-illustrator-file">
	<path fill="#FC6E51" d="M437.6631,235.6811h269.3311c18.6093,0,33.6669,15.0909,33.6669,33.6666V740.644
		c0,18.6085-15.0576,33.6661-33.6669,33.6661H302.9981c-18.5762,0-33.6665-15.0576-33.6665-33.6661V404.0132L437.6631,235.6811z"/>
	<path fill="#434A54" d="M437.6631,235.6811v134.6656c0,18.6084-15.0576,33.6665-33.666,33.6665H269.3316L437.6631,235.6811z"/>
	<g>
		<path fill="#FFFFFF" d="M544.6953,617.189h-21.0088c-2.3672,0-4.3066-0.5918-5.8193-1.7754
			c-1.5117-1.1504-2.5967-2.6289-3.2871-4.3721l-10.8994-29.7861h-60.4942l-10.8984,29.7861
			c-0.5586,1.5459-1.6113,2.959-3.1895,4.2412c-1.5781,1.2822-3.5175,1.9062-5.8193,1.9062h-21.1074l57.3711-146.024h27.7812
			L544.6953,617.189z M450.1572,562.0386h46.5538l-17.7706-48.5606c-0.8212-2.1699-1.7089-4.7012-2.6787-7.6269
			c-0.9697-2.9268-1.9404-6.1153-2.8769-9.5352c-0.9531,3.4199-1.874,6.6084-2.7783,9.5674
			c-0.9043,2.9922-1.792,5.5566-2.6797,7.792L450.1572,562.0386z"/>
		<path fill="#FFFFFF" d="M590.3291,617.189h-27.2549V471.165h27.2549V617.189z"/>
	</g>
	<polygon opacity="0.2" fill="#32383F" points="403.9971,404.0132 269.3316,538.6616 269.3316,404.0132 	"/>
</g>
</svg>
