<?xml version="1.0" encoding="utf-8"?>
<!-- Generator: Adobe Illustrator 17.1.0, SVG Export Plug-In . SVG Version: 6.00 Build 0)  -->
<!DOCTYPE svg PUBLIC "-//W3C//DTD SVG 1.1//EN" "http://www.w3.org/Graphics/SVG/1.1/DTD/svg11.dtd">
<svg version="1.1" id="art-palette" xmlns="http://www.w3.org/2000/svg" xmlns:xlink="http://www.w3.org/1999/xlink" x="0px"
	 y="0px" viewBox="0 0 1009.9922 1009.9917" enable-background="new 0 0 1009.9922 1009.9917" xml:space="preserve">
<path id="art-palette-label" fill="#5D9CEC" d="M504.9961,0C226.0977,0,0,226.0972,0,504.9956s226.0977,504.9961,504.9961,504.9961
	s504.9961-226.0977,504.9961-504.9961S783.8945,0,504.9961,0z"/>
<g id="art-palette-shadow">
	<path opacity="0.15" fill="#434A54" d="M996.9893,598.3667c-0.8389-0.8379-1.6602-1.6758-2.5157-2.5147
		c-0.8378-0.8388-1.6601-1.6767-2.5146-2.5146c-0.8389-0.8379-1.6602-1.6768-2.5156-2.5156
		c-0.8379-0.8379-1.6602-1.6758-2.5146-2.5147c-0.8388-0.8222-1.6435-1.6611-2.4824-2.4824
		c-0.8877-0.8712-1.7422-1.7755-2.6465-2.6299c-0.789-0.789-1.5449-1.5781-2.334-2.3515c-0.9043-0.8868-1.7597-1.7911-2.6797-2.6622
		c-0.789-0.789-1.5615-1.5957-2.3671-2.3847c-0.8712-0.8711-1.7266-1.7578-2.6143-2.6133
		c-0.8379-0.8379-1.6768-1.6934-2.5312-2.5313c-0.8223-0.8222-1.6436-1.6601-2.4825-2.4824
		c-0.8379-0.8379-1.6601-1.6767-2.5146-2.5156c-0.8389-0.838-1.6602-1.6758-2.5156-2.5146
		c-0.8379-0.8389-1.6602-1.6768-2.5147-2.5146c-0.8389-0.8223-1.6445-1.6602-2.4824-2.4824
		c-0.8545-0.8555-1.6934-1.71-2.5479-2.5645c-0.8388-0.8222-1.6435-1.6601-2.499-2.4824c-0.8877-0.8878-1.7588-1.7755-2.6631-2.6631
		c-0.789-0.7724-1.5449-1.5615-2.334-2.3174c-0.8711-0.8711-1.7264-1.7597-2.6142-2.6308
		c-0.8213-0.8047-1.6104-1.6436-2.4492-2.4326c-0.8546-0.8545-1.6768-1.7256-2.5479-2.5645
		c-0.8379-0.8389-1.6601-1.6768-2.5146-2.5146c-0.8389-0.8389-1.6602-1.6778-2.5157-2.5157
		c-0.8379-0.8379-1.6601-1.6767-2.5146-2.5156c-0.8223-0.8047-1.6113-1.6426-2.4492-2.4492
		c-0.8877-0.8867-1.7432-1.7754-2.6309-2.6299c-0.8213-0.8214-1.6269-1.6436-2.4492-2.4492
		c-0.8545-0.8545-1.6934-1.7256-2.5645-2.5645c-0.8379-0.8213-1.6435-1.6767-2.499-2.499c-0.8545-0.8379-1.6924-1.709-2.5478-2.5478
		c-0.8214-0.8057-1.6104-1.6436-2.4493-2.4327c-0.8544-0.8554-1.6767-1.7265-2.5478-2.5644
		c-0.8379-0.8379-1.6602-1.6768-2.5147-2.5156c-0.8388-0.8379-1.6611-1.6758-2.5156-2.5147
		c-0.838-0.8388-1.6601-1.6767-2.5146-2.5146c-0.8389-0.8223-1.6446-1.6602-2.4824-2.4825c-0.8711-0.8554-1.71-1.7265-2.5811-2.581
		c-0.8389-0.8223-1.6436-1.6611-2.499-2.4824c-0.8545-0.8711-1.709-1.7432-2.5801-2.5967
		c-0.8057-0.7891-1.5781-1.5957-2.3838-2.3672c-0.8711-0.8711-1.7266-1.7598-2.6143-2.6309
		c-0.8212-0.8046-1.6103-1.6435-2.4492-2.4326c-0.8545-0.8545-1.6767-1.7256-2.5477-2.5644
		c-0.8389-0.8389-1.6602-1.6768-2.5156-2.5147c-0.8379-0.8388-1.6602-1.6772-2.5147-2.5156
		c-0.8389-0.8384-1.6602-1.6768-2.5146-2.5151c-0.8223-0.8057-1.6114-1.6441-2.4502-2.4497
		c-0.9034-0.9038-1.7911-1.8081-2.712-2.6958c-0.789-0.7891-1.5615-1.5943-2.3671-2.3833c-0.8545-0.8384-1.6934-1.71-2.5645-2.5484
		c-0.8223-0.8218-1.6279-1.6601-2.4658-2.4658c-0.8711-0.8711-1.71-1.7422-2.5811-2.5972c-0.8221-0.8056-1.6113-1.644-2.4492-2.4331
		c-0.8545-0.8545-1.6767-1.7261-2.5478-2.5644c-0.8389-0.8384-1.6602-1.6768-2.5157-2.5152
		c-0.8379-0.8379-1.6601-1.6762-2.5146-2.5146c-0.8389-0.8384-1.6602-1.6768-2.5156-2.5152
		c-0.838-0.8383-1.6602-1.6767-2.4981-2.499c-0.8711-0.8711-1.7099-1.7422-2.5976-2.5805c-0.7891-0.7891-1.5284-1.5782-2.334-2.3511
		c-0.9209-0.9038-1.8086-1.8408-2.7451-2.7451c-0.8057-0.7891-1.5782-1.5948-2.3838-2.3672
		c-0.8546-0.8711-1.6934-1.7427-2.5811-2.5811c-0.8223-0.8218-1.6269-1.6601-2.4492-2.4653
		c-0.8545-0.8384-1.6768-1.71-2.5479-2.5483c-0.8388-0.8384-1.6601-1.6768-2.5156-2.5152
		c-0.8379-0.8384-1.6601-1.6767-2.5146-2.5151c-0.8389-0.8384-1.6602-1.6768-2.5157-2.5152
		c-0.8378-0.8217-1.6435-1.6767-2.498-2.4985c-0.8555-0.855-1.6934-1.7095-2.5479-2.5478
		c-0.8388-0.8223-1.6279-1.6607-2.4824-2.4659c-0.8554-0.8549-1.6933-1.726-2.5645-2.5644
		c-0.8057-0.8218-1.5948-1.6441-2.4336-2.4492c-0.9033-0.9043-1.791-1.8086-2.6953-2.6963
		c-0.7891-0.7725-1.5459-1.5615-2.335-2.3179c-0.8711-0.8711-1.709-1.7422-2.5801-2.5972
		c-0.8388-0.8383-1.6611-1.6767-2.5156-2.5151c-0.8379-0.8384-1.6602-1.6768-2.5146-2.5151
		c-0.8389-0.8384-1.6602-1.6768-2.5157-2.5152c-0.838-0.8384-1.6602-1.6767-2.5146-2.5151
		c-0.8389-0.8384-1.6602-1.6768-2.5156-2.5151c-0.8213-0.8052-1.6104-1.6436-2.4327-2.4493
		c-0.9042-0.8877-1.7754-1.792-2.6797-2.6631c-0.8056-0.789-1.5781-1.5947-2.3837-2.3837
		c-0.8711-0.8711-1.7256-1.7588-2.6133-2.6138c-0.8389-0.8218-1.6446-1.6768-2.499-2.4819
		c-0.8379-0.8384-1.6436-1.6934-2.4981-2.5152c-0.8389-0.8384-1.6611-1.6767-2.5156-2.5151
		c-0.8379-0.8384-1.6602-1.6768-2.5147-2.5152c-0.8387-0.8383-1.6611-1.6767-2.5156-2.5151
		c-0.8379-0.8384-1.6601-1.6767-2.5146-2.5151c-0.8389-0.8384-1.6612-1.6768-2.5157-2.5152
		c-0.8222-0.8217-1.6269-1.6601-2.4658-2.4658c-0.8711-0.8711-1.709-1.7427-2.5967-2.5972
		c-0.8056-0.8056-1.5947-1.6274-2.4336-2.4331c-0.9199-0.9204-1.8076-1.8247-2.7451-2.7285
		c-0.7558-0.7563-1.4961-1.5288-2.2686-2.2685c-0.8711-0.8716-1.7256-1.7593-2.6133-2.6304
		c-0.8389-0.8218-1.6445-1.6602-2.4824-2.4824c-0.8555-0.8384-1.6768-1.6929-2.5323-2.5313
		c-55.5625-55.2011-140.287-90.5278-235.3027-90.5278c-167.3291,0-302.981,109.4155-302.981,244.3769
		c0,3.1075,0.3946,5.918,0.6246,8.8614c-0.23,3.3535-0.6246,6.6738-0.6246,10.0761c0,28.8165,8.022,51.5196,24.5264,66.9551
		c0.8218,0.8545,1.6441,1.6934,2.4986,2.4981c0.8388,0.8711,1.6767,1.7422,2.5644,2.5644c0.8223,0.8555,1.6279,1.6934,2.499,2.4991
		c0.8218,0.8544,1.6436,1.6933,2.4986,2.5146c0.8217,0.8389,1.644,1.6934,2.4985,2.499c0.8223,0.8545,1.6602,1.71,2.5317,2.5322
		c0.8218,0.8536,1.6602,1.709,2.5318,2.5313c0.8218,0.8379,1.6435,1.6934,2.4985,2.498c0.8218,0.8555,1.644,1.71,2.5317,2.5157
		c0.8218,0.8711,1.6602,1.7265,2.5312,2.5478c0.8223,0.8545,1.6436,1.6934,2.5312,2.5147c0.8057,0.8388,1.6279,1.6777,2.499,2.499
		c0.8223,0.8389,1.6436,1.6934,2.4991,2.5146c0.8213,0.8389,1.6435,1.6934,2.5146,2.4991c0.8057,0.8545,1.6275,1.6933,2.4825,2.499
		c0.8545,0.8711,1.6933,1.7422,2.581,2.581c0.8052,0.8379,1.627,1.6768,2.482,2.4815c0.8383,0.8555,1.6767,1.7266,2.5644,2.5488
		c0.7891,0.8379,1.6108,1.6768,2.4658,2.4658c0.8218,0.8545,1.6607,1.7256,2.5318,2.5313c0.8217,0.8545,1.6435,1.7099,2.5146,2.5312
		c0.8223,0.8389,1.6441,1.6934,2.5156,2.4991c0.8218,0.8545,1.6436,1.7089,2.5313,2.5312c0.8223,0.8555,1.644,1.6934,2.499,2.499
		c0.8218,0.8545,1.6436,1.71,2.5147,2.5313c0.8388,0.8545,1.6601,1.7099,2.5317,2.5156c0.8052,0.838,1.6274,1.6768,2.4819,2.4815
		c0.8389,0.871,1.6768,1.7431,2.5645,2.581c0.8057,0.8223,1.6113,1.6611,2.4658,2.4503c0.8389,0.8711,1.6768,1.7422,2.5811,2.5801
		c0.8056,0.8389,1.6274,1.6767,2.4824,2.4824c0.8218,0.8546,1.6435,1.71,2.5151,2.5313c0.8384,0.8554,1.6602,1.7099,2.5479,2.5322
		c0.8051,0.8379,1.6274,1.6767,2.4985,2.498c0.8223,0.8555,1.644,1.6934,2.5156,2.5157c0.8052,0.8378,1.627,1.6923,2.4981,2.499
		c0.8222,0.8545,1.6445,1.709,2.5156,2.5146c0.8218,0.8711,1.6602,1.7256,2.5313,2.5313c0.8222,0.8545,1.6274,1.6933,2.499,2.499
		c0.8218,0.8545,1.6435,1.709,2.5146,2.5312c0.8223,0.8555,1.6607,1.71,2.5318,2.5313c0.8217,0.8555,1.6606,1.71,2.5317,2.5156
		c0.8057,0.8545,1.627,1.6934,2.4985,2.5156c0.8218,0.8379,1.6441,1.6924,2.5152,2.4981c0.8222,0.8555,1.6435,1.71,2.5151,2.5312
		c0.8218,0.8389,1.6441,1.6934,2.5151,2.4991c0.8218,0.8545,1.6436,1.7099,2.5152,2.5312c0.8384,0.8555,1.6601,1.71,2.5478,2.5322
		c0.8057,0.8379,1.6109,1.6768,2.4659,2.4659c0.8217,0.8711,1.6606,1.7256,2.5317,2.5478c0.8545,0.8711,1.6768,1.7256,2.5644,2.5479
		c0.8057,0.8388,1.6109,1.6601,2.4659,2.4492c0.8217,0.8711,1.6435,1.7256,2.5312,2.5478c0.8223,0.8555,1.6441,1.71,2.5152,2.5313
		c0.8383,0.8555,1.6606,1.71,2.5483,2.5322c0.8052,0.8379,1.6269,1.6768,2.4985,2.499c0.8218,0.8379,1.6441,1.6924,2.4986,2.4981
		c0.8222,0.8555,1.6435,1.7099,2.5312,2.5312c0.8223,0.8389,1.6445,1.6934,2.499,2.4991c0.8223,0.8545,1.6436,1.7099,2.4991,2.5146
		c0.8545,0.8555,1.6767,1.7266,2.5644,2.5488c0.7886,0.8223,1.5943,1.6602,2.4326,2.4493c0.8545,0.871,1.6934,1.7587,2.5972,2.581
		c0.8057,0.8546,1.6274,1.6924,2.4985,2.4981c0.8223,0.872,1.6441,1.7265,2.5318,2.5479c0.8218,0.8389,1.644,1.6777,2.4985,2.4824
		c0.8223,0.8555,1.6445,1.71,2.5156,2.5312c0.8213,0.8389,1.6436,1.6934,2.5147,2.499c0.8222,0.8721,1.6435,1.71,2.5312,2.5322
		c0.8223,0.8545,1.6446,1.6934,2.4991,2.498c0.8388,0.8711,1.6767,1.7266,2.5478,2.5479c0.8057,0.8389,1.6279,1.6768,2.4824,2.4824
		c0.8223,0.8545,1.6436,1.71,2.5157,2.5156c0.8378,0.8711,1.6601,1.7256,2.5312,2.5478c0.8223,0.8379,1.6436,1.6934,2.5147,2.4981
		c0.8222,0.8554,1.6445,1.7099,2.5156,2.5156c0.8379,0.8711,1.6601,1.7266,2.5478,2.5312c0.8057,0.8554,1.627,1.6933,2.4991,2.5156
		c0.8212,0.8379,1.6435,1.6933,2.498,2.5146c0.8223,0.8389,1.6445,1.6934,2.5322,2.499c0.8213,0.8545,1.6436,1.709,2.5147,2.5313
		c0.8056,0.8389,1.6279,1.6768,2.4824,2.4824c0.8223,0.8711,1.6602,1.7266,2.5478,2.5479c0.8057,0.8545,1.627,1.6933,2.5147,2.5146
		c0.8223,0.8555,1.6445,1.71,2.499,2.5156c0.8389,0.8555,1.6602,1.71,2.5313,2.5313c0.8222,0.8389,1.6279,1.6777,2.499,2.4824
		c0.8223,0.8711,1.6768,1.7266,2.5644,2.5645c0.8057,0.8388,1.6114,1.6767,2.4825,2.4824c0.8222,0.8545,1.6601,1.71,2.5146,2.5312
		c0.8223,0.8389,1.6445,1.6934,2.499,2.4991c0.8545,0.8711,1.6768,1.7256,2.5645,2.5478c0.8223,0.8379,1.6269,1.6768,2.4824,2.4824
		c0.8213,0.8545,1.6436,1.709,2.5147,2.5157c0.8222,0.8545,1.6445,1.7089,2.5156,2.5146c0.8379,0.8712,1.6601,1.7256,2.5478,2.5479
		c0.8223,0.8545,1.627,1.6933,2.4991,2.499c0.8213,0.8545,1.6435,1.7256,2.5312,2.5312c0.8223,0.8545,1.627,1.6934,2.499,2.4991
		c0.8213,0.8545,1.6602,1.7089,2.5313,2.5312c0.8213,0.8546,1.6435,1.6934,2.498,2.4981c0.8223,0.8554,1.6446,1.7099,2.5323,2.5322
		c0.8056,0.8389,1.6269,1.6767,2.498,2.499c0.8223,0.8546,1.6445,1.709,2.5322,2.5313c0.8213,0.8544,1.627,1.6933,2.4825,2.498
		c0.8378,0.8721,1.6923,1.7432,2.58,2.5645c0.8057,0.8388,1.6114,1.6777,2.4659,2.4668c0.8222,0.8544,1.6445,1.6923,2.499,2.5146
		c0.8222,0.8545,1.6767,1.7256,2.5478,2.5479c0.8223,0.8378,1.6436,1.6933,2.5157,2.499c0.8212,0.8711,1.6767,1.7256,2.5478,2.5644
		c0.8057,0.8379,1.627,1.6768,2.4824,2.4659c0.8213,0.8544,1.6436,1.7089,2.5313,2.5312c0.8222,0.8379,1.6435,1.6934,2.499,2.5156
		c0.8379,0.8379,1.6602,1.6924,2.5146,2.4981c0.838,0.8711,1.6602,1.7265,2.5313,2.5312c0.8057,0.8389,1.6113,1.6778,2.4658,2.4668
		c0.8389,0.8711,1.6602,1.7422,2.5479,2.5645c0.8387,0.8711,1.6767,1.7256,2.5644,2.5634c0.8057,0.8389,1.628,1.6612,2.4824,2.4659
		c0.8057,0.8388,1.6281,1.6933,2.4991,2.5156c0.8379,0.8545,1.6601,1.709,2.5312,2.5146c0.8389,0.8721,1.6602,1.7266,2.5479,2.5479
		c0.8056,0.8389,1.6279,1.6777,2.4824,2.4824c0.8223,0.8555,1.6601,1.71,2.5312,2.5313c0.8057,0.8388,1.6281,1.6933,2.4825,2.499
		c0.8388,0.8545,1.6601,1.71,2.5478,2.5322c0.8057,0.8379,1.6113,1.6758,2.4658,2.4815c0.8555,0.872,1.6934,1.7431,2.5811,2.581
		c0.8057,0.8389,1.6113,1.6602,2.4658,2.4658c0.8555,0.8711,1.6934,1.7432,2.5977,2.5811c0.8056,0.8379,1.6269,1.6767,2.4658,2.4658
		c0.8213,0.8546,1.6601,1.71,2.5312,2.5313c0.8223,0.8388,1.6436,1.6933,2.4991,2.499c0.8213,0.8545,1.6601,1.709,2.5312,2.5312
		c0.8223,0.8389,1.6436,1.6934,2.5156,2.5157c0.8214,0.8379,1.6436,1.6933,2.5147,2.5146c0.8056,0.8389,1.6279,1.6768,2.4824,2.4824
		c0.8379,0.8711,1.6602,1.7256,2.5479,2.5479c0.8222,0.8555,1.6435,1.7099,2.5146,2.5156c0.8223,0.8546,1.6445,1.6934,2.5156,2.5147
		c0.8223,0.8544,1.6602,1.7255,2.5479,2.5478c0.789,0.8223,1.5947,1.6602,2.4326,2.4492c0.8555,0.8711,1.71,1.7598,2.5977,2.5977
		c0.8222,0.8379,1.6279,1.6767,2.4824,2.4658c0.8222,0.8545,1.6602,1.71,2.5312,2.5312c0.8223,0.8388,1.6446,1.6933,2.4991,2.499
		c0.8212,0.8545,1.6601,1.709,2.5312,2.5312c0.8223,0.8555,1.6436,1.71,2.5156,2.5157c0.8213,0.8544,1.627,1.6933,2.498,2.498
		c0.8222,0.8555,1.6445,1.71,2.5156,2.5156c0.8213,0.8545,1.6436,1.6934,2.498,2.5147c0.8389,0.8554,1.6612,1.7265,2.5489,2.5478
		c0.8214,0.8555,1.6602,1.71,2.5312,2.5322c0.8223,0.8379,1.6436,1.6924,2.5147,2.4991c0.8055,0.8379,1.6279,1.6924,2.4824,2.4814
		c0.8389,0.8721,1.6768,1.7432,2.5644,2.5645c0.8057,0.8388,1.628,1.6933,2.4825,2.4824c0.8221,0.8545,1.6601,1.71,2.5312,2.5312
		c0.8057,0.8389,1.6279,1.6934,2.499,2.4991c0.8223,0.8545,1.6436,1.7099,2.5147,2.5312c0.8389,0.8555,1.6611,1.71,2.5488,2.5322
		c0.7891,0.8213,1.5938,1.6602,2.4326,2.4493c0.2462,0.2461,0.4932,0.4931,0.7393,0.7392
		c184.0801-49.9072,326.374-201.2422,363.1631-390.3525c-0.3613-0.3613-0.7227-0.7237-1.085-1.085
		C998.666,600.0444,997.8438,599.2056,996.9893,598.3667z"/>
</g>
<g id="art-palette-art-palette">
	<g>
		<path fill="#CCD1D9" d="M303.0142,504.5356c12.9536,0,24.2309,6.8711,30.5757,17.1455
			c3.4199-5.5234,5.4912-11.9668,5.4912-18.9375c0-19.9394-16.1431-36.083-36.0669-36.083c-19.94,0-36.0664,16.1436-36.0664,36.083
			c0,6.9707,2.0713,13.4141,5.4741,18.9375C278.7837,511.4067,290.0606,504.5356,303.0142,504.5356z"/>
		<path fill="#FFFFFF" d="M504.9961,251.1499c-167.3291,0-302.981,109.4155-302.981,244.3769
			c0,6.2305,0.5093,12.0665,1.2496,17.7383c8.2851,62.4825,62.582,88.916,171.8828,61.6114
			c86.5654-21.6495,55.6943,165.0117,129.8486,165.0117c159.4063,0,289.7979-99.3223,301.8145-225.4239
			c0.5918-6.2636,1.1992-12.5429,1.1992-18.9375C808.0098,360.5654,672.3418,251.1499,504.9961,251.1499z M333.5899,521.6811
			c-6.3448,10.2413-17.6221,17.129-30.5757,17.129c-12.9536,0-24.2305-6.8877-30.5923-17.129
			c-3.4028-5.5234-5.4741-11.9668-5.4741-18.9375c0-19.9394,16.1264-36.083,36.0664-36.083
			c19.9238,0,36.0669,16.1436,36.0669,36.083C339.0811,509.7143,337.0098,516.1577,333.5899,521.6811z"/>
		<path fill="#E0E3E8" d="M504.9961,720.9507c-74.1543,0-43.2832-186.6778-129.8486-165.0274
			c-109.3008,27.3369-163.5977,0.8868-171.8828-61.5957c-0.6578,6.6573-1.2496,13.3145-1.2496,20.1367
			c0,75.1407,53.9517,109.1524,173.1324,79.3165c86.5654-21.6172,55.6943,165.0605,129.8486,165.0605
			c167.3457,0,303.0137-109.415,303.0137-244.377c0-6.3945-0.6074-12.6738-1.1992-18.9375
			C794.794,621.6118,664.4024,720.9507,504.9961,720.9507z"/>
	</g>
	<g>
		<path fill="#FC6E51" d="M458.6885,338.4883c-1.249-24.1153,17.3096-44.6475,41.3926-45.8965
			c24.1152-1.2329,44.6806,17.31,45.8965,41.3926c1.25,24.1318-17.293,44.6967-41.3926,45.9458
			C480.4697,381.1797,459.9053,362.6206,458.6885,338.4883z"/>
		<path opacity="0.15" d="M500.8047,307.1562c-21.6006,1.1182-38.5986,17.7867-40.998,38.5982
			c-0.5596-2.3672-1.0196-4.7671-1.1182-7.2661c-1.249-24.1153,17.3096-44.6475,41.3926-45.8965
			c24.1152-1.2329,44.6806,17.31,45.8965,41.3926c0.1484,2.4819-0.0821,4.9316-0.3282,7.3481
			C541.0957,320.8828,522.4541,306.0386,500.8047,307.1562z"/>
		<path fill="#AAB2BC" d="M627.0039,490.3325c-1.2324-24.1157,17.3262-44.664,41.3926-45.897
			c24.1152-1.249,44.6973,17.2935,45.9463,41.3765c1.2324,24.1318-17.3262,44.6973-41.4258,45.9453
			C648.8018,532.9907,628.2529,514.4311,627.0039,490.3325z"/>
		<path fill="#5D9CEC" d="M577.3428,376.1821c-1.2168-24.0986,17.2939-44.7129,41.4258-45.9458
			c24.082-1.2495,44.6474,17.3428,45.8965,41.4253c1.2324,24.0991-17.294,44.6802-41.3926,45.9131
			C599.1729,418.8242,578.6084,400.2651,577.3428,376.1821z"/>
		<path fill="#A0D468" d="M344.5054,388.1826c-1.2329-24.0825,17.2934-44.7134,41.4092-45.9463
			c24.0991-1.2329,44.6635,17.3594,45.9135,41.4258c1.2325,24.1152-17.3105,44.6802-41.4091,45.9297
			C366.3032,430.8247,345.7549,412.249,344.5054,388.1826z"/>
		<path fill="#FFCE54" d="M589.376,609.0034c-1.249-24.0995,17.2773-44.6807,41.3926-45.9297
			c24.0986-1.2656,44.664,17.3096,45.8965,41.4414c1.2334,24.083-17.2774,44.6475-41.3926,45.8809
			C611.1406,651.645,590.6084,633.1186,589.376,609.0034z"/>
		<path opacity="0.15" d="M386.687,356.8013c-21.6333,1.1176-38.6469,17.8027-41.0639,38.5976
			c-0.5259-2.3506-0.9864-4.7012-1.1177-7.2163c-1.2329-24.0825,17.2934-44.7134,41.4092-45.9463
			c24.0991-1.2329,44.6635,17.3594,45.9135,41.4258c0.1143,2.5151-0.0664,4.9316-0.3623,7.2988
			C426.9287,370.5273,408.2871,355.7163,386.687,356.8013z"/>
		<path opacity="0.1" d="M619.5078,344.8008c-21.6006,1.1181-38.6308,17.7866-41.0635,38.5815
			c-0.5263-2.334-0.9541-4.685-1.1015-7.2002c-1.2168-24.0986,17.2939-44.7129,41.4258-45.9458
			c24.082-1.2495,44.6474,17.3428,45.8965,41.4253c0.1318,2.5152-0.0655,4.9317-0.378,7.2988
			C659.7666,358.5273,641.1416,343.7158,619.5078,344.8008z"/>
		<path opacity="0.15" d="M669.1856,459.0005c-21.6329,1.1011-38.6641,17.77-41.0635,38.581c-0.543-2.3672-0.9863-4.75-1.1182-7.249
			c-1.2324-24.1157,17.3262-44.664,41.3926-45.897c24.1152-1.249,44.6973,17.2935,45.9463,41.3765
			c0.1152,2.4981-0.0986,4.9473-0.3779,7.3643C709.4111,472.6938,690.7861,457.8823,669.1856,459.0005z"/>
		<path opacity="0.15" d="M631.5244,577.6216c-21.6328,1.1338-38.6474,17.8037-41.0468,38.5986
			c-0.5264-2.3018-1.003-4.7188-1.1016-7.2169c-1.249-24.0995,17.2773-44.6807,41.3926-45.9297
			c24.0986-1.2656,44.664,17.3096,45.8965,41.4414c0.1318,2.4825-0.0821,4.916-0.378,7.2832
			C671.75,591.3481,653.125,576.5366,631.5244,577.6216z"/>
	</g>
</g>
</svg>
