<?xml version="1.0" encoding="utf-8"?>
<!-- Generator: Adobe Illustrator 17.1.0, SVG Export Plug-In . SVG Version: 6.00 Build 0)  -->
<!DOCTYPE svg PUBLIC "-//W3C//DTD SVG 1.1//EN" "http://www.w3.org/Graphics/SVG/1.1/DTD/svg11.dtd">
<svg version="1.1" id="eps-file" xmlns="http://www.w3.org/2000/svg" xmlns:xlink="http://www.w3.org/1999/xlink" x="0px" y="0px"
	 viewBox="0 0 1009.9922 1009.9917" enable-background="new 0 0 1009.9922 1009.9917" xml:space="preserve">
<path id="eps-file-label" fill="#FFFFFF" d="M504.9961,0C226.0977,0,0,226.0972,0,504.9956s226.0977,504.9961,504.9961,504.9961
	s504.9961-226.0977,504.9961-504.9961S783.8945,0,504.9961,0z"/>
<g id="eps-file-shadow">
	<path opacity="0.1" fill="#434A54" d="M1006.2442,521.2202c-0.8057-0.8867-1.628-1.7256-2.5157-2.5312
		c-0.789-0.8711-1.6102-1.6934-2.498-2.4825c-0.8057-0.9043-1.6445-1.7588-2.5479-2.5468
		c-0.8056-0.8887-1.6279-1.7266-2.5156-2.5157c-0.7891-0.8711-1.6103-1.7099-2.498-2.499
		c-0.7891-0.9033-1.6281-1.7256-2.5323-2.5312c-0.789-0.8877-1.6269-1.7256-2.5146-2.5147
		c-0.7891-0.8887-1.6279-1.7109-2.5156-2.5156c-0.7891-0.8877-1.627-1.7266-2.5147-2.5156c-0.7891-0.8868-1.6113-1.709-2.499-2.4981
		c-0.8057-0.9043-1.6436-1.7422-2.5313-2.5488c-0.8056-0.9033-1.6601-1.7256-2.5478-2.5313
		c-0.7725-0.8711-1.5781-1.6601-2.4336-2.4492c-0.8213-0.9199-1.6768-1.7754-2.5967-2.5801
		c-0.7724-0.872-1.5781-1.6777-2.4336-2.4502c-0.8214-0.9209-1.6767-1.7753-2.5967-2.5971c-0.789-0.8877-1.6113-1.7095-2.499-2.4986
		c-0.789-0.8715-1.6269-1.7099-2.499-2.499c-0.8047-0.8877-1.6436-1.7095-2.5313-2.5146c-0.789-0.8877-1.6269-1.7261-2.5146-2.5152
		c-0.7891-0.8877-1.6279-1.726-2.5156-2.5317c-0.7891-0.8711-1.6104-1.6934-2.498-2.4985
		c-0.8056-0.8877-1.6445-1.7427-2.5488-2.5318c-0.7725-0.8711-1.5938-1.6933-2.4658-2.4658
		c-0.8047-0.9204-1.6768-1.7754-2.5801-2.5972c-0.7891-0.8715-1.6113-1.6767-2.4658-2.4658
		c-0.8057-0.8877-1.6446-1.7261-2.5323-2.5317c-0.8056-0.8877-1.6435-1.7095-2.5312-2.5313c-0.7891-0.8716-1.627-1.7099-2.499-2.499
		c-0.8047-0.8877-1.6436-1.7095-2.5312-2.5151c-0.789-0.8877-1.627-1.7261-2.5146-2.5152c-0.7891-0.8877-1.628-1.7094-2.5156-2.5151
		c-0.7891-0.8877-1.6114-1.7261-2.4991-2.5151c-0.8046-0.8877-1.6269-1.7095-2.5146-2.5152
		c-0.8057-0.8877-1.628-1.7256-2.5313-2.5146c-0.8055-0.9043-1.6445-1.7427-2.5477-2.5484
		c-0.7891-0.8877-1.6281-1.7094-2.499-2.5151c-0.7891-0.8711-1.6114-1.6768-2.4825-2.4658
		c-0.8056-0.9204-1.6601-1.7588-2.5644-2.5645c-0.7725-0.8711-1.5947-1.6928-2.4658-2.4819
		c-0.8057-0.8877-1.6436-1.7261-2.5479-2.5317c-0.7891-0.8877-1.6279-1.7261-2.5156-2.5152
		c-0.7891-0.8877-1.627-1.7095-2.5147-2.5151c-0.789-0.8877-1.6269-1.7261-2.5146-2.5152c-0.7891-0.8877-1.6279-1.726-2.5156-2.5312
		c-0.8057-0.8877-1.627-1.71-2.5147-2.499c-0.7891-0.8877-1.6279-1.7095-2.499-2.5152c-0.8057-0.8877-1.6436-1.726-2.5479-2.5478
		c-0.789-0.8711-1.6279-1.7095-2.5156-2.4986c-0.7891-0.8877-1.6269-1.726-2.5146-2.5317
		c-0.7891-0.8711-1.6281-1.7095-2.4991-2.4985c-0.8057-0.8877-1.627-1.7095-2.5146-2.4986
		c-0.8057-0.9043-1.6279-1.7426-2.5322-2.5317c-0.7891-0.8877-1.627-1.7095-2.5147-2.5151c-0.789-0.8877-1.6279-1.7261-2.499-2.5152
		c-0.8057-0.8877-1.627-1.7094-2.5147-2.5151c-0.8056-0.8711-1.6279-1.7095-2.5156-2.5152c-0.789-0.8876-1.6269-1.726-2.5312-2.5317
		c-0.7891-0.8877-1.628-1.7095-2.5313-2.5312c-0.789-0.8711-1.6279-1.7095-2.5156-2.4986c-0.7891-0.8877-1.627-1.7099-2.5147-2.5151
		c-0.789-0.8877-1.6279-1.71-2.499-2.5151c-0.8056-0.8877-1.627-1.71-2.5146-2.4991c-0.8057-0.9038-1.628-1.7422-2.5323-2.5312
		c-0.789-0.8877-1.6269-1.71-2.5146-2.5152c-0.7891-0.8877-1.6279-1.726-2.5156-2.5151c-0.7891-0.8877-1.627-1.7261-2.5312-2.5317
		c-0.7724-0.8711-1.5947-1.6929-2.4658-2.4659c-0.8223-0.9204-1.6768-1.7753-2.5811-2.5971
		c-0.7724-0.855-1.5947-1.6768-2.4492-2.4331c-0.8221-0.9204-1.6767-1.7754-2.581-2.5806
		c-0.7725-0.8716-1.5948-1.6934-2.4658-2.4824c-0.8057-0.8877-1.6436-1.7427-2.5479-2.5318
		c-0.7891-0.8876-1.6269-1.726-2.5146-2.5151c-0.7891-0.8877-1.628-1.7256-2.4991-2.5146c-0.8055-0.8877-1.6434-1.71-2.5312-2.5152
		c-0.7891-0.8877-1.6113-1.7099-2.499-2.5151c-0.8057-0.8877-1.6436-1.7427-2.5479-2.5317
		c-0.7891-0.8877-1.6113-1.7095-2.4824-2.4986c-0.8057-0.8877-1.627-1.7099-2.5147-2.5151
		c-0.8056-0.9043-1.6611-1.7261-2.5488-2.5484c-0.7891-0.8877-1.6269-1.7094-2.5146-2.4985
		c-0.7891-0.8877-1.5948-1.6929-2.4659-2.4658c-0.8057-0.9204-1.6602-1.7588-2.5645-2.5645
		c-0.7891-0.8877-1.627-1.726-2.5147-2.5312c-0.789-0.8716-1.6279-1.71-2.499-2.499c-0.8056-0.8877-1.6435-1.7095-2.5312-2.5152
		c-0.7891-0.8877-1.6115-1.7095-2.4991-2.5151c-0.8055-0.8877-1.6435-1.7261-2.5312-2.5313
		c-0.7891-0.8877-1.6113-1.7099-2.499-2.4824c-0.8057-0.9043-1.6602-1.7588-2.5645-2.5806
		c-0.7724-0.8549-1.5781-1.6606-2.4492-2.4331c-0.8057-0.9204-1.6602-1.7587-2.5645-2.581
		c-0.8056-0.8877-1.6279-1.7095-2.5156-2.5152c-0.789-0.871-1.6269-1.6928-2.498-2.4819c-0.7891-0.8877-1.628-1.7261-2.5157-2.5151
		c-0.8056-0.8877-1.6269-1.7261-2.5146-2.5318c-0.8057-0.8877-1.6445-1.7094-2.5322-2.5151
		c-0.7891-0.8711-1.6104-1.7095-2.4814-2.4985c-0.8056-0.9043-1.6601-1.7588-2.5645-2.5479
		c-0.7891-0.8877-1.6114-1.7099-2.4824-2.499c-0.8057-0.8877-1.628-1.7095-2.5157-2.5313c-0.8047-0.8877-1.6436-1.726-2.5479-2.5317
		c-0.7891-0.8877-1.627-1.7095-2.5312-2.5151c-0.7724-0.8711-1.5947-1.6934-2.4658-2.4825
		c-0.8057-0.8876-1.6602-1.7421-2.5478-2.5312c-0.7891-0.8877-1.6114-1.7095-2.4991-2.4985
		c-0.8056-0.8877-1.6436-1.7427-2.5312-2.5318c-0.7891-0.8877-1.6113-1.7095-2.499-2.4985
		c-6.1641-6.8716-15.0088-11.2608-24.9541-11.2608H437.6631L269.3316,403.9966v134.665v201.999
		c0,9.9454,4.3891,18.7891,11.2436,24.9375c0.7891,0.8877,1.6279,1.71,2.5156,2.5147c0.7891,0.9043,1.6436,1.7422,2.5313,2.5488
		c0.789,0.8711,1.6113,1.6924,2.499,2.4815c0.7891,0.8877,1.627,1.7265,2.5313,2.5322c0.789,0.8711,1.6113,1.709,2.499,2.5146
		c0.789,0.8877,1.6269,1.71,2.5146,2.4991c0.8057,0.9043,1.6441,1.7421,2.5318,2.5478c0.8051,0.8712,1.6274,1.71,2.5151,2.5147
		c0.7891,0.8711,1.6274,1.7099,2.4985,2.499c0.8057,0.8877,1.6441,1.7256,2.5318,2.5312c0.789,0.8877,1.6274,1.71,2.5151,2.4991
		c0.7891,0.8877,1.6275,1.7089,2.5152,2.5156c0.789,0.9033,1.6269,1.7256,2.5312,2.5312c0.7891,0.9043,1.6279,1.7256,2.5156,2.5147
		c0.7891,0.8877,1.627,1.7099,2.482,2.499c0.8051,0.8877,1.644,1.709,2.5317,2.5146c0.7891,0.9042,1.6436,1.7265,2.5312,2.5479
		c0.7891,0.8887,1.6441,1.71,2.5318,2.5322c0.789,0.8545,1.6108,1.6768,2.4985,2.4659c0.7891,0.8876,1.6113,1.7089,2.4658,2.498
		c0.8223,0.9209,1.6768,1.7598,2.5811,2.5645c0.7891,0.8886,1.6269,1.7099,2.4985,2.499c0.7891,0.8877,1.6109,1.7099,2.4986,2.499
		c0.8056,0.9199,1.6601,1.7588,2.5478,2.5645c0.7891,0.8876,1.6279,1.7089,2.499,2.498c0.7891,0.8711,1.6275,1.71,2.4986,2.499
		c0.8218,0.8877,1.644,1.7256,2.5317,2.5313c0.7891,0.8877,1.6275,1.7099,2.4985,2.499c0.8218,0.8877,1.6441,1.7422,2.5484,2.5312
		c0.7891,0.8877,1.6269,1.71,2.498,2.4991c0.8057,0.9043,1.628,1.7422,2.5323,2.5312c0.8051,0.8877,1.6269,1.7266,2.5146,2.5322
		c0.7891,0.8868,1.6275,1.709,2.5151,2.4981c0.8057,0.8877,1.6275,1.7266,2.5152,2.5312c0.789,0.8887,1.6274,1.71,2.5151,2.4991
		c0.8057,0.8877,1.6275,1.7256,2.5152,2.5322c0.8056,0.8867,1.6435,1.709,2.5151,2.498c0.8052,0.8877,1.6274,1.7266,2.5151,2.5313
		c0.7891,0.8877,1.6275,1.7099,2.4991,2.499c0.8212,0.9043,1.6601,1.7422,2.5639,2.5479c0.7891,0.8877,1.6109,1.7099,2.4986,2.499
		c0.789,0.8877,1.6113,1.7256,2.499,2.5146c0.8056,0.8877,1.6435,1.7266,2.5312,2.5313c0.7891,0.8887,1.628,1.7099,2.5157,2.499
		c0.8051,0.8878,1.6269,1.7266,2.5146,2.5322c0.7891,0.8868,1.6279,1.709,2.5313,2.5147c0.789,0.8877,1.6279,1.7256,2.5156,2.5146
		c0.789,0.8887,1.6113,1.71,2.4824,2.4991c0.8057,0.8877,1.6436,1.7265,2.5312,2.5322c0.8057,0.8867,1.6436,1.7422,2.5479,2.5312
		c0.7891,0.8877,1.6113,1.709,2.4824,2.4981c0.7891,0.8711,1.628,1.7099,2.5156,2.499c0.8047,0.8877,1.627,1.7256,2.5147,2.5146
		c0.8057,0.9042,1.6436,1.7597,2.5478,2.5488c0.7891,0.8877,1.6114,1.709,2.4825,2.498c0.8056,0.8877,1.6435,1.7266,2.5312,2.5323
		c0.7891,0.8876,1.6279,1.7089,2.5156,2.498c0.8057,0.8877,1.627,1.7266,2.5147,2.5156c0.7891,0.8877,1.6113,1.7256,2.499,2.5147
		c0.8057,0.8877,1.6436,1.7422,2.5645,2.5488c0.789,0.8711,1.6113,1.709,2.499,2.498c0.7891,0.8711,1.6103,1.6934,2.4814,2.4991
		c0.8057,0.9033,1.6602,1.7422,2.5479,2.5478c0.8057,0.8877,1.6279,1.709,2.5156,2.4981c0.8057,0.8886,1.627,1.7099,2.5147,2.5156
		c0.789,0.8877,1.6279,1.7266,2.499,2.5156c0.8057,0.8867,1.6435,1.7256,2.5312,2.5313c0.7891,0.8877,1.628,1.709,2.5157,2.498
		c0.789,0.8887,1.6269,1.7266,2.5146,2.5322c0.7891,0.8711,1.6113,1.6924,2.499,2.4981c0.8057,0.8877,1.6436,1.7432,2.5479,2.5478
		c0.789,0.8721,1.6113,1.6934,2.4824,2.4825c0.8223,0.9043,1.6602,1.7431,2.5645,2.5488c0.789,0.8711,1.6113,1.6924,2.4824,2.4814
		c0.8056,0.8877,1.6435,1.7432,2.5312,2.5479c0.8057,0.8711,1.628,1.6933,2.4991,2.499c0.8056,0.8877,1.6435,1.7256,2.5312,2.5147
		c0.7891,0.8886,1.627,1.7265,2.5147,2.5322c0.789,0.8877,1.6279,1.7099,2.5156,2.499c0.8056,0.8867,1.6435,1.7422,2.5312,2.5313
		c0.7725,0.8711,1.5948,1.6933,2.4658,2.4658c0.8057,0.9033,1.6446,1.7422,2.5479,2.5644c0.8057,0.8877,1.6611,1.7422,2.5645,2.5645
		c0.7734,0.8545,1.5947,1.6767,2.4658,2.4658c0.8056,0.8712,1.6279,1.709,2.499,2.4981c0.8057,0.8876,1.6602,1.7431,2.5645,2.5488
		c0.789,0.8711,1.6113,1.709,2.4824,2.498c0.8056,0.8877,1.6435,1.7266,2.5312,2.5157c0.7891,0.8876,1.628,1.7255,2.5156,2.5312
		c0.7891,0.8877,1.627,1.709,2.5147,2.498c0.7891,0.8886,1.6279,1.7265,2.5156,2.5322c0.7891,0.8711,1.6104,1.7099,2.4981,2.499
		c0.8056,0.9043,1.6601,1.7422,2.5644,2.5645c0.7891,0.871,1.6113,1.6757,2.4824,2.4648c0.8057,0.8887,1.6436,1.7432,2.5479,2.5322
		c0.7891,0.8877,1.5947,1.71,2.4658,2.499c0.7402,0.8213,1.5127,1.5782,2.334,2.3174
		c263.3809-10.0107,475.0117-221.6425,485.0234-485.0224c-0.247-0.2471-0.4765-0.5098-0.7402-0.7569
		C1007.9541,522.8315,1007.1318,522.0093,1006.2442,521.2202z"/>
</g>
<g id="eps-file-eps-file">
	<path fill="#FFCE54" d="M437.6631,235.6645h269.3311c18.6093,0,33.6669,15.0909,33.6669,33.6665v471.3296
		c0,18.6085-15.0576,33.6661-33.6669,33.6661H302.9981c-18.5762,0-33.6665-15.0576-33.6665-33.6661v-336.664L437.6631,235.6645z"/>
	<path fill="#434A54" d="M437.6631,235.6645v134.6656c0,18.6089-15.0576,33.6665-33.666,33.6665H269.3316L437.6631,235.6645z"/>
	<g>
		<path fill="#FFFFFF" d="M448.086,470.458v18.0171h-53.9522v33.749h42.5107v17.4238h-42.5107v34.4239h53.9522v18.0976h-76.753
			V470.458H448.086z"/>
		<path fill="#FFFFFF" d="M491.1055,549.3315v42.8379h-22.6358V470.458h39.6338c8.1367,0,15.1729,0.9702,21.1231,2.877
			c5.951,1.9067,10.8495,4.5698,14.7295,7.9887c3.8789,3.4199,6.7392,7.5127,8.581,12.2803c1.8574,4.7832,2.794,9.9951,2.794,15.666
			c0,5.8848-0.9865,11.293-2.959,16.1924c-1.9727,4.9141-4.8985,9.1387-8.8438,12.6738c-3.9121,3.5342-8.8271,6.2793-14.7285,8.252
			c-5.8857,1.957-12.79,2.9433-20.6963,2.9433H491.1055z M491.1055,531.6597h16.998c4.1582,0,7.7754-0.5264,10.8653-1.5625
			c3.0908-1.0352,5.622-2.5313,7.6611-4.4551c2.0049-1.9395,3.5176-4.2901,4.5371-7.0684c1.0186-2.7773,1.5117-5.8847,1.5117-9.3037
			c0-3.2549-0.4931-6.1982-1.5117-8.8447c-1.0195-2.6299-2.5322-4.8818-4.5371-6.7227c-2.0391-1.8574-4.5703-3.2715-7.6611-4.2578
			c-3.0899-0.9863-6.7071-1.4795-10.8653-1.4795h-16.998V531.6597z"/>
		<path fill="#FFFFFF" d="M638.1494,492.6011c-0.625,1.2324-1.3476,2.1035-2.1533,2.6132c-0.8057,0.4942-1.792,0.7559-2.9101,0.7559
			c-1.1172,0-2.3829-0.4434-3.7803-1.3144c-1.4141-0.8545-3.0576-1.8243-4.9648-2.8926c-1.9072-1.0684-4.1425-2.0391-6.6904-2.9102
			c-2.5478-0.8711-5.5723-1.2988-9.0576-1.2988c-3.1397,0-5.8692,0.3789-8.2031,1.1348c-2.3174,0.7558-4.2901,1.8086-5.8848,3.1562
			c-1.5947,1.3477-2.7949,2.959-3.584,4.832c-0.7724,1.8907-1.167,3.9454-1.167,6.1973c0,2.8613,0.7891,5.2441,2.4004,7.1514
			c1.5781,1.9072,3.7149,3.5342,6.3447,4.8818c2.6309,1.3486,5.6387,2.5488,9.0089,3.6172
			c3.3535,1.0684,6.8057,2.2031,10.3067,3.4023c3.5019,1.2168,6.9541,2.6143,10.3076,4.209
			c3.3701,1.6114,6.3779,3.6328,9.0078,6.0655c2.6309,2.4326,4.7676,5.4248,6.3457,8.9589
			c1.6113,3.5342,2.4004,7.8252,2.4004,12.8877c0,5.4903-0.9209,10.6368-2.8115,15.4366
			c-1.8907,4.7998-4.6192,8.9755-8.2354,12.5419c-3.6328,3.5684-8.0556,6.3624-13.2666,8.417
			c-5.2109,2.0557-11.1943,3.0743-17.9346,3.0743c-3.8632,0-7.6933-0.378-11.4414-1.1338
			c-3.748-0.7569-7.3642-1.8418-10.8163-3.2383c-3.4521-1.4141-6.6738-3.0918-9.666-5.0645
			c-3.0244-1.955-5.6875-4.1425-8.0547-6.5586l6.5752-10.8496c0.6084-0.789,1.3487-1.4463,2.2364-1.9882
			c0.8544-0.5264,1.8242-0.7891,2.8925-0.7891c1.4141,0,2.9258,0.5742,4.537,1.7256c1.6436,1.1513,3.5508,2.417,5.7705,3.8301
			c2.2188,1.3974,4.8165,2.6796,7.8409,3.8311c2.9922,1.1504,6.6084,1.7245,10.8164,1.7245c6.4443,0,11.4413-1.5273,14.959-4.6015
			c3.5507-3.0586,5.3105-7.4473,5.3105-13.168c0-3.1895-0.8057-5.8027-2.3838-7.8242c-1.6113-2.0225-3.7314-3.7159-6.3779-5.0967
			c-2.6309-1.3643-5.6221-2.5313-8.9922-3.4854c-3.3701-0.9531-6.7891-1.9882-10.2744-3.123
			c-3.4854-1.1172-6.9043-2.4658-10.2578-4.0274c-3.3701-1.5781-6.3781-3.6328-9.0089-6.1484
			c-2.6299-2.5312-4.7666-5.6875-6.3613-9.4688c-1.5948-3.7969-2.3838-8.4649-2.3838-14.0215c0-4.4219,0.8711-8.7461,2.6308-12.9532
			c1.7754-4.2089,4.3555-7.9404,7.7588-11.1953c3.3858-3.2548,7.5615-5.8686,12.4932-7.8247
			c4.9316-1.9726,10.5869-2.9428,16.915-2.9428c7.1846,0,13.792,1.1181,19.875,3.3535c6.0488,2.2519,11.211,5.3921,15.4854,9.4355
			L638.1494,492.6011z"/>
	</g>
	<polygon opacity="0.2" fill="#32383F" points="403.9971,403.9966 269.3316,538.6616 269.3316,403.9966 	"/>
</g>
</svg>
