<?xml version="1.0" encoding="utf-8"?>
<!-- Generator: Adobe Illustrator 17.1.0, SVG Export Plug-In . SVG Version: 6.00 Build 0)  -->
<!DOCTYPE svg PUBLIC "-//W3C//DTD SVG 1.1//EN" "http://www.w3.org/Graphics/SVG/1.1/DTD/svg11.dtd">
<svg version="1.1" id="eraser" xmlns="http://www.w3.org/2000/svg" xmlns:xlink="http://www.w3.org/1999/xlink" x="0px" y="0px"
	 viewBox="0 0 1009.9922 1009.9917" enable-background="new 0 0 1009.9922 1009.9917" xml:space="preserve">
<path id="eraser-label" fill="#FFFFFF" d="M504.9961,0C226.0977,0,0,226.0972,0,504.9956s226.0977,504.9961,504.9961,504.9961
	s504.9961-226.0977,504.9961-504.9961S783.8945,0,504.9961,0z"/>
<g id="eraser-shadow">
	<path opacity="0.1" fill="#434A54" d="M994.1455,613.5561c-0.8222-0.8867-1.6445-1.7255-2.5322-2.5312
		c-0.8047-0.8545-1.6104-1.6934-2.4815-2.4824c-0.8056-0.8711-1.6113-1.6934-2.4824-2.4981
		c-0.8553-0.9043-1.6933-1.7754-2.6141-2.5976c-0.7891-0.8545-1.5948-1.6768-2.4492-2.4492
		c-0.8379-0.9043-1.6768-1.7588-2.5645-2.5811c-0.8057-0.8545-1.6113-1.6602-2.4824-2.4492
		c-0.8047-0.8877-1.627-1.7256-2.4981-2.5313c-0.8387-0.8877-1.6767-1.7431-2.5644-2.5644c-0.8057-0.8545-1.628-1.6934-2.499-2.4824
		c-0.8223-0.8711-1.627-1.71-2.5147-2.5146c-0.8223-0.8712-1.6279-1.71-2.5156-2.5156c-0.8223-0.8711-1.627-1.709-2.5147-2.5156
		c-0.8056-0.8711-1.6279-1.6934-2.499-2.498c-0.8223-0.8878-1.6435-1.7422-2.5478-2.5488
		c-0.8223-0.8867-1.6436-1.7246-2.5479-2.5469c-0.8057-0.8712-1.6279-1.6934-2.5156-2.499
		c-0.7891-0.8545-1.5781-1.6602-2.4326-2.4492c-0.8389-0.8877-1.6602-1.7432-2.5645-2.5645
		c-0.8223-0.8721-1.6279-1.71-2.5156-2.5146c-0.8213-0.8721-1.627-1.711-2.5147-2.5157c-0.8222-0.8711-1.6279-1.7099-2.5156-2.5156
		c-0.8047-0.8711-1.6269-1.709-2.5146-2.5146c-0.8057-0.8721-1.6436-1.71-2.5147-2.5323c-0.8223-0.8711-1.6445-1.7089-2.5322-2.5146
		c-0.8057-0.8711-1.627-1.6924-2.4981-2.499c-0.8222-0.8868-1.6445-1.7256-2.5322-2.5313
		c-0.8057-0.8711-1.6269-1.6933-2.4824-2.4824c-0.8213-0.8867-1.6602-1.7256-2.5479-2.5479
		c-0.8057-0.8711-1.6436-1.7099-2.5146-2.5146c-0.8223-0.8711-1.6279-1.71-2.5156-2.5156c-0.8047-0.8711-1.627-1.709-2.5146-2.5147
		c-0.8222-0.8721-1.6279-1.7099-2.5156-2.5146c-0.8213-0.8721-1.627-1.711-2.5147-2.5157c-0.8222-0.871-1.6279-1.7099-2.5156-2.5156
		c-0.8214-0.8711-1.6435-1.709-2.5146-2.5146c-0.8223-0.8721-1.628-1.71-2.5157-2.5147c-0.8212-0.8886-1.6435-1.7109-2.5312-2.5322
		c-0.8057-0.8711-1.627-1.71-2.5147-2.5147c-0.8056-0.871-1.6279-1.7099-2.499-2.499c-0.8222-0.8711-1.6436-1.7099-2.5146-2.5146
		c-0.8223-0.8887-1.6446-1.7266-2.5489-2.5489c-0.8046-0.871-1.6269-1.6933-2.498-2.498c-0.8223-0.8711-1.6279-1.71-2.5156-2.5156
		c-0.8213-0.8711-1.627-1.709-2.5146-2.5156c-0.8222-0.8711-1.6279-1.709-2.5156-2.5147c-0.8057-0.8711-1.6103-1.6924-2.498-2.499
		c-0.8223-0.8867-1.6602-1.7422-2.5645-2.5645c-0.7891-0.8535-1.5947-1.6758-2.4658-2.4648
		c-0.8389-0.9043-1.6768-1.7598-2.5811-2.5811c-0.8056-0.8545-1.5947-1.6611-2.4492-2.4502
		c-0.8223-0.8867-1.6601-1.7256-2.5478-2.5468c-0.8223-0.8711-1.628-1.71-2.5157-2.5157c-0.8221-0.8711-1.6269-1.7094-2.5146-2.5151
		c-0.8223-0.8711-1.6279-1.7095-2.5156-2.5151c-0.8213-0.8711-1.627-1.7095-2.5147-2.5152
		c-0.8223-0.8711-1.6279-1.7094-2.5156-2.5151c-0.8213-0.8711-1.6436-1.7261-2.5313-2.5313
		c-0.8056-0.8715-1.6279-1.6933-2.499-2.499c-0.8213-0.8711-1.6269-1.7095-2.5146-2.5151
		c-0.8223-0.8711-1.6281-1.7095-2.5157-2.5152c-0.8213-0.8877-1.6435-1.726-2.5478-2.5478
		c-0.8057-0.8711-1.627-1.6934-2.4981-2.4985c-0.8056-0.8716-1.6279-1.7095-2.5156-2.5152
		c-0.8056-0.8711-1.6269-1.7095-2.5146-2.5151c-0.8223-0.8711-1.6281-1.7095-2.5157-2.5152
		c-0.8222-0.8711-1.6269-1.7094-2.5146-2.5151c-0.8223-0.8711-1.6279-1.7095-2.5156-2.5151
		c-0.8057-0.8711-1.627-1.7095-2.4991-2.4986c-0.8212-0.8877-1.6601-1.7426-2.5478-2.5483
		c-0.8057-0.8711-1.6104-1.6929-2.4815-2.4819c-0.8222-0.8877-1.6445-1.7261-2.5322-2.5479
		c-0.838-0.8877-1.6767-1.7427-2.581-2.5644c-0.7891-0.855-1.5938-1.6607-2.4493-2.4331c-0.8056-0.8877-1.6269-1.7261-2.5146-2.5318
		c-0.8223-0.8711-1.6445-1.7261-2.5322-2.5312c-0.8213-0.8716-1.627-1.71-2.5146-2.5152c-0.8222-0.8716-1.6279-1.7099-2.5156-2.5151
		c-0.8213-0.8716-1.627-1.71-2.5146-2.5151c-0.8223-0.8711-1.627-1.7095-2.5147-2.5152c-0.8223-0.8711-1.6279-1.7095-2.5156-2.5151
		c-0.8057-0.8711-1.6114-1.6934-2.4824-2.4986c-0.8379-0.8877-1.6934-1.7592-2.5967-2.581c-0.8057-0.8711-1.628-1.6934-2.499-2.4985
		c-0.8057-0.855-1.628-1.6934-2.4991-2.4825c-0.8056-0.8711-1.627-1.7094-2.498-2.5151c-0.8223-0.8711-1.6445-1.7261-2.5322-2.5317
		c-0.8213-0.8711-1.627-1.7095-2.5147-2.5147c-0.8223-0.8716-1.6279-1.71-2.5156-2.5151c-0.8213-0.8716-1.627-1.71-2.5147-2.5152
		c-0.8221-0.8715-1.6279-1.7099-2.5156-2.5151c-0.8213-0.8716-1.6269-1.71-2.5146-2.5151c-0.8223-0.8716-1.628-1.71-2.5157-2.5152
		c-0.8213-0.8877-1.6435-1.726-2.5478-2.5483c-0.8057-0.8545-1.6104-1.6929-2.4815-2.4819
		c-0.8222-0.8711-1.6445-1.7095-2.5322-2.5152c-0.8057-0.8877-1.6269-1.7095-2.498-2.5151
		c-0.8223-0.8877-1.6447-1.7261-2.5323-2.5318c-0.8213-0.8711-1.6269-1.7094-2.5146-2.5151
		c-0.8223-0.8711-1.6279-1.7095-2.5156-2.5151c-0.8214-0.8711-1.627-1.7095-2.5147-2.5152
		c-0.8222-0.8711-1.6279-1.7094-2.5156-2.5151c-0.8213-0.8711-1.627-1.7095-2.5147-2.5151
		c-0.8221-0.8873-1.6435-1.7256-2.5312-2.5313c-0.8057-0.8711-1.6279-1.6934-2.499-2.4824
		c-0.8057-0.8877-1.628-1.7261-2.5157-2.5313c-0.8046-0.8715-1.6269-1.7099-2.5146-2.5151
		c-0.8223-0.8877-1.6602-1.7427-2.5479-2.5483c-0.8056-0.8711-1.6279-1.6929-2.499-2.4986
		c-0.8222-0.8711-1.6269-1.7094-2.5146-2.5151c-0.8223-0.8711-1.628-1.7095-2.5157-2.5152
		c-0.8212-0.871-1.6269-1.7094-2.5146-2.5151c-0.8223-0.8711-1.6279-1.7095-2.5156-2.5151
		c-0.8213-0.8711-1.627-1.7095-2.5146-2.5152c-0.8222-0.8711-1.6445-1.7094-2.5156-2.5151
		c-0.8213-0.8877-1.6436-1.7261-2.5312-2.5312c-0.8057-0.855-1.6114-1.6768-2.4825-2.4825
		c-0.8222-0.8877-1.6436-1.726-2.5479-2.5478c-0.8057-0.8716-1.627-1.71-2.5146-2.5152c-0.8222-0.8877-1.6445-1.726-2.5156-2.5317
		c-0.8223-0.8711-1.6436-1.6929-2.5146-2.4985c-0.8223-0.8711-1.628-1.7095-2.5157-2.5152
		c-0.8222-0.8711-1.6269-1.7094-2.5146-2.5151c-0.8223-0.8711-1.6279-1.7095-2.5156-2.5151
		c-0.8223-0.8711-1.627-1.7095-2.5147-2.5152c-0.8223-0.8877-1.6445-1.7261-2.5322-2.5317
		c-0.8057-0.8711-1.6104-1.6929-2.4815-2.4819c-0.8387-0.8877-1.6611-1.7427-2.5644-2.5645
		c-0.8057-0.855-1.5947-1.6768-2.4658-2.4658c-0.8223-0.8877-1.6612-1.7427-2.5645-2.5645
		c-0.8057-0.8711-1.6113-1.6933-2.499-2.4985c-0.8057-0.8716-1.6279-1.71-2.5156-2.5151c-0.8214-0.8716-1.627-1.71-2.5147-2.5152
		c-0.8223-0.8716-1.6279-1.7099-2.5156-2.5151c-0.8213-0.8716-1.627-1.71-2.5146-2.5152c-0.8223-0.8711-1.627-1.7094-2.5146-2.5151
		c-0.8057-0.8711-1.6279-1.7095-2.5156-2.5151c-0.8223-0.8711-1.6436-1.7261-2.5479-2.5479
		c-0.8056-0.855-1.6113-1.6933-2.499-2.4824c-0.7891-0.855-1.5947-1.6768-2.4492-2.4658c-0.838-0.9043-1.6934-1.7754-2.6133-2.6138
		c-0.7891-0.855-1.6113-1.6768-2.4824-2.4824c-0.8057-0.8711-1.6115-1.6929-2.4825-2.4986
		c-0.8378-0.8876-1.6767-1.7421-2.5644-2.5478c-0.8057-0.8711-1.627-1.7095-2.499-2.4985
		c-7.1505-7.6773-17.0469-12.9703-26.959-12.9869h-193.417c-18.6089,0.0328-38.5327,18.4444-38.5327,37.0528v232.3115v201.998
		v28.9649v1.3154c0,9.9288,5.1782,19.7266,12.7563,26.7784c0.8223,0.9043,1.6602,1.7421,2.5479,2.5645
		c0.8056,0.8711,1.6279,1.6934,2.499,2.499c0.8218,0.8877,1.6602,1.7256,2.5479,2.5479c0.789,0.8545,1.6113,1.6601,2.4492,2.4492
		c0.8388,0.9043,1.6933,1.7588,2.5976,2.5976c0.7891,0.8545,1.6104,1.6602,2.4658,2.4493c0.8213,0.9043,1.6768,1.7422,2.5811,2.581
		c0.7891,0.8545,1.6104,1.6602,2.4658,2.4492c0.8047,0.8877,1.6436,1.7256,2.5147,2.5479c0.8056,0.8711,1.6435,1.6934,2.5156,2.5156
		c0.8047,0.8711,1.6436,1.6924,2.5146,2.5147c0.8057,0.8711,1.6436,1.6933,2.5157,2.5146c0.8047,0.8711,1.6435,1.6934,2.5146,2.5156
		c0.8057,0.8711,1.6436,1.6934,2.5147,2.5157c0.8056,0.8711,1.6611,1.7089,2.5322,2.5146c0.8057,0.8877,1.6435,1.71,2.5312,2.5313
		c0.7891,0.8711,1.6114,1.6767,2.4659,2.4658c0.8222,0.9209,1.6933,1.7588,2.5976,2.5976c0.7891,0.8711,1.6104,1.6768,2.4658,2.4659
		c0.8057,0.8877,1.6436,1.7099,2.5147,2.5312c0.8057,0.8712,1.6445,1.6934,2.5156,2.5147c0.8047,0.872,1.6436,1.6933,2.5147,2.5156
		c0.8056,0.8711,1.6435,1.6933,2.5156,2.5156c0.8047,0.8712,1.6269,1.6758,2.498,2.4815c0.8223,0.9042,1.6768,1.7431,2.5645,2.581
		c0.7891,0.8712,1.6279,1.6768,2.499,2.4824c0.7891,0.8711,1.627,1.6934,2.499,2.4981c0.8213,0.9043,1.6768,1.7431,2.5645,2.5644
		c0.7891,0.8721,1.6269,1.6778,2.4814,2.4825c0.8057,0.8886,1.6446,1.7099,2.5157,2.5322c0.8056,0.8711,1.6435,1.6924,2.5146,2.5146
		c0.8057,0.8711,1.6445,1.6934,2.5156,2.5157c0.8057,0.871,1.6436,1.6933,2.5147,2.5146c0.8056,0.8711,1.6445,1.6934,2.5156,2.5156
		c0.8057,0.8711,1.6436,1.6924,2.5147,2.5147c0.8056,0.8711,1.6445,1.6933,2.5156,2.5156c0.8213,0.8711,1.6601,1.709,2.5312,2.5146
		c0.8057,0.8711,1.627,1.6934,2.4991,2.4991c0.8046,0.8877,1.6435,1.7256,2.5312,2.5312c0.8057,0.8877,1.6436,1.7266,2.5313,2.5313
		c0.8056,0.8877,1.6445,1.7099,2.5156,2.5156c0.8056,0.8877,1.6269,1.6934,2.498,2.5146c0.8057,0.8721,1.6446,1.6934,2.5156,2.5157
		c0.8057,0.8711,1.6436,1.6924,2.5147,2.5146c0.8057,0.8711,1.6445,1.6934,2.5156,2.5156c0.8057,0.8711,1.6436,1.6934,2.5147,2.5147
		c0.8056,0.8711,1.6445,1.6933,2.5156,2.5156c0.8213,0.8877,1.6768,1.7256,2.5644,2.5479c0.7725,0.8545,1.5948,1.6435,2.4327,2.4326
		c0.8222,0.9043,1.6933,1.7588,2.581,2.581c0.7891,0.8711,1.6113,1.6768,2.4658,2.4659c0.8223,0.9043,1.6768,1.7421,2.5645,2.581
		c0.8057,0.8711,1.6435,1.6934,2.498,2.4981c0.8057,0.8711,1.6447,1.6933,2.5157,2.5156c0.8056,0.8711,1.6435,1.6933,2.5146,2.5146
		c0.8057,0.8721,1.6445,1.6934,2.5156,2.5157c0.8057,0.8711,1.6436,1.6933,2.5146,2.5146c0.8057,0.8712,1.6445,1.6934,2.5156,2.5156
		c0.8057,0.8711,1.6436,1.6934,2.5147,2.4981c0.8056,0.8887,1.6445,1.7099,2.5322,2.5322c0.8057,0.8877,1.6601,1.7256,2.5479,2.5479
		c0.7891,0.8544,1.5948,1.6435,2.4493,2.4492c0.8056,0.8877,1.6601,1.7265,2.5478,2.5478c0.8057,0.8877,1.6436,1.71,2.5156,2.5157
		c0.8047,0.8876,1.6436,1.7089,2.5312,2.5312c0.8056,0.8877,1.6269,1.6934,2.499,2.5146c0.8047,0.871,1.6436,1.6933,2.5147,2.5156
		c0.8056,0.8711,1.6435,1.6933,2.5156,2.5156c0.8047,0.8711,1.6435,1.6924,2.5146,2.5146c0.8057,0.8711,1.6436,1.6934,2.5146,2.5147
		c0.8222,0.8877,1.6611,1.71,2.5488,2.5322c0.7891,0.8711,1.6104,1.6768,2.4815,2.4658c0.8056,0.9043,1.6611,1.7256,2.5322,2.5479
		c0.8056,0.8877,1.6436,1.6934,2.498,2.499c0.8057,0.8867,1.628,1.6924,2.499,2.5147c0.8223,0.9043,1.6768,1.7422,2.5811,2.5644
		c0.7891,0.8711,1.627,1.6934,2.4824,2.499c0.8047,0.8711,1.6436,1.6934,2.5147,2.5147c0.8055,0.8711,1.6435,1.6934,2.5156,2.5146
		c0.8047,0.8721,1.6436,1.6934,2.5146,2.5157c0.8057,0.8711,1.6436,1.6933,2.5157,2.499c0.8047,0.8877,1.6435,1.7256,2.5312,2.5312
		c0.8057,0.9043,1.6602,1.7256,2.5479,2.5479c0.7889,0.8555,1.6113,1.6601,2.4658,2.4492c0.8057,0.9043,1.6602,1.7266,2.5312,2.5645
		c0.8223,0.8877,1.6602,1.7099,2.5479,2.5312c0.7891,0.8555,1.6113,1.6777,2.4824,2.4668c0.8057,0.8867,1.6445,1.7256,2.5156,2.5479
		c0.8057,0.8711,1.6436,1.6923,2.5147,2.5146c0.8057,0.8712,1.6445,1.6934,2.5156,2.5156c0.8057,0.8711,1.6436,1.6934,2.5147,2.5147
		c0.8056,0.8711,1.6445,1.6933,2.5156,2.499c0.5918,0.6572,1.2324,1.249,1.8574,1.8574
		C805.7256,954.8237,954.627,806.0044,997.416,616.8276c-0.2627-0.2461-0.4931-0.5097-0.7557-0.7558
		C995.8389,615.2007,995.0332,614.3628,994.1455,613.5561z"/>
</g>
<g id="eraser-eraser">
	<path fill="#FFE298" d="M639.6621,737.6685l0.0322-232.6397H370.3306v230.9629c0,18.6094,17.8852,38.3682,36.4936,38.3682h196.2119
		C621.6123,774.3599,639.6621,756.2769,639.6621,737.6685z"/>
	<path opacity="0.1" d="M639.6621,737.6685l0.0322-30.6417c-0.0322,18.5762-15.0908,33.6661-33.6992,33.6661h-201.998
		c-18.5757,0-33.6665-15.0899-33.6665-33.6661v30.2803c0,18.6085,17.8852,37.0528,36.4936,37.0528h196.2119
		C621.6123,774.3599,639.6621,756.2769,639.6621,737.6685z"/>
	<path fill="#FC6E51" d="M639.6943,505.0288V272.5532c-0.0322-18.6089-18.8388-36.8559-37.414-36.8887h-193.417
		c-18.6089,0.0328-38.5327,18.4444-38.5327,37.0528v232.3115H639.6943z"/>
</g>
</svg>
