<?xml version="1.0" encoding="utf-8"?>
<!-- Generator: Adobe Illustrator 17.1.0, SVG Export Plug-In . SVG Version: 6.00 Build 0)  -->
<!DOCTYPE svg PUBLIC "-//W3C//DTD SVG 1.1//EN" "http://www.w3.org/Graphics/SVG/1.1/DTD/svg11.dtd">
<svg version="1.1" id="eyedropper" xmlns="http://www.w3.org/2000/svg" xmlns:xlink="http://www.w3.org/1999/xlink" x="0px" y="0px"
	 viewBox="0 0 1009.9922 1009.9917" enable-background="new 0 0 1009.9922 1009.9917" xml:space="preserve">
<path id="eyedropper-label" fill="#656D78" d="M504.9961,0C226.0977,0,0,226.0972,0,504.9956s226.0977,504.9961,504.9961,504.9961
	s504.9961-226.0977,504.9961-504.9961S783.8945,0,504.9961,0z"/>
<g id="eyedropper-shadow" opacity="0.3">
	<path fill="#32383F" d="M1007.625,508.6782c-0.6084-0.6416-1.0361-1.3808-1.6601-2.0224
		c-0.6416-0.6407-1.3975-1.0684-2.0547-1.6758c-0.5919-0.6416-1.0197-1.3985-1.6447-2.0225c-0.624-0.625-1.3808-1.0517-2.038-1.6435
		c-0.5918-0.6582-1.0196-1.4141-1.6602-2.0391c-0.625-0.625-1.3486-1.0518-1.9893-1.6436c-0.625-0.6572-1.0517-1.414-1.6933-2.0712
		c-0.6406-0.625-1.3975-1.0528-2.0547-1.6768c-0.5918-0.624-1.0195-1.3809-1.6436-2.0049c-0.6416-0.625-1.3808-1.0527-2.039-1.6611
		c-0.5918-0.6416-1.0186-1.3975-1.6602-2.0381c-0.6406-0.6406-1.3974-1.0684-2.0547-1.6768
		c-0.5918-0.6416-1.0195-1.3974-1.6435-2.0224c-0.625-0.6074-1.3487-1.0196-1.9893-1.6114
		c-0.6084-0.6562-1.0517-1.4296-1.6933-2.0708c-0.6407-0.6411-1.3809-1.0683-2.0381-1.6767
		c-0.6084-0.6572-1.0196-1.397-1.6602-2.0381c-0.6416-0.625-1.414-1.0688-2.0714-1.6768c-0.5918-0.6577-1.0029-1.3808-1.6279-2.0053
		c-0.6406-0.625-1.3809-1.0523-2.0381-1.6441c-0.5918-0.6577-1.0195-1.4135-1.6601-2.0385
		c-0.6416-0.6412-1.3809-1.0684-2.0391-1.6768c-0.6074-0.6411-1.0186-1.397-1.6602-2.0381
		c-0.624-0.6084-1.3476-1.0195-1.9892-1.6113c-0.6074-0.6572-1.0518-1.4302-1.6924-2.0713
		c-0.6416-0.6411-1.3809-1.0684-2.0391-1.6768c-0.6084-0.6572-1.0185-1.3969-1.6601-2.038
		c-0.6406-0.625-1.4131-1.0689-2.0713-1.6768c-0.5918-0.6577-1.0029-1.3809-1.627-2.0059c-0.625-0.6245-1.3808-1.0517-2.039-1.6435
		c-0.5918-0.6577-1.0186-1.4136-1.6602-2.0386c-0.6406-0.6411-1.3808-1.0684-2.0381-1.6768
		c-0.6084-0.6411-1.0195-1.3969-1.6601-2.038c-0.625-0.6084-1.3487-1.0196-1.9893-1.6114
		c-0.6084-0.6572-1.0517-1.4301-1.6933-2.0713c-0.6407-0.6411-1.3809-1.0683-2.0381-1.6767
		c-0.6084-0.6572-1.0196-1.397-1.6602-2.0381c-0.6416-0.625-1.414-1.0688-2.0713-1.6768c-0.5919-0.6577-1.0029-1.3808-1.6279-2.0058
		c-0.624-0.6245-1.3809-1.0518-2.0381-1.6436c-0.5918-0.6577-1.0195-1.4135-1.6601-2.0385
		c-0.6416-0.6573-1.3975-1.085-2.0547-1.6768c-0.5917-0.6572-1.0196-1.397-1.6446-2.022c-0.624-0.6079-1.3476-1.0356-1.9891-1.6274
		c-0.6074-0.6572-1.0518-1.4136-1.6924-2.0713c-0.6416-0.6411-1.3975-1.0684-2.0557-1.6768
		c-0.5918-0.6572-1.0185-1.3808-1.6435-2.0053c-0.6406-0.6411-1.3809-1.0684-2.0381-1.6768
		c-0.6084-0.6577-1.0361-1.3975-1.6602-2.0386c-0.625-0.6079-1.3486-1.019-1.9892-1.6108
		c-0.6084-0.6577-1.0518-1.4302-1.6934-2.0713c-0.6406-0.6572-1.3974-1.085-2.0547-1.6768
		c-0.5917-0.6572-1.0195-1.3969-1.6435-2.0219c-0.6416-0.6411-1.3809-1.0684-2.0391-1.6602
		c-0.6084-0.6577-1.0351-1.4136-1.6601-2.0386c-0.6407-0.6411-1.3975-1.0683-2.0547-1.6767
		c-0.5918-0.6572-1.0196-1.3809-1.6436-2.0054c-0.6416-0.6411-1.3808-1.0683-2.039-1.6767
		c-0.6084-0.6578-1.0352-1.3975-1.6602-2.0386c-0.625-0.6079-1.3477-1.0191-1.9893-1.6109
		c-0.6074-0.6577-1.0517-1.4301-1.6923-2.0712c-0.6416-0.6578-1.3975-1.085-2.0557-1.6768c-0.5918-0.6572-1.0186-1.397-1.6436-2.022
		c-0.6406-0.6411-1.3808-1.0683-2.0381-1.6601c-0.6083-0.6577-1.0361-1.4136-1.6601-2.0386
		c-0.6416-0.6411-1.3975-1.0684-2.0557-1.6768c-0.5917-0.6572-1.0185-1.3808-1.6435-2.0053
		c-0.6407-0.6412-1.3809-1.0684-2.0381-1.6768c-0.6084-0.6577-1.0361-1.3975-1.6602-2.0386
		c-0.625-0.6079-1.3486-1.019-1.9893-1.6108c-0.6084-0.6577-1.0527-1.4302-1.6934-2.0713c-0.6406-0.6577-1.3974-1.085-2.0547-1.6768
		c-0.5919-0.6577-1.0195-1.3974-1.6436-2.0219c-0.6416-0.6411-1.3809-1.0684-2.0391-1.6602
		c-0.6084-0.6577-1.0351-1.4136-1.6601-2.0386c-0.625-0.6245-1.3643-1.0517-2.0059-1.6435
		c-0.6074-0.6577-1.0352-1.4141-1.6768-2.0386c-0.624-0.6411-1.3808-1.0683-2.038-1.6767
		c-0.5918-0.6412-1.0196-1.3975-1.6602-2.0386c-0.6416-0.6245-1.3975-1.0518-2.0547-1.6768
		c-0.5918-0.6245-1.0195-1.3808-1.6445-2.0053c-0.6406-0.6246-1.3809-1.0523-2.0381-1.6602
		c-0.5918-0.6577-1.0186-1.3975-1.6602-2.0386c-0.6406-0.6411-1.3808-1.0683-2.0381-1.6601
		c-0.6084-0.6578-1.0361-1.4136-1.6601-2.0386c-0.625-0.6245-1.3652-1.0518-2.0059-1.6436
		c-0.6084-0.6577-1.0361-1.414-1.6767-2.0385c-0.6416-0.6412-1.3809-1.0684-2.0381-1.6768
		c-0.6084-0.6411-1.0195-1.3975-1.6611-2.0386c-0.6407-0.6245-1.3965-1.0517-2.0547-1.6767
		c-0.5918-0.6245-1.0186-1.3809-1.6436-2.0054c-0.6416-0.6245-1.3808-1.0522-2.0381-1.6602
		c-0.6084-0.6577-1.0195-1.3974-1.6602-2.0385c-0.625-0.6084-1.3487-1.0357-1.9893-1.6275
		c-0.625-0.6577-1.0527-1.4135-1.6933-2.0713c-0.6416-0.6411-1.3975-1.0683-2.0547-1.6767
		c-0.5918-0.6411-1.0197-1.3809-1.6447-2.0054c-0.6406-0.6411-1.3808-1.0683-2.0381-1.6767
		c-0.5917-0.6578-1.0195-1.3975-1.6601-2.0386c-0.6416-0.6245-1.4141-1.085-2.0713-1.6768
		c-0.5918-0.6572-1.0029-1.3808-1.6279-2.0054c-0.624-0.6083-1.3477-1.019-1.9883-1.6108
		c-0.6084-0.6743-1.0527-1.4468-1.6934-2.0713c-0.6416-0.6411-1.3808-1.0688-2.0381-1.6767
		c-0.6084-0.6578-1.0195-1.3975-1.6611-2.0386c-0.6406-0.6245-1.3808-1.0518-2.0381-1.6436
		c-0.6085-0.6577-1.0195-1.414-1.6602-2.0385c-0.6416-0.6578-1.3975-1.085-2.0547-1.6768c-0.5918-0.6577-1.0195-1.3975-1.6445-2.022
		c-0.6407-0.6411-1.3965-1.0683-2.0547-1.6767c-0.5918-0.6411-1.0186-1.3975-1.6436-2.022c-0.625-0.6084-1.3476-1.019-1.9892-1.6108
		c-0.6084-0.6744-1.0518-1.4468-1.6934-2.0713c-0.6406-0.6411-1.3809-1.0689-2.0381-1.6768
		c-0.6084-0.6577-1.0195-1.3974-1.6601-2.0386c-0.6416-0.6245-1.3975-1.0522-2.0547-1.6767
		c-0.5918-0.6245-1.0197-1.3809-1.6447-2.0054c-0.6406-0.6245-1.3808-1.0522-2.0381-1.6601
		c-0.5917-0.6578-1.0195-1.3975-1.6601-2.0386c-0.6416-0.6411-1.3975-1.0684-2.0547-1.6768
		c-0.5918-0.6411-1.0195-1.3974-1.6445-2.022c-0.6241-0.6084-1.3477-1.019-1.9883-1.6108
		c-0.6084-0.6743-1.0527-1.4468-1.6934-2.0713c-0.6416-0.6577-1.3975-1.0849-2.0547-1.6767
		c-0.5918-0.6578-1.0195-1.3975-1.6445-2.022c-0.6406-0.6411-1.3808-1.0689-2.0381-1.6607
		c-0.6084-0.6572-1.0195-1.4135-1.6602-2.038c-0.6415-0.6246-1.3809-1.0523-2.0381-1.6602
		c-0.6084-0.6577-1.0195-1.3975-1.6611-2.0386c-0.6407-0.6411-1.3965-1.0683-2.0547-1.6767
		c-0.5918-0.6411-1.0186-1.3975-1.6436-2.022c-0.625-0.6084-1.3476-1.019-1.9892-1.6108c-0.6084-0.6578-1.0518-1.4468-1.6934-2.0713
		c-0.6406-0.6577-1.3975-1.085-2.0547-1.6768c-0.5918-0.6577-1.0195-1.3975-1.6435-2.022
		c-0.6417-0.6411-1.3809-1.0688-2.0391-1.6606c-0.6074-0.6572-1.0352-1.4136-1.6602-2.0381
		c-26.3018-26.269-68.9434-26.269-95.2451,0l-35.6885,35.7212l-1.6435-1.6602c-0.0166,0-0.0332,0-0.0332-0.0166l-3.666-3.666
		h-0.0166l-3.6817-3.6987c-0.0166-0.0161-0.0166-0.0161-0.0332-0.0161l-2.0058-2.0059l-9.0411-9.0576
		c0-0.0161-0.0166-0.0161-0.0166-0.0161l-3.6816-3.6826c-6.5762-6.5752-17.2285-6.5752-23.8037,0l-47.6065,47.6391l11.0801,11.0801
		l24.625,24.625l-11.9013,11.9014L266.6685,648.2095c-8.7784,8.7783-6.7398,26.0058,3.2876,44.2861l-29.8858,29.918
		c-6.5752,6.5752-7.0029,28.3398,6.1153,41.4912c0.625,0.625,1.3481,1.0518,2.0059,1.6279
		c0.5918,0.6738,1.0518,1.4297,1.6934,2.0703c0.6079,0.6084,1.3311,1.0528,1.9888,1.6114c0.5918,0.6738,1.0522,1.4296,1.7095,2.0878
		c0.625,0.625,1.3643,1.085,2.0386,1.6436c0.5591,0.6748,1.019,1.4141,1.644,2.0381c0.6245,0.625,1.3477,1.0527,2.0054,1.6113
		c0.5918,0.6904,1.0522,1.4473,1.6929,2.088c0.625,0.625,1.3481,1.0684,2.0225,1.627c0.5752,0.6914,1.0352,1.4306,1.6768,2.0722
		c0.6245,0.624,1.3477,1.0684,2.0054,1.627c0.5918,0.6738,1.0522,1.4297,1.6928,2.0713c0.625,0.6084,1.3482,1.0683,2.0059,1.6279
		c0.5752,0.6738,1.0352,1.4131,1.6934,2.0703c0.624,0.625,1.3476,1.0684,2.0214,1.6445c0.5752,0.6573,1.0362,1.4141,1.6602,2.0381
		c0.625,0.625,1.3486,1.0518,2.0059,1.6113c0.5752,0.6905,1.0517,1.4463,1.6933,2.087c0.6245,0.625,1.3477,1.0693,2.0215,1.6279
		c0.5757,0.6904,1.0361,1.4307,1.6768,2.0713c0.625,0.625,1.3481,1.0517,2.0058,1.6113c0.5752,0.6904,1.0518,1.4464,1.6768,2.0714
		c0.6245,0.624,1.3642,1.085,2.022,1.6436c0.5751,0.6738,1.0356,1.414,1.6928,2.0712c0.625,0.625,1.3482,1.0684,2.0225,1.6436
		c0.5752,0.6582,1.0351,1.4141,1.6601,2.0391c0.6246,0.624,1.3477,1.0517,2.0054,1.6103c0.5757,0.6904,1.0523,1.4464,1.6929,2.088
		c0.6416,0.6416,1.3647,1.0684,2.0224,1.6436c0.5918,0.6738,1.0518,1.3974,1.6768,2.0546c0.6079,0.5918,1.3149,1.0362,1.9727,1.5782
		c0.5918,0.6914,1.0517,1.4472,1.7094,2.1045c0.6245,0.625,1.3482,1.0849,2.0054,1.6435c0.5918,0.6748,1.0522,1.4141,1.6934,2.0723
		c0.6411,0.624,1.3642,1.0683,2.038,1.6435c0.5752,0.6573,1.0362,1.4131,1.6602,2.0381c0.625,0.625,1.3486,1.0684,2.0059,1.627
		c0.5918,0.6748,1.0517,1.4306,1.6933,2.0722c0.6245,0.6241,1.3477,1.0684,2.0215,1.627c0.5596,0.6738,1.0195,1.4141,1.6768,2.0713
		c0.6084,0.6084,1.332,1.0517,1.9892,1.6113c0.5752,0.6904,1.0357,1.4297,1.6934,2.0714c0.6245,0.624,1.3642,1.085,2.0381,1.6436
		c0.559,0.6904,1.0195,1.414,1.6606,2.0546c0.6245,0.625,1.3482,1.0684,2.022,1.628c0.5752,0.6904,1.0351,1.4297,1.6767,2.0713
		c0.6246,0.624,1.3477,1.0683,2.0054,1.6269c0.5918,0.6738,1.0523,1.4307,1.6768,2.0547c0.6245,0.625,1.3481,1.085,2.0219,1.6436
		c0.5752,0.6748,1.0357,1.414,1.6934,2.0722c0.6084,0.6074,1.3311,1.0518,1.9888,1.6104c0.5757,0.6904,1.0356,1.4306,1.6933,2.0713
		c0.6245,0.625,1.3643,1.0849,2.0386,1.6445c0.5586,0.6894,1.019,1.4131,1.6602,2.0547c0.6411,0.624,1.3642,1.0683,2.0219,1.6435
		c0.5918,0.6739,1.0523,1.3975,1.6768,2.0547c0.6245,0.6084,1.3481,1.0518,1.9888,1.6114c0.5752,0.6904,1.0522,1.4296,1.6933,2.0712
		c0.625,0.625,1.3477,1.0684,2.022,1.6436c0.5757,0.6738,1.0356,1.4141,1.6929,2.0713c0.6084,0.6084,1.332,1.0527,1.9892,1.6113
		c0.5752,0.6904,1.0362,1.4297,1.6934,2.0714c0.6245,0.624,1.3642,1.085,2.0381,1.6436c0.559,0.6904,1.0195,1.414,1.6606,2.0546
		c0.6245,0.6084,1.3482,1.0684,2.0054,1.628c0.5752,0.6738,1.0356,1.4131,1.6933,2.0713c0.6246,0.624,1.3477,1.0517,2.0054,1.6103
		c0.5757,0.6904,1.0523,1.4473,1.6768,2.0714c0.6245,0.625,1.3481,1.085,2.0219,1.6445c0.5752,0.6739,1.0357,1.4131,1.6934,2.0703
		c0.6084,0.6094,1.3311,1.0528,1.9893,1.6114c0.5752,0.6904,1.0351,1.4306,1.6928,2.0713c0.6245,0.6416,1.3809,1.0849,2.0386,1.6611
		c0.5752,0.6738,1.019,1.3965,1.6602,2.0215c0.6084,0.625,1.3315,1.0517,1.9892,1.6113c0.5918,0.6895,1.0518,1.4464,1.7095,2.1035
		c0.6245,0.625,1.3481,1.0528,2.0054,1.6114c0.5752,0.6904,1.0522,1.4462,1.6767,2.0712c0.625,0.6241,1.3477,1.085,2.022,1.6436
		c0.5757,0.6738,1.0356,1.4141,1.6929,2.0713c0.6084,0.6084,1.332,1.0517,1.9726,1.6113c0.5918,0.6904,1.0528,1.4297,1.71,2.0714
		c0.625,0.6406,1.3808,1.085,2.0547,1.6602c0.5586,0.6738,1.0195,1.3974,1.6435,2.0214c0.6084,0.625,1.3321,1.0528,1.9893,1.6114
		c0.5918,0.6904,1.0527,1.4463,1.7099,2.1045c0.625,0.624,1.3477,1.0517,2.0059,1.6103c0.5752,0.6904,1.0518,1.4473,1.6768,2.0714
		c0.624,0.625,1.3476,1.085,2.0214,1.6445c0.5752,0.6739,1.0362,1.4131,1.6934,2.0713c0.6084,0.6074,1.3311,1.0518,1.9727,1.6104
		c0.5918,0.6904,1.0517,1.4306,1.7089,2.0713c0.625,0.6416,1.3809,1.0849,2.0391,1.6601c0.5752,0.6739,1.0352,1.3975,1.6602,2.0225
		c0.6084,0.624,1.331,1.0517,1.9726,1.6103c0.5752,0.6914,1.0518,1.4473,1.71,2.1045c0.624,0.625,1.3642,1.0518,2.0215,1.6114
		c0.5752,0.6904,1.0361,1.4462,1.6767,2.0712c0.625,0.625,1.3477,1.085,2.0059,1.6436c0.5918,0.6738,1.0517,1.4141,1.6933,2.0713
		c0.6407,0.625,1.3643,1.0683,2.0215,1.6445c0.5918,0.6572,1.0518,1.4131,1.6768,2.0381c0.625,0.624,1.3642,1.085,2.0381,1.6436
		c0.5595,0.6738,1.0195,1.414,1.6601,2.039c0.6084,0.624,1.3321,1.0518,1.9727,1.6104c0.5762,0.6904,1.0527,1.4463,1.7099,2.1045
		c0.625,0.624,1.3643,1.0517,2.0225,1.6103c0.5752,0.6904,1.0352,1.4473,1.6768,2.0713c0.624,0.625,1.3476,1.085,2.0214,1.6445
		c0.5752,0.6739,1.0362,1.4131,1.6768,2.0713c0.6416,0.6241,1.3643,1.0684,2.0381,1.6436c0.5762,0.6572,1.0361,1.414,1.6611,2.0381
		c0.624,0.625,1.3643,1.0849,2.0381,1.6435c0.5586,0.6582,1.0186,1.4141,1.6602,2.0391c0.6084,0.625,1.331,1.0517,1.9726,1.6113
		c0.5752,0.6895,1.0518,1.4464,1.71,2.1035c0.624,0.625,1.3642,1.0528,2.0215,1.6114c0.5752,0.6904,1.0361,1.4462,1.6767,2.0712
		c0.625,0.6241,1.3477,1.085,2.0059,1.6436c0.5918,0.6738,1.0517,1.4141,1.6767,2.0547c0.6407,0.6416,1.3809,1.0683,2.0381,1.6445
		c0.5752,0.6738,1.0362,1.4131,1.6768,2.0547c0.625,0.625,1.3476,1.0518,2.0058,1.6113c0.5752,0.6895,1.0518,1.4463,1.6768,2.0703
		c0.624,0.625,1.3477,1.0528,2.0049,1.6114c0.5752,0.6904,1.0527,1.4472,1.6933,2.1045c0.625,0.624,1.3643,1.0517,2.0225,1.6103
		c0.5752,0.6914,1.0352,1.4473,1.6768,2.0713c0.624,0.625,1.3476,1.0693,2.0048,1.6445c0.5918,0.6573,1.0528,1.4131,1.6768,2.0547
		c0.6416,0.6241,1.3809,1.0684,2.0391,1.6436c0.5752,0.6738,1.0351,1.3974,1.6767,2.0547c0.624,0.625,1.3477,1.0527,2.0049,1.6113
		c0.0664,0.0986,0.1318,0.1807,0.2139,0.2627c4.2246,0.1152,8.4492,0.3291,12.707,0.3291
		c277.0244,0,501.8399-223.1055,504.8477-499.4063c-0.0656-0.0664-0.1143-0.165-0.1807-0.2304
		C1009.0225,509.73,1008.2822,509.3022,1007.625,508.6782z"/>
</g>
<g id="eyedropper-eyedropper">
	<path fill="#434854" d="M599.9463,267.2925l23.8027,23.8364l35.7051-35.7378c26.3018-26.269,68.9434-26.269,95.2451,0
		c26.2696,26.3018,26.2696,68.9439,0,95.2456l-35.7373,35.7046l23.836,23.8032c6.5752,6.5757,6.5752,17.2281,0,23.8032
		l-47.6387,47.6065L528.5361,314.9316l47.6065-47.6391C582.7178,260.7173,593.3701,260.7173,599.9463,267.2925z"/>
	<path fill="#E0E3E8" d="M659.4541,445.8496L361.8809,743.4224c-8.7783,8.7783-26.0059,6.7393-44.2852-3.2881l-29.5571,29.5244
		c-6.5757,6.5752-28.7017,7.3642-41.853-5.7539c-13.1182-13.1514-12.6905-34.916-6.1153-41.4912l29.8858-29.918
		c-10.0274-18.2803-12.0659-35.5078-3.2876-44.2861l297.5727-297.5728L659.4541,445.8496z"/>
	<path fill="#AAB2BC" d="M509.0733,572.4272L352.9717,728.5288c-5.1948,5.1943-22.4883,2.5645-37.9736-9.6328l-37.3819,37.3809
		c-5.3916,5.3926-13.3149,2.6963-19.9233-3.8789c-6.5757-6.6084-9.0415-14.7618-4.6684-19.1348l38.1704-38.1709
		c-12.1977-15.4854-14.8276-32.7783-9.6333-37.9737l84.5279-84.6914H509.0733z"/>
	
		<rect x="538.5714" y="395.7783" transform="matrix(-0.7071 -0.7071 0.7071 -0.7071 748.5223 1118.4359)" opacity="0.2" fill="#32383F" width="134.6513" height="16.8311"/>
</g>
</svg>
