<?xml version="1.0" encoding="utf-8"?>
<!-- Generator: Adobe Illustrator 17.1.0, SVG Export Plug-In . SVG Version: 6.00 Build 0)  -->
<!DOCTYPE svg PUBLIC "-//W3C//DTD SVG 1.1//EN" "http://www.w3.org/Graphics/SVG/1.1/DTD/svg11.dtd">
<svg version="1.1" id="image" xmlns="http://www.w3.org/2000/svg" xmlns:xlink="http://www.w3.org/1999/xlink" x="0px" y="0px"
	 viewBox="0 0 1009.9922 1009.9917" enable-background="new 0 0 1009.9922 1009.9917" xml:space="preserve">
<path id="image-label" fill="#FC6E51" d="M504.9961,0C226.0977,0,0,226.0972,0,504.9956s226.0977,504.9961,504.9961,504.9961
	s504.9961-226.0977,504.9961-504.9961S783.8945,0,504.9961,0z"/>
<g id="image-shadow">
	<path opacity="0.1" fill="#434A54" d="M1006.1621,529.8843c-0.8056-0.9043-1.6602-1.7422-2.5479-2.5489
		c-0.7891-0.8544-1.5782-1.6601-2.4336-2.4326c-0.8213-0.9033-1.6602-1.7422-2.5645-2.5478
		c-0.789-0.8877-1.627-1.7266-2.5146-2.5157c-0.7891-0.8867-1.628-1.7255-2.5156-2.5146c-0.7891-0.8877-1.627-1.7256-2.5147-2.5146
		c-0.7891-0.8887-1.6279-1.7266-2.5156-2.5157c-0.7891-0.9043-1.627-1.7265-2.5313-2.5312c-0.789-0.8711-1.6113-1.71-2.4824-2.4824
		c-0.8057-0.9043-1.6602-1.7588-2.5478-2.5645c-0.7891-0.8711-1.6115-1.6934-2.4991-2.4824
		c-0.789-0.8877-1.6268-1.7266-2.5146-2.5156c-0.8057-0.8868-1.627-1.7256-2.5147-2.5313
		c-0.8055-0.8867-1.6445-1.7256-2.5322-2.5146c-0.7891-0.8877-1.6269-1.7256-2.5146-2.5147
		c-0.7891-0.8887-1.6281-1.7266-2.5157-2.5156c-0.789-0.8877-1.6269-1.7266-2.5146-2.5156
		c-0.7891-0.8868-1.6279-1.7256-2.5156-2.5147c-0.7891-0.9043-1.6436-1.7256-2.5313-2.5322
		c-0.7891-0.8867-1.6113-1.709-2.4824-2.4815c-0.8057-0.9043-1.6436-1.7426-2.5313-2.5483
		c-0.789-0.8711-1.6113-1.6929-2.4824-2.4819c-0.8222-0.9204-1.6767-1.7754-2.5976-2.5972
		c-0.7725-0.855-1.5782-1.6606-2.4493-2.4331c-0.8055-0.9043-1.6601-1.7588-2.5478-2.5645
		c-0.7969-0.8877-1.627-1.7094-2.5147-2.4985c-0.789-0.8877-1.6279-1.7261-2.5156-2.5151c-0.789-0.8877-1.6269-1.7261-2.5146-2.5152
		c-0.7891-0.8877-1.6114-1.7099-2.4911-2.499c-0.8135-0.9204-1.668-1.7588-2.5723-2.5806
		c-0.7813-0.8711-1.5947-1.6767-2.4658-2.4492c-0.7969-0.9043-1.627-1.7261-2.5146-2.5317
		c-0.8056-0.9043-1.6445-1.7427-2.5488-2.5479c-0.7969-0.8877-1.6348-1.726-2.5225-2.5151
		c-0.7812-0.8716-1.6035-1.6934-2.4745-2.4824c-0.8056-0.8877-1.6357-1.7261-2.5312-2.5318
		c-0.7979-0.8877-1.628-1.726-2.5235-2.5151c-0.7968-0.9038-1.6357-1.7422-2.5312-2.5313
		c-0.7979-0.8876-1.6192-1.7094-2.5068-2.4985c-0.7891-0.8877-1.628-1.7261-2.5157-2.5151
		c-0.7968-0.9043-1.627-1.7261-2.5234-2.5318c-0.7891-0.8711-1.6104-1.6933-2.4902-2.4824
		c-0.8057-0.9038-1.6524-1.7588-2.5567-2.5644c-0.7803-0.8711-1.6025-1.6929-2.4814-2.482
		c-0.7979-0.8877-1.6446-1.726-2.5401-2.5317c-0.7889-0.8877-1.6113-1.7095-2.4902-2.4985
		c-0.7979-0.8877-1.6279-1.7261-2.5234-2.5318c-0.7979-0.8877-1.628-1.7261-2.5235-2.5151
		c-0.7979-0.9038-1.6357-1.7422-2.5312-2.5313c-0.7979-0.8877-1.6201-1.7099-2.5078-2.499
		c-0.7891-0.8877-1.627-1.7261-2.5147-2.5151c-0.7969-0.9038-1.6357-1.7422-2.5312-2.5313
		c-0.7891-0.8877-1.6192-1.7099-2.5069-2.499c-0.789-0.8877-1.6191-1.7261-2.5156-2.5151c-0.7803-0.8711-1.5947-1.6929-2.4736-2.482
		c-0.8223-0.937-1.6934-1.792-2.6143-2.6137c-0.7725-0.855-1.5693-1.6602-2.416-2.4165c-0.8057-0.9043-1.6524-1.7588-2.5566-2.5645
		c-0.7891-0.8877-1.6192-1.7095-2.5069-2.5151c-0.8056-0.8877-1.6435-1.7261-2.54-2.5318
		c-0.7891-0.8877-1.6192-1.7094-2.5068-2.4985c-0.789-0.8877-1.627-1.7261-2.5146-2.5151
		c-0.7979-0.8877-1.6279-1.7261-2.5234-2.5313c-0.7969-0.8877-1.627-1.71-2.5235-2.5151c-0.789-0.8877-1.6191-1.71-2.5068-2.4991
		c-0.7813-0.8877-1.6026-1.7094-2.4824-2.4985c-0.8135-0.9043-1.6602-1.7588-2.5723-2.5644
		c-0.7813-0.8711-1.5947-1.6934-2.4658-2.4659c-0.7979-0.9043-1.6436-1.7426-2.5479-2.5478
		c-0.789-0.8877-1.6191-1.7261-2.5068-2.5152c-0.7979-0.8876-1.6358-1.726-2.5322-2.5317
		c-0.7891-0.8877-1.6192-1.7095-2.5069-2.4985c-0.789-0.8877-1.627-1.7261-2.5146-2.5152c-0.7979-0.8877-1.628-1.726-2.5235-2.5317
		c-0.7978-0.8877-1.6279-1.7095-2.5234-2.5151c-0.7891-0.8877-1.6191-1.7095-2.5068-2.4986
		c-0.7891-0.8877-1.6115-1.7094-2.4991-2.4985c-0.789-0.8877-1.6191-1.7261-2.498-2.5151c-0.8223-0.9205-1.6856-1.792-2.6055-2.5972
		c-0.7646-0.855-1.5625-1.6607-2.4171-2.4165c-0.8055-0.9043-1.6434-1.7593-2.5478-2.5645
		c-0.8057-0.8877-1.6436-1.726-2.5401-2.5317c-0.789-0.8877-1.6191-1.7095-2.5068-2.4985
		c-0.7891-0.8877-1.6269-1.7261-2.5146-2.5152c-0.7891-0.8877-1.628-1.7261-2.5157-2.5151
		c-0.7968-0.9043-1.6357-1.7427-2.5312-2.5318c-0.7891-0.8877-1.6113-1.7094-2.4903-2.4985
		c-0.7978-0.8877-1.6357-1.7261-2.54-2.5317c-0.7891-0.8877-1.6113-1.7095-2.4902-2.4986c-0.7891-0.8877-1.6192-1.7094-2.499-2.4985
		c-0.8057-0.9043-1.6524-1.7427-2.5479-2.5483c-0.7979-0.8877-1.6279-1.7261-2.5156-2.5152
		c-0.7969-0.9038-1.6348-1.7261-2.5312-2.5312c-0.789-0.8877-1.6191-1.71-2.5068-2.4986c-0.7891-0.8877-1.627-1.726-2.5147-2.5151
		c-0.789-0.8877-1.6279-1.7261-2.5156-2.5151c-0.7969-0.9043-1.6357-1.7261-2.5312-2.5318
		c-0.7891-0.8877-1.6281-1.726-2.5157-2.5151c-0.789-0.8711-1.6104-1.7095-2.498-2.4985c-0.7891-0.8877-1.6191-1.71-2.5068-2.5152
		c-0.7891-0.8877-1.6192-1.7099-2.5069-2.5151c-0.8144-0.9043-1.6689-1.7593-2.581-2.5645
		c-0.7725-0.8711-1.5782-1.6767-2.4414-2.4492c-0.8057-0.9043-1.6436-1.7427-2.5479-2.5483
		c-0.7978-0.8877-1.6357-1.7261-2.5312-2.5313c-0.7891-0.8877-1.6202-1.7099-2.5079-2.499
		c-5.7861-6.4766-14.1035-10.6519-23.4248-10.6519H294.0059c-17.3594,0-31.5625,14.2027-31.5625,31.5621v441.871
		c0,9.3213,4.1675,17.6387,10.6445,23.4258c0.8052,0.8867,1.6436,1.7422,2.5396,2.5312c0.789,0.8877,1.6191,1.709,2.4985,2.498
		c0.7891,0.8887,1.6191,1.71,2.499,2.499c0.8052,0.9043,1.6519,1.7588,2.5557,2.5645c0.7812,0.8711,1.603,1.6934,2.4746,2.4658
		c0.7969,0.9043,1.6269,1.7266,2.5234,2.5312c0.8052,0.9043,1.6436,1.7431,2.5479,2.5488c0.7802,0.8711,1.6025,1.6934,2.4736,2.4824
		c0.8057,0.9033,1.6441,1.7422,2.5479,2.5469c0.7978,0.8887,1.6279,1.7266,2.5234,2.5156c0.7891,0.8877,1.6191,1.71,2.5068,2.499
		c0.7979,0.9034,1.6358,1.7256,2.5318,2.5313c0.789,0.8877,1.6196,1.71,2.4985,2.499c0.7891,0.8877,1.6191,1.7256,2.5068,2.5147
		c0.7979,0.8877,1.6358,1.7265,2.5318,2.5322c0.789,0.8711,1.6108,1.6924,2.4907,2.4814c0.8057,0.9043,1.6436,1.7432,2.5396,2.5479
		c0.7973,0.8887,1.6274,1.7266,2.5151,2.5156c0.7974,0.8877,1.6274,1.7266,2.5151,2.5156c0.7974,0.8868,1.6358,1.7256,2.5235,2.5313
		c0.7973,0.8877,1.6274,1.709,2.5151,2.498c0.7891,0.8877,1.6274,1.7266,2.5151,2.5157c0.7974,0.8877,1.6275,1.7255,2.523,2.5312
		c0.7891,0.8877,1.6279,1.71,2.5156,2.5156c0.7969,0.8868,1.627,1.709,2.5147,2.5147c0.789,0.8711,1.6113,1.6933,2.4907,2.4824
		c0.789,0.8878,1.6274,1.7256,2.5151,2.5147c0.7969,0.9043,1.6436,1.7431,2.5401,2.5488c0.7968,0.8867,1.6191,1.7256,2.5068,2.5146
		c0.8052,0.8877,1.6436,1.7256,2.5395,2.5313c0.7891,0.8877,1.6192,1.7099,2.4986,2.499c0.789,0.8878,1.6191,1.7266,2.5068,2.5156
		c0.8057,0.8868,1.6441,1.7256,2.5401,2.5313c0.789,0.8877,1.6191,1.709,2.5068,2.498c0.7974,0.8887,1.6274,1.7266,2.5151,2.5157
		c0.7974,0.8876,1.6275,1.7265,2.523,2.5312c0.789,0.8711,1.6113,1.71,2.499,2.499c0.7974,0.8877,1.6357,1.7256,2.5313,2.5313
		c0.7978,0.8877,1.6357,1.7265,2.5234,2.5322c0.7891,0.8711,1.6113,1.6924,2.4907,2.4814c0.7974,0.8877,1.6441,1.7432,2.5396,2.5479
		c0.7973,0.8887,1.6279,1.71,2.5156,2.499c0.7891,0.8877,1.6269,1.7256,2.5146,2.5147c0.7891,0.8886,1.6275,1.7265,2.5152,2.5156
		c0.789,0.8877,1.6274,1.7266,2.5151,2.5156c0.7891,0.8867,1.6275,1.7256,2.5151,2.5147c0.7974,0.8877,1.6275,1.7256,2.5152,2.5146
		c0.7973,0.8887,1.6279,1.7266,2.5156,2.5156c0.7803,0.8877,1.6025,1.709,2.4736,2.4981c0.8223,0.9043,1.6768,1.7754,2.5977,2.582
		c0.7803,0.8867,1.6103,1.6924,2.4902,2.4815c0.7803,0.872,1.5948,1.6933,2.4659,2.4824c0.8134,0.9043,1.6679,1.7588,2.581,2.581
		c0.7891,0.8711,1.6104,1.6934,2.4902,2.4825c0.7969,0.8877,1.6358,1.7256,2.5235,2.5146c0.789,0.8877,1.6269,1.7266,2.5146,2.5147
		c0.7891,0.8886,1.628,1.7265,2.5157,2.5156c0.7968,0.8877,1.6269,1.7266,2.5234,2.5312c0.7891,0.8887,1.6191,1.71,2.5068,2.4991
		c0.7969,0.8877,1.627,1.7255,2.5069,2.5146c0.8134,0.9043,1.6679,1.7598,2.58,2.5645c0.7647,0.8554,1.5704,1.6611,2.4248,2.4336
		c0.7979,0.9043,1.6446,1.7421,2.5401,2.5478c0.7978,0.9044,1.6357,1.7422,2.5312,2.5313c0.7979,0.8877,1.6358,1.7265,2.5323,2.5322
		c0.789,0.8867,1.6191,1.709,2.5068,2.498c0.7891,0.8877,1.6269,1.7266,2.5146,2.5157c0.7891,0.8877,1.628,1.7255,2.5157,2.5146
		c0.789,0.8877,1.6269,1.7266,2.5146,2.5156c0.7979,0.9034,1.6358,1.7256,2.5322,2.5313c0.7891,0.8877,1.6192,1.7099,2.4981,2.499
		c0.7978,0.8877,1.6279,1.7256,2.5234,2.5146c0.7891,0.8876,1.6192,1.7255,2.5069,2.5146c0.7978,0.8887,1.6279,1.7266,2.5156,2.5156
		c0.7891,0.8877,1.6269,1.7266,2.5146,2.5313c0.8057,0.8886,1.6436,1.7265,2.5401,2.5322c0.789,0.8877,1.6191,1.709,2.5068,2.498
		c0.7891,0.8877,1.627,1.7266,2.5147,2.5157c0.789,0.8877,1.6279,1.7256,2.5156,2.5146c0.789,0.8877,1.6269,1.7266,2.5146,2.5156
		c0.7979,0.8877,1.628,1.7256,2.5235,2.5313c0.7812,0.8711,1.5947,1.6934,2.4746,2.4658c0.8135,0.9209,1.668,1.7754,2.5888,2.5977
		c0.7803,0.8711,1.6026,1.6924,2.4737,2.4658c0.7978,0.9043,1.6279,1.7256,2.5234,2.5312c0.7979,0.8877,1.6358,1.7266,2.5235,2.5313
		c0.7968,0.8877,1.6279,1.71,2.5156,2.499c0.789,0.8877,1.6269,1.7256,2.5146,2.5147c0.7891,0.8886,1.627,1.7265,2.5147,2.5156
		c0.789,0.8877,1.6279,1.7266,2.5156,2.5156c0.7891,0.8867,1.6113,1.709,2.4902,2.4981c0.8135,0.9043,1.6524,1.7588,2.5567,2.5644
		c0.789,0.8711,1.6103,1.6934,2.4902,2.4824c0.8057,0.9043,1.6524,1.7422,2.5567,2.5479c0.7724,0.8711,1.5781,1.6767,2.4404,2.4492
		c0.8145,0.9044,1.6689,1.7755,2.5898,2.5811c0.7891,0.8877,1.6104,1.7089,2.4815,2.498c0.8056,0.9043,1.6601,1.7432,2.5566,2.5488
		c0.7803,0.8711,1.5947,1.6768,2.457,2.4493c0.8057,0.9043,1.6447,1.7421,2.549,2.5478c0.789,0.8878,1.6269,1.7256,2.5146,2.5147
		c0.7813,0.8886,1.6026,1.7099,2.4824,2.499c0.8135,0.9043,1.6602,1.7588,2.5723,2.5644c0.1895,0.2139,0.4033,0.3946,0.5918,0.5918
		c256.6572-13.9892,462.2803-219.6045,476.2695-476.2607c-0.1474-0.1485-0.2959-0.3125-0.4599-0.461
		C1007.9209,531.5444,1007.0664,530.7065,1006.1621,529.8843z"/>
</g>
<g id="image-image">
	<path fill="#FFFFFF" d="M294.0059,252.498c-17.3594,0-31.5625,14.2027-31.5625,31.5621v441.871
		c0,17.3594,14.2032,31.5626,31.5625,31.5626h421.9804c17.3594,0,31.5625-14.2032,31.5625-31.5626v-441.871
		c0-17.3594-14.2031-31.5621-31.5625-31.5621H294.0059z"/>
	<g>
		<rect x="301.1729" y="307.0576" fill="#5D9CEC" width="407.6132" height="320.9321"/>
	</g>
	<g>
		<polygon fill-rule="evenodd" clip-rule="evenodd" fill="#A0D468" points="451.209,420.8628 535.7041,505.3569 574.1211,466.9565 
			704.6768,597.5288 704.6768,628.2534 305.2827,628.2534 305.2827,566.8052 		"/>
		<path fill-rule="evenodd" clip-rule="evenodd" fill="#FFCE54" d="M620.1983,367.0752c21.206,0,38.4003,17.228,38.4003,38.4175
			c0,21.2221-17.1943,38.417-38.4003,38.417c-21.2061,0-38.4004-17.1949-38.4004-38.417
			C581.7979,384.3032,598.9922,367.0752,620.1983,367.0752"/>
		<g opacity="0.149">
			<polygon fill-rule="evenodd" clip-rule="evenodd" fill="#32383F" points="507.3467,477.0005 535.7041,505.3569 412.792,628.2534 
							"/>
		</g>
	</g>
	<path opacity="0.1" fill="#32383F" d="M700.8955,314.9482v305.1509h-391.832V314.9482H700.8955 M716.6768,299.167H293.2822
		v336.7134h423.3946V299.167L716.6768,299.167z"/>
</g>
</svg>
