<?xml version="1.0" encoding="utf-8"?>
<!-- Generator: Adobe Illustrator 17.1.0, SVG Export Plug-In . SVG Version: 6.00 Build 0)  -->
<!DOCTYPE svg PUBLIC "-//W3C//DTD SVG 1.1//EN" "http://www.w3.org/Graphics/SVG/1.1/DTD/svg11.dtd">
<svg version="1.1" id="layers" xmlns="http://www.w3.org/2000/svg" xmlns:xlink="http://www.w3.org/1999/xlink" x="0px" y="0px"
	 viewBox="0 0 1009.9922 1009.9917" enable-background="new 0 0 1009.9922 1009.9917" xml:space="preserve">
<path id="layers-label" fill="#FFFFFF" d="M504.9961,0C226.0977,0,0,226.0972,0,504.9956s226.0977,504.9961,504.9961,504.9961
	s504.9961-226.0977,504.9961-504.9961S783.8945,0,504.9961,0z"/>
<g id="layers-shadow" opacity="0.1">
	<path fill="#434A54" d="M993.0928,628.3511l-2.959-1.709v-1.2656l-2.9746-1.7266v-1.249l-2.9756-1.71v-1.249l-2.959-1.71v-1.2656
		l-2.9922-1.7266v-1.248l-2.9589-1.7109v-1.248l-2.9756-1.7109v-1.2657l-2.9745-1.7255v-1.2491l-2.959-1.7099v-1.249l-2.9756-1.71
		v-1.2656l-2.9756-1.7256v-1.25l-2.959-1.709v-1.25l-2.9756-1.7266v-1.248l-2.9756-1.7266v-1.25l-2.9589-1.709v-1.25l-2.9747-1.7255
		v-1.2491l-2.9755-1.7265v-1.2491l-2.9756-1.7099v-1.249l-2.959-1.71v-1.2656l-2.9756-1.7266v-1.248l-2.959-1.711v-1.2656
		l-2.9756-1.7256v-1.2334l-2.9746-1.7256v-1.249l-2.9756-1.71v-1.2656l-2.9755-1.7256v-1.25l-2.959-1.7089v-1.25l-2.9756-1.709
		v-1.2657l-2.9756-1.7265v-1.25l-2.9746-1.709v-1.25l-2.959-1.709v-1.2656l-2.9756-1.7266v-1.249l-2.959-1.71v-1.249l-2.9756-1.7099
		v-1.2657l-2.9755-1.7265v-1.2481l-2.959-1.7109v-1.2656l-2.9912-1.7256v-1.2491l-2.959-1.7099v-1.249l-2.9756-1.71v-1.2656
		l-2.959-1.71v-1.2656l-2.9756-1.709v-1.25l-2.9756-1.709v-1.2656l-2.9755-1.7266v-1.25l-2.959-1.7089v-1.25l-2.9745-1.7256v-1.2491
		l-2.9756-1.7265v-1.249l-2.959-1.71v-1.249l-2.9756-1.7256v-1.25l-2.9756-1.7266v-1.248l-2.9756-1.711v-1.248l-2.959-1.7109
		v-1.2652l-2.9746-1.7261v-1.2495l-2.9589-1.7094v-1.2491l-2.9756-1.726v-1.2495l-2.9756-1.7261v-1.2495l-2.9756-1.7095v-1.2495
		l-2.9756-1.7261v-1.2656l-2.959-1.7095v-1.2495l-2.9746-1.7095v-1.2661l-2.959-1.7095v-1.2656l-2.9756-1.7095v-1.2495
		l-2.9755-1.7094v-1.2662l-2.9756-1.726v-1.2491l-2.959-1.7099v-1.249l-2.9756-1.71v-1.2656l-2.9746-1.7261v-1.2495l-2.959-1.7095
		v-1.249l-2.9756-1.71v-1.2656l-2.9756-1.7261v-1.2495l-2.9755-1.7095v-1.2495l-2.959-1.7094v-1.2823l-2.9756-1.7094v-1.2495
		l-2.959-1.7095v-1.2661l-2.9912-1.7256v-1.2495l-2.959-1.7095v-1.2495l-2.9756-1.7261v-1.2495l-2.9756-1.7261v-1.249l-2.959-1.71
		v-1.249l-2.9755-1.7261v-1.2495l-2.9746-1.726v-1.2491l-2.959-1.7099v-1.2491l-2.9756-1.726v-1.2495l-2.9756-1.7261v-1.2495
		l-2.959-1.7095v-1.2495l-2.9756-1.7261v-1.249l-2.9756-1.7261v-1.2495l-2.9745-1.7095v-1.2495l-2.959-1.7094v-1.2823
		l-2.9755-1.7094v-1.2496L504.3057,235.6645L278.4385,366.9272l-0.1807,60.9546l2.9751,1.7261v1.2495l2.9756,1.7095v1.2495
		l2.959,1.7261v1.249l2.9751,1.7261v1.2495l2.9756,1.7095v1.2495l2.959,1.726v1.2657l2.9755,1.7099v1.2491l2.9751,1.7099v1.2656
		l2.959,1.7261v1.249l2.9756,1.71v0.7725l-29.5405,17.1621l-0.1641,60.9541l2.9751,1.7265v1.2491l2.9756,1.7099v1.249l2.959,1.71
		v1.2656l2.9751,1.7266v1.249l2.9756,1.71v1.249l2.959,1.7256v1.25l2.9755,1.7256v1.249l2.9751,1.71v1.249l2.959,1.7265v1.2657
		l2.9756,1.7089v1.25h0.0161l-29.5566,17.1778l-0.1641,60.9551l2.9751,1.7265v1.249l2.9756,1.71v1.249l2.959,1.7256v1.25
		l2.9751,1.7256v1.249l2.9756,1.71v1.249l2.959,1.7266v1.2656l2.9755,1.71v1.249l2.9751,1.7099v1.2491l2.959,1.7265v1.2657
		l2.9756,1.7089v1.25l2.9751,1.709v1.25l2.9756,1.7256v1.249l2.959,1.7266v1.249l2.9756,1.7266v1.249l2.9751,1.7266v1.249
		l2.9756,1.7099v1.2491l2.9589,1.7256v1.25l2.9751,1.7255v1.2491l2.959,1.7099v1.2491l2.9756,1.7099v1.2656l2.9756,1.7266v1.249
		l2.9751,1.71v1.249l2.959,1.7266v1.2656l2.9756,1.709v1.25l2.9751,1.709v1.25l2.9755,1.7256v1.249l2.959,1.7265v1.2491
		l2.9756,1.7099v1.2656l2.959,1.71v1.2656l2.9751,1.71v1.249l2.9756,1.7256v1.25l2.9751,1.7256v1.249l2.959,1.71v1.249l2.9755,1.71
		v1.2656l2.9756,1.7266v1.249l2.9751,1.71v1.249l2.959,1.71v1.2822l2.9751,1.709v1.25l2.9756,1.709v1.25l2.959,1.7256v1.249
		l2.9756,1.7266v1.249l2.9756,1.71v1.249l2.9589,1.71v1.2656l2.9756,1.7265v1.2491l2.9746,1.7099v1.2656l2.9756,1.7256v1.2491
		l2.959,1.7099v1.249l2.9756,1.71v1.2656l2.9756,1.7266v1.249l2.9756,1.71v1.249l2.9589,1.71v1.2656l2.9747,1.7256v1.25
		l2.9589,1.709v1.25l2.9756,1.7255v1.2491l2.9756,1.7265v1.249l2.9756,1.71v1.249l2.959,1.7266v1.249l2.9756,1.7266v1.249
		l2.9746,1.71v1.2656l2.9756,1.7256v1.2334l2.959,1.7256v1.249l2.9755,1.7099v1.2657l2.959,1.7099v1.2657l2.9756,1.7099v1.249
		l2.9756,1.71v1.2656l2.9746,1.7256v1.25l2.959,1.709v1.25l2.9756,1.709v1.2656l2.9756,1.7266v1.249l2.9755,1.71v1.249l2.959,1.7265
		v1.2491l2.9756,1.7265v1.249l2.959,1.71v1.249l2.9746,1.7256v1.25l2.9756,1.7256v1.249l2.9756,1.71v1.2656l2.959,1.71v1.249
		l2.9756,1.7266v1.249l2.9589,1.7099v1.2657l2.9911,1.7256v1.25l2.959,1.7089v1.25l2.9756,1.709v1.2657l2.9756,1.7265v1.249
		l2.959,1.71v1.249l2.9756,1.71v1.2656l2.9756,1.7266v1.249l2.958,1.71v1.249l2.9756,1.7256v1.25l2.9755,1.7255v1.2491l2.959,1.7099
		v1.2657l2.9756,1.7265v1.2324l2.9756,1.7266v1.249l2.959,1.71v1.2656l2.9912,1.7256v1.25l2.959,1.709v1.25l2.9756,1.709v1.25
		l2.9589,1.709v1.2822l2.9756,1.7099v1.2491l2.9756,1.7099v1.2657l2.9756,1.7265v1.249l2.958,1.71v1.249l2.9756,1.71v1.2656
		l2.9756,1.7256v1.249l2.959,1.71v1.249l2.9756,1.7266v1.249l2.9755,1.7265v1.2491l2.959,1.7099v1.2657l2.9746,1.7255v1.2334
		l2.9756,1.7256v1.25l2.9756,1.709v1.25l2.959,1.709v1.2822l2.9756,1.71v1.249l2.959,1.71v1.249l2.9912,1.7432v1.249l2.959,1.7099
		v1.2491l2.9755,1.7099v1.2657l2.9756,1.7255v1.2334l2.959,1.709v1.2656l1.3154,0.7569
		c178.3096-45.4365,318.6797-185.7569,364.2149-364.0508l-1.2168-0.6904V628.3511z"/>
</g>
<g id="layers-layers">
	<g enable-background="new    ">
		<g>
			<polygon fill="#FC6E51" points="731.6524,582.1089 505.7852,713.356 278.4219,582.1089 504.3057,450.8306 			"/>
		</g>
		<g>
			<polygon fill="#E9573F" points="731.6524,582.1089 731.4883,643.064 505.6045,774.3267 505.7852,713.356 			"/>
		</g>
		<g>
			<polygon fill="#E9573F" points="505.7852,713.356 505.6045,774.3267 278.2578,643.064 278.4219,582.1089 			"/>
		</g>
		<g opacity="0.1">
			<polygon points="505.7852,713.356 505.6045,774.3267 278.2578,643.064 278.4219,582.1089 			"/>
		</g>
	</g>
	<g enable-background="new    ">
		<g>
			<polygon fill="#FFCE54" points="731.7188,474.272 505.8184,605.5513 278.4219,474.272 504.3389,342.9927 			"/>
		</g>
		<g>
			<polygon fill="#F6BB42" points="731.7188,474.272 731.5537,535.2261 505.6377,666.5054 505.8184,605.5513 			"/>
		</g>
		<g>
			<polygon fill="#F6BB42" points="505.8184,605.5513 505.6377,666.5054 278.2578,535.2261 278.4219,474.272 			"/>
		</g>
		<g opacity="0.1">
			<polygon points="505.8184,605.5513 505.6377,666.5054 278.2578,535.2261 278.4219,474.272 			"/>
		</g>
	</g>
	<g>
		<g>
			<polygon fill="#5D9CEC" points="731.6856,366.9438 505.8184,498.2065 278.4385,366.9272 504.3057,235.6645 			"/>
		</g>
		<g>
			<polygon fill="#4A89DC" points="731.6856,366.9438 731.5215,427.915 505.6377,559.1616 505.8184,498.2065 			"/>
		</g>
		<polygon fill="#3867A5" points="505.8184,498.2065 505.6377,559.1616 278.2578,427.8818 278.4385,366.9272 		"/>
	</g>
</g>
</svg>
