<?xml version="1.0" encoding="utf-8"?>
<!-- Generator: Adobe Illustrator 17.1.0, SVG Export Plug-In . SVG Version: 6.00 Build 0)  -->
<!DOCTYPE svg PUBLIC "-//W3C//DTD SVG 1.1//EN" "http://www.w3.org/Graphics/SVG/1.1/DTD/svg11.dtd">
<svg version="1.1" id="magic-wand" xmlns="http://www.w3.org/2000/svg" xmlns:xlink="http://www.w3.org/1999/xlink" x="0px" y="0px"
	 viewBox="0 0 1009.9922 1009.9917" enable-background="new 0 0 1009.9922 1009.9917" xml:space="preserve">
<path id="magic-wand-label" fill="#656D78" d="M504.9961,0C226.0977,0,0,226.0972,0,504.9956s226.0977,504.9961,504.9961,504.9961
	s504.9961-226.0977,504.9961-504.9961S783.8945,0,504.9961,0z"/>
<g id="magic-wand-shadow">
	<path opacity="0.3" fill="#434A54" d="M1005.8164,567.1177l-2.4658-2.5147c-0.0322-0.0176-0.0322-0.0176-0.0654-0.0332
		l-2.4659-2.4824c0-0.0166-0.0332-0.0166-0.0332-0.0332l-2.4658-2.4824c-0.0322-0.0157-0.0322-0.0157-0.0322-0.0157l-2.499-2.499
		c0-0.0332-0.0332-0.0332-0.0655-0.0654l-2.4335-2.4492c-0.0323-0.0176-0.0323-0.0176-0.0323-0.0176l-2.499-2.4981
		c-0.0332-0.0332-0.0654-0.0332-0.0986-0.0664l-2.4326-2.4648c0,0,0,0-0.0333,0l-2.4658-2.5156
		c-0.0332-0.0157-0.0332-0.0157-0.0654-0.0332l-4.9648-4.9971c-0.0332-0.0322-0.0656-0.0322-0.0987-0.0654l-2.4326-2.4492
		c0-0.0166-0.0332-0.0166-0.0332-0.0333l-2.4658-2.4824c-0.0322-0.0156-0.0322-0.0156-0.0654-0.0332l-2.4659-2.4824
		c0-0.0156-0.0332-0.0156-0.0332-0.0322l-2.4658-2.4815c-0.0322-0.0175-0.0322-0.0175-0.0654-0.0332l-2.4658-2.4824
		c0,0,0,0-0.0332-0.0166l-2.4659-2.5146c-0.0322-0.0176-0.0654-0.0176-0.0654-0.0332l-2.4658-2.4659
		c0-0.0332-0.0332-0.0332-0.0654-0.0498l-2.4659-2.4824c0,0-0.0332,0-0.0332-0.0322l-2.4658-2.4658
		c-0.0332-0.0166-0.0332-0.0166-0.0332-0.0332l-2.498-2.498c0,0,0,0,0-0.0176l-2.4991-2.4814c0-0.0332-0.0332-0.0332-0.0654-0.0654
		l-2.4658-2.4668c0-0.0157-0.0332-0.0157-0.0332-0.0323l-2.4658-2.4824c-0.0332-0.0166-0.0332-0.0166-0.0656-0.0322l-2.4658-2.4824
		c0-0.0166-0.0332-0.0166-0.0332-0.0332l-2.4658-2.4825c-0.0332-0.0156-0.0332-0.0156-0.0654-0.0332l-2.4659-2.4824
		c0-0.0156-0.0332-0.0156-0.0332-0.0322l-2.4658-2.4824c0-0.0166-0.0332-0.0166-0.0332-0.0166l-2.498-2.4981
		c-0.0331-0.0332-0.0655-0.0664-0.0987-0.0996l-2.4326-2.416c0-0.0156,0-0.0156,0-0.0156l-2.499-2.4991
		c-0.0332-0.0166-0.0332-0.0166-0.0332-0.0166l-4.9971-5.0302c-0.0332-0.0323-0.0654-0.0498-0.0986-0.0821l-2.4326-2.4326
		c0,0,0,0-0.0332,0l-2.4659-2.5156c-0.0332-0.0166-0.0332-0.0166-0.0654-0.0332l-2.4658-2.4819
		c0-0.0166-0.0332-0.0166-0.0332-0.0328l-2.4658-2.4824c-0.0332-0.0166-0.0332-0.0166-0.0655-0.0327l-2.4658-2.4824
		c0-0.0161-0.0332-0.0161-0.0332-0.0327l-2.4658-2.4825c-0.0332-0.0161-0.0332-0.0161-0.0654-0.0327l-2.4658-2.4824
		c0,0,0,0-0.0333-0.0161l-2.4658-2.5151c-0.0332-0.0166-0.0654-0.0166-0.0986-0.0332l-2.4326-2.482
		c-0.0332-0.0166-0.0332-0.0166-0.0664-0.0332l-4.9639-4.9971c-0.0332-0.0332-0.0664-0.0332-0.0986-0.0659l-2.4326-2.4492
		c0-0.0166-0.0332-0.0166-0.0332-0.0332l-2.4659-2.4819c-0.0331-0.0166-0.0331-0.0166-0.0654-0.0327l-2.4658-2.4825
		c0-0.0166-0.0332-0.0166-0.0332-0.0327l-2.4658-2.4824c-0.0332-0.0166-0.0332-0.0166-0.0655-0.0327l-2.4658-2.4824
		c0,0,0,0-0.0332-0.0166l-2.4658-2.5152c-0.0332-0.0161-0.0654-0.0161-0.0986-0.0327l-2.4327-2.4658c0,0,0,0-0.0332-0.0166
		l-2.4658-2.5151c-0.0332,0-0.0332,0-0.0654-0.0328l-2.4658-2.4658c0-0.0327-0.0332-0.0327-0.0664-0.0659l-2.4659-2.4653
		c0-0.0332-0.0322-0.0332-0.0654-0.0493l-2.4326-2.4498c-0.0332-0.0161-0.0332-0.0161-0.0332-0.0161l-2.499-2.5151
		c0-0.0166-0.0323-0.0166-0.0323-0.0332l-2.4658-2.4819c-0.0332-0.0166-0.0332-0.0166-0.0664-0.0332l-2.4658-2.482
		c0-0.0166-0.0322-0.0166-0.0322-0.0332l-2.4659-2.4819c-0.0333-0.0166-0.0333-0.0166-0.0665-0.0332l-2.4658-2.482
		c0-0.0166-0.0322-0.0166-0.0322-0.0332l-2.4658-2.4819c-0.0332-0.0166-0.0332-0.0166-0.0332-0.0166l-2.4981-2.4985
		c0-0.0327-0.0332-0.0327-0.0664-0.0659l-2.4326-2.4493l-0.0332-0.0166l-2.4981-2.4985c-0.0331-0.0327-0.0664-0.0493-0.0986-0.0659
		l-2.4336-2.4658c0,0,0,0-0.0322,0l-2.4658-2.5152c-0.0332-0.0161-0.0664-0.0161-0.0988-0.0493l-2.4336-2.4658c0,0,0,0-0.0322,0
		l-2.4658-2.5151c-0.0332-0.0162-0.0332-0.0162-0.0664-0.0328l-2.4658-2.4824c0-0.0161-0.0323-0.0161-0.0323-0.0327l-2.4658-2.4819
		c-0.0332-0.0166-0.0332-0.0166-0.0664-0.0332l-2.4658-2.482c0-0.0166-0.0322-0.0166-0.0322-0.0332l-2.4659-2.4819
		c-0.0332-0.0166-0.0332-0.0166-0.0664-0.0332l-2.4658-2.4819c0,0,0,0-0.0322-0.0166l-2.4658-2.5152
		c-0.0332-0.0166-0.0664-0.0166-0.0664-0.0327l-2.4659-2.4658c0-0.0332-0.0322-0.0332-0.0654-0.0493l-2.4658-2.4825
		c0,0-0.0332,0-0.0332-0.0327l-4.9639-4.9975c-0.0332-0.0161-0.0654-0.0161-0.0986-0.0327l-2.4326-2.4825
		c-0.0332-0.0161-0.0332-0.0161-0.0664-0.0327l-2.4658-2.4824c0-0.0161-0.0323-0.0161-0.0323-0.0327l-2.4658-2.4824
		c-0.0332-0.0162-0.0332-0.0162-0.0664-0.0328l-2.4658-2.4824c0,0,0,0-0.0322-0.0161l-2.4659-2.5151
		c-0.0331-0.0166-0.0663-0.0166-0.0663-0.0332l-2.4658-2.4658c0,0,0,0-0.0322-0.0162l-2.4658-2.5151
		c-0.0332,0-0.0332,0-0.0664-0.0332l-2.4659-2.4653c-0.0322-0.0332-0.0654-0.0493-0.0986-0.066l-2.4326-2.4658
		c0,0-0.0332,0-0.0332-0.0327l-2.4658-2.4658c0,0-0.0323-0.0166-0.0323-0.0332l-2.499-2.4985c0-0.0328-0.0332-0.0328-0.0654-0.0494
		l-2.4336-2.4492c0-0.0166-0.0322-0.0166-0.0322-0.0166l-2.4991-2.5151c0-0.0166-0.0331-0.0166-0.0331-0.0327l-2.4658-2.4825
		c-0.0322-0.0166-0.0322-0.0166-0.0654-0.0327l-2.4658-2.4824c0-0.0166-0.0323-0.0166-0.0323-0.0327l-2.4658-2.4824
		c-0.0332-0.0161-0.0332-0.0161-0.0332-0.0161l-2.499-2.4991c0-0.0327-0.0322-0.0327-0.0654-0.0654l-2.4327-2.4497
		c0-0.0161-0.0332-0.0161-0.0332-0.0161l-2.499-2.499c-0.0322-0.0328-0.0654-0.0494-0.0986-0.0655l-2.4326-2.4658
		c0,0-0.0332,0-0.0332-0.0332l-2.4659-2.4658c-0.0322-0.0327-0.0322-0.0327-0.0654-0.0327l-2.4658-2.4986c0,0,0,0-0.0332,0
		l-2.4658-2.5151c-0.0323-0.0166-0.0656-0.0166-0.0656-0.0493l-2.4658-2.4658c0,0,0,0-0.0332,0l-2.4658-2.5152
		c-0.0322-0.0166-0.0322-0.0166-0.0654-0.0327l-2.4659-2.4824c0-0.0166-0.0332-0.0166-0.0332-0.0327l-2.4658-2.4824
		c-0.0322-0.0166-0.0322-0.0166-0.0654-0.0328l-2.4658-2.4824c0,0,0,0-0.0331-0.0166l-2.4659-2.5151
		c-0.0322-0.0161-0.0654-0.0161-0.0654-0.0327l-2.4658-2.4659c0,0,0,0-0.0332-0.0166l-2.4648-2.5151
		c-0.0333-0.0161-0.0665-0.0327-0.0987-0.0654l-2.4336-2.4331c-0.0322-0.0327-0.0322-0.0327-0.0654-0.0327l-2.4658-2.4825
		c0-0.0327-0.0332-0.0327-0.0332-0.0327l-2.4658-2.4985h-0.0323l-2.499-2.5152c0-0.0166-0.0332-0.0166-0.0654-0.0493l-2.4335-2.4658
		h-0.0322l-2.4991-2.5151c-3.9121-3.9453-10.3564-3.9947-14.3349-0.0332l-59.0469,58.6206c-0.3623-0.2139-0.7568-0.4112-1.25-0.4278
		c-0.1309-1.5449-1.0186-2.4658-2.5313-2.5151c-0.0986-1.5615-0.9863-2.4653-2.499-2.5146
		c-0.1308-1.5455-1.0185-2.4659-2.5312-2.5152c-0.0988-1.562-0.9864-2.4658-2.4991-2.5151
		c-0.1308-1.5454-1.0185-2.4658-2.5312-2.5318c-0.0986-1.5454-1.0195-2.4658-2.499-2.4985
		c-0.1309-1.5454-1.0186-2.4658-2.5313-2.5317c-0.0986-1.5454-1.0195-2.4658-2.499-2.4986
		c-0.1309-1.562-1.0186-2.4824-2.5313-2.5317c-0.1318-1.5454-1.0195-2.4658-2.5312-2.5151c-0.0986-1.545-0.9863-2.4659-2.499-2.5152
		c-0.1319-1.5449-1.0186-2.4658-2.5312-2.5151c-0.0986-1.5449-0.9863-2.4658-2.499-2.5151
		c-0.1309-1.545-1.0186-2.4659-2.5312-2.5152c-0.0987-1.5615-0.9864-2.4658-2.4991-2.5151
		c-0.1308-1.5449-1.0185-2.4658-2.5312-2.5313c-0.0987-1.5454-1.0196-2.4658-2.5312-2.499
		c-0.0986-1.5615-0.9863-2.4819-2.499-2.5312c-0.0986-1.5455-1.0195-2.4493-2.5312-2.5152
		c-0.0987-1.5454-0.9864-2.4658-2.4991-2.4985c-0.1318-1.562-1.0195-2.4824-2.5312-2.5318
		c-0.0987-1.5454-0.9863-2.4658-2.499-2.5151c-0.1319-1.5454-1.0196-2.4658-2.5313-2.5151
		c-0.0986-1.5454-0.9863-2.4658-2.499-2.5152c-0.1319-1.5615-1.0195-2.4658-2.5312-2.5151
		c-0.0986-1.5454-0.9863-2.4658-2.499-2.5151c-0.1318-1.5616-1.0195-2.482-2.5312-2.5152
		c-0.0987-1.5449-0.9864-2.4819-2.4991-2.5312c-0.1307-1.5454-1.0185-2.4658-2.5312-2.499
		c-0.0986-1.5616-1.0195-2.482-2.5313-2.5313c-0.0986-1.5454-0.9863-2.4658-2.499-2.5151
		c-0.1318-1.5454-1.0195-2.4659-2.5312-2.5152c-0.0987-1.5454-1.0196-2.4658-2.4991-2.5151
		c-0.1318-1.5454-1.0195-2.4658-2.5312-2.5151c-0.0986-1.5455-1.0195-2.4659-2.499-2.5152
		c-0.1319-1.5615-1.0196-2.4658-2.5313-2.5151c-0.165-2.2027-1.9404-3.1729-4.7344-2.1206l-31.5135,11.852
		c-3.583,1.2989-9.0733,0.6411-12.1973-1.5449l-27.6494-19.2827c-3.1231-2.1699-5.5733-0.8218-5.3916,2.9756l1.5117,33.6499
		c0.1973,3.8135-2.1699,8.8437-5.2275,11.1455l-26.8438,20.3179c-2.8603,2.1865-2.4824,4.6357,0.6074,5.7866
		c0.083,1.0522,0.9541,1.9399,2.5157,2.5151c0.082,1.0518,0.9531,1.9234,2.5146,2.5152c0.083,1.0517,0.9541,1.9394,2.5156,2.5151
		c0.0821,1.0517,0.9532,1.9233,2.5147,2.5151c0.083,1.0518,0.9541,1.9395,2.5156,2.5152c0.082,1.0517,0.9531,1.9394,2.5147,2.5151
		c0.082,1.0518,0.9697,1.9395,2.5156,2.5151c0.082,1.0518,0.9697,1.9234,2.5146,2.5152c0.0821,1.0517,0.9541,1.9394,2.5157,2.5151
		c0.082,1.0684,0.9531,1.9561,2.5312,2.5147c0.082,1.0522,0.9531,1.9399,2.5156,2.5317c0.0821,1.0522,0.9532,1.9399,2.5147,2.4985
		c0.082,1.0523,0.9531,1.94,2.5156,2.5318c0.082,1.0522,0.9531,1.9399,2.5147,2.5151c0.082,1.0523,0.9531,1.9233,2.5146,2.5151
		c0.083,1.0523,0.9541,1.94,2.5156,2.5152c0.0821,1.0683,0.9532,1.9399,2.5313,2.5151c0.082,1.0518,0.9541,1.9395,2.5156,2.5313
		c0.082,1.0522,0.9531,1.9399,2.5147,2.5151c0.082,1.0522,0.9541,1.9233,2.5156,2.5151c0.082,1.0523,0.9531,1.94,2.5146,2.4991
		c0.0821,1.0517,0.9532,1.9394,2.5157,2.5312c0.082,1.0523,0.9531,1.94,2.5146,2.499c0.082,1.0684,0.9531,1.9395,2.5156,2.5313
		c0.0821,1.0522,0.9531,1.9399,2.5147,2.5151c0.082,1.0523,0.9531,1.94,2.5156,2.5152c0.082,1.0522,0.9531,1.9399,2.5146,2.4985
		c0.0821,1.0688,0.9532,1.9399,2.5157,2.5317c0.082,1.0523,0.9531,1.94,2.5312,2.5152c0.0821,1.0683,0.9531,1.9399,2.5147,2.5151
		c0.082,1.0523,0.9541,1.9399,2.5156,2.5151c0.082,1.0684,0.9531,1.9561,2.5146,2.5152c0.0664,1.0522,0.9541,1.9399,2.4991,2.5317
		c0.0986,1.0518,0.9531,1.9395,2.5312,2.4986c0.0664,1.0683,0.9541,1.9394,2.499,2.5312c0.0988,1.0522,0.9532,1.9399,2.5313,2.499
		c0.0664,1.0684,0.9541,1.9561,2.5322,2.5313c0.0654,1.0522,0.9531,1.9399,2.4981,2.499c0.0654,1.0684,0.9531,1.9727,2.5312,2.5479
		c0.0664,1.0356,0.9541,1.9233,2.499,2.5151c0.0988,1.0522,0.9532,1.9399,2.5313,2.4985c0.0664,1.0523,0.9541,1.94,2.499,2.5318
		c0.0986,1.0517,0.9531,1.9394,2.5313,2.4985c0.0664,1.0522,0.9541,1.9399,2.499,2.5317c0.0986,1.0518,0.9531,1.9395,2.5312,2.4986
		c0.0663,0.9536,0.8223,1.7426,2.0713,2.3178l-38.3183,38.0557c-0.0655-0.0332-0.0655-0.0825-0.1319-0.0986l-0.9199-0.1319
		c0.46-1.1176,0.1309-2.1367-1.5947-2.3833l-0.9209-0.1318c0.4609-1.1343,0.1318-2.1367-1.5938-2.3833l-0.9375-0.1318
		c0.4766-1.1177,0.1641-2.1368-1.5781-2.3833l-0.9209-0.1319c0.4609-1.1343,0.1318-2.1367-1.5937-2.3833l-0.9209-0.1313
		c0.4599-1.1182,0.1318-2.1372-1.5948-2.3838l-0.9209-0.1314c0.461-1.1342,0.1319-2.1372-1.5937-2.3837l-0.9209-0.1314
		c0.4599-1.1343,0.1474-2.1372-1.5947-2.3838l-0.9209-0.1313c0.4609-1.1343,0.1484-2.1372-1.5938-2.3838l-0.9209-0.1314
		c0.46-1.1181,0.1318-2.1372-1.6113-2.3838l-0.9199-0.1313c0.4765-1.1343,0.1474-2.1538-1.5948-2.3838l-0.9209-0.1313
		c0.461-1.1343,0.1485-2.1372-1.5947-2.3838l-0.9199-0.1314c0.4599-1.1343,0.1474-2.1538-1.5947-2.3838l-0.9375-0.1313
		c0.4775-1.1343,0.165-2.1533-1.5782-2.3999l-0.9199-0.1319c0.46-1.1176,0.1309-2.1367-1.5947-2.3671l-0.9375-0.1314
		c0.4775-1.1343,0.1484-2.1533-1.5781-2.3999l-0.9366-0.1318c0.4766-1.1177,0.1475-2.1367-1.5781-2.3833l-0.9375-0.1319
		c0.461-1.1342,0.1485-2.1367-1.5781-2.3833l-0.9365-0.1318c0.4599-1.1177,0.1484-2.1367-1.5782-2.3833l-0.9365-0.1318
		c0.46-1.1343,0.1475-2.1368-1.5781-2.3833l-0.9375-0.1319c0.46-1.1343,0.1484-2.1367-1.5781-2.3999l-0.9366-0.1313
		c0.46-1.1177,0.1475-2.1206-1.5781-2.3672l-0.9375-0.1314c0.46-1.1181,0.1485-2.1372-1.5947-2.4004l-0.9199-0.1313
		c0.4599-1.1177,0.1474-2.1372-1.5948-2.3838l-0.9209-0.1313c0.46-1.1177,0.1319-2.1206-1.5947-2.3838l-0.9199-0.1314
		c0.46-1.1176,0.1309-2.1372-1.5947-2.3838l-0.9209-0.1313c0.4443-1.1343,0.1318-2.1372-1.5948-2.3838l-0.9199-0.1313
		c0.46-1.1177,0.1309-2.1373-1.5947-2.3838l-0.9375-0.1314c0.4609-1.1343,0.1484-2.1367-1.5781-2.3833l-11.4737-1.644
		l-0.2304-0.4605c-0.542-1.101-1.2657-1.4956-1.9561-1.4135l-0.5586-1.1177c-0.5429-1.085-1.25-1.4795-1.9726-1.3975l-0.543-1.1015
		c-0.542-1.1011-1.2656-1.4957-1.9727-1.4136l-0.5586-1.1177c-0.5429-1.085-1.249-1.4795-1.956-1.3975l-0.5596-1.1176
		c-0.542-1.1016-1.249-1.4961-1.956-1.3975l-0.5586-1.1177c-0.543-1.0849-1.249-1.4795-1.9561-1.3974l-0.5596-1.1177
		c-0.5419-1.1016-1.249-1.4961-1.956-1.3975l-0.5586-1.1176c-0.543-1.1016-1.249-1.4961-1.9561-1.4136l-0.5595-1.1016
		c-0.542-1.1015-1.249-1.4961-1.9561-1.3974l-0.5586-1.1177c-1.0029-2.0386-2.6299-2.0386-3.6162,0l-8.6797,17.8193
		c-1.0195,2.0059-3.6494,3.9126-5.8857,4.2412l-19.627,2.959c-2.2031,0.3286-2.7295,1.874-1.1181,3.4522l2.4492,2.3671
		c0.0498,0.066,0.0166,0.0987,0.0659,0.148l2.4658,2.3838c0.0327,0.0493,0,0.082,0.0493,0.1313l2.4493,2.3672
		c0.0493,0.0659,0,0.0987,0.0659,0.1646l2.4658,2.3833c0.0493,0.0493,0,0.0825,0.0493,0.1152l2.4492,2.3672
		c0.0494,0.0659,0,0.0986,0.066,0.1645l2.2685,2.1861c1.2163,1.6933,1.9888,4.0273,1.7095,5.9346l-3.2715,19.5288
		c-0.3945,2.0551,0.8389,2.8769,2.5811,2.1372l-0.0655,0.3779c-0.4111,2.0552,0.8379,2.877,2.5811,2.1206l-0.0664,0.3945
		c-0.3946,2.0713,0.8388,2.8936,2.581,2.1372l-0.0654,0.3946c-0.3945,2.0385,0.8545,2.8603,2.5801,2.104l-0.0655,0.3945
		c-0.3945,2.0713,0.8545,2.8936,2.5811,2.1372l-0.0654,0.3945c-0.3946,2.0386,0.8545,2.8604,2.58,2.1207l-0.0654,0.3779
		c-0.3945,2.0713,0.8545,2.8769,2.5811,2.1372l-0.0655,0.3945c-0.3945,2.0547,0.8545,2.8604,2.5967,2.1206l-0.0654,0.378
		c-0.4111,2.0712,0.8379,2.893,2.581,2.1372l-0.0664,0.3945c-0.4101,2.0547,0.8389,2.8765,2.5811,2.1367l-0.0654,0.3784
		c-0.3946,2.0547,0.8379,2.8765,2.581,2.1206l-0.0664,0.3946c-0.3945,2.0547,0.8389,2.8764,2.5811,2.1367l-0.0655,0.3784
		c-0.3945,2.0547,0.8379,2.8765,2.5811,2.1206l-0.0664,0.3945c-0.4111,2.0713,0.8389,2.8931,2.581,2.1368l-0.0654,0.3945
		c-0.3945,2.0386,0.8379,2.8603,2.5811,2.1206l-0.0664,0.3779c-0.3946,2.0552,0.8554,2.877,2.581,2.1372l-0.0654,0.3946
		c-0.3945,2.0385,0.8545,2.8769,2.5967,2.1206l-0.0655,0.3945c-0.4111,2.0547,0.8389,2.8604,2.5645,2.1211l-0.0654,0.3945
		c-0.3946,2.0381,0.8545,2.8594,2.58,2.1201l-0.0654,0.378c-0.3945,2.0713,0.8545,2.8935,2.5977,2.1367l-0.0664,0.3945
		c-0.3946,2.0391,0.8388,2.8613,2.581,2.1211l-0.0654,0.3945c-0.4112,2.0547,0.8379,2.877,2.581,2.1211l-0.0664,0.3946
		c-0.3945,2.0371,0.8389,2.8593,2.5811,2.1367l-0.0654,0.3779c-0.3946,2.0547,0.8378,2.876,2.581,2.1201l-0.0664,0.3946
		c-0.3945,2.0722,0.8555,2.8769,2.5811,2.1367l-0.0655,0.3945c-0.3945,2.0391,0.8545,2.8613,2.5811,2.1211l-0.0664,0.3789
		c-0.3946,2.0703,0.8388,2.876,2.581,2.1367l-0.0654,0.3946c-0.3945,2.0381,0.8379,2.8593,2.5811,2.1201l-0.0664,0.3779
		c-0.3946,2.0723,0.8554,2.877,2.581,2.1367l-0.0654,0.3946c-0.3946,2.0556,0.8545,2.8613,2.5967,2.1211l-0.0655,0.3789
		c-0.4111,2.0703,0.8389,2.8759,2.5645,2.1367l-0.0655,0.3945c-0.0498,0.2949,0.1475,0.3613,0.1641,0.624L254.3887,727.1313
		c-3.9453,3.9131-3.9785,10.3565-0.0332,14.335l29.6885,29.8848c0.0166,0.0332,0.0493,0.0332,0.0659,0.0498l2.4492,2.4658
		l0.0327,0.0166l2.4824,2.499c0.0166,0.0156,0.0332,0.0156,0.0493,0.0322l2.4659,2.4991c0,0,0.0161,0,0.0327,0l2.4824,2.498
		c0.0166,0.0332,0.0493,0.0332,0.0654,0.0664l2.4497,2.4658c0.0162,0,0.0328,0,0.0494,0.0323l2.4658,2.4658
		c0.0166,0.0332,0.0332,0.0332,0.0493,0.0332l2.4658,2.499c0.0161,0,0.0327,0,0.0493,0.0322l2.4659,2.4659
		c0.0166,0.0332,0.0327,0.0332,0.0493,0.0332l2.4819,2.498c0.0166,0.0176,0.0332,0.0176,0.0498,0.0332l2.4658,2.4824
		c0.0161,0.0166,0.0327,0.0166,0.0489,0.0332l2.4658,2.4825c0.0166,0.0156,0.0332,0.0156,0.0498,0.0322l2.4658,2.4824
		c0.0161,0.0166,0.0322,0.0166,0.0488,0.0332l2.4658,2.4815c0.0167,0.0332,0.0499,0.0332,0.066,0.0498l2.4497,2.4658l2.5146,2.5156
		c0.0166,0.0322,0.0493,0.0322,0.0659,0.0654l2.4493,2.4659c0.0166,0,0.0327,0,0.0493,0.0332l2.4658,2.4648
		c0.0166,0.0332,0.0332,0.0332,0.0493,0.0332l2.4658,2.499c0.0327,0.0166,0.0493,0.0166,0.0826,0.0323l2.4492,2.4668l2.4985,2.5312
		c0.0327,0.0322,0.0493,0.0322,0.0825,0.0488l2.4492,2.4659c0.0166,0.0166,0.0328,0.0166,0.0489,0.0332l2.4658,2.4824
		c0.0166,0.0166,0.0332,0.0166,0.0498,0.0322l2.4658,2.4824c0.0161,0.0166,0.0327,0.0166,0.0488,0.0332l2.4659,2.4825
		c0.0166,0.0322,0.0498,0.0322,0.0659,0.0488l2.4497,2.4658l0.0327,0.0166l2.4819,2.498c0.0166,0.0175,0.0332,0.0175,0.0498,0.0332
		l2.4659,2.499c0.0161,0,0.0161,0,0.0322,0l2.4824,2.499c0.0166,0.0322,0.0498,0.0322,0.0659,0.0654l2.4497,2.4659
		c0.0323,0.0166,0.0489,0.0166,0.0821,0.0332l2.4492,2.4648c0,0.0166,0.0166,0.0166,0.0166,0.0332l2.4819,2.499
		c0.0166,0,0.0327,0,0.0493,0.0323l2.4825,2.4824c0.0166,0.0166,0.0327,0.0166,0.0493,0.0332l2.4658,2.4824
		c0.0161,0.0156,0.0327,0.0156,0.0493,0.0332l2.4658,2.4814c0.0166,0.0166,0.0327,0.0166,0.0494,0.0332l2.4653,2.4825
		c0.0166,0.0166,0.0332,0.0166,0.0498,0.0322l2.4658,2.4824c0.0166,0.0166,0.0327,0.0166,0.0488,0.0332l2.4659,2.4824
		c0.0166,0.0157,0.0332,0.0157,0.0498,0.0323l2.4658,2.499h0.0327l2.4819,2.499c0.0166,0.0322,0.0498,0.0322,0.0659,0.0654
		l2.4498,2.4659c0.0327,0.0166,0.0488,0.0166,0.082,0.0322l2.4492,2.4668c0,0,0.0166,0.0156,0.0166,0.0322l2.4824,2.499
		c0.0161,0,0.0327,0,0.0489,0.0332l2.4824,2.4825c0,0.0156,0.0166,0.0156,0.0166,0.0156l2.4824,2.499
		c0.0322,0.0322,0.0488,0.0322,0.082,0.0488l2.4493,2.4659c0.0166,0.0166,0.0332,0.0166,0.0488,0.0332l2.4658,2.4824
		c0.0166,0.0166,0.0332,0.0166,0.0498,0.0332l2.4658,2.4814c0.0166,0.0166,0.0332,0.0166,0.0489,0.0332l2.4658,2.4825
		c0.0166,0.0322,0.0498,0.0322,0.0664,0.0488l2.4492,2.4658c0.0166,0.0166,0.0166,0.0166,0.0332,0.0166l2.4814,2.499
		c0.0166,0.0332,0.0333,0.0332,0.0499,0.0332l2.4658,2.4981c0.0166,0,0.0332,0,0.0488,0.0332l2.4658,2.4658
		c0.0166,0.0322,0.0332,0.0322,0.0498,0.0322l2.4658,2.4991c0.0166,0,0.0323,0,0.0489,0.0332l2.4824,2.4814
		c0.0166,0.0166,0.0332,0.0166,0.0498,0.0332l2.4658,2.4824c0.0156,0.0166,0.0322,0.0166,0.0488,0.0332l2.4659,2.4825
		c0.0166,0.0156,0.0332,0.0156,0.0498,0.0322l2.4658,2.4824c0.0156,0.0165,0.0322,0.0165,0.0488,0.0322l2.4658,2.4825
		c0.0166,0.0166,0.0498,0.0166,0.0655,0.0498l2.4502,2.4658c0,0,0.0156,0,0.0322,0.0166l2.4824,2.498
		c0.0166,0.0166,0.0332,0.0166,0.0498,0.0332l2.4649,2.4825c0.0166,0.0322,0.0332,0.0322,0.0498,0.0322l2.4658,2.499
		c0.0166,0,0.0332,0,0.0488,0.0332l2.4658,2.4658c0.0332,0.0332,0.0498,0.0332,0.083,0.0655l2.4493,2.4658h0.0166l2.498,2.5156
		c0.0166,0.0156,0.0332,0.0156,0.0498,0.0322l2.4658,2.4824c0.0166,0.0167,0.0323,0.0167,0.0489,0.0333l2.4658,2.4814
		c0.0166,0.0176,0.0332,0.0176,0.0498,0.0332l2.4658,2.4824c0.0166,0.0166,0.0322,0.0166,0.0488,0.0332l2.4659,2.4824
		c0.0166,0.0157,0.0498,0.0157,0.0654,0.0489l2.4502,2.4658c0.0156,0,0.0156,0,0.0322,0.0166l2.4824,2.498
		c0.0166,0.0166,0.0498,0.0166,0.0655,0.0498l2.4502,2.4659c0.0156,0.0166,0.0322,0.0166,0.0488,0.0332l2.4824,2.498h0.0166
		l2.4824,2.499c0.0323,0.0323,0.0489,0.0323,0.0821,0.0655l2.4492,2.4658l2.499,2.5156c0.0322,0.0166,0.0488,0.0166,0.082,0.0488
		l2.4493,2.4659c0.0166,0.0166,0.0322,0.0166,0.0488,0.0332l2.4658,2.4824c0.0166,0.0156,0.0332,0.0156,0.0498,0.0322l2.4658,2.4824
		c0.0166,0.0166,0.0323,0.0166,0.0489,0.0332l2.4658,2.4815c0.0166,0.0176,0.0332,0.0176,0.0498,0.0332l2.4658,2.4824
		c0.0166,0.0166,0.0322,0.0166,0.0488,0.0332l2.4659,2.4824c0.0166,0.0157,0.0332,0.0157,0.0498,0.0323l2.4658,2.4824
		c0.0166,0.0166,0.0322,0.0166,0.0488,0.0332l2.4658,2.4814c0.0166,0.0166,0.0166,0.0166,0.0332,0.0166l2.4824,2.4991
		c0.0157,0.0332,0.0489,0.0332,0.0821,0.0654l4.9482,4.9814c0.0322,0.0332,0.0655,0.0332,0.0987,0.0655l2.4326,2.4492
		c0.0166,0.0166,0.0332,0.0166,0.0488,0.0332l2.4658,2.4824c0.0166,0.0166,0.0332,0.0166,0.0498,0.0322l2.4658,2.4825
		c0.0166,0.0166,0.0332,0.0166,0.0489,0.0332l2.4658,2.4824c0.0166,0.0156,0.0332,0.0156,0.0498,0.0322l2.4658,2.4824
		c0.0166,0.0166,0.0332,0.0166,0.0488,0.0332l2.4659,2.4825c0.0166,0.0166,0.0332,0.0166,0.0498,0.0322l2.4658,2.4824
		c0.0166,0.0166,0.0322,0.0166,0.0488,0.0331l1.6113,1.6113c249.9336-8.4004,453.7403-198.3828,483.7569-442.2666l-0.1641-0.164
		C1005.8496,567.1177,1005.8496,567.1177,1005.8164,567.1177z"/>
</g>
<g id="magic-wand-magic-wand">
	<path fill="#FFFFFF" d="M576.833,407.0869l127.794-126.8901c3.9785-3.9615,10.4228-3.9121,14.3349,0.0332l29.6885,29.8852
		c3.9453,3.9947,3.9121,10.4224-0.0986,14.3677l-127.795,126.8735L576.833,407.0869z M704.2656,320.8662
		c1.9073-1.9727,1.8409-5.1289-0.1318-7.0356l-0.3613-0.3287c-1.9727-1.9072-5.1288-1.8579-7.0362,0.1148l-79.3329,79.3169
		c-1.9062,1.9722-1.8408,5.145,0.1319,7.0024l3.2216,3.1236c1.9405,1.9067,5.0967,1.8413,7.0362-0.1314L704.2656,320.8662z"/>
	<path fill="#434A54" d="M575.0908,408.7476L254.3887,727.1313c-3.9453,3.9131-3.9785,10.3565-0.0332,14.335l29.6885,29.8848
		c3.9287,3.9453,10.3564,3.9785,14.3349,0.0332l320.669-318.3838L575.0908,408.7476z"/>
	<g>
		<path fill="#FFCE54" d="M442.8418,310.8389l32.4824,8.9589c3.6494,1.0191,7.6934,4.8165,8.9424,8.4332l11.0147,31.8251
			c1.249,3.6001,4.0107,3.9454,6.1474,0.7232l18.543-28.0606c2.0879-3.2055,6.9541-5.8852,10.7344-5.9511l33.6992-0.6411
			c3.8467-0.0987,5.0303-2.5972,2.6308-5.6055l-21.0087-26.3018c-2.4004-3.0083-3.42-8.4331-2.335-12.0825l9.7978-32.2197
			c1.085-3.6987-0.9209-5.5894-4.5039-4.2412l-31.5135,11.852c-3.583,1.2989-9.0733,0.6411-12.1973-1.5449l-27.6494-19.2827
			c-3.1231-2.1699-5.5733-0.8218-5.3916,2.9756l1.5117,33.6499c0.1973,3.8135-2.1699,8.8437-5.2275,11.1455l-26.8438,20.3179
			C438.6172,307.1235,439.126,309.8193,442.8418,310.8389z"/>
		<path fill="#FFCE54" d="M433.9981,439.5371c1.9882,1.0518,3.2871,0.1147,2.9257-2.1206l-3.4521-19.5459
			c-0.3945-2.2192,0.6572-5.3423,2.2021-6.9038l14.1875-13.9072c1.5938-1.562,1.1172-3.107-1.1679-3.4356l-19.627-2.7949
			c-2.2031-0.2959-4.8496-2.186-5.8691-4.2412l-8.8604-17.7207c-1.0029-2.0386-2.6299-2.0386-3.6162,0l-8.6797,17.8193
			c-1.0195,2.0059-3.6494,3.9126-5.8857,4.2412l-19.627,2.959c-2.2031,0.3286-2.7295,1.874-1.1181,3.4522l14.2358,13.7592
			c1.7095,1.5948,2.6631,4.6851,2.3179,6.9537l-3.2715,19.5288c-0.4273,2.2031,0.9536,3.1728,2.8936,2.1045l17.5566-9.2715
			c2.0049-1.0523,5.2598-1.0684,7.2158-0.0327L433.9981,439.5371z"/>
		<path fill="#FFCE54" d="M736.1572,553.8686c2.6954,1.3477,4.4374,0.0645,3.8788-2.8613l-4.5371-26.0713
			c-0.5254-2.959,0.8223-7.0693,2.959-9.1728l18.8721-18.543c2.1367-2.1035,1.4463-4.1758-1.5127-4.5703l-26.1699-3.7481
			c-2.959-0.4267-6.5098-2.9589-7.8252-5.6542l-11.8028-23.6392c-1.3486-2.6958-3.5507-2.6958-4.833-0.0327l-11.6385,23.7705
			c-1.2823,2.6963-4.7998,5.293-7.7589,5.7207l-26.1708,3.9121c-2.9922,0.4277-3.6818,2.499-1.4796,4.6025l19.0029,18.3789
			c2.1377,2.1036,3.4854,6.2139,3.0254,9.2051l-4.4062,26.0723c-0.4932,2.9258,1.2822,4.2412,3.9453,2.8281l23.3427-12.4277
			c2.6631-1.3809,7.0031-1.3809,9.6661,0L736.1572,553.8686z"/>
	</g>
</g>
</svg>
