<?xml version="1.0" encoding="utf-8"?>
<!-- Generator: Adobe Illustrator 17.1.0, SVG Export Plug-In . SVG Version: 6.00 Build 0)  -->
<!DOCTYPE svg PUBLIC "-//W3C//DTD SVG 1.1//EN" "http://www.w3.org/Graphics/SVG/1.1/DTD/svg11.dtd">
<svg version="1.1" id="moleskine" xmlns="http://www.w3.org/2000/svg" xmlns:xlink="http://www.w3.org/1999/xlink" x="0px" y="0px"
	 viewBox="0 0 1009.9922 1009.9917" enable-background="new 0 0 1009.9922 1009.9917" xml:space="preserve">
<path id="moleskine-label" fill="#FFFFFF" d="M504.9961,0C226.0977,0,0,226.0972,0,504.9956s226.0977,504.9961,504.9961,504.9961
	s504.9961-226.0977,504.9961-504.9961S783.8945,0,504.9961,0z"/>
<g id="moleskine-shadow" opacity="0.1">
	<path fill="#434A54" d="M1003.8438,535.8345c-0.92-1.0684-1.9063-2.0381-2.959-2.9756c-0.9199-1.0518-1.9063-2.0215-2.959-2.959
		c-0.9365-1.0518-1.9395-2.0381-2.9912-2.9912c-0.9209-1.0518-1.9072-2.0381-2.959-2.959c-0.9375-1.0518-1.9072-2.0381-2.9756-2.959
		c-0.9375-1.0517-1.9238-2.0381-2.9756-2.9756c-0.9209-1.0683-1.9072-2.039-2.959-2.9756c-0.9365-1.0517-1.9228-2.038-2.9921-2.9755
		c-0.92-1.0684-1.9063-2.0381-2.959-2.9747c-0.92-1.0361-1.9062-2.0058-2.9424-2.9257c-0.9365-1.086-1.9395-2.0723-3.0078-3.0254
		c-0.9208-1.0528-1.9073-2.0215-2.959-2.9424c-0.9209-1.0518-1.9072-2.0225-2.959-2.959c-0.9209-1.0693-1.9238-2.0557-2.9922-3.0088
		c-0.9199-1.0517-1.9062-2.0215-2.959-2.9414c-0.9365-1.0693-1.9228-2.0556-2.9911-2.9922
		c-0.9209-1.0361-1.874-2.0224-2.9268-2.9433c-0.9532-1.0518-1.9395-2.0547-3.0078-2.9912
		c-0.9209-1.0518-1.8907-2.0386-2.9424-2.959c-0.9375-1.0523-1.9073-2.0386-2.959-2.959c-0.9541-1.0689-1.9404-2.0713-3.0166-3.0083
		c-0.9209-1.0357-1.8985-2.022-2.9512-2.9424c-0.9287-1.0522-1.915-2.0386-2.9746-2.9756
		c-0.9209-1.0683-1.9072-2.0386-2.9678-2.9756c-0.9286-1.0517-1.915-2.0381-2.9756-2.959c-0.9199-1.0517-1.8984-2.038-2.9502-2.9589
		c-0.9375-1.0684-1.9238-2.0547-2.9833-2.9917c-0.9297-1.0523-1.9161-2.0381-2.9844-2.9751
		c-0.9199-1.0523-1.9062-2.0386-2.959-2.959c-0.9287-1.0689-1.915-2.0552-2.9746-2.9756c-0.9297-1.0522-1.9072-2.0386-2.959-2.959
		c-0.9297-1.0522-1.916-2.0386-2.9756-2.9756c-0.9287-1.0683-1.9072-2.0381-2.959-2.9751c-0.9287-1.0522-1.915-2.0385-2.9756-2.959
		c-0.9375-1.0849-1.9238-2.0712-2.9921-2.9917c-0.92-1.0522-1.8907-2.0219-2.9336-2.9428
		c-0.9454-1.0684-1.9483-2.0713-3.0254-3.0083c-0.9121-1.0518-1.882-2.022-2.9258-2.9258
		c-0.9287-1.0689-1.9151-2.0552-2.9756-2.9922c-0.9287-1.0518-1.9062-2.0381-2.959-2.959
		c-0.9365-1.0683-1.9316-2.0547-2.9912-2.9917c-0.9297-1.0517-1.916-2.0381-2.9756-2.9751
		c-0.9209-1.0522-1.8994-2.0219-2.9512-2.9428c-0.9365-1.0684-1.9228-2.0547-2.9833-2.9917
		c-0.9288-1.0523-1.9151-2.0386-2.9756-2.9756c-0.9287-1.0684-1.9151-2.0381-2.9756-2.9751
		c-0.9199-1.0357-1.8897-2.0059-2.9258-2.9263c-0.9453-1.0684-1.9395-2.0713-3.0078-3.0083
		c-0.9297-1.0684-1.916-2.0381-2.9756-2.9751c-0.9287-1.0522-1.9072-2.0386-2.9678-2.959c-0.9199-1.0522-1.9062-2.0386-2.959-2.959
		c-0.9287-1.0688-1.9228-2.0551-2.9834-2.9922c-0.9286-1.0517-1.915-2.038-2.9755-2.9589
		c-0.9288-1.0684-1.9063-2.0381-2.9668-2.9751c-0.9288-1.0523-1.9073-2.0386-2.9668-2.9756
		c-0.9209-1.0518-1.8995-2.022-2.9512-2.959c-0.9375-1.0518-1.9316-2.0547-3-2.9917c-0.9287-1.0523-1.9072-2.022-2.959-2.959
		c-0.9287-1.0522-1.9072-2.0386-2.9668-2.959c-0.9297-1.0522-1.9072-2.0385-2.959-2.959c-0.9375-1.0849-1.9404-2.0712-3.0089-3.0249
		c-0.9209-1.0351-1.8906-2.0053-2.9344-2.9257c-0.9366-1.0523-1.9229-2.0386-2.9834-2.9756
		c-0.9287-1.0684-1.9063-2.0381-2.9669-2.9751c-0.9286-1.0523-1.9239-2.0386-2.9834-2.9922
		c-0.9209-1.0518-1.8994-2.0054-2.9512-2.9258c-0.9287-1.085-1.915-2.0713-2.9834-2.9922c-0.9209-1.0517-1.9072-2.0381-2.9678-2.959
		c-0.9287-1.0683-1.915-2.0547-2.9669-2.9917c-0.9286-1.0517-1.9072-2.0219-2.959-2.959c-0.9365-1.0517-1.9316-2.038-2.9921-2.9916
		c-0.9288-1.0523-1.9063-2.022-2.959-2.959c-0.9286-1.0523-1.9062-2.022-2.959-2.959c-0.9365-1.0523-1.9307-2.0386-3-2.9917
		c-0.9199-1.0523-1.8984-2.022-2.9502-2.9424c-0.9287-1.0688-1.9238-2.0552-2.9834-2.9922c-0.9297-1.0517-1.9072-2.022-2.959-2.959
		c-0.9287-1.0517-1.9072-2.0381-2.9678-2.959c-0.9287-1.0683-1.9229-2.0546-2.9835-2.9917
		c-0.9209-1.0356-1.8984-2.0219-2.9423-2.9423c-0.9454-1.085-1.9395-2.0713-3.0166-3.0249
		c-0.9209-1.0357-1.8985-2.0054-2.9424-2.9258c-0.9375-1.0689-1.9239-2.0552-2.9834-2.9756
		c-0.9297-1.0684-1.9151-2.0386-2.9678-2.9756c-0.9199-1.0518-1.8984-2.022-2.9424-2.9424
		c-0.9365-1.0849-1.9316-2.0713-3.0078-3.0083c-0.9209-1.0522-1.8994-2.0386-2.9512-2.959
		c-0.9286-1.0683-1.915-2.0546-2.9756-2.9755c-0.9365-1.0684-1.9316-2.0547-3-2.9917c-0.9208-1.0518-1.8906-2.022-2.9423-2.9258
		c-0.9209-1.0689-1.9073-2.0552-2.959-2.9756c-0.9365-1.0684-1.9229-2.0547-2.9834-2.9756
		c-0.9287-1.0684-1.9151-2.0547-2.9678-2.9917c-0.9365-1.0522-1.9228-2.0386-2.9912-2.9756
		c-0.9209-1.0356-1.8906-2.022-2.9424-2.9424c-0.9287-1.0517-1.915-2.0547-2.9844-2.9917c-0.9286-1.0522-1.915-2.0385-2.9745-2.959
		c-0.9287-1.0522-1.9072-2.0385-2.959-2.9589c-0.9287-1.0684-1.915-2.0547-2.9677-2.9917c-0.9365-1.0523-1.9151-2.0386-2.9756-2.959
		c-0.9286-1.0689-1.9151-2.0386-2.9746-2.9922c-0.9286-1.0518-1.9072-2.022-2.959-2.9424
		c-0.9287-1.0683-1.9238-2.0547-2.9844-2.9751c-5.8847-6.7236-14.4248-11.0469-24.0576-11.0469H585.085h-31.5128H318.8281h-14.7949
		v196.9678v120.5772v196.9521h2.9678v2.9756h2.9751v2.959h2.9673v2.9922h2.9756v2.959h2.9668v2.959h2.9755v2.9746h2.9668v2.9756
		h2.9678v2.959h2.9668v2.9922h2.9756v2.959h2.9756v2.9756h2.9668v2.9746h2.9673v2.959h2.9751v2.959h2.9677v2.9921h2.9668v2.959
		h2.9756v2.9756h2.9756v2.9756h2.9668v2.959h2.9673v2.9912h2.9751v2.959h2.9678v2.959h2.9668v2.9755h2.9755v2.9756h2.9756v2.959
		h2.9668v2.9912h2.9673v2.959h2.9673v2.9756h2.9756v2.9756h2.9668v2.959h2.9756v2.959h2.9668v2.9921h2.9755v2.959h2.9668v2.9746H408
		v2.9756h2.9668v2.959h2.9834v2.9922h2.9678v2.959h2.9668v2.9756h2.9678v2.9589h2.9746v2.9747h2.9677v2.9589h2.9668v2.9922h2.9756
		v2.959h2.9756v2.9756h2.9668v2.959h2.9678v2.9756h2.9746v2.959h2.9678v2.9912h2.9668v2.9589h2.9755v2.9756h2.9756v2.9756h2.9668
		v2.959h2.9678v2.9911h2.9746v2.959h2.9678v2.9756h2.9668v2.959h2.9756v2.9756h2.9755v2.9589h2.9668v2.9922h2.9678v2.959h2.9668
		v2.9746h2.9668v2.959h2.9844v2.9756h2.9668v2.9756h2.9756v2.9756h2.959v2.9589h2.9755v2.9756h2.9668v2.9746h2.9668v2.959h2.9756
		v2.9756h2.9756v2.9756h2.9668v2.9756h2.9678v2.959h2.9756v2.9756h2.9668v2.9589h2.9668v2.9912h2.9755v2.959h2.9756v2.9756h2.9668
		v2.959h2.9678v2.9756h2.9756v2.9756h2.9668v2.9746h2.9756v2.959h2.9668v2.9756h2.9755v2.9755h2.9668v2.959h2.9678v2.9756h2.9756
		v2.9756h2.959v2.9745h2.9834v2.959h2.9668v1.1016c233.1006-33.4356,414.6816-226.0312,431.2851-464.1622
		c-0.5918-0.5918-1.1503-1.2168-1.7753-1.7753C1005.8985,537.7573,1004.9121,536.771,1003.8438,535.8345z"/>
</g>
<g id="moleskine-moleskine">
	<g>
		<path fill="#434854" d="M673.8213,218.8315H318.8281h-14.7949v514.4971h14.7949h354.9932
			c17.7539,0,32.1377-14.3838,32.1377-32.1377V250.9853C705.959,233.2319,691.5752,218.8315,673.8213,218.8315z"/>
	</g>
	<rect x="304.0332" y="415.7993" fill="#FFCE54" width="401.9258" height="120.5772"/>
	<polygon fill="#32363F" points="553.5723,218.8315 553.5723,218.897 553.5723,733.2964 553.5723,733.3286 585.085,733.3286 
		585.085,733.2964 585.085,218.897 585.085,218.8315 	"/>
	<polygon fill="#32363F" points="368.6538,731.8335 368.6538,731.8335 368.6538,791.1763 368.6538,791.1763 400.167,791.1763 
		400.167,791.1763 400.167,731.8335 400.167,731.8335 	"/>
</g>
</svg>
