<?xml version="1.0" encoding="utf-8"?>
<!-- Generator: Adobe Illustrator 17.1.0, SVG Export Plug-In . SVG Version: 6.00 Build 0)  -->
<!DOCTYPE svg PUBLIC "-//W3C//DTD SVG 1.1//EN" "http://www.w3.org/Graphics/SVG/1.1/DTD/svg11.dtd">
<svg version="1.1" id="notepad" xmlns="http://www.w3.org/2000/svg" xmlns:xlink="http://www.w3.org/1999/xlink" x="0px" y="0px"
	 viewBox="0 0 1009.9922 1009.9917" enable-background="new 0 0 1009.9922 1009.9917" xml:space="preserve">
<path id="notepad-label" fill="#FC6E51" d="M504.9961,0C226.0977,0,0,226.0972,0,504.9956s226.0977,504.9961,504.9961,504.9961
	s504.9961-226.0977,504.9961-504.9961S783.8945,0,504.9961,0z"/>
<g id="notepad-shadow" opacity="0.1">
	<path fill="#434A54" d="M1006.0957,542.5415h-2.9746v-2.959h-2.9756v-2.959h-2.959v-2.9756h-2.9755v-2.9746h-2.9756v-2.959h-2.959
		v-2.9755h-2.9756v-2.9756h-2.9746v-2.9756h-2.9756v-2.9756h-2.959v-2.959h-2.9756v-2.9746h-2.9756v-2.9756h-2.9755v-2.959h-2.959
		v-2.9755h-2.9745v-2.9756h-2.9756v-2.9756h-2.959v-2.9746h-2.9756v-2.959h-2.9756v-2.959h-2.959v-2.9756h-2.9755v-2.9756h-2.9747
		v-2.959h-2.9589v-2.9755h-2.9756v-2.9751h-2.9756v-2.9756h-2.959v-2.9751h-2.9756v-2.959h-2.9756v-2.9756h-2.959v-2.9756h-2.9746
		v-2.9585h-2.9756v-2.9756h-2.9589v-2.9755h-2.9756v-2.9751h-2.9756v-2.959h-2.9756v-2.9756h-2.959v-2.959h-2.9746v-2.9751h-2.9756
		v-2.9756h-2.9756v-2.959h-2.9589v-2.9917h-2.9756v-2.9589h-2.9756v-2.9756h-2.959v-2.9756h-2.9746v-2.9585h-2.9756v-2.9756h-2.9756
		v-2.9756h-2.959v-2.959h-2.9756v-2.9751h-2.9755v-2.9756h-2.9746v-2.9589h-2.959v-2.9751h-2.9756v-2.9756h-2.9756v-2.959h-2.959
		v-2.9756h-2.9756v-2.9751h-2.9756v-2.959h-2.9746v-2.9917h-2.959v-2.959h-2.9755v-2.9755h-2.9756v-2.9756h-2.959v-2.959h-2.9756
		v-2.9751h-2.9756v-2.9756h-2.9746v-2.959h-2.959v-2.9917h-2.9756v-2.959h-2.9755v-2.9589h-2.959v-2.9756h-2.9756v-2.9751h-2.9756
		v-2.959h-2.958v-2.9756h-2.9756v-2.9751h-2.9756v-2.959h-2.959v-2.9922h-2.9756v-2.959h-2.9755v-2.9751h-2.959v-2.9755h-2.9746
		v-2.959h-2.9756v-2.9751h-2.959v-2.9756h-2.9756v-2.959h-2.9756v-2.9756h-2.9756v-2.9751h-2.9589v-2.959h-2.9747v-2.9755h-2.9755
		v-2.9751h-2.959v-2.959h-2.9756v-2.9922h-2.9756v-2.959h-7.3154c-0.2792-0.23-0.5752-0.4272-0.8877-0.5918
		c-0.7227-1.249-1.7422-2.252-2.9745-2.9917c-0.7404-1.2329-1.7266-2.2353-2.959-2.959c-0.7402-1.2329-1.7266-2.2353-2.9756-2.9751
		c-0.7236-1.2329-1.7432-2.2524-2.9756-2.9756c-0.7402-1.2329-1.7265-2.2358-2.959-2.9589
		c-0.7402-1.2496-1.7588-2.2686-2.9922-2.9917c-0.7392-1.233-1.7255-2.2359-2.9589-2.959c-1.4952-2.4991-4.1094-4.274-7.2325-4.274
		c-4.7343,0-8.5644,3.8301-8.5644,8.5645v17.1123h-30.0497c-0.296-0.23-0.5919-0.4272-0.9044-0.5918
		c-0.7237-1.249-1.7266-2.252-2.9756-2.9917c-0.7236-1.2163-1.7266-2.2192-2.959-2.959c-0.7236-1.2329-1.7266-2.2353-2.959-2.959
		c-0.7402-1.249-1.7422-2.2519-2.9922-2.9917c-0.7392-1.2329-1.7255-2.2358-2.9745-2.9589c-0.7236-1.233-1.7265-2.2359-2.959-2.959
		c-0.7236-1.2495-1.7265-2.252-2.9755-2.9917c-1.4961-2.4991-4.1104-4.274-7.25-4.274c-4.7178,0-8.5479,3.8301-8.5479,8.5645
		v17.1123h-30.0332c-0.2959-0.23-0.6084-0.4272-0.9209-0.6245c-0.7393-1.2329-1.7422-2.2359-2.9756-2.959
		c-0.7392-1.249-1.7256-2.2353-2.959-2.9751c-0.7392-1.2329-1.7422-2.2192-2.9589-2.959c-0.7393-1.2329-1.7588-2.2524-2.9913-2.9756
		c-0.7402-1.2495-1.7432-2.2358-2.9755-2.9756c-0.7237-1.2329-1.7266-2.2192-2.959-2.9589
		c-0.7238-1.2491-1.7422-2.252-2.9922-2.9917c-1.4795-2.4986-4.0762-4.2574-7.2002-4.2574c-4.75,0-8.5645,3.8301-8.5645,8.5645
		v17.1123H531.791c-0.2793-0.2134-0.5752-0.4106-0.8711-0.5918c-0.7393-1.249-1.7422-2.252-2.9922-2.9917
		c-0.7226-1.2163-1.7255-2.2353-2.9589-2.959c-0.7393-1.2329-1.7256-2.2353-2.959-2.959c-0.7393-1.249-1.7422-2.2519-2.9911-2.9917
		c-0.7237-1.2163-1.7266-2.2192-2.9424-2.9423c-0.7402-1.2496-1.7432-2.2525-2.9922-2.9922
		c-0.7393-1.2329-1.7422-2.252-2.9756-2.9751c-1.4961-2.5152-4.1094-4.274-7.249-4.274c-4.7178,0-8.5479,3.8301-8.5479,8.5645
		v17.1123h-30.0507c-0.2793-0.2134-0.5752-0.4106-0.8877-0.5918c-0.7227-1.249-1.7256-2.2353-2.9746-2.9917
		c-0.7403-1.2329-1.7432-2.2353-2.9756-2.959c-0.7403-1.2329-1.7266-2.2353-2.9424-2.959c-0.7403-1.249-1.7432-2.2519-2.9922-2.9917
		c-0.7236-1.2163-1.7256-2.2026-2.9424-2.9262c-0.7402-1.2491-1.7422-2.2686-2.9922-3.0083
		c-0.7392-1.2329-1.7422-2.252-2.9756-2.9751c-1.4951-2.5152-4.1259-4.274-7.249-4.274c-4.7178,0-8.5644,3.8301-8.5644,8.5645
		v17.1123h-30.0498c-0.2793-0.2134-0.5752-0.4106-0.8877-0.5918c-0.7237-1.2329-1.7266-2.2353-2.9756-2.9751
		c-0.7398-1.2329-1.7422-2.2519-2.9756-2.9756c-0.7393-1.2329-1.7256-2.2192-2.9424-2.959
		c-0.7397-1.2329-1.7422-2.2353-2.9917-2.9751c-0.7231-1.2329-1.7261-2.2192-2.959-2.9589c-0.7397-1.233-1.7261-2.2525-2.959-2.9756
		c-0.7397-1.2495-1.7592-2.252-2.9917-2.9917c-1.4961-2.4991-4.1259-4.274-7.2661-4.274c-4.7016,0-8.5483,3.8301-8.5483,8.5645
		v17.1123h-30.0332c-0.2959-0.23-0.5918-0.4272-0.9043-0.6079c-0.7393-1.2329-1.7422-2.2525-2.9751-2.9756
		c-0.7398-1.2329-1.7427-2.2353-2.9756-2.9751c-0.7397-1.2329-1.7261-2.2192-2.9585-2.959
		c-0.7402-1.2329-1.7432-2.2524-2.9756-2.9756c-0.7236-1.2163-1.7265-2.2192-2.9424-2.9589
		c-0.7402-1.233-1.7431-2.2359-2.9921-2.9917c-0.7398-1.233-1.7422-2.2359-2.9756-2.959c-1.4956-2.5152-4.1094-4.274-7.2325-4.274
		c-4.7343,0-8.5649,3.8301-8.5649,8.5645v17.1123h-23.4087v445.0933v34.2256h2.9756v2.959h2.959v2.9756h2.9756v2.9756h2.9751v2.9745
		h2.9589v2.9756h2.9751v2.959h2.9756v2.9756h2.9756v2.9756h2.9756v2.9589h2.959v2.9756h2.9751v2.9746h2.959v2.959h2.9751v2.9756
		h2.9756v2.9756h2.9755v2.9756h2.959v2.9756h2.9756v2.9589h2.9751v2.959h2.9751v2.9912h2.959v2.959h2.9756v2.9756h2.959v2.9756
		h2.9755v2.959h2.9756v2.9756h2.9585v2.9746h2.9756v2.959h2.9751v2.9755h2.9756v2.9756h2.9756v2.959h2.959v2.9756h2.9756v2.9756
		h2.9751v2.959h2.9589v2.9746h2.9751v2.9756h2.9756v2.9756h2.959v2.9755h2.9756v2.959h2.9751v2.959h2.9756v2.9912h2.959v2.959
		h2.9751v2.9756h2.9755v2.9756h2.959v2.959h2.9756v2.9755h2.9756v2.9756h2.959v2.959h2.9746v2.9912h2.9756v2.959h2.9756v2.959
		h2.9589v2.9756h2.9756v2.9756h2.9756v2.9756h2.959v2.9746h2.9746v2.959h2.9756v2.9755h2.959v2.9756h2.9756v2.959h2.9756v2.9756
		h2.9755v2.9756h2.9747v2.959h2.9589v2.9746h2.9756v2.9756h2.9756v2.9755h2.959v2.959h2.9756v2.9756h2.9756v2.959h2.9589v2.9911
		h2.9747v2.959h2.9755v2.9756h2.959v2.959h2.9756v2.9756h2.9756v2.9755h2.9756v2.9756h2.959v2.959h2.9746v2.9746h2.959v2.9756
		h2.9755v2.959h2.9756v2.9756h2.959v2.9756h2.9922v2.9589h2.959v2.9756h2.9746v2.9746h2.9756v2.9756h2.959v2.9756h2.9756v2.5645
		c258.0214-7.9561,467.2031-209.3301,487.456-464.0801h-2.1377V542.5415z"/>
</g>
<g id="notepad-notepad">
	<g>
		<rect x="268.2793" y="278.1748" fill="#FFFFFF" width="473.4336" height="479.3188"/>
	</g>
	<g>
		<rect x="268.2793" y="723.2681" fill="#CCD1D9" width="473.4336" height="34.2256"/>
	</g>
	<g>
		<path fill="#434A54" d="M502.8594,252.498c-4.7178,0-8.5479,3.8301-8.5479,8.5645v34.2417c0,4.7178,3.8301,8.5478,8.5479,8.5478
			c4.7344,0,8.5644-3.83,8.5644-8.5478v-34.2417C511.4238,256.3281,507.5938,252.498,502.8594,252.498z"/>
		<path fill="#434A54" d="M435.3291,252.498c-4.7178,0-8.5644,3.8301-8.5644,8.5645v34.2417c0,4.7178,3.8466,8.5478,8.5644,8.5478
			s8.5645-3.83,8.5645-8.5478v-34.2417C443.8936,256.3281,440.0469,252.498,435.3291,252.498z"/>
		<path fill="#434A54" d="M367.7661,252.498c-4.7016,0-8.5483,3.8301-8.5483,8.5645v34.2417c0,4.7178,3.8467,8.5478,8.5483,8.5478
			c4.7344,0,8.5811-3.83,8.5811-8.5478v-34.2417C376.3472,256.3281,372.5005,252.498,367.7661,252.498z"/>
		<path fill="#434A54" d="M300.2529,252.498c-4.7343,0-8.5649,3.8301-8.5649,8.5645v34.2417c0,4.7178,3.8306,8.5478,8.5649,8.5478
			c4.7178,0,8.5479-3.83,8.5479-8.5478v-34.2417C308.8008,256.3281,304.9707,252.498,300.2529,252.498z"/>
		<path fill="#434A54" d="M705.4824,252.498c-4.7343,0-8.5644,3.8301-8.5644,8.5645v34.2417c0,4.7178,3.8301,8.5478,8.5644,8.5478
			c4.7178,0,8.5479-3.83,8.5479-8.5478v-34.2417C714.0303,256.3281,710.2002,252.498,705.4824,252.498z"/>
		<path fill="#434A54" d="M637.919,252.498c-4.7178,0-8.5479,3.8301-8.5479,8.5645v34.2417c0,4.7178,3.8301,8.5478,8.5479,8.5478
			c4.7343,0,8.5644-3.83,8.5644-8.5478v-34.2417C646.4834,256.3281,642.6533,252.498,637.919,252.498z"/>
		<path fill="#434A54" d="M570.4053,252.498c-4.75,0-8.5645,3.8301-8.5645,8.5645v34.2417c0,4.7178,3.8145,8.5478,8.5645,8.5478
			c4.7187,0,8.5322-3.83,8.5322-8.5478v-34.2417C578.9375,256.3281,575.124,252.498,570.4053,252.498z"/>
	</g>
	<path fill="#AAB2BC" d="M641.0098,609.8257L506.8213,377.4643c-0.1318-0.1313-0.3291-0.4272-0.6084-0.6411
		c-0.1807-0.1479-0.3945-0.2465-0.625-0.3286c-0.0332-0.0166-0.0654-0.0166-0.0986-0.0493c-0.1153,0-0.2959-0.0327-0.625-0.0659
		c-0.1641,0.0332-0.3448,0.0659-0.5088,0.0659c-0.1973,0.0986-0.5264,0.2139-0.7735,0.4111
		c-0.1972,0.148-0.3447,0.3287-0.4765,0.5093c-0.0322,0.0493-0.0654,0.0659-0.082,0.0986L368.9663,609.7104
		c-0.0327,0.0332-0.0327,0.0655-0.0493,0.0977c-0.2139,0.4277-0.2793,0.8887-0.1973,1.3809c0,0.0498,0,0.1152,0.0166,0.165
		c0.1807,0.3779,0.2959,0.7236,0.5586,0.9863c0.0332,0.0323,0.066,0.0323,0.0821,0.0655c0.3945,0.3613,0.9209,0.5761,1.4795,0.5761
		l268.2627,0.1153c0.082,0,0.247-0.0332,0.4765-0.0664c0.4111-0.0987,0.7725-0.2793,1.0684-0.5586
		c0.0986-0.1641,0.3457-0.461,0.4775-0.7891C641.3711,611.0747,641.3223,610.3677,641.0098,609.8257z M507.0674,532.1196
		l0.0332-145.3838l126.0186,218.2071L507.0674,532.1196z M502.6943,532.1196l-125.854,72.6924l125.8873-218.0762L502.6943,532.1196z
		 M504.8809,535.8999l126.0517,72.8242l-251.9223-0.0995L504.8809,535.8999z"/>
</g>
</svg>
