<?xml version="1.0" encoding="utf-8"?>
<!-- Generator: Adobe Illustrator 17.1.0, SVG Export Plug-In . SVG Version: 6.00 Build 0)  -->
<!DOCTYPE svg PUBLIC "-//W3C//DTD SVG 1.1//EN" "http://www.w3.org/Graphics/SVG/1.1/DTD/svg11.dtd">
<svg version="1.1" id="paint-brush" xmlns="http://www.w3.org/2000/svg" xmlns:xlink="http://www.w3.org/1999/xlink" x="0px"
	 y="0px" viewBox="0 0 1009.9922 1009.9917" enable-background="new 0 0 1009.9922 1009.9917" xml:space="preserve">
<path id="paint-brush-label" fill="#FFFFFF" d="M504.9961,0C226.0977,0,0,226.0972,0,504.9956s226.0977,504.9961,504.9961,504.9961
	s504.9961-226.0977,504.9961-504.9961S783.8945,0,504.9961,0z"/>
<g id="paint-brush-shadow" opacity="0.1">
	<path fill="#434A54" d="M1008.0195,480.6172c-0.3613-0.3779-1.0195-0.5918-1.8085-0.7232
		c-0.1475-0.789-0.3614-1.4301-0.7227-1.8086c-0.3623-0.3613-1.0029-0.5586-1.7754-0.6904
		c-0.1484-0.789-0.3623-1.4463-0.7236-1.8081c-0.3614-0.3779-1.0196-0.5918-1.8086-0.7231
		c-0.1475-0.7891-0.3614-1.4302-0.7227-1.8081c-0.3623-0.3619-1.0029-0.5591-1.7921-0.6905
		c-0.1484-0.789-0.3622-1.4467-0.7236-1.8086c-0.3613-0.3779-1.0029-0.5918-1.792-0.7231
		c-0.1475-0.7891-0.3613-1.4302-0.7227-1.8081c-0.3623-0.3618-1.0029-0.5591-1.7919-0.6904
		c-0.1485-0.7891-0.3615-1.4468-0.7237-1.8086c-0.3613-0.378-1.0029-0.5918-1.7921-0.7232
		c-0.1474-0.789-0.3613-1.4468-0.7226-1.8081c-0.3622-0.3618-1.003-0.5757-1.792-0.707c-0.1485-0.7891-0.3613-1.4302-0.7237-1.8081
		c-0.3613-0.3784-1.0029-0.5757-1.7919-0.7071c-0.1475-0.789-0.3615-1.4467-0.7227-1.8081
		c-0.3623-0.3618-1.0029-0.5918-1.792-0.7236c-0.1484-0.7891-0.3613-1.4302-0.7236-1.8081c-0.3614-0.3618-1.003-0.5591-1.792-0.6904
		c-0.1475-0.7891-0.3613-1.4463-0.7227-1.8081c-0.3622-0.378-1.0195-0.5918-1.8086-0.7232
		c-0.1474-0.789-0.3613-1.4302-0.7236-1.8086c-0.3613-0.3613-1.002-0.5586-1.7744-0.6904
		c-0.1485-0.7891-0.3623-1.4463-0.7236-1.8081c-0.3615-0.3779-1.0196-0.5918-1.8086-0.7232
		c-0.1475-0.789-0.3615-1.4301-0.7227-1.8085c-0.3623-0.3614-1.0029-0.5586-1.7754-0.6905
		c-0.1484-0.789-0.3623-1.4463-0.7236-1.8081c-0.3613-0.3779-1.0196-0.5918-1.8086-0.7231
		c-0.1475-0.7891-0.3613-1.4468-0.7227-1.8086c-0.3622-0.3613-1.0029-0.5752-1.792-0.7066c-0.1484-0.789-0.3623-1.4301-0.7236-1.792
		c-0.3613-0.3779-1.0029-0.5918-1.792-0.7231c-0.1474-0.7891-0.3613-1.4468-0.7226-1.8086
		c-0.3623-0.3613-1.0031-0.5752-1.792-0.7065c-0.1486-0.7891-0.3623-1.4302-0.7237-1.8081
		c-0.3613-0.3785-1.0029-0.5757-1.792-0.7071c-0.1475-0.789-0.3613-1.4468-0.7227-1.8081c-0.3623-0.3618-1.0029-0.5918-1.792-0.7236
		c-0.1484-0.7891-0.3613-1.4302-0.7236-1.8081c-0.3615-0.3618-1.0031-0.5591-1.7921-0.6904
		c-0.1475-0.7891-0.3614-1.4468-0.7227-1.8082c-0.3623-0.3618-1.0195-0.5917-1.8086-0.707
		c-0.1318-0.8056-0.3613-1.4468-0.7236-1.8247c-0.3613-0.3618-1.002-0.5591-1.7754-0.6904
		c-0.1475-0.7891-0.3613-1.4468-0.7227-1.8081c-0.3623-0.3784-1.0029-0.5918-1.8086-0.7237
		c-0.1318-0.789-0.3447-1.4301-0.707-1.8081c-0.3613-0.3618-1.0185-0.559-1.8242-0.6904c-0.1318-0.7891-0.3457-1.4468-0.707-1.8081
		c-0.3615-0.3784-1.003-0.5918-1.792-0.7236c-0.1475-0.7886-0.3615-1.4463-0.7238-1.8081c-0.3613-0.3614-1.0019-0.5752-1.791-0.7066
		c-0.1484-0.789-0.3623-1.4302-0.7236-1.792c-0.3613-0.3779-1.0029-0.5918-1.792-0.7231c-0.1475-0.7891-0.3613-1.4468-0.7227-1.8086
		c-0.3624-0.3613-1.0029-0.5752-1.7921-0.7066c-0.1484-0.789-0.3623-1.4301-0.7236-1.8085c-0.3613-0.378-1.0029-0.5752-1.792-0.7066
		c-0.1474-0.7891-0.3613-1.4468-0.7227-1.8086c-0.3622-0.3779-1.003-0.5918-1.792-0.7231
		c-0.1485-0.7891-0.3623-1.4302-0.7237-1.8081c-0.3613-0.3619-1.0029-0.5591-1.792-0.6905
		c-0.1474-0.789-0.3613-1.4467-0.7226-1.8086c-0.3623-0.3613-1.0029-0.5752-1.792-0.7065
		c-0.1484-0.8057-0.3623-1.4468-0.7236-1.8247c-0.3614-0.3618-1.003-0.5591-1.792-0.6904
		c-0.1475-0.7891-0.3614-1.4468-0.7227-1.8081c-0.3623-0.3785-1.0195-0.5918-1.8086-0.7237
		c-0.1484-0.789-0.3613-1.4302-0.7236-1.8081c-0.3613-0.3618-1.002-0.5591-1.7754-0.6904
		c-0.1475-0.7891-0.3613-1.4468-0.7227-1.8081c-0.3623-0.3784-1.0195-0.5918-1.8085-0.7236
		c-0.1475-0.7891-0.3614-1.4463-0.7237-1.8082c-0.3613-0.3618-1.002-0.5752-1.791-0.707c-0.1484-0.789-0.3623-1.4302-0.7236-1.7915
		c-0.3614-0.3784-1.003-0.5918-1.792-0.7236c-0.1475-0.7891-0.3613-1.4463-0.7237-1.8081c-0.3613-0.3618-1.0019-0.5752-1.791-0.7071
		c-0.1484-0.789-0.3622-1.4301-0.7236-1.8081c-0.3613-0.3779-1.0029-0.5752-1.792-0.707c-0.1475-0.7891-0.3613-1.4463-0.7236-1.8081
		c-0.3614-0.3618-1.002-0.5752-1.791-0.707c-0.1485-0.8052-0.3623-1.4463-0.7237-1.8243c-0.3613-0.3618-1.0029-0.559-1.7921-0.6904
		c-0.1474-0.789-0.3613-1.4468-0.7236-1.8086c-0.3613-0.3613-1.0186-0.5918-1.8076-0.7065
		c-0.1485-0.8057-0.3613-1.4468-0.7237-1.8247c-0.3613-0.3618-1.0029-0.5591-1.7753-0.6905
		c-0.1475-0.789-0.3615-1.4467-0.7227-1.8085c-0.3623-0.378-1.0029-0.5918-1.8086-0.7232c-0.1318-0.7891-0.3457-1.4302-0.707-1.8081
		c-0.3615-0.3618-1.0197-0.5757-1.8087-0.6904c-0.1475-0.7891-0.3613-1.4468-0.7227-1.8086
		c-0.3623-0.378-1.0029-0.5918-1.7921-0.7232c-0.1484-0.789-0.3613-1.4467-0.7236-1.8081c-0.3613-0.3618-1.0029-0.5757-1.792-0.707
		c-0.1475-0.7891-0.3613-1.4302-0.7226-1.8081c-0.3624-0.3784-1.003-0.5757-1.792-0.707c-0.1485-0.7891-0.3615-1.4302-0.7238-1.8081
		c-0.3613-0.3619-1.0029-0.5591-1.792-0.6905c-0.1474-0.8056-0.3613-1.4468-0.7226-1.8247c-0.3623-0.3779-1.0029-0.5752-1.792-0.707
		c-0.1475-0.7891-0.3613-1.4463-0.7236-1.8081c-0.3614-0.3618-1.002-0.5752-1.7911-0.7071
		c-0.1484-0.8051-0.3623-1.4462-0.7236-1.8247c-0.3613-0.3613-1.0029-0.5586-1.792-0.6904
		c-0.1474-0.789-0.3613-1.4463-0.7236-1.8081c-0.3613-0.3618-1.002-0.5752-1.791-0.707c-0.1486-0.8052-0.3623-1.4463-0.7238-1.8247
		c-0.3613-0.3614-1.0195-0.5586-1.8085-0.6905c-0.1475-0.789-0.3613-1.4462-0.7227-1.8081
		c-0.3623-0.3618-1.0029-0.5918-1.792-0.7231c-0.1484-0.7891-0.3623-1.4302-0.7236-1.8086
		c-0.3615-0.3613-1.0031-0.5586-1.7755-0.6904c-0.1475-0.7886-0.3613-1.4463-0.7237-1.8081
		c-0.3613-0.378-1.0185-0.5918-1.8076-0.7232c-0.1484-0.789-0.3623-1.4302-0.7236-1.8081c-0.3613-0.3618-1.0029-0.5591-1.792-0.6904
		c-0.1475-0.8057-0.3613-1.4468-0.7227-1.8247c-0.3623-0.3784-1.0029-0.5757-1.792-0.7071
		c-0.1484-0.789-0.3613-1.4301-0.7236-1.8081c-0.3613-0.3618-1.0029-0.559-1.792-0.6904c-0.1474-0.8057-0.3613-1.4468-0.7226-1.8247
		c-0.3623-0.3784-1.0031-0.5757-1.7921-0.707c-0.1485-0.7891-0.3614-1.4468-0.7237-1.8081
		c-0.3613-0.3619-1.0029-0.5757-1.792-0.7071c-0.1474-0.8056-0.3613-1.4467-0.7226-1.8247
		c-0.3623-0.3618-1.0029-0.5591-1.792-0.6904c-0.1484-0.7891-0.3613-1.4468-0.7236-1.8081
		c-0.3615-0.3618-1.0186-0.5918-1.8077-0.707c-0.1484-0.8052-0.3623-1.4463-0.7236-1.8247
		c-0.3613-0.3614-1.0029-0.5586-1.7754-0.6905c-0.1484-0.789-0.3613-1.4463-0.7236-1.8081c-0.3613-0.3618-1.002-0.5918-1.791-0.7231
		c-0.1485-0.7891-0.3623-1.4302-0.7237-1.8086c-0.3613-0.3613-1.0195-0.5586-1.8086-0.6905
		c-0.1474-0.789-0.3613-1.4462-0.7226-1.8081c-0.3623-0.3779-1.0029-0.5918-1.792-0.7231
		c-0.1484-0.7891-0.3623-1.4302-0.7236-1.8086c-0.3615-0.3613-1.0031-0.5586-1.7921-0.6904
		c-0.1475-0.8052-0.3614-1.4463-0.7227-1.8247c-0.3623-0.378-1.0029-0.5752-1.792-0.7066c-0.1484-0.789-0.3623-1.4302-0.7236-1.8086
		c-0.3613-0.3613-1.0029-0.5586-1.792-0.6904c-0.1475-0.8052-0.3613-1.4463-0.7227-1.8247
		c-0.3623-0.3779-1.0029-0.5752-1.7919-0.7065c-0.1485-0.7891-0.3624-1.4468-0.7237-1.8082
		c-0.3613-0.3784-1.0029-0.5756-1.792-0.707c-0.1474-0.789-0.3613-1.4468-0.7227-1.8081c-0.3622-0.3618-1.003-0.5918-1.792-0.7236
		c-0.1485-0.7891-0.3613-1.4136-0.7237-1.7915c-0.3613-0.3784-1.0029-0.5757-1.7919-0.7071
		c-0.1475-0.789-0.3614-1.4467-0.7227-1.8081c-0.3623-0.3784-1.0195-0.5918-1.8086-0.7236
		c-0.1318-0.7891-0.3613-1.4302-0.7236-1.8081c-0.3614-0.3618-1.002-0.5591-1.7754-0.6904
		c-0.1475-0.7891-0.3613-1.4468-0.7227-1.8081c-0.3623-0.3785-1.0029-0.5918-1.7921-0.7237
		c-0.1484-0.789-0.3613-1.4301-0.7236-1.8081c-0.3613-0.3618-1.0186-0.5591-1.8076-0.6904
		c-0.1485-0.7891-0.3623-1.4468-0.7236-1.8081c-0.3614-0.3618-1.003-0.5918-1.792-0.7232c-0.1475-0.789-0.3615-1.4467-0.7237-1.8085
		c-0.3613-0.3614-1.002-0.5752-1.791-0.7066c-0.1484-0.7891-0.3623-1.4302-0.7236-1.792c-0.3615-0.3779-1.0031-0.5918-1.7921-0.7231
		c-0.1475-0.7891-0.3613-1.4468-0.7227-1.8086c-0.3623-0.3614-1.0029-0.5752-1.7921-0.7066
		c-0.1484-0.789-0.3622-1.4301-0.7236-1.8086c-0.3613-0.3779-1.0029-0.5752-1.792-0.7065
		c-0.1474-0.7891-0.3613-1.4468-0.7226-1.8086c-0.3623-0.3779-1.003-0.5918-1.792-0.7231c-0.1485-0.7891-0.3623-1.4136-0.7238-1.792
		c-0.3613-0.378-1.0029-0.5752-1.792-0.7066c-0.1473-0.789-0.3613-1.4468-0.7226-1.8086c-0.3623-0.3613-1.0029-0.5752-1.792-0.7065
		c-0.1484-0.8057-0.3623-1.4468-0.7236-1.8247c-0.3614-0.3618-1.0196-0.5591-1.8086-0.6904
		c-0.1475-0.7891-0.3615-1.4468-0.7227-1.8082c-0.3623-0.3784-1.0029-0.5918-1.792-0.7236
		c-0.1484-0.789-0.3613-1.4302-0.7236-1.8081c-0.3613-0.3618-1.002-0.5591-1.7754-0.6904
		c-0.1475-0.7891-0.3613-1.4468-0.7227-1.8081c-0.3622-0.3784-1.0195-0.5918-1.8086-0.7237
		c-0.1474-0.789-0.3613-1.4462-0.7236-1.8081c-0.3613-0.3618-1.0019-0.5752-1.791-0.707c-0.1484-0.7891-0.3623-1.4302-0.7236-1.8081
		c-0.3614-0.3779-1.003-0.5752-1.792-0.707c-0.1475-0.7891-0.3614-1.4463-0.7238-1.8081c-0.3613-0.3619-1.0019-0.5752-1.8076-0.7071
		c-0.1318-0.789-0.3457-1.4301-0.707-1.8081c-10.1592-10.1098-187.3027,72.0342-297.7373,182.4693
		c-19.9893,19.9892-38.1865,40.6855-53.4092,61.8095l-0.082-0.0659c-0.8389,1.1509-1.5127,2.3179-2.3018,3.4849
		c-3.7148,5.2275-7.2168,10.5215-10.5371,15.8144c-1.3477,2.2354-2.7451,4.5039-4.0439,6.7403
		c-2.8926,4.9316-5.4903,9.8955-8.0054,14.8593c-1.1836,2.4004-2.4165,4.7842-3.5015,7.1836
		c-2.3838,5.1133-4.3891,10.2754-6.2138,15.4043c-0.8057,2.2022-1.7261,4.3399-2.4165,6.542
		c-2.3179,7.2656-4.2413,14.5322-5.5396,21.8633c-1.562-0.1807-3.3374-0.2296-5.0142-0.3613
		c-1.4956-0.0987-2.9262-0.2627-4.4878-0.2959c-0.4433-0.0332-0.9365,0-1.3808,0c-3.041-0.0664-6.1807-0.0166-9.4849,0.1972
		c-0.0659,0.0157-0.1152,0-0.1811,0.0157l0.0166,0.0175c-20.729,1.4463-46.0611,9.4024-70.7188,34.0938
		c-33.6338,33.5996-33.6338,118.3252-33.6338,168.0352c0.7559-1.2491,1.7261-2.2021,2.5312-3.3858c0,1.9893,0,4.0108,0,5.918
		c0.7402-1.249,1.71-2.2031,2.499-3.3535c0,1.9726,0,3.9775,0,5.8525c0.7559-1.25,1.7095-2.1875,2.5146-3.3535
		c0,1.9726,0,3.9941,0,5.8848c0.7568-1.25,1.71-2.2032,2.5156-3.3868c0,1.9893,0,4.0108,0,5.8848
		c0.7558-1.249,1.7095-2.1855,2.5146-3.3535c0,1.9726,0,4.0117,0,5.8857c0.7569-1.25,1.71-2.2031,2.5156-3.3701
		c0,1.9893,0,3.9942,0,5.8848c0.7559-1.249,1.7095-2.1865,2.5146-3.3701c0,1.9726,0,4.0107,0,5.8857
		c0.7563-1.25,1.71-2.2031,2.5156-3.3701c0,1.9892,0,3.9941,0,5.8847c0.7559-1.2656,1.7256-2.2197,2.5313-3.4033
		c0,2.0059,0,4.045,0,5.918c0.7563-1.249,1.7099-2.1855,2.5151-3.3535c0,1.9726,0,3.9951,0,5.8857
		c0.7564-1.249,1.7095-2.2031,2.5152-3.3867c0,1.9893,0,4.0107,0,5.8857c0.7558-1.25,1.7099-2.1865,2.5151-3.3535
		c0,1.9727,0,3.9942,0,5.8848c0.7563-1.25,1.7095-2.2031,2.5151-3.3867c0,1.9892,0,4.0117,0,5.8847
		c0.7559-1.249,1.71-2.1855,2.5152-3.3535c0,1.9727,0,4.0117,0,5.8858c0.7563-1.2491,1.7094-2.2032,2.5151-3.3701
		c0,1.9892,0,3.9941,0,5.8847c0.7559-1.249,1.7095-2.1855,2.5151-3.3691c0,1.9726,0,4.0107,0,5.8847
		c0.7564-1.25,1.7261-2.2031,2.5318-3.3867c0,1.9727,0,4.0117,0,5.9014c0.7558-1.249,1.7094-2.1865,2.5146-3.3701
		c0,1.9726,0,4.0117,0,5.8857c0.7564-1.249,1.71-2.2031,2.5156-3.3701c0,1.9893,0,3.9941,0,5.8848
		c0.7559-1.2491,1.709-2.1866,2.5147-3.3692c0,1.9717,0,4.0108,0,5.8848c0.7563-1.25,1.71-2.2031,2.5156-3.3701
		c0,1.9892,0,3.9941,0,5.8847c0.7559-1.249,1.709-2.1865,2.5147-3.3701c0,1.9727,0,4.0117,0,5.8858
		c0.7563-1.25,1.7099-2.1866,2.5151-3.3536c0,1.9727,0,3.9942,0,5.8848c0.7564-1.249,1.7095-2.2031,2.5151-3.3867
		c0,1.9893,0,4.0107,0,5.8857c0.7564-1.25,1.71-2.1865,2.5152-3.3535c0,1.9727,0,4.0108,0,5.8848
		c0.7563-1.25,1.7261-2.2031,2.5317-3.3867c0,1.9726,0,4.0117,0,5.9023c0.7559-1.25,1.7095-2.1875,2.5147-3.3711
		c0,1.9727,0,4.0117,0,5.8858c0.7568-1.2491,1.7099-2.2032,2.5156-3.3702c0,1.9893,0,3.9942,0,5.8848
		c0.7559-1.249,1.7095-2.1855,2.5146-3.3691c0,1.9726,0,4.0107,0,5.8847c0.7569-1.25,1.71-2.2031,2.5157-3.3701
		c0,1.9893,0,3.9951,0,5.9014c0.7558-1.249,1.7094-2.2031,2.5146-3.3867c0,1.9892,0,4.0117,0,5.8857
		c0.7564-1.249,1.71-2.1865,2.5156-3.3535c0,1.9726,0,3.9941,0,5.8848c0.7559-1.2491,1.7095-2.2022,2.5147-3.3858
		c0,1.9883,0,4.0108,0,5.8848c0.7563-1.25,1.7099-2.1865,2.5156-3.3535c0,1.9726,0,3.9941,0,5.8847
		c0.7559-1.249,1.709-2.2031,2.5147-3.3867c0,1.9893,0,4.0117,0,5.8858c0.7563-1.25,1.7099-2.1866,2.5156-3.3536
		c0,1.9727,0,3.9942,0,5.8848c0.7558-1.249,1.709-2.2031,2.5146-3.3867c0,1.9892,0,4.0117,0,5.8857
		c0.7564-1.25,1.71-2.1865,2.5152-3.3535c0,1.9727,0,3.9942,0,5.8848c0.7563-1.249,1.7094-2.2031,2.5151-3.3867
		c0,1.9892,0,4.0117,0,5.8847c0.7564-1.249,1.71-2.1855,2.5151-3.3525c0,1.9717,0,3.9941,0,5.8848
		c0.7564-1.2491,1.7095-2.2032,2.5152-3.3868c0,2.0059,0,4.0108,0,5.918c0.7563-1.2656,1.7261-2.2188,2.5312-3.4023
		c0,1.9892,0,4.0273,0,5.9013c0.7569-1.25,1.71-2.1865,2.5157-3.3535c0,1.9727,0,3.9942,0,5.8848
		c0.7558-1.249,1.7094-2.2031,2.5146-3.3867c0,1.9892,0,4.0117,0,5.8857c0.7568-1.249,1.71-2.1865,2.5156-3.3535
		c0,1.9726,0,3.9941,0,5.8847c0.7559-1.249,1.7095-2.2021,2.5147-3.3857c0,1.9883,0,4.0107,0,5.8848
		c0.7563-1.25,1.7099-2.1866,2.5156-3.3535c0,1.9726,0,3.9941,0,5.8847c0.7559-1.249,1.7095-2.2031,2.5147-3.3867
		c0,1.9893,0,4.0117,0,5.8857c0.7563-1.249,1.7099-2.1865,2.5156-3.3535c0,1.9727,0,4.0108,0,5.8848
		c0.7558-1.249,1.7094-2.2022,2.5146-3.3701c0,1.9892,0,3.9951,0,5.8847c0.7564-1.2656,1.7266-2.2187,2.5318-3.4023
		c0,2.0059,0,4.0273,0,5.918c0.7563-1.2491,1.7094-2.2032,2.5151-3.3701c0,1.9892,0,3.9951,0,5.8857
		c0.7559-1.25,1.71-2.1865,2.5151-3.3701c0,1.9726,0,4.0107,0,5.8847c0.7564-1.249,1.7095-2.2031,2.5152-3.3701
		c0,1.9893,0,3.9951,0,5.8848c0.7558-1.249,1.7094-2.1856,2.5151-3.3691c0,1.9726,0,4.0107,0,5.8847
		c0.7564-1.25,1.7095-2.2031,2.5151-3.3701c0,1.9893,0,3.9951,0,5.9014c0.7559-1.2491,1.7095-2.2032,2.5152-3.3868
		c0,1.9903,0,4.0118,0,5.8858c0.7563-1.249,1.7095-2.1865,2.5151-3.3535c0,1.9726,0,4.0107,0,5.8847
		c0.7559-1.249,1.71-2.2021,2.5147-3.3701c0,1.9893,0,3.9951,0,5.8858c0.7568-1.25,1.7099-2.1866,2.5156-3.3702
		c0,1.9727,0,4.0108,0,5.8848c0.7559-1.249,1.7256-2.2031,2.5312-3.3867c0,1.9727,0,4.0117,0,5.9023
		c0.7559-1.25,1.71-2.1865,2.5157-3.3701c0,1.9727,0,4.0108,0,5.8848c0.7558-1.249,1.709-2.2022,2.5146-3.3701
		c0,1.9892,0,3.9951,0,5.8847c0.7559-1.249,1.71-2.1855,2.5156-3.3691c0,1.9727,0,4.0107,0,5.8848
		c0.7559-1.2491,1.709-2.1866,2.5147-3.3536c0,1.9727,0,3.9942,0,5.8848c0.7558-1.249,1.71-2.2021,2.5156-3.3857
		c0,1.9892,0,4.0107,0,5.8847c0.7559-1.249,1.709-2.1865,2.5147-3.3535c0,1.9727,0,3.9951,0,5.8848
		c0.7558-1.249,1.7099-2.2022,2.5146-3.3858c0,1.9883,0,4.0108,0,5.8848c0.7568-1.249,1.71-2.1865,2.5156-3.3535
		c0,1.9726,0,3.9941,0,5.8848c0.7559-1.2491,1.71-2.2022,2.5147-3.3858c0,1.9893,0,4.0108,0,5.8848
		c0.7568-1.249,1.7099-2.1865,2.5156-3.3535c0,1.9726,0,3.9951,0,5.8847c0.7559-1.249,1.71-2.2021,2.5147-3.3857
		c0,1.9883,0,4.0107,0,5.8848c0.7568-1.25,1.7099-2.1866,2.5156-3.3536c0,1.9727,0,4.0108,0,5.8848
		c0.7558-1.249,1.7099-2.1855,2.5146-3.3535c0,1.9726,0,3.9951,0,5.8848c0.7569-1.2657,1.7266-2.2188,2.5323-3.4024
		c0,1.9893,0,4.0274,0,5.9014c0.7392-1.2324,1.7089-2.1699,2.498-3.3535c0,1.9726,0,4.0107,0,5.8857
		c0.7568-1.2666,1.7266-2.2197,2.5322-3.4033c0,1.9892,0,4.0273,0,5.9014c0.7559-1.2491,1.709-2.1866,2.5147-3.3536
		c0,1.9727,0,3.9952,0,5.8848c0.7558-1.249,1.7099-2.2021,2.5156-3.3857c0,1.9892,0,4.0107,0,5.8847
		c0.7559-1.249,1.709-2.1865,2.5147-3.3535c0,1.9727,0,3.9951,0,5.8858c0.7558-1.25,1.7099-2.2032,2.5156-3.3868
		c0,1.9883,0,4.0108,0,5.8848c0.7558-1.249,1.7256-2.2031,2.5312-3.3867c0,1.9892,0,4.0117,0,5.9179
		c0.7393-1.249,1.71-2.2021,2.4991-3.3535c0,1.9727,0,3.9785,0,5.8526c0.7558-1.2491,1.7255-2.2032,2.5312-3.3858
		c0,1.9883,0,4.0108,0,5.917c0.7393-1.249,1.709-2.2021,2.498-3.3535c0,1.9727,0,3.9785,0,5.8691
		c0.7569-1.2656,1.7266-2.2197,2.5323-3.4033c0,2.0059,0,4.0274,0,5.918c0.7558-1.249,1.709-2.2022,2.5146-3.3691
		c0,1.9882,0,3.9941,0,5.8847c0.7569-1.25,1.71-2.1865,2.5156-3.3701c0,1.9727,0,4.0107,0,5.8848
		c0.7559-1.2491,1.709-2.2022,2.5147-3.3701c0,1.9892,0,3.9951,0,5.9023c0.7568-1.25,1.71-2.2031,2.5156-3.3867
		c0,1.9892,0,4.0107,0,5.8847c0.7559-1.249,1.709-2.1855,2.5147-3.3535c0,1.9727,0,3.9951,0,5.8848
		c0.7568-1.249,1.7099-2.2022,2.5156-3.3858c0,1.9893,0,4.0108,0,5.8848c0.7559-1.249,1.709-2.1865,2.5146-3.3535
		c0,1.9727,0,3.9951,0,5.8857c0.7559-1.25,1.71-2.2031,2.5157-3.3867c0,1.4961,0,2.959,0,4.4385c0.3613,0,0.7226,0,1.0849,0.0166
		c0.4932-0.6416,0.9864-1.2656,1.4463-1.957c0,0.6748,0,1.3154,0,1.9892c6.8711,0.2803,13.7422,0.5264,20.6797,0.5264
		c278.8984,0,504.9961-226.0977,504.9961-504.9961c0-7.4795-0.2471-14.9102-0.5586-22.3066
		c-0.2637-0.0664-0.3945-0.2305-0.6904-0.2637C1008.5947,481.6362,1008.3809,480.979,1008.0195,480.6172z"/>
</g>
<g id="paint-brush-paint-brush">
	<g>
		<path fill="#434A54" d="M466.168,418.9722c-19.9893,19.9892-38.1865,40.6855-53.4092,61.8095l106.6377,106.6866
			c21.2715-15.2549,42.0996-33.3868,61.9736-53.2608c113.8711-113.8218,192.5956-287.562,182.5352-297.7046
			C753.7461,226.3931,576.6026,308.5371,466.168,418.9722z"/>
		<path fill="#FFCE54" d="M410.375,484.2007c-3.7148,5.2275-7.2168,10.5215-10.5371,15.8144
			c-1.3477,2.2354-2.7451,4.5039-4.0439,6.7403c-2.8926,4.9316-5.4903,9.8955-8.0054,14.8593
			c-1.1836,2.4004-2.4165,4.7842-3.5015,7.1836c-2.3838,5.1133-4.3891,10.2754-6.2138,15.4043
			c-0.8057,2.2022-1.7261,4.3399-2.4165,6.542c-2.3179,7.2822-4.2574,14.5645-5.5562,21.9131l57.6172,57.6006
			c7.1348-1.2822,14.2851-3.2051,21.4687-5.5234c2.3184-0.7725,4.6358-1.7588,6.9375-2.6299c4.9649-1.8252,9.9121-3.7315,14.8604-6
			c2.5478-1.1836,5.1123-2.499,7.6445-3.7813c4.7998-2.4004,9.5674-4.9472,14.334-7.7422c2.4658-1.3808,4.8984-2.8437,7.332-4.3564
			c5.0469-3.1563,10.0928-6.4932,15.1397-9.9951c1.332-0.9532,2.6797-1.7256,4.0439-2.6953l-0.082-0.0664L412.7588,480.7817
			l-0.082-0.0659C411.8379,481.8667,411.1641,483.0337,410.375,484.2007z"/>
	</g>
	<path fill="#5D9CEC" d="M370.1006,572.6577l57.6172,57.6006c-4.7832,129.6514-139.252,72.0176-182.4854,144.0518
		c0-49.71,0-134.4355,33.6338-168.0352C312.4668,572.6079,347.4317,569.9116,370.1006,572.6577"/>
	<path fill="#4A89DC" d="M374.8838,577.4243l43.2344,43.25c-3.5342,95.4434-107.4434,47.7715-139.252,100.8018
		c0-36.5918-0.7402-95.2784,24.0332-120.0508C327.6231,576.6685,358.2153,575.4351,374.8838,577.4243"/>
	<g>
		<path opacity="0.2" d="M349.5684,572.1636l76.374,76.3906c0.8877-5.6875,1.5459-11.7041,1.792-18.3125l-9.6006-9.6162
			l-43.2334-43.2178l-4.7671-4.7998C364.084,571.9018,357.1143,571.6382,349.5684,572.1636z"/>
	</g>
</g>
</svg>
