<?xml version="1.0" encoding="utf-8"?>
<!-- Generator: Adobe Illustrator 17.1.0, SVG Export Plug-In . SVG Version: 6.00 Build 0)  -->
<!DOCTYPE svg PUBLIC "-//W3C//DTD SVG 1.1//EN" "http://www.w3.org/Graphics/SVG/1.1/DTD/svg11.dtd">
<svg version="1.1" id="paint-spray" xmlns="http://www.w3.org/2000/svg" xmlns:xlink="http://www.w3.org/1999/xlink" x="0px"
	 y="0px" viewBox="0 0 1009.9922 1009.9917" enable-background="new 0 0 1009.9922 1009.9917" xml:space="preserve">
<path id="paint-spray-label" fill="#656D78" d="M504.9961,0C226.0977,0,0,226.0972,0,504.9956s226.0977,504.9961,504.9961,504.9961
	s504.9961-226.0977,504.9961-504.9961S783.8945,0,504.9961,0z"/>
<g id="paint-spray-spray">
	<path opacity="0.2" fill="#FFFFFF" d="M168.4966,128.5503C65.1138,221.0342,0,355.3872,0,504.9956
		c0,47.4424,6.6909,93.2891,18.9209,136.8193L440.376,331.272L168.4966,128.5503z"/>
</g>
<g id="paint-spray-shadow" opacity="0.15">
	<path fill="#434A54" d="M971.8711,690.9497h-2.5322v-2.5146h-2.5146v-2.4991h-2.499v-2.5146h-2.5312v-2.5322h-2.5157v-2.5147
		h-2.5146v-2.5156h-2.5147v-2.5147h-2.5156v-2.5146h-2.5312v-2.5322h-2.4991v-2.4991h-2.5146v-2.5146h-2.5156v-2.5147h-2.5313
		v-2.5322h-2.5156v-2.499h-2.5147v-2.5313h-2.5156v-2.5146h-2.5146v-2.5156h-2.5157v-2.5147h-2.5146v-2.5156h-2.5313v-2.5147h-2.499
		v-2.5146h-2.5312v-2.5322h-2.5157v-2.4991h-2.5146v-2.5312h-2.5156v-2.4981h-2.5146v-2.5322h-2.5156v-2.5146h-2.5146v-2.5157
		h-2.5157v-2.5146h-2.5146v-2.5156h-2.5156v-2.5147h-2.5147v-2.5156h-2.5156v-2.5313h-2.5147v-2.498h-2.5156v-2.5322h-2.5146v-2.499
		h-2.5313v-2.5312h-2.499v-2.5156h-2.5313v-2.5147h-2.5156v-2.5146h-2.5146v-2.5156h-2.5157v-2.5157h-2.5146v-2.5146h-2.5156
		v-2.5313h-2.5147v-2.499h-2.5312v-2.5156h-2.4991v-2.5313h-2.5312v-2.5146h-2.5156v-2.5147h-2.5147v-2.5156h-2.5156v-2.5156
		h-2.5147v-2.5147h-2.5156v-2.5146h-2.5146v-2.5156h-2.5323v-2.5157h-2.498v-2.5146h-2.5322v-2.5147h-2.4981v-2.5312h-2.5322
		v-2.5156h-2.5147v-2.4991h-2.5156v-2.5312h-2.5146v-2.5147h-2.5146v-2.5156h-2.5156v-2.5156h-2.5146v-2.5147h-2.5323v-2.5146
		h-2.498v-2.5156h-2.5322v-2.5313h-2.5147v-2.499h-2.5156v-2.5322h-2.5147v-2.4981h-2.5156v-2.5312h-2.5146v-2.5156h-2.5157v-2.5147
		h-2.5146v-2.5146h-2.5156v-2.5157h-2.5147v-2.5156h-2.5146v-2.5146h-2.5157v-2.5323h-2.5146v-2.498h-2.5322v-2.5313h-2.4981
		v-2.5156h-2.5322v-2.5156h-2.5147v-2.5147h-2.5156v-2.5151h-2.5146v-2.5151h-2.5157V472.02h-2.5146v-2.5151h-2.5156v-2.5152
		h-2.5147v-2.5317h-2.5156v-2.4985h-2.5313v-2.5318h-2.499v-2.5151h-2.5312v-2.5151h-2.5146v-2.5152h-2.5156v-2.5151h-2.5147
		v-2.5152h-2.5156v-2.5151h-2.5146v-2.5151h-2.5156v-2.5152h-2.5313v-2.5312h-2.499v-2.499h-2.5312v-2.5313h-2.5146V429.23h-2.5156
		v-2.5152h-2.5147v-2.4985h-2.5156v-2.5317h-2.5146v-2.5152h-2.5156v-2.5151h-2.5146v-2.5317h-2.5157v-2.4986h-2.5146v-2.5151
		h-2.5322v-2.5152h-2.5147v-2.5312h-2.5156v-2.499h-2.5147v-2.5313h-2.5156v-2.5151h-2.5146v-2.5152h-2.5147v-2.5151h-2.5156
		v-2.5151h-2.5147v-2.5152h-2.5156v-2.5151h-2.5146v-2.5151h-2.5157v-2.5152h-2.5146v-2.5317h-2.5322v-2.4985h-2.5147v-2.5313
		h-2.5156v-2.5151h-2.5147v-2.5152h-2.5156v-2.5151h-2.5146v-2.5151h-2.5157v-2.5152h-2.5146v-2.5151h-2.5146v-2.5152h-2.5157
		v-2.5151h-2.5312v-2.5317h-2.499v-2.4986h-2.5313v-2.5317h-2.5156v-2.5151h-2.5146v-2.5152h-2.5156v-2.5151h-2.5146v-2.5147
		h-2.5157v-2.5151h-2.5146v-2.5151h-2.5312v-2.5318h-2.499v-2.4985h-2.5312v-2.5317h-2.5157v-2.4986h-2.5146v-2.5317h-2.5156
		v-2.5152h-2.5147v-2.5151h-2.5156v-2.5151h-2.5147v-2.5152h-2.5156v-2.5151h-2.5146v-2.5151h-2.5157v-2.5313h-2.5146v-2.499
		h-2.5156v-2.5313h-2.5147v-2.5151h-2.5312v-2.5151h-2.5157v-2.4986h-2.499v-2.5317h-2.5312v-2.5151h-2.5147v-2.5152H450.8477
		v117.5528h2.5146v2.5151h2.5147v2.5317h2.5322v0.855h-54.8399c-14.2353,0-25.9072,11.6221-25.9072,25.8579v31.5786h2.5156v2.5152
		h2.5147v0.2959h-5.0303h-24.8222c-19.9893,0-36.2637,16.3398-36.2637,36.247v475.3243c0.8223,0.3447,1.6767,0.6084,2.5151,0.9365
		v0.0664c57.5518,22.8008,120.232,35.4746,185.9048,35.4746c212.2393,0,393.7881-131,468.502-316.5098h-1.627V690.9497z"/>
</g>
<g id="paint-spray-paint-spray">
	<path fill="#CCD1D9" d="M632.3301,427.5532c0-14.2358-11.6719-25.8579-25.9404-25.8579H403.5693
		c-14.2353,0-25.9072,11.6221-25.9072,25.8579v31.5786h254.668V427.5532z"/>
	<g>
		<path fill="#434A54" d="M657.1856,461.9429h-24.8555h-254.668h-24.8222c-19.9893,0-36.2637,16.3398-36.2637,36.247v475.3243
			c58.2422,23.458,121.7939,36.4775,188.4199,36.4775c66.6426,0,130.2109-13.0361,188.4531-36.4941V498.1899
			C693.4492,478.2827,677.1094,461.9429,657.1856,461.9429z"/>
	</g>
	<rect x="450.8477" y="278.2407" fill="#EDEEF1" width="108.2978" height="117.5528"/>
	<g>
		<path fill="#A0D468" d="M525.0186,714.0298l45.206,0.082c24.8887,0,45.1406-20.2851,45.1406-45.2226
			c0-24.9541-20.2519-45.2227-45.1406-45.2227c-24.9863,0-45.2392,20.2686-45.2392,45.2227l0.0332,1.6435V714.0298z"/>
		<path fill="#5D9CEC" d="M439.7676,693.0542l0.7891-4.0107h44.4169l0.0665-45.1739c0-24.9541-20.2862-45.206-45.2725-45.206
			c-24.8877,0-45.1738,20.2519-45.1738,45.206c0,24.9209,20.2861,45.2227,45.1738,45.2227V693.0542z"/>
		<path fill="#FC6E51" d="M456.8965,731.3726c-24.8877,0-45.2061,20.2695-45.2061,45.1406
			c0,24.9707,20.3184,45.2558,45.2061,45.2558c24.9873,0,45.2393-20.2851,45.2393-45.2558l-0.0332-45.1074L456.8965,731.3726z"/>
		<path fill="#FFCE54" d="M567.3643,734.1343l-1.6436,0.0332h-43.4971l-0.0654,45.1894c0,24.8887,20.3184,45.2227,45.2061,45.2227
			c24.9541,0,45.2392-20.334,45.2392-45.2227C612.6035,754.4194,592.3184,734.1343,567.3643,734.1343z"/>
	</g>
	<rect x="398.9668" y="525.6919" opacity="0.1" fill="#FFFFFF" width="47.1133" height="459.543"/>
</g>
</svg>
