<?xml version="1.0" encoding="utf-8"?>
<!-- Generator: Adobe Illustrator 17.1.0, SVG Export Plug-In . SVG Version: 6.00 Build 0)  -->
<!DOCTYPE svg PUBLIC "-//W3C//DTD SVG 1.1//EN" "http://www.w3.org/Graphics/SVG/1.1/DTD/svg11.dtd">
<svg version="1.1" id="pdf-file" xmlns="http://www.w3.org/2000/svg" xmlns:xlink="http://www.w3.org/1999/xlink" x="0px" y="0px"
	 viewBox="0 0 1009.9922 1009.9917" enable-background="new 0 0 1009.9922 1009.9917" xml:space="preserve">
<path id="pdf-file-label" fill="#FFFFFF" d="M504.9961,0C226.0977,0,0,226.0972,0,504.9956s226.0977,504.9961,504.9961,504.9961
	s504.9961-226.0977,504.9961-504.9961S783.8945,0,504.9961,0z"/>
<g id="pdf-file-shadow">
	<path opacity="0.1" fill="#32383F" d="M1006.211,521.2046c-0.7559-0.8711-1.5782-1.6778-2.4327-2.4492
		c-0.8222-0.9375-1.7099-1.793-2.6298-2.6309c-0.7569-0.838-1.5459-1.6436-2.4004-2.4005c-0.8223-0.9365-1.71-1.8076-2.6299-2.6465
		c-0.7891-0.8545-1.5781-1.6435-2.4337-2.416c-0.8213-0.9043-1.6436-1.7422-2.5645-2.5644c-0.789-0.8711-1.6103-1.709-2.498-2.4981
		c-0.7891-0.8887-1.6445-1.7265-2.5322-2.5156c-0.7891-0.8877-1.6104-1.7266-2.4981-2.5156
		c-0.7891-0.8868-1.6445-1.7256-2.5322-2.5147c-0.7891-0.8877-1.6436-1.7256-2.5313-2.5322
		c-0.7558-0.8711-1.5781-1.6758-2.4326-2.4492c-0.8222-0.92-1.6767-1.791-2.5976-2.6133c-0.7891-0.8555-1.5782-1.6602-2.4327-2.4336
		c-0.8221-0.9199-1.7099-1.791-2.6298-2.6133c-0.7891-0.8545-1.5782-1.6601-2.4337-2.4326
		c-0.8213-0.9043-1.6436-1.7427-2.5645-2.5483c-0.789-0.8877-1.6103-1.7261-2.498-2.5152
		c-0.7891-0.8877-1.6446-1.7261-2.5322-2.5146c-0.789-0.8877-1.6104-1.7261-2.498-2.5152c-0.7891-0.8877-1.6445-1.726-2.5322-2.5151
		c-0.7891-0.8877-1.6104-1.7261-2.5312-2.5317c-0.7558-0.8711-1.5781-1.6934-2.4658-2.4659
		c-0.7891-0.9204-1.6768-1.7753-2.5645-2.5971c-0.789-0.855-1.5781-1.6441-2.4326-2.4165c-0.8222-0.937-1.7099-1.8086-2.6631-2.6631
		c-0.7568-0.8384-1.5459-1.6275-2.4004-2.3838c-0.789-0.9038-1.6435-1.7588-2.5644-2.5645
		c-0.7891-0.8877-1.6104-1.726-2.4981-2.5151c-0.789-0.8877-1.6445-1.7261-2.5322-2.5151c-0.789-0.8877-1.6104-1.7261-2.498-2.5152
		c-0.7891-0.8877-1.6446-1.726-2.5323-2.5151c-0.789-0.8877-1.6103-1.7261-2.5312-2.5313
		c-0.7559-0.8715-1.5781-1.6933-2.4658-2.4658c-0.7891-0.9043-1.6436-1.7588-2.5645-2.581
		c-0.7559-0.8545-1.5781-1.6768-2.4326-2.4492c-0.8555-0.9371-1.71-1.8082-2.6631-2.6465
		c-0.7568-0.8223-1.5459-1.6114-2.3672-2.3672c-0.8222-0.9209-1.6766-1.7754-2.5976-2.6138
		c-0.7891-0.8716-1.6113-1.6934-2.499-2.4824c-0.7891-0.8877-1.6436-1.7261-2.5313-2.5151
		c-0.7891-0.8877-1.6113-1.7261-2.499-2.5152c-0.7891-0.8877-1.6436-1.7261-2.5313-2.5151
		c-0.789-0.8877-1.6103-1.7261-2.5312-2.5313c-0.7891-0.8716-1.6113-1.6933-2.4658-2.4824
		c-0.7891-0.8877-1.6436-1.7261-2.5313-2.5317c-0.7891-0.8711-1.6113-1.7095-2.499-2.4986
		c-0.8223-0.9204-1.6768-1.7754-2.5977-2.581c-0.7558-0.8711-1.5781-1.6768-2.4326-2.4492
		c-0.8223-0.9043-1.6435-1.7588-2.5644-2.5645c-0.7891-0.8877-1.6115-1.7095-2.4991-2.4985
		c-0.789-0.8877-1.6435-1.7261-2.5312-2.5152c-0.7891-0.8877-1.6113-1.726-2.499-2.5151c-0.7891-0.8877-1.6436-1.7261-2.5313-2.5151
		c-0.789-0.8877-1.6113-1.7261-2.499-2.5152c-0.7891-0.8877-1.6436-1.7261-2.5313-2.5151c-0.789-0.8877-1.6435-1.7261-2.5312-2.5318
		c-0.7568-0.8544-1.5781-1.6767-2.4336-2.4492c-0.8213-0.9204-1.6768-1.7915-2.6299-2.6299
		c-0.7558-0.8549-1.5781-1.6606-2.4326-2.4331c-0.8223-0.9043-1.6436-1.7426-2.5645-2.5644
		c-0.789-0.8877-1.6113-1.7095-2.499-2.4985c-0.789-0.8877-1.6435-1.7261-2.5312-2.5152c-0.7891-0.8877-1.6114-1.7261-2.4991-2.5151
		c-0.789-0.8877-1.6435-1.7261-2.5312-2.5152c-0.7891-0.8877-1.6113-1.726-2.499-2.5151c-0.7891-0.8877-1.6436-1.7261-2.5312-2.5151
		c-0.789-0.8877-1.6113-1.7261-2.5312-2.5318c-0.7569-0.8711-1.5782-1.6767-2.4336-2.4492c-0.8213-0.937-1.709-1.8081-2.6299-2.6304
		c-0.7559-0.8545-1.5781-1.6601-2.4326-2.4326c-0.8223-0.9043-1.6446-1.7427-2.5645-2.5644c-0.789-0.8716-1.6113-1.71-2.499-2.4991
		c-0.7891-0.8876-1.6436-1.726-2.5312-2.5151c-0.7891-0.8877-1.6114-1.7256-2.4991-2.5146
		c-0.7889-0.8877-1.6435-1.7261-2.5312-2.5152c-0.7891-0.8877-1.6113-1.726-2.499-2.5151
		c-0.7891-0.8877-1.6436-1.7261-2.5313-2.5151c-0.7891-0.8877-1.6113-1.7261-2.499-2.5318
		c-0.7891-0.8711-1.6104-1.6767-2.4658-2.4658c-0.8214-0.9204-1.709-1.7754-2.6299-2.5972
		c-0.7559-0.8716-1.5781-1.6767-2.4326-2.4497c-0.8223-0.9038-1.6447-1.7422-2.5645-2.5639c-0.7891-0.8716-1.6113-1.71-2.499-2.4991
		c-0.7891-0.8877-1.6436-1.726-2.5313-2.5151c-0.789-0.8877-1.6113-1.7261-2.499-2.5151c-0.789-0.8877-1.6435-1.7261-2.5312-2.5152
		c-0.7891-0.8877-1.6115-1.7261-2.4991-2.5151c-0.789-0.8877-1.6436-1.7261-2.5312-2.5152
		c-0.7891-0.8876-1.6113-1.726-2.5322-2.5312c-0.7559-0.855-1.5782-1.6768-2.4327-2.4492c-0.8222-0.9209-1.6767-1.792-2.6298-2.6304
		c-0.7559-0.855-1.5782-1.6768-2.4659-2.4492c-0.789-0.8877-1.6113-1.7261-2.499-2.5318c-0.8213-0.8876-1.6435-1.726-2.5312-2.5151
		c-0.7891-0.8877-1.6436-1.7261-2.5313-2.5151c-0.789-0.8877-1.6113-1.7261-2.499-2.5152c-0.7891-0.8877-1.6436-1.726-2.5313-2.5151
		c-0.789-0.8877-1.6113-1.7261-2.499-2.5151c-0.789-0.8877-1.6435-1.7261-2.5312-2.5152c-0.7891-0.8877-1.6114-1.726-2.5323-2.5312
		c-0.7558-0.8716-1.5781-1.6934-2.4658-2.4658c-0.789-0.9043-1.6436-1.7593-2.5312-2.5645c-0.8223-0.8877-1.6436-1.71-2.5312-2.5151
		c-0.789-0.8877-1.6113-1.71-2.499-2.5152c-0.8223-0.8877-1.6436-1.7099-2.499-2.499c-0.8213-0.9038-1.6768-1.7422-2.5645-2.5478
		c-0.7881-0.8877-1.6104-1.7095-2.498-2.4986c-0.7891-0.8877-1.6436-1.7261-2.5312-2.5151
		c-6.1484-6.855-14.9922-11.2442-24.9218-11.2442H437.6631L269.3316,403.9966V538.646v201.998
		c0,9.9454,4.3891,18.7891,11.2602,24.9541c0.7891,0.8877,1.6113,1.71,2.499,2.4991c0.7891,0.8867,1.6436,1.7255,2.5313,2.5312
		c0.789,0.8877,1.6113,1.709,2.499,2.4981c0.7891,0.8886,1.6108,1.7099,2.4981,2.499c0.8222,0.9209,1.6606,1.7588,2.5644,2.581
		c0.7891,0.8545,1.5947,1.6768,2.4658,2.4493c0.8057,0.9043,1.6446,1.7587,2.5484,2.5644c0.789,0.8712,1.6274,1.71,2.4985,2.499
		c0.8057,0.8877,1.644,1.7422,2.5479,2.5313c0.789,0.8877,1.6113,1.7099,2.499,2.499c0.789,0.8867,1.6274,1.7256,2.5151,2.5147
		c0.8052,0.9043,1.6275,1.7255,2.5152,2.5322c0.8056,0.8711,1.6269,1.709,2.4985,2.498c0.8052,0.8877,1.644,1.7422,2.5483,2.5479
		c0.7891,0.8711,1.6104,1.6933,2.482,2.4824c0.8051,0.8877,1.644,1.7256,2.5151,2.5146c0.8057,0.9042,1.6602,1.7597,2.5811,2.5645
		c0.7724,0.8555,1.5781,1.6777,2.4326,2.4492c0.8222,0.9043,1.6767,1.7598,2.581,2.5821c0.7725,0.871,1.5947,1.6757,2.4824,2.4648
		c0.7891,0.9043,1.6436,1.7432,2.5479,2.5645c0.7891,0.871,1.6269,1.6933,2.4985,2.4824c0.8052,0.8877,1.6275,1.7265,2.5152,2.5312
		c0.8056,0.8887,1.6435,1.71,2.5312,2.5156c0.7891,0.8877,1.6113,1.71,2.499,2.4991c0.7891,0.8877,1.6109,1.709,2.4986,2.5146
		c0.8056,0.8877,1.644,1.7266,2.5317,2.5313c0.8057,0.8886,1.6436,1.7265,2.5313,2.5156c0.789,0.8877,1.6279,1.7266,2.5156,2.5156
		c0.7891,0.8711,1.6103,1.709,2.4819,2.4981c0.8218,0.9043,1.6607,1.7422,2.5645,2.5478c0.789,0.8877,1.6108,1.71,2.4985,2.499
		c0.7891,0.8877,1.6275,1.7256,2.5151,2.5147c0.8057,0.8877,1.6275,1.7266,2.5152,2.5322c0.789,0.8711,1.644,1.709,2.5317,2.5147
		c0.7891,0.8877,1.6109,1.7099,2.4986,2.499c0.8056,0.8877,1.6435,1.7256,2.5312,2.5312c0.7891,0.8711,1.6113,1.71,2.4824,2.4991
		c0.8057,0.8877,1.6441,1.7255,2.5479,2.5312c0.789,0.8877,1.6113,1.71,2.4824,2.499c0.8057,0.9043,1.6602,1.7422,2.5645,2.5645
		c0.789,0.8711,1.6113,1.6933,2.499,2.498c0.8052,0.8711,1.6269,1.71,2.5146,2.5157c0.7891,0.8711,1.628,1.7089,2.5157,2.498
		c0.8051,0.8887,1.6269,1.7266,2.5146,2.5156c0.7891,0.8877,1.6279,1.7256,2.5156,2.5147c0.8047,0.9043,1.6436,1.7431,2.5313,2.5478
		c0.789,0.8555,1.5947,1.6778,2.4824,2.4668c0.8057,0.9033,1.6436,1.7422,2.5645,2.5645c0.7724,0.8545,1.5781,1.6758,2.4492,2.4648
		c0.8056,0.9043,1.6601,1.7598,2.581,2.5811c0.7891,0.8545,1.5948,1.6767,2.4658,2.4502c0.8057,0.9033,1.6436,1.7578,2.5645,2.5801
		c0.7891,0.871,1.6104,1.6933,2.498,2.499c0.7891,0.8711,1.628,1.7099,2.5157,2.499c0.8056,0.8867,1.6269,1.7256,2.5146,2.5146
		c0.7891,0.8877,1.6279,1.7256,2.5322,2.5313c0.7891,0.8721,1.6104,1.71,2.4981,2.499c0.7891,0.8877,1.6445,1.7266,2.5322,2.5313
		c0.7891,0.8877,1.6104,1.7099,2.4981,2.499c0.789,0.8877,1.6113,1.71,2.499,2.499c0.8057,0.9043,1.6435,1.7588,2.5478,2.5645
		c0.7891,0.8711,1.6114,1.6924,2.4825,2.4814c0.8213,0.9043,1.6601,1.7432,2.5644,2.5479c0.7891,0.8886,1.6104,1.7099,2.4981,2.499
		c0.789,0.8877,1.6279,1.7256,2.5156,2.5146c0.8057,0.8887,1.6269,1.7266,2.5146,2.5157c0.7891,0.8877,1.628,1.7265,2.5157,2.5156
		c0.8056,0.9043,1.6435,1.7422,2.5312,2.5478c0.7891,0.8711,1.6113,1.6924,2.4824,2.4659c0.8057,0.9043,1.6436,1.7422,2.5479,2.5644
		c0.7724,0.8545,1.5781,1.6602,2.4492,2.4326c0.8223,0.9366,1.6934,1.8086,2.6309,2.6465c0.7558,0.8389,1.5781,1.6436,2.4326,2.417
		c0.8056,0.9199,1.6601,1.7755,2.581,2.5801c0.7725,0.8711,1.5948,1.6933,2.4659,2.4668c0.8056,0.9033,1.6435,1.7422,2.5312,2.5312
		c0.7891,0.8877,1.627,1.7256,2.5147,2.5147c0.789,0.8877,1.6279,1.7265,2.5156,2.5156c0.789,0.8878,1.6269,1.7256,2.5146,2.5147
		c0.7891,0.8877,1.628,1.7265,2.5157,2.5156c0.8056,0.8867,1.6269,1.7256,2.5146,2.5312c0.7891,0.8711,1.6113,1.6934,2.4824,2.4825
		c0.8223,0.9199,1.6934,1.7753,2.6143,2.5976c0.7558,0.8546,1.5615,1.6602,2.416,2.4326c0.8223,0.9033,1.6602,1.7588,2.5811,2.5811
		c0.789,0.8711,1.6113,1.6924,2.499,2.4814c0.789,0.8877,1.6269,1.7266,2.5146,2.5157c0.7891,0.8876,1.628,1.7255,2.5156,2.5146
		c0.7891,0.8877,1.627,1.7266,2.5147,2.5156c0.8057,0.9043,1.6436,1.7422,2.5312,2.5313c0.7891,0.8711,1.6114,1.7099,2.4825,2.4824
		c0.8056,0.9043,1.6601,1.7588,2.5644,2.5645c0.7725,0.8544,1.5615,1.6601,2.417,2.4326c0.8379,0.9209,1.709,1.8086,2.6299,2.6299
		c0.7891,0.872,1.6113,1.6933,2.499,2.4667c0.7227,0.8213,1.5117,1.5782,2.3008,2.3174
		c263.3809-10.0107,474.9795-221.6425,485.0068-485.0224c-0.2627-0.2471-0.4931-0.5098-0.7557-0.7403
		C1007.9541,522.8481,1007.1318,522.0093,1006.211,521.2046z"/>
</g>
<g id="pdf-file-pdf-file">
	<path fill="#FC6E51" d="M437.6631,235.6645h269.3311c18.6093,0,33.6669,15.0909,33.6669,33.6665v471.313
		c0,18.6085-15.0576,33.6661-33.6669,33.6661H302.9981c-18.5762,0-33.6665-15.0576-33.6665-33.6661V403.9966L437.6631,235.6645z"/>
	<path fill="#434A54" d="M437.6631,235.6645v134.6656c0,18.6089-15.0576,33.6665-33.666,33.6665H269.3316L437.6631,235.6645z"/>
	<g>
		<path fill="#FFFFFF" d="M377.958,485.9927c8.7129,0,16.2412,1.0185,22.6524,3.0576c6.3789,2.039,11.6718,4.8984,15.8144,8.5478
			c4.1748,3.6827,7.2656,8.0879,9.3037,13.25c2.0391,5.1612,3.0576,10.8487,3.0576,17.0791c0,6.3623-1.0849,12.1817-3.2216,17.459
			c-2.17,5.2764-5.3916,9.8125-9.6328,13.6104c-4.2745,3.7978-9.5674,6.7568-15.8799,8.8935
			c-6.3457,2.1211-13.6768,3.1895-22.0938,3.1895h-19.792v48.2305H336.5V485.9927H377.958z M377.958,553.9507
			c4.833,0,9.0742-0.625,12.7237-1.8574c3.6826-1.2334,6.7402-2.9766,9.1728-5.2286c2.4326-2.2519,4.2744-4.9804,5.5234-8.2031
			c1.2168-3.1885,1.8409-6.7715,1.8409-10.7344c0-3.8955-0.5918-7.3808-1.8077-10.455c-1.1835-3.0899-2.9921-5.7032-5.4248-7.8731
			c-2.4003-2.1699-5.4248-3.8144-9.1074-4.9492c-3.6821-1.1338-7.9892-1.7256-12.9209-1.7256h-19.792v51.0264H377.958z"/>
		<path fill="#FFFFFF" d="M566.5752,552.6518c0,9.879-1.6103,18.9043-4.833,27.0743c-3.1885,8.1865-7.7256,15.205-13.5449,21.0742
			c-5.8526,5.8515-12.8555,10.4062-21.042,13.6445c-8.1865,3.2539-17.2608,4.8653-27.2549,4.8653h-50.3682V485.9927h50.3682
			c9.9941,0,19.0684,1.6103,27.2549,4.8662c8.1865,3.2217,15.1894,7.791,21.042,13.6435
			c5.8193,5.8682,10.3564,12.8877,13.5449,21.0752C564.9649,533.7476,566.5752,542.772,566.5752,552.6518z M544.4492,552.6518
			c0-7.6445-1.0527-14.5488-3.124-20.6474c-2.0713-6.0986-5.0303-11.2608-8.876-15.4688c-3.8799-4.1923-8.5488-7.413-14.039-9.666
			c-5.4903-2.2519-11.6719-3.3857-18.5098-3.3857h-28.6035v98.3359h28.6035c6.8379,0,13.0195-1.1181,18.5098-3.3379
			c5.4902-2.2187,10.1591-5.4404,14.039-9.6816c3.8457-4.2246,6.8047-9.3701,8.876-15.4531
			C543.3965,567.2651,544.4492,560.3608,544.4492,552.6518z"/>
		<path fill="#FFFFFF" d="M612.1104,503.4839v42.6738h52.1435v17.5078h-52.1435v55.6446h-21.7647V485.9927h83.1465v17.4912H612.1104
			z"/>
	</g>
	<polygon opacity="0.2" fill="#32383F" points="403.9971,403.9966 269.3316,538.646 269.3316,403.9966 	"/>
</g>
</svg>
