<?xml version="1.0" encoding="utf-8"?>
<!-- Generator: Adobe Illustrator 17.1.0, SVG Export Plug-In . SVG Version: 6.00 Build 0)  -->
<!DOCTYPE svg PUBLIC "-//W3C//DTD SVG 1.1//EN" "http://www.w3.org/Graphics/SVG/1.1/DTD/svg11.dtd">
<svg version="1.1" id="pen-tool" xmlns="http://www.w3.org/2000/svg" xmlns:xlink="http://www.w3.org/1999/xlink" x="0px" y="0px"
	 viewBox="0 0 1009.9922 1009.9917" enable-background="new 0 0 1009.9922 1009.9917" xml:space="preserve">
<path id="pen-tool-label" fill="#5D9CEC" d="M504.9961,1009.9917c278.8984,0,504.9961-226.0977,504.9961-504.9961
	S783.8945,0,504.9961,0S0,226.0972,0,504.9956S226.0977,1009.9917,504.9961,1009.9917z"/>
<g id="pen-tool-shadow" opacity="0.15">
	<path fill="#434A54" d="M972.3477,696.4077c0.0332-0.0663,0.0488-0.1318,0.082-0.1973c-0.0332-0.0332-0.0488-0.0664-0.082-0.0986
		V696.4077z"/>
	<path fill="#434A54" d="M969.3887,693.9419c-1.0029-1.3154-2.0225-2.7949-2.9756-3.7813v0.8223
		c-1.0029-1.3154-2.0215-2.7949-2.9756-3.7812v0.789c-0.9863-1.3144-2.0049-2.7939-2.959-3.748v0.789
		c-1.0029-1.3144-2.0215-2.7939-2.9756-3.7802v0.8212c-1.0019-1.3144-2.0214-2.8271-2.9746-3.7802v0.789
		c-0.9863-1.3154-2.0058-2.7949-2.959-3.748v0.7891c-1.0029-1.3155-2.0224-2.795-2.9755-3.7812v0.8223
		c-1.0031-1.3155-2.0225-2.8282-2.9756-3.7813v0.7891c-1.0031-1.3145-2.0215-2.7949-2.9756-3.7481v0.7559
		c-0.9863-1.2813-2.0049-2.7617-2.959-3.7481v0.8223c-1.0029-1.3144-2.0215-2.8271-2.9746-3.7812v0.789
		c-1.0029-1.3144-2.0225-2.7939-2.9756-3.7802v0.8212c-1.0029-1.3144-2.0224-2.7939-2.9756-3.7802v0.789
		c-0.9863-1.3154-2.0059-2.7949-2.959-3.748v0.789c-1.0029-1.3154-2.0224-2.7949-2.9755-3.7812v0.7891
		c-1.003-1.3145-2.0215-2.794-2.9756-3.7481v0.7891c-0.9864-1.3145-2.0049-2.794-2.959-3.7481v0.7891
		c-1.0029-1.3145-2.0215-2.794-2.9746-3.7803v0.8214c-1.003-1.3145-2.0225-2.8271-2.9756-3.7803v0.7891
		c-0.9863-1.3154-2.0059-2.7949-2.959-3.7481v0.7891c-1.0029-1.3154-2.0225-2.7949-2.9756-3.7812v0.8222
		c-1.0029-1.3154-2.0224-2.8281-2.9756-3.7812v0.789c-0.9863-1.3144-2.0058-2.7949-2.959-3.748v0.7891
		c-1.0029-1.3145-2.0214-2.795-2.9755-3.7812v0.8223c-1.0031-1.3145-2.0215-2.8272-2.9746-3.7813v0.7891
		c-0.9864-1.3145-2.0059-2.794-2.959-3.7803v0.8213c-1.003-1.3145-2.0225-2.7939-2.9922-3.7803v0.7891
		c-0.9863-1.3154-2.0059-2.794-2.959-3.7481v0.7891c-1.0029-1.3154-2.0225-2.7939-2.9756-3.7803v0.8213
		c-1.0029-1.3154-2.0215-2.7939-2.9756-3.7803v0.7891c-0.9863-1.3164-2.0049-2.7949-2.959-3.748v0.789
		c-1.0019-1.3164-2.0214-2.7949-2.9745-3.7812v0.789c-1.0029-1.3154-2.0225-2.7949-2.9756-3.748v0.789
		c-0.9863-1.3154-2.0058-2.7949-2.9589-3.748v0.7891c-1.0031-1.3155-2.0225-2.795-2.9756-3.7813v0.7891
		c-1.003-1.2822-2.0225-2.7949-2.9756-3.7481v0.7891c-0.9863-1.3145-2.0059-2.7949-2.959-3.7481v0.7891
		c-1.0029-1.3145-2.0215-2.7949-2.9756-3.7812v0.8222c-1.0019-1.3144-2.0215-2.8271-2.9746-3.7812v0.789
		c-0.9863-1.3144-2.0058-2.7939-2.959-3.748v0.7891c-1.0029-1.3145-2.0224-2.794-2.9756-3.7803v0.8213
		c-1.0029-1.3145-2.0224-2.8262-2.9755-3.7803v0.7891c-0.9864-1.3155-2.0059-2.794-2.959-3.7803v0.8213
		c-1.003-1.3155-2.0225-2.794-2.9756-3.7803v0.8213c-1.0029-1.3154-2.0215-2.8272-2.9756-3.7803v0.7891
		c-1.002-1.3164-2.0215-2.7949-2.9746-3.7813v0.8223c-1.0029-1.3164-2.0225-2.7949-2.9756-3.7813v0.7891
		c-0.9863-1.3154-2.0059-2.7949-2.959-3.748v0.789c-1.0029-1.3154-2.0224-2.7949-2.9756-3.7812v0.8222
		c-1.0029-1.3154-2.0225-2.8281-2.9756-3.7812v0.789c-0.9863-1.3144-2.0058-2.7949-2.9589-3.748v0.7891
		c-1.0031-1.3145-2.0215-2.795-2.9756-3.7813v0.8223c-1.002-1.3145-2.0215-2.8272-2.9745-3.7813v0.7891
		c-0.9865-1.3145-2.0059-2.794-2.959-3.7481v0.7891c-1.0029-1.3145-2.0225-2.7939-2.9756-3.7803v0.8213
		c-1.0029-1.3144-2.0225-2.8261-2.9756-3.7802v0.789c-0.9863-1.3154-2.0058-2.7939-2.959-3.748v0.789
		c-1.0029-1.3154-2.0224-2.7939-2.9756-3.7802v0.8212c-1.0029-1.3154-2.0214-2.8271-2.9755-3.7802v0.789
		c-0.9864-1.3164-2.0049-2.7949-2.959-3.7812v0.8222c-1.002-1.3164-2.0215-2.7949-2.9746-3.7812v0.8223
		c-1.0031-1.3155-2.0225-2.8282-2.9756-3.7813v0.7891c-1.003-1.3155-2.0225-2.7949-2.9756-3.7813v0.8223
		c-1.0029-1.3154-2.0225-2.7949-2.9756-3.7813v0.7891c-0.9863-1.3144-2.0059-2.7949-2.959-3.748v0.789
		c-1.0029-1.3144-2.0215-2.7949-2.9756-3.7812v0.8222c-1.002-1.3144-2.0215-2.8271-2.9746-3.7812v0.789
		c-0.9863-1.3144-2.0058-2.7939-2.959-3.748v0.7891c-1.0029-1.3145-2.0223-2.794-2.9755-3.7803v0.8213
		c-1.003-1.3145-2.0225-2.794-2.9756-3.7803v0.7891c-1.0031-1.3155-2.0225-2.794-2.9756-3.7481v0.7569
		c-0.9863-1.2832-2.0059-2.7622-2.959-3.7486v0.8218c-1.0029-1.3149-2.0215-2.8276-2.9756-3.7808v0.7891
		c-0.9863-1.3154-2.0049-2.7949-2.959-3.748v0.789c-1.002-1.3149-2.0215-2.7944-2.9746-3.7807v0.8217
		c-1.0029-1.3149-2.0224-2.8276-2.9756-3.7807v0.789c-0.9863-1.3154-2.0059-2.7949-2.959-3.7812v0.8222
		c-1.0029-1.3154-2.0224-2.7949-2.9755-3.7812v0.8223c-1.003-1.3155-2.0215-2.8277-2.9756-3.7813v0.7891
		c-1.003-1.315-2.0215-2.7945-2.9756-3.7808v0.8218c-1.002-1.3149-2.0215-2.7944-2.9746-3.7808v0.7891
		c-0.9863-1.3149-2.0059-2.7944-2.959-3.7481v0.7891c-1.0029-1.3149-2.0225-2.7944-2.9756-3.7808v0.7891
		c-1.0029-1.2822-2.0225-2.7944-2.9756-3.748v0.789c-0.9863-1.3149-2.0058-2.7944-2.959-3.748v0.789
		c-1.0029-1.3149-2.0214-2.7944-2.9755-3.7807v0.8218c-1.003-1.315-2.0215-2.7945-2.9756-3.7808v0.7891
		c-0.9865-1.3155-2.0049-2.7945-2.959-3.7481v0.7891c-1.002-1.315-2.0215-2.7945-2.9746-3.7808v0.8218
		c-1.003-1.315-2.0225-2.8276-2.9756-3.7808v0.7891c-0.9863-1.3154-2.0059-2.7949-2.959-3.7481v0.7891
		c-1.0029-1.3154-2.0225-2.7949-2.9756-3.7812v0.8222c-1.0029-1.3154-2.0215-2.8276-2.9756-3.7812v0.789
		c-0.9863-1.3149-2.0049-2.7944-2.959-3.7807v0.8217c-1.0029-1.3149-2.0214-2.7944-2.9755-3.7807v0.8223
		c-1.002-1.3155-2.0215-2.8277-2.9746-3.7813v0.7891c-1.003-1.315-2.0225-2.7945-2.9756-3.7808v0.7891
		c-1.0031-1.2823-2.0225-2.7618-2.9756-3.7481v0.7891c-0.9863-1.315-2.0059-2.7945-2.959-3.7481v0.7891
		c-1.0029-1.3149-2.0215-2.7944-2.9756-3.7808v0.7891c-1.0029-1.3154-2.0215-2.7949-2.9756-3.748v0.789
		c-0.9863-1.3149-2.0049-2.7944-2.959-3.748v0.789c-1.0019-1.3149-2.0214-2.7944-2.9745-3.7807v0.8217
		c-1.0029-1.3149-2.0224-2.7944-2.9756-3.7807v0.789c-0.9863-1.3154-2.0058-2.7949-2.9589-3.748v0.7891
		c-1.003-1.3155-2.0225-2.795-2.9756-3.7813v0.8223c-1.0031-1.3155-2.0215-2.8277-2.9756-3.7813v0.7891
		c-1.0029-1.315-2.0215-2.7944-2.9756-3.7476v0.7559c-0.9863-1.2822-2.0049-2.7617-2.959-3.7481v0.8223
		c-1.0019-1.3154-2.0215-2.8276-2.9746-3.7812v0.789c-1.0029-1.3149-2.0225-2.7944-2.9756-3.7807v0.789
		c-0.9863-1.2822-2.0058-2.7617-2.959-3.748v0.8218c-1.0029-1.315-2.0224-2.8272-2.9755-3.7808v0.7891
		c-0.9864-1.315-2.0059-2.7945-2.959-3.7808v0.8218c-1.0031-1.315-2.0381-2.7945-2.9922-3.7808v0.7891
		c-0.9863-1.315-2.0049-2.7945-2.959-3.7481v0.7891c-1.002-1.315-2.0215-2.7944-2.9746-3.7808v0.7891
		c-1.0029-1.2822-2.0225-2.7949-2.9756-3.7481v0.7891c-0.9863-1.3154-2.0059-2.7949-2.959-3.748v0.789
		c-1.0029-1.3154-2.0224-2.7949-2.9756-3.7812v0.8222c-1.0029-1.3154-2.0215-2.7949-2.9756-3.7807v0.7885
		c-0.9863-1.3149-2.0048-2.7944-2.9589-3.7475v0.7891c-1.003-1.3155-2.0215-2.795-2.9756-3.7813v0.8223
		c-1.002-1.3155-2.0215-2.8277-2.9746-3.7813v0.7891c-1.003-1.315-2.0225-2.7945-2.9756-3.7481v0.7564
		c-0.9864-1.2822-2.0059-2.7617-2.959-3.7481v0.8218c-1.0029-1.3149-2.0225-2.8271-2.9756-3.7808v0.7891
		c-1.0029-1.3149-2.0215-2.7944-2.9756-3.748v0.7563c-0.9863-1.3149-2.0049-2.7944-2.959-3.748v0.8217
		c-1.0029-1.3149-2.0214-2.8271-2.9755-3.7807v0.789c-1.002-1.3149-2.0215-2.7944-2.9747-3.7807v0.789
		c-0.9863-1.2822-2.0058-2.7949-2.9589-3.748v0.8218c-1.003-1.315-2.0225-2.8277-2.9756-3.7808v0.7891
		c-1.0031-1.3155-2.0225-2.7949-2.9756-3.7813v0.7891c-1.0029-1.2822-2.0215-2.7944-2.9756-3.7476v0.7891
		c-0.9863-1.3154-2.0049-2.7949-2.959-3.7481v0.7891c-1.0029-1.3154-2.0215-2.7949-2.9756-3.7812v0.8222
		c-1.002-1.3154-2.0215-2.8276-2.9746-3.7812v0.789c-0.9863-1.3149-2.0058-2.7944-2.959-3.748v0.7891
		c-1.0029-1.315-2.0224-2.7945-2.9756-3.7808v0.8218c-1.0029-1.315-2.0224-2.8272-2.9755-3.7808v0.7891
		c-1.003-1.315-2.0215-2.7945-2.9756-3.7481v0.7564c-0.9864-1.2823-2.0049-2.7618-2.959-3.7481v0.8218
		c-1.0029-1.3149-2.0215-2.8272-2.9756-3.7808v0.7891c-1.0019-1.3149-2.0215-2.7944-2.9746-3.748v0.7563
		c-0.9863-1.3154-2.0059-2.7617-2.959-3.748v0.8217c-1.0029-1.3149-2.0224-2.8276-2.9756-3.7807v0.789
		c-1.0029-1.3154-2.0224-2.7949-2.9756-3.7807v0.7885c-0.9863-1.3149-2.0058-2.7944-2.9589-3.7475v0.789
		c-1.003-1.2822-2.0215-2.7949-2.9756-3.748v0.7891c-1.0031-1.3155-2.0215-2.795-2.9756-3.7481v0.7559
		c-1.002-1.2823-2.0215-2.7945-2.9745-3.7481v0.7891c-0.9865-1.315-2.0059-2.7944-2.959-3.7481v0.7891
		c-1.0029-1.3149-2.0225-2.7944-2.9756-3.7808v15.8472c-0.7236,0.7891-1.4795,1.8408-2.2353,2.8272v-6.7071
		c-0.9541,0.9536-1.9727,2.4331-2.9756,3.7481v-6.7071c-0.9375,0.9209-1.9727,2.4004-2.959,3.7154v-6.7071
		c-0.9541,0.9537-1.9893,2.4332-2.9922,3.7481v-6.707c-0.9365,0.9536-1.9727,2.4331-2.959,3.7153v-6.707
		c-3.1396,3.1562-6.5098,8.1865-10.4219,15.518L355.0591,498.3872c-6.0825,12.625-8.2524,31.6611,0,39.9463l2.9097,2.9258
		c0.0166,0,0.0332,0.0332,0.0493,0.0664l32.0063,31.9892l0.6407,0.6573c0.0166,0,0.0166,0,0.0332,0.0332l2.9755,2.9589l5.9336,5.918
		v0.0332l11.8858,11.8682l0,0l2.9756,2.959v0.0322l7.4297,7.4316l7.8906,7.8575h-23.7862v56.4824h2.959v2.9922h2.9912v2.959h2.959
		v2.9921h2.9756v2.959h2.2354v6.6739v86.2041h2.9755v2.9921h2.959v2.959h2.9756v2.9912h2.9756v2.959h2.9756v2.959h2.958v2.959
		h2.9756v2.9922h2.959v2.959h2.9756v2.9922h2.9755v2.9589h2.9756v2.959h2.9746v2.9912h2.959v2.959h2.9756v2.959h2.9756v2.9922h2.959
		v2.959h2.9756v2.959h2.9755v2.9912h2.959v2.959h2.9746v2.9921h2.9756v2.959h2.959v2.959h2.9756v2.959h2.9756v2.9922h2.9756v2.959
		h2.9746v2.9912h2.959v2.959h2.9589v2.9589h2.9756v2.9922h2.9756v2.959h2.9756v2.959h2.9756v2.9911h2.959v2.959h2.9745v2.959h2.9756
		v2.9922h2.959v2.959h2.9755v2.9921h2.9756v2.959h2.959v2.959h2.9756v2.959h2.9746v2.9912h2.959v2.959h2.9756v2.9922h2.9756v2.959
		h2.9755v2.9589h2.9756v2.9913h2.959v2.9589h2.9746v2.959h2.9756v2.9922h2.959v2.959h2.9756v2.959h2.9756v2.9922h2.959v2.959h2.9755
		v2.9589h2.9745v2.9912h2.959v2.959h2.9756v2.959h2.9756v2.9922h2.9756v2.959h2.9756v2.9912h2.959v2.959h2.9589v2.959h2.9747v2.9922
		h2.9755v2.9589h2.9756v2.959h2.9756v2.9922h2.959v2.959h2.9756v2.959h2.9746v2.9912h2.959v2.959h2.9756v2.959h2.9755v2.9921h2.959
		v2.959h2.9756v0.4268c150.9561-41.7539,273.5069-151.794,332.2744-294.877c-0.9365-1.2812-1.9228-2.6621-2.8271-3.583V693.9419z"/>
</g>
<g id="pen-tool-pen-tool">
	<path fill="#FFCE54" d="M497.7959,458.54c-2.8926,1.0191-5.6055,2.5972-7.9228,4.899c-8.2696,8.2851-8.2696,21.6992,0,29.9511
		c8.2685,8.2852,21.6826,8.2852,29.9668,0c8.2695-8.2519,8.2695-21.666,0-29.9511c-2.3174-2.3018-5.0459-3.9126-7.9229-4.899
		V235.6645c3.1729,3.2222,6.542,8.2852,10.4053,15.584l132.2988,247.1387c6.8711,12.8223,8.2686,31.6943,0.0166,39.9463
		l-74.7305,74.7305H429.8057l-74.7466-74.7305c-8.2524-8.2852-6.0825-27.3213,0-39.9463L487.374,251.2485
		c3.9121-7.3315,7.2823-12.3618,10.4219-15.518V458.54z"/>
	<polygon opacity="0.1" points="598.8447,594.1265 579.9072,613.064 429.8057,613.064 410.8682,594.1265 	"/>
	<polygon fill="#434A54" points="603.71,669.5464 589.5899,669.5464 589.5899,774.3267 420.1231,774.3267 420.1231,669.5464 
		406.0029,669.5464 406.0029,613.064 603.6943,613.064 	"/>
	<polygon opacity="0.1" points="589.5733,688.1226 589.5899,669.5464 420.1231,669.5464 420.1231,688.1226 	"/>
</g>
</svg>
