<?xml version="1.0" encoding="utf-8"?>
<!-- Generator: Adobe Illustrator 17.1.0, SVG Export Plug-In . SVG Version: 6.00 Build 0)  -->
<!DOCTYPE svg PUBLIC "-//W3C//DTD SVG 1.1//EN" "http://www.w3.org/Graphics/SVG/1.1/DTD/svg11.dtd">
<svg version="1.1" id="pencil" xmlns="http://www.w3.org/2000/svg" xmlns:xlink="http://www.w3.org/1999/xlink" x="0px" y="0px"
	 viewBox="0 0 1009.9922 1009.9917" enable-background="new 0 0 1009.9922 1009.9917" xml:space="preserve">
<path id="pencil-label" fill="#FFFFFF" d="M504.9961,0C226.0977,0,0,226.0972,0,504.9956s226.0977,504.9961,504.9961,504.9961
	s504.9961-226.0977,504.9961-504.9961S783.8945,0,504.9961,0z"/>
<g id="pencil-shadow" opacity="0.1">
	<path fill="#434A54" d="M996.1836,544.564l-2.9756-2.959l-17.8193-17.8203c0-0.0157,0-0.0157-0.0166-0.0323l-2.9424-2.9267
		l-20.7949-20.8106c-0.0165,0-0.0165,0-0.0165,0L939.75,488.1304c0,0-0.0166-0.0176-0.0332-0.0176l-14.8281-14.8272
		c0-0.0166,0-0.0166-0.0156-0.0327l-2.9434-2.9428l-2.9746-2.9751l-14.8447-14.8609c-0.0166,0-0.0166,0-0.0323,0l-11.8691-11.8686
		c0-0.0166,0-0.0166-0.0166-0.0328l-2.9424-2.9262l-2.9756-2.9917l-2.9756-2.959l-2.9589-2.959l-2.9747-2.9917l-17.8203-17.8198
		c-0.0156,0-0.0156,0-0.0156,0l-2.959-2.959l-2.959-2.9751l-20.8115-20.7949l0,0l-2.959-2.9756c0,0-0.0165-0.0166-0.0332-0.0166
		l-14.8271-14.8276c0-0.0162-0.0166-0.0162-0.0166-0.0162l-2.9424-2.9589c0,0,0,0-0.0166,0l-0.9209-0.9371l-2.0381-2.0385
		l-5.9346-5.918l-11.8847-11.9014l-2.9756-2.9755c0,0-0.0166-0.0166-0.0332-0.0166l-2.9424-2.9585l-14.8437-14.8443
		c0-0.0166-0.0166-0.0166-0.0332-0.0166l-2.9424-2.959l-2.9756-2.959l-2.959-2.9751l-2.9756-2.9755l-20.7949-20.795h-0.0166
		l-14.8438-14.8603l0,0l-11.8681-11.8692c-0.0166-0.0161-0.0331-0.0161-0.0331-0.0161l-14.8282-14.8442l-2.9589-2.959
		c-0.0157-0.0166-0.0323-0.0166-0.0323-0.0327l-2.9589-2.9429c-3.9454-3.9453-10.3897-3.9453-14.335,0l-92.9277,92.961
		c-0.7237,0.4272-1.4961,0.7724-2.1202,1.3974l-306.664,306.6299l2.9756,2.9756l0,0l-2.9756-2.9756l-37.9893,127.7285
		c-1.2495,3.7979-0.0498,6.2969,2.6631,6.8223c0.3125,1.6113,1.3477,2.6631,2.9751,2.9756c0.3125,1.6103,1.3481,2.6465,2.959,2.9756
		c0.3125,1.6103,1.3481,2.6464,2.9756,2.9589c0.312,1.6104,1.3481,2.6631,2.9751,2.9747c0.3125,1.6113,1.3481,2.6474,2.959,2.9755
		c0.3291,1.6114,1.3481,2.6475,2.9756,2.959c0.3125,1.6114,1.3477,2.6631,2.9756,2.9922c0.3125,1.5947,1.3476,2.6299,2.959,2.959
		c0.3286,1.6104,1.3643,2.6631,2.9751,2.959c0.3125,1.6103,1.3482,2.6631,2.9756,2.9756c0.312,1.6103,1.3481,2.6465,2.9751,2.9746
		c0.3125,1.6113,1.3481,2.664,2.959,2.959c0.3125,1.6279,1.3481,2.664,2.9756,2.9922c0.3125,1.6113,1.3476,2.663,2.9755,2.9589
		c0.3121,1.6114,1.3477,2.6631,2.959,2.959c0.312,1.6113,1.3477,2.6631,2.9751,2.9756c0.3125,1.627,1.3482,2.6631,2.9756,2.9756
		c0.312,1.6103,1.3482,2.6631,2.9585,2.959c0.3291,1.6269,1.3648,2.6621,2.9756,2.9912c0.3291,1.6113,1.3481,2.6631,2.9756,2.959
		c0.3125,1.6113,1.3476,2.6631,2.959,2.959c0.3286,1.6279,1.3642,2.663,2.9756,2.9921c0.3286,1.6104,1.3642,2.6465,2.9751,2.959
		c0.3125,1.6104,1.3481,2.6631,2.9755,2.9756c0.312,1.6104,1.3482,2.6465,2.9751,2.9746c0.3125,1.6114,1.3482,2.6641,2.959,2.959
		c0.3291,1.6113,1.3643,2.6641,2.9756,2.9756c0.3125,1.6113,1.3477,2.6475,2.959,2.9756c0.3286,1.6113,1.3642,2.6631,2.9756,2.959
		c0.3286,1.6113,1.3476,2.663,2.959,2.9755c0.3286,1.627,1.3642,2.6631,2.9912,2.9756c0.3125,1.6104,1.3486,2.6631,2.959,2.9746
		c0.3291,1.5948,1.3647,2.6465,2.9755,2.9756c0.3125,1.6114,1.3482,2.6475,2.9756,2.959c0.3125,1.6113,1.3477,2.6631,2.9756,2.959
		c0.312,1.6279,1.3477,2.6631,2.959,2.9922c0.312,1.6103,1.3477,2.6631,2.9751,2.959c0.3125,1.6103,1.3481,2.6631,2.9751,2.9756
		c0.3125,1.6103,1.3486,2.6464,2.959,2.9746c0.3291,1.6113,1.3647,2.6465,2.9756,2.959c0.3291,1.6113,1.3481,2.664,2.9755,2.9589
		c0.3125,1.628,1.3477,2.6641,2.959,2.9922c0.3286,1.6114,1.3643,2.6465,2.9756,2.959c0.312,1.6113,1.3477,2.6631,2.9751,2.9922
		c0.3286,1.6103,1.3482,2.6299,2.959,2.959c0.3286,1.6103,1.3647,2.6621,2.9751,2.959c0.3291,1.6103,1.3647,2.6621,2.9756,2.9746
		c0.3125,1.6113,1.3481,2.6465,2.9756,2.9756c0.3125,1.6113,1.3476,2.663,2.959,2.9589c0.3125,1.628,1.3476,2.6631,2.9755,2.9922
		c0.3121,1.6104,1.3477,2.6465,2.959,2.959c0.3282,1.6104,1.3643,2.6631,2.9756,2.959c0.3115,1.627,1.3477,2.6631,2.9746,2.9911
		c0.3125,1.6113,1.3487,2.6465,2.9756,2.959c0.3125,1.6113,1.3477,2.6641,2.9756,2.9756c0.3125,1.6113,1.3476,2.6465,2.959,2.9756
		c0.3291,1.6113,1.3642,2.6631,2.9756,2.959c0.3281,1.6113,1.3476,2.663,2.9755,2.9589c0.3116,1.627,1.3477,2.6631,2.959,2.9922
		c0.3282,1.6104,1.3643,2.6621,2.9746,2.959c0.3125,1.627,1.3487,2.6621,2.9756,2.9912c0.3291,1.6113,1.3477,2.6475,2.9756,2.959
		c0.3125,1.6113,1.3477,2.6631,2.959,2.959c0.3291,1.6113,1.3477,2.6631,2.9756,2.9756c0.3125,1.6269,1.3476,2.6631,2.9756,2.9756
		c0.3115,1.6103,1.3476,2.663,2.959,2.9589c0.3281,1.627,1.3476,2.6631,2.9746,2.9913c0.3125,1.6113,1.3486,2.6464,2.9756,2.9589
		c0.3125,1.6114,1.3476,2.6641,2.9755,2.9756c0.3125,1.6114,1.3477,2.6465,2.959,2.9756c0.3125,1.6113,1.3477,2.6631,2.9756,2.959
		c0.3281,1.6113,1.3477,2.6631,2.9756,2.9756c0.3115,1.6103,1.3476,2.6465,2.958,2.9756c0.3125,1.6103,1.3486,2.6621,2.9756,2.959
		c0.3125,1.6104,1.3486,2.6621,2.9756,2.9746c0.3125,1.6113,1.3476,2.6464,2.9756,2.9755c0.3125,1.6114,1.3476,2.6631,2.9589,2.959
		c0.3291,1.628,1.3477,2.6631,2.9756,2.9922c0.3125,1.6104,1.3477,2.6631,2.9756,2.959c0,0.0322,0.0322,0.0654,0.0322,0.0986
		c10.4219,0.625,20.877,1.0684,31.4473,1.0684c261.7363,0,476.9512-199.1211,502.4482-454.1514l-8.2851-8.2842L996.1836,544.564z"/>
</g>
<g id="pencil-pencil">
	<g>
		<path fill="#FFDD87" d="M595.1953,332.9653c-3.9785-3.9292-10.4218-3.9292-14.3672,0l-306.664,306.6299l29.3598,29.3272
			l313.7974-313.8145L595.1953,332.9653z"/>
		<path fill="#F6BB42" d="M656.5117,394.2646L342.6641,708.063l27.7158,27.7158l306.6465-306.6147
			c3.9453-3.9781,3.9453-10.4219,0-14.3672L656.5117,394.2646z"/>
		<polygon fill="#FFCE54" points="617.3213,355.1079 303.5239,668.9224 342.6641,708.063 656.5117,394.2646 		"/>
	</g>
	<path fill="#CCD1D9" d="M370.3799,735.7788l-127.7285,38.0547c-5.3262,1.7266-8.2193-1.1992-6.4766-6.5098l37.9893-127.7285
		L370.3799,735.7788z"/>
	<path fill="#434A54" d="M248.0435,727.4604l-11.8687,39.8633c-1.7427,5.3106,1.1504,8.2364,6.4766,6.5098l39.8476-11.9014
		L248.0435,727.4604z"/>
	<path fill="#FC6E51" d="M578.2305,336.2856l97.6455-97.6787c3.9453-3.9453,10.3896-3.9453,14.335,0l81.1406,81.1743
		c3.9453,3.9288,3.9453,10.3892,0,14.3018l-97.6122,97.6621L578.2305,336.2856z"/>
</g>
</svg>
