<?xml version="1.0" encoding="utf-8"?>
<!-- Generator: Adobe Illustrator 17.1.0, SVG Export Plug-In . SVG Version: 6.00 Build 0)  -->
<!DOCTYPE svg PUBLIC "-//W3C//DTD SVG 1.1//EN" "http://www.w3.org/Graphics/SVG/1.1/DTD/svg11.dtd">
<svg version="1.1" id="psd-photoshop-file" xmlns="http://www.w3.org/2000/svg" xmlns:xlink="http://www.w3.org/1999/xlink" x="0px"
	 y="0px" viewBox="0 0 1009.9922 1009.9917" enable-background="new 0 0 1009.9922 1009.9917" xml:space="preserve">
<path id="psd-photoshop-file-label" fill="#FFFFFF" d="M504.9961,0C226.0977,0,0,226.0972,0,504.9956
	s226.0977,504.9961,504.9961,504.9961s504.9961-226.0977,504.9961-504.9961S783.8945,0,504.9961,0z"/>
<g id="psd-photoshop-file-shadow" opacity="0.1">
	<path fill="#434A54" d="M1005.4219,520.4487c-0.9199-1.0527-1.9063-2.039-2.959-2.959c-0.9199-1.0527-1.9062-2.039-2.9912-2.9921
		c-0.9209-1.0196-1.874-2.0059-2.9268-2.9258c-0.9199-1.0528-1.9394-2.0547-2.9911-2.9922c-0.921-1.0528-1.9072-2.0391-2.959-2.959
		c-0.9209-1.0684-1.9072-2.0547-2.9921-2.9922c-0.9209-1.0517-1.9073-2.0381-2.959-2.959c-0.9209-1.0517-1.9073-2.0381-2.959-2.959
		c-0.9209-1.0683-1.9395-2.0546-2.9922-2.9921c-0.9199-1.0508-1.9063-2.0372-2.958-2.959c-0.9209-1.0508-1.9072-2.0371-2.959-2.9746
		c-0.9541-1.0528-1.9404-2.0391-2.9922-2.9756c-0.9209-1.0518-1.9072-2.0381-2.959-2.959c-0.921-1.0523-1.9072-2.0386-2.9922-2.9917
		c-0.9199-1.0357-1.874-2.0059-2.9257-2.9429c-0.9532-1.0683-1.9395-2.0547-2.9922-3.0078
		c-0.9531-1.0356-1.9062-2.0059-2.959-2.9429c-0.9531-1.0517-1.9395-2.038-2.9912-2.9751c-0.9209-1.0522-1.9072-2.0219-2.959-2.9589
		c-0.9209-1.0523-1.9072-2.0552-2.9922-2.9922c-0.9209-1.0518-1.9072-2.0381-2.959-2.959c-0.9209-1.0518-1.9072-2.0381-2.959-2.9751
		c-0.9531-1.0523-1.9072-2.022-2.9921-2.959c-0.92-1.0684-1.9063-2.0386-2.9581-2.9756c-0.9209-1.0517-1.9072-2.0381-2.9589-2.9751
		c-0.9541-1.0688-1.9406-2.0552-2.9922-2.9756c-0.9209-1.0522-1.9073-2.0219-2.959-2.9424
		c-0.9209-1.0688-1.9072-2.0551-2.959-2.9921c-0.9531-1.0518-1.9072-2.022-2.959-2.959c-0.9531-1.0684-1.9395-2.0547-2.9922-2.9917
		c-0.9531-1.0518-1.9062-2.022-2.959-2.9424c-0.9199-1.0523-1.9062-2.0386-2.9589-2.959c-0.9532-1.0849-1.9395-2.0879-3.0245-3.0249
		c-0.9208-1.0517-1.874-2.0054-2.9257-2.9258c-0.9208-1.0522-1.9073-2.0385-2.9922-2.9922c-0.9209-1.0517-1.9072-2.038-2.959-2.9585
		c-0.9209-1.0688-1.9063-2.0385-2.9912-2.9921c-0.9209-1.0518-1.9072-2.022-2.959-2.959c-0.9209-1.0518-1.9072-2.0381-2.959-2.9751
		c-0.9541-1.0523-1.9072-2.022-2.959-2.959c-0.9541-1.0523-1.9404-2.0552-2.9922-2.9756c-0.9209-1.0522-1.9072-2.0386-2.9589-2.9756
		c-0.9532-1.0517-1.9395-2.0381-2.9922-2.9751c-0.9199-1.0522-1.9062-2.0386-2.959-2.959c-0.9199-1.0522-1.9063-2.0385-2.959-2.9589
		c-0.9199-1.0684-1.9062-2.0547-2.9912-2.9917c-0.9209-1.0523-1.9072-2.0386-2.959-2.9922
		c-0.9541-1.0357-1.9072-2.0054-2.959-2.9258c-0.9541-1.0689-1.9404-2.0713-2.9922-2.9922
		c-0.9209-1.0518-1.9072-2.0381-2.9589-2.9585c-0.92-1.0522-1.9063-2.0386-2.959-2.9756c-0.9532-1.0683-1.9395-2.0386-2.9911-2.9756
		c-0.9209-1.0517-1.9073-2.0381-2.959-2.9751c-0.9541-1.0522-1.9073-2.0219-2.959-2.9428c-0.9541-1.085-1.9404-2.0713-2.9922-3.0083
		c-0.9209-1.0357-1.9072-2.022-2.959-2.9424c-0.9209-1.0518-1.9394-2.0547-2.9922-2.9917c-0.9199-1.0523-1.9062-2.022-2.959-2.959
		c-0.9199-1.0523-1.9062-2.0386-2.9589-2.9756c-0.9532-1.0684-1.9395-2.0547-2.9913-2.9751
		c-0.9208-1.0522-1.9072-2.022-2.9589-2.9429c-0.9209-1.0683-1.9073-2.0546-2.959-2.9917c-0.9541-1.0522-1.9404-2.0219-2.959-2.9589
		c-0.9541-1.0684-1.9395-2.0547-2.9922-2.9751c-0.9199-1.0523-1.9062-2.0386-2.959-2.959
		c-0.9531-1.0689-1.9395-2.0552-2.9912-2.9922c-0.9209-1.0518-1.9072-2.0381-2.959-2.959c-0.921-1.0518-1.9072-2.0547-2.9922-2.9917
		c-0.9209-1.0522-1.9072-2.0386-2.9589-2.959c-0.9209-1.0522-1.9073-2.0381-2.959-2.959c-0.9209-1.0517-1.9073-2.0381-2.959-2.959
		c-0.9531-1.0683-1.9395-2.0546-2.9922-2.9917c-0.9199-1.0522-1.9062-2.0385-2.9912-2.9917
		c-0.9209-1.0522-1.9072-2.0219-2.959-2.9589c-0.9209-1.0523-1.9072-2.022-2.959-2.959c-0.9209-1.0523-1.9072-2.0386-2.959-2.959
		c-0.9209-1.0522-1.9072-2.0386-2.9589-2.9756c-0.9532-1.0683-1.9395-2.0547-2.9922-2.9917
		c-0.9532-1.0356-1.9063-2.022-2.959-2.9424c-0.9199-1.0522-1.9062-2.0385-2.959-2.9756c-0.9531-1.0683-1.9395-2.0546-2.9912-2.9917
		c-0.9541-1.0522-1.9072-2.0219-2.959-2.9589c-0.9541-1.0523-1.9072-2.022-2.959-2.959c-0.9541-1.0684-1.9404-2.0547-2.9922-2.9917
		c-0.9531-1.0523-1.9072-2.022-2.959-2.959c-0.9531-1.0689-1.9394-2.0552-2.9921-2.9756c-0.92-1.0522-1.9063-2.0386-2.959-2.959
		c-0.9199-1.0522-1.9395-2.0547-2.9911-2.9917c-0.9209-1.0522-1.9073-2.022-2.959-2.9428c-0.9209-1.0684-1.9072-2.0547-2.959-2.9917
		c-0.9541-1.0518-1.9072-2.022-2.959-2.959c-0.9531-1.0684-1.9394-2.0547-2.9922-2.9751
		c-6.1806-6.9868-15.0908-11.4908-25.1513-11.4908H437.6631L269.3316,404.0132v134.6484v201.999
		c0,10.0606,4.5044,18.9698,11.4741,25.1514c0.9531,1.0518,1.9394,2.0381,2.9917,2.9746c0.9204,1.0528,1.9067,2.0225,2.959,2.9434
		c0.9204,1.0683,1.9067,2.0547,2.9917,2.9912c0.9209,1.0517,1.9072,2.0381,2.9589,2.9756c0.9537,1.0527,1.9073,2.039,2.959,2.9756
		c0.9536,1.0517,1.94,2.038,2.9922,2.9589c0.9204,1.0518,1.9068,2.0381,2.959,2.959c0.9204,1.0518,1.9067,2.0381,2.959,2.9756
		c0.9531,1.0684,1.9394,2.0547,2.9917,2.9746c0.9204,1.0684,1.9067,2.0547,2.9917,2.9922c0.9209,1.0527,1.874,2.0059,2.9258,2.9258
		c0.9209,1.0684,1.9072,2.0547,2.9922,2.9922c0.9209,1.0517,1.9072,2.0547,2.9921,2.9922c0.92,1.0517,1.8736,2.0215,2.9258,2.959
		c0.9531,1.0517,1.9068,2.0214,2.959,2.9589c0.9531,1.0518,1.9395,2.0547,3.0244,2.9912c0.9209,1.0518,1.874,2.0225,2.9263,2.9424
		c0.9536,1.0684,1.9399,2.0547,2.9917,3.0088c0.9536,1.0352,1.9072,2.0049,2.959,2.9424c0.9536,1.0684,1.9399,2.0547,2.9922,2.9756
		c0.9204,1.0517,1.9067,2.0381,2.9589,2.959c0.9205,1.0517,1.9068,2.0381,2.959,2.9756c0.9204,1.0683,1.9395,2.0546,2.9917,2.9746
		c0.9204,1.0527,1.9068,2.039,2.9585,2.9756c0.9209,1.0517,1.9073,2.038,2.959,2.9755c0.9541,1.0518,1.9404,2.0381,2.9922,2.959
		c0.9209,1.0518,1.9072,2.0381,2.959,2.959c0.9204,1.0684,1.9067,2.0714,2.9917,2.9922c0.9204,1.0518,1.9067,2.0381,2.9262,2.959
		c0.9532,1.0517,1.9395,2.0547,3.0245,2.9912c0.9209,1.0517,1.874,2.0225,2.9262,2.9424c0.9536,1.0683,1.94,2.0547,3.0249,3.0088
		c0.9204,1.0351,1.8741,2.0048,2.9258,2.9257c0.9209,1.0684,1.9072,2.0547,2.959,2.9922c0.9536,1.0518,1.9399,2.0381,2.9922,2.9756
		c0.9204,1.0518,1.9067,2.0215,2.959,2.959c0.9531,1.0518,1.9067,2.0381,2.9912,2.9745c0.9209,1.0527,1.9072,2.0391,2.959,2.959
		c0.9209,1.0527,1.9072,2.0391,2.959,2.9756c0.9541,1.0683,1.9404,2.0547,2.9921,2.9756c0.9209,1.0683,1.9073,2.0381,2.959,2.9756
		c0.9209,1.0517,1.9073,2.0214,2.959,2.9589c0.9531,1.0684,1.9395,2.0547,2.9922,2.9912c0.9199,1.0362,1.9062,2.0225,2.959,2.9434
		c0.9199,1.0684,1.9062,2.0547,2.9912,2.9912c0.9209,1.0518,1.9072,2.0381,2.959,2.959c0.9209,1.0684,1.9072,2.0547,2.959,2.9922
		c0.9531,1.0517,1.9394,2.0381,2.9921,2.959c0.92,1.0517,1.8741,2.0215,2.9258,2.9424c0.9532,1.0683,1.9395,2.0712,3.0244,3.0078
		c0.9209,1.0527,1.9073,2.039,2.959,2.959c0.9209,1.0527,1.9073,2.0224,2.9268,2.9589c0.9531,1.0528,1.9394,2.0391,2.9912,2.9922
		c0.9541,1.0518,1.9404,2.0381,2.9922,2.959c0.9209,1.0518,1.9072,2.0381,2.959,2.9756c0.9209,1.0518,1.9072,2.0215,2.959,2.959
		c0.9531,1.0517,1.9072,2.0381,2.9589,2.9756c0.9532,1.0517,1.9395,2.0381,2.9922,2.959c0.9199,1.0683,1.9063,2.0546,2.9912,2.9912
		c0.9209,1.0517,1.9073,2.038,2.959,2.9589c0.9209,1.0518,1.9072,2.0381,2.959,2.9756c0.9531,1.0518,1.9395,2.0381,2.9922,2.9756
		c0.9199,1.0518,1.9062,2.0381,2.959,2.959c0.9199,1.0518,1.9062,2.0381,2.959,2.9756c0.9199,1.0517,1.9062,2.0381,2.9589,2.9746
		c0.9532,1.0527,1.9395,2.0391,2.9913,2.959c0.9209,1.0683,1.9072,2.039,2.9589,2.9756c0.9209,1.0517,1.9073,2.0224,2.959,2.959
		c0.9541,1.0683,1.9405,2.0546,2.9922,3.0087c0.9531,1.0518,1.9072,2.0215,2.959,2.9424c0.9531,1.0684,1.9394,2.0381,2.9922,2.9756
		c0.9199,1.0518,1.9062,2.0381,2.959,2.9746c0.9199,1.0528,1.9062,2.0391,2.958,2.9756c0.9541,1.0518,1.9404,2.0225,2.9922,2.959
		c0.9209,1.0517,1.9072,2.0381,2.9589,2.9756c0.9209,1.0351,1.9073,2.0215,2.959,2.9424c0.9532,1.0849,1.9395,2.0712,2.9922,3.0087
		c0.9199,1.0518,1.9063,2.0215,2.959,2.9424c0.9199,1.0684,1.9063,2.0547,2.959,2.9912c0.9531,1.0528,1.9394,2.0391,2.9912,2.959
		c0.9209,1.0528,1.9072,2.0391,2.959,2.9756c0.9209,1.0518,1.9072,2.0381,2.959,2.9756c0.0332,0.0332,0.0986,0.0654,0.1318,0.0986
		c263.3477-10.0273,474.9463-221.6259,484.9736-484.9736c-0.3613-0.3613-0.6904-0.7227-1.0517-1.0684
		C1007.4932,522.3882,1006.5068,521.4018,1005.4219,520.4487z"/>
</g>
<g id="psd-photoshop-file-psd-photoshop-file">
	<path fill="#5D9CEC" d="M437.6631,235.6811h269.3311c18.6093,0,33.6669,15.0909,33.6669,33.6666v471.3129
		c0,18.6085-15.0576,33.6661-33.6669,33.6661H302.9981c-18.5762,0-33.6665-15.0576-33.6665-33.6661V404.0132L437.6631,235.6811z"/>
	<path fill="#434A54" d="M437.6631,235.6811v134.6656c0,18.6084-15.0576,33.6665-33.666,33.6665H269.3316L437.6631,235.6811z"/>
	<g>
		<path fill="#FFFFFF" d="M380.0293,549.3472v42.8398H357.377V470.4746h39.6504c8.1201,0,15.1894,0.9697,21.1064,2.877
			c5.9512,1.9067,10.8828,4.5698,14.7295,7.9887c3.8799,3.419,6.7402,7.5127,8.6143,12.2803
			c1.8408,4.7832,2.7617,9.9941,2.7617,15.666c0,5.8848-0.9864,11.293-2.959,16.1914c-1.9404,4.916-4.8994,9.1406-8.8115,12.6738
			c-3.9453,3.5352-8.8438,6.2803-14.7295,8.253c-5.917,1.956-12.7891,2.9424-20.7119,2.9424H380.0293z M380.0293,531.6753h16.9981
			c4.1425,0,7.7587-0.5254,10.8496-1.5606c3.0898-1.0361,5.6543-2.5322,7.6601-4.455c2.0381-1.9405,3.5508-4.2911,4.5371-7.0694
			c1.0186-2.7783,1.5118-5.8847,1.5118-9.3037c0-3.2558-0.4932-6.1973-1.5118-8.8437c-0.9863-2.6309-2.499-4.8828-4.5371-6.7246
			c-2.0058-1.8575-4.5703-3.2706-7.6601-4.2569c-3.0909-0.9863-6.7071-1.4795-10.8496-1.4795h-16.9981V531.6753z"/>
		<path fill="#FFFFFF" d="M527.0567,492.6177c-0.6241,1.2334-1.3145,2.1045-2.1368,2.6133
			c-0.8222,0.4931-1.7755,0.7568-2.8936,0.7568c-1.1504,0-2.3994-0.4443-3.8135-1.3154c-1.3809-0.8545-3.0576-1.8252-4.9648-2.8936
			c-1.9063-1.0684-4.1426-2.0381-6.6739-2.9092c-2.5644-0.872-5.5888-1.2988-9.041-1.2988c-3.1562,0-5.8847,0.3779-8.2197,1.1338
			c-2.334,0.7568-4.3067,1.8086-5.8848,3.1562c-1.6113,1.3487-2.7949,2.959-3.584,4.834c-0.789,1.8897-1.1836,3.9453-1.1836,6.1973
			c0,2.8594,0.7891,5.2441,2.4004,7.1504c1.6114,1.9062,3.7149,3.5342,6.3457,4.8828c2.6631,1.3476,5.6543,2.5469,9.0079,3.6152
			c3.3867,1.0694,6.8056,2.2031,10.3232,3.4033c3.5185,1.2168,6.9375,2.6143,10.291,4.208
			c3.3867,1.6114,6.3779,3.6329,9.0088,6.0665c2.6631,2.4326,4.7666,5.4248,6.3779,8.9589
			c1.5782,3.5342,2.4004,7.8243,2.4004,12.8887c0,5.4902-0.9541,10.6348-2.8281,15.4356c-1.874,4.7998-4.6357,8.9746-8.252,12.5429
			c-3.6161,3.5664-8.0224,6.3614-13.25,8.416c-5.2275,2.0547-11.2109,3.0743-17.9179,3.0743c-3.8789,0-7.6934-0.3789-11.4737-1.1348
			c-3.748-0.7559-7.3652-1.8408-10.8173-3.2383c-3.4522-1.414-6.6739-3.0898-9.6661-5.0625
			c-2.9912-1.957-5.6875-4.1426-8.0214-6.5596l6.5419-10.8496c0.625-0.789,1.3809-1.4463,2.2364-1.9892
			c0.8545-0.5254,1.8408-0.7891,2.8926-0.7891c1.414,0,2.9267,0.5762,4.5703,1.7266c1.6113,1.1504,3.5507,2.416,5.7539,3.8301
			c2.2021,1.3974,4.833,2.6796,7.8242,3.83c2.9922,1.1504,6.6084,1.7266,10.8174,1.7266c6.4433,0,11.4404-1.5293,14.9912-4.6035
			c3.5185-3.0567,5.2939-7.4463,5.2939-13.167c0-3.1885-0.789-5.8027-2.4004-7.8252c-1.6113-2.0215-3.7148-3.7149-6.3457-5.0957
			c-2.663-1.3643-5.6543-2.5313-9.0078-3.4844c-3.3867-0.9541-6.8056-1.9902-10.291-3.124
			c-3.4521-1.1182-6.8711-2.4658-10.2578-4.0274c-3.3535-1.5781-6.3779-3.6328-9.0078-6.1474
			c-2.6309-2.5322-4.7344-5.6885-6.3457-9.4688c-1.6113-3.7978-2.4004-8.4668-2.4004-14.0234c0-4.4219,0.8877-8.7441,2.6631-12.9531
			c1.7431-4.208,4.3398-7.9395,7.7265-11.1948c3.3868-3.2549,7.5616-5.8682,12.4932-7.8248
			c4.9316-1.9726,10.5869-2.9423,16.9316-2.9423c7.168,0,13.8086,1.1176,19.8584,3.3535c6.0498,2.2519,11.211,5.3916,15.4854,9.4355
			L527.0567,492.6177z"/>
		<path fill="#FFFFFF" d="M660.21,531.3306c0,8.9267-1.4795,17.1123-4.4706,24.5752c-2.959,7.4638-7.1348,13.8906-12.5264,19.2832
			c-5.3926,5.375-11.8691,9.5673-19.4307,12.5429c-7.5947,2.9746-15.9785,4.4551-25.1845,4.4551h-46.4551V470.4746h46.4551
			c9.206,0,17.5898,1.5122,25.1845,4.5039c7.5616,3.0083,14.0381,7.1841,19.4307,12.5425
			c5.3916,5.3594,9.5674,11.7705,12.5264,19.2344C658.7305,514.2183,660.21,522.4214,660.21,531.3306z M637.0645,531.3306
			c0-6.6748-0.8877-12.6573-2.6963-17.9678c-1.7755-5.293-4.3399-9.7813-7.6602-13.4629c-3.2881-3.6826-7.332-6.4932-12.0654-8.4658
			c-4.7344-1.9561-10.0938-2.9424-16.0449-2.9424H574.959v85.6777h23.6387c5.951,0,11.3105-0.9697,16.0449-2.9424
			c4.7334-1.956,8.7773-4.7841,12.0654-8.4492c3.3203-3.6826,5.8848-8.1709,7.6602-13.4795
			C636.1768,544.0054,637.0645,538.0044,637.0645,531.3306z"/>
	</g>
	<polygon opacity="0.2" fill="#32383F" points="403.9971,404.0132 269.3316,538.6616 269.3316,404.0132 	"/>
</g>
</svg>
