<?xml version="1.0" encoding="utf-8"?>
<!-- Generator: Adobe Illustrator 17.1.0, SVG Export Plug-In . SVG Version: 6.00 Build 0)  -->
<!DOCTYPE svg PUBLIC "-//W3C//DTD SVG 1.1//EN" "http://www.w3.org/Graphics/SVG/1.1/DTD/svg11.dtd">
<svg version="1.1" id="ruler" xmlns="http://www.w3.org/2000/svg" xmlns:xlink="http://www.w3.org/1999/xlink" x="0px" y="0px"
	 viewBox="0 0 1009.9922 1009.9917" enable-background="new 0 0 1009.9922 1009.9917" xml:space="preserve">
<path id="ruler-label" fill="#FFFFFF" d="M504.9961,0C226.0977,0,0,226.0972,0,504.9956s226.0977,504.9961,504.9961,504.9961
	s504.9961-226.0977,504.9961-504.9961S783.8945,0,504.9961,0z"/>
<g id="ruler-shadow">
	<path opacity="0.1" fill="#434A54" d="M992.3535,580.2192l-2.5156-2.5146l-2.5146-2.5156l-2.5157-2.5157l-12.5918-12.5918l0,0
		l-2.5146-2.5156l-2.5156-2.5146l-2.5147-2.5147l-2.5156-2.5156l-2.5147-2.5147l-2.5156-2.5146l-22.6435-22.6367l-0.0089-0.0166
		l-2.5146-2.5147l-2.5156-2.5156l-15.0986-15.1074h-0.0078l-2.5157-2.5147l-2.5146-2.5146l-2.5156-2.5156l-2.5147-2.5157
		l-15.0908-15.0903l-5.0391-5.0298c-0.0078-0.0166-0.0078-0.0166-0.0078-0.0166l-5.0303-5.0303l-2.5156-2.5151l-22.6435-22.6362
		l-0.0088-0.0161l-2.5147-2.5152l-2.5156-2.5151l-7.5449-7.5454l-7.5536-7.562c-0.0079,0-0.0079,0-0.0079,0l-2.5156-2.5152
		l-2.5146-2.5151l-2.5157-2.5151l-2.5146-2.5147l-2.5156-2.5151l-7.5449-7.5454L686.4629,274.3447l-37.7519-37.7431
		l-10.0606-10.0606c0,0-0.0156,0-0.0244-0.0161l-2.499-2.499c-6.8789-6.9204-18.0577-6.9204-24.9698,0l-4.7675,4.7676
		l-0.0245-0.0167L593.8633,241.27l0.0254,0.0166l-24.4942,24.4937l-0.0166-0.0166l-12.5096,12.5097l0.0165,0.0166l-24.4854,24.4771
		l-0.0166-0.0161l-12.4687,12.4931h0.0088l-24.5186,24.5264l-0.0166-0.0161l-6.0908,6.1152l-79.7764,79.7769l-0.5508,0.5425
		l-34.0283,34.0278l-2.9668,2.959l-19.7265,19.726h-0.0083l-4.0025,4.0118l-32.9844,32.9922l-0.0083-0.0166l-5.2524,5.2607
		l-85.9902,85.9902c-6.8799,6.8877-6.8799,18.0498,0,24.9707l2.4824,2.4825c0.0161,0.0156,0.0161,0.0322,0.0322,0.0488
		l5.0225,5.0303c0.0078,0,0.0078,0,0.0078,0l29.6552,29.6386l10.5948,10.5869c0.0088,0.0166,0.0088,0.0332,0.0166,0.0332
		l2.5156,2.5147l20.1289,20.1211l0.0078,0.0166l2.5157,2.5146l6.2876,6.2803l13.8335,13.8408c0.0078,0,0.0078,0.0166,0.0078,0.0166
		l5.0385,5.0303l5.0303,5.0303l2.5151,2.5146l2.5147,2.5157l22.6367,22.6357c0.0078,0,0.0078,0.0166,0.0078,0.0166l2.5235,2.5146
		l2.5151,2.5157l2.5151,2.5146l2.5152,2.5156l12.5835,12.5752c0,0.0166,0.0088,0.0166,0.0088,0.0166l2.5146,2.5147l3.3535,3.3535
		l26.8282,26.8281c0.0078,0,0.0078,0.0166,0.0078,0.0166l5.039,5.0303l20.1211,20.1212l0.0156,0.0166l2.5157,2.5146l2.5146,2.5156
		l2.5156,2.5146l2.5147,2.5147l2.5156,2.5156l12.584,12.5762c0,0.0156,0.0078,0.0156,0.0078,0.0156l5.0303,5.0303l5.0303,5.0302
		l2.5146,2.5157l2.5156,2.5146l2.5147,2.5147l2.5156,2.5156l12.584,12.5762c0,0.0156,0.0078,0.0156,0.0078,0.0156l2.5147,2.5156
		l2.5156,2.5147l17.6142,17.6064l0.0078,0.0156l5.0303,5.0313l5.0303,5.0293l5.0303,5.0302l20.1289,20.1211l2.5068,2.5157
		c0,0,0.0088,0.0166,0.0166,0.0166l2.5156,2.5146l2.5147,2.5147l2.5156,2.5156l2.5147,2.5156l12.5839,12.5752
		c0,0.0166,0.0079,0.0166,0.0079,0.0166l2.5156,2.5147l2.5146,2.5146l9.1651,9.1572
		c210.3408-35.9023,376.2236-201.7851,412.1093-412.1338l-7.7596-7.7597L992.3535,580.2192z"/>
</g>
<g id="ruler-ruler">
	<path fill="#FFCE54" d="M636.127,224.0259l149.8632,149.8388c6.9131,6.8877,6.9131,18.066,0,24.9703L398.835,785.9819
		c-6.9121,6.9043-18.0244,6.8877-24.9375-0.0166L224.002,636.1108c-6.8799-6.9209-6.8799-18.083,0-24.9707l387.1552-387.1142
		C618.0693,217.1055,629.2481,217.1055,636.127,224.0259z M326.7022,683.2895c12.2636,12.2471,32.1377,12.2471,44.4013-0.0166
		c12.2627-12.2304,12.2627-32.1211,0.0323-44.3847c-12.2627-12.2627-32.1373-12.2627-44.4004,0
		C314.4395,651.1685,314.4395,671.0268,326.7022,683.2895z"/>
	<g opacity="0.1">
		<path fill="#32383F" d="M656.8486,279.2764c3.1065,3.1235,2.8272,8.3671-0.6328,11.8525
			c-3.4199,3.4683-8.7296,3.7642-11.8447,0.6411l-50.5078-50.5l12.5019-12.4932L656.8486,279.2764z"/>
		<path fill="#32383F" d="M545.2705,402.1226c-3.4599,3.4194-8.7285,3.7153-11.8437,0.6245l-50.4746-50.4995l12.4355-12.4932
			l50.4746,50.4829C549.0108,393.3774,548.6983,398.6704,545.2705,402.1226z"/>
		<path fill="#32383F" d="M434.294,513.0679c-3.461,3.4179-8.7705,3.7148-11.8448,0.624l-50.4746-50.5161l12.5098-12.4771
			l50.4336,50.5332C438.0332,504.3052,437.7539,509.5815,434.294,513.0679z"/>
		<path fill="#32383F" d="M596.7647,305.6934c-3.4268,3.4028-8.7364,3.6987-11.8438,0.6245l-28.0527-28.0445l12.5096-12.5097
			l28.0118,28.0444C600.5381,296.9477,600.2578,302.2246,596.7647,305.6934z"/>
		<path fill="#32383F" d="M559.836,342.6641c-3.4522,3.4682-8.7618,3.748-11.836,0.6411l-28.0859-28.0611l12.4687-12.4931
			l28.086,28.0605C563.5752,333.9185,563.2627,339.2119,559.836,342.6641z"/>
		<path fill="#32383F" d="M485.8535,416.6543c-3.4609,3.4521-8.7373,3.7314-11.8437,0.6411l-28.0528-28.0771l12.4766-12.4771
			l28.044,28.0772C489.5928,407.9092,489.3135,413.2021,485.8535,416.6543z"/>
		<path fill="#32383F" d="M448.8584,453.6416c-3.4609,3.4517-8.7705,3.7314-11.8769,0.6406l-28.0118-28.0932l12.502-12.4278
			l28.0195,28.0113C452.5977,444.896,452.3184,450.1894,448.8584,453.6416z"/>
		<path fill="#32383F" d="M328.1328,619.228c-3.4521,3.4688-8.7617,3.7481-11.8032,0.625l-50.5161-50.5156l12.477-12.4609
			l50.5079,50.5C331.8721,610.4663,331.5928,615.7759,328.1328,619.228z"/>
		<path fill="#32383F" d="M379.6597,522.7983c-3.4605,3.4688-8.7373,3.7657-11.8443,0.625l-28.0439-28.0117l12.4683-12.5098
			l28.0854,28.0782C383.4321,514.0366,383.1528,519.3472,379.6597,522.7983z"/>
		<path fill="#32383F" d="M342.7051,559.769c-3.4932,3.4356-8.7695,3.7325-11.877,0.6416l-28.0195-28.0439l12.436-12.4775
			l28.0855,28.0439C346.4043,551.0239,346.125,556.3179,342.7051,559.769z"/>
		<path fill="#32383F" d="M268.7149,633.7768c-3.419,3.4512-8.7286,3.7149-11.8438,0.6407l-28.0444-28.0606l12.4682-12.4941
			l28.086,28.0449C272.4551,624.9976,272.1753,630.3237,268.7149,633.7768z"/>
	</g>
</g>
</svg>
