<?xml version="1.0" encoding="utf-8"?>
<!-- Generator: Adobe Illustrator 17.1.0, SVG Export Plug-In . SVG Version: 6.00 Build 0)  -->
<!DOCTYPE svg PUBLIC "-//W3C//DTD SVG 1.1//EN" "http://www.w3.org/Graphics/SVG/1.1/DTD/svg11.dtd">
<svg version="1.1" id="scale-tool" xmlns="http://www.w3.org/2000/svg" xmlns:xlink="http://www.w3.org/1999/xlink" x="0px" y="0px"
	 viewBox="0 0 1009.9922 1009.9917" enable-background="new 0 0 1009.9922 1009.9917" xml:space="preserve">
<path id="scale-tool-label" fill="#656D78" d="M504.9961,0C226.0977,0,0,226.0972,0,504.9956s226.0977,504.9961,504.9961,504.9961
	s504.9961-226.0977,504.9961-504.9961S783.8945,0,504.9961,0z"/>
<g id="scale-tool-shadow" opacity="0.3">
	<path fill="#434A54" d="M999.0772,582.981c-1.2666-1.4307-2.5977-2.7618-4.0274-4.0439c-1.2666-1.4141-2.5976-2.7617-4.0283-4.0117
		c-1.2656-1.4297-2.5967-2.7617-4.0107-4.0274c-1.2823-1.4296-2.6133-2.7617-4.0274-4.0273
		c-1.2822-1.4464-2.6299-2.7773-4.0605-4.043c-1.2656-1.414-2.5811-2.7617-3.9941-4.0117
		c-1.2822-1.4473-2.6309-2.7949-4.0605-4.0762c-1.2822-1.414-2.6143-2.7617-4.044-4.0273c-1.2656-1.3984-2.581-2.7295-3.9951-3.9951
		c-1.2822-1.4307-2.6299-2.7617-4.0596-4.044c-1.2666-1.414-2.581-2.7461-3.9951-4.0117c-1.2822-1.4297-2.6133-2.7617-4.0439-4.043
		c-1.2656-1.414-2.5967-2.7617-4.0108-4.0117c-1.2822-1.4297-2.6142-2.7617-4.0439-4.0429
		c-1.2656-1.4141-2.5977-2.7618-4.0273-4.0284c-1.2657-1.4306-2.6143-2.7783-4.044-4.0595
		c-1.2822-1.4141-2.6143-2.7461-4.0439-4.0118c-1.2491-1.414-2.5645-2.7285-3.962-3.9785
		c-1.2988-1.4463-2.6464-2.7939-4.0927-4.0927c-1.2666-1.4307-2.6143-2.7452-4.0283-4.0274
		c-1.2657-1.414-2.5967-2.7295-4.0108-4.0107c-1.2656-1.4141-2.5967-2.7295-4.0107-4.0117
		c-1.2657-1.4141-2.6143-2.7618-4.0273-4.043c-1.2822-1.4141-2.6143-2.7617-4.0439-4.0283
		c-1.2656-1.4307-2.5977-2.7618-4.0274-4.0274c-1.2822-1.4468-2.6308-2.7944-4.0771-4.0766
		c-1.2656-1.4141-2.5811-2.729-3.9785-3.9786c-1.2823-1.4135-2.6133-2.7612-4.0273-4.0273
		c-1.2822-1.4302-2.6299-2.7778-4.0605-4.0601c-1.2656-1.414-2.5801-2.729-3.9942-3.9785c-1.2822-1.4463-2.6132-2.7944-4.0439-4.06
		c-1.2656-1.4141-2.5977-2.7456-4.0107-4.0113c-1.2823-1.4301-2.6143-2.7778-4.044-4.06c-1.2822-1.4141-2.6143-2.7617-4.0273-4.0112
		c-1.2823-1.4302-2.6143-2.7618-4.044-4.044c-1.2666-1.4136-2.5976-2.7451-4.0273-4.0112c-1.2666-1.4463-2.6143-2.7617-4.044-4.0435
		c-1.2665-1.4302-2.5976-2.7617-4.0283-4.0439c-1.2656-1.4141-2.5801-2.729-3.9941-3.9947
		c-1.2823-1.4301-2.6143-2.7456-4.0273-4.0278c-1.2822-1.4302-2.6142-2.7617-4.0439-4.0439
		c-1.2656-1.4136-2.6143-2.7618-4.0274-4.0274c-1.2656-1.4136-2.5976-2.7451-4.0117-4.0107
		c-1.2822-1.4302-2.6133-2.7783-4.0439-4.0606c-1.2823-1.4135-2.6133-2.7617-4.0273-4.0112
		c-1.2822-1.4463-2.6299-2.7944-4.0761-4.0767c-1.2657-1.4135-2.5811-2.729-3.9952-3.978
		c-1.2656-1.4136-2.5966-2.7617-4.0107-4.0273c-1.2822-1.4302-2.6299-2.7783-4.0439-4.0606
		c-1.2657-1.4135-2.5977-2.729-4.0108-3.9946c-1.2822-1.4302-2.6309-2.7783-4.0605-4.0606
		c-1.2657-1.4135-2.5811-2.7285-4.0108-4.0107c-1.2666-1.4136-2.5976-2.7617-4.0283-4.0273
		c-1.2656-1.4302-2.5967-2.7456-4.0107-4.0279c-1.2823-1.4301-2.6299-2.7617-4.0606-4.0439
		c-1.2822-1.4302-2.6133-2.7617-4.0439-4.044c-1.2657-1.4135-2.5967-2.7285-4.0108-4.0107
		c-1.2656-1.4136-2.5976-2.7451-4.0107-4.0112c-1.2822-1.4136-2.6143-2.7618-4.044-4.044
		c-9.2548-10.3564-22.5536-16.9975-37.5293-16.9975c-21.9629,0-40.4726,14.0879-47.4091,33.6665h-55.7442v-2.1534h-4.0273v-4.0278
		h-4.0273v-4.0273h-4.0273v-4.0274h-4.0274v-4.0439h-4.0273v-4.0112h-4.0283v-4.0274h-4.043v-4.0273h-4.0117v-4.044h-4.044v-4.0112
		h-4.0273v-4.044h-4.0273v-4.0273h-4.0274v-4.0273h-134.666v50.4995h-97.2588c-0.2881-0.2632-0.6006-0.4932-0.8965-0.7564
		c-1.2822-1.4302-2.6216-2.7778-4.06-4.0439c-1.2574-1.4136-2.5728-2.7285-3.9781-3.9781
		c-1.2822-1.4462-2.6303-2.7944-4.0605-4.0766c-1.2739-1.4136-2.5972-2.7617-4.0195-4.0112
		c-9.189-10.2579-22.3565-16.8003-37.2251-16.8003c-27.896,0-50.4995,22.6035-50.4995,50.4995
		c0,14.9761,6.6411,28.2749,16.9975,37.5298c1.2739,1.4301,2.6138,2.7778,4.044,4.0439c1.2661,1.4136,2.5893,2.7451,4.0024,3.9946
		c1.2744,1.4463,2.6142,2.7779,4.0361,4.044c1.274,1.4302,2.6055,2.7617,4.0357,4.0439c1.2739,1.4136,2.6137,2.7613,4.0439,4.0435
		c1.2656,1.414,2.5894,2.729,3.9946,3.9785c1.274,1.4463,2.6055,2.7778,4.0357,4.0439c1.2739,1.4463,2.6138,2.7779,4.0522,4.044
		c1.2657,1.4302,2.5889,2.7617,4.0108,4.0107c1.2744,1.4468,2.6138,2.7784,4.0361,4.044c1.2735,1.4302,2.6055,2.7617,4.0274,4.0439
		c1.2739,1.4136,2.6132,2.7617,4.0351,4.0113c1.2661,1.4301,2.5977,2.7617,4.0195,4.0273c0.5752,0.6411,1.0357,1.3809,1.6441,1.9893
		c-23.5733,36.625-37.3486,80.122-37.3486,126.9384h-33.6665v101h4.0273v4.0274h4.0361v4.0273h4.0274v4.0274h4.0273v4.0273h4.0273
		v4.0449h4.0361v4.0108h4.0186v4.0439h4.0278v4.0274h4.0356v4.0273h4.0274v4.0273h4.0273v4.0274h4.0361v4.0439h4.0274v4.0107h4.0273
		v4.0449h4.0274v4.0107h4.0361v4.0439h4.0274v4.0107h4.0273v4.044h4.0273v4.0273h4.0274v4.0274h4.0278v4.0273h4.0357v4.0274h4.0273
		v4.0449h4.0273v4.0107h4.0279v4.044h4.0356v4.0273h4.0274v4.0273h4.0273v4.0274h4.0274v4.0273h4.0278v4.044h4.0273v4.0107h4.0357
		v4.0449h4.0273v4.0108h4.0279v4.0439h4.0273v4.0108h4.0356v4.0439h4.0274v4.0274h4.0278v4.0273h4.0357v4.0274h4.0273v4.0273h4.0195
		v4.0449h4.044v4.0108h4.0273v4.0439h4.0196v4.0273h4.0273v4.0274h4.0352v4.0107h4.0273v4.044h4.0283v4.0439h4.0352v4.0108h4.0273
		v4.0449h4.0196v4.0107h4.0439v4.044h4.0273v4.0107h4.0274v4.044h4.0273v4.0273h4.0274v4.0274h4.0283v4.0273h4.0273v4.0273h4.0352
		v4.045h4.0273v4.0107h4.0284v4.0439h4.0351v4.0108h4.0274v4.0439h4.0273v4.0118h4.0273v4.0429h4.0284v4.044h4.0273v4.0117h4.0274
		v4.0439h4.0273v4.0108h4.0439v4.0439h4.0108v4.0108h4.0439v4.0439h4.0274v4.0274h4.0283v4.0273h4.0273v4.0273h4.0273v4.0284h4.0273
		v3.4023c232.3271-18.6572,420.2383-194.4199,457.3232-421.0762c-0.0489-0.0498-0.0987-0.0986-0.1641-0.165
		C1001.8057,585.5454,1000.4902,584.23,999.0772,582.981z"/>
</g>
<g id="scale-tool-scale-tool">
	<g>
		<path fill="#5D9CEC" d="M269.3316,597.5776h-33.6665v101h100.999v-101h-33.666c0-87.9131,56.2695-162.4956,134.665-190.2602
			v-11.7373h-53.6064C315.4258,436.7754,269.3316,511.7026,269.3316,597.5776z M302.9981,664.9116h-33.6665v-33.667h33.6665
			V664.9116z"/>
		<path fill="#5D9CEC" d="M740.6611,597.5776c0-85.875-46.0937-160.8022-114.7255-201.9975h-53.6065v11.7373
			c78.3955,27.7646,134.6651,102.3471,134.6651,190.2602h-33.6661v101h100.9991v-101H740.6611z M740.6611,664.9116h-33.6669v-33.667
			h33.6669V664.9116z"/>
	</g>
	<path fill="#434854" d="M723.8281,328.2471c-21.9629,0-40.4726,14.0879-47.4091,33.6665H572.3291v-50.4995h-134.666v50.4995
		H333.5737c-6.9536-19.5786-25.4467-33.6665-47.4091-33.6665c-27.896,0-50.4995,22.6035-50.4995,50.4995
		c0,27.8965,22.6035,50.5,50.4995,50.5c21.9624,0,40.4555-14.0884,47.4091-33.6665h50.483h53.6064v11.7373v38.7622h134.666v-38.7622
		v-11.7373h53.6065h50.4834c6.9365,19.5781,25.4462,33.6665,47.4091,33.6665c27.8799,0,50.4991-22.6035,50.4991-50.5
		C774.3272,350.8506,751.708,328.2471,723.8281,328.2471z M286.1646,395.5801c-9.3042,0-16.833-7.5288-16.833-16.8335
		c0-9.3042,7.5288-16.833,16.833-16.833s16.8335,7.5288,16.8335,16.833C302.9981,388.0513,295.4688,395.5801,286.1646,395.5801z
		 M538.6621,398.6045v13.8086h-67.332v-13.8086v-34.0112v-19.5127h67.332v19.5127V398.6045z M723.8281,395.5801
		c-9.3046,0-16.8339-7.5288-16.8339-16.8335c0-9.3042,7.5293-16.833,16.8339-16.833c9.3037,0,16.833,7.5288,16.833,16.833
		C740.6611,388.0513,733.1318,395.5801,723.8281,395.5801z"/>
</g>
</svg>
