<?xml version="1.0" encoding="utf-8"?>
<!-- Generator: Adobe Illustrator 17.1.0, SVG Export Plug-In . SVG Version: 6.00 Build 0)  -->
<!DOCTYPE svg PUBLIC "-//W3C//DTD SVG 1.1//EN" "http://www.w3.org/Graphics/SVG/1.1/DTD/svg11.dtd">
<svg version="1.1" id="scissor" xmlns="http://www.w3.org/2000/svg" xmlns:xlink="http://www.w3.org/1999/xlink" x="0px" y="0px"
	 viewBox="0 0 1009.9922 1009.9917" enable-background="new 0 0 1009.9922 1009.9917" xml:space="preserve">
<path id="scissor-label" fill="#656D78" d="M504.9961,0C226.0977,0,0,226.0972,0,504.9956s226.0977,504.9961,504.9961,504.9961
	s504.9961-226.0977,504.9961-504.9961S783.8945,0,504.9961,0z"/>
<g id="scissor-shadow">
	<path opacity="0.3" fill="#434A54" d="M1000.0791,578.4761c-0.8545-0.9864-1.6767-1.8409-2.5146-2.5313
		c-0.8545-0.9697-1.6768-1.8242-2.5146-2.498c-0.8555-0.9864-1.6933-1.8418-2.5322-2.5313
		c-0.8379-0.9863-1.6768-1.8252-2.5147-2.5156c-0.8388-0.9707-1.6767-1.8242-2.499-2.5156c-0.838-0.9698-1.6767-1.8086-2.499-2.4981
		c-0.8711-1.0029-1.7256-1.875-2.5801-2.5644c-0.8388-0.9864-1.6767-1.8252-2.5156-2.5157
		c-0.8223-0.9531-1.6436-1.7753-2.4492-2.4492c-0.8545-1.0029-1.71-1.8574-2.5479-2.5478
		c-0.8546-0.9864-1.6768-1.8408-2.5156-2.5147c-0.8545-0.9863-1.6924-1.8418-2.5313-2.5322
		c-0.8378-0.9697-1.6601-1.8076-2.4824-2.499c-0.8546-0.9864-1.6934-1.8408-2.5312-2.5313
		c-0.8545-0.9697-1.6768-1.8242-2.5156-2.498c-0.8545-0.9863-1.6924-1.8418-2.5313-2.5322
		c-0.8545-0.9864-1.6768-1.8409-2.5146-2.5146c-0.8555-0.9863-1.6768-1.8418-2.5157-2.5156
		c-0.8545-1.002-1.709-1.8574-2.5478-2.5479c-0.8223-0.9531-1.6436-1.7754-2.4492-2.4492c-0.8545-1.0029-1.71-1.8574-2.5479-2.5479
		c-0.8555-0.9864-1.6768-1.8418-2.5156-2.5157c-0.8545-0.9863-1.6768-1.8408-2.5146-2.5146
		c-0.8554-0.9863-1.6768-1.8408-2.5156-2.5147c-0.8545-0.9863-1.6934-1.8418-2.5312-2.5322
		c-0.838-0.9697-1.6602-1.8253-2.4991-2.499c-0.8545-0.9863-1.6923-1.8408-2.5312-2.5313
		c-0.8379-0.9697-1.6768-1.8242-2.5147-2.5156c-0.8554-0.9863-1.6933-1.8398-2.5322-2.5312
		c-0.8213-0.9698-1.6435-1.7911-2.4658-2.4825c-0.8711-1.0019-1.7256-1.873-2.5811-2.5644c-0.8379-0.9688-1.66-1.8076-2.4814-2.4824
		c-0.8555-0.9864-1.6768-1.8399-2.5156-2.5147c-0.8546-0.9863-1.6768-1.8408-2.5147-2.5146
		c-0.8555-0.9864-1.6767-1.8418-2.5156-2.5157c-0.8545-0.9863-1.6768-1.8408-2.5147-2.5312
		c-0.8554-0.9697-1.6767-1.8242-2.5156-2.4981c-0.8545-0.9863-1.6933-1.8418-2.5312-2.5322
		c-0.8389-0.9697-1.6602-1.8076-2.4825-2.4985c-0.871-1.0029-1.7255-1.874-2.581-2.5645c-0.8379-0.9702-1.6602-1.8086-2.4824-2.4824
		c-0.8379-0.9863-1.6758-1.8408-2.5146-2.5312c-0.8545-0.9703-1.6767-1.8247-2.5146-2.4991
		c-0.8555-0.9863-1.6768-1.8408-2.5157-2.5151c-0.8544-0.9863-1.6767-1.8408-2.5146-2.5151
		c-0.8555-0.9864-1.6768-1.8247-2.5156-2.5152c-0.8545-1.0024-1.71-1.8574-2.5479-2.5478c-0.8388-0.9536-1.6435-1.792-2.4492-2.4492
		c-0.8555-0.9864-1.6934-1.858-2.5322-2.5484c-0.8545-1.0024-1.709-1.8574-2.5635-2.5639
		c-0.8389-0.9703-1.6611-1.8086-2.4824-2.4825c-0.8555-0.9863-1.6934-1.8413-2.5322-2.5151
		c-0.8545-0.9863-1.6768-1.8413-2.5147-2.5151c-0.8545-0.9864-1.6768-1.8414-2.5156-2.5152
		c-0.8545-0.9863-1.6768-1.8413-2.5147-2.5151c-0.8545-0.9863-1.6767-1.8413-2.5156-2.5152
		c-0.8545-0.9863-1.6768-1.8413-2.5146-2.5151c-0.8545-1.0024-1.71-1.8574-2.5479-2.5478c-0.8223-0.9537-1.6436-1.792-2.4492-2.4493
		c-0.8711-1.0029-1.71-1.874-2.5645-2.5644c-0.8388-0.9702-1.6602-1.8086-2.4824-2.499c-0.8545-0.9864-1.71-1.8409-2.5478-2.5313
		c-0.8389-0.9863-1.6768-1.8413-2.5157-2.5317c-0.8545-0.9698-1.6767-1.8247-2.5146-2.4986
		c-0.8555-0.9863-1.6768-1.8413-2.5156-2.5151c-0.8545-0.9863-1.6768-1.8413-2.5147-2.5151
		c-0.8545-0.9864-1.6767-1.8413-2.5156-2.5152c-0.8545-0.9863-1.6768-1.8413-2.5147-2.5151
		c-0.8545-0.9863-1.6767-1.8413-2.5156-2.5151c-0.8545-0.9864-1.6767-1.8414-2.5146-2.5152
		c-0.8546-1.0029-1.6934-1.8574-2.5479-2.5317c-0.8223-0.9697-1.6445-1.8081-2.4658-2.482
		c-0.8555-1.0029-1.6934-1.8579-2.5313-2.5483c-0.8554-0.9858-1.6933-1.8408-2.5322-2.5312
		c-0.8545-0.9698-1.6767-1.8248-2.5146-2.4986c-0.8555-0.9863-1.6768-1.8413-2.5157-2.5151
		c-0.8544-0.9863-1.6767-1.8413-2.5146-2.5152c-0.8555-0.9863-1.6768-1.8413-2.5156-2.5151
		c-0.8546-0.9863-1.6768-1.8413-2.5147-2.5151c-0.8554-0.9864-1.6767-1.8413-2.5156-2.5152
		c-0.8545-0.9863-1.6768-1.8413-2.5147-2.5151c-0.8544-1.0029-1.7099-1.8574-2.5478-2.5479
		c-0.8389-0.9702-1.6602-1.8085-2.499-2.4824c-0.8223-0.9536-1.6436-1.8081-2.4492-2.4824
		c-0.8711-1.0024-1.7266-1.874-2.5645-2.5806c-0.8711-0.9863-1.71-1.8413-2.5645-2.5317c-0.8388-0.9697-1.6601-1.8081-2.4824-2.4824
		c-0.8546-0.9863-1.6767-1.8408-2.5146-2.5152c-0.8555-0.9863-1.6768-1.8408-2.5156-2.5151
		c-0.8545-0.9858-1.6768-1.8408-2.5147-2.5146c-0.8555-0.9864-1.6768-1.8414-2.5156-2.5152
		c-0.8545-0.9863-1.6768-1.8413-2.5146-2.5151c-0.8554-0.9863-1.6768-1.8413-2.5156-2.5152
		c-0.8545-1.0029-1.709-1.8579-2.5478-2.5483c-0.8379-0.9697-1.6768-1.8081-2.4991-2.4985
		c-0.8379-0.9536-1.6436-1.792-2.4658-2.4658c-0.8545-1.003-1.709-1.8741-2.5635-2.5645c-0.8387-0.9863-1.6767-1.8408-2.5156-2.5151
		c-0.8545-0.9864-1.6767-1.8409-2.5146-2.5152c-0.8555-0.9863-1.6768-1.8408-2.5157-2.5151
		c-0.8545-0.9863-1.6766-1.8408-2.5146-2.5151c-0.8555-0.9864-1.6768-1.8409-2.5156-2.5152
		c-0.8545-0.9863-1.6768-1.8408-2.5147-2.5151c-0.8555-0.9863-1.6767-1.8408-2.5156-2.5152
		c-0.8379-0.9863-1.6768-1.8408-2.5147-2.5312c-0.8711-0.9863-1.7099-1.8413-2.5644-2.5317
		c-0.8389-0.9698-1.6602-1.8082-2.4824-2.482c-0.8389-0.9702-1.6602-1.8247-2.4991-2.499
		c-0.8545-1.0024-1.6933-1.8574-2.5312-2.5479c-0.8545-0.9863-1.6768-1.8413-2.5156-2.5151
		c-0.8546-0.9863-1.6768-1.8413-2.5147-2.5151c-0.8545-0.9864-1.6767-1.8413-2.5156-2.5152
		c-0.8545-0.9863-1.6768-1.8413-2.5147-2.5151c-0.8544-0.9863-1.6767-1.8408-2.5146-2.5151
		c-0.8389-0.9698-1.6611-1.8247-2.4824-2.4986c-0.8711-1.019-1.7432-1.8906-2.5977-2.581c-0.8379-0.9698-1.6601-1.8081-2.499-2.482
		c-0.8379-0.9863-1.6768-1.8247-2.4981-2.5151c-0.8388-0.9536-1.6601-1.8086-2.4824-2.4824
		c-0.8546-1.003-1.7099-1.8574-2.5479-2.5479c-0.8555-0.9863-1.6768-1.8413-2.5157-2.5151
		c-0.8544-0.9863-1.6767-1.8413-2.5146-2.5151c-0.8545-0.9864-1.6768-1.8414-2.5156-2.5152
		c-0.8545-0.9863-1.6768-1.8413-2.5146-2.5151c-0.8546-0.9863-1.6767-1.8413-2.5156-2.5152
		c-0.8545-0.9863-1.6768-1.8413-2.5146-2.5151c-0.8389-0.9697-1.6602-1.8247-2.4825-2.4985
		c-0.8712-1.0196-1.7422-1.8907-2.5977-2.5977c-0.8379-0.9697-1.6768-1.7915-2.498-2.4819
		c-0.8388-0.9697-1.6767-1.8081-2.499-2.4824c-0.8379-0.9698-1.6602-1.8247-2.4824-2.4986
		c-0.8545-1.0029-1.709-1.8574-2.5479-2.5478c-0.8545-0.9864-1.6768-1.8413-2.5146-2.5152
		c-0.8555-0.9863-1.6768-1.8413-2.5156-2.5151c-1.6436-1.8906-3.2715-3.4521-4.8164-4.2085
		c-10.5206-5.1616-17.8194,5.6714-17.8194,5.6714c-10.1426,16.1426-70.7353,105.9473-121.6299,181.1704
		c-0.2793-0.3613-1.1015-1.2822-2.4005-2.3833c-0.1308-0.1812-1.0185-1.2495-2.5146-2.5151
		c-0.1318-0.1812-1.0195-1.2495-2.5147-2.5152c-0.1318-0.1811-1.0195-1.2495-2.5156-2.5151
		c-0.1318-0.1807-1.0029-1.2329-2.4658-2.4658c-0.0488-0.0821-1.0195-1.2989-2.6631-2.6631
		c-0.2305-0.2959-1.0351-1.2163-2.3174-2.3179c-0.0166,0-0.0166-0.0166-0.0166-0.0166s-0.9863-1.2656-2.6465-2.6631
		c-0.2138-0.2627-1.0527-1.249-2.4658-2.4492c-0.1152-0.1479-1.0195-1.2495-2.5322-2.5317
		c-0.1309-0.1641-1.0186-1.2491-2.5146-2.5152c-0.1319-0.1806-1.0196-1.249-2.5157-2.5146
		c-0.1308-0.1812-1.0185-1.2495-2.5146-2.5152c-0.1319-0.1811-1.0196-1.2495-2.5156-2.5151
		c-0.1309-0.1811-1.0186-1.2495-2.5147-2.5151c-0.1318-0.1812-1.0195-1.2495-2.5156-2.5152
		c-0.1309-0.1811-1.002-1.2329-2.4658-2.4658c-0.0489-0.0825-1.002-1.2661-2.6133-2.6138
		c-0.1973-0.2631-1.0518-1.2822-2.4824-2.4824c-0.1153-0.1645-1.0186-1.2495-2.5147-2.5151
		c-0.1318-0.1807-1.0361-1.2656-2.5322-2.5313c-0.1475-0.1972-1.0352-1.2495-2.4981-2.499
		c-0.1318-0.1806-1.0195-1.249-2.5156-2.5151c-0.1309-0.1807-1.0185-1.249-2.5146-2.5152c-0.1319-0.1806-1.0196-1.249-2.5157-2.5151
		c-0.1308-0.1807-1.0185-1.249-2.5146-2.5151c-0.1318-0.1807-1.0195-1.2491-2.5156-2.5152
		c-0.1309-0.1806-1.0518-1.2983-2.5801-2.5805c-0.2139-0.2632-1.0528-1.2495-2.417-2.4165
		c-0.0986-0.1153-1.0195-1.2496-2.5645-2.5645c-0.1474-0.1973-1.0351-1.2656-2.5146-2.5151
		c-0.165-0.2139-1.0361-1.2657-2.5156-2.5152c-0.1319-0.1645-1.0196-1.2495-2.5147-2.5151
		c-0.1318-0.1807-1.0195-1.2495-2.5156-2.5151c-0.1309-0.1807-1.0186-1.2496-2.5147-2.5152
		c-0.1318-0.1806-1.0195-1.2495-2.5156-2.5151c-0.1308-0.1807-1.0185-1.249-2.5146-2.5151
		c-0.1319-0.1807-1.0196-1.2491-2.5157-2.5152c-0.1308-0.1807-1.0185-1.249-2.5146-2.5151
		c-0.1318-0.1807-1.0029-1.2163-2.4492-2.4492c-0.0332-0.0494-1.003-1.2657-2.6309-2.6465
		c-0.2129-0.2632-1.0683-1.2495-2.4658-2.4497c-0.1143-0.148-1.0186-1.2491-2.5313-2.5313
		c-0.1318-0.1645-1.0195-1.2495-2.5146-2.5151c-0.1318-0.1807-1.0195-1.2495-2.5156-2.5152
		c-0.1319-0.1806-1.0196-1.2495-2.5147-2.5151c-0.1318-0.1807-1.0195-1.2495-2.5156-2.5151
		c-0.1318-0.1807-1.0195-1.2495-2.5146-2.5152c-0.1319-0.1806-1.0196-1.2495-2.5157-2.5151
		c-0.1308-0.1807-1.0185-1.2495-2.5146-2.5151c-0.1319-0.1807-1.0528-1.2823-2.5645-2.5645
		c-0.2138-0.2632-1.0522-1.2495-2.4331-2.4326c-0.0825-0.0986-0.9863-1.2002-2.4824-2.499
		c-0.0493-0.0494-1.0024-1.2329-2.5806-2.5806c-0.1318-0.1812-1.0361-1.2661-2.5478-2.5483
		c-0.1812-0.2134-1.0528-1.2491-2.499-2.482c-0.1319-0.1811-1.0196-1.2495-2.5152-2.5151c-0.1313-0.1812-1.019-1.2495-2.5151-2.5151
		c-0.1319-0.1812-1.0195-1.2496-2.5152-2.5152c-0.1313-0.1811-1.019-1.2495-2.5151-2.5151
		c-0.1313-0.1807-1.0517-1.2822-2.581-2.5645c-0.1807-0.2466-1.0025-1.2163-2.3672-2.3838c0,0-0.9864-1.249-2.6133-2.6298
		c-0.1807-0.2139-1.0361-1.233-2.4658-2.4498c-0.0821-0.1147-1.0196-1.2656-2.5811-2.5971
		c-0.1641-0.2139-1.0517-1.2495-2.499-2.4824c-0.1309-0.1641-1.0186-1.2491-2.5147-2.5152
		c-0.1318-0.1806-1.0195-1.249-2.5151-2.5146c-0.1313-0.1812-1.019-1.2495-2.5151-2.5152
		c-0.4278-0.5424-8.0713-10.1591-18.0332-4.6196c-16.8003,9.3701-38.7627,92.7471,16.3564,157.6797
		c3.9619,4.6523,7.9395,8.8442,11.9346,12.8057c0.8379,0.8549,1.6767,1.6767,2.5146,2.5151
		c0.8389,0.855,1.6768,1.6768,2.5157,2.5151c0.789,0.8223,1.5942,1.6114,2.3999,2.4165c0.9038,0.937,1.8247,1.8247,2.729,2.729
		c0.7724,0.7891,1.5449,1.5454,2.3173,2.3013c0.9043,0.937,1.8086,1.8247,2.7129,2.729c0.8052,0.8218,1.6104,1.6109,2.416,2.4165
		c0.8389,0.8545,1.6768,1.6768,2.5318,2.5152c0.8384,0.8544,1.6767,1.6767,2.5151,2.5151c0.8384,0.8545,1.6768,1.6767,2.5152,2.5151
		c0.8383,0.8545,1.6767,1.6768,2.5151,2.5152c0.8384,0.8545,1.6768,1.6767,2.5151,2.5151c0.8384,0.8545,1.6768,1.6768,2.5152,2.5151
		c0.8383,0.8545,1.6767,1.6768,2.5146,2.5152c0.8057,0.8218,1.6113,1.6108,2.4004,2.4165c0.9209,0.9365,1.8252,1.8242,2.7285,2.7285
		c0.7891,0.8057,1.5615,1.5615,2.3506,2.3345c0.8721,0.9038,1.7432,1.7588,2.6309,2.6298c0.8213,0.855,1.6435,1.6607,2.4824,2.4825
		c0.8379,0.855,1.6767,1.6767,2.5146,2.5151c0.8389,0.855,1.6768,1.6768,2.5157,2.5151c0.8379,0.855,1.6767,1.6768,2.5146,2.5152
		c0.8389,0.855,1.6768,1.6767,2.5156,2.5151c0.8379,0.8545,1.6768,1.6768,2.5147,2.5152c0.8379,0.8544,1.6767,1.6767,2.5146,2.5151
		c0.8389,0.8545,1.6768,1.6929,2.5157,2.5151c0.8056,0.8223,1.5947,1.6114,2.4004,2.416c0.871,0.9043,1.7587,1.7754,2.6464,2.6465
		c0.8213,0.8555,1.6602,1.6602,2.4825,2.4824c0.8378,0.8711,1.6767,1.6934,2.5312,2.5313c0.8711,0.8887,1.7256,1.7432,2.6133,2.5977
		c0.8057,0.8378,1.6113,1.6269,2.4336,2.4335c0.8379,0.8545,1.6767,1.6758,2.5146,2.5147c0.8389,0.8545,1.6768,1.6768,2.5157,2.5146
		c0.8378,0.8555,1.6767,1.6778,2.5146,2.5157c0.8711,0.8877,1.7422,1.7422,2.6143,2.6133c0.8046,0.8222,1.6103,1.5957,2.3994,2.4003
		c0.8554,0.8711,1.6933,1.6934,2.5478,2.5313c0.8389,0.8711,1.6768,1.6934,2.5323,2.5312c0.7558,0.7891,1.496,1.5293,2.2519,2.2852
		c-0.2471,0.3623-0.543,0.8066-0.7891,1.168c-4.373,1.0351-8.4169,3.2871-11.1455,7.332l-26.8613,40.0439
		c-10.9316-3.5009-22.5537-5.3759-34.6689-5.1455c-59.1299,1.168-106.1607,50.0567-105.0264,109.2188
		c0.5752,29.9346,13.4468,56.7295,33.6499,75.7656c0.8384,0.8711,1.6768,1.7422,2.5483,2.5645
		c0.8213,0.8223,1.627,1.6602,2.4659,2.4658c0.8378,0.8389,1.6435,1.6768,2.498,2.499c0.8389,0.8379,1.6445,1.6934,2.5156,2.5146
		c0.8545,0.8721,1.6929,1.7432,2.5806,2.5811c0.8384,0.8379,1.6606,1.6934,2.5151,2.5156c0.8384,0.8379,1.6441,1.6924,2.4991,2.498
		c0.8217,0.8223,1.6269,1.6768,2.4819,2.4658c0.8384,0.8545,1.6606,1.7266,2.5483,2.5479c0.8379,0.8554,1.6436,1.7099,2.5147,2.5312
		c0.8222,0.8389,1.644,1.6934,2.5156,2.499c0.8379,0.8545,1.6436,1.71,2.5147,2.5323c0.8222,0.8378,1.644,1.6933,2.5151,2.498
		c0.8218,0.8555,1.644,1.71,2.5151,2.5156c0.8223,0.8379,1.6275,1.6934,2.4824,2.4981c0.8711,0.8877,1.7261,1.7754,2.6299,2.6308
		c0.8057,0.7891,1.5782,1.6104,2.4004,2.3828c0.8218,0.8389,1.6436,1.71,2.4986,2.5157c0.8715,0.8711,1.7094,1.7588,2.5971,2.5976
		c0.8389,0.8379,1.6441,1.6934,2.499,2.4825c0.8379,0.8544,1.6436,1.7089,2.5147,2.5312c0.8223,0.8379,1.644,1.6934,2.5156,2.498
		c0.8379,0.8555,1.6436,1.71,2.5147,2.5323c0.8222,0.8379,1.644,1.6924,2.5156,2.498c0.8379,0.8555,1.6435,1.71,2.5146,2.5322
		c0.855,0.8545,1.6768,1.7256,2.5645,2.5645c0.8057,0.8047,1.5947,1.6436,2.4331,2.416c0.8384,0.8555,1.6606,1.7266,2.5317,2.5479
		c0.8379,0.8545,1.6602,1.7099,2.5313,2.5322c0.8384,0.8545,1.6601,1.709,2.5317,2.5312c0.8384,0.8379,1.6441,1.6934,2.5152,2.4981
		c0.8383,0.8555,1.6435,1.71,2.5146,2.5322c0.8223,0.8379,1.6445,1.6934,2.5156,2.499c0.8379,0.8545,1.6436,1.709,2.5147,2.5313
		c0.8223,0.8379,1.6445,1.6934,2.5156,2.498c0.8379,0.8555,1.6436,1.71,2.5147,2.5323c0.8388,0.8379,1.6445,1.6923,2.5156,2.5146
		c0.8213,0.8389,1.6269,1.6768,2.498,2.499c0.8555,0.8545,1.6934,1.7422,2.5811,2.5811c0.8223,0.8213,1.6445,1.6767,2.499,2.4824
		c0.8223,0.8214,1.6113,1.6758,2.4658,2.4649c0.8379,0.8554,1.6602,1.7265,2.5313,2.5488c0.8388,0.8379,1.6601,1.709,2.5312,2.5312
		c0.8223,0.8379,1.6446,1.6934,2.5157,2.4981c0.8378,0.8555,1.6435,1.7099,2.5146,2.5322c0.8223,0.8389,1.6445,1.6934,2.5156,2.499
		c0.8223,0.8545,1.6436,1.709,2.4991,2.5147c0.8544,0.8545,1.6923,1.7422,2.58,2.581c0.8057,0.7891,1.5782,1.6114,2.4004,2.4004
		c0.8711,0.8711,1.7256,1.7754,2.6299,2.6133c0.8223,0.838,1.6113,1.6768,2.4658,2.4658c0.8389,0.8545,1.6602,1.71,2.5156,2.5313
		c0.8379,0.8388,1.6602,1.7099,2.5313,2.5156c0.8389,0.8545,1.6436,1.709,2.5156,2.5312c0.8213,0.8388,1.6436,1.6933,2.5147,2.499
		c0.8388,0.8545,1.6435,1.709,2.5156,2.5312c0.8213,0.8379,1.6436,1.6934,2.5146,2.499c0.8389,0.8545,1.6436,1.709,2.5147,2.5313
		c0.8223,0.8213,1.6279,1.6768,2.4824,2.4824c0.8555,0.8711,1.6934,1.7422,2.5977,2.5811c0.8056,0.8213,1.5781,1.6435,2.416,2.4326
		c0.8555,0.8711,1.7099,1.7588,2.5976,2.5967c0.8223,0.8388,1.6436,1.6777,2.4991,2.499c0.8213,0.8223,1.6435,1.6768,2.498,2.499
		c0.8389,0.8545,1.6611,1.709,2.5322,2.5313c0.8379,0.8388,1.6436,1.6933,2.5147,2.499c0.8389,0.8545,1.6435,1.71,2.5156,2.5312
		c0.8213,0.8389,1.6436,1.6934,2.5147,2.4991c0.8388,0.8545,1.6435,1.709,2.5156,2.5312c0.8379,0.8379,1.6435,1.6934,2.5146,2.5156
		c0.8389,0.8379,1.6436,1.6924,2.4991,2.4981c0.8379,0.8389,1.6601,1.7099,2.5146,2.5156c0.8555,0.8711,1.6934,1.7422,2.5645,2.5645
		c0.8222,0.8213,1.6279,1.6601,2.4658,2.4648c0.8388,0.8389,1.6435,1.6934,2.499,2.499c0.8711,0.8721,1.709,1.7588,2.5967,2.5977
		c0.8223,0.8213,1.6279,1.6601,2.4658,2.4658c0.8389,0.838,1.6611,1.709,2.5322,2.5313c0.8213,0.8388,1.6436,1.6933,2.5147,2.499
		c0.8388,0.8545,1.6445,1.7099,2.5156,2.5312c0.8213,0.8389,1.6436,1.6934,2.4981,2.4991c0.8388,0.8544,1.6601,1.7089,2.5322,2.5312
		c0.8546,0.8555,1.6768,1.7266,2.5645,2.5479c0.7891,0.8056,1.5616,1.6279,2.3828,2.4003c0.8877,0.8877,1.7432,1.8077,2.6631,2.6631
		c0.8057,0.8057,1.5948,1.6436,2.417,2.4161c0.8545,0.871,1.6934,1.7431,2.5811,2.5811c0.8213,0.8223,1.6269,1.6768,2.498,2.4824
		c0.8389,0.8545,1.6446,1.71,2.5156,2.5313c0.8223,0.8388,1.6436,1.6933,2.5147,2.499c0.8389,0.8545,1.6445,1.709,2.5156,2.5312
		c0.8213,0.8388,1.6436,1.6933,2.5147,2.499c0.8221,0.8545,1.6445,1.7099,2.499,2.5146c0.8379,0.8389,1.6602,1.71,2.5312,2.5322
		c0.8389,0.8545,1.6602,1.709,2.5479,2.5313c0.8223,0.8389,1.6279,1.6934,2.4824,2.499c0.8555,0.8711,1.6934,1.7422,2.5811,2.5645
		c0.8055,0.8047,1.5781,1.6269,2.4004,2.3994c0.8545,0.8721,1.6923,1.7588,2.58,2.581c0.8389,0.8555,1.6447,1.71,2.5157,2.5313
		c0.8222,0.8389,1.6435,1.6934,2.5146,2.499c0.8389,0.8545,1.6445,1.71,2.5156,2.5313c0.838,0.8554,1.6768,1.7265,2.5645,2.5478
		c0.3945,0.3946,0.7891,0.7891,1.1836,1.2002c222.0859-29.1786,398.7695-202.5078,432.7314-423.0488
		c-0.4932-0.5098-0.9863-1.085-1.4796-1.4795C1001.7402,580.0054,1000.918,579.1499,1000.0791,578.4761z"/>
</g>
<g id="scissor-scissor">
	<path fill="#D6DAE1" d="M345.1465,250.4761c19.4961,27.6001,209.2969,277.9775,209.2969,277.9775s26.3349,25.9893,9.4521,39.6339
		c-19.9072,16.0771-75.1738-68.0723-89.9023-87.1909c-14.7627-19.1016-75.4541-12.5259-130.6055-77.459
		c-55.1191-64.9326-33.1567-148.3096-16.3564-157.6797C337.2891,240.0537,345.1465,250.4761,345.1465,250.4761z"/>
	<path fill="#EBEDF0" d="M640.2207,242.7168c-17.9844,28.5869-194.4033,288.6138-194.4033,288.6138s-24.9541,27.3212-7.3652,40.0615
		c20.7295,15.041,71.4755-71.9531,85.2187-91.7778c13.7256-19.858,74.6973-16.5044,126.3477-84.2315
		c51.6494-67.7275,25.2822-149.8384,8.0215-158.3374C647.5195,231.8838,640.2207,242.7168,640.2207,242.7168z"/>
	<path fill="#FC6E51" d="M455.7783,587.4526l23.2285-34.5703c6.3292-9.4531,3.5997-23.3271-6.0986-30.9883
		c-9.7324-7.6269-22.7187-6.164-29.0967,3.2891l-26.8613,40.0439c-10.9316-3.5009-22.5537-5.3759-34.6689-5.1455
		c-59.1299,1.168-106.1607,50.0567-105.0264,109.2188c1.1504,59.1299,50.0723,106.1113,109.2187,104.9941
		c59.1465-1.1513,106.1612-50.0068,105.0264-109.1855C490.8594,634.187,477.1162,606.6196,455.7783,587.4526z M384.6323,739.7065
		c-39.9458,0.7891-72.9223-30.9697-73.7114-70.8828c-0.7886-39.9297,30.9541-72.9219,70.8838-73.7109
		c39.9463-0.7559,72.9551,30.9707,73.7275,70.8828C456.3213,705.9097,424.5781,738.9507,384.6323,739.7065z"/>
	<path fill="#FC6E51" d="M622.3682,554.1147c-12.0988,0.3946-23.6055,2.8106-34.3565,6.8379l-28.834-38.6308
		c-6.8056-9.1065-19.874-9.9121-29.1621-1.8408c-9.3369,8.1533-11.375,22.1259-4.5693,31.25l24.9209,33.3544
		c-20.4004,20.2032-32.7793,48.4278-31.8252,79.3653c1.7754,59.1299,51.1729,105.6015,110.2871,103.8271
		c59.1621-1.8086,105.6514-51.1738,103.8594-110.3037C730.8799,598.811,681.5147,552.3393,622.3682,554.1147z M628.9434,733.6577
		c-39.9131,1.2168-73.25-30.1816-74.4502-70.1269c-1.2169-39.8809,30.165-73.251,70.1103-74.5
		c39.9463-1.1836,73.251,30.2304,74.4678,70.1269C700.2549,699.0708,668.8897,732.4409,628.9434,733.6577z"/>
	<path fill="#D1D3D4" d="M480.1406,477.0664c1.1182,10.3394,10.4551,17.7866,20.795,16.6694
		c10.3076-1.1679,17.7871-10.4882,16.6523-20.8281c-1.1504-10.3237-10.4551-17.7871-20.8115-16.6362
		C486.4209,457.4224,478.9902,466.6938,480.1406,477.0664z"/>
</g>
</svg>
