<?xml version="1.0" encoding="utf-8"?>
<!-- Generator: Adobe Illustrator 17.1.0, SVG Export Plug-In . SVG Version: 6.00 Build 0)  -->
<!DOCTYPE svg PUBLIC "-//W3C//DTD SVG 1.1//EN" "http://www.w3.org/Graphics/SVG/1.1/DTD/svg11.dtd">
<svg version="1.1" id="stationery" xmlns="http://www.w3.org/2000/svg" xmlns:xlink="http://www.w3.org/1999/xlink" x="0px" y="0px"
	 viewBox="0 0 1010 1009.9834" enable-background="new 0 0 1010 1009.9834" xml:space="preserve">
<path id="stationery-label" fill="#FFFFFF" d="M504.9961,0C226.0977,0,0,226.0889,0,504.9873s226.0977,504.9961,504.9961,504.9961
	c278.915,0,505.0039-226.0977,505.0039-504.9961S783.9111,0,504.9961,0z"/>
<g id="stationery-shadow" opacity="0.1">
	<path fill="#434A54" d="M1005.6934,503.6064c-0.7237-1.3808-1.71-2.4326-2.959-2.9921c-0.7237-1.3477-1.71-2.4327-2.9922-2.959
		c-0.6904-1.3809-1.71-2.4326-2.959-2.9912c-0.7236-1.3487-1.71-2.3995-2.959-2.959c-0.7236-1.3487-1.7099-2.4326-2.9922-2.959
		c-0.6904-1.3809-1.709-2.4326-2.959-2.9912c-0.7226-1.3487-1.7089-2.4004-2.9589-2.959c-0.7227-1.3486-1.7422-2.4336-2.9912-2.9595
		c-0.7237-1.3808-1.71-2.4331-2.959-2.9922c-0.7237-1.3476-1.7432-2.4326-2.9922-2.9585c-0.6904-1.3808-1.709-2.4331-2.959-2.9589
		c-0.7227-1.3809-1.709-2.4332-2.959-2.9922c-0.7227-1.3477-1.709-2.4327-2.9912-2.959c-0.7236-1.3809-1.71-2.4326-2.959-2.9917
		c-0.7236-1.3482-1.7099-2.3999-2.959-2.959c-0.7236-1.3481-1.7099-2.3999-2.9922-2.959c-0.6904-1.3808-1.7099-2.4326-2.9589-2.959
		c-0.7237-1.3808-1.71-2.4326-2.959-2.9917c-0.7237-1.3481-1.71-2.4331-2.9922-2.959c-0.6904-1.3808-1.709-2.4331-2.959-2.9589
		c-0.7227-1.3809-1.709-2.4331-2.9912-2.9917c-0.6992-1.3482-1.7012-2.4004-2.9512-2.959c-0.707-1.3809-1.709-2.4331-2.9756-2.959
		c-0.706-1.3809-1.7089-2.4331-2.9589-2.9917c-0.7227-1.3482-1.7256-2.4331-2.9913-2.959c-0.707-1.3809-1.7099-2.4331-2.9589-2.9922
		c-0.707-1.3476-1.71-2.3999-2.9756-2.959c-0.7071-1.3476-1.71-2.4326-2.959-2.9589c-0.707-1.3809-1.71-2.4327-2.9756-2.9917
		c-0.707-1.3482-1.7256-2.4332-2.9756-2.959c-0.7227-1.3809-1.7256-2.4326-2.9746-2.959c-0.707-1.3809-1.71-2.4326-2.959-2.9917
		c-0.707-1.3482-1.7099-2.4331-2.9756-2.959c-0.707-1.3809-1.7265-2.4331-2.9756-2.959c-0.707-1.3808-1.7099-2.4331-2.9589-2.9917
		c-0.7237-1.3481-1.7256-2.4331-2.9756-2.959c-0.7071-1.3808-1.7256-2.4331-2.9756-2.9917c-0.7061-1.3481-1.709-2.4004-2.959-2.959
		c-0.7226-1.3481-1.7256-2.4331-2.9746-2.9589c-0.707-1.3809-1.7266-2.4331-2.9756-2.9922c-0.707-1.3477-1.7099-2.3999-2.9756-2.959
		c-0.707-1.3809-1.7099-2.4326-2.959-2.959c-0.707-1.3809-1.7099-2.4326-2.9755-2.959c-0.707-1.3808-1.709-2.4326-2.959-2.9917
		c-0.7227-1.3476-1.7256-2.4326-2.9756-2.959c-0.7227-1.3808-1.7256-2.4326-2.9746-2.9917c-0.7071-1.3481-1.71-2.3999-2.9756-2.9589
		c-0.707-1.3482-1.71-2.4331-2.9756-2.959c-0.707-1.3809-1.71-2.4331-2.959-2.9917c-0.707-1.3482-1.7099-2.4004-2.9756-2.959
		c-0.707-1.3809-1.709-2.4331-2.9756-2.959c-0.706-1.3809-1.7089-2.4331-2.9589-2.9917c-0.7227-1.3481-1.7256-2.4331-2.9745-2.959
		c-0.7072-1.3808-1.71-2.4331-2.9756-2.959c-0.7071-1.3808-1.71-2.4331-2.959-2.9922c-0.707-1.3476-1.71-2.4326-2.9756-2.9589
		c-0.707-1.3809-1.71-2.4327-2.9756-2.9917c-0.7226-1.3477-1.7256-2.3999-2.9756-2.959c-0.706-1.3477-1.709-2.3999-2.959-2.959
		c-0.706-1.3809-1.7089-2.4326-2.9746-2.9917c-0.707-1.3481-1.7099-2.3999-2.9756-2.959c-0.707-1.3808-1.7265-2.4331-2.9755-2.959
		c-0.7071-1.3808-1.71-2.4331-2.959-2.9917c-0.7071-1.3481-1.71-2.4331-2.9756-2.959c-0.7227-1.3808-1.7256-2.4331-2.9756-2.9589
		c-0.7061-1.3809-1.709-2.4331-2.959-2.9917c-0.706-1.3482-1.709-2.4331-2.9745-2.959c-0.707-1.3809-1.7266-2.4331-2.9756-2.959
		c-0.707-1.3809-1.7099-2.4331-2.959-2.9922c-0.7236-1.3477-1.7265-2.4326-2.9755-2.959c-0.7072-1.3808-1.7256-2.4326-2.9756-2.9585
		c-0.7227-1.3808-1.709-2.4331-2.9756-2.9922c-0.7061-1.3476-1.709-2.4165-2.959-2.9589c-0.7061-1.3809-1.709-2.4327-2.9746-2.9751
		c-0.707-1.3648-1.71-2.4165-2.959-2.9756c-0.707-1.3643-1.7266-2.4331-2.9756-2.959c-0.7236-1.3809-1.7265-2.4331-2.9756-2.9756
		c-0.707-1.3643-1.7099-2.4326-2.9756-2.9751c-0.707-1.3643-1.7089-2.4165-2.9589-2.959c-0.7071-1.3808-1.709-2.4331-2.9756-2.9917
		c-0.7061-1.3647-1.709-2.4165-2.9746-2.959c-0.7071-1.3808-1.71-2.4331-2.9756-2.9756c-0.7071-1.3642-1.71-2.4165-2.959-2.9755
		c-0.707-1.3643-1.71-2.4327-2.9756-2.959c-1.0517-2.0381-2.7949-3.4517-4.8662-3.4517l-67.0859,0.0327
		c-3.2549,0-5.9014,3.3203-5.9014,7.3643l-0.0166,95.8047c-0.1152,0.5591-0.2793,1.1177-0.2793,1.7095v45.9628
		c-0.7725-0.8549-1.627-1.5781-2.4658-2.3344c-0.9209-1.0523-1.8906-2.0054-2.9258-2.9263
		c-0.9375-1.085-1.9404-2.0381-3.0088-2.9917c-0.9199-1.085-1.9228-2.0381-2.959-2.959c-0.9365-1.0849-1.9228-2.0381-2.9745-2.9917
		c-0.9209-1.0522-1.9072-2.0054-2.9433-2.9263c-0.9366-1.0849-1.9395-2.0712-3.0079-3.0244
		c-0.9209-1.0522-1.9238-2.0058-2.9589-2.959c-0.9209-1.0522-1.9073-2.0058-2.9424-2.9262
		c-0.9375-1.085-1.9561-2.0713-3.0088-3.0244c-0.9199-1.0523-1.9063-2.0059-2.9424-2.959c-0.9365-1.0523-1.9229-2.0059-2.959-2.959
		c-0.9365-1.0523-1.9395-2.0386-2.9912-2.9922c-0.9375-1.0517-1.9404-2.0381-2.9922-2.959
		c-0.9043-1.0517-1.8906-2.0053-2.9102-2.9258c-0.9532-1.0849-1.9561-2.0712-3.0245-3.0249
		c-0.9209-1.0517-1.9228-2.038-2.9589-2.9589c-0.9209-1.0518-1.9073-2.0054-2.9424-2.959
		c-0.9365-1.0518-1.9395-2.0381-2.9922-2.9917c-0.9365-1.0523-1.9395-2.0386-2.9912-2.9917
		c-0.9209-1.0523-1.9238-2.0059-2.9756-2.959c-0.9043-1.0195-1.8906-1.9727-2.9102-2.9263
		c-0.9531-1.0522-1.956-2.0386-3.0244-2.9917c-0.9209-1.0849-1.9072-2.0386-2.959-2.959c-0.9209-1.0849-1.9228-2.0385-2.9589-2.9917
		c-0.9366-1.0522-1.9229-2.0058-2.959-2.9589c-0.9366-1.0523-1.9395-2.0386-3.0078-2.9922c-0.921-1.0518-1.924-2.0381-2.9756-2.959
		c-0.9209-1.0518-1.8907-2.0054-2.9258-2.9258c-0.9375-1.085-1.9404-2.0713-3.0088-3.0249c-0.9209-1.0518-1.9072-2.0054-2.959-2.959
		c-0.9199-1.0517-1.9062-2.0054-2.9424-2.959c-0.9365-1.0517-1.956-2.0381-3.0078-2.9917c-0.921-1.0522-1.9238-2.0385-2.959-2.959
		c-0.9209-1.0522-1.9072-2.0053-2.9433-2.9262c-0.9365-1.085-1.9395-2.0713-3.0078-3.0244
		c-0.9208-1.0523-1.9239-2.0386-2.9756-2.959c-0.9209-1.0523-1.9072-2.022-2.9258-2.959c-0.9531-1.0684-1.9561-2.0547-3.0244-3.0083
		c-0.9209-1.0357-1.8906-2.0054-2.9268-2.9263c-0.9365-1.0683-1.956-2.0547-3.0078-3.0083
		c-0.9043-1.0517-1.8906-1.9887-2.9101-2.9258c-0.9532-1.0688-1.9561-2.0712-3.0245-3.0249
		c-0.9209-1.0517-1.9238-2.0053-2.9589-2.9423c-0.921-1.0684-1.924-2.022-2.959-2.9756c-0.9209-1.0518-1.9229-2.0054-2.959-2.959
		c-0.9365-1.0684-1.9561-2.0381-3.0078-2.9917c-6.3623-7.2661-15.4688-11.9014-25.7266-11.9014
		c-19.25,0-34.834,16.1426-34.834,36.0825v10.0772h-0.2461v19.1343h-23.08c-4.4385,0-8.0059,2.2358-8.0059,5.0962
		c0,0.3945,0.082,0.8549,0.2461,1.1835c-0.0986,0.3287-0.2461,0.6246-0.2461,0.9205v46.3242h-2.0879v-2.959h-2.959v-2.9917h-2.9912
		v-2.959h-2.959v-2.959h-2.9756v-2.9917h-2.9755v-2.959h-2.959v-2.9589h-2.9756v-2.9917h-2.9756v-2.959h-2.959v-2.9922h-2.9746
		v-2.959h-2.9756v-2.9585h-2.959v-2.9922h-2.9921v-2.959h-2.959v-2.959h-2.959v-2.9917h-2.9912v-2.9589h-2.959v-2.959h-2.9756
		v-2.9917h-2.959v-2.959h-2.9756v-2.959h-2.9756v-2.9917h-2.9751v-2.959h-2.9589v-2.9922h-2.9756v-2.9589h-2.9751v-2.9585h-2.959
		V289.23h-2.9756v-2.9756h-2.9756v-2.959h-2.959v-2.9751h-2.9751v-2.9756h-2.9755v-2.959h-2.9751v-2.9917h-2.959v-2.9589h-2.9756
		v-2.9756h-2.9756v-2.9751h-2.9751v-2.959h-2.959v-2.9756h-2.959v-2.9751h-2.9917v-2.959h-52.6367v24.8877
		c-4.5703,0.0493-10.6689,0.937-15.748,4.4551c-3.748,2.6465-8.1865,7.7261-8.1865,17.1455v101.854
		c0,2.1372,1.4136,3.9126,3.4023,4.8657c0.543,1.2823,1.5947,2.3018,2.9756,2.959c0.5425,1.2822,1.6113,2.3345,2.959,2.9922
		c0.5425,1.2822,1.6113,2.3013,2.9756,2.959c0.542,1.2817,1.5948,2.3013,2.9756,2.9585c0.542,1.3154,1.6104,2.3345,2.9912,2.9922
		c0.5264,1.2822,1.5782,2.3012,2.959,2.9589c0.4932,1.1836,1.4634,2.1368,2.6963,2.8272v196.8701v9.7969v42.2148v9.6328v10.586
		v23.0146l22.3237,42.8067h1.4302l1.5449,2.959h1.4307l1.5449,2.9589h1.4141l1.5449,2.9913h1.4463l1.5454,2.9589h1.4136
		l1.5454,2.9922h1.4136l1.5454,2.959h1.4302l1.5615,2.959h1.414l1.545,2.9922h1.414l1.545,2.959h1.4467l1.5454,2.959h1.4136
		l1.5454,2.9912h1.4136l1.5615,2.9589h1.4136l1.562,2.9922h1.4136l1.5454,2.959h1.4302l1.5449,2.959h1.4307l1.5449,2.9911h1.414
		l1.545,2.959h1.4301l1.5454,2.959h1.4297l1.5454,2.9922h1.4136l1.5454,2.959h1.4136l1.5615,2.9589h1.4307l1.5449,2.9922h1.4141
		l1.5615,2.959h1.4302l1.5454,2.959h1.4136l1.5454,2.9912h1.4135l1.5455,2.959h1.4462l1.5455,2.959h1.4135l1.5449,2.9922h1.4141
		l1.5615,2.9589h1.4141l1.5615,2.9913h1.4141l1.5449,2.9589h1.4302l1.5454,2.959h1.4131l1.5625,2.9922h1.4131l1.5459,2.959h1.4296
		l1.5616,2.959h1.414l1.545,2.9922h1.414l1.5449,2.959h1.4307l1.5449,2.9589h1.4297l1.5459,2.9912h1.4297l1.5459,2.959h1.4131
		l1.5459,2.959h1.4297l1.5449,2.9922h1.4141l1.5615,2.959h1.414l1.5616,2.9912h1.414l1.5449,2.959h1.4297l1.5459,2.959h1.4297
		l1.5459,2.959h1.4131l1.5459,2.9921h1.4297l1.5449,2.959h1.4141l1.5615,2.9922h1.4141l1.5449,2.959h1.4306l1.545,2.959h1.4297
		l1.5459,2.9912h1.413l1.5459,2.959h1.4463l1.545,2.959h1.414l1.5449,2.9921h1.4141l1.5449,2.959h1.4307l1.5449,2.958h1.4307
		l1.5449,2.9922h1.4141l1.5615,2.959h1.4297l1.5459,2.959h1.413l1.5459,2.9922h1.4297l1.545,2.959h1.4306l1.5449,2.9922h1.4141
		l1.5449,2.9589h1.4141l1.5615,2.959h1.4297l1.5459,2.9912h1.4131l1.5459,2.959h1.4297l1.5459,2.959h1.4297l1.5449,2.9922h1.414
		l1.5616,2.958h1.414l1.5449,2.959h1.4307l1.5449,2.9922h1.4141l1.5449,2.959h1.4463l1.5459,2.9589h1.4131l1.5459,2.9922h1.4297
		l1.5449,2.959h1.4141l1.5449,2.9922h1.4306l1.545,2.959h1.4306l1.545,2.959h1.4296l1.5459,2.9912h1.4131l1.5459,2.959h1.4297
		l1.5459,2.9589h1.4297l1.1016,2.1045c257.9062-21.666,460.6357-237.0459,462.083-500.1962
		c-0.4278-0.4268-0.7237-1.0518-1.2823-1.2823C1007.9619,505.1846,1006.9424,504.1328,1005.6934,503.6064z"/>
</g>
<g id="stationery-stationery">
	<g>
		<path fill="#E9573F" d="M757.1982,358.5845l0.0157-100.5718c0-4.0601-2.6631-7.397-5.918-7.397l-67.0859,0.0327
			c-3.2549,0-5.9014,3.3203-5.9014,7.3643l-0.0166,100.5391L757.1982,358.5845z"/>
		<g>
			<path fill="#FFDD87" d="M751.5762,348.1299c3.2549,0.0327,5.9013,3.3535,5.9336,7.397v315.8198l-24.2627-0.0332l0.0322-323.1509
				L751.5762,348.1299z"/>
			<path fill="#F6BB42" d="M700.9287,348.1299v323.1836h-22.916V355.5269c0-4.0435,2.6631-7.397,5.918-7.397H700.9287z"/>
			<polygon fill="#FFCE54" points="733.2793,348.1626 733.2471,671.3135 700.9287,671.3135 700.9287,348.1299 			"/>
		</g>
		<g>
			<polygon fill="#FFFFFF" points="732.0137,730.0322 757.5098,671.3467 678.0127,671.3135 715.0488,756.6963 703.5254,730.0322 			
				"/>
			<path fill="#656D78" d="M703.5254,730.0322l11.5234,26.6641c1.4961,3.6162,3.9131,3.584,5.376,0l11.5889-26.6641H703.5254z"/>
		</g>
		<path fill="#FC6E51" d="M757.1982,358.5845l0.0157-100.5718c0-4.0601-2.6631-7.397-5.918-7.397l-67.0859,0.0327
			c-3.2549,0-5.9014,3.3203-5.9014,7.3643l-0.0166,100.5391L757.1982,358.5845z"/>
	</g>
	<g>
		<path fill="#FFCE54" d="M513.1826,250.6157c19.2822,0,34.8661,16.1426,34.8661,36.0825v11.7867
			c-23.2607,0.3618-46.374,0.3945-69.7002-0.1973v-11.5894C478.3486,266.7583,493.9326,250.6157,513.1826,250.6157z"/>
		<polygon fill="#FC6E51" points="548.5742,683.1172 548.1143,683.1172 531.5273,719.5781 495.3623,719.5781 478.793,683.1172 
			478.1025,683.1172 478.1025,296.7754 548.5742,296.7754 		"/>
		<polygon fill="#CCD1D9" points="513.4453,759.3926 495.3623,719.5781 531.5273,719.5781 		"/>
		<path fill="#FFCE54" d="M481.5215,677.5605h63.1406c2.4326,0,4.4053,1.4141,4.4053,3.1895c0,1.8076-1.9727,3.2549-4.4053,3.2549
			h-63.1406c-2.4326,0-4.4053-1.4473-4.4053-3.2549C477.1162,678.9746,479.0889,677.5605,481.5215,677.5605z"/>
		<path fill="#FFCE54" d="M481.5215,661.1875h63.1406c2.4326,0,4.4053,1.4795,4.4053,3.2217c0,1.8086-1.9727,3.2558-4.4053,3.2558
			h-63.1406c-2.4326,0-4.4053-1.4472-4.4053-3.2558C477.1162,662.667,479.0889,661.1875,481.5215,661.1875z"/>
		<path fill="#FFCE54" d="M481.5215,641.0664h63.1406c2.4326,0,4.4053,1.4473,4.4053,3.2227c0,1.7421-1.9727,3.2216-4.4053,3.2216
			h-63.1406c-2.4326,0-4.4053-1.4795-4.4053-3.2216C477.1162,642.5137,479.0889,641.0664,481.5215,641.0664z"/>
		<path fill="#5D9CEC" d="M455.0225,315.9097h97.0371c4.4052,0,8.0058,2.2358,8.0058,5.0962c0,2.7944-3.6006,5.0629-8.0058,5.0629
			H460.957v104.7476c6.5918,0.46,11.7364,4.438,11.7364,9.3369c0,5.1948-5.7364,9.3701-12.8545,9.3701
			c-6.5918,0-11.9512-3.6494-12.7071-8.3178c-0.0332-0.1973-0.1152-0.3619-0.1152-0.5264V323.1099
			c0-0.2959,0.1475-0.5918,0.2461-0.9205c-0.1641-0.3286-0.2461-0.789-0.2461-1.1835
			C447.0166,318.1455,450.584,315.9097,455.0225,315.9097z"/>
	</g>
	<g>
		<rect x="276.4326" y="278.1831" fill="#5D9CEC" width="52.6367" height="352.9546"/>
		<rect x="276.4326" y="250.6157" fill="#5D9CEC" width="52.6367" height="33.9292"/>
		<polygon fill="#FFCE54" points="329.0693,673.3525 329.0693,693.5713 329.0693,716.5859 306.6797,759.3926 298.7563,759.3926 
			276.4326,716.5859 276.4326,693.5713 276.4326,673.3525 		"/>
		<rect x="299.8574" y="677.8564" fill="#F6BB42" width="5.7705" height="40.3077"/>
		<path fill="#545355" d="M265.583,297.104v101.854c0,3.1235-2.959,5.6221-6.5752,5.6221c-3.584,0-6.5098-2.4986-6.5098-5.6221
			V297.104c0-9.4194,4.4385-14.499,8.1865-17.1455c6.6245-4.5864,15.041-4.7178,19.4795-4.3565h48.9052v11.3101h-50.4834
			c0,0-6.9209-0.2793-9.7148,1.9067C266.75,290.4629,265.583,293.1587,265.583,297.104z"/>
		<rect x="276.4326" y="673.3525" opacity="0.2" fill="#32383F" width="52.6367" height="20.2188"/>
		<rect x="276.4326" y="621.3408" fill="#545355" width="52.6367" height="61.6445"/>
	</g>
</g>
</svg>
