<?xml version="1.0" encoding="utf-8"?>
<!-- Generator: Adobe Illustrator 17.1.0, SVG Export Plug-In . SVG Version: 6.00 Build 0)  -->
<!DOCTYPE svg PUBLIC "-//W3C//DTD SVG 1.1//EN" "http://www.w3.org/Graphics/SVG/1.1/DTD/svg11.dtd">
<svg version="1.1" id="_all-skin-types" xmlns="http://www.w3.org/2000/svg" xmlns:xlink="http://www.w3.org/1999/xlink" x="0px"
	 y="0px" viewBox="0 0 98.7651 98.7651" enable-background="new 0 0 98.7651 98.7651" xml:space="preserve">
<g id="_x2D_all-skin-types-label">
	<circle fill="#A1D9B1" cx="49.3823" cy="49.3823" r="48"/>
	<path fill="#4D5152" d="M49.3823,98.7651C22.1528,98.7651,0,76.6118,0,49.3823S22.1528,0,49.3823,0
		s49.3828,22.1528,49.3828,49.3823S76.6118,98.7651,49.3823,98.7651z M49.3823,2.7646c-25.7051,0-46.6177,20.9126-46.6177,46.6177
		s20.9126,46.6172,46.6177,46.6172s46.6172-20.9121,46.6172-46.6172S75.0874,2.7646,49.3823,2.7646z"/>
</g>
<g id="_x2D_all-skin-types-woman">
	<g>
		<path fill="#FFFFFF" d="M69.9614,78.396c-4.0576-5.4951-6.4248-9.9063-6.792-16.0215
			c-0.4717-7.8799,11.6426-13.6846,9.3008-34.5137c-1.419-12.6084-40.6631-3.8613-42.791,0.3941
			c-2.128,4.2544-2.2857,7.642-2.167,9.0214c0.06,0.7017,0.5976,5.023-0.0288,5.7935c-1.5073,1.8516-4.187,4.6479-4.7002,5.2388
			c-0.5117,0.5923-0.2754,1.5752,0.5132,2.1674c0.788,0.5909,3.1523,1.0645,3.1523,2.2862c0,1.2197-0.5376,3.6504-0.813,3.9267
			c-0.2773,0.2735,2.8067,1.2237,2.1079,1.4746c-2.6865,0.9688-0.9013,2.5557-0.9013,4.9473c0,2.3906,1.8652,3.5205,5.4902,2.8897
			c3.6245-0.6309,7.3535-2.0498,8.1426-1.0508c0.7871,0.998,5.3061,6.4082,6.4096,11.1377
			c0.1602,0.6894,0.2715,1.4726,0.3418,2.3086"/>
		<path fill="#4D5152" d="M68.8491,79.2173c-4.0674-5.5098-6.668-10.2344-7.0596-16.7598
			c-0.2002-3.3516,1.5107-6.2441,3.4922-9.5928c3.2236-5.4458,7.2344-12.2231,5.8145-24.8496
			c-0.2529-2.2466-2.2197-3.8096-5.8467-4.646c-12.1211-2.7935-33.0312,3.4517-34.3413,5.5181
			c-2.2168,4.4326-2.0708,7.6675-2.0186,8.2705l0.0352,0.3564c0.4082,3.9644,0.3154,5.5864-0.3687,6.4277
			c-1.1001,1.3511-2.7549,3.1353-3.8506,4.3159c-0.3467,0.374-0.626,0.6748-0.793,0.8604c0.0269,0.0615,0.0884,0.1582,0.2139,0.2524
			c0.1143,0.0854,0.5234,0.2632,0.7944,0.3804c1.1587,0.5029,2.9102,1.2622,2.9102,3.0112c0,0.4785-0.1685,2.083-0.5171,3.3643
			c1.0596,0.4922,1.9619,0.9307,1.9141,2.0049c-0.0273,0.6064-0.417,1.1182-1.0171,1.333
			c-0.4756,0.1719-0.5864,0.3037-0.5874,0.3057c-0.0078,0.1025,0.127,0.6123,0.2163,0.9502
			c0.1714,0.6475,0.3848,1.4531,0.3848,2.3906c0,0.8418,0.3325,1.1211,0.4419,1.2129c0.5708,0.4805,1.8208,0.5947,3.4292,0.3145
			c1.0732-0.1865,2.1562-0.4453,3.2041-0.6953c2.9995-0.7178,5.166-1.2354,6.2603,0.1504l0.1895,0.2373
			c3.5684,4.4531,5.749,8.3027,6.4814,11.4424c0.1689,0.7275,0.2944,1.5703,0.373,2.5068l-2.7549,0.2324
			c-0.0679-0.8047-0.1724-1.5156-0.311-2.1123c-0.6377-2.7324-2.6382-6.2129-5.9463-10.3408l-0.0591-0.0742
			c-0.6226-0.0596-2.3247,0.3438-3.5908,0.6475c-1.0376,0.2471-2.2144,0.5283-3.3726,0.7305
			c-2.5186,0.4355-4.4326,0.1279-5.6826-0.9229c-0.6509-0.5479-1.4268-1.5693-1.4268-3.3291c0-0.5781-0.1489-1.1396-0.2925-1.6836
			c-0.2163-0.8154-0.5571-2.1035,0.1611-3.1914c-0.5737-0.3115-0.9658-0.6523-1.0718-1.2617l-0.1235-0.7129l0.3794-0.3975
			c0.1826-0.4912,0.5122-2.0215,0.5503-2.9395c-0.2432-0.2031-0.8818-0.4805-1.2422-0.6367
			c-0.5029-0.2178-0.9785-0.4238-1.3535-0.7051c-0.7485-0.5625-1.23-1.374-1.3218-2.2275
			c-0.0776-0.7261,0.1323-1.4185,0.5918-1.9502c0.1558-0.1797,0.4966-0.5474,0.9414-1.0273
			c1.0425-1.1235,2.6035-2.8062,3.6475-4.0762c0.0791-0.3096,0.1772-1.3115-0.1514-4.5039l-0.04-0.4033
			c-0.0884-1.0288-0.1836-4.7754,2.3081-9.7573c2.1025-4.2041,24.4844-9.29,36.251-7.2007c7.0273,1.248,8.8545,4.6426,9.1504,7.27
			c1.5225,13.5469-2.9307,21.0723-6.1826,26.5669c-1.8223,3.0801-3.2627,5.5127-3.1123,8.0186
			c0.3525,5.8701,2.6592,10.0488,6.5244,15.2832L68.8491,79.2173z"/>
	</g>
	<g>
		<g>
			<g>
				<path fill="#FFB957" d="M72.8012,33.936c0.6534-0.2266,1.4581-0.6538,2.1397-1.4678c1.1435-1.3672,1.543-3.3379,1.1826-5.8569
					c-0.5967-4.1738-3.5664-7.3765-8.3633-9.0176c-3.6465-1.2461-6.3105-0.435-7.9043,0.4654
					c-1.0713,0.6054-1.8037,1.3183-2.2265,1.8042c-2.2071-1.0865-4.2744-1.4209-5.5049-1.6177
					c-4.7671-0.7627-9.3867-0.167-14.126,1.8222c-7.0215,2.9468-7.2812,7.5596-7.2886,7.7544
					c-0.0224,0.5645,1.3584,8.9317,4.126,12.0938c4.4097,5.0405,9.8804,6.6772,13.4766,5.9048
					c0.6235-0.1333,1.9736-1.125,2.4233-0.7896c0.7666,0.5698,1.0889,3.1758,1.0889,4.0723c0,2.4419-2.6465,4.6518-3.749,4.6518
					c-0.168,0-0.3257,0.0411-0.4688,0.1055c-0.0058,0-0.0127-0.001-0.0195-0.001c-0.6216,0.0723-1.0279,0.8594-0.9942,1.2569
					c1.3418,15.7109,17.544,8.3467,19.4248,6.9121c1.0069-0.7676,2.0469-1.5625,2.9004-2.416
					c3.0489-3.0479,5.0479-6.6973,5.9453-10.8467c0.9229-4.2661,0.4483-8.0151-0.1113-10.4077
					C74.3423,36.6074,73.6274,35.1484,72.8012,33.936z"/>
				<path fill="#4D5152" d="M55.9292,66.3862L55.9292,66.3862c-3.6455,0-9.8848-1.4492-10.7134-11.1523
					c-0.0928-1.0918,0.7695-2.4658,2.0396-2.7197c0.2681-0.0938,0.543-0.1416,0.8203-0.1416
					c0.5083-0.1064,2.3662-1.6631,2.3662-3.269c0-0.6982-0.1792-1.8511-0.394-2.5405c-0.0835,0.0415-0.166,0.083-0.2344,0.1172
					c-0.4189,0.2095-0.8149,0.4077-1.2119,0.4927c-0.6558,0.1406-1.3594,0.2124-2.0894,0.2124
					c-4.3701,0-9.124-2.4521-12.7168-6.5591c-3.0708-3.5088-4.4956-12.3374-4.4668-13.0591
					c0.0215-0.5752,0.4351-5.7422,8.1348-8.9741c4.9966-2.0962,9.8374-2.7192,14.8799-1.9126
					c1.0625,0.1704,2.9238,0.4678,4.9756,1.3247c0.4775-0.4385,1.0947-0.9185,1.8564-1.3496
					c2.6123-1.4751,5.7617-1.6875,9.0322-0.5698c5.3135,1.8179,8.6104,5.4155,9.2842,10.1299
					c0.418,2.9224-0.083,5.2573-1.4902,6.9395c-0.3682,0.4399-0.7852,0.8193-1.248,1.1357c0.6035,1.123,1.0547,2.3125,1.3447,3.5522
					c0.5928,2.5332,1.0938,6.4995,0.1172,11.0156c-0.9551,4.4146-3.0811,8.2944-6.3193,11.5317
					c-0.9277,0.9277-2.0498,1.7832-3.04,2.5381C65.5991,64.0864,60.6694,66.3862,55.9292,66.3862z M47.9893,55.2046
					c0.5391,5.6621,3.1382,8.416,7.9399,8.416c4.2285,0.001,8.5322-2.1436,9.251-2.6914c0.9658-0.7363,1.9639-1.4971,2.7607-2.2939
					c2.8564-2.8555,4.7305-6.2744,5.5713-10.1616c0.8682-4.0127,0.4219-7.5444-0.1055-9.8003
					c-0.3311-1.4097-0.9189-2.7417-1.748-3.959l-1.0166-1.4927l1.7061-0.5918c0.6123-0.2119,1.1279-0.5649,1.5332-1.0493
					c0.8818-1.0542,1.1758-2.6606,0.874-4.7734c-0.5195-3.6338-3.1631-6.4414-7.4424-7.9053
					c-2.5146-0.8584-4.8525-0.7251-6.7773,0.3608c-0.8965,0.5068-1.5078,1.0996-1.8633,1.5083l-0.6992,0.8027l-0.9541-0.4702
					c-2.0322-1-3.9609-1.3086-5.1133-1.4927c-4.5283-0.7251-8.856-0.1646-13.3721,1.7319c-6.1582,2.584-6.4336,6.3774-6.4424,6.5376
					c0.0469,0.8115,1.4302,8.4351,3.7847,11.125c3.0762,3.5161,7.0518,5.6147,10.6362,5.6147c0.5352,0,1.0435-0.0508,1.5098-0.1509
					c0.0811-0.0249,0.3657-0.1675,0.5542-0.2617c0.6172-0.3086,1.2549-0.6274,1.9155-0.6274c0.3994,0,0.7695,0.1187,1.0703,0.3433
					c1.6006,1.189,1.6455,5.1406,1.6455,5.1802c0,3.0767-3.1309,5.9692-5.0669,6.0327L47.9893,55.2046z"/>
			</g>
		</g>
	</g>
	<g>
		<path fill="#4D5152" d="M67.2222,32.9785c-0.0488,0-0.0977-0.0024-0.1465-0.0073c-0.7598-0.0801-1.3105-0.7607-1.2305-1.52
			c0.5078-4.8188-3.9404-9.4629-7.9375-9.8843c-0.7598-0.0801-1.3105-0.7607-1.2305-1.52s0.7725-1.3032,1.5195-1.23
			c5.3789,0.5674,11.0928,6.3364,10.3984,12.9243C68.52,32.4512,67.9204,32.9785,67.2222,32.9785z"/>
	</g>
	<g>
		<path fill="#4D5152" d="M52.0308,59.3657c-0.5537,0-1.0771-0.3359-1.2891-0.8828c-0.2754-0.7119,0.0771-1.5127,0.7891-1.7891
			c3.748-1.4521,6.8281-7.0986,5.0781-11.6172c-0.2754-0.7119,0.0781-1.5127,0.79-1.7881s1.5127,0.0781,1.7881,0.79
			c2.3916,6.1763-1.6143,13.2393-6.6562,15.1934C52.3657,59.3354,52.1968,59.3657,52.0308,59.3657z"/>
	</g>
</g>
<g id="_x2D_all-skin-types-flower">
	<g>
		<path fill="#A1D9B1" d="M53.9399,38.2671c0-1.6363-1.3252-2.9624-2.9609-2.9624c-0.7144,0-1.3706,0.2534-1.8804,0.6743
			c0.1387-0.3433,0.2163-0.7163,0.2163-1.1079c0-1.6363-1.3266-2.9615-2.9629-2.9615c-1.6352,0-2.9604,1.3252-2.9604,2.9615
			c0,0.4433,0.0986,0.8628,0.2749,1.2412c-0.5313-0.5-1.2422-0.8076-2.0274-0.8076c-1.6357,0-2.9619,1.3261-2.9619,2.9624
			c0,1.6342,1.3262,2.9614,2.9619,2.9614c0.1001,0,0.2002-0.0049,0.2974-0.0151c-0.8711,0.5151-1.4546,1.4628-1.4546,2.5473
			c0,1.6343,1.3247,2.9595,2.9609,2.9595c1.4502,0,2.6548-1.043,2.9092-2.4219c0.2554,1.3789,1.459,2.4219,2.9116,2.4219
			c1.6343,0,2.9615-1.3252,2.9615-2.9595c0-1.083-0.5811-2.0249-1.4473-2.5434c0.0674,0.0063,0.1318,0.0112,0.2012,0.0112
			C52.6147,41.2285,53.9399,39.9013,53.9399,38.2671z"/>
		<path fill="#4D5152" d="M49.2637,48.1025c-1.1089,0-2.1348-0.4194-2.9111-1.1196c-0.7754,0.7002-1.8008,1.1196-2.9097,1.1196
			c-2.395,0-4.3433-1.9478-4.3433-4.3418c0-0.6045,0.1279-1.1943,0.3647-1.7344c-1.2964-0.7524-2.1694-2.1558-2.1694-3.7593
			c0-2.3955,1.9487-4.3447,4.3442-4.3447c0.1577,0,0.314,0.0083,0.4688,0.0254c0.4243-1.9531,2.166-3.4204,4.2441-3.4204
			c2.0762,0,3.8169,1.4629,4.2451,3.4121c0.126-0.0112,0.2539-0.0171,0.3818-0.0171c2.3945,0,4.3438,1.9492,4.3438,4.3447
			c0,1.5718-0.8389,2.9507-2.0928,3.7139c0.2461,0.5483,0.3779,1.1519,0.3779,1.7798
			C53.6079,46.1548,51.6587,48.1025,49.2637,48.1025z M46.3521,42.916c0.6665,0,1.2378,0.4751,1.3594,1.1304
			c0.1387,0.7485,0.7915,1.2915,1.5522,1.2915c0.8706,0,1.5786-0.7075,1.5786-1.5771c0-0.5596-0.2891-1.0669-0.7744-1.3574
			c-0.5542-0.3315-0.8047-1.0029-0.6035-1.6167c0.2012-0.6133,0.7974-0.9985,1.4434-0.9458c0.0029,0,0.0068,0,0.0098,0
			c0.9375,0,1.6396-0.7061,1.6396-1.5737c0-0.8711-0.708-1.5801-1.5781-1.5801c-0.4688,0-0.8022,0.1948-1,0.3579
			c-0.4883,0.4033-1.187,0.4229-1.6973,0.0493c-0.5103-0.374-0.7017-1.0464-0.4648-1.6328
			c0.0767-0.1904,0.1157-0.3887,0.1157-0.5903c0-0.8706-0.709-1.5791-1.5806-1.5791c-0.8701,0-1.5781,0.7085-1.5781,1.5791
			c0,0.229,0.0493,0.4502,0.1455,0.6577c0.2803,0.6006,0.0942,1.3154-0.4434,1.7041c-0.5371,0.3872-1.2754,0.3394-1.7568-0.1138
			c-0.2959-0.2788-0.6797-0.4321-1.0801-0.4321c-0.8711,0-1.5796,0.709-1.5796,1.5801c0,0.9219,0.834,1.6689,1.7319,1.5713
			c0.644-0.0649,1.2534,0.3237,1.4575,0.9409s-0.0493,1.293-0.6089,1.624c-0.4858,0.2871-0.7759,0.7949-0.7759,1.3574
			c0,0.8696,0.708,1.5771,1.5786,1.5771c0.7603,0,1.4116-0.543,1.5498-1.2905c0.1211-0.6553,0.6924-1.1313,1.3589-1.1313H46.3521z"
			/>
	</g>
	<g>
		<circle fill="#FFFFFF" cx="46.3533" cy="39.7212" r="2.4377"/>
		<path fill="#4D5152" d="M46.3521,43.541c-2.106,0-3.8188-1.7134-3.8188-3.8198s1.7129-3.8198,3.8188-3.8198
			c2.1069,0,3.8213,1.7134,3.8213,3.8198S48.459,43.541,46.3521,43.541z M46.3521,38.666c-0.5811,0-1.0542,0.4736-1.0542,1.0552
			s0.4731,1.0552,1.0542,1.0552c0.5825,0,1.0566-0.4736,1.0566-1.0552S46.9346,38.666,46.3521,38.666z"/>
	</g>
</g>
</svg>
