<?xml version="1.0" encoding="utf-8"?>
<!-- Generator: Adobe Illustrator 17.1.0, SVG Export Plug-In . SVG Version: 6.00 Build 0)  -->
<!DOCTYPE svg PUBLIC "-//W3C//DTD SVG 1.1//EN" "http://www.w3.org/Graphics/SVG/1.1/DTD/svg11.dtd">
<svg version="1.1" id="corn-free" xmlns="http://www.w3.org/2000/svg" xmlns:xlink="http://www.w3.org/1999/xlink" x="0px" y="0px"
	 viewBox="0 0 98.5601 98.5601" enable-background="new 0 0 98.5601 98.5601" xml:space="preserve">
<g id="corn-free-label">
	<g>
		<circle fill="#FFFDE3" cx="49.2798" cy="49.2798" r="48"/>
		<path fill="#4D5152" d="M49.2798,98.5601C22.1069,98.5601,0,76.4526,0,49.2798S22.1069,0,49.2798,0
			s49.2803,22.1069,49.2803,49.2798S76.4526,98.5601,49.2798,98.5601z M49.2798,2.5596c-25.7617,0-46.7202,20.9585-46.7202,46.7202
			s20.9585,46.7197,46.7202,46.7197s46.7197-20.958,46.7197-46.7197S75.0415,2.5596,49.2798,2.5596z"/>
	</g>
	<g>
		
			<rect x="2.4643" y="47.9995" transform="matrix(0.7071 0.7071 -0.7071 0.7071 49.2798 -20.4124)" fill="#4D5152" width="93.6309" height="2.5605"/>
	</g>
</g>
<g id="corn-free-corn">
	<g>
		<path fill="#A1D9B1" d="M62.2046,40.4566h2.0176c0.5576,0,1.0088,0.4521,1.0088,1.0083v21.3247
			c0,6.7539-5.4942,12.248-12.2471,12.248h-2.0176c-0.5576,0-1.0088-0.4512-1.0088-1.0088V52.7046
			C49.9575,45.9512,55.4517,40.4566,62.2046,40.4566z"/>
		<path fill="#4D5152" d="M52.9839,76.3179h-2.0176c-1.2622,0-2.2886-1.0273-2.2886-2.2891V52.7046
			c0-7.4595,6.0679-13.5278,13.5269-13.5278h2.0176c1.2617,0,2.2891,1.0264,2.2891,2.2881v21.3247
			C66.5112,70.2485,60.4429,76.3179,52.9839,76.3179z M51.2378,73.7573h1.7461c6.0469,0,10.9668-4.9199,10.9668-10.9678V41.7363
			h-1.7461c-6.0469,0-10.9668,4.9204-10.9668,10.9683V73.7573z"/>
	</g>
	<g>
		<path fill="#FFB957" d="M47.916,18.5596c-4.5073,0-8.1748,6.1889-8.1748,10.6977v36.7891c0,4.5088,3.6675,8.1758,8.1748,8.1758
			h1.229c4.5078,0,8.1758-3.667,8.1758-8.1758V29.2573c0-4.5088-3.668-10.6977-8.1758-10.6977H47.916z"/>
		<path fill="#4D5152" d="M49.145,75.5024h-1.229c-5.2134,0-9.4546-4.2422-9.4546-9.4561V29.2573
			c0-4.8232,3.9697-11.9775,9.4546-11.9775h1.229c5.4854,0,9.4561,7.1543,9.4561,11.9775v36.7891
			C58.6011,71.2603,54.3589,75.5024,49.145,75.5024z M47.916,19.8394c-3.5513,0-6.895,5.3057-6.895,9.418v36.7891
			c0,3.8027,3.0933,6.8955,6.895,6.8955h1.229c3.8027,0,6.8955-3.0928,6.8955-6.8955V29.2573c0-4.1123-3.3438-9.418-6.8955-9.418
			H47.916z"/>
	</g>
	<g>
		<path fill="#A1D9B1" d="M37.1109,36.7735h-2.5215c-0.6963,0-1.2608,0.5649-1.2608,1.2612v26.6562
			c0,8.4414,6.8672,15.3086,15.3091,15.3086h2.522c0.6963,0,1.2607-0.5644,1.2607-1.2607V52.0835
			C52.4204,43.6416,45.5527,36.7735,37.1109,36.7735z"/>
		<path fill="#4D5152" d="M51.1597,81.2798h-2.522c-9.1475,0-16.5889-7.4414-16.5889-16.5889V38.0347
			c0-1.4014,1.1396-2.541,2.5405-2.541h2.5215c9.1475,0,16.5898,7.4419,16.5898,16.5898v26.6553
			C53.7007,80.1401,52.561,81.2798,51.1597,81.2798z M51.1597,78.7192v1.2803V78.7192L51.1597,78.7192L51.1597,78.7192z
			 M34.5894,38.0532l0.019,26.6377c0,7.7354,6.2935,14.0283,14.0293,14.0283h2.5024V52.0835
			c0-7.7363-6.2935-14.0303-14.0293-14.0303H34.5894z"/>
	</g>
	<g>
		<path fill="#4D5152" d="M56.1069,25.5996H54.187c-0.707,0-1.2803-0.5728-1.2803-1.2798S53.48,23.04,54.187,23.04h1.9199
			c0.707,0,1.2803,0.5728,1.2803,1.2798S56.814,25.5996,56.1069,25.5996z M50.3472,25.5996h-2.5605
			c-0.707,0-1.2798-0.5728-1.2798-1.2798s0.5728-1.2798,1.2798-1.2798h2.5605c0.707,0,1.2803,0.5728,1.2803,1.2798
			S51.0542,25.5996,50.3472,25.5996z M43.9468,25.5996h-2.5601c-0.707,0-1.2798-0.5728-1.2798-1.2798s0.5728-1.2798,1.2798-1.2798
			h2.5601c0.707,0,1.2798,0.5728,1.2798,1.2798S44.6538,25.5996,43.9468,25.5996z"/>
	</g>
	<g>
		<path fill="#4D5152" d="M56.1069,30.0796h-2.5605c-0.707,0-1.2803-0.5728-1.2803-1.2798s0.5732-1.2798,1.2803-1.2798h2.5605
			c0.707,0,1.2803,0.5728,1.2803,1.2798S56.814,30.0796,56.1069,30.0796z M49.7065,30.0796h-2.5601
			c-0.707,0-1.2798-0.5728-1.2798-1.2798s0.5728-1.2798,1.2798-1.2798h2.5601c0.707,0,1.2803,0.5728,1.2803,1.2798
			S50.4136,30.0796,49.7065,30.0796z M43.3066,30.0796h-2.5601c-0.707,0-1.2798-0.5728-1.2798-1.2798s0.5728-1.2798,1.2798-1.2798
			h2.5601c0.707,0,1.2798,0.5728,1.2798,1.2798S44.0137,30.0796,43.3066,30.0796z"/>
	</g>
	<g>
		<path fill="#4D5152" d="M56.1069,34.5591h-2.5605c-0.707,0-1.2803-0.5728-1.2803-1.2798s0.5732-1.2798,1.2803-1.2798h2.5605
			c0.707,0,1.2803,0.5728,1.2803,1.2798S56.814,34.5591,56.1069,34.5591z M49.7065,34.5591h-2.5601
			c-0.707,0-1.2798-0.5728-1.2798-1.2798s0.5728-1.2798,1.2798-1.2798h2.5601c0.707,0,1.2803,0.5728,1.2803,1.2798
			S50.4136,34.5591,49.7065,34.5591z M43.3066,34.5591h-2.5601c-0.707,0-1.2798-0.5728-1.2798-1.2798s0.5728-1.2798,1.2798-1.2798
			h2.5601c0.707,0,1.2798,0.5728,1.2798,1.2798S44.0137,34.5591,43.3066,34.5591z"/>
	</g>
	<g>
		<path fill="#4D5152" d="M56.1167,39.0396c-0.707,0-1.2852-0.5728-1.2852-1.2798s0.5684-1.2798,1.2754-1.2798h0.0098
			c0.707,0,1.2803,0.5728,1.2803,1.2798S56.8237,39.0396,56.1167,39.0396z M52.2661,39.0396h-2.5596
			c-0.707,0-1.2798-0.5728-1.2798-1.2798s0.5728-1.2798,1.2798-1.2798h2.5596c0.707,0,1.2803,0.5728,1.2803,1.2798
			S52.9731,39.0396,52.2661,39.0396z"/>
	</g>
	<g>
		<path fill="#4D5152" d="M46.2363,53.4487c-0.624,0-1.1704-0.457-1.2646-1.0928c-1.1157-7.5283-4.7725-7.4873-4.9346-7.4727
			c-0.6929,0.0137-1.2983-0.5103-1.3379-1.2056s0.4697-1.2939,1.1641-1.3481c0.2461-0.022,6.1562-0.3643,7.6406,9.6514
			c0.1035,0.6992-0.3789,1.3496-1.0786,1.4541C46.3618,53.4438,46.2988,53.4487,46.2363,53.4487z"/>
	</g>
	<g>
		<path fill="#4D5152" d="M45.3584,73.8755c-0.0542,0-0.1094-0.0039-0.165-0.0107c-5.4985-0.708-6.6582-5.4248-6.5029-7.8203
			c0.0464-0.7051,0.6675-1.2363,1.3604-1.1943c0.7036,0.0459,1.2373,0.6514,1.1948,1.3545
			c-0.0254,0.4707-0.1172,4.5557,4.2749,5.1211c0.7012,0.0898,1.1963,0.7314,1.106,1.4326
			C46.5435,73.4038,45.9927,73.8755,45.3584,73.8755z"/>
	</g>
</g>
</svg>
