<?xml version="1.0" encoding="utf-8"?>
<!-- Generator: Adobe Illustrator 17.1.0, SVG Export Plug-In . SVG Version: 6.00 Build 0)  -->
<!DOCTYPE svg PUBLIC "-//W3C//DTD SVG 1.1//EN" "http://www.w3.org/Graphics/SVG/1.1/DTD/svg11.dtd">
<svg version="1.1" id="cruelty-free-2" xmlns="http://www.w3.org/2000/svg" xmlns:xlink="http://www.w3.org/1999/xlink" x="0px"
	 y="0px" viewBox="0 0 98.5601 98.5601" enable-background="new 0 0 98.5601 98.5601" xml:space="preserve">
<g id="cruelty-free-2-label">
	<circle fill="#FFFDE3" cx="49.2798" cy="49.2798" r="48"/>
	<path fill="#4D5152" d="M49.2798,98.5601C22.1069,98.5601,0,76.4526,0,49.2798S22.1069,0,49.2798,0
		s49.2803,22.1069,49.2803,49.2798S76.4526,98.5601,49.2798,98.5601z M49.2798,2.5596c-25.7617,0-46.7202,20.9585-46.7202,46.7202
		s20.9585,46.7197,46.7202,46.7197s46.7197-20.958,46.7197-46.7197S75.0415,2.5596,49.2798,2.5596z"/>
</g>
<g id="cruelty-free-2-hands">
	<path fill="#FFFFFF" d="M25.6948,45.5137h4.7564l11.8926,11.8911c2.3779,2.3789,2.3779,5.9463,2.3779,5.9463v9.5127H31.6411v-2.377
		c0,0,0-2.3799-2.3789-4.7568l-8.3237-8.3252c-2.3789-2.3779-2.3789-4.7559-2.3789-4.7559V33.6221
		c0-1.9697,1.5991-3.5674,3.5679-3.5674c1.9697,0,3.5673,1.5977,3.5673,3.5674v9.5132V45.5137z"/>
	<rect x="29.2622" y="72.8638" fill="#A1D9B1" width="17.8374" height="7.1357"/>
	<g>
		<path fill="#4D5152" d="M46.0015,74.144H30.3613v-3.6572c-0.002-0.0625-0.0693-1.9189-2.0039-3.8516l-8.3242-8.3252
			c-2.7222-2.7217-2.7534-5.542-2.7534-5.6611V33.6221c0-2.6729,2.1743-4.8472,4.8477-4.8472c2.6729,0,4.8472,2.1743,4.8472,4.8472
			v11.186c0.6821-0.3662,1.4609-0.5742,2.2876-0.5742h1.7192L43.249,56.4995c2.7212,2.7227,2.7524,6.6846,2.7524,6.8516V74.144z
			 M32.9209,71.5835h10.521v-8.2324c-0.0005-0.0264-0.0444-3.0811-2.0034-5.041L29.9209,46.7935h-0.6587
			c-1.2612,0-2.2876,1.0264-2.2876,2.2876v0.6597l7.9497,7.9482l-1.8105,1.8105l-8.6987-8.6982V33.6221
			c0-1.2612-1.0264-2.2876-2.2876-2.2876c-1.2617,0-2.2881,1.0264-2.2881,2.2876v19.0269c0.002,0.0625,0.0693,1.917,2.0039,3.8506
			l8.3242,8.3252c2.7222,2.7207,2.7534,5.543,2.7534,5.6621V71.5835z"/>
	</g>
	<g>
		<rect x="29.2622" y="72.8638" fill="#A1D9B1" width="17.8374" height="7.1357"/>
		<path fill="#4D5152" d="M47.0996,81.2798H29.2622c-0.707,0-1.2798-0.5732-1.2798-1.2803v-7.1357
			c0-0.707,0.5728-1.2803,1.2798-1.2803h17.8374c0.707,0,1.2798,0.5732,1.2798,1.2803v7.1357
			C48.3794,80.7065,47.8066,81.2798,47.0996,81.2798z M30.542,78.7192h15.2778V74.144H30.542V78.7192z"/>
	</g>
	<g>
		<path fill="#FFFFFF" d="M72.8657,45.5137h-4.7578L56.2173,57.4048c-2.3789,2.3789-2.3789,5.9463-2.3789,5.9463v9.5127h13.081
			v-2.377c0,0,0-2.3799,2.378-4.7568l8.3252-8.3252c2.3769-2.3779,2.3769-4.7559,2.3769-4.7559V33.6221
			c0-1.9697-1.5976-3.5674-3.5664-3.5674c-1.9697,0-3.5674,1.5977-3.5674,3.5674v9.5132V45.5137z"/>
		<rect x="51.4614" y="72.8638" fill="#A1D9B1" width="17.836" height="7.1357"/>
		<g>
			<path fill="#4D5152" d="M68.1997,74.144H52.5581v-10.793c0-0.167,0.0312-4.1289,2.7539-6.8516l12.2656-12.2656h1.7197
				c0.8271,0,1.6064,0.208,2.2881,0.5747V33.6221c0-2.6729,2.1748-4.8472,4.8477-4.8472c2.6719,0,4.8467,2.1743,4.8467,4.8472
				v19.0269c0,0.1191-0.0312,2.9395-2.752,5.6611l-8.3252,8.3252c-1.9482,1.9473-2.0029,3.833-2.0029,3.8516V74.144z
				 M55.1187,71.5835h10.5205v-1.0967c0-0.1191,0.0312-2.9414,2.7529-5.6621l8.3252-8.3252c1.9326-1.9336,2-3.7881,2.002-3.8662
				V33.6221c0-1.2612-1.0254-2.2876-2.2861-2.2876c-1.2617,0-2.2871,1.0264-2.2871,2.2876l-0.0332,14.8892
				c0.0215,0.187,0.0332,0.377,0.0332,0.5698v1.7202l-8.6992,8.6982l-1.8105-1.8105l7.9492-7.9482v-0.6597
				c0-1.2612-1.0264-2.2876-2.2881-2.2876h-0.6592L57.1226,58.3101c-1.96,1.96-2.0039,5.0146-2.0039,5.0459V71.5835z"/>
		</g>
		<g>
			<path fill="#4D5152" d="M69.2974,81.2798H51.4614c-0.707,0-1.2798-0.5732-1.2798-1.2803v-7.1357
				c0-0.707,0.5728-1.2803,1.2798-1.2803h17.8359c0.707,0,1.2803,0.5732,1.2803,1.2803v7.1357
				C70.5776,80.7065,70.0044,81.2798,69.2974,81.2798z M52.7417,78.7192h15.2754V74.144H52.7417V78.7192z"/>
		</g>
	</g>
	<g>
		<path fill="#4D5152" d="M38.5596,77.7495H28c-0.707,0-1.2798-0.5732-1.2798-1.2803S27.293,75.189,28,75.189h10.5596
			c0.707,0,1.2798,0.5732,1.2798,1.2803S39.2666,77.7495,38.5596,77.7495z"/>
	</g>
	<g>
		<path fill="#4D5152" d="M70.5601,77.7495H59.9995c-0.707,0-1.2803-0.5732-1.2803-1.2803s0.5732-1.2803,1.2803-1.2803h10.5605
			c0.707,0,1.2803,0.5732,1.2803,1.2803S71.2671,77.7495,70.5601,77.7495z"/>
	</g>
</g>
<g id="cruelty-free-2-heart">
	<g>
		<path fill="#FFB957" d="M39.2783,18.5596c-2.6108,0-5.0625,0.9565-6.7246,2.625c-1.6274,1.6328-2.4834,3.9004-2.4741,6.5566
			c0.0264,7.6621,6.269,12.2105,11.7041,15.3159c3.7363,2.1353,6.855,4.4571,7.4956,4.9419
			c0.6411-0.4853,3.7642-2.8081,7.4966-4.9419C67.1245,37.145,68.4663,31.7661,68.48,27.7412
			c0.0088-2.6562-0.8457-4.9238-2.4736-6.5566c-1.6641-1.6685-4.1133-2.625-6.7276-2.625c-1.7763,0-3.5019,0.4326-4.9931,1.2514
			c-2.1836,1.2012-3.46,2.9561-4.1451,4.2173c-0.1704,0.316-0.5009,0.5127-0.8613,0.5127l0,0c-0.3589,0-0.6894-0.1967-0.8613-0.5127
			c-0.6846-1.2612-1.9595-3.0161-4.1445-4.2173C42.7847,18.9922,41.0562,18.5596,39.2783,18.5596z"/>
		<path fill="#4D5152" d="M49.2793,49.6045l-0.7725-0.585c-0.582-0.4404-3.6719-2.7441-7.3584-4.8511
			c-5.7344-3.2764-12.3203-8.1045-12.3486-16.4229c-0.0107-3.0039,0.9741-5.585,2.8472-7.4648
			c1.9004-1.9072,4.6816-3.001,7.6313-3.001c1.9946,0,3.9351,0.4873,5.6118,1.4097c2.1997,1.2095,3.5757,2.9111,4.3892,4.2671
			c0.8154-1.3574,2.1909-3.0576,4.3892-4.2671c1.6807-0.9224,3.6201-1.4097,5.6104-1.4097c2.9492,0,5.7314,1.0938,7.6338,3.001
			c1.873,1.8784,2.8574,4.4595,2.8477,7.4648c-0.0146,4.3701-1.4326,10.186-12.3496,16.4229
			c-3.6973,2.1138-6.7783,4.4121-7.3589,4.8511L49.2793,49.6045z M39.2783,19.8394c-2.2739,0-4.3945,0.8198-5.8179,2.2485
			c-1.3823,1.3872-2.1089,3.3403-2.1011,5.6489c0.0244,7.0068,5.9229,11.2744,11.0596,14.209
			c2.9683,1.6968,5.5654,3.5176,6.8604,4.4604c1.2935-0.9414,3.8853-2.7593,6.8608-4.4604
			c9.7793-5.5864,11.0469-10.5278,11.0596-14.209c0.0078-2.3096-0.7188-4.2627-2.0996-5.6484
			c-1.4258-1.4292-3.5469-2.249-5.8213-2.249c-1.5605,0-3.0742,0.3784-4.377,1.0938c-1.9131,1.0522-3.0332,2.5962-3.6367,3.7061
			c-0.3926,0.7275-1.1538,1.1816-1.9858,1.1816c-0.8286,0-1.5894-0.4521-1.9858-1.1807c-0.603-1.1113-1.7231-2.6553-3.6367-3.7075
			C42.3564,20.2173,40.8423,19.8394,39.2783,19.8394z"/>
	</g>
	<g>
		<path fill="#4D5152" d="M35.4009,28.6406c-0.002,0-0.0044,0-0.0063,0c-0.707-0.0034-1.2773-0.5791-1.2734-1.2861
			c0.0068-1.4077,1.1772-3.2817,2.7227-4.3594c1.3057-0.9121,2.728-1.1587,4.0039-0.6958c0.6646,0.2407,1.0078,0.9751,0.7666,1.6396
			c-0.2407,0.6646-0.9766,1.0068-1.6396,0.7666c-0.604-0.2188-1.2397,0.0908-1.6665,0.3892
			c-1.0493,0.7319-1.6255,1.8848-1.6274,2.2725C36.6772,28.0718,36.105,28.6406,35.4009,28.6406z"/>
	</g>
</g>
</svg>
