<?xml version="1.0" encoding="utf-8"?>
<!-- Generator: Adobe Illustrator 17.1.0, SVG Export Plug-In . SVG Version: 6.00 Build 0)  -->
<!DOCTYPE svg PUBLIC "-//W3C//DTD SVG 1.1//EN" "http://www.w3.org/Graphics/SVG/1.1/DTD/svg11.dtd">
<svg version="1.1" id="cruelty-free" xmlns="http://www.w3.org/2000/svg" xmlns:xlink="http://www.w3.org/1999/xlink" x="0px"
	 y="0px" viewBox="0 0 98.7651 98.7651" enable-background="new 0 0 98.7651 98.7651" xml:space="preserve">
<g id="cruelty-free-label">
	<circle fill="#FFFDE3" cx="49.3823" cy="49.3823" r="48"/>
	<path fill="#4D5152" d="M49.3823,98.7651C22.1528,98.7651,0,76.6118,0,49.3823S22.1528,0,49.3823,0
		s49.3828,22.1528,49.3828,49.3823S76.6118,98.7651,49.3823,98.7651z M49.3823,2.7646c-25.7051,0-46.6177,20.9126-46.6177,46.6177
		s20.9126,46.6172,46.6177,46.6172s46.6172-20.9121,46.6172-46.6172S75.0874,2.7646,49.3823,2.7646z"/>
</g>
<g id="cruelty-free-heart">
	<g>
		<path fill="#FFB957" d="M35.9018,27.9409c-3.5195,0-6.8242,1.2891-9.0644,3.5376c-2.1939,2.2017-3.3477,5.2578-3.3355,8.8374
			c0.0352,10.3291,7.6343,16.375,14.4966,21.2861c5.3042,3.7949,10.5195,8.5664,11.3823,9.2217
			c0.8653-0.6553,6.9497-6.1328,11.3863-9.8613c12.6152-10.6055,14.4765-15.2212,14.4951-20.6465
			c0.0117-3.5796-1.1397-6.6357-3.334-8.8359c-2.2422-2.25-5.5449-3.5391-9.0674-3.5391c-2.3945,0-4.7207,0.582-6.7314,1.686
			c-2.9424,1.6201-4.6641,3.9854-5.5869,5.6856c-0.2295,0.4253-0.6748,0.6914-1.1617,0.6914l0,0
			c-0.4839,0-0.9287-0.2661-1.1596-0.6914c-0.9234-1.7002-2.6416-4.0655-5.586-5.6856
			C40.6274,28.5229,38.2973,27.9409,35.9018,27.9409z"/>
		<path fill="#4D5152" d="M49.3799,72.5591l-0.835-0.6348c-0.2285-0.1729-0.749-0.6201-1.4873-1.2578
			c-2.0796-1.7969-5.9512-5.1416-9.8633-7.9404c-7.6079-5.4443-15.0381-11.6592-15.0747-22.4053
			c-0.0137-3.9551,1.2793-7.3501,3.7388-9.8179c2.4971-2.5068,6.1577-3.9443,10.0435-3.9443c2.6313,0,5.1899,0.6421,7.3994,1.8569
			c3.1816,1.751,5.0571,4.2847,6.0806,6.1382c1.022-1.8521,2.897-4.3843,6.0806-6.1377c2.2139-1.2153,4.7715-1.8574,7.3984-1.8574
			c3.8857,0,7.5479,1.438,10.0469,3.9458c2.457,2.4639,3.75,5.8584,3.7373,9.8159c-0.0215,6.0532-2.3447,11.0708-14.9883,21.7007
			c-2.4697,2.0752-5.4053,4.6543-7.7646,6.7266c-2.1387,1.8789-3.2744,2.873-3.6768,3.1777L49.3799,72.5591z M35.9019,29.3232
			c-3.1558,0-6.1025,1.1411-8.085,3.1309c-1.9297,1.9365-2.9434,4.6533-2.9326,7.8569c0.0322,9.4404,6.8936,15.1396,13.9189,20.167
			c4.0146,2.8721,7.9487,6.2705,10.062,8.0957c0.188,0.1631,0.3604,0.3125,0.5156,0.4463c0.6646-0.5742,1.6313-1.4229,2.686-2.3496
			c2.3691-2.0811,5.3184-4.6719,7.8105-6.7666c12.9463-10.8833,13.9873-15.1484,14.002-19.5928
			c0.0107-3.2061-1.002-5.9224-2.9297-7.855c-1.9844-1.9912-4.9326-3.1328-8.0889-3.1328c-2.1631,0-4.2607,0.5239-6.0664,1.5156
			c-2.6533,1.4609-4.2041,3.5977-5.0371,5.1333c-0.4697,0.8711-1.3813,1.4141-2.3765,1.4141c-0.9912,0-1.9009-0.542-2.3745-1.4141
			c-0.8345-1.5366-2.3862-3.6753-5.0376-5.1343C40.1665,29.8472,38.0688,29.3232,35.9019,29.3232z"/>
	</g>
	<g>
		<path fill="#4D5152" d="M30.6748,41.1851c-0.002,0-0.0044,0-0.0068,0c-0.7632-0.0034-1.3794-0.6255-1.3755-1.3892
			c0.0088-1.7959,1.5234-4.2017,3.5229-5.5962c1.667-1.1626,3.4712-1.481,5.0835-0.896c0.7178,0.2603,1.0884,1.0532,0.8276,1.771
			c-0.2603,0.7173-1.0547,1.0864-1.771,0.8276c-0.9531-0.3447-1.9165,0.1172-2.5586,0.5654
			c-1.4233,0.9922-2.3364,2.6421-2.3398,3.3418C32.0537,40.5708,31.4351,41.1851,30.6748,41.1851z"/>
	</g>
</g>
<g id="cruelty-free-leaves_1_">
	<g>
		<path fill="#A1D9B1" d="M70.5434,47.0244c4.7403-0.7412,8.5235-0.8081,8.6827-0.8106c0.2753-0.0039,0.5371,0.1241,0.7031,0.3457
			c0.165,0.2198,0.2168,0.5074,0.1347,0.771c-0.0459,0.1524-1.1689,3.7666-3.205,8.1104
			c-2.7618,5.8867-5.7452,10.0615-8.8711,12.4062c-4.0313,3.0274-8.0635,2.7618-10.7373,2.0088
			c-2.8555-0.8076-4.7608-2.3125-4.8399-2.3769c-0.0566-0.0449-0.1084-0.0967-0.1533-0.1553
			c-0.043-0.0586-0.0781-0.123-0.1055-0.1885c-0.041-0.0967-0.9521-2.3447-0.9287-5.3134c0.0225-2.7764,0.8946-6.7227,4.9287-9.7461
			C59.2749,49.73,64.1186,48.0302,70.5434,47.0244z"/>
		<path fill="#4D5152" d="M60.7358,71.7319c-1.2764,0-2.5752-0.1836-3.8604-0.5449c-3.1846-0.9014-5.252-2.5654-5.3379-2.6367
			c-0.1328-0.1045-0.2646-0.2383-0.377-0.3857c-0.124-0.168-0.2139-0.3271-0.2842-0.4961c-0.041-0.0957-1.062-2.541-1.0356-5.8574
			c0.0249-3.0908,0.9966-7.4795,5.4819-10.8418c3.3047-2.4819,8.3545-4.269,15.0068-5.3105
			c4.8438-0.7573,8.7129-0.8247,8.875-0.8271c0.001,0,0.001,0,0.001,0c0.7373,0,1.4082,0.3364,1.8301,0.8994
			c0.4307,0.5732,0.5615,1.3257,0.3486,2.0103c-0.0078,0.0249-1.1582,3.7739-3.2734,8.2866
			c-2.8604,6.0967-5.9873,10.4453-9.2939,12.9248C66.3618,70.7964,63.6431,71.7319,60.7358,71.7319z M53.3804,66.48
			c0.4229,0.3125,2.0186,1.416,4.2461,2.0459c3.373,0.9492,6.6875,0.3506,9.5312-1.7842c2.9414-2.2061,5.7842-6.2061,8.4492-11.8877
			c1.502-3.2041,2.4941-5.9937,2.9102-7.2354c-1.3096,0.0522-4.2598,0.2241-7.7598,0.7715
			c-6.2002,0.9707-10.835,2.583-13.7754,4.791c-3.5811,2.6836-4.3564,6.1865-4.376,8.6514
			C52.5874,64.1597,53.2046,66.0034,53.3804,66.48z"/>
	</g>
	<g>
		<path fill="#4D5152" d="M53.395,68.8521c-0.4033,0-0.8027-0.1758-1.0762-0.5137c-0.4795-0.5928-0.3877-1.4639,0.2061-1.9443
			l17.0146-13.7656c0.5928-0.4785,1.4639-0.3887,1.9443,0.2061c0.4795,0.5928,0.3877,1.4639-0.2061,1.9443L54.2632,68.5444
			C54.0073,68.7505,53.7007,68.8521,53.395,68.8521z"/>
	</g>
	<g>
		<g>
			<path fill="#4D5152" d="M69.3384,60.98c-0.041,0-0.082-0.002-0.124-0.0059l-5.8193-0.5156
				c-0.7607-0.0674-1.3223-0.7383-1.2549-1.499s0.7305-1.332,1.499-1.2549l5.8193,0.5156c0.7607,0.0674,1.3223,0.7383,1.2549,1.499
				C70.6499,60.438,70.0464,60.98,69.3384,60.98z"/>
		</g>
		<g>
			<path fill="#4D5152" d="M63.3188,60.2007c-0.0898,0-0.1797-0.0088-0.2705-0.0264c-0.749-0.1484-1.2354-0.876-1.0879-1.625
				l1.1338-5.7324c0.1484-0.75,0.8818-1.2305,1.625-1.0879c0.749,0.1484,1.2354,0.876,1.0879,1.625l-1.1338,5.7324
				C64.5425,59.7446,63.9653,60.2007,63.3188,60.2007z"/>
		</g>
	</g>
	<g>
		<g>
			<path fill="#4D5152" d="M64.0024,66.4136c-0.041,0-0.082-0.002-0.123-0.0059l-7.4551-0.6582
				c-0.7607-0.0674-1.3232-0.7383-1.2559-1.498c0.0674-0.7617,0.7471-1.3271,1.498-1.2559l7.4551,0.6582
				c0.7607,0.0674,1.3232,0.7383,1.2559,1.498C65.314,65.8716,64.7104,66.4136,64.0024,66.4136z"/>
		</g>
		<g>
			<path fill="#4D5152" d="M56.2925,65.4146c-0.0898,0-0.1797-0.0088-0.2705-0.0264c-0.749-0.1484-1.2354-0.876-1.0879-1.625
				l1.4521-7.3408c0.1494-0.749,0.8789-1.2344,1.625-1.0879c0.749,0.1484,1.2354,0.876,1.0879,1.625l-1.4521,7.3408
				C57.5161,64.9585,56.939,65.4146,56.2925,65.4146z"/>
		</g>
	</g>
</g>
<g id="cruelty-free-leaves">
	<g>
		<path fill="#A1D9B1" d="M28.2212,47.0244c-4.7412-0.7412-8.524-0.8081-8.6826-0.8106c-0.2764-0.0039-0.5372,0.1241-0.7042,0.3457
			c-0.1645,0.2198-0.2158,0.5074-0.1337,0.771c0.0454,0.1524,1.1684,3.7666,3.205,8.1104
			c2.7613,5.8867,5.7456,10.0615,8.8711,12.4062c4.0313,3.0274,8.0635,2.7618,10.7364,2.0088
			c2.8564-0.8076,4.7612-2.3125,4.8403-2.3769c0.0576-0.0449,0.1089-0.0967,0.1528-0.1553c0.0435-0.0586,0.0786-0.123,0.106-0.1885
			c0.0405-0.0967,0.9521-2.3447,0.9287-5.3134c-0.023-2.7764-0.895-6.7227-4.9292-9.7461
			C39.4887,49.73,34.6455,48.0302,28.2212,47.0244z"/>
		<path fill="#4D5152" d="M38.0293,71.7319c-0.0005,0-0.0005,0-0.0005,0c-2.9072,0-5.6265-0.9355-8.082-2.7793
			c-3.3071-2.4805-6.4336-6.8291-9.2925-12.9248c-2.1113-4.502-3.2676-8.2666-3.2783-8.3022
			c-0.208-0.6685-0.0781-1.4199,0.3521-1.9946c0.4253-0.5645,1.0967-0.8994,1.7983-0.8994
			c0.1958,0.0024,4.0654,0.0698,8.9082,0.8271c6.6523,1.0415,11.7017,2.8286,15.0073,5.3115
			c4.4839,3.3604,5.4561,7.75,5.4814,10.8398c0.0259,3.2871-0.9927,5.7559-1.0361,5.8594c-0.0713,0.1709-0.1626,0.332-0.2705,0.4775
			c-0.1211,0.1621-0.2588,0.3018-0.4131,0.4219c-0.063,0.0518-2.1299,1.7168-5.3145,2.6172
			C40.6035,71.5483,39.3052,71.7319,38.0293,71.7319z M20.2485,47.6187c0.4219,1.2554,1.4194,4.0586,2.9087,7.2354
			c2.665,5.6807,5.5078,9.6807,8.4492,11.8877c1.9668,1.4766,4.1274,2.2256,6.4224,2.2256h0.0005
			c1.0225,0,2.0684-0.1484,3.1089-0.4424c2.2388-0.6328,3.8389-1.7441,4.2451-2.0439c0.1763-0.4795,0.7935-2.3271,0.7754-4.6484
			c-0.0205-2.4648-0.7959-5.9678-4.376-8.6504c-2.9414-2.209-7.5757-3.8213-13.7754-4.792
			C24.5112,47.8438,21.564,47.6714,20.2485,47.6187z"/>
	</g>
	<g>
		<path fill="#4D5152" d="M45.3691,68.8521c-0.3052,0-0.6128-0.1006-0.8687-0.3076L27.4858,54.7788
			c-0.5933-0.4805-0.6851-1.3516-0.2051-1.9443c0.4805-0.5938,1.3511-0.6855,1.9443-0.2061L46.2397,66.394
			c0.5933,0.4805,0.6851,1.3516,0.2051,1.9443C46.1719,68.6763,45.772,68.8521,45.3691,68.8521z"/>
	</g>
	<g>
		<g>
			<path fill="#4D5152" d="M29.4258,60.98c-0.7085,0-1.312-0.542-1.3755-1.2607c-0.0674-0.7607,0.4946-1.4316,1.2549-1.499
				l5.8198-0.5156c0.7612-0.0781,1.4316,0.4951,1.499,1.2549c0.0674,0.7607-0.4946,1.4316-1.2549,1.499l-5.8198,0.5156
				C29.5078,60.978,29.4663,60.98,29.4258,60.98z"/>
		</g>
		<g>
			<path fill="#4D5152" d="M35.4453,60.2007c-0.647,0-1.2246-0.4561-1.3545-1.1143l-1.1333-5.7324
				c-0.1484-0.749,0.3389-1.4766,1.0879-1.625c0.7466-0.1455,1.4761,0.3398,1.624,1.0879l1.1333,5.7324
				c0.1484,0.749-0.3389,1.4766-1.0879,1.625C35.6245,60.1919,35.5342,60.2007,35.4453,60.2007z"/>
		</g>
	</g>
	<g>
		<g>
			<path fill="#4D5152" d="M34.7632,66.4136c-0.7085,0-1.312-0.542-1.3755-1.2607c-0.0674-0.7607,0.4946-1.4316,1.2554-1.499
				l7.4541-0.6582c0.7651-0.0723,1.4316,0.4951,1.4985,1.2549c0.0674,0.7607-0.4946,1.4316-1.2554,1.499l-7.4541,0.6582
				C34.8447,66.4116,34.8037,66.4136,34.7632,66.4136z"/>
		</g>
		<g>
			<path fill="#4D5152" d="M42.4722,65.4146c-0.6465,0-1.2241-0.4561-1.3545-1.1143l-1.4526-7.3408
				c-0.1484-0.749,0.3389-1.4766,1.0874-1.625c0.7515-0.1455,1.4761,0.3389,1.6245,1.0879l1.4526,7.3408
				c0.1484,0.749-0.3389,1.4766-1.0874,1.625C42.6514,65.4058,42.561,65.4146,42.4722,65.4146z"/>
		</g>
	</g>
</g>
</svg>
