<?xml version="1.0" encoding="utf-8"?>
<!-- Generator: Adobe Illustrator 17.1.0, SVG Export Plug-In . SVG Version: 6.00 Build 0)  -->
<!DOCTYPE svg PUBLIC "-//W3C//DTD SVG 1.1//EN" "http://www.w3.org/Graphics/SVG/1.1/DTD/svg11.dtd">
<svg version="1.1" id="crustean-free" xmlns="http://www.w3.org/2000/svg" xmlns:xlink="http://www.w3.org/1999/xlink" x="0px"
	 y="0px" viewBox="0 0 98.5601 98.5601" enable-background="new 0 0 98.5601 98.5601" xml:space="preserve">
<g id="crustean-free-label">
	<g>
		<circle fill="#A1D9B1" cx="49.2798" cy="49.2798" r="48"/>
		<path fill="#4D5152" d="M49.2798,98.5601C22.1069,98.5601,0,76.4526,0,49.2798S22.1069,0,49.2798,0
			s49.2803,22.1069,49.2803,49.2798S76.4526,98.5601,49.2798,98.5601z M49.2798,2.5596c-25.7617,0-46.7202,20.9585-46.7202,46.7202
			s20.9585,46.7197,46.7202,46.7197s46.7197-20.958,46.7197-46.7197S75.0415,2.5596,49.2798,2.5596z"/>
	</g>
	<g>
		
			<rect x="2.4644" y="47.9998" transform="matrix(0.7071 0.7071 -0.7071 0.7071 49.2801 -20.4119)" fill="#4D5152" width="93.6298" height="2.5605"/>
	</g>
</g>
<g id="crustean-free-scollop">
	<g>
		<path fill="#FFB957" d="M79.8189,49.0523c-0.7198-4.0176-2.211-7.4639-5.3858-4.9024c0,0,4.1201-5.7939,0.6006-10.4028
			c-2.1016-2.7549-5.5322-2.2222-6.3525,0.04l0.8203-2.2622c0.8447-2.3291,0.0244-4.9087-2.0332-6.4028
			c-3.6563-2.6533-8.96-0.5698-9.583,3.7651l0.039-0.2788c0.7178-4.9863-3.3545-9.4297-8.643-9.4297
			c-5.2911,0-9.3628,4.4434-8.6455,9.4297l0.039,0.2725c-0.6284-4.3296-5.9292-6.4112-9.583-3.7588
			c-2.0581,1.4941-2.8774,4.0737-2.0327,6.4028l0.8198,2.2622c-0.8198-2.2622-4.2505-2.7949-6.3535-0.04
			c-3.5185,4.6089,0.6016,10.4028,0.6016,10.4028c-3.1739-2.5615-4.6665,0.8848-5.3868,4.9024
			c-0.8872,4.9541,1.629,7.0361,4.6695,9.6884l14.9365,13.1768h21.8672l14.9355-13.1768
			C78.1919,56.0884,80.7066,54.0064,79.8189,49.0523z"/>
		<path fill="#4D5152" d="M60.2134,73.1978H38.3462c-0.312,0-0.6128-0.1143-0.8467-0.3203l-15.104-13.3223
			c-3.041-2.6514-5.9136-5.1543-4.915-10.7285c0.2871-1.6021,1.1299-6.3037,4.125-6.7964c-0.9126-2.3955-1.499-5.9146,0.9023-9.0601
			c1.2759-1.6709,3.1997-2.5469,5.0112-2.3403c-0.3652-2.4785,0.6782-4.9883,2.8208-6.5435
			c1.2803-0.9297,2.791-1.4204,4.3691-1.4204c1.9551,0,3.7295,0.7144,5.04,1.9077c0.3862-1.1626,1.0034-2.2559,1.8306-3.2104
			c1.9077-2.2017,4.7148-3.4644,7.7017-3.4644c2.9858,0,5.7925,1.2627,7.6997,3.4639c0.8271,0.9551,1.4443,2.0479,1.8301,3.21
			c1.3096-1.1929,3.084-1.9072,5.0391-1.9072c1.5781,0,3.0898,0.4912,4.3701,1.4204c2.1426,1.5562,3.1865,4.0654,2.8213,6.5439
			c1.8135-0.2036,3.7354,0.6689,5.0098,2.3408c2.4023,3.1455,1.8154,6.6641,0.9033,9.0596c2.9951,0.4922,3.8369,5.1943,4.124,6.7964
			c0.999,5.5762-1.876,8.0811-4.9209,10.7324l-0.168,0.1465L61.0601,72.8774C60.8267,73.0835,60.5249,73.1978,60.2134,73.1978z
			 M38.8301,70.6372H59.729l14.748-13.0088c2.9053-2.5303,4.8252-4.2021,4.082-8.3506c-0.6689-3.7334-1.6504-4.7295-2.125-4.7295
			c-0.1709,0-0.5527,0.0776-1.1973,0.5977c-0.4961,0.4019-1.2158,0.3755-1.6807-0.064c-0.4658-0.438-0.5371-1.1528-0.166-1.6738
			c0.0332-0.0483,3.5215-5.0933,0.626-8.8843c-0.6611-0.8672-1.5469-1.3643-2.4297-1.3643c-0.8125,0-1.4639,0.4077-1.7021,1.064
			c-0.2412,0.6641-0.9717,1.0088-1.6396,0.7666c-0.5205-0.1885-0.8438-0.6797-0.8438-1.2031c0-0.145,0.0244-0.2925,0.0771-0.4365
			l0.8203-2.2622c0.6494-1.7905,0.0137-3.772-1.582-4.9307c-0.8398-0.6099-1.8311-0.9321-2.8662-0.9321
			c-2.0596,0-4.335,1.3203-4.6982,3.8438c-0.1006,0.6992-0.7607,1.1855-1.4463,1.085c-0.6992-0.0991-1.1855-0.7456-1.0879-1.4448
			l0.0391-0.2788c0.2812-1.9546-0.291-3.8677-1.6113-5.3916c-1.4199-1.6396-3.5215-2.5806-5.7642-2.5806
			c-2.2437,0-4.3457,0.9409-5.7666,2.5811c-1.3203,1.5234-1.8926,3.4365-1.6118,5.3867l0.0386,0.2695c0,0.0005,0,0.001,0,0.001
			l0.0005,0.0024c0.1001,0.6992-0.3853,1.3477-1.0845,1.4487c-0.7017,0.103-1.3477-0.3843-1.4492-1.083
			c-0.3657-2.5205-2.6411-3.8394-4.6992-3.8394c-1.0342,0-2.0254,0.3223-2.8652,0.9321c-1.5952,1.1582-2.231,3.1396-1.5815,4.9307
			l0.8203,2.2627c0.0518,0.144,0.0767,0.2915,0.0767,0.436c0,0.5234-0.3237,1.0146-0.8442,1.2036
			c-0.6655,0.2383-1.3984-0.103-1.6396-0.7676c-0.2373-0.6562-0.8896-1.0635-1.7012-1.0635c-0.8833,0-1.7695,0.4971-2.4312,1.3643
			c-2.9126,3.8149,0.5913,8.834,0.627,8.8843c0.3706,0.521,0.2998,1.2358-0.166,1.6738c-0.4653,0.4385-1.1841,0.4648-1.6807,0.064
			c-0.644-0.52-1.0264-0.5977-1.1963-0.5977c-0.4751,0-1.4575,0.9966-2.127,4.73c-0.7422,4.145,1.1753,5.8169,4.0776,8.3472
			l0.1733,0.1504L38.8301,70.6372z"/>
	</g>
	<g>
		
			<rect x="23.1577" y="48.2966" transform="matrix(0.1989 0.98 -0.98 0.1989 84.5297 -4.2606)" fill="#4D5152" width="43.4267" height="2.5601"/>
	</g>
	<g>
		
			<rect x="52.5474" y="27.3745" transform="matrix(0.98 0.1991 -0.1991 0.98 10.8503 -9.7337)" fill="#4D5152" width="2.5605" height="43.4273"/>
	</g>
	<g>
		
			<rect x="57.9291" y="30.135" transform="matrix(0.8859 0.4639 -0.4639 0.8859 30.7548 -21.565)" fill="#4D5152" width="2.5597" height="43.1856"/>
	</g>
	<g>
		
			<rect x="60.5423" y="39.1879" transform="matrix(0.7256 0.6882 -0.6882 0.7256 56.5649 -26.7521)" fill="#4D5152" width="2.56" height="36.7063"/>
	</g>
	<g>
		
			<rect x="17.7883" y="50.4476" transform="matrix(0.4588 0.8886 -0.8886 0.4588 67.2418 -6.937)" fill="#4D5152" width="43.0538" height="2.5599"/>
	</g>
	<g>
		
			<rect x="18.0216" y="56.0479" transform="matrix(0.683 0.7304 -0.7304 0.683 53.4595 -8.5174)" fill="#4D5152" width="37.0407" height="2.5599"/>
	</g>
	<g>
		<path fill="#FFFDE3" d="M38.5869,78.7847c-0.9394,0-1.9458-1.3877-1.9458-3.4541c0-2.0528,1.0274-3.586,1.9458-3.586h21.3863
			c0.9179,0,1.9453,1.5332,1.9453,3.586c0,2.0664-1.0059,3.4541-1.9453,3.4541H38.5869z"/>
		<g>
			<path fill="#4D5152" d="M59.8823,73.0239c0.251,0.1846,0.7569,1.0088,0.7569,2.3067c0,1.2637-0.4883,2.0283-0.7207,2.1748
				H38.6416c-0.2319-0.1465-0.7202-0.9111-0.7202-2.1748c0-1.2979,0.5049-2.1221,0.7568-2.3067H59.8823 M59.9732,70.4644H38.5869
				c-1.7812,0-3.2256,2.1787-3.2256,4.8662c0,2.6894,1.4444,4.7344,3.2256,4.7344h21.3863c1.7812,0,3.2255-2.045,3.2255-4.7344
				C63.1987,72.6431,61.7544,70.4644,59.9732,70.4644L59.9732,70.4644z"/>
		</g>
	</g>
	<g>
		<path fill="#FFB957" d="M49.2803,67.5972c3.8286,0,7.3393,1.1592,10.1216,2.2685l-7.8086,8.584
			c-1.1289,1.2412-3.4981,1.2412-4.627,0l-7.8091-8.584C41.94,68.7564,45.4507,67.5972,49.2803,67.5972z"/>
		<path fill="#4D5152" d="M49.2798,80.6606c-1.292,0-2.4805-0.4922-3.2603-1.3496l-9.0522-9.9502l1.7158-0.6846
			c2.7559-1.0977,6.4507-2.3594,10.5972-2.3594c4.146,0,7.8403,1.2617,10.5952,2.3604l1.7158,0.6836l-9.0508,9.9502
			C51.7603,80.1685,50.5718,80.6606,49.2798,80.6606z M41.3716,70.3979l6.5415,7.1904c0.584,0.6406,2.1509,0.6406,2.7329,0
			l6.542-7.1904c-2.2666-0.8008-4.9893-1.5205-7.9077-1.5205C46.3613,68.8774,43.6387,69.5972,41.3716,70.3979z"/>
	</g>
</g>
</svg>
