<?xml version="1.0" encoding="utf-8"?>
<!-- Generator: Adobe Illustrator 17.1.0, SVG Export Plug-In . SVG Version: 6.00 Build 0)  -->
<!DOCTYPE svg PUBLIC "-//W3C//DTD SVG 1.1//EN" "http://www.w3.org/Graphics/SVG/1.1/DTD/svg11.dtd">
<svg version="1.1" id="dairy-free" xmlns="http://www.w3.org/2000/svg" xmlns:xlink="http://www.w3.org/1999/xlink" x="0px" y="0px"
	 viewBox="0 0 98.5601 98.5601" enable-background="new 0 0 98.5601 98.5601" xml:space="preserve">
<g id="dairy-free-label">
	<g>
		<circle fill="#FFB957" cx="49.2798" cy="49.2798" r="48"/>
		<path fill="#4D5152" d="M49.2798,98.5601C22.1069,98.5601,0,76.4526,0,49.2798S22.1069,0,49.2798,0
			s49.2803,22.1069,49.2803,49.2798S76.4526,98.5601,49.2798,98.5601z M49.2798,2.5596c-25.7617,0-46.7202,20.9585-46.7202,46.7202
			s20.9585,46.7197,46.7202,46.7197s46.7197-20.958,46.7197-46.7197S75.0415,2.5596,49.2798,2.5596z"/>
	</g>
	<g>
		
			<rect x="2.4645" y="47.9998" transform="matrix(0.7071 0.7071 -0.7071 0.7071 49.2797 -20.4123)" fill="#4D5152" width="93.6305" height="2.5605"/>
	</g>
</g>
<g id="dairy-free-milk">
	<g id="dairy-free-milk-icon">
		<path fill="#FFFFFF" d="M60.4663,28.2002c-1.0595-1.4668-1.7256-2.3887-2.0732-2.8774H38.94l1.83,2.7812
			c1.5171,2.3067,3.4161,5.1909,4.0987,6.231h0.2949h19.7158C63.687,32.6568,61.897,30.1792,60.4663,28.2002z"/>
		<path fill="#FFFFFF" d="M43.8872,35.6148l-0.5405,44.3847c1.1645,0,22.355,0,23.519,0c0-1.2119,0-43.1733,0-44.3847
			C65.7857,35.6148,43.8872,35.6148,43.8872,35.6148z"/>
		<path fill="#FFFFFF" d="M38.3692,18.5596c0,0.8071,0,4.6763,0,5.4834c1.1645,0,20.5522,0,21.7133,0c0-0.8071,0-4.6763,0-5.4834
			C58.9214,18.5596,39.5337,18.5596,38.3692,18.5596z"/>
	</g>
	<path fill="#FFFFFF" d="M45.1636,34.335h-0.2949c-0.6826-1.0401-2.5816-3.9243-4.0987-6.231l-1.83-2.7812h19.4531
		c0.3476,0.4887,1.0137,1.4106,2.0732,2.8774c1.4307,1.979,3.2207,4.4566,4.4131,6.1348H45.1636z"/>
	<path fill="#FFFFFF" d="M43.3467,79.9995c1.1645,0,22.355,0,23.519,0c0-1.2119,0-43.1733,0-44.3847c-1.08,0-22.9785,0-22.9785,0"/>
	<g>
		<path fill="#A1D9B1" d="M66.1333,64.106c-6.9687-5.875-14.5781,5.875-21.5469,0c0-5.7598,0-11.5196,0-17.2798
			c6.9688,5.8755,14.5782-5.876,21.5469,0C66.1333,52.5864,66.1333,58.3462,66.1333,64.106z"/>
		<g>
			<path fill="#4D5152" d="M48.7388,49.2373c-1.8931,0-3.7925-0.5342-5.6172-2.0728c-0.5405-0.4556-0.6089-1.2632-0.1533-1.8037
				c0.4551-0.5415,1.2632-0.6099,1.8037-0.1533c2.9297,2.4707,6.1387,1.3667,9.8516,0.0884
				c3.8887-1.3389,8.2949-2.8545,12.335,0.5518c0.54,0.4556,0.6094,1.2632,0.1533,1.8037
				c-0.4541,0.5405-1.2627,0.6099-1.8037,0.1533c-2.9316-2.4712-6.1396-1.3662-9.8516-0.0884
				C53.3247,48.4502,51.0366,49.2373,48.7388,49.2373z"/>
		</g>
		<g>
			<path fill="#4D5152" d="M48.4878,67.0815c-1.8076,0-3.6196-0.5244-5.3662-1.9971c-0.5405-0.4551-0.6089-1.2627-0.1533-1.8037
				c0.4551-0.54,1.2632-0.6094,1.8037-0.1533c2.9028,2.4482,6.1025,1.2139,9.8066-0.2158
				c3.8975-1.5039,8.3145-3.2109,12.3799,0.2158c0.54,0.4551,0.6094,1.2627,0.1533,1.8037
				c-0.4551,0.5391-1.2627,0.6094-1.8037,0.1533c-2.9023-2.4473-6.1025-1.2148-9.8066,0.2158
				C53.2788,66.1577,50.8862,67.0815,48.4878,67.0815z"/>
		</g>
		<g>
			<circle fill="#FFFDE3" cx="55.4668" cy="55.064" r="4.8003"/>
			<path fill="#4D5152" d="M55.4663,61.144c-3.3525,0-6.0796-2.7275-6.0796-6.0801s2.7271-6.0796,6.0796-6.0796
				s6.0811,2.7271,6.0811,6.0796S58.8188,61.144,55.4663,61.144z M55.4663,51.5444c-1.9404,0-3.5195,1.5791-3.5195,3.5195
				s1.5791,3.5195,3.5195,3.5195c1.9414,0,3.5205-1.5791,3.5205-3.5195S57.4077,51.5444,55.4663,51.5444z"/>
		</g>
	</g>
	<g>
		<polygon fill="#4D5152" points="68.146,81.2798 43.3467,81.2798 43.3467,78.7192 65.5854,78.7192 65.5854,36.8945 
			43.8872,36.8945 43.8872,34.335 68.146,34.335 		"/>
	</g>
	<g>
		<path fill="#FFFFFF" d="M60.0825,18.5596c-1.1611,0-20.5488,0-21.7133,0c0,0.8071,0,4.6763,0,5.4834c1.1645,0,20.5522,0,21.7133,0
			C60.0825,23.2359,60.0825,19.3667,60.0825,18.5596z"/>
		<path fill="#4D5152" d="M61.3628,25.3228H37.0894v-8.043h24.2734V25.3228z M39.6489,22.7632h19.1533v-2.9238H39.6489V22.7632z"/>
	</g>
	<g>
		<path fill="#4D5152" d="M66.0591,36.0239c-0.6328-0.96-3.5-4.9277-5.5928-7.8252c-1.4961-2.0698-2.2207-3.0732-2.3477-3.2686
			l2.1426-1.4004c0.1172,0.1768,1.168,1.6304,2.2803,3.1699c2.1064,2.916,4.9922,6.9097,5.6543,7.916L66.0591,36.0239z"/>
	</g>
	<g>
		<path fill="#E6E6E6" d="M43.8731,35.1509c-0.962-1.4663-5.3296-8.0991-6.1353-9.3247c-0.8047,1.2256-5.3398,7.9707-6.3057,9.438"
			/>
		<path fill="#4D5152" d="M32.5015,35.9678l-2.1387-1.4072c0.4897-0.7437,1.8936-2.8398,3.2666-4.8892
			c1.3359-1.9941,2.6416-3.9434,3.0386-4.5479l1.0693-1.6284l3.0122,4.5791c1.5776,2.3965,3.5796,5.4385,4.1938,6.3745
			l-2.1406,1.4043c-0.6138-0.9355-2.6147-3.9761-4.1919-6.3716l-0.8789-1.3359c-0.563,0.8413-1.2651,1.8896-1.9756,2.9507
			C34.3882,33.1382,32.9888,35.2271,32.5015,35.9678z"/>
	</g>
	<g>
		<path fill="#E6E6E6" d="M43.8833,35.6148h-6.3042h-5.9897c0,0,0,43.1728,0,44.3847c1.0942,0,11.1997,0,12.2939,0
			C43.8833,78.7876,43.8833,35.6148,43.8833,35.6148z"/>
		<path fill="#4D5152" d="M45.1631,81.2798H30.3096V34.335h14.8535V81.2798z M32.8691,78.7192h9.7344V36.8945h-9.7344V78.7192z"/>
	</g>
</g>
</svg>
