<?xml version="1.0" encoding="utf-8"?>
<!-- Generator: Adobe Illustrator 17.1.0, SVG Export Plug-In . SVG Version: 6.00 Build 0)  -->
<!DOCTYPE svg PUBLIC "-//W3C//DTD SVG 1.1//EN" "http://www.w3.org/Graphics/SVG/1.1/DTD/svg11.dtd">
<svg version="1.1" id="egg-free-2" xmlns="http://www.w3.org/2000/svg" xmlns:xlink="http://www.w3.org/1999/xlink" x="0px" y="0px"
	 viewBox="0 0 98.5601 98.5601" enable-background="new 0 0 98.5601 98.5601" xml:space="preserve">
<g id="egg-free-2-label">
	<g>
		<circle fill="#FFB957" cx="49.2798" cy="49.2798" r="48"/>
		<path fill="#4D5152" d="M49.2798,98.5601C22.1069,98.5601,0,76.4526,0,49.2798S22.1069,0,49.2798,0
			s49.2803,22.1069,49.2803,49.2798S76.4526,98.5601,49.2798,98.5601z M49.2798,2.5596c-25.7617,0-46.7202,20.9585-46.7202,46.7202
			s20.9585,46.7197,46.7202,46.7197s46.7197-20.958,46.7197-46.7197S75.0415,2.5596,49.2798,2.5596z"/>
	</g>
	<g>
		
			<rect x="2.4655" y="47.999" transform="matrix(0.7071 0.7071 -0.7071 0.7071 49.2796 -20.4128)" fill="#4D5152" width="93.6295" height="2.5605"/>
	</g>
</g>
<g id="egg-free-2-egg">
	<g>
		<path fill="#FFFFFF" d="M66.9146,48.6416c0-12.4468-7.8662-29.4419-17.6348-29.4419c-9.7676,0-17.6338,16.9951-17.6338,29.4419"/>
		<path fill="#4D5152" d="M68.1948,48.6416h-2.5605c0-14.9023-9.1455-28.1621-16.3545-28.1621
			c-7.2085,0-16.354,13.2598-16.354,28.1621h-2.5596c0-12.3711,7.9419-30.7217,18.9136-30.7217
			C60.2524,17.9199,68.1948,36.2705,68.1948,48.6416z"/>
	</g>
	<g>
		<path fill="#A1D9B1" d="M69.3726,49.6138c-0.1612-0.7163-0.7969-1.2241-1.5303-1.2241H30.7188
			c-0.7339,0-1.3692,0.5078-1.5298,1.2241c-0.0342,0.1484-3.1192,14.748,12.9253,21.0986v1.8028
			c-0.4282,0.8818-2.1109,3.8935-5.6372,5.0693c-0.7285,0.2432-1.1734,0.9775-1.0508,1.7383
			c0.1235,0.7578,0.7783,1.3174,1.5478,1.3174h24.6123c0.7696,0,1.4248-0.5596,1.5489-1.3174
			c0.122-0.7608-0.3242-1.4951-1.0518-1.7383c-3.4922-1.166-5.2041-4.1963-5.6357-5.0742v-1.7979
			C72.4898,64.3618,69.4048,49.7622,69.3726,49.6138z"/>
		<path fill="#4D5152" d="M61.5864,81.9204H36.9741c-1.4028,0-2.5854-1.0059-2.811-2.3916
			c-0.2236-1.3877,0.5791-2.7148,1.9087-3.1582c2.769-0.9238,4.2363-3.1777,4.7627-4.1631v-0.6377
			c-16.2065-6.9434-12.9287-22.0884-12.8931-22.2432c0.2925-1.3022,1.4351-2.2168,2.7773-2.2168h37.1235
			c1.3418,0,2.4844,0.9141,2.7793,2.2231c0.0352,0.1641,3.1289,15.3599-12.8936,22.2358v0.6309
			c0.5342,0.9902,2.0166,3.2539,4.7607,4.1709c1.3291,0.4443,2.1328,1.7705,1.9102,3.1553
			C64.1714,80.9146,62.9888,81.9204,61.5864,81.9204z M30.7188,49.6694c-0.1357,0-0.251,0.0923-0.2808,0.2246
			c-0.1191,0.5537-2.7607,13.7275,12.1475,19.6279l0.8086,0.3203v2.9668l-0.1284,0.2656c-0.4888,1.0059-2.3936,4.3936-6.3838,5.7236
			c-0.1338,0.0449-0.2144,0.1797-0.1919,0.3213c0.0225,0.1377,0.1421,0.2402,0.2842,0.2402h24.6123
			c0.1396,0,0.2627-0.1045,0.2852-0.2441c0.0225-0.1367-0.0586-0.2725-0.1934-0.3174c-3.958-1.3213-5.8828-4.7148-6.3789-5.7236
			l-0.1318-0.2666v-2.9658l0.8096-0.3203c14.8828-5.8916,12.2627-19.0801,12.1445-19.6387
			c-0.0273-0.1211-0.1436-0.2139-0.2793-0.2139H30.7188z"/>
	</g>
	<g>
		<path fill="#4D5152" d="M40.2573,35.4463c-0.0874,0-0.1763-0.0088-0.2651-0.0278c-0.6914-0.1455-1.1343-0.8242-0.9888-1.5161
			c1.1504-5.4692,5.561-9.3735,5.748-9.5371c0.5327-0.4639,1.3418-0.4102,1.8062,0.1216c0.4653,0.5327,0.4106,1.3413-0.1216,1.8062
			c-0.0396,0.0347-3.9512,3.4956-4.9277,8.1367C41.3818,35.0322,40.8496,35.4463,40.2573,35.4463z"/>
	</g>
	<g>
		<rect x="29.1406" y="52.7798" fill="#4D5152" width="40.2788" height="2.5605"/>
	</g>
</g>
</svg>
