<?xml version="1.0" encoding="utf-8"?>
<!-- Generator: Adobe Illustrator 17.1.0, SVG Export Plug-In . SVG Version: 6.00 Build 0)  -->
<!DOCTYPE svg PUBLIC "-//W3C//DTD SVG 1.1//EN" "http://www.w3.org/Graphics/SVG/1.1/DTD/svg11.dtd">
<svg version="1.1" id="egg-free" xmlns="http://www.w3.org/2000/svg" xmlns:xlink="http://www.w3.org/1999/xlink" x="0px" y="0px"
	 viewBox="0 0 98.5601 98.5601" enable-background="new 0 0 98.5601 98.5601" xml:space="preserve">
<g id="egg-free-label">
	<g>
		<circle fill="#A1D9B1" cx="49.2798" cy="49.2798" r="48"/>
		<path fill="#4D5152" d="M49.2798,98.5601C22.1069,98.5601,0,76.4526,0,49.2798S22.1069,0,49.2798,0
			s49.2803,22.1069,49.2803,49.2798S76.4526,98.5601,49.2798,98.5601z M49.2798,2.5596c-25.7617,0-46.7202,20.9585-46.7202,46.7202
			s20.9585,46.7197,46.7202,46.7197s46.7197-20.958,46.7197-46.7197S75.0415,2.5596,49.2798,2.5596z"/>
	</g>
	<g>
		
			<rect x="2.4645" y="47.999" transform="matrix(0.7071 0.7071 -0.7071 0.7071 49.2793 -20.4122)" fill="#4D5152" width="93.6295" height="2.5605"/>
	</g>
</g>
<g id="egg-free-egg">
	<g>
		<path fill-rule="evenodd" clip-rule="evenodd" fill="#FFFFFF" d="M25.3198,47.2749C27.6123,32.9204,38,18.5596,49.2783,18.5596
			c11.2818,0,21.6704,14.3608,23.9615,28.7153c2.8339,17.749-7.3662,32.7246-23.9615,32.7246
			C32.6846,79.9995,22.4849,65.0239,25.3198,47.2749z"/>
		<path fill="#4D5152" d="M49.2783,81.2798c-7.5396,0-14.2773-3.0312-18.9722-8.5361c-5.5405-6.4951-7.8184-15.8525-6.2505-25.6704
			c2.2979-14.3882,12.9814-29.7935,25.2227-29.7935c12.2446,0,22.9292,15.4053,25.2251,29.7935
			c1.5684,9.8179-0.7109,19.1753-6.251,25.6704C63.5571,78.2485,56.8188,81.2798,49.2783,81.2798z M49.2783,19.8394
			c-8.8281,0-20.0542,11.1055-22.6943,27.6372c-1.4502,9.0776,0.6167,17.6812,5.6699,23.606
			c4.2617,4.9961,10.1484,7.6367,17.0244,7.6367c6.8765,0,12.7642-2.6406,17.0259-7.6367
			c5.0537-5.9248,7.1211-14.5283,5.6719-23.606C69.3374,30.9448,58.1099,19.8394,49.2783,19.8394z"/>
	</g>
	<g>
		<g>
			<g>
				<path fill="#FFB957" d="M48.8985,38.0562c-8.8374,0-16,7.1596-16,15.999c0,8.8398,7.1626,16.0019,16,16.0019
					c8.8364,0,16.0004-7.1621,16.0004-16.0019C64.8989,45.2158,57.7349,38.0562,48.8985,38.0562z"/>
				<path fill="#4D5152" d="M48.8984,71.3374c-9.5283,0-17.2798-7.7529-17.2798-17.2822c0-9.5278,7.7515-17.2788,17.2798-17.2788
					c9.5288,0,17.2808,7.751,17.2808,17.2788C66.1792,63.5845,58.4272,71.3374,48.8984,71.3374z M48.8984,39.3359
					c-8.1167,0-14.7202,6.603-14.7202,14.7192c0,8.1182,6.6035,14.7217,14.7202,14.7217s14.7202-6.6035,14.7202-14.7217
					C63.6187,45.939,57.0151,39.3359,48.8984,39.3359z"/>
			</g>
		</g>
		<g>
			<path fill="#FFB957" d="M41.4873,57.811c-3.1914-7.0498,3.7373-13.9785,8.146-10.8286"/>
			<path fill="#4D5152" d="M41.4883,59.0913c-0.4873,0-0.9531-0.2793-1.167-0.752c-2.1821-4.8213-0.1968-9.4644,2.5713-11.7388
				c2.4121-1.9819,5.2793-2.2344,7.4849-0.6597c0.5752,0.4111,0.708,1.2104,0.2969,1.7856
				c-0.4097,0.5742-1.2104,0.708-1.7852,0.2974c-1.834-1.3101-3.8096,0.0933-4.3716,0.5547
				c-2.0376,1.6743-3.4902,5.1123-1.8643,8.7041c0.2915,0.6445,0.0059,1.4033-0.6382,1.6943
				C41.8438,59.0542,41.6646,59.0913,41.4883,59.0913z"/>
		</g>
	</g>
</g>
</svg>
