<?xml version="1.0" encoding="utf-8"?>
<!-- Generator: Adobe Illustrator 17.1.0, SVG Export Plug-In . SVG Version: 6.00 Build 0)  -->
<!DOCTYPE svg PUBLIC "-//W3C//DTD SVG 1.1//EN" "http://www.w3.org/Graphics/SVG/1.1/DTD/svg11.dtd">
<svg version="1.1" id="fish-free" xmlns="http://www.w3.org/2000/svg" xmlns:xlink="http://www.w3.org/1999/xlink" x="0px" y="0px"
	 viewBox="0 0 98.5601 98.5601" enable-background="new 0 0 98.5601 98.5601" xml:space="preserve">
<g id="fish-free-label">
	<g>
		<g>
			<circle fill="#FFFDE3" cx="49.2798" cy="49.2798" r="48"/>
			<path fill="#4D5152" d="M49.2798,98.5601C22.1069,98.5601,0,76.4526,0,49.2798S22.1069,0,49.2798,0
				s49.2803,22.1069,49.2803,49.2798S76.4526,98.5601,49.2798,98.5601z M49.2798,2.5596c-25.7617,0-46.7202,20.9585-46.7202,46.7202
				s20.9585,46.7197,46.7202,46.7197s46.7197-20.958,46.7197-46.7197S75.0415,2.5596,49.2798,2.5596z"/>
		</g>
		<g>
			
				<rect x="2.4647" y="47.999" transform="matrix(0.7071 0.7071 -0.7071 0.7071 49.2789 -20.4125)" fill="#4D5152" width="93.6302" height="2.5605"/>
		</g>
	</g>
</g>
<g id="fish-free-fish">
	<g>
		<path fill="#FFFFFF" d="M33.771,36.1211c-8.2788,2.7598-13.9311,9.4136-13.9311,13.1587c0,3.7441,5.6528,10.3984,13.9331,13.1592
			c2.2651-3.6026,3.54-8.294,3.54-13.1592C37.313,44.3462,36.063,39.7398,33.771,36.1211z"/>
		<path fill="#FFB957" d="M39.2329,49.9199v-0.6401c0-4.9995-1.1919-9.6802-3.4472-13.5361l-0.4454-0.7613l0.8614-0.1875
			c1.728-0.3769,3.4726-0.5678,5.1845-0.5678c9.9756,0,18.7784,4.5991,21.4053,11.1836c0.3672,0.9204,1.2442,1.5468,2.2344,1.5952
			l0.1172,0.0024c0.957,0,1.8252-0.5259,2.2656-1.3735c1.29-2.4937,2.6426-4.4839,3.9121-5.7539
			c2.3477-2.3452,4.7901-3.1773,6.168-3.1773c0.3681,0,1.0439,0.0586,1.4375,0.4527c0.9726,0.9712,0.3926,4.4873-2.6934,7.5737
			l-0.0478,0.0435c-0.7305,0.5957-5.4942,2.7163-8.3252,3.9125c-0.2373,0.1006-0.3906,0.3326-0.3897,0.5918l0.001,0.6421H39.2329z"
			/>
		<g>
			<path fill="#A1D9B1" d="M41.3862,63.6919c9.7188,0,18.2735-4.4385,20.8028-10.793c0.458-1.1552,1.5556-1.9404,2.7978-2
				c0.0508-0.0029,0.1045-0.0039,0.1582-0.0039c1.1944,0,2.2764,0.6582,2.8233,1.7198c1.289,2.4892,2.5713,4.3759,3.8076,5.6103
				c2.207,2.208,4.458,2.9912,5.7148,2.9912c0.4502,0,0.8184-0.0986,0.9844-0.2656c0.5752-0.5762,0.333-3.6397-2.7285-6.6982
				c-0.6006-0.584-4.6777-2.42-8.1113-3.7881c-0.4825-0.1909-0.8008-0.6558-0.8067-1.1748c0-0.0035,0.001-0.0074,0.001-0.0098
				H39.8731c0,5.0479-1.2715,9.9502-3.5391,13.8584C37.9468,63.4898,39.6353,63.6919,41.3862,63.6919z"/>
		</g>
	</g>
	<g>
		<path fill="#4D5152" d="M41.3862,66.2524c-13.3071,0-24.1064-10.2705-24.1064-16.9727c0-3.3574,2.7544-7.5781,7.189-11.0156
			c2.8701-2.2246,8.8843-5.9565,16.9175-5.9565c10.7422,0,20.2783,5.0952,23.1875,12.3916
			c0.0898,0.2246,0.3047,0.3779,0.5469,0.3896c0,0,0.001,0,0.002,0c0.2617,0,0.4727-0.1299,0.5811-0.3384
			c1.3789-2.666,2.8525-4.8203,4.2598-6.2271c2.3447-2.3423,5.1572-3.7402,7.5264-3.7402c1.1641,0,2.1299,0.3511,2.7949,1.0151
			c1.0225,1.0225,1.2705,2.7803,0.6787,4.8228c-0.5498,1.9004-1.7588,3.8521-3.4043,5.4951
			c-0.6064,0.6079-3.4824,1.9575-6.1553,3.1338c2.3994,1.0249,5.3486,2.3843,6.1543,3.1919
			c3.5352,3.5332,4.7842,8.2598,2.7266,10.3184c-0.6641,0.665-1.6309,1.0156-2.7939,1.0156c-2.3701,0-5.1836-1.3975-7.5244-3.7393
			c-1.4209-1.417-2.8594-3.5195-4.2734-6.2471c-0.1064-0.207-0.3164-0.335-0.5488-0.335c-0.2754,0.0127-0.4873,0.1641-0.5752,0.3877
			C61.6597,61.1499,52.1274,66.2524,41.3862,66.2524z M41.3862,34.8672c-12.2314,0-21.5469,9.606-21.5469,14.4126
			s9.3154,14.4121,21.5469,14.4121c9.7188,0,18.2725-4.4385,20.8027-10.7949c0.457-1.1543,1.5566-1.9395,2.7988-1.998
			c0.0205-0.001,0.1357-0.0039,0.1562-0.0039c1.1943,0,2.2764,0.6582,2.8232,1.7188c1.291,2.4902,2.5723,4.3789,3.8076,5.6113
			c2.998,2.998,6.0664,3.3545,6.7002,2.7256c0.5752-0.5762,0.334-3.6387-2.7285-6.6992c-0.6006-0.584-4.6777-2.4199-8.1113-3.7861
			c-0.4824-0.1924-0.8008-0.6567-0.8066-1.1758c-0.0049-0.5195,0.3037-0.9907,0.7822-1.1929
			c3.4795-1.4707,7.5928-3.3486,8.1689-3.8188c1.3145-1.3154,2.293-2.8765,2.7246-4.3687c0.3506-1.2095,0.2305-2.0405-0.0303-2.3003
			c-0.6299-0.6323-3.6992-0.2739-6.7012,2.7251c-1.2227,1.2231-2.5361,3.1577-3.7969,5.5947
			c-0.5518,1.062-1.6338,1.7207-2.8252,1.7207c-0.0205,0-0.1348-0.0029-0.1553-0.0039c-1.2393-0.0601-2.3379-0.8442-2.7988-1.9971
			C59.6646,39.3003,51.1069,34.8672,41.3862,34.8672z"/>
	</g>
	<g>
		<path fill="#4D5152" d="M34.7681,65.479l-2.0225-1.5703c2.9023-3.7393,4.5674-9.0713,4.5674-14.6289
			c0-5.5566-1.5825-10.6992-4.4556-14.4805l2.0381-1.5488c3.2095,4.2241,4.9771,9.9165,4.9771,16.0293
			C39.8726,55.395,38.0122,61.2993,34.7681,65.479z"/>
	</g>
	<g>
		<path fill="#4D5152" d="M30.8262,45.8662c-1.2354,0-2.2397-1.0049-2.2397-2.2402s1.0044-2.2397,2.2397-2.2397
			s2.2397,1.0044,2.2397,2.2397S32.0615,45.8662,30.8262,45.8662z M30.8262,43.3066c-0.1763,0-0.3198,0.1431-0.3198,0.3193
			s0.1436,0.3198,0.3198,0.3198s0.3198-0.1436,0.3198-0.3198S31.0024,43.3066,30.8262,43.3066z"/>
	</g>
	<g>
		<g>
			<path fill="#FFB957" d="M46.2803,38.6211c0,0,2.5762,3.3613,0,8.73"/>
			<path fill="#4D5152" d="M46.2793,48.6313c-0.1855,0-0.374-0.0405-0.5527-0.1265c-0.6372-0.3057-0.9062-1.0703-0.6001-1.7075
				c2.1743-4.5312,0.2144-7.293,0.1299-7.4082c-0.4146-0.5659-0.3008-1.3662,0.2607-1.7866
				c0.5615-0.4214,1.3521-0.3164,1.7793,0.2397c0.1245,0.1631,3.0205,4.0542,0.1377,10.0625
				C47.2144,48.3638,46.7563,48.6313,46.2793,48.6313z"/>
		</g>
		<g>
			<path fill="#4D5152" d="M46.2793,61.2173c-0.1855,0-0.374-0.041-0.5527-0.126c-0.6377-0.3066-0.9062-1.0713-0.6001-1.708
				c2.1738-4.5303,0.2144-7.292,0.1299-7.4072c-0.4146-0.5654-0.3008-1.3652,0.2607-1.7861
				c0.5615-0.4214,1.3521-0.3164,1.7793,0.2402c0.1245,0.1621,3.0215,4.0537,0.1377,10.0605
				C47.2139,60.9497,46.7563,61.2173,46.2793,61.2173z"/>
		</g>
		<g>
			<path fill="#4D5152" d="M53.6929,54.3735c-0.1855,0-0.374-0.041-0.5527-0.126c-0.6377-0.3066-0.9062-1.0713-0.6006-1.708
				c2.2109-4.6055,0.1592-7.3701,0.1387-7.3975c-0.4307-0.561-0.3242-1.3643,0.2373-1.7944s1.3633-0.3242,1.7939,0.2378
				c0.125,0.1626,3.0215,4.0552,0.1387,10.0615C54.6274,54.106,54.1694,54.3735,53.6929,54.3735z"/>
		</g>
	</g>
	<g>
		<path fill="#4D5152" d="M26.5596,50.5601h-6.7197c-0.707,0-1.2798-0.5732-1.2798-1.2803S19.1328,48,19.8398,48h6.7197
			c0.707,0,1.2798,0.5728,1.2798,1.2798S27.2666,50.5601,26.5596,50.5601z"/>
	</g>
</g>
</svg>
