<?xml version="1.0" encoding="utf-8"?>
<!-- Generator: Adobe Illustrator 17.1.0, SVG Export Plug-In . SVG Version: 6.00 Build 0)  -->
<!DOCTYPE svg PUBLIC "-//W3C//DTD SVG 1.1//EN" "http://www.w3.org/Graphics/SVG/1.1/DTD/svg11.dtd">
<svg version="1.1" id="gmo-free" xmlns="http://www.w3.org/2000/svg" xmlns:xlink="http://www.w3.org/1999/xlink" x="0px" y="0px"
	 viewBox="0 0 98.5601 98.5601" enable-background="new 0 0 98.5601 98.5601" xml:space="preserve">
<g id="gmo-free-label">
	<g>
		<circle fill="#FFB957" cx="49.2798" cy="49.2798" r="48"/>
		<path fill="#4D5152" d="M49.2798,98.5601C22.1069,98.5601,0,76.4526,0,49.2798S22.1069,0,49.2798,0
			s49.2803,22.1069,49.2803,49.2798S76.4526,98.5601,49.2798,98.5601z M49.2798,2.5596c-25.7617,0-46.7202,20.9585-46.7202,46.7202
			s20.9585,46.7197,46.7202,46.7197s46.7197-20.958,46.7197-46.7197S75.0415,2.5596,49.2798,2.5596z"/>
	</g>
	<g>
		
			<rect x="2.4644" y="47.9998" transform="matrix(0.7071 0.7071 -0.7071 0.7071 49.2801 -20.4119)" fill="#4D5152" width="93.6298" height="2.5605"/>
	</g>
</g>
<g id="gmo-free-lab-tube">
	<path fill="#FFFFFF" d="M44.73,18.5596c-1.8872,0-3.4141,1.5303-3.4141,3.414c0,1.8838,1.5269,3.4136,3.4141,3.4136v11.3765
		c-10.2402,2.2759-17.0669,12.0659-17.0669,21.6196c0,11.9365,9.6768,21.6162,21.6167,21.6162
		c11.9404,0,21.6162-9.6797,21.6162-21.6162c0-9.5537-6.8262-19.3437-17.0664-21.6196V25.3872c1.8867,0,3.4141-1.5298,3.4141-3.4136
		c0-1.8837-1.5274-3.414-3.4141-3.414H44.73"/>
	<path fill="#A1D9B1" d="M27.6631,58.3833c0,11.9365,9.6768,21.6162,21.6167,21.6162c11.9404,0,21.6162-9.6797,21.6162-21.6162"/>
	<g>
		<rect x="44.73" y="24.1074" fill="#4D5152" width="9.0996" height="2.5596"/>
	</g>
	<g>
		<path fill="#4D5152" d="M49.2798,81.2798c-12.6255,0-22.8965-10.2715-22.8965-22.8965c0-10.3965,7.2681-19.9355,17.0669-22.6206
			v-9.2729c-1.9683-0.5586-3.4141-2.3716-3.4141-4.5161c0-2.5884,2.1055-4.6938,4.6938-4.6938h9.0996
			c2.5879,0,4.6943,2.1055,4.6943,4.6938c0,2.1445-1.4463,3.9575-3.4141,4.5161v9.2729
			c9.7979,2.6851,17.0664,12.2241,17.0664,22.6206C72.1763,71.0083,61.9048,81.2798,49.2798,81.2798z M44.73,19.8394
			c-1.1768,0-2.1343,0.9575-2.1343,2.1343c0,1.1763,0.9575,2.1338,2.1343,2.1338c0.707,0,1.2798,0.5728,1.2798,1.2798v11.3765
			c0,0.6001-0.4165,1.1191-1.002,1.2495c-9.1587,2.0356-16.0649,10.7925-16.0649,20.3701c0,11.2139,9.123,20.3359,20.3369,20.3359
			s20.3359-9.1221,20.3359-20.3359c0-9.5776-6.9062-18.335-16.0635-20.3701c-0.5859-0.1304-1.0029-0.6494-1.0029-1.2495V25.3872
			c0-0.707,0.5732-1.2798,1.2803-1.2798c1.1768,0,2.1338-0.9575,2.1338-2.1338c0-1.1768-0.957-2.1343-2.1338-2.1343H44.73z"/>
	</g>
	<g>
		<path fill="#4D5152" d="M34.9429,58.0718c-0.707,0-1.2798-0.5732-1.2798-1.2803c0-7.7334,6.2905-14.0244,14.0234-14.0244
			c0.707,0,1.2798,0.5728,1.2798,1.2798s-0.5728,1.2798-1.2798,1.2798c-6.3213,0-11.4639,5.1436-11.4639,11.4648
			C36.2227,57.4985,35.6499,58.0718,34.9429,58.0718z"/>
	</g>
</g>
</svg>
