<?xml version="1.0" encoding="utf-8"?>
<!-- Generator: Adobe Illustrator 17.1.0, SVG Export Plug-In . SVG Version: 6.00 Build 0)  -->
<!DOCTYPE svg PUBLIC "-//W3C//DTD SVG 1.1//EN" "http://www.w3.org/Graphics/SVG/1.1/DTD/svg11.dtd">
<svg version="1.1" id="lactose-free" xmlns="http://www.w3.org/2000/svg" xmlns:xlink="http://www.w3.org/1999/xlink" x="0px"
	 y="0px" viewBox="0 0 98.5601 98.5601" enable-background="new 0 0 98.5601 98.5601" xml:space="preserve">
<g id="lactose-free-label">
	<g>
		<circle fill="#A1D9B1" cx="49.2798" cy="49.2798" r="48"/>
		<path fill="#4D5152" d="M49.2798,98.5601C22.1069,98.5601,0,76.4526,0,49.2798S22.1069,0,49.2798,0
			s49.2803,22.1069,49.2803,49.2798S76.4526,98.5601,49.2798,98.5601z M49.2798,2.5596c-25.7617,0-46.7202,20.9585-46.7202,46.7202
			s20.9585,46.7197,46.7202,46.7197s46.7197-20.958,46.7197-46.7197S75.0415,2.5596,49.2798,2.5596z"/>
	</g>
	<g>
		
			<rect x="2.4652" y="47.9995" transform="matrix(0.7071 0.7071 -0.7071 0.7071 49.2804 -20.4127)" fill="#4D5152" width="93.6302" height="2.5605"/>
	</g>
</g>
<g id="lactose-free-lactose">
	<g id="lactose-free-bottle">
		<g>
			<path fill="#CCCCCC" d="M38.856,22.9487v3.2906c0,4.3886,5.4848,17.5542,5.4848,20.8462v29.622
				c0,1.8184-1.4736,3.292-3.291,3.292H25.69c-1.8179,0-3.2901-1.4736-3.2901-3.292v-29.622c0-3.292,5.4834-16.4576,5.4834-20.8462
				v-3.2906"/>
			<path fill="#FFFFFF" d="M38.856,31.2686c0,0,5.4848,12.5249,5.4848,15.8169v29.622c0,1.8184-1.4736,3.292-3.291,3.292H25.69
				c-1.8179,0-3.2901-1.4736-3.2901-3.292v-29.622c0-3.292,5.4834-15.8169,5.4834-15.8169"/>
			<polyline fill="#FFB957" points="22.3999,66.8335 22.3999,49.2798 44.3408,49.2798 			"/>
			<polyline fill="#FFB957" points="44.3408,49.2798 44.3408,66.8335 22.3999,66.8335 			"/>
			<g>
				<path fill="#4D5152" d="M41.0498,81.2798H25.6899c-2.52,0-4.5698-2.0508-4.5698-4.5723V47.0854
					c0-1.7295,1.1626-5.3271,2.5088-9.4932c1.394-4.3135,2.9746-9.2031,2.9746-11.353v-3.2905h2.5596v3.2905
					c0,2.5537-1.5747,7.4272-3.0981,12.1401c-1.1724,3.6284-2.3853,7.3799-2.3853,8.7061v29.6221
					c0,1.1094,0.9019,2.0117,2.0103,2.0117h15.3599c1.1089,0,2.0112-0.9023,2.0112-2.0117V47.0854
					c0-1.3262-1.2129-5.0776-2.3857-8.7061c-1.5239-4.7129-3.0991-9.5864-3.0991-12.1401v-3.2905h2.5596v3.2905
					c0,2.1499,1.5806,7.0391,2.9751,11.353c1.3467,4.1655,2.5098,7.7637,2.5098,9.4932v29.6221
					C45.6206,79.229,43.5703,81.2798,41.0498,81.2798z"/>
			</g>
			<g>
				<rect x="22.3999" y="48" fill="#4D5152" width="21.9409" height="2.5601"/>
			</g>
			<g>
				<rect x="22.3999" y="65.5532" fill="#4D5152" width="21.9409" height="2.5605"/>
			</g>
			<g>
				<path fill="#B3B3B3" d="M27.8833,18.5596H38.856c1.2099,0,2.1938,0.9829,2.1938,2.1948c0,1.2114-0.9839,2.1943-2.1938,2.1943
					H27.8833c-1.2124,0-2.1933-0.9829-2.1933-2.1943C25.69,19.5425,26.6709,18.5596,27.8833,18.5596z"/>
			</g>
			<g>
				<g>
					<path fill="#4D5152" d="M38.856,24.2285H27.8833c-1.915,0-3.4731-1.5586-3.4731-3.4741c0-1.916,1.5581-3.4746,3.4731-3.4746
						H38.856c1.9155,0,3.4736,1.5586,3.4736,3.4746C42.3296,22.6699,40.7715,24.2285,38.856,24.2285z M27.8833,19.8394
						c-0.5034,0-0.9136,0.4106-0.9136,0.915s0.4102,0.9146,0.9136,0.9146H38.856c0.5039,0,0.9141-0.4102,0.9141-0.9146
						s-0.4102-0.915-0.9141-0.915H27.8833z"/>
				</g>
			</g>
		</g>
		<g>
			<g>
				<rect x="26.9697" y="54.0767" fill="#4D5152" width="12.8003" height="2.5605"/>
			</g>
			<g>
				<rect x="26.9697" y="58.5571" fill="#4D5152" width="5.1201" height="2.5605"/>
			</g>
			<g>
				<rect x="35.9297" y="58.5571" fill="#4D5152" width="3.8403" height="2.5605"/>
			</g>
		</g>
	</g>
	<g id="lactose-free-pot">
		<path fill="#FFFFFF" d="M55.5728,52.1226c0,0,0.0713,2.4316-3.1826,5.1855c-8.2994,7.0244-5.2505,22.6123,4.5312,22.6914h4.8379
			h0.2226h4.8389c9.7832-0.0791,12.8301-15.667,4.5313-22.6914c-3.2539-2.7539-3.1846-5.1855-3.1846-5.1855"/>
		<polyline fill="#E6E6E6" points="55.5728,52.1226 52.3902,57.3081 71.3521,57.3081 68.1675,52.1226 		"/>
		<g>
			<path fill="#4D5152" d="M61.9819,81.2798h-5.0605c-4.374-0.0352-7.9858-2.8398-9.6729-7.502
				c-1.8403-5.0859-1.2749-12.7158,4.3145-17.4463c2.667-2.2568,2.7285-4.1221,2.7295-4.2002
				c0.0117-0.6953,0.5771-1.2695,1.2725-1.2734c0.0029,0,0.0059,0,0.0078,0c0.6924,0,1.2588,0.5352,1.2793,1.2275
				c0.0098,0.3115-0.0146,3.1357-3.6348,6.1992c-4.4487,3.7656-5.1592,10.2061-3.5615,14.6221
				c1.3271,3.668,3.9785,5.7861,7.2764,5.8125h9.8887c3.2871-0.0264,5.9385-2.1445,7.2656-5.8115
				c1.5977-4.416,0.8877-10.8564-3.5615-14.623c-3.6191-3.0625-3.6455-5.8867-3.6367-6.1982
				c0.0195-0.6943,0.5889-1.2441,1.2783-1.2441c0.0127,0,0.0254,0,0.0371,0.001c0.707,0.0195,1.2637,0.6094,1.2432,1.3154
				c0.002,0.0498,0.0654,1.915,2.7324,4.1729c5.5898,4.7314,6.1553,12.3604,4.3145,17.4473
				c-1.6865,4.6611-5.2988,7.4658-9.6621,7.501H61.9819z"/>
		</g>
		<g>
			<path fill="#B3B3B3" d="M60.4819,52.1226h7.6856c1.1348,0,2.0615-0.9268,2.0615-2.0616l0,0c0-1.1337-0.9267-2.061-2.0615-2.061
				H55.7964c-1.1328,0-2.0605,0.9273-2.0605,2.061l0,0c0,1.1348,0.9277,2.0616,2.0605,2.0616h4.9004"/>
			<path fill="#4D5152" d="M68.1675,53.4028H55.7964c-1.8418,0-3.3408-1.499-3.3408-3.3418c0-1.8423,1.499-3.3408,3.3408-3.3408
				h12.3711c1.8428,0,3.3418,1.4985,3.3418,3.3408C71.5093,51.9038,70.0103,53.4028,68.1675,53.4028z M60.4819,50.8423h7.6855
				c0.4307,0,0.7812-0.3506,0.7812-0.7812s-0.3506-0.7812-0.7812-0.7812H55.7964c-0.4229,0-0.7803,0.3579-0.7803,0.7812
				c0,0.4238,0.3574,0.7812,0.7803,0.7812H60.4819z"/>
		</g>
		<g>
			<path fill="#FFB957" d="M65.1069,61.4439h9.4727c1.9697,3.9228,2.0322,8.6611,0.5283,12.3701h-10.001
				c-1.1337,0-2.0615-0.9278-2.0615-2.0615v-8.2471C63.0454,62.3726,63.9732,61.4439,65.1069,61.4439z"/>
			<path fill="#4D5152" d="M75.9702,75.0942H65.1069c-1.8428,0-3.3418-1.499-3.3418-3.3418v-8.2471
				c0-1.8428,1.499-3.3418,3.3418-3.3418h10.2627l0.3535,0.7061c2.0527,4.0869,2.2715,9.2314,0.5713,13.4258L75.9702,75.0942z
				 M65.1069,62.7241c-0.4238,0-0.7812,0.3574-0.7812,0.7812v8.2471c0,0.4238,0.3574,0.7812,0.7812,0.7812h9.1064
				c1.0244-3.126,0.8584-6.7529-0.4502-9.8096H65.1069z"/>
		</g>
	</g>
</g>
</svg>
