<?xml version="1.0" encoding="utf-8"?>
<!-- Generator: Adobe Illustrator 17.1.0, SVG Export Plug-In . SVG Version: 6.00 Build 0)  -->
<!DOCTYPE svg PUBLIC "-//W3C//DTD SVG 1.1//EN" "http://www.w3.org/Graphics/SVG/1.1/DTD/svg11.dtd">
<svg version="1.1" id="molluscs-free" xmlns="http://www.w3.org/2000/svg" xmlns:xlink="http://www.w3.org/1999/xlink" x="0px"
	 y="0px" viewBox="0 0 98.5601 98.5601" enable-background="new 0 0 98.5601 98.5601" xml:space="preserve">
<g id="molluscs-free-label">
	<g>
		<circle fill="#FFFDE3" cx="49.2798" cy="49.2798" r="48"/>
		<path fill="#4D5152" d="M49.2798,98.5601C22.1069,98.5601,0,76.4526,0,49.2798S22.1069,0,49.2798,0
			s49.2803,22.1069,49.2803,49.2798S76.4526,98.5601,49.2798,98.5601z M49.2798,2.5596c-25.7617,0-46.7202,20.9585-46.7202,46.7202
			s20.9585,46.7197,46.7202,46.7197s46.7197-20.958,46.7197-46.7197S75.0415,2.5596,49.2798,2.5596z"/>
	</g>
	<g>
		
			<rect x="2.4642" y="47.9995" transform="matrix(0.7071 0.7071 -0.7071 0.7071 49.2802 -20.412)" fill="#4D5152" width="93.6302" height="2.5605"/>
	</g>
</g>
<g id="molluscs-free-snail">
	<g>
		<path fill="#FFB957" d="M62.1821,65.1382V38.6231c0-3.1729,2.5811-5.7535,5.754-5.7535c3.1728,0,5.7529,2.5806,5.7529,5.7535
			l0.001,24.685c0,0.0459-0.0157,4.6778-3.2842,7.9619c-2.2383,2.25-5.501,3.3916-9.6983,3.3916H18.5596l38.6186-26.8603"/>
		<path fill="#4D5152" d="M60.7075,75.9419H18.5596c-0.5596,0-1.0542-0.3633-1.2212-0.8975
			c-0.1675-0.5332,0.0312-1.1143,0.4902-1.4336l38.6191-26.8604c0.5811-0.4023,1.377-0.2598,1.7812,0.3198
			c0.4033,0.5806,0.2607,1.3779-0.3203,1.7817L22.6416,73.3813h38.0659c3.8438,0,6.8008-1.0137,8.791-3.0137
			c2.8545-2.8682,2.9111-7.0215,2.9111-7.0625l-0.001-24.6821c0-2.4668-2.0059-4.4736-4.4727-4.4736s-4.4736,2.0068-4.4736,4.4736
			v26.5151c0,0.707-0.5732,1.2803-1.2803,1.2803s-1.2803-0.5732-1.2803-1.2803V38.623c0-3.8784,3.1553-7.0332,7.0342-7.0332
			c3.8779,0,7.0332,3.1548,7.0332,7.0332l0.001,24.6851c0,0.2119-0.042,5.2324-3.6572,8.8652
			C68.8257,74.6733,65.2573,75.9419,60.7075,75.9419z"/>
	</g>
	<g>
		<g>
			<path fill="#4D5152" d="M57.4038,27.7998c-1.4287,0-2.5918-1.1621-2.5918-2.5908c0-1.4282,1.1631-2.5903,2.5918-2.5903
				c1.4277,0,2.5898,1.1621,2.5898,2.5903C59.9937,26.6377,58.8315,27.7998,57.4038,27.7998z"/>
		</g>
		<g>
			
				<rect x="56.1855" y="28.4293" transform="matrix(0.6922 0.7217 -0.7217 0.6922 40.4464 -35.4135)" fill="#4D5152" width="11.1076" height="2.5604"/>
		</g>
	</g>
	<g>
		<g>
			<circle fill="#4D5152" cx="78.689" cy="25.2092" r="2.5906"/>
		</g>
		<g>
			
				<rect x="73.0724" y="24.155" transform="matrix(0.7216 0.6923 -0.6923 0.7216 41.2638 -43.2021)" fill="#4D5152" width="2.5604" height="11.1089"/>
		</g>
	</g>
	<g>
		<path fill="#A1D9B1" d="M35.5972,58.2036c-0.8189-0.0019-1.4834-0.6699-1.481-1.4873c0.001-0.5703,0.2237-1.1045,0.6275-1.5068
			c0.4023-0.4014,0.9375-0.6221,1.5088-0.6211c1.6196,0.0029,2.936,1.3252,2.9321,2.9453
			c-0.0034,2.1787-1.7798,3.9463-3.9575,3.9424c-2.875-0.0059-5.2085-2.3486-5.2022-5.2227
			c0.0034-1.8134,0.7139-3.5185,1.9986-4.7988c1.2851-1.2798,2.9926-1.9829,4.8076-1.9785
			c4.8325,0.0088,8.7563,3.9482,8.7451,8.7812c-0.0127,6.1924-5.0615,11.2198-11.2539,11.208
			c-7.8911-0.0166-14.2998-6.4501-14.2837-14.3427c0.0098-4.8521,1.9087-9.4116,5.3476-12.8355
			c3.4375-3.4233,8.0035-5.3042,12.856-5.2944c12.5161,0.0259,22.8267,10.2471,23.2349,22.5469l-18.0962,5.3681"/>
		<path fill="#4D5152" d="M34.3438,70.7456c-0.0083,0-0.0156,0-0.0239,0c-8.5981-0.0186-15.5786-7.0283-15.561-15.626
			c0.0103-5.1953,2.0435-10.0747,5.7241-13.7397s8.6138-5.687,13.7617-5.667c13.0811,0.0269,24.0771,10.6963,24.5117,23.7847
			l0.0332,0.9883L44.1309,66.02C41.8359,68.8979,38.3003,70.7446,34.3438,70.7456z M38.2046,38.2725
			c-4.4971,0-8.7275,1.7471-11.915,4.9214c-3.1968,3.1826-4.9619,7.4199-4.9712,11.9316
			c-0.0146,7.1855,5.8203,13.0449,13.0068,13.0596c0.0063,0,0.0127,0,0.019,0c5.478,0,9.9409-4.4502,9.9521-9.9307
			c0.0044-1.9951-0.771-3.875-2.1831-5.2939c-1.4126-1.418-3.2891-2.2012-5.2847-2.2041c-0.0044,0-0.0093,0-0.0137,0
			c-1.4683,0-2.8481,0.5693-3.8882,1.6055c-1.043,1.0391-1.6191,2.4219-1.6221,3.8936c-0.002,1.0488,0.4053,2.0361,1.1475,2.7812
			c0.7427,0.7461,1.729,1.1572,2.7773,1.1592c0.002,0,0.0034,0,0.0049,0c0.71,0,1.3784-0.2764,1.8838-0.7793
			c0.5059-0.5039,0.7852-1.1738,0.7866-1.8848c0.001-0.4424-0.1714-0.8594-0.4844-1.1738c-0.3135-0.3154-0.729-0.4883-1.1704-0.4893
			c-0.0005,0-0.001,0-0.0015,0c-0.231,0-0.4385,0.085-0.6011,0.2471c-0.1641,0.1641-0.251,0.3721-0.2515,0.6025
			c0,0.0977,0.1084,0.2051,0.2041,0.2051c0.707,0.002,1.2788,0.5762,1.2769,1.2832c-0.0015,0.7061-0.5742,1.2773-1.2798,1.2773
			c-0.001,0-0.002,0-0.0029,0c-0.7378-0.002-1.4312-0.291-1.9526-0.8154c-0.5215-0.5234-0.8076-1.2188-0.8052-1.9561
			c0.0015-0.9102,0.3579-1.7666,1.0039-2.4102c0.6426-0.6406,1.498-0.9941,2.4082-0.9941c0.002,0,0.0039,0,0.0059,0
			c1.126,0.002,2.1841,0.4434,2.98,1.2432s1.2329,1.8604,1.23,2.9854c-0.002,1.3945-0.5488,2.707-1.54,3.6934
			c-0.9883,0.9844-2.2983,1.5264-3.6899,1.5264c-0.0034,0-0.0063,0-0.0098,0c-1.7324-0.0039-3.3613-0.6826-4.5859-1.9131
			c-1.2251-1.2295-1.8975-2.8604-1.8936-4.5928c0.0039-2.1553,0.8472-4.1807,2.375-5.7021
			c1.5234-1.5176,3.5449-2.3521,5.6938-2.3521c0.0068,0,0.0137,0,0.02,0c2.6787,0.0049,5.1978,1.0552,7.0928,2.9585
			c1.8955,1.9023,2.9355,4.4258,2.9292,7.1055c-0.0029,1.6006-0.3081,3.1299-0.8613,4.5371l14.1484-4.1973
			c-0.8887-11.2725-10.5137-20.3037-21.9033-20.3276C38.228,38.2725,38.2163,38.2725,38.2046,38.2725z"/>
	</g>
	<g>
		<g>
			<path fill="#4D5152" d="M65.9194,43.1997c-0.707,0-1.2803-0.5728-1.2803-1.2798V40c0-0.707,0.5732-1.2798,1.2803-1.2798
				S67.1997,39.293,67.1997,40v1.9199C67.1997,42.627,66.6265,43.1997,65.9194,43.1997z"/>
		</g>
		<g>
			<path fill="#4D5152" d="M69.7603,43.1997c-0.707,0-1.2803-0.5728-1.2803-1.2798V40c0-0.707,0.5732-1.2798,1.2803-1.2798
				S71.0405,39.293,71.0405,40v1.9199C71.0405,42.627,70.4673,43.1997,69.7603,43.1997z"/>
		</g>
	</g>
</g>
</svg>
