<?xml version="1.0" encoding="utf-8"?>
<!-- Generator: Adobe Illustrator 17.1.0, SVG Export Plug-In . SVG Version: 6.00 Build 0)  -->
<!DOCTYPE svg PUBLIC "-//W3C//DTD SVG 1.1//EN" "http://www.w3.org/Graphics/SVG/1.1/DTD/svg11.dtd">
<svg version="1.1" id="mustard-free" xmlns="http://www.w3.org/2000/svg" xmlns:xlink="http://www.w3.org/1999/xlink" x="0px"
	 y="0px" viewBox="0 0 98.5601 98.5601" enable-background="new 0 0 98.5601 98.5601" xml:space="preserve">
<g id="mustard-free-label">
	<g>
		<circle fill="#FFFDE3" cx="49.2798" cy="49.2798" r="48"/>
		<path fill="#4D5152" d="M49.2798,98.5601C22.1069,98.5601,0,76.4526,0,49.2798S22.1069,0,49.2798,0
			s49.2803,22.1069,49.2803,49.2798S76.4526,98.5601,49.2798,98.5601z M49.2798,2.5596c-25.7617,0-46.7202,20.9585-46.7202,46.7202
			s20.9585,46.7197,46.7202,46.7197s46.7197-20.958,46.7197-46.7197S75.0415,2.5596,49.2798,2.5596z"/>
	</g>
	<g>
		
			<rect x="2.4647" y="48" transform="matrix(0.7071 0.7071 -0.7071 0.7071 49.2796 -20.4122)" fill="#4D5152" width="93.6302" height="2.5605"/>
	</g>
</g>
<g id="mustard-free-mustard-bottle">
	<g>
		<polyline fill="#FFB957" points="44.2158,33.7197 47.0269,18.561 51.2974,18.5596 54.3433,33.7197 		"/>
		<path fill="#4D5152" d="M54.3423,35c-0.5977,0-1.1318-0.4199-1.2539-1.0283L50.249,19.8398l-2.1577,0.001l-2.6172,14.1123
			c-0.1284,0.6953-0.7949,1.1567-1.4917,1.0249c-0.6948-0.1284-1.1538-0.7964-1.0254-1.4917l2.8115-15.1587
			c0.1123-0.6064,0.6411-1.0464,1.2578-1.0464l4.271-0.0015l0,0c0.6094,0,1.1348,0.4297,1.2549,1.0278l3.0459,15.1602
			c0.1396,0.6929-0.3096,1.3677-1.0029,1.5068C54.5103,34.9917,54.4253,35,54.3423,35z"/>
	</g>
	<g>
		<polyline fill="#FFB957" points="37.9097,40.3975 37.9097,31.1109 60.6499,31.1109 60.6499,40.3975 		"/>
		<polygon fill="#4D5152" points="61.9302,40.3975 59.3696,40.3975 59.3696,32.3906 39.1895,32.3906 39.1895,40.3975 
			36.6299,40.3975 36.6299,29.8311 61.9302,29.8311 		"/>
	</g>
	<g>
		<path fill="#FFB957" d="M66.0444,74.5122c-1.2226,2.7998-3.4179,4.5967-6.7031,5.4873h-20.124
			c-3.2852-0.8896-5.4795-2.6875-6.7026-5.4873c-4.8267-11.0351,6.6894-32.8926,7.3007-34.0386h18.9292
			C59.356,41.6196,70.8716,63.4771,66.0444,74.5122z"/>
		<path fill="#4D5152" d="M59.5122,81.2798l-20.6294-0.0449c-3.6333-0.9834-6.1709-3.0732-7.541-6.21
			c-4.9956-11.4209,6.0664-32.7583,7.3442-35.1538l0.3613-0.6772h20.4648l0.3613,0.6772
			c1.2783,2.3955,12.3398,23.7319,7.3438,35.1538c-1.3691,3.1348-3.9062,5.2246-7.541,6.21L59.5122,81.2798z M39.3911,78.7192
			h19.7764c2.8359-0.8057,4.6514-2.3086,5.7041-4.7197c4.1943-9.5879-4.9258-28.3755-6.9043-32.2461h-17.375
			c-1.978,3.8706-11.0981,22.6582-6.9048,32.2461C34.7417,76.4126,36.5566,77.9155,39.3911,78.7192z"/>
	</g>
	<g>
		<g>
			<path fill="#4D5152" d="M43.4048,41.2983c-0.707,0-1.2798-0.5728-1.2798-1.2798v-5.4961c0-0.707,0.5728-1.2798,1.2798-1.2798
				s1.2798,0.5728,1.2798,1.2798v5.4961C44.6846,40.7256,44.1118,41.2983,43.4048,41.2983z"/>
		</g>
		<g>
			<path fill="#4D5152" d="M49.2798,41.2983c-0.707,0-1.2798-0.5728-1.2798-1.2798v-5.4961c0-0.707,0.5728-1.2798,1.2798-1.2798
				s1.2803,0.5728,1.2803,1.2798v5.4961C50.5601,40.7256,49.9868,41.2983,49.2798,41.2983z"/>
		</g>
		<g>
			<path fill="#4D5152" d="M55.1548,41.2983c-0.707,0-1.2803-0.5728-1.2803-1.2798v-5.4961c0-0.707,0.5732-1.2798,1.2803-1.2798
				s1.2803,0.5728,1.2803,1.2798v5.4961C56.4351,40.7256,55.8618,41.2983,55.1548,41.2983z"/>
		</g>
	</g>
	<g>
		<path fill="#FFFFFF" d="M54.0659,69.6021h-9.5791L42.5596,52.77c2.4931-2.4902,6.4604-2.5625,6.5107-2.5625
			c0.0694-0.0014,0.1363-0.0166,0.2056-0.0229c0.0649,0.0063,0.1284,0.0215,0.1938,0.0229c0.043,0,4.021,0.0684,6.5298,2.5664
			L54.0659,69.6021z"/>
		<path fill="#4D5152" d="M54.0659,70.8823h-9.5791c-0.6504,0-1.1978-0.4883-1.2715-1.1348l-1.9272-16.832
			c-0.0444-0.3877,0.0903-0.7754,0.3667-1.0508c2.9067-2.9038,7.3706-2.937,7.4155-2.937c0.0801-0.0078,0.25-0.0278,0.3301-0.0171
			l0.144,0.0186c0.0078,0.0088,4.4463,0.0381,7.3584,2.9375c0.2773,0.2764,0.4131,0.6641,0.3682,1.0537l-1.9336,16.8281
			C55.2632,70.394,54.7163,70.8823,54.0659,70.8823z M45.6284,68.3218h7.2959l1.7285-15.0391
			c-2.125-1.7178-5.167-1.7949-5.1997-1.7949c-0.0645-0.002-0.124-0.0059-0.1821-0.0127c-0.0596,0.0068-0.1167,0.0107-0.1738,0.0117
			c-0.0425,0.001-3.0771,0.0781-5.1909,1.791L45.6284,68.3218z"/>
	</g>
</g>
</svg>
