<?xml version="1.0" encoding="utf-8"?>
<!-- Generator: Adobe Illustrator 17.1.0, SVG Export Plug-In . SVG Version: 6.00 Build 0)  -->
<!DOCTYPE svg PUBLIC "-//W3C//DTD SVG 1.1//EN" "http://www.w3.org/Graphics/SVG/1.1/DTD/svg11.dtd">
<svg version="1.1" id="natural-sunscreen" xmlns="http://www.w3.org/2000/svg" xmlns:xlink="http://www.w3.org/1999/xlink" x="0px"
	 y="0px" viewBox="0 0 98.5601 98.5601" enable-background="new 0 0 98.5601 98.5601" xml:space="preserve">
<g id="natural-sunscreen-label">
	<circle fill="#FFB957" cx="49.2798" cy="49.2798" r="48"/>
	<path fill="#4D5152" d="M49.2798,98.5601C22.1069,98.5601,0,76.4526,0,49.2798S22.1069,0,49.2798,0
		s49.2803,22.1069,49.2803,49.2798S76.4526,98.5601,49.2798,98.5601z M49.2798,2.5596c-25.7617,0-46.7202,20.9585-46.7202,46.7202
		s20.9585,46.7197,46.7202,46.7197s46.7197-20.958,46.7197-46.7197S75.0415,2.5596,49.2798,2.5596z"/>
</g>
<g id="natural-sunscreen-sunscreen">
	<g>
		<path fill="#FFFFFF" d="M28.48,20.7529l8.6934,50.6509c0.0122,0.0684,0.0185,0.1387,0.0185,0.208
			c0,0.4942,0.875,1.0479,2.0459,1.0479h20.085c1.1738,0,2.0498-0.5537,2.0498-1.0479c0-0.0693,0.0058-0.1396,0.0176-0.208
			l8.6894-50.6557c-0.0283-0.5523-0.3213-1.0728-0.833-1.4756c-0.5732-0.4517-1.3477-0.7007-2.1777-0.7007h-4.294
			c-0.0449,0-0.0888-0.0015-0.1328-0.0039c-0.0205-0.0015-0.0508-0.0049-0.0859-0.0083l-26.5493,0.0019
			C36,18.562,35.9956,18.563,35.9927,18.563c-0.0693,0.0068-0.1387,0.0107-0.2085,0.0107h-4.2798
			c-0.8667,0-1.6933,0.2793-2.2685,0.7666C28.773,19.7324,28.5069,20.2315,28.48,20.7529z"/>
		<path fill="#4D5152" d="M59.3228,73.9399h-20.085c-1.8647,0-3.3257-1.0225-3.3257-2.3281l-8.7178-50.7827l0.0073-0.1421
			c0.0454-0.8774,0.4736-1.7026,1.207-2.3232c0.8022-0.6802,1.9307-1.0698,3.0957-1.0698l35.5645-0.002
			c1.1172,0,2.1719,0.3462,2.9697,0.9751c0.8037,0.6323,1.2715,1.4902,1.3193,2.4155l0.0068,0.1416l-0.0234,0.1401l-8.6895,50.6562
			C62.6528,72.9175,61.1899,73.9399,59.3228,73.9399z M38.4414,71.2251c0.1567,0.0723,0.4351,0.1543,0.7964,0.1543h20.085
			c0.3623,0,0.6426-0.082,0.7998-0.1553c0.002-0.0117,0.0039-0.0244,0.0059-0.0371l8.6572-50.4683
			c-0.0527-0.1958-0.2236-0.356-0.3311-0.4404c-0.3438-0.271-0.8486-0.4268-1.3857-0.4268h-4.2939
			c-0.0693,0-0.1367-0.002-0.2041-0.0059l-0.1104-0.0093l-26.4067,0.0063c-0.0894,0.0068-0.1792,0.0107-0.2695,0.0107h-4.2798
			c-0.5601,0-1.0986,0.1733-1.4409,0.4634c-0.1528,0.1294-0.2529,0.271-0.2896,0.4072l8.6611,50.4629
			C38.437,71.1997,38.4395,71.2124,38.4414,71.2251z"/>
	</g>
	<g>
		<g>
			<g>
				<g>
					<path fill="#4D5152" d="M59.2358,47.4917c-0.2705,0-0.54-0.103-0.7471-0.3096L38.5781,27.2705
						c-0.4126-0.4121-0.4126-1.0811,0-1.4932c0.4121-0.4141,1.0811-0.4131,1.4932,0L59.9829,45.689
						c0.4121,0.4121,0.4121,1.0811,0,1.4932C59.7759,47.3887,59.5063,47.4917,59.2358,47.4917z"/>
				</g>
				<g>
					<path fill="#4D5152" d="M59.2358,47.4917c-0.2705,0-0.54-0.103-0.7471-0.3096L38.5781,27.2705
						c-0.4126-0.4121-0.4126-1.0811,0-1.4932c0.4121-0.4141,1.0811-0.4131,1.4932,0L59.9829,45.689
						c0.4121,0.4121,0.4121,1.0811,0,1.4932C59.7759,47.3887,59.5063,47.4917,59.2358,47.4917z"/>
				</g>
				<g>
					<path fill="#4D5152" d="M39.3247,47.4922c-0.27,0-0.5405-0.103-0.7466-0.3096c-0.4126-0.4121-0.4126-1.0811,0-1.4932
						l19.9116-19.9121c0.4141-0.4131,1.0801-0.4131,1.4941,0c0.4121,0.4121,0.4121,1.0811,0,1.4932L40.0713,47.1826
						C39.8652,47.3892,39.5947,47.4922,39.3247,47.4922z"/>
				</g>
				<g>
					<path fill="#4D5152" d="M49.2812,51.6147c-0.583,0-1.0562-0.4727-1.0562-1.0557V22.3989c0-0.583,0.4731-1.0562,1.0562-1.0562
						s1.0562,0.4731,1.0562,1.0562v28.1602C50.3374,51.1421,49.8643,51.6147,49.2812,51.6147z"/>
				</g>
				<g>
					<path fill="#4D5152" d="M63.3599,37.5361H35.1997c-0.583,0-1.0562-0.4731-1.0562-1.0562s0.4731-1.0562,1.0562-1.0562h28.1602
						c0.583,0,1.0557,0.4731,1.0557,1.0562S63.9429,37.5361,63.3599,37.5361z"/>
				</g>
			</g>
			<circle fill="#FFFFFF" cx="49.2798" cy="36.4797" r="8.8601"/>
			<g>
				<circle fill="#FFB957" cx="49.2803" cy="36.4797" r="8.716"/>
				<path fill="#4D5152" d="M49.2803,46.252c-5.3877,0-9.7715-4.3843-9.7715-9.7734c0-5.3877,4.3838-9.771,9.7715-9.771
					c5.3892,0,9.7729,4.3833,9.7729,9.771C59.0532,41.8677,54.6694,46.252,49.2803,46.252z M49.2803,28.8198
					c-4.2231,0-7.6592,3.4355-7.6592,7.6587c0,4.2246,3.436,7.6611,7.6592,7.6611c4.2241,0,7.6616-3.4365,7.6616-7.6611
					C56.9419,32.2554,53.5044,28.8198,49.2803,28.8198z"/>
			</g>
		</g>
		<g>
			<g>
				<path fill="#4D5152" d="M49.2769,40.8423c-1.5889,0-3.0752-0.8687-4.0776-2.3828c-0.3223-0.4863-0.189-1.1416,0.2974-1.4634
					c0.4858-0.3218,1.1416-0.1895,1.4634,0.2974c0.6045,0.9131,1.4492,1.4365,2.3169,1.4365c0.8701,0,1.7158-0.5264,2.3213-1.4448
					c0.3213-0.4863,0.9775-0.6196,1.4629-0.3008c0.4873,0.3213,0.6221,0.9761,0.3008,1.4629
					C52.3589,39.9692,50.8696,40.8423,49.2769,40.8423z"/>
			</g>
			<g>
				<path fill="#4D5152" d="M47.3599,35.936c-0.9351,0-1.6963-0.7612-1.6963-1.6963s0.7612-1.6963,1.6963-1.6963
					s1.6963,0.7612,1.6963,1.6963S48.2949,35.936,47.3599,35.936z M47.3599,33.8237c-0.2295,0-0.416,0.1865-0.416,0.416
					s0.1865,0.416,0.416,0.416s0.416-0.1865,0.416-0.416S47.5894,33.8237,47.3599,33.8237z"/>
			</g>
			<g>
				<path fill="#4D5152" d="M51.1997,35.936c-0.9351,0-1.6958-0.7612-1.6958-1.6963s0.7607-1.6963,1.6958-1.6963
					c0.9346,0,1.6953,0.7612,1.6953,1.6963S52.1343,35.936,51.1997,35.936z M51.1997,33.8237c-0.2295,0-0.416,0.1865-0.416,0.416
					s0.1865,0.416,0.416,0.416s0.416-0.1865,0.416-0.416S51.4292,33.8237,51.1997,33.8237z"/>
			</g>
		</g>
	</g>
	<g>
		<g>
			<path fill="#A1D9B1" d="M61.44,70.0796v8c0,1.0566-1.0176,1.9199-2.2627,1.9199h-19.795c-1.2446,0-2.2627-0.8633-2.2627-1.9199
				v-8"/>
			<path fill="#4D5152" d="M59.1772,81.2798H39.3823c-1.9536,0-3.5425-1.4355-3.5425-3.2002v-8h2.5596v8
				c0,0.3018,0.4204,0.6396,0.9829,0.6396h19.7949c0.5625,0,0.9824-0.3379,0.9824-0.6396v-8h2.5605v8
				C62.7202,79.8442,61.1304,81.2798,59.1772,81.2798z"/>
		</g>
	</g>
	<g>
		<rect x="37.1196" y="68.6392" fill="#4D5152" width="24.3203" height="2.5605"/>
	</g>
	<g>
		<rect x="40.373" y="72.48" fill="#4D5152" width="2.5596" height="5.1201"/>
	</g>
	<g>
		<g>
			<g>
				<rect x="41.2798" y="60.0522" fill="#4D5152" width="16" height="2.5605"/>
			</g>
		</g>
		<g>
			<g>
				<rect x="39.6797" y="55.5728" fill="#4D5152" width="19.1997" height="2.5605"/>
			</g>
		</g>
	</g>
</g>
</svg>
