<?xml version="1.0" encoding="utf-8"?>
<!-- Generator: Adobe Illustrator 17.1.0, SVG Export Plug-In . SVG Version: 6.00 Build 0)  -->
<!DOCTYPE svg PUBLIC "-//W3C//DTD SVG 1.1//EN" "http://www.w3.org/Graphics/SVG/1.1/DTD/svg11.dtd">
<svg version="1.1" id="no-trans-fat" xmlns="http://www.w3.org/2000/svg" xmlns:xlink="http://www.w3.org/1999/xlink" x="0px"
	 y="0px" viewBox="0 0 98.5601 98.5601" enable-background="new 0 0 98.5601 98.5601" xml:space="preserve">
<g id="no-trans-fat-label">
	<g>
		<circle fill="#A1D9B1" cx="49.2798" cy="49.2798" r="48"/>
		<path fill="#4D5152" d="M49.2798,98.5601C22.1069,98.5601,0,76.4526,0,49.2798S22.1069,0,49.2798,0
			s49.2803,22.1069,49.2803,49.2798S76.4526,98.5601,49.2798,98.5601z M49.2798,2.5596c-25.7617,0-46.7202,20.9585-46.7202,46.7202
			s20.9585,46.7197,46.7202,46.7197s46.7197-20.958,46.7197-46.7197S75.0415,2.5596,49.2798,2.5596z"/>
	</g>
	<g>
		
			<rect x="2.4647" y="48" transform="matrix(0.7071 0.7071 -0.7071 0.7071 49.2796 -20.4122)" fill="#4D5152" width="93.6302" height="2.5605"/>
	</g>
</g>
<g id="no-trans-fat-droplet">
	<g>
		<path fill="#FFB957" d="M49.2783,18.5596c-2.4008,17.2851-18.6484,27.7217-18.6484,42.7876
			c0,10.3037,8.3501,18.6523,18.6484,18.6523c10.3003,0,18.6519-8.3486,18.6519-18.6523
			C67.9302,46.2813,51.6821,35.8447,49.2783,18.5596z"/>
		<path fill="#4D5152" d="M49.2783,81.2798c-10.9888,0-19.9282-8.9414-19.9282-19.9326c0-8.1045,4.3535-14.7402,8.9624-21.7656
			c4.2119-6.4194,8.5674-13.0576,9.6978-21.1982c0.0879-0.6328,0.6289-1.1035,1.2681-1.1035
			c0.6387-0.0005,1.1802,0.4707,1.2681,1.1035c1.1318,8.1396,5.4873,14.7773,9.6992,21.1968
			c4.6104,7.0259,8.9648,13.6616,8.9648,21.7671C69.2104,72.3384,60.269,81.2798,49.2783,81.2798z M49.2788,24.3179
			c-1.9531,6.1929-5.4341,11.4985-8.8257,16.668c-4.3936,6.6968-8.5435,13.0215-8.5435,20.3613
			c0,9.5791,7.7915,17.3721,17.3687,17.3721c9.5786,0,17.3716-7.793,17.3716-17.3721c0-7.3398-4.1504-13.6655-8.5449-20.3628
			C54.7134,35.8154,51.2319,30.5103,49.2788,24.3179z"/>
	</g>
	<g>
		<path fill="#4D5152" d="M42.7749,70.2886c-0.2744,0-0.5513-0.0879-0.7847-0.2695c-2.3975-1.8643-4.1177-6.666-3.9165-10.9326
			c0.1646-3.4932,1.5908-6.2656,4.0151-7.8076c0.5957-0.3789,1.3867-0.2041,1.7671,0.3936
			c0.3794,0.5957,0.2036,1.3867-0.3931,1.7666c-2.1812,1.3877-2.7441,3.9023-2.832,5.7676
			c-0.1748,3.7021,1.4043,7.6045,2.9307,8.791c0.5581,0.4336,0.6587,1.2383,0.2251,1.7959
			C43.5342,70.1187,43.1567,70.2886,42.7749,70.2886z"/>
	</g>
</g>
</svg>
