<?xml version="1.0" encoding="utf-8"?>
<!-- Generator: Adobe Illustrator 17.1.0, SVG Export Plug-In . SVG Version: 6.00 Build 0)  -->
<!DOCTYPE svg PUBLIC "-//W3C//DTD SVG 1.1//EN" "http://www.w3.org/Graphics/SVG/1.1/DTD/svg11.dtd">
<svg version="1.1" id="nut-free" xmlns="http://www.w3.org/2000/svg" xmlns:xlink="http://www.w3.org/1999/xlink" x="0px" y="0px"
	 viewBox="0 0 98.5601 98.5601" enable-background="new 0 0 98.5601 98.5601" xml:space="preserve">
<g id="nut-free-label">
	<g>
		<circle fill="#FFFDE3" cx="49.2798" cy="49.2798" r="48"/>
		<path fill="#4D5152" d="M49.2798,98.5601C22.1069,98.5601,0,76.4526,0,49.2798S22.1069,0,49.2798,0
			s49.2803,22.1069,49.2803,49.2798S76.4526,98.5601,49.2798,98.5601z M49.2798,2.5596c-25.7617,0-46.7202,20.9585-46.7202,46.7202
			s20.9585,46.7197,46.7202,46.7197s46.7197-20.958,46.7197-46.7197S75.0415,2.5596,49.2798,2.5596z"/>
	</g>
	<g>
		
			<rect x="2.4642" y="47.9995" transform="matrix(0.7071 0.7071 -0.7071 0.7071 49.2802 -20.412)" fill="#4D5152" width="93.6302" height="2.5605"/>
	</g>
</g>
<g id="nut-free-hazelnut">
	<g>
		<path fill="#FFB957" d="M70.1509,40.27v14.9893c0,9.4492-3.5283,16.4814-10.4863,20.9033
			c-4.6534,2.958-9.3233,3.7061-10.3208,3.8369c-1.0103-0.2285-5.7915-1.4306-10.4903-4.666
			c-6.9311-4.7715-10.4463-11.5264-10.4463-20.0742V40.27"/>
		<path fill="#4D5152" d="M49.5103,81.269l-0.4487-0.0215c-0.9639-0.2178-6.02-1.4766-10.9341-4.8594
			c-7.2993-5.0254-11-12.1338-11-21.1289V40.27h2.5596v14.9893c0,8.1016,3.3286,14.501,9.8921,19.0195
			c4.228,2.9111,8.5508,4.1113,9.8237,4.4199c1.2432-0.1865,5.4229-0.9775,9.5752-3.6162
			c6.5645-4.1719,9.8926-10.8418,9.8926-19.8232V40.27h2.5605v14.9893c0,9.915-3.7285,17.3115-11.0801,21.9834
			C55.439,80.3657,50.4585,81.144,49.5103,81.269z"/>
	</g>
	<g>
		<path fill="#A1D9B1" d="M25.2012,37.7598c0-6.1939,5.0386-11.232,11.2309-11.232h2.9903c3.3149,0,6.3335-1.9443,7.6924-4.9531
			c0.4111-0.9131,0.7924-1.8349,1.1313-2.7383c0.0864-0.2285,0.2622-0.2768,0.396-0.2768c0.1314,0,0.3066,0.0469,0.4004,0.2695
			c0.4922,1.1611,1.0908,2.3438,1.7783,3.5127c1.5186,2.5816,4.3145,4.186,7.2949,4.186h4.0088
			c6.1944,0,11.2324,5.0381,11.2324,11.232c0,1.3052-0.9306,2.3965-2.165,2.645H27.3648
			C26.1323,40.1563,25.2012,39.065,25.2012,37.7598z"/>
		<path fill="#4D5152" d="M71.1919,41.6846H27.3647l-0.2529-0.0249c-1.8486-0.373-3.1904-2.0132-3.1904-3.8999
			c0-6.8989,5.6123-12.5117,12.5107-12.5117h2.9902c2.812,0,5.3735-1.6489,6.5259-4.2002c0.4023-0.8936,0.7725-1.7891,1.0996-2.6611
			c0.2588-0.6841,0.8691-1.1069,1.5942-1.1069c0.7012,0,1.3066,0.4033,1.5801,1.0527c0.4697,1.1079,1.043,2.2393,1.7021,3.3604
			c1.29,2.1929,3.6621,3.5552,6.1914,3.5552h4.0088c6.8994,0,12.5127,5.6128,12.5127,12.5117c0,1.8872-1.3428,3.5273-3.1924,3.8999
			L71.1919,41.6846z M27.5132,39.125h43.5303c0.6045-0.1709,1.0332-0.7285,1.0332-1.3652c0-5.4873-4.4648-9.9521-9.9521-9.9521
			h-4.0088c-3.4326,0-6.6504-1.8457-8.3984-4.8169c-0.3618-0.6157-0.7007-1.2354-1.0132-1.855
			c-0.1367,0.3213-0.2773,0.6431-0.4224,0.9644c-1.5659,3.4678-5.0435,5.7075-8.8594,5.7075h-2.9902
			c-5.4868,0-9.9512,4.4648-9.9512,9.9521C26.481,38.3965,26.9092,38.9541,27.5132,39.125z"/>
	</g>
	<g>
		<path fill="#4D5152" d="M30.1431,37.9644c-0.0562,0-0.1128-0.0039-0.1699-0.0117c-0.6987-0.0933-1.1914-0.73-1.1006-1.4292
			c0.0312-0.2407,0.8569-5.9106,8.8369-7.2554c0.7046-0.1177,1.3579,0.3525,1.4751,1.0493
			c0.1177,0.6973-0.3525,1.3574-1.0493,1.4751c-6.103,1.0283-6.7017,4.8975-6.7241,5.0615
			C31.3232,37.4956,30.7734,37.9644,30.1431,37.9644z"/>
	</g>
	<g>
		<path fill="#4D5152" d="M43.335,72.48c-0.228,0-0.459-0.0605-0.668-0.1885c-3.0142-1.8477-5.3809-4.5664-7.0342-8.082
			c-1.3833-2.9385-2.1143-6.2803-2.1143-9.6631v-4.6187c0-0.707,0.5728-1.2798,1.2798-1.2798s1.2798,0.5728,1.2798,1.2798v4.6187
			c0,3.0088,0.647,5.9727,1.8711,8.5732c1.437,3.0557,3.4746,5.4072,6.0557,6.9883c0.6025,0.3701,0.792,1.1582,0.4224,1.7607
			C44.186,72.2622,43.7651,72.48,43.335,72.48z"/>
	</g>
</g>
</svg>
