<?xml version="1.0" encoding="utf-8"?>
<!-- Generator: Adobe Illustrator 17.1.0, SVG Export Plug-In . SVG Version: 6.00 Build 0)  -->
<!DOCTYPE svg PUBLIC "-//W3C//DTD SVG 1.1//EN" "http://www.w3.org/Graphics/SVG/1.1/DTD/svg11.dtd">
<svg version="1.1" id="organic-product" xmlns="http://www.w3.org/2000/svg" xmlns:xlink="http://www.w3.org/1999/xlink" x="0px"
	 y="0px" viewBox="0 0 98.5601 98.5601" enable-background="new 0 0 98.5601 98.5601" xml:space="preserve">
<g id="organic-product-label">
	<circle fill="#FFFDE3" cx="49.2798" cy="49.2798" r="48"/>
	<path fill="#4D5152" d="M49.2798,98.5601C22.1069,98.5601,0,76.4526,0,49.2798S22.1069,0,49.2798,0
		s49.2803,22.1069,49.2803,49.2798S76.4526,98.5601,49.2798,98.5601z M49.2798,2.5596c-25.7617,0-46.7202,20.9585-46.7202,46.7202
		s20.9585,46.7197,46.7202,46.7197s46.7197-20.958,46.7197-46.7197S75.0415,2.5596,49.2798,2.5596z"/>
</g>
<g id="organic-product-sun">
	<circle fill="#FFB957" cx="49.2798" cy="49.2798" r="27.2002"/>
</g>
<g id="organic-product-leaves">
	<g>
		<rect x="48" y="50.9097" fill="#4D5152" width="2.5601" height="29.0898"/>
	</g>
	<g>
		<g>
			<path fill="#A1D9B1" d="M54.2437,25.9068c-2.125-3.9971-4.2168-6.8902-4.3052-7.0113c-0.1528-0.2109-0.398-0.3359-0.6587-0.3359
				c-0.2607,0-0.5059,0.125-0.6587,0.3359c-0.0884,0.1211-2.1807,3.0142-4.3042,7.0113
				c-2.8804,5.4179-4.3403,10.0336-4.3403,13.7197c0,4.7568,2.4824,7.6489,4.5649,9.2383c2.2276,1.6992,4.4414,2.2851,4.5347,2.3086
				c0.0669,0.0175,0.1352,0.0263,0.2036,0.0263c0.0688,0,0.1367-0.0088,0.2036-0.0263c0.0938-0.0235,2.3081-0.6094,4.5347-2.3086
				c2.082-1.5894,4.5644-4.4815,4.5644-9.2383C58.5825,35.9404,57.1226,31.3247,54.2437,25.9068z"/>
			<path fill="#4D5152" d="M49.2798,52.48c-0.1782,0-0.356-0.0234-0.5288-0.0684c-0.0889-0.0225-2.5195-0.6484-4.9858-2.5293
				c-2.3125-1.7646-5.0684-4.9766-5.0684-10.2559c0-3.8979,1.5103-8.7163,4.4897-14.3208c2.1919-4.1255,4.3789-7.1348,4.4009-7.1646
				c0.3896-0.5381,1.0234-0.8613,1.6924-0.8613s1.3027,0.3232,1.6953,0.8647c0.0195,0.0264,2.2041,3.0327,4.3984,7.1611
				c2.9785,5.6055,4.4893,10.4238,4.4893,14.3208c0,5.2788-2.7559,8.4907-5.0684,10.2559
				c-2.4707,1.8857-4.8984,2.5068-5.0005,2.5332C49.6357,52.4565,49.458,52.48,49.2798,52.48z M49.2798,20.1836
				c-0.6968,1.0093-2.2568,3.3579-3.8325,6.3237c-2.7808,5.2305-4.1909,9.6445-4.1909,13.1191c0,4.2324,2.209,6.8066,4.0615,8.2207
				c1.7534,1.3374,3.5093,1.9185,3.9614,2.0537c0.4683-0.1401,2.2163-0.7207,3.9624-2.0537
				c1.8525-1.4141,4.0605-3.9883,4.0605-8.2207c0-3.4736-1.4092-7.8877-4.1885-13.1191
				C51.5347,23.5381,49.9746,21.1904,49.2798,20.1836z"/>
		</g>
		<g>
			<path fill="#4D5152" d="M49.2798,51.8403c-0.707,0-1.2798-0.5732-1.2798-1.2803V29.7896c0-0.707,0.5728-1.2798,1.2798-1.2798
				s1.2803,0.5728,1.2803,1.2798v20.7705C50.5601,51.2671,49.9868,51.8403,49.2798,51.8403z"/>
		</g>
		<g>
			<g>
				<path fill="#4D5152" d="M49.1235,39.3169c-0.3506,0-0.7002-0.1431-0.9526-0.4243l-3.6831-4.1006
					c-0.4727-0.5259-0.4292-1.3354,0.0967-1.8076c0.5259-0.4731,1.335-0.4297,1.8076,0.0967l3.6831,4.1006
					c0.4722,0.5259,0.4292,1.3354-0.0967,1.8076C49.7339,39.209,49.4282,39.3169,49.1235,39.3169z"/>
			</g>
			<g>
				<path fill="#4D5152" d="M49.436,39.3169c-0.3047,0-0.6104-0.1079-0.855-0.3276c-0.5259-0.4722-0.5693-1.2817-0.0967-1.8076
					l3.6831-4.1006c0.4727-0.5264,1.2803-0.5698,1.8076-0.0967c0.5254,0.4722,0.5693,1.2817,0.0967,1.8076l-3.6826,4.1006
					C50.1362,39.1738,49.7866,39.3169,49.436,39.3169z"/>
			</g>
		</g>
		<g>
			<g>
				<path fill="#4D5152" d="M49.0796,47.5728c-0.3506,0-0.6997-0.1431-0.9526-0.4243l-4.7188-5.2524
					c-0.4727-0.5259-0.4292-1.335,0.0967-1.8076c0.5249-0.4731,1.334-0.4297,1.8076,0.0967l4.7188,5.2524
					c0.4722,0.5259,0.4292,1.335-0.0967,1.8076C49.6899,47.4648,49.3843,47.5728,49.0796,47.5728z"/>
			</g>
			<g>
				<path fill="#4D5152" d="M49.48,47.5728c-0.3047,0-0.6104-0.1079-0.855-0.3276c-0.5259-0.4722-0.5693-1.2817-0.0967-1.8076
					l4.7183-5.2524c0.4717-0.5264,1.2822-0.5698,1.8076-0.0967c0.5254,0.4722,0.5693,1.2817,0.0967,1.8076l-4.7178,5.2524
					C50.1797,47.4297,49.8306,47.5728,49.48,47.5728z"/>
			</g>
		</g>
	</g>
	<g>
		<g>
			<path fill="#A1D9B1" d="M26.5816,49.2129c-4.0176-0.3779-7.1963-0.2397-7.3301-0.2339
				c-0.2315,0.0108-0.4444,0.1314-0.5723,0.3257c-0.1274,0.1943-0.1553,0.438-0.0727,0.6553
				c0.0463,0.125,1.1738,3.1001,3.1069,6.6421c2.6206,4.7998,5.3393,8.1504,8.0835,9.958c3.5395,2.333,6.9106,1.9033,9.1147,1.1328
				c2.3565-0.8233,3.878-2.1846,3.9414-2.2422c0.0459-0.042,0.086-0.0879,0.1202-0.1387c0.0337-0.0508,0.0595-0.1074,0.0795-0.164
				c0.0289-0.083,0.6788-2.0166,0.5064-4.5078c-0.1626-2.3292-1.0977-5.5958-4.6382-7.9268
				C36.1777,50.9048,32.0259,49.7271,26.5816,49.2129z"/>
			<path fill="#4D5152" d="M35.4038,69.5854L35.4038,69.5854c-2.2178,0-4.3413-0.6582-6.3115-1.957
				c-2.9189-1.9229-5.7798-5.4258-8.5024-10.4131c-2.0269-3.7139-3.1719-6.7793-3.1836-6.8096
				c-0.2236-0.5894-0.1489-1.2666,0.2026-1.8032c0.353-0.5356,0.9443-0.8726,1.583-0.9023c0.144-0.0054,3.2988-0.1572,7.5098,0.2383
				c5.6558,0.5342,10.0039,1.7812,12.9238,3.7065c3.9751,2.6172,5.0278,6.2881,5.2104,8.9062
				c0.1919,2.7715-0.5425,4.9258-0.5737,5.0166c-0.0596,0.168-0.1338,0.3184-0.2227,0.4521
				c-0.0947,0.1406-0.2017,0.2646-0.3223,0.375c-0.1821,0.165-1.8203,1.6104-4.3833,2.5059
				C38.0347,69.355,36.7124,69.5854,35.4038,69.5854z M20.0938,50.2363c0.4478,1.0923,1.3979,3.2876,2.7432,5.7524
				c2.52,4.6152,5.0981,7.8125,7.6641,9.502c2.4683,1.627,5.2407,1.9541,7.9883,0.9941c1.7725-0.6191,3.0312-1.5898,3.396-1.8906
				c0.1289-0.4404,0.5273-1.9824,0.397-3.8662c-0.1426-2.041-0.9634-4.9033-4.0654-6.9453
				c-2.5669-1.6924-6.522-2.8008-11.7554-3.2959C23.6235,50.2202,21.25,50.2163,20.0938,50.2363z"/>
		</g>
		<g>
			<path fill="#4D5152" d="M48.6396,71.2534c-0.2539,0-0.5107-0.0752-0.7344-0.2324L26.3018,55.8599
				c-0.5786-0.4062-0.7183-1.2041-0.3125-1.7832c0.4067-0.5781,1.2056-0.7188,1.7832-0.3125L49.376,68.9253
				c0.5786,0.4062,0.7183,1.2041,0.3125,1.7832C49.4395,71.063,49.0425,71.2534,48.6396,71.2534z"/>
		</g>
		<g>
			<g>
				<path fill="#4D5152" d="M28.2397,60.9849c-0.623,0-1.1689-0.4551-1.2642-1.0898c-0.1055-0.6992,0.376-1.3506,1.0752-1.4561
					l4.8579-0.7314c0.6978-0.1045,1.3506,0.376,1.4561,1.0752s-0.376,1.3506-1.0752,1.4561l-4.8579,0.7314
					C28.3672,60.98,28.3027,60.9849,28.2397,60.9849z"/>
			</g>
			<g>
				<path fill="#4D5152" d="M33.252,60.02c-0.5679,0-1.0864-0.3809-1.2373-0.9561l-1.2461-4.752
					c-0.1792-0.6836,0.23-1.3828,0.9136-1.5625c0.6846-0.1758,1.3838,0.2305,1.563,0.9141l1.2461,4.752
					c0.1792,0.6836-0.23,1.3828-0.9136,1.5625C33.4688,60.0063,33.3594,60.02,33.252,60.02z"/>
			</g>
		</g>
		<g>
			<g>
				<path fill="#4D5152" d="M32.9976,65.271c-0.623,0-1.1689-0.4551-1.2642-1.0898c-0.1055-0.6992,0.3765-1.3516,1.0752-1.4561
					l6.2241-0.9355c0.6997-0.1094,1.3511,0.376,1.4561,1.0752c0.1055,0.6992-0.3765,1.3516-1.0752,1.4561l-6.2241,0.9355
					C33.125,65.2661,33.0605,65.271,32.9976,65.271z"/>
			</g>
			<g>
				<path fill="#4D5152" d="M39.418,64.0366c-0.5679,0-1.0864-0.3809-1.2373-0.9561l-1.5962-6.0889
					c-0.1792-0.6836,0.23-1.3828,0.9136-1.5625c0.6855-0.1758,1.3838,0.2305,1.563,0.9141l1.5962,6.0889
					c0.1792,0.6836-0.23,1.3828-0.9136,1.5625C39.6348,64.0229,39.5254,64.0366,39.418,64.0366z"/>
			</g>
		</g>
	</g>
	<g>
		<g>
			<path fill="#A1D9B1" d="M71.978,49.2129c4.0176-0.3779,7.1963-0.2397,7.3301-0.2339c0.2315,0.0108,0.4444,0.1314,0.5723,0.3257
				s0.1553,0.438,0.0723,0.6553c-0.0459,0.125-1.1739,3.1001-3.1065,6.6421c-2.6211,4.7998-5.3398,8.1504-8.083,9.958
				c-3.54,2.333-6.9111,1.9033-9.1152,1.1328c-2.3565-0.8233-3.878-2.1846-3.9414-2.2422c-0.0459-0.042-0.086-0.0879-0.1202-0.1387
				c-0.0332-0.0508-0.0595-0.1074-0.08-0.164c-0.0284-0.083-0.6787-2.0166-0.5059-4.5078c0.1621-2.3292,1.0977-5.5958,4.6377-7.9268
				C62.3814,50.9048,66.5337,49.7271,71.978,49.2129z"/>
			<path fill="#4D5152" d="M63.1558,69.5854c-1.3086,0-2.6309-0.2305-3.9307-0.6846c-2.5625-0.8955-4.2002-2.3408-4.3789-2.502
				c-0.125-0.1143-0.2314-0.2383-0.3213-0.3721c-0.0947-0.1436-0.166-0.2881-0.2217-0.4434
				c-0.0869-0.251-0.7666-2.3379-0.5801-5.0322c0.1826-2.6182,1.2344-6.2881,5.2109-8.9072
				c2.9189-1.9243,7.2676-3.1714,12.9238-3.7056c4.2109-0.3955,7.3721-0.2437,7.5059-0.2383
				c0.6426,0.0298,1.2344,0.3667,1.5859,0.9009c0.3535,0.5371,0.4277,1.2158,0.1982,1.8154
				c-0.0049,0.0146-1.1484,3.0791-3.1777,6.7988c-2.7236,4.9873-5.584,8.4902-8.5029,10.4131
				C67.4976,68.9272,65.3735,69.5854,63.1558,69.5854z M56.6743,64.5952c0.3594,0.2959,1.6201,1.2686,3.3955,1.8896
				c2.7471,0.958,5.5215,0.6328,7.9893-0.9932c2.5645-1.6904,5.1436-4.8877,7.6641-9.5029
				c1.3564-2.4873,2.3008-4.6719,2.7432-5.7524c-1.1514-0.019-3.5293-0.0161-6.3682,0.2505
				c-5.2344,0.4951-9.1895,1.6035-11.7559,3.2949c-3.1025,2.043-3.9229,4.9053-4.0645,6.9473
				C56.1479,62.5981,56.5405,64.1353,56.6743,64.5952z"/>
		</g>
		<g>
			<path fill="#4D5152" d="M49.9199,71.2534c-0.4028,0-0.7998-0.1904-1.0488-0.5449c-0.4058-0.5791-0.2661-1.377,0.3125-1.7832
				l21.603-15.1611c0.5791-0.4062,1.377-0.2646,1.7832,0.3125c0.4062,0.5791,0.2656,1.377-0.3125,1.7832L50.6538,71.021
				C50.4302,71.1782,50.1738,71.2534,49.9199,71.2534z"/>
		</g>
		<g>
			<g>
				<path fill="#4D5152" d="M70.3208,60.9849c-0.0635,0-0.1279-0.0049-0.1924-0.0146L65.27,60.2388
					c-0.6992-0.1055-1.1807-0.7568-1.0752-1.4561s0.7627-1.1768,1.4561-1.0752l4.8584,0.7314
					c0.6992,0.1055,1.1807,0.7568,1.0752,1.4561C71.4888,60.5298,70.9429,60.9849,70.3208,60.9849z"/>
			</g>
			<g>
				<path fill="#4D5152" d="M65.3081,60.02c-0.1074,0-0.2168-0.0137-0.3252-0.042c-0.6846-0.1797-1.0928-0.8789-0.9141-1.5625
					l1.2461-4.752c0.1797-0.6836,0.8809-1.0928,1.5625-0.9141c0.6846,0.1797,1.0928,0.8789,0.9141,1.5625l-1.2461,4.752
					C66.394,59.6392,65.8755,60.02,65.3081,60.02z"/>
			</g>
		</g>
		<g>
			<g>
				<path fill="#4D5152" d="M65.562,65.271c-0.0635,0-0.1279-0.0049-0.1924-0.0146l-6.2236-0.9355
					c-0.6992-0.1045-1.1807-0.7568-1.0752-1.4561s0.7637-1.1768,1.4561-1.0752l6.2236,0.9355
					c0.6992,0.1045,1.1807,0.7568,1.0752,1.4561C66.73,64.8159,66.1841,65.271,65.562,65.271z"/>
			</g>
			<g>
				<path fill="#4D5152" d="M59.1411,64.0366c-0.1074,0-0.2168-0.0137-0.3252-0.042c-0.6846-0.1797-1.0928-0.8789-0.9141-1.5625
					l1.5967-6.0889c0.1797-0.6846,0.8818-1.0918,1.5625-0.9141c0.6846,0.1797,1.0928,0.8789,0.9141,1.5625l-1.5967,6.0889
					C60.2271,63.6558,59.7085,64.0366,59.1411,64.0366z"/>
			</g>
		</g>
	</g>
</g>
</svg>
