<?xml version="1.0" encoding="utf-8"?>
<!-- Generator: Adobe Illustrator 17.1.0, SVG Export Plug-In . SVG Version: 6.00 Build 0)  -->
<!DOCTYPE svg PUBLIC "-//W3C//DTD SVG 1.1//EN" "http://www.w3.org/Graphics/SVG/1.1/DTD/svg11.dtd">
<svg version="1.1" id="organic-cosmetics" xmlns="http://www.w3.org/2000/svg" xmlns:xlink="http://www.w3.org/1999/xlink" x="0px"
	 y="0px" viewBox="0 0 98.7651 98.7651" enable-background="new 0 0 98.7651 98.7651" xml:space="preserve">
<g id="organic-cosmetics-label">
	<circle fill="#FFFDE3" cx="49.3823" cy="49.3823" r="48"/>
	<path fill="#4D5152" d="M49.3823,98.7651C22.1528,98.7651,0,76.6118,0,49.3823S22.1528,0,49.3823,0
		s49.3828,22.1528,49.3828,49.3823S76.6118,98.7651,49.3823,98.7651z M49.3823,2.7646c-25.7051,0-46.6177,20.9126-46.6177,46.6177
		s20.9126,46.6172,46.6177,46.6172s46.6172-20.9121,46.6172-46.6172S75.0874,2.7646,49.3823,2.7646z"/>
</g>
<g id="organic-cosmetics-organic-cosmetics">
	<g id="organic-cosmetics-mascara">
		<g>
			<path fill="#A1D9B1" d="M24.3154,48.2861v29.897c0,1.0547,0.8633,1.9189,1.9199,1.9189h14.0796
				c1.0567,0,1.9204-0.8642,1.9204-1.9189v-29.897H24.3154z"/>
			<path fill="#4D5152" d="M40.3149,81.4849H26.2354c-1.8208,0-3.3022-1.4814-3.3022-3.3018v-29.897
				c0-0.7637,0.6187-1.3823,1.3823-1.3823h17.9199c0.7637,0,1.3823,0.6187,1.3823,1.3823v29.897
				C43.6177,80.0034,42.1362,81.4849,40.3149,81.4849z M25.6978,49.6685v28.5146c0,0.291,0.2461,0.5361,0.5376,0.5361h14.0796
				c0.2915,0,0.5381-0.2451,0.5381-0.5361V49.6685H25.6978z"/>
		</g>
		<g>
			<path fill="#4D5152" d="M33.2754,48.0444c-0.7637,0-1.3823-0.6187-1.3823-1.3823V18.6626c0-0.7637,0.6187-1.3823,1.3823-1.3823
				s1.3823,0.6187,1.3823,1.3823v27.9995C34.6577,47.4258,34.0391,48.0444,33.2754,48.0444z"/>
		</g>
		<g>
			<path fill="#4D5152" d="M37.4355,23.4048h-8.3203c-0.7637,0-1.3823-0.6187-1.3823-1.3823s0.6187-1.3823,1.3823-1.3823h8.3203
				c0.7637,0,1.3823,0.6187,1.3823,1.3823S38.1992,23.4048,37.4355,23.4048z"/>
		</g>
		<g>
			<path fill="#4D5152" d="M37.4355,27.5649h-8.3203c-0.7637,0-1.3823-0.6187-1.3823-1.3823s0.6187-1.3823,1.3823-1.3823h8.3203
				c0.7637,0,1.3823,0.6187,1.3823,1.3823S38.1992,27.5649,37.4355,27.5649z"/>
		</g>
		<g>
			<path fill="#4D5152" d="M37.4355,31.7251h-8.3203c-0.7637,0-1.3823-0.6187-1.3823-1.3823s0.6187-1.3823,1.3823-1.3823h8.3203
				c0.7637,0,1.3823,0.6187,1.3823,1.3823S38.1992,31.7251,37.4355,31.7251z"/>
		</g>
		<g>
			<path fill="#4D5152" d="M37.4355,35.8848h-8.3203c-0.7637,0-1.3823-0.6187-1.3823-1.3823s0.6187-1.3823,1.3823-1.3823h8.3203
				c0.7637,0,1.3823,0.6187,1.3823,1.3823S38.1992,35.8848,37.4355,35.8848z"/>
		</g>
		<g>
			<path fill="#4D5152" d="M37.4355,40.0444h-8.3203c-0.7637,0-1.3823-0.6187-1.3823-1.3823s0.6187-1.3823,1.3823-1.3823h8.3203
				c0.7637,0,1.3823,0.6187,1.3823,1.3823S38.1992,40.0444,37.4355,40.0444z"/>
		</g>
		<g>
			<path fill="#4D5152" d="M29.7554,76.0454c-0.7637,0-1.3823-0.6191-1.3823-1.3828V54.1821c0-0.7637,0.6187-1.3828,1.3823-1.3828
				s1.3823,0.6191,1.3823,1.3828v20.4805C31.1377,75.4263,30.519,76.0454,29.7554,76.0454z"/>
		</g>
	</g>
	<g id="organic-cosmetics-lipstick">
		<g>
			<g>
				<path fill="#FFB957" d="M68.2846,44.916V19.248c0-0.872-0.7998-0.5127-0.7998-0.5127l-8.5771,7.6104
					c0,0-0.6865,0.562-0.6865,1.436V44.916"/>
				<path fill="#4D5152" d="M69.6675,44.916h-2.7656V21.1006l-7.0762,6.2793c-0.0605,0.0537-0.2217,0.2354-0.2217,0.4019V44.916
					h-2.7656V27.7817c0-1.4858,1.0713-2.4058,1.1934-2.5059l8.6934-7.7148l0.1934-0.0864c0.5039-0.2275,1.2705-0.3208,1.9111,0.0933
					c0.3125,0.2021,0.8379,0.6895,0.8379,1.6802V44.916z"/>
			</g>
			<g>
				<path fill="#CCCCCC" d="M69.7759,44.7759c0,2.6289,0,9.5205,0,12.1503c-2.6973,0-10.3506,0-13.045,0
					c0-2.6298,0-9.5214,0-12.1503C59.4253,44.7759,67.0786,44.7759,69.7759,44.7759z"/>
				<path fill="#4D5152" d="M71.1587,58.3091H55.3481V43.3936h15.8105V58.3091z M58.1138,55.5435h10.2793v-9.3853H58.1138V55.5435z"
					/>
			</g>
			<g>
				<path fill="#FFFFFF" d="M71.8891,53.9966c1.0557,0,1.92,0.8642,1.92,1.9209v22.2656c0,1.0547-0.8643,1.9189-1.92,1.9189H54.6157
					c-1.0566,0-1.9209-0.8642-1.9209-1.9189V55.9175c0-1.0567,0.8643-1.9209,1.9209-1.9209H71.8891z"/>
				<g>
					<path fill="#4D5152" d="M72.5298,81.4849H53.9761c-1.8213,0-3.3037-1.4814-3.3037-3.3018V54.6362
						c0-0.7637,0.6191-1.3828,1.3828-1.3828h22.3936c0.7637,0,1.3828,0.6191,1.3828,1.3828v23.5469
						C75.8315,80.0034,74.3501,81.4849,72.5298,81.4849z M53.438,56.019v22.1641c0,0.291,0.2461,0.5361,0.5381,0.5361h18.5537
						c0.291,0,0.5361-0.2451,0.5361-0.5361V56.019H53.438z"/>
				</g>
			</g>
			<g>
				<path fill="#4D5152" d="M62.0142,41.1479c-0.668,0-1.21-0.5415-1.21-1.2095V28.5254c0-0.3809,0.1797-0.7393,0.4844-0.9678
					l2.1338-1.6001c0.5352-0.4009,1.293-0.293,1.6934,0.2422c0.4004,0.5342,0.292,1.2925-0.2422,1.6934l-1.6494,1.2373v10.8081
					C63.2241,40.6064,62.6821,41.1479,62.0142,41.1479z"/>
			</g>
		</g>
		<g>
			<g>
				<path fill="#A1D9B1" d="M70.8843,66.2358c0-1.6367-1.3252-2.9629-2.9629-2.9629c-0.7129,0-1.3692,0.2539-1.8789,0.6739
					c0.1386-0.3438,0.2158-0.7159,0.2158-1.1084c0-1.6358-1.3262-2.961-2.9619-2.961c-1.6358,0-2.961,1.3252-2.961,2.961
					c0,0.4443,0.0987,0.8623,0.2744,1.2412c-0.5302-0.4991-1.2421-0.8067-2.0263-0.8067c-1.6367,0-2.9629,1.3262-2.9629,2.9629
					c0,1.6338,1.3262,2.961,2.9629,2.961c0.0996,0,0.1992-0.0059,0.2968-0.0157c-0.871,0.5147-1.455,1.4629-1.455,2.5479
					c0,1.6338,1.3252,2.959,2.9619,2.959c1.4492,0,2.6543-1.043,2.9092-2.4209c0.2539,1.3779,1.458,2.4209,2.9111,2.4209
					c1.6348,0,2.9609-1.3252,2.9609-2.959c0-1.084-0.581-2.0254-1.4472-2.544c0.0674,0.0059,0.1328,0.0118,0.2002,0.0118
					C69.5591,69.1968,70.8843,67.8696,70.8843,66.2358z"/>
				<path fill="#4D5152" d="M66.2075,76.0708c-1.1094,0-2.1357-0.4199-2.9111-1.1201c-0.7754,0.7002-1.8008,1.1201-2.9092,1.1201
					c-2.3955,0-4.3447-1.9482-4.3447-4.3418c0-0.6045,0.1289-1.1943,0.3652-1.7344c-1.2959-0.7529-2.1699-2.1562-2.1699-3.7588
					c0-2.3965,1.9492-4.3457,4.3457-4.3457c0.1572,0,0.3135,0.0088,0.4678,0.0254c0.4248-1.9531,2.167-3.4209,4.2451-3.4209
					c2.0762,0,3.8164,1.4639,4.2441,3.4131c0.126-0.0117,0.2529-0.0176,0.3809-0.0176c2.3965,0,4.3457,1.9492,4.3457,4.3457
					c0,1.5713-0.8398,2.9502-2.0938,3.7129c0.2461,0.5488,0.3779,1.1523,0.3779,1.7803
					C70.5513,74.1226,68.6021,76.0708,66.2075,76.0708z M63.2964,70.8843L63.2964,70.8843c0.667,0.001,1.2383,0.4766,1.3594,1.1318
					c0.1377,0.7471,0.79,1.2891,1.5518,1.2891c0.8701,0,1.5781-0.707,1.5781-1.5762c0-0.5596-0.2891-1.0674-0.7744-1.3574
					c-0.5527-0.3311-0.8037-1-0.6055-1.6123c0.1992-0.6123,0.79-1.0068,1.4355-0.9512c0.9277,0.0117,1.6602-0.7031,1.6602-1.5723
					c0-0.8711-0.709-1.5801-1.5801-1.5801c-0.3643,0-0.7197,0.127-1,0.3584c-0.4883,0.4004-1.1846,0.4219-1.6963,0.0479
					c-0.5098-0.374-0.7012-1.0459-0.4648-1.6328c0.0771-0.1895,0.1152-0.3887,0.1152-0.5908c0-0.8701-0.708-1.5781-1.5791-1.5781
					c-0.8701,0-1.5781,0.708-1.5781,1.5781c0,0.2285,0.0488,0.4502,0.1455,0.6592c0.2793,0.6016,0.0918,1.3154-0.4453,1.7031
					c-0.5352,0.3867-1.2725,0.3408-1.7559-0.1143c-0.2959-0.2783-0.6787-0.4307-1.0791-0.4307c-0.8711,0-1.5801,0.709-1.5801,1.5801
					c0,0.9238,0.8418,1.6641,1.7393,1.5693c0.6455-0.0596,1.249,0.3281,1.4512,0.9453s-0.0518,1.291-0.6104,1.6211
					c-0.4854,0.2871-0.7754,0.7939-0.7754,1.3574c0,0.8691,0.708,1.5762,1.5791,1.5762c0.7598,0,1.4111-0.542,1.5498-1.2891
					C62.0581,71.3599,62.6304,70.8843,63.2964,70.8843z"/>
			</g>
			<g>
				<circle fill="#FFFFFF" cx="63.2969" cy="67.688" r="2.4379"/>
				<path fill="#4D5152" d="M63.2964,71.5093c-2.1064,0-3.8203-1.7148-3.8203-3.8213c0-2.1055,1.7139-3.8193,3.8203-3.8193
					s3.8213,1.7139,3.8213,3.8193C67.1177,69.7944,65.4028,71.5093,63.2964,71.5093z M63.2964,66.6343
					c-0.582,0-1.0547,0.4727-1.0547,1.0537c0,0.582,0.4727,1.0557,1.0547,1.0557s1.0557-0.4736,1.0557-1.0557
					C64.3521,67.1069,63.8784,66.6343,63.2964,66.6343z"/>
			</g>
		</g>
	</g>
</g>
</svg>
