<?xml version="1.0" encoding="utf-8"?>
<!-- Generator: Adobe Illustrator 17.1.0, SVG Export Plug-In . SVG Version: 6.00 Build 0)  -->
<!DOCTYPE svg PUBLIC "-//W3C//DTD SVG 1.1//EN" "http://www.w3.org/Graphics/SVG/1.1/DTD/svg11.dtd">
<svg version="1.1" id="organic-food" xmlns="http://www.w3.org/2000/svg" xmlns:xlink="http://www.w3.org/1999/xlink" x="0px"
	 y="0px" viewBox="0 0 98.5601 98.5601" enable-background="new 0 0 98.5601 98.5601" xml:space="preserve">
<g id="organic-food-label">
	<circle fill="#FFB957" cx="49.2798" cy="49.2798" r="48"/>
	<path fill="#4D5152" d="M49.2798,98.5601C22.1069,98.5601,0,76.4526,0,49.2798S22.1069,0,49.2798,0
		s49.2803,22.1069,49.2803,49.2798S76.4526,98.5601,49.2798,98.5601z M49.2798,2.5596c-25.7617,0-46.7202,20.9585-46.7202,46.7202
		s20.9585,46.7197,46.7202,46.7197s46.7197-20.958,46.7197-46.7197S75.0415,2.5596,49.2798,2.5596z"/>
</g>
<g id="organic-food-plate">
	<circle id="organic-food-plate_1_" fill="#FFFFFF" cx="49.28" cy="49.2798" r="29.4401"/>
</g>
<g id="organic-food-leaves-fork">
	<g>
		<g>
			<path fill="#A1D9B1" d="M52.8462,34.0562L52.8462,34.0562c-2.0625,2.0644-5.4087,2.0644-7.4726,0
				c-5.5665-5.5669,3.5097-15.4966,3.5097-15.4966S59.3882,27.5161,52.8462,34.0562z"/>
			<path fill="#4D5152" d="M49.1104,36.8843c-1.7534,0-3.4019-0.6826-4.6421-1.9233c-6.3584-6.3589,3.0659-16.8228,3.4702-17.2651
				l0.8345-0.9126l0.9409,0.8022c0.2578,0.2202,6.3228,5.4551,6.5513,11.2192c0.0918,2.3257-0.7539,4.397-2.5137,6.1567
				C52.5122,36.2012,50.8638,36.8843,49.1104,36.8843z M48.9937,20.4258c-1.9624,2.4888-6.4307,9.0098-2.7148,12.7251
				c1.5127,1.5137,4.1504,1.5132,5.6621,0.0005c1.251-1.2505,1.8281-2.6372,1.7666-4.2397
				C53.5737,25.4746,50.5679,22.0112,48.9937,20.4258z"/>
		</g>
		<g>
			<g>
				<path fill="#A1D9B1" d="M36.7271,50.7456L36.7271,50.7456c2.9189,0,5.2851-2.3657,5.2851-5.2846
					c0-7.8726-14.5337-9.2486-14.5337-9.2486S27.4785,50.7456,36.7271,50.7456z"/>
				<path fill="#4D5152" d="M36.7271,52.0259c-4.394,0-7.6138-2.8213-9.312-8.1587c-1.2026-3.7793-1.2163-7.4985-1.2163-7.6548
					v-1.4067l1.4004,0.1323c0.6406,0.0605,15.6929,1.5884,15.6929,10.5229C43.292,49.0806,40.3472,52.0259,36.7271,52.0259z
					 M28.8379,37.7007c0.2905,3.4644,1.6396,11.7651,7.8892,11.7651c2.2085,0,4.0054-1.7969,4.0054-4.0049
					C40.7324,40.2593,32.3193,38.2915,28.8379,37.7007z"/>
			</g>
			<g>
				<path fill="#4D5152" d="M40.4644,50.4771c-0.3276,0-0.6548-0.125-0.9048-0.3745l-4.9912-4.9897
					c-0.5-0.5-0.5-1.3101-0.0005-1.8101c0.5-0.5,1.3101-0.5005,1.8101-0.0005l4.9912,4.9897c0.5,0.5,0.5,1.3101,0.0005,1.8101
					C41.1196,50.3521,40.792,50.4771,40.4644,50.4771z"/>
			</g>
			<g>
				<path fill="#4D5152" d="M48.6196,58.6323c-0.3276,0-0.6553-0.125-0.9053-0.375l-7.9277-7.9277
					c-0.4995-0.4995-0.4995-1.3101,0-1.8101c0.5-0.499,1.3105-0.5,1.8105,0l7.9277,7.9272c0.4995,0.5,0.4995,1.3105,0,1.8105
					C49.2749,58.5073,48.9473,58.6323,48.6196,58.6323z"/>
			</g>
		</g>
		<g>
			<g>
				<path fill="#A1D9B1" d="M61.8325,50.7456L61.8325,50.7456c-2.9189,0-5.2861-2.3657-5.2861-5.2846
					c0-7.8726,14.5342-9.2486,14.5342-9.2486S71.0806,50.7456,61.8325,50.7456z"/>
				<path fill="#4D5152" d="M61.8325,52.0259c-3.6201,0-6.5664-2.9453-6.5664-6.5649c0-8.9346,15.0527-10.4624,15.6934-10.5229
					l1.4014-0.1323v1.4067c0,0.1562-0.0137,3.8755-1.2168,7.6548C69.4458,49.2046,66.2261,52.0259,61.8325,52.0259z
					 M69.7231,37.7021c-3.4805,0.5933-11.8965,2.5674-11.8965,7.7588c0,2.208,1.7969,4.0049,4.0059,4.0049
					C68.0972,49.4658,69.437,41.166,69.7231,37.7021z"/>
			</g>
			<g>
				<path fill="#4D5152" d="M58.0952,50.4771c-0.3369,0-0.6738-0.1318-0.9248-0.395c-0.4883-0.5107-0.4707-1.3208,0.04-1.8096
					l5.2646-5.0376c0.5107-0.4883,1.3213-0.4697,1.8096,0.04c0.4883,0.5107,0.4707,1.3208-0.04,1.8096L58.98,50.1221
					C58.7319,50.3599,58.4136,50.4771,58.0952,50.4771z"/>
			</g>
			<g>
				<path fill="#4D5152" d="M49.7603,59.0405c-0.3218,0-0.6436-0.1211-0.8926-0.3623c-0.5068-0.4932-0.5181-1.3037-0.0249-1.8105
					l8.1069-8.3354c0.4941-0.5063,1.3047-0.5166,1.8105-0.0249c0.5068,0.4927,0.5176,1.3032,0.0254,1.8096l-8.1074,8.3359
					C50.4272,58.9106,50.0938,59.0405,49.7603,59.0405z"/>
			</g>
		</g>
	</g>
	<g>
		<g>
			<path fill="#4D5152" d="M49.2798,81.2798c-0.707,0-1.2798-0.5732-1.2798-1.2803V29.4399c0-0.707,0.5728-1.2798,1.2798-1.2798
				s1.2803,0.5728,1.2803,1.2798v50.5596C50.5601,80.7065,49.9868,81.2798,49.2798,81.2798z"/>
		</g>
		<g>
			<path fill="#4D5152" d="M55.314,81.2798c-0.707,0-1.2803-0.5732-1.2803-1.2803V68.5249c0-0.918-1.8516-2.251-4.7539-2.251
				c-2.6772,0-4.7539,1.21-4.7539,2.251v11.4746c0,0.707-0.5728,1.2803-1.2798,1.2803s-1.2798-0.5732-1.2798-1.2803V68.5249
				c0-2.6982,3.2124-4.8115,7.3135-4.8115c4.1016,0,7.3145,2.1133,7.3145,4.8115v11.4746
				C56.5942,80.7065,56.021,81.2798,55.314,81.2798z"/>
		</g>
	</g>
	<g>
		<g>
			<path fill="#4D5152" d="M53.3862,54.6138c-0.707,0-1.2803-0.5732-1.2803-1.2803V48.96c0-0.707,0.5732-1.2798,1.2803-1.2798
				s1.2803,0.5728,1.2803,1.2798v4.3735C54.6665,54.0405,54.0933,54.6138,53.3862,54.6138z"/>
		</g>
		<g>
			<path fill="#4D5152" d="M58.8276,55.894h-5.6543c-0.707,0-1.2803-0.5732-1.2803-1.2803s0.5732-1.2803,1.2803-1.2803h5.6543
				c0.707,0,1.2803,0.5732,1.2803,1.2803S59.5347,55.894,58.8276,55.894z"/>
		</g>
	</g>
	<g>
		<g>
			<path fill="#4D5152" d="M45.1733,54.6138c-0.707,0-1.2798-0.5732-1.2798-1.2803V48.96c0-0.707,0.5728-1.2798,1.2798-1.2798
				s1.2798,0.5728,1.2798,1.2798v4.3735C46.4531,54.0405,45.8804,54.6138,45.1733,54.6138z"/>
		</g>
		<g>
			<path fill="#4D5152" d="M45.3872,55.894h-5.6538c-0.707,0-1.2798-0.5732-1.2798-1.2803s0.5728-1.2803,1.2798-1.2803h5.6538
				c0.707,0,1.2798,0.5732,1.2798,1.2803S46.0942,55.894,45.3872,55.894z"/>
		</g>
	</g>
	<g>
		<g>
			<path fill="#4D5152" d="M48.4497,44.0259c-0.3276,0-0.6548-0.1245-0.9048-0.3745l-3.0923-3.0913
				c-0.5-0.5-0.5005-1.3101-0.0005-1.8101s1.3101-0.5005,1.8101-0.0005l3.0923,3.0913c0.5,0.5,0.5005,1.3101,0.0005,1.8101
				C49.105,43.9009,48.7773,44.0259,48.4497,44.0259z"/>
		</g>
		<g>
			<path fill="#4D5152" d="M49.2046,45.082c-0.3276,0-0.6553-0.125-0.9053-0.3745c-0.4995-0.5-0.4995-1.3105,0-1.8105l3.998-3.9976
				c0.5-0.5,1.3105-0.499,1.8105,0c0.5,0.5,0.5,1.3105,0,1.8105l-3.998,3.9976C49.8599,44.9575,49.5322,45.082,49.2046,45.082z"/>
		</g>
	</g>
</g>
</svg>
