<?xml version="1.0" encoding="utf-8"?>
<!-- Generator: Adobe Illustrator 17.1.0, SVG Export Plug-In . SVG Version: 6.00 Build 0)  -->
<!DOCTYPE svg PUBLIC "-//W3C//DTD SVG 1.1//EN" "http://www.w3.org/Graphics/SVG/1.1/DTD/svg11.dtd">
<svg version="1.1" id="peanut-free" xmlns="http://www.w3.org/2000/svg" xmlns:xlink="http://www.w3.org/1999/xlink" x="0px"
	 y="0px" viewBox="0 0 98.5601 98.5601" enable-background="new 0 0 98.5601 98.5601" xml:space="preserve">
<g id="peanut-free-label">
	<g>
		<circle fill="#A1D9B1" cx="49.2798" cy="49.2798" r="48"/>
		<path fill="#4D5152" d="M49.2798,98.5601C22.1069,98.5601,0,76.4526,0,49.2798S22.1064,0,49.2788,0
			c27.1738,0,49.2812,22.1069,49.2812,49.2798c0,13.1631-5.126,25.5381-14.4336,34.8457
			C74.8179,93.4341,62.4429,98.5601,49.2798,98.5601z M49.2798,2.5596c-25.7617,0-46.7202,20.9585-46.7202,46.7202
			s20.9585,46.7197,46.7202,46.7197c12.4795,0,24.2119-4.8594,33.0361-13.6836c8.8242-8.8252,13.6846-20.5576,13.6836-33.0361
			C95.9995,23.5181,75.0415,2.5596,49.2798,2.5596z"/>
	</g>
	<g>
		
			<rect x="2.4643" y="47.9995" transform="matrix(0.7071 0.7071 -0.7071 0.7071 49.2798 -20.4124)" fill="#4D5152" width="93.6309" height="2.5605"/>
	</g>
</g>
<g id="peanut-free-peanut">
	<g>
		<path fill="#FFB957" d="M50.8247,26.6118c5.7442-5.7431,14.3701-4.8647,20.1787,0.9453
			c5.8077,5.8077,6.6856,14.4341,0.9444,20.1758c-5.7403,5.7403-9.9629,4.2871-14.9444,9.2696
			c-4.9795,4.9804-3.5273,9.2021-9.2685,14.9433c-5.7427,5.7422-14.3677,4.8643-20.1763-0.9443
			c-5.81-5.8096-6.6875-14.4356-0.9448-20.1768c5.7412-5.7422,9.9585-4.2886,14.9409-9.272
			C46.5371,36.5708,45.086,32.3521,50.8247,26.6118z"/>
		<path fill="#4D5152" d="M38.5181,77.1118c-4.2944,0-8.5078-1.8486-11.8647-5.2051c-3.0874-3.0879-4.9258-6.9717-5.1768-10.9385
			c-0.2617-4.1348,1.2412-8.0586,4.2324-11.0488c3.1548-3.1553,5.958-4.2969,8.4312-5.3042
			c2.2056-0.8984,4.2891-1.7471,6.5093-3.9673c2.2207-2.2207,3.0693-4.3047,3.9683-6.5112
			c1.0068-2.4727,2.1484-5.2759,5.3018-8.4297c2.7891-2.7881,6.2891-4.2617,10.123-4.2617c4.2949,0,8.5088,1.8491,11.8662,5.207
			c6.5361,6.5356,6.9414,15.9873,0.9443,21.9858c-3.1543,3.1543-5.959,4.2959-8.4336,5.3027
			c-2.207,0.8984-4.291,1.7461-6.5107,3.9668c-2.2188,2.2188-3.0664,4.3018-3.9639,6.5078
			c-1.0078,2.4746-2.1494,5.2793-5.3047,8.4355C45.8521,75.6382,42.3521,77.1118,38.5181,77.1118z M60.0425,24.0054
			c-3.1406,0-6.0146,1.2144-8.3125,3.5117c-2.7881,2.7881-3.7368,5.1182-4.7417,7.5854c-0.9546,2.3447-1.9424,4.7695-4.5283,7.3555
			s-5.0103,3.5732-7.3545,4.5283c-2.4668,1.0044-4.7974,1.9536-7.5864,4.7437c-2.4995,2.498-3.7051,5.6367-3.4878,9.0762
			c0.2119,3.3447,1.7856,6.6436,4.4326,9.29c2.873,2.873,6.4438,4.4561,10.0542,4.4561c3.1401,0,6.0142-1.2148,8.3115-3.5117
			c2.79-2.79,3.7393-5.1211,4.7441-7.5898c0.9541-2.3447,1.9404-4.7686,4.5244-7.3535c2.5859-2.5859,5.0107-3.5732,7.3564-4.5273
			c2.4688-1.0049,4.7998-1.9536,7.5879-4.7422c5.0469-5.0474,4.6504-12.771-0.9443-18.3652
			C67.2251,25.5879,63.6538,24.0054,60.0425,24.0054z"/>
	</g>
	<g>
		<path fill="#4D5152" d="M28.9497,67.6567c-0.4595,0-0.9038-0.248-1.1333-0.6836c-0.3501-0.6641-0.6406-1.2598-0.8877-1.8223
			c-0.2852-0.6475,0.0088-1.4023,0.6558-1.6875c0.6494-0.2812,1.4033,0.0088,1.687,0.6562
			c0.2231,0.5068,0.4878,1.0498,0.8096,1.6602c0.3296,0.625,0.0898,1.3994-0.5352,1.7285
			C29.3555,67.6089,29.1509,67.6567,28.9497,67.6567z M27.0815,61.8364c-0.001,0-0.002,0-0.0029,0
			c-0.707-0.002-1.2788-0.5762-1.2769-1.2832c0.0029-1.251,0.3042-2.4385,0.9209-3.6328c0.3247-0.627,1.0981-0.875,1.7246-0.5488
			c0.6284,0.3242,0.8745,1.0967,0.5498,1.7246c-0.4316,0.835-0.6333,1.6172-0.6357,2.4629
			C28.3599,61.2651,27.7871,61.8364,27.0815,61.8364z M30.4336,55.4429c-0.3232,0-0.6465-0.1221-0.8955-0.3652
			c-0.5049-0.4951-0.5137-1.3047-0.019-1.8105l0.1514-0.1523c0.7793-0.7793,1.5596-1.459,2.3809-2.0713
			c0.5664-0.4219,1.3687-0.3066,1.791,0.2607c0.4229,0.5674,0.3062,1.3691-0.2607,1.792c-0.7207,0.5371-1.4092,1.1367-2.1055,1.834
			l-0.1279,0.1279C31.0977,55.314,30.7656,55.4429,30.4336,55.4429z M36.4683,51.2261c-0.4873,0-0.9531-0.2793-1.167-0.7529
			c-0.2915-0.6436-0.0059-1.4019,0.6382-1.6934c0.6479-0.293,1.2837-0.5522,1.9141-0.8086
			c0.3496-0.1426,0.6973-0.2837,1.0444-0.4307c0.6514-0.2729,1.4019,0.0303,1.6772,0.6807
			c0.2749,0.6514-0.0298,1.4023-0.6807,1.6777c-0.3574,0.1509-0.7158,0.2969-1.0762,0.4434
			c-0.6001,0.2441-1.2065,0.4902-1.8232,0.7695C36.8237,51.189,36.6445,51.2261,36.4683,51.2261z M43.1089,47.9868
			c-0.397,0-0.7881-0.1841-1.0386-0.5308c-0.4141-0.5732-0.2852-1.373,0.2881-1.7871c0.6201-0.4482,1.2036-0.9478,1.7837-1.5283
			c0.1362-0.1367,0.269-0.2739,0.3965-0.4111c0.4805-0.5181,1.291-0.5474,1.8091-0.0649c0.5176,0.4814,0.5464,1.2915,0.0649,1.8091
			c-0.147,0.1577-0.3003,0.3164-0.4585,0.4756c-0.6787,0.6792-1.3643,1.2661-2.0967,1.7949
			C43.6309,47.9077,43.3687,47.9868,43.1089,47.9868z M47.9043,42.4341c-0.1987,0-0.4009-0.0464-0.5894-0.1445
			c-0.6274-0.3262-0.8716-1.0986-0.5454-1.7261c0.4609-0.8867,0.8223-1.7744,1.2046-2.7139l1.2178,0.4033l1.1533,0.562
			c-0.3877,0.9521-0.7886,1.937-1.3042,2.9292C48.813,42.1826,48.3667,42.4341,47.9043,42.4341z M50.9956,35.708
			c-0.2217,0-0.4453-0.0576-0.6504-0.1782c-0.6084-0.3594-0.8101-1.144-0.4507-1.7529c0.5737-0.9712,1.2183-1.873,1.9712-2.7573
			c0.458-0.5366,1.2656-0.603,1.8047-0.1445c0.5381,0.4585,0.6025,1.2661,0.1445,1.8047c-0.6572,0.771-1.2178,1.5557-1.7158,2.3989
			C51.8599,35.4829,51.4331,35.708,50.9956,35.708z M55.8784,30.1875c-0.3809,0-0.7578-0.1694-1.0098-0.4927
			c-0.4355-0.5576-0.3359-1.3618,0.2217-1.7969c1.0898-0.8506,2.126-1.4224,3.167-1.7476c0.6768-0.21,1.3926,0.165,1.6035,0.8398
			s-0.165,1.3926-0.8398,1.6035c-0.7422,0.2319-1.5127,0.6646-2.3564,1.3228C56.4312,30.0986,56.1538,30.1875,55.8784,30.1875z
			 M65.7593,29.9175c-0.1826,0-0.3691-0.0396-0.5459-0.1226c-1.1016-0.52-1.9795-0.8687-2.7627-1.0972
			c-0.6787-0.1982-1.0684-0.9087-0.8701-1.5874c0.1982-0.6792,0.9102-1.0664,1.5869-0.8706
			c0.916,0.2671,1.9131,0.6611,3.1396,1.2397c0.6387,0.3018,0.9121,1.0649,0.6104,1.7041
			C66.6997,29.6465,66.2388,29.9175,65.7593,29.9175z"/>
	</g>
	<g>
		<path fill="#4D5152" d="M38.0049,72.7583c-0.7056,0-1.2778-0.5713-1.2798-1.2764c-0.0024-0.707,0.5693-1.2822,1.2764-1.2842
			c0.8447-0.002,1.6274-0.2041,2.4634-0.6357c0.6274-0.3262,1.3999-0.0781,1.7246,0.5488c0.3247,0.6279,0.0786,1.4004-0.5498,1.7246
			c-1.1938,0.6172-2.3813,0.9189-3.6313,0.9229C38.0073,72.7583,38.0059,72.7583,38.0049,72.7583z M33.9238,71.7407
			c-0.1724,0-0.3472-0.0352-0.5146-0.1084c-0.5625-0.2471-1.1597-0.5381-1.8247-0.8896c-0.625-0.3301-0.8643-1.1045-0.5342-1.7295
			c0.3306-0.625,1.106-0.8633,1.7295-0.5342c0.6104,0.3223,1.1533,0.5869,1.6597,0.8096c0.647,0.2842,0.9409,1.04,0.6567,1.6865
			C34.8853,71.4546,34.416,71.7407,33.9238,71.7407z M44.397,69.4048c-0.3369,0-0.6733-0.1328-0.9243-0.3955
			c-0.4893-0.5098-0.4717-1.3203,0.0391-1.8096l0.1177-0.1162c0.6958-0.6953,1.2959-1.3848,1.8345-2.1064
			c0.4224-0.5664,1.2241-0.6836,1.7915-0.2598c0.5664,0.4229,0.6831,1.2246,0.2603,1.791
			c-0.6133,0.8213-1.2925,1.6016-2.0757,2.3857l-0.1577,0.1553C45.0342,69.2866,44.7153,69.4048,44.397,69.4048z M48.6123,63.3726
			c-0.1763,0-0.3555-0.0371-0.5269-0.1143c-0.644-0.291-0.9297-1.0498-0.6382-1.6934c0.2783-0.6152,0.5239-1.2207,0.7676-1.8193
			c0.1475-0.3623,0.2939-0.7217,0.4458-1.0801c0.2744-0.6523,1.0298-0.958,1.6768-0.6807c0.6514,0.2754,0.9561,1.0264,0.6807,1.6768
			c-0.1465,0.3486-0.2891,0.6973-0.4316,1.0488c-0.2559,0.6289-0.5146,1.2637-0.8071,1.9092
			C49.5654,63.0933,49.0996,63.3726,48.6123,63.3726z M51.8521,56.7329c-0.2598,0-0.5215-0.0791-0.748-0.2422
			c-0.5732-0.4131-0.7031-1.2139-0.2891-1.7871c0.5283-0.7324,1.1152-1.4189,1.793-2.0967c0.1602-0.1602,0.3193-0.3125,0.4766-0.46
			c0.5166-0.4824,1.3262-0.4551,1.8096,0.0615c0.4824,0.5176,0.4551,1.3271-0.0615,1.8096
			c-0.1377,0.1279-0.2754,0.2607-0.4141,0.3994c-0.5801,0.5801-1.0801,1.1631-1.5273,1.7842
			C52.6411,56.5483,52.2495,56.7329,51.8521,56.7329z M57.4067,51.9341c-0.4629,0-0.9092-0.252-1.1367-0.6904
			c-0.3262-0.627-0.0811-1.3999,0.5459-1.7261c0.9941-0.5156,1.9805-0.917,2.9346-1.3052c0.6523-0.2632,1.4385,0.0337,1.7051,0.688
			c0.2666,0.6548-0.0107,1.3862-0.666,1.6528l-0.0752,0.0303c-0.9414,0.3828-1.8301,0.7451-2.7188,1.2061
			C57.8071,51.8872,57.606,51.9341,57.4067,51.9341z M64.1323,48.8423c-0.4375,0-0.8643-0.2251-1.1035-0.6299
			c-0.3594-0.6089-0.1562-1.3936,0.4521-1.7529c0.8408-0.4961,1.625-1.0571,2.3984-1.7158c0.54-0.4595,1.3457-0.394,1.8047,0.144
			c0.458,0.5381,0.3936,1.3457-0.1445,1.8042c-0.8867,0.7559-1.7891,1.4009-2.7578,1.9727
			C64.5776,48.7847,64.354,48.8423,64.1323,48.8423z M69.6509,43.9629c-0.2754,0-0.5527-0.0889-0.7871-0.2715
			c-0.5566-0.4351-0.6562-1.2397-0.2207-1.7969c0.6582-0.8423,1.0908-1.6128,1.3232-2.3555
			c0.2109-0.6743,0.9238-1.0503,1.6045-0.8394c0.6738,0.2114,1.0498,0.9297,0.8389,1.604c-0.3262,1.042-0.8984,2.0776-1.749,3.167
			C70.4077,43.7935,70.0317,43.9629,69.6509,43.9629z M71.0894,37.0312c-0.5547,0-1.0654-0.3633-1.2285-0.9229
			c-0.2266-0.7808-0.5752-1.6582-1.0957-2.7622c-0.3018-0.6392-0.0283-1.4023,0.6104-1.7041
			c0.6426-0.3013,1.4043-0.0278,1.7041,0.6113c0.5801,1.229,0.9746,2.2266,1.2402,3.1401c0.1973,0.6792-0.1934,1.3892-0.8721,1.5864
			C71.3286,37.0146,71.2085,37.0312,71.0894,37.0312z"/>
	</g>
	<g>
		<path fill="#4D5152" d="M32.9888,66.8511c-0.3276,0-0.6553-0.125-0.9053-0.375c-0.4995-0.5-0.4995-1.3105,0-1.8105l1.124-1.124
			c0.5-0.5,1.3105-0.5,1.8105,0c0.4995,0.5,0.4995,1.3105,0,1.8105l-1.124,1.124C33.644,66.7261,33.3164,66.8511,32.9888,66.8511z
			 M37.1089,62.731c-0.3276,0-0.6553-0.125-0.9053-0.375c-0.4995-0.5-0.4995-1.3105,0-1.8105l2.2471-2.2471
			c0.5-0.5,1.3105-0.5,1.8105,0c0.4995,0.5,0.4995,1.3105,0,1.8105l-2.2471,2.2471C37.7642,62.606,37.4365,62.731,37.1089,62.731z
			 M42.3521,57.4878c-0.3276,0-0.6553-0.125-0.9053-0.375c-0.4995-0.5-0.4995-1.3105,0-1.8105l2.2471-2.2471
			c0.5-0.5,1.3105-0.5,1.8105,0c0.4995,0.5,0.4995,1.3105,0,1.8105l-2.2471,2.2471C43.0073,57.3628,42.6797,57.4878,42.3521,57.4878
			z M47.5957,52.2446c-0.3276,0-0.6553-0.125-0.9053-0.375c-0.4995-0.5-0.4995-1.3105,0-1.8105l2.2471-2.2471
			c0.5-0.5,1.3101-0.5,1.8101,0s0.5,1.3105,0,1.8105l-2.2466,2.2471C48.251,52.1196,47.9233,52.2446,47.5957,52.2446z
			 M52.8384,47.001c-0.3281,0-0.6553-0.125-0.9053-0.375c-0.5-0.5-0.5-1.3105,0-1.8101l2.248-2.2471
			c0.5-0.501,1.3105-0.4995,1.8105,0.0005s0.5,1.3105,0,1.8101l-2.248,2.2471C53.4937,46.8765,53.1655,47.001,52.8384,47.001z
			 M58.0825,41.7578c-0.3271,0-0.6553-0.1245-0.9053-0.3745c-0.5-0.5-0.5-1.3105,0-1.8105l2.2471-2.2471
			c0.5-0.5,1.3105-0.5,1.8105,0s0.5,1.3105,0,1.8105l-2.2471,2.2471C58.7378,41.6333,58.4097,41.7578,58.0825,41.7578z
			 M63.3257,36.5146c-0.3271,0-0.6553-0.125-0.9053-0.3745c-0.5-0.5-0.5-1.3105,0-1.8105l2.2471-2.2471c0.5-0.5,1.3105-0.5,1.8105,0
			s0.5,1.3105,0,1.8105l-2.2471,2.2471C63.981,36.3896,63.6528,36.5146,63.3257,36.5146z"/>
	</g>
</g>
</svg>
