<?xml version="1.0" encoding="utf-8"?>
<!-- Generator: Adobe Illustrator 17.1.0, SVG Export Plug-In . SVG Version: 6.00 Build 0)  -->
<!DOCTYPE svg PUBLIC "-//W3C//DTD SVG 1.1//EN" "http://www.w3.org/Graphics/SVG/1.1/DTD/svg11.dtd">
<svg version="1.1" id="ph-balance" xmlns="http://www.w3.org/2000/svg" xmlns:xlink="http://www.w3.org/1999/xlink" x="0px" y="0px"
	 viewBox="0 0 98.7651 98.7651" enable-background="new 0 0 98.7651 98.7651" xml:space="preserve">
<g id="ph-balance-label">
	<circle fill="#FFB957" cx="49.3823" cy="49.3823" r="48"/>
	<path fill="#4D5152" d="M49.3823,98.7651C22.1528,98.7651,0,76.6118,0,49.3823S22.1528,0,49.3823,0
		s49.3828,22.1528,49.3828,49.3823S76.6118,98.7651,49.3823,98.7651z M49.3823,2.7646c-25.7051,0-46.6177,20.9126-46.6177,46.6177
		s20.9126,46.6172,46.6177,46.6172s46.6172-20.9121,46.6172-46.6172S75.0874,2.7646,49.3823,2.7646z"/>
</g>
<g id="ph-balance-ph-balance">
	<g id="ph-balance-hand">
		<g>
			<path fill="#FFFFFF" d="M33.9175,57.8755c11.7724,0.164,14.5717,5.7617,17.6171,5.7617c3.0469,0,11.4034-0.0987,10.3321,5.8291
				c4.2285,1.2109,10.9912-7.8047,13.79-7.8047c2.7988,0,4.4453,1.4824,4.4453,4.6103c0,4.1993-18.0293,13.8301-25.5205,13.8301
				c-7.1626,0-17.7002-7.3261-21.1582-7.3261"/>
			<path fill="#4D5152" d="M54.5815,81.4849c-4.5361,0-10.1421-2.6475-14.646-4.7744c-2.6572-1.2549-5.4043-2.5518-6.5122-2.5518
				c-0.7637,0-1.3823-0.6191-1.3823-1.3828s0.6187-1.3828,1.3823-1.3828c1.7275,0,4.3599,1.2432,7.6929,2.8174
				c4.2544,2.0088,9.5493,4.5088,13.4653,4.5088c7.7402,0,24.1377-9.7529,24.1377-12.4473c0-2.2627-0.916-3.2275-3.0625-3.2275
				c-0.6797,0.0225-2.7646,1.7715-4.1445,2.9297c-3.2041,2.6875-6.8379,5.7354-10.0264,4.8213
				c-0.6826-0.1953-1.1055-0.876-0.9795-1.5752c0.1758-0.9736,0.0293-1.7246-0.4492-2.2969
				c-1.5938-1.9072-6.3311-1.8867-8.374-1.9033h-0.1484c-1.4395,0-2.6841-0.7988-4.1255-1.7236
				c-2.5874-1.6611-6.1313-3.9355-13.5107-4.0391c-0.7637-0.0098-1.374-0.6377-1.3633-1.4014
				c0.0107-0.7568,0.6274-1.3633,1.3818-1.3633c0.0068,0,0.0132,0,0.0195,0.001c8.1699,0.1133,12.2598,2.7383,14.9663,4.4756
				c1.1191,0.7178,2.0029,1.2852,2.6318,1.2852h0.1465c2.6074,0.0078,8.0732-0.0049,10.4971,2.8955
				c0.7061,0.8447,1.0928,1.8398,1.1572,2.9688c1.8438-0.4404,4.4219-2.6035,6.4004-4.2627
				c2.3818-1.998,4.2627-3.5771,5.9209-3.5771c3.6494,0,5.8281,2.2402,5.8281,5.9932c0,3.4404-6.6904,7.5586-10.6787,9.707
				C65.8657,78.6401,59.0093,81.4849,54.5815,81.4849z"/>
		</g>
		<g>
			<rect x="18.6626" y="52.6059" fill="#A1D9B1" width="14.7524" height="23.1826"/>
			<path fill="#4D5152" d="M33.415,77.1714H18.6626c-0.7637,0-1.3823-0.6191-1.3823-1.3828V52.606
				c0-0.7637,0.6187-1.3828,1.3823-1.3828H33.415c0.7637,0,1.3823,0.6191,1.3823,1.3828v23.1826
				C34.7974,76.5522,34.1787,77.1714,33.415,77.1714z M20.0449,74.4058h11.9878v-20.417H20.0449V74.4058z"/>
		</g>
		<g>
			<path fill="#4D5152" d="M61.8667,70.8491H45.0068c-0.7637,0-1.3823-0.6191-1.3823-1.3828s0.6187-1.3828,1.3823-1.3828h16.8599
				c0.7637,0,1.3828,0.6191,1.3828,1.3828S62.6304,70.8491,61.8667,70.8491z"/>
		</g>
		<g>
			<g>
				<path fill="#4D5152" d="M33.2759,58.231h-13.334c-0.7637,0-1.3823-0.6191-1.3823-1.3828s0.6187-1.3828,1.3823-1.3828h13.334
					c0.7637,0,1.3823,0.6191,1.3823,1.3828S34.0396,58.231,33.2759,58.231z"/>
			</g>
			<g>
				<path fill="#4D5152" d="M33.2759,62.9253h-13.334c-0.7637,0-1.3823-0.6191-1.3823-1.3828s0.6187-1.3828,1.3823-1.3828h13.334
					c0.7637,0,1.3823,0.6191,1.3823,1.3828S34.0396,62.9253,33.2759,62.9253z"/>
			</g>
			<g>
				<path fill="#4D5152" d="M33.2759,67.6187h-13.334c-0.7637,0-1.3823-0.6191-1.3823-1.3828s0.6187-1.3828,1.3823-1.3828h13.334
					c0.7637,0,1.3823,0.6191,1.3823,1.3828S34.0396,67.6187,33.2759,67.6187z"/>
			</g>
			<g>
				<path fill="#4D5152" d="M33.2759,72.311h-13.334c-0.7637,0-1.3823-0.6191-1.3823-1.3828s0.6187-1.3828,1.3823-1.3828h13.334
					c0.7637,0,1.3823,0.6191,1.3823,1.3828S34.0396,72.311,33.2759,72.311z"/>
			</g>
		</g>
	</g>
	<g id="ph-balance-drop">
		<g>
			<g>
				<path fill="#A1D9B1" d="M62.1518,18.6626c-1.5009,10.8022-11.6562,17.3252-11.6562,26.7422
					c0,6.4384,5.2187,11.6572,11.6562,11.6572c6.4385,0,11.6553-5.2188,11.6553-11.6572
					C73.8071,35.9878,63.6538,29.4648,62.1518,18.6626z"/>
				<path fill="#4D5152" d="M62.1519,58.4448c-7.1895,0-13.0386-5.8496-13.0386-13.04c0-5.2402,2.7681-9.4585,5.6978-13.9243
					c2.5977-3.958,5.2832-8.0513,5.9717-13.0083c0.0947-0.6831,0.6787-1.1919,1.3691-1.1919c0.6895,0,1.2744,0.5088,1.3691,1.1919
					c0.6895,4.957,3.374,9.0498,5.9707,13.0078c2.9307,4.4658,5.6982,8.6846,5.6982,13.9248
					C75.1899,52.5952,69.3413,58.4448,62.1519,58.4448z M62.1519,24.0107c-1.2812,3.2749-3.1768,6.1631-5.0293,8.9863
					c-2.6973,4.1108-5.2441,7.9937-5.2441,12.4077c0,5.666,4.6084,10.2744,10.2734,10.2744c5.6641,0,10.2725-4.6084,10.2725-10.2744
					c0-4.4141-2.5469-8.2974-5.2441-12.4082C65.3276,30.1733,63.4341,27.2856,62.1519,24.0107z"/>
			</g>
		</g>
		<g>
			<path fill="#4D5152" d="M61.4048,49.04c-0.3184,0-0.6279-0.1094-0.877-0.314l-5.0127-4.1143
				c-0.5898-0.4844-0.6758-1.3555-0.1914-1.9453s1.3555-0.6763,1.9453-0.1914l3.8564,3.1646l5.6523-8.1221
				c0.4365-0.6274,1.2979-0.7808,1.9248-0.3452c0.626,0.436,0.7803,1.2979,0.3447,1.9243l-6.5078,9.3506
				c-0.2207,0.3169-0.5625,0.5269-0.9453,0.5796C61.5317,49.0356,61.4683,49.04,61.4048,49.04z"/>
		</g>
	</g>
</g>
</svg>
