<?xml version="1.0" encoding="utf-8"?>
<!-- Generator: Adobe Illustrator 17.1.0, SVG Export Plug-In . SVG Version: 6.00 Build 0)  -->
<!DOCTYPE svg PUBLIC "-//W3C//DTD SVG 1.1//EN" "http://www.w3.org/Graphics/SVG/1.1/DTD/svg11.dtd">
<svg version="1.1" id="raw-food" xmlns="http://www.w3.org/2000/svg" xmlns:xlink="http://www.w3.org/1999/xlink" x="0px" y="0px"
	 viewBox="0 0 98.5601 98.5601" enable-background="new 0 0 98.5601 98.5601" xml:space="preserve">
<g id="raw-food-label">
	<circle fill="#FFFDE3" cx="49.2798" cy="49.2798" r="48"/>
	<path fill="#4D5152" d="M49.2798,98.5601C22.1069,98.5601,0,76.4526,0,49.2798S22.1069,0,49.2798,0
		s49.2803,22.1069,49.2803,49.2798S76.4526,98.5601,49.2798,98.5601z M49.2798,2.5596c-25.7617,0-46.7202,20.9585-46.7202,46.7202
		s20.9585,46.7197,46.7202,46.7197s46.7197-20.958,46.7197-46.7197S75.0415,2.5596,49.2798,2.5596z"/>
</g>
<g id="raw-food-apple">
	<g>
		<g>
			<path fill="#A1D9B1" d="M50.2647,32.0161c0,0-7.6001,1.6949-13.5088-1.9199c-5.9024-3.6016-7.8662-11.1416-7.8662-11.1416
				s7.6074-1.6846,13.5063,1.9126C48.2974,24.4712,50.2647,32.0161,50.2647,32.0161z"/>
			<path fill="#4D5152" d="M45.978,33.6929c-2.644,0-6.5059-0.4346-9.8901-2.5049c-6.2705-3.8262-8.3516-11.5825-8.437-11.9106
				c-0.0874-0.3364-0.0347-0.6943,0.147-0.9907c0.1812-0.2964,0.4756-0.5068,0.8149-0.5815
				c0.0786-0.0176,1.9468-0.4243,4.561-0.4243c2.6455,0,6.5088,0.4326,9.8887,2.4937c6.271,3.8296,8.355,11.5903,8.4409,11.9189
				c0.0879,0.3359,0.0352,0.6934-0.1465,0.9897c-0.1807,0.2964-0.4746,0.5068-0.8135,0.5825
				C50.4653,33.2827,48.5952,33.6929,45.978,33.6929z M30.5825,19.9878c0.8379,2.2202,2.9111,6.6182,6.8398,9.0156
				c2.8774,1.7603,6.2407,2.1294,8.5557,2.1294c1.0171,0,1.9106-0.0698,2.5942-0.1484c-0.8384-2.2207-2.9131-6.6245-6.8433-9.0249
				c-2.8721-1.751-6.2378-2.1191-8.5552-2.1191C32.1582,19.8403,31.2661,19.9097,30.5825,19.9878z"/>
		</g>
		<g>
			<path fill="#A1D9B1" d="M50.1196,36.981c0,0,6.3204,1.4087,11.2344-1.5977c4.9072-2.9946,6.541-9.2646,6.541-9.2646
				s-6.3261-1.4014-11.2314,1.5898C51.7564,30.7061,50.1196,36.981,50.1196,36.981z"/>
			<path fill="#4D5152" d="M53.6821,38.5908L53.6821,38.5908c-2.1992,0-3.7749-0.3457-3.8408-0.3604
				c-0.3394-0.0757-0.6333-0.2861-0.814-0.5825c-0.1812-0.2964-0.2339-0.6538-0.1465-0.9902
				c0.0723-0.2764,1.8276-6.812,7.1157-10.0415c2.8535-1.7402,6.1074-2.1055,8.334-2.1055c2.1982,0,3.7754,0.3438,3.8408,0.3584
				c0.3398,0.0752,0.6338,0.2852,0.8154,0.5815c0.1816,0.2969,0.2344,0.6543,0.1465,0.9907
				c-0.0713,0.2764-1.8242,6.8076-7.1123,10.0347C59.1646,38.2236,55.9097,38.5908,53.6821,38.5908z M51.8296,35.9385
				c0.5166,0.0513,1.1484,0.0923,1.8525,0.0923c1.8984,0,4.6543-0.3018,7.0039-1.7393c3.0674-1.8716,4.7549-5.2446,5.499-7.1289
				c-0.5176-0.0513-1.1494-0.0918-1.8545-0.0918c-1.8984,0-4.6553,0.3003-7.001,1.7305
				C54.2622,30.6748,52.5737,34.0527,51.8296,35.9385z"/>
		</g>
	</g>
	<g>
		<path fill="#FFB957" d="M49.2837,42.6475c11.7295-5.6616,22.7266-1.3677,23.0537,12.4858
			c0.2949,12.3301-8.4765,30.7803-23.0537,23.0215c-14.5864,7.7588-23.3462-10.6914-23.0625-23.0215
			C26.5562,41.2798,37.5449,36.9859,49.2837,42.6475"/>
		<path fill="#4D5152" d="M56.0005,81.2798c-2.1777,0-4.4346-0.5674-6.7168-1.6875c-2.2842,1.1201-4.5425,1.6875-6.7207,1.6875
			c-3.5557,0-6.9404-1.54-9.7881-4.4541c-5.5938-5.7236-7.9819-15.2725-7.8335-21.7217c0.2412-9.9688,5.8687-16.1606,14.687-16.1606
			c3.0479,0,6.374,0.7905,9.6553,2.29c3.2783-1.4995,6.6035-2.29,9.6504-2.29c8.8213,0,14.4473,6.1919,14.6826,16.1597
			c0.1543,6.4414-2.2275,15.9844-7.8213,21.7148c-2.8496,2.9189-6.2363,4.4619-9.7939,4.4619H56.0005z M49.2837,76.8745
			c0.2065,0,0.4136,0.0508,0.6016,0.1504c2.1133,1.125,4.1709,1.6953,6.1152,1.6953c0,0,0,0,0.001,0
			c2.8926-0.001,5.5713-1.2422,7.9619-3.6904c4.3506-4.4561,7.2676-12.625,7.0947-19.8662
			c-0.2021-8.5537-4.7344-13.6602-12.124-13.6602c-2.8359,0-5.9814,0.7944-9.0938,2.2969c-0.3516,0.1699-0.7612,0.1699-1.1128,0
			c-3.1152-1.5024-6.2617-2.2969-9.0991-2.2969c-7.3872,0-11.9209,5.1069-12.1274,13.6611
			c-0.167,7.248,2.7549,15.4209,7.105,19.8721c3.9951,4.0889,8.8184,4.7842,14.0767,1.9883
			C48.8706,76.9243,49.0771,76.8745,49.2837,76.8745z"/>
	</g>
	<g>
		<path fill="#4D5152" d="M41.3799,70.4751c-0.2046,0-0.4116-0.0488-0.6045-0.1523c-2.9585-1.5879-5.7241-6.5186-6.2974-11.2246
			c-0.4668-3.8369,0.5703-7.1201,2.9209-9.2446c0.5264-0.4736,1.335-0.4321,1.8081,0.0913c0.4741,0.5244,0.4331,1.334-0.0913,1.8076
			c-2.1987,1.9873-2.3535,4.9238-2.0962,7.0371c0.5151,4.2314,2.9839,8.2129,4.9668,9.2773
			c0.6226,0.334,0.8564,1.1104,0.5225,1.7334C42.2778,70.23,41.8359,70.4751,41.3799,70.4751z"/>
	</g>
	<g>
		<path fill="#4D5152" d="M49.6572,43.2598c-0.707,0-1.2798-0.5728-1.2798-1.2798V32.061c0-0.707,0.5728-1.2798,1.2798-1.2798
			c0.7065,0,1.2798,0.5728,1.2798,1.2798V41.98C50.937,42.687,50.3638,43.2598,49.6572,43.2598z"/>
	</g>
</g>
</svg>
