<?xml version="1.0" encoding="utf-8"?>
<!-- Generator: Adobe Illustrator 17.1.0, SVG Export Plug-In . SVG Version: 6.00 Build 0)  -->
<!DOCTYPE svg PUBLIC "-//W3C//DTD SVG 1.1//EN" "http://www.w3.org/Graphics/SVG/1.1/DTD/svg11.dtd">
<svg version="1.1" id="safe-tan" xmlns="http://www.w3.org/2000/svg" xmlns:xlink="http://www.w3.org/1999/xlink" x="0px" y="0px"
	 viewBox="0 0 98.5601 98.5601" enable-background="new 0 0 98.5601 98.5601" xml:space="preserve">
<g id="safe-tan-label">
	<circle fill="#A1D9B1" cx="49.2798" cy="49.2798" r="48"/>
	<path fill="#4D5152" d="M49.2798,98.5601C22.1069,98.5601,0,76.4526,0,49.2798S22.1069,0,49.2798,0
		s49.2803,22.1069,49.2803,49.2798S76.4526,98.5601,49.2798,98.5601z M49.2798,2.5596c-25.7617,0-46.7202,20.9585-46.7202,46.7202
		s20.9585,46.7197,46.7202,46.7197s46.7197-20.958,46.7197-46.7197S75.0415,2.5596,49.2798,2.5596z"/>
</g>
<g id="safe-tan-face">
	<g>
		<path fill="#FFB957" d="M49.0581,77.8237c-2.2812,0-4.5034-0.5127-6.6196-1.4287v4.0987l15.8716-0.1035v-5.377
			C55.4361,76.7847,52.3052,77.8237,49.0581,77.8237z"/>
		<path fill="#FFB957" d="M68.6226,47.2959c-3.5928-2.4521-5.293-6.6299-6.043-9.27c-5.1318,5.1641-10.5215,8.4033-15.5171,10.4087
			c-6.4341,2.5835-12.2129,3.1323-15.9389,3.1323c-1.5586,0-2.7569-0.0957-3.4961-0.1767
			c1.9336,11.6699,11.02,23.915,21.4306,23.915c11.124,0,21.0625-14.6514,21.7627-26.8394
			C70.0171,48.1509,69.2886,47.7515,68.6226,47.2959z"/>
		<path fill="#FFFFFF" d="M39.7827,77.9536c-8.0298-1.7734-14.4243-3.5508-17.5815-8.8164
			c-3.1465-5.247-2.8457-13.9795,0.9463-27.4829c2.6972-9.6059,7.5737-16.1543,14.4936-19.4658
			c3.4527-1.6524,7.4263-2.4912,11.8086-2.4912c7.8477,0,14.3955,2.7051,14.6709,2.8198
			c0.1426,0.0537,16.3545,6.4844,14.2002,31.2822c-0.0146,0.1914-1.6846,19.792-17.3271,23.9981l-0.794,0.2138v-5.0937
			l0.2344-0.1885c7.2539-5.8584,12.3193-16.3926,12.3193-25.6181c0-0.3472-0.2822-0.6299-0.6298-0.6299
			c-0.1026,0-0.2051,0.0288-0.3047,0.0864l-0.2715,0.1538l-0.2871-0.1226c-0.6817-0.2915-1.3233-0.6626-1.9092-1.1025
			c-2.4102-1.8125-3.7891-4.6294-4.5205-6.6738c-0.6934-1.9375-0.9112-3.439-0.9131-3.4536
			c-0.0137-0.0513-0.0186-0.0738-0.0254-0.0957c-0.0264-0.0713-0.0361-0.0933-0.0469-0.1143l-0.0683-0.1001l-0.0625-0.0688
			l-0.0254-0.0201c-0.0625-0.0449-0.0811-0.0576-0.1006-0.0673l-0.1162-0.0489l-0.1123-0.0224l-0.1787-0.6275l0.0576,0.6187
			l0.0244-0.0039l-0.0244,0.0063l0.001,0.0059l-0.0342,0.0029l-0.0293,0.0064c-0.083,0.021-0.1026,0.0278-0.1231,0.0361
			c-0.0693,0.0347-0.0898,0.0464-0.1093,0.0586l-0.1563,0.1338c-0.539,0.5991-1.1631,1.2426-1.9228,1.9887
			C49.7124,48.0034,37.2593,49.6372,30.8286,49.6372c-0.4399,0-0.8462-0.0073-1.2148-0.0205
			c-1.5679-0.0542-2.4839-0.1968-2.4922-0.1992l-0.2852-0.02l-0.2246-0.2295c-0.0649-0.0869-0.1543-0.1558-0.2583-0.2007
			l-0.4619-0.1963l-0.2905,0.4102c-0.063,0.0898-0.1353,0.2348-0.1177,0.4204c0.9556,9.9809,7.0264,20.2378,14.7627,24.9409
			l0.3023,0.1836v3.3965L39.7827,77.9536z M46.9361,35.7822c-0.1602,0-0.3121,0.0601-0.4288,0.169
			c-1.4502,1.355-3.1865,2.6704-5.1601,3.9111c-2.7959,1.7573-6.0723,3.3711-9.7363,4.7949
			c-4.5674,1.7749-8.0972,2.6128-8.1319,2.6202c-0.3369,0.0786-0.5478,0.4184-0.4692,0.7563
			c0.0664,0.2866,0.3188,0.4873,0.6123,0.4873c0.0478,0,0.0952-0.0054,0.1426-0.0161c0.0927-0.0215,0.5039-0.1187,1.1587-0.2959
			l0.7329-0.1973l0.7646-0.227c5.0689-1.5034,14.5303-4.9199,20.9463-10.9126c0.2539-0.2373,0.2676-0.6362,0.0303-0.8906
			C47.2774,35.8535,47.1138,35.7822,46.9361,35.7822L46.9361,35.7822z"/>
	</g>
	<g>
		<path fill="#4D5152" d="M39.8818,79.9009c-0.0908,0-0.1836-0.0098-0.2759-0.0303c-8.3169-1.8301-15.4902-3.8271-19.043-9.752
			c-3.4824-5.8066-3.2524-14.7451,0.7456-28.9814c2.8545-10.165,8.0776-17.1226,15.5234-20.6792
			c12.7925-6.1113,27.3804,0.022,27.9937,0.2856c0.124,0.0449,17.6787,6.9658,15.3984,33.2061
			c-0.0156,0.2021-0.4248,5.374-2.9307,11.1396c-3.3662,7.748-8.9297,12.8086-16.0889,14.6348
			c-0.6875,0.1768-1.3828-0.2383-1.5566-0.9238c-0.1748-0.6846,0.2393-1.3818,0.9238-1.5566
			c6.4326-1.6416,11.2588-6.0508,14.3447-13.1064c2.3506-5.377,2.752-10.3447,2.7559-10.3945
			c2.1064-24.2446-13.1553-30.377-13.8057-30.626c-0.1904-0.0806-14.2148-5.9565-25.9458-0.3418
			c-6.7437,3.2271-11.5034,9.6382-14.1475,19.0547c-3.7407,13.3193-4.063,21.8896-1.0151,26.9727
			c3.0337,5.0576,9.3955,6.8076,17.3975,8.5684c0.6904,0.1523,1.127,0.835,0.9751,1.5254
			C40.9995,79.4937,40.4697,79.9009,39.8818,79.9009z"/>
	</g>
	<g>
		<path fill="#4D5152" d="M49.0581,77.8452c-12.3193,0-22.9482-14.8789-24.2217-28.1816c-0.0669-0.7036,0.4487-1.3291,1.1523-1.3965
			c0.7065-0.0659,1.3286,0.4492,1.3965,1.1523c1.4165,14.8037,12.6104,25.8652,21.6729,25.8652
			c11.5283,0,21.7852-15.7549,21.7852-28.1738c0-0.707,0.5732-1.2798,1.2803-1.2798s1.2803,0.5728,1.2803,1.2798
			C73.4038,60.9458,62.1694,77.8452,49.0581,77.8452z"/>
	</g>
	<g>
		<path fill="#4D5152" d="M50.5933,66.6411h-3.0718c-0.707,0-1.2798-0.5732-1.2798-1.2803s0.5728-1.2803,1.2798-1.2803h3.0718
			c0.707,0,1.2803,0.5732,1.2803,1.2803S51.3003,66.6411,50.5933,66.6411z"/>
	</g>
	<g>
		<path fill="#4D5152" d="M31.124,51.5864c-2.5117,0-4.0918-0.2471-4.3164-0.2842c-0.6968-0.1162-1.1665-0.7754-1.0508-1.4717
			c0.1147-0.6968,0.7773-1.1729,1.4707-1.0537c0.1934,0.0317,19.54,2.9814,35.1177-14.1836
			c0.4766-0.5239,1.2861-0.562,1.8086-0.0874c0.5234,0.4751,0.5625,1.2847,0.0879,1.8081
			C52.0923,49.7012,38.0601,51.5864,31.124,51.5864z"/>
	</g>
	<g>
		<path fill="#4D5152" d="M59.5698,80.8013c-0.707,0-1.2803-0.5732-1.2803-1.2803v-6.584c0-0.707,0.5732-1.2803,1.2803-1.2803
			s1.2803,0.5732,1.2803,1.2803v6.584C60.8501,80.228,60.2769,80.8013,59.5698,80.8013z"/>
	</g>
	<g>
		<path fill="#4D5152" d="M41.1787,80.8013c-0.707,0-1.2798-0.5732-1.2798-1.2803v-4.5303c0-0.707,0.5728-1.2803,1.2798-1.2803
			s1.2798,0.5732,1.2798,1.2803v4.5303C42.4585,80.228,41.8857,80.8013,41.1787,80.8013z"/>
	</g>
	<g>
		<path fill="#4D5152" d="M23.6221,49.1714c-0.5815,0-1.1079-0.3989-1.2456-0.9897c-0.1602-0.6885,0.2676-1.3765,0.9561-1.5371
			c0.1436-0.0337,14.4556-3.4399,22.7314-11.168c0.5166-0.4829,1.3267-0.4536,1.8091,0.062
			c0.4824,0.5166,0.4546,1.3267-0.062,1.8091c-8.7822,8.2012-23.2847,11.6475-23.8979,11.79
			C23.8154,49.1606,23.7178,49.1714,23.6221,49.1714z"/>
	</g>
	<g>
		<path fill="#4D5152" d="M71.2837,48.5737c-0.1553,0-0.3135-0.0283-0.4668-0.0884c-7.334-2.8701-8.7354-12.4502-8.791-12.8569
			c-0.0967-0.6997,0.3916-1.3442,1.0908-1.4419c0.7012-0.0947,1.3457,0.3901,1.4443,1.0903
			c0.0117,0.085,1.2617,8.5049,7.1895,10.8247c0.6582,0.2578,0.9824,1,0.7256,1.6582
			C72.2778,48.2651,71.7944,48.5737,71.2837,48.5737z"/>
	</g>
</g>
<g id="safe-tan-flower">
	<g>
		<path fill="#A1D9B1" d="M74.1001,40.2061c0-1.7564-1.4219-3.1783-3.1777-3.1783c-0.7656,0-1.4697,0.272-2.0176,0.7222
			c0.1484-0.3677,0.2324-0.7676,0.2324-1.189c0-1.7548-1.4238-3.1777-3.1787-3.1777c-1.7549,0-3.1767,1.4229-3.1767,3.1777
			c0,0.4761,0.1054,0.9263,0.2949,1.3326c-0.5703-0.5357-1.333-0.8658-2.1758-0.8658c-1.7559,0-3.1777,1.4219-3.1777,3.1783
			c0,1.7539,1.4218,3.1772,3.1777,3.1772c0.1074,0,0.2148-0.0058,0.3193-0.0161c-0.9345,0.5527-1.5615,1.5693-1.5615,2.7334
			c0,1.7529,1.4219,3.1753,3.1777,3.1753c1.5557,0,2.8487-1.1187,3.1221-2.5982c0.2734,1.4795,1.5654,2.5982,3.1231,2.5982
			c1.7548,0,3.1787-1.4224,3.1787-3.1753c0-1.1631-0.6241-2.1733-1.5547-2.7285c0.0732,0.0054,0.1426,0.0112,0.2168,0.0112
			C72.6782,43.3833,74.1001,41.96,74.1001,40.2061z"/>
		<path fill="#4D5152" d="M69.0815,50.5562c-1.2041,0-2.3125-0.4819-3.123-1.2773c-0.8096,0.7954-1.918,1.2773-3.1221,1.2773
			c-2.458,0-4.458-1.999-4.458-4.4556c0-0.6836,0.1602-1.3486,0.4521-1.9478c-1.418-0.7466-2.3877-2.2358-2.3877-3.9468
			c0-2.4585,2-4.458,4.458-4.458c0.2246,0,0.4473,0.0166,0.666,0.0498c0.3633-2.0957,2.1943-3.6943,4.3916-3.6943
			c2.1934,0,4.0225,1.5923,4.3906,3.6816c0.1895-0.0249,0.3809-0.0371,0.5732-0.0371c2.458,0,4.458,1.9995,4.458,4.458
			c0,1.6777-0.9326,3.1421-2.3057,3.9023c0.3027,0.606,0.4658,1.2837,0.4658,1.9922
			C73.5405,48.5571,71.5405,50.5562,69.0815,50.5562z M65.9585,45.3979c0.6172,0,1.1465,0.4404,1.2588,1.0474
			c0.166,0.8984,0.9502,1.5508,1.8643,1.5508c1.0469,0,1.8984-0.8506,1.8984-1.8955c0-0.6729-0.3477-1.2817-0.9297-1.6294
			c-0.5098-0.3037-0.7441-0.9185-0.5654-1.4844s0.7139-0.9302,1.3145-0.8911l0.123,0.0078c1.0469,0,1.8975-0.8511,1.8975-1.8975
			c0-1.0469-0.8506-1.8984-1.8975-1.8984c-0.4385,0-0.8662,0.1533-1.2051,0.4312c-0.4512,0.3721-1.0967,0.3892-1.5703,0.043
			c-0.4717-0.3462-0.6484-0.9683-0.4287-1.5107c0.0918-0.229,0.1387-0.4678,0.1387-0.71c0-1.0464-0.8516-1.8979-1.8984-1.8979
			c-1.0459,0-1.8965,0.8516-1.8965,1.8979c0,0.2764,0.0586,0.5425,0.1748,0.7915c0.2588,0.5562,0.0879,1.2183-0.4092,1.5776
			c-0.498,0.3594-1.1807,0.3174-1.627-0.1035c-0.3564-0.3345-0.8184-0.519-1.2998-0.519c-1.0469,0-1.8975,0.8516-1.8975,1.8984
			c0,1.1118,1.0146,1.9985,2.0918,1.8872c0.5879-0.0601,1.1543,0.3052,1.3418,0.876c0.1865,0.5708-0.0488,1.1943-0.5654,1.4995
			c-0.584,0.3457-0.9326,0.9556-0.9326,1.6318c0,1.0449,0.8506,1.8955,1.8975,1.8955c0.9141,0,1.6973-0.6523,1.8633-1.5508
			C64.812,45.8384,65.3413,45.3979,65.9585,45.3979z"/>
	</g>
	<g>
		<circle fill="#FFFFFF" cx="65.959" cy="41.7656" r="2.6157"/>
		<path fill="#4D5152" d="M65.9585,45.6616c-2.1475,0-3.8955-1.7476-3.8955-3.896c0-2.1475,1.748-3.8945,3.8955-3.8945
			c2.1484,0,3.8965,1.7471,3.8965,3.8945C69.855,43.9141,68.1069,45.6616,65.9585,45.6616z M65.9585,40.4307
			c-0.7363,0-1.335,0.5991-1.335,1.335c0,0.7368,0.5986,1.3364,1.335,1.3364s1.3359-0.5996,1.3359-1.3364
			C67.2944,41.0298,66.6948,40.4307,65.9585,40.4307z"/>
	</g>
</g>
</svg>
