<?xml version="1.0" encoding="utf-8"?>
<!-- Generator: Adobe Illustrator 17.1.0, SVG Export Plug-In . SVG Version: 6.00 Build 0)  -->
<!DOCTYPE svg PUBLIC "-//W3C//DTD SVG 1.1//EN" "http://www.w3.org/Graphics/SVG/1.1/DTD/svg11.dtd">
<svg version="1.1" id="soap-free" xmlns="http://www.w3.org/2000/svg" xmlns:xlink="http://www.w3.org/1999/xlink" x="0px" y="0px"
	 viewBox="0 0 98.5601 98.5601" enable-background="new 0 0 98.5601 98.5601" xml:space="preserve">
<g id="soap-free-label">
	<g>
		<circle fill="#FFB957" cx="49.2798" cy="49.2798" r="48"/>
		<path fill="#4D5152" d="M49.2798,98.5601C22.1069,98.5601,0,76.4526,0,49.2798S22.1069,0,49.2798,0
			s49.2803,22.1069,49.2803,49.2798S76.4526,98.5601,49.2798,98.5601z M49.2798,2.5596c-25.7617,0-46.7202,20.9585-46.7202,46.7202
			s20.9585,46.7197,46.7202,46.7197s46.7197-20.958,46.7197-46.7197S75.0415,2.5596,49.2798,2.5596z"/>
	</g>
	<g>
		
			<rect x="2.4644" y="47.9998" transform="matrix(0.7071 0.7071 -0.7071 0.7071 49.2801 -20.4119)" fill="#4D5152" width="93.6298" height="2.5605"/>
	</g>
</g>
<g id="soap-free-soap">
	<g>
		<path fill="#B3B3B3" d="M42.1709,30.7266v-7.1895c0-0.1997,0.1616-0.3628,0.3628-0.3628c0.1997,0,6.7847,0,6.9849,0
			c0.2011,0,0.3623,0.1631,0.3623,0.3628v7.1895"/>
		<path fill="#4D5152" d="M51.1606,30.7266h-2.5596v-6.2725h-5.1504v6.2725h-2.5596v-7.1895c0-0.9058,0.7368-1.6426,1.6426-1.6426
			h6.9849c0.9058,0,1.6421,0.7368,1.6421,1.6426V30.7266z"/>
	</g>
	<path fill="#FFFFFF" d="M33.9331,39.6128L21.961,73.1294c-0.5987,1.5137-0.4839,3.25,0.309,4.6445
		c0.7915,1.3936,2.1348,2.2256,3.5928,2.2256h40.3809c1.457,0,2.8027-0.832,3.5927-2.2256
		c0.7911-1.3945,0.9073-3.1308,0.3086-4.6445L58.1734,39.6128H33.9331z"/>
	<path fill="#A1D9B1" d="M53.5913,66.5259c-4.938-0.79-12.0234-12.9434-16.7744-12.3428c-2.689,0.3389-9.2319,3.7988-9.2319,3.7988
		l-5.5191,15.1475c-0.5957,1.5137-0.4809,3.25,0.3072,4.6445c0.7866,1.3936,2.123,2.2256,3.5727,2.2256H66.106
		c1.4502,0,2.7871-0.832,3.5742-2.2256c0.7871-1.3945,0.9023-3.1308,0.3057-4.6445l-3.8936-11.8398
		C66.0923,61.2896,56.7114,67.0259,53.5913,66.5259z"/>
	<g>
		<path fill="#4D5152" d="M65.1714,81.2798H26.8818c-2.0962,0-4.0269-1.0508-5.165-2.8105
			c-1.127-1.7422-1.3013-3.9072-0.4707-5.8037l11.519-34.3325h26.5215l11.5195,34.3325c0.8301,1.8965,0.6562,4.0615-0.4697,5.8037
			C69.1987,80.229,67.2681,81.2798,65.1714,81.2798z M34.6069,40.8926L23.6074,73.6558c-0.5029,1.1152-0.4058,2.3945,0.2588,3.4229
			c0.6646,1.0273,1.792,1.6406,3.0156,1.6406h38.2896c1.2246,0,2.3516-0.6133,3.0146-1.6396
			c0.665-1.0283,0.7617-2.3086,0.2588-3.4248l-0.0469-0.1182l-10.9531-32.644H34.6069z"/>
	</g>
	<g>
		<path fill="#E6E6E6" d="M33.0899,39.251v-5.8486c0-1.6753,1.3623-3.0376,3.0376-3.0376h19.7968
			c1.6758,0,3.0371,1.3623,3.0371,3.0376v5.8486H33.0899z"/>
		<path fill="#4D5152" d="M60.2417,40.5308H31.8101v-7.1284c0-2.3809,1.9365-4.3174,4.3174-4.3174h19.7969
			c2.3809,0,4.3174,1.9365,4.3174,4.3174V40.5308z M34.3696,37.9712h23.3115v-4.5688c0-0.9692-0.7881-1.7578-1.7568-1.7578H36.1274
			c-0.9692,0-1.7578,0.7886-1.7578,1.7578V37.9712z"/>
	</g>
	<g>
		<path fill="#4D5152" d="M55.9995,67.3198h-0.1123c-4.1006-0.0469-7.8477-2.2402-11.1504-6.5176
			c-2.6631-3.4473-5.5532-5.2129-8.5903-5.248c-0.001,0-0.0015,0-0.0024,0c-3.5283,0-5.4805,2.3496-6.7725,3.9043
			c-0.8574,1.0322-1.6689,2.0029-2.8433,1.6006c-0.6685-0.2295-1.0239-0.958-0.7939-1.627
			c0.1592-0.4619,0.5566-0.7744,1.0078-0.8467c0.1719-0.1738,0.4375-0.4941,0.6602-0.7627
			c1.4023-1.6875,4.0127-4.8301,8.6499-4.8301l0.144,0.002c3.8389,0.0439,7.4009,2.1445,10.5669,6.2432
			c2.8003,3.627,5.875,5.4844,9.1387,5.5215h0.0977c2.9365,0,5.5479-1.4854,7.2207-2.7305
			c0.4648-0.3467,0.7148-0.5527,0.8477-0.6719c0.0254-0.2266,0.0947-0.4844,0.2627-0.79c0.3389-0.6211,1.1162-0.8486,1.7373-0.5068
			c0.5918,0.3242,0.8252,1.0479,0.5498,1.6523c-0.0137,0.8975-0.5752,1.4062-1.8682,2.3691
			C62.7651,65.5591,59.6372,67.3198,55.9995,67.3198z M65.4526,61.1821l1.1191,0.6221c0.001-0.0029,0.002-0.0049,0.0029-0.0068
			L65.4526,61.1821z"/>
	</g>
	<g>
		<path fill="#FFFFFF" d="M69.5562,27.7881h5.247v-9.2285h-39.957v4.6147h34.3477c0.2011,0,0.3623,0.1631,0.3623,0.3628V27.7881z"/>
		<path fill="#4D5152" d="M74.8032,29.0679h-5.2471c-0.707,0-1.2803-0.5728-1.2803-1.2798v-3.334H34.8462
			c-0.707,0-1.2798-0.5728-1.2798-1.2798v-4.6147c0-0.707,0.5728-1.2798,1.2798-1.2798h39.957c0.707,0,1.2803,0.5728,1.2803,1.2798
			v9.2285C76.0835,28.4951,75.5103,29.0679,74.8032,29.0679z M70.8364,26.5083h2.6865v-6.6689H36.126v2.0552h33.0679
			c0.9053,0,1.6426,0.7368,1.6426,1.6426V26.5083z"/>
	</g>
	<g>
		<path fill="#A1D9B1" d="M72.729,45.8018c-2.3428,0-4.249-1.9058-4.249-4.2491c0-2.2084,3.7373-8.393,3.8975-8.6547
			c0.0752-0.1241,0.2099-0.1983,0.3515-0.1983c0.1436,0,0.2774,0.0742,0.3516,0.1983c0.1601,0.2617,3.8965,6.4463,3.8965,8.6547
			C76.9771,43.896,75.0728,45.8018,72.729,45.8018z"/>
		<path fill="#4D5152" d="M72.729,47.0815c-3.0488,0-5.5293-2.48-5.5293-5.5288c0-2.5723,3.668-8.6396,4.0859-9.3228
			c0.3018-0.498,0.8564-0.8101,1.4434-0.8101c0.5908,0,1.1465,0.3145,1.4502,0.8208c0.4111,0.6724,4.0781,6.7383,4.0781,9.312
			C78.2573,44.6016,75.7769,47.0815,72.729,47.0815z M72.729,34.8208c-1.3926,2.439-2.9688,5.6235-2.9688,6.7319
			c0,1.6372,1.332,2.9692,2.9688,2.9692s2.9678-1.332,2.9678-2.9692C75.6968,40.4429,74.1206,37.2568,72.729,34.8208z"/>
	</g>
</g>
</svg>
