<?xml version="1.0" encoding="utf-8"?>
<!-- Generator: Adobe Illustrator 17.1.0, SVG Export Plug-In . SVG Version: 6.00 Build 0)  -->
<!DOCTYPE svg PUBLIC "-//W3C//DTD SVG 1.1//EN" "http://www.w3.org/Graphics/SVG/1.1/DTD/svg11.dtd">
<svg version="1.1" id="soya-free" xmlns="http://www.w3.org/2000/svg" xmlns:xlink="http://www.w3.org/1999/xlink" x="0px" y="0px"
	 viewBox="0 0 98.5601 98.5601" enable-background="new 0 0 98.5601 98.5601" xml:space="preserve">
<g id="soya-free-label">
	<g>
		<circle fill="#FFFDE3" cx="49.2798" cy="49.2798" r="48"/>
		<path fill="#4D5152" d="M49.2798,98.5601C22.1069,98.5601,0,76.4526,0,49.2798S22.1069,0,49.2798,0
			s49.2803,22.1069,49.2803,49.2798S76.4526,98.5601,49.2798,98.5601z M49.2798,2.5596c-25.7617,0-46.7202,20.9585-46.7202,46.7202
			s20.9585,46.7197,46.7202,46.7197s46.7197-20.958,46.7197-46.7197S75.0415,2.5596,49.2798,2.5596z"/>
	</g>
	<g>
		
			<rect x="2.4643" y="47.9995" transform="matrix(0.7071 0.7071 -0.7071 0.7071 49.2798 -20.4124)" fill="#4D5152" width="93.6309" height="2.5605"/>
	</g>
</g>
<g id="soya-free-soya">
	<g>
		<path fill="#A1D9B1" d="M33.2637,74.7827c0.31,0.0283,0.6255,0.0498,0.9438,0.0498c2.5967,0,5.086-0.958,7.0205-2.706
			c1.4956-1.3291,2.5757-3.043,3.1226-4.9522c0.0142-0.0498,0.0303-0.0986,0.0493-0.1455c0.7632-2.6338,1.4688-4.3027,2.9487-5.542
			c1.1363-0.914,2.6202-1.4707,4.6353-2.0547c0.0488-0.0195,0.0986-0.0361,0.1494-0.0507c1.2988-0.3741,2.5059-0.9932,3.5957-1.8506
			c1.752-1.3574,3.0518-3.2735,3.6592-5.3936c0.0127-0.0459,0.0283-0.0888,0.0449-0.1328c0.7656-2.645,1.4746-4.3223,2.9639-5.564
			c1.1387-0.9121,2.6162-1.4643,4.6182-2.0449c0.0498-0.02,0.1015-0.0381,0.1542-0.0532c1.3731-0.3926,2.6377-1.0562,3.7667-1.9814
			c2.4804-2.001,3.9023-4.9722,3.9023-8.1504c0-0.2842-0.0225-0.563-0.0449-0.8428c-0.0039-0.0547-0.0059-0.1094-0.0039-0.1641
			c0.2119-7.8413,2.6972-10.8427,3.3144-11.4692c0.0235-0.0259,0.0469-0.0503,0.0723-0.0747
			c0.1055-0.1011,0.2822-0.3213,0.2822-0.6543c0-0.7393-0.9433-1.2354-1.5791-0.6182c-3.3096,3.0601-7.6377,3.3565-11.4336,3.3941
			c-0.0508,0.0009-0.1006-0.0015-0.1514-0.0064c-0.3085-0.0278-0.622-0.0483-0.9404-0.0483c-2.5937,0-5.084,0.958-7.0195,2.7046
			c-1.4961,1.3305-2.5772,3.0434-3.1231,4.9536c-0.0146,0.0488-0.0312,0.0976-0.0507,0.1445
			c-0.7637,2.6372-1.4707,4.3091-2.9541,5.5469c-1.1372,0.9136-2.6172,1.4673-4.625,2.0493
			c-0.0503,0.02-0.1016,0.0381-0.1543,0.0532c-1.2998,0.3711-2.5083,0.9912-3.5987,1.8496
			c-1.7514,1.3579-3.0488,3.273-3.6543,5.3926c-0.0136,0.0488-0.0307,0.0977-0.0503,0.1441
			c-0.7656,2.6396-1.4741,4.3144-2.9619,5.5537c-1.1372,0.9121-2.6162,1.4648-4.6216,2.0459
			c-0.0493,0.0205-0.0981,0.0381-0.1499,0.0517c-1.375,0.3936-2.6381,1.0576-3.7656,1.9824c-2.48,2-3.9018,4.9688-3.9018,8.1485
			c0,0.2851,0.0205,0.5654,0.0429,0.8428c0.0044,0.0546,0.0064,0.1093,0.0044,0.165c-0.2207,8.1465-2.8637,11.0498-3.3857,11.5449
			c-0.1065,0.0996-0.2837,0.3213-0.2837,0.6533c0,0.7383,0.9375,1.2412,1.5786,0.6182c3.3101-3.0566,7.6343-3.3555,11.4277-3.3945
			c0.0049,0,0.0113,0,0.0162,0C33.1699,74.7769,33.2173,74.7788,33.2637,74.7827z"/>
		<path fill="#4D5152" d="M21.0215,79.7329c-1.2134,0-2.2002-0.9775-2.2002-2.1797c0-0.5996,0.251-1.1777,0.689-1.5879
			c0.2773-0.2627,2.7695-2.8467,2.981-10.6445c-0.0264-0.3389-0.0479-0.6533-0.0479-0.9736c0-3.5674,1.5957-6.9004,4.3779-9.1445
			c1.252-1.0273,2.6733-1.7754,4.2173-2.2168l0.1455-0.0508c1.8501-0.5361,3.1943-1.0264,4.1772-1.8145
			c1.2261-1.022,1.8384-2.5166,2.5332-4.9121l0.0498-0.1406c0.6792-2.3784,2.1353-4.5278,4.1001-6.0513
			c1.2109-0.9536,2.5698-1.6514,4.0312-2.0688l0.1494-0.0518c1.8516-0.5366,3.1968-1.0278,4.1797-1.8179
			c1.2227-1.0205,1.834-2.5132,2.5264-4.9048l0.0479-0.1362c0.6143-2.147,1.8252-4.0688,3.5049-5.5625
			c2.1611-1.9507,4.959-3.0278,7.8701-3.0278c0.3574,0,0.709,0.022,1.0557,0.0532c3.5811-0.0337,7.626-0.3018,10.6006-3.0527
			c0.4033-0.3916,0.9531-0.6191,1.5254-0.6191c1.2148,0,2.2031,0.9766,2.2031,2.1772c0,0.5996-0.2402,1.1602-0.6768,1.5786
			c-0.5029,0.5122-2.792,3.2026-2.9932,10.6543c0.0254,0.3423,0.0498,0.6543,0.0498,0.9722c0,3.5679-1.5967,6.9019-4.3789,9.1465
			c-1.2529,1.0269-2.6748,1.7744-4.2188,2.2158l-0.1494,0.0522c-1.8477,0.5356-3.1904,1.0259-4.1748,1.8145
			c-1.2266,1.0234-1.8398,2.521-2.5342,4.9204l-0.0322,0.0967c-0.6934,2.4131-2.1514,4.5635-4.1172,6.0859
			c-1.208,0.9502-2.5645,1.6484-4.0254,2.0693l-0.1475,0.0498c-1.8047,0.5234-3.208,1.0332-4.1895,1.8223
			c-1.2197,1.0215-1.8296,2.5127-2.5215,4.9014l-0.0435,0.125c-0.6191,2.1611-1.8306,4.082-3.5078,5.5732
			c-2.1587,1.9512-4.957,3.0293-7.8706,3.0293c-0.3574,0-0.7119-0.0234-1.0601-0.0557c-3.5811,0.0361-7.6226,0.3057-10.5996,3.0547
			C22.1445,79.5044,21.5942,79.7329,21.0215,79.7329z M31.9556,55.3765c-0.0776,0.0303-0.1562,0.0557-0.2383,0.0771
			c-1.1802,0.3379-2.2925,0.9238-3.2803,1.7344c-2.1855,1.7627-3.4341,4.3691-3.4341,7.1592c0,0.25,0.0195,0.4961,0.0391,0.7393
			c0.0083,0.1045,0.0112,0.208,0.0078,0.3135c-0.1421,5.2412-1.2524,8.4688-2.271,10.3486
			c3.2627-1.9893,6.9854-2.2178,10.3154-2.252c0.123,0.0107,0.1948,0.0039,0.2769,0.0107c2.5679,0.2324,5.0952-0.6113,6.999-2.3311
			c1.3213-1.1738,2.2695-2.6777,2.75-4.3545c0.019-0.0674,0.041-0.1348,0.0654-0.2021c0.8086-2.7783,1.6191-4.6719,3.3413-6.1143
			c1.3218-1.0635,2.9731-1.6836,5.0498-2.2881c0.0664-0.0244,0.1338-0.0459,0.2021-0.0654c1.1426-0.3291,2.2051-0.877,3.1592-1.627
			c1.5459-1.1982,2.6865-2.8799,3.2197-4.7402c0.0156-0.0576,0.0361-0.1182,0.0586-0.1816c0.8125-2.7949,1.627-4.6997,3.3613-6.1455
			c1.3193-1.0571,2.9629-1.6748,5.0273-2.2759c0.0693-0.0259,0.1396-0.0493,0.2109-0.0698c1.207-0.3452,2.3203-0.9307,3.3086-1.7407
			c2.1855-1.7627,3.4336-4.3706,3.4336-7.1606c0-0.249-0.0205-0.4927-0.04-0.7378c-0.0088-0.1143-0.0117-0.2144-0.0078-0.3149
			c0.1416-5.2466,1.2822-8.4917,2.2949-10.3618c-3.2686,2.0034-7.0049,2.2324-10.3467,2.2651
			c-0.1133,0.0005-0.2012-0.0034-0.2861-0.0122c-0.2637-0.0234-0.5391-0.0425-0.8184-0.0425c-2.2764,0-4.4648,0.8438-6.1621,2.375
			c-1.3223,1.1763-2.2715,2.6802-2.75,4.355c-0.0225,0.0752-0.0439,0.1421-0.0684,0.2056
			c-0.8086,2.7812-1.6211,4.6768-3.3467,6.1172c-1.3184,1.0591-2.9658,1.6782-5.0366,2.2808
			c-0.0688,0.0254-0.1387,0.0488-0.21,0.0693c-1.1416,0.3257-2.2041,0.8726-3.1597,1.625
			c-1.5449,1.1978-2.6841,2.8784-3.2153,4.7383c-0.019,0.0674-0.0425,0.1382-0.0693,0.208
			c-0.8105,2.7837-1.625,4.6812-3.3545,6.1216C35.665,54.1577,34.0215,54.7759,31.9556,55.3765z"/>
	</g>
	<g>
		<path fill="#FFB957" d="M28.7686,64.3472c0,3,2.4399,5.4385,5.4389,5.4385c3,0,5.441-2.4385,5.441-5.4385
			c0-2.999-2.441-5.4385-5.441-5.4385C31.2085,58.9087,28.7686,61.3482,28.7686,64.3472z"/>
		<path fill="#4D5152" d="M34.2075,71.0659c-3.7051,0-6.7188-3.0146-6.7188-6.7188s3.0137-6.7188,6.7188-6.7188
			c3.7061,0,6.7207,3.0146,6.7207,6.7188S37.9136,71.0659,34.2075,71.0659z M34.2075,60.189c-2.2935,0-4.1592,1.8652-4.1592,4.1582
			s1.8657,4.1582,4.1592,4.1582c2.2944,0,4.1611-1.8652,4.1611-4.1582S36.502,60.189,34.2075,60.189z"/>
	</g>
	<g>
		<path fill="#FFB957" d="M43.8062,49.3096c0,2.9985,2.4399,5.4389,5.4384,5.4389c3,0,5.4415-2.4404,5.4415-5.4389
			c0-2.9986-2.4415-5.4375-5.4415-5.4375C46.2461,43.8721,43.8062,46.311,43.8062,49.3096z"/>
		<path fill="#4D5152" d="M49.2446,56.0288c-3.7046,0-6.7183-3.0146-6.7183-6.7192c0-3.7041,3.0137-6.7173,6.7183-6.7173
			c3.7061,0,6.7217,3.0132,6.7217,6.7173C55.9663,53.0142,52.9507,56.0288,49.2446,56.0288z M49.2446,45.1519
			c-2.293,0-4.1587,1.8652-4.1587,4.1577c0,2.2935,1.8657,4.1587,4.1587,4.1587c2.2949,0,4.1611-1.8652,4.1611-4.1587
			C53.4058,47.0171,51.5396,45.1519,49.2446,45.1519z"/>
	</g>
	<g>
		<path fill="#FFB957" d="M58.8413,34.271c0,3.0005,2.4405,5.4419,5.4405,5.4419s5.4394-2.4414,5.4394-5.4419
			c0-2.9985-2.4394-5.4385-5.4394-5.4385S58.8413,31.2725,58.8413,34.271z"/>
		<path fill="#4D5152" d="M64.2817,40.9927c-3.7061,0-6.7207-3.0151-6.7207-6.7217c0-3.7046,3.0146-6.7183,6.7207-6.7183
			c3.7051,0,6.7197,3.0137,6.7197,6.7183C71.0015,37.9775,67.9868,40.9927,64.2817,40.9927z M64.2817,30.1123
			c-2.2939,0-4.1602,1.8657-4.1602,4.1587c0,2.2949,1.8662,4.1621,4.1602,4.1621s4.1592-1.8672,4.1592-4.1621
			C68.4409,31.978,66.5757,30.1123,64.2817,30.1123z"/>
	</g>
</g>
</svg>
