<?xml version="1.0" encoding="utf-8"?>
<!-- Generator: Adobe Illustrator 17.1.0, SVG Export Plug-In . SVG Version: 6.00 Build 0)  -->
<!DOCTYPE svg PUBLIC "-//W3C//DTD SVG 1.1//EN" "http://www.w3.org/Graphics/SVG/1.1/DTD/svg11.dtd">
<svg version="1.1" id="sugar-free" xmlns="http://www.w3.org/2000/svg" xmlns:xlink="http://www.w3.org/1999/xlink" x="0px" y="0px"
	 viewBox="0 0 98.5601 98.5601" enable-background="new 0 0 98.5601 98.5601" xml:space="preserve">
<g id="sugar-free-label">
	<g>
		<circle fill="#FFB957" cx="49.2798" cy="49.2798" r="48"/>
		<path fill="#4D5152" d="M49.2798,98.5601C22.1069,98.5601,0,76.4526,0,49.2798S22.1069,0,49.2798,0
			s49.2803,22.1069,49.2803,49.2798S76.4526,98.5601,49.2798,98.5601z M49.2798,2.5596c-25.7617,0-46.7202,20.9585-46.7202,46.7202
			s20.9585,46.7197,46.7202,46.7197s46.7197-20.958,46.7197-46.7197S75.0415,2.5596,49.2798,2.5596z"/>
	</g>
	<g>
		
			<rect x="2.4643" y="47.9995" transform="matrix(0.7071 0.7071 -0.7071 0.7071 49.2798 -20.4124)" fill="#4D5152" width="93.6309" height="2.5605"/>
	</g>
</g>
<g id="sugar-free-sugar-pot">
	<path fill="#E6E6E6" d="M38.2046,39.2783c-0.0684,2.3228-0.5435,11.5894-3.7202,16.3794
		c-5.3765,8.1055-5.0156,15.8106,1.0146,21.6963c1.1641,1.1348,2.9703,2.6455,5.1997,2.6455h17.1622
		c2.2304,0,4.0361-1.5107,5.1992-2.6455c6.0312-5.8857,6.3916-13.5908,1.0156-21.6963c-3.1719-4.7832-3.6494-14.0556-3.7207-16.3794
		"/>
	<path fill="#FFFFFF" d="M34.4844,55.6577c-5.3765,8.1055-5.0156,15.8106,1.0146,21.6963c1.1641,1.1348,2.9703,2.6455,5.1997,2.6455
		h17.1622c2.2304,0,4.0361-1.5107,5.1992-2.6455c6.0312-5.8857,6.166-15.168-0.4473-24.4482"/>
	<g>
		<path fill="#4D5152" d="M57.8608,81.2798H40.6987c-2.6948,0-4.7681-1.7178-6.0933-3.0088
			c-6.52-6.3643-6.9419-14.6465-1.188-23.3213c3.0332-4.5723,3.4541-13.8882,3.5078-15.709l2.5586,0.0752
			c-0.0801,2.7295-0.6011,12.0254-3.9326,17.0488c-5.0713,7.6455-4.7798,14.5859,0.8418,20.0732
			c1.0044,0.9795,2.5439,2.2812,4.3057,2.2812h17.1621c1.7627,0,3.3018-1.3018,4.3057-2.2812
			c5.6221-5.4863,5.9131-12.4277,0.8428-20.0732c-3.3184-5.0029-3.8496-14.313-3.9336-17.0474l2.5586-0.0781
			c0.0557,1.8242,0.4883,11.1567,3.5078,15.7114c5.7539,8.6748,5.332,16.957-1.1885,23.3193
			C62.6294,79.562,60.5571,81.2798,57.8608,81.2798z"/>
	</g>
	<g>
		<polyline fill="#CCCCCC" points="46.5947,29.836 46.5947,18.5596 51.9644,23.6587 51.9644,29.8643 		"/>
		<path fill="#4D5152" d="M53.2446,29.8643h-2.5605v-5.6558L47.8745,21.54v8.2959h-2.5596V18.5596
			c0-0.5117,0.3047-0.9741,0.7749-1.1763c0.4717-0.2017,1.0161-0.104,1.3862,0.248l5.3701,5.0991
			c0.2539,0.2417,0.3984,0.5771,0.3984,0.9282V29.8643z"/>
	</g>
	<g>
		<path fill="#A1D9B1" d="M38.2271,32.5996c0-0.2212,0-0.8071,1.4575-1.1181c0.0469-0.0118,5.0771-1.7842,9.5952-1.7842
			c4.5293,0,9.5508,1.7763,9.5596,1.7763c1.4922,0.3975,1.4922,0.8536,1.4922,1.126v5.7364H38.2271V32.5996z"/>
		<path fill="#4D5152" d="M61.6118,39.6157H36.9473v-7.0161c0-0.8306,0.418-1.9077,2.397-2.354
			c1.3716-0.4585,5.8096-1.8281,9.9355-1.8281c4.3086,0,8.9951,1.5132,9.9307,1.8306c1.043,0.2827,2.4014,0.8369,2.4014,2.3516
			V39.6157z M39.5068,37.0562h19.5444v-4.1675c-0.0879-0.0376-0.2129-0.084-0.3877-0.1353h-0.0361l-0.2275-0.0771
			c-0.834-0.2837-5.1924-1.6992-9.1201-1.6992c-3.8892,0-8.2998,1.4189-9.1445,1.7036l-0.1406,0.0425
			c-0.2329,0.0503-0.3882,0.0996-0.4873,0.1387L39.5068,37.0562z"/>
	</g>
	<g>
		<rect x="44.0132" y="39.2783" fill="#4D5152" width="2.5596" height="15.6479"/>
	</g>
	<g>
		<rect x="51.9868" y="39.2783" fill="#4D5152" width="2.5605" height="13.6343"/>
	</g>
	<g>
		<path fill="#4D5152" d="M42.4722,56.521c-2.0161,0-6.4878-0.5068-7.0537-0.5791c-0.7012-0.0889-1.1973-0.7305-1.1074-1.4316
			c0.0889-0.7012,0.7231-1.1943,1.4316-1.1074c1.0547,0.1348,5.0845,0.5576,6.7295,0.5576c1.7246,0,4.1357-0.4834,7.1675-1.4355
			l0.3774-0.1191c3.3115-1.0449,9.4805-2.9946,13.3525-0.2773c0.5791,0.4053,0.7197,1.2041,0.3135,1.7822
			c-0.4053,0.5801-1.2021,0.7217-1.7822,0.3135c-2.8418-1.9912-8.2227-0.292-11.1133,0.623l-0.3809,0.1201
			C47.0811,56.0122,44.4854,56.521,42.4722,56.521z"/>
	</g>
	<g>
		<path fill="#4D5152" d="M42.7651,75.4966c-0.0542,0-0.1094-0.0039-0.165-0.0107c-5.9546-0.7676-7.21-5.874-7.042-8.4678
			c0.0459-0.7051,0.6743-1.2363,1.3604-1.1943c0.7031,0.0459,1.2373,0.6514,1.1948,1.3545
			c-0.0293,0.5244-0.1401,5.1299,4.814,5.7686c0.7012,0.0908,1.1963,0.7324,1.106,1.4326
			C43.9502,75.0259,43.3994,75.4966,42.7651,75.4966z"/>
	</g>
</g>
</svg>
