<?xml version="1.0" encoding="utf-8"?>
<!-- Generator: Adobe Illustrator 17.1.0, SVG Export Plug-In . SVG Version: 6.00 Build 0)  -->
<!DOCTYPE svg PUBLIC "-//W3C//DTD SVG 1.1//EN" "http://www.w3.org/Graphics/SVG/1.1/DTD/svg11.dtd">
<svg version="1.1" id="sugar-free-2" xmlns="http://www.w3.org/2000/svg" xmlns:xlink="http://www.w3.org/1999/xlink" x="0px"
	 y="0px" viewBox="0 0 98.5601 98.5601" enable-background="new 0 0 98.5601 98.5601" xml:space="preserve">
<g id="sugar-free-2-label">
	<g>
		<circle fill="#FFB957" cx="49.2798" cy="49.2798" r="48"/>
		<path fill="#4D5152" d="M49.2798,98.5601C22.1069,98.5601,0,76.4526,0,49.2798S22.1069,0,49.2798,0
			s49.2803,22.1069,49.2803,49.2798S76.4526,98.5601,49.2798,98.5601z M49.2798,2.5596c-25.7617,0-46.7202,20.9585-46.7202,46.7202
			s20.9585,46.7197,46.7202,46.7197s46.7197-20.958,46.7197-46.7197S75.0415,2.5596,49.2798,2.5596z"/>
	</g>
	<g>
		
			<rect x="2.4644" y="47.9998" transform="matrix(0.7071 0.7071 -0.7071 0.7071 49.2801 -20.4119)" fill="#4D5152" width="93.6298" height="2.5605"/>
	</g>
</g>
<g id="sugar-free-2-sugar">
	<g>
		<g>
			<polygon fill="#F2F2F2" points="49.2798,79.9995 21.7378,66.229 21.7378,32.3311 49.2798,46.1016 			"/>
			<path fill="#4D5152" d="M49.2798,81.2798c-0.1958,0-0.3916-0.0449-0.5723-0.1357l-27.542-13.7705
				c-0.4336-0.2168-0.7075-0.6602-0.7075-1.1445V32.3311c0-0.4438,0.2295-0.8555,0.6069-1.0889
				c0.3784-0.2329,0.8491-0.2544,1.2451-0.0562l27.542,13.7705c0.4336,0.2168,0.708,0.6602,0.708,1.145v33.8979
				c0,0.4434-0.2295,0.8555-0.6074,1.0889C49.7471,81.2153,49.5137,81.2798,49.2798,81.2798z M23.0176,65.438L48,77.9282V46.8926
				L23.0176,34.4023V65.438z"/>
		</g>
		<g>
			<polygon fill="#FFFFFF" points="49.2798,79.9995 76.8218,66.229 76.8218,32.3311 49.2798,46.1016 			"/>
			<path fill="#4D5152" d="M49.2798,81.2798c-0.2339,0-0.4673-0.0645-0.6729-0.1914C48.2295,80.855,48,80.4429,48,79.9995V46.1016
				c0-0.4849,0.2739-0.9282,0.7075-1.145l27.542-13.7705c0.3965-0.1997,0.8691-0.1768,1.2451,0.0562
				c0.3779,0.2334,0.6074,0.645,0.6074,1.0889V66.229c0,0.4844-0.2744,0.9277-0.708,1.1445L49.8521,81.144
				C49.6714,81.2349,49.4756,81.2798,49.2798,81.2798z M50.5601,46.8926v31.0356L75.5415,65.438V34.4023L50.5601,46.8926z"/>
		</g>
		<g>
			<polygon fill="#FFFFFF" points="21.7378,32.3311 48.2202,18.5596 76.8218,32.3311 49.2798,46.1016 			"/>
			<path fill="#4D5152" d="M49.2798,47.3813c-0.1963,0-0.3921-0.0449-0.5723-0.1348l-27.542-13.7705
				c-0.4307-0.2153-0.7041-0.6538-0.7075-1.1348c-0.0039-0.4814,0.2622-0.9238,0.6895-1.146l26.4824-13.7715
				c0.3569-0.186,0.7827-0.1919,1.1455-0.0176l28.6021,13.7715c0.4395,0.2119,0.7207,0.6558,0.7246,1.1436
				c0.0029,0.4883-0.2715,0.9365-0.708,1.1548l-27.542,13.7705C49.6719,47.3364,49.4761,47.3813,49.2798,47.3813z M24.5552,32.3086
				l24.7246,12.3618l24.6367-12.3179L48.2422,19.9907L24.5552,32.3086z"/>
		</g>
	</g>
	<g>
		<path fill="#4D5152" d="M35.5083,46.1016c0,0.5849-0.4741,1.0595-1.0591,1.0595c-0.5844,0-1.0586-0.4746-1.0586-1.0595
			c0-0.5845,0.4742-1.0586,1.0586-1.0586C35.0342,45.043,35.5083,45.5171,35.5083,46.1016"/>
		<path fill="#4D5152" d="M25.9746,36.5679c0,0.5849-0.4741,1.0596-1.0591,1.0596c-0.5844,0-1.0595-0.4747-1.0595-1.0596
			c0-0.5845,0.4751-1.0586,1.0595-1.0586C25.5005,35.5093,25.9746,35.9834,25.9746,36.5679"/>
		<path fill="#4D5152" d="M29.1528,39.7461c0,0.5845-0.4751,1.0591-1.059,1.0591c-0.5845,0-1.0596-0.4746-1.0596-1.0591
			c0-0.5845,0.4751-1.0596,1.0596-1.0596C28.6777,38.6865,29.1528,39.1616,29.1528,39.7461"/>
		<path fill="#4D5152" d="M35.5083,39.7461c0,0.5845-0.4741,1.0591-1.0591,1.0591c-0.5844,0-1.0586-0.4746-1.0586-1.0591
			c0-0.5845,0.4742-1.0596,1.0586-1.0596C35.0342,38.6865,35.5083,39.1616,35.5083,39.7461"/>
		<path fill="#4D5152" d="M25.9746,42.9243c0,0.584-0.4741,1.0586-1.0591,1.0586c-0.5844,0-1.0595-0.4746-1.0595-1.0586
			c0-0.5849,0.4751-1.0595,1.0595-1.0595C25.5005,41.8648,25.9746,42.3394,25.9746,42.9243"/>
		<path fill="#4D5152" d="M29.1528,46.1016c0,0.5849-0.4751,1.0595-1.059,1.0595c-0.5845,0-1.0596-0.4746-1.0596-1.0595
			c0-0.5845,0.4751-1.0586,1.0596-1.0586C28.6777,45.043,29.1528,45.5171,29.1528,46.1016"/>
		<path fill="#4D5152" d="M32.3311,42.9243c0,0.584-0.4751,1.0586-1.0596,1.0586c-0.584,0-1.0591-0.4746-1.0591-1.0586
			c0-0.5849,0.4751-1.0595,1.0591-1.0595C31.856,41.8648,32.3311,42.3394,32.3311,42.9243"/>
		<path fill="#4D5152" d="M38.6865,42.9243c0,0.584-0.4751,1.0586-1.059,1.0586c-0.5845,0-1.0596-0.4746-1.0596-1.0586
			c0-0.5849,0.4751-1.0595,1.0596-1.0595C38.2114,41.8648,38.6865,42.3394,38.6865,42.9243"/>
		<path fill="#4D5152" d="M41.8648,46.1016c0,0.5849-0.4751,1.0595-1.0596,1.0595c-0.584,0-1.0591-0.4746-1.0591-1.0595
			c0-0.5845,0.4751-1.0586,1.0591-1.0586C41.3897,45.043,41.8648,45.5171,41.8648,46.1016"/>
		<path fill="#4D5152" d="M48.2202,46.1016c0,0.5849-0.4746,1.0595-1.0591,1.0595c-0.5844,0-1.0595-0.4746-1.0595-1.0595
			c0-0.5845,0.4751-1.0586,1.0595-1.0586C47.7456,45.043,48.2202,45.5171,48.2202,46.1016"/>
		<path fill="#4D5152" d="M35.5083,58.814c0,0.584-0.4741,1.0586-1.0591,1.0586c-0.5844,0-1.0586-0.4746-1.0586-1.0586
			c0-0.585,0.4742-1.0596,1.0586-1.0596C35.0342,57.7544,35.5083,58.229,35.5083,58.814"/>
		<path fill="#4D5152" d="M25.9746,49.2798c0,0.5845-0.4741,1.0596-1.0591,1.0596c-0.5844,0-1.0595-0.4751-1.0595-1.0596
			c0-0.5845,0.4751-1.0596,1.0595-1.0596C25.5005,48.2202,25.9746,48.6953,25.9746,49.2798"/>
		<path fill="#4D5152" d="M29.1528,52.4575c0,0.585-0.4751,1.0596-1.059,1.0596c-0.5845,0-1.0596-0.4746-1.0596-1.0596
			c0-0.584,0.4751-1.0586,1.0596-1.0586C28.6777,51.3989,29.1528,51.8735,29.1528,52.4575"/>
		<path fill="#4D5152" d="M35.5083,52.4575c0,0.585-0.4741,1.0596-1.0591,1.0596c-0.5844,0-1.0586-0.4746-1.0586-1.0596
			c0-0.584,0.4742-1.0586,1.0586-1.0586C35.0342,51.3989,35.5083,51.8735,35.5083,52.4575"/>
		<path fill="#4D5152" d="M32.3311,49.2798c0,0.5845-0.4751,1.0596-1.0596,1.0596c-0.584,0-1.0591-0.4751-1.0591-1.0596
			c0-0.5845,0.4751-1.0596,1.0591-1.0596C31.856,48.2202,32.3311,48.6953,32.3311,49.2798"/>
		<path fill="#4D5152" d="M25.9746,55.6362c0,0.584-0.4741,1.0586-1.0591,1.0586c-0.5844,0-1.0595-0.4746-1.0595-1.0586
			c0-0.5849,0.4751-1.0605,1.0595-1.0605C25.5005,54.5757,25.9746,55.0513,25.9746,55.6362"/>
		<path fill="#4D5152" d="M29.1528,58.814c0,0.584-0.4751,1.0586-1.059,1.0586c-0.5845,0-1.0596-0.4746-1.0596-1.0586
			c0-0.585,0.4751-1.0596,1.0596-1.0596C28.6777,57.7544,29.1528,58.229,29.1528,58.814"/>
		<path fill="#4D5152" d="M32.3311,55.6362c0,0.584-0.4751,1.0586-1.0596,1.0586c-0.584,0-1.0591-0.4746-1.0591-1.0586
			c0-0.5849,0.4751-1.0605,1.0591-1.0605C31.856,54.5757,32.3311,55.0513,32.3311,55.6362"/>
		<path fill="#4D5152" d="M38.6865,49.2798c0,0.5845-0.4751,1.0596-1.059,1.0596c-0.5845,0-1.0596-0.4751-1.0596-1.0596
			c0-0.5845,0.4751-1.0596,1.0596-1.0596C38.2114,48.2202,38.6865,48.6953,38.6865,49.2798"/>
		<path fill="#4D5152" d="M38.6865,55.6362c0,0.584-0.4751,1.0586-1.059,1.0586c-0.5845,0-1.0596-0.4746-1.0596-1.0586
			c0-0.5849,0.4751-1.0605,1.0596-1.0605C38.2114,54.5757,38.6865,55.0513,38.6865,55.6362"/>
		<path fill="#4D5152" d="M41.8648,58.814c0,0.584-0.4751,1.0586-1.0596,1.0586c-0.584,0-1.0591-0.4746-1.0591-1.0586
			c0-0.585,0.4751-1.0596,1.0591-1.0596C41.3897,57.7544,41.8648,58.229,41.8648,58.814"/>
		<path fill="#4D5152" d="M41.8648,52.4575c0,0.585-0.4751,1.0596-1.0596,1.0596c-0.584,0-1.0591-0.4746-1.0591-1.0596
			c0-0.584,0.4751-1.0586,1.0591-1.0586C41.3897,51.3989,41.8648,51.8735,41.8648,52.4575"/>
		<path fill="#4D5152" d="M45.0425,49.2798c0,0.5845-0.4746,1.0596-1.0591,1.0596c-0.5849,0-1.0591-0.4751-1.0591-1.0596
			c0-0.5845,0.4742-1.0596,1.0591-1.0596C44.5679,48.2202,45.0425,48.6953,45.0425,49.2798"/>
		<path fill="#4D5152" d="M45.0425,55.6362c0,0.584-0.4746,1.0586-1.0591,1.0586c-0.5849,0-1.0591-0.4746-1.0591-1.0586
			c0-0.5849,0.4742-1.0605,1.0591-1.0605C44.5679,54.5757,45.0425,55.0513,45.0425,55.6362"/>
		<path fill="#4D5152" d="M48.2202,58.814c0,0.584-0.4746,1.0586-1.0591,1.0586c-0.5844,0-1.0595-0.4746-1.0595-1.0586
			c0-0.585,0.4751-1.0596,1.0595-1.0596C47.7456,57.7544,48.2202,58.229,48.2202,58.814"/>
		<path fill="#4D5152" d="M48.2202,52.4575c0,0.585-0.4746,1.0596-1.0591,1.0596c-0.5844,0-1.0595-0.4746-1.0595-1.0596
			c0-0.584,0.4751-1.0586,1.0595-1.0586C47.7456,51.3989,48.2202,51.8735,48.2202,52.4575"/>
		<path fill="#4D5152" d="M35.5083,71.5259c0,0.584-0.4741,1.0586-1.0591,1.0586c-0.5844,0-1.0586-0.4746-1.0586-1.0586
			c0-0.585,0.4742-1.0596,1.0586-1.0596C35.0342,70.4663,35.5083,70.9409,35.5083,71.5259"/>
		<path fill="#4D5152" d="M25.9746,61.9917c0,0.584-0.4741,1.0596-1.0591,1.0596c-0.5844,0-1.0595-0.4756-1.0595-1.0596
			s0.4751-1.0596,1.0595-1.0596C25.5005,60.9321,25.9746,61.4077,25.9746,61.9917"/>
		<path fill="#4D5152" d="M29.1528,65.1694c0,0.584-0.4751,1.0596-1.059,1.0596c-0.5845,0-1.0596-0.4756-1.0596-1.0596
			c0-0.5849,0.4751-1.0595,1.0596-1.0595C28.6777,64.1099,29.1528,64.5845,29.1528,65.1694"/>
		<path fill="#4D5152" d="M35.5083,65.1694c0,0.584-0.4741,1.0596-1.0591,1.0596c-0.5844,0-1.0586-0.4756-1.0586-1.0596
			c0-0.5849,0.4742-1.0595,1.0586-1.0595C35.0342,64.1099,35.5083,64.5845,35.5083,65.1694"/>
		<path fill="#4D5152" d="M32.3311,61.9917c0,0.584-0.4751,1.0596-1.0596,1.0596c-0.584,0-1.0591-0.4756-1.0591-1.0596
			s0.4751-1.0596,1.0591-1.0596C31.856,60.9321,32.3311,61.4077,32.3311,61.9917"/>
		<path fill="#4D5152" d="M32.3311,68.3472c0,0.5849-0.4751,1.0596-1.0596,1.0596c-0.584,0-1.0591-0.4747-1.0591-1.0596
			c0-0.584,0.4751-1.0596,1.0591-1.0596C31.856,67.2876,32.3311,67.7632,32.3311,68.3472"/>
		<path fill="#4D5152" d="M38.6865,61.9917c0,0.584-0.4751,1.0596-1.059,1.0596c-0.5845,0-1.0596-0.4756-1.0596-1.0596
			s0.4751-1.0596,1.0596-1.0596C38.2114,60.9321,38.6865,61.4077,38.6865,61.9917"/>
		<path fill="#4D5152" d="M38.6865,68.3472c0,0.5849-0.4751,1.0596-1.059,1.0596c-0.5845,0-1.0596-0.4747-1.0596-1.0596
			c0-0.584,0.4751-1.0596,1.0596-1.0596C38.2114,67.2876,38.6865,67.7632,38.6865,68.3472"/>
		<path fill="#4D5152" d="M41.8648,71.5259c0,0.584-0.4751,1.0586-1.0596,1.0586c-0.584,0-1.0591-0.4746-1.0591-1.0586
			c0-0.585,0.4751-1.0596,1.0591-1.0596C41.3897,70.4663,41.8648,70.9409,41.8648,71.5259"/>
		<path fill="#4D5152" d="M41.8648,65.1694c0,0.584-0.4751,1.0596-1.0596,1.0596c-0.584,0-1.0591-0.4756-1.0591-1.0596
			c0-0.5849,0.4751-1.0595,1.0591-1.0595C41.3897,64.1099,41.8648,64.5845,41.8648,65.1694"/>
		<path fill="#4D5152" d="M45.0425,61.9917c0,0.584-0.4746,1.0596-1.0591,1.0596c-0.5849,0-1.0591-0.4756-1.0591-1.0596
			s0.4742-1.0596,1.0591-1.0596C44.5679,60.9321,45.0425,61.4077,45.0425,61.9917"/>
		<path fill="#4D5152" d="M45.0425,68.3472c0,0.5849-0.4746,1.0596-1.0591,1.0596c-0.5849,0-1.0591-0.4747-1.0591-1.0596
			c0-0.584,0.4742-1.0596,1.0591-1.0596C44.5679,67.2876,45.0425,67.7632,45.0425,68.3472"/>
		<path fill="#4D5152" d="M48.2202,71.5259c0,0.584-0.4746,1.0586-1.0591,1.0586c-0.5844,0-1.0595-0.4746-1.0595-1.0586
			c0-0.585,0.4751-1.0596,1.0595-1.0596C47.7456,70.4663,48.2202,70.9409,48.2202,71.5259"/>
		<path fill="#4D5152" d="M48.2202,65.1694c0,0.584-0.4746,1.0596-1.0591,1.0596c-0.5844,0-1.0595-0.4756-1.0595-1.0596
			c0-0.5849,0.4751-1.0595,1.0595-1.0595C47.7456,64.1099,48.2202,64.5845,48.2202,65.1694"/>
		<path fill="#4D5152" d="M45.0425,74.7036c0,0.584-0.4746,1.0586-1.0591,1.0586c-0.5849,0-1.0591-0.4746-1.0591-1.0586
			c0-0.5849,0.4742-1.0605,1.0591-1.0605C44.5679,73.6431,45.0425,74.1187,45.0425,74.7036"/>
		<path fill="#4D5152" d="M48.2202,77.8814c0,0.5849-0.4746,1.0586-1.0591,1.0586c-0.5844,0-1.0595-0.4737-1.0595-1.0586
			c0-0.585,0.4751-1.0586,1.0595-1.0586C47.7456,76.8228,48.2202,77.2964,48.2202,77.8814"/>
	</g>
</g>
</svg>
