<?xml version="1.0" encoding="utf-8"?>
<!-- Generator: Adobe Illustrator 17.1.0, SVG Export Plug-In . SVG Version: 6.00 Build 0)  -->
<!DOCTYPE svg PUBLIC "-//W3C//DTD SVG 1.1//EN" "http://www.w3.org/Graphics/SVG/1.1/DTD/svg11.dtd">
<svg version="1.1" id="sun-allergy" xmlns="http://www.w3.org/2000/svg" xmlns:xlink="http://www.w3.org/1999/xlink" x="0px"
	 y="0px" viewBox="0 0 98.5601 98.5601" enable-background="new 0 0 98.5601 98.5601" xml:space="preserve">
<g id="sun-allergy-label">
	<circle fill="#FFFDE3" cx="49.2798" cy="49.2798" r="48"/>
	<path fill="#4D5152" d="M49.2798,98.5601C22.1069,98.5601,0,76.4526,0,49.2798S22.1069,0,49.2798,0
		s49.2803,22.1069,49.2803,49.2798S76.4526,98.5601,49.2798,98.5601z M49.2798,2.5596c-25.7617,0-46.7202,20.9585-46.7202,46.7202
		s20.9585,46.7197,46.7202,46.7197s46.7197-20.958,46.7197-46.7197S75.0415,2.5596,49.2798,2.5596z"/>
</g>
<g id="sun-allergy-sun">
	<g>
		<path fill="#4D5152" d="M49.0684,81.2798c-0.707,0-1.2798-0.5732-1.2798-1.2803V69.3892c0-0.707,0.5728-1.2803,1.2798-1.2803
			s1.2798,0.5732,1.2798,1.2803v10.6104C50.3481,80.7065,49.7754,81.2798,49.0684,81.2798z"/>
	</g>
	<g>
		<path fill="#4D5152" d="M37.2749,36.1465c-0.334,0-0.668-0.1299-0.9189-0.3887l-7.189-7.4126
			c-0.4922-0.5073-0.4795-1.3179,0.0278-1.8101c0.5073-0.4912,1.3184-0.4795,1.8101,0.0278l7.189,7.4126
			c0.4922,0.5073,0.4795,1.3179-0.0278,1.8101C37.9175,36.0269,37.5962,36.1465,37.2749,36.1465z"/>
	</g>
	<g>
		<path fill="#4D5152" d="M62.6548,36.2363c-0.3271,0-0.6553-0.1245-0.9053-0.3745c-0.5-0.4995-0.5-1.3101,0-1.8101l7.499-7.5024
			c0.498-0.4995,1.3086-0.502,1.8105-0.0005c0.5,0.4995,0.5,1.3101,0,1.8101l-7.499,7.5024
			C63.3101,36.1113,62.9829,36.2363,62.6548,36.2363z"/>
	</g>
	<g>
		<path fill="#4D5152" d="M30.0859,74.3452c-0.3213,0-0.6426-0.1201-0.8911-0.3613c-0.5073-0.4922-0.52-1.3027-0.0278-1.8105
			l7.189-7.4102c0.4927-0.5078,1.3027-0.5195,1.8101-0.0273s0.52,1.3027,0.0278,1.8105l-7.189,7.4102
			C30.7534,74.2153,30.4199,74.3452,30.0859,74.3452z"/>
	</g>
	<g>
		<path fill="#4D5152" d="M70.1538,74.3452c-0.3281,0-0.6553-0.125-0.9053-0.375l-7.499-7.5029c-0.5-0.5-0.5-1.3105,0-1.8105
			c0.5-0.501,1.3105-0.5,1.8105,0l7.499,7.5029c0.5,0.5,0.5,1.3105,0,1.8105C70.8091,74.2202,70.481,74.3452,70.1538,74.3452z"/>
	</g>
	<g>
		<path fill="#FFB957" d="M49.2813,30.8052c-10.4829,0-18.9888,8.4966-18.9888,18.9863c0,10.4912,8.5059,18.9912,18.9888,18.9912
			c10.4858,0,18.9887-8.5,18.9887-18.9912C68.27,39.3018,59.7671,30.8052,49.2813,30.8052z"/>
		<path fill="#4D5152" d="M49.2812,70.063c-11.1763,0-20.2686-9.0938-20.2686-20.2715c0-11.1748,9.0923-20.2661,20.2686-20.2661
			s20.269,9.0913,20.269,20.2661C69.5503,60.9692,60.4575,70.063,49.2812,70.063z M49.2812,32.085
			c-9.7646,0-17.709,7.9434-17.709,17.7065c0,9.7656,7.9443,17.7109,17.709,17.7109c9.7651,0,17.7085-7.9453,17.7085-17.7109
			C66.9897,40.0283,59.0464,32.085,49.2812,32.085z"/>
	</g>
	<g>
		<path fill="#4D5152" d="M78.8823,51.0737H68.27c-0.707,0-1.2803-0.5732-1.2803-1.2798c0-0.707,0.5732-1.2798,1.2803-1.2798
			h10.6123c0.707,0,1.2803,0.5728,1.2803,1.2798C80.1626,50.5005,79.5894,51.0737,78.8823,51.0737z"/>
	</g>
	<g>
		<path fill="#4D5152" d="M49.0684,30.4502c-0.707,0-1.2798-0.5728-1.2798-1.2798V18.5596c0-0.707,0.5728-1.2798,1.2798-1.2798
			s1.2798,0.5728,1.2798,1.2798v10.6108C50.3481,29.8774,49.7754,30.4502,49.0684,30.4502z"/>
	</g>
	<g>
		<path fill="#4D5152" d="M30.2925,51.0737H19.6772c-0.707,0-1.2798-0.5732-1.2798-1.2798c0-0.707,0.5728-1.2798,1.2798-1.2798
			h10.6152c0.707,0,1.2798,0.5728,1.2798,1.2798C31.5723,50.5005,30.9995,51.0737,30.2925,51.0737z"/>
	</g>
</g>
<g id="sun-allergy-sad-face">
	<g>
		<path fill="#4D5152" d="M56.8843,59.6235c-0.3604,0-0.7188-0.1514-0.9727-0.4463c-1.668-1.9434-4.0918-3.0576-6.6504-3.0576
			c-2.5503,0-4.9697,1.1084-6.6382,3.041c-0.4614,0.5352-1.2705,0.5947-1.8052,0.1318c-0.5352-0.4619-0.5942-1.2705-0.1323-1.8057
			c2.1553-2.4961,5.2808-3.9277,8.5757-3.9277c3.3066,0,6.4385,1.4404,8.5938,3.9502c0.46,0.5371,0.3984,1.3447-0.1377,1.8057
			C57.4751,59.522,57.1792,59.6235,56.8843,59.6235z"/>
	</g>
	<g>
		<path fill="#4D5152" d="M43.3721,49.2295c-2.7417,0-4.9722-2.23-4.9722-4.9712c0-0.707,0.5728-1.2798,1.2798-1.2798
			s1.2798,0.5728,1.2798,1.2798c0,1.3296,1.0825,2.4116,2.4126,2.4116c1.3306,0,2.4131-1.082,2.4131-2.4116
			c0-0.707,0.5728-1.2798,1.2798-1.2798s1.2798,0.5728,1.2798,1.2798C48.3447,46.9995,46.1143,49.2295,43.3721,49.2295z"/>
	</g>
	<g>
		<path fill="#4D5152" d="M55.187,49.2295c-2.7412,0-4.9712-2.23-4.9712-4.9712c0-0.707,0.5728-1.2798,1.2798-1.2798
			s1.2803,0.5728,1.2803,1.2798c0,1.3296,1.0811,2.4116,2.4111,2.4116s2.4121-1.082,2.4121-2.4116
			c0-0.707,0.5732-1.2798,1.2803-1.2798s1.2803,0.5728,1.2803,1.2798C60.1597,46.9995,57.9292,49.2295,55.187,49.2295z"/>
	</g>
</g>
</svg>
