<?xml version="1.0" encoding="utf-8"?>
<!-- Generator: Adobe Illustrator 17.1.0, SVG Export Plug-In . SVG Version: 6.00 Build 0)  -->
<!DOCTYPE svg PUBLIC "-//W3C//DTD SVG 1.1//EN" "http://www.w3.org/Graphics/SVG/1.1/DTD/svg11.dtd">
<svg version="1.1" id="vegan-food" xmlns="http://www.w3.org/2000/svg" xmlns:xlink="http://www.w3.org/1999/xlink" x="0px" y="0px"
	 viewBox="0 0 98.56 98.56" enable-background="new 0 0 98.56 98.56" xml:space="preserve">
<g>
	<g id="vegan-food-label">
		<circle fill="#FFFDE3" stroke="#4D5152" stroke-width="2.56" stroke-miterlimit="10" cx="49.28" cy="49.28" r="48"/>
	</g>
	<g id="vegan-food-carrot">
		
			<path fill="#A1D9B1" stroke="#4D5152" stroke-width="2.56" stroke-linecap="round" stroke-linejoin="round" stroke-miterlimit="10" d="
			M79.3562,32.5139l-7.46-2.7695l3.4141-10.0269l-9.3867,3.627l-3.4512-7.3506c0,0-3.3076,3.9272-3.8291,9.1284
			C57.7009,34.49,60.8982,37.7214,70.323,36.5569C75.5075,35.9162,79.3562,32.5139,79.3562,32.5139z"/>
		
			<path fill="#FFB957" stroke="#4D5152" stroke-width="2.56" stroke-linecap="round" stroke-linejoin="round" stroke-miterlimit="10" d="
			M56.6579,56.4675C44.9988,68.1277,21.6745,78.4167,19.5417,76.2849c-2.3799-2.3809,8.1587-25.4561,19.8194-37.1148
			c11.6591-11.6596,17.6279-9.8842,22.4062-5.1074C66.5427,38.8386,68.3191,44.8083,56.6579,56.4675z"/>
		
			<path fill="none" stroke="#4D5152" stroke-width="2.56" stroke-linecap="round" stroke-linejoin="round" stroke-miterlimit="10" stroke-dasharray="3.1779,4.2372" d="
			M44.4348,34.675c2.1841-2.1831,7.6811-0.2251,12.2788,4.3721c4.5977,4.5981,6.5566,10.0962,4.3721,12.2788"/>
		
			<path fill="none" stroke="#4D5152" stroke-width="2.56" stroke-linecap="round" stroke-linejoin="round" stroke-miterlimit="10" stroke-dasharray="3.1779,4.2372" d="
			M39.195,39.405c2.1836-2.1831,7.8077-0.0996,12.5596,4.6538c4.752,4.7524,6.8359,10.3745,4.6524,12.5591"/>
		
			<path fill="none" stroke="#4D5152" stroke-width="2.56" stroke-linecap="round" stroke-linejoin="round" stroke-miterlimit="10" stroke-dasharray="3.1779,4.2372" d="
			M34.6174,44.7986c2.1841-2.1832,7.6465-0.2603,12.2036,4.2949c4.5557,4.5566,6.4776,10.0185,4.2949,12.2031"/>
		
			<path fill="none" stroke="#4D5152" stroke-width="2.56" stroke-linecap="round" stroke-linejoin="round" stroke-miterlimit="10" stroke-dasharray="3.1779,4.2372" d="
			M30.4499,50.6013c2.1836-2.1836,7.2461-0.6602,11.3076,3.4014c4.0635,4.0625,5.5865,9.125,3.4038,11.3076"/>
		
			<path fill="none" stroke="#4D5152" stroke-width="2.56" stroke-linecap="round" stroke-linejoin="round" stroke-miterlimit="10" stroke-dasharray="3.1779,4.2372" d="
			M26.6394,56.7614c2.1831-2.1835,6.7207-1.1875,10.1343,2.2256c3.4126,3.4131,4.4101,7.9502,2.2265,10.1338"/>
		
			<path fill="none" stroke="#4D5152" stroke-width="2.56" stroke-linecap="round" stroke-linejoin="round" stroke-miterlimit="10" stroke-dasharray="3.1779,4.2372" d="
			M23.2683,63.0935c2.1836-2.1836,6.0581-1.8487,8.6528,0.7461c2.5952,2.5957,2.9302,6.4687,0.7466,8.6533"/>
		<path fill="none" stroke="#4D5152" stroke-width="2.56" stroke-linecap="round" stroke-linejoin="round" d="M20.592,69.9587
			c0.3887-0.3887,0.8013-0.7275,1.2251-1.0127"/>
		
			<path fill="none" stroke="#4D5152" stroke-width="2.56" stroke-linecap="round" stroke-linejoin="round" stroke-dasharray="3.144,4.1917" d="
			M25.778,67.8962c0.5313,0.1074,1.0015,0.3428,1.3726,0.7139c0.8101,0.8095,0.9727,2.0957,0.5698,3.4541"/>
		<path fill="none" stroke="#4D5152" stroke-width="2.56" stroke-linecap="round" stroke-linejoin="round" d="M26.8156,73.9441
			c-0.2861,0.4238-0.625,0.8359-1.0127,1.2246"/>
	</g>
</g>
</svg>
