<?xml version="1.0" encoding="utf-8"?>
<!-- Generator: Adobe Illustrator 17.1.0, SVG Export Plug-In . SVG Version: 6.00 Build 0)  -->
<!DOCTYPE svg PUBLIC "-//W3C//DTD SVG 1.1//EN" "http://www.w3.org/Graphics/SVG/1.1/DTD/svg11.dtd">
<svg version="1.1" id="walnut-free" xmlns="http://www.w3.org/2000/svg" xmlns:xlink="http://www.w3.org/1999/xlink" x="0px"
	 y="0px" viewBox="0 0 98.5601 98.5601" enable-background="new 0 0 98.5601 98.5601" xml:space="preserve">
<g id="walnut-free-label">
	<g>
		<circle fill="#FFFDE3" cx="49.2798" cy="49.2798" r="48"/>
		<path fill="#4D5152" d="M49.2798,98.5601C22.1069,98.5601,0,76.4526,0,49.2798S22.1069,0,49.2798,0
			s49.2803,22.1069,49.2803,49.2798S76.4526,98.5601,49.2798,98.5601z M49.2798,2.5596c-25.7617,0-46.7202,20.9585-46.7202,46.7202
			s20.9585,46.7197,46.7202,46.7197s46.7197-20.958,46.7197-46.7197S75.0415,2.5596,49.2798,2.5596z"/>
	</g>
	<g>
		
			<rect x="2.4643" y="47.9995" transform="matrix(0.7071 0.7071 -0.7071 0.7071 49.2798 -20.4124)" fill="#4D5152" width="93.6309" height="2.5605"/>
	</g>
</g>
<g id="walnut-free-walnut">
	<g>
		<path fill="#FFB957" d="M54.2564,69.5952c0.1338,0.5332,0.9931,3.6133,3.4765,5.8682c1.3047,1.2041,2.9981,1.8115,4.7627,1.708
			c3.542-0.2168,6.249-3.2764,6.0342-6.8193c-0.0127-0.1885-0.0371-0.3799-0.0664-0.5694c-0.1152-0.7646,0.3437-1.497,1.081-1.7275
			c0.1094-0.0332,0.21-0.0801,0.3125-0.125l0.2159-0.0938c0.0771-0.0312,0.1572-0.0605,0.2373-0.0791
			c2.6689-0.6435,4.4834-3.0986,4.3164-5.8388c-0.0684-1.1114-0.4571-2.167-1.1289-3.0567
			c-0.3223-0.4267-0.4033-0.9912-0.2139-1.4931c0.1875-0.5,0.6201-0.8702,1.1465-0.9776c3.3779-0.6972,5.7676-3.8174,5.5566-7.2549
			c-0.1621-2.6704-1.874-5.0454-4.3613-6.0537c-0.4844-0.1963-0.8398-0.6225-0.9434-1.1352
			c-0.1064-0.5127,0.0538-1.0425,0.4219-1.4151c1.0078-1.0151,1.5381-2.4087,1.4512-3.8247
			c-0.1602-2.6313-2.3525-4.6928-4.9912-4.6928l-0.1533,0.0014c-0.5772,0.0176-1.1377-0.2964-1.42-0.8149
			c-0.2822-0.5176-0.247-1.1499,0.0879-1.6353c0-0.0009,0.8858-1.3613,0.7686-3.2998c-0.1738-2.8462-2.6416-5.0464-5.5108-4.8789
			c-2.8652,0.1778-5.0537,2.6499-4.8789,5.5127c0.044,0.7412-0.1806,3.9185-2.0888,5.9473c-0.9873,1.0503-2.2725,1.605-3.7168,1.605
			c-2.5987,0-4.3018-1.6275-5.3716-3.7212c-1.0693,2.0937-2.7725,3.7212-5.3716,3.7212c-1.4434,0-2.729-0.5547-3.7163-1.605
			c-1.9106-2.0288-2.1343-5.2061-2.0894-5.9463c0.1753-2.8638-2.0146-5.3359-4.8808-5.5137
			c-0.105-0.0063-0.2119-0.0097-0.3174-0.0097c-2.7437,0-5.0249,2.1484-5.1919,4.8896c-0.1186,1.9565,0.7593,3.2866,0.7681,3.2988
			c0.3349,0.4854,0.3696,1.1177,0.0874,1.6353c-0.2813,0.5185-0.8516,0.8213-1.4195,0.8149l-0.1543-0.0014
			c-2.6372,0-4.8291,2.0615-4.9892,4.6928c-0.0864,1.416,0.4433,2.8096,1.4521,3.8247c0.3677,0.3726,0.5274,0.9024,0.4209,1.4151
			c-0.1045,0.5127-0.4585,0.9389-0.9438,1.1352c-2.4873,1.0083-4.1987,3.3833-4.3623,6.0508
			c-0.21,3.4404,2.1802,6.5606,5.5586,7.2578c0.5254,0.1074,0.9575,0.4776,1.1465,0.9776c0.1884,0.5019,0.1079,1.0664-0.2144,1.4931
			c-0.6719,0.8897-1.062,1.9453-1.1284,3.0557c-0.1675,2.7412,1.647,5.1963,4.3159,5.8398
			c0.0811,0.0186,0.1611,0.0479,0.2393,0.0791l0.2119,0.0918c0.103,0.045,0.2051,0.0938,0.3144,0.1289
			c0.7368,0.2286,1.1963,0.961,1.0811,1.7256c-0.0288,0.1895-0.0537,0.3809-0.0659,0.5742
			c-0.2144,3.5381,2.4922,6.5977,6.0337,6.8145c1.771,0.1055,3.4585-0.5068,4.7524-1.6992c2.4873-2.2588,3.3501-5.334,3.4878-5.877
			c0.1733-1.9228,1.4038-5.3291,4.9746-5.3291C52.8511,64.2661,54.0825,67.6734,54.2564,69.5952z"/>
		<path fill="#4D5152" d="M36.4565,78.4634c-0.1553,0-0.311-0.0049-0.4678-0.0146c-4.2476-0.2598-7.4922-3.9248-7.2354-8.1689
			c0.0151-0.2344,0.0439-0.4629,0.0781-0.6895c0.021-0.1377-0.061-0.2695-0.1948-0.3105c-0.1436-0.0459-0.2686-0.0996-0.3921-0.1543
			l-0.2637-0.1143c-3.3032-0.7988-5.5293-3.8105-5.3242-7.1719c0.0815-1.3604,0.5605-2.6572,1.3848-3.749
			c0.0576-0.0762,0.0718-0.1807,0.0376-0.2715c-0.0337-0.0889-0.1104-0.1543-0.2046-0.1738
			c-4.0005-0.8252-6.8281-4.5186-6.5801-8.5898c0.1938-3.1567,2.2188-5.9668,5.1592-7.1587
			c0.0884-0.0361,0.1519-0.1123,0.1704-0.2046c0.02-0.0957-0.0093-0.1914-0.0776-0.2607c-1.2632-1.271-1.9272-3.0225-1.8188-4.8018
			c0.2012-3.3052,2.9541-5.8945,6.2671-5.8945l0.1665,0.0015l0,0c0.1182,0,0.2373-0.0625,0.2822-0.1455
			c0.0522-0.0957,0.0454-0.209-0.0161-0.2979h0.0005c-0.0005,0-1.1406-1.6606-0.9927-4.1035
			c0.2085-3.416,3.0503-6.0918,6.4697-6.0918c0.1313,0,0.2642,0.0039,0.3945,0.0117c3.5723,0.2217,6.2998,3.3032,6.0815,6.8696
			c-0.0298,0.4849,0.1548,3.3042,1.7432,4.9907c0.7505,0.7983,1.687,1.2026,2.7847,1.2026c1.8086,0,3.1924-0.9893,4.2314-3.0234
			l1.1396-2.2314l1.1406,2.231c1.0391,2.0347,2.4238,3.0239,4.2314,3.0239c1.0977,0,2.0342-0.4043,2.7842-1.2017
			c1.585-1.686,1.7725-4.5093,1.7441-4.9951c-0.2178-3.5635,2.5078-6.6445,6.0771-6.8657c0.1328-0.0078,0.2598-0.0117,0.3857-0.0117
			c3.4258,0,6.2734,2.6753,6.4814,6.0898c0.1328,2.1987-0.7783,3.7666-0.9619,4.0586c-0.0918,0.1357-0.0986,0.249-0.0479,0.3418
			c0.0479,0.0879,0.1504,0.1484,0.25,0.1484l0.1865-0.002c3.3271,0,6.0801,2.5894,6.2812,5.895
			c0.1094,1.7773-0.5537,3.5288-1.8203,4.8042c-0.0664,0.0669-0.0957,0.1626-0.0771,0.2529c0.0205,0.0981,0.083,0.1738,0.1709,0.209
			c2.9424,1.1929,4.9668,4.0044,5.1582,7.1626c0.25,4.0688-2.5771,7.7612-6.5752,8.5864c-0.0977,0.0195-0.1738,0.084-0.207,0.1729
			c-0.0352,0.0928-0.0205,0.1963,0.0371,0.2725c0.8223,1.0889,1.3008,2.3857,1.3848,3.75c0.2051,3.3604-2.0215,6.3721-5.2939,7.1611
			l-0.2432,0.1025c-0.1699,0.0752-0.3057,0.1318-0.4502,0.1758c-0.126,0.0391-0.209,0.1719-0.1875,0.3125
			c0.0342,0.2207,0.0625,0.4492,0.0781,0.6738c0.2578,4.2559-2.9873,7.9229-7.2334,8.1826
			c-2.1494,0.1377-4.1572-0.6123-5.709-2.0449c-2.7354-2.4834-3.6875-5.8477-3.8496-6.4971l-0.0332-0.1963
			c-0.0156-0.1699-0.415-4.1641-3.7021-4.1641c-3.2866,0-3.6846,3.9941-3.6997,4.1641l-0.0342,0.1992
			c-0.165,0.6504-1.1265,4.0205-3.8682,6.5098C40.2505,77.7349,38.3936,78.4634,36.4565,78.4634z M26.9824,33.2944
			c-1.9497,0-3.5801,1.5337-3.6992,3.4907c-0.0645,1.0513,0.3301,2.0879,1.082,2.8447c0.6748,0.6836,0.96,1.646,0.7666,2.5776
			c-0.1899,0.9312-0.832,1.7036-1.7173,2.0615c-2.0317,0.8237-3.4312,2.7637-3.5645,4.9424
			c-0.1719,2.8086,1.7798,5.3564,4.5396,5.9258c0.958,0.1963,1.7383,0.8613,2.085,1.7793c0.3462,0.9209,0.1997,1.9355-0.3901,2.7168
			c-0.5195,0.6875-0.8208,1.5039-0.8721,2.3604c-0.1299,2.1221,1.2744,4.0215,3.3379,4.5195
			c0.1309,0.0293,0.2749,0.0791,0.4146,0.1348l0.2456,0.1055c0.1147,0.0508,0.1543,0.0713,0.1973,0.085
			c1.3389,0.415,2.166,1.7354,1.9551,3.1348c-0.0234,0.1543-0.0444,0.3086-0.0542,0.4648c-0.1714,2.833,1.9971,5.2822,4.8345,5.4561
			c1.3794,0.0781,2.769-0.4072,3.8071-1.3633c2.1128-1.9189,2.9307-4.5752,3.0908-5.1621c0.3208-3.0957,2.3936-6.3828,6.2388-6.3828
			c3.8457,0,5.9199,3.2881,6.2402,6.3848c0.1582,0.582,0.9668,3.2324,3.0732,5.1455c1.0498,0.9678,2.4297,1.459,3.8271,1.3779
			c2.835-0.1738,5.0039-2.625,4.832-5.4648c-0.0098-0.1436-0.0303-0.2979-0.0537-0.4512c-0.2119-1.4023,0.6143-2.7227,1.9639-3.1445
			c0.0537-0.0166,0.0938-0.0371,0.1348-0.0557l0.2656-0.1152c0.168-0.0693,0.3135-0.1191,0.458-0.1523
			c2.0527-0.4951,3.457-2.3945,3.3281-4.5137c-0.0527-0.8604-0.3545-1.6777-0.873-2.3633
			c-0.5908-0.7822-0.7363-1.7979-0.3896-2.7168c0.3438-0.917,1.124-1.583,2.0879-1.7793c2.7559-0.5693,4.707-3.1152,4.5352-5.9224
			c-0.1328-2.1807-1.5322-4.1221-3.5645-4.9463c-0.8867-0.3589-1.5283-1.1323-1.7178-2.0679
			c-0.1914-0.9253,0.0938-1.8877,0.7666-2.5684c0.7539-0.7593,1.1484-1.7964,1.084-2.8462c-0.1191-1.958-1.751-3.4917-3.7139-3.4917
			l-0.1406,0.0015c-0.001,0-0.002,0-0.0029,0c-1.0996,0-2.0557-0.5684-2.5537-1.4829c-0.4434-0.812-0.4609-1.7676-0.0684-2.5845
			v-0.0322l0.1123-0.1782c0.0293-0.0498,0.0605-0.0986,0.0928-0.1475c0.0693-0.1157,0.6504-1.1372,0.5664-2.5273
			c-0.1318-2.1426-1.9766-3.7998-4.1592-3.6782c-2.1562,0.1338-3.8076,1.9985-3.6758,4.1567
			c0.0625,1.0547-0.251,4.5811-2.4336,6.9023c-1.2354,1.3135-2.8428,2.0078-4.6494,2.0078c-2.1426,0-3.9697-0.9053-5.3716-2.6411
			c-1.4014,1.7358-3.229,2.6411-5.3716,2.6411c-1.8062,0-3.4141-0.6943-4.6489-2.0083c-2.188-2.3228-2.498-5.8486-2.4346-6.9004
			c0.1323-2.1592-1.5195-4.0244-3.6821-4.1587c-0.0776-0.0044-0.1587-0.0073-0.2383-0.0073c-2.0688,0-3.7881,1.6201-3.9141,3.6875
			c-0.0898,1.4775,0.5542,2.5098,0.561,2.52c0.5962,0.8628,0.6562,2.0029,0.1406,2.9492c-0.4883,0.8994-1.48,1.4824-2.5259,1.4824
			L26.9824,33.2944z"/>
	</g>
	<g>
		<rect x="48" y="32.2285" fill="#4D5152" width="2.5601" height="31.7778"/>
	</g>
	<g>
		<g>
			<path fill="#4D5152" d="M42.3462,54.7612c-0.2642,0-0.5308-0.082-0.7598-0.251c-1.4043-1.0371-2.4229-3.6143-2.3691-5.9932
				c0.0449-1.9766,0.8301-3.5752,2.2109-4.5015c0.5869-0.394,1.3823-0.2363,1.7759,0.3501c0.394,0.5869,0.2373,1.3823-0.3501,1.7759
				c-0.8579,0.5752-1.0591,1.6411-1.0771,2.4336c-0.0396,1.7368,0.7617,3.4556,1.3311,3.8765c0.5684,0.4199,0.689,1.2217,0.269,1.79
				C43.126,54.5815,42.7383,54.7612,42.3462,54.7612z"/>
		</g>
		<g>
			<path fill="#4D5152" d="M33.0649,62.186c-0.2642,0-0.5303-0.082-0.7593-0.251c-1.4038-1.0361-2.4224-3.6123-2.3691-5.9912
				c0.0444-1.9775,0.8291-3.5771,2.21-4.5039c0.5859-0.3945,1.3828-0.2373,1.7764,0.3496s0.2373,1.3818-0.3496,1.7754
				c-0.8584,0.5762-1.0596,1.6426-1.0771,2.4365c-0.0391,1.7373,0.7617,3.4551,1.3301,3.875
				c0.5688,0.4189,0.6895,1.2207,0.2695,1.79C33.8447,62.0063,33.4575,62.186,33.0649,62.186z"/>
		</g>
		<g>
			<path fill="#4D5152" d="M33.0664,47.3364c-0.2642,0-0.5308-0.0815-0.7598-0.2505c-1.4043-1.0376-2.4229-3.6138-2.3696-5.9922
				c0.0444-1.9771,0.8296-3.5762,2.2104-4.5029c0.5864-0.3945,1.3833-0.2378,1.7759,0.3491
				c0.394,0.5869,0.2378,1.3818-0.3491,1.7759c-0.8584,0.5767-1.0601,1.6426-1.0776,2.4355
				c-0.0391,1.7363,0.7622,3.4551,1.3315,3.875c0.5684,0.4204,0.689,1.2217,0.269,1.7905
				C33.8462,47.1562,33.4585,47.3364,33.0664,47.3364z"/>
		</g>
	</g>
	<g>
		<g>
			<path fill="#4D5152" d="M56.2124,54.7612c-0.3926,0-0.7793-0.1797-1.0303-0.5195c-0.4199-0.5684-0.2998-1.3701,0.2686-1.79
				c0.5693-0.4209,1.3701-2.1396,1.3301-3.8765c-0.0176-0.7925-0.2197-1.8579-1.0771-2.4336
				c-0.5869-0.3936-0.7441-1.189-0.3506-1.7759c0.3936-0.5874,1.1904-0.7446,1.7764-0.3501c1.3809,0.9258,2.166,2.5244,2.2109,4.501
				c0.0547,2.3794-0.9639,4.9565-2.3682,5.9937C56.7437,54.6792,56.4771,54.7612,56.2124,54.7612z"/>
		</g>
		<g>
			<path fill="#4D5152" d="M65.4937,62.186c-0.3926,0-0.7793-0.1797-1.0303-0.5195c-0.4199-0.5693-0.2998-1.3711,0.2686-1.79
				c0.5693-0.4199,1.3701-2.1377,1.3311-3.875c-0.0186-0.7939-0.2197-1.8604-1.0781-2.4365
				c-0.5869-0.3936-0.7432-1.1885-0.3486-1.7754s1.1865-0.7451,1.7764-0.3496c1.3799,0.9268,2.165,2.5264,2.209,4.5039
				c0.0537,2.3789-0.9648,4.9551-2.3682,5.9912C66.0239,62.104,65.7573,62.186,65.4937,62.186z"/>
		</g>
		<g>
			<path fill="#4D5152" d="M65.4917,47.3364c-0.3926,0-0.7793-0.1802-1.0303-0.52c-0.4199-0.5684-0.2998-1.3701,0.2686-1.79
				c0.5693-0.4199,1.3711-2.1382,1.332-3.8745c-0.0176-0.793-0.2188-1.8594-1.0781-2.436c-0.5869-0.394-0.7432-1.189-0.3486-1.7759
				c0.3936-0.5874,1.1875-0.7446,1.7764-0.3491c1.3809,0.9268,2.165,2.5264,2.21,4.5034c0.0527,2.3784-0.9658,4.9546-2.3701,5.9917
				C66.022,47.2549,65.7554,47.3364,65.4917,47.3364z"/>
		</g>
	</g>
</g>
</svg>
