<svg id="Layer_1" data-name="Layer 1" xmlns="http://www.w3.org/2000/svg" width="877.92" height="247.86" viewBox="0 0 877.92 247.86"><defs><style>.cls-1{fill:#ef7922;}.cls-2{fill:#444445;}.cls-3{fill:#808083;}</style></defs><title>OHT_Logo.Nu</title><path class="cls-1" d="M316.86,384.27a49.7,49.7,0,0,0-10.26-7.86,49.48,49.48,0,0,0-59.76,7.86A49.69,49.69,0,0,0,239,394.53a49.48,49.48,0,0,0,7.86,59.76,49.7,49.7,0,0,0,10.26,7.86,49.48,49.48,0,0,0,59.76-7.86A49.71,49.71,0,0,0,324.72,444a49.34,49.34,0,0,0,6.64-24.75h0A49.47,49.47,0,0,0,316.86,384.27Z" transform="translate(-156.41 -297.43)"/><path class="cls-1" d="M334.09,308.83a18.39,18.39,0,0,0-3.8-2.91,18.31,18.31,0,0,0-22.11,2.91,18.39,18.39,0,0,0-2.91,3.79,18.31,18.31,0,0,0,2.91,22.11,18.39,18.39,0,0,0,3.79,2.91,18.31,18.31,0,0,0,22.11-2.91,18.39,18.39,0,0,0,2.91-3.79,18.26,18.26,0,0,0,2.46-9.16h0A18.3,18.3,0,0,0,334.09,308.83Z" transform="translate(-156.41 -297.43)"/><path class="cls-2" d="M404.25,438.77A18.17,18.17,0,0,0,368.09,436c0,0.16,0,.31-0.08.47-0.43,2.35-.92,4.68-1.53,7a87.8,87.8,0,0,1-8.84,21.3,88.37,88.37,0,0,1-99.38,41.18,87.78,87.78,0,0,1-21.3-8.84,88.37,88.37,0,0,1-41.18-99.38,87.77,87.77,0,0,1,8.84-21.3,88.28,88.28,0,0,1,53.64-41.18c2-.53,4-1,6-1.37v-0.12c-0.44,0-.88.09-1.33,0.09a18.19,18.19,0,0,0,18.19-18.19h0a18.2,18.2,0,0,0-22.9-17.57l-9.38,2A124.68,124.68,0,1,0,401.61,452.86q1.43-5.37,2.39-10.92h-0.07c-0.09.52-.17,1-0.31,1.54a18.21,18.21,0,0,0,.62-4.71h0Z" transform="translate(-156.41 -297.43)"/><path class="cls-1" d="M395.36,371.12c-0.09-.32-0.22-0.63-0.32-0.94l0.12-.05c-0.16-.35-0.33-0.69-0.49-1s-0.27-.6-0.41-0.9v0c-0.1-.22-0.22-0.44-0.33-0.66a124.4,124.4,0,0,0-10.58-18.36l0,0h0a18.14,18.14,0,1,0-30,20.37h0l-0.07,0a89.12,89.12,0,0,1,8.69,15.3l0.11,0A18.17,18.17,0,0,0,395.36,371.12ZM384.92,352c-0.11-.25-0.24-0.48-0.36-0.72C384.68,351.52,384.8,351.76,384.92,352Zm1,2.69a18,18,0,0,0-.64-1.89A16.83,16.83,0,0,1,385.9,354.7Zm-31.63,16.16a18.23,18.23,0,0,0,1.22,1.39A15.64,15.64,0,0,1,354.27,370.86Zm6,9.66a18.08,18.08,0,0,0,.76,2.23A17.76,17.76,0,0,1,360.25,380.53Zm31.85-15.92a18.2,18.2,0,0,0-1.44-1.64A17.43,17.43,0,0,1,392.1,364.61Zm1.19,1.73c-0.09-.14-0.18-0.27-0.27-0.41C393.11,366.07,393.21,366.2,393.29,366.34Z" transform="translate(-156.41 -297.43)"/><path class="cls-3" d="M466.1,454.4H444.3v-7.66h52.26v7.66H474.85v53.17H466.1V454.4Z" transform="translate(-156.41 -297.43)"/><path class="cls-3" d="M505.68,446.74H525.1a26.76,26.76,0,0,1,9.85,1.6,19,19,0,0,1,6.52,4.1,15.27,15.27,0,0,1,3.65,5.7,19.11,19.11,0,0,1,1.14,6.47,19.34,19.34,0,0,1-2.74,10.31,16.33,16.33,0,0,1-8.48,6.66l14.23,26h-9.85l-13-24.9H514.16v24.9h-8.48V446.74Zm20.15,28.54q5.75,0,8.62-2.83a10.13,10.13,0,0,0,2.87-7.57,9.94,9.94,0,0,0-3.1-7.8q-3.1-2.78-8.57-2.78H514.16v21h11.67Z" transform="translate(-156.41 -297.43)"/><path class="cls-3" d="M575.9,446.74h8.94l23.8,60.83h-9.76l-6.29-17h-25l-6.29,17h-9.21Zm14,36.48-9.85-26.72-9.94,26.72h19.79Z" transform="translate(-156.41 -297.43)"/><path class="cls-3" d="M616.57,446.74h8.85l33.2,47.51V446.74h8.57v60.83h-8.76L625.14,460v47.6h-8.57V446.74Z" transform="translate(-156.41 -297.43)"/><path class="cls-3" d="M683.69,492.8q1.28,1.46,2.87,3a20.07,20.07,0,0,0,3.6,2.69,19.77,19.77,0,0,0,4.47,1.92,18.87,18.87,0,0,0,5.38.73q6,0,9.39-2.74a9,9,0,0,0,3.37-7.39,8.4,8.4,0,0,0-3.83-7.52q-3.83-2.51-11-4.06a33.68,33.68,0,0,1-7.11-2.28,20.19,20.19,0,0,1-5.52-3.65,15.56,15.56,0,0,1-3.6-5.06,15.87,15.87,0,0,1-1.28-6.52,16.16,16.16,0,0,1,1.28-6.38,14.77,14.77,0,0,1,3.83-5.29,19.09,19.09,0,0,1,6.38-3.65,26.25,26.25,0,0,1,8.85-1.37,27.31,27.31,0,0,1,7.71,1,23.91,23.91,0,0,1,5.52,2.33,16.87,16.87,0,0,1,3.65,2.83q1.37,1.46,2.1,2.37l-5.84,5.38q-0.55-.64-1.64-1.69a15.45,15.45,0,0,0-2.78-2.05,18,18,0,0,0-3.92-1.69,17.65,17.65,0,0,0-5.15-.68,14.48,14.48,0,0,0-5,.78,10.61,10.61,0,0,0-3.46,2,7.64,7.64,0,0,0-2,2.78,8.1,8.1,0,0,0-.64,3.1,7.39,7.39,0,0,0,1,3.88,9.11,9.11,0,0,0,2.78,2.83,17.84,17.84,0,0,0,4.51,2.1q2.69,0.87,6.16,1.69a46.84,46.84,0,0,1,6.61,2.14,20.57,20.57,0,0,1,5.79,3.56,16.36,16.36,0,0,1,4.06,5.47,18.66,18.66,0,0,1,1.5,7.89,15.86,15.86,0,0,1-1.64,7.2,17.75,17.75,0,0,1-4.51,5.7,20.68,20.68,0,0,1-6.79,3.74,26.4,26.4,0,0,1-8.48,1.32,28.35,28.35,0,0,1-7.8-1,31.74,31.74,0,0,1-6.38-2.55,27.36,27.36,0,0,1-5-3.42,24.37,24.37,0,0,1-3.51-3.69Z" transform="translate(-156.41 -297.43)"/><path class="cls-3" d="M734.12,446.74h8.75v53.08h31.65v7.75h-40.4V446.74Z" transform="translate(-156.41 -297.43)"/><path class="cls-3" d="M803.25,446.74h8.94L836,507.57h-9.76l-6.29-17h-25l-6.29,17h-9.21Zm14,36.48-9.85-26.72-9.94,26.72h19.79Z" transform="translate(-156.41 -297.43)"/><path class="cls-3" d="M850.48,454.4h-21.8v-7.66h52.26v7.66H859.24v53.17h-8.76V454.4Z" transform="translate(-156.41 -297.43)"/><path class="cls-3" d="M890.06,446.74h8.75v60.83h-8.75V446.74Z" transform="translate(-156.41 -297.43)"/><path class="cls-3" d="M941.22,509.12A29.8,29.8,0,0,1,929,506.61a31.13,31.13,0,0,1-9.85-6.84,31.45,31.45,0,0,1-6.57-10.17,34,34,0,0,1,0-24.94,32,32,0,0,1,6.52-10.12A30.52,30.52,0,0,1,929,447.7a31.26,31.26,0,0,1,24.53,0,31.05,31.05,0,0,1,9.89,6.84A31.62,31.62,0,0,1,970,464.66a34,34,0,0,1,0,24.94,31.45,31.45,0,0,1-6.57,10.17,31,31,0,0,1-9.89,6.84A30.11,30.11,0,0,1,941.22,509.12Zm0-8.21a20.75,20.75,0,0,0,16-7.11,23.41,23.41,0,0,0,4.42-7.61A27,27,0,0,0,963.2,477a27.3,27.3,0,0,0-1.55-9.26,23.46,23.46,0,0,0-4.42-7.62A20.49,20.49,0,0,0,950.3,455a21.46,21.46,0,0,0-9.08-1.87,21.14,21.14,0,0,0-9,1.87,20.63,20.63,0,0,0-6.89,5.15,23.42,23.42,0,0,0-4.42,7.62,27.25,27.25,0,0,0-1.55,9.26,27,27,0,0,0,1.55,9.17,23.37,23.37,0,0,0,4.42,7.61,21.12,21.12,0,0,0,6.89,5.2A20.68,20.68,0,0,0,941.22,500.91Z" transform="translate(-156.41 -297.43)"/><path class="cls-3" d="M983.72,446.74h8.85l33.2,47.51V446.74h8.57v60.83h-8.76L992.29,460v47.6h-8.57V446.74Z" transform="translate(-156.41 -297.43)"/><path class="cls-1" d="M488.74,427.2A45.64,45.64,0,0,1,471,423.8a43.2,43.2,0,0,1-14.09-9.35,42.06,42.06,0,0,1-9.28-14.21,50.27,50.27,0,0,1,0-36A41.63,41.63,0,0,1,471,340.75a46.4,46.4,0,0,1,17.74-3.33,46.89,46.89,0,0,1,17.8,3.33A41.63,41.63,0,0,1,520.63,350a42.64,42.64,0,0,1,9.22,14.22,50.3,50.3,0,0,1,0,36,41.64,41.64,0,0,1-23.31,23.56A46.12,46.12,0,0,1,488.74,427.2Zm0-21.26a20.48,20.48,0,0,0,8.9-1.86,19.31,19.31,0,0,0,6.6-5.06,22.25,22.25,0,0,0,4.1-7.56,30.91,30.91,0,0,0,0-18.44,22.32,22.32,0,0,0-4.1-7.56,19.37,19.37,0,0,0-6.6-5.06,22.25,22.25,0,0,0-17.8,0,19.35,19.35,0,0,0-6.6,5.06,22.25,22.25,0,0,0-4.1,7.56,30.87,30.87,0,0,0,0,18.44,22.18,22.18,0,0,0,4.1,7.56,19.29,19.29,0,0,0,6.6,5.06A20.48,20.48,0,0,0,488.74,405.94Z" transform="translate(-156.41 -297.43)"/><path class="cls-1" d="M540.27,339.73h20.62l32.78,47.64V339.73h22.41v85.42H596.75l-34.06-49v49H540.27V339.73Z" transform="translate(-156.41 -297.43)"/><path class="cls-1" d="M627.15,339.73h61.47v19.59h-38.8v13.19H681.7V391H649.81v14.6h41.49v19.59H627.15V339.73Z" transform="translate(-156.41 -297.43)"/><path class="cls-2" d="M699,339.73h22.67V371h31.5V339.73h22.67v85.42H753.19V391.72h-31.5v33.42H699V339.73Z" transform="translate(-156.41 -297.43)"/><path class="cls-2" d="M827.31,427.2a45.64,45.64,0,0,1-17.74-3.39,43.2,43.2,0,0,1-14.09-9.35,42.06,42.06,0,0,1-9.28-14.21,50.27,50.27,0,0,1,0-36,41.63,41.63,0,0,1,23.37-23.5,46.4,46.4,0,0,1,17.74-3.33,46.89,46.89,0,0,1,17.8,3.33A41.63,41.63,0,0,1,859.19,350a42.64,42.64,0,0,1,9.22,14.22,50.3,50.3,0,0,1,0,36,41.64,41.64,0,0,1-23.31,23.56A46.12,46.12,0,0,1,827.31,427.2Zm0-21.26a20.48,20.48,0,0,0,8.9-1.86,19.31,19.31,0,0,0,6.6-5.06,22.25,22.25,0,0,0,4.1-7.56,30.91,30.91,0,0,0,0-18.44,22.32,22.32,0,0,0-4.1-7.56,19.37,19.37,0,0,0-6.6-5.06,22.25,22.25,0,0,0-17.8,0,19.35,19.35,0,0,0-6.6,5.06,22.25,22.25,0,0,0-4.1,7.56,30.87,30.87,0,0,0,0,18.44,22.18,22.18,0,0,0,4.1,7.56,19.29,19.29,0,0,0,6.6,5.06A20.48,20.48,0,0,0,827.31,405.94Z" transform="translate(-156.41 -297.43)"/><path class="cls-2" d="M879.71,339.73h22.67V389.8q0,7,3.26,11.53t10.82,4.48q7.55,0,10.76-4.55a19.43,19.43,0,0,0,3.2-11.46V339.73h22.92v52.12a38.86,38.86,0,0,1-2.69,14.79A31.3,31.3,0,0,1,943,417.85a33.54,33.54,0,0,1-11.65,7,43.18,43.18,0,0,1-14.79,2.43,43.73,43.73,0,0,1-14.85-2.43,33.9,33.9,0,0,1-11.72-7,30.65,30.65,0,0,1-7.62-11.14,39.22,39.22,0,0,1-2.69-14.92V339.73Z" transform="translate(-156.41 -297.43)"/><path class="cls-2" d="M963.9,339.73h35.35a40.68,40.68,0,0,1,12.49,1.79,26.36,26.36,0,0,1,9.54,5.31,23.67,23.67,0,0,1,6.15,8.77,31.58,31.58,0,0,1,2.18,12.17,28,28,0,0,1-3.71,14.66,28.49,28.49,0,0,1-9.86,9.93l18.31,32.78H1010l-14.47-29.07h-9.48v29.07H963.9V339.73Zm33.17,38.55a10,10,0,0,0,7.3-2.75,9.83,9.83,0,0,0,2.82-7.36,10.67,10.67,0,0,0-2.69-7.68q-2.69-2.82-7.56-2.82H986.06v20.62h11Z" transform="translate(-156.41 -297.43)"/></svg>
