<?xml version="1.0" standalone="no"?>
<!DOCTYPE svg PUBLIC "-//W3C//DTD SVG 20010904//EN"
 "http://www.w3.org/TR/2001/REC-SVG-20010904/DTD/svg10.dtd">
<svg version="1.0" xmlns="http://www.w3.org/2000/svg"
 width="500.000000pt" height="500.000000pt" viewBox="0 0 500.000000 500.000000"
 preserveAspectRatio="xMidYMid meet">
<metadata>
Created by potrace 1.15, written by Peter Selinger 2001-2017
</metadata>
<g transform="translate(0.000000,500.000000) scale(0.100000,-0.100000)"
fill="#000000" stroke="none">
<path d="M0 2500 l0 -2500 2500 0 2500 0 0 2500 0 2500 -2500 0 -2500 0 0
-2500z m4200 688 l0 -1083 -462 -462 -463 -463 -350 0 -350 0 -230 -230 -230
-230 -232 0 -233 0 0 230 0 230 -425 0 -425 0 0 1240 0 1240 104 277 c57 153
109 290 115 306 l11 27 1585 0 1585 0 0 -1082z"/>
<path d="M1340 2845 l0 -1115 348 -2 347 -3 5 -228 5 -227 230 230 230 230
425 0 425 0 268 268 267 267 0 848 0 847 -1275 0 -1275 0 0 -1115z m1160 40
l0 -465 -155 0 -155 0 0 465 0 465 155 0 155 0 0 -465z m850 0 l0 -465 -155 0
-155 0 0 465 0 465 155 0 155 0 0 -465z"/>
</g>
</svg>
