<?xml version="1.0" standalone="no"?>
<svg
width="200" height="200"
viewBox="0 0 200 200"
version="1.1"
xmlns="http://www.w3.org/2000/svg"
xmlns:xlink="http://www.w3.org/1999/xlink"
onload="init(evt)"
>
<metadata>
<rdf:RDF
   xmlns:rdf = "http://www.w3.org/1999/02/22-rdf-syntax-ns#"
   xmlns:rdfs = "http://www.w3.org/2000/01/rdf-schema#"
   xmlns:dc = "http://purl.org/dc/elements/1.1/" >
<rdf:Description
 dc:title="12 Hour Analog SVG Clock"
 dc:date="2012-01-29"
 dc:format="image/svg+xml"
 dc:language="en" >
<dc:creator>
<rdf:Bag>
<rdf:li>John Vandervort</rdf:li>
</rdf:Bag>
</dc:creator>
</rdf:Description>
</rdf:RDF>
</metadata> 
<script>
<![CDATA[
var svgDocument;
var hourHand;
var minuteHand;
var secondHand;
function init(evt){
  var O = evt.target;
  svgDocument = O.ownerDocument;
  secondHand = svgDocument.getElementById("secondHand");
  minuteHand = svgDocument.getElementById("minuteHand");
  hourHand = svgDocument.getElementById("hourHand");
}

function animate() {
  var now = new Date();
  var milli = now.getMilliseconds() / 1000;
  var sec = now.getSeconds();
  var min = now.getMinutes();
  var hr = now.getHours();

  var hourDeg = ((hr + min/60) *30);
  var minDeg = ((min + sec/60) *6);
  var secDeg = ((sec + milli)  *6);

  // Rotate hands to the proper angles.
  secondHand.setAttribute("transform", "rotate(" + secDeg + ", 100,100)");
  minuteHand.setAttribute("transform", "rotate(" + minDeg + ", 100,100)");
  hourHand.setAttribute("transform", "rotate(" + hourDeg + ", 100,100)");

  // Make visible only after they have been rotated.
  secondHand.setAttribute("visibility", "visible");
  minuteHand.setAttribute("visibility", "visible");
  hourHand.setAttribute("visibility", "visible");

  //window.setTimeout(function(){animate();},500);
}
//]]>
</script>
<defs>
  <radialGradient id="gradient_3D" cx="20%" cy="20%" r="100%" fx="100%" fy="30%">
    <stop stop-color="white" offset="0"/>
    <stop stop-color="#666" offset="50%"/>
    <stop stop-color="black" offset="100%"/>
  </radialGradient>
</defs>
<circle cx="100" cy="100" r="100" fill="url(#gradient_3D)"/>
<circle cx="100" cy="100" r="91" fill="#000000"/>
<g font-family="Verdana" font-size="14" fill="#D3D3D3">
  <text x="92" y="25" >12</text>
  <text x="95" y="25" transform="rotate(30, 100,100)">1</text>
  <text x="95" y="25" transform="rotate(60, 100,100)">2</text>
  <text x="95" y="25" transform="rotate(90, 100,100)">3</text>
  <text x="95" y="25" transform="rotate(120, 100,100)">4</text>
  <text x="95" y="25" transform="rotate(150, 100,100)">5</text>
  <text x="95" y="25" transform="rotate(180, 100,100)">6</text>
  <text x="95" y="25" transform="rotate(210, 100,100)">7</text>
  <text x="95" y="25" transform="rotate(240, 100,100)">8</text>
  <text x="95" y="25" transform="rotate(270, 100,100)">9</text>
  <text x="92" y="25" transform="rotate(300, 100,100)">10</text>
  <text x="92" y="25" transform="rotate(330, 100,100)">11</text>
</g>
<g id="hourHand" visibility="hidden">
  <path d="M 100 60 L 106 70 L 102 100 L 98 100 L 94 70 z" fill="#D3D3D3" stroke="#595959" stroke-width="1" />
  <line x1="100" y1="100" x2="100" y2="60" style="stroke:#595959;stroke-width:1"/>
  <circle cx="100" cy="85" r="2" fill="#D3D3D3" stroke="#595959" stroke-width="1"/>
</g>
<g id="minuteHand" visibility="hidden">
  <path d="M 100 20 L 104 35 L 102 100 L 98 100 L 96 35 z" fill="#D3D3D3" stroke="#595959" stroke-width="1" />
  <line x1="100" y1="100" x2="100" y2="20" style="stroke:#595959;stroke-width:1"/>
</g>
<g id="secondHand" visibility="hidden">
  <path d="M 98 13 L 100 10 L 102 13 L 102 115 L 98 115 z" fill="#D3D3D3" stroke="#595959" stroke-width="1" />
  <circle cx="100" cy="115" r="2" fill="#D3D3D3" stroke="#595959" stroke-width="1"/>
</g>
<g id="axel">
  <circle cx="100" cy="100" r="4" fill="#D3D3D3" stroke="#595959" stroke-width="1"/>
  <circle cx="100" cy="100" r="1" fill="#D3D3D3" stroke="#595959" stroke-width="1"/>
</g>

</svg>