<svg
   xmlns:dc="http://purl.org/dc/elements/1.1/"
   xmlns:cc="http://creativecommons.org/ns#"
   xmlns:rdf="http://www.w3.org/1999/02/22-rdf-syntax-ns#"
   xmlns:svg="http://www.w3.org/2000/svg"
   xmlns:sodipodi="http://sodipodi.sourceforge.net/DTD/sodipodi-0.dtd"
   xmlns:inkscape="http://www.inkscape.org/namespaces/inkscape"
   xmlns="http://www.w3.org/2000/svg"
   version="1.1"
   id="Layer_1"
   x="0px"
   y="0px"
   width="625"
   height="440"
   viewBox="0 0 625 440"
   enable-background="new 0 0 700 440"
   xml:space="preserve"
   sodipodi:docname="usa_oa.svg"
   inkscape:version="0.92.2 5c3e80d, 2017-08-06"><metadata
     id="metadata266"><rdf:RDF><cc:Work
         rdf:about=""><dc:format>image/svg+xml</dc:format><dc:type
           rdf:resource="http://purl.org/dc/dcmitype/StillImage" /><dc:title></dc:title></cc:Work></rdf:RDF></metadata><defs
     id="defs264" /><sodipodi:namedview
     pagecolor="#ffffff"
     bordercolor="#666666"
     borderopacity="1"
     objecttolerance="10"
     gridtolerance="10"
     guidetolerance="10"
     inkscape:pageopacity="0"
     inkscape:pageshadow="2"
     inkscape:window-width="1440"
     inkscape:window-height="855"
     id="namedview262"
     showgrid="false"
     inkscape:zoom="1"
     inkscape:cx="350"
     inkscape:cy="220"
     inkscape:window-x="0"
     inkscape:window-y="1"
     inkscape:window-maximized="1"
     inkscape:current-layer="Layer_1"
     inkscape:snap-text-baseline="true" /><path
     id="AK"
     inkscape:connector-curvature="0"
     d="m 124.436,16.47 -0.259,68.473 1.297,0.777 2.464,0.13 1.167,-0.907 h 2.075 l 0.129,2.334 5.577,5.446 0.389,2.074 2.723,-1.556 0.519,-0.13 0.26,-2.463 1.167,-1.297 0.908,-0.13 1.557,-1.167 2.463,1.686 0.519,2.334 1.556,0.909 0.908,1.944 3.112,1.427 2.724,4.797 2.205,3.113 1.815,2.204 1.167,2.982 4.021,1.427 4.148,1.686 0.779,3.502 0.389,2.463 -0.777,2.723 -1.427,1.816 -1.296,-0.648 -1.167,-2.463 -2.205,-1.167 -1.427,-0.909 -0.648,0.648 1.167,2.205 0.13,2.983 -0.908,0.389 -1.557,-1.556 -1.686,-1.037 0.389,1.297 1.038,1.426 -0.649,0.648 c 0,0 -0.648,-0.26 -1.038,-0.779 -0.39,-0.519 -1.686,-2.723 -1.686,-2.723 l -0.778,-1.816 c 0,0 -0.259,1.039 -0.778,0.779 -0.519,-0.26 -1.037,-1.167 -1.037,-1.167 l 1.426,-1.556 -1.167,-1.167 v -4.021 h -0.648 l -0.648,2.723 -0.908,0.39 -0.778,-2.983 -0.519,-2.983 -0.648,-0.389 0.259,4.539 v 0.907 l -1.167,-1.037 -2.853,-4.799 -1.686,-0.388 -0.519,-2.983 -1.297,-2.333 -1.297,-0.909 v -1.816 l 1.686,-1.037 -0.389,-0.258 -2.075,0.519 -2.723,-1.946 -2.075,-2.334 -3.89,-2.074 -3.242,-2.074 1.038,-2.595 v -1.296 l -1.426,1.296 -2.335,0.909 -2.982,-0.909 -4.539,-1.944 h -4.409 l -0.519,0.389 -5.188,-3.113 -1.686,-0.259 -2.205,-4.669 -2.853,0.26 -2.853,1.167 0.389,3.63 0.908,-2.334 0.778,0.26 -1.167,3.501 2.594,-2.204 0.519,1.295 -3.113,3.502 -1.037,-0.259 -0.389,-1.557 -1.038,-0.647 -1.038,0.907 -2.205,-1.427 -2.464,1.686 -1.426,1.686 -2.723,1.688 L 83.586,90 83.197,88.314 86.179,87.795 v -1.039 l -1.815,-0.519 0.778,-1.944 1.816,-3.113 v -1.426 l 0.13,-0.648 3.501,-1.816 0.778,1.037 h 2.205 l -1.038,-2.075 -2.982,-0.258 -4.02,2.205 -1.946,2.723 -1.426,2.075 -0.908,1.816 -3.372,1.167 -2.464,2.075 -0.259,1.297 1.815,0.778 0.649,1.686 -2.205,2.593 -5.187,3.372 -6.225,3.372 -1.686,0.907 -4.28,0.909 -4.28,1.816 1.427,1.037 -1.167,1.167 -0.389,0.907 -2.205,-0.778 -2.594,0.13 -0.648,1.816 h -0.778 l 0.26,-1.946 -2.853,1.039 -2.334,0.777 -2.723,-1.038 -2.334,1.556 h -2.594 l -1.686,1.037 -1.297,0.648 -1.686,-0.258 -2.075,-0.909 -1.815,0.519 -0.778,0.779 -1.297,-0.907 v -1.558 l 2.464,-1.037 5.058,0.519 3.502,-1.295 1.686,-1.686 2.334,-0.519 1.427,-0.649 2.205,0.13 1.296,1.037 0.778,-0.26 1.815,-2.204 2.464,-0.779 2.723,-0.519 1.038,-0.259 0.519,0.389 h 0.649 l 1.037,-2.983 3.242,-1.167 1.556,-2.981 1.816,-3.632 1.296,-1.167 0.26,-2.074 -1.297,1.037 -2.724,0.519 -0.519,-1.944 -1.038,-0.26 -0.778,0.778 -0.129,2.334 L 55.705,90 54.538,85.331 53.5,86.368 52.593,85.979 52.334,84.423 49.091,84.551 47.405,85.46 45.33,85.2 l 1.167,-1.167 0.389,-2.074 -0.519,-1.556 1.167,-0.778 1.037,-0.13 -0.519,-1.426 v -3.501 l -0.778,-0.779 -0.648,1.167 h -4.928 l -1.167,-1.038 -0.519,-3.111 -1.686,-2.853 v -0.779 l 1.686,-0.649 0.13,-1.686 0.908,-0.907 -0.648,-0.389 -1.038,0.389 -0.908,-2.205 0.778,-4.02 3.632,-2.595 2.075,-1.296 1.556,-2.983 2.205,-1.038 2.075,0.907 0.259,1.946 1.945,-0.26 2.594,-1.944 1.297,0.519 0.778,0.519 h 1.297 l 1.815,-1.037 0.648,-3.502 c 0,0 0.259,-2.334 0.778,-2.723 0.519,-0.39 0.778,-0.779 0.778,-0.779 l -0.907,-1.556 -2.075,0.648 -2.594,0.648 -1.556,-0.39 -2.853,-1.425 -4.02,-0.13 -2.853,-2.983 0.389,-3.112 0.519,-1.946 -1.686,-1.426 -1.556,-2.983 0.389,-0.648 5.447,-0.389 h 1.686 l 0.778,0.779 h 0.519 l -0.13,-1.297 3.112,-0.519 2.075,0.258 1.167,0.909 -1.167,1.686 -0.389,1.167 2.205,1.295 4.02,1.427 1.427,-0.778 -1.816,-3.502 -0.778,-2.593 0.778,-0.649 -2.723,-1.556 -0.389,-0.909 0.389,-1.296 -0.648,-3.113 -2.334,-3.76 -1.945,-3.372 2.334,-1.556 h 2.594 l 1.427,0.519 3.372,-0.13 2.983,-2.854 0.907,-2.464 2.983,-1.944 1.297,0.777 L 75.549,3.756 78.531,2.07 79.439,1.942 80.217,2.589 83.848,2.461 86.05,0 h 0.908 l 2.853,1.946 1.556,1.686 -0.389,0.907 0.519,0.907 1.297,-1.295 3.113,0.258 0.259,2.983 1.556,1.167 5.706,0.519 5.058,3.372 1.167,-0.778 4.15,2.076 1.686,-0.519 1.556,-0.649 3.891,1.556 z m -92.334,23.213 1.686,4.279 -0.13,0.779 -2.334,-0.26 -1.426,-3.242 -1.427,-1.167 h -1.945 l -0.13,-2.075 1.427,-1.946 0.907,1.946 1.167,1.167 z m -2.075,26.843 2.983,0.649 2.983,0.779 0.648,0.777 -1.296,2.983 -2.464,-0.13 -2.724,-2.853 z m -16.599,-11.282 0.908,2.076 0.908,1.295 -0.908,0.649 -1.687,-2.464 v -1.556 z m -11.023,58.618 2.723,-1.816 2.723,-0.778 2.075,0.26 0.389,1.296 1.556,0.39 1.556,-1.558 -0.259,-1.295 2.205,-0.519 2.334,2.074 -0.908,1.426 -3.501,0.909 -2.205,-0.389 -2.983,-0.909 -3.501,1.167 -1.297,0.26 -0.908,-0.521 v 0.003 z m 39.294,-3.632 1.296,1.556 1.687,-1.297 -1.167,-1.037 z m 2.334,2.465 0.908,-1.816 1.686,0.258 -0.648,1.558 z m 18.933,-1.558 1.167,1.427 0.778,-0.909 -0.648,-1.556 z m 7.004,-9.985 0.907,4.669 2.335,0.648 4.02,-2.334 3.501,-2.076 -1.296,-1.944 0.389,-1.946 -1.686,1.038 -2.334,-0.647 1.297,-0.909 1.556,0.649 3.112,-1.426 0.389,-1.167 -1.945,-0.648 0.648,-1.556 -2.205,1.556 -3.761,2.853 -3.891,2.334 z m 33.976,-15.951 1.945,-1.167 -0.778,-1.426 -1.427,0.777 z"
     style="fill:#aaaaaa;stroke:#ffffff;stroke-width:1.25" /><text
     font-size="16.846"
     id="AK_Text"
     style="font-size:16.84600067px;font-family:TrebuchetMS;fill:#ffffff"
     x="79.9067"
     y="52.921902">AK</text>
<path
     id="HI"
     inkscape:connector-curvature="0"
     d="m 4,357.049 2.05,-3.757 2.391,-0.342 0.341,0.854 -2.22,3.245 z m 10.76,-3.927 6.491,2.731 2.22,-0.342 1.708,-4.099 -0.684,-3.587 -4.441,-0.512 -4.27,1.879 z m 32.451,10.588 3.928,5.807 2.562,-0.341 1.196,-0.512 1.537,1.366 3.929,-0.172 1.024,-1.537 -3.074,-1.878 -2.049,-3.928 -2.221,-3.759 -6.148,3.074 z m 21.35,9.394 1.367,-2.05 4.953,1.025 0.683,-0.512 6.49,0.683 -0.341,1.367 -2.733,1.536 -4.611,-0.342 z m 5.636,5.465 2.05,4.098 3.245,-1.193 0.341,-1.708 -1.708,-2.221 -3.928,-0.343 z m 7.345,-1.195 2.391,-3.075 4.953,2.563 4.612,1.196 4.611,2.903 v 2.05 l -3.757,1.878 -5.125,1.025 -2.562,-1.538 z m 17.591,16.396 1.708,-1.365 3.586,1.708 8.028,3.758 3.587,2.22 1.708,2.561 2.049,4.613 4.27,2.731 -0.342,1.367 -4.099,3.417 -4.441,1.535 -1.538,-0.683 -3.245,1.879 -2.562,3.415 -2.389,3.074 -1.879,-0.171 -3.757,-2.731 -0.342,-4.783 0.684,-2.562 -1.708,-5.978 -2.22,-1.878 -0.171,-2.734 2.391,-1.024 2.22,-3.245 0.513,-1.023 -1.708,-1.88 z"
     style="fill:#aaaaaa;stroke:#ffffff;stroke-width:1.25" /><text
     font-size="14.3366"
     id="HI_Text"
     style="font-size:14.3366003px;font-family:TrebuchetMS;fill:#ffffff"
     x="101.5654"
     y="412.8887">HI</text>
<path
     id="FL"
     inkscape:connector-curvature="0"
     sodipodi:nodetypes="cccccccccccccccccccccccccccccccccccccccccccccccccccccccccccccccccccccccccccccccccccccccccccccccccccccccccccccccccccccccccccccccccccccccccccccc"
     d="m 454.614,355.543 1.244,4.02 2.049,5.352 2.931,5.149 2.042,3.463 2.663,3.019 2.22,2.043 0.889,1.598 -0.621,0.711 -0.444,0.71 1.598,4.084 1.599,1.599 1.421,2.931 1.953,3.196 2.486,4.528 0.711,4.173 0.266,6.571 0.355,0.977 -0.178,1.865 -1.332,0.71 0.178,1.065 -0.355,1.065 0.178,1.332 0.267,1.065 -1.51,1.775 -1.687,0.8 -2.131,0.089 -0.799,0.888 -1.332,0.533 -0.711,-0.268 -0.621,-0.532 -0.179,-1.598 -0.443,-1.865 -1.864,-2.841 -1.953,-1.244 -2.132,-0.177 -0.443,0.711 -1.688,-2.397 -0.355,-1.954 -1.42,-2.22 -0.977,-0.622 -0.889,1.155 -0.977,-0.178 -1.154,-2.753 -1.598,-2.131 -1.599,-2.931 -1.421,-1.687 -1.953,-2.043 1.154,-1.331 1.775,-3.02 -0.088,-0.888 -2.486,-0.533 -0.889,0.355 0.178,0.355 1.421,0.533 -0.8,2.485 -0.443,0.267 -0.978,-2.22 -0.71,-2.664 -0.178,-1.509 0.799,-2.575 v -5.239 l -1.687,-2.042 -0.71,-1.687 -2.842,-0.711 -1.064,-0.355 -0.889,-1.421 -1.864,-0.888 -0.622,-1.864 -1.51,-0.533 -1.331,-2.042 -2.31,-0.799 -1.598,-0.8 h -1.421 l -2.22,0.444 -0.089,1.065 0.444,0.533 -0.268,0.621 -1.687,-0.089 -2.042,1.954 -1.953,1.064 h -2.131 l -1.776,0.712 -0.177,-1.511 -0.889,-1.064 -1.598,-0.622 -0.889,-0.8 -4.439,-2.131 -4.174,-0.977 -2.396,0.354 -3.285,0.268 -3.285,1.154 -1.911,0.336 -0.131,-4.421 -1.421,-1.065 -0.977,-0.977 0.178,-1.688 5.594,-0.71 14.029,-1.599 3.729,-0.354 2.985,0.153 1.421,2.131 0.799,0.799 4.448,0.283 5.943,-0.355 11.814,-0.71 2.992,-0.37 2.805,0.112 0.234,1.598 1.227,0.444 0.129,-2.543 -0.84,-2.292 0.719,-0.79 3.051,0.249 z m 6.891,72.724 1.332,-0.355 0.71,-0.133 0.8,-1.287 1.287,-0.888 0.711,0.266 0.932,0.178 0.223,0.577 -1.909,0.666 -2.309,0.799 -1.288,0.666 z m 7.415,-2.753 0.665,0.577 1.51,-1.154 2.931,-2.308 2.042,-2.132 1.376,-3.64 0.533,-0.933 0.089,-1.865 -0.4,0.267 -0.532,1.555 -0.8,2.529 -1.775,2.886 -2.397,2.31 -1.865,1.065 z"
     style="fill:#aaaaaa;stroke:#ffffff;stroke-width:1.25" /><g
     id="g4323"
     transform="translate(-5.75,-6.90625)"><path
       id="MI"
       inkscape:connector-curvature="0"
       sodipodi:nodetypes="cccccccccccsccccccccccccccccccccccccccccccccccccccccccccccccccccccccccccccccccccccccccccccccccccc"
       d="m 426.335,218.597 -1.776,-4.528 -1.243,-4.973 -1.332,-1.776 -1.42,-0.976 -0.889,0.622 -2.131,0.977 -1.065,2.752 -1.509,2.042 -0.622,0.355 -0.799,-0.355 c 0,0 -1.421,-0.799 -1.332,-1.154 0.089,-0.355 0.267,-2.752 0.267,-2.752 l 1.864,-0.71 0.443,-1.864 0.356,-1.421 1.331,-0.888 -0.177,-5.505 -0.889,-1.244 -0.711,-0.444 -0.443,-1.155 0.443,-0.443 0.889,0.177 0.088,-0.888 -1.331,-1.242 -0.71,-1.421 h -1.421 l -2.486,-0.799 -3.019,-1.864 h -1.51 l -0.355,0.355 -0.533,-0.266 -1.688,-1.243 -1.598,0.977 -1.598,1.242 0.178,1.954 0.532,0.179 1.154,0.266 0.267,0.444 -1.421,0.444 -1.42,0.178 -0.8,0.977 -0.178,1.155 0.178,0.888 0.178,3.019 -1.953,1.155 -0.355,-0.089 v -2.308 l 0.71,-1.332 0.355,-1.332 -0.444,-0.445 -1.064,0.445 -0.533,2.308 -1.51,0.621 -0.977,1.066 -0.09,0.533 0.355,0.444 -0.355,1.421 -1.242,0.266 v 0.622 l 0.443,1.332 -0.621,3.375 -0.888,2.219 0.355,2.575 0.267,0.622 -0.444,1.331 -0.178,0.444 -0.178,1.509 1.954,3.286 1.598,3.552 0.799,2.664 -0.443,2.574 -0.533,3.285 -1.331,2.842 -0.179,1.509 -1.789,1.695 2.422,-0.089 11.764,-1.243 3.997,-0.542 0.054,0.915 3.763,-0.666 5.656,-0.825 2.116,-0.254 0.076,-0.322 0.089,-0.799 1.155,-2.043 1.098,-0.955 -0.121,-2.773 0.877,-0.878 0.599,-0.188 0.122,-1.954 0.844,-1.665 0.577,0.333 0.089,0.355 0.443,0.089 1.066,-0.533 z"
       style="fill:#aaaaaa;stroke:#ffffff;stroke-width:1.25" /><path
       id="SP-"
       inkscape:label="#SP-"
       inkscape:connector-curvature="0"
       sodipodi:nodetypes="ccccccccccccccsccccccccccccccccccccccccccccccccccccccccccccccccccccccccccccccccccccccccccccccccccccccccccccccc"
       d="m 362.489,166.32 1.005,-1.131 1.192,-0.439 2.951,-2.135 1.255,-0.314 0.252,0.251 -2.826,2.826 -1.82,1.068 -1.13,0.501 z m 47.332,17.646 0.354,1.376 1.776,0.089 0.709,-0.667 c 0,0 -0.044,-0.799 -0.221,-0.888 -0.178,-0.088 -0.889,-1.021 -0.889,-1.021 l -1.198,0.133 -0.889,0.088 -0.178,0.622 z m -55.092,-1.633 0.394,-0.319 1.51,-0.444 1.953,-1.243 v -0.533 l 0.355,-0.355 3.285,-0.533 1.332,-1.066 2.396,-1.154 0.09,-0.71 1.064,-1.599 0.977,-0.443 0.711,-0.977 1.243,-1.243 2.397,-1.332 2.575,-0.266 0.621,0.622 -0.177,0.532 -2.043,0.534 -0.799,1.687 -1.244,0.444 -0.266,1.332 -1.332,1.776 -0.178,1.42 0.444,0.266 0.533,-0.622 1.953,-1.598 0.71,0.71 h 1.244 l 1.775,0.533 0.799,0.622 0.799,1.687 1.51,1.509 2.131,-0.088 0.8,-0.533 0.888,0.71 0.889,0.267 0.709,-0.444 h 0.622 l 0.888,-0.533 2.22,-1.954 1.865,-0.621 3.641,-0.177 2.485,-1.066 1.421,-0.71 0.8,0.089 v 3.108 l 0.267,0.177 1.598,0.444 1.065,-0.266 3.374,-0.888 0.621,-0.622 0.8,0.266 v 3.818 l 1.776,1.688 0.709,0.355 0.711,0.532 -0.711,0.178 -0.443,-0.178 -2.042,-0.267 -1.154,0.355 -1.243,-0.089 -1.775,0.799 h -0.978 l -3.196,-0.71 -2.841,0.089 -1.066,1.42 -3.817,0.355 -1.332,0.443 -0.622,1.688 -0.71,0.622 -0.267,-0.088 -0.799,-0.888 -2.486,1.331 h -0.355 l -0.621,-0.888 -0.444,0.089 -1.065,2.397 -0.533,2.22 -1.746,3.845 -0.646,-0.568 -0.754,-0.566 -1.066,-5.65 -1.945,-0.753 -1.129,-1.255 -6.656,-1.507 -1.568,-0.565 -4.521,-1.193 -4.334,-0.628 z"
       style="fill:#aaaaaa;stroke:#ffffff;stroke-width:1.25" /></g><path
     id="ME"
     inkscape:connector-curvature="0"
     sodipodi:nodetypes="ccccccccsccccccccccccccccccccccccccccccccccccccccccccccccccccccccccccccccccccccccccccccccsccccc"
     d="m 544.155,157.641 1.065,1.154 1.243,2.042 v 1.066 l -1.154,2.574 -1.064,0.355 -1.865,1.688 -2.664,3.019 c 0,0 -0.355,0 -0.71,0 -0.356,0 -0.533,-1.154 -0.533,-1.154 l -0.977,0.089 -0.533,0.799 -1.331,0.799 -0.533,0.798 0.888,0.799 -0.266,0.355 -0.267,1.51 -1.066,-0.089 v -0.888 l -0.178,-0.71 -0.799,0.178 -0.977,-1.776 -1.153,0.711 0.71,0.798 0.178,0.623 -0.445,0.71 0.178,1.687 0.09,0.888 -0.888,1.421 -1.599,0.267 -0.178,1.599 -2.931,1.686 -0.71,0.267 -0.888,-0.799 -1.688,1.953 0.533,1.776 -0.799,0.71 -0.089,2.398 -0.618,3.438 -1.352,-0.635 -0.267,-1.688 -2.131,-0.621 -0.178,-1.509 -3.995,-12.875 -2.581,-8.041 0.78,-0.065 0.831,0.226 v -1.421 l 0.719,-2.47 1.421,-2.575 0.799,-2.219 -1.065,-1.333 v -3.285 l 0.444,-0.533 0.443,-1.509 -0.088,-0.799 -0.09,-2.664 0.978,-2.664 1.598,-4.884 1.154,-2.309 h 0.71 l 0.711,0.088 v 0.623 l 0.71,1.243 1.51,0.355 0.444,-0.444 v -0.533 l 2.22,-1.598 0.977,-0.977 0.799,0.089 3.285,1.332 1.066,0.534 4.972,16.426 h 3.285 l 0.444,1.065 0.089,2.664 1.599,1.243 h 0.443 l 0.089,-0.266 -0.266,-0.622 z m -11.497,16.558 0.844,-0.844 0.755,0.577 0.311,1.332 -0.932,0.488 z m 3.686,-3.241 0.977,1.021 c 0,0 0.711,0.044 0.711,-0.133 0,-0.178 0.133,-1.11 0.133,-1.11 l 0.488,-0.444 -0.444,-0.977 -1.109,0.4 z"
     style="fill:#aaaaaa;stroke:#ffffff;stroke-width:1.25" /><path
     id="NY"
     inkscape:connector-curvature="0"
     d="m 493.371,218.012 -0.621,-0.533 -1.421,-0.089 -1.243,-1.065 -0.896,-3.366 -1.9,0.05 -1.342,-1.488 -10.647,2.407 -23.618,4.795 -4.137,0.675 -0.405,-3.554 0.784,-0.617 0.711,-0.622 0.533,-0.888 0.977,-0.621 1.064,-0.978 0.268,-0.888 1.154,-1.509 0.621,-0.533 -0.088,-0.533 -0.711,-1.687 -0.977,-0.089 -1.066,-3.374 1.6,-0.977 2.396,-0.799 2.22,-0.71 1.775,-0.267 3.464,-0.089 1.065,0.711 0.888,0.088 1.154,-0.71 1.421,-0.622 2.841,-0.266 1.154,-0.977 0.977,-1.776 0.889,-1.065 h 1.154 l 1.065,-0.622 0.089,-1.243 -0.799,-1.155 -0.178,-0.798 0.621,-1.155 v -0.799 h -0.977 l -0.977,-0.444 -0.444,-0.622 -0.089,-1.421 3.196,-3.019 0.355,-0.444 0.8,-1.598 1.598,-2.485 1.51,-2.043 1.154,-1.332 1.326,-1.002 1.692,-0.685 3.02,-0.711 1.775,0.089 2.486,-0.799 4.155,-1.138 0.286,2.735 1.331,3.552 0.444,2.841 -0.533,2.131 1.421,2.486 0.443,1.155 -0.443,1.598 1.599,0.71 0.354,0.178 1.688,6.038 -0.295,2.779 -0.267,5.949 0.444,3.02 0.443,1.953 0.8,3.996 v 4.439 l -0.621,1.242 1.01,1.096 0.438,0.922 -1.065,0.976 0.178,0.711 0.711,-0.178 0.799,-0.71 1.242,-1.421 0.622,-0.355 0.888,0.355 1.243,0.089 4.351,-2.131 1.599,-1.51 0.71,-0.799 2.309,0.888 -1.864,1.953 -2.132,1.599 -3.906,2.931 -1.42,0.532 -3.197,1.065 -2.22,0.621 -0.645,-0.293 -0.135,-2.025 0.267,-1.51 -0.089,-1.153 -1.546,-0.934 -2.486,-0.533 -2.13,-0.621 z"
     style="fill:#aaaaaa;stroke:#ffffff;stroke-width:1.25" /><path
     id="PA"
     inkscape:connector-curvature="0"
     sodipodi:nodetypes="cccccccccccccccccccccccccccccccccccccccccccc"
     d="m 490.484,237.756 0.719,-0.149 1.279,-0.688 0.666,-1.363 0.888,-1.244 1.775,-1.687 v -0.444 l -1.331,-0.888 -1.954,-1.332 -0.532,-1.421 -1.51,-0.177 -0.089,-0.622 -0.443,-1.51 1.242,-0.621 0.09,-1.332 -0.711,-0.711 0.089,-0.888 1.065,-1.687 v -1.688 l 1.481,-1.453 -0.505,-0.37 -1.387,-0.106 -1.261,-1.064 -0.851,-3.359 -1.925,0.055 -1.349,-1.484 -9.937,2.305 -23.619,4.795 -4.884,0.799 -0.341,-3.582 -2.944,2.783 -0.711,0.268 -2.309,1.652 1.6,10.512 1.362,5.343 1.962,10.58 1.796,-0.351 6.56,-0.825 20.831,-4.21 8.172,-1.551 4.559,-0.891 0.147,-0.131 1.153,-0.888 z"
     style="fill:#aaaaaa;stroke:#ffffff;stroke-width:1.25" /><path
     id="VA"
     inkscape:connector-curvature="0"
     sodipodi:nodetypes="ccccccccccccccccccccccccccccccccccccccccccccccccccccccccccccccccccccccccccccccccccc"
     d="m 494.063,260.481 -0.078,-1.069 3.544,-1.4 -0.423,1.768 -1.604,2.075 -0.229,2.52 0.254,1.862 -1.005,2.733 -1.188,1.053 -0.808,-2.549 0.244,-2.993 0.872,-2.297 z m 1.835,15.544 -31.953,6.907 -20.557,2.9 -3.669,-0.207 -1.419,1.059 -4.032,0.121 -4.604,0.537 -5.994,0.887 5.75,-3.082 -0.008,-1.14 0.836,-1.179 5.796,-6.317 2.168,2.46 2.078,0.529 1.396,-0.626 1.229,-0.721 1.393,0.738 2.15,-0.784 1.03,-2.503 1.429,0.297 1.568,-1.171 0.988,0.271 1.553,-2.02 0.191,-1.145 -0.529,-0.7 0.551,-1.025 2.897,-6.743 0.339,-3.15 0.674,-0.287 1.197,1.342 2.161,-0.165 1.06,-4.16 1.535,-0.308 0.576,-1.507 1.417,-1.288 1.522,-3.128 0.047,-2.784 5.395,2.101 c 0.374,0.187 0.457,-2.773 0.457,-2.773 l 2.007,0.877 0.037,1.614 3.177,0.714 1.172,0.646 0.911,1.13 -0.359,2.004 -1.069,1.424 0.061,1.13 0.323,1.018 2.735,0.697 2.444,0.021 1.686,0.526 1.067,0.171 0.393,1.695 1.753,0.222 0.476,0.658 -0.241,2.577 0.755,0.605 -0.262,1.061 0.675,0.434 -0.122,0.76 -1.479,-0.052 0.049,0.888 1.253,0.847 0.066,0.775 0.974,0.98 0.271,1.387 -1.402,0.759 0.863,0.821 3.187,-0.926 z"
     style="fill:#aaaaaa;stroke:#ffffff;stroke-width:1.25" /><path
     id="WV"
     inkscape:connector-curvature="0"
     sodipodi:nodetypes="ccccccccccccccccccccccccccccccccccccccccscccccccccccccccccccccccccccccccccccccccccc"
     d="m 455.366,245.597 0.611,2.715 0.595,3.313 1.17,-1.417 1.243,-1.688 1.394,-0.338 0.8,-0.799 0.977,-1.421 0.794,0.355 1.599,-0.178 1.42,-1.153 1.103,-0.799 1.014,-0.267 0.716,0.559 2.001,1 1.065,0.978 0.755,0.71 -0.418,3.051 -3.205,-1.396 -2.332,-0.89 -0.055,2.844 -1.51,3.041 -1.39,1.332 -0.654,1.511 -1.452,0.275 -0.494,1.978 -0.572,2.17 -2.18,0.188 -1.276,-1.341 -0.588,0.309 -0.348,3.004 -0.741,1.941 -2.724,6.017 0.492,0.638 -0.113,1.048 -1.543,2.134 -0.992,-0.3 -1.631,1.188 -1.396,-0.314 -1.098,2.502 c 0,0 -1.791,0.785 -2.155,0.751 -0.088,-0.008 -1.356,-0.686 -1.356,-0.686 l -1.283,0.757 -1.322,0.574 -2.057,-0.488 -0.617,-0.643 -1.204,-1.66 -1.726,-1.092 -0.939,-1.989 -2.354,-1.905 -0.354,-1.243 -1.422,-0.799 -0.443,-0.888 -0.133,-2.886 1.199,-0.045 1.064,-0.444 0.089,-1.509 0.888,-0.8 0.089,-2.752 0.533,-2.132 0.71,-0.354 0.711,0.621 0.267,0.978 0.976,-0.534 0.267,-0.888 -0.621,-0.976 v -1.333 l 0.532,-0.71 1.244,-1.865 0.71,-0.799 1.155,0.267 1.242,-0.888 1.687,-1.864 1.243,-2.132 0.178,-3.107 0.267,-2.753 v -2.574 l -0.622,-1.688 0.533,-0.799 0.705,-0.711 1.918,10.891 2.543,-0.413 z"
     style="fill:#aaaaaa;stroke:#ffffff;stroke-width:1.25" /><path
     id="OH"
     inkscape:connector-curvature="0"
     sodipodi:nodetypes="cccccccccccccccccccccccccccccccccccccccccccccccccccccccccccccccc"
     d="m 441.163,220.528 -3.348,2.227 -2.131,1.243 -1.865,2.042 -2.22,2.131 -1.776,0.444 -1.598,0.267 -3.02,1.421 -1.153,0.088 -1.864,-1.687 -2.842,0.354 -1.42,-0.799 -1.309,-0.742 -2.688,0.387 -5.594,0.889 -6.155,1.199 0.71,8.036 0.977,7.548 1.422,12.873 0.311,2.655 2.264,-0.071 1.332,-0.444 1.848,0.825 1.137,2.397 2.822,-0.009 1.04,1.164 0.967,-0.036 1.394,-0.737 1.376,0.204 2.978,0.266 0.949,-1.172 1.288,-0.71 1.138,-0.374 0.354,1.51 0.977,0.532 1.909,1.288 1.199,-0.045 0.732,-0.271 0.102,-1.517 0.869,-0.8 0.056,-2.632 0.562,-2.257 0.715,-0.33 0.725,0.63 0.296,0.933 0.944,-0.57 0.241,-0.802 -0.613,-1.046 0.036,-1.271 0.412,-0.59 1.182,-1.815 0.577,-0.848 1.154,0.266 1.243,-0.888 1.688,-1.864 1.521,-2.24 0.176,-2.776 0.267,-2.753 -0.097,-2.915 -0.524,-1.59 0.192,-0.653 0.991,-0.962 -1.257,-4.969 z"
     style="fill:#aaaaaa;stroke:#ffffff;stroke-width:1.25" /><path
     id="IN"
     inkscape:connector-curvature="0"
     d="m 377.583,279.103 0.036,-1.57 0.267,-2.485 1.243,-1.599 0.977,-2.132 1.42,-2.309 -0.266,-3.196 -0.977,-1.509 -0.178,-1.776 0.443,-3.019 -0.266,-3.817 -0.711,-8.791 -0.71,-8.436 -0.533,-6.438 1.687,0.488 0.799,0.534 0.622,-0.179 1.154,-1.065 1.555,-0.889 2.797,-0.089 12.076,-1.243 3.063,-0.293 0.825,8.765 2.335,20.235 0.329,3.17 -0.204,1.243 0.674,0.986 0.053,0.754 -1.385,0.878 -1.943,0.853 -1.759,0.302 -0.329,2.674 -2.514,1.819 -1.535,2.203 0.178,1.305 -0.318,0.843 h -1.828 l -0.87,-0.888 -1.37,0.693 -1.473,0.825 0.088,1.678 -0.656,0.142 -0.256,-0.559 -1.19,-0.826 -1.785,0.736 -0.853,1.651 -0.789,-0.443 -0.8,-0.879 -2.451,0.267 -3.072,0.533 z"
     style="fill:#aaaaaa;stroke:#ffffff;stroke-width:1.25" /><path
     id="IL"
     inkscape:connector-curvature="0"
     sodipodi:nodetypes="ccccccccccccccccccccccccccccccccccccccccccccccccccccccccccccccccccccccccccccccccccc"
     d="m 377.567,279.306 0.018,-1.773 0.312,-2.552 1.281,-1.602 1.025,-2.238 1.227,-2.194 -0.204,-2.885 -1.102,-1.946 -0.052,-1.838 0.381,-2.894 -0.453,-3.944 -0.586,-8.667 -0.71,-8.247 -0.507,-6.394 -0.15,-0.506 -0.443,-1.421 -0.711,-2.042 -0.887,-0.977 -0.8,-1.421 -0.128,-3.016 -25.154,1.428 0.125,1.303 1.256,0.377 0.503,0.628 0.251,1.005 2.135,1.883 0.377,1.256 -0.377,1.884 -1.005,2.01 -0.376,1.381 -1.257,1.005 -1.004,0.376 -2.888,0.754 -0.377,1.005 -0.377,1.13 0.377,0.753 1.004,0.88 -0.126,2.26 -1.003,0.879 -0.377,0.879 v 1.507 l -1.006,0.251 -0.878,0.629 -0.126,0.753 0.126,1.13 -0.942,0.723 -0.564,1.538 0.25,2.009 1.257,4.018 4.018,4.145 3.015,2.009 -0.126,2.387 0.502,0.753 3.516,0.251 1.507,0.754 -0.377,2.009 -1.255,3.265 -0.377,1.758 1.256,2.136 3.516,2.888 2.512,0.377 1.13,2.763 1.131,1.758 -0.503,1.633 0.879,2.26 1.005,1.131 0.776,-0.484 0.499,-1.14 1.215,-0.96 1.171,-0.338 1.43,0.648 1.992,0.756 0.653,-0.164 0.109,-1.24 -0.707,-1.325 0.168,-1.305 1.01,-0.74 1.66,-0.445 0.691,-0.251 -0.336,-0.763 -0.436,-1.293 0.787,-0.538 z"
     style="fill:#aaaaaa;stroke:#ffffff;stroke-width:1.25" /><path
     id="WI"
     inkscape:connector-curvature="0"
     sodipodi:nodetypes="ccccccccccccccccccccccccccccccccccccccccccccccccccccccccccccccccccccccccccccccccccccccccc"
     d="m 375.109,222.748 -0.037,-1.734 -0.646,-2.486 -0.355,-3.374 -0.621,-1.332 0.531,-1.688 0.445,-1.598 0.799,-1.421 -0.355,-1.864 -0.355,-1.954 0.267,-0.976 1.065,-1.333 0.089,-1.51 -0.443,-0.71 0.354,-1.42 -0.248,-2.292 1.51,-3.107 1.598,-3.729 0.09,-1.244 -0.178,-0.533 -0.444,0.267 -2.309,3.462 -1.51,2.22 -1.065,0.978 -0.444,1.242 -1.073,0.444 -0.621,1.066 -0.8,-0.178 -0.089,-0.977 0.711,-1.333 1.154,-2.574 0.977,-0.889 0.543,-1.294 -1.406,-1.045 -1.084,-5.694 -1.949,-0.737 -1.068,-1.268 -6.662,-1.495 -1.58,-0.556 -4.51,-1.191 -4.35,-0.636 -2.068,-2.818 -0.412,0.304 -0.658,-0.088 -0.354,-0.622 -0.732,0.163 -0.622,0.089 -0.977,0.534 -0.533,-0.356 0.355,-1.066 1.065,-1.686 0.622,-0.623 -1.066,-0.798 -1.154,0.443 -1.598,1.066 -4.084,1.776 -1.6,0.355 -1.598,-0.266 -0.539,-0.483 -1.163,1.558 -0.125,1.507 v 4.646 l -0.628,0.879 -2.889,2.135 -1.256,3.265 0.252,0.125 1.381,1.13 0.377,1.758 -1.005,1.759 v 2.134 l 0.251,3.642 1.633,1.632 h 1.884 l 1.005,1.758 1.883,0.251 2.135,3.14 3.893,2.26 1.13,1.507 0.503,4.081 0.377,1.822 1.256,0.878 0.125,0.754 -1.131,1.883 0.127,1.758 1.381,2.136 1.381,0.628 1.633,0.251 0.737,0.758 z"
     style="fill:#aaaaaa;stroke:#ffffff;stroke-width:1.25" /><path
     id="NC"
     inkscape:connector-curvature="0"
     sodipodi:nodetypes="cccccccccccccccccccccccccccccccccccccccccccccccccccccccccccscccccccccccccccccccccccccccccccc"
     d="m 495.898,275.996 1.146,2.701 1.953,3.551 1.333,1.332 0.354,1.243 -1.332,0.089 0.444,0.355 -0.178,2.309 -1.421,0.71 -0.354,1.154 -0.711,1.599 -2.042,0.888 -1.332,-0.178 -0.8,-0.088 -0.888,-0.711 0.178,0.711 v 0.532 h 1.065 l 0.444,0.71 -1.065,3.463 h 2.309 l 0.355,0.888 1.242,-1.242 0.711,-0.267 -1.065,1.954 -1.688,2.663 h -0.71 l -0.621,-0.266 -1.51,0.354 -2.842,1.332 -3.552,2.93 -1.864,2.575 -1.065,3.552 -0.267,1.332 -2.574,0.267 -2.995,0.733 -5.465,-4.505 -6.925,-4.174 -1.599,-0.443 -6.926,0.799 -2.35,0.412 -0.887,-1.775 -1.632,-1.163 -9.057,0.267 -3.995,0.444 -4.973,2.485 -3.375,1.421 -11.631,1.421 0.273,-2.227 0.977,-0.8 1.511,-0.354 0.354,-2.043 2.309,-1.51 2.131,-0.799 2.309,-1.953 2.398,-1.154 0.354,-1.687 2.132,-2.132 0.354,-0.089 c 0,0 0,0.623 0.444,0.623 0.443,0 1.065,0.177 1.065,0.177 l 1.243,-1.954 1.154,-0.355 1.242,0.179 0.889,-1.954 1.598,-1.42 0.268,-1.155 0.103,-2.004 2.349,-0.012 3.954,-0.47 8.654,-1.237 8.314,-1.146 11.886,-2.592 10.976,-2.339 6.139,-1.322 z m 2.346,18.238 1.422,-1.376 1.73,-1.421 0.844,-0.354 0.089,-1.11 -0.355,-3.374 -0.799,-1.287 -0.355,-1.021 0.399,-0.133 1.51,3.019 0.223,2.441 -0.09,1.865 -1.864,0.844 -1.554,1.331 -0.622,0.667 z"
     style="fill:#aaaaaa;stroke:#ffffff;stroke-width:1.25" /><path
     id="TN"
     inkscape:connector-curvature="0"
     sodipodi:nodetypes="ccccccccccccccccccccccccccccccsccccccccccccc"
     d="m 419.935,289.145 -28.502,2.752 -8.655,0.978 -2.539,0.281 -2.125,-0.015 -0.121,2.252 -4.496,0.145 -3.817,0.355 -4.444,-0.068 -0.775,3.885 -0.933,3.01 -1.81,1.512 -0.74,2.406 -0.178,1.42 -2.219,1.244 0.799,1.953 -0.533,2.397 -0.531,0.434 59.405,-5.717 0.223,-2.172 0.994,-0.818 1.557,-0.412 0.369,-2.041 2.251,-1.486 2.223,-0.819 2.243,-1.962 2.437,-1.112 0.286,-1.686 2.232,-2.188 0.303,-0.063 c 0,0 0.018,0.622 0.461,0.622 0.444,0 1.066,0.193 1.066,0.193 l 1.242,-1.97 1.138,-0.355 1.249,0.162 0.879,-1.94 1.623,-1.452 0.23,-1.064 0.17,-2.039 -1.179,-0.109 -1.429,1.114 -3.842,0.016 -10.083,1.312 z"
     style="fill:#aaaaaa;stroke:#ffffff;stroke-width:1.25" /><path
     id="AR"
     inkscape:connector-curvature="0"
     sodipodi:nodetypes="cccccccccccccccccccccccccccccccccccccccc"
     d="m 363.443,302.765 -2.187,0.395 -2.808,-0.349 0.23,-0.88 1.637,-1.41 0.519,-2.008 -1.005,-1.633 -43.07,1.382 0.879,3.767 v 4.521 l 0.753,6.027 0.126,20.782 1.256,1.067 1.633,-0.754 1.506,0.628 0.373,3.61 30.551,-0.627 0.629,-1.147 -0.156,-1.95 -1.004,-1.632 0.879,-0.815 -0.879,-1.38 0.376,-1.379 0.752,-3.078 1.384,-1.134 -0.377,-1.254 2.008,-2.951 1.508,-0.751 -0.063,-0.821 -0.189,-1.002 1.568,-3.075 1.32,-0.69 0.211,-1.883 0.973,-0.682 -1.727,-0.266 -0.736,-2.203 1.539,-1.306 0.303,-1.108 0.703,-2.223 z"
     style="fill:#aaaaaa;stroke:#ffffff;stroke-width:1.25" /><path
     id="MO"
     inkscape:connector-curvature="0"
     sodipodi:nodetypes="cccccccccccccccccccccccccccccccccccccccccccccccccccccccccccc"
     d="m 344.008,250.619 -1.385,-1.695 -0.627,-1.256 -35.349,1.318 -1.256,0.063 0.69,1.382 -0.125,1.256 1.381,2.135 1.695,2.26 1.695,1.507 1.188,0.126 0.821,0.502 v 1.633 l -1.005,0.879 -0.25,1.256 1.13,1.883 1.381,1.633 1.382,1.005 0.753,6.403 0.173,19.813 0.125,2.573 0.252,2.958 12.321,-0.477 12.746,-0.377 11.427,-0.439 6.401,-0.126 1.192,1.881 -0.377,1.816 -1.695,1.32 -0.314,1.009 2.954,0.252 2.14,-0.378 0.943,-3.017 0.357,-3.217 1.152,-1.403 1.426,-0.817 0.027,-1.675 0.559,-1.063 -0.93,-1.396 -0.731,0.54 -1.095,-1.224 -0.705,-2.613 0.439,-1.383 -1.068,-1.883 -1.005,-2.514 -2.636,-0.439 -3.828,-3.075 -0.943,-2.259 0.438,-1.758 1.131,-3.327 0.253,-1.573 -1.072,-0.567 -3.765,-0.438 -0.564,-0.94 -0.062,-2.322 -3.014,-1.886 -3.832,-4.269 -1.255,-4.019 -0.126,-2.32 z"
     style="fill:#aaaaaa;stroke:#ffffff;stroke-width:1.25" /><path
     id="GA"
     inkscape:connector-curvature="0"
     sodipodi:nodetypes="ccccccccccccccccccccccccccccccccccccccccccccccccccccccccccccccccccccccc"
     d="m 406.542,309.63 v 1.199 l 0.088,1.154 0.355,1.864 1.864,4.352 1.333,5.416 0.799,3.374 0.888,2.664 0.8,3.817 1.153,3.463 1.421,1.865 0.266,1.864 1.066,0.444 0.088,1.154 -0.977,2.663 -0.266,1.776 -0.089,1.066 0.888,2.396 0.178,2.931 -0.443,1.331 0.355,0.444 0.799,0.444 0.111,1.768 1.227,1.839 1.237,1.188 4.351,0.089 5.941,-0.354 11.816,-0.71 2.992,-0.371 2.514,0.016 0.088,1.598 1.422,0.444 0.177,-2.398 -0.888,-2.485 0.621,-0.888 3.197,0.444 2.733,0.174 -0.426,-3.46 1.243,-5.504 0.799,-2.31 -0.267,-1.421 1.831,-3.43 -0.279,-0.741 -1.051,0.386 -1.422,-0.71 -0.354,-1.154 -0.71,-1.953 -1.244,-1.154 -1.42,-0.355 -0.888,-2.664 -1.606,-3.479 -2.309,-1.065 -1.154,-1.065 -0.71,-1.42 -1.155,-1.066 -1.243,-0.71 -1.242,-1.599 -1.688,-1.242 -2.486,-0.978 -0.267,-0.799 -1.332,-1.599 -0.266,-0.799 -1.865,-2.729 -1.934,0.054 -2.063,-1.294 -0.778,-0.711 -0.178,-0.976 0.478,-1.066 1.224,-0.609 -0.349,-1.152 z"
     style="fill:#aaaaaa;stroke:#ffffff;stroke-width:1.25" /><path
     id="SC"
     inkscape:connector-curvature="0"
     sodipodi:nodetypes="cccccccccccccccccccccccccccccccccccccccccccccccccccccc"
     d="m 457.431,338.528 -0.977,0.532 -1.42,-0.71 -0.356,-1.154 -0.71,-1.953 -1.242,-1.155 -1.422,-0.354 -0.887,-2.664 -1.51,-3.285 -2.309,-1.065 -1.154,-1.066 -0.711,-1.42 -1.154,-1.065 -1.242,-0.71 -1.244,-1.599 -1.687,-1.243 -2.486,-0.977 -0.267,-0.799 -1.331,-1.599 -0.267,-0.799 -1.865,-2.843 -1.865,0.09 -2.219,-1.332 -0.71,-0.711 -0.179,-0.976 0.444,-1.066 1.243,-0.532 -0.28,-1.257 3.168,-1.284 5.007,-2.521 4.271,-0.444 8.851,-0.231 1.449,1.031 0.922,1.844 2.363,-0.335 6.926,-0.799 1.598,0.444 6.927,4.173 5.552,4.461 -2.978,2.998 -1.421,3.374 -0.266,3.464 -0.889,0.443 -0.621,1.509 -1.333,0.356 -1.154,1.952 -1.509,1.511 -1.243,1.863 -0.889,0.445 -1.953,1.864 -1.598,0.089 0.533,1.775 -2.753,3.019 z"
     style="fill:#aaaaaa;stroke:#ffffff;stroke-width:1.25" /><path
     id="KY"
     inkscape:connector-curvature="0"
     sodipodi:nodetypes="ccccccccccccccccccccccccccccccccccccccccccccccccccccccccccccccccccccccccccccccccccccccc"
     d="m 436.037,276.521 -1.259,1.319 -1.966,2.193 -2.705,3.002 -0.667,0.942 -0.035,1.154 -2.405,1.189 -3.108,1.865 -3.971,0.988 -28.49,2.69 -8.655,0.977 -2.538,0.281 -2.125,-0.015 -0.124,2.317 -4.492,0.079 -3.818,0.355 -4.388,-0.032 0.663,-0.726 1.373,-0.847 0.126,-1.758 0.502,-1.005 -0.882,-1.395 0.439,-1.047 1.243,-0.977 1.154,-0.355 1.51,0.71 1.953,0.71 0.622,-0.177 0.089,-1.243 -0.71,-1.332 0.178,-1.243 1.064,-0.799 1.422,-0.355 0.887,-0.354 -0.444,-0.978 -0.354,-1.065 0.827,-0.547 c 0.002,-0.021 0.688,-1.934 0.681,-2.01 l 1.677,-0.812 2.922,-0.533 2.469,-0.266 0.765,0.894 0.839,0.479 0.875,-1.707 1.749,-0.704 1.212,0.814 0.226,0.549 0.644,-0.145 -0.088,-1.622 1.72,-0.961 1.18,-0.59 0.839,0.912 1.823,-0.024 0.323,-0.862 -0.202,-1.244 1.429,-2.195 2.623,-1.889 0.387,-2.655 1.607,-0.251 2.083,-0.904 1.341,-0.938 -0.107,-0.859 -0.629,-0.799 0.311,-1.645 2.3,-0.064 1.263,-0.41 1.839,0.785 1.128,2.396 2.819,0.007 1.126,1.212 0.888,-0.08 1.429,-0.702 2.877,0.315 1.414,0.118 0.928,-1.129 1.438,-0.783 1.033,-0.389 0.355,1.559 1.122,0.581 1.452,1.145 0.063,3.116 0.444,0.863 1.422,0.854 0.424,1.261 2.285,1.887 0.992,1.991 z"
     style="fill:#aaaaaa;stroke:#ffffff;stroke-width:1.25" /><path
     id="AL"
     inkscape:connector-curvature="0"
     sodipodi:nodetypes="cccccccccccccccccccccccccccccccccccccccccccccccc"
     d="m 384.03,367.228 -0.819,-7.867 -1.51,-10.299 0.09,-7.726 0.443,-17.048 -0.089,-9.146 0.091,-3.525 24.433,-1.987 -0.08,1.198 0.088,1.153 0.355,1.865 1.865,4.351 1.331,5.417 0.8,3.374 0.887,2.664 0.801,3.818 1.153,3.463 1.421,1.864 0.266,1.864 1.066,0.444 0.088,1.154 -0.976,2.663 -0.267,1.776 -0.09,1.065 0.889,2.397 0.178,2.931 -0.443,1.331 0.354,0.444 0.8,0.443 0.181,1.588 -3.075,-0.195 -3.729,0.356 -14.028,1.598 -5.718,0.772 -0.123,1.581 0.977,0.977 1.422,1.065 0.318,4.358 -3.044,1.413 -1.51,-0.178 1.51,-1.065 v -0.532 l -1.687,-3.285 -1.244,-0.355 -0.799,2.397 -0.71,1.509 -0.355,-0.088 h -1.511 z"
     style="fill:#aaaaaa;stroke:#ffffff;stroke-width:1.25" /><path
     id="LA"
     inkscape:connector-curvature="0"
     sodipodi:nodetypes="ccccccccccccccccccccccccccccccccccccccccccccscccccccccccccccccccccccccccccsccccccccccccccccccccccccccccc"
     d="m 371.211,366.538 -1.805,-1.739 0.555,-3.021 -0.363,-0.491 -5.087,0.554 -13.747,0.252 -0.375,-1.315 0.501,-4.645 1.821,-3.266 2.764,-4.773 -0.316,-1.317 0.691,-0.374 0.252,-1.072 -1.256,-1.129 -0.062,-1.067 -1.005,-2.387 -0.082,-3.481 -30.469,0.508 0.016,5.258 0.377,5.148 0.377,2.135 1.381,2.261 0.502,2.763 2.387,3.014 0.125,1.757 0.377,0.378 -0.377,4.646 -1.633,2.763 0.879,1.13 -0.376,1.381 -0.376,4.02 -0.754,1.757 0.066,1.987 2.574,-0.835 6.654,0.113 5.682,1.954 3.553,0.621 2.042,-0.799 1.775,0.621 1.776,0.533 0.443,-1.154 -1.775,-0.622 -1.42,0.267 -1.511,-0.888 c 0,0 0.089,-0.711 0.444,-0.8 0.355,-0.088 1.688,-0.532 1.688,-0.532 l 0.977,0.799 0.977,-0.532 1.775,0.354 0.799,1.332 0.178,1.243 2.486,0.178 0.977,0.977 -0.443,0.888 -0.711,0.444 0.889,0.888 4.617,1.953 1.953,-0.71 0.533,-1.331 1.42,-0.356 0.977,-0.798 0.711,0.532 0.443,1.598 -1.242,0.444 0.355,0.355 1.863,-0.711 1.244,-1.864 0.443,-0.267 -1.154,-0.178 0.443,-0.888 -0.088,-0.799 1.154,-0.267 0.621,-0.71 0.355,0.443 c 0,0 -0.089,1.688 0.355,1.688 0.443,0 2.309,0.354 2.309,0.354 l 2.22,1.065 0.532,0.8 h 1.598 l 0.622,0.532 1.243,-1.687 v -0.8 h -0.71 l -1.864,-1.509 -3.197,-0.444 -1.775,-1.243 0.621,-1.509 1.243,0.178 0.089,-0.355 -0.977,-0.533 v -0.266 h 1.775 l 0.978,-1.688 -0.711,-1.065 -0.178,-1.51 -0.799,0.089 -1.065,1.154 -0.355,1.421 -1.686,-0.355 -0.534,-0.977 0.977,-1.065 1.046,-1.893 -0.582,-1.325 z"
     style="fill:#aaaaaa;stroke:#ffffff;stroke-width:1.25" /><path
     id="MS"
     inkscape:connector-curvature="0"
     sodipodi:nodetypes="ccccccccccccccccccccccccccccccccccccccccccccccccccc"
     d="m 384.169,366.639 -0.141,0.69 h -2.841 l -0.799,-0.444 -1.154,-0.178 -3.729,1.065 -0.978,-0.443 -1.42,2.308 -0.605,0.428 -0.617,-1.366 -0.629,-2.135 -1.883,-1.758 0.628,-3.046 -0.376,-0.502 -1.006,0.126 -4.348,0.479 -13.482,0.205 -0.424,-1.223 0.48,-4.601 1.712,-3.116 2.87,-5.022 -0.244,-1.336 0.68,-0.36 0.238,-1.055 -1.272,-1.143 -0.063,-1.176 -1.008,-2.264 -0.06,-3.275 0.729,-1.362 -0.123,-1.876 -0.973,-1.693 0.839,-0.813 -0.862,-1.373 0.251,-0.907 0.866,-3.586 1.365,-1.118 -0.352,-1.3 2.008,-2.912 1.557,-0.745 -0.122,-0.92 -0.158,-0.923 1.579,-3.06 1.289,-0.676 0.084,-0.49 20.51,-2.131 0.102,3.45 0.089,9.146 -0.442,17.049 -0.09,7.725 1.509,10.3 z"
     style="fill:#aaaaaa;stroke:#ffffff;stroke-width:1.25" /><path
     id="IA"
     inkscape:connector-curvature="0"
     sodipodi:nodetypes="ccccccccccccccccccccccccccccccccccccccccccccccccccccccc"
     d="m 349.913,223.965 0.146,1.53 1.221,0.317 0.524,0.672 0.274,1.02 2.084,1.846 0.376,1.313 -0.37,1.881 -0.869,1.775 -0.439,1.506 -1.193,0.88 -0.941,0.314 -3.064,1.022 -0.765,2.113 0.399,0.754 1.012,0.924 -0.156,2.217 -0.968,0.845 -0.424,0.903 0.069,1.524 -1.035,0.251 -0.893,0.607 -0.153,0.742 0.153,1.161 -0.852,0.614 -1.357,-1.722 -0.693,-1.345 -36.105,1.38 -0.505,0.092 -1.127,-2.48 -0.126,-3.642 -0.879,-2.261 -0.377,-2.889 -1.256,-2.009 -0.502,-2.637 -1.507,-4.145 -0.628,-2.95 -0.753,-1.193 -0.88,-1.507 1.074,-2.66 0.754,-3.14 -1.508,-1.13 -0.251,-1.508 0.502,-1.38 h 0.942 l 45.397,-0.697 0.458,2.297 1.238,0.858 0.14,0.78 -1.114,1.862 0.104,1.761 1.382,2.086 1.388,0.711 1.691,0.276 z"
     style="fill:#aaaaaa;stroke:#ffffff;stroke-width:1.25" /><path
     id="MN"
     inkscape:connector-curvature="0"
     sodipodi:nodetypes="ccccccccccccccccccccccccccccccccccccccccccccccccccccccccccccccccccccccccccccccccccccccccccc"
     d="m 298.309,185.1 -0.252,-4.646 -1.004,-4.019 -1.004,-7.409 -0.252,-5.4 -1.004,-1.883 -0.879,-2.763 v -5.65 l 0.376,-2.135 -1,-2.995 16.551,0.02 0.178,-4.529 0.354,-0.088 1.244,0.267 1.064,0.444 0.444,3.019 0.799,3.374 0.888,0.889 h 2.664 l 0.178,0.799 3.463,0.177 v 1.154 h 2.664 l 0.178,-0.71 0.621,-0.621 1.242,-0.355 0.711,0.532 h 1.599 l 2.131,1.421 2.931,1.331 1.331,0.267 0.267,-0.532 0.799,-0.267 0.267,1.598 1.421,0.71 0.267,-0.266 0.71,0.089 v 1.154 l 1.42,0.533 h 1.688 l 0.889,-0.444 1.775,-1.776 1.422,-0.267 0.443,0.977 0.266,0.711 h 0.533 l 0.533,-0.444 4.883,-0.178 0.977,1.687 h 0.355 l 0.393,-0.595 2.438,-0.204 -0.336,1.252 -2.164,1.009 -5.076,2.23 -2.624,1.102 -1.687,1.421 -1.332,1.954 -1.243,2.131 -0.978,0.443 -2.485,2.753 -0.71,0.089 -2.378,1.514 -1.353,1.76 -0.125,1.753 0.051,4.418 -0.755,0.927 -2.792,2.065 -1.224,3.286 1.577,1.227 0.373,1.772 -1.02,1.779 0.095,2.058 0.202,3.697 1.664,1.649 h 1.828 l 1.039,1.721 1.855,0.276 2.119,3.116 3.893,2.261 1.178,1.579 0.369,3.537 -44.606,0.629 -0.186,-19.596 -0.251,-1.632 -2.26,-1.884 -0.628,-1.005 v -0.879 l 1.13,-0.879 0.754,-0.753 z"
     style="fill:#aaaaaa;stroke:#ffffff;stroke-width:1.25" /><path
     id="OK"
     inkscape:connector-curvature="0"
     sodipodi:nodetypes="ccccccccccccccccccccccccccccccccccccccccccccccccccccccccccccccc"
     d="m 246.188,290.555 -9.164,-0.699 -0.484,6.015 11.241,0.636 17.606,0.716 -1.281,13.413 -0.252,9.794 0.126,0.879 2.386,2.01 1.13,0.627 0.378,-0.126 0.376,-1.129 0.753,1.004 h 1.131 v -0.753 l 1.507,0.753 -0.251,2.135 2.26,0.126 1.382,0.628 2.261,0.377 1.381,1.004 1.256,-1.13 1.883,0.377 1.381,1.883 h 0.502 v 1.256 l 1.256,0.377 1.257,-1.256 1.005,0.377 h 1.381 l 0.502,1.382 3.461,1.142 0.754,-0.376 1.004,-2.261 h 0.628 l 0.628,1.13 2.26,0.376 2.01,0.755 1.633,0.502 1.004,-0.502 0.377,-1.383 h 2.386 l 1.13,0.502 1.508,-1.129 h 0.627 l 0.377,0.879 h 2.261 l 0.878,-1.13 1.006,0.251 1.13,1.381 1.758,1.005 1.758,0.502 1.065,0.614 -0.213,-20.44 -0.754,-6.028 -0.088,-4.873 -0.791,-3.591 -0.428,-3.943 -0.037,-2.097 -6.666,0.176 -25.49,-0.251 -24.738,-1.131 z"
     style="fill:#aaaaaa;stroke:#ffffff;stroke-width:1.25" /><path
     id="TX"
     inkscape:connector-curvature="0"
     sodipodi:nodetypes="ccccccccccccccccccccccccccccccccccccccccccccccccccccccccccccccccccccccccccccccccccccccccccccccccccccccccccccccccccccccccccccccccccccccccccccccccccccccccccccccccccccccccccccccccccccccccccc"
     d="m 235.818,295.911 12.463,0.597 17.078,0.627 -1.283,12.883 -0.162,9.972 0.037,1.144 2.386,2.098 1.091,0.795 0.65,-0.309 0.205,-0.998 0.627,0.991 1.159,0.024 -0.001,-0.796 0.917,0.532 0.625,0.224 -0.197,2.18 2.246,0.051 1.606,0.658 2.172,0.288 1.309,1.143 1.166,-1.141 2.047,0.338 1.219,1.771 0.591,0.176 -0.088,1.079 1.216,0.436 1.279,-1.128 1.172,0.338 1.225,0.019 0.513,1.338 3.476,1.161 0.875,-0.421 0.818,-2.295 h 0.187 l 0.498,0.045 0.675,1.137 2.158,0.365 1.834,0.616 1.881,0.657 1.012,-0.535 0.392,-1.382 2.446,0.024 0.993,0.512 1.536,-1.157 0.607,0.024 0.467,0.881 h 2.228 l 0.835,-1.113 1.025,0.224 1.068,1.319 1.934,1.123 1.57,0.445 0.832,0.438 1.344,1.098 1.671,-0.729 1.479,0.625 0.31,3.354 -0.022,5.33 0.378,5.235 0.385,1.98 1.469,2.429 0.494,2.718 2.315,3.042 0.107,1.728 0.411,0.433 -0.401,4.602 -1.578,2.75 0.842,1.183 -0.347,1.284 -0.367,4.067 -0.826,1.833 0.162,1.924 -3.111,0.871 -5.416,2.485 -0.533,1.065 -1.421,1.066 -1.154,0.799 -0.71,0.443 -3.107,2.931 -1.51,1.153 -2.931,1.776 -3.107,1.332 -3.463,1.865 -0.977,0.799 -3.196,1.953 -1.865,0.355 -2.131,3.02 -2.22,0.177 -0.532,1.065 1.242,1.065 -0.799,3.02 -0.711,2.486 -0.621,2.13 -0.443,2.486 0.443,1.333 0.977,3.817 0.533,3.374 0.977,1.51 -0.533,0.799 -1.687,1.066 -3.108,-2.132 -3.018,-0.621 -0.711,0.266 -1.775,-0.354 -2.31,-1.688 -2.841,-0.621 -4.174,-1.865 -1.154,-2.131 -0.71,-3.552 -1.775,-1.065 -0.355,-1.242 0.355,-0.356 0.177,-1.864 -0.71,-0.354 -0.354,-0.533 0.71,-2.397 -0.888,-1.243 -1.777,-0.71 -1.863,-2.397 -1.954,-3.641 -2.309,-1.421 0.089,-1.065 -2.93,-6.748 -0.444,-2.309 -0.977,-1.065 -0.089,-0.799 -3.285,-2.931 -1.421,-1.688 v -0.621 l -1.42,-1.154 -3.729,-0.622 -4.085,-0.354 -1.687,-1.243 -2.486,0.977 -1.954,0.799 -1.243,1.776 -0.533,2.041 -2.397,3.375 -1.332,1.332 -1.421,-0.532 -0.977,-0.622 -1.065,-0.354 -2.131,-1.244 v -0.354 l -0.977,-1.065 -2.841,-1.154 -4.085,-4.263 -1.243,-2.575 v -4.439 l -1.776,-3.552 -0.27,-1.514 -0.888,-0.533 -0.621,-1.154 -2.752,-1.154 -0.71,-0.889 -3.907,-4.351 -0.71,-1.775 -2.575,-1.242 -0.799,-2.398 -1.421,-1.599 -1.065,-0.266 -0.357,-2.569 4.395,0.377 15.948,1.506 15.948,0.879 1.227,-10.688 2.135,-30.514 0.878,-10.298 0.753,0.017 m 54.39,126.141 -0.311,-3.906 -1.51,-3.952 -0.311,-3.862 0.844,-4.528 1.82,-3.773 1.909,-2.975 1.731,-1.953 0.355,0.133 -2.62,3.64 -2.397,3.598 -1.109,3.64 -0.178,2.841 0.488,3.375 1.42,3.95 0.268,2.842 0.088,0.799 z"
     style="fill:#aaaaaa;stroke:#ffffff;stroke-width:1.25" /><path
     id="KS"
     inkscape:connector-curvature="0"
     sodipodi:nodetypes="ccccccccccccccccccccc"
     d="m 316.238,292.51 -6.932,0.111 -25.314,-0.251 -24.473,-1.13 -13.528,-0.69 2.139,-35.479 12.13,0.37 22.129,0.462 24.332,0.543 h 2.799 l 1.2,1.188 1.108,-0.012 0.9,0.556 -0.035,1.652 -1.003,0.948 -0.184,1.227 1.013,1.868 1.622,1.756 1.278,0.886 0.714,6.174 z"
     style="fill:#aaaaaa;stroke:#ffffff;stroke-width:1.25" /><path
     id="NE"
     inkscape:connector-curvature="0"
     sodipodi:nodetypes="ccccccccccccccccccccccccccccccccccccc"
     d="m 304.273,246.548 1.774,3.855 -0.07,1.265 1.899,3.018 1.494,1.731 h -2.773 l -23.883,-0.516 -22.402,-0.488 -12.222,-0.431 0.589,-11.715 -17.751,-1.604 2.386,-24.173 8.54,0.565 11.05,0.628 9.795,0.628 13.06,0.629 5.902,-0.252 1.13,1.256 2.637,1.633 0.628,0.502 2.386,-0.754 2.134,-0.25 1.508,-0.126 1.005,0.753 2.228,0.88 1.633,0.879 0.252,0.878 0.502,1.131 h 1.004 l 0.438,0.025 0.491,2.571 1.604,4.65 0.315,2.063 1.386,2.073 0.313,2.809 0.883,2.33 z"
     style="fill:#aaaaaa;stroke:#ffffff;stroke-width:1.25" /><path
     id="SD"
     inkscape:connector-curvature="0"
     sodipodi:nodetypes="ccccccccccccccccccccccccccccccccccccc"
     d="m 298.973,226.403 -0.025,-0.318 -1.591,-2.661 1.021,-2.589 0.819,-3.233 -1.527,-1.142 -0.212,-1.507 0.436,-1.403 1.751,0.009 -0.066,-2.75 -0.184,-16.574 -0.34,-2.069 -2.236,-1.83 -0.54,-0.921 -0.034,-0.883 1.111,-0.84 0.841,-0.915 0.135,-1.46 -31.998,-0.879 -30.099,-1.895 -2.925,34.983 8.014,0.497 10.958,0.662 9.745,0.51 13.06,0.716 6.581,-0.233 1.08,1.232 2.854,1.788 0.419,0.396 2.494,-0.798 3.594,-0.338 0.92,0.734 2.309,0.877 1.618,0.897 0.219,0.815 0.571,1.23 z"
     style="fill:#aaaaaa;stroke:#ffffff;stroke-width:1.25" /><path
     id="ND"
     inkscape:connector-curvature="0"
     sodipodi:nodetypes="ccccccccccccccccc"
     d="m 298.346,185.151 -0.338,-4.632 -0.921,-3.744 -1.038,-7.154 -0.252,-6.035 -0.955,-1.689 -0.965,-2.854 0.018,-5.736 0.342,-2.101 -1.008,-3.004 -15.732,-0.309 -10.211,-0.355 -14.562,-0.711 -12.604,-1.171 -3.841,36.896 30.172,1.837 z"
     style="fill:#aaaaaa;stroke:#ffffff;stroke-width:1.25" /><text
     font-size="11.5343"
     id="TX_Text"
     style="font-size:11.53429985px;font-family:TrebuchetMS;fill:#ffffff"
     x="270.668"
     y="366.71481">TX</text>
<text
     font-size="11.5343"
     id="OK_Text"
     style="font-size:11.53429985px;font-family:TrebuchetMS;fill:#ffffff"
     x="284.6597"
     y="314.55469">OK</text>
<path
     id="NM"
     inkscape:connector-curvature="0"
     sodipodi:nodetypes="ccccccccccccccc"
     d="m 195.551,347.232 -0.426,-2.607 4.748,0.288 16.572,1.618 14.978,0.929 1.216,-10.275 2.119,-30.69 0.955,-10.649 0.863,0.07 0.453,-6.131 -57.125,-5.842 -9.61,66.149 8.492,1.092 0.71,-5.505 z"
     style="fill:#aaaaaa;stroke:#ffffff;stroke-width:1.25" /><path
     id="WY"
     inkscape:connector-curvature="0"
     sodipodi:nodetypes="ccccc"
     d="m 235.221,193.038 -58.628,-7.392 -7.735,48.585 62.211,7.462 z"
     style="fill:#aaaaaa;stroke:#ffffff;stroke-width:1.25" /><path
     id="MT"
     inkscape:connector-curvature="0"
     sodipodi:nodetypes="ccccccccccccccccccccccccccccccccccccccccccccccc"
     d="m 240.072,145.633 -16.848,-1.542 -16.071,-1.954 -16.071,-2.219 -17.758,-2.93 -10.123,-1.865 -17.974,-3.807 -2.46,11.725 1.883,4.144 -0.753,2.512 1.004,2.512 1.758,0.753 2.539,5.915 1.48,1.745 0.251,0.628 1.883,0.628 0.251,1.13 -3.893,9.669 v 1.381 l 1.381,1.758 h 0.502 l 2.637,-1.633 0.376,-0.627 0.879,0.377 -0.125,2.888 1.507,6.907 1.633,1.381 0.502,0.376 1.004,1.256 -0.251,1.883 0.376,1.884 0.628,0.502 1.256,-1.256 h 1.507 l 1.758,0.879 1.381,-0.503 h 2.26 l 2.009,0.879 1.507,-0.251 0.251,-1.632 1.632,-0.377 0.753,0.754 0.251,1.758 0.783,0.458 1.037,-6.061 58.63,7.376 z"
     style="fill:#aaaaaa;stroke:#ffffff;stroke-width:1.25" /><path
     id="CO"
     inkscape:connector-curvature="0"
     sodipodi:nodetypes="ccccc"
     d="m 246.017,290.634 2.693,-47.415 -62.279,-6.945 -6.708,48.302 z"
     style="fill:#aaaaaa;stroke:#ffffff;stroke-width:1.25" /><path
     id="ID"
     inkscape:connector-curvature="0"
     sodipodi:nodetypes="ccccccccccccccccccccccccccccccccccccccccccccccccccccccccccc"
     d="m 118.835,211.276 4.817,-19.345 0.754,-2.322 1.381,-3.266 -0.691,-1.255 -1.381,0.062 -0.439,-0.564 0.251,-0.628 0.188,-1.695 2.449,-3.014 1.004,-0.251 0.628,-0.628 0.314,-1.758 0.502,-0.376 2.135,-3.202 2.135,-2.386 0.125,-2.072 -1.884,-1.444 -0.843,-2.417 7.483,-34.791 7.425,1.388 -2.421,11.745 1.955,4.112 -0.868,2.56 1.082,2.549 1.724,0.69 2.107,5.249 1.929,2.438 0.279,0.628 1.835,0.628 0.203,1.151 -3.829,9.544 -0.09,1.41 1.445,1.824 0.497,-0.027 2.698,-1.662 0.372,-0.602 0.858,0.363 -0.153,2.94 1.504,6.911 2.152,1.745 0.924,1.189 -0.394,2.244 0.586,1.542 0.583,0.6 1.362,-1.292 1.564,0.027 1.604,0.734 1.527,-0.375 2.084,-0.088 2.185,0.879 1.507,-0.163 0.273,-1.668 1.611,-0.42 0.692,0.833 0.242,1.617 0.782,0.667 -4.606,29.445 c -0.001,-0.004 -48.317,-9.176 -52.158,-10.003 z"
     style="fill:#aaaaaa;stroke:#ffffff;stroke-width:1.25" /><path
     id="UT"
     inkscape:connector-curvature="0"
     sodipodi:nodetypes="cccccccccc"
     d="m 179.813,284.669 -45.999,-6.521 11.308,-61.813 25.694,4.804 -0.816,5.837 -1.27,7.235 4.289,0.51 9.011,0.991 4.51,0.471 z"
     style="fill:#aaaaaa;stroke:#ffffff;stroke-width:1.25" /><path
     id="AZ"
     inkscape:connector-curvature="0"
     sodipodi:nodetypes="cccccccccccccccccccccccccccccccccccccccccccccc"
     d="m 116.875,324.503 -1.442,1.185 -0.178,0.8 0.266,0.533 10.389,5.859 6.659,4.174 8.08,4.706 9.234,5.505 6.748,1.332 13.705,1.485 9.478,-65.431 -45.993,-6.546 -1.698,9.015 -0.882,0.009 -0.941,1.443 -1.382,-0.063 -0.69,-1.507 -1.506,-0.188 -0.502,-0.628 h -0.502 l -0.502,0.314 -1.067,0.564 -0.063,3.83 -0.125,0.942 -0.314,6.906 -0.816,1.193 -0.314,1.82 1.507,2.7 0.69,3.202 0.44,0.564 0.565,0.314 -0.063,1.255 -0.879,0.754 -1.883,0.941 -1.067,1.068 -0.816,2.009 -0.314,2.699 -1.57,1.507 -1.13,0.377 0.074,0.456 -0.251,0.941 0.251,0.439 2.01,0.314 -0.314,1.507 -0.819,1.198 z"
     style="fill:#aaaaaa;stroke:#ffffff;stroke-width:1.25" /><path
     id="NV"
     inkscape:connector-curvature="0"
     sodipodi:nodetypes="cccccccccccccccccc"
     d="m 145.152,216.271 -12.983,70.756 -1.006,0.192 -0.864,1.321 -1.303,0.006 -0.809,-1.507 -1.438,-0.208 -0.423,-0.608 -0.57,-0.029 -1.526,0.903 -0.17,3.727 -0.199,3.173 -0.191,4.72 -0.795,1.147 -1.339,-0.59 -37.942,-57.232 10.43,-37.122 z"
     style="fill:#aaaaaa;stroke:#ffffff;stroke-width:1.25" /><path
     id="OR"
     inkscape:connector-curvature="0"
     sodipodi:nodetypes="ccccccccccccccccccccccccccccccccccccccccccccccccccc"
     d="m 118.969,210.753 4.861,-19.114 0.577,-2.323 1.293,-3.089 -0.338,-0.639 -1.381,-0.026 -0.704,-0.917 0.251,-0.804 0.276,-1.783 2.448,-3.014 1.005,-0.604 0.628,-0.627 0.816,-1.959 2.223,-3.114 1.958,-2.122 0.126,-1.896 -1.795,-1.356 -0.98,-2.55 -6.955,-1.984 -8.288,-1.946 -8.476,0.063 -0.251,-0.753 -3.014,1.13 -2.449,-0.314 -1.318,-0.878 -0.691,0.376 -2.574,-0.125 -0.942,-0.753 -2.888,-1.131 -0.439,0.063 -2.386,-0.816 -1.067,1.004 -3.391,-0.188 -3.265,-2.26 0.377,-0.439 0.125,-4.27 -1.256,-2.135 -2.26,-0.314 -0.376,-1.381 -1.293,-0.256 -3.185,1.131 -1.243,3.552 -1.776,5.505 -1.776,3.552 -2.752,7.725 -3.552,7.458 -4.44,6.926 -1.065,1.599 -0.444,4.706 0.212,6.635 z"
     style="fill:#aaaaaa;stroke:#ffffff;stroke-width:1.25" /><path
     id="WA"
     inkscape:connector-curvature="0"
     sodipodi:nodetypes="cccccccccccccccccccccccccccccccccccccccccccccccccccccccccccccccccccccccccccccccccccccscccccc"
     d="m 93.347,118.523 2.397,0.799 5.328,1.509 4.706,1.065 11.01,3.108 12.608,3.108 8.361,1.761 -7.487,34.925 -6.835,-1.937 -8.518,-1.961 -8.365,0.018 -0.25,-0.739 -3.075,1.197 -2.524,-0.404 -1.179,-0.87 -0.721,0.362 -2.601,-0.078 -0.933,-0.741 -2.891,-1.16 -0.404,0.081 -2.411,-0.837 -1.04,0.999 -3.442,-0.164 -3.254,-2.267 0.428,-0.512 0.066,-4.217 -1.253,-2.109 -2.26,-0.334 -0.372,-1.378 -1.25,-0.251 -1.952,0.676 -1.244,-1.769 0.178,-1.598 1.509,-0.178 0.888,-2.22 -1.42,-0.622 0.089,-2.042 2.397,-0.355 -1.51,-1.51 -0.799,-3.907 0.355,-1.598 v -4.351 l -0.977,-1.775 1.243,-5.15 1.154,0.266 1.332,1.598 1.509,1.421 1.776,1.066 2.486,1.154 1.687,0.355 1.599,0.799 1.864,0.533 1.243,-0.088 v -1.333 l 0.71,-0.621 1.154,-0.711 0.177,0.622 0.178,0.977 -1.244,0.266 -0.178,1.155 0.977,0.799 0.622,1.332 0.355,1.066 0.799,-0.088 0.089,-0.711 -0.533,-0.71 -0.267,-1.776 0.444,-0.977 -0.355,-0.799 v -1.243 l 0.977,-1.954 -0.622,-1.421 -1.332,-2.664 0.178,-0.444 z m -5.194,3.284 1.11,-0.089 0.266,0.755 0.844,-0.888 h 1.287 l 0.444,0.843 -0.843,0.933 0.355,0.443 -0.4,1.11 -0.754,0.222 c 0,0 -0.488,0.044 -0.488,-0.133 0,-0.178 0.799,-1.421 0.799,-1.421 l -0.932,-0.311 -0.178,0.799 -0.399,0.355 -0.844,-1.243 z"
     style="fill:#aaaaaa;stroke:#ffffff;stroke-width:1.25" /><path
     id="CA"
     inkscape:connector-curvature="0"
     sodipodi:nodetypes="ccccccccccccccccccccccccccccccccccccccccccccccccccccccccccccccccccccccccccccccccccccccccccccccccccccccccccccccccccccccccccccccccscc"
     d="m 116.757,324.266 2.164,-0.269 0.816,-1.104 0.299,-1.615 -1.95,-0.324 -0.283,-0.367 0.262,-1.116 -0.087,-0.323 1.056,-0.341 1.671,-1.556 0.32,-2.744 0.758,-1.868 1.067,-1.189 1.933,-0.874 0.908,-0.881 0.038,-1.158 -0.546,-0.318 -0.562,-0.59 -0.634,-3.212 -1.475,-2.653 0.311,-1.926 -1.329,-0.565 -37.932,-57.22 10.382,-37.13 -36.844,-8.625 -0.827,2.6 -0.089,4.084 -2.841,6.482 -1.688,1.421 -0.178,0.621 -0.977,0.444 -0.799,2.309 -0.444,1.775 1.51,2.309 0.888,2.309 0.622,1.953 -0.177,3.552 -0.977,1.688 -0.355,3.197 -0.533,2.041 0.977,2.132 1.509,2.485 1.243,2.664 0.71,2.22 -0.178,1.776 -0.178,0.266 v 1.155 l 3.108,3.463 -0.266,1.332 -0.355,1.242 -0.355,1.065 0.089,4.528 1.154,2.043 1.065,1.42 1.509,0.267 0.533,1.51 -0.622,1.953 -1.154,0.888 h -0.622 l -0.444,2.132 0.267,1.599 1.776,2.396 0.888,2.931 0.799,2.575 0.71,1.687 1.865,3.197 0.799,1.42 0.266,1.598 0.888,0.534 v 1.331 l -0.444,1.065 -0.977,3.907 -0.266,1.065 1.332,1.51 2.309,0.266 2.486,0.977 2.131,1.155 h 1.598 l 1.598,1.687 1.421,2.664 0.622,1.242 2.131,1.155 2.664,0.444 0.799,1.153 0.355,1.776 -0.799,0.355 0.178,0.532 1.775,0.444 1.51,0.089 1.736,-0.927 2.131,2.309 0.444,1.243 1.421,2.309 0.177,1.775 v 5.15 l 0.267,0.977 5.505,0.799 10.832,1.51 z m -48.409,-24.011 0.71,0.843 -0.088,0.71 -1.776,-0.044 -0.311,-0.666 -0.355,-0.799 z m 1.066,0 0.666,-0.355 1.954,1.154 1.687,0.665 -0.488,0.355 -2.486,-0.133 -0.888,-0.888 z m 11.365,10.877 0.977,1.287 0.444,0.533 0.843,0.31 0.311,-0.798 -0.532,-0.978 -1.465,-1.11 -0.578,0.09 z m -0.799,4.75 0.977,1.731 0.666,1.065 -0.799,0.133 -0.71,-0.665 c 0,0 -0.399,-0.8 -0.399,-1.021 0,-0.221 0,-1.199 0,-1.199 z"
     style="fill:#aaaaaa;stroke:#ffffff;stroke-width:1.25" /><text
     font-size="11.5343"
     id="NM_Text"
     style="font-size:11.53429985px;font-family:TrebuchetMS;fill:#ffffff"
     x="196.41499"
     y="320.46289">NM</text>
<text
     font-size="11.5343"
     id="AZ_Text"
     style="font-size:11.53429985px;font-family:TrebuchetMS;fill:#ffffff"
     x="141.4897"
     y="314.68161">AZ</text>
<text
     font-size="11.5343"
     id="CA_Text"
     style="font-size:11.53429985px;font-family:TrebuchetMS;fill:#ffffff"
     x="71.387703"
     y="274.20901">CA</text>
<text
     font-size="11.5343"
     id="NV_Text"
     style="font-size:11.53429985px;font-family:TrebuchetMS;fill:#ffffff"
     x="106.1089"
     y="247.4424">NV</text>
<text
     font-size="11.5343"
     id="UT_Text"
     style="font-size:11.53429985px;font-family:TrebuchetMS;fill:#ffffff"
     x="150.86279"
     y="259.64841">UT</text>
<text
     font-size="11.5343"
     id="CO_Text"
     style="font-size:11.53429985px;font-family:TrebuchetMS;fill:#ffffff"
     x="206.9678"
     y="267.78519">CO</text>
<text
     font-size="11.5343"
     id="OR_Text"
     style="font-size:11.53429985px;font-family:TrebuchetMS;fill:#ffffff"
     x="86.434097"
     y="186.3179">OR</text>
<text
     font-size="11.5343"
     id="WA_Text"
     style="font-size:11.53429985px;font-family:TrebuchetMS;fill:#ffffff"
     x="100.0059"
     y="146.74609">WA</text>
<text
     font-size="11.5343"
     id="ID_Text"
     style="font-size:11.53429985px;font-family:TrebuchetMS;fill:#ffffff"
     x="139.3936"
     y="201.67191">ID</text>
<text
     font-size="11.5343"
     id="MT_Text"
     style="font-size:11.53429985px;font-family:TrebuchetMS;fill:#ffffff"
     x="185.4399"
     y="165.7256">MT</text>
<text
     font-size="11.5343"
     id="WY_Text"
     style="font-size:11.53429985px;font-family:TrebuchetMS;fill:#ffffff"
     x="196.0703"
     y="217.10741">WY</text>
<text
     font-size="11.5343"
     id="ND_Text"
     style="font-size:11.53429985px;font-family:TrebuchetMS;fill:#ffffff"
     x="260.74069"
     y="169.269">ND</text>
<text
     font-size="11.5343"
     id="SD_Text"
     style="font-size:11.53429985px;font-family:TrebuchetMS;fill:#ffffff"
     x="260.74069"
     y="206.2637">SD</text>
<text
     font-size="11.5343"
     id="NE_Text"
     style="font-size:11.53429985px;font-family:TrebuchetMS;fill:#ffffff"
     x="265.16989"
     y="242.7979">NE</text>
<text
     font-size="11.5343"
     id="KS_Text"
     style="font-size:11.53429985px;font-family:TrebuchetMS;fill:#ffffff"
     x="274.91461"
     y="278.23441">KS</text>
<text
     font-size="11.5343"
     id="MN_Text"
     style="font-size:11.53429985px;font-family:TrebuchetMS;fill:#ffffff"
     x="305.9209"
     y="187.8726">MN</text>
<text
     font-size="11.5343"
     id="IA_Text"
     style="font-size:11.53429985px;font-family:TrebuchetMS;fill:#ffffff"
     x="317.43799"
     y="234.8242">IA</text>
<text
     font-size="11.5343"
     id="MO_Text"
     style="font-size:11.53429985px;font-family:TrebuchetMS;fill:#ffffff"
     x="326.4082"
     y="279.74411">MO</text>
<text
     font-size="11.5343"
     id="AR_Text"
     style="font-size:11.53429985px;font-family:TrebuchetMS;fill:#ffffff"
     x="331.61179"
     y="321.64261">AR</text>
<text
     font-size="11.5343"
     id="LA_Text"
     style="font-size:11.53429985px;font-family:TrebuchetMS;fill:#ffffff"
     x="332.49759"
     y="363.2793">LA</text>
<text
     font-size="11.5343"
     id="MS_Text"
     style="font-size:11.53429985px;font-family:TrebuchetMS;fill:#ffffff"
     x="361.05859"
     y="342.01761">MS</text>
<text
     font-size="11.5343"
     id="AL_Text"
     style="font-size:11.53429985px;font-family:TrebuchetMS;fill:#ffffff"
     x="390.9668"
     y="339.3613">AL</text>
<text
     font-size="11.5343"
     id="GA_Text"
     style="font-size:11.53429985px;font-family:TrebuchetMS;fill:#ffffff"
     x="422.8584"
     y="336.70309">GA</text>
<text
     font-size="11.5343"
     id="SC_Text"
     style="font-size:11.53429985px;font-family:TrebuchetMS;fill:#ffffff"
     x="448.5498"
     y="321.64261">SC</text>
<text
     font-size="11.5343"
     id="IL_Text"
     style="font-size:11.53429985px;font-family:TrebuchetMS;fill:#ffffff"
     x="360.33591"
     y="256.81839">IL</text>
<text
     font-size="11.5343"
     id="WI_Text"
     style="font-size:11.53429985px;font-family:TrebuchetMS;fill:#ffffff"
     x="348.4946"
     y="204.52879">WI</text>
<text
     font-size="11.5343"
     id="MI_Text"
     style="font-size:11.53429985px;font-family:TrebuchetMS;fill:#ffffff"
     x="393.37299"
     y="218.44431">MI</text>
<text
     font-size="11.5343"
     id="IN_Text"
     style="font-size:11.53429985px;font-family:TrebuchetMS;fill:#ffffff"
     x="387.043"
     y="254.60941">IN</text>
<text
     font-size="11.5343"
     id="OH_Text"
     style="font-size:11.53429985px;font-family:TrebuchetMS;fill:#ffffff"
     x="414.18069"
     y="247.74409">OH</text>
<text
     font-size="11.5343"
     id="TN_Text"
     style="font-size:11.53429985px;font-family:TrebuchetMS;fill:#ffffff"
     x="390.46289"
     y="305.64059">TN</text>
<text
     font-size="11.5343"
     id="KY_Text"
     style="font-size:11.53429985px;font-family:TrebuchetMS;fill:#ffffff"
     x="404.51859"
     y="282.6973">KY</text>
<text
     font-size="11.5343"
     id="NC_Text"
     style="font-size:11.53429985px;font-family:TrebuchetMS;fill:#ffffff"
     x="464.05179"
     y="297.71091">NC</text>
<text
     font-size="11.5343"
     id="WV_Text"
     style="font-size:11.53429985px;font-family:TrebuchetMS;fill:#ffffff"
     x="435.37399"
     y="269.58981">WV</text>
<text
     font-size="11.5343"
     id="VA_Text"
     style="font-size:11.53429985px;font-family:TrebuchetMS;fill:#ffffff"
     x="462.83499"
     y="273.33401">VA</text>
<text
     font-size="11.5343"
     id="PA_Text"
     style="font-size:11.53429985px;font-family:TrebuchetMS;fill:#ffffff"
     x="460.7803"
     y="233.4238">PA</text>
<text
     font-size="11.5343"
     id="NY_Text"
     style="font-size:11.53429985px;font-family:TrebuchetMS;fill:#ffffff"
     x="480.93649"
     y="204.52879">NY</text>
<text
     font-size="11.5343"
     id="ME_Text"
     style="font-size:11.53429985px;font-family:TrebuchetMS;fill:#ffffff"
     x="519.15918"
     y="163.4839">ME</text>
<g
     id="g3167"><path
       id="NH"
       inkscape:connector-curvature="0"
       sodipodi:nodetypes="ccccccccccccccccccccccccccccccccc"
       d="m 521.064,192.569 0.478,-0.591 0.599,-1.808 -1.397,-0.501 -0.266,-1.687 -2.131,-0.622 -0.178,-1.51 -3.996,-12.875 -2.527,-7.988 -0.492,-0.002 -0.355,0.888 -0.355,-0.266 -0.532,-0.533 -0.8,1.066 -0.026,2.763 0.171,3.113 1.065,1.509 v 2.22 l -2.042,2.78 -1.421,0.622 v 0.622 l 0.622,0.977 v 4.705 l -0.444,5.061 -0.089,2.664 0.533,0.71 -0.089,2.487 -0.267,0.976 0.532,0.39 9.221,-2.431 1.194,-0.331 1.013,-1.522 z"
       style="fill:#aaaaaa;stroke:#ffffff;stroke-width:1.25" /><path
       id="NH_Label"
       d="m 476.243,139.665 h 24.464 c 1.587,0 2.873,1.222 2.873,2.73 v 11.016 c 0,1.508 -1.286,2.731 -2.873,2.731 h -24.464 c -1.587,0 -2.872,-1.223 -2.872,-2.731 v -11.016 c 0,-1.508 1.285,-2.73 2.872,-2.73 z"
       inkscape:connector-curvature="0"
       style="fill:#aaaaaa;stroke:#ffffff;stroke-width:1.25" /></g><g
     id="g3171"><path
       id="VT"
       inkscape:connector-curvature="0"
       sodipodi:nodetypes="ccccccccccccccccccccccccccccc"
       d="m 501.118,198.959 0.174,-2.936 -1.588,-5.923 -0.354,-0.178 -1.599,-0.71 0.444,-1.599 -0.444,-1.154 -1.483,-2.548 0.533,-2.131 -0.444,-2.842 -1.331,-3.551 -0.442,-2.704 14.511,-3.697 0.169,3.034 1.053,1.506 v 2.22 l -2.036,2.778 -1.421,0.627 -0.006,0.615 0.72,0.835 -0.171,4.447 -0.334,5.085 -0.126,3.052 0.533,0.711 -0.089,2.51 -0.267,0.929 0.557,0.399 -4.085,0.828 z"
       style="fill:#aaaaaa;stroke:#ffffff;stroke-width:1.25" /><path
       id="VT_Label"
       d="m 440.305,139.665 h 24.465 c 1.586,0 2.872,1.222 2.872,2.73 v 11.016 c 0,1.508 -1.286,2.731 -2.872,2.731 h -24.465 c -1.586,0 -2.872,-1.223 -2.872,-2.731 v -11.016 c 0,-1.508 1.286,-2.73 2.872,-2.73 z"
       inkscape:connector-curvature="0"
       style="fill:#aaaaaa;stroke:#ffffff;stroke-width:1.25" /></g><g
     id="g3179"><path
       id="RI"
       inkscape:connector-curvature="0"
       sodipodi:nodetypes="ccccccccccc"
       d="m 517.368,212.601 -2.029,-8.214 3.443,-1.014 1.203,1.059 1.815,2.373 1.478,2.418 -1.647,0.893 -0.711,-0.09 -0.621,0.978 -1.332,1.065 z"
       style="fill:#aaaaaa;stroke:#ffffff;stroke-width:1.25" /><path
       id="RI_Label"
       d="m 541.056,206.616 h 24.464 c 1.586,0 2.872,1.223 2.872,2.731 v 11.017 c 0,1.508 -1.286,2.73 -2.872,2.73 h -24.464 c -1.587,0 -2.873,-1.223 -2.873,-2.73 v -11.017 c 0,-1.508 1.286,-2.731 2.873,-2.731 z"
       inkscape:connector-curvature="0"
       style="fill:#aaaaaa;stroke:#ffffff;stroke-width:1.25" /></g><g
     id="g3183"><path
       id="CT"
       inkscape:connector-curvature="0"
       sodipodi:nodetypes="cccccccccccccccc"
       d="m 517.368,212.583 -2.021,-8.172 -2.592,0.505 -11.66,2.605 0.549,1.771 0.8,3.996 0.097,4.925 -0.67,1.195 1.056,1.061 2.347,-2.145 1.952,-1.776 1.065,-1.154 0.445,0.355 1.509,-0.8 2.842,-0.62 z"
       style="fill:#aaaaaa;stroke:#ffffff;stroke-width:1.25" /><path
       id="CT_Label"
       d="m 541.056,226.939 h 24.464 c 1.586,0 2.872,1.223 2.872,2.73 v 11.016 c 0,1.509 -1.286,2.731 -2.872,2.731 h -24.464 c -1.587,0 -2.873,-1.223 -2.873,-2.731 V 229.67 c 0,-1.508 1.286,-2.731 2.873,-2.731 z"
       inkscape:connector-curvature="0"
       style="fill:#aaaaaa;stroke:#ffffff;stroke-width:1.25" /></g><g
     id="g3187"><path
       id="NJ"
       inkscape:connector-curvature="0"
       sodipodi:nodetypes="ccccccccccccccccccccccccccccccccccccccccccccccccccc"
       d="m 492.987,217.854 -1.276,1.502 v 1.688 l -1.065,1.687 -0.089,0.888 0.711,0.71 -0.089,1.333 -1.243,0.621 0.443,1.509 0.089,0.622 1.51,0.178 0.532,1.421 1.954,1.332 1.331,0.888 v 0.444 l -1.638,1.48 -0.888,1.243 -0.8,1.51 -1.242,0.71 -0.255,0.881 -0.133,0.666 -0.335,1.431 0.6,1.233 1.776,1.598 2.664,1.243 2.22,0.355 0.088,0.8 -0.443,0.532 0.178,1.51 h 0.443 l 1.154,-1.332 0.444,-2.664 1.509,-2.22 1.688,-3.552 0.622,-3.019 -0.355,-0.622 -0.089,-5.15 -0.888,-1.864 -0.622,0.444 -1.509,0.178 -0.267,-0.267 0.621,-0.533 1.154,-1.064 0.035,-0.602 -0.211,-1.886 0.315,-1.51 -0.065,-1.082 -1.542,-0.961 -2.797,-0.646 -2.272,-0.759 z"
       style="fill:#aaaaaa;stroke:#ffffff;stroke-width:1.25" /><path
       id="NJ_Label"
       d="m 541.056,247.262 h 24.464 c 1.586,0 2.872,1.222 2.872,2.73 v 11.017 c 0,1.508 -1.286,2.73 -2.872,2.73 h -24.464 c -1.587,0 -2.873,-1.223 -2.873,-2.73 v -11.017 c 0,-1.509 1.286,-2.73 2.873,-2.73 z"
       inkscape:connector-curvature="0"
       style="fill:#aaaaaa;stroke:#ffffff;stroke-width:1.25" /></g><g
     id="g3191"><path
       id="DE"
       inkscape:connector-curvature="0"
       sodipodi:nodetypes="cccccccccccccccccccc"
       d="m 490.76,239.726 0.203,-1.18 0.206,-0.928 -0.892,0.218 -0.888,0.257 -1.212,0.97 0.945,2.77 1.243,3.107 1.154,5.327 0.888,3.464 2.753,-0.09 3.374,-0.648 -1.244,-4.057 -0.532,0.267 -1.954,-1.332 -0.977,-2.575 -1.065,-1.954 -1.729,-1.576 -0.475,-1.152 z"
       style="fill:#aaaaaa;stroke:#ffffff;stroke-width:1.25" /><path
       id="DE_Label"
       d="m 541.056,267.584 h 24.464 c 1.586,0 2.872,1.223 2.872,2.73 v 11.017 c 0,1.508 -1.286,2.73 -2.872,2.73 h -24.464 c -1.587,0 -2.873,-1.223 -2.873,-2.73 v -11.017 c 0,-1.507 1.286,-2.73 2.873,-2.73 z"
       inkscape:connector-curvature="0"
       style="fill:#aaaaaa;stroke:#ffffff;stroke-width:1.25" /></g><g
     id="g3205">
    <path
       id="MD"
       inkscape:connector-curvature="0"
       sodipodi:nodetypes="ccccccccccccccccccccccccccccccccccccccccccccccccccsccccccccccccccccccccccccccccsccc"
       d="m 498.541,252.982 -3.3,0.66 -2.824,0.065 -1.014,-3.803 -1.057,-5.036 -1.414,-3.399 -0.707,-2.415 -4.122,0.892 -8.172,1.55 -20.569,4.146 0.621,2.753 0.532,3.108 0.178,-0.178 1.154,-1.332 1.243,-1.438 1.332,-0.338 0.799,-0.799 0.978,-1.421 0.71,0.355 1.598,-0.178 1.421,-1.154 1.103,-0.798 1.014,-0.268 0.903,0.621 1.598,0.8 1.065,0.977 0.667,0.843 2.264,0.933 v 1.599 l 3.019,0.71 0.628,0.298 0.776,-1.114 1.583,1.083 -0.702,1.362 -0.42,2.188 -0.977,1.422 v 1.153 l 0.354,0.978 2.782,0.744 2.367,-0.034 1.687,0.533 1.155,0.178 0.532,-1.154 -0.799,-1.154 v -0.978 l -1.332,-1.153 -1.154,-3.02 0.71,-2.93 -0.089,-1.154 -0.71,-0.711 c 0,0 0.799,-0.888 0.799,-1.243 0,-0.354 0.267,-1.154 0.267,-1.154 l 1.065,-0.711 1.066,-0.887 0.266,0.532 -0.799,0.889 -0.71,2.042 0.177,0.622 0.977,0.177 0.267,3.02 -1.154,0.532 0.178,1.954 0.267,-0.09 0.621,-1.065 0.888,0.978 -0.888,0.71 -0.178,1.864 1.422,1.864 2.131,0.267 0.887,-0.443 1.778,2.298 0.745,0.294 3.656,-1.536 1.102,-2.21 z m -8.771,4.959 0.622,1.376 0.088,0.977 0.622,1.021 c 0,0 0.489,-0.489 0.489,-0.666 0,-0.178 -0.4,-1.688 -0.4,-1.688 l -0.399,-1.288 z"
       style="fill:#aaaaaa;stroke:#ffffff;stroke-width:1.25" />
    <path
       id="MD_Label"
       d="m 541.056,287.906 h 24.464 c 1.586,0 2.872,1.223 2.872,2.73 v 11.017 c 0,1.508 -1.286,2.73 -2.872,2.73 h -24.464 c -1.587,0 -2.873,-1.223 -2.873,-2.73 v -11.017 c 0,-1.507 1.286,-2.73 2.873,-2.73 z"
       inkscape:connector-curvature="0"
       style="fill:#aaaaaa;stroke:#ffffff;stroke-width:1.25" /></g><g
     id="g3209">
    <path
       id="DC"
       inkscape:connector-curvature="0"
       sodipodi:nodetypes="cccccc"
       d="m 479.882,252.119 -1.021,-1.002 -0.677,-0.377 0.792,-1.11 1.587,1.069 z"
       style="fill:#aaaaaa;stroke:#ffffff;stroke-width:1.25" /><path
       id="DC_Label"
       d="m 541.056,308.229 h 24.464 c 1.586,0 2.872,1.223 2.872,2.73 v 11.017 c 0,1.509 -1.286,2.731 -2.872,2.731 h -24.464 c -1.587,0 -2.873,-1.223 -2.873,-2.731 v -11.017 c 0,-1.508 1.286,-2.73 2.873,-2.73 z"
       inkscape:connector-curvature="0"
       style="fill:#aaaaaa;stroke:#ffffff;stroke-width:1.25" /></g><text
     font-size="11.5343"
     id="VT_Text"
     style="font-size:11.53429985px;font-family:TrebuchetMS;fill:#ffffff"
     x="445.8125"
     y="151.9722">VT</text>
<text
     font-size="11.5343"
     id="NH_Text"
     style="font-size:11.53429985px;font-family:TrebuchetMS;fill:#ffffff"
     x="481.01859"
     y="151.9722">NH</text>
<text
     font-size="11.5343"
     id="RI_Text"
     style="font-size:11.53429985px;font-family:TrebuchetMS;fill:#ffffff"
     x="548.39648"
     y="219.02341">RI</text>
<text
     font-size="11.5343"
     id="CT_Text"
     style="font-size:11.53429985px;font-family:TrebuchetMS;fill:#ffffff"
     x="546.31842"
     y="239.3037">CT</text>
<text
     font-size="11.5343"
     id="NJ_Text"
     style="font-size:11.53429985px;font-family:TrebuchetMS;fill:#ffffff"
     x="546.85553"
     y="259.56839">NJ</text>
<text
     font-size="11.5343"
     id="DE_Text"
     style="font-size:11.53429985px;font-family:TrebuchetMS;fill:#ffffff"
     x="546.44238"
     y="279.97659">DE</text>
<text
     font-size="11.5343"
     id="MD_Text"
     style="font-size:11.53429985px;font-family:TrebuchetMS;fill:#ffffff"
     x="545.83112"
     y="300.24219">MD</text>
<path
     id="MA"
     inkscape:connector-curvature="0"
     sodipodi:nodetypes="ccccccccccccccccccccccccccccccccccccccccccccccccccccccccccccccc"
     d="m 531.403,209.503 1.193,-0.377 0.251,-0.941 0.565,0.063 0.565,1.256 -0.691,0.25 -2.135,0.063 z m -5.148,0.438 1.256,-1.443 h 0.88 l 1.004,0.816 -1.318,0.565 -1.193,0.564 z m -19.113,-12.076 9.692,-2.549 1.244,-0.355 1.051,-1.535 2.052,-0.915 1.588,2.424 -1.333,2.841 -0.178,0.799 1.066,1.421 0.621,-0.445 h 0.978 l 1.243,1.421 2.13,3.285 1.954,0.267 1.243,-0.534 0.977,-0.977 -0.443,-1.509 -1.155,-0.888 -0.799,0.445 -0.532,-0.711 0.266,-0.267 1.154,-0.088 0.977,0.443 1.066,1.333 0.532,1.598 0.178,1.332 -2.309,0.799 -2.131,1.065 -2.131,2.486 -1.065,0.8 v -0.534 l 1.331,-0.799 0.267,-0.977 -0.443,-1.688 -1.599,0.8 -0.444,0.799 0.268,1.243 -1.136,0.55 -1.509,-2.487 -1.865,-2.396 -1.137,-0.996 -3.589,1.031 -2.796,0.576 -11.356,2.522 -0.367,-2.618 0.355,-5.815 2.355,-0.489 z"
     style="fill:#aaaaaa;stroke:#ffffff;stroke-width:1.25" /><path
     id="MA_Label"
     d="m 541.056,186.294 h 24.464 c 1.587,0 2.872,1.223 2.872,2.731 v 11.016 c 0,1.509 -1.285,2.731 -2.872,2.731 h -24.464 c -1.587,0 -2.873,-1.222 -2.873,-2.731 v -11.016 c 0,-1.508 1.286,-2.731 2.873,-2.731 z"
     inkscape:connector-curvature="0"
     style="fill:#aaaaaa;stroke:#ffffff;stroke-width:1.25" /><text
     font-size="11.5343"
     id="MA_Text"
     style="font-size:11.53429985px;font-family:TrebuchetMS;fill:#ffffff"
     x="545.75201"
     y="198.6582">MA</text>
<text
     font-size="11.5343"
     id="DC_Text"
     style="font-size:11.53429985px;font-family:TrebuchetMS;fill:#ffffff"
     x="546.10449"
     y="320.59381">DC</text>
  <path
     id="NH_Path"
     inkscape:connector-curvature="0"
     sodipodi:nodetypes="ccc"
     d="M 510.327,165.875 V 147.904 H 503.58"
     style="fill:none;stroke:#b9b9b9;stroke-width:1.25" />
  <path
     id="RI_Path"
     inkscape:connector-curvature="0"
     sodipodi:nodetypes="ccc"
     d="M 538.183,214.855 H 520.07 v -4.127"
     style="fill:none;stroke:#b9b9b9;stroke-width:1.25" />
  <path
     id="DC_Path"
     inkscape:connector-curvature="0"
     sodipodi:nodetypes="ccc"
     d="M 538.183,316.468 H 499.862 L 479.97,251.635"
     style="fill:none;stroke:#b9b9b9;stroke-width:1.25" />
  <path
     id="MD_Path"
     inkscape:connector-curvature="0"
     sodipodi:nodetypes="cccc"
     d="m 538.183,296.146 h -32.188 v -40.614 h -7.784"
     style="fill:none;stroke:#b9b9b9;stroke-width:1.25" />
  <path
     id="DE_Path"
     inkscape:connector-curvature="0"
     sodipodi:nodetypes="cccc"
     d="M 538.183,275.822 H 511.41 v -26.427 h -14.54"
     style="fill:none;stroke:#b9b9b9;stroke-width:1.25" />
  <path
     id="CT_Path"
     inkscape:connector-curvature="0"
     sodipodi:nodetypes="ccc"
     d="M 538.183,235.178 H 511.41 v -20.789"
     style="fill:none;stroke:#b9b9b9;stroke-width:1.25" />
  <path
     id="NJ_Path"
     inkscape:connector-curvature="0"
     sodipodi:nodetypes="cccc"
     d="m 538.183,255.501 h -21.36 V 241.096 H 500.84"
     style="fill:none;stroke:#b9b9b9;stroke-width:1.25" />
  <path
     id="MA_Path"
     inkscape:connector-curvature="0"
     sodipodi:nodetypes="ccc"
     d="m 538.183,194.533 h -12.601 v 7.445"
     style="fill:none;stroke:#b9b9b9;stroke-width:1.25" />
  <path
     id="VT_Path"
     inkscape:connector-curvature="0"
     sodipodi:nodetypes="cccc"
     d="m 500.943,171.339 v -8.558 h -48.406 v -6.639"
     style="fill:none;stroke:#b9b9b9;stroke-width:1.25" />
  <text
     font-size="11.5343"
     id="FL_Text"
     style="font-size:11.53429985px;font-family:TrebuchetMS;fill:#ffffff"
     x="444.33301"
     y="373.11911">FL</text>
</svg>