<svg id="Layer_1" data-name="Layer 1" xmlns="http://www.w3.org/2000/svg" width="250" height="140" viewBox="0 0 250 140"><defs><style>.cls-1{fill:#e0006d;}.cls-2{fill:#fff;}.cls-3{fill:#00638e;}</style></defs><title>Capita-TI</title><g id="CTI_3" data-name="CTI 3"><rect class="cls-1" x="3.14" y="86.15" width="243.72" height="26.68"/><path class="cls-2" d="M31.36,91.79l0,.26c0,.76-1.52,1.29-4.58,1.63l-1.3,0-.34,0A23.94,23.94,0,0,0,24.91,97l.3,5.83v1.73c0,.37-.09.6-.26.67a4.71,4.71,0,0,1-1.49.32,18,18,0,0,1-.75-5.67c-.05-.86-.08-1.68-.08-2.46L22.7,94a3.67,3.67,0,0,0-1.36-.19l-3.23.09h-.56c-.92,0-1.39-.14-1.39-.43v-.2a1.46,1.46,0,0,1,.8-1.16,35.6,35.6,0,0,1,6-.42,44.26,44.26,0,0,0,5.78-.47l1.22,0C30.66,91.22,31.15,91.42,31.36,91.79Z"/><path class="cls-2" d="M36.81,96.71a1.35,1.35,0,0,0,.34.7v.06a8.55,8.55,0,0,0-4.08,4.62,8.66,8.66,0,0,0-.59,2.75,4.19,4.19,0,0,1-1.27.44c0-.25-.26-.49-.79-.73a37.48,37.48,0,0,0-.88-4.29,7.06,7.06,0,0,1-.19-1.59v-.44c.1-.34.42-.55,1-.61h.08c.64,0,1,.45,1.18,1.36l-.05.52a21.18,21.18,0,0,0,2.1-2.19,3.28,3.28,0,0,1,2.13-1h.08C36.49,96.26,36.81,96.4,36.81,96.71Z"/><path class="cls-2" d="M44.34,97.07a29,29,0,0,0,.67,3.54,7.72,7.72,0,0,0,1.36,2.82,2.6,2.6,0,0,1,.51,1.23v.2c0,.24-.14.37-.45.37a1.64,1.64,0,0,1-.61.29,3.28,3.28,0,0,1-1.59-1.39c-.24-.46-.66-1.44-1.28-3l-.19-.25a23,23,0,0,1-2,2.74,3.18,3.18,0,0,1-2.38,1.09,1.6,1.6,0,0,1-1.66-1.33l0-.54c0-1.18.77-2.67,2.31-4.43a14.26,14.26,0,0,1,3.32-2,1.6,1.6,0,0,1,1-.41h.15C43.92,96,44.2,96.37,44.34,97.07ZM39,102.57c.5,0,1-.44,1.52-1.32A5.16,5.16,0,0,0,42,98.49l0,0h-.08a7.2,7.2,0,0,0-2,1.68,3.83,3.83,0,0,0-.89,2.4l0,0Z"/><path class="cls-2" d="M53.39,98.18c.44,3,.76,4.89,1,5.82.08,0,.13.19.17.6v.06c0,.36-.22.54-.69.54h-.07c-.66,0-1-.13-1-.38a10.22,10.22,0,0,1-.78-2.38l-.69-4.17h0a21.23,21.23,0,0,0-2.62,5.26,6.67,6.67,0,0,1-.69,1.29c0-.06-.12-.11-.33-.13h-.47a.25.25,0,0,1-.29-.29l-.37-.66A24,24,0,0,0,47,98.18a3.29,3.29,0,0,0,.69-.48.13.13,0,0,1,.15-.15c.76.12,1.15.23,1.15.34l-.1.29,0,0h0a6.76,6.76,0,0,0,1.17-1.56c.55-.82,1-1.23,1.52-1.23a3.27,3.27,0,0,1,1,.34A14.37,14.37,0,0,1,53.39,98.18Z"/><path class="cls-2" d="M60.74,97.42a2.59,2.59,0,0,1,.23.7,1.46,1.46,0,0,1-1,.53c-1.54.25-2.3.44-2.3.62a2.91,2.91,0,0,0,1.7.94,18.21,18.21,0,0,1,3.45,1.07,1.79,1.79,0,0,1,1,1.58c0,1.09-1,1.82-2.89,2.19a9.17,9.17,0,0,1-1.6.15c-2-.13-2.93-.36-2.93-.69a1,1,0,0,1-.31-.76v-.16a1.39,1.39,0,0,1,.65-1.1,6.44,6.44,0,0,0,2.77.79,2.19,2.19,0,0,0,1.51-.53v0a15,15,0,0,0-3.29-1c-1.6-.47-2.4-1.06-2.4-1.75v-.1q0-1.62,2-2.49a4.55,4.55,0,0,1,1.85-.47h.25C60.24,96.86,60.66,97.05,60.74,97.42Z"/><path class="cls-2" d="M66.54,90.35a9.84,9.84,0,0,1,.23,2.12l-.23,4.87v.52A34.37,34.37,0,0,0,67.3,104v.35c0,.41-.11.65-.36.7a4.84,4.84,0,0,0-.93.2,5.27,5.27,0,0,0-.64-.41,43.54,43.54,0,0,1-.85-7.45v-.92a21.41,21.41,0,0,1,.4-4.1c-.06,0-.13-.22-.18-.69l-.26-.18c.13,0,.25-.41.34-1.2a2.05,2.05,0,0,1,1-.34h.13C66.35,89.91,66.54,90.06,66.54,90.35Z"/><path class="cls-2" d="M75.22,97.07a28,28,0,0,0,.66,3.54,7.89,7.89,0,0,0,1.36,2.82,2.64,2.64,0,0,1,.52,1.23v.2c0,.24-.15.37-.45.37a1.66,1.66,0,0,1-.62.29,3.28,3.28,0,0,1-1.59-1.39c-.24-.46-.66-1.44-1.27-3l-.2-.25a23.05,23.05,0,0,1-2,2.74,3.21,3.21,0,0,1-2.38,1.09,1.61,1.61,0,0,1-1.67-1.33l0-.54c0-1.18.78-2.67,2.32-4.43a14,14,0,0,1,3.31-2,1.6,1.6,0,0,1,1-.41h.15C74.8,96,75.07,96.37,75.22,97.07Zm-5.34,5.5c.5,0,1-.44,1.52-1.32a5.24,5.24,0,0,0,1.44-2.76l0,0h-.08a7.19,7.19,0,0,0-2,1.68,3.83,3.83,0,0,0-.89,2.4l0,0Z"/><path class="cls-2" d="M81.86,90.74a41.07,41.07,0,0,0-.64,6.15v1.36l.44,0a12.17,12.17,0,0,0,3.11-.44l.53,0c.49,0,.73.23.73.7,0,.7-.47,1.1-1.39,1.23a24.31,24.31,0,0,1-3.19.36s-.08.06-.23.06l.2,2.09a1.56,1.56,0,0,1-.2.78,1.13,1.13,0,0,1,.23.76v.32c0,.73-.08,1.12-.23,1.17l-.84-.07c-.08,0-.19.08-.32.23-.57-.24-.86-1.17-.86-2.75s-.08-2.16-.23-2.16c-.19-.21-.87-.31-2-.31a1.12,1.12,0,0,1-1.1-.82v-.1a1.74,1.74,0,0,1,1.76-.86c.49,0,.73,0,.73.1.16,0,.28-.13.36-.4l.1-.07h.27l0-.42a57.11,57.11,0,0,1,.57-7.11A1.31,1.31,0,0,1,80.69,90h.13A1.06,1.06,0,0,1,81.86,90.74Z"/><path class="cls-2" d="M87.57,93l.1.39c0,.41-.42.7-1.28.84h-.24c-.63,0-.94-.22-.94-.56l0-.13v-.18a1.16,1.16,0,0,1,1.24-.76h.18C87.15,92.6,87.47,92.73,87.57,93Zm-.08,7.56v.93l-.06,3.41a2.25,2.25,0,0,1-.78.28l-.23.26h0c-.18,0-.36-.15-.52-.42,0,.13,0,.19-.06.19a2.41,2.41,0,0,1-.49-1.83l.29-3.88c0-.51-.06-1.3-.06-2.35,0-.89.3-1.33.92-1.33.44,0,.65.11.65.32A26.36,26.36,0,0,1,87.49,100.56Z"/><path class="cls-2" d="M94.32,99.79A3.57,3.57,0,0,1,94.5,101v.3a4.44,4.44,0,0,1-1.7,3.62,3.49,3.49,0,0,1-1.68.57H91c-1.12,0-1.93-.71-2.4-2.16a4,4,0,0,1-.16-1.15V102a8.9,8.9,0,0,1,.42-2.72,2.36,2.36,0,0,1,.8-.4,6.13,6.13,0,0,0,.56-.71,3.78,3.78,0,0,1,1.82-.33h0C93.17,97.81,93.92,98.48,94.32,99.79Zm-3.82,2.38c0,.86.24,1.28.58,1.28a2.24,2.24,0,0,0,1.07-1,2.88,2.88,0,0,0,.33-1.25v-.11a2.05,2.05,0,0,0-.7-1.59,1.21,1.21,0,0,0-1,.67c-.13.16-.23.26-.3.27l0,.26Z"/><path class="cls-2" d="M102.16,98.18c.44,3,.76,4.89,1,5.82.08,0,.13.19.18.6v.06c0,.36-.23.54-.7.54h-.06c-.66,0-1-.13-1-.38a9.36,9.36,0,0,1-.78-2.38l-.7-4.17h0a20.88,20.88,0,0,0-2.62,5.26,6.32,6.32,0,0,1-.7,1.29c0-.06-.11-.11-.32-.13H96c-.2,0-.29-.09-.29-.29l-.38-.66a23.44,23.44,0,0,0,.44-5.56,3.56,3.56,0,0,0,.7-.48c0-.1,0-.15.14-.15.76.12,1.15.23,1.15.34l-.09.29,0,0h0a7.06,7.06,0,0,0,1.17-1.56c.55-.82,1-1.23,1.52-1.23a3.27,3.27,0,0,1,1,.34A16.5,16.5,0,0,1,102.16,98.18Z"/><path class="cls-2" d="M116.29,97.07a29,29,0,0,0,.67,3.54,7.72,7.72,0,0,0,1.36,2.82,2.6,2.6,0,0,1,.51,1.23v.2c0,.24-.14.37-.45.37a1.64,1.64,0,0,1-.61.29,3.28,3.28,0,0,1-1.59-1.39c-.24-.46-.66-1.44-1.28-3l-.19-.25a24.24,24.24,0,0,1-2,2.74,3.21,3.21,0,0,1-2.38,1.09,1.61,1.61,0,0,1-1.67-1.33l0-.54c0-1.18.77-2.67,2.31-4.43a14.26,14.26,0,0,1,3.32-2,1.6,1.6,0,0,1,1-.41h.14C115.87,96,116.15,96.37,116.29,97.07Zm-5.34,5.5c.5,0,1-.44,1.52-1.32a5.16,5.16,0,0,0,1.44-2.76l0,0h-.08a7.2,7.2,0,0,0-2,1.68,3.83,3.83,0,0,0-.89,2.4l0,0Z"/><path class="cls-2" d="M125.34,98.18c.44,3,.76,4.89,1,5.82.08,0,.13.19.17.6v.06c0,.36-.22.54-.69.54h-.07c-.66,0-1-.13-1-.38a10.22,10.22,0,0,1-.78-2.38l-.69-4.17h0a21.23,21.23,0,0,0-2.62,5.26,6.67,6.67,0,0,1-.69,1.29c0-.06-.12-.11-.33-.13h-.47a.25.25,0,0,1-.29-.29l-.37-.66a24,24,0,0,0,.44-5.56,3.29,3.29,0,0,0,.69-.48.13.13,0,0,1,.15-.15c.76.12,1.15.23,1.15.34l-.1.29,0,0h0A7,7,0,0,0,122,96.66c.55-.82,1-1.23,1.52-1.23a3.27,3.27,0,0,1,1,.34A14.37,14.37,0,0,1,125.34,98.18Z"/><path class="cls-2" d="M134.36,91.71c.21.14.33,1,.37,2.49v3.14a12.2,12.2,0,0,0,1.58,5.35,2.08,2.08,0,0,1,.64,1.06l0,.23a2.75,2.75,0,0,1-.55,1h-.49c-.73,0-1.26-.49-1.57-1.46a3.49,3.49,0,0,0-.71-1.12,4.32,4.32,0,0,1-1.77,1.94,7.9,7.9,0,0,1-3.62.81,4.56,4.56,0,0,1-.8-.63,6.24,6.24,0,0,1-.16-1.1v-.19c0-.6.65-1.57,2-2.92a6.6,6.6,0,0,1,3-1.7.56.56,0,0,0,.39-.53c-.24-2.48-.35-4.15-.35-5v-.89l1.05-.78a.66.66,0,0,1,.31-.1H134C134,91.47,134.1,91.6,134.36,91.71ZM132.31,101a1.21,1.21,0,0,0,.16-.5,3.71,3.71,0,0,0-2.19,1.65,3.51,3.51,0,0,0-.5,1l.28,0C131,103.19,131.72,102.46,132.31,101Z"/><path class="cls-2" d="M145.08,93l.1.39c0,.41-.42.7-1.28.84h-.24c-.64,0-.94-.22-.94-.56l0-.13v-.18a1.18,1.18,0,0,1,1.25-.76h.18C144.66,92.6,145,92.73,145.08,93Zm-.08,7.56v.93l-.07,3.41a2.11,2.11,0,0,1-.77.28l-.23.26h0c-.18,0-.36-.15-.52-.42,0,.13,0,.19-.07.19a2.46,2.46,0,0,1-.48-1.83l.29-3.88c-.05-.51-.06-1.3-.06-2.35,0-.89.3-1.33.92-1.33.44,0,.65.11.65.32A26.36,26.36,0,0,1,145,100.56Z"/><path class="cls-2" d="M152.83,98.18c.44,3,.77,4.89,1,5.82.08,0,.13.19.18.6v.06c0,.36-.23.54-.7.54h-.06c-.67,0-1-.13-1-.38a10.22,10.22,0,0,1-.78-2.38l-.69-4.17h0a20.82,20.82,0,0,0-2.63,5.26,6.06,6.06,0,0,1-.69,1.29c0-.06-.12-.11-.33-.13h-.47a.25.25,0,0,1-.29-.29l-.37-.66a24,24,0,0,0,.44-5.56,3.29,3.29,0,0,0,.69-.48.13.13,0,0,1,.15-.15c.76.12,1.15.23,1.15.34l-.1.29,0,0h0a6.74,6.74,0,0,0,1.16-1.56c.55-.82,1.05-1.23,1.52-1.23a3.27,3.27,0,0,1,1,.34A14.37,14.37,0,0,1,152.83,98.18Z"/><path class="cls-2" d="M159.25,90.74a41.07,41.07,0,0,0-.64,6.15v1.36l.44,0a12.17,12.17,0,0,0,3.11-.44l.53,0c.49,0,.73.23.73.7,0,.7-.47,1.1-1.39,1.23a24.31,24.31,0,0,1-3.19.36s-.08.06-.23.06l.2,2.09a1.56,1.56,0,0,1-.2.78,1.13,1.13,0,0,1,.23.76v.32c0,.73-.08,1.12-.23,1.17l-.84-.07c-.08,0-.19.08-.32.23-.57-.24-.86-1.17-.86-2.75s-.08-2.16-.23-2.16c-.19-.21-.87-.31-2-.31a1.12,1.12,0,0,1-1.1-.82v-.1a1.74,1.74,0,0,1,1.76-.86c.49,0,.73,0,.73.1.16,0,.28-.13.36-.4l.1-.07h.27l0-.42a57.11,57.11,0,0,1,.57-7.11,1.31,1.31,0,0,1,1.08-.53h.13A1.06,1.06,0,0,1,159.25,90.74Z"/><path class="cls-2" d="M168.39,99.43c0,1-.82,1.91-2.46,2.56v0a2,2,0,0,0,1.7,1.1c1,0,2-.76,3.06-2.3.67-.74,1.18-1.11,1.54-1.11h.06l.05.06v.33l0,.12a.18.18,0,0,0,.13.12c.15,0,.23-.12.28-.34h.06v0a3.81,3.81,0,0,1-.92,1.76,2.06,2.06,0,0,0-.24.64c-.28.06-.43.17-.43.35a4.85,4.85,0,0,1-2.62,2.06,4.94,4.94,0,0,1-.94.13h-.32c-1.56,0-3.08-1.12-4.58-3.37L162.57,99V98.8c0-1,.34-1.7,1-2a4.19,4.19,0,0,1,1.95-.61c1.1,0,2,.71,2.69,2.15A4.92,4.92,0,0,1,168.39,99.43Zm-2.2.67a2.19,2.19,0,0,0,.11-.64,1.31,1.31,0,0,0-.84-1.32l-.24,0c-.34,0-.5.1-.5.31a2,2,0,0,0-.18.92,1.54,1.54,0,0,0,.53,1.33A2.3,2.3,0,0,0,166.19,100.1Z"/><path class="cls-2" d="M179.22,96.71a1.29,1.29,0,0,0,.35.7v.06a9,9,0,0,0-4.68,7.37,4.19,4.19,0,0,1-1.27.44c0-.25-.26-.49-.79-.73a38.73,38.73,0,0,0-.87-4.29,6.54,6.54,0,0,1-.2-1.59v-.44c.1-.34.42-.55,1-.61h.08c.65,0,1,.45,1.18,1.36l0,.52A22.13,22.13,0,0,0,176,97.31a3.24,3.24,0,0,1,2.12-1h.08C178.9,96.26,179.22,96.4,179.22,96.71Z"/><path class="cls-2" d="M186,98.07a3.14,3.14,0,0,1,.73,1.8q0,1.3-1.8,2.82a4.65,4.65,0,0,1-2.76,1H182a47.31,47.31,0,0,0,.33,7.19l0,0h-.48a.34.34,0,0,0-.15.18c-.9-.23-1.36-.49-1.36-.78a26,26,0,0,1-.51-6l.24-3.95a4.79,4.79,0,0,0-.24-1.49s-.07.08-.09.23h-.06c-.05,0-.11-.1-.16-.27v-.1a1,1,0,0,1,.34-.67h-.05a.18.18,0,0,0-.16.18h-.07v0c0-.37.31-.73.91-1.07l.39-.47C183.26,96.71,185,97.17,186,98.07Zm-2.17,3.26a2.68,2.68,0,0,0,.78-2.06,3.27,3.27,0,0,0-1.89-.89c-.31,0-.47.08-.47.26l-.12,3.12,0,.16A3.37,3.37,0,0,0,183.82,101.33Z"/><path class="cls-2" d="M194.78,96.71a1.29,1.29,0,0,0,.35.7v.06a8.53,8.53,0,0,0-4.09,4.62,8.66,8.66,0,0,0-.59,2.75,4.19,4.19,0,0,1-1.27.44c0-.25-.26-.49-.79-.73a38.73,38.73,0,0,0-.87-4.29,6.54,6.54,0,0,1-.2-1.59v-.44c.1-.34.42-.55,1-.61h.08c.64,0,1,.45,1.18,1.36l0,.52a22.13,22.13,0,0,0,2.11-2.19,3.24,3.24,0,0,1,2.12-1h.08C194.46,96.26,194.78,96.4,194.78,96.71Z"/><path class="cls-2" d="M200.9,99.43c0,1-.82,1.91-2.46,2.56v0a2,2,0,0,0,1.7,1.1c1,0,2-.76,3.06-2.3.67-.74,1.18-1.11,1.54-1.11h.07l0,.06v.33l0,.12a.18.18,0,0,0,.13.12c.15,0,.23-.12.28-.34h.06v0a3.81,3.81,0,0,1-.92,1.76,2.06,2.06,0,0,0-.24.64c-.28.06-.42.17-.42.35a4.16,4.16,0,0,1-3.57,2.19h-.32q-2.32,0-4.58-3.37L195.08,99V98.8c0-1,.34-1.7,1-2a4.12,4.12,0,0,1,1.94-.61c1.1,0,2,.71,2.69,2.15A4.92,4.92,0,0,1,200.9,99.43Zm-2.2.67a2.26,2.26,0,0,0,.12-.64,1.32,1.32,0,0,0-.85-1.32l-.24,0c-.34,0-.5.1-.5.31a2,2,0,0,0-.18.92,1.54,1.54,0,0,0,.53,1.33A2.3,2.3,0,0,0,198.7,100.1Z"/><path class="cls-2" d="M208.92,90.74a40.82,40.82,0,0,0-.63,6.15v1.36l.43,0a12.17,12.17,0,0,0,3.11-.44l.54,0c.48,0,.73.23.73.7,0,.7-.47,1.1-1.4,1.23a24.31,24.31,0,0,1-3.19.36s-.08.06-.22.06l.19,2.09a1.55,1.55,0,0,1-.19.78,1.19,1.19,0,0,1,.22.76v.32c0,.73-.08,1.12-.22,1.17l-.84-.07c-.09,0-.2.08-.33.23-.57-.24-.86-1.17-.86-2.75s-.08-2.16-.22-2.16c-.2-.21-.88-.31-2-.31a1.13,1.13,0,0,1-1.1-.82v-.1a1.74,1.74,0,0,1,1.77-.86c.48,0,.73,0,.73.1.16,0,.27-.13.35-.4l.1-.07h.27l0-.42a59.12,59.12,0,0,1,.57-7.11,1.33,1.33,0,0,1,1.08-.53h.13A1.06,1.06,0,0,1,208.92,90.74Z"/><path class="cls-2" d="M214.63,93l.1.39c0,.41-.42.7-1.28.84h-.24c-.63,0-.94-.22-.94-.56l0-.13v-.18a1.16,1.16,0,0,1,1.24-.76h.18C214.21,92.6,214.54,92.73,214.63,93Zm-.08,7.56v.93l-.06,3.41a2.25,2.25,0,0,1-.78.28l-.23.26h0c-.18,0-.35-.15-.52-.42,0,.13,0,.19-.06.19a2.46,2.46,0,0,1-.49-1.83l.29-3.88c0-.51-.06-1.3-.06-2.35,0-.89.31-1.33.92-1.33.44,0,.65.11.65.32A26.36,26.36,0,0,1,214.55,100.56Z"/><path class="cls-2" d="M222.39,98.18c.44,3,.76,4.89,1,5.82.08,0,.13.19.18.6v.06c0,.36-.23.54-.7.54h-.06c-.66,0-1-.13-1-.38a9.36,9.36,0,0,1-.78-2.38l-.7-4.17h0a20.88,20.88,0,0,0-2.62,5.26,6.32,6.32,0,0,1-.7,1.29c0-.06-.11-.11-.32-.13h-.47c-.2,0-.29-.09-.29-.29l-.38-.66a23.44,23.44,0,0,0,.44-5.56,3.56,3.56,0,0,0,.7-.48c0-.1.05-.15.14-.15.76.12,1.15.23,1.15.34l-.09.29,0,0h0a7.06,7.06,0,0,0,1.17-1.56c.55-.82,1-1.23,1.52-1.23a3.27,3.27,0,0,1,1,.34A16.5,16.5,0,0,1,222.39,98.18Z"/><path class="cls-2" d="M231.67,98a.26.26,0,0,1,.17.26,1.09,1.09,0,0,0-.32.27c.13,2.79.19,4.86.19,6.24,0,2.63-.22,4.32-.66,5a2.88,2.88,0,0,1-2.59,2,3.67,3.67,0,0,1-2.72-1.25l-.06-.11v-.13a3.07,3.07,0,0,0-.83-1.49,2.08,2.08,0,0,1-.34-1,.78.78,0,0,1,.24-.65h.15q.12,0,.48.36c.26,0,.39.05.39.16a3.87,3.87,0,0,0,1.59,1.83s.31.2.84.57a2,2,0,0,0,1.13-.89,7.18,7.18,0,0,0,.52-3l-.09-3.89,0-.63a14.25,14.25,0,0,0-1.44,2.13,2.46,2.46,0,0,1-1.77,1.06h-.24a1.91,1.91,0,0,1-1.26-.73,1,1,0,0,1-.52-.82,3.08,3.08,0,0,1-.21-1.23v-.23a4.45,4.45,0,0,1,2.72-4.08,5,5,0,0,1,2-.43h.27A3.16,3.16,0,0,1,231.67,98Zm-5.27,4.74a3.77,3.77,0,0,0,1.51-1.65c.45-.81.86-1.49,1.21-2,0-.08,0-.12-.11-.12a3.05,3.05,0,0,0-1.76.84,3,3,0,0,0-.91,2.06V102Z"/></g><g id="Capita_CMYK" data-name="Capita CMYK"><polygon class="cls-3" points="201.82 28.55 163.81 28.55 163.81 33.88 178.04 33.88 178.04 76.57 186.94 76.57 186.94 33.88 199.36 33.88 201.82 28.55"/><path class="cls-3" d="M116.28,28.55H101.56v48h8.89V58.79h5.83c12,0,17.14-7.4,17.14-15.13S128.28,28.55,116.28,28.55Zm-.9,23.12h-4.93V33.88h4.93c6.66,0,8.55,3.08,8.55,8.86S122,51.67,115.38,51.67Z"/><rect class="cls-3" x="144.25" y="28.55" width="8.89" height="48.03"/><path class="cls-3" d="M26.63,33.62a20.69,20.69,0,0,1,11.12,3.65L40,31c-3.21-2.39-8.22-3.8-13.46-3.8a22.76,22.76,0,0,0-20,11.2C4.18,42.5,3,47.35,3,53.2c0,7,2.11,13,6.18,17.39,4.22,4.58,9.93,7,17.13,7a43.72,43.72,0,0,0,10.76-1.5l2.54-7A41.82,41.82,0,0,1,27.17,71.3c-5.24,0-9.7-2.26-12-6.9C13.72,61.65,13,58.27,13,52.29c0-5.78.94-9.87,2.82-12.83A12.34,12.34,0,0,1,26.63,33.62Z"/><path class="cls-3" d="M73.8,28.55H64.5l-17.36,48h8.58L59.5,65.9H77.06l3.81,10.67H91.16ZM61.5,58.79l6.78-19.15L75,58.79Z"/><path class="cls-3" d="M228.63,28.55h-9.29L202,76.57h8.57l3.78-10.67H231.9l3.81,10.67H246ZM216.34,58.79l6.78-19.15,6.75,19.15Z"/></g></svg>