<?xml version="1.0" ?><svg height="60px" version="1.1" viewBox="0 0 60 60" width="60px" xmlns="http://www.w3.org/2000/svg" xmlns:xlink="http://www.w3.org/1999/xlink"><title/><desc/><defs/><g fill="none" fill-rule="evenodd" id="Page-1" stroke="none" stroke-width="1"><g id="Social_icons" transform="translate(-422.000000, -1455.000000)"><g id="Tinder" transform="translate(422.000000, 1455.000000)"><circle cx="30" cy="30" fill="#FFFFFF" id="Oval" r="30"/><path d="M33.0467177,13.6933995 C34.0473629,14.5657568 34.791689,15.7203474 35.7666766,16.6183623 C36.9725823,17.7729529 37.7423093,19.2354343 38.7429545,20.5439703 C40.4876691,23.1866998 42.0271232,26.0090323 42.8225079,29.0879406 C43.6435501,31.1918612 43.7718379,33.4753847 43.7205228,35.7332508 C43.7718379,37.7858562 43.2073714,39.8128041 42.2834424,41.6601491 C40.6929297,44.456824 37.819282,46.3298265 34.81709,47.3304717 C31.071085,48.2284866 26.9402165,48.382432 23.3224993,46.7916627 C22.0137067,46.0732508 20.5258244,45.585757 19.4738641,44.456824 C17.0363951,42.4555337 15.6252288,39.1970225 16.087065,36.0411416 C16.8054769,30.4221341 20.1666184,25.5985112 23.758678,21.4419852 C24.0922264,22.0577668 23.8097365,22.7761787 24.0409112,23.4176179 C24.348802,24.7774691 24.8362958,26.2142929 25.8625986,27.1892805 C27.1198194,26.0346899 28.4542696,24.8800993 29.5318874,23.5459058 C30.506875,22.1090819 31.3020031,20.5183127 31.6355515,18.8249132 C31.7127808,16.6696774 31.9180413,14.4118114 31.0967425,12.359206 L31.1737152,12 C31.9434423,12.359206 32.4309361,13.1032754 33.0467177,13.6933995 Z" fill="#DF4723" id="Shape" stroke="#DF4723" stroke-width="0.0938"/></g></g></g></svg>