<svg xmlns="http://www.w3.org/2000/svg" viewBox="0 0 20 20"><defs><style>.cls-1{fill:#fff;}</style></defs><title>Asset 1</title><g id="Layer_2" data-name="Layer 2"><g id="Layer_1-2" data-name="Layer 1"><g id="Page-1"><g id="Core"><g id="language"><path id="Shape" class="cls-1" d="M10,0A10,10,0,1,0,20,10,10,10,0,0,0,10,0Zm6.9,6H14a15.81,15.81,0,0,0-1.4-3.6A8,8,0,0,1,16.9,6ZM10,2a13.43,13.43,0,0,1,1.9,4H8.1A14.7,14.7,0,0,1,10,2ZM2.3,12A6.45,6.45,0,0,1,2,10a6.45,6.45,0,0,1,.3-2H5.7a13.4,13.4,0,0,0-.1,2c0,.7.1,1.3.1,2Zm.8,2H6a15.81,15.81,0,0,0,1.4,3.6A8,8,0,0,1,3.1,14ZM6,6H3.1A8.43,8.43,0,0,1,7.4,2.4,15.81,15.81,0,0,0,6,6Zm4,12a13.43,13.43,0,0,1-1.9-4h3.8A14.7,14.7,0,0,1,10,18Zm2.3-6H7.7a13.55,13.55,0,0,1-.2-2,13.55,13.55,0,0,1,.2-2h4.7a13.55,13.55,0,0,1,.2,2,13.8,13.8,0,0,1-.3,2Zm.3,5.6A14.19,14.19,0,0,0,14,14h2.9a8,8,0,0,1-4.3,3.6ZM14.4,12a13.4,13.4,0,0,0,.1-2c0-.7-.1-1.3-.1-2h3.4a6.45,6.45,0,0,1,.3,2,6.45,6.45,0,0,1-.3,2Z"/></g></g></g></g></g></svg>