<svg xmlns="http://www.w3.org/2000/svg" viewBox="0 0 384 384"><defs><style>.cls-1{fill:#fff;}</style></defs><title>Asset 1</title><g id="Layer_2" data-name="Layer 2"><g id="Layer_1-2" data-name="Layer 1"><path class="cls-1" d="M347.1,192c0-23.9,14.8-42.8,36.9-55.8A203.45,203.45,0,0,0,368.2,98c-24.9,6.5-45-3.2-62-20.2s-22.1-37.1-15.6-62A200.73,200.73,0,0,0,252.4,0C239.4,22.2,216,36.9,192,36.9S144.6,22.2,131.6,0A200.73,200.73,0,0,0,93.4,15.8c6.5,24.9,1.3,45-15.6,62S40.7,104.5,15.9,98A194.76,194.76,0,0,0,0,136.2c22.2,13,37,31.9,37,55.8S22.2,239.4,0,252.4a200.73,200.73,0,0,0,15.8,38.2c24.9-6.5,45-1.3,61.9,15.6s22.1,37.1,15.6,62A203.45,203.45,0,0,0,131.5,384c13-22.2,36.5-36.9,60.4-36.9s47.4,14.7,60.4,36.9a200.73,200.73,0,0,0,38.2-15.8c-6.5-24.9-1.3-45,15.6-62s37.1-26.7,62-20.2a206.24,206.24,0,0,0,15.8-38.2C361.8,234.8,347.1,215.9,347.1,192ZM192,290.3A98.3,98.3,0,1,1,290.3,192,98.35,98.35,0,0,1,192,290.3Z"/></g></g></svg>