<?xml version="1.0" encoding="utf-8"?>
<!-- Generator: Adobe Illustrator 19.1.0, SVG Export Plug-In . SVG Version: 6.00 Build 0)  -->
<svg version="1.1" id="Layer_1" xmlns="http://www.w3.org/2000/svg" xmlns:xlink="http://www.w3.org/1999/xlink" x="0px" y="0px"
	 viewBox="0 0 400 400" style="enable-background:new 0 0 400 400;" xml:space="preserve">
<g>
	<path d="M296.1,295.7L249,229.1h20.5c1.9,0,3.7-1.1,4.5-2.9c0.8-1.8,0.5-3.8-0.7-5.3L227,166.2h20.2c1.9,0,3.6-1,4.4-2.7
		c0.9-1.6,0.7-3.6-0.3-5.2l-47.5-69.1c-0.9-1.4-2.5-2.2-4.1-2.2c-1.6,0-3.2,0.8-4.1,2.2L148,158.4c-1.1,1.5-1.2,3.5-0.3,5.2
		c0.9,1.6,2.6,2.7,4.4,2.7h20.2L126,220.9c-1.3,1.5-1.5,3.6-0.7,5.3c0.8,1.8,2.6,2.9,4.5,2.9h20.5l-47.1,66.5
		c-1.1,1.5-1.2,3.5-0.4,5.2c0.9,1.7,2.6,2.7,4.4,2.7h53l-0.1,35.5c0,1.3,0.5,2.6,1.5,3.5c0.9,0.9,2.2,1.5,3.5,1.5H234
		c2.8,0,5-2.2,5-5v-35.5h53c1.9,0,3.6-1,4.4-2.7C297.3,299.2,297.2,297.2,296.1,295.7z M199.7,100.9l36.8,53.5h-73.6L199.7,100.9z
		 M186.9,164.4C186.9,164.4,186.9,164.4,186.9,164.4l25.4,0c0,0,0,0,0,0l46.4,54.7h-19.4H160h-8h-11.4L186.9,164.4z M185.3,293.6
		c-2.8,0-5,2.2-5,5s2.2,5,5,5H229v30.5h-58.9l0.1-35.5c0-1.3-0.5-2.6-1.5-3.5c-0.9-0.9-2.2-1.5-3.5-1.5h-48.3l45.6-64.4h74.2
		l45.6,64.4H185.3z"/>
	<circle cx="278.1" cy="241.2" r="7.5"/>
	<circle cx="256.7" cy="177" r="7.5"/>
	<circle cx="140.9" cy="177" r="7.5"/>
	<circle cx="121.2" cy="241.2" r="7.5"/>
	<polygon points="191.3,81.1 199.7,76.7 208,81.1 206.4,71.8 213.2,65.2 203.8,63.9 199.7,55.4 195.5,63.9 186.1,65.2 192.9,71.8 	
		"/>
</g>
</svg>
