<?xml version="1.0" encoding="utf-8"?>
<!-- Generator: Adobe Illustrator 19.1.0, SVG Export Plug-In . SVG Version: 6.00 Build 0)  -->
<svg version="1.1" id="Layer_1" xmlns="http://www.w3.org/2000/svg" xmlns:xlink="http://www.w3.org/1999/xlink" x="0px" y="0px"
	 viewBox="0 0 400 400" style="enable-background:new 0 0 400 400;" xml:space="preserve">
<style type="text/css">
	.st0{fill:#231F20;}
</style>
<g>
	<path class="st0" d="M214.5,173.2c7.2,9.6,12.4,20.9,15.1,32.7c0.5,2.3,2.6,3.9,4.9,3.9c0.4,0,0.7,0,1.1-0.1c2.7-0.6,4.4-3.3,3.8-6
		c-2.9-13.2-8.7-25.8-16.8-36.5c-1.7-2.2-4.8-2.6-7-1C213.3,167.9,212.9,171,214.5,173.2z"/>
	<circle class="st0" cx="208.9" cy="160" r="5.9"/>
	<path class="st0" d="M259.6,219.2c0-0.5-0.1-1.1-0.3-1.6c-1.3-21.4-7.1-41.3-16.7-56.8c-4.9-7.9-10.6-14.3-16.8-19
		c0.2-0.6,0.4-1.2,0.4-1.9v-19c0-9.4-7.6-17-17-17h-20c-9.4,0-17,7.6-17,17v19c0,0.7,0.1,1.3,0.4,1.9
		c-20.7,15.6-33.8,48.2-33.8,84.7c0,31.4,13.1,54.8,20.9,66c12.2,17.4,27.3,28.3,39.5,28.3c22.8,0,60.4-44,60.4-94.2
		c0-2.1-0.1-4.2-0.1-6.3C259.6,219.9,259.6,219.6,259.6,219.2z M181.7,147.7c2.3-1.5,3-4.6,1.6-6.9c-0.3-0.5-0.7-0.8-1-1.2V121
		c0-3.9,3.1-7,7-7h20c3.9,0,7,3.1,7,7v15.1c-5.4-2.4-11.1-3.7-17-3.7c-2.2,0-4.4,0.2-6.6,0.5c-2.7,0.5-4.6,3-4.1,5.8
		c0.5,2.7,3,4.6,5.8,4.1c1.6-0.3,3.3-0.4,4.9-0.4c13,0,25.4,8.4,34.9,23.8c8.2,13.1,13.3,29.9,14.9,48h-99.7
		C152.1,184.4,164.4,158.6,181.7,147.7z M249.6,226.6c0,10.2-1.6,19.5-4,27.7h-93c-2.4-8.6-3.8-17.9-3.8-27.7c0-0.8,0-1.6,0-2.4
		h100.8C249.6,225,249.6,225.8,249.6,226.6z M199.2,310.8c-12,0-32.5-18.5-43.3-46.5h86.2c-4,9.8-8.7,17.5-12.3,22.5
		C218.5,302.6,205.9,310.8,199.2,310.8z"/>
	<path class="st0" d="M198.7,249.9c7,0,12.7-5.7,12.7-12.7c0-7-5.7-12.7-12.7-12.7c-7,0-12.7,5.7-12.7,12.7
		C186,244.2,191.7,249.9,198.7,249.9z M198.7,234.6c1.5,0,2.7,1.2,2.7,2.7c0,1.5-1.2,2.7-2.7,2.7c-1.5,0-2.7-1.2-2.7-2.7
		C196,235.8,197.2,234.6,198.7,234.6z"/>
	<path class="st0" d="M167.1,249.9c7,0,12.7-5.7,12.7-12.7c0-7-5.7-12.7-12.7-12.7c-7,0-12.7,5.7-12.7,12.7
		C154.4,244.2,160.1,249.9,167.1,249.9z M167.1,234.6c1.5,0,2.7,1.2,2.7,2.7c0,1.5-1.2,2.7-2.7,2.7c-1.5,0-2.7-1.2-2.7-2.7
		C164.4,235.8,165.6,234.6,167.1,234.6z"/>
	<path class="st0" d="M230.5,249.9c7,0,12.7-5.7,12.7-12.7c0-7-5.7-12.7-12.7-12.7c-7,0-12.7,5.7-12.7,12.7
		C217.8,244.2,223.5,249.9,230.5,249.9z M230.5,234.6c1.5,0,2.7,1.2,2.7,2.7c0,1.5-1.2,2.7-2.7,2.7c-1.5,0-2.7-1.2-2.7-2.7
		C227.8,235.8,229,234.6,230.5,234.6z"/>
	<path class="st0" d="M183.7,101.3c2.8,0,5-2.2,5-5c0-5.5,4.5-10,10-10c5.5,0,10,4.5,10,10c0,2.8,2.2,5,5,5s5-2.2,5-5
		c0-11-9-20-20-20c-11,0-20,9-20,20C178.7,99.1,180.9,101.3,183.7,101.3z"/>
</g>
</svg>
