<?xml version="1.0" encoding="utf-8"?>
<!-- Generator: Adobe Illustrator 19.1.0, SVG Export Plug-In . SVG Version: 6.00 Build 0)  -->
<svg version="1.1" id="Layer_1" xmlns="http://www.w3.org/2000/svg" xmlns:xlink="http://www.w3.org/1999/xlink" x="0px" y="0px"
	 viewBox="0 0 400 400" style="enable-background:new 0 0 400 400;" xml:space="preserve">
<style type="text/css">
	.st0{fill:#231F20;}
</style>
<g>
	<path class="st0" d="M222.3,167.2c-1.7-2.2-4.8-2.6-7-1c-2.2,1.7-2.6,4.8-1,7c10.6,14.1,16.7,31.6,17,49.3c0.1,2.7,2.3,4.9,5,4.9
		c0,0,0.1,0,0.1,0c2.8-0.1,5-2.3,4.9-5.1C240.9,202.6,234.2,183,222.3,167.2z"/>
	<circle class="st0" cx="208.6" cy="160" r="5.9"/>
	<path class="st0" d="M242.4,160.9c-4.9-7.9-10.6-14.3-16.8-19c0.2-0.6,0.4-1.2,0.4-1.9v-19c0-9.4-7.6-17-17-17h-20
		c-9.4,0-17,7.6-17,17v19c0,0.7,0.1,1.3,0.4,1.9c-20.7,15.6-33.8,48.2-33.8,84.7c0,31.4,13.1,54.8,20.9,66
		c12.2,17.4,27.3,28.3,39.5,28.3c22.8,0,60.4-44,60.4-94.2C259.4,201.8,253.3,178.5,242.4,160.9z M199,310.8
		c-16.8,0-50.4-36.4-50.4-84.2c0-34.8,13.2-66.5,32.9-78.9c2.3-1.5,3-4.6,1.6-6.9c-0.3-0.5-0.7-0.8-1-1.2V121c0-3.9,3.1-7,7-7h20
		c3.9,0,7,3.1,7,7v15.1c-5.4-2.4-11.1-3.7-17-3.7c-2.2,0-4.4,0.2-6.6,0.5c-2.7,0.5-4.6,3-4.1,5.8c0.5,2.7,3,4.6,5.8,4.1
		c1.6-0.3,3.3-0.4,4.9-0.4c13,0,25.4,8.4,34.9,23.8c10,16.1,15.5,37.5,15.5,60.5c0,28.2-12.4,49.8-19.8,60.2
		C218.3,302.6,205.6,310.8,199,310.8z"/>
	<path class="st0" d="M184,101.3c2.8,0,5-2.2,5-5c0-5.5,4.5-10,10-10c5.5,0,10,4.5,10,10c0,2.8,2.2,5,5,5c2.8,0,5-2.2,5-5
		c0-11-9-20-20-20s-20,9-20,20C179,99.1,181.2,101.3,184,101.3z"/>
</g>
</svg>
