<?xml version="1.0" encoding="utf-8"?>
<!-- Generator: Adobe Illustrator 19.1.0, SVG Export Plug-In . SVG Version: 6.00 Build 0)  -->
<svg version="1.1" id="Layer_1" xmlns="http://www.w3.org/2000/svg" xmlns:xlink="http://www.w3.org/1999/xlink" x="0px" y="0px"
	 viewBox="0 0 400 400" style="enable-background:new 0 0 400 400;" xml:space="preserve">
<style type="text/css">
	.st0{fill:#231F20;}
</style>
<g>
	<path class="st0" d="M265,159.8c-0.1-0.1-0.1-0.2-0.2-0.3c-0.1-0.1-0.3-0.3-0.4-0.4c-10.9-10.6-24.2-18.6-39.2-23V121
		c0-9.4-7.6-17-17-17h-20c-9.4,0-17,7.6-17,17v19c0,2.8,2.2,5,5,5c2.8,0,5-2.2,5-5v-19c0-3.9,3.1-7,7-7h20c3.9,0,7,3.1,7,7v12.8
		c-5.4-1-10.9-1.5-16.6-1.5c-3.3,0-6.5,0.2-9.8,0.5c-2.7,0.3-4.7,2.7-4.5,5.5c0.3,2.7,2.7,4.7,5.5,4.5c1.2-0.1,2.4-0.2,3.7-0.3
		L114.7,219c1.3-14.5,6.3-28.4,14.7-40.4c9.6-13.8,22.9-24.4,38.5-30.5c2.6-1,3.8-3.9,2.8-6.5c-1-2.6-3.9-3.8-6.5-2.8
		c-17.5,6.8-32.4,18.6-43.1,34.1c-11,15.8-16.8,34.4-16.8,53.7c0,52,42.3,94.2,94.2,94.2c52,0,94.2-42.3,94.2-94.2
		C292.8,200.5,282.2,176.9,265,159.8z M164.1,303.4l112.3-109c2.7,6.6,4.7,13.7,5.6,21c-0.1,0-0.1,0.1-0.2,0.1l-97,94.1
		C177.6,308.5,170.6,306.4,164.1,303.4z M140.2,287.3c0.1-0.1,0.3-0.2,0.4-0.3L261,170.1c4.1,4.5,7.7,9.5,10.7,14.9l-117,113.5
		C149.5,295.3,144.7,291.5,140.2,287.3z M114.6,233l92.9-90.2c7.3,0.8,14.3,2.5,20.9,5L119,254.1C116.6,247.4,115.2,240.3,114.6,233
		z M122.5,262.7c1.2,0,2.4-0.5,3.4-1.4l112.3-109c5.6,3,10.9,6.7,15.7,10.9L133.7,279.8c-0.1,0.1-0.1,0.2-0.2,0.3
		C129.2,274.8,125.4,268.9,122.5,262.7z M198.6,310.8c-0.2,0-0.3,0-0.5,0l84.7-82.2C281.7,274.2,244.3,310.8,198.6,310.8z"/>
	<path class="st0" d="M184.2,101.3c2.8,0,5-2.2,5-5c0-5.5,4.5-10,10-10c5.5,0,10,4.5,10,10c0,2.8,2.2,5,5,5c2.8,0,5-2.2,5-5
		c0-11-9-20-20-20c-11,0-20,9-20,20C179.2,99.1,181.5,101.3,184.2,101.3z"/>
</g>
</svg>
