<?xml version="1.0" encoding="utf-8"?>
<!-- Generator: Adobe Illustrator 19.1.0, SVG Export Plug-In . SVG Version: 6.00 Build 0)  -->
<svg version="1.1" id="Layer_1" xmlns="http://www.w3.org/2000/svg" xmlns:xlink="http://www.w3.org/1999/xlink" x="0px" y="0px"
	 viewBox="0 0 400 400" style="enable-background:new 0 0 400 400;" xml:space="preserve">
<style type="text/css">
	.st0{fill:#231F20;}
</style>
<g>
	<path class="st0" d="M226.4,136.7V121c0-9.4-7.6-17-17-17h-20c-9.4,0-17,7.6-17,17v19c0,2.8,2.2,5,5,5c2.8,0,5-2.2,5-5v-19
		c0-3.9,3.1-7,7-7h20c3.9,0,7,3.1,7,7v13.3c-5.5-1-11.2-1.5-17-1.5c-3.3,0-6.5,0.2-9.8,0.5c-2.7,0.3-4.7,2.7-4.5,5.5
		c0.3,2.7,2.7,4.7,5.5,4.5c2.9-0.3,5.8-0.4,8.7-0.4c46.5,0,84.2,37.8,84.2,84.2c0,46.5-37.8,84.2-84.2,84.2s-84.2-37.8-84.2-84.2
		c0-17.3,5.2-33.9,15-48c9.6-13.8,22.9-24.4,38.5-30.5c2.6-1,3.8-3.9,2.8-6.5c-1-2.6-3.9-3.8-6.5-2.8c-17.5,6.8-32.4,18.6-43.1,34.1
		c-11,15.8-16.8,34.4-16.8,53.7c0,52,42.3,94.2,94.2,94.2c52,0,94.2-42.3,94.2-94.2C293.7,184.4,265.3,148.3,226.4,136.7z"/>
	<path class="st0" d="M269.9,205c2.5-1.2,3.6-4.1,2.4-6.6c-8.4-17.9-22.5-33.1-39.7-42.7c-2.4-1.3-5.5-0.5-6.8,1.9
		c-1.3,2.4-0.5,5.5,1.9,6.8c15.4,8.6,28,22.1,35.5,38.2c0.8,1.8,2.7,2.9,4.5,2.9C268.5,205.4,269.2,205.3,269.9,205z"/>
	<circle class="st0" cx="217.2" cy="154.6" r="5.9"/>
	<circle class="st0" cx="176.1" cy="275" r="15"/>
	<circle class="st0" cx="213.4" cy="262.7" r="5.3"/>
	<circle class="st0" cx="202.1" cy="211" r="16"/>
	<circle class="st0" cx="258.4" cy="244.6" r="9.4"/>
	<circle class="st0" cx="157" cy="197.5" r="10.9"/>
	<path class="st0" d="M184.4,101.3c2.8,0,5-2.2,5-5c0-5.5,4.5-10,10-10c5.5,0,10,4.5,10,10c0,2.8,2.2,5,5,5s5-2.2,5-5
		c0-11-9-20-20-20c-11,0-20,9-20,20C179.4,99.1,181.7,101.3,184.4,101.3z"/>
</g>
</svg>
