<?xml version="1.0" encoding="utf-8"?>
<!-- Generator: Adobe Illustrator 19.1.0, SVG Export Plug-In . SVG Version: 6.00 Build 0)  -->
<svg version="1.1" id="Layer_1" xmlns="http://www.w3.org/2000/svg" xmlns:xlink="http://www.w3.org/1999/xlink" x="0px" y="0px"
	 viewBox="0 0 400 400" style="enable-background:new 0 0 400 400;" xml:space="preserve">
<style type="text/css">
	.st0{fill:#231F20;}
</style>
<g>
	<path class="st0" d="M225.7,137.3v-15.7c0-9.4-7.6-17-17-17h-20c-9.4,0-17,7.6-17,17v19c0,2.8,2.2,5,5,5c2.8,0,5-2.2,5-5v-19
		c0-3.9,3.1-7,7-7h20c3.9,0,7,3.1,7,7v13.3c-5.5-1-11.2-1.5-17-1.5c-3.3,0-6.5,0.2-9.8,0.5c-2.7,0.3-4.7,2.7-4.5,5.5
		c0.3,2.7,2.7,4.7,5.5,4.5c2.9-0.3,5.8-0.4,8.7-0.4c37.4,0,69.1,24.5,80.1,58.2H118.6c2.5-7.8,6.2-15.2,10.9-22
		c9.6-13.8,22.9-24.4,38.5-30.5c2.6-1,3.8-3.9,2.8-6.5c-1-2.6-3.9-3.8-6.5-2.8c-17.5,6.8-32.4,18.6-43.1,34.1
		c-11,15.8-16.8,34.4-16.8,53.7c0,52,42.3,94.2,94.2,94.2s94.2-42.3,94.2-94.2C293,185,264.6,149,225.7,137.3z M283,227.6
		c0,8-1.1,15.7-3.2,23h-17.5l19.7-35.8C282.7,219,283,223.3,283,227.6z M272.4,211.6l-18.6,33.9l-19.8-33.9H272.4z M245.1,250.6
		h-39.7l20.3-33.3L245.1,250.6z M217.4,211.6l-21,34.5l-21.8-34.5H217.4z M187.4,250.6h-38.9l17.9-33.2L187.4,250.6z M158.3,211.6
		l-18.2,33.7l-18.8-33.7H158.3z M131.6,250.6h-13.9c-2.1-7.3-3.2-15-3.2-23c0-2.4,0.1-4.8,0.3-7.1L131.6,250.6z M198.7,311.9
		c-34.7,0-64.6-21.1-77.5-51.2h18.9h0h136C263.4,290.7,233.5,311.9,198.7,311.9z"/>
	<path class="st0" d="M258.2,195.7c0.9,1.7,2.6,2.6,4.4,2.6c0.8,0,1.6-0.2,2.4-0.6c2.4-1.3,3.3-4.4,2-6.8
		c-8-14.6-20.8-26.6-35.8-33.7c-2.5-1.2-5.5-0.1-6.7,2.4c-1.2,2.5-0.1,5.5,2.4,6.7C240,172.4,251.1,182.9,258.2,195.7z"/>
	<circle class="st0" cx="215.1" cy="156.2" r="5.9"/>
	<path class="st0" d="M183.6,102c2.8,0,5-2.2,5-5c0-5.5,4.5-10,10-10s10,4.5,10,10c0,2.8,2.2,5,5,5c2.8,0,5-2.2,5-5c0-11-9-20-20-20
		c-11,0-20,9-20,20C178.6,99.7,180.8,102,183.6,102z"/>
</g>
</svg>
