<?xml version="1.0" encoding="utf-8"?>
<!-- Generator: Adobe Illustrator 19.1.0, SVG Export Plug-In . SVG Version: 6.00 Build 0)  -->
<svg version="1.1" id="Layer_1" xmlns="http://www.w3.org/2000/svg" xmlns:xlink="http://www.w3.org/1999/xlink" x="0px" y="0px"
	 viewBox="0 0 400 400" style="enable-background:new 0 0 400 400;" xml:space="preserve">
<style type="text/css">
	.st0{fill:#231F20;}
</style>
<g>
	<path class="st0" d="M226,136.7V121c0-9.4-7.6-17-17-17h-20c-9.4,0-17,7.6-17,17v19c0,2.8,2.2,5,5,5s5-2.2,5-5v-19c0-3.9,3.1-7,7-7
		h20c3.9,0,7,3.1,7,7v13.3c-5.5-1-11.2-1.5-17-1.5c-3.3,0-6.5,0.2-9.8,0.5c-2.7,0.3-4.7,2.7-4.5,5.5c0.3,2.7,2.7,4.7,5.5,4.5
		c2.9-0.3,5.8-0.4,8.7-0.4c46.5,0,84.2,37.8,84.2,84.2c0,46.5-37.8,84.2-84.2,84.2s-84.2-37.8-84.2-84.2c0-17.3,5.2-33.9,15-48
		c9.6-13.8,22.9-24.4,38.5-30.5c2.6-1,3.8-3.9,2.8-6.5c-1-2.6-3.9-3.8-6.5-2.8c-17.5,6.8-32.4,18.6-43.1,34.1
		c-11,15.8-16.8,34.4-16.8,53.7c0,52,42.3,94.2,94.2,94.2s94.2-42.3,94.2-94.2C293.2,184.4,264.8,148.3,226,136.7z"/>
	<path class="st0" d="M262.8,202.5c0.8,1.8,2.7,2.9,4.5,2.9c0.7,0,1.4-0.2,2.1-0.5c2.5-1.2,3.6-4.1,2.4-6.6
		c-8.4-17.9-22.5-33.1-39.7-42.7c-2.4-1.3-5.5-0.5-6.8,1.9c-1.3,2.4-0.5,5.5,1.9,6.8C242.7,172.9,255.3,186.5,262.8,202.5z"/>
	<circle class="st0" cx="216.7" cy="154.6" r="5.9"/>
	<path class="st0" d="M184,101.3c2.8,0,5-2.2,5-5c0-5.5,4.5-10,10-10s10,4.5,10,10c0,2.8,2.2,5,5,5c2.8,0,5-2.2,5-5c0-11-9-20-20-20
		c-11,0-20,9-20,20C179,99.1,181.3,101.3,184,101.3z"/>
	<path class="st0" d="M200,172.4c-4.7,0-9,2.6-11.1,6.9l-9.2,18.7c-0.3,0.7-1,1.2-1.8,1.3l-20.6,3c-4.7,0.7-8.5,3.9-10,8.4
		c-1.5,4.5-0.3,9.4,3.1,12.7l14.9,14.5c0.6,0.5,0.8,1.3,0.7,2.1l-3.5,20.5c-0.8,4.7,1.1,9.3,4.9,12.1c2.2,1.6,4.7,2.4,7.3,2.4
		c2,0,3.9-0.5,5.8-1.4l18.4-9.7c0.7-0.4,1.5-0.4,2.2,0l18.4,9.7c4.2,2.2,9.2,1.8,13-0.9c3.8-2.8,5.7-7.4,4.9-12.1L234,240
		c-0.1-0.8,0.1-1.5,0.7-2.1l14.9-14.5c3.4-3.3,4.6-8.2,3.1-12.7c-1.5-4.5-5.3-7.7-10-8.4l-20.6-3c-0.8-0.1-1.4-0.6-1.8-1.3
		l-9.2-18.7C209,175.1,204.8,172.4,200,172.4z M211.4,202.4c1.8,3.7,5.3,6.2,9.3,6.8l20.6,3c1.3,0.2,1.8,1.2,1.9,1.6
		c0.1,0.4,0.4,1.5-0.6,2.4l-14.9,14.5c-2.9,2.8-4.2,6.9-3.6,10.9l3.5,20.5c0.2,1.3-0.6,2.1-0.9,2.3c-0.4,0.3-1.3,0.8-2.5,0.2
		l-18.4-9.7c-3.6-1.9-7.9-1.9-11.5,0l-18.4,9.7c-1.2,0.6-2.1,0.1-2.5-0.2c-0.4-0.3-1.2-1-0.9-2.3l3.5-20.5c0.7-4-0.6-8.1-3.6-10.9
		l-14.9-14.5c-0.9-0.9-0.7-2-0.6-2.4c0.1-0.4,0.6-1.4,1.9-1.6l20.6-3c4-0.6,7.5-3.1,9.3-6.8l9.2-18.7c0.6-1.2,1.7-1.3,2.1-1.3
		c0.4,0,1.5,0.1,2.1,1.3L211.4,202.4z"/>
</g>
</svg>
