<?xml version="1.0" encoding="utf-8"?>
<!-- Generator: Adobe Illustrator 19.1.0, SVG Export Plug-In . SVG Version: 6.00 Build 0)  -->
<svg version="1.1" id="Layer_1" xmlns="http://www.w3.org/2000/svg" xmlns:xlink="http://www.w3.org/1999/xlink" x="0px" y="0px"
	 viewBox="0 0 400 400" style="enable-background:new 0 0 400 400;" xml:space="preserve">
<style type="text/css">
	.st0{fill:#231F20;}
</style>
<g>
	<path class="st0" d="M291.9,270.6v-47.1c0-51.1-41.6-92.8-92.8-92.8s-92.8,41.6-92.8,92.8v46.7c-5.5,2.8-9.2,8.5-9.2,15.1V308
		c0,9.4,7.6,17,17,17h169.2c9.4,0,17-7.6,17-17v-22.8C300.4,279,297,273.5,291.9,270.6z M199.2,140.7c45.6,0,82.8,37.1,82.8,82.8
		v44.8H116.4v-44.8C116.4,177.8,153.5,140.7,199.2,140.7z M146.7,278.3V315h-13.9v-36.8H146.7z M156.7,278.3h13.9V315h-13.9V278.3z
		 M180.6,278.3h13.9V315h-13.9V278.3z M204.5,278.3h13.9V315h-13.9V278.3z M228.4,278.3h13.9V315h-13.9V278.3z M252.3,278.3h13.9
		V315h-13.9V278.3z M107.2,308v-22.8c0-3.9,3.1-7,7-7h8.5V315h-8.5C110.4,315,107.2,311.9,107.2,308z M290.4,308c0,3.9-3.1,7-7,7
		h-7.2v-36.8h7.2c3.9,0,7,3.1,7,7V308z"/>
	<path class="st0" d="M200.5,125.7c14.3,0,26-11.6,26-26c0-14.3-11.6-26-26-26c-14.3,0-26,11.6-26,26
		C174.5,114,186.2,125.7,200.5,125.7z M200.5,83.8c8.8,0,16,7.2,16,16c0,8.8-7.2,16-16,16c-8.8,0-16-7.2-16-16
		C184.5,90.9,191.7,83.8,200.5,83.8z"/>
</g>
</svg>
