<?xml version="1.0" encoding="utf-8"?>
<!-- Generator: Adobe Illustrator 19.1.0, SVG Export Plug-In . SVG Version: 6.00 Build 0)  -->
<svg version="1.1" id="Layer_1" xmlns="http://www.w3.org/2000/svg" xmlns:xlink="http://www.w3.org/1999/xlink" x="0px" y="0px"
	 viewBox="0 0 400 400" style="enable-background:new 0 0 400 400;" xml:space="preserve">
<g>
	<path d="M298.4,289l-47.1-66.5h20.5c1.9,0,3.7-1.1,4.5-2.9c0.8-1.8,0.5-3.8-0.7-5.3l-46.4-54.7h20.2c1.9,0,3.6-1,4.4-2.7
		c0.9-1.6,0.7-3.6-0.3-5.2L221,104.3c0,0,0,0,0,0L206,82.6c-0.9-1.4-2.5-2.2-4.1-2.2c-1.6,0-3.2,0.8-4.1,2.2l-47.5,69.1
		c-1.1,1.5-1.2,3.5-0.3,5.2c0.9,1.6,2.6,2.7,4.4,2.7h20.2l-6.4,7.6c0,0,0,0,0,0l-39.9,47.1c-1.3,1.5-1.5,3.6-0.7,5.3
		c0.8,1.8,2.6,2.9,4.5,2.9h20.5L105.5,289c-1.1,1.5-1.2,3.5-0.4,5.2c0.9,1.7,2.6,2.7,4.4,2.7h53l-0.1,35.5c0,1.3,0.5,2.6,1.5,3.5
		c0.9,0.9,2.2,1.5,3.5,1.5h68.9c2.8,0,5-2.2,5-5v-35.5h53c1.9,0,3.6-1,4.4-2.7C299.6,292.6,299.5,290.6,298.4,289z M201.9,94.3
		l9.3,13.5c-0.3,0.5-0.8,1.1-1.5,2c-1.7,2.1-1.4,5.3,0.8,7c0.9,0.7,2,1.1,3.1,1.1c1.3,0,2.6-0.5,3.5-1.4l21.6,31.4h-73.6l7.5-10.9
		c10.9-0.8,14.4-1.1,21.5-4.5c2.5-1.2,3.6-4.2,2.4-6.7c-1.2-2.5-4.2-3.6-6.7-2.4c-3.7,1.7-5.8,2.4-9.9,2.9L201.9,94.3z M172.2,177.9
		c3.5,3.4,7.3,6.3,11.5,8.6c0.8,0.4,1.6,0.6,2.4,0.6c1.8,0,3.5-1,4.4-2.6c1.3-2.4,0.4-5.5-2-6.8c-3.6-1.9-6.9-4.4-9.8-7.4l10.6-12.5
		c0,0,0,0,0,0h25.4c0,0,0,0,0,0l18.6,21.9c-5.4,1.8-13.5,4-21.8,4.2c-2.8,0.1-4.9,2.4-4.8,5.2c0.1,2.7,2.3,4.8,5,4.8
		c0.1,0,0.1,0,0.2,0c11.8-0.4,23-4,28.4-6.1l20.9,24.6h-19.4h-79.4h-8h-11.4L172.2,177.9z M187.5,286.9c-2.8,0-5,2.2-5,5s2.2,5,5,5
		h43.8v30.5h-58.9l0.1-35.5c0-1.3-0.5-2.6-1.5-3.5c-0.9-0.9-2.2-1.5-3.5-1.5h-48.3l21.8-30.8c3.7,1.8,9.1,2.8,16.3,2.8
		c2.8,0,5.9-0.1,9.3-0.4c2.8-0.2,4.8-2.6,4.6-5.4c-0.2-2.8-2.6-4.8-5.4-4.6c-11,0.9-16.4,0-18.9-0.7l17.9-25.2H239l3.4,4.9
		c-2.7,1.5-6.9,3.4-13.5,5.8c-2.6,0.9-4,3.8-3.1,6.4c0.7,2.1,2.7,3.3,4.7,3.3c0.6,0,1.1-0.1,1.7-0.3c7-2.5,12.2-4.7,16-7l36.4,51.4
		H187.5z"/>
	<path d="M203.6,240.4c-4.2,1.2-6.2,1.8-8,2.4c-1.2,0.4-2.2,0.7-3.6,1.1c-2.7,0.8-4.2,3.5-3.4,6.2c0.6,2.2,2.6,3.6,4.8,3.6
		c0.5,0,0.9-0.1,1.4-0.2c1.6-0.5,2.8-0.8,4-1.2c1.7-0.6,3.7-1.2,7.6-2.3c2.7-0.7,4.2-3.5,3.5-6.2C209,241.2,206.3,239.6,203.6,240.4
		z"/>
	<path d="M194.9,190.8c0.8,0.7,1.9,1.3,3.4,1.5c0.3,0,0.5,0.1,0.8,0.1c2.4,0,4.5-1.8,4.9-4.2c0.3-2.2-0.9-4.4-2.8-5.3
		c-0.7-0.6-1.6-1-2.7-1.3c-2.7-0.7-5.4,1-6.1,3.6C191.8,187.4,192.9,189.7,194.9,190.8z"/>
	<path d="M199.4,125.8c0.9,0.7,2,1.1,3.1,1.1c1.1,0,2.2-0.3,3-1c0.9-0.4,1.9-1.2,2.8-2.5c1.5-2.3,0.9-5.4-1.4-6.9
		c-1.9-1.2-4.3-1-6,0.4c-0.8,0.4-1.6,1.1-2.3,1.9C196.8,121,197.2,124.1,199.4,125.8z"/>
	<path d="M181.2,247.7h-2.7c-2.8,0-5,2.2-5,5s2.2,5,5,5h2.7c2.8,0,5-2.2,5-5S183.9,247.7,181.2,247.7z"/>
	<path d="M218.7,236.3l-2.2,0.4c-2.7,0.5-4.5,3.1-4.1,5.8c0.4,2.4,2.5,4.1,4.9,4.1c0.3,0,0.6,0,0.9-0.1l2.2-0.4
		c2.7-0.5,4.5-3.1,4.1-5.8C224,237.7,221.4,235.8,218.7,236.3z"/>
	<polygon points="195.1,74.5 203.4,70.1 211.8,74.5 210.2,65.2 217,58.6 207.6,57.3 203.4,48.8 199.3,57.3 189.9,58.6 196.7,65.2 	
		"/>
</g>
</svg>
