<?xml version="1.0" encoding="utf-8"?>
<!-- Generator: Adobe Illustrator 19.1.0, SVG Export Plug-In . SVG Version: 6.00 Build 0)  -->
<svg version="1.1" id="Layer_1" xmlns="http://www.w3.org/2000/svg" xmlns:xlink="http://www.w3.org/1999/xlink" x="0px" y="0px"
	 viewBox="0 0 400 400" style="enable-background:new 0 0 400 400;" xml:space="preserve">
<style type="text/css">
	.st0{fill:#231F20;}
</style>
<g>
	<path class="st0" d="M316.2,246c0-7.7-0.5-24.4-3.9-44.1c-6.3-36-19.1-63.2-37.9-80.9c-18.9-17.8-43.5-25.3-73.1-22.3
		c-32.9,3.3-59.7,24.1-77.5,60c-13.2,26.7-16.8,52-17,53.1c-0.2,1.5,0.3,3,1.3,4.1c1,1.1,2.5,1.7,4,1.6c8.6-0.6,17.6-8.6,26.3-16.4
		c5.6-5,12-10.7,15.7-11.6c2.7-0.7,4.3-3.4,3.7-6c-0.7-2.7-3.4-4.3-6-3.7c-6.1,1.5-12.9,7.5-20,13.8c-4.2,3.8-9.1,8.1-13.4,10.9
		c2.1-9.5,6.4-25.4,14.5-41.6c16.4-33,39.8-51.3,69.4-54.3c26.6-2.7,48.5,3.9,65.2,19.6c35.5,33.4,38.5,98.8,38.7,117H158.6
		c-0.2-17.6,4.2-29,7.8-38.3c6.8-17.3,9.4-28-16.4-46.9c-2.2-1.6-5.4-1.2-7,1.1c-1.6,2.2-1.2,5.4,1.1,7c20.8,15.3,18.7,20.7,13,35.2
		c-3.7,9.6-8.7,22.4-8.5,41.9h-6.7c-9.4,0-17,7.6-17,17V285c0,9.4,7.6,17,17,17h169.2c9.4,0,17-7.6,17-17v-22.8
		C328.1,254.7,323.1,248.2,316.2,246z M318.1,285c0,3.9-3.1,7-7,7H141.9c-3.9,0-7-3.1-7-7v-22.8c0-3.9,3.1-7,7-7h169.2
		c3.9,0,7,3.1,7,7V285z"/>
	<path class="st0" d="M95.1,214.4c-14.3,0-26,11.6-26,26c0,14.3,11.6,26,26,26s26-11.6,26-26C121,226.1,109.4,214.4,95.1,214.4z
		 M95.1,256.3c-8.8,0-16-7.2-16-16s7.2-16,16-16s16,7.2,16,16S103.9,256.3,95.1,256.3z"/>
</g>
</svg>
