<?xml version="1.0" encoding="utf-8"?>
<!-- Generator: Adobe Illustrator 19.1.0, SVG Export Plug-In . SVG Version: 6.00 Build 0)  -->
<svg version="1.1" id="Layer_1" xmlns="http://www.w3.org/2000/svg" xmlns:xlink="http://www.w3.org/1999/xlink" x="0px" y="0px"
	 viewBox="0 0 400 400" style="enable-background:new 0 0 400 400;" xml:space="preserve">
<style type="text/css">
	.st0{fill:#231F20;}
</style>
<path class="st0" d="M306.8,233.2c-0.7-2.7-3.4-4.3-6.1-3.6L271,237l-12.8-7.7l0.5-23.4l13.8-0.3c2.8-0.1,4.9-2.4,4.9-5.1
	c-0.1-2.8-2.4-4.9-5.1-4.9l-13.4,0.3l0.5-22.8l9.6-5.1l29.5,9.7c0.5,0.2,1,0.2,1.6,0.2c2.1,0,4.1-1.3,4.8-3.4
	c0.9-2.6-0.6-5.4-3.2-6.3l-20.5-6.7l20.7-11.1c2.4-1.3,3.3-4.3,2-6.8c-1.3-2.4-4.3-3.3-6.8-2L277.5,152l6.5-19.4
	c0.9-2.6-0.5-5.5-3.2-6.3c-2.6-0.9-5.5,0.5-6.3,3.2l-9.8,29.4l-9.8,5.2l-18.9-11.5l8.2-13.5c1.4-2.4,0.7-5.4-1.7-6.9
	c-2.4-1.4-5.4-0.7-6.9,1.7l-8.2,13.5l-20.9-12.6l0.3-14.3l22.4-22.4c2-2,2-5.1,0-7.1c-2-2-5.1-2-7.1,0l-15,15l0.5-21.8
	c0.1-2.8-2.1-5-4.9-5.1c-2.7-0.1-5,2.1-5.1,4.9l-0.5,21.6l-14.6-14.8c-1.9-2-5.1-2-7.1,0c-2,1.9-2,5.1,0,7.1l21.4,21.7l-0.3,14.8
	l-22.3,12.3l-7.4-12.4c-1.4-2.4-4.5-3.2-6.8-1.8c-2.4,1.4-3.2,4.5-1.8,6.8l7.2,12.2L146,162.2l-12.8-7.6l-7.7-29.9
	c-0.7-2.7-3.4-4.3-6.1-3.6c-2.7,0.7-4.3,3.4-3.6,6.1l5.2,20.1l-19-11.4c-2.4-1.4-5.4-0.6-6.9,1.7c-1.4,2.4-0.6,5.4,1.7,6.9
	l19.1,11.5l-20.5,5.2c-2.7,0.7-4.3,3.4-3.6,6.1c0.6,2.3,2.6,3.8,4.8,3.8c0.4,0,0.8,0,1.2-0.2l30.2-7.6l13.5,8.1l-0.5,22.4l-11.9,0.3
	c-2.8,0.1-4.9,2.4-4.9,5.1c0.1,2.7,2.3,4.9,5,4.9c0,0,0.1,0,0.1,0l11.4-0.3l-0.5,21.8l-12.6,6.7L98,224.2c-2.7-0.7-5.4,0.9-6.1,3.5
	c-0.7,2.7,0.9,5.4,3.5,6.1l19.7,5.3l-20.7,11.1c-2.4,1.3-3.3,4.3-2,6.8c0.9,1.7,2.6,2.6,4.4,2.6c0.8,0,1.6-0.2,2.4-0.6l21.8-11.7
	l-5.7,20.8c-0.7,2.7,0.8,5.4,3.5,6.1c0.4,0.1,0.9,0.2,1.3,0.2c2.2,0,4.2-1.5,4.8-3.7l8.3-30l11.2-6l19.1,11.6l-7.1,10.2
	c-1.6,2.3-1,5.4,1.3,7c0.9,0.6,1.9,0.9,2.8,0.9c1.6,0,3.1-0.7,4.1-2.1l7.4-10.7l21.7,13.1l-0.4,16.3l-22.4,22.4c-2,2-2,5.1,0,7.1
	c1,1,2.3,1.5,3.5,1.5c1.3,0,2.6-0.5,3.5-1.5l15-15l-0.4,18.6c-0.1,2.8,2.1,5,4.9,5.1c0,0,0.1,0,0.1,0c2.7,0,4.9-2.2,5-4.9L203,296
	l14.6,14.8c1,1,2.3,1.5,3.6,1.5c1.3,0,2.5-0.5,3.5-1.4c2-1.9,2-5.1,0-7.1l-21.4-21.6l0.4-17.3l19.6-10.8l5.4,9.4
	c0.9,1.6,2.6,2.5,4.3,2.5c0.8,0,1.7-0.2,2.5-0.7c2.4-1.4,3.2-4.4,1.9-6.8l-5.3-9.3l20.8-11.4l12.4,7.4l7.8,30.4
	c0.6,2.3,2.6,3.8,4.8,3.8c0.4,0,0.8-0.1,1.2-0.2c2.7-0.7,4.3-3.4,3.6-6.1l-5.3-20.6l16.8,10c0.8,0.5,1.7,0.7,2.6,0.7
	c1.7,0,3.4-0.9,4.3-2.4c1.4-2.4,0.6-5.4-1.7-6.9l-16.3-9.7l20-5.1C305.9,238.6,307.5,235.9,306.8,233.2z M248.3,223.5L209.2,200
	l40.1-21.5L248.3,223.5z M226.5,158.7C226.5,158.7,226.5,158.7,226.5,158.7C226.5,158.7,226.5,158.7,226.5,158.7l18.2,11l-39.4,21.1
	l1-44.4L226.5,158.7z M196.3,146l-1,45.7l-39.4-23.5L196.3,146z M151.5,177.2l37.4,22.4l-38.3,20.5L151.5,177.2z M154.5,229.4
	l40.4-21.7l-1,45.5L154.5,229.4z M203.9,253.3l1-44.2l38,22.8L203.9,253.3z"/>
</svg>
