<?xml version="1.0" encoding="utf-8"?>
<!-- Generator: Adobe Illustrator 19.1.0, SVG Export Plug-In . SVG Version: 6.00 Build 0)  -->
<svg version="1.1" id="Layer_1" xmlns="http://www.w3.org/2000/svg" xmlns:xlink="http://www.w3.org/1999/xlink" x="0px" y="0px"
	 viewBox="0 0 400 400" style="enable-background:new 0 0 400 400;" xml:space="preserve">
<style type="text/css">
	.st0{fill:#231F20;}
</style>
<path class="st0" d="M306.8,238.8l-17.2-7.2l18-7.4c2.6-1,3.8-4,2.7-6.5c-1-2.6-4-3.8-6.5-2.7l-27.3,11.2L209,197.7l56.2-39.4
	l30.5,6.1c0.3,0.1,0.7,0.1,1,0.1c2.3,0,4.4-1.6,4.9-4c0.5-2.7-1.2-5.3-3.9-5.9l-21.1-4.2l19.3-13.5c2.3-1.6,2.8-4.7,1.2-7
	c-1.6-2.3-4.7-2.8-7-1.2l-18.3,12.8l4.1-20c0.6-2.7-1.2-5.3-3.9-5.9c-2.7-0.6-5.3,1.2-5.9,3.9l-6.2,30.4l-56.6,39.7l-3.5-69.6
	L220.4,96c1.8-2.1,1.6-5.2-0.5-7.1c-2.1-1.8-5.2-1.6-7.1,0.5l-13.9,16l-1.1-21.8c-0.1-2.8-2.5-4.9-5.2-4.7c-2.8,0.1-4.9,2.5-4.7,5.2
	l1.1,21.5l-15.7-13.7c-2.1-1.8-5.2-1.6-7.1,0.5c-1.8,2.1-1.6,5.2,0.5,7.1l23,20l3.6,71.5l-65.2-27.4l-11.9-28.5
	c-1.1-2.6-4-3.8-6.5-2.7c-2.6,1.1-3.8,4-2.7,6.5l8,19.2l-20.4-8.6c-2.5-1.1-5.5,0.1-6.5,2.7c-1.1,2.5,0.1,5.5,2.7,6.5l20.6,8.6
	l-19.6,8c-2.6,1-3.8,4-2.7,6.5c0.8,1.9,2.7,3.1,4.6,3.1c0.6,0,1.3-0.1,1.9-0.4l28.9-11.8l64.1,26.9l-55.6,39l-30.7-4.5
	c-2.7-0.4-5.3,1.5-5.7,4.2c-0.4,2.7,1.5,5.3,4.2,5.7l20.2,2.9l-19.2,13.5c-2.3,1.6-2.8,4.7-1.2,7c1,1.4,2.5,2.1,4.1,2.1
	c1,0,2-0.3,2.9-0.9l20.3-14.2l-3.2,21.3c-0.4,2.7,1.5,5.3,4.2,5.7c0.3,0,0.5,0.1,0.8,0.1c2.4,0,4.6-1.8,4.9-4.3l4.6-30.7l55.2-38.7
	l3.7,73.5l-19.1,22.1c-1.8,2.1-1.6,5.2,0.5,7.1c0.9,0.8,2.1,1.2,3.3,1.2c1.4,0,2.8-0.6,3.8-1.7l12.3-14.2l0.9,17.9
	c0.1,2.7,2.3,4.7,5,4.7c0.1,0,0.2,0,0.3,0c2.8-0.1,4.9-2.5,4.7-5.2l-1.1-21l17.4,15.2c0.9,0.8,2.1,1.2,3.3,1.2
	c1.4,0,2.8-0.6,3.8-1.7c1.8-2.1,1.6-5.2-0.5-7.1l-24.6-21.5c0,0-0.1,0-0.1-0.1l-3.7-72.1l66.3,27.8l12.5,30.1
	c0.8,1.9,2.7,3.1,4.6,3.1c0.6,0,1.3-0.1,1.9-0.4c2.6-1.1,3.8-4,2.7-6.5l-8.6-20.8l19.3,8.1c0.6,0.3,1.3,0.4,1.9,0.4
	c2,0,3.8-1.2,4.6-3.1C310.5,242.8,309.3,239.8,306.8,238.8z"/>
</svg>
