<?xml version="1.0" encoding="utf-8"?>
<!-- Generator: Adobe Illustrator 19.1.0, SVG Export Plug-In . SVG Version: 6.00 Build 0)  -->
<svg version="1.1" id="Layer_1" xmlns="http://www.w3.org/2000/svg" xmlns:xlink="http://www.w3.org/1999/xlink" x="0px" y="0px"
	 viewBox="0 0 400 400" style="enable-background:new 0 0 400 400;" xml:space="preserve">
<style type="text/css">
	.st0{fill:#231F20;}
</style>
<path class="st0" d="M284.5,204.2h12.4c2.8,0,5-2.2,5-5c0-2.8-2.2-5-5-5h-13.8l17.4-18.9c1.9-2,1.8-5.2-0.3-7.1
	c-2-1.9-5.2-1.8-7.1,0.3l-23.7,25.7h-24.4l9.8-9.8c2-1.9,2-5.1,0-7.1c-1.9-2-5.1-2-7.1,0l-16.5,16.4c-0.4,0.1-0.7,0.3-1.1,0.5h-19.1
	l42.4-42.4l34.9,1.4c0.1,0,0.1,0,0.2,0c2.7,0,4.9-2.1,5-4.8c0.1-2.8-2-5.1-4.8-5.2l-25.7-1l9.7-9.7c2-2,2-5.1,0-7.1
	c-2-2-5.1-2-7.1,0l-8.7,8.7l-0.9-23.6c-0.1-2.8-2.4-4.9-5.2-4.8c-2.8,0.1-4.9,2.4-4.8,5.2l1.3,32.8l-44.1,44.1v-21l16.1-16
	c2-1.9,2-5.1,0-7.1c-1.9-2-5.1-2-7.1,0l-9,9V129l24.9-23c2-1.9,2.2-5,0.3-7.1c-1.9-2-5-2.2-7.1-0.3l-18.1,16.7v-14.7
	c0-2.8-2.2-5-5-5c-2.8,0-5,2.2-5,5v14.7l-18.1-16.7c-2-1.9-5.2-1.8-7.1,0.3c-1.9,2-1.8,5.2,0.3,7.1l24.9,23v22l-8.1-8.1
	c-2-1.9-5.1-1.9-7.1,0c-1.9,2-1.9,5.1,0,7.1l15.2,15.1v22.2l-40.5-40.5l1.4-34.9c0.1-2.8-2-5.1-4.8-5.2c-2.8-0.1-5.1,2-5.2,4.8
	l-1,25.7l-11.6-11.6c-2-2-5.1-2-7.1,0c-2,2-2,5.1,0,7.1l10.6,10.6l-23.6,0.9c-2.8,0.1-4.9,2.4-4.8,5.2c0.1,2.7,2.3,4.8,5,4.8
	c0.1,0,0.1,0,0.2,0l32.8-1.3l41.3,41.3h-18.6c-0.1-0.1-0.1-0.2-0.2-0.3c-0.6-0.6-1.3-1-2-1.2l-15.5-15.4c-2-1.9-5.1-1.9-7.1,0
	c-1.9,2-1.9,5.1,0,7.1l9.8,9.8h-22.8l-23.7-25.7c-1.9-2-5-2.2-7.1-0.3c-2,1.9-2.2,5-0.3,7.1l17.4,18.9H99.9c-2.8,0-5,2.2-5,5
	c0,2.8,2.2,5,5,5h15l-16,17.3c-1.9,2-1.8,5.2,0.3,7.1c1,0.9,2.2,1.3,3.4,1.3c1.3,0,2.7-0.5,3.7-1.6l22.3-24.1h21.5l-8.1,8
	c-2,1.9-2,5.1,0,7.1c1,1,2.3,1.5,3.5,1.5c1.3,0,2.6-0.5,3.5-1.5l15.2-15.1H187l-40.3,40.3l-32.8-1.3c-2.8-0.1-5.1,2-5.2,4.8
	c-0.1,2.8,2,5.1,4.8,5.2l23.6,0.9l-10.6,10.6c-2,2-2,5.1,0,7.1c1,1,2.3,1.5,3.5,1.5c1.3,0,2.6-0.5,3.5-1.5l11.6-11.6l1,25.7
	c0.1,2.7,2.3,4.8,5,4.8c0.1,0,0.1,0,0.2,0c2.8-0.1,4.9-2.4,4.8-5.2l-1.4-34.9l38.5-38.5v19.5l-16.2,16.1c-2,1.9-2,5.1,0,7.1
	c1,1,2.3,1.5,3.5,1.5c1.3,0,2.6-0.5,3.5-1.5l9.1-9.1v24.6l-24.9,23c-2,1.9-2.2,5-0.3,7.1c1.9,2,5,2.2,7.1,0.3l18.1-16.7v13.8
	c0,2.8,2.2,5,5,5c2.8,0,5-2.2,5-5v-13.8l18.1,16.7c1,0.9,2.2,1.3,3.4,1.3c1.3,0,2.7-0.5,3.7-1.6c1.9-2,1.8-5.2-0.3-7.1l-24.9-23
	v-24.6l9.1,9.1c1,1,2.3,1.5,3.5,1.5c1.3,0,2.6-0.5,3.5-1.5c1.9-2,1.9-5.1,0-7.1l-16.2-16.1v-20.1l42.2,42.2l-1.3,32.8
	c-0.1,2.8,2,5.1,4.8,5.2c0.1,0,0.1,0,0.2,0c2.7,0,4.9-2.1,5-4.8l0.9-23.6l8.7,8.7c1,1,2.3,1.5,3.5,1.5c1.3,0,2.6-0.5,3.5-1.5
	c2-2,2-5.1,0-7.1l-9.7-9.7l25.7-1c2.8-0.1,4.9-2.4,4.8-5.2c-0.1-2.8-2.4-4.9-5.2-4.8l-34.9,1.4l-41.4-41.4h21.4l16.2,16.1
	c1,1,2.3,1.5,3.5,1.5c1.3,0,2.6-0.5,3.5-1.5c1.9-2,1.9-5.1,0-7.1l-9.1-9h25.1l22.3,24.1c1,1.1,2.3,1.6,3.7,1.6
	c1.2,0,2.4-0.4,3.4-1.3c2-1.9,2.2-5,0.3-7.1L284.5,204.2z"/>
</svg>
