<?xml version="1.0" encoding="utf-8"?>
<!-- Generator: Adobe Illustrator 19.1.0, SVG Export Plug-In . SVG Version: 6.00 Build 0)  -->
<svg version="1.1" id="Layer_1" xmlns="http://www.w3.org/2000/svg" xmlns:xlink="http://www.w3.org/1999/xlink" x="0px" y="0px"
	 viewBox="0 0 400 400" style="enable-background:new 0 0 400 400;" xml:space="preserve">
<style type="text/css">
	.st0{fill:#231F20;}
</style>
<g>
	<path class="st0" d="M284.6,204.4h12.4c2.8,0,5-2.2,5-5c0-2.8-2.2-5-5-5h-13.8l17.4-18.9c1.9-2,1.8-5.2-0.3-7.1
		c-2-1.9-5.2-1.8-7.1,0.3l-23.7,25.7h-24.4l9.8-9.8c2-1.9,2-5.1,0-7.1c-1.9-2-5.1-2-7.1,0l-16.5,16.4c-0.4,0.1-0.7,0.3-1.1,0.5
		h-26.9v-27.3l16.1-16c2-1.9,2-5.1,0-7.1c-1.9-2-5.1-2-7.1,0l-9,9v-23.8l24.9-23c2-1.9,2.2-5,0.3-7.1c-1.9-2-5-2.2-7.1-0.3
		l-18.1,16.7v-14.7c0-2.8-2.2-5-5-5c-2.8,0-5,2.2-5,5v14.7l-18.1-16.7c-2-1.9-5.2-1.8-7.1,0.3c-1.9,2-1.8,5.2,0.3,7.1l24.9,23v22
		l-8.1-8.1c-2-1.9-5.1-1.9-7.1,0c-1.9,2-1.9,5.1,0,7.1l15.2,15.1v29.1h-25.8c-0.1-0.1-0.1-0.2-0.2-0.3c-0.6-0.6-1.3-1-2-1.2
		l-15.5-15.4c-2-1.9-5.1-1.9-7.1,0c-1.9,2-1.9,5.1,0,7.1l9.8,9.8h-22.8l-23.7-25.7c-1.9-2-5-2.2-7.1-0.3c-2,1.9-2.2,5-0.3,7.1
		l17.4,18.9H99.9c-2.8,0-5,2.2-5,5c0,2.8,2.2,5,5,5h15l-16,17.3c-1.9,2-1.8,5.2,0.3,7.1c1,0.9,2.2,1.3,3.4,1.3
		c1.3,0,2.7-0.5,3.7-1.6l22.3-24.1H150l-8.1,8c-2,1.9-2,5.1,0,7.1c1,1,2.3,1.5,3.5,1.5c1.3,0,2.6-0.5,3.5-1.5l15.2-15.1h29.3v27.3
		l-16.2,16.1c-2,1.9-2,5.1,0,7.1c1,1,2.3,1.5,3.5,1.5c1.3,0,2.6-0.5,3.5-1.5l9.1-9.1v24.6l-24.9,23c-2,1.9-2.2,5-0.3,7.1
		c1.9,2,5,2.2,7.1,0.3l18.1-16.7v13.8c0,2.8,2.2,5,5,5c2.8,0,5-2.2,5-5v-13.8l18.1,16.7c1,0.9,2.2,1.3,3.4,1.3
		c1.3,0,2.7-0.5,3.7-1.6c1.9-2,1.8-5.2-0.3-7.1l-24.9-23v-24.6l9.1,9.1c1,1,2.3,1.5,3.5,1.5c1.3,0,2.6-0.5,3.5-1.5
		c1.9-2,1.9-5.1,0-7.1l-16.2-16.1v-27.3h28.3l16.2,16.1c1,1,2.3,1.5,3.5,1.5c1.3,0,2.6-0.5,3.5-1.5c1.9-2,1.9-5.1,0-7.1l-9.1-9h25.1
		l22.3,24.1c1,1.1,2.3,1.6,3.7,1.6c1.2,0,2.4-0.4,3.4-1.3c2-1.9,2.2-5,0.3-7.1L284.6,204.4z"/>
	<path class="st0" d="M228.4,221.5c-2-1.9-5.1-1.9-7.1,0.1c-1.9,2-1.9,5.1,0.1,7.1l13.9,13.7c1,1,2.2,1.4,3.5,1.4
		c1.3,0,2.6-0.5,3.6-1.5c1.9-2,1.9-5.1-0.1-7.1L228.4,221.5z"/>
	<path class="st0" d="M168.6,175.4c1,1,2.2,1.4,3.5,1.4c1.3,0,2.6-0.5,3.6-1.5c1.9-2,1.9-5.1-0.1-7.1l-15.5-15.2
		c-2-1.9-5.1-1.9-7.1,0.1c-1.9,2-1.9,5.1,0.1,7.1L168.6,175.4z"/>
	<path class="st0" d="M175.6,221.1c-2-1.9-5.1-1.9-7.1,0.1L152.9,237c-1.9,2-1.9,5.1,0.1,7.1c1,1,2.2,1.4,3.5,1.4
		c1.3,0,2.6-0.5,3.6-1.5l15.6-15.8C177.6,226.2,177.5,223,175.6,221.1z"/>
	<path class="st0" d="M221.7,175.5c1,1,2.2,1.4,3.5,1.4c1.3,0,2.6-0.5,3.6-1.5l13.5-13.7c1.9-2,1.9-5.1-0.1-7.1
		c-2-1.9-5.1-1.9-7.1,0.1l-13.5,13.7C219.7,170.4,219.7,173.6,221.7,175.5z"/>
</g>
</svg>
