<?xml version="1.0" encoding="utf-8"?>
<!-- Generator: Adobe Illustrator 19.1.0, SVG Export Plug-In . SVG Version: 6.00 Build 0)  -->
<svg version="1.1" id="Layer_1" xmlns="http://www.w3.org/2000/svg" xmlns:xlink="http://www.w3.org/1999/xlink" x="0px" y="0px"
	 viewBox="0 0 400 400" style="enable-background:new 0 0 400 400;" xml:space="preserve">
<style type="text/css">
	.st0{fill:#231F20;}
</style>
<path class="st0" d="M302.8,179.2c-8.7,0-15.9,6.1-17.7,14.3h-39.7l10.9-10.9c2-1.9,2-5.1,0-7.1c-1.9-2-5.1-2-7.1,0l-16.5,16.4
	c-0.7,0.2-1.4,0.6-2,1.2c-0.1,0.1-0.2,0.3-0.3,0.4h-17.3l49.4-50.6c2.9,1.9,6.2,2.9,9.9,2.9c10,0,18.2-8.2,18.2-18.2
	s-8.2-18.2-18.2-18.2c-10,0-18.2,8.2-18.2,18.2c0,2.7,0.6,5.3,1.7,7.6l-50.3,51.5v-22.7l15.2-15.1c2-1.9,2-5.1,0-7.1
	c-1.9-2-5.1-2-7.1,0l-8.1,8.1v-38.4c7.6-2.2,13.2-9.2,13.2-17.5c0-10-8.2-18.2-18.2-18.2c-10,0-18.2,8.2-18.2,18.2
	c0,8.3,5.6,15.3,13.2,17.5v38.3l-9-9c-2-1.9-5.1-1.9-7.1,0c-1.9,2-1.9,5.1,0,7.1l16.1,16v21.3l-46.8-46.8c2.3-3.1,3.8-6.9,3.8-11
	c0-10-8.2-18.2-18.2-18.2c-10,0-18.2,8.2-18.2,18.2s8.2,18.2,18.2,18.2c2.2,0,4.3-0.4,6.3-1.1l48.8,48.8h-19.8
	c-0.2-0.5-0.5-1-0.9-1.4c-0.6-0.6-1.3-1-2-1.2l-15.5-15.4c-2-1.9-5.1-1.9-7.1,0c-1.9,2-1.9,5.1,0,7.1l10.9,10.9h-41.4
	c-1.8-8.1-9.1-14.3-17.7-14.3c-10,0-18.2,8.2-18.2,18.2c0,10,8.2,18.2,18.2,18.2c7.9,0,14.6-5.1,17.1-12.1h37l-7,6.9
	c-2,1.9-2,5.1,0,7.1c1,1,2.3,1.5,3.5,1.5c1.3,0,2.6-0.5,3.5-1.5l14.1-14h25.1L142.1,252c-2.3-1.1-4.9-1.7-7.7-1.7
	c-10,0-18.2,8.2-18.2,18.2s8.2,18.2,18.2,18.2c10,0,18.2-8.2,18.2-18.2c0-3.6-1.1-7-2.9-9.9l46-47.1v17.4l-17.1,17
	c-2,1.9-2,5.1,0,7.1c1,1,2.3,1.5,3.5,1.5c1.3,0,2.6-0.5,3.5-1.5l10-10v42.7c-7.6,2.2-13.2,9.2-13.2,17.5c0,10,8.2,18.2,18.2,18.2
	c10,0,18.2-8.2,18.2-18.2c0-8.3-5.6-15.3-13.2-17.5v-40.9l8.2,8.2c1,1,2.3,1.5,3.5,1.5c1.3,0,2.6-0.5,3.5-1.5c1.9-2,1.9-5.1,0-7.1
	l-15.3-15.2v-21l50.9,50.9c-1.5,2.6-2.3,5.6-2.3,8.8c0,10,8.2,18.2,18.2,18.2c10,0,18.2-8.2,18.2-18.2c0-10-8.2-18.2-18.2-18.2
	c-3.2,0-6.2,0.8-8.8,2.3l-50-50h20.5l15.1,15c1,1,2.3,1.5,3.5,1.5c1.3,0,2.6-0.5,3.5-1.5c1.9-2,1.9-5.1,0-7.1l-8-7.9h37.4
	c2.5,7,9.2,12.1,17.1,12.1c10,0,18.2-8.2,18.2-18.2C321,187.4,312.8,179.2,302.8,179.2z M272.5,119.5c4.5,0,8.2,3.7,8.2,8.2
	c0,4.5-3.7,8.2-8.2,8.2c-4.5,0-8.2-3.7-8.2-8.2C264.3,123.2,268,119.5,272.5,119.5z M192.5,94.2c0-4.5,3.7-8.2,8.2-8.2
	c4.5,0,8.2,3.7,8.2,8.2c0,4-2.9,7.3-6.7,8c-0.5-0.2-1-0.3-1.5-0.3c-0.5,0-1,0.1-1.5,0.3C195.4,101.6,192.5,98.2,192.5,94.2z
	 M126.2,127.7c0-4.5,3.7-8.2,8.2-8.2s8.2,3.7,8.2,8.2c0,4.5-3.7,8.2-8.2,8.2S126.2,132.2,126.2,127.7z M96.1,205.6
	c-4.5,0-8.2-3.7-8.2-8.2c0-4.5,3.7-8.2,8.2-8.2c4.5,0,8.2,3.7,8.2,8.2C104.2,201.9,100.6,205.6,96.1,205.6z M134.4,276.6
	c-4.5,0-8.2-3.7-8.2-8.2c0-4.5,3.7-8.2,8.2-8.2s8.2,3.7,8.2,8.2C142.6,272.9,138.9,276.6,134.4,276.6z M208.9,303.1
	c0,4.5-3.7,8.2-8.2,8.2c-4.5,0-8.2-3.7-8.2-8.2s3.7-8.2,8.2-8.2C205.2,294.9,208.9,298.6,208.9,303.1z M272.5,261.2
	c4.5,0,8.2,3.7,8.2,8.2c0,4.5-3.7,8.2-8.2,8.2c-4.5,0-8.2-3.7-8.2-8.2C264.3,264.9,268,261.2,272.5,261.2z M302.8,205.6
	c-2.9,0-5.5-1.5-6.9-3.8c0.8-0.9,1.2-2,1.2-3.3c0-1.6-0.8-3-2-3.9c1.2-3.1,4.2-5.3,7.7-5.3c4.5,0,8.2,3.7,8.2,8.2
	C311,201.9,307.3,205.6,302.8,205.6z"/>
</svg>
