<?xml version="1.0" encoding="utf-8"?>
<!-- Generator: Adobe Illustrator 19.1.0, SVG Export Plug-In . SVG Version: 6.00 Build 0)  -->
<svg version="1.1" id="Layer_1" xmlns="http://www.w3.org/2000/svg" xmlns:xlink="http://www.w3.org/1999/xlink" x="0px" y="0px"
	 viewBox="0 0 400 400" style="enable-background:new 0 0 400 400;" xml:space="preserve">
<style type="text/css">
	.st0{fill:#231F20;}
</style>
<path class="st0" d="M314.3,192.6H292l14.8-14c2-1.9,2.1-5.1,0.2-7.1c-1.9-2-5.1-2.1-7.1-0.2l-22.5,21.3h-18.3l30.9-42.2
	c1.2-1.6,1.3-3.7,0.3-5.5c-1-1.7-2.9-2.7-4.9-2.5l-49,5.3l8.9-14.2l30.7-7.7c2.7-0.7,4.3-3.4,3.6-6.1c-0.7-2.7-3.4-4.3-6.1-3.6
	l-20.5,5.2l11.6-18.4c1.5-2.3,0.8-5.4-1.6-6.9c-2.3-1.5-5.4-0.8-6.9,1.6l-11.5,18.3l-5-20.2c-0.7-2.7-3.4-4.3-6-3.7
	c-2.7,0.7-4.3,3.4-3.7,6l7.3,29.6l-11.3,18l-22.1-50.2c-0.8-1.8-2.6-3-4.6-3c-2,0-3.8,1.2-4.6,3l-22.2,50.4l-10.9-17.4l6.7-30.2
	c0.6-2.7-1.1-5.4-3.8-6c-2.7-0.6-5.4,1.1-6,3.8l-4.5,20.3l-11.8-18.8c-1.5-2.3-4.6-3-6.9-1.6c-2.3,1.5-3,4.6-1.6,6.9l11.9,18.9
	l-20.7-4.7c-2.7-0.6-5.4,1.1-6,3.8c-0.6,2.7,1.1,5.4,3.8,6l30.4,6.9l8.8,14l-48.8-5.3c-2-0.2-3.9,0.8-4.9,2.5
	c-1,1.7-0.9,3.9,0.3,5.5l30.9,42.2h-17.3l-22.5-21.3c-2-1.9-5.2-1.8-7.1,0.2c-1.9,2-1.8,5.2,0.2,7.1l14.8,14H84.2c-2.8,0-5,2.2-5,5
	s2.2,5,5,5h24.8l-14.9,15.6c-1.9,2-1.8,5.2,0.2,7.1c1,0.9,2.2,1.4,3.4,1.4c1.3,0,2.6-0.5,3.6-1.5l21.4-22.5h16.6l-30.7,42
	c-1.2,1.6-1.3,3.7-0.3,5.5c1,1.7,2.9,2.7,4.9,2.5l49-5.3L151,265l-28.3,7.1c-2.7,0.7-4.3,3.4-3.6,6.1c0.6,2.3,2.6,3.8,4.8,3.8
	c0.4,0,0.8,0,1.2-0.2l18.2-4.6l-9.5,15.1c-1.5,2.3-0.8,5.4,1.6,6.9c0.8,0.5,1.7,0.8,2.7,0.8c1.7,0,3.3-0.8,4.2-2.3l11.2-17.8
	l5.5,22.5c0.6,2.3,2.6,3.8,4.9,3.8c0.4,0,0.8,0,1.2-0.1c2.7-0.7,4.3-3.4,3.7-6l-7.8-31.7c0,0,0-0.1,0-0.1l11.8-18.8l22.1,50.2
	c0.8,1.8,2.6,3,4.6,3c2,0,3.8-1.2,4.6-3l22.1-50l11.5,18.4l-7.1,31.9c-0.6,2.7,1.1,5.4,3.8,6c0.4,0.1,0.7,0.1,1.1,0.1
	c2.3,0,4.4-1.6,4.9-3.9l4.9-22l11.2,17.7c0.9,1.5,2.6,2.3,4.2,2.3c0.9,0,1.8-0.2,2.7-0.8c2.3-1.5,3-4.6,1.6-6.9l-9.9-15.8l19,4.3
	c0.4,0.1,0.7,0.1,1.1,0.1c2.3,0,4.3-1.6,4.9-3.9c0.6-2.7-1.1-5.4-3.8-6l-28.7-6.5l-11-17.4l49.2,5.3c2,0.2,3.9-0.8,4.9-2.5
	c1-1.7,0.9-3.9-0.3-5.5l-30.7-42h17.6l21.4,22.5c1,1,2.3,1.5,3.6,1.5c1.2,0,2.5-0.5,3.4-1.4c2-1.9,2.1-5.1,0.2-7.1l-14.9-15.6h23.5
	c2.8,0,5-2.2,5-5S317,192.6,314.3,192.6z M275.3,153.6l-28.5,39h-38.4l21.4-34L275.3,153.6z M199.3,109.8l20.3,46l-20.4,32.4
	L179,156L199.3,109.8z M123.4,153.6l45.4,4.9l21.4,34h-38.3L123.4,153.6z M123.4,241.3l28.3-38.7h38.4L169,236.4L123.4,241.3z
	 M199.3,285.2l-20.3-46l20.2-32.1l20.3,32.3L199.3,285.2z M275.3,241.3l-45.8-5l-21.2-33.7h38.6L275.3,241.3z"/>
</svg>
