<?xml version="1.0" encoding="utf-8"?>
<!-- Generator: Adobe Illustrator 19.1.0, SVG Export Plug-In . SVG Version: 6.00 Build 0)  -->
<svg version="1.1" id="Layer_1" xmlns="http://www.w3.org/2000/svg" xmlns:xlink="http://www.w3.org/1999/xlink" x="0px" y="0px"
	 viewBox="0 0 400 400" style="enable-background:new 0 0 400 400;" xml:space="preserve">
<g>
	<path d="M298.8,290.3l-47.1-66.5h20.5c1.9,0,3.7-1.1,4.5-2.9c0.8-1.8,0.5-3.8-0.7-5.3l-46.4-54.7h20.2c1.9,0,3.6-1,4.4-2.7
		c0.9-1.6,0.7-3.6-0.3-5.2l-47.5-69.1c-0.9-1.4-2.5-2.2-4.1-2.2c-1.6,0-3.2,0.8-4.1,2.2L150.7,153c-1.1,1.5-1.2,3.5-0.3,5.2
		c0.9,1.6,2.6,2.7,4.4,2.7H175l-46.4,54.7c-1.3,1.5-1.5,3.6-0.7,5.3c0.8,1.8,2.6,2.9,4.5,2.9H153l-47.1,66.5
		c-1.1,1.5-1.2,3.5-0.4,5.2c0.9,1.7,2.6,2.7,4.4,2.7h53l-0.1,35.5c0,1.3,0.5,2.6,1.5,3.5c0.9,0.9,2.2,1.5,3.5,1.5h68.9
		c2.8,0,5-2.2,5-5v-35.5h53c1.9,0,3.6-1,4.4-2.7C300,293.8,299.9,291.8,298.8,290.3z M224.6,150.8l-10.3-37.9l26.1,37.9H224.6z
		 M213.2,220.7l18.9,67.5h-24.7V168l15.6,46.4H218c-1.6,0-3,0.7-4,2C213.1,217.6,212.8,219.2,213.2,220.7z M190.2,151.7l7.2-26.3
		V152c-0.5-0.2-1-0.2-1.5-0.2H190.2z M208.9,151.7c-0.5,0-1,0.1-1.5,0.2v-26.6l7.2,26.3H208.9z M164.3,150.8l26.1-37.9l-10.3,37.9
		H164.3z M166.7,221.6c1.1-1.5,1.2-3.5,0.4-5.2c-0.9-1.7-2.6-2.7-4.4-2.7h-19.4l44.1-52h1.6l-18.8,56c-0.5,1.5-0.3,3.2,0.7,4.5
		c0.9,1.3,2.5,2.1,4.1,2.1h5.3l-17.9,63.8h-42.6L166.7,221.6z M231.7,328.7h-58.9l0.1-35.5c0-1-0.3-2.1-0.9-2.9l19.5-69.6
		c0.4-1.5,0.1-3.1-0.8-4.4c-0.9-1.2-2.4-2-4-2h-4.9l15.6-46.4v120.2H188c-2.8,0-5,2.2-5,5s2.2,5,5,5h43.8V328.7z M242.5,288.2
		l-17.9-63.8h5.3c1.6,0,3.1-0.8,4.1-2.1c0.9-1.3,1.2-3,0.7-4.5l-18.8-56h1.6l44.1,52h-19.4c-1.9,0-3.6,1-4.4,2.7
		c-0.9,1.7-0.7,3.7,0.4,5.2l47.1,66.5H242.5z"/>
	<polygon points="194,75.7 202.4,71.3 210.7,75.7 209.1,66.4 215.9,59.8 206.5,58.5 202.4,50 198.2,58.5 188.8,59.8 195.6,66.4 	"/>
</g>
</svg>
