<?xml version="1.0" encoding="utf-8"?>
<!-- Generator: Adobe Illustrator 19.1.0, SVG Export Plug-In . SVG Version: 6.00 Build 0)  -->
<svg version="1.1" id="Layer_1" xmlns="http://www.w3.org/2000/svg" xmlns:xlink="http://www.w3.org/1999/xlink" x="0px" y="0px"
	 viewBox="0 0 400 400" style="enable-background:new 0 0 400 400;" xml:space="preserve">
<style type="text/css">
	.st0{fill:#231F20;}
</style>
<path class="st0" d="M313.5,159.3c-0.9-2.6-3.8-4-6.4-3.1l-20.4,7.1l8.7-18.9c1.2-2.5,0.1-5.5-2.4-6.6c-2.5-1.2-5.5-0.1-6.6,2.4
	l-12.8,27.7l-19.6,6.8l9-19.4c1.2-2.5,0.1-5.5-2.4-6.6c-2.5-1.2-5.5-0.1-6.6,2.4l-11.2,24.2l-29.4-23.4l20.8-16.8
	c2.1-1.7,2.5-4.9,0.8-7c-1.7-2.1-4.9-2.5-7-0.8l-16.2,13l2.1-19.1l24.1-19.4c2.1-1.7,2.5-4.9,0.8-7c-1.7-2.1-4.9-2.5-7-0.8
	l-16.2,13.1l2.5-22c0.3-2.7-1.7-5.2-4.4-5.5c-2.8-0.3-5.2,1.7-5.5,4.4l-2.5,22.2l-13.2-16.6c-1.7-2.2-4.9-2.5-7-0.8
	c-2.2,1.7-2.5,4.9-0.8,7l19.5,24.4l-2.2,19.2l-13.2-16.6c-1.7-2.2-4.9-2.5-7-0.8c-2.2,1.7-2.5,4.9-0.8,7l17.6,22l-30.7,12l-3.8-26.8
	c-0.4-2.7-2.9-4.6-5.7-4.2c-2.7,0.4-4.6,2.9-4.2,5.7l2.9,20.2L143.1,147l-4.4-30.7c-0.4-2.7-2.9-4.6-5.7-4.2
	c-2.7,0.4-4.6,2.9-4.2,5.7l2.9,20.2l-18.4-14.7c-2.2-1.7-5.3-1.4-7,0.8c-1.7,2.2-1.4,5.3,0.8,7l19.3,15.4l-21.4,2.9
	c-2.7,0.4-4.6,2.9-4.3,5.6c0.3,2.5,2.5,4.3,4.9,4.3c0.2,0,0.5,0,0.7,0l30.8-4.2l14.3,11.4l-21.4,2.9c-2.7,0.4-4.6,2.9-4.3,5.6
	c0.3,2.5,2.5,4.3,4.9,4.3c0.2,0,0.5,0,0.7,0l26.1-3.6l-4.8,31.8l-26.3-12c-2.5-1.1-5.5,0-6.6,2.5c-1.1,2.5,0,5.5,2.5,6.6l20,9.1
	l-21.3,7.4l-28.8-13.1c-2.5-1.1-5.5,0-6.6,2.5c-1.1,2.5,0,5.5,2.5,6.6l19.3,8.8l-17.6,6.1c-2.6,0.9-4,3.8-3.1,6.4
	c0.7,2.1,2.7,3.4,4.7,3.4c0.5,0,1.1-0.1,1.6-0.3l17.3-6l-8.7,18.9c-1.2,2.5-0.1,5.5,2.4,6.6c0.7,0.3,1.4,0.5,2.1,0.5
	c1.9,0,3.7-1.1,4.5-2.9l12.8-27.7l20.8-7.3l-8.4,18.2c-1.2,2.5-0.1,5.5,2.4,6.6c0.7,0.3,1.4,0.5,2.1,0.5c1.9,0,3.7-1.1,4.5-2.9
	l11-23.9l32.1,25.6l-22.3,18c-2.1,1.7-2.5,4.9-0.8,7c1,1.2,2.4,1.9,3.9,1.9c1.1,0,2.2-0.4,3.1-1.1l16-12.9l-2.1,18.4l-24.5,19.7
	c-2.1,1.7-2.5,4.9-0.8,7c1,1.2,2.4,1.9,3.9,1.9c1.1,0,2.2-0.4,3.1-1.1l16.6-13.4l-2.2,19.4c-0.3,2.7,1.7,5.2,4.4,5.5
	c0.2,0,0.4,0,0.6,0c2.5,0,4.7-1.9,5-4.4l2.1-18.9l12.9,16.2c1,1.2,2.4,1.9,3.9,1.9c1.1,0,2.2-0.4,3.1-1.1c2.2-1.7,2.5-4.9,0.8-7
	l-19.1-24l2.2-19.6l13.4,16.8c1,1.2,2.4,1.9,3.9,1.9c1.1,0,2.2-0.4,3.1-1.1c2.2-1.7,2.5-4.9,0.8-7l-19.2-24l32.2-12.6l2.3,26.5
	c0.2,2.6,2.4,4.6,5,4.6c0.1,0,0.3,0,0.4,0c2.8-0.2,4.8-2.7,4.5-5.4l-1.9-21.5l15,11.9l2.7,31c0.2,2.6,2.4,4.6,5,4.6
	c0.1,0,0.3,0,0.4,0c2.8-0.2,4.8-2.7,4.5-5.4l-1.9-21.5l18.4,14.7c0.9,0.7,2,1.1,3.1,1.1c1.5,0,2.9-0.6,3.9-1.9
	c1.7-2.2,1.4-5.3-0.8-7l-17.4-13.9l20.3-1.7c2.8-0.2,4.8-2.6,4.6-5.4c-0.2-2.8-2.6-4.8-5.4-4.6l-30.9,2.6L250,232.3l20.3-1.7
	c2.8-0.2,4.8-2.6,4.6-5.4c-0.2-2.8-2.6-4.8-5.4-4.6l-27.3,2.3l4.9-32.8l25.4,11.5c0.7,0.3,1.4,0.5,2.1,0.5c1.9,0,3.7-1.1,4.6-2.9
	c1.1-2.5,0-5.5-2.5-6.6l-18.8-8.5l18.3-6.4l28.8,13.1c0.7,0.3,1.4,0.5,2.1,0.5c1.9,0,3.7-1.1,4.6-2.9c1.1-2.5,0-5.5-2.5-6.6
	l-19.3-8.8l20.6-7.2C313,164.8,314.4,161.9,313.5,159.3z M209.4,161.5l25.2,20.1l-28.5,10L209.4,161.5z M196.2,189.4l-22.4-17.9
	l25.5-10L196.2,189.4z M190,197.2l-26.9,9.4l4.2-27.5L190,197.2z M194.3,206.2l-3.5,30.9L165,216.5L194.3,206.2z M204.1,208.5
	l22.7,18.1l-25.9,10.2L204.1,208.5z M210.4,200.6l26.5-9.3l-4.1,27.1L210.4,200.6z"/>
</svg>
