<?xml version="1.0" encoding="utf-8"?>
<!-- Generator: Adobe Illustrator 19.1.0, SVG Export Plug-In . SVG Version: 6.00 Build 0)  -->
<svg version="1.1" id="Layer_1" xmlns="http://www.w3.org/2000/svg" xmlns:xlink="http://www.w3.org/1999/xlink" x="0px" y="0px"
	 viewBox="0 0 400 400" style="enable-background:new 0 0 400 400;" xml:space="preserve">
<style type="text/css">
	.st0{fill:#231F20;}
</style>
<path class="st0" d="M282.2,144h-52.8c1.5-0.7,3-1.4,4.6-2.1c7.1-3.4,12.7-6.5,17.1-9.4c0.1-0.1,0.3-0.2,0.4-0.3
	c15.5-10.2,16.1-17.3,16.4-20c0.6-6.6-3.4-12.3-12-16.9c-6.7-3.6-13.6-4-20.6-1.3c-5.2,2.1-10,5.9-14.3,10.6
	c-0.3,0.3-0.6,0.6-0.8,0.9c-6.2,7.1-11.4,15.9-15.2,23.6c-1-12.6-5.2-32.7-21.6-42.7c-20.2-12.2-39.8,3.8-47.7,14.4
	c-0.9,0.8-1.8,1.7-2.6,2.7c-5.2,5.9-4.8,11.4-3.6,15c3.1,9.1,15.6,17.2,38.4,24.9c0.5,0.2,1,0.3,1.5,0.5h-52.8c-9.4,0-17,7.6-17,17
	v42c0,9.4,7.6,17,17,17h62v93.1h-43.2c-3.9,0-7-3.1-7-7V233c0-2.8-2.2-5-5-5c-2.8,0-5,2.2-5,5v73.1c0,9.4,7.6,17,17,17h48.2h31.7
	H265c9.4,0,17-7.6,17-17V233c0-2.8-2.2-5-5-5c-2.8,0-5,2.2-5,5v73.1c0,3.9-3.1,7-7,7h-44.7V220h61.9c9.4,0,17-7.6,17-17v-42
	C299.2,151.6,291.5,144,282.2,144z M212.8,154v56H191v-56h9.1c0.6,0.2,1.2,0.3,1.8,0.3c0.5,0,1-0.1,1.6-0.2c0,0,0.1,0,0.3-0.1H212.8
	z M244.2,102.3c2.3,0,4.6,0.6,6.9,1.9c3.2,1.7,7,4.4,6.7,7.2c-0.2,2.3-2.1,4.9-5.2,7.6c-1.1-4-3.1-7.3-6-9.9
	c-2.8-2.6-6.2-4.1-9.5-4.9c0.6-0.3,1.2-0.6,1.8-0.8C240.7,102.6,242.4,102.3,244.2,102.3z M226.8,113.1c3.5-0.2,9.6,0.2,13.2,3.4
	c2.2,2,3.4,4.9,3.6,8.9c-9.3,5.6-21.6,11.2-33,15.5C214.3,132.2,220,121.2,226.8,113.1z M178.2,95c12.2,7.4,15.7,23.3,16.7,33.9
	c-9-13.2-23-30.1-37.9-33.8C164.6,91,171.5,91,178.2,95z M138.9,115.3c-0.2-0.7-0.8-2.4,1.7-5.3c3.3-3.8,6.8-5.6,10.7-5.6
	c0.5,0,1,0,1.5,0.1c13,1.5,28.2,21,37.2,35.1C167.7,133.9,141.9,124.2,138.9,115.3z M109.6,203v-42c0-3.9,3.1-7,7-7H181v56h-64.5
	C112.7,210,109.6,206.9,109.6,203z M188.6,313.1V220h21.7v93.1H188.6z M289.2,203c0,3.9-3.1,7-7,7h-59.4v-56h59.4c3.9,0,7,3.1,7,7
	V203z"/>
</svg>
