<?xml version="1.0" encoding="utf-8"?>
<!-- Generator: Adobe Illustrator 19.1.0, SVG Export Plug-In . SVG Version: 6.00 Build 0)  -->
<svg version="1.1" id="Layer_1" xmlns="http://www.w3.org/2000/svg" xmlns:xlink="http://www.w3.org/1999/xlink" x="0px" y="0px"
	 viewBox="0 0 400 400" style="enable-background:new 0 0 400 400;" xml:space="preserve">
<style type="text/css">
	.st0{fill:#231F20;}
</style>
<g>
	<path class="st0" d="M282,144h-52.8c1.5-0.7,3-1.4,4.6-2.1c7.1-3.4,12.7-6.5,17.1-9.4c0.1-0.1,0.3-0.2,0.4-0.3
		c15.5-10.2,16.1-17.3,16.4-20c0.6-6.6-3.4-12.3-12-16.9c-6.7-3.6-13.6-4-20.6-1.3c-5.2,2.1-10,5.9-14.3,10.6
		c-0.3,0.3-0.6,0.6-0.8,0.9c-6.2,7.1-11.4,15.9-15.2,23.6c-1-12.6-5.2-32.7-21.6-42.7c-20.2-12.2-39.8,3.8-47.7,14.3
		c-0.9,0.8-1.8,1.7-2.6,2.7c-5.2,5.9-4.8,11.4-3.6,15c3.1,9.1,15.6,17.2,38.4,24.9c0.5,0.2,1,0.3,1.5,0.5h-52.8c-9.4,0-17,7.6-17,17
		v42c0,9.4,7.6,17,17,17h62v41.6c-0.3-0.1-0.6-0.1-0.9-0.1c-8.7,0-15.7,7.1-15.7,15.7s7.1,15.7,15.7,15.7c0.3,0,0.6,0,0.9-0.1v20.1
		h-43.2c-3.9,0-7-3.1-7-7v-39.2c7.1-1.5,12.5-7.8,12.5-15.4c0-7.6-5.4-13.9-12.5-15.4V233c0-2.8-2.2-5-5-5c-2.8,0-5,2.2-5,5v73.1
		c0,9.4,7.6,17,17,17h48.2h31.7h49.7c9.4,0,17-7.6,17-17V233c0-2.8-2.2-5-5-5s-5,2.2-5,5v43.6c-2.8-2.7-6.6-4.3-10.8-4.3
		c-8.7,0-15.7,7.1-15.7,15.7c0,8.7,7.1,15.7,15.7,15.7c4.2,0,8-1.6,10.8-4.3v6.6c0,3.9-3.1,7-7,7h-44.7v-56.7
		c8.2-0.5,14.7-7.4,14.7-15.7c0-8.3-6.5-15.2-14.7-15.7v-5H282c9.4,0,17-7.6,17-17v-42C299,151.6,291.3,144,282,144z M130.6,251.5
		c0,1.9-1,3.7-2.5,4.7v-9.4C129.6,247.8,130.6,249.5,130.6,251.5z M261,293.8c-3.2,0-5.7-2.6-5.7-5.7c0-3.2,2.6-5.7,5.7-5.7
		s5.7,2.6,5.7,5.7C266.7,291.2,264.1,293.8,261,293.8z M212.6,154v56h-21.7v-56h9.1c0.6,0.2,1.2,0.3,1.8,0.3c0.5,0,1-0.1,1.6-0.2
		c0,0,0.1,0,0.3-0.1H212.6z M243.9,102.3c2.3,0,4.6,0.6,6.9,1.9c3.2,1.7,7,4.4,6.7,7.2c-0.2,2.3-2.1,4.9-5.2,7.6
		c-1.1-4-3.1-7.3-6-9.9c-2.8-2.6-6.2-4.1-9.5-4.9c0.6-0.3,1.2-0.6,1.8-0.8C240.5,102.6,242.2,102.3,243.9,102.3z M226.6,113.1
		c3.5-0.2,9.6,0.2,13.2,3.4c2.2,2,3.4,4.9,3.6,8.9c-9.3,5.6-21.6,11.2-33,15.5C214.1,132.2,219.8,121.2,226.6,113.1z M178,95
		c12.2,7.4,15.8,23.3,16.7,33.9c-8.9-13.2-23-30.1-37.8-33.8C162.9,91.9,170.3,90.4,178,95z M138.7,115.3c-0.2-0.7-0.8-2.4,1.7-5.3
		c3.3-3.8,6.8-5.6,10.7-5.6c0.5,0,1,0,1.5,0.1c13,1.5,28.2,21,37.2,35.1C167.5,133.9,141.7,124.2,138.7,115.3z M150.2,154
		c-0.2,0.5-0.3,1-0.3,1.5c0,3.2-2.6,5.7-5.7,5.7c-3.2,0-5.7-2.6-5.7-5.7c0-0.5-0.1-1-0.3-1.5H150.2z M109.3,203v-42c0-3.9,3.1-7,7-7
		h12.4c-0.2,0.5-0.3,1-0.3,1.5c0,8.7,7.1,15.7,15.7,15.7c8.7,0,15.7-7.1,15.7-15.7c0-0.5-0.1-1-0.3-1.5h21.1v56h-4.9
		c-1-7.8-7.6-13.8-15.6-13.8c-8,0-14.6,6-15.6,13.8h-28.4C112.5,210,109.3,206.9,109.3,203z M165.7,210h-10.8
		c0.8-2.2,2.9-3.8,5.4-3.8S164.9,207.8,165.7,210z M177.4,283c-3.2,0-5.7-2.6-5.7-5.7c0-3.2,2.6-5.7,5.7-5.7c0.3,0,0.6,0,0.9-0.1
		v11.7C178.1,283.1,177.8,283,177.4,283z M188.3,313.1V220h21.7v93.1H188.3z M224.8,240.7c0,2.8-2.1,5.2-4.7,5.7V235
		C222.8,235.5,224.8,237.9,224.8,240.7z M289,203c0,3.9-3.1,7-7,7h-59.4v-56H282c3.9,0,7,3.1,7,7V203z"/>
	<path class="st0" d="M262.8,163.3c-8.7,0-15.7,7.1-15.7,15.7s7.1,15.7,15.7,15.7c8.7,0,15.7-7.1,15.7-15.7S271.4,163.3,262.8,163.3
		z M262.8,184.7c-3.2,0-5.7-2.6-5.7-5.7s2.6-5.7,5.7-5.7s5.7,2.6,5.7,5.7S265.9,184.7,262.8,184.7z"/>
</g>
</svg>
