<?xml version="1.0" encoding="utf-8"?>
<!-- Generator: Adobe Illustrator 19.1.0, SVG Export Plug-In . SVG Version: 6.00 Build 0)  -->
<svg version="1.1" id="Layer_1" xmlns="http://www.w3.org/2000/svg" xmlns:xlink="http://www.w3.org/1999/xlink" x="0px" y="0px"
	 viewBox="0 0 400 400" style="enable-background:new 0 0 400 400;" xml:space="preserve">
<style type="text/css">
	.st0{fill:#231F20;}
</style>
<path class="st0" d="M281.9,144h-52.8c1.5-0.7,3-1.4,4.6-2.1c7.1-3.4,12.7-6.5,17.1-9.4c0.1-0.1,0.3-0.2,0.4-0.3
	c15.5-10.2,16.1-17.3,16.4-20c0.6-6.6-3.4-12.3-12-16.9c-3.8-2-7.7-3.1-11.6-3.1c-12.2,0-23.9,9.6-34.8,28.5
	c-1.6,2.8-3.1,5.6-4.4,8.3c-1-12.6-5.2-32.7-21.6-42.7c-20.2-12.2-39.8,3.8-47.7,14.3c-0.9,0.8-1.8,1.7-2.7,2.7
	c-5.2,5.9-4.8,11.4-3.6,15c3.1,9.1,15.6,17.2,38.4,24.9c0.5,0.2,1,0.3,1.5,0.5h-52.8c-9.4,0-17,7.6-17,17v20.1c0,0.1,0,0.1,0,0.2
	V203c0,9.4,7.6,17,17,17h16l-8.9,9c-0.1,0-0.2,0-0.3,0c-2.8,0-5,2.2-5,5v72.1c0,9.4,7.6,17,17,17h48.2H215h49.7c9.4,0,17-7.6,17-17
	V233c0-0.3,0-0.6-0.1-0.9c0.3-1.6-0.2-3.3-1.5-4.6c-2-1.9-5.2-1.8-7.1,0.2L220,284v-12.3l47.9-51.6h14c9.4,0,17-7.6,17-17v-42
	C298.9,151.6,291.3,144,281.9,144z M281.9,154c2.5,0,4.6,1.3,5.9,3.2c-0.1,0.1-0.2,0.2-0.3,0.3L238.6,210h-11.2l51.8-56H281.9z
	 M229.3,220l-9.3,10v-10H229.3z M265.6,154l-43.1,46.6v-8.8l35.1-37.8H265.6z M233,154h10.9l-21.4,23.1v-11.8L233,154z M243.9,102.3
	c2.3,0,4.6,0.6,6.9,1.9c3.2,1.7,7,4.4,6.7,7.2c-0.2,2.3-2.1,4.9-5.2,7.6c-1.1-4-3.1-7.3-6-9.9c-2.9-2.6-6.2-4.1-9.5-4.9
	C239.6,102.8,242,102.3,243.9,102.3z M178,95c12.3,7.4,15.8,23.5,16.7,34.1c-1.9-2.8-4.1-5.9-6.5-8.9c-11.1-14.3-21.6-22.6-31.4-25
	C164.3,91,171.2,91,178,95z M109.3,161c0-3.9,3.1-7,7-7h5.5l-12.5,13.9V161z M109.3,182.9l25.9-28.9h12l-37.9,40.8V182.9z
	 M119.6,210h-3.2c-2.1,0-4-0.9-5.3-2.4l49.8-53.6h10.7L119.6,210z M128.1,238.6l18.2-18.6h11.8l-30,32.3V238.6z M178.3,301.9
	L168,313.1h-11.6l21.9-23.5V301.9z M178.3,274.8l-35.5,38.2h-7.7c-0.9,0-1.8-0.2-2.6-0.5l45.8-49.5V274.8z M178.3,248.3l-50.2,54.3
	v-9.2l50.2-54.1V248.3z M178.3,224.6l-50.2,54.1V267l43.7-47h6.6V224.6z M180.8,195.6L167.4,210h-11l5.5-5.9l1.6-1.6
	c0.2-0.2,0.4-0.4,0.5-0.7l16.8-18V195.6z M180.8,169.1l-26.1,28.1L142.1,210h-8.9l47.6-51.2V169.1z M170.7,134
	c-26.2-8.9-31.1-16-32-18.6c-0.2-0.7-0.8-2.4,1.7-5.3c3.3-3.8,6.8-5.6,10.7-5.6c7.9,0,18.3,7.8,29.2,21.8c3.6,4.7,6.8,9.4,9.3,13.3
	C184.2,138.2,177.5,136.3,170.7,134z M210,313.1h-3.7h-13.7h-4.3V220H210V313.1z M212.5,210h-21.7v-56h9.1c0.6,0.2,1.2,0.3,1.8,0.3
	c0.5,0,1-0.1,1.6-0.2c0,0,0.1,0,0.3-0.1h9.1V210z M271.7,306.1c0,3.9-3.1,7-7,7h-12.3l19.3-20.7V306.1z M271.7,277.7
	c-0.1,0.1-0.2,0.2-0.3,0.3l-32.6,35.1h-9.3l42.3-45.3V277.7z M271.7,243.7v9.4c-0.1,0.1-0.2,0.2-0.3,0.3L220,308.5v-10L271.7,243.7z
	 M212.1,140.3c-0.4-0.2-0.9-0.3-1.3-0.4c1.9-4.2,4.3-9.3,7.1-14.2c3-5.2,5.9-9.3,8.6-12.5c3.5-0.2,9.6,0.2,13.2,3.4
	c2.2,2,3.4,4.9,3.6,8.9C234.5,130.8,222.9,136.1,212.1,140.3z M220,256.9v-12.3L243,220h11.3L220,256.9z M288.9,203c0,3.9-3.1,7-7,7
	h-4.7l11.7-12.6V203z M288.9,182.7L263.6,210h-11.3l36.7-39.4V182.7z"/>
</svg>
