<?xml version="1.0" encoding="utf-8"?>
<!-- Generator: Adobe Illustrator 19.1.0, SVG Export Plug-In . SVG Version: 6.00 Build 0)  -->
<svg version="1.1" id="Layer_1" xmlns="http://www.w3.org/2000/svg" xmlns:xlink="http://www.w3.org/1999/xlink" x="0px" y="0px"
	 viewBox="0 0 400 400" style="enable-background:new 0 0 400 400;" xml:space="preserve">
<style type="text/css">
	.st0{fill:#231F20;}
</style>
<g>
	<path class="st0" d="M286,243.5c-2.7,0.4-4.7,2.9-4.3,5.6c0.4,3.2,0.6,6.5,0.6,9.7c0,41.2-33.5,74.7-74.7,74.7
		c-41.2,0-74.7-33.5-74.7-74.7c0-16.1,5.6-30.7,17.1-44.5c1,0.7,2,1.3,3.1,2c3.1,1.8,7.3,3.4,12.2,4.7l-14.9,42
		c-0.5,1.4-0.3,3,0.5,4.3c0.8,1.3,2.2,2.1,3.7,2.3l2.9,0.3L155,279c-0.8,2.7,0.8,5.4,3.4,6.2c0.5,0.1,0.9,0.2,1.4,0.2
		c2.2,0,4.2-1.4,4.8-3.6l3.1-10.8l4.2,0.5l-2.2,9.9c-0.6,2.7,1.1,5.4,3.8,6c0.4,0.1,0.7,0.1,1.1,0.1c2.3,0,4.4-1.6,4.9-3.9l2.4-11
		l4.7,0.5l-2.3,10.3c-0.6,2.7,1.1,5.4,3.8,6c0.4,0.1,0.7,0.1,1.1,0.1c2.3,0,4.4-1.6,4.9-3.9l2.5-11.4l3.7,0.4c0.2,0,0.4,0,0.5,0
		c2.4,0,4.4-1.7,4.9-4l9.3-46c14.2-0.8,27.5-3.2,36.7-7c5.4-2.3,9.3-5,11.6-8.2c3.6,4.1,6.8,8.5,9.4,13.2c0.9,1.6,2.6,2.6,4.4,2.6
		c0.8,0,1.7-0.2,2.4-0.6c2.4-1.3,3.3-4.4,1.9-6.8c-3.7-6.7-8.4-12.9-13.8-18.4c-0.3-0.3-0.6-0.5-0.9-0.7c0.8-6.4-0.2-11.4-2.9-14.9
		c-2.2-2.9-5.2-4.3-7.6-4.8c0.5-0.9,1-1.7,1.5-2.6c1.3-2.4,0.4-5.5-2-6.8c-2.4-1.3-5.5-0.4-6.8,2c-2.5,4.6-5.7,8.7-9.6,12.2
		c-0.6,0.5-1,1.1-1.2,1.8c-32.7,12.4-50.2,7.3-61.6-0.3c-0.3-0.5-0.6-1.1-1.1-1.5c-9.8-9-15.4-21.7-15.4-34.9
		c0-15.1,7.3-29.4,19.6-38.3c0.2-0.1,0.4-0.3,0.5-0.5l40.6-6.6c0.7,0.2,1.5,0.4,2.2,0.7c17.3,6,29.7,21.7,31.5,39.9
		c0.3,2.6,2.4,4.5,5,4.5c0.2,0,0.3,0,0.5,0c2.7-0.3,4.7-2.7,4.5-5.5c-1.8-17.7-11.8-33.4-26.6-42.7c1.6-1,2.6-3,2.3-5
		c-0.4-2.7-3-4.6-5.7-4.1l-8.3,1.3l-3.6-22c-0.7-4.5-3.2-8.4-6.8-11.1c-3.7-2.7-8.2-3.7-12.7-3l-27.4,4.4c-4.5,0.7-8.4,3.2-11.1,6.8
		c-2.7,3.7-3.7,8.2-3,12.7l3.6,22l-6.4,1c-2.7,0.4-4.6,3-4.1,5.7c0.4,2.5,2.5,4.2,4.9,4.2c0.3,0,0.5,0,0.8-0.1l2.5-0.4
		c-8.1,10.1-12.8,22.8-12.8,36c0,7,1.3,13.9,3.8,20.4c-4.8-0.9-7.4,1.2-8.6,2.5c-3.5,4-2.3,10.9-0.8,15.7c-2.4,2.3-5.2,6.1-5.2,11.1
		c0,3.1,1.1,6.1,3.3,9c-8.3,9.9-14,20.2-17,31.2l-9.9-2.6l-2.5-16.8c-0.4-2.7-3-4.6-5.7-4.2c-2.7,0.4-4.6,2.9-4.2,5.7l1.9,12.6
		l-17.9-4.6c-2.7-0.7-5.4,0.9-6.1,3.6c-0.7,2.7,0.9,5.4,3.6,6.1l38.9,10c-0.5,3.4-0.7,6.8-0.7,10.3c0,46.7,38,84.7,84.7,84.7
		c46.7,0,84.7-38,84.7-84.7c0-3.7-0.2-7.4-0.7-11C291.3,245,288.8,243.1,286,243.5z M171.7,78.6c-0.3-1.8,0.1-3.7,1.2-5.2
		c1.1-1.5,2.7-2.5,4.5-2.8l27.4-4.4c1.8-0.3,3.7,0.1,5.2,1.2c1.5,1.1,2.5,2.7,2.8,4.5l3.4,20.8c-0.9,0.3-1.7,0.9-2.3,1.6l-38.8,6.3
		L171.7,78.6z M197,264.1l-34.9-3.8l13.2-37.4c8.4,1.3,17.9,2,27.5,2c0.7,0,1.4,0,2,0L197,264.1z M153.1,193.3
		c2.1-1.3,3-3.9,2.1-6.2c-1.1-2.6-1.9-6-2-7.9c1.9,0.8,4.5,3.1,7.2,5.5c6.7,6,15.8,14.2,31.2,17.1c17.3,3.3,38.3-0.9,63.9-12.8
		c0.2,0.2,0.5,0.4,0.7,0.7c0.7,1,2,4.2,0,12.3c-0.2,1-1.5,3.5-8.1,6.2c-17.1,7.2-53,8.5-75.3,4.1c0,0,0,0,0,0
		c-6-1.2-11-2.8-14.4-4.8c-2.4-1.4-4.2-2.7-5.5-3.9c0,0,0,0,0,0c0,0-0.1,0-0.1-0.1c-2.8-2.6-3.3-4.4-3.3-5.2
		C149.4,196.2,152.2,193.9,153.1,193.3z"/>
	<path class="st0" d="M204.3,137.1c9.7,0,9.7-15,0-15C194.7,122.1,194.7,137.1,204.3,137.1z"/>
	<path class="st0" d="M229.8,122.1c-9.7,0-9.7,15,0,15C239.5,137.1,239.5,122.1,229.8,122.1z"/>
	<path class="st0" d="M316.8,217.9c-1.2-2.5-4.2-3.5-6.7-2.3l-48,23.5c-2.5,1.2-3.5,4.2-2.3,6.7c0.9,1.8,2.6,2.8,4.5,2.8
		c0.7,0,1.5-0.2,2.2-0.5l48-23.5C317,223.4,318,220.4,316.8,217.9z"/>
	<path class="st0" d="M217.3,157.3c0,2.8,2.2,5,5,5h58.5c2.8,0,5-2.2,5-5s-2.2-5-5-5h-58.5C219.5,152.3,217.3,154.5,217.3,157.3z"/>
</g>
</svg>
