<?xml version="1.0" encoding="utf-8"?>
<!-- Generator: Adobe Illustrator 19.1.0, SVG Export Plug-In . SVG Version: 6.00 Build 0)  -->
<svg version="1.1" id="Layer_1" xmlns="http://www.w3.org/2000/svg" xmlns:xlink="http://www.w3.org/1999/xlink" x="0px" y="0px"
	 viewBox="0 0 400 400" style="enable-background:new 0 0 400 400;" xml:space="preserve">
<style type="text/css">
	.st0{fill:#231F20;}
</style>
<g>
	<path class="st0" d="M286.2,241.5c-2.7,0.4-4.7,2.9-4.3,5.6c0.4,3.2,0.6,6.5,0.6,9.7c0,41.2-33.5,74.7-74.7,74.7
		s-74.7-33.5-74.7-74.7c0-17.5,6.6-33.1,20.2-48c0.1-0.1,5.5-6.3,9.8-10c2.1-1.8,2.3-5,0.5-7.1c-1.8-2.1-5-2.3-7.1-0.5
		c-4.8,4.2-10.6,10.7-10.8,10.9c-10,10.9-16.6,22.4-20,34.6l-9.9-2.6l-2.5-16.8c-0.4-2.7-2.9-4.6-5.7-4.2c-2.7,0.4-4.6,2.9-4.2,5.7
		l1.9,12.6l-17.9-4.6c-2.7-0.7-5.4,0.9-6.1,3.6c-0.7,2.7,0.9,5.4,3.6,6.1l38.9,10c-0.5,3.4-0.7,6.8-0.7,10.3
		c0,46.7,38,84.7,84.7,84.7c46.7,0,84.7-38,84.7-84.7c0-3.7-0.2-7.4-0.7-11C291.4,243,288.9,241.1,286.2,241.5z"/>
	<path class="st0" d="M256.2,167.5c-2.4-1.3-5.5-0.4-6.8,2c-2.5,4.6-5.7,8.7-9.6,12.2c-1.3,1.2-1.9,2.9-1.5,4.6
		c0.3,1.7,1.5,3.1,3.1,3.7c0.2,0.1,20.2,7.9,31.6,30.3c0.9,1.7,2.6,2.7,4.5,2.7c0.8,0,1.5-0.2,2.3-0.5c2.5-1.3,3.4-4.3,2.2-6.7
		c-9-17.6-22.5-27.4-30.4-31.9c2.5-3,4.8-6.2,6.7-9.7C259.5,171.8,258.6,168.8,256.2,167.5z"/>
	<path class="st0" d="M230,124.1c-9.7,0-9.7,15,0,15C239.7,139.1,239.7,124.1,230,124.1z"/>
	<path class="st0" d="M317,215.9c-1.2-2.5-4.2-3.5-6.7-2.3l-48,23.5c-2.5,1.2-3.5,4.2-2.3,6.7c0.9,1.8,2.6,2.8,4.5,2.8
		c0.7,0,1.5-0.2,2.2-0.5l48-23.5C317.2,221.4,318.2,218.4,317,215.9z"/>
	<path class="st0" d="M120.2,169.1c0,8,6.5,14.6,14.6,14.6c8,0,14.6-6.5,14.6-14.6c0-6.3-4-11.6-9.5-13.6c0.5-2.3,1.3-5,2.5-8
		c0.3,0.4,0.6,0.8,1,1.2c2.2,2.4,4.7,3.9,7.1,4.8c3.9,28.7,28.3,50.2,57.4,50.2c2.8,0,5-2.2,5-5c0-2.8-2.2-5-5-5
		c-23.5,0-43.3-16.8-47.3-39.7c0.5-0.3,0.9-0.7,1.3-1.2c30.4-40.3,81.1-37.9,81.6-37.9c0.4,0,0.8,0,1.2-0.1
		c5.6,6.7,9.2,14.6,10.6,23.2c0.4,2.5,2.5,4.2,4.9,4.2c0.3,0,0.5,0,0.8-0.1c2.7-0.4,4.6-3,4.2-5.7c-1.8-11.3-6.8-21.6-14.6-30.1
		c1.5-4.9,1.3-9.5-0.5-13.7c-3.7-8.7-12.9-11.6-14-11.9c-0.4-0.1-0.9-0.2-1.4-0.2c-0.3,0-0.7,0-1,0c-0.4,0-0.9,0-1.3,0
		c-0.1-0.3-0.3-0.6-0.5-0.9c-0.2-0.4-6-9-17.5-14.4c-19.1-8.8-38.8-2-52.1,5.2c-29.3,16.1-36.8,40.6-37.9,58.4
		c-0.7,11.5,1,21.5,2.6,27.8C122.9,159.3,120.2,163.9,120.2,169.1z M134.7,173.6c-2.5,0-4.6-2-4.6-4.6c0-1.1,0.4-2.1,1.1-2.9
		c0.7,0.4,1.6,0.7,2.5,0.7c0.3,0,0.5,0,0.8-0.1c1.1-0.2,2.1-0.7,2.8-1.5c1.2,0.8,2,2.2,2,3.8C139.3,171.6,137.2,173.6,134.7,173.6z
		 M233.7,90.7c1.5,0.6,5.5,2.5,7.1,6.1c0.9,2.2,0.8,4.9-0.4,8.1c-12.6,0.1-55.8,3.1-85,39.7c-1.5-0.3-3.4-1-4.8-2.6
		c-1.9-2.2-2.6-5.7-1.9-10.5c1.4-2.4,7.1-11.4,18.5-20.2c17.6-13.6,40-20.5,66.5-20.5C233.6,90.7,233.7,90.7,233.7,90.7z
		 M134.3,129.6c1.4-22.2,12.4-39.1,32.8-50.2c29-15.9,46.2-4.8,53,1.9c-28.6,2.6-47.9,13.2-59.5,22.4
		c-14.9,11.6-20.9,23.4-21.1,23.9c-0.2,0.5-0.4,1-0.5,1.5c-0.2,1.2-0.3,2.3-0.4,3.4c-1.6,2.6-3,5.2-4.1,7.7
		C134.2,136.9,134.1,133.3,134.3,129.6z"/>
	<path class="st0" d="M212.8,135.1c0-2.8-2.2-5-5-5h-8.7c-2.8,0-5,2.2-5,5c0,2.8,2.2,5,5,5h8.7C210.6,140.1,212.8,137.9,212.8,135.1
		z"/>
	<path class="st0" d="M185.6,156.6c-2.5,1.2-3.5,4.2-2.2,6.7c0.1,0.2,0.3,0.7,0.8,1.4c1,1.5,2.6,2.3,4.2,2.3c0.9,0,1.9-0.3,2.7-0.8
		c2.3-1.5,2.9-4.6,1.4-6.9c-0.1-0.2-0.2-0.3-0.2-0.4C191,156.3,188,155.4,185.6,156.6z"/>
	<path class="st0" d="M203.3,168.1c-2.4-1.3-5.5-0.4-6.8,2.1c-1.3,2.4-0.4,5.5,2.1,6.8c0.5,0.3,1.1,0.6,1.6,0.8
		c0.7,0.3,1.5,0.5,2.2,0.5c1.9,0,3.6-1,4.5-2.8c1.2-2.5,0.2-5.5-2.3-6.7C204.2,168.5,203.7,168.3,203.3,168.1z"/>
	<path class="st0" d="M219.2,173.6c-2.7-0.5-5.3,1.2-5.9,3.9c-0.5,2.7,1.2,5.3,3.9,5.9l1,0.2c0.3,0.1,0.6,0.1,0.9,0.1
		c2.3,0,4.4-1.7,4.9-4.1c0.5-2.7-1.3-5.3-4-5.9L219.2,173.6z"/>
	<path class="st0" d="M220.2,155.3c0,2.8,2.2,5,5,5h58.5c2.8,0,5-2.2,5-5s-2.2-5-5-5h-58.5C222.4,150.3,220.2,152.5,220.2,155.3z"/>
</g>
</svg>
