<?xml version="1.0" encoding="utf-8"?>
<!-- Generator: Adobe Illustrator 19.1.0, SVG Export Plug-In . SVG Version: 6.00 Build 0)  -->
<svg version="1.1" id="Layer_1" xmlns="http://www.w3.org/2000/svg" xmlns:xlink="http://www.w3.org/1999/xlink" x="0px" y="0px"
	 viewBox="0 0 400 400" style="enable-background:new 0 0 400 400;" xml:space="preserve">
<style type="text/css">
	.st0{fill:#231F20;}
</style>
<path class="st0" d="M258.9,119.7c-7.9-16.3-23-29-41.5-34.7c-34.3-10.6-70.9,8.6-81.6,43c-0.3,0.8-1.7,5-2.2,8c0,0,0,0,0,0
	c-0.7,4.2-1.2,13.7-0.1,20.8c0,0.1,0,0.1,0,0.2l0.8,4.1c1.6,11.8,12.4,20.2,24.3,18.8c11.9-1.5,20.4-12.4,18.9-24.3l-0.4-3
	c0-0.2-0.1-0.5-0.1-0.7c-1.1-4.1,0-8.9,0-8.9c0,0,0,0,0,0c1.5-5.9,5.2-10.8,10.4-13.9c4.9-2.9,10.5-3.8,16-2.7
	c0.2,0.1,0.4,0.2,0.6,0.2c0.4,0.1,0.8,0.2,1.1,0.2c6,1.7,11.3,6.1,14.3,11.8c2.7,5.1,3.3,10.5,1.6,15.2
	c-5,14.1-49.3,124.6-55.2,139.3c-0.5,0.7-0.9,1.6-0.9,2.5c-3.6,10.5,1.7,22.1,12.2,26.2c2.5,1,5.1,1.4,7.6,1.4
	c8.4,0,16.3-5,19.5-13.3l56-143C266.6,151,266.1,134.7,258.9,119.7z M203.8,283.9l-25.5,5.3c1.4-3.4,3-7.6,5-12.4
	c0.2,0,0.5,0,0.7-0.1l24.6-5.2L203.8,283.9z M212.9,260.5l-25.3,5.3c1.9-4.6,3.8-9.6,5.9-14.7l25.2-5.3L212.9,260.5z M223,234.7
	l-25.1,5.3c1.8-4.5,3.6-9.1,5.5-13.7l25-5.2L223,234.7z M232.8,209.9l-24.9,5.2c1.9-4.8,3.8-9.6,5.6-14.2c0.3,0,0.5,0,0.8-0.1l24-5
	L232.8,209.9z M211.5,118.5l6.3-22.7c6.8,2.6,13.1,6.2,18.3,10.8l-17,16.5C216.9,121.2,214.3,119.6,211.5,118.5z M242.6,184.7
	l-24.8,5.2c2.2-5.7,4.3-10.9,6.1-15.5l24.8-5.2L242.6,184.7z M251.3,158.4l-23,4.8c1-2.7,1.8-4.8,2.3-6c0.9-2.6,1.4-5.3,1.5-8.1
	l22.4-8.4c0.5,5.8-0.1,11.7-1.8,17.6C252.2,158.3,251.8,158.3,251.3,158.4z M252.5,130.7l-22,8.3c-0.6-1.7-1.3-3.4-2.2-5.1
	c-0.7-1.3-1.4-2.4-2.2-3.6l17.1-16.6c2.6,3.2,4.9,6.7,6.6,10.4C250.9,126.3,251.8,128.5,252.5,130.7z M145.3,131
	c1.9-6.3,4.9-11.9,8.7-16.9l16.7,18.2c-1.5,2.5-2.6,5.3-3.3,8.2c-0.1,0.2-0.2,1-0.4,2.2l-21.9-10.9c0.1-0.3,0.2-0.5,0.2-0.7
	C145.3,131.1,145.3,131.1,145.3,131z M157.4,170c-6.5,0.8-12.4-3.8-13.2-10.2c0-0.1,0-0.2-0.1-0.3l-0.8-4.1
	c-0.6-4.1-0.6-9.3-0.3-13.3l24.3,12.1l0.3,2.7C168.4,163.3,163.8,169.2,157.4,170z M177.1,124.5l-16.3-17.7
	c5.6-5.1,12.1-9,19.2-11.5l4.6,24.1c-0.7,0.4-1.4,0.7-2.1,1.1C180.5,121.7,178.7,123,177.1,124.5z M194.1,116.3l-4.5-23.5
	c6.1-1,12.3-0.9,18.6,0.3l-6.4,23c-1-0.1-1.9-0.1-2.9-0.1C197.3,116,195.7,116.1,194.1,116.3z M180.8,312.6c-5-2-7.7-7.2-6.8-12.2
	l25.4-5.3l-4.4,11.4C192.7,312,186.4,314.8,180.8,312.6z"/>
</svg>
