<?xml version="1.0" encoding="utf-8"?>
<!-- Generator: Adobe Illustrator 19.1.0, SVG Export Plug-In . SVG Version: 6.00 Build 0)  -->
<svg version="1.1" id="Layer_1" xmlns="http://www.w3.org/2000/svg" xmlns:xlink="http://www.w3.org/1999/xlink" x="0px" y="0px"
	 viewBox="0 0 400 400" style="enable-background:new 0 0 400 400;" xml:space="preserve">
<style type="text/css">
	.st0{fill:#231F20;}
</style>
<path class="st0" d="M249.9,259.3c1.9-0.7,3.6-1.7,5.2-3c10.2-8.5,14.7-29.1,11.2-40c-1.7-5.4-5.4-8.8-10.2-9.2
	c-4.7-0.4-9.5,0.3-13.6,1.3c2.7-6.9,6.1-15.4,9.1-23c3.2-8,6-15.1,7.3-18.4c6.3-16,5.8-32.3-1.4-47.3c-7.9-16.3-23-29-41.5-34.7
	c-34.3-10.6-70.9,8.6-81.6,43c-0.3,0.8-1.7,5-2.2,8c-0.7,4.2-1.2,13.7-0.1,20.8c0,0.1,0,0.1,0,0.2l0.8,4.1
	c1.6,11.8,12.4,20.2,24.3,18.8c11.9-1.5,20.4-12.4,18.9-24.3l-0.4-3c0-0.2-0.1-0.5-0.1-0.7c-1.1-4.1,0-8.9,0-8.9
	c1.5-5.9,5.2-10.8,10.4-13.9c4.9-2.9,10.5-3.8,16-2.7c0.2,0.1,0.4,0.2,0.6,0.2c0.4,0.1,0.8,0.2,1.1,0.2c6,1.7,11.3,6.1,14.3,11.8
	c2.7,5.1,3.3,10.5,1.6,15.2c-0.8,2.2-3.8,9.5-7.2,17.8c-3.2,7.9-7.1,17.3-10.7,26.1c-3.9-4.2-9.3-8.6-15.2-9.6
	c-4.2-0.7-8.2,0.3-11.6,2.9c-10.5,8.1-16,29.6-13,40.9c0.1,0.4,0.2,0.7,0.3,1l-32.5,19.2c-1.6,1-2.6,2.7-2.4,4.6
	c0.1,1.9,1.3,3.5,3,4.3l14.7,6.5l1.7,12.9c0.2,1.7,1.3,3.2,2.8,3.9c0.7,0.3,1.4,0.5,2.1,0.5c0.9,0,1.9-0.3,2.7-0.8l18.6-11.8
	c-4.1,10.3-7.1,17.7-8.3,20.8c-0.5,0.7-0.9,1.6-0.9,2.5c-3.6,10.5,1.7,22.1,12.2,26.2c2.5,1,5,1.4,7.6,1.4c2.9,0,5.7-0.6,8.4-1.8
	c5.1-2.2,9.1-6.3,11.1-11.5l12.7-32.3l14.2,31.1c0.8,1.7,2.4,2.8,4.3,2.9c0.1,0,0.2,0,0.2,0c1.8,0,3.4-0.9,4.3-2.5l8-13.9l13-0.3
	c1.7,0,3.3-0.9,4.2-2.4c0.9-1.5,1-3.3,0.2-4.8L249.9,259.3z M255.3,217c0.8,0.1,1.3,1.6,1.5,2.2c2.4,7.4-1.3,23.6-8.1,29.3
	c-7.4,6.2-20.4-7.4-20.6-7.5c0,0,0,0,0,0c0.9-1.5,1.7-3.1,2.2-4.8l2.6-9.7c0.4-1.4,0.6-2.9,0.6-4.3c0.3-0.1,0.5-0.2,0.8-0.3
	C237.4,220.3,247.2,216.4,255.3,217z M202.4,283.9l-25.5,5.3c1.3-3.4,3-7.5,5-12.4c0.2,0,0.5,0,0.7-0.1l24.6-5.2L202.4,283.9z
	 M211.3,200.9c0.2,0,0.3,0,0.5,0c0.3,0,0.7,0,1-0.1l23.8-5c-2.4,6.1-4.7,11.8-6.3,15.9c-0.1,0.2-0.1,0.3-0.1,0.5
	c-2.2-3.1-5.5-5.5-9.5-6.6L218,205c-2.8-0.7-5.6-0.7-8.2-0.1C210.3,203.5,210.8,202.2,211.3,200.9z M210.2,118.5l6.3-22.7
	c6.8,2.6,13.1,6.2,18.3,10.8l-17,16.5C215.5,121.2,212.9,119.6,210.2,118.5z M229.1,157.2c0.9-2.6,1.4-5.3,1.5-8.1l22.4-8.4
	c0.5,5.8-0.1,11.7-1.8,17.6c-0.5,0-0.9,0-1.4,0.1l-23.2,4.9C227.9,160.4,228.7,158.3,229.1,157.2z M221.7,175.5
	c0.1-0.4,0.3-0.7,0.4-1.1l25.1-5.3c-1.4,3.5-3.1,7.8-4.9,12.5c-0.4,1-0.8,2-1.2,3.1l-25.4,5.3C217.8,185,219.9,180,221.7,175.5z
	 M204.2,229.2l2.6-9.7c1-3.7,4.8-6,8.6-5l2.9,0.8c3.7,1,6,4.8,5,8.6l-2.6,9.7c-1,3.7-4.8,6-8.6,5l-2.9-0.8
	C205.5,236.8,203.3,233,204.2,229.2z M211.5,260.5l-25.3,5.3c0.5-1.2,0.9-2.4,1.4-3.6c0.2-0.4,0.4-0.9,0.5-1.4
	c2.6-6.5,5.4-13.5,8.3-20.9c0,0,0,0,0,0c2.2,3.6,5.7,6.3,10.1,7.5l2.9,0.8h0c1.5,0.4,2.9,0.6,4.4,0.6c0.8,0,1.6-0.1,2.3-0.2
	L211.5,260.5z M251.1,130.7l-22,8.3c-0.6-1.7-1.3-3.4-2.2-5.1c-0.7-1.3-1.4-2.4-2.2-3.6l17.1-16.6c2.6,3.2,4.9,6.7,6.6,10.4
	C249.5,126.3,250.4,128.5,251.1,130.7z M144,131c1.9-6.3,4.9-11.9,8.7-16.9l16.7,18.2c-1.5,2.5-2.6,5.3-3.3,8.2
	c-0.1,0.2-0.2,1-0.4,2.2l-21.9-10.9c0.1-0.3,0.2-0.5,0.2-0.7C143.9,131.1,143.9,131.1,144,131z M156,170
	c-6.5,0.8-12.4-3.8-13.2-10.2c0-0.1,0-0.2-0.1-0.3l-0.8-4.1c-0.6-4.1-0.6-9.3-0.3-13.3l24.3,12.1l0.3,2.7
	C167.1,163.3,162.5,169.2,156,170z M175.7,124.5l-16.3-17.7c5.6-5.1,12.1-9,19.2-11.5l4.6,24.2c-0.7,0.3-1.4,0.7-2.1,1.1
	C179.1,121.7,177.3,123,175.7,124.5z M192.7,116.3l-4.5-23.5c6.1-1,12.3-0.9,18.6,0.3l-6.4,23C197.8,115.9,195.3,115.9,192.7,116.3z
	 M181,199c1.2-0.9,2.4-1.2,3.8-1c5.2,0.9,11.9,8.6,14.9,13.2c0,0.1,0.1,0.1,0.2,0.2c-1.2,1.6-2.1,3.5-2.7,5.6l-2.6,9.7
	c-0.3,1.2-0.5,2.4-0.6,3.7c0,0-0.1,0-0.1,0c-0.1,0-10.8,2.7-20.8,1.4c-0.3-0.4-0.7-0.8-1.1-1.1c-0.2-0.4-0.3-0.8-0.4-1.2
	C169.4,221.5,173.9,204.4,181,199z M155.5,271.4l-1-7.9c-0.2-1.7-1.3-3.2-2.9-3.9l-8.4-3.7l25.5-15.1c1.1,0.5,2.1,0.7,2.9,0.8
	c2.4,0.3,4.9,0.4,7.2,0.4c2.2,0,4.3-0.1,6.2-0.3c-2,5.1-4,10-5.8,14.6L155.5,271.4z M187.8,312.4c-2.7,1.2-5.7,1.2-8.4,0.2
	c-5-2-7.7-7.2-6.8-12.2L198,295l-4.4,11.4C192.5,309.1,190.4,311.2,187.8,312.4z M243.6,285.4c-1.7,0-3.3,1-4.2,2.5l-4.6,7.9
	l-13.7-30.1c-0.1-0.3-0.3-0.6-0.5-0.8l5-12.7c1.7,1.4,3.7,2.8,5.9,4.1c2.5,1.5,5,2.5,7.4,3.1l12.7,25.7L243.6,285.4z"/>
</svg>
