<?xml version="1.0" encoding="utf-8"?>
<!-- Generator: Adobe Illustrator 19.1.0, SVG Export Plug-In . SVG Version: 6.00 Build 0)  -->
<svg version="1.1" id="Layer_1" xmlns="http://www.w3.org/2000/svg" xmlns:xlink="http://www.w3.org/1999/xlink" x="0px" y="0px"
	 viewBox="0 0 400 400" style="enable-background:new 0 0 400 400;" xml:space="preserve">
<style type="text/css">
	.st0{fill:#231F20;}
</style>
<g>
	<path class="st0" d="M169.9,200.1c-5.1,5.1-7.8,11.9-7.8,19.1c0.1,7.2,2.9,14,8,19c5.2,5.2,12.1,7.8,18.9,7.8c7,0,13.9-2.7,19.2-8
		c5.1-5.1,7.8-11.9,7.8-19.1c0-7.2-2.9-14-8-19v0C197.5,189.4,180.4,189.5,169.9,200.1z M201.3,231c-6.6,6.7-17.4,6.7-24,0.2
		c-3.2-3.2-5-7.4-5.1-12c0-4.5,1.7-8.8,4.9-12c3.3-3.4,7.7-5.1,12.1-5.1c4.3,0,8.6,1.6,11.9,4.9c3.2,3.2,5,7.4,5.1,12
		C206.2,223.5,204.4,227.8,201.3,231z"/>
	<path class="st0" d="M185.7,205.4c-2.7,0.4-4.6,3-4.2,5.7c0.4,2.7,2.9,4.6,5.7,4.2c4.8-0.6,6.1,2.8,6.4,4.3
		c0.5,2.3,2.6,3.9,4.9,3.9c0.4,0,0.7,0,1.1-0.1c2.7-0.6,4.4-3.3,3.8-6C201,207,191.5,204.5,185.7,205.4z"/>
	<path class="st0" d="M252.9,278.5c-0.1,0-5.5-4.8-5.8-10.7c-0.1-3.3,1.4-6.5,4.7-9.7c1.1-1,1.6-2.5,1.5-4c-0.1-1.5-0.9-2.9-2.2-3.7
		c0,0-2.7-1.9-5.2-4.8c-1.8-2.1-4.9-2.4-7-0.6c-2.1,1.8-2.4,4.9-0.6,7c1,1.2,2,2.2,2.9,3.1c-2.9,4.1-4.3,8.5-4.1,13.1
		c0.2,4.4,1.8,8.2,3.6,11.2c-6.5,3-10.8,8.6-13.5,13.2c-5.7-5-11.3-7.4-15.6-8.6c1.7-3.7,3-8.4,2.1-13.4c-0.8-4.3-3-8.1-6.6-11.2
		c1.2-2,2.5-4.5,3.5-7.3c0.9-2.6-0.5-5.5-3.1-6.3c-2.6-0.9-5.5,0.5-6.3,3.1c-1.6,4.7-4.7,8.4-4.8,8.4c-1,1.1-1.4,2.6-1.2,4.1
		c0.3,1.5,1.2,2.8,2.5,3.5c3.7,2.1,5.7,4.5,6.2,7.3c0.9,4.9-2.9,10.7-4.4,12.5c-1.3,1.6-1.6,3.8-0.7,5.6c1,1.8,2.9,2.9,5,2.6
		c0.4,0,10.5-0.8,21.2,11.5c1,1.1,2.3,1.7,3.8,1.7c0.3,0,0.7,0,1-0.1c1.8-0.4,3.2-1.6,3.8-3.3c0-0.2,5.2-15,16.3-15.4
		c2.1-0.1,3.9-1.4,4.6-3.4C255.1,282,254.5,279.8,252.9,278.5z"/>
	<path class="st0" d="M294.6,201.7c-0.6-1.7-2-3-3.8-3.3c-0.2,0-15.6-3.4-17.2-14.3c-0.3-2.1-1.9-3.7-3.9-4.1
		c-2-0.4-4.1,0.4-5.2,2.2c0,0.1-4.1,6.1-9.9,7c-3.3,0.5-6.6-0.6-10.2-3.5c-1.3-1-2.9-1.4-4.5-0.9c-1.6,0.4-2.8,1.6-3.3,3.2
		c0,0.1-4.6,12.8-13.9,10.4c-2.7-0.7-5.4,0.9-6.1,3.6c-0.7,2.7,0.9,5.4,3.6,6.1c11.2,3,19-4.3,23.2-11.1c4.2,2.2,8.6,2.9,12.9,2.2
		c4.3-0.7,7.9-2.8,10.7-5c3.7,6.1,9.9,9.7,14.7,11.8c-4.5,6.7-6.2,12.8-6.7,17.4c-3.6-0.8-8.2-1-12.7,0.6c-4.4,1.5-7.9,4.5-10.6,8.7
		c-4.6-2.1-11.7-4.3-18.8-2.4c-6.2,1.7-11,6.1-14.2,13.1c-0.4,0.8-0.5,1.6-0.5,2.5L220,274c0.2,2.6,2.4,4.6,5,4.6c0.1,0,0.2,0,0.4,0
		c2.8-0.2,4.8-2.6,4.6-5.4l-2-27.1c1.9-3.5,4.3-5.7,7.2-6.5c5.8-1.6,13.1,2.1,15.4,3.7c1.2,0.9,2.8,1.1,4.2,0.7
		c1.4-0.4,2.6-1.5,3.2-2.9c1.8-4.2,4.1-6.9,7.2-8c5.6-2,12.1,1.4,12.1,1.4c1.7,0.9,3.9,0.8,5.5-0.4c1.6-1.2,2.3-3.2,1.8-5.1
		c-0.1-0.4-2.1-10.3,8.8-22.4C294.8,205.3,295.2,203.4,294.6,201.7z"/>
	<path class="st0" d="M229.5,223c0.4,0,0.9-0.1,1.3-0.2l38.2-10.4c2.7-0.7,4.2-3.5,3.5-6.1c-0.7-2.7-3.5-4.2-6.1-3.5l-38.2,10.4
		c-2.7,0.7-4.2,3.5-3.5,6.1C225.3,221.6,227.3,223,229.5,223z"/>
	<path class="st0" d="M191.3,250.6c-2.6-1-5.5,0.3-6.5,2.8l-8,20.5l-24.5,2.9c2.6-6.6,5.8-14.4,9.2-23l23.5-2.6
		c-7.5-0.5-14.1-4.1-18.7-9.5c0.7-2.4-0.5-5.1-2.9-6.1c-2.6-1-5.5,0.2-6.5,2.8c-11.5,28.7-21.3,53.2-21.3,53.3
		c-4.2,10.7,1.1,22.9,11.9,27.1c2.5,1,5,1.4,7.6,1.4c2.9,0,5.7-0.6,8.4-1.8c5.1-2.2,9.1-6.3,11.1-11.5l19.6-49.9
		C195.2,254.5,193.9,251.6,191.3,250.6z M159.5,309.4c-2.7,1.2-5.7,1.2-8.4,0.2c-5-2-7.7-7.2-6.7-12.3l24.4-2.7l-3.4,8.8
		C164.2,306.1,162.1,308.2,159.5,309.4z"/>
	<path class="st0" d="M147.9,152.6l-0.4-3c0-0.2-0.1-0.5-0.1-0.7c-1.1-4.1,0-8.9,0-8.9c1.5-5.9,5.2-10.8,10.4-13.9
		c5.2-3.1,11.3-3.9,17.2-2.4c6.2,1.6,11.7,6,14.8,11.9c2.7,5.1,3.3,10.5,1.6,15.2c-1.4,4.1-5,13.2-11.9,30.7c-1,2.6,0.2,5.5,2.8,6.5
		c2.6,1,5.5-0.2,6.5-2.8c3.7-9.5,6.5-16.5,8.5-21.6l23.8-2.6l-11.8,30.2c-1,2.6,0.3,5.5,2.8,6.5c0.6,0.2,1.2,0.3,1.8,0.3
		c2,0,3.9-1.2,4.7-3.2l12.1-30.9c6.3-16,5.8-32.3-1.4-47.3c-7.9-16.3-23-29-41.5-34.7c-16.6-5.1-34.3-3.5-49.7,4.6
		c-15.4,8.1-26.7,21.7-31.9,38.3c-0.3,0.8-1.7,5-2.2,8c-0.7,4.2-1.2,13.7-0.1,20.8c0,0.1,0,0.1,0,0.2l0.8,4.1
		c1.6,11.8,12.4,20.2,24.3,18.8C140.9,175.4,149.4,164.5,147.9,152.6z M220.2,121.1c3.1,6.4,4.6,13,4.8,19.8l-22.6,2.7
		c-0.2-4.3-1.5-8.6-3.7-12.7c-0.2-0.4-0.5-0.8-0.7-1.2l12.3-22.6C214.3,111.2,217.7,115.9,220.2,121.1z M184.7,91.6
		c3.3,1,6.5,2.3,9.5,3.8l-11,20.7c-1.9-0.9-3.8-1.6-5.8-2.1c-2.3-0.6-4.6-0.9-6.9-1l-6.9-23.7C170.7,88.7,177.8,89.5,184.7,91.6z
		 M142.7,95.5c0.3-0.2,0.7-0.3,1-0.5l7,23.8c-2.5,1.8-4.8,3.9-6.7,6.2l-24.7-5.8C124.4,109.2,132.4,100.9,142.7,95.5z M127.7,167
		c-6.5,0.8-12.4-3.8-13.2-10.2c0-0.1,0-0.2-0.1-0.3l-0.8-4.1c-0.6-4-0.6-9.1-0.4-13l23.6,5.5c0,2,0.2,4.2,0.7,6.4l0.3,2.7
		C138.8,160.3,134.2,166.2,127.7,167z"/>
</g>
</svg>
