<?xml version="1.0" encoding="utf-8"?>
<!-- Generator: Adobe Illustrator 19.1.0, SVG Export Plug-In . SVG Version: 6.00 Build 0)  -->
<svg version="1.1" id="Layer_1" xmlns="http://www.w3.org/2000/svg" xmlns:xlink="http://www.w3.org/1999/xlink" x="0px" y="0px"
	 viewBox="0 0 400 400" style="enable-background:new 0 0 400 400;" xml:space="preserve">
<style type="text/css">
	.st0{fill:#231F20;}
</style>
<g>
	<polygon class="st0" points="187.6,80.1 195.9,75.7 204.3,80.1 202.7,70.8 209.4,64.2 200.1,62.9 195.9,54.4 191.8,62.9 
		182.4,64.2 189.2,70.8 	"/>
	<path class="st0" d="M287.9,300.2l-85.5-62.4V223l79.7,58.1c0.9,0.6,1.9,1,2.9,1c1.5,0,3.1-0.7,4-2.1c1.6-2.2,1.1-5.4-1.1-7
		l-85.5-62.4v-14.2l67,48.8c0.9,0.6,1.9,1,2.9,1c1.5,0,3.1-0.7,4-2.1c1.6-2.2,1.1-5.4-1.1-7L202.4,184v-14.8l60.5,44.1
		c0.9,0.6,1.9,1,2.9,1c1.5,0,3.1-0.7,4-2.1c1.6-2.2,1.1-5.4-1.1-7l-66.4-48.4v-13.7l52.5,38.3c0.9,0.6,1.9,1,2.9,1
		c1.5,0,3.1-0.7,4-2.1c1.6-2.2,1.1-5.4-1.1-7l-58.4-42.6V117l36.6,26.7c0.9,0.6,1.9,1,2.9,1c1.5,0,3.1-0.7,4-2.1
		c1.6-2.2,1.1-5.4-1.1-7l-42.5-31V91.1c0-2.8-2.2-5-5-5c-2.8,0-5,2.2-5,5v13.4l-40.1,31.3c-2.2,1.7-2.6,4.8-0.9,7
		c1.7,2.2,4.8,2.6,7,0.9l34-26.5v12.6l-56,43.7c-2.2,1.7-2.6,4.8-0.9,7c1.7,2.2,4.8,2.6,7,0.9l49.9-38.9v13l-64,49.9
		c-2.2,1.7-2.6,4.8-0.9,7c1.7,2.2,4.8,2.6,7,0.9l57.9-45.1v14.1l-70.6,55c-2.2,1.7-2.6,4.8-0.9,7c1.7,2.2,4.8,2.6,7,0.9l64.4-50.2
		v13.3l-83.2,64.8c-2.2,1.7-2.6,4.8-0.9,7c1.7,2.2,4.8,2.6,7,0.9l77.1-60v14.6l-83.2,64.8c-2.2,1.7-2.6,4.8-0.9,7
		c1.7,2.2,4.8,2.6,7,0.9l77.1-60v15.1l-53.6,41.8c-2.2,1.7-2.6,4.8-0.9,7c1,1.3,2.5,1.9,3.9,1.9c1.1,0,2.2-0.3,3.1-1.1l47.5-37v57.1
		h-28.1c-2.8,0-5,2.2-5,5c0,2.8,2.2,5,5,5h69c2.8,0,5-2.2,5-5c0-2.8-2.2-5-5-5h-30.9V278l45,32.8c2.2,1.6,5.4,1.1,7-1.1
		c1.6-2.2,1.1-5.4-1.1-7l-50.9-37.1v-15.4l79.7,58.1c0.9,0.6,1.9,1,2.9,1c1.5,0,3.1-0.7,4-2.1C290.7,305,290.2,301.9,287.9,300.2z"
		/>
</g>
</svg>
