<?xml version="1.0" encoding="utf-8"?>
<!-- Generator: Adobe Illustrator 19.1.0, SVG Export Plug-In . SVG Version: 6.00 Build 0)  -->
<svg version="1.1" id="Layer_1" xmlns="http://www.w3.org/2000/svg" xmlns:xlink="http://www.w3.org/1999/xlink" x="0px" y="0px"
	 viewBox="0 0 400 400" style="enable-background:new 0 0 400 400;" xml:space="preserve">
<style type="text/css">
	.st0{fill:#231F20;}
</style>
<g>
	<path class="st0" d="M264.1,253.9c5.6-5.3,10.6-11.4,14.8-18c0.2-0.2,0.4-0.5,0.5-0.8c8.9-14.4,14.1-31.4,14.1-49.5
		c0-52-42.3-94.2-94.2-94.2c-3.3,0-6.5,0.2-9.8,0.5c-2.7,0.3-4.7,2.7-4.5,5.5c0.3,2.7,2.7,4.7,5.5,4.5c2.9-0.3,5.8-0.4,8.7-0.4
		c46.5,0,84.2,37.8,84.2,84.2c0,15.8-4.4,30.6-12,43.2c-2.4,0.8-7.5,2.5-14.3,3.9c2.5-4,3.9-8.8,3.9-13.9l0-0.1
		c0.2-4.9-1.1-14.3-11.7-22.1c-2.2-1.6-5.4-1.2-7,1.1c-1.6,2.2-1.2,5.4,1.1,7c6.9,5.1,7.7,10.8,7.6,13.7c0,0.2,0,0.3,0,0.4
		c0,9.3-7.5,16.8-16.8,16.8c-9.3,0-16.8-7.5-16.8-16.8c0-3.9,1.4-7.3,4.6-10.8c0.4-0.4,1.4-1.6,2.2-2.3c2.8,1.6,6.1,2.4,9.5,2.4
		c2.8,0,5-2.2,5-5c0-2.8-2.2-5-5-5c-5.4,0-9.8-4.4-9.8-9.8c0-5.4,4.4-9.8,9.8-9.8c5.4,0,9.8,4.4,9.8,9.8c0,2.8,2.2,5,5,5
		c2.8,0,5-2.2,5-5c0-10.9-8.9-19.8-19.8-19.8c-10.9,0-19.8,8.9-19.8,19.8c0,3.8,1.1,7.4,3,10.4c-1.2,1.1-2.3,2.4-2.4,2.5
		c-4.8,5.3-7.2,11-7.2,17.4c0,5.9,1.9,11.3,5.1,15.7c-6.4-1.2-12.9-3.1-18.9-6.1c-27.8-13.8-62.5-14.8-73.8-14.8
		c-3.1-8.8-4.8-18.2-4.8-28.1c0-17.3,5.2-33.9,15-48c9.6-13.8,22.9-24.4,38.5-30.5c2.6-1,3.8-3.9,2.8-6.5c-1-2.6-3.9-3.8-6.5-2.8
		c-17.5,6.8-32.4,18.6-43.1,34.1c-11,15.8-16.8,34.4-16.8,53.7c0,12.3,2.4,24.1,6.7,34.9c0.1,0.2,0.1,0.3,0.2,0.5
		c5.3,13,13.4,24.6,23.6,34c-5.7,3.4-9.6,7.9-11.7,13.2c-4.1,10.2,0.3,19.7,0.5,20.1c0.4,0.9,1.1,1.7,2,2.2
		c17.8,10.2,44.4,16,72.9,16c29.3,0,56.3-6.1,74.1-16.7c0.8-0.5,1.4-1.2,1.9-2c0.2-0.4,4.7-9.3,1.1-19.4
		C274.4,262.6,270.3,257.8,264.1,253.9z M124.2,223.8c13.5,0.3,42.2,2.4,65,13.7c13.1,6.5,27.2,8.6,40.3,8.6c12.4,0,23.8-1.9,32.2-4
		c-15.4,17.1-37.7,27.8-62.5,27.8c-18.9,0-36.4-6.3-50.5-16.9c-0.5-0.7-1.2-1.2-1.9-1.5C137.4,244,129.7,234.6,124.2,223.8z
		 M266.8,282c-16.1,9.1-41.2,14.5-67.6,14.5c-26,0-50.1-5-66.4-13.8c-0.7-2.1-1.6-6.5,0.2-10.9c1.7-4,5.3-7.4,10.8-9.9
		c15.6,11.3,34.7,18,55.3,18c21.3,0,41-7.1,56.8-19.1c5.7,2.9,9.4,6.6,10.9,10.8C268.5,275.9,267.5,280.1,266.8,282z"/>
	<path class="st0" d="M231.6,115.2c-2.5-1.2-5.5-0.1-6.7,2.4c-1.2,2.5-0.1,5.5,2.4,6.7c13.2,6.2,24.3,16.7,31.3,29.5
		c0.9,1.7,2.6,2.6,4.4,2.6c0.8,0,1.6-0.2,2.4-0.6c2.4-1.3,3.3-4.4,2-6.8C259.4,134.3,246.7,122.3,231.6,115.2z"/>
	<circle class="st0" cx="215.6" cy="114.2" r="5.9"/>
	<circle class="st0" cx="161.4" cy="143.1" r="5"/>
	<circle class="st0" cx="200.6" cy="143.9" r="5"/>
	<circle class="st0" cx="181.7" cy="163.4" r="5"/>
	<circle class="st0" cx="132.1" cy="175.8" r="5"/>
	<circle class="st0" cx="180.7" cy="195.8" r="5"/>
	<circle class="st0" cx="269.9" cy="180.8" r="5"/>
	<circle class="st0" cx="157.2" cy="175.8" r="5"/>
	<circle class="st0" cx="229.5" cy="148.1" r="5"/>
	<circle class="st0" cx="186.4" cy="124.7" r="5"/>
</g>
</svg>
