<?xml version="1.0" encoding="utf-8"?>
<!-- Generator: Adobe Illustrator 19.1.0, SVG Export Plug-In . SVG Version: 6.00 Build 0)  -->
<svg version="1.1" id="Layer_1" xmlns="http://www.w3.org/2000/svg" xmlns:xlink="http://www.w3.org/1999/xlink" x="0px" y="0px"
	 viewBox="0 0 400 400" style="enable-background:new 0 0 400 400;" xml:space="preserve">
<style type="text/css">
	.st0{fill:#231F20;}
</style>
<g>
	<circle class="st0" cx="201.6" cy="173.8" r="6.4"/>
	<circle class="st0" cx="201.6" cy="196" r="6.4"/>
	<circle class="st0" cx="201.6" cy="216.7" r="6.4"/>
	<circle class="st0" cx="217.2" cy="90" r="6"/>
	<circle class="st0" cx="184" cy="90" r="6"/>
	<path class="st0" d="M217.2,103c-2.8,0-5,2.2-5,5c0,6.4-5.2,11.6-11.6,11.6c-6.4,0-11.6-5.2-11.6-11.6c0-2.8-2.2-5-5-5
		c-2.8,0-5,2.2-5,5c0,11.9,9.7,21.6,21.6,21.6c11.9,0,21.6-9.7,21.6-21.6C222.2,105.3,220,103,217.2,103z"/>
	<path class="st0" d="M263.7,146.3h-31.2c12.6-9.6,20-24.5,20-40.8c0-28.4-23.1-51.5-51.5-51.5s-51.5,23.1-51.5,51.5
		c0,16,7.6,31.1,20.1,40.8h-34.1c-15.1,0-27.4,12.3-27.4,27.4c0,15.1,12.3,27.4,27.4,27.4h0.7c0,0,0,0,0,0s0,0,0,0h19.9l-17.9,111.3
		c-1.2,7.2,0.6,14.4,4.9,20.4c4.3,5.9,10.6,9.8,17.8,11c7.2,1.2,14.4-0.6,20.4-4.9c5.9-4.3,9.8-10.6,11-17.8l7.6-47.1l7.6,47.1
		c1.2,7.2,5.1,13.5,11,17.8c4.7,3.4,10.3,5.2,16,5.2c1.5,0,2.9-0.1,4.4-0.4c7.2-1.2,13.5-5.1,17.8-11c4.3-5.9,6-13.2,4.9-20.4
		l-1.1-6.6c0-0.3,0-0.6-0.1-0.8c0-0.2-0.1-0.4-0.2-0.6L243.6,201h18.6c0,0,0,0,0,0c0,0,0,0,0,0h1.4c15.1,0,27.4-12.3,27.4-27.4
		C291,158.6,278.8,146.3,263.7,146.3z M118.2,173.7c0-8.1,5.6-14.9,13.1-16.8v33.6C123.7,188.6,118.2,181.8,118.2,173.7z
		 M175.4,330.8c-3.8,2.7-8.4,3.8-12.9,3.1c-4.6-0.7-8.6-3.2-11.3-7c-2.7-3.8-3.8-8.4-3.1-12.9l0.5-3.1l34.2,6.2l-0.4,2.4
		C181.7,324,179.2,328,175.4,330.8z M248.5,326.9c-2.7,3.8-6.7,6.3-11.3,7c-4.6,0.7-9.1-0.4-12.9-3.1c-3.8-2.7-6.3-6.7-7-11.3
		l-0.3-1.6l34.2-6.2l0.4,2.3C252.3,318.5,251.2,323.1,248.5,326.9z M232.8,196.8l16.9,105l-34.2,6.2l-10.7-66.3
		c-0.4-2.4-2.5-4.2-4.9-4.2c-2.5,0-4.5,1.8-4.9,4.2l-10.5,65.5l-34.2-6.2L167,196.8c0.2-1.4-0.2-2.9-1.1-4c-0.9-1.1-2.3-1.8-3.8-1.8
		h-20.8v-34.7h36c2.8,0,5-2.2,5-5v-5.8c0-1.8-0.9-3.4-2.4-4.3c-12.5-7.5-20.3-21.1-20.3-35.7c0-22.9,18.6-41.5,41.5-41.5
		c22.9,0,41.5,18.6,41.5,41.5c0,15.8-8.8,30-23,37.1c-1.7,0.8-2.8,2.6-2.8,4.5v4.2c0,2.8,2.2,5,5,5h35.5V191h-19.5
		c-1.5,0-2.9,0.6-3.8,1.8C233,193.9,232.5,195.4,232.8,196.8z M267.2,190.7v-34c7.9,1.6,13.8,8.6,13.8,17
		C281,182,275.1,189,267.2,190.7z"/>
</g>
</svg>
