<?xml version="1.0" encoding="utf-8"?>
<!-- Generator: Adobe Illustrator 19.1.0, SVG Export Plug-In . SVG Version: 6.00 Build 0)  -->
<svg version="1.1" id="Layer_1" xmlns="http://www.w3.org/2000/svg" xmlns:xlink="http://www.w3.org/1999/xlink" x="0px" y="0px"
	 viewBox="0 0 400 400" style="enable-background:new 0 0 400 400;" xml:space="preserve">
<style type="text/css">
	.st0{fill:#231F20;}
</style>
<g>
	<circle class="st0" cx="201.6" cy="162.7" r="6.4"/>
	<circle class="st0" cx="201.6" cy="184.9" r="6.4"/>
	<circle class="st0" cx="217.4" cy="90" r="6"/>
	<circle class="st0" cx="184.1" cy="90" r="6"/>
	<path class="st0" d="M263.8,146.3h-31.2c12.6-9.6,20-24.5,20-40.8c0-28.4-23.1-51.5-51.5-51.5c-28.4,0-51.5,23.1-51.5,51.5
		c0,16,7.6,31.1,20.1,40.8h-34.1c-15.1,0-27.4,12.3-27.4,27.4c0,15.1,12.3,27.4,27.4,27.4h20.6l-17.9,111.3
		c-1.2,7.2,0.6,14.4,4.9,20.4c4.3,5.9,10.6,9.8,17.8,11c7.2,1.2,14.4-0.6,20.4-4.9c5.9-4.3,9.8-10.6,11-17.8l7.6-47.1l7.6,47.1
		c1.2,7.2,5.1,13.5,11,17.8c4.7,3.4,10.3,5.2,16,5.2c1.5,0,2.9-0.1,4.4-0.4c7.2-1.2,13.5-5.1,17.8-11c4.3-5.9,6-13.2,4.9-20.4
		L243.7,201h20.1c15.1,0,27.4-12.3,27.4-27.4C291.2,158.6,278.9,146.3,263.8,146.3z M251.7,313.9c0.7,4.6-0.4,9.1-3.1,12.9
		c-2.7,3.8-6.7,6.3-11.3,7c-4.6,0.7-9.1-0.4-12.9-3.1c-3.8-2.7-6.3-6.7-7-11.3l-12.5-77.8c-0.4-2.4-2.5-4.2-4.9-4.2
		c-2.5,0-4.5,1.8-4.9,4.2l-12.5,77.8c-0.7,4.6-3.2,8.6-7,11.3c-3.8,2.7-8.4,3.8-12.9,3.1c-4.6-0.7-8.6-3.2-11.3-7
		c-2.7-3.8-3.8-8.4-3.1-12.9l15.2-94.5c1.4-0.6,3.7-1,6.3,1c3.4,2.6,6.7,3.5,9.7,3.5c4.3,0,7.8-2,9.7-3.7c0,0,0,0,0,0
		c0.1-0.1,3.4-2.9,7.6,0.2c3.4,2.6,6.7,3.5,9.7,3.5c4.3,0,7.8-2,9.7-3.7c0,0,0,0,0,0c0.1-0.1,3.4-2.9,7.6,0.2
		c3.4,2.6,6.7,3.5,9.7,3.5c1.3,0,2.6-0.2,3.8-0.5L251.7,313.9z M263.8,191h-26c-1.5,0-2.9,0.6-3.8,1.8c-1,1.1-1.4,2.6-1.1,4
		l2.7,16.5c-1.2,0.6-3.2,1.1-5.8-0.9c-8.4-6.4-16.9-2.6-20.2,0.2c-0.1,0.1-0.1,0.2-0.2,0.2l0,0l0.1-0.1c-0.8,0.8-3.2,2.2-6.6-0.4
		c-8.4-6.4-16.9-2.6-20.2,0.2c-0.1,0.1-0.1,0.2-0.2,0.2l0,0l0.1-0.1c-0.8,0.8-3.2,2.2-6.6-0.4c-3.7-2.8-7.4-3.6-10.6-3.5l1.9-12.1
		c0.2-1.4-0.2-2.9-1.1-4c-0.9-1.1-2.3-1.8-3.8-1.8h-26.5c-9.6,0-17.4-7.8-17.4-17.4c0-9.6,7.8-17.4,17.4-17.4h41.7c2.8,0,5-2.2,5-5
		v-5.8c0-1.8-0.9-3.4-2.4-4.3c-12.5-7.5-20.3-21.1-20.3-35.7c0-22.9,18.6-41.5,41.5-41.5c22.9,0,41.5,18.6,41.5,41.5
		c0,15.8-8.8,30-23,37.1c-1.7,0.8-2.8,2.6-2.8,4.5v4.2c0,2.8,2.2,5,5,5h41.9c9.6,0,17.4,7.8,17.4,17.4
		C281.2,183.2,273.4,191,263.8,191z"/>
	<path class="st0" d="M223.5,121.3c0-7.8-9.2-13.4-21.9-13.4s-21.9,5.7-21.9,13.4c0,7.8,9.2,13.4,21.9,13.4S223.5,129.1,223.5,121.3
		z M201.6,124.7c-6.9,0-11-2.3-11.8-3.4c0.8-1.1,4.9-3.4,11.8-3.4c6.9,0,11,2.3,11.8,3.4C212.6,122.4,208.5,124.7,201.6,124.7z"/>
</g>
</svg>
