<?xml version="1.0" encoding="utf-8"?>
<!-- Generator: Adobe Illustrator 19.1.0, SVG Export Plug-In . SVG Version: 6.00 Build 0)  -->
<svg version="1.1" id="Layer_1" xmlns="http://www.w3.org/2000/svg" xmlns:xlink="http://www.w3.org/1999/xlink" x="0px" y="0px"
	 viewBox="0 0 400 400" style="enable-background:new 0 0 400 400;" xml:space="preserve">
<style type="text/css">
	.st0{fill:#231F20;}
</style>
<g>
	<path class="st0" d="M214.3,335c-12.2-7.7-24.2-0.3-24.7,0c-2.3,1.5-3,4.5-1.6,6.8c1.4,2.3,4.5,3.1,6.9,1.6c0.3-0.2,7.3-4.3,14.1,0
		c0.8,0.5,1.8,0.8,2.7,0.8c1.7,0,3.3-0.8,4.2-2.3C217.4,339.6,216.7,336.5,214.3,335z"/>
	<path class="st0" d="M259.5,205.6v-1.7c0.6-1.5,1-3,1-4.4c0-1.5-0.4-2.8-1-3.9v-47.2c0,0,0,0,0,0v-29.8c0,0,0,0,0,0v-15.3
		c0-18.2-31.7-28-61.5-28c-29.8,0-61.5,9.8-61.5,28v92.7c-0.5,0.9-0.7,2-0.7,3.2c0,0.9,0.3,1.9,0.7,3v3.6c0,0.6,0.1,1.2,0.3,1.8
		c-17.9,17-28.3,40.7-28.3,65.8c0,50,40.7,90.7,90.7,90.7s90.7-40.7,90.7-90.7C289.9,247.4,278.7,222.7,259.5,205.6z M228.2,192.5
		c-8.9,0.2-19,0.5-29.5,0.5c-10.5,0-20.5-0.3-29.4-0.5c-8.7-0.2-16.5-0.4-22.9-0.3v-39.4l49.9,23.3c0.7,0.3,1.4,0.5,2.1,0.5
		c0.7,0,1.3-0.1,1.9-0.4l49.1-20.4v36.4C243.4,192.1,236.3,192.3,228.2,192.5z M249.5,145l-50.9,21.2l-52.1-24.4V123l49.9,23.3
		c0.7,0.3,1.4,0.5,2.1,0.5c0.7,0,1.3-0.1,1.9-0.4l49.1-20.4V145z M198,85.2c31.9,0,51.5,10.5,51.5,18v12l-50.9,21.2L146.5,112v-8.8
		C146.5,95.7,166.1,85.2,198,85.2z M199.2,353.9c-44.5,0-80.7-36.2-80.7-80.7c0-23,9.8-44.6,26.6-59.8c11.1,10.4,31,21.2,54.4,21.2
		c1.9,0,3.8-0.1,5.7-0.2l2.4,33.4c-3.4,2-10.3,4.6-16.9-1.3c-2.1-1.8-5.2-1.6-7.1,0.4c-0.9,1-1.3,2.3-1.2,3.6
		c-3.6,1-7.7,3.1-12.1,6.7c-11.4,9.3-24.3,7-25,6.9c-1.9-0.4-3.9,0.4-5,2c-1.1,1.6-1.2,3.8-0.2,5.4c11.2,18.8,26.3,23.4,38.6,23.4
		c4.9,0,9.3-0.7,12.8-1.6c4.2-1,7.7-3.4,10.2-6.6c2.5,3.2,6,5.5,10.2,6.6c3.5,0.9,8,1.6,12.8,1.6c12.3,0,27.4-4.7,38.6-23.4
		c1-1.7,0.9-3.8-0.2-5.4c-1.1-1.6-3.1-2.4-5.1-2c-0.1,0-13.3,2.5-24.9-6.9c-5.8-4.7-10.9-6.8-15.2-7.4l-2.6-37
		c9.8-2,19.2-5.9,27.5-11.5c3.6-2.4,7.2-5.3,10.2-8.4c17,15.2,27,37.2,27,60.2C279.9,317.8,243.7,353.9,199.2,353.9z M195.6,285.5
		v9.8c0,4-2.7,7.5-6.6,8.4c-10.1,2.5-23.7,2.5-34.7-9.5c6.3-0.7,14.6-2.9,22.2-9.2c4.5-3.7,11.1-7.4,16.7-4.1
		C194.7,281.9,195.6,283.6,195.6,285.5z M207.6,285.5c0-1.9,0.9-3.7,2.4-4.5c1.5-0.9,3.1-1.3,4.7-1.3c4.3,0,8.7,2.7,12,5.4
		c7.7,6.2,15.9,8.5,22.2,9.2c-11,12-24.6,12-34.7,9.5c-3.9-1-6.6-4.4-6.6-8.4V285.5z"/>
	<circle class="st0" cx="233.2" cy="242.1" r="10.5"/>
	<circle class="st0" cx="167.2" cy="242.1" r="10.5"/>
	<path class="st0" d="M200,73.5c10.7,0,19.3-8.7,19.3-19.3c0-10.7-8.7-19.3-19.3-19.3c-10.7,0-19.3,8.7-19.3,19.3
		C180.7,64.9,189.4,73.5,200,73.5z M200,44.9c5.1,0,9.3,4.2,9.3,9.3s-4.2,9.3-9.3,9.3s-9.3-4.2-9.3-9.3S194.9,44.9,200,44.9z"/>
</g>
</svg>
