<?xml version="1.0" encoding="utf-8"?>
<!-- Generator: Adobe Illustrator 19.1.0, SVG Export Plug-In . SVG Version: 6.00 Build 0)  -->
<svg version="1.1" id="Layer_1" xmlns="http://www.w3.org/2000/svg" xmlns:xlink="http://www.w3.org/1999/xlink" x="0px" y="0px"
	 viewBox="0 0 400 400" style="enable-background:new 0 0 400 400;" xml:space="preserve">
<style type="text/css">
	.st0{fill:#231F20;}
</style>
<g>
	<path class="st0" d="M209.3,175.4c-2.1,1.8-2.4,4.9-0.6,7c1.7,2.1,4.9,2.4,7,0.7c1-0.8,10.2-7.8,19-0.1c1,0.8,2.1,1.3,3.3,1.3
		c1.4,0,2.8-0.6,3.8-1.7c1.8-2.1,1.6-5.2-0.4-7.1C228.9,164.7,214.9,170.7,209.3,175.4z"/>
	<path class="st0" d="M143.6,175.4c-2.1,1.8-2.4,4.9-0.6,7c1.7,2.1,4.9,2.4,7,0.7c1-0.8,10.2-7.8,19-0.1c1,0.8,2.1,1.3,3.3,1.3
		c1.4,0,2.8-0.6,3.8-1.7c1.8-2.1,1.6-5.2-0.4-7.1C163.3,164.7,149.3,170.7,143.6,175.4z"/>
	<path class="st0" d="M302.7,155.3c0-0.2,0.1-0.4,0.1-0.6c0-51.8-42.2-94-94-94c-39.1,0-74.5,24.6-88.1,61.2
		c-0.2,0.6-0.3,1.2-0.3,1.7c-7.9,4.5-9,11.8-9,15.4c0,5.2,2.8,10.7,7.4,14.5c1.6,1.3,3.4,2.4,5.2,3.1c1.7,31.8,0.2,80.9-10.9,91
		c-1.3,1.2-1.9,3-1.5,4.8c0.1,0.6,3.3,15.1,12.5,30.5c12.5,20.8,30,33.3,50.8,36.1c0.2,0,0.4,0,0.7,0c2.5,0,4.6-1.8,4.9-4.3
		c0.4-2.7-1.6-5.3-4.3-5.6c-17.8-2.4-32.4-12.8-43.4-31c-6.3-10.5-9.6-20.7-10.8-25.2c4.4-5.4,7.6-14.4,9.6-27.1
		c0.1,0.3,0.2,0.6,0.4,0.9c11.2,18.8,26.3,23.4,38.6,23.4c4.9,0,9.3-0.7,12.8-1.6c4.2-1,7.7-3.4,10.2-6.6c2.5,3.2,6,5.5,10.2,6.6
		c3.5,0.9,8,1.6,12.8,1.6c12.1,0,26.9-4.5,38-22.5c2.4,11.7,5.6,20.1,9.9,25.3c-1.3,4.6-4.5,14.8-10.8,25.2
		c-11,18.2-25.6,28.7-43.4,31c-2.7,0.4-4.7,2.9-4.3,5.6c0.3,2.5,2.5,4.3,4.9,4.3c0.2,0,0.4,0,0.7,0c20.8-2.8,38.3-15.3,50.8-36.1
		c9.2-15.4,12.4-29.9,12.5-30.5c0.4-1.7-0.2-3.6-1.5-4.8c-8.5-7.7-12.2-36.9-13.1-64c4.2,8.5,13,14.4,23.1,14.4
		c14.2,0,25.8-11.6,25.8-25.8C309.2,165.9,306.7,159.9,302.7,155.3z M132.9,130.3c1.2-0.1,2.9-0.4,5-0.7c16.3-2.4,59.6-8.7,111,0.6
		c5.7,1,11.8,3.9,11.8,8.9c0,2.5-1.4,5.3-3.6,7.1c-1.4,1.1-3.6,2.3-6.4,1.8h0c-28.2-5.4-71.5-9.9-117.8-0.3
		c-0.3,0.1-0.6,0.1-0.9,0.2c-1-0.9-2.3-1.4-3.7-1.3c-0.6,0-1.1,0.2-1.6,0.4c-0.5-0.3-1.1-0.7-1.6-1.1c-2.3-1.9-3.8-4.5-3.8-6.8
		C121.4,137.3,121.4,131.6,132.9,130.3z M187.6,230.3c0,4-2.7,7.5-6.6,8.4c-10.1,2.5-23.7,2.5-34.7-9.5c6.3-0.7,14.6-2.9,22.2-9.2
		c4.5-3.7,11.1-7.4,16.7-4.1c1.5,0.9,2.4,2.6,2.4,4.5V230.3z M206.2,238.8c-3.9-1-6.6-4.4-6.6-8.4v-9.8c0-1.9,0.9-3.7,2.4-4.5
		c1.5-0.9,3.1-1.3,4.7-1.3c4.3,0,8.7,2.7,12,5.4c7.7,6.2,15.9,8.5,22.2,9.2C229.9,241.3,216.3,241.3,206.2,238.8z M249.9,219.2
		c-0.5,0.1-13.5,2.4-25-6.9c-5.8-4.7-10.9-6.8-15.2-7.4c-0.1-1-0.4-2-1.1-2.8c-1.7-2.1-4.9-2.4-7-0.7c-1,0.8-10.2,7.8-19,0.1
		c-2.1-1.8-5.2-1.6-7.1,0.4c-0.9,1-1.3,2.3-1.2,3.6c-3.6,1-7.7,3.1-12.1,6.7c-11.4,9.3-24.4,7-25,6.9c-1.9-0.4-3.8,0.4-5,2
		c1-7.4,1.7-15.9,2-25.5c0.6-15.3,0.1-29.9-0.3-37.9c0.3-0.1,0.6-0.1,1-0.2c44.6-9.2,86.5-4.9,113.8,0.3h0c0.5,0.1,0.9,0.2,1.4,0.2
		c-0.2,6.8-0.4,22.3,0.7,39.3c0.5,8.3,1.3,15.8,2.3,22.4C252.3,219.2,251.1,219,249.9,219.2z M260.1,161.3c0-1.8,0.1-3.6,0.2-5.2
		c1.1-0.6,2.1-1.3,3.1-2.1c4.5-3.7,7.2-9.3,7.2-14.8c0-2.9-0.7-5.5-2.1-7.9c1.2-4.2,2.4-12.5-2.4-22.9c-1.2-2.5-4.1-3.6-6.6-2.5
		c-2.5,1.2-3.6,4.1-2.5,6.6c2,4.3,2.6,8,2.6,10.8c-2.6-1.3-5.6-2.3-9-2.9c-53-9.6-97.5-3.1-114.2-0.7c-1.7,0.3-3.1,0.5-4.2,0.6
		c13.4-29.8,43.5-49.5,76.6-49.5c44.1,0,80.4,34.2,83.7,77.5c-2.8-1.1-5.9-1.7-9.1-1.7C273.2,146.6,264.3,152.6,260.1,161.3z
		 M283.4,188.2c-8.7,0-15.8-7.1-15.8-15.8c0-8.7,7.1-15.8,15.8-15.8c8.7,0,15.8,7.1,15.8,15.8C299.2,181.1,292.1,188.2,283.4,188.2z
		"/>
	<path class="st0" d="M214.2,261.5c2.3-1.5,3-4.6,1.6-6.9c-1.5-2.3-4.6-3-6.9-1.6c-0.2,0.1-17.2,10.6-34,0c-2.3-1.5-5.4-0.8-6.9,1.5
		c-1.5,2.3-0.8,5.4,1.5,6.9c7.5,4.8,14.9,6.3,21.6,6.3C204,267.9,213.6,261.9,214.2,261.5z"/>
	<path class="st0" d="M192.2,306.5c-2.7,0.4-4.6,2.9-4.2,5.7c0.3,2.1,0.5,9-2.5,12.6c-1.4,1.7-3.5,2.5-6.4,2.6
		c-2.8,0.1-4.9,2.4-4.9,5.1c0.1,2.7,2.3,4.9,5,4.9c0,0,0.1,0,0.1,0c5.7-0.2,10.5-2.3,13.7-6.2c6.4-7.6,4.9-19.1,4.8-20.4
		C197.4,308,194.9,306.1,192.2,306.5z"/>
</g>
</svg>
