<?xml version="1.0" encoding="utf-8"?>
<!-- Generator: Adobe Illustrator 19.1.0, SVG Export Plug-In . SVG Version: 6.00 Build 0)  -->
<svg version="1.1" id="Layer_1" xmlns="http://www.w3.org/2000/svg" xmlns:xlink="http://www.w3.org/1999/xlink" x="0px" y="0px"
	 viewBox="0 0 400 400" style="enable-background:new 0 0 400 400;" xml:space="preserve">
<style type="text/css">
	.st0{fill:#231F20;}
</style>
<g>
	<path class="st0" d="M309.1,144.2c-0.7-1.1-1.9-1.9-3.2-2.2c-1.6-0.3-39-7.6-59.2,20.4c-1.4-0.6-3.1-1.4-5.2-2.2
		c6.6-3.5,15.7-9.2,24.9-17.4c4.5-4,9.2-8.9,13.7-14.7c0.2-0.2,0.4-0.5,0.6-0.7c0,0,0,0,0,0c11.6-15.1,21.8-36.2,22.8-64.5
		c0.1-2.8-2.1-5.1-4.8-5.2c-2.8-0.1-5.1,2.1-5.2,4.8c-0.8,20.9-6.8,39.5-18.1,55.4c-8.2-6.2-27-23-24.6-44.4
		c0.3-2.7-1.7-5.2-4.4-5.5c-2.7-0.3-5.2,1.7-5.5,4.4c-1.6,14,3.7,28.3,15.3,41.3c4.8,5.4,9.7,9.5,13.1,12.1
		c-2.8,3.3-5.9,6.4-9.2,9.4c-9.6,8.7-19.3,14.3-25.4,17.4c-2.6-6.8-8.1-24.7,0.9-38.4c1.5-2.3,0.9-5.4-1.4-6.9
		c-2.3-1.5-5.4-0.9-6.9,1.4c-11,16.9-5.6,37.3-2.3,46.4c-14-3.2-32.6-4.9-52.7,0.3c-0.4-0.2-1.1-0.5-2.1-0.9
		c3.4-9.4,8.3-29.3-2.5-45.8c-1.5-2.3-4.6-3-6.9-1.4c-2.3,1.5-3,4.6-1.4,6.9c8,12.1,4.5,27.7,1.8,35.8c-5.8-3.3-13.2-8.2-20.6-14.8
		c-3.3-3-6.4-6.1-9.2-9.4c3.4-2.6,8.3-6.7,13.1-12.1c11.5-13,16.8-27.3,15.3-41.3c-0.3-2.7-2.8-4.7-5.5-4.4
		c-2.7,0.3-4.7,2.8-4.4,5.5c1.2,11.2-3,22.4-12.7,33.4c-4.4,5-8.9,8.7-12,11.1c-11.3-15.9-17.4-34.5-18.1-55.4
		c-0.1-2.8-2.4-4.9-5.2-4.8c-2.8,0.1-4.9,2.4-4.8,5.2c1,28.3,11.2,49.4,22.8,64.5c0,0,0,0,0,0c0.2,0.3,0.4,0.5,0.6,0.8
		c4.5,5.8,9.3,10.7,13.7,14.7c9,8.1,17.9,13.7,24.5,17.2c-1.9,0.8-3.8,1.6-5.7,2.5c-6.9-7.8-26.8-26-59.5-24.6
		c-1.4,0.1-2.7,0.7-3.6,1.8c-0.9,1.1-1.3,2.4-1.2,3.8c0.2,1.6,4.7,37.9,36.2,59.8c0.2,15.3,3,88.5,35.4,121
		c10.4,10.5,22.9,15.8,37.1,15.8c14.2,0,26.6-5.3,37-15.8c32.3-32.6,34.7-105.9,34.8-121.1c8-5.8,34.5-26.8,40.7-55.3
		C310.1,146.7,309.8,145.3,309.1,144.2z M261.4,196.5c-1.4,0.9-2.3,2.5-2.2,4.2c0,0.8,0.5,83.8-31.9,116.6
		c-8.5,8.6-18.3,12.8-29.9,12.8c-11.6,0-21.4-4.2-30-12.8c-32.6-32.7-32.5-115.8-32.5-116.6c0-1.7-0.9-3.3-2.3-4.2
		c-22.4-14.5-30.3-37.9-32.9-48.5c31.2,1.2,47.1,22.8,47.8,23.8c1.5,2,4.2,2.7,6.4,1.5c46.3-24.6,91.8-0.3,92.2,0
		c2.4,1.3,5.3,0.5,6.7-1.8c6.5-10.9,16.9-17.6,31-19.7c5.8-0.9,11.1-0.8,14.8-0.5C289.8,177.4,261.7,196.3,261.4,196.5z"/>
	<path class="st0" d="M242.4,201.5c-1.1,0-2.2,0.2-3.1,0.6l2.3-10.1c0.6-2.7-1.1-5.4-3.8-6c-2.7-0.6-5.4,1.1-6,3.8l-18.7,83.9
		c-0.2,1-0.1,2.1,0.3,3c-0.2,0.6-0.4,1.2-0.4,1.9c0,8-6.6,14.5-14.8,14.5s-14.8-6.5-14.8-14.5c0-0.6-0.1-1.2-0.3-1.7
		c0-0.5,0-1-0.1-1.4l-18.7-83.9c-0.6-2.7-3.3-4.4-6-3.8c-2.7,0.6-4.4,3.3-3.8,6l1.8,7.9c-0.5-0.1-1-0.1-1.5-0.1c-4.4,0-8,3.6-8,8
		s3.6,8,8,8c1.8,0,3.4-0.6,4.7-1.5l13.7,61.7c0,0.2,0.1,0.4,0.2,0.6c0,0.1,0,0.2,0,0.3c0,13.5,11.1,24.5,24.8,24.5
		c13.6,0,24.8-11,24.8-24.5c0-0.7-0.1-1.3-0.4-1.9c0.1-0.3,0.2-0.5,0.3-0.8l13.6-61.1c1.5,1.6,3.6,2.7,6,2.7c4.4,0,8-3.6,8-8
		S246.9,201.5,242.4,201.5z"/>
	<path class="st0" d="M282.2,156.5c-16.5-0.9-22.5,14.8-22.8,15.5c-1,2.6,0.4,5.5,2.9,6.4c0.6,0.2,1.2,0.3,1.7,0.3
		c2,0,3.9-1.2,4.7-3.3c0-0.1,3.6-9.5,12.9-9c2.7,0.1,5.1-2,5.3-4.7C287.1,159,284.9,156.7,282.2,156.5z"/>
	<path class="st0" d="M115.6,156.2c-2.8-0.1-5.1,2-5.2,4.8c-0.1,2.8,2,5.1,4.8,5.2c0.1,0,10.2,0.5,12.5,9.5c0.6,2.2,2.6,3.7,4.8,3.7
		c0.4,0,0.9-0.1,1.3-0.2c2.7-0.7,4.3-3.4,3.5-6.1C133.1,157.1,116.3,156.2,115.6,156.2z"/>
	<path class="st0" d="M212.1,311.1c-14.2,9.6-27.2,0.5-27.8,0.1c-2.2-1.6-5.3-1.1-7,1.1c-1.6,2.2-1.2,5.4,1.1,7
		c0.5,0.4,8.7,6.2,20,6.2c5.8,0,12.4-1.5,19.2-6.1c2.3-1.5,2.9-4.6,1.4-6.9C217.5,310.2,214.4,309.5,212.1,311.1z"/>
</g>
</svg>
