<?xml version="1.0" encoding="utf-8"?>
<!-- Generator: Adobe Illustrator 19.1.0, SVG Export Plug-In . SVG Version: 6.00 Build 0)  -->
<svg version="1.1" id="Layer_1" xmlns="http://www.w3.org/2000/svg" xmlns:xlink="http://www.w3.org/1999/xlink" x="0px" y="0px"
	 viewBox="0 0 400 400" style="enable-background:new 0 0 400 400;" xml:space="preserve">
<style type="text/css">
	.st0{fill:#231F20;}
</style>
<g>
	<path class="st0" d="M205.2,215.4l-12.5-1.8l-5.6-11.3c-1.6-3.3-4.9-5.3-8.6-5.3c-3.7,0-6.9,2-8.6,5.3l-5.6,11.3l-12.5,1.8
		c-3.6,0.5-6.6,3-7.7,6.5c-1.1,3.5-0.2,7.2,2.4,9.8l9,8.8l-2.1,12.4c-0.6,3.6,0.8,7.2,3.8,9.3c1.7,1.2,3.6,1.8,5.6,1.8
		c1.5,0,3-0.4,4.5-1.1l11.2-5.9l11.2,5.9c3.2,1.7,7.1,1.4,10.1-0.7c3-2.2,4.4-5.7,3.8-9.3l-2.1-12.4l9-8.8c2.6-2.6,3.5-6.3,2.4-9.8
		C211.7,218.5,208.8,216,205.2,215.4z M194.3,233.5c-2.2,2.2-3.3,5.4-2.7,8.4l2,11.8l-10.6-5.6c-1.4-0.7-2.9-1.1-4.4-1.1
		c-1.5,0-3.1,0.4-4.4,1.1l-10.6,5.6l2-11.8c0.5-3.1-0.5-6.3-2.7-8.4l-8.5-8.3l11.8-1.7c3.1-0.5,5.8-2.4,7.2-5.2l5.3-10.7l5.3,10.7
		c1.4,2.8,4.1,4.8,7.2,5.2l11.8,1.7L194.3,233.5z"/>
	<path class="st0" d="M168.4,120.4c-2.8,0.1-4.9,2.4-4.9,5.1c0.1,2.7,2.3,4.9,5,4.9c0,0,0.1,0,0.1,0c5.1-0.1,10.3-0.2,15.4,0
		c2.7,0.1,5.1-2.1,5.1-4.9c0.1-2.8-2.1-5.1-4.9-5.1C179.1,120.3,173.6,120.3,168.4,120.4z"/>
	<path class="st0" d="M271.3,152c-3.1,0-6.2,0.4-9.3,1.1c-0.6-4.5-1.1-7.4-1.2-8.1c-0.9-14.5-31.1-20.4-49.2-22.7
		c-2.7-0.3-5.2,1.6-5.6,4.3c-0.3,2.7,1.6,5.2,4.3,5.6c30.5,3.8,40.4,11.3,40.4,13.4c0,1-3.3,5.4-19.4,9.6C217,159,197.6,161,177,161
		c-20.7,0-40-2.1-54.5-5.8c-16.1-4.2-19.4-8.6-19.4-9.6c0-2.3,10.8-10.2,43.9-13.8c2.7-0.3,4.7-2.8,4.4-5.5
		c-0.3-2.7-2.8-4.7-5.5-4.4c-44.4,4.8-52.3,16.3-52.8,23.1c-1.2,5.3-10.8,49.1-2.6,89.2c9.6,47,14.2,73.2,14.8,76.6
		c0.5,15.6,27.2,24.9,71.6,24.9c45.1,0,72.1-9.4,72.5-25.1c0.3-3,3.8-32.7,8.6-58.8c4.3,1.5,8.7,2.3,13.3,2.3
		c24.5,0,44.5-22.9,44.5-51.1C315.8,174.9,295.8,152,271.3,152z M271.3,244.1c-5.1,0-10-1.3-14.6-3.9c-1.4-0.8-3.1-0.8-4.5-0.2
		c-1.5,0.7-2.5,2-2.8,3.6c-5.7,29.1-9.8,65.8-9.9,66.1c0,0.2,0,0.4,0,0.6c0,5-15.3,15.4-62.5,15.4c-42.5,0-61.6-9-61.6-15.4
		c0-0.3,0-0.6-0.1-0.8c0-0.3-4.6-27-14.9-77.3c-5.8-28.1-2.1-59,0.6-74.8c4.5,2.9,10.8,5.4,19,7.6c15.3,4,35.6,6.1,57,6.1
		c21.5,0,41.7-2.2,57-6.1c7.9-2.1,14.1-4.5,18.6-7.3c0.1,0.9,0.2,1.7,0.3,2.7c0.2,1.6,1.1,2.9,2.5,3.7c1.4,0.8,3,0.9,4.5,0.3
		c3.7-1.6,7.6-2.4,11.5-2.4c19,0,34.5,18.4,34.5,41.1C305.8,225.7,290.3,244.1,271.3,244.1z"/>
	<path class="st0" d="M271.3,172.3c-5.1,0-10.1,1.6-14.5,4.8c-1.4,1-2.2,2.6-2.1,4.3c0.9,16,0.5,30-1.3,41.7
		c-0.3,1.7,0.4,3.4,1.7,4.6c4.7,3.9,10.2,6,16.1,6c14.9,0,27-13.8,27-30.7C298.4,186.1,286.2,172.3,271.3,172.3z M271.3,223.7
		c-2.6,0-5.2-0.7-7.5-2.1c1.4-11,1.8-23.6,1.1-37.7c2-1,4.2-1.5,6.4-1.5c9.4,0,17,9.3,17,20.7C288.4,214.5,280.7,223.7,271.3,223.7z
		"/>
	<path class="st0" d="M152.6,126.9c1.6,8.3,0,14.2,0,14.3c-0.8,2.6,0.7,5.4,3.4,6.2c0.5,0.1,1,0.2,1.4,0.2c2.2,0,4.1-1.4,4.8-3.6
		c0.1-0.3,2.4-8.1,0.2-19.1c-1.5-7.8-4.9-15.3-10-22.3c-9.2-12.6,5.7-30.7,5.8-30.8c1.8-2.1,1.5-5.3-0.6-7c-2.1-1.8-5.3-1.5-7,0.6
		c-0.2,0.2-5,5.9-8.2,13.8c-4.6,11.2-3.9,21.3,2,29.3C148.6,114.4,151.4,120.6,152.6,126.9z"/>
	<path class="st0" d="M184.7,108.6c12.4,17,8.4,31.9,8.2,32.6c-0.8,2.6,0.7,5.4,3.4,6.2c0.5,0.1,1,0.2,1.4,0.2
		c2.2,0,4.1-1.4,4.8-3.6c0.2-0.8,5.8-20.1-9.8-41.4c-9.2-12.6,5.7-30.7,5.8-30.8c1.8-2.1,1.5-5.3-0.6-7c-2.1-1.8-5.3-1.5-7,0.6
		c-0.2,0.2-5,5.9-8.2,13.8C178.2,90.5,178.9,100.6,184.7,108.6z"/>
	<path class="st0" d="M170.4,110.7c1,0,2.1-0.3,2.9-1c2.2-1.6,2.7-4.8,1.1-7c-9.2-12.6,5.7-30.7,5.8-30.8c1.8-2.1,1.5-5.3-0.6-7
		c-2.1-1.8-5.3-1.5-7,0.6c-0.2,0.2-5,5.9-8.2,13.8c-4.6,11.2-3.9,21.3,2,29.3C167.3,110,168.8,110.7,170.4,110.7z"/>
</g>
</svg>
