<?xml version="1.0" encoding="utf-8"?>
<!-- Generator: Adobe Illustrator 19.1.0, SVG Export Plug-In . SVG Version: 6.00 Build 0)  -->
<svg version="1.1" id="Layer_1" xmlns="http://www.w3.org/2000/svg" xmlns:xlink="http://www.w3.org/1999/xlink" x="0px" y="0px"
	 viewBox="0 0 400 400" style="enable-background:new 0 0 400 400;" xml:space="preserve">
<style type="text/css">
	.st0{fill:#231F20;}
</style>
<path class="st0" d="M295.8,265.8l-7.9-27.5c-1.3-4.4-4.1-8-8.1-10.2c-0.4-0.2-0.7-0.4-1.1-0.5c3.4-14.4,8.9-36.4,12.6-51.3
	c2.8-11.3,3.7-15,3.8-15.6c1.7-8.4-0.2-17-5.1-24c-5-7-12.4-11.6-20.9-12.9c-14.2-2.1-28.2,6-33.5,19.2l-5.3-18.4
	c-4.7-16.5-15.6-30.1-30.6-38.4c-15-8.3-32.3-10.3-48.8-5.5c-16.5,4.7-30.1,15.6-38.4,30.6c-8.3,15-10.2,32.3-5.5,48.8
	c0.1,0.3,0.8,3,2.1,7.4c0,0.7,0.2,1.3,0.5,1.9c6.9,25,25.5,92.1,27.5,99.3c-0.2,0.2-0.3,0.5-0.5,0.7c-2.2,4-2.7,8.6-1.5,12.9
	l7.9,27.5c1.3,4.4,4.1,8,8.1,10.2c2.6,1.4,5.4,2.1,8.2,2.1c1.6,0,3.2-0.2,4.7-0.7l120.2-34.6c4.4-1.3,8-4.1,10.2-8.1
	C296.5,274.7,297.1,270.1,295.8,265.8z M236.4,168c2.3-0.1,4.3-1.8,4.7-4.1c0.9-5.1,2.6-13.8,3.3-15.9c3.2-9.7,13.2-15.9,23.3-14.4
	c5.8,0.9,10.9,4,14.2,8.8c3.4,4.8,4.6,10.6,3.5,16.3c-0.2,0.7-1.8,7.4-3.7,15.2c-3.8,15.3-9.4,38-12.8,52.4
	c-0.6,0.1-1.3,0.2-1.9,0.4l-120.2,34.6c-0.4,0.1-0.8,0.3-1.3,0.4c-4.1-14.8-16.2-58.7-23.4-84.6l14.2,7.7c0.7,0.4,1.6,0.6,2.4,0.6
	c0.5,0,1-0.1,1.4-0.2c1.3-0.4,2.3-1.2,3-2.4l11-20.3l20.3,11c0.8,0.4,1.6,0.6,2.4,0.6c1.8,0,3.5-1,4.4-2.6l10.7-19.8l19.8,10.7
	c0.7,0.4,1.6,0.6,2.4,0.6c0.5,0,1-0.1,1.4-0.2c1.3-0.4,2.3-1.2,3-2.4l7.6-14.2l5.3,18.3C232,166.6,234,168.1,236.4,168z M120.7,165
	l8.6-15.9l15.9,8.6l-8.6,15.9L120.7,165z M158.8,153.6l8.6-15.9l15.9,8.6l-8.6,15.9L158.8,153.6z M196.1,142.5l8.6-15.9l15.9,8.6
	l-8.6,15.9L196.1,142.5z M153.6,90.2c13.9-4,28.5-2.3,41.2,4.7c11.4,6.3,19.9,16.2,24.4,28.3l-14.2-7.7c-2.4-1.3-5.5-0.4-6.8,2
	l-10.7,19.8l-19.8-10.7c-1.2-0.6-2.5-0.8-3.8-0.4c-1.3,0.4-2.3,1.2-3,2.4l-11,20.3l-20.3-11c-1.2-0.6-2.5-0.8-3.8-0.4
	c-1.3,0.4-2.3,1.2-3,2.4l-7.3,13.5C109.8,125.9,126.2,98.1,153.6,90.2z M285.6,273.9c-0.9,1.6-2.4,2.8-4.2,3.3l-120.2,34.6
	c-1.8,0.5-3.7,0.3-5.3-0.6c-1.6-0.9-2.8-2.4-3.3-4.2l-7.9-27.5c-0.5-1.8-0.3-3.7,0.6-5.3c0.9-1.6,2.4-2.8,4.2-3.3l120.2-34.6
	c0.6-0.2,1.3-0.3,1.9-0.3c1.2,0,2.3,0.3,3.4,0.9c1.6,0.9,2.8,2.4,3.3,4.2l7.9,27.5C286.7,270.3,286.5,272.2,285.6,273.9z"/>
</svg>
