<?xml version="1.0" encoding="utf-8"?>
<!-- Generator: Adobe Illustrator 19.1.0, SVG Export Plug-In . SVG Version: 6.00 Build 0)  -->
<svg version="1.1" id="Layer_1" xmlns="http://www.w3.org/2000/svg" xmlns:xlink="http://www.w3.org/1999/xlink" x="0px" y="0px"
	 viewBox="0 0 400 400" style="enable-background:new 0 0 400 400;" xml:space="preserve">
<style type="text/css">
	.st0{fill:#231F20;}
</style>
<g>
	<path class="st0" d="M178.9,267.5c-2.6-0.8-5.4,0.7-6.2,3.4c-1.7,5.8-7.8,9.1-13.6,7.4c-5.8-1.7-9.1-7.8-7.4-13.6
		c0.8-2.6-0.7-5.4-3.4-6.2c-2.6-0.8-5.4,0.7-6.2,3.4c-1.6,5.4-1,11,1.7,16c2.7,4.9,7.1,8.5,12.5,10.1c2,0.6,4,0.9,6,0.9
		c3.5,0,6.9-0.9,10-2.6c4.9-2.7,8.5-7.1,10.1-12.5C183,271,181.5,268.2,178.9,267.5z"/>
	<path class="st0" d="M307,242l-5.3-19.3c-0.6-2.1-2.4-3.6-4.6-3.7c-0.2,0-21.7-2-33.2-43.6c-6.4-23.2-20.4-39.7-38.7-45.9
		c1.5-10.2-4.6-20.2-14.8-23.2c-11-3.3-22.6,3-26,13.9c-2,0.2-3.9,0.6-5.9,1c-20.1,4.8-35.8,21.7-43,46.3c-12.2,41.2-33,42.9-34,43
		c-2.1,0.1-4,1.5-4.6,3.6l-5.7,19.2c-0.8,2.6,0.7,5.4,3.4,6.2l128.3,37.9c0,0.5,0,1.1,0.2,1.6c1.6,5.4,5.2,9.8,10.1,12.5
		c3.1,1.7,6.5,2.5,10,2.5c2,0,4-0.3,6-0.9c11.1-3.3,17.4-15,14.1-26.1c-0.8-2.6-3.6-4.1-6.2-3.4c-2.6,0.8-4.2,3.6-3.4,6.2
		c1.7,5.8-1.6,11.9-7.4,13.7c-2.8,0.8-5.8,0.5-8.4-0.9c-1.2-0.6-2.2-1.5-3.1-2.5c0.4-0.1,0.8-0.3,1.2-0.5c1.2-0.6,2-1.7,2.4-3
		l3.2-10.8l61.9-18C306.2,247.4,307.7,244.6,307,242z M254.2,178.1c6.6,24,16.6,36.6,25.2,43.4l-46.1,13.2c-1.5-8.4-1.3-20.4,3.6-37
		c5.9-19.8,4.3-38.5-4-52.8C242.7,151.9,250.1,163.4,254.2,178.1z M207.5,115.9c4.9,1.5,8.1,6.1,7.9,11c-6.1-3.6-13-5.9-20-6.7
		C197.9,116.4,202.8,114.5,207.5,115.9z M105.5,220c8.3-2,28-10.8,39.5-49.6c6.2-21.1,19.3-35.5,35.8-39.5
		c13.6-3.3,28.1,1,37.8,11.2c11.8,12.4,15,31.5,8.8,52.6c-7.4,25.2-5.1,41.6-0.9,51.8l-102.4-30.2c-2.6-0.8-5.4,0.7-6.2,3.4
		c-0.8,2.6,0.7,5.4,3.4,6.2l112,33.1l-3,10.3l-128.1-37.8L105.5,220z M244.1,255c-0.3-1.1-1-2.1-2-2.8c-0.3-0.2-3.3-2.5-5.9-8
		l55.9-16c0.2,0.1,0.4,0.1,0.6,0.2l3.2,11.5L244.1,255z"/>
	<path class="st0" d="M202.4,152.1c0.6,0.3,13.8,7.8,8.7,37.5c-0.5,2.7,1.3,5.3,4.1,5.8c0.3,0.1,0.6,0.1,0.9,0.1
		c2.4,0,4.5-1.7,4.9-4.1c6.6-37.6-13.2-47.8-14-48.2c-2.5-1.2-5.5-0.2-6.7,2.3C199,147.9,200,150.8,202.4,152.1z"/>
	<path class="st0" d="M189.2,145.6l0.2,0.1c0.8,0.5,1.8,0.8,2.7,0.8c1.6,0,3.2-0.8,4.2-2.3c0.5-0.8,0.8-1.8,0.8-2.7
		c0-1.6-0.8-3.2-2.3-4.2l-0.2-0.1c-2.3-1.5-5.4-0.8-6.9,1.5c-0.5,0.8-0.8,1.8-0.8,2.7C186.9,143,187.7,144.6,189.2,145.6z"/>
</g>
</svg>
