<?xml version="1.0" encoding="utf-8"?>
<!-- Generator: Adobe Illustrator 19.1.0, SVG Export Plug-In . SVG Version: 6.00 Build 0)  -->
<svg version="1.1" id="Layer_1" xmlns="http://www.w3.org/2000/svg" xmlns:xlink="http://www.w3.org/1999/xlink" x="0px" y="0px"
	 viewBox="0 0 400 400" style="enable-background:new 0 0 400 400;" xml:space="preserve">
<style type="text/css">
	.st0{fill:#231F20;}
</style>
<g>
	<path class="st0" d="M355.7,274.2l-7.6-21.5c-1-2.9-2.7-5.3-5-7.2c5.7-32.7,12.3-70.9,12.5-72.4c1.2-8.5-1.2-16.9-6.5-23.7
		c-5.4-6.7-13-10.9-21.6-11.6c-14.2-1.3-27.8,7.7-32.4,21.1l-6.4-18.1c-5.7-16.2-17.3-29.1-32.8-36.5c-15.5-7.4-32.9-8.3-49-2.7
		c-2.6,0.9-4,3.8-3.1,6.4c0.9,2.6,3.8,4,6.4,3.1c13.6-4.8,28.3-4,41.4,2.2c6.7,3.2,12.6,7.7,17.3,13.1l-47.1,16.8
		c-2.6,0.9-4,3.8-3,6.4c0.7,2,2.7,3.3,4.7,3.3c0.6,0,1.1-0.1,1.7-0.3l49.9-17.8c1.7,2.9,3.1,6,4.3,9.3l12.8,36.4
		c0.8,2.2,3,3.6,5.3,3.3c2.3-0.3,4.1-2.1,4.4-4.4c0.6-5.1,1.8-14,2.3-16c2.6-9.9,12.2-16.6,22.4-15.7c5.8,0.5,11.1,3.3,14.7,7.9
		c3.6,4.6,5.2,10.3,4.4,16.1c-0.2,1.4-4.7,27.4-12.1,69.8c-2.4-0.2-4.9,0-7.3,0.9l-106.7,37.6c-8.8,3.1-13.5,12.8-10.4,21.7
		l7.6,21.5c2.5,7,9,11.4,16.1,11.4c1.9,0,3.8-0.3,5.6-1l106.7-37.6c0,0,0,0,0,0C354.1,292.7,358.8,283,355.7,274.2z M318.2,294.8
		l-12.6-34.5l8.6-3l12.6,34.5L318.2,294.8z M300.6,301L288,266.4l8.2-2.9l12.6,34.5L300.6,301z M283.4,307l-12.6-34.5l7.7-2.7
		l12.6,34.5L283.4,307z M265.8,313.2l-12.6-34.5l8.2-2.9l12.6,34.5L265.8,313.2z M248.6,319.3l-13.1-34.4l8.2-2.9l12.6,34.5
		L248.6,319.3z M235.3,324c-3.6,1.3-7.6-0.6-8.9-4.3l-7.6-21.5c-1.3-3.6,0.6-7.6,4.3-8.9l3.1-1.1l13.1,34.4L235.3,324z M341.9,286.4
		l-5.8,2l-12.6-34.5l6.1-2.2c0.8-0.3,1.5-0.4,2.3-0.4c1,0,2.1,0.2,3,0.7c1.7,0.8,3,2.2,3.6,4l7.6,21.5
		C347.5,281.1,345.6,285.1,341.9,286.4z"/>
	<path class="st0" d="M182.7,289.1l61.1-24c4.2-1.7,7.5-4.9,9.4-9c1.8-4.2,1.9-8.8,0.2-13l-6.9-17.6h0l-47.3-120.2
		c-6.3-15.9-18.4-28.5-34.1-35.3C149.4,63.1,132,62.7,116,69c-15.9,6.3-28.5,18.4-35.3,34.1c-6.8,15.7-7.2,33.1-0.9,49.1l7,17.9
		c-12.2-7.2-28.4-5.1-38.3,5.2c-6,6.2-9.1,14.4-8.7,23c0.4,8.6,4.1,16.5,10.6,22.2c1.2,1.1,35.4,29.1,56.9,46.6
		c-0.4,2.9-0.1,5.9,1,8.7l8.3,21.2c1.7,4.2,4.9,7.5,9,9.4c2.2,1,4.5,1.4,6.8,1.4c2.1,0,4.2-0.4,6.2-1.2l43-16.9
		c0.2,0,0.3-0.1,0.5-0.1C182.2,289.4,182.4,289.3,182.7,289.1z M165.8,285l-12.6-34.5l8.1-3.2l12.6,34.5L165.8,285z M148.9,291.7
		l-13-34.4l8.1-3.2l12.6,34.5L148.9,291.7z M170.6,243.6l7.6-3l12.6,34.5l-7.6,3L170.6,243.6z M213.4,226.8l12.6,34.5l-8.5,3.3
		l-12.6-34.5L213.4,226.8z M195.6,233.8l12.6,34.5l-8.1,3.2L187.5,237L195.6,233.8z M244,252.1c-0.8,1.7-2.1,3-3.8,3.7l-4.8,1.9
		l-12.6-34.5l4-1.6c0.8-0.3,1.7-0.5,2.5-0.5c1,0,1.9,0.2,2.8,0.6c1.7,0.8,3,2.1,3.7,3.8l8.3,21.2C244.8,248.5,244.7,250.4,244,252.1
		z M89.9,107.1c5.8-13.3,16.4-23.5,29.8-28.8c13.5-5.3,28.2-5,41.4,0.8c11.7,5.1,21.1,14,26.7,25.3L87.5,143.8
		C84,131.7,84.7,118.8,89.9,107.1z M111.7,257.7C85.5,236.3,58.2,214,57,212.9c-4.4-3.9-6.9-9.2-7.2-15.1
		c-0.2-5.8,1.9-11.4,5.9-15.6c7.1-7.3,18.8-8.5,27.2-2.8c1.8,1.2,8.5,7.1,12.3,10.6l15.8,14.4l-20.1-51.2l100.8-39.6l38.4,97.6
		c-2.4-0.1-4.8,0.2-7.1,1.1l-105.2,41.4C115.4,254.6,113.4,256,111.7,257.7z M134.9,297.2c-1.7,0.7-3.6,0.6-5.4-0.1
		c-1.7-0.8-3-2.1-3.7-3.8l-8.3-21.2c-0.7-1.7-0.6-3.6,0.1-5.4c0.8-1.7,2.1-3,3.8-3.7l5.1-2l13,34.4L134.9,297.2z"/>
</g>
</svg>
