<?xml version="1.0" encoding="utf-8"?>
<!-- Generator: Adobe Illustrator 19.1.0, SVG Export Plug-In . SVG Version: 6.00 Build 0)  -->
<svg version="1.1" id="Layer_1" xmlns="http://www.w3.org/2000/svg" xmlns:xlink="http://www.w3.org/1999/xlink" x="0px" y="0px"
	 viewBox="0 0 400 400" style="enable-background:new 0 0 400 400;" xml:space="preserve">
<style type="text/css">
	.st0{fill:#231F20;}
</style>
<g>
	<path class="st0" d="M262.1,253.6c-2-1.9-5.1-1.9-7.1,0.1c-1.9,2-1.9,5.1,0.1,7.1l15.1,14.8c1,1,2.2,1.4,3.5,1.4
		c1.3,0,2.6-0.5,3.6-1.5c1.9-2,1.9-5.1-0.1-7.1L262.1,253.6z"/>
	<path class="st0" d="M138.8,141.8c1.3,0,2.6-0.5,3.6-1.5c1.9-2,1.9-5.1-0.1-7.1l-16.8-16.5c-2-1.9-5.1-1.9-7.1,0.1
		c-1.9,2-1.9,5.1,0.1,7.1l16.8,16.5C136.2,141.4,137.5,141.8,138.8,141.8z"/>
	<path class="st0" d="M139.1,255.8l-16.9,17.2c-1.9,2-1.9,5.1,0.1,7.1c1,1,2.2,1.4,3.5,1.4c1.3,0,2.6-0.5,3.6-1.5l16.9-17.2
		c1.9-2,1.9-5.1-0.1-7.1C144.2,253.8,141,253.8,139.1,255.8z"/>
	<path class="st0" d="M284.4,117.7c-2-1.9-5.1-1.9-7.1,0.1l-14.7,14.9c-1.9,2-1.9,5.1,0.1,7.1c1,1,2.2,1.4,3.5,1.4
		c1.3,0,2.6-0.5,3.6-1.5l14.7-14.9C286.4,122.8,286.4,119.6,284.4,117.7z"/>
	<path class="st0" d="M170.5,197.2c0-1.3-0.5-2.7-1.5-3.7l-17.4-17.3c-2-1.9-5.1-1.9-7.1,0c-1.9,2-1.9,5.1,0,7.1l14,13.9l-15,14.9
		c-2,1.9-2,5.1,0,7.1c1,1,2.3,1.5,3.5,1.5c1.3,0,2.6-0.5,3.5-1.5l18.4-18.3C170,199.8,170.5,198.5,170.5,197.2z"/>
	<path class="st0" d="M197.4,166.3c0.1,0.1,0.3,0.2,0.5,0.4c0.1,0.1,0.2,0.2,0.3,0.3c0.2,0.1,0.4,0.2,0.6,0.3c0.1,0,0.2,0.1,0.3,0.2
		c0.2,0.1,0.4,0.1,0.7,0.2c0.1,0,0.2,0.1,0.3,0.1c0.3,0.1,0.6,0.1,1,0.1c0.3,0,0.6,0,1-0.1c0.1,0,0.2-0.1,0.3-0.1
		c0.2-0.1,0.4-0.1,0.6-0.2c0.1-0.1,0.3-0.1,0.4-0.2c0.2-0.1,0.3-0.2,0.5-0.3c0.1-0.1,0.2-0.2,0.4-0.3c0.1-0.1,0.3-0.2,0.4-0.3
		l16.6-16.5c2-1.9,2-5.1,0-7.1c-1.9-2-5.1-2-7.1,0l-13.1,13l-14-13.9c-2-1.9-5.1-1.9-7.1,0c-1.9,2-1.9,5.1,0,7.1L197.4,166.3z"/>
	<path class="st0" d="M256.6,213.1l-15-14.9l15-14.9c2-1.9,2-5.1,0-7.1c-1.9-2-5.1-2-7.1,0l-18.4,18.3c-1,1-1.5,2.3-1.5,3.7
		c0,1.3,0.4,2.7,1.5,3.7l18.4,18.3c1,1,2.3,1.5,3.5,1.5c1.3,0,2.6-0.5,3.5-1.5C258.6,218.2,258.5,215,256.6,213.1z"/>
	<path class="st0" d="M203.6,228.9c-0.1-0.1-0.3-0.2-0.4-0.3c-0.1-0.1-0.2-0.2-0.4-0.3c-0.1-0.1-0.3-0.1-0.4-0.2
		c-0.2-0.1-0.3-0.2-0.5-0.2c-0.1-0.1-0.3-0.1-0.4-0.1c-0.2-0.1-0.3-0.1-0.5-0.2c-0.1,0-0.3,0-0.4,0c-0.2,0-0.4-0.1-0.6-0.1
		c-0.1,0-0.3,0-0.4,0c-0.2,0-0.4,0-0.5,0.1c-0.1,0-0.3,0.1-0.4,0.1c-0.2,0-0.4,0.1-0.5,0.2c-0.1,0.1-0.3,0.1-0.4,0.2
		c-0.2,0.1-0.3,0.2-0.5,0.3c-0.1,0.1-0.2,0.2-0.3,0.3c-0.1,0.1-0.3,0.2-0.4,0.3l-17.6,17.6c-2,1.9-2,5.1,0,7.1c1,1,2.3,1.5,3.5,1.5
		c1.3,0,2.6-0.5,3.5-1.5l14.1-14l14.1,14c1,1,2.3,1.5,3.5,1.5c1.3,0,2.6-0.5,3.5-1.5c1.9-2,1.9-5.1,0-7.1L203.6,228.9z"/>
	<path class="st0" d="M201,113.1c10,0,18.2-8.2,18.2-18.2c0-2.8-2.2-5-5-5s-5,2.2-5,5c0,4.5-3.7,8.2-8.2,8.2c-4.5,0-8.2-3.7-8.2-8.2
		c0-2.8-2.2-5-5-5c-2.8,0-5,2.2-5,5C182.8,105,190.9,113.1,201,113.1z"/>
	<path class="st0" d="M201,285.6c-10,0-18.2,8.2-18.2,18.2c0,2.8,2.2,5,5,5c2.8,0,5-2.2,5-5c0-4.5,3.7-8.2,8.2-8.2
		c4.5,0,8.2,3.7,8.2,8.2c0,2.8,2.2,5,5,5s5-2.2,5-5C219.1,293.8,211,285.6,201,285.6z"/>
	<path class="st0" d="M114.5,198.1c0-10-8.2-18.2-18.2-18.2c-2.8,0-5,2.2-5,5c0,2.8,2.2,5,5,5c4.5,0,8.2,3.7,8.2,8.2
		c0,4.5-3.7,8.2-8.2,8.2c-2.8,0-5,2.2-5,5c0,2.8,2.2,5,5,5C106.4,216.3,114.5,208.1,114.5,198.1z"/>
	<path class="st0" d="M303.1,206.3c-4.5,0-8.2-3.7-8.2-8.2c0-4.5,3.7-8.2,8.2-8.2c2.8,0,5-2.2,5-5c0-2.8-2.2-5-5-5
		c-10,0-18.2,8.2-18.2,18.2s8.2,18.2,18.2,18.2c2.8,0,5-2.2,5-5C308.1,208.5,305.9,206.3,303.1,206.3z"/>
	<circle class="st0" cx="238.7" cy="109.1" r="5.1"/>
	<circle class="st0" cx="200.1" cy="197.1" r="11.6"/>
	<circle class="st0" cx="289.9" cy="161.7" r="5.1"/>
	<circle class="st0" cx="289.9" cy="236.5" r="5.1"/>
	<circle class="st0" cx="238.7" cy="287.4" r="5.1"/>
	<circle class="st0" cx="165.5" cy="287.4" r="5.1"/>
	<circle class="st0" cx="109.5" cy="232.5" r="5.1"/>
	<circle class="st0" cx="109.5" cy="156.6" r="5.1"/>
	<circle class="st0" cx="161.8" cy="108.1" r="5.1"/>
</g>
</svg>
