<?xml version="1.0" encoding="utf-8"?>
<!-- Generator: Adobe Illustrator 19.1.0, SVG Export Plug-In . SVG Version: 6.00 Build 0)  -->
<svg version="1.1" id="Layer_1" xmlns="http://www.w3.org/2000/svg" xmlns:xlink="http://www.w3.org/1999/xlink" x="0px" y="0px"
	 viewBox="0 0 400 400" style="enable-background:new 0 0 400 400;" xml:space="preserve">
<style type="text/css">
	.st0{fill:#231F20;}
</style>
<g>
	<path class="st0" d="M261.8,254.6c-2-1.9-5.1-1.9-7.1,0.1c-1.9,2-1.9,5.1,0.1,7.1l15.1,14.8c1,1,2.2,1.4,3.5,1.4
		c1.3,0,2.6-0.5,3.6-1.5c1.9-2,1.9-5.1-0.1-7.1L261.8,254.6z"/>
	<path class="st0" d="M138.5,142.8c1.3,0,2.6-0.5,3.6-1.5c1.9-2,1.9-5.1-0.1-7.1l-16.8-16.5c-2-1.9-5.1-1.9-7.1,0.1
		c-1.9,2-1.9,5.1,0.1,7.1l16.8,16.5C135.9,142.4,137.2,142.8,138.5,142.8z"/>
	<path class="st0" d="M138.8,256.8l-16.9,17.2c-1.9,2-1.9,5.1,0.1,7.1c1,1,2.2,1.4,3.5,1.4c1.3,0,2.6-0.5,3.6-1.5l16.9-17.2
		c1.9-2,1.9-5.1-0.1-7.1C143.9,254.8,140.7,254.8,138.8,256.8z"/>
	<path class="st0" d="M284.1,118.7c-2-1.9-5.1-1.9-7.1,0.1l-14.7,14.9c-1.9,2-1.9,5.1,0.1,7.1c1,1,2.2,1.4,3.5,1.4
		c1.3,0,2.6-0.5,3.6-1.5l14.7-14.9C286.1,123.8,286.1,120.6,284.1,118.7z"/>
	<path class="st0" d="M260.1,226.5c2.8,0,5-2.2,5-5c0-2.8-2.2-5-5-5c-9.5,0-17.2-7.7-17.2-17.2c0-9.5,7.7-17.2,17.2-17.2
		c2.8,0,5-2.2,5-5c0-2.8-2.2-5-5-5c-15,0-27.2,12.2-27.2,27.2C232.9,214.3,245.1,226.5,260.1,226.5z"/>
	<path class="st0" d="M139.3,172c-2.8,0-5,2.2-5,5c0,2.8,2.2,5,5,5c9.5,0,17.2,7.7,17.2,17.2c0,9.5-7.7,17.2-17.2,17.2
		c-2.8,0-5,2.2-5,5c0,2.8,2.2,5,5,5c15,0,27.2-12.2,27.2-27.2C166.6,184.3,154.4,172,139.3,172z"/>
	<path class="st0" d="M199.7,231.1c-15,0-27.2,12.2-27.2,27.2c0,2.8,2.2,5,5,5s5-2.2,5-5c0-9.5,7.7-17.2,17.2-17.2
		c9.5,0,17.2,7.7,17.2,17.2c0,2.8,2.2,5,5,5s5-2.2,5-5C227,243.3,214.8,231.1,199.7,231.1z"/>
	<path class="st0" d="M222,132.6c-2.8,0-5,2.2-5,5c0,9.5-7.7,17.2-17.2,17.2c-9.5,0-17.2-7.7-17.2-17.2c0-2.8-2.2-5-5-5s-5,2.2-5,5
		c0,15,12.2,27.2,27.2,27.2c15,0,27.2-12.2,27.2-27.2C227,134.8,224.7,132.6,222,132.6z"/>
	<circle class="st0" cx="238.4" cy="110.1" r="5.1"/>
	<circle class="st0" cx="289.6" cy="162.7" r="5.1"/>
	<circle class="st0" cx="289.6" cy="237.5" r="5.1"/>
	<circle class="st0" cx="238.4" cy="288.4" r="5.1"/>
	<circle class="st0" cx="165.2" cy="288.4" r="5.1"/>
	<circle class="st0" cx="109.2" cy="233.5" r="5.1"/>
	<circle class="st0" cx="109.2" cy="157.6" r="5.1"/>
	<circle class="st0" cx="161.5" cy="109.1" r="5.1"/>
	<path class="st0" d="M185,214.3c1,0.9,2.2,1.4,3.5,1.4c1.3,0,2.6-0.5,3.6-1.5l8.6-8.9l8.6,8.9c1,1,2.3,1.5,3.6,1.5
		c1.3,0,2.5-0.5,3.5-1.4c2-1.9,2-5.1,0.1-7.1l-8.9-9.2l8.9-9.2c1.9-2,1.9-5.2-0.1-7.1c-2-1.9-5.2-1.9-7.1,0.1l-8.6,8.9l-8.6-8.9
		c-1.9-2-5.1-2-7.1-0.1c-2,1.9-2,5.1-0.1,7.1l8.9,9.2l-8.9,9.2C183,209.2,183,212.4,185,214.3z"/>
</g>
</svg>
