<?xml version="1.0" encoding="utf-8"?>
<!-- Generator: Adobe Illustrator 19.1.0, SVG Export Plug-In . SVG Version: 6.00 Build 0)  -->
<svg version="1.1" id="Layer_1" xmlns="http://www.w3.org/2000/svg" xmlns:xlink="http://www.w3.org/1999/xlink" x="0px" y="0px"
	 viewBox="0 0 400 400" style="enable-background:new 0 0 400 400;" xml:space="preserve">
<style type="text/css">
	.st0{fill:#231F20;}
</style>
<g>
	<path class="st0" d="M197.2,165.7c0.1,0.1,0.3,0.3,0.5,0.4c0.1,0.1,0.2,0.2,0.3,0.2c0.2,0.1,0.4,0.2,0.5,0.3
		c0.1,0.1,0.2,0.1,0.3,0.2c0.2,0.1,0.4,0.1,0.6,0.2c0.1,0,0.2,0.1,0.3,0.1c0.3,0.1,0.6,0.1,1,0.1c0.3,0,0.6,0,1-0.1
		c0.1,0,0.2-0.1,0.3-0.1c0.2-0.1,0.4-0.1,0.6-0.2c0.1-0.1,0.3-0.1,0.4-0.2c0.2-0.1,0.3-0.2,0.5-0.3c0.1-0.1,0.2-0.2,0.4-0.3
		c0.1-0.1,0.3-0.2,0.4-0.3l16.6-16.5c2-1.9,2-5.1,0-7.1c-1.9-2-5.1-2-7.1,0l-13.1,13l-14-13.9c-2-1.9-5.1-1.9-7.1,0
		c-1.9,2-1.9,5.1,0,7.1L197.2,165.7z"/>
	<path class="st0" d="M256.4,212.5l-15-14.9l15-14.9c2-1.9,2-5.1,0-7.1c-1.9-2-5.1-2-7.1,0l-18.4,18.3c-1,1-1.5,2.3-1.5,3.7
		c0,1.3,0.4,2.7,1.5,3.7l18.4,18.3c1,1,2.3,1.5,3.5,1.5c1.3,0,2.6-0.5,3.5-1.5C258.4,217.6,258.3,214.4,256.4,212.5z"/>
	<path class="st0" d="M203.4,228.3c-0.1-0.1-0.3-0.2-0.4-0.3c-0.1-0.1-0.2-0.2-0.4-0.3c-0.1-0.1-0.3-0.1-0.4-0.2
		c-0.2-0.1-0.3-0.2-0.5-0.3c-0.1,0-0.3-0.1-0.4-0.1c-0.2-0.1-0.4-0.1-0.5-0.2c-0.1,0-0.3,0-0.4,0c-0.2,0-0.4-0.1-0.6-0.1
		c-0.1,0-0.3,0-0.4,0c-0.2,0-0.4,0-0.5,0.1c-0.1,0-0.3,0.1-0.4,0.1c-0.2,0-0.3,0.1-0.5,0.1c-0.1,0.1-0.3,0.1-0.4,0.2
		c-0.2,0.1-0.3,0.1-0.5,0.2c-0.1,0.1-0.2,0.2-0.4,0.3c-0.1,0.1-0.3,0.2-0.4,0.3l-17.6,17.6c-2,1.9-2,5.1,0,7.1c1,1,2.3,1.5,3.5,1.5
		c1.3,0,2.6-0.5,3.5-1.5l14.1-14l14.1,14c1,1,2.3,1.5,3.5,1.5c1.3,0,2.6-0.5,3.5-1.5c1.9-2,1.9-5.1,0-7.1L203.4,228.3z"/>
	<path class="st0" d="M168.8,192.9l-17.4-17.3c-2-1.9-5.1-1.9-7.1,0c-1.9,2-1.9,5.1,0,7.1l14,13.9l-15,14.9c-2,1.9-2,5.1,0,7.1
		c1,1,2.3,1.5,3.5,1.5c1.3,0,2.6-0.5,3.5-1.5l18.4-18.3c1-1,1.5-2.3,1.5-3.7C170.3,195.3,169.8,193.9,168.8,192.9z"/>
	<path class="st0" d="M260.7,141.5c3.3,2.9,7.5,4.4,11.9,4.4c0.4,0,0.9,0,1.3,0c4.8-0.4,9.3-2.6,12.4-6.2c1.8-2.1,1.6-5.2-0.5-7.1
		c-2.1-1.8-5.2-1.6-7.1,0.5c-1.4,1.7-3.4,2.7-5.6,2.8c-2.2,0.2-4.3-0.5-5.9-2c-1.7-1.4-2.6-3.4-2.8-5.6c-0.2-2.2,0.5-4.3,2-5.9
		c1.8-2.1,1.6-5.2-0.5-7.1c-2.1-1.8-5.2-1.6-7.1,0.5c-3.2,3.7-4.7,8.4-4.4,13.2C254.8,133.9,257,138.3,260.7,141.5z"/>
	<path class="st0" d="M200.8,112.5c10,0,18.2-8.2,18.2-18.2s-8.2-18.2-18.2-18.2s-18.2,8.2-18.2,18.2S190.7,112.5,200.8,112.5z
		 M200.8,86.1c4.5,0,8.2,3.7,8.2,8.2c0,4.5-3.7,8.2-8.2,8.2c-4.5,0-8.2-3.7-8.2-8.2C192.6,89.8,196.3,86.1,200.8,86.1z"/>
	<path class="st0" d="M200.8,285c-10,0-18.2,8.2-18.2,18.2c0,10,8.2,18.2,18.2,18.2s18.2-8.2,18.2-18.2
		C218.9,293.1,210.8,285,200.8,285z M200.8,311.4c-4.5,0-8.2-3.7-8.2-8.2c0-4.5,3.7-8.2,8.2-8.2c4.5,0,8.2,3.7,8.2,8.2
		C208.9,307.7,205.3,311.4,200.8,311.4z"/>
	<path class="st0" d="M272.6,251.3c0,0-0.1,0-0.1,0c-4.9,0-9.4,2-12.8,5.4c-7,7.1-6.9,18.7,0.2,25.7c1,1,2.2,1.4,3.5,1.4
		c1.3,0,2.6-0.5,3.6-1.5c1.9-2,1.9-5.1-0.1-7.1c-3.2-3.2-3.3-8.4-0.1-11.6c3.2-3.2,8.4-3.3,11.6-0.1c2,1.9,5.1,1.9,7.1-0.1
		c1.9-2,1.9-5.1-0.1-7.1C281.9,253.1,277.4,251.3,272.6,251.3z"/>
	<path class="st0" d="M142.4,129.6c7.3-6.8,7.7-18.4,0.9-25.7c-1.9-2-5-2.1-7.1-0.2c-2,1.9-2.1,5-0.2,7.1c3.1,3.3,2.9,8.5-0.4,11.6
		c-3.3,3.1-8.5,2.9-11.6-0.4c-1.9-2-5.1-2.1-7.1-0.2c-2,1.9-2.1,5.1-0.2,7.1c3.6,3.8,8.4,5.8,13.3,5.8
		C134.4,134.5,138.9,132.9,142.4,129.6z"/>
	<path class="st0" d="M96.1,179.3c-10,0-18.2,8.2-18.2,18.2s8.2,18.2,18.2,18.2s18.2-8.2,18.2-18.2S106.2,179.3,96.1,179.3z
		 M96.1,205.7c-4.5,0-8.2-3.7-8.2-8.2c0-4.5,3.7-8.2,8.2-8.2c4.5,0,8.2,3.7,8.2,8.2C104.3,202,100.7,205.7,96.1,205.7z"/>
	<path class="st0" d="M302.9,179.3c-10,0-18.2,8.2-18.2,18.2s8.2,18.2,18.2,18.2c10,0,18.2-8.2,18.2-18.2S312.9,179.3,302.9,179.3z
		 M302.9,205.7c-4.5,0-8.2-3.7-8.2-8.2c0-4.5,3.7-8.2,8.2-8.2c4.5,0,8.2,3.7,8.2,8.2C311.1,202,307.4,205.7,302.9,205.7z"/>
	<path class="st0" d="M146.3,254.7c-3.7-3.2-8.4-4.7-13.2-4.3c-4.8,0.4-9.2,2.6-12.4,6.3c-1.8,2.1-1.5,5.3,0.6,7
		c2.1,1.8,5.3,1.5,7-0.6c1.4-1.7,3.4-2.7,5.6-2.8c2.2-0.2,4.3,0.5,6,1.9c3.4,2.9,3.8,8.1,0.9,11.5c-1.8,2.1-1.5,5.3,0.6,7
		c0.9,0.8,2.1,1.2,3.2,1.2c1.4,0,2.8-0.6,3.8-1.8C154.8,272.7,153.9,261.2,146.3,254.7z"/>
	<path class="st0" d="M203.5,174.1c-0.9-0.9-2.2-1.5-3.5-1.5c-1.3,0-2.6,0.5-3.5,1.5L177.5,193c-0.9,0.9-1.5,2.2-1.5,3.5
		s0.5,2.6,1.5,3.5l18.9,18.9c1,1,2.3,1.5,3.5,1.5s2.6-0.5,3.5-1.5l18.9-18.9c0.9-0.9,1.5-2.2,1.5-3.5s-0.5-2.6-1.5-3.5L203.5,174.1z
		 M200,208.3l-11.8-11.8l11.8-11.8l11.8,11.8L200,208.3z"/>
</g>
</svg>
