<?xml version="1.0" encoding="utf-8"?>
<!-- Generator: Adobe Illustrator 19.1.0, SVG Export Plug-In . SVG Version: 6.00 Build 0)  -->
<svg version="1.1" id="Layer_1" xmlns="http://www.w3.org/2000/svg" xmlns:xlink="http://www.w3.org/1999/xlink" x="0px" y="0px"
	 viewBox="0 0 400 400" style="enable-background:new 0 0 400 400;" xml:space="preserve">
<style type="text/css">
	.st0{fill:#231F20;}
</style>
<g>
	<path class="st0" d="M144.4,162.4c1.2,0,2.4-0.4,3.3-1.3c2.1-1.8,2.2-5,0.4-7.1c-3-3.4-2.7-8.5,0.6-11.6c3.4-3,8.5-2.7,11.6,0.6
		c1.8,2.1,5,2.2,7.1,0.4c2.1-1.8,2.2-5,0.4-7.1c-6.7-7.5-18.2-8.1-25.7-1.4c-3.6,3.2-5.7,7.7-6,12.6c-0.3,4.8,1.4,9.5,4.6,13.1
		C141.7,161.8,143,162.4,144.4,162.4z"/>
	<path class="st0" d="M250.3,228c-2,1.9-2.1,5.1-0.2,7.1c3.1,3.3,2.9,8.5-0.4,11.6c-3.3,3.1-8.5,2.9-11.6-0.4
		c-1.9-2-5.1-2.1-7.1-0.2c-2,1.9-2.1,5.1-0.2,7.1c3.6,3.8,8.4,5.8,13.3,5.8c4.5,0,8.9-1.6,12.4-4.9c7.3-6.8,7.7-18.4,0.9-25.7
		C255.5,226.2,252.3,226.1,250.3,228z"/>
	<path class="st0" d="M239.6,145.7c3.4-3,8.5-2.7,11.6,0.6c1.5,1.6,2.2,3.7,2.1,5.9c-0.1,2.2-1.1,4.2-2.7,5.6
		c-2.1,1.8-2.2,5-0.4,7.1c1,1.1,2.4,1.7,3.7,1.7c1.2,0,2.4-0.4,3.3-1.3c3.6-3.2,5.7-7.7,6-12.6c0.3-4.8-1.4-9.5-4.6-13.1
		c-6.7-7.5-18.2-8.1-25.7-1.4c-2.1,1.8-2.2,5-0.4,7.1C234.4,147.3,237.6,147.5,239.6,145.7z"/>
	<path class="st0" d="M165.7,247.8c-1.9-2-5.1-2.1-7.1-0.2c-1.6,1.5-3.7,2.3-5.9,2.2c-2.2-0.1-4.2-1-5.7-2.6
		c-1.5-1.6-2.3-3.7-2.2-5.9c0.1-2.2,1-4.2,2.6-5.7c2-1.9,2.1-5.1,0.2-7.1c-1.9-2-5.1-2.1-7.1-0.2c-3.5,3.3-5.6,7.8-5.8,12.7
		c-0.2,4.9,1.6,9.5,4.9,13c3.3,3.5,7.8,5.6,12.7,5.8c0.2,0,0.4,0,0.6,0c4.6,0,9-1.7,12.4-4.9C167.5,253,167.6,249.8,165.7,247.8z"/>
	<circle class="st0" cx="238.9" cy="110.1" r="5.1"/>
	<circle class="st0" cx="290.1" cy="162.7" r="5.1"/>
	<circle class="st0" cx="290.1" cy="237.5" r="5.1"/>
	<circle class="st0" cx="238.9" cy="288.4" r="5.1"/>
	<circle class="st0" cx="165.7" cy="288.4" r="5.1"/>
	<circle class="st0" cx="109.7" cy="233.5" r="5.1"/>
	<circle class="st0" cx="109.7" cy="157.6" r="5.1"/>
	<circle class="st0" cx="162" cy="109.1" r="5.1"/>
	<path class="st0" d="M196.5,165.7c0.1,0.1,0.3,0.3,0.5,0.4c0.1,0.1,0.2,0.2,0.3,0.2c0.2,0.1,0.4,0.2,0.5,0.3
		c0.1,0.1,0.2,0.1,0.3,0.2c0.2,0.1,0.4,0.1,0.6,0.2c0.1,0,0.2,0.1,0.3,0.1c0.3,0.1,0.6,0.1,1,0.1c0.3,0,0.6,0,1-0.1
		c0.1,0,0.2-0.1,0.3-0.1c0.2-0.1,0.4-0.1,0.6-0.2c0.1-0.1,0.3-0.1,0.4-0.2c0.2-0.1,0.3-0.2,0.5-0.3c0.1-0.1,0.2-0.2,0.4-0.3
		c0.1-0.1,0.3-0.2,0.4-0.3l16.6-16.5c2-1.9,2-5.1,0-7.1c-1.9-2-5.1-2-7.1,0l-13.1,13l-14-13.9c-2-1.9-5.1-1.9-7.1,0
		c-1.9,2-1.9,5.1,0,7.1L196.5,165.7z"/>
	<path class="st0" d="M196.5,139.2c0.1,0.1,0.3,0.3,0.5,0.4c0.1,0.1,0.2,0.2,0.3,0.2c0.2,0.1,0.4,0.2,0.5,0.3
		c0.1,0.1,0.2,0.1,0.3,0.2c0.2,0.1,0.4,0.1,0.6,0.2c0.1,0,0.2,0.1,0.3,0.1c0.3,0.1,0.6,0.1,1,0.1c0.3,0,0.6,0,1-0.1
		c0.1,0,0.2-0.1,0.3-0.1c0.2-0.1,0.4-0.1,0.6-0.2c0.1-0.1,0.3-0.1,0.4-0.2c0.2-0.1,0.3-0.2,0.5-0.3c0.1-0.1,0.2-0.2,0.4-0.3
		c0.1-0.1,0.3-0.2,0.4-0.3l16.6-16.5c2-1.9,2-5.1,0-7.1c-1.9-2-5.1-2-7.1,0l-13.1,13l-14-13.9c-2-1.9-5.1-1.9-7.1,0
		c-1.9,2-1.9,5.1,0,7.1L196.5,139.2z"/>
	<path class="st0" d="M230.2,201.2l18.4,18.3c1,1,2.3,1.5,3.5,1.5c1.3,0,2.6-0.5,3.5-1.5c1.9-2,1.9-5.1,0-7.1l-15-14.9l15-14.9
		c2-1.9,2-5.1,0-7.1c-1.9-2-5.1-2-7.1,0l-18.4,18.3c-1,1-1.5,2.3-1.5,3.7C228.7,198.9,229.2,200.2,230.2,201.2z"/>
	<path class="st0" d="M202.6,228.3c-0.1-0.1-0.3-0.2-0.4-0.3c-0.1-0.1-0.2-0.2-0.4-0.3c-0.1-0.1-0.3-0.2-0.4-0.2
		c-0.1-0.1-0.3-0.2-0.4-0.2c-0.1-0.1-0.3-0.1-0.4-0.1c-0.2-0.1-0.3-0.1-0.5-0.1c-0.1,0-0.3,0-0.4,0c-0.2,0-0.4-0.1-0.5-0.1
		c-0.1,0-0.3,0-0.4,0c-0.2,0-0.4,0-0.6,0.1c-0.1,0-0.3,0.1-0.4,0.1c-0.2,0.1-0.4,0.1-0.5,0.2c-0.1,0.1-0.2,0.1-0.4,0.2
		c-0.2,0.1-0.3,0.2-0.5,0.3c-0.1,0.1-0.2,0.2-0.3,0.3c-0.1,0.1-0.3,0.2-0.4,0.4l-17.6,17.6c-2,1.9-2,5.1,0,7.1c1,1,2.3,1.5,3.5,1.5
		c1.3,0,2.6-0.5,3.5-1.5l14.1-14l14.1,14c1,1,2.3,1.5,3.5,1.5c1.3,0,2.6-0.5,3.5-1.5c1.9-2,1.9-5.1,0-7.1L202.6,228.3z"/>
	<path class="st0" d="M168,192.9l-17.4-17.3c-2-1.9-5.1-1.9-7.1,0c-1.9,2-1.9,5.1,0,7.1l14,13.9l-15,14.9c-2,1.9-2,5.1,0,7.1
		c1,1,2.3,1.5,3.5,1.5c1.3,0,2.6-0.5,3.5-1.5l18.4-18.3c1-1,1.5-2.3,1.5-3.7C169.5,195.3,169.1,193.9,168,192.9z"/>
	<path class="st0" d="M144.7,196.6c0-1.3-0.5-2.7-1.5-3.7l-17.4-17.3c-2-1.9-5.1-1.9-7.1,0c-1.9,2-1.9,5.1,0,7.1l14,13.9l-15,14.9
		c-2,1.9-2,5.1,0,7.1c1,1,2.3,1.5,3.5,1.5c1.3,0,2.6-0.5,3.5-1.5l18.4-18.3C144.3,199.2,144.8,197.9,144.7,196.6z"/>
	<path class="st0" d="M202.6,253.4c-0.1-0.1-0.3-0.2-0.4-0.3c-0.1-0.1-0.2-0.2-0.4-0.3c-0.1-0.1-0.3-0.1-0.4-0.2
		c-0.2-0.1-0.3-0.2-0.5-0.3c-0.1,0-0.3-0.1-0.4-0.1c-0.2-0.1-0.4-0.1-0.5-0.2c-0.1,0-0.3,0-0.4,0c-0.2,0-0.4-0.1-0.6-0.1
		c-0.1,0-0.3,0-0.4,0c-0.2,0-0.4,0-0.5,0.1c-0.1,0-0.3,0.1-0.4,0.1c-0.2,0-0.3,0.1-0.5,0.1c-0.1,0.1-0.3,0.1-0.4,0.2
		c-0.2,0.1-0.3,0.1-0.5,0.2c-0.1,0.1-0.2,0.2-0.4,0.3c-0.1,0.1-0.3,0.2-0.4,0.3L177.9,271c-2,1.9-2,5.1,0,7.1c1,1,2.3,1.5,3.5,1.5
		c1.3,0,2.6-0.5,3.5-1.5l14.1-14l14.1,14c1,1,2.3,1.5,3.5,1.5c1.3,0,2.6-0.5,3.5-1.5c1.9-2,1.9-5.1,0-7.1L202.6,253.4z"/>
	<path class="st0" d="M282.3,175.6c-1.9-2-5.1-2-7.1,0l-18.4,18.3c-1,1-1.5,2.3-1.5,3.7c0,1.3,0.4,2.7,1.5,3.7l18.4,18.3
		c1,1,2.3,1.5,3.5,1.5c1.3,0,2.6-0.5,3.5-1.5c1.9-2,1.9-5.1,0-7.1l-15-14.9l15-14.9C284.2,180.7,284.2,177.6,282.3,175.6z"/>
	<path class="st0" d="M202.7,174.1c-0.9-0.9-2.2-1.5-3.5-1.5c-1.3,0-2.6,0.5-3.5,1.5L176.8,193c-2,2-2,5.1,0,7.1l18.9,18.9
		c1,1,2.3,1.5,3.5,1.5c1.3,0,2.6-0.5,3.5-1.5l18.9-18.9c0.9-0.9,1.5-2.2,1.5-3.5s-0.5-2.6-1.5-3.5L202.7,174.1z M199.2,208.3
		l-11.8-11.8l11.8-11.8l11.8,11.8L199.2,208.3z"/>
</g>
</svg>
