<?xml version="1.0" encoding="utf-8"?>
<!-- Generator: Adobe Illustrator 19.1.0, SVG Export Plug-In . SVG Version: 6.00 Build 0)  -->
<svg version="1.1" id="Layer_1" xmlns="http://www.w3.org/2000/svg" xmlns:xlink="http://www.w3.org/1999/xlink" x="0px" y="0px"
	 viewBox="0 0 400 400" style="enable-background:new 0 0 400 400;" xml:space="preserve">
<style type="text/css">
	.st0{fill:#231F20;}
</style>
<g>
	<path class="st0" d="M327.7,186.1c3.3-6.4,7.4-14.5,7.4-23.8c0-9.4-4.5-16-8.4-21.9c-2.5-3.8-4.9-7.3-6.3-11.5
		c-1.2-3.8-1.1-8.3-0.9-13.1c0.2-6.9,0.5-14.6-3.7-21.1c-3.4-5.2-10.2-8.3-16.7-11.2c-4.2-1.9-8.5-3.9-10.7-6
		c-2.3-2.3-4.5-6-6.8-9.8c-3.6-6-7.3-12.3-12.9-15.7c-6.9-4.2-14.8-4.5-22.5-4.8c-4.8-0.2-9.3-0.4-13.4-1.4
		c-3.5-0.9-7.3-2.9-11.4-5.1c-6.8-3.6-13.8-7.2-21.5-7.2c-8.7,0-16.6,4-24.2,7.9c-4.3,2.2-8.3,4.2-12,5.3c-3.9,1.2-8.5,1.4-13.4,1.6
		c-7.7,0.3-15.7,0.7-22.3,4.9c-5.2,3.3-8.1,9.2-10.9,14.9c-1.8,3.6-3.7,7.4-5.7,9.4c-2.2,2.2-7,4.4-11.7,6.5
		c-7.2,3.3-14.6,6.7-18.1,12.2c-4.1,6.4-3.2,13.8-2.3,20.3c0.6,4.6,1.2,9,0.1,12.5c-1.4,4.2-4,7.7-6.9,11.5
		c-4.4,5.8-9.3,12.4-9.3,21.7c0,6.4,3.9,13.9,7.6,21.2c2.3,4.4,4.6,9,5.3,11.9c0.7,3.2-0.1,7.8-1,12.4c-1.2,6.9-2.5,14,0.4,20
		c3,6.2,9.4,9.6,15.5,13c4,2.1,8,4.3,10,6.8c1.4,1.8,2.3,4.2,3.3,6.8c2.2,5.9,5.1,13.7,15.6,15.7c-2,6.4-2.8,14.3,1,24.3
		c3.2,8.5,9,11.3,13.4,12c1.1,0.2,2.3,0.3,3.5,0.3c2.2,0,4.5-0.4,6.8-1l-14.9,26.4c-1,1.7-0.8,3.9,0.3,5.4c1.2,1.6,3.2,2.3,5.1,1.9
		l16.3-3.6l2.9,19.6c0.3,2.1,1.9,3.8,4.1,4.2c0.3,0.1,0.6,0.1,0.9,0.1c1.8,0,3.5-1,4.4-2.6l37.6-68.7l39.7,72.5
		c0.9,1.6,2.6,2.6,4.4,2.6c0.3,0,0.6,0,0.9-0.1c2.1-0.4,3.8-2.1,4.1-4.2l2.9-19.6l16.3,3.6c1.9,0.4,3.9-0.3,5.1-1.9
		c1.2-1.6,1.3-3.7,0.3-5.4l-16.5-29c1.4,0.2,2.7,0.4,4.1,0.4c1.2,0,2.3-0.1,3.5-0.3c4.3-0.8,10.2-3.5,13.4-12
		c3.9-10.3,2.9-18.4,0.8-24.8c12.6-2,15.2-10.7,17.1-17.3c0.9-2.8,1.7-5.5,3.1-7.5c2.1-2.8,5.8-4.8,9.8-7c5.7-3.1,12.1-6.7,15-13.6
		c2.2-5.1,0.9-11.8-0.4-18.3c-0.8-4.1-1.7-8.8-1.2-11.2C324.3,192.8,325.9,189.6,327.7,186.1z M136.2,296.6
		c-1.7-0.3-4.1-1.2-5.8-5.7c-4.1-10.9-1-18,1.9-24.8c2-4.7,3.9-9.1,3-14.1c-1-5-2.9-9.7-4.7-14.3c-4.7-11.7-6-16.9,0-21.9
		c16.3-13.3,47.6,20.5,47.9,20.8c0.1,0.1,0.2,0.2,0.3,0.3c-1.9,4.2-3,9.7-3,15.8c0,5.9,1,11.1,2.7,15.3
		c-8.2,9.4-16.6,16.9-24.1,21.9c-0.3,0.2-0.6,0.3-0.8,0.5C146.7,295.2,140.5,297.4,136.2,296.6z M215.4,252.8
		c0,9.6-3.4,14.9-4.6,15.3h-20.2c-1.3-0.4-4.6-5.7-4.6-15.3c0-9.6,3.4-14.9,4.6-15.3l20.2,0C212,237.9,215.4,243.2,215.4,252.8z
		 M162.1,339.2l-1.5-10.1c-0.2-1.4-1-2.6-2.1-3.4c-1.1-0.8-2.6-1.1-3.9-0.8l-10.5,2.3l16.7-29.4c10.1-6.9,19.2-16.2,24.1-21.6
		c1.7,1.2,3.7,1.8,5.8,1.8h5L162.1,339.2z M260.6,331.1l-10.5-2.3c-1.4-0.3-2.8,0-3.9,0.8c-1.1,0.8-1.9,2-2.1,3.4l-1.5,10.1
		l-35.5-65h3.8c1.7,0,3.3-0.4,4.8-1.2c5.5,6.1,16.2,17,27.8,24L260.6,331.1z M270,291.4c-1.7,4.5-4.1,5.4-5.8,5.7
		c-8.9,1.6-25.7-9.6-42-28c2-4.3,3.2-10,3.2-16.4c0-6.3-1.1-11.9-3.1-16.1c4.2-4.4,32.3-32.7,47.4-20.3c6,4.9,4.7,10.2,0,21.9
		c-1.8,4.6-3.7,9.3-4.7,14.3c-0.9,4.9,1,9.4,3,14.1c0.1,0.2,0.1,0.3,0.2,0.5c0.1,0.3,0.2,0.6,0.4,0.9
		C271.4,274.4,273.8,281.3,270,291.4z M318.8,181.6c-2.1,4.1-4,7.9-4.9,11.7c-1,4.4,0,9.6,1.1,15.2c0.9,4.5,2,10.2,1,12.5
		c-1.6,3.7-6,6.2-10.7,8.8c-4.6,2.6-9.4,5.2-12.8,9.7c-2.6,3.4-3.8,7.3-4.8,10.7c-1.9,6.3-3,10.1-11.4,10.5c-1-2.5-1.7-4.6-1.5-6.1
		c0.8-4.1,2.5-8.3,4.1-12.4c4.2-10.4,9.4-23.3-3-33.4c-21.4-17.6-52.9,12.7-60.2,20.3c-1.6-0.9-3.2-1.4-5-1.4h-20.3
		c-1.9,0-3.7,0.5-5.3,1.6c-4.8-5.2-29.3-29.8-50.2-26c2.4-1.1,3.5-3.9,2.5-6.4c-3.3-8.1-5-16.8-5-25.6c0-37.2,30.3-67.4,67.4-67.4
		s67.4,30.3,67.4,67.4c0,8.4-1.5,16.6-4.5,24.3c-1,2.6,0.3,5.5,2.9,6.5c2.6,1,5.5-0.3,6.5-2.9c3.4-8.9,5.2-18.3,5.2-27.9
		c0-42.7-34.7-77.4-77.4-77.4c-42.7,0-77.4,34.7-77.4,77.4c0,10.2,1.9,20.1,5.8,29.4c0.8,1.9,2.7,3.1,4.6,3.1
		c-3,0.8-5.9,2.3-8.6,4.5c-12.3,10.1-7.1,23-3,33.4c1.7,4.1,3.4,8.4,4.1,12.4c0.3,1.6-0.5,3.9-1.7,6.6c-6.6-0.5-7.9-3.9-10-9.7
		c-1.2-3.1-2.5-6.6-4.9-9.6c-3.3-4-8.2-6.7-13.1-9.3c-4.8-2.6-9.7-5.2-11.3-8.5c-1.5-3.1-0.5-8.6,0.5-14c1-5.5,2-11.1,0.9-16.3
		c-0.9-4.2-3.5-9.1-6.2-14.4c-3.1-5.9-6.5-12.7-6.5-16.6c0-6,3.4-10.5,7.3-15.7c3.2-4.3,6.5-8.7,8.4-14.4c1.8-5.7,1-11.6,0.3-16.9
		c-0.7-5.5-1.4-10.2,0.7-13.5c2-3,8.3-5.9,13.9-8.5c5.7-2.6,11-5.1,14.5-8.4c3.3-3.2,5.5-7.8,7.7-12.2c2.2-4.5,4.5-9.1,7.3-10.9
		c4.3-2.8,10.7-3,17.3-3.3c5.3-0.2,10.7-0.5,15.8-2c4.6-1.4,9.3-3.7,13.7-6c6.6-3.4,13.4-6.8,19.6-6.8c5.3,0,11.2,3.1,16.9,6.1
		c4.3,2.3,8.8,4.6,13.4,5.9c5.1,1.4,10.4,1.6,15.6,1.8c6.7,0.3,13.1,0.5,17.7,3.3c3.5,2.1,6.5,7.3,9.5,12.2
		c2.5,4.3,5.2,8.7,8.4,11.9c3.4,3.3,8.3,5.5,13.5,7.9c5,2.3,10.7,4.9,12.5,7.7c2.5,3.8,2.3,9.3,2.1,15.2c-0.2,5.5-0.4,11.1,1.4,16.6
		c1.8,5.5,4.7,9.8,7.5,13.9c3.6,5.4,6.7,10,6.7,16.3C325.1,169.2,321.9,175.5,318.8,181.6z"/>
	<path class="st0" d="M296.3,179.6c-8.1-1.5-15.9,3.9-17.4,12.1c-0.7,3.9,0.2,7.9,2.4,11.2c2.3,3.3,5.7,5.5,9.6,6.2
		c0.9,0.2,1.8,0.2,2.7,0.2c3,0,6-0.9,8.5-2.7c3.3-2.3,5.5-5.7,6.2-9.6h0C309.8,188.9,304.4,181.1,296.3,179.6z M298.5,195.2
		c-0.2,1.3-1,2.4-2.1,3.2c-1.1,0.8-2.4,1-3.7,0.8c-1.3-0.2-2.4-1-3.2-2.1c-0.8-1.1-1-2.4-0.8-3.7c0.4-2.4,2.5-4.1,4.9-4.1
		c0.3,0,0.6,0,0.9,0.1C297.2,189.9,299,192.5,298.5,195.2z"/>
	<path class="st0" d="M286.5,143.4c3,0,6-0.9,8.5-2.7c3.3-2.3,5.5-5.7,6.2-9.6c0.7-3.9-0.2-7.9-2.4-11.2c-2.3-3.3-5.7-5.5-9.6-6.2
		c-3.9-0.7-7.9,0.2-11.2,2.4c-3.3,2.3-5.5,5.7-6.2,9.6c-0.7,3.9,0.2,7.9,2.4,11.2c2.3,3.3,5.7,5.5,9.6,6.2
		C284.7,143.3,285.6,143.4,286.5,143.4z M282.4,131.3c-0.8-1.1-1-2.4-0.8-3.7c0.2-1.3,1-2.4,2.1-3.2c0.8-0.6,1.8-0.9,2.8-0.9
		c0.3,0,0.6,0,0.9,0.1c1.3,0.2,2.4,1,3.2,2.1c0.8,1.1,1,2.4,0.8,3.7h0c-0.2,1.3-1,2.4-2.1,3.2c-1.1,0.8-2.4,1-3.7,0.8
		C284.3,133.1,283.2,132.4,282.4,131.3z"/>
	<path class="st0" d="M241.4,66.5c-8.1-1.5-15.9,3.9-17.4,12.1c-0.7,3.9,0.2,7.9,2.4,11.2c2.3,3.3,5.7,5.5,9.6,6.2
		c0.9,0.2,1.8,0.2,2.7,0.2c3,0,6-0.9,8.5-2.7c3.3-2.3,5.5-5.7,6.2-9.6h0C255,75.7,249.6,67.9,241.4,66.5z M243.7,82.1
		c-0.2,1.3-1,2.4-2.1,3.2c-1.1,0.8-2.4,1-3.7,0.8c-1.3-0.2-2.4-1-3.2-2.1c-0.8-1.1-1-2.4-0.8-3.7c0.4-2.4,2.5-4.1,4.9-4.1
		c0.3,0,0.6,0,0.9,0.1C242.4,76.8,244.2,79.4,243.7,82.1z"/>
	<path class="st0" d="M177.5,70.5c-2.3-3.3-5.7-5.5-9.6-6.2c-3.9-0.7-7.9,0.2-11.2,2.4c-3.3,2.3-5.5,5.7-6.2,9.6
		c-0.7,3.9,0.2,7.9,2.4,11.2c2.3,3.3,5.7,5.5,9.6,6.2c0.9,0.2,1.8,0.2,2.7,0.2c7.1,0,13.4-5.1,14.7-12.3h0
		C180.6,77.7,179.8,73.8,177.5,70.5z M170.1,79.9C170.1,79.9,170.1,79.9,170.1,79.9c-0.5,2.7-3.1,4.5-5.8,4c-1.3-0.2-2.4-1-3.2-2.1
		c-0.8-1.1-1-2.4-0.8-3.7c0.2-1.3,1-2.4,2.1-3.2c0.8-0.6,1.8-0.9,2.8-0.9c0.3,0,0.6,0,0.9,0.1c1.3,0.2,2.4,1,3.2,2.1
		C170,77.3,170.3,78.6,170.1,79.9z"/>
	<path class="st0" d="M124.6,118.3c-2.3-3.3-5.7-5.5-9.6-6.2c-8.1-1.5-15.9,3.9-17.4,12.1c-0.7,3.9,0.2,7.9,2.4,11.2
		c2.3,3.3,5.7,5.5,9.6,6.2c0.9,0.2,1.8,0.2,2.7,0.2c7.1,0,13.4-5.1,14.7-12.3h0C127.7,125.6,126.9,121.6,124.6,118.3z M117.2,127.7
		L117.2,127.7c-0.5,2.7-3.1,4.5-5.8,4c-1.3-0.2-2.4-1-3.2-2.1c-0.8-1.1-1-2.4-0.8-3.7c0.4-2.4,2.5-4.1,4.9-4.1c0.3,0,0.6,0,0.9,0.1
		c1.3,0.2,2.4,1,3.2,2.1C117.1,125.1,117.4,126.4,117.2,127.7z"/>
	<path class="st0" d="M109.3,181.7c-8.1-1.5-15.9,3.9-17.4,12.1c-0.7,3.9,0.2,7.9,2.4,11.2c2.3,3.3,5.7,5.5,9.6,6.2
		c0.9,0.2,1.8,0.2,2.7,0.2c3,0,6-0.9,8.5-2.7c3.3-2.3,5.5-5.7,6.2-9.6c0,0,0,0,0,0C122.9,191,117.4,183.2,109.3,181.7z M111.5,197.3
		c-0.2,1.3-1,2.4-2.1,3.2c-1.1,0.8-2.4,1-3.7,0.8c-1.3-0.2-2.4-1-3.2-2.1c-0.8-1.1-1-2.4-0.8-3.7c0.4-2.4,2.5-4.1,4.9-4.1
		c0.3,0,0.6,0,0.9,0.1C110.2,192,112,194.6,111.5,197.3z"/>
	<path class="st0" d="M135.6,218.7c-13.1,5.3,39.1,20.2,39.1,20.2S148.8,213.4,135.6,218.7z"/>
	<path class="st0" d="M264.8,219.2c-13.1-5.3-39.1,20.2-39.1,20.2S277.9,224.5,264.8,219.2z"/>
</g>
</svg>
