<?xml version="1.0" encoding="utf-8"?>
<!-- Generator: Adobe Illustrator 19.1.0, SVG Export Plug-In . SVG Version: 6.00 Build 0)  -->
<svg version="1.1" id="Layer_1" xmlns="http://www.w3.org/2000/svg" xmlns:xlink="http://www.w3.org/1999/xlink" x="0px" y="0px"
	 viewBox="0 0 400 400" style="enable-background:new 0 0 400 400;" xml:space="preserve">
<style type="text/css">
	.st0{fill:#231F20;}
</style>
<g>
	<path class="st0" d="M230.3,232.5c-3.8-7.2-10.2-12.5-18-14.9c-7.8-2.4-16.1-1.6-23.3,2.2c-7.2,3.8-12.5,10.2-14.9,18
		c-4.9,16.1,4.2,33.2,20.3,38.1c2.9,0.9,6,1.3,9,1.3c4.9,0,9.8-1.2,14.3-3.6c7.2-3.8,12.5-10.2,14.9-18
		C234.9,248,234.1,239.7,230.3,232.5z M223,252.8c-3.3,10.8-14.8,17-25.6,13.6c-10.8-3.3-17-14.8-13.6-25.6c1.6-5.2,5.2-9.6,10-12.1
		c3-1.6,6.3-2.4,9.6-2.4c2,0,4,0.3,6,0.9c5.2,1.6,9.6,5.2,12.1,10C224.1,242,224.6,247.6,223,252.8z"/>
	<path class="st0" d="M207.9,235.3c-2.2,1.6-2.7,4.8-1.1,7c0.7,0.9,3.8,5.7-1.2,10c-2.1,1.8-2.4,4.9-0.6,7c1,1.2,2.4,1.8,3.8,1.8
		c1.1,0,2.3-0.4,3.2-1.2c9.2-7.7,6.7-18.3,2.8-23.6C213.3,234.2,210.2,233.7,207.9,235.3z"/>
	<path class="st0" d="M201.6,309.6c-2.6-1-5.5,0.2-6.5,2.7c-0.8,1.9-1.4,3.7-1.8,5.3c-5.9-0.9-11.2-0.1-15.9,2.6
		c-4.6,2.7-7.7,6.7-9.7,10.3c-6.8-5.7-15.8-7.1-22.1-7.2c2.6-10,1.7-17.8,0.2-23.1c4.3-0.6,9.6-2.1,14.1-5.8c4.1-3.5,6.8-8.2,7.9-14
		c2.7,0.2,6.2,0.3,9.8-0.3c2.7-0.4,4.6-3,4.2-5.7c-0.4-2.7-3-4.6-5.7-4.2c-5.9,0.9-11.5-0.4-11.5-0.4c-1.5-0.4-3,0-4.2,0.9
		c-1.2,0.9-1.9,2.3-2,3.8c-0.2,5.5-1.8,9.6-4.9,12.2c-5.5,4.7-14.3,3.7-14.4,3.7c-2-0.3-3.9,0.6-5,2.3c-1,1.7-1,3.8,0.1,5.4
		c0.3,0.4,6.8,10.6-0.3,28.7c-0.7,1.7-0.4,3.6,0.8,5c1.1,1.4,2.9,2.1,4.7,1.8c0.2,0,18.8-2.9,25.4,8.9c0.9,1.6,2.6,2.6,4.4,2.6
		c0.2,0,0.5,0,0.7-0.1c2.1-0.3,3.7-1.9,4.1-3.9c0-0.1,2-8.6,8.3-12.2c3.5-2,7.9-2.2,13.2-0.4c1.4,0.5,3,0.3,4.3-0.6
		c1.3-0.8,2.1-2.2,2.3-3.7c0,0,0.5-3.9,2.2-8.1C205.4,313.6,204.2,310.7,201.6,309.6z"/>
	<path class="st0" d="M280.3,302.1c-0.1,0-8.9-1-13.2-6.8c-2.4-3.2-3.1-7.6-2-13c0.3-1.5-0.1-3-1.1-4.2c-1-1.1-2.4-1.8-3.9-1.8
		c0,0,0,0,0,0c-0.5,0-17.9-0.1-20.6-12.1c-0.6-2.7-3.3-4.4-6-3.8c-2.7,0.6-4.4,3.3-3.8,6c1.9,8.4,8,14.5,17.5,17.7
		c2.7,0.9,5.2,1.4,7.4,1.7c-0.2,6,1.3,11.1,4.5,15.5c3.2,4.3,7.6,6.9,11.4,8.4c-4.8,7.5-5.1,16.5-4.5,22.8
		c-10.2-1.3-17.9,0.5-22.9,2.6c-1.1-4.2-3.2-9.3-7.5-13.3c-3.9-3.7-8.9-5.7-14.9-6.1c-0.2-5.7-1.6-14.5-7.5-20.8
		c-4.9-5.3-11.8-7.8-20.5-7.4c-0.9,0-1.7,0.3-2.4,0.7l-28.1,17.5c-2.3,1.5-3.1,4.5-1.6,6.9c1.5,2.3,4.5,3.1,6.9,1.6l27-16.8
		c0,0,0.1,0,0.1,0c5,0,8.7,1.4,11.3,4.2c6,6.4,4.7,18.4,4.7,18.5c-0.2,1.5,0.3,3,1.4,4.1c1,1.1,2.5,1.6,4,1.5
		c5.5-0.5,9.8,0.6,12.7,3.4c5.4,4.9,5.4,13.8,5.4,13.8c0,2,1.1,3.8,2.9,4.6c0.7,0.3,1.4,0.5,2.1,0.5c1.2,0,2.4-0.4,3.3-1.2
		c0.4-0.3,9.8-8,28.5-3.1c1.7,0.4,3.6-0.1,4.8-1.4c1.3-1.3,1.7-3.2,1.2-4.9c-0.1-0.2-5.1-18.3,5.7-26.3c1.7-1.2,2.4-3.4,1.9-5.3
		C284.1,303.8,282.4,302.3,280.3,302.1z"/>
	<path class="st0" d="M221.1,281.1c-2,1.9-2.1,5-0.3,7.1l31.3,33.7c1,1.1,2.3,1.6,3.7,1.6c1.2,0,2.4-0.4,3.4-1.3
		c2-1.9,2.1-5,0.3-7.1l-31.3-33.7C226.3,279.3,223.2,279.2,221.1,281.1z"/>
	<path class="st0" d="M252.4,261c-0.7,0.4-1.3,0.9-2,1.3c-2.3,1.5-3,4.6-1.4,6.9c1,1.5,2.6,2.3,4.2,2.3c0.9,0,1.9-0.3,2.7-0.8
		c0.7-0.5,1.5-1,2.2-1.5c2.3-1.6,2.8-4.7,1.3-7C257.7,260,254.6,259.4,252.4,261z"/>
	<path class="st0" d="M256.9,110.8c1.3,1,2.5,2,3.7,3.1c0.9,0.8,2.1,1.2,3.3,1.2c1.4,0,2.8-0.6,3.8-1.7c1.8-2.1,1.6-5.2-0.5-7.1
		c-1.3-1.2-2.7-2.3-4.1-3.4c-2.2-1.7-5.3-1.3-7,0.8C254.3,105.9,254.7,109.1,256.9,110.8z"/>
	<path class="st0" d="M222.3,93.8c0.4,0.1,0.8,0.2,1.2,0.2c2.2,0,4.3-1.5,4.8-3.8c0.7-2.7-0.9-5.4-3.6-6.1c-1.7-0.4-3.5-0.8-5.2-1.2
		c-2.7-0.5-5.3,1.2-5.9,3.9c-0.5,2.7,1.2,5.3,3.9,5.9C219.2,93,220.8,93.4,222.3,93.8z"/>
	<path class="st0" d="M136.5,115.3c1.2-1.1,2.4-2.2,3.7-3.2c2.1-1.8,2.4-4.9,0.7-7c-1.8-2.1-4.9-2.4-7-0.7c-1.4,1.1-2.7,2.3-4.1,3.5
		c-2,1.9-2.2,5-0.3,7.1c1,1.1,2.3,1.6,3.7,1.6C134.3,116.6,135.6,116.1,136.5,115.3z"/>
	<path class="st0" d="M292.9,140.4c-1.2-2.5-4.1-3.6-6.6-2.4c-2.5,1.2-3.6,4.2-2.4,6.7c0.7,1.5,1.3,3,1.9,4.5
		c0.8,1.9,2.7,3.1,4.6,3.1c0.6,0,1.3-0.1,1.9-0.4c2.6-1,3.8-4,2.7-6.5C294.4,143.7,293.7,142,292.9,140.4z"/>
	<path class="st0" d="M173,94.5c0.4,0,0.9-0.1,1.3-0.2c1.5-0.4,3.1-0.8,4.7-1.2c2.7-0.6,4.4-3.3,3.8-6c-0.6-2.7-3.3-4.4-6-3.8
		c-1.7,0.4-3.5,0.8-5.2,1.3c-2.7,0.7-4.2,3.5-3.5,6.2C168.8,93.1,170.8,94.5,173,94.5z"/>
	<path class="st0" d="M112.5,240.1c1,1.5,2.6,2.3,4.2,2.3c0.9,0,1.9-0.3,2.7-0.8c2.3-1.5,3-4.6,1.5-6.9c-0.9-1.4-1.7-2.8-2.5-4.1
		c-1.4-2.4-4.4-3.2-6.8-1.8c-2.4,1.4-3.2,4.4-1.8,6.8C110.6,237.1,111.5,238.6,112.5,240.1z"/>
	<path class="st0" d="M292.3,191.9c-0.2,2.8,1.8,5.2,4.6,5.4c0.1,0,0.3,0,0.4,0c2.6,0,4.8-2,5-4.6c0.1-1.8,0.2-3.6,0.3-5.4
		c0.1-2.8-2.1-5.1-4.8-5.1c-0.1,0-0.1,0-0.2,0c-2.7,0-4.9,2.1-5,4.9C292.5,188.6,292.4,190.3,292.3,191.9z"/>
	<path class="st0" d="M100.9,184.3c-2.8,0.1-4.9,2.5-4.7,5.2c0.1,1.8,0.2,3.6,0.4,5.4c0.3,2.6,2.4,4.5,5,4.5c0.2,0,0.3,0,0.5,0
		c2.7-0.3,4.7-2.7,4.5-5.5c-0.2-1.6-0.3-3.2-0.4-4.8C106.1,186.3,103.7,184.2,100.9,184.3z"/>
	<path class="st0" d="M112.2,151c0.6-1.5,1.2-3,1.8-4.5c1.1-2.5,0-5.5-2.6-6.6c-2.5-1.1-5.5,0-6.6,2.6c-0.7,1.6-1.4,3.3-2,5
		c-1,2.6,0.3,5.5,2.9,6.5c0.6,0.2,1.2,0.3,1.8,0.3C109.5,154.2,111.4,153,112.2,151z"/>
	<path class="st0" d="M281.3,228.8c-0.8,1.4-1.6,2.8-2.4,4.2c-1.4,2.4-0.7,5.4,1.6,6.9c0.8,0.5,1.7,0.7,2.6,0.7
		c1.7,0,3.3-0.8,4.3-2.4c0.9-1.5,1.8-3.1,2.7-4.6c1.3-2.4,0.4-5.5-2-6.8C285.7,225.5,282.6,226.4,281.3,228.8z"/>
	<path class="st0" d="M148.2,262.2c-2.3-1.5-5.4-0.9-6.9,1.4c-1.5,2.3-0.9,5.4,1.4,6.9c0.7,0.5,1.5,1,2.2,1.4
		c0.8,0.5,1.7,0.8,2.6,0.8c1.7,0,3.3-0.8,4.3-2.4c1.5-2.3,0.7-5.4-1.6-6.9C149.5,263.1,148.8,262.6,148.2,262.2z"/>
	<path class="st0" d="M159.9,254.1c0.8,0.5,1.7,0.8,2.6,0.8c1.7,0,3.3-0.8,4.3-2.4c1.5-2.3,0.7-5.4-1.6-6.9
		c-20-12.4-31.9-33.8-31.9-57.3c0-37.2,30.3-67.4,67.4-67.4s67.4,30.3,67.4,67.4c0,19.4-8.4,38-23.1,50.8c-2.1,1.8-2.3,5-0.5,7.1
		c1.8,2.1,5,2.3,7.1,0.5c16.8-14.7,26.5-36,26.5-58.3c0-42.7-34.7-77.4-77.4-77.4c-42.7,0-77.4,34.7-77.4,77.4
		C123.3,215.2,137,239.8,159.9,254.1z"/>
	<path class="st0" d="M328.5,203.1c3.3-6.4,7.4-14.5,7.4-23.8c0-9.4-4.5-16-8.4-21.9c-2.5-3.8-4.9-7.3-6.3-11.5
		c-1.2-3.8-1.1-8.3-0.9-13.1c0.2-6.9,0.5-14.6-3.7-21.1c-3.4-5.2-10.2-8.3-16.7-11.2c-4.2-1.9-8.5-3.9-10.7-6
		c-2.3-2.3-4.5-6-6.8-9.8c-3.6-6-7.3-12.3-12.9-15.7c-6.9-4.2-14.8-4.5-22.5-4.8c-4.8-0.2-9.3-0.4-13.4-1.4
		c-3.5-0.9-7.3-2.9-11.4-5.1c-6.8-3.6-13.8-7.2-21.5-7.2c-8.7,0-16.6,4-24.2,7.9c-4.3,2.2-8.3,4.2-12,5.3c-3.9,1.2-8.5,1.4-13.4,1.6
		c-7.7,0.3-15.7,0.7-22.3,4.9c-5.2,3.3-8.1,9.2-10.9,14.9c-1.8,3.6-3.7,7.4-5.7,9.4c-2.2,2.2-7,4.4-11.7,6.5
		c-7.2,3.3-14.6,6.7-18.1,12.2c-4.1,6.4-3.2,13.8-2.3,20.3c0.6,4.6,1.2,9,0.1,12.5c-1.4,4.2-4,7.7-6.9,11.5
		c-4.4,5.8-9.3,12.4-9.3,21.7c0,6.4,3.9,13.9,7.6,21.2c2.3,4.4,4.6,9,5.3,11.9c0.7,3.2-0.1,7.8-1,12.4c-1.2,6.9-2.5,14,0.4,20
		c3,6.2,9.4,9.6,15.5,13c4,2.1,8,4.3,10,6.8c1.3,1.6,2.1,5,3,8.2c1.6,6.1,3.3,12.9,9.4,15.8c1.7,0.8,3.5,1.2,5.4,1.2
		c3,0,6.3-0.9,10-2.6c2.5-1.2,3.6-4.2,2.4-6.7c-1.2-2.5-4.2-3.6-6.7-2.4c-4.5,2.1-6.4,1.7-7,1.5c-1.8-0.9-3-5.5-4-9.2
		c-1.1-4.3-2.2-8.7-4.9-12c-3.3-4-8.2-6.7-13.1-9.3c-4.8-2.6-9.7-5.2-11.3-8.5c-1.5-3.1-0.5-8.6,0.5-14c1-5.5,2-11.1,0.9-16.3
		c-0.9-4.2-3.5-9.1-6.2-14.4c-3.1-5.9-6.5-12.7-6.5-16.6c0-6,3.4-10.5,7.3-15.7c3.2-4.3,6.5-8.7,8.4-14.4c1.8-5.7,1-11.6,0.3-16.9
		c-0.7-5.5-1.4-10.2,0.7-13.5c2-3,8.3-5.9,13.9-8.5c5.7-2.6,11-5.1,14.5-8.4c3.3-3.2,5.5-7.8,7.7-12.2c2.2-4.5,4.5-9.1,7.3-10.9
		c4.3-2.8,10.7-3,17.3-3.3c5.3-0.2,10.7-0.5,15.8-2c4.6-1.4,9.3-3.7,13.7-6c6.6-3.4,13.4-6.8,19.6-6.8c5.3,0,11.2,3.1,16.9,6.1
		c4.3,2.3,8.8,4.6,13.4,5.9c5.1,1.4,10.4,1.6,15.6,1.8c6.7,0.3,13.1,0.5,17.7,3.3c3.5,2.1,6.5,7.3,9.5,12.2
		c2.5,4.3,5.2,8.7,8.4,11.9c3.4,3.3,8.3,5.5,13.5,7.9c5,2.3,10.7,4.9,12.5,7.7c2.5,3.8,2.3,9.3,2.1,15.2c-0.2,5.5-0.4,11.1,1.4,16.6
		c1.8,5.5,4.7,9.8,7.5,13.9c3.6,5.4,6.7,10,6.7,16.3c0,6.9-3.2,13.1-6.3,19.2c-2.1,4.1-4,7.9-4.9,11.7c-1,4.4,0,9.6,1.1,15.2
		c0.9,4.5,2,10.2,1,12.5c-1.6,3.7-6,6.2-10.7,8.8c-4.6,2.6-9.4,5.2-12.8,9.7c-2.8,3.6-3.7,8.2-4.5,12.3c-0.8,3.9-1.5,7.6-3.6,9
		c-1.8,1.2-5.4,1.2-10.2,0.1c-2.7-0.6-5.4,1.1-6,3.8c-0.6,2.7,1.1,5.4,3.8,6c7.8,1.8,13.6,1.3,17.9-1.5c5.6-3.6,6.9-10.2,8-15.4
		c0.7-3.3,1.3-6.4,2.6-8.1c2.1-2.8,5.8-4.8,9.8-7c5.7-3.1,12.1-6.7,15-13.6c2.2-5.1,0.9-11.8-0.4-18.3c-0.8-4.1-1.7-8.8-1.2-11.2
		C325,209.8,326.7,206.6,328.5,203.1z"/>
</g>
</svg>
