<?xml version="1.0" encoding="utf-8"?>
<!-- Generator: Adobe Illustrator 19.1.0, SVG Export Plug-In . SVG Version: 6.00 Build 0)  -->
<svg version="1.1" id="Layer_1" xmlns="http://www.w3.org/2000/svg" xmlns:xlink="http://www.w3.org/1999/xlink" x="0px" y="0px"
	 viewBox="0 0 400 400" style="enable-background:new 0 0 400 400;" xml:space="preserve">
<style type="text/css">
	.st0{fill:#231F20;}
</style>
<g>
	<path class="st0" d="M200,38C130.1,38,73.3,94.8,73.3,164.7c0,34.5,13.6,66.7,38.3,90.8c1,0.9,2.2,1.4,3.5,1.4
		c1.3,0,2.6-0.5,3.6-1.5c1.9-2,1.9-5.1-0.1-7.1c-22.8-22.2-35.3-51.8-35.3-83.6C83.3,100.4,135.6,48,200,48
		c64.3,0,116.7,52.3,116.7,116.7c0,29.7-11.2,58-31.4,79.6c-1.9,2-1.8,5.2,0.2,7.1c2,1.9,5.2,1.8,7.1-0.2
		c22-23.5,34.1-54.2,34.1-86.5C326.7,94.8,269.8,38,200,38z"/>
	<path class="st0" d="M128.3,196.9c0.8,1.9,2.7,3.1,4.6,3.1c0.6,0,1.3-0.1,1.9-0.4c2.6-1,3.8-4,2.7-6.5c-3.3-8.1-5-16.8-5-25.6
		c0-37.2,30.3-67.4,67.4-67.4c37.2,0,67.4,30.3,67.4,67.4c0,8.4-1.5,16.6-4.5,24.3c-1,2.6,0.3,5.5,2.9,6.5c2.6,1,5.5-0.3,6.5-2.9
		c3.4-8.9,5.2-18.3,5.2-27.9c0-42.7-34.7-77.4-77.4-77.4c-42.7,0-77.4,34.7-77.4,77.4C122.5,177.6,124.5,187.5,128.3,196.9z"/>
	<path class="st0" d="M297.5,185.9c2.7,0.5,5.3-1.3,5.8-4c0.5-2.7-1.3-5.3-4-5.8c-8.1-1.5-15.9,3.9-17.4,12.1
		c-0.7,3.9,0.2,7.9,2.4,11.2c2.3,3.3,5.7,5.5,9.6,6.2c0.3,0.1,0.6,0.1,0.9,0.1c2.4,0,4.5-1.7,4.9-4.1c0.5-2.7-1.3-5.3-4-5.8
		c-1.3-0.2-2.4-1-3.2-2.1c-0.8-1.1-1-2.4-0.8-3.7C292.2,187.2,294.8,185.4,297.5,185.9z"/>
	<path class="st0" d="M285.9,116.3c2.5-1.2,3.5-4.2,2.3-6.7c-1.2-2.5-4.2-3.5-6.7-2.3c-3.6,1.8-6.3,4.8-7.6,8.6
		c-1.3,3.8-1,7.8,0.7,11.4c2.6,5.3,7.9,8.4,13.5,8.4c2.2,0,4.4-0.5,6.5-1.5c2.5-1.2,3.5-4.2,2.3-6.7c-1.2-2.5-4.2-3.5-6.7-2.3
		c-2.5,1.2-5.4,0.2-6.6-2.3C282.4,120.5,283.4,117.5,285.9,116.3z"/>
	<path class="st0" d="M227.5,64.2c-2.6-0.9-5.4,0.6-6.3,3.2c-1.2,3.8-0.9,7.9,0.9,11.4c1.8,3.6,4.9,6.2,8.7,7.4
		c1.5,0.5,3.1,0.7,4.6,0.7c6.3,0,12.2-4,14.2-10.3c0.9-2.6-0.6-5.4-3.2-6.3c-2.6-0.9-5.4,0.6-6.3,3.2c-0.8,2.6-3.7,4-6.3,3.2
		c-1.3-0.4-2.3-1.3-2.9-2.5c-0.6-1.2-0.7-2.5-0.3-3.8C231.6,67.8,230.1,65,227.5,64.2z"/>
	<path class="st0" d="M169.1,76.3c-2.4,1.3-5.4,0.5-6.8-1.9c-1.3-2.4-4.4-3.3-6.8-1.9c-2.4,1.3-3.3,4.4-1.9,6.8
		c2.7,4.9,7.8,7.7,13.1,7.7c2.5,0,5-0.6,7.3-1.9c7.2-4,9.8-13.2,5.8-20.4c-1.3-2.4-4.4-3.3-6.8-1.9c-2.4,1.3-3.3,4.4-1.9,6.8
		C172.3,72,171.5,75,169.1,76.3z"/>
	<path class="st0" d="M107.8,127c-2.6-1-5.5,0.3-6.5,2.9c-1,2.6,0.3,5.5,2.9,6.5c1.8,0.7,3.6,1,5.4,1c6,0,11.7-3.6,14-9.6
		c3-7.7-0.9-16.4-8.6-19.4c-2.6-1-5.5,0.3-6.5,2.9c-1,2.6,0.3,5.5,2.9,6.5c2.6,1,3.8,3.9,2.8,6.4C113.2,126.7,110.3,128,107.8,127z"
		/>
	<path class="st0" d="M106,199.8c-2.7,0.7-4.3,3.4-3.6,6.1c0.6,2.2,2.6,3.7,4.8,3.7c0.4,0,0.8-0.1,1.3-0.2
		c8-2.1,12.8-10.3,10.7-18.3c-1-3.9-3.5-7.1-6.9-9.1c-3.5-2-7.5-2.6-11.3-1.6c-2.7,0.7-4.3,3.4-3.6,6.1c0.7,2.7,3.4,4.3,6.1,3.6
		c1.3-0.3,2.6-0.2,3.8,0.5c1.1,0.7,2,1.7,2.3,3C110.3,196.4,108.7,199.1,106,199.8z"/>
	<circle class="st0" cx="296.2" cy="156.8" r="3.8"/>
	<circle class="st0" cx="260.1" cy="92.8" r="3.8"/>
	<circle class="st0" cx="202.6" cy="70.9" r="3.8"/>
	<circle class="st0" cx="135.4" cy="93.8" r="3.8"/>
	<circle class="st0" cx="102.2" cy="156.8" r="3.8"/>
	<path class="st0" d="M138.6,215.7c-13.1,5.3,39.1,20.2,39.1,20.2S151.7,210.4,138.6,215.7z"/>
	<path class="st0" d="M277.8,251.4c0.8-4.1,2.5-8.3,4.1-12.4c4.2-10.4,9.4-23.3-3-33.4c-21.4-17.6-52.9,12.7-60.2,20.3
		c-1.6-0.9-3.2-1.4-5-1.4h-20.3c-1.9,0-3.7,0.5-5.3,1.6c-5.7-6.1-38.7-39.2-60.9-21c-12.3,10.1-7.1,23-3,33.4
		c1.7,4.1,3.4,8.4,4.1,12.4c0.4,1.9-0.9,4.8-2.4,8.2c-3.2,7.5-7.6,17.7-2.1,32.3c3.2,8.5,9,11.3,13.4,12c1.1,0.2,2.3,0.3,3.5,0.3
		c2.2,0,4.5-0.4,6.8-1l-14.9,26.4c-1,1.7-0.8,3.9,0.3,5.4c1.2,1.6,3.2,2.3,5.1,1.9l16.3-3.6l2.9,19.6c0.3,2.1,1.9,3.8,4.1,4.2
		c0.3,0.1,0.6,0.1,0.9,0.1c1.8,0,3.5-1,4.4-2.6l37.6-68.7l39.7,72.5c0.9,1.6,2.6,2.6,4.4,2.6c0.3,0,0.6,0,0.9-0.1
		c2.1-0.4,3.8-2.1,4.1-4.2l2.9-19.6l16.3,3.6c1.9,0.4,3.9-0.3,5.1-1.9c1.2-1.6,1.3-3.7,0.3-5.4l-16.5-29c1.4,0.2,2.7,0.4,4.1,0.4
		c1.2,0,2.3-0.1,3.5-0.3c4.3-0.8,10.2-3.5,13.4-12c5.5-14.6,1.1-24.9-2.1-32.3C278.7,256.3,277.5,253.3,277.8,251.4z M193.5,234.5
		l20.2,0c1.3,0.4,4.7,5.7,4.7,15.3c0,9.6-3.4,14.9-4.6,15.3h-20.2c-1.3-0.4-4.6-5.7-4.6-15.3C188.9,240.2,192.3,234.9,193.5,234.5z
		 M139.2,293.6c-1.7-0.3-4.1-1.2-5.8-5.7c-4.1-10.9-1-18,1.9-24.8c2-4.7,3.9-9.1,3-14.1c-1-5-2.9-9.7-4.7-14.3
		c-4.7-11.7-6-16.9,0-21.9c16.3-13.3,47.6,20.5,47.9,20.8c0.1,0.1,0.2,0.2,0.3,0.3c-1.9,4.2-3,9.7-3,15.8c0,5.9,1,11.1,2.7,15.3
		c-8.2,9.4-16.6,16.9-24.1,21.9c-0.3,0.1-0.6,0.3-0.8,0.5C149.7,292.2,143.5,294.4,139.2,293.6z M165.1,336.2l-1.5-10.1
		c-0.2-1.4-1-2.6-2.1-3.4c-1.1-0.8-2.6-1.1-3.9-0.8l-10.5,2.3l16.7-29.4c10.1-6.9,19.2-16.2,24.1-21.6c1.7,1.2,3.7,1.8,5.8,1.8h5
		L165.1,336.2z M263.6,328.1l-10.5-2.3c-1.4-0.3-2.8,0-3.9,0.8c-1.1,0.8-1.9,2-2.1,3.4l-1.5,10.1l-35.5-65h3.8
		c1.7,0,3.3-0.4,4.8-1.2c5.5,6.1,16.2,17,27.8,24L263.6,328.1z M271,263.6c3,6.9,6,14,1.9,24.8c-1.7,4.5-4.1,5.4-5.8,5.7
		c-8.9,1.6-25.7-9.6-42-28c2-4.3,3.2-10,3.2-16.4c0-6.3-1.1-11.9-3.1-16.1c4.2-4.4,32.3-32.7,47.4-20.3c6,4.9,4.7,10.2,0,21.9
		c-1.8,4.6-3.7,9.3-4.7,14.3C267.1,254.5,269,258.9,271,263.6z"/>
	<path class="st0" d="M267.7,216.2c-13.1-5.3-39.1,20.2-39.1,20.2S280.9,221.5,267.7,216.2z"/>
</g>
</svg>
