<?xml version="1.0" encoding="utf-8"?>
<!-- Generator: Adobe Illustrator 19.1.0, SVG Export Plug-In . SVG Version: 6.00 Build 0)  -->
<svg version="1.1" id="Layer_1" xmlns="http://www.w3.org/2000/svg" xmlns:xlink="http://www.w3.org/1999/xlink" x="0px" y="0px"
	 viewBox="0 0 400 400" style="enable-background:new 0 0 400 400;" xml:space="preserve">
<style type="text/css">
	.st0{fill:#231F20;}
</style>
<g>
	<path class="st0" d="M276.1,245.6c0-2.2-1.4-4.1-3.4-4.7c-0.8-0.3-20.5-7.6-20.7-50.7c-0.1-19.3-5.9-35.5-16.7-47
		c-4.2-4.5-9-8.1-14.3-10.7c0.1-0.4,0.2-0.8,0.1-1.2c0-5.6-2.3-10.9-6.2-14.8c-4-3.9-9.3-6.1-14.9-6c-11.5,0.1-20.7,9.4-20.8,20.8
		c-6.4,2.8-12.3,6.9-17.2,12.3c-10.6,11.6-16.1,27.9-16,47.2c0.3,43-19.1,50.6-20.1,51c-2,0.7-3.4,2.6-3.4,4.8l0.1,20
		c0,2.8,2.3,5,5,5c0,0,0,0,0,0l51.9-0.3c2.1,9.3,10.5,16.3,20.4,16.3c0.1,0,0.2,0,0.3,0c9.9-0.2,18.1-7.2,20.2-16.6l50.8-0.3
		c1.3,0,2.6-0.5,3.5-1.5c0.9-0.9,1.5-2.2,1.4-3.5L276.1,245.6z M192.3,123.8c2.1-2.1,4.8-3.2,7.7-3.3c2.9-0.1,5.7,1.1,7.8,3.2
		c1.4,1.4,2.4,3.2,2.9,5.1c-4-1-8.1-1.5-12.3-1.5c-3,0-5.9,0.3-8.8,0.8C190.2,126.5,191.1,125,192.3,123.8z M200.2,277.6
		c-4.5,0.1-8.4-2.5-10.1-6.4l20-0.1C208.4,274.8,204.6,277.5,200.2,277.6z M132.7,261.6l-0.1-11.9c7.3-4.3,23.7-18.4,23.4-58.9
		c-0.2-36.6,21.9-53.4,42.5-53.5c0.1,0,0.2,0,0.3,0c20.7,0,42.9,16.5,43.2,53c0.2,26.3,7.2,41.3,14.1,49.8l-106.7,0.7
		c-2.8,0-5,2.3-5,5c0,2.8,2.3,5,5,5c0,0,0,0,0,0l116.7-0.8l0.1,10.7L132.7,261.6z"/>
	<path class="st0" d="M177.4,199.3l-2,11.8c-0.6,3.5,0.8,7,3.7,9.1c1.6,1.2,3.6,1.8,5.5,1.8c1.5,0,3-0.4,4.4-1.1l10.6-5.5l10.6,5.5
		c3.2,1.7,6.9,1.4,9.8-0.7c2.9-2.1,4.3-5.6,3.7-9.1l-2-11.8l8.5-8.3c2.6-2.5,3.5-6.2,2.4-9.6c-1.1-3.4-4-5.8-7.5-6.4l-11.8-1.7
		l-5.4-10.9c-1.6-3.2-4.7-5.1-8.3-5.1c-3.5,0-6.7,2-8.3,5.1l-5.4,10.9l-11.8,1.7c-3.5,0.5-6.4,3-7.5,6.4c-1.1,3.4-0.2,7.1,2.4,9.6
		L177.4,199.3z M187.6,183.2c3-0.4,5.7-2.4,7-5.1l4.8-9.8l4.8,9.8c1.4,2.8,4,4.7,7,5.1l10.8,1.6l-7.8,7.6c-2.2,2.1-3.2,5.2-2.7,8.3
		l1.8,10.8l-9.7-5.1c-1.4-0.7-2.9-1.1-4.3-1.1c-1.5,0-3,0.4-4.3,1.1l-9.7,5.1l1.8-10.8c0.5-3-0.5-6.1-2.7-8.3l-7.8-7.6L187.6,183.2z
		"/>
</g>
</svg>
