<?xml version="1.0" encoding="utf-8"?>
<!-- Generator: Adobe Illustrator 19.1.0, SVG Export Plug-In . SVG Version: 6.00 Build 0)  -->
<svg version="1.1" id="Layer_1" xmlns="http://www.w3.org/2000/svg" xmlns:xlink="http://www.w3.org/1999/xlink" x="0px" y="0px"
	 viewBox="0 0 400 400" style="enable-background:new 0 0 400 400;" xml:space="preserve">
<style type="text/css">
	.st0{fill:#231F20;}
</style>
<g>
	<path class="st0" d="M249,246.4c-1.8-8-6.6-14.7-13.5-19.1c-6.9-4.4-15.1-5.8-23-4c-8,1.8-14.7,6.6-19.1,13.5
		c-4.4,6.9-5.8,15.1-4,23c1.8,8,6.6,14.7,13.5,19.1c4.9,3.1,10.5,4.7,16.2,4.7c2.3,0,4.5-0.3,6.8-0.8c8-1.8,14.7-6.6,19.1-13.5
		C249.3,262.6,250.8,254.4,249,246.4z M236.5,264.1c-2.9,4.6-7.5,7.9-12.8,9.1c-5.4,1.2-10.9,0.3-15.5-2.7
		c-4.6-2.9-7.9-7.5-9.1-12.8c-1.2-5.4-0.3-10.9,2.7-15.5c2.9-4.6,7.5-7.9,12.8-9.1c1.5-0.3,3-0.5,4.6-0.5c3.8,0,7.6,1.1,10.9,3.2
		c4.6,2.9,7.9,7.5,9.1,12.8C240.4,254,239.5,259.5,236.5,264.1z"/>
	<path class="st0" d="M226.6,243.3c-2.6,1-3.9,3.9-2.9,6.5c0.4,1.1,2.2,6.6-3.8,9.3c-2.5,1.2-3.6,4.1-2.5,6.6
		c0.8,1.8,2.7,2.9,4.5,2.9c0.7,0,1.4-0.1,2.1-0.5c10.9-5,11.3-15.9,8.9-22C232.1,243.6,229.2,242.3,226.6,243.3z"/>
	<path class="st0" d="M155.9,251.3c-9,14.2-4.7,33.1,9.5,42.1c5,3.1,10.6,4.7,16.3,4.7c7.3,0,14.6-2.6,20.3-7.7
		c2.1-1.8,2.2-5,0.4-7.1c-1.8-2.1-5-2.2-7.1-0.4c-6.8,6-16.9,6.9-24.6,2c-9.6-6-12.4-18.8-6.4-28.3c0.6-0.9,1.2-1.8,1.9-2.6
		c1.8-2.1,1.6-5.2-0.5-7.1c-2.1-1.8-5.2-1.6-7.1,0.5C157.7,248.7,156.7,249.9,155.9,251.3z"/>
	<path class="st0" d="M181.5,273.7c-1.6,0-7-0.3-7.7-6.5c-0.3-2.7-2.8-4.7-5.5-4.4c-2.7,0.3-4.7,2.8-4.4,5.5
		c1.2,11.5,10.8,15.5,17.3,15.5c0.2,0,0.5,0,0.7,0c2.8-0.1,4.9-2.5,4.8-5.2C186.6,275.7,184.3,273.6,181.5,273.7z"/>
	<path class="st0" d="M208.5,199.4c-6.9-4.4-15.1-5.8-23-4c-8,1.8-14.7,6.6-19.1,13.5c-9,14.2-4.7,33.1,9.5,42.1
		c0.8,0.5,1.8,0.8,2.7,0.8c1.7,0,3.3-0.8,4.2-2.3c1.5-2.3,0.8-5.4-1.6-6.9c-9.6-6-12.4-18.8-6.4-28.3c2.9-4.6,7.5-7.9,12.8-9.1
		c5.3-1.2,10.9-0.3,15.5,2.7c3.4,2.1,6,5.2,7.7,8.8c1.1,2.5,4.1,3.6,6.6,2.5c2.5-1.2,3.6-4.1,2.5-6.6
		C217.5,207.1,213.5,202.6,208.5,199.4z"/>
	<path class="st0" d="M193.8,218.9c2.8-0.1,4.9-2.4,4.9-5.1c-0.1-2.8-2.4-4.9-5.1-4.9c-11.9,0.3-16.6,10.2-16.8,16.7
		c-0.1,2.8,2.1,5.1,4.8,5.2c0.1,0,0.1,0,0.2,0c2.7,0,4.9-2.1,5-4.8C186.7,224.8,187.3,219,193.8,218.9z"/>
	<path class="st0" d="M195.1,312.6c0.3-2.7-1.6-5.2-4.3-5.6c-2.7-0.3-5.2,1.6-5.6,4.3c-0.3,2-0.3,3.9-0.3,5.6
		c-5.9,0.6-10.8,2.8-14.7,6.7c-3.8,3.8-5.7,8.4-6.7,12.5c-8.1-3.7-17-2.7-23.2-1.2c-0.1-10.3-3-17.6-5.8-22.4
		c4-1.7,8.8-4.5,12.1-9.3c4-5.7,5-12.8,3.1-21.1c-0.6-2.7-3.3-4.4-6-3.7c-2.7,0.6-4.4,3.3-3.7,6c1.3,5.4,0.7,9.8-1.5,13.1
		c-4.1,6-12.9,7.3-12.9,7.3c-2,0.3-3.6,1.6-4.2,3.5c-0.6,1.9,0,3.9,1.5,5.2c0.4,0.3,9.3,8.5,7.2,27.8c-0.2,1.8,0.6,3.5,2,4.6
		c1.5,1.1,3.4,1.2,5,0.5c0.2-0.1,17.4-7.7,26.9,2c1,1,2.3,1.5,3.6,1.5c0.7,0,1.4-0.1,2-0.4c1.9-0.8,3.1-2.8,3-4.8
		c0-0.1-0.3-8.9,4.8-14c2.9-2.9,7.1-4.2,12.6-3.9c1.5,0.1,3-0.5,4-1.6c1-1.1,1.5-2.6,1.2-4.1C195.1,320.9,194.5,317.1,195.1,312.6z"
		/>
	<path class="st0" d="M149.4,322.5c1,0.9,2.2,1.3,3.4,1.3c1.4,0,2.7-0.6,3.7-1.6l11.4-12.6c1.9-2,1.7-5.2-0.3-7.1
		c-2-1.9-5.2-1.7-7.1,0.3L149,315.4C147.2,317.4,147.3,320.6,149.4,322.5z"/>
	<path class="st0" d="M287.7,296.2c-1-1.7-2.9-2.6-4.8-2.4c-0.1,0-12.3,1.3-19.2-4.7c-3-2.6-4.6-6.3-4.7-11.2
		c-0.1-2.8-2.4-4.9-5.2-4.8c-2.8,0.1-4.9,2.4-4.8,5.2c0.3,7.8,3,14,8.2,18.5c5.7,4.9,13.2,6.6,18.8,7c-1.4,5.3-2.3,13.1,0.3,23
		c-6.3,0.1-15.2,1.5-22.1,7.2c-2-3.6-5.1-7.6-9.7-10.3c-4.5-2.6-9.6-3.5-15.3-2.7c-0.7-3.2-2.1-6.9-5.2-10.2
		c-4.4-4.7-10.7-7-18.8-6.9c-2.8,0-5,2.3-4.9,5.1c0,2.8,2.3,5,5.1,4.9c5.1-0.1,8.9,1.2,11.3,3.7c3.5,3.7,3.1,9.2,3.1,9.2
		c-0.1,1.7,0.6,3.3,1.9,4.3c1.3,1,3.1,1.4,4.7,0.8c5.2-1.7,9.7-1.6,13.2,0.4c6.3,3.6,8.3,12.2,8.4,12.3c0.4,2,2.1,3.6,4.1,3.9
		c0.2,0,0.5,0.1,0.7,0.1c1.8,0,3.5-1,4.4-2.6c6.6-11.8,25.2-8.9,25.4-8.9c1.8,0.3,3.6-0.4,4.7-1.8c1.1-1.4,1.4-3.3,0.8-5
		c-7.1-18.1-0.6-28.3-0.4-28.7C288.6,300,288.7,297.9,287.7,296.2z"/>
	<path class="st0" d="M225.9,292c-1.7,2.2-1.3,5.3,0.9,7l28.6,22.1c0.9,0.7,2,1,3.1,1c1.5,0,3-0.7,4-1.9c1.7-2.2,1.3-5.3-0.9-7
		l-28.6-22.1C230.7,289.5,227.6,289.9,225.9,292z"/>
	<path class="st0" d="M199.4,47.4c-69.8,0-126.7,56.8-126.7,126.7c0,44.1,22.4,84.3,59.9,107.6c0.8,0.5,1.7,0.8,2.6,0.8
		c1.7,0,3.3-0.8,4.3-2.4c1.5-2.3,0.7-5.4-1.6-6.9c-1.4-0.9-2.8-1.8-4.2-2.8l14.2-10.9c-2.5-3.9-4.1-8.3-4.7-12.9L123,262.3
		c-4.7-4-9-8.4-13-13.1l28.9-23.5c3,3.6,6.3,6.9,9.9,10c0.9,0.8,2.1,1.2,3.2,1.2c1.4,0,2.8-0.6,3.8-1.8c1.8-2.1,1.5-5.3-0.6-7
		c-15.3-12.9-24-31.7-24-51.6c0-37.2,30.3-67.4,67.4-67.4c37.2,0,67.4,30.3,67.4,67.4c0,17.1-6.4,33.4-18,45.9
		c-1.9,2-1.8,5.2,0.3,7.1c2,1.9,5.2,1.8,7.1-0.3c8.3-9,14.4-19.7,17.7-31.2l42.6-34.1c0.3,3.3,0.4,6.7,0.4,10.2
		c0,4.5-0.3,9.1-0.8,13.5l-62.1,48c2.5,3.8,4.2,8.1,5.2,12.5l52.8-40.7c-3.8,12.9-9.8,25-17.8,35.7l-33.4,25.8
		c0.8,1.2,1.5,2.5,2.1,3.8c-1.4,1.6-1.6,4-0.4,5.9c1.5,2.3,4.6,3,6.9,1.4c35.9-23.5,57.4-63.2,57.4-106
		C326.1,104.2,269.3,47.4,199.4,47.4z M176,59.7l-82.9,66.4C108.3,92.5,139,67.3,176,59.7z M121.6,183.2l-33.2,26.7
		c-2.1-6.5-3.6-13.2-4.5-20l39.6-31.7c-1.4,5.9-2.2,12-2.2,18.3C121.3,178.7,121.4,181,121.6,183.2z M131.5,215l-29.2,23.8
		c-3.4-5.1-6.4-10.5-9-16.2l30.9-24.9C125.9,203.7,128.4,209.6,131.5,215z M135.4,132l-52.6,42.1c0,0,0,0,0,0c0-8.7,1-17.1,2.8-25.2
		l114.2-91.5c8.7,0,17.1,1,25.3,2.8l-55.8,44.7C155.5,110.5,143.8,120,135.4,132z M197.3,99l42.9-34.3c6.4,2.4,12.5,5.3,18.4,8.8
		l-36.4,29.2c-7.4-2.3-15.3-3.6-23.4-3.6C198.2,99,197.7,99,197.3,99z M235.7,108.4l34.2-27.4c4.9,3.7,9.4,7.8,13.7,12.2l-32.6,26.1
		C246.3,115.1,241.2,111.4,235.7,108.4z M259.8,128.9l32.2-25.8c3.7,4.9,7.1,10,10,15.4l-32.7,26.2
		C266.8,139.1,263.5,133.8,259.8,128.9z M276.1,178.9c0-0.8,0.1-1.7,0.1-2.5c0-6.4-0.8-12.7-2.3-18.7l33.9-27.1
		c2.4,5.9,4.3,12.1,5.7,18.4L276.1,178.9z"/>
</g>
</svg>
