<?xml version="1.0" encoding="utf-8"?>
<!-- Generator: Adobe Illustrator 19.1.0, SVG Export Plug-In . SVG Version: 6.00 Build 0)  -->
<svg version="1.1" id="Layer_1" xmlns="http://www.w3.org/2000/svg" xmlns:xlink="http://www.w3.org/1999/xlink" x="0px" y="0px"
	 viewBox="0 0 400 400" style="enable-background:new 0 0 400 400;" xml:space="preserve">
<style type="text/css">
	.st0{fill:#231F20;}
</style>
<g>
	<path class="st0" d="M161.2,176.8c-2.8,0-5,2.2-5,5v120.9c0,2.8,2.2,5,5,5s5-2.2,5-5v-85.3c3.6,2.1,8.2,3.8,13.9,3.8
		c1.5,0,3.1-0.1,4.7-0.4c7-1.1,11.4-4.1,14.9-6.5c4.3-2.9,7.1-4.9,14.3-2.8v91.3c0,2.8,2.2,5,5,5s5-2.2,5-5V181.8c0-2.8-2.2-5-5-5
		h-24.1V168c0.9-0.3,1.8-0.7,2.6-1.2c26.8-14.9,6.6-63.1,5.8-65.2c-1-2.5-4-4.1-6.5-3.2c-2.4,0.9-3.8,3.1-3.2,5.6
		c-0.2,1.4-1.7,8.2-12.7,24.7c-8.3,12.5-8,22.5-6.2,28.7c1.3,4.6,4.6,8.3,9,10.1c0.4,0.2,0.7,0.3,1.1,0.4v8.7H161.2z M189.4,134.4
		c4.1-6.2,7.1-11.3,9.2-15.4c0.8,3.1,1.6,6.6,2.1,10.1c2.3,15-0.4,24.8-8,29c-1.6,0.9-3.4,1-5.1,0.3c-0.9-0.4-2.6-1.4-3.2-3.6
		C182.7,148.8,184.4,141.9,189.4,134.4z M214.1,201.1c-10-2-15.2,1.6-19.9,4.8c-3.1,2.1-6,4.1-10.8,4.9c-9.5,1.4-15.2-4-17.2-6.4
		v-17.7h47.9V201.1z"/>
	<path class="st0" d="M269,269.2c-14.9,0-27,12.1-27,27c0,2.8,2.2,5,5,5c2.8,0,5-2.2,5-5c0-9.4,7.6-17,17-17c9.4,0,17,7.6,17,17
		c0,9.3-7.6,16.9-16.9,17c-0.1,0-0.1,0-0.2,0H108.9c-1.8,0-3.5,1-4.4,2.6c-0.9,1.6-0.8,3.6,0.2,5.1l18.2,27.4
		c0.9,1.4,2.5,2.2,4.2,2.2h125.4c1.7,0,3.4-0.9,4.3-2.4l15.2-25.1c13.5-1.5,24.1-12.9,24.1-26.8C296,281.3,283.9,269.2,269,269.2z
		 M249.6,340.5H129.7l-11.5-17.4h142L249.6,340.5z"/>
	<path class="st0" d="M192.6,85c2.8,0,5-2.2,5-5V53.3c0-2.8-2.2-5-5-5c-2.8,0-5,2.2-5,5V80C187.6,82.8,189.9,85,192.6,85z"/>
	<path class="st0" d="M234.9,114.2c1.1,0,2.2-0.4,3.1-1.1l20.7-16.8c2.1-1.7,2.5-4.9,0.7-7c-1.7-2.1-4.9-2.5-7-0.7l-20.7,16.8
		c-2.1,1.7-2.5,4.9-0.7,7C232,113.6,233.5,114.2,234.9,114.2z"/>
	<path class="st0" d="M150.6,113.2c0.9,0.8,2.1,1.2,3.2,1.2c1.4,0,2.9-0.6,3.8-1.8c1.8-2.1,1.5-5.3-0.6-7l-20.5-17.1
		c-2.1-1.8-5.3-1.5-7,0.6c-1.8,2.1-1.5,5.3,0.6,7L150.6,113.2z"/>
</g>
</svg>
