<?xml version="1.0" encoding="utf-8"?>
<!-- Generator: Adobe Illustrator 19.1.0, SVG Export Plug-In . SVG Version: 6.00 Build 0)  -->
<svg version="1.1" id="Layer_1" xmlns="http://www.w3.org/2000/svg" xmlns:xlink="http://www.w3.org/1999/xlink" x="0px" y="0px"
	 viewBox="0 0 400 400" style="enable-background:new 0 0 400 400;" xml:space="preserve">
<style type="text/css">
	.st0{fill:#231F20;}
</style>
<g>
	<path class="st0" d="M212.1,118.3c-2.8,0-5,2.2-5,5s2.2,5,5,5c10.5,0,19-8.5,19-19s-8.5-19-19-19c-2.8,0-5,2.2-5,5s2.2,5,5,5
		c5,0,9,4,9,9S217.1,118.3,212.1,118.3z"/>
	<path class="st0" d="M273.3,118.3c-5,0-9-4-9-9s4-9,9-9c2.8,0,5-2.2,5-5s-2.2-5-5-5c-10.5,0-19,8.5-19,19s8.5,19,19,19
		c2.8,0,5-2.2,5-5S276,118.3,273.3,118.3z"/>
	<path class="st0" d="M242.7,93.8c10.5,0,19-8.5,19-19c0-2.8-2.2-5-5-5c-2.8,0-5,2.2-5,5c0,5-4,9-9,9c-5,0-9-4-9-9c0-2.8-2.2-5-5-5
		c-2.8,0-5,2.2-5,5C223.7,85.3,232.2,93.8,242.7,93.8z"/>
	<path class="st0" d="M242.7,120c-10.5,0-19,8.5-19,19c0,2.8,2.2,5,5,5c2.8,0,5-2.2,5-5c0-5,4-9,9-9c5,0,9,4,9,9c0,2.8,2.2,5,5,5
		c2.8,0,5-2.2,5-5C261.7,128.5,253.2,120,242.7,120z"/>
	<path class="st0" d="M206.8,235.3c-8.5-2.5-19.5-4-31.3-4.3v-20.5c2.1-0.5,4.2-1.3,6.1-2.3c42.2-23.4,9.6-101.4,8.2-104.7
		c-1-2.3-3.5-3.5-5.9-2.9c-2.4,0.7-4,3-3.6,5.5c0,0.1-0.5,11.3-21.9,43.3c-13.2,19.8-12.7,35.5-10,45.1c1.9,6.7,6.7,12.1,13.1,14.7
		c1.3,0.5,2.6,0.9,3.9,1.2v20.6c-10.6,0.4-20.4,1.9-28.2,4.2c-11.5,3.4-17.4,8.4-17.4,14.7c0,0.4,0,0.9,0.1,1.3
		c0,0.2-0.1,0.5-0.1,0.7v71.5c0,2.8,2.2,5,5,5s5-2.2,5-5v-61.5c2.1,1,4.6,1.9,7.3,2.8c9.3,2.8,21.7,4.3,34.7,4.3
		c13,0,25.4-1.5,34.7-4.3c2.8-0.8,5.2-1.8,7.4-2.8V324c0,2.8,2.2,5,5,5s5-2.2,5-5v-71.5c0-0.4,0-0.7-0.1-1.1c0.1-0.5,0.1-1,0.1-1.5
		C224.1,243.7,218.3,238.7,206.8,235.3z M158.1,191.8c-3.2-11.1-0.2-23.5,8.7-36.8c9.9-14.8,15.6-25.6,19-33.3
		c2.2,7.1,4.6,16.1,6.1,25.6c4.1,26.8-1,44.3-15,52.1c-0.3,0.1-0.5,0.3-0.8,0.4c-0.7-13.6,2.4-26.8,9.4-38.7c3.3-5.6-5.4-10.6-8.6-5
		c-7.9,13.4-11.7,28.8-10.7,44.2c-0.2-0.1-0.4-0.1-0.6-0.2C161.8,198.5,159.1,195.5,158.1,191.8z M172,259c-26.5,0-40.5-6.3-42-9
		c1.4-2.5,13.2-8,35.5-8.9v8.9c0,2.8,2.2,5,5,5c2.8,0,5-2.2,5-5v-9c24.3,0.5,37.1,6.4,38.6,9C212.5,252.7,198.6,259,172,259z"/>
</g>
</svg>
