<?xml version="1.0" encoding="utf-8"?>
<!-- Generator: Adobe Illustrator 19.1.0, SVG Export Plug-In . SVG Version: 6.00 Build 0)  -->
<svg version="1.1" id="Layer_1" xmlns="http://www.w3.org/2000/svg" xmlns:xlink="http://www.w3.org/1999/xlink" x="0px" y="0px"
	 viewBox="0 0 400 400" style="enable-background:new 0 0 400 400;" xml:space="preserve">
<style type="text/css">
	.st0{fill:#231F20;}
</style>
<path class="st0" d="M333,274c0-0.1,0-0.2,0-0.4c0-0.2,0-0.4,0-0.6c0-0.1,0-0.2,0-0.3c0-0.2-0.1-0.4-0.1-0.6c0-0.1,0-0.2-0.1-0.3
	c-0.1-0.3-0.2-0.5-0.3-0.8c0,0,0,0,0,0c-0.1-0.3-0.3-0.5-0.5-0.8c-0.1-0.1-0.1-0.2-0.2-0.2c-0.1-0.1-0.2-0.2-0.3-0.3L261,199.3
	l70.6-70.4c0.1-0.1,0.2-0.2,0.3-0.4c0.1-0.1,0.1-0.2,0.2-0.2c0.2-0.2,0.3-0.5,0.5-0.8c0,0,0-0.1,0-0.1c0.1-0.2,0.2-0.5,0.3-0.7
	c0-0.1,0-0.2,0.1-0.3c0-0.2,0.1-0.4,0.1-0.6c0-0.1,0-0.2,0-0.3c0-0.2,0-0.4,0-0.6c0-0.1,0-0.2,0-0.3c0-0.2-0.1-0.4-0.1-0.6
	c0-0.1,0-0.2-0.1-0.3c-0.1-0.3-0.2-0.6-0.4-0.8c0,0,0,0,0,0c0,0,0,0,0,0c0,0,0,0,0-0.1c-0.1-0.2-0.3-0.5-0.5-0.7
	c-0.1-0.1-0.1-0.2-0.2-0.2c-0.1-0.1-0.3-0.3-0.4-0.4c-0.1-0.1-0.2-0.1-0.3-0.2c-0.2-0.1-0.3-0.2-0.5-0.3c-0.1,0-0.2-0.1-0.3-0.1
	c-0.2-0.1-0.4-0.2-0.6-0.2c-0.1,0-0.1-0.1-0.2-0.1c-0.6-0.1-1.2-0.2-1.8-0.1c-0.1,0-0.2,0-0.3,0.1c-0.1,0-0.3,0-0.4,0.1l-96.3,26
	l-25.6-96.3c0-0.1-0.1-0.3-0.1-0.4c0-0.1-0.1-0.2-0.1-0.3c-0.1-0.3-0.3-0.5-0.4-0.8c0,0,0,0,0,0c-0.2-0.2-0.3-0.5-0.5-0.7
	c-0.1-0.1-0.1-0.1-0.2-0.2c-0.1-0.1-0.3-0.3-0.5-0.4c-0.1-0.1-0.2-0.1-0.3-0.2c-0.2-0.1-0.3-0.2-0.5-0.3c-0.1,0-0.2-0.1-0.3-0.1
	c-0.2-0.1-0.4-0.1-0.6-0.2c-0.1,0-0.2-0.1-0.3-0.1c-0.3-0.1-0.6-0.1-0.9-0.1s-0.6,0-0.9,0.1c-0.1,0-0.2,0.1-0.3,0.1
	c-0.2,0-0.4,0.1-0.6,0.2c-0.1,0-0.2,0.1-0.3,0.1c-0.2,0.1-0.3,0.2-0.5,0.3c-0.1,0.1-0.2,0.1-0.3,0.2c-0.2,0.1-0.3,0.2-0.5,0.4
	c-0.1,0.1-0.1,0.1-0.2,0.2c-0.2,0.2-0.4,0.4-0.5,0.7c0,0,0,0,0,0c-0.2,0.2-0.3,0.5-0.4,0.8c0,0.1-0.1,0.2-0.1,0.3
	c-0.1,0.1-0.1,0.3-0.1,0.4l-25.6,96.3l-96.3-26c-0.1,0-0.3-0.1-0.4-0.1c-0.1,0-0.2,0-0.3-0.1c-0.3,0-0.6,0-0.9,0c0,0,0,0-0.1,0
	c-0.3,0-0.5,0.1-0.8,0.1c-0.1,0-0.2,0.1-0.3,0.1c-0.2,0.1-0.4,0.1-0.6,0.2c-0.1,0-0.2,0.1-0.3,0.2c-0.2,0.1-0.3,0.2-0.5,0.3
	c-0.1,0.1-0.2,0.1-0.3,0.2c-0.2,0.1-0.3,0.3-0.4,0.4c-0.1,0.1-0.2,0.1-0.2,0.2c-0.2,0.2-0.4,0.5-0.5,0.8c-0.2,0.3-0.3,0.6-0.4,0.9
	c0,0.1-0.1,0.2-0.1,0.3c-0.1,0.2-0.1,0.4-0.1,0.6c0,0.1,0,0.2,0,0.4c0,0.2,0,0.4,0,0.6c0,0.1,0,0.2,0,0.3c0,0.2,0.1,0.4,0.1,0.6
	c0,0.1,0,0.2,0.1,0.3c0.1,0.3,0.2,0.5,0.3,0.8c0,0,0,0,0,0c0.1,0.3,0.3,0.5,0.5,0.8c0.1,0.1,0.1,0.2,0.2,0.2
	c0.1,0.1,0.2,0.2,0.3,0.3l70.6,70.4l-70.6,70.4c-1.6,1.6-1.9,4.1-0.8,6c1.1,2,3.4,2.9,5.6,2.3l4.4-1.2c0,0,0,0,0,0l91.8-24.8
	l25.6,96.3c0,0.1,0.1,0.3,0.1,0.4c0,0.1,0.1,0.2,0.1,0.3c0.1,0.3,0.3,0.5,0.4,0.8c0,0,0,0,0,0c0.2,0.2,0.3,0.5,0.5,0.7
	c0.1,0.1,0.1,0.1,0.2,0.2c0.1,0.1,0.3,0.3,0.5,0.4c0.1,0.1,0.2,0.1,0.3,0.2c0.2,0.1,0.3,0.2,0.5,0.3c0.1,0.1,0.2,0.1,0.3,0.1
	c0.2,0.1,0.4,0.1,0.6,0.2c0.1,0,0.2,0.1,0.3,0.1c0.3,0.1,0.6,0.1,0.9,0.1s0.6,0,0.9-0.1c0.1,0,0.2-0.1,0.3-0.1
	c0.2,0,0.4-0.1,0.6-0.2c0.1,0,0.2-0.1,0.3-0.1c0.2-0.1,0.3-0.2,0.5-0.3c0.1-0.1,0.2-0.1,0.3-0.2c0.2-0.1,0.3-0.2,0.5-0.4
	c0.1-0.1,0.1-0.1,0.2-0.2c0.2-0.2,0.4-0.4,0.5-0.7c0,0,0,0,0,0c0.2-0.2,0.3-0.5,0.4-0.8c0-0.1,0.1-0.2,0.1-0.3
	c0.1-0.1,0.1-0.3,0.1-0.4l25.6-96.3l96.3,26c0,0,0,0,0,0c0.3,0.1,0.5,0.1,0.8,0.1c0.1,0,0.1,0,0.2,0c0.1,0,0.2,0,0.3,0
	c0.1,0,0.1,0,0.2,0c0.1,0,0.2,0,0.3,0c0.2,0,0.3,0,0.5-0.1c0.1,0,0.2,0,0.2,0c0.2-0.1,0.5-0.1,0.7-0.2c0,0,0.1,0,0.1-0.1
	c0.2-0.1,0.4-0.2,0.6-0.3c0.1,0,0.1-0.1,0.2-0.1c0.1-0.1,0.3-0.2,0.4-0.3c0.1-0.1,0.1-0.1,0.2-0.2c0.1-0.1,0.3-0.2,0.4-0.4
	c0.1-0.1,0.1-0.1,0.2-0.2c0.2-0.2,0.3-0.4,0.4-0.6c0.2-0.3,0.3-0.6,0.4-0.9c0-0.1,0.1-0.2,0.1-0.3C332.9,274.4,333,274.2,333,274z
	 M250.4,202.8l47.1,46.9l-86.8-50.1l86.4-50.4l-46.7,46.5c-0.9,0.9-1.5,2.2-1.5,3.5S249.4,201.9,250.4,202.8z M224.5,157
	c1.2,0.7,2.5,0.8,3.8,0.5L293,140l-88,51.3V89.7l17.1,64.2C222.5,155.2,223.3,156.3,224.5,157z M171.8,157.5
	c1.3,0.3,2.7,0.2,3.8-0.5c1.2-0.7,2-1.8,2.3-3l17.1-64.2v100.9l-87.4-50.5L171.8,157.5z M149.7,195.8l-47.1-46.9l88,50.8l-90.9,53
	l50-49.8c0.9-0.9,1.5-2.2,1.5-3.5S150.7,196.7,149.7,195.8z M175.6,241.6c-0.8-0.4-1.6-0.7-2.5-0.7c-0.4,0-0.9,0.1-1.3,0.2
	l-60.3,16.3l83.5-48.7v100.2L178,244.6C177.6,243.4,176.8,242.3,175.6,241.6z M228.3,241.1c-1.3-0.3-2.7-0.2-3.8,0.5
	c-1.2,0.7-2,1.8-2.3,3l-17.1,64.2V208l87.4,50.5L228.3,241.1z"/>
</svg>
