<?xml version="1.0" encoding="utf-8"?>
<!-- Generator: Adobe Illustrator 19.1.0, SVG Export Plug-In . SVG Version: 6.00 Build 0)  -->
<svg version="1.1" id="Layer_1" xmlns="http://www.w3.org/2000/svg" xmlns:xlink="http://www.w3.org/1999/xlink" x="0px" y="0px"
	 viewBox="0 0 400 400" style="enable-background:new 0 0 400 400;" xml:space="preserve">
<style type="text/css">
	.st0{fill:#231F20;}
</style>
<path class="st0" d="M313.2,202.6c0.2-0.2,0.3-0.4,0.5-0.6c0-0.1,0.1-0.1,0.1-0.2c0.2-0.2,0.3-0.5,0.4-0.7c0,0,0,0,0-0.1
	c0.1-0.2,0.2-0.5,0.2-0.8c0-0.1,0-0.2,0-0.2c0.1-0.3,0.1-0.6,0.1-0.9c0-0.3,0-0.6-0.1-0.9c0-0.1,0-0.2,0-0.2
	c-0.1-0.3-0.1-0.5-0.2-0.8c0,0,0,0,0-0.1c-0.1-0.3-0.3-0.5-0.4-0.7c0-0.1-0.1-0.1-0.1-0.2c-0.1-0.2-0.3-0.4-0.5-0.6
	c0,0-0.1-0.1-0.1-0.1c-0.2-0.2-0.4-0.4-0.7-0.5c-0.1,0-0.1-0.1-0.2-0.1c-0.1-0.1-0.2-0.1-0.3-0.2l-69.7-38.1l-38.1-69.7
	c-0.1-0.1-0.1-0.2-0.2-0.3c0-0.1-0.1-0.1-0.1-0.2c-0.2-0.2-0.3-0.5-0.5-0.7c0,0-0.1-0.1-0.1-0.1c-0.2-0.2-0.4-0.3-0.6-0.5
	c-0.1,0-0.1-0.1-0.2-0.1c-0.2-0.2-0.5-0.3-0.7-0.4c0,0,0,0-0.1,0c-0.2-0.1-0.5-0.2-0.8-0.2c-0.1,0-0.2,0-0.2,0
	c-0.3-0.1-0.6-0.1-0.9-0.1c-0.3,0-0.6,0-0.9,0.1c-0.1,0-0.2,0-0.2,0c-0.3,0.1-0.5,0.1-0.8,0.2c0,0,0,0-0.1,0
	c-0.3,0.1-0.5,0.3-0.7,0.4c-0.1,0-0.1,0.1-0.2,0.1c-0.2,0.1-0.4,0.3-0.6,0.5c0,0-0.1,0.1-0.1,0.1c-0.2,0.2-0.4,0.4-0.5,0.7
	c0,0.1-0.1,0.1-0.1,0.2c-0.1,0.1-0.1,0.2-0.2,0.3l-38.1,69.7l-69.7,38.1c-0.1,0.1-0.2,0.1-0.3,0.2c-0.1,0-0.1,0.1-0.2,0.1
	c-0.2,0.2-0.5,0.3-0.7,0.5c0,0-0.1,0.1-0.1,0.1c-0.2,0.2-0.3,0.4-0.5,0.6c0,0.1-0.1,0.1-0.1,0.2c-0.2,0.2-0.3,0.5-0.4,0.7
	c0,0,0,0,0,0.1c-0.1,0.2-0.2,0.5-0.2,0.8c0,0.1,0,0.2,0,0.2c-0.1,0.3-0.1,0.6-0.1,0.9c0,0.3,0,0.6,0.1,0.9c0,0.1,0,0.2,0,0.2
	c0.1,0.3,0.1,0.5,0.2,0.8c0,0,0,0,0,0.1c0.1,0.3,0.3,0.5,0.4,0.7c0,0.1,0.1,0.1,0.1,0.2c0.1,0.2,0.3,0.4,0.5,0.6
	c0,0,0.1,0.1,0.1,0.1c0.2,0.2,0.4,0.4,0.7,0.5c0.1,0,0.1,0.1,0.2,0.1c0.1,0.1,0.2,0.1,0.3,0.2l69.7,38.1l38.1,69.7
	c0.1,0.1,0.1,0.2,0.2,0.3c0,0.1,0.1,0.1,0.1,0.2c0.2,0.2,0.3,0.5,0.5,0.7c0,0,0.1,0.1,0.1,0.1c0.2,0.2,0.4,0.3,0.6,0.5
	c0.1,0,0.1,0.1,0.2,0.1c0.2,0.2,0.5,0.3,0.7,0.4c0,0,0,0,0.1,0c0.2,0.1,0.5,0.2,0.8,0.2c0.1,0,0.2,0,0.2,0c0.3,0.1,0.6,0.1,0.9,0.1
	c0.3,0,0.6,0,0.9-0.1c0.1,0,0.2,0,0.2,0c0.3-0.1,0.5-0.1,0.8-0.2c0,0,0,0,0.1,0c0.3-0.1,0.5-0.3,0.7-0.4c0.1,0,0.1-0.1,0.2-0.1
	c0.2-0.1,0.4-0.3,0.6-0.5c0,0,0.1-0.1,0.1-0.1c0.2-0.2,0.4-0.4,0.5-0.7c0-0.1,0.1-0.1,0.1-0.2c0.1-0.1,0.1-0.2,0.2-0.3l38.1-69.7
	l69.7-38.1c0.1-0.1,0.2-0.1,0.3-0.2c0.1,0,0.1-0.1,0.2-0.1C312.7,203.1,312.9,202.9,313.2,202.6
	C313.1,202.6,313.1,202.6,313.2,202.6z M239.5,231.8l-27.6-27.6H290L239.5,231.8z M109.5,204.1h80.2l-27.6,28.8L109.5,204.1z
	 M160,166.5l27.6,27.6h-78.2L160,166.5z M204.7,108.9l27.7,50.6l-27.7,28.9V108.9z M194.7,187.1l-27.6-27.6l27.6-50.5V187.1z
	 M194.7,213.3v76.1L168.3,241L194.7,213.3z M204.7,211.2l27.6,27.6l-27.6,50.5V211.2z M213.1,194.1l26.4-27.6l50.5,27.6H213.1z"/>
</svg>
