<?xml version="1.0" encoding="utf-8"?>
<!-- Generator: Adobe Illustrator 19.1.0, SVG Export Plug-In . SVG Version: 6.00 Build 0)  -->
<svg version="1.1" id="Layer_1" xmlns="http://www.w3.org/2000/svg" xmlns:xlink="http://www.w3.org/1999/xlink" x="0px" y="0px"
	 viewBox="0 0 400 400" style="enable-background:new 0 0 400 400;" xml:space="preserve">
<style type="text/css">
	.st0{fill:#231F20;}
</style>
<g>
	<path class="st0" d="M305.4,197.4c-0.2-0.1-20.8-12.3-17.7-29.6c0.4-2-0.6-4.1-2.3-5.2c-1.8-1.1-4-0.9-5.7,0.4
		c-0.1,0.1-9.1,6.9-18.4,5.3c-5.2-0.9-9.8-4.4-13.7-10.5c-0.8-1.3-2.1-2.1-3.6-2.3c-1.5-0.2-3,0.3-4.1,1.4c0,0-3.6,3.4-8.7,6.2
		c-2.4,1.3-3.4,4.3-2.1,6.8c1.3,2.4,4.3,3.4,6.8,2.1c2.6-1.4,4.8-2.9,6.6-4.2c4.8,5.8,10.6,9.3,17.1,10.4c6.9,1.2,13.3-0.5,18-2.6
		c1.6,11.9,10.1,20.8,16.3,25.8c-11.6,8.1-17.1,17-19.7,23.4c-4.4-3-10.9-6.1-18.4-6.1c-6.7,0.1-12.9,2.6-18.6,7.6
		c-5-5.1-14.4-12.8-26-12.8c0,0-0.1,0-0.1,0c-2.8,0-5,2.3-5,5c0,2.8,2.2,5,5,5c0,0,0.1,0,0.1,0c11.8,0,21.7,12.9,21.8,13
		c0.9,1.2,2.3,1.9,3.8,2c0.1,0,0.1,0,0.2,0c1.4,0,2.8-0.6,3.7-1.7c4.7-5.3,9.8-8.1,15.1-8.2c9.5-0.1,17.3,8.1,17.4,8.2
		c1.3,1.5,3.4,2,5.3,1.3c1.9-0.6,3.2-2.3,3.4-4.3c0-0.2,1.6-15.7,23.4-27.8c1.6-0.9,2.6-2.5,2.6-4.3
		C307.9,200,306.9,198.3,305.4,197.4z"/>
	<path class="st0" d="M152.9,157c0.1,0.1,11.9,9.9,12.2,21.2c0.1,5.5-2.5,10.6-8,15.5c-1.6,1.4-2.1,3.6-1.3,5.5
		c0.7,1.9,2.6,3.2,4.7,3.2c0,0,0,0,0.1,0c0,0,5.3,0,11,2.1c7.4,2.7,12.2,7.5,14.3,14.4c0.6,2.1,2.5,3.5,4.7,3.6l9.6,0.2
		c0,0,0.1,0,0.1,0c2.4,0,4.4-1.7,4.9-4c1.5-6.9,5.7-12.1,12.8-15.4c3.6-1.7,7-2.5,9.1-2.8l39.5,4.8c0.2,0,0.4,0,0.6,0
		c2.5,0,4.7-1.9,5-4.4c0.3-2.7-1.6-5.2-4.4-5.6l-36.5-4.4c-5.6-4.3-8.5-9-8.8-14.4c-0.7-11.4,10.3-22.1,10.4-22.2
		c1.1-1,1.7-2.5,1.5-4c-0.1-1.5-0.9-2.9-2.1-3.7c-5.9-4-9.2-8.8-9.9-14c-1.3-9.4,6-18.2,6-18.2c1.3-1.5,1.6-3.6,0.7-5.4
		c-0.9-1.8-2.7-2.9-4.7-2.8c-0.2,0-15.8,0.3-30.5-19.9c-1.1-1.5-2.8-2.2-4.6-2c-1.8,0.2-3.3,1.3-4,3c-0.1,0.2-9.7,22.2-27.2,21.1
		c-2.1-0.1-4,1.1-4.9,3c-0.8,1.9-0.4,4.1,1,5.6c0.1,0.1,8,8.2,7.5,17.6c-0.3,5.3-3.2,10.3-8.7,14.8c-1.2,1-1.8,2.4-1.8,3.9
		C151.1,154.7,151.7,156.1,152.9,157z M166.8,117.3c6.7-1.8,13-6,18.6-12.4c2.1-2.4,3.8-4.8,5.1-6.9c9.4,10.5,19,14.9,25.6,16.7
		c-2.5,4.8-4.8,11.6-3.8,19c0.9,6.6,4.1,12.5,9.7,17.5c-4.2,5.3-10.3,14.9-9.7,25.7c0.3,5.6,2.3,10.7,6,15.3
		c-6.6,2.3-14,6.6-18.7,13.8l-5.3-85.1c-0.2-2.8-2.5-4.9-5.3-4.7c-2.8,0.2-4.9,2.5-4.7,5.3l5.2,83.4c-5.3-6.3-12.6-9.7-19.1-11.4
		c3.3-4.9,4.8-10.2,4.7-15.7c-0.3-10.8-7.1-19.9-11.8-24.8c5.2-5.5,7.9-11.6,8.3-18.3C172,128,169.5,121.8,166.8,117.3z"/>
	<path class="st0" d="M203.2,230.8c-8.1,0-15.4,3.3-20.7,8.6c0.1-1.1,0.2-2.2,0.2-3.4c0-16.1-13.1-29.3-29.3-29.3
		s-29.3,13.1-29.3,29.3c0,12.2,7.5,22.7,18.2,27.1c-6.6,5.4-10.8,13.5-10.8,22.7c0,16.1,13.1,29.3,29.3,29.3c16,0,29-12.9,29.3-28.9
		c4,2,8.4,3.1,13.2,3.1c16.1,0,29.3-13.1,29.3-29.3C232.4,243.9,219.3,230.8,203.2,230.8z M174.1,256.7c-0.1,1-0.2,2-0.2,3
		c-0.7-0.3-1.4-0.7-2.1-1C172.6,258.1,173.4,257.4,174.1,256.7z M134.1,236c0-10.6,8.6-19.3,19.3-19.3s19.3,8.6,19.3,19.3
		s-8.6,19.3-19.3,19.3S134.1,246.6,134.1,236z M160.8,305c-10.6,0-19.3-8.6-19.3-19.3c0-10.6,8.6-19.3,19.3-19.3
		c10.6,0,19.3,8.6,19.3,19.3C180,296.4,171.4,305,160.8,305z M203.2,279.3c-10.6,0-19.3-8.6-19.3-19.3c0-10.6,8.6-19.3,19.3-19.3
		s19.3,8.6,19.3,19.3C222.4,270.7,213.8,279.3,203.2,279.3z"/>
	<path class="st0" d="M211.5,245.7c-2.2-1.6-5.4-1.2-7,1c-1.6,2.2-1.2,5.3,1,7c1.5,1.2,4.7,4.4,1.7,9.1c-1.5,2.3-0.9,5.4,1.5,6.9
		c0.8,0.5,1.8,0.8,2.7,0.8c1.6,0,3.2-0.8,4.2-2.3C221.8,258.6,216.5,249.5,211.5,245.7z"/>
	<path class="st0" d="M154.8,230.4c0.8,0.6,4.9,4,1.6,9c-1.5,2.3-0.9,5.4,1.5,6.9c0.8,0.5,1.8,0.8,2.7,0.8c1.6,0,3.2-0.8,4.2-2.3
		c6.3-9.7,1-18.8-4-22.5c-2.2-1.6-5.3-1.2-7,1C152.1,225.7,152.6,228.8,154.8,230.4z"/>
	<path class="st0" d="M168.5,272.9c-2.2-1.6-5.4-1.2-7,1c-1.6,2.2-1.2,5.3,1,7c1.5,1.2,4.7,4.4,1.7,9.1c-1.5,2.3-0.9,5.4,1.5,6.9
		c0.8,0.5,1.8,0.8,2.7,0.8c1.6,0,3.2-0.8,4.2-2.3C178.9,285.7,173.6,276.6,168.5,272.9z"/>
</g>
</svg>
