<?xml version="1.0" encoding="utf-8"?>
<!-- Generator: Adobe Illustrator 19.1.0, SVG Export Plug-In . SVG Version: 6.00 Build 0)  -->
<svg version="1.1" id="Layer_1" xmlns="http://www.w3.org/2000/svg" xmlns:xlink="http://www.w3.org/1999/xlink" x="0px" y="0px"
	 viewBox="0 0 400 400" style="enable-background:new 0 0 400 400;" xml:space="preserve">
<style type="text/css">
	.st0{fill:#231F20;}
</style>
<g>
	<path class="st0" d="M297.8,171.1c-0.5-1.7-1.9-3-3.7-3.4c-0.2-0.1-23.6-5.5-25.9-22.8c-0.3-2.1-1.8-3.7-3.8-4.2
		c-2-0.5-4.1,0.3-5.3,2.1c-0.1,0.1-6.6,9.4-15.9,10.7c-5.3,0.8-10.7-1.2-16.2-5.8c-1.2-1-2.7-1.4-4.2-1.1c-1.5,0.3-2.7,1.2-3.5,2.6
		c0,0-2.4,4.4-6.4,8.5c-1.9,2-1.9,5.1,0.1,7.1c2,1.9,5.1,1.9,7.1-0.1c2-2.1,3.7-4.2,5-6c6.4,4,12.9,5.6,19.5,4.7
		c6.9-1,12.5-4.6,16.4-8c5.2,10.8,16,16.7,23.4,19.6c-8.6,11.2-11.1,21.4-11.6,28.3c-5.2-1.5-12.3-2.5-19.4-0.2
		c-6.3,2.1-11.5,6.4-15.4,12.9c-6.3-3.3-17.7-7.8-28.8-4.2c-2.6,0.9-4.1,3.7-3.2,6.3c0.9,2.6,3.7,4.1,6.3,3.2c0.1,0,0.2,0,0.2-0.1
		l2.2,10.6c-4.9,1.6-9.4,4.2-13.2,7.8c-2,1.9-2.1,5-0.2,7.1c1.9,2,5,2.1,7.1,0.2c5.1-4.8,11.8-7.2,18.8-6.8
		c9.8,0.5,18.2,6.4,22.1,15.4c0.8,1.9,2.7,3,4.6,3c0.7,0,1.3-0.1,2-0.4c2.5-1.1,3.7-4,2.6-6.6c-5.4-12.5-17.2-20.6-30.8-21.3
		c-1-0.1-2-0.1-3,0l-1.9-9.2c7.8,1.5,14.3,6.1,14.4,6.1c0.9,0.6,1.9,0.9,2.9,0.9c0.4,0,0.9-0.1,1.3-0.2c1.5-0.4,2.6-1.4,3.3-2.8
		c2.9-6.5,6.9-10.7,11.9-12.4c9-3,19,2.4,19,2.5c1.7,1,3.8,0.8,5.4-0.3c1.6-1.2,2.3-3.2,1.9-5.1c-0.1-0.6-3-15.8,13.8-33.7
		C297.9,174.6,298.3,172.8,297.8,171.1z"/>
	<path class="st0" d="M138,151.7c1.4,5.1,0.1,10.8-3.8,16.7c-0.8,1.3-1,2.8-0.6,4.3c0.5,1.4,1.6,2.6,3,3.1
		c0.1,0.1,14.4,5.8,18.1,16.5c1.8,5.2,0.9,10.8-2.9,17.2c-1.1,1.8-0.9,4.1,0.4,5.7c1.3,1.6,3.5,2.3,5.5,1.6c0.1,0,5-1.6,11.2-1.4
		c-0.1,0.2-0.1,0.4-0.2,0.7l-1.7,14c-13.6,0.5-26.3,8.8-31.7,22.2c-1,2.6,0.2,5.5,2.8,6.5c2.6,1,5.5-0.2,6.5-2.8
		c5.3-13.1,20.2-19.4,33.3-14.2c9.1,3.7,15.2,12,15.9,21.7c0.2,2.6,2.4,4.6,5,4.6c0.1,0,0.3,0,0.4,0c2.8-0.2,4.8-2.6,4.6-5.4
		c-1.1-13.5-9.6-25.1-22.2-30.2c-1.5-0.6-3.1-1.1-4.7-1.5l1.6-13.4c3.3,1.6,6,3.9,8.2,7.1c0.9,1.4,2.5,2.2,4.1,2.2
		c0.5,0,1-0.1,1.4-0.2l9.2-2.8c2.3-0.7,3.8-2.9,3.5-5.3c-0.7-7,1.8-13.3,7.4-18.6c3.9-3.6,8-5.6,9.2-6.2l36.4-6.8
		c2.7-0.5,4.5-3.1,4-5.8c-0.5-2.7-3.1-4.5-5.8-4l-35.6,6.7c-6.2-2.4-10.2-5.9-12.1-10.8c-4.1-10.6,3.1-24.2,3.1-24.3
		c0.7-1.3,0.8-2.9,0.2-4.3c-0.6-1.4-1.7-2.5-3.2-2.9c-6.8-2.1-11.4-5.5-13.7-10.3c-4.1-8.6,0.1-19.1,0.2-19.2c0.8-1.8,0.4-3.9-1-5.3
		c-1.3-1.4-3.4-1.9-5.3-1.3c-0.6,0.2-15.3,4.9-35.1-9.6c-1.5-1.1-3.4-1.3-5-0.5c-1.6,0.7-2.8,2.3-2.9,4.1c0,0.2-2.5,24.1-19.5,28.5
		c-2,0.5-3.5,2.2-3.7,4.3c-0.2,2.1,0.8,4.1,2.7,5C125.5,137.2,135.6,142.5,138,151.7z M151.6,116.3c1.2-2.9,2.1-5.7,2.8-8.1
		c12.2,7.2,22.6,8.4,29.5,8.1c-0.9,5.3-1,12.5,2.2,19.3c2.9,6,7.8,10.6,14.6,13.7c-2.4,6.3-5.3,17.3-1.4,27.4
		c2,5.2,5.5,9.5,10.4,12.7c-5.6,4.2-11.3,10.5-13.6,18.9l-31-79.4c-1-2.6-3.9-3.8-6.5-2.8c-2.6,1-3.8,3.9-2.8,6.5l30.4,77.9
		c-6-3.8-12.8-5.1-18.9-5.1c-1,0-1.9,0-2.8,0.1c1.6-5.7,1.5-11.1-0.3-16.4c-3.6-10.2-12.9-16.8-18.8-20c3.2-6.8,4-13.5,2.3-19.9
		c-1.8-6.7-6.1-11.8-9.9-15.3C143.6,130,148.3,124,151.6,116.3z"/>
	<path class="st0" d="M174.2,253.2L174.2,253.2l-5.4-8.4c-3,1.9-7.7,7.2-6.5,14.8c0.4,2.5,2.5,4.2,4.9,4.2c0.3,0,0.5,0,0.8-0.1
		c2.7-0.4,4.6-3,4.2-5.7C171.7,255.1,173.8,253.5,174.2,253.2z"/>
	<path class="st0" d="M261.2,259.1c-23.3,8.3-43.3,10.9-56,11.7c-0.2,0-0.5,0.1-0.7,0.1c-0.2,0-0.3-0.1-0.5-0.1c0,0,0,0-0.1,0
		c-42.2,0.5-70.5-11.7-70.9-11.9c-2.5-1.1-5.5,0-6.6,2.6c-1.1,2.5,0,5.5,2.6,6.6c0.2,0.1,1.5,0.7,3.8,1.5
		c0.8,13.7,9.3,25.7,22.2,30.9c4.3,1.7,8.8,2.6,13.3,2.6c4.7,0,9.4-1,13.9-2.9c8.7-3.7,15.5-10.6,19.1-19.4c0,0,0.1,0,0.1,0
		c0.9,0,1.7,0,2.6,0c0.3,0,0.7,0,1-0.1c0.1,0,0.3,0,0.4,0c0.1,0,0.2,0,0.3,0c10.9-0.7,27-2.6,45.8-8.1c-2.5,12.2-13.6,21-26.4,20.4
		c-4.2-0.2-8.2-1.4-11.8-3.6c-2.4-1.4-5.4-0.6-6.9,1.7c-1.4,2.4-0.6,5.4,1.7,6.9c4.9,3,10.6,4.7,16.4,5c0.6,0,1.3,0,1.9,0
		c18.8,0,34.5-14.8,35.5-33.7c0.8-0.3,1.7-0.6,2.5-0.9c2.6-0.9,4-3.8,3-6.4C266.7,259.6,263.8,258.2,261.2,259.1z M178.3,291.1
		c-6.3,2.7-13.3,2.7-19.6,0.2c-8-3.2-13.7-10.1-15.4-18.2c10.7,3.1,26.8,6.6,47,7.6C187.6,285.3,183.4,289,178.3,291.1z"/>
	<path class="st0" d="M227.3,252.1l-7.8-6.2c-2.2,2.8-5,9.3-1.3,16.2c0.9,1.7,2.6,2.7,4.4,2.7c0.8,0,1.6-0.2,2.3-0.6
		c2.4-1.3,3.4-4.3,2.1-6.8C225.6,254.7,227.1,252.5,227.3,252.1L227.3,252.1z"/>
</g>
</svg>
