<?xml version="1.0" encoding="utf-8"?>
<!-- Generator: Adobe Illustrator 19.1.0, SVG Export Plug-In . SVG Version: 6.00 Build 0)  -->
<svg version="1.1" id="Layer_1" xmlns="http://www.w3.org/2000/svg" xmlns:xlink="http://www.w3.org/1999/xlink" x="0px" y="0px"
	 viewBox="0 0 400 400" style="enable-background:new 0 0 400 400;" xml:space="preserve">
<style type="text/css">
	.st0{fill:#231F20;}
</style>
<g>
	<path class="st0" d="M107.8,190.3C107.8,190.3,107.8,190.3,107.8,190.3c2.8,0,5-2.2,5.1-4.9l0-2.4c0-2.8-2.2-5-4.9-5.1
		c0,0-0.1,0-0.1,0c-2.7,0-5,2.2-5,4.9l0,2.4C102.8,188,105,190.3,107.8,190.3z"/>
	<path class="st0" d="M141.9,230.1c-0.1,0-12,0.8-20.4-7c-5.9-5.5-8.9-14-8.9-25.3c0-2.8-2.2-5-5-5s-5,2.2-5,5
		c0,14.3,4.1,25.3,12.2,32.8c9.4,8.7,21.4,9.6,26,9.6c1.1,0,1.8-0.1,1.9-0.1c2.7-0.2,4.8-2.6,4.6-5.4
		C147.1,231.9,144.7,229.9,141.9,230.1z"/>
	<path class="st0" d="M301.6,253.6c-2.8,0-5,2.2-5,5c0,2.8,2.2,5,5,5c3.1,0,5.6,2.5,5.6,5.6c0,3.1-2.5,5.6-5.6,5.6h-46.5V253h22.1
		c0,0,0,0,0.1,0c8,0,14.9-2.9,20.6-8.6c16.1-16.2,16-50,16-51.5c0-1.5-0.7-3-2-3.9c-1.2-0.9-2.8-1.3-4.3-0.9
		c-0.6,0.2-65.5,16.4-107.4-27.2c-45.5-47.2-104.9-44.1-107.4-44c-2.6,0.2-4.6,2.3-4.7,4.9l-1.3,82.3c0,16.6,4.7,29.3,14,37.8
		c10.8,10,24.6,11,29.9,11c0.9,0,1.6,0,2-0.1h9.1v21.9H97.4c-3.1,0-5.6-2.5-5.6-5.6c0-3.1,2.5-5.6,5.6-5.6c2.8,0,5-2.2,5-5
		c0-2.8-2.2-5-5-5c-8.6,0-15.6,7-15.6,15.6c0,8.6,7,15.6,15.6,15.6h204.2c8.6,0,15.6-7,15.6-15.6
		C317.2,260.6,310.2,253.6,301.6,253.6z M132.5,243c-0.1,0-0.3,0-0.4,0c-0.1,0-14.5,1-24.6-8.4c-7.1-6.6-10.7-16.8-10.7-30.3L98,127
		c14.4,0.3,59.8,4.4,95,40.9c19.1,19.8,45.4,31.2,76.1,33.1c14.9,0.9,27.3-0.6,34.5-1.8c-0.7,9.8-3.3,28.6-12.8,38.2
		c-3.8,3.8-8.2,5.6-13.5,5.6c0,0,0,0,0,0H132.5z M151.8,253h93.3v21.9h-93.3V253z"/>
</g>
</svg>
