<?xml version="1.0" encoding="utf-8"?>
<!-- Generator: Adobe Illustrator 19.1.0, SVG Export Plug-In . SVG Version: 6.00 Build 0)  -->
<svg version="1.1" id="Layer_1" xmlns="http://www.w3.org/2000/svg" xmlns:xlink="http://www.w3.org/1999/xlink" x="0px" y="0px"
	 viewBox="0 0 400 400" style="enable-background:new 0 0 400 400;" xml:space="preserve">
<style type="text/css">
	.st0{fill:#231F20;}
</style>
<path class="st0" d="M315.6,120.2c-15.1-23.5-41.6-29.7-62.7-30.4v-12c0-9.8-7.9-17.7-17.7-17.7H163c-9.8,0-17.7,7.9-17.7,17.7v12
	c-21,0.8-47.1,7.1-62.1,30.4c-9.7,15.2-10,30.2-10,30.9v126.4c0,6.3,3.5,11.7,8.7,14.5l-0.2,6.3c0,0.1,0,0.3,0,0.4
	c0.2,4.9,4.2,8.8,9.1,8.8h29.9v2.4c0,7.8,4.1,14.7,10.3,18.6c0,0.1,0,0.2,0,0.2v5.1c0,6.4,5.5,11.6,12.3,11.6h114
	c6.8,0,12.3-5.2,12.3-11.6v-4.4c0-0.6-0.1-1.3-0.4-1.8c5.4-4,9-10.4,9-17.7v-2.4h31.2c4.9,0,8.9-3.9,9.1-8.8c0-0.1,0-0.3,0-0.4
	l-0.3-7.1c0,0,0,0,0,0c4.5-3,7.4-8,7.4-13.8V151.1C325.6,150.4,325.4,135.3,315.6,120.2z M242.9,77.8v11.9h-10.5V70.1h2.8
	C239.5,70.1,242.9,73.6,242.9,77.8z M213.3,89.7V70.1h9.1v19.6H213.3z M193.9,89.7V70.1h9.4v19.6H193.9z M174.8,89.7V70.1h9.1v19.6
	H174.8z M155.3,77.8c0-4.2,3.4-7.7,7.7-7.7h1.8v19.6h-9.5V77.8z M83.2,151.1c0-0.1,0.2-12.8,8.4-25.6c11.1-17.2,30.8-25.9,58.7-25.9
	h97.6h0.6c65.6,0,67.1,49.4,67.1,51.4v126.4c0,3.6-2.9,6.5-6.5,6.5h-30.9V172.6c0-2.8-2.2-5-5-5c-2.8,0-5,2.2-5,5v12l-13.4-13.4
	c-2-2-5.1-2-7.1,0l-13.9,13.9l-13.9-13.9c-2-2-5.1-2-7.1,0l-13.9,13.9L185,171.2c-2-2-5.1-2-7.1,0l-13.7,13.7l-13.7-13.7
	c-2-2-5.1-2-7.1,0L130.6,184v-11.4c0-2.8-2.2-5-5-5c-2.8,0-5,2.2-5,5V284h-31c-3.6,0-6.5-2.9-6.5-6.5V151.1z M261.6,192.1
	l-10.4,10.4l-10.4-10.4l10.4-10.4L261.6,192.1z M226.7,192.1l-10.4,10.4L206,192.1l10.4-10.4L226.7,192.1z M191.8,192.1l-10.4,10.4
	l-10.4-10.4l10.4-10.4L191.8,192.1z M157.3,192.1L147,202.5l-10.4-10.4l10.4-10.4L157.3,192.1z M91.6,297.5l0.1-3.5h28.9v3.5H91.6z
	 M130.6,289v-88.7l12.8,12.8c0.9,0.9,2.2,1.5,3.5,1.5c1.3,0,2.6-0.5,3.5-1.5l13.7-13.7l13.7,13.7c0.9,0.9,2.2,1.5,3.5,1.5
	c1.3,0,2.6-0.5,3.5-1.5l13.9-13.9l13.9,13.9c0.9,0.9,2.2,1.5,3.5,1.5c1.3,0,2.6-0.5,3.5-1.5l13.9-13.9l13.9,13.9
	c0.9,0.9,2.2,1.5,3.5,1.5s2.6-0.5,3.5-1.5l13.4-13.4v89c0,0.1,0,0.2,0,0.3v20.9c0,6.6-5.3,11.9-11.9,11.9H142.5
	c-6.6,0-11.9-5.3-11.9-11.9V289z M259.5,333.8c0,0.8-0.9,1.6-2.3,1.6h-114c-1.3,0-2.3-0.9-2.3-1.6v-2.1c0.5,0,1.1,0.1,1.6,0.1h113.6
	c1.1,0,2.2-0.1,3.3-0.2V333.8z M278.1,297.5V294h30.2l0.1,3.5H278.1z"/>
</svg>
