<?xml version="1.0" encoding="utf-8"?>
<!-- Generator: Adobe Illustrator 19.1.0, SVG Export Plug-In . SVG Version: 6.00 Build 0)  -->
<svg version="1.1" id="Layer_1" xmlns="http://www.w3.org/2000/svg" xmlns:xlink="http://www.w3.org/1999/xlink" x="0px" y="0px"
	 viewBox="0 0 400 400" style="enable-background:new 0 0 400 400;" xml:space="preserve">
<style type="text/css">
	.st0{fill:#231F20;}
</style>
<g>
	<path class="st0" d="M218.9,279.6l3.5-16.7c0.4-2.1-0.5-4.3-2.4-5.3c-0.6-0.4-15.2-9.8-7.8-45.1c3.4-16.2,1.5-30.9-5.6-42.5
		c-2.6-4.4-5.9-8.2-9.7-11.3c0.1-0.2,0.1-0.4,0.2-0.6c2.1-10-4.4-19.9-14.4-22c-9.8-2-19.4,4.1-21.8,13.7
		c-5.8,1.2-11.3,3.6-16.3,7.2c-11,7.8-18.6,20.6-22,36.8c-7.3,35.1-24.3,38.1-25.2,38.2c-2.1,0.3-3.9,1.8-4.3,3.9l-3.5,16.7
		c-0.6,2.7,1.2,5.4,3.9,5.9l42.6,8.9c0.4,8.3,6.4,15.7,14.9,17.4c1.2,0.2,2.4,0.4,3.6,0.4c7.1,0,13.6-4.1,16.7-10.4l41.6,8.7
		c0.3,0.1,0.7,0.1,1,0.1C216.3,283.6,218.4,282,218.9,279.6z M180.6,145.9c3.5,0.7,6,3.5,6.7,6.8c-2.8-1.3-5.8-2.3-8.9-2.9
		c-2.1-0.4-4.1-0.7-6.2-0.8C174.2,146.5,177.4,145.3,180.6,145.9z M159.4,273.7c-1.9,1.3-4.2,1.7-6.4,1.3c-3-0.6-5.3-2.7-6.3-5.4
		l14.2,3C160.4,273,159.9,273.4,159.4,273.7z M100.4,249.8l1.8-8.8c7.3-2.6,23.2-11.9,30.1-45.1c6.2-29.9,27.2-39.8,44-36.3
		c16.9,3.5,32.3,21,26,50.9c-4.3,20.9-1.7,34.5,2.2,43l-87.3-18.2c-2.7-0.6-5.4,1.2-5.9,3.9c-0.6,2.7,1.2,5.4,3.9,5.9l96.4,20.1
		l-1.6,7.4L100.4,249.8z"/>
	<path class="st0" d="M178.8,176.9c0.1,0,11.7,5.3,9.4,30.4c-0.3,2.8,1.8,5.2,4.5,5.4c0.2,0,0.3,0,0.5,0c2.6,0,4.7-2,5-4.5
		c3-32.9-14.9-40.3-15.7-40.6c-2.6-1-5.5,0.3-6.5,2.8C175,173,176.2,175.9,178.8,176.9z"/>
	<path class="st0" d="M167,172.2l0.2,0.1c0.8,0.4,1.6,0.6,2.4,0.6c1.8,0,3.5-1,4.4-2.6c0.4-0.8,0.6-1.6,0.6-2.4c0-1.8-1-3.5-2.6-4.4
		l-0.2-0.1c-2.4-1.3-5.5-0.4-6.8,2c-0.4,0.8-0.6,1.6-0.6,2.4C164.4,169.6,165.3,171.3,167,172.2z"/>
	<path class="st0" d="M306.8,107.8c-1.1-1.4-2.9-2.2-4.7-1.9c-0.3,0-29.8,3.9-40.1-15.5c-1-1.8-3-2.9-5-2.6
		c-2.1,0.2-3.8,1.8-4.3,3.8c0,0.1-3.6,13.9-14.1,19.6c-5.9,3.2-13.2,3.3-21.7,0.3c-1.7-0.6-3.7-0.2-5,1c-1.4,1.2-1.9,3.1-1.5,4.9
		c0,0.1,1.3,5.5-1.5,9.6c-2,2.9-5.8,4.8-11.3,5.5c-2.7,0.4-4.7,2.9-4.3,5.6c0.4,2.7,2.9,4.7,5.6,4.3c8.5-1.1,14.6-4.5,18.3-9.9
		c2.2-3.2,3.1-6.7,3.3-9.7c8.4,1.7,16.1,0.7,22.8-2.9c7.8-4.2,12.7-11.2,15.5-16.8c6,6.3,14.5,10.4,24.9,12.2c4.3,0.7,8.3,1,11.6,1
		c-5.8,17.7-3.8,31.1-1.4,39c-6.5,0.3-15.4,1.9-22.8,7.8c-6.3,5.1-10.3,12.3-11.8,21.5c-8.2-1.2-23.4-1.9-34.6,7
		c-2.2,1.7-2.5,4.9-0.8,7c1,1.2,2.4,1.9,3.9,1.9c1.1,0,2.2-0.4,3.1-1.1c11.7-9.2,31.3-4.1,31.5-4.1c1.5,0.4,3,0.1,4.2-0.8
		c1.2-0.9,2-2.3,2.1-3.8c0.5-8.9,3.4-15.6,8.7-19.8c9.3-7.5,23.4-5.4,23.5-5.4c2,0.3,3.9-0.5,5-2.2c1.1-1.7,1.1-3.8,0-5.5
		c-0.1-0.2-10.5-16.7,1.4-45.1C308.2,111.2,307.9,109.3,306.8,107.8z"/>
	<path class="st0" d="M227.2,165.3c0.9,0,1.8-0.2,2.6-0.7l39.1-23.4c2.4-1.4,3.1-4.5,1.7-6.9c-1.4-2.4-4.5-3.1-6.9-1.7L224.6,156
		c-2.4,1.4-3.1,4.5-1.7,6.9C223.8,164.4,225.5,165.3,227.2,165.3z"/>
	<path class="st0" d="M107.6,105.1c0.1,0.1,12.3,7.3,14.8,19c1.4,6.6-0.5,13.6-5.8,20.9c-0.9,1.2-1.2,2.8-0.8,4.2
		c0.4,1.5,1.4,2.7,2.8,3.3c0.1,0,5.5,2.5,11.1,7.2c0.9,0.8,2.1,1.2,3.2,1.2c1.4,0,2.8-0.6,3.8-1.8c1.8-2.1,1.5-5.3-0.6-7
		c-3-2.5-6-4.5-8.4-5.9c4.6-8.1,6.1-16.2,4.4-24.1c-1.9-8.7-7.2-15.3-11.8-19.6c7.7-4,14.1-11,18.7-20.5c1.9-3.9,3.3-7.7,4.2-10.9
		c15.2,10.3,28.4,12.3,36.7,12.2c-1.7,5.8-2.9,13.9-0.3,21.8c2.6,7.9,8.3,14.1,17.1,18.3c2.5,1.2,5.5,0.1,6.7-2.3
		c1.2-2.5,0.1-5.5-2.3-6.7c-6.2-3-10.1-7-11.9-12.3c-3.4-10.4,2.8-22.2,2.8-22.3c1-1.8,0.7-3.9-0.5-5.5c-1.3-1.6-3.4-2.2-5.3-1.7
		c-0.8,0.2-19.3,5.2-42.9-14c-1.4-1.1-3.3-1.4-5-0.8c-1.7,0.7-2.9,2.2-3.1,3.9c0,0.3-4.6,29.7-26.1,34.2c-2,0.4-3.6,2-3.9,4.1
		C104.9,102,105.8,104.1,107.6,105.1z"/>
	<path class="st0" d="M153.6,100c-2.7,0.7-4.3,3.4-3.6,6.1l6,22.8c0.6,2.2,2.6,3.7,4.8,3.7c0.4,0,0.8-0.1,1.3-0.2
		c2.7-0.7,4.3-3.4,3.6-6.1l-6-22.8C159,100.9,156.3,99.3,153.6,100z"/>
	<path class="st0" d="M227.8,203.5c-1.1-2.5-4-3.7-6.6-2.6c-2.5,1.1-3.7,4-2.6,6.6l45.1,105.8l-15-3.5c-2.2-0.5-4.5,0.5-5.5,2.5
		l-6.7,12.3l-11.8-27.7c-1.1-2.5-4-3.7-6.6-2.6c-2.5,1.1-3.7,4-2.6,6.6l15.9,37.2c0.8,1.8,2.4,2.9,4.4,3c0.1,0,0.2,0,0.2,0
		c1.8,0,3.5-1,4.4-2.6l9.8-17.9l20.9,4.9c1.8,0.4,3.8-0.2,5-1.6c1.2-1.4,1.5-3.4,0.8-5.2L227.8,203.5z"/>
</g>
</svg>
