<?xml version="1.0" encoding="utf-8"?>
<!-- Generator: Adobe Illustrator 19.1.0, SVG Export Plug-In . SVG Version: 6.00 Build 0)  -->
<svg version="1.1" id="Layer_1" xmlns="http://www.w3.org/2000/svg" xmlns:xlink="http://www.w3.org/1999/xlink" x="0px" y="0px"
	 viewBox="0 0 400 400" style="enable-background:new 0 0 400 400;" xml:space="preserve">
<style type="text/css">
	.st0{fill:#231F20;}
</style>
<g>
	<path class="st0" d="M163.3,202.7c0.3,9.3,2.2,40.2,16.6,54.7c5.2,5.2,11.4,7.9,18.6,7.9c7.1,0,13.4-2.7,18.5-7.9
		c14.3-14.5,16.1-45.5,16.4-54.8c4.7-3.6,15.4-13.1,18.2-25.6c0.3-1.3,0-2.7-0.7-3.8c-0.7-1.1-1.9-1.9-3.2-2.2
		c-0.4-0.1-5.2-1-11.1-0.2c6.4-7.5,11.8-18,12.3-32.5c0.1-2.8-2.1-5.1-4.8-5.2c-2.7-0.1-5.1,2.1-5.2,4.8c-0.3,8.5-2.7,15.4-6,20.8
		c-3.6-3.3-8.4-8.9-7.7-15.5c0.3-2.7-1.7-5.2-4.4-5.5c-2.7-0.3-5.2,1.7-5.5,4.4c-1.3,11.3,6.3,20,11.5,24.5c-3.5,3.5-7,6-9.9,7.7
		c-0.8-3.3-1.3-8,1.1-11.7c1.5-2.3,0.9-5.4-1.4-6.9c-2.3-1.5-5.4-0.9-6.9,1.4c-4.2,6.3-3.8,13.6-2.6,18.8c-5-0.7-10.7-0.9-16.9,0.2
		c1.2-5.2,1.7-12.6-2.6-19c-1.2-1.9-3.5-2.6-5.5-2.1c1.8-3.8,2.9-8.2,2.4-13c-0.3-2.7-2.8-4.7-5.5-4.4c-2.7,0.3-4.7,2.8-4.4,5.5
		c0.7,6.6-4.1,12.3-7.7,15.5c-3.3-5.4-5.7-12.3-6-20.8c-0.1-2.8-2.4-4.9-5.2-4.8c-2.8,0.1-4.9,2.4-4.8,5.2
		c0.5,14.1,5.7,24.4,11.8,31.9c-3.2-0.8-6.8-1.3-10.8-1.1c-1.4,0.1-2.7,0.7-3.6,1.8c-0.9,1.1-1.3,2.4-1.2,3.8
		C147.2,175.5,149.2,192.1,163.3,202.7z M178.4,161c0.1,0.6,0.4,1.3,0.7,1.8c2.1,3.2,2,7.1,1.4,10.3c-2.4-1.6-5-3.7-7.6-6.3
		C174.6,165.3,176.6,163.3,178.4,161z M173.9,188.7c1.5,2,4.2,2.7,6.4,1.5c19.4-10.3,37.9-0.5,38.7,0c2.4,1.3,5.3,0.5,6.7-1.8
		c3.5-5.9,9.5-7.5,14-7.8c-4.6,8.9-13.9,15.2-14,15.3c-1.4,0.9-2.3,2.5-2.2,4.2c0.1,10.1-2.1,38.8-13.5,50.3
		c-3.3,3.3-7,4.9-11.4,4.9c-4.4,0-8.2-1.6-11.5-4.9c-5.5-5.6-9.7-15.9-12-29.9c-1.8-10.9-1.8-20.2-1.8-20.4c0-1.7-0.9-3.3-2.3-4.2
		c-7.1-4.6-10.6-11.3-12.4-16.2C168.5,181.5,173.7,188.3,173.9,188.7z"/>
	<circle class="st0" cx="218.7" cy="204" r="3.6"/>
	<circle class="st0" cx="179.5" cy="204" r="3.6"/>
	<path class="st0" d="M198.9,248.6c7.6,0,13.8-6.2,13.8-13.7c0-7.6-6.2-13.7-13.8-13.7c-7.6,0-13.8,6.2-13.8,13.7
		C185.1,242.5,191.3,248.6,198.9,248.6z M198.9,231.2c2.1,0,3.8,1.7,3.8,3.7c0,2.1-1.7,3.7-3.8,3.7s-3.8-1.7-3.8-3.7
		C195.1,232.8,196.8,231.2,198.9,231.2z"/>
	<circle class="st0" cx="91.5" cy="221.6" r="3.1"/>
	<circle class="st0" cx="102.2" cy="221.6" r="3.1"/>
	<circle class="st0" cx="113.8" cy="221.6" r="3.1"/>
	<path class="st0" d="M325.9,234.6v-24.4c0-0.1,0-0.2,0-0.3c0-0.1,0-0.2,0-0.3v-62.4c0-0.6-0.2-15.7-10-30.9
		c-15.1-23.5-41.6-29.7-62.7-30.4v-12c0-9.8-7.9-17.7-17.7-17.7h-72.3c-9.8,0-17.7,7.9-17.7,17.7v12c-21,0.8-47.1,7.1-62.1,30.4
		c-9.7,15.2-10,30.2-10,30.9v126.4c0,6.3,3.5,11.7,8.7,14.5l-0.2,6.3c0,0.1,0,0.3,0,0.4c0.2,4.9,4.2,8.8,9.1,8.8h29.9v2.4
		c0,7.8,4.1,14.7,10.3,18.6c0,0.1,0,0.2,0,0.2v5.1c0,6.4,5.5,11.6,12.3,11.6h114c6.8,0,12.3-5.2,12.3-11.6v-4.4
		c0-0.6-0.1-1.3-0.4-1.8c5.4-4,9-10.4,9-17.7v-2.4h31.2c4.9,0,8.9-3.9,9.1-8.8c0-0.1,0-0.3,0-0.4l-0.3-7.1c0,0,0,0,0,0
		c4.5-3,7.4-8,7.4-13.8v-38.2c0-0.1,0-0.2,0-0.3S325.9,234.7,325.9,234.6z M309.4,280h-30.9v-40.1h37.4v33.6
		C315.9,277.1,313,280,309.4,280z M278.4,229.9v-15.1h37.4v15.1H278.4z M243.2,73.8v11.9h-10.5V66.1h2.8
		C239.8,66.1,243.2,69.6,243.2,73.8z M213.6,85.7V66.1h9.1v19.6H213.6z M194.2,85.7V66.1h9.4v19.6H194.2z M175.1,85.7V66.1h9.1v19.6
		H175.1z M155.6,73.8c0-4.2,3.4-7.7,7.7-7.7h1.8v19.6h-9.5V73.8z M90,280c-3.6,0-6.5-2.9-6.5-6.5l0-33.6h37.5V280H90z M120.9,229.9
		H83.4l0-15.1h37.5V229.9z M91.9,293.5L92,290h28.9v3.5H91.9z M130.9,285V168.6c0-2.8-2.2-5-5-5c-2.8,0-5,2.2-5,5v36.2H83.4l0-57.7
		c0-2.1,1.5-51.5,67.1-51.5h97.6h0.6c65.6,0,67.1,49.4,67.1,51.4v57.7h-37.4v-36.2c0-2.8-2.2-5-5-5s-5,2.2-5,5v116
		c0,0.1,0,0.2,0,0.3v20.9c0,6.6-5.3,11.9-11.9,11.9H142.8c-6.6,0-11.9-5.3-11.9-11.9V285z M259.8,329.8c0,0.8-0.9,1.6-2.3,1.6h-114
		c-1.3,0-2.3-0.9-2.3-1.6v-2.1c0.5,0,1.1,0.1,1.6,0.1h113.6c1.1,0,2.2-0.1,3.3-0.2V329.8z M278.4,293.5V290h30.2l0.1,3.5H278.4z"/>
	<circle class="st0" cx="286.5" cy="221.6" r="3.1"/>
	<circle class="st0" cx="297.2" cy="221.6" r="3.1"/>
	<circle class="st0" cx="308.8" cy="221.6" r="3.1"/>
</g>
</svg>
