<?xml version="1.0" encoding="utf-8"?>
<!-- Generator: Adobe Illustrator 19.1.0, SVG Export Plug-In . SVG Version: 6.00 Build 0)  -->
<svg version="1.1" id="Layer_1" xmlns="http://www.w3.org/2000/svg" xmlns:xlink="http://www.w3.org/1999/xlink" x="0px" y="0px"
	 viewBox="0 0 400 400" style="enable-background:new 0 0 400 400;" xml:space="preserve">
<style type="text/css">
	.st0{fill:#231F20;}
</style>
<path class="st0" d="M295.9,246.1c-4-15.2-13.2-28.1-26.1-36.8c0,0-0.1-0.1-0.1-0.1c-1.1-0.7-2.2-1.5-3.4-2.1l-20.1-11.7v-50.8h2.8
	c8.5,0,15.5-7,15.5-15.5v-42c0-8.5-7-15.5-15.5-15.5H113.9c-8.5,0-15.5,6.9-15.5,15.5v42c0,8.5,7,15.5,15.5,15.5h4.3v87
	c0,9.8,2.2,19.2,6.5,27.9c5.5,11.9,14.4,21.7,25.7,28.3l51.5,30c10.1,5.9,21.2,8.7,32.1,8.7c22,0,43.5-11.4,55.4-31.8
	C297.9,279.9,300.2,262.7,295.9,246.1z M259.3,214.6l-75.4,81.1l-5.1-3c5.8-9.9,7.8-21.4,6.1-32.5l54.1-57.5L259.3,214.6z
	 M189.1,144.6l-60.9,66.3v-33.3l30.6-33H189.1z M202.7,144.6h32l-74.6,80.2c-7.7-4.3-16.5-6.4-25.5-6.2L202.7,144.6z M236.2,157.6
	v33.6l-54.5,57.9c-1-2.3-2.1-4.6-3.5-6.9c-2.7-4.5-6.1-8.3-9.9-11.6L236.2,157.6z M108.4,129.1v-42c0-3,2.5-5.5,5.5-5.5H249
	c3,0,5.5,2.5,5.5,5.5v42c0,3-2.5,5.5-5.5,5.5h-56.9h-78.2C110.9,134.6,108.4,132.1,108.4,129.1z M145.1,144.6l-17,18.3v-18.3H145.1z
	 M133.7,255.2C133.7,255.2,133.6,255.2,133.7,255.2c-3.7-7.5-5.5-15.4-5.5-23.7v-2.1c16.1-3.4,32.8,3.7,41.5,18
	c7.6,12.4,7.7,27.9,0.4,40.3l-14.8-8.6C145.8,273.5,138.3,265.3,133.7,255.2z M192.8,300.9l75-80.7c5.9,4.7,10.7,10.6,14.2,17.4
	l-69.2,74.5c-2-0.9-4-1.8-5.9-3L192.8,300.9z M280.7,289.6c-7.2,12.4-18.9,21.3-32.9,25c-8.1,2.1-16.5,2.4-24.5,0.8l62.7-67.4
	c0.1,0.2,0.1,0.5,0.2,0.7C289.9,262.7,287.9,277.2,280.7,289.6z"/>
</svg>
